<?xml version='1.0' encoding='utf-8'?>
<svg xmlns="http://www.w3.org/2000/svg" width="192" height="192" version="1" id="svg12">
  <defs>
    <filter style="color-interpolation-filters:sRGB" id="filter854" x="0.03" width="1.07" y="0.08" height="1.15">
      <feGaussianBlur stdDeviation="2.32"/>
    </filter>
    <filter style="color-interpolation-filters:sRGB" id="filter870" x="0.04" width="1.09" y="0.05" height="1.11">
      <feGaussianBlur stdDeviation="2"/>
    </filter>
  </defs>
  <path style="filter:url(#filter870);opacity:0.20" d="m 40,92 v 80 c 0,4.43 3.57,8 8,8 h 96 c 4.43,0 8,-3.57 8,-8 V 92 Z"/>
  <path style="fill:#599124" d="M 40,87.60 V 168 c 0,4.43 3.57,8 8,8 h 96 c 4.43,0 8,-3.57 8,-8 V 87.60 Z"/>
  <path d="m 24,20 c -4.43,0 -8,3.57 -8,8 v 64 h 24 112 24 V 28 c 0,-4.43 -3.57,-8 -8,-8 z" style="filter:url(#filter854);opacity:0.20;fill:#000000"/>
  <path style="fill:#7ec242" d="m 24,16 c -4.43,0 -8,3.57 -8,8 v 64 h 24 112 24 V 24 c 0,-4.43 -3.57,-8 -8,-8 z"/>
  <path style="opacity:0.20;fill:#ffffff" d="M 24 16 C 19.57 16 16 19.57 16 24 L 16 25 C 16 20.57 19.57 17 24 17 L 168 17 C 172.43 17 176 20.57 176 25 L 176 24 C 176 19.57 172.43 16 168 16 L 24 16 z "/>
</svg>
