<?xml version='1.0' encoding='utf-8'?>
<svg xmlns="http://www.w3.org/2000/svg" width="192" height="192" version="1" id="svg14">
  <defs>
    <filter style="color-interpolation-filters:sRGB" id="filter850" x="0.05" width="1.10" y="0.05" height="1.10">
      <feGaussianBlur stdDeviation="3.20"/>
    </filter>
    <filter style="color-interpolation-filters:sRGB" id="filter871" x="0.05" width="1.10" y="0.05" height="1.10">
      <feGaussianBlur stdDeviation="2.08"/>
    </filter>
  </defs>
  <rect style="filter:url(#filter850);opacity:0.20;fill:#000000" width="160" height="160" x="-180" y="-176" rx="80" ry="80" transform="matrix(0,-1,-1,0,0,0)"/>
  <rect transform="matrix(0,-1,-1,0,0,0)" ry="80" rx="80" y="-176" x="-176" height="160" width="160" style="fill:#f44f43"/>
  <path d="m 96,48 a 52,52 0 0 0 -52,52 52,52 0 0 0 52,52 v -12 a 40,40 0 0 1 -40,-40 40,40 0 0 1 40,-40 40,40 0 0 1 40,40 h 12 A 52,52 0 0 0 96,48 Z m 0,20 a 32,32 0 0 0 -32,32 32,32 0 0 0 32,32 v -8 a 24,24 0 0 1 -24,-24 24,24 0 0 1 24,-24 24,24 0 0 1 24,24 h 8 A 32,32 0 0 0 96,68 Z" style="filter:url(#filter871);opacity:0.20"/>
  <path d="M 96,44 A 52,52 0 0 0 44,96 52,52 0 0 0 96,148 V 136 A 40,40 0 0 1 56,96 40,40 0 0 1 96,56 40,40 0 0 1 136,96 h 12 A 52,52 0 0 0 96,44 Z m 0,20 a 32,32 0 0 0 -32,32 32,32 0 0 0 32,32 v -8 A 24,24 0 0 1 72,96 24,24 0 0 1 96,72 24,24 0 0 1 120,96 h 8 A 32,32 0 0 0 96,64 Z" style="fill:#ffffff"/>
  <path style="opacity:0.20;fill:#ffffff" d="M 96 16 C 51.68 16 16 51.68 16 96 C 16 96.17 16.00 96.33 16.01 96.50 C 16.27 52.41 51.85 17 96 17 C 140.15 17 175.73 52.41 175.99 96.50 C 176.00 96.33 176 96.17 176 96 C 176 51.68 140.32 16 96 16 z "/>
</svg>
