<?xml version='1.0' encoding='utf-8'?>
<svg xmlns="http://www.w3.org/2000/svg" width="192" height="192" version="1" id="svg12">
  <defs>
    <filter style="color-interpolation-filters:sRGB" id="filter955" x="0.05" width="1.10" y="0.05" height="1.10">
      <feGaussianBlur stdDeviation="3.20"/>
    </filter>
    <filter style="color-interpolation-filters:sRGB" id="filter11065" x="0.04" y="0.08" width="1.09" height="1.15">
      <feGaussianBlur stdDeviation="2.87"/>
    </filter>
    <filter style="color-interpolation-filters:sRGB" id="filter11118" x="0.04" y="0.08" width="1.08" height="1.17">
      <feGaussianBlur stdDeviation="2.69"/>
    </filter>
  </defs>
  <rect style="filter:url(#filter955);opacity:0.20;fill:#000000" width="160" height="160" x="16" y="20" rx="30" ry="30"/>
  <rect style="fill:#006ab4" width="160" height="160" x="16" y="16" rx="30" ry="30"/>
  <path style="fill:#ecc209" d="m 52.64,111.00 23.00,-13.47 6.93,27.76 c 5.31,17.79 -30.05,16.01 -39.37,16.70 z"/>
  <circle style="fill:#ecc9be" cx="-77" cy="104" r="10" transform="scale(-1,1)"/>
  <circle style="fill:#ecc9be" cx="121" cy="104" r="10"/>
  <path style="opacity:0.10;fill:#ffffff" d="M 46 16 C 29.38 16 16 29.38 16 46 L 16 47 C 16 30.38 29.38 17 46 17 L 146 17 C 162.62 17 176 30.38 176 47 L 176 46 C 176 29.38 162.62 16 146 16 L 46 16 z "/>
  <path style="filter:url(#filter11065);opacity:0.20;fill:#000000" d="m 30,58 c -4.89,0 -9.59,0.79 -14,2.23 V 145.77 C 20.41,147.21 25.11,148 30,148 54.85,148 75,127.85 75,103 75,78.15 54.85,58 30,58 Z m 138,0 a 45,45 0 0 0 -45,45 45,45 0 0 0 45,45 45,45 0 0 0 8,0.81 V 58.73 A 45,45 0 0 0 168,58 Z"/>
  <path style="fill:#f0d4ca" d="M 168 56 A 45 45 0 0 0 123 101 A 45 45 0 0 0 168 146 A 45 45 0 0 0 176 145.19 L 176 56.73 A 45 45 0 0 0 168 56 z "/>
  <path style="fill:#f0d4ca" d="M 30 56 C 25.11 56 20.41 56.79 16 58.23 L 16 143.77 C 20.41 145.21 25.11 146 30 146 C 54.85 146 75 125.85 75 101 C 75 76.15 54.85 56 30 56 z "/>
  <path style="fill:#ecc209" d="M 30 56 C 25.11 56 20.41 56.79 16 58.23 L 16 89.67 C 26.08 87.08 34.96 86.93 50.79 72.55 C 52.53 75.89 50.73 78.39 49.34 80.98 C 57.38 82.19 64.88 84.04 72.39 85.88 C 66.18 68.47 49.55 56 30 56 z "/>
  <path style="filter:url(#filter11118);opacity:0.20;fill:#000000" d="m 56,55 c -3.31,0 -6,2.69 -6,6 0,3.31 2.69,6 6,6 3.31,0 6,-2.69 6,-6 0,-3.31 -2.69,-6 -6,-6 z m 96.50,17 c -5.25,0 -9.50,4.25 -9.50,9.50 0,5.25 4.25,9.50 9.50,9.50 9.90,0 18.50,-6 18.50,-6 h -9.69 c 0.45,-1.11 0.69,-2.30 0.69,-3.50 0,-5.25 -4.25,-9.50 -9.50,-9.50 z M 50,101 c -2.73,0 -4.95,1.79 -4.95,4 0,0 0.12,1.91 0,2.86 0.22,1.77 0.68,2.68 0.68,2.68 0,0 1.30,0.54 4.27,0.54 2.97,0 4.27,0.54 4.27,0.54 0,0 0.46,0.91 0.68,-2.68 0.12,0.95 0,-2.86 0,-2.86 0,-2.21 -2.21,-4 -4.95,-4 z m 97,0 c -2.73,0 -4.95,1.79 -4.95,4 0,0 0.12,1.91 0,2.86 0.22,1.77 0.68,2.68 0.68,2.68 0,0 1.30,0.54 4.27,0.54 2.97,0 4.27,0.54 4.27,0.54 0,0 0.46,0.91 0.68,-2.68 0.12,0.95 0,-2.86 0,-2.86 0,-2.21 -2.21,-4 -4.95,-4 z M 39,126.22 c -3.34,0.54 -6.97,0.82 -10.66,0.82 -3.20,0.00 -6.37,0.21 -9.34,0.62 0.71,4.35 4.97,6.58 9.99,6.58 5.10,0.01 9.40,-2.35 10.01,-6.78 z m 119,0 c 0.59,4.43 4.77,6.77 9.73,6.78 3.36,0.01 6.48,-1.55 8.27,-4.11 v -2.29 c -2.47,0.29 -5.05,0.43 -7.64,0.44 -3.58,0.01 -7.11,0.29 -10.36,0.82 z"/>
  <path style="fill:#3f3f3f" d="m 147,100 c -2.73,0 -4.95,1.79 -4.95,4 0,0 0.12,1.91 0,2.86 0.22,1.77 0.68,2.68 0.68,2.68 0,0 1.30,0.54 4.27,0.54 2.97,0 4.27,0.54 4.27,0.54 0,0 0.46,0.91 0.68,-2.68 0.12,0.95 0,-2.86 0,-2.86 0,-2.21 -2.22,-4 -4.95,-4 z"/>
  <path style="fill:#ffffff" d="M 158 124.22 A 9.81 8.83 0 0 0 167.73 132 A 9.81 8.83 0 0 0 176 127.89 L 176 124.60 A 24.86 8.83 0 0 1 168.36 125.04 A 24.86 8.83 0 0 1 158 124.22 z "/>
  <path style="fill:#3f3f3f" d="m 50.00,100 c 2.73,0 4.95,1.79 4.95,4 0,0 0.12,1.91 0,2.86 0.22,1.77 0.68,2.68 0.68,2.68 0,0 -1.30,0.54 -4.27,0.54 -2.97,0 -4.27,0.54 -4.27,0.54 0,0 0.46,0.91 0.68,-2.68 0.12,0.95 0,-2.86 0,-2.86 0,-2.21 2.22,-4 4.95,-4 z"/>
  <path style="fill:#ffffff" d="M 39,124.22 A 10.09,8.83 0 0 1 28.99,132 10.09,8.83 0 0 1 19,124.42 25.57,8.83 0 0 0 28.34,125.04 25.57,8.83 0 0 0 39,124.22 Z"/>
  <path style="fill:#3799ef" d="M 168 55 C 149.09 55.05 131.22 67.92 124.80 85.71 C 138.49 80.82 157.71 79.71 176 79.84 L 176 55.79 C 173.39 55.27 170.71 55.00 168 55 z "/>
  <path style="fill:#ecc209" d="M 152.50 71 A 9.50 9.50 0 0 0 143 80.50 A 9.50 9.50 0 0 0 152.50 90 C 162.40 90 171 84 171 84 L 161.31 84 A 9.50 9.50 0 0 0 162 80.50 A 9.50 9.50 0 0 0 152.50 71 z "/>
  <path style="fill:#bb3f72" d="m 58.36,58.63 c 0.09,-2.27 14.63,-1.38 16.18,2.03 1.90,4.17 0.70,11.96 -4.47,13.50 -2.92,1.19 -15.21,-8.67 -12.55,-10.55 0.87,0.61 1.78,0.65 2.34,-1.25 0.56,-1.90 -1.56,-2.17 -1.50,-3.73 z"/>
  <path style="fill:#bb3f72" d="m 55.76,57.34 c 1.77,-1.43 -7.65,-12.54 -11.31,-11.74 -4.47,0.98 -9.16,7.72 -8.13,11.66 0.80,3.06 16.05,6.99 15.96,3.74 0.03,-1.06 -1.59,-1.03 0.40,-2.63 1.18,-1.58 2.67,0.05 3.88,-1.03 z"/>
  <circle style="fill:#e4498b" cx="56" cy="60" r="6"/>
</svg>
