<?xml version='1.0' encoding='utf-8'?>
<svg xmlns="http://www.w3.org/2000/svg" width="192" height="192" version="1" id="svg14">
  <defs>
    <filter style="color-interpolation-filters:sRGB" id="filter850" x="0.05" width="1.10" y="0.05" height="1.10">
      <feGaussianBlur stdDeviation="3.20"/>
    </filter>
    <filter style="color-interpolation-filters:sRGB" id="filter1918" x="0.06" y="0.10" width="1.12" height="1.20">
      <feGaussianBlur stdDeviation="2.56"/>
    </filter>
  </defs>
  <circle style="filter:url(#filter850);opacity:0.20;fill:#000000" cx="96" cy="100" r="80"/>
  <circle r="80" cy="96" cx="96" style="fill:#e4e4e4"/>
  <path style="filter:url(#filter1918);opacity:0.20;fill:#000000;color:#000000" d="m 79.24,67.00 a 12.50,12.50 0 0 0 -2.43,0.29 12.50,12.50 0 0 0 -7.84,5.48 l -23,36.00 a 12.50,12.50 0 0 0 3.80,17.26 12.50,12.50 0 0 0 17.26,-3.80 l 23,-36.00 A 12.50,12.50 0 0 0 86.23,68.97 12.50,12.50 0 0 0 79.24,67.00 Z m 39.00,0 a 12.50,12.50 0 0 0 -2.43,0.29 12.50,12.50 0 0 0 -7.84,5.48 L 84.97,108.77 a 12.50,12.50 0 0 0 3.80,17.26 12.50,12.50 0 0 0 17.26,-3.80 l 23,-36.00 a 12.50,12.50 0 0 0 -3.80,-17.26 12.50,12.50 0 0 0 -6.99,-1.96 z M 134.50,103 A 12.50,12.50 0 0 0 122,115.50 12.50,12.50 0 0 0 134.50,128 12.50,12.50 0 0 0 147,115.50 12.50,12.50 0 0 0 134.50,103 Z"/>
  <path style="opacity:0.20;fill:#ffffff" d="M 96 16 A 80 80 0 0 0 16 96 A 80 80 0 0 0 16.02 96.47 A 80 80 0 0 1 96 17 A 80 80 0 0 1 175.97 96.51 A 80 80 0 0 0 176 96 A 80 80 0 0 0 96 16 z "/>
  <path style="fill:#f13163;color:#000000" d="m 76.81,65.29 a 12.50,12.50 0 0 0 -7.84,5.48 l -23,36.00 a 12.50,12.50 0 0 0 3.80,17.26 12.50,12.50 0 0 0 17.26,-3.80 l 23,-36.00 A 12.50,12.50 0 0 0 86.23,66.97 12.50,12.50 0 0 0 76.81,65.29 Z"/>
  <path style="fill:#ffaa00;color:#000000" d="m 115.81,65.29 a 12.50,12.50 0 0 0 -7.84,5.48 L 84.97,106.77 a 12.50,12.50 0 0 0 3.80,17.26 12.50,12.50 0 0 0 17.26,-3.80 l 23,-36.00 a 12.50,12.50 0 0 0 -3.80,-17.26 12.50,12.50 0 0 0 -9.42,-1.67 z"/>
  <circle style="fill:#00ca72" cx="134.50" cy="113.50" r="12.50"/>
</svg>
