<svg xmlns="http://www.w3.org/2000/svg" id="svg28" width="192" height="192" version="1"><defs><filter style="color-interpolation-filters:sRGB" id="filter6495" width="1.1" height="1.1" x=".05" y=".05"><feGaussianBlur stdDeviation="3.2"/></filter><filter style="color-interpolation-filters:sRGB" id="filter6589" width="1.16" height="1.14" x=".08" y=".07"><feGaussianBlur stdDeviation="3"/></filter></defs><rect width="160" height="160" x="-180" y="-176" rx="12" ry="12" transform="matrix(0,-1,-1,0,0,0)" style="filter:url(#filter6495);opacity:.2;fill:#000"/><rect width="160" height="160" x="-176" y="-176" rx="12" ry="12" transform="matrix(0,-1,-1,0,0,0)" style="fill:#00a4d3"/><path style="filter:url(#filter6589);opacity:.2;fill:#000" d="M 108.56,46 90,78 77,57 51,103 h 90 z M 52,120 v 28 h 5 v -13.18 c 0.05,-1.33 0.08,-2.67 0,-4 l 0.02,-4 h 0.16 L 69.42,148 H 77 v -28 h -5 v 13.26 3.84 c 0,1.28 0.02,2.58 0.01,3.88 h 0.22 L 59.54,120 Z m 30,0 v 28 h 5 v -13.02 c 0.02,0.97 0.05,-2.04 0,-3.21 0.05,-1.20 0.05,-2.33 0,-3.37 0.05,-1.05 0.02,-1.83 0.04,-2.35 h 0.16 L 93.88,148 h 5.46 L 106.88,126.08 h 0.16 c 0.03,0.52 0.02,1.31 0.03,2.35 0.03,1.02 0.05,2.10 0,3.25 0.03,1.15 0,2.17 0,3.06 V 148 h 5 v -28 h -8.10 l -7.04,21.41 h 0.12 L 90.10,120 Z m 36,0 v 28 h 10.60 c 3.23,0 5.77,0.72 7.62,-2.16 1.85,-1.44 2.78,-3.42 2.78,-5.96 0,-1.46 0.23,-2.64 0.68,-3.53 0.45,0.89 -1.06,-1.57 -1.82,-2.04 0.77,0.47 -1.63,0.80 -2.58,0.98 v 0.20 c 1.40,0.24 2.17,0.90 2.92,-2 0.77,-1.10 1.17,-2.44 1.17,-4.04 0,-2.64 0.98,-4.48 -2.91,-5.53 C 133.16,120.52 130.60,120 126.81,120 Z m 6,5 h 3.12 c 1.69,0 2.93,0.23 3.71,0.68 0.78,0.45 1.17,1.20 1.17,2.23 0,1.01 0.34,1.77 -1.01,2.30 C 130.34,130.74 129.15,131 127.43,131 H 124 Z m 0,11 h 3.83 c 1.95,0 3.30,0.31 4.03,0.94 0.76,0.60 1.14,1.40 1.14,2.41 0,1.10 0.37,1.99 -1.10,2.67 C 131.17,142.67 129.88,143 128.03,143 H 124 Z"/><path style="fill:#89d5eb" d="M 52 118 L 52 146 L 57 146 L 57 132.82 C 56.95 131.49 57.08 130.16 57 128.82 L 56.98 124.82 L 57.13 124.82 L 69.42 146 L 77 146 L 77 118 L 72 118 L 72 131.26 L 72 135.10 C 72 136.38 71.98 137.67 72.01 138.98 L 71.79 138.98 L 59.54 118 L 52 118 z M 82 118 L 82 146 L 87 146 L 87 132.98 C 86.98 132.01 87.05 130.94 87 129.77 C 86.95 128.56 87.05 127.44 87 126.39 C 86.95 125.35 86.98 124.56 86.96 124.04 L 87.11 124.04 L 93.88 146 L 99.34 146 L 106.88 124.08 L 107.03 124.08 C 107.00 124.60 107.05 125.39 107 126.43 C 106.97 127.45 107.05 128.54 107 129.69 C 106.97 130.84 107 131.86 107 132.74 L 107 146 L 112 146 L 112 118 L 103.90 118 L 96.86 139.41 L 96.74 139.41 L 90.10 118 L 82 118 z M 118 118 L 118 146 L 128.60 146 C 131.83 146 134.37 145.28 136.22 143.84 C 138.07 142.41 139 140.42 139 137.88 C 139 136.42 138.77 135.24 138.32 134.35 C 137.87 133.46 137.27 132.79 136.50 132.31 C 135.73 131.84 134.87 131.52 133.92 131.33 L 133.92 131.14 C 135.32 130.90 136.09 130.23 136.83 129.14 C 137.60 128.04 138 126.69 138 125.10 C 138 122.46 137.02 120.61 135.09 119.57 C 133.16 118.52 130.60 118 126.81 118 L 118 118 z M 124 123 L 127.12 123 C 128.81 123 130.05 123.23 130.83 123.68 C 131.61 124.13 132 124.87 132 125.91 C 132 126.91 131.66 127.68 130.99 128.21 C 130.34 128.74 129.15 129 127.43 129 L 124 129 L 124 123 z M 124 134 L 127.83 134 C 129.78 134 131.13 134.31 131.86 134.94 C 132.62 135.54 133 136.35 133 137.35 C 133 138.45 132.63 139.34 131.90 140.02 C 131.17 140.67 129.88 141 128.03 141 L 124 141 L 124 134 z"/><path style="opacity:.2;fill:#fff" d="m 28,16 c -6.65,0 -12,5.35 -12,12 v 1 c 0,-6.65 5.35,-12 12,-12 h 136 c 6.65,0 12,5.35 12,12 v -1 c 0,-6.65 -5.35,-12 -12,-12 z"/><path style="fill:#fff" d="M 77,55 90,76 108.56,44 141,101 H 51.00 Z"/></svg>