<?xml version='1.0' encoding='utf-8'?>
<svg xmlns="http://www.w3.org/2000/svg" width="192" height="192" version="1" id="svg18">
  <defs>
    <filter style="color-interpolation-filters:sRGB" id="filter893" x="0.05" width="1.10" y="0.05" height="1.10">
      <feGaussianBlur stdDeviation="3.20"/>
    </filter>
    <filter style="color-interpolation-filters:sRGB" id="filter916" x="0.06" width="1.12" y="0.04" height="1.08">
      <feGaussianBlur stdDeviation="1.84"/>
    </filter>
    <filter style="color-interpolation-filters:sRGB" id="filter920" x="0.14" width="1.27" y="0.03" height="1.06">
      <feGaussianBlur stdDeviation="1.36"/>
    </filter>
  </defs>
  <rect style="filter:url(#filter893);opacity:0.20;fill:#000000" width="160" height="160" x="16" y="20" rx="8" ry="8"/>
  <rect style="fill:#4f4f4f" width="160" height="160" x="16" y="16" rx="8" ry="8"/>
  <path style="opacity:0.10;fill:#ffffff" d="M 24 16 C 19.57 16 16 19.57 16 24 L 16 25 C 16 20.57 19.57 17 24 17 L 168 17 C 172.43 17 176 20.57 176 25 L 176 24 C 176 19.57 172.43 16 168 16 L 24 16 z "/>
  <path style="fill:#d44338" d="m 108,40 h 24 v 112 l -24,-4 z"/>
  <path style="filter:url(#filter920);opacity:0.20" d="M 60,43.00 V 155.00 l 24,-4 V 43.00 Z"/>
  <path style="fill:#d44338" d="m 60,40 v 112 l 24,-4 V 40 Z"/>
  <path style="filter:url(#filter916);opacity:0.20" d="m 60,43.00 48,108.00 24,4 v -4 l -24,-4 V 99.00 l -24,-56 z"/>
  <path style="fill:#ff695e" d="m 60,40 48,108 24,4 L 84,40 Z"/>
</svg>
