<?xml version='1.0' encoding='utf-8'?>
<svg xmlns="http://www.w3.org/2000/svg" width="192" height="192" version="1" id="svg28">
  <defs>
    <filter style="color-interpolation-filters:sRGB" id="filter6495" x="-0.048000001" y="-0.048000001" width="1.096" height="1.096">
      <feGaussianBlur stdDeviation="3.2"/>
    </filter>
    <filter style="color-interpolation-filters:sRGB" id="filter11668" x="-0.099692308" y="-0.11781818" width="1.1993846" height="1.2356364">
      <feGaussianBlur stdDeviation="3.24"/>
    </filter>
  </defs>
  <rect transform="matrix(0,-1,-1,0,0,0)" ry="12" rx="12" y="-176" x="-180" height="160" width="160" style="filter:url(#filter6495);opacity:0.2;fill:#000000"/>
  <path style="fill:#e4e4e4" transform="matrix(0,-1,-1,0,0,0)" d="M -159.30032,-165.7683 -152.43299,-176 H -28 c 6.648,0 12,5.352 12,12 v 20.39367 l -9.817701,102.635318 c -0.633033,6.617792 -1.172203,11.712025 -6.98856,14.931636 L -50.942802,-16 H -164 c -6.648,0 -12,-5.352 -12,-12 v -55.623189 l 9.6738,-73.420301 c 0.86843,-6.59103 3.321,-3.20487 7.02588,-8.72481 z"/>
  <path style="filter:url(#filter11668);opacity:0.2;fill:#000000;color:#000000" d="M 64.35849,68.999999 C 60.294677,69.000409 57.000406,72.320304 57,76.415729 V 95.696625 C 57,117.31542 74.548074,135 95.999994,135 117.45192,135 135,117.31542 135,95.696625 V 84 H 120 V 95.696625 C 120,109.29991 109.49828,120 95.999993,120 82.501715,120 72.329057,109.29593 72,95.696625 V 84 h 48 V 68.999999 Z"/>
  <path style="fill:#ff732f;color:#000000" d="M 64.35849,66.999999 C 60.294677,67.000409 57.000406,70.320304 57,74.415729 V 93.696625 C 57,115.31542 74.548074,133 95.999994,133 117.45192,133 135,115.31542 135,93.696625 V 82 H 120 V 93.696625 C 120,107.29991 109.49828,118 95.999993,118 82.501715,118 72.329057,107.29593 72,93.696625 V 82 h 48 V 66.999999 Z"/>
  <path style="fill:#ff732f" d="M 28 16 C 21.352 16 16 21.352 16 28 L 16 51.572266 L 149.36523 16 L 28 16 z "/>
  <path style="fill:#31b77e" d="M 176 150.67188 L 81.041016 176 L 164 176 C 170.648 176 176 170.648 176 164 L 176 150.67188 z "/>
  <path style="opacity:0.2;fill:#ffffff" d="m 28,16 c -6.648,0 -12,5.352 -12,12 v 1 c 0,-6.648 5.352,-12 12,-12 h 136 c 6.648,0 12,5.352 12,12 v -1 c 0,-6.648 -5.352,-12 -12,-12 z"/>
</svg>
