<?xml version='1.0' encoding='utf-8'?>
<svg xmlns:xlink="http://www.w3.org/1999/xlink" xmlns="http://www.w3.org/2000/svg" width="192" height="192" version="1" id="svg14">
  <defs>
    <linearGradient id="linearGradient2739">
      <stop style="stop-color:#f14d5d;stop-opacity:1" offset="0"/>
      <stop style="stop-color:#f14d5d;stop-opacity:0" offset="1"/>
    </linearGradient>
    <linearGradient id="linearGradient2731">
      <stop style="stop-color:#f8c300;stop-opacity:1" offset="0"/>
      <stop style="stop-color:#f8c300;stop-opacity:0" offset="1"/>
    </linearGradient>
    <filter style="color-interpolation-filters:sRGB" id="filter850" x="0.05" width="1.10" y="0.05" height="1.10">
      <feGaussianBlur stdDeviation="3.20"/>
    </filter>
    <linearGradient xlink:href="#linearGradient2731" id="linearGradient2733" x1="64.74" y1="128.97" x2="139.89" y2="101.78" gradientUnits="userSpaceOnUse"/>
    <linearGradient xlink:href="#linearGradient2739" id="linearGradient2741" x1="127.78" y1="57.41" x2="46.28" y2="113.21" gradientUnits="userSpaceOnUse"/>
    <filter style="color-interpolation-filters:sRGB" id="filter2917" x="0.08" y="0.08" width="1.15" height="1.15">
      <feGaussianBlur stdDeviation="2.75"/>
    </filter>
  </defs>
  <circle style="filter:url(#filter850);opacity:0.20;fill:#000000" cx="96" cy="100" r="80"/>
  <circle r="80" cy="96" cx="96" style="fill:#1c4ca0"/>
  <path style="opacity:0.10;fill:#ffffff" d="M 96 16 A 80 80 0 0 0 16 96 A 80 80 0 0 0 16.02 96.47 A 80 80 0 0 1 96 17 A 80 80 0 0 1 175.97 96.51 A 80 80 0 0 0 176 96 A 80 80 0 0 0 96 16 z "/>
  <path style="fill:url(#linearGradient2733)" d="m 143.51,70.35 -11.86,7.52 A 40,40 0 0 1 136,96 40,40 0 0 1 96,136 40,40 0 0 1 64.48,120.46 L 52.65,127.97 A 54,54 0 0 0 96,150 54,54 0 0 0 150,96 54,54 0 0 0 143.51,70.35 Z"/>
  <path style="fill:url(#linearGradient2741)" d="m 96,42 a 54,54 0 0 0 -54,54 54,54 0 0 0 6.40,25.22 L 60.28,113.69 A 40,40 0 0 1 56,96 40,40 0 0 1 96,56 40,40 0 0 1 127.33,71.16 l 11.88,-7.54 A 54,54 0 0 0 96,42 Z"/>
  <path style="filter:url(#filter2917);opacity:0.20;fill:#000000" d="m 96,54 a 44,44 0 0 0 -44,44 44,44 0 0 0 44,44 44,44 0 0 0 41.24,-28.98 l -11.94,-5.04 A 31,31 0 0 1 96,129 31,31 0 0 1 65,98 31,31 0 0 1 96,67 31,31 0 0 1 125.33,88.00 L 137.34,82.94 A 44,44 0 0 0 96,54 Z"/>
  <path style="fill:#ffffff" d="M 96 52 A 44 44 0 0 0 52 96 A 44 44 0 0 0 96 140 A 44 44 0 0 0 137.24 111.02 L 125.30 105.98 A 31 31 0 0 1 96 127 A 31 31 0 0 1 65 96 A 31 31 0 0 1 96 65 A 31 31 0 0 1 125.33 86.00 L 137.34 80.94 A 44 44 0 0 0 96 52 z "/>
</svg>
