<?xml version='1.0' encoding='utf-8'?>
<svg xmlns="http://www.w3.org/2000/svg" width="192" height="192" version="1" id="svg12">
  <defs>
    <filter style="color-interpolation-filters:sRGB" id="filter955" x="-0.048000001" width="1.096" y="-0.048000001" height="1.096">
      <feGaussianBlur stdDeviation="3.2"/>
    </filter>
    <filter style="color-interpolation-filters:sRGB" id="filter4805" x="-0.073907767" y="-0.076125" width="1.1478155" height="1.15225">
      <feGaussianBlur stdDeviation="3.171875"/>
    </filter>
  </defs>
  <rect style="filter:url(#filter955);opacity:0.2;fill:#000000" width="160" height="160" x="16" y="20" rx="30" ry="30"/>
  <rect style="fill:#ececec" width="160" height="160" x="16" y="16" rx="30" ry="30"/>
  <path style="opacity:0.2;fill:#ffffff" d="M 46 16 C 29.38 16 16 29.38 16 46 L 16 47 C 16 30.38 29.38 17 46 17 L 146 17 C 162.62 17 176 30.38 176 47 L 176 46 C 176 29.38 162.62 16 146 16 L 46 16 z "/>
  <path style="filter:url(#filter4805);opacity:0.2;fill:#000000" d="M 45,48 V 148 H 63 V 48 Z m 66,0 a 37,37 0 0 0 -37,37 37,37 0 0 0 37,37 37,37 0 0 0 37,-37 37,37 0 0 0 -37,-37 z"/>
  <path style="fill:#ff424d" d="M 45 46 L 45 146 L 63 146 L 63 46 L 45 46 z M 111 46 A 37 37 0 0 0 74 83 A 37 37 0 0 0 111 120 A 37 37 0 0 0 148 83 A 37 37 0 0 0 111 46 z "/>
</svg>
