<svg xmlns="http://www.w3.org/2000/svg" id="svg26" width="192" height="192" version="1"><defs><filter style="color-interpolation-filters:sRGB" id="filter871" width="1.1" height="1.1" x=".05" y=".05"><feGaussianBlur stdDeviation="3.2"/></filter><filter style="color-interpolation-filters:sRGB" id="filter892" width="1.11" height="1.08" x=".06" y=".04"><feGaussianBlur stdDeviation="1.84"/></filter><filter style="color-interpolation-filters:sRGB" id="filter916" width="1.12" height="1.08" x=".06" y=".04"><feGaussianBlur stdDeviation=".68"/></filter><filter style="color-interpolation-filters:sRGB" id="filter936" width="1.12" height="1.08" x=".06" y=".04"><feGaussianBlur stdDeviation="1.1"/></filter></defs><rect width="136" height="136" x="-164" y="-164" rx="68" ry="68" transform="matrix(0,-1,-1,0,0,0)" style="fill:#393939"/><path d="m 96,20 c -44.32,0 -80,35.68 -80,80 0,44.32 35.68,80 80,80 44.32,0 80,-35.68 80,-80 0,-44.32 -35.68,-80 -80,-80 z m 0,14 c 36.56,0 66,29.44 66,66 0,36.56 -29.44,66 -66,66 C 59.44,166 30,136.56 30,100 30,63.44 59.44,34 96,34 Z" style="filter:url(#filter871);opacity:.2;fill:#000"/><path style="fill:#489fe8" d="M 96 16 C 51.68 16 16 51.68 16 96 C 16 140.32 51.68 176 96 176 C 140.32 176 176 140.32 176 96 C 176 51.68 140.32 16 96 16 z M 96 30 C 132.56 30 162 59.44 162 96 C 162 132.56 132.56 162 96 162 C 59.44 162 30 132.56 30 96 C 30 59.44 59.44 30 96 30 z"/><path d="M 76.03,48.00 A 3.93,4.49 0 0 0 72,52.49 v 95.03 a 3.93,4.49 0 0 0 5.90,3.88 l 36.07,-23.75 36.07,-23.75 a 3.93,4.49 0 0 0 0,-7.77 L 113.97,72.35 77.90,48.60 a 3.93,4.49 0 0 0 -1.88,0.60 z" style="filter:url(#filter892);opacity:.2;fill:#000"/><path d="M 76.03,44.00 A 3.93,4.49 0 0 0 72,48.49 v 95.03 a 3.93,4.49 0 0 0 5.90,3.88 l 36.07,-23.75 36.07,-23.75 a 3.93,4.49 0 0 0 0,-7.77 L 113.97,68.35 77.90,44.60 a 3.93,4.49 0 0 0 -1.88,0.60 z" style="fill:#489fe8"/><path d="M 64,78.00 V 118.00 h 8 V 86.15 c 2.69,0.14 4.98,0.36 6.38,0.80 2.06,0.64 2.73,1.20 3.55,2.84 C 83.56,93.07 84,102.00 84,118.00 h 8 c 0,-16 0.44,-25.07 -2.92,-31.79 C 87.40,82.85 84.32,80.42 80.75,79.31 78.21,78.51 75.25,78.26 72,78.13 v 0.13 h -4 z" style="filter:url(#filter916);opacity:.2"/><path d="m 64,76 v 40 h 8 V 84.15 c 2.69,0.14 4.98,0.36 6.38,0.80 2.06,0.64 2.73,1.20 3.55,2.84 C 83.56,91.07 84,100 84,116 h 8 C 92,100 92.44,90.93 89.08,84.21 87.40,80.85 84.32,78.42 80.75,77.30 78.21,76.51 75.25,76.25 72,76.13 V 76 h -4 z" style="fill:#fff"/><path d="m 88,70.00 v 8 h 30.91 c -7.78,8.23 -13.34,16.62 -16.21,25.23 -3.69,11.08 -4.68,22.29 -6.65,34.11 l 0.12,0.02 8.88,-5.85 c 1.39,-9.23 2.62,-17.88 5.24,-25.75 3.03,-9.08 10.97,-20.30 20.59,-29.02 l -16.92,-6.40 0.53,0.35 z" style="filter:url(#filter936);opacity:.2"/><path d="m 88,68 v 8 h 30.91 c -7.78,8.23 -13.34,16.62 -16.21,25.23 -3.69,11.08 -4.68,22.29 -6.65,34.11 l 0.12,0.02 8.88,-5.85 c 1.39,-9.23 2.62,-17.88 5.24,-25.75 3.03,-9.08 7.92,-17.56 17.54,-26.27 L 113.97,68.35 113.44,68 Z" style="fill:#fff"/><path style="opacity:.2;fill:#fff" d="M 76.02 44 A 3.93 4.49 0 0 0 72 48.49 L 72 49.49 A 3.93 4.49 0 0 1 76.02 45 A 3.93 4.49 0 0 1 77.90 45.59 L 113.97 69.35 L 150.03 93.12 A 3.93 4.49 0 0 1 151.97 96.50 A 3.93 4.49 0 0 0 150.03 92.12 L 113.97 68.35 L 77.90 44.59 A 3.93 4.49 0 0 0 76.02 44 z"/><path style="opacity:.2;fill:#fff" d="M 96 16 C 51.68 16 16 51.68 16 96 C 16 96.17 16.00 96.33 16.01 96.50 C 16.27 52.41 51.85 17 96 17 C 140.15 17 175.73 52.41 175.99 96.50 C 176.00 96.33 176 96.17 176 96 C 176 51.68 140.32 16 96 16 z M 30.01 96.50 C 30.01 96.67 30 96.83 30 97 C 30 133.56 59.44 163 96 163 C 132.56 163 162 133.56 162 97 C 162 96.83 161.99 96.67 161.99 96.50 C 161.72 132.83 132.40 162 96 162 C 59.60 162 30.28 132.83 30.01 96.50 z"/></svg>