<?xml version='1.0' encoding='utf-8'?>
<svg xmlns="http://www.w3.org/2000/svg" width="192" height="192" version="1.1" id="svg20">
  <defs>
    <filter style="color-interpolation-filters:sRGB" id="filter857" x="-0.048000001" width="1.096" y="-0.048000001" height="1.096">
      <feGaussianBlur stdDeviation="3.2"/>
    </filter>
    <filter style="color-interpolation-filters:sRGB" id="filter4911" x="-0.048230228" y="-0.047771962" width="1.0964605" height="1.0955439">
      <feGaussianBlur stdDeviation="1.4729688"/>
    </filter>
  </defs>
  <circle r="80" cy="100" cx="96" style="filter:url(#filter857);opacity:0.2"/>
  <circle r="80" cy="96" cx="96" style="fill:#e4e4e4"/>
  <path style="opacity:0.2;fill:#ffffff" d="M 96,16 A 80,80 0 0 0 16,96 80,80 0 0 0 16.019531,96.472656 80,80 0 0 1 96,17 80,80 0 0 1 175.97461,96.513672 80,80 0 0 0 176,96 80,80 0 0 0 96,16 Z"/>
  <path style="filter:url(#filter4911);opacity:0.2;fill:#000000" d="m 59.351562,61 26.66211,74 H 96 105.98633 L 132.64844,61 H 110.42578 L 96,109.95117 81.574219,61 Z"/>
  <path style="fill:#333333" d="M 59.351562 59 L 86.013672 133 L 96 133 L 105.98633 133 L 132.64844 59 L 110.42578 59 L 96 107.95117 L 81.574219 59 L 59.351562 59 z "/>
</svg>
