<svg xmlns="http://www.w3.org/2000/svg" id="svg16" width="192" height="192" version="1"><defs><filter style="color-interpolation-filters:sRGB" id="filter867" width="1.1" height="1.1" x=".05" y=".05"><feGaussianBlur stdDeviation="3.2"/></filter><filter style="color-interpolation-filters:sRGB" id="filter8002" width="1.15" height="1.15" x=".07" y=".07"><feGaussianBlur stdDeviation="3.75"/></filter></defs><rect style="fill:#e4e4e4" width="159.5" height="159.5" x="-175.75" y="-175.75" rx="79.75" ry="79.75" transform="matrix(0,-1,-1,0,0,0)"/><rect width="160" height="160" x="-180" y="-176" rx="80" ry="80" transform="matrix(0,-1,-1,0,0,0)" style="filter:url(#filter867);opacity:.2;fill:#000"/><path style="fill:#ffb400" d="M 96 16 C 93.25 16 90.54 16.14 87.87 16.41 L 16.41 87.87 C 16.14 90.54 16 93.25 16 96 C 16 104.29 17.25 112.28 19.57 119.79 L 119.79 19.57 C 112.28 17.25 104.29 16 96 16 z M 143.15 31.30 L 31.30 143.15 C 36.20 149.87 42.13 155.80 48.85 160.70 L 160.70 48.85 C 155.80 42.13 149.87 36.20 143.15 31.30 z M 172.43 72.21 L 72.21 172.43 C 79.72 174.75 87.71 176 96 176 C 98.75 176 101.46 175.86 104.13 175.59 L 175.59 104.13 C 175.86 101.46 176 98.75 176 96 C 176 87.71 174.75 79.72 172.43 72.21 z"/><path style="fill:#e4e4e4" d="M 87.87 16.41 C 50.07 20.19 20.19 50.07 16.41 87.87 L 87.87 16.41 z M 119.79 19.57 L 19.57 119.79 C 22.19 128.28 26.20 136.14 31.30 143.15 L 143.15 31.30 C 136.14 26.20 128.28 22.19 119.79 19.57 z M 160.70 48.85 L 48.85 160.70 C 55.86 165.80 63.72 169.81 72.21 172.43 L 172.43 72.21 C 169.81 63.72 165.80 55.86 160.70 48.85 z M 175.59 104.13 L 104.13 175.59 C 141.93 171.81 171.81 141.93 175.59 104.13 z"/><path style="filter:url(#filter8002);opacity:.2;fill:#000" d="M 96,38 A 60,60 0 0 0 36,98 60,60 0 0 0 96,158 60,60 0 0 0 156,98 60,60 0 0 0 96,38 Z m 0,5 A 55,55 0 0 1 151,98 55,55 0 0 1 96,153 55,55 0 0 1 41,98 55,55 0 0 1 96,43 Z m 0,2 -4,4 -4,4 h 6 V 63.14 A 35,35 0 0 1 96,63 a 35,35 0 0 1 2,0.06 V 53 h 6 l -4,-4 z M 59,61 v 5.58 5.59 l 4.19,-4.19 6.73,6.73 a 35,35 0 0 1 2.79,-2.79 L 65.98,65.19 70.17,61 h -5.59 z m 62.83,0 4.19,4.19 -6.71,6.71 a 35,35 0 0 1 2.79,2.79 L 128.81,67.98 133,72.17 V 66.58 61 h -5.58 z M 96,70 A 17,17 0 0 0 79,87 17,17 0 0 0 96,104 17,17 0 0 0 113,87 17,17 0 0 0 96,70 Z m -45,20 -4,4 -4,4 4,4 4,4 v -6 H 61.14 A 35,35 0 0 1 61,98 35,35 0 0 1 61.14,96 H 51 Z m 90,0 v 6 h -10.06 a 35,35 0 0 1 0.06,2 35,35 0 0 1 0.14,2 H 141 v 6 l 4,-4 4,-4 -4,-4 z m -55.63,13.92 c -7.05,2.11 -17.72,13.15 -11.48,17.77 C 78.81,124.90 86.88,127 96,127 c 9.12,0 17.19,-2.10 22.12,-5.32 6.24,-4.62 -4.43,-15.66 -11.48,-17.77 C 103.55,105.87 99.90,107 96,107 c -3.90,0 -7.55,-1.13 -10.63,-3.08 z M 69.92,121.29 63.19,128.02 59,123.83 V 129.42 135 h 5.58 5.59 l -4.19,-4.19 6.73,-6.73 a 35,35 0 0 1 -2.79,-2.79 z m 52.16,0 a 35,35 0 0 1 -2.79,2.79 l 6.73,6.73 L 121.83,135 H 127.42 133 v -5.58 -5.59 l -4.19,4.19 z M 94,132.86 V 143 h -6 l 4,4 4,4 4,-4 4,-4 H 98 V 132.86 A 35,35 0 0 1 96,133 35,35 0 0 1 94,132.86 Z"/><path style="fill:#3f3f3f" d="M 96 36 A 60 60 0 0 0 36 96 A 60 60 0 0 0 96 156 A 60 60 0 0 0 156 96 A 60 60 0 0 0 96 36 z M 96 41 A 55 55 0 0 1 151 96 A 55 55 0 0 1 96 151 A 55 55 0 0 1 41 96 A 55 55 0 0 1 96 41 z M 96 43 L 92 47 L 88 51 L 94 51 L 94 61.14 A 35 35 0 0 1 96 61 A 35 35 0 0 1 98 61.06 L 98 51 L 104 51 L 100 47 L 96 43 z M 59 59 L 59 64.58 L 59 70.17 L 63.19 65.98 L 69.92 72.71 A 35 35 0 0 1 72.71 69.92 L 65.98 63.19 L 70.17 59 L 64.58 59 L 59 59 z M 121.83 59 L 126.02 63.19 L 119.31 69.90 A 35 35 0 0 1 122.10 72.69 L 128.81 65.98 L 133 70.17 L 133 64.58 L 133 59 L 127.42 59 L 121.83 59 z M 96 68 A 17 17 0 0 0 79 85 A 17 17 0 0 0 96 102 A 17 17 0 0 0 113 85 A 17 17 0 0 0 96 68 z M 51 88 L 47 92 L 43 96 L 47 100 L 51 104 L 51 98 L 61.14 98 A 35 35 0 0 1 61 96 A 35 35 0 0 1 61.14 94 L 51 94 L 51 88 z M 141 88 L 141 94 L 130.94 94 A 35 35 0 0 1 131 96 A 35 35 0 0 1 130.86 98 L 141 98 L 141 104 L 145 100 L 149 96 L 145 92 L 141 88 z M 85.37 101.92 C 78.32 104.03 67.64 115.06 73.88 119.68 C 78.81 122.90 86.88 125 96 125 C 105.12 125 113.19 122.90 118.12 119.68 C 124.36 115.06 113.68 104.03 106.63 101.92 C 103.55 103.87 99.90 105 96 105 C 92.10 105 88.45 103.87 85.37 101.92 z M 69.92 119.29 L 63.19 126.02 L 59 121.83 L 59 127.42 L 59 133 L 64.58 133 L 70.17 133 L 65.98 128.81 L 72.71 122.08 A 35 35 0 0 1 69.92 119.29 z M 122.08 119.29 A 35 35 0 0 1 119.29 122.08 L 126.02 128.81 L 121.83 133 L 127.42 133 L 133 133 L 133 127.42 L 133 121.83 L 128.81 126.02 L 122.08 119.29 z M 94 130.86 L 94 141 L 88 141 L 92 145 L 96 149 L 100 145 L 104 141 L 98 141 L 98 130.86 A 35 35 0 0 1 96 131 A 35 35 0 0 1 94 130.86 z"/><path style="opacity:.2;fill:#fff" d="M 96 16 C 51.68 16 16 51.68 16 96 C 16 96.34 16.00 96.67 16 97 C 16 52.68 51.68 17 96 17 C 140.32 17 176 52.68 176 97 C 176.00 96.67 176 96.34 176 96 C 176 51.68 140.32 16 96 16 z"/></svg>