<?xml version='1.0' encoding='utf-8'?>
<svg xmlns="http://www.w3.org/2000/svg" width="192" height="192" version="1" id="svg12">
  <defs>
    <filter style="color-interpolation-filters:sRGB" id="filter11264" x="-0.055419443" y="-0.047716982" width="1.1108389" height="1.095434">
      <feGaussianBlur stdDeviation="2.7775905"/>
    </filter>
    <filter style="color-interpolation-filters:sRGB" id="filter12051" x="-0.048000001" y="-0.048000001" width="1.096" height="1.096">
      <feGaussianBlur stdDeviation="3.2"/>
    </filter>
  </defs>
  <circle style="filter:url(#filter12051);opacity:0.2;fill:#000000" cx="96" cy="100" r="80"/>
  <path style="fill:#0ba6f6" d="m 96.1329,18.152722 c 25.97812,0 42.26283,13.09306 56.85864,32.16484 9.51338,12.430768 22.04438,24.768784 22.90105,41.480597 C 175.96391,93.189452 176,94.590356 176,96 c 0,44.32 -35.68,80 -80,80 -18.177719,0 -34.902011,-6.00211 -48.307247,-16.14071 -19.278737,-14.58081 -29.006694,-37.42231 -29.006694,-63.564591 0,-35.296977 21.503432,-62.854065 53.106048,-73.531788 8.078626,-2.729564 15.317771,-4.610189 24.340793,-4.610189 z"/>
  <path style="fill:#0385ff" d="m 161.66602,50.214844 c 0.39321,7.41849 -0.97639,14.414097 -3.51368,19.835937 -4.35815,9.312839 -25.70841,-5.426635 -36.73632,-0.242187 -17.94779,8.437614 4.39729,-24.685326 -11.94141,-9.345703 C 98.319452,70.935931 69.500631,90.152434 69,117.0332 c -0.297103,15.95258 8.737846,33.71959 24.787109,43.04295 6.307171,3.66397 14.466621,5.02074 22.859121,5.0017 8.70826,-0.0198 17.66744,-1.42117 25.06861,-3.36301 C 162.45911,147.28939 176,123.29084 176,96 176,78.940006 170.69717,63.17226 161.66602,50.214844 Z"/>
  <path style="fill:#1362ff" d="m 96,16 c -13.594666,0 -26.36822,3.370908 -37.556641,9.304688 15.708986,1.395706 40.598962,1.95501 41.806641,4.755859 1.73126,4.015166 22.21125,4.390814 24.13477,11.416015 2.59972,9.494873 4.32522,19.979083 2.3457,26.697266 C 121.12514,87.197416 94.375493,83.53122 95,105.93359 c 0,16.06641 14.62081,25.92312 28.34594,27.7643 13.17587,1.69142 27.30238,-3.90666 38.68922,-14.69398 6.38045,-6.04452 10.10168,-13.35445 13.93164,-21.654301 C 175.97421,96.898734 176,96.452708 176,96 176,51.68 140.32,16 96,16 Z"/>
  <path style="filter:url(#filter11264);opacity:0.2;fill:#000000" d="M 89.560547,22.324689 C 84.9195,22.258819 80.248968,22.579163 75.644531,23.322736 74.287746,23.450674 72.91732,23.632275 71.552734,23.789532 39.265718,34.07651 29.76872,57.633933 29.76872,93.417926 c 0,27.480584 -0.04308,54.210434 20.946124,68.601604 -5.062697,-7.80853 -9.624282,-11.88314 -11,-19.19289 -2.874902,-15.2755 2.611301,-29.93354 10.24414,-38.1289 7.007759,-7.524216 19.03194,-14.005853 31.119141,-15.552739 19.671775,-2.51754 29.856945,13.449299 50.117185,3.869141 13.83257,-6.540799 17.07044,-16.846607 18.62305,-26.392578 3.26662,-24.518262 -27.77049,-43.835788 -60.257813,-44.296875 z"/>
  <path style="fill:#7cf5fe" d="M 89.560547 18.324219 C 84.9195 18.258349 80.248968 18.578693 75.644531 19.322266 C 74.287746 19.450204 72.91732 19.631805 71.552734 19.789062 C 39.265718 30.07604 16 60.216007 16 96 C 16 123.48058 29.725635 147.62836 50.714844 162.01953 C 45.652147 154.211 41.090562 146.13592 39.714844 138.82617 C 36.839942 123.55067 42.326145 108.89263 49.958984 100.69727 C 56.966743 93.173054 68.990924 86.691417 81.078125 85.144531 C 100.7499 82.626991 110.93507 98.593829 131.19531 89.013672 C 145.02788 82.472873 148.26575 72.167065 149.81836 62.621094 C 153.08498 38.102832 122.04787 18.785306 89.560547 18.324219 z "/>
  <path style="opacity:0.2;fill:#ffffff" d="M 96 16 C 51.68 16 16 51.68 16 96 C 16 96.115411 16.006233 96.228869 16.007812 96.34375 C 16.358834 52.329079 51.899508 17 96 17 C 140.10049 17 175.64117 52.329079 175.99219 96.34375 C 175.99377 96.228869 176 96.115411 176 96 C 176 51.68 140.32 16 96 16 z "/>
</svg>
