<?xml version='1.0' encoding='utf-8'?>
<svg xmlns="http://www.w3.org/2000/svg" width="192" height="192" version="1" id="svg20">
  <defs>
    <filter style="color-interpolation-filters:sRGB" id="filter1037" x="0.04" y="0.06" width="1.08" height="1.13">
      <feGaussianBlur stdDeviation="0.42"/>
    </filter>
    <filter style="color-interpolation-filters:sRGB" id="filter1079" x="0.05" y="0.05" width="1.10" height="1.10">
      <feGaussianBlur stdDeviation="3.20"/>
    </filter>
  </defs>
  <rect fill="#4ab367" width="160" height="160" x="16" y="20" rx="80" ry="80" style="filter:url(#filter1079);opacity:0.20;fill:#000000"/>
  <rect fill="#4ab367" width="160" height="160" x="16" y="16" rx="80" ry="80"/>
  <g opacity="0.20" transform="matrix(4,0,0,4,0,2)" style="filter:url(#filter1037)">
    <path d="m 12,16 h 4 c 0.55,0 1,0.40 1,0.89 V 31.11 C 17,31.60 16.55,32 16,32 h -4 c 0.55,0 -1,0.40 -1,0.89 V 16.89 C 11,16.40 11.45,16 12,16"/>
    <path d="M 19.94,16 C 19.42,16 19,16.40 19,16.89 v 14.22 c 0,0.49 0.42,0.89 0.94,0.89 2.84,0 5.68,0.00 8.53,0.00 4.71,0.00 8.53,-3.58 8.53,-8.00 0,-4.42 -3.82,-8 -8.53,-8 h -8.53 z"/>
  </g>
  <g fill="#f9f9f9" transform="matrix(4,0,0,4,0,0.00)">
    <path d="m 12,16 h 4 c 0.55,0 1,0.40 1,0.89 V 31.11 C 17,31.60 16.55,32 16,32 h -4 c 0.55,0 -1,0.40 -1,0.89 V 16.89 C 11,16.40 11.45,16 12,16"/>
    <path d="M 19.94,16 C 19.42,16 19,16.40 19,16.89 v 14.22 c 0,0.49 0.42,0.89 0.94,0.89 2.84,0 5.68,0.00 8.53,0.00 4.71,0.00 8.53,-3.58 8.53,-8.00 0,-4.42 -3.82,-8 -8.53,-8 h -8.53 z"/>
  </g>
  <path style="opacity:0.20;fill:#ffffff" d="M 96 16 C 51.68 16 16 51.68 16 96 C 16 96.17 16.01 96.33 16.01 96.50 C 16.28 52.41 51.85 17 96 17 C 140.15 17 175.72 52.41 175.99 96.50 C 175.99 96.33 176 96.17 176 96 C 176 51.68 140.32 16 96 16 z "/>
</svg>
