<?xml version='1.0' encoding='utf-8'?>
<svg xmlns="http://www.w3.org/2000/svg" width="192" height="192" version="1" id="svg30">
  <defs>
    <filter id="filter848" style="color-interpolation-filters:sRGB" width="1.096" height="1.096" x="-0.048000001" y="-0.048000001">
      <feGaussianBlur stdDeviation="3.2"/>
    </filter>
    <filter id="filter1279" style="color-interpolation-filters:sRGB" width="1.1433239" height="1.2907428" x="-0.071661968" y="-0.14537142">
      <feGaussianBlur stdDeviation="2.12"/>
    </filter>
    <filter id="filter1283" style="color-interpolation-filters:sRGB" width="1.2907428" height="1.2907428" x="-0.14537142" y="-0.14537142">
      <feGaussianBlur stdDeviation="2.12"/>
    </filter>
    <filter id="filter1287" style="color-interpolation-filters:sRGB" width="1.2907428" height="1.096" x="-0.14537142" y="-0.047999997">
      <feGaussianBlur stdDeviation="2.12"/>
    </filter>
  </defs>
  <rect style="filter:url(#filter848);opacity:0.2" width="160" height="160" x="-180" y="-176" rx="8" ry="8" transform="matrix(0,-1,-1,0,0,0)"/>
  <rect style="fill:#3a3a4a" width="160" height="160" x="-176" y="-176" rx="8" ry="8" transform="matrix(0,-1,-1,0,0,0)"/>
  <path style="opacity:0.1;fill:#ffffff" d="m 24,16 c -4.432,0 -8,3.568 -8,8 v 1 c 0,-4.432 3.568,-8 8,-8 h 144 c 4.432,0 8,3.568 8,8 v -1 c 0,-4.432 -3.568,-8 -8,-8 z"/>
  <rect style="filter:url(#filter1283);opacity:0.2;shape-rendering:crispEdges" width="35" height="35" x="78" y="81"/>
  <rect style="fill:#babac0;shape-rendering:crispEdges" width="35" height="35" x="78" y="78"/>
  <rect style="filter:url(#filter1279);opacity:0.2;shape-rendering:crispEdges" width="71" height="35" x="78" y="46"/>
  <rect style="fill:#e2e2e4;shape-rendering:crispEdges" width="71" height="35" x="78" y="43"/>
  <rect style="filter:url(#filter1287);opacity:0.2;shape-rendering:crispEdges" width="35" height="106" x="43" y="46"/>
  <rect style="fill:#ffffff;shape-rendering:crispEdges" width="35" height="106" x="43" y="43"/>
</svg>
