<?xml version='1.0' encoding='utf-8'?>
<svg xmlns="http://www.w3.org/2000/svg" width="192" height="192" version="1.1" id="svg18">
  <defs>
    <filter style="color-interpolation-filters:sRGB" id="filter857" x="0.04" y="0.07" width="1.07" height="1.14">
      <feGaussianBlur stdDeviation="2.56"/>
    </filter>
    <filter style="color-interpolation-filters:sRGB" id="filter861" x="0.05" y="0.05" width="1.10" height="1.10">
      <feGaussianBlur stdDeviation="2.56"/>
    </filter>
    <filter style="color-interpolation-filters:sRGB" id="filter865" x="0.05" y="0.04" width="1.11" height="1.09">
      <feGaussianBlur stdDeviation="1.75"/>
    </filter>
  </defs>
  <rect style="filter:url(#filter857);opacity:0.20" width="168" height="88" x="12" y="56" rx="12" ry="12"/>
  <rect style="fill:#0056c0" width="168" height="88" x="12" y="52" rx="12" ry="12"/>
  <path style="opacity:0.10;fill:#ffffff" d="M 24 52 C 17.35 52 12 57.35 12 64 L 12 65 C 12 58.35 17.35 53 24 53 L 168 53 C 174.65 53 180 58.35 180 65 L 180 64 C 180 57.35 174.65 52 168 52 L 24 52 z "/>
  <circle style="filter:url(#filter861);opacity:0.20" cx="96" cy="100" r="64"/>
  <circle style="fill:#0086f4" cx="96" cy="96" r="64"/>
  <path style="filter:url(#filter865);opacity:0.20" d="M 118.15,71.15 C 114.38,61.58 104.94,60.72 93.94,62.85 l -3.92,-13.65 -8.31,2.38 3.81,13.29 c -2.18,0.63 -4.41,1.31 -6.61,1.99 l -3.84,-13.38 -8.31,2.38 3.91,13.65 c -1.79,0.55 -3.55,1.09 -5.27,1.59 l 0.01,0.04 -11.46,3.28 2.55,8.88 c 0,0 6.10,-1.88 6.03,-1.73 3.37,0.96 5.02,0.68 5.83,2.27 l 4.46,15.56 c 2.08,7.27 4.18,14.57 6.26,21.85 0.16,1.10 0.02,2.97 -2.33,3.65 0.13,0.06 -6.04,1.73 -6.04,1.73 l 1.19,10.40 10.82,-3.10 c 2.01,0.57 4.00,-1.11 5.95,-1.65 L 92.61,146 l 8.30,-2.38 -3.92,-13.66 c 2.29,0.61 4.50,-1.22 6.66,-1.84 l 3.90,13.60 8.31,-2.38 -3.95,-13.79 c 13.74,-4.81 22.51,-11.13 19.97,-24.60 -2.05,-10.85 -8.37,-14.14 -16.85,-13.77 4.12,-3.84 5.89,-9.02 3.12,-16.02 z m -3.16,32.86 c 2.96,10.32 -15.04,14.21 -20.68,15.83 l -5.24,-18.30 c 5.63,-1.61 22.83,-8.30 25.92,2.47 z M 103.72,79.31 c 2.69,9.39 -12.36,12.52 -17.05,13.87 l -4.76,-16.60 c 4.69,-1.35 19.00,-7.06 21.81,2.73 z"/>
  <path style="fill:#ffffff" d="M 118.15,69.15 C 114.38,59.58 104.94,58.72 93.94,60.85 L 90.02,47.20 81.71,49.58 85.52,62.88 c -2.18,0.63 -4.41,1.31 -6.61,1.99 l -3.84,-13.38 -8.31,2.38 3.91,13.65 c -1.79,0.55 -3.55,1.09 -5.27,1.59 l 0.01,0.04 -11.46,3.28 2.55,8.88 c 0,0 6.10,-1.88 6.03,-1.73 3.37,0.96 5.02,0.68 5.83,2.27 l 4.46,15.56 c 2.08,7.27 4.18,14.57 6.26,21.85 0.16,1.10 0.02,2.97 -2.33,3.65 0.13,0.06 -6.04,1.73 -6.04,1.73 l 1.19,10.40 10.82,-3.10 c 2.01,0.57 4.00,-1.11 5.95,-1.65 l 3.96,13.81 8.30,-2.38 -3.92,-13.66 c 2.29,0.61 4.50,-1.22 6.66,-1.84 l 3.90,13.60 8.31,-2.38 -3.95,-13.79 c 13.74,-4.81 22.51,-11.13 19.97,-24.60 -2.05,-10.85 -8.37,-14.14 -16.85,-13.77 4.12,-3.84 5.89,-9.02 3.12,-16.02 z m -3.16,32.86 c 2.96,10.32 -15.04,14.21 -20.68,15.83 l -5.24,-18.30 c 5.63,-1.61 22.83,-8.30 25.92,2.47 z M 103.72,77.31 c 2.69,9.39 -12.36,12.52 -17.05,13.87 L 81.91,74.58 c 4.69,-1.35 19.00,-7.06 21.81,2.73 z"/>
  <path style="opacity:0.20;fill:#ffffff" d="M 96 32 A 64.00 64.00 0 0 0 32 96 A 64.00 64.00 0 0 0 32.01 96.81 A 64.00 64.00 0 0 1 96 33 A 64.00 64.00 0 0 1 159.99 96.57 A 64.00 64.00 0 0 0 160 96 A 64.00 64.00 0 0 0 96 32 z "/>
</svg>
