<svg xmlns="http://www.w3.org/2000/svg" id="svg12" width="192" height="192" version="1"><defs><filter style="color-interpolation-filters:sRGB" id="filter963" width="1.1" height="1.1" x=".05" y=".05"><feGaussianBlur stdDeviation="3.2"/></filter><filter style="color-interpolation-filters:sRGB" id="filter967" width="1.11" height="1.08" x=".06" y=".04"><feGaussianBlur stdDeviation="1.68"/></filter></defs><path fill="#4f4f4f" d="M 176,100 A 80,80 0 0 1 96,180 80,80 0 0 1 16,100 80,80 0 0 1 96,20 80,80 0 0 1 176,100 Z" style="filter:url(#filter963);opacity:.2;fill:#000"/><path fill="#4f4f4f" d="M 176,96 A 80,80 0 0 1 96,176 80,80 0 0 1 16,96 80,80 0 0 1 96,16 80,80 0 0 1 176,96 Z"/><path style="opacity:.1;fill:#fff" d="M 96.00 16 A 80 80 0 0 0 16 96 A 80 80 0 0 0 16.02 96.64 A 80 80 0 0 1 96.00 17 L 96 17 A 80 80 0 0 1 175.98 96.29 A 80 80 0 0 0 176.00 96 A 80 80 0 0 0 96 16 L 96.00 16 z"/><path style="filter:url(#filter967);opacity:.2" d="m 96.00,51.00 c -2.26,0 -4.52,0.10 -5.96,0.31 -17.36,2.52 -27.62,11.07 -29.67,24.70 0.23,1.51 0.29,4.18 0.33,14.43 l 0.04,12.18 0.50,0.80 c 1.24,2.01 2.97,3.42 11.14,9.14 13.66,9.57 19.28,13.05 22.73,14.12 0.55,0.17 1.30,0.31 1.67,0.31 2.30,0.03 9.01,-3.77 19.17,-10.85 12.67,-8.84 15.02,-10.67 16.26,-12.67 l 0.52,0.85 V 92.58 c 0,-13.10 0.09,-15.42 0.70,-18.23 -1.08,-5.01 -3.05,-8.96 -6.20,-12.41 -5.04,-5.53 -12.93,-9.15 -23.16,-10.63 -1.44,0.21 -3.69,0.31 -5.95,0.31 z m 0,16 c 9.07,0 16.96,6.60 19.54,14.69 0.45,1.42 0.46,1.48 0.46,7.27 0,3.21 0.05,5.90 0.12,5.96 0.07,0.06 -8.97,0.09 -19.88,0.07 -10.91,0.02 -19.82,0.01 -19.88,0.07 0.07,0.06 0.12,-2.75 0.12,-5.96 0,-5.79 0.01,-5.85 0.46,-7.27 2.58,-8.09 10.46,-14.69 19.54,-14.69 z M 60.01,111.00 c 0,0 0.03,3.52 0.02,16.65 l 0.06,16.12 0.54,1.02 c 0.42,0.77 0.75,1.13 1.43,1.52 l 0.88,0.52 14.34,0.09 c 7.89,0.05 22.66,0.08 32.82,0.08 l 18.48,0.01 0.89,0.38 c 1.15,0.49 1.48,0.79 2.02,-1.79 l 0.43,0.81 0.02,-14.70 0.06,-18.30 h 0.23 l 0.29,0.48 c -1.24,2.00 -3.58,3.84 -16.26,12.67 -10.16,7.09 -16.88,10.88 -19.17,10.85 0.38,0.01 -1.13,0.14 -1.67,0.31 -3.46,-1.06 -9.07,-4.55 -22.73,-14.12 -8.17,-5.72 -9.90,-7.13 -11.14,-9.14 l 0.27,0.43 H 60.01 Z"/><path style="fill:#fff" d="m 96.00,48.00 c -2.26,0 -4.52,0.10 -5.96,0.31 -17.36,2.52 -27.62,11.07 -29.67,24.70 0.23,1.51 0.29,4.18 0.33,14.43 l 0.04,12.18 0.50,0.80 c 1.24,2.01 2.97,3.42 11.14,9.14 13.66,9.57 19.28,13.05 22.73,14.12 0.55,0.17 1.30,0.31 1.67,0.31 2.30,0.03 9.01,-3.77 19.17,-10.85 12.67,-8.84 15.02,-10.67 16.26,-12.67 l 0.52,0.85 V 89.58 c 0,-13.10 0.09,-15.42 0.70,-18.23 -1.08,-5.01 -3.05,-8.96 -6.20,-12.41 -5.04,-5.53 -12.93,-9.15 -23.16,-10.63 -1.44,0.21 -3.69,0.31 -5.95,0.31 z m 0,16 c 9.07,0 16.96,6.60 19.54,14.69 0.45,1.42 0.46,1.48 0.46,7.27 0,3.21 0.05,5.90 0.12,5.96 0.07,0.06 -8.97,0.09 -19.88,0.07 -10.91,0.02 -19.82,0.01 -19.88,0.07 0.07,0.06 0.12,-2.75 0.12,-5.96 0,-5.79 0.01,-5.85 0.46,-7.27 2.58,-8.09 10.46,-14.69 19.54,-14.69 z M 60.01,108.00 c 0,0 0.03,3.52 0.02,16.65 l 0.06,16.12 0.54,1.02 c 0.42,0.77 0.75,1.13 1.43,1.52 l 0.88,0.52 14.34,0.09 c 7.89,0.05 22.66,0.08 32.82,0.08 l 18.48,0.01 0.89,0.38 c 1.15,0.49 1.48,0.79 2.02,-1.79 l 0.43,0.81 0.02,-14.70 0.06,-18.30 h 0.23 l 0.29,0.48 c -1.24,2.00 -3.58,3.84 -16.26,12.67 -10.16,7.09 -16.88,10.88 -19.17,10.85 0.38,0.01 -1.13,0.14 -1.67,0.31 -3.46,-1.06 -9.07,-4.55 -22.73,-14.12 -8.17,-5.72 -9.90,-7.13 -11.14,-9.14 l 0.27,0.43 H 60.01 Z"/></svg>