<?xml version='1.0' encoding='utf-8'?>
<svg xmlns="http://www.w3.org/2000/svg" width="192" height="192" version="1" id="svg14">
  <defs>
    <filter style="color-interpolation-filters:sRGB" id="filter3474" x="0.05" y="0.05" width="1.10" height="1.10">
      <feGaussianBlur stdDeviation="3.19"/>
    </filter>
    <filter style="color-interpolation-filters:sRGB" id="filter3478" x="0.05" y="0.05" width="1.10" height="1.10">
      <feGaussianBlur stdDeviation="2.48"/>
    </filter>
    <filter style="color-interpolation-filters:sRGB" id="filter3482" x="0.04" y="0.05" width="1.09" height="1.10">
      <feGaussianBlur stdDeviation="1.90"/>
    </filter>
  </defs>
  <path style="filter:url(#filter3474);opacity:0.20;fill:#000000;color:#000000" d="M 85.97,20.63 C 44.76,25.84 14.29,61.94 16.07,103.44 c 1.79,41.50 35.25,74.85 76.76,76.49 41.51,1.64 77.51,-28.96 82.57,-70.19 a 9,9 0 0 0 -7.84,-10.03 9,9 0 0 0 -10.03,7.84 c -3.94,32.10 -31.67,55.67 -63.99,54.39 C 61.23,160.67 35.45,134.98 34.06,102.67 32.66,70.36 56.14,42.54 88.23,38.49 A 9,9 0 0 0 96.03,28.43 9,9 0 0 0 85.97,20.63 Z"/>
  <path style="fill:#5377ec;color:#000000" d="m 85.97,16.63 c -41.21,5.21 -71.69,41.31 -69.90,82.81 1.79,41.50 35.25,74.85 76.76,76.49 41.51,1.64 77.51,-28.96 82.57,-70.19 0.61,-4.93 -2.90,-9.42 -7.84,-10.03 -4.93,0.61 -9.43,2.90 -10.03,7.84 0.13,1.03 -2.91,2.21 -3.08,3.22 -5.27,30.53 -28.69,47.72 -59.97,46.48 C 62.17,151.98 38.46,131.23 37.07,98.92 35.73,67.94 55.04,42.83 85.10,37.11 c 1.29,0.25 1.81,-2.45 3.13,-2.62 4.93,0.62 8.43,-5.12 7.80,-10.06 0.62,-4.93 -5.13,-8.42 -10.06,-7.80 z"/>
  <circle style="filter:url(#filter3478);opacity:0.20;fill:#000000" cx="96" cy="100.00" r="62"/>
  <circle style="fill:#ffffff" cx="96" cy="96" r="62"/>
  <path style="filter:url(#filter3482);opacity:0.20;fill:#000000;color:#000000" d="m 148.75,33.07 a 11,11 0 0 0 -7.36,4.09 L 94.28,96.48 76.91,82.44 a 11,11 0 0 0 -15.47,1.64 11,11 0 0 0 1.64,15.47 l 26,21.00 a 11.00,11.00 0 0 0 15.53,-1.72 l 54,-68.00 a 11,11 0 0 0 -1.77,-15.45 11,11 0 0 0 -8.09,-2.31 z"/>
  <path style="fill:#ffb000;color:#000000" d="m 148.75,31.07 a 11,11 0 0 0 -7.36,4.09 L 94.28,94.47 76.91,80.44 a 11,11 0 0 0 -15.47,1.64 11,11 0 0 0 1.64,15.47 l 26,21.00 a 11.00,11.00 0 0 0 15.53,-1.72 l 54,-68.00 a 11,11 0 0 0 -1.77,-15.45 11,11 0 0 0 -8.09,-2.31 z"/>
  <path style="opacity:0.20;fill:#ffffff;color:#000000" d="M 85.97,16.63 C 45.85,21.70 15.91,56.06 16.01,96.17 16.41,56.49 46.18,22.66 85.97,17.63 c 4.93,0.62 9.44,2.87 10.06,7.80 0.02,0.22 0.03,0.44 0.04,0.66 0.04,0.55 0.03,-1.11 0.04,-1.66 0.62,-4.93 -5.13,-8.42 -10.06,-7.80 z m 81.60,79.09 c -4.93,0.61 -9.43,2.90 -10.03,7.84 v 1 c 0.61,-4.93 5.10,-8.44 10.03,-7.84 4.30,0.54 7.61,4.07 7.87,8.39 0.24,-4.71 -3.19,-8.81 -7.87,-9.39 z"/>
</svg>
