<?xml version='1.0' encoding='utf-8'?>
<svg xmlns="http://www.w3.org/2000/svg" width="192" height="192" version="1" id="svg12">
  <defs>
    <filter style="color-interpolation-filters:sRGB" id="filter955" x="0.05" width="1.10" y="0.05" height="1.10">
      <feGaussianBlur stdDeviation="3.20"/>
    </filter>
    <filter style="color-interpolation-filters:sRGB" id="filter18806" x="0.06" y="0.10" width="1.12" height="1.20">
      <feGaussianBlur stdDeviation="2.97"/>
    </filter>
  </defs>
  <rect style="filter:url(#filter955);opacity:0.20;fill:#000000" width="160" height="160" x="16" y="20" rx="30" ry="30"/>
  <rect style="fill:#dc3936" width="160" height="160" x="16" y="16" rx="30" ry="30"/>
  <path style="fill:#f3bebc" d="m 100.74,94.85 h 53.09 l -18.43,28.74 -34.66,0 z"/>
  <path style="fill:#e94e29" d="m 100.74,94.85 h 53.09 L 135.40,66.12 h -34.66 z"/>
  <path style="opacity:0.20;fill:#ffffff" d="M 46 16 C 29.38 16 16 29.38 16 46 L 16 47 C 16 30.38 29.38 17 46 17 L 146 17 C 162.62 17 176 30.38 176 47 L 176 46 C 176 29.38 162.62 16 146 16 L 46 16 z "/>
  <rect style="fill:#455a64" width="49.74" height="3" x="100.13" y="93"/>
  <circle style="fill:#455a64" cx="123.50" cy="94.49" r="8.50"/>
  <circle style="fill:#ffffff" cx="123.50" cy="94.49" r="5.50"/>
  <path style="filter:url(#filter18806);opacity:0.20;fill:#000000" d="m 123.10,60.98 c 0.90,0.01 -1.41,0.03 -1.41,0.03 L 122,61 h -22 a 5.00,5.00 0 0 0 -5,5 v 61 a 5.00,5.00 0 0 0 5,5 h 22 a 5.00,5.00 0 0 0 0.23,0.01 c 0,0 8.16,0.33 16.32,-5.18 C 146.72,121.97 155,111.88 155,95 155,78.12 146.52,68.55 138.19,64.49 131.94,61.44 125.79,61.01 123.10,60.98 Z M 79,61 a 5,5 0 0 0 -5,5 V 89.85 A 22,25 0 0 0 58,82 22,25 0 0 0 36,107 22,25 0 0 0 58,132 22,25 0 0 0 74,124.08 V 127 a 5,5 0 0 0 5,5 5,5 0 0 0 5,-5 V 66 a 5,5 0 0 0 -5,-5 z m 43.30,9.99 c 0,0 5.83,0.28 11.51,2.49 C 139.48,76.24 145,81.16 145,95 c 0,13.84 -5.72,19.75 -11.55,23.22 -5.81,3.45 -11.58,3.78 -11.64,3.78 H 105 V 71 h 17 a 5.00,5.00 0 0 0 0.30,0.01 z M 61,90 a 14,17 0 0 1 13,10.71 V 113.22 A 14,17 0 0 1 61,124 14,17 0 0 1 47,107 14,17 0 0 1 61,90 Z"/>
  <path style="fill:#ffffff" d="M 123.10 58.98 C 122.21 58.97 121.70 59.01 121.70 59.01 L 122 59 L 100 59 A 5.00 5.00 0 0 0 95 64 L 95 125 A 5.00 5.00 0 0 0 100 130 L 122 130 A 5.00 5.00 0 0 0 122.23 129.99 C 122.23 129.99 130.39 129.67 138.55 124.82 C 146.72 119.97 155 109.88 155 93 C 155 76.12 146.52 66.55 138.19 62.49 C 131.94 59.44 125.79 59.01 123.10 58.98 z M 79 59 A 5 5 0 0 0 74 64 L 74 87.85 A 22 25 0 0 0 58 80 A 22 25 0 0 0 36 105 A 22 25 0 0 0 58 130 A 22 25 0 0 0 74 122.08 L 74 125 A 5 5 0 0 0 79 130 A 5 5 0 0 0 84 125 L 84 64 A 5 5 0 0 0 79 59 z M 122.30 68.99 C 122.30 68.99 128.14 68.71 133.81 71.48 C 139.48 74.24 145 79.16 145 93 C 145 106.84 139.28 112.75 133.45 116.22 C 127.63 119.67 121.86 120.00 121.80 120 L 105 120 L 105 69 L 122 69 A 5.00 5.00 0 0 0 122.30 68.99 z M 61 88 A 14 17 0 0 1 74 98.71 L 74 111.22 A 14 17 0 0 1 61 122 A 14 17 0 0 1 47 105 A 14 17 0 0 1 61 88 z "/>
</svg>
