<?xml version='1.0' encoding='utf-8'?>
<svg xmlns="http://www.w3.org/2000/svg" width="192" height="192" version="1" id="svg24">
  <defs>
    <filter style="color-interpolation-filters:sRGB" id="filter987" x="0.05" y="0.05" width="1.10" height="1.10">
      <feGaussianBlur stdDeviation="3.20"/>
    </filter>
    <filter style="color-interpolation-filters:sRGB" id="filter991" x="0.04" y="0.06" width="1.08" height="1.12">
      <feGaussianBlur stdDeviation="0.54"/>
    </filter>
  </defs>
  <rect fill="#c2352a" width="160" height="160" x="16" y="20" rx="8" ry="8" style="filter:url(#filter987);opacity:0.20;fill:#000000"/>
  <rect fill="#c2352a" width="160" height="160" x="16" y="16" rx="8" ry="8"/>
  <path style="opacity:0.20;fill:#ffffff" d="M 24 16 C 19.57 16 16 19.57 16 24 L 16 25 C 16 20.57 19.57 17 24 17 L 168 17 C 172.43 17 176 20.57 176 25 L 176 24 C 176 19.57 172.43 16 168 16 L 24 16 z "/>
  <g opacity="0.20" transform="matrix(4,0,0,4,8,2.00)" style="filter:url(#filter991)">
    <path d="m 14,13 v 22 h 6 V 20 h 3 v 15 h 6 V 20 h 3 v 15 h 6 V 13"/>
    <rect width="6" height="14" x="6" y="13"/>
    <rect width="6" height="6" x="6" y="29"/>
  </g>
  <g fill="#ffffff" transform="matrix(4,0,0,4,8,0)">
    <path d="m 14,13 v 22 h 6 V 20 h 3 v 15 h 6 V 20 h 3 v 15 h 6 V 13"/>
    <rect width="6" height="14" x="6" y="13"/>
    <rect width="6" height="6" x="6" y="29"/>
  </g>
</svg>
