<?xml version='1.0' encoding='utf-8'?>
<svg xmlns="http://www.w3.org/2000/svg" width="192" height="192" version="1.1" id="svg14">
  <defs>
    <filter style="color-interpolation-filters:sRGB" id="filter849" x="0.05" y="0.05" width="1.10" height="1.10">
      <feGaussianBlur stdDeviation="3.20"/>
    </filter>
    <filter style="color-interpolation-filters:sRGB" id="filter1229" x="0.05" y="0.05" width="1.10" height="1.09">
      <feGaussianBlur stdDeviation="2.06"/>
    </filter>
  </defs>
  <rect style="filter:url(#filter849);opacity:0.20" width="160" height="160" x="16" y="20" rx="32" ry="32"/>
  <rect style="fill:#2dabfc" width="160" height="160" x="16" y="16" rx="32" ry="32"/>
  <path style="opacity:0.20;fill:#ffffff" d="M 48,16 C 30.27,16 16,30.27 16,48 v 1 C 16,31.27 30.27,17 48,17 h 96 c 17.73,0 32,14.27 32,32 V 48 C 176,30.27 161.73,16 144,16 Z"/>
  <g transform="matrix(0.99,0,0,0.99,-1.48,0.03)" style="filter:url(#filter1229);opacity:0.20;fill:#000000">
    <path style="fill:#000000" d="m 129.33,122.78 1.92,-2.56 3.64,-13.75 c 2.00,-7.56 4.26,-16.07 5.02,-18.91 2.89,-10.85 6.70,-25.23 7.14,-26.95 l 0.46,-1.79 -1.14,0.29 c -3.26,0.82 -4.49,-1.02 -4.71,0.77 0.13,0.15 0.49,1.33 0.79,2.62 0.30,1.29 -2.16,8.88 -4.13,16.88 -1.97,7.99 -4.27,17.34 -5.10,20.78 0.84,3.44 -2.31,9.44 -3.26,13.34 -1.58,6.44 -1.74,7.41 -1.74,10.55 0,2.56 0.10,3.45 0.39,3.44 0.21,0.01 1.25,-1.17 2.31,-2.58 z"/>
    <path style="fill:#000000" d="m 99.59,138.40 c 11.35,-7.55 20.68,-13.77 20.74,-13.82 0.12,0.11 0.75,-2.62 5.17,-20.77 1.82,-7.48 4.57,-18.73 6.10,-25 1.53,-6.27 3.31,-13.56 3.95,-16.18 0.64,-2.63 1.08,-4.86 0.97,-4.97 0.11,0.11 0.79,0.05 -1.53,0.34 0.73,0.30 -3.51,1.36 -6.18,2.37 -2.66,1.01 -7.45,2.84 -10.62,4.06 -3.18,1.22 -7.40,2.84 -9.38,3.59 -1.98,0.75 -5.63,2.16 -8.12,3.13 -2.49,0.97 -7.62,2.93 -11.41,4.36 -8.89,3.38 -14.84,5.65 -20.47,7.82 l -4.53,1.75 -3.82,-1.81 c -2.10,-1.00 -3.82,-1.92 -3.83,-2.05 0.01,0.13 0.73,0.57 1.63,0.98 0.90,0.41 4.14,-1.95 7.20,-3.43 3.06,-1.48 5.61,-2.69 5.66,-2.69 0.06,0 1.99,0.89 4.29,-1.99 4.49,-2.14 7.33,-3.48 26.81,-12.68 6.95,-3.28 12.68,-6.02 12.75,-6.08 0.24,0.24 0.99,-8.01 -1.26,-8.01 0.16,0 -2.49,1.14 -5.17,2.54 -2.69,1.40 -6.64,3.46 -8.79,4.57 -2.15,1.12 -5.17,2.69 -6.72,3.51 -1.55,0.81 -5.91,3.07 -9.69,5.00 -3.78,1.94 -7.58,3.91 -8.44,4.38 0.86,0.47 -4.52,2.37 -8.12,4.22 -3.61,1.85 -6.70,3.47 -6.88,3.59 0.17,0.12 -2.74,1.45 -5.70,2.96 -2.96,1.50 -5.39,2.89 -5.39,3.09 0.00,0.20 0.44,1.77 0.97,3.48 0.53,1.72 1.15,3.76 1.37,4.53 0.23,0.77 1.75,5.77 3.38,11.09 1.64,5.33 4.05,13.20 5.36,17.50 1.31,4.30 3.00,9.78 3.74,12.19 0.75,2.41 1.87,6.03 2.48,8.05 0.62,2.02 1.61,5.25 2.20,7.19 0.59,1.93 1.17,3.90 1.28,4.38 0.11,0.47 0.37,0.97 0.56,1.09 1.25,0.81 8.18,3.76 8.45,3.59 0.18,0.11 9.61,-6.38 20.96,-13.93 z"/>
  </g>
  <g transform="matrix(0.99,0,0,0.99,-1.48,-1.97)">
    <path style="fill:#ffffff" d="m 129.33,122.78 1.92,-2.56 3.64,-13.75 c 2.00,-7.56 4.26,-16.07 5.02,-18.91 2.89,-10.85 6.70,-25.23 7.14,-26.95 l 0.46,-1.79 -1.14,0.29 c -3.26,0.82 -4.49,-1.02 -4.71,0.77 0.13,0.15 0.49,1.33 0.79,2.62 0.30,1.29 -2.16,8.88 -4.13,16.88 -1.97,7.99 -4.27,17.34 -5.10,20.78 0.84,3.44 -2.31,9.44 -3.26,13.34 -1.58,6.44 -1.74,7.41 -1.74,10.55 0,2.56 0.10,3.45 0.39,3.44 0.21,0.01 1.25,-1.17 2.31,-2.58 z"/>
    <path style="fill:#ffffff" d="m 99.59,138.40 c 11.35,-7.55 20.68,-13.77 20.74,-13.82 0.12,0.11 0.75,-2.62 5.17,-20.77 1.82,-7.48 4.57,-18.73 6.10,-25 1.53,-6.27 3.31,-13.56 3.95,-16.18 0.64,-2.63 1.08,-4.86 0.97,-4.97 0.11,0.11 0.79,0.05 -1.53,0.34 0.73,0.30 -3.51,1.36 -6.18,2.37 -2.66,1.01 -7.45,2.84 -10.62,4.06 -3.18,1.22 -7.40,2.84 -9.38,3.59 -1.98,0.75 -5.63,2.16 -8.12,3.13 -2.49,0.97 -7.62,2.93 -11.41,4.36 -8.89,3.38 -14.84,5.65 -20.47,7.82 l -4.53,1.75 -3.82,-1.81 c -2.10,-1.00 -3.82,-1.92 -3.83,-2.05 0.01,0.13 0.73,0.57 1.63,0.98 0.90,0.41 4.14,-1.95 7.20,-3.43 3.06,-1.48 5.61,-2.69 5.66,-2.69 0.06,0 1.99,0.89 4.29,-1.99 4.49,-2.14 7.33,-3.48 26.81,-12.68 6.95,-3.28 12.68,-6.02 12.75,-6.08 0.24,0.24 0.99,-8.01 -1.26,-8.01 0.16,0 -2.49,1.14 -5.17,2.54 -2.69,1.40 -6.64,3.46 -8.79,4.57 -2.15,1.12 -5.17,2.69 -6.72,3.51 -1.55,0.81 -5.91,3.07 -9.69,5.00 -3.78,1.94 -7.58,3.91 -8.44,4.38 0.86,0.47 -4.52,2.37 -8.12,4.22 -3.61,1.85 -6.70,3.47 -6.88,3.59 0.17,0.12 -2.74,1.45 -5.70,2.96 -2.96,1.50 -5.39,2.89 -5.39,3.09 0.00,0.20 0.44,1.77 0.97,3.48 0.53,1.72 1.15,3.76 1.37,4.53 0.23,0.77 1.75,5.77 3.38,11.09 1.64,5.33 4.05,13.20 5.36,17.50 1.31,4.30 3.00,9.78 3.74,12.19 0.75,2.41 1.87,6.03 2.48,8.05 0.62,2.02 1.61,5.25 2.20,7.19 0.59,1.93 1.17,3.90 1.28,4.38 0.11,0.47 0.37,0.97 0.56,1.09 1.25,0.81 8.18,3.76 8.45,3.59 0.18,0.11 9.61,-6.38 20.96,-13.93 z"/>
  </g>
</svg>
