<?xml version='1.0' encoding='utf-8'?>
<svg xmlns="http://www.w3.org/2000/svg" width="192" height="192" version="1" id="svg22">
  <defs>
    <filter style="color-interpolation-filters:sRGB" id="filter868" x="-0.048270033" width="1.0965401" y="-0.047732967" height="1.0954659">
      <feGaussianBlur stdDeviation="2.0528906"/>
    </filter>
    <filter style="color-interpolation-filters:sRGB" id="filter884" x="-0.047999998" width="1.096" y="-0.047999998" height="1.096">
      <feGaussianBlur stdDeviation="2.08"/>
    </filter>
    <filter style="color-interpolation-filters:sRGB" id="filter900" x="-0.047999999" width="1.096" y="-0.047999999" height="1.096">
      <feGaussianBlur stdDeviation="0.64"/>
    </filter>
  </defs>
  <path d="M 95.406248,76.781248 73.929688,100.55469 117.375,144 H 132 v 12 h 16 v 18.625 L 153.375,180 H 176 v -22.625 z" style="filter:url(#filter868);opacity:0.2"/>
  <path d="M 95.406248,72.781248 73.929688,96.554688 117.375,140 H 132 v 12 h 16 v 18.625 L 153.375,176 H 176 v -22.625 z" style="fill:#b7b7b7"/>
  <path style="opacity:0.2;fill:#ffffff" d="M 95.40625 72.78125 L 73.929688 96.554688 L 74.404297 97.029297 L 95.40625 73.78125 L 176 154.375 L 176 153.375 L 95.40625 72.78125 z "/>
  <path d="M 84.671876,84.671876 73.929688,96.554688 117.375,140 H 132 v 12 h 16 v 18.625 L 153.375,176 H 176 Z" style="opacity:0.2"/>
  <circle r="52" cy="72" cx="68" style="filter:url(#filter884);opacity:0.2"/>
  <circle r="52" cy="68" cx="68" style="fill:#1b657f"/>
  <circle r="16" cy="54" cx="52" style="filter:url(#filter900);opacity:0.1"/>
  <circle r="16" cy="52" cx="52" style="fill:#ffffff"/>
  <path style="opacity:0.1;fill:#ffffff" d="M 68 16 A 52 52 0 0 0 16 68 A 52 52 0 0 0 16.017578 68.513672 A 52 52 0 0 1 68 17 A 52 52 0 0 1 119.97656 68.519531 A 52 52 0 0 0 120 68 A 52 52 0 0 0 68 16 z "/>
</svg>
