<?xml version='1.0' encoding='utf-8'?>
<svg xmlns="http://www.w3.org/2000/svg" width="192" height="192" version="1" id="svg14">
  <defs>
    <filter style="color-interpolation-filters:sRGB" id="filter850" x="0.05" width="1.10" y="0.05" height="1.10">
      <feGaussianBlur stdDeviation="3.20"/>
    </filter>
    <filter style="color-interpolation-filters:sRGB" id="filter5728" x="0.08" y="0.07" width="1.15" height="1.15">
      <feGaussianBlur stdDeviation="3.31"/>
    </filter>
  </defs>
  <circle style="filter:url(#filter850);opacity:0.20;fill:#000000" cx="96" cy="100" r="80"/>
  <circle r="80" cy="96" cx="96" style="fill:#fee000"/>
  <path style="opacity:0.20;fill:#ffffff" d="M 96 16 A 80 80 0 0 0 16 96 A 80 80 0 0 0 16.02 96.47 A 80 80 0 0 1 96 17 A 80 80 0 0 1 175.97 96.51 A 80 80 0 0 0 176 96 A 80 80 0 0 0 96 16 z "/>
  <path style="fill:#38adfa" d="m 688.81,257.00 c 0.33,0.33 -1.19,0.37 -1.92,0.08 0.80,0.32 0.56,0.56 0.60,0.60 1.05,0.04 1.64,0.19 1.31,0.53 z"/>
  <path style="filter:url(#filter5728);opacity:0.20;fill:#000000;color:#000000" d="m 96,45 c -2.27,0 -4.51,0.16 -6.71,0.44 L 77.62,65.85 C 83.03,62.77 89.29,61 96,61 c 2.38,0 4.71,0.23 6.96,0.65 l 8.24,-14.41 C 106.38,45.79 101.28,45 96,45 Z m 31.73,10.61 -7.99,13.96 C 127.86,76.34 133,86.54 133,98 c 0,20.53 -16.47,37 -37,37 -20.53,0 -37,-16.47 -37,-37 0,-2.37 0.23,-4.67 0.65,-6.91 L 43.06,100.46 C 44.36,128.50 67.65,151 96,151 c 29.18,0 53,-23.82 53,-53 0,-17.29 -8.37,-32.71 -21.27,-42.39 z"/>
  <path style="fill:#4a4a4a;color:#000000" d="m 96,43 c -2.27,0 -4.51,0.16 -6.71,0.44 L 77.62,63.85 C 83.03,60.77 89.29,59 96,59 c 2.38,0 4.71,0.23 6.96,0.65 l 8.24,-14.41 C 106.38,43.79 101.28,43 96,43 Z m 31.73,10.61 -7.99,13.96 C 127.86,74.34 133,84.54 133,96 c 0,20.53 -16.47,37 -37,37 -20.53,0 -37,-16.47 -37,-37 0,-2.37 0.23,-4.67 0.65,-6.91 L 43.06,98.46 C 44.36,126.50 67.65,149 96,149 c 29.18,0 53,-23.82 53,-53 0,-17.29 -8.37,-32.71 -21.27,-42.39 z"/>
</svg>
