<?xml version='1.0' encoding='utf-8'?>
<svg xmlns="http://www.w3.org/2000/svg" width="192" height="192" version="1" id="svg28">
  <defs>
    <filter style="color-interpolation-filters:sRGB" id="filter1834" x="-0.050482758" y="-0.045749999" width="1.1009655" height="1.0915">
      <feGaussianBlur stdDeviation="3.05"/>
    </filter>
    <filter style="color-interpolation-filters:sRGB" id="filter1838" x="-0.053382321" y="-0.043603628" width="1.1067646" height="1.0872073">
      <feGaussianBlur stdDeviation="1.7804814"/>
    </filter>
  </defs>
  <path style="filter:url(#filter1834);opacity:0.2;fill:#000000" d="m 147.57143,163.59659 -82.142858,15.7205 C 44.000001,183.6045 24,167.16943 24,145.01781 V 54.982192 C 24,32.830572 44.000001,16.395499 65.428572,20.682909 L 147.57143,36.403414 C 160.42857,38.547119 169,49.265645 169,61.413307 v 76.458813 c 0,12.86223 -9.28572,23.58076 -21.42857,25.72447"/>
  <path style="fill:#f56d2b" d="m 147.57143,159.59659 -82.142858,15.7205 C 44.000001,179.6045 24,163.16943 24,141.01781 V 50.982192 C 24,28.830572 44.000001,12.395499 65.428572,16.682909 L 147.57143,32.403414 C 160.42857,34.547119 169,45.265645 169,57.413307 v 76.458813 c 0,12.86223 -9.28572,23.58076 -21.42857,25.72447"/>
  <path d="M 69,128.86786 V 68.41398 c 0,-2.873139 2.520547,-5.028238 5.393686,-4.309953 L 135.04814,73.441973 134.32986,59.494342 76.54854,50.156641 C 65.055985,48.720072 55,57.339488 55,68.832042 v 60.335918 c 0,11.49255 10.055985,20.11196 21.54854,18.6754 L 135,138.50566 v -13.94751 l -61.324599,9.3377 C 71.520547,133.89585 69,131.74099 69,128.86786" style="filter:url(#filter1838);opacity:0.2;fill:#000000"/>
  <path d="M 69,126.86786 V 66.41398 c 0,-2.873139 2.520547,-5.028238 5.393686,-4.309953 L 135.04814,71.441973 134.32986,57.494342 76.54854,48.156641 C 65.055985,46.720072 55,55.339488 55,66.832042 v 60.335918 c 0,11.49255 10.055985,20.11196 21.54854,18.6754 L 135,136.50566 v -13.94751 l -61.324599,9.3377 C 71.520547,131.89585 69,129.74099 69,126.86786" style="fill:#ffffff"/>
  <path style="opacity:0.2;fill:#ffffff" d="M 59.455078 16.011719 C 40.426104 15.527933 24 30.907516 24 50.982422 L 24 51.982422 C 24 29.830802 43.999163 13.396184 65.427734 17.683594 L 147.57227 33.404297 C 160.42941 35.548002 169 46.2664 169 58.414062 L 169 57.414062 C 169 45.2664 160.42941 34.548002 147.57227 32.404297 L 65.427734 16.683594 C 63.418806 16.281649 61.423593 16.061766 59.455078 16.011719 z "/>
</svg>
