<svg xmlns="http://www.w3.org/2000/svg" id="svg28" width="192" height="192" version="1"><defs><filter style="color-interpolation-filters:sRGB" id="filter901" width="1.1" height="1.1" x=".05" y=".05"><feGaussianBlur stdDeviation="3.2"/></filter><filter style="color-interpolation-filters:sRGB" id="filter2040" width="1.08" height="1.13" x=".04" y=".06"><feGaussianBlur stdDeviation="2.09"/></filter></defs><rect style="filter:url(#filter901);opacity:.2;fill:#000" width="160" height="160" x="-180" y="-176" rx="12" ry="12" transform="matrix(0,-1,-1,0,0,0)"/><rect width="160" height="160" x="-176" y="-176" rx="12" ry="12" transform="matrix(0,-1,-1,0,0,0)" style="fill:#e4e4e4"/><path style="filter:url(#filter2040);opacity:.2;fill:#000" d="m 95.98,48.84 -11.64,11.68 2.69,2.71 6.69,-6.71 -4.32,9.08 1.76,1.77 9.06,-4.34 -6.69,6.71 2.70,2.71 11.63,-11.69 -3.69,-3.71 -8.76,4.29 4.38,-8.68 z M 83.12,61.76 l -3.45,3.46 2.17,6.60 0.07,0.01 -6.24,-2.43 -3.25,3.26 10.80,3.42 4.54,4.56 2.95,-2.96 -4.56,-4.57 z m 27.64,1.92 -11.64,11.69 8.39,8.42 2.37,-2.38 -5.43,-5.45 2.54,-2.54 4.46,4.48 2.38,-2.38 -4.47,-4.48 1.99,-1.99 5.43,5.44 2.37,-2.38 z m 11.01,11.01 -11.65,11.72 2.96,2.96 9.44,-9.46 2.24,2.30 a 2.10,2.10 0 1 1 -2.96,2.97 l -2.13,-2.12 -2.48,10.49 3.19,3.16 2.24,-7.95 a 4.93,4.93 0 0 0 5.72,-1.11 4.71,4.71 0 0 0 0.29,-6.67 z M 72.50,75.36 c -2.08,0.06 -4.20,0.77 -6.02,2.59 v 0.03 c -3.64,3.65 -3.29,8.46 0.12,11.91 3.41,3.45 8.22,3.80 11.86,0.15 3.64,-3.65 3.28,-8.48 0.12,-11.91 C 76.64,76.37 74.58,75.42 72.50,75.36 Z M 96.00,76.65 44.85,128.00 H 147.17 Z m -24.99,2.54 c 1.31,0.07 2.71,0.72 4.11,2.13 2.25,2.26 2.87,4.53 1.02,6.37 -1.85,1.84 -4.09,1.24 -6.34,-1.02 -2.25,-2.26 -2.87,-4.52 -1.02,-6.37 0.69,0.71 1.44,-1.07 2.22,-1.11 z m 63.20,8.05 -11.64,11.68 7.89,7.93 2.66,-2.67 -4.95,-4.96 8.99,-9.03 z m -74.82,0.02 a 4.67,4.67 0 0 0 -3.27,1.56 l -5.90,5.92 11.70,11.69 2.96,-2.96 -9.42,-9.46 1.91,-1.91 a 2.13,2.13 0 0 1 3.01,0.06 2.14,2.14 0 0 1 0.05,3.03 l -1.73,1.74 10.07,2.86 3.16,-3.16 -7.92,-2.28 a 4.98,4.98 0 0 0 -1.10,-5.72 4.67,4.67 0 0 0 -3.40,-1.25 z m -10.81,9.17 -8.02,8.05 11.65,11.68 8.01,-8.04 -2.38,-2.38 -5.06,5.08 -2.54,-2.54 4.10,-4.12 -2.37,-2.38 -4.09,4.12 -1.99,-1.99 5.06,-5.09 z m 95.66,0.86 -11.64,11.68 3.10,3.12 11.65,-11.68 z m 5.65,5.67 -11.63,11.68 2.69,2.70 7.94,-7.96 -3.18,12.75 3.65,3.66 L 161,114.10 l -2.77,-2.78 -8.03,8.05 3.73,-12.37 z M 33.95,111.12 31,114.08 l 11.64,11.68 7.89,-7.92 -2.65,-2.66 -4.95,4.97 z" class="cls-1"/><path style="opacity:.2;fill:#fff" d="m 28,16 c -6.65,0 -12,5.35 -12,12 v 1 c 0,-6.65 5.35,-12 12,-12 h 136 c 6.65,0 12,5.35 12,12 v -1 c 0,-6.65 -5.35,-12 -12,-12 z"/><path d="m 42.64,123.76 7.89,-7.92 -2.65,-2.66 -4.95,4.97 -8.99,-9.03 L 31,112.08 Z m 3.25,-21.86 1.99,1.99 4.09,-4.12 2.37,2.38 -4.10,4.12 2.54,2.54 5.06,-5.08 2.37,2.38 -8.01,8.05 -11.65,-11.68 8.02,-8.06 2.37,2.38 z m 25.92,-7.40 -7.92,-2.28 a 4.98,4.98 0 0 0 -1.10,-5.72 4.67,4.67 0 0 0 -6.67,0.31 l -5.90,5.92 11.70,11.69 2.96,-2.96 -9.42,-9.46 1.91,-1.91 a 2.13,2.13 0 0 1 3.01,0.06 2.14,2.14 0 0 1 0.05,3.03 l -1.73,1.74 10.07,2.86 z M 66.48,75.95 c 3.64,-3.65 8.46,-3.30 11.86,0.12 3.40,3.42 3.77,8.26 0.12,11.91 -3.64,3.65 -8.45,3.30 -11.86,0.15 -3.41,-3.45 -3.77,-8.26 0.12,-11.91 m 2.31,2.37 c -1.85,1.85 -1.23,4.11 1.02,6.37 2.25,2.26 4.49,2.86 6.34,1.02 1.85,-1.84 1.23,-4.11 -1.02,-6.37 -2.25,-2.26 -4.49,-2.93 -6.34,-1.02 m 13.06,-8.48 -2.17,-6.60 3.45,-3.46 2.89,11.32 4.56,4.58 -2.95,2.96 -4.54,-4.56 -10.80,-3.42 3.25,-3.26 6.24,2.43 z m 53.85,40.27 11.65,-11.68 -3.11,-3.12 -11.64,11.68 z m -44.54,-44.71 9.06,-4.34 -6.69,6.71 2.70,2.71 11.63,-11.69 -3.69,-3.71 -8.76,4.29 4.39,-8.68 -3.81,-3.82 -11.64,11.68 2.69,2.71 6.69,-6.71 -4.32,9.08 z m 20.18,1.66 -1.99,1.99 4.47,4.48 -2.37,2.38 -4.46,-4.48 -2.54,2.54 5.43,5.45 -2.37,2.38 -8.39,-8.42 11.64,-11.69 8.39,8.42 -2.37,2.38 z m 11.23,29.89 7.89,7.93 2.66,-2.67 -4.95,-4.96 8.99,-9.03 -2.96,-2.96 z m 31.36,8.09 -3.74,12.38 h 0.01 l 8.05,-8.06 2.76,2.77 -11.64,11.68 -3.65,-3.66 3.18,-12.76 h 0.01 l -7.95,7.98 -2.69,-2.70 11.63,-11.68 z m -33.57,-10.31 2.24,-7.95 a 4.93,4.93 0 0 0 5.72,-1.11 4.71,4.71 0 0 0 0.30,-6.67 l -6.26,-6.29 -11.65,11.72 2.96,2.96 9.44,-9.46 2.24,2.30 a 2.10,2.10 0 1 1 -2.96,2.97 l -2.14,-2.13 -2.48,10.49 z" class="cls-1" style="fill:#404040"/><path d="M 44.85,126.00 H 147.17 L 96.00,74.65 Z" class="cls-2" style="fill:#53c43f"/></svg>