<?xml version='1.0' encoding='utf-8'?>
<svg xmlns="http://www.w3.org/2000/svg" width="192" height="192" version="1" id="svg16">
  <defs>
    <filter style="color-interpolation-filters:sRGB" id="filter847" x="-0.05314286" width="1.1062857" y="-0.043764706" height="1.0875294">
      <feGaussianBlur stdDeviation="2.4799999"/>
    </filter>
    <filter style="color-interpolation-filters:sRGB" id="filter863" x="-0.05314286" width="1.1062857" y="-0.043764706" height="1.0875294">
      <feGaussianBlur stdDeviation="2.4799999"/>
    </filter>
  </defs>
  <path d="M 161.85942,32.004307 A 13.809747,15.01641 0 0 1 176,47.012692 V 153.00102 a 13.809747,15.01641 0 0 1 -20.70372,12.99399 L 113.0734,139.52005 70.87044,113.00082 a 13.809747,15.01641 0 0 1 0,-25.9658 L 113.0734,60.515796 155.29628,34.040845 a 13.809747,15.01641 0 0 1 6.56314,-2.036538 z" style="filter:url(#filter847);opacity:0.2;fill:#000000"/>
  <path d="M 161.85942,28.004308 A 13.809747,15.01641 0 0 1 176,43.012692 V 149.00102 a 13.809747,15.01641 0 0 1 -20.70372,12.99399 L 113.0734,135.52005 70.87044,109.00082 a 13.809747,15.01641 0 0 1 0,-25.9658 l 42.20296,-26.519224 42.22288,-26.47495 a 13.809747,15.01641 0 0 1 6.56314,-2.036538 z" style="fill:#cecaff"/>
  <path style="opacity:0.2;fill:#ffffff" d="M 161.85938 28.007812 A 13.809747 15.01641 0 0 0 155.29688 30.039062 L 113.07031 56.515625 L 70.867188 83.03125 A 13.809747 15.01641 0 0 0 64.023438 96.283203 A 13.809747 15.01641 0 0 1 70.867188 84.03125 L 113.07031 57.515625 L 155.29688 31.039062 A 13.809747 15.01641 0 0 1 161.85938 29.007812 A 13.809747 15.01641 0 0 1 176 44.015625 L 176 43.015625 A 13.809747 15.01641 0 0 0 161.85938 28.007812 z "/>
  <path d="M 30.140584,32.004307 A 13.809747,15.01641 0 0 0 16,47.012692 V 153.00102 a 13.809747,15.01641 0 0 0 20.70372,12.99399 l 42.222876,-26.47496 42.202964,-26.51923 a 13.809747,15.01641 0 0 0 0,-25.9658 L 78.926596,60.515796 36.70372,34.040845 a 13.809747,15.01641 0 0 0 -6.563136,-2.036538 z" style="filter:url(#filter863);opacity:0.1;fill:#000000"/>
  <path d="M 30.140584,28.004308 A 13.809747,15.01641 0 0 0 16,43.012692 V 149.00102 a 13.809747,15.01641 0 0 0 20.70372,12.99399 l 42.222876,-26.47496 42.202964,-26.51923 a 13.809747,15.01641 0 0 0 0,-25.9658 L 78.926596,56.515796 36.70372,30.040846 a 13.809747,15.01641 0 0 0 -6.563136,-2.036538 z" style="fill:#5b449b"/>
  <path style="opacity:0.1;fill:#ffffff" d="M 30.140625 28.007812 A 13.809747 15.01641 0 0 0 16 43.015625 L 16 44.015625 A 13.809747 15.01641 0 0 1 30.140625 29.007812 A 13.809747 15.01641 0 0 1 36.703125 31.039062 L 78.929688 57.515625 L 121.13281 84.03125 A 13.809747 15.01641 0 0 1 127.97461 96.691406 A 13.809747 15.01641 0 0 0 121.13281 83.03125 L 78.929688 56.515625 L 36.703125 30.039062 A 13.809747 15.01641 0 0 0 30.140625 28.007812 z "/>
</svg>
