<?xml version='1.0' encoding='utf-8'?>
<svg xmlns="http://www.w3.org/2000/svg" width="192" height="192" version="1" id="svg12">
  <defs>
    <filter style="color-interpolation-filters:sRGB" id="filter860" x="0.05" width="1.10" y="0.05" height="1.10">
      <feGaussianBlur stdDeviation="3.20"/>
    </filter>
    <filter style="color-interpolation-filters:sRGB" id="filter856" x="0.05" width="1.09" y="0.05" height="1.10">
      <feGaussianBlur stdDeviation="2.20"/>
    </filter>
  </defs>
  <rect style="filter:url(#filter860);opacity:0.20" width="160" height="160" x="16" y="20" rx="8" ry="8"/>
  <rect style="fill:#296dcc" width="160" height="160" x="16" y="16" rx="8" ry="8"/>
  <path style="filter:url(#filter856);opacity:0.20;fill:#000000" d="M 72.96,46 C 60.27,46 53.73,52.12 53.34,66 H 60 c 0.56,-9.53 5.28,-14 12.71,-14 3.35,0 6.65,1.59 8.89,3.73 2.24,2.14 3.35,4.82 3.35,8.04 0,4.80 -3.18,8.74 -8.55,11.85 L 68.69,80.02 C 62.48,83.57 58.23,87.16 55.94,90.77 53.65,94.32 52.34,99.40 52,106 H 92 V 98 H 60.30 c 0.39,-2.54 1.37,-4.10 2.93,-5.96 1.57,-1.86 4.17,-3.78 7.80,-5.76 l 8.39,-4.57 C 87.81,77.09 92,71.05 92,63.60 92,58.41 90.24,54.18 86.72,50.91 83.19,47.64 78.61,46 72.96,46 Z M 125.49,46 98,83.74 V 92 h 26 v 14 h 8 V 92 h 8 v -8 h -8 V 46 Z M 124,59.09 V 84 H 104.57 Z M 39,122 v 30 h 2 v -30 z m 4,0 v 30 h 4 v -30 z m 6,0 v 30 h 2 v -30 z m 4,0 v 30 h 2 v -30 z m 4,0 v 30 h 2 v -30 z m 4,0 v 30 h 4 v -30 z m 6,0 v 30 h 4 v -30 z m 6,0 v 30 h 2 v -30 z m 4,0 v 30 h 2 v -30 z m 4,0 v 30 h 4 v -30 z m 6,0 v 30 h 2 v -30 z m 4,0 v 30 h 2 v -30 z m 4,0 v 30 h 2 v -30 z m 4,0 v 30 h 2 v -30 z m 4,0 v 30 h 4 v -30 z m 6,0 v 30 h 4 v -30 z m 6,0 v 30 h 2 v -30 z m 4,0 v 30 h 2 v -30 z m 4,0 v 30 h 2 v -30 z m 4,0 v 30 h 4 v -30 z m 6,0 v 30 h 2 v -30 z m 4,0 v 30 h 2 v -30 z m 4,0 v 30 h 4 v -30 z m 6,0 v 30 h 2 v -30 z m 4,0 v 30 h 2 v -30 z"/>
  <path style="opacity:0.20;fill:#ffffff" d="m 24,16 c -4.43,0 -8,3.57 -8,8 v 1 c 0,-4.43 3.57,-8 8,-8 h 144 c 4.43,0 8,3.57 8,8 v -1 c 0,-4.43 -3.57,-8 -8,-8 z"/>
  <path style="fill:#ffffff" d="m 39,120 v 30 h 2 v -30 z m 4,0 v 30 h 4 v -30 z m 6,0 v 30 h 2 v -30 z m 4,0 v 30 h 2 v -30 z m 4,0 v 30 h 2 v -30 z m 4,0 v 30 h 4 v -30 z m 6,0 v 30 h 4 v -30 z m 6,0 v 30 h 2 v -30 z m 4,0 v 30 h 2 v -30 z m 4,0 v 30 h 4 v -30 z m 6,0 v 30 h 2 v -30 z m 4,0 v 30 h 2 v -30 z m 4,0 v 30 h 2 v -30 z m 4,0 v 30 h 2 v -30 z m 4,0 v 30 h 4 v -30 z m 6,0 v 30 h 4 v -30 z m 6,0 v 30 h 2 v -30 z m 4,0 v 30 h 2 v -30 z m 4,0 v 30 h 2 v -30 z m 4,0 v 30 h 4 v -30 z m 6,0 v 30 h 2 v -30 z m 4,0 v 30 h 2 v -30 z m 4,0 v 30 h 4 v -30 z m 6,0 v 30 h 2 v -30 z m 4,0 v 30 h 2 v -30 z"/>
  <path style="fill:#ffffff;font-stretch:normal" d="M 72.96,44 C 60.27,44 53.73,50.12 53.34,64 h 6.66 c 0.56,-9.53 5.28,-14 12.71,-14 3.35,0 6.65,1.59 8.89,3.73 2.24,2.14 3.35,4.82 3.35,8.04 0,4.80 -3.18,8.74 -8.55,11.85 L 68.69,78.02 C 62.48,81.57 58.23,85.16 55.94,88.77 53.65,92.32 52.34,97.40 52.00,104 h 40 V 96 H 60.30 c 0.39,-2.54 1.37,-4.10 2.93,-5.96 1.57,-1.86 4.17,-3.78 7.80,-5.76 l 8.39,-4.57 c 8.39,-4.63 12.58,-10.66 12.58,-18.11 0,-5.19 -1.76,-9.42 -5.28,-12.69 C 83.19,45.64 78.61,44 72.96,44 Z M 125.49,44 98.00,81.74 V 90 H 124 v 14 h 8 V 90 h 8 v -8 h -8 V 44 Z M 124,57.09 V 82 h -19.43 z"/>
</svg>
