<?xml version='1.0' encoding='utf-8'?>
<svg xmlns="http://www.w3.org/2000/svg" width="192" height="192" version="1" id="svg26">
  <defs>
    <filter style="color-interpolation-filters:sRGB" id="filter1028" x="-0.048000001" y="-0.048000001" width="1.096" height="1.096">
      <feGaussianBlur stdDeviation="3.2"/>
    </filter>
  </defs>
  <rect fill="#394e6f" width="160" height="160" x="16" y="20" rx="8" ry="8" style="filter:url(#filter1028);opacity:0.2;fill:#000000"/>
  <rect fill="#394e6f" width="160" height="160" x="16" y="16" rx="8" ry="8"/>
  <path style="opacity:0.1;fill:#ffffff" d="M 24 16 C 19.568 16 16 19.568 16 24 L 16 25 C 16 20.568 19.568 17 24 17 L 168 17 C 172.432 17 176 20.568 176 25 L 176 24 C 176 19.568 172.432 16 168 16 L 24 16 z "/>
  <circle fill="#ffffff" stroke="#394e6f" stroke-linecap="round" stroke-linejoin="round" cx="112" cy="88" r="18"/>
  <circle fill="#ffffff" stroke="#394e6f" stroke-linecap="round" stroke-linejoin="round" cx="148" cy="120" r="10"/>
  <circle fill="#ffffff" stroke="#394e6f" stroke-linecap="round" stroke-linejoin="round" cx="126" cy="110" r="20"/>
  <circle fill="#ffffff" stroke="#394e6f" stroke-linecap="round" stroke-linejoin="round" cx="52" cy="112" r="18"/>
  <circle fill="#ffffff" stroke="#394e6f" stroke-linecap="round" stroke-linejoin="round" cx="70" cy="74" r="12"/>
  <circle fill="#ffffff" stroke="#394e6f" stroke-linecap="round" stroke-linejoin="round" cx="72" cy="96" r="22"/>
  <circle fill="#ffffff" stroke="#394e6f" stroke-linecap="round" stroke-linejoin="round" cx="70" cy="120" r="10"/>
  <circle fill="#ffffff" stroke="#394e6f" stroke-linecap="round" stroke-linejoin="round" cx="90" cy="78" r="20"/>
  <circle fill="#ffffff" stroke="#394e6f" stroke-linecap="round" stroke-linejoin="round" cx="95.991997" cy="104.008" r="25.992001"/>
</svg>
