<?xml version='1.0' encoding='utf-8'?>
<svg xmlns="http://www.w3.org/2000/svg" width="192" height="192" version="1" id="svg16">
  <defs>
    <filter style="color-interpolation-filters:sRGB" id="filter971" x="-0.048000001" y="-0.048000001" width="1.096" height="1.096">
      <feGaussianBlur stdDeviation="3.2"/>
    </filter>
    <filter style="color-interpolation-filters:sRGB" id="filter975" x="-0.046682616" y="-0.049393891" width="1.0933652" height="1.0987878">
      <feGaussianBlur stdDeviation="1.8554516"/>
    </filter>
  </defs>
  <rect style="filter:url(#filter971);opacity:0.2;fill:#000000" width="160" height="160" x="16" y="20" rx="80" ry="80"/>
  <rect style="fill:#3d4963" width="160" height="160" x="16" y="16" rx="80" ry="80"/>
  <path style="opacity:0.1;fill:#ffffff" d="M 95.998047 16 C 51.678957 16.001054 16 51.680655 16 96 C 16 96.173903 16.008285 96.344936 16.011719 96.517578 C 16.270953 52.423274 51.840776 17.00105 95.998047 17 L 96 17 C 140.15727 17.00105 175.72709 52.423274 175.98633 96.517578 C 175.98966 96.344912 175.99805 96.173768 175.99805 96 C 175.99805 51.680655 140.31909 16.001054 96 16 L 95.998047 16 z "/>
  <path style="filter:url(#filter975);opacity:0.2" d="M 96,45.974916 C 86.17462,45.390848 78.230016,53.558928 75.382812,62.357728 66.096504,86.841812 57.069948,111.42417 48.304688,136.09992 l 17.429688,-6.10938 c 8.244984,-21.26648 16.2412,-42.638676 24.546872,-63.875 1.32378,-3.258808 5.634104,-6.835776 8.789064,-3.523436 4.099588,4.0729 4.867608,10.15704 7.210938,15.242184 6.63119,17.397168 13.30344,34.778142 19.98437,52.156252 l 17.42969,6.10938 C 134.56365,110.52984 125.3292,84.98802 115.52344,59.670228 112.21987,51.965196 104.79066,45.454124 96,45.974916 Z m 0,52.023436 a 12,12 0 0 0 -12,12.000008 12,12 0 0 0 12,12 12,12 0 0 0 12,-12 12,12 0 0 0 -12,-12.000008 z"/>
  <circle style="fill:#2698fa" cx="96" cy="108" r="12"/>
  <path style="fill:#2698fa" d="m 96,43.976564 c -9.82538,-0.584068 -17.772272,7.58232 -20.619476,16.38112 -9.286308,24.484084 -18.310576,49.068126 -27.075836,73.743876 5.809896,-2.03646 11.619792,-4.07291 17.429688,-6.10937 8.244984,-21.26649 16.242376,-42.63881 24.548048,-63.875134 1.32378,-3.258808 5.631936,-6.832696 8.786896,-3.52036 4.09959,4.0729 4.86637,10.15444 7.2097,15.239584 6.63119,17.397168 13.30567,34.7778 19.9866,52.15591 5.8099,2.03646 11.6198,4.07291 17.42969,6.10937 C 134.56365,108.53148 125.32614,82.990144 115.52038,57.672352 112.21681,49.96732 104.79066,43.455772 96,43.976564 Z"/>
  <path style="opacity:0.2;fill:#ffffff" d="M 97.630859 43.958984 C 97.092754 43.938023 96.549416 43.944013 96 43.976562 C 86.17462 43.392494 78.230016 51.560575 75.382812 60.359375 C 66.096504 84.843459 57.069948 109.42581 48.304688 134.10156 L 48.714844 133.95898 C 57.352599 109.66741 66.240012 85.46509 75.382812 61.359375 C 78.230016 52.560575 86.17462 44.392494 96 44.976562 C 104.79066 44.45577 112.21987 50.966843 115.52344 58.671875 C 125.18306 83.61234 134.28647 108.77086 143.28516 133.95898 L 143.69531 134.10156 C 134.56365 108.53148 125.3292 82.989667 115.52344 57.671875 C 112.42634 50.448408 105.70244 44.273409 97.630859 43.958984 z M 96 96 A 12 12 0 0 0 84 108 A 12 12 0 0 0 84.052734 108.59766 A 12 12 0 0 1 96 97 A 12 12 0 0 1 107.98242 108.66602 A 12 12 0 0 0 108 108 A 12 12 0 0 0 96 96 z "/>
</svg>
