<?xml version='1.0' encoding='utf-8'?>
<svg xmlns="http://www.w3.org/2000/svg" width="192" height="192" version="1.1" id="svg24">
  <defs>
    <filter style="color-interpolation-filters:sRGB" id="filter882" x="0.05" width="1.10" y="0.05" height="1.10">
      <feGaussianBlur stdDeviation="3.20"/>
    </filter>
    <filter style="color-interpolation-filters:sRGB" id="filter899" x="0.06" width="1.11" y="0.04" height="1.08">
      <feGaussianBlur stdDeviation="2.08"/>
    </filter>
  </defs>
  <rect ry="8" rx="8" y="20" x="16" height="160" width="160" style="filter:url(#filter882);opacity:0.20;fill:#000000"/>
  <rect style="fill:#e11966" width="160" height="160" x="16" y="16" rx="8" ry="8"/>
  <path style="opacity:0.20;fill:#ffffff" d="M 24 16 C 19.57 16 16 19.57 16 24 L 16 25 C 16 20.57 19.57 17 24 17 L 168 17 C 172.43 17 176 20.57 176 25 L 176 24 C 176 19.57 172.43 16 168 16 L 24 16 z "/>
  <path style="filter:url(#filter899);opacity:0.20" d="m 52,38 v 76 H 68 V 38 Z m 24,24 v 96 H 92 V 62 Z m 24,0 v 96 h 16 V 62 Z m 24,0 v 56 h 16 V 62 Z"/>
  <rect style="fill:#ffffff" width="16" height="76" x="52" y="36"/>
  <rect style="fill:#ffffff" width="16" height="96" x="76" y="60"/>
  <rect style="fill:#ffffff" width="16" height="96" x="100" y="60"/>
  <rect style="fill:#ffffff" width="16" height="56" x="124" y="60"/>
</svg>
