<?xml version='1.0' encoding='utf-8'?>
<svg xmlns="http://www.w3.org/2000/svg" width="192" height="192" version="1.1" id="svg24">
  <defs>
    <filter style="color-interpolation-filters:sRGB" id="filter880" x="-0.041846154" width="1.0836923" y="-0.056275863" height="1.1125517">
      <feGaussianBlur stdDeviation="1.36"/>
    </filter>
    <filter style="color-interpolation-filters:sRGB" id="filter909" x="-0.048000001" width="1.096" y="-0.048000001" height="1.096">
      <feGaussianBlur stdDeviation="3.2"/>
    </filter>
  </defs>
  <path d="m 24,20 c -4.432,0 -8,3.568 -8,8 v 144 c 0,4.432 3.568,8 8,8 h 144 c 4.432,0 8,-3.568 8,-8 V 46.251256 C 176,46.251256 153,20 153.26633,20 Z" style="filter:url(#filter909);opacity:0.2;fill:#000000"/>
  <path style="fill:#2d66cd" d="m 24,16 c -4.432,0 -8,3.568 -8,8 v 144 c 0,4.432 3.568,8 8,8 h 144 c 4.432,0 8,-3.568 8,-8 V 42.251256 C 176,42.251256 153,16 153.26633,16 Z"/>
  <path style="opacity:0.1;fill:#ffffff" d="m 24,16 c -4.432,0 -8,3.568 -8,8 v 1 c 0,-4.432 3.568,-8 8,-8 H 153.26562 C 152.99929,17 176,43.251953 176,43.251953 v -1 C 176,42.251953 152.99929,16 153.26562,16 Z"/>
  <rect style="opacity:0.2;fill:#000000" width="94" height="58" x="42" y="16" rx="2.9742856" ry="2.9452684"/>
  <path d="m 61,18 c -1.662,0 -3,1.338 -3,3 v 52 c 0,1.662 1.338,3 3,3 h 72 c 1.662,0 3,-1.338 3,-3 V 21 c 0,-1.662 -1.338,-3 -3,-3 z m 49.87109,10 h 10.25782 C 122.71984,28 124,29.290426 124,30.894531 V 67.105469 C 124,68.709574 122.71984,70 121.12891,70 H 110.87109 C 109.28016,70 108,68.709574 108,67.105469 V 30.894531 C 108,29.290426 109.28016,28 110.87109,28 Z" style="filter:url(#filter880);opacity:0.2;fill:#000000"/>
  <path style="fill:#a0b3d5" d="m 61,16 c -1.662,0 -3,1.338 -3,3 v 52 c 0,1.662 1.338,3 3,3 h 72 c 1.662,0 3,-1.338 3,-3 V 19 c 0,-1.662 -1.338,-3 -3,-3 z m 49.87109,10 h 10.25782 C 122.71984,26 124,27.290426 124,28.894531 V 65.105469 C 124,66.709574 122.71984,68 121.12891,68 H 110.87109 C 109.28016,68 108,66.709574 108,65.105469 V 28.894531 C 108,27.290426 109.28016,26 110.87109,26 Z"/>
  <path style="fill:#ffffff" d="m 46,88 c -3.324,0 -6,2.676 -6,6 v 72 H 152 V 94 c 0,-3.324 -2.676,-6 -6,-6 z"/>
  <path style="fill:none;stroke:#e54441;stroke-width:6;stroke-linecap:round" d="m 50,108 h 92"/>
  <path d="m 50,127 h 92" style="fill:none;stroke:#e54441;stroke-width:6;stroke-linecap:round"/>
  <path style="fill:none;stroke:#e54441;stroke-width:6;stroke-linecap:round" d="m 50,146 h 92"/>
  <rect style="fill:#e54441" width="112" height="10" x="40" y="166"/>
  <rect style="opacity:0.3;fill:#000000" width="8" height="8" x="24" y="156"/>
  <rect y="156" x="160" height="8" width="8" style="opacity:0.3;fill:#000000"/>
  <path style="opacity:0.2;fill:#ffffff" d="m 61,16 c -1.662,0 -3,1.338 -3,3 v 1 c 0,-1.662 1.338,-3 3,-3 h 72 c 1.662,0 3,1.338 3,3 v -1 c 0,-1.662 -1.338,-3 -3,-3 z m 47,49.105469 v 1 C 108,67.709574 109.28016,69 110.87109,69 h 10.25782 C 122.71984,69 124,67.709574 124,66.105469 v -1 C 124,66.709574 122.71984,68 121.12891,68 H 110.87109 C 109.28016,68 108,66.709574 108,65.105469 Z"/>
</svg>
