<?xml version='1.0' encoding='utf-8'?>
<svg xmlns="http://www.w3.org/2000/svg" width="192" height="192" version="1" id="svg12">
  <defs>
    <filter style="color-interpolation-filters:sRGB" id="filter955" x="0.05" width="1.10" y="0.05" height="1.10">
      <feGaussianBlur stdDeviation="3.20"/>
    </filter>
    <filter style="color-interpolation-filters:sRGB" id="filter12159" x="0.07" y="0.25" width="1.14" height="1.50">
      <feGaussianBlur stdDeviation="3.44"/>
    </filter>
  </defs>
  <rect style="filter:url(#filter955);opacity:0.20;fill:#000000" width="160" height="160" x="16" y="20" rx="30" ry="30"/>
  <rect style="fill:#3d364e" width="160" height="160" x="16" y="16" rx="30" ry="30"/>
  <path style="filter:url(#filter12159);opacity:0.20;fill:#000000" d="M 89.95,81.39 85.51,94.00 H 72.35 l 10.67,7.73 c 3.48,-1.75 6.74,-3.67 11.28,-4.61 -5.64,4.08 -10.35,8.61 -14.18,13.57 l -1.13,3.50 10.97,-7.45 10.97,7.45 -4.04,-12.46 10.67,-7.73 H 94.39 Z M 45.13,84.00 c -4.69,0 -8.15,3.12 -8.15,7.31 0,2.86 1.35,5.21 4.82,6.96 l 3.46,1.75 c 1.94,0.98 2.87,1.71 2.87,3.16 0,1.54 -1.27,2.65 -2.87,2.65 -1.73,0 -3.30,0.98 -4.01,-3.21 L 36,104.16 c 1.18,4.32 4.69,6.84 9.25,6.84 4.94,0 8.75,-3.20 8.75,-7.82 0,-3.55 -1.86,-5.94 -5.62,-7.69 l -3.30,-1.54 c -1.65,0.77 -2.28,-1.58 -2.28,-2.65 0,-1.24 1.06,-2.26 2.62,-2.22 1.44,0.04 2.49,0.81 3.30,2.65 l 4.94,-2.18 C 52.31,86.05 49.56,84.00 45.13,84.00 Z m 10.87,0 v 5 h 6 v 22 h 6 v -22 h 6 v -5 z m 54,0 v 27 h 6 v -10.69 l 7.08,10.69 H 130 l -7.79,-10.82 C 125.97,99.70 129,96.44 129,92.31 c 0,-5.36 -3.55,-8.31 -9.42,-8.31 z m 33,3 v 9 h -9 v 4 h 9 v 9 h 4 v -9 h 9 v -4 h -9 v -9 z m -27,2 h 3.46 c 2.16,0 3.54,1.07 3.54,2.84 0,1.85 -1.38,3.16 -3.54,3.16 H 116 Z"/>
  <path style="fill:#ffffff" d="M 110 82 L 110 109 L 116 109 L 116 98.31 L 123.08 109 L 130 109 L 122.21 98.18 C 125.97 97.70 129 94.44 129 90.31 C 129 84.95 125.45 82 119.58 82 L 110 82 z M 116 87 L 119.46 87 C 121.62 87 123 88.07 123 89.84 C 123 91.69 121.62 93 119.46 93 L 116 93 L 116 87 z "/>
  <path style="opacity:0.10;fill:#ffffff" d="M 46 16 C 29.38 16 16 29.38 16 46 L 16 47 C 16 30.38 29.38 17 46 17 L 146 17 C 162.62 17 176 30.38 176 47 L 176 46 C 176 29.38 162.62 16 146 16 L 46 16 z "/>
  <path style="fill:#ffffff" d="m 156,98 v -4 h -9 v -9.00 h -4 V 94 h -9 v 4 h 9 v 9 h 4 v -9 z"/>
  <path style="fill:#ffffff" d="m 45.08,91.95 c -1.65,0.77 -2.28,-1.58 -2.28,-2.65 0,-1.24 1.06,-2.26 2.62,-2.22 1.44,0.04 2.49,0.81 3.30,2.65 l 4.94,-2.18 C 52.31,84.05 49.57,82 45.13,82 c -4.69,0 -8.16,3.12 -8.16,7.31 0,2.86 1.35,5.21 4.82,6.96 l 3.46,1.75 c 1.94,0.98 2.87,1.71 2.87,3.16 0,1.54 -1.27,2.65 -2.87,2.65 -1.73,0 -3.30,0.98 -4.01,-3.20 L 36,102.16 C 37.18,106.48 40.69,109 45.25,109 50.20,109 54,105.80 54,101.18 54,97.64 52.14,95.24 48.38,93.49 Z"/>
  <path style="fill:#ffffff" d="M 74,82 H 56 v 5 h 6 v 22 h 6 V 87 h 6 z"/>
  <path style="fill:#fd4e21" d="M 89.95,79.39 85.51,92 H 72.35 l 10.67,7.73 C 86.51,97.98 89.76,96.06 94.30,95.12 88.66,99.19 83.95,103.73 80.12,108.69 l -1.13,3.50 10.97,-7.45 10.97,7.45 L 96.88,99.73 107.55,92 H 94.39 Z"/>
</svg>
