<?xml version='1.0' encoding='utf-8'?>
<svg xmlns="http://www.w3.org/2000/svg" width="192" height="192" version="1" id="svg22">
  <defs>
    <filter style="color-interpolation-filters:sRGB" id="filter870" x="0.05" width="1.10" y="0.05" height="1.10">
      <feGaussianBlur stdDeviation="3.18"/>
    </filter>
    <filter style="color-interpolation-filters:sRGB" id="filter898" x="0.05" width="1.10" y="0.05" height="1.10">
      <feGaussianBlur stdDeviation="2.72"/>
    </filter>
    <filter style="color-interpolation-filters:sRGB" id="filter902" x="0.14" width="1.27" y="0.27" height="1.54">
      <feGaussianBlur stdDeviation="2.72"/>
    </filter>
  </defs>
  <path style="filter:url(#filter870);opacity:0.20;fill:#000000" d="m 170.16,168.98 1.21,-139.37 c 0.04,-4.43 0.25,-2.48 -4.18,-2.57 L 26.62,24.23 c -1.74,0.03 -5.96,-3.68 -7.27,-2.74 -2.03,1.45 -3.35,3.82 -3.35,6.52 V 172 c 0,4.43 3.57,8 8,8 H 168 c 2.99,0 5.58,-1.62 6.95,-4.03 0.67,-1.17 -4.80,-5.54 -4.79,-6.99 z"/>
  <path d="m 170.16,164.98 1.21,-139.37 c 0.04,-4.43 0.25,-2.48 -4.18,-2.57 L 26.62,20.23 c -1.74,0.03 -5.96,-3.68 -7.27,-2.74 -2.03,1.45 -3.35,3.82 -3.35,6.52 V 168 c 0,4.43 3.57,8 8,8 H 168 c 2.99,0 5.58,-1.62 6.95,-4.03 0.67,-1.17 -4.80,-5.54 -4.79,-6.99 z" style="fill:#f26522"/>
  <path d="M 176,168 V 24 c 0,-4.43 -3.57,-8 -8,-8 H 24 c -2.30,0 -4.37,0.96 -5.83,2.51 L 173.49,173.83 C 175.04,172.37 176,170.30 176,168 Z" style="fill:#f7941e"/>
  <path style="opacity:0.20;fill:#ffffff" d="M 24 16 C 19.57 16 16 19.57 16 24 L 16 25 C 16 20.57 19.57 17 24 17 L 168 17 C 172.43 17 176 20.57 176 25 L 176 24 C 176 19.57 172.43 16 168 16 L 24 16 z "/>
  <path d="m 28.13,32.00 c 0.92,0.01 2.15,3.19 35.60,37.06 35.30,35.75 99.79,99.40 100.26,98.94 0.15,0.15 -1.26,-2.35 -3.13,-4.91 -13.97,-19.09 -21.17,-34.31 -24.36,-49.52 -1.79,-12.87 0.54,-25.76 -2.55,-38.40 C 132.61,69.94 129.17,63.09 126.06,58.27 123.69,54.59 118.12,48 117.09,48 c -1.36,4.86 -1.32,11.05 -3.34,15.12 C 109.71,70.51 103.38,75.76 96.08,80 71.00,64.39 56.07,50.83 28.13,32.00 Z" style="filter:url(#filter898);opacity:0.20"/>
  <path d="m 28.13,28.00 c 0.92,0.01 2.15,3.19 35.60,37.06 35.30,35.75 99.79,99.40 100.26,98.94 0.15,0.15 -1.26,-2.35 -3.13,-4.91 -13.97,-19.09 -21.17,-34.31 -24.36,-49.52 C 134.71,96.70 137.04,83.81 133.95,71.17 132.61,65.94 129.17,59.09 126.06,54.27 123.69,50.59 118.12,44 117.09,44 c -1.36,4.86 -1.32,11.05 -3.34,15.12 C 109.71,66.51 103.38,71.76 96.08,76 71.00,60.39 56.07,46.83 28.13,28.00 Z" style="fill:#ffffff"/>
  <path d="m 69.32,96.00 c -2.45,0.01 -4.90,0.75 -7.27,2.26 -1.54,0.98 -5.37,3.11 -8.50,4.73 -4.95,2.55 -5.68,3.12 -5.53,4.26 0.42,3.19 13.88,7.22 37.76,11.31 C 95.27,120.19 96,120.27 96,119.62 c 0,0.26 -4.66,-5.40 -10.36,-11.42 -9.13,-9.64 -10.68,-11.03 -13.00,-11.71 -1.10,0.32 -2.21,0.48 -3.33,0.49 z" style="filter:url(#filter902);opacity:0.20"/>
  <path d="m 69.32,92.00 c -2.45,0.01 -4.90,0.75 -7.27,2.26 -1.54,0.98 -5.37,3.11 -8.50,4.73 -4.95,2.55 -5.68,3.12 -5.53,4.26 0.42,3.19 13.88,7.22 37.76,11.31 C 95.27,116.19 96,116.27 96,115.62 c 0,0.26 -4.66,-5.40 -10.36,-11.42 -9.13,-9.64 -10.68,-11.03 -13.00,-11.71 -1.10,0.32 -2.21,0.48 -3.33,0.49 z" style="fill:#f9b291"/>
  <path style="opacity:0.20;fill:#ffffff" d="M 69.31 92 C 66.87 91.99 64.42 92.75 62.05 94.27 C 60.51 95.25 56.68 97.37 53.55 98.99 C 48.60 101.55 47.86 102.11 48.02 103.26 C 48.03 103.34 48.07 103.42 48.11 103.51 C 48.45 102.73 49.77 101.94 53.55 99.99 C 56.68 98.37 60.51 96.25 62.05 95.27 C 64.42 93.75 66.87 92.99 69.31 93 C 70.42 93.00 71.54 93.16 72.64 93.48 C 74.96 94.16 76.51 95.56 85.64 105.20 C 90.21 110.02 94.07 114.24 95.44 115.88 C 95.78 115.84 96 115.77 96 115.62 C 96 115.36 91.34 110.21 85.64 104.20 C 76.51 94.56 74.96 93.16 72.64 92.48 C 71.54 92.16 70.42 92.00 69.31 92 z "/>
</svg>
