<?xml version='1.0' encoding='utf-8'?>
<svg xmlns="http://www.w3.org/2000/svg" width="192" height="192" version="1" id="svg36">
  <defs>
    <filter style="color-interpolation-filters:sRGB" id="filter831" x="0.05" width="1.09" y="0.05" height="1.10">
      <feGaussianBlur stdDeviation="3.04"/>
    </filter>
    <filter style="color-interpolation-filters:sRGB" id="filter873" x="0.03" width="1.07" y="0.09" height="1.18">
      <feGaussianBlur stdDeviation="1.52"/>
    </filter>
  </defs>
  <path style="filter:url(#filter831);opacity:0.20;fill:#000000" d="M 176,164.00 V 36.00 c 0,-4.43 -3.57,-8 -8,-8 H 24 c -4.43,0 -8,3.57 -8,8 V 164.00 c 0,4.43 3.57,8 8,8 h 144 c 4.43,0 8,-3.57 8,-8 z"/>
  <path d="M 176,160 V 32 c 0,-4.43 -3.57,-8 -8,-8 H 24 c -4.43,0 -8,3.57 -8,8 v 128 c 0,4.43 3.57,8 8,8 h 144 c 4.43,0 8,-3.57 8,-8 z" style="fill:#e4e4e4"/>
  <path style="fill:#4f4f4f" d="m 39.66,24 16,16 -16,16 L 60,56 76,40 60,24 Z M 80,24 96,40 80,56 h 20 L 116,40 100,24 Z m 40,0 16,16 -16,16 h 20 L 156,40 140,24 Z m 40,0 16,16 v -8 c 0,-4.43 -3.57,-8 -8,-8 z m 16,16 -16,16 h 16 z"/>
  <path style="opacity:0.20" d="m 24,24 c -4.43,0 -8,3.57 -8,8 v 8 h 160 v -8 c 0,-4.43 -3.57,-8 -8,-8 z"/>
  <path style="fill:#e4e4e4" d="m 24,24 c -4.43,0 -8,3.57 -8,8 v 24 l 23.66,0 16,-16 -16,-16 z"/>
  <path style="fill:#e4e4e4;fill-rule:evenodd" d="M 76,40 60,24 h 20 l 16,16 z"/>
  <path style="fill:#e4e4e4;fill-rule:evenodd" d="M 76,40 60,56 H 80 L 96,40 Z"/>
  <path style="fill:#e4e4e4;fill-rule:evenodd" d="M 116,40 100,24 h 20 l 16,16 z"/>
  <path style="fill:#e4e4e4;fill-rule:evenodd" d="m 116,40 -16,16 h 20 l 16,-16 z"/>
  <path style="fill:#e4e4e4;fill-rule:evenodd" d="M 156,40 140,24 h 20 l 16,16 z"/>
  <path style="fill:#e4e4e4;fill-rule:evenodd" d="m 156,40 -16,16 h 20 l 16,-16 z"/>
  <path style="opacity:0.10;fill:#ffffff" d="M 24 24 C 19.57 24 16 27.57 16 32 L 16 33 C 16 28.57 19.57 25 24 25 L 168 25 C 172.43 25 176 28.57 176 33 L 176 32 C 176 27.57 172.43 24 168 24 L 24 24 z "/>
  <path style="filter:url(#filter873);opacity:0.10;fill:#000000" d="m 40,92 v 8 h 12 c 2.22,0 4,1.78 4,4 0,2.22 -1.78,4 -4,4 H 40 v 8 h 12 c 2.22,0 4,1.78 4,4 0,2.22 -1.78,4 -4,4 H 40 v 8 h 12 c 6.65,0 12,-5.35 12,-12 0,-3.09 -1.19,-5.88 -3.10,-8 C 62.81,109.88 64,107.09 64,104 64,97.35 58.65,92 52,92 Z m 60,0 c 0,0 -2.83,0.06 -5.79,1.42 C 91.26,94.90 88,98.67 88,104 h 8 c 0,-4.00 4,-4 4,-4 0,0 4,0.00 4,4 0,2.11 0.56,3.29 -1.62,4.62 -1.07,1.33 -2.77,2.67 -4.77,4.17 C 95.60,114.30 93.31,115.96 91.38,118.38 89.44,120.79 88,124.11 88,128 v 4 h 24 v -8 H 97.41 c 0.13,0.18 0.07,0.45 0.22,0.62 1.07,-1.33 2.77,-2.67 4.77,-4.17 2.00,-1.50 4.29,-3.16 6.23,-5.58 C 110.56,111.21 112,107.89 112,104 112,98.67 108.74,94.90 105.79,93.42 102.83,91.94 100,92 100,92 Z m 40,0 -4,8 h 8 v 32 h 8 V 92 Z"/>
  <path d="m 40,88 v 8 h 12 c 2.22,0 4,1.78 4,4 0,2.22 -1.78,4 -4,4 H 40 v 8 h 12 c 2.22,0 4,1.78 4,4 0,2.22 -1.78,4 -4,4 H 40 v 8 h 12 c 6.65,0 12,-5.35 12,-12 0,-3.09 -1.19,-5.88 -3.10,-8 C 62.81,105.88 64,103.09 64,100 64,93.35 58.65,88 52,88 Z" style="fill:#e14f4f"/>
  <path d="m 100.00,88.00 c 0,0 -2.83,0.06 -5.79,1.42 C 91.26,90.90 88,94.67 88,100.00 h 8.00 c 0,-4.00 4.00,-4.00 4.00,-4.00 0,0 4,0 4,4.00 0,2.11 0.56,3.29 -1.62,4.62 -1.07,1.33 -2.77,2.67 -4.77,4.17 -2.00,1.50 -4.29,3.16 -6.23,5.58 C 89.44,116.79 88,120.11 88,124.00 V 128 h 24.00 v -8.00 H 97.41 c 0.13,0.18 0.07,0.44 0.22,0.62 1.07,-1.33 2.77,-2.67 4.77,-4.17 2.00,-1.50 4.29,-3.16 6.23,-5.58 1.93,-2.42 3.38,-5.74 3.38,-9.62 0,-5.33 -3.26,-9.10 -6.21,-10.58 -2.95,-1.48 -5.79,-1.42 -5.79,-1.42 z" style="fill:#2e94df;fill-rule:evenodd"/>
  <path d="m 140,88 -4,8 h 8 v 32 h 8 V 88 Z" style="fill:#5aab16;fill-rule:evenodd"/>
</svg>
