<?xml version='1.0' encoding='utf-8'?>
<svg xmlns="http://www.w3.org/2000/svg" width="192" height="192" version="1.1" id="svg12">
  <defs>
    <filter style="color-interpolation-filters:sRGB" id="filter845" x="0.05" y="0.05" width="1.10" height="1.10">
      <feGaussianBlur stdDeviation="3.20"/>
    </filter>
    <filter style="color-interpolation-filters:sRGB" id="filter2412" x="0.07" y="0.08" width="1.14" height="1.16">
      <feGaussianBlur stdDeviation="2.65"/>
    </filter>
  </defs>
  <rect x="16" y="20" width="160" height="160" rx="16" ry="16" style="filter:url(#filter845);opacity:0.20"/>
  <rect x="16" y="16" width="160" height="160" rx="16" ry="16" style="fill:#ff541f"/>
  <path style="opacity:0.20;fill:#ffffff" d="M 32 16 C 23.14 16 16 23.14 16 32 L 16 33 C 16 24.14 23.14 17 32 17 L 160 17 C 168.86 17 176 24.14 176 33 L 176 32 C 176 23.14 168.86 16 160 16 L 32 16 z "/>
  <path style="filter:url(#filter2412);opacity:0.20;fill:#000000" d="M 59.76,54 51,124.20 65.24,126 74,55.80 Z M 106.50,78 A 25.50,27.50 0 0 0 81,105.50 25.50,27.50 0 0 0 106.50,133 25.50,27.50 0 0 0 120.46,128.49 L 120,132.20 134.24,134 l 6.48,-51.94 -14.26,-1.60 0.85,6.84 A 25.50,27.50 0 0 0 106.50,78 Z m 1.36,13.00 c 4.79,0.02 8.04,0.65 10.99,2.15 1.84,0.93 3.66,2.75 4.29,4.27 1.97,4.73 0.37,15.23 -3,19.68 0.40,0.53 -1.56,1.37 -2.61,1.89 -1.76,0.87 -2.13,0.94 -5.28,1.01 -1.86,0.04 -4.16,0.05 -5.10,0.20 -6.33,0.99 -9.77,-2.90 -11.24,-6.23 -2.12,-4.84 0.36,-15.80 3.20,-19.88 0.48,0.55 1.69,-1.37 2.69,-1.84 1.75,0.82 1.99,0.85 6.04,0.83 z"/>
  <path style="fill:#ffffff" d="M 59.76 52 L 51 122.20 L 65.24 124 L 74 53.80 L 59.76 52 z M 106.50 76 A 25.50 27.50 0 0 0 81 103.50 A 25.50 27.50 0 0 0 106.50 131 A 25.50 27.50 0 0 0 120.46 126.49 L 120 130.20 L 134.24 132 L 140.72 80.06 L 126.46 78.46 L 125.60 85.29 A 25.50 27.50 0 0 0 106.50 76 z M 107.86 89.00 C 112.65 89.02 115.90 89.65 118.85 91.15 C 120.69 92.08 122.51 93.90 123.14 95.42 C 125.11 100.15 123.51 110.65 120.14 115.10 C 119.75 115.62 118.58 116.46 117.53 116.98 C 115.77 117.86 115.40 117.93 112.26 117.99 C 110.40 118.03 108.10 117.94 107.15 117.79 C 100.82 116.80 97.38 114.89 95.92 111.56 C 93.79 106.72 95.56 95.75 99.12 91.68 C 99.60 91.13 100.81 90.30 101.81 89.84 C 103.57 89.02 103.80 88.99 107.86 89.00 z "/>
</svg>
