<?xml version='1.0' encoding='utf-8'?>
<svg xmlns="http://www.w3.org/2000/svg" width="192" height="192" version="1.1" id="svg16">
  <defs>
    <filter style="color-interpolation-filters:sRGB" id="filter853" x="-0.048000001" y="-0.048000001" width="1.096" height="1.096">
      <feGaussianBlur stdDeviation="3.2"/>
    </filter>
    <filter style="color-interpolation-filters:sRGB" id="filter3913" x="-0.048" y="-0.048" width="1.096" height="1.096">
      <feGaussianBlur stdDeviation="2.52"/>
    </filter>
    <filter style="color-interpolation-filters:sRGB" id="filter3917" x="-0.056516131" y="-0.041714287" width="1.1130323" height="1.0834286">
      <feGaussianBlur stdDeviation="1.46"/>
    </filter>
  </defs>
  <circle style="filter:url(#filter853);opacity:0.2" cx="96" cy="100" r="80"/>
  <circle style="fill:#81c235" cx="96" cy="96" r="80"/>
  <circle style="filter:url(#filter3913);opacity:0.2;fill:#000000;stop-color:#000000" cx="96" cy="98" r="63"/>
  <circle style="fill:#ffffff;stop-color:#000000" cx="96" cy="96" r="63"/>
  <path style="opacity:0.2;fill:#ffffff" d="M 96,16 A 80,80 0 0 0 16,96 80,80 0 0 0 16.023438,96.638672 80,80 0 0 1 96,17 80,80 0 0 1 175.98438,96.302734 80,80 0 0 0 176,96 80,80 0 0 0 96,16 Z"/>
  <path style="filter:url(#filter3917);opacity:0.2;fill:#000000;stop-color:#000000" d="m 69,57 c -1.108,0 -2,0.892 -2,2 v 15 18 15 32 c 0,1.108 0.892,2 2,2 h 19 c 1.108,0 2,-0.892 2,-2 v -30 h 3 c 1.108,0 2,-0.892 2,-2 V 92 c 0,-1.108 -0.892,-2 -2,-2 H 90 V 76 h 3 c 1.108,0 2,-0.892 2,-2 V 59 c 0,-1.108 -0.892,-2 -2,-2 h -5 z m 32,0 c -1.108,0 -2,0.892 -2,2 v 15 c 0,1.108 0.892,2 2,2 h 26 c 1.108,0 2,-0.892 2,-2 V 59 c 0,-1.108 -0.892,-2 -2,-2 z m 0,33 c -1.108,0 -2,0.892 -2,2 v 15 c 0,1.108 0.892,2 2,2 h 24 c 1.108,0 2,-0.892 2,-2 V 92 c 0,-1.108 -0.892,-2 -2,-2 z"/>
  <path style="fill:#0948a0;stop-color:#000000" d="m 69,55 c -1.108,0 -2,0.892 -2,2 v 15 18 15 32 c 0,1.108 0.892,2 2,2 h 19 c 1.108,0 2,-0.892 2,-2 v -30 h 3 c 1.108,0 2,-0.892 2,-2 V 90 c 0,-1.108 -0.892,-2 -2,-2 H 90 V 74 h 3 c 1.108,0 2,-0.892 2,-2 V 57 c 0,-1.108 -0.892,-2 -2,-2 h -5 z m 32,0 c -1.108,0 -2,0.892 -2,2 v 15 c 0,1.108 0.892,2 2,2 h 26 c 1.108,0 2,-0.892 2,-2 V 57 c 0,-1.108 -0.892,-2 -2,-2 z m 0,33 c -1.108,0 -2,0.892 -2,2 v 15 c 0,1.108 0.892,2 2,2 h 24 c 1.108,0 2,-0.892 2,-2 V 90 c 0,-1.108 -0.892,-2 -2,-2 z"/>
</svg>
