<?xml version='1.0' encoding='utf-8'?>
<svg xmlns="http://www.w3.org/2000/svg" width="192" height="192" version="1.1" id="svg20">
  <defs>
    <filter style="color-interpolation-filters:sRGB" id="filter879" x="0.05" width="1.10" y="0.05" height="1.09">
      <feGaussianBlur stdDeviation="3.12"/>
    </filter>
    <filter style="color-interpolation-filters:sRGB" id="filter899" x="0.05" width="1.10" y="0.05" height="1.10">
      <feGaussianBlur stdDeviation="1.60"/>
    </filter>
  </defs>
  <path d="m 96,19.00 a 75,75 0 0 0 -75,75 75,75 0 0 0 58.61,73.12 l 12.09,12.09 c 2.38,2.38 6.22,2.38 8.61,0 l 12.13,-12.13 A 75,75 0 0 0 171,94.00 a 75,75 0 0 0 -75,-75 z" style="filter:url(#filter879);opacity:0.20;fill:#000000"/>
  <path style="fill:#ffa500" d="m 96,15.00 a 75,75 0 0 0 -75,75 75,75 0 0 0 58.61,73.12 l 12.09,12.09 c 2.38,2.38 6.22,2.38 8.61,0 l 12.13,-12.13 A 75,75 0 0 0 171,90.00 a 75,75 0 0 0 -75,-75 z"/>
  <path style="opacity:0.20;fill:#ffffff" d="M 96,15 A 75,75 0 0 0 21,90 75,75 0 0 0 21.02,90.41 75,75 0 0 1 96,16 75,75 0 0 1 170.98,90.66 75,75 0 0 0 171,90 75,75 0 0 0 96,15 Z"/>
  <circle r="40" cy="92.00" cx="96" style="filter:url(#filter899);opacity:0.20;fill:#000000"/>
  <circle style="fill:#ffffff" cx="96" cy="90.00" r="40"/>
</svg>
