<?xml version='1.0' encoding='utf-8'?>
<svg xmlns="http://www.w3.org/2000/svg" width="192" height="192" version="1" id="svg28">
  <defs>
    <filter style="color-interpolation-filters:sRGB" id="filter6495" x="0.05" y="0.05" width="1.10" height="1.10">
      <feGaussianBlur stdDeviation="3.20"/>
    </filter>
    <filter style="color-interpolation-filters:sRGB" id="filter2622" x="0.05" y="0.20" width="1.10" height="1.39">
      <feGaussianBlur stdDeviation="3.36"/>
    </filter>
  </defs>
  <rect transform="matrix(0,-1,-1,0,0,0)" ry="12" rx="12" y="-176" x="-180" height="160" width="160" style="filter:url(#filter6495);opacity:0.20;fill:#000000"/>
  <rect transform="matrix(0,-1,-1,0,0,0)" ry="12" rx="12" y="-176" x="-176" height="160" width="160" style="fill:#3f3f3f"/>
  <path style="opacity:0.10;fill:#ffffff" d="m 28,16 c -6.65,0 -12,5.35 -12,12 v 1 c 0,-6.65 5.35,-12 12,-12 h 136 c 6.65,0 12,5.35 12,12 v -1 c 0,-6.65 -5.35,-12 -12,-12 z"/>
  <path style="filter:url(#filter2622);opacity:0.20;fill:#000000;color:#000000" d="m 21,78 c -1.73,0 -3.41,0.26 -5,0.73 v 8.64 C 17.47,86.52 19.16,86 21,86 c 5.57,0 10,4.43 10,10 v 23 h 8 V 96 c 0,-5.57 4.43,-10 10,-10 5.57,0 10,4.43 10,10 v 23 h 8 V 96 C 67,86.11 58.89,78 49,78 43.36,78 38.31,80.63 35,84.73 31.69,80.63 26.64,78 21,78 Z m 75.50,0 A 20.50,20.50 0 0 0 76,98.50 20.50,20.50 0 0 0 96.50,119 20.50,20.50 0 0 0 117,98.50 20.50,20.50 0 0 0 96.50,78 Z m 46.50,0 c -9.89,0 -18,8.11 -18,18 v 23 h 8 V 96 c 0,-5.57 4.43,-10 10,-10 0.34,0 0.67,0.02 1,0.05 V 78.03 C 143.67,78.01 143.34,78 143,78 Z m 26.50,0 A 20.50,20.50 0 0 0 149,98.50 20.50,20.50 0 0 0 169.50,119 20.50,20.50 0 0 0 176,117.81 v -8.81 A 12.50,12.50 0 0 1 169.50,111 12.50,12.50 0 0 1 157.55,102 H 176 V 94 H 157.86 A 12.50,12.50 0 0 1 169.50,86 12.50,12.50 0 0 1 176,87.92 V 79.07 A 20.50,20.50 0 0 0 169.50,78 Z"/>
  <path style="fill:#ffffff;color:#000000" d="M 21 76 C 19.27 76 17.59 76.26 16 76.73 L 16 85.37 C 17.47 84.52 19.16 84 21 84 C 26.57 84 31 88.43 31 94 L 31 117 L 39 117 L 39 94 C 39 88.43 43.43 84 49 84 C 54.57 84 59 88.43 59 94 L 59 117 L 67 117 L 67 94 C 67 84.11 58.89 76 49 76 C 43.36 76 38.31 78.63 35 82.73 C 31.69 78.63 26.64 76 21 76 z M 96.50 76 A 20.50 20.50 0 0 0 76 96.50 A 20.50 20.50 0 0 0 96.50 117 A 20.50 20.50 0 0 0 117 96.50 A 20.50 20.50 0 0 0 96.50 76 z M 143 76 C 133.11 76 125 84.11 125 94 L 125 117 L 133 117 L 133 94 C 133 88.43 137.43 84 143 84 C 143.34 84 143.67 84.02 144 84.05 L 144 76.03 C 143.67 76.01 143.34 76 143 76 z M 169.50 76 A 20.50 20.50 0 0 0 149 96.50 A 20.50 20.50 0 0 0 169.50 117 A 20.50 20.50 0 0 0 176 115.81 L 176 107.00 A 12.50 12.50 0 0 1 169.50 109 A 12.50 12.50 0 0 1 157.55 100 L 176 100 L 176 92 L 157.86 92 A 12.50 12.50 0 0 1 169.50 84 A 12.50 12.50 0 0 1 176 85.92 L 176 77.07 A 20.50 20.50 0 0 0 169.50 76 z "/>
</svg>
