<?xml version='1.0' encoding='utf-8'?>
<svg xmlns="http://www.w3.org/2000/svg" width="192" height="192" version="1" id="svg28">
  <defs>
    <filter style="color-interpolation-filters:sRGB" id="filter19454" x="0.05" y="0.05" width="1.10" height="1.10">
      <feGaussianBlur stdDeviation="3.20"/>
    </filter>
    <filter style="color-interpolation-filters:sRGB" id="filter1373" x="0.08" y="0.15" width="1.17" height="1.30">
      <feGaussianBlur stdDeviation="3.60"/>
    </filter>
  </defs>
  <rect transform="matrix(0,-1,-1,0,0,0)" ry="30" rx="30" y="-176" x="-180" height="160" width="160" style="filter:url(#filter19454);opacity:0.20;fill:#000000"/>
  <rect transform="matrix(0,-1,-1,0,0,0)" ry="30" rx="30" y="-176" x="-176" height="160" width="160" style="fill:#3f3f3f"/>
  <path style="opacity:0.10;fill:#ffffff" d="M 46 16 C 29.38 16 16 29.38 16 46 L 16 47 C 16 30.38 29.38 17 46 17 L 146 17 C 162.62 17 176 30.38 176 47 L 176 46 C 176 29.38 162.62 16 146 16 L 46 16 z "/>
  <path style="filter:url(#filter1373);opacity:0.20;fill:#000000" d="m 73,69 c -16.02,0 -29,12.98 -29,29 0,16.02 12.98,29 29,29 16.02,0 29,-12.98 29,-29 C 102,81.98 89.02,69 73,69 Z m 46.50,2 c -8.01,0 -14.50,12.09 -14.50,27 0,14.91 6.49,27 14.50,27 8.01,0 14.50,-12.09 14.50,-27 0,-14.91 -6.49,-27 -14.50,-27 z m 22.50,2 c -2.76,0 -5,11.19 -5,25 0,13.81 2.24,25 5,25 2.76,0 5,-11.19 5,-25 0,-13.81 -2.24,-25 -5,-25 z"/>
  <path style="fill:#ffffff" d="m 73,67 c -16.02,0 -29,12.98 -29,29 0,16.02 12.98,29 29,29 16.02,0 29,-12.98 29,-29 C 102,79.98 89.02,67 73,67 Z m 46.50,2 c -8.01,0 -14.50,12.09 -14.50,27 0,14.91 6.49,27 14.50,27 8.01,0 14.50,-12.09 14.50,-27 0,-14.91 -6.49,-27 -14.50,-27 z m 22.50,2 c -2.76,0 -5,11.19 -5,25 0,13.81 2.24,25 5,25 2.76,0 5,-11.19 5,-25 0,-13.81 -2.24,-25 -5,-25 z"/>
</svg>
