<svg xmlns="http://www.w3.org/2000/svg" id="svg28" width="192" height="192" version="1"><defs><filter style="color-interpolation-filters:sRGB" id="filter9986" width="1.07" height="1.06" x=".03" y=".03"><feGaussianBlur stdDeviation="1.94"/></filter><filter style="color-interpolation-filters:sRGB" id="filter10391" width="1.1" height="1.1" x=".05" y=".05"><feGaussianBlur stdDeviation="2.36"/></filter><filter style="color-interpolation-filters:sRGB" id="filter10395" width="1.1" height="1.11" x=".05" y=".05"><feGaussianBlur stdDeviation="2.34"/></filter><filter style="color-interpolation-filters:sRGB" id="filter10399" width="1.1" height="1.1" x=".05" y=".05"><feGaussianBlur stdDeviation="1.18"/></filter></defs><path style="filter:url(#filter9986);opacity:.2;fill:#000" d="M 29,20 V 180 H 71.14 C 78.88,180 79,172.46 79,172.46 V 141 h 23.50 C 135.91,141 163,113.91 163,80.50 163,47.09 135.91,20 102.50,20 H 79 Z"/><path style="fill:#336ada" d="M 29,64.74 V 176 H 71.14 C 78.88,176 79,168.46 79,168.46 V 137 H 98.79 C 94.35,129.78 93.97,119.59 87.96,113.47 80.49,105.87 67.09,106.28 59.66,98.65 52.81,91.62 53.70,79.10 46.71,72.22 42.17,67.76 35.13,66.90 29,64.74 Z"/><path style="filter:url(#filter10391);opacity:.2;fill:#000" d="M 39.55,30.54 39.36,53.69 29,66.74 c 6.13,2.16 13.17,3.03 17.71,7.48 7.00,6.88 6.11,19.40 12.95,26.43 7.43,7.63 20.84,7.22 28.30,14.82 6.01,6.12 6.40,16.31 10.84,23.53 l 5.32,-6.73 c 9.84,-12.45 11.01,-4.44 21.81,-14.44 -1.51,-5.33 15.11,-5.91 11.35,-9.69 -6.47,-6.50 -18.40,-5.13 -24.98,-11.50 -7.24,-7.01 -6.48,-19.84 -13.54,-27.03 -7.46,-7.60 -20.87,-7.19 -28.30,-14.82 -6.84,-7.03 -5.95,-19.55 -12.95,-26.43 -6.07,-5.96 -6.09,7.04 -12.90,2.17 z"/><path style="fill:#9533b7" d="m 29,16 v 48.74 c 6.13,2.16 13.17,3.03 17.71,7.48 7.00,6.88 6.11,19.40 12.95,26.43 7.43,7.63 20.84,7.22 28.30,14.82 6.01,6.12 6.40,16.31 10.84,23.53 H 102.50 c 15.87,0 30.30,-6.12 41.10,-16.11 -1.51,-5.33 -2.57,-10.96 -6.32,-14.74 -6.47,-6.50 -18.40,-5.13 -24.98,-11.50 C 105.04,87.63 105.80,74.80 98.74,67.61 91.28,60.02 77.87,60.42 70.44,52.79 63.60,45.76 64.49,33.24 57.49,26.36 51.42,20.40 40.86,20.87 34.04,16 Z"/><path style="filter:url(#filter10395);opacity:.2;fill:#000" d="m 34.04,18 c 6.81,4.87 17.38,4.40 23.45,10.36 7.00,6.88 6.11,19.40 12.95,26.43 7.43,7.63 20.84,7.22 28.30,14.82 7.06,7.19 6.30,20.02 13.54,27.03 6.59,6.37 18.52,5.00 24.98,11.50 3.76,3.78 4.81,9.41 6.32,14.74 1.94,-1.79 1.23,-15.43 2.92,-17.46 8.71,-10.48 3.34,-11.15 3.34,-25.84 0,0.42 0.02,0.84 0.03,-1.25 -5.28,-1.82 -10.57,-3.63 -14.33,-7.49 -6.84,-7.03 7.18,-20.64 0.19,-27.52 -6.67,-6.56 -24.10,-1.87 -30.67,-8.52 -3.42,-3.47 -4.61,-8.46 -5.94,-13.36 0.62,0.02 -1.25,0.21 -1.85,0.05 L 79,26.28 Z"/><path style="fill:#e43a53" d="m 34.04,16 c 6.81,4.87 17.38,4.40 23.45,10.36 7.00,6.88 6.11,19.40 12.95,26.43 7.43,7.63 20.84,7.22 28.30,14.82 7.06,7.19 6.30,20.02 13.54,27.03 6.59,6.37 18.52,5.00 24.98,11.50 3.76,3.78 4.81,9.41 6.32,14.74 C 155.53,109.84 163,94.04 163,76.50 c 0,0.42 0.02,0.84 0.03,-1.25 -5.28,-1.82 -10.57,-3.63 -14.33,-7.49 -6.84,-7.03 -5.95,-19.55 -12.95,-26.43 -6.67,-6.56 -18.83,-5.26 -25.40,-11.92 -3.42,-3.47 -4.61,-8.46 -5.94,-13.36 C 103.73,16.03 103.12,16 102.50,16 H 79 Z"/><path style="filter:url(#filter10399);opacity:.2;fill:#000" d="m 104.35,18.05 c 1.33,4.90 2.52,9.89 5.94,13.36 6.57,6.66 18.73,5.36 25.40,11.92 7.00,6.88 6.11,19.40 12.95,26.43 3.76,3.86 9.05,5.67 14.33,7.49 0.05,-2.30 -8.41,-11.04 -8.71,-13.27 -3.61,-27.15 -6.77,-35.10 -33.07,-37.74 -1.80,0.18 -14.93,-8.13 -16.85,-8.19 z"/><path style="fill:#ea6edf" d="m 104.35,16.05 c 1.33,4.90 2.52,9.89 5.94,13.36 6.57,6.66 18.73,5.36 25.40,11.92 7.00,6.88 6.11,19.40 12.95,26.43 3.76,3.86 9.05,5.67 14.33,7.49 C 162.31,43.03 136.49,17.01 104.35,16.05 Z"/><path style="opacity:.2;fill:#fff" d="m 29,16 v 1 h 50 23.50 c 33.25,0 60.22,26.82 60.49,60 C 162.99,76.83 163,76.67 163,76.50 163,43.09 135.91,16 102.50,16 H 79 Z"/></svg>