<?xml version='1.0' encoding='utf-8'?>
<svg xmlns="http://www.w3.org/2000/svg" width="192" height="192" version="1" id="svg12">
  <defs>
    <filter style="color-interpolation-filters:sRGB" id="filter875" x="-0.048000001" width="1.096" y="-0.048000001" height="1.096">
      <feGaussianBlur stdDeviation="3.2"/>
    </filter>
    <filter style="color-interpolation-filters:sRGB" id="filter891" x="-0.041599998" width="1.0832" y="-0.056727271" height="1.1134545">
      <feGaussianBlur stdDeviation="2.08"/>
    </filter>
  </defs>
  <rect ry="80" rx="80" y="20" x="16" height="160" width="160" style="filter:url(#filter875);opacity:0.2;fill:#000000"/>
  <rect style="fill:#5db43e" width="160" height="160" x="16" y="16" rx="80" ry="80"/>
  <path style="filter:url(#filter891);opacity:0.2" d="m 60,58 14,16 6,-4 -8,-8 8,-4 z m 52,0 8,4 -8,8 6,4 14,-16 z M 96,66 C 87.8152,66.0256 77.9596,68.38452 78,84 L 96,74 114,84 C 114.04,68.384 104.184,66.024 96,66 Z m -48,4 6,20 2,-8 12,2 4,-6 z m 96,0 -24,8 4,6 12,-2 2,8 z m -48,10 -10,6 2,8 4,-8 h 8 l 4,8 2,-8 z m -32,10 -28,8 16,8 v -6 l 10,-2 z m 16,0 -12,4 c 0.07868,10.2696 5.8348,20.4348 11.6248,25.1564 4.056,3.228 7.884,5.776 10.376,6.844 2.86124,1.07132 1.38172,-3.00444 2,-4 h 8 c 0.61828,0.99556 -0.86124,5.0712 2,4 2.4934,-1.06724 6.3208,-3.61428 10.3752,-6.8436 5.788,-4.72 11.544,-14.888 11.624,-25.156 l -12,-4 -4,12 h -8 l -4,-12 -4,12 h -8 l -4,-12 z m 48,0 2,8 10,2 v 6 l 16,-8 z m -64,16 -16,8 28,32 z m 64,0 -12,40 28,-32 z"/>
  <path style="fill:#ffffff" d="m 60,56 14,16 6,-4 -8,-8 8,-4 z m 52,0 8,4 -8,8 6,4 14,-16 z M 96,64 C 87.816,64.024 77.96,66.384 78,82 L 96,72 114,82 C 114.04,66.384 104.184,64.024 96,64 Z m -48,4 6,20 2,-8 12,2 4,-6 z m 96,0 -24,8 4,6 12,-2 2,8 z m -48,10 -10,6 2,8 4,-8 h 8 l 4,8 2,-8 z m -32,10 -28,8 16,8 v -6 l 10,-2 z m 16,0 -12,4 c 0.08,10.268 5.836,20.436 11.624,25.156 4.056,3.228 7.884,5.776 10.376,6.844 2.86,1.072 1.38,-3.004 2,-4 h 8 c 0.62,0.996 -0.86,5.072 2,4 2.492,-1.068 6.32,-3.616 10.376,-6.844 C 118.164,112.436 123.92,102.268 124,92 l -12,-4 -4,12 h -8 l -4,-12 -4,12 h -8 z m 48,0 2,8 10,2 v 6 l 16,-8 z m -64,16 -16,8 28,32 z m 64,0 -12,40 28,-32 z"/>
  <path style="opacity:0.2;fill:#ffffff" d="M 96 16 C 51.68 16 16 51.68 16 96 C 16 96.115411 16.006233 96.228869 16.007812 96.34375 C 16.358834 52.329079 51.899508 17 96 17 C 140.10049 17 175.64117 52.329079 175.99219 96.34375 C 175.99377 96.228869 176 96.115411 176 96 C 176 51.68 140.32 16 96 16 z "/>
</svg>
