<svg xmlns="http://www.w3.org/2000/svg" id="svg12" width="192" height="192" version="1"><defs><filter style="color-interpolation-filters:sRGB" id="filter902" width="1.1" height="1.1" x=".05" y=".05"><feGaussianBlur stdDeviation="3.2"/></filter><filter style="color-interpolation-filters:sRGB" id="filter933" width="1.1" height="1.1" x=".05" y=".05"><feGaussianBlur stdDeviation="2.4"/></filter></defs><rect style="filter:url(#filter902);opacity:.2" width="160" height="160" x="16" y="20" rx="48" ry="48"/><path style="fill:#e53fa9" d="M 72.39,22.29 128,16 c 26.59,0 48,21.41 48,48 v 64 c 0,26.59 -21.41,48 -48,48 L 64.35,170.41 C 37.86,168.08 21.75,151.79 21.59,125.20 L 21.24,64.35 C 21.09,37.76 45.97,25.28 72.39,22.29 Z"/><path style="fill:#7e53cb" d="M 64,16 C 37.41,16 16,37.41 16,64 V 96 H 26 C 75.09,95.96 118.21,63.39 131.68,16.19 130.46,16.10 129.24,16 128,16 Z"/><path style="fill:#f97b49" d="M 26,96 H 16 v 32 c 0,26.59 21.41,48 48,48 h 64 c 1.26,0 2.50,0.09 3.73,0.19 C 118.26,128.59 75.11,96.02 26,96 Z"/><path style="opacity:.2;fill:#fff" d="M 64 16 C 37.41 16 16 37.41 16 64 L 16 65 C 16 38.41 37.41 17 64 17 L 128 17 C 154.59 17 176 38.41 176 65 L 176 64 C 176 37.41 154.59 16 128 16 L 64 16 z"/><path style="filter:url(#filter933);opacity:.2;fill:#000;color:#000;font-stretch:normal;font-variant-ligatures:normal;font-variant-position:normal;font-variant-caps:normal;font-variant-numeric:normal;font-variant-alternates:normal;font-feature-settings:normal;text-indent:0;text-align:start;text-decoration-line:none;text-decoration-style:solid;text-decoration-color:#000;text-transform:none;writing-mode:lr-tb;direction:ltr;text-orientation:mixed;dominant-baseline:auto;baseline-shift:baseline;white-space:normal;shape-padding:0;clip-rule:nonzero;display:inline;overflow:visible;visibility:visible;isolation:auto;mix-blend-mode:normal;color-interpolation:sRGB;color-interpolation-filters:linearRGB;solid-color:#000;solid-opacity:1;vector-effect:none;fill-rule:nonzero;color-rendering:auto;image-rendering:auto;shape-rendering:auto;text-rendering:auto;enable-background:accumulate" d="M 70,40 C 51.27,40 36,55.27 36,74 v 52 c 0,18.73 15.27,34 34,34 h 52 c 18.73,0 34,-15.27 34,-34 V 74 C 156,55.27 140.73,40 122,40 Z m 0,12 h 52 c 12.29,0 22,9.71 22,22 v 52 c 0,12.29 -9.71,22 -22,22 H 70 C 57.71,148 48,138.29 48,126 V 74 C 48,61.71 57.71,52 70,52 Z m 58,8 a 8,8 0 0 0 -8,8 8,8 0 0 0 8,8 8,8 0 0 0 8,-8 8,8 0 0 0 -8,-8 z m -32,8 c -17.60,0 -32,14.40 -32,32 0,17.60 14.40,32 32,32 17.60,0 32,-14.40 32,-32 0,-17.60 -14.40,-32 -32,-32 z m 0,12 c 11.12,0 20,8.88 20,20 0,11.12 -8.88,20 -20,20 -11.12,0 -20,-8.88 -20,-20 0,-11.12 8.88,-20 20,-20 z"/><rect style="fill:none;stroke:#fff;stroke-width:12;stroke-linecap:round;stroke-linejoin:round" width="108" height="108" x="42" y="42" rx="28" ry="28"/><circle style="fill:none;stroke:#fff;stroke-width:12;stroke-linecap:round;stroke-linejoin:round" cx="96" cy="96" r="26"/><circle style="fill:#fff" cx="128" cy="64" r="8"/></svg>