<?xml version='1.0' encoding='utf-8'?>
<svg xmlns="http://www.w3.org/2000/svg" width="192" height="192" version="1" id="svg14">
  <defs>
    <filter style="color-interpolation-filters:sRGB" id="filter850" x="0.05" width="1.10" y="0.05" height="1.10">
      <feGaussianBlur stdDeviation="3.20"/>
    </filter>
    <filter style="color-interpolation-filters:sRGB" id="filter1740" x="0.10" y="0.11" width="1.21" height="1.22">
      <feGaussianBlur stdDeviation="4.50"/>
    </filter>
  </defs>
  <circle style="filter:url(#filter850);opacity:0.20;fill:#000000" cx="96" cy="100" r="80"/>
  <circle r="80" cy="96" cx="96" style="fill:#0098e3"/>
  <path style="opacity:0.10;fill:#ffffff" d="M 96 16 A 80 80 0 0 0 16 96 A 80 80 0 0 0 16.02 96.47 A 80 80 0 0 1 96 17 A 80 80 0 0 1 175.97 96.51 A 80 80 0 0 0 176 96 A 80 80 0 0 0 96 16 z "/>
  <path style="filter:url(#filter1740);opacity:0.20;fill:#000000" d="m 108.31,50.00 c -5.85,0.00 -12.02,0.81 -18.27,2.50 -5.98,1.61 -13.21,4.37 -13.21,5.03 0,0.24 4.84,0.61 10.75,0.82 41.73,1.49 52.54,13.54 44.86,49.96 -3.98,18.84 -9.66,26.43 -23.21,31.03 -2.44,0.83 -4.85,1.09 -9.72,1.05 -8.37,0.07 -14.16,-1.73 -25.33,-7.28 -20.85,-10.37 -24.61,-17.81 -17.67,-34.97 1.33,-3.28 -5.50,1.62 -8.48,6.09 -2.91,4.36 -4.44,9.81 -3.95,14.02 0.61,5.20 2.93,9.29 8.24,14.57 6.61,6.56 13.93,10.29 24.28,12.35 6.16,1.23 17.78,1.12 25.72,0.24 22.68,-3.88 34.58,-14.46 41.94,-37.26 6.33,-19.61 4.57,-35.65 -5.06,-46.21 -6.79,-7.44 -18.04,-11.42 -30.89,-11.44 z m 0.40,17.00 c 0.65,0.02 -1.54,0.25 -2.68,0.80 -5.07,2.47 -4.87,1.91 -9.67,26.35 -2.40,12.20 -4.36,22.78 -4.36,23.52 0.00,1.89 2.08,1.75 5.36,0.34 1.45,0.93 2.98,-2.11 3.40,-2.62 0.58,0.71 6.21,-28.50 9.15,-45.21 0.29,-1.63 0.11,-2.46 -1.19,-2.49 z"/>
  <path style="fill:#ffffff" d="M 108.31 48 C 102.47 48.00 96.29 48.81 90.04 50.50 C 84.07 52.11 76.84 54.86 76.84 55.53 C 76.84 55.77 81.67 56.13 87.58 56.35 C 129.31 57.84 140.13 69.88 132.44 106.30 C 128.46 125.14 122.78 132.73 109.23 137.33 C 106.79 138.15 104.38 138.41 99.51 138.38 C 91.14 138.31 85.35 136.64 74.19 131.09 C 53.33 120.72 49.57 113.28 56.52 96.12 C 57.85 92.84 51.02 97.74 48.04 102.21 C 45.13 106.57 43.60 112.02 44.09 116.23 C 44.70 121.43 47.02 125.52 52.34 130.80 C 58.95 137.36 66.27 141.09 76.62 143.15 C 82.78 144.37 94.39 144.26 102.34 142.90 C 125.01 139.02 136.91 128.45 144.27 105.64 C 150.60 86.03 148.84 70.00 139.21 59.44 C 132.42 52.00 121.17 48.01 108.31 48 z M 108.72 65.00 C 108.07 64.98 107.17 65.25 106.03 65.80 C 100.96 68.27 101.16 67.72 96.36 92.16 C 93.96 104.35 92.00 114.94 92 115.67 C 92.00 117.56 94.08 117.43 97.36 115.33 C 98.81 114.40 100.34 113.22 100.76 112.71 C 101.35 111.99 106.97 84.20 109.91 67.50 C 110.20 65.87 109.80 65.04 108.72 65.00 z "/>
</svg>
