<?xml version='1.0' encoding='utf-8'?>
<svg xmlns="http://www.w3.org/2000/svg" width="192" height="192" version="1" id="svg22">
  <defs>
    <filter style="color-interpolation-filters:sRGB" id="filter862" x="0.05" width="1.10" y="0.05" height="1.10">
      <feGaussianBlur stdDeviation="3.20"/>
    </filter>
    <filter style="color-interpolation-filters:sRGB" id="filter893" x="0.05" width="1.10" y="0.05" height="1.09">
      <feGaussianBlur stdDeviation="2.01"/>
    </filter>
    <filter style="color-interpolation-filters:sRGB" id="filter909" x="0.05" width="1.10" y="0.05" height="1.10">
      <feGaussianBlur stdDeviation="0.32"/>
    </filter>
    <filter style="color-interpolation-filters:sRGB" id="filter925" x="0.05" width="1.11" y="0.04" height="1.09">
      <feGaussianBlur stdDeviation="0.88"/>
    </filter>
  </defs>
  <rect style="filter:url(#filter862);opacity:0.20;fill:#000000" width="160" height="160" x="-180" y="-176" rx="80" ry="80" transform="matrix(0,-1,-1,0,0,0)"/>
  <rect transform="matrix(0,-1,-1,0,0,0)" ry="80" rx="80" y="-176" x="-176" height="160" width="160" style="fill:#3f3f3f"/>
  <path d="M 96,48 A 52,52 0 0 0 51.38,73.41 l 10.28,6.16 A 40,40 0 0 1 96,60 40,40 0 0 1 136,100 40,40 0 0 1 96,140 40,40 0 0 1 61.66,120.42 l -10.28,6.16 A 52,52 0 0 0 96,152 52,52 0 0 0 148,100 52,52 0 0 0 96,48 Z m 0,24 A 28,28 0 0 0 71.94,85.75 l 10.28,6.16 A 16,16 0 0 1 96,84 16,16 0 0 1 112,100 16,16 0 0 1 96,116 16,16 0 0 1 82.22,108.09 L 71.94,114.25 A 28,28 0 0 0 96,128 28,28 0 0 0 124,100 28,28 0 0 0 96,72 Z" style="filter:url(#filter893);opacity:0.20"/>
  <path d="M 96,44 A 52,52 0 0 0 51.38,69.41 l 10.28,6.16 A 40,40 0 0 1 96,56 40,40 0 0 1 136,96 40,40 0 0 1 96,136 40,40 0 0 1 61.66,116.42 l -10.28,6.16 A 52,52 0 0 0 96,148 52,52 0 0 0 148,96 52,52 0 0 0 96,44 Z m 0,24 A 28,28 0 0 0 71.94,81.75 l 10.28,6.16 A 16,16 0 0 1 96,80 16,16 0 0 1 112,96 16,16 0 0 1 96,112 16,16 0 0 1 82.22,104.09 L 71.94,110.25 A 28,28 0 0 0 96,124 28,28 0 0 0 124,96 28,28 0 0 0 96,68 Z" style="fill:#f3ac00"/>
  <path style="opacity:0.10;fill:#ffffff" d="M 96.00,16 C 51.68,16.00 16,51.68 16,96 c 0,0.12 0.01,0.23 0.01,0.34 C 16.36,52.33 51.90,17.00 96.00,17 H 96 c 44.11,0.00 79.65,35.34 79.99,79.36 0.00,0.12 0.01,0.24 0.01,0.36 0,-44.32 -35.68,-80.00 -80.00,-80 z"/>
  <circle r="8" cy="98" cx="96" style="filter:url(#filter909);opacity:0.10"/>
  <circle r="8" cy="96" cx="96" style="fill:#ffffff"/>
  <path d="M 80,100 40,124 V 76 l 20,12.00 z" style="filter:url(#filter925);opacity:0.10"/>
  <path d="M 80.00,96.00 60,108 40,120 V 96.00 72 l 20,12.00 z" style="fill:#ffffff"/>
</svg>
