<?xml version='1.0' encoding='utf-8'?>
<svg xmlns="http://www.w3.org/2000/svg" width="192" height="192" version="1" id="svg12">
  <defs>
    <filter style="color-interpolation-filters:sRGB" id="filter864" x="0.04" width="1.09" y="0.05" height="1.11">
      <feGaussianBlur stdDeviation="3.20"/>
    </filter>
    <filter style="color-interpolation-filters:sRGB" id="filter896" x="0.04" width="1.08" y="0.06" height="1.11">
      <feGaussianBlur stdDeviation="2.60"/>
    </filter>
  </defs>
  <path style="filter:url(#filter864);opacity:0.20" d="m 95.52,28.00 a 16.00,16.01 0 0 0 0.03,0.01 c -3.84,0.09 -7.60,1.19 -10.88,3.18 l -66.00,40.02 C 12.04,75.18 8.00,82.35 8,90.02 v 28.01 c 0.00,8.40 4.85,16.14 12.41,19.80 l 66.00,32.01 c 3.03,1.47 6.32,2.15 9.59,2.15 3.28,0.00 6.56,0.68 9.59,-2.15 l 66,-32.01 C 179.15,134.18 184.00,126.43 184,118.03 V 90.02 c 0.00,-7.67 -4.04,-14.84 -10.60,-18.82 l -66,-40.02 c -3.29,-1.99 -7.04,-3.09 -10.88,-3.18 a 16.00,16.01 0 0 0 0.03,0.01 c 0.16,0.00 0.32,0.02 0.48,0.02 0.16,0.00 0.32,0.03 0.48,0.02 z"/>
  <path style="fill:#e4e4e4" d="m 95.52,24.00 a 16.00,16.01 0 0 0 0.03,0.01 c -3.84,0.09 -7.60,1.19 -10.88,3.18 L 18.60,67.20 C 12.04,71.18 8.00,78.35 8,86.02 v 28.01 c 0.00,8.40 4.85,16.14 12.41,19.80 l 66.00,32.01 c 3.03,1.47 6.32,2.15 9.59,2.15 3.28,0.00 6.56,0.68 9.59,-2.15 l 66,-32.01 C 179.15,130.18 184.00,122.43 184,114.03 V 86.02 c 0.00,-7.67 -4.04,-14.84 -10.60,-18.82 l -66,-40.02 c -3.29,-1.99 -7.04,-3.09 -10.88,-3.18 a 16.00,16.01 0 0 0 0.03,0.01 c 0.16,0.00 0.32,0.02 0.48,0.02 0.16,0.00 0.32,0.03 0.48,0.02 z"/>
  <path style="filter:url(#filter896);opacity:0.10" d="m 95.86,44.00 c -1.05,0.02 -2.07,0.32 -2.97,0.87 l -66.00,40 C 25.10,85.95 24.00,87.90 24,90.00 V 118 c 0.00,2.30 1.31,4.40 3.38,5.40 l 66,32 c 1.90,0.92 4.13,0.78 5.90,0.38 l 56.62,-32.95 4.25,6.29 L 166.08,116.18 172,104.00 l -13.51,0.96 -13.51,0.95 4.20,6.21 L 95.56,143.12 36,114.24 V 93.38 L 96.23,56.88 146.04,82.58 95.51,115.17 50.50,94.55 l -5,10.91 48,22 c 1.86,0.85 4.03,0.70 5.75,0.41 l 62,-40.00 c 3.87,-2.50 3.59,-8.25 0.50,-10.37 l -62,-32 c 0.89,0.46 -1.89,0.69 -2.89,0.67 z"/>
  <path style="fill:#2d4346" d="m 95.86,40.00 c -1.05,0.02 -2.07,0.32 -2.97,0.87 l -66.00,40 C 25.10,81.95 24.00,83.90 24,86.00 V 114 c 0.00,2.30 1.31,4.40 3.38,5.40 l 66,32 c 1.90,0.92 4.13,0.78 5.90,0.38 l 56.62,-32.95 4.25,6.29 L 166.08,112.18 172,100.00 l -13.51,0.96 -13.51,0.95 4.20,6.21 L 95.56,139.12 36,110.24 V 89.38 L 96.23,52.88 146.04,78.58 95.51,111.17 50.50,90.55 l -5,10.91 48,22 c 1.86,0.85 4.03,0.70 5.75,0.41 l 62,-40.00 c 3.87,-2.50 3.59,-8.25 0.50,-10.37 l -62,-32 c 0.89,0.46 -1.89,0.69 -2.89,0.67 z"/>
  <path style="opacity:0.20;fill:#ffffff" d="M 95.52 24 A 16.00 16.01 0 0 0 95.48 24.01 C 91.64 24.10 87.89 25.19 84.60 27.19 L 18.60 67.20 C 12.04 71.18 8.00 78.35 8 86.02 L 8 87.02 C 8.00 79.35 12.04 72.18 18.60 68.20 L 84.60 28.19 C 87.89 26.19 91.64 25.10 95.48 25.01 A 16.00 16.01 0 0 1 95.52 25 C 95.68 25.00 95.84 25.02 96 25.02 C 96.16 25.02 96.32 25.00 96.48 25 A 16.00 16.01 0 0 1 96.52 25.01 C 100.36 25.10 104.11 26.19 107.40 28.19 L 173.40 68.20 C 179.96 72.18 184.00 79.35 184 87.02 L 184 86.02 C 184.00 78.35 179.96 71.18 173.40 67.20 L 107.40 27.19 C 104.11 25.19 100.36 24.10 96.52 24.01 A 16.00 16.01 0 0 0 96.48 24 C 96.32 24.00 96.16 24.02 96 24.02 C 95.84 24.02 95.68 24.00 95.52 24 z "/>
</svg>
