<?xml version='1.0' encoding='utf-8'?>
<svg xmlns="http://www.w3.org/2000/svg" width="192" height="192" version="1" id="svg12">
  <defs>
    <filter style="color-interpolation-filters:sRGB" id="filter835" x="0.05" width="1.10" y="0.04" height="1.09">
      <feGaussianBlur stdDeviation="1.92"/>
    </filter>
    <filter style="color-interpolation-filters:sRGB" id="filter2135" x="0.05" y="0.05" width="1.10" height="1.10">
      <feGaussianBlur stdDeviation="1.76"/>
    </filter>
    <filter style="color-interpolation-filters:sRGB" id="filter2139" x="0.05" y="0.05" width="1.10" height="1.10">
      <feGaussianBlur stdDeviation="3.20"/>
    </filter>
  </defs>
  <circle style="filter:url(#filter2139);opacity:0.20;fill:#000000;stop-color:#000000" cx="96" cy="100" r="80"/>
  <circle style="fill:#009688;stop-color:#000000" cx="96" cy="96" r="80"/>
  <path d="M 82.33,46 76.57,74 H 52 v 10 h 22.52 l -5.74,28 H 52 v 10 h 14.73 l -5.75,28 h 10.21 l 5.75,-28 h 28.78 l -5.75,28 h 10.21 l 5.75,-28 H 140 V 112 H 117.99 L 123.72,84 H 140 V 74 h -14.23 l 5.75,-28 h -10.21 l -5.75,28 H 86.78 l 5.75,-28 z m 2.40,38 h 28.78 l -5.74,28 H 78.99 Z" style="filter:url(#filter835);opacity:0.20;fill:#000000;color:#000000;font-stretch:normal;font-variant-ligatures:normal;font-variant-position:normal;font-variant-caps:normal;font-variant-numeric:normal;font-variant-alternates:normal;font-feature-settings:normal;text-indent:0;text-align:start;text-decoration-line:none;text-decoration-style:solid;text-decoration-color:#000000;text-transform:none;writing-mode:lr-tb;direction:ltr;text-orientation:mixed;dominant-baseline:auto;baseline-shift:baseline;white-space:normal;shape-padding:0;clip-rule:nonzero;display:inline;overflow:visible;visibility:visible;isolation:auto;mix-blend-mode:normal;color-interpolation:sRGB;color-interpolation-filters:linearRGB;solid-color:#000000;solid-opacity:1;vector-effect:none;fill-rule:nonzero;color-rendering:auto;image-rendering:auto;shape-rendering:auto;text-rendering:auto;enable-background:accumulate"/>
  <path style="fill:#ffffff;color:#000000;font-stretch:normal;font-variant-ligatures:normal;font-variant-position:normal;font-variant-caps:normal;font-variant-numeric:normal;font-variant-alternates:normal;font-feature-settings:normal;text-indent:0;text-align:start;text-decoration-line:none;text-decoration-style:solid;text-decoration-color:#000000;text-transform:none;writing-mode:lr-tb;direction:ltr;text-orientation:mixed;dominant-baseline:auto;baseline-shift:baseline;white-space:normal;shape-padding:0;clip-rule:nonzero;display:inline;overflow:visible;visibility:visible;isolation:auto;mix-blend-mode:normal;color-interpolation:sRGB;color-interpolation-filters:linearRGB;solid-color:#000000;solid-opacity:1;vector-effect:none;fill-rule:nonzero;color-rendering:auto;image-rendering:auto;shape-rendering:auto;text-rendering:auto;enable-background:accumulate" d="M 82.33,44 76.57,72 H 52 v 10 h 22.52 l -5.74,28 H 52 v 10 h 14.73 l -5.75,28 h 10.21 l 5.75,-28 h 28.78 l -5.75,28 h 10.21 l 5.75,-28 H 140 V 110 H 117.99 L 123.72,82 H 140 V 72 h -14.23 l 5.75,-28 h -10.21 l -5.75,28 H 86.78 l 5.75,-28 z m 2.40,38 h 28.78 l -5.74,28 H 78.99 Z"/>
  <path style="opacity:0.20;fill:#ffffff;stop-color:#000000" d="M 96,16 A 80,80 0 0 0 16,96 80,80 0 0 0 16.04,96.50 80,80 0 0 1 96,17 80,80 0 0 1 175.98,96.25 80,80 0 0 0 176,96 80,80 0 0 0 96,16 Z"/>
  <circle r="44" cy="142" cx="144" style="filter:url(#filter2135);opacity:0.20;fill:#000000"/>
  <circle r="44" cy="140" cx="144" style="fill:#f44336"/>
  <path style="fill:none;stroke:#f8f8f8;stroke-width:12;stroke-linecap:round;stroke-linejoin:round" d="m 125,140.00 16,16 26,-33"/>
</svg>
