<svg xmlns="http://www.w3.org/2000/svg" id="svg12" width="192" height="192" version="1"><defs><filter style="color-interpolation-filters:sRGB" id="filter955" width="1.1" height="1.1" x=".05" y=".05"><feGaussianBlur stdDeviation="3.2"/></filter><filter style="color-interpolation-filters:sRGB" id="filter4637" width="1.2" height="1.24" x=".1" y=".12"><feGaussianBlur stdDeviation="4.17"/></filter></defs><rect style="filter:url(#filter955);opacity:.2;fill:#000" width="160" height="160" x="16" y="20" rx="30" ry="30"/><rect style="fill:#38983c" width="160" height="160" x="16" y="16" rx="30" ry="30"/><path style="opacity:.1;fill:#fff" d="M 46 16 C 29.38 16 16 29.38 16 46 L 16 47 C 16 30.38 29.38 17 46 17 L 146 17 C 162.62 17 176 30.38 176 47 L 176 46 C 176 29.38 162.62 16 146 16 L 46 16 z"/><path style="filter:url(#filter4637);opacity:.2;fill:#000" d="M 96.49,56.01 C 81.67,55.77 65.00,60.79 53.73,67.25 c -4.85,2.83 -8.57,5.47 -8.39,5.95 0.25,0.69 8.96,11.97 9.16,11.88 0.11,0.05 1.75,-1.13 3.63,-2.39 8.36,-5.59 18.72,-9.88 28.83,-11.21 4.20,0.55 13.06,0.63 17.03,0.14 11.00,1.35 20.83,5.37 30.08,11.48 1.93,1.28 3.55,2.32 3.59,2.32 0.15,0 8.86,-11.55 8.99,-11.92 0.31,0.86 -9.48,-6.96 -15.53,-9.69 C 118.91,58.41 108.52,56.11 96.49,56.01 Z m -1.91,29.92 c -8.40,0.08 -17.24,2.67 -23.78,6.11 -2.89,1.54 -7.52,4.51 -7.52,4.82 0,0.22 9.35,12.60 9.52,12.60 0.07,0 1.08,0.61 2.24,-1.36 6.61,-4.26 12.98,-6.12 20.97,-6.12 8.01,0 14.36,1.86 21.01,6.14 2.07,1.33 2.17,1.37 2.68,0.82 0.77,0.82 9.04,-11.86 9.04,-12.06 0,0.32 -4.58,-3.27 -7.52,-4.84 -8.81,-4.26 -16.17,-6.05 -24.96,-6.09 0.56,0.02 -1.11,0.02 -1.67,0.02 z m 1.43,30.08 c -4.82,0.05 -10.05,1.27 -13.97,4.21 l 0.76,0.60 7.27,9.59 c 4.00,5.28 7.36,9.60 7.47,9.60 0.11,0 3.47,-4.32 7.46,-9.60 l 7.25,-9.60 0.76,0.60 c -4.21,-2.98 -9.71,-4.20 -13.97,-4.21 z"/><path style="fill:#fff" d="M 96.49 54.01 C 81.67 53.77 65.00 58.79 53.73 65.25 C 48.88 68.08 45.16 70.72 45.34 71.20 C 45.59 71.88 54.30 83.17 54.50 83.08 C 54.61 83.03 56.25 81.95 58.13 80.69 C 66.49 75.10 76.85 70.82 86.97 69.48 C 91.16 68.93 100.03 68.85 104.00 69.34 C 115.00 70.69 124.83 74.71 134.08 80.82 C 136.01 82.10 137.62 83.14 137.66 83.14 C 137.81 83.14 146.52 71.59 146.66 71.22 C 146.96 70.36 137.17 64.26 131.13 61.53 C 118.91 56.41 108.52 54.11 96.49 54.01 z M 94.57 83.93 C 86.17 84.01 77.34 86.60 70.80 90.03 C 67.91 91.57 63.28 94.54 63.28 94.85 C 63.28 95.07 72.63 107.45 72.79 107.45 C 72.86 107.45 73.87 106.84 75.03 106.09 C 81.64 101.83 88.01 99.97 96.01 99.97 C 104.02 99.97 110.37 101.83 117.01 106.11 C 119.08 107.45 119.18 107.48 119.70 106.93 C 120.47 106.11 128.73 95.07 128.73 94.87 C 128.73 94.54 124.16 91.60 121.21 90.03 C 112.40 85.77 105.04 83.98 96.25 83.94 C 95.69 83.92 95.13 83.92 94.57 83.93 z M 96.00 114.00 C 91.19 113.95 85.95 115.27 82.03 118.21 L 81.27 118.81 L 88.54 128.40 C 92.54 133.68 95.90 138 96.01 138 C 96.13 138 99.48 133.68 103.47 128.40 L 110.73 118.81 L 109.97 118.21 C 105.76 115.23 100.26 114.01 96.00 114.00 z"/></svg>