<?xml version='1.0' encoding='utf-8'?>
<svg xmlns="http://www.w3.org/2000/svg" width="192" height="192" version="1" id="svg12">
  <defs>
    <filter style="color-interpolation-filters:sRGB" id="filter860" x="0.05" width="1.10" y="0.05" height="1.10">
      <feGaussianBlur stdDeviation="3.20"/>
    </filter>
    <filter style="color-interpolation-filters:sRGB" id="filter842" x="0.04" width="1.08" y="0.07" height="1.13">
      <feGaussianBlur stdDeviation="1.94"/>
    </filter>
  </defs>
  <rect style="filter:url(#filter860);opacity:0.20" width="160" height="160" x="16" y="20" rx="8" ry="8"/>
  <rect style="fill:#1e88e5" width="160" height="160" x="16" y="16" rx="8" ry="8"/>
  <path style="opacity:0.20;fill:#ffffff" d="m 24,16 c -4.43,0 -8,3.57 -8,8 v 1 c 0,-4.43 3.57,-8 8,-8 h 144 c 4.43,0 8,3.57 8,8 v -1 c 0,-4.43 -3.57,-8 -8,-8 z"/>
  <path d="m 34,64 v 50 H 82 V 64 L 58,81.50 Z m 58,22 v 28 h 14 V 86 Z m 22,6 12,21 -12,21 h 44 l -12,-21 12,-21 z" style="filter:url(#filter842);opacity:0.20;fill:#000000"/>
  <path style="fill:#ffffff" d="M 34 62 L 34 112 L 82 112 L 82 62 L 58 79.50 L 34 62 z M 92 84 L 92 112 L 106 112 L 106 84 L 92 84 z M 114 90 L 126 111 L 114 132 L 158 132 L 146 111 L 158 90 L 114 90 z "/>
</svg>
