<?xml version='1.0' encoding='utf-8'?>
<svg xmlns="http://www.w3.org/2000/svg" width="192" height="192" version="1" id="svg22">
  <defs>
    <filter style="color-interpolation-filters:sRGB" id="filter869" x="-0.048000001" width="1.096" y="-0.048000001" height="1.096">
      <feGaussianBlur stdDeviation="3.2"/>
    </filter>
    <filter style="color-interpolation-filters:sRGB" id="filter888" x="-0.047999998" width="1.096" y="-0.047999998" height="1.096">
      <feGaussianBlur stdDeviation="2.08"/>
    </filter>
  </defs>
  <path style="filter:url(#filter869);opacity:0.2;fill:#000000" d="m 24,20 c -4.432,0 -8,3.568 -8,8 v 72 72 c 0,4.432 3.568,8 8,8 h 72 72 c 4.432,0 8,-3.568 8,-8 V 100 28 c 0,-4.432 -3.568,-8 -8,-8 H 96 Z"/>
  <path d="M 96,16 H 24 c -4.432,0 -8,3.568 -8,8 v 72 h 80 z" style="fill:#43c95a"/>
  <path d="m 96,16 h 72 c 4.432,0 8,3.568 8,8 V 96 H 96 Z" style="fill:#e4214c"/>
  <path d="M 96,176 H 24 c -4.432,0 -8,-3.568 -8,-8 V 96 h 80 z" style="fill:#2d8fc5"/>
  <path d="m 96,176 h 72 c 4.432,0 8,-3.568 8,-8 V 96 H 96 Z" style="fill:#ffd13e"/>
  <path style="opacity:0.2;fill:#ffffff" d="M 24 16 C 19.568 16 16 19.568 16 24 L 16 25 C 16 20.568 19.568 17 24 17 L 168 17 C 172.432 17 176 20.568 176 25 L 176 24 C 176 19.568 172.432 16 168 16 L 24 16 z "/>
  <rect ry="12" rx="12" y="48" x="44" height="104" width="104" style="filter:url(#filter888);opacity:0.2"/>
  <rect ry="12" rx="12" y="44" x="44" height="104" width="104" style="fill:#ffffff"/>
  <path d="m 75.999999,68 24,13.999999 L 124,95.999998 99.999999,110 76,124 l -10e-7,-28.000002 z" style="fill:#714480"/>
</svg>
