<?xml version='1.0' encoding='utf-8'?>
<svg xmlns="http://www.w3.org/2000/svg" width="192" height="192" version="1" id="svg22">
  <defs>
    <filter style="color-interpolation-filters:sRGB" id="filter875" x="0.05" width="1.10" y="0.05" height="1.10">
      <feGaussianBlur stdDeviation="3.20"/>
    </filter>
    <filter style="color-interpolation-filters:sRGB" id="filter897" x="0.04" width="1.08" y="0.06" height="1.11">
      <feGaussianBlur stdDeviation="1.84"/>
    </filter>
  </defs>
  <rect ry="8" rx="8" y="20" x="16" height="160" width="160" style="filter:url(#filter875);opacity:0.20;fill:#000000"/>
  <rect style="fill:#3b478c" width="160" height="160" x="16" y="16" rx="8" ry="8"/>
  <path style="opacity:0.10;fill:#ffffff" d="m 24,16 c -4.43,0 -8,3.57 -8,8 v 1 c 0,-4.43 3.57,-8 8,-8 h 144 c 4.43,0 8,3.57 8,8 v -1 c 0,-4.43 -3.57,-8 -8,-8 z"/>
  <path style="filter:url(#filter897);opacity:0.20" d="M 66.13,58.00 C 56.14,58.00 44,58.33 44,58.33 V 138 h 16 v -23.92 c 0,0 3.06,0.03 6.13,0.16 C 80.00,114.00 96,110.00 96,86.00 c 0,-24 -16.00,-28 -29.87,-28 z m -1.64,11.95 c 0.81,0.01 1.66,0.02 2.50,0.05 8.35,0.31 13.01,8.60 13.01,16 0,8.23 -5.59,15.92 -14.29,16.03 -2.61,0.03 -3.94,0.12 -5.70,0.06 L 60.00,70.00 c 0,0 2.06,0.07 4.50,0.05 z m 63.97,4.05 c -14.87,0 -24.46,8.64 -24.46,20.16 0.12,7.13 4.67,12.23 17.08,16.49 7.01,2.38 8.92,6.22 8.92,9.36 0,3.13 -4.80,6 -10.45,6 -5.53,0 -12.11,-5.88 -15.55,-8.00 v 0.00 c 0.00,4.55 0.00,11.45 0.00,16 4.55,2.50 12.00,3.79 17.95,3.97 17.33,0.55 26.05,-8.51 26.05,-19.90 0.12,-9.01 -4.92,-14.90 -16.35,-18.90 -7.37,-2.63 -11.65,-2.99 -11.65,-7.01 0,-3.13 4.52,-6.15 9.07,-6.15 5.16,0 12.22,2.50 14.93,4 v -12 c -3.69,-1.88 -8.53,-4 -15.54,-4 z"/>
  <g style="fill:#219fd1" transform="scale(4)">
    <path d="m 11,14.08 c 0,0 3.03,0.08 5.53,0.08 3.47,0 7.47,1 7.47,7 0,6 -4,7 -7.47,6.98 0.77,0.03 -1.53,0.04 -1.53,0.04 v 5.98 h -4 z m 4.00,10.91 c 0.44,0.04 0.77,0.02 1.43,0.01 2.17,0.03 3.57,-1.95 3.57,-4.01 0,-1.85 -1.16,-3.92 -3.25,-4 0.83,0.03 -1.75,0 -1.75,0 z"/>
    <g transform="matrix(0.17,0,0,0.17,-1.29,0.70)">
      <path d="m 162.15,175.18 c 5.11,3.13 14.88,11.80 23.09,11.80 8.40,0 15.53,-4.24 15.53,-8.85 0,-4.62 -2.83,-10.29 -13.24,-13.80 -18.44,-6.28 -25.56,-13.79 -25.38,-24.32 0,-16.99 14.24,-29.73 36.33,-29.73 10.41,0 17.61,3.13 23.08,5.90 v 17.70 c -4.02,-2.22 -14.50,-5.90 -22.17,-5.90 -6.76,0 -13.48,4.46 -13.48,9.08 0,5.93 6.36,6.46 17.31,10.34 16.98,5.91 24.10,14.58 24.28,27.88 0,16.80 -12.95,30.17 -38.70,29.36 -8.84,0.28 -19.90,-2.18 -26.66,-5.86 0.00,-6.71 0.00,-16.89 0.00,-23.60 z"/>
    </g>
  </g>
  <path style="opacity:0.20;fill:#ffffff" d="M 66.13,56 C 56.14,56 44,56.33 44,56.33 v 1.00 c 0,0 12.14,0.33 22.13,0.33 13.77,0 29.63,3.95 29.86,27.50 C 95.99,84.33 96,84.17 96,84 96,60 80.00,56 66.13,56 Z m 62.33,16 c -14.87,0 -24.46,8.64 -24.46,20.16 0.00,0.16 0.01,0.32 0.01,0.49 0.28,-11.26 9.79,-19.65 24.44,-19.65 7.01,0 11.86,2.12 15.54,4 V 76 c -3.69,-1.88 -8.53,-4 -15.54,-4 z M 79.98,84.48 C 79.76,92.53 74.23,99.93 65.70,100.03 63.09,100.06 61.76,100.15 60,99.97 v 1.00 c 1.76,0.18 3.09,0.09 5.70,0.06 8.70,0.10 14.29,-7.80 14.29,-16.03 0,0.17 0.01,0.34 0.02,0.52 z m 40.07,6.23 c 0.02,0.15 0.04,0.29 0.04,0.44 0,4.02 4.28,4.38 11.65,7.01 11.28,3.96 16.09,9.75 16.33,18.57 0.01,0.22 0.02,0.44 0.02,0.66 0.12,-9.01 -4.92,-14.90 -16.35,-18.90 -7.01,-2.50 -11.22,-2.96 -11.62,-6.46 z M 104.01,116.00 V 116 c 0.00,0.28 0.00,0.70 0,1.00 3.44,2.13 10.01,8.00 15.55,8.00 5.65,0 10.45,-2.87 10.45,-6 0,0.18 0.03,0.36 0.04,0.54 C 129.52,121.40 124.93,124 119.55,124 c -5.53,0 -12.11,-5.88 -15.55,-8.00 z"/>
</svg>
