<?xml version='1.0' encoding='utf-8'?>
<svg xmlns="http://www.w3.org/2000/svg" width="192" height="192" version="1" id="svg12">
  <defs>
    <filter style="color-interpolation-filters:sRGB" id="filter5548" x="0.05" y="0.04" width="1.11" height="1.09">
      <feGaussianBlur stdDeviation="2.86"/>
    </filter>
    <filter style="color-interpolation-filters:sRGB" id="filter5711" x="0.13" y="0.09" width="1.26" height="1.19">
      <feGaussianBlur stdDeviation="4.50"/>
    </filter>
  </defs>
  <rect style="filter:url(#filter5548);opacity:0.20;fill:#000000" width="126" height="160" x="33" y="20" rx="40"/>
  <rect style="fill:#0caa41" width="126" height="160" x="33" y="16" rx="40"/>
  <path style="filter:url(#filter5711);opacity:0.20;fill:#000000;color:#000000" d="M 71.81,40 C 62.13,40 54,47.97 54,57.69 V 126 H 70 V 57.69 C 70,56.67 70.62,56 71.81,56 H 111 h 9.19 17.72 C 137.03,47.07 129.30,40 120.19,40 Z M 122,70 v 68.31 C 122,139.33 121.38,140 120.19,140 H 83 71.81 54.09 c 0.88,8.93 8.61,16 17.72,16 H 120.19 C 129.87,156 138,148.03 138,138.31 V 70 Z"/>
  <path style="fill:#ffffff;color:#000000" d="M 71.81 38 C 62.13 38 54 45.97 54 55.69 L 54 124 L 70 124 L 70 55.69 C 70 54.67 70.62 54 71.81 54 L 111 54 L 120.19 54 L 137.91 54 C 137.03 45.07 129.30 38 120.19 38 L 71.81 38 z M 122 68 L 122 136.31 C 122 137.33 121.38 138 120.19 138 L 83 138 L 71.81 138 L 54.09 138 C 54.97 146.93 62.70 154 71.81 154 L 120.19 154 C 129.87 154 138 146.03 138 136.31 L 138 68 L 122 68 z "/>
  <path style="opacity:0.20;fill:#ffffff" d="M 73 16 C 50.84 16 33 33.84 33 56 L 33 57 C 33 34.84 50.84 17 73 17 L 119 17 C 141.16 17 159 34.84 159 57 L 159 56 C 159 33.84 141.16 16 119 16 L 73 16 z "/>
</svg>
