<?xml version='1.0' encoding='utf-8'?>
<svg xmlns="http://www.w3.org/2000/svg" width="192" height="192" version="1" id="svg14">
  <defs>
    <filter style="color-interpolation-filters:sRGB" id="filter850" x="0.05" width="1.10" y="0.05" height="1.10">
      <feGaussianBlur stdDeviation="3.20"/>
    </filter>
    <filter style="color-interpolation-filters:sRGB" id="filter3137" x="0.11" y="0.23" width="1.21" height="1.46">
      <feGaussianBlur stdDeviation="4.94"/>
    </filter>
  </defs>
  <circle style="filter:url(#filter850);opacity:0.20;fill:#000000" cx="96" cy="100" r="80"/>
  <circle r="80" cy="96" cx="96" style="fill:#3949ab"/>
  <path style="opacity:0.10;fill:#ffffff" d="M 96 16 A 80 80 0 0 0 16 96 A 80 80 0 0 0 16.02 96.47 A 80 80 0 0 1 96 17 A 80 80 0 0 1 175.97 96.51 A 80 80 0 0 0 176 96 A 80 80 0 0 0 96 16 z "/>
  <path style="filter:url(#filter3137);opacity:0.20;fill:#000000;fill-rule:evenodd" d="m 127,72 a 26,26 0 0 0 -21.27,11.14 l 4.09,2.83 A 21,21 0 0 1 127,77 a 21,21 0 0 1 21,21 21,21 0 0 1 -21,21 21,21 0 0 1 -17.18,-8.97 l -4.09,2.83 A 26,26 0 0 0 127,124 26,26 0 0 0 153,98 26,26 0 0 0 127,72 Z m 8,12.44 -21,7.69 v 5.36 l 7,-2.63 v 16.09 l 14,-5.16 z M 86,86 v 24 h 6.89 C 100.86,110 105,105.85 105,97.85 105,89.85 101.06,86 93.58,86 Z M 65,86.10 V 110 h 5 v -9 h 2.30 l 5.30,9 h 5.60 l -5,-8.20 -1.10,-1.72 c 2.91,0.87 4.88,-3.61 4.80,-6.68 0,-4.76 -3,-7.29 -8.50,-7.29 z M 48,86.30 40,110 h 4.80 l 1.50,-5 h 8.90 l 1.50,5 h 5.20 L 54,86.30 Z M 70,90 h 3.21 C 75.74,90 77,91.15 77,93.55 77,95.96 75.64,97 73.11,97 H 70 Z m 21,0 h 2.62 C 98.12,90 100,92.89 100,98.25 100,103.62 98.10,106 93.50,106 H 92.91 91 Z m -40.32,0.67 c 0.20,0.81 0.50,1.82 0.90,3.14 L 53.88,101 h -6.30 l 2.30,-7.29 a 26.30,26.63 0 0 0 0.80,-3.04 z"/>
  <path style="fill:#ffffff;fill-rule:evenodd" d="M 127 70 A 26 26 0 0 0 105.73 81.14 L 109.82 83.96 A 21 21 0 0 1 127 75 A 21 21 0 0 1 148 96 A 21 21 0 0 1 127 117 A 21 21 0 0 1 109.82 108.03 L 105.72 110.86 A 26 26 0 0 0 127 122 A 26 26 0 0 0 153 96 A 26 26 0 0 0 127 70 z M 135 82.44 L 114 90.13 L 114 95.49 L 121 92.86 L 121 108.95 L 135 103.79 L 135 82.44 z M 86 84 L 86 108 L 92.89 108 C 100.86 108 105 103.85 105 95.85 C 105 87.85 101.06 84 93.58 84 L 86 84 z M 65 84.10 L 65 108 L 70 108 L 70 99 L 72.30 99 L 77.60 108 L 83.20 108 L 78.20 99.80 L 77.10 98.08 C 80.01 97.21 81.98 94.46 81.90 91.39 C 81.90 86.63 78.90 84.10 73.40 84.10 L 65 84.10 z M 48 84.30 L 40 108 L 44.80 108 L 46.30 103 L 55.20 103 L 56.70 108 L 61.90 108 L 54 84.30 L 48 84.30 z M 70 88 L 73.21 88 C 75.74 88 77 89.15 77 91.55 C 77 93.96 75.64 95 73.11 95 L 70 95 L 70 88 z M 91 88 L 93.62 88 C 98.12 88 100 90.89 100 96.25 C 100 101.62 98.10 104 93.50 104 L 92.91 104 L 91 104 L 91 88 z M 50.68 88.67 C 50.88 89.48 51.18 90.49 51.58 91.81 L 53.88 99 L 47.58 99 L 49.88 91.71 A 26.30 26.63 0 0 0 50.68 88.67 z "/>
</svg>
