<?xml version='1.0' encoding='utf-8'?>
<svg xmlns="http://www.w3.org/2000/svg" width="192" height="192" version="1" id="svg14">
  <defs>
    <filter style="color-interpolation-filters:sRGB" id="filter850" x="-0.048000001" width="1.096" y="-0.048000001" height="1.096">
      <feGaussianBlur stdDeviation="3.2"/>
    </filter>
    <filter style="color-interpolation-filters:sRGB" id="filter2428" x="-0.070428264" y="-0.080206146" width="1.1408565" height="1.1604123">
      <feGaussianBlur stdDeviation="3.2276772"/>
    </filter>
    <filter style="color-interpolation-filters:sRGB" id="filter2432" x="-0.10800097" y="-0.10799903" width="1.2160019" height="1.2159981">
      <feGaussianBlur stdDeviation="3.0149727"/>
    </filter>
  </defs>
  <circle style="filter:url(#filter850);opacity:0.2;fill:#000000" cx="96" cy="100" r="80"/>
  <circle r="80" cy="96" cx="96" style="fill:#3f3f3f"/>
  <path style="filter:url(#filter2428);opacity:0.2;fill:#000000;color:#000000" d="m 96,42.999555 c -22.326785,0 -42.487858,13.547037 -50.923828,34.21875 -8.43597,20.671713 -3.510472,44.456885 12.441406,60.078115 a 8,8 0 0 0 11.314453,-0.11914 8,8 0 0 0 -0.11914,-11.3125 C 57.372882,114.75983 53.89359,97.958513 59.890625,83.263227 65.88766,68.567941 80.128142,58.999555 96,58.999555 c 15.87186,0 30.11234,9.568386 36.10937,24.263672 5.99704,14.695286 2.51775,31.496603 -8.82226,42.601553 a 8,8 0 0 0 -0.11914,11.3125 8,8 0 0 0 11.31445,0.11914 C 150.4343,121.67519 155.3598,97.890018 146.92383,77.218305 138.48786,56.546592 118.32678,42.999555 96,42.999555 Z"/>
  <path style="opacity:0.1;fill:#ffffff" d="M 96 16 A 80 80 0 0 0 16 96 A 80 80 0 0 0 16.019531 96.472656 A 80 80 0 0 1 96 17 A 80 80 0 0 1 175.97461 96.513672 A 80 80 0 0 0 176 96 A 80 80 0 0 0 96 16 z "/>
  <path style="fill:#c32161;color:#000000" d="M 96,41 C 73.673215,41 53.512142,54.547037 45.076172,75.21875 36.640202,95.890463 41.5657,119.67564 57.517578,135.29687 a 8,8 0 0 0 11.314453,-0.11914 8,8 0 0 0 -0.11914,-11.3125 C 57.372882,112.76028 53.89359,95.958958 59.890625,81.263672 65.88766,66.568386 80.128142,57 96,57 c 15.87186,0 30.11234,9.568386 36.10937,24.263672 5.99704,14.695286 2.51775,31.496608 -8.82226,42.601558 a 8,8 0 0 0 -0.11914,11.3125 8,8 0 0 0 11.31445,0.11914 C 150.4343,119.67564 155.3598,95.890463 146.92383,75.21875 138.48786,54.547037 118.32678,41 96,41 Z"/>
  <path style="filter:url(#filter2432);opacity:0.2;fill:#000000" d="m 135,50.999555 c -2.12161,3.21e-4 -4.15621,0.843385 -5.65625,2.34375 l -23.89397,23.893974 c -1.93392,1.933922 -2.76413,1.772356 -5.11825,1.240675 C 98.912424,78.161862 97.460056,78.000777 96,77.999555 c -11.045695,0 -20,8.954305 -20,20 0,11.045685 8.954305,19.999995 20,19.999995 11.04569,0 20,-8.95431 20,-19.999995 -0.001,-1.359804 -0.14089,-2.712938 -0.41545,-4.038742 -0.92056,-2.767562 -0.32034,-3.912967 1.02312,-5.256426 l 24.04858,-24.048582 c 3.12339,-3.124056 3.12339,-8.188444 0,-11.3125 C 139.15621,51.84294 137.12161,50.999876 135,50.999555 Z"/>
  <path style="fill:#ffffff" d="m 135,49 c -2.12161,3.21e-4 -4.15621,0.843385 -5.65625,2.34375 l -23.89397,23.893974 c -1.93392,1.933922 -2.76413,1.772356 -5.11825,1.240675 C 98.912424,76.162307 97.460056,76.001222 96,76 84.954305,76 76,84.954305 76,96 c 0,11.04569 8.954305,20 20,20 11.04569,0 20,-8.95431 20,-20 -0.001,-1.359804 -0.14089,-2.712938 -0.41545,-4.038742 -0.92056,-2.767562 -0.32034,-3.912967 1.02312,-5.256426 L 140.65625,62.65625 c 3.12339,-3.124056 3.12339,-8.188444 0,-11.3125 C 139.15621,49.843385 137.12161,49.000321 135,49 Z"/>
</svg>
