<?xml version='1.0' encoding='utf-8'?>
<svg xmlns="http://www.w3.org/2000/svg" width="192" height="192" version="1.1" id="svg14">
  <defs>
    <filter style="color-interpolation-filters:sRGB" id="filter849" x="0.05" y="0.05" width="1.10" height="1.10">
      <feGaussianBlur stdDeviation="3.20"/>
    </filter>
    <filter style="color-interpolation-filters:sRGB" id="filter2420" x="0.07" y="0.08" width="1.15" height="1.15">
      <feGaussianBlur stdDeviation="3.12"/>
    </filter>
    <filter style="color-interpolation-filters:sRGB" id="filter2424" x="0.12" y="0.10" width="1.25" height="1.19">
      <feGaussianBlur stdDeviation="4.01"/>
    </filter>
  </defs>
  <circle style="filter:url(#filter849);opacity:0.20" cx="96" cy="100" r="80"/>
  <circle style="fill:#6359ec" cx="96" cy="96" r="80"/>
  <path style="opacity:0.10;fill:#ffffff" d="M 96,16 A 80,80 0 0 0 16,96 80,80 0 0 0 16.02,96.64 80,80 0 0 1 96,17 80,80 0 0 1 175.98,96.30 80,80 0 0 0 176,96 80,80 0 0 0 96,16 Z"/>
  <path style="filter:url(#filter2420);opacity:0.20;fill:#000000" d="m 96,48.00 a 50,50 0 0 0 -50,50 50,50 0 0 0 50,50.00 50,50 0 0 0 50,-50.00 50,50 0 0 0 -50,-50 z m 0,10 a 40,40 0 0 1 40,40 40,40 0 0 1 -40,40.00 40,40 0 0 1 -40,-40.00 40,40 0 0 1 40,-40 z"/>
  <path style="fill:#7d75f5" d="M 96 46 A 50 50 0 0 0 46 96 A 50 50 0 0 0 96 146 A 50 50 0 0 0 146 96 A 50 50 0 0 0 96 46 z M 96 56 A 40 40 0 0 1 136 96 A 40 40 0 0 1 96 136 A 40 40 0 0 1 56 96 A 40 40 0 0 1 96 56 z "/>
  <path style="filter:url(#filter2424);opacity:0.20;fill:#000000" d="m 122.69,48.00 c -1.61,0.04 -3.28,0.44 -4.94,1.24 -3.63,1.74 -5.90,4.70 -7.97,10.39 -1.40,3.86 -2.31,22.20 -1.44,29.08 l 0.47,3.71 6.28,2.26 c 3.46,1.24 6.87,2.29 7.59,2.32 0.97,0.04 2.30,-2.01 5.18,-7.98 5.82,-12.06 7.03,-16.14 7.13,-24.09 0.03,-3.12 0.02,-8.05 -2.96,-12.00 -2.50,-3.30 -5.80,-5.01 -9.34,-4.94 z M 68.98,80.01 c -5.07,0.16 -9.87,4.14 -11.57,11.85 -1.76,7.95 2.34,21.65 10.21,34.07 l 2.57,4.07 3.72,-1.49 c 2.05,0.82 5.16,-2.07 6.91,-2.77 L 84,124.46 83.73,109.54 C 83.52,97.25 83.24,94.01 82.16,91.06 79.38,83.50 74.05,79.84 68.98,80.01 Z m 39.32,15.99 -1.66,1.59 c -4.63,4.44 -6.17,12.81 -2.90,16.68 0.88,1.05 2.72,2.18 4.08,2.50 3.08,0.74 7.06,0.23 9.83,-4.67 2.30,-3.35 4.35,-7.77 4.35,-10.10 0,0.55 -3.00,-1.30 -6.85,-3.00 z m -22.60,31.00 c -1.42,0.05 -3.44,0.73 -6.92,2.15 -7.92,3.22 -8.00,3.38 -4.80,10.11 2.00,4.20 3.97,6.53 6.90,8.16 1.59,0.86 3.91,0.65 6.25,0.09 C 90.77,146.50 92,144.48 92,139.54 c 0,-3.05 0.50,-5.03 -1.97,-7.86 -1.67,-3.20 -2.50,-4.62 -4.33,-4.68 z"/>
  <path style="fill:#ffffff" d="m 122.69,46.00 c -1.61,0.04 -3.28,0.44 -4.94,1.24 -3.63,1.74 -5.90,4.70 -7.97,10.39 -1.40,3.86 -2.31,22.20 -1.44,29.08 l 0.47,3.71 6.28,2.26 c 3.46,1.24 6.87,2.29 7.59,2.32 0.97,0.04 2.30,-2.01 5.18,-7.98 5.82,-12.06 7.03,-16.14 7.13,-24.09 0.03,-3.12 0.02,-8.05 -2.96,-12.00 -2.50,-3.30 -5.80,-5.01 -9.34,-4.94 z M 68.98,78.01 c -5.07,0.16 -9.87,4.14 -11.57,11.85 -1.76,7.95 2.34,21.65 10.21,34.07 L 70.19,128 l 3.72,-1.49 c 2.05,0.82 5.16,-2.07 6.91,-2.77 L 84,122.46 83.73,107.54 C 83.52,95.25 83.24,92.01 82.16,89.06 79.38,81.50 74.05,77.84 68.98,78.01 Z m 39.32,15.99 -1.66,1.59 c -4.63,4.44 -6.17,12.81 -2.90,16.68 0.88,1.05 2.72,2.18 4.08,2.50 3.08,0.74 7.06,0.23 9.83,-4.67 2.30,-3.35 4.35,-7.77 4.35,-10.10 0,0.55 -3.00,-1.30 -6.85,-3.00 z m -22.60,31.00 c -1.42,0.05 -3.44,0.73 -6.92,2.15 -7.92,3.22 -8.00,3.38 -4.80,10.11 2.00,4.20 3.97,6.53 6.90,8.16 1.59,0.86 3.91,0.65 6.25,0.09 C 90.77,144.50 92,142.48 92,137.54 c 0,-3.05 0.50,-5.03 -1.97,-7.86 -1.67,-3.20 -2.50,-4.62 -4.33,-4.68 z"/>
</svg>
