<?xml version='1.0' encoding='utf-8'?>
<svg xmlns="http://www.w3.org/2000/svg" width="192" height="192" version="1.1" id="svg16">
  <defs>
    <filter style="color-interpolation-filters:sRGB" id="filter860" x="-0.048000001" width="1.096" y="-0.048000001" height="1.096">
      <feGaussianBlur stdDeviation="3.2"/>
    </filter>
    <filter style="color-interpolation-filters:sRGB" id="filter876" x="-0.069010663" width="1.1380213" y="-0.036796965" height="1.0735939">
      <feGaussianBlur stdDeviation="1.8402844"/>
    </filter>
  </defs>
  <rect style="filter:url(#filter860);opacity:0.2;fill:#000000" transform="matrix(0,-1,-1,0,0,0)" ry="12" rx="12" y="-176" x="-180" height="160" width="160"/>
  <rect width="160" height="160" x="-176.00009" y="-176" rx="12" ry="12" transform="matrix(0,-1,-1,0,0,0)" style="fill:#e4e4e4"/>
  <path d="m 131.124,56 c -11.8672,0.4376 -27.1248,4 -27.1248,32 v 16 h -16 v 24 h 16 v 48 h 24 v -48 h 20 l 4,-24 h -24 V 88 c 0,-8 8,-8 8,-8 h 16 V 56 h -16 c -1.5,0 -3.17968,-0.064 -4.8752,0 z" style="filter:url(#filter876);opacity:0.2"/>
  <path style="opacity:0.2;fill:#ffffff" d="m 28,16 c -6.648,0 -12,5.352 -12,12 v 1 c 0,-6.648 5.352,-12 12,-12 h 136 c 6.648,0 12,5.352 12,12 v -1 c 0,-6.648 -5.352,-12 -12,-12 z"/>
  <path d="m 131.124,52 c -11.8672,0.4376 -27.1248,4 -27.1248,32 v 16 h -16 v 24 h 16 v 52 h 24 v -52 h 20 l 4,-24 h -24 V 84 c 0,-8 8,-8 8,-8 h 16 V 52 h -16 c -1.5,0 -3.17968,-0.064 -4.8752,0 z" style="fill:#1877f2"/>
</svg>
