<?xml version='1.0' encoding='utf-8'?>
<svg xmlns="http://www.w3.org/2000/svg" width="192" height="192" version="1" id="svg14">
  <defs>
    <filter style="color-interpolation-filters:sRGB" id="filter848" x="-0.048000001" width="1.096" y="-0.048000001" height="1.096">
      <feGaussianBlur stdDeviation="3.2"/>
    </filter>
    <filter style="color-interpolation-filters:sRGB" id="filter868" x="-0.044000364" width="1.0880007" y="-0.052799477" height="1.105599">
      <feGaussianBlur stdDeviation="1.7600119"/>
    </filter>
  </defs>
  <circle r="80" cy="100" cx="96" style="filter:url(#filter848);opacity:0.2"/>
  <circle style="fill:#4d6074" r="80" cy="96" cx="96"/>
  <path style="opacity:0.1;fill:#ffffff" d="m 96,16 c -44.316,0 -79.992188,35.68 -79.992188,80 0,0.33544 0.002,0.667215 0,1 C 16.007812,52.68 51.684,17 96,17 c 44.316,0 79.99219,35.68 79.99219,80 -0.002,-0.332785 0,-0.66456 0,-1 C 175.99219,51.68 140.316,16 96,16 Z"/>
  <path d="m 124.316,136.52 c 1.52,-2.952 10.264,-53.408 11.516,-66.448 1.352,-12.928 -5.7,-10.524 -12.188,-8.34 -15.916,5.376 -66.248,27.164 -80.024,34.352 -3.388,1.408 -4.856,3.792 -2.388,5.86 2.124,1.748 9.9,4.156 16.168,5.376 5.348,1.616 9.5,0.068 13.332,-2.096 9.208,-5.46 36.652,-22.828 38.132,-23.796 1.476,-0.968 3.092,0.832 2.268,1.7 -0.828,0.868 -20.264,18.3 -26.648,26.18 -3.38,4.332 -3.276,6.648 0.196,9.38 7.792,6.108 28.608,20.036 31.704,20.88 3.952,1.072 6.264,0.184 7.932,-3.048 z" style="filter:url(#filter868);opacity:0.2"/>
  <path d="m 124.316,132.52 c 1.52,-2.952 10.264,-53.408 11.516,-66.448 1.352,-12.928 -5.7,-10.524 -12.188,-8.34 -15.916,5.376 -66.248,27.164 -80.024,34.352 -3.388,1.408 -4.856,3.792 -2.388,5.86 2.124,1.748 9.9,4.156 16.168,5.376 5.348,1.616 9.5,0.068 13.332,-2.096 9.208,-5.46 36.652,-22.828 38.132,-23.796 1.476,-0.968 3.092,0.832 2.268,1.7 -0.828,0.868 -20.264,18.3 -26.648,26.18 -3.38,4.332 -3.276,6.648 0.196,9.38 7.792,6.108 28.608,20.036 31.704,20.88 3.952,1.072 6.264,0.184 7.932,-3.048 z" style="fill:#ffffff"/>
</svg>
