<?xml version='1.0' encoding='utf-8'?>
<svg xmlns="http://www.w3.org/2000/svg" width="192" height="192" version="1" id="svg28">
  <defs>
    <filter style="color-interpolation-filters:sRGB" id="filter6505" x="0.04" y="0.06" width="1.08" height="1.11">
      <feGaussianBlur stdDeviation="2.89"/>
    </filter>
    <filter style="color-interpolation-filters:sRGB" id="filter6547" x="0.05" y="0.05" width="1.10" height="1.10">
      <feGaussianBlur stdDeviation="2.08"/>
    </filter>
    <filter style="color-interpolation-filters:sRGB" id="filter6745" x="0.09" y="0.13" width="1.19" height="1.26">
      <feGaussianBlur stdDeviation="0.85"/>
    </filter>
    <filter style="color-interpolation-filters:sRGB" id="filter6749" x="0.05" y="0.05" width="1.10" height="1.10">
      <feGaussianBlur stdDeviation="1.72"/>
    </filter>
    <filter style="color-interpolation-filters:sRGB" id="filter6871" x="0.07" y="0.07" width="1.15" height="1.15">
      <feGaussianBlur stdDeviation="1.88"/>
    </filter>
  </defs>
  <path style="filter:url(#filter6505);opacity:0.20;fill:#000000" d="m 110.69,33 c -16.95,0 -17.18,0.02 -19.53,1.48 -1.41,0.88 -5.26,5.22 -9.51,10.71 l -7.13,9.23 -4.53,0.78 C 54.22,57.18 32.66,57.22 21.16,64.67 16.84,67.52 14,72.41 14,78 v 64 c 0,8.86 7.14,16 16,16 H 57.80 149.52 162 c 8.86,0 16,-7.14 16,-16 V 78 C 177.09,64.09 169.77,61.40 158.78,58.38 l -10.70,-2.94 -7.53,-9.66 c -2.80,-3.60 -5.09,-6.35 -6.86,-8.26 -1.41,-1.52 -2.49,-2.50 -3.26,-2.96 C 128.28,32.77 126.42,33 123.75,33 Z"/>
  <path style="fill:#37474f" d="m 110.69,29 c -16.95,0 -17.18,0.02 -19.53,1.48 -1.41,0.88 -5.26,5.22 -9.51,10.71 l -7.13,9.23 -4.53,0.78 C 54.22,53.18 32.66,53.22 21.16,60.67 16.84,63.52 14,68.41 14,74 v 64 c 0,8.86 7.14,16 16,16 H 57.80 149.52 162 c 8.86,0 16,-7.14 16,-16 V 74 C 177.09,60.09 169.77,57.40 158.78,54.38 l -10.70,-2.94 -7.53,-9.66 c -2.80,-3.60 -5.09,-6.35 -6.86,-8.26 -1.41,-1.52 -2.49,-2.50 -3.26,-2.96 C 128.28,28.77 126.42,29 123.75,29 Z"/>
  <path style="opacity:0.20;fill:#000000" d="M 50,53.18 C 39.04,54.33 28.21,56.10 21.16,60.67 16.84,63.52 14,68.41 14,74 v 64 c 0,8.86 7.14,16 16,16 h 20 z"/>
  <ellipse style="fill:#ffffff" cx="33" cy="69" rx="9" ry="5"/>
  <rect style="filter:url(#filter6745);opacity:0.20;fill:#000000" width="22" height="16" x="152" y="100" rx="4" ry="4"/>
  <rect style="fill:#49616b" width="22" height="16" x="152" y="99" rx="4" ry="4"/>
  <circle style="filter:url(#filter6547);opacity:0.20;fill:#000000" cx="108" cy="113" r="52"/>
  <circle style="fill:#546e7a" cx="108" cy="110" r="52"/>
  <path style="filter:url(#filter6749);opacity:0.20;fill:#000000" d="m 108,69 a 43,43 0 0 0 -43,43 43,43 0 0 0 43,43 43,43 0 0 0 43,-43 43,43 0 0 0 -43,-43 z m 0,9 a 34,34 0 0 1 34,34 34,34 0 0 1 -34,34 34,34 0 0 1 -34,-34 34,34 0 0 1 34,-34 z"/>
  <path style="fill:#ffffff" d="m 108,67 a 43,43 0 0 0 -43,43 43,43 0 0 0 43,43 43,43 0 0 0 43,-43 43,43 0 0 0 -43,-43 z m 0,9 a 34,34 0 0 1 34,34 34,34 0 0 1 -34,34 34,34 0 0 1 -34,-34 34,34 0 0 1 34,-34 z"/>
  <path style="opacity:0.10;fill:#ffffff" d="M 125.62 28.99 C 125.04 28.99 124.42 29 123.75 29 L 110.69 29 C 93.73 29 93.51 29.02 91.16 30.48 C 89.75 31.36 85.90 35.69 81.66 41.19 L 74.52 50.42 L 70.00 51.20 C 54.22 53.18 32.66 53.22 21.16 60.67 C 16.84 63.52 14 68.41 14 74 L 14 75 C 14 69.41 16.84 64.52 21.16 61.67 C 32.66 54.22 54.22 54.18 70.00 52.20 L 74.52 51.42 L 81.66 42.19 C 85.90 36.69 89.75 32.36 91.16 31.48 C 93.51 30.02 93.73 30 110.69 30 L 123.75 30 C 126.42 30 128.28 29.77 130.43 31.56 C 131.20 32.02 132.28 33.01 133.69 34.53 C 135.47 36.44 137.75 39.19 140.55 42.78 L 148.08 52.45 L 158.78 55.38 C 169.77 58.40 177.09 61.09 178 75 L 178 74 C 177.09 60.09 169.77 57.40 158.78 54.38 L 148.08 51.45 L 140.55 41.78 C 137.75 38.19 135.47 35.44 133.69 33.53 C 132.28 32.01 131.20 31.02 130.43 30.56 C 128.82 29.22 127.37 29.01 125.62 28.99 z "/>
  <path style="opacity:0.10;fill:#ffffff" d="M 108 58 A 52 52 0 0 0 56 110 A 52 52 0 0 0 56.04 110.50 A 52 52 0 0 1 108 59 A 52 52 0 0 1 159.98 110.26 A 52 52 0 0 0 160 110 A 52 52 0 0 0 108 58 z "/>
  <path style="filter:url(#filter6871);opacity:0.20;fill:#000000" d="m 66,161 c 0,-30 -21,-51 -51,-51 -4.50,0 -9,4.50 -9,9 v 42 c 0,4.50 4.50,9 9,9 h 42 c 4.50,0 9,-4.50 9,-9 z"/>
  <path style="fill:#426bcd" d="m 66,159 c 0,-30 -21,-51 -51,-51 -4.50,0 -9,4.50 -9,9 v 42 c 0,4.50 4.50,9 9,9 h 42 c 4.50,0 9,-4.50 9,-9 z"/>
  <path style="fill:#ffffff" d="m 18,120 v 3 c 0,1.65 1.36,3 3,3 14.91,0 27,12.09 27,27 0,1.65 1.36,3 3,3 h 3 v -3 C 54,134.78 39.23,120 21,120 Z m 0,12 v 3 c 0,1.65 1.36,3 3,3 8.28,0 15,6.72 15,15 0,1.65 1.36,3 3,3 h 3 v -3 c 0,-11.60 -9.40,-21 -21,-21 z m 6,12 c -3.31,0 -6,2.69 -6,6 0,3.31 2.69,6 6,6 3.31,0 6,-2.69 6,-6 0,-3.31 -2.69,-6 -6,-6 z"/>
</svg>
