<?xml version='1.0' encoding='utf-8'?>
<svg xmlns="http://www.w3.org/2000/svg" width="192" height="192" version="1" id="svg12">
  <defs>
    <filter style="color-interpolation-filters:sRGB" id="filter860" x="0.05" width="1.10" y="0.05" height="1.10">
      <feGaussianBlur stdDeviation="3.20"/>
    </filter>
    <filter style="color-interpolation-filters:sRGB" id="filter891" x="0.05" width="1.10" y="0.04" height="1.09">
      <feGaussianBlur stdDeviation="2.08"/>
    </filter>
  </defs>
  <rect style="filter:url(#filter860);opacity:0.20" width="160" height="160" x="16" y="20" rx="8" ry="8"/>
  <rect style="fill:#175ddc" width="160" height="160" x="16" y="16" rx="8" ry="8"/>
  <path style="opacity:0.20;fill:#ffffff" d="m 24,16 c -4.43,0 -8,3.57 -8,8 v 1 c 0,-4.43 3.57,-8 8,-8 h 144 c 4.43,0 8,3.57 8,8 v -1 c 0,-4.43 -3.57,-8 -8,-8 z"/>
  <path style="filter:url(#filter891);opacity:0.20" d="M 96,42.00 C 52.52,42.00 51.41,42.02 50.28,42.69 47.88,44.12 48,42.36 48,75.70 c 0,33.83 0.05,33.15 2.58,39.71 3.02,7.55 7.88,13.93 15.86,20.86 6.70,5.82 14.64,11.08 23.50,15.55 3.00,1.51 4.54,2.20 6.06,2.18 1.52,0.02 3.07,0.67 6.06,-2.18 8.86,-4.47 16.80,-9.73 23.50,-15.55 7.98,-6.93 12.84,-13.31 15.86,-20.86 C 144.05,108.85 144,109.53 144,75.70 144,42.36 144.12,44.12 141.72,42.69 140.59,42.02 139.48,42.00 96,42.00 Z m 0,16 c 17.99,0.00 25.54,0.03 31.87,0.08 0.05,4.45 0.13,6.88 0.13,17.62 0,16.92 0.03,25.36 0.27,29.05 0.24,3.69 0.21,1.29 -1.16,4.72 -1.98,4.94 -4.76,8.88 -11.49,14.73 -5.25,4.56 -11.82,8.81 -19.07,12.59 z"/>
  <path style="fill:#ffffff" d="M 96,40 C 52.52,40.00 51.41,40.02 50.28,40.70 47.88,42.13 48,40.36 48,73.70 c 0,33.83 0.05,33.15 2.58,39.71 3.02,7.55 7.88,13.93 15.86,20.86 6.70,5.82 14.64,11.08 23.50,15.55 3.00,1.51 4.54,2.20 6.06,2.18 1.52,0.02 3.07,0.67 6.06,-2.18 8.86,-4.47 16.80,-9.73 23.50,-15.55 7.98,-6.93 12.84,-13.31 15.86,-20.86 C 144.05,106.85 144,107.53 144,73.70 144,40.36 144.12,42.13 141.72,40.70 140.59,40.02 139.48,40.00 96,40 Z m 0,16 c 17.99,0.00 25.54,0.03 31.87,0.08 0.05,4.45 0.13,6.88 0.13,17.62 0,16.92 0.03,25.36 0.27,29.05 0.24,3.69 0.21,1.29 -1.16,4.72 -1.98,4.94 -4.76,8.88 -11.49,14.73 -5.25,4.56 -11.82,8.81 -19.07,12.59 z"/>
</svg>
