<?xml version='1.0' encoding='utf-8'?>
<svg xmlns="http://www.w3.org/2000/svg" width="192" height="192" version="1" id="svg18">
  <defs>
    <filter style="color-interpolation-filters:sRGB" id="filter4981" x="0.05" y="0.05" width="1.10" height="1.10">
      <feGaussianBlur stdDeviation="3.08"/>
    </filter>
    <filter style="color-interpolation-filters:sRGB" id="filter5067" x="0.03" y="0.13" width="1.06" height="1.27">
      <feGaussianBlur stdDeviation="2.10"/>
    </filter>
    <filter style="color-interpolation-filters:sRGB" id="filter5210" x="0.08" y="0.05" width="1.17" height="1.10">
      <feGaussianBlur stdDeviation="1.36"/>
    </filter>
    <filter style="color-interpolation-filters:sRGB" id="filter5214" x="0.05" y="0.20" width="1.09" height="1.41">
      <feGaussianBlur stdDeviation="1.36"/>
    </filter>
  </defs>
  <path style="filter:url(#filter4981);opacity:0.20;fill:#000000" d="M 173,99 A 77,77 0 0 1 96,176 77,77 0 0 1 19,99 77,77 0 0 1 96,22 77,77 0 0 1 173,99 Z"/>
  <path style="fill:#31952a" d="M 173,96 A 77,77 0 0 1 96,173 77,77 0 0 1 19,96 77,77 0 0 1 96,19 77,77 0 0 1 173,96 Z"/>
  <path style="opacity:0.20;fill:#ffffff" d="M 96 19 A 77 77 0 0 0 19 96 A 77 77 0 0 0 19.04 96.50 A 77 77 0 0 1 96 20 A 77 77 0 0 1 172.98 96.25 A 77 77 0 0 0 173 96 A 77 77 0 0 0 96 19 z "/>
  <path style="filter:url(#filter5067);opacity:0.20;fill:#000000;stop-color:#000000" d="M 29,79 A 19,19 0 0 0 10,98 19,19 0 0 0 29,117 19,19 0 0 0 48,98 19,19 0 0 0 29,79 Z m 134,0 a 19,19 0 0 0 -19,19 19,19 0 0 0 19,19 19,19 0 0 0 19,-19 19,19 0 0 0 -19,-19 z"/>
  <circle style="fill:#e4e4e4;stop-color:#000000" cx="29" cy="96" r="19"/>
  <circle style="fill:#e4e4e4;stop-color:#000000" cx="-163" cy="96" r="19" transform="scale(-1,1)"/>
  <path style="filter:url(#filter5214);opacity:0.20;fill:#000000;color:#000000" d="m 68,90.00 a 8,8 0 0 0 -8,8 8,8 0 0 0 8,8.00 h 56 a 8,8 0 0 0 8,-8.00 8,8 0 0 0 -8,-8 z"/>
  <path style="fill:#ffffff;color:#000000" d="m 68,88 a 8,8 0 0 0 -8,8 8,8 0 0 0 8,8 h 56 a 8,8 0 0 0 8,-8 8,8 0 0 0 -8,-8 z"/>
  <path style="filter:url(#filter5210);opacity:0.20;fill:#000000;color:#000000" d="m 101.17,66.00 a 8,8 0 0 0 -5.71,2.22 8,8 0 0 0 0.24,11.31 L 112.92,98.00 95.22,116.47 a 8,8 0 0 0 0.24,11.31 8,8 0 0 0 11.31,0.24 l 23,-24 a 8.00,8.00 0 0 0 0,-11.07 l -23,-24 a 8,8 0 0 0 -5.61,-2.46 z"/>
  <path style="fill:#ffffff;color:#000000" d="m 101.17,64.00 a 8,8 0 0 0 -5.71,2.22 8,8 0 0 0 0.24,11.31 L 112.92,96 95.22,114.46 a 8,8 0 0 0 0.24,11.31 8,8 0 0 0 11.31,0.24 l 23,-24 a 8.00,8.00 0 0 0 0,-11.07 l -23,-24 a 8,8 0 0 0 -5.61,-2.46 z"/>
</svg>
