<?xml version='1.0' encoding='utf-8'?>
<svg xmlns="http://www.w3.org/2000/svg" width="192" height="192" version="1" id="svg22">
  <defs>
    <filter style="color-interpolation-filters:sRGB" id="filter865" x="0.05" y="0.05" width="1.10" height="1.09">
      <feGaussianBlur stdDeviation="6.66"/>
    </filter>
    <filter style="color-interpolation-filters:sRGB" id="filter1625" x="0.05" y="0.05" width="1.10" height="1.10">
      <feGaussianBlur stdDeviation="1.35"/>
    </filter>
  </defs>
  <path d="m 153.00,26.59 c -3.09,0 -6.18,0.51 -9.13,1.56 L 16.57,73.03 c -10.90,3.85 -18.32,14.32 -18.32,25.89 0,49.50 12.73,104.52 35.04,153.64 18.12,39.88 50.51,94.45 107.14,123.62 3.92,2.02 8.26,3.05 12.57,3.05 4.31,0 8.65,-1.03 12.57,-3.05 56.63,-29.17 89.00,-83.75 107.12,-123.62 a 23.11,23.11 0 0 0 0.02,0 c 22.32,-49.12 35.04,-104.14 35.04,-153.64 0,-11.56 -7.41,-22.04 -18.32,-25.89 a 23.11,23.11 0 0 0 0.03,0 L 162.14,28.14 c -2.96,-1.04 -6.04,-1.56 -9.13,-1.56 z" transform="matrix(0.47,0,0,0.45,24.81,7.94)" style="filter:url(#filter865);opacity:0.20"/>
  <path style="fill:#3f3f3f" d="m 96.00,16.00 c -1.44,0 -2.88,0.23 -4.25,0.71 L 32.52,37.07 C 27.45,38.82 24,43.57 24,48.82 c 0,22.46 5.92,47.42 16.30,69.71 8.43,18.09 23.50,42.86 49.85,56.09 1.83,0.92 3.84,1.38 5.85,1.38 2.00,0 4.02,0.47 5.85,-1.38 26.35,-13.24 41.41,-38.00 49.84,-56.09 a 10.75,10.48 0 0 0 0.01,0 C 162.08,96.24 168,71.28 168,48.82 168,43.57 164.55,38.82 159.48,37.07 a 10.75,10.48 0 0 0 0.01,0 L 100.25,16.71 c -1.38,0.47 -2.81,0.71 -4.25,0.71 z"/>
  <path style="opacity:0.10;fill:#ffffff" d="m 96,16 c -1.44,0 -2.88,0.23 -4.25,0.70 L 32.52,37.07 C 27.45,38.81 24,43.57 24,48.82 c 0,22.46 5.92,47.42 16.30,69.70 8.43,18.09 23.50,42.86 49.85,56.09 C 91.98,175.53 94.00,176 96,176 Z"/>
  <path style="opacity:0.10;fill:#ffffff" d="m 96,16 c -1.44,0 -2.88,0.23 -4.25,0.70 L 32.52,37.07 C 27.45,38.81 24,43.57 24,48.82 c 0,0.14 0.01,0.28 0.02,0.42 0.24,-5.02 3.62,-9.49 8.51,-11.17 L 91.75,17.70 C 93.12,17.23 94.56,17 96,17 c 1.44,0 2.87,0.23 4.25,0.70 l 59.21,20.37 a 10.75,10.48 0 0 1 0.02,0 c 4.89,1.68 8.27,6.16 8.51,11.17 0.01,0.14 0.02,0.28 0.02,0.42 0,-5.25 -3.45,-10.01 -8.52,-11.75 a 10.75,10.48 0 0 0 0.02,0 L 100.25,16.70 C 98.87,16.23 97.44,16 96,16 Z"/>
  <path style="filter:url(#filter1625);opacity:0.20;fill:#000000;color:#000000" d="m 124.93,58.14 a 4,4 0 0 0 -2.41,1.88 L 90.79,116.02 68.44,98.83 a 4,4 0 0 0 -5.61,0.73 4,4 0 0 0 0.73,5.61 l 26,20 a 4.00,4.00 0 0 0 5.92,-1.20 L 129.48,63.97 a 4,4 0 0 0 -1.51,-5.45 4,4 0 0 0 -3.04,0.38 z"/>
  <path style="fill:none;stroke:#ed3e31;stroke-width:8;stroke-linecap:round;stroke-linejoin:round" d="m 66,100.00 26,20 34,-60.00"/>
  <path style="opacity:0.20;fill:#ffffff;color:#000000" d="m 126.49,56.03 a 4,4 0 0 0 -1.56,0.12 4,4 0 0 0 -2.41,1.88 L 90.79,114.02 68.44,96.83 a 4,4 0 0 0 -5.61,0.73 4,4 0 0 0 0.74,3.12 4,4 0 0 1 0.74,-2.12 4,4 0 0 1 5.61,0.73 l 22.35,17.19 31.73,-55.99 a 4,4 0 0 1 2.41,-1.88 4,4 0 0 1 3.04,0.38 4,4 0 0 1 1.99,2.99 4,4 0 0 0 -1.99,-3.99 4,4 0 0 0 -1.48,0.49 z"/>
</svg>
