<?xml version='1.0' encoding='utf-8'?>
<svg xmlns="http://www.w3.org/2000/svg" width="192" height="192" version="1" id="svg32">
  <defs>
    <filter style="color-interpolation-filters:sRGB" id="filter2489" x="0.05" y="0.05" width="1.10" height="1.09">
      <feGaussianBlur stdDeviation="3.02"/>
    </filter>
    <filter style="color-interpolation-filters:sRGB" id="filter3197" x="0.05" y="0.04" width="1.11" height="1.09">
      <feGaussianBlur stdDeviation="1.97"/>
    </filter>
    <filter style="color-interpolation-filters:sRGB" id="filter3382" x="0.04" y="0.05" width="1.08" height="1.11">
      <feGaussianBlur stdDeviation="0.64"/>
    </filter>
  </defs>
  <path style="filter:url(#filter2489);opacity:0.20" d="m 96.43,20.00 a 18.26,18.19 0 0 0 -9.56,2.43 l -53.74,30.90 A 18.26,18.19 0 0 0 24,69.09 v 61.81 a 18.26,18.19 0 0 0 9.13,15.75 l 53.74,30.91 a 18.26,18.19 0 0 0 18.26,0 l 53.74,-30.91 A 18.26,18.19 0 0 0 168,130.90 V 69.09 a 18.26,18.19 0 0 0 -9.13,-15.76 l -53.74,-30.90 a 18.26,18.19 0 0 0 -8.70,-2.43 z"/>
  <path style="fill:#00a88e" d="m 96.43,16 v 0.01 a 18.26,18.19 0 0 0 -9.56,2.42 L 33.13,49.34 A 18.26,18.19 0 0 0 24,65.09 v 61.81 a 18.26,18.19 0 0 0 9.13,15.75 l 53.73,30.91 a 18.26,18.19 0 0 0 18.27,0 l 53.73,-30.91 A 18.26,18.19 0 0 0 168,126.91 V 65.09 A 18.26,18.19 0 0 0 158.87,49.34 L 105.13,18.43 A 18.26,18.19 0 0 0 96.43,16 Z"/>
  <path style="filter:url(#filter3197);opacity:0.20;fill:#000000;color:#000000" d="M 95.29,45.06 A 4.00,4.00 0 0 0 93.97,45.56 l -39,23 A 4.00,4.00 0 0 0 53,72.00 v 42.00 c 0,13.54 11.06,23.73 21.24,30.71 10.18,6.99 20.28,11 20.28,11 a 4.00,4.00 0 0 0 2.96,0 c 0,0 10.10,-4.01 20.28,-11 C 127.94,137.73 139,127.54 139,114.00 V 72.00 a 4.00,4.00 0 0 0 -1.97,-3.45 l -39,-23 a 4.00,4.00 0 0 0 -2.74,0.49 z"/>
  <path style="opacity:0.20;fill:#ffffff" d="m 96.43,16.01 a 18.26,18.19 0 0 0 -9.56,2.42 L 33.13,49.34 A 18.26,18.19 0 0 0 24,65.09 v 1 a 18.26,18.19 0 0 1 9.13,-15.76 l 53.73,-30.91 a 18.26,18.19 0 0 1 9.56,-2.42 h 0.00 a 18.26,18.19 0 0 1 8.70,2.42 l 53.73,30.91 A 18.26,18.19 0 0 1 168,66.09 v -1 a 18.26,18.19 0 0 0 -9.13,-15.76 l -53.73,-30.91 a 18.26,18.19 0 0 0 -8.70,-2.42 z"/>
  <path style="fill:#a5cf4e;stop-color:#000000" d="M 96,45 57,68 v 42 c 0,22.44 39,38 39,38 0,0 39,-15.56 39,-38 V 68 Z"/>
  <path style="opacity:0.15;fill:#000000;stop-color:#000000" d="m 96,45 v 103 c 0,0 39,-15.56 39,-38 V 68 Z"/>
  <path style="filter:url(#filter3382);opacity:0.20;fill:#000000;color:#000000" d="m 112,80.00 a 4,4 0 0 0 -2.83,1.17 L 92,98.34 85.83,92.17 a 4,4 0 0 0 -5.66,0 4,4 0 0 0 0,5.66 l 9,9.00 a 4.00,4.00 0 0 0 5.66,0 L 114.83,86.83 a 4,4 0 0 0 0,-5.66 A 4,4 0 0 0 112,80.00 Z"/>
  <path style="fill:none;stroke:#ffffff;stroke-width:8;stroke-linecap:round;stroke-linejoin:round" d="m 83,93 9,9 20,-20"/>
  <path style="fill:none;stroke:#ffffff;stroke-width:8;stroke-linecap:round;stroke-linejoin:round;stop-color:#000000" d="M 96,45 57,68 v 42 c 0,22.44 39,38 39,38 0,0 39,-15.56 39,-38 V 68 Z"/>
</svg>
