<svg xmlns="http://www.w3.org/2000/svg" id="svg14" width="192" height="192" version="1"><defs><filter style="color-interpolation-filters:sRGB" id="filter850" width="1.1" height="1.1" x=".05" y=".05"><feGaussianBlur stdDeviation="3.2"/></filter><filter style="color-interpolation-filters:sRGB" id="filter866" width="1.1" height="1.1" x=".05" y=".05"><feGaussianBlur stdDeviation="2.24"/></filter></defs><rect width="160" height="160" x="-180" y="-176" rx="80" ry="80" transform="matrix(0,-1,-1,0,0,0)" style="filter:url(#filter850);opacity:.2;fill:#000"/><rect style="fill:#02a8f3" width="160" height="160" x="-176" y="-176" rx="80" ry="80" transform="matrix(0,-1,-1,0,0,0)"/><path style="opacity:.2;fill:#fff" d="M 96.00 16 C 51.68 16.00 16 51.68 16 96 C 16 96.12 16.01 96.23 16.01 96.34 C 16.36 52.33 51.90 17.00 96.00 17 L 96 17 C 140.10 17.00 175.64 52.33 175.99 96.34 C 175.99 96.23 176.00 96.12 176.00 96 C 176.00 51.68 140.32 16.00 96 16 L 96.00 16 z"/><path d="m 96,44 c -30.93,0 -56,25.07 -56,56 0,30.93 25.07,56 56,56 30.93,0 56,-25.07 56,-56 0,-30.93 -25.07,-56 -56,-56 z m -5.61,10.70 c 0.65,0.07 1.48,0.04 2.14,0 0.08,0.31 0.47,1.42 -1.22,3.05 -4.74,10.36 -5.01,22.50 0.61,28.98 0.80,1.18 1.52,2.29 1.52,2.44 0,0.15 0.86,0.30 -1.83,0.30 -2.28,0 -4.44,-1.38 -8.84,-4.88 -1.96,-1.55 -4.50,-2.85 -5.48,-3.05 -1.55,0.31 -1.97,0.18 -3.97,1.83 -1.86,1.86 -2.44,2.87 -2.44,4.58 0,6.47 7.68,11.60 21.95,14.63 19.39,4.11 24.17,7.80 24.70,18 0.67,12.78 -6.14,22.43 -21.05,29.89 -1.78,0.89 -2.91,1.23 -3.66,1.52 0.33,0.03 0.58,0.03 0.91,0 0.13,0.40 0.31,-1.31 0.31,-3.05 0,-6.79 -2.67,-13.78 -6.70,-17.69 -1.08,-1.05 -4.12,-3.27 -6.72,-4.88 -2.60,-1.61 -5.21,-3.47 -5.80,-4.27 0.97,-1.32 -1.04,-2.14 0.30,-4.58 1.35,-4.46 2.96,-6.95 6.09,-9.77 1.64,-1.48 3.29,-2.70 3.66,-2.73 0.36,0.03 -2.09,0.78 -5.78,-1.53 -3.69,0.76 -9.11,-2.35 -11.91,-3.36 C 57.83,98.29 50.94,94.42 48.31,91.61 48.20,91.49 48.10,91.40 48.00,91.30 51.77,76.29 62.34,63.99 76.36,58.06 c 2.93,-1.24 5.96,-2.10 9.16,-2.75 1.59,0.32 3.23,0.44 4.88,0.61 z m 45.75,22.88 c 1.15,0.71 5.47,10.07 6.70,14.64 1.60,5.90 1.48,16.10 0,21.95 0.56,2.23 -1.28,4.32 -1.52,4.58 0.24,0.26 -1.12,-1.23 -2.14,-3.05 -1.02,-1.81 -4.30,-5.68 -7.02,-8.55 -7.85,-8.28 -9.08,-12.59 -5.80,-19.20 1.66,-3.33 8.88,-10.92 9.77,-10.38 z" style="filter:url(#filter866);opacity:.2"/><path d="m 96,40 c -30.93,0 -56,25.07 -56,56 0,30.93 25.07,56 56,56 30.93,0 56,-25.07 56,-56 0,-30.93 -25.07,-56 -56,-56 z m -5.61,10.70 c 0.65,0.07 1.48,0.04 2.14,0 0.08,0.31 0.47,1.42 -1.22,3.05 -4.74,10.36 -5.01,22.50 0.61,28.98 0.80,1.18 1.52,2.29 1.52,2.44 0,0.15 0.86,0.30 -1.83,0.30 -2.28,0 -4.44,-1.38 -8.84,-4.88 -1.96,-1.55 -4.50,-2.85 -5.48,-3.05 -1.55,0.31 -1.97,0.18 -3.97,1.83 -1.86,1.86 -2.44,2.87 -2.44,4.58 0,6.47 7.68,11.60 21.95,14.62 19.39,4.11 24.17,7.80 24.70,18.00 0.67,12.78 -6.14,22.43 -21.05,29.89 -1.78,0.89 -2.91,1.23 -3.66,1.52 0.33,0.03 0.58,0.03 0.91,0 0.13,0.40 0.31,-1.31 0.31,-3.05 0,-6.79 -2.67,-13.78 -6.70,-17.69 -1.08,-1.05 -4.12,-3.27 -6.72,-4.88 -2.60,-1.61 -5.21,-3.47 -5.80,-4.27 0.97,-1.32 -1.04,-2.14 0.30,-4.58 1.35,-4.46 2.96,-6.95 6.09,-9.77 1.64,-1.48 3.29,-2.70 3.66,-2.73 0.36,0.03 -2.09,0.78 -5.78,-1.53 C 71.15,98.74 65.73,97.15 62.94,96.14 57.83,94.29 50.94,90.42 48.31,87.61 48.20,87.49 48.10,87.40 48.00,87.30 51.77,72.29 62.34,59.99 76.36,54.06 c 2.93,-1.24 5.96,-2.10 9.16,-2.75 1.59,0.32 3.23,0.44 4.88,0.61 z m 45.75,22.88 c 1.15,0.71 5.47,10.07 6.70,14.64 1.60,5.90 1.48,16.10 0,21.95 0.56,2.23 -1.28,4.32 -1.52,4.58 0.24,0.26 -1.12,-1.23 -2.14,-3.05 -1.02,-1.81 -4.30,-5.68 -7.02,-8.55 -7.85,-8.28 -9.08,-12.59 -5.80,-19.20 1.66,-3.33 8.88,-10.92 9.77,-10.38 z" style="fill:#fff"/></svg>