<?xml version='1.0' encoding='utf-8'?>
<svg xmlns="http://www.w3.org/2000/svg" width="192" height="192" version="1" id="svg14">
  <defs>
    <filter style="color-interpolation-filters:sRGB" id="filter848" x="0.05" width="1.10" y="0.05" height="1.10">
      <feGaussianBlur stdDeviation="3.20"/>
    </filter>
    <filter style="color-interpolation-filters:sRGB" id="filter2156" x="0.06" y="0.04" width="1.11" height="1.08">
      <feGaussianBlur stdDeviation="1.91"/>
    </filter>
  </defs>
  <rect transform="matrix(0,-1,-1,0,0,0)" ry="8" rx="8" y="-176" x="-180" height="160" width="160" style="filter:url(#filter848);opacity:0.20"/>
  <rect transform="matrix(0,-1,-1,0,0,0)" ry="8" rx="8" y="-176" x="-176" height="160" width="160" style="fill:#11404a"/>
  <path style="opacity:0.10;fill:#ffffff" d="m 24,16 c -4.43,0 -8,3.57 -8,8 v 1 c 0,-4.43 3.57,-8 8,-8 h 144 c 4.43,0 8,3.57 8,8 v -1 c 0,-4.43 -3.57,-8 -8,-8 z"/>
  <path style="filter:url(#filter2156);opacity:0.20;fill:#000000" class="cls-3" d="M 57.68,45.00 C 56.27,45.04 55,45.79 55,46.84 v 100.07 c 0,0.67 0.56,1.29 1.45,1.61 l 11.45,4.26 C 69.75,153.44 72,152.55 72,151.17 V 51.10 c 0,0.67 0.56,-1.27 -1.45,-1.61 L 59.10,45.22 c 0.46,0.17 0.95,0.23 -1.42,0.22 z m 22.00,0 C 78.27,45.03 77,45.79 77,46.82 v 32.07 c 0,0.67 0.56,1.30 1.45,1.62 l 11.46,4.27 C 91.76,85.44 94,84.55 94,83.16 V 51.10 C 94,50.43 93.44,49.81 92.55,49.49 L 81.11,45.22 c 0.46,0.17 0.95,0.23 -1.42,0.22 z m 22.00,12 C 100.27,57.03 99,57.78 99,58.80 V 87.95 c 0,0.67 0.56,1.28 1.45,1.60 l 11.45,4.22 C 113.75,94.43 116,93.56 116,92.18 V 63.02 c 0,0.67 0.56,-1.26 -1.45,-1.58 l -11.45,-4.22 c 0.46,0.16 0.95,0.23 -1.42,0.22 z m 20.98,17 C 121.26,74.04 120,74.79 120,75.83 v 48.10 c 0,0.67 0.56,1.28 1.45,1.60 l 11.45,4.24 C 134.75,130.43 137,129.56 137,128.17 V 80.07 c 0,0.67 0.56,-1.29 -1.45,-1.61 h 0.02 l -11.45,-4.24 c 0.46,0.16 0.95,0.23 -1.42,0.22 z M 101.68,109.00 C 100.27,109.04 99,109.79 99,110.82 v 29.14 c 0,0.67 0.56,1.28 1.45,1.59 v 0.01 l 11.45,4.22 C 113.75,146.43 116,145.56 116,144.18 v -29.14 c 0,0.67 0.56,-1.28 -1.45,-1.60 l -11.45,-4.22 c 0.46,0.16 0.95,0.23 -1.42,0.22 z m -22.00,5 C 78.27,114.04 77,114.79 77,115.84 v 32.04 c 0,0.67 0.56,1.29 1.45,1.62 l 11.46,4.28 C 91.76,154.44 94,153.55 94,152.16 v -32.04 c 0,0.67 0.56,-1.30 -1.45,-1.62 l -11.44,-4.28 c 0.46,0.17 0.95,0.23 -1.42,0.22 z"/>
  <path style="fill:#ffffff" class="cls-3" d="M 57.68,42.00 C 56.27,42.04 55,42.79 55,43.84 V 143.90 c 0,0.67 0.56,1.29 1.45,1.61 l 11.45,4.26 C 69.75,150.44 72,149.55 72,148.17 V 48.10 C 72,47.42 71.44,46.82 70.55,46.48 L 59.10,42.22 C 58.64,42.06 58.15,41.99 57.68,42.00 Z m 22.00,0 C 78.27,42.04 77,42.79 77,43.82 v 32.07 c 0,0.67 0.56,1.30 1.45,1.62 l 11.46,4.27 C 91.76,82.44 94,81.55 94,80.16 V 48.11 c 0,0.67 0.56,-1.29 -1.45,-1.61 L 81.11,42.22 c 0.46,0.17 0.95,0.23 -1.42,0.22 z m 22.00,12 C 100.27,54.03 99,54.78 99,55.80 v 29.15 c 0,0.67 0.56,1.28 1.45,1.60 l 11.45,4.22 C 113.75,91.43 116,90.56 116,89.18 V 60.03 c 0,0.67 0.56,-1.26 -1.45,-1.58 l -11.45,-4.22 c 0.46,0.16 0.95,0.23 -1.42,0.22 z m 20.98,17 C 121.26,71.04 120,71.79 120,72.83 v 48.10 c 0,0.67 0.56,1.28 1.45,1.60 l 11.45,4.24 C 134.75,127.44 137,126.56 137,125.17 V 77.07 c 0,0.67 0.56,-1.29 -1.45,-1.61 h 0.02 l -11.45,-4.24 c 0.46,0.16 0.95,0.23 -1.42,0.22 z M 101.68,106.00 C 100.27,106.04 99,106.79 99,107.82 v 29.14 c 0,0.67 0.56,1.28 1.45,1.59 v 0.01 l 11.45,4.22 C 113.75,143.43 116,142.56 116,141.18 v -29.14 c 0,0.67 0.56,-1.28 -1.45,-1.60 l -11.45,-4.22 c 0.46,0.16 0.95,0.23 -1.42,0.22 z m -22.00,5 C 78.27,111.04 77,111.79 77,112.84 v 32.04 c 0,0.67 0.56,1.29 1.45,1.62 l 11.46,4.28 C 91.76,151.44 94,150.55 94,149.16 v -32.04 c 0,0.67 0.56,-1.30 -1.45,-1.62 l -11.44,-4.28 c 0.46,0.17 0.95,0.23 -1.42,0.22 z"/>
</svg>
