<?xml version='1.0' encoding='utf-8'?>
<svg xmlns:xlink="http://www.w3.org/1999/xlink" xmlns="http://www.w3.org/2000/svg" width="192" height="192" version="1" id="svg28">
  <defs>
    <linearGradient id="linearGradient4979">
      <stop style="stop-color:#affa25;stop-opacity:1" offset="0"/>
      <stop style="stop-color:#affa25;stop-opacity:0" offset="1"/>
    </linearGradient>
    <linearGradient xlink:href="#linearGradient4979" id="linearGradient4981" x1="44.07" y1="107.67" x2="170.57" y2="141.25" gradientUnits="userSpaceOnUse"/>
    <filter style="color-interpolation-filters:sRGB" id="filter7343" x="0.05" y="0.05" width="1.10" height="1.10">
      <feGaussianBlur stdDeviation="2.60"/>
    </filter>
    <filter style="color-interpolation-filters:sRGB" id="filter7385" x="0.05" y="0.05" width="1.10" height="1.10">
      <feGaussianBlur stdDeviation="3.20"/>
    </filter>
  </defs>
  <path style="filter:url(#filter7385);opacity:0.20;fill:#000000" d="m 96,20 a 80,80 0 0 0 -80,80 v 62 c 0,9.97 8.03,18 18,18 H 96 A 80,80 0 0 0 176,100 80,80 0 0 0 96,20 Z"/>
  <path style="fill:#65777a" d="M 96 16 A 80 80 0 0 0 16 96 L 16 158 C 16 167.97 24.03 176 34 176 L 96 176 A 80 80 0 0 0 176 96 A 80 80 0 0 0 96 16 z "/>
  <circle style="fill:#0891ff" cx="96" cy="96" r="63"/>
  <path style="fill:#01d8db" d="M 153.73 66.16 C 144.16 68.18 132.25 74.13 126.82 77.81 C 102.52 94.25 94.11 126.38 67.43 138.56 C 62.38 140.86 56.34 141.52 50.29 141.98 A 65 65 0 0 0 96 161 A 65 65 0 0 0 161 96 A 65 65 0 0 0 153.73 66.16 z "/>
  <path style="fill:url(#linearGradient4981)" d="M 39.54 94.98 C 36.73 95.02 33.83 95.17 31.04 95.47 A 65 65 0 0 0 31 96 A 65 65 0 0 0 96 161 A 65 65 0 0 0 157.48 116.69 C 149.01 119.54 139.98 123.98 131.45 124 C 102.12 124.06 82.92 100.67 53.99 95.88 C 50.56 95.31 45.22 94.91 39.54 94.98 z "/>
  <path style="filter:url(#filter7343);opacity:0.20;fill:#000000" d="M 96,34 A 65,65 0 0 0 31,99 65,65 0 0 0 96,164 65,65 0 0 0 161,99 65,65 0 0 0 96,34 Z m 0,10 A 55,55 0 0 1 151,99 55,55 0 0 1 96,154 55,55 0 0 1 41,99 55,55 0 0 1 96,44 Z"/>
  <path style="fill:#ffffff" d="M 96 31 A 65 65 0 0 0 31 96 A 65 65 0 0 0 96 161 A 65 65 0 0 0 161 96 A 65 65 0 0 0 96 31 z M 96 41 A 55 55 0 0 1 151 96 A 55 55 0 0 1 96 151 A 55 55 0 0 1 41 96 A 55 55 0 0 1 96 41 z "/>
  <path style="opacity:0.10;fill:#ffffff" d="M 96 16 A 80 80 0 0 0 16 96 L 16 97 A 80 80 0 0 1 96 17 A 80 80 0 0 1 175.98 96.25 A 80 80 0 0 0 176 96 A 80 80 0 0 0 96 16 z "/>
</svg>
