<?xml version='1.0' encoding='utf-8'?>
<svg xmlns="http://www.w3.org/2000/svg" width="192" height="192" version="1" id="svg14">
  <defs>
    <filter style="color-interpolation-filters:sRGB" id="filter848" x="-0.048000001" width="1.096" y="-0.048000001" height="1.096">
      <feGaussianBlur stdDeviation="3.2"/>
    </filter>
    <filter style="color-interpolation-filters:sRGB" id="filter846" x="-0.059999838" width="1.1199997" y="-0.040000073" height="1.0800001">
      <feGaussianBlur stdDeviation="1.4999959"/>
    </filter>
  </defs>
  <rect transform="matrix(0,-1,-1,0,0,0)" ry="8" rx="8" y="-176" x="-180" height="160" width="160" style="filter:url(#filter848);opacity:0.2"/>
  <rect transform="matrix(0,-1,-1,0,0,0)" ry="8" rx="8" y="-176" x="-176" height="160" width="160" style="fill:#ef3124"/>
  <path style="opacity:0.2;fill:#ffffff" d="m 24,16 c -4.432,0 -8,3.568 -8,8 v 1 c 0,-4.432 3.568,-8 8,-8 h 144 c 4.432,0 8,3.568 8,8 v -1 c 0,-4.432 -3.568,-8 -8,-8 z"/>
  <path d="m 95.863281,52.001953 a 6.0006,6.0006 0 0 0 -5.367187,3.609375 l -23,53.000002 11.007812,4.77734 L 83.445312,102 h 24.322268 l 4.6914,11.30078 11.08204,-4.60156 -22,-53.000001 A 6.0006,6.0006 0 0 0 95.863281,52.001953 Z M 95.876953,73.353516 102.78711,90 H 88.652344 Z M 66,130 v 12 h 60 v -12 z" style="filter:url(#filter846);opacity:0.2;fill:#000000"/>
  <path style="fill:#ffffff" d="M 95.863281 50.001953 A 6.0006 6.0006 0 0 0 90.496094 53.611328 L 67.496094 106.61133 L 78.503906 111.38867 L 83.445312 100 L 107.76758 100 L 112.45898 111.30078 L 123.54102 106.69922 L 101.54102 53.699219 A 6.0006 6.0006 0 0 0 95.863281 50.001953 z M 95.876953 71.353516 L 102.78711 88 L 88.652344 88 L 95.876953 71.353516 z M 66 128 L 66 140 L 126 140 L 126 128 L 66 128 z "/>
</svg>
