<svg xmlns="http://www.w3.org/2000/svg" id="svg28" width="192" height="192" version="1"><defs><filter style="color-interpolation-filters:sRGB" id="filter24400" width="1.1" height="1.1" x=".05" y=".05"><feGaussianBlur stdDeviation="3.2"/></filter><filter style="color-interpolation-filters:sRGB" id="filter24524" width="1.11" height="1.41" x=".06" y=".2"><feGaussianBlur stdDeviation="1.79"/></filter><filter style="color-interpolation-filters:sRGB" id="filter24566" width="1.23" height="1.22" x=".11" y=".11"><feGaussianBlur stdDeviation="4.84"/></filter></defs><rect width="160" height="160" x="-180" y="-176" rx="65" ry="65" transform="matrix(0,-1,-1,0,0,0)" style="filter:url(#filter24400);opacity:.2;fill:#000"/><path style="fill:#ed3950" d="m -111,-176 h 30 c 36.01,0 65,28.99 65,65 v 30 c 0,36.01 -28.99,65 -65,65 h -30 c -30.68,0 -56.27,-21.05 -63.17,-49.56 -1.20,-4.95 4.06,-17.86 5.91,-22.86 l 9.48,-25.60 c 9.25,-24.99 -1.34,-46.43 21.51,-56.49 C -129.25,-174.04 -120.36,-176 -111,-176 Z" transform="matrix(0,-1,-1,0,0,0)"/><path style="filter:url(#filter24566);opacity:.2;fill:#000" d="M 115,68.62 V 83.60 C 108.97,81.83 102.60,80.90 95.95,81 c -1.68,0.02 -3.40,0.23 -5.12,0.59 L 80,70.04 v 15.94 c -7.55,4.63 -13.52,12.06 -14.22,20.51 -1.45,17.47 22.71,32.64 17.83,49.48 -1.81,6.23 -4.20,10.19 -11.75,15.64 -1.15,0.83 3.86,0.27 2.64,1.07 5.10,1.28 10.82,-9.41 8.36,0.41 l 21.08,-9.21 c 24.67,-10.78 48.60,-1.39 58.49,-24.61 0.97,-2.33 6.36,-5.35 5.21,-7.66 -8.33,-16.74 -21.31,-32.28 -37.69,-41.61 z"/><path style="fill:#e3b369" d="M 115 66.62 L 115 81.60 C 108.97 79.83 102.60 78.90 95.95 79 C 94.26 79.02 92.54 79.23 90.82 79.59 L 80 68.04 L 80 83.98 C 72.45 88.61 66.48 96.03 65.78 104.49 C 64.33 121.96 88.49 137.13 83.61 153.97 C 81.53 161.15 74.37 167.94 65.06 174.04 C 70.16 175.32 75.50 176 81 176 L 111 176 C 137.92 176 160.91 159.79 170.81 136.57 C 162.81 117.26 148.58 98.61 129.95 87.99 L 115 66.62 z"/><path style="opacity:.2;fill:#fff" d="M 115 66.62 L 115 67.62 L 129.95 88.99 C 148.41 99.51 162.55 117.93 170.59 137.06 C 170.66 136.90 170.74 136.73 170.81 136.57 C 162.81 117.26 148.58 98.61 129.95 87.99 L 115 66.62 z M 80 68.04 L 80 69.04 L 90.82 80.59 C 92.54 80.23 94.26 80.02 95.95 80 C 102.60 79.90 108.97 80.83 115 82.60 L 115 81.60 C 108.97 79.83 102.60 78.90 95.95 79 C 94.26 79.02 92.54 79.23 90.82 79.59 L 80 68.04 z M 80 83.98 C 72.45 88.61 66.48 96.03 65.78 104.49 C 65.72 105.19 65.72 105.88 65.74 106.56 C 65.75 106.21 65.75 105.85 65.78 105.49 C 66.48 97.03 72.45 89.61 80 84.98 L 80 83.98 z M 84.24 149.83 C 84.21 151.20 84.02 152.58 83.61 153.97 C 81.53 161.15 74.37 167.94 65.06 174.04 C 65.43 174.13 65.80 174.20 66.17 174.28 C 74.92 168.38 81.62 161.86 83.61 154.97 C 84.11 153.24 84.30 151.53 84.24 149.83 z"/><path style="filter:url(#filter24524);opacity:.2;fill:#000" d="M 58.14,105 A 19.06,19 0 0 0 58,107 19.06,19 0 0 0 77.06,126 19.06,19 0 0 0 96.00,108.93 19.06,19 0 0 0 114.94,126 19.06,19 0 0 0 134,107 19.06,19 0 0 0 133.89,105 H 96.02 Z"/><path style="fill:#39484b" d="M 58.14,104 A 19.06,19 0 0 0 58,106 19.06,19 0 0 0 77.06,125 19.06,19 0 0 0 96.00,107.93 19.06,19 0 0 0 114.94,125 19.06,19 0 0 0 134,106 19.06,19 0 0 0 133.89,104 H 96.02 Z"/><path style="fill:#39484b;color:#000" d="m 99.87,128.00 a 0.50,0.50 0 0 0 0.34,0.17 c 0,0 0.41,0.47 0.97,0.94 0.56,0.47 -1.28,0.89 -1.66,0.89 0.36,0.01 -1.33,0.43 -2.09,0.91 0.76,0.49 -1.38,0.98 -1.38,0.98 a 0.50,0.50 0 0 0 0.74,0.14 c 0,0 -1.10,1.75 -2.54,1.75 0.72,0 -1.56,0.44 -2.20,0.90 0.64,0.47 -1.07,0.93 -1.07,0.93 a 0.50,0.50 0 0 0 0.71,0.03 0.50,0.50 0 0 0 0.03,0.71 c 0,0 0.49,0.54 1.22,1.07 0.73,0.53 1.71,1.10 2.79,1.10 1.76,0 2.69,-1.26 3.06,-1.82 0.23,0.18 0.47,0.38 1.06,0.75 0.82,0.52 1.75,1.09 2.65,1.07 0.89,0.02 1.66,0.60 2.28,-1.13 0.62,0.52 1.08,-1.04 1.08,-1.04 a 0.50,0.50 0 0 0 0.05,0.71 0.50,0.50 0 0 0 0.36,0.12 z"/><path style="fill:#e8d9c3" d="M 89.71 136.47 C 86.64 136.47 83.66 136.85 80.81 137.54 C 83.61 142.93 85.24 148.36 83.61 153.97 C 81.53 161.15 74.37 167.94 65.05 174.04 C 70.15 175.31 75.49 176 81 176 L 111 176 C 118.55 176 125.78 174.71 132.51 172.37 C 131.80 141.91 110.04 136.47 89.71 136.47 z"/><path style="opacity:.2;fill:#fff" d="M 81 16 C 44.99 16 16 44.99 16 81 L 16 82 C 16 45.99 44.99 17 81 17 L 111 17 C 147.01 17 176 45.99 176 82 L 176 81 C 176 44.99 147.01 16 111 16 L 81 16 z"/></svg>