<?xml version='1.0' encoding='utf-8'?>
<svg xmlns="http://www.w3.org/2000/svg" width="192" height="192" version="1" id="svg16">
  <defs>
    <filter style="color-interpolation-filters:sRGB" id="filter864" x="-0.048000001" width="1.096" y="-0.048000001" height="1.096">
      <feGaussianBlur stdDeviation="3.2"/>
    </filter>
    <filter style="color-interpolation-filters:sRGB" id="filter2362" x="-0.048054204" y="-0.048016132" width="1.0961084" height="1.0960323">
      <feGaussianBlur stdDeviation="2.1207124"/>
    </filter>
  </defs>
  <rect style="filter:url(#filter864);opacity:0.2;fill:#000000" width="160" height="160" x="-180" y="-176" rx="80" ry="80" transform="matrix(0,-1,-1,0,0,0)"/>
  <rect transform="matrix(0,-1,-1,0,0,0)" ry="80" rx="80" y="-176" x="-176" height="160" width="160" style="fill:#14abfd"/>
  <path style="opacity:0.2;fill:#ffffff" d="M 96 16 C 51.684 16 16.007812 51.68 16.007812 96 C 16.007812 96.33544 16.009812 96.667215 16.007812 97 C 16.007812 52.68 51.684 17 96 17 C 140.316 17 175.99219 52.68 175.99219 97 C 175.99019 96.667215 175.99219 96.33544 175.99219 96 C 175.99219 51.68 140.316 16 96 16 z "/>
  <path style="fill:none" d="M 126,97.099609 96.00001,114.59957 66,132.09957 V 97.099602 62.099606 l 30.00001,17.500001 z"/>
  <path style="filter:url(#filter2362);opacity:0.2;fill:#000000" d="m 96,45.00029 a 53,53 0 0 0 -53,53 53,53 0 0 0 53,53 53,53 0 0 0 52.91602,-51.83594 l -6.19727,2.41992 A 47,47 0 0 1 96,145.00029 a 47,47 0 0 1 -47,-47 47,47 0 0 1 47,-47 47,47 0 0 1 41.29492,24.589844 l 5.63477,-2.201172 A 53,53 0 0 0 96,45.00029 Z m 47.40039,38.007812 c -3.18451,0.109338 -8.62522,1.489374 -16.49023,4.166016 l -9.83985,3.347656 -15.71484,-3.914062 C 88.130224,83.313132 85.148293,82.880562 82.533203,83.87529 l -3.107422,1.181641 8.916016,5.121093 c 4.903357,2.817027 9.606746,5.55094 10.453125,6.074219 1.13469,0.701531 -0.229585,1.550103 -5.197266,3.228517 -7.440394,2.51386 -12.756301,2.85815 -17.664062,1.14648 -2.386035,-0.83217 -3.852308,-0.7983 -5.583985,0.12891 L 68,102.01396 l 2.537109,2.04492 c 1.39551,1.12453 4.903563,3.22279 7.794922,4.66211 7.991409,3.97811 13.994306,3.08843 36.242189,-5.36718 26.88842,-10.219279 33.97319,-14.443716 32.1582,-19.175786 -0.32365,-0.843825 -1.42132,-1.235524 -3.33203,-1.169922 z"/>
  <path style="fill:#ffffff" d="m 114.57427,101.35351 c 26.88842,-10.219275 33.97372,-14.44427 32.15873,-19.17634 -0.86308,-2.250202 -7.23844,-1.286617 -19.82246,2.99601 l -9.84083,3.349053 -15.71437,-3.914649 C 88.130095,81.313004 85.148808,80.880152 82.533718,81.87488 l -3.107257,1.181944 8.915204,5.121868 c 4.903357,2.817027 9.607694,5.550006 10.454073,6.073285 1.13469,0.701531 -0.230638,1.549276 -5.198319,3.227689 -7.440394,2.513861 -12.755135,2.859124 -17.662896,1.147455 -2.386035,-0.832173 -3.853877,-0.798294 -5.585554,0.128916 L 68,100.01377 l 2.537302,2.04459 c 1.39551,1.12453 4.902954,3.22224 7.794313,4.66156 7.991409,3.97811 13.994773,3.0892 36.242655,-5.36641 z"/>
  <path style="fill:#8ad5fe" d="M 96 43 A 53 53 0 0 0 43 96 A 53 53 0 0 0 96 149 A 53 53 0 0 0 148.91602 97.164062 L 142.71875 99.583984 A 47 47 0 0 1 96 143 A 47 47 0 0 1 49 96 A 47 47 0 0 1 96 49 A 47 47 0 0 1 137.29492 73.589844 L 142.92969 71.388672 A 53 53 0 0 0 96 43 z "/>
</svg>
