<svg xmlns="http://www.w3.org/2000/svg" id="svg14" width="192" height="192" version="1"><defs><filter style="color-interpolation-filters:sRGB" id="filter844" width="1.1" height="1.1" x=".05" y=".05"><feGaussianBlur stdDeviation="3.2"/></filter><filter style="color-interpolation-filters:sRGB" id="filter870" width="1.1" height="1.1" x=".05" y=".05"><feGaussianBlur stdDeviation="2.2"/></filter></defs><rect style="filter:url(#filter844);opacity:.2;fill:#000" width="160" height="160" x="-180" y="-176" rx="80" ry="80" transform="matrix(0,-1,-1,0,0,0)"/><rect width="160" height="160" x="-176" y="-176" rx="80" ry="80" transform="matrix(0,-1,-1,0,0,0)" style="fill:#e4e4e4"/><path style="filter:url(#filter870);opacity:.1;fill:#000" d="M 66,42 A 24,24 0 0 0 42,66 24,24 0 0 0 66,90 24,24 0 0 0 90,66 24,24 0 0 0 66,42 Z m 57,4 a 19,19 0 0 0 -19,19 19,19 0 0 0 19,19 19,19 0 0 0 19,-19 19,19 0 0 0 -19,-19 z m 0,48 a 29,29 0 0 0 -29,29 29,29 0 0 0 29,29 29,29 0 0 0 29,-29 29,29 0 0 0 -29,-29 z m -57,18 a 14,14 0 0 0 -14,14 14,14 0 0 0 14,14 14,14 0 0 0 14,-14 14,14 0 0 0 -14,-14 z"/><path style="opacity:.2;fill:#fff" d="M 96.00,16 C 51.68,16.00 16,51.68 16,96 c 0,0.12 0.01,0.23 0.01,0.34 C 16.36,52.33 51.90,17.00 96.00,17 H 96 c 44.11,0.00 79.65,35.34 79.99,79.36 0.00,0.12 0.01,0.24 0.01,0.36 0,-44.32 -35.68,-80.00 -80.00,-80 z"/><circle style="fill:#0af" cx="66" cy="64" r="24"/><circle cx="123" cy="121" r="29" style="fill:#8cbf23"/><circle style="fill:#a169f7" cx="66" cy="124" r="14"/><circle cx="123" cy="63" r="19" style="fill:#ff6163"/></svg>