<?xml version='1.0' encoding='utf-8'?>
<svg xmlns="http://www.w3.org/2000/svg" width="192" height="192" version="1" id="svg18">
  <defs>
    <filter style="color-interpolation-filters:sRGB" id="filter860" x="0.05" width="1.10" y="0.05" height="1.09">
      <feGaussianBlur stdDeviation="3.28"/>
    </filter>
    <filter style="color-interpolation-filters:sRGB" id="filter31308" x="0.11" y="0.10" width="1.23" height="1.20">
      <feGaussianBlur stdDeviation="1.24"/>
    </filter>
  </defs>
  <path style="filter:url(#filter860);opacity:0.20;fill:#000000" d="M 96,16 19.64,73.30 c 0.16,0.11 0.31,0.23 0.47,0.35 l 0.09,0.07 v 0.01 C 17.22,75.19 16,77.43 16,80.00 V 112.00 176 c 0,4.43 3.57,8 8,8 h 144 c 4.43,0 8,-3.57 8,-8 V 112.00 80 80.00 c 0,-2.62 -1.27,-4.92 -3.20,-6.38 l 0.03,0.05 z"/>
  <path style="fill:#009c48" d="M 96,12 19.64,69.30 c 0.16,0.11 0.31,0.23 0.47,0.35 l 0.09,0.07 v 0.01 c -1.86,1.46 -3.08,3.71 -3.08,6.27 v 32 c 0,4.43 3.57,8 8,8 h 144 c 4.43,0 8,-3.57 8,-8 v -32 c 0,-2.62 -1.27,-4.92 -3.20,-6.38 l 0.03,0.05 z"/>
  <path style="opacity:0.10;fill:#ffffff" d="M 96 12 L 19.64 69.30 C 19.48 69.40 19.33 69.53 19.17 69.65 L 19.08 69.72 L 19.08 69.73 C 17.22 71.19 16 73.44 16 76 L 16 77 C 16 74.44 17.22 72.19 19.08 70.73 L 19.08 70.72 L 19.17 70.65 C 19.33 70.53 19.48 70.40 19.64 70.30 L 96 13 L 172.83 70.58 L 172.80 70.62 C 174.73 72.08 176 74.38 176 77 L 176 76 C 176 73.38 174.73 71.08 172.80 69.62 L 172.83 69.58 L 96 12 z "/>
  <rect style="fill:#ebebeb" ry="8" rx="8" y="28" x="32" height="104" width="128"/>
  <path style="fill:#00c659" d="M 16,76 168,180 H 24 c -4.43,0 -8,-3.57 -8,-8 z"/>
  <path style="fill:#00c659" d="m 168,180 c 4.43,0 8,-3.57 8,-8 V 76 L 24,180 Z"/>
  <path style="fill:#00dc64" d="M 96 130.74 L 24 180 L 168 180 L 96 130.74 z "/>
  <g aria-label="N" style="filter:url(#filter31308);opacity:0.20;fill:#000000" transform="matrix(1.76,0,0,1.58,-523.61,-30.44)">
    <path d="m 338.94,53.53 h 8.40 l 9.21,15.56 V 53.53 h 8.52 v 29.16 h -8.40 l -9.78,-16.20 v 16.20 h -7.95 z" style="fill:#000000"/>
  </g>
  <g aria-label="N" style="fill:#00dc64" transform="matrix(1.76,0,0,1.58,-523.61,-31.44)">
    <path d="m 338.94,53.53 h 8.40 l 9.21,15.56 V 53.53 h 8.52 v 29.16 h -8.40 l -9.78,-16.20 v 16.20 h -7.95 z" style="fill:#00dc64"/>
  </g>
</svg>
