<svg xmlns="http://www.w3.org/2000/svg" id="svg28" width="192" height="192" version="1"><defs><filter style="color-interpolation-filters:sRGB" id="filter6495" width="1.1" height="1.1" x=".05" y=".05"><feGaussianBlur stdDeviation="3.2"/></filter><filter style="color-interpolation-filters:sRGB" id="filter1925" width="1.16" height="1.14" x=".08" y=".07"><feGaussianBlur stdDeviation="2.94"/></filter></defs><rect width="160" height="160" x="-180" y="-176" rx="12" ry="12" transform="matrix(0,-1,-1,0,0,0)" style="filter:url(#filter6495);opacity:.2;fill:#000"/><rect width="160" height="160" x="-176" y="-176" rx="12" ry="12" transform="matrix(0,-1,-1,0,0,0)" style="fill:#e4e4e4"/><path style="filter:url(#filter1925);opacity:.2;fill:#000;mix-blend-mode:normal" d="M 53,48.00 V 147 H 68.06 75 87 v -31 h 22 v 31 h 33 V 91.00 L 75,71.90 V 48.00 Z"/><path style="fill:#4dbc15" d="M 53,46.00 V 145 H 68.06 75 87 v -31 h 22 v 31 h 33 V 89.00 L 75,69.90 V 46.00 Z"/><path style="opacity:.2;fill:#fff" d="M 28 16 C 21.35 16 16 21.35 16 28 L 16 29 C 16 22.35 21.35 17 28 17 L 164 17 C 170.65 17 176 22.35 176 29 L 176 28 C 176 21.35 170.65 16 164 16 L 28 16 z"/></svg>