<svg xmlns="http://www.w3.org/2000/svg" id="svg10" width="192" height="192" version="1"><defs><filter style="color-interpolation-filters:sRGB" id="filter852" width="1.11" height="1.08" x=".06" y=".04"><feGaussianBlur stdDeviation="2.64"/></filter></defs><path d="m 104,24.00 c -8,0 -24,4.00 -24,14.81 v 74.25 c -2.61,0.69 -5.30,-1.05 -8,-1.06 -17.67,0 -32,14.33 -32,32 0,17.67 14.33,32 32,32 16.11,0.02 29.70,-12.01 31.72,-28 0,0 0.28,-2.91 0.28,-4 V 76 c 0,-36 40.15,12.44 48,20 0,-16 -4,-72 -48,-72 z" style="filter:url(#filter852);opacity:.2;fill:#000"/><path style="fill:#3c8cf8" d="m 104,20 c -8,0 -24,4.00 -24,14.81 v 74.25 c -2.61,0.69 -5.30,-1.05 -8,-1.06 -17.67,0 -32,14.33 -32,32 0,17.67 14.33,32 32,32 16.11,0.02 29.70,-12.01 31.72,-28 0,0 0.28,-2.91 0.28,-4 v -68 c 0,-36 40.15,12.44 48,20 0,-16 -4,-72 -48,-72 z"/><path style="opacity:.2;fill:#fff" d="M 104 20 C 96 20 80 24.00 80 34.81 L 80 35.81 C 80 25.00 96 21 104 21 C 147.19 21 151.83 74.86 151.98 91.98 C 151.99 91.99 152.00 92.00 152 92 C 152 76 148 20 104 20 z M 72 108.00 L 72 108 C 54.33 108 40 122.33 40 140 C 40 140.14 40.01 140.28 40.01 140.42 C 40.33 123.01 54.52 109 72 109 L 72 109.00 C 74.70 109.01 77.39 109.37 80 110.06 L 80 109.06 C 77.39 108.37 74.70 108.01 72 108.00 z"/></svg>