<?xml version='1.0' encoding='utf-8'?>
<svg xmlns="http://www.w3.org/2000/svg" width="192" height="192" version="1" id="svg14">
  <defs>
    <filter style="color-interpolation-filters:sRGB" id="filter9374" x="0.06" y="0.05" width="1.11" height="1.10">
      <feGaussianBlur stdDeviation="3.20"/>
    </filter>
    <filter style="color-interpolation-filters:sRGB" id="filter9434" x="0.11" y="0.11" width="1.22" height="1.22">
      <feGaussianBlur stdDeviation="4.23"/>
    </filter>
  </defs>
  <path style="filter:url(#filter9374);opacity:0.20;fill:#000000" d="m 102,20 a 80,80 0 0 0 -80,80 80,80 0 0 0 80,80 80,80 0 0 0 56.27,-23.42 L 130.05,128.37 A 40,40 0 0 0 142,100 40,40 0 0 0 130.12,71.56 l 28.28,-28.28 A 80,80 0 0 0 102,20 Z"/>
  <path style="fill:#00b7f9" d="m 102,16 a 80,80 0 0 0 -80,80 80,80 0 0 0 80,80 80,80 0 0 0 56.27,-23.42 L 130.05,124.37 A 40,40 0 0 0 142,96 40,40 0 0 0 130.12,67.56 l 28.28,-28.28 A 80,80 0 0 0 102,16 Z"/>
  <path style="filter:url(#filter9434);opacity:0.20;fill:#000000" d="m 102,51 a 47,47 0 0 0 -47,47 47,47 0 0 0 47,47 47,47 0 0 0 47,-47 47,47 0 0 0 -47,-47 z m 0,10 a 37,37 0 0 1 37,37 37,37 0 0 1 -37,37 37,37 0 0 1 -37,-37 37,37 0 0 1 37,-37 z m -27,21 10.16,36 h 9.60 l 5.36,-18.86 c 0.11,0.40 0.26,0.98 0.45,-1.71 0.19,0.77 0.37,-1.58 0.56,-2.42 0.19,0.87 0.35,-1.70 0.50,-2.47 0.19,0.81 0.30,-1.43 0.34,-1.87 0.07,0.44 0.19,1.06 0.33,1.87 0.15,0.77 0.32,1.60 0.50,2.47 0.22,0.87 0.41,1.68 0.56,2.42 0.19,0.74 0.34,1.29 0.45,1.66 L 109.23,118 h 9.60 L 129,82 h -8.32 l -5.08,19.66 c 0.19,0.77 0.43,1.75 0.73,2.92 0.26,1.18 0.50,2.35 0.72,3.53 0.22,1.14 0.39,2.13 0.50,2.97 0.11,0.81 0.28,-1.80 0.50,-2.97 0.22,-1.18 0.47,-2.32 0.73,-3.43 0.22,-1.11 0.43,-1.95 0.61,-2.52 L 105.99,82 h -7.98 l -5.81,20.17 c 0.19,0.61 0.41,1.46 0.67,2.57 0.22,1.08 0.45,2.20 0.67,3.38 0.22,1.14 0.39,2.13 0.50,2.97 0.11,0.81 0.28,-1.80 0.50,-2.97 0.22,-1.18 0.46,-2.35 0.72,-3.53 0.26,-1.18 0.50,-2.15 0.73,-2.92 L 83.32,82 Z"/>
  <path style="fill:#ffffff" d="m 102,49 a 47,47 0 0 0 -47,47 47,47 0 0 0 47,47 47,47 0 0 0 47,-47 47,47 0 0 0 -47,-47 z m 0,10 a 37,37 0 0 1 37,37 37,37 0 0 1 -37,37 37,37 0 0 1 -37,-37 37,37 0 0 1 37,-37 z m -27,21 10.16,36 h 9.60 l 5.36,-18.86 c 0.11,0.40 0.26,0.98 0.45,-1.71 0.19,0.77 0.37,-1.58 0.56,-2.42 0.19,0.87 0.35,-1.70 0.50,-2.47 0.19,0.81 0.30,-1.43 0.34,-1.87 0.07,0.44 0.19,1.06 0.33,1.87 0.15,0.77 0.32,1.60 0.50,2.47 0.22,0.87 0.41,1.68 0.56,2.42 0.19,0.74 0.34,1.29 0.45,1.66 L 109.23,116 h 9.60 L 129,80 h -8.32 l -5.08,19.66 c 0.19,0.77 0.43,1.75 0.73,2.92 0.26,1.18 0.50,2.35 0.72,3.53 0.22,1.14 0.39,2.13 0.50,2.97 0.11,0.81 0.28,-1.80 0.50,-2.97 0.22,-1.18 0.47,-2.32 0.73,-3.43 0.22,-1.11 0.43,-1.95 0.61,-2.52 L 105.99,80 h -7.98 l -5.81,20.17 c 0.19,0.61 0.41,1.46 0.67,2.57 0.22,1.08 0.45,2.20 0.67,3.38 0.22,1.14 0.39,2.13 0.50,2.97 0.11,0.81 0.28,-1.80 0.50,-2.97 0.22,-1.18 0.46,-2.35 0.72,-3.53 0.26,-1.18 0.50,-2.15 0.73,-2.92 L 83.32,80 Z"/>
  <path style="opacity:0.20;fill:#ffffff" d="M 102 16 A 80 80 0 0 0 22 96 A 80 80 0 0 0 22.04 96.50 A 80 80 0 0 1 102 17 A 80 80 0 0 1 157.87 39.81 L 158.41 39.28 A 80 80 0 0 0 102 16 z M 130.58 68.11 L 130.12 68.56 A 40 40 0 0 1 141.95 96.49 A 40 40 0 0 0 142 96 A 40 40 0 0 0 130.58 68.11 z M 130.51 124.83 A 40 40 0 0 1 130.05 125.37 L 157.73 153.05 A 80 80 0 0 0 158.27 152.58 L 130.51 124.83 z "/>
</svg>
