<?xml version='1.0' encoding='utf-8'?>
<svg xmlns="http://www.w3.org/2000/svg" width="192" height="192" version="1.1" id="svg14">
  <defs>
    <filter style="color-interpolation-filters:sRGB" id="filter849" x="0.05" y="0.05" width="1.10" height="1.10">
      <feGaussianBlur stdDeviation="3.20"/>
    </filter>
    <filter style="color-interpolation-filters:sRGB" id="filter2907" x="0.04" y="0.06" width="1.08" height="1.12">
      <feGaussianBlur stdDeviation="1.90"/>
    </filter>
    <filter style="color-interpolation-filters:sRGB" id="filter3049" x="0.04" y="0.06" width="1.08" height="1.12">
      <feGaussianBlur stdDeviation="1.50"/>
    </filter>
  </defs>
  <circle style="filter:url(#filter849);opacity:0.20" cx="96" cy="100" r="80"/>
  <circle style="fill:#0e7dec" cx="96" cy="96" r="80"/>
  <path style="filter:url(#filter2907);opacity:0.20;fill:#000000;color:#000000" d="m 93,52.00 c -19.29,0 -35.21,14.69 -37.53,33.39 C 46.54,88.56 40,97.06 40,107 c 0,12.58 10.42,23 23,23 h 61.50 C 139.57,130 152,117.57 152,102.50 152,88.60 141.38,77.07 127.91,75.35 122.09,61.54 108.51,52.00 93.00,52.00 a 10.00,10.00 0 0 0 0.00,0 z"/>
  <path style="opacity:0.20;fill:#ffffff" d="M 96,16 A 80,80 0 0 0 16,96 80,80 0 0 0 16.02,96.64 80,80 0 0 1 96,17 80,80 0 0 1 175.98,96.30 80,80 0 0 0 176,96 80,80 0 0 0 96,16 Z"/>
  <path style="fill:#00439f;color:#000000" d="M 93 50 C 73.71 50 57.79 64.69 55.47 83.39 C 46.54 86.56 40 95.06 40 105 C 40 117.58 50.42 128 63 128 L 124.50 128 C 139.57 128 152 115.57 152 100.50 C 152 86.60 141.38 75.07 127.91 73.35 C 122.09 59.54 108.51 50.00 93.00 50 A 10.00 10.00 0 0 0 93 50 z M 93.00 70 L 93 70 C 99.38 70.00 105.00 73.27 108.20 78.36 C 106.42 79.67 104.78 81.20 103.34 82.93 A 5 5 0 0 0 103.99 89.97 A 5 5 0 0 0 111.04 89.32 C 111.32 88.98 111.62 88.66 111.92 88.34 A 10.00 10.00 0 0 0 122.95 93.21 C 123.47 93.08 124.01 93.02 124.54 93.01 C 128.78 93.03 132 96.25 132 100.50 C 132 104.76 128.76 108 124.50 108 L 63 108 C 61.22 108 60 106.78 60 105 C 60 103.22 61.22 102 63 102 L 65.29 102 A 10.00 10.00 0 0 0 75.19 90.57 C 75.06 89.72 75.00 88.86 75 88 L 75 88.00 L 75 88.00 C 75.00 77.94 82.94 70.00 93.00 70 z "/>
  <path style="filter:url(#filter3049);opacity:0.20;fill:#000000" d="m 93,62 c -15.46,0 -28,12.54 -28,28 0.00,1.34 0.10,2.68 0.29,4 H 63 c -7.18,0 -13,5.82 -13,13 0,7.18 5.82,13 13,13 h 61.50 c 9.66,0 17.50,-7.84 17.50,-17.50 0,-9.66 -7.84,-17.50 -17.50,-17.50 -1.30,0.01 -2.60,0.18 -3.87,0.48 0.00,0.01 0.01,0.03 0.01,0.04 -3.73,0.85 -7.10,2.90 -9.58,5.88 a 5,5 0 0 1 -7.04,0.65 5,5 0 0 1 0.65,-7.04 c 3.63,-4.37 8.50,-7.47 13.89,-8.95 C 112.34,67.54 103.24,62.00 93,62 Z"/>
  <path style="fill:#ffffff" d="M 93 60 C 77.54 60 65 72.54 65 88 C 65.00 89.34 65.10 90.68 65.29 92 L 63 92 C 55.82 92 50 97.82 50 105 C 50 112.18 55.82 118 63 118 L 124.50 118 C 134.16 118 142 110.16 142 100.50 C 142 90.84 134.16 83 124.50 83 C 123.20 83.01 121.90 83.18 120.63 83.48 C 120.62 83.47 120.62 83.45 120.62 83.44 C 116.89 84.29 113.52 86.33 111.04 89.32 A 5 5 0 0 1 103.99 89.97 A 5 5 0 0 1 103.34 82.93 C 106.97 78.56 111.84 75.46 117.23 73.98 C 112.34 65.54 103.24 60.00 93 60 z "/>
</svg>
