<?xml version='1.0' encoding='utf-8'?>
<svg xmlns="http://www.w3.org/2000/svg" width="192" height="192" version="1" id="svg28">
  <defs>
    <filter style="color-interpolation-filters:sRGB" id="filter6495" x="0.05" y="0.05" width="1.10" height="1.10">
      <feGaussianBlur stdDeviation="3.20"/>
    </filter>
    <filter style="color-interpolation-filters:sRGB" id="filter7523" x="0.17" y="0.08" width="1.33" height="1.16">
      <feGaussianBlur stdDeviation="4.00"/>
    </filter>
  </defs>
  <rect transform="matrix(0,-1,-1,0,0,0)" ry="12" rx="12" y="-176" x="-180" height="160" width="160" style="filter:url(#filter6495);opacity:0.20;fill:#000000"/>
  <rect transform="matrix(0,-1,-1,0,0,0)" ry="12" rx="12" y="-176" x="-176" height="160" width="160" style="fill:#d43036"/>
  <path style="opacity:0.20;fill:#ffffff" d="m 28,16 c -6.65,0 -12,5.35 -12,12 v 1 c 0,-6.65 5.35,-12 12,-12 h 136 c 6.65,0 12,5.35 12,12 v -1 c 0,-6.65 -5.35,-12 -12,-12 z"/>
  <path d="M 90.07,102.75 95.33,94.59 96,94.82 V 73.88 L 67.05,54.45 v 20.94 l 18.98,12.88 -5.26,8.19 -13.72,-9.33 v 20.94 l 4.37,2.98 -4.29,6.67 0.07,0.05 v 0.17 l 0.05,0.05 h 0.05 v 20.71 L 96,158 V 137.06 L 76.43,124.01 80.72,117.34 96,127.49 V 106.52 Z M 106,120.44 l 12,-9.77 v 11.71 l -12,9.77 z m 0,-30.81 12,-9.77 V 91.54 L 106,101.31 Z M 99,73.43 125,54.45 v 84.05 l -26,18.98 z m 0,-25.09 11,-8.70 v 5.71 l -5,4.07 v 8.53 l 5,-4.09 v 5.88 l -11,8.70 v -5.88 0 z M 80,38.20 96,49.12 v 5.01 L 91,50.76 V 67.80 L 85,63.81 V 46.46 l -5,-3.25 V 38.20" style="filter:url(#filter7523);opacity:0.20;fill:#000000;fill-rule:evenodd"/>
  <path d="M 90.07,100.75 95.33,92.59 96,92.82 V 71.88 L 67.05,52.45 v 20.94 l 18.98,12.88 -5.26,8.19 -13.72,-9.33 v 20.94 l 4.37,2.98 -4.29,6.67 0.07,0.05 v 0.17 l 0.05,0.05 h 0.05 v 20.71 L 96,156 V 135.06 L 76.43,122.01 80.72,115.34 96,125.49 V 104.52 Z M 106,118.44 l 12,-9.77 v 11.71 l -12,9.77 z m 0,-30.81 12,-9.77 v 11.68 l -12,9.77 z M 99,71.43 125,52.45 v 84.05 l -26,18.98 z m 0,-25.09 11,-8.70 v 5.71 l -5,4.07 v 8.53 l 5,-4.09 v 5.88 l -11,8.70 v -5.88 0 z M 80,36.20 96,47.12 v 5.01 L 91,48.76 V 65.80 L 85,61.81 V 44.46 l -5,-3.25 V 36.20" style="fill:#ffffff;fill-rule:evenodd"/>
</svg>
