<?xml version='1.0' encoding='utf-8'?>
<svg xmlns="http://www.w3.org/2000/svg" width="192" height="192" version="1" id="svg12">
  <defs>
    <filter style="color-interpolation-filters:sRGB" id="filter7393" x="0.04" y="0.06" width="1.08" height="1.11">
      <feGaussianBlur stdDeviation="2.82"/>
    </filter>
    <filter style="color-interpolation-filters:sRGB" id="filter7537" x="0.05" y="0.13" width="1.11" height="1.25">
      <feGaussianBlur stdDeviation="3.17"/>
    </filter>
  </defs>
  <path style="fill:#e4e4e4" d="M 25,62.91 96,92.11 167.36,51.43 V 145.38 H 25 Z"/>
  <path style="filter:url(#filter7537);opacity:0.20;fill:#000000" d="M 25,49.85 V 81.46 L 96,110.67 167.36,69.99 V 49.85 Z"/>
  <path style="fill:#ffffff" d="M 25 47.85 L 25 79.46 L 96 108.67 L 167.36 67.99 L 167.36 47.85 L 25 47.85 z "/>
  <path style="filter:url(#filter7393);opacity:0.20;fill:#000000;color:#000000" d="m 45.81,41.00 c -12.02,0 -21.58,5.04 -26.24,12.23 -4.67,7.19 -4.79,14.66 -4.44,19.77 l 0.02,0.68 v 13.66 a 10.00,10.00 0 0 0 6.33,9.30 L 92.38,123.27 a 10.00,10.00 0 0 0 8.69,0.66 l 42.97,-24.99 a 9.99,10.00 0 0 0 3.62,-13.66 9.99,10.00 0 0 0 -13.66,-3.62 L 95.21,102.90 35.08,79.18 v -6.86 a 10.00,10.00 0 0 0 0.02,0.68 c 0.19,-2.85 0.31,-6.03 1.27,-7.52 0.96,-1.48 2.03,-3.13 9.48,-3.13 H 146.96 c 5.13,0 7.31,0.88 8.31,1.84 1.00,0.96 2.74,3.78 2.74,12.22 v 58.34 c 0,1.48 0.49,3.11 -1.46,4.15 0.97,1.05 -2.68,2.42 -8.24,2.42 H 45.36 a 10.00,10.00 0 0 0 0.56,0.02 c -7.03,0.40 -7.51,-1.09 -8.41,-2.46 0.90,-1.37 -1.31,-4.19 -1.31,-5.35 v -9.20 a 9.99,10.00 0 0 0 -9.99,-10.00 9.99,10.00 0 0 0 -9.99,10.00 v 9.20 c 0,2.94 0.14,9.55 4.58,16.32 4.44,6.77 14.09,12.13 26.25,11.45 l 0.56,0.02 H 148.31 c 9.69,0 17.83,-3.35 22.89,-8.81 C 176.26,145.69 178,139.03 178,133.39 V 75.05 c 0,-11.30 -2.51,-20.51 -8.89,-26.64 -6.38,-6.13 -14.73,-7.41 -22.15,-7.41 z"/>
  <path style="fill:#f44336;color:#000000" d="m 45.81,37.00 c -12.02,0 -21.58,5.04 -26.24,12.23 -4.67,7.19 -4.79,14.66 -4.44,19.77 l 0.02,0.68 v 13.66 a 10.00,10.00 0 0 0 6.33,9.30 L 92.38,119.27 a 10.00,10.00 0 0 0 8.69,0.66 l 42.97,-24.99 a 9.99,10.00 0 0 0 3.62,-13.66 9.99,10.00 0 0 0 -13.66,-3.62 L 95.21,98.90 35.08,75.18 v -6.86 a 10.00,10.00 0 0 0 0.02,0.68 c 0.19,-2.85 0.31,-6.03 1.27,-7.52 0.96,-1.48 2.03,-3.13 9.48,-3.13 H 146.96 c 5.13,0 7.31,0.88 8.31,1.84 1.00,0.96 2.74,3.78 2.74,12.22 v 58.34 c 0,1.48 0.49,3.11 -1.46,4.15 0.97,1.05 -2.68,2.42 -8.24,2.42 H 45.36 a 10.00,10.00 0 0 0 0.56,0.02 c -7.03,0.40 -7.51,-1.09 -8.41,-2.46 0.90,-1.37 -1.31,-4.19 -1.31,-5.35 v -9.20 a 9.99,10.00 0 0 0 -9.99,-10.00 9.99,10.00 0 0 0 -9.99,10.00 v 9.20 c 0,2.94 0.14,9.55 4.58,16.32 4.44,6.77 14.09,12.13 26.25,11.45 l 0.56,0.02 H 148.31 c 9.69,0 17.83,-3.35 22.89,-8.81 C 176.26,141.69 178,135.03 178,129.39 V 71.05 c 0,-11.30 -2.51,-20.51 -8.89,-26.64 -6.38,-6.13 -14.73,-7.41 -22.15,-7.41 z"/>
  <path style="opacity:0.20;fill:#ffffff;color:#000000" d="M 45.81,37 C 33.79,37 24.23,42.04 19.56,49.23 15.82,55.00 15.01,60.93 15.01,65.70 15.13,61.12 16.08,55.60 19.56,50.23 24.23,43.04 33.79,38 45.81,38 H 146.96 c 7.42,0 15.77,1.28 22.15,7.41 C 175.50,51.54 178,60.75 178,72.05 v -1 C 178,59.75 175.50,50.54 169.11,44.41 162.73,38.28 154.38,37 146.96,37 Z"/>
</svg>
