<?xml version='1.0' encoding='utf-8'?>
<svg xmlns="http://www.w3.org/2000/svg" width="192" height="192" version="1" id="svg14">
  <defs>
    <filter style="color-interpolation-filters:sRGB" id="filter848" x="0.05" width="1.10" y="0.05" height="1.10">
      <feGaussianBlur stdDeviation="3.20"/>
    </filter>
    <filter style="color-interpolation-filters:sRGB" id="filter870" x="0.06" width="1.12" y="0.04" height="1.08">
      <feGaussianBlur stdDeviation="1.60"/>
    </filter>
  </defs>
  <rect transform="matrix(0,-1,-1,0,0,0)" ry="8" rx="8" y="-176" x="-180" height="160" width="160" style="filter:url(#filter848);opacity:0.20"/>
  <rect transform="matrix(0,-1,-1,0,0,0)" ry="8" rx="8" y="-176" x="-176" height="160" width="160" style="fill:#4f4f4f"/>
  <path style="opacity:0.10;fill:#ffffff" d="M 24 16 C 19.57 16 16 19.57 16 24 L 16 25 C 16 20.57 19.57 17 24 17 L 168 17 C 172.43 17 176 20.57 176 25 L 176 24 C 176 19.57 172.43 16 168 16 L 24 16 z "/>
  <path style="filter:url(#filter870);opacity:0.20" d="m 68,52.00 h 24 l 40,44 L 92,148 H 68 l 40,-52.00 m -40,-44"/>
  <path style="fill:#ff9b2a" d="m 68,48.00 h 24 l 40,44 L 92,144 H 68 l 40,-52.00 m -40,-44"/>
</svg>
