<?xml version='1.0' encoding='utf-8'?>
<svg xmlns="http://www.w3.org/2000/svg" width="192" height="192" version="1" id="svg18">
  <defs>
    <filter style="color-interpolation-filters:sRGB" id="filter859" x="-0.048000001" width="1.096" y="-0.048000001" height="1.096">
      <feGaussianBlur stdDeviation="3.2"/>
    </filter>
    <filter style="color-interpolation-filters:sRGB" id="filter885" x="-0.05142857" width="1.1028571" y="-0.045" height="1.09">
      <feGaussianBlur stdDeviation="1.2000001"/>
    </filter>
    <filter style="color-interpolation-filters:sRGB" id="filter898" x="-0.018099999" width="1.0362" y="-0.035606556" height="1.0712131">
      <feGaussianBlur stdDeviation="0.905"/>
    </filter>
  </defs>
  <rect style="filter:url(#filter859);opacity:0.2;fill:#000000" width="160" height="160" x="-180" y="-176" rx="80" ry="80" transform="matrix(0,-1,-1,0,0,0)"/>
  <rect transform="matrix(0,-1,-1,0,0,0)" ry="80" rx="80" y="-176" x="-176" height="160" width="160" style="fill:#e4e4e4"/>
  <path style="opacity:0.2;fill:#ffffff" d="M 96 16 C 51.684 16 16.007812 51.68 16.007812 96 C 16.007812 96.33544 16.009812 96.667215 16.007812 97 C 16.007812 52.68 51.684 17 96 17 C 140.316 17 175.99219 52.68 175.99219 97 C 175.99019 96.667215 175.99219 96.33544 175.99219 96 C 175.99219 51.68 140.316 16 96 16 z "/>
  <rect transform="matrix(0,-1,-1,0,0,0)" ry="60" rx="60" y="-156" x="-156" height="120" width="120" style="fill:#3f3f3f"/>
  <path d="M 79.070292,68.002028 A 6.904874,7.066546 0 0 0 72,75.064796 v 49.876864 a 6.904874,7.066546 0 0 0 10.35186,6.11482 l 21.11144,-12.45881 21.10148,-12.47963 a 6.904874,7.066546 0 0 0 0,-12.219208 L 103.4633,81.419196 82.35186,68.9604 a 6.904874,7.066546 0 0 0 -3.281568,-0.958372 z" style="filter:url(#filter885);opacity:0.2"/>
  <path d="M 79.070292,64.002028 A 6.904874,7.066546 0 0 0 72,71.064796 v 49.876864 a 6.904874,7.066546 0 0 0 10.35186,6.11482 l 21.11144,-12.45881 21.10148,-12.47963 a 6.904874,7.066546 0 0 0 0,-12.219208 L 103.4633,77.419196 82.35186,64.9604 a 6.904874,7.066546 0 0 0 -3.281568,-0.958372 z" style="fill:#23cbcb"/>
  <path style="opacity:0.2;fill:#ffffff" d="M 79.070312 64 A 6.904874 7.066546 0 0 0 72 71.0625 L 72 72.0625 A 6.904874 7.066546 0 0 1 79.070312 65 A 6.904874 7.066546 0 0 1 82.351562 65.960938 L 103.46094 78.421875 L 124.5625 90.898438 A 6.904874 7.066546 0 0 1 127.9707 96.537109 A 6.904874 7.066546 0 0 0 124.5625 89.898438 L 103.46094 77.421875 L 82.351562 64.960938 A 6.904874 7.066546 0 0 0 79.070312 64 z "/>
  <path style="filter:url(#filter898);opacity:0.2;fill:#000000" d="M 96 36 C 62.76 36 36 62.76 36 96 C 36 96.335547 36.019958 96.665794 36.025391 97 C 36.558158 64.227099 63.095547 38 96 38 C 128.90445 38 155.44184 64.227099 155.97461 97 C 155.98004 96.665794 156 96.335547 156 96 C 156 62.76 129.24 36 96 36 z "/>
</svg>
