<?xml version='1.0' encoding='utf-8'?>
<svg xmlns="http://www.w3.org/2000/svg" width="192" height="192" version="1" id="svg14">
  <defs>
    <filter style="color-interpolation-filters:sRGB" id="filter850" x="-0.048000001" width="1.096" y="-0.048000001" height="1.096">
      <feGaussianBlur stdDeviation="3.2"/>
    </filter>
    <filter style="color-interpolation-filters:sRGB" id="filter5024" x="-0.10742563" y="-0.10858054" width="1.2148513" height="1.2171611">
      <feGaussianBlur stdDeviation="4.2075039"/>
    </filter>
  </defs>
  <circle style="filter:url(#filter850);opacity:0.2;fill:#000000" cx="96" cy="100" r="80"/>
  <circle r="80" cy="96" cx="96" style="fill:#1a7ee2"/>
  <path style="fill:#38adfa" d="m 688.80525,256.99648 c -0.33229,-0.33229 -1.1948,-0.36781 -1.91667,-0.0789 -0.79773,0.31922 -0.56078,0.55618 0.60417,0.60416 1.05416,0.0434 1.64479,-0.19293 1.3125,-0.52522 z"/>
  <path style="opacity:0.2;fill:#ffffff" d="M 96 16 A 80 80 0 0 0 16 96 A 80 80 0 0 0 16.019531 96.472656 A 80 80 0 0 1 96 17 A 80 80 0 0 1 175.97461 96.513672 A 80 80 0 0 0 176 96 A 80 80 0 0 0 96 16 z "/>
  <path style="filter:url(#filter5024);opacity:0.2;fill:#000000;color:#000000" d="m 58.899396,52.001994 c -1.558807,-0.0961 -7.940703,3.005459 -3.14093,7.785156 l 6.025974,6.001953 C 50.984787,77.279377 46.422702,93.757696 50.451312,109.58988 c 5.145044,20.21972 23.099612,34.67287 43.953473,35.38282 20.853855,0.70994 39.749875,-12.48952 46.258385,-32.3125 6.04145,-18.400457 0.0975,-38.524445 -14.5561,-50.746097 -1.06168,-0.916254 -1.90169,-0.448644 -2.15841,-0.185546 l -9.18644,9.416015 c -1.24413,1.244014 -0.56941,1.565413 0.15822,2.292969 10.39505,7.990098 14.6706,21.652136 10.54008,34.232419 -4.31129,13.13093 -16.69697,21.78278 -30.510761,21.3125 C 81.135987,128.51219 69.366798,119.0383 65.958672,105.64457 63.327165,95.302905 66.209373,84.645392 73.133195,77.089885 l 8.379718,8.34375 c 1.716013,1.72493 7.490959,3.45754 7.490959,-3.212891 V 56.539103 c 0,-2.294068 -1.454319,-4.537109 -5.285668,-4.537109 z"/>
  <path style="fill:#ffffff;color:#000000" d="m 58.899396,50.001953 c -1.558807,-0.0961 -7.940703,3.005459 -3.14093,7.785156 l 6.025974,6.001953 C 50.984787,75.279336 46.422702,91.757655 50.451312,107.58984 c 5.145044,20.21972 23.099612,34.67287 43.953473,35.38282 20.853855,0.70994 39.749875,-12.48952 46.258385,-32.3125 6.04145,-18.400458 0.0975,-38.524446 -14.5561,-50.746098 -1.06168,-0.916254 -1.90169,-0.448644 -2.15841,-0.185546 l -9.18644,9.416015 c -1.24413,1.244014 -0.56941,1.565413 0.15822,2.292969 10.39505,7.990098 14.6706,21.652136 10.54008,34.23242 -4.31129,13.13093 -16.69697,21.78278 -30.510761,21.3125 -13.813772,-0.47027 -25.582961,-9.94416 -28.991087,-23.33789 -2.631507,-10.341666 0.250701,-20.999179 7.174523,-28.554686 l 8.379718,8.34375 c 1.716013,1.72493 7.490959,3.45754 7.490959,-3.212891 V 54.539062 c 0,-2.294068 -1.454319,-4.537109 -5.285668,-4.537109 z"/>
</svg>
