<?xml version='1.0' encoding='utf-8'?>
<svg xmlns="http://www.w3.org/2000/svg" width="192" height="192" version="1" id="svg14">
  <defs>
    <filter style="color-interpolation-filters:sRGB" id="filter850" x="0.05" width="1.10" y="0.05" height="1.10">
      <feGaussianBlur stdDeviation="3.20"/>
    </filter>
    <filter style="color-interpolation-filters:sRGB" id="filter2986" x="0.07" y="0.25" width="1.14" height="1.51">
      <feGaussianBlur stdDeviation="3.18"/>
    </filter>
  </defs>
  <circle style="filter:url(#filter850);opacity:0.20;fill:#000000" cx="96" cy="100" r="80"/>
  <circle r="80" cy="96" cx="96" style="fill:#4272f5"/>
  <path style="opacity:0.20;fill:#ffffff" d="M 96 16 A 80 80 0 0 0 16 96 A 80 80 0 0 0 16.02 96.47 A 80 80 0 0 1 96 17 A 80 80 0 0 1 175.97 96.51 A 80 80 0 0 0 176 96 A 80 80 0 0 0 96 16 z "/>
  <path style="fill:#38adfa" d="m 688.81,257.00 c 0.33,0.33 -1.19,0.37 -1.92,0.08 0.80,0.32 0.56,0.56 0.60,0.60 1.05,0.04 1.64,0.19 1.31,0.53 z"/>
  <path style="filter:url(#filter2986);opacity:0.20;fill:#000000" d="m 42,83.00 8.12,30.00 h 6.00 l 6.33,-20.11 6.03,20.11 h 5.95 L 83,83.00 H 76.84 L 71.39,102.09 65.67,83.00 h -6.31 l -6.04,19.18 -5.19,-19.18 z m 78.46,4.94 c -2.03,0.02 -4.14,0.51 -5.94,1.41 -5.68,2.86 -8.16,10.55 -5.35,16.60 2.32,5.00 8.26,7.98 13.48,6.76 1.61,0.37 3.66,-1.44 4.69,-2.44 L 128,109.44 v 1.78 1.78 H 131.10 134 v -12.50 -12.50 H 131.10 128 v 1.62 1.62 l 0.90,0.95 c -1.55,-1.62 -4.03,-2.37 -6.64,-2.35 z m -27.73,0.06 c -4.83,0.05 -8.24,2.35 -10.38,6.99 -1.80,3.89 -1.79,7.82 0.02,11.44 2.45,4.91 7.94,7.46 13.52,6.28 2.96,0.62 5.64,-2.42 7.26,-4.87 0.45,0.67 0.81,-1.40 0.81,-1.40 l -4.22,-2.62 c 0.86,1.31 -2.03,2.67 -3.44,3.44 -3.84,1.96 -8.70,0.19 -10.01,-4.42 l 0.18,0.85 H 95.55 105 l 0.00,-1.64 C 104.98,93.52 101.10,88.82 94.88,88.12 94.13,88.03 93.41,87.99 92.72,88.00 Z m 44.28,0 v 12.50 12.50 l 2.86,0.08 3.14,0.07 v -8.11 c 0,-7.99 0.01,-8.12 0.62,-9.13 1.14,-1.83 4.26,-2.60 6.59,-1.63 0.53,0.22 1.03,0.33 1.12,0.25 0.09,0.09 0.60,-1.25 1.13,-2.60 0.87,-2.17 0.93,-2.47 0.57,-2.76 0.69,0.54 -3.30,0.95 -4.93,0.78 -2.68,0.08 -4.05,1.28 -5.10,3.45 v -1.78 -1.78 h -3.21 z m -16.50,4.97 a 7.50,7.50 0 0 1 7.50,7.50 7.50,7.50 0 0 1 -7.50,7.50 7.50,7.50 0 0 1 -7.50,-7.50 7.50,7.50 0 0 1 7.50,-7.50 z M 93,93.00 a 7,7 0 0 1 6.32,4 H 86.68 a 7,7 0 0 1 6.32,-4 z"/>
  <path style="fill:#ffffff" d="M 42 81 L 50.12 111 L 56.12 111 L 62.45 90.89 L 68.48 111 L 74.42 111 L 83 81 L 76.84 81 L 71.39 100.09 L 65.67 81 L 59.36 81 L 53.32 100.18 L 48.13 81 L 42 81 z M 120.46 85.94 C 118.42 85.96 116.32 86.44 114.51 87.35 C 108.83 90.21 106.35 97.91 109.16 103.95 C 111.49 108.95 117.42 111.93 122.64 110.71 C 124.25 110.34 126.31 109.27 127.34 108.27 L 128 107.44 L 128 109.22 L 128 111 L 131.10 111 L 134 111 L 134 98.50 L 134 86 L 131.10 86 L 128 86 L 128 87.62 L 128 89.23 L 127.10 88.28 C 125.55 86.66 123.07 85.91 120.46 85.94 z M 92.72 86 C 87.89 86.05 84.49 88.35 82.34 92.99 C 80.55 96.88 80.55 100.81 82.36 104.44 C 84.82 109.34 90.30 111.89 95.88 110.72 C 98.84 110.09 101.52 108.30 103.14 105.85 C 103.59 105.18 103.95 104.45 103.95 104.45 L 99.73 101.83 C 98.86 103.14 97.70 104.50 96.29 105.28 C 92.45 107.23 87.59 105.08 86.28 100.85 L 86.10 100 L 95.55 100 L 105 100 L 105.00 98.36 C 104.98 91.52 101.10 86.82 94.88 86.12 C 94.13 86.03 93.41 85.99 92.72 86 z M 137 86 L 137 98.50 L 137 111 L 139.86 110.92 L 143 110.85 L 143 102.74 C 143 94.76 142.99 94.62 143.62 93.61 C 144.75 91.78 147.88 91.01 150.21 91.98 C 150.73 92.20 151.24 92.32 151.32 92.23 C 151.41 92.15 151.92 90.98 152.46 89.63 C 153.33 87.47 153.39 87.16 153.02 86.88 C 152.33 86.34 149.72 85.93 148.10 86.10 C 145.42 86.18 144.05 87.38 143 89.55 L 143 87.78 L 143 86 L 139.79 86 L 137 86 z M 120.50 90.97 A 7.50 7.50 0 0 1 128 98.47 A 7.50 7.50 0 0 1 120.50 105.97 A 7.50 7.50 0 0 1 113 98.47 A 7.50 7.50 0 0 1 120.50 90.97 z M 93 91 A 7 7 0 0 1 99.32 95 L 86.68 95 A 7 7 0 0 1 93 91 z "/>
</svg>
