<svg xmlns="http://www.w3.org/2000/svg" id="svg14" width="192" height="192" version="1.1"><defs><filter style="color-interpolation-filters:sRGB" id="filter846" width="1.07" height="1.14" x=".04" y=".07"><feGaussianBlur stdDeviation="2.48"/></filter><filter style="color-interpolation-filters:sRGB" id="filter865" width="1.1" height="1.1" x=".05" y=".05"><feGaussianBlur stdDeviation=".64"/></filter></defs><path style="filter:url(#filter846);opacity:.2;fill:#000" d="m 60,56 a 44,44 0 0 0 -44,44 44,44 0 0 0 44,44 44,44 0 0 0 42.29,-32 h 33.71 v 20.11 H 163.86 V 112 h 12.14 V 84 h -75.02 A 44,44 0 0 0 60.00,56 Z"/><path d="m 60,52 a 44,44 0 0 0 -44,44 44,44 0 0 0 44,44 44,44 0 0 0 42.29,-32 h 33.71 v 20.11 H 163.86 V 108 h 12.14 V 80 h -75.02 A 44,44 0 0 0 60.00,52 Z" style="fill:#22cae4"/><circle cx="60" cy="98" r="16" style="filter:url(#filter865);opacity:.1"/><circle cx="60" cy="96" r="16" style="fill:#f9f9f9"/><path style="opacity:.2;fill:#fff" d="M 60 52 A 44 44 0 0 0 16 96 A 44 44 0 0 0 16.02 96.42 A 44 44 0 0 1 60 53 A 44 44 0 0 1 100.98 81 L 176 81 L 176 80 L 100.98 80 A 44 44 0 0 0 60 52 z"/></svg>