<?xml version='1.0' encoding='utf-8'?>
<svg xmlns="http://www.w3.org/2000/svg" width="192" height="192" version="1" id="svg16">
  <defs>
    <filter style="color-interpolation-filters:sRGB" id="filter861" x="0.05" width="1.10" y="0.05" height="1.10">
      <feGaussianBlur stdDeviation="3.20"/>
    </filter>
    <filter style="color-interpolation-filters:sRGB" id="filter900" x="0.05" width="1.10" y="0.05" height="1.10">
      <feGaussianBlur stdDeviation="1.60"/>
    </filter>
  </defs>
  <circle style="filter:url(#filter861);opacity:0.20" cx="96" cy="100" r="80"/>
  <circle style="fill:#8d348e" cx="96" cy="96" r="80"/>
  <circle style="opacity:0.30" cx="102" cy="90" r="58"/>
  <path d="M 96,58 A 40,40 0 0 0 56,98 40,40 0 0 0 96,138 40,40 0 0 0 136,98 40,40 0 0 0 96,58 Z m -12,24 14,8 14,8 -14,8 -14,8 V 98 Z" style="filter:url(#filter900);opacity:0.20;fill:#000000"/>
  <path style="fill:#ffffff" d="M 96 56 A 40 40 0 0 0 56 96 A 40 40 0 0 0 96 136 A 40 40 0 0 0 136 96 A 40 40 0 0 0 96 56 z M 84 80 L 98 88 L 112 96 L 98 104 L 84 112 L 84 96 L 84 80 z "/>
  <path style="opacity:0.10;fill:#ffffff" d="M 96 16 A 80 80 0 0 0 16 96 A 80 80 0 0 0 16.02 96.49 A 80 80 0 0 1 96 17 A 80 80 0 0 1 175.97 96.49 A 80 80 0 0 0 176 96 A 80 80 0 0 0 96 16 z "/>
</svg>
