<?xml version='1.0' encoding='utf-8'?>
<svg xmlns="http://www.w3.org/2000/svg" width="192" height="192" version="1" id="svg14">
  <defs>
    <filter style="color-interpolation-filters:sRGB" id="filter860" x="0.05" width="1.10" y="0.05" height="1.10">
      <feGaussianBlur stdDeviation="3.20"/>
    </filter>
    <filter style="color-interpolation-filters:sRGB" id="filter4532" x="0.05" y="0.04" width="1.11" height="1.09">
      <feGaussianBlur stdDeviation="2.19"/>
    </filter>
  </defs>
  <circle style="filter:url(#filter860);opacity:0.20;fill:#000000" cx="96" cy="100" r="80"/>
  <circle style="fill:#0f4eac" cx="96" cy="96" r="80"/>
  <path style="opacity:0.10;fill:#ffffff" d="M 95.94,16 A 80,80 0 0 0 16,96 80,80 0 0 0 16.00,96.53 80,80 0 0 1 96,17 80,80 0 0 1 176.00,96.47 80,80 0 0 0 176,96 80,80 0 0 0 96,16 80,80 0 0 0 95.94,16 Z"/>
  <path style="filter:url(#filter4532);opacity:0.20;fill:#000000;stop-color:#000000" d="m 96,58 a 45,45 0 0 0 -45,45 45,45 0 0 0 45,45 45,45 0 0 0 45,-45 45,45 0 0 0 -45,-45 z m 0,23 a 22,22 0 0 1 22,22 22,22 0 0 1 -22,22 22,22 0 0 1 -22,-22 22,22 0 0 1 22,-22 z m -54,60 c 10.96,25.81 29.96,35.17 54,37 -9.33,-24.92 -32.72,-37.05 -54,-37 z m 54,37 c 17.98,-1.37 32.80,-7.71 41,-27 -15.92,0.04 -34.02,8.38 -41,27 z"/>
  <path style="fill:#ffb900;stop-color:#000000" d="m 96,56 a 45,45 0 0 0 -45,45 45,45 0 0 0 45,45 45,45 0 0 0 45,-45 45,45 0 0 0 -45,-45 z m 0,23 a 22,22 0 0 1 22,22 22,22 0 0 1 -22,22 22,22 0 0 1 -22,-22 22,22 0 0 1 22,-22 z"/>
  <path style="fill:#00be64;stop-color:#000000" d="m 42,139 c 10.96,25.81 29.96,35.17 54,37 -9.33,-24.92 -32.72,-37.05 -54,-37 z m 54,37 c 17.98,-1.37 32.80,-7.71 41,-27 -15.92,0.04 -34.02,8.38 -41,27 z"/>
  <path style="opacity:0.20;fill:#ffffff;stop-color:#000000" d="m 96,56 a 45,45 0 0 0 -45,45 45,45 0 0 0 0.04,0.50 A 45,45 0 0 1 96,57 45,45 0 0 1 140.98,101.26 45,45 0 0 0 141,101 45,45 0 0 0 96,56 Z m 21.97,45.26 A 22,22 0 0 1 96,123 22,22 0 0 1 74.06,101.50 22,22 0 0 0 74,102 a 22,22 0 0 0 22,22 22,22 0 0 0 22,-22 22,22 0 0 0 0.03,0.74 z M 42,139 c 0.15,0.35 0.30,0.68 0.45,1.02 20.86,0.12 43.62,11.91 53.14,35.94 C 95.73,175.97 95.86,175.99 96,176 86.67,151.08 63.28,138.95 42,139 Z m 54,37 c 0.14,0.01 0.28,0.03 0.42,0.04 7.18,-17.71 24.61,-25.82 40.11,-25.95 C 136.68,149.67 136.85,149.35 137,149 c -15.92,0.04 -34.02,8.38 -41,27 z"/>
</svg>
