<svg xmlns="http://www.w3.org/2000/svg" id="svg12" width="192" height="192" version="1"><defs><filter style="color-interpolation-filters:sRGB" id="filter860" width="1.1" height="1.1" x=".05" y=".05"><feGaussianBlur stdDeviation="3.2"/></filter><filter style="color-interpolation-filters:sRGB" id="filter853" width="1.09" height="1.11" x=".04" y=".05"><feGaussianBlur stdDeviation="1.71"/></filter></defs><rect style="filter:url(#filter860);opacity:.2" width="160" height="160" x="16" y="20" rx="8" ry="8"/><rect style="fill:#039ae3" width="160" height="160" x="16" y="16" rx="8" ry="8"/><path style="opacity:.2;fill:#fff" d="m 24,16 c -4.43,0 -8,3.57 -8,8 v 1 c 0,-4.43 3.57,-8 8,-8 h 144 c 4.43,0 8,3.57 8,8 v -1 c 0,-4.43 -3.57,-8 -8,-8 z"/><path d="M 48,72.35 91.00,123.73 101.27,136 116.60,123.16 142.68,101.34 132.41,89.07 106.34,110.89 63.34,59.51 Z" style="filter:url(#filter853);opacity:.2;fill:#000"/><path style="fill:#fff" d="M 48,70.35 91.00,121.73 101.27,134 116.60,121.16 142.68,99.34 132.41,87.07 106.34,108.89 63.34,57.51 Z"/></svg>