<svg xmlns="http://www.w3.org/2000/svg" id="svg16" width="192" height="192" version="1"><defs><filter style="color-interpolation-filters:sRGB" id="filter867" width="1.1" height="1.1" x=".05" y=".05"><feGaussianBlur stdDeviation="3.2"/></filter><filter style="color-interpolation-filters:sRGB" id="filter887" width="1.26" height="1.18" x=".13" y=".09"><feGaussianBlur stdDeviation=".59"/></filter></defs><rect width="160" height="160" x="-180" y="-176" rx="80" ry="80" transform="matrix(0,-1,-1,0,0,0)" style="filter:url(#filter867);opacity:.2;fill:#000"/><rect style="fill:#f59101" width="160" height="160" x="-176" y="-176" rx="80" ry="80" transform="matrix(0,-1,-1,0,0,0)"/><path style="opacity:.2;fill:#fff" d="M 96 16 C 51.68 16 16 51.68 16 96 C 16 96.34 16.00 96.67 16 97 C 16 52.68 51.68 17 96 17 C 140.32 17 176 52.68 176 97 C 176.00 96.67 176 96.34 176 96 C 176 51.68 140.32 16 96 16 z"/><g transform="matrix(6,0,0,6,-2022,2546.00)" style="filter:url(#filter887);opacity:.2;enable-background:new"><path d="m 160,173 c -2.22,0 -4,1.78 -4,4 v 8 c 0,2.22 1.78,4 4,4 2.22,0 4,-1.78 4,-4 v -8 c 0,-2.22 -1.78,-4 -4,-4 z m -8,10 v 2 c 0,4.13 3.05,7.52 7,7.95 V 196 h 2 v -3.05 c 3.95,0.43 7,-3.82 7,-7.95 v -2 h -2 v 2 c 0,3.32 -2.68,6 -6,6 -3.32,0 -6,-2.68 -6,-6 v -2 z" transform="matrix(0.67,0,0,0.67,246.33,-530.67)"/></g><g style="fill:#fff;enable-background:new"><path d="m 160,173 c -2.22,0 -4,1.78 -4,4 v 8 c 0,2.22 1.78,4 4,4 2.22,0 4,-1.78 4,-4 v -8 c 0,-2.22 -1.78,-4 -4,-4 z m -8,10 v 2 c 0,4.13 3.05,7.52 7,7.95 V 196 h 2 v -3.05 c 3.95,0.43 7,-3.82 7,-7.95 v -2 h -2 v 2 c 0,3.32 -2.68,6 -6,6 -3.32,0 -6,-2.68 -6,-6 v -2 z" transform="matrix(6,0,0,6,-2022,2544.02) matrix(0.67,0,0,0.67,246.33,-530.67)"/></g></svg>