<?xml version='1.0' encoding='utf-8'?>
<svg xmlns="http://www.w3.org/2000/svg" width="192" height="192" version="1" id="svg28">
  <defs>
    <filter style="color-interpolation-filters:sRGB" id="filter6495" x="0.05" y="0.05" width="1.10" height="1.10">
      <feGaussianBlur stdDeviation="3.20"/>
    </filter>
    <filter style="color-interpolation-filters:sRGB" id="filter8487" x="0.15" y="0.09" width="1.30" height="1.19">
      <feGaussianBlur stdDeviation="4.56"/>
    </filter>
    <filter style="color-interpolation-filters:sRGB" id="filter8629" x="0.10" y="0.06" width="1.20" height="1.12">
      <feGaussianBlur stdDeviation="2.03"/>
    </filter>
  </defs>
  <rect transform="matrix(0,-1,-1,0,0,0)" ry="12" rx="12" y="-176" x="-180" height="160" width="160" style="filter:url(#filter6495);opacity:0.20;fill:#000000"/>
  <rect transform="matrix(0,-1,-1,0,0,0)" ry="12" rx="12" y="-176" x="-176" height="160" width="160" style="fill:#3f3f3f"/>
  <path style="opacity:0.10;fill:#ffffff" d="m 28,16 c -6.65,0 -12,5.35 -12,12 v 1 c 0,-6.65 5.35,-12 12,-12 h 136 c 6.65,0 12,5.35 12,12 v -1 c 0,-6.65 -5.35,-12 -12,-12 z"/>
  <path style="filter:url(#filter8487);opacity:0.20;fill:#000000" d="m 67.60,49.37 -6.04,5.25 10.06,11.56 C 63.89,72.96 59,82.91 59,94 h 74 c 0,-11.09 -4.89,-21.04 -12.62,-27.82 l 10.06,-11.56 -6.04,-5.25 -10.61,12.19 C 108.52,58.65 102.45,57 96,57 89.55,57 83.48,58.65 78.20,61.56 Z M 59,100 v 66 h 74 v -66 z"/>
  <path style="fill:#ffffff" d="M 67.60 47.37 L 61.56 52.62 L 71.62 64.18 C 63.89 70.96 59 80.91 59 92 L 133 92 C 133 80.91 128.11 70.96 120.38 64.18 L 130.44 52.62 L 124.40 47.37 L 113.80 59.56 C 108.52 56.65 102.45 55 96 55 C 89.55 55 83.48 56.65 78.20 59.56 L 67.60 47.37 z M 59 98 L 59 176 L 133 176 L 133 98 L 59 98 z "/>
  <path style="filter:url(#filter8629);opacity:0.20;fill:#000000" d="M 81.50,75 A 4.50,4.50 0 0 0 77,79.50 4.50,4.50 0 0 0 81.50,84 4.50,4.50 0 0 0 86,79.50 4.50,4.50 0 0 0 81.50,75 Z m 29,0 a 4.50,4.50 0 0 0 -4.50,4.50 4.50,4.50 0 0 0 4.50,4.50 4.50,4.50 0 0 0 4.50,-4.50 4.50,4.50 0 0 0 -4.50,-4.50 z m -18.87,32 0.22,7.62 a 18,18 0 0 0 -8.00,4.57 l -6.78,-3.66 -4.37,7.57 6.40,4.09 A 18,18 0 0 0 78,132 a 18,18 0 0 0 0.63,4.63 l -6.37,3.91 4.37,7.57 6.63,-3.46 a 18,18 0 0 0 8.15,4.72 L 91.63,157 h 8.75 l 0.33,-7.65 a 18,18 0 0 0 8.10,-4.76 l 6.76,3.53 4.37,-7.57 -6.55,-4.02 A 18,18 0 0 0 114,132 a 18,18 0 0 0 0.63,-4.69 l 6.56,-4.20 -4.37,-7.57 -6.86,3.70 a 18,18 0 0 0 -7.98,-4.61 L 100.37,107 Z M 96,120 a 12,12 0 0 1 12,12 12,12 0 0 1 -12,12 12,12 0 0 1 -12,-12 12,12 0 0 1 12,-12 z"/>
  <path style="fill:#2195f1" d="M 81.50 73 A 4.50 4.50 0 0 0 77 77.50 A 4.50 4.50 0 0 0 81.50 82 A 4.50 4.50 0 0 0 86 77.50 A 4.50 4.50 0 0 0 81.50 73 z M 110.50 73 A -4.50 4.50 0 0 0 106 77.50 A -4.50 4.50 0 0 0 110.50 82 A -4.50 4.50 0 0 0 115 77.50 A -4.50 4.50 0 0 0 110.50 73 z M 91.63 105 L 91.41 112.62 A 18 18 0 0 0 83.41 117.20 L 76.63 113.54 L 72.26 121.11 L 78.67 125.21 A 18 18 0 0 0 78 130 A 18 18 0 0 0 78.63 134.63 L 72.26 138.54 L 76.63 146.11 L 83.27 142.66 A 18 18 0 0 0 91.42 147.38 L 91.63 155 L 100.37 155 L 100.70 147.35 A 18 18 0 0 0 108.80 142.59 L 115.56 146.11 L 119.94 138.54 L 113.39 134.52 A 18 18 0 0 0 114 130 A 18 18 0 0 0 113.37 125.31 L 119.94 121.11 L 115.56 113.54 L 108.70 117.24 A 18 18 0 0 0 100.72 112.63 L 100.37 105 L 91.63 105 z M 96 118 A 12 12 0 0 1 108 130 A 12 12 0 0 1 96 142 A 12 12 0 0 1 84 130 A 12 12 0 0 1 96 118 z "/>
</svg>
