<?xml version='1.0' encoding='utf-8'?>
<svg xmlns="http://www.w3.org/2000/svg" width="192" height="192" version="1" id="svg12">
  <defs>
    <filter style="color-interpolation-filters:sRGB" id="filter955" x="0.05" width="1.10" y="0.05" height="1.10">
      <feGaussianBlur stdDeviation="3.20"/>
    </filter>
    <filter style="color-interpolation-filters:sRGB" id="filter10463" x="0.11" y="0.11" width="1.22" height="1.22">
      <feGaussianBlur stdDeviation="4.14"/>
    </filter>
  </defs>
  <rect style="filter:url(#filter955);opacity:0.20;fill:#000000" width="160" height="160" x="16" y="20" rx="30" ry="30"/>
  <rect style="fill:#7b35d9" width="160" height="160" x="16" y="16" rx="30" ry="30"/>
  <path style="opacity:0.10;fill:#ffffff" d="M 46 16 C 29.38 16 16 29.38 16 46 L 16 47 C 16 30.38 29.38 17 46 17 L 146 17 C 162.62 17 176 30.38 176 47 L 176 46 C 176 29.38 162.62 16 146 16 L 46 16 z "/>
  <path style="filter:url(#filter10463);opacity:0.20;fill:#000000;color:#000000" d="m 57,52 a 7,7 0 0 0 -7,7 7,7 0 0 0 7,7 7,7 0 0 0 7,-7 7,7 0 0 0 -7,-7 z m 26,0 A 7,7 0 0 0 76.07,58.00 7,7 0 0 0 76,59 a 7,7 0 0 0 7,7 7,7 0 0 0 7,-7 7,7 0 0 0 -7,-7 z m 26,0 A 7,7 0 0 0 102.07,58.00 7,7 0 0 0 102,59 a 7,7 0 0 0 7,7 7,7 0 0 0 7,-7 7,7 0 0 0 -7,-7 z m 26,0 a 7,7 0 0 0 -7,7 7,7 0 0 0 7,7 7,7 0 0 0 7,-7 7,7 0 0 0 -7,-7 z M 50,77 v 46 c 0,11.52 8.94,21 19.80,21 C 74.85,144 79.49,141.95 83,138.59 86.51,141.95 91.15,144 96.20,144 107.06,144 115.75,134.51 116,123 V 77 h -14 v 46 c 0,3.95 -2.08,7 -5.80,7 C 92.48,130 90,126.95 90,123 V 77 H 76 v 46 c 0,3.95 -2.48,7 -6.20,7 C 66.08,130 64.09,126.95 64,123 V 77 Z m 78,0 v 67 h 14 V 77 Z"/>
  <path style="fill:#ffffff;color:#000000" d="m 57,50 a 7,7 0 0 0 -7,7 7,7 0 0 0 7,7 7,7 0 0 0 7,-7 7,7 0 0 0 -7,-7 z m 26,0 A 7,7 0 0 0 76.07,56.00 7,7 0 0 0 76,57 a 7,7 0 0 0 7,7 7,7 0 0 0 7,-7 7,7 0 0 0 -7,-7 z m 26,0 A 7,7 0 0 0 102.07,56.00 7,7 0 0 0 102,57 a 7,7 0 0 0 7,7 7,7 0 0 0 7,-7 7,7 0 0 0 -7,-7 z m 26,0 a 7,7 0 0 0 -7,7 7,7 0 0 0 7,7 7,7 0 0 0 7,-7 7,7 0 0 0 -7,-7 z M 50,75 v 46 c 0,11.52 8.94,21 19.80,21 C 74.85,142 79.49,139.95 83,136.59 86.51,139.95 91.15,142 96.20,142 107.06,142 115.75,132.51 116,121 V 75 h -14 v 46 c 0,3.95 -2.08,7 -5.80,7 C 92.48,128 90,124.95 90,121 V 75 H 76 v 46 c 0,3.95 -2.48,7 -6.20,7 C 66.08,128 64.09,124.95 64,121 V 75 Z m 78,0 v 67 h 14 V 75 Z"/>
</svg>
