<?xml version='1.0' encoding='utf-8'?>
<svg xmlns="http://www.w3.org/2000/svg" width="192" height="192" version="1" id="svg16">
  <defs>
    <filter style="color-interpolation-filters:sRGB" id="filter853" x="0.05" width="1.10" y="0.05" height="1.10">
      <feGaussianBlur stdDeviation="3.20"/>
    </filter>
    <filter style="color-interpolation-filters:sRGB" id="filter15725" x="0.08" y="0.03" width="1.16" height="1.07">
      <feGaussianBlur stdDeviation="1.60"/>
    </filter>
  </defs>
  <rect style="filter:url(#filter853);opacity:0.20;fill:#000000" width="160" height="160" x="-180" y="-176" rx="80" ry="80" transform="matrix(0,-1,-1,0,0,0)"/>
  <rect transform="matrix(0,-1,-1,0,0,0)" ry="80" rx="80" y="-176" x="-176" height="160" width="160" style="fill:#e4e4e4"/>
  <path style="filter:url(#filter15725);opacity:0.20;fill:#000000;color:#000000" d="m 96.12,42.00 c -13.92,0 -24.21,11.91 -24.15,25.62 0.07,14.94 11.26,25.62 20.68,35.15 4.71,4.77 9.16,9.32 12.14,13.63 2.98,4.31 4.43,8.11 4.17,12.04 0.24,3.58 -1.76,7.50 -4.07,10.23 -2.31,2.73 -5.10,4.32 -8.76,4.32 -4.04,0 -6.74,-1.30 -8.90,-3.64 -2.17,-2.33 -3.75,-5.95 -4.17,-10.66 0.14,-1.53 1.43,-6.93 3.52,-11.15 2.09,-4.23 4.28,-7.55 4.28,-7.55 l -9.19,-6.05 c 0,0 -2.52,3.81 -4.95,8.71 -2.43,4.90 -5.20,10.62 -4.62,17.03 0.60,6.64 2.91,12.67 7.07,17.15 4.16,4.48 10.22,7.15 16.96,7.15 7.11,0 13.16,-3.49 17.16,-8.21 4.00,-4.72 6.25,-10.64 6.65,-16.60 0.48,-7.16 -2.30,-13.55 -6.10,-19.04 -3.79,-5.49 -8.66,-10.34 -13.37,-15.11 -9.41,-9.52 -17.46,-18.36 -17.50,-27.47 0.04,-8.55 5.26,-14.57 13.15,-14.57 2.44,0 4.29,0.52 5.84,1.46 l 5.38,-9.48 c -3.21,-1.84 -7.02,-2.97 -11.23,-2.97 z m 17.68,8.56 -8.42,7.08 c 1.70,2.27 2.93,5.32 3.51,8.43 0.03,0.15 0.00,0.50 0.06,0.93 h 11.15 c 0.01,0.96 0.10,-1.94 0.28,-2.94 0.87,-4.68 -2.70,-9.46 -5.91,-13.50 z m -5.90,20.59 c 0.44,1.53 -1.03,3.22 -1.73,4.78 0.10,0.21 0.22,0.44 0.34,0.66 l 10.13,4.33 c 0.08,0.16 0.16,0.31 0.23,0.47 0.98,-2.17 2.00,-4.46 2.75,-6.86 z m -4.89,9.53 c 0.73,0.91 -1.45,1.76 -2.01,2.40 l 8.24,7.42 c 0.87,0.93 1.99,-2.23 3.13,-3.74 z"/>
  <path style="fill:#8cd0f3;color:#000000" d="M 107.90 69.15 C 107.45 70.68 106.87 72.36 106.16 73.93 C 106.07 74.14 105.95 74.37 105.83 74.59 L 115.96 78.92 C 116.04 78.77 116.12 78.61 116.19 78.45 C 117.17 76.28 118.20 73.99 118.94 71.59 L 107.90 69.15 z M 103.01 78.68 C 102.28 79.59 101.56 80.44 101.00 81.07 L 109.24 88.49 C 110.12 87.56 111.23 86.26 112.37 84.76 L 103.01 78.68 z M 81.67 101.96 C 81.67 101.96 79.15 105.77 76.72 110.67 C 74.29 115.57 71.52 121.29 72.10 127.70 C 72.14 128.20 72.22 128.68 72.28 129.18 L 83.41 129.18 C 83.26 128.39 83.13 127.57 83.05 126.71 C 82.91 125.17 84.48 119.78 86.58 115.55 C 88.67 111.33 90.86 108.01 90.86 108.01 L 81.67 101.96 z "/>
  <path style="opacity:0.20;fill:#ffffff" d="M 96 16 C 51.68 16 16.01 51.68 16.01 96 C 16.01 96.34 16.01 96.67 16.01 97 C 16.01 52.68 51.68 17 96 17 C 140.32 17 175.99 52.68 175.99 97 C 175.99 96.67 175.99 96.34 175.99 96 C 175.99 51.68 140.32 16 96 16 z "/>
  <path style="fill:#ffa45c;color:#000000" d="M 96.12 40.00 C 90.13 40.00 84.64 42.18 80.52 45.81 L 87.77 54.07 C 89.98 52.14 92.72 51.00 96.12 51.00 C 98.55 51.00 100.41 51.52 101.96 52.46 L 107.35 42.97 C 104.14 41.13 100.33 40.00 96.12 40.00 z M 113.81 48.55 L 105.38 55.64 C 107.08 57.91 108.31 60.96 108.89 64.07 C 108.92 64.22 108.94 64.55 108.92 65 L 119.93 65 C 119.95 64.05 119.89 63.07 119.71 62.06 C 118.84 57.38 117.01 52.59 113.81 48.55 z "/>
  <path style="fill:none;stroke:#ff5b5b;stroke-width:11;stroke-linecap:round;stroke-linejoin:round" d="M 77.47,65.60 C 77.43,58.54 80.56,52.34 85.64,48.76"/>
  <path style="fill:none;stroke:#ff67b1;stroke-width:11;stroke-linecap:round;stroke-linejoin:round" d="M 113.04,118.12 C 106.21,100.39 77.56,86.37 77.47,65.60"/>
  <path style="fill:none;stroke:#ff5b5b;stroke-width:11;stroke-linecap:round;stroke-linejoin:round" d="m 104.39,144.25 c 5.96,-3.52 9.60,-10.63 10.06,-17.43 0.20,-3.02 0.33,-5.90 -1.40,-8.69"/>
  <path style="fill:none;stroke:#ffa45c;stroke-width:11;stroke-linecap:round;stroke-linejoin:round" d="m 77.56,125.56 c 0.03,0.57 0.03,1.12 0.02,1.64 1.03,11.35 7.78,19.30 18.55,19.30 3.58,0 6.72,-1.12 9.36,-2.96"/>
</svg>
