<svg xmlns="http://www.w3.org/2000/svg" id="svg12" width="192" height="192" version="1.1"><defs><filter style="color-interpolation-filters:sRGB" id="filter845" width="1.1" height="1.1" x=".05" y=".05"><feGaussianBlur stdDeviation="3.2"/></filter><filter style="color-interpolation-filters:sRGB" id="filter849" width="1.11" height="1.08" x=".06" y=".04"><feGaussianBlur stdDeviation="2.08"/></filter></defs><rect width="160" height="160" x="16" y="20" rx="48" ry="48" style="filter:url(#filter845);opacity:.2"/><rect width="160" height="160" x="16" y="16" rx="48" ry="48" style="fill:#176fd0"/><path d="M 96,54 V 38 h 44 v 16 h -8 c 0,0 -4,0 -4,4 v 72 c 0,8 -4,28 -36,28 C 64,158 52,135.82 52,116 52,76 96,88 96,88 v 22 c 0,0 -4,-4 -12,-4 -4.81,0 -12,4 -12,12 0,10.41 12,16 20,16 12,0 16,-8 16,-12 V 58 c 0,-4 -4,-4 -4,-4 z" style="filter:url(#filter849);opacity:.2"/><path d="M 96,52 V 36 h 44 v 16 h -8 c 0,0 -4,0 -4,4 v 72 c 0,8 -4,28 -36,28 C 64,156 52,133.82 52,114 52,74 96,86 96,86 v 22 c 0,0 -4,-4 -12,-4 -4.81,0 -12,4 -12,12 0,10.41 12,16 20,16 12,0 16,-8 16,-12 V 56 c 0,-4 -4,-4 -4,-4 z" style="fill:#fff"/><path style="opacity:.1;fill:#fff" d="M 64 16 C 37.41 16 16 37.41 16 64 L 16 65 C 16 38.41 37.41 17 64 17 L 128 17 C 154.59 17 176 38.41 176 65 L 176 64 C 176 37.41 154.59 16 128 16 L 64 16 z"/></svg>