<?xml version='1.0' encoding='utf-8'?>
<svg xmlns="http://www.w3.org/2000/svg" width="192" height="192" version="1" id="svg16">
  <defs>
    <filter style="color-interpolation-filters:sRGB" id="filter867" x="0.05" width="1.10" y="0.05" height="1.10">
      <feGaussianBlur stdDeviation="3.20"/>
    </filter>
    <filter style="color-interpolation-filters:sRGB" id="filter1543" x="0.07" y="0.08" width="1.14" height="1.17">
      <feGaussianBlur stdDeviation="2.62"/>
    </filter>
  </defs>
  <rect ry="80" rx="80" height="160" width="160" y="-176" x="-180" transform="matrix(0,-1,-1,0,0,0)" style="filter:url(#filter867);opacity:0.20;fill:#000000"/>
  <rect style="fill:#009900" transform="matrix(0,-1,-1,0,0,0)" x="-176" y="-176" width="160" height="160" rx="80" ry="80"/>
  <path style="opacity:0.20;fill:#ffffff" d="M 96 16 C 51.68 16 16 51.68 16 96 C 16 96.34 16.00 96.67 16 97 C 16 52.68 51.68 17 96 17 C 140.32 17 176 52.68 176 97 C 176.00 96.67 176 96.34 176 96 C 176 51.68 140.32 16 96 16 z "/>
  <path style="filter:url(#filter1543);opacity:0.20;fill:#000000" d="M 99,53.00 V 90.05 127.00 H 103.85 109 v -5.44 -5.54 l 0.57,0.58 c 1.32,0.88 5.46,-4.21 7.61,-6.13 1.05,0.94 2.00,-1.71 2.10,-1.71 0.10,0 2.31,3.62 4.90,8.04 4.90,8.36 5.98,9.85 8.06,11.08 0.57,0.34 1.61,0.77 2.31,0.96 2.31,0.63 5.99,0.36 7.37,0.54 0.27,0.17 -1.23,-2.84 -7.59,-13.50 l -7.92,-13.28 0.43,0.54 c 0.24,0.30 1.35,-1.67 2.47,-3.05 2.55,-3.15 6.33,-8.83 8.36,-12.57 1.82,-3.37 4.55,-9.80 4.31,-10.04 0.38,0.37 -8.66,-3.24 -8.83,-3.06 0.10,0.11 0.57,1.13 -1.03,2.28 -4.87,11.74 -12.45,21.17 -21.87,29.91 L 109,104.63 v -25.81 -25.81 h -5.15 z M 75.45,74.00 c 0.66,0.01 -1.33,0.00 -2.02,0.02 -4.30,0.13 -6.75,0.65 -10.06,2.10 -5.30,2.33 -9.83,7.02 -12.09,12.53 -3.55,8.66 -2.90,20.50 1.55,28.18 3.42,5.89 8.72,9.55 15.81,10.92 2.21,0.43 8.66,0.29 11.57,0.25 2.66,0.49 5.46,-1.29 7.86,-2.27 l 1.82,0.74 0.06,-4.80 c 0.03,-2.64 0.01,-5.20 0.06,-5.20 0.07,0 -1.02,0.46 -2.11,1.02 -5.91,3.01 -12.55,4.14 -17.24,2.92 -5.92,-1.54 -10.00,-5.87 -11.20,-12.79 0.46,-2.67 0.36,-7.76 0.21,-10.52 1.31,-6.34 5.34,-10.51 10.94,-11.83 1.99,0.47 6.45,0.47 9.07,0.01 2.33,0.41 4.71,1.04 6.89,2.19 l 1.57,0.83 0.54,0.68 c 1.37,-1.73 1.86,-4.86 1.01,-6.54 0.52,-1.04 -1.93,-2.38 -3.18,-3.03 C 83.89,74.76 80.05,74.05 75.45,74.00 Z"/>
  <path style="fill:#fcfdfc" d="M 99,51.00 V 88.05 125.00 H 103.85 109 v -5.44 -5.54 l 0.57,0.58 c 1.32,0.88 5.46,-4.21 7.61,-6.13 1.05,0.94 2.00,-1.71 2.10,-1.71 0.10,0 2.31,3.62 4.90,8.04 4.90,8.36 5.98,9.85 8.06,11.08 0.57,0.34 1.61,0.77 2.31,0.96 2.31,0.63 5.99,0.36 7.37,0.54 0.27,0.17 -1.23,-2.84 -7.59,-13.50 l -7.92,-13.28 0.43,0.54 c 0.24,0.30 1.35,-1.67 2.47,-3.05 2.55,-3.15 6.33,-8.83 8.36,-12.57 1.82,-3.37 4.55,-9.80 4.31,-10.04 0.38,0.37 -8.66,-3.24 -8.83,-3.06 0.10,0.11 0.57,1.13 -1.03,2.28 -4.87,11.74 -12.45,21.17 -21.87,29.91 L 109,102.63 v -25.81 -25.81 h -5.15 z M 75.45,72.00 c 0.66,0.01 -1.33,0.00 -2.02,0.02 -4.30,0.13 -6.75,0.65 -10.06,2.10 -5.30,2.33 -9.83,7.02 -12.09,12.53 -3.55,8.66 -2.90,20.50 1.55,28.18 3.42,5.89 8.72,9.55 15.81,10.92 2.21,0.43 8.66,0.29 11.57,0.25 2.66,0.49 5.46,-1.29 7.86,-2.27 l 1.82,0.74 0.06,-4.80 c 0.03,-2.64 0.01,-5.20 0.06,-5.20 0.07,0 -1.02,0.46 -2.11,1.02 -5.91,3.01 -12.55,4.14 -17.24,2.92 -5.92,-1.54 -10.00,-5.87 -11.20,-12.79 0.46,-2.67 0.36,-7.76 0.21,-10.52 1.31,-6.34 5.34,-10.51 10.94,-11.83 1.99,0.47 6.45,0.47 9.07,0.01 2.33,0.41 4.71,1.04 6.89,2.19 l 1.57,0.83 0.54,0.68 c 1.37,-1.73 1.86,-4.86 1.01,-6.54 0.52,-1.04 -1.93,-2.38 -3.18,-3.03 C 83.89,72.76 80.05,72.05 75.45,72.00 Z"/>
</svg>
