<svg xmlns="http://www.w3.org/2000/svg" id="svg28" width="192" height="192" version="1"><defs><filter style="color-interpolation-filters:sRGB" id="filter6495" width="1.1" height="1.1" x=".05" y=".05"><feGaussianBlur stdDeviation="3.2"/></filter><filter style="color-interpolation-filters:sRGB" id="filter1780" width="1.22" height="1.22" x=".11" y=".11"><feGaussianBlur stdDeviation="4.4"/></filter></defs><rect width="160" height="160" x="-180" y="-176" rx="12" ry="12" transform="matrix(0,-1,-1,0,0,0)" style="filter:url(#filter6495);opacity:.2;fill:#000"/><rect width="160" height="160" x="-176" y="-176" rx="12" ry="12" transform="matrix(0,-1,-1,0,0,0)" style="fill:#3f3f3f"/><path style="opacity:.1;fill:#fff" d="m 28,16 c -6.65,0 -12,5.35 -12,12 v 1 c 0,-6.65 5.35,-12 12,-12 h 136 c 6.65,0 12,5.35 12,12 v -1 c 0,-6.65 -5.35,-12 -12,-12 z"/><path style="filter:url(#filter1780);opacity:.2;fill:#000;color:#000" d="m 84.24,50.00 a 5.12,5.12 0 0 0 -1.32,0.17 5.12,5.12 0 0 0 -2.30,1.33 L 68,64.12 v 73.41 l 38.43,10.30 a 5.12,5.12 0 0 0 4.95,-1.33 L 143.50,114.38 a 5.12,5.12 0 0 0 1.33,-4.95 L 133.07,65.55 a 5.12,5.12 0 0 0 -3.62,-3.62 L 85.57,50.18 A 5.12,5.12 0 0 0 84.24,50.00 Z M 64,68.12 l -15.50,15.50 a 5.12,5.12 0 0 0 -1.33,4.95 l 11.76,43.88 a 5.12,5.12 0 0 0 3.62,3.62 L 64,136.46 Z"/><path style="fill:#fff;color:#000" d="M 84.24 47 A 5.12 5.12 0 0 0 82.92 47.17 A 5.12 5.12 0 0 0 80.62 48.50 L 68 61.12 L 68 134.53 L 106.43 144.83 A 5.12 5.12 0 0 0 111.38 143.50 L 143.50 111.38 A 5.12 5.12 0 0 0 144.83 106.43 L 133.07 62.55 A 5.12 5.12 0 0 0 129.45 58.93 L 85.57 47.18 A 5.12 5.12 0 0 0 84.24 47 z M 64 65.12 L 48.50 80.62 A 5.12 5.12 0 0 0 47.17 85.57 L 58.93 129.45 A 5.12 5.12 0 0 0 62.55 133.07 L 64 133.46 L 64 65.12 z"/></svg>