<?xml version='1.0' encoding='utf-8'?>
<svg xmlns="http://www.w3.org/2000/svg" width="192" height="192" version="1" id="svg26">
  <defs>
    <filter style="color-interpolation-filters:sRGB" id="filter864" x="0.05" width="1.10" y="0.05" height="1.09">
      <feGaussianBlur stdDeviation="3.04"/>
    </filter>
    <filter style="color-interpolation-filters:sRGB" id="filter880" x="0.05" width="1.09" y="0.05" height="1.10">
      <feGaussianBlur stdDeviation="1.52"/>
    </filter>
    <filter style="color-interpolation-filters:sRGB" id="filter896" x="0.05" width="1.09" y="0.05" height="1.10">
      <feGaussianBlur stdDeviation="1.52"/>
    </filter>
  </defs>
  <path d="M 160,20 H 32 c -4.43,0 -8,3.57 -8,8 v 144 c 0,4.43 3.57,8 8,8 h 128 c 4.43,0 8,-3.57 8,-8 V 28 c 0,-4.43 -3.57,-8 -8,-8 z" style="filter:url(#filter864);opacity:0.20;fill:#000000"/>
  <path d="M 160,16 H 32 c -4.43,0 -8,3.57 -8,8 v 144 c 0,4.43 3.57,8 8,8 h 128 c 4.43,0 8,-3.57 8,-8 V 24 c 0,-4.43 -3.57,-8 -8,-8 z" style="fill:#4552a5"/>
  <path d="M 40,32 V 44 H 152 V 32 Z M 52,60 A 12,12 0 0 0 40,72 12,12 0 0 0 52,84 12,12 0 0 0 64,72 12,12 0 0 0 52,60 Z m 20,0 v 8 h 80 v -8 z m 0,12 v 8 h 80 v -8 z m 0,12 v 8 h 80 v -8 z m 24,28 a 12,12 0 0 0 -12,12 12,12 0 0 0 12,12 12,12 0 0 0 12,-12 12,12 0 0 0 -12,-12 z" style="opacity:0.20"/>
  <path d="m 132,88 h 40 c 4.43,0 8,3.57 8,8 v 56 c 0,4.43 -3.57,8 -8,8 h -40 c -12,0 -32,-28 -32,-36 0,-8 20,-36 32,-36 z" style="filter:url(#filter880);opacity:0.20;fill:#000000"/>
  <path d="m 132,84 h 40 c 4.43,0 8,3.57 8,8 v 56 c 0,4.43 -3.57,8 -8,8 h -40 c -12,0 -32,-28 -32,-36 0,-8 20,-36 32,-36 z" style="fill:#ec447d"/>
  <path d="M 60,88 H 20 c -4.43,0 -8,3.57 -8,8 v 56 c 0,4.43 3.57,8 8,8 h 40 c 12,0 32,-28 32,-36 0,-8 -20,-36 -32,-36 z" style="filter:url(#filter896);opacity:0.20;fill:#000000"/>
  <path d="M 60,84 H 20 c -4.43,0 -8,3.57 -8,8 v 56 c 0,4.43 3.57,8 8,8 h 40 c 12,0 32,-28 32,-36 0,-8 -20,-36 -32,-36 z" style="fill:#ffffff"/>
  <path d="M 132.08,96 C 127.60,96 124,99.77 124,104.45 v 31.11 c 0,4.68 3.60,8.45 8.08,8.45 h 31.84 C 168.40,144 172,140.23 172,135.55 V 104.45 C 172,99.77 168.40,96 163.92,96 Z M 132,104 h 20 v 8 h -20 z m 0,12 h 32 v 8 h -32 z m 0,12 h 32 v 8 h -32 z" style="fill:#ffffff"/>
  <path d="M 43.86,96 C 32.52,96.02 22.39,104.44 20.31,116.23 c -2.15,12.21 7.10,25.25 19.38,27.30 4.05,0.68 5.15,0.64 9.31,0.23 5.04,-1.06 8.68,-3.13 12.42,-7.04 3.65,-3.81 5.64,-7.82 6.32,-12.76 1.11,-8.01 -1.39,-15.28 -7.15,-20.76 C 56.64,98.98 52.81,97.10 47.41,96.27 46.22,96.08 45.03,96.00 43.86,96 Z m 3.94,8.48 C 54.95,106.22 59.99,112.63 60,120 c 0.01,3.94 -1.46,7.66 -3.98,10.53 l -4.37,-2.52 H 48 v -6.44 C 48,120.47 47.11,120 46,120 H 36 v -4 h 2 c 1.11,0 2,0.89 2,-2 v -2.35 c 0.64,0.23 1.32,0.35 2,0.35 3.31,0 6,-2.69 6,-6 0.00,0.51 0.07,-1.03 0.20,-1.52 z m -19.38,11.95 8.75,8.75 C 36.42,125.92 36.00,126.94 36,128 c 0,2.21 1.79,4 4,4 h 4 v 4 c -8.84,0 -16,-7.16 -16,-16 0.01,-1.20 0.15,-2.41 0.42,-3.58 z" style="fill:#e9427b"/>
  <path style="opacity:0.10;fill:#ffffff" d="M 32 16 C 27.57 16 24 19.57 24 24 L 24 25 C 24 20.57 27.57 17 32 17 L 160 17 C 164.43 17 168 20.57 168 25 L 168 24 C 168 19.57 164.43 16 160 16 L 32 16 z "/>
  <path style="opacity:0.20;fill:#ffffff" d="M 132 84 C 120 84 100 112 100 120 C 100 120.14 100.03 120.30 100.04 120.45 C 100.87 111.80 120.26 85 132 85 L 172 85 C 176.43 85 180 88.57 180 93 L 180 92 C 180 87.57 176.43 84 172 84 L 132 84 z "/>
</svg>
