<?xml version='1.0' encoding='utf-8'?>
<svg xmlns="http://www.w3.org/2000/svg" width="192" height="192" version="1" id="svg18">
  <defs>
    <filter style="color-interpolation-filters:sRGB" id="filter1407" x="0.07" y="0.09" width="1.13" height="1.17">
      <feGaussianBlur stdDeviation="2.17"/>
    </filter>
    <filter style="color-interpolation-filters:sRGB" id="filter1449" x="0.05" y="0.05" width="1.10" height="1.10">
      <feGaussianBlur stdDeviation="3.20"/>
    </filter>
  </defs>
  <circle style="filter:url(#filter1449);opacity:0.20;fill:#000000;stop-color:#000000" cx="96" cy="100" r="80"/>
  <circle style="fill:#01c9c8;stop-color:#000000" cx="96" cy="96" r="80"/>
  <path style="filter:url(#filter1407);opacity:0.20;fill:#000000;fill-rule:evenodd" d="m 72.00,68 c -5.52,0 -10,4.48 -10,10 0,5.52 4.48,10 10,10 5.52,0 10,-4.48 10,-10 0,-5.52 -4.48,-10 -10,-10 z m 48.00,0 c -5.52,0 -10,4.48 -10,10 0,5.52 4.48,10 10,10 5.52,0 10,-4.48 10,-10 0,-5.52 -4.48,-10 -10,-10 z m 9.29,42.99 c -2.73,0.04 -5.96,0.67 -8.39,2.43 0.76,0.54 0.63,1.29 0.21,1.18 2.74,0.34 8.88,-1.09 9.97,0.34 1.10,1.43 -1.22,7.34 -2.24,9.98 0.32,0.80 0.35,1.12 1.06,0.52 4.59,-3.93 5.77,-12.16 4.83,-13.34 0.46,0.59 -2.70,-1.14 -5.43,-1.10 z m -71.73,1.58 c 0.57,0.08 0.82,0.78 0.22,1.34 C 67.52,123.34 80.98,129 95.93,129 c 10.67,0 23.04,-3.45 31.59,-9.89 l 0.01,0.01 c 1.42,-1.08 0.21,-2.67 -1.24,-2.05 -9.57,4.17 -19.99,6.18 -29.45,6.18 -14.03,0 -27.63,-3.94 -38.61,-10.49 0.24,0.14 0.47,0.18 0.66,0.16 z"/>
  <path style="fill:#ffffff;fill-rule:evenodd" d="m 72.00,66 c -5.52,0 -10,4.48 -10,10 0,5.52 4.48,10 10,10 5.52,0 10,-4.48 10,-10 0,-5.52 -4.48,-10 -10,-10 z m 48.00,0 c -5.52,0 -10,4.48 -10,10 0,5.52 4.48,10 10,10 5.52,0 10,-4.48 10,-10 0,-5.52 -4.48,-10 -10,-10 z m 9.29,42.99 c -2.73,0.04 -5.96,0.67 -8.39,2.43 0.76,0.54 0.63,1.29 0.21,1.18 2.74,0.34 8.88,-1.09 9.97,0.34 1.10,1.43 -1.22,7.34 -2.24,9.98 0.32,0.80 0.35,1.12 1.06,0.52 4.59,-3.93 5.77,-12.16 4.83,-13.34 0.46,0.59 -2.70,-1.14 -5.43,-1.10 z m -71.73,1.58 c 0.57,0.08 0.82,0.78 0.22,1.34 C 67.52,121.34 80.98,127 95.93,127 c 10.67,0 23.04,-3.45 31.59,-9.89 l 0.01,0.01 c 1.42,-1.08 0.21,-2.67 -1.24,-2.05 -9.57,4.17 -19.99,6.18 -29.45,6.18 -14.03,0 -27.63,-3.94 -38.61,-10.49 0.24,0.14 0.47,0.18 0.66,0.16 z"/>
  <path style="opacity:0.20;fill:#ffffff;stop-color:#000000" d="M 96 16 A 80 80 0 0 0 16 96 A 80 80 0 0 0 16.04 96.50 A 80 80 0 0 1 96 17 A 80 80 0 0 1 175.98 96.25 A 80 80 0 0 0 176 96 A 80 80 0 0 0 96 16 z "/>
</svg>
