<?xml version='1.0' encoding='utf-8'?>
<svg xmlns="http://www.w3.org/2000/svg" width="192" height="192" version="1" id="svg12">
  <defs>
    <filter style="color-interpolation-filters:sRGB" id="filter11264" x="0.06" y="0.05" width="1.11" height="1.10">
      <feGaussianBlur stdDeviation="2.78"/>
    </filter>
    <filter style="color-interpolation-filters:sRGB" id="filter12051" x="0.05" y="0.05" width="1.10" height="1.10">
      <feGaussianBlur stdDeviation="3.20"/>
    </filter>
  </defs>
  <circle style="filter:url(#filter12051);opacity:0.20;fill:#000000" cx="96" cy="100" r="80"/>
  <path style="fill:#0ba6f6" d="m 96.13,18.15 c 25.98,0 42.26,13.09 56.86,32.16 9.51,12.43 22.04,24.77 22.90,41.48 C 175.96,93.19 176,94.59 176,96 c 0,44.32 -35.68,80 -80,80 -18.18,0 -34.90,-6.00 -48.31,-16.14 -19.28,-14.58 -29.01,-37.42 -29.01,-63.56 0,-35.30 21.50,-62.85 53.11,-73.53 8.08,-2.73 15.32,-4.61 24.34,-4.61 z"/>
  <path style="fill:#0385ff" d="m 161.67,50.21 c 0.39,7.42 0.98,14.41 -3.51,19.84 -4.36,9.31 -25.71,-5.43 -36.74,0.24 -17.95,8.44 4.40,-24.69 -11.94,-9.35 C 98.32,70.94 69.50,90.15 69,117.03 c 0.30,15.95 8.74,33.72 24.79,43.04 6.31,3.66 14.47,5.02 22.86,5.00 8.71,0.02 17.67,-1.42 25.07,-3.36 C 162.46,147.29 176,123.29 176,96 176,78.94 170.70,63.17 161.67,50.21 Z"/>
  <path style="fill:#1362ff" d="m 96,16 c -13.59,0 -26.37,3.37 -37.56,9.30 15.71,1.40 40.60,1.96 41.81,4.76 1.73,4.02 22.21,4.39 24.13,11.42 2.60,9.49 4.33,19.98 2.35,26.70 C 121.13,87.20 94.38,83.53 95,105.93 c 0,16.07 14.62,25.92 28.35,27.76 13.18,1.69 27.30,-3.91 38.69,-14.69 6.38,-6.04 10.10,-13.35 13.93,-21.65 C 175.97,96.90 176,96.45 176,96 176,51.68 140.32,16 96,16 Z"/>
  <path style="filter:url(#filter11264);opacity:0.20;fill:#000000" d="M 89.56,22.32 C 84.92,22.26 80.25,22.58 75.64,23.32 74.29,23.45 72.92,23.63 71.55,23.79 39.27,34.08 29.77,57.63 29.77,93.42 c 0,27.48 0.04,54.21 20.95,68.60 -5.06,-7.81 -9.62,-11.88 -11,-19.19 -2.87,-15.28 2.61,-29.93 10.24,-38.13 7.01,-7.52 19.03,-14.01 31.12,-15.55 19.67,-2.52 29.86,13.45 50.12,3.87 13.83,-6.54 17.07,-16.85 18.62,-26.39 3.27,-24.52 -27.77,-43.84 -60.26,-44.30 z"/>
  <path style="fill:#7cf5fe" d="M 89.56 18.32 C 84.92 18.26 80.25 18.58 75.64 19.32 C 74.29 19.45 72.92 19.63 71.55 19.79 C 39.27 30.08 16 60.22 16 96 C 16 123.48 29.73 147.63 50.71 162.02 C 45.65 154.21 41.09 146.14 39.71 138.83 C 36.84 123.55 42.33 108.89 49.96 100.70 C 56.97 93.17 68.99 86.69 81.08 85.14 C 100.75 82.63 110.94 98.59 131.20 89.01 C 145.03 82.47 148.27 72.17 149.82 62.62 C 153.08 38.10 122.05 18.79 89.56 18.32 z "/>
  <path style="opacity:0.20;fill:#ffffff" d="M 96 16 C 51.68 16 16 51.68 16 96 C 16 96.12 16.01 96.23 16.01 96.34 C 16.36 52.33 51.90 17 96 17 C 140.10 17 175.64 52.33 175.99 96.34 C 175.99 96.23 176 96.12 176 96 C 176 51.68 140.32 16 96 16 z "/>
</svg>
