<?xml version='1.0' encoding='utf-8'?>
<svg xmlns="http://www.w3.org/2000/svg" width="192" height="192" version="1" id="svg14">
  <defs>
    <filter style="color-interpolation-filters:sRGB" id="filter850" x="-0.048000001" width="1.096" y="-0.048000001" height="1.096">
      <feGaussianBlur stdDeviation="3.2"/>
    </filter>
    <filter style="color-interpolation-filters:sRGB" id="filter25094" x="-0.11525373" y="-0.10160526" width="1.2305075" height="1.2032105">
      <feGaussianBlur stdDeviation="3.2175"/>
    </filter>
  </defs>
  <circle style="filter:url(#filter850);opacity:0.2;fill:#000000" cx="96" cy="100" r="80"/>
  <circle r="80" cy="96" cx="96" style="fill:#c7078e"/>
  <path style="opacity:0.1;fill:#ffffff" d="M 96 16 A 80 80 0 0 0 16 96 A 80 80 0 0 0 16.019531 96.472656 A 80 80 0 0 1 96 17 A 80 80 0 0 1 175.97461 96.513672 A 80 80 0 0 0 176 96 A 80 80 0 0 0 96 16 z "/>
  <path style="fill:#38adfa" d="m 688.80525,256.99648 c -0.33229,-0.33229 -1.1948,-0.36781 -1.91667,-0.0789 -0.79773,0.31922 -0.56078,0.55618 0.60417,0.60416 1.05416,0.0434 1.64479,-0.19293 1.3125,-0.52522 z"/>
  <path style="fill:#edaeda;color:#000000" d="m 74,60 a 9,9 0 0 0 -9,9 9,9 0 0 0 9,9 H 91.064453 L 69.300781,91.324219 A 9.0009,9.0009 0 0 0 74,108 h 9.769531 l -15.294922,11.89648 a 9,9 0 0 0 -1.578125,12.62891 9,9 0 0 0 12.628907,1.57813 l 35.999999,-28 A 9.0009,9.0009 0 0 0 110,90 h -4.06445 L 127.69922,76.675781 A 9.0009,9.0009 0 0 0 123,60 Z"/>
  <path style="filter:url(#filter25094);opacity:0.2;fill:#000000;color:#000000;mix-blend-mode:normal" d="m 74,62 a 9,9 0 0 0 -9,9 9,9 0 0 0 9,9 h 49 a 9,9 0 0 0 9,-9 9,9 0 0 0 -9,-9 z m 0,30 a 9,9 0 0 0 -9,9 9,9 0 0 0 9,9 h 36 a 9,9 0 0 0 9,-9 9,9 0 0 0 -9,-9 z m 0,28 a 9,9 0 0 0 -9,9 9,9 0 0 0 9,9 9,9 0 0 0 9,-9 9,9 0 0 0 -9,-9 z"/>
  <path style="fill:#ffffff;color:#000000" d="m 74,60 a 9,9 0 0 0 -9,9 9,9 0 0 0 9,9 h 49 a 9,9 0 0 0 9,-9 9,9 0 0 0 -9,-9 z m 0,30 a 9,9 0 0 0 -9,9 9,9 0 0 0 9,9 h 36 a 9,9 0 0 0 9,-9 9,9 0 0 0 -9,-9 z m 0,28 a 9,9 0 0 0 -9,9 9,9 0 0 0 9,9 9,9 0 0 0 9,-9 9,9 0 0 0 -9,-9 z"/>
</svg>
