<?xml version='1.0' encoding='utf-8'?>
<svg xmlns="http://www.w3.org/2000/svg" width="192" height="192" version="1.1" id="svg14">
  <defs>
    <filter style="color-interpolation-filters:sRGB" id="filter5238" x="0.05" y="0.04" width="1.11" height="1.09">
      <feGaussianBlur stdDeviation="2.78"/>
    </filter>
    <filter style="color-interpolation-filters:sRGB" id="filter5285" x="0.05" y="0.05" width="1.10" height="1.09">
      <feGaussianBlur stdDeviation="2.57"/>
    </filter>
    <filter style="color-interpolation-filters:sRGB" id="filter5327" x="0.11" y="0.11" width="1.22" height="1.22">
      <feGaussianBlur stdDeviation="2.43"/>
    </filter>
  </defs>
  <path style="filter:url(#filter5238);opacity:0.20;fill:#000000" d="m 104.34,172.61 c 13.68,-13.71 34.14,-38.55 42.76,-51.92 6.87,-10.66 10.75,-21.30 11.67,-32.04 0.40,-4.62 0.27,-9.20 0.32,-13.67 C 155.30,51.46 136.98,38.72 114.04,31.02 98.29,25.73 85.10,26.60 70.13,34.18 51.85,43.44 36.70,54.13 33.70,73.89 c 0.91,5.97 0.95,12.09 0.03,18.17 1.89,12.50 7.48,23.76 20.31,40.95 12.62,16.91 33.70,40.91 39.96,45.49 L 95.99,180 l 1.65,-1.17 c 0.91,0.64 3.92,-3.44 6.69,-6.22 z"/>
  <path style="fill:#e4e4e4" d="m 104.34,168.61 c 13.68,-13.71 34.14,-38.55 42.76,-51.92 6.87,-10.66 10.75,-21.30 11.67,-32.04 0.40,-4.62 0.27,-9.20 0.32,-13.67 C 155.30,47.46 136.98,34.72 114.04,27.02 98.29,21.73 85.10,22.60 70.13,30.18 51.85,39.44 36.70,50.13 33.70,69.89 c 0.91,5.97 0.95,12.09 0.03,18.17 1.89,12.50 7.48,23.76 20.31,40.95 12.62,16.91 33.70,40.91 39.96,45.49 L 95.99,176 l 1.65,-1.17 c 0.91,0.64 3.92,-3.44 6.69,-6.22 z"/>
  <path style="filter:url(#filter5285);opacity:0.20;fill:#000000;color:#000000" d="M 96.05,18 C 63.88,17.97 36.78,42.31 33.36,74.30 a 6,6 0 0 0 5.33,6.60 6,6 0 0 0 6.60,-5.33 C 48.07,49.59 69.91,29.98 96.04,30 122.18,30.02 143.99,49.68 146.72,75.67 a 6,6 0 0 0 6.59,5.34 6,6 0 0 0 5.34,-6.60 C 155.29,42.42 128.23,18.03 96.05,18 Z M 96,41 c -22.64,0 -41,18.36 -41,41 0,22.64 41,68 41,68 0,0 41,-45.36 41,-68 0,-22.64 -18.36,-41 -41,-41 z"/>
  <path style="fill:#77c132;color:#000000" d="M 96.05,16 C 63.88,15.97 36.78,40.31 33.36,72.30 a 6,6 0 0 0 5.33,6.60 6,6 0 0 0 6.60,-5.33 C 48.07,47.59 69.91,27.98 96.04,28 122.18,28.02 143.99,47.68 146.72,73.67 a 6,6 0 0 0 6.59,5.34 6,6 0 0 0 5.34,-6.60 C 155.29,40.42 128.23,16.03 96.05,16 Z"/>
  <path style="fill:#15b0f1" d="m 137,80 c 0,22.64 -41,68 -41,68 0,0 -41,-45.36 -41,-68 0,-22.64 18.36,-41 41,-41 22.64,0 41,18.36 41,41 z"/>
  <circle style="filter:url(#filter5327);opacity:0.20;fill:#000000" cx="96" cy="81" r="27"/>
  <circle style="fill:#ffffff" cx="96" cy="79" r="27"/>
  <circle style="fill:#6e6e6e" cx="96" cy="79" r="14"/>
  <path style="opacity:0.20;fill:#ffffff;color:#000000" d="M 96.05 16 C 63.88 15.97 36.78 40.31 33.36 72.30 A 6 6 0 0 0 33.41 72.89 C 37.02 41.11 64.02 16.97 96.05 17 C 128.23 17.03 155.29 41.42 158.65 73.41 A 6 6 0 0 1 158.66 73.51 A 6 6 0 0 0 158.65 72.41 C 155.29 40.42 128.23 16.03 96.05 16 z "/>
</svg>
