<?xml version='1.0' encoding='utf-8'?>
<svg xmlns="http://www.w3.org/2000/svg" width="192" height="192" version="1" id="svg10">
  <defs>
    <filter style="color-interpolation-filters:sRGB" id="filter851" x="-0.048000001" width="1.096" y="-0.048000001" height="1.096">
      <feGaussianBlur stdDeviation="3.2"/>
    </filter>
    <filter style="color-interpolation-filters:sRGB" id="filter884" x="-0.053999627" width="1.1079993" y="-0.043200241" height="1.0864005">
      <feGaussianBlur stdDeviation="1.440008"/>
    </filter>
  </defs>
  <rect ry="8" rx="8" y="20" x="16" height="160" width="160" style="filter:url(#filter851);opacity:0.2;fill:#000000"/>
  <rect style="fill:#dcdcbe" width="160" height="160" x="16" y="16" rx="8" ry="8"/>
  <path d="m 63.9996,58.0004 v 8 h 0.032 L 82.3988,97.7972 64.0004,129.6564 V 138 h 64 v -16 h -8 v 8 h -46.952 l 16.164,-28 2.42188,-4.1952 v -0.008 L 89.2124,93.6016 73.2748,66 h 38.7264 v 4 h 8 V 58 h -56 z" style="filter:url(#filter884);opacity:0.1;fill:#000000"/>
  <path style="opacity:0.2;fill:#ffffff" d="M 24 16 C 19.568 16 16 19.568 16 24 L 16 25 C 16 20.568 19.568 17 24 17 L 168 17 C 172.432 17 176 20.568 176 25 L 176 24 C 176 19.568 172.432 16 168 16 L 24 16 z "/>
  <path style="fill:#2a2a2a" d="m 63.9996,56 v 8 h 0.032 L 82.3988,95.7968 64.0004,127.656 v 8.3436 h 64 v -16 h -8 v 8 h -46.952 l 16.164,-28 2.42188,-4.1952 v -0.008 L 89.2124,91.6012 73.2748,63.9996 h 38.7264 v 4 h 8 v -12 h -56 z"/>
</svg>
