<?xml version='1.0' encoding='utf-8'?>
<svg xmlns="http://www.w3.org/2000/svg" width="192" height="192" version="1.1" id="svg14">
  <defs>
    <filter style="color-interpolation-filters:sRGB" id="filter849" x="0.05" y="0.05" width="1.10" height="1.10">
      <feGaussianBlur stdDeviation="3.20"/>
    </filter>
    <filter style="color-interpolation-filters:sRGB" id="filter4648" x="0.11" y="0.11" width="1.22" height="1.22">
      <feGaussianBlur stdDeviation="1.35"/>
    </filter>
    <filter style="color-interpolation-filters:sRGB" id="filter4652" x="0.04" y="0.06" width="1.08" height="1.12">
      <feGaussianBlur stdDeviation="1.60"/>
    </filter>
    <filter style="color-interpolation-filters:sRGB" id="filter4656" x="0.05" y="0.05" width="1.09" height="1.10">
      <feGaussianBlur stdDeviation="2.16"/>
    </filter>
    <filter style="color-interpolation-filters:sRGB" id="filter4660" x="0.15" y="0.15" width="1.29" height="1.29">
      <feGaussianBlur stdDeviation="1.10"/>
    </filter>
    <filter style="color-interpolation-filters:sRGB" id="filter4786" x="0.10" y="0.06" width="1.19" height="1.13">
      <feGaussianBlur stdDeviation="1.76"/>
    </filter>
    <filter style="color-interpolation-filters:sRGB" id="filter4790" x="0.10" y="0.06" width="1.19" height="1.13">
      <feGaussianBlur stdDeviation="1.24"/>
    </filter>
  </defs>
  <rect style="filter:url(#filter849);opacity:0.20" width="160" height="160" x="16" y="20" rx="32" ry="32"/>
  <rect style="fill:#208ae7" width="160" height="160" x="16" y="16" rx="32" ry="32"/>
  <path style="filter:url(#filter4652);opacity:0.20;fill:#000000" d="m 95,54 c 0,0 -21.45,18.81 -21.45,40.90 0,8.37 -15.98,15.24 -11.59,21.66 0,0 21.70,-16.27 34.03,-18.56 13.81,0.02 31.03,23.59 32.93,17.12 2.69,1.24 5.61,1.88 8.57,1.88 11.32,0 20.50,-9.18 20.50,-20.50 0,-11.32 -9.18,-20.50 -20.50,-20.50 -2.14,0.01 -4.26,0.36 -6.29,1.02 C 124.63,62.97 110.51,54.00 95,54 Z"/>
  <path style="fill:#d9d9d9" d="m 95,52 c 0,0 -21.45,18.81 -21.45,40.90 0,8.37 -15.98,15.24 -11.59,21.66 0,0 21.70,-16.27 34.03,-18.56 13.81,0.02 31.03,23.59 32.93,17.12 2.69,1.24 5.61,1.88 8.57,1.88 11.32,0 20.50,-9.18 20.50,-20.50 0,-11.32 -9.18,-20.50 -20.50,-20.50 -2.14,0.01 -4.26,0.36 -6.29,1.02 C 124.63,60.97 110.51,52.00 95,52 Z"/>
  <path style="opacity:0.20;fill:#ffffff" d="M 48,16 C 30.27,16 16,30.27 16,48 v 1 C 16,31.27 30.27,17 48,17 h 96 c 17.73,0 32,14.27 32,32 V 48 C 176,30.27 161.73,16 144,16 Z"/>
  <path style="filter:url(#filter4786);opacity:0.20;fill:#000000" d="m 96,54.00 a 44,44 0 0 0 -44,44 44,44 0 0 0 6.25,22.44 L 96,98.00 Z"/>
  <path style="fill:#ff9800" d="M 96 52 A 44 44 0 0 0 52 96 A 44 44 0 0 0 58.25 118.44 L 96 96 L 96 52 z "/>
  <path style="opacity:0.20;fill:#ffffff" d="M 96 52 A 44 44 0 0 0 52 96 A 44 44 0 0 0 52.03 96.50 A 44 44 0 0 1 96 53 L 96 52 z "/>
  <path style="filter:url(#filter4790);opacity:0.20;fill:#000000" d="m 96,67.00 a 31,31 0 0 0 -31,31 31,31 0 0 0 4.40,15.81 L 96,98.00 Z"/>
  <path style="fill:#ffc107" d="M 96 65 A 31 31 0 0 0 65 96 A 31 31 0 0 0 69.40 111.81 L 96 96 L 96 65 z "/>
  <path style="opacity:0.20;fill:#ffffff" d="M 96 65 A 31 31 0 0 0 65 96 A 31 31 0 0 0 65.03 96.50 A 31 31 0 0 1 96 66 L 96 65 z "/>
  <path style="filter:url(#filter4656);opacity:0.20;fill:#000000;color:#000000" d="m 96,31 a 5,5 0 0 0 -5,5 V 95.11 L 39.51,124.66 a 5,5 0 0 0 -1.85,6.83 5,5 0 0 0 6.83,1.85 l 53.47,-30.70 47.51,27.95 a 3,3 0 0 0 4.11,-1.06 3,3 0 0 0 -1.06,-4.11 L 101,97.46 V 36 a 5,5 0 0 0 -5,-5 z"/>
  <path style="fill:#f0f0f0;color:#000000" d="M 96 29 A 5 5 0 0 0 91 34 L 91 93.11 L 39.51 122.66 A 5 5 0 0 0 37.66 129.49 A 5 5 0 0 0 44.49 131.34 L 97.96 100.64 L 145.48 128.59 A 3 3 0 0 0 149.59 127.52 A 3 3 0 0 0 148.52 123.41 L 101 95.46 L 101 34 A 5 5 0 0 0 96 29 z "/>
  <path style="filter:url(#filter4648);opacity:0.20;fill:#000000" d="m 92,124 v 11 H 81 v 8 h 11 v 11 h 8 v -11 h 11 v -8 h -11 v -11 z"/>
  <path style="fill:#0f50aa" d="M 92 122 L 92 133 L 81 133 L 81 141 L 92 141 L 92 152 L 100 152 L 100 141 L 111 141 L 111 133 L 100 133 L 100 122 L 92 122 z "/>
  <circle style="filter:url(#filter4660);opacity:0.20;fill:#000000" cx="96" cy="98" r="9"/>
  <circle style="fill:#ffffff" cx="96" cy="96" r="9"/>
</svg>
