<?xml version='1.0' encoding='utf-8'?>
<svg xmlns="http://www.w3.org/2000/svg" width="192" height="192" version="1.1" id="svg14">
  <defs>
    <filter style="color-interpolation-filters:sRGB" id="filter4488" x="0.04" y="0.05" width="1.09" height="1.11">
      <feGaussianBlur stdDeviation="2.00"/>
    </filter>
    <filter style="color-interpolation-filters:sRGB" id="filter4492" x="0.06" y="0.04" width="1.12" height="1.08">
      <feGaussianBlur stdDeviation="1.93"/>
    </filter>
    <filter style="color-interpolation-filters:sRGB" id="filter4578" x="0.11" y="0.06" width="1.22" height="1.11">
      <feGaussianBlur stdDeviation="1.98"/>
    </filter>
    <filter style="color-interpolation-filters:sRGB" id="filter4620" x="0.10" y="0.12" width="1.20" height="1.23">
      <feGaussianBlur stdDeviation="1.35"/>
    </filter>
  </defs>
  <path style="filter:url(#filter4488);opacity:0.20;fill:#000000;color:#000000" d="m 145,91 a 7,7 0 0 0 -7,7 c 0,23.18 -18.57,41.86 -41.74,42 -23.18,0.14 -41.97,-18.31 -42.25,-41.49 a 7,7 0 0 0 -7.09,-6.91 7,7 0 0 0 -6.91,7.08 C 40.35,126.91 61.71,150.11 89,153.55 V 165 h -4 a 7,7 0 0 0 -7,7 7,7 0 0 0 7,7 h 22 a 7,7 0 0 0 7,-7 7,7 0 0 0 -7,-7 h -4 V 153.55 C 130.58,150.08 152,126.46 152,98 a 7,7 0 0 0 -7,-7 z"/>
  <path style="fill:#f6842f;color:#000000" d="M 145 88 A 7 7 0 0 0 138 95 C 138 118.18 119.43 136.86 96.26 137 C 73.08 137.14 54.29 118.69 54.00 95.51 A 7 7 0 0 0 46.92 88.60 A 7 7 0 0 0 40.00 95.68 C 40.35 123.91 61.71 147.11 89 150.55 L 89 162 L 85 162 A 7 7 0 0 0 78 169 A 7 7 0 0 0 85 176 L 107 176 A 7 7 0 0 0 114 169 A 7 7 0 0 0 107 162 L 103 162 L 103 150.55 C 130.58 147.08 152 123.46 152 95 A 7 7 0 0 0 145 88 z "/>
  <path style="filter:url(#filter4492);opacity:0.20;fill:#000000" d="M 96,19 C 75.01,19 58,36.01 58,57 v 41 c 0,20.99 17.01,38 38,38 20.99,0 38,-17.01 38,-38 V 57 C 134,36.01 116.99,19 96,19 Z"/>
  <path style="fill:#e74334" d="M 96,16 C 75.01,16 58,33.01 58,54 v 41 c 0,20.99 17.01,38 38,38 20.99,0 38,-17.01 38,-38 V 54 C 134,33.01 116.99,16 96,16 Z"/>
  <path style="filter:url(#filter4578);opacity:0.20;fill:#000000" d="M 96,35 C 83.85,35 74,44.85 74,57 v 39 c 0,12.15 9.85,22 22,22 4.00,0 7.75,-1.07 10.98,-2.94 L 118,118 116.25,104.60 C 117.38,101.96 118,99.05 118,96 V 57 C 118,44.85 108.15,35 96,35 Z"/>
  <path style="fill:#ffffff" d="M 96,33 C 83.85,33 74,42.85 74,55 v 39 c 0,12.15 9.85,22 22,22 4.00,0 7.75,-1.07 10.98,-2.94 L 118,116 116.25,102.60 C 117.38,99.96 118,97.05 118,94 V 55 C 118,42.85 108.15,33 96,33 Z"/>
  <path style="filter:url(#filter4620);opacity:0.20;fill:#000000;color:#000000" d="m 85,51 a 5,5 0 0 0 -5,5 5,5 0 0 0 5,5 h 22 a 5,5 0 0 0 5,-5 5,5 0 0 0 -5,-5 z m 0,18 a 5,5 0 0 0 -5,5 5,5 0 0 0 5,5 h 22 a 5,5 0 0 0 5,-5 5,5 0 0 0 -5,-5 z"/>
  <path style="fill:#f6842f;color:#000000" d="M 85 49 A 5 5 0 0 0 80 54 A 5 5 0 0 0 85 59 L 107 59 A 5 5 0 0 0 112 54 A 5 5 0 0 0 107 49 L 85 49 z M 85 67 A 5 5 0 0 0 80 72 A 5 5 0 0 0 85 77 L 107 77 A 5 5 0 0 0 112 72 A 5 5 0 0 0 107 67 L 85 67 z "/>
  <path style="opacity:0.20;fill:#ffffff;color:#000000" d="M 96 16 C 75.01 16 58 33.01 58 54 L 58 55 C 58 34.01 75.01 17 96 17 C 116.99 17 134 34.01 134 55 L 134 54 C 134 33.01 116.99 16 96 16 z M 145 88 A 7 7 0 0 0 138 95 C 138 118.18 119.43 136.86 96.26 137 C 73.08 137.14 54.29 118.69 54.00 95.51 A 7 7 0 0 0 46.92 88.60 A 7 7 0 0 0 40.00 95.68 C 40.01 95.97 40.03 96.24 40.03 96.52 A 7 7 0 0 1 46.92 89.60 A 7 7 0 0 1 54.00 96.51 C 54.29 119.69 73.08 138.14 96.26 138 C 119.43 137.86 138 119.18 138 96 A 7 7 0 0 1 145 89 A 7 7 0 0 1 151.98 95.77 C 151.99 95.51 152 95.26 152 95 A 7 7 0 0 0 145 88 z M 85 162 A 7 7 0 0 0 78 169 A 7 7 0 0 0 78.10 169.50 A 7 7 0 0 1 85 163 L 89 163 L 89 162 L 85 162 z M 103 162 L 103 163 L 107 163 A 7 7 0 0 1 113.94 169.28 A 7 7 0 0 0 114 169 A 7 7 0 0 0 107 162 L 103 162 z "/>
</svg>
