<?xml version='1.0' encoding='utf-8'?>
<svg xmlns="http://www.w3.org/2000/svg" width="192" height="192" version="1" id="svg16">
  <defs>
    <filter style="color-interpolation-filters:sRGB" id="filter843" x="0.05" y="0.05" width="1.10" height="1.10">
      <feGaussianBlur stdDeviation="3.20"/>
    </filter>
    <filter style="color-interpolation-filters:sRGB" id="filter865" x="0.05" y="0.05" width="1.10" height="1.10">
      <feGaussianBlur stdDeviation="2.24"/>
    </filter>
  </defs>
  <rect style="filter:url(#filter843);opacity:0.20" width="160" height="160" x="16" y="20" rx="48" ry="48"/>
  <rect style="fill:#4f4f4f" width="160" height="160" x="16" y="16" rx="48" ry="48"/>
  <circle style="filter:url(#filter865);opacity:0.20" cx="96" cy="99.00" r="56"/>
  <circle style="fill:#ffffff" cx="96" cy="96" r="56"/>
  <path style="fill:#4f4f4f" d="m 123.18,62.00 c -1.44,0.00 -2.91,0.31 -4.08,0.91 -1.71,0.88 -3.43,2.75 -4.19,4.55 0.81,1.91 0.93,5.29 0.24,7.08 0.29,0.76 0.79,2.06 1.11,2.89 0.72,1.88 0.98,6.03 0.53,8.35 0.52,2.62 -2.12,5.65 -4.00,7.55 -5.65,5.71 -14.18,5.81 -19.79,0.23 -1.94,-1.92 -2.21,-2.38 -10.95,-18.33 -2.96,-5.42 -5.62,-9.95 -6.18,-10.54 -1.74,-1.88 -4.15,-2.55 -6.36,-2.56 -4.75,0.08 -8.05,3.73 -8.83,7.81 0.58,3.27 0.84,2.71 14.51,30.69 9.69,17.67 14.29,25.81 15.05,26.61 2.67,2.84 6.49,3.54 10.05,1.85 0.94,0.44 2.00,-1.24 2.68,-2.01 1.33,-1.51 28.79,-51.39 29.24,-53.10 0.47,-1.80 0.35,-4.35 0.28,-6.12 0.78,-2.20 -2.94,-4.46 -5.07,-5.30 0.95,0.38 -2.07,0.56 -3.19,0.56 z"/>
  <path style="opacity:0.10;fill:#ffffff" d="M 64 16 C 37.41 16 16 37.41 16 64 L 16 65 C 16 38.41 37.41 17 64 17 L 128 17 C 154.59 17 176 38.41 176 65 L 176 64 C 176 37.41 154.59 16 128 16 L 64 16 z "/>
</svg>
