<?xml version='1.0' encoding='utf-8'?>
<svg xmlns="http://www.w3.org/2000/svg" width="192" height="192" version="1" id="svg14">
  <defs>
    <filter style="color-interpolation-filters:sRGB" id="filter850" x="0.05" width="1.10" y="0.05" height="1.10">
      <feGaussianBlur stdDeviation="3.20"/>
    </filter>
    <filter style="color-interpolation-filters:sRGB" id="filter2221" x="0.11" y="0.10" width="1.23" height="1.20">
      <feGaussianBlur stdDeviation="5.02"/>
    </filter>
  </defs>
  <circle style="filter:url(#filter850);opacity:0.20;fill:#000000" cx="96" cy="100" r="80"/>
  <circle r="80" cy="96" cx="96" style="fill:#3f3f3f"/>
  <path style="opacity:0.10;fill:#ffffff" d="M 96 16 A 80 80 0 0 0 16 96 A 80 80 0 0 0 16.02 96.47 A 80 80 0 0 1 96 17 A 80 80 0 0 1 175.97 96.51 A 80 80 0 0 0 176 96 A 80 80 0 0 0 96 16 z "/>
  <path style="filter:url(#filter2221);opacity:0.20;fill:#000000;color:#000000" d="m 96,39 a 10,10 0 0 0 -10,10 10,10 0 0 0 8,9.77 v 3.43 L 66,78.37 63.05,76.67 A 10,10 0 0 0 58.56,64.84 10,10 0 0 0 44.90,68.50 10,10 0 0 0 48.56,82.16 10,10 0 0 0 61.03,80.12 L 64,81.83 v 32.33 l -2.97,1.71 A 10,10 0 0 0 48.56,113.84 10,10 0 0 0 44.90,127.50 a 10,10 0 0 0 13.66,3.66 10,10 0 0 0 4.48,-11.83 L 66,117.63 94,133.79 v 3.43 A 10,10 0 0 0 86,147 a 10,10 0 0 0 10,10 10,10 0 0 0 10,-10 10,10 0 0 0 -8,-9.80 v -3.41 l 28,-16.16 2.97,1.71 a 10,10 0 0 0 4.46,11.81 10,10 0 0 0 13.66,-3.66 10,10 0 0 0 -3.66,-13.66 10,10 0 0 0 -12.46,2.04 L 128,114.17 V 81.83 l 2.97,-1.71 A 10,10 0 0 0 143.44,82.16 10,10 0 0 0 147.10,68.50 10,10 0 0 0 133.44,64.84 10,10 0 0 0 128.97,76.65 L 126,78.37 98,62.21 v -3.43 A 10,10 0 0 0 106,49 10,10 0 0 0 96,39 Z m 0,4 a 6,6 0 0 1 6,6 6,6 0 0 1 -6,6 6,6 0 0 1 -6,-6 6,6 0 0 1 6,-6 z m 0,22.67 28,16.16 V 114.17 L 96,130.33 68,114.17 V 81.83 Z M 53.56,67.50 a 6,6 0 0 1 3,0.80 A 6,6 0 0 1 58.76,76.50 6,6 0 0 1 50.56,78.70 6,6 0 0 1 48.37,70.50 a 6,6 0 0 1 5.20,-3 z m 84.87,0 a 6,6 0 0 1 5.20,3 6,6 0 0 1 -2.20,8.20 6,6 0 0 1 -8.20,-2.20 6,6 0 0 1 2.20,-8.20 6,6 0 0 1 3,0.80 z M 96,81 a 2,2 0 0 0 -2,2 v 30 a 2,2 0 0 0 2,2 2,2 0 0 0 2,-2 V 83 a 2,2 0 0 0 -2,-2 z m -42.44,35.50 a 6,6 0 0 1 5.20,3 6,6 0 0 1 -2.20,8.20 6,6 0 0 1 -8.20,-2.20 6,6 0 0 1 2.20,-8.20 6,6 0 0 1 3,0.80 z m 84.87,0 a 6,6 0 0 1 3,0.80 6,6 0 0 1 2.20,8.20 6,6 0 0 1 -8.20,2.20 6,6 0 0 1 -2.20,-8.20 6,6 0 0 1 5.20,-3 z M 96,141 a 6,6 0 0 1 6,6 6,6 0 0 1 -6,6 6,6 0 0 1 -6,-6 6,6 0 0 1 6,-6 z"/>
  <path style="fill:#ffffff;color:#000000" d="M 96 37 A 10 10 0 0 0 86 47 A 10 10 0 0 0 94 56.77 L 94 60.21 L 66 76.37 L 63.05 74.67 A 10 10 0 0 0 58.56 62.84 A 10 10 0 0 0 44.90 66.50 A 10 10 0 0 0 48.56 80.16 A 10 10 0 0 0 61.03 78.12 L 64 79.83 L 64 112.17 L 61.03 113.88 A 10 10 0 0 0 48.56 111.84 A 10 10 0 0 0 44.90 125.50 A 10 10 0 0 0 58.56 129.16 A 10 10 0 0 0 63.05 117.33 L 66 115.63 L 94 131.79 L 94 135.23 A 10 10 0 0 0 86 145 A 10 10 0 0 0 96 155 A 10 10 0 0 0 106 145 A 10 10 0 0 0 98 135.20 L 98 131.79 L 126 115.63 L 128.97 117.35 A 10 10 0 0 0 133.44 129.16 A 10 10 0 0 0 147.10 125.50 A 10 10 0 0 0 143.44 111.84 A 10 10 0 0 0 130.97 113.88 L 128 112.17 L 128 79.83 L 130.97 78.12 A 10 10 0 0 0 143.44 80.16 A 10 10 0 0 0 147.10 66.50 A 10 10 0 0 0 133.44 62.84 A 10 10 0 0 0 128.97 74.65 L 126 76.37 L 98 60.21 L 98 56.77 A 10 10 0 0 0 106 47 A 10 10 0 0 0 96 37 z M 96 41 A 6 6 0 0 1 102 47 A 6 6 0 0 1 96 53 A 6 6 0 0 1 90 47 A 6 6 0 0 1 96 41 z M 96 63.67 L 124 79.83 L 124 112.17 L 96 128.33 L 68 112.17 L 68 79.83 L 96 63.67 z M 53.56 65.50 A 6 6 0 0 1 56.56 66.30 A 6 6 0 0 1 58.76 74.50 A 6 6 0 0 1 50.56 76.70 A 6 6 0 0 1 48.37 68.50 A 6 6 0 0 1 53.56 65.50 z M 138.44 65.50 A 6 6 0 0 1 143.63 68.50 A 6 6 0 0 1 141.44 76.70 A 6 6 0 0 1 133.24 74.50 A 6 6 0 0 1 135.44 66.30 A 6 6 0 0 1 138.44 65.50 z M 96 79 A 2 2 0 0 0 94 81 L 94 111 A 2 2 0 0 0 96 113 A 2 2 0 0 0 98 111 L 98 81 A 2 2 0 0 0 96 79 z M 53.56 114.50 A 6 6 0 0 1 58.76 117.50 A 6 6 0 0 1 56.56 125.70 A 6 6 0 0 1 48.37 123.50 A 6 6 0 0 1 50.56 115.30 A 6 6 0 0 1 53.56 114.50 z M 138.44 114.50 A 6 6 0 0 1 141.44 115.30 A 6 6 0 0 1 143.63 123.50 A 6 6 0 0 1 135.44 125.70 A 6 6 0 0 1 133.24 117.50 A 6 6 0 0 1 138.44 114.50 z M 96 139 A 6 6 0 0 1 102 145 A 6 6 0 0 1 96 151 A 6 6 0 0 1 90 145 A 6 6 0 0 1 96 139 z "/>
</svg>
