<?xml version='1.0' encoding='utf-8'?>
<svg xmlns="http://www.w3.org/2000/svg" width="192" height="192" version="1.1" id="svg6">
  <defs>
    <filter id="filter853" style="color-interpolation-filters:sRGB" width="1.10" height="1.10" x="0.05" y="0.05">
      <feGaussianBlur stdDeviation="3.20"/>
    </filter>
    <filter id="filter3050" style="color-interpolation-filters:sRGB" width="1.10" height="1.10" x="0.05" y="0.05">
      <feGaussianBlur stdDeviation="2.69"/>
    </filter>
  </defs>
  <circle style="filter:url(#filter853);opacity:0.20" cx="96" cy="100" r="80"/>
  <circle style="fill:#e4e4e4" cx="96" cy="96" r="80"/>
  <path style="filter:url(#filter3050);opacity:0.20" d="M 96,30.33 C 58.98,30.15 29,60.51 29,98.00 c 0,20.67 9.03,39.14 23.48,51.58 0.18,0.18 0.36,0.18 0.72,0.18 0.18,0 0.36,0.18 0.54,0.55 l 2.71,-8.78 c 0.18,0.37 0.54,0.55 0.90,0.55 5.87,1.29 11.18,2.15 15.96,2.12 24.30,0.17 34.54,-15.83 32.42,-26.08 -1.39,-6.67 -8.67,-13.05 -20.17,-12.92 -6.48,0.07 -14.30,2.36 -23.15,7.44 0.18,0.18 0.36,0.18 0.54,0 0,0 0.18,0.00 0.18,0.18 0.18,0.18 0.36,0.36 0.36,0.73 l 8.31,-42.98 c 0,0.18 0.18,0.37 0.36,0.55 0.18,0.18 0.54,0 0.72,0 2.35,1.46 9.39,6.04 16.98,10.61 0.18,0.18 0.36,0.37 0.36,0.73 0.18,1.83 -1.27,8.59 -1.63,11.52 0,0.18 0.00,0.55 0.18,0.73 0.18,0.18 0.36,0.18 0.72,0.18 41.18,-11.16 49.74,15.00 48.66,27.44 -2.53,28.35 -33.31,43.35 -60.76,43.71 0.36,0 0.72,0.18 0.72,0.55 0,0.37 0.18,0.73 0.54,0.73 C 81.73,164.39 88.78,165.67 96,165.67 c 37.02,0 67,-30.36 67,-67.85 0,-17.92 -7.22,-34.57 -18.60,-46.64 0.18,0.18 0.36,0.18 0.54,0.18 0.18,0 0.36,0.18 0.54,0.18 -3.25,3.84 -7.04,7.32 -11.20,10.06 -8.31,5.30 -17.70,7.76 -27.63,7.76 -18.42,0 -28.70,-8.68 -37.18,-15.26 0.18,0.18 0.36,0.37 0.36,0.55 0,0.18 0.18,0.37 0.36,0.55 13.18,-10.24 23.82,-16.83 34.84,-20.67 0.36,0.18 0.54,0.37 0.54,0.73 0,0.37 0.36,0.55 0.72,0.73 C 99.97,30.33 97.99,30.33 96,30.33 Z m 36.62,4.67 C 113.89,35.03 95.07,40.94 79,53.37 c 21.69,16.71 53.42,8.27 64.00,-17.79 -3.44,0.39 -6.91,0.59 -10.38,0.58 z"/>
  <path style="opacity:0.20;fill:#ffffff" d="M 96,16 A 80,80 0 0 0 16,96 80,80 0 0 0 16.02,96.64 80,80 0 0 1 96,17 80,80 0 0 1 175.98,96.30 80,80 0 0 0 176,96 80,80 0 0 0 96,16 Z"/>
  <path style="fill:#dc2a15" d="m 144.40,49.18 c 0.18,0.18 0.36,0.18 0.54,0.18 0.18,0 0.36,0.18 0.54,0.18 -3.25,3.84 -7.04,7.32 -11.20,10.06 C 123.81,64.54 114.42,67 104.49,67 86.07,67 75.79,58.32 67.31,51.74 c 0.18,0.18 0.36,0.37 0.36,0.55 0,0.18 0.18,0.37 0.36,0.55 13.18,-10.24 23.82,-16.83 34.83,-20.67 0.36,0.18 0.54,0.37 0.54,0.73 0,0.37 0.36,0.55 0.72,0.73 -1.99,0.18 -3.97,0.18 -5.96,0.18 -37.02,0.18 -67.00,30.18 -67.00,67.67 0,20.67 9.03,39.14 23.48,51.58 0.18,0.18 0.36,0.18 0.72,0.18 0.18,0 0.36,0.18 0.54,0.55 l 2.71,-8.78 c 0.18,0.37 0.54,0.55 0.90,0.55 5.87,1.29 11.18,2.15 15.95,2.12 C 97.61,139.83 107.85,124.17 105.73,113.92 104.35,107.26 97.06,100.88 85.56,101 c -6.48,0.07 -14.30,2.36 -23.15,7.44 0.18,0.18 0.36,0.18 0.54,0 0,0 0.18,0 0.18,0.18 0.18,0.18 0.36,0.37 0.36,0.73 l 8.31,-42.98 c 0,0.18 0.18,0.37 0.36,0.55 0.18,0.18 0.54,0 0.72,0 2.35,1.46 9.39,6.04 16.98,10.61 0.18,0.18 0.36,0.37 0.36,0.73 0.18,1.83 -1.26,8.60 -1.63,11.52 0,0.18 0,0.55 0.18,0.73 0.18,0.18 0.36,0.18 0.72,0.18 41.18,-11.16 49.74,15.00 48.66,27.43 -2.53,28.35 -33.31,43.35 -60.76,43.71 0.36,0 0.72,0.18 0.72,0.55 0,0.37 0.18,0.73 0.54,0.73 6.68,2.19 13.73,3.47 20.95,3.47 C 133.02,163.67 163,133.31 163,95.82 163,77.89 155.78,61.25 144.40,49.18 Z"/>
  <path fill="#78b617" d="m 79,51.37 c 21.69,16.71 53.42,8.27 64,-17.79 -19.57,9.52 -41.26,15.63 -64,17.79 z"/>
  <path fill="#28a62a" d="m 79,51.37 c 22.74,-1.98 44.25,-8.09 64,-17.79 -22.04,-2.52 -44.96,3.06 -64,17.79 z"/>
</svg>
