<?xml version='1.0' encoding='utf-8'?>
<svg xmlns="http://www.w3.org/2000/svg" width="192" height="192" version="1.1" id="svg12">
  <defs>
    <filter style="color-interpolation-filters:sRGB" id="filter856" x="0.05" width="1.10" y="0.05" height="1.09">
      <feGaussianBlur stdDeviation="3.04"/>
    </filter>
  </defs>
  <path d="m 157.09,122.26 -3.10,7.26 -88.05,-26.21 q 0.19,0.80 0.69,2.38 0.46,1.44 0.65,2.25 -3.52,14.61 1.56,23.88 5.19,9.30 18.95,13.40 11.87,3.53 26.11,2.89 14.34,0.62 31.00,-5.28 l -14.76,35.53 q -15.32,2.34 -29.72,1.35 -14.33,0.82 -28.41,-5.01 Q 41.79,166.50 30.68,145.82 19.67,125.16 26.81,95.54 30.95,78.39 39.56,63.72 48.30,48.94 60.67,38.26 75.38,25.40 92.40,21.56 q 17.13,-3.80 35.52,1.67 23.85,7.10 33.92,27.47 10.17,20.41 3.54,47.88 -1.29,5.36 -3.38,11.20 -1.95,5.74 -4.92,12.47 z M 126.87,89.71 q 0.74,-1.65 1.26,-3.36 0.66,-1.81 1.08,-3.56 2.59,-10.72 0.94,-18.52 -3.52,-7.80 -12.14,-10.36 -11.03,-3.28 -20.68,2.17 -9.51,5.36 -17.23,19.14 z" style="filter:url(#filter856);opacity:0.20"/>
  <path d="m 157.09,118.26 -3.10,7.26 -88.05,-26.21 q 0.19,0.80 0.69,2.38 0.46,1.44 0.65,2.25 -3.52,14.61 1.56,23.88 5.19,9.30 18.95,13.40 11.87,3.53 26.11,2.89 14.34,0.62 31.00,-5.28 l -14.76,35.53 q -15.32,2.34 -29.72,1.35 -14.33,0.82 -28.41,-5.01 -27.53,-8.19 -38.64,-28.88 Q 19.67,121.16 26.81,91.54 30.95,74.39 39.56,59.72 48.30,44.94 60.67,34.26 75.38,21.40 92.40,17.56 q 17.13,-3.80 35.52,1.67 23.85,7.10 33.92,27.48 10.17,20.41 3.54,47.88 -1.29,5.36 -3.38,11.20 -1.95,5.74 -4.92,12.47 z M 126.87,85.71 q 0.74,-1.65 1.26,-3.36 0.66,-1.81 1.08,-3.56 2.59,-10.72 0.94,-18.52 -3.52,-7.80 -12.14,-10.36 -11.03,-3.28 -20.68,2.17 -9.51,5.36 -17.23,19.14 z" style="fill:#1a56d1"/>
  <path d="M 112.36,16.28 24.61,104.03 c -1.32,11.45 0.29,21.74 3.05,30.89 L 88.34,74.24 78.23,71.23 C 83.37,62.04 89.11,55.65 95.45,52.08 101.07,48.90 107.04,47.94 113.37,49.21 L 138.98,23.60 C 135.58,21.87 131.90,20.41 127.93,19.23 122.66,17.66 117.47,16.70 112.36,16.28 Z m 44.92,22.96 -27.23,27.23 c 0.53,3.72 0.26,7.83 0.83,12.32 0.28,1.16 0.64,2.35 -1.09,3.55 0.35,1.14 0.77,2.26 -1.26,3.36 l -12.38,-3.69 -24.46,24.46 26.15,7.79 50.96,-50.95 c 0.96,-5.88 -2.72,-11.42 -5.30,-16.61 -1.32,-2.68 -2.88,-5.13 -4.56,-7.47 z m 6.40,61.48 -21.34,21.34 11.64,3.46 3.10,-7.26 c 1.98,-4.48 3.62,-8.64 4.92,-12.47 0.62,-1.72 1.16,-3.41 1.67,-5.07 z m -96.54,28.66 -26.01,26.01 c 5.68,5.31 12.71,9.59 21.08,12.86 l 26.21,-26.21 c -1.11,0.27 -2.24,0.50 -3.32,0.82 -8.38,-2.49 -14.35,-6.45 -17.96,-11.84 z m 75.08,9.45 c -7.34,2.05 -14.31,3.46 -20.98,4.34 l -31.77,31.76 c 2.74,0.34 5.50,0.63 8.26,0.79 8.35,0.57 16.94,0.25 25.74,0.85 l 6.45,-6.44 z" style="fill:#453a53"/>
  <path style="opacity:0.10;fill:#ffffff" d="M 107.64 16.01 C 102.48 15.94 97.40 16.45 92.40 17.56 C 81.05 20.12 70.47 25.69 60.67 34.26 C 52.42 41.38 45.38 49.87 39.55 59.72 C 33.82 69.50 29.57 80.11 26.81 91.54 C 24.95 99.25 24.03 106.49 24.01 113.29 C 24.11 106.78 25.04 99.87 26.81 92.54 C 29.57 81.11 33.82 70.50 39.55 60.72 C 45.38 50.87 52.42 42.38 60.67 35.26 C 70.47 26.69 81.05 21.12 92.40 18.56 C 103.83 16.03 115.67 16.58 127.93 20.23 C 143.83 24.97 155.13 34.12 161.84 47.71 C 165.97 55.99 168.01 65.15 167.99 75.17 C 168.15 64.75 166.11 55.26 161.84 46.71 C 155.13 33.12 143.83 23.97 127.93 19.23 C 121.03 17.18 114.27 16.11 107.64 16.01 z M 130.29 71.28 C 130.21 73.65 129.85 76.16 129.21 78.79 C 128.93 79.95 128.57 81.14 128.13 82.35 C 127.78 83.49 127.36 84.61 126.87 85.71 L 78.72 71.38 C 78.56 71.66 78.39 71.93 78.22 72.23 L 126.87 86.71 C 127.36 85.61 127.78 84.49 128.13 83.35 C 128.57 82.14 128.93 80.95 129.21 79.79 C 129.94 76.78 130.28 73.95 130.29 71.28 z M 63.16 115.75 C 63.12 120.75 64.12 125.10 66.15 128.81 C 69.61 135.01 75.93 139.48 85.11 142.21 C 93.02 144.57 101.72 145.53 111.21 145.10 C 120.63 144.70 130.82 142.97 141.75 139.95 L 142.21 138.82 C 131.10 141.93 120.77 143.69 111.21 144.10 C 101.72 144.53 93.02 143.57 85.11 141.21 C 75.93 138.48 69.61 134.01 66.15 127.81 C 64.25 124.35 63.25 120.33 63.16 115.75 z "/>
</svg>
