<?xml version='1.0' encoding='utf-8'?>
<svg xmlns="http://www.w3.org/2000/svg" width="192" height="192" version="1" id="svg14">
  <defs>
    <filter style="color-interpolation-filters:sRGB" id="filter860" x="-0.048000001" width="1.096" y="-0.048000001" height="1.096">
      <feGaussianBlur stdDeviation="3.2"/>
    </filter>
    <filter style="color-interpolation-filters:sRGB" id="filter5123" x="-0.046754046" y="-0.049314183" width="1.0935081" height="1.0986284">
      <feGaussianBlur stdDeviation="2.2258803"/>
    </filter>
  </defs>
  <circle style="filter:url(#filter860);opacity:0.2;fill:#000000" cx="96" cy="100" r="80"/>
  <circle style="fill:#ff9e12" cx="96" cy="96" r="80"/>
  <path style="filter:url(#filter5123);opacity:0.2;fill:#000000;color:#000000" d="M 96,44.478876 44.919922,86.236688 55.046875,98.62536 96,65.146844 136.95312,98.62536 147.08008,86.236688 Z m 20,4.521484 v 5.408203 l 13,10.591797 v -16 z M 39.238281,89.599969 c -0.01482,-0.02701 -0.03917,-0.0052 -0.07617,0.06641 l 0.0918,0.126953 c 5.91e-4,-0.09414 -0.0027,-0.169903 -0.01563,-0.19336 z m 0.01563,0.19336 C 39.233419,93.059125 32.025225,137.81534 81,152.807 c 4.524635,-6.2529 9.477073,-10.9024 15,-13.41016 5.52292,2.50776 10.47536,7.15726 15,13.41016 48.97477,-14.99166 41.76659,-59.747875 41.74609,-63.013671 L 111,147.37536 c -4.18123,-8.01759 -9.25612,-14.11707 -15,-18.78125 -5.743905,4.66418 -10.818778,10.76366 -15,18.78125 z m 113.492179,0 0.0918,-0.126953 c -0.037,-0.07161 -0.0614,-0.09342 -0.0762,-0.06641 -0.0126,0.02346 -0.0162,0.09922 -0.0156,0.19336 z"/>
  <path style="fill:#ffffff;color:#000000" d="M 96,42.478516 44.919922,84.236328 55.046875,96.625 96,63.146484 Z M 39.238281,87.599609 c -0.01482,-0.02701 -0.03917,-0.0052 -0.07617,0.06641 l 0.0918,0.126953 c 5.91e-4,-0.09414 -0.0027,-0.169903 -0.01563,-0.19336 z m 0.01563,0.19336 C 39.233419,91.058765 32.025225,135.81498 81,150.80664 c 4.524635,-6.2529 9.477073,-10.9024 15,-13.41016 v -10.80273 c -5.743905,4.66418 -10.818778,10.76366 -15,18.78125 z"/>
  <path style="fill:#dbdbdb;color:#000000" d="M 96,42.478516 147.08008,84.236328 136.95312,96.625 96,63.146484 Z m 56.76172,45.121093 c 0.0148,-0.02701 0.0392,-0.0052 0.0762,0.06641 l -0.0918,0.126953 c -5.9e-4,-0.09414 0.003,-0.169903 0.0156,-0.19336 z m -0.0156,0.19336 c 0.0205,3.265796 7.22868,48.022011 -41.74609,63.013671 -4.52464,-6.2529 -9.47708,-10.9024 -15.000005,-13.41016 V 126.59375 C 101.7439,131.25793 106.81877,137.35741 111,145.375 Z"/>
  <path style="fill:#ffffff;stop-color:#000000" d="m 116,47 v 5.408203 L 129,63 V 47 Z"/>
  <path style="opacity:0.2;fill:#ffffff" d="M 95.941406,16 A 80,80 0 0 0 16,96 80,80 0 0 0 16.002,96.529297 80,80 0 0 1 96,17 80,80 0 0 1 175.99805,96.470703 80,80 0 0 0 176,96 80,80 0 0 0 96,16 80,80 0 0 0 95.94141,16 Z"/>
</svg>
