<?xml version='1.0' encoding='utf-8'?>
<svg xmlns="http://www.w3.org/2000/svg" width="192" height="192" version="1" id="svg14">
  <defs>
    <filter style="color-interpolation-filters:sRGB" id="filter848" x="-0.048000001" width="1.096" y="-0.048000001" height="1.096">
      <feGaussianBlur stdDeviation="3.2"/>
    </filter>
    <filter style="color-interpolation-filters:sRGB" id="filter3341" x="-0.042092963" y="-0.054817938" width="1.0841859" height="1.1096359">
      <feGaussianBlur stdDeviation="1.964297"/>
    </filter>
    <filter style="color-interpolation-filters:sRGB" id="filter3345" x="-0.042092963" y="-0.054817938" width="1.0841859" height="1.1096359">
      <feGaussianBlur stdDeviation="1.964297"/>
    </filter>
  </defs>
  <rect transform="matrix(0,-1,-1,0,0,0)" ry="8" rx="8" y="-176" x="-180" height="160" width="160" style="filter:url(#filter848);opacity:0.2"/>
  <rect transform="matrix(0,-1,-1,0,0,0)" ry="8" rx="8" y="-176" x="-176" height="160" width="160" style="fill:#3f3f3f"/>
  <path style="opacity:0.1;fill:#ffffff" d="m 24,16 c -4.432,0 -8,3.568 -8,8 v 1 c 0,-4.432 3.568,-8 8,-8 h 144 c 4.432,0 8,3.568 8,8 v -1 c 0,-4.432 -3.568,-8 -8,-8 z"/>
  <path style="filter:url(#filter3341);opacity:0.2;fill:#000000;color:#000000" d="m 47.001176,62.000546 a 7,7 0 0 0 -7,7 7,7 0 0 0 7,7 h 11.992188 l 51.431646,59.574224 a 7.0007,7.0007 0 0 0 5.29883,2.42578 h 6.27734 v 7.52148 a 2.4694623,2.4788733 0 0 0 3.70312,2.14649 l 12.5293,-7.25977 12.5293,-7.26172 a 2.4694623,2.4788733 0 0 0 0,-4.29492 l -12.5293,-7.25976 -12.5293,-7.26172 a 2.4694623,2.4788733 0 0 0 -1.66406,-0.29297 2.4694623,2.4788733 0 0 0 -0.80468,0.29297 2.4694623,2.4788733 0 0 0 -1.23438,2.14648 v 7.52344 h -3.07227 L 67.49727,64.426327 a 7.0007,7.0007 0 0 0 -5.298828,-2.425781 z"/>
  <path style="fill:#13dad0;color:#000000" d="m 47.001176,58 a 7,7 0 0 0 -7,7 7,7 0 0 0 7,7 h 11.992188 l 51.431646,59.57422 A 7.0007,7.0007 0 0 0 115.72384,134 h 6.27734 v 7.52148 a 2.4694623,2.4788733 0 0 0 3.70312,2.14649 l 12.5293,-7.25977 12.5293,-7.26172 a 2.4694623,2.4788733 0 0 0 0,-4.29492 l -12.5293,-7.25976 -12.5293,-7.26172 a 2.4694623,2.4788733 0 0 0 -1.66406,-0.29297 2.4694623,2.4788733 0 0 0 -0.80468,0.29297 2.4694623,2.4788733 0 0 0 -1.23438,2.14648 V 120 h -3.07227 L 67.49727,60.425781 A 7.0007,7.0007 0 0 0 62.198442,58 Z"/>
  <path style="opacity:0.2;fill:#ffffff;color:#000000" d="m 47.001953,58 a 7,7 0 0 0 -7,7 7,7 0 0 0 0.09961,0.5 7,7 0 0 1 6.900391,-6.5 H 62.19922 a 7.0007,7.0007 0 0 1 5.298828,2.425781 L 118.92969,121 h 3.07226 v -1 h -3.07226 L 67.498047,60.425781 A 7.0007,7.0007 0 0 0 62.199219,58 Z m 77.039067,52.03711 a 2.4694623,2.4788733 0 0 0 -0.80469,0.29297 2.4694623,2.4788733 0 0 0 -1.23438,2.14648 v 1 a 2.4694623,2.4788733 0 0 1 1.23438,-2.14648 2.4694623,2.4788733 0 0 1 0.80469,-0.29297 2.4694623,2.4788733 0 0 1 1.66406,0.29297 l 12.5293,7.26172 12.52929,7.25976 a 2.4694623,2.4788733 0 0 1 1.16602,1.64844 2.4694623,2.4788733 0 0 0 -1.16602,-2.64844 l -12.52929,-7.25976 -12.5293,-7.26172 a 2.4694623,2.4788733 0 0 0 -1.66406,-0.29297 z"/>
  <path style="filter:url(#filter3345);opacity:0.2;fill:#000000;color:#000000" d="m 47.001176,138.00055 a 7,7 0 0 1 -7,-7 7,7 0 0 1 7,-7 H 58.993364 L 110.42501,64.426326 a 7.0007,7.0007 0 0 1 5.29883,-2.42578 h 6.27734 v -7.52148 a 2.4694623,2.4788733 0 0 1 3.70312,-2.14649 l 12.5293,7.25977 12.5293,7.26172 a 2.4694623,2.4788733 0 0 1 0,4.29492 l -12.5293,7.25976 -12.5293,7.26172 a 2.4694623,2.4788733 0 0 1 -1.66406,0.29297 2.4694623,2.4788733 0 0 1 -0.80468,-0.29297 2.4694623,2.4788733 0 0 1 -1.23438,-2.14648 v -7.52344 h -3.07227 L 67.49727,135.57477 a 7.0007,7.0007 0 0 1 -5.298828,2.42578 z"/>
  <path style="fill:#07ef8c;color:#000000" d="m 47.001176,134 a 7,7 0 0 1 -7,-7 7,7 0 0 1 7,-7 H 58.993364 L 110.42501,60.42578 A 7.0007,7.0007 0 0 1 115.72384,58 h 6.27734 v -7.52148 a 2.4694623,2.4788733 0 0 1 3.70312,-2.14649 l 12.5293,7.25977 12.5293,7.26172 a 2.4694623,2.4788733 0 0 1 0,4.29492 l -12.5293,7.25976 -12.5293,7.26172 a 2.4694623,2.4788733 0 0 1 -1.66406,0.29297 2.4694623,2.4788733 0 0 1 -0.80468,-0.29297 2.4694623,2.4788733 0 0 1 -1.23438,-2.14648 V 72 h -3.07227 L 67.49727,131.57422 A 7.0007,7.0007 0 0 1 62.198442,134 Z"/>
  <path style="opacity:0.2;fill:#ffffff;color:#000000" d="m 124.4707,48 a 2.4694623,2.4788733 0 0 0 -2.46875,2.478516 v 1 a 2.4694623,2.4788733 0 0 1 3.70313,-2.146485 l 12.5293,7.259766 12.52929,7.261719 a 2.4694623,2.4788733 0 0 1 1.16602,1.648437 2.4694623,2.4788733 0 0 0 -1.16602,-2.648437 l -12.52929,-7.261719 -12.5293,-7.259766 A 2.4694623,2.4788733 0 0 0 124.4707,48 Z m -8.74609,10 a 7.0007,7.0007 0 0 0 -5.29883,2.425781 L 58.994141,120 H 47.001953 a 7,7 0 0 0 -7,7 7,7 0 0 0 0.09961,0.5 7,7 0 0 1 6.900391,-6.5 H 58.994141 L 110.42578,61.425781 A 7.0007,7.0007 0 0 1 115.72461,59 h 6.27734 v -1 z"/>
</svg>
