<?xml version='1.0' encoding='utf-8'?>
<svg xmlns="http://www.w3.org/2000/svg" width="192" height="192" version="1" id="svg12">
  <defs>
    <filter style="color-interpolation-filters:sRGB" id="filter859" x="0.05" width="1.10" y="0.05" height="1.10">
      <feGaussianBlur stdDeviation="3.20"/>
    </filter>
    <filter style="color-interpolation-filters:sRGB" id="filter930" x="0.06" width="1.11" y="0.10" height="1.19">
      <feGaussianBlur stdDeviation="3.20"/>
    </filter>
  </defs>
  <path style="opacity:0.20;fill:#ffffff" d="M 96 16 A 80 80 0 0 0 16 96 A 80 80 0 0 0 16.00 96.16 A 80 80 0 0 1 96 17 A 80 80 0 0 1 175.99 96.12 A 80 80 0 0 0 176 96 A 80 80 0 0 0 96 16 z "/>
  <circle style="fill:#009688" cx="96" cy="96" r="79.50"/>
  <circle style="filter:url(#filter859);opacity:0.20" cx="96" cy="100" r="80"/>
  <path style="fill:#00b686" d="M 165.16,55.80 C 172.04,67.62 176,81.34 176,96 c 0,44.18 -35.82,80 -80,80 V 95.58 Z"/>
  <path style="fill:#1de9b6" d="M 26.84,55.80 C 19.96,67.62 16,81.34 16,96 c 0,44.18 35.82,80 80,80 V 95.58 Z"/>
  <path style="filter:url(#filter930);opacity:0.10;fill:#000000" d="M 95.94,18 C 67.47,18.02 41.15,33.18 26.84,57.80 L 96,98 165.53,58.43 C 151.30,33.44 124.76,18.00 96,18 h 0.06 z"/>
  <path style="fill:#6effe8" d="M 95.94,16 C 67.47,16.02 41.15,31.18 26.84,55.80 L 96,96 165.53,56.43 C 151.30,31.44 124.76,16.00 96,16 Z"/>
  <path style="fill:#00b686" d="M 48.15 91.00 C 47.56 90.95 47 91.80 47 92.47 L 47 127.37 C 47 128.14 47.73 128.38 48.40 128.76 L 57.60 133.92 C 58.27 134.30 59 133.30 59 132.53 L 59 97.63 C 59 96.86 58.27 96.62 57.60 96.24 L 48.40 91.08 C 48.32 91.03 48.23 91.01 48.15 91.00 z M 64.15 100.00 C 63.56 99.95 63 100.80 63 101.47 L 63 136.37 C 63 137.14 63.73 137.38 64.40 137.76 L 73.60 142.92 C 74.27 143.30 75 142.30 75 141.53 L 75 106.63 C 75 105.86 74.27 105.62 73.60 105.24 L 64.40 100.08 C 64.32 100.03 64.23 100.01 64.15 100.00 z "/>
  <path style="fill:#1de9b6" d="M 115.41,106.83 145.59,89.09 C 146.26,88.69 147,89.71 147,90.48 v 33.30 c 0,0.77 0.74,0.99 -1.41,1.39 l -30.18,17.74 C 114.74,143.31 114,142.29 114,141.52 v -33.30 c 0,0.77 0.74,0.99 1.41,-1.39 z"/>
  <path style="fill:#1de9b6;color:#000000;font-stretch:normal;font-variant-ligatures:normal;font-variant-position:normal;font-variant-caps:normal;font-variant-numeric:normal;font-variant-alternates:normal;font-variant-east-asian:normal;font-feature-settings:normal;font-variation-settings:normal;text-indent:0;text-align:start;text-decoration-line:none;text-decoration-style:solid;text-decoration-color:#000000;text-transform:none;writing-mode:lr-tb;direction:ltr;text-orientation:mixed;dominant-baseline:auto;baseline-shift:baseline;white-space:normal;shape-padding:0;shape-margin:0;inline-size:0;clip-rule:nonzero;display:inline;overflow:visible;visibility:visible;isolation:auto;mix-blend-mode:normal;color-interpolation:sRGB;color-interpolation-filters:linearRGB;solid-color:#000000;solid-opacity:1;vector-effect:none;fill-rule:nonzero;color-rendering:auto;image-rendering:auto;shape-rendering:auto;text-rendering:auto;enable-background:accumulate;stop-color:#000000;stop-opacity:1" d="m 109.52,45.00 a 2.51,2.51 0 0 0 0.42,0.03 l -36.97,5.90 a 2.51,2.51 0 0 0 0.89,4.64 l 26.87,16.07 a 2.51,2.51 0 0 0 3.57,-1.11 l 10.11,-21.98 a 2.51,2.51 0 0 0 -2.26,-3.56 z"/>
  <path style="opacity:0.20;fill:#ffffff" d="M 95.94 16 C 67.47 16.02 41.15 31.18 26.84 55.80 L 26.84 55.80 C 19.96 67.62 16 81.34 16 96 C 16 96.19 16.01 96.39 16.01 96.58 C 16.08 82.08 20.03 68.50 26.84 56.80 L 26.84 56.80 C 41.15 32.18 67.47 17.02 95.94 17 L 96 17 C 124.51 17.00 150.85 32.18 165.16 56.80 C 165.16 56.81 165.17 56.82 165.17 56.83 C 165.29 57.03 165.41 57.23 165.53 57.43 L 165.51 57.44 C 172.11 68.99 175.92 82.34 175.99 96.58 C 175.99 96.38 176 96.19 176 96 C 176 81.60 172.17 68.11 165.51 56.44 L 165.53 56.43 C 165.41 56.23 165.29 56.03 165.17 55.83 C 165.17 55.82 165.16 55.81 165.16 55.80 C 150.85 31.18 124.51 16.00 96 16 L 95.94 16 z "/>
</svg>
