<?xml version='1.0' encoding='utf-8'?>
<svg xmlns="http://www.w3.org/2000/svg" width="192" height="192" version="1" id="svg28">
  <defs>
    <filter style="color-interpolation-filters:sRGB" id="filter6495" x="0.05" y="0.05" width="1.10" height="1.10">
      <feGaussianBlur stdDeviation="3.20"/>
    </filter>
    <filter style="color-interpolation-filters:sRGB" id="filter4711" x="0.06" y="0.04" width="1.12" height="1.08">
      <feGaussianBlur stdDeviation="2.09"/>
    </filter>
  </defs>
  <rect transform="matrix(0,-1,-1,0,0,0)" ry="12" rx="12" y="-176" x="-180" height="160" width="160" style="filter:url(#filter6495);opacity:0.20;fill:#000000"/>
  <rect transform="matrix(0,-1,-1,0,0,0)" ry="12" rx="12" y="-176" x="-176" height="160" width="160" style="fill:#e73d33"/>
  <path style="opacity:0.20;fill:#ffffff" d="m 28,16 c -6.65,0 -12,5.35 -12,12 v 1 c 0,-6.65 5.35,-12 12,-12 h 136 c 6.65,0 12,5.35 12,12 v -1 c 0,-6.65 -5.35,-12 -12,-12 z"/>
  <path style="filter:url(#filter4711);opacity:0.20;fill:#000000;color:#000000" d="m 77.39,50.01 c 0.78,0.05 -1.57,0.05 -2.32,0.30 -1.51,0.51 -2.75,1.60 -3.45,3.03 -1.46,2.97 0.24,6.57 2.73,8.03 l 33.64,15.45 c 10.97,5.42 28.63,12.13 29.01,21.16 0.19,4.50 -2.90,8.89 -6.74,10.84 0.01,0.00 0.00,0.00 0.01,0.00 -16.33,9.18 -50.93,23.77 -50.93,23.77 l 0.01,0.00 C 69.89,136.18 71,142.88 71,142.88 V 171 h 81 V 108.18 C 152,96.71 150.27,89.31 145.49,84.11 140.71,78.91 134.93,76.91 127.49,72.62 c 0.11,0.07 0.23,0.13 0.35,0.19 L 79.65,50.62 C 78.94,50.27 78.17,50.06 77.39,50.01 Z M 73.10,72.03 C 72.80,72.08 72.52,72.17 72.27,72.30 71.48,72.70 71.00,73.43 71,74.22 v 47.55 c 0.00,1.71 2.11,2.78 3.80,1.93 L 122.73,99.93 c 1.69,0.86 1.69,-2.99 0,-3.85 L 74.80,72.30 c 0.52,0.26 -1.12,0.36 -1.71,0.27 z"/>
  <path style="fill:#ffffff;color:#000000" d="M 77.39 48.01 C 76.61 47.96 75.82 48.06 75.07 48.32 C 73.56 48.83 72.32 49.92 71.62 51.35 C 70.15 54.32 71.38 57.92 74.35 59.38 L 107.99 74.83 C 118.96 80.25 136.62 86.97 137 95.99 C 137.19 100.50 134.10 104.89 130.26 106.84 C 130.25 106.84 130.26 106.84 130.25 106.84 C 113.92 116.02 79.32 130.61 79.32 130.61 L 79.32 130.61 C 69.89 134.18 71 140.88 71 140.88 L 71 176 L 152 176 L 152 106.18 C 152 94.71 150.27 87.31 145.49 82.11 C 140.71 76.91 134.93 74.91 127.49 70.62 C 127.37 70.55 127.26 70.49 127.14 70.43 L 79.65 48.62 C 78.94 48.27 78.17 48.06 77.39 48.01 z M 73.10 70.03 C 72.80 70.08 72.52 70.17 72.27 70.30 C 71.48 70.70 71.00 71.43 71 72.22 L 71 119.78 C 71.00 121.49 73.11 122.56 74.80 121.70 L 122.73 97.93 C 124.42 97.07 124.42 94.93 122.73 94.07 L 74.80 70.30 C 74.29 70.04 73.68 69.94 73.10 70.03 z "/>
</svg>
