<?xml version='1.0' encoding='utf-8'?>
<svg xmlns="http://www.w3.org/2000/svg" width="192" height="192" version="1" id="svg20">
  <defs>
    <filter style="color-interpolation-filters:sRGB" id="filter853" x="0.05" width="1.09" y="0.05" height="1.10">
      <feGaussianBlur stdDeviation="3.24"/>
    </filter>
    <filter style="color-interpolation-filters:sRGB" id="filter878" x="0.05" width="1.10" y="0.05" height="1.10">
      <feGaussianBlur stdDeviation="2.07"/>
    </filter>
    <filter style="color-interpolation-filters:sRGB" id="filter894" x="0.05" width="1.10" y="0.05" height="1.10">
      <feGaussianBlur stdDeviation="0.96"/>
    </filter>
  </defs>
  <path d="M 95.98,20 A 79.98,80.00 0 0 0 16,100.00 79.98,80.00 0 0 0 95.98,180.00 79.98,80.00 0 0 0 145.70,162.65 l 13.82,13.82 c 4.70,4.70 12.26,4.70 16.96,0 4.70,-4.70 4.70,-12.28 0,-16.98 l -14.43,-14.44 A 79.98,80.00 0 0 0 175.95,100.00 79.98,80.00 0 0 0 95.98,20 Z" style="filter:url(#filter853);opacity:0.20"/>
  <path d="M 95.98,16.00 A 79.98,80.00 0 0 0 16,96.00 79.98,80.00 0 0 0 95.98,176.00 79.98,80.00 0 0 0 145.70,158.65 l 13.82,13.82 c 4.70,4.70 12.26,4.70 16.96,0 4.70,-4.70 4.70,-12.28 0,-16.98 l -14.43,-14.44 A 79.98,80.00 0 0 0 175.95,96.00 79.98,80.00 0 0 0 95.98,16.00 Z" style="fill:#fcbc30"/>
  <path d="M 96,36 A 60,60 0 0 0 37.28,84 H 92 v 24 H 37.22 A 60,60 0 0 0 96,156 60,60 0 0 0 156,96 60,60 0 0 0 96,36 Z" style="fill:#3a3a3a"/>
  <path d="M 96,48 A 52,52 0 0 0 45.47,88 H 92 v 24 H 45.46 A 52,52 0 0 0 96,152 52,52 0 0 0 148,100 52,52 0 0 0 96,48 Z" style="filter:url(#filter878);opacity:0.20"/>
  <path d="M 96,44 A 52,52 0 0 0 45.47,84 H 92 v 24 H 45.46 A 52,52 0 0 0 96,148 52,52 0 0 0 148,96 52,52 0 0 0 96,44 Z" style="fill:#4f4f4f"/>
  <circle transform="matrix(0,-1,-1,0,0,0)" r="24" cy="-96" cx="-100" style="filter:url(#filter894);opacity:0.10"/>
  <circle transform="matrix(0,-1,-1,0,0,0)" r="24" cy="-96" cx="-96" style="fill:#7a7a7a"/>
  <path style="opacity:0.20;fill:#ffffff" d="M 95.98 16 A 79.98 80.00 0 0 0 16 96.00 A 79.98 80.00 0 0 0 16.02 96.41 A 79.98 80.00 0 0 1 95.98 17 A 79.98 80.00 0 0 1 175.93 96.50 A 79.98 80.00 0 0 0 175.95 96.00 A 79.98 80.00 0 0 0 95.98 16 z M 162.42 141.44 A 79.98 80.00 0 0 1 162.04 142.06 L 176.47 156.50 C 178.70 158.72 179.86 161.59 179.98 164.49 C 180.11 161.25 178.95 157.98 176.47 155.50 L 162.42 141.44 z "/>
  <path style="opacity:0.10;fill:#ffffff" d="M 96 72 A 24 24 0 0 0 72 96 A 24 24 0 0 0 72.02 96.42 A 24 24 0 0 1 96 73 A 24 24 0 0 1 119.98 96.58 A 24 24 0 0 0 120 96 A 24 24 0 0 0 96 72 z "/>
</svg>
