<?xml version='1.0' encoding='utf-8'?>
<svg xmlns="http://www.w3.org/2000/svg" width="192" height="192" version="1" id="svg28">
  <defs>
    <filter style="color-interpolation-filters:sRGB" id="filter6495" x="-0.048000001" y="-0.048000001" width="1.096" height="1.096">
      <feGaussianBlur stdDeviation="3.2"/>
    </filter>
    <filter style="color-interpolation-filters:sRGB" id="filter6847" x="-0.049695122" y="-0.1528125" width="1.0993902" height="1.305625">
      <feGaussianBlur stdDeviation="2.546875"/>
    </filter>
  </defs>
  <rect transform="matrix(0,-1,-1,0,0,0)" ry="12" rx="12" y="-176" x="-180" height="160" width="160" style="filter:url(#filter6495);opacity:0.2;fill:#000000"/>
  <rect transform="matrix(0,-1,-1,0,0,0)" ry="12" rx="12" y="-176" x="-176" height="160" width="160" style="fill:#1479d0"/>
  <path style="opacity:0.2;fill:#ffffff" d="m 28,16 c -6.648,0 -12,5.352 -12,12 v 1 c 0,-6.648 5.352,-12 12,-12 h 136 c 6.648,0 12,5.352 12,12 v -1 c 0,-6.648 -5.352,-12 -12,-12 z"/>
  <path style="filter:url(#filter6847);opacity:0.2;fill:#000000" d="m 35,78 v 7 h 4 v 26 h -4 v 7 h 4 8 4 v -7 H 47 V 85 h 4 v -7 z m 22,0 v 40 h 8 v -14 h 4.267578 c 3.932104,0.21163 7.042647,-0.84563 9.314453,-2.07812 2.309669,-1.2325 3.956958,-2.858198 4.941407,-4.875005 C 84.507886,94.99272 85,92.80778 85,90.492188 85,86.607967 83.788493,83.564876 81.365234,81.361328 78.979839,79.120431 75.174372,78 69.949219,78 Z m 31,0 v 7 h 11 v 33 h 8 V 85 h 11 v -7 z m 33,0 13.77539,40 h 9.39258 L 158,78 h -8.70898 l -7.68555,23.80859 c -0.1138,0.41084 -0.3214,1.17643 -0.625,2.29688 -0.30361,1.0831 -0.60851,2.24211 -0.91211,3.47461 -0.26567,1.19514 -0.45456,2.20373 -0.56836,3.02539 -0.11387,-0.82166 -0.32335,-1.83025 -0.62695,-3.02539 -0.30354,-1.2325 -0.60655,-2.39151 -0.91016,-3.47461 -0.26567,-1.12045 -0.47515,-1.88604 -0.62695,-2.29688 L 129.70898,78 Z m -56,7 h 4.371094 C 73.790032,85 76,86.962191 76,90.886719 76,93.037663 75.299722,94.602852 73.900391,95.583984 72.537885,96.52738 70.679033,97 68.322266,97 H 65 Z"/>
  <path style="fill:#ffffff" d="m 35,76 v 7 h 4 v 26 h -4 v 7 h 4 8 4 v -7 H 47 V 83 h 4 v -7 z m 22,0 v 40 h 8 v -14 h 4.267578 c 3.932104,0.21163 7.042647,-0.84563 9.314453,-2.078125 2.309669,-1.232493 3.956958,-2.858193 4.941407,-4.875 C 84.507886,92.99272 85,90.80778 85,88.492188 85,84.607967 83.788493,81.564876 81.365234,79.361328 78.979839,77.120431 75.174372,76 69.949219,76 Z m 31,0 v 7 h 11 v 33 h 8 V 83 h 11 v -7 z m 33,0 13.77539,40 h 9.39258 L 158,76 h -8.70898 l -7.68555,23.808594 c -0.1138,0.410836 -0.3214,1.176426 -0.625,2.296876 -0.30361,1.0831 -0.60851,2.24211 -0.91211,3.47461 -0.26567,1.19514 -0.45456,2.20373 -0.56836,3.02539 -0.11387,-0.82166 -0.32335,-1.83025 -0.62695,-3.02539 -0.30354,-1.2325 -0.60655,-2.39151 -0.91016,-3.47461 -0.26567,-1.12045 -0.47515,-1.88604 -0.62695,-2.296876 L 129.70898,76 Z m -56,7 h 4.371094 C 73.790032,83 76,84.962191 76,88.886719 76,91.037663 75.299722,92.602852 73.900391,93.583984 72.537885,94.52738 70.679033,95 68.322266,95 H 65 Z"/>
</svg>
