<?xml version='1.0' encoding='utf-8'?>
<svg xmlns="http://www.w3.org/2000/svg" width="192" height="192" version="1" id="svg14">
  <defs>
    <filter style="color-interpolation-filters:sRGB" id="filter850" x="0.05" width="1.10" y="0.05" height="1.10">
      <feGaussianBlur stdDeviation="3.20"/>
    </filter>
    <filter style="color-interpolation-filters:sRGB" id="filter2401" x="0.12" y="0.10" width="1.23" height="1.20">
      <feGaussianBlur stdDeviation="4.29"/>
    </filter>
  </defs>
  <circle style="filter:url(#filter850);opacity:0.20;fill:#000000" cx="96" cy="100" r="80"/>
  <circle r="80" cy="96" cx="96" style="fill:#144795"/>
  <path style="opacity:0.10;fill:#ffffff" d="M 96 16 A 80 80 0 0 0 16 96 A 80 80 0 0 0 16.02 96.47 A 80 80 0 0 1 96 17 A 80 80 0 0 1 175.97 96.51 A 80 80 0 0 0 176 96 A 80 80 0 0 0 96 16 z "/>
  <path style="fill:#38adfa" d="m 688.81,257.00 c 0.33,0.33 -1.19,0.37 -1.92,0.08 0.80,0.32 0.56,0.56 0.60,0.60 1.05,0.04 1.64,0.19 1.31,0.53 z"/>
  <path style="filter:url(#filter2401);opacity:0.20;fill:#000000" d="M 100.25,47.01 C 97.28,46.93 91.08,47.68 87.28,48.64 71.83,52.53 59.19,62.36 52.84,75.42 49.43,82.46 48,89.10 48,98.00 c 0,14.89 4.58,26.14 14.58,35.87 6.68,6.49 15.04,11.07 24.60,13.45 4.87,1.22 12.13,2.00 14.37,1.55 0.72,0.14 0.80,0.25 0.80,-1.10 v 0.94 l -2.23,0.32 C 92.13,145.38 86.03,138.88 82.20,127.43 79.49,119.32 78,110.69 78,97.97 78,85.37 79.44,76.99 82.08,68.96 85.94,57.20 92.03,50.63 100.12,49.48 l 2.23,0.32 v 0.95 c 0,0.91 0.04,0.96 -1.04,-1.12 0.28,0.05 0.63,0.07 -1.06,0.09 z m 6.95,0.01 v 1.12 c 0,1.07 0.43,1.71 10.51,15.41 L 128.22,77.84 H 129.32 130 V 57.96 L 129.18,57.25 c -4.91,-4.23 -13.14,-8.28 -19.87,-9.77 z m -7.94,52.98 0.08,0.49 0.08,0.96 3.63,1.28 3.93,1.28 0.02,21.62 c 0.00,21.24 0.00,21.62 0.48,21.62 0.27,0 1.49,0.40 3.08,0.88 6.47,-1.97 14.33,-6.01 18.32,-9.43 l 0.99,0.76 L 130,120.39 v -15.79 l 3.35,-1.46 3.32,-1.46 0.08,-1.08 0.08,0.61 h -18.79 z"/>
  <path style="fill:#ffffff" d="M 100.25 45.01 C 97.28 44.93 91.08 45.68 87.28 46.63 C 71.83 50.52 59.19 60.36 52.84 73.42 C 49.43 80.46 48 87.10 48 96 C 48 110.89 52.58 122.14 62.58 131.87 C 69.26 138.36 77.62 142.93 87.18 145.32 C 92.05 146.54 99.31 147.32 101.55 146.87 C 102.27 146.73 102.35 146.62 102.35 145.77 L 102.35 144.83 L 100.12 144.52 C 92.13 143.38 86.03 136.88 82.20 125.43 C 79.49 117.32 78 108.69 78 95.97 C 78 83.36 79.44 74.99 82.08 66.96 C 85.94 55.20 92.03 48.63 100.12 47.48 L 102.35 47.17 L 102.35 46.22 C 102.35 45.30 102.31 45.26 101.31 45.09 C 101.03 45.05 100.67 45.02 100.25 45.01 z M 107.20 45.02 L 107.20 46.14 C 107.20 47.21 107.63 47.85 117.71 61.55 L 128.22 75.84 L 129.32 75.84 L 130 75.84 L 130 55.96 L 129.18 55.25 C 124.26 51.02 116.03 46.98 109.30 45.48 L 107.20 45.02 z M 99.26 98 L 99.34 98.49 L 99.41 99.44 L 103.05 100.72 L 106.98 102.00 L 107 123.62 C 107.00 144.86 107.00 145.25 107.48 145.25 C 107.75 145.25 108.98 144.85 110.56 144.37 C 117.03 142.40 124.89 138.36 128.89 134.94 L 129.87 134.18 L 130 118.39 L 130 102.60 L 133.35 101.14 L 136.67 99.68 L 136.75 98.61 L 136.83 98 L 118.04 98 L 99.26 98 z "/>
</svg>
