<svg xmlns="http://www.w3.org/2000/svg" id="svg18" width="192" height="192" version="1"><defs><filter style="color-interpolation-filters:sRGB" id="filter857" width="1.11" height="1.09" x=".05" y=".04"><feGaussianBlur stdDeviation="2.88"/></filter><filter style="color-interpolation-filters:sRGB" id="filter876" width="1.1" height="1.1" x=".05" y=".05"><feGaussianBlur stdDeviation=".96"/></filter><filter style="color-interpolation-filters:sRGB" id="filter896" width="1.1" height="1.09" x=".05" y=".04"><feGaussianBlur stdDeviation="1.04"/></filter></defs><path d="m 40,20 c -4.43,0 -8,3.57 -8,8 v 144 c 0,4.43 3.57,8 8,8 h 112 c 4.43,0 8,-3.57 8,-8 V 68 l -44,-4 -4,-44 z" style="filter:url(#filter857);opacity:.2"/><path d="m 40,16 c -4.43,0 -8,3.57 -8,8 v 144 c 0,4.43 3.57,8 8,8 h 112 c 4.43,0 8,-3.57 8,-8 V 64 l -44,-4 -4,-44 z" style="fill:#04a5f3"/><path style="opacity:.2;fill:#fff" d="M 40 16 C 35.57 16 32 19.57 32 24 L 32 25 C 32 20.57 35.57 17 40 17 L 112 17 L 159 64 L 160 64 L 112 16 L 40 16 z"/><path d="m 112,18 v 40 c 0,4.42 3.58,8 8,8 h 40 z" style="filter:url(#filter876);opacity:.2"/><path d="m 112,16 v 40 c 0,4.42 3.58,8 8,8 h 40 z" style="fill:#a5d4f9"/><path d="m 96,90.00 c -8.86,0 -16,7.29 -16,16.25 v 7.75 h -4 c -2.22,0 -4,1.78 -4,4 v 24 c 0,2.22 1.78,4 4,4 h 40 c 2.22,0 4,-1.78 4,-4 v -24 c 0,-2.22 -1.78,-4 -4,-4 h -4 v -7.75 c 0,-8.96 -7.14,-16.25 -16,-16.25 z m 0,8 c 4.43,0 8,3.57 8,8.00 v 8 H 88 v -8 c 0,-4.43 3.57,-8.00 8,-8.00 z" style="filter:url(#filter896);opacity:.2"/><path d="m 96,88.00 c -8.86,0 -16,7.29 -16,16.25 V 112 h -4 c -2.22,0 -4,1.78 -4,4 v 24 c 0,2.22 1.78,4 4,4 h 40 c 2.22,0 4,-1.78 4,-4 v -24 c 0,-2.22 -1.78,-4 -4,-4 h -4 v -7.75 c 0,-8.96 -7.14,-16.25 -16,-16.25 z m 0,8 c 4.43,0 8,3.57 8,8 v 8 H 88 v -8 c 0,-4.43 3.57,-8 8,-8 z" style="fill:#fff"/></svg>