<?xml version='1.0' encoding='utf-8'?>
<svg xmlns="http://www.w3.org/2000/svg" width="192" height="192" version="1" id="svg16">
  <defs>
    <filter style="color-interpolation-filters:sRGB" id="filter971" x="-0.048000001" y="-0.048000001" width="1.096" height="1.096">
      <feGaussianBlur stdDeviation="3.2"/>
    </filter>
    <filter style="color-interpolation-filters:sRGB" id="filter4418" x="-0.044341598" y="-0.052316356" width="1.0886832" height="1.1046327">
      <feGaussianBlur stdDeviation="1.6628099"/>
    </filter>
  </defs>
  <rect style="filter:url(#filter971);opacity:0.2;fill:#000000" width="160" height="160" x="16" y="20" rx="80" ry="80"/>
  <circle style="fill:#8e30e7;stop-color:#000000" cx="96" cy="96" r="80"/>
  <path style="filter:url(#filter4418);opacity:0.2;fill:#000000" d="m 108.26234,131.51665 c 9.85406,-1.19772 19.84558,-5.78105 28.58236,-13.11136 3.15003,-2.64293 9.56801,-9.22883 9.13438,-9.37338 -0.1603,-0.0534 -3.55703,0.0168 -7.5483,0.15598 -19.42191,0.67746 -30.90456,-1.19725 -38.34967,-6.26116 -1.265351,-0.86065 -2.310783,-1.6985 -2.323183,-1.86188 -0.01239,-0.16339 7.354163,-5.700989 16.370153,-12.305766 9.01598,-6.604773 16.53966,-12.161626 16.71928,-12.348548 0.36385,-0.378638 -0.2973,-0.0351 -18.25039,9.4833 -13.172248,6.983675 -23.221403,12.485556 -24.69191,13.518746 -0.468295,0.32903 -0.851445,0.864338 -0.851445,1.189568 0,0.95412 5.141793,5.92972 8.131273,7.86845 4.526424,2.93547 9.331062,4.68586 16.328422,5.94866 2.26594,0.40892 4.80299,0.53483 11.04848,0.5483 l 8.10713,0.0175 -0.64926,0.69276 c -2.08468,2.22437 -8.53461,5.75743 -13.39768,7.33879 -5.53932,1.80128 -8.14313,2.17294 -15.1712,2.16549 -5.546375,-0.006 -6.968313,-0.10813 -9.675215,-0.69573 -7.85133,-1.70434 -16.42128,-5.20217 -21.648152,-9.44642 -1.22514,-0.99484 -1.417334,-0.95311 -3.752827,-1.04797 h -2.462255 l 0.272459,-1.87087 c 0.118553,-0.81406 0.627138,-2.53902 1.060637,-3.84476 0.690107,-2.07869 0.800492,-3.00328 0.887129,-7.43081 0.186054,-9.507919 2.215467,-16.293557 7.022162,-23.479648 1.960249,-2.930596 7.112573,-8.437982 7.317855,-7.822137 0.06512,0.195349 -0.04184,0.885968 -0.237689,1.534705 -0.629794,2.086175 -0.74482,10.408949 -0.188046,13.606191 0.592807,3.404152 1.890908,7.64293 2.493854,8.14333 0.344576,0.28597 0.903641,0.12753 2.645887,-0.74985 1.21495,-0.61184 8.715277,-4.151852 16.667391,-7.8667 16.46075,-7.689665 19.35051,-9.12969 17.70936,-8.824917 -0.596,0.110684 -8.10204,2.070466 -16.68007,4.355067 -8.578033,2.284601 -15.674134,4.076116 -15.769115,3.981134 -0.661663,-0.661664 -0.90086,-10.883315 -0.349272,-14.925518 0.458956,-3.36339 1.632034,-7.877667 2.754301,-10.599185 0.520019,-1.261056 0.869678,-2.368645 0.777023,-2.461304 -0.341669,-0.341664 -9.055181,4.345634 -11.61104,6.245984 -12.723553,9.4603 -19.660115,23.534394 -19.484751,39.534038 0.03163,2.88565 -0.07719,3.85406 -0.574023,5.10868 -0.907749,2.29228 -2.234452,8.53381 -2.443447,11.49532 L 56,120.71297 h 5.405992 5.405996 l 3.386658,2.174 c 11.759441,7.54878 24.043543,10.3338 38.063694,8.6297 z"/>
  <path style="fill:#ffffff" d="m 108.26234,129.51668 c 9.85406,-1.19772 19.84558,-5.78105 28.58236,-13.11136 3.15003,-2.64293 9.56801,-9.22883 9.13438,-9.37338 -0.1603,-0.0534 -3.55703,0.0168 -7.5483,0.15598 -19.42191,0.67746 -30.90456,-1.19725 -38.34967,-6.26116 -1.265351,-0.86065 -2.310783,-1.698498 -2.323183,-1.861878 -0.01239,-0.16339 7.354163,-5.700991 16.370153,-12.305768 9.01598,-6.604773 16.53966,-12.161626 16.71928,-12.348548 0.36385,-0.378638 -0.2973,-0.0351 -18.25039,9.4833 -13.172248,6.983675 -23.221403,12.485556 -24.69191,13.518746 -0.468295,0.32903 -0.851445,0.86434 -0.851445,1.18957 0,0.95412 5.141793,5.929718 8.131273,7.868448 4.526424,2.93547 9.331062,4.68586 16.328422,5.94866 2.26594,0.40892 4.80299,0.53483 11.04848,0.5483 l 8.10713,0.0175 -0.64926,0.69276 c -2.08468,2.22437 -8.53461,5.75743 -13.39768,7.33879 -5.53932,1.80128 -8.14313,2.17294 -15.1712,2.16549 -5.546375,-0.006 -6.968313,-0.10813 -9.675215,-0.69573 -7.85133,-1.70434 -16.42128,-5.20217 -21.648152,-9.44642 -1.22514,-0.99484 -1.417334,-0.95311 -3.752827,-1.04797 h -2.462255 l 0.272459,-1.87087 c 0.118553,-0.81406 0.627138,-2.53902 1.060637,-3.84476 0.690107,-2.07869 0.800492,-3.00328 0.887129,-7.430808 0.186054,-9.507921 2.215467,-16.293559 7.022162,-23.47965 1.960249,-2.930596 7.112573,-8.437982 7.317855,-7.822137 0.06512,0.195349 -0.04184,0.885968 -0.237689,1.534705 -0.629794,2.086175 -0.74482,10.408949 -0.188046,13.606191 0.592807,3.404152 1.890908,7.64293 2.493854,8.14333 0.344576,0.28597 0.903641,0.12753 2.645887,-0.74985 1.21495,-0.61184 8.715277,-4.151852 16.667391,-7.8667 16.46075,-7.689665 19.35051,-9.12969 17.70936,-8.824917 -0.596,0.110684 -8.10204,2.070466 -16.68007,4.355067 -8.578033,2.284601 -15.674134,4.076116 -15.769115,3.981134 -0.661663,-0.661664 -0.90086,-10.883315 -0.349272,-14.925518 0.458956,-3.36339 1.632034,-7.877667 2.754301,-10.599185 0.520019,-1.261056 0.869678,-2.368645 0.777023,-2.461304 -0.341669,-0.341664 -9.055181,4.345634 -11.61104,6.245984 -12.723553,9.4603 -19.660115,23.534394 -19.484751,39.53404 0.03163,2.885648 -0.07719,3.854058 -0.574023,5.108678 -0.907749,2.29228 -2.234452,8.53381 -2.443447,11.49532 L 56,118.713 h 5.405992 5.405996 l 3.386658,2.174 c 11.759441,7.54878 24.043543,10.3338 38.063694,8.6297 z"/>
  <path style="opacity:0.1;fill:#ffffff" d="M 95.998047,16 C 51.678957,16.001054 16,51.680655 16,96 c 0,0.173903 0.0083,0.344936 0.01172,0.517578 C 16.270953,52.423274 51.840776,17.00105 95.998047,17 H 96 c 44.15727,0.001 79.72709,35.423274 79.98633,79.517578 0.003,-0.172666 0.0117,-0.34381 0.0117,-0.517578 0,-44.319345 -35.67896,-79.998946 -79.99805,-80 z"/>
</svg>
