<?xml version='1.0' encoding='utf-8'?>
<svg xmlns="http://www.w3.org/2000/svg" width="192" height="192" version="1" id="svg14">
  <defs>
    <filter style="color-interpolation-filters:sRGB" id="filter850" x="-0.048000001" width="1.096" y="-0.048000001" height="1.096">
      <feGaussianBlur stdDeviation="3.2"/>
    </filter>
    <filter style="color-interpolation-filters:sRGB" id="filter8396" x="-0.13174672" y="-0.091529298" width="1.2634934" height="1.1830586">
      <feGaussianBlur stdDeviation="3.6230346"/>
    </filter>
  </defs>
  <circle style="filter:url(#filter850);opacity:0.2;fill:#000000" cx="96" cy="100" r="80"/>
  <circle r="80" cy="96" cx="96" style="fill:#fc8d1f"/>
  <path style="fill:#38adfa" d="m 688.80525,256.99648 c -0.33229,-0.33229 -1.1948,-0.36781 -1.91667,-0.0789 -0.79773,0.31922 -0.56078,0.55618 0.60417,0.60416 1.05416,0.0434 1.64479,-0.19293 1.3125,-0.52522 z"/>
  <path style="opacity:0.2;fill:#ffffff" d="M 96 16 A 80 80 0 0 0 16 96 A 80 80 0 0 0 16.019531 96.472656 A 80 80 0 0 1 96 17 A 80 80 0 0 1 175.97461 96.513672 A 80 80 0 0 0 176 96 A 80 80 0 0 0 96 16 z "/>
  <path style="filter:url(#filter8396);opacity:0.2;fill:#000000" d="M 96,50 A 33,33 0 0 0 63,83 33,33 0 0 0 82,112.85938 V 122 h 28 v -9.14062 A 33,33 0 0 0 129,83 33,33 0 0 0 96,50 Z m -14,80 v 4 c 0,2.77 2.23,5 5,5 h 0.757812 A 8.6810246,8.6810246 0 0 0 96,145 a 8.6810246,8.6810246 0 0 0 8.24219,-6 H 105 c 2.77,0 5,-2.23 5,-5 v -4 z"/>
  <path style="fill:#ffffff" d="M 96 48 A 33 33 0 0 0 63 81 A 33 33 0 0 0 82 110.85938 L 82 120 L 110 120 L 110 110.85938 A 33 33 0 0 0 129 81 A 33 33 0 0 0 96 48 z "/>
  <path style="fill:#ffdb3c" d="M 82 128 L 82 132 C 82 134.77 84.23 137 87 137 L 87.757812 137 A 8.6810246 8.6810246 0 0 0 96 143 A 8.6810246 8.6810246 0 0 0 104.24219 137 L 105 137 C 107.77 137 110 134.77 110 132 L 110 128 L 82 128 z "/>
</svg>
