<?xml version='1.0' encoding='utf-8'?>
<svg xmlns="http://www.w3.org/2000/svg" width="192" height="192" version="1" id="svg28">
  <defs>
    <filter style="color-interpolation-filters:sRGB" id="filter10140" x="0.04" y="0.05" width="1.09" height="1.10">
      <feGaussianBlur stdDeviation="2.54"/>
    </filter>
    <filter style="color-interpolation-filters:sRGB" id="filter10147" x="0.04" y="0.06" width="1.08" height="1.12">
      <feGaussianBlur stdDeviation="1.45"/>
    </filter>
    <filter style="color-interpolation-filters:sRGB" id="filter10151" x="0.04" y="0.05" width="1.09" height="1.10">
      <feGaussianBlur stdDeviation="2.54"/>
    </filter>
  </defs>
  <path style="filter:url(#filter10140);opacity:0.20;fill:#000000;stop-color:#000000" d="m 151.80,151.27 -42.90,25.31 c -7.09,3.95 -14.90,4.90 -23.94,0.56 l -48.40,-27.66 c -5.23,-3.51 -5.49,-7.62 -3.18,-11.16 0,0 4.23,-3.83 8.74,-6.63 l 53.07,-30.47 c 11.84,-7.43 21.80,-24.12 4.65,-39.23 11.49,1.61 24.33,24.81 43.19,36.17 0,0 10.18,0.01 12.39,3.43 3.90,6.06 11.99,10.19 12.47,15.80 1.31,15.24 -7.86,28.01 -16.07,33.87 z"/>
  <path style="fill:#1d57c6;stop-color:#000000" d="m 151.80,147.27 -42.90,25.31 c -7.09,3.95 -14.90,4.90 -23.94,0.56 l -48.40,-27.66 c -3.58,-2.40 -4.83,-5.08 -4.53,-7.67 0.33,-2.54 1.74,-3.88 3.29,-5.16 1.66,-1.37 4.18,-3.34 6.79,-4.96 l 53.07,-30.47 c 11.84,-7.43 21.80,-24.12 4.65,-39.23 11.49,1.61 24.33,24.81 43.19,36.17 0,0 10.18,0.01 12.39,3.43 3.90,6.06 11.99,10.19 12.47,15.80 1.31,15.24 -7.86,28.01 -16.07,33.87 z"/>
  <path style="opacity:0.20;fill:#ffffff;stop-color:#000000" d="m 109.02,75.92 c 0.18,8.89 -6.65,16.80 -13.83,21.30 L 42.12,127.70 c -2.61,1.62 -5.14,3.60 -6.79,4.96 -1.54,1.28 -2.96,2.62 -3.29,5.16 0.05,0.41 0.04,0.82 0.01,1.23 0.01,0.08 0.00,0.15 0.01,0.23 0.33,-2.54 1.74,-3.88 3.29,-5.16 1.66,-1.37 4.18,-3.34 6.79,-4.96 L 95.19,98.23 C 102.63,93.56 109.33,85.22 109.02,75.92 Z"/>
  <path style="filter:url(#filter10147);opacity:0.20;fill:#000000;stop-color:#000000" d="M 132.16,76.48 96.81,96.77 c -11.84,7.43 -21.80,24.12 -4.65,39.23 11.43,4.58 39.59,-18.79 60.27,-28.69 6.87,-2.92 14.21,2.24 15.55,11.12 0.02,-6.49 -1.78,-13.49 -6.39,-20.66 -2.21,-3.42 -8.84,-8.31 -8.84,-8.31 -6.62,-3.99 -13.70,-8.60 -20.60,-12.99 z"/>
  <path style="fill:#3c7fec;stop-color:#000000" d="M 134.23,54.71 99.83,58 75.94,93.84 C 76.38,106.04 72.31,124.32 92.17,134 c 11.43,4.58 39.59,-18.79 60.27,-28.69 6.87,-2.92 14.21,2.24 15.55,11.12 0.02,-6.49 -1.78,-13.49 -6.39,-20.66 -2.21,-3.42 -8.84,-8.31 -8.84,-8.31 -6.62,-3.99 -13.70,-8.60 -20.60,-12.99 l 17.68,-10.16 z"/>
  <path style="filter:url(#filter10151);opacity:0.20;fill:#000000;stop-color:#000000" d="M 40.20,47.73 83.10,22.41 c 7.09,-3.95 14.90,-4.90 23.94,0.56 l 48.40,27.66 c 5.23,3.51 5.49,7.62 3.18,11.16 0,0 -4.23,3.83 -8.74,6.63 L 96.81,97.77 C 84.97,105.20 75.01,121.89 92.17,137 80.68,135.39 58.10,118.88 39.24,107.53 c 0,0 -6.62,-4.88 -8.84,-8.31 -14.47,-22.51 -1.45,-43.48 9.79,-51.50 z"/>
  <path style="fill:#00c5fb;stop-color:#000000" d="M 40.20,44.73 83.10,19.41 c 7.09,-3.95 14.90,-4.90 23.94,0.56 l 48.40,27.66 c 5.23,3.51 5.49,7.62 3.18,11.16 0,0 -4.23,3.83 -8.74,6.63 L 96.81,94.77 C 84.97,102.20 75.01,118.89 92.17,134 80.68,132.39 58.10,115.88 39.24,104.53 c 0,0 -6.62,-4.88 -8.84,-8.31 C 15.94,73.72 28.95,52.74 40.20,44.73 Z"/>
  <path style="opacity:0.20;fill:#ffffff;stop-color:#000000" d="m 95.83,16.00 c -4.53,0.09 -8.75,1.19 -12.74,3.41 l -42.90,25.31 C 32.40,50.28 23.76,62.08 24.01,76.28 24.17,62.52 32.59,51.15 40.20,45.73 l 42.90,-25.31 c 7.09,-3.95 14.90,-4.90 23.94,0.56 l 48.40,27.66 c 3.02,2.03 4.34,4.26 4.51,6.46 0.21,-2.52 -1.03,-5.12 -4.51,-7.46 L 107.04,18.86 c -3.96,-1.90 -7.68,-2.79 -11.20,-2.85 z M 82.98,117.08 c 0.11,5.36 2.08,11.09 7.80,16.64 0.47,0.10 0.95,0.22 1.38,0.29 -6.37,-5.61 -9.00,-11.43 -9.18,-16.92 z"/>
</svg>
