<?xml version='1.0' encoding='utf-8'?>
<svg xmlns="http://www.w3.org/2000/svg" width="192" height="192" version="1" id="svg14">
  <defs>
    <filter style="color-interpolation-filters:sRGB" id="filter850" x="0.05" width="1.10" y="0.05" height="1.10">
      <feGaussianBlur stdDeviation="3.20"/>
    </filter>
    <filter style="color-interpolation-filters:sRGB" id="filter3039" x="0.16" y="0.08" width="1.32" height="1.16">
      <feGaussianBlur stdDeviation="3.24"/>
    </filter>
  </defs>
  <circle style="filter:url(#filter850);opacity:0.20;fill:#000000" cx="96" cy="100" r="80"/>
  <circle r="80" cy="96" cx="96" style="fill:#f23e3f"/>
  <path style="fill:#38adfa" d="m 688.81,257.00 c 0.33,0.33 -1.19,0.37 -1.92,0.08 0.80,0.32 0.56,0.56 0.60,0.60 1.05,0.04 1.64,0.19 1.31,0.53 z"/>
  <path style="opacity:0.20;fill:#ffffff" d="M 96 16 A 80 80 0 0 0 16 96 A 80 80 0 0 0 16.02 96.47 A 80 80 0 0 1 96 17 A 80 80 0 0 1 175.97 96.51 A 80 80 0 0 0 176 96 A 80 80 0 0 0 96 16 z "/>
  <path style="filter:url(#filter3039);opacity:0.20;fill:#000000" d="m 111,46.00 c -3.31,0 -6,2.69 -6,6 0,3.31 2.69,6 6,6 3.31,0 6,-2.69 6,-6 0,-3.31 -2.69,-6 -6,-6 z M 75.78,65.92 c -1.81,0.08 -3.16,0.36 -4.13,2.48 0.57,1.26 0.63,3.21 0.63,15.41 0.01,12.18 0.05,13.56 0.67,15.97 2.21,8.63 8.22,13.55 18.88,14.22 5.88,0.37 10.82,-1.46 15.61,-5.48 L 109,106.16 v 15.13 14.71 H 90.12 c -17.71,0 -18.56,0.35 -19.87,1 -1.92,0.96 -1.77,1.61 0.51,2.15 2.26,0.54 38.48,3.13 40.42,2.89 0.75,0.09 1.81,0.42 2.35,0.73 1.66,-1.10 2.42,-2.10 2.42,-4.05 v -31.93 -33.29 l 0.06,-2.05 c 0.08,-2.77 -2.16,-4.10 -4.21,-4.02 -2.61,0 -4.41,1.73 -4.41,3.77 0.21,0.76 0.36,5.92 0.36,13.18 0.01,6.66 0.16,13.18 0.35,14.49 0.89,6.15 -4.67,10.17 -10.73,11.22 -5.86,1.02 -9.86,0.91 -13.11,-6.10 -2.44,-3.88 -2.69,-8.63 -2.70,-22.64 0.00,-4.85 0.03,-8.32 0.29,-10.08 0.56,-2.68 -1.54,-3.43 -3.95,-3.90 z"/>
  <path style="fill:#ffffff" d="m 111,44 c -3.31,0 -6,2.69 -6,6 0,3.31 2.69,6 6,6 3.31,0 6,-2.69 6,-6 0,-3.31 -2.69,-6 -6,-6 z M 75.78,63.92 c -1.81,0.08 -3.16,0.36 -4.13,2.48 0.57,1.26 0.63,3.21 0.63,15.41 0.01,12.18 0.05,13.56 0.67,15.97 2.21,8.63 8.22,13.55 18.88,14.22 5.88,0.37 10.82,-1.46 15.61,-5.48 L 109,104.16 V 119.29 134 H 90.12 c -17.71,0 -18.56,0.35 -19.87,1 -1.92,0.96 -1.77,1.61 0.51,2.15 2.26,0.54 38.48,3.13 40.42,2.89 0.75,0.09 1.81,0.42 2.35,0.73 1.66,-1.10 2.42,-2.10 2.42,-4.05 v -31.93 -33.29 l 0.06,-2.05 c 0.08,-2.77 -2.16,-4.10 -4.21,-4.02 -2.61,0 -4.41,1.73 -4.41,3.77 0.21,0.76 0.36,5.92 0.36,13.18 0.01,6.66 0.16,13.18 0.35,14.49 0.89,6.15 -4.67,10.17 -10.73,11.22 -5.86,1.02 -9.86,0.91 -13.11,-6.10 -2.44,-3.88 -2.69,-8.63 -2.70,-22.64 0.00,-4.85 0.03,-8.32 0.29,-10.08 0.56,-2.68 -1.54,-3.43 -3.95,-3.90 z"/>
</svg>
