<?xml version='1.0' encoding='utf-8'?>
<svg xmlns="http://www.w3.org/2000/svg" width="192" height="192" version="1" id="svg14">
  <defs>
    <filter style="color-interpolation-filters:sRGB" id="filter850" x="0.05" width="1.10" y="0.05" height="1.10">
      <feGaussianBlur stdDeviation="3.20"/>
    </filter>
    <filter style="color-interpolation-filters:sRGB" id="filter2227" x="0.05" y="0.14" width="1.10" height="1.28">
      <feGaussianBlur stdDeviation="3.72"/>
    </filter>
  </defs>
  <circle style="filter:url(#filter850);opacity:0.20;fill:#000000" cx="96" cy="100" r="80"/>
  <circle r="80" cy="96" cx="96" style="fill:#e4e4e4"/>
  <path style="filter:url(#filter2227);opacity:0.20;fill:#000000" d="m 121.01,67.00 v 0.00 H 121 v 48.00 h 10 l 0.00,-5.76 h 0.13 c 2.15,4.30 7.07,6.94 11.82,6.75 9.80,0 15.05,-8.23 15.05,-18.13 0,-8.10 -4.99,-16.86 -14.09,-16.86 -4.36,0.28 -9.00,1.57 -11.74,5.03 h 0.13 L 132,67.00 Z M 158,97.86 v 18.14 h 12 v -14.44 c 0.09,-6.69 2.89,-10.70 8.40,-10.70 1.35,0.07 2.69,0.06 4.00,0.39 L 183,81.39 c -1.32,0.24 -2.66,0.37 -4,0.39 -4.54,0.06 -8.41,2.79 -9.90,7.09 H 168.97 L 169,82.00 H 158 Z M 23.07,81.00 C 12.68,81.00 8,88.52 8,98.59 c 0,10.00 5.70,17.41 14.88,17.41 4.47,0.16 8.39,-2.43 10.90,-6.18 h 0.13 v 1.82 c -1.16,6.52 -3.26,10.30 -9.94,10.30 -3.94,0.06 -7.83,0.90 -11.29,-2.79 l 0.57,8.72 c 4.11,1.43 8.42,2.15 12.76,2.14 C 38.34,130.00 45,125.52 45,111.64 v 0.00 V 98.53 82.00 H 34.07 v 5.88 H 33.93 C 31.67,83.67 27.81,81.04 23.07,81.00 Z M 45,98.53 c 0,11.05 8.43,17.47 19.50,17.47 11.07,0 19.50,-6.42 19.50,-17.47 0,-11.11 -8.43,-17.53 -19.50,-17.53 -11.07,0 -19.50,6.42 -19.50,17.53 z M 79,81.00 91.42,116.00 H 104.60 L 117,81.00 h -11.51 l -6.99,24.93 h 0.13 l -6.94,-24.93 z m -14.50,8 c 5.32,0 7.50,4.47 7.50,9.53 0,4.99 -2.18,9.47 -7.50,9.47 C 59.18,108.00 57,103.52 57,98.53 c 0,-5.06 2.18,-9.53 7.50,-9.53 z m -37.93,1 c 0.22,0.00 0.45,0.01 0.67,0.02 4.04,0.33 7.06,3.96 6.74,8.11 0,5.29 -3.29,8.86 -7.41,8.86 -3.48,0 -6.57,-3.04 -6.57,-8.40 0,-4.70 2.26,-8.60 6.57,-8.60 z m 112.46,0 c 4.48,0 6.97,3.79 6.97,8.15 0,5.25 -2.62,8.85 -6.97,8.85 -3.83,0 -7.03,-3.61 -7.03,-8.41 0,-4.93 2.81,-8.59 7.03,-8.59 z m -25.03,14.00 c -3.31,0.00 -6.00,2.69 -6.00,6.00 0,3.31 2.68,6.00 6.00,6.00 3.31,0 6.00,-2.68 6.00,-6.00 v 0.01 c 0.00,-3.31 -2.69,-5.99 -6.00,-5.99 z"/>
  <path style="opacity:0.20;fill:#ffffff" d="M 96 16 A 80 80 0 0 0 16 96 A 80 80 0 0 0 16.02 96.47 A 80 80 0 0 1 96 17 A 80 80 0 0 1 175.97 96.51 A 80 80 0 0 0 176 96 A 80 80 0 0 0 96 16 z "/>
  <path style="fill:#2864ae" d="M 23.07 79 C 12.68 79 8 86.52 8 96.59 C 8 106.59 13.70 114 22.88 114 C 27.35 114.16 31.26 111.57 33.78 107.82 L 33.90 107.82 L 33.90 109.64 C 32.74 116.16 30.64 119.94 23.97 119.94 C 20.03 120.00 16.14 119.04 12.68 117.14 L 12.10 125.86 C 16.21 127.29 20.53 128.01 24.87 128 C 38.34 128 45 123.52 45 109.64 L 45 109.63 L 45 80 L 34.07 80 L 34.07 85.88 L 33.93 85.88 C 31.67 81.67 27.81 79.04 23.07 79 z M 26.57 88 C 26.79 88.00 27.02 88.01 27.24 88.02 C 31.28 88.35 34.30 91.98 33.98 96.14 C 33.98 101.43 30.69 105 26.57 105 C 23.09 105 20.00 101.96 20 96.60 C 20 91.91 22.26 88 26.57 88 z "/>
  <path style="fill:#2864ae" d="M 121.01 65 L 121.01 65.00 L 121 65.00 L 121 113 L 131 113 L 131.00 107.24 L 131.13 107.24 C 133.29 111.54 138.21 114.18 142.95 113.99 C 152.75 113.99 158 105.76 158 95.86 C 158 87.76 153.01 79 143.91 79 C 139.54 78.72 134.90 80.57 132.16 84.03 L 132.04 84.03 L 132 65 L 121.01 65 z M 139.03 88 C 143.51 88 146 91.79 146 96.15 C 146 101.39 143.38 105 139.03 105 C 135.20 105 132 101.39 132 96.59 C 132 91.66 134.81 88 139.03 88 z "/>
  <path style="fill:#faa214" d="M 64.50 79 C 53.43 79 45 85.42 45 96.53 C 45 107.58 53.43 114 64.50 114 C 75.57 114 84 107.58 84 96.53 C 84 85.42 75.57 79 64.50 79 z M 64.50 87 C 69.82 87 72 91.47 72 96.53 C 72 101.52 69.82 106 64.50 106 C 59.18 106 57 101.52 57 96.53 C 57 91.47 59.18 87 64.50 87 z "/>
  <path style="fill:#48ad45" d="m 91.42,114 h 13.18 L 117,79 h -11.51 l -6.99,24.93 H 98.37 L 91.43,79 H 79 Z"/>
  <path style="fill:#2864ae" d="M 120,108.00 C 120,111.32 117.31,114 114.00,114 110.68,114 108,111.31 108,108.00 c 0,-3.31 2.68,-5.99 6.00,-6.00 3.31,0.00 6.00,2.68 6.00,5.99 0,0.00 0,0.01 0,0.01 z"/>
  <path style="fill:#faa214" d="m 182.40,89.25 c -1.31,0.33 -2.65,0.46 -4.00,0.39 -5.51,0 -8.31,4.00 -8.40,10.70 V 114 H 158 V 80 h 11 l 0.03,6.09 h 0.13 c 1.49,-4.29 5.36,-7.15 9.90,-7.09 1.34,0.02 2.68,0.15 4.00,0.39 z"/>
</svg>
