<svg xmlns="http://www.w3.org/2000/svg" id="svg30" width="192" height="192" version="1.1"><defs><filter style="color-interpolation-filters:sRGB" id="filter870" width="1.08" height="1.11" x=".04" y=".06"><feGaussianBlur stdDeviation="2.24"/></filter><filter style="color-interpolation-filters:sRGB" id="filter904" width="1.05" height="1.04" x=".03" y=".02"><feGaussianBlur stdDeviation="1.44"/></filter><filter style="color-interpolation-filters:sRGB" id="filter920" width="1.1" height="1.1" x=".05" y=".05"><feGaussianBlur stdDeviation="1.76"/></filter><filter style="color-interpolation-filters:sRGB" id="filter939" width="1.1" height="1.1" x=".05" y=".05"><feGaussianBlur stdDeviation=".64"/></filter></defs><rect style="filter:url(#filter870);opacity:.2;fill:#000" width="128" height="96" x="-172" y="-144" rx="8" ry="8" transform="matrix(0,-1,-1,0,0,0)"/><rect width="128" height="96" x="-168" y="-144" rx="8" ry="8" transform="matrix(0,-1,-1,0,0,0)" style="fill:#8e8e8e"/><rect style="filter:url(#filter904);opacity:.1;fill:#000" width="128" height="160" x="-156" y="-176" rx="8" ry="8" transform="matrix(0,-1,-1,0,0,0)"/><rect width="128" height="160" x="-152" y="-176" rx="8" ry="8" transform="matrix(0,-1,-1,0,0,0)" style="fill:#4f4f4f"/><rect width="104" height="136" x="-140" y="-164" rx="0" ry="0" transform="matrix(0,-1,-1,0,0,0)" style="fill:#6de3f8"/><path d="M 71.00,100.00 88.50,120 106,140 H 71.00 36.00 l 17.50,-20 z" style="fill:#00645b"/><path d="m 108,76.00 28.00,32.00 28.00,32 H 108 52.00 l 28.00,-32 z" style="fill:#3b9649"/><path style="opacity:.1;fill:#fff" d="M 24 24 C 19.57 24 16 27.57 16 32 L 16 33 C 16 28.57 19.57 25 24 25 L 168 25 C 172.43 25 176 28.57 176 33 L 176 32 C 176 27.57 172.43 24 168 24 L 24 24 z"/><circle cx="144" cy="140" r="44" style="filter:url(#filter920);opacity:.2"/><circle cx="144" cy="136" r="44" style="fill:#ff932b"/><circle cx="52" cy="62" r="16" style="filter:url(#filter939);opacity:.1"/><circle cx="52" cy="60" r="16" style="fill:#ffec44"/><path d="m 124,112 c 0,2 2,4 4,4 19.88,0.00 36,16.12 36,36 0,2 1.81,4 4,4 2,0 4,-2 4,-4 0,-24.30 -19.70,-44 -44,-44 -2,0 -4,2 -4,4 z m 0,16 c 0,2 2,4 4,4 11.05,0.00 20,8.95 20,20 0,2 2,4 4,4 2,0 4,-2 4,-4 0,-15.46 -12.54,-28 -28,-28 -2,0 -4,2 -4,4 z m 8,12 c -4.42,0 -8,3.58 -8,8 0,4.42 3.58,8 8,8 4.42,0 8,-3.58 8,-8 0,-4.42 -3.58,-8 -8,-8 z" style="fill:#fff"/></svg>