<?xml version='1.0' encoding='utf-8'?>
<svg xmlns="http://www.w3.org/2000/svg" width="192pt" height="192pt" viewBox="0 0 192 192" version="1.1" id="svg7">
  <defs>
    <filter style="color-interpolation-filters:sRGB" id="filter2106" x="-0.048000001" y="-0.048000001" width="1.096" height="1.096">
      <feGaussianBlur stdDeviation="3.2"/>
    </filter>
    <filter style="color-interpolation-filters:sRGB" id="filter2110" x="-0.056093384" y="-0.041932068" width="1.1121868" height="1.0838641">
      <feGaussianBlur stdDeviation="4.8614008"/>
    </filter>
  </defs>
  <circle style="filter:url(#filter2106);opacity:0.2;fill:#000000" cx="96" cy="100" r="80"/>
  <circle style="fill:#f80101" cx="96" cy="96" r="80"/>
  <g transform="matrix(0.42307919,0,0,0.42183187,16.300116,18.137821)" style="filter:url(#filter2110);opacity:0.2;fill:#000000">
    <path style="fill:#000000;fill-rule:nonzero" d="m 228.80859,20.402344 c 13.03125,-2.203125 23.11234,-3.710938 36.2764,-1.710938 l 1.89063,0.320313 -1.26563,0.480469 c -12.24609,3.511718 -20.7803,8.996093 -30.32327,17.601562 -17.1836,14.957031 -28.49156,37.679688 -27.24156,60.679688 2.03213,0.509564 4.53618,1.052736 6.5632,1.632129 21.23471,6.069603 41.92228,16.114333 56.46742,33.141303 16.69141,19.05469 22.73438,45.48438 20.88281,70.32813 -2.9414,37.90625 -28.66797,73.38672 -64.47265,86.52734 -23.86328,8.89844 -51.19141,9.00782 -74.75,-0.96093 C 128.38672,278.36719 108.10156,258.84766 96.578125,235.04687 85.394531,212.36328 82.335938,186.22266 85.636719,161.30078 90.625,126.12891 108.28906,93.253906 133.49609,68.476562 159.78516,43.738281 193.41797,27.085938 228.80859,20.402344 Z"/>
  </g>
  <g transform="matrix(0.42307919,0,0,0.42183187,16.300116,15.137481)">
    <path style="fill:#ffffff;fill-rule:nonzero" d="m 228.80859,20.402344 c 13.03125,-2.203125 23.11234,-3.710938 36.2764,-1.710938 l 1.89063,0.320313 -1.26563,0.480469 c -12.24609,3.511718 -20.7803,8.996093 -30.32327,17.601562 -17.1836,14.957031 -28.49156,37.679688 -27.24156,60.679688 2.03213,0.509564 4.53618,1.052736 6.5632,1.632129 21.23471,6.069603 41.92228,16.114333 56.46742,33.141303 16.69141,19.05469 22.73438,45.48438 20.88281,70.32813 -2.9414,37.90625 -28.66797,73.38672 -64.47265,86.52734 -23.86328,8.89844 -51.19141,9.00782 -74.75,-0.96093 C 128.38672,278.36719 108.10156,258.84766 96.578125,235.04687 85.394531,212.36328 82.335938,186.22266 85.636719,161.30078 90.625,126.12891 108.28906,93.253906 133.49609,68.476562 159.78516,43.738281 193.41797,27.085938 228.80859,20.402344 Z"/>
  </g>
  <path style="opacity:0.2;fill:#ffffff" d="M 128 21.333984 A 106.66667 106.66667 0 0 0 21.333984 128 A 106.66667 106.66667 0 0 0 21.375 128.66797 A 106.66667 106.66667 0 0 1 128 22.666016 A 106.66667 106.66667 0 0 1 234.64453 128.3457 A 106.66667 106.66667 0 0 0 234.66602 128 A 106.66667 106.66667 0 0 0 128 21.333984 z " transform="scale(0.75)"/>
</svg>
