<?xml version='1.0' encoding='utf-8'?>
<svg xmlns="http://www.w3.org/2000/svg" width="192" height="192" version="1" id="svg22">
  <defs>
    <filter style="color-interpolation-filters:sRGB" id="filter917" x="0.04" width="1.08" y="0.06" height="1.11">
      <feGaussianBlur stdDeviation="3.01"/>
    </filter>
    <filter style="color-interpolation-filters:sRGB" id="filter942" x="0.05" width="1.09" y="0.05" height="1.10">
      <feGaussianBlur stdDeviation="2.73"/>
    </filter>
    <filter style="color-interpolation-filters:sRGB" id="filter973" x="0.11" width="1.22" y="0.04" height="1.08">
      <feGaussianBlur stdDeviation="1.18"/>
    </filter>
  </defs>
  <rect ry="12.90" rx="12.90" y="37" x="10" height="129" width="172" style="filter:url(#filter917);opacity:0.20;fill:#000000"/>
  <path style="opacity:0.10" d="m 96,29.35 h 25.80 v 68.80 L 108.90,91.70 96,98.15 Z"/>
  <rect style="fill:#dc4a3d" width="172" height="129" x="10" y="33" rx="12.90" ry="12.90"/>
  <path style="opacity:0.10;fill:#ffffff" d="M 22.90 33 C 15.75 33 10 38.75 10 45.90 L 10 46.90 C 10 39.75 15.75 34 22.90 34 L 169.10 34 C 176.25 34 182 39.75 182 46.90 L 182 45.90 C 182 38.75 176.25 33 169.10 33 L 22.90 33 z "/>
  <path style="filter:url(#filter942);opacity:0.20;fill:#000000" d="M 36.71 33 C 29.67 33 24 38.75 24 45.90 L 24 149.10 C 24 156.25 29.67 162 36.71 162 L 49.41 162 L 87.53 162 L 96 162 L 104.47 162 L 142.59 162 L 155.29 162 C 162.33 162 168 156.25 168 149.10 L 168 45.90 C 168 38.75 162.33 33 155.29 33 L 142.59 33 L 104.47 33 L 96 33 L 87.53 33 L 49.41 33 L 36.71 33 z "/>
  <path style="fill:#e4e4e4" d="m 96,33.00 v 12.90 V 149.10 162 h 8.47 38.12 12.71 C 162.33,162 168,156.25 168,149.10 V 45.90 c 0,-7.15 -5.67,-12.90 -12.71,-12.90 h -12.71 -38.12 z"/>
  <path style="fill:#ffffff" d="m 96,33.00 v 12.90 V 149.10 162 H 87.53 49.41 36.71 C 29.67,162 24,156.25 24,149.10 V 45.90 c 0,-7.15 5.67,-12.90 12.71,-12.90 h 12.71 38.12 z"/>
  <path style="opacity:0.20" d="m 32,48 v 8 h 56 v -8 z m 0,18 v 8 h 56 v -8 z m 0,18 v 8 h 56 v -8 z m 0,18 v 8 h 56 v -8 z m 0,18 v 8 h 56 v -8 z m 0,18 v 8 h 56 v -8 z"/>
  <path d="m 104,48 v 8 h 56 v -8 z m 0,18 v 8 h 56 v -8 z m 0,18 v 8 h 56 v -8 z m 0,18 v 8 h 56 v -8 z m 0,18 v 8 h 56 v -8 z m 0,18 v 8 h 56 v -8 z" style="opacity:0.20"/>
  <path d="m 96,32.25 c 0,0 0,-4.25 13,-4.25 13,0 13,4.25 13,4.25 V 96 L 109,89.62 96,96 Z" style="filter:url(#filter973);opacity:0.20;fill:#000000"/>
  <path style="fill:#dc4a3d" d="m 96,30.25 c 0,0 0,-4.25 13,-4.25 13,0 13,4.25 13,4.25 V 94 L 109,87.62 96,94 Z"/>
  <path style="opacity:0.10;fill:#ffffff" d="M 109 26 C 96 26 96 30.25 96 30.25 L 96 31.25 C 96 31.25 96 27 109 27 C 122 27 122 31.25 122 31.25 L 122 30.25 C 122 30.25 122 26 109 26 z "/>
</svg>
