<?xml version='1.0' encoding='utf-8'?>
<svg xmlns="http://www.w3.org/2000/svg" width="192" height="192" version="1" id="svg12">
  <defs>
    <filter style="color-interpolation-filters:sRGB" id="filter955" x="0.05" width="1.10" y="0.05" height="1.10">
      <feGaussianBlur stdDeviation="3.20"/>
    </filter>
    <filter style="color-interpolation-filters:sRGB" id="filter2563" x="0.10" y="0.12" width="1.19" height="1.25">
      <feGaussianBlur stdDeviation="4.16"/>
    </filter>
  </defs>
  <rect style="filter:url(#filter955);opacity:0.20;fill:#000000" width="160" height="160" x="16" y="20" rx="30" ry="30"/>
  <rect style="fill:#3f3f3f" width="160" height="160" x="16" y="16" rx="30" ry="30"/>
  <path style="filter:url(#filter2563);opacity:0.20;fill:#000000" d="M 46,60 V 80.91 C 46,88.79 51.60,94 58.91,94 c 3.56,0 6.72,-1.35 9.02,-3.68 V 93 H 73 V 60 H 68 V 80.63 C 68.03,85.94 64.24,90 59.51,90 54.74,90 51,86.04 51,80.63 V 60 Z m 31,0 v 33 h 4.98 V 90.38 C 84.23,92.63 87.37,94 90.85,94 98.21,94 104,88.31 104,81.29 104,74.24 98.21,69 90.85,69 87.35,69 84.25,70.33 82,72.56 V 60 Z m 42.07,8 C 111.65,68 106,73.92 106,80.97 106,88.41 111.88,94 119.53,94 c 4.64,0 8.43,-2.00 10.97,-5.34 l -3.65,-2.64 c -1.90,2.49 -4.39,3.67 -7.34,3.67 -4.29,0 -7.73,-2.63 -8.43,-6.69 h 20.70 V 80.99 C 131.79,73.53 126.41,68 119.07,68 Z M 134,68 v 26 h 5 V 79.34 c 0,-4.01 2.53,-6.29 5.87,-6.29 H 147 V 68 h -1.78 C 142.40,68 140.25,69.32 139,71.39 V 68 Z m -15.03,4 c 3.73,0 6.89,2.79 7.73,7 h -15.51 c 0.91,-4.19 4.04,-7 7.77,-7 z M 90.53,73 C 95.17,73 99,76.74 99,81.50 99.02,86.20 95.19,90 90.53,90 85.78,90 82,86.20 82,81.50 82,76.74 85.82,73 90.53,73 Z m -26.83,31 11.66,16.04 H 43 v 5 H 75.08 L 63.46,141 h 6.19 L 83.23,122.35 69.88,104 Z"/>
  <path style="fill:#ffffff" d="M 46 58 L 46 78.91 C 46 86.79 51.60 92 58.91 92 C 62.47 92 65.63 90.65 67.93 88.32 L 67.93 91 L 73 91 L 73 58 L 68 58 L 68 78.63 C 68.03 83.94 64.24 88 59.51 88 C 54.74 88 51 84.04 51 78.63 L 51 58 L 46 58 z M 77 58 L 77 91 L 81.98 91 L 81.98 88.38 C 84.23 90.63 87.37 92 90.85 92 C 98.21 92 104 86.31 104 79.29 C 104 72.24 98.21 67 90.85 67 C 87.35 67 84.25 68.33 82 70.56 L 82 58 L 77 58 z M 119.07 66 C 111.65 66 106 71.92 106 78.97 C 106 86.41 111.88 92 119.53 92 C 124.16 92 127.96 90.00 130.49 86.66 L 126.85 84.02 C 124.95 86.52 122.45 87.69 119.51 87.69 C 115.22 87.69 111.77 85.06 111.07 81 L 131.77 81 L 131.77 78.99 C 131.79 71.53 126.41 66 119.07 66 z M 134 66 L 134 92 L 139 92 L 139 77.34 C 139 73.33 141.53 71.05 144.87 71.05 L 147 71.05 L 147 66 L 145.22 66 C 142.40 66 140.25 67.32 139 69.39 L 139 66 L 134 66 z M 118.97 70 C 122.70 70 125.86 72.79 126.70 77 L 111.20 77 C 112.10 72.81 115.24 70 118.97 70 z M 90.53 71 C 95.17 71 99 74.74 99 79.50 C 99.02 84.20 95.19 88 90.53 88 C 85.78 88 82 84.20 82 79.50 C 82 74.74 85.82 71 90.53 71 z "/>
  <path style="opacity:0.10;fill:#ffffff" d="M 46 16 C 29.38 16 16 29.38 16 46 L 16 47 C 16 30.38 29.38 17 46 17 L 146 17 C 162.62 17 176 30.38 176 47 L 176 46 C 176 29.38 162.62 16 146 16 L 46 16 z "/>
  <rect style="fill:#ffffff" width="36" height="5" x="43" y="118.04"/>
  <path style="fill:#ffffff;color:#000000" d="M 63.70,102 77.04,120.35 63.46,139 h 6.19 L 83.23,120.35 69.88,102 Z"/>
</svg>
