<?xml version='1.0' encoding='utf-8'?>
<svg xmlns="http://www.w3.org/2000/svg" width="192" height="192" version="1" id="svg14">
  <defs>
    <filter style="color-interpolation-filters:sRGB" id="filter859" x="0.05" width="1.10" y="0.05" height="1.10">
      <feGaussianBlur stdDeviation="3.20"/>
    </filter>
    <filter style="color-interpolation-filters:sRGB" id="filter879" x="0.06" width="1.12" y="0.04" height="1.08">
      <feGaussianBlur stdDeviation="2.33"/>
    </filter>
  </defs>
  <path d="M 96.00,20.00 C 51.68,20.00 16,55.68 16,100.00 16,144.32 51.68,180 96.00,180 c 44.32,0 80.00,-35.68 80.00,-80.00 0,-44.32 -35.68,-80.00 -80.00,-80.00 z" style="filter:url(#filter859);opacity:0.20;fill:#000000"/>
  <path style="fill:#e4e4e4" d="M 96.00,16.00 C 51.68,16.00 16,51.68 16,96.00 c 0,44.32 35.68,80.00 80.00,80.00 44.32,0 80.00,-35.68 80.00,-80.00 0,-44.32 -35.68,-80.00 -80.00,-80.00 z"/>
  <path style="opacity:0.20;fill:#ffffff" d="M 96 16 C 51.72 16.00 16.07 51.68 16.07 96 C 16.07 96.12 16.08 96.23 16.08 96.34 C 16.43 52.33 51.94 17.00 96 17 L 96.00 17 C 140.06 17.00 175.57 52.33 175.92 96.34 C 175.92 96.23 175.93 96.12 175.93 96 C 175.93 51.68 140.28 16.00 96.00 16 L 96 16 z "/>
  <path style="fill:#138fed" d="M 72.00,40.00 A 80.00,80.00 0 0 0 28.61,52.88 C 20.66,65.32 16,80.08 16,96.00 c 0,4.47 0.38,8.85 1.08,13.12 a 56.00,56.00 0 0 1 54.92,-45.12 56.00,56.00 0 0 1 56.00,56.00 56.00,56.00 0 0 1 -45.22,54.91 c 4.30,0.71 8.71,1.09 13.22,1.09 15.98,0 30.81,-4.69 43.27,-12.70 a 80.00,80.00 0 0 0 12.73,-43.30 80.00,80.00 0 0 0 -80.00,-80.00 z"/>
  <path style="filter:url(#filter879);opacity:0.20" d="m 96.00,18.00 c 0.38,0 0.75,0.03 -1.13,0.03 a 80.00,80.00 0 0 0 -22.87,55.97 80.00,80.00 0 0 0 77.02,79.89 c 8.29,-7.34 15.03,-16.36 19.70,-26.56 A 56.00,56.00 0 0 1 152.00,130.00 56.00,56.00 0 0 1 96.00,74.00 56.00,56.00 0 0 1 126.66,24.07 c -9.44,-3.90 -19.78,-6.07 -30.66,-6.07 z"/>
  <path style="fill:#7bc450" d="m 96.00,16.00 c 0.38,0 0.75,0.03 -1.13,0.03 a 80.00,80.00 0 0 0 -22.87,55.97 80.00,80.00 0 0 0 80.00,80.00 80.00,80.00 0 0 0 1.23,0.06 c 7.53,-7.70 13.46,-16.93 17.39,-27.19 A 56.00,56.00 0 0 1 152.00,128.00 56.00,56.00 0 0 1 96.00,72.00 56.00,56.00 0 0 1 126.66,22.07 C 117.22,18.17 106.88,16.00 96.00,16.00 Z"/>
</svg>
