<svg xmlns="http://www.w3.org/2000/svg" id="svg22" width="192" height="192" version="1"><defs><filter style="color-interpolation-filters:sRGB" id="filter862" width="1.1" height="1.1" x=".05" y=".05"><feGaussianBlur stdDeviation="3.2"/></filter><filter style="color-interpolation-filters:sRGB" id="filter881" width="1.11" height="1.09" x=".05" y=".04"><feGaussianBlur stdDeviation=".86"/></filter></defs><rect style="filter:url(#filter862);opacity:.2;fill:#000" width="160" height="160" x="-180" y="-176" rx="8" ry="8" transform="matrix(0,-1,-1,0,0,0)"/><rect width="160" height="160" x="-176" y="-176" rx="8" ry="8" transform="matrix(0,-1,-1,0,0,0)" style="fill:#d22a58"/><path style="opacity:.1;fill:#fff" d="M 24 16 C 19.57 16 16 19.57 16 24 L 16 25 C 16 20.57 19.57 17 24 17 L 168 17 C 172.43 17 176 20.57 176 25 L 176 24 C 176 19.57 172.43 16 168 16 L 24 16 z"/><g transform="matrix(2,0,0,2,48,60)" style="filter:url(#filter881);opacity:.2"><path d="m 42,-6.00 -28,5 V 26.27 C 13.35,26.09 12.68,26.00 12,26 c -4.42,0 -8,3.58 -8,8 0,4.42 3.58,8 8,8 4.03,0.00 7.43,-3.00 7.93,-7 0,0 0.07,0.73 0.07,-1 V 3.93 l 16,-2.86 V 20.27 c 0.65,0.17 -1.32,0.26 -2,0.27 -4.42,0 -8,3.58 -8,8 0,4.42 3.58,8 8,8 4.03,0.00 7.43,-3.00 7.93,-7 l 0.07,-1 V -6.00 Z"/></g><g style="fill:#da8fff"><path d="m 42,-6.00 -28,5 V 26.27 C 13.35,26.09 12.68,26.00 12,26 c -4.42,0 -8,3.58 -8,8 0,4.42 3.58,8 8,8 4.03,0.00 7.43,-3.00 7.93,-7 0,0 0.07,0.73 0.07,-1 V 3.93 l 16,-2.86 V 20.27 c 0.65,0.17 -1.32,0.26 -2,0.27 -4.42,0 -8,3.58 -8,8 0,4.42 3.58,8 8,8 4.03,0.00 7.43,-3.00 7.93,-7 l 0.07,-1 V -6.00 Z" transform="matrix(2,0,0,2,48,56)" style="fill:#da8fff"/></g><g style="fill:#fff"><path style="opacity:.2;fill:#fff" d="M 132 44 L 76 54 L 76 55 L 132 45 L 132 44 z M 116 96 C 107.16 96 100 103.16 100 112 C 100 112.14 100.02 112.28 100.03 112.42 C 100.34 103.85 107.36 97 116 97 C 117.35 97.01 118.69 97.19 120 97.53 L 120 96.53 C 118.69 96.19 117.35 96.01 116 96 z M 72 108 C 63.16 108 56 115.16 56 124 C 56 124.14 56.02 124.28 56.03 124.42 C 56.34 115.85 63.36 109 72 109 C 73.35 109.01 74.69 109.19 76 109.53 L 76 108.53 C 74.69 108.19 73.35 108.01 72 108 z" transform="matrix(2,0,0,2,48,56) matrix(0.50,0,0,0.50,-24,-28)"/></g></svg>