<?xml version='1.0' encoding='utf-8'?>
<svg xmlns="http://www.w3.org/2000/svg" width="192" height="192" version="1" id="svg12">
  <defs>
    <filter style="color-interpolation-filters:sRGB" id="filter856" x="-0.048000001" width="1.096" y="-0.048000001" height="1.096">
      <feGaussianBlur stdDeviation="3.2"/>
    </filter>
    <filter style="color-interpolation-filters:sRGB" id="filter884" x="-0.046285241" width="1.0925705" y="-0.049846698" height="1.0996934">
      <feGaussianBlur stdDeviation="2.159978"/>
    </filter>
  </defs>
  <rect style="filter:url(#filter856);opacity:0.2" width="160" height="160" x="16" y="20" rx="8" ry="8"/>
  <rect style="fill:#4f4f4f" width="160" height="160" x="16" y="16" rx="8" ry="8"/>
  <path style="opacity:0.1;fill:#ffffff" d="M 24 16 C 19.568 16 16 19.568 16 24 L 16 25 C 16 20.568 19.568 17 24 17 L 168 17 C 172.432 17 176 20.568 176 25 L 176 24 C 176 19.568 172.432 16 168 16 L 24 16 z "/>
  <path style="filter:url(#filter884);opacity:0.2" d="M 94,46.002197 A 34,34 0 0 0 60.0625,78.720949 26,26 0 0 0 40,104.0022 a 26,26 0 0 0 26,26 h -1.265624 l 2.335936,0.125 c 0.556408,1.95291 1.067324,3.93681 0.929688,5.86718 0.06756,4.85266 -2.600532,7.80405 -5.867188,10.63282 -0.83084,0.44075 -1.466168,0.95578 -1.406248,1.14062 0.19748,0.6089 4.007308,1.90788 6.25,2.13281 2.893512,0.29008 6.921336,-0.0654 9.22656,-0.92968 3.665072,-1.37411 6.606824,-3.66152 8.679688,-6.76563 1.772484,-2.65432 2.70602,-5.28382 2.984376,-8.35156 l 0.23436,-3.72656 14.343752,-0.125 H 130 a 22,22 0 0 0 22,-22 22,22 0 0 0 -22,-22.000003 22,22 0 0 0 -2.59375,0.17968 34,34 0 0 0 0.59375,-6.17968 34,34 0 0 0 -34,-34 z"/>
  <path style="fill:#ffffff" d="M 94,44 A 34,34 0 0 0 60.0625,76.718752 26,26 0 0 0 40,102 26,26 0 0 0 66,128 h -1.265624 l 2.335936,0.125 c 0.556408,1.95291 1.067324,3.93681 0.929688,5.86719 0.06756,4.85265 -2.600532,7.80405 -5.867188,10.63281 -0.83084,0.44075 -1.466168,0.95579 -1.406248,1.14062 0.19748,0.6089 4.007308,1.90789 6.25,2.13282 2.893512,0.29008 6.921336,-0.0654 9.22656,-0.92969 3.665072,-1.37411 6.606824,-3.66152 8.679688,-6.76563 1.772484,-2.65432 2.70602,-5.28381 2.984376,-8.35156 L 88.101564,128.125 102.44531,128 H 130 A 22,22 0 0 0 152,106 22,22 0 0 0 130,84 22,22 0 0 0 127.40625,84.179688 34,34 0 0 0 128,78 34,34 0 0 0 94,44 Z"/>
</svg>
