<svg xmlns="http://www.w3.org/2000/svg" id="svg12" width="192" height="192" version="1"><defs><filter style="color-interpolation-filters:sRGB" id="filter955" width="1.1" height="1.1" x=".05" y=".05"><feGaussianBlur stdDeviation="3.2"/></filter><filter style="color-interpolation-filters:sRGB" id="filter2160" width="1.34" height="1.16" x=".17" y=".08"><feGaussianBlur stdDeviation="3.57"/></filter></defs><rect style="filter:url(#filter955);opacity:.2;fill:#000" width="160" height="160" x="16" y="20" rx="30" ry="30"/><rect style="fill:#00d170" width="160" height="160" x="16" y="16" rx="30" ry="30"/><path style="opacity:.2;fill:#fff" d="M 46 16 C 29.38 16 16 29.38 16 46 L 16 47 C 16 30.38 29.38 17 46 17 L 146 17 C 162.62 17 176 30.38 176 47 L 176 46 C 176 29.38 162.62 16 146 16 L 46 16 z"/><path style="filter:url(#filter2160);opacity:.2;fill:#000" d="m 94.71,44 -17.18,65.96 c 0,0 15.18,0.19 17.26,0.24 4.99,-1.04 9.62,-5.11 11.21,-9.73 0.28,0.82 3.72,-13.73 7.63,-28.70 L 120.75,44 Z M 86,120 a 16,16 0 0 0 -16,16 16,16 0 0 0 16,16 16,16 0 0 0 16,-16 16,16 0 0 0 -16,-16 z"/><path style="fill:#fff" d="M 94.71 42 L 77.54 107.96 C 77.54 107.96 92.72 108.15 94.79 107.72 C 99.79 106.68 104.42 102.61 106.00 97.99 C 106.28 97.17 109.72 84.26 113.63 69.29 L 120.75 42 L 94.71 42 z M 86 118 A 16 16 0 0 0 70 134 A 16 16 0 0 0 86 150 A 16 16 0 0 0 102 134 A 16 16 0 0 0 86 118 z"/></svg>