<?xml version='1.0' encoding='utf-8'?>
<svg xmlns="http://www.w3.org/2000/svg" width="192" height="192" version="1.1" id="svg42">
  <defs>
    <filter style="color-interpolation-filters:sRGB" id="filter925" x="0.05" width="1.10" y="0.06" height="1.12">
      <feGaussianBlur stdDeviation="2.69"/>
    </filter>
    <filter style="color-interpolation-filters:sRGB" id="filter929" x="0.05" width="1.10" y="0.05" height="1.10">
      <feGaussianBlur stdDeviation="1.60"/>
    </filter>
    <filter style="color-interpolation-filters:sRGB" id="filter933" x="0.02" width="1.05" y="0.63" height="2.26">
      <feGaussianBlur stdDeviation="1.05"/>
    </filter>
    <filter style="color-interpolation-filters:sRGB" id="filter937" x="0.02" width="1.05" y="0.63" height="2.26">
      <feGaussianBlur stdDeviation="1.05"/>
    </filter>
  </defs>
  <path style="filter:url(#filter925);opacity:0.20;fill:#000000" d="m 114.07,63.00 a 7.75,7.86 0 0 0 -3.51,0.82 7.70,7.81 0 0 0 0.75,0.43 l -55.99,32.34 0.02,0.01 0.06,0.04 v 0.00 a 3.44,3.49 0 0 0 -1.72,3.02 58.61,59.42 0 0 0 0.26,1.33 A 3.36,3.41 0 0 1 52,99.74 v 65.40 a 7.74,7.85 0 0 0 7.75,7.86 h 108.50 a 7.76,7.87 0 0 0 1.91,0.26 3.29,3.34 0 0 0 0.93,0.31 0.73,0.74 0 0 0 0.31,0.11 5.41,5.49 0 0 0 1.19,0.68 c 0.10,0.05 0.16,0.05 0.21,0.16 h 0.00 l 0.00,0.02 A 7.74,7.84 0 0 0 176,165.14 V 99.67 a 3.44,3.49 0 0 1 0.25,1.29 58.60,59.41 0 0 0 0.25,-1.29 3.44,3.49 0 0 0 0,0.00 3.44,3.49 0 0 0 -1.72,-3.02 v 0.00 l 0.07,0.04 0.02,0.01 -56.00,-32.34 a 7.74,7.85 0 0 0 0.75,0.43 7.75,7.86 0 0 0 -3.38,0.82 z"/>
  <path style="fill:#0364b8" d="M 156.91,24.00 H 70.09 c -3.92,0.00 -7.09,3.24 -7.09,7.25 V 40 l 3.61,70.71 h 46.89 l 46.89,-3.61 L 164,40 v -8.75 c 0.00,-4.00 -3.17,-7.25 -7.09,-7.25 z"/>
  <path style="fill:#0a2767" d="M 174.19,103.03 A 58.60,59.41 0 0 0 176,95.67 a 3.44,3.49 0 0 0 -1.72,-3.02 v 0.00 l 0.07,0.04 0.02,0.01 -55.99,-32.34 a 7.74,7.85 0 0 0 0.75,0.43 v 0.00 a 7.75,7.86 0 0 0 -6.89,0 l 0.00,0.00 a 7.70,7.81 0 0 0 0.75,0.43 l -56.00,32.34 0.02,0.01 0.07,0.04 v 0.00 a 3.44,3.49 0 0 0 -1.72,3.02 58.61,59.42 0 0 0 1.81,7.36 l 59.37,44.03 z"/>
  <rect style="fill:#064a8c" width="36" height="32" x="63" y="104"/>
  <rect style="fill:#0364b8" width="32" height="32" x="99" y="104"/>
  <rect style="fill:#0078d4" width="33" height="32" x="131" y="104"/>
  <path style="fill:#1490df" d="m 174.28,98.69 v 0.00 l 0.07,0.04 0.02,0.01 -56.00,32.34 a 7.73,7.84 0 0 1 -7.55,0.48 l 19.50,26.51 42.65,9.41 0.00,0.02 a 7.74,7.84 0 0 0 3.20,-6.36 V 95.67 a 3.44,3.49 0 0 1 -1.72,3.02 z"/>
  <path style="fill:#28a8ea" d="m 53.81,98.76 v 0.05 h 0.05 l 0.15,0.10 A 3.36,3.41 0 0 1 52.00,95.67 v 65.48 a 7.74,7.85 0 0 0 7.75,7.86 H 168.25 a 7.76,7.87 0 0 0 1.91,0.26 3.29,3.34 0 0 0 0.93,0.31 0.73,0.74 0 0 0 0.31,0.10 5.41,5.49 0 0 0 1.19,0.68 c 0.10,0.05 0.16,0.05 0.21,0.16 z"/>
  <rect style="filter:url(#filter933);opacity:0.10;fill:#525252" width="101" height="4" x="63" y="102"/>
  <rect style="fill:#0364b8" width="36" height="32" x="63" y="72"/>
  <rect style="fill:#0078d4" width="32" height="32" x="99" y="72"/>
  <rect style="fill:#28a8ea" width="33" height="32" x="131" y="72"/>
  <rect style="filter:url(#filter937);opacity:0.10;fill:#525252" width="101" height="4" x="63" y="70"/>
  <rect style="fill:#0078d4" width="36" height="32" x="63" y="40"/>
  <rect style="fill:#28a8ea" width="32" height="32" x="99" y="40"/>
  <rect style="fill:#50d9ff" width="33" height="32" x="131" y="40"/>
  <path style="filter:url(#filter929);opacity:0.10;fill:#000000" d="m 22.67,60.00 h 66.67 a 6.67,6.67 0 0 1 6.67,6.67 V 133.33 A 6.67,6.67 0 0 1 89.33,140 H 22.67 a 6.67,6.67 0 0 1 -6.67,-6.67 V 66.67 a 6.67,6.67 0 0 1 6.67,-6.67 z"/>
  <path style="fill:#0087f0" d="m 22.67,56.00 h 66.67 a 6.67,6.67 0 0 1 6.67,6.67 V 129.33 A 6.67,6.67 0 0 1 89.33,136 H 22.67 a 6.67,6.67 0 0 1 -6.67,-6.67 V 62.67 a 6.67,6.67 0 0 1 6.67,-6.67 z"/>
  <path style="fill:#ffffff" d="M 55.73 71 A 26.46 24.82 0 0 0 42.72 74.28 A 22.28 20.90 0 0 0 33.97 83.35 A 32.27 30.27 0 0 0 31.01 96.59 A 29.09 27.29 0 0 0 34.02 109.18 A 22.41 21.01 0 0 0 42.65 117.86 A 25.20 23.64 0 0 0 55.80 120.99 A 25.58 23.99 0 0 0 69.15 117.81 A 22.59 21.19 0 0 0 77.92 108.84 A 31.45 29.50 0 0 0 80.99 95.51 A 29.83 27.98 0 0 0 78.01 82.77 A 22.06 20.69 0 0 0 69.49 74.11 A 24.61 23.08 0 0 0 56.63 71.01 A 26.46 24.82 0 0 0 55.73 71 z M 56.62 79 A 12.36 12.09 0 0 1 64.12 81.40 A 13.82 13.52 0 0 1 68.60 87.68 A 26.21 25.64 0 0 1 70.00 96.22 A 23.95 23.43 0 0 1 68.51 104.66 A 13.48 13.18 0 0 1 63.87 110.72 A 13.11 12.83 0 0 1 55.89 112.99 A 12.48 12.21 0 0 1 48.42 110.79 A 14.06 13.76 0 0 1 43.64 104.74 A 24.73 24.19 0 0 1 43.68 87.33 A 14.19 13.88 0 0 1 48.56 81.23 A 12.91 12.63 0 0 1 56.21 79.01 A 12.36 12.09 0 0 1 56.62 79 z "/>
  <path style="opacity:0.10;fill:#ffffff" d="M 70.09 24 C 66.17 24.00 63.00 27.24 63 31.25 L 63 32.25 C 63.00 28.25 66.17 25.00 70.09 25 L 156.91 25 C 160.83 25.00 164.00 28.24 164 32.25 L 164 31.25 C 164.00 27.24 160.83 24.00 156.91 24 L 70.09 24 z "/>
</svg>
