<?xml version='1.0' encoding='utf-8'?>
<svg xmlns="http://www.w3.org/2000/svg" width="192" height="192" version="1" id="svg14">
  <defs>
    <filter style="color-interpolation-filters:sRGB" id="filter850" x="0.05" width="1.11" y="0.04" height="1.09">
      <feGaussianBlur stdDeviation="2.88"/>
    </filter>
    <filter style="color-interpolation-filters:sRGB" id="filter869" x="0.03" width="1.07" y="0.09" height="1.17">
      <feGaussianBlur stdDeviation="2"/>
    </filter>
  </defs>
  <rect style="filter:url(#filter850);opacity:0.20;fill:#000000" width="128" height="160" x="-164" y="-176" rx="8" ry="8" transform="matrix(0,-1,-1,0,0,0)"/>
  <rect transform="matrix(0,-1,-1,0,0,0)" ry="8" rx="8" y="-176" x="-160" height="160" width="128" style="fill:#0ed7ae"/>
  <path style="opacity:0.20;fill:#ffffff" d="M 24 32 C 19.57 32 16 35.57 16 40 L 16 41 C 16 36.57 19.57 33 24 33 L 168 33 C 172.43 33 176 36.57 176 41 L 176 40 C 176 35.57 172.43 32 168 32 L 24 32 z "/>
  <path d="m 44,74 v 13.07 l -11.32,-6.53 -4,6.92 L 40.01,94 l -11.33,6.54 4,6.92 L 44,100.93 V 114 h 8 v -13.07 l 11.32,6.53 4,-6.92 L 55.99,94 l 11.33,-6.54 -4,-6.92 L 52,87.07 V 74 Z m 48,0 v 13.07 l -11.32,-6.53 -4,6.92 L 88.01,94 l -11.33,6.54 4,6.92 L 92,100.93 V 114 h 8 v -13.07 l 11.32,6.53 4,-6.92 L 103.99,94 l 11.33,-6.54 -4,-6.92 L 100,87.07 V 74 Z m 48,0 v 13.07 l -11.32,-6.53 -4,6.92 L 136.01,94 l -11.33,6.54 4,6.92 L 140,100.93 V 114 h 8 v -13.07 l 11.32,6.53 4,-6.92 L 151.99,94 l 11.33,-6.54 -4,-6.92 L 148,87.07 V 74 Z M 24,122 v 8 h 144 v -8 z" style="filter:url(#filter869);opacity:0.20"/>
  <path d="m 44,72 v 13.07 l -11.32,-6.53 -4,6.92 L 40.01,92 l -11.33,6.54 4,6.92 L 44,98.93 V 112 h 8 V 98.93 l 11.32,6.53 4,-6.92 L 55.99,92 l 11.33,-6.54 -4,-6.92 L 52,85.07 V 72 Z m 48,0 v 13.07 l -11.32,-6.53 -4,6.92 L 88.01,92 l -11.33,6.54 4,6.92 L 92,98.93 V 112 h 8 V 98.93 l 11.32,6.53 4,-6.92 L 103.99,92 l 11.33,-6.54 -4,-6.92 L 100,85.07 V 72 Z m 48,0 v 13.07 l -11.32,-6.53 -4,6.92 L 136.01,92 l -11.33,6.54 4,6.92 L 140,98.93 V 112 h 8 V 98.93 l 11.32,6.53 4,-6.92 L 151.99,92 l 11.33,-6.54 -4,-6.92 L 148,85.07 V 72 Z M 24,120 v 8 h 144 v -8 z" style="fill:#ffffff"/>
</svg>
