<?xml version='1.0' encoding='utf-8'?>
<svg xmlns="http://www.w3.org/2000/svg" width="192" height="192" version="1" id="svg14">
  <defs>
    <filter style="color-interpolation-filters:sRGB" id="filter846" x="0.05" width="1.10" y="0.05" height="1.09">
      <feGaussianBlur stdDeviation="3.12"/>
    </filter>
    <filter style="color-interpolation-filters:sRGB" id="filter867" x="0.07" width="1.13" y="0.04" height="1.08">
      <feGaussianBlur stdDeviation="1.32"/>
    </filter>
  </defs>
  <path style="filter:url(#filter846);opacity:0.20;fill:#000000" d="M 33.76,20.00 A 13.45,12.55 0 0 0 20,32.55 V 167.45 a 13.45,12.55 0 0 0 20.17,10.86 l 62.56,-33.72 62.55,-33.72 a 13.45,12.55 0 0 0 0,-21.75 L 102.72,55.40 40.17,21.68 a 13.45,12.55 0 0 0 -6.41,-1.68 z"/>
  <path d="M 33.76,16.00 A 13.45,12.55 0 0 0 20,28.55 V 163.45 a 13.45,12.55 0 0 0 20.17,10.86 l 62.56,-33.72 62.55,-33.72 a 13.45,12.55 0 0 0 0,-21.75 L 102.72,51.40 40.17,17.68 a 13.45,12.55 0 0 0 -6.41,-1.68 z" style="fill:#21a758"/>
  <path d="m 76,60 v 57.89 A 16,14 0 0 0 68,116 16,14 0 0 0 52,130 16,14 0 0 0 68,144 16,14 0 0 0 84,130 16,14 0 0 0 83.98,129.67 H 84 V 76.66 c 1.50,1.28 3.86,2.90 4.79,4.09 C 90.95,83.51 92,86.31 92,92 h 8 C 100,85.14 98.30,79.92 95.09,75.81 92.29,72.22 88.35,69.45 84,66.19 V 60 Z" style="filter:url(#filter867);opacity:0.20"/>
  <path d="m 76,56 v 9.99 47.90 A 16,14 0 0 0 68,112 16,14 0 0 0 52,126 16,14 0 0 0 68,140 16,14 0 0 0 84,126 16,14 0 0 0 83.98,125.67 H 84 V 72.66 c 1.50,1.28 3.86,2.90 4.79,4.09 C 90.95,79.51 92,82.31 92,88 h 8 C 100,81.14 98.30,75.92 95.09,71.81 92.29,68.22 88.35,65.45 84,62.19 V 56 Z" style="fill:#ffffff"/>
  <path style="opacity:0.20;fill:#ffffff" d="M 33.76 16.00 A 13.45 12.55 0 0 0 20 28.55 L 20 29.55 A 13.45 12.55 0 0 1 33.76 17.00 A 13.45 12.55 0 0 1 40.17 18.68 L 102.72 52.40 L 165.28 86.13 A 13.45 12.55 0 0 1 171.98 96.62 A 13.45 12.55 0 0 0 165.28 85.13 L 102.72 51.40 L 40.17 17.68 A 13.45 12.55 0 0 0 33.76 16.00 z "/>
</svg>
