<?xml version='1.0' encoding='utf-8'?>
<svg xmlns="http://www.w3.org/2000/svg" width="192" height="192" version="1" id="svg14">
  <defs>
    <filter style="color-interpolation-filters:sRGB" id="filter856" x="0.04" width="1.08" y="0.06" height="1.12">
      <feGaussianBlur stdDeviation="2.72"/>
    </filter>
    <filter style="color-interpolation-filters:sRGB" id="filter851" x="0.04" width="1.08" y="0.06" height="1.12">
      <feGaussianBlur stdDeviation="1.46"/>
    </filter>
  </defs>
  <path d="m 82.84,155.90 c -26.45,0.50 -37.18,0.95 -43.74,-1.81 -4.81,0.63 -7.18,-1.25 -9.84,-2.57 -4.40,-2.18 -7.14,-5.21 -9.12,-10.11 -1.81,-4.48 -2.54,-8.03 -3.22,-15.55 0.76,-8.48 0.82,-10.02 0.90,-23.24 0.09,-15.54 0.09,-20.64 1.14,-30.95 0.55,-5.41 1.35,-9.00 2.84,-12.81 1.37,-3.47 2.61,-5.39 4.88,-7.50 2.85,-2.65 5.98,-4.27 9.93,-5.12 5.90,-1.27 32.54,-2.25 61.20,-2.25 28.66,0 55.31,0.98 61.21,2.25 4.26,0.92 7.39,2.62 10.45,5.67 2.39,2.39 3.62,4.56 5.08,8.96 1.51,4.54 2.09,8.56 2.95,20.45 0.41,5.65 0.41,31.64 0,37.28 0.48,6.60 -1.06,12.48 -1.45,14.59 -1.00,5.41 -2.97,10.47 -5.18,13.35 -1.52,1.98 -4.52,4.33 -7.03,5.51 -2.54,1.20 -4.96,1.80 -8.87,2.18 -12.10,1.19 -49.04,2.06 -70.32,1.65 z" style="filter:url(#filter856);opacity:0.20"/>
  <path d="m 82.84,151.90 c -26.45,0.50 -37.18,0.95 -43.74,-1.81 -4.81,0.63 -7.18,-1.25 -9.84,-2.57 -4.40,-2.18 -7.14,-5.21 -9.12,-10.11 -1.81,-4.48 -2.54,-8.03 -3.22,-15.55 0.76,-8.48 0.82,-10.02 0.90,-23.24 0.09,-15.54 0.09,-20.64 1.14,-30.95 0.55,-5.41 1.35,-9.00 2.84,-12.81 1.37,-3.47 2.61,-5.39 4.88,-7.50 2.85,-2.65 5.98,-4.27 9.93,-5.12 C 40.70,40.98 67.35,40 96.01,40 c 28.66,0 55.31,0.98 61.21,2.25 4.26,0.92 7.39,2.62 10.45,5.67 2.39,2.39 3.62,4.56 5.08,8.96 1.51,4.54 2.09,8.56 2.95,20.45 0.41,5.65 0.41,31.64 0,37.28 0.48,6.60 -1.06,12.48 -1.45,14.59 -1.00,5.41 -2.97,10.47 -5.18,13.35 -1.52,1.98 -4.52,4.33 -7.03,5.51 -2.54,1.20 -4.96,1.80 -8.87,2.18 -12.10,1.19 -49.04,2.06 -70.32,1.65 z" style="fill:#186ed4"/>
  <path style="opacity:0.20;fill:#ffffff" d="m 96.02,40 c -28.66,0 -55.31,0.98 -61.20,2.25 -3.95,0.85 -7.08,2.46 -9.93,5.12 -2.27,2.11 -3.52,4.03 -4.88,7.50 -1.50,3.81 -2.30,7.40 -2.84,12.81 0.81,7.98 -1.09,12.96 -1.14,21.94 0.06,-8.43 0.36,-13.23 1.14,-20.94 0.55,-5.41 1.34,-9.00 2.84,-12.81 1.37,-3.47 2.62,-5.39 4.88,-7.50 C 27.73,45.71 30.86,44.10 34.81,43.25 40.71,41.98 67.35,41 96.02,41 c 28.66,0 55.31,0.98 61.20,2.25 4.26,0.92 7.39,2.62 10.45,5.67 2.39,2.39 3.62,4.55 5.09,8.96 1.51,4.54 2.09,8.55 2.95,20.45 0.20,2.83 0.28,10.75 0.28,18.66 0.00,0.32 0.01,0.63 0.01,0.98 0.02,-8.57 0.07,-17.57 0.29,-20.65 C 174.84,65.44 174.26,61.42 172.75,56.88 171.29,52.48 170.05,50.31 167.66,47.92 164.61,44.87 161.48,43.17 157.22,42.25 151.32,40.98 124.68,40 96.02,40 Z"/>
  <g aria-label="m" transform="matrix(1.01,0,0,0.99,-1.87,7.91)" style="filter:url(#filter851);opacity:0.20;fill:#000000">
    <path d="m 119.58,62.64 c 6.73,0 11.75,1.74 15.08,5.21 3.33,3.40 4.99,8.94 4.99,16.63 v 38.69 h -9.91 V 84.92 c 0,-9.39 -3.76,-14.21 -11.82,-14.21 -5.76,0 -9.90,1.80 -12.42,5.12 -2.44,3.33 -3.50,8.17 -3.52,14.52 V 123.17 H 92.06 V 84.92 c 0,-9.39 -3.93,-14.21 -12.06,-14.21 -5.99,0 -10.13,1.98 -12.42,5.68 -2.29,3.70 -3.24,9.02 -3.28,15.96 V 123.17 H 54.39 V 63.65 h 7.87 l 1.44,8.19 h 0.55 c 1.85,-3.10 4.32,-5.40 7.43,-6.87 3.18,-1.55 6.54,-2.33 10.09,-2.33 9.31,0 15.37,3.33 18.18,9.98 h 0.55 c 2.00,-3.40 4.69,-5.91 8.09,-7.54 3.47,-1.63 7.13,-2.44 10.97,-2.44 z" style="fill:#000000;font-stretch:normal"/>
  </g>
  <g aria-label="m" transform="matrix(1.01,0,0,0.99,-1.87,3.91)" style="fill:#ffffff">
    <path d="m 119.58,62.64 c 6.73,0 11.75,1.74 15.08,5.21 3.33,3.40 4.99,8.94 4.99,16.63 v 38.69 h -9.91 V 84.92 c 0,-9.39 -3.76,-14.21 -11.82,-14.21 -5.76,0 -9.90,1.80 -12.42,5.12 -2.44,3.33 -3.50,8.17 -3.52,14.52 V 123.17 H 92.06 V 84.92 c 0,-9.39 -3.93,-14.21 -12.06,-14.21 -5.99,0 -10.13,1.98 -12.42,5.68 -2.29,3.70 -3.24,9.02 -3.28,15.96 V 123.17 H 54.39 V 63.65 h 7.87 l 1.44,8.19 h 0.55 c 1.85,-3.10 4.32,-5.40 7.43,-6.87 3.18,-1.55 6.54,-2.33 10.09,-2.33 9.31,0 15.37,3.33 18.18,9.98 h 0.55 c 2.00,-3.40 4.69,-5.91 8.09,-7.54 3.47,-1.63 7.13,-2.44 10.97,-2.44 z" style="fill:#ffffff;font-stretch:normal"/>
  </g>
</svg>
