<?xml version='1.0' encoding='utf-8'?>
<svg xmlns="http://www.w3.org/2000/svg" width="192" height="192" version="1" id="svg32">
  <defs>
    <filter style="color-interpolation-filters:sRGB" id="filter863" x="0.05" width="1.10" y="0.05" height="1.09">
      <feGaussianBlur stdDeviation="3.12"/>
    </filter>
    <filter style="color-interpolation-filters:sRGB" id="filter916" x="0.04" width="1.08" y="0.07" height="1.13">
      <feGaussianBlur stdDeviation="1.03"/>
    </filter>
    <filter style="color-interpolation-filters:sRGB" id="filter976" x="0.05" width="1.09" y="0.05" height="1.10">
      <feGaussianBlur stdDeviation="1.66"/>
    </filter>
  </defs>
  <path d="m 96.44,16.00 v 0.01 A 18.77,18.65 0 0 0 86.61,18.49 L 31.39,50.17 A 18.77,18.65 0 0 0 22,66.32 v 63.36 a 18.77,18.65 0 0 0 9.39,16.14 l 55.23,31.68 a 18.77,18.65 0 0 0 18.77,0 l 55.23,-31.68 A 18.77,18.65 0 0 0 170,129.68 V 66.32 a 18.77,18.65 0 0 0 -9.39,-16.15 l -55.23,-31.68 a 18.77,18.65 0 0 0 -8.94,-2.49 z" style="filter:url(#filter863);opacity:0.20;fill:#000000"/>
  <path style="fill:#f69a15" d="m 96.44,14.00 v 0.01 A 18.77,18.65 0 0 0 86.61,16.49 L 31.39,48.17 A 18.77,18.65 0 0 0 22,64.32 v 63.36 a 18.77,18.65 0 0 0 9.39,16.14 L 86.61,175.50 a 18.77,18.65 0 0 0 18.77,0 l 55.23,-31.68 A 18.77,18.65 0 0 0 170,127.68 V 64.32 a 18.77,18.65 0 0 0 -9.39,-16.15 l -55.23,-31.68 a 18.77,18.65 0 0 0 -8.94,-2.49 z"/>
  <path style="opacity:0.20;fill:#ffffff" d="m 96.44,14 v 0.01 a 18.77,18.65 0 0 0 -9.83,2.48 l -55.23,31.68 A 18.77,18.65 0 0 0 22,64.32 v 1 a 18.77,18.65 0 0 1 9.39,-16.15 L 86.61,17.49 a 18.77,18.65 0 0 1 9.83,-2.48 V 15 a 18.77,18.65 0 0 1 8.95,2.49 l 55.23,31.68 A 18.77,18.65 0 0 1 170,65.32 v -1 a 18.77,18.65 0 0 0 -9.39,-16.15 L 105.39,16.49 A 18.77,18.65 0 0 0 96.44,14 Z"/>
  <path d="m 92.10,16.43 a 18.77,18.65 0 0 0 -5.48,2.06 L 31.39,50.17 A 18.77,18.65 0 0 0 26.78,53.91 l 32.79,0.09 a 18.65,18.77 60 0 0 16.26,-9.39 z" style="filter:url(#filter916);opacity:0.10;fill:#000000"/>
  <path style="fill:#dd571b" d="m 92.10,14.43 a 18.77,18.65 0 0 0 -5.48,2.06 L 31.39,48.17 a 18.77,18.65 0 0 0 -4.61,3.74 l 32.79,0.09 a 18.65,18.77 60 0 0 16.26,-9.39 z"/>
  <path d="m 99.90,177.57 a 18.77,18.65 0 0 0 5.48,-2.06 l 55.23,-31.68 a 18.77,18.65 0 0 0 4.61,-3.74 l -32.79,0.09 a 18.65,18.77 60 0 0 -16.26,9.39 z" style="fill:#dd571b"/>
  <path d="m 78.29,58.00 c -23.24,0 -24.33,0.03 -24.88,0.64 0.35,0.39 0.49,0.90 0.36,1.29 0.46,1.36 5.82,13.46 6.69,15.11 1.25,2.37 1.89,2.94 9.54,2.96 h 6.31 l 0.16,0.39 c 0.09,0.43 -5.14,13.31 -11.23,28.64 -7.32,18.43 -11.09,28.34 -11.12,29.25 0.16,1.75 0.17,1.72 1.50,1.72 h 58.01 c 0.65,0.05 1.41,0.37 1.70,0.66 0.47,0.47 0.44,0.71 0.27,-2.33 0.43,-1.00 -2.11,-4.99 -3.71,-8.87 0.89,-2.15 -1.85,-4.42 -2.54,-6.01 0.69,-2.01 0.75,-2.13 -2.74,-2.13 H 94.22 81.72 c 0.31,0.37 0.10,-1.86 0.96,-4.64 2.31,-6.07 19.87,-51.33 20.45,-52.68 0.66,-1.56 0.66,-1.48 0.00,-2.14 0.48,0.48 -3.21,0.54 -24.85,0.54 z m 31.48,3.26 c 0.19,0.04 0.39,0.16 0.61,0.36 0.37,0.34 0.68,0.75 0.68,0.91 0,0.37 -5.41,15.11 -7.27,19.80 l -1.39,3.51 1.22,2.86 c 0.67,1.57 5.26,13.08 10.20,25.57 4.94,12.49 9.13,22.90 9.32,23.12 0.19,0.23 0.67,0.46 1.09,0.53 1.61,0.25 14.88,0.14 15.73,0.46 1.21,0.46 1.82,-1.70 1.58,-3.19 0.11,0.66 -6.21,-16.51 -13.57,-35.21 -7.36,-18.70 -13.65,-34.73 -13.98,-35.63 0.60,-1.63 -1.06,-2.28 -1.62,-2.17 z" style="filter:url(#filter976);opacity:0.20;fill:#000000"/>
  <path style="fill:#ffffff" d="m 78.29,56 c -23.24,0 -24.33,0.03 -24.88,0.64 0.35,0.39 0.49,0.90 0.36,1.29 0.46,1.36 5.82,13.46 6.69,15.11 1.25,2.37 1.89,2.94 9.54,2.96 h 6.31 l 0.16,0.39 c 0.09,0.43 -5.14,13.31 -11.23,28.64 -7.32,18.43 -11.09,28.34 -11.12,29.25 0.16,1.75 0.17,1.72 1.50,1.72 h 58.01 c 0.65,0.05 1.41,0.37 1.70,0.66 0.47,0.47 0.44,0.71 0.27,-2.33 0.43,-1.00 -2.11,-4.99 -3.71,-8.87 0.89,-2.15 -1.85,-4.42 -2.54,-6.01 C 107.08,116.12 107.02,116 105.03,116 H 94.22 81.72 c 0.31,0.37 0.10,-1.86 0.96,-4.64 2.31,-6.07 19.87,-51.33 20.45,-52.68 0.66,-1.56 0.66,-1.48 0.00,-2.14 C 102.65,56.06 99.93,56 78.29,56 Z m 31.48,3.26 c 0.19,0.04 0.39,0.16 0.61,0.36 0.37,0.34 0.68,0.75 0.68,0.91 0,0.37 -5.41,15.11 -7.27,19.80 l -1.39,3.51 1.22,2.86 c 0.67,1.57 5.26,13.08 10.20,25.57 4.94,12.49 9.13,22.90 9.32,23.12 0.19,0.23 0.67,0.46 1.09,0.53 1.61,0.25 14.88,0.14 15.73,0.46 1.21,0.46 1.82,-1.70 1.58,-3.19 0.11,0.66 -6.21,-16.51 -13.57,-35.21 -7.36,-18.70 -13.65,-34.73 -13.98,-35.63 0.60,-1.63 -1.06,-2.28 -1.62,-2.17 z"/>
</svg>
