<?xml version='1.0' encoding='utf-8'?>
<svg xmlns="http://www.w3.org/2000/svg" width="192" height="192" version="1" id="svg28">
  <defs>
    <filter style="color-interpolation-filters:sRGB" id="filter6495" x="0.05" y="0.05" width="1.10" height="1.10">
      <feGaussianBlur stdDeviation="3.20"/>
    </filter>
    <filter style="color-interpolation-filters:sRGB" id="filter1780" x="0.11" y="0.11" width="1.22" height="1.22">
      <feGaussianBlur stdDeviation="4.40"/>
    </filter>
  </defs>
  <rect transform="matrix(0,-1,-1,0,0,0)" ry="12" rx="12" y="-176" x="-180" height="160" width="160" style="filter:url(#filter6495);opacity:0.20;fill:#000000"/>
  <rect transform="matrix(0,-1,-1,0,0,0)" ry="12" rx="12" y="-176" x="-176" height="160" width="160" style="fill:#3f3f3f"/>
  <path style="opacity:0.10;fill:#ffffff" d="m 28,16 c -6.65,0 -12,5.35 -12,12 v 1 c 0,-6.65 5.35,-12 12,-12 h 136 c 6.65,0 12,5.35 12,12 v -1 c 0,-6.65 -5.35,-12 -12,-12 z"/>
  <path style="filter:url(#filter1780);opacity:0.20;fill:#000000;color:#000000" d="m 84.24,50.00 a 5.12,5.12 0 0 0 -1.32,0.17 5.12,5.12 0 0 0 -2.30,1.33 L 68,64.12 v 73.41 l 38.43,10.30 a 5.12,5.12 0 0 0 4.95,-1.33 L 143.50,114.38 a 5.12,5.12 0 0 0 1.33,-4.95 L 133.07,65.55 a 5.12,5.12 0 0 0 -3.62,-3.62 L 85.57,50.18 A 5.12,5.12 0 0 0 84.24,50.00 Z M 64,68.12 l -15.50,15.50 a 5.12,5.12 0 0 0 -1.33,4.95 l 11.76,43.88 a 5.12,5.12 0 0 0 3.62,3.62 L 64,136.46 Z"/>
  <path style="fill:#ffffff;color:#000000" d="M 84.24 47 A 5.12 5.12 0 0 0 82.92 47.17 A 5.12 5.12 0 0 0 80.62 48.50 L 68 61.12 L 68 134.53 L 106.43 144.83 A 5.12 5.12 0 0 0 111.38 143.50 L 143.50 111.38 A 5.12 5.12 0 0 0 144.83 106.43 L 133.07 62.55 A 5.12 5.12 0 0 0 129.45 58.93 L 85.57 47.18 A 5.12 5.12 0 0 0 84.24 47 z M 64 65.12 L 48.50 80.62 A 5.12 5.12 0 0 0 47.17 85.57 L 58.93 129.45 A 5.12 5.12 0 0 0 62.55 133.07 L 64 133.46 L 64 65.12 z "/>
</svg>
