<svg xmlns="http://www.w3.org/2000/svg" id="svg14" width="192" height="192" version="1"><defs><filter style="color-interpolation-filters:sRGB" id="filter850" width="1.1" height="1.1" x=".05" y=".05"><feGaussianBlur stdDeviation="3.2"/></filter><filter style="color-interpolation-filters:sRGB" id="filter1396" width="1.19" height="1.12" x=".1" y=".06"><feGaussianBlur stdDeviation="2.3"/></filter></defs><circle style="filter:url(#filter850);opacity:.2;fill:#000" cx="96" cy="100" r="80"/><circle cx="96" cy="96" r="80" style="fill:#e43153"/><path style="opacity:.2;fill:#fff" d="M 96 16 A 80 80 0 0 0 16 96 A 80 80 0 0 0 16.02 96.47 A 80 80 0 0 1 96 17 A 80 80 0 0 1 175.97 96.51 A 80 80 0 0 0 176 96 A 80 80 0 0 0 96 16 z"/><path style="filter:url(#filter1396);opacity:.2;fill:#000" d="m 82.80,142.79 c 2.83,0.38 4.82,-1.51 5.91,-3.36 0.32,0.54 0.99,-2.71 1.63,-5.28 4.82,-19.28 12.57,-36.33 24.23,-53.27 8.71,-12.66 10.09,-14.80 10.34,-16.02 0.49,-2.34 0.93,-5.11 -4.15,-8.12 -2.91,-2.72 -6.24,-4.13 -8.59,-3.65 -1.83,0.38 -2.95,1.65 -5.73,6.55 -2.23,3.93 -8.14,14.00 -12.61,21.52 -1.21,2.03 -2.28,3.60 -2.37,3.50 0.20,0.21 -1.25,-4.25 -3.41,-14.00 0.80,-3.60 -1.64,-7.07 -1.86,-7.70 -1.46,-4.13 -6.01,-7.39 -11.07,-7.94 -3.25,0.35 -5.75,0.25 -6.57,1.58 0.91,1.49 0.70,4.46 0.81,11.30 1.43,6.52 4.42,15.34 7.00,21.25 1.10,2.50 3.11,6.19 4.78,8.73 0.81,1.23 1.07,1.84 1.07,2.47 0,0.61 0.76,2.44 -2.89,6.92 -4.83,10.17 -6.37,13.67 -7.34,17.63 0.82,3.32 -1.17,6.38 -1.07,9.31 0.07,2.03 0.16,2.51 0.70,3.59 0.97,1.97 3.29,3.73 5.84,4.55 0.72,0.23 2.20,0.51 3.36,0.63 0.14,0.01 1.03,0.08 1.98,0.21 z"/><path style="fill:#fff" d="m 82.80,140.79 c 2.83,0.38 4.82,-1.51 5.91,-3.36 0.32,0.54 0.99,-2.71 1.63,-5.28 4.82,-19.28 12.57,-36.33 24.23,-53.27 8.71,-12.66 10.09,-14.80 10.34,-16.02 0.49,-2.34 0.93,-5.11 -4.15,-8.12 -2.91,-2.72 -6.24,-4.13 -8.59,-3.65 -1.83,0.38 -2.95,1.65 -5.73,6.55 -2.23,3.93 -8.14,14.00 -12.61,21.52 -1.21,2.03 -2.28,3.60 -2.37,3.50 0.20,0.21 -1.25,-4.25 -3.41,-14.00 0.80,-3.60 -1.64,-7.07 -1.86,-7.70 -1.46,-4.13 -6.01,-7.39 -11.07,-7.94 -3.25,0.35 -5.75,0.25 -6.57,1.58 0.91,1.49 0.70,4.46 0.81,11.30 1.43,6.52 4.42,15.34 7.00,21.25 1.10,2.50 3.11,6.19 4.78,8.73 0.81,1.23 1.07,1.84 1.07,2.47 0,0.61 0.76,2.44 -2.89,6.92 -4.83,10.17 -6.37,13.67 -7.34,17.63 0.82,3.32 -1.17,6.38 -1.07,9.31 0.07,2.03 0.16,2.51 0.70,3.59 0.97,1.97 3.29,3.73 5.84,4.55 0.72,0.23 2.20,0.51 3.36,0.63 0.14,0.01 1.03,0.08 1.98,0.21 z"/></svg>