<?xml version='1.0' encoding='utf-8'?>
<svg xmlns="http://www.w3.org/2000/svg" width="192" height="192" version="1" id="svg14">
  <defs>
    <filter style="color-interpolation-filters:sRGB" id="filter844" x="-0.048000001" width="1.096" y="-0.048000001" height="1.096">
      <feGaussianBlur stdDeviation="3.2"/>
    </filter>
    <filter style="color-interpolation-filters:sRGB" id="filter879" x="-0.023999999" width="1.048" y="-0.023999999" height="1.048">
      <feGaussianBlur stdDeviation="1.04"/>
    </filter>
  </defs>
  <path style="filter:url(#filter844);opacity:0.2;fill:#000000" d="M 96,20 C 51.68,20 16,55.68 16,100 16,144.32 51.68,180 96,180 140.32,180 176,144.32 176,100 176,55.68 140.32,20 96,20 Z"/>
  <path d="M 96,16 C 51.68,16 16,51.68 16,96 16,140.32 51.68,176 96,176 140.32,176 176,140.32 176,96 176,51.68 140.32,16 96,16 Z" style="fill:#e4e4e4"/>
  <path d="M 96,46 A 52,52 0 0 0 44,98 52,52 0 0 0 96,150 52,52 0 0 0 148,98 52,52 0 0 0 146.98047,87.785156 L 135.92969,96.027344 A 40,40 0 0 1 136,98 40,40 0 0 1 96,138 40,40 0 0 1 56,98 40,40 0 0 1 96,58 40,40 0 0 1 117.90039,64.566406 L 127.99805,57.033203 A 52,52 0 0 0 96,46 Z M 135.91602,66.207031 95.326172,96.130859 76,84.123047 V 99.052734 L 95.326172,111 142.0625,76.546875 C 140.41486,72.870834 138.35347,69.400765 135.91602,66.207031 Z" style="filter:url(#filter879);opacity:0.1;fill:#000000"/>
  <path style="fill:#10b12d" d="M 96 44 A 52 52 0 0 0 44 96 A 52 52 0 0 0 96 148 A 52 52 0 0 0 148 96 A 52 52 0 0 0 146.98047 85.785156 L 135.92969 94.027344 A 40 40 0 0 1 136 96 A 40 40 0 0 1 96 136 A 40 40 0 0 1 56 96 A 40 40 0 0 1 96 56 A 40 40 0 0 1 117.90039 62.566406 L 127.99805 55.033203 A 52 52 0 0 0 96 44 z M 135.91602 64.207031 L 95.326172 94.130859 L 76 82.123047 L 76 97.052734 L 95.326172 109 L 142.0625 74.546875 C 140.41486 70.870834 138.35347 67.400765 135.91602 64.207031 z "/>
  <path style="opacity:0.2;fill:#ffffff" d="M 96 16 C 51.68 16 16 51.68 16 96 C 16 96.167244 16.004845 96.333003 16.005859 96.5 C 16.273741 52.412589 51.847244 17 96 17 C 140.15276 17 175.72626 52.412589 175.99414 96.5 C 175.99516 96.333003 176 96.167244 176 96 C 176 51.68 140.32 16 96 16 z "/>
</svg>
