<?xml version='1.0' encoding='utf-8'?>
<svg xmlns="http://www.w3.org/2000/svg" width="192" height="192" version="1" id="svg28">
  <defs>
    <filter style="color-interpolation-filters:sRGB" id="filter5109" x="0.05" y="0.11" width="1.09" height="1.21">
      <feGaussianBlur stdDeviation="3.28"/>
    </filter>
    <filter style="color-interpolation-filters:sRGB" id="filter1624" x="0.05" y="0.05" width="1.10" height="1.10">
      <feGaussianBlur stdDeviation="1.60"/>
    </filter>
  </defs>
  <rect transform="matrix(0,-1,-1,0,0,0)" ry="10.50" rx="10.50" y="-166" x="-166" height="140" width="140" style="fill:#3981eb"/>
  <path style="opacity:0.10;fill:#ffffff" d="M 36.50,26 C 30.68,26 26,30.68 26,36.50 v 1 C 26,31.68 30.68,27 36.50,27 h 119 c 5.82,0 10.50,4.68 10.50,10.50 v -1 C 166,30.68 161.32,26 155.50,26 Z"/>
  <path style="filter:url(#filter5109);opacity:0.20;fill:#000000;stop-color:#000000" d="m 96,106.08 c -20.32,0 -84,9.54 -84,43.92 v 14.71 C 12,173.18 19.05,180 27.81,180 H 96 164.19 C 172.95,180 180,173.18 180,164.71 V 150 c 0,-34.38 -63.68,-43.92 -84,-43.92 z"/>
  <path style="fill:#1ecc56;stop-color:#000000" d="m 96,102.08 c -20.32,0 -84,9.54 -84,43.92 v 14.71 C 12,169.18 19.05,176 27.81,176 H 96 164.19 C 172.95,176 180,169.18 180,160.71 V 146 c 0,-34.38 -63.68,-43.92 -84,-43.92 z"/>
  <path style="opacity:0.20;fill:#ffffff;stop-color:#000000" d="m 96,102.08 c -20.32,0 -84,9.54 -84,43.92 v 1 c 0,-34.38 63.68,-43.92 84,-43.92 20.32,0 84,9.54 84,43.92 v -1 c 0,-34.38 -63.68,-43.92 -84,-43.92 z"/>
  <path style="filter:url(#filter1624);opacity:0.20;fill:#000000" d="M 85.93,65.03 85.04,75.53 a 31.72,31.42 0 0 0 -9.27,5.32 l -9.66,-4.52 -10.09,17.33 8.76,6.03 a 31.72,31.42 0 0 0 0.48,5.30 31.72,31.42 0 0 0 0.47,5.34 L 56,116.35 l 10.09,17.31 9.64,-4.50 a 31.72,31.42 0 0 0 9.29,5.29 l 0.88,10.56 h 20.19 l 0.90,-10.53 a 31.72,31.42 0 0 0 9.26,-5.31 l 9.66,4.50 L 136,116.35 l -8.76,-6.04 a 31.72,31.42 0 0 0 0.48,-5.30 31.72,31.42 0 0 0 0.47,-5.33 L 136,93.68 125.92,76.35 l -9.65,4.50 a 31.72,31.42 0 0 0 -9.29,-5.27 l 0.88,-10.56 z M 96,91.01 a 14.00,14.00 0 0 1 14,14.00 14.00,14.00 0 0 1 -14,14 14.00,14.00 0 0 1 -14,-14 14.00,14.00 0 0 1 14,-14.00 z"/>
  <path style="fill:#ffffff" d="m 85.93,63.03 0.88,10.51 a 31.72,31.42 0 0 0 -9.27,5.32 l -9.66,-4.52 -10.09,17.33 8.76,6.03 a 31.72,31.42 0 0 0 0.48,5.30 31.72,31.42 0 0 0 0.47,5.34 L 56,114.35 l 10.09,17.31 9.64,-4.50 a 31.72,31.42 0 0 0 9.29,5.29 L 85.90,143 h 20.19 l 0.90,-10.53 a 31.72,31.42 0 0 0 9.26,-5.31 l 9.66,4.50 L 136,114.35 l -8.76,-6.04 a 31.72,31.42 0 0 0 0.48,-5.30 31.72,31.42 0 0 0 0.47,-5.33 l 8.75,-6 -10.08,-17.33 -9.65,4.50 a 31.72,31.42 0 0 0 -9.29,-5.27 l 0.88,-10.56 z M 96,89.01 a 14.00,14.00 0 0 1 14,14.00 14.00,14.00 0 0 1 -14,14 14.00,14.00 0 0 1 -14,-14 14.00,14.00 0 0 1 14,-14.00 z"/>
  <path style="fill:#ffffff" d="m 85.93,63.00 0.01,0.03 h 0.01 z"/>
</svg>
