<?xml version='1.0' encoding='utf-8'?>
<svg xmlns="http://www.w3.org/2000/svg" width="192" height="192" version="1.1" id="svg12">
  <defs>
    <filter style="color-interpolation-filters:sRGB" id="filter845" x="0.05" y="0.05" width="1.10" height="1.10">
      <feGaussianBlur stdDeviation="3.20"/>
    </filter>
    <filter style="color-interpolation-filters:sRGB" id="filter4748" x="0.06" y="0.04" width="1.12" height="1.08">
      <feGaussianBlur stdDeviation="1.58"/>
    </filter>
    <filter style="color-interpolation-filters:sRGB" id="filter5098" x="0.03" y="0.03" width="1.05" height="1.06">
      <feGaussianBlur stdDeviation="1.54"/>
    </filter>
    <filter style="color-interpolation-filters:sRGB" id="filter5102" x="0.04" y="0.04" width="1.07" height="1.08">
      <feGaussianBlur stdDeviation="1.54"/>
    </filter>
  </defs>
  <circle style="filter:url(#filter845);opacity:0.20" cx="96" cy="100" r="80"/>
  <path style="fill:#e403d1" d="m 163.00,111.88 c 0,20.98 4.93,24.19 -8.28,38.46 C 140.10,166.12 119.20,176 96,176 51.82,176 16,140.18 16,96 16,78.09 21.89,61.55 31.83,48.22 46.41,28.66 66.57,28.01 92.84,28.01 c 44.18,0 70.15,39.69 70.15,83.87 z"/>
  <path style="filter:url(#filter5098);opacity:0.20;fill:#000000" d="m 95.68,29.48 c -8.14,0.02 -12.27,1.68 -19.85,4.06 C 59.37,38.69 41.26,37.24 31.02,51.65 39.03,110.37 89.17,154.16 148.43,154.19 c 1.52,0.08 3.04,0.19 4.56,0.33 10.15,-10.30 -4.32,-12.90 0.89,-26.71 1.53,-6.16 13.61,-27.01 13.63,-33.46 0,-44.18 -25.87,-64.21 -70.05,-64.21 z"/>
  <path style="fill:#664bdd" d="M 95.68,27.48 C 87.54,27.50 79.89,17.28 72.31,19.66 55.84,24.82 41.26,35.24 31.02,49.65 39.03,108.37 89.17,152.16 148.43,152.19 c 1.52,0.08 3.04,0.19 4.56,0.33 10.15,-10.30 17.23,-23.07 20.66,-36.88 1.53,-6.16 -7.94,-16.84 -7.92,-23.29 0,-44.18 -25.87,-64.21 -70.05,-64.21 z"/>
  <path style="filter:url(#filter5102);opacity:0.20;fill:#000000" d="m 95.68,27.48 c -9.61,0.07 -18.80,-7.61 -27.77,-4.17 9.77,51.83 52.61,90.98 105.11,96.05 1.95,-6.95 -7.15,-11.13 -7.12,-18.35 0,-44.18 -26.03,-73.53 -70.22,-73.53 z"/>
  <path style="fill:#11e1dc" d="M 96,16 A 80,80 0 0 0 67.91,21.31 118.56,118.56 0 0 0 173.02,117.36 80,80 0 0 0 176,96 80,80 0 0 0 96,16 Z"/>
  <path style="opacity:0.20;fill:#ffffff" d="M 96,16.00 A 80.00,79.99 0 0 0 16,95.99 80.00,79.99 0 0 0 16.02,96.63 80.00,79.99 0 0 1 96,17 80.00,79.99 0 0 1 175.98,96.29 80.00,79.99 0 0 0 176,95.99 80.00,79.99 0 0 0 96,16.00 Z"/>
  <path style="filter:url(#filter4748);opacity:0.20;fill:#000000;stop-color:#000000" d="M 96,52 A 33,33 0 0 0 63,85 v 59 H 76 V 111.15 A 33,33 0 0 0 96,118 33,33 0 0 0 129,85 33,33 0 0 0 96,52 Z m 0,13 A 20,20 0 0 1 116,85 20,20 0 0 1 96,105 20,20 0 0 1 76,85 20,20 0 0 1 96,65 Z"/>
  <path style="fill:#ffffff;stop-color:#000000" d="M 96,50 A 33,33 0 0 0 63,83 v 59 H 76 V 109.15 A 33,33 0 0 0 96,116 33,33 0 0 0 129,83 33,33 0 0 0 96,50 Z m 0,13 A 20,20 0 0 1 116,83 20,20 0 0 1 96,103 20,20 0 0 1 76,83 20,20 0 0 1 96,63 Z"/>
</svg>
