<?xml version='1.0' encoding='utf-8'?>
<svg xmlns="http://www.w3.org/2000/svg" width="192" height="192" version="1" id="svg14">
  <defs>
    <filter style="color-interpolation-filters:sRGB" id="filter854" x="-0.050666667" width="1.1013333" y="-0.0456" height="1.0912">
      <feGaussianBlur stdDeviation="3.0400002"/>
    </filter>
    <filter style="color-interpolation-filters:sRGB" id="filter889" x="-0.024249346" width="1.0484987" y="-0.023755731" height="1.0475115">
      <feGaussianBlur stdDeviation="0.79185317"/>
    </filter>
  </defs>
  <path d="M 37.033338,20.003375 A 12.737759,12.554905 0 0 0 23.999998,32.553479 V 167.45433 a 12.737759,12.554905 0 0 0 19.10647,10.86373 l 59.264492,-33.71922 59.26073,-33.7232 a 12.737759,12.554905 0 0 0 0,-21.745094 L 102.37096,55.40334 43.106468,21.680936 a 12.737759,12.554905 0 0 0 -6.07352,-1.677561 z" style="filter:url(#filter854);opacity:0.2;fill:#000000"/>
  <path style="fill:#f65b72" d="M 37.033338,16.003379 A 12.737759,12.554905 0 0 0 23.999998,28.553483 V 163.45433 a 12.737759,12.554905 0 0 0 19.10647,10.86373 l 59.264492,-33.71922 59.26073,-33.7232 a 12.737759,12.554905 0 0 0 0,-21.74509 L 102.37096,51.403344 43.106468,17.68094 a 12.737759,12.554905 0 0 0 -6.07352,-1.677561 z"/>
  <path style="fill:#4cbac0" d="m 101.83203,51.097656 z m 0.002,89.806644 z M 102,51.193359 v 89.617191 l 0.37109,-0.21094 59.25977,-33.72461 c 8.48997,-4.83274 8.48997,-16.911402 0,-21.744141 L 102.37109,51.404297 Z"/>
  <path style="fill:#aa69cb" d="m 24.000004,96.038828 78.046916,-45.060411 0,90.120813 z" transform="matrix(0.99939886,0,0,0.99865941,0.01442355,0.08992391)"/>
  <path style="filter:url(#filter889);opacity:0.1;fill:#000000" d="M 37.033203,18.003906 C 29.885663,17.840459 24.001537,23.505904 24,30.552734 V 98 L 101.83203,53.097656 43.107422,19.681641 C 41.257427,18.62926 39.168635,18.052323 37.033203,18.003906 Z M 24,98 Z m 78,-44.806641 0.37109,0.210938 z"/>
  <path d="M 37.033203,16.003906 C 29.885663,15.840459 24.001537,21.505904 24,28.552734 V 96 L 101.83203,51.097656 43.107422,17.681641 C 41.257427,16.62926 39.168635,16.052323 37.033203,16.003906 Z M 24,96 Z m 78,-44.806641 0.37109,0.210938 z" style="fill:#ffb23d"/>
  <path style="opacity:0.2;fill:#ffffff" d="M 37.033203,16.003906 A 12.737759,12.554905 0 0 0 24,28.552734 v 1 a 12.737759,12.554905 0 0 1 13.033203,-12.548828 12.737759,12.554905 0 0 1 6.074219,1.677735 l 59.263668,33.722656 59.25977,33.726562 a 12.737759,12.554905 0 0 1 6.35156,10.496094 12.737759,12.554905 0 0 0 -6.35156,-11.496094 L 102.37109,51.404297 43.107422,17.681641 a 12.737759,12.554905 0 0 0 -6.074219,-1.677735 z"/>
  <path style="opacity:0.2;fill:#ffffff" d="M 24.867188,96.5 24,97 l 78,45 v -1 z"/>
</svg>
