<?xml version='1.0' encoding='utf-8'?>
<svg xmlns="http://www.w3.org/2000/svg" width="192" height="192" version="1" id="svg16">
  <defs>
    <filter style="color-interpolation-filters:sRGB" id="filter855" x="0.05" width="1.10" y="0.05" height="1.10">
      <feGaussianBlur stdDeviation="3.20"/>
    </filter>
    <filter style="color-interpolation-filters:sRGB" id="filter851" x="0.04" width="1.08" y="0.06" height="1.13">
      <feGaussianBlur stdDeviation="1.30"/>
    </filter>
  </defs>
  <g transform="matrix(6.67,0,0,6.86,42.67,42.14)" style="fill:#000000;enable-background:new">
    <g style="fill:#000000" transform="translate(-347,251)"/>
  </g>
  <rect width="160" height="160" x="-180" y="-176" rx="80" ry="80" transform="matrix(0,-1,-1,0,0,0)" style="filter:url(#filter855);opacity:0.20;fill:#000000"/>
  <rect style="fill:#587de6" transform="matrix(0,-1,-1,0,0,0)" ry="80" rx="80" y="-176" x="-176" height="160" width="160"/>
  <path style="opacity:0.50" d="m 96.00,48.00 c -16,0 -28,8.00 -28,28.00 v 12.00 h -5.33 c -3.69,0 -6.67,3.00 -6.67,6.80 v 42.34 c 0,3.80 2.97,6.86 6.67,6.86 h 66.67 c 3.69,0 6.67,-3.06 6.67,-6.86 V 94.80 c 0,-3.80 -2.97,-6.80 -6.67,-6.80 h -5.33 v -12.00 c 0,-19.95 -12,-27.98 -28.00,-27.98 z m 0,12.00 c 8.00,0 16.00,4.00 16.00,16.00 v 12.00 H 80.00 v -12.00 c 0,-12.00 8,-16.00 16,-16.00 z"/>
  <path style="filter:url(#filter851);opacity:0.20" d="m 96.00,48.00 c -16,0 -28,8.00 -28,28 v 2 c 0,-20.00 12,-28 28,-28 v 0.02 c 16.00,0 28.00,8.02 28.00,27.98 v -2.00 c 0,-19.95 -12,-27.98 -28.00,-27.98 z M 62.67,88.00 c -3.69,0 -6.67,3.00 -6.67,6.80 v 2 c 0,-3.80 2.97,-6.80 6.67,-6.80 h 5.33 v -2 z m 17.33,0 v 2 h 32.00 v -2 z m 44.00,0 v 2 h 5.33 c 3.69,0 6.67,3.00 6.67,6.80 v -2 c 0,-3.80 -3.04,-7.48 -6.67,-6.80 z"/>
  <path style="opacity:0.20;fill:#ffffff" d="m 96,16 c -44.32,0 -80,35.68 -80,80 0,0.17 0.00,0.33 0.01,0.50 C 16.27,52.41 51.85,17 96,17 140.15,17 175.73,52.41 175.99,96.50 176.00,96.33 176,96.17 176,96 176,51.68 140.32,16 96,16 Z"/>
  <path style="opacity:0.10;fill:#ffffff" d="m 96.00,60.00 c -8,0 -16,4.00 -16,16 v 1 c 0,-12.00 8,-16 16,-16 8.00,0 16.00,4.00 16.00,16 v -1 c 0,-12.00 -8,-16 -16.00,-16 z m -40,77.14 v 1 c 0,3.80 2.97,6.86 6.67,6.86 h 66.67 c 3.69,0 6.67,-3.06 6.67,-6.86 v -1 c 0,3.80 -2.97,6.86 -6.67,6.86 H 62.67 c -3.69,0 -6.67,-3.06 -6.67,-6.86 z"/>
  <g transform="matrix(6.67,0,0,6.86,42.67,40.14)" style="fill:#ffffff;enable-background:new">
    <g style="fill:#ffffff" transform="translate(-347,251)"/>
  </g>
</svg>
