<?xml version='1.0' encoding='utf-8'?>
<svg xmlns="http://www.w3.org/2000/svg" width="192" height="192" version="1" id="svg28">
  <defs>
    <filter style="color-interpolation-filters:sRGB" id="filter6495" x="0.05" y="0.05" width="1.10" height="1.10">
      <feGaussianBlur stdDeviation="3.20"/>
    </filter>
    <filter style="color-interpolation-filters:sRGB" id="filter6912" x="0.07" y="0.08" width="1.14" height="1.16">
      <feGaussianBlur stdDeviation="4.78"/>
    </filter>
  </defs>
  <rect transform="matrix(0,-1,-1,0,0,0)" ry="12" rx="12" y="-176" x="-180" height="160" width="160" style="filter:url(#filter6495);opacity:0.20;fill:#000000"/>
  <path style="fill:#e4e4e4" transform="matrix(0,-1,-1,0,0,0)" d="M -158.89,-164.75 -106.59,-176 H -28 c 6.65,0 12,5.35 12,12 v 136 c 0,6.65 -5.35,12 -12,12 h -78.01 l -50.22,-10.73 c -6.50,-1.39 -7.94,-3.75 -10.05,-10.05 L -176,-65.78 v -38.36 l 14.76,-45.59 c 2.05,-6.32 -4.15,-13.63 2.35,-15.03 z"/>
  <path style="opacity:0.20;fill:#ffffff" d="m 28,16 c -6.65,0 -12,5.35 -12,12 v 1 c 0,-6.65 5.35,-12 12,-12 h 136 c 6.65,0 12,5.35 12,12 v -1 c 0,-6.65 -5.35,-12 -12,-12 z"/>
  <path style="filter:url(#filter6912);opacity:0.20;fill:#000000" d="M 96,32 72.50,48.50 49,65 h 13 v 42 H 16 l 17.70,46.16 c 2.38,6.21 8.23,-4.23 12.58,0.79 L 67.13,178 100.99,135.55 84.12,125.62 130,80.15 V 65 h 13 L 119.50,48.50 Z M 76,68 h 27 V 91 H 76 Z m 54,20.34 -25.99,33.18 24.55,9.88 L 101.58,178 142.93,153.40 c 5.71,-3.40 6.83,-1.65 10.19,-7.38 L 176,107 h -46 z"/>
  <path style="fill:#e2214f" d="M 96 30 L 72.50 46.50 L 49 63 L 62 63 L 62 105 L 16 105 L 16 164 C 16 170.65 21.35 176 28 176 L 67.13 176 L 100.99 133.55 L 84.12 123.62 L 130 78.15 L 130 63 L 143 63 L 119.50 46.50 L 96 30 z M 76 66 L 103 66 L 103 89 L 76 89 L 76 66 z M 130 86.34 L 104.01 119.52 L 128.56 129.39 L 101.58 176 L 164 176 C 170.65 176 176 170.65 176 164 L 176 105 L 130 105 L 130 86.34 z "/>
</svg>
