<svg xmlns="http://www.w3.org/2000/svg" id="svg12" width="192" height="192" version="1"><defs><filter style="color-interpolation-filters:sRGB" id="filter860" width="1.1" height="1.1" x=".05" y=".05"><feGaussianBlur stdDeviation="3.2"/></filter><filter style="color-interpolation-filters:sRGB" id="filter885" width="1.11" height="1.09" x=".05" y=".04"><feGaussianBlur stdDeviation="2.05"/></filter></defs><rect style="filter:url(#filter860);opacity:.2" width="160" height="160" x="16" y="20" rx="8" ry="8"/><rect style="fill:#ffc800" width="160" height="160" x="16" y="16" rx="8" ry="8"/><path style="filter:url(#filter885);opacity:.2;fill:#000" d="m 66,42 v 16 h 36 a 8.00,8.00 0 0 0 0.23,0.00 c 0,0 4.94,0.02 9.50,2.03 C 116.30,62.06 120,64.43 120,74 c 0,9.57 -3.98,12.71 -8.71,15.20 -4.69,2.46 -9.51,2.80 -9.61,2.80 H 82 v 16 h 20 a 8.00,8.00 0 0 0 0.38,0.01 c 0,0 0.53,0.03 1.21,0.10 1.60,0.38 3.31,0.93 4.60,1.69 7.81,3.83 8.95,11.12 9.45,17.97 0.45,6.40 0.56,14.02 1.68,21.37 0.45,2.95 1.39,4.62 2.13,6.09 0.20,0.39 0.35,0.65 0.53,0.98 h 18.69 l -4.15,-6.78 c 0.01,0.01 0.02,0.03 0.03,0.04 0,0 0.35,0.57 0.76,-1.38 0.41,0.81 0.71,-1.98 0.60,-1.31 -1.41,-9.17 1.49,-25.00 -5.79,-38.68 -1.66,-3.12 -3.81,-5.47 -6.10,-7.37 C 129.96,95.26 136,86.41 136,74 c 0,-15.18 -9.30,-24.81 -17.73,-28.58 -8.43,-3.77 -16.50,-3.41 -16.50,-3.41 L 102,42 Z m 16,66 H 66 v 16 H 82 Z M 66,124 H 50 v 16 h 16 z m 0,16 v 16 h 16 v -16 z m 0,-32 V 92 H 50 v 16 z M 66,92 H 82 V 76 H 66 Z M 66,76 V 60 H 50 v 16 z"/><path style="opacity:.2;fill:#fff" d="m 24,16 c -4.43,0 -8,3.57 -8,8 v 1 c 0,-4.43 3.57,-8 8,-8 h 144 c 4.43,0 8,3.57 8,8 v -1 c 0,-4.43 -3.57,-8 -8,-8 z"/><path style="fill:#fff" d="M 50,58 V 74 H 66 V 58 Z M 66,74 V 90 H 82 V 74 Z m 0,16 H 50 v 16 h 16 z m 0,16 v 16 h 16 v -16 z m 0,16 H 50 v 16 h 16 z m 0,16 v 16 h 16 v -16 z"/><path style="fill:none;stroke:#fff;stroke-width:16;stroke-linejoin:round" d="m 66,48 h 36 c 0,0 26,0.75 26,24 0,24.75 -26,26 -26,26 H 82"/><path style="fill:#fff;color:#000;font-stretch:normal;font-variant-ligatures:normal;font-variant-position:normal;font-variant-caps:normal;font-variant-numeric:normal;font-variant-alternates:normal;font-feature-settings:normal;text-indent:0;text-align:start;text-decoration-line:none;text-decoration-style:solid;text-decoration-color:#000;text-transform:none;writing-mode:lr-tb;direction:ltr;text-orientation:mixed;dominant-baseline:auto;baseline-shift:baseline;white-space:normal;shape-padding:0;clip-rule:nonzero;display:inline;overflow:visible;visibility:visible;isolation:auto;mix-blend-mode:normal;color-interpolation:sRGB;color-interpolation-filters:linearRGB;solid-color:#000;solid-opacity:1;vector-effect:none;fill-rule:nonzero;color-rendering:auto;image-rendering:auto;shape-rendering:auto;text-rendering:auto;enable-background:accumulate" d="m 100,92 -5.46,9.31 4.24,3.77 c 0,0 6.07,0.53 9.41,2.50 7.81,3.83 8.95,11.12 9.45,17.97 0.45,6.40 0.55,14.02 1.68,21.37 0.45,2.95 1.39,4.62 2.13,6.09 0.20,0.39 0.35,0.65 0.53,0.98 h 18.69 l -4.15,-6.78 c 0.01,0.01 0.02,0.03 0.03,0.04 0,0 0.35,0.57 0.76,-1.38 0.41,0.81 0.71,-1.98 0.60,-1.31 -1.41,-9.17 1.49,-25.00 -5.79,-38.68 -3.34,-6.27 -8.63,-9.42 -13.02,-12.01 -4.38,-2.59 -8.25,-4.19 -8.25,-4.19 z"/></svg>