<?xml version='1.0' encoding='utf-8'?>
<svg xmlns="http://www.w3.org/2000/svg" width="192" height="192" version="1" id="svg28">
  <defs>
    <filter style="color-interpolation-filters:sRGB" id="filter18509" x="-0.042965034" y="-0.05437168" width="1.0859301" height="1.1087434">
      <feGaussianBlur stdDeviation="2.56"/>
    </filter>
    <filter style="color-interpolation-filters:sRGB" id="filter18513" x="-0.042965034" y="-0.05437168" width="1.0859301" height="1.1087434">
      <feGaussianBlur stdDeviation="2.56"/>
    </filter>
    <filter style="color-interpolation-filters:sRGB" id="filter18773" x="-0.075227935" y="-0.074773437" width="1.1504559" height="1.1495469">
      <feGaussianBlur stdDeviation="2.33667"/>
    </filter>
  </defs>
  <path style="filter:url(#filter18509);opacity:0.2;fill:#000000" d="m 185,33.999999 -19,19 V 135 c 0,6.648 -5.352,12 -12,12 H 54 c -6.648,0 -12,-5.352 -12,-12 V 45.999999 c 0,-6.648 5.352,-12 12,-12 h 83 17 z"/>
  <path style="fill:#cfd8dc" d="m 185,30.999999 -19,19 V 132 c 0,6.648 -5.352,12 -12,12 H 54 c -6.648,0 -12,-5.352 -12,-12 V 42.999999 c 0,-6.648 5.352,-12 12,-12 h 83 17 z"/>
  <path style="filter:url(#filter18513);opacity:0.2;fill:#000000" d="m 6,50 19,19 v 82 c 0,6.648 5.352,12 12,12 h 100 c 6.648,0 12,-5.352 12,-12 V 62 c 0,-6.648 -5.352,-12 -12,-12 H 54 37 Z"/>
  <path style="fill:#485dd4" d="M 6 47 L 25 66 L 25 148 C 25 154.648 30.352 160 37 160 L 137 160 C 143.648 160 149 154.648 149 148 L 149 59 C 149 52.352 143.648 47 137 47 L 54 47 L 37 47 L 6 47 z "/>
  <path style="filter:url(#filter18773);opacity:0.2;fill:#000000" d="M 71.589844,68 67.59375,86 H 55.873047 l -2.220703,10 h 11.720703 l -3.996094,18 H 49.65625 L 47.4375,124 H 59.158203 L 55,143 h 10 l 4.158203,-19 h 22.505859 l -4.158203,19 h 10 l 4.158201,-19 h 11.88477 l 2.21875,-10 h -11.88477 l 3.9961,-18 h 11.88476 l 2.22071,-10 h -11.88672 l 3.99609,-18 h -10 l -3.99609,18 H 77.59375 l 3.996094,-18 z m 3.783203,28 h 22.505859 l -3.996094,18 H 71.376953 Z"/>
  <path style="fill:#ffffff" d="M 71.589844,66 67.59375,84 H 55.873047 l -2.220703,10 h 11.720703 l -3.996094,18 H 49.65625 L 47.4375,122 H 59.158203 L 55,141 h 10 l 4.158203,-19 h 22.505859 l -4.158203,19 h 10 l 4.158201,-19 h 11.88477 l 2.21875,-10 h -11.88477 l 3.9961,-18 h 11.88476 l 2.22071,-10 h -11.88672 l 3.99609,-18 h -10 l -3.99609,18 H 77.59375 l 3.996094,-18 z m 3.783203,28 h 22.505859 l -3.996094,18 H 71.376953 Z"/>
  <path style="opacity:0.2;fill:#ffffff" d="M 54 31 C 47.352 31 42 36.352 42 43 L 42 44 C 42 37.352 47.352 32 54 32 L 137 32 L 154 32 L 184 32 L 185 31 L 154 31 L 137 31 L 54 31 z "/>
</svg>
