<?xml version='1.0' encoding='utf-8'?>
<svg xmlns="http://www.w3.org/2000/svg" width="192" height="192" version="1" id="svg16">
  <defs>
    <filter style="color-interpolation-filters:sRGB" id="filter1677" x="0.06" y="0.09" width="1.13" height="1.18">
      <feGaussianBlur stdDeviation="3.17"/>
    </filter>
    <filter style="color-interpolation-filters:sRGB" id="filter1681" x="0.06" y="0.10" width="1.12" height="1.21">
      <feGaussianBlur stdDeviation="3.39"/>
    </filter>
  </defs>
  <path style="filter:url(#filter1677);opacity:0.20;fill:#000000" d="m 91.22,175.16 c -3.89,-3.62 -4.28,-3.87 -6.82,-4.35 -1.48,0.28 -4.94,-1.20 -7.68,-2.04 -18.21,-5.61 -30.88,-17.88 -36.84,-35.67 -3.15,-9.40 -4.54,-21.65 -3.59,-31.70 l 0.28,-5.40 h 59.45 59.45 l 0.30,3.67 c 0.18,2.26 0.30,15.35 0.38,19.89 -2.22,14.73 -7.57,26.08 -16.52,34.98 -7.74,7.70 -16.59,12.49 -29.15,15.77 l -4.91,1.28 -3.84,3.70 c -2.26,2.18 -4.21,3.70 -4.73,3.70 0.51,0 -2.61,-1.61 -5.01,-3.84 z"/>
  <path style="fill:#bceaa3" d="m 91.22,172.16 c -3.89,-3.62 -4.28,-3.87 -6.82,-4.35 -1.48,0.28 -4.94,-1.20 -7.68,-2.04 -18.21,-5.61 -30.88,-17.88 -36.84,-35.67 -3.15,-9.40 -4.54,-21.65 -3.59,-31.70 L 36.57,93 h 59.45 59.45 l 0.30,3.67 c 0.18,2.26 0.30,15.35 0.38,19.89 -2.22,14.73 -7.57,26.08 -16.52,34.98 -7.74,7.70 -16.59,12.49 -29.15,15.77 l -4.91,1.28 -3.84,3.70 C 98.69,174.48 96.75,176 96.23,176 c 0.51,0 -2.61,-1.61 -5.01,-3.84 z"/>
  <path style="filter:url(#filter1681);opacity:0.20;fill:#000000" d="M 31.11,97.22 C 25.59,94.46 25.64,79.83 31.20,68.80 39.49,52.35 57.60,41.58 80.36,39.03 c 6.96,0.78 7.37,-1.08 8.05,-3.63 0.32,-1.19 0.58,-3.24 0.59,-5.30 0.01,-4.06 -1.06,-6.54 -2.96,-9.39 L 84.90,19 86.90,19.22 c 3.04,0.34 7.30,2.55 10.37,5.37 2.99,2.75 6.94,7.71 8.67,11.58 l 1.08,2.73 3.24,0.31 c 15.33,1.48 30.65,7.45 40.23,16.18 6.35,5.78 11.74,14.73 13.62,22.63 1.35,5.66 1.13,13.11 0.48,16.25 -2.09,4.08 4.39,3.72 -67.58,3.72 -59.49,0 -63.50,0.05 -64.93,0.77 z"/>
  <path style="fill:#53b124" d="M 31.11,94.22 C 25.59,91.46 25.64,76.83 31.20,65.80 39.49,49.35 57.60,38.58 80.36,36.03 c 6.96,0.78 7.37,-1.08 8.05,-3.63 0.32,-1.19 0.58,-3.24 0.59,-5.30 0.01,-4.06 -1.06,-6.54 -2.96,-9.39 L 84.90,16 86.90,16.22 c 3.04,0.34 7.30,2.55 10.37,5.37 2.99,2.75 6.94,7.71 8.67,11.58 l 1.08,2.73 3.24,0.31 c 15.33,1.48 30.65,7.45 40.23,16.18 6.35,5.78 11.74,14.73 13.62,22.63 1.35,5.66 1.13,13.11 0.48,16.25 -2.09,4.08 4.39,3.72 -67.58,3.72 -59.49,0 -63.50,0.05 -64.93,0.77 z"/>
  <path style="opacity:0.20;fill:#ffffff" d="M 84.90 16 L 85.62 17.08 L 86.90 17.22 C 89.94 17.57 94.21 19.77 97.28 22.60 C 100.27 25.35 104.22 30.31 105.95 34.18 L 107.03 36.90 L 110.26 37.21 C 125.59 38.69 140.91 44.67 150.49 53.39 C 156.84 59.18 162.23 68.12 164.11 76.02 C 164.72 78.55 164.99 81.42 164.98 84.12 C 165.07 81.15 164.79 77.86 164.11 75.02 C 162.23 67.12 156.84 58.18 150.49 52.39 C 140.91 43.67 125.59 37.69 110.26 36.21 L 107.03 35.90 L 105.95 33.18 C 104.22 29.31 100.27 24.35 97.28 21.60 C 94.21 18.77 89.94 16.57 86.90 16.22 L 84.90 16 z M 88.98 27.58 C 88.93 29.47 88.70 31.30 88.40 32.40 C 87.73 34.94 87.31 35.25 80.36 36.03 C 57.60 38.58 39.49 49.35 31.20 65.80 C 28.32 71.50 26.93 78.16 27.02 83.65 C 27.11 78.36 28.50 72.16 31.20 66.80 C 39.49 50.35 57.60 39.58 80.36 37.03 C 87.31 36.25 87.73 35.94 88.40 33.40 C 88.72 32.21 88.98 30.15 88.99 28.10 C 88.99 27.92 88.98 27.76 88.98 27.58 z "/>
</svg>
