<?xml version='1.0' encoding='utf-8'?>
<svg xmlns="http://www.w3.org/2000/svg" width="192" height="192" version="1" id="svg14">
  <defs>
    <filter style="color-interpolation-filters:sRGB" id="filter860" x="-0.048000001" width="1.096" y="-0.048000001" height="1.096">
      <feGaussianBlur stdDeviation="3.2"/>
    </filter>
    <filter style="color-interpolation-filters:sRGB" id="filter881" x="-0.047999998" width="1.096" y="-0.047999998" height="1.096">
      <feGaussianBlur stdDeviation="2.08"/>
    </filter>
  </defs>
  <circle style="filter:url(#filter860);opacity:0.2;fill:#000000" cx="96" cy="100" r="80"/>
  <circle style="fill:#f0772b" cx="96" cy="96" r="80"/>
  <path d="m 96,48 a 52,52 0 0 0 -52,52 52,52 0 0 0 26,44.96094 V 100 A 26,26 0 0 1 90,74.734376 V 85.179688 A 16,16 0 0 0 80,100 a 16,16 0 0 0 16,16 16,16 0 0 0 14.82031,-10 h 10.44531 A 26,26 0 0 1 96,126 26,26 0 0 1 80,120.48438 v 28.92187 A 52,52 0 0 0 96,152 52,52 0 0 0 124,143.8125 V 152 h 24 V 100 A 52,52 0 0 0 96,48 Z m 0,12 a 40,40 0 0 1 40,40 h -8 A 32,32 0 0 0 96,68 Z m 0,14 a 26,26 0 0 1 26,26 H 112 A 16,16 0 0 0 96,84 Z m 0,16 a 10,10 0 0 1 10,10 10,10 0 0 1 -10,10 10,10 0 0 1 -10,-10 10,10 0 0 1 10,-10 z" style="filter:url(#filter881);opacity:0.2"/>
  <path d="M 96,44 A 52,52 0 0 0 44,96 52,52 0 0 0 70,140.96094 V 96 A 26,26 0 0 1 90,70.734376 V 81.179688 A 16,16 0 0 0 80,96 a 16,16 0 0 0 16,16 16,16 0 0 0 14.82031,-10 h 10.44531 A 26,26 0 0 1 96,122 26,26 0 0 1 80,116.48438 v 28.92187 A 52,52 0 0 0 96,148 52,52 0 0 0 124,139.8125 V 148 h 24 V 96 A 52,52 0 0 0 96,44 Z m 0,12 a 40,40 0 0 1 40,40 h -8 A 32,32 0 0 0 96,64 Z m 0,14 a 26,26 0 0 1 26,26 H 112 A 16,16 0 0 0 96,80 Z m 0,16 A 10,10 0 0 1 106,96 10,10 0 0 1 96,106 10,10 0 0 1 86,96 10,10 0 0 1 96,86 Z" style="fill:#ffffff"/>
  <path style="opacity:0.2;fill:#ffffff" d="M 95.941406 16 A 80 80 0 0 0 16 96 A 80 80 0 0 0 16.001953 96.529297 A 80 80 0 0 1 96 17 A 80 80 0 0 1 175.99805 96.470703 A 80 80 0 0 0 176 96 A 80 80 0 0 0 96 16 A 80 80 0 0 0 95.941406 16 z "/>
</svg>
