<?xml version='1.0' encoding='utf-8'?>
<svg xmlns="http://www.w3.org/2000/svg" width="192" height="192" version="1" id="svg30">
  <defs>
    <filter style="color-interpolation-filters:sRGB" id="filter880" x="0.04" width="1.08" y="0.06" height="1.12">
      <feGaussianBlur stdDeviation="2.19"/>
    </filter>
    <filter style="color-interpolation-filters:sRGB" id="filter900" x="0.06" width="1.12" y="0.04" height="1.08">
      <feGaussianBlur stdDeviation="2.31"/>
    </filter>
    <filter style="color-interpolation-filters:sRGB" id="filter931" x="0.03" width="1.07" y="0.09" height="1.17">
      <feGaussianBlur stdDeviation="1.00"/>
    </filter>
  </defs>
  <path d="m 40,92.75 c -4.43,0 -8,3.57 -8,8 v 40 c 0,4.43 3.57,8 8,8 4.43,0 8,-3.57 8,-8 v -40 c 0,-4.43 -3.57,-8 -8,-8 z m 112,0 c -4.43,0 -8,3.57 -8,8 v 40 c 0,4.43 3.57,8 8,8 4.43,0 8,-3.57 8,-8 v -40 c 0,-4.43 -3.57,-8 -8,-8 z M 80,128 c -4.43,0 -8,3.57 -8,8 v 40 c 0,4.43 3.57,8 8,8 4.43,0 8,-3.57 8,-8 v -40 c 0,-4.43 -3.57,-8 -8,-8 z m 32,0 c -4.43,0 -8,3.57 -8,8 v 40 c 0,4.43 3.57,8 8,8 4.43,0 8,-3.57 8,-8 v -40 c 0,-4.43 -3.57,-8 -8,-8 z" style="filter:url(#filter880);opacity:0.15"/>
  <path d="m 40,88.75 c -4.43,0 -8,3.57 -8,8 v 40 c 0,4.43 3.57,8 8,8 4.43,0 8,-3.57 8,-8 v -40 c 0,-4.43 -3.57,-8 -8,-8 z m 112,0 c -4.43,0 -8,3.57 -8,8 v 40 c 0,4.43 3.57,8 8,8 4.43,0 8,-3.57 8,-8 v -40 c 0,-4.43 -3.57,-8 -8,-8 z M 80,124 c -4.43,0 -8,3.57 -8,8 v 40 c 0,4.43 3.57,8 8,8 4.43,0 8,-3.57 8,-8 v -40 c 0,-4.43 -3.57,-8 -8,-8 z m 32,0 c -4.43,0 -8,3.57 -8,8 v 40 c 0,4.43 3.57,8 8,8 4.43,0 8,-3.57 8,-8 v -40 c 0,-4.43 -3.57,-8 -8,-8 z" style="fill:#1e808d"/>
  <path style="opacity:0.10;fill:#ffffff" d="M 40 88.75 C 35.57 88.75 32 92.32 32 96.75 L 32 97.75 C 32 93.32 35.57 89.75 40 89.75 C 44.43 89.75 48 93.32 48 97.75 L 48 96.75 C 48 92.32 44.43 88.75 40 88.75 z M 152 88.75 C 147.57 88.75 144 92.32 144 96.75 L 144 97.75 C 144 93.32 147.57 89.75 152 89.75 C 156.43 89.75 160 93.32 160 97.75 L 160 96.75 C 160 92.32 156.43 88.75 152 88.75 z M 80 124 C 75.57 124 72 127.57 72 132 L 72 133 C 72 128.57 75.57 125 80 125 C 84.43 125 88 128.57 88 133 L 88 132 C 88 127.57 84.43 124 80 124 z M 112 124 C 107.57 124 104 127.57 104 132 L 104 133 C 104 128.57 107.57 125 112 125 C 116.43 125 120 128.57 120 133 L 120 132 C 120 127.57 116.43 124 112 124 z "/>
  <path d="m 72.56,24.85 c 0.52,0.07 -1.05,0.04 -1.59,0.10 -2.14,0.57 -3.40,2.76 -2.83,4.90 L 73.20,48.71 C 48.02,60.80 48,92 48,92 v 50.93 C 48,152.38 55.14,160 64,160 h 8 16 16 16 8 c 8.86,0 16,-7.62 16,-17.07 V 92 c 0,0 0.02,-31.20 -25.20,-43.29 l 5.06,-18.86 c 0.57,-2.14 0.69,-4.32 -2.83,-4.90 -2.14,0.57 -4.32,0.69 -4.90,2.83 L 111.27,45.92 C 106.81,44.70 101.76,44 96,44 90.24,44 85.19,44.70 80.73,45.92 L 75.87,27.78 C 75.44,26.18 74.10,25.06 72.56,24.85 Z" style="filter:url(#filter900);opacity:0.20"/>
  <path d="m 72.56,20.85 c 0.52,0.07 -1.05,0.04 -1.59,0.10 -2.14,0.57 -3.40,2.76 -2.83,4.90 L 73.20,44.71 C 48.02,56.80 48,88 48,88 v 50.93 C 48,148.38 55.14,156 64,156 h 8 16 16 16 8 c 8.86,0 16,-7.62 16,-17.07 V 88 c 0,0 0.02,-31.20 -25.20,-43.29 l 5.06,-18.86 c 0.57,-2.14 0.69,-4.32 -2.83,-4.90 -2.14,0.57 -4.32,0.69 -4.90,2.83 L 111.27,41.92 C 106.81,40.70 101.76,40 96,40 90.24,40 85.19,40.70 80.73,41.92 L 75.87,23.78 C 75.44,22.18 74.10,21.06 72.56,20.85 Z" style="fill:#2dbbcf"/>
  <path style="filter:url(#filter931);opacity:0.10" d="M 72 66 A 4 4 0 0 0 68 70 A 4 4 0 0 0 72 74 A 4 4 0 0 0 76 70 A 4 4 0 0 0 72 66 z M 120 66 A 4 4 0 0 0 116 70 A 4 4 0 0 0 120 74 A 4 4 0 0 0 124 70 A 4 4 0 0 0 120 66 z M 130.12 81.98 A 2.00 2.00 0 0 0 129.01 82.26 C 129.01 82.26 115.47 90 96 90 C 76.53 90 62.99 82.26 62.99 82.26 A 2.00 2.00 0 0 0 62.04 81.99 A 2.00 2.00 0 0 0 61.01 85.74 C 61.01 85.74 75.47 94 96 94 C 116.53 94 130.99 85.74 130.99 85.74 A 2.00 2.00 0 0 0 130.12 81.98 z "/>
  <circle r="4" cy="68" cx="72" style="fill:#ffffff"/>
  <circle r="4" cy="68" cx="120" style="fill:#ffffff"/>
  <path d="m 62,82 c 0,0 14,8 34,8 20,0 34,-8 34,-8" style="fill:none;stroke:#ffffff;stroke-width:4px;stroke-linecap:round"/>
  <path d="m 72,104 v 40 h 16 v -12 h 16 v 12 h 16 v -40 h -16 v 12 H 88 v -12 z" style="fill:#1e808d"/>
  <path style="opacity:0.20;fill:#ffffff" d="M 71.77 20.82 C 71.50 20.84 71.24 20.88 70.97 20.95 C 69.03 21.47 67.83 23.32 68.04 25.25 C 68.26 23.71 69.37 22.38 70.97 21.95 C 71.50 21.81 72.04 21.78 72.56 21.85 C 74.10 22.06 75.44 23.18 75.87 24.78 L 80.73 42.92 C 85.19 41.70 90.24 41 96 41 C 101.76 41 106.81 41.70 111.27 42.92 L 116.13 24.78 C 116.71 22.64 118.89 21.38 121.03 21.95 C 122.63 22.38 123.74 23.71 123.96 25.25 C 124.17 23.32 122.97 21.47 121.03 20.95 C 118.89 20.38 116.71 21.64 116.13 23.78 L 111.27 41.92 C 106.81 40.70 101.76 40 96 40 C 90.24 40 85.19 40.70 80.73 41.92 L 75.87 23.78 C 75.44 22.18 74.10 21.06 72.56 20.85 C 72.30 20.82 72.04 20.81 71.77 20.82 z M 72.96 44.83 C 48.03 57.00 48 88 48 88 L 48 89 C 48 89 48.02 57.80 73.20 45.71 L 72.96 44.83 z M 119.04 44.83 L 118.80 45.71 C 143.98 57.80 144 89 144 89 L 144 88 C 144 88 143.97 57.00 119.04 44.83 z "/>
</svg>
