<svg xmlns="http://www.w3.org/2000/svg" id="svg14" width="192" height="192" version="1"><defs><filter style="color-interpolation-filters:sRGB" id="filter884" width="1.1" height="1.1" x=".05" y=".05"><feGaussianBlur stdDeviation="3.2"/></filter><filter style="color-interpolation-filters:sRGB" id="filter895" width="1.1" height="1.09" x=".05" y=".05"><feGaussianBlur stdDeviation="1.28"/></filter></defs><path style="filter:url(#filter884);opacity:.2;fill:#000" d="m 27.33,20 c -6.33,0 10.89,13.20 12.77,19.48 0.52,4.72 -4.68,8.04 -7.15,11.18 C 22.32,64.23 16,81.35 16,100 c 0,44.32 35.68,80 80,80 44.32,0 80,-35.68 80,-80 0,-44.32 -35.68,-80 -80,-80 z"/><path style="fill:#0891f6" d="m 27.33,16 c -6.33,0 10.89,13.20 12.77,19.48 0.52,4.72 -4.68,8.04 -7.15,11.18 C 22.32,60.23 16,77.35 16,96 c 0,44.32 35.68,80 80,80 44.32,0 80,-35.68 80,-80 0,-44.32 -35.68,-80 -80,-80 z"/><path style="filter:url(#filter895);opacity:.2;fill:#000" d="m 111.06,65.00 a 5,5 0 0 0 -2.96,0.92 5,5 0 0 0 -1.18,6.97 c 6.85,9.65 10.01,17.84 10.08,25.06 0.08,8.58 -3.94,16.71 -10.04,25.10 a 5,5 0 0 0 1.10,6.98 5,5 0 0 0 6.98,-1.10 c 6.68,-9.17 12.06,-19.35 11.96,-31.07 0.09,-10.03 -4.37,-20.13 -11.92,-30.76 a 5,5 0 0 0 -4.01,-2.11 z m -44.06,12 c -1.11,0 -2,0.89 -2,2 v 7 c 0,1.11 0.89,2 2,2 h 20 c 1.11,0 2,0.89 2,-2 v -7 c 0,-1.11 0.89,-2 -2,-2 z m 0,31.00 c -1.11,0 -2,0.89 -2,2 v 7 c 0,1.11 0.89,2 2,2 h 20 c 1.11,0 2,0.89 2,-2 v -7 c 0,-1.11 0.89,-2 -2,-2 z"/><path style="fill:#fff" d="m 111.06,63.00 a 5,5 0 0 0 -2.96,0.92 5,5 0 0 0 -1.18,6.97 c 6.85,9.65 10.01,17.84 10.08,25.06 0.08,8.58 -3.94,16.71 -10.04,25.10 a 5,5 0 0 0 1.10,6.98 5,5 0 0 0 6.98,-1.10 c 6.68,-9.17 12.06,-19.35 11.96,-31.07 0.09,-10.03 -4.37,-20.13 -11.92,-30.76 a 5,5 0 0 0 -4.01,-2.11 z m -44.06,12 c -1.11,0 -2,0.89 -2,2 v 7 c 0,1.11 0.89,2 2,2 h 20 c 1.11,0 2,0.89 2,-2 v -7 c 0,-1.11 0.89,-2 -2,-2 z m 0,31.00 c -1.11,0 -2,0.89 -2,2 v 7 c 0,1.11 0.89,2 2,2 h 20 c 1.11,0 2,0.89 2,-2 v -7 c 0,-1.11 0.89,-2 -2,-2 z"/><path style="opacity:.2;fill:#fff" d="M 27.33,16 C 26.05,16 25.74,16.54 26.06,17.45 26.24,17.16 26.64,17 27.33,17 H 96 c 44.15,0 79.73,35.41 79.99,79.50 C 176.00,96.33 176,96.17 176,96 176,51.68 140.32,16 96,16 Z M 40.11,36.62 C 39.77,40.74 35.21,43.78 32.95,46.66 22.32,60.24 16,77.35 16,96 c 0,0.21 0.01,0.42 0.01,0.63 0.08,-18.51 6.39,-35.49 16.94,-48.97 2.44,-3.11 7.57,-6.40 7.16,-11.05 z"/></svg>