<?xml version='1.0' encoding='utf-8'?>
<svg xmlns="http://www.w3.org/2000/svg" width="192" height="192" version="1" id="svg37">
  <defs>
    <filter style="color-interpolation-filters:sRGB" id="filter886" x="0.05" width="1.10" y="0.05" height="1.10">
      <feGaussianBlur stdDeviation="3.20"/>
    </filter>
    <filter style="color-interpolation-filters:sRGB" id="filter906" x="0.04" width="1.07" y="0.07" height="1.14">
      <feGaussianBlur stdDeviation="1.64"/>
    </filter>
    <filter style="color-interpolation-filters:sRGB" id="filter922" x="0.04" width="1.08" y="0.03" height="1.06">
      <feGaussianBlur stdDeviation="0.75"/>
    </filter>
    <filter style="color-interpolation-filters:sRGB" id="filter938" x="0.06" width="1.11" y="0.04" height="1.08">
      <feGaussianBlur stdDeviation="1.13"/>
    </filter>
    <filter style="color-interpolation-filters:sRGB" id="filter966" x="0.10" width="1.19" y="0.07" height="1.15">
      <feGaussianBlur stdDeviation="0.62"/>
    </filter>
    <filter style="color-interpolation-filters:sRGB" id="filter970" x="0.04" width="1.08" y="0.08" height="1.16">
      <feGaussianBlur stdDeviation="0.62"/>
    </filter>
  </defs>
  <rect style="filter:url(#filter886);opacity:0.20;fill:#000000" width="160" height="160" x="-180" y="-176" rx="8" ry="8" transform="matrix(0,-1,-1,0,0,0)"/>
  <rect transform="matrix(0,-1,-1,0,0,0)" ry="8" rx="8" y="-176" x="-176" height="160" width="160" style="fill:#9fd82b"/>
  <path d="m 118.60,129.48 c 0,0 -16.28,13.01 -34.70,14.52 C 71.37,145.03 31.50,129.08 16,123.76 V 172 c 0,4.43 3.57,8 8,8 H 91.91 C 109.23,175.01 123.95,164.26 124,146 c 0.31,-11.38 -5.40,-16.52 -5.40,-16.52 z" style="filter:url(#filter906);opacity:0.20"/>
  <path d="m 118.60,125.48 c 0,0 -16.28,13.01 -34.70,14.52 C 71.37,141.03 31.50,125.08 16,119.76 V 168 c 0,4.43 3.57,8 8,8 H 91.91 C 109.23,171.01 123.95,160.26 124,142 c 0.31,-11.38 -5.40,-16.52 -5.40,-16.52 z" style="fill:#ffffff"/>
  <path d="M 131.73,97.72 132,64.80 c 23.50,18.38 28.75,35.23 28,65.20 l -48,-8 z" style="filter:url(#filter938);opacity:0.20"/>
  <path d="M 131.73,95.72 132,62.80 c 23.50,18.38 28.75,35.23 28,65.20 l -48,-8 z" style="fill:#dc3042"/>
  <path d="m 144,116 -28,4 20,-44 z" style="fill:#1f2930"/>
  <path d="M 128.90,105.02 160,128 112,120 Z" style="opacity:0.10;fill:#ffffff"/>
  <path style="opacity:0.20;fill:#ffffff" d="M 24 16 C 19.57 16 16 19.57 16 24 L 16 25 C 16 20.57 19.57 17 24 17 L 168 17 C 172.43 17 176 20.57 176 25 L 176 24 C 176 19.57 172.43 16 168 16 L 24 16 z "/>
  <path d="M 88,32 A 48,48 0 0 0 40.71,72.07 C 40.46,72.29 32.03,79.69 26.73,80 23.61,80.18 19.31,78.15 16,76.30 v 43.47 c 15.50,5.31 55.37,21.26 67.90,20.23 18.42,-1.51 34.70,-14.52 34.70,-14.52 0,0 1.13,1.08 2.36,3.22 -2.16,-5.19 -4.39,-8.17 -5.41,-9.46 A 48,48 0 0 0 136,80 48,48 0 0 0 88,32 Z m 35.98,110.39 c 0.00,0.28 0.03,0.54 0.04,0.81 0.02,0.13 0.05,0.26 0.06,0.39 0.00,0.14 0.02,0.28 0.02,0.42 z" style="fill:#293d46"/>
  <path d="m 20,119.59 c -1.34,0.01 -2.67,0.07 -4,0.17 v 51.83 c 0,1.43 0.40,2.74 1.05,3.90 0.98,0.06 1.97,0.09 2.95,0.10 22.09,0 40,-16 40,-28 0,-12 -17.91,-28 -40,-28.00 z" style="filter:url(#filter922);opacity:0.10"/>
  <path d="m 20,116 c -1.34,0.01 -2.67,0.07 -4,0.17 V 168 c 0,1.43 0.40,2.74 1.05,3.90 0.98,0.06 1.97,0.09 2.95,0.10 22.09,0 40,-16 40,-28 0,-12 -17.91,-28 -40,-28 z" style="fill:#1f2930"/>
  <path d="m 81.95,38.98 c -8.07,0.09 -16.28,1.37 -23.77,3.41 a 48,48 0 0 0 -9.16,9.66 c 3.17,20.77 6.72,39.63 26.07,53.43 13.94,8.15 26.31,10.32 41.89,11.54 0.36,0.16 0.62,0.33 0.96,0.48 a 48,48 0 0 0 10.95,-12.49 C 133.69,86.04 130.95,57.24 110.21,45.27 102.28,40.69 92.24,38.88 81.95,38.98 Z" style="fill:#ffffff"/>
  <path d="m 97.00,47.27 a 24.29,17.25 10.37 0 1 0.35,4.04 24.29,17.25 10.37 0 1 -28.12,11.38 A 24.29,17.25 10.37 0 1 60,59.49 22.18,15.75 10.37 0 0 71.90,65.25 22.18,15.75 10.37 0 0 97.58,54.85 22.18,15.75 10.37 0 0 97.00,47.27 Z" style="filter:url(#filter970);opacity:0.10"/>
  <ellipse transform="matrix(0.97,0.23,0.29,0.96,0,0)" ry="10.26" rx="7.66" cy="90.59" cx="80.35" style="filter:url(#filter966);opacity:0.10"/>
  <ellipse transform="matrix(0.97,0.23,0.29,0.96,0,0)" ry="10.26" rx="7.66" cy="88.64" cx="80.92" style="fill:#dc3042"/>
  <ellipse transform="matrix(0.96,0.28,0.24,0.97,0,0)" ry="6.08" rx="3.87" cy="92.34" cx="85.08" style="fill:#1f2930"/>
  <path d="m 97.00,45.27 a 24.29,17.25 10.37 0 1 0.35,4.04 24.29,17.25 10.37 0 1 -28.12,11.38 A 24.29,17.25 10.37 0 1 60,57.49 22.18,15.75 10.37 0 0 71.90,63.25 22.18,15.75 10.37 0 0 97.58,52.85 22.18,15.75 10.37 0 0 97.00,45.27 Z" style="fill:#1f2930"/>
</svg>
