<?xml version='1.0' encoding='utf-8'?>
<svg xmlns="http://www.w3.org/2000/svg" width="192" height="192" version="1" id="svg14">
  <defs>
    <filter style="color-interpolation-filters:sRGB" id="filter844" x="0.05" width="1.10" y="0.05" height="1.10">
      <feGaussianBlur stdDeviation="3.20"/>
    </filter>
    <filter style="color-interpolation-filters:sRGB" id="filter860" x="0.05" width="1.10" y="0.05" height="1.10">
      <feGaussianBlur stdDeviation="2.24"/>
    </filter>
  </defs>
  <rect style="filter:url(#filter844);opacity:0.20;fill:#000000" width="160" height="160" x="-180" y="-176" rx="80" ry="80" transform="matrix(0,-1,-1,0,0,0)"/>
  <rect transform="matrix(0,-1,-1,0,0,0)" ry="80" rx="80" y="-176" x="-176" height="160" width="160" style="fill:#027cda"/>
  <path style="opacity:0.20;fill:#ffffff" d="M 96.00 16 C 51.68 16.00 16 51.68 16 96 C 16 96.12 16.01 96.23 16.01 96.34 C 16.36 52.33 51.90 17.00 96.00 17 L 96 17 C 140.11 17.00 175.65 52.34 175.99 96.36 C 175.99 96.24 176.00 96.12 176.00 96 C 176.00 51.68 140.32 16.00 96 16 L 96.00 16 z "/>
  <path d="m 96,44 a 56,56 0 0 0 -56,56 56,56 0 0 0 56,56 56,56 0 0 0 56,-56 56,56 0 0 0 -56,-56 z m 0,20.20 a 36,36 0 0 1 36,36.00 36,36 0 0 1 -36,36 36,36 0 0 1 -36,-36 36,36 0 0 1 36,-36.00 z M 84.55,80 A 4.44,4.42 0 0 0 80,84.41 v 31.17 a 4.44,4.42 0 0 0 6.66,3.83 l 13.57,-7.79 13.56,-7.80 a 4.44,4.42 0 0 0 0,-7.63 l -13.56,-7.80 -13.57,-7.79 A 4.44,4.42 0 0 0 84.55,80 Z" style="filter:url(#filter860);opacity:0.20"/>
  <path d="M 96,40 A 56,56 0 0 0 40,96 56,56 0 0 0 96,152 56,56 0 0 0 152,96 56,56 0 0 0 96,40 Z m 0,20.20 a 36,36 0 0 1 36,36 36,36 0 0 1 -36,36.00 36,36 0 0 1 -36,-36.00 36,36 0 0 1 36,-36 z M 84.55,76 A 4.44,4.42 0 0 0 80,80.41 v 31.17 a 4.44,4.42 0 0 0 6.66,3.83 l 13.57,-7.79 13.56,-7.80 a 4.44,4.42 0 0 0 0,-7.63 l -13.56,-7.80 -13.57,-7.79 A 4.44,4.42 0 0 0 84.55,76 Z" style="fill:#ffffff"/>
</svg>
