<?xml version='1.0' encoding='utf-8'?>
<svg xmlns="http://www.w3.org/2000/svg" width="192" height="192" version="1" id="svg12">
  <defs>
    <filter style="color-interpolation-filters:sRGB" id="filter955" x="0.05" width="1.10" y="0.05" height="1.10">
      <feGaussianBlur stdDeviation="3.20"/>
    </filter>
    <filter style="color-interpolation-filters:sRGB" id="filter26310" x="0.06" y="0.10" width="1.12" height="1.19">
      <feGaussianBlur stdDeviation="2.31"/>
    </filter>
    <filter style="color-interpolation-filters:sRGB" id="filter26314" x="0.08" y="0.07" width="1.15" height="1.15">
      <feGaussianBlur stdDeviation="2.45"/>
    </filter>
  </defs>
  <rect style="filter:url(#filter955);opacity:0.20;fill:#000000" width="160" height="160" x="16" y="20" rx="30" ry="30"/>
  <path style="fill:#2571da" d="m 46,16 h 100 c 16.62,0 30,13.38 30,30 v 100 c 0,10.24 -5.08,19.25 -12.86,24.66 -4.85,3.37 -18.28,0.48 -24.64,-1.03 l -90.36,-7.81 C 31.58,160.39 29.12,155.77 29.59,139.16 l 2.56,-89.84 C 32.40,40.72 19.59,29.66 25.35,24.20 30.72,19.11 37.98,16 46,16 Z"/>
  <path style="fill:#235cab" d="M 26.50 23.19 C 20.08 28.68 16 36.84 16 46 L 16 146 C 16 162.62 29.38 176 46 176 L 146 176 C 153.33 176 160.03 173.39 165.23 169.05 C 143.96 159.08 122.29 144.35 106.21 125.48 C 99.14 117.20 75.38 109.54 77.35 98.36 C 83.55 63.12 51.72 37.26 26.50 23.19 z "/>
  <path style="filter:url(#filter26310);opacity:0.20;fill:#000000" d="m 70,89 c -11.08,0 -20,8.92 -20,20 v 18 c 0,11.08 8.92,20 20,20 h 18 23 c 16.02,0 29,-12.98 29,-29 0,-16.02 -12.98,-29 -29,-29 H 88 Z"/>
  <path style="fill:#5ed2ff" d="M 70 87 C 58.92 87 50 95.92 50 107 L 50 125 C 50 136.08 58.92 145 70 145 L 88 145 L 111 145 C 127.02 145 140 132.02 140 116 C 140 99.98 127.02 87 111 87 L 88 87 L 70 87 z "/>
  <path style="filter:url(#filter26314);opacity:0.20;fill:#000000" d="M 74,43 C 60.70,43 50,53.70 50,67 V 68.88 77 123.84 C 50,118.50 56.73,101 98.01,101 l 0.00,0.03 C 113.56,100.44 126,87.68 126,72 126,55.98 113.02,43 97,43 Z"/>
  <path style="fill:#ffffff" d="M 74 41 C 60.70 41 50 51.70 50 65 L 50 66.88 L 50 75 L 50 121.84 C 50 116.50 56.73 99 98.01 99 L 98.01 98.97 C 113.56 98.44 126 85.68 126 70 C 126 53.98 113.02 41 97 41 L 74 41 z "/>
  <path style="opacity:0.10;fill:#ffffff" d="M 46 16 C 29.38 16 16 29.38 16 46 L 16 47 C 16 30.38 29.38 17 46 17 L 146 17 C 162.62 17 176 30.38 176 47 L 176 46 C 176 29.38 162.62 16 146 16 L 46 16 z "/>
</svg>
