<?xml version='1.0' encoding='utf-8'?>
<svg xmlns="http://www.w3.org/2000/svg" width="192" height="192" version="1" id="svg14">
  <defs>
    <filter style="color-interpolation-filters:sRGB" id="filter848" x="0.05" width="1.10" y="0.05" height="1.10">
      <feGaussianBlur stdDeviation="3.20"/>
    </filter>
    <filter style="color-interpolation-filters:sRGB" id="filter864" x="0.05" width="1.10" y="0.05" height="1.10">
      <feGaussianBlur stdDeviation="2.08"/>
    </filter>
  </defs>
  <rect transform="matrix(0,-1,-1,0,0,0)" ry="80" rx="80" y="-176" x="-180" height="160" width="160" style="filter:url(#filter848);opacity:0.20"/>
  <rect transform="matrix(0,-1,-1,0,0,0)" ry="80" rx="80" y="-176" x="-176" height="160" width="160" style="fill:#41a3ea"/>
  <path style="opacity:0.20;fill:#ffffff" d="M 96 16 C 51.68 16 16 51.68 16 96 C 16 96.12 16.01 96.23 16.01 96.34 C 16.36 52.33 51.90 17 96 17 C 140.10 17 175.64 52.33 175.99 96.34 C 175.99 96.23 176 96.12 176 96 C 176 51.68 140.32 16 96 16 z "/>
  <path d="M 96,48 A 52,52 0 0 0 44.84,90.93 l 43.79,-13.76 0.07,0.01 A 24,24 0 0 1 96,76 a 24,24 0 0 1 24,24 24,24 0 0 1 -7.61,17.51 l 0.03,0.05 -33.77,31.38 A 52,52 0 0 0 96,152 52,52 0 0 0 148,100 52,52 0 0 0 96,48 Z M 74.16,90.11 44.02,99.58 A 52,52 0 0 0 44,100 a 52,52 0 0 0 5.44,23.10 l 24.35,-14.06 A 24,24 0 0 1 72,100 24,24 0 0 1 74.16,90.11 Z m 3.85,25.73 -24.45,14.11 a 52,52 0 0 0 17.09,15.43 l 23.13,-21.49 a 24,24 0 0 1 -15.78,-8.05 z" style="filter:url(#filter864);opacity:0.20"/>
  <path d="M 96,44 A 52,52 0 0 0 44.84,86.93 l 43.79,-13.76 0.07,0.01 A 24,24 0 0 1 96,72 a 24,24 0 0 1 24,24 24,24 0 0 1 -7.61,17.51 l 0.03,0.05 -33.77,31.38 A 52,52 0 0 0 96,148 52,52 0 0 0 148,96 52,52 0 0 0 96,44 Z M 74.16,86.11 44.02,95.58 A 52,52 0 0 0 44,96 a 52,52 0 0 0 5.44,23.10 l 24.35,-14.06 A 24,24 0 0 1 72,96 24,24 0 0 1 74.16,86.11 Z m 3.85,25.73 -24.45,14.11 a 52,52 0 0 0 17.09,15.43 l 23.13,-21.49 a 24,24 0 0 1 -15.78,-8.05 z" style="fill:#ffffff"/>
</svg>
