<?xml version='1.0' encoding='utf-8'?>
<svg xmlns="http://www.w3.org/2000/svg" width="192" height="192" version="1.1" id="svg14">
  <defs>
    <filter style="color-interpolation-filters:sRGB" id="filter2891" x="0.06" y="0.04" width="1.12" height="1.08">
      <feGaussianBlur stdDeviation="2.70"/>
    </filter>
  </defs>
  <path style="filter:url(#filter2891);opacity:0.20;fill:#000000" d="m 151,125 c 0,30.38 -24.62,55 -55.00,55 C 65.62,180 41.00,155.38 41.00,125 41,94.62 96.00,20 96.00,20 96.00,20 151,94.62 151,125 Z"/>
  <path style="fill:#2ab2fe" d="m 151,121 c 0,30.38 -24.62,55 -55.00,55 C 65.62,176 41.00,151.38 41.00,121 41,90.62 96.00,16 96.00,16 96.00,16 151,90.62 151,121 Z"/>
  <path style="opacity:0.30;fill:#ffffff" d="m 87.98,47.80 c 0,0 -21.60,38.73 -22.12,71.50 0.33,20.64 16.98,41.80 16.02,44.88 C 25.27,137.38 77.64,64.20 87.98,47.80 Z"/>
  <path style="opacity:0.20;fill:#ffffff" d="M 96 16 C 96 16 41.00 90.62 41 121 C 41 121.23 41.01 121.45 41.02 121.68 C 41.39 91.10 96 17 96 17 C 96 17 150.61 91.10 150.98 121.68 C 150.99 121.45 151 121.23 151 121 C 151 90.62 96 16 96 16 z "/>
</svg>
