<?xml version='1.0' encoding='utf-8'?>
<svg xmlns="http://www.w3.org/2000/svg" width="192" height="192" version="1" id="svg28">
  <defs>
    <filter style="color-interpolation-filters:sRGB" id="filter6495" x="0.05" y="0.05" width="1.10" height="1.10">
      <feGaussianBlur stdDeviation="3.20"/>
    </filter>
    <filter style="color-interpolation-filters:sRGB" id="filter11126" x="0.04" y="-3.20" width="1.08" height="7.39">
      <feGaussianBlur stdDeviation="2.53"/>
    </filter>
    <filter style="color-interpolation-filters:sRGB" id="filter11686" x="0.07" y="0.20" width="1.15" height="1.41">
      <feGaussianBlur stdDeviation="3.64"/>
    </filter>
  </defs>
  <rect transform="matrix(0,-1,-1,0,0,0)" ry="12" rx="12" y="-176" x="-180" height="160" width="160" style="filter:url(#filter6495);opacity:0.20;fill:#000000"/>
  <path style="fill:#0772bd" d="M 28,16 C 21.35,16 16,21.35 16,28 V 160.10 H 176 V 28 c 0,-6.65 -5.35,-12 -12,-12 z"/>
  <rect style="filter:url(#filter11126);opacity:0.20;fill:#000000" width="160" height="1.90" x="16" y="158.10"/>
  <path style="opacity:0.10;fill:#ffffff" d="m 28,16 c -6.65,0 -12,5.35 -12,12 v 1 c 0,-6.65 5.35,-12 12,-12 h 136 c 6.65,0 12,5.35 12,12 v -1 c 0,-6.65 -5.35,-12 -12,-12 z"/>
  <path style="filter:url(#filter11686);opacity:0.20;fill:#000000;mix-blend-mode:normal" d="m 122.87,72.01 c -3.39,0.05 -56.89,0.17 -63.14,0.25 0.95,0.05 -1.68,0.06 0.48,0.41 6.53,2.26 17.73,6.35 23.36,11.33 h 40.62 c 1.15,-1.43 1.57,-2.42 2.83,-4.04 2.97,-3.91 3.14,-7.89 -3.19,-7.95 z m 29.63,14.98 c 0.39,0.01 0.85,0.01 -1.38,0.01 H 83.23 c 0.31,2.93 -2.83,7.18 -9.30,11.17 -3.33,2.05 -10.90,6.13 -37.73,16.34 0.36,0.11 0.17,0.53 0.05,0.48 46.39,-11.82 77.17,-19.42 118.46,-27.33 0,0 0.51,0.62 -2.22,0.68 z m -40.71,12.23 c 0.04,0.01 0.10,0.00 0.18,0.04 L 47.52,114.71 c 0.11,0.06 0.25,0.25 0.11,0.25 l 49.64,0.07 c 3.03,0.11 5.21,-2.56 6.36,-4.08 l 8.10,-11.28 c 0.15,0.13 0.18,0.30 0.06,0.32 z"/>
  <path style="fill:#ffffff" d="m 122.87,70.01 c -3.39,0.05 -56.89,0.17 -63.14,0.25 0.95,0.05 -1.68,0.06 0.48,0.41 6.53,2.26 17.73,6.35 23.36,11.33 h 40.62 c 1.15,-1.43 1.57,-2.42 2.83,-4.04 2.97,-3.91 3.14,-7.89 -3.19,-7.95 z m 29.63,14.98 c 0.39,0.01 0.85,0.01 -1.38,0.01 H 83.23 c 0.31,2.93 -2.83,7.18 -9.30,11.17 -3.33,2.05 -10.90,6.13 -37.73,16.34 0.36,0.11 0.17,0.53 0.05,0.48 46.39,-11.82 77.17,-19.42 118.46,-27.33 0,0 0.51,0.62 -2.22,0.68 z m -40.71,12.23 c 0.04,0.01 0.10,0.00 0.18,0.04 L 47.52,112.71 c 0.11,0.06 0.25,0.25 0.11,0.25 l 49.64,0.07 c 3.03,0.11 5.21,-2.56 6.36,-4.08 l 8.10,-11.28 c 0.15,0.13 0.18,0.30 0.06,0.32 z"/>
  <path style="fill:#ffcb05" d="M 16 160 L 16 164 C 16 170.65 21.35 176 28 176 L 164 176 C 170.65 176 176 170.65 176 164 L 176 160 L 16 160 z "/>
</svg>
