<svg xmlns="http://www.w3.org/2000/svg" id="svg37" width="192" height="192" version="1.1"><defs><linearGradient id="linearGradient6242" x1="4" x2="12" y1="1032.4" y2="1032.4" gradientTransform="matrix(4,0,0,4,0,-4021.5998)" gradientUnits="userSpaceOnUse"><stop offset="0" stop-opacity="0"/><stop offset="1"/></linearGradient><filter style="color-interpolation-filters:sRGB" id="filter1016" width="1.08" height="1.12" x=".04" y=".06"><feGaussianBlur stdDeviation="2.64"/></filter><filter style="color-interpolation-filters:sRGB" id="filter1039" width="1.06" height="1.22" x=".03" y=".11"><feGaussianBlur stdDeviation="1.12"/></filter></defs><path style="filter:url(#filter1016);opacity:.2;fill:#000" d="m 88,48 c -4.43,0 -8,3.57 -8,8 v 8.34 C 65.16,69.08 52,80 48,88 47.75,87.50 47.42,87.03 47.03,86.59 46.63,86.15 46.17,85.74 45.65,85.36 45.14,84.98 44.56,84.62 43.95,84.29 43.33,83.96 42.66,83.66 41.96,83.38 41.26,83.09 40.53,82.84 39.77,82.60 39.01,82.36 38.23,82.15 37.43,81.95 35.84,81.56 34.19,81.25 32.58,81 30.96,80.75 29.38,80.56 27.91,80.42 26.44,80.28 25.09,80.19 23.95,80.12 21.65,80 20.16,80 20.16,80 v 20 H 16 v 24 h 4.16 v 20 c 0.04,0 1.43,0.25 3.72,0.75 1.15,0.25 2.50,0.56 3.96,0.94 1.47,0.38 3.06,0.81 4.68,-1.31 2.43,0.75 4.93,-1.64 7.22,-2.67 0.76,0.34 1.50,0.70 2.20,-1.08 0.70,0.38 1.37,0.77 1.99,-1.17 0.62,0.41 1.20,0.83 1.72,-1.27 0.52,0.44 0.98,0.89 1.38,-1.36 C 47.42,132.98 47.75,132.50 48,132 c 4,8 28,20 60,20 32,0 68,-17.49 68,-44 C 175.97,89.16 160.32,72.08 136,64.32 V 56 c 0,-4.43 -3.57,-8 -8,-8 z"/><g transform="matrix(4,0,0,4,-8,-4009.60)"><rect width="3" height="10" x="14" y="1014.4" fill="#41b941" rx="1.41" ry="1.75"/><path style="opacity:.2;fill:#fff" d="M 53.62,48 C 50.51,48 48,51.11 48,54.98 v 1 C 48,52.11 50.51,49 53.62,49 h 0.75 c 3.12,0 5.62,3.11 5.62,6.98 v -1 c 0,-3.87 -2.51,-6.98 -5.62,-6.98 z" transform="matrix(0.25,0,0,0.25,2,1002.40)"/></g><path fill="#ffca1d" d="m 88,44.00 c -4.43,0 -8,3.57 -8,8 v 8.34 c -14.84,4.74 -28,15.66 -32,23.66 -4,-8 -27.84,-8 -27.84,-8 v 20 H 16 v 24 h 4.16 v 20 c 0.16,0 23.84,-4 27.84,-12 4,8 28,20 60,20 32,0 68,-17.49 68,-44 0.03,-18.84 -15.68,-35.92 -40,-43.68 v -8.32 c 0,-4.43 -3.57,-8 -8,-8 z"/><path style="opacity:.2;fill:#fff" d="M 88 44 C 83.57 44 80 47.57 80 52 L 80 53 C 80 48.57 83.57 45 88 45 L 128 45 C 132.43 45 136 48.57 136 53 L 136 52 C 136 47.57 132.43 44 128 44 L 88 44 z M 136 60.32 L 136 61.32 C 160.06 68.99 175.62 85.80 175.98 104.41 C 175.98 104.27 176.00 104.14 176.00 104 C 175.96 85.16 160.32 68.08 136 60.32 z M 80 60.34 C 65.16 65.08 52 76 48 84 C 44 76 20.16 76 20.16 76 L 20.16 77 C 20.16 77 44 77 48 85 C 52 77 65.16 66.08 80 61.34 L 80 60.34 z"/><path style="filter:url(#filter1039);opacity:.2" d="M 76,94 A 12,12 0 0 0 64,106 12,12 0 0 0 76,118 12,12 0 0 0 88,106 12,12 0 0 0 76,94 Z m 32,0 a 12,12 0 0 0 -12,12 12,12 0 0 0 12,12 12,12 0 0 0 12,-12 12,12 0 0 0 -12,-12 z m 32,0 a 12,12 0 0 0 -12,12 12,12 0 0 0 12,12 12,12 0 0 0 12,-12 12,12 0 0 0 -12,-12 z"/><circle cx="108" cy="104" r="12" fill="#fff"/><circle cx="140" cy="104" r="12" fill="#fff"/><circle cx="76" cy="104" r="12" fill="#fff"/><path fill="url(#linearGradient6242)" d="m 48,84.00 c -4,-8 -27.84,-8 -27.84,-8 v 20 H 16 v 24 h 4.16 v 20 c 0.16,0 23.84,-4 27.84,-12 z" opacity=".1" style="fill:url(#linearGradient6242)"/></svg>