<?xml version='1.0' encoding='utf-8'?>
<svg xmlns="http://www.w3.org/2000/svg" width="192" height="192" version="1" id="svg12">
  <defs>
    <filter style="color-interpolation-filters:sRGB" id="filter955" x="0.05" width="1.10" y="0.05" height="1.10">
      <feGaussianBlur stdDeviation="3.20"/>
    </filter>
    <filter style="color-interpolation-filters:sRGB" id="filter7587" x="0.12" y="0.10" width="1.24" height="1.20">
      <feGaussianBlur stdDeviation="4.74"/>
    </filter>
  </defs>
  <rect style="filter:url(#filter955);opacity:0.20;fill:#000000" width="160" height="160" x="16" y="20" rx="30" ry="30"/>
  <rect style="fill:#0ca2ee" width="160" height="160" x="16" y="16" rx="30" ry="30"/>
  <path style="opacity:0.20;fill:#ffffff" d="M 46 16 C 29.38 16 16 29.38 16 46 L 16 47 C 16 30.38 29.38 17 46 17 L 146 17 C 162.62 17 176 30.38 176 47 L 176 46 C 176 29.38 162.62 16 146 16 L 46 16 z "/>
  <path style="filter:url(#filter7587);opacity:0.20;fill:#000000;color:#000000" d="m 73,41.00 a 13,13 0 0 0 -13,13 13,13 0 0 0 13,13 13,13 0 0 0 13,-13 13,13 0 0 0 -13,-13 z m 46,0 a 13,13 0 0 0 -13,13 13,13 0 0 0 13,13 13,13 0 0 0 13,-13 13,13 0 0 0 -13,-13 z m -44,31 c -14.28,0 -26,11.72 -26,26 0,9.47 6.10,16.21 11.21,22.12 5.11,5.91 10.17,10.34 10.17,10.34 L 75,134.52 l 4.62,-4.06 c 0,0 5.06,-4.44 10.17,-10.34 C 94.90,114.21 101,107.47 101,98.00 c 0,-14.28 -11.72,-26 -26,-26 z m 43,0 c -6.70,0 -12.84,2.58 -17.47,6.80 3.26,4.32 5.46,9.48 6.19,15.08 1.65,-4.63 6.02,-7.88 11.28,-7.88 6.71,0 11.99,5.29 12.00,11.99 0.01,3.58 -1.61,6.97 -4.38,9.24 l 0.29,0.24 -28.87,29.39 -7.27,-7.27 c -3.20,3.25 -5.60,5.36 -5.60,5.37 l -4.70,4.13 17.66,17.66 38.36,-39.04 c 5.75,-4.92 9.08,-12.11 9.10,-19.70 v 0.01 0.01 c 0,-14.28 -11.72,-26 -26,-26 z m -43,14 c 6.71,0 12,5.29 12,12 0,1.02 -3.40,7.88 -7.79,12.96 -1.52,1.76 -2.86,3.07 -4.21,4.44 -1.35,-1.37 -2.68,-2.68 -4.21,-4.44 C 66.40,105.88 63,99.02 63,98.00 c 0,-6.71 5.29,-12 12,-12 z"/>
  <path style="fill:#ffffff;color:#000000" d="M 73 39 A 13 13 0 0 0 60 52 A 13 13 0 0 0 73 65 A 13 13 0 0 0 86 52 A 13 13 0 0 0 73 39 z M 119 39 A 13 13 0 0 0 106 52 A 13 13 0 0 0 119 65 A 13 13 0 0 0 132 52 A 13 13 0 0 0 119 39 z M 75 70 C 60.72 70 49 81.72 49 96 C 49 105.47 55.10 112.21 60.21 118.12 C 65.32 124.02 70.38 128.46 70.38 128.46 L 75 132.52 L 79.62 128.46 C 79.62 128.46 84.68 124.02 89.79 118.12 C 94.90 112.21 101 105.47 101 96 C 101 81.72 89.28 70 75 70 z M 118 70 C 111.30 70 105.16 72.58 100.53 76.80 C 103.80 81.12 105.99 86.28 106.72 91.88 C 108.38 87.25 112.75 84 118 84 C 124.71 84 129.99 89.29 130.00 95.99 C 129.99 99.58 128.39 102.96 125.62 105.24 L 125.33 105.47 L 96.46 134.86 L 89.19 127.59 C 85.99 130.85 83.59 132.96 83.58 132.96 L 78.89 137.09 L 96.54 154.75 L 134.90 115.71 C 140.65 110.79 143.99 103.60 144 96.01 L 144 96.01 L 144 96 C 144 81.72 132.28 70 118 70 z M 75 84 C 81.71 84 87 89.29 87 96 C 87 97.02 83.60 103.88 79.21 108.96 C 77.68 110.72 76.35 112.03 75 113.39 C 73.65 112.03 72.32 110.72 70.79 108.96 C 66.40 103.88 63 97.02 63 96 C 63 89.29 68.29 84 75 84 z "/>
</svg>
