<?xml version='1.0' encoding='utf-8'?>
<svg xmlns="http://www.w3.org/2000/svg" width="192" height="192" version="1" id="svg26">
  <defs>
    <filter style="color-interpolation-filters:sRGB" id="filter7316" x="0.05" y="0.05" width="1.10" height="1.10">
      <feGaussianBlur stdDeviation="2.84"/>
    </filter>
    <filter style="color-interpolation-filters:sRGB" id="filter7358" x="0.04" y="0.07" width="1.08" height="1.13">
      <feGaussianBlur stdDeviation="2.25"/>
    </filter>
    <filter style="color-interpolation-filters:sRGB" id="filter7400" x="0.03" y="0.12" width="1.06" height="1.24">
      <feGaussianBlur stdDeviation="1"/>
    </filter>
    <filter style="color-interpolation-filters:sRGB" id="filter7442" x="0.04" y="0.05" width="1.09" height="1.10">
      <feGaussianBlur stdDeviation="0.99"/>
    </filter>
    <filter style="color-interpolation-filters:sRGB" id="filter7484" x="0.03" y="0.09" width="1.07" height="1.18">
      <feGaussianBlur stdDeviation="1.44"/>
    </filter>
  </defs>
  <path style="filter:url(#filter7484);opacity:0.20;fill:#000000;color:#000000" d="m 46.93,14.00 a 4,4 0 0 0 -1.99,0.57 4,4 0 0 0 -1.36,5.49 l 18.17,30.14 a 4,4 0 0 0 5.49,1.36 4,4 0 0 0 1.36,-5.49 L 50.43,15.94 a 4,4 0 0 0 -2.46,-1.82 4,4 0 0 0 -1.04,0.12 z m 98.15,0 a 4,4 0 0 0 -1.04,0.12 4,4 0 0 0 -2.46,1.82 L 123.41,46.08 a 4,4 0 0 0 1.36,5.49 4,4 0 0 0 5.49,-1.36 l 18.17,-30.14 a 4,4 0 0 0 -1.36,-5.49 4,4 0 0 0 -1.99,0.57 z"/>
  <path style="filter:url(#filter7316);opacity:0.20;fill:#000000" d="m 96,29 a 71,71 0 0 0 -71,71 v 57 c 0,7.76 6.24,14 14,14 h 114 c 7.76,0 14,-6.24 14,-14 V 100 A 71,71 0 0 0 96,29 Z"/>
  <path style="fill:#2ab54e;color:#000000" d="M 46.93 13 A 4 4 0 0 0 44.94 13.57 A 4 4 0 0 0 43.57 19.06 L 61.74 49.21 A 4 4 0 0 0 67.23 50.57 A 4 4 0 0 0 68.59 45.08 L 50.43 14.94 A 4 4 0 0 0 47.96 13.12 A 4 4 0 0 0 46.93 13 z M 145.07 13 A 4 4 0 0 0 144.04 13.12 A 4 4 0 0 0 141.57 14.94 L 123.41 45.08 A 4 4 0 0 0 124.77 50.57 A 4 4 0 0 0 130.26 49.21 L 148.43 19.06 A 4 4 0 0 0 147.06 13.57 A 4 4 0 0 0 145.07 13 z "/>
  <path style="fill:#52d773" d="m 96,25 a 71,71 0 0 0 -71,71 71,71 0 0 0 0.43,6 H 166.57 A 71,71 0 0 0 167,96 71,71 0 0 0 96,25 Z"/>
  <path style="opacity:0.20;fill:#ffffff" d="M 96 25 A 71 71 0 0 0 25 96 A 71 71 0 0 0 25.04 96.48 A 71 71 0 0 1 96 26 A 71 71 0 0 1 166.98 96.24 A 71 71 0 0 0 167 96 A 71 71 0 0 0 96 25 z "/>
  <path style="fill:#4f4f4f" d="M 25 96 L 25 153 C 25 160.76 31.24 167 39 167 L 153 167 C 160.76 167 167 160.76 167 153 L 167 96 L 25 96 z "/>
  <path style="filter:url(#filter7400);opacity:0.20;fill:#000000" d="M 66,58 A 10,10 0 0 0 56,68 10,10 0 0 0 66,78 10,10 0 0 0 76,68 10,10 0 0 0 66,58 Z m 60,0 a 10,10 0 0 0 -10,10 10,10 0 0 0 10,10 10,10 0 0 0 10,-10 10,10 0 0 0 -10,-10 z"/>
  <path style="fill:#ffffff" d="M 66 56 A 10 10 0 0 0 56 66 A 10 10 0 0 0 66 76 A 10 10 0 0 0 76 66 A 10 10 0 0 0 66 56 z M 126 56 A -10 10 0 0 0 116 66 A -10 10 0 0 0 126 76 A -10 10 0 0 0 136 66 A -10 10 0 0 0 126 56 z "/>
  <path style="filter:url(#filter7442);opacity:0.20;fill:#000000;color:#000000" d="m 33.00,34.60 a 2.03,2.02 0 0 0 0.73,2.76 l 13.67,23.63 a 2.03,2.02 0 0 0 3.33,0.27 l 13.30,-16.21 20.72,-3.39 a 2.03,2.02 0 0 0 1.43,-3.01 L 71.06,15.01 A 2.03,2.02 0 0 0 67.70,14.78 L 54.70,31.43 33.75,34.34 a 2.03,2.02 0 0 0 0.74,0.26 z"/>
  <path style="fill:#ffffff;color:#000000" d="m 33.00,32.60 a 2.03,2.02 0 0 0 0.73,2.76 l 13.67,23.63 a 2.03,2.02 0 0 0 3.33,0.27 l 13.30,-16.21 20.72,-3.39 a 2.03,2.02 0 0 0 1.43,-3.01 L 71.06,13.01 A 2.03,2.02 0 0 0 67.70,12.78 L 54.70,29.43 33.75,32.34 a 2.03,2.02 0 0 0 0.74,0.26 z"/>
  <path style="filter:url(#filter7358);opacity:0.20;fill:#000000" d="m 27,99 v 15 c 42.75,0 69,-15 69,-15 z m 69,0 c 0,0 27.25,15 70,15 V 99 Z m -69,29 v 16 h 15.11 c 0.05,0.33 0.09,0.67 0.11,1 0,7.73 6.27,14 14,14 1.19,0.01 2.37,0.18 3.52,0.49 C 59.20,159.64 59.02,160.82 59,162 c 0,7.73 6.27,14 14,14 3.62,0.03 7.08,-1.46 9.66,-3.99 C 84.43,177.91 89.84,181.97 96,182 c 6.16,0.03 11.57,-4.09 13.34,-9.99 2.59,2.53 6.05,3.96 9.66,3.99 7.73,0 14,-6.27 14,-14 0.00,-1.17 0.15,-2.33 0.43,-3.46 1.12,0.30 2.27,0.45 3.43,0.46 7.73,0 14,-6.27 14,-14 0.00,0.33 0.02,0.67 0.04,-1 H 166 v -16 z"/>
  <path style="fill:#ffffff" d="M 25 96 L 25 111 C 67.75 111 96 96 96 96 L 25 96 z M 96 96 C 96 96 124.25 111 167 111 L 167 96 L 96 96 z M 25 125 L 25 141 L 42.11 141 A 14 14 0 0 0 42 142 A 14 14 0 0 0 56 156 A 14 14 0 0 0 59.52 155.51 A 14 14 0 0 0 59 159 A 14 14 0 0 0 73 173 A 14 14 0 0 0 82.66 169.01 A 14 14 0 0 0 96 179 A 14 14 0 0 0 109.34 169.01 A 14 14 0 0 0 119 173 A 14 14 0 0 0 133 159 A 14 14 0 0 0 132.57 155.54 A 14 14 0 0 0 136 156 A 14 14 0 0 0 150 142 A 14 14 0 0 0 149.96 141 L 167 141 L 167 125 L 25 125 z "/>
</svg>
