<?xml version='1.0' encoding='utf-8'?>
<svg xmlns="http://www.w3.org/2000/svg" width="192" height="192" version="1" id="svg30">
  <defs>
    <filter style="color-interpolation-filters:sRGB" id="filter4904" x="-0.043636364" y="-0.053333334" width="1.0872727" height="1.1066667">
      <feGaussianBlur stdDeviation="3.2"/>
    </filter>
    <filter style="color-interpolation-filters:sRGB" id="filter5070" x="-0.043000001" y="-0.05431579" width="1.086" height="1.1086316">
      <feGaussianBlur stdDeviation="1.72"/>
    </filter>
    <filter style="color-interpolation-filters:sRGB" id="filter5115" x="-0.046799998" y="-0.049263156" width="1.0936" height="1.0985263">
      <feGaussianBlur stdDeviation="1.56"/>
    </filter>
  </defs>
  <path style="filter:url(#filter5070);opacity:0.2;fill:#000000" d="m 48,104 v 57.69922 L 96,180 144,161.69922 V 104 l -48,19.40039 z"/>
  <path style="fill:#8a6b60" d="M 144,99.999996 96,119.39952 V 176 l 48,-18.30048 z"/>
  <path style="fill:#715143" d="M 48,99.999996 96,119.39952 V 176 L 48,157.69952 Z"/>
  <path style="filter:url(#filter4904);opacity:0.2" d="M 96,28 A 64,64 0 0 0 32,92 v 8.74219 C 18.302186,104.10679 8,118.61014 8,136 c 0,19.88224 13.466336,36 30.078125,36 h 6.578123 C 44.656252,172 48,172 48,168 V 136 104 92 a 48,48 0 0 1 48,-48 48,48 0 0 1 48,48 v 12 32 32 c 0,4 3.34375,4 3.34375,4 h 6.57813 C 170.53366,172 184,155.88224 184,136 184,118.61014 173.69781,104.10679 160,100.74219 V 92 A 64,64 0 0 0 96,28 Z"/>
  <path style="fill:#ffa32d" d="M 38.078324,96 C 21.466535,96 8,112.11776 8,132 c 0,19.88224 13.466535,36 30.078324,36 h 6.579636 v 0 c 0,0 3.34204,0 3.34204,-4 V 99.999996 C 48,96.5 44.7624,96 44.7624,96 Z"/>
  <path style="fill:#ffa32d" d="M 153.92168,96 C 170.53346,96 184,112.11776 184,132 c 0,19.88224 -13.46654,36 -30.07832,36 h -6.57964 v 0 c 0,0 -3.34204,0 -3.34204,-4 V 99.999996 C 144,96.5 147.2376,96 147.2376,96 Z"/>
  <path style="fill:#ffa32d" d="M 96,24 A 64,64 0 0 0 32,88 v 44 H 48 V 88 a 48,48 0 0 1 48,-48 48,48 0 0 1 48,48 v 44 h 16 V 88 A 64,64 0 0 0 96,24 Z"/>
  <path style="opacity:0.2;fill:#ffffff" d="M 96 24 A 64 64 0 0 0 32 88 L 32 89 A 64 64 0 0 1 96 25 A 64 64 0 0 1 160 89 L 160 88 A 64 64 0 0 0 96 24 z M 32 96.742188 C 18.302186 100.10679 8 114.61014 8 132 C 8 132.15698 8.0141666 132.30955 8.0195312 132.46484 C 8.2302945 115.31549 18.444264 101.07189 32 97.742188 L 32 96.742188 z M 160 96.742188 L 160 97.742188 C 173.55573 101.07189 183.76971 115.31549 183.98047 132.46484 C 183.98583 132.30955 184 132.15698 184 132 C 184 114.61014 173.69781 100.10679 160 96.742188 z "/>
  <path style="filter:url(#filter5115);opacity:0.2;fill:#000000" d="m 56,98 v 55.43945 C 71.016031,157.86657 86.060668,162.252 96,174 c 9.93933,-11.748 24.98397,-16.13343 40,-20.56055 V 98 c -18.62728,4.60301 -32.69607,11.61716 -40,22.21094 C 88.696073,109.61716 74.627277,102.60301 56,98 Z"/>
  <path style="fill:#f5f5f5" d="m 136,96 c -18.62728,4.60301 -32.69607,11.61775 -40,22.21153 V 172 c 9.93933,-11.748 24.98397,-16.13388 40,-20.561 z"/>
  <path style="fill:#e1e1e1" d="m 56,96 c 18.627277,4.60301 32.696073,11.61775 40,22.21153 V 172 C 86.060668,160.252 71.016031,155.86612 56,151.439 Z"/>
  <path style="opacity:0.2;fill:#ffffff" d="M 56 96 L 56 97 C 74.627277 101.60301 88.696073 108.61716 96 119.21094 C 103.30393 108.61716 117.37272 101.60301 136 97 L 136 96 C 117.37272 100.60301 103.30393 107.61716 96 118.21094 C 88.696073 107.61716 74.627277 100.60301 56 96 z "/>
</svg>
