<?xml version='1.0' encoding='utf-8'?>
<svg xmlns="http://www.w3.org/2000/svg" width="192" height="192" version="1" id="svg18">
  <defs>
    <filter style="color-interpolation-filters:sRGB" id="filter858" x="0.05" width="1.10" y="0.05" height="1.10">
      <feGaussianBlur stdDeviation="3.20"/>
    </filter>
    <filter style="color-interpolation-filters:sRGB" id="filter886" x="0.05" width="1.09" y="0.05" height="1.10">
      <feGaussianBlur stdDeviation="3.02"/>
    </filter>
    <filter style="color-interpolation-filters:sRGB" id="filter906" x="0.05" width="1.10" y="0.05" height="1.10">
      <feGaussianBlur stdDeviation="0.80"/>
    </filter>
  </defs>
  <rect transform="matrix(0,-1,-1,0,0,0)" ry="80" rx="80" y="-176" x="-180" height="160" width="160" style="filter:url(#filter858);opacity:0.20"/>
  <path d="m 176,96 c 0,-2.25 -3.54,-6.20 -3.72,-8.41 C 168.91,46.42 138.07,22.90 96,22.90 65.32,22.90 38.70,33.35 25.27,58.58 19.30,69.79 16.00,82.36 16.00,96 c 0,44.32 35.68,80 80.00,80 44.32,0 80,-35.68 80,-80 z" style="fill:#3878b7"/>
  <path d="m 96,20.00 c -32.85,0 -60.92,19.63 -73.27,47.83 0.63,1.86 -1.41,4.44 -2.01,6.82 -7.42,29.46 1.90,56.84 25.04,75.56 5.68,4.60 16.79,9.96 25.03,12.08 4.88,1.25 10.04,1.75 15.17,1.71 C 124,164.00 143.43,135.25 144,110.92 144,84.00 130.13,73.02 114.07,69.13 c -11.26,-2.69 -23.20,0.77 -30.34,8.79 -3.02,3.39 -5.72,8.97 -6.05,12.46 l 0.24,2.62 1.26,-1.68 C 84.02,84.20 89.48,81.24 96.56,81.65 c 14.70,2.64 19.44,13.25 19.44,21.99 0.65,11.63 -7.89,20.25 -17.98,25.42 -7.23,3.55 -13.10,4.18 -20.72,2.23 -13.61,-3.48 -25.24,-14.81 -28.53,-29.54 -1.14,-5.12 -1.21,-14.74 0.13,-20.37 4.16,-21.74 19.69,-38.62 40.29,-43.78 15.82,-3.97 34.13,-1.49 47.12,6.37 18.21,11.03 30.24,27.02 34.66,46.05 1.37,5.90 2.18,15.44 1.77,20.77 0.52,6.66 -2.62,16.44 -4.77,22.24 -1.50,4.05 -3.46,8.21 -5.64,12.19 C 170.84,132.37 176,116.81 176,100.00 c 0,-44.32 -35.68,-80.00 -80,-80.00 z" style="filter:url(#filter886);opacity:0.20"/>
  <path d="m 96,16 c -32.85,0 -60.92,19.63 -73.27,47.83 0.63,1.86 -1.41,4.44 -2.01,6.82 -7.42,29.46 1.90,56.84 25.04,75.56 5.68,4.60 16.79,9.96 25.03,12.08 4.88,1.25 10.04,1.75 15.17,1.71 C 124,160 143.43,131.25 144,106.92 144,80 130.13,69.03 114.07,65.13 c -11.26,-2.69 -23.20,0.77 -30.34,8.79 -3.02,3.39 -5.72,8.97 -6.05,12.46 L 77.45,89 78.70,87.32 C 84.02,80.20 89.48,77.24 96.56,77.65 111.26,80.29 116.01,90.90 116,99.64 c 0.65,11.63 -7.89,20.25 -17.98,25.42 -7.23,3.55 -13.10,4.18 -20.72,2.23 C 63.69,123.81 52.06,112.48 48.77,97.75 47.62,92.63 47.56,83.01 48.63,77.38 52.79,55.64 68.32,38.77 88.92,33.60 c 15.82,-3.97 34.13,-1.49 47.12,6.38 18.21,11.03 30.24,27.02 34.66,46.05 1.37,5.90 2.18,15.44 1.77,20.77 0.52,6.66 -2.62,16.44 -4.77,22.24 -1.50,4.05 -3.46,8.21 -5.64,12.19 C 170.84,128.37 176,112.82 176,96 176,51.68 140.32,16 96,16 Z" style="fill:#df6040"/>
  <circle r="20" cy="98" cx="96" style="filter:url(#filter906);opacity:0.10"/>
  <circle r="20" cy="96" cx="96" style="fill:#ffffff"/>
  <path style="opacity:0.20;fill:#ffffff" d="M 96 16 C 63.15 16 35.08 35.63 22.73 63.83 C 22.11 65.69 21.33 68.27 20.73 70.65 C 19.04 77.35 18.23 83.94 18.24 90.34 C 18.31 84.25 19.13 78.00 20.73 71.65 C 21.33 69.27 22.11 66.69 22.73 64.83 C 35.08 36.63 63.15 17 96 17 C 140.12 17 175.67 52.35 175.99 96.39 C 175.99 96.26 176 96.13 176 96 C 176 51.68 140.32 16 96 16 z M 105.58 64.24 C 97.14 64.46 89.08 67.91 83.73 73.92 C 80.72 77.32 78.01 82.89 77.69 86.38 L 77.45 89 L 77.55 88.86 L 77.69 87.38 C 78.01 83.89 80.72 78.32 83.73 74.92 C 90.87 66.90 102.81 63.44 114.07 66.13 C 129.98 69.99 143.73 80.80 143.99 107.18 C 143.99 107.09 144.00 107.01 144 106.92 C 144 80.00 130.13 69.03 114.07 65.13 C 111.26 64.46 108.40 64.17 105.58 64.24 z M 47.87 88.09 C 47.86 92.06 48.16 96.04 48.77 98.75 C 52.06 113.48 63.69 124.81 77.30 128.29 C 84.92 130.24 90.79 129.61 98.02 126.06 C 107.90 121.00 116.28 112.63 116.02 101.37 C 115.78 112.12 107.60 120.15 98.02 125.06 C 90.79 128.61 84.92 129.24 77.30 127.29 C 63.69 123.81 52.06 112.48 48.77 97.75 C 48.21 95.27 47.91 91.72 47.87 88.09 z M 172.56 104.66 C 172.54 105.43 172.51 106.15 172.46 106.80 C 171.94 113.46 169.84 123.23 167.69 129.04 C 166.19 133.09 164.23 137.25 162.05 141.23 C 162.95 139.90 163.81 138.54 164.64 137.16 C 165.78 134.79 166.81 132.40 167.69 130.04 C 169.84 124.23 171.94 114.46 172.46 107.80 C 172.53 106.87 172.56 105.80 172.56 104.66 z "/>
</svg>
