<svg xmlns="http://www.w3.org/2000/svg" id="svg26" width="192" height="192" version="1"><defs><filter style="color-interpolation-filters:sRGB" id="filter887" width="1.09" height="1.1" x=".05" y=".05"><feGaussianBlur stdDeviation="3.04"/></filter><filter style="color-interpolation-filters:sRGB" id="filter905" width="1.1" height="1.1" x=".05" y=".05"><feGaussianBlur stdDeviation=".32"/></filter><filter style="color-interpolation-filters:sRGB" id="filter2372" width="1.15" height="1.15" x=".07" y=".07"><feGaussianBlur stdDeviation="2.69"/></filter><filter style="color-interpolation-filters:sRGB" id="filter2737" width="1.06" height="1.24" x=".03" y=".12"><feGaussianBlur stdDeviation="2"/></filter></defs><path style="filter:url(#filter887);opacity:.2" d="M 68.20,32.15 57.36,44 H 32 c -8.80,0 -16,7.20 -16,16 v 96 c 0,8.80 7.20,16 16,16 h 128 c 8.80,0 16,-7.20 16,-16 V 60 c 0,-8.80 -7.20,-16 -16,-16 H 134.64 L 123.65,31.99 C 120,28 120,28 116,28 H 76 c -4,0 -4,0 -7.80,4.15 z"/><path style="fill:#f59101" d="M 68.20,28.15 57.36,40 H 32 c -8.80,0 -16,7.20 -16,16 v 96 c 0,8.80 7.20,16 16,16 h 128 c 8.80,0 16,-7.20 16,-16 V 56 c 0,-8.80 -7.20,-16 -16,-16 H 134.64 L 123.65,27.99 C 120,24 120,24 116,24 H 76 c -4,0 -4,0 -7.80,4.15 z"/><path style="filter:url(#filter2737);opacity:.15;fill:#000" d="m 68.17,38.06 -10.84,11.85 -7.77,2.15 C 41.07,54.40 32.47,57.02 26.35,63.33 L 16,74 h 160 l -11.51,-9.46 c -6.80,-5.59 -7.24,-16.86 -16,-16 l -13.88,1.37 -10.99,-12.01 c -3.65,-3.99 -3.65,-3.99 -7.65,-3.99 H 75.97 c -4,0 -4,0.00 -7.80,4.15 z"/><path style="fill:#ffc82b" d="M 68.20,28.15 57.36,40 H 32 C 23.20,40 16,47.20 16,56 V 72 H 176 V 56 c 0,-8.80 -7.20,-16 -16,-16 H 134.64 L 123.65,27.99 C 120,24 120,24 116,24 H 76 c -4,0 -4,0 -7.80,4.15 z"/><circle style="filter:url(#filter905);opacity:.1" cx="160" cy="58" r="8"/><circle style="fill:#fff" cx="160" cy="56" r="8"/><path style="opacity:.1;fill:#fff" d="m 76,24 c -4,0 -4.00,0.00 -7.80,4.15 L 57.36,40 H 32 c -8.80,0 -16,7.20 -16,16 v 1 C 16,48.20 23.20,41 32,41 H 57.36 L 68.20,29.15 C 72.00,25.00 72,25 76,25 h 40 c 4,0 4.00,0.00 7.65,3.99 L 134.64,41 H 160 c 8.80,0 16,7.20 16,16 v -1 c 0,-8.80 -7.20,-16 -16,-16 H 134.64 L 123.65,27.99 C 120.00,24.00 120,24 116,24 Z"/><circle style="filter:url(#filter2372);opacity:.2;fill:#000" cx="96" cy="-103" r="43" transform="matrix(1,0,0,-1,0,1.00)"/><circle style="fill:#fff" cx="96" cy="-101" r="43" transform="scale(1,-1)"/><circle style="fill:#f55a01" cx="96" cy="-101" r="30" transform="scale(1,-1)"/></svg>