<?xml version='1.0' encoding='utf-8'?>
<svg xmlns="http://www.w3.org/2000/svg" width="192" height="192" version="1" id="svg14">
  <defs>
    <filter style="color-interpolation-filters:sRGB" id="filter850" x="0.05" width="1.10" y="0.05" height="1.10">
      <feGaussianBlur stdDeviation="3.20"/>
    </filter>
    <filter style="color-interpolation-filters:sRGB" id="filter20931" x="0.07" y="0.08" width="1.15" height="1.15">
      <feGaussianBlur stdDeviation="3.75"/>
    </filter>
  </defs>
  <circle style="filter:url(#filter850);opacity:0.20;fill:#000000" cx="96" cy="100" r="80"/>
  <circle r="80" cy="96" cx="96" style="fill:#e4e4e4"/>
  <path style="filter:url(#filter20931);opacity:0.20;fill:#000000" d="m 94.42,38.00 c -1.76,0.02 -5.61,0.37 -8.19,0.79 -23.32,3.77 -42.42,21.29 -48.38,44.38 0.51,1.98 0.93,3.85 0.93,4.14 0,0.66 2.44,2.51 5.43,4.13 2.57,1.39 4.26,2.04 6.91,2.66 2.19,0.51 9.80,0.43 11.17,0.12 0.51,0.21 0.86,0.59 0.86,0.94 0.00,-1.55 1.69,-6.99 3.06,-9.84 4.34,-9.03 12.55,-15.95 22.25,-18.75 l 2.65,0.76 0.18,-5.27 c 0.24,-7.00 1.26,-10.84 4.66,-17.61 0.69,-1.37 1.25,-2.58 1.25,-2.70 0,0.07 0.36,0.10 0.94,0.09 z m 11.64,0.87 -1.79,2.69 c -1.83,2.75 -3.36,6.01 -4.12,8.77 0.96,3.51 0.78,12.04 0.28,12.70 0.19,0.12 1.00,0.31 1.78,0.43 3.58,0.54 9.08,2.75 12.63,5.10 7.50,4.95 12.91,12.60 15.21,21.55 l 0.34,1.33 h 4.33 c 6.75,0 11.49,1.17 17.83,4.40 1.63,0.83 3.07,1.52 3.20,1.53 0.71,0.05 0.21,-8.44 -1.46,-13.58 -4.66,-19.12 -18.48,-34.74 -37.05,-41.89 -2.78,-1.07 -7.67,-2.46 -9.89,-2.80 z M 96,84.00 a 14,14 0 0 0 -14,14 14,14 0 0 0 14,14.00 14,14 0 0 0 14,-14.00 14,14 0 0 0 -14,-14 z M 36.16,98.75 c 0.05,0.01 0.09,0.01 0.10,0.00 0.30,0.30 0.53,8.28 1.18,11.43 4.65,22.38 21.67,40.19 43.90,45.96 v 0.00 c 1.89,0.49 3.75,0.90 4.12,0.90 1.31,0.03 4.90,-5.89 6.34,-10.46 0.88,-2.78 1.19,-8.37 0.65,-11.44 0.32,-1.81 0.50,-2.18 -1.06,-2.29 -8.53,-1.71 -13.57,-4.24 -19.17,-9.65 -4.55,-4.39 -7.49,-9.17 -9.46,-15.38 l 0.99,-3.12 -4.45,0.03 c -6.50,0.05 -11.26,-1.27 -17.81,-4.56 -1.48,0.74 -2.79,-1.31 -3.16,-1.37 z m 101.48,2.74 c 0.49,0.00 0.98,0.02 -1.49,0.05 -4.43,0.25 -5.13,0.42 -5.30,1.25 0.70,3.49 -1.67,6.79 -2.64,8.99 -4.46,10.07 -13.27,17.43 -24.25,20.25 l -1.25,0.32 0.04,4.50 c 0.06,6.54 -1.26,11.27 -4.53,17.79 0.84,1.68 -1.53,3.12 -1.53,3.20 0,0.30 3.50,0.14 7.09,0.33 13.67,-1.79 25.94,-7.98 35.44,-17.88 6.19,-6.45 10.54,-13.44 13.41,-21.55 0.98,-2.77 2.49,-8.54 2.49,-9.53 0.00,0.70 -5.01,-4.00 -7.92,-5.21 -3.12,-1.30 -6.09,-1.88 -9.49,-1.85 z"/>
  <path style="fill:#38adfa" d="m 688.81,257.00 c 0.33,0.33 -1.19,0.37 -1.92,0.08 0.80,0.32 0.56,0.56 0.60,0.60 1.05,0.04 1.64,0.19 1.31,0.53 z"/>
  <path style="opacity:0.20;fill:#ffffff" d="M 96 16 A 80 80 0 0 0 16 96 A 80 80 0 0 0 16.02 96.47 A 80 80 0 0 1 96 17 A 80 80 0 0 1 175.97 96.51 A 80 80 0 0 0 176 96 A 80 80 0 0 0 96 16 z "/>
  <path style="fill:#00ab95" d="m 49.27,92.10 c -2.65,0.62 -4.34,-1.27 -6.91,-2.66 -2.99,-1.61 -5.43,-3.47 -5.43,-4.13 0,0.30 0.42,-2.16 0.93,-4.15 C 43.81,58.08 62.91,40.56 86.23,36.79 89.67,36.23 95.36,35.80 95.36,36.10 c 0,0.11 0.56,1.33 -1.25,2.70 -3.41,6.78 -4.42,10.61 -4.66,17.61 l 0.18,5.27 -2.65,0.76 c -9.70,2.80 -17.92,9.72 -22.25,18.75 -1.37,2.85 -3.07,8.30 -3.07,9.84 0,0.35 0.35,0.73 0.86,0.94 -1.37,0.55 -8.98,0.64 -11.17,0.13 z"/>
  <path style="fill:#2f69b8" d="m 152.55,93.82 c -6.34,-3.23 -11.09,-4.40 -17.83,-4.40 h -4.33 l 0.34,-1.33 c -2.30,-8.94 -7.70,-16.60 -15.21,-21.55 -3.55,-2.34 -9.05,-4.56 -12.63,-5.10 0.79,0.12 -1.59,0.31 -1.78,0.43 -1.06,0.65 -1.24,-9.19 0.28,-12.70 0.76,-2.76 2.29,-6.01 4.12,-8.77 l 1.79,-2.68 1.29,0.20 c 2.22,0.34 7.11,1.73 9.89,2.80 18.58,7.16 32.39,22.77 37.05,41.90 1.25,5.14 2.17,13.63 1.46,13.58 0.13,0.01 -1.57,0.70 -3.20,-1.53 z"/>
  <path style="fill:#0b9dd4" d="m 81.15,154.14 c -22.23,-5.77 -39.25,-23.58 -43.90,-45.96 0.65,-3.15 -1.48,-11.13 -1.18,-11.43 0.10,0.10 1.56,0.52 3.26,1.37 6.56,3.29 11.31,4.51 17.81,4.56 l 4.45,0.03 0.99,3.13 c 1.97,6.21 4.91,10.99 9.46,15.38 5.60,5.40 10.64,7.94 19.17,9.65 0.56,0.11 0.74,0.49 1.06,2.30 0.55,3.07 0.23,8.65 0.65,11.44 -1.44,4.56 -5.03,10.48 -6.34,10.46 0.38,0.01 -2.23,0.42 -4.12,0.91 z"/>
  <path style="fill:#f09200" d="m 96.61,155.85 c 0,0.08 0.69,-1.52 1.53,-3.20 3.26,-6.52 4.47,-11.25 4.52,-17.79 l 0.04,-4.50 1.25,0.32 c 10.98,-2.82 19.79,-10.18 24.25,-20.25 0.98,-2.20 1.94,-5.50 2.64,-8.99 0.17,0.83 0.87,-1.00 5.30,-1.25 4.04,0.23 7.42,0.32 10.98,1.80 2.91,1.21 7.92,4.50 7.92,5.21 0.00,0.98 -1.51,6.76 -2.49,9.53 -2.87,8.12 -7.22,15.10 -13.41,21.55 -9.50,9.90 -21.77,16.09 -35.44,17.88 -3.59,0.47 -7.09,0.64 -7.09,0.33 z"/>
  <circle style="fill:#d93b3b" cx="96" cy="96" r="14"/>
</svg>
