<?xml version='1.0' encoding='utf-8'?>
<svg xmlns="http://www.w3.org/2000/svg" width="192" height="192" version="1" id="svg14">
  <defs>
    <filter style="color-interpolation-filters:sRGB" id="filter850" x="0.05" width="1.10" y="0.05" height="1.10">
      <feGaussianBlur stdDeviation="3.20"/>
    </filter>
    <filter style="color-interpolation-filters:sRGB" id="filter4077" x="0.07" y="0.07" width="1.15" height="1.15">
      <feGaussianBlur stdDeviation="3.75"/>
    </filter>
  </defs>
  <circle style="filter:url(#filter850);opacity:0.20;fill:#000000" cx="96" cy="100" r="80"/>
  <circle r="80" cy="96" cx="96" style="fill:#e4e4e4"/>
  <path style="filter:url(#filter4077);opacity:0.20;fill:#000000" d="M 96,38 A 60,60 0 0 0 36,98 60,60 0 0 0 96,158 60,60 0 0 0 156,98 60,60 0 0 0 96,38 Z m 0,4 A 56,56 0 0 1 152,98 56,56 0 0 1 96,154 56,56 0 0 1 40,98 56,56 0 0 1 96,42 Z m 28,18 A 10,10 0 0 0 114,70 10,10 0 0 0 124,80 10,10 0 0 0 134,70 10,10 0 0 0 124,60 Z M 96,68 A 30,30 0 0 0 66,98 30,30 0 0 0 96,128 30,30 0 0 0 126,98 30,30 0 0 0 121.86,82.80 13,13 0 0 1 111.20,72.14 30,30 0 0 0 96,68 Z M 82,83 h 5 c 0.82,0.08 1.35,1.05 1.87,2.03 C 91.81,89.63 96,97.04 96,97.04 c 0,0 4.28,-7.08 7.13,-11.92 C 103.62,84.29 103.92,83.23 105,83 h 5 c 0.55,0 1,0.45 1,1 v 24.73 c 0.06,0.86 0.13,1.28 0.23,1.43 0.20,0.29 1.78,0.84 2.64,1.23 1.13,0.51 1.54,0.82 1.48,1.13 0.07,0.38 0.66,0.43 -5.20,0.49 0.78,0.01 -1.51,0.00 -2.18,0.01 H 105 c 0.55,0 -1,0.45 -1,-1 V 97.98 l -4.71,8.36 c 0,0 0.47,0.74 -1.29,0.66 H 95.73 94.31 c 0.72,0 -1.22,0.63 -1.22,0.63 C 91.47,103.52 88,97.84 88,97.84 V 112 c 0,0.55 0.45,1 -1,1 h -5 c 0.55,0 -1,0.45 -1,-1 V 84 c 0,0.55 0.45,-1 1,-1 z"/>
  <path style="fill:#3f3f3f" d="M 96 36 A 60 60 0 0 0 36 96 A 60 60 0 0 0 96 156 A 60 60 0 0 0 156 96 A 60 60 0 0 0 96 36 z M 96 40 A 56 56 0 0 1 152 96 A 56 56 0 0 1 96 152 A 56 56 0 0 1 40 96 A 56 56 0 0 1 96 40 z M 124 58 A 10 10 0 0 0 114 68 A 10 10 0 0 0 124 78 A 10 10 0 0 0 134 68 A 10 10 0 0 0 124 58 z M 96 66 A 30 30 0 0 0 66 96 A 30 30 0 0 0 96 126 A 30 30 0 0 0 126 96 A 30 30 0 0 0 121.86 80.80 A 13 13 0 0 1 111.20 70.14 A 30 30 0 0 0 96 66 z M 82 81 L 87 81 C 87.82 81.08 88.35 82.05 88.87 83.03 C 91.81 87.63 96 95.04 96 95.04 C 96 95.04 100.28 87.97 103.13 83.13 C 103.62 82.29 103.92 81.23 105 81 L 110 81 C 110.55 81 111 81.45 111 82 L 111 106.73 C 111.06 107.59 111.13 108.01 111.23 108.16 C 111.44 108.45 113.01 109.01 113.87 109.39 C 115.00 109.90 115.41 110.22 115.36 110.52 C 115.28 110.90 114.70 110.96 110.15 111.01 C 109.37 111.02 108.64 111.02 107.98 111 L 105 111 C 104.45 111 104 110.55 104 110 L 104 95.98 L 99.29 104.34 C 99.29 104.34 98.82 105.08 98.00 105 L 95.73 105 L 94.31 105 C 93.60 105 93.09 104.37 93.09 104.37 C 91.47 101.52 88 95.84 88 95.84 L 88 110 C 88 110.55 87.55 111 87 111 L 82 111 C 81.45 111 81 110.55 81 110 L 81 82 C 81 81.45 81.45 81 82 81 z "/>
  <path style="fill:#38adfa" d="m 688.81,257.00 c 0.33,0.33 -1.19,0.37 -1.92,0.08 0.80,0.32 0.56,0.56 0.60,0.60 1.05,0.04 1.64,0.19 1.31,0.53 z"/>
  <path style="opacity:0.20;fill:#ffffff" d="M 96 16 A 80 80 0 0 0 16 96 A 80 80 0 0 0 16.02 96.47 A 80 80 0 0 1 96 17 A 80 80 0 0 1 175.97 96.51 A 80 80 0 0 0 176 96 A 80 80 0 0 0 96 16 z "/>
</svg>
