<svg xmlns="http://www.w3.org/2000/svg" id="svg14" width="192" height="192" version="1.1"><defs><filter style="color-interpolation-filters:sRGB" id="filter849" width="1.1" height="1.1" x=".05" y=".05"><feGaussianBlur stdDeviation="3.2"/></filter><filter style="color-interpolation-filters:sRGB" id="filter2035" width="1.12" height="1.21" x=".06" y=".1"><feGaussianBlur stdDeviation="2.44"/></filter></defs><rect style="filter:url(#filter849);opacity:.2" width="160" height="160" x="16" y="20" rx="32" ry="32"/><rect style="fill:#515d5c" width="160" height="160" x="16" y="16" rx="32" ry="32"/><path style="opacity:.1;fill:#fff" d="M 48,16 C 30.27,16 16,30.27 16,48 v 1 C 16,31.27 30.27,17 48,17 h 96 c 17.73,0 32,14.27 32,32 V 48 C 176,30.27 161.73,16 144,16 Z"/><path style="filter:url(#filter2035);opacity:.2;fill:#000" d="m 123,70 -5.66,5.73 -16.75,16.95 c 0.78,0.79 0.78,2.07 0,2.86 l 2.83,2.86 c 0.78,0.79 2.05,0.79 2.83,0 L 119,85.50 V 115 c 0,1.11 0.89,2 2,2 h 4 c 1.11,0 2,0.89 2,-2 V 85.50 l 12.75,12.91 C 140.15,98.80 140.66,99 141.17,99 c 0.51,0 1.02,0.20 1.42,0.60 l 2.83,-2.86 c 0.78,0.79 0.78,-2.07 0,-2.87 L 128.66,75.72 Z m -56,9 c -1.11,0 -2,0.89 -2,2 v 29.50 L 52.25,97.60 C 51.85,97.20 51.34,97.00 50.83,97 c 0.51,0 -1.02,0.20 -1.42,0.60 l -2.83,2.86 c 0.78,0.79 0.78,2.07 0,2.87 L 63.34,120.28 69,126 l 5.66,-5.73 16.75,-16.95 c 0.78,0.79 0.78,-2.07 0,-2.86 l -2.83,-2.86 c 0.78,0.79 -2.05,0.79 -2.83,0 L 73,110.50 V 81 c 0,-1.11 0.89,-2 -2,-2 z"/><path style="fill:#29d23b" d="m 67,77 c -1.11,0 -2,0.89 -2,2 v 29.50 L 52.25,95.60 C 51.85,95.20 51.34,95.00 50.83,95 c 0.51,0 -1.02,0.20 -1.42,0.60 l -2.83,2.86 c 0.78,0.79 0.78,2.07 0,2.87 L 63.34,118.28 69,124 l 5.66,-5.73 16.75,-16.95 c 0.78,0.79 0.78,-2.07 0,-2.86 l -2.83,-2.86 c 0.78,0.79 -2.05,0.79 -2.83,0 L 73,108.50 V 79 c 0,-1.11 0.89,-2 -2,-2 z"/><path style="fill:#00e6b5" d="m 123,68 -5.66,5.73 -16.75,16.95 c 0.78,0.79 0.78,2.07 0,2.86 l 2.83,2.86 c 0.78,0.79 2.05,0.79 2.83,0 L 119,83.50 V 113 c 0,1.11 0.89,2 2,2 h 4 c 1.11,0 2,0.89 2,-2 V 83.50 l 12.75,12.91 C 140.15,96.80 140.66,97 141.17,97 c 0.51,0 1.02,0.20 1.42,0.60 l 2.83,-2.86 c 0.78,0.79 0.78,-2.07 0,-2.87 L 128.66,73.72 Z"/><path style="opacity:.2;fill:#fff" d="M 123 68 L 117.34 73.73 L 100.59 90.68 C 100.07 91.21 99.90 91.94 100.07 92.61 C 100.16 92.27 100.32 91.95 100.59 91.68 L 117.34 74.73 L 123 69 L 128.66 74.72 L 145.41 91.68 C 145.68 91.94 145.84 92.27 145.93 92.61 C 146.10 91.94 145.93 91.20 145.41 90.68 L 128.66 73.72 L 123 68 z M 67 77 C 65.89 77 65 77.89 65 79 L 65 80 C 65 78.89 65.89 78 67 78 L 71 78 C 72.11 78 73 78.89 73 80 L 73 79 C 73 77.89 72.11 77 71 77 L 67 77 z M 50.83 95 C 50.32 95 49.81 95.20 49.42 95.60 L 46.59 98.46 C 46.07 98.98 45.90 99.72 46.07 100.39 C 46.16 100.05 46.32 99.72 46.59 99.46 L 49.42 96.60 C 49.81 96.20 50.32 96 50.83 96 C 51.34 96.00 51.85 96.20 52.25 96.60 L 65 109.50 L 65 108.50 L 52.25 95.60 C 51.85 95.20 51.34 95.00 50.83 95 z M 87.17 95 C 86.66 95 86.15 95.20 85.75 95.60 L 73 108.50 L 73 109.50 L 85.75 96.60 C 86.54 95.80 87.80 95.80 88.58 96.60 L 91.41 99.46 C 91.68 99.72 91.84 100.05 91.93 100.39 C 92.10 99.72 91.93 98.98 91.41 98.46 L 88.58 95.60 C 88.19 95.20 87.68 95 87.17 95 z"/></svg>