<?xml version='1.0' encoding='utf-8'?>
<svg xmlns="http://www.w3.org/2000/svg" width="192" height="192" version="1" id="svg12">
  <defs>
    <filter style="color-interpolation-filters:sRGB" id="filter955" x="0.05" width="1.10" y="0.05" height="1.10">
      <feGaussianBlur stdDeviation="3.20"/>
    </filter>
    <filter style="color-interpolation-filters:sRGB" id="filter1083" x="0.06" y="0.09" width="1.13" height="1.19">
      <feGaussianBlur stdDeviation="2.89"/>
    </filter>
  </defs>
  <rect style="filter:url(#filter955);opacity:0.20;fill:#000000" width="160" height="160" x="16" y="20" rx="30" ry="30"/>
  <rect style="fill:#e4e4e4" width="160" height="160" x="16" y="16" rx="30" ry="30"/>
  <path style="opacity:0.20;fill:#ffffff" d="M 46 16 C 29.38 16 16 29.38 16 46 L 16 47 C 16 30.38 29.38 17 46 17 L 146 17 C 162.62 17 176 30.38 176 47 L 176 46 C 176 29.38 162.62 16 146 16 L 46 16 z "/>
  <path style="filter:url(#filter1083);opacity:0.20;fill:#000000" d="m 41.05,127.72 c 0.17,-1.79 0.02,-2.06 1.48,-2.07 0.65,0.00 1.22,0.30 1.84,0.97 0.50,0.53 1.47,-1.22 2.17,-1.53 1.02,0.46 1.24,0.70 1.15,-1.27 0.06,0.38 -1.29,-10.33 -2.72,-22.10 L 42.36,78.37 43.16,75.83 c 0.86,-2.77 1.94,-4.89 3.98,-7.82 0.89,-1.29 1.27,-2.10 1.15,-2.53 0.47,-1.80 2.98,-6.01 6.77,-8.27 5.54,-3.30 11.26,-3.38 11.26,0.16 0,4.27 -7.90,10.12 -14.19,10.50 l -2.36,0.14 -1.20,1.73 c -1.62,2.33 -2.08,3.27 -3.10,6.42 l 0.87,2.68 2.71,21.96 c 1.49,12.08 2.72,21.97 2.72,21.99 0.01,0.02 0.65,0.11 1.43,0.20 0.78,0.09 1.83,0.46 2.33,0.84 0.76,0.56 1.16,0.64 2.27,0.48 0.74,0.11 1.35,0.33 1.35,0.47 0,0.15 0.62,-5.32 -1.38,-11.50 0.76,-6.17 -1.38,-11.56 -1.38,-11.96 0,0.65 0.18,0.76 1.54,0.95 1.30,0.18 1.54,0.31 1.53,0.87 0.00,0.36 0.21,-1.06 0.46,-1.55 0.52,0.99 0.15,-1.82 0.67,-1.51 0.33,0.13 0.42,0.44 0.29,1.13 0.22,1.21 0.16,2.70 0.62,2.40 0.19,0.12 0.58,0.68 0.86,-1.24 0.50,0.97 0.49,-1.29 0.14,-6.33 0.62,-4.97 0.63,-5.38 0.17,-6.36 0.27,0.58 0.89,-1.28 1.37,-1.57 0.63,0.37 4.76,0.99 14.81,-2.22 7.67,0.94 20.92,-2.55 29.45,-3.60 14.02,-1.71 15.59,-1.85 16.40,-1.46 1.82,0.90 2.07,1.61 2.91,8.44 l 0.78,6.33 0.94,0.17 c 2.14,0.38 5.08,0.56 5.10,0.30 0.01,0.15 0.67,5.59 1.47,12.10 l 1.46,11.82 1.11,0.09 c 0.96,0.08 1.29,0.09 2.45,-1.27 0.82,0.84 1.85,-1.52 2.64,-1.75 1.42,0.43 1.51,0.60 0.85,-1.61 0.53,0.81 0.19,-1.56 0.64,-1.39 0.46,0.09 0.56,0.36 0.51,1.26 0.06,1.09 0.03,1.14 0.92,1.14 1.56,0.00 3.31,0.60 4.11,1.40 0.63,0.63 0.93,0.71 2.08,0.55 l 1.34,0.18 0.22,1.60 c 0.12,0.88 0.10,1.71 0.04,1.84 0.14,0.13 -3.79,0.66 -8.09,1.19 -4.31,0.52 -25.31,3.10 -46.68,5.72 -47.49,5.82 -54.11,6.62 -54.55,6.62 0.19,0.00 0.41,0.72 0.50,-1.61 z"/>
  <path style="fill:#3e406c" d="m 41.05,125.72 c 0.17,-1.79 0.02,-2.06 1.48,-2.07 0.65,0.00 1.22,0.30 1.84,0.97 0.50,0.53 1.47,-1.22 2.17,-1.53 1.02,0.46 1.24,0.70 1.15,-1.27 0.06,0.38 -1.29,-10.33 -2.72,-22.10 l -2.61,-21.41 0.79,-2.55 c 0.86,-2.77 1.94,-4.89 3.98,-7.82 0.89,-1.29 1.27,-2.10 1.15,-2.53 0.47,-1.80 2.98,-6.01 6.77,-8.27 5.54,-3.30 11.26,-3.38 11.26,0.16 0,4.27 -7.90,10.12 -14.19,10.50 l -2.36,0.14 -1.20,1.73 c -1.62,2.33 -2.08,3.27 -3.10,6.42 l 0.87,2.68 2.71,21.96 c 1.49,12.08 2.72,21.97 2.72,21.99 0.01,0.02 0.65,0.11 1.43,0.20 0.78,0.09 1.83,0.46 2.33,0.84 0.76,0.56 1.16,0.64 2.27,0.48 0.74,0.11 1.35,0.33 1.35,0.47 0,0.15 0.62,-5.32 -1.38,-11.50 0.76,-6.17 -1.38,-11.56 -1.38,-11.96 0,0.65 0.18,0.76 1.54,0.95 1.30,0.18 1.54,0.31 1.53,0.87 0.00,0.36 0.21,-1.06 0.46,-1.55 0.52,0.99 0.15,-1.82 0.67,-1.51 0.33,0.13 0.42,0.44 0.29,1.13 0.22,1.21 0.16,2.70 0.62,2.40 0.19,0.12 0.58,0.68 0.86,-1.24 0.50,0.97 0.49,-1.29 0.14,-6.33 0.62,-4.97 0.63,-5.38 0.17,-6.36 0.27,0.58 0.89,-1.28 1.37,-1.57 0.63,0.37 4.76,0.99 14.81,-2.22 7.67,0.94 20.92,-2.55 29.45,-3.60 14.02,-1.71 15.59,-1.85 16.40,-1.46 1.82,0.90 2.07,1.61 2.91,8.44 l 0.78,6.33 0.94,0.17 c 2.14,0.38 5.08,0.56 5.10,0.30 0.01,0.15 0.67,5.59 1.47,12.10 l 1.46,11.82 1.11,0.09 c 0.96,0.08 1.29,0.09 2.45,-1.27 0.82,0.84 1.85,-1.52 2.64,-1.75 1.42,0.43 1.51,0.60 0.85,-1.61 0.53,0.81 0.19,-1.56 0.64,-1.39 0.46,0.09 0.56,0.36 0.51,1.26 0.06,1.09 0.03,1.14 0.92,1.14 1.56,0.00 3.31,0.60 4.11,1.40 0.63,0.63 0.93,0.71 2.08,0.55 l 1.34,0.18 0.22,1.60 c 0.12,0.88 0.10,1.71 0.04,1.84 0.14,0.13 -3.79,0.66 -8.09,1.19 -4.31,0.52 -25.31,3.10 -46.68,5.72 -47.49,5.82 -54.11,6.62 -54.55,6.62 0.19,0.00 0.41,0.72 0.50,-1.61 z"/>
</svg>
