<?xml version='1.0' encoding='utf-8'?>
<svg xmlns="http://www.w3.org/2000/svg" width="192" height="192" version="1" id="svg12">
  <defs>
    <filter style="color-interpolation-filters:sRGB" id="filter856" x="0.05" width="1.10" y="0.05" height="1.10">
      <feGaussianBlur stdDeviation="3.20"/>
    </filter>
    <filter style="color-interpolation-filters:sRGB" id="filter893" x="0.06" width="1.11" y="0.04" height="1.08">
      <feGaussianBlur stdDeviation="1.96"/>
    </filter>
  </defs>
  <rect style="filter:url(#filter856);opacity:0.20" width="160" height="160" x="16" y="20" rx="8" ry="8"/>
  <rect style="fill:#fa4778" width="160" height="160" x="16" y="16" rx="8" ry="8"/>
  <path style="opacity:0.20;fill:#ffffff" d="M 24 16 C 19.57 16 16 19.57 16 24 L 16 25 C 16 20.57 19.57 17 24 17 L 168 17 C 172.43 17 176 20.57 176 25 L 176 24 C 176 19.57 172.43 16 168 16 L 24 16 z "/>
  <path style="filter:url(#filter893);opacity:0.20;fill:#000000;color:#000000;font-stretch:normal;font-variant-ligatures:normal;font-variant-position:normal;font-variant-caps:normal;font-variant-numeric:normal;font-variant-alternates:normal;font-feature-settings:normal;text-indent:0;text-align:start;text-decoration-line:none;text-decoration-style:solid;text-decoration-color:#000000;text-transform:none;writing-mode:lr-tb;direction:ltr;text-orientation:mixed;dominant-baseline:auto;baseline-shift:baseline;white-space:normal;shape-padding:0;clip-rule:nonzero;display:inline;overflow:visible;visibility:visible;isolation:auto;mix-blend-mode:normal;color-interpolation:sRGB;color-interpolation-filters:linearRGB;solid-color:#000000;solid-opacity:1;vector-effect:none;fill-rule:nonzero;color-rendering:auto;image-rendering:auto;shape-rendering:auto;text-rendering:auto;enable-background:accumulate" d="m 58,42.00 a 6.00,6.00 0 0 0 -6,6 v 100.00 a 6.00,6.00 0 0 0 10.48,3.98 L 92.70,118.00 H 118 a 6.00,6.00 0 0 0 5.90,-4.89 l 6,-32.00 6,-32 A 6.00,6.00 0 0 0 130,42.00 Z m 6,12 h 58.77 l -3.75,20 H 90 a 6.00,6.00 0 0 0 -1.19,0.13 6.00,6.00 0 0 0 0.58,0.16 6.00,6.00 0 0 0 -1.10,0.48 6.00,6.00 0 0 0 -1.41,1.11 6.00,6.00 0 0 0 0.73,0.95 6.00,6.00 0 0 0 0.29,0.53 6.00,6.00 0 0 0 0.24,0.55 6.00,6.00 0 0 0 0.37,1.76 6.00,6.00 0 0 0 0.00,0.60 6.00,6.00 0 0 0 0.17,1.19 6.00,6.00 0 0 0 0.17,0.57 6.00,6.00 0 0 0 0.23,0.55 6.00,6.00 0 0 0 0.29,0.53 6.00,6.00 0 0 0 0.33,0.50 6.00,6.00 0 0 0 0.81,0.88 6.00,6.00 0 0 0 0.47,0.38 6.00,6.00 0 0 0 1.04,0.60 6.00,6.00 0 0 0 1.13,0.39 6.00,6.00 0 0 0 0.59,0.11 A 6.00,6.00 0 0 0 90,86.00 h 26.77 l -3.75,20.00 H 90 a 6.00,6.00 0 0 0 -4.48,2.01 L 64,132.22 Z"/>
  <path style="fill:none;stroke:#ffffff;stroke-width:12;stroke-linejoin:round" d="M 130,46 H 58 v 100 l 32,-36 h 28 l 6,-32 h -34 34 z"/>
</svg>
