<?xml version='1.0' encoding='utf-8'?>
<svg xmlns="http://www.w3.org/2000/svg" width="192" height="192" version="1" id="svg18">
  <defs>
    <filter style="color-interpolation-filters:sRGB" id="filter855" x="0.05" width="1.09" y="0.05" height="1.10">
      <feGaussianBlur stdDeviation="3.04"/>
    </filter>
    <filter style="color-interpolation-filters:sRGB" id="filter2048" x="0.10" y="0.11" width="1.21" height="1.22">
      <feGaussianBlur stdDeviation="3.65"/>
    </filter>
  </defs>
  <path style="filter:url(#filter855);opacity:0.20;fill:#000000" d="M 24.89,28 C 19.96,28 16,33.08 16,38 v 104 c 0,4.92 3.96,10 8.89,10 h 75.11 l 20,20 20,-20 h 27.11 c 4.92,0 8.89,-5.08 8.89,-10 V 38 c 0,-4.92 -3.96,-10 -8.89,-10 z"/>
  <path d="M 24.89,24 C 19.96,24 16,29.08 16,34 v 104 c 0,4.92 3.96,10 8.89,10 h 75.11 l 20,20 20,-20 h 27.11 c 4.92,0 8.89,-5.08 8.89,-10 V 34 c 0,-4.92 -3.96,-10 -8.89,-10 z" style="fill:#5dbf21"/>
  <path style="opacity:0.20;fill:#ffffff" d="M 24.89,24 C 19.97,24 16,29.08 16,34 v 1 c 0,-4.92 3.97,-10 8.89,-10 H 167.11 C 172.03,25 176,30.08 176,35 v -1 c 0,-4.92 -3.97,-10 -8.89,-10 z"/>
  <path style="filter:url(#filter2048);opacity:0.20;fill:#000000;color:#000000" d="m 96.86,49.00 c 0.76,0.00 -1.52,0.03 -2.29,0.08 -4.08,0.26 -8.16,1.16 -12.09,2.75 -14.82,5.98 -24.41,20.38 -24.40,36.17 h -4.03 c -1.58,0.00 -2.56,1.61 -1.78,2.90 l 3.58,5.86 3.58,6.26 c 0.79,1.29 3.36,1.29 4.15,0 l 3.58,-6.26 3.58,-5.86 c 0.79,-1.29 0.20,-2.90 -1.77,-2.90 h -3.81 c 0.01,-12.94 7.81,-24.69 19.96,-29.60 12.90,-5.20 27.64,-1.48 36.51,9.23 8.87,10.71 9.80,25.89 2.29,37.59 -7.51,11.70 -21.69,17.19 -35.12,13.60 -1.89,0.51 -3.84,0.61 -4.34,2.51 0.51,1.89 0.62,3.84 2.51,4.34 16.39,4.39 33.77,-2.34 42.92,-16.62 9.16,-14.28 8.02,-32.88 -2.80,-45.94 -7.61,-9.18 -18.80,-14.17 -30.25,-14.11 z m 0.14,11 a 4,4 0 0 0 -4,4 v 24 a 4.00,4.00 0 0 0 4,4 h 24 a 4,4 0 0 0 4,-4 4,4 0 0 0 -4,-4 h -20 v -20 a 4,4 0 0 0 -4,-4 z"/>
  <path style="fill:#ffffff;color:#000000" d="M 96.86 47 C 96.09 47.00 95.33 47.03 94.57 47.08 C 90.49 47.34 86.41 48.25 82.48 49.83 C 67.66 55.81 58.07 70.21 58.08 86.00 L 54.05 86.00 C 52.47 86.00 51.49 87.62 52.28 88.91 L 55.86 94.77 L 59.44 101.03 C 60.23 102.32 62.80 102.32 63.59 101.03 L 67.17 94.77 L 70.75 88.91 C 71.54 87.62 70.56 86.01 68.98 86.00 L 65.17 86.00 C 65.16 73.06 72.98 61.31 85.13 56.41 C 98.03 51.20 112.77 54.93 121.64 65.64 C 130.52 76.34 131.44 91.52 123.94 103.23 C 116.43 114.93 102.25 120.42 88.82 116.82 C 86.92 116.31 84.98 117.44 84.47 119.33 C 83.97 121.22 85.09 123.16 86.98 123.67 C 103.37 128.06 120.75 121.33 129.90 107.05 C 139.06 92.78 137.93 74.17 127.10 61.11 C 119.49 51.93 108.30 46.94 96.86 47 z M 97 58 A 4 4 0 0 0 93 62 L 93 86 A 4.00 4.00 0 0 0 97 90 L 121 90 A 4 4 0 0 0 125 86 A 4 4 0 0 0 121 82 L 101 82 L 101 62 A 4 4 0 0 0 97 58 z "/>
</svg>
