<svg xmlns="http://www.w3.org/2000/svg" id="svg12" width="192" height="192" version="1"><defs><filter style="color-interpolation-filters:sRGB" id="filter14732" width="1.11" height="1.26" x=".05" y=".13"><feGaussianBlur stdDeviation="2.77"/></filter><filter style="color-interpolation-filters:sRGB" id="filter14736" width="1.14" height="1.16" x=".07" y=".08"><feGaussianBlur stdDeviation="3.67"/></filter><filter style="color-interpolation-filters:sRGB" id="filter14843" width="1.21" height="1.12" x=".1" y=".06"><feGaussianBlur stdDeviation="3.03"/></filter></defs><path style="filter:url(#filter14736);opacity:.2;fill:#000" d="m 49,19 c -8.86,0 -16,7.14 -16,16 v 93.10 H 159 V 35 c 0,-8.86 -7.14,-16 -16,-16 z"/><path style="fill:#ef3b3c" d="m 49,16 c -8.86,0 -16,7.14 -16,16 v 93.10 H 159 V 32 c 0,-8.86 -7.14,-16 -16,-16 z"/><path style="filter:url(#filter14732);opacity:.2;fill:#000" d="m 33,128 v 35 c 0,8.86 7.14,16 16,16 h 94 c 8.86,0 16,-7.14 16,-16 v -35 z"/><path style="fill:#ff714b" d="M 33 125 L 33 160 C 33 168.86 40.14 176 49 176 L 143 176 C 151.86 176 159 168.86 159 160 L 159 125 L 33 125 z"/><path style="opacity:.2;fill:#fff" d="M 49 16 C 40.14 16 33 23.14 33 32 L 33 33 C 33 24.14 40.14 17 49 17 L 143 17 C 151.86 17 159 24.14 159 33 L 159 32 C 159 23.14 151.86 16 143 16 L 49 16 z"/><path style="opacity:.2;fill:#fff" d="M 33 125 L 33 126 L 159 126 L 159 125 L 33 125 z"/><path style="filter:url(#filter14843);opacity:.2;fill:#000;color:#000" d="m 95.97,40.00 c 0.52,0.00 -1.05,0.02 -1.57,0.06 -1.20,0.09 -2.41,0.29 -3.61,0.59 -9.59,2.46 -16.20,11.67 -15.77,21.56 0.12,2.76 2.45,4.90 5.21,4.78 2.76,0.12 4.90,-2.45 4.78,-5.21 0.23,-5.23 3.19,-10.14 8.26,-11.44 5.07,-1.30 10.28,1.10 12.60,5.79 2.31,4.69 0.84,10.05 -3.08,13.52 -2.66,2.35 -5.48,5.03 -7.40,7.41 C 92.82,80.28 91,84.69 91,90 c 0,2.76 2.24,5 5,5 2.76,0 5,-2.24 5,-5 0,-3.38 0.70,-4.82 2.20,-6.71 2.82,-3.55 5.73,-5.53 8.33,-8.17 5.71,-6.29 7.16,-15.59 3.31,-23.41 C 111.25,44.43 103.82,40.00 95.97,40.00 Z M 96,100 a 6,6 0 0 0 -6,6 6,6 0 0 0 6,6 6,6 0 0 0 6,-6 6,6 0 0 0 -6,-6 z m -35,40 v 24 h 6 V 146.45 L 72.10,159 h 3.82 L 81,146.45 V 164 h 6 V 140 H 79.35 L 73.99,152.84 68.67,140 Z m 30,0 v 24 h 6 v -24 z m 10,0 v 14.11 c 0,3.33 0.82,5.81 2.47,7.44 1.65,1.63 4.15,2.44 7.52,2.44 3.38,0 5.89,0.81 7.54,-2.44 C 120.18,159.93 121,157.45 121,154.11 V 140 h -6 v 13.51 c 0,1.94 0.30,3.34 0.93,4.18 0.62,0.83 -1.65,1.25 -3.08,1.25 -1.42,0 -2.44,0.42 -3.08,-1.25 C 107.29,156.85 107,155.46 107,153.51 V 140 Z m 24,0 v 24 h 6 v -24 z"/><path style="fill:#fff;color:#000" d="M 95.97 38.00 C 95.45 38.00 94.92 38.02 94.40 38.06 C 93.20 38.15 91.99 38.35 90.79 38.66 C 81.19 41.11 74.59 50.32 75.02 60.22 C 75.14 62.98 77.47 65.11 80.23 64.99 C 82.99 64.87 85.13 62.54 85.01 59.78 C 84.78 54.55 88.20 49.64 93.27 48.34 C 98.34 47.05 103.55 49.44 105.87 54.14 C 108.18 58.83 106.71 64.19 102.79 67.66 C 100.13 70.00 97.31 72.68 95.38 75.06 C 92.82 78.28 91 82.69 91 88 C 91 90.76 93.24 93 96 93 C 98.76 93 101 90.76 101 88 C 101 84.62 101.70 83.18 103.20 81.29 C 106.03 77.75 108.94 75.77 111.53 73.13 C 117.24 66.84 118.69 57.53 114.84 49.72 C 111.25 42.43 103.82 38.00 95.97 38.00 z M 96 98 A 6 6 0 0 0 90 104 A 6 6 0 0 0 96 110 A 6 6 0 0 0 102 104 A 6 6 0 0 0 96 98 z M 61 138 L 61 162 L 67 162 L 67 144.45 L 72.10 157 L 75.92 157 L 81 144.45 L 81 162 L 87 162 L 87 138 L 79.35 138 L 73.99 150.84 L 68.67 138 L 61 138 z M 91 138 L 91 162 L 97 162 L 97 138 L 91 138 z M 101 138 L 101 152.11 C 101 155.45 101.82 157.93 103.47 159.56 C 105.12 161.19 107.63 162 110.99 162 C 114.37 162 116.88 161.19 118.53 159.56 C 120.18 157.93 121 155.45 121 152.11 L 121 138 L 115 138 L 115 151.51 C 115 153.46 114.70 154.85 114.07 155.69 C 113.45 156.52 112.42 156.94 110.99 156.94 C 109.57 156.94 108.55 156.52 107.92 155.69 C 107.29 154.85 107 153.46 107 151.51 L 107 138 L 101 138 z M 125 138 L 125 162 L 131 162 L 131 138 L 125 138 z"/></svg>