<svg xmlns="http://www.w3.org/2000/svg" id="svg14" width="192" height="192" version="1.1"><defs><filter style="color-interpolation-filters:sRGB" id="filter849" width="1.1" height="1.1" x=".05" y=".05"><feGaussianBlur stdDeviation="3.2"/></filter><filter style="color-interpolation-filters:sRGB" id="filter2962" width="1.09" height="1.1" x=".05" y=".05"><feGaussianBlur stdDeviation="1.6"/></filter><filter style="color-interpolation-filters:sRGB" id="filter2966" width="1.15" height="1.15" x=".07" y=".08"><feGaussianBlur stdDeviation="1.69"/></filter></defs><rect style="filter:url(#filter849);opacity:.2" width="160" height="160" x="16" y="20" rx="32" ry="32"/><rect style="fill:#d8382c" width="160" height="160" x="16" y="16" rx="32" ry="32"/><path style="opacity:.2;fill:#fff" d="M 48,16 C 30.27,16 16,30.27 16,48 v 1 C 16,31.27 30.27,17 48,17 h 96 c 17.73,0 32,14.27 32,32 V 48 C 176,30.27 161.73,16 144,16 Z"/><path style="filter:url(#filter2966);opacity:.2;fill:#000" d="M 50.39,90 C 45.19,90 41,94.26 41,99.54 V 125.46 C 41,130.74 45.19,135 50.39,135 H 56 v 8 l 18.11,-7.78 V 135 h 12.50 C 91.81,135 96,130.74 96,125.46 V 99.54 C 96,94.26 91.81,90 86.61,90 Z"/><path style="fill:#ec9c96" d="M 50.39,88 C 45.19,88 41,92.26 41,97.54 V 123.46 C 41,128.74 45.19,133 50.39,133 H 56 v 8 l 18.11,-7.78 V 133 h 12.50 C 91.81,133 96,128.74 96,123.46 V 97.54 C 96,92.26 91.81,88 86.61,88 Z"/><path style="filter:url(#filter2962);opacity:.2;fill:#000" d="m 83,54 c -7.76,0 -14,6.24 -14,14 v 38 c 0,7.76 6.24,14 14,14 h 19 l 27,12 v -12 h 8 c 7.76,0 14,-6.24 14,-14 V 68 c 0,-7.76 -6.24,-14 -14,-14 z"/><path style="fill:#fff" d="m 83,52 c -7.76,0 -14,6.24 -14,14 v 38 c 0,7.76 6.24,14 14,14 h 19 l 27,12 v -12 h 8 c 7.76,0 14,-6.24 14,-14 V 66 c 0,-7.76 -6.24,-14 -14,-14 z"/></svg>