<?xml version='1.0' encoding='utf-8'?>
<svg xmlns="http://www.w3.org/2000/svg" width="192" height="192" version="1" id="svg28">
  <defs>
    <filter style="color-interpolation-filters:sRGB" id="filter13068" x="0.05" y="0.05" width="1.09" height="1.10">
      <feGaussianBlur stdDeviation="3.29"/>
    </filter>
    <filter style="color-interpolation-filters:sRGB" id="filter13253" x="0.11" y="0.11" width="1.22" height="1.22">
      <feGaussianBlur stdDeviation="1.35"/>
    </filter>
    <filter style="color-interpolation-filters:sRGB" id="filter13295" x="0.05" y="0.13" width="1.11" height="1.25">
      <feGaussianBlur stdDeviation="3.15"/>
    </filter>
  </defs>
  <path style="filter:url(#filter13295);opacity:0.20;fill:#000000" d="m 23.16,66.81 132.56,13.20 1.28,1.36 5.75,17.12 2.42,23.64 L 143.51,126.64 35.59,115.98 23.75,98.04 Z"/>
  <path style="fill:#7e8ae6" d="m 23.16,64.81 132.56,13.20 1.28,1.36 5.75,17.12 2.42,23.64 -21.66,4.52 L 35.59,113.98 23.75,96.04 Z"/>
  <path style="filter:url(#filter13068);opacity:0.20;fill:#000000" d="m 126.34,19.00 c -1.36,0.04 -2.73,0.35 -4.05,0.95 L 18.12,67.62 c -5.27,2.41 -7.57,8.59 -5.16,13.86 l 13.90,30.41 c 2.41,5.27 8.59,7.57 13.85,5.16 L 144.88,69.38 c 5.27,-2.41 7.57,-8.59 5.16,-13.86 L 136.14,25.11 c -1.81,-3.95 -5.73,-6.23 -9.80,-6.11 z m 28,63 c -1.36,0.04 -2.73,0.35 -4.05,0.95 L 46.12,130.62 c -5.27,2.41 -7.57,8.59 -5.16,13.86 l 13.90,30.41 c 2.41,5.27 8.59,7.57 13.85,5.16 L 172.88,132.38 c 5.27,-2.41 7.57,-8.59 5.16,-13.86 L 164.14,88.11 c -1.81,-3.95 -5.73,-6.23 -9.80,-6.11 z"/>
  <rect style="fill:#0576e6" width="135.47" height="54.35" x="-20.43" y="65.39" rx="10.46" transform="matrix(0.91,0.42,0.42,0.91,0,0)"/>
  <rect style="fill:#0576e6" width="135.47" height="54.35" x="-21.15" y="134.32" rx="10.46" transform="matrix(0.91,0.42,0.42,0.91,0,0)"/>
  <path style="filter:url(#filter13253);opacity:0.20;fill:#000000" d="M 141,96.00 V 107 h -11 v 8 h 11 v 11 h 8 v -11 h 11 v -8 H 149 V 96.00 Z"/>
  <path style="fill:#10ffb0" d="M 141,95.00 V 106 h -11 v 8 h 11 v 11 h 8 v -11 h 11 v -8 H 149 V 95.00 Z"/>
  <path style="opacity:0.20;fill:#ffffff" d="M 126.34 15.00 C 124.98 15.04 123.61 15.35 122.29 15.96 L 18.12 63.62 C 14.05 65.48 11.78 69.57 12.05 73.77 C 12.18 69.94 14.38 66.33 18.12 64.62 L 122.29 16.96 C 123.61 16.35 124.98 16.04 126.34 16.00 C 130.41 15.88 134.34 18.16 136.14 22.12 L 150.04 52.53 C 150.60 53.73 150.87 54.99 150.95 56.23 C 151.00 54.66 150.75 53.06 150.04 51.53 L 136.14 21.12 C 134.34 17.16 130.41 14.88 126.34 15.00 z M 154.34 78.00 C 152.98 78.04 151.61 78.35 150.29 78.96 L 46.12 126.62 C 42.05 128.48 39.78 132.57 40.05 136.77 C 40.18 132.94 42.38 129.33 46.12 127.62 L 150.29 79.96 C 151.61 79.35 152.98 79.04 154.34 79.00 C 158.41 78.88 162.34 81.16 164.14 85.12 L 178.04 115.53 C 178.60 116.73 178.87 117.99 178.95 119.23 C 179.00 117.66 178.75 116.06 178.04 114.53 L 164.14 84.12 C 162.34 80.16 158.41 77.88 154.34 78.00 z "/>
</svg>
