<?xml version='1.0' encoding='utf-8'?>
<svg xmlns="http://www.w3.org/2000/svg" width="192" height="192" version="1" id="svg14">
  <defs>
    <filter style="color-interpolation-filters:sRGB" id="filter850" x="0.05" width="1.10" y="0.05" height="1.10">
      <feGaussianBlur stdDeviation="3.20"/>
    </filter>
    <filter style="color-interpolation-filters:sRGB" id="filter25094" x="0.12" y="0.10" width="1.23" height="1.20">
      <feGaussianBlur stdDeviation="3.22"/>
    </filter>
  </defs>
  <circle style="filter:url(#filter850);opacity:0.20;fill:#000000" cx="96" cy="100" r="80"/>
  <circle r="80" cy="96" cx="96" style="fill:#c7078e"/>
  <path style="opacity:0.10;fill:#ffffff" d="M 96 16 A 80 80 0 0 0 16 96 A 80 80 0 0 0 16.02 96.47 A 80 80 0 0 1 96 17 A 80 80 0 0 1 175.97 96.51 A 80 80 0 0 0 176 96 A 80 80 0 0 0 96 16 z "/>
  <path style="fill:#38adfa" d="m 688.81,257.00 c 0.33,0.33 -1.19,0.37 -1.92,0.08 0.80,0.32 0.56,0.56 0.60,0.60 1.05,0.04 1.64,0.19 1.31,0.53 z"/>
  <path style="fill:#edaeda;color:#000000" d="m 74,60 a 9,9 0 0 0 -9,9 9,9 0 0 0 9,9 H 91.06 L 69.30,91.32 A 9.00,9.00 0 0 0 74,108 h 9.77 l -15.29,11.90 a 9,9 0 0 0 -1.58,12.63 9,9 0 0 0 12.63,1.58 l 36.00,-28 A 9.00,9.00 0 0 0 110,90 h -4.06 L 127.70,76.68 A 9.00,9.00 0 0 0 123,60 Z"/>
  <path style="filter:url(#filter25094);opacity:0.20;fill:#000000;color:#000000;mix-blend-mode:normal" d="m 74,62 a 9,9 0 0 0 -9,9 9,9 0 0 0 9,9 h 49 a 9,9 0 0 0 9,-9 9,9 0 0 0 -9,-9 z m 0,30 a 9,9 0 0 0 -9,9 9,9 0 0 0 9,9 h 36 a 9,9 0 0 0 9,-9 9,9 0 0 0 -9,-9 z m 0,28 a 9,9 0 0 0 -9,9 9,9 0 0 0 9,9 9,9 0 0 0 9,-9 9,9 0 0 0 -9,-9 z"/>
  <path style="fill:#ffffff;color:#000000" d="m 74,60 a 9,9 0 0 0 -9,9 9,9 0 0 0 9,9 h 49 a 9,9 0 0 0 9,-9 9,9 0 0 0 -9,-9 z m 0,30 a 9,9 0 0 0 -9,9 9,9 0 0 0 9,9 h 36 a 9,9 0 0 0 9,-9 9,9 0 0 0 -9,-9 z m 0,28 a 9,9 0 0 0 -9,9 9,9 0 0 0 9,9 9,9 0 0 0 9,-9 9,9 0 0 0 -9,-9 z"/>
</svg>
