<?xml version='1.0' encoding='utf-8'?>
<svg xmlns="http://www.w3.org/2000/svg" width="192" height="192" version="1" id="svg28">
  <defs>
    <filter style="color-interpolation-filters:sRGB" id="filter901" x="-0.048000001" width="1.096" y="-0.048000001" height="1.096">
      <feGaussianBlur stdDeviation="3.2"/>
    </filter>
    <filter style="color-interpolation-filters:sRGB" id="filter3693" x="-0.045061589" y="-0.051348742" width="1.0901232" height="1.1026975">
      <feGaussianBlur stdDeviation="1.8400033"/>
    </filter>
  </defs>
  <rect style="filter:url(#filter901);opacity:0.2;fill:#000000" width="160" height="160" x="-180" y="-176" rx="12" ry="12" transform="matrix(0,-1,-1,0,0,0)"/>
  <rect transform="matrix(0,-1,-1,0,0,0)" ry="12" rx="12" y="-176" x="-176" height="160" width="160" style="fill:#478bf9"/>
  <path style="opacity:0.2;fill:#ffffff" d="m 28,16 c -6.648,0 -12,5.352 -12,12 v 1 c 0,-6.648 5.352,-12 12,-12 h 136 c 6.648,0 12,5.352 12,12 v -1 c 0,-6.648 -5.352,-12 -12,-12 z"/>
  <path style="filter:url(#filter3693);opacity:0.2;fill:#000000;color:#000000" d="m 97.056641,51 a 5.0005,5.0005 0 0 0 -3.552735,1.425781 l -45,44 a 5,5 0 0 0 -0.07813,7.070309 5,5 0 0 0 7.070313,0.0781 L 96.919922,63.070312 136.42383,103.49414 a 5,5 0 0 0 7.07031,0.082 5,5 0 0 0 0.082,-7.070311 l -17.59179,-18 A 5,5 0 0 0 126,78.347656 V 63 a 5,5 0 0 0 -5,-5 5,5 0 0 0 -5,5 v 5.289062 L 100.57617,52.505859 A 5.0005,5.0005 0 0 0 97.056641,51 Z M 68,100 a 5,5 0 0 0 -5,5 v 27 a 5.0005,5.0005 0 0 0 5,5 h 56 a 5.0005,5.0005 0 0 0 5,-5 v -27 a 5,5 0 0 0 -5,-5 5,5 0 0 0 -5,5 v 22 H 73 v -22 a 5,5 0 0 0 -5,-5 z"/>
  <path style="fill:#ffffff;color:#000000" d="m 97.056641,49 a 5.0005,5.0005 0 0 0 -3.552735,1.425781 l -45,44 a 5,5 0 0 0 -0.07813,7.070309 5,5 0 0 0 7.070313,0.0781 L 96.919922,61.070312 136.42383,101.49414 a 5,5 0 0 0 7.07031,0.082 5,5 0 0 0 0.082,-7.070311 l -17.59179,-18 A 5,5 0 0 0 126,76.347656 V 61 a 5,5 0 0 0 -5,-5 5,5 0 0 0 -5,5 v 5.289062 L 100.57617,50.505859 A 5.0005,5.0005 0 0 0 97.056641,49 Z M 68,98 a 5,5 0 0 0 -5,5 v 27 a 5.0005,5.0005 0 0 0 5,5 h 56 a 5.0005,5.0005 0 0 0 5,-5 v -27 a 5,5 0 0 0 -5,-5 5,5 0 0 0 -5,5 v 22 H 73 v -22 a 5,5 0 0 0 -5,-5 z"/>
</svg>
