<svg xmlns="http://www.w3.org/2000/svg" id="svg28" width="192" height="192" version="1"><defs><filter style="color-interpolation-filters:sRGB" id="filter6495" width="1.1" height="1.1" x=".05" y=".05"><feGaussianBlur stdDeviation="3.2"/></filter><filter style="color-interpolation-filters:sRGB" id="filter3026" width="1.15" height="1.15" x=".07" y=".08"><feGaussianBlur stdDeviation="3.16"/></filter></defs><rect width="160" height="160" x="-180" y="-176" rx="12" ry="12" transform="matrix(0,-1,-1,0,0,0)" style="filter:url(#filter6495);opacity:.2;fill:#000"/><rect width="160" height="160" x="-176" y="-176" rx="12" ry="12" transform="matrix(0,-1,-1,0,0,0)" style="fill:#e4e4e4"/><path style="opacity:.2;fill:#fff" d="m 28,16 c -6.65,0 -12,5.35 -12,12 v 1 c 0,-6.65 5.35,-12 12,-12 h 136 c 6.65,0 12,5.35 12,12 v -1 c 0,-6.65 -5.35,-12 -12,-12 z"/><path style="filter:url(#filter3026);opacity:.2;fill:#000" d="M 89.25,49.00 77.45,74.56 C 70.96,88.57 60.81,110.51 54.89,123.31 48.97,136.12 44.07,146.87 44,147.00 c 0.00,0.00 25.00,0 25.22,0 l 7.65,-16.66 8.05,-17.34 h 15.71 c 4.78,0 9.91,0.00 15.57,0.93 10.04,-1.66 13.69,-6.51 19.38,-16.18 2.84,-5.79 10.11,-21.89 10.97,-24.30 1.70,-4.77 1.92,-10.14 0.56,-13.67 -1.88,-4.91 -6.39,-7.99 -12.74,-8.70 -1.50,0.17 -11.98,0.22 -23.90,0.22 z m 16.16,18 h 6.54 c 9.17,0 10.06,0.10 10.06,2.29 0,1.41 0.44,2.55 -3.60,9.36 -6.36,13.67 -6.66,14.19 -9.10,15.52 -1.14,0.62 -2.29,0.83 -8.83,0.83 H 93 c 0,0 2.98,-7.11 6.31,-14.49 z"/><path style="fill:#1889ee" d="M 89.25 47 L 77.45 72.56 C 70.96 86.57 60.81 108.51 54.89 121.31 C 48.97 134.12 44.07 144.87 44 145 C 44.00 145.00 69.00 145 69.22 145 L 76.87 128.34 L 84.92 111 L 100.64 111 C 105.41 111 110.55 111.00 116.21 110.07 C 126.25 108.41 129.90 103.56 135.59 93.89 C 138.43 88.11 145.70 72.01 146.55 69.60 C 148.25 64.83 148.47 59.46 147.12 55.92 C 145.24 51.01 140.73 47.93 134.38 47.22 C 132.88 47.06 122.40 47 110.48 47 L 89.25 47 z M 105.40 65 L 111.94 65 C 121.11 65 122 65.10 122 67.29 C 122 68.70 121.56 69.84 118.40 76.65 C 112.04 90.32 111.74 90.84 109.29 92.17 C 108.15 92.79 107.00 93 100.46 93 L 93 93 C 93 93 95.98 85.89 99.31 78.51 L 105.40 65 z"/></svg>