<?xml version='1.0' encoding='utf-8'?>
<svg xmlns="http://www.w3.org/2000/svg" width="192" height="192" version="1" id="svg14">
  <defs>
    <filter style="color-interpolation-filters:sRGB" id="filter850" x="-0.048000001" width="1.096" y="-0.048000001" height="1.096">
      <feGaussianBlur stdDeviation="3.2"/>
    </filter>
    <filter style="color-interpolation-filters:sRGB" id="filter873" x="-0.066604998" width="1.13321" y="-0.037519543" height="1.0750391">
      <feGaussianBlur stdDeviation="1.8759627"/>
    </filter>
  </defs>
  <rect style="filter:url(#filter850);opacity:0.2;fill:#000000" width="160" height="160" x="-180" y="-176" rx="80" ry="80" transform="matrix(0,-1,-1,0,0,0)"/>
  <rect transform="matrix(0,-1,-1,0,0,0)" ry="80" rx="80" y="-176" x="-176" height="160" width="160" style="fill:#2da0eb"/>
  <path style="opacity:0.2;fill:#ffffff" d="M 95.998047 16 C 51.678955 16.001052 16 51.680653 16 96 C 16 96.115498 16.006172 96.228859 16.007812 96.34375 C 16.358829 52.329731 51.898462 17.001046 95.998047 17 L 96 17 C 140.10547 17.001047 175.64856 52.339122 175.99023 96.361328 C 175.99198 96.240601 175.99805 96.121307 175.99805 96 C 175.99805 51.680653 140.31909 16.001052 96 16 L 95.998047 16 z "/>
  <path d="M 99.450296,40.001776 C 96,40.00092 96,42.86966 96,45.791632 v 74.640028 c 0,0 -2.590924,-0.20732 -4.250056,-0.20732 -12.595032,-0.77096 -26.356288,8.79901 -27.61542,22.03328 -1.483968,10.52202 9.588172,19.1793 19.461736,17.5428 C 96.036364,158.47327 104,148 103.9737,133.42224 c 0.036,-21.91396 -0.0701,-35.852376 0.0526,-57.750496 11.20026,4.629432 23.25258,19.4865 23.9737,29.156116 0.65687,9.53846 -4.76364,18.87168 -8,27.71436 24.33497,-33.165976 5.04127,-47.741108 -9.4392,-72.174456 -3.59151,-5.704032 -6.32488,-12.071804 -7.18011,-18.805852 -0.70411,-1.40424 -2.15585,-1.575228 -3.527366,-1.560128 z" style="filter:url(#filter873);opacity:0.2"/>
  <path d="M 99.450296,36.001314 C 96,36.000458 96,38.869198 96,41.791168 V 116.4312 c 0,0 -2.590924,-0.20732 -4.250056,-0.20732 -12.595032,-0.77097 -26.356288,8.799 -27.61542,22.03328 -1.483968,10.52202 9.588172,19.1793 19.461736,17.54279 C 96.036364,154.4728 104,143.99954 103.9737,129.42178 c 0.036,-21.91397 -0.0701,-35.85238 0.0526,-57.7505 11.20026,4.629432 23.25258,19.4865 23.9737,29.15611 0.65687,9.53847 -4.76364,18.87168 -8,27.71437 24.33497,-33.16598 5.04127,-47.741112 -9.4392,-72.17446 -3.59151,-5.704032 -6.32488,-12.071804 -7.18011,-18.80585 -0.70411,-1.40424 -2.15585,-1.57523 -3.527366,-1.560128 z" style="fill:#ffffff"/>
</svg>
