<?xml version='1.0' encoding='utf-8'?>
<svg xmlns="http://www.w3.org/2000/svg" width="192" height="192" version="1" id="svg32">
  <defs>
    <filter style="color-interpolation-filters:sRGB" id="filter885" x="-0.048000001" width="1.096" y="-0.048000001" height="1.096">
      <feGaussianBlur stdDeviation="3.2"/>
    </filter>
    <filter style="color-interpolation-filters:sRGB" id="filter913" x="-0.082849875" width="1.1656997" y="-0.085919696" height="1.1718377">
      <feGaussianBlur stdDeviation="2.1999999"/>
    </filter>
    <filter style="color-interpolation-filters:sRGB" id="filter933" x="-0.12" width="1.24" y="-0.03" height="1.06">
      <feGaussianBlur stdDeviation="0.8"/>
    </filter>
    <filter style="color-interpolation-filters:sRGB" id="filter949" x="-0.047999999" width="1.096" y="-0.047999999" height="1.096">
      <feGaussianBlur stdDeviation="0.48"/>
    </filter>
  </defs>
  <rect style="filter:url(#filter885);opacity:0.2;fill:#000000" width="160" height="160" x="-180" y="-176" rx="80" ry="80" transform="matrix(0,-1,-1,0,0,0)"/>
  <rect transform="matrix(0,-1,-1,0,0,0)" ry="80" rx="80" y="-176" x="-176" height="160" width="160" style="fill:#ff8d43"/>
  <path style="opacity:0.2;fill:#ffffff" d="M 96 16 C 51.684 16 16.007812 51.68 16.007812 96 C 16.007812 96.33544 16.009812 96.667215 16.007812 97 C 16.007812 52.68 51.684 17 96 17 C 140.316 17 175.99219 52.68 175.99219 97 C 175.99019 96.667215 175.99219 96.33544 175.99219 96 C 175.99219 51.68 140.316 16 96 16 z "/>
  <rect transform="matrix(0,-1,-1,0,0,0)" ry="64" rx="64" y="-160" x="-160" height="128" width="128" style="fill:#4f4f4f"/>
  <path d="m 72,120.00085 h 40 m -16,40 36,-107.999992 -92,67.999992 h 42.4 z m 0,0 -36,-107.999992 92,67.999992 h -42.4 z" style="filter:url(#filter913);opacity:0.2;fill:none;stroke:#000000;stroke-width:8;stroke-linecap:round;stroke-linejoin:round"/>
  <path d="m 72,116 h 40 M 96,156 132,48 40,116 h 42.4 z m 0,0 -36,-108 92,68 h -42.4 z" style="fill:none;stroke:#4390f6;stroke-width:8;stroke-linecap:round;stroke-linejoin:round"/>
  <path style="opacity:0.2;fill:#ffffff;color:#000000;font-stretch:normal;font-variant-ligatures:normal;font-variant-position:normal;font-variant-caps:normal;font-variant-numeric:normal;font-variant-alternates:normal;font-feature-settings:normal;text-indent:0;text-align:start;text-decoration-line:none;text-decoration-style:solid;text-decoration-color:#000000;text-transform:none;writing-mode:lr-tb;direction:ltr;text-orientation:mixed;dominant-baseline:auto;baseline-shift:baseline;white-space:normal;shape-padding:0;clip-rule:nonzero;display:inline;overflow:visible;visibility:visible;isolation:auto;mix-blend-mode:normal;color-interpolation:sRGB;color-interpolation-filters:linearRGB;solid-color:#000000;solid-opacity:1;vector-effect:none;fill-rule:nonzero;color-rendering:auto;image-rendering:auto;shape-rendering:auto;text-rendering:auto;enable-background:accumulate" d="M 131.96875 44 A 4.0004 4.0004 0 0 0 129.62305 44.783203 L 96 69.634766 L 62.376953 44.783203 A 4.0004 4.0004 0 0 0 56.035156 48.498047 A 4.0004 4.0004 0 0 1 62.376953 45.783203 L 96 70.634766 L 129.62305 45.783203 A 4.0004 4.0004 0 0 1 131.96875 45 A 4.0004 4.0004 0 0 1 135.9668 48.513672 A 4.0004 4.0004 0 0 0 131.96875 44 z M 67.794922 59.736328 L 76.285156 85.207031 L 89.271484 75.609375 L 88.595703 75.109375 L 76.285156 84.207031 L 68.236328 60.0625 L 67.794922 59.736328 z M 124.20508 59.736328 L 123.76367 60.0625 L 115.71484 84.207031 L 103.4043 75.109375 L 102.72852 75.609375 L 115.71484 85.207031 L 124.20508 59.736328 z M 69.251953 89.404297 L 37.623047 112.7832 A 4.0004 4.0004 0 0 0 36.035156 116.48242 A 4.0004 4.0004 0 0 1 37.623047 113.7832 L 69.519531 90.207031 L 69.251953 89.404297 z M 122.74805 89.404297 L 122.48047 90.207031 L 154.37695 113.7832 A 4.0004 4.0004 0 0 1 155.96484 116.48047 A 4.0004 4.0004 0 0 0 154.37695 112.7832 L 122.74805 89.404297 z M 79.212891 92.990234 L 78.945312 93.1875 L 85.550781 113 L 106.44922 113 L 113.05469 93.1875 L 112.78711 92.990234 L 106.44922 112 L 85.550781 112 L 79.212891 92.990234 z M 53.494141 112 L 52.140625 113 L 72 113 L 77.117188 113 L 76.783203 112 L 72 112 L 53.494141 112 z M 115.2168 112 L 114.88281 113 L 139.85938 113 L 138.50586 112 L 115.2168 112 z M 88.216797 121 L 96 144.34961 L 103.7832 121 L 103.44922 121 L 96 143.34961 L 88.550781 121 L 88.216797 121 z "/>
  <rect ry="8.2119999" rx="11.084" y="36" x="88" height="64" width="16" style="fill:#a8a8a8"/>
  <rect transform="rotate(90,0.99999955,-0.99999955)" ry="8.2119999" rx="11.084" y="-156" x="92" height="64" width="16" style="filter:url(#filter933);opacity:0.1"/>
  <rect transform="rotate(90)" ry="8.2119999" rx="11.084" y="-156" x="88" height="64" width="16" style="fill:#a8a8a8"/>
  <path style="opacity:0.1;fill:#ffffff" d="M 100.21094 88 C 95.662098 88 92 91.568 92 96 C 92 96.146037 92.013686 96.287908 92.029297 96.429688 C 92.328695 92.266961 95.859745 89 100.21094 89 L 147.78906 89 C 152.14026 89 155.67131 92.266961 155.9707 96.429688 C 155.98631 96.287909 156 96.146042 156 96 C 156 91.568 152.3379 88 147.78906 88 L 100.21094 88 z "/>
  <circle r="12" cy="98" cx="96" style="filter:url(#filter949);opacity:0.1"/>
  <circle r="12" cy="96" cx="96" style="fill:#ffffff"/>
  <path style="opacity:0.1;fill:#ffffff" d="M 96 36 C 91.568 36 88 39.662102 88 44.210938 L 88 45.210938 C 88 40.662102 91.568 37 96 37 C 100.432 37 104 40.662102 104 45.210938 L 104 44.210938 C 104 39.662102 100.432 36 96 36 z "/>
</svg>
