<?xml version='1.0' encoding='utf-8'?>
<svg xmlns="http://www.w3.org/2000/svg" width="192" height="192" version="1" id="svg36">
  <defs>
    <filter style="color-interpolation-filters:sRGB" id="filter1137" x="0.05" y="0.05" width="1.10" height="1.10">
      <feGaussianBlur stdDeviation="2.88"/>
    </filter>
    <filter style="color-interpolation-filters:sRGB" id="filter1141" x="0.07" y="0.08" width="1.15" height="1.15">
      <feGaussianBlur stdDeviation="3.48"/>
    </filter>
    <filter style="color-interpolation-filters:sRGB" id="filter1145" x="0.03" y="0.09" width="1.07" height="1.18">
      <feGaussianBlur stdDeviation="2.20"/>
    </filter>
    <filter style="color-interpolation-filters:sRGB" id="filter1149" x="0.11" y="0.11" width="1.22" height="1.22">
      <feGaussianBlur stdDeviation="1.26"/>
    </filter>
    <filter style="color-interpolation-filters:sRGB" id="filter1339" x="0.06" y="0.04" width="1.12" height="1.08">
      <feGaussianBlur stdDeviation="2.12"/>
    </filter>
    <filter style="color-interpolation-filters:sRGB" id="filter1485" x="0.05" y="0.13" width="1.11" height="1.25">
      <feGaussianBlur stdDeviation="1.06"/>
    </filter>
    <filter style="color-interpolation-filters:sRGB" id="filter1489" x="0.05" y="0.13" width="1.11" height="1.25">
      <feGaussianBlur stdDeviation="1.06"/>
    </filter>
    <filter style="color-interpolation-filters:sRGB" id="filter1493" x="0.05" y="0.13" width="1.11" height="1.25">
      <feGaussianBlur stdDeviation="1.06"/>
    </filter>
    <filter style="color-interpolation-filters:sRGB" id="filter1497" x="0.05" y="0.13" width="1.11" height="1.26">
      <feGaussianBlur stdDeviation="1.06"/>
    </filter>
  </defs>
  <path style="filter:url(#filter1149);opacity:0.20;mix-blend-mode:normal" d="M 13.60,34.00 H 30.40 C 33.49,34.00 36,36.09 36,38.67 v 18.67 c 0,2.58 -2.51,4.67 -5.60,4.67 H 13.60 C 10.51,62.00 8,59.91 8,57.33 V 38.67 c 0,-2.58 2.51,-4.67 5.60,-4.67 z m 0,0"/>
  <path style="fill:#e4e4e4" d="M 13.60,32 H 30.40 C 33.49,32 36,34.09 36,36.67 v 18.67 C 36,57.91 33.49,60 30.40,60 H 13.60 C 10.51,60 8,57.91 8,55.33 V 36.67 C 8,34.09 10.51,32 13.60,32 Z m 0,0"/>
  <rect style="filter:url(#filter1137);opacity:0.20" width="144" height="144" x="24" y="36" rx="8" ry="8"/>
  <rect style="fill:#9f9f9f" width="144" height="144" x="24" y="32" rx="8" ry="8"/>
  <path style="filter:url(#filter1141);opacity:0.20" d="M 40,51.42 H 152 V 162 H 40 Z m 0,0"/>
  <path style="fill:#ffffff" d="M 40,58 H 152 V 162 H 40 Z m 0,0"/>
  <path style="filter:url(#filter1145);opacity:0.20" d="m 27.43,26.00 c 43.39,-7.24 88.63,-8.73 137.14,0 C 170.80,27.12 176,31.36 176,38.00 V 62.00 c 0,6.65 -5.18,11.01 -11.43,12.00 -48.67,7.69 -94.62,8.30 -137.14,0 C 21.22,72.79 16,68.65 16,62.00 V 38.00 c 0,-6.65 5.19,-10.96 11.43,-12.00 z m 0,0"/>
  <path style="opacity:0.20;fill:#ffffff" d="M 13.60 32 C 10.51 32 8 34.09 8 36.66 L 8 37.66 C 8 35.09 10.51 33 13.60 33 L 30.40 33 C 33.49 33 36 35.09 36 37.66 L 36 36.66 C 36 34.09 33.49 32 30.40 32 L 13.60 32 z "/>
  <path style="fill:#f64747" d="m 27.43,22.00 c 43.39,-7.24 88.63,-8.73 137.14,0 C 170.80,23.12 176,27.36 176,34.00 V 58.00 c 0,6.65 -5.18,11.01 -11.43,12.00 -48.67,7.69 -94.62,8.30 -137.14,0 C 21.22,68.79 16,64.65 16,58.00 V 34.00 c 0,-6.65 5.19,-10.96 11.43,-12.00 z m 0,0"/>
  <path style="filter:url(#filter1339);opacity:0.10" d="M 94.08,20.02 C 86.65,20.08 79.30,20.36 72,20.83 V 100 H 52 l 44,44 44,-44 H 120 V 20.67 c -8.74,0.52 -17.38,0.73 -25.92,0.66 z"/>
  <path style="fill:#4a4a4a" d="M 72,96 H 52 l 44,44 44,-44 h -20 z"/>
  <rect style="filter:url(#filter1485);opacity:0.20;fill:#000000" width="48" height="20" x="72" y="77"/>
  <rect style="fill:#636363" width="48" height="20" x="72" y="76"/>
  <rect style="filter:url(#filter1489);opacity:0.20;fill:#000000" width="48" height="20" x="72" y="57"/>
  <rect style="fill:#868686" width="48" height="20" x="72" y="56"/>
  <rect style="filter:url(#filter1493);opacity:0.20;fill:#000000" width="48" height="20" x="72" y="37"/>
  <rect style="fill:#bfbfbf" width="48" height="20" x="72" y="36"/>
  <path style="filter:url(#filter1497);opacity:0.20;fill:#000000" d="M 94.08,17.02 C 86.65,17.08 79.30,17.36 72,17.83 V 37 h 48 V 17.67 c -8.74,0.52 -17.38,0.73 -25.92,0.66 z"/>
  <path style="fill:#ffffff" d="M 94.08,16.02 C 86.65,16.08 79.30,16.36 72,16.83 V 36 h 48 V 16.67 c -8.74,0.52 -17.38,0.73 -25.92,0.66 z"/>
  <path style="opacity:0.20;fill:#ffffff" d="M 94.08 16.02 C 71.28 16.20 49.13 18.38 27.43 22 C 21.19 23.04 16 27.35 16 34 L 16 35 C 16 28.35 21.19 24.04 27.43 23 C 49.13 19.38 71.28 17.20 94.08 17.02 C 116.88 16.83 140.31 18.64 164.57 23 C 170.80 24.12 176 28.35 176 35 L 176 34 C 176 27.35 170.80 23.12 164.57 22 C 140.31 17.64 116.88 15.83 94.08 16.02 z "/>
</svg>
