<?xml version='1.0' encoding='utf-8'?>
<svg xmlns="http://www.w3.org/2000/svg" width="192" height="192" version="1" id="svg28">
  <defs>
    <filter style="color-interpolation-filters:sRGB" id="filter6580" x="-0.058285715" y="-0.0408" width="1.1165714" height="1.0816">
      <feGaussianBlur stdDeviation="2.72"/>
    </filter>
    <filter style="color-interpolation-filters:sRGB" id="filter6625" x="-0.077373445" y="-0.044774196" width="1.1547469" height="1.0895484">
      <feGaussianBlur stdDeviation="1.2604039"/>
    </filter>
    <filter style="color-interpolation-filters:sRGB" id="filter6672" x="-0.046828909" y="-0.04926158" width="1.0936578" height="1.0985232">
      <feGaussianBlur stdDeviation="1.5804757"/>
    </filter>
    <filter style="color-interpolation-filters:sRGB" id="filter6717" x="-0.06176467" y="-0.039252308" width="1.1235293" height="1.0785046">
      <feGaussianBlur stdDeviation="1.7500021"/>
    </filter>
    <filter style="color-interpolation-filters:sRGB" id="filter6762" x="-0.11045456" y="-0.10565218" width="1.2209091" height="1.2113044">
      <feGaussianBlur stdDeviation="2.025"/>
    </filter>
    <filter style="color-interpolation-filters:sRGB" id="filter888" x="-0.059162788" y="-0.04038095" width="1.1183256" height="1.0807619">
      <feGaussianBlur stdDeviation="2.12"/>
    </filter>
  </defs>
  <path style="filter:url(#filter6625);opacity:0.2;fill:#000000" d="m 36.476704,100.43945 -15.40625,7.19141 18.042969,38.65039 A 20,20 0 0 0 39.000142,148 a 20,20 0 0 0 20,20 20,20 0 0 0 1.166016,-0.084 c -0.09979,-0.62523 -0.166016,-1.26179 -0.166016,-1.916 v -37.97461 a 20,20 0 0 0 -1,-0.0254 20,20 0 0 0 -8.707031,2.04102 z"/>
  <rect style="filter:url(#filter6580);opacity:0.2;fill:#000000" width="112" height="160" x="60.000141" y="20" ry="12" rx="12"/>
  <rect style="fill:#4f4f4f" width="112" height="160" x="60.000141" y="16" ry="12" rx="12"/>
  <rect style="filter:url(#filter888);opacity:0.2;fill:#000000" width="86" height="126" x="73.000145" y="33"/>
  <rect style="fill:#ffffff" width="86" height="126" x="73.000145" y="30"/>
  <path style="filter:url(#filter6762);opacity:0.2;fill:#000000" d="m 101.37319,28 -4.373048,19 h 43.999998 z m -4.373048,27 4.373048,19 39.62695,-19 z"/>
  <path style="fill:#666666" d="M 97.000142,53 H 141.00014 L 101.37393,72 Z"/>
  <path style="fill:#b3b3b3" d="M 97.000142,45 H 141.00014 L 101.37393,26 Z"/>
  <path style="fill:#ff9833" d="m 59.000142,126 a 20,20 0 0 0 -20,20 20,20 0 0 0 20,20 20,20 0 0 0 1.166016,-0.084 C 60.066367,165.29077 60.000142,164.65421 60.000142,164 v -37.97461 a 20,20 0 0 0 -1,-0.0254 z"/>
  <path style="fill:#ff9833;color:#000000" d="m 36.476704,98.439453 -15.40625,7.191407 22.595704,48.4043 15.404296,-7.18946 z"/>
  <path style="filter:url(#filter6672);opacity:0.2;fill:#000000;color:#000000" d="M 79.500142,38 A 13.5,13.5 0 0 0 66.037251,50.986328 l -37.36914,30.03711 A 17,17 0 0 0 12.000142,98 a 17,17 0 0 0 17,17 17,17 0 0 0 17,-17 17,17 0 0 0 -4.033203,-10.986328 L 72.105611,62.787109 A 13.5,13.5 0 0 0 79.500142,65 a 13.5,13.5 0 0 0 13.5,-13.5 13.5,13.5 0 0 0 -13.5,-13.5 z"/>
  <path style="fill:#ffbb33;color:#000000" d="m 73.757954,42.779297 -49.761718,40 8.144531,10.132812 49.761719,-40 z"/>
  <circle style="fill:#ffbb33" cx="29.000141" cy="96" r="17"/>
  <path style="opacity:0.2;fill:#ffffff;color:#000000" d="M 73.757954,42.779297 28.668111,79.023438 A 17,17 0 0 0 12.000142,96 17,17 0 0 0 12.04897,96.5 17,17 0 0 1 28.668111,80.023438 l 45.089843,-36.244141 7.65625,9.525391 0.488282,-0.392579 z M 42.418111,85.650391 41.966939,86.013672 A 17,17 0 0 1 45.953267,96.474609 17,17 0 0 0 46.000142,96 17,17 0 0 0 42.418111,85.650391 Z"/>
  <circle style="fill:#ffbb33" cx="79.499672" cy="49.5" r="13.5"/>
  <path style="filter:url(#filter6717);opacity:0.2;fill:#000000;color:#000000" d="m 96.000142,40.999791 a 10,10 0 0 0 -10,10 10,10 0 0 0 10,10 10,10 0 0 0 9.999998,-10 10,10 0 0 0 -9.999998,-10 z m -1.5,39 c -6.903559,0 -12.5,5.596441 -12.5,12.5 0,6.903559 5.596441,5.5 12.5,5.5 6.903558,0 12.499998,1.403559 12.499998,-5.5 0,-6.903559 -5.59644,-12.5 -12.499998,-12.5 z m 42.999998,0 c -6.90356,0 -12.5,5.596441 -12.5,12.5 0,6.903559 5.59644,5.5 12.5,5.5 6.90356,0 12.5,1.403559 12.5,-5.5 0,-6.903559 -5.59644,-12.5 -12.5,-12.5 z m 7.5,28.999999 a 5,5 0 0 0 -5,5 c 0,13.2807 -10.6354,23.95364 -23.91602,24 -13.28061,0.0464 -23.991262,-10.55166 -24.083978,-23.83203 a 5,5 0 0 0 -5.035156,-4.96485 5,5 0 0 0 -4.964844,5.03516 c 0.13036,18.6723 15.4465,33.8269 34.119138,33.76172 18.67264,-0.0652 33.88086,-15.32725 33.88086,-34 a 5,5 0 0 0 -5,-5 z"/>
  <circle style="fill:#999999" cx="96.000145" cy="49" r="10"/>
  <path style="fill:#666666;color:#000000" d="m 94.500142,78 c -6.903559,0 -12.5,5.596441 -12.5,12.5 0,6.903559 5.596441,5.5 12.5,5.5 6.903558,0 12.499998,1.403559 12.499998,-5.5 0,-6.903559 -5.59644,-12.5 -12.499998,-12.5 z m 42.999998,0 c -6.90356,0 -12.5,5.596441 -12.5,12.5 0,6.903559 5.59644,5.5 12.5,5.5 6.90356,0 12.5,1.403559 12.5,-5.5 0,-6.903559 -5.59644,-12.5 -12.5,-12.5 z m 7.5,29 a 5,5 0 0 0 -5,5 c 0,13.2807 -10.6354,23.95364 -23.91602,24 -13.28061,0.0464 -23.991262,-10.55166 -24.083978,-23.83203 a 5,5 0 0 0 -5.035156,-4.96485 5,5 0 0 0 -4.964844,5.03516 c 0.13036,18.6723 15.4465,33.8269 34.119138,33.76172 18.67264,-0.0652 33.88086,-15.32725 33.88086,-34 a 5,5 0 0 0 -5,-5 z"/>
  <path style="opacity:0.1;fill:#ffffff" d="m 72.000142,16 c -6.648,0 -12,5.352 -12,12 v 1 c 0,-6.648 5.352,-12 12,-12 h 87.999998 c 6.648,0 12,5.352 12,12 v -1 c 0,-6.648 -5.352,-12 -12,-12 z"/>
</svg>
