<?xml version='1.0' encoding='utf-8'?>
<svg xmlns="http://www.w3.org/2000/svg" width="192" height="192" version="1" id="svg28">
  <defs>
    <filter style="color-interpolation-filters:sRGB" id="filter9014" x="0.09" y="0.07" width="1.18" height="1.15">
      <feGaussianBlur stdDeviation="2.85"/>
    </filter>
    <filter style="color-interpolation-filters:sRGB" id="filter9018" x="0.08" y="0.06" width="1.15" height="1.12">
      <feGaussianBlur stdDeviation="2.85"/>
    </filter>
    <filter style="color-interpolation-filters:sRGB" id="filter9022" x="0.07" y="0.04" width="1.13" height="1.09">
      <feGaussianBlur stdDeviation="2.85"/>
    </filter>
    <filter style="color-interpolation-filters:sRGB" id="filter9064" x="0.05" y="0.05" width="1.10" height="1.10">
      <feGaussianBlur stdDeviation="0.90"/>
    </filter>
  </defs>
  <path style="filter:url(#filter9014);opacity:0.20;fill:#000000;stop-color:#000000" d="m 74.24,52.45 c -16.26,5.26 -23.69,17.62 -23.69,41.76 0.00,25.12 0.74,35.06 20.64,45.00 C 79.19,142.92 88.10,145 97.50,145 c 1.62,0 3.22,0.06 4.80,0.18 2.14,0.16 4.15,0.48 6.06,0.92 -2.67,0.47 -5.39,0.78 -8.16,0.90 15.71,-6.92 27.55,-22.63 27.55,-40.06 0,-17.16 -6.10,-33.26 -18.55,-40.68 C 104.63,61.35 77.71,79.64 71.41,79.64 69.15,68.65 70.44,59.80 74.24,52.45 Z"/>
  <path style="fill:#b53362;stop-color:#000000" d="m 140.34,70.35 c 0,32.90 -5.77,68.01 -38.04,70.47 C 100.72,140.94 99.12,141 97.50,141 c -9.40,0 -18.31,-2.07 -26.31,-5.79 -21.37,-9.93 -20.64,-19.88 -20.64,-45.00 0,-34.52 15.16,-44.98 49.67,-44.98 34.52,0 40.11,-9.40 40.11,25.12 z"/>
  <path style="filter:url(#filter9018);opacity:0.20;fill:#000000;stop-color:#000000" d="M 90.41,35.52 C 75.77,45.23 67.06,58.51 71.41,79.64 c 6.30,0.00 33.22,-18.29 37.79,-15.57 12.45,7.41 18.55,23.52 18.55,40.68 0,17.44 -11.84,33.14 -27.55,40.06 C 133.59,143.36 159.93,115.91 160,82.50 160,63.19 151.24,45.93 137.49,34.46 126.65,25.43 105.61,35.52 90.41,35.52 Z"/>
  <path style="fill:#805ff4;stop-color:#000000" d="M 90.41,31.52 C 75.77,41.23 67.06,54.51 71.41,75.64 c 6.30,0.00 33.22,-18.29 37.79,-15.57 12.45,7.41 18.55,23.52 18.55,40.68 0,17.44 -11.84,33.14 -27.55,40.06 C 133.59,139.36 159.93,111.91 160,78.50 160,59.19 151.24,41.93 137.49,30.46 126.65,21.43 105.61,31.52 90.41,31.52 Z"/>
  <path style="filter:url(#filter9022);opacity:0.20;fill:#000000;stop-color:#000000" d="M 97.50,20 C 62.98,20 35,47.98 35,82.50 V 160 c 0,11.05 8.95,20 20,20 11.05,0 20,-8.95 20,-20 V 140.64 80.85 c 0.87,-22.31 17.98,-41.87 37.28,-46.32 7.17,-1.65 16.98,0.95 26.39,0.97 C 127.28,25.51 112.65,20.01 97.50,20 Z"/>
  <path style="fill:#259bfa;stop-color:#000000" d="M 97.50,16 C 62.98,16 35,43.98 35,78.50 V 156 c 0,11.05 8.95,20 20,20 11.05,0 20,-8.95 20,-20 V 136.64 76.85 c 0.87,-22.31 17.98,-41.87 37.28,-46.32 7.17,-1.65 16.98,0.95 26.39,0.97 C 127.28,21.51 112.65,16.01 97.50,16 Z"/>
  <circle style="filter:url(#filter9064);opacity:0.20;fill:#000000;stop-color:#000000" cx="97.50" cy="80.50" r="22.50"/>
  <circle style="fill:#ffffff;stop-color:#000000" cx="97.50" cy="78.50" r="22.50"/>
  <path style="opacity:0.20;fill:#ffffff;stop-color:#000000" d="M 97.50,16 C 62.98,16 35,43.98 35,78.50 v 1 C 35,44.98 62.98,17 97.50,17 c 14.40,0.01 28.32,4.99 39.45,14.06 0.18,0.13 0.36,0.26 0.54,0.41 0.33,0.28 0.65,0.57 0.97,0.86 0.07,0.06 0.14,0.12 0.21,0.18 0.01,0.00 0.01,0.00 0.01,0.00 12.96,11.35 21.18,27.96 21.33,46.51 0.00,0.17 0.01,0.34 0.01,0.50 0,-18.75 -8.27,-35.55 -21.34,-47.01 0.01,0.00 0.01,0.00 0.01,0.00 0.07,0.06 0.14,0.12 0.21,0.18 0.33,0.28 0.64,0.58 0.97,0.86 0.17,0.14 0.36,0.27 0.54,0.41 C 125.82,20.99 111.90,16.01 97.50,16 Z m 30.24,85.10 c 0.16,17.29 -11.93,32.84 -27.54,39.71 0.81,0.04 1.61,0.10 2.41,0.16 14.49,-7.41 25.14,-22.37 25.14,-38.90 0,0.22 0.01,0.43 0.02,0.65 z"/>
</svg>
