<?xml version='1.0' encoding='utf-8'?>
<svg xmlns="http://www.w3.org/2000/svg" width="192" height="192" version="1" id="svg16">
  <defs>
    <filter style="color-interpolation-filters:sRGB" id="filter853" x="0.05" y="0.05" width="1.10" height="1.10">
      <feGaussianBlur stdDeviation="3.20"/>
    </filter>
    <filter style="color-interpolation-filters:sRGB" id="filter857" x="0.04" y="0.08" width="1.07" height="1.15">
      <feGaussianBlur stdDeviation="2.00"/>
    </filter>
  </defs>
  <circle style="filter:url(#filter853);opacity:0.20" cx="96" cy="100" r="80"/>
  <circle style="fill:#008dda" cx="96" cy="96" r="80"/>
  <path style="filter:url(#filter857);opacity:0.20" d="M 96,66 A 32,32 0 0 0 65.52,88.36 20,20 0 0 0 48,78 20,20 0 0 0 28,98 20,20 0 0 0 48,118 20,20 0 0 0 65.50,107.63 32,32 0 0 0 96,130 32,32 0 0 0 126.48,107.64 20,20 0 0 0 144,118 20,20 0 0 0 164,98 20,20 0 0 0 144,78 20,20 0 0 0 126.50,88.37 32,32 0 0 0 96,66 Z m 0,12 A 20,20 0 0 1 116,98 20,20 0 0 1 96,118 20,20 0 0 1 76,98 20,20 0 0 1 96,78 Z M 48,90 a 8,8 0 0 1 8,8 8,8 0 0 1 -8,8 8,8 0 0 1 -8,-8 8,8 0 0 1 8,-8 z m 96,0 a 8,8 0 0 1 8,8 8,8 0 0 1 -8,8 8,8 0 0 1 -8,-8 8,8 0 0 1 8,-8 z"/>
  <path style="fill:#ffffff" d="M 96,64 A 32,32 0 0 0 64,96 32,32 0 0 0 96,128 32,32 0 0 0 128,96 32,32 0 0 0 96,64 Z m 0,12 A 20,20 0 0 1 116,96 20,20 0 0 1 96,116 20,20 0 0 1 76,96 20,20 0 0 1 96,76 Z"/>
  <path style="fill:#ffffff" d="M 48,76 A 20,20 0 0 0 28,96 20,20 0 0 0 48,116 20,20 0 0 0 68,96 20,20 0 0 0 48,76 Z m 0,12 a 8,8 0 0 1 8,8 8,8 0 0 1 -8,8 8,8 0 0 1 -8,-8 8,8 0 0 1 8,-8 z"/>
  <path style="fill:#ffffff" d="m 144,76 a 20,20 0 0 0 -20,20 20,20 0 0 0 20,20 20,20 0 0 0 20,-20 20,20 0 0 0 -20,-20 z m 0,12 a 8,8 0 0 1 8,8 8,8 0 0 1 -8,8 8,8 0 0 1 -8,-8 8,8 0 0 1 8,-8 z"/>
  <path style="opacity:0.20;fill:#ffffff" d="M 96 16 A 80 80 0 0 0 16 96 A 80 80 0 0 0 16.02 96.64 A 80 80 0 0 1 96 17 A 80 80 0 0 1 175.98 96.30 A 80 80 0 0 0 176 96 A 80 80 0 0 0 96 16 z "/>
</svg>
