<svg xmlns="http://www.w3.org/2000/svg" id="svg14" width="192" height="192" version="1.1"><defs><filter style="color-interpolation-filters:sRGB" id="filter849" width="1.1" height="1.1" x=".05" y=".05"><feGaussianBlur stdDeviation="3.2"/></filter><filter style="color-interpolation-filters:sRGB" id="filter4328" width="1.12" height="1.2" x=".06" y=".1"><feGaussianBlur stdDeviation="3.08"/></filter><filter style="color-interpolation-filters:sRGB" id="filter4373" width="1.11" height="1.22" x=".06" y=".11"><feGaussianBlur stdDeviation="1.56"/></filter></defs><rect style="filter:url(#filter849);opacity:.2" width="160" height="160" x="16" y="20" rx="32" ry="32"/><rect style="fill:#3f3f3f" width="160" height="160" x="16" y="16" rx="32" ry="32"/><path style="filter:url(#filter4328);opacity:.2;fill:#000" d="m 127.23,61.02 c -1.01,0.02 -2.03,0.08 -3.05,0.19 -16.32,1.69 -29.63,14.01 -32.58,30.16 0.41,2.22 0.59,4.44 0.59,6.65 0.01,13.79 7.76,26.73 20.41,33.08 14.67,7.35 32.52,4.13 43.69,-7.89 a 7,7 0 0 0 0.36,-9.89 7,7 0 0 0 -9.89,0.36 c -6.98,7.51 -17.99,9.50 -27.15,4.90 -7.91,-3.96 -12.70,-11.96 -12.69,-20.56 0.00,-1.37 0.11,-2.75 0.37,-4.13 1.84,-10.08 10.05,-17.69 20.25,-18.74 8.40,0.87 16.38,2.89 21.11,9.54 l 11.57,-7.87 c -6.44,-9.19 -16.79,-15.03 -28.05,-15.72 -1.00,0.06 -2.01,0.08 -3.02,0.06 z M 35,64.01 v 14 H 56 V 134.01 H 70 V 78.01 h 21 v -14 H 70 56 Z"/><path style="opacity:.1;fill:#fff" d="M 48,16 C 30.27,16 16,30.27 16,48 v 1 C 16,31.27 30.27,17 48,17 h 96 c 17.73,0 32,14.27 32,32 V 48 C 176,30.27 161.73,16 144,16 Z"/><path style="fill:#fff" d="m 35,62 v 14 h 21 v 56 H 70 V 76 H 91 V 62 H 70 56 Z"/><path style="fill:#e314ec;color:#000" d="M 91.01 96 C 91.01 109.79 98.77 122.73 111.42 129.08 C 126.09 136.43 143.93 133.21 155.10 121.19 A 7 7 0 0 0 154.74 111.29 A 7 7 0 0 0 144.85 111.66 C 137.87 119.17 126.86 121.15 117.69 116.56 C 109.79 112.60 104.99 104.60 105.01 96 L 91.01 96 z"/><path style="fill:#2d70e4;color:#000" d="M 127.23 59.01 C 126.22 59.03 125.20 59.09 124.18 59.20 C 107.86 60.89 94.55 73.21 91.60 89.35 C 91.20 91.58 91.01 93.80 91.01 96 L 105.01 96 C 105.01 94.63 105.12 93.25 105.38 91.87 C 107.22 81.78 115.43 74.18 125.62 73.12 C 134.02 72.25 142.01 76.01 146.73 82.66 L 158.30 74.79 C 151.86 65.60 141.52 59.76 130.25 59.07 C 129.25 59.01 128.24 58.99 127.23 59.01 z"/><path style="filter:url(#filter4373);opacity:.2;fill:#000" d="m 98,90 a 7,7 0 0 0 -7,7 7,7 0 0 0 7,7 7,7 0 0 0 7,-7 7,7 0 0 0 -7,-7 z m 52,20 a 7,7 0 0 0 -7,7 7,7 0 0 0 7,7 7,7 0 0 0 7,-7 7,7 0 0 0 -7,-7 z"/><circle style="fill:#06c8f7" cx="98" cy="96" r="7"/><path style="opacity:.2;fill:#fff;color:#000" d="M 127.23 59.01 C 126.22 59.03 125.20 59.09 124.18 59.20 C 107.86 60.89 94.55 73.21 91.60 89.35 C 91.20 91.58 91.01 93.80 91.01 96 C 91.01 96.12 91.02 96.25 91.02 96.37 C 91.05 94.38 91.23 92.37 91.60 90.35 C 94.55 74.21 107.86 61.89 124.18 60.20 C 125.20 60.09 126.22 60.03 127.23 60.01 C 128.24 59.99 129.25 60.01 130.25 60.07 C 141.24 60.74 151.34 66.33 157.81 75.13 L 158.30 74.79 C 151.86 65.60 141.52 59.76 130.25 59.07 C 129.25 59.01 128.24 58.99 127.23 59.01 z M 105.03 96.57 C 105.02 96.71 105.01 96.86 105.01 97 C 104.99 105.60 109.79 113.60 117.69 117.56 C 126.86 122.15 137.87 120.17 144.85 112.66 A 7 7 0 0 1 154.74 112.29 A 7 7 0 0 1 156.96 116.97 A 7 7 0 0 0 154.74 111.29 A 7 7 0 0 0 144.85 111.66 C 137.87 119.17 126.86 121.15 117.69 116.56 C 109.96 112.69 105.22 104.95 105.03 96.57 z"/><circle style="fill:#ff955d" cx="150" cy="116" r="7"/><path style="opacity:.2;fill:#fff" d="M 98 89 A 7 7 0 0 0 91 96 A 7 7 0 0 0 91.07 96.50 A 7 7 0 0 1 98 90 A 7 7 0 0 1 104.96 96.29 A 7 7 0 0 0 105 96 A 7 7 0 0 0 98 89 z M 150 109 A 7 7 0 0 0 143 116 A 7 7 0 0 0 143.07 116.50 A 7 7 0 0 1 150 110 A 7 7 0 0 1 156.96 116.29 A 7 7 0 0 0 157 116 A 7 7 0 0 0 150 109 z"/></svg>