<?xml version='1.0' encoding='utf-8'?>
<svg xmlns="http://www.w3.org/2000/svg" width="192" height="192" version="1" id="svg28">
  <defs>
    <filter style="color-interpolation-filters:sRGB" id="filter6495" x="0.05" y="0.05" width="1.10" height="1.10">
      <feGaussianBlur stdDeviation="3.20"/>
    </filter>
    <filter style="color-interpolation-filters:sRGB" id="filter36132" x="0.09" y="0.06" width="1.18" height="1.13">
      <feGaussianBlur stdDeviation="3.19"/>
    </filter>
  </defs>
  <rect transform="matrix(0,-1,-1,0,0,0)" ry="12" rx="12" y="-176" x="-180" height="160" width="160" style="filter:url(#filter6495);opacity:0.20;fill:#000000"/>
  <rect transform="matrix(0,-1,-1,0,0,0)" ry="12" rx="12" y="-176" x="-176" height="160" width="160" style="fill:#e4e4e4"/>
  <path style="filter:url(#filter36132);opacity:0.20;fill:#000000" d="m 54,38 v 48 l 42,24 -42,24 42,24 42,-24 V 86 L 96,62 Z"/>
  <path style="opacity:0.20;fill:#ffffff" d="m 28,16 c -6.65,0 -12,5.35 -12,12 v 1 c 0,-6.65 5.35,-12 12,-12 h 136 c 6.65,0 12,5.35 12,12 v -1 c 0,-6.65 -5.35,-12 -12,-12 z"/>
  <path style="fill:#ffae29" d="m 54,36 42,24 v 0 L 54,84 Z"/>
  <path style="fill:#f7871a" d="M 96,60 54,84 v 0 l 42,24 z"/>
  <path style="fill:#f35d19" d="m 96,60 42,24 v 0 l -42,24 z"/>
  <path style="fill:#903190" d="m 138,84 -42,24 v 0 l 42,24 z"/>
  <path style="fill:#e438a6" d="m 96,108 -42,24 v 0 l 42,24 z"/>
  <path style="fill:#dc1d4f" d="m 96,108 42,24 v 0 l -42,24 z"/>
</svg>
