<?xml version='1.0' encoding='utf-8'?>
<svg xmlns="http://www.w3.org/2000/svg" width="192" height="192" version="1.1" id="svg34">
  <defs>
    <filter style="color-interpolation-filters:sRGB" id="filter906" x="0.07" width="1.14" y="0.04" height="1.07">
      <feGaussianBlur stdDeviation="2.32"/>
    </filter>
    <filter style="color-interpolation-filters:sRGB" id="filter910" x="0.08" width="1.15" y="0.03" height="1.07">
      <feGaussianBlur stdDeviation="1.63"/>
    </filter>
    <filter style="color-interpolation-filters:sRGB" id="filter914" x="0.05" width="1.10" y="0.05" height="1.10">
      <feGaussianBlur stdDeviation="1.60"/>
    </filter>
  </defs>
  <path style="filter:url(#filter910);opacity:0.15;fill:#000000" d="M 149.45,39 A 17.50,17.50 0 0 0 132,56.50 17.50,17.50 0 0 0 149.50,74 17.50,17.50 0 0 0 167,56.50 17.50,17.50 0 0 0 149.50,39 a 17.50,17.50 0 0 0 0.05,0 z M 130.46,82 C 127.44,82 125,84.43 125,87.45 v 1.82 33.18 3.14 A 25.50,25.42 0 0 0 150.50,151 25.50,25.42 0 0 0 176,125.58 a 25.50,25.42 0 0 0 0,0.11 V 122.44 89.26 87.45 C 176,84.43 173.56,82 170.54,82 Z"/>
  <path style="fill:#5059c9" d="M 149.45 35 A 17.50 17.50 0 0 0 132 52.50 A 17.50 17.50 0 0 0 149.50 70 A 17.50 17.50 0 0 0 167 52.50 A 17.50 17.50 0 0 0 149.50 35 A 17.50 17.50 0 0 0 149.45 35 z M 130.46 78 C 127.44 78 125 80.43 125 83.45 L 125 85.26 L 125 118.44 L 125 121.58 A 25.50 25.42 0 0 0 150.50 147 A 25.50 25.42 0 0 0 176 121.58 A 25.50 25.42 0 0 0 176 121.47 L 176 118.44 L 176 85.26 L 176 83.45 C 176 80.43 173.56 78 170.54 78 L 130.46 78 z "/>
  <path style="filter:url(#filter906);opacity:0.20;fill:#000000" d="M 99.83,24 A 25,25 0 0 0 75,49 25,25 0 0 0 100,74 25,25 0 0 0 125,49 25,25 0 0 0 100,24 25,25 0 0 0 99.83,24 Z M 69.09,82 C 64.05,82 60,86.03 60,91.04 v 9.04 30.73 5.42 A 40,39.77 0 0 0 100,176 a 40,39.77 0 0 0 40,-39.77 40,39.77 0 0 0 0,0.08 v -5.35 -30.73 -9.04 C 140,86.03 135.94,82 130.91,82 Z"/>
  <path style="opacity:0.10;fill:#ffffff" d="M 149.45 35 A 17.50 17.50 0 0 0 132 52.50 A 17.50 17.50 0 0 0 132.01 53 A 17.50 17.50 0 0 1 149.45 36 A 17.50 17.50 0 0 1 149.50 36 A 17.50 17.50 0 0 1 166.99 53.01 A 17.50 17.50 0 0 0 167 52.50 A 17.50 17.50 0 0 0 149.50 35 A 17.50 17.50 0 0 0 149.45 35 z M 130.46 78 C 127.44 78 125 80.43 125 83.45 L 125 84.45 C 125 81.43 127.44 79 130.46 79 L 170.54 79 C 173.56 79 176 81.43 176 84.45 L 176 83.45 C 176 80.43 173.56 78 170.54 78 L 130.46 78 z "/>
  <path style="fill:#7b83eb" d="M 99.83 20 A 25 25 0 0 0 75 45 A 25 25 0 0 0 100 70 A 25 25 0 0 0 125 45 A 25 25 0 0 0 100 20 A 25 25 0 0 0 99.83 20 z M 69.09 78 C 64.05 78 60 82.03 60 87.04 L 60 96.08 L 60 126.81 L 60 132.23 A 40 39.77 0 0 0 100 172 A 40 39.77 0 0 0 140 132.23 A 40 39.77 0 0 0 140 132.15 L 140 126.81 L 140 96.08 L 140 87.04 C 140 82.03 135.94 78 130.91 78 L 69.09 78 z "/>
  <path style="opacity:0.20;fill:#ffffff" d="M 99.83 20 A 25 25 0 0 0 75 45 A 25 25 0 0 0 75.01 45.50 A 25 25 0 0 1 99.83 21 A 25 25 0 0 1 100 21 A 25 25 0 0 1 124.99 45.49 A 25 25 0 0 0 125 45 A 25 25 0 0 0 100 20 A 25 25 0 0 0 99.83 20 z M 69.09 78 C 64.05 78 60 82.03 60 87.04 L 60 88.04 C 60 83.03 64.05 79 69.09 79 L 130.91 79 C 135.94 79 140 83.03 140 88.04 L 140 87.04 C 140 82.03 135.94 78 130.91 78 L 69.09 78 z "/>
  <rect style="filter:url(#filter914);opacity:0.10;fill:#000000" width="80" height="80" x="16" y="59" rx="5.45" ry="5.45"/>
  <rect style="fill:#5059c9" width="80" height="80" x="16" y="55" rx="5.45" ry="5.45"/>
  <path style="fill:#ffffff" d="m 34,70 v 14 h 15 v 36 H 63 V 84 H 78 V 70 Z"/>
</svg>
