<?xml version='1.0' encoding='utf-8'?>
<svg xmlns="http://www.w3.org/2000/svg" width="192" height="192" version="1" id="svg28">
  <defs>
    <filter style="color-interpolation-filters:sRGB" id="filter6495" x="0.05" y="0.05" width="1.10" height="1.10">
      <feGaussianBlur stdDeviation="3.20"/>
    </filter>
    <filter style="color-interpolation-filters:sRGB" id="filter1531" x="0.07" y="0.08" width="1.15" height="1.15">
      <feGaussianBlur stdDeviation="3.90"/>
    </filter>
  </defs>
  <rect transform="matrix(0,-1,-1,0,0,0)" ry="12" rx="12" y="-176" x="-180" height="160" width="160" style="filter:url(#filter6495);opacity:0.20;fill:#000000"/>
  <rect transform="matrix(0,-1,-1,0,0,0)" ry="12" rx="12" y="-176" x="-176" height="160" width="160" style="fill:#146bd2"/>
  <path style="opacity:0.10;fill:#ffffff" d="m 28,16 c -6.65,0 -12,5.35 -12,12 v 1 c 0,-6.65 5.35,-12 12,-12 h 136 c 6.65,0 12,5.35 12,12 v -1 c 0,-6.65 -5.35,-12 -12,-12 z"/>
  <path style="filter:url(#filter1531);opacity:0.20;fill:#000000;color:#000000" d="m 103.13,36.00 a 3.00,3.00 0 0 0 -2.92,2.78 l -6.63,91.42 -5.91,-38.65 a 3.00,3.00 0 0 0 -5.62,0.93 l -4.97,9.52 -3.90,-5.81 A 3.00,3.00 0 0 0 70.68,93.00 H 35 a 3,3 0 0 0 -3,3 3,3 0 0 0 3,3 h 34.08 l 5.83,8.67 a 3.00,3.00 0 0 0 5.15,0.29 l 3.06,-5.87 8.55,55.94 a 3.00,3.00 0 0 0 5.96,0.24 l 6.33,-87.30 3.73,30.45 a 3.00,3.00 0 0 0 4.81,2.01 l 4.38,-3.38 H 157 a 3,3 0 0 0 3,-3 3,3 0 0 0 -3,-3 h -41.14 a 3.00,3.00 0 0 0 -1.83,0.62 l -1.02,0.79 -6.83,-55.78 a 3.00,3.00 0 0 0 -3.05,-2.63 z"/>
  <path style="fill:#ffffff;color:#000000" d="m 103.13,34.00 a 3.00,3.00 0 0 0 -2.92,2.78 l -6.63,91.42 -5.91,-38.65 a 3.00,3.00 0 0 0 -5.62,0.93 l -4.97,9.52 -3.90,-5.81 A 3.00,3.00 0 0 0 70.68,91.00 H 35 a 3,3 0 0 0 -3,3 3,3 0 0 0 3,3 h 34.08 l 5.83,8.67 a 3.00,3.00 0 0 0 5.15,0.29 l 3.06,-5.87 8.55,55.94 a 3.00,3.00 0 0 0 5.96,0.24 l 6.33,-87.30 3.73,30.45 a 3.00,3.00 0 0 0 4.81,2.01 l 4.38,-3.38 H 157 a 3,3 0 0 0 3,-3 3,3 0 0 0 -3,-3 h -41.14 a 3.00,3.00 0 0 0 -1.83,0.62 l -1.02,0.79 -6.83,-55.78 a 3.00,3.00 0 0 0 -3.05,-2.63 z"/>
</svg>
