<?xml version='1.0' encoding='utf-8'?>
<svg xmlns="http://www.w3.org/2000/svg" width="192" height="192" version="1.1" id="svg5">
  <defs>
    <filter id="filter1876" style="color-interpolation-filters:sRGB" width="1.09" height="1.10" x="0.05" y="0.05">
      <feGaussianBlur stdDeviation="3.12"/>
    </filter>
  </defs>
  <path style="filter:url(#filter1876);opacity:0.20" d="M 96.01,20 C 51.89,20 16,54.83 16,97.81 16,126.34 31.75,151.16 55.21,164.53 L 60.25,131.26 C 52.44,122.84 48.08,111.87 48,100.46 48,74.93 69.35,54 95.61,54 121.86,54 143,74.93 143,100.46 c 0.01,11.52 -4.12,22.64 -11.98,31.17 l 5.07,33.27 C 160.07,151.52 176,126.35 176,97.83 l 0.00,0.01 C 176.00,54.87 140.12,20 96.01,20 Z m 0.01,55 C 82.03,75 71,85.91 71,99.47 c 0,5.01 1.56,9.89 4.47,13.96 2.88,4.05 6.99,7.10 11.74,8.72 L 77.38,172 h 36.88 l -9.48,-49.85 c 9.48,-3.63 16.21,-12.13 16.21,-22.69 L 121,99.47 C 121,85.96 109.96,75 96.00,75 Z"/>
  <path style="fill:#1a5cbb" d="M 121,95.47 C 121,81.96 109.96,71 96.00,71 82.03,71 71.00,81.91 71.00,95.47 c 0,5.01 1.56,9.89 4.47,13.96 2.88,4.05 6.99,7.10 11.74,8.72 L 77.38,168 h 36.88 l -9.48,-49.85 c 9.48,-3.63 16.21,-12.13 16.21,-22.69 z"/>
  <path style="fill:#ea7d1f" d="M 176.00,93.81 C 176.00,50.87 140.12,16 96.01,16 51.89,16 16,50.83 16,93.81 16,122.34 31.75,147.16 55.22,160.53 l 5.04,-33.27 C 52.44,118.84 48.08,107.87 48,96.46 48,70.93 69.35,50 95.61,50 121.85,50 143,70.93 143,96.46 c 0.01,11.52 -4.12,22.64 -11.98,31.17 l 5.07,33.27 C 160.07,147.52 176,122.35 176,93.83"/>
  <path style="opacity:0.10;fill:#ffffff" d="M 96.00,71 C 82.03,71 71,81.91 71,95.47 c 0,0.13 0.01,0.26 0.02,0.39 C 71.34,82.59 82.24,72 96.00,72 c 13.73,0 24.62,10.59 24.98,23.79 0.00,0.11 0.01,0.21 0.01,0.32 L 121,95.47 C 121,81.96 109.96,71 96.00,71 Z m 8.96,48.08 c 0.06,0.02 0.12,0.05 0.18,0.07 L 114.08,168 h 0.19 z m -17.93,0.00 L 77.38,168 h 0.20 l 9.63,-48.85 c 0.06,0.02 0.12,0.05 0.18,0.07 z"/>
  <path style="opacity:0.20;fill:#ffffff" d="M 96.01,16 C 51.89,16 16,50.83 16,93.81 c 0,0.14 0.01,0.29 0.02,0.43 C 16.33,51.52 52.08,17 96.01,17 139.95,17 175.70,51.59 175.98,94.31 175.98,94.15 176,93.99 176,93.83 l 0.00,0.01 C 176.00,50.87 140.12,16 96.01,16 Z M 48.02,96.79 C 48.01,97.01 48,97.24 48,97.46 48.08,108.80 52.39,119.71 60.12,128.11 L 60.25,127.26 C 52.51,118.92 48.18,108.08 48.02,96.79 Z m 94.97,0.04 c 0.08,11.39 -4.19,22.36 -11.97,30.80 l 0.13,0.85 C 138.92,119.97 143.01,108.92 143,97.46 c 0,0.21 0.01,0.42 0.02,0.64 z"/>
</svg>
