<svg xmlns="http://www.w3.org/2000/svg" id="svg40" width="192" height="192" version="1"><defs><filter style="color-interpolation-filters:sRGB" id="filter901" width="1.19" height="1.25" x=".1" y=".12"><feGaussianBlur stdDeviation="2.07"/></filter><filter style="color-interpolation-filters:sRGB" id="filter1097" width="1.09" height="1.1" x=".05" y=".05"><feGaussianBlur stdDeviation="3.04"/></filter><filter style="color-interpolation-filters:sRGB" id="filter1101" width="1.44" height="1.15" x=".22" y=".07"><feGaussianBlur stdDeviation="4.29"/></filter><filter style="color-interpolation-filters:sRGB" id="filter1124" width="1.15" height="1.42" x=".08" y=".21"><feGaussianBlur stdDeviation="2.86"/></filter></defs><path style="filter:url(#filter1097);opacity:.2;fill:#000;fill-rule:evenodd" d="m 24,28 c -4.43,0 -8,3.57 -8,8 v 128 c 0,4.43 3.57,8 8,8 H 63.83 168 c 4.43,0 8,-3.57 8,-8 V 148 124 36 c 0,-4.43 -3.57,-8 -8,-8 h -64 z"/><path style="fill:#bbc91b;fill-rule:evenodd" d="m 104,24 -20,68 92,28 V 32 c 0,-4.43 -3.57,-8 -8,-8 z"/><path style="fill:#3e7952;fill-rule:evenodd" d="m 84,92 -24,76 h 108 c 4.43,0 8,-3.57 8,-8 v -16 -24 z"/><path style="fill:#3a76a2;fill-rule:evenodd" d="m 24,24 c -4.43,0 -8,3.57 -8,8 v 128 c 0,4.43 3.57,8 8,8 H 63.83 L 104,24 Z"/><path style="fill:#9f3f32" d="M 94.49,41.80 C 62.51,79.85 16,76 16,76 v 16 c 0,0 15.42,21.75 57.38,18.94 z"/><path style="fill:#4d2f2b" d="m 71.90,70.28 c -3.04,0.02 -7.57,5.12 -4.17,7.61 3.73,2.72 2.73,5.67 0.86,6.44 -1.87,0.77 -4.71,0.08 -4.96,-4.51 0.23,-4.36 -4.94,-6.98 -9.37,0.45 0.27,0.69 0.48,1.39 0.58,2.09 0.88,6.30 5.28,12.47 11.59,13.35 C 71.58,95.68 79.02,90.18 79.90,83.88 80.66,78.40 77.01,72.35 71.90,70.28 Z M 55.71,76.75 c 0.17,0.23 0.28,0.48 0.42,0.72 z"/><path style="fill:#dee3e3" d="M 94.49,41.80 C 73.90,63.41 51.41,70.88 34.05,74.95 35.99,77.23 39.28,80 44,80 c 8,0 12,-4 12,-4 0,0 10.45,2.54 24,-8 4.67,-3.63 7.94,-8.05 10.32,-12.30 z"/><path style="fill:#e05e4c" d="M 79.84,90.61 C 76.89,91.79 73.29,93.36 68,96 c -8.93,4.46 -16.31,8.78 -21.36,12.96 8.25,3.18 16.92,3.93 26.74,1.98 z"/><path style="fill:#ffc169" d="m 134.48,105.62 c -1.78,2.47 -3.66,5.73 -5.56,9.85 -5.42,11.70 -8.67,24.26 -12.78,23.83 -4.12,0.43 -5.52,-2.15 -7.80,-4.77 -2.28,-2.61 -5.13,-7.76 -7.95,-9.28 -2.82,-1.52 -3.46,-1.08 -4.98,0.87 -1.52,0.22 -2.28,0.27 -3.04,1.73 0.76,2.01 3.18,6.47 4.27,10.15 0.85,2.88 2.87,7.61 3.61,11.61 L 106.72,168 h 41.75 c 2.13,-6.07 7.10,-14.10 13.38,-19.78 1.16,-1.05 8.89,-7.16 9.48,-8.40 0.85,-1.76 0.04,-4.75 -2.34,-4.48 0.77,0.09 -1.77,0.52 -3.07,1.45 -2.35,1.67 -9.27,5.11 -12.27,7.21 3.14,-4.61 9.36,-11.82 11.02,-14.23 1.74,-2.53 4.95,-7.69 5.48,-10.90 l -5.23,-1.94 c -1.78,1.18 -3.87,3.35 -6.52,6.55 -5.20,6.28 -11.48,15.60 -13.21,14.30 -1.73,-1.30 5.41,-11.05 8.66,-17.33 1.15,-2.23 2.27,-4.40 3.20,-6.45 l -8.55,-3.17 c -1.78,2.42 -3.31,5.07 -4.18,6.80 -2.17,4.33 -7.80,16.90 -9.75,16.25 -1.95,0.65 1.30,-11.48 4.55,-17.55 1.34,-2.50 2.65,-5.17 3.62,-7.66 z"/><path style="fill:#6c5548" d="M 165.57,32 C 155.15,32 136,32 119.35,39.48 112.26,42.66 105.45,51.78 108.92,55.25 c 3.48,3.48 10.49,-5.17 20.85,-8.83 C 148,40 168.37,36.79 176,35.89 V 33.59 C 173.81,32.77 170.49,32 165.57,32 Z"/><path style="filter:url(#filter901);opacity:.2" d="M 141.78,50.00 C 129.46,50.00 116,67.01 116,79.39 c 0,6.97 15.82,8.92 27.73,10.45 C 155.96,91.40 168,81.33 168,68.94 c 0,0.91 0.09,-1.77 0.23,-2.61 0,0 0,0.01 0,0.01 0.01,0.04 0.02,0.08 0.02,0.12 0.00,0.00 0.01,0.01 0.01,0.01 -1.74,-9.73 -12.57,-15.17 -23.14,-16.01 0.01,0.00 0.02,0.01 0.03,0.01 0.93,0.07 -1.86,0.18 -2.78,0.18 z"/><path style="fill:#fff" d="M 141.78,48 C 129.46,48 116,65.01 116,77.39 c 0,6.97 15.82,8.92 27.73,10.45 C 155.96,89.40 168,79.33 168,66.94 c 0,0.91 0.09,-1.77 0.23,-2.61 0,0 0,0.01 0,0.01 0.01,0.04 0.02,0.08 0.02,0.12 0.00,0.00 0.01,0.01 0.01,0.01 -1.74,-9.73 -12.57,-15.17 -23.14,-16.01 0.01,0.00 0.02,0.01 0.03,0.01 0.93,0.07 -1.86,0.18 -2.78,0.18 z"/><path style="fill:#583268" d="M 147.47,48.57 A 12.13,12.19 0 0 0 140,59.80 12.13,12.19 0 0 0 152.13,72 a 12.13,12.19 0 0 0 12.13,-12.20 12.13,12.19 0 0 0 0.45,-3.25 c -3.88,-4.29 -9.97,-6.98 -16.34,-7.98 z"/><path style="fill:#54d883" d="m 35.60,24 c 0.77,8.00 3.30,16.92 5.81,21.27 C 46.38,53.88 55.39,53.37 64,48.40 72.61,43.43 79.15,35.48 74.18,26.88 73.68,26.00 72.95,25.01 72.18,24 Z"/><path style="filter:url(#filter1101);opacity:.2" d="M 97.29,26 58.70,168 H 60 63.83 66.98 L 105.57,26 H 104 Z"/><path style="filter:url(#filter1124);opacity:.2" d="M 84,90 81.93,97.73 173,122.93 V 122 114.65 Z"/><path style="fill:#fff" d="M 97.29,24 58.70,168 H 60 63.83 66.98 L 105.57,24 H 104 Z"/><path style="fill:#fff" d="M 84,88 81.93,95.73 176,120.93 V 120 112.65 Z"/><path style="opacity:.2;fill:#fff" d="M 24 24 C 19.57 24 16 27.57 16 32 L 16 33 C 16 28.57 19.57 25 24 25 L 168 25 C 172.43 25 176 28.57 176 33 L 176 32 C 176 27.57 172.43 24 168 24 L 24 24 z"/></svg>