<?xml version='1.0' encoding='utf-8'?>
<svg xmlns="http://www.w3.org/2000/svg" width="192" height="192" version="1.1" id="svg22">
  <defs>
    <filter style="color-interpolation-filters:sRGB" id="filter875" x="0.05" width="1.10" y="0.05" height="1.10">
      <feGaussianBlur stdDeviation="3.20"/>
    </filter>
    <filter style="color-interpolation-filters:sRGB" id="filter891" x="0.04" width="1.09" y="0.05" height="1.11">
      <feGaussianBlur stdDeviation="1.32"/>
    </filter>
    <filter style="color-interpolation-filters:sRGB" id="filter907" x="0.05" width="1.10" y="0.04" height="1.09">
      <feGaussianBlur stdDeviation="1.56"/>
    </filter>
  </defs>
  <path d="M 96,20 A 80,80 0 0 0 16,100 80,80 0 0 0 96,180 80,80 0 0 0 176,100 80,80 0 0 0 96,20 Z" style="filter:url(#filter875);opacity:0.20;fill:#000000"/>
  <path style="fill:#ff7c40" d="M 96,16 A 80,80 0 0 0 16,96 80,80 0 0 0 96,176 80,80 0 0 0 176,96 80,80 0 0 0 96,16 Z"/>
  <path style="filter:url(#filter907);opacity:0.20" d="m 112,50.00 a 36,12 0 0 0 -36,12 36,12 0 0 0 36,12 36,12 0 0 0 36,-12 36,12 0 0 0 -36,-12 z m 33.90,20 A 36,11.99 0 0 1 112,78.00 36,11.99 0 0 1 78.10,70.02 36,11.99 0 0 0 76,74.01 a 36,11.99 0 0 0 9.75,8.19 c 8.06,0.43 15.19,1.74 20.52,3.65 A 36,11.99 0 0 0 112,86.00 36,11.99 0 0 0 148,74.01 36,11.99 0 0 0 145.90,70.00 Z m 0,12 A 36,11.99 0 0 1 113.88,89.97 c 1.35,1.26 2.12,2.62 2.12,4.03 0.26,0.24 0.39,1.83 0.48,3.89 A 36,11.99 0 0 0 148,86.01 36,11.99 0 0 0 145.90,82.00 Z m -67.80,0.02 a 36,11.99 0 0 0 0.05,0.05 c 0.03,0.00 0.07,0.00 0.10,0 a 36,11.99 0 0 1 0.05,0.05 z m 67.80,11.98 a 36,11.99 0 0 1 -29.33,7.90 c 0.02,2.41 0.00,5.13 0.05,7.99 A 36,11.99 0 0 0 148,98.01 36,11.99 0 0 0 145.90,94.00 Z m 0,12 a 36,11.99 0 0 1 -29.44,7.91 c 0.09,3.81 0.14,5.23 0.23,8 A 36,11.99 0 0 0 148,110.01 a 36,11.99 0 0 0 -2.10,-4.01 z m 0,12 a 36,11.99 0 0 1 -29.78,7.91 c 0.03,0.89 0.12,3.94 0.12,4.09 0.00,1.39 0.74,2.72 -2.05,3.96 A 36,11.99 0 0 0 148,122.01 a 36,11.99 0 0 0 -2.10,-4.01 z"/>
  <path style="opacity:0.20;fill:#ffffff" d="M 96.00 16 A 80 80 0 0 0 16 96 A 80 80 0 0 0 16.02 96.41 A 80 80 0 0 1 96.00 17 L 96 17 A 80 80 0 0 1 175.98 96.58 A 80 80 0 0 0 176.00 96 A 80 80 0 0 0 96 16 L 96.00 16 z "/>
  <path style="fill:#ffd8c6" d="M 112,48 A 36,12 0 0 0 76,60 36,12 0 0 0 112,72 36,12 0 0 0 148,60 36,12 0 0 0 112,48 Z m 33.90,20 A 36,11.99 0 0 1 112,76 36,11.99 0 0 1 78.10,68.02 36,11.99 0 0 0 76,72.01 36,11.99 0 0 0 112,84 36,11.99 0 0 0 148,72.01 36,11.99 0 0 0 145.90,68 Z m 0,12 A 36,11.99 0 0 1 112,88 36,11.99 0 0 1 106.23,87.83 c 5.96,2.13 9.69,4.95 9.76,8.09 A 36,11.99 0 0 0 148,84.01 36,11.99 0 0 0 145.90,80 Z M 78.10,80.02 A 36,11.99 0 0 0 76,84.01 a 36,11.99 0 0 0 0.02,0.12 C 77.34,84.08 78.64,84 80,84 c 1.97,0 3.88,0.09 5.77,0.20 a 36,11.99 0 0 1 -7.66,-4.18 z M 145.90,92 a 36,11.99 0 0 1 -29.41,7.91 c 0.09,2.06 0.08,4.95 0.06,7.98 A 36,11.99 0 0 0 148,96.01 36,11.99 0 0 0 145.90,92 Z m 0,12 a 36,11.99 0 0 1 -29.38,7.90 c 0.06,3.57 0.08,4.76 0.18,8 A 36,11.99 0 0 0 148,108.01 36,11.99 0 0 0 145.90,104 Z m 0,12 a 36,11.99 0 0 1 -29.66,7.91 c 0.09,2.78 0.24,7.67 0.23,8.01 A 36,11.99 0 0 0 148,120.01 36,11.99 0 0 0 145.90,116 Z"/>
  <path style="filter:url(#filter891);opacity:0.20" d="M 80,86 A 36,12 0 0 0 44,98 36,12 0 0 0 80,110 36,12 0 0 0 116,98 36,12 0 0 0 80,86 Z m 33.90,20 A 36,11.99 0 0 1 80,114 36,11.99 0 0 1 46.10,106.02 36,11.99 0 0 0 44,110.01 36,11.99 0 0 0 80,122 36,11.99 0 0 0 116,110.01 36,11.99 0 0 0 113.90,106 Z m 0,12 A 36,11.99 0 0 1 80,126 36,11.99 0 0 1 46.10,118.02 36,11.99 0 0 0 44,122.01 36,11.99 0 0 0 80,134 36,11.99 0 0 0 116,122.01 36,11.99 0 0 0 113.90,118 Z m 0,12 A 36,11.99 0 0 1 80,138 36,11.99 0 0 1 46.10,130.02 36,11.99 0 0 0 44,134.01 36,11.99 0 0 0 80,146 36,11.99 0 0 0 116,134.01 36,11.99 0 0 0 113.90,130 Z"/>
  <ellipse style="fill:#ffffff" cx="80" cy="96" rx="36" ry="12"/>
  <path style="fill:#ffffff" d="M 113.90,116 A 36,11.99 0 0 1 80,124.00 36,11.99 0 0 1 46.10,116.02 36,11.99 0 0 0 44,120.01 36,11.99 0 0 0 80,132 36,11.99 0 0 0 116,120.01 36,11.99 0 0 0 113.90,116 Z"/>
  <path style="fill:#ffffff" d="M 113.90,104 A 36,11.99 0 0 1 80,112.00 36,11.99 0 0 1 46.10,104.02 36,11.99 0 0 0 44,108.01 36,11.99 0 0 0 80,120 36,11.99 0 0 0 116,108.01 36,11.99 0 0 0 113.90,104 Z"/>
  <path style="fill:#ffffff" d="M 113.90,128 A 36,11.99 0 0 1 80,136.00 36,11.99 0 0 1 46.10,128.02 36,11.99 0 0 0 44,132.01 36,11.99 0 0 0 80,144 36,11.99 0 0 0 116,132.01 36,11.99 0 0 0 113.90,128 Z"/>
</svg>
