<?xml version='1.0' encoding='utf-8'?>
<svg xmlns="http://www.w3.org/2000/svg" width="192" height="192" version="1" id="svg28">
  <defs>
    <filter style="color-interpolation-filters:sRGB" id="filter6495" x="0.05" y="0.05" width="1.10" height="1.10">
      <feGaussianBlur stdDeviation="3.20"/>
    </filter>
    <filter style="color-interpolation-filters:sRGB" id="filter11173" x="0.09" y="0.14" width="1.18" height="1.28">
      <feGaussianBlur stdDeviation="3.48"/>
    </filter>
    <filter style="color-interpolation-filters:sRGB" id="filter11215" x="0.12" y="0.14" width="1.23" height="1.28">
      <feGaussianBlur stdDeviation="3.48"/>
    </filter>
  </defs>
  <rect transform="matrix(0,-1,-1,0,0,0)" ry="12" rx="12" y="-176" x="-180" height="160" width="160" style="filter:url(#filter6495);opacity:0.20;fill:#000000"/>
  <rect transform="matrix(0,-1,-1,0,0,0)" ry="12" rx="12" y="-176" x="-176" height="160" width="160" style="fill:#00abff"/>
  <path style="opacity:0.20;fill:#ffffff" d="m 28,16 c -6.65,0 -12,5.35 -12,12 v 1 c 0,-6.65 5.35,-12 12,-12 h 136 c 6.65,0 12,5.35 12,12 v -1 c 0,-6.65 -5.35,-12 -12,-12 z"/>
  <rect style="fill:#ececec" width="102" height="68" x="45" y="62" ry="6" rx="6"/>
  <rect style="fill:#0182ec" width="92" height="54" x="50" y="68" ry="2.99" rx="3.01"/>
  <path style="filter:url(#filter11215);opacity:0.20;fill:#000000" d="M 147,72.29 75.49,108.24 141,132 c 3.12,1.13 6,-2.68 6,-6 z"/>
  <path style="fill:#f7f7f7" d="M 147 70.29 L 52.01 130 L 141 130 C 144.32 130 147 127.32 147 124 L 147 70.29 z "/>
  <path style="filter:url(#filter11173);opacity:0.20;fill:#000000" d="M 45,72.38 V 126 c 0,3.32 2.68,6 6,6 h 88.86 z"/>
  <path style="fill:#ffffff" d="M 45 70.38 L 45 124 C 45 127.32 47.68 130 51 130 L 139.86 130 L 45 70.38 z "/>
</svg>
