<?xml version='1.0' encoding='utf-8'?>
<svg xmlns="http://www.w3.org/2000/svg" id="Camada_1" viewBox="0 0 192 192" version="1.1" width="192" height="192">
  <defs>
    <filter style="color-interpolation-filters:sRGB" id="filter2123" x="-0.10365957" y="-0.031230769" width="1.2073191" height="1.0624615">
      <feGaussianBlur stdDeviation="2.03"/>
    </filter>
    <filter style="color-interpolation-filters:sRGB" id="filter2127" x="-0.10365957" y="-0.031230769" width="1.2073191" height="1.0624615">
      <feGaussianBlur stdDeviation="2.03"/>
    </filter>
    <filter style="color-interpolation-filters:sRGB" id="filter2131" x="-0.10365957" y="-0.031230769" width="1.2073191" height="1.0624615">
      <feGaussianBlur stdDeviation="2.03"/>
    </filter>
    <filter style="color-interpolation-filters:sRGB" id="filter2174" x="-0.061317568" y="-0.096542553" width="1.1226351" height="1.1930851">
      <feGaussianBlur stdDeviation="1.890625"/>
    </filter>
    <filter style="color-interpolation-filters:sRGB" id="filter2216" x="-0.16467391" y="-0.048557692" width="1.3293478" height="1.0971154">
      <feGaussianBlur stdDeviation="3.15625"/>
    </filter>
  </defs>
  <rect style="filter:url(#filter2123);opacity:0.2;fill:#000000" width="47" height="156" x="124" y="-174" rx="7.8333335" ry="7.8000002" transform="rotate(90)"/>
  <rect style="fill:#1b953c" width="47" height="156" x="120" y="-174" rx="7.8333335" ry="7.8000002" transform="rotate(90)"/>
  <rect style="filter:url(#filter2127);opacity:0.2;fill:#000000" width="47" height="156" x="77" y="-174" rx="7.8333335" ry="7.8000002" transform="rotate(90)"/>
  <rect style="fill:#4e52b3" width="47" height="156" x="73" y="-174" rx="7.8333335" ry="7.8000002" transform="rotate(90)"/>
  <rect style="filter:url(#filter2131);opacity:0.2;fill:#000000" width="47" height="156" x="30" y="-174" rx="7.8333335" ry="7.8000002" transform="rotate(90)"/>
  <rect style="fill:#cd2a50" width="47" height="156" x="26" y="-174" rx="7.8333335" ry="7.8000002" transform="rotate(90)"/>
  <rect style="filter:url(#filter2216);opacity:0.2;fill:#000000" width="46" height="156" x="73" y="20" rx="7.666667" ry="7.8000002"/>
  <path style="opacity:0.1;fill:#ffffff" d="M 25.800781 26 C 21.479581 26 18 29.494318 18 33.833984 L 18 34.833984 C 18 30.494318 21.479581 27 25.800781 27 L 166.19922 27 C 170.52042 27 174 30.494318 174 34.833984 L 174 33.833984 C 174 29.494318 170.52042 26 166.19922 26 L 25.800781 26 z "/>
  <rect style="fill:#9d4d25" width="46" height="156" x="73" y="18" rx="7.666667" ry="7.8000002"/>
  <path style="filter:url(#filter2174);opacity:0.2;fill:#000000" d="M 66.443359,75 C 62.321275,75 59,78.495571 59,82.833984 V 114.16602 C 59,118.50443 62.321275,122 66.443359,122 H 125.55664 C 129.67872,122 133,118.50443 133,114.16602 V 82.833984 C 133,78.495571 129.67872,75 125.55664,75 H 119 V 86.75 90.666016 107 H 103 V 96 H 89 v 11 H 73 V 90.666016 86.75 75 Z"/>
  <path style="fill:#ffffff" d="M 66.443359 73 C 62.321275 73 59 76.495571 59 80.833984 L 59 112.16602 C 59 116.50443 62.321275 120 66.443359 120 L 125.55664 120 C 129.67872 120 133 116.50443 133 112.16602 L 133 80.833984 C 133 76.495571 129.67872 73 125.55664 73 L 119 73 L 119 84.75 L 119 88.666016 L 119 105 L 103 105 L 103 94 L 89 94 L 89 105 L 73 105 L 73 88.666016 L 73 84.75 L 73 73 L 66.443359 73 z "/>
  <circle style="opacity:0.3;fill:#000000" cx="96" cy="73" r="7"/>
  <circle style="opacity:0.3;fill:#000000" cx="96" cy="46" r="7"/>
  <rect class="cls-11" x="30" y="81" width="11" height="31" style="fill:#ffd62b"/>
  <rect class="cls-11" x="30" y="128" width="11" height="31" style="fill:#ffd62b"/>
  <rect class="cls-11" x="30" y="34" width="11" height="31" style="fill:#ffd62b"/>
  <path style="opacity:0.1;fill:#ffffff" d="M 80.666016 18 C 76.418682 18 73 21.479581 73 25.800781 L 73 26.800781 C 73 22.479581 76.418682 19 80.666016 19 L 111.33398 19 C 115.58132 19 119 22.479581 119 26.800781 L 119 25.800781 C 119 21.479581 115.58132 18 111.33398 18 L 80.666016 18 z "/>
</svg>
