<?xml version='1.0' encoding='utf-8'?>
<svg xmlns="http://www.w3.org/2000/svg" width="192" height="192" version="1" id="svg24">
  <defs>
    <filter style="color-interpolation-filters:sRGB" id="filter866" x="0.05" width="1.10" y="0.05" height="1.10">
      <feGaussianBlur stdDeviation="3.20"/>
    </filter>
    <filter style="color-interpolation-filters:sRGB" id="filter894" x="0.05" width="1.10" y="0.05" height="1.10">
      <feGaussianBlur stdDeviation="2.40"/>
    </filter>
    <filter style="color-interpolation-filters:sRGB" id="filter916" x="0.05" width="1.10" y="0.05" height="1.10">
      <feGaussianBlur stdDeviation="0.64"/>
    </filter>
  </defs>
  <rect transform="matrix(0,-1,-1,0,0,0)" ry="80" rx="80" y="-176" x="-180" height="160" width="160" style="filter:url(#filter866);opacity:0.20"/>
  <rect transform="matrix(0,-1,-1,0,0,0)" ry="80" rx="80" y="-176" x="-176" height="160" width="160" style="fill:#0098e1"/>
  <rect transform="matrix(0,-1,-1,0,0,0)" ry="60" rx="60" y="-156" x="-160" height="120" width="120" style="filter:url(#filter894);opacity:0.20"/>
  <rect transform="matrix(0,-1,-1,0,0,0)" ry="60" rx="60" y="-156" x="-156" height="120" width="120" style="fill:#e3e3e3"/>
  <path d="M 56,136 88.93,88.94 103.06,103.07 Z" style="fill:#f34235"/>
  <path d="m 136,56 -47.06,32.93 14.13,14.13 z" style="fill:#00a170"/>
  <circle r="16" cy="98" cx="96" style="filter:url(#filter916);opacity:0.10;fill:#000000"/>
  <circle r="16" cy="96" cx="96" style="fill:#ffffff"/>
  <path style="opacity:0.20;fill:#ffffff" d="M 96 16 C 51.68 16 16 51.68 16 96 C 16 96.12 16.01 96.23 16.01 96.34 C 16.36 52.33 51.90 17 96 17 C 140.10 17 175.64 52.33 175.99 96.34 C 175.99 96.23 176 96.12 176 96 C 176 51.68 140.32 16 96 16 z "/>
  <path style="opacity:0.20;fill:#ffffff" d="M 96 36 C 62.76 36 36 62.76 36 96 C 36 96.13 36.01 96.25 36.02 96.37 C 36.35 63.42 62.97 37 96 37 C 129.03 37 155.65 63.42 155.98 96.37 C 155.99 96.25 156 96.13 156 96 C 156 62.76 129.24 36 96 36 z "/>
</svg>
