<?xml version='1.0' encoding='utf-8'?>
<svg xmlns="http://www.w3.org/2000/svg" width="192" height="192" version="1.1" id="svg38">
  <defs>
    <filter style="color-interpolation-filters:sRGB" id="filter1398" x="-0.16199909" y="-0.16199501" width="1.3239982" height="1.32399">
      <feGaussianBlur stdDeviation="3.2398185"/>
    </filter>
    <filter style="color-interpolation-filters:sRGB" id="filter1402" x="-0.48597279" y="-0.077755646" width="1.9719456" height="1.1555113">
      <feGaussianBlur stdDeviation="3.2398185"/>
    </filter>
    <filter style="color-interpolation-filters:sRGB" id="filter1406" x="-0.16199909" y="-0.16199501" width="1.3239982" height="1.32399">
      <feGaussianBlur stdDeviation="3.2398185"/>
    </filter>
    <filter style="color-interpolation-filters:sRGB" id="filter1410" x="-0.16983802" y="-0.313948" width="1.339676" height="1.627896">
      <feGaussianBlur stdDeviation="3.2399432"/>
    </filter>
    <filter style="color-interpolation-filters:sRGB" id="filter1414" x="-0.12121" y="-0.22408829" width="1.24242" height="1.4481766">
      <feGaussianBlur stdDeviation="3.2399432"/>
    </filter>
    <filter style="color-interpolation-filters:sRGB" id="filter1418" x="-0.091094937" y="-0.16841081" width="1.1821899" height="1.3368216">
      <feGaussianBlur stdDeviation="3.2399432"/>
    </filter>
    <filter style="color-interpolation-filters:sRGB" id="filter1422" x="-0.19438911" y="-0.19438911" width="1.3887782" height="1.3887782">
      <feGaussianBlur stdDeviation="3.2398185"/>
    </filter>
  </defs>
  <path style="filter:url(#filter1402);opacity:0.2;fill:#010101;color:#000000" d="m 80,80 a 8,8 0 0 0 -8,8 v 84 a 8,8 0 0 0 8,8 8,8 0 0 0 8,-8 V 88 a 8,8 0 0 0 -8,-8 z"/>
  <circle style="filter:url(#filter1422);opacity:0.2" cx="32" cy="42" r="20"/>
  <path style="filter:url(#filter1398);opacity:0.2;fill:#010101;color:#000000" d="m 80,132 a 8,8 0 0 0 -5.65625,2.34375 l -32,32 a 8,8 0 0 0 0,11.3125 8,8 0 0 0 11.3125,0 l 32,-32 a 8,8 0 0 0 0,-11.3125 A 8,8 0 0 0 80,132 Z"/>
  <path style="fill:none;stroke:#9c9c9c;stroke-width:16;stroke-linecap:round;stroke-linejoin:round" d="M 80,136 48,168"/>
  <path style="fill:none;stroke:#757575;stroke-width:16;stroke-linecap:round;stroke-linejoin:round" d="M 80,168 V 84"/>
  <path style="filter:url(#filter1406);opacity:0.2;fill:#010101;color:#000000" d="m 80,132 a 8,8 0 0 0 -5.65625,2.34375 8,8 0 0 0 0,11.3125 l 32,32 a 8,8 0 0 0 11.3125,0 8,8 0 0 0 0,-11.3125 l -32,-32 A 8,8 0 0 0 80,132 Z"/>
  <path style="fill:none;stroke:#9c9c9c;stroke-width:16;stroke-linecap:round;stroke-linejoin:round" d="m 80,136 32,32"/>
  <rect style="filter:url(#filter1410);opacity:0.2" width="45.784" height="24.768" x="164.36" y="7.0799999" rx="5.0599999" ry="5.0960002" transform="matrix(0.86289498,0.50538328,-0.49463601,0.86910024,0,0)"/>
  <rect style="fill:#607582" width="45.784" height="24.768" x="162.36" y="3.5999999" rx="5.0599999" ry="5.0960002" transform="matrix(0.86289498,0.50538328,-0.49463601,0.86910024,0,0)"/>
  <path style="opacity:0.1;fill:#ffffff" d="M 140.06641 87.070312 C 138.36567 87.107736 136.72878 88.022865 135.8125 89.632812 L 128.60156 102.29688 C 128.07025 103.23041 127.8983 104.24647 127.99805 105.23242 C 128.06129 104.57281 128.24883 103.91665 128.60156 103.29688 L 135.8125 90.632812 C 136.85968 88.792872 138.84748 87.861615 140.79688 88.109375 C 141.44667 88.191967 142.09072 88.403733 142.69531 88.757812 L 173.47656 106.78906 C 174.93515 107.64334 175.79925 109.11473 175.95312 110.68555 C 176.13802 108.76006 175.24254 106.82337 173.47656 105.78906 L 142.69531 87.757812 C 142.09072 87.403733 141.44667 87.191967 140.79688 87.109375 C 140.5532 87.078405 140.30937 87.064966 140.06641 87.070312 z "/>
  <rect style="filter:url(#filter1414);opacity:0.2" width="64.152" height="34.700001" x="109.92" y="2.0799999" rx="7.0879998" ry="7.1399999" transform="matrix(0.86289498,0.50538328,-0.49463601,0.86910024,0,0)"/>
  <rect style="fill:#4b626d" width="64.152" height="34.700001" x="107.92" y="-1.36" rx="7.0879998" ry="7.1399999" transform="matrix(0.86289498,0.50538328,-0.49463601,0.86910024,0,0)"/>
  <circle style="fill:#00baff" cx="32" cy="38" r="20"/>
  <path style="opacity:0.2;fill:#ffffff" d="M 32 18 A 20 20 0 0 0 12 38 A 20 20 0 0 0 12.029297 38.564453 A 20 20 0 0 1 32 19 A 20 20 0 0 1 51.984375 38.300781 A 20 20 0 0 0 52 38 A 20 20 0 0 0 32 18 z "/>
  <rect style="filter:url(#filter1418);opacity:0.2" width="85.360001" height="46.172001" x="38.959999" y="-3.6400001" rx="9.4320002" ry="9.5" transform="matrix(0.86289498,0.50538328,-0.49463601,0.86910024,0,0)"/>
  <path style="opacity:0.1;fill:#ffffff" d="M 96.408203 55.982422 C 96.237762 55.981829 96.067926 55.987981 95.898438 56 C 93.638598 56.16024 91.496166 57.42192 90.273438 59.570312 L 80.171875 77.320312 C 79.440458 78.605448 79.158943 80.016783 79.255859 81.386719 C 79.326291 80.340552 79.617527 79.29433 80.171875 78.320312 L 90.273438 60.570312 C 91.496166 58.42192 93.638598 57.16024 95.898438 57 C 97.254346 56.903848 98.651179 57.208901 99.921875 57.953125 L 143.04688 83.210938 C 145.15499 84.445627 146.37933 86.600954 146.53906 88.880859 C 146.71723 86.246518 145.46182 83.625332 143.04688 82.210938 L 99.921875 56.953125 C 98.810016 56.301929 97.601291 55.986571 96.408203 55.982422 z "/>
  <rect style="fill:#37474f" width="85.360001" height="46.172001" x="36.959999" y="-7.0799999" rx="9.4320002" ry="9.5" transform="matrix(0.86289498,0.50538328,-0.49463601,0.86910024,0,0)"/>
  <path style="opacity:0.1;fill:#ffffff" d="M 38.867188 16 C 38.640242 15.999282 38.413016 16.007445 38.1875 16.023438 C 35.180625 16.236666 32.337859 17.914853 30.710938 20.773438 L 17.265625 44.390625 C 16.332846 46.029566 15.953648 47.822742 16.039062 49.574219 C 16.115983 48.147738 16.509745 46.718744 17.265625 45.390625 L 30.710938 21.773438 C 32.337859 18.914854 35.180625 17.236666 38.1875 17.023438 C 39.991625 16.8955 41.856127 17.298821 43.546875 18.289062 L 100.92969 51.890625 C 103.80214 53.572971 105.42994 56.538239 105.57422 59.652344 C 105.76949 56.185125 104.10854 52.75243 100.92969 50.890625 L 43.546875 17.289062 C 42.06747 16.422601 40.455804 16.005028 38.867188 16 z "/>
</svg>
