<?xml version='1.0' encoding='utf-8'?>
<svg xmlns="http://www.w3.org/2000/svg" width="192" height="192" version="1" id="svg12">
  <defs>
    <filter style="color-interpolation-filters:sRGB" id="filter845" x="0.05" y="0.05" width="1.10" height="1.10">
      <feGaussianBlur stdDeviation="3.20"/>
    </filter>
    <filter style="color-interpolation-filters:sRGB" id="filter867" x="0.05" y="0.05" width="1.10" height="1.10">
      <feGaussianBlur stdDeviation="3.20"/>
    </filter>
  </defs>
  <circle style="filter:url(#filter845);opacity:0.20" cx="96" cy="100" r="80"/>
  <circle style="fill:#e4e4e4" cx="96" cy="96" r="80"/>
  <path style="opacity:0.20;fill:#ffffff" d="M 96 16 A 80 80 0 0 0 16 96 A 80 80 0 0 0 16.02 96.64 A 80 80 0 0 1 96 17 A 80 80 0 0 1 175.98 96.30 A 80 80 0 0 0 176 96 A 80 80 0 0 0 96 16 z "/>
  <path style="filter:url(#filter867);opacity:0.20" d="m 56.24,177.34 c 0.74,-8.30 5.64,-15.45 8.15,-23.13 2.12,-6.31 9.95,-15.31 1.71,-20.33 -8.58,-5.64 -22.93,-5.33 -28.85,-8.05 -4.15,-7.15 8.88,-10.29 11.13,-16.32 0.93,-8.21 -9.74,-8.16 -15.04,-10.95 -4.24,-1.04 -11.50,-5.45 -3.30,-6.71 10.09,-4.95 -2.12,-14.45 -5.92,-19.63 -2.98,-4.06 -14.73,-13.99 -3.04,-13.93 9.17,-1.12 18.46,0.42 27.61,-1.42 6.23,-1.10 3.15,-17.35 9.97,-8.04 6.20,6.68 8.34,18.38 16.89,21.44 7.32,2.62 7.94,-13.53 9.48,-20.27 1.58,-6.91 2.43,-16.53 7.68,-17.59 3.78,9.34 12.65,5.40 18.09,0.05 C 117.95,27.51 124.39,21.22 132.45,18 c 4.62,5.20 2.19,14.55 3.37,21.38 0.22,7.21 0.26,22.44 10.62,14.31 9.73,-3.40 0.17,9.03 -2.14,12.34 -5.10,8.02 -11.12,15.48 -15.77,23.77 -3.16,9.56 11.99,6.49 17.63,7.89 4.96,1.10 15.46,0.85 17.09,2.98 -7.28,3.52 -9.78,12.11 -2.93,18.51 5.07,4.73 13.56,8.33 15.68,13.87 -9.05,5.53 -19.92,2.89 -29.85,4.09 -4.01,3.13 2.46,17.27 -6.06,10.66 -6.75,-3.06 -15.13,-12.88 -21.87,-7.08 -5.95,5.12 0.62,15.51 -4.35,22.14 -4.28,-4.12 -7.70,-9.79 -13.08,-12.99 -6.30,-3.58 -15.04,-10.81 -21.49,-5.33 -6.25,5.31 -7.40,14.79 -11.34,21.99 -2.66,4.91 -4.15,14.00 -11.71,10.81 z"/>
  <path style="fill:#014c71" d="m 56.24,175.34 c 0.74,-8.30 5.64,-15.45 8.15,-23.13 2.12,-6.31 9.95,-15.31 1.71,-20.33 -8.58,-5.64 -22.93,-5.33 -28.85,-8.05 -4.15,-7.15 8.88,-10.29 11.13,-16.32 C 49.32,99.29 38.64,99.35 33.34,96.55 29.11,95.51 21.84,91.10 30.04,89.84 40.13,84.89 27.92,75.39 24.12,70.21 21.14,66.15 9.39,56.23 21.08,56.29 c 9.17,-1.12 18.46,0.42 27.61,-1.42 6.23,-1.10 3.15,-17.35 9.97,-8.04 6.20,6.68 8.34,18.38 16.89,21.44 7.32,2.62 7.94,-13.53 9.48,-20.27 1.58,-6.91 2.43,-16.53 7.68,-17.59 3.78,9.34 12.65,5.40 18.09,0.05 7.14,-4.84 13.58,-11.13 21.64,-14.35 4.62,5.20 2.19,14.55 3.37,21.38 0.22,7.21 0.26,22.44 10.62,14.31 9.73,-3.40 0.17,9.03 -2.14,12.34 -5.10,8.02 -11.12,15.48 -15.77,23.77 -3.16,9.56 11.99,6.49 17.63,7.89 4.96,1.10 15.46,0.85 17.09,2.98 -7.28,3.52 -9.78,12.11 -2.93,18.51 5.07,4.73 13.56,8.33 15.68,13.87 -9.05,5.53 -19.92,2.89 -29.85,4.09 -4.01,3.13 2.46,17.27 -6.06,10.66 -6.75,-3.06 -15.13,-12.88 -21.87,-7.08 -5.95,5.12 0.62,15.51 -4.35,22.14 -4.28,-4.12 -7.70,-9.79 -13.08,-12.99 -6.30,-3.58 -15.04,-10.81 -21.49,-5.33 -6.25,5.31 -7.40,14.79 -11.34,21.99 -2.66,4.91 -4.15,14.00 -11.71,10.81 z"/>
</svg>
