<?xml version='1.0' encoding='utf-8'?>
<svg xmlns="http://www.w3.org/2000/svg" width="192" height="192" version="1" id="svg16">
  <defs>
    <filter style="color-interpolation-filters:sRGB" id="filter867" x="0.05" width="1.10" y="0.05" height="1.10">
      <feGaussianBlur stdDeviation="3.20"/>
    </filter>
    <filter style="color-interpolation-filters:sRGB" id="filter4020" x="0.05" y="0.05" width="1.10" height="1.09">
      <feGaussianBlur stdDeviation="2.28"/>
    </filter>
  </defs>
  <rect ry="80" rx="80" height="160" width="160" y="-176" x="-180" transform="matrix(0,-1,-1,0,0,0)" style="filter:url(#filter867);opacity:0.20;fill:#000000"/>
  <rect style="fill:#0190fd" transform="matrix(0,-1,-1,0,0,0)" x="-176" y="-176" width="160" height="160" rx="80" ry="80"/>
  <path style="filter:url(#filter4020);opacity:0.20;fill:#000000" d="m 110,37.00 a 35,35 0 0 0 -35,35 35,35 0 0 0 35,35.00 35,35 0 0 0 35,-35.00 35,35 0 0 0 -35,-35 z m 0,3 a 32,32 0 0 1 32,32 32,32 0 0 1 -32,32.00 32,32 0 0 1 -32,-32.00 32,32 0 0 1 32,-32 z m 0.07,9 c -4.56,0.05 -9.13,1.83 -12.63,5.34 -6.89,6.89 -7.08,17.68 0.46,24.81 2.43,2.61 5.07,4.21 8.53,5.16 4.86,1.33 6.67,2.81 6.63,5.97 0.02,1.15 0.58,2.54 -1.05,3.52 0.43,0.89 0.78,1.68 0.78,1.75 0,0.24 0.86,0.35 3.84,-2.66 14.49,-11.22 18.40,-29.05 8.52,-38.80 -3.48,-3.44 -8.04,-5.13 -12.60,-5.09 z m -9.43,11 c 0.83,0 1.50,0.67 1.50,1.50 0,0.83 0.67,1.50 -1.50,1.50 0.83,0 -1.50,0.67 -1.50,-1.50 0,0.83 0.67,-1.50 1.50,-1.50 z m 19,0 c 0.83,0 1.50,0.67 1.50,1.50 0,0.83 0.67,1.50 -1.50,1.50 0.83,0 -1.50,0.67 -1.50,-1.50 0,0.83 0.67,-1.50 1.50,-1.50 z m -21.50,9 h 12 12 l 0.25,2.04 c 0.53,4.33 -3.05,7.30 -7.16,8.45 -2.58,0.72 -7.14,0.66 -9.56,0.13 -1.07,0.35 -2.55,-1.06 -3.28,-1.59 C 100.08,76.58 98.57,73.68 98.25,71.05 Z m -47.24,8 c 0.94,0.00 -1.94,0.20 -3.07,0.56 -4.36,1.40 -7.77,4.17 -9.54,7.77 0.77,1.56 -1.01,2.63 -1.12,5.02 0.19,3.96 0.64,6.51 4.92,15.11 5.45,10.95 11.18,18.83 19.98,27.50 8.22,8.10 18.06,14.99 28.93,20.28 9.04,4.39 11.08,4.67 16.10,2.22 C 112.25,152.87 117,146.89 117,142.82 c 0,-1.98 0.87,-3.92 -2.38,-5.28 -1.73,-1.56 -6.93,-5.85 -10.56,-8.29 -4.33,-2.91 -6.66,-3.68 -9.29,-3.05 -1.94,0.46 -4.12,2.15 -5.65,4.37 -2.20,3.19 -5.22,4.63 -9.99,2.25 -7.43,-3.72 -13.09,-9.52 -16.70,-15.94 -3.78,-6.72 -3.01,-9.95 1.62,-13.30 4.27,-3.09 4.95,-5.47 2.81,-9.91 -1.53,-3.18 -3.86,-6.04 -7.29,-10.27 -3.72,-4.58 -5.99,-6.39 -8.80,-6.39 z"/>
  <path style="fill:#ffffff" d="m 109.93,47 c -4.56,0.05 -9.13,1.83 -12.63,5.34 -6.89,6.89 -7.08,17.68 0.46,24.81 2.43,2.61 5.07,4.21 8.53,5.16 4.86,1.33 6.67,2.81 6.63,5.97 0.02,1.15 0.58,2.54 -1.05,3.52 0.43,0.89 0.78,1.68 0.78,1.75 0,0.24 0.86,0.35 3.84,-2.66 14.49,-11.22 18.40,-29.05 8.52,-38.80 C 119.05,48.65 114.49,46.95 109.93,47 Z M 100.50,58 c 0.83,0 1.50,0.67 1.50,1.50 0,0.83 0.67,1.50 -1.50,1.50 C 99.67,61 99,60.33 99,59.50 99,58.67 99.67,58 100.50,58 Z m 19,0 c 0.83,0 1.50,0.67 1.50,1.50 0,0.83 0.67,1.50 -1.50,1.50 0.83,0 -1.50,0.67 -1.50,-1.50 0,0.83 0.67,-1.50 1.50,-1.50 z M 98,67 h 12 12 l 0.25,2.04 c 0.53,4.33 -3.05,7.30 -7.16,8.45 -2.58,0.72 -7.14,0.66 -9.56,0.13 -1.07,0.35 -2.55,-1.06 -3.28,-1.59 -1.68,-1.20 -3.18,-4.10 -3.50,-6.74 z"/>
  <path style="fill:#ffffff" d="M 110 35 A 35 35 0 0 0 75 70 A 35 35 0 0 0 110 105 A 35 35 0 0 0 145 70 A 35 35 0 0 0 110 35 z M 110 38 A 32 32 0 0 1 142 70 A 32 32 0 0 1 110 102 A 32 32 0 0 1 78 70 A 32 32 0 0 1 110 38 z "/>
  <path style="opacity:0.20;fill:#ffffff" d="M 96 16 C 51.68 16 16 51.68 16 96 C 16 96.34 16.00 96.67 16 97 C 16 52.68 51.68 17 96 17 C 140.32 17 176 52.68 176 97 C 176.00 96.67 176 96.34 176 96 C 176 51.68 140.32 16 96 16 z "/>
  <path style="fill:#ffffff" d="M 106.96,153.46 C 112.25,150.87 117,144.89 117,140.82 c 0,-1.98 0.87,-3.92 -2.38,-5.28 -1.73,-1.56 -6.92,-5.85 -10.56,-8.29 -4.33,-2.91 -6.66,-3.68 -9.29,-3.05 -1.94,0.46 -4.12,2.15 -5.65,4.37 -2.20,3.19 -5.22,4.63 -9.99,2.25 -7.43,-3.72 -13.09,-9.52 -16.70,-15.94 -3.78,-6.72 -3.01,-9.95 1.62,-13.30 4.27,-3.09 4.95,-5.47 2.81,-9.91 -1.53,-3.18 -3.86,-6.05 -7.29,-10.27 -4.96,-6.11 -7.34,-7.28 -11.88,-5.83 -4.36,1.40 -7.77,4.17 -9.54,7.77 0.77,1.56 -1.01,2.63 -1.12,5.02 0.19,3.96 0.64,6.51 4.92,15.11 5.45,10.95 11.18,18.83 19.98,27.50 8.22,8.10 18.06,14.99 28.93,20.27 9.04,4.39 11.08,4.67 16.10,2.22 z"/>
  <path style="fill:#a3defe" d="m 61.26,104.18 c 0.47,0.42 -1.00,0.85 -1.61,1.29 -4.72,3.41 -5.50,6.69 -1.65,13.53 3.68,6.53 9.44,12.44 16.99,16.22 4.85,2.43 7.93,0.96 10.16,-2.29 0.52,0.75 1.12,-1.44 1.75,-2.04 -1.95,1.38 -4.43,1.60 -7.78,0.07 -7.43,-3.72 -13.09,-9.52 -16.70,-15.94 -2.82,-5.00 -3.10,-8.07 -1.16,-10.69 z"/>
</svg>
