<svg xmlns="http://www.w3.org/2000/svg" id="svg14" width="192" height="192" version="1"><defs><filter style="color-interpolation-filters:sRGB" id="filter850" width="1.1" height="1.1" x=".05" y=".05"><feGaussianBlur stdDeviation="3.2"/></filter><filter style="color-interpolation-filters:sRGB" id="filter3911" width="1.15" height="1.15" x=".07" y=".07"><feGaussianBlur stdDeviation="3.88"/></filter><filter style="color-interpolation-filters:sRGB" id="filter4044" width="1.17" height="1.3" x=".08" y=".15"><feGaussianBlur stdDeviation="3.06"/></filter></defs><circle style="filter:url(#filter850);opacity:.2;fill:#000" cx="96" cy="100" r="80"/><circle cx="96" cy="96" r="80" style="fill:#426fe2"/><circle style="filter:url(#filter3911);opacity:.2;fill:#000" cx="96" cy="98" r="62"/><path style="opacity:.1;fill:#fff" d="M 96 16 A 80 80 0 0 0 16 96 A 80 80 0 0 0 16.02 96.47 A 80 80 0 0 1 96 17 A 80 80 0 0 1 175.97 96.51 A 80 80 0 0 0 176 96 A 80 80 0 0 0 96 16 z"/><circle style="fill:#2e9cf3" cx="96" cy="96" r="62"/><path style="filter:url(#filter4044);opacity:.2;fill:#000;color:#000" d="m 58,73 a 6,6 0 0 0 -6,6 6,6 0 0 0 6,6 h 66.46 a 6.00,6.00 0 0 0 0.06,0 c 0,0 0.78,0.07 1.43,0.41 C 126.61,85.75 127,85.33 127,88 c 0,2.57 0.62,2.69 -1.60,3.28 0.94,0.57 -1.82,0.71 -1.89,0.72 H 94.32 68.32 a 6.00,6.00 0 0 0 0.01,0 C 61.58,92.01 56.25,94.47 53.83,98.51 51.41,102.55 52,106.48 52,107.40 V 116 a 6,6 0 0 0 6,6 6,6 0 0 0 6,-6 v -8.60 c 0,-2.05 0.17,-2.81 0.12,-2.72 0.05,0.09 0.22,0.67 4.20,0.68 h 26.00 c 5.51,0 8.48,1.01 13.46,3.74 4.98,2.74 11.60,7.32 22.22,13.45 A 6,6 0 0 0 138.20,119 6,6 0 0 0 136,110.80 c -4.45,-2.57 -8.07,-4.81 -11.32,-6.84 0.14,0.01 3.51,0.34 6.95,-2.43 C 135.14,99.40 139,94.52 139,88 139,81.58 135.13,76.66 131.51,74.77 127.89,72.89 124.40,73 124.40,73 Z"/><path style="fill:none;stroke:#fff;stroke-width:12;stroke-linecap:round;stroke-linejoin:round" d="m 58,77 h 66.46 c 0,0 8.54,0.09 8.54,9 0,9.09 -8.97,10 -8.97,10 H 68.32 C 57.16,96.02 58,102.43 58,105.40 V 114"/><path style="fill:none;stroke:#fff;stroke-width:12;stroke-linecap:round;stroke-linejoin:round" d="M 133,114 C 112.14,101.96 107.19,96 94.32,96"/><path style="opacity:.2;fill:#fff" d="M 96 34 A 62 62 0 0 0 34 96 A 62 62 0 0 0 34.04 96.50 A 62 62 0 0 1 96 35 A 62 62 0 0 1 157.98 96.25 A 62 62 0 0 0 158 96 A 62 62 0 0 0 96 34 z"/></svg>