<?xml version='1.0' encoding='utf-8'?>
<svg xmlns="http://www.w3.org/2000/svg" width="192" height="192" version="1" id="svg22">
  <defs>
    <filter style="color-interpolation-filters:sRGB" id="filter862" x="-0.048000001" width="1.096" y="-0.048000001" height="1.096">
      <feGaussianBlur stdDeviation="3.2"/>
    </filter>
    <filter style="color-interpolation-filters:sRGB" id="filter878" x="-0.048" width="1.096" y="-0.048" height="1.096">
      <feGaussianBlur stdDeviation="2.24"/>
    </filter>
  </defs>
  <rect style="filter:url(#filter862);opacity:0.2;fill:#000000" width="160" height="160" x="-180" y="-176" rx="80" ry="80" transform="matrix(0,-1,-1,0,0,0)"/>
  <rect transform="matrix(0,-1,-1,0,0,0)" ry="80" rx="80" y="-176" x="-176" height="160" width="160" style="fill:#4f4f4f"/>
  <path d="m 96,44 c -4.432,0 -8,3.568 -8,8 v 96 c 0,4.432 3.568,8 8,8 4.432,0 8,-3.568 8,-8 V 52 c 0,-4.432 -3.568,-8 -8,-8 z M 72,64 c -4.432,0 -8,3.568 -8,8 v 56 c 0,4.432 3.568,8 8,8 4.432,0 8,-3.568 8,-8 V 72 c 0,-4.432 -3.568,-8 -8,-8 z m 48,0 c -4.432,0 -8,3.568 -8,8 v 56 c 0,4.432 3.568,8 8,8 4.432,0 8,-3.568 8,-8 V 72 c 0,-4.432 -3.568,-8 -8,-8 z M 48,84 c -4.432,0 -8,3.568 -8,8 v 16 c 0,4.432 3.568,8 8,8 4.432,0 8,-3.568 8,-8 V 92 c 0,-4.432 -3.568,-8 -8,-8 z m 96,0 c -4.432,0 -8,3.568 -8,8 v 16 c 0,4.432 3.568,8 8,8 4.432,0 8,-3.568 8,-8 V 92 c 0,-4.432 -3.568,-8 -8,-8 z" style="filter:url(#filter878);opacity:0.2"/>
  <path style="opacity:0.1;fill:#ffffff" d="M 96 16 C 51.684 16 16.007812 51.68 16.007812 96 C 16.007812 96.33544 16.009812 96.667215 16.007812 97 C 16.007812 52.68 51.684 17 96 17 C 140.316 17 175.99219 52.68 175.99219 97 C 175.99019 96.667215 175.99219 96.33544 175.99219 96 C 175.99219 51.68 140.316 16 96 16 z "/>
  <rect ry="8" rx="8" y="40" x="88" height="112" width="16" style="fill:#64ff63"/>
  <rect ry="8" rx="8" y="60" x="64" height="72" width="16" style="fill:#ffee4b"/>
  <rect ry="8" rx="8" y="80" x="40" height="32" width="16" style="fill:#ff6060"/>
  <rect transform="scale(-1,1)" ry="8" rx="8" y="60" x="-128" height="72" width="16" style="fill:#36adff"/>
  <rect transform="scale(-1,1)" ry="8" rx="8" y="80" x="-152" height="32" width="16" style="fill:#e657f3"/>
  <path style="opacity:0.2;fill:#ffffff" d="M 96 40 C 91.568 40 88 43.568 88 48 L 88 49 C 88 44.568 91.568 41 96 41 C 100.432 41 104 44.568 104 49 L 104 48 C 104 43.568 100.432 40 96 40 z M 72 60 C 67.568 60 64 63.568 64 68 L 64 69 C 64 64.568 67.568 61 72 61 C 76.432 61 80 64.568 80 69 L 80 68 C 80 63.568 76.432 60 72 60 z M 120 60 C 115.568 60 112 63.568 112 68 L 112 69 C 112 64.568 115.568 61 120 61 C 124.432 61 128 64.568 128 69 L 128 68 C 128 63.568 124.432 60 120 60 z M 48 80 C 43.568 80 40 83.568 40 88 L 40 89 C 40 84.568 43.568 81 48 81 C 52.432 81 56 84.568 56 89 L 56 88 C 56 83.568 52.432 80 48 80 z M 144 80 C 139.568 80 136 83.568 136 88 L 136 89 C 136 84.568 139.568 81 144 81 C 148.432 81 152 84.568 152 89 L 152 88 C 152 83.568 148.432 80 144 80 z "/>
</svg>
