<?xml version='1.0' encoding='utf-8'?>
<svg xmlns="http://www.w3.org/2000/svg" width="192" height="192" version="1" id="svg12">
  <defs>
    <filter style="color-interpolation-filters:sRGB" id="filter24377" x="0.04" y="0.06" width="1.08" height="1.11">
      <feGaussianBlur stdDeviation="2.80"/>
    </filter>
    <filter style="color-interpolation-filters:sRGB" id="filter24419" x="0.07" y="0.07" width="1.15" height="1.15">
      <feGaussianBlur stdDeviation="2.44"/>
    </filter>
    <filter style="color-interpolation-filters:sRGB" id="filter24645" x="0.08" y="0.17" width="1.16" height="1.33">
      <feGaussianBlur stdDeviation="3.73"/>
    </filter>
    <filter style="color-interpolation-filters:sRGB" id="filter24687" x="0.10" y="0.12" width="1.19" height="1.24">
      <feGaussianBlur stdDeviation="1.43"/>
    </filter>
  </defs>
  <path style="filter:url(#filter24419);opacity:0.20;fill:#000000" d="M 96,18 A 39,39 0 0 0 57,57 39,39 0 0 0 96,96 39,39 0 0 0 135,57 39,39 0 0 0 96,18 Z m 0,13 A 26,26 0 0 1 122,57 26,26 0 0 1 96,83 26,26 0 0 1 70,57 26,26 0 0 1 96,31 Z"/>
  <path style="filter:url(#filter24377);opacity:0.20;fill:#000000" d="m 26,60 c -5.54,0 -10,4.46 -10,10 v 42 18 40 c 0,5.54 4.46,10 10,10 H 66 113.12 126 c 27.70,0 50,-22.30 50,-50 V 112.76 112 70 c 0,-5.54 -4.47,-10.28 -10,-10 H 126 66 Z"/>
  <path style="fill:#4f4f4f" d="M 96 16 A 39 39 0 0 0 57 55 A 39 39 0 0 0 96 94 A 39 39 0 0 0 135 55 A 39 39 0 0 0 96 16 z M 96 29 A 26 26 0 0 1 122 55 A 26 26 0 0 1 96 81 A 26 26 0 0 1 70 55 A 26 26 0 0 1 96 29 z "/>
  <path style="fill:#3dba32" d="m 26,56 c -5.54,0 -10,4.46 -10,10 v 42 18 40 c 0,5.54 4.46,10 10,10 H 66 113.12 126 c 27.70,0 50,-22.30 50,-50 V 108.76 108 66 c 0,-5.54 -4.47,-10.28 -10,-10 H 126 66 Z"/>
  <path style="opacity:0.15;fill:#000000" d="M 96,56 V 176 H 113.12 126 c 27.70,0 50,-22.30 50,-50 V 108.76 108 66 c 0,-5.54 -4.46,-10 -10,-10 h -40 z"/>
  <path style="opacity:0.20;fill:#ffffff" d="M 96 130 A 58 58 0 0 0 39.40 176 L 66 176 L 113.12 176 L 126 176 C 135.09 176 143.59 173.59 150.91 169.38 A 58 58 0 0 0 96 130 z "/>
  <path style="filter:url(#filter24687);opacity:0.20;fill:#000000" d="M 113.70,136.97 104.85,147.98 96.00,159 87.15,147.98 78.30,136.97 c 0,0 4.28,-5.97 17.70,-5.97 13.42,0 17.70,5.97 17.70,5.97 z"/>
  <path style="fill:#ffdd34" d="M 113.70,135.97 104.85,146.98 96.00,158 87.15,146.98 78.30,135.97 c 0,0 4.28,-5.97 17.70,-5.97 13.42,0 17.70,5.97 17.70,5.97 z"/>
  <path style="filter:url(#filter24645);opacity:0.20;fill:#000000" d="M 67,86 A 27,27 0 0 0 40,113 27,27 0 0 0 67,140 27,27 0 0 0 94,113 27,27 0 0 0 67,86 Z m 58,0 a 27,27 0 0 0 -27,27 27,27 0 0 0 27,27 27,27 0 0 0 27,-27 27,27 0 0 0 -27,-27 z"/>
  <circle style="fill:#ffffff" cx="67" cy="111" r="27"/>
  <path style="fill:#3f3f3f" d="M 53.56 101.79 A 18 18 0 0 0 51 111 A 18 18 0 0 0 69 129 A 18 18 0 0 0 87 111 A 18 18 0 0 0 69 93 A 18 18 0 0 0 66.50 93.20 A 8 8 0 0 1 66.87 93.56 A 8 8 0 0 1 67.25 94.01 A 8 8 0 0 1 67.61 94.49 A 8 8 0 0 1 67.93 95 A 8 8 0 0 1 68.21 95.53 A 8 8 0 0 1 68.45 96.08 A 8 8 0 0 1 68.64 96.64 A 8 8 0 0 1 68.80 97.22 A 8 8 0 0 1 68.91 97.81 A 8 8 0 0 1 68.98 98.40 A 8 8 0 0 1 69 99 A 8 8 0 0 1 68.80 100.78 A 8 8 0 0 1 68.21 102.47 A 8 8 0 0 1 67.25 103.99 A 8 8 0 0 1 65.99 105.25 A 8 8 0 0 1 64.47 106.21 A 8 8 0 0 1 62.78 106.80 A 8 8 0 0 1 61 107 A 8 8 0 0 1 59.22 106.80 A 8 8 0 0 1 57.53 106.21 A 8 8 0 0 1 56.01 105.25 A 8 8 0 0 1 54.75 103.99 A 8 8 0 0 1 53.79 102.47 A 8 8 0 0 1 53.56 101.79 z "/>
  <circle style="fill:#ffffff" cx="-125" cy="111" r="27" transform="scale(-1,1)"/>
  <path style="fill:#3f3f3f" d="M 107.56,101.79 A 18,18 0 0 0 105,111 a 18,18 0 0 0 18,18 18,18 0 0 0 18,-18 18,18 0 0 0 -18,-18 18,18 0 0 0 -2.50,0.20 8,8 0 0 1 0.36,0.36 8,8 0 0 1 0.39,0.45 8,8 0 0 1 0.36,0.48 8,8 0 0 1 0.32,0.51 8,8 0 0 1 0.28,0.53 8,8 0 0 1 0.24,0.55 8,8 0 0 1 0.20,0.56 8,8 0 0 1 0.15,0.58 8,8 0 0 1 0.11,0.59 8,8 0 0 1 0.07,0.59 A 8,8 0 0 1 123,99 a 8,8 0 0 1 0.20,1.78 8,8 0 0 1 0.59,1.69 8,8 0 0 1 0.95,1.52 8,8 0 0 1 -1.27,1.27 8,8 0 0 1 -1.52,0.95 8,8 0 0 1 -1.69,0.59 A 8,8 0 0 1 115,107 a 8,8 0 0 1 -1.78,0.20 8,8 0 0 1 -1.69,0.59 8,8 0 0 1 -1.52,0.95 8,8 0 0 1 -1.27,-1.27 8,8 0 0 1 0.95,-1.52 8,8 0 0 1 0.24,0.68 z"/>
  <path style="opacity:0.20;fill:#ffffff" d="M 26 56 C 20.46 56 16 60.46 16 66 L 16 67 C 16 61.46 20.46 57 26 57 L 66 57 L 126 57 L 166 57 C 171.53 56.72 176 61.46 176 67 L 176 66 C 176 60.46 171.53 55.72 166 56 L 126 56 L 66 56 L 26 56 z "/>
  <path style="opacity:0.10;fill:#ffffff" d="m 96,16 c -21.54,0 -39,17.46 -39,39 0.01,0.17 0.02,0.33 0.04,0.50 C 57.31,34.17 74.67,17.02 96,17 c 21.24,0.01 38.58,17.01 38.98,38.26 C 134.99,55.17 134.99,55.09 135,55 135,33.46 117.54,16 96,16 Z"/>
</svg>
