<?xml version='1.0' encoding='utf-8'?>
<svg xmlns="http://www.w3.org/2000/svg" width="192" height="192" version="1" id="svg28">
  <defs>
    <filter style="color-interpolation-filters:sRGB" id="filter3629" x="-0.048000001" y="-0.048000001" width="1.096" height="1.096">
      <feGaussianBlur stdDeviation="3.2"/>
    </filter>
    <filter style="color-interpolation-filters:sRGB" id="filter3712" x="-0.47249999" y="-0.060967741" width="1.945" height="1.1219355">
      <feGaussianBlur stdDeviation="2.3625"/>
    </filter>
  </defs>
  <rect transform="matrix(0,-1,-1,0,0,0)" ry="24" rx="24" y="-176" x="-180" height="160" width="160" style="filter:url(#filter3629);opacity:0.2;fill:#000000"/>
  <rect transform="matrix(0,-1,-1,0,0,0)" ry="24" rx="24" y="-176" x="-176" height="160" width="160" style="fill:#2764e9"/>
  <path style="opacity:0.45;fill:#000000;color:#000000" d="M 79,55.560547 67,62 v 33 c 0,15.94517 13.054826,29 29,29 15.94517,0 29,-13.05483 29,-29 V 62 L 113,55.560547 V 95 c 0,9.4599 -7.5401,17 -17,17 -9.459899,0 -17,-7.5401 -17,-17 z"/>
  <rect style="filter:url(#filter3712);opacity:0.2;fill:#000000;stop-color:#000000" width="12" height="93" x="90" y="51"/>
  <rect style="fill:#ffffff;stop-color:#000000" width="12" height="93" x="90" y="49"/>
  <path style="opacity:0.1;fill:#ffffff" d="M 40,16 C 26.704,16 16,26.704 16,40 v 1 C 16,27.704 26.704,17 40,17 h 112 c 13.296,0 24,10.704 24,24 V 40 C 176,26.704 165.296,16 152,16 Z"/>
</svg>
