<?xml version='1.0' encoding='utf-8'?>
<svg xmlns="http://www.w3.org/2000/svg" width="192" height="192" version="1.1" id="svg12">
  <defs>
    <filter style="color-interpolation-filters:sRGB" id="filter5218" x="0.08" y="0.07" width="1.17" height="1.14">
      <feGaussianBlur stdDeviation="3.09"/>
    </filter>
    <filter style="color-interpolation-filters:sRGB" id="filter5222" x="0.08" y="0.07" width="1.17" height="1.14">
      <feGaussianBlur stdDeviation="3.09"/>
    </filter>
    <filter style="color-interpolation-filters:sRGB" id="filter5226" x="0.08" y="0.07" width="1.17" height="1.14">
      <feGaussianBlur stdDeviation="3.09"/>
    </filter>
    <filter style="color-interpolation-filters:sRGB" id="filter5268" x="0.11" y="0.11" width="1.22" height="1.22">
      <feGaussianBlur stdDeviation="1.49"/>
    </filter>
  </defs>
  <path style="filter:url(#filter5218);opacity:0.20;fill:#000000" d="M 21.50,69 C 18.45,69 16,71.45 16,74.50 v 99 c 0,3.05 2.45,5.50 5.50,5.50 h 77 c 3.05,0 5.50,-2.45 5.50,-5.50 V 102 L 76.50,96.50 71,69 Z"/>
  <path style="fill:#e4e4e4" d="M 21.50,66 C 18.45,66 16,68.45 16,71.50 v 99 c 0,3.05 2.45,5.50 5.50,5.50 h 77 c 3.05,0 5.50,-2.45 5.50,-5.50 V 99 L 76.50,93.50 71,66 Z"/>
  <path style="opacity:0.20;fill:#ffffff" d="M 21.50 66 C 18.45 66 16 68.45 16 71.50 L 16 72.50 C 16 69.45 18.45 67 21.50 67 L 71 67 L 76.50 94.50 L 104 100 L 104 99 L 76.50 93.50 L 71 66 L 21.50 66 z "/>
  <path style="fill:#fafafa" d="M 104,99 71,66 v 27.50 c 0,3.05 2.45,5.50 5.50,5.50 z"/>
  <path style="fill:#008eef" d="m 30,109 v 6 h 60 v -6 z m 0,10 v 6 h 45 v -6 z m 0,10 v 6 h 36 v -6 z m 0,10 v 6 h 53 v -6 z m 0,10 v 6 h 28 v -6 z m 0,10 v 6 h 47 v -6 z"/>
  <path style="filter:url(#filter5222);opacity:0.20;fill:#000000" d="m 57.50,44.00 c -3.05,0 -5.50,2.45 -5.50,5.50 V 148.50 c 0,3.05 2.45,5.50 5.50,5.50 h 77 c 3.05,0 5.50,-2.45 5.50,-5.50 V 77.00 l -27.50,-5.50 -5.50,-27.50 z"/>
  <path style="fill:#e4e4e4" d="m 57.50,41.00 c -3.05,0 -5.50,2.45 -5.50,5.50 V 145.50 c 0,3.05 2.45,5.50 5.50,5.50 h 77 c 3.05,0 5.50,-2.45 5.50,-5.50 V 74.00 l -27.50,-5.50 -5.50,-27.50 z"/>
  <path style="opacity:0.20;fill:#ffffff" d="M 57.50 41 C 54.45 41 52 43.45 52 46.50 L 52 47.50 C 52 44.45 54.45 42 57.50 42 L 107 42 L 112.50 69.50 L 140 75 L 140 74 L 112.50 68.50 L 107 41 L 57.50 41 z "/>
  <path style="fill:#fafafa" d="m 140,74.00 -33,-33 v 27.50 c 0,3.05 2.45,5.50 5.50,5.50 z"/>
  <path style="fill:#00c385" d="m 66.00,82.00 v 10 H 126 v -10 z m 0,14 V 104 h 17 v -8.00 z m 21,0 V 104 H 105 v -8.00 z m 22.00,0 V 104 h 17 V 96.00 Z M 66.00,108 v 8 h 17 v -8 z m 21,0 v 8 H 105 v -8 z M 109,108 v 8 h 17 v -8 z m -43.00,12 v 8 h 17 v -8 z m 21,0 v 8 H 105 v -8 z M 109,120 v 8 h 17 v -8 z m -43.00,12 v 10 h 17 v -10 z m 21,0 v 10 H 105 V 132 Z M 109,132 v 10 h 17 v -10 z"/>
  <path style="filter:url(#filter5226);opacity:0.20;fill:#000000" d="M 93.50,19 C 90.45,19 88,21.45 88,24.50 v 99 c 0,3.05 2.45,5.50 5.50,5.50 h 77 c 3.05,0 5.50,-2.45 5.50,-5.50 V 52 L 148.50,46.50 143,19 Z"/>
  <path style="fill:#e4e4e4" d="M 93.50,16 C 90.45,16 88,18.45 88,21.50 v 99 c 0,3.05 2.45,5.50 5.50,5.50 h 77 c 3.05,0 5.50,-2.45 5.50,-5.50 V 49 L 148.50,43.50 143,16 Z"/>
  <path style="filter:url(#filter5268);opacity:0.20;fill:#000000" d="M 176,51 143,18 v 27.50 c 0,3.05 2.45,5.50 5.50,5.50 z"/>
  <path style="fill:#fafafa" d="M 176,49 143,16 v 27.50 c 0,3.05 2.45,5.50 5.50,5.50 z"/>
  <path style="fill:#ff7919" d="m 102,59 v 6 h 60 v -6 z m 3,10 a 3,3 0 0 0 -3,3 3,3 0 0 0 3,3 3,3 0 0 0 3,-3 3,3 0 0 0 -3,-3 z m 7,0 v 6 h 35 15 v -6 h -15 z m -7,10 a 3,3 0 0 0 -3,3 3,3 0 0 0 3,3 3,3 0 0 0 3,-3 3,3 0 0 0 -3,-3 z m 7,0 v 6 h 26 24 v -6 h -24 z m -7,10 a 3,3 0 0 0 -3,3 3,3 0 0 0 3,3 3,3 0 0 0 3,-3 3,3 0 0 0 -3,-3 z m 7,0 v 6 h 43 7 v -6 h -7 z m -7,10 a 3,3 0 0 0 -3,3 3,3 0 0 0 3,3 3,3 0 0 0 3,-3 3,3 0 0 0 -3,-3 z m 7,0 v 6 h 18 32 v -6 h -32 z m -7,10 a 3,3 0 0 0 -3,3 3,3 0 0 0 3,3 3,3 0 0 0 3,-3 3,3 0 0 0 -3,-3 z m 7,0 v 6 h 37 13 v -6 h -13 z"/>
  <path style="opacity:0.20;fill:#ffffff" d="M 93.50,16 C 90.45,16 88,18.45 88,21.50 v 1 C 88,19.45 90.45,17 93.50,17 H 143 v -1 z"/>
</svg>
