<svg xmlns="http://www.w3.org/2000/svg" id="svg16" width="192" height="192" version="1"><defs><filter style="color-interpolation-filters:sRGB" id="filter847" width="1.11" height="1.09" x=".05" y=".04"><feGaussianBlur stdDeviation="2.48"/></filter><filter style="color-interpolation-filters:sRGB" id="filter863" width="1.11" height="1.09" x=".05" y=".04"><feGaussianBlur stdDeviation="2.48"/></filter></defs><path d="M 161.86,32.00 A 13.81,15.02 0 0 1 176,47.01 V 153.00 a 13.81,15.02 0 0 1 -20.70,12.99 L 113.07,139.52 70.87,113.00 a 13.81,15.02 0 0 1 0,-25.97 L 113.07,60.52 155.30,34.04 a 13.81,15.02 0 0 1 6.56,-2.04 z" style="filter:url(#filter847);opacity:.2;fill:#000"/><path d="M 161.86,28.00 A 13.81,15.02 0 0 1 176,43.01 V 149.00 a 13.81,15.02 0 0 1 -20.70,12.99 L 113.07,135.52 70.87,109.00 a 13.81,15.02 0 0 1 0,-25.97 l 42.20,-26.52 42.22,-26.47 a 13.81,15.02 0 0 1 6.56,-2.04 z" style="fill:#cecaff"/><path style="opacity:.2;fill:#fff" d="M 161.86 28.01 A 13.81 15.02 0 0 0 155.30 30.04 L 113.07 56.52 L 70.87 83.03 A 13.81 15.02 0 0 0 64.02 96.28 A 13.81 15.02 0 0 1 70.87 84.03 L 113.07 57.52 L 155.30 31.04 A 13.81 15.02 0 0 1 161.86 29.01 A 13.81 15.02 0 0 1 176 44.02 L 176 43.02 A 13.81 15.02 0 0 0 161.86 28.01 z"/><path d="M 30.14,32.00 A 13.81,15.02 0 0 0 16,47.01 V 153.00 a 13.81,15.02 0 0 0 20.70,12.99 l 42.22,-26.47 42.20,-26.52 a 13.81,15.02 0 0 0 0,-25.97 L 78.93,60.52 36.70,34.04 a 13.81,15.02 0 0 0 -6.56,-2.04 z" style="filter:url(#filter863);opacity:.1;fill:#000"/><path d="M 30.14,28.00 A 13.81,15.02 0 0 0 16,43.01 V 149.00 a 13.81,15.02 0 0 0 20.70,12.99 l 42.22,-26.47 42.20,-26.52 a 13.81,15.02 0 0 0 0,-25.97 L 78.93,56.52 36.70,30.04 a 13.81,15.02 0 0 0 -6.56,-2.04 z" style="fill:#5b449b"/><path style="opacity:.1;fill:#fff" d="M 30.14 28.01 A 13.81 15.02 0 0 0 16 43.02 L 16 44.02 A 13.81 15.02 0 0 1 30.14 29.01 A 13.81 15.02 0 0 1 36.70 31.04 L 78.93 57.52 L 121.13 84.03 A 13.81 15.02 0 0 1 127.97 96.69 A 13.81 15.02 0 0 0 121.13 83.03 L 78.93 56.52 L 36.70 30.04 A 13.81 15.02 0 0 0 30.14 28.01 z"/></svg>