<svg xmlns="http://www.w3.org/2000/svg" id="svg14" width="192" height="192" version="1"><defs><filter style="color-interpolation-filters:sRGB" id="filter850" width="1.1" height="1.1" x=".05" y=".05"><feGaussianBlur stdDeviation="3.2"/></filter><filter style="color-interpolation-filters:sRGB" id="filter7027" width="1.31" height="1.17" x=".15" y=".08"><feGaussianBlur stdDeviation="3.08"/></filter></defs><circle style="filter:url(#filter850);opacity:.2;fill:#000" cx="96" cy="100" r="80"/><circle cx="96" cy="96" r="80" style="fill:#38a3eb"/><path style="opacity:.2;fill:#fff" d="M 96 16 A 80 80 0 0 0 16 96 A 80 80 0 0 0 16.02 96.47 A 80 80 0 0 1 96 17 A 80 80 0 0 1 175.97 96.51 A 80 80 0 0 0 176 96 A 80 80 0 0 0 96 16 z"/><path style="fill:#38adfa" d="m 688.81,257.00 c 0.33,0.33 -1.19,0.37 -1.92,0.08 0.80,0.32 0.56,0.56 0.60,0.60 1.05,0.04 1.64,0.19 1.31,0.53 z"/><path style="filter:url(#filter7027);opacity:.2;fill:#000;color:#000" d="m 80,53 v 6 83 h 6 V 59 h 5 v 83 h 6 v -39 h 6 c 13.77,0 25,-11.23 25,-25 0,-13.77 -11.23,-25 -25,-25 h -6 -6 z m 17,6 h 6 c 10.53,0 19,8.47 19,19 0,10.53 -8.47,19 -19,19 h -6 z"/><path style="fill:#fff;color:#000" d="M 80 51 L 80 57 L 80 140 L 86 140 L 86 57 L 91 57 L 91 140 L 97 140 L 97 101 L 103 101 C 116.77 101 128 89.77 128 76 C 128 62.23 116.77 51 103 51 L 97 51 L 91 51 L 80 51 z M 97 57 L 103 57 C 113.53 57 122 65.47 122 76 C 122 86.53 113.53 95 103 95 L 97 95 L 97 57 z"/></svg>