<?xml version='1.0' encoding='utf-8'?>
<svg xmlns="http://www.w3.org/2000/svg" width="192" height="192" version="1" id="svg12">
  <defs>
    <filter style="color-interpolation-filters:sRGB" id="filter1051" x="0.05" y="0.05" width="1.10" height="1.10">
      <feGaussianBlur stdDeviation="3.20"/>
    </filter>
    <filter style="color-interpolation-filters:sRGB" id="filter1096" x="0.05" y="0.05" width="1.10" height="1.10">
      <feGaussianBlur stdDeviation="2.08"/>
    </filter>
  </defs>
  <rect fill="#5db43e" width="160" height="160" x="16" y="20" rx="80" ry="80" style="filter:url(#filter1051);opacity:0.20;fill:#000000"/>
  <rect fill="#5db43e" width="160" height="160" x="16" y="16" rx="80" ry="80"/>
  <path opacity="0.20" d="m 60,46 c -4,0 -8,4 -8,8 0,4 4,8 8,8 39.76,0.00 72,32.24 72,72 0,4 3.63,8 8,8 4,0 8,-4 8,-8 0,-48.60 -39.40,-88 -88,-88 z m 60,4 24,24 V 58 c 0,-4.43 -3.57,-8 -8,-8 z M 60,78 c -4,0 -8,4 -8,8 0,4 4,8 8,8 22.09,0.00 40,17.91 40,40 0,4 4,8 8,8 4,0 8,-4 8,-8 0,-30.93 -25.07,-56 -56,-56 z m 4,32 c -11.05,0 -20,8.95 -20,20 0,11.04 8.96,20 20,20 11.05,0 20,-8.95 20,-20 0,-11.05 -8.95,-20 -20,-20 z" style="filter:url(#filter1096)"/>
  <path fill="#ffffff" d="m 60,44 c -4,0 -8,4 -8,8 0,4 4,8 8,8 39.76,0.00 72,32.24 72,72 0,4 3.63,8 8,8 4,0 8,-4 8,-8 0,-48.60 -39.40,-88 -88,-88 z m 60,4 24,24 V 56 c 0,-4.43 -3.57,-8 -8,-8 z M 60,76 c -4,0 -8,4 -8,8 0,4 4,8 8,8 22.09,0.00 40,17.91 40,40 0,4 4,8 8,8 4,0 8,-4 8,-8 0,-30.93 -25.07,-56 -56,-56 z m 4,32 c -11.05,0 -20,8.95 -20,20 0,11.04 8.96,20 20,20 11.05,0 20,-8.95 20,-20 0,-11.05 -8.95,-20 -20,-20 z"/>
  <path style="opacity:0.20;fill:#ffffff" d="M 96 16 C 51.68 16 16 51.68 16 96 C 16 96.17 16.01 96.33 16.01 96.50 C 16.28 52.41 51.85 17 96 17 C 140.15 17 175.72 52.41 175.99 96.50 C 175.99 96.33 176 96.17 176 96 C 176 51.68 140.32 16 96 16 z "/>
</svg>
