<svg xmlns="http://www.w3.org/2000/svg" id="svg28" width="192" height="192" version="1"><defs><filter style="color-interpolation-filters:sRGB" id="filter6495" width="1.1" height="1.1" x=".05" y=".05"><feGaussianBlur stdDeviation="3.2"/></filter><filter style="color-interpolation-filters:sRGB" id="filter2072" width="1.13" height="1.17" x=".07" y=".09"><feGaussianBlur stdDeviation="2.63"/></filter></defs><rect width="160" height="160" x="-180" y="-176" rx="12" ry="12" transform="matrix(0,-1,-1,0,0,0)" style="filter:url(#filter6495);opacity:.2;fill:#000"/><rect width="160" height="160" x="-176" y="-176" rx="12" ry="12" transform="matrix(0,-1,-1,0,0,0)" style="fill:#1c5ab3"/><path style="opacity:.1;fill:#fff" d="m 28,16 c -6.65,0 -12,5.35 -12,12 v 1 c 0,-6.65 5.35,-12 12,-12 h 136 c 6.65,0 12,5.35 12,12 v -1 c 0,-6.65 -5.35,-12 -12,-12 z"/><path style="filter:url(#filter2072);opacity:.2;fill:#000" d="m 120.97,134.73 c 13.57,0.97 19.01,-4.36 21.22,-13.24 0.46,-1.86 0.56,-4.13 0.68,-15.51 l 0.13,-12.98 H 118.39 93 v 7 V 108 h 14.16 13.74 l 0.13,1.88 c 0.30,4.32 -2.06,6.82 -6.60,7.77 -1.95,0.41 -4.75,0.45 -18.26,0.35 C 81.54,117.90 79.39,117.85 77.87,117.35 72.34,115.50 71,111.45 71,97.95 c 0,-13.62 1.36,-17.65 7.03,-19.42 1.68,0.52 3.66,0.53 19.72,0.53 h 13.98 c 1.46,0.04 3.57,0.10 5.34,0.70 2.58,1.18 3.92,3.58 3.92,6.54 l 0.00,0.76 h 10.65 10.99 l 0.01,-1.69 c 0.01,-2.90 0.53,-7.67 -1.08,-9.83 -1.84,-7.28 -6.93,-11.17 -16.87,-12.91 -2.96,0.52 -5.43,0.57 -27.40,0.57 -18.30,0 -24.78,0.10 -26.78,0.41 -8.55,1.32 -13.94,4.04 -17.24,8.71 -1.75,2.47 -2.98,5.39 -3.71,8.82 0.51,2.37 0.56,4.35 0.56,19.02 0,14.67 0.06,16.65 0.56,19.02 1.06,4.98 3.51,9.47 6.50,11.94 4.00,3.30 10.32,5.37 18.16,5.93 3.68,0.26 42.78,0.17 46.74,0.12 z"/><path style="fill:#fff" d="m 120.97,132.73 c 13.57,0.97 19.01,-4.36 21.22,-13.24 0.46,-1.86 0.56,-4.13 0.68,-15.51 L 143.00,91 H 118.39 93 v 7 8 h 14.16 13.74 l 0.13,1.88 c 0.30,4.32 -2.06,6.82 -6.60,7.77 -1.95,0.41 -4.75,0.45 -18.26,0.35 C 81.54,115.90 79.39,115.85 77.87,115.35 72.34,113.50 71,109.45 71,95.95 71,82.33 72.36,78.29 78.03,76.53 79.72,76.01 81.70,76 97.76,76 h 13.98 c 1.46,0.04 3.57,0.10 5.34,0.70 2.58,1.18 3.92,3.58 3.92,6.54 L 121.00,84 h 10.65 10.99 l 0.01,-1.69 c 0.01,-2.90 0.53,-7.67 -1.08,-9.83 -1.84,-7.28 -6.93,-11.17 -16.87,-12.91 -2.96,0.52 -5.43,0.57 -27.40,0.57 -18.30,0 -24.78,0.10 -26.78,0.41 -8.55,1.32 -13.94,4.04 -17.24,8.71 -1.75,2.47 -2.98,5.39 -3.71,8.82 0.51,2.37 0.56,4.35 0.56,19.02 0,14.67 0.06,16.65 0.56,19.02 1.06,4.98 3.51,9.47 6.50,11.94 4.00,3.30 10.32,5.37 18.16,5.93 3.68,0.26 42.78,0.17 46.74,0.12 z"/></svg>