<?xml version='1.0' encoding='utf-8'?>
<svg xmlns="http://www.w3.org/2000/svg" width="192" height="192" version="1" id="svg26">
  <defs>
    <filter style="color-interpolation-filters:sRGB" id="filter873" x="0.05" y="0.05" width="1.10" height="1.10">
      <feGaussianBlur stdDeviation="3.20"/>
    </filter>
    <filter style="color-interpolation-filters:sRGB" id="filter877" x="0.05" y="0.05" width="1.10" height="1.10">
      <feGaussianBlur stdDeviation="2.56"/>
    </filter>
    <filter style="color-interpolation-filters:sRGB" id="filter899" x="0.06" y="0.04" width="1.11" height="1.08">
      <feGaussianBlur stdDeviation="1.24"/>
    </filter>
  </defs>
  <path style="filter:url(#filter873);opacity:0.20" d="M 176,100 A 80.00,80.00 0 0 1 96.00,180 80.00,80.00 0 0 1 16.00,100 80.00,80.00 0 0 1 96.00,20.00 80.00,80.00 0 0 1 176,100 Z"/>
  <path style="fill:#3591ac" d="M 96.00,96.00 V 176 a 80.05,80.00 0 0 0 68.80,-39.27 80.05,80.00 0 0 0 0.45,0.77 z"/>
  <path style="fill:#2cba66" d="M 96.00,96.00 V 176 a 80.05,80.00 0 0 1 -68.80,-39.27 80.05,80.00 0 0 1 0.45,0.77 z"/>
  <path style="fill:#ff482e" d="M 96.00,96.00 V 16.00 a 80.05,80.00 0 0 1 68.80,39.27 80.05,80.00 0 0 1 0.45,0.77 z"/>
  <path style="fill:#ff8201" d="M 96.00,96.00 V 16.00 a 80.05,80.00 0 0 0 -68.80,39.27 80.05,80.00 0 0 0 0.45,0.77 z"/>
  <path style="fill:#ffc825" d="M 96.00,96.00 26.67,136 a 80.05,80.00 0 0 1 0.36,-79.18 80.05,80.00 0 0 1 0.45,0.77 z"/>
  <path style="fill:#9e56d6" d="M 96.00,96.00 165.33,56.00 a 80.05,80.00 0 0 1 0.36,79.18 80.05,80.00 0 0 1 0.45,0.77 z"/>
  <circle style="filter:url(#filter877);opacity:0.20" cx="96" cy="100" r="64"/>
  <circle style="fill:#ffffff" cx="96" cy="96" r="64"/>
  <path style="filter:url(#filter899);opacity:0.20" d="m 128,98 -26,18 -26,18 V 98 62.00 L 102,80 Z"/>
  <path style="fill:#33c0e8" d="M 128,96.00 102,114 76,132 V 96.00 60.00 L 102,78 Z"/>
  <path style="opacity:0.20;fill:#ffffff" d="M 96 16 A 80.00 80.00 0 0 0 16 96 A 80.00 80.00 0 0 0 16.02 96.64 A 80.00 80.00 0 0 1 96 17 A 80.00 80.00 0 0 1 175.98 96.30 A 80.00 80.00 0 0 0 176 96 A 80.00 80.00 0 0 0 96 16 z "/>
</svg>
