<?xml version='1.0' encoding='utf-8'?>
<svg xmlns="http://www.w3.org/2000/svg" width="192" height="192" version="1" id="svg26">
  <rect transform="matrix(0,-1,-1,0,0,0)" ry="30" rx="30" y="-176" x="-180" height="160" width="160" style="filter:url(#filter1687);opacity:0.2;fill:#000000"/>
  <rect transform="matrix(0,-1,-1,0,0,0)" ry="30" rx="30" y="-176" x="-176" height="160" width="160" style="fill:#f02b35"/>
  <path style="filter:url(#filter1770);opacity:0.2;fill:#000000" d="M 90.925542,47.001337 C 73.136836,53.074238 55.748488,91.27565 59.519527,115.999 c 3.207474,21.02855 17.857266,34.20522 36.480196,33.99861 18.622927,0.20661 33.272717,-12.97006 36.480197,-33.99861 3.77104,-24.72335 -13.61731,-62.924762 -31.40602,-68.997663 -3.618548,-1.594537 -7.057661,-1.048002 -10.148358,0 z"/>
  <path style="fill:#ffffff" d="m 90.925542,45.001772 c -17.788706,6.072901 -35.177054,44.274313 -31.406015,68.997658 3.207474,21.02855 17.857266,34.20522 36.480196,33.99861 18.622927,0.20661 33.272717,-12.97006 36.480197,-33.99861 3.77104,-24.723345 -13.61731,-62.924757 -31.40602,-68.997658 -3.618548,-1.594537 -7.057661,-1.048002 -10.148358,0 z"/>
  <defs>
    <filter style="color-interpolation-filters:sRGB" id="filter1687" x="-0.048000001" y="-0.048000001" width="1.096" height="1.096">
      <feGaussianBlur stdDeviation="3.2"/>
    </filter>
    <filter style="color-interpolation-filters:sRGB" id="filter1770" x="-0.057729728" y="-0.041076922" width="1.1154595" height="1.0821538">
      <feGaussianBlur stdDeviation="1.78"/>
    </filter>
  </defs>
  <path style="opacity:0.2;fill:#ffffff" d="M 46 16 C 29.38 16 16 29.38 16 46 L 16 47 C 16 30.38 29.38 17 46 17 L 146 17 C 162.62 17 176 30.38 176 47 L 176 46 C 176 29.38 162.62 16 146 16 L 46 16 z "/>
</svg>
