<?xml version='1.0' encoding='utf-8'?>
<svg xmlns="http://www.w3.org/2000/svg" width="192" height="192" version="1" id="svg28">
  <defs>
    <filter style="color-interpolation-filters:sRGB" id="filter6495" x="0.05" y="0.05" width="1.10" height="1.10">
      <feGaussianBlur stdDeviation="3.20"/>
    </filter>
    <filter style="color-interpolation-filters:sRGB" id="filter3584" x="0.08" y="0.07" width="1.15" height="1.15">
      <feGaussianBlur stdDeviation="3.22"/>
    </filter>
  </defs>
  <rect transform="matrix(0,-1,-1,0,0,0)" ry="12" rx="12" y="-176" x="-180" height="160" width="160" style="filter:url(#filter6495);opacity:0.20;fill:#000000"/>
  <rect transform="matrix(0,-1,-1,0,0,0)" ry="12" rx="12" y="-176" x="-176" height="160" width="160" style="fill:#f32c97"/>
  <path style="filter:url(#filter3584);opacity:0.20;fill:#000000" d="m 96,45 c -8.61,0 -9.66,0.10 -10.48,1.68 0.41,0.79 -33.87,85.25 -39.02,98.46 -1.60,3.64 0.91,5.84 4.04,5.87 h 8.72 9.47 c 0,0 1.73,0.00 2.61,0.80 0.69,0.63 1.44,-2.27 3.48,-7.64 L 77.41,136 H 96 114.59 l 2.60,6.55 c 2.04,5.37 2.79,7.02 3.48,7.64 0.88,0.80 2.61,0.80 2.61,0.80 h 9.47 8.72 c 3.12,0.02 5.63,-2.23 4.04,-5.87 C 140.35,131.93 106.89,47.47 106.48,46.68 105.66,45.10 104.61,45 96,45 Z m 0,33 5.60,13.78 L 116,93 104.94,102.36 108,116 96,109.07 84,116 87.06,102.36 76,93 90.40,91.78 Z"/>
  <path style="fill:#ffffff" d="M 96 43 C 87.39 43 86.34 43.10 85.52 44.68 C 85.11 45.47 51.65 129.93 46.50 143.13 C 44.90 146.77 47.41 148.98 50.53 149 L 59.25 149 L 68.72 149 C 68.72 149 70.45 149.00 71.33 148.20 C 72.02 147.57 72.77 145.93 74.81 140.55 L 77.41 134 L 96 134 L 114.59 134 L 117.19 140.55 C 119.23 145.93 119.98 147.57 120.67 148.20 C 121.55 149.00 123.28 149 123.28 149 L 132.75 149 L 141.47 149 C 144.59 148.98 147.10 146.77 145.50 143.13 C 140.35 129.93 106.89 45.47 106.48 44.68 C 105.66 43.10 104.61 43 96 43 z M 96 76 L 101.60 89.78 L 116 91 L 104.94 100.36 L 108 114 L 96 107.07 L 84 114 L 87.06 100.36 L 76 91 L 90.40 89.78 L 96 76 z "/>
  <path style="opacity:0.20;fill:#ffffff" d="m 28,16 c -6.65,0 -12,5.35 -12,12 v 1 c 0,-6.65 5.35,-12 12,-12 h 136 c 6.65,0 12,5.35 12,12 v -1 c 0,-6.65 -5.35,-12 -12,-12 z"/>
</svg>
