<?xml version='1.0' encoding='utf-8'?>
<svg xmlns="http://www.w3.org/2000/svg" width="192" height="192" version="1.1" id="svg12">
  <defs>
    <filter style="color-interpolation-filters:sRGB" id="filter845" x="-0.048000001" y="-0.048000001" width="1.096" height="1.096">
      <feGaussianBlur stdDeviation="3.2"/>
    </filter>
    <filter style="color-interpolation-filters:sRGB" id="filter867" x="-0.048000012" y="-0.047999989" width="1.096" height="1.096">
      <feGaussianBlur stdDeviation="2.5599994"/>
    </filter>
  </defs>
  <circle style="filter:url(#filter845);opacity:0.2" cx="96" cy="100" r="80"/>
  <circle style="fill:#e4e4e4" cx="96" cy="96" r="80"/>
  <path style="filter:url(#filter867);opacity:0.2" d="M 41.379004,132.23145 C 106.70401,110.53167 107.53177,109.70391 129.23154,44.378977 104.57106,29.305262 71.967168,32.397512 50.682436,53.682409 29.397528,74.967421 26.305288,107.57132 41.379004,132.23145 Z m 35.597912,27.83672 C 107.1042,110.70158 107.70132,110.10411 157.06791,79.976817 163.95539,101.97498 158.71009,126.92507 141.31763,144.31753 123.92516,161.71 98.975076,166.9553 76.976916,160.06817 Z"/>
  <path fill="#673ab7" d="M 41.379004,129.23144 C 106.70401,107.53166 107.53177,106.7039 129.23154,41.378972 104.57106,26.305256 71.967168,29.397506 50.682436,50.682404 29.397528,71.967416 26.305288,104.57131 41.379004,129.23144 Z m 35.597912,27.83672 C 107.1042,107.70157 107.70132,107.1041 157.06791,76.976812 c 6.88748,21.99816 1.64218,46.948248 -15.75028,64.340708 -17.39247,17.39247 -42.342554,22.63777 -64.340714,15.75064 z"/>
  <path style="opacity:0.2;fill:#ffffff" d="M 96 16 A 80 80 0 0 0 16 96 A 80 80 0 0 0 16.023438 96.638672 A 80 80 0 0 1 96 17 A 80 80 0 0 1 175.98438 96.302734 A 80 80 0 0 0 176 96 A 80 80 0 0 0 96 16 z "/>
</svg>
