<?xml version='1.0' encoding='utf-8'?>
<svg xmlns="http://www.w3.org/2000/svg" width="192" height="192" version="1" id="svg12">
  <defs>
    <filter style="color-interpolation-filters:sRGB" id="filter860" x="-0.048000001" width="1.096" y="-0.048000001" height="1.096">
      <feGaussianBlur stdDeviation="3.2"/>
    </filter>
    <filter style="color-interpolation-filters:sRGB" id="filter867" x="-0.046946724" width="1.0938934" y="-0.049101618" height="1.0982032">
      <feGaussianBlur stdDeviation="1.9004101"/>
    </filter>
  </defs>
  <rect style="filter:url(#filter860);opacity:0.2" width="160" height="160" x="16" y="20" rx="8" ry="8"/>
  <rect style="fill:#cc1d23" width="160" height="160" x="16" y="16" rx="8" ry="8"/>
  <path style="opacity:0.2;fill:#ffffff" d="m 24,16 c -4.432,0 -8,3.568 -8,8 v 1 c 0,-4.432 3.568,-8 8,-8 h 144 c 4.432,0 8,3.568 8,8 v -1 c 0,-4.432 -3.568,-8 -8,-8 z"/>
  <path d="M 74.060547,52.111328 A 54.272853,54.272853 0 0 0 72,66.726562 54.272853,54.272853 0 0 0 126.27344,121 54.272853,54.272853 0 0 0 145.15234,117.57422 71.640734,71.640734 0 0 1 74.060547,52.111328 Z M 50.505859,61.226562 A 66,66 0 0 0 48,79 a 66,66 0 0 0 66,66 66,66 0 0 0 22.95898,-4.16602 87.120689,87.120689 0 0 1 -86.453121,-79.607418 z" style="filter:url(#filter867);opacity:0.2;fill:#000000"/>
  <path style="fill:#ffffff" d="M 74.060547,50.111328 A 54.272853,54.272853 0 0 0 72,64.726562 54.272853,54.272853 0 0 0 126.27344,119 54.272853,54.272853 0 0 0 145.15234,115.57422 71.640734,71.640734 0 0 1 74.060547,50.111328 Z M 50.505859,59.226562 A 66,66 0 0 0 48,77 a 66,66 0 0 0 66,66 66,66 0 0 0 22.95898,-4.16602 87.120689,87.120689 0 0 1 -86.453121,-79.607418 z"/>
</svg>
