<?xml version='1.0' encoding='utf-8'?>
<svg xmlns="http://www.w3.org/2000/svg" width="192" height="192" version="1" id="svg32">
  <defs>
    <filter style="color-interpolation-filters:sRGB" id="filter871" x="0.04" width="1.08" y="0.06" height="1.11">
      <feGaussianBlur stdDeviation="2.06"/>
    </filter>
    <filter style="color-interpolation-filters:sRGB" id="filter887" x="0.05" width="1.09" y="0.05" height="1.10">
      <feGaussianBlur stdDeviation="2.00"/>
    </filter>
    <filter style="color-interpolation-filters:sRGB" id="filter903" x="0.04" width="1.07" y="0.07" height="1.14">
      <feGaussianBlur stdDeviation="1.80"/>
    </filter>
    <filter style="color-interpolation-filters:sRGB" id="filter934" x="0.04" width="1.07" y="0.07" height="1.14">
      <feGaussianBlur stdDeviation="0.37"/>
    </filter>
  </defs>
  <path d="m 96,20.00 a 52,52 0 0 0 -52,52 52,52 0 0 0 24,43.81 V 72.00 a 28,28 0 0 1 28,-28 28,28 0 0 1 28,28 v 43.75 a 52,52 0 0 0 24,-43.75 52,52 0 0 0 -52,-52 z" style="filter:url(#filter887);opacity:0.20"/>
  <path d="M 96,16 A 52,52 0 0 0 44,68 52,52 0 0 0 68,111.81 V 68 a 28,28 0 0 1 28,-28 28,28 0 0 1 28,28 v 43.75 A 52,52 0 0 0 148,68 52,52 0 0 0 96,16 Z" style="fill:#666666"/>
  <path d="m 58,94 c -12.15,0 -22,9.85 -22,22 0.00,0.56 0.03,1.11 0.07,1.66 C 36.06,117.78 36,117.88 36,118 v 2 c 0,33.14 26.86,60 60,60 33.14,0 60,-26.86 60,-60 v -2 c 0,0.12 0.06,0.22 0.07,0.34 0.04,0.55 0.07,-1.11 0.07,-1.66 0,-12.15 -9.85,-22 -22,-22 -10,0 -20,5.80 -20,16.16 C 109.60,105.17 103.18,102 96,102 88.82,102 82.40,105.17 78,110.16 78.70,100.29 68,94 58,94 Z" style="filter:url(#filter871);opacity:0.20"/>
  <path d="m 58,90 c -12.15,0 -22,9.85 -22,22 0.00,0.56 0.03,1.11 0.07,1.66 C 36.06,113.78 36,113.88 36,114 v 2 c 0,33.14 26.86,60 60,60 33.14,0 60,-26.86 60,-60 v -2 c 0,0.12 0.06,0.22 0.07,0.34 0.04,0.55 0.07,-1.11 0.07,-1.66 0,-12.15 -9.85,-22 -22,-22 -10,0 -20,5.80 -20,16.16 C 109.60,101.17 103.18,98 96,98 88.82,98 82.40,101.17 78,106.16 78.70,96.29 68,90 58,90 Z" style="fill:#8a6338"/>
  <path d="m 48,70 c -6.65,0 -12,5.35 -12,12 v 36 c 0,2.07 0.11,4.12 0.31,6.13 0.20,1.99 0.50,3.94 0.89,5.87 H 75.24 C 79.52,122.58 87.44,118.01 96,118 c 8.56,0.01 16.47,4.59 20.75,12 h 38.05 c 0.39,-1.92 0.69,-3.88 0.89,-5.87 C 155.89,122.12 156,120.07 156,118 V 82 c 0,-6.65 -5.35,-12 -12,-12 h -10 -6 c -6.65,0 -12,5.35 -12,12 v 4 c 0,0.03 0.01,0.05 0.01,0.08 C 116.01,86.11 116,86.13 116,86.16 111.60,81.17 103.18,78 96,78 c -7.18,0 -15.60,3.17 -20,8.16 0.05,0.69 0.04,-1.37 0,-2.02 V 82 C 76,75.35 70.65,70 64,70 Z" style="filter:url(#filter903);opacity:0.20"/>
  <path d="m 48,68 c -6.65,0 -12,5.35 -12,12 v 36 c 0,2.07 0.11,4.12 0.31,6.13 0.20,1.99 0.50,3.94 0.89,5.87 H 75.24 C 79.52,120.58 87.44,116.01 96,116 c 8.56,0.01 16.47,4.59 20.75,12 h 38.05 c 0.39,-1.92 0.69,-3.88 0.89,-5.87 C 155.89,120.12 156,118.07 156,116 V 80 c 0,-6.65 -5.35,-12 -12,-12 h -10 -6 c -6.65,0 -12,5.35 -12,12 v 4 c 0,0.03 0.01,0.05 0.01,0.08 C 116.01,84.11 116,84.13 116,84.16 111.60,79.17 103.18,76 96,76 c -7.18,0 -15.60,3.17 -20,8.16 0.05,0.69 0.04,-1.37 0,-2.02 V 80 C 76,73.35 70.65,68 64,68 Z" style="fill:#be9254"/>
  <path d="m 96,128 a 12,12 0 0 0 -12,12 12,12 0 0 0 4,8.93 v 13.93 C 88,165.71 89.78,168 92,168 h 8 c 2.22,0 4,-2.29 4,-5.14 v -13.94 A 12,12 0 0 0 108,140 12,12 0 0 0 96,128 Z" style="opacity:0.40"/>
  <circle r="8" cy="84" cx="136" style="opacity:0.40"/>
  <circle r="4" cy="84" cx="64" style="opacity:0.40"/>
  <circle r="4" cy="84" cx="48" style="opacity:0.40"/>
  <path style="opacity:0.10;fill:#ffffff" d="M 96 16 A 52 52 0 0 0 44 68 A 52 52 0 0 0 44.02 68.43 A 52 52 0 0 1 96 17 A 52 52 0 0 1 147.98 68.51 A 52 52 0 0 0 148 68 A 52 52 0 0 0 96 16 z "/>
  <path style="opacity:0.20;fill:#ffffff" d="M 48 68 C 41.35 68 36 73.35 36 80 L 36 81 C 36 74.35 41.35 69 48 69 L 64 69 C 70.65 69 76 74.35 76 81 L 76 80 C 76 73.35 70.65 68 64 68 L 48 68 z M 128 68 C 121.35 68 116 73.35 116 80 L 116 81 C 116 74.35 121.35 69 128 69 L 134 69 L 144 69 C 150.65 69 156 74.35 156 81 L 156 80 C 156 73.35 150.65 68 144 68 L 134 68 L 128 68 z M 96 76 C 88.82 76 80.40 79.17 76 84.16 C 76.02 84.48 76.03 84.80 76.03 85.13 C 80.44 80.16 88.84 77 96 77 C 103.18 77 111.60 80.17 116 85.16 L 116 84.16 C 111.60 79.17 103.18 76 96 76 z M 76.02 85.66 C 76.01 85.83 76.01 85.99 76 86.16 C 76.01 86.15 76.02 86.14 76.03 86.13 C 76.03 85.97 76.02 85.81 76.02 85.66 z M 116 86 L 116 86.16 C 116 86.13 116.01 86.11 116.01 86.08 C 116.01 86.05 116 86.03 116 86 z "/>
  <circle r="4" cy="148" cx="64" style="opacity:0.40"/>
  <circle r="4" cy="148" cx="128" style="opacity:0.40"/>
  <path style="filter:url(#filter934);opacity:0.10" d="M 96 128 A 12 12 0 0 0 84 140 A 12 12 0 0 0 84.05 140.98 A 12 12 0 0 1 96 130 A 12 12 0 0 1 107.95 140.95 A 12 12 0 0 0 108 140 A 12 12 0 0 0 96 128 z "/>
  <path style="opacity:0.10;fill:#ffffff" d="M 84.02 140.41 A 12 12 0 0 0 84 141 A 12 12 0 0 0 88 149.93 L 88 148.93 A 12 12 0 0 1 84.02 140.41 z M 107.98 140.59 A 12 12 0 0 1 104 148.92 L 104 149.92 A 12 12 0 0 0 108 141 A 12 12 0 0 0 107.98 140.59 z M 88 162.86 L 88 163.86 C 88 166.71 89.78 169 92 169 L 100 169 C 102.22 169 104 166.71 104 163.86 L 104 162.86 C 104 165.71 102.22 168 100 168 L 92 168 C 89.78 168 88 165.71 88 162.86 z "/>
</svg>
