<?xml version='1.0' encoding='utf-8'?>
<svg xmlns="http://www.w3.org/2000/svg" width="192" height="192" version="1.1" id="svg16">
  <defs>
    <filter style="color-interpolation-filters:sRGB" id="filter5234" x="0.05" y="0.05" width="1.10" height="1.10">
      <feGaussianBlur stdDeviation="3.20"/>
    </filter>
    <filter style="color-interpolation-filters:sRGB" id="filter5276" x="0.05" y="0.05" width="1.10" height="1.10">
      <feGaussianBlur stdDeviation="2.64"/>
    </filter>
    <filter style="color-interpolation-filters:sRGB" id="filter5321" x="0.07" y="0.08" width="1.14" height="1.16">
      <feGaussianBlur stdDeviation="2.80"/>
    </filter>
  </defs>
  <rect x="16" y="20" width="160" height="160" rx="16" ry="16" style="filter:url(#filter5234);opacity:0.20;fill:#000000"/>
  <rect x="16" y="16" width="160" height="160" rx="16" ry="16" style="fill:#fa820b"/>
  <rect style="filter:url(#filter5276);opacity:0.20;fill:#000000" width="132" height="132" x="30" y="32" ry="8" rx="8"/>
  <rect style="fill:#3c2c18" width="132" height="132" x="30" y="30" ry="8" rx="8"/>
  <path style="filter:url(#filter5321);opacity:0.20;fill:#000000" d="m 143.30,60.00 c -1.23,0.04 -4.58,6.00 -22.71,38.68 -11.75,21.17 -21.48,38.48 -21.63,38.48 0.15,0 -5.58,-9.58 -12.06,-21.30 C 80.41,104.15 71.18,87.47 66.38,78.80 61.12,69.29 57.13,62.50 56.34,61.71 53.26,58.63 48.58,60.07 47.25,64.51 c 0.36,1.20 0.34,1.73 0.11,2.88 0.64,1.62 49.61,73.19 50.74,74.15 0.41,0.35 0.98,0.54 1.27,0.43 0.29,0.11 10.53,-18.26 22.77,-40.32 19.48,-35.13 22.20,-40.22 21.83,-40.90 0.22,0.40 0.39,0.74 0.67,0.74 z m -51.47,1 0.48,2.43 C 90.36,68.35 85.41,76.47 80.52,81.17 L 78,83.59 l 9.16,17.20 c 5.04,9.46 9.69,17.20 9.85,17.21 0.01,0.00 0.02,0.08 0.03,0.11 V 94.65 A 6,6 0 0 1 93,89.00 a 6,6 0 0 1 6,-6 6,6 0 0 1 6,6 6,6 0 0 1 -3.96,5.63 v 23.31 c 0.34,0.33 4.87,-7.89 9.80,-17.15 L 120,83.59 117.48,81.17 c -4.89,-4.70 -9.84,-12.82 -10.82,-17.74 l 0.48,-2.43 H 99.04 99 98.96 Z"/>
  <path style="fill:#ffb716" d="m 91.82,59 0.48,2.43 C 90.36,66.35 85.41,74.46 80.52,79.17 L 78,81.59 87.16,98.79 C 92.21,108.25 96.86,116.00 97.01,116 c 0.01,0.00 0.02,0.08 0.03,0.11 V 92.65 A 6,6 0 0 1 93,87 6,6 0 0 1 99.00,81 6,6 0 0 1 105,87 a 6,6 0 0 1 -3.96,5.63 v 23.31 c 0.34,0.33 4.87,-7.89 9.80,-17.15 L 120,81.59 117.48,79.17 C 112.59,74.46 107.64,66.35 106.66,61.43 L 106.18,59 h -7.14 0.04 0.04 z"/>
  <path style="fill:#ffffff" d="m 122.14,99.65 c 19.48,-35.13 22.19,-40.22 21.83,-40.90 -1.15,-2.15 -1.07,-2.28 -23.39,37.94 -11.75,21.17 -21.48,38.48 -21.63,38.48 0.15,0 -5.58,-9.58 -12.06,-21.30 C 80.41,102.15 71.18,85.47 66.38,76.80 61.12,67.29 57.13,60.50 56.34,59.71 c -3.08,-3.08 -7.76,-1.64 -9.09,2.80 0.36,1.20 0.34,1.73 0.11,2.88 0.64,1.62 49.61,73.20 50.74,74.15 0.41,0.35 0.98,0.54 1.27,0.43 0.29,0.11 10.53,-18.26 22.77,-40.32 z"/>
  <path style="opacity:0.20;fill:#ffffff" d="M 91.82 59 L 91.34 61.43 C 90.36 66.35 85.41 74.46 80.52 79.17 L 78 81.59 L 78.35 82.25 L 80.52 80.17 C 85.41 75.46 90.36 67.35 91.34 62.43 L 91.82 60 L 98.96 60 L 99 60 L 99.04 60 L 106.18 60 L 106.66 62.43 C 107.64 67.35 112.59 75.46 117.48 80.17 L 119.65 82.25 L 120 81.59 L 117.48 79.17 C 112.59 74.46 107.64 66.35 106.66 61.43 L 106.18 59 L 99.04 59 L 99 59 L 98.96 59 L 91.82 59 z M 104.95 87.30 A 6 6 0 0 1 101.04 92.63 L 101.04 93.63 A 6 6 0 0 0 105 88 A 6 6 0 0 0 104.95 87.30 z M 93.06 87.51 A 6 6 0 0 0 93 88 A 6 6 0 0 0 97.04 93.65 L 97.04 92.65 A 6 6 0 0 1 93.06 87.51 z "/>
  <path style="opacity:0.20;fill:#ffffff" d="M 32 16 C 23.14 16 16 23.14 16 32 L 16 33 C 16 24.14 23.14 17 32 17 L 160 17 C 168.86 17 176 24.14 176 33 L 176 32 C 176 23.14 168.86 16 160 16 L 32 16 z "/>
</svg>
