<?xml version='1.0' encoding='utf-8'?>
<svg xmlns="http://www.w3.org/2000/svg" width="192" height="192" version="1" id="svg18">
  <defs>
    <filter style="color-interpolation-filters:sRGB" id="filter852" x="-0.048000001" width="1.096" y="-0.048000001" height="1.096">
      <feGaussianBlur stdDeviation="3.2"/>
    </filter>
    <filter style="color-interpolation-filters:sRGB" id="filter904" x="-0.048000001" width="1.096" y="-0.048000001" height="1.096">
      <feGaussianBlur stdDeviation="2.72"/>
    </filter>
    <filter style="color-interpolation-filters:sRGB" id="filter924" x="-0.051428567" width="1.1028571" y="-0.044999998" height="1.09">
      <feGaussianBlur stdDeviation="1.2000001"/>
    </filter>
  </defs>
  <rect style="filter:url(#filter852);opacity:0.2;fill:#000000" width="160" height="160" x="-180" y="-176" rx="80" ry="80" transform="matrix(0,-1,-1,0,0,0)"/>
  <rect transform="matrix(0,-1,-1,0,0,0)" ry="80" rx="80" y="-176" x="-176" height="160" width="160" style="fill:#ffab0b"/>
  <path style="opacity:0.2;fill:#ffffff" d="M 95.998047 16 C 51.678955 16.001052 16 51.680653 16 96 C 16 96.115498 16.006172 96.228859 16.007812 96.34375 C 16.358829 52.329731 51.898462 17.001046 95.998047 17 L 96 17 C 140.10547 17.001047 175.64856 52.339122 175.99023 96.361328 C 175.99198 96.240601 175.99805 96.121307 175.99805 96 C 175.99805 51.680653 140.31909 16.001052 96 16 L 95.998047 16 z "/>
  <path d="M 79.070292,68.002025 A 6.904874,7.066546 0 0 0 72,75.064793 v 49.876867 a 6.904874,7.066546 0 0 0 10.35186,6.11482 l 21.11144,-12.45881 21.10148,-12.47963 a 6.904874,7.066546 0 0 0 0,-12.219211 L 103.4633,81.419193 82.35186,68.960397 a 6.904874,7.066546 0 0 0 -3.281568,-0.958372 z" style="filter:url(#filter924);opacity:0.2"/>
  <path d="M 79.070292,64.002028 A 6.904874,7.066546 0 0 0 72,71.064796 v 49.876864 a 6.904874,7.066546 0 0 0 10.35186,6.11482 l 21.11144,-12.45881 21.10148,-12.47963 a 6.904874,7.066546 0 0 0 0,-12.219208 L 103.4633,77.419196 82.35186,64.9604 a 6.904874,7.066546 0 0 0 -3.281568,-0.958372 z" style="fill:#ffffff"/>
  <path d="m 96,32 a 68,68 0 0 0 -68,68 68,68 0 0 0 68,68 68,68 0 0 0 68,-68 68,68 0 0 0 -68,-68 z m 0,4 a 64,64 0 0 1 64,64 64,64 0 0 1 -64,64 64,64 0 0 1 -64,-64 64,64 0 0 1 64,-64 z" style="filter:url(#filter904);opacity:0.2"/>
  <path d="M 96,28 A 68,68 0 0 0 28,96 68,68 0 0 0 96,164 68,68 0 0 0 164,96 68,68 0 0 0 96,28 Z m 0,4 A 64,64 0 0 1 160,96 64,64 0 0 1 96,160 64,64 0 0 1 32,96 64,64 0 0 1 96,32 Z" style="fill:#ffffff"/>
</svg>
