<?xml version='1.0' encoding='utf-8'?>
<svg xmlns="http://www.w3.org/2000/svg" width="192" height="192" version="1" id="svg12">
  <defs>
    <filter style="color-interpolation-filters:sRGB" id="filter847" x="-0.050666666" width="1.1013333" y="-0.045599999" height="1.0912">
      <feGaussianBlur stdDeviation="3.04"/>
    </filter>
  </defs>
  <path d="M 48.672201,20.009532 C 35.159224,19.632581 24.000492,30.481026 24,43.995684 V 155.96751 c 1e-6,18.51875 20.092645,30.05809 36.094228,20.72916 l 96.001262,-55.98591 c 15.87268,-9.26065 15.87268,-32.18986 0,-41.450512 L 108.09486,51.259484 60.094228,23.266525 C 56.619938,21.241366 52.69235,20.121413 48.672201,20.009532 Z" style="filter:url(#filter847);opacity:0.2"/>
  <path d="M 48.672201,16.009534 C 35.159224,15.632582 24.000492,26.481028 24,39.995686 V 151.96751 c 1e-6,18.51875 20.092645,30.05809 36.094228,20.72916 l 96.001262,-55.98591 c 15.87268,-9.26065 15.87268,-32.18986 0,-41.450512 L 108.09486,47.259484 60.094228,19.266525 C 56.619938,17.241366 52.69235,16.121413 48.672201,16.009534 Z" style="fill:#e4e4e4"/>
  <path d="M 124,96.000508 92,116.00026 60,136 V 56 l 32.000004,19.999744 z" style="fill:#4d89ff"/>
  <path style="opacity:0.2;fill:#ffffff" d="M 47.419922 16.005859 C 34.476447 16.312149 24.000477 26.899862 24 39.992188 L 24 40.992188 C 24.000492 27.477529 35.1629 16.630862 48.679688 17.007812 C 52.70097 17.119694 56.628247 18.240466 60.103516 20.265625 L 108.11914 48.257812 L 156.13281 76.257812 C 163.94864 80.81655 167.86973 88.688824 167.98438 96.611328 C 168.19994 88.356928 164.27769 80.008472 156.13281 75.257812 L 108.11914 47.257812 L 60.103516 19.265625 C 56.628247 17.240466 52.70097 16.119694 48.679688 16.007812 C 48.257288 15.996033 47.837453 15.995979 47.419922 16.005859 z "/>
</svg>
