<?xml version='1.0' encoding='utf-8'?>
<svg xmlns="http://www.w3.org/2000/svg" width="192" height="192" version="1.1" id="svg16">
  <defs>
    <filter style="color-interpolation-filters:sRGB" id="filter873" x="0.05" width="1.11" y="0.04" height="1.09">
      <feGaussianBlur stdDeviation="2.35"/>
    </filter>
    <filter style="color-interpolation-filters:sRGB" id="filter905" x="0.04" width="1.09" y="0.05" height="1.10">
      <feGaussianBlur stdDeviation="2.08"/>
    </filter>
    <filter style="color-interpolation-filters:sRGB" id="filter925" x="0.04" width="1.08" y="0.06" height="1.12">
      <feGaussianBlur stdDeviation="2.64"/>
    </filter>
  </defs>
  <path style="filter:url(#filter905);opacity:0.20" class="cls-1" d="M 160.41,139.07 C 152.74,146.62 140.85,148.41 131.39,148.45 101.81,148.45 76.05,125.71 76.05,99.61 76.13,92.48 80.06,85.95 86.32,82.54 59.57,83.67 52.70,111.54 52.70,127.87 52.70,174.04 95.25,178.72 104.42,178.72 109.36,178.72 116.82,177.28 121.29,175.87 L 122.11,175.59 C 139.33,169.64 154.01,158.00 163.73,142.60 165.12,140.41 162.68,137.81 160.41,139.07 Z"/>
  <path style="fill:#0e539b" class="cls-1" d="M 160.41,135.07 C 152.74,142.62 140.85,144.41 131.39,144.45 101.81,144.45 76.05,121.71 76.05,95.61 76.13,88.48 80.06,81.95 86.32,78.54 59.57,79.67 52.70,107.54 52.70,123.87 52.70,170.04 95.25,174.72 104.42,174.72 109.36,174.72 116.82,173.28 121.29,171.87 L 122.11,171.59 C 139.33,165.64 154.01,154.01 163.73,138.60 165.12,136.41 162.68,133.82 160.41,135.07 Z"/>
  <path style="filter:url(#filter873);opacity:0.20" class="cls-3" d="M 79.68,170.87 C 74.10,167.41 69.27,162.88 65.47,157.53 47.00,132.23 58.22,96.38 86.32,82.54 88.27,81.62 91.60,79.96 96.03,80.04 102.36,80.09 108.30,83.09 112.09,88.17 114.61,91.54 116.00,95.62 116.06,99.83 116.06,99.70 131.35,50.08 66.07,50.08 38.63,50.08 16.07,76.12 16.07,98.96 15.96,111.04 18.55,123.00 23.64,133.95 40.86,170.70 82.87,188.73 121.37,175.89 108.19,180.05 91.45,178.22 79.73,170.89 Z"/>
  <path style="fill:#0b87da" class="cls-3" d="M 79.68,166.87 C 74.10,163.41 69.27,158.88 65.47,153.53 47.00,128.23 58.22,92.39 86.32,78.54 88.27,77.62 91.60,75.96 96.03,76.04 102.36,76.09 108.30,79.10 112.09,84.17 114.61,87.54 116.00,91.62 116.06,95.83 116.06,95.70 131.35,46.08 66.07,46.08 38.63,46.08 16.07,72.12 16.07,94.96 15.96,107.04 18.55,119.00 23.64,129.96 40.86,166.70 82.87,184.73 121.37,171.89 108.19,176.05 91.45,174.22 79.73,166.90 Z"/>
  <path style="filter:url(#filter925);opacity:0.20" class="cls-5" d="M 111.20,110.63 C 110.69,111.28 109.14,112.19 109.14,114.16 109.14,115.79 110.20,117.36 112.09,118.68 121.07,124.93 138.02,124.11 138.06,124.11 144.72,124.09 151.25,122.29 156.98,118.89 168.73,112.03 175.97,101.85 176.00,88.24 176.16,74.24 171.00,64.92 168.91,60.80 155.67,34.90 127.08,20.00 96.00,20.00 52.25,19.99 16.62,55.13 16.00,98.86 16.30,76.03 39.00,55.99 66.00,55.99 68.18,55.99 80.66,56.20 92.25,62.28 102.46,67.64 107.81,75.72 111.53,82.14 116.93,92.33 117.16,102.84 111.20,110.63 Z"/>
  <path style="fill:#17dcbe" class="cls-5" d="M 111.20,106.63 C 110.69,107.28 109.14,108.19 109.14,110.17 109.14,111.80 110.20,113.36 112.09,114.68 121.07,120.93 138.02,120.11 138.06,120.11 144.72,120.09 151.25,118.29 156.98,114.89 168.73,108.03 175.97,97.85 176.00,84.24 176.16,70.24 171.00,60.93 168.91,56.80 155.67,30.90 127.08,16.00 96.00,16.00 52.25,16.00 16.62,51.13 16.00,94.87 16.30,72.03 39.00,51.99 66.00,51.99 68.18,51.99 80.66,52.20 92.25,58.28 102.46,63.64 107.81,71.72 111.53,78.14 116.93,88.33 117.16,98.84 111.20,106.63 Z"/>
  <path style="opacity:0.20;fill:#ffffff" d="M 95.99 16 C 52.25 16.00 16.62 51.13 16 94.87 C 16.01 94.04 16.06 93.23 16.13 92.41 C 18.52 50.29 53.41 17.00 95.99 17 C 127.08 17 155.66 31.90 168.91 57.80 C 170.95 61.84 175.94 70.86 175.99 84.38 C 175.99 84.34 176.00 84.29 176 84.24 C 176.16 70.24 170.99 60.93 168.91 56.80 C 155.66 30.90 127.08 16 95.99 16 z M 115.48 95.20 C 115.14 99.35 113.79 103.25 111.20 106.62 C 110.70 107.28 109.14 108.19 109.14 110.16 C 109.14 110.35 109.16 110.53 109.19 110.71 C 109.41 109.05 110.74 108.23 111.20 107.62 C 113.79 104.25 115.14 100.35 115.48 96.20 C 115.52 96.73 115.53 97.26 115.54 97.78 C 115.56 96.93 115.54 96.07 115.48 95.20 z "/>
</svg>
