<svg xmlns="http://www.w3.org/2000/svg" id="svg14" width="192" height="192" version="1"><defs><filter style="color-interpolation-filters:sRGB" id="filter850" width="1.1" height="1.1" x=".05" y=".05"><feGaussianBlur stdDeviation="3.2"/></filter><filter style="color-interpolation-filters:sRGB" id="filter2304" width="1.15" height="1.15" x=".07" y=".08"><feGaussianBlur stdDeviation="3.31"/></filter></defs><circle style="filter:url(#filter850);opacity:.2;fill:#000" cx="96" cy="100" r="80"/><circle cx="96" cy="96" r="80" style="fill:#4b9af8"/><path style="filter:url(#filter2304);opacity:.2;fill:#000" d="m 146.81,71.02 c -2.25,0.20 -3.90,1.55 -10.10,9.67 -3.41,4.46 -6.64,8.37 -7.19,8.71 0.55,0.33 -2.69,0.98 -4.76,1.43 -10.46,2.30 -20.92,8.41 -28.59,16.73 -1.18,1.28 -2.59,2.57 -3.12,2.87 0.54,0.29 -5.74,1.22 -11.56,2.06 -11.45,1.65 -12.48,2.02 -13.31,4.76 0.22,0.74 0.24,2.05 0.04,2.91 0.25,1.05 4.12,7.92 11.79,20.95 12.60,21.39 12.67,21.49 18.66,26.02 11.00,8.32 27.93,10.24 42.89,4.88 4.48,-1.61 13.17,-6.60 16.90,-9.71 7.84,-6.54 13.67,-15.47 16.16,-24.75 2.42,-9.02 1.83,-17.38 -1.82,-25.95 -1.64,-3.86 -20.61,-37.02 -22.23,-38.85 0.51,0.58 -1.71,-1.26 -2.67,-1.52 0.36,0.10 0.70,0.17 -1.02,0.20 z M 148,122.00 a 8,8 0 0 1 8,8 8,8 0 0 1 -8,8 8,8 0 0 1 -8,-8 8,8 0 0 1 8,-8 z m -30,17 a 8,8 0 0 1 8,8 8,8 0 0 1 -8,8 8,8 0 0 1 -8,-8 8,8 0 0 1 8,-8 z"/><path style="fill:#fff" d="M 146.81 68.02 C 144.56 67.81 142.91 69.57 136.71 77.68 C 133.30 82.14 130.07 86.05 129.53 86.39 C 128.98 86.72 126.84 87.36 124.76 87.82 C 114.30 90.11 103.85 96.23 96.17 104.55 C 94.99 105.84 93.58 107.13 93.05 107.42 C 92.51 107.71 87.31 108.64 81.49 109.47 C 70.04 111.13 69.01 111.50 68.18 114.24 C 67.96 114.98 67.94 116.29 68.14 117.15 C 68.40 118.20 72.26 125.07 79.94 138.10 C 92.54 159.49 92.61 159.59 98.60 164.12 C 109.60 172.43 126.53 174.36 141.48 168.99 C 145.97 167.38 154.65 162.39 158.38 159.28 C 166.22 152.74 172.06 143.81 174.54 134.53 C 176.96 125.51 176.38 117.15 172.72 108.58 C 171.08 104.72 152.11 71.56 150.50 69.73 C 149.99 69.15 148.79 68.47 147.83 68.21 C 147.47 68.11 147.13 68.04 146.81 68.02 z M 148 119 A 8 8 0 0 1 156 127 A 8 8 0 0 1 148 135 A 8 8 0 0 1 140 127 A 8 8 0 0 1 148 119 z M 118 136 A 8 8 0 0 1 126 144 A 8 8 0 0 1 118 152 A 8 8 0 0 1 110 144 A 8 8 0 0 1 118 136 z"/><path style="opacity:.2;fill:#fff" d="M 96 16 A 80 80 0 0 0 16 96 A 80 80 0 0 0 16.02 96.47 A 80 80 0 0 1 96 17 A 80 80 0 0 1 175.97 96.51 A 80 80 0 0 0 176 96 A 80 80 0 0 0 96 16 z"/></svg>