<svg xmlns="http://www.w3.org/2000/svg" id="svg14" width="192" height="192" version="1.1"><defs><filter style="color-interpolation-filters:sRGB" id="filter849" width="1.1" height="1.1" x=".05" y=".05"><feGaussianBlur stdDeviation="3.2"/></filter><filter style="color-interpolation-filters:sRGB" id="filter3545" width="1.16" height="1.11" x=".08" y=".06"><feGaussianBlur stdDeviation="3.2"/></filter></defs><circle style="filter:url(#filter849);opacity:.2" cx="96" cy="100" r="80"/><circle style="fill:#2e4cd2" cx="96" cy="96" r="80"/><path style="opacity:.1;fill:#fff" d="M 96,16 A 80,80 0 0 0 16,96 80,80 0 0 0 16.02,96.64 80,80 0 0 1 96,17 80,80 0 0 1 175.98,96.30 80,80 0 0 0 176,96 80,80 0 0 0 96,16 Z"/><path style="filter:url(#filter3545);opacity:.2;fill:#000" d="m 78.97,39.00 c -1.29,0.08 -2.68,0.48 -3.93,1.61 -2.41,2.18 -2.57,3.85 -3.88,15.27 -1.01,8.79 -1.22,12.24 -1.42,23.49 0.19,10.54 0.35,13.41 0.80,14.30 0.31,0.61 -2.00,2.28 -3.76,3.70 -4.54,3.67 -7.53,6.66 -8.19,8.19 0.94,2.17 -1.21,5.90 0.82,11.08 0.41,5.39 1.25,8.46 3.69,13.33 2.59,5.18 3.10,8.80 2.40,11.96 0.32,1.44 -6.05,13.53 -8.46,19.84 11.00,6.79 23.49,10.81 36.39,11.72 0.37,-1.47 1.35,0.18 3.55,-6.20 4.86,-13.27 4.82,-13.21 12.76,-22.17 4.72,-5.33 5.26,-6.12 11.91,-17.38 3.83,-6.49 8.48,-14.09 10.33,-16.89 4.74,-7.17 17.23,-27.33 18.28,-29.58 1.08,-2.32 1.20,-5.76 0.25,-7.37 -1.28,-2.16 -4.23,-2.39 -6.89,0.55 0.88,0.61 -3.94,4.50 -8.23,10.47 -5.63,7.83 -7.73,10.29 -11.46,13.96 -2.98,2.94 -4.55,4.41 -4.99,4.33 0.59,0.11 0.67,0.63 0.67,-4.64 0,-4.23 0.06,-4.93 -1.02,-6.56 -2.28,-3.88 -6.20,-3.93 -9.93,0.13 -1.63,1.66 -3.25,2.45 -3.80,1.55 0.15,0.24 0.23,-1.58 0.19,-2.98 0.12,-3.96 0.88,-6.46 -3.72,-7.76 -2.83,-1.30 -5.70,0.68 -8.48,1.81 -2.03,1.83 -3.24,2.27 -3.74,0.95 0.18,0.48 0.64,-3.93 -1.01,-7.67 0.65,-6.56 0.65,-7.23 0.02,-19.26 0.38,-6.85 0.58,-13.01 0.45,-13.68 0.57,-2.85 -2.46,-4.61 -4.62,-4.74 z"/><path style="fill:#fff" d="M 78.97 37 C 77.68 36.92 76.29 37.48 75.04 38.61 C 72.63 40.79 72.48 42.46 71.17 53.88 C 70.16 62.67 69.95 66.11 69.75 77.37 C 69.55 87.91 69.39 90.78 68.95 91.67 C 68.64 92.28 66.94 93.95 65.18 95.37 C 60.64 99.04 57.65 102.03 56.99 103.56 C 56.05 105.73 55.78 109.46 56.17 114.64 C 56.57 120.03 57.42 123.10 59.85 127.97 C 62.44 133.15 62.96 136.77 62.25 139.93 C 61.93 141.37 56.20 157.55 53.79 163.87 A 80 80 0 0 0 90.17 175.58 C 90.55 174.11 91.52 171.30 93.72 165.29 C 98.58 152.01 98.54 152.08 106.48 143.11 C 111.20 137.78 111.74 136.99 118.39 125.73 C 122.23 119.24 126.87 111.64 128.72 108.84 C 133.46 101.67 145.95 81.51 147.00 79.25 C 148.09 76.93 148.20 73.49 147.25 71.88 C 145.98 69.73 143.02 69.49 140.36 71.34 C 139.48 71.94 136.42 75.84 132.12 81.81 C 126.49 89.64 124.39 92.10 120.67 95.77 C 117.68 98.71 116.12 100.18 115.68 100.10 C 115.09 99.98 115.01 99.47 115.01 95.45 C 115.01 91.22 114.95 90.53 113.99 88.89 C 111.71 85.01 107.79 84.96 104.06 88.76 C 102.44 90.42 100.82 91.22 100.26 90.32 C 100.12 90.08 100.03 88.74 100.07 87.34 C 100.18 83.38 99.19 80.88 96.35 79.57 C 93.52 78.28 90.65 78.89 87.87 81.39 C 85.84 83.21 84.63 83.66 84.13 82.34 C 83.95 81.86 83.49 78.41 83.12 74.67 C 82.47 68.11 82.47 67.44 83.14 55.41 C 83.52 48.56 83.72 42.40 83.59 41.74 C 83.02 38.88 81.13 37.13 78.97 37 z"/></svg>