<?xml version='1.0' encoding='utf-8'?>
<svg xmlns="http://www.w3.org/2000/svg" version="1.1" width="192" height="192" id="svg6">
  <defs>
    <filter style="color-interpolation-filters:sRGB" id="filter2327" x="-0.048000001" y="-0.048000001" width="1.096" height="1.096">
      <feGaussianBlur stdDeviation="3.2"/>
    </filter>
    <filter style="color-interpolation-filters:sRGB" id="filter6827" x="-0.047999999" y="-0.047999999" width="1.096" height="1.096">
      <feGaussianBlur stdDeviation="2.3"/>
    </filter>
  </defs>
  <rect style="filter:url(#filter2327);opacity:0.2;fill:#000000;stop-color:#000000" width="160" height="160" x="16" y="20" rx="20" ry="20"/>
  <rect style="fill:#0a66c2;stop-color:#000000" width="160" height="160" x="16" y="16" rx="20" ry="20"/>
  <path style="opacity:0.1;fill:#ffffff;stop-color:#000000" d="M 36,16 C 24.92,16 16,24.92 16,36 v 1 C 16,25.92 24.92,17 36,17 h 120 c 11.08,0 20,8.92 20,20 v -1 c 0,-11.08 -8.92,-20 -20,-20 z"/>
  <path style="filter:url(#filter6827);opacity:0.2;fill:#000000;stop-color:#000000" d="M 51.5,40 A 13.5,13.5 0 0 0 38,53.5 13.5,13.5 0 0 0 51.5,67 13.5,13.5 0 0 0 65,53.5 13.5,13.5 0 0 0 51.5,40 Z M 39,77 v 78 H 64 V 77 Z m 37,0 V 78.402344 155 h 23 2 v -41 c 0,-11.01986 6.14339,-16.428217 14.5918,-17 10.7566,0.124222 13.39752,6.31279 13.4082,16.64844 V 155 h 24 V 105.05664 C 153,95.236497 150.30049,88.130058 144.90234,83.734375 139.5042,79.245167 132.32429,77 123.36133,77 c -5.19444,0 -10.13512,0.889038 -14.82031,2.666016 -2.90309,1.125537 -5.41433,2.685286 -7.54102,4.673828 V 77 Z"/>
  <path style="fill:#ffffff;stop-color:#000000" d="M 51.5,38 A 13.5,13.5 0 0 0 38,51.5 13.5,13.5 0 0 0 51.5,65 13.5,13.5 0 0 0 65,51.5 13.5,13.5 0 0 0 51.5,38 Z M 39,75 v 78 H 64 V 75 Z m 37,0 V 76.402344 153 h 23 2 v -41 c 0,-11.01986 6.14339,-16.428217 14.5918,-17 10.7566,0.124222 13.39752,6.31279 13.4082,16.64844 V 153 h 24 V 103.05664 C 153,93.236497 150.30049,86.130058 144.90234,81.734375 139.5042,77.245167 132.32429,75 123.36133,75 c -5.19444,0 -10.13512,0.889038 -14.82031,2.666016 -2.90309,1.125537 -5.41433,2.685286 -7.54102,4.673828 V 75 Z"/>
  <g aria-label="n" style="opacity:0.599126" transform="matrix(0.99221167,0,0,0.91109556,0.91503574,12.030913)"/>
</svg>
