<?xml version='1.0' encoding='utf-8'?>
<svg xmlns="http://www.w3.org/2000/svg" width="192" height="192" version="1.1" id="svg14">
  <defs>
    <filter style="color-interpolation-filters:sRGB" id="filter849" x="-0.048000001" y="-0.048000001" width="1.096" height="1.096">
      <feGaussianBlur stdDeviation="3.2"/>
    </filter>
    <filter style="color-interpolation-filters:sRGB" id="filter15787" x="-0.075" y="-0.075" width="1.15" height="1.15">
      <feGaussianBlur stdDeviation="3.6875"/>
    </filter>
  </defs>
  <circle style="filter:url(#filter849);opacity:0.2" cx="96" cy="100" r="80"/>
  <circle style="fill:#e4e4e4" cx="96" cy="96" r="80"/>
  <path style="filter:url(#filter15787);opacity:0.2;fill:#000000;color:#000000" d="m 96,39 c -32.549234,0 -59,26.450766 -59,59 0,32.54923 26.450766,59 59,59 32.54923,0 59,-26.45077 59,-59 0,-32.549234 -26.45077,-59 -59,-59 z m 0,6 c 29.3066,0 53,23.693404 53,53 0,29.3066 -23.6934,53 -53,53 C 66.693404,151 43,127.3066 43,98 43,68.693404 66.693404,45 96,45 Z M 96,57.017578 87.537109,65.4375 89.654297,67.564453 96,61.248047 102.35156,67.564453 104.4668,65.4375 Z M 87,82 a 1.1912068,1.1881999 0 0 0 -0.595703,0.160156 1.1912068,1.1881999 0 0 0 -0.595703,1.029297 V 87 90.810547 a 1.1912068,1.1881999 0 0 0 1.787109,1.029297 l 3.308594,-1.90625 3.308594,-1.904297 a 1.1912068,1.1881999 0 0 0 0,-2.058594 l -3.308594,-1.904297 -3.308594,-1.90625 A 1.1912068,1.1881999 0 0 0 87,82 Z m 10,5 a 1.1912068,1.1881999 0 0 0 -0.595703,0.160156 1.1912068,1.1881999 0 0 0 -0.595703,1.029297 V 92 95.810547 a 1.1912068,1.1881999 0 0 0 1.787109,1.029297 l 3.308597,-1.90625 3.30859,-1.904297 a 1.1912068,1.1881999 0 0 0 0,-2.058594 l -3.30859,-1.904297 -3.308597,-1.90625 A 1.1912068,1.1881999 0 0 0 97,87 Z m -33.560547,2.535156 -8.419922,8.462891 8.419922,8.466793 2.126953,-2.11523 L 59.25,97.998047 65.566406,91.652344 Z m 65.124997,0 -2.12695,2.117188 6.31641,6.345703 -6.31641,6.351563 2.12695,2.11523 8.41993,-8.466793 z M 87,93 a 1.1912068,1.1881999 0 0 0 -0.595703,0.160156 1.1912068,1.1881999 0 0 0 -0.595703,1.029297 V 98 v 3.81055 a 1.1912068,1.1881999 0 0 0 1.787109,1.02929 l 3.308594,-1.90625 3.308594,-1.904293 a 1.1912068,1.1881999 0 0 0 0,-2.058594 l -3.308594,-1.904297 -3.308594,-1.90625 A 1.1912068,1.1881999 0 0 0 87,93 Z m 20.19141,0 A 1.1912068,1.1881999 0 0 0 106.59375,93.160156 1.1912068,1.1881999 0 0 0 106,94.189453 V 98 v 3.81055 a 1.1912068,1.1881999 0 0 0 1.78711,1.02929 l 3.30859,-1.90625 3.3086,-1.904293 a 1.1912068,1.1881999 0 0 0 0,-2.058594 l -3.3086,-1.904297 -3.30859,-1.90625 A 1.1912068,1.1881999 0 0 0 107.19141,93 Z M 97,99 a 1.1912068,1.1881999 0 0 0 -0.595703,0.160156 1.1912068,1.1881999 0 0 0 -0.595703,1.029294 V 104 v 3.81055 a 1.1912068,1.1881999 0 0 0 1.787109,1.02929 l 3.308597,-1.90625 3.30859,-1.90429 a 1.1912068,1.1881999 0 0 0 0,-2.0586 l -3.30859,-1.90429 -3.308597,-1.906254 A 1.1912068,1.1881999 0 0 0 97,99 Z m -10,6 a 1.1912068,1.1881999 0 0 0 -0.595703,0.16016 1.1912068,1.1881999 0 0 0 -0.595703,1.02929 V 110 v 3.81055 a 1.1912068,1.1881999 0 0 0 1.787109,1.02929 l 3.308594,-1.90625 3.308594,-1.90429 a 1.1912068,1.1881999 0 0 0 0,-2.0586 l -3.308594,-1.90429 -3.308594,-1.90625 A 1.1912068,1.1881999 0 0 0 87,105 Z m 2.654297,23.43555 -2.117188,2.12695 L 96,138.98242 104.4668,130.5625 102.35156,128.43555 96,134.75195 Z"/>
  <path style="opacity:0.2;fill:#ffffff" d="M 96,16 A 80,80 0 0 0 16,96 80,80 0 0 0 16.023438,96.638672 80,80 0 0 1 96,17 80,80 0 0 1 175.98438,96.302734 80,80 0 0 0 176,96 80,80 0 0 0 96,16 Z"/>
  <path style="fill:#24b5fc;color:#000000" d="m 96,37 c -32.549234,0 -59,26.450766 -59,59 0,32.54923 26.450766,59 59,59 32.54923,0 59,-26.45077 59,-59 0,-32.549234 -26.45077,-59 -59,-59 z m 0,6 c 29.3066,0 53,23.693404 53,53 0,29.3066 -23.6934,53 -53,53 C 66.693404,149 43,125.3066 43,96 43,66.693404 66.693404,43 96,43 Z"/>
  <path style="fill:#d53ba7;color:#000000" d="M 96,55.017578 87.537109,63.4375 89.654297,65.564453 96,59.248047 l 6.35156,6.316406 2.11524,-2.126953 z"/>
  <path style="fill:#d53ba7;color:#000000" d="m 107.19074,91.000003 a 1.1912068,1.1881999 0 0 0 -0.59623,0.159855 1.1912068,1.1881999 0 0 0 -0.59451,1.0296 v 3.81073 3.810726 a 1.1912068,1.1881999 0 0 0 1.78698,1.029596 l 3.30857,-1.906219 3.30858,-1.904502 a 1.1912068,1.1881999 0 0 0 0,-2.0592 l -3.30858,-1.904504 -3.30857,-1.906227 a 1.1912068,1.1881999 0 0 0 -0.59624,-0.159855 z"/>
  <path style="fill:#d53ba7;color:#000000" d="m 97,85 a 1.1912068,1.1881999 0 0 0 -0.59623,0.159855 1.1912068,1.1881999 0 0 0 -0.59451,1.0296 v 3.81073 3.810726 a 1.1912068,1.1881999 0 0 0 1.78698,1.029596 l 3.30857,-1.906219 3.30858,-1.904502 a 1.1912068,1.1881999 0 0 0 0,-2.0592 l -3.30858,-1.904504 -3.30857,-1.906227 A 1.1912068,1.1881999 0 0 0 97,85 Z"/>
  <path style="fill:#d53ba7;color:#000000" d="m 97,97 a 1.1912068,1.1881999 0 0 0 -0.59623,0.159855 1.1912068,1.1881999 0 0 0 -0.59451,1.0296 v 3.810735 3.81072 a 1.1912068,1.1881999 0 0 0 1.78698,1.0296 l 3.30857,-1.90622 3.30858,-1.9045 a 1.1912068,1.1881999 0 0 0 0,-2.0592 l -3.30858,-1.904508 -3.30857,-1.906227 A 1.1912068,1.1881999 0 0 0 97,97 Z"/>
  <path style="fill:#d53ba7;color:#000000" d="m 87,91.000003 a 1.1912068,1.1881999 0 0 0 -0.59623,0.159855 1.1912068,1.1881999 0 0 0 -0.59451,1.0296 v 3.81073 3.810726 a 1.1912068,1.1881999 0 0 0 1.78698,1.029596 l 3.30857,-1.906219 3.30858,-1.904502 a 1.1912068,1.1881999 0 0 0 0,-2.0592 L 90.90481,93.066085 87.59624,91.159858 A 1.1912068,1.1881999 0 0 0 87,91.000003 Z"/>
  <path style="fill:#d53ba7;color:#000000" d="m 87,80 a 1.1912068,1.1881999 0 0 0 -0.59623,0.159855 1.1912068,1.1881999 0 0 0 -0.59451,1.0296 v 3.81073 3.810726 a 1.1912068,1.1881999 0 0 0 1.78698,1.029596 l 3.30857,-1.906219 3.30858,-1.904502 a 1.1912068,1.1881999 0 0 0 0,-2.0592 L 90.90481,82.066082 87.59624,80.159855 A 1.1912068,1.1881999 0 0 0 87,80 Z"/>
  <path style="fill:#d53ba7;color:#000000" d="m 87,103 a 1.1912068,1.1881999 0 0 0 -0.59623,0.15985 1.1912068,1.1881999 0 0 0 -0.59451,1.0296 v 3.81074 3.81072 a 1.1912068,1.1881999 0 0 0 1.78698,1.0296 l 3.30857,-1.90622 3.30858,-1.9045 a 1.1912068,1.1881999 0 0 0 0,-2.0592 l -3.30858,-1.90451 -3.30857,-1.90623 A 1.1912068,1.1881999 0 0 0 87,103 Z"/>
  <path style="fill:#d53ba7;color:#000000" d="m 96,136.98242 -8.462891,-8.41992 2.117188,-2.12695 6.345703,6.3164 6.35156,-6.3164 2.11524,2.12695 z"/>
  <path style="fill:#d53ba7;color:#000000" d="m 136.98438,95.998044 -8.41993,-8.462891 -2.12695,2.117188 6.31641,6.345703 -6.31641,6.351556 2.12695,2.11524 z"/>
  <path style="fill:#d53ba7;color:#000000" d="m 55.019534,95.998044 8.41992,-8.462891 2.12695,2.117188 -6.3164,6.345703 6.3164,6.351556 -2.12695,2.11524 z"/>
</svg>
