<?xml version='1.0' encoding='utf-8'?>
<svg xmlns="http://www.w3.org/2000/svg" width="192" height="192" version="1" id="svg26">
  <defs>
    <filter style="color-interpolation-filters:sRGB" id="filter868" x="0.05" width="1.10" y="0.05" height="1.10">
      <feGaussianBlur stdDeviation="3.20"/>
    </filter>
    <filter style="color-interpolation-filters:sRGB" id="filter884" x="0.03" width="1.06" y="0.11" height="1.21">
      <feGaussianBlur stdDeviation="0.44"/>
    </filter>
  </defs>
  <rect style="filter:url(#filter868);opacity:0.20;fill:#000000" width="160" height="160" x="-180" y="-176" rx="8" ry="8" transform="matrix(0,-1,-1,0,0,0)"/>
  <rect transform="matrix(0,-1,-1,0,0,0)" ry="8" rx="8" y="-176" x="-176" height="160" width="160" style="fill:#e14137"/>
  <g style="filter:url(#filter884);opacity:0.20" transform="matrix(4,0,0,4,0,4)">
    <path d="M 19,19 V 29 H 29 V 19 Z m 1,1 h 7 v 3 h 1 v 5 h -8 v -6 z m 2,2 v 1 h 3 v -1 z m 0,3 v 1 h 4 v -1 z"/>
    <path d="M 7,19 V 29 H 17 V 19 Z m 1,1 h 7 v 3 h 1 v 5 H 8 v -6 z m 2,2 v 1 h 3 v -1 z m 0,3 v 1 h 4 v -1 z"/>
    <path d="M 31,19 V 29 H 41 V 19 Z m 1,1 h 8 v 2 h -6 v 4 h 6 v 2 h -8 z"/>
  </g>
  <path style="opacity:0.20;fill:#ffffff" d="M 24 16 C 19.57 16 16 19.57 16 24 L 16 25 C 16 20.57 19.57 17 24 17 L 168 17 C 172.43 17 176 20.57 176 25 L 176 24 C 176 19.57 172.43 16 168 16 L 24 16 z "/>
  <g style="fill:#ffffff" transform="scale(4)">
    <path d="M 19,19 V 29 H 29 V 19 Z m 1,1 h 7 v 3 h 1 v 5 h -8 v -6 z m 2,2 v 1 h 3 v -1 z m 0,3 v 1 h 4 v -1 z"/>
    <path d="M 7,19 V 29 H 17 V 19 Z m 1,1 h 7 v 3 h 1 v 5 H 8 v -6 z m 2,2 v 1 h 3 v -1 z m 0,3 v 1 h 4 v -1 z"/>
    <path d="M 31,19 V 29 H 41 V 19 Z m 1,1 h 8 v 2 h -6 v 4 h 6 v 2 h -8 z"/>
  </g>
</svg>
