<?xml version='1.0' encoding='utf-8'?>
<svg xmlns="http://www.w3.org/2000/svg" width="192" height="192" version="1" id="svg22">
  <defs>
    <filter id="filter1351" style="color-interpolation-filters:sRGB" width="1.14" height="1.16" x="0.07" y="0.08">
      <feGaussianBlur stdDeviation="4.75"/>
    </filter>
  </defs>
  <path style="filter:url(#filter1351);opacity:0.20" d="m 40.24,29.00 14.49,26.90 c 6.34,11.77 18.57,19.10 31.88,19.10 -2.50,0 -4.97,0.26 -7.37,0.76 -10.37,2.14 -19.44,8.78 -24.59,18.37 0.61,1.14 -1.21,2.23 -1.82,3.36 0.48,0.78 0.95,1.56 -1.39,2.37 L 41.11,118.89 c 0.18,0.32 0.91,1.65 0.95,1.71 h 0.07 c 0.02,0.00 0.04,0.00 0.06,0.00 0.01,0.01 0.22,0.39 0.22,0.39 h 0.02 l -26.06,48.00 38.95,0.00 c 14.14,0.00 27.44,-7.72 34.17,-20.12 l 7.34,-13.61 c 3.44,-6.30 7.62,-13.96 7.79,-14.27 h 30.12 c 25.26,0 45.72,-20.59 45.72,-46.00 0,-25.41 -20.46,-46 -45.72,-46 z"/>
  <path style="fill:#ff9f3b" d="M 54.73,91.10 C 61.07,79.33 73.30,72 86.61,72 H 178 c 0,25.41 -20.46,46 -45.72,46 H 40.24 Z"/>
  <path style="fill:#ff8631" d="M 54.73,52.90 C 61.07,64.67 73.30,72 86.61,72 H 178 C 178,46.59 157.54,26 132.28,26 H 40.24 Z"/>
  <path style="fill:#ff9e3a" d="M 51.43,96.86 C 59.75,81.54 75.82,72.00 93.29,72.00 l 33.56,0.01 L 87.03,145.88 C 80.30,158.28 66.99,166.00 52.86,166 l -38.95,0.00 z"/>
  <path style="opacity:0.28;fill:#ff6445" d="M 89.22,141.70 C 74.14,120.34 49.19,117.72 40.09,117.60 h 62.29 c 0,0 -8.86,16.23 -13.16,24.10 z"/>
  <path style="fill:#ffb945" d="m 86.56,72.01 c -13.33,0 -25.58,7.33 -31.91,19.12 C 47.57,104.30 39.94,117.99 39.94,117.99 h 62.14 l 24.77,-45.98 z"/>
  <path style="opacity:0.20;fill:#ffffff" d="M 86.61 72 C 84.10 72 81.64 72.26 79.24 72.76 C 68.87 74.90 59.80 81.54 54.65 91.13 C 47.57 104.30 39.94 117.99 39.94 117.99 L 40.24 117.99 L 40.24 118 L 40.49 118 C 41.31 116.54 47.99 104.53 54.65 92.13 C 59.80 82.54 68.87 75.90 79.24 73.76 C 81.64 73.26 84.10 73 86.61 73 L 177.97 73 C 177.98 72.67 178 72.34 178 72 L 86.61 72 z"/>
  <path style="opacity:0.20;fill:#ffffff" d="M 40.24 26 L 40.78 27 L 132.28 27 C 157.21 27 177.44 47.06 177.97 72 L 178 72 C 178 46.59 157.54 26 132.28 26 L 40.24 26 z"/>
</svg>
