<?xml version='1.0' encoding='utf-8'?>
<svg xmlns="http://www.w3.org/2000/svg" width="192" height="192" version="1" id="svg16">
  <defs>
    <filter style="color-interpolation-filters:sRGB" id="filter867" x="0.05" width="1.10" y="0.05" height="1.10">
      <feGaussianBlur stdDeviation="3.20"/>
    </filter>
    <filter style="color-interpolation-filters:sRGB" id="filter2201" x="0.06" y="0.10" width="1.12" height="1.19">
      <feGaussianBlur stdDeviation="2.82"/>
    </filter>
  </defs>
  <rect ry="80" rx="80" height="160" width="160" y="-176" x="-180" transform="matrix(0,-1,-1,0,0,0)" style="filter:url(#filter867);opacity:0.20;fill:#000000"/>
  <rect style="fill:#e33835" transform="matrix(0,-1,-1,0,0,0)" x="-176" y="-176" width="160" height="160" rx="80" ry="80"/>
  <path style="filter:url(#filter2201);opacity:0.20;fill:#000000" d="M 96 58 A 28 19 0 0 0 68 77 A 28 19 0 0 0 76.70 90.73 A 28 19 0 0 0 69 90 A 28 19 0 0 0 41 109 A 28 19 0 0 0 69 128 A 28 19 0 0 0 96 114.01 A 28 19 0 0 0 123 128 A 28 19 0 0 0 151 109 A 28 19 0 0 0 123 90 A 28 19 0 0 0 115.25 90.76 A 28 19 0 0 0 124 77 A 28 19 0 0 0 96 58 z M 96 63 C 102.82 63 108.90 64.93 112.99 67.70 C 117.08 70.48 119 73.74 119 77 C 119 80.26 117.08 83.52 112.99 86.30 C 108.90 89.07 102.82 91 96 91 C 89.18 91 83.10 89.07 79.01 86.30 C 74.92 83.52 73 80.26 73 77 C 73 73.74 74.92 70.48 79.01 67.70 C 83.10 64.93 89.18 63 96 63 z M 96 66 A 19 11 0 0 0 77 77 A 19 11 0 0 0 96 88 A 19 11 0 0 0 115 77 A 19 11 0 0 0 96 66 z M 69 95 C 75.82 95 81.90 96.93 85.99 99.70 C 90.08 102.48 92 105.74 92 109 C 92 112.26 90.08 115.52 85.99 118.30 C 81.90 121.07 75.82 123 69 123 C 62.18 123 56.10 121.07 52.01 118.30 C 47.92 115.52 46 112.26 46 109 C 46 105.74 47.92 102.48 52.01 99.70 C 56.10 96.93 62.18 95 69 95 z M 123 95 C 129.82 95 135.90 96.93 139.99 99.70 C 144.08 102.48 146 105.74 146 109 C 146 112.26 144.08 115.52 139.99 118.30 C 135.90 121.07 129.82 123 123 123 C 116.18 123 110.10 121.07 106.01 118.30 C 101.92 115.52 100 112.26 100 109 C 100 105.74 101.92 102.48 106.01 99.70 C 110.10 96.93 116.18 95 123 95 z M 103.75 95.24 A 28 19 0 0 0 96.00 103.98 A 28 19 0 0 0 88.32 95.25 A 28 19 0 0 0 96 96 A 28 19 0 0 0 103.75 95.24 z M 69 98 A 19 11 0 0 0 50 109 A 19 11 0 0 0 69 120 A 19 11 0 0 0 88 109 A 19 11 0 0 0 69 98 z M 123 98 A 19 11 0 0 0 104 109 A 19 11 0 0 0 123 120 A 19 11 0 0 0 142 109 A 19 11 0 0 0 123 98 z "/>
  <path style="fill:#ffffff" d="M 123,88.00 A 28,19 0 0 1 151,107 28,19 0 0 1 123,126 28,19 0 0 1 95,107 28,19 0 0 1 123,88.00 Z m 0,5 c -6.82,0 -12.90,1.93 -16.99,4.70 C 101.92,100.48 100,103.74 100,107 c 0,3.26 1.92,6.52 6.01,9.30 C 110.10,119.07 116.18,121 123,121 c 6.82,0 12.90,-1.93 16.99,-4.70 C 144.08,113.52 146,110.26 146,107 c 0,-3.26 -1.92,-6.52 -6.01,-9.30 C 135.90,94.93 129.82,93.00 123,93.00 Z M 123,96 a 19,11 0 0 1 19,11 19,11 0 0 1 -19,11 19,11 0 0 1 -19,-11 19,11 0 0 1 19,-11 z"/>
  <path style="fill:#ffffff" d="M 69,88.00 A 28,19 0 0 0 41,107 28,19 0 0 0 69,126 28,19 0 0 0 97,107 28,19 0 0 0 69,88.00 Z m 0,5 c 6.82,0 12.90,1.93 16.99,4.70 C 90.08,100.48 92,103.74 92,107 c 0,3.26 -1.92,6.52 -6.01,9.30 C 81.90,119.07 75.82,121 69,121 62.18,121 56.10,119.07 52.01,116.30 47.92,113.52 46,110.26 46,107 c 0,-3.26 1.92,-6.52 6.01,-9.30 C 56.10,94.93 62.18,93.00 69,93.00 Z M 69,96 A 19,11 0 0 0 50,107 19,11 0 0 0 69,118 19,11 0 0 0 88,107 19,11 0 0 0 69,96 Z"/>
  <path style="opacity:0.20;fill:#ffffff" d="M 96 16 C 51.68 16 16 51.68 16 96 C 16 96.34 16.00 96.67 16 97 C 16 52.68 51.68 17 96 17 C 140.32 17 176 52.68 176 97 C 176.00 96.67 176 96.34 176 96 C 176 51.68 140.32 16 96 16 z "/>
  <path style="fill:#ffffff" d="M 96,56 A 28,19 0 0 0 68,75 28,19 0 0 0 96,94 28,19 0 0 0 124,75 28,19 0 0 0 96,56 Z m 0,5 c 6.82,0 12.90,1.93 16.99,4.70 C 117.08,68.48 119,71.74 119,75 c 0,3.26 -1.92,6.52 -6.01,9.30 C 108.90,87.07 102.82,89 96,89 89.18,89 83.10,87.07 79.01,84.30 74.92,81.52 73,78.26 73,75 73,71.74 74.92,68.48 79.01,65.70 83.10,62.93 89.18,61 96,61 Z m 0,3 A 19,11 0 0 0 77,75 19,11 0 0 0 96,86 19,11 0 0 0 115,75 19,11 0 0 0 96,64 Z"/>
</svg>
