<svg xmlns="http://www.w3.org/2000/svg" id="svg20" width="192" height="192" version="1"><defs><filter style="color-interpolation-filters:sRGB" id="filter861" width="1.1" height="1.09" x=".05" y=".05"><feGaussianBlur stdDeviation="3.02"/></filter><filter style="color-interpolation-filters:sRGB" id="filter868" width="1.13" height="1.08" x=".07" y=".04"><feGaussianBlur stdDeviation="1.31"/></filter><filter style="color-interpolation-filters:sRGB" id="filter872" width="1.13" height="1.08" x=".07" y=".04"><feGaussianBlur stdDeviation="1.31"/></filter><filter style="color-interpolation-filters:sRGB" id="filter876" width="1.07" height="1.13" x=".04" y=".07"><feGaussianBlur stdDeviation="1.49"/></filter></defs><path style="filter:url(#filter861);opacity:.2" d="m 96.43,20.00 a 18.26,18.19 0 0 0 -9.56,2.43 l -53.74,30.90 A 18.26,18.19 0 0 0 24,69.09 v 61.81 a 18.26,18.19 0 0 0 9.13,15.75 l 53.74,30.91 a 18.26,18.19 0 0 0 18.26,0 l 53.74,-30.91 A 18.26,18.19 0 0 0 168,130.90 V 69.09 a 18.26,18.19 0 0 0 -9.13,-15.76 l -53.74,-30.90 a 18.26,18.19 0 0 0 -8.70,-2.43 z"/><path style="fill:#3f3f3f" d="m 96.43,16 v 0.01 a 18.26,18.19 0 0 0 -9.56,2.42 L 33.13,49.34 A 18.26,18.19 0 0 0 24,65.09 v 61.81 a 18.26,18.19 0 0 0 9.13,15.75 l 53.73,30.91 a 18.26,18.19 0 0 0 18.27,0 l 53.73,-30.91 A 18.26,18.19 0 0 0 168,126.91 V 65.09 A 18.26,18.19 0 0 0 158.87,49.34 L 105.13,18.43 A 18.26,18.19 0 0 0 96.43,16 Z"/><path style="filter:url(#filter868);opacity:.2" d="m 96,152.34 43.92,-25.36 -16.75,-9.74 -18.01,9.96 c 0.68,0.45 -1.36,0 -1.36,0.91 V 103.56 c 0,0.68 0.45,-1.36 0.91,-1.58 l 21.98,-12.57 c 0.68,0.45 1.38,0.00 1.36,0.91 V 110.63 L 144,119.96 V 69.02 L 96,97.67 Z"/><path style="fill:#a5a5a5" d="m 96,150.34 43.92,-25.36 -16.75,-9.74 -18.01,9.96 c 0.68,0.45 -1.36,0 -1.36,0.91 v -22.75 c 0,0.68 0.45,-1.36 0.91,-1.58 l 21.98,-12.57 c 0.68,0.45 1.38,0.00 1.36,0.91 V 108.63 L 144,117.96 V 67.02 L 96,94.87 Z"/><path style="filter:url(#filter872);opacity:.2" d="M 86.88,127.21 68.96,117.25 52.28,126.98 96,152.34 V 97.67 L 48,69.02 v 50.72 0.23 0.23 l 15.88,-9.34 V 90.08 c 0,0.68 0.90,-1.13 1.35,0.91 l 21.88,12.57 c 0.68,0.45 0.90,0.91 0.90,1.58 v 22.75 c 0.23,0.91 0.45,1.58 -1.13,1.13 z"/><path style="fill:#ccc" d="M 86.88,125.21 68.96,115.25 52.28,124.98 96,150.34 V 94.87 L 48,67.02 v 50.72 0.23 0.23 L 63.88,108.40 V 88.08 c 0,0.68 0.90,-1.13 1.35,0.91 l 21.88,12.57 c 0.68,0.45 0.90,0.91 0.90,1.58 v 22.75 c 0.23,0.91 0.45,1.58 -1.13,1.13 z"/><path style="opacity:.1;fill:#fff" d="M 96.43 16.01 A 18.26 18.19 0 0 0 86.87 18.43 L 33.13 49.34 A 18.26 18.19 0 0 0 24 65.09 L 24 66.09 A 18.26 18.19 0 0 1 33.13 50.34 L 86.87 19.43 A 18.26 18.19 0 0 1 96.43 17.01 L 96.43 17.01 A 18.26 18.19 0 0 1 105.13 19.43 L 158.87 50.34 A 18.26 18.19 0 0 1 168 66.09 L 168 65.09 A 18.26 18.19 0 0 0 158.87 49.34 L 105.13 18.43 A 18.26 18.19 0 0 0 96.43 16.01 L 96.43 16.01 z"/><path style="filter:url(#filter876);opacity:.2" d="m 100,43.66 v 19.47 l 17.51,9.96 c 0.68,0.45 0.68,1.36 0,1.58 L 97.13,86.45 c 0.68,0.45 -1.36,0.23 -1.81,0 L 74.94,74.68 c 0.68,0.23 0.68,-1.36 0,-1.58 L 92,63.13 v -19.47 L 48,69.02 96,96.87 144,69.02 Z"/><path style="fill:#fff" d="m 100,41.66 v 19.47 l 17.51,9.96 c 0.68,0.45 0.68,1.36 0,1.58 L 97.13,84.45 c 0.68,0.45 -1.36,0.23 -1.81,0 L 74.94,72.68 c 0.68,0.23 0.68,-1.36 0,-1.58 L 92,61.13 v -19.47 L 48,67.02 96,94.87 144,67.02 Z"/></svg>