<?xml version='1.0' encoding='utf-8'?>
<svg xmlns="http://www.w3.org/2000/svg" width="192" height="192" version="1.1" id="svg20">
  <defs>
    <filter style="color-interpolation-filters:sRGB" id="filter861" x="0.05" y="0.05" width="1.10" height="1.10">
      <feGaussianBlur stdDeviation="3.20"/>
    </filter>
    <filter style="color-interpolation-filters:sRGB" id="filter883" x="0.04" y="0.05" width="1.09" height="1.11">
      <feGaussianBlur stdDeviation="2.13"/>
    </filter>
    <filter style="color-interpolation-filters:sRGB" id="filter887" x="0.05" y="0.05" width="1.10" height="1.10">
      <feGaussianBlur stdDeviation="0.24"/>
    </filter>
  </defs>
  <rect style="filter:url(#filter861);opacity:0.20" width="160" height="160" x="16" y="20" rx="16" ry="16"/>
  <rect style="fill:#e4e4e4" width="160" height="160" x="16" y="16" rx="16" ry="16"/>
  <path style="filter:url(#filter883);opacity:0.20" d="m 71.26,50.00 c -28.48,0.40 -50.18,30.79 -22.36,58.18 l 7.41,18.80 c 1.23,4.29 -2.95,13.74 -1.09,16.38 2.13,-4.05 2.67,-9.84 5.48,-10.52 4.95,3.37 12.27,4.51 16.41,8.85 1.55,-4.21 -4.73,-6.36 -9.98,-8.77 4.91,0.79 8.31,-1.78 11.95,2.34 0.53,-2.09 0.13,-3.68 -1.55,-4.98 l -2.23,-2.91 c 4.11,2.10 14.33,2.09 16.68,5.77 0.91,-6.97 -7.69,-4.59 -11.74,-6.67 2.63,0.31 5.24,0.94 7.84,0.59 0.70,-1.95 -1.89,-2.80 -3.66,-2.66 -13.95,3.20 -14.94,-19.49 -14.74,-25.93 4.53,-1.85 9.01,-3.27 13.40,-3.30 13.75,0.10 26.69,6.19 38.11,-3.80 4.93,-7.09 26.49,11.44 32.77,27.13 9.37,-3.82 -18.56,-28.75 -26.33,-35.49 3.33,-8.52 -6.72,-19.61 -18.32,-19.84 -2.53,0.05 -5.14,0.23 -7.70,1.42 C 91.55,54.24 81.56,49.85 71.26,50.00 Z m 52.74,52.00 a 20,20 0 0 0 -20,20 20,20 0 0 0 20,20 20,20 0 0 0 20,-20 20,20 0 0 0 -20,-20 z m -60.30,4.32 c 1.37,0.03 2.46,0.69 2.68,2.16 l 3.03,13.93 c -1.63,0.45 -2.34,2.03 -2.02,4.87 0.69,0.79 0.98,-2.14 2.57,-1.70 l 3.75,4.65 c -12.76,0.96 -13.74,-5.98 -15.95,-17.46 0.67,-4.26 3.67,-6.40 5.95,-6.45 z"/>
  <circle style="fill:#343434" cx="124" cy="120" r="20"/>
  <path style="fill:#343434" d="M 71.26,48 C 42.78,48.40 21.08,78.79 48.90,106.18 l 7.41,18.80 C 57.55,129.27 53.37,138.73 55.22,141.37 c 2.13,-4.05 2.67,-9.85 5.48,-10.52 4.95,3.37 12.27,4.51 16.41,8.85 1.55,-4.21 -4.73,-6.36 -9.98,-8.77 4.91,0.79 8.31,-1.77 11.95,2.35 0.53,-2.09 0.14,-3.68 -1.56,-4.97 l -2.22,-2.92 c 4.11,2.10 14.33,2.09 16.67,5.77 C 92.88,124.19 84.29,126.57 80.23,124.49 82.86,124.80 85.48,123.54 88.08,123.89 c 0.70,-1.95 -1.89,-2.80 -3.67,-2.65 C 70.46,124.43 69.48,101.74 69.67,95.30 74.21,93.45 78.68,92.03 83.07,92 96.82,91.90 109.76,98.19 121.18,88.20 c 4.93,-7.09 26.49,11.44 32.77,27.13 C 163.32,111.51 135.38,86.59 127.61,79.84 130.95,71.32 120.90,60.24 109.29,60 106.76,59.95 104.15,60.22 101.59,61.42 91.55,52.23 81.56,47.85 71.26,48 Z m -7.56,56.32 c 1.37,0.03 2.47,0.69 2.69,2.16 l 3.03,13.93 c -1.63,0.45 -2.34,2.03 -2.02,4.87 0.69,0.79 0.97,-2.13 2.57,-1.70 l 3.75,4.65 c -12.76,0.96 -13.74,-5.98 -15.95,-17.46 0.67,-4.26 3.67,-6.40 5.94,-6.45 z"/>
  <path style="filter:url(#filter887);opacity:0.20" d="M 120.00,75.00 A 6.07,5.94 0 0 1 114.00,81 6.07,5.94 0 0 1 108.00,75.00 C 108.00,71.68 110.69,69 114.00,69 c 3.32,0 6.00,2.68 6.00,5.99 z"/>
  <path style="fill:#ffffff" d="M 120.00,74.00 A 6.07,5.94 0 0 1 114.00,80 6.07,5.94 0 0 1 108.00,74.00 C 108.00,70.68 110.69,68 114.00,68 c 3.32,0 6.00,2.68 6.00,5.99 z"/>
  <path style="fill:#343434" d="M 120.00,76.00 A 4.04,3.95 0 0 1 115.99,80 4.04,3.95 0 0 1 112.00,76.00 c 0,-2.21 1.79,-4.00 3.99,-4.00 2.21,0 4.01,1.80 4.01,4.00 z"/>
  <path style="opacity:0.20;fill:#ffffff" d="M 32 16 C 23.14 16 16 23.14 16 32 L 16 33 C 16 24.14 23.14 17 32 17 L 160 17 C 168.86 17 176 24.14 176 33 L 176 32 C 176 23.14 168.86 16 160 16 L 32 16 z "/>
</svg>
