<?xml version='1.0' encoding='utf-8'?>
<svg xmlns="http://www.w3.org/2000/svg" width="192" height="192" version="1.1" id="svg12">
  <defs>
    <filter style="color-interpolation-filters:sRGB" id="filter862" x="0.05" width="1.10" y="0.05" height="1.09">
      <feGaussianBlur stdDeviation="1.28"/>
    </filter>
    <filter style="color-interpolation-filters:sRGB" id="filter878" x="0.05" width="1.10" y="0.05" height="1.10">
      <feGaussianBlur stdDeviation="3.44"/>
    </filter>
  </defs>
  <path d="m 90.20,14.00 a 6.00,6.00 0 0 0 -4.16,1.76 L 43.19,58.62 a 6.00,6.00 0 0 0 0,8.48 l 1.47,1.47 -32.90,32.90 a 6.00,6.00 0 0 0 0,8.48 l 42.86,42.86 a 6.00,6.00 0 0 0 8.48,0 l 1.47,-1.47 32.90,32.90 a 6.00,6.00 0 0 0 8.48,0 l 42.86,-42.86 a 6.00,6.00 0 0 0 0,-8.48 l -1.47,-1.47 32.90,-32.90 a 6.00,6.00 0 0 0 0,-8.48 L 137.38,47.19 a 6.00,6.00 0 0 0 -8.48,0 l -1.47,1.47 -32.90,-32.90 a 6.00,6.00 0 0 0 -4.33,-1.76 z" style="filter:url(#filter878);opacity:0.20;fill:#000000"/>
  <path style="fill:#52b54a" d="M 90.20,10.00 A 6.00,6.00 0 0 0 86.05,11.76 L 43.19,54.62 a 6.00,6.00 0 0 0 0,8.48 L 44.66,64.57 11.76,97.47 a 6.00,6.00 0 0 0 0,8.48 l 42.86,42.86 a 6.00,6.00 0 0 0 8.48,0 l 1.47,-1.47 32.90,32.90 a 6.00,6.00 0 0 0 8.48,0 l 42.86,-42.86 a 6.00,6.00 0 0 0 0,-8.48 l -1.47,-1.47 32.90,-32.90 a 6.00,6.00 0 0 0 0,-8.48 L 137.38,43.19 a 6.00,6.00 0 0 0 -8.48,0 L 127.43,44.66 94.53,11.76 a 6.00,6.00 0 0 0 -4.33,-1.76 z"/>
  <path d="M 135,98.00 75,132 V 64.00 Z" style="filter:url(#filter862);opacity:0.20;fill:#000000"/>
  <path style="fill:#ffffff" d="M 135,96 75,130 V 62 Z"/>
  <path style="opacity:0.20;fill:#ffffff" d="M 90.20 10.00 A 6.00 6.00 0 0 0 86.05 11.76 L 43.19 54.62 A 6.00 6.00 0 0 0 41.46 59.32 A 6.00 6.00 0 0 1 43.19 55.62 L 86.05 12.76 A 6.00 6.00 0 0 1 90.20 11 A 6.00 6.00 0 0 1 94.53 12.76 L 127.43 45.66 L 128.90 44.19 A 6.00 6.00 0 0 1 137.38 44.19 L 180.24 87.05 A 6.00 6.00 0 0 1 181.97 90.82 A 6.00 6.00 0 0 0 180.24 86.05 L 137.38 43.19 A 6.00 6.00 0 0 0 128.90 43.19 L 127.43 44.66 L 94.53 11.76 A 6.00 6.00 0 0 0 90.20 10.00 z M 44.16 65.07 L 11.76 97.47 A 6.00 6.00 0 0 0 10.03 102.18 A 6.00 6.00 0 0 1 11.76 98.47 L 44.66 65.57 L 44.16 65.07 z M 147.84 127.93 L 147.34 128.43 L 148.81 129.90 A 6.00 6.00 0 0 1 150.54 133.68 A 6.00 6.00 0 0 0 148.81 128.90 L 147.84 127.93 z "/>
</svg>
