<?xml version='1.0' encoding='utf-8'?>
<svg xmlns="http://www.w3.org/2000/svg" width="192" height="192" version="1.1" id="svg14">
  <defs>
    <filter style="color-interpolation-filters:sRGB" id="filter860" x="0.05" width="1.10" y="0.05" height="1.10">
      <feGaussianBlur stdDeviation="1.60"/>
    </filter>
    <filter style="color-interpolation-filters:sRGB" id="filter880" x="0.05" width="1.11" y="0.04" height="1.09">
      <feGaussianBlur stdDeviation="2.88"/>
    </filter>
  </defs>
  <rect style="filter:url(#filter880);opacity:0.20" width="128" height="160" x="32" y="20" rx="8" ry="8"/>
  <rect style="fill:#0b88de" width="128" height="160" x="32" y="16" rx="8" ry="8"/>
  <path style="opacity:0.25;fill:#ffffff" d="m 40,16 c -4.43,0 -8,3.57 -8,8 v 144 c 0,4.43 3.57,8 8,8 H 56 V 16 Z"/>
  <path style="opacity:0.20;fill:#ffffff" d="M 40 16 C 35.57 16 32 19.57 32 24 L 32 25 C 32 20.57 35.57 17 40 17 L 152 17 C 156.43 17 160 20.57 160 25 L 160 24 C 160 19.57 156.43 16 152 16 L 40 16 z "/>
  <circle style="filter:url(#filter860);opacity:0.10;vector-effect:none;paint-order:stroke fill markers" cx="108" cy="100" r="40"/>
  <circle style="fill:#b42727;vector-effect:none;paint-order:stroke fill markers" cx="108" cy="96" r="40"/>
  <circle style="fill:#ffffff;vector-effect:none;paint-order:stroke fill markers" cx="108" cy="96" r="32"/>
  <path style="fill:#3f3f3f;vector-effect:none;paint-order:stroke fill markers" d="m 104,72 v 8 H 88 v 8 h 12 16 12 v -8 h -16 v -8 z m 12,16 -8,20 h -8 -12 v 8 h 40 v -8 H 117.60 L 124,92 Z m -16,20 8,-4 -8,-16 -8,4 z"/>
</svg>
