<?xml version='1.0' encoding='utf-8'?>
<svg xmlns="http://www.w3.org/2000/svg" width="192" height="192" version="1" id="svg14">
  <defs>
    <filter style="color-interpolation-filters:sRGB" id="filter850" x="0.05" width="1.10" y="0.05" height="1.10">
      <feGaussianBlur stdDeviation="3.20"/>
    </filter>
    <filter style="color-interpolation-filters:sRGB" id="filter8070" x="0.10" y="0.12" width="1.20" height="1.24">
      <feGaussianBlur stdDeviation="4.91"/>
    </filter>
  </defs>
  <circle style="filter:url(#filter850);opacity:0.20;fill:#000000" cx="96" cy="100" r="80"/>
  <circle r="80" cy="96" cx="96" style="fill:#00a991"/>
  <path style="filter:url(#filter8070);opacity:0.20;fill:#000000;color:#000000" d="M 96.35,47.98 C 90.76,47.96 85.10,48.59 79.52,49.92 54.03,55.97 35.88,75.51 36,98.22 c 0.12,22.71 18.47,42.11 44.02,47.98 25.55,5.87 52.72,-2.72 66.93,-21.77 a 4,4 0 0 0 0.81,-5.60 4,4 0 0 0 -5.60,0.81 c -11.94,16.00 -36.08,23.96 -58.73,18.76 C 59.16,133.20 44.10,116.58 44,98.18 43.90,79.78 58.78,63.07 81.37,57.70 c 22.59,-5.37 46.82,2.42 58.94,18.34 a 4,4 0 0 0 5.61,0.76 4,4 0 0 0 0.76,-5.61 C 135.87,56.99 117.84,48.72 98.74,48.03 c 0.80,0.03 -1.59,0.04 -2.39,0.05 z M 84,78.00 a 4,4 0 0 0 -4,4 v 32.00 a 4,4 0 0 0 4,4 4,4 0 0 0 4,-4 V 82.00 a 4,4 0 0 0 -4,-4 z m 25,0 a 4,4 0 0 0 -2.83,1.17 l -16.00,16 a 4.00,4.00 0 0 0 0,5.66 l 16.00,16 a 4,4 0 0 0 5.66,0 4,4 0 0 0 0,-5.66 L 98.66,98.00 111.83,84.83 a 4,4 0 0 0 0,-5.66 A 4,4 0 0 0 109,78.00 Z m 41,16 a 4,4 0 0 0 -4,4 4,4 0 0 0 4,4.00 4,4 0 0 0 4,-4.00 4,4 0 0 0 -4,-4 z"/>
  <path style="fill:#38adfa" d="m 688.81,257.00 c 0.33,0.33 -1.19,0.37 -1.92,0.08 0.80,0.32 0.56,0.56 0.60,0.60 1.05,0.04 1.64,0.19 1.31,0.53 z"/>
  <path style="opacity:0.20;fill:#ffffff" d="M 96 16 A 80 80 0 0 0 16 96 A 80 80 0 0 0 16.02 96.47 A 80 80 0 0 1 96 17 A 80 80 0 0 1 175.97 96.51 A 80 80 0 0 0 176 96 A 80 80 0 0 0 96 16 z "/>
  <path style="fill:#ffffff;color:#000000" d="M 96.35 45.98 C 90.76 45.96 85.10 46.59 79.52 47.92 C 54.03 53.97 35.88 73.51 36 96.22 C 36.12 118.94 54.47 138.33 80.02 144.20 C 105.58 150.07 132.74 141.48 146.95 122.43 A 4 4 0 0 0 146.14 116.83 A 4 4 0 0 0 140.54 117.64 C 128.60 133.65 104.47 141.61 81.81 136.40 C 59.16 131.20 44.10 114.58 44 96.18 C 43.90 77.77 58.78 61.07 81.37 55.70 C 103.96 50.34 128.19 58.12 140.31 74.04 A 4 4 0 0 0 145.91 74.81 A 4 4 0 0 0 146.67 69.20 C 135.87 54.99 117.84 46.72 98.74 46.03 C 97.95 46.00 97.15 45.98 96.35 45.98 z M 84 76 A 4 4 0 0 0 80 80 L 80 112 A 4 4 0 0 0 84 116 A 4 4 0 0 0 88 112 L 88 80 A 4 4 0 0 0 84 76 z M 109 76 A 4 4 0 0 0 106.17 77.17 L 90.17 93.17 A 4.00 4.00 0 0 0 90.17 98.83 L 106.17 114.83 A 4 4 0 0 0 111.83 114.83 A 4 4 0 0 0 111.83 109.17 L 98.66 96 L 111.83 82.83 A 4 4 0 0 0 111.83 77.17 A 4 4 0 0 0 109 76 z M 150 92 A 4 4 0 0 0 146 96 A 4 4 0 0 0 150 100 A 4 4 0 0 0 154 96 A 4 4 0 0 0 150 92 z "/>
</svg>
