<?xml version='1.0' encoding='utf-8'?>
<svg xmlns="http://www.w3.org/2000/svg" width="192" height="192" version="1.1" id="svg5">
  <defs>
    <filter id="filter860" style="color-interpolation-filters:sRGB" width="1.10" height="1.10" x="0.05" y="0.05">
      <feGaussianBlur stdDeviation="3.20"/>
    </filter>
    <filter id="filter876" style="color-interpolation-filters:sRGB" width="1.10" height="1.09" x="0.05" y="0.04">
      <feGaussianBlur stdDeviation="1.92"/>
    </filter>
    <filter id="filter2918" style="color-interpolation-filters:sRGB" width="1.10" height="1.10" x="0.05" y="0.05">
      <feGaussianBlur stdDeviation="1.76"/>
    </filter>
  </defs>
  <circle style="filter:url(#filter860);opacity:0.20" cx="96" cy="100" r="80"/>
  <circle style="fill:#3f3f3f" cx="96" cy="96" r="80"/>
  <path style="filter:url(#filter876);opacity:0.20" d="M 100,47.00 V 119 c 0,8.84 -7.16,16 -16,16 -8.84,0 -16,-7.16 -16,-16 0,-8.84 7.16,-16 16,-16 1.35,0.01 2.69,0.19 4,0.53 V 87.29 c -1.33,0.18 -2.66,0.28 -4,0.29 -17.67,0 -32,14.33 -32,32.00 0,17.67 14.33,32 32,32 17.67,0 32,-14.33 32,-32 V 82.23 c 6.87,4.71 15.05,8.77 24,8.77 V 75.70 71.91 c -4.66,0.00 -9.10,-1.30 -13.05,-3.77 v 0.01 C 121.58,64.80 117.60,59.44 116,53.14 l -1.20,-6.14 z"/>
  <path style="fill:#ffffff" d="m 100,44 v 72 c 0,8.84 -7.16,16 -16,16 -8.84,0 -16,-7.16 -16,-16 0,-8.84 7.16,-16 16,-16 1.35,0.01 2.69,0.19 4,0.53 V 84.29 C 86.67,84.11 85.34,84.01 84,84 66.33,84 52,98.33 52,116 c 0,17.67 14.33,32 32,32 17.67,0 32,-14.33 32,-32 V 79.23 C 122.87,83.94 131.05,88 140,88 V 72.70 68.91 c -4.66,0.00 -9.10,-1.30 -13.05,-3.77 v 0.01 C 121.58,61.80 117.60,56.44 116,50.14 L 114.80,44 Z"/>
  <path style="opacity:0.10;fill:#ffffff" d="M 96,16 A 80,80 0 0 0 16,96 80,80 0 0 0 16.02,96.49 80,80 0 0 1 96,17 80,80 0 0 1 175.97,96.49 80,80 0 0 0 176,96 80,80 0 0 0 96,16 Z"/>
  <circle style="filter:url(#filter2918);opacity:0.20" cx="144" cy="142" r="44"/>
  <circle style="fill:#b834fd" cx="144" cy="140" r="44"/>
  <path fill="#ffffff" d="m 152,112 v 20.21 h 10.50 l -18.50,27.78 -18.50,-28 H 136 v -20 h 16 z m -28,48 h 40 v 8 h -40 z"/>
</svg>
