<?xml version='1.0' encoding='utf-8'?>
<svg xmlns="http://www.w3.org/2000/svg" width="192" height="192" version="1.1" id="svg18">
  <defs>
    <filter style="color-interpolation-filters:sRGB" id="filter857" x="0.05" width="1.10" y="0.05" height="1.10">
      <feGaussianBlur stdDeviation="3.20"/>
    </filter>
    <filter style="color-interpolation-filters:sRGB" id="filter876" x="0.05" width="1.10" y="0.05" height="1.10">
      <feGaussianBlur stdDeviation="0.64"/>
    </filter>
  </defs>
  <circle r="80" cy="100" cx="96" style="filter:url(#filter857);opacity:0.20"/>
  <circle r="80" cy="96" cx="96" style="fill:#d2d2d2"/>
  <path style="opacity:0.20;fill:#ffffff" d="M 96 16 A 80 80 0 0 0 16 96 A 80 80 0 0 0 16.02 96.47 A 80 80 0 0 1 96 17 A 80 80 0 0 1 175.97 96.51 A 80 80 0 0 0 176 96 A 80 80 0 0 0 96 16 z "/>
  <path d="M 96,40 A 56,56 0 0 0 40,96 56,56 0 0 0 96,152 56,56 0 0 0 152,96 56,56 0 0 0 96,40 Z m 0,8 A 48,48 0 0 1 144,96 48,48 0 0 1 96,144 48,48 0 0 1 48,96 48,48 0 0 1 96,48 Z" style="fill:#3d7dd9"/>
  <circle r="16" cy="66" cx="136" style="filter:url(#filter876);opacity:0.10"/>
  <circle r="16" cy="64" cx="136" style="fill:#2155a2"/>
  <path d="M 96,68 A 28,28 0 0 0 68,96 28,28 0 0 0 96,124 28,28 0 0 0 124,96 28,28 0 0 0 96,68 Z m 0,8 A 20,20 0 0 1 116,96 20,20 0 0 1 96,116 20,20 0 0 1 76,96 20,20 0 0 1 96,76 Z" style="fill:#3d7dd9"/>
</svg>
