<?xml version='1.0' encoding='utf-8'?>
<svg xmlns="http://www.w3.org/2000/svg" width="192" height="192" version="1" id="svg12">
  <defs>
    <filter style="color-interpolation-filters:sRGB" id="filter955" x="0.05" width="1.10" y="0.05" height="1.10">
      <feGaussianBlur stdDeviation="3.20"/>
    </filter>
    <filter style="color-interpolation-filters:sRGB" id="filter8037" x="0.10" y="0.11" width="1.20" height="1.23">
      <feGaussianBlur stdDeviation="4.16"/>
    </filter>
  </defs>
  <rect style="filter:url(#filter955);opacity:0.20;fill:#000000" width="160" height="160" x="16" y="20" rx="30" ry="30"/>
  <rect style="fill:#e837aa" width="160" height="160" x="16" y="16" rx="30" ry="30"/>
  <path style="opacity:0.20;fill:#ffffff" d="M 46 16 C 29.38 16 16 29.38 16 46 L 16 47 C 16 30.38 29.38 17 46 17 L 146 17 C 162.62 17 176 30.38 176 47 L 176 46 C 176 29.38 162.62 16 146 16 L 46 16 z "/>
  <path style="filter:url(#filter8037);opacity:0.20;fill:#000000;color:#000000" d="m 48,54 v 73 c 0,3.69 0.07,7.37 2.81,10.34 C 53.55,140.30 57.60,141 63,141 h 39 v -8 H 63 c -4.60,0 -6.05,0.80 -6.31,-1.09 C 56.43,131.63 56,130.31 56,127 V 54 Z m 11,0 v 67 c 0,1.25 0.02,2.24 0.10,3.33 0.12,1.09 0.44,2.62 1.69,3.87 1.26,1.26 2.78,1.57 3.87,1.69 C 65.76,130.02 66.75,130 68,130 h 34 v -8 H 68 c 0.50,0 0.61,0.02 0.98,0.02 C 67.02,121.61 67,121.50 67,121 V 54 Z m 11.00,0 v 56.00 c 0,1.25 0.02,2.24 0.10,3.33 0.12,1.09 0.44,2.62 1.69,3.87 1.26,1.26 2.78,1.57 3.87,1.69 1.09,0.12 2.08,0.10 3.33,0.10 H 102 v -8 H 79.00 c 0.50,0 0.61,0.02 0.98,0.02 0.01,0.37 0.02,0.48 0.02,0.98 V 54 Z m 11,0 v 45.00 c 0,1.25 0.02,2.24 0.10,3.33 0.12,1.09 0.44,2.62 1.69,3.87 1.26,1.26 2.78,1.57 3.87,1.69 1.09,0.12 2.08,0.10 3.33,0.10 H 102 V 100.00 H 90.00 c 0.50,0 0.61,0.02 0.98,0.02 0.01,0.37 0.02,0.48 0.02,0.98 V 54 Z M 92,54 v 8 h 39 c 4.60,0 6.05,0.80 6.31,1.09 C 137.57,63.37 138,64.69 138,68 v 73 h 8 V 68 c 0,-3.69 0.07,-7.37 -2.81,-10.34 C 140.45,54.70 136.40,54 131,54 Z m 0,11 v 8 h 34 c 0.50,0 0.61,0.02 0.98,0.02 C 126.98,73.39 127,73.50 127,74 v 67 h 8 V 74 c 0,-1.25 0.02,-2.24 0.10,-3.33 0.12,-1.09 0.44,-2.62 -1.69,-3.87 -1.26,-1.26 -2.78,-1.57 -3.87,-1.69 C 128.24,64.98 127.25,65 126,65 Z m 0,11.00 v 8 h 23.00 c 0.50,0 0.61,0.02 0.98,0.02 0.01,0.37 0.02,0.48 0.02,0.98 V 141 h 8 V 85.00 c 0,-1.25 0.02,-2.24 0.10,-3.33 0.12,-1.09 0.44,-2.62 -1.69,-3.87 -1.26,-1.26 -2.78,-1.57 -3.87,-1.69 -1.09,0.12 -2.08,0.10 -3.33,0.10 z m 0,11 v 8 h 12.00 c 0.50,0 0.61,0.02 0.98,0.02 0.01,0.37 0.02,0.48 0.02,0.98 V 141 h 8 V 96.00 c 0,-1.25 0.02,-2.24 0.10,-3.33 0.12,-1.09 0.44,-2.62 -1.69,-3.87 -1.26,-1.26 -2.78,-1.57 -3.87,-1.69 -1.09,0.12 -2.08,0.10 -3.33,0.10 z"/>
  <path style="fill:#ffffff;color:#000000" d="M 48 52 L 48 125 C 48 128.69 48.07 132.37 50.81 135.34 C 53.55 138.30 57.60 139 63 139 L 102 139 L 102 131 L 63 131 C 58.40 131 56.95 130.20 56.69 129.91 C 56.43 129.63 56 128.31 56 125 L 56 52 L 48 52 z M 59 52 L 59 119 C 59 120.25 58.98 121.24 59.10 122.33 C 59.22 123.42 59.54 124.95 60.80 126.20 C 62.05 127.46 63.58 127.78 64.67 127.90 C 65.76 128.02 66.75 128 68 128 L 102 128 L 102 120 L 68 120 C 67.50 120 67.39 119.98 67.02 119.98 C 67.02 119.61 67 119.50 67 119 L 67 52 L 59 52 z M 70.00 52 L 70.00 108.00 C 70.00 109.25 69.98 110.24 70.10 111.33 C 70.22 112.42 70.54 113.95 71.80 115.20 C 73.05 116.46 74.58 116.78 75.67 116.90 C 76.76 117.02 77.75 117.00 79.00 117.00 L 102 117.00 L 102 109.00 L 79.00 109.00 C 78.50 109.00 78.39 108.98 78.02 108.98 C 78.02 108.61 78.00 108.50 78.00 108.00 L 78.00 52 L 70.00 52 z M 81.00 52 L 81.00 97.00 C 81.00 98.25 80.98 99.24 81.10 100.33 C 81.22 101.42 81.54 102.95 82.80 104.20 C 84.05 105.46 85.58 105.78 86.67 105.90 C 87.76 106.02 88.75 106.00 90.00 106.00 L 102 106.00 L 102 98.00 L 90.00 98.00 C 89.50 98.00 89.39 97.98 89.02 97.98 C 89.02 97.61 89.00 97.50 89.00 97.00 L 89.00 52 L 81.00 52 z M 92 52 L 92 60 L 131 60 C 135.60 60 137.05 60.80 137.31 61.09 C 137.57 61.37 138 62.69 138 66 L 138 139 L 146 139 L 146 66 C 146 62.31 145.93 58.63 143.19 55.66 C 140.45 52.70 136.40 52 131 52 L 92 52 z M 92 63 L 92 71 L 126 71 C 126.50 71 126.61 71.02 126.98 71.02 C 126.98 71.39 127 71.50 127 72 L 127 139 L 135 139 L 135 72 C 135 70.75 135.02 69.76 134.90 68.67 C 134.78 67.58 134.46 66.05 133.20 64.80 C 131.95 63.54 130.42 63.22 129.33 63.10 C 128.24 62.98 127.25 63 126 63 L 92 63 z M 92 74.00 L 92 82.00 L 115.00 82.00 C 115.50 82.00 115.61 82.02 115.98 82.02 C 115.98 82.39 116.00 82.50 116.00 83.00 L 116.00 139 L 124.00 139 L 124.00 83.00 C 124.00 81.75 124.02 80.76 123.90 79.67 C 123.78 78.58 123.46 77.05 122.20 75.80 C 120.95 74.54 119.42 74.22 118.33 74.10 C 117.24 73.98 116.25 74.00 115.00 74.00 L 92 74.00 z M 92 85.00 L 92 93.00 L 104.00 93.00 C 104.50 93.00 104.61 93.02 104.98 93.02 C 104.98 93.39 105.00 93.50 105.00 94.00 L 105.00 139 L 113.00 139 L 113.00 94.00 C 113.00 92.75 113.02 91.76 112.90 90.67 C 112.78 89.58 112.46 88.05 111.20 86.80 C 109.95 85.54 108.42 85.22 107.33 85.10 C 106.24 84.98 105.25 85.00 104.00 85.00 L 92 85.00 z "/>
</svg>
