<?xml version='1.0' encoding='utf-8'?>
<svg xmlns="http://www.w3.org/2000/svg" width="192" height="192" version="1" id="svg14">
  <defs>
    <filter style="color-interpolation-filters:sRGB" id="filter850" x="0.05" width="1.10" y="0.05" height="1.10">
      <feGaussianBlur stdDeviation="3.20"/>
    </filter>
    <filter style="color-interpolation-filters:sRGB" id="filter3595" x="0.07" y="0.32" width="1.13" height="1.63">
      <feGaussianBlur stdDeviation="2.66"/>
    </filter>
    <filter style="color-interpolation-filters:sRGB" id="filter3599" x="0.05" y="0.05" width="1.09" height="1.10">
      <feGaussianBlur stdDeviation="1.81"/>
    </filter>
  </defs>
  <circle style="filter:url(#filter850);opacity:0.20;fill:#000000" cx="96" cy="100" r="80"/>
  <circle r="80" cy="96" cx="96" style="fill:#3f3f3f"/>
  <path style="filter:url(#filter3595);opacity:0.20;fill:#000000" d="M 43.76,136.78 C 66.26,120.49 103.25,117.35 141.65,116.65 l -6.38,13.40 c -35.35,-4.93 -64.84,0.10 -91.52,6.73 z"/>
  <path style="opacity:0.10;fill:#ffffff" d="M 96 16 A 80 80 0 0 0 16 96 A 80 80 0 0 0 16.02 96.47 A 80 80 0 0 1 96 17 A 80 80 0 0 1 175.97 96.51 A 80 80 0 0 0 176 96 A 80 80 0 0 0 96 16 z "/>
  <path style="fill:#e93e40" d="m 43.76,134.78 c 22.51,-16.29 59.49,-19.43 97.90,-20.13 l -6.38,13.40 c -35.35,-4.93 -64.84,0.10 -91.52,6.73 z"/>
  <path style="filter:url(#filter3599);opacity:0.20;fill:#000000" d="M 56.70,55.23 82.12,105.89 97,70.06 111.88,105.89 137.30,55.23 111.47,86.38 97,55.96 82.53,86.38 Z M 49.36,55.71 82.41,140.82 97,109.43 111.59,140.82 144.64,55.71 111.18,121.31 97,88.61 82.82,121.31 Z"/>
  <path style="fill:#ffffff" d="M 56.70 53.23 L 82.12 103.89 L 97 68.06 L 111.88 103.89 L 137.30 53.23 L 111.47 84.38 L 97 53.96 L 82.53 84.38 L 56.70 53.23 z M 49.36 53.71 L 82.41 138.82 L 97 107.43 L 111.59 138.82 L 144.64 53.71 L 111.18 119.31 L 97 86.61 L 82.82 119.31 L 49.36 53.71 z "/>
</svg>
