<?xml version='1.0' encoding='utf-8'?>
<svg xmlns="http://www.w3.org/2000/svg" width="192" height="192" version="1" id="svg14">
  <defs>
    <filter style="color-interpolation-filters:sRGB" id="filter848" x="-0.048000001" width="1.096" y="-0.048000001" height="1.096">
      <feGaussianBlur stdDeviation="3.2"/>
    </filter>
    <filter style="color-interpolation-filters:sRGB" id="filter864" x="-0.0528" width="1.1056" y="-0.044" height="1.088">
      <feGaussianBlur stdDeviation="1.76"/>
    </filter>
  </defs>
  <rect transform="matrix(0,-1,-1,0,0,0)" ry="8" rx="8" y="-176" x="-180" height="160" width="160" style="filter:url(#filter848);opacity:0.2"/>
  <rect transform="matrix(0,-1,-1,0,0,0)" ry="8" rx="8" y="-176" x="-176" height="160" width="160" style="fill:#7548c5"/>
  <path style="opacity:0.1;fill:#ffffff" d="M 24 16 C 19.568 16 16 19.568 16 24 L 16 25 C 16 20.568 19.568 17 24 17 L 168 17 C 172.432 17 176 20.568 176 25 L 176 24 C 176 19.568 172.432 16 168 16 L 24 16 z "/>
  <path d="M 96,50 C 79.99968,50 68,58.000292 68,78 V 90 H 62.664064 C 58.970656,90 56,92.997988 56,96.796876 V 139.14062 C 56,142.93951 58.970656,146 62.664064,146 H 129.33594 C 133.02934,146 136,142.93951 136,139.14062 V 96.796876 C 136,92.997988 133.02934,90 129.33594,90 H 124 V 78 C 124,58.045548 112.00032,50.023436 96,50.023436 Z m 0,12 c 8.00016,0 16,4.000108 16,16 V 90 H 80 V 78 C 80,65.9999 87.99984,62 96,62 Z m 0,44 a 12,12 0 0 1 12,12 12,12 0 0 1 -12,12 12,12 0 0 1 -12,-12 12,12 0 0 1 12,-12 z" style="filter:url(#filter864);opacity:0.2"/>
  <path d="M 96,48 C 79.99968,48 68,56.000292 68,76 V 88 H 62.664064 C 58.970656,88 56,90.997988 56,94.796876 V 137.14062 C 56,140.93951 58.970656,144 62.664064,144 H 129.33594 C 133.02934,144 136,140.93951 136,137.14062 V 94.796876 C 136,90.997988 133.02934,88 129.33594,88 H 124 V 76 C 124,56.045548 112.00032,48.023436 96,48.023436 Z m 0,12 c 8.00016,0 16,4.000108 16,16 V 88 H 80 V 76 C 80,63.9999 87.99984,60 96,60 Z m 0,44 a 12,12 0 0 1 12,12 12,12 0 0 1 -12,12 12,12 0 0 1 -12,-12 12,12 0 0 1 12,-12 z" style="fill:#ffffff"/>
</svg>
