<?xml version='1.0' encoding='utf-8'?>
<svg xmlns="http://www.w3.org/2000/svg" width="192" height="192" version="1.1" id="svg12">
  <defs>
    <filter style="color-interpolation-filters:sRGB" id="filter1348" x="0.04" y="0.05" width="1.09" height="1.10">
      <feGaussianBlur stdDeviation="2.96"/>
    </filter>
    <filter style="color-interpolation-filters:sRGB" id="filter12480" x="0.05" y="0.18" width="1.09" height="1.37">
      <feGaussianBlur stdDeviation="3.23"/>
    </filter>
  </defs>
  <path style="filter:url(#filter1348);opacity:0.20;fill:#000000" d="M 61.80,32 C 36.44,32.23 16,52.74 16,77.97 16,88.92 18.94,99.58 26.27,106.86 L 96,168 164.42,108.41 C 171.96,100.91 176,89.64 176,77.97 176,52.58 155.31,32 129.79,32 116.98,32 104.74,37.29 96,46.60 87.26,37.29 75.02,32 62.21,32 c 0.14,0 0.28,0 0.42,0 z m 0,0"/>
  <path style="fill:#ff7420" d="M 61.80 28 C 36.44 28.23 16 48.74 16 73.97 C 16 84.92 18.94 95.57 26.27 102.86 L 96 164 L 164.42 104.41 C 171.96 96.91 176 85.64 176 73.97 C 176 48.58 155.31 28 129.79 28 C 116.98 28 104.74 33.29 96 42.61 C 87.26 33.29 75.02 28 62.21 28 L 61.80 28 z "/>
  <path style="opacity:0.20;fill:#ffffff" d="M 61.80 28 C 36.44 28.23 16 48.74 16 73.97 C 16 74.11 16.01 74.25 16.01 74.39 C 16.33 49.43 36.63 29.23 61.80 29 L 62.21 29 C 75.02 29 87.26 34.29 96 43.61 C 104.74 34.29 116.98 29 129.79 29 C 155.10 29 175.65 49.24 175.98 74.34 C 175.99 74.22 176 74.10 176 73.97 C 176 48.58 155.31 28 129.79 28 C 116.98 28 104.74 33.29 96 42.61 C 87.26 33.29 75.02 28 62.21 28 L 61.80 28 z "/>
  <path style="filter:url(#filter12480);opacity:0.20;fill:#000000;color:#000000" d="m 81.71,78.00 c -5.57,0 -10.09,2.96 -13.36,6.63 -3.27,3.67 -5.69,8.13 -8.04,12.37 -2.35,4.24 -4.64,8.27 -7.03,10.97 -2.39,2.70 -4.49,4.00 -7.41,4.03 -1.24,0.01 -2.56,0.54 -4.30,-1.92 -1.75,-1.38 -3.72,-3.50 -5.86,-5.79 C 31.41,99.72 26.03,94.00 18,94.00 a 4,4 0 0 0 -4,4.00 4,4 0 0 0 4,4.00 c 4.04,0 7.69,3.32 11.87,7.77 2.09,2.22 4.22,4.61 6.74,6.60 2.52,1.99 5.64,3.67 9.33,3.63 5.57,0.05 10.07,-3.04 13.33,-6.72 3.26,-3.69 5.68,-8.15 8.04,-12.39 2.35,-4.24 4.64,-8.26 7.03,-10.94 2.39,-2.68 4.47,-3.95 7.38,-3.95 2.88,0 5.11,1.01 7.69,2.95 2.58,1.94 5.28,4.82 8.42,7.91 6.28,6.17 14.83,13.15 28.38,13.15 H 175 a 4,4 0 0 0 4,-4 4,4 0 0 0 -4,-4.00 h -48.80 c -10.94,0 -16.83,-5.02 -22.77,-10.85 -2.97,-2.92 -5.82,-6.03 -9.22,-8.59 -3.40,-2.56 -7.57,-4.55 -12.50,-4.55 z"/>
  <path style="fill:#ffde3c;color:#000000" d="m 81.71,76.00 c -5.57,0 -10.09,2.96 -13.36,6.63 -3.27,3.67 -5.69,8.13 -8.04,12.37 -2.35,4.24 -4.64,8.27 -7.03,10.97 -2.39,2.70 -4.49,4.00 -7.41,4.03 -1.24,0.01 -2.56,0.54 -4.30,-1.92 -1.75,-1.38 -3.72,-3.50 -5.86,-5.79 C 31.41,97.72 26.03,92.00 18,92.00 a 4,4 0 0 0 -4,4.00 4,4 0 0 0 4,4 c 4.04,0 7.69,3.32 11.87,7.77 2.09,2.22 4.22,4.61 6.74,6.60 2.52,1.99 5.64,3.67 9.33,3.63 5.57,0.05 10.07,-3.04 13.33,-6.72 3.26,-3.69 5.68,-8.15 8.04,-12.39 2.35,-4.24 4.64,-8.26 7.03,-10.94 2.39,-2.68 4.47,-3.95 7.38,-3.95 2.88,0 5.11,1.01 7.69,2.95 2.58,1.94 5.28,4.82 8.42,7.91 6.28,6.17 14.83,13.15 28.38,13.15 H 175 a 4,4 0 0 0 4,-4 4,4 0 0 0 -4,-4.00 h -48.80 c -10.94,0 -16.83,-5.02 -22.77,-10.85 -2.97,-2.92 -5.82,-6.03 -9.22,-8.59 -3.40,-2.56 -7.57,-4.55 -12.50,-4.55 z"/>
  <path style="opacity:0.20;fill:#ffffff;color:#000000" d="M 81.71 76 C 76.13 76 71.62 78.96 68.35 82.63 C 65.08 86.30 62.66 90.76 60.31 95.00 C 57.95 99.25 55.66 103.27 53.27 105.97 C 50.88 108.68 48.78 109.97 45.87 110 C 44.63 110.01 43.31 109.46 41.56 108.08 C 39.81 106.70 37.85 104.58 35.70 102.29 C 31.41 97.72 26.03 92 18 92 A 4 4 0 0 0 14 96 A 4 4 0 0 0 14.13 96.50 A 4 4 0 0 1 18 93 C 26.03 93 31.41 98.72 35.70 103.29 C 37.85 105.58 39.81 107.70 41.56 109.08 C 43.31 110.46 44.63 111.01 45.87 111 C 48.78 110.97 50.88 109.68 53.27 106.97 C 55.66 104.27 57.95 100.25 60.31 96.00 C 62.66 91.76 65.08 87.30 68.35 83.63 C 71.62 79.96 76.13 77 81.71 77 C 86.63 77 90.80 78.99 94.21 81.55 C 97.61 84.12 100.46 87.23 103.43 90.15 C 109.36 95.98 115.26 101 126.20 101 L 175 101 A 4 4 0 0 1 178.87 104.50 A 4 4 0 0 0 179 104 A 4 4 0 0 0 175 100 L 126.20 100 C 115.26 100 109.36 94.98 103.43 89.15 C 100.46 86.23 97.61 83.12 94.21 80.55 C 90.80 77.99 86.63 76 81.71 76 z "/>
</svg>
