<?xml version='1.0' encoding='utf-8'?>
<svg xmlns="http://www.w3.org/2000/svg" width="192" height="192" version="1" id="svg28">
  <defs>
    <filter style="color-interpolation-filters:sRGB" id="filter865" x="-0.084" width="1.168" y="-0.0336" height="1.0672">
      <feGaussianBlur stdDeviation="2.24"/>
    </filter>
    <filter style="color-interpolation-filters:sRGB" id="filter881" x="-0.047999999" width="1.096" y="-0.047999999" height="1.096">
      <feGaussianBlur stdDeviation="2.56"/>
    </filter>
    <filter style="color-interpolation-filters:sRGB" id="filter897" x="-0.047999999" width="1.096" y="-0.047999999" height="1.096">
      <feGaussianBlur stdDeviation="2.56"/>
    </filter>
    <filter style="color-interpolation-filters:sRGB" id="filter913" x="-0.047999999" width="1.096" y="-0.047999999" height="1.096">
      <feGaussianBlur stdDeviation="2.56"/>
    </filter>
    <filter style="color-interpolation-filters:sRGB" id="filter945" x="-0.052799997" width="1.1056" y="-0.044" height="1.088">
      <feGaussianBlur stdDeviation="0.87999996"/>
    </filter>
  </defs>
  <path d="M 80.4,33.6 C 45.983628,33.6 18,61.583628 18,96 c 0,34.41637 27.983628,62.4 62.4,62.4 5.395588,0 10.603664,-0.76412 15.6,-2.05664 4.99634,1.29252 10.20441,2.05664 15.6,2.05664 34.41637,0 62.4,-27.98363 62.4,-62.4 0,-34.416372 -27.98363,-62.4 -62.4,-62.4 -5.39559,0 -10.60366,0.764115 -15.6,2.056641 C 91.003664,34.364115 85.795588,33.6 80.4,33.6 Z" style="fill:#3f3f3f"/>
  <path d="m 80,36 c -35.298844,0 -64,28.701156 -64,64 0,35.29884 28.701156,64 64,64 35.29884,0 64,-28.70116 64,-64 0,-35.298844 -28.70116,-64 -64,-64 z m 0,8 c 30.97532,0 56,25.024676 56,56 0,30.97532 -25.02468,56 -56,56 C 49.024676,156 24,130.97532 24,100 24,69.024676 49.024676,44 80,44 Z" style="filter:url(#filter897);opacity:0.2;fill:#000000"/>
  <path d="m 80,32 c -35.298844,0 -64,28.701156 -64,64 0,35.29884 28.701156,64 64,64 35.29884,0 64,-28.70116 64,-64 0,-35.298844 -28.70116,-64 -64,-64 z m 0,8 c 30.97532,0 56,25.024676 56,56 0,30.97532 -25.02468,56 -56,56 C 49.024676,152 24,126.97532 24,96 24,65.024676 49.024676,40 80,40 Z" style="fill:#2d86b4"/>
  <path d="m 96,36 c -35.298844,0 -64,28.701156 -64,64 0,35.29884 28.701156,64 64,64 35.29884,0 64,-28.70116 64,-64 0,-35.298844 -28.70116,-64 -64,-64 z m 0,8 c 30.97532,0 56,25.024676 56,56 0,30.97532 -25.02468,56 -56,56 C 65.024676,156 40,130.97532 40,100 40,69.024676 65.024676,44 96,44 Z" style="filter:url(#filter913);opacity:0.2;fill:#000000"/>
  <path d="m 96,32 c -35.298844,0 -64,28.701156 -64,64 0,35.29884 28.701156,64 64,64 35.29884,0 64,-28.70116 64,-64 0,-35.298844 -28.70116,-64 -64,-64 z m 0,8 c 30.97532,0 56,25.024676 56,56 0,30.97532 -25.02468,56 -56,56 C 65.024676,152 40,126.97532 40,96 40,65.024676 65.024676,40 96,40 Z" style="fill:#6ee26e"/>
  <path d="m 112,36 c -35.298844,0 -64,28.701156 -64,64 0,35.29884 28.701156,64 64,64 35.29884,0 64,-28.70116 64,-64 0,-35.298844 -28.70116,-64 -64,-64 z m 0,8 c 30.97532,0 56,25.024676 56,56 0,30.97532 -25.02468,56 -56,56 -30.975324,0 -56,-25.02468 -56,-56 0,-30.975324 25.024676,-56 56,-56 z" style="filter:url(#filter881);opacity:0.2;fill:#000000"/>
  <path d="m 112,32 c -35.298844,0 -64,28.701156 -64,64 0,35.29884 28.701156,64 64,64 35.29884,0 64,-28.70116 64,-64 0,-35.298844 -28.70116,-64 -64,-64 z m 0,8 c 30.97532,0 56,25.024676 56,56 0,30.97532 -25.02468,56 -56,56 C 81.024676,152 56,126.97532 56,96 56,65.024676 81.024676,40 112,40 Z" style="fill:#b75aff"/>
  <rect ry="32" y="20" x="64" height="160" width="64" style="filter:url(#filter865);opacity:0.2"/>
  <rect ry="32" y="16" x="64" height="160" width="64" style="fill:#3f3f3f"/>
  <path d="M 120,100 99.999998,112 80.000001,124 V 99.999999 76.000003 l 19.999999,12 z" style="filter:url(#filter945);opacity:0.1"/>
  <path d="M 120,96.000002 99.999998,108 80.000001,120 V 95.999999 72.000002 l 19.999999,12 z" style="fill:#ffffff"/>
  <path style="opacity:0.1;fill:#ffffff" d="M 96 16 C 78.272 16 64 30.272 64 48 L 64 49 C 64 31.272 78.272 17 96 17 C 113.728 17 128 31.272 128 49 L 128 48 C 128 30.272 113.728 16 96 16 z "/>
</svg>
