<?xml version='1.0' encoding='utf-8'?>
<svg xmlns="http://www.w3.org/2000/svg" width="192" height="192" version="1" id="svg14">
  <defs>
    <filter style="color-interpolation-filters:sRGB" id="filter850" x="0.05" width="1.10" y="0.05" height="1.10">
      <feGaussianBlur stdDeviation="3.20"/>
    </filter>
    <filter style="color-interpolation-filters:sRGB" id="filter855" x="0.04" width="1.09" y="0.05" height="1.11">
      <feGaussianBlur stdDeviation="2.26"/>
    </filter>
  </defs>
  <rect width="160" height="160" x="-180" y="-176" rx="8" ry="8" transform="matrix(0,-1,-1,0,0,0)" style="filter:url(#filter850);opacity:0.20;fill:#000000"/>
  <rect style="fill:#f98917" transform="matrix(0,-1,-1,0,0,0)" ry="8" rx="8" y="-176" x="-176" height="160" width="160"/>
  <path style="opacity:0.20;fill:#ffffff" d="m 24,16 c -4.43,0 -8,3.57 -8,8 v 1 c 0,-4.43 3.57,-8 8,-8 h 144 c 4.43,0 8,3.57 8,8 v -1 c 0,-4.43 -3.57,-8 -8,-8 z"/>
  <path d="m 38.27,47.86 -4.46,8.95 c 7.49,3.73 10.78,5.02 11.58,5.71 0.40,0.35 0.67,0.65 1.31,2.07 0.64,1.42 1.49,3.79 2.75,7.29 l 15.18,42.69 c 0.74,2.55 1.45,4.66 2.51,6.59 1.09,1.98 2.71,3.81 4.74,4.94 4.05,2.24 7.99,1.89 13.57,1.89 h 52.02 l 3.50,-10 H 85.45 c -5.57,0 -8.24,0.38 -8.73,0.64 0.24,0.13 0.36,0.17 0.82,-1 0.45,0.83 -1.05,-2.40 -1.72,-4.72 0.03,0.10 0.06,0.20 0.10,0.29 L 58.86,68.51 c 0.00,0.01 0.00,0.01 0.00,0.02 -1.25,-3.48 -2.10,-5.93 -3.06,-8.04 0.95,-2.11 -2.17,-4.03 -3.86,-5.50 -3.37,-2.93 -6.62,-3.59 -13.67,-7.11 z M 64.72,66 68.29,76 h 77.60 l -9.29,26 H 77.21 l 3.57,10 h 59.30 c 2.09,0.00 3.96,-1.30 4.69,-3.26 l 13,-36.00 C 158.98,69.47 156.57,66.00 153.08,66 Z M 78,134 a 8,8 0 0 0 -8,8 8,8 0 0 0 8,8 8,8 0 0 0 8,-8 8,8 0 0 0 -8,-8 z m 52,0 a 8,8 0 0 0 -8,8 8,8 0 0 0 8,8 8,8 0 0 0 8,-8 8,8 0 0 0 -8,-8 z" style="filter:url(#filter855);opacity:0.20;fill:#000000;color:#000000;font-stretch:normal;font-variant-ligatures:normal;font-variant-position:normal;font-variant-caps:normal;font-variant-numeric:normal;font-variant-alternates:normal;font-feature-settings:normal;text-indent:0;text-align:start;text-decoration-line:none;text-decoration-style:solid;text-decoration-color:#000000;text-transform:none;writing-mode:lr-tb;direction:ltr;text-orientation:mixed;dominant-baseline:auto;baseline-shift:baseline;white-space:normal;shape-padding:0;clip-rule:nonzero;display:inline;overflow:visible;visibility:visible;isolation:auto;mix-blend-mode:normal;color-interpolation:sRGB;color-interpolation-filters:linearRGB;solid-color:#000000;solid-opacity:1;vector-effect:none;fill-rule:nonzero;color-rendering:auto;image-rendering:auto;shape-rendering:auto;text-rendering:auto;enable-background:accumulate"/>
  <path style="fill:#ffffff;color:#000000;font-stretch:normal;font-variant-ligatures:normal;font-variant-position:normal;font-variant-caps:normal;font-variant-numeric:normal;font-variant-alternates:normal;font-feature-settings:normal;text-indent:0;text-align:start;text-decoration-line:none;text-decoration-style:solid;text-decoration-color:#000000;text-transform:none;writing-mode:lr-tb;direction:ltr;text-orientation:mixed;dominant-baseline:auto;baseline-shift:baseline;white-space:normal;shape-padding:0;clip-rule:nonzero;display:inline;overflow:visible;visibility:visible;isolation:auto;mix-blend-mode:normal;color-interpolation:sRGB;color-interpolation-filters:linearRGB;solid-color:#000000;solid-opacity:1;vector-effect:none;fill-rule:nonzero;color-rendering:auto;image-rendering:auto;shape-rendering:auto;text-rendering:auto;enable-background:accumulate" d="M 38.27 45.86 L 33.80 54.80 C 41.29 58.54 44.58 59.82 45.38 60.51 C 45.78 60.86 46.05 61.17 46.69 62.59 C 47.33 64.01 48.19 66.37 49.45 69.88 L 64.63 112.56 C 65.36 115.11 66.08 117.22 67.14 119.15 C 68.23 121.13 69.85 122.96 71.88 124.09 C 75.94 126.33 79.87 125.98 85.45 125.98 L 137.47 125.98 L 140.97 115.98 L 85.45 115.98 C 79.88 115.98 77.21 115.60 76.72 115.34 C 76.48 115.20 76.36 115.16 75.91 114.34 C 75.45 113.51 74.85 111.94 74.18 109.61 C 74.15 109.51 74.12 109.42 74.09 109.32 L 58.86 66.51 C 58.86 66.51 58.86 66.50 58.86 66.50 C 57.61 63.02 56.75 60.57 55.80 58.46 C 54.85 56.36 53.63 54.43 51.94 52.96 C 48.57 50.03 45.32 49.37 38.27 45.86 z M 64.72 64 L 68.29 74 L 145.89 74 L 136.61 100 L 77.21 100 L 80.78 110 L 140.08 110 C 142.17 110.00 144.04 108.70 144.77 106.74 L 157.77 70.74 C 158.98 67.47 156.57 64.00 153.08 64 L 64.72 64 z M 78 132 A 8 8 0 0 0 70 140 A 8 8 0 0 0 78 148 A 8 8 0 0 0 86 140 A 8 8 0 0 0 78 132 z M 130 132 A 8 8 0 0 0 122 140 A 8 8 0 0 0 130 148 A 8 8 0 0 0 138 140 A 8 8 0 0 0 130 132 z "/>
</svg>
