<?xml version='1.0' encoding='utf-8'?>
<svg xmlns="http://www.w3.org/2000/svg" width="192" height="192" version="1.1" id="svg14">
  <defs>
    <filter style="color-interpolation-filters:sRGB" id="filter965" x="-0.048000001" y="-0.048000001" width="1.096" height="1.096">
      <feGaussianBlur stdDeviation="3.2"/>
    </filter>
    <filter style="color-interpolation-filters:sRGB" id="filter969" x="-0.066666667" y="-0.0375" width="1.1333333" height="1.075">
      <feGaussianBlur stdDeviation="2"/>
    </filter>
  </defs>
  <rect x="16" y="20" width="160" height="160" rx="8" ry="8" style="filter:url(#filter965);opacity:0.2;fill:#000000"/>
  <rect x="16" y="16" width="160" height="160" rx="8" ry="8" style="fill:#4f4f4f"/>
  <path style="opacity:0.1;fill:#ffffff" d="M 24 16 C 19.568 16 16 19.568 16 24 L 16 25 C 16 20.568 19.568 17 24 17 L 168 17 C 172.432 17 176 20.568 176 25 L 176 24 C 176 19.568 172.432 16 168 16 L 24 16 z "/>
  <path d="M 112,34 98.515624,62 H 60 V 90 H 85.039064 L 60,142 v 20 H 80 L 93.484376,134 H 132 V 106 H 106.96094 L 132,54 V 34 Z" style="filter:url(#filter969);opacity:0.2"/>
  <path d="M 112,32 98.515624,60 H 60 V 88 H 85.039064 L 60,140 v 20 H 80 L 93.484376,132 H 132 V 104 H 106.96094 L 132,52 V 32 Z" style="fill:#36c737"/>
  <path style="opacity:0.2;fill:#ffffff" d="M 112 32 L 98.515625 60 L 60 60 L 60 61 L 98.515625 61 L 112 33 L 132 33 L 132 32 L 112 32 z M 84.556641 89 L 60 140 L 60 141 L 85.039062 89 L 84.556641 89 z M 107.44336 104 L 106.96094 105 L 132 105 L 132 104 L 107.44336 104 z "/>
</svg>
