<?xml version='1.0' encoding='utf-8'?>
<svg xmlns="http://www.w3.org/2000/svg" width="192" height="192" version="1" id="svg28">
  <defs>
    <filter style="color-interpolation-filters:sRGB" id="filter6495" x="0.05" y="0.05" width="1.10" height="1.10">
      <feGaussianBlur stdDeviation="3.20"/>
    </filter>
    <filter style="color-interpolation-filters:sRGB" id="filter6430" x="0.11" y="0.11" width="1.22" height="1.22">
      <feGaussianBlur stdDeviation="3.11"/>
    </filter>
  </defs>
  <rect transform="matrix(0,-1,-1,0,0,0)" ry="12" rx="12" y="-176" x="-180" height="160" width="160" style="filter:url(#filter6495);opacity:0.20;fill:#000000"/>
  <rect transform="matrix(0,-1,-1,0,0,0)" ry="12" rx="12" y="-176" x="-176" height="160" width="160" style="fill:#3f3f3f"/>
  <path style="opacity:0.10;fill:#ffffff" d="m 28,16 c -6.65,0 -12,5.35 -12,12 v 1 c 0,-6.65 5.35,-12 12,-12 h 136 c 6.65,0 12,5.35 12,12 v -1 c 0,-6.65 -5.35,-12 -12,-12 z"/>
  <path style="filter:url(#filter6430);opacity:0.20;fill:#000000" d="m 70.50,61.69 c 0.36,0.18 -3.28,3.65 -4.93,5.88 -3.20,4.32 -4.97,9.11 -4.50,12.15 0.43,2.73 2.38,4.97 5.06,5.84 0.80,0.26 2.44,0.54 4.21,0.40 1.84,0.14 3.81,0.72 5.18,-1.17 2.41,0.78 54.65,-22.91 54.48,-23.07 0.05,0.04 -11.54,2.98 -25.53,6.73 -26.37,7.05 -28.91,7.00 -31.82,6.21 -1.73,0.47 -3.90,-2.47 -4.42,-4.39 0.48,-1.77 0.02,-4.02 1.16,-6.59 0.46,-1.01 1.14,-1.90 1.14,-1.98 0,0.02 0.01,0.02 0.04,0.01 z M 71.63,96 62,96.00 V 131 h 9 V 114.34 L 77.28,131 H 85 V 96 h -9 v 14.48 z M 87,96 v 17.50 17.50 h 4.66 4.33 L 96,123.93 l 0.02,-7.07 2.90,6.99 L 101.49,131 h 5.06 5.06 c 0,0.10 -1.55,-3.52 -3.43,-7.42 l -3.43,-7.08 1.31,0.82 c 2.69,-1.68 3.89,-4.25 3.89,-8.29 0,0.88 0.04,-1.67 0.12,-2.38 0.68,-3.98 -3.49,-7.15 -6.92,-8.10 -1.90,0.51 -4.57,0.68 -9.01,0.77 z m 38.62,0.00 c -3.42,0.06 -7.21,1.35 -9.65,3.73 -3.27,3.19 -4.71,6.91 -4.94,12.80 0.38,9.67 3.24,16.09 10.25,18.15 1.84,0.54 5.54,0.34 7.35,0.40 L 130,129.74 v -4.56 -4.76 l -1.50,0.81 c -3.27,1.77 -6.55,0.50 -7.79,-3.08 -1.12,-3.23 0.90,-8.48 0.49,-11.24 1.59,-3.17 5.50,-3.80 8.25,-1.34 0.55,0.49 0.57,0.78 0.48,-3.90 L 129.84,96.75 127.90,96.28 c 0.73,0.18 -1.50,0.27 -2.29,0.28 z M 97.50,104 c 1.93,0 3.50,1.79 3.50,4 0,2.21 -1.57,4 -3.50,4 0.03,0.00 -1.47,0.01 -1.50,0.01 v -7.98 c 0.03,0.00 1.47,0.01 1.50,0.01 z"/>
  <path style="fill:#ffffff" d="m 70.50,59.69 c 0.36,0.18 -3.28,3.65 -4.93,5.88 -3.20,4.32 -4.97,9.11 -4.50,12.15 0.43,2.73 2.38,4.97 5.06,5.84 0.80,0.26 2.44,0.54 4.21,0.40 1.84,0.14 3.81,0.72 5.18,-1.17 2.41,0.78 54.65,-22.91 54.48,-23.07 0.05,0.04 -11.54,2.98 -25.53,6.73 -26.37,7.05 -28.91,7.00 -31.82,6.21 -1.73,0.47 -3.90,-2.47 -4.42,-4.39 0.48,-1.77 0.02,-4.02 1.16,-6.59 0.46,-1.01 1.14,-1.90 1.14,-1.98 0,0.02 0.01,0.02 0.04,0.01 z M 71.63,94 62,94.00 V 129 h 9 V 112.34 L 77.28,129 H 85 V 94 h -9 v 14.48 z M 87,94 v 17.50 17.50 h 4.66 4.33 L 96,121.93 l 0.02,-7.07 2.90,6.99 L 101.49,129 h 5.06 5.06 c 0,0.10 -1.55,-3.52 -3.43,-7.42 l -3.43,-7.08 1.31,0.82 c 2.69,-1.68 3.89,-4.25 3.89,-8.29 0,0.88 0.04,-1.67 0.12,-2.38 0.68,-3.98 -3.49,-7.15 -6.92,-8.10 -1.90,0.51 -4.57,0.68 -9.01,0.77 z m 38.62,0.00 c -3.42,0.06 -7.21,1.35 -9.65,3.73 -3.27,3.19 -4.71,6.91 -4.94,12.80 0.38,9.67 3.24,16.09 10.25,18.15 1.84,0.54 5.54,0.34 7.35,0.40 L 130,127.74 v -4.56 -4.76 l -1.50,0.81 c -3.27,1.77 -6.55,0.50 -7.79,-3.08 -1.12,-3.23 0.90,-8.48 0.49,-11.24 1.59,-3.17 5.50,-3.80 8.25,-1.34 0.55,0.49 0.57,0.78 0.48,-3.90 L 129.84,94.75 127.90,94.28 c 0.73,0.18 -1.50,0.27 -2.29,0.28 z M 97.50,102 c 1.93,0 3.50,1.79 3.50,4 0,2.21 -1.57,4 -3.50,4 0.03,0.00 -1.47,0.01 -1.50,0.01 v -7.98 c 0.03,0.00 1.47,0.01 1.50,0.01 z"/>
</svg>
