<?xml version='1.0' encoding='utf-8'?>
<svg xmlns="http://www.w3.org/2000/svg" width="192" height="192" version="1" id="svg22">
  <defs>
    <filter style="color-interpolation-filters:sRGB" id="filter902" x="-0.062794519" width="1.125589" y="-0.038847457" height="1.0776949">
      <feGaussianBlur stdDeviation="1.91"/>
    </filter>
    <filter style="color-interpolation-filters:sRGB" id="filter908" x="-0.048000001" width="1.096" y="-0.048000001" height="1.096">
      <feGaussianBlur stdDeviation="3.2"/>
    </filter>
  </defs>
  <g style="fill:#ffffff" transform="matrix(2,0,0,2,48,57)"/>
  <rect transform="matrix(0,-1,-1,0,0,0)" ry="16" rx="16" y="-176" x="-180" height="160" width="160" style="filter:url(#filter908);opacity:0.2;fill:#000000"/>
  <rect transform="matrix(0,-1,-1,0,0,0)" ry="16" rx="16" y="-176" x="-176" height="160" width="160" style="fill:#e4e4e4"/>
  <path style="filter:url(#filter902);opacity:0.1;fill:#000000;color:#000000;font-stretch:normal;font-variant-ligatures:normal;font-variant-position:normal;font-variant-caps:normal;font-variant-numeric:normal;font-variant-alternates:normal;font-variant-east-asian:normal;font-feature-settings:normal;font-variation-settings:normal;text-indent:0;text-align:start;text-decoration-line:none;text-decoration-style:solid;text-decoration-color:#000000;text-transform:none;writing-mode:lr-tb;direction:ltr;text-orientation:mixed;dominant-baseline:auto;baseline-shift:baseline;white-space:normal;shape-padding:0;shape-margin:0;inline-size:0;clip-rule:nonzero;display:inline;overflow:visible;visibility:visible;isolation:auto;mix-blend-mode:normal;color-interpolation:sRGB;color-interpolation-filters:linearRGB;solid-color:#000000;solid-opacity:1;vector-effect:none;fill-rule:nonzero;color-rendering:auto;image-rendering:auto;shape-rendering:auto;text-rendering:auto;enable-background:accumulate;stop-color:#000000" d="M 65.5,41 A 5.5,5.5 0 0 0 60,46.5 v 107 a 5.5,5.5 0 0 0 5.5,5.5 5.5,5.5 0 0 0 5.5,-5.5 V 86.121094 c 8.492469,0.550302 13.018278,2.854374 15.478516,5.246094 C 89.205802,94.018518 90,97.249526 90,100.59961 V 153.5 a 5.5,5.5 0 0 0 5.5,5.5 5.5,5.5 0 0 0 5.5,-5.5 V 100.59961 C 101,95.254299 99.4291,88.615966 94.146484,83.480469 89.267801,78.737657 81.718219,75.692281 71,75.101562 V 46.5 A 5.5,5.5 0 0 0 65.5,41 Z m 59.96289,31 c -4.12764,0.02042 -7.46294,3.372314 -7.46289,7.5 -1.7e-4,3.884158 2.96517,7.125779 6.83398,7.470703 L 124.625,90.806641 C 127.84672,87.609458 132.92241,83.946948 133,79.5 c 0,-4.142136 -3.35786,-7.5 -7.5,-7.5 -0.0124,-3.1e-5 -0.0247,-3.1e-5 -0.0371,0 z M 126.5,96 a 5.5,5.5 0 0 0 -5.5,5.5 v 52 a 5.5,5.5 0 0 0 5.5,5.5 5.5,5.5 0 0 0 5.5,-5.5 v -52 A 5.5,5.5 0 0 0 126.5,96 Z"/>
  <path style="fill:#1f95fb;color:#000000;font-stretch:normal;font-variant-ligatures:normal;font-variant-position:normal;font-variant-caps:normal;font-variant-numeric:normal;font-variant-alternates:normal;font-variant-east-asian:normal;font-feature-settings:normal;font-variation-settings:normal;text-indent:0;text-align:start;text-decoration-line:none;text-decoration-style:solid;text-decoration-color:#000000;text-transform:none;writing-mode:lr-tb;direction:ltr;text-orientation:mixed;dominant-baseline:auto;baseline-shift:baseline;white-space:normal;shape-padding:0;shape-margin:0;inline-size:0;clip-rule:nonzero;display:inline;overflow:visible;visibility:visible;isolation:auto;mix-blend-mode:normal;color-interpolation:sRGB;color-interpolation-filters:linearRGB;solid-color:#000000;solid-opacity:1;vector-effect:none;fill-rule:nonzero;color-rendering:auto;image-rendering:auto;shape-rendering:auto;text-rendering:auto;enable-background:accumulate;stop-color:#000000" d="M 65.5,37 A 5.5,5.5 0 0 0 60,42.5 v 107 a 5.5,5.5 0 0 0 5.5,5.5 5.5,5.5 0 0 0 5.5,-5.5 V 82.121094 c 8.492469,0.550302 13.018278,2.854374 15.478516,5.246094 C 89.205802,90.018518 90,93.249526 90,96.599609 V 149.5 a 5.5,5.5 0 0 0 5.5,5.5 5.5,5.5 0 0 0 5.5,-5.5 V 96.599609 C 101,91.254299 99.4291,84.615966 94.146484,79.480469 89.267801,74.737657 81.718219,71.692281 71,71.101562 V 42.5 A 5.5,5.5 0 0 0 65.5,37 Z"/>
  <path style="fill:#00c9df;color:#000000;font-stretch:normal;font-variant-ligatures:normal;font-variant-position:normal;font-variant-caps:normal;font-variant-numeric:normal;font-variant-alternates:normal;font-variant-east-asian:normal;font-feature-settings:normal;font-variation-settings:normal;text-indent:0;text-align:start;text-decoration-line:none;text-decoration-style:solid;text-decoration-color:#000000;text-transform:none;writing-mode:lr-tb;direction:ltr;text-orientation:mixed;dominant-baseline:auto;baseline-shift:baseline;white-space:normal;shape-padding:0;shape-margin:0;inline-size:0;clip-rule:nonzero;display:inline;overflow:visible;visibility:visible;isolation:auto;mix-blend-mode:normal;color-interpolation:sRGB;color-interpolation-filters:linearRGB;solid-color:#000000;solid-opacity:1;vector-effect:none;fill-rule:nonzero;color-rendering:auto;image-rendering:auto;shape-rendering:auto;text-rendering:auto;enable-background:accumulate;stop-color:#000000" d="m 125.46289,68 c -4.12764,0.02042 -7.46294,3.372314 -7.46289,7.5 -1.7e-4,3.884158 2.96517,7.125779 6.83398,7.470703 L 124.625,86.806641 C 127.84672,83.609458 132.92241,79.946948 133,75.5 c 0,-4.142136 -3.35786,-7.5 -7.5,-7.5 -0.0124,-3.1e-5 -0.0247,-3.1e-5 -0.0371,0 z M 126.5,92 a 5.5,5.5 0 0 0 -5.5,5.5 v 52 a 5.5,5.5 0 0 0 5.5,5.5 5.5,5.5 0 0 0 5.5,-5.5 v -52 A 5.5,5.5 0 0 0 126.5,92 Z"/>
  <path style="opacity:0.2;fill:#ffffff" d="m 32,16 c -8.864,0 -16,7.136 -16,16 v 1 c 0,-8.864 7.136,-16 16,-16 h 128 c 8.864,0 16,7.136 16,16 v -1 c 0,-8.864 -7.136,-16 -16,-16 z"/>
</svg>
