<?xml version='1.0' encoding='utf-8'?>
<svg xmlns="http://www.w3.org/2000/svg" width="192" height="192" version="1" id="svg28">
  <defs>
    <filter style="color-interpolation-filters:sRGB" id="filter6495" x="0.05" y="0.05" width="1.10" height="1.10">
      <feGaussianBlur stdDeviation="3.20"/>
    </filter>
    <filter style="color-interpolation-filters:sRGB" id="filter7672" x="0.11" y="0.10" width="1.23" height="1.20">
      <feGaussianBlur stdDeviation="3.83"/>
    </filter>
  </defs>
  <rect transform="matrix(0,-1,-1,0,0,0)" ry="12" rx="12" y="-176" x="-180" height="160" width="160" style="filter:url(#filter6495);opacity:0.20;fill:#000000"/>
  <rect transform="matrix(0,-1,-1,0,0,0)" ry="12" rx="12" y="-176" x="-176" height="160" width="160" style="fill:#ea1e45"/>
  <path style="opacity:0.20;fill:#ffffff" d="m 28,16 c -6.65,0 -12,5.35 -12,12 v 1 c 0,-6.65 5.35,-12 12,-12 h 136 c 6.65,0 12,5.35 12,12 v -1 c 0,-6.65 -5.35,-12 -12,-12 z"/>
  <path style="filter:url(#filter7672);opacity:0.20;fill:#000000" d="m 69.95,142.54 c 1.66,0.94 2.00,-2.48 2.05,-3.78 0.14,-3.47 0.01,-10.87 0,-25.20 V 86.47 l 28.02,28.09 c 15.25,15.29 28.52,27.72 29.10,28.00 2.24,1.07 5.90,0.23 6.88,-2.59 0.37,0.89 0,-42.97 0,-43.24 V 55.75 c 0.45,-2.11 -2.66,-2.75 -4.39,-2.75 h -3.22 c -2.38,0 -3.97,0.02 -5.07,0.14 -2.39,0.34 -3.22,1.52 -3.32,3.27 0.16,3.04 0,10.33 0,25.56 V 109.24 L 92.10,81.73 C 76.95,66.78 63.84,53.98 63.28,53.64 c -1.65,-1.01 -3.73,0.80 -5.35,0.40 -1.49,1.05 -1.93,2.51 -1.93,4.05 v 40.67 41.41 c 0.10,1.53 0.80,2.36 2.19,2.55 0.34,0.14 2.92,0.27 5.73,0.28 3.97,0.02 5.31,0.09 6.02,0.45 z"/>
  <path style="fill:#ffffff" d="m 69.95,140.54 c 1.66,0.94 2.00,-2.48 2.05,-3.78 0.14,-3.47 0.01,-10.87 0,-25.20 V 84.47 l 28.02,28.09 c 15.25,15.29 28.52,27.72 29.10,28.00 2.24,1.07 5.90,0.23 6.88,-2.59 0.37,0.89 0,-42.97 0,-43.24 V 53.75 c 0.45,-2.11 -2.66,-2.75 -4.39,-2.75 h -3.22 c -2.38,0 -3.97,0.02 -5.07,0.14 -2.39,0.34 -3.22,1.52 -3.32,3.27 0.16,3.04 0,10.33 0,25.56 V 107.24 L 92.10,79.73 C 76.95,64.78 63.84,51.98 63.28,51.64 c -1.65,-1.01 -3.73,0.80 -5.35,0.40 -1.49,1.05 -1.93,2.51 -1.93,4.05 v 40.67 41.41 c 0.10,1.53 0.80,2.36 2.19,2.55 0.34,0.14 2.92,0.27 5.73,0.28 3.97,0.02 5.31,0.09 6.02,0.45 z"/>
</svg>
