<?xml version='1.0' encoding='utf-8'?>
<svg xmlns="http://www.w3.org/2000/svg" width="192" height="192" version="1.1" id="svg22">
  <defs>
    <filter style="color-interpolation-filters:sRGB" id="filter865" x="0.05" y="0.05" width="1.10" height="1.10">
      <feGaussianBlur stdDeviation="3.20"/>
    </filter>
    <filter style="color-interpolation-filters:sRGB" id="filter968" x="0.05" y="0.05" width="1.09" height="1.11">
      <feGaussianBlur stdDeviation="3.08"/>
    </filter>
    <filter style="color-interpolation-filters:sRGB" id="filter972" x="0.06" y="0.04" width="1.11" height="1.08">
      <feGaussianBlur stdDeviation="2.07"/>
    </filter>
  </defs>
  <rect x="16" y="20" width="160" height="160" rx="8" ry="8" style="filter:url(#filter865);opacity:0.20"/>
  <path d="M 16,36 V 168 L 176,140 V 64 Z" style="fill:#40c412"/>
  <path d="m 24,16 c -4.43,0 -8,3.57 -8,8 V 36.66 L 176,63.34 V 24 c 0,-4.43 -3.57,-8 -8,-8 z" style="fill:#fbc72b"/>
  <path d="M 176,140 16,168 c 0,4.43 3.57,8 8,8 h 144 c 4.43,0 8,-3.57 8,-8 z" style="fill:#80d511"/>
  <path d="M 16,33.95 V 42.00 L 175.31,69.88 A 4.00,4.00 0 0 0 176,69.97 V 61.89 L 16.69,34.01 A 4.00,4.00 0 0 0 16,33.95 Z M 175.98,137.94 a 4.00,4.00 0 0 0 0.67,0.07 L 16,165.89 v 8.08 a 4.00,4.00 0 0 0 0.69,0.09 L 176,146.00 v -8.06 a 4.00,4.00 0 0 0 0.02,0 z" style="filter:url(#filter968);opacity:0.20"/>
  <path d="m 16,32 v 8.05 L 175.31,67.94 A 4.00,4.00 0 0 0 176,68.02 V 59.95 L 16.69,32.06 A 4.00,4.00 0 0 0 16,32 Z m 159.98,103.99 a 4.00,4.00 0 0 0 0.67,0.07 L 16,163.95 v 8.08 a 4.00,4.00 0 0 0 0.69,0.09 L 176,144.05 v -8.06 a 4.00,4.00 0 0 0 0.02,0 z" style="fill:#ffffff"/>
  <path d="m 88,152 h 16 l 4,-48 20,-8 h 4 L 136,68 132,52 112,36 H 84 l -20,12 -8,16 4,32 24,8 z" style="fill:#1ca3f4"/>
  <path d="m 96,33.95 c -14.71,0 -25.14,4.03 -31.98,10.45 -6.85,6.42 -9.90,14.91 -10.98,23.02 -2.16,16.21 3.17,31.80 3.17,31.80 0.54,1.61 2.03,2.70 3.72,2.73 0,0 5.11,0.11 10.40,1.09 2.64,0.49 5.31,1.22 7.17,2.09 1.87,0.87 2.61,1.80 2.71,2.09 1.62,4.86 2.81,17.03 3.30,27.42 C 84.00,145.02 84,150.00 84,150.00 c 0.00,2.21 1.79,4.00 4,4 h 16 c 2.21,0.00 4.00,-1.79 4,-4 0,0 0.00,-4.98 0.49,-15.37 0.49,-10.39 1.68,-22.56 3.30,-27.42 0.10,0.30 0.85,-1.22 2.71,-2.09 1.87,0.87 4.53,-1.60 7.17,-2.09 5.29,0.98 10.40,-1.09 10.40,-1.09 1.69,0.03 3.18,-1.13 3.72,-2.73 0,0 5.33,-15.58 3.17,-31.80 -1.08,-8.11 -4.14,-16.59 -10.98,-23.02 C 121.14,37.98 110.71,33.95 96,33.95 Z m 0,8 c 13.29,0 21.36,3.47 26.52,8.30 5.15,4.83 7.60,11.34 8.52,18.23 1.59,11.93 -1.34,22.67 -2.26,25.80 -1.94,0.09 -4.11,0.07 -8.55,0.89 -3.04,0.56 -6.22,1.36 -9.09,2.70 -2.87,1.34 -5.76,3.32 -6.92,6.81 -2.38,7.14 -3.19,18.97 -3.70,29.58 0.40,8.45 0.39,9.05 0.41,11.74 h -8.20 c 0.02,-2.69 0.00,-3.29 0.41,-11.74 0.51,-10.61 -1.32,-22.44 -3.70,-29.58 C 86.63,101.18 83.75,99.21 80.88,97.87 78.00,96.53 74.82,95.73 71.78,95.16 67.34,94.34 65.16,94.36 63.23,94.27 62.31,91.15 59.38,80.41 60.97,68.48 61.89,61.58 64.33,55.07 69.48,50.24 74.64,45.41 82.71,41.95 96,41.95 Z" style="filter:url(#filter972);opacity:0.20"/>
  <path d="m 60,96 c 0,0 21.47,0.41 24,8 4,12 4,48 4,48 h 16 c 0,0 0,-36 4,-48 2.53,-7.59 24,-8 24,-8 0,0 20,-60 -36,-60 -56,0 -36,60 -36,60 z" style="fill:none;stroke:#ffffff;stroke-width:8;stroke-linecap:round;stroke-linejoin:round"/>
  <path style="opacity:0.20;fill:#ffffff" d="M 24 16 C 19.57 16 16 19.57 16 24 L 16 25 C 16 20.57 19.57 17 24 17 L 168 17 C 172.43 17 176 20.57 176 25 L 176 24 C 176 19.57 172.43 16 168 16 L 24 16 z "/>
</svg>
