<svg xmlns="http://www.w3.org/2000/svg" id="svg14" width="192" height="192" version="1"><defs><filter style="color-interpolation-filters:sRGB" id="filter850" width="1.1" height="1.1" x=".05" y=".05"><feGaussianBlur stdDeviation="3.2"/></filter><filter style="color-interpolation-filters:sRGB" id="filter2132" width="1.1" height="1.1" x=".05" y=".05"><feGaussianBlur stdDeviation="2.22"/></filter></defs><rect style="filter:url(#filter850);opacity:.2;fill:#000" width="160" height="160" x="-180" y="-176" rx="80" ry="80" transform="matrix(0,-1,-1,0,0,0)"/><rect width="160" height="160" x="-176" y="-176" rx="80" ry="80" transform="matrix(0,-1,-1,0,0,0)" style="fill:#1a4f9e"/><path style="opacity:.1;fill:#fff" d="m 96,16 c -44.32,0 -80,35.68 -80,80 0,0.12 0.01,0.23 0.01,0.35 C 16.36,52.33 51.90,17 96,17 140.10,17 175.64,52.33 175.99,96.35 175.99,96.23 176,96.12 176,96 176,51.68 140.32,16 96,16 Z"/><path style="filter:url(#filter2132);opacity:.2;fill:#000;fill-rule:nonzero" d="m 97.14,43 c -30.37,0 -55,24.63 -55,55 0,9.78 2.52,18.94 6.95,26.84 0,0 2.49,2.95 -6.79,10.36 -5.99,4.80 0.24,9.71 6.18,10.42 4.09,0.49 13.47,0.00 17.62,-2.18 C 74.94,149.47 85.61,153 97.11,153 c 30.37,0 55.03,-24.63 55.03,-55 0,-30.37 -24.63,-55 -55.00,-55 z M 97,51 c 25.98,0 46.97,21.06 46.97,47 0,25.94 -21.06,47 -47,47 -10.97,0 -21.05,-3.76 -29.06,-10.05 0.52,0 -10.97,3.09 -15.92,1.41 7.91,-5.96 4.83,-13.94 4.83,-13.94 C 52.51,115.30 50,106.92 50,98 50,72.06 71.06,51 97,51 Z M 67.97,81 C 66.16,81 64.97,82.31 65,84.03 64.97,85.66 66.16,87 67.94,87 69.81,87 71,85.66 71,84.03 70.94,82.31 69.78,81 67.97,81 Z M 66.20,91 C 64.97,91 65,92.27 65,92.27 V 109.45 C 65,110.94 66.05,111 66.05,111 h 3.57 c 1.47,0 1.38,-1.80 1.38,-1.80 V 92.55 C 71.00,91.00 69.68,91 69.68,91 Z m 34.15,0 c -1.47,0 -2.66,0.33 -3.77,0.97 0.92,0.57 -1.81,1.36 -2.54,2.36 h 0.09 c 0.86,-2.02 -2.88,-3.29 -5.42,-3.29 -3.40,0 -5.12,1.84 -5.97,3.08 h 0.12 l 0.15,0.95 c 0,0 0.22,-1.18 -1.44,-1.18 h -2.57 c -1.29,0 -1.26,1.18 -1.26,1.18 0,0 0.12,2.64 0.12,4.54 v 11.18 c 0,0 0.00,2.09 1.96,2.09 h 2.63 c 1.59,0 1.28,-2.09 1.28,-2.09 v -9.27 c 0,0.48 0.03,-1.03 0.25,-1.51 0.37,-1.00 1.42,-2.21 2.98,-2.21 1.93,0 2.78,1.66 2.78,4.14 v 8.85 c 0,1.96 1.61,2.09 1.61,2.09 h 2.73 c 1.72,0 1.68,-1.90 1.68,-1.90 v -9.49 c 0,0.45 0.09,-1.09 0.25,-1.54 0.40,-1.15 1.41,-2.12 2.82,-2.12 1.99,0 2.92,1.63 2.92,4.47 v 8.37 c 0,0 0.31,2.24 1.25,2.24 h 3.31 c 0,0 1.41,0.12 1.44,-2.14 V 99.46 C 107,93.63 104.15,91 100.35,91 Z m 21.87,0 C 116.07,91 112,94.95 112,101.13 112,107.31 116.31,111 121.90,111 127.04,111 132,107.79 132,100.81 132,95.04 128.11,91 122.22,91 Z m 0.16,4 c 2.80,0 3.91,3.00 3.94,6 0,3.59 -1.54,6 -3.94,6 -2.65,0 -4.06,-2.57 -4.06,-6 0,-2.94 1.11,-6 4.06,-6 z"/><path style="fill:#fff;fill-rule:nonzero" d="m 97.14,41 c -30.37,0 -55,24.63 -55,55 0,9.78 2.52,18.94 6.95,26.84 0,0 2.49,2.95 -6.79,10.36 -5.99,4.80 0.24,9.71 6.18,10.42 4.09,0.49 13.47,0.00 17.62,-2.18 C 74.94,147.47 85.61,151 97.11,151 c 30.37,0 55.03,-24.63 55.03,-55 0,-30.37 -24.63,-55 -55.00,-55 z M 97,49 c 25.98,0 46.97,21.06 46.97,47 0,25.94 -21.06,47 -47,47 -10.97,0 -21.05,-3.76 -29.06,-10.05 0.52,0 -10.97,3.09 -15.92,1.41 7.91,-5.96 4.83,-13.94 4.83,-13.94 C 52.51,113.30 50,104.92 50,96 50,70.06 71.06,49 97,49 Z M 67.97,79 C 66.16,79 64.97,80.31 65,82.03 64.97,83.66 66.16,85 67.94,85 69.81,85 71,83.66 71,82.03 70.94,80.31 69.78,79 67.97,79 Z M 66.20,89 C 64.97,89 65,90.27 65,90.27 V 107.45 C 65,108.94 66.05,109 66.05,109 h 3.57 c 1.47,0 1.38,-1.80 1.38,-1.80 V 90.55 C 71.00,89.00 69.68,89 69.68,89 Z m 34.15,0 c -1.47,0 -2.66,0.33 -3.77,0.97 0.92,0.57 -1.81,1.36 -2.54,2.36 h 0.09 c 0.86,-2.02 -2.88,-3.29 -5.42,-3.29 -3.40,0 -5.12,1.84 -5.97,3.08 h 0.12 l 0.15,0.95 c 0,0 0.22,-1.18 -1.44,-1.18 h -2.57 c -1.29,0 -1.26,1.18 -1.26,1.18 0,0 0.12,2.64 0.12,4.54 v 11.18 c 0,0 0.00,2.09 1.96,2.09 h 2.63 c 1.59,0 1.28,-2.09 1.28,-2.09 v -9.27 c 0,0.48 0.03,-1.03 0.25,-1.51 0.37,-1.00 1.42,-2.21 2.98,-2.21 1.93,0 2.78,1.66 2.78,4.14 v 8.85 c 0,1.96 1.61,2.09 1.61,2.09 h 2.73 c 1.72,0 1.68,-1.90 1.68,-1.90 v -9.49 c 0,0.45 0.09,-1.09 0.25,-1.54 0.40,-1.15 1.41,-2.12 2.82,-2.12 1.99,0 2.92,1.63 2.92,4.47 v 8.37 c 0,0 0.31,2.24 1.25,2.24 h 3.31 c 0,0 1.41,0.12 1.44,-2.14 V 97.46 C 107,91.63 104.15,89 100.35,89 Z m 21.87,0 C 116.07,89 112,92.95 112,99.13 112,105.31 116.31,109 121.90,109 127.04,109 132,105.79 132,98.81 132,93.04 128.11,89 122.22,89 Z m 0.16,4 c 2.80,0 3.91,3.00 3.94,6 0,3.59 -1.54,6 -3.94,6 -2.65,0 -4.06,-2.57 -4.06,-6 0,-2.94 1.11,-6 4.06,-6 z"/></svg>