<?xml version='1.0' encoding='utf-8'?>
<svg xmlns="http://www.w3.org/2000/svg" width="192" height="192" version="1" id="svg14">
  <defs>
    <filter style="color-interpolation-filters:sRGB" id="filter4769" x="0.05" y="0.04" width="1.10" height="1.09">
      <feGaussianBlur stdDeviation="2.97"/>
    </filter>
    <filter style="color-interpolation-filters:sRGB" id="filter4811" x="0.08" y="0.07" width="1.15" height="1.15">
      <feGaussianBlur stdDeviation="3.31"/>
    </filter>
  </defs>
  <path style="filter:url(#filter4769);opacity:0.20;fill:#000000" d="m 100.00,20 c -44.18,0 -80,35.82 -80,80 0,44.18 35.82,80 80,80 21.19,0.08 41.48,-8.55 56.43,-23.57 L 100.00,100 156.57,43.43 C 141.57,28.43 121.22,20.00 100.00,20 Z"/>
  <path style="fill:#5ab4fd" d="m 100.00,16 c -44.18,0 -80,35.82 -80,80 0,44.18 35.59,31.15 79.77,31.15 21.19,0.08 14.00,29.56 28.95,14.54 L 100.00,96 156.57,39.43 C 141.57,24.43 121.22,16.00 100.00,16 Z"/>
  <path style="fill:#cc3d31" d="m 20.00,96 c 0,44.18 35.82,80 80,80 21.19,0.08 41.48,-8.55 56.43,-23.57 L 100.00,96 Z"/>
  <path style="fill:#e5e5e5" d="M 98.00,54 V 91.17 L 71.71,64.89 68.89,67.71 95.17,94 H 58.00 v 4 h 37.17 l -26.29,26.29 2.83,2.83 26.29,-26.29 V 138 h 4.00 v -37.17 l 26.29,26.29 2.83,-2.83 L 104.83,98 h 37.17 V 94 H 104.83 L 131.11,67.71 128.28,64.89 102.00,91.17 V 54 Z"/>
  <path style="filter:url(#filter4811);opacity:0.20;fill:#000000" d="m 100.00,45 a 7,7 0 0 0 -7,7 7,7 0 0 0 7,7 7,7 0 0 0 7.00,-7 7,7 0 0 0 -7.00,-7 z M 66.97,58.49 a 7,7 0 0 0 -4.45,2.03 7,7 0 0 0 0,9.90 7,7 0 0 0 9.90,0 7,7 0 0 0 0,-9.90 7,7 0 0 0 -5.45,-2.03 z m 65.05,0 a 7,7 0 0 0 -4.45,2.03 7,7 0 0 0 0,9.90 7,7 0 0 0 9.90,0 7,7 0 0 0 0,-9.90 7,7 0 0 0 -5.45,-2.03 z M 100.00,72 a 26,26 0 0 0 -26,26 26,26 0 0 0 26,26 A 26,26 0 0 0 126.00,98 26,26 0 0 0 100.00,72 Z m -46,19 a 7,7 0 0 0 -7,7 7,7 0 0 0 7,7 7,7 0 0 0 7,-7 7,7 0 0 0 -7,-7 z m 92.00,0 a 7,7 0 0 0 -7,7 7,7 0 0 0 7,7 7,7 0 0 0 7,-7 7,7 0 0 0 -7,-7 z m -79.03,32.54 a 7,7 0 0 0 -4.45,2.03 7,7 0 0 0 0,9.90 7,7 0 0 0 9.90,0 7,7 0 0 0 0,-9.90 7,7 0 0 0 -5.45,-2.03 z m 65.05,0 a 7,7 0 0 0 -4.45,2.03 7,7 0 0 0 0,9.90 7,7 0 0 0 9.90,0 7,7 0 0 0 0,-9.90 7,7 0 0 0 -5.45,-2.03 z M 100.00,137 a 7,7 0 0 0 -7,7 7,7 0 0 0 7,7 7,7 0 0 0 7.00,-7 7,7 0 0 0 -7.00,-7 z"/>
  <path style="fill:#ffffff" d="m 100.00,43 a 7,7 0 0 0 -7,7 7,7 0 0 0 7,7 7,7 0 0 0 7.00,-7 7,7 0 0 0 -7.00,-7 z M 66.97,56.49 a 7,7 0 0 0 -4.45,2.03 7,7 0 0 0 0,9.90 7,7 0 0 0 9.90,0 7,7 0 0 0 0,-9.90 7,7 0 0 0 -5.45,-2.03 z m 65.05,0 a 7,7 0 0 0 -4.45,2.03 7,7 0 0 0 0,9.90 7,7 0 0 0 9.90,0 7,7 0 0 0 0,-9.90 7,7 0 0 0 -5.45,-2.03 z M 100.00,70 a 26,26 0 0 0 -26,26 26,26 0 0 0 26,26 A 26,26 0 0 0 126.00,96 26,26 0 0 0 100.00,70 Z m -46,19 a 7,7 0 0 0 -7,7 7,7 0 0 0 7,7 7,7 0 0 0 7,-7 7,7 0 0 0 -7,-7 z m 92.00,0 a 7,7 0 0 0 -7,7 7,7 0 0 0 7,7 7,7 0 0 0 7,-7 7,7 0 0 0 -7,-7 z m -79.03,32.54 a 7,7 0 0 0 -4.45,2.03 7,7 0 0 0 0,9.90 7,7 0 0 0 9.90,0 7,7 0 0 0 0,-9.90 7,7 0 0 0 -5.45,-2.03 z m 65.05,0 a 7,7 0 0 0 -4.45,2.03 7,7 0 0 0 0,9.90 7,7 0 0 0 9.90,0 7,7 0 0 0 0,-9.90 7,7 0 0 0 -5.45,-2.03 z M 100.00,135 a 7,7 0 0 0 -7,7 7,7 0 0 0 7,7 7,7 0 0 0 7.00,-7 7,7 0 0 0 -7.00,-7 z"/>
  <path style="opacity:0.20;fill:#ffffff" d="m 100,16 c -44.18,0 -80,35.82 -80,80 0,0.17 0.01,0.32 0.01,0.49 C 20.29,52.54 55.99,17 100,17 c 20.98,0.00 41.10,8.25 56.06,22.94 l 0.51,0.51 C 141.57,24.43 121.22,16.00 100,16 Z"/>
</svg>
