<?xml version='1.0' encoding='utf-8'?>
<svg xmlns="http://www.w3.org/2000/svg" width="192" height="192" version="1" id="svg16">
  <defs>
    <filter style="color-interpolation-filters:sRGB" id="filter867" x="0.05" width="1.10" y="0.05" height="1.10">
      <feGaussianBlur stdDeviation="3.20"/>
    </filter>
    <filter style="color-interpolation-filters:sRGB" id="filter8304" x="0.07" y="0.07" width="1.15" height="1.15">
      <feGaussianBlur stdDeviation="3.06"/>
    </filter>
    <filter style="color-interpolation-filters:sRGB" id="filter8346" x="0.07" y="0.08" width="1.15" height="1.15">
      <feGaussianBlur stdDeviation="2.97"/>
    </filter>
  </defs>
  <rect ry="80" rx="80" height="160" width="160" y="-176" x="-180" transform="matrix(0,-1,-1,0,0,0)" style="filter:url(#filter867);opacity:0.20;fill:#000000"/>
  <rect style="fill:#5664ff" transform="matrix(0,-1,-1,0,0,0)" x="-176" y="-176" width="160" height="160" rx="80" ry="80"/>
  <path style="opacity:0.10;fill:#ffffff" d="M 96 16 C 51.68 16 16 51.68 16 96 C 16 96.34 16.00 96.67 16 97 C 16 52.68 51.68 17 96 17 C 140.32 17 176 52.68 176 97 C 176.00 96.67 176 96.34 176 96 C 176 51.68 140.32 16 96 16 z "/>
  <circle style="filter:url(#filter8304);opacity:0.20;fill:#000000" cx="96" cy="98" r="49"/>
  <circle style="fill:#02a5f7" cx="96" cy="96" r="49"/>
  <g style="fill:#7ddab4">
    <path style="fill:#7ddab4" d="M 62.78 89.28 C 55.86 89.22 51.03 94.50 47.56 103.26 A 49 49 0 0 0 77.46 141.25 C 81.40 137.08 85.74 133.06 90.98 133.40 C 104.88 134.31 107.19 119.46 102.09 114.86 C 97.81 111.00 90.04 111.42 84.74 110.31 C 78.81 109.07 81.88 99.50 75.10 93.77 C 70.39 90.73 66.31 89.31 62.78 89.28 z "/>
    <circle style="fill:#7ddab4" cx="61" cy="80" r="6"/>
    <circle style="fill:#7ddab4" cx="110" cy="91" r="8"/>
    <path style="fill:#7ddab4" d="M 96 47 A 49 49 0 0 0 92.86 47.22 C 90.19 49.34 87.88 51.20 86.96 53.78 C 84.51 60.59 87.04 67.04 96.69 72.99 C 105.88 79.21 109.31 68.04 114.33 73.80 C 117.89 77.89 123.19 87.42 128.52 89.62 C 134.22 91.98 142.93 84.32 139.73 73.92 A 49 49 0 0 0 96 47 z "/>
    <path style="fill:#7ddab4" d="M 137.19 109.29 C 135.47 109.29 133.72 109.50 131.95 110.06 C 126.39 111.81 121.12 115.17 116.48 122.15 C 115.61 127.24 119.00 127.02 121.81 127.52 C 124.29 127.96 123.08 131.39 124.62 132.54 C 125.29 133.04 126.04 133.51 126.85 133.96 A 49 49 0 0 0 142.98 109.90 C 141.07 109.55 139.14 109.28 137.19 109.29 z "/>
  </g>
  <path style="filter:url(#filter8346);opacity:0.20;fill:#000000;color:#000000" d="m 129.02,50.01 c 0.55,0.02 -1.10,0.07 -1.65,0.15 -3.34,0.48 -6.71,1.77 -10.26,3.61 3.76,1.80 7.25,4.06 10.40,6.71 0.42,0.11 0.83,0.20 1.19,0.25 2.29,0.33 2.81,0.04 3.51,0.77 0.69,0.80 1.19,2.20 0.83,5.09 0.36,2.89 -1.70,6.90 -4.06,11.43 -4.73,9.06 -13.43,20.18 -24.94,30.76 -11.66,10.72 -22.65,18.90 -31.12,23.15 -4.23,2.12 -7.83,3.22 -10.23,3.38 -2.40,0.16 -3.26,0.28 -4.01,-1.15 0.74,0.86 -1.12,-1.94 0.72,-4.51 0.01,0.07 0.03,0.15 0.04,0.21 -2.67,-3.27 -4.92,-6.90 -6.68,-10.80 -1.53,3.23 -2.61,6.35 -3.09,9.43 0.71,4.54 0.07,9.38 3.07,12.87 3.00,3.48 7.59,4.81 11.98,4.52 4.40,0.30 8.96,-1.90 13.90,-4.38 9.88,-4.96 21.29,-13.61 33.37,-24.71 12.22,-11.23 21.57,-23.00 27.08,-33.54 2.75,-5.27 4.58,-10.24 5.17,-14.97 0.59,-4.73 0.17,-9.58 -3.23,-13.13 -2.67,-3.10 -6.69,-4.37 -10.56,-4.21 z"/>
  <path style="fill:#febd4f;color:#000000" d="M 129.02 48.01 C 128.47 48.03 127.92 48.09 127.37 48.16 C 124.03 48.65 120.66 49.93 117.12 51.78 C 120.87 53.57 124.36 55.83 127.51 58.49 C 127.94 58.38 128.34 58.29 128.71 58.24 C 130.99 57.91 131.52 58.20 132.21 59.00 C 132.90 59.80 133.40 61.20 133.04 64.09 C 132.68 66.98 131.34 70.99 128.98 75.52 C 124.25 84.57 115.55 95.70 104.04 106.28 C 92.38 117.00 81.39 125.18 72.92 129.43 C 68.69 131.56 65.10 132.65 62.70 132.81 C 60.29 132.97 59.44 132.53 58.69 131.66 C 57.95 130.81 57.57 129.72 57.97 127.15 C 57.98 127.08 58.00 127.01 58.01 126.94 C 55.34 123.66 53.09 120.04 51.33 116.14 C 49.80 119.37 48.72 122.49 48.24 125.57 C 47.54 130.12 48.31 134.95 51.32 138.44 C 54.32 141.92 58.90 143.26 63.30 142.96 C 67.70 142.66 72.26 141.06 77.20 138.58 C 87.08 133.62 98.49 124.97 110.57 113.87 C 122.79 102.63 132.14 90.87 137.65 80.32 C 140.40 75.05 142.23 70.08 142.82 65.35 C 143.41 60.63 142.65 55.78 139.59 52.23 C 136.92 49.13 132.90 47.86 129.02 48.01 z "/>
</svg>
