<svg xmlns="http://www.w3.org/2000/svg" id="svg14" width="192" height="192" version="1.1"><defs><filter style="color-interpolation-filters:sRGB" id="filter849" width="1.1" height="1.1" x=".05" y=".05"><feGaussianBlur stdDeviation="3.2"/></filter><filter style="color-interpolation-filters:sRGB" id="filter3245" width="1.1" height="1.1" x=".05" y=".05"><feGaussianBlur stdDeviation="2.24"/></filter><filter style="color-interpolation-filters:sRGB" id="filter3292" width="1.1" height="1.09" x=".05" y=".05"><feGaussianBlur stdDeviation="1.36"/></filter></defs><circle style="filter:url(#filter849);opacity:.2" cx="96" cy="100" r="80"/><circle style="fill:#24af34" cx="96" cy="96" r="80"/><circle style="filter:url(#filter3245);opacity:.2;fill:#000" cx="96" cy="99" r="56"/><circle style="fill:#fff" cx="96" cy="96" r="56"/><path style="filter:url(#filter3292);opacity:.2;fill:#000" d="m 72,63 c -1.66,0 -3,1.34 -3,3 v 10 c 0,1.66 1.34,3 3,3 h 10 c 1.66,0 3,-1.34 3,-3 V 66 c 0,-1.66 -1.34,-3 -3,-3 z m 29.59,0 c 0,0 -1.59,0.06 -1.59,1.72 v 12.67 c 0,0 0.16,1.58 1.49,1.65 C 111.37,79.79 119,87.90 119,98 c 0,10.10 -7.63,18.21 -17.51,18.96 C 100.16,117.03 100,118.61 100,118.61 V 131.28 C 100,132.94 101.59,133 101.59,133 120.10,132.16 135,116.72 135,98 135,79.28 120.10,63.84 101.59,63 Z M 72,95 c -1.66,0 -3,1.34 -3,3 v 32 c 0,1.66 1.34,3 3,3 h 10 c 1.66,0 3,-1.34 3,-3 V 98 c 0,-1.66 -1.34,-3 -3,-3 z"/><path style="opacity:.2;fill:#fff" d="M 96,16 A 80,80 0 0 0 16,96 80,80 0 0 0 16.02,96.64 80,80 0 0 1 96,17 80,80 0 0 1 175.98,96.30 80,80 0 0 0 176,96 80,80 0 0 0 96,16 Z"/><rect style="fill:#f23e2a" width="16" height="16" x="69" y="61" rx="3" ry="3"/><rect style="fill:#24af34" width="16" height="38" x="69" y="93" rx="3" ry="3"/><path style="fill:#008afd;color:#000" d="m 101.59,61 c 0,0 -1.59,0.06 -1.59,1.72 v 12.67 c 0,0 0.16,1.58 1.49,1.65 C 111.37,77.78 119,85.90 119,96.00 119,106.10 111.37,114.22 101.49,114.96 100.16,115.03 100,116.61 100,116.61 v 12.67 C 100,130.94 101.59,131 101.59,131 120.10,130.16 135,114.72 135,96.00 135,77.28 120.10,61.84 101.59,61 Z"/></svg>