<?xml version='1.0' encoding='utf-8'?>
<svg xmlns="http://www.w3.org/2000/svg" width="192" height="192" version="1.1" id="svg14">
  <defs>
    <filter style="color-interpolation-filters:sRGB" id="filter849" x="0.05" y="0.05" width="1.10" height="1.10">
      <feGaussianBlur stdDeviation="3.20"/>
    </filter>
    <filter style="color-interpolation-filters:sRGB" id="filter4080" x="0.05" y="0.05" width="1.10" height="1.10">
      <feGaussianBlur stdDeviation="1.88"/>
    </filter>
  </defs>
  <rect style="filter:url(#filter849);opacity:0.20" width="160" height="160" x="16" y="20" rx="32" ry="32"/>
  <rect style="fill:#ef4130" width="160" height="160" x="16" y="16" rx="32" ry="32"/>
  <path style="opacity:0.20;fill:#ffffff" d="M 48,16 C 30.27,16 16,30.27 16,48 v 1 C 16,31.27 30.27,17 48,17 h 96 c 17.73,0 32,14.27 32,32 V 48 C 176,30.27 161.73,16 144,16 Z"/>
  <path style="filter:url(#filter4080);opacity:0.20;fill:#000000" d="m 78.83,51.00 c 0,0 4.13,10.90 8.98,22.88 4.85,11.98 8.82,21.95 8.82,22.17 0,0.21 0.46,0.48 -1.02,0.59 0.56,0.11 -2.34,0.85 -3.95,1.63 -5.34,2.59 -9.23,7.35 -9.69,11.84 0.47,4.59 2.04,8.24 6.50,9.44 2.39,0.64 4.20,0.61 7.06,0.12 6.11,-1.56 11.17,-6.39 12.88,-12 0.55,-1.82 0.64,-2.70 0.50,-5.22 0.21,-3.76 0.09,-3.44 -8.23,-23.27 -3.58,-8.72 -6.68,-16.93 -6.66,-16.93 h 11.25 11.20 l -2.92,-5.35 -2.92,-5.65 H 94.66 Z m -11.65,24 -7.31,12.67 c -4.02,6.97 -7.73,13.67 -8.24,14.88 -2.30,5.45 -3.14,11.43 -2.34,16.66 2.08,13.54 12.30,23.12 26.99,25.29 2.28,0.34 10.77,0.50 19.71,0.49 8.94,0.01 17.43,0.16 19.71,0.49 14.69,-2.17 24.91,-11.75 26.99,-25.29 0.80,-5.23 0.04,-11.21 -2.34,-16.66 0.51,-1.21 -4.22,-7.91 -8.24,-14.88 l -7.31,-12.67 h -5.66 -6.56 l 0.38,0.70 c 0.25,0.36 3.83,6.68 8.05,13.98 8.58,14.86 9.15,15.90 10.11,18.76 0.93,2.76 1.17,7.82 0.53,10.83 -1.51,7.07 -6.45,11.94 -14.34,13.96 -2.52,0.65 -6.77,0.63 -21.33,0.76 -14.56,0.13 -18.81,0.11 -21.33,0.76 -7.89,-2.03 -12.83,-6.90 -14.34,-13.96 0.64,-3.01 0.41,-8.07 0.53,-10.83 0.96,-2.85 1.53,-3.90 10.11,-18.76 4.22,-7.30 7.80,-13.62 8.05,-13.98 l 0.38,0.70 h -6.56 z"/>
  <path style="fill:#fdfcfc" d="M 78.83 49 C 78.83 49 82.96 59.90 87.82 71.88 C 92.67 83.86 96.64 93.84 96.64 94.05 C 96.64 94.26 96.18 94.52 95.62 94.63 C 95.06 94.75 93.28 95.48 91.67 96.26 C 86.34 98.86 82.45 103.61 81.98 108.11 C 81.51 112.70 84.02 116.35 88.48 117.54 C 90.87 118.19 92.68 118.15 95.54 117.42 C 101.65 115.86 106.71 111.03 108.42 105.42 C 108.97 103.60 109.05 102.72 108.92 100.21 C 108.71 96.44 108.82 96.77 100.68 76.93 C 97.11 68.22 94.00 60 94.02 60 L 105.27 60 L 116.47 60 L 113.55 54.65 L 110.64 49 L 94.66 49 L 78.83 49 z M 67.18 73 L 59.87 85.67 C 55.85 92.64 52.15 99.34 51.63 100.55 C 49.33 106.01 48.49 111.98 49.30 117.21 C 51.38 130.76 61.60 140.34 76.29 142.51 C 78.57 142.84 87.06 143.01 96 143 C 104.94 143.01 113.43 142.84 115.71 142.51 C 130.40 140.34 140.62 130.76 142.70 117.21 C 143.51 111.98 142.67 106.01 140.37 100.55 C 139.85 99.34 136.15 92.64 132.13 85.67 L 124.82 73 L 119.16 73 L 112.61 73 L 112.98 73.70 C 113.23 74.07 116.81 80.38 121.03 87.69 C 129.62 102.54 130.18 103.59 131.14 106.44 C 132.08 109.21 132.31 114.27 131.67 117.28 C 130.16 124.34 125.22 129.21 117.33 131.24 C 114.81 131.89 110.56 131.87 96 132 C 81.44 131.87 77.19 131.89 74.67 131.24 C 66.78 129.21 61.84 124.34 60.33 117.28 C 59.69 114.27 59.92 109.21 60.86 106.44 C 61.82 103.59 62.38 102.54 70.97 87.69 C 75.19 80.38 78.77 74.07 79.02 73.70 L 79.39 73 L 72.84 73 L 67.18 73 z "/>
</svg>
