<svg xmlns="http://www.w3.org/2000/svg" id="svg22" width="192" height="192" version="1"><defs><filter style="color-interpolation-filters:sRGB" id="filter862" width="1.1" height="1.1" x=".05" y=".05"><feGaussianBlur stdDeviation="3.2"/></filter><filter style="color-interpolation-filters:sRGB" id="filter885" width="1.09" height="1.1" x=".05" y=".05"><feGaussianBlur stdDeviation="2.16"/></filter></defs><rect style="filter:url(#filter862);opacity:.2;fill:#000" width="160" height="160" x="-180" y="-176" rx="8" ry="8" transform="matrix(0,-1,-1,0,0,0)"/><rect width="160" height="160" x="-176" y="-176" rx="8" ry="8" transform="matrix(0,-1,-1,0,0,0)" style="fill:#4f4f4f"/><path style="opacity:.1;fill:#fff" d="M 24 16 C 19.57 16 16 19.57 16 24 L 16 25 C 16 20.57 19.57 17 24 17 L 168 17 C 172.43 17 176 20.57 176 25 L 176 24 C 176 19.57 172.43 16 168 16 L 24 16 z"/><path d="m 88.09,45.89 a 8.00,8.00 0 0 0 -7.90,6.34 L 76.16,70.00 H 56 a 8.00,8.00 0 1 0 0,16 h 16.52 l -5.45,24 H 48 a 8.00,8.00 0 1 0 0,16 h 15.43 l -3.23,14.23 a 8.00,8.00 0 0 0 15.61,3.55 L 79.84,126.00 H 99.44 l -3.23,14.23 a 8.00,8.00 0 1 0 15.60,3.55 l 4.04,-17.77 H 136 a 8.00,8.00 0 1 0 0,-16 h -16.52 l 5.45,-24 H 144 a 8.00,8.00 0 1 0 0,-16 h -15.43 l 3.23,-14.23 a 8.00,8.00 0 0 0 -7.71,-9.88 8.00,8.00 0 0 0 -7.89,6.34 L 112.16,70.00 H 92.57 L 95.80,55.78 A 8.00,8.00 0 0 0 88.09,45.89 Z M 88.94,86.00 h 19.59 l -5.45,24 H 83.48 Z" style="filter:url(#filter885);opacity:.2"/><g><path d="M 22,13 17,35" transform="scale(4)" style="fill:none;stroke:#fff;stroke-width:4;stroke-linecap:round"/><path d="m 31.00,13 -5,22" transform="scale(4)" style="fill:none;stroke:#fff;stroke-width:4;stroke-linecap:round"/><path d="m 14,19 22,0.00" transform="scale(4)" style="fill:none;stroke:#fff;stroke-width:4;stroke-linecap:round"/><path d="m 12.00,29.00 22,0.00" transform="scale(4)" style="fill:none;stroke:#fff;stroke-width:4;stroke-linecap:round"/></g></svg>