<?xml version='1.0' encoding='utf-8'?>
<svg xmlns="http://www.w3.org/2000/svg" width="192" height="192" version="1" id="svg12">
  <defs>
    <filter style="color-interpolation-filters:sRGB" id="filter852" x="0.05" width="1.10" y="0.05" height="1.10">
      <feGaussianBlur stdDeviation="3.36"/>
    </filter>
    <filter style="color-interpolation-filters:sRGB" id="filter2433" x="0.07" y="0.07" width="1.15" height="1.15">
      <feGaussianBlur stdDeviation="3.56"/>
    </filter>
  </defs>
  <path style="filter:url(#filter852);opacity:0.20" d="m 96.00,16.00 c -4.40,0 -8.80,1.64 -12.09,4.93 L 16.93,87.91 c -6.58,6.58 -6.57,17.59 0.01,24.17 l 66.98,66.98 c 6.58,6.58 17.60,6.59 24.18,0.01 l 66.98,-66.98 c 6.58,-6.58 6.58,-17.60 0,-24.18 L 108.09,20.93 c -3.29,-3.29 -7.69,-4.93 -12.09,-4.93 z"/>
  <path style="fill:#ee1750" d="m 96.00,12.00 c -4.40,0 -8.80,1.64 -12.09,4.93 L 16.93,83.91 c -6.58,6.58 -6.57,17.59 0.01,24.17 l 66.98,66.98 c 6.58,6.58 17.60,6.59 24.18,0.01 l 66.98,-66.98 c 6.58,-6.58 6.58,-17.60 0,-24.18 L 108.09,16.93 c -3.29,-3.29 -7.69,-4.93 -12.09,-4.93 z"/>
  <path style="filter:url(#filter2433);opacity:0.20;fill:#000000" d="M 96,42 A 13,13 0 0 0 83,55 13,13 0 0 0 96,68 13,13 0 0 0 109,55 13,13 0 0 0 96,42 Z M 74,64 A 13,13 0 0 0 61,77 13,13 0 0 0 74,90 13,13 0 0 0 87,77 13,13 0 0 0 74,64 Z m 44,0 A 13,13 0 0 0 105,77 13,13 0 0 0 118,90 13,13 0 0 0 131,77 13,13 0 0 0 118,64 Z M 52,86 A 13,13 0 0 0 39,99 13,13 0 0 0 52,112 13,13 0 0 0 65,99 13,13 0 0 0 52,86 Z m 44,0 A 13,13 0 0 0 83,99 13,13 0 0 0 96,112 13,13 0 0 0 109,99 13,13 0 0 0 96,86 Z m 44,0 a 13,13 0 0 0 -13,13 13,13 0 0 0 13,13 13,13 0 0 0 13,-13 13,13 0 0 0 -13,-13 z m -66,22 a 13,13 0 0 0 -13,13 13,13 0 0 0 13,13 13,13 0 0 0 13,-13 13,13 0 0 0 -13,-13 z m 44,0 a 13,13 0 0 0 -13,13 13,13 0 0 0 13,13 13,13 0 0 0 13,-13 13,13 0 0 0 -13,-13 z m -22,22 a 13,13 0 0 0 -13,13 13,13 0 0 0 13,13 13,13 0 0 0 13,-13 13,13 0 0 0 -13,-13 z"/>
  <path style="opacity:0.20;fill:#ffffff" d="M 96 12 C 91.60 12 87.20 13.64 83.91 16.93 L 16.93 83.91 C 13.56 87.28 11.99 91.79 12.09 96.29 C 12.23 92.13 13.81 88.03 16.93 84.91 L 83.91 17.93 C 87.20 14.64 91.60 13 96 13 C 100.40 13 104.80 14.64 108.09 17.93 L 175.06 84.91 C 178.18 88.03 179.77 92.15 179.92 96.31 C 180.01 91.81 178.43 87.28 175.06 83.91 L 108.09 16.93 C 104.80 13.64 100.40 12 96 12 z "/>
  <circle style="fill:#ffffff" cx="96" cy="96" r="13"/>
  <circle style="fill:#ffffff" cx="52" cy="96" r="13"/>
  <circle style="fill:#ffffff" cx="74" cy="74" r="13"/>
  <circle style="fill:#acdb2b" cx="96" cy="52" r="13"/>
  <circle style="fill:#ffffff" cx="-140" cy="96" r="13" transform="scale(-1,1)"/>
  <circle style="fill:#ffffff" cx="-118" cy="74" r="13" transform="scale(-1,1)"/>
  <circle style="fill:#ffffff" cx="74" cy="-118" r="13" transform="scale(1,-1)"/>
  <circle style="fill:#ffffff" cx="96" cy="-140" r="13" transform="scale(1,-1)"/>
  <circle style="fill:#ffffff" cx="-118" cy="-118" r="13" transform="scale(-1)"/>
</svg>
