<?xml version='1.0' encoding='utf-8'?>
<svg xmlns="http://www.w3.org/2000/svg" width="192" height="192" version="1" id="svg14">
  <defs>
    <filter style="color-interpolation-filters:sRGB" id="filter850" x="0.05" width="1.10" y="0.05" height="1.10">
      <feGaussianBlur stdDeviation="3.20"/>
    </filter>
    <filter style="color-interpolation-filters:sRGB" id="filter9967" x="0.07" y="0.07" width="1.15" height="1.15">
      <feGaussianBlur stdDeviation="2.81"/>
    </filter>
  </defs>
  <circle style="filter:url(#filter850);opacity:0.20;fill:#000000" cx="96" cy="100" r="80"/>
  <circle r="80" cy="96" cx="96" style="fill:#00caff"/>
  <circle style="fill:#3f3f3f" cx="96" cy="96" r="65"/>
  <path style="opacity:0.20;fill:#ffffff" d="M 96 16 A 80 80 0 0 0 16 96 A 80 80 0 0 0 16.02 96.47 A 80 80 0 0 1 96 17 A 80 80 0 0 1 175.97 96.51 A 80 80 0 0 0 176 96 A 80 80 0 0 0 96 16 z "/>
  <circle style="fill:#00caff" cx="96" cy="96" r="40.50"/>
  <path style="filter:url(#filter9967);opacity:0.20;fill:#000000" d="M 96,53 A 45,45 0 0 0 51,98 45,45 0 0 0 96,143 45,45 0 0 0 141,98 45,45 0 0 0 96,53 Z m 0,5 A 40,40 0 0 1 136,98 40,40 0 0 1 96,138 40,40 0 0 1 56,98 40,40 0 0 1 96,58 Z m 0,13 c -14.91,0 -27,12.09 -27,27 0.03,9.98 5.55,19.03 14.16,23.68 2.53,1.04 4.69,2.34 5.84,4.74 1.53,3.26 1,7.12 1,10.58 15.81,-4.60 24.59,-13.19 30.40,-27.49 0.75,-1.62 1.34,-3.30 1.75,-5.04 C 122.75,102.38 122.97,100.04 123,98 123,83.09 110.91,71 96,71 Z"/>
  <path style="fill:#ffffff" d="M 96 51 A 45 45 0 0 0 51 96 A 45 45 0 0 0 96 141 A 45 45 0 0 0 141 96 A 45 45 0 0 0 96 51 z M 96 56 A 40 40 0 0 1 136 96 A 40 40 0 0 1 96 136 A 40 40 0 0 1 56 96 A 40 40 0 0 1 96 56 z M 96 69 C 81.09 69 69 81.09 69 96 C 69.03 105.98 74.55 115.03 83.16 119.68 C 85.70 120.72 87.85 122.03 89 124.42 C 90.53 127.68 90 131.54 90 135 C 105.81 130.40 114.59 121.81 120.40 107.51 C 121.15 105.90 121.74 104.21 122.15 102.48 C 122.75 100.38 122.97 98.04 123 96 C 123 81.09 110.91 69 96 69 z "/>
</svg>
