<?xml version='1.0' encoding='utf-8'?>
<svg xmlns="http://www.w3.org/2000/svg" width="192" height="192" version="1" id="svg18">
  <defs>
    <filter style="color-interpolation-filters:sRGB" id="filter855" x="0.05" width="1.10" y="0.05" height="1.10">
      <feGaussianBlur stdDeviation="3.17"/>
    </filter>
    <filter style="color-interpolation-filters:sRGB" id="filter871" x="0.05" width="1.10" y="0.05" height="1.10">
      <feGaussianBlur stdDeviation="2.24"/>
    </filter>
    <filter style="color-interpolation-filters:sRGB" id="filter890" x="0.05" width="1.10" y="0.05" height="1.09">
      <feGaussianBlur stdDeviation="1.68"/>
    </filter>
  </defs>
  <path style="filter:url(#filter855);opacity:0.20;fill:#000000" d="m 76,23 c -1.10,0.00 -2.19,0.15 -3.25,0.45 0.12,0.03 0.20,0.02 0.32,0.06 C 39.69,33.53 16,63.89 16,100 c 0,44.32 35.68,80 80,80 44.32,0 80,-35.68 80,-80 0,-3.22 0.21,-6.38 0.59,-9.49 0.01,0.10 0.01,0.20 0.02,0.30 0.00,0.02 0.01,0.05 0.02,0.07 0.01,0.05 0.01,0.10 0.02,0.16 0.03,0.27 0.12,0.45 0.17,0.69 -1.15,-5.43 -5.92,-9.52 -11.70,-9.52 -6.63,0 -12,5.37 -12,12 0,0.49 0.02,0.97 0.08,1.44 0.00,0.04 0.02,0.07 0.02,0.11 0.00,0.03 0.00,0.05 0,0.08 0.26,2.19 -9.94,4.40 -9.94,6.61 0,30.93 -16.02,45.22 -46.95,45.22 -30.93,0 -38.76,-13.43 -38.76,-44.36 0.03,-24.97 0.55,-47.39 23.84,-54.41 C 80.21,46.32 80.51,46.17 80.75,46.01 85.15,44.11 88.00,39.79 88,35.00 88,28.37 82.63,23.00 76,23 Z"/>
  <path d="m 76,19 c -1.10,0.00 -2.19,0.15 -3.25,0.45 0.12,0.03 0.20,0.02 0.32,0.06 C 39.69,29.53 16,59.89 16,96 c 0,44.32 35.68,80 80,80 44.32,0 80,-35.68 80,-80 0,-3.22 0.21,-6.38 0.59,-9.49 0.01,0.10 0.01,0.20 0.02,0.30 0.00,0.02 0.01,0.05 0.02,0.07 0.01,0.05 0.01,0.10 0.02,0.16 0.03,0.27 0.12,0.45 0.17,0.69 -1.15,-5.43 -5.92,-9.52 -11.70,-9.52 -6.63,0 -12,5.37 -12,12 0,0.49 0.02,0.97 0.08,1.44 0.00,0.04 0.02,0.07 0.02,0.11 0.00,0.03 0.00,0.05 0,0.08 0.26,2.19 -9.94,4.40 -9.94,6.61 0,30.93 -16.02,45.22 -46.95,45.22 -30.93,0 -38.76,-13.43 -38.76,-44.36 0.03,-24.97 0.55,-47.39 23.84,-54.41 C 80.21,42.32 80.51,42.17 80.75,42.01 85.15,40.11 88.00,35.79 88,31.00 88,24.37 82.63,19.00 76,19 Z" style="fill:#3eb5ea"/>
  <circle r="56" cy="100" cx="96" style="filter:url(#filter871);opacity:0.10"/>
  <circle r="56" cy="96" cx="96" style="fill:#545454"/>
  <path d="M 106.10,12.00 A 9.86,9.72 0 0 0 96,21.71 v 68.58 a 9.86,9.72 0 0 0 14.79,8.41 L 140.95,81.57 171.09,64.41 a 9.86,9.72 0 0 0 0,-16.80 l -30.14,-17.16 -30.16,-17.13 a 9.86,9.72 0 0 0 -4.69,-1.32 z" style="filter:url(#filter890);opacity:0.20"/>
  <path d="M 106.10,8.00 A 9.86,9.72 0 0 0 96,17.71 v 68.58 a 9.86,9.72 0 0 0 14.79,8.41 L 140.95,77.57 171.09,60.41 a 9.86,9.72 0 0 0 0,-16.80 L 140.95,26.45 110.79,9.32 a 9.86,9.72 0 0 0 -4.69,-1.32 z" style="fill:#fdfdfd"/>
  <path style="opacity:0.10;fill:#ffffff" d="M 76 19 C 74.90 19.00 73.81 19.15 72.75 19.45 C 72.63 19.48 72.55 19.48 72.43 19.52 C 39.69 29.53 16 59.89 16 96 C 16 96.15 16.01 96.30 16.01 96.45 C 16.25 60.58 39.85 30.48 72.43 20.52 C 72.55 20.48 72.63 20.48 72.75 20.45 C 73.81 20.15 74.90 20.00 76 20 C 82.46 20 87.71 25.10 87.97 31.49 C 87.98 31.33 88.00 31.16 88 31 C 88 24.37 82.63 19 76 19 z M 163.49 75.77 C 156.86 75.77 151.49 81.14 151.49 87.77 C 151.49 87.93 151.51 88.09 151.52 88.25 C 151.79 81.86 157.04 76.77 163.49 76.77 C 169.26 76.77 174.04 80.86 175.19 86.29 C 175.24 86.53 175.32 86.70 175.36 86.98 C 175.37 87.03 175.37 87.08 175.38 87.13 C 175.38 87.16 175.39 87.18 175.39 87.20 C 175.40 87.30 175.40 87.41 175.41 87.51 C 175.77 90.42 175.97 93.39 175.99 96.40 C 175.99 96.27 176 96.13 176 96 C 176 92.78 175.79 89.62 175.41 86.51 C 175.40 86.41 175.40 86.30 175.39 86.20 C 175.39 86.18 175.38 86.16 175.38 86.13 C 175.37 86.08 175.37 86.03 175.36 85.98 C 175.32 85.70 175.24 85.53 175.19 85.29 C 174.04 79.86 169.26 75.77 163.49 75.77 z "/>
</svg>
