<?xml version='1.0' encoding='utf-8'?>
<svg xmlns="http://www.w3.org/2000/svg" width="192" height="192" version="1" id="svg20">
  <defs>
    <filter style="color-interpolation-filters:sRGB" id="filter859" x="0.05" width="1.10" y="0.05" height="1.10">
      <feGaussianBlur stdDeviation="3.20"/>
    </filter>
    <filter style="color-interpolation-filters:sRGB" id="filter882" x="0.05" width="1.09" y="0.05" height="1.10">
      <feGaussianBlur stdDeviation="3.16"/>
    </filter>
    <filter style="color-interpolation-filters:sRGB" id="filter898" x="0.05" width="1.10" y="0.05" height="1.10">
      <feGaussianBlur stdDeviation="2.24"/>
    </filter>
  </defs>
  <rect style="filter:url(#filter859);opacity:0.20;fill:#000000" width="160" height="160" x="-180" y="-176" rx="8" ry="8" transform="matrix(0,-1,-1,0,0,0)"/>
  <rect transform="matrix(0,-1,-1,0,0,0)" ry="8" rx="8" y="-176" x="-176" height="160" width="160" style="fill:#f96413"/>
  <path d="m 24,20 c -4.43,0 -8,3.57 -8,8 v 3.31 L 84.69,100 16.06,168.62 C 16.38,172.76 19.78,176 24,176 h 7.31 L 96,111.31 160.69,176 H 168 c 4.22,0 7.62,-3.24 7.94,-7.38 L 107.31,100 176,31.31 V 28 c 0,-4.43 -3.57,-8 -8,-8 h -3.31 L 96,88.69 27.31,20 Z m 28,0 V 44 H 68 V 20 Z m 36,0 v 24 h 16 V 20 Z m 36,0 v 24 h 16 V 20 Z M 16,56 V 72 H 40 V 56 Z m 136,0 v 16 h 24 V 56 Z M 16,92 v 16 H 40 V 92 Z m 136,0 v 16 h 24 V 92 Z M 16,128 v 16 h 24 v -16 z m 136,0 v 16 h 24 V 128 Z M 52,156 v 20 h 16 v -20 z m 36,0 v 20 h 16 v -20 z m 36,0 v 20 h 16 v -20 z" style="filter:url(#filter882);opacity:0.20"/>
  <path d="m 24,16 c -4.43,0 -8,3.57 -8,8 v 3.31 L 84.69,96 16,164.69 V 168 c 0,4.43 3.57,8 8,8 h 3.31 L 96,107.31 164.69,176 H 168 c 4.43,0 8,-3.57 8,-8 v -3.31 L 107.31,96 176,27.31 V 24 c 0,-4.43 -3.57,-8 -8,-8 h -3.31 L 96,84.69 27.31,16 Z m 28,0 V 40.70 H 68 V 16 Z m 36,0 v 24.70 h 16 V 16 Z m 36,0 v 24.70 h 16 V 16 Z M 16,52 V 68 H 40.40 V 52 Z m 135.60,0 V 68 H 176 V 52 Z M 16,88 v 16 H 40.40 V 88 Z m 135.60,0 v 16 H 176 V 88 Z M 16,124 v 16 h 24.40 v -16 z m 135.60,0 v 16 H 176 V 124 Z M 52,151.60 V 176 h 16 v -24.40 z m 36,0 V 176 h 16 v -24.40 z m 36,0 V 176 h 16 v -24.40 z" style="fill:#ffd04f"/>
  <rect ry="16" rx="16" y="44" x="40" height="112" width="112" style="filter:url(#filter898);opacity:0.20"/>
  <rect ry="16" rx="16" y="40" x="40" height="112" width="112" style="fill:#ffffff"/>
  <path d="m 74.41,64.00 c -2.18,0.04 -2.55,2.76 -2.37,4.78 0.02,18.93 0.03,37.86 0.02,56.78 0.19,2.26 2.62,3.17 4.00,1.76 C 90.84,117.64 112.32,108.02 127.07,98.28 128.68,96.94 128.06,93.82 126.27,93.18 111.50,83.52 90.06,73.82 75.28,64.20 c 0.28,0.13 0.57,0.20 0.87,0.20 z" style="fill:#f96413"/>
  <path style="opacity:0.20;fill:#ffffff" d="M 24 16 C 19.57 16 16 19.57 16 24 L 16 25 C 16 20.57 19.57 17 24 17 L 168 17 C 172.43 17 176 20.57 176 25 L 176 24 C 176 19.57 172.43 16 168 16 L 24 16 z "/>
</svg>
