<?xml version='1.0' encoding='utf-8'?>
<svg xmlns="http://www.w3.org/2000/svg" width="192" height="192" version="1" id="svg16">
  <defs>
    <filter style="color-interpolation-filters:sRGB" id="filter867" x="0.05" width="1.10" y="0.05" height="1.10">
      <feGaussianBlur stdDeviation="3.20"/>
    </filter>
    <filter style="color-interpolation-filters:sRGB" id="filter3291" x="0.10" y="0.06" width="1.20" height="1.12">
      <feGaussianBlur stdDeviation="3.80"/>
    </filter>
  </defs>
  <rect ry="80" rx="80" height="160" width="160" y="-176" x="-180" transform="matrix(0,-1,-1,0,0,0)" style="filter:url(#filter867);opacity:0.20;fill:#000000"/>
  <rect style="fill:#39c2d5" transform="matrix(0,-1,-1,0,0,0)" x="-176" y="-176" width="160" height="160" rx="80" ry="80"/>
  <path style="filter:url(#filter3291);opacity:0.20;fill:#000000" d="M 70,22.31 C 62.81,24.77 56.09,28.21 50,32.49 V 158.51 c 6.09,4.28 12.81,7.72 20,10.17 V 72.02 c 16.72,0.42 34.51,0.48 45.50,8.84 C 121.17,87.37 122,95.27 122,105.28 v 63.40 c 7.19,-2.45 13.91,-5.90 20,-10.17 V 108.48 C 142.38,95.78 141.20,84.67 135.31,77.93 120.10,60.92 89.77,61.96 70,62.00 Z"/>
  <path style="fill:#ffffff" d="M 70,20.31 C 62.81,22.77 56.09,26.21 50,30.49 V 161.51 c 6.09,4.28 12.81,7.72 20,10.17 V 70.02 c 16.72,0.42 34.51,0.48 45.50,8.84 C 121.17,85.37 122,93.27 122,103.28 v 68.41 c 7.19,-2.45 13.91,-5.90 20,-10.17 V 106.48 C 142.38,93.78 141.20,82.67 135.31,75.93 120.10,58.91 89.77,59.96 70,60.00 Z"/>
  <path style="opacity:0.20;fill:#ffffff" d="M 96 16 C 51.68 16 16 51.68 16 96 C 16 96.34 16.00 96.67 16 97 C 16 52.68 51.68 17 96 17 C 140.32 17 176 52.68 176 97 C 176.00 96.67 176 96.34 176 96 C 176 51.68 140.32 16 96 16 z "/>
</svg>
