<?xml version='1.0' encoding='utf-8'?>
<svg xmlns="http://www.w3.org/2000/svg" width="192" height="192" version="1.1" id="svg12">
  <defs>
    <filter style="color-interpolation-filters:sRGB" id="filter845" x="-0.048000001" y="-0.048000001" width="1.096" height="1.096">
      <feGaussianBlur stdDeviation="3.2"/>
    </filter>
    <filter style="color-interpolation-filters:sRGB" id="filter849" x="-0.052800745" y="-0.043999483" width="1.1056015" height="1.087999">
      <feGaussianBlur stdDeviation="2.0533092"/>
    </filter>
  </defs>
  <circle style="filter:url(#filter845);opacity:0.2" cx="96" cy="100" r="80"/>
  <circle style="fill:#765ffc" cx="96" cy="96" r="80"/>
  <path style="opacity:0.1;fill:#ffffff" d="M 96 16 A 80 80 0 0 0 16 96 A 80 80 0 0 0 16.023438 96.638672 A 80 80 0 0 1 96 17 A 80 80 0 0 1 175.98438 96.302734 A 80 80 0 0 0 176 96 A 80 80 0 0 0 96 16 z "/>
  <path style="filter:url(#filter849);opacity:0.2" d="m 49.33454,128.04702 17.22242,-13.19349 c 9.150092,11.94213 18.871612,17.44665 29.692588,17.44665 10.763112,0 20.209772,-5.43942 28.947562,-17.28752 l 17.46835,12.87522 C 130.05786,144.97288 114.3906,154 96.249548,154 78.166368,154 62.3472,145.03076 49.33454,128.04702 Z M 96.191684,70.701628 65.537068,97.11754 51.367088,80.683544 96.256784,42 140.79204,80.712476 126.55696,97.088608 Z"/>
  <path style="fill:#ffffff" d="m 49.33454,126.04702 17.22242,-13.19349 c 9.150092,11.94213 18.871612,17.44665 29.692588,17.44665 10.763112,0 20.209772,-5.43942 28.947562,-17.28752 l 17.46835,12.87522 C 130.05786,142.97288 114.3906,152 96.249548,152 78.166368,152 62.3472,143.03076 49.33454,126.04702 Z M 96.191684,68.701628 65.537068,95.11754 51.367088,78.683544 96.256784,40 140.79204,78.712476 126.55696,95.088608 Z"/>
</svg>
