<?xml version='1.0' encoding='utf-8'?>
<svg xmlns="http://www.w3.org/2000/svg" width="192" height="192" version="1" id="svg14">
  <defs>
    <filter style="color-interpolation-filters:sRGB" id="filter2346" x="0.05" y="0.05" width="1.10" height="1.10">
      <feGaussianBlur stdDeviation="3.20"/>
    </filter>
    <filter style="color-interpolation-filters:sRGB" id="filter2429" x="0.11" y="0.06" width="1.23" height="1.11">
      <feGaussianBlur stdDeviation="3.28"/>
    </filter>
  </defs>
  <path style="filter:url(#filter2346);opacity:0.20;fill:#000000" d="M 18.58,20 C 17.18,20 16.04,21.12 16,22.51 l 0.02,78.51 c 1.06,43.20 35.93,78.66 79.37,78.98 0.06,0.00 0.11,0.00 0.17,0.00 h 0.88 C 140.42,179.76 176,144.04 176,100 176,56.49 141.26,21.09 98,20.03 V 20 H 82.98 72 Z"/>
  <path style="fill:#38adfa" d="m 688.81,257.00 c 0.33,0.33 -1.19,0.37 -1.92,0.08 0.80,0.32 0.56,0.56 0.60,0.60 1.05,0.04 1.64,0.19 1.31,0.53 z"/>
  <path style="fill:#23a3f8" d="M 18.58 16 C 17.18 16 16.04 17.12 16 18.51 L 16.02 97.02 C 17.08 140.22 51.96 175.68 95.39 176.00 C 95.45 176.00 95.50 176 95.56 176 L 96.44 176 C 140.42 175.76 176 140.04 176 96 C 176 52.49 141.26 17.09 98 16.03 L 98 16 L 82.98 16 L 72 16 L 18.58 16 z "/>
  <path style="filter:url(#filter2429);opacity:0.20;fill:#000000" d="m 85,18 v 105 c 0,1.79 0.73,6.71 0.73,6.71 C 88.94,146.11 103.29,157.96 120,158 c 19.33,0 35,-15.67 35,-35 C 155,103.67 139.33,88 120,88 109.04,87.54 101.37,87.71 97.62,87.86 95.09,87.86 95,85.06 95,85.06 V 18 Z"/>
  <path style="fill:#ffffff" d="M 85 16 L 85 121 C 85 122.79 85.73 127.71 85.73 127.71 C 88.94 144.11 103.29 155.96 120 156 C 139.33 156 155 140.33 155 121 C 155 101.67 139.33 86 120 86 C 109.04 85.54 101.37 85.71 97.62 85.86 C 95.09 85.86 95 83.06 95 83.06 L 95 16 L 85 16 z "/>
  <path style="opacity:0.20;fill:#ffffff" d="M 18.58 16 C 17.18 16 16.04 17.12 16 18.51 L 16 19.51 C 16.04 18.12 17.18 17 18.58 17 L 72 17 L 82.98 17 L 98 17 L 98 17.03 C 141.09 18.09 175.72 53.22 175.99 96.50 C 175.99 96.33 176 96.17 176 96 C 176 52.49 141.26 17.09 98 16.03 L 98 16 L 82.98 16 L 72 16 L 18.58 16 z "/>
</svg>
