<?xml version='1.0' encoding='utf-8'?>
<svg xmlns="http://www.w3.org/2000/svg" version="1.1" width="192" height="192" id="svg6">
  <defs>
    <filter style="color-interpolation-filters:sRGB" id="filter2327" x="0.05" y="0.05" width="1.10" height="1.10">
      <feGaussianBlur stdDeviation="3.20"/>
    </filter>
    <filter style="color-interpolation-filters:sRGB" id="filter6827" x="0.05" y="0.05" width="1.10" height="1.10">
      <feGaussianBlur stdDeviation="2.30"/>
    </filter>
  </defs>
  <rect style="filter:url(#filter2327);opacity:0.20;fill:#000000;stop-color:#000000" width="160" height="160" x="16" y="20" rx="20" ry="20"/>
  <rect style="fill:#0a66c2;stop-color:#000000" width="160" height="160" x="16" y="16" rx="20" ry="20"/>
  <path style="opacity:0.10;fill:#ffffff;stop-color:#000000" d="M 36,16 C 24.92,16 16,24.92 16,36 v 1 C 16,25.92 24.92,17 36,17 h 120 c 11.08,0 20,8.92 20,20 v -1 c 0,-11.08 -8.92,-20 -20,-20 z"/>
  <path style="filter:url(#filter6827);opacity:0.20;fill:#000000;stop-color:#000000" d="M 51.50,40 A 13.50,13.50 0 0 0 38,53.50 13.50,13.50 0 0 0 51.50,67 13.50,13.50 0 0 0 65,53.50 13.50,13.50 0 0 0 51.50,40 Z M 39,77 v 78 H 64 V 77 Z m 37,0 V 78.40 155 h 23 2 v -41 c 0,-11.02 6.14,-16.43 14.59,-17 10.76,0.12 13.40,6.31 13.41,16.65 V 155 h 24 V 105.06 C 153,95.24 150.30,88.13 144.90,83.73 139.50,79.25 132.32,77 123.36,77 c -5.19,0 -10.14,0.89 -14.82,2.67 -2.90,1.13 -5.41,2.69 -7.54,4.67 V 77 Z"/>
  <path style="fill:#ffffff;stop-color:#000000" d="M 51.50,38 A 13.50,13.50 0 0 0 38,51.50 13.50,13.50 0 0 0 51.50,65 13.50,13.50 0 0 0 65,51.50 13.50,13.50 0 0 0 51.50,38 Z M 39,75 v 78 H 64 V 75 Z m 37,0 V 76.40 153 h 23 2 v -41 c 0,-11.02 6.14,-16.43 14.59,-17 10.76,0.12 13.40,6.31 13.41,16.65 V 153 h 24 V 103.06 C 153,93.24 150.30,86.13 144.90,81.73 139.50,77.25 132.32,75 123.36,75 c -5.19,0 -10.14,0.89 -14.82,2.67 -2.90,1.13 -5.41,2.69 -7.54,4.67 V 75 Z"/>
  <g aria-label="n" style="opacity:0.60" transform="matrix(0.99,0,0,0.91,0.92,12.03)"/>
</svg>
