<?xml version='1.0' encoding='utf-8'?>
<svg xmlns="http://www.w3.org/2000/svg" width="192" height="192" version="1" id="svg14">
  <defs>
    <filter style="color-interpolation-filters:sRGB" id="filter850" x="-0.048000001" width="1.096" y="-0.048000001" height="1.096">
      <feGaussianBlur stdDeviation="3.2"/>
    </filter>
    <filter style="color-interpolation-filters:sRGB" id="filter7027" x="-0.154125" y="-0.083123595" width="1.30825" height="1.1662472">
      <feGaussianBlur stdDeviation="3.0825"/>
    </filter>
  </defs>
  <circle style="filter:url(#filter850);opacity:0.2;fill:#000000" cx="96" cy="100" r="80"/>
  <circle r="80" cy="96" cx="96" style="fill:#38a3eb"/>
  <path style="opacity:0.2;fill:#ffffff" d="M 96 16 A 80 80 0 0 0 16 96 A 80 80 0 0 0 16.019531 96.472656 A 80 80 0 0 1 96 17 A 80 80 0 0 1 175.97461 96.513672 A 80 80 0 0 0 176 96 A 80 80 0 0 0 96 16 z "/>
  <path style="fill:#38adfa" d="m 688.80525,256.99648 c -0.33229,-0.33229 -1.1948,-0.36781 -1.91667,-0.0789 -0.79773,0.31922 -0.56078,0.55618 0.60417,0.60416 1.05416,0.0434 1.64479,-0.19293 1.3125,-0.52522 z"/>
  <path style="filter:url(#filter7027);opacity:0.2;fill:#000000;color:#000000" d="m 80,53 v 6 83 h 6 V 59 h 5 v 83 h 6 v -39 h 6 c 13.77157,0 25,-11.228429 25,-25 0,-13.771571 -11.22843,-25 -25,-25 h -6 -6 z m 17,6 h 6 c 10.52893,0 19,8.471066 19,19 0,10.528934 -8.47107,19 -19,19 h -6 z"/>
  <path style="fill:#ffffff;color:#000000" d="M 80 51 L 80 57 L 80 140 L 86 140 L 86 57 L 91 57 L 91 140 L 97 140 L 97 101 L 103 101 C 116.77157 101 128 89.771571 128 76 C 128 62.228429 116.77157 51 103 51 L 97 51 L 91 51 L 80 51 z M 97 57 L 103 57 C 113.52893 57 122 65.471066 122 76 C 122 86.528934 113.52893 95 103 95 L 97 95 L 97 57 z "/>
</svg>
