<svg xmlns="http://www.w3.org/2000/svg" id="svg10" width="192" height="192" version="1"><defs><filter style="color-interpolation-filters:sRGB" id="filter866" width="1.1" height="1.1" x=".05" y=".05"><feGaussianBlur stdDeviation="3.2"/></filter><filter style="color-interpolation-filters:sRGB" id="filter891" width="1.1" height="1.1" x=".05" y=".05"><feGaussianBlur stdDeviation="1.6"/></filter></defs><path d="m 96,20 c -44.32,0 -80,35.68 -80,80 0,44.32 35.68,80 80,80 44.32,0 80,-35.68 80,-80 0,-44.32 -35.68,-80 -80,-80 z" style="filter:url(#filter866);opacity:.2;fill:#000"/><path style="fill:#ffbd8e" d="m 96,16 c -44.32,0 -80,35.68 -80,80 0,44.32 35.68,80 80,80 44.32,0 80,-35.68 80,-80 0,-44.32 -35.68,-80 -80,-80 z"/><path d="M 68,62 A 12,12.00 0 0 0 56,74 12,12.00 0 0 0 68,86 12,12.00 0 0 0 80,74 12,12.00 0 0 0 68,62 Z m 56,0 A 12,12 0 0 0 112,74 12,12 0 0 0 124,86 12,12 0 0 0 136,74 12,12 0 0 0 124,62 Z M 96,90 a 24,16 0 0 0 -24,16 24,16 0 0 0 24,16 24,16 0 0 0 24,-16 24,16 0 0 0 -24,-16 z m -10,8 a 6,6 0 0 1 6,6 6,6 0 0 1 -6,6 6,6 0 0 1 -6,-6 6,6 0 0 1 6,-6 z m 20,0 a 6,6 0 0 1 6,6 6,6 0 0 1 -6,6 6,6 0 0 1 -6,-6 6,6 0 0 1 6,-6 z M 64,122 A 37.00,40 0 0 0 96.02,142 37.00,40 0 0 0 128,122 h -4.49 A 37.00,40 0 0 1 96.02,135.34 37.00,40 0 0 1 68.51,122 Z" style="filter:url(#filter891);opacity:.2;fill:#000"/><path style="fill:#4d4d4d" d="M 68,60 A 12,12.00 0 0 0 56,72 12,12.00 0 0 0 68,84 12,12.00 0 0 0 80,72 12,12.00 0 0 0 68,60 Z m 56,0 A 12,12 0 0 0 112,72 12,12 0 0 0 124,84 12,12 0 0 0 136,72 12,12 0 0 0 124,60 Z M 96,88 a 24,16 0 0 0 -24,16 24,16 0 0 0 24,16 24,16 0 0 0 24,-16 24,16 0 0 0 -24,-16 z m -10,8 a 6,6 0 0 1 6,6 6,6 0 0 1 -6,6 6,6 0 0 1 -6,-6 6,6 0 0 1 6,-6 z m 20,0 a 6,6 0 0 1 6,6 6,6 0 0 1 -6,6 6,6 0 0 1 -6,-6 6,6 0 0 1 6,-6 z M 64,120 A 37.00,40 0 0 0 96.02,140 37.00,40 0 0 0 128,120 h -4.49 A 37.00,40 0 0 1 96.02,133.34 37.00,40 0 0 1 68.51,120 Z"/><path style="opacity:.2;fill:#fff" d="M 96 16 C 51.68 16 16 51.68 16 96 C 16 96.12 16.01 96.23 16.01 96.34 C 16.36 52.33 51.90 17 96 17 C 140.10 17 175.64 52.33 175.99 96.34 C 175.99 96.23 176 96.12 176 96 C 176 51.68 140.32 16 96 16 z"/></svg>