<?xml version='1.0' encoding='utf-8'?>
<svg xmlns="http://www.w3.org/2000/svg" width="192" height="192" version="1" id="svg14">
  <defs>
    <filter style="color-interpolation-filters:sRGB" id="filter850" x="0.05" width="1.10" y="0.05" height="1.10">
      <feGaussianBlur stdDeviation="3.20"/>
    </filter>
    <filter style="color-interpolation-filters:sRGB" id="filter6842" x="0.05" y="0.05" width="1.10" height="1.10">
      <feGaussianBlur stdDeviation="1.90"/>
    </filter>
  </defs>
  <rect width="160" height="160" x="-180" y="-176" rx="8" ry="8" transform="matrix(0,-1,-1,0,0,0)" style="filter:url(#filter850);opacity:0.20;fill:#000000"/>
  <rect style="fill:#1b831b" transform="matrix(0,-1,-1,0,0,0)" ry="8" rx="8" y="-176" x="-176" height="160" width="160"/>
  <path style="filter:url(#filter6842);opacity:0.20;fill:#000000;stop-color:#000000" d="M 52.91,52 C 47.64,52 48,57.75 48,57.75 V 107 124 H 70 97 L 94.50,107 H 70 V 52 Z M 74,52 v 51 H 93 V 78 l 8.15,46 H 115.40 L 123,78 v 69.00 h 15.43 c 0,0 4.73,0.21 4.57,-4.64 V 56.51 C 143,56.51 142.48,52 138.74,52 H 113.87 L 108,84 102.61,52 Z m -26,75 v 20 h 6.96 c 1.55,0 2.78,0.29 3.69,0.88 C 59.55,145.51 60,144.38 60,142.74 v -12.18 c 0,-1.11 0.36,-1.97 -1.08,-2.61 C 58.23,127.32 57.14,127 55.65,127 Z m 14,0 v 20 h 9 v -4 h -5 v -4 h 4 v -4 h -4 v -4 h 5 v -4 z m 11,0 v 20 h 8 v -4 h -4 v -16 z m 10,0 v 14.46 c 0,1.66 0.23,2.89 0.68,3.68 0.47,0.77 1.12,1.27 1.94,1.49 C 86.46,146.88 87.42,147 88.50,147 c 1.10,0 2.06,0.12 2.88,0.37 0.82,0.22 1.46,0.72 1.91,-1.49 C 93.76,144.35 94,143.11 94,141.43 V 127 h -4 v 15.79 c 0,0 0.63,1.48 -1.50,1.39 0.69,0.07 -1.29,0.54 -1.50,-1.39 V 127 Z m 13.10,0 2.59,9.64 L 96,147 h 4.75 l 1.26,-5.89 1.42,5.89 h 4.50 L 105.38,136.68 108,127 h -4.75 l -1.29,5.92 L 100.56,127 Z M 110,127 v 20 h 9 v -4 h -5 v -4 h 4 v -4 h -4 v -4 h 5 v -4 z m -57,3 h 1.05 c 0.28,0 0.51,0.11 0.69,0.32 C 54.91,130.51 55,130.85 55,131.36 v 11.31 c 0,0.51 0.09,0.85 0.26,1.04 C 54.56,143.90 54.33,144 54.05,144 H 53 Z"/>
  <path style="opacity:0.20;fill:#ffffff" d="m 24,16 c -4.43,0 -8,3.57 -8,8 v 1 c 0,-4.43 3.57,-8 8,-8 h 144 c 4.43,0 8,3.57 8,8 v -1 c 0,-4.43 -3.57,-8 -8,-8 z"/>
  <path style="fill:#ffffff;stop-color:#000000" d="M 48,55.75 V 105 122 H 70 97 L 94.50,105 H 70 V 50 H 52.91 C 47.64,50 48,55.75 48,55.75 Z"/>
  <path style="fill:#8dc18d;stop-color:#000000" d="m 113.87,50 h 24.87 C 142.48,50 143,54.51 143,54.51 v 85.84 c 0.16,4.86 -4.57,4.64 -4.57,4.64 H 123 V 76 l -7.60,46 H 101.15 L 93,76 v 25.00 l -19,0.00 V 50 h 28.61 L 108,82 Z"/>
  <path style="fill:#ffffff" d="m 48,125 v 20 h 6.96 c 1.55,0 2.78,0.29 3.69,0.88 C 59.55,143.51 60,142.38 60,140.74 v -12.18 c 0,-1.11 0.36,-1.97 -1.08,-2.61 C 58.23,125.32 57.14,125 55.65,125 Z m 14,0 v 20 h 9 v -4 h -5 v -4 h 4 v -4 h -4 v -4 h 5 v -4 z m 11,0 v 20 h 8 v -4 h -4 v -16 z m -20,3 h 1.05 c 0.28,0 0.51,0.11 0.69,0.32 C 54.91,128.51 55,128.85 55,129.36 v 11.31 c 0,0.51 0.09,0.85 0.26,1.04 C 54.56,141.90 54.33,142 54.05,142 H 53 Z"/>
  <path style="fill:#8dc18d" d="m 83,125 v 14.46 c 0,1.66 0.23,2.89 0.68,3.68 0.47,0.77 1.12,1.27 1.94,1.49 C 86.46,144.88 87.42,145 88.50,145 c 1.10,0 2.06,0.12 2.88,0.37 0.82,0.22 1.46,0.72 1.91,-1.49 C 93.76,142.35 94,141.11 94,139.43 V 125 h -4 v 15.79 c 0,0 0.63,1.48 -1.50,1.39 0.69,0.07 -1.29,0.54 -1.50,-1.39 V 125 Z m 13.10,0 2.59,9.64 L 96,145 h 4.75 l 1.26,-5.89 1.42,5.89 h 4.50 L 105.38,134.68 108,125 h -4.75 l -1.29,5.92 L 100.56,125 Z M 110,125 v 20 h 9 v -4 h -5 v -4 h 4 v -4 h -4 v -4 h 5 v -4 z"/>
</svg>
