<?xml version='1.0' encoding='utf-8'?>
<svg xmlns="http://www.w3.org/2000/svg" width="192" height="192" version="1" id="svg18">
  <defs>
    <filter style="color-interpolation-filters:sRGB" id="filter890" x="-0.047999973" width="1.0959999" y="-0.048000026" height="1.0960001">
      <feGaussianBlur stdDeviation="2.6400011"/>
    </filter>
    <filter style="color-interpolation-filters:sRGB" id="filter906" x="-0.065723702" width="1.1314474" y="-0.065723702" height="1.1314474">
      <feGaussianBlur stdDeviation="2.0799999"/>
    </filter>
    <filter style="color-interpolation-filters:sRGB" id="filter922" x="-0.047999994" width="1.096" y="-0.048000008" height="1.096">
      <feGaussianBlur stdDeviation="2.6400022"/>
    </filter>
  </defs>
  <path d="m 75.998187,34.000021 c -3.457302,0 -6.916914,1.28864 -9.501329,3.872993 L 13.872954,90.502785 c -5.1688365,5.168705 -5.1615023,13.818575 0.0074,18.987295 l 52.623905,52.62976 c 5.16884,5.16872 13.826424,5.17604 18.995265,0.007 L 138.1235,109.49716 c 5.16883,-5.16872 5.16884,-13.825996 0,-18.994705 L 85.49952,37.873014 c -2.58441,-2.584353 -6.04403,-3.872993 -9.501333,-3.872993 z" style="filter:url(#filter890);opacity:0.2;fill:#000000"/>
  <path style="fill:#8e8e8e" d="m 75.998187,30.000003 c -3.457302,0 -6.916914,1.28864 -9.501329,3.872993 L 13.872954,86.502767 c -5.1688365,5.168705 -5.1615023,13.818573 0.0074,18.987293 l 52.623905,52.62976 c 5.16884,5.16872 13.826424,5.17604 18.995265,0.007 L 138.1235,105.49714 c 5.16883,-5.16872 5.16884,-13.825994 0,-18.994703 L 85.49952,33.872996 c -2.58441,-2.584353 -6.04403,-3.872993 -9.501333,-3.872993 z"/>
  <rect transform="rotate(45)" ry="4.1321268" rx="4.1321268" y="-21.006592" x="86.47364" height="75.95433" width="75.95433" style="filter:url(#filter906);opacity:0.2;fill:#000000"/>
  <rect style="fill:#ffffff" width="75.95433" height="75.95433" x="83.645203" y="-23.835032" rx="4.1321268" ry="4.1321268" transform="rotate(45)"/>
  <path d="m 115.99819,34.000021 c -3.4573,0 -6.91692,1.28864 -9.50133,3.872993 L 53.872954,90.502785 c -5.168837,5.168705 -5.161503,13.818575 0.0074,18.987295 l 52.623916,52.62976 c 5.16883,5.16872 13.82642,5.17604 18.99526,0.007 l 52.62398,-52.62968 c 5.16882,-5.16872 5.16883,-13.825996 0,-18.994705 l -52.624,-52.629551 c -2.58441,-2.584353 -6.04403,-3.872993 -9.50133,-3.872993 z" style="filter:url(#filter922);opacity:0.2;fill:#000000"/>
  <path style="opacity:0.2;fill:#ffffff" d="m 75.998047,30 c -3.457302,0 -6.917538,1.288694 -9.501953,3.873047 L 13.873047,86.501953 c -2.709157,2.709088 -3.982296,6.37488 -3.849609,9.994141 0.11714,-3.285718 1.390117,-6.534712 3.849609,-8.994141 L 66.496094,34.873047 C 69.080509,32.288694 72.540745,31 75.998047,31 79.45535,31 82.91559,32.288694 85.5,34.873047 l 52.62305,52.628906 c 2.45968,2.459619 3.7348,5.710314 3.85351,8.998047 0.13076,-3.621198 -1.14435,-7.288957 -3.85351,-9.998047 L 85.5,33.873047 C 82.91559,31.288694 79.45535,30 75.998047,30 Z"/>
  <path style="fill:#e52e38" d="m 115.99819,30.000003 c -3.4573,0 -6.91692,1.28864 -9.50133,3.872993 L 53.872954,86.502767 c -5.168837,5.168705 -5.161503,13.818573 0.0074,18.987293 l 52.623916,52.62976 c 5.16883,5.16872 13.82642,5.17604 18.99526,0.007 l 52.62398,-52.62968 c 5.16882,-5.16872 5.16883,-13.825994 0,-18.994703 l -52.624,-52.629551 c -2.58441,-2.584353 -6.04403,-3.872993 -9.50133,-3.872993 z"/>
  <path style="opacity:0.2;fill:#ffffff" d="m 115.99805,30 c -3.4573,0 -6.91755,1.288694 -9.50196,3.873047 L 53.873047,86.501953 c -2.709157,2.709088 -3.982296,6.37488 -3.849609,9.994141 0.11714,-3.285718 1.390117,-6.534712 3.849609,-8.994141 L 106.49609,34.873047 C 109.0805,32.288694 112.54075,31 115.99805,31 c 3.4573,0 6.91754,1.288694 9.50195,3.873047 l 52.62305,52.628906 c 2.45967,2.459619 3.7348,5.710314 3.85351,8.998047 0.13076,-3.621198 -1.14436,-7.288957 -3.85351,-9.998047 L 125.5,33.873047 C 122.91559,31.288694 119.45535,30 115.99805,30 Z"/>
</svg>
