<svg xmlns="http://www.w3.org/2000/svg" id="svg28" width="192" height="192" version="1"><defs><filter style="color-interpolation-filters:sRGB" id="filter2731" width="1.1" height="1.09" x=".05" y=".05"><feGaussianBlur stdDeviation="3.16"/></filter><filter style="color-interpolation-filters:sRGB" id="filter2735" width="1.1" height="1.09" x=".05" y=".05"><feGaussianBlur stdDeviation="1.91"/></filter></defs><path style="filter:url(#filter2731);opacity:.2;fill:#000;color:#000" d="m 96,20 a 9.18,9.34 0 0 0 -5.59,1.93 L 21.59,75.70 A 9.18,9.34 0 0 0 18,83.11 V 170.66 A 9.18,9.34 0 0 0 27.18,180 H 63.88 164.82 A 9.18,9.34 0 0 0 174,170.66 V 83.11 a 9.18,9.34 0 0 0 -3.59,-7.41 L 101.59,21.93 A 9.18,9.34 0 0 0 96,20 Z"/><path style="fill:#3f3f3f;color:#000" d="m 96,16 a 9.18,9.34 0 0 0 -5.59,1.93 L 21.59,71.70 A 9.18,9.34 0 0 0 18,79.11 V 166.66 A 9.18,9.34 0 0 0 27.18,176 H 63.88 164.82 A 9.18,9.34 0 0 0 174,166.66 V 79.11 a 9.18,9.34 0 0 0 -3.59,-7.41 L 101.59,17.93 A 9.18,9.34 0 0 0 96,16 Z"/><path style="filter:url(#filter2735);opacity:.2;fill:#000;color:#000" d="M 96,56.25 51,90.78 V 147 h 24 v -9 H 60 V 95.22 l 36,-27.62 36,27.62 V 138 h -15 v 9 h 24 V 90.78 Z M 82.80,132 81.50,139 h 6 c 1.93,0 3.50,-1.57 3.50,-3.50 0,-1.93 -1.57,-3.50 -3.50,-3.50 z m 11,0 L 92.50,139 h 6 c 1.93,0 3.50,-1.57 3.50,-3.50 0,-1.93 -1.57,-3.50 -3.50,-3.50 z m 10.00,5 -1.30,7 h 6 c 1.93,0 3.50,-1.57 3.50,-3.50 0,-1.93 -1.57,-3.50 -3.50,-3.50 z M 81.80,141 80.50,148 h 6 c 1.93,0 3.50,-1.57 3.50,-3.50 0,-1.93 -1.57,-3.50 -3.50,-3.50 z m 11,0 L 91.50,148 h 6 c 1.93,0 3.50,-1.57 3.50,-3.50 0,-1.93 -1.57,-3.50 -3.50,-3.50 z m 10.00,5 -1.30,7 h 6 c 1.93,0 3.50,-1.57 3.50,-3.50 0,-1.93 -1.57,-3.50 -3.50,-3.50 z M 90.80,150 89.50,157 h 6 c 1.93,0 3.50,-1.57 3.50,-3.50 0,-1.93 -1.57,-3.50 -3.50,-3.50 z"/><path style="fill:#fff;color:#000" d="M 96,54.25 51,88.78 V 145 h 24 v -9 H 60 V 93.22 l 36,-27.62 36,27.62 V 136 h -15 v 9 h 24 V 88.78 Z M 82.80,130 81.50,137 h 6 c 1.93,0 3.50,-1.57 3.50,-3.50 0,-1.93 -1.57,-3.50 -3.50,-3.50 z m 11,0 L 92.50,137 h 6 c 1.93,0 3.50,-1.57 3.50,-3.50 0,-1.93 -1.57,-3.50 -3.50,-3.50 z m 10.00,5 -1.30,7 h 6 c 1.93,0 3.50,-1.57 3.50,-3.50 0,-1.93 -1.57,-3.50 -3.50,-3.50 z M 81.80,139 80.50,146 h 6 c 1.93,0 3.50,-1.57 3.50,-3.50 0,-1.93 -1.57,-3.50 -3.50,-3.50 z m 11,0 L 91.50,146 h 6 c 1.93,0 3.50,-1.57 3.50,-3.50 0,-1.93 -1.57,-3.50 -3.50,-3.50 z m 10.00,5 -1.30,7 h 6 c 1.93,0 3.50,-1.57 3.50,-3.50 0,-1.93 -1.57,-3.50 -3.50,-3.50 z M 90.80,148 89.50,155 h 6 c 1.93,0 3.50,-1.57 3.50,-3.50 0,-1.93 -1.57,-3.50 -3.50,-3.50 z"/><path style="opacity:.1;fill:#fff;color:#000" d="m 96,16 a 9.18,9.34 0 0 0 -5.59,1.93 L 21.59,71.70 A 9.18,9.34 0 0 0 18,79.12 v 1 a 9.18,9.34 0 0 1 3.59,-7.41 L 90.41,18.93 A 9.18,9.34 0 0 1 96,17 a 9.18,9.34 0 0 1 5.59,1.93 l 68.82,53.77 A 9.18,9.34 0 0 1 174,80.12 v -1 a 9.18,9.34 0 0 0 -3.59,-7.41 L 101.59,17.93 A 9.18,9.34 0 0 0 96,16 Z"/></svg>