<?xml version='1.0' encoding='utf-8'?>
<svg xmlns="http://www.w3.org/2000/svg" width="192" height="192" version="1" id="svg16">
  <defs>
    <filter style="color-interpolation-filters:sRGB" id="filter971" x="-0.048000001" y="-0.048000001" width="1.096" height="1.096">
      <feGaussianBlur stdDeviation="3.2"/>
    </filter>
    <filter style="color-interpolation-filters:sRGB" id="filter5796" x="-0.046899085" y="-0.049153847" width="1.0937982" height="1.0983077">
      <feGaussianBlur stdDeviation="2.13"/>
    </filter>
    <filter style="color-interpolation-filters:sRGB" id="filter5838" x="-0.046328537" y="-0.04979658" width="1.0926571" height="1.0995932">
      <feGaussianBlur stdDeviation="1.1953125"/>
    </filter>
  </defs>
  <rect style="filter:url(#filter971);opacity:0.2;fill:#000000" width="160" height="160" x="16" y="20" rx="80" ry="80"/>
  <circle style="fill:#e4e4e4;stop-color:#000000" cx="96" cy="96" r="80"/>
  <path style="opacity:0.2;fill:#ffffff" d="M 95.998047,16 C 51.678957,16.001054 16,51.680655 16,96 c 0,0.173903 0.0083,0.344936 0.01172,0.517578 C 16.270953,52.423274 51.840776,17.00105 95.998047,17 H 96 c 44.15727,0.001 79.72709,35.423274 79.98633,79.517578 0.003,-0.172666 0.0117,-0.34381 0.0117,-0.517578 0,-44.319345 -35.67896,-79.998946 -79.99805,-80 z"/>
  <path style="filter:url(#filter5838);opacity:0.2;fill:#000000;color:#000000" d="m 93,67.359622 v 15.824219 h 6 V 67.359622 Z m -25.914062,18.089844 -1.853516,5.705078 15.308594,4.976562 1.853515,-5.707031 z m 58.253902,0.09961 -6.46484,2.050781 1.8125,5.71875 6.4668,-2.048828 z m -11.85937,30.371094 -4.76758,3.64453 4.12695,5.39453 4.76563,-3.64453 z m -34.039064,0.33594 -3.708984,5.25391 4.902344,3.45898 3.708984,-5.25391 z"/>
  <path style="fill:#05c6d8;color:#000000" d="m 93,65.359372 v 15.824219 h 6 V 65.359372 Z m -25.914062,18.089844 -1.853516,5.705078 15.308594,4.976562 1.853515,-5.707031 z m 58.253902,0.09961 -6.46484,2.050781 1.8125,5.71875 6.4668,-2.048828 z m -11.85937,30.371094 -4.76758,3.64453 4.12695,5.39453 4.76563,-3.64453 z m -34.039064,0.33594 -3.708984,5.25391 4.902344,3.45898 3.708984,-5.25391 z"/>
  <path style="filter:url(#filter5796);opacity:0.2;fill:#000000" d="m 96,41.999997 a 14,14 0 0 0 -14,14 14,14 0 0 0 14,14 14,14 0 0 0 14,-14 14,14 0 0 0 -14,-14 z m 0,6 a 8,8 0 0 1 8,8 8,8 0 0 1 -8,8 8,8 0 0 1 -8,-8 8,8 0 0 1 8,-8 z m -40,23 a 14,14 0 0 0 -14,14 14,14 0 0 0 14,14 14,14 0 0 0 14,-14 14,14 0 0 0 -14,-14 z m 81,0 a 14,14 0 0 0 -14,14 14,14 0 0 0 14,14 14,14 0 0 0 14,-14 14,14 0 0 0 -14,-14 z m -81,6 a 8,8 0 0 1 8,8 8,8 0 0 1 -8,8 8,8 0 0 1 -8,-8 8,8 0 0 1 8,-8 z m 81,0 a 8,8 0 0 1 8,8 8,8 0 0 1 -8,8 8,8 0 0 1 -8,-8 8,8 0 0 1 8,-8 z m -41,3 a 18,18 0 0 0 -18,18 A 18,18 0 0 0 96,116 a 18,18 0 0 0 18,-18.000003 18,18 0 0 0 -18,-18 z m 0,6 a 12,12 0 0 1 12,12 A 12,12 0 0 1 96,110 12,12 0 0 1 84,97.999997 a 12,12 0 0 1 12,-12 z M 72,118 a 14,14 0 0 0 -14,14 14,14 0 0 0 14,14 14,14 0 0 0 14,-14 14,14 0 0 0 -14,-14 z m 50,0 a 14,14 0 0 0 -14,14 14,14 0 0 0 14,14 14,14 0 0 0 14,-14 14,14 0 0 0 -14,-14 z m -50,6 a 8,8 0 0 1 8,8 8,8 0 0 1 -8,8 8,8 0 0 1 -8,-8 8,8 0 0 1 8,-8 z m 50,0 a 8,8 0 0 1 8,8 8,8 0 0 1 -8,8 8,8 0 0 1 -8,-8 8,8 0 0 1 8,-8 z"/>
  <path style="fill:#1a7dd9" d="m 96,39.999997 a 14,14 0 0 0 -14,14 14,14 0 0 0 14,14 14,14 0 0 0 14,-14 14,14 0 0 0 -14,-14 z m 0,6 a 8,8 0 0 1 8,8 8,8 0 0 1 -8,8 8,8 0 0 1 -8,-8 8,8 0 0 1 8,-8 z m -40,23 a 14,14 0 0 0 -14,14 14,14 0 0 0 14,14 14,14 0 0 0 14,-14 14,14 0 0 0 -14,-14 z m 81,0 a 14,14 0 0 0 -14,14 14,14 0 0 0 14,14 14,14 0 0 0 14,-14 14,14 0 0 0 -14,-14 z m -81,6 a 8,8 0 0 1 8,8 8,8 0 0 1 -8,8 8,8 0 0 1 -8,-8 8,8 0 0 1 8,-8 z m 81,0 a 8,8 0 0 1 8,8 8,8 0 0 1 -8,8 8,8 0 0 1 -8,-8 8,8 0 0 1 8,-8 z m -41,3 a 18,18 0 0 0 -18,18 A 18,18 0 0 0 96,114 a 18,18 0 0 0 18,-18.000003 18,18 0 0 0 -18,-18 z m 0,6 a 12,12 0 0 1 12,12 A 12,12 0 0 1 96,108 12,12 0 0 1 84,95.999997 a 12,12 0 0 1 12,-12 z M 72,116 a 14,14 0 0 0 -14,14 14,14 0 0 0 14,14 14,14 0 0 0 14,-14 14,14 0 0 0 -14,-14 z m 50,0 a 14,14 0 0 0 -14,14 14,14 0 0 0 14,14 14,14 0 0 0 14,-14 14,14 0 0 0 -14,-14 z m -50,6 a 8,8 0 0 1 8,8 8,8 0 0 1 -8,8 8,8 0 0 1 -8,-8 8,8 0 0 1 8,-8 z m 50,0 a 8,8 0 0 1 8,8 8,8 0 0 1 -8,8 8,8 0 0 1 -8,-8 8,8 0 0 1 8,-8 z"/>
</svg>
