<?xml version='1.0' encoding='utf-8'?>
<svg xmlns="http://www.w3.org/2000/svg" width="192" height="192" version="1" id="svg28">
  <defs>
    <filter style="color-interpolation-filters:sRGB" id="filter18509" x="0.04" y="0.05" width="1.09" height="1.11">
      <feGaussianBlur stdDeviation="2.56"/>
    </filter>
    <filter style="color-interpolation-filters:sRGB" id="filter18513" x="0.04" y="0.05" width="1.09" height="1.11">
      <feGaussianBlur stdDeviation="2.56"/>
    </filter>
    <filter style="color-interpolation-filters:sRGB" id="filter18773" x="0.08" y="0.07" width="1.15" height="1.15">
      <feGaussianBlur stdDeviation="2.34"/>
    </filter>
  </defs>
  <path style="filter:url(#filter18509);opacity:0.20;fill:#000000" d="m 185,34.00 -19,19 V 135 c 0,6.65 -5.35,12 -12,12 H 54 c -6.65,0 -12,-5.35 -12,-12 V 46.00 c 0,-6.65 5.35,-12 12,-12 h 83 17 z"/>
  <path style="fill:#cfd8dc" d="m 185,31.00 -19,19 V 132 c 0,6.65 -5.35,12 -12,12 H 54 c -6.65,0 -12,-5.35 -12,-12 V 43.00 c 0,-6.65 5.35,-12 12,-12 h 83 17 z"/>
  <path style="filter:url(#filter18513);opacity:0.20;fill:#000000" d="m 6,50 19,19 v 82 c 0,6.65 5.35,12 12,12 h 100 c 6.65,0 12,-5.35 12,-12 V 62 c 0,-6.65 -5.35,-12 -12,-12 H 54 37 Z"/>
  <path style="fill:#485dd4" d="M 6 47 L 25 66 L 25 148 C 25 154.65 30.35 160 37 160 L 137 160 C 143.65 160 149 154.65 149 148 L 149 59 C 149 52.35 143.65 47 137 47 L 54 47 L 37 47 L 6 47 z "/>
  <path style="filter:url(#filter18773);opacity:0.20;fill:#000000" d="M 71.59,68 67.59,86 H 55.87 l -2.22,10 h 11.72 l -4.00,18 H 49.66 L 47.44,124 H 59.16 L 55,143 h 10 l 4.16,-19 h 22.51 l -4.16,19 h 10 l 4.16,-19 h 11.88 l 2.22,-10 h -11.88 l 4.00,-18 h 11.88 l 2.22,-10 h -11.89 l 4.00,-18 h -10 l -4.00,18 H 77.59 l 4.00,-18 z m 3.78,28 h 22.51 l -4.00,18 H 71.38 Z"/>
  <path style="fill:#ffffff" d="M 71.59,66 67.59,84 H 55.87 l -2.22,10 h 11.72 l -4.00,18 H 49.66 L 47.44,122 H 59.16 L 55,141 h 10 l 4.16,-19 h 22.51 l -4.16,19 h 10 l 4.16,-19 h 11.88 l 2.22,-10 h -11.88 l 4.00,-18 h 11.88 l 2.22,-10 h -11.89 l 4.00,-18 h -10 l -4.00,18 H 77.59 l 4.00,-18 z m 3.78,28 h 22.51 l -4.00,18 H 71.38 Z"/>
  <path style="opacity:0.20;fill:#ffffff" d="M 54 31 C 47.35 31 42 36.35 42 43 L 42 44 C 42 37.35 47.35 32 54 32 L 137 32 L 154 32 L 184 32 L 185 31 L 154 31 L 137 31 L 54 31 z "/>
</svg>
