<?xml version='1.0' encoding='utf-8'?>
<svg xmlns="http://www.w3.org/2000/svg" width="192" height="192" version="1" id="svg28">
  <defs>
    <filter style="color-interpolation-filters:sRGB" id="filter3631" x="-0.048000001" y="-0.048000001" width="1.096" height="1.096">
      <feGaussianBlur stdDeviation="3.2"/>
    </filter>
    <filter style="color-interpolation-filters:sRGB" id="filter3762" x="-0.048000002" y="-0.048000002" width="1.096" height="1.096">
      <feGaussianBlur stdDeviation="2.4"/>
    </filter>
  </defs>
  <rect transform="matrix(0,-1,-1,0,0,0)" ry="18" rx="18" y="-176" x="-180" height="160" width="160" style="filter:url(#filter3631);opacity:0.2;fill:#000000"/>
  <rect transform="matrix(0,-1,-1,0,0,0)" ry="18" rx="18" y="-176" x="-176" height="160" width="160" style="fill:#e4e4e4"/>
  <path style="opacity:0.2;fill:#ffffff" d="M 34 16 C 24.028 16 16 24.028 16 34 L 16 35 C 16 25.028 24.028 17 34 17 L 158 17 C 167.972 17 176 25.028 176 35 L 176 34 C 176 24.028 167.972 16 158 16 L 34 16 z "/>
  <path style="filter:url(#filter3762);opacity:0.2;fill:#000000" d="M 130.64062,38 36,63.359375 61.359375,158 156,132.64062 Z M 123.71289,50 144,125.71289 68.287109,146 48,70.287109 Z M 96,68 62,94 h 8 v 32 h 20 v -19 h 14 v 19 h 18 V 94 h 8 L 116,83.855469 C 115.993,79.832964 116,72 116,72 h -7 v 6.033203 z"/>
  <path style="fill:#0377d8" d="M 130.64062 36 L 36 61.359375 L 61.359375 156 L 156 130.64062 L 130.64062 36 z M 123.71289 48 L 144 123.71289 L 68.287109 144 L 48 68.287109 L 123.71289 48 z M 96 66 L 62 92 L 70 92 L 70 124 L 90 124 L 90 105 L 104 105 L 104 124 L 122 124 L 122 92 L 130 92 L 116 81.855469 C 115.993 77.832964 116 70 116 70 L 109 70 L 109 76.033203 L 96 66 z "/>
</svg>
