<?xml version='1.0' encoding='utf-8'?>
<svg xmlns="http://www.w3.org/2000/svg" width="192" height="192" version="1" id="svg16">
  <defs>
    <filter style="color-interpolation-filters:sRGB" id="filter867" x="0.05" width="1.10" y="0.05" height="1.10">
      <feGaussianBlur stdDeviation="3.20"/>
    </filter>
    <filter style="color-interpolation-filters:sRGB" id="filter2285" x="0.07" y="0.07" width="1.15" height="1.15">
      <feGaussianBlur stdDeviation="3.62"/>
    </filter>
  </defs>
  <rect ry="80" rx="80" height="160" width="160" y="-176" x="-180" transform="matrix(0,-1,-1,0,0,0)" style="filter:url(#filter867);opacity:0.20;fill:#000000"/>
  <rect style="fill:#3f3f3f" transform="matrix(0,-1,-1,0,0,0)" x="-176" y="-176" width="160" height="160" rx="80" ry="80"/>
  <path style="opacity:0.10;fill:#ffffff" d="M 96 16 C 51.68 16 16 51.68 16 96 C 16 96.34 16.00 96.67 16 97 C 16 52.68 51.68 17 96 17 C 140.32 17 176 52.68 176 97 C 176.00 96.67 176 96.34 176 96 C 176 51.68 140.32 16 96 16 z "/>
  <path style="filter:url(#filter2285);opacity:0.20;fill:#000000" d="M 96,41 A 58,58 0 0 0 38,99 58,58 0 0 0 96,157 58,58 0 0 0 154,99 58,58 0 0 0 96,41 Z m 0,4 A 54,54 0 0 1 150,99 54,54 0 0 1 96,153 54,54 0 0 1 42,99 54,54 0 0 1 96,45 Z m 0,4 A 50,50 0 0 0 46,99 50,50 0 0 0 96,149 50,50 0 0 0 146,99 50,50 0 0 0 96,49 Z m 4.56,19 c 6.77,0 13.54,2.58 18.71,7.75 l -9.10,9.10 c 10.32,10.34 10.31,27.08 0.02,37.40 -10.33,10.33 -27.09,10.33 -37.42,0 l 9.10,-9.10 C 71.51,102.82 71.52,86.08 81.85,75.75 87.01,70.58 93.78,68 100.56,68 Z"/>
  <path style="fill:#ff972e" d="M 96 38 A 58 58 0 0 0 38 96 A 58 58 0 0 0 96 154 A 58 58 0 0 0 154 96 A 58 58 0 0 0 96 38 z M 96 42 A 54 54 0 0 1 150 96 A 54 54 0 0 1 96 150 A 54 54 0 0 1 42 96 A 54 54 0 0 1 96 42 z M 96 46 A 50 50 0 0 0 46 96 A 50 50 0 0 0 96 146 A 50 50 0 0 0 146 96 A 50 50 0 0 0 96 46 z M 100.56 65 C 107.33 65 114.10 67.58 119.27 72.75 L 110.17 81.85 C 120.49 92.18 120.48 108.92 110.15 119.25 C 99.82 129.58 83.07 129.58 72.73 119.25 L 81.83 110.15 C 71.51 99.82 71.52 83.08 81.85 72.75 C 87.01 67.58 93.78 65 100.56 65 z "/>
  <path style="opacity:0.20;fill:#ffffff" d="M 96 38 A 58 58 0 0 0 38 96 A 58 58 0 0 0 38.04 96.50 A 58 58 0 0 1 96 39 A 58 58 0 0 1 153.98 96.26 A 58 58 0 0 0 154 96 A 58 58 0 0 0 96 38 z M 96 46 A 50 50 0 0 0 46 96 A 50 50 0 0 0 46.04 96.50 A 50 50 0 0 1 96 47 A 50 50 0 0 1 145.98 96.25 A 50 50 0 0 0 146 96 A 50 50 0 0 0 96 46 z M 118.74 73.28 L 110.17 81.85 C 110.34 82.01 110.48 82.20 110.65 82.37 L 119.27 73.75 C 119.10 73.58 118.91 73.44 118.74 73.28 z M 74.12 91.95 C 73.99 98.66 76.41 105.40 81.35 110.63 L 81.83 110.15 C 76.80 105.12 74.24 98.55 74.12 91.95 z M 149.98 96.26 A 54 54 0 0 1 96 150 A 54 54 0 0 1 42.04 96.50 A 54 54 0 0 0 42 97 A 54 54 0 0 0 96 151 A 54 54 0 0 0 150 97 A 54 54 0 0 0 149.98 96.26 z M 117.88 101.05 C 117.75 107.65 115.19 114.21 110.15 119.25 C 99.99 129.41 83.63 129.56 73.26 119.72 L 72.73 120.25 C 83.07 130.58 99.82 130.58 110.15 120.25 C 115.45 114.96 118.01 107.98 117.88 101.05 z "/>
</svg>
