<?xml version='1.0' encoding='utf-8'?>
<svg xmlns="http://www.w3.org/2000/svg" width="192" height="192" version="1" id="svg14">
  <defs>
    <filter style="color-interpolation-filters:sRGB" id="filter850" x="-0.048000001" width="1.096" y="-0.048000001" height="1.096">
      <feGaussianBlur stdDeviation="3.2"/>
    </filter>
    <filter style="color-interpolation-filters:sRGB" id="filter8717" x="-0.10545882" y="-0.11066666" width="1.2109176" height="1.2213333">
      <feGaussianBlur stdDeviation="3.735"/>
    </filter>
  </defs>
  <circle style="filter:url(#filter850);opacity:0.2;fill:#000000" cx="96" cy="100" r="80"/>
  <circle r="80" cy="96" cx="96" style="fill:#7054e0"/>
  <path style="filter:url(#filter8717);opacity:0.2;fill:#000000;color:#000000" d="m 71,57 c -9.893737,0 -18,8.106263 -18,18 0,9.893737 8.106263,18 18,18 9.893737,0 18,-8.106263 18,-18 0,-9.893737 -8.106263,-18 -18,-18 z m 38,3 a 4,4 0 0 0 -2.82812,1.171875 4,4 0 0 0 0,5.65625 l 8.67187,8.671875 -8.67187,8.671875 a 4,4 0 0 0 0,5.65625 4,4 0 0 0 5.65624,0 L 120.5,81.15625 l 8.67188,8.671875 a 4,4 0 0 0 5.65624,0 4,4 0 0 0 0,-5.65625 L 126.15625,75.5 l 8.67187,-8.671875 a 4,4 0 0 0 0,-5.65625 A 4,4 0 0 0 132,60 4,4 0 0 0 129.17188,61.171875 L 120.5,69.84375 111.82812,61.171875 A 4,4 0 0 0 109,60 Z m -38,5 c 5.57022,0 10,4.42978 10,10 0,5.57022 -4.42978,10 -10,10 -5.57022,0 -10,-4.42978 -10,-10 0,-5.57022 4.42978,-10 10,-10 z m 0,37 c -9.893737,0 -18,8.10626 -18,18 0,9.89374 8.106263,18 18,18 9.893737,0 18,-8.10626 18,-18 0,-9.89374 -8.106263,-18 -18,-18 z m 49,0 c -9.89374,0 -18,8.10626 -18,18 0,9.89374 8.10626,18 18,18 9.89374,0 18,-8.10626 18,-18 0,-9.89374 -8.10626,-18 -18,-18 z m -49,8 c 5.57022,0 10,4.42978 10,10 0,5.57022 -4.42978,10 -10,10 -5.57022,0 -10,-4.42978 -10,-10 0,-5.57022 4.42978,-10 10,-10 z m 49,0 c 5.57022,0 10,4.42978 10,10 0,5.57022 -4.42978,10 -10,10 -5.57022,0 -10,-4.42978 -10,-10 0,-5.57022 4.42978,-10 10,-10 z"/>
  <path style="opacity:0.1;fill:#ffffff" d="M 96 16 A 80 80 0 0 0 16 96 A 80 80 0 0 0 16.019531 96.472656 A 80 80 0 0 1 96 17 A 80 80 0 0 1 175.97461 96.513672 A 80 80 0 0 0 176 96 A 80 80 0 0 0 96 16 z "/>
  <path style="fill:#ffffff;color:#000000" d="m 71,55 c -9.893737,0 -18,8.106263 -18,18 0,9.893737 8.106263,18 18,18 9.893737,0 18,-8.106263 18,-18 0,-9.893737 -8.106263,-18 -18,-18 z m 0,8 c 5.57022,0 10,4.42978 10,10 0,5.57022 -4.42978,10 -10,10 -5.57022,0 -10,-4.42978 -10,-10 0,-5.57022 4.42978,-10 10,-10 z"/>
  <path style="fill:#ffffff;color:#000000" d="m 71,100 c -9.893737,0 -18,8.10626 -18,18 0,9.89374 8.106263,18 18,18 9.893737,0 18,-8.10626 18,-18 0,-9.89374 -8.106263,-18 -18,-18 z m 0,8 c 5.57022,0 10,4.42978 10,10 0,5.57022 -4.42978,10 -10,10 -5.57022,0 -10,-4.42978 -10,-10 0,-5.57022 4.42978,-10 10,-10 z"/>
  <path style="fill:#ffffff;color:#000000" d="m 120,100 c -9.89374,0 -18,8.10626 -18,18 0,9.89374 8.10626,18 18,18 9.89374,0 18,-8.10626 18,-18 0,-9.89374 -8.10626,-18 -18,-18 z m 0,8 c 5.57022,0 10,4.42978 10,10 0,5.57022 -4.42978,10 -10,10 -5.57022,0 -10,-4.42978 -10,-10 0,-5.57022 4.42978,-10 10,-10 z"/>
  <path style="fill:#fff764;color:#000000" d="m 132,58 a 4,4 0 0 0 -2.82813,1.171875 l -22.99999,23 a 4,4 0 0 0 0,5.65625 4,4 0 0 0 5.65625,0 l 22.99999,-23 a 4,4 0 0 0 0,-5.65625 A 4,4 0 0 0 132,58 Z"/>
  <path style="fill:#fff764;color:#000000" d="m 109,58 a 4,4 0 0 0 -2.82812,1.171875 4,4 0 0 0 0,5.65625 l 22.99999,23 a 4,4 0 0 0 5.65625,0 4,4 0 0 0 0,-5.65625 l -22.99999,-23 A 4,4 0 0 0 109,58 Z"/>
</svg>
