<?xml version='1.0' encoding='utf-8'?>
<svg xmlns="http://www.w3.org/2000/svg" width="192" height="192" version="1" id="svg34">
  <defs>
    <filter style="color-interpolation-filters:sRGB" id="filter874" x="0.05" width="1.10" y="0.04" height="1.09">
      <feGaussianBlur stdDeviation="2.79"/>
    </filter>
    <filter style="color-interpolation-filters:sRGB" id="filter894" x="0.09" width="1.17" y="0.03" height="1.07">
      <feGaussianBlur stdDeviation="0.72"/>
    </filter>
    <filter style="color-interpolation-filters:sRGB" id="filter914" x="0.09" width="1.17" y="0.03" height="1.07">
      <feGaussianBlur stdDeviation="0.72"/>
    </filter>
    <filter style="color-interpolation-filters:sRGB" id="filter930" x="0.04" width="1.08" y="0.06" height="1.11">
      <feGaussianBlur stdDeviation="0.56"/>
    </filter>
  </defs>
  <path d="M 77.72,20.62 C 70.85,20.53 66.66,22.38 60,24 c 4.72,1.32 8.39,1.38 12.61,3.56 3.58,1.85 7.77,3.54 11.10,6.18 0,0 -9.91,-1.74 -18.49,-1.74 C 56.63,32 48,36 48,36 c 0,0.00 13.24,0.35 19.61,1.17 3.78,0.90 10.70,4.63 10.70,4.63 -7.65,5.06 -15.63,10.61 -22.73,16.52 0.19,0.16 0.39,0.32 0.58,0.48 0.41,0.34 0.84,0.67 -1.24,1.02 0.10,0.09 0.12,0.20 0.20,0.30 C 40.34,71.82 32,88.88 32,108 c 0,35.46 28.54,64 64,64 35.46,0 64,-28.54 64,-64 C 160,85.77 148.77,66.26 131.66,54.80 128.01,52.09 124.12,49.11 120.57,46.66 107.57,37.68 96.58,22.21 80.84,20.80 79.74,20.70 78.70,20.64 77.72,20.62 Z" style="filter:url(#filter874);opacity:0.20;fill:#000000"/>
  <path d="m 96,24 a 76,76 0 0 0 -76,76 76,76 0 0 0 0.20,4 h 7.94 A 68,68 0 0 1 28,100 68,68 0 0 1 96,32 a 68,68 0 0 1 68,68 68,68 0 0 1 0.20,4 h 8.05 A 76,76 0 0 0 172,100 76,76 0 0 0 96,24 Z" style="fill:#3f3f3f"/>
  <path d="M 77.72,16.62 C 70.85,16.53 66.66,18.38 60,20 c 4.72,1.32 8.39,1.38 12.61,3.56 3.58,1.85 7.77,3.54 11.10,6.18 0,0 -9.91,-1.74 -18.49,-1.74 C 56.63,28 48,32 48,32 c 0,0.00 13.24,0.35 19.61,1.17 3.78,0.90 10.70,4.63 10.70,4.63 -7.65,5.06 -15.63,10.61 -22.73,16.52 0.19,0.16 0.39,0.32 0.58,0.48 0.41,0.34 0.84,0.67 -1.24,1.02 0.10,0.09 0.12,0.20 0.20,0.30 C 40.34,67.82 32,84.88 32,104 c 0,35.46 28.54,64 64,64 35.46,0 64,-28.54 64,-64 C 160,81.77 148.77,62.26 131.66,50.80 128.01,48.09 124.12,45.11 120.57,42.66 107.57,33.68 96.58,18.21 80.84,16.80 79.74,16.70 78.70,16.64 77.72,16.62 Z" style="fill:#6cc9ff"/>
  <path style="opacity:0.20;fill:#ffffff" d="M 77.72 16.62 C 70.85 16.53 66.66 18.38 60 20 C 60.68 20.19 61.32 20.35 61.96 20.50 C 67.53 19.02 71.55 17.54 77.72 17.62 C 78.70 17.64 79.74 17.70 80.84 17.80 C 96.58 19.21 107.57 34.68 120.57 43.66 C 124.12 46.11 128.01 49.09 131.66 51.80 C 148.62 63.16 159.79 82.42 159.99 104.39 C 159.99 104.26 160 104.13 160 104 C 160 81.77 148.77 62.26 131.66 50.80 C 128.01 48.09 124.12 45.11 120.57 42.66 C 107.57 33.68 96.58 18.21 80.84 16.80 C 79.74 16.70 78.70 16.64 77.72 16.62 z M 65.22 28 C 56.63 28 48 32 48 32 C 48 32 49.03 31.98 50.55 31.97 C 53.73 30.79 59.45 29 65.22 29 C 73.80 29 83.71 30.74 83.71 30.74 C 83.13 30.28 82.52 29.86 81.90 29.45 C 78.66 28.96 71.59 28 65.22 28 z M 77.47 38.37 C 70.07 43.28 62.42 48.63 55.57 54.33 C 55.38 54.49 55.18 54.64 54.99 54.80 C 54.59 55.15 54.15 55.48 53.75 55.82 C 53.65 55.91 53.63 56.02 53.55 56.12 C 40.34 67.82 32 84.88 32 104 C 32 104.18 32.01 104.35 32.01 104.53 C 32.15 85.60 40.45 68.73 53.55 57.12 C 53.63 57.02 53.65 56.91 53.75 56.82 C 54.15 56.48 54.59 56.15 54.99 55.80 C 55.18 55.64 55.38 55.49 55.57 55.33 C 62.67 49.42 70.65 43.86 78.30 38.80 C 78.30 38.80 77.87 38.58 77.47 38.37 z "/>
  <path d="m 96,122 c -8,0 -16,10 -16,10 0,0.98 1.75,3.42 4.56,5.64 C 86.05,140.68 90.58,146 96,146 c 5.42,0 9.95,-5.32 11.44,-8.36 C 110.25,135.42 112,132.98 112,132 c 0,0 -8,-10 -16,-10 z" style="filter:url(#filter930);opacity:0.10"/>
  <circle r="8" cy="112" cx="60" style="fill:#3f3f3f"/>
  <circle r="8" cy="111.56" cx="132" style="fill:#3f3f3f"/>
  <path d="m 108,134 c 0,2 -5.37,10 -12,10 -6.63,0 -12,-8 -12,-10 0,0 6,-10 12,-10 6,0 12,10 12,10 z" style="fill:#f7b424"/>
  <path d="m 112,130 c 0,2 -7.16,10 -16,10 -8.84,0 -16,-8 -16,-10 0,0 8,-10 16,-10 8,0 16,10 16,10 z" style="fill:#fcdb46"/>
  <rect ry="12" y="84" x="16" height="52" width="20" style="filter:url(#filter894);opacity:0.10;fill:#000000"/>
  <rect ry="12" y="80" x="16" height="52" width="20" style="fill:#ff6b75"/>
  <rect ry="12" y="84" x="156" height="52" width="20" style="filter:url(#filter914);opacity:0.10;fill:#000000"/>
  <rect ry="12" y="80" x="156" height="52" width="20" style="fill:#ff6b75"/>
  <path style="opacity:0.20;fill:#ffffff" d="M 26 80 C 20.46 80 16 85.35 16 92 L 16 93 C 16 86.35 20.46 81 26 81 C 31.54 81 36 86.35 36 93 L 36 92 C 36 85.35 31.54 80 26 80 z "/>
  <path style="opacity:0.20;fill:#ffffff" d="M 166 80 C 160.46 80 156 85.35 156 92 L 156 93 C 156 86.35 160.46 81 166 81 C 171.54 81 176 86.35 176 93 L 176 92 C 176 85.35 171.54 80 166 80 z "/>
</svg>
