<?xml version='1.0' encoding='utf-8'?>
<svg xmlns="http://www.w3.org/2000/svg" width="192" height="192" version="1" id="svg14">
  <defs>
    <filter style="color-interpolation-filters:sRGB" id="filter848" x="-0.048000001" width="1.096" y="-0.048000001" height="1.096">
      <feGaussianBlur stdDeviation="3.2"/>
    </filter>
    <filter style="color-interpolation-filters:sRGB" id="filter864" x="-0.047999998" width="1.096" y="-0.047999998" height="1.096">
      <feGaussianBlur stdDeviation="2.08"/>
    </filter>
  </defs>
  <rect transform="matrix(0,-1,-1,0,0,0)" ry="80" rx="80" y="-176" x="-180" height="160" width="160" style="filter:url(#filter848);opacity:0.2"/>
  <rect transform="matrix(0,-1,-1,0,0,0)" ry="80" rx="80" y="-176" x="-176" height="160" width="160" style="fill:#41a3ea"/>
  <path style="opacity:0.2;fill:#ffffff" d="M 96 16 C 51.68 16 16 51.68 16 96 C 16 96.115411 16.006233 96.228869 16.007812 96.34375 C 16.358834 52.329079 51.899508 17 96 17 C 140.10049 17 175.64117 52.329079 175.99219 96.34375 C 175.99377 96.228869 176 96.115411 176 96 C 176 51.68 140.32 16 96 16 z "/>
  <path d="M 96,48 A 52,52 0 0 0 44.843752,90.929688 l 43.78906,-13.757812 0.07032,-0.008 A 24,24 0 0 1 96,76 a 24,24 0 0 1 24,24 24,24 0 0 1 -7.60938,17.50781 l -0.0312,0.0547 -33.773436,31.375 A 52,52 0 0 0 96,152 52,52 0 0 0 148,100 52,52 0 0 0 96,48 Z M 74.164064,90.109376 44.023436,99.578124 A 52,52 0 0 0 44,100 a 52,52 0 0 0 5.4375,23.10156 l 24.351564,-14.0625 A 24,24 0 0 1 72,100 24,24 0 0 1 74.164064,90.109376 Z m 3.85156,25.734374 -24.445312,14.10937 a 52,52 0 0 0 17.093752,15.42969 l 23.132812,-21.49219 a 24,24 0 0 1 -15.781252,-8.04687 z" style="filter:url(#filter864);opacity:0.2"/>
  <path d="M 96,44 A 52,52 0 0 0 44.843752,86.929688 l 43.78906,-13.757812 0.07032,-0.008 A 24,24 0 0 1 96,72 a 24,24 0 0 1 24,24 24,24 0 0 1 -7.60938,17.50781 l -0.0312,0.0547 -33.773436,31.375 A 52,52 0 0 0 96,148 52,52 0 0 0 148,96 52,52 0 0 0 96,44 Z M 74.164064,86.109376 44.023436,95.578124 A 52,52 0 0 0 44,96 a 52,52 0 0 0 5.4375,23.10156 l 24.351564,-14.0625 A 24,24 0 0 1 72,96 24,24 0 0 1 74.164064,86.109376 Z m 3.85156,25.734374 -24.445312,14.10937 a 52,52 0 0 0 17.093752,15.42969 l 23.132812,-21.49219 a 24,24 0 0 1 -15.781252,-8.04687 z" style="fill:#ffffff"/>
</svg>
