<?xml version='1.0' encoding='utf-8'?>
<svg xmlns="http://www.w3.org/2000/svg" width="192" height="192" version="1.1" id="svg14">
  <defs>
    <filter style="color-interpolation-filters:sRGB" id="filter849" x="-0.048000001" y="-0.048000001" width="1.096" height="1.096">
      <feGaussianBlur stdDeviation="3.2"/>
    </filter>
    <filter style="color-interpolation-filters:sRGB" id="filter2490" x="-0.048545454" y="-0.047466666" width="1.0970909" height="1.0949333">
      <feGaussianBlur stdDeviation="1.78"/>
    </filter>
  </defs>
  <circle style="filter:url(#filter849);opacity:0.2" cx="96" cy="100" r="80"/>
  <circle style="fill:#185552" cx="96" cy="96" r="80"/>
  <path style="opacity:0.1;fill:#ffffff" d="M 96,16 A 80,80 0 0 0 16,96 80,80 0 0 0 16.023438,96.638672 80,80 0 0 1 96,17 80,80 0 0 1 175.98438,96.302734 80,80 0 0 0 176,96 80,80 0 0 0 96,16 Z"/>
  <path style="filter:url(#filter2490);opacity:0.2;fill:#000000;color:#000000" d="M 87,53 C 67.696505,53 52,68.696505 52,88 v 20 c 0,19.30349 15.696505,35 35,35 h 18 c 15.46086,0 28.59918,-10.07302 33.2207,-24 H 127.47266 C 123.44157,127.3241 114.96901,133 105,133 H 87 C 73.063528,133 62,121.93647 62,108 v -6 h 68 10 V 88 C 140,68.696505 124.30349,53 105,53 Z m 0,10 h 18 c 13.93647,0 25,11.063528 25,25 v 4 H 62 V 88 C 62,74.063528 73.063528,63 87,63 Z"/>
  <path style="fill:#bcd4f1;color:#000000" d="M 87 51 C 67.696505 51 52 66.696505 52 86 L 52 106 C 52 125.30349 67.696505 141 87 141 L 105 141 C 120.46086 141 133.59918 130.92698 138.2207 117 L 127.47266 117 C 123.44157 125.3241 114.96901 131 105 131 L 87 131 C 73.063528 131 62 119.93647 62 106 L 62 100 L 130 100 L 140 100 L 140 86 C 140 66.696505 124.30349 51 105 51 L 87 51 z M 87 61 L 105 61 C 118.93647 61 130 72.063528 130 86 L 130 90 L 62 90 L 62 86 C 62 72.063528 73.063528 61 87 61 z "/>
</svg>
