<?xml version='1.0' encoding='utf-8'?>
<svg xmlns="http://www.w3.org/2000/svg" width="192" height="192" version="1" id="svg14">
  <defs>
    <filter style="color-interpolation-filters:sRGB" id="filter850" x="0.05" width="1.10" y="0.05" height="1.10">
      <feGaussianBlur stdDeviation="3.20"/>
    </filter>
    <filter style="color-interpolation-filters:sRGB" id="filter5752" x="0.11" y="0.11" width="1.22" height="1.22">
      <feGaussianBlur stdDeviation="4.86"/>
    </filter>
  </defs>
  <circle style="filter:url(#filter850);opacity:0.20;fill:#000000" cx="96" cy="100" r="80"/>
  <circle r="80" cy="96" cx="96" style="fill:#eb3343"/>
  <path style="fill:#38adfa" d="m 688.81,257.00 c 0.33,0.33 -1.19,0.37 -1.92,0.08 0.80,0.32 0.56,0.56 0.60,0.60 1.05,0.04 1.64,0.19 1.31,0.53 z"/>
  <path style="opacity:0.20;fill:#ffffff" d="M 96 16 A 80 80 0 0 0 16 96 A 80 80 0 0 0 16.02 96.47 A 80 80 0 0 1 96 17 A 80 80 0 0 1 175.97 96.51 A 80 80 0 0 0 176 96 A 80 80 0 0 0 96 16 z "/>
  <path style="filter:url(#filter5752);opacity:0.20;fill:#000000;color:#000000" d="m 96,44 c -29.75,0 -54,24.25 -54,54 0,29.75 24.25,54 54,54 29.75,0 54,-24.25 54,-54 0,-29.75 -24.25,-54 -54,-54 z m 0,12 c 23.27,0 42,18.73 42,42 0,23.27 -18.73,42 -42,42 C 72.73,140 54,121.27 54,98 54,74.73 72.73,56 96,56 Z M 85,71 c 0,8.03 -5.50,14.03 -15,13.98 V 89 h 15 v 36 h 7 V 89 h 15 v 36 h 7 V 71 h -7 c 0,8.03 -5.50,14.03 -15,13.98 V 71 Z"/>
  <path style="fill:#ffffff;color:#000000" d="M 96 42 C 66.25 42 42 66.25 42 96 C 42 125.75 66.25 150 96 150 C 125.75 150 150 125.75 150 96 C 150 66.25 125.75 42 96 42 z M 96 54 C 119.27 54 138 72.73 138 96 C 138 119.27 119.27 138 96 138 C 72.73 138 54 119.27 54 96 C 54 72.73 72.73 54 96 54 z M 85 69 C 85 77.03 79.50 83.03 70 82.98 L 70 87 L 85 87 L 85 123 L 92 123 L 92 87 L 107 87 L 107 123 L 114 123 L 114 69 L 107 69 C 107 77.03 101.50 83.03 92 82.98 L 92 69 L 85 69 z "/>
</svg>
