<?xml version='1.0' encoding='utf-8'?>
<svg xmlns="http://www.w3.org/2000/svg" width="192" height="192" version="1" id="svg16">
  <defs>
    <filter style="color-interpolation-filters:sRGB" id="filter863" x="-0.047999999" width="1.096" y="-0.047999999" height="1.096">
      <feGaussianBlur stdDeviation="3.199992"/>
    </filter>
    <filter style="color-interpolation-filters:sRGB" id="filter882" x="-0.047867925" width="1.0957358" y="-0.04813281" height="1.0962656">
      <feGaussianBlur stdDeviation="2.5482749"/>
    </filter>
    <filter style="color-interpolation-filters:sRGB" id="filter898" x="-0.048000001" width="1.096" y="-0.048000001" height="1.096">
      <feGaussianBlur stdDeviation="0.95999763"/>
    </filter>
  </defs>
  <path d="M 95.9998,20.0004 C 51.679911,20.0004 16,55.680311 16,100.0002 16,144.32009 51.679911,180 95.9998,180 c 44.31989,0 79.9998,-35.67991 79.9998,-79.9998 0,-44.319889 -35.67991,-79.9998 -79.9998,-79.9998 z" style="filter:url(#filter863);opacity:0.2;fill:#000000"/>
  <path style="fill:#154277" d="M 95.9998,16.00041 C 51.679911,16.00041 16,51.680321 16,96.00021 c 0,44.31989 35.679911,79.9998 79.9998,79.9998 44.31989,0 79.9998,-35.67991 79.9998,-79.9998 0,-44.319889 -35.67991,-79.9998 -79.9998,-79.9998 z"/>
  <path style="opacity:0.1;fill:#ffffff" d="m 96,16 c -44.279381,0.0011 -79.925781,35.680765 -79.925781,80 0,0.115408 0.0062,0.228871 0.0078,0.34375 C 16.432728,52.329842 51.939929,17.001047 96,17 h 0.002 c 44.05968,0.001 79.56727,35.329842 79.91797,79.34375 0.002,-0.114879 0.008,-0.228342 0.008,-0.34375 0,-44.319235 -35.64679,-79.998947 -79.92578,-80 z"/>
  <path style="filter:url(#filter882);opacity:0.2" d="m 142.72625,33.070815 -12.08591,20.937447 -8.13279,14.085905 a 39.9999,39.9999 0 0 1 13.49215,29.906173 39.9999,39.9999 0 0 1 -2.09375,12.6484 l 14.07028,8.12498 a 55.99986,55.99986 0 0 0 4.02343,-20.77338 55.99986,55.99986 0 0 0 -9.92185,-31.796797 l 12.85934,-22.27338 c -3.68998,-4.022246 -7.76899,-7.663419 -12.2109,-10.859348 z M 41.929623,39.062987 c -4.022247,3.689983 -7.663419,7.768997 -10.859348,12.210906 l 20.937447,12.08591 14.085905,8.132791 A 39.9999,39.9999 0 0 1 95.9998,58.00044 a 39.9999,39.9999 0 0 1 12.6484,2.093747 l 8.12498,-14.070281 A 55.99986,55.99986 0 0 0 95.9998,42.00048 55.99986,55.99986 0 0 0 64.203003,51.922331 Z m 2.093743,38.163969 a 55.99986,55.99986 0 0 0 -4.023426,20.773384 55.99986,55.99986 0 0 0 9.921851,31.7968 L 38.476506,149.6174 c 3.773616,3.90308 7.912282,7.44616 12.414031,10.5156 l 10.468726,-18.14058 8.132791,-14.08591 A 39.9999,39.9999 0 0 1 55.9999,98.00034 39.9999,39.9999 0 0 1 58.093647,85.351936 Z M 125.90597,124.50809 A 39.9999,39.9999 0 0 1 95.9998,138.00024 39.9999,39.9999 0 0 1 83.351396,135.90649 l -8.12498,14.07028 a 55.99986,55.99986 0 0 0 20.773384,4.02343 55.99986,55.99986 0 0 0 31.7968,-9.92185 l 19.57807,11.30466 c 4.22818,-3.53848 8.04627,-7.52613 11.46091,-11.85935 l -18.8437,-10.88278 z"/>
  <path style="fill:#5286fe" d="m 142.72625,31.070685 -12.08591,20.937447 -8.13279,14.085905 a 39.9999,39.9999 0 0 1 13.49215,29.906173 39.9999,39.9999 0 0 1 -2.09375,12.6484 l 14.07028,8.12498 a 55.99986,55.99986 0 0 0 4.02343,-20.77338 55.99986,55.99986 0 0 0 -9.92185,-31.796797 l 12.85934,-22.27338 c -3.68998,-4.022246 -7.76899,-7.663419 -12.2109,-10.859348 z M 41.929623,37.062857 c -4.022246,3.689983 -7.663419,7.768997 -10.859348,12.210906 l 20.937447,12.08591 14.085905,8.132791 A 39.9999,39.9999 0 0 1 95.9998,56.00031 a 39.9999,39.9999 0 0 1 12.6484,2.093747 l 8.12498,-14.070281 A 55.99986,55.99986 0 0 0 95.9998,40.00035 55.99986,55.99986 0 0 0 64.203003,49.922201 Z m 2.093743,38.163969 a 55.99986,55.99986 0 0 0 -4.023426,20.773384 55.99986,55.99986 0 0 0 9.921851,31.7968 l -12.859344,22.27338 c 3.689983,4.02224 7.768997,7.66342 12.210906,10.85935 l 12.08591,-20.93745 8.132791,-14.08591 A 39.9999,39.9999 0 0 1 55.9999,96.00021 39.9999,39.9999 0 0 1 58.093647,83.351806 Z M 125.90597,122.50796 A 39.9999,39.9999 0 0 1 95.9998,136.00011 39.9999,39.9999 0 0 1 83.351396,133.90636 l -8.12498,14.07028 a 55.99986,55.99986 0 0 0 20.773384,4.02343 55.99986,55.99986 0 0 0 31.7968,-9.92185 l 22.27338,12.85934 c 4.02224,-3.68998 7.66342,-7.76899 10.85935,-12.2109 l -20.93745,-12.08591 z"/>
  <circle style="filter:url(#filter898);opacity:0.2" cx="95.999802" cy="98.000061" r="23.999941"/>
  <circle style="fill:#f5ca4a" cx="95.999802" cy="96.000214" r="23.999941"/>
</svg>
