<svg xmlns="http://www.w3.org/2000/svg" id="svg14" width="192" height="192" version="1"><defs><filter style="color-interpolation-filters:sRGB" id="filter850" width="1.1" height="1.1" x=".05" y=".05"><feGaussianBlur stdDeviation="3.2"/></filter><filter style="color-interpolation-filters:sRGB" id="filter1594" width="1.1" height="1.1" x=".05" y=".05"><feGaussianBlur stdDeviation="2.18"/></filter></defs><rect style="filter:url(#filter850);opacity:.2;fill:#000" width="160" height="160" x="-180" y="-176" rx="80" ry="80" transform="matrix(0,-1,-1,0,0,0)"/><rect width="160" height="160" x="-176" y="-176" rx="80" ry="80" transform="matrix(0,-1,-1,0,0,0)" style="fill:#0381d6"/><path style="opacity:.2;fill:#fff" d="m 96,16 c -44.32,0 -80,35.68 -80,80 0,0.12 0.01,0.23 0.01,0.35 C 16.36,52.33 51.90,17 96,17 140.10,17 175.64,52.33 175.99,96.35 175.99,96.23 176,96.12 176,96 176,51.68 140.32,16 96,16 Z"/><path fill="#fff" d="m 96.57,44 c 8.56,0 16.70,1.96 24.00,5.47 1.15,0.52 2.30,1.14 3.44,1.75 l -5.01,4.44 -7.51,-7.74 -12.94,11.35 -7.62,-8.15 -23.79,21.15 15.23,16.61 -5.95,5.16 15.03,16.61 -5.95,5.15 21.50,23.62 12.72,-11.55 11.07,12.38 c -2.19,1.65 -4.59,3.30 -7.20,4.75 C 115.67,149.43 106.49,152 96.68,152 66.52,152 42.00,127.76 42.00,97.95 41.89,68.35 66.42,44 96.57,44 Z M 86.55,94.65 99.60,83.10 111.29,95.99 98.24,107.54 Z m 9.29,22.28 12.94,-11.66 11.79,12.89 -13.04,11.55 z M 77.27,72.68 90.31,61.12 102.00,74.02 88.96,85.57 Z m 23.89,-6.19 9.71,-8.66 8.77,9.59 -9.71,8.77 z m 17.32,39.72 9.70,-8.67 8.77,9.69 -9.71,8.67 z m 8.56,19.50 9.71,-8.67 8.76,9.59 -9.70,8.77 z m 3.97,-44.57 6.47,-5.78 5.84,6.40 -6.47,5.78 z m -8.35,-19.08 6.47,-5.88 5.85,6.50 -6.47,5.78 z m 16.59,38.17 6.47,-5.78 5.95,6.40 -6.57,5.78 z m -29.11,-14.34 9.71,-8.67 8.76,9.59 -9.70,8.67 z" style="filter:url(#filter1594);opacity:.2;fill:#000"/><path fill="#fff" d="m 96.57,42 c 8.56,0 16.70,1.96 24.00,5.47 1.15,0.52 2.30,1.14 3.44,1.75 l -5.01,4.44 -7.51,-7.74 -12.94,11.35 -7.62,-8.15 -23.79,21.15 15.23,16.61 -5.95,5.16 15.03,16.61 -5.95,5.15 21.50,23.62 12.72,-11.55 11.07,12.38 c -2.19,1.65 -4.59,3.30 -7.20,4.75 C 115.67,147.43 106.49,150 96.68,150 66.52,150 42.00,125.76 42.00,95.95 41.89,66.35 66.42,42 96.57,42 Z M 86.55,92.65 99.60,81.10 111.29,93.99 98.24,105.54 Z m 9.29,22.28 12.94,-11.66 11.79,12.89 -13.04,11.55 z M 77.27,70.68 90.31,59.12 102.00,72.02 88.96,83.57 Z m 23.89,-6.19 9.71,-8.66 8.77,9.59 -9.71,8.77 z m 17.32,39.72 9.70,-8.67 8.77,9.69 -9.71,8.67 z m 8.56,19.50 9.71,-8.67 8.76,9.59 -9.70,8.77 z m 3.97,-44.57 6.47,-5.78 5.84,6.40 -6.47,5.78 z m -8.35,-19.08 6.47,-5.88 5.85,6.50 -6.47,5.78 z m 16.59,38.17 6.47,-5.78 5.95,6.40 -6.57,5.78 z m -29.11,-14.34 9.71,-8.67 8.76,9.59 -9.70,8.67 z" style="fill:#fff"/></svg>