<?xml version='1.0' encoding='utf-8'?>
<svg xmlns="http://www.w3.org/2000/svg" width="192" height="192" version="1" id="svg12">
  <defs>
    <filter style="color-interpolation-filters:sRGB" id="filter955" x="-0.048000001" width="1.096" y="-0.048000001" height="1.096">
      <feGaussianBlur stdDeviation="3.2"/>
    </filter>
    <filter style="color-interpolation-filters:sRGB" id="filter11660" x="-0.063490099" y="-0.091607143" width="1.1269802" height="1.1832143">
      <feGaussianBlur stdDeviation="2.671875"/>
    </filter>
  </defs>
  <rect style="filter:url(#filter955);opacity:0.2;fill:#000000" width="160" height="160" x="16" y="20" rx="30" ry="30"/>
  <rect style="fill:#ffb523" width="160" height="160" x="16" y="16" rx="30" ry="30"/>
  <path style="filter:url(#filter11660);opacity:0.2;fill:#000000" d="m 70,63 c -13.254834,0 -24,10.745166 -24,24 0.02852,11.188881 7.784866,20.87358 18.697266,23.3457 L 50.355469,133 h 18.935547 l 18.748046,-29.61328 c 1.553355,-2.42829 3.067378,-4.915839 4.134766,-7.333986 C 93.359831,93.188933 93.983161,90.115326 94,87 94,73.745166 83.254834,63 70,63 Z m 53,0 c -13.25483,0 -24,10.745166 -24,24 0.02852,11.188881 7.78487,20.87358 18.69727,23.3457 L 103.35547,133 h 18.93555 l 18.74804,-29.61328 c 1.55335,-2.42829 3.06739,-4.915839 4.13477,-7.333986 C 146.35984,93.188933 146.98316,90.115326 147,87 147,73.745166 136.25484,63 123,63 Z M 70,78 c 4.970563,0 9,4.029437 9,9 0,4.970563 -4.029437,9 -9,9 -4.970563,0 -9,-4.029437 -9,-9 0,-4.970563 4.029437,-9 9,-9 z m 53,0 c 4.97056,0 9,4.029437 9,9 0,4.970563 -4.02944,9 -9,9 -4.97056,0 -9,-4.029437 -9,-9 0,-4.970563 4.02944,-9 9,-9 z"/>
  <path style="opacity:0.2;fill:#ffffff" d="M 46 16 C 29.38 16 16 29.38 16 46 L 16 47 C 16 30.38 29.38 17 46 17 L 146 17 C 162.62 17 176 30.38 176 47 L 176 46 C 176 29.38 162.62 16 146 16 L 46 16 z "/>
  <path style="fill:#3f3f3f" d="m 70,61 c -13.254834,0 -24,10.745166 -24,24 0.02852,11.188881 7.784866,20.87358 18.697266,23.3457 L 50.355469,131 h 18.935547 l 18.748838,-29.61405 c 1.553355,-2.428294 3.066831,-4.914589 4.134219,-7.332736 C 93.360076,91.189413 93.983161,88.115326 94,85 94,71.745166 83.254834,61 70,61 Z m 0,15 c 4.970563,0 9,4.029437 9,9 0,4.970563 -4.029437,9 -9,9 -4.970563,0 -9,-4.029437 -9,-9 0,-4.970563 4.029437,-9 9,-9 z"/>
  <path style="fill:#3f3f3f" d="m 123,61 c -13.25483,0 -24,10.745166 -24,24 0.02852,11.188881 7.78487,20.87358 18.69727,23.3457 L 103.35547,131 h 18.93555 l 18.74884,-29.61405 c 1.55335,-2.428294 3.06683,-4.914589 4.13421,-7.332736 C 146.36008,91.189413 146.98316,88.115326 147,85 147,71.745166 136.25484,61 123,61 Z m 0,15 c 4.97056,0 9,4.029437 9,9 0,4.970563 -4.02944,9 -9,9 -4.97056,0 -9,-4.029437 -9,-9 0,-4.970563 4.02944,-9 9,-9 z"/>
</svg>
