<?xml version='1.0' encoding='utf-8'?>
<svg xmlns="http://www.w3.org/2000/svg" width="192" height="192" version="1" id="svg16">
  <defs>
    <filter style="color-interpolation-filters:sRGB" id="filter863" x="0.05" width="1.10" y="0.05" height="1.10">
      <feGaussianBlur stdDeviation="3.20"/>
    </filter>
    <filter style="color-interpolation-filters:sRGB" id="filter887" x="0.05" width="1.09" y="0.05" height="1.10">
      <feGaussianBlur stdDeviation="0.50"/>
    </filter>
  </defs>
  <rect ry="8" rx="8" y="20" x="16" height="160" width="160" style="filter:url(#filter863);opacity:0.20;fill:#000000"/>
  <rect style="fill:#ff9959" width="160" height="160" x="16" y="16" rx="8" ry="8"/>
  <path style="opacity:0.20;fill:#ffffff" d="M 24 16 C 19.57 16 16 19.57 16 24 L 16 25 C 16 20.57 19.57 17 24 17 L 168 17 C 172.43 17 176 20.57 176 25 L 176 24 C 176 19.57 172.43 16 168 16 L 24 16 z "/>
  <g style="filter:url(#filter887);opacity:0.10" transform="matrix(4,0,0,4,0.01,2.02)">
    <path d="m 29.23,12.06 c 0.43,0.34 -1.68,2.72 -2.93,5.55 0.51,1.16 -1.23,2.67 -1.59,3.36 -1.08,2.06 -3.71,5.80 -4.93,7 l -1.14,1.12 0.85,0.93 c 0.52,0.57 1.21,1.75 1.78,3.08 1.08,2.52 1.27,2.89 1.48,2.89 0.10,0 0.65,0.31 1.27,0.71 1.38,0.90 2.67,-2.10 4.42,-4.14 2.74,-3.19 4.79,-3.87 7.32,-2.40 0.68,0.40 1.25,0.65 1.25,0.56 0,0.10 0.35,-1.06 0.77,-2.14 0.42,-1.08 -1.56,-4.14 -2.53,-6.79 0.69,-1.16 -2.95,-9.12 -4.48,-8.30 m -5.46,6.53 c 0.01,0 0.03,0 0.04,0.01 -2.32,1.04 -3.15,1.51 -3.84,2.17 0.45,0.44 0.82,0.91 0.82,1.05 0,0.43 1.82,1.56 2.12,1.32 0.14,0.12 0.71,0.95 1.27,-1.86 0.97,-1.62 1.48,-2.66 1.30,-2.69 m -6.48,4.59 c 0.40,0 -5.99,2.17 -6.26,2.43 0.08,0.07 0.00,0.21 0.18,0.31 0.18,0.10 1.20,0.81 2.29,1.56 1.08,0.75 2.02,1.37 2.09,1.37 0.07,0 0.56,0.27 1.09,0.59 1.12,0.69 3.27,-2.82 3.26,-3.22 0.01,0.36 -2.16,-1.85 -2.66,-1.85 m 0.00,0.00"/>
  </g>
  <g style="fill:#4d4d4d" transform="matrix(4,0,0,4,0.01,0.02)">
    <path d="m 29.23,12.06 c 0.43,0.34 -1.68,2.72 -2.93,5.55 0.51,1.16 -1.23,2.67 -1.59,3.36 -1.08,2.06 -3.71,5.80 -4.93,7 l -1.14,1.12 0.85,0.93 c 0.52,0.57 1.21,1.75 1.78,3.08 1.08,2.52 1.27,2.89 1.48,2.89 0.10,0 0.65,0.31 1.27,0.71 1.38,0.90 2.67,-2.10 4.42,-4.14 2.74,-3.19 4.79,-3.87 7.32,-2.40 0.68,0.40 1.25,0.65 1.25,0.56 0,0.10 0.35,-1.06 0.77,-2.14 0.42,-1.08 -1.56,-4.14 -2.53,-6.79 0.69,-1.16 -2.95,-9.12 -4.48,-8.30 m -5.46,6.53 c 0.01,0 0.03,0 0.04,0.01 -2.32,1.04 -3.15,1.51 -3.84,2.17 0.45,0.44 0.82,0.91 0.82,1.05 0,0.43 1.82,1.56 2.12,1.32 0.14,0.12 0.71,0.95 1.27,-1.86 0.97,-1.62 1.48,-2.66 1.30,-2.69 m -6.48,4.59 c 0.40,0 -5.99,2.17 -6.26,2.43 0.08,0.07 0.00,0.21 0.18,0.31 0.18,0.10 1.20,0.81 2.29,1.56 1.08,0.75 2.02,1.37 2.09,1.37 0.07,0 0.56,0.27 1.09,0.59 1.12,0.69 3.27,-2.82 3.26,-3.22 0.01,0.36 -2.16,-1.85 -2.66,-1.85 m 0.00,0.00"/>
  </g>
</svg>
