<?xml version='1.0' encoding='utf-8'?>
<svg xmlns="http://www.w3.org/2000/svg" width="192" height="192" version="1.1" id="svg14">
  <defs>
    <filter style="color-interpolation-filters:sRGB" id="filter6159" x="0.05" y="0.05" width="1.10" height="1.10">
      <feGaussianBlur stdDeviation="3.20"/>
    </filter>
  </defs>
  <circle style="fill:#3f3f3f" cx="96" cy="96" r="54"/>
  <path style="filter:url(#filter6159);opacity:0.20;fill:#000000" d="m 96,20 a 80,80 0 0 0 -80,80 80,80 0 0 0 80,80 80,80 0 0 0 80,-80 80,80 0 0 0 -80,-80 z m 0,28 a 52,52 0 0 1 52,52 52,52 0 0 1 -52,52 52,52 0 0 1 -52,-52 52,52 0 0 1 52,-52 z m 23.34,18.02 a 3,3 0 0 0 0.78,0.01 3,3 0 0 0 -1.97,1.18 L 95.97,95.00 A 5,5 0 0 0 91,100 a 5,5 0 0 0 5,5 5,5 0 0 0 5,-5 5,5 0 0 0 0.21,-1.42 l 20.62,-27.79 a 3,3 0 0 0 0.62,-4.20 3,3 0 0 0 -1.44,0.57 z"/>
  <path style="fill:#ff9b0a" d="M 96 16 A 80 80 0 0 0 16 96 A 80 80 0 0 0 96 176 A 80 80 0 0 0 176 96 A 80 80 0 0 0 96 16 z M 96 44 A 52 52 0 0 1 148 96 A 52 52 0 0 1 96 148 A 52 52 0 0 1 44 96 A 52 52 0 0 1 96 44 z M 119.34 62.02 A 3 3 0 0 0 118.56 62.03 A 3 3 0 0 0 116.59 63.21 L 95.97 91.00 A 5 5 0 0 0 91 96 A 5 5 0 0 0 96 101 A 5 5 0 0 0 101 96 A 5 5 0 0 0 100.79 94.58 L 121.41 66.79 A 3 3 0 0 0 120.79 62.59 A 3 3 0 0 0 119.34 62.02 z "/>
  <path style="opacity:0.20;fill:#ffffff" d="M 96 16 A 80 80 0 0 0 16 96 A 80 80 0 0 0 16.04 96.50 A 80 80 0 0 1 96 17 A 80 80 0 0 1 175.98 96.25 A 80 80 0 0 0 176 96 A 80 80 0 0 0 96 16 z M 119.34 62.02 A 3 3 0 0 0 118.56 62.03 A 3 3 0 0 0 116.59 63.21 L 95.97 91.00 A 5 5 0 0 0 91 96 A 5 5 0 0 0 91.13 96.50 A 5 5 0 0 1 95.97 92.00 L 116.59 64.21 A 3 3 0 0 1 118.56 63.03 A 3 3 0 0 1 119.34 63.02 A 3 3 0 0 1 120.79 63.59 A 3 3 0 0 1 121.95 65.55 A 3 3 0 0 0 120.79 62.59 A 3 3 0 0 0 119.34 62.02 z M 100.91 95.41 L 100.79 95.58 A 5 5 0 0 1 100.91 96.35 A 5 5 0 0 0 101 96 A 5 5 0 0 0 100.91 95.41 z M 147.98 96.26 A 52 52 0 0 1 96 148 A 52 52 0 0 1 44.04 96.50 A 52 52 0 0 0 44 97 A 52 52 0 0 0 96 149 A 52 52 0 0 0 148 97 A 52 52 0 0 0 147.98 96.26 z "/>
</svg>
