<?xml version='1.0' encoding='utf-8'?>
<svg xmlns="http://www.w3.org/2000/svg" width="192" height="192" version="1" id="svg28">
  <defs>
    <filter style="color-interpolation-filters:sRGB" id="filter6580" x="0.06" y="0.04" width="1.12" height="1.08">
      <feGaussianBlur stdDeviation="2.72"/>
    </filter>
    <filter style="color-interpolation-filters:sRGB" id="filter6625" x="0.08" y="0.04" width="1.15" height="1.09">
      <feGaussianBlur stdDeviation="1.26"/>
    </filter>
    <filter style="color-interpolation-filters:sRGB" id="filter6672" x="0.05" y="0.05" width="1.09" height="1.10">
      <feGaussianBlur stdDeviation="1.58"/>
    </filter>
    <filter style="color-interpolation-filters:sRGB" id="filter6717" x="0.06" y="0.04" width="1.12" height="1.08">
      <feGaussianBlur stdDeviation="1.75"/>
    </filter>
    <filter style="color-interpolation-filters:sRGB" id="filter6762" x="0.11" y="0.11" width="1.22" height="1.21">
      <feGaussianBlur stdDeviation="2.02"/>
    </filter>
    <filter style="color-interpolation-filters:sRGB" id="filter888" x="0.06" y="0.04" width="1.12" height="1.08">
      <feGaussianBlur stdDeviation="2.12"/>
    </filter>
  </defs>
  <path style="filter:url(#filter6625);opacity:0.20;fill:#000000" d="m 36.48,100.44 -15.41,7.19 18.04,38.65 A 20,20 0 0 0 39.00,148 a 20,20 0 0 0 20,20 20,20 0 0 0 1.17,0.08 c 0.10,0.63 0.17,-1.26 0.17,-1.92 v -37.97 a 20,20 0 0 0 -1,0.03 20,20 0 0 0 -8.71,2.04 z"/>
  <rect style="filter:url(#filter6580);opacity:0.20;fill:#000000" width="112" height="160" x="60.00" y="20" ry="12" rx="12"/>
  <rect style="fill:#4f4f4f" width="112" height="160" x="60.00" y="16" ry="12" rx="12"/>
  <rect style="filter:url(#filter888);opacity:0.20;fill:#000000" width="86" height="126" x="73.00" y="33"/>
  <rect style="fill:#ffffff" width="86" height="126" x="73.00" y="30"/>
  <path style="filter:url(#filter6762);opacity:0.20;fill:#000000" d="m 101.37,28 -4.37,19 h 44.00 z m -4.37,27 4.37,19 39.63,-19 z"/>
  <path style="fill:#666666" d="M 97.00,53 H 141.00 L 101.37,72 Z"/>
  <path style="fill:#b3b3b3" d="M 97.00,45 H 141.00 L 101.37,26 Z"/>
  <path style="fill:#ff9833" d="m 59.00,126 a 20,20 0 0 0 -20,20 20,20 0 0 0 20,20 20,20 0 0 0 1.17,0.08 C 60.07,165.29 60.00,164.65 60.00,164 v -37.97 a 20,20 0 0 0 -1,0.03 z"/>
  <path style="fill:#ff9833;color:#000000" d="m 36.48,98.44 -15.41,7.19 22.60,48.40 15.40,-7.19 z"/>
  <path style="filter:url(#filter6672);opacity:0.20;fill:#000000;color:#000000" d="M 79.50,38 A 13.50,13.50 0 0 0 66.04,50.99 l -37.37,30.04 A 17,17 0 0 0 12.00,98 a 17,17 0 0 0 17,17 17,17 0 0 0 17,-17 17,17 0 0 0 -4.03,-10.99 L 72.11,62.79 A 13.50,13.50 0 0 0 79.50,65 a 13.50,13.50 0 0 0 13.50,-13.50 13.50,13.50 0 0 0 -13.50,-13.50 z"/>
  <path style="fill:#ffbb33;color:#000000" d="m 73.76,42.78 -49.76,40 8.14,10.13 49.76,-40 z"/>
  <circle style="fill:#ffbb33" cx="29.00" cy="96" r="17"/>
  <path style="opacity:0.20;fill:#ffffff;color:#000000" d="M 73.76,42.78 28.67,79.02 A 17,17 0 0 0 12.00,96 17,17 0 0 0 12.05,96.50 17,17 0 0 1 28.67,80.02 l 45.09,-36.24 7.66,9.53 0.49,0.39 z M 42.42,85.65 41.97,86.01 A 17,17 0 0 1 45.95,96.47 17,17 0 0 0 46.00,96 17,17 0 0 0 42.42,85.65 Z"/>
  <circle style="fill:#ffbb33" cx="79.50" cy="49.50" r="13.50"/>
  <path style="filter:url(#filter6717);opacity:0.20;fill:#000000;color:#000000" d="m 96.00,41.00 a 10,10 0 0 0 -10,10 10,10 0 0 0 10,10 10,10 0 0 0 10.00,-10 10,10 0 0 0 -10.00,-10 z m -1.50,39 c -6.90,0 -12.50,5.60 -12.50,12.50 0,6.90 5.60,5.50 12.50,5.50 6.90,0 12.50,1.40 12.50,-5.50 0,-6.90 -5.60,-12.50 -12.50,-12.50 z m 43.00,0 c -6.90,0 -12.50,5.60 -12.50,12.50 0,6.90 5.60,5.50 12.50,5.50 6.90,0 12.50,1.40 12.50,-5.50 0,-6.90 -5.60,-12.50 -12.50,-12.50 z m 7.50,29.00 a 5,5 0 0 0 -5,5 c 0,13.28 -10.64,23.95 -23.92,24 -13.28,0.05 -23.99,-10.55 -24.08,-23.83 a 5,5 0 0 0 -5.04,-4.96 5,5 0 0 0 -4.96,5.04 c 0.13,18.67 15.45,33.83 34.12,33.76 18.67,0.07 33.88,-15.33 33.88,-34 a 5,5 0 0 0 -5,-5 z"/>
  <circle style="fill:#999999" cx="96.00" cy="49" r="10"/>
  <path style="fill:#666666;color:#000000" d="m 94.50,78 c -6.90,0 -12.50,5.60 -12.50,12.50 0,6.90 5.60,5.50 12.50,5.50 6.90,0 12.50,1.40 12.50,-5.50 0,-6.90 -5.60,-12.50 -12.50,-12.50 z m 43.00,0 c -6.90,0 -12.50,5.60 -12.50,12.50 0,6.90 5.60,5.50 12.50,5.50 6.90,0 12.50,1.40 12.50,-5.50 0,-6.90 -5.60,-12.50 -12.50,-12.50 z m 7.50,29 a 5,5 0 0 0 -5,5 c 0,13.28 -10.64,23.95 -23.92,24 -13.28,0.05 -23.99,-10.55 -24.08,-23.83 a 5,5 0 0 0 -5.04,-4.96 5,5 0 0 0 -4.96,5.04 c 0.13,18.67 15.45,33.83 34.12,33.76 18.67,0.07 33.88,-15.33 33.88,-34 a 5,5 0 0 0 -5,-5 z"/>
  <path style="opacity:0.10;fill:#ffffff" d="m 72.00,16 c -6.65,0 -12,5.35 -12,12 v 1 c 0,-6.65 5.35,-12 12,-12 h 88.00 c 6.65,0 12,5.35 12,12 v -1 c 0,-6.65 -5.35,-12 -12,-12 z"/>
</svg>
