<?xml version='1.0' encoding='utf-8'?>
<svg xmlns="http://www.w3.org/2000/svg" width="192" height="192" version="1" id="svg14">
  <defs>
    <filter style="color-interpolation-filters:sRGB" id="filter850" x="0.05" width="1.10" y="0.05" height="1.10">
      <feGaussianBlur stdDeviation="3.20"/>
    </filter>
    <filter style="color-interpolation-filters:sRGB" id="filter10737" x="0.08" y="0.16" width="1.16" height="1.32">
      <feGaussianBlur stdDeviation="2.70"/>
    </filter>
    <filter style="color-interpolation-filters:sRGB" id="filter10779" x="0.07" y="0.07" width="1.15" height="1.15">
      <feGaussianBlur stdDeviation="4"/>
    </filter>
  </defs>
  <circle style="filter:url(#filter850);opacity:0.20;fill:#000000" cx="96" cy="100" r="80"/>
  <circle r="80" cy="96" cx="96" style="fill:#e4e4e4"/>
  <circle r="64" cy="98" cx="96" style="filter:url(#filter10779);opacity:0.20;fill:#000000"/>
  <path style="opacity:0.10;fill:#ffffff" d="M 96 16 A 80 80 0 0 0 16 96 A 80 80 0 0 0 16.02 96.47 A 80 80 0 0 1 96 17 A 80 80 0 0 1 175.97 96.51 A 80 80 0 0 0 176 96 A 80 80 0 0 0 96 16 z "/>
  <circle r="64" cy="96" cx="96" style="fill:#f44336"/>
  <path style="filter:url(#filter10737);opacity:0.20;fill:#000000" d="m 56,78 v 8 h 13 v 32 H 80 V 86 h 13 v -8 z m 38,0 14.84,40 h 12.32 L 136,78 H 125.61 L 115.01,107.53 104.39,78 Z"/>
  <path style="fill:#ffffff" d="M 56 76 L 56 84 L 69 84 L 69 116 L 80 116 L 80 84 L 93 84 L 93 76 L 56 76 z M 94 76 L 108.84 116 L 121.16 116 L 136 76 L 125.61 76 L 115.01 105.53 L 104.39 76 L 94 76 z "/>
</svg>
