<svg xmlns="http://www.w3.org/2000/svg" id="svg28" width="192" height="192" version="1"><defs><filter style="color-interpolation-filters:sRGB" id="filter6495" width="1.1" height="1.1" x=".05" y=".05"><feGaussianBlur stdDeviation="3.2"/></filter><filter style="color-interpolation-filters:sRGB" id="filter9723" width="1.22" height="1.22" x=".11" y=".11"><feGaussianBlur stdDeviation="4.23"/></filter></defs><rect width="160" height="160" x="-180" y="-176" rx="12" ry="12" transform="matrix(0,-1,-1,0,0,0)" style="filter:url(#filter6495);opacity:.2;fill:#000"/><rect width="160" height="160" x="-176" y="-176" rx="12" ry="12" transform="matrix(0,-1,-1,0,0,0)" style="fill:#14abf1"/><path style="opacity:.2;fill:#fff" d="m 28,16 c -6.65,0 -12,5.35 -12,12 v 1 c 0,-6.65 5.35,-12 12,-12 h 136 c 6.65,0 12,5.35 12,12 v -1 c 0,-6.65 -5.35,-12 -12,-12 z"/><rect style="filter:url(#filter9723);opacity:.2;fill:#000" width="94" height="94" x="49" y="51" ry="10"/><rect style="fill:#fff" width="94" height="94" x="49" y="49" ry="10"/><rect style="fill:#dcdcdc" width="76" height="6" x="58" y="64"/><rect style="fill:#dcdcdc" width="76" height="6" x="58" y="80"/><rect style="fill:#dcdcdc" width="40" height="6" x="58" y="96"/></svg>