<?xml version='1.0' encoding='utf-8'?>
<svg xmlns="http://www.w3.org/2000/svg" width="192" height="192" version="1.1" id="svg20">
  <defs>
    <filter style="color-interpolation-filters:sRGB" id="filter857" x="0.05" width="1.10" y="0.05" height="1.10">
      <feGaussianBlur stdDeviation="3.20"/>
    </filter>
    <filter style="color-interpolation-filters:sRGB" id="filter875" x="0.04" width="1.07" y="0.07" height="1.14">
      <feGaussianBlur stdDeviation="1.95"/>
    </filter>
  </defs>
  <circle r="80" cy="100" cx="96" style="filter:url(#filter857);opacity:0.20"/>
  <circle r="80" cy="96" cx="96" style="fill:#e4e4e4"/>
  <path style="opacity:0.20;fill:#ffffff" d="M 96,16 A 80,80 0 0 0 16,96 80,80 0 0 0 16.02,96.47 80,80 0 0 1 96,17 80,80 0 0 1 175.97,96.51 80,80 0 0 0 176,96 80,80 0 0 0 96,16 Z"/>
  <path style="filter:url(#filter875);opacity:0.20;fill:#000000;fill-rule:evenodd" d="M 85.71,65.00 C 84.19,65.00 82,66.25 82,68.74 v 37.13 c 0,3.69 3.71,6.13 6.59,6.13 h 19.30 c 2.95,0 4.14,0.79 4.53,-2.46 0.39,-1.67 0.58,-4.54 0.58,-7.04 0,-2.50 -1.38,-3.42 -2.83,-3.42 H 99.54 C 96.58,99.09 95,97.51 95,96.06 V 69.58 C 95,65.46 92.61,65.00 91.29,65.00 Z m 67.05,6.01 c -2.10,0.11 -4.72,1.52 -5.75,2.95 0.91,1.27 -4.92,5.83 -12.03,13.68 -4.32,-6.36 -7.46,-10.40 -8.62,-12.12 -1.75,-2.58 -4.30,-3.46 -6.86,-3.46 -2.55,0 -5.42,3.26 -4.18,6.04 0.83,1.85 4.60,8.61 10.51,20.27 -7.16,7.97 -11.63,12.92 -13.41,14.85 -2.66,2.89 -2.98,6.19 -1.70,8.69 1.28,2.50 2.07,3.80 3.74,6.39 1.68,2.59 4.36,2.06 6.17,0.54 1.21,-1.74 5.01,-7.40 11.40,-16.98 4.57,8.45 7.66,14.11 9.29,16.98 2.44,4.30 4.65,4.57 6.97,4.04 2.31,0.53 4.99,-1.16 8.48,-2.16 3.49,0.99 3.80,-3.64 2.56,-5.74 0.83,-1.40 -6.83,-10.24 -18.01,-26.53 7.02,-10.22 11.34,-16.52 12.95,-18.88 2.41,-3.54 2.37,-5.93 0.34,-7.12 0.51,0.30 -1.15,0.40 -1.85,0.37 z M 55.50,72.00 c -12.98,0 -23.50,12.54 -23.50,28.00 0,15.46 10.52,28 23.50,28 12.98,0 23.50,-12.54 23.50,-28 C 79,84.54 68.48,72.00 55.50,72.00 Z m 0,9 c 5.80,0 10.50,8.51 10.50,19.00 0,10.49 -4.70,19 -10.50,19 -5.80,0 -10.50,-8.51 -10.50,-19 0,-10.49 4.70,-19.00 10.50,-19.00 z"/>
  <path style="fill:#642286;fill-rule:evenodd" d="M 55.50,70 C 42.52,70 32,82.54 32,98 32,113.46 42.52,126 55.50,126 68.48,126 79,113.46 79,98 79,82.54 68.48,70 55.50,70 Z m 0,9 C 61.30,79 66,87.51 66,98 66,108.49 61.30,117 55.50,117 49.70,117 45,108.49 45,98 45,87.51 49.70,79 55.50,79 Z"/>
  <path style="fill:#96a300;fill-rule:evenodd" d="M 82,103.87 C 82,100.18 82,69.23 82,66.74 82,64.25 84.19,63 85.71,63 h 5.58 C 92.61,63 95,63.46 95,67.58 v 26.48 c 0,1.44 1.58,3.02 4.54,3.02 h 10.64 c 1.45,0 2.83,0.92 2.83,3.42 0,2.50 0.19,5.37 0.58,7.04 0.39,1.67 -1.58,2.46 -4.53,2.46 H 88.59 C 85.71,110 82,107.56 82,103.87 Z"/>
  <path style="fill:#fe7701;fill-rule:evenodd" d="m 112.43,111.22 c 1.78,-1.93 6.25,-6.88 13.41,-14.85 -5.91,-11.66 -9.69,-18.42 -10.51,-20.27 -1.24,-2.78 1.62,-6.04 4.18,-6.04 2.55,0 5.11,0.88 6.86,3.46 1.16,1.72 4.31,5.76 8.62,12.12 7.10,-7.85 11.11,-12.41 12.03,-13.68 1.37,-1.90 5.57,-3.77 7.60,-2.58 2.03,1.19 2.08,3.59 0.34,7.13 -1.61,2.36 -5.92,8.65 -12.94,18.88 11.18,16.28 17.18,25.12 18.01,26.52 1.24,2.10 0.93,4.75 -2.56,5.74 -3.49,0.99 -6.17,1.62 -8.48,2.16 -2.31,0.53 -4.53,0.27 -6.97,-4.04 -1.63,-2.87 -4.72,-8.53 -9.29,-16.98 -6.39,9.58 -10.19,15.24 -11.40,16.98 -1.81,2.60 -4.49,3.13 -6.17,0.54 -1.68,-2.59 -2.46,-3.89 -3.74,-6.39 -1.28,-2.50 0.96,-5.80 1.70,-8.69 z"/>
</svg>
