<?xml version='1.0' encoding='utf-8'?>
<svg xmlns="http://www.w3.org/2000/svg" width="192" height="192" version="1" id="svg12">
  <defs>
    <filter style="color-interpolation-filters:sRGB" id="filter963" x="-0.048000001" y="-0.048000001" width="1.096" height="1.096">
      <feGaussianBlur stdDeviation="3.2"/>
    </filter>
    <filter style="color-interpolation-filters:sRGB" id="filter967" x="-0.05599927" y="-0.042000407" width="1.1119985" height="1.0840008">
      <feGaussianBlur stdDeviation="1.6800249"/>
    </filter>
  </defs>
  <path fill="#4f4f4f" d="M 176,100 A 80,80 0 0 1 96,180 80,80 0 0 1 16,100 80,80 0 0 1 96,20 80,80 0 0 1 176,100 Z" style="filter:url(#filter963);opacity:0.2;fill:#000000"/>
  <path fill="#4f4f4f" d="M 176,96 A 80,80 0 0 1 96,176 80,80 0 0 1 16,96 80,80 0 0 1 96,16 80,80 0 0 1 176,96 Z"/>
  <path style="opacity:0.1;fill:#ffffff" d="M 95.998047 16 A 80 80 0 0 0 16 96 A 80 80 0 0 0 16.023438 96.638672 A 80 80 0 0 1 95.998047 17 L 96 17 A 80 80 0 0 1 175.98242 96.292969 A 80 80 0 0 0 175.99805 96 A 80 80 0 0 0 96 16 L 95.998047 16 z "/>
  <path style="filter:url(#filter967);opacity:0.2" d="m 96.001036,50.999474 c -2.258444,0 -4.52272,0.10344 -5.960936,0.31252 -17.35968,2.5228 -27.617776,11.06554 -29.671876,24.703124 -0.22692,1.506772 -0.29168,4.178848 -0.32812,14.429688 l -0.0392,12.179694 0.5,0.80469 c 1.243328,2.00578 2.967348,3.41883 11.140624,9.14062 13.6644,9.56593 19.275392,13.05405 22.734376,14.11719 0.545888,0.16776 1.296468,0.30764 1.671876,0.31252 2.295644,0.0312 9.00903,-3.76607 19.17188,-10.85157 12.67379,-8.83616 15.0227,-10.66882 16.25781,-12.67187 l 0.52343,-0.85156 V 92.577638 c 0,-13.098256 -0.088,-15.419468 -0.69531,-18.22656 -1.08272,-5.005968 -3.05448,-8.961392 -6.19518,-12.406292 -5.04113,-5.529408 -12.92521,-9.145984 -23.15625,-10.632812 -1.43827,-0.209 -3.694684,-0.31252 -5.953124,-0.31252 z m 0,16 c 9.074534,0 16.961754,6.59992 19.539064,14.6875 0.45374,1.42388 0.46094,1.481708 0.46094,7.273436 0,3.211244 -0.0519,5.896192 -0.1172,5.96094 -0.0653,0.06472 -8.97375,0.09472 -19.882816,0.07032 -10.909068,0.0244 -19.817488,-0.0056 -19.882812,-0.07032 -0.06524,-0.06476 -0.1172,-2.749696 -0.1172,-5.96094 0,-5.791728 0.0072,-5.849556 0.460936,-7.273436 2.577336,-8.08758 10.464556,-14.6875 19.539088,-14.6875 z M 60.008848,110.99948 c 0,0 -0.0304,3.52187 0.0156,16.64843 l 0.06252,16.125 0.539064,1.01563 c 0.415888,0.77337 0.753088,1.12552 1.429688,1.52344 l 0.882812,0.52343 14.343748,0.0859 c 7.888944,0.0474 22.65924,0.083 32.82032,0.0782 l 18.47656,-0.008 0.89063,-0.3828 c 1.14798,-0.49314 1.48346,-0.79092 2.01562,-1.78906 l 0.42969,-0.8125 0.0236,-14.70312 0.0623,-18.30452 h -0.23436 l -0.28908,0.47657 c -1.2351,2.00305 -3.58402,3.83571 -16.25781,12.67187 -10.16284,7.0855 -16.87623,10.88276 -19.171874,10.85156 -0.3754,-0.005 -1.125988,-0.14476 -1.671876,-0.31252 -3.458984,-1.06314 -9.069976,-4.55125 -22.734376,-14.11718 -8.173276,-5.72179 -9.897296,-7.13484 -11.140624,-9.14063 l -0.26564,-0.42967 H 60.0088 Z"/>
  <path style="fill:#ffffff" d="m 96.001036,47.999784 c -2.258444,0 -4.52272,0.10344 -5.960936,0.31252 -17.35968,2.5228 -27.617776,11.06554 -29.671876,24.703124 -0.22692,1.506772 -0.29168,4.178848 -0.32812,14.429688 l -0.0392,12.179688 0.5,0.804686 c 1.243328,2.00579 2.967348,3.41884 11.140624,9.14063 13.6644,9.56593 19.275392,13.05404 22.734376,14.11718 0.545888,0.16776 1.296468,0.30764 1.671876,0.31252 2.295644,0.0312 9.00903,-3.76606 19.17188,-10.85156 12.67379,-8.83616 15.0227,-10.66882 16.25781,-12.67187 l 0.52343,-0.851566 V 89.577948 c 0,-13.098256 -0.088,-15.419468 -0.69531,-18.22656 -1.08272,-5.005968 -3.05448,-8.961392 -6.19518,-12.406292 -5.04113,-5.529408 -12.92521,-9.145984 -23.15625,-10.632812 -1.43827,-0.209 -3.694684,-0.31252 -5.953124,-0.31252 z m 0,16 c 9.074534,0 16.961754,6.59992 19.539064,14.6875 0.45374,1.42388 0.46094,1.481708 0.46094,7.273436 0,3.211244 -0.0519,5.896192 -0.1172,5.96094 -0.0653,0.06472 -8.97375,0.09472 -19.882816,0.07032 -10.909068,0.0244 -19.817488,-0.0056 -19.882812,-0.07032 -0.06524,-0.06476 -0.1172,-2.749696 -0.1172,-5.96094 0,-5.791728 0.0072,-5.849556 0.460936,-7.273436 2.577336,-8.08758 10.464556,-14.6875 19.539088,-14.6875 z M 60.008848,107.99978 c 0,0 -0.0304,3.52187 0.0156,16.64844 l 0.06252,16.125 0.539064,1.01563 c 0.415888,0.77337 0.753088,1.12551 1.429688,1.52343 l 0.882812,0.52344 14.343748,0.0859 c 7.888944,0.0474 22.65924,0.083 32.82032,0.0782 l 18.47656,-0.008 0.89063,-0.3828 c 1.14798,-0.49314 1.48346,-0.79092 2.01562,-1.78906 l 0.42969,-0.8125 0.0236,-14.70313 0.0623,-18.30451 h -0.23436 l -0.28908,0.47656 c -1.2351,2.00305 -3.58402,3.83571 -16.25781,12.67188 -10.16284,7.0855 -16.87623,10.88276 -19.171874,10.85156 -0.3754,-0.005 -1.125988,-0.14476 -1.671876,-0.31252 -3.458984,-1.06314 -9.069976,-4.55126 -22.734376,-14.11719 -8.173276,-5.72179 -9.897296,-7.13484 -11.140624,-9.14062 l -0.26564,-0.42967 H 60.0088 Z"/>
</svg>
