<?xml version='1.0' encoding='utf-8'?>
<svg xmlns="http://www.w3.org/2000/svg" width="192" height="192" version="1" id="svg14">
  <defs>
    <filter style="color-interpolation-filters:sRGB" id="filter850" x="0.05" width="1.10" y="0.05" height="1.10">
      <feGaussianBlur stdDeviation="3.20"/>
    </filter>
    <filter style="color-interpolation-filters:sRGB" id="filter11356" x="0.13" y="0.15" width="1.25" height="1.29">
      <feGaussianBlur stdDeviation="3.05"/>
    </filter>
    <filter style="color-interpolation-filters:sRGB" id="filter11360" x="0.06" y="0.09" width="1.13" height="1.18">
      <feGaussianBlur stdDeviation="1.86"/>
    </filter>
    <filter style="color-interpolation-filters:sRGB" id="filter11364" x="0.10" y="0.12" width="1.20" height="1.23">
      <feGaussianBlur stdDeviation="1.61"/>
    </filter>
  </defs>
  <circle style="filter:url(#filter850);opacity:0.20;fill:#000000" cx="96" cy="100" r="80"/>
  <circle r="80" cy="96" cx="96" style="fill:#3f3f3f"/>
  <path style="filter:url(#filter11364);opacity:0.20;fill:#000000" d="m 122.34,80.39 c 0.01,0.00 0,0 0,0 z m 0.01,0.00 c 0.03,0.63 -8.28,11.12 -8.28,11.75 0.01,11.55 -3.78,11.89 -3.38,21.65 H 138 c 6.08,0 11,-4.90 11,-10.95 0,-6.05 -4.92,-10.95 -11,-10.95 -1.18,0.01 -2.35,0.20 -3.47,0.58 -1.49,-6.05 -6.25,-10.66 -12.18,-12.07 z"/>
  <path style="fill:#38adfa" d="m 688.81,257.00 c 0.33,0.33 -1.19,0.37 -1.92,0.08 0.80,0.32 0.56,0.56 0.60,0.60 1.05,0.04 1.64,0.19 1.31,0.53 z"/>
  <path style="opacity:0.10;fill:#ffffff" d="M 96 16 A 80 80 0 0 0 16 96 A 80 80 0 0 0 16.02 96.47 A 80 80 0 0 1 96 17 A 80 80 0 0 1 175.97 96.51 A 80 80 0 0 0 176 96 A 80 80 0 0 0 96 16 z "/>
  <path style="fill:#c31b1b" d="m 122.34,78.39 c 0.01,0.00 0,0 0,0 z m 0.01,0.00 c 0.03,0.63 -8.28,11.12 -8.28,11.75 0.01,11.55 -3.78,11.89 -3.38,21.65 H 138 c 6.08,0 11,-4.90 11,-10.95 0,-6.05 -4.92,-10.95 -11,-10.95 -1.18,0.01 -2.35,0.20 -3.47,0.58 -1.49,-6.05 -6.25,-10.66 -12.18,-12.07 z"/>
  <path style="filter:url(#filter11360);opacity:0.20;fill:#000000" d="m 100.62,64.28 c -67.08,86.12 -33.54,43.06 0,0 z m 0,0 c 0.01,0.35 -10.83,13.08 -10.83,13.44 -9.85,8.41 -10.43,35.55 -36.95,36.01 0.38,0.04 0.76,0.06 1.15,0.06 h 56.68 c 7.55,-8.77 11.70,-19.94 11.71,-31.50 0.00,0.63 0.02,-1.27 0.05,-1.90 0.88,0.21 -1.78,0.35 -2.71,0.41 -2.97,-8.42 -10.35,-14.38 -19.02,-15.70 z"/>
  <path style="fill:#dc383d" d="m 100.62,62.28 c -67.08,86.12 -33.54,43.06 0,0 z m 0,0 c 0.01,0.35 -10.83,13.08 -10.83,13.44 -9.85,8.41 -10.43,35.55 -36.95,36.01 0.38,0.04 0.76,0.06 1.15,0.06 h 56.68 c 7.55,-8.77 11.70,-19.94 11.71,-31.50 0.00,0.63 0.02,-1.27 0.05,-1.90 0.88,0.21 -1.78,0.35 -2.71,0.41 -2.97,-8.42 -10.35,-14.38 -19.02,-15.70 z"/>
  <path style="filter:url(#filter11356);opacity:0.20;fill:#000000" d="m 97,64.00 c -6.85,0.01 -13.37,2.93 -17.92,8.03 C 77.13,71.33 75.07,70.97 73,70.97 c -9.94,0 -18,8.03 -18,17.93 0.01,1.03 0.11,2.06 0.30,3.07 0.43,0.05 0.86,0.08 -1.30,0.08 -6.08,0 -11,4.90 -11,10.95 0,5.66 4.31,10.32 9.85,10.89 A 48.65,48.45 0 0 0 100.65,65.34 48.65,48.45 0 0 0 100.62,64.28 C 99.44,64.10 98.23,64.00 97,64.00 Z"/>
  <path style="fill:#e55555" d="M 97,62 C 90.15,62.01 83.63,64.93 79.08,70.03 77.13,69.33 75.07,68.97 73,68.97 c -9.94,0 -18,8.03 -18,17.93 0.01,1.03 0.11,2.06 0.30,3.07 0.43,0.05 0.86,0.08 -1.30,0.08 -6.08,0 -11,4.90 -11,10.95 0,5.66 4.31,10.32 9.85,10.89 A 48.65,48.45 0 0 0 100.65,63.34 48.65,48.45 0 0 0 100.62,62.28 C 99.44,62.10 98.23,62.00 97,62 Z"/>
  <path style="opacity:0.10;fill:#ffffff" d="M 97,62 C 90.15,62.01 83.63,64.93 79.08,70.03 77.13,69.33 75.07,68.97 73,68.97 c -9.94,0 -18,8.03 -18,17.93 0.00,0.16 0.02,0.33 0.03,0.49 C 55.30,77.72 63.23,69.97 73,69.97 c 2.07,0.00 4.13,0.36 6.08,1.06 C 83.63,65.92 90.15,63.00 97,63.00 c 10.19,0.00 19.26,6.41 22.64,15.98 7.16,0.49 13.18,5.54 14.89,12.49 1.12,0.38 2.29,0.57 3.47,0.58 5.91,0 10.71,4.64 10.97,10.46 0.01,0.17 0.03,0.33 0.03,0.50 0,-6.05 -4.92,-10.95 -11,-10.95 -1.18,0.01 -2.35,0.20 -3.47,0.58 C 132.82,83.52 126.80,78.47 119.64,77.98 116.26,68.41 107.19,62.00 97,62 Z M 54,89.88 c -6.08,0 -11,4.90 -11,10.95 0,0.17 0.02,0.33 0.03,0.50 0.26,-5.82 5.07,-10.46 10.97,-10.46 0.43,0.00 0.87,0.03 1.30,0.08 0.06,0.33 0.10,0.67 0.14,-1.00 C 54.77,89.91 54.39,89.88 54,89.88 Z"/>
</svg>
