<?xml version='1.0' encoding='utf-8'?>
<svg xmlns="http://www.w3.org/2000/svg" width="192" height="192" version="1" id="svg14">
  <defs>
    <filter style="color-interpolation-filters:sRGB" id="filter844" x="0.05" width="1.10" y="0.05" height="1.10">
      <feGaussianBlur stdDeviation="3.20"/>
    </filter>
    <filter style="color-interpolation-filters:sRGB" id="filter880" x="0.06" width="1.12" y="0.04" height="1.08">
      <feGaussianBlur stdDeviation="2.72"/>
    </filter>
  </defs>
  <rect style="filter:url(#filter844);opacity:0.20;fill:#000000" width="160" height="160" x="-180" y="-176" rx="80" ry="80" transform="matrix(0,-1,-1,0,0,0)"/>
  <rect transform="matrix(0,-1,-1,0,0,0)" ry="80" rx="80" y="-176" x="-176" height="160" width="160" style="fill:#03a9f4"/>
  <path style="opacity:0.20;fill:#ffffff" d="M 96.00,16 C 51.68,16.00 16,51.68 16,96 c 0,0.12 0.01,0.23 0.01,0.34 C 16.36,52.33 51.90,17.00 96.00,17 H 96 c 44.11,0.00 79.65,35.34 79.99,79.36 0.00,0.12 0.01,0.24 0.01,0.36 0,-44.32 -35.68,-80.00 -80.00,-80 z"/>
  <path style="filter:url(#filter880);opacity:0.20;fill:#000000" d="m 98,16 c -3.32,0 -6,2.68 -6,6 V 52 H 75.14 a 3.14,2.39 0 0 0 -2.72,3.59 l 17.93,23.61 17.93,23.61 a 3.14,2.39 0 0 0 2.57,1.20 3.14,2.39 0 0 0 0.32,0.00 3.14,2.39 0 0 0 2.55,-1.19 L 131.65,79.20 149.58,55.59 A 3.14,2.39 0 0 0 146.86,52 H 130 V 22 c 0,-3.32 -2.68,-6 -6,-6 z M 81.15,92.00 a 3.14,2.39 0 0 0 0.32,0.00 3.14,2.39 0 0 0 -2.55,1.19 L 60.35,116.80 42.42,140.41 A 3.14,2.39 0 0 0 45.14,144 H 62 v 30 c 0,3.32 2.68,6 6,6 h 26 c 3.32,0 6,-2.68 6,-6 v -30 h 16.86 a 3.14,2.39 0 0 0 2.72,-3.59 L 101.65,116.80 83.72,93.20 a 3.14,2.39 0 0 0 -2.57,-1.20 z"/>
  <path style="fill:#ffffff" d="m 81.15,90.00 a 3.14,2.39 0 0 0 0.32,0.00 3.14,2.39 0 0 0 -2.55,1.19 L 60.35,114.80 42.42,138.41 A 3.14,2.39 0 0 0 45.14,142 h 16.86 v 30 c 0,3.32 2.68,6 6.00,6 h 26.00 c 3.32,0 6.00,-2.68 6.00,-6 v -30 h 16.86 a 3.14,2.39 0 0 0 2.72,-3.59 L 101.65,114.80 83.72,91.20 a 3.14,2.39 0 0 0 -2.57,-1.20 z"/>
  <path d="m 110.85,102.00 a 3.14,2.39 0 0 0 0.32,0.00 3.14,2.39 0 0 0 2.55,-1.19 l 17.93,-23.61 17.93,-23.61 a 3.14,2.39 0 0 0 -2.72,-3.59 h -16.86 v -30 c 0,-3.32 -2.68,-6 -6.00,-6 H 98.00 c -3.32,0 -6.00,2.68 -6.00,6 v 30 H 75.14 a 3.14,2.39 0 0 0 -2.72,3.59 l 17.93,23.61 17.93,23.61 a 3.14,2.39 0 0 0 2.57,1.20 z" style="fill:#ffffff"/>
</svg>
