<?xml version='1.0' encoding='utf-8'?>
<svg xmlns="http://www.w3.org/2000/svg" width="192" height="192" version="1" id="svg18">
  <defs>
    <filter style="color-interpolation-filters:sRGB" id="filter861" x="-0.048000001" width="1.096" y="-0.048000001" height="1.096">
      <feGaussianBlur stdDeviation="3.2"/>
    </filter>
    <filter style="color-interpolation-filters:sRGB" id="filter882" x="-0.030545455" width="1.0610909" y="-0.112" height="1.224">
      <feGaussianBlur stdDeviation="1.12"/>
    </filter>
  </defs>
  <rect style="filter:url(#filter861);opacity:0.2;fill:#000000" width="160" height="160" x="-180" y="-176" rx="80" ry="80" transform="matrix(0,-1,-1,0,0,0)"/>
  <rect transform="matrix(0,-1,-1,0,0,0)" ry="80" rx="80" y="-176" x="-176" height="160" width="160" style="fill:#36b5e5"/>
  <circle r="64" cy="96" cx="96" style="fill:#3f3f3f"/>
  <rect y="86" x="52" height="24" width="88" style="filter:url(#filter882);opacity:0.2"/>
  <rect y="84" x="52" height="24" width="88" style="fill:#36b5e5"/>
  <rect transform="scale(1,-1)" y="-85" x="52" height="1" width="88" style="opacity:0.2;fill:#ffffff"/>
  <path style="opacity:0.2;fill:#ffffff" d="M 96 16 C 51.68 16 16 51.68 16 96 C 16 96.167244 16.004845 96.333003 16.005859 96.5 C 16.273741 52.412589 51.847244 17 96 17 C 140.15276 17 175.72626 52.412589 175.99414 96.5 C 175.99516 96.333003 176 96.167244 176 96 C 176 51.68 140.32 16 96 16 z "/>
</svg>
