<?xml version='1.0' encoding='utf-8'?>
<svg xmlns="http://www.w3.org/2000/svg" width="192" height="192" version="1" id="svg12">
  <defs>
    <filter style="color-interpolation-filters:sRGB" id="filter858" x="0.05" width="1.10" y="0.05" height="1.10">
      <feGaussianBlur stdDeviation="3.20"/>
    </filter>
    <filter style="color-interpolation-filters:sRGB" id="filter890" x="0.05" width="1.10" y="0.05" height="1.09">
      <feGaussianBlur stdDeviation="2.20"/>
    </filter>
  </defs>
  <path style="filter:url(#filter858);opacity:0.20;fill:#000000" d="M 176,100 A 80,80 0 0 1 96,180 80,80 0 0 1 16,100 80,80 0 0 1 96,20 80,80 0 0 1 176,100 Z"/>
  <path d="M 176,96 A 80,80 0 0 1 96,176 80,80 0 0 1 16,96 80,80 0 0 1 96,16 80,80 0 0 1 176,96 Z" style="fill:#009587"/>
  <path style="filter:url(#filter890);opacity:0.20" d="M 140.64,58.02 C 132.72,57.74 125.27,65.38 120.40,68.80 114.56,67.04 106.11,66.06 99.77,66 93.49,65.94 85.33,66.79 78.40,68.80 71.95,65.77 65.56,57.85 58.32,58.19 54.20,68.92 56.81,76.85 57.59,78.83 52.74,84.28 52,91.24 52,99.76 c 0,29.89 15.47,36.59 32.28,38.55 -2.16,1.95 -3.48,5.40 -4.16,10.44 -4.31,2.00 -14.32,5.43 -21.08,-6.48 0,0 -4.00,-7.50 -11.60,-8.05 0,0 -7.39,0.09 0.52,4.74 0,0 4.96,2.40 8.41,11.41 0,0 3.58,15.17 24.64,10.46 0.01,1.29 0.01,6.65 0.02,11.54 A 80,80 0 0 0 96,174 a 80,80 0 0 0 24.02,-3.78 c 0.01,-7.18 0.02,-14.56 0.02,-17.52 0,-7.27 -2.69,-12.04 -5.41,-14.45 16.86,-1.93 33.37,-8.53 33.37,-38.50 0,-8.51 0.54,-15.48 -5.39,-20.93 0.78,-1.97 3.38,-9.90 0.75,-20.64 0,0 0.40,0.13 -1.22,0.17 z"/>
  <path style="fill:#ffffff" d="M 140.64,56.02 C 132.72,55.74 125.27,63.38 120.40,66.80 114.56,65.04 106.11,64.06 99.77,64 93.49,63.94 85.33,64.79 78.40,66.80 71.95,63.77 65.56,55.85 58.32,56.19 54.20,66.92 56.81,74.85 57.59,76.83 52.74,82.28 52,89.24 52,97.76 52,127.65 67.47,134.34 84.28,136.31 c -2.16,1.95 -3.48,5.40 -4.16,10.44 -4.31,2.00 -14.32,5.43 -21.08,-6.48 0,0 -4.00,-7.50 -11.60,-8.05 0,0 -7.39,0.09 0.52,4.74 0,0 4.96,2.40 8.41,11.41 0,0 3.58,15.17 24.64,10.46 0.01,1.74 0.01,8.46 0.02,15.54 A 80,80 0 0 0 96,176 a 80,80 0 0 0 24.01,-3.78 c 0.01,-9.13 0.03,-17.88 0.03,-21.52 0,-7.27 -2.69,-12.04 -5.41,-14.45 16.86,-1.93 33.37,-8.53 33.37,-38.50 0,-8.51 0.54,-15.48 -5.39,-20.93 0.78,-1.97 3.38,-9.90 0.75,-20.64 0,0 0.40,0.13 -1.22,0.17 z"/>
  <path style="opacity:0.20;fill:#ffffff" d="m 96,16 c -44.32,0 -79.99,35.68 -79.99,80 0,0.34 0.00,0.67 0,1 C 16.01,52.68 51.68,17 96,17 c 44.32,0 79.99,35.68 79.99,80 0.00,0.33 0,0.66 0,-1 C 175.99,51.68 140.32,16 96,16 Z"/>
</svg>
