<?xml version='1.0' encoding='utf-8'?>
<svg xmlns="http://www.w3.org/2000/svg" width="192" height="192" version="1" id="svg30">
  <defs>
    <filter style="color-interpolation-filters:sRGB" id="filter881" x="0.05" y="0.05" width="1.10" height="1.10">
      <feGaussianBlur stdDeviation="3.20"/>
    </filter>
    <filter style="color-interpolation-filters:sRGB" id="filter885" x="0.05" y="0.05" width="1.10" height="1.10">
      <feGaussianBlur stdDeviation="0.80"/>
    </filter>
    <filter style="color-interpolation-filters:sRGB" id="filter889" x="0.05" y="0.05" width="1.10" height="1.10">
      <feGaussianBlur stdDeviation="0.80"/>
    </filter>
    <filter style="color-interpolation-filters:sRGB" id="filter893" x="0.05" y="0.05" width="1.10" height="1.10">
      <feGaussianBlur stdDeviation="0.80"/>
    </filter>
    <filter style="color-interpolation-filters:sRGB" id="filter897" x="0.05" y="0.05" width="1.10" height="1.10">
      <feGaussianBlur stdDeviation="0.80"/>
    </filter>
  </defs>
  <circle style="filter:url(#filter881);opacity:0.20" cx="96" cy="100" r="80"/>
  <circle style="fill:#36445d" cx="96" cy="96" r="80"/>
  <path style="filter:url(#filter893);opacity:0.20" d="m 56,118 h 40 v 40 z"/>
  <path style="fill:#70bbff" d="m 56,116 h 40 v 40 z"/>
  <path style="opacity:0.20;fill:#ffffff" d="M 56 116 L 57 117 L 96 117 L 96 116 L 56 116 z "/>
  <path style="filter:url(#filter897);opacity:0.20" d="m 56,78 h 40 v 40 z"/>
  <path style="fill:#3675fb" d="m 56,76 h 40 v 40 z"/>
  <path style="filter:url(#filter885);opacity:0.20" d="M 56,78 H 96 V 38 Z"/>
  <path style="fill:#70bbff" d="M 56,76 H 96 V 36 Z"/>
  <path style="filter:url(#filter889);opacity:0.20" d="M 136,78 H 96 V 38 Z"/>
  <path style="fill:#3675fb" d="M 136,76 H 96 V 36 Z"/>
  <path style="opacity:0.10;fill:#ffffff" d="M 96 16 A 80 80 0 0 0 16 96 A 80 80 0 0 0 16.02 96.64 A 80 80 0 0 1 96 17 A 80 80 0 0 1 175.98 96.30 A 80 80 0 0 0 176 96 A 80 80 0 0 0 96 16 z "/>
  <path style="opacity:0.20;fill:#ffffff" d="M 96 36 L 56 76 L 57 76 L 96 37 L 96 36 z "/>
  <path style="opacity:0.10;fill:#ffffff" d="M 96 36 L 96 37 L 135 76 L 136 76 L 96 36 z "/>
</svg>
