<?xml version='1.0' encoding='utf-8'?>
<svg xmlns="http://www.w3.org/2000/svg" width="192" height="192" version="1" id="svg12">
  <defs>
    <filter style="color-interpolation-filters:sRGB" id="filter955" x="-0.048000001" width="1.096" y="-0.048000001" height="1.096">
      <feGaussianBlur stdDeviation="3.2"/>
    </filter>
    <filter style="color-interpolation-filters:sRGB" id="filter10495" x="-0.096999995" y="-0.12181395" width="1.194" height="1.2436279">
      <feGaussianBlur stdDeviation="4.365"/>
    </filter>
  </defs>
  <rect style="filter:url(#filter955);opacity:0.2;fill:#000000" width="160" height="160" x="16" y="20" rx="30" ry="30"/>
  <rect style="fill:#784ef1" width="160" height="160" x="16" y="16" rx="30" ry="30"/>
  <rect style="filter:url(#filter10495);opacity:0.2;fill:#000000" width="108" height="86" x="42" y="55" rx="10" ry="10"/>
  <path style="opacity:0.1;fill:#ffffff" d="M 46 16 C 29.38 16 16 29.38 16 46 L 16 47 C 16 30.38 29.38 17 46 17 L 146 17 C 162.62 17 176 30.38 176 47 L 176 46 C 176 29.38 162.62 16 146 16 L 46 16 z "/>
  <rect style="fill:#ffffff" width="108" height="86" x="42" y="53" rx="10" ry="10"/>
  <path style="opacity:0.15;fill:#060606" d="m 96,53 v 86 H 52 c -5.54,0 -10,-4.46 -10,-10 V 63 c 0,-5.54 4.46,-10 10,-10 z"/>
  <path style="fill:#d94846" d="M 126 53 L 126 90 L 133 81.082031 L 140 90 L 140 53 L 126 53 z "/>
</svg>
