<?xml version='1.0' encoding='utf-8'?>
<svg xmlns="http://www.w3.org/2000/svg" width="192" height="192" version="1" id="svg14">
  <defs>
    <filter style="color-interpolation-filters:sRGB" id="filter850" x="0.05" width="1.10" y="0.05" height="1.10">
      <feGaussianBlur stdDeviation="3.20"/>
    </filter>
    <filter style="color-interpolation-filters:sRGB" id="filter10620" x="0.08" y="0.07" width="1.16" height="1.14">
      <feGaussianBlur stdDeviation="4.42"/>
    </filter>
  </defs>
  <circle style="filter:url(#filter850);opacity:0.20;fill:#000000" cx="96" cy="100" r="80"/>
  <circle r="80" cy="96" cx="96" style="fill:#2b7afa"/>
  <path style="opacity:0.20;fill:#ffffff" d="M 96 16 A 80 80 0 0 0 16 96 A 80 80 0 0 0 16.02 96.47 A 80 80 0 0 1 96 17 A 80 80 0 0 1 175.97 96.51 A 80 80 0 0 0 176 96 A 80 80 0 0 0 96 16 z "/>
  <path style="filter:url(#filter10620);opacity:0.20;fill:#000000" d="M 32.31,63.16 C 42.51,39.56 59.89,32.51 78.19,27.56 70.28,33.61 59.44,40.85 58.45,49.88 55.16,80.05 128.48,73.30 151.09,90.96 c 15.78,13.48 17.09,27.50 9.17,44.84 -12.63,26.99 -48.98,42.14 -79.95,37.85 0,0 40.34,1.76 49.87,-26.01 C 147.07,98.43 5.86,133.15 32.31,63.16 Z"/>
  <path style="fill:#33f2ff" d="M 32.31,60.16 C 42.51,36.56 59.89,29.51 78.19,24.56 70.28,30.61 59.44,37.85 58.45,46.88 55.16,77.05 128.48,70.30 151.09,87.96 c 15.78,13.48 17.09,27.50 9.17,44.84 -12.63,26.99 -48.98,42.14 -79.95,37.85 0,0 40.34,1.76 49.87,-26.01 C 147.07,95.43 5.86,130.15 32.31,60.16 Z"/>
  <path style="opacity:0.20;fill:#ffffff" d="M 78.19 24.56 C 59.89 29.51 42.51 36.56 32.31 60.16 C 30.08 66.07 29.07 71.21 29.03 75.74 C 29.20 71.46 30.24 66.63 32.31 61.16 C 42.11 38.49 58.55 31.12 76.06 26.19 C 76.76 25.65 77.52 25.08 78.19 24.56 z M 58.39 49.79 C 58.41 77.74 128.98 71.69 151.09 88.96 C 160.71 97.18 164.93 105.61 164.98 114.87 C 165.24 105.21 161.06 96.48 151.09 87.96 C 129.25 70.89 60.06 76.61 58.39 49.79 z M 131.56 137.22 C 131.54 139.47 131.12 141.92 130.18 144.64 C 120.66 172.41 80.31 170.65 80.31 170.65 C 83.18 171.05 86.11 171.22 89.05 171.29 C 101.46 170.11 123.46 165.23 130.18 145.64 C 131.26 142.51 131.69 139.72 131.56 137.22 z "/>
</svg>
