<?xml version='1.0' encoding='utf-8'?>
<svg xmlns="http://www.w3.org/2000/svg" width="192" height="192" version="1" id="svg28">
  <defs>
    <filter style="color-interpolation-filters:sRGB" id="filter844" x="0.05" width="1.10" y="0.05" height="1.10">
      <feGaussianBlur stdDeviation="3.20"/>
    </filter>
    <filter style="color-interpolation-filters:sRGB" id="filter857" x="0.04" width="1.08" y="0.06" height="1.12">
      <feGaussianBlur stdDeviation="2.02"/>
    </filter>
  </defs>
  <circle style="filter:url(#filter844);opacity:0.20;fill:#000000" cx="96" cy="100" r="80"/>
  <circle style="fill:#bedafe" cx="96" cy="96" r="80"/>
  <path style="filter:url(#filter857);opacity:0.10" d="M 80,60.00 50.80,60.17 48.57,65.19 32,105.03 v 10.98 h 31.98 v 23.88 h 16.00 v -23.88 h 8.00 V 100.01 H 79.99 V 67.88 Z m 46.81,0.02 c -14.11,0 -20.03,4.69 -24.38,11.81 -4.34,7.12 -6.42,16.49 -6.42,28.18 0,10.82 0.43,19.31 2.98,27.25 1.70,3.97 4.87,7.72 9.01,9.87 4.14,2.15 16.78,2.87 22.01,2.87 10.91,0.10 16.68,-3.40 22.00,-12 v -19.99 l 0.00,-8.01 -15.99,0.01 h -8 v 16.00 h 8.00 v 7.26 c -1.18,0.51 -2.56,0.73 -5.99,0.73 -3.67,0 -13.72,0.59 -14.63,-1.06 0.91,0.47 -1.12,0.67 -1.69,-1.99 -1.14,-2.65 -1.68,-10.16 -1.68,-20.94 0,-9.69 1.92,-16.31 4.08,-19.84 2.15,-3.53 8.55,-4.14 10.72,-4.14 8.36,0.19 9.95,2.51 11.37,9.70 l 15.52,-3.88 -1.94,-7.76 c 0,0 -1.19,-4.30 -4.60,-7.72 -3.41,-3.41 -6.25,-6.34 -20.35,-6.34 z m -62.83,16.00 v 23.98 h -12.16 l 9.61,-23.94 z"/>
  <path style="fill:#2880fe" d="M 80 56.00 L 50.80 56.17 L 48.57 61.19 L 32 101.03 L 32 112.01 L 63.98 112.01 L 63.98 135.89 L 79.99 135.89 L 79.99 112.01 L 87.99 112.01 L 87.99 96.01 L 79.99 96.01 L 79.99 63.88 L 80 56.00 z M 126.81 56.02 C 112.71 56.02 106.78 60.71 102.43 67.83 C 98.09 74.95 96.01 84.32 96.01 96.01 C 96.01 106.84 95.58 115.32 98.99 123.26 C 100.69 127.23 103.86 130.99 108.00 133.14 C 112.13 135.29 124.78 136.00 130.01 136.00 C 140.92 135.90 146.69 132.60 152.01 124.00 L 152.01 104.01 L 152.00 96.00 L 136.01 96.01 L 128.01 96.01 L 128.01 112.01 L 136.00 112.01 L 136.00 119.27 C 134.83 119.79 133.45 120 130.01 120 C 126.34 120 116.29 119.41 115.38 118.94 C 114.48 118.47 114.26 118.28 113.69 116.95 C 112.55 114.29 112.02 106.79 112.02 96.01 C 112.02 86.32 113.94 79.70 116.09 76.17 C 118.25 72.64 124.64 72.02 126.81 72.02 C 135.17 71.83 136.76 74.53 138.18 81.72 L 153.71 77.84 L 151.77 70.08 C 151.77 70.08 150.58 65.78 147.16 62.36 C 143.75 58.95 140.92 56.02 126.81 56.02 z M 63.98 72.02 L 63.98 96.01 L 51.83 96.01 L 61.44 72.07 L 63.98 72.02 z "/>
  <path style="opacity:0.20;fill:#ffffff" d="M 80 56.00 L 50.80 56.17 L 48.57 61.19 L 32 101.03 L 32 102.03 L 48.57 62.19 L 50.80 57.17 L 80.00 57.00 L 80 56.00 z M 126.81 56.02 C 112.71 56.02 106.78 60.71 102.43 67.83 C 98.09 74.95 96.01 84.32 96.01 96.01 C 96.01 98.76 95.99 101.35 96.00 103.82 C 96.00 101.64 96.01 99.40 96.01 97.01 C 96.01 85.32 98.09 75.95 102.43 68.83 C 106.78 61.71 112.71 57.02 126.81 57.02 C 140.92 57.02 143.75 59.95 147.16 63.36 C 150.58 66.78 151.77 71.08 151.77 71.08 L 153.47 77.90 L 153.71 77.84 L 151.77 70.08 C 151.77 70.08 150.58 65.78 147.16 62.36 C 143.75 58.95 140.92 56.02 126.81 56.02 z M 152.00 96.00 L 136.01 96.01 L 128.01 96.01 L 128.01 97.01 L 136.01 97.01 L 152.00 97.00 L 152.00 96.00 z M 52.23 96.01 L 51.83 97.01 L 63.98 97.01 L 63.98 96.01 L 52.23 96.01 z M 79.99 96.01 L 79.99 97.01 L 87.99 97.01 L 87.99 96.01 L 79.99 96.01 z M 112.02 96.80 C 112.02 96.87 112.02 96.94 112.02 97.01 C 112.02 107.79 112.55 115.29 113.69 117.95 C 114.26 119.28 114.48 119.47 115.38 119.94 C 116.29 120.41 126.34 121 130.01 121 C 133.45 121 134.83 120.79 136.00 120.27 L 136.00 119.27 C 134.83 119.79 133.45 120 130.01 120 C 126.34 120 116.29 119.41 115.38 118.94 C 114.48 118.47 114.26 118.28 113.69 116.95 C 112.58 114.36 112.05 107.14 112.02 96.80 z "/>
  <path style="opacity:0.20;fill:#ffffff" d="M 95.94 16 A 80 80 0 0 0 16 96 A 80 80 0 0 0 16.00 96.53 A 80 80 0 0 1 96 17 A 80 80 0 0 1 176.00 96.47 A 80 80 0 0 0 176 96 A 80 80 0 0 0 96 16 A 80 80 0 0 0 95.94 16 z "/>
</svg>
