<?xml version='1.0' encoding='utf-8'?>
<svg xmlns="http://www.w3.org/2000/svg" width="192" height="192" version="1" id="svg12">
  <defs>
    <filter style="color-interpolation-filters:sRGB" id="filter860" x="-0.048000001" width="1.096" y="-0.048000001" height="1.096">
      <feGaussianBlur stdDeviation="3.2"/>
    </filter>
    <filter style="color-interpolation-filters:sRGB" id="filter869" x="-0.048" width="1.096" y="-0.048" height="1.096">
      <feGaussianBlur stdDeviation="2.24"/>
    </filter>
  </defs>
  <rect style="filter:url(#filter860);opacity:0.2" width="160" height="160" x="16" y="20" rx="48" ry="48"/>
  <rect style="fill:#5972fe" width="160" height="160" x="16" y="16" rx="48" ry="48"/>
  <path style="opacity:0.2;fill:#ffffff" d="M 64,16 C 37.408,16 16,37.408 16,64 v 1 C 16,38.408 37.408,17 64,17 h 64 c 26.592,0 48,21.408 48,48 V 64 C 176,37.408 154.592,16 128,16 Z"/>
  <path d="m 96,42 a 56,56 0 0 0 -56,56 56,56 0 0 0 56,56 56,56 0 0 0 25.49219,-6.20117 L 106.19336,132.5 A 36,36 0 0 1 96,134 36,36 0 0 1 60,98 36,36 0 0 1 96,62 a 36,36 0 0 1 36,36 36,36 0 0 1 -1.60352,10.62109 l 15.2461,15.2461 A 56,56 0 0 0 152,98 56,56 0 0 0 96,42 Z m 21.92578,62.26562 c -1.52832,-0.007 -3.05327,0.57281 -4.21875,1.73829 l -9.9707,9.96875 c -2.33091,2.33095 -2.31236,6.10171 0.041,8.45507 L 129.22265,149.87305 149.73437,152 147.60741,131.48828 122.1621,106.04297 c -1.17668,-1.17665 -2.70801,-1.77004 -4.23633,-1.77735 z" style="filter:url(#filter869);opacity:0.2;fill:#000000"/>
  <path style="fill:#ffffff" d="m 96,40 a 56,56 0 0 0 -56,56 56,56 0 0 0 56,56 56,56 0 0 0 25.49219,-6.20117 L 106.19336,130.5 A 36,36 0 0 1 96,132 36,36 0 0 1 60,96 36,36 0 0 1 96,60 a 36,36 0 0 1 36,36 36,36 0 0 1 -1.60352,10.62109 l 15.2461,15.2461 A 56,56 0 0 0 152,96 56,56 0 0 0 96,40 Z m 21.92578,62.26562 c -1.52832,-0.007 -3.05327,0.57281 -4.21875,1.73829 l -9.9707,9.96875 c -2.33091,2.33095 -2.31236,6.10171 0.041,8.45507 L 129.22265,147.87305 149.73437,150 147.60741,129.48828 122.1621,104.04297 c -1.17668,-1.17665 -2.70801,-1.77004 -4.23633,-1.77735 z"/>
</svg>
