<svg xmlns="http://www.w3.org/2000/svg" id="svg16" width="192" height="192" version="1"><defs><filter style="color-interpolation-filters:sRGB" id="filter879" width="1.08" height="1.12" x=".04" y=".06"><feGaussianBlur stdDeviation="2.64"/></filter><filter style="color-interpolation-filters:sRGB" id="filter887" width="1.04" height="1.06" x=".02" y=".03"><feGaussianBlur stdDeviation="1.32"/></filter><filter style="color-interpolation-filters:sRGB" id="filter1265" width="1.1" height="1.1" x=".05" y=".05"><feGaussianBlur stdDeviation="1.12"/></filter></defs><rect style="filter:url(#filter879);opacity:.2" width="160" height="104" x="16" y="68" rx="8" ry="8"/><path style="fill:#a9a9a9" d="m 16,136 c 0,4.43 3.57,8 8,8 h 144 c 4.43,0 8,-3.57 8,-8 V 48 c 0,-4.43 -3.57,-8 -8,-8 H 96 C 84,40 80,24 68,24 H 24 c -4.43,0 -8,3.57 -8,8"/><rect style="filter:url(#filter887);opacity:.2" width="160" height="104" x="16" y="62" rx="8" ry="8"/><rect style="fill:#fff" width="144" height="64" x="24" y="52" rx="8" ry="8"/><rect style="fill:#e4e4e4" width="160" height="104" x="16" y="64" rx="8" ry="8"/><path style="opacity:.1;fill:#fff" d="m 24,24 c -4.43,0 -8,3.57 -8,8 v 1 c 0,-4.43 3.57,-8 8,-8 h 44 c 12,0 16,16 28,16 h 72 c 4.43,0 8,3.57 8,8 v -1 c 0,-4.43 -3.57,-8 -8,-8 H 96 C 84,40 80,24 68,24 Z"/><path d="m 89.38,90.00 c -2.96,0 -5.38,2.42 -5.38,5.38 V 122.75 C 82.73,122.30 81.42,122 80,122 c -6.63,0 -12,5.37 -12,12 0,6.63 5.37,12 12,12 6.63,0 12,-5.37 12,-12 v -28 h 24 v 16.75 c -1.27,0.45 -2.58,0.75 -4,0.75 -6.63,0 -12,5.37 -12,12 0,6.63 5.37,12 12,12 6.63,0 12,-5.37 12,-12 V 94 h 0.25 c 0.60,-2.30 -2.64,-4 -5.12,-4 h -29.25 z" style="filter:url(#filter1265);opacity:.1;fill:#000"/><path d="m 89.38,88.00 c -2.96,0 -5.38,2.42 -5.38,5.38 V 120.75 C 82.73,120.30 81.42,120 80,120 c -6.63,0 -12,5.37 -12,12 0,6.63 5.37,12 12,12 6.63,0 12,-5.37 12,-12 v -28 h 24 v 16.75 c -1.27,0.45 -2.58,0.75 -4,0.75 -6.63,0 -12,5.37 -12,12 0,6.63 5.37,12 12,12 6.63,0 12,-5.37 12,-12 V 92 h 0.25 c 0.60,-2.30 -2.64,-4 -5.12,-4 h -29.25 z" style="fill:#0098da"/></svg>