<?xml version='1.0' encoding='utf-8'?>
<svg xmlns="http://www.w3.org/2000/svg" width="192" height="192" version="1" id="svg14">
  <defs>
    <filter style="color-interpolation-filters:sRGB" id="filter850" x="-0.048000001" width="1.096" y="-0.048000001" height="1.096">
      <feGaussianBlur stdDeviation="3.2"/>
    </filter>
    <filter style="color-interpolation-filters:sRGB" id="filter1918" x="-0.059709105" y="-0.1008191" width="1.1194182" height="1.2016382">
      <feGaussianBlur stdDeviation="2.5625123"/>
    </filter>
  </defs>
  <circle style="filter:url(#filter850);opacity:0.2;fill:#000000" cx="96" cy="100" r="80"/>
  <circle r="80" cy="96" cx="96" style="fill:#e4e4e4"/>
  <path style="filter:url(#filter1918);opacity:0.2;fill:#000000;color:#000000" d="m 79.244141,67.001953 a 12.5,12.5 0 0 0 -2.433594,0.291016 12.5,12.5 0 0 0 -7.84375,5.476562 l -23,35.999999 a 12.5,12.5 0 0 0 3.802734,17.26367 12.5,12.5 0 0 0 17.263672,-3.80273 l 23,-36.000001 A 12.5,12.5 0 0 0 86.230469,68.966797 12.5,12.5 0 0 0 79.244141,67.001953 Z m 38.999999,0 a 12.5,12.5 0 0 0 -2.43359,0.291016 12.5,12.5 0 0 0 -7.84375,5.476562 L 84.966797,108.76953 a 12.5,12.5 0 0 0 3.802734,17.26367 12.5,12.5 0 0 0 17.263669,-3.80273 l 23,-36.000001 a 12.5,12.5 0 0 0 -3.80273,-17.263672 12.5,12.5 0 0 0 -6.98633,-1.964844 z M 134.5,103 A 12.5,12.5 0 0 0 122,115.5 12.5,12.5 0 0 0 134.5,128 12.5,12.5 0 0 0 147,115.5 12.5,12.5 0 0 0 134.5,103 Z"/>
  <path style="opacity:0.2;fill:#ffffff" d="M 96 16 A 80 80 0 0 0 16 96 A 80 80 0 0 0 16.019531 96.472656 A 80 80 0 0 1 96 17 A 80 80 0 0 1 175.97461 96.513672 A 80 80 0 0 0 176 96 A 80 80 0 0 0 96 16 z "/>
  <path style="fill:#f13163;color:#000000" d="m 76.810547,65.292969 a 12.5,12.5 0 0 0 -7.84375,5.476562 l -23,35.999999 a 12.5,12.5 0 0 0 3.802734,17.26367 12.5,12.5 0 0 0 17.263672,-3.80273 l 23,-36.000001 A 12.5,12.5 0 0 0 86.230469,66.966797 12.5,12.5 0 0 0 76.810547,65.292969 Z"/>
  <path style="fill:#ffaa00;color:#000000" d="m 115.81041,65.292969 a 12.5,12.5 0 0 0 -7.84375,5.476562 L 84.966662,106.76953 a 12.5,12.5 0 0 0 3.802734,17.26367 12.5,12.5 0 0 0 17.263664,-3.80273 l 23,-36.000001 a 12.5,12.5 0 0 0 -3.80273,-17.263672 12.5,12.5 0 0 0 -9.41992,-1.673828 z"/>
  <circle style="fill:#00ca72" cx="134.5" cy="113.5" r="12.5"/>
</svg>
