<?xml version='1.0' encoding='utf-8'?>
<svg xmlns="http://www.w3.org/2000/svg" width="192" height="192" version="1.1" id="svg20">
  <defs>
    <filter style="color-interpolation-filters:sRGB" id="filter861" x="-0.048" y="-0.048" width="1.096" height="1.096">
      <feGaussianBlur stdDeviation="1.76"/>
    </filter>
    <filter style="color-interpolation-filters:sRGB" id="filter865" x="-0.048000002" y="-0.048000002" width="1.096" height="1.096">
      <feGaussianBlur stdDeviation="2.4"/>
    </filter>
    <filter style="color-interpolation-filters:sRGB" id="filter869" x="-0.048000002" y="-0.048000002" width="1.096" height="1.096">
      <feGaussianBlur stdDeviation="2.88"/>
    </filter>
    <filter style="color-interpolation-filters:sRGB" id="filter873" x="-0.055200001" y="-0.042461539" width="1.1104" height="1.0849231">
      <feGaussianBlur stdDeviation="0.92"/>
    </filter>
  </defs>
  <rect style="filter:url(#filter869);opacity:0.2" width="144" height="144" x="32" y="20" rx="8" ry="8"/>
  <rect style="fill:#7ab8e8" width="144" height="144" x="32" y="16" rx="8" ry="8"/>
  <rect style="filter:url(#filter865);opacity:0.2" width="120" height="120" x="24" y="52" rx="8" ry="8"/>
  <rect style="fill:#5093c8" width="120" height="120" x="24" y="48" rx="8" ry="8"/>
  <rect style="filter:url(#filter861);opacity:0.2" width="88" height="88" x="16" y="92" rx="8" ry="8"/>
  <rect style="fill:#0077d3" width="88" height="88" x="16" y="88" rx="8" ry="8"/>
  <path style="filter:url(#filter873);opacity:0.2" d="m 40,110 v 52 h 12 v -20 h 28 v -8 H 52 v -16 h 28 v -8 H 52 Z"/>
  <path style="fill:#ffffff" d="m 40,108 v 52 h 12 v -20 h 28 v -8 H 52 v -16 h 28 v -8 H 52 Z"/>
  <path style="opacity:0.2;fill:#ffffff" d="M 40 16 C 35.568 16 32 19.568 32 24 L 32 25 C 32 20.568 35.568 17 40 17 L 168 17 C 172.432 17 176 20.568 176 25 L 176 24 C 176 19.568 172.432 16 168 16 L 40 16 z "/>
</svg>
