<?xml version='1.0' encoding='utf-8'?>
<svg xmlns="http://www.w3.org/2000/svg" width="192" height="192" version="1" id="svg28">
  <defs>
    <filter style="color-interpolation-filters:sRGB" id="filter29667" x="0.04" y="0.05" width="1.09" height="1.10">
      <feGaussianBlur stdDeviation="3"/>
    </filter>
    <filter style="color-interpolation-filters:sRGB" id="filter29709" x="0.06" y="0.12" width="1.11" height="1.23">
      <feGaussianBlur stdDeviation="2.12"/>
    </filter>
    <filter style="color-interpolation-filters:sRGB" id="filter29751" x="0.06" y="0.12" width="1.11" height="1.23">
      <feGaussianBlur stdDeviation="2.12"/>
    </filter>
    <filter style="color-interpolation-filters:sRGB" id="filter30253" x="0.06" y="0.10" width="1.12" height="1.20">
      <feGaussianBlur stdDeviation="3.72"/>
    </filter>
    <filter style="color-interpolation-filters:sRGB" id="filter30526" x="0.11" y="0.11" width="1.22" height="1.22">
      <feGaussianBlur stdDeviation="3.24"/>
    </filter>
    <filter style="color-interpolation-filters:sRGB" id="filter30530" x="0.12" y="0.11" width="1.24" height="1.22">
      <feGaussianBlur stdDeviation="3.24"/>
    </filter>
  </defs>
  <path style="filter:url(#filter30253);opacity:0.20;fill:#000000" d="m 31,23.00 h 130 c 5.54,0 10,4.46 10,10 V 71.00 l -31.75,25.81 c -4.30,3.49 4.55,10.86 0.99,11.13 l -69.61,3.41 c -5.53,0.27 -20.56,-3.74 -22.67,-8.86 L 21,41.68 v -8.68 c 0,-5.54 4.46,-10 10,-10 z"/>
  <path style="fill:#01579b" d="m 31,20 h 130 c 5.54,0 10,4.46 10,10 v 38.00 l -31.75,25.81 c -4.30,3.49 4.55,10.86 0.99,11.13 l -69.61,3.41 c -5.53,0.27 -20.56,-3.74 -22.67,-8.86 L 21,38.68 V 30 c 0,-5.54 4.46,-10 10,-10 z"/>
  <rect style="filter:url(#filter29751);opacity:0.20;fill:#000000" width="92" height="44" x="52" y="42" ry="6"/>
  <rect style="fill:#f68f00" width="92" height="44" x="52" y="40" ry="6"/>
  <rect style="filter:url(#filter29709);opacity:0.20;fill:#000000" width="92" height="44" x="65" y="53" ry="6"/>
  <rect style="fill:#ffce2a" width="92" height="44" x="65" y="51" ry="6"/>
  <path style="filter:url(#filter29667);opacity:0.20;fill:#000000" d="M 176,164 V 77.95 C 176,71.31 170.65,66.00 164,66 h -57.56 c 0,0 -4.25,0.14 -6.36,-2.74 L 79.82,38.26 C 78.46,36.03 74.49,36 74.49,36 H 28 c -6.65,0 -12,5.35 -12,12 v 116 c 0,6.65 5.35,12 12,12 h 136 c 6.65,0 12,-5.35 12,-12 z"/>
  <path style="opacity:0.20;fill:#ffffff" d="M 58 40 C 54.68 40 52 42.68 52 46 L 52 47 C 52 43.68 54.68 41 58 41 L 138 41 C 141.32 41 144 43.68 144 47 L 144 46 C 144 42.68 141.32 40 138 40 L 58 40 z "/>
  <path style="opacity:0.20;fill:#ffffff" d="M 71 51 C 67.68 51 65 53.68 65 57 L 65 58 C 65 54.68 67.68 52 71 52 L 151 52 C 154.32 52 157 54.68 157 58 L 157 57 C 157 53.68 154.32 51 151 51 L 71 51 z "/>
  <path style="fill:#03a1ee" d="M 176,160 V 73.95 C 176,67.31 170.65,62.00 164,62 h -57.56 c 0,0 -4.25,0.14 -6.36,-2.74 L 79.82,34.26 C 78.46,32.03 74.49,32 74.49,32 H 28 c -6.65,0 -12,5.35 -12,12 v 116 c 0,6.65 5.35,12 12,12 h 136 c 6.65,0 12,-5.35 12,-12 z"/>
  <path style="filter:url(#filter30526);opacity:0.20;fill:#000000" d="M 69.55,88.18 31.45,134.11 A 36,36 0 0 0 66,160 36,36 0 0 0 102,124 36,36 0 0 0 69.55,88.18 Z"/>
  <path style="fill:#ffffff" d="M 69.55,86.18 31.45,132.11 A 36,36 0 0 0 66,158 36,36 0 0 0 102,122 36,36 0 0 0 69.55,86.18 Z"/>
  <path style="filter:url(#filter30530);opacity:0.20;fill:#000000" d="m 66,65 a 36,36 0 0 0 -36,36 36,36 0 0 0 22.55,33.31 L 96.03,81.15 A 36,36 0 0 0 66,65 Z M 66.00,81 H 66 c 2.82,0.00 5.50,0.71 8.00,1.81 L 49.74,112.48 C 47.39,109.19 46.02,105.23 46.00,100.98 46.01,89.75 54.77,81.00 66.00,81 Z"/>
  <path style="fill:#e9e9e9" d="M 66,63 A 36,36 0 0 0 30,99 36,36 0 0 0 52.55,132.31 L 96.03,79.15 A 36,36 0 0 0 66,63 Z M 66.00,79 H 66 c 2.82,0.00 5.50,0.71 8.00,1.81 L 49.74,110.48 C 47.39,107.19 46.02,103.23 46.00,98.98 46.01,87.75 54.77,79.00 66.00,79 Z"/>
  <path style="opacity:0.10;fill:#ffffff" d="m 31,20 c -5.54,0 -10,4.46 -10,10 v 1 c 0,-5.54 4.46,-10 10,-10 h 130 c 5.54,0 10,4.46 10,10 v -1 c 0,-5.54 -4.46,-10 -10,-10 z"/>
  <path style="opacity:0.20;fill:#ffffff" d="M 28 32 C 21.35 32 16 37.35 16 44 L 16 45 C 16 38.35 21.35 33 28 33 L 74.49 33 C 74.49 33 78.46 33.03 79.82 35.26 L 100.07 60.26 C 102.18 62.86 106.44 63 106.44 63 L 164 63 C 170.65 63.00 176 68.31 176 74.95 L 176 73.95 C 176 67.31 170.65 62.00 164 62 L 106.44 62 C 106.44 62 102.18 61.86 100.07 59.26 L 79.82 34.26 C 78.46 32.03 74.49 32 74.49 32 L 28 32 z "/>
</svg>
