<?xml version='1.0' encoding='utf-8'?>
<svg xmlns="http://www.w3.org/2000/svg" width="192" height="192" version="1" id="svg28">
  <defs>
    <filter style="color-interpolation-filters:sRGB" id="filter6495" x="-0.048000001" y="-0.048000001" width="1.096" height="1.096">
      <feGaussianBlur stdDeviation="3.2"/>
    </filter>
    <filter style="color-interpolation-filters:sRGB" id="filter57253" x="-0.05646304" y="-0.042103675" width="1.1129261" height="1.0842074">
      <feGaussianBlur stdDeviation="1.1214494"/>
    </filter>
    <filter style="color-interpolation-filters:sRGB" id="filter57257" x="-0.034024831" y="-0.088530117" width="1.0680497" height="1.1770602">
      <feGaussianBlur stdDeviation="1.1804016"/>
    </filter>
    <filter style="color-interpolation-filters:sRGB" id="filter57305" x="-0.038117964" y="-0.064800539" width="1.0762359" height="1.1296011">
      <feGaussianBlur stdDeviation="1.8900157"/>
    </filter>
  </defs>
  <rect transform="matrix(0,-1,-1,0,0,0)" ry="12" rx="12" y="-176" x="-180" height="160" width="160" style="filter:url(#filter6495);opacity:0.2;fill:#000000"/>
  <rect transform="matrix(0,-1,-1,0,0,0)" ry="12" rx="12" y="-176" x="-176" height="160" width="160" style="fill:#2d377f"/>
  <path style="filter:url(#filter57305);opacity:0.2;fill:#000000;color:#000000" d="m 151,63 a 4,4 0 0 0 -4,4 v 62 a 4,4 0 0 0 4,4 4,4 0 0 0 4,-4 V 67 a 4,4 0 0 0 -4,-4 z M 38.960938,66.007812 A 2.7450272,2.7431758 0 0 0 36,68.742188 V 127.25781 A 2.7450272,2.7431758 0 0 0 38.744141,130 h 80.513669 a 2.7450272,2.7431758 0 0 0 1.61328,-4.96094 L 40.357422,66.523438 A 2.7450272,2.7431758 0 0 0 38.960938,66.007812 Z M 136,74 a 4,4 0 0 0 -4,4 v 40 a 4,4 0 0 0 4,4 4,4 0 0 0 4,-4 V 78 a 4,4 0 0 0 -4,-4 z m -13.53906,10 a 2.5410252,3.1891679 0 0 0 -1.27149,0.427734 l -7.45898,5.404297 -7.46094,5.40625 a 2.5410252,3.1891679 0 0 0 0,5.523439 l 7.46094,5.40625 7.45898,5.40625 A 2.5410252,3.1891679 0 0 0 125,108.81055 V 98 87.1875 A 2.5410252,3.1891679 0 0 0 122.46094,84 Z"/>
  <path style="fill:#0364f5;color:#000000" d="M 38.744753,128 A 2.7450272,2.7431758 0 0 1 36,125.2571 V 66.741863 a 2.7450272,2.7431758 0 0 1 4.358366,-2.21789 L 120.87112,123.03921 A 2.7450272,2.7431758 0 0 1 119.2575,128 Z"/>
  <path style="opacity:0.1;fill:#ffffff" d="m 28,16 c -6.648,0 -12,5.352 -12,12 v 1 c 0,-6.648 5.352,-12 12,-12 h 136 c 6.648,0 12,5.352 12,12 v -1 c 0,-6.648 -5.352,-12 -12,-12 z"/>
  <path style="fill:#f66295;color:#000000" d="m 122.45997,81.999995 a 2.5410252,3.1891679 0 0 0 -1.27005,0.426898 l -7.46015,5.406081 -7.46015,5.40608 a 2.5410252,3.1891679 0 0 0 0,5.522507 l 7.46015,5.406089 7.46015,5.40607 a 2.5410252,3.1891679 0 0 0 3.81018,-2.7632 V 96.000307 85.188147 a 2.5410252,3.1891679 0 0 0 -2.54013,-3.188152 z"/>
  <path style="fill:#edfd78;color:#000000" d="m 136,72 a 4,4 0 0 0 -4,4 v 40 a 4,4 0 0 0 4,4 4,4 0 0 0 4,-4 V 76 a 4,4 0 0 0 -4,-4 z"/>
  <path style="fill:#2ffcab;color:#000000" d="m 151,61 a 4,4 0 0 0 -4,4 v 62 a 4,4 0 0 0 4,4 4,4 0 0 0 4,-4 V 65 a 4,4 0 0 0 -4,-4 z"/>
  <path style="filter:url(#filter57253);opacity:0.2;fill:#000000;color:#000000" d="M 38.960938,66.007812 A 2.7450272,2.7431758 0 0 0 38,66.199219 2.7450272,2.7431758 0 0 0 37.447266,66.347656 2.7450272,2.7431758 0 0 0 36.736328,67.001953 2.7450272,2.7431758 0 0 0 36.394531,67.34375 2.7450272,2.7431758 0 0 0 36,68.742188 v 58.515622 a 2.7450272,2.7431758 0 0 0 0.394531,1.39844 2.7450272,2.7431758 0 0 0 0.341797,0.3418 2.7450272,2.7431758 0 0 0 0.710938,0.65429 A 2.7450272,2.7431758 0 0 0 38,129.80078 2.7450272,2.7431758 0 0 0 40.357422,129.47656 L 83.667969,98 40.357422,66.523438 a 2.7450272,2.7431758 0 0 0 -1.396484,-0.515626 z"/>
  <path style="fill:#0da9fa;color:#000000" d="M 38.960938,64.007812 A 2.7450272,2.7431758 0 0 0 38,64.199219 2.7450272,2.7431758 0 0 0 37.447266,64.347656 2.7450272,2.7431758 0 0 0 36.736328,65.001953 2.7450272,2.7431758 0 0 0 36.394531,65.34375 2.7450272,2.7431758 0 0 0 36,66.742188 v 58.515622 a 2.7450272,2.7431758 0 0 0 0.394531,1.39844 2.7450272,2.7431758 0 0 0 0.341797,0.3418 2.7450272,2.7431758 0 0 0 0.710938,0.65429 A 2.7450272,2.7431758 0 0 0 38,127.80078 2.7450272,2.7431758 0 0 0 40.357422,127.47656 L 83.667969,96 40.357422,64.523438 a 2.7450272,2.7431758 0 0 0 -1.396484,-0.515626 z"/>
  <path style="filter:url(#filter57257);opacity:0.2;fill:#000000;color:#000000" d="m 38.744141,66 c 0,0 0.08994,0.02894 0.09766,0.03125 a 2.7450272,2.7431758 0 0 1 0.119141,-0.02344 2.7450272,2.7431758 0 0 1 1.396484,0.515626 L 83.667969,98 120.87109,70.960938 C 123.01894,69.39841 121.91451,66.002213 119.25781,66 Z"/>
  <path style="fill:#22fafd;color:#000000" d="m 38.744141,64 c 0,0 0.08994,0.02894 0.09766,0.03125 a 2.7450272,2.7431758 0 0 1 0.119141,-0.02344 2.7450272,2.7431758 0 0 1 1.396484,0.515626 L 83.667969,96 120.87109,68.960938 C 123.01894,67.39841 121.91451,64.002213 119.25781,64 Z"/>
  <path style="opacity:0.2;fill:#ffffff;color:#000000" d="m 151,61 a 4,4 0 0 0 -4,4 v 1 a 4,4 0 0 1 4,-4 4,4 0 0 1 4,4 v -1 a 4,4 0 0 0 -4,-4 z M 38.744141,64 c 0,0 0.08994,0.02894 0.09766,0.03125 a 2.7450272,2.7431758 0 0 1 0.119141,-0.02344 2.7450272,2.7431758 0 0 1 1.396484,0.515626 L 41.013672,65 h 78.244138 c 1.48442,0.0012 2.45518,1.066883 2.67383,2.275391 C 122.22617,65.720114 121.14857,64.001575 119.25781,64 Z M 136,72 a 4,4 0 0 0 -4,4 v 1 a 4,4 0 0 1 4,-4 4,4 0 0 1 4,4 v -1 a 4,4 0 0 0 -4,-4 z m -13.53906,10 a 2.5410252,3.1891679 0 0 0 -1.27149,0.427734 l -7.45898,5.404297 -7.46094,5.40625 A 2.5410252,3.1891679 0 0 0 105.10742,96.5 a 2.5410252,3.1891679 0 0 1 1.16211,-2.261719 l 7.46094,-5.40625 7.45898,-5.404297 A 2.5410252,3.1891679 0 0 1 122.46094,83 2.5410252,3.1891679 0 0 1 125,86.1875 v -1 A 2.5410252,3.1891679 0 0 0 122.46094,82 Z"/>
</svg>
