<?xml version='1.0' encoding='utf-8'?>
<svg xmlns="http://www.w3.org/2000/svg" width="192" height="192" version="1" id="svg12">
  <defs>
    <filter style="color-interpolation-filters:sRGB" id="filter852" x="0.05" width="1.10" y="0.05" height="1.10">
      <feGaussianBlur stdDeviation="3.36"/>
    </filter>
    <filter style="color-interpolation-filters:sRGB" id="filter868" x="0.05" width="1.09" y="0.05" height="1.10">
      <feGaussianBlur stdDeviation="2.10"/>
    </filter>
  </defs>
  <path style="filter:url(#filter852);opacity:0.20" d="m 96.00,16.00 c -4.40,0 -8.80,1.64 -12.09,4.93 L 16.93,87.91 c -6.58,6.58 -6.57,17.59 0.01,24.17 l 66.98,66.98 c 6.58,6.58 17.60,6.59 24.18,0.01 l 66.98,-66.98 c 6.58,-6.58 6.58,-17.60 0,-24.18 L 108.09,20.93 c -3.29,-3.29 -7.69,-4.93 -12.09,-4.93 z"/>
  <path style="fill:#31afe1" d="m 96.00,12.00 c -4.40,0 -8.80,1.64 -12.09,4.93 L 16.93,83.91 c -6.58,6.58 -6.57,17.59 0.01,24.17 l 66.98,66.98 c 6.58,6.58 17.60,6.59 24.18,0.01 l 66.98,-66.98 c 6.58,-6.58 6.58,-17.60 0,-24.18 L 108.09,16.93 c -3.29,-3.29 -7.69,-4.93 -12.09,-4.93 z"/>
  <path style="opacity:0.20;fill:#ffffff" d="M 96 12 C 91.60 12 87.20 13.64 83.91 16.93 L 16.93 83.91 C 13.56 87.28 11.99 91.79 12.09 96.29 C 12.23 92.13 13.81 88.03 16.93 84.91 L 83.91 17.93 C 87.20 14.64 91.60 13 96 13 C 100.40 13 104.80 14.64 108.09 17.93 L 175.06 84.91 C 178.18 88.03 179.77 92.15 179.92 96.31 C 180.01 91.81 178.43 87.28 175.06 83.91 L 108.09 16.93 C 104.80 13.64 100.40 12 96 12 z "/>
  <path style="filter:url(#filter868);opacity:0.20" d="M 135.83,46.67 56.00,126.50 V 46.84 L 40.00,62.84 V 133.14 l 16.00,16.01 v 0.02 l 40.20,-40.20 40.02,40.02 11.32,-11.32 -40.02,-40.02 39.62,-39.62 z"/>
  <path style="fill:#ffffff" d="M 135.83,44.67 56.00,124.50 V 44.84 L 40.00,60.84 v 70.30 l 16.00,16.01 v 0.02 l 40.20,-40.20 40.02,40.02 11.32,-11.32 -40.02,-40.02 39.62,-39.62 z"/>
</svg>
