<svg xmlns="http://www.w3.org/2000/svg" id="svg28" width="192" height="192" version="1"><defs><filter style="color-interpolation-filters:sRGB" id="filter6495" width="1.1" height="1.1" x=".05" y=".05"><feGaussianBlur stdDeviation="3.2"/></filter><filter style="color-interpolation-filters:sRGB" id="filter8611" width="1.14" height="1.16" x=".07" y=".08"><feGaussianBlur stdDeviation="3.42"/></filter></defs><rect width="159" height="159" x="-175.5" y="-175.5" rx="11.93" ry="11.93" transform="matrix(0,-1,-1,0,0,0)" style="fill:#333"/><rect width="160" height="160" x="-180" y="-176" rx="12" ry="12" transform="matrix(0,-1,-1,0,0,0)" style="filter:url(#filter6495);opacity:.2;fill:#000"/><path style="fill:#7e55b5" d="M 134.15 16 L 134.15 100.51 L 176 100.51 L 176 28 C 176 21.35 170.65 16 164 16 L 134.15 16 z"/><path style="fill:#ad6135" d="M 56.19 16 L 37.33 107.67 L 145.90 130.00 L 169.11 17.15 C 167.56 16.42 165.83 16 164 16 L 56.19 16 z"/><path style="fill:#008ee7" d="M 16 113.70 L 16 164 C 16 170.65 21.35 176 28 176 L 94.75 176 L 94.75 113.70 L 16 113.70 z"/><path style="fill:#bd37a9" d="M 106.23 89.41 L 16 92.54 L 16 164 C 16 166.14 16.56 168.14 17.53 169.87 L 106.23 89.41 z"/><path style="fill:#ffa816" d="M 28 16 C 21.35 16 16 21.35 16 28 L 16 102.64 L 57.33 113.27 L 82.83 16 L 28 16 z"/><path style="fill:#f54934" d="M 110.04,16 71.47,43.93 114.54,93.83 171.81,39.19 151.46,16 Z"/><path style="fill:#406b6e" d="M 114.54,93.83 58.26,145.87 86.00,176 H 164 c 4.64,0 8.64,-2.61 10.64,-6.44 L 140.57,120.21 Z"/><path style="fill:#40a057" d="M 176 53.63 L 102.59 141.44 L 142.37 176 L 164 176 C 170.65 176 176 170.65 176 164 L 176 53.63 z"/><path style="opacity:.2;fill:#fff" d="m 28,16 c -6.65,0 -12,5.35 -12,12 v 1 c 0,-6.65 5.35,-12 12,-12 h 136 c 6.65,0 12,5.35 12,12 v -1 c 0,-6.65 -5.35,-12 -12,-12 z"/><path style="filter:url(#filter8611);opacity:.2;fill:#000" d="m 54,88 c 9.72,8.66 19.34,17.13 27,26 19.95,-32.87 39.27,-46.42 59,-67 3.75,8.19 8.25,16.03 14,22 -24.25,18.34 -48.07,47.47 -71,82 C 71.44,134.72 55.15,120.52 39,107 44.91,100.80 49.72,94.72 54,88 Z"/><path style="fill:#fff" d="m 54,85 c 9.72,8.66 19.34,17.13 27,26 19.95,-32.87 39.27,-46.42 59,-67 3.75,8.19 8.25,16.03 14,22 -24.25,18.34 -48.07,47.47 -71,82 C 71.44,131.72 55.15,117.52 39,104 44.91,97.80 49.72,91.72 54,85 Z"/></svg>