<svg xmlns="http://www.w3.org/2000/svg" id="svg12" width="192" height="192" version="1.1"><defs><filter style="color-interpolation-filters:sRGB" id="filter845" width="1.1" height="1.1" x=".05" y=".05"><feGaussianBlur stdDeviation="3.2"/></filter><filter style="color-interpolation-filters:sRGB" id="filter867" width="1.1" height="1.1" x=".05" y=".05"><feGaussianBlur stdDeviation="2.24"/></filter></defs><rect style="filter:url(#filter845);opacity:.2" width="160" height="160" x="16" y="20" ry="16"/><rect style="fill:#e4e4e4" width="160" height="160" x="16" y="16" ry="16"/><path style="filter:url(#filter867);opacity:.2" d="m 56,42.00 v 16 16 H 40 v 16 H 56 V 106 122 h 16 v 16 H 56 40 v 16 h 16 16 16 16 16 16 16 v -16 h -16 -16 v -16 h 16 V 106 90.00 h 16 v -16 h -16 v -16 -16 h -16 -16 v 16 h 16 v 16 16 V 106 h -16 v 16 16 H 88 V 122 106 H 72 v -16.00 -16 -16 h 16 v -16 H 72 Z m 32,32 v 16 h 16 v -16 z"/><path style="fill:#4f4f4f" d="M 56,40 V 56 72 H 40 v 16 h 16 v 16 16 h 16 v 16 H 56 40 v 16 h 16 16 16 16 16 16 16 v -16 h -16 -16 v -16 h 16 V 104 88 h 16 V 72 H 136 V 56 40 h -16 -16 v 16 h 16 v 16 16 16 h -16 v 16 16 H 88 V 120 104 H 72 V 88 72 56 H 88 V 40 H 72 Z m 32,32 v 16 h 16 V 72 Z"/><path style="opacity:.2;fill:#fff" d="M 32 16 C 23.14 16 16 23.14 16 32 L 16 33 C 16 24.14 23.14 17 32 17 L 160 17 C 168.86 17 176 24.14 176 33 L 176 32 C 176 23.14 168.86 16 160 16 L 32 16 z"/></svg>