<?xml version='1.0' encoding='utf-8'?>
<svg xmlns="http://www.w3.org/2000/svg" width="192" height="192" version="1.1" id="svg20">
  <defs>
    <filter style="color-interpolation-filters:sRGB" id="filter857" x="0.05" width="1.10" y="0.05" height="1.10">
      <feGaussianBlur stdDeviation="3.20"/>
    </filter>
    <filter style="color-interpolation-filters:sRGB" id="filter4911" x="0.05" y="0.05" width="1.10" height="1.10">
      <feGaussianBlur stdDeviation="1.47"/>
    </filter>
  </defs>
  <circle r="80" cy="100" cx="96" style="filter:url(#filter857);opacity:0.20"/>
  <circle r="80" cy="96" cx="96" style="fill:#e4e4e4"/>
  <path style="opacity:0.20;fill:#ffffff" d="M 96,16 A 80,80 0 0 0 16,96 80,80 0 0 0 16.02,96.47 80,80 0 0 1 96,17 80,80 0 0 1 175.97,96.51 80,80 0 0 0 176,96 80,80 0 0 0 96,16 Z"/>
  <path style="filter:url(#filter4911);opacity:0.20;fill:#000000" d="m 59.35,61 26.66,74 H 96 105.99 L 132.65,61 H 110.43 L 96,109.95 81.57,61 Z"/>
  <path style="fill:#333333" d="M 59.35 59 L 86.01 133 L 96 133 L 105.99 133 L 132.65 59 L 110.43 59 L 96 107.95 L 81.57 59 L 59.35 59 z "/>
</svg>
