<svg xmlns="http://www.w3.org/2000/svg" id="svg28" width="192" height="192" version="1"><defs><filter style="color-interpolation-filters:sRGB" id="filter901" width="1.1" height="1.1" x=".05" y=".05"><feGaussianBlur stdDeviation="3.2"/></filter><filter style="color-interpolation-filters:sRGB" id="filter2995" width="1.1" height="1.09" x=".05" y=".05"><feGaussianBlur stdDeviation="1.73"/></filter><filter style="color-interpolation-filters:sRGB" id="filter2999" width="1.1" height="1.09" x=".05" y=".05"><feGaussianBlur stdDeviation="1.73"/></filter></defs><rect style="filter:url(#filter901);opacity:.2;fill:#000" width="160" height="160" x="-180" y="-176" rx="12" ry="12" transform="matrix(0,-1,-1,0,0,0)"/><rect width="160" height="160" x="-176" y="-176" rx="12" ry="12" transform="matrix(0,-1,-1,0,0,0)" style="fill:#31a1fa"/><path style="filter:url(#filter2999);opacity:.2;fill:#000;color:#000" d="M 121.45,60.00 58.13,152 h 73.22 l 8.26,-12 H 80.96 L 136.02,60.00 Z"/><path style="opacity:.2;fill:#fff" d="m 28,16 c -6.65,0 -12,5.35 -12,12 v 1 c 0,-6.65 5.35,-12 12,-12 h 136 c 6.65,0 12,5.35 12,12 v -1 c 0,-6.65 -5.35,-12 -12,-12 z"/><path style="fill:#add9fd;color:#000" d="M 121.45,58.00 58.13,150 h 73.22 l 8.26,-12 H 80.96 L 136.02,58.00 Z"/><path style="filter:url(#filter2995);opacity:.2;fill:#000;color:#000" d="M 109.45,39 46.13,131 H 119.35 l 8.26,-12 H 68.96 L 124.02,39 Z"/><path style="fill:#fff;color:#000" d="M 109.45,37 46.13,129 H 119.35 l 8.26,-12 H 68.96 L 124.02,37 Z"/></svg>