<?xml version='1.0' encoding='utf-8'?>
<svg xmlns="http://www.w3.org/2000/svg" width="192" height="192" version="1" id="svg16">
  <defs>
    <filter style="color-interpolation-filters:sRGB" id="filter879" x="0.04" width="1.08" y="0.06" height="1.12">
      <feGaussianBlur stdDeviation="2.64"/>
    </filter>
    <filter style="color-interpolation-filters:sRGB" id="filter887" x="0.02" width="1.04" y="0.03" height="1.06">
      <feGaussianBlur stdDeviation="1.32"/>
    </filter>
    <filter style="color-interpolation-filters:sRGB" id="filter898" x="0.05" width="1.10" y="0.04" height="1.09">
      <feGaussianBlur stdDeviation="1.20"/>
    </filter>
  </defs>
  <rect style="filter:url(#filter879);opacity:0.20" width="160" height="104" x="16" y="68" rx="8" ry="8"/>
  <path style="fill:#3f3f3f" d="m 16,136 c 0,4.43 3.57,8 8,8 h 144 c 4.43,0 8,-3.57 8,-8 V 48 c 0,-4.43 -3.57,-8 -8,-8 H 96 C 84,40 80,24 68,24 H 24 c -4.43,0 -8,3.57 -8,8"/>
  <rect style="filter:url(#filter887);opacity:0.20" width="160" height="104" x="16" y="62" rx="8" ry="8"/>
  <rect style="fill:#e4e4e4" width="144" height="64" x="24" y="52" rx="8" ry="8"/>
  <rect style="fill:#4f4f4f" width="160" height="104" x="16" y="64" rx="8" ry="8"/>
  <path style="opacity:0.10;fill:#ffffff" d="m 24,24 c -4.43,0 -8,3.57 -8,8 v 1 c 0,-4.43 3.57,-8 8,-8 h 44 c 12,0 16,16 28,16 h 72 c 4.43,0 8,3.57 8,8 v -1 c 0,-4.43 -3.57,-8 -8,-8 H 96 C 84,40 80,24 68,24 Z"/>
  <path d="m 128,119 -28,16 -28.00,16 V 119 87.00 L 100,103 Z" style="filter:url(#filter898);opacity:0.20"/>
  <path d="m 128,115 -28,16 -28.00,16 V 115 83.00 L 100,99.00 Z" style="fill:#ffcd2b"/>
  <path style="opacity:0.20;fill:#ffffff" d="m 72,83.00 v 1 L 127.12,115.50 128,115 Z"/>
</svg>
