<?xml version='1.0' encoding='utf-8'?>
<svg xmlns="http://www.w3.org/2000/svg" width="192" height="192" version="1" id="svg14">
  <defs>
    <filter style="color-interpolation-filters:sRGB" id="filter850" x="-0.048000001" width="1.096" y="-0.048000001" height="1.096">
      <feGaussianBlur stdDeviation="3.2"/>
    </filter>
    <filter style="color-interpolation-filters:sRGB" id="filter38278" x="-0.075" y="-0.075" width="1.15" height="1.15">
      <feGaussianBlur stdDeviation="3.8125"/>
    </filter>
  </defs>
  <circle style="filter:url(#filter850);opacity:0.2;fill:#000000" cx="96" cy="100" r="80"/>
  <circle r="80" cy="96" cx="96" style="fill:#e4e4e4"/>
  <path style="filter:url(#filter38278);opacity:0.2;fill:#000000" d="M 96,37 A 22,22 0 0 0 74,59 22,22 0 0 0 96,81 22,22 0 0 0 118,59 22,22 0 0 0 96,37 Z M 57,76 A 22,22 0 0 0 35,98 22,22 0 0 0 57,120 22,22 0 0 0 79,98 22,22 0 0 0 57,76 Z m 78,0 a 22,22 0 0 0 -22,22 22,22 0 0 0 22,22 22,22 0 0 0 22,-22 22,22 0 0 0 -22,-22 z m -39,39 a 22,22 0 0 0 -22,22 22,22 0 0 0 22,22 22,22 0 0 0 22,-22 22,22 0 0 0 -22,-22 z"/>
  <path style="opacity:0.2;fill:#ffffff" d="M 96 16 A 80 80 0 0 0 16 96 A 80 80 0 0 0 16.019531 96.472656 A 80 80 0 0 1 96 17 A 80 80 0 0 1 175.97461 96.513672 A 80 80 0 0 0 176 96 A 80 80 0 0 0 96 16 z "/>
  <circle style="fill:#ffaf00" cx="96" cy="57" r="22"/>
  <path style="fill:#f46321" d="m 96,61 c -2.627727,0 -5.256031,1.006031 -7.269531,3.019531 l -8.371094,8.371094 A 22,22 0 0 0 96,79 22,22 0 0 0 111.64062,72.390625 l -8.37109,-8.371094 C 101.25603,62.006031 98.627727,61 96,61 Z"/>
  <circle style="fill:#54d6e0" cx="96" cy="-135" r="22" transform="scale(1,-1)"/>
  <path style="fill:#449dce" d="m 96,131 c -2.627727,0 -5.256031,-1.00603 -7.269531,-3.01953 l -8.371094,-8.37109 A 22,-22 0 0 1 96,113 a 22,-22 0 0 1 15.64062,6.60938 l -8.37109,8.37109 C 101.25603,129.99397 98.627727,131 96,131 Z"/>
  <circle style="fill:#71dd50" cx="96" cy="57" r="22" transform="matrix(0,1,1,0,0,0)"/>
  <path style="fill:#00c0a7" d="m 61,96 c 0,-2.627727 1.006031,-5.256031 3.019531,-7.269531 l 8.371094,-8.371094 A 22,22 0 0 1 79,96 22,22 0 0 1 72.390625,111.64062 l -8.371094,-8.37109 C 62.006031,101.25603 61,98.627727 61,96 Z"/>
  <circle style="fill:#ff6da8" cx="96" cy="-135" r="22" transform="rotate(90)"/>
  <path style="fill:#f44966" d="m 131,96 c 0,-2.627727 -1.00603,-5.256031 -3.01953,-7.269531 l -8.37109,-8.371094 A 22,22 0 0 0 113,96 a 22,22 0 0 0 6.60938,15.64062 l 8.37109,-8.37109 C 129.99397,101.25603 131,98.627727 131,96 Z"/>
</svg>
