<?xml version='1.0' encoding='utf-8'?>
<svg xmlns="http://www.w3.org/2000/svg" width="192" height="192" version="1.1" id="svg46">
  <defs>
    <filter style="color-interpolation-filters:sRGB" id="filter920" x="0.07" width="1.13" y="0.04" height="1.08">
      <feGaussianBlur stdDeviation="15.42"/>
    </filter>
    <filter style="color-interpolation-filters:sRGB" id="filter936" x="0.06" width="1.12" y="0.04" height="1.08">
      <feGaussianBlur stdDeviation="6.68"/>
    </filter>
    <filter style="color-interpolation-filters:sRGB" id="filter952" x="0.05" width="1.10" y="0.05" height="1.10">
      <feGaussianBlur stdDeviation="0.48"/>
    </filter>
    <filter style="color-interpolation-filters:sRGB" id="filter968" x="0.05" width="1.10" y="0.05" height="1.10">
      <feGaussianBlur stdDeviation="0.32"/>
    </filter>
  </defs>
  <path style="fill:none;stroke:#3f3f3f;stroke-width:8.00" d="m 38.00,88.00 c 21.90,1.59 21.52,8.57 28.00,28.00"/>
  <g style="filter:url(#filter920);opacity:0.20" transform="matrix(0.16,0,0,0.16,21.78,18.36)">
    <g>
      <path transform="matrix(24.46,0,0,24.46,-96.50,-87.78)" d="m 24.11,4.01 c -5.28,0.43 -8.51,19.33 -8.04,24.16 0.04,0.02 0.09,0.04 0.13,0.06 C 18.33,31.80 22.26,38.42 24,41 c 2.54,0.01 6.52,3.13 10.03,3.00 2.34,0.09 5.51,-3.15 4.89,-11.79 0.61,-8.63 -11.37,-5.82 -11.38,-5.82 2.19,-1.56 3.96,-3.14 5.74,-4.03 2.01,-1.25 0.67,-4.99 -3.14,-9.43 C 28.07,9.23 26.43,4.66 25.19,4.18 24.82,4.03 24.46,3.98 24.11,4.01 Z"/>
    </g>
  </g>
  <g style="filter:url(#filter936);opacity:0.20" transform="matrix(0.16,0,0,0.16,21.38,16.36)">
    <g>
      <path transform="matrix(24.46,0,0,24.46,-96.50,-87.78)" d="m 14.37,28.20 c 0.80,0.98 0.15,2.82 0.15,2.82 0,0 7.67,11.01 8.80,12.28 1.14,1.28 2.44,0.63 1.49,-1.14 0.13,0.23 0.38,0.71 0.64,-1.22 L 17.36,29.55 c 0.64,0.99 0.99,-1.50 -1.95,-1.79 0,0 0.79,0.22 -1.03,0.44 z m 0.60,0.40 c 0.13,0.04 0.24,0.10 0.36,0.18 0.36,0.18 0.36,0.18 0.36,0.18 z"/>
    </g>
  </g>
  <g style="fill:#e4e4e4" transform="matrix(0.16,0,0,0.16,21.78,14.35)">
    <g style="fill:#e4e4e4">
      <path style="fill:#e4e4e4" transform="matrix(24.46,0,0,24.46,-96.50,-87.78)" d="m 24.11,4.01 c -5.28,0.43 -8.51,19.33 -8.04,24.16 0.04,0.02 0.09,0.04 0.13,0.06 C 18.33,31.80 22.26,38.42 24,41 c 2.54,0.01 6.52,3.13 10.03,3.00 2.34,0.09 5.51,-3.15 4.89,-11.79 0.61,-8.63 -11.37,-5.82 -11.38,-5.82 2.19,-1.56 3.96,-3.14 5.74,-4.03 2.01,-1.25 0.67,-4.99 -3.14,-9.43 C 28.07,9.23 26.43,4.66 25.19,4.18 24.82,4.03 24.46,3.98 24.11,4.01 Z"/>
    </g>
  </g>
  <g style="fill:#ffffff" transform="matrix(0.16,0,0,0.16,21.78,14.35)">
    <g style="fill:#ffffff">
      <path style="opacity:0.20;fill:#ffffff" d="M 103.49 16.01 C 103.14 15.99 102.78 16.00 102.43 16.03 C 82.56 17.63 70.02 84.40 70.13 108.46 C 70.36 83.60 82.83 18.61 102.43 17.03 C 103.84 16.92 105.29 17.13 106.77 17.71 C 111.71 19.62 118.28 37.91 126.53 52.73 C 133.81 65.83 141.54 77.40 141.87 84.57 C 142.28 77.50 134.16 65.46 126.53 51.72 C 118.28 36.91 111.71 18.62 106.77 16.71 C 105.66 16.27 104.57 16.04 103.49 16.01 z M 129.95 103.82 C 127.46 103.87 125.15 104.07 123.15 104.32 C 120.86 106.07 118.69 107.76 116.16 109.56 C 116.16 109.56 116.87 109.38 118.10 109.13 C 119.83 107.85 121.48 106.60 123.15 105.32 C 125.15 105.07 127.46 104.87 129.95 104.82 C 142.78 104.56 160.16 108.26 161.70 129.84 C 161.91 132.87 161.97 135.67 161.96 138.36 C 161.96 138.42 161.96 138.48 161.96 138.54 C 162.00 135.50 161.95 132.31 161.70 128.84 C 160.16 107.26 142.78 103.56 129.95 103.82 z M 69.74 112.42 C 69.85 112.59 69.99 112.83 70.10 112.99 C 70.10 112.85 70.09 112.74 70.09 112.59 C 69.97 112.54 69.86 112.48 69.74 112.42 z " transform="matrix(6.11,0,0,6.11,-133.18,-87.77)"/>
    </g>
  </g>
  <g style="fill:#3f3f3f" transform="matrix(0.16,0,0,0.16,21.38,14.35)">
    <g style="fill:#3f3f3f">
      <path style="fill:#3f3f3f" transform="matrix(24.46,0,0,24.46,-96.50,-87.78)" d="m 14.37,28.20 c 0.80,0.98 0.15,2.82 0.15,2.82 0,0 7.67,11.01 8.80,12.28 1.14,1.28 2.44,0.63 1.49,-1.14 0.13,0.23 0.38,0.71 0.64,-1.22 L 17.36,29.55 c 0.64,0.99 0.99,-1.50 -1.95,-1.79 0,0 0.79,0.22 -1.03,0.44 z m 0.60,0.40 c 0.13,0.04 0.24,0.10 0.36,0.18 0.36,0.18 0.36,0.18 0.36,0.18 z"/>
    </g>
  </g>
  <circle style="filter:url(#filter952);opacity:0.20" cx="66.00" cy="118.00" r="12.00"/>
  <circle style="fill:#4f4f4f" cx="66.00" cy="116.00" r="12.00"/>
  <circle style="filter:url(#filter968);opacity:0.10" cx="38.00" cy="90.00" r="8.00"/>
  <circle style="fill:#4f4f4f" cx="38.00" cy="88.00" r="8.00"/>
  <path style="fill:#4f4f4f" d="m 82.23,47.83 c 0.38,0.00 -1.01,0.04 -1.63,0.06 0.89,2.80 -1.74,5.65 -2.52,8.59 7.63,-1.66 16.11,1.87 20.21,8.30 0.14,-2.23 0.72,-4.40 -1.69,-6.40 -2.93,-5.99 -7.50,-10.55 -14.38,-10.55 z"/>
  <path style="fill:#4f4f4f" d="m 74.45,72.09 c 0.54,2.69 -1.02,5.34 -1.46,7.95 6.25,0.45 13.92,3.13 16.84,7.72 0.14,-2.23 0.72,-4.40 -1.69,-6.40 -2.41,-4.90 -8.16,-8.24 -13.70,-9.27 z"/>
  <g transform="matrix(0.16,0,0,0.16,21.78,15.36)" style="fill:#ffffff">
    <g style="fill:#ffffff"/>
  </g>
</svg>
