<?xml version='1.0' encoding='utf-8'?>
<svg xmlns="http://www.w3.org/2000/svg" width="192" height="192" version="1" id="svg14">
  <defs>
    <filter style="color-interpolation-filters:sRGB" id="filter850" x="0.05" width="1.10" y="0.05" height="1.10">
      <feGaussianBlur stdDeviation="3.20"/>
    </filter>
    <filter style="color-interpolation-filters:sRGB" id="filter11623" x="0.12" y="0.05" width="1.25" height="1.11">
      <feGaussianBlur stdDeviation="2.88"/>
    </filter>
    <filter style="color-interpolation-filters:sRGB" id="filter4833" x="0.05" y="0.15" width="1.10" height="1.30">
      <feGaussianBlur stdDeviation="0.75"/>
    </filter>
  </defs>
  <circle style="filter:url(#filter850);opacity:0.20;fill:#000000" cx="96" cy="100" r="80"/>
  <circle r="80" cy="96" cx="96" style="fill:#787878"/>
  <path style="opacity:0.10;fill:#ffffff" d="M 96 16 A 80 80 0 0 0 16 96 A 80 80 0 0 0 16.02 96.47 A 80 80 0 0 1 96 17 A 80 80 0 0 1 175.97 96.51 A 80 80 0 0 0 176 96 A 80 80 0 0 0 96 16 z "/>
  <path style="filter:url(#filter11623);opacity:0.20;fill:#000000" d="m 94,34 c 0.55,0 -1,0.45 -1,1 V 59 H 69 c 0.55,0 -1,0.45 -1,1 v 4 c 0,0.55 0.45,1 1,1 h 24 v 24 c 0,0.55 0.45,1 1,1 h 4 c 0.55,0 1,0.45 1,-1 V 65 h 24 c 0.55,0 1,0.45 1,-1 v -4 c 0,0.55 0.45,-1 -1,-1 H 99 V 35 c 0,0.55 0.45,-1 -1,-1 z m 0,72 c 0.55,0 -1,0.45 -1,1 v 54 c 0,0.55 0.45,1 1,1 h 4 c 0.55,0 1,0.45 1,-1 v -54 c 0,0.55 0.45,-1 -1,-1 z"/>
  <path style="fill:#ffb912" d="M 94 32 C 93.45 32 93 32.45 93 33 L 93 57 L 69 57 C 68.45 57 68 57.45 68 58 L 68 62 C 68 62.55 68.45 63 69 63 L 93 63 L 93 87 C 93 87.55 93.45 88 94 88 L 98 88 C 98.55 88 99 87.55 99 87 L 99 63 L 123 63 C 123.55 63 124 62.55 124 62 L 124 58 C 124 57.45 123.55 57 123 57 L 99 57 L 99 33 C 99 32.45 98.55 32 98 32 L 94 32 z M 94 104 C 93.45 104 93 104.45 93 105 L 93 159 C 93 159.55 93.45 160 94 160 L 98 160 C 98.55 160 99 159.55 99 159 L 99 105 C 99 104.45 98.55 104 98 104 L 94 104 z "/>
  <path style="opacity:0.20;fill:#ffffff" d="M 94 32 C 93.45 32 93 32.45 93 33 L 93 34 C 93 33.45 93.45 33 94 33 L 98 33 C 98.55 33 99 33.45 99 34 L 99 33 C 99 32.45 98.55 32 98 32 L 94 32 z M 69 57 C 68.45 57 68 57.45 68 58 L 68 59 C 68 58.45 68.45 58 69 58 L 93 58 L 93 57 L 69 57 z M 99 57 L 99 58 L 123 58 C 123.55 58 124 58.45 124 59 L 124 58 C 124 57.45 123.55 57 123 57 L 99 57 z M 94 104 C 93.45 104 93 104.45 93 105 L 93 106 C 93 105.45 93.45 105 94 105 L 98 105 C 98.55 105 99 105.45 99 106 L 99 105 C 99 104.45 98.55 104 98 104 L 94 104 z "/>
  <path style="filter:url(#filter4833);opacity:0.20;fill:#000000" d="m 114,125 v 7 c 0,2.77 2.23,5 5,5 h 7 c 2.06,0 3.81,-1.23 4.58,-3.00 h 0.01 A 1.50,1.50 0 0 1 132,133 a 1.50,1.50 0 0 1 1.41,1.00 h 0.00 C 134.19,135.77 135.94,137 138,137 h 7 c 2.43,0 4.44,-1.71 4.90,-4 h -2.06 c 0.40,1.18 -1.49,2 -2.84,2 h -7 c -1.70,0 -3,-1.30 -3,-3 v -2 c 0,-1.70 1.30,-3 3,-3 h 7 c 1.34,0 2.44,0.82 2.84,2 H 137 v 2 h 11 1.72 H 150 v -1 c 0,-2.77 -2.23,-5 -5,-5 h -7 c -2.63,0 -4.77,2.01 -4.98,4.59 A 1.50,1.50 0 0 1 132,130 1.50,1.50 0 0 1 131,129.60 V 125 h -2 v 7 c 0,1.70 -1.30,3 -3,3 h -7 c -1.70,0 -3,-1.30 -3,-3 v -7 z"/>
  <g transform="translate(30,122)" style="fill:#ffb912">
    <path style="fill:#ffb912" d="m 108,2 c -2.77,0 -5,2.23 -5,5 v 2 c 0,2.77 2.23,5 5,5 h 7 c 2.43,0 4.44,-1.71 4.90,-4 h -2.06 c 0.40,1.18 -1.49,2 -2.84,2 h -7 c -1.70,0 -3,-1.30 -3,-3 V 7 c 0,-1.70 1.30,-3 3,-3 h 7 c 1.34,0 2.44,0.82 2.84,2 H 107 v 2 h 11 1.72 H 120 V 7 c 0,-2.77 -2.23,-5 -5,-5 z"/>
    <path style="fill:#ffb912" d="m 84,2 v 7 c 0,2.77 2.23,5 5,5 h 7 c 2.77,0 5,-2.23 5,-5 V 2 h -2 v 7 c 0,1.70 -1.30,3 -3,3 H 89 C 87.30,12 86,10.70 86,9 V 2 Z"/>
    <path style="fill:#ffb912" d="m 100.33,6.36 v 4.64 h 0.27 A 1.50,1.50 0 0 1 102,10 a 1.50,1.50 0 0 1 1.41,1.00 h 0.15 V 6.36 H 103.22 A 1.50,1.50 0 0 1 102,7 1.50,1.50 0 0 1 100.78,6.36 Z"/>
  </g>
</svg>
