<?xml version='1.0' encoding='utf-8'?>
<svg xmlns="http://www.w3.org/2000/svg" width="192" height="192" version="1" id="svg30">
  <defs>
    <filter style="color-interpolation-filters:sRGB" id="filter880" x="0.07" width="1.15" y="0.04" height="1.07">
      <feGaussianBlur stdDeviation="0.53"/>
    </filter>
    <filter style="color-interpolation-filters:sRGB" id="filter896" x="0.06" width="1.12" y="0.04" height="1.08">
      <feGaussianBlur stdDeviation="0.61"/>
    </filter>
  </defs>
  <g transform="matrix(4,0,0,4,4.00,0.00)" style="filter:url(#filter896);opacity:0.20">
    <path d="m 21,6 c -5,0.00 -6,2 -6,6 V 26.27 C 14.35,26.09 13.68,26.00 13,26 c -4.42,0 -8,3.58 -8,8 0,4.42 3.58,8 8,8 4.03,0.00 7.43,-3.00 7.93,-7 0,0 0.08,0.73 0.07,-1 V 12 H 30 L 28,6 Z" transform="translate(-1.00,0.00)"/>
  </g>
  <g transform="matrix(4,0,0,4,4.00,8.00)" style="filter:url(#filter880);opacity:0.20">
    <path d="m 26,6 3,6 h 8 V 26.27 C 36.35,26.09 35.67,26.00 35,26 c -4.42,0 -8,3.58 -8,8 0,4.42 3.58,8 8,8 4.03,0.00 7.43,-3.00 7.93,-7 L 43,34 V 12 C 43.00,8 41,6.00 37,6 Z" transform="translate(-1.00,0.00)"/>
  </g>
  <g transform="matrix(4,0,0,4,4.00,4.00)" style="fill:#0082ea">
    <path d="m 26,6 3,6 h 8 V 26.27 C 36.35,26.09 35.67,26.00 35,26 c -4.42,0 -8,3.58 -8,8 0,4.42 3.58,8 8,8 4.03,0.00 7.43,-3.00 7.93,-7 L 43,34 V 12 C 43.00,8 41,6.00 37,6 Z" transform="translate(-1.00,0.00)" style="fill:#0082ea"/>
  </g>
  <g transform="matrix(4,0,0,4,4.00,4.00)" style="opacity:0.20;fill:#ffffff">
    <path style="fill:#ffffff" d="M 104 28 L 104.50 29 L 148 29 C 164 29.00 172.00 37 172 53 L 172 52 C 172.00 36 164 28.00 148 28 L 104 28 z M 140 108 C 122.33 108 108 122.33 108 140 C 108 140.14 108.01 140.28 108.01 140.42 C 108.33 123.01 122.52 109 140 109 C 142.70 109.02 145.39 109.37 148 110.06 L 148 109.06 C 145.39 108.37 142.70 108.02 140 108 z " transform="matrix(0.25,0,0,0.25,-1.00,-1.00)"/>
  </g>
  <g transform="matrix(4,0,0,4,4.00,-4.00)" style="fill:#45c1ff">
    <path d="m 21,6 c -5,0.00 -6,2 -6,6 V 26.27 C 14.35,26.09 13.68,26.00 13,26 c -4.42,0 -8,3.58 -8,8 0,4.42 3.58,8 8,8 4.03,0.00 7.43,-3.00 7.93,-7 0,0 0.08,0.73 0.07,-1 V 12 H 30 L 28,6 Z" transform="translate(-1.00,0.00)" style="fill:#45c1ff"/>
  </g>
  <g transform="matrix(4,0,0,4,4.00,-4.00)" style="opacity:0.20;fill:#ffffff">
    <path style="fill:#ffffff" d="M 84 20 C 64 20.00 60 28 60 44 L 60 45 C 60 29 64 21.00 84 21 L 112 21 L 119.67 44 L 120 44 L 112 20 L 84 20 z M 52 100 C 34.33 100 20 114.33 20 132 C 20 132.14 20.01 132.28 20.01 132.42 C 20.33 115.01 34.52 101 52 101 C 54.70 101.02 57.39 101.37 60 102.06 L 60 101.06 C 57.39 100.37 54.70 100.02 52 100 z " transform="matrix(0.25,0,0,0.25,-1.00,1.00)"/>
  </g>
  <path d="m 120,44 -4,8 -4,-8 h 4 z" style="opacity:0.30"/>
  <g style="opacity:0.20;fill:#ffffff" transform="matrix(4,0,0,4,4.00,5.00)"/>
  <g style="opacity:0.20;fill:#ffffff" transform="matrix(4,0,0,4,4.00,-3.00)"/>
</svg>
