<?xml version='1.0' encoding='utf-8'?>
<svg xmlns="http://www.w3.org/2000/svg" width="192" height="192" version="1" id="svg16">
  <defs>
    <filter style="color-interpolation-filters:sRGB" id="filter867" x="0.05" width="1.10" y="0.05" height="1.10">
      <feGaussianBlur stdDeviation="3.20"/>
    </filter>
    <filter style="color-interpolation-filters:sRGB" id="filter887" x="0.13" width="1.26" y="0.09" height="1.18">
      <feGaussianBlur stdDeviation="0.59"/>
    </filter>
  </defs>
  <rect ry="80" rx="80" height="160" width="160" y="-176" x="-180" transform="matrix(0,-1,-1,0,0,0)" style="filter:url(#filter867);opacity:0.20;fill:#000000"/>
  <rect style="fill:#f59101" transform="matrix(0,-1,-1,0,0,0)" x="-176" y="-176" width="160" height="160" rx="80" ry="80"/>
  <path style="opacity:0.20;fill:#ffffff" d="M 96 16 C 51.68 16 16 51.68 16 96 C 16 96.34 16.00 96.67 16 97 C 16 52.68 51.68 17 96 17 C 140.32 17 176 52.68 176 97 C 176.00 96.67 176 96.34 176 96 C 176 51.68 140.32 16 96 16 z "/>
  <g transform="matrix(6,0,0,6,-2022,2546.00)" style="filter:url(#filter887);opacity:0.20;enable-background:new">
    <path transform="matrix(0.67,0,0,0.67,246.33,-530.67)" d="m 160,173 c -2.22,0 -4,1.78 -4,4 v 8 c 0,2.22 1.78,4 4,4 2.22,0 4,-1.78 4,-4 v -8 c 0,-2.22 -1.78,-4 -4,-4 z m -8,10 v 2 c 0,4.13 3.05,7.52 7,7.95 V 196 h 2 v -3.05 c 3.95,0.43 7,-3.82 7,-7.95 v -2 h -2 v 2 c 0,3.32 -2.68,6 -6,6 -3.32,0 -6,-2.68 -6,-6 v -2 z"/>
  </g>
  <g transform="matrix(6,0,0,6,-2022,2544.02)" style="fill:#ffffff;enable-background:new">
    <path transform="matrix(0.67,0,0,0.67,246.33,-530.67)" d="m 160,173 c -2.22,0 -4,1.78 -4,4 v 8 c 0,2.22 1.78,4 4,4 2.22,0 4,-1.78 4,-4 v -8 c 0,-2.22 -1.78,-4 -4,-4 z m -8,10 v 2 c 0,4.13 3.05,7.52 7,7.95 V 196 h 2 v -3.05 c 3.95,0.43 7,-3.82 7,-7.95 v -2 h -2 v 2 c 0,3.32 -2.68,6 -6,6 -3.32,0 -6,-2.68 -6,-6 v -2 z"/>
  </g>
</svg>
