<?xml version='1.0' encoding='utf-8'?>
<svg xmlns="http://www.w3.org/2000/svg" width="192" height="192" version="1" id="svg24">
  <defs>
    <filter style="color-interpolation-filters:sRGB" id="filter868" x="0.04" width="1.09" y="0.05" height="1.11">
      <feGaussianBlur stdDeviation="2.88"/>
    </filter>
    <filter style="color-interpolation-filters:sRGB" id="filter887" x="0.05" width="1.10" y="0.05" height="1.10">
      <feGaussianBlur stdDeviation="0.96"/>
    </filter>
    <filter style="color-interpolation-filters:sRGB" id="filter903" x="0.02" width="1.05" y="0.03" height="1.05">
      <feGaussianBlur stdDeviation="0.61"/>
    </filter>
    <filter style="color-interpolation-filters:sRGB" id="filter918" x="0.01" width="1.02" y="0.83" height="2.66">
      <feGaussianBlur stdDeviation="0.69"/>
    </filter>
  </defs>
  <rect style="filter:url(#filter868);opacity:0.20;fill:#000000" width="160" height="128" x="-176" y="36" rx="8" ry="8" transform="scale(-1,1)"/>
  <rect transform="scale(-1,1)" ry="8" rx="8" y="32" x="-176" height="128" width="160" style="fill:#8e8e8e"/>
  <circle r="24" cy="120" cx="132" style="filter:url(#filter887);opacity:0.10"/>
  <circle r="24" cy="116" cx="132" style="fill:#dddddd"/>
  <path style="opacity:0.10;fill:#ffffff" d="M 24 32 C 19.57 32 16 35.57 16 40 L 16 41 C 16 36.57 19.57 33 24 33 L 168 33 C 172.43 33 176 36.57 176 41 L 176 40 C 176 35.57 172.43 32 168 32 L 24 32 z "/>
  <rect y="44" x="28" height="28" width="136" style="fill:#ffb818"/>
  <rect transform="rotate(90)" y="-80" x="51" height="16" width="21" style="fill:#ff5151"/>
  <path d="m 36,84 a 8,8 0 0 0 -8,8 8,8 0 0 0 8,8 8,8 0 0 0 8,-8 8,8 0 0 0 -8,-8 z m 24,0 a 8,8 0 0 0 -8,8 8,8 0 0 0 8,8 8,8 0 0 0 8,-8 8,8 0 0 0 -8,-8 z m 24,0 a 8,8 0 0 0 -8,8 8,8 0 0 0 8,8 8,8 0 0 0 8,-8 8,8 0 0 0 -8,-8 z m -48,24 a 8,8 0 0 0 -8,8 8,8 0 0 0 8,8 8,8 0 0 0 8,-8 8,8 0 0 0 -8,-8 z m 24,0 a 8,8 0 0 0 -8,8 8,8 0 0 0 8,8 8,8 0 0 0 8,-8 8,8 0 0 0 -8,-8 z m 24,0 a 8,8 0 0 0 -8,8 8,8 0 0 0 8,8 8,8 0 0 0 8,-8 8,8 0 0 0 -8,-8 z m -48,24 a 8,8 0 0 0 -8,8 8,8 0 0 0 8,8 8,8 0 0 0 8,-8 8,8 0 0 0 -8,-8 z m 24,0 a 8,8 0 0 0 -8,8 8,8 0 0 0 8,8 8,8 0 0 0 8,-8 8,8 0 0 0 -8,-8 z m 24,0 a 8,8 0 0 0 -8,8 8,8 0 0 0 8,8 8,8 0 0 0 8,-8 8,8 0 0 0 -8,-8 z" style="fill:#4d4d4d"/>
  <path d="m 132,92 a 24,24 0 0 0 -24,24 24,24 0 0 0 0.10,1.99 A 24,24 0 0 1 132,96 24,24 0 0 1 155.90,118.01 24,24 0 0 0 156,116 24,24 0 0 0 132,92 Z" style="opacity:0.10;fill:#ffffff"/>
  <path style="opacity:0.20;fill:#ffffff" d="M 132 92 A 24 24 0 0 0 108 116 A 24 24 0 0 0 108.02 116.41 A 24 24 0 0 1 132 93 A 24 24 0 0 1 155.97 116.50 A 24 24 0 0 0 156 116 A 24 24 0 0 0 132 92 z "/>
  <path style="filter:url(#filter903);opacity:0.10;fill:#000000" d="M 36 84 A 8 8 0 0 0 28 92 A 8 8 0 0 0 28.07 93.01 A 8 8 0 0 1 36 86 A 8 8 0 0 1 43.93 92.99 A 8 8 0 0 0 44 92 A 8 8 0 0 0 36 84 z M 60 84 A 8 8 0 0 0 52 92 A 8 8 0 0 0 52.07 93.01 A 8 8 0 0 1 60 86 A 8 8 0 0 1 67.93 92.99 A 8 8 0 0 0 68 92 A 8 8 0 0 0 60 84 z M 84 84 A 8 8 0 0 0 76 92 A 8 8 0 0 0 76.07 93.01 A 8 8 0 0 1 84 86 A 8 8 0 0 1 91.93 92.99 A 8 8 0 0 0 92 92 A 8 8 0 0 0 84 84 z M 36 108 A 8 8 0 0 0 28 116 A 8 8 0 0 0 28.07 117.01 A 8 8 0 0 1 36 110 A 8 8 0 0 1 43.93 116.99 A 8 8 0 0 0 44 116 A 8 8 0 0 0 36 108 z M 60 108 A 8 8 0 0 0 52 116 A 8 8 0 0 0 52.07 117.01 A 8 8 0 0 1 60 110 A 8 8 0 0 1 67.93 116.99 A 8 8 0 0 0 68 116 A 8 8 0 0 0 60 108 z M 84 108 A 8 8 0 0 0 76 116 A 8 8 0 0 0 76.07 117.01 A 8 8 0 0 1 84 110 A 8 8 0 0 1 91.93 116.99 A 8 8 0 0 0 92 116 A 8 8 0 0 0 84 108 z M 36 132 A 8 8 0 0 0 28 140 A 8 8 0 0 0 28.07 141.01 A 8 8 0 0 1 36 134 A 8 8 0 0 1 43.93 140.99 A 8 8 0 0 0 44 140 A 8 8 0 0 0 36 132 z M 60 132 A 8 8 0 0 0 52 140 A 8 8 0 0 0 52.07 141.01 A 8 8 0 0 1 60 134 A 8 8 0 0 1 67.93 140.99 A 8 8 0 0 0 68 140 A 8 8 0 0 0 60 132 z M 84 132 A 8 8 0 0 0 76 140 A 8 8 0 0 0 76.07 141.01 A 8 8 0 0 1 84 134 A 8 8 0 0 1 91.93 140.99 A 8 8 0 0 0 92 140 A 8 8 0 0 0 84 132 z "/>
  <path style="opacity:0.10;fill:#ffffff" d="M 28.02 92.42 A 8 8 0 0 0 28 93 A 8 8 0 0 0 36 101 A 8 8 0 0 0 44 93 A 8 8 0 0 0 43.98 92.58 A 8 8 0 0 1 36 100 A 8 8 0 0 1 28.02 92.42 z M 52.02 92.42 A 8 8 0 0 0 52 93 A 8 8 0 0 0 60 101 A 8 8 0 0 0 68 93 A 8 8 0 0 0 67.98 92.58 A 8 8 0 0 1 60 100 A 8 8 0 0 1 52.02 92.42 z M 76.02 92.42 A 8 8 0 0 0 76 93 A 8 8 0 0 0 84 101 A 8 8 0 0 0 92 93 A 8 8 0 0 0 91.98 92.58 A 8 8 0 0 1 84 100 A 8 8 0 0 1 76.02 92.42 z M 28.02 116.42 A 8 8 0 0 0 28 117 A 8 8 0 0 0 36 125 A 8 8 0 0 0 44 117 A 8 8 0 0 0 43.98 116.58 A 8 8 0 0 1 36 124 A 8 8 0 0 1 28.02 116.42 z M 52.02 116.42 A 8 8 0 0 0 52 117 A 8 8 0 0 0 60 125 A 8 8 0 0 0 68 117 A 8 8 0 0 0 67.98 116.58 A 8 8 0 0 1 60 124 A 8 8 0 0 1 52.02 116.42 z M 76.02 116.42 A 8 8 0 0 0 76 117 A 8 8 0 0 0 84 125 A 8 8 0 0 0 92 117 A 8 8 0 0 0 91.98 116.58 A 8 8 0 0 1 84 124 A 8 8 0 0 1 76.02 116.42 z M 28.02 140.42 A 8 8 0 0 0 28 141 A 8 8 0 0 0 36 149 A 8 8 0 0 0 44 141 A 8 8 0 0 0 43.98 140.58 A 8 8 0 0 1 36 148 A 8 8 0 0 1 28.02 140.42 z M 52.02 140.42 A 8 8 0 0 0 52 141 A 8 8 0 0 0 60 149 A 8 8 0 0 0 68 141 A 8 8 0 0 0 67.98 140.58 A 8 8 0 0 1 60 148 A 8 8 0 0 1 52.02 140.42 z M 76.02 140.42 A 8 8 0 0 0 76 141 A 8 8 0 0 0 84 149 A 8 8 0 0 0 92 141 A 8 8 0 0 0 91.98 140.58 A 8 8 0 0 1 84 148 A 8 8 0 0 1 76.02 140.42 z "/>
  <rect style="filter:url(#filter918);opacity:0.10;fill:#000000" width="136" height="2" x="28" y="44"/>
  <rect style="opacity:0.15;fill:#ffffff" width="21" height="8" x="51" y="-72" transform="rotate(90)"/>
</svg>
