<?xml version='1.0' encoding='utf-8'?>
<svg xmlns="http://www.w3.org/2000/svg" width="192" height="192" version="1" id="svg16">
  <defs>
    <filter style="color-interpolation-filters:sRGB" id="filter867" x="-0.048000001" width="1.096" y="-0.048000001" height="1.096">
      <feGaussianBlur stdDeviation="3.2"/>
    </filter>
    <filter style="color-interpolation-filters:sRGB" id="filter898" x="-0.099000004" width="1.198" y="-0.066000003" height="1.132">
      <feGaussianBlur stdDeviation="2.64"/>
    </filter>
    <filter style="color-interpolation-filters:sRGB" id="filter902" x="-0.099000004" width="1.198" y="-0.066000003" height="1.132">
      <feGaussianBlur stdDeviation="2.64"/>
    </filter>
  </defs>
  <circle r="80" cy="100" cx="96" style="filter:url(#filter867);opacity:0.2;fill:#000000"/>
  <circle style="fill:#2f67ba" cx="96" cy="96" r="80"/>
  <path style="opacity:0.1;fill:#ffffff" d="m 96,16 c -44.316,0 -79.992188,35.68 -79.992188,80 0,0.33544 0.002,0.667215 0,1 C 16.007812,52.68 51.684,17 96,17 c 44.316,0 79.99219,35.68 79.99219,80 -0.002,-0.332785 0,-0.66456 0,-1 C 175.99219,51.68 140.316,16 96,16 Z"/>
  <path style="filter:url(#filter902);opacity:0.2" d="m 60,66 c -17.673112,0 -32,14.326888 -32,32 0,17.67311 14.326888,32 32,32 5.620192,-0.01 11.138604,-1.50012 16,-4.32031 V 154 a 8,8 0 0 0 8,8 8,8 0 0 0 8,-8 V 98 66 H 76 v 4.335936 C 71.14012,67.510284 65.621612,66.014836 60,66 Z m 0,16 c 8.836556,0 16,7.163444 16,16 0,8.83656 -7.163444,16 -16,16 -8.836556,0 -16,-7.16344 -16,-16 0,-8.836556 7.163444,-16 16,-16 z"/>
  <path style="fill:#64d4f9" d="m 60,64 c -17.673112,0 -32,14.326888 -32,32 0,17.67311 14.326888,32 32,32 5.620192,-0.01 11.138604,-1.50012 16,-4.32031 V 152 a 8,8 0 0 0 8,8 8,8 0 0 0 8,-8 V 96 64 H 76 v 4.335936 C 71.14012,65.510284 65.621612,64.014836 60,64 Z m 0,16 c 8.836556,0 16,7.163444 16,16 0,8.83656 -7.163444,16 -16,16 -8.836556,0 -16,-7.16344 -16,-16 0,-8.836556 7.163444,-16 16,-16 z"/>
  <path style="filter:url(#filter898);opacity:0.2" d="m 108,34 a 8,8 0 0 0 -8,8 v 56 32 h 16 v -4.33594 c 4.85988,2.82566 10.37839,4.3211 16,4.33594 17.67311,0 32,-14.32689 32,-32 0,-17.673112 -14.32689,-32 -32,-32 -5.62019,0.01 -11.1386,1.500116 -16,4.320312 V 42 a 8,8 0 0 0 -8,-8 z m 24,48 c 8.83656,0 16,7.163444 16,16 0,8.83656 -7.16344,16 -16,16 -8.83656,0 -16,-7.16344 -16,-16 0,-8.836556 7.16344,-16 16,-16 z"/>
  <path style="fill:#ffffff" d="m 108,32 a 8,8 0 0 0 -8,8 v 56 32 h 16 v -4.33594 c 4.85988,2.82566 10.37839,4.3211 16,4.33594 17.67311,0 32,-14.32689 32,-32 0,-17.673112 -14.32689,-32 -32,-32 -5.62019,0.01 -11.1386,1.500116 -16,4.320312 V 40 a 8,8 0 0 0 -8,-8 z m 24,48 c 8.83656,0 16,7.163444 16,16 0,8.83656 -7.16344,16 -16,16 -8.83656,0 -16,-7.16344 -16,-16 0,-8.836556 7.16344,-16 16,-16 z"/>
  <path style="opacity:0.2;fill:#ffffff" d="m 60,64 c -17.673112,0 -32,14.326888 -32,32 0,0.16771 0.0091,0.332902 0.01172,0.5 C 28.280071,79.058483 42.494598,65 60,65 c 5.621612,0.01484 11.14012,1.510285 16,4.335938 v -1 C 71.14012,65.510285 65.621612,64.014836 60,64 Z m 16,0 v 1 H 92 V 64 Z M 44.025391,96.5 C 44.020206,96.667464 44,96.831277 44,97 c 0,8.83656 7.163444,16 16,16 8.836556,0 16,-7.16344 16,-16 0,-0.168723 -0.02021,-0.332536 -0.02539,-0.5 C 75.708242,105.1032 68.667833,112 60,112 51.332167,112 44.291758,105.1032 44.025391,96.5 Z"/>
</svg>
