<?xml version='1.0' encoding='utf-8'?>
<svg xmlns="http://www.w3.org/2000/svg" width="192" height="192" version="1" id="svg14">
  <defs>
    <filter style="color-interpolation-filters:sRGB" id="filter850" x="-0.048000001" width="1.096" y="-0.048000001" height="1.096">
      <feGaussianBlur stdDeviation="3.2"/>
    </filter>
    <filter style="color-interpolation-filters:sRGB" id="filter4802" x="-0.108" y="-0.108" width="1.216" height="1.216">
      <feGaussianBlur stdDeviation="5.49"/>
    </filter>
  </defs>
  <circle style="filter:url(#filter850);opacity:0.2;fill:#000000" cx="96" cy="100" r="80"/>
  <circle r="80" cy="96" cx="96" style="fill:#ff3b41"/>
  <path style="filter:url(#filter4802);opacity:0.2;fill:#000000" d="m 96,37 c -3.313708,0 -6,2.686292 -6,6 0,3.313708 4.268294,12 6,12 1.731706,0 6,-8.686292 6,-12 0,-3.313708 -2.686292,-6 -6,-6 z M 57.109375,53.109375 c -1.535534,0 -3.070615,0.58624 -4.242187,1.757813 -2.343145,2.343145 -2.343146,6.141228 0,8.484374 2.343147,2.343148 11.502061,5.466689 12.726562,4.242188 1.224501,-1.224501 -1.89904,-10.383415 -4.242188,-12.726562 -1.171573,-1.171573 -2.706653,-1.757813 -4.242187,-1.757813 z m 77.781245,0 c -1.53553,0 -3.07061,0.58624 -4.24218,1.757813 -2.34315,2.343147 -5.46669,11.502061 -4.24219,12.726562 1.2245,1.224501 10.38342,-1.89904 12.72656,-4.242188 2.34315,-2.343146 2.34315,-6.141229 0,-8.484374 -1.17157,-1.171573 -2.70665,-1.757813 -4.24219,-1.757813 z M 120.1875,78.330078 94.371094,103.24023 81.445312,90.873047 75.914062,96.652344 94.392578,114.33398 125.74219,84.085938 Z M 41,92 c -3.31371,0 -6,2.686292 -6,6 0,3.31371 2.68629,6 6,6 3.31371,0 12,-4.26829 12,-6 0,-1.731706 -8.68629,-6 -12,-6 z m 110,0 c -3.31371,0 -12,4.268294 -12,6 0,1.73171 8.68629,6 12,6 3.31371,0 6,-2.68629 6,-6 0,-3.313708 -2.68629,-6 -6,-6 z m -86.207031,36.14062 c -2.60569,-0.19033 -9.875534,2.45757 -11.925781,4.50782 -2.34315,2.34315 -2.343151,6.14123 0,8.48437 2.343139,2.34315 6.141224,2.34315 8.484374,0 2.343141,-2.34314 5.466688,-11.50206 4.242188,-12.72656 -0.153063,-0.15306 -0.42854,-0.23843 -0.800781,-0.26563 z m 62.414061,0 c -0.37224,0.0272 -0.64772,0.11257 -0.80078,0.26563 -1.2245,1.2245 1.89905,10.38342 4.24219,12.72656 2.34315,2.34315 6.14123,2.34315 8.48437,0 2.34315,-2.34314 2.34315,-6.14122 0,-8.48437 -2.05025,-2.05025 -9.32009,-4.69815 -11.92578,-4.50782 z M 96,141 c -1.731706,0 -6,8.68629 -6,12 0,3.31371 2.686292,6 6,6 3.313708,0 6,-2.68629 6,-6 0,-3.31371 -4.268294,-12 -6,-12 z"/>
  <path style="fill:#38adfa" d="m 688.80525,256.99648 c -0.33229,-0.33229 -1.1948,-0.36781 -1.91667,-0.0789 -0.79773,0.31922 -0.56078,0.55618 0.60417,0.60416 1.05416,0.0434 1.64479,-0.19293 1.3125,-0.52522 z"/>
  <path style="opacity:0.2;fill:#ffffff" d="M 96 16 A 80 80 0 0 0 16 96 A 80 80 0 0 0 16.019531 96.472656 A 80 80 0 0 1 96 17 A 80 80 0 0 1 175.97461 96.513672 A 80 80 0 0 0 176 96 A 80 80 0 0 0 96 16 z "/>
  <path style="fill:#ffffff" d="M 96 35 C 92.686292 35 90 37.686292 90 41 C 90 44.313708 94.268294 53 96 53 C 97.731706 53 102 44.313708 102 41 C 102 37.686292 99.313708 35 96 35 z M 57.109375 51.109375 C 55.573841 51.109375 54.03876 51.695615 52.867188 52.867188 C 50.524043 55.210333 50.524042 59.008416 52.867188 61.351562 C 55.210335 63.69471 64.369249 66.818251 65.59375 65.59375 C 66.818251 64.369249 63.69471 55.210335 61.351562 52.867188 C 60.179989 51.695615 58.644909 51.109375 57.109375 51.109375 z M 134.89062 51.109375 C 133.35509 51.109375 131.82001 51.695615 130.64844 52.867188 C 128.30529 55.210335 125.18175 64.369249 126.40625 65.59375 C 127.63075 66.818251 136.78967 63.69471 139.13281 61.351562 C 141.47596 59.008416 141.47596 55.210333 139.13281 52.867188 C 137.96124 51.695615 136.42616 51.109375 134.89062 51.109375 z M 120.1875 76.330078 L 94.371094 101.24023 L 81.445312 88.873047 L 75.914062 94.652344 L 94.392578 112.33398 L 125.74219 82.085938 L 120.1875 76.330078 z M 41 90 C 37.68629 90 35 92.686292 35 96 C 35 99.313708 37.68629 102 41 102 C 44.31371 102 53 97.731706 53 96 C 53 94.268294 44.31371 90 41 90 z M 151 90 C 147.68629 90 139 94.268294 139 96 C 139 97.731706 147.68629 102 151 102 C 154.31371 102 157 99.313708 157 96 C 157 92.686292 154.31371 90 151 90 z M 64.792969 126.14062 C 62.187279 125.95029 54.917435 128.59819 52.867188 130.64844 C 50.524038 132.99159 50.524037 136.78967 52.867188 139.13281 C 55.210327 141.47596 59.008412 141.47596 61.351562 139.13281 C 63.694703 136.78967 66.81825 127.63075 65.59375 126.40625 C 65.440687 126.25319 65.16521 126.16782 64.792969 126.14062 z M 127.20703 126.14062 C 126.83479 126.16782 126.55931 126.25319 126.40625 126.40625 C 125.18175 127.63075 128.3053 136.78967 130.64844 139.13281 C 132.99159 141.47596 136.78967 141.47596 139.13281 139.13281 C 141.47596 136.78967 141.47596 132.99159 139.13281 130.64844 C 137.08256 128.59819 129.81272 125.95029 127.20703 126.14062 z M 96 139 C 94.268294 139 90 147.68629 90 151 C 90 154.31371 92.686292 157 96 157 C 99.313708 157 102 154.31371 102 151 C 102 147.68629 97.731706 139 96 139 z "/>
</svg>
