<?xml version='1.0' encoding='utf-8'?>
<svg xmlns="http://www.w3.org/2000/svg" width="192" height="192" version="1" id="svg20">
  <defs>
    <filter style="color-interpolation-filters:sRGB" id="filter979" x="0.05" y="0.05" width="1.10" height="1.10">
      <feGaussianBlur stdDeviation="3.20"/>
    </filter>
    <filter style="color-interpolation-filters:sRGB" id="filter983" x="0.05" y="0.05" width="1.10" height="1.10">
      <feGaussianBlur stdDeviation="0.56"/>
    </filter>
  </defs>
  <path fill="#e4e4e4" d="M 96.00,20.00 C 51.68,20.00 16,55.68 16,100.00 16,144.32 51.68,180 96.00,180 c 44.32,0 80.00,-35.68 80.00,-80.00 0,-44.32 -35.68,-80.00 -80.00,-80.00 z" style="filter:url(#filter979);opacity:0.20;fill:#000000"/>
  <path fill="#e4e4e4" d="M 96.00,16.00 C 51.68,16.00 16,51.68 16,96.00 c 0,44.32 35.68,80.00 80.00,80.00 44.32,0 80.00,-35.68 80.00,-80.00 0,-44.32 -35.68,-80.00 -80.00,-80.00 z"/>
  <path style="opacity:0.20;fill:#ffffff" d="M 96 16 C 51.72 16.00 16.07 51.68 16.07 96 C 16.07 96.17 16.08 96.34 16.09 96.52 C 16.34 52.42 51.88 17.00 96 17 L 96.00 17 C 140.12 17.00 175.66 52.42 175.92 96.52 C 175.92 96.34 175.93 96.17 175.93 96 C 175.93 51.68 140.28 16.00 96.00 16 L 96 16 z "/>
  <g opacity="0.20" transform="matrix(4.00,0,0,4.00,0.00,1.88)" style="filter:url(#filter983)">
    <path d="m 17,12 c -4.36,2.49 -6.99,6.98 -7,12 0.01,6.92 5.16,12.97 12,14 0.49,0.05 0.64,0.03 1,0 3.31,0 6,-2.69 6,-6 0.00,-2.27 -1.28,-4.30 -3.23,-5.32 0,0 -2.15,0.99 -3.11,-1.50 -1.38,0.69 -2.90,-1.30 -4.35,-2.19 0.72,0.44 -1.46,0.96 -2.11,-1.76 0.66,0.80 -1.20,-1.99 -1.20,-3.24 0,-2.42 0.88,-4.27 2,-6 z"/>
    <path d="m 31,36 c 4.36,-2.49 6.99,-6.98 7,-12 0.01,-6.92 -5.16,-12.97 -12,-14 0.49,0.05 0.64,0.03 -1,0 -3.31,0 -6,2.69 -6,6 0.00,2.27 1.28,4.30 3.23,5.32 0,0 2.15,0.99 3.11,1.50 1.38,0.69 2.90,1.30 4.35,2.19 0.72,0.44 1.45,0.96 2.11,1.76 0.66,0.80 1.20,1.99 1.20,3.24 0,2.42 0.88,4.27 -2,6 z"/>
  </g>
  <g fill="#2b8ae2" transform="matrix(4.00,0,0,4.00,0.00,0.00)" style="fill:#325fc9">
    <path d="m 17,12 c -4.36,2.49 -6.99,6.98 -7,12 0.01,6.92 5.16,12.97 12,14 0.49,0.05 0.64,0.03 1,0 3.31,0 6,-2.69 6,-6 0.00,-2.27 -1.28,-4.30 -3.23,-5.32 0,0 -2.15,0.99 -3.11,-1.50 -1.38,0.69 -2.90,-1.30 -4.35,-2.19 0.72,0.44 -1.46,0.96 -2.11,-1.76 0.66,0.80 -1.20,-1.99 -1.20,-3.24 0,-2.42 0.88,-4.27 2,-6 z" style="fill:#325fc9"/>
    <path d="m 31,36 c 4.36,-2.49 6.99,-6.98 7,-12 0.01,-6.92 -5.16,-12.97 -12,-14 0.49,0.05 0.64,0.03 -1,0 -3.31,0 -6,2.69 -6,6 0.00,2.27 1.28,4.30 3.23,5.32 0,0 2.15,0.99 3.11,1.50 1.38,0.69 2.90,1.30 4.35,2.19 0.72,0.44 1.45,0.96 2.11,1.76 0.66,0.80 1.20,1.99 1.20,3.24 0,2.42 0.88,4.27 -2,6 z" style="fill:#325fc9"/>
  </g>
</svg>
