<?xml version='1.0' encoding='utf-8'?>
<svg xmlns="http://www.w3.org/2000/svg" width="192" height="192" version="1" id="svg28">
  <defs>
    <filter style="color-interpolation-filters:sRGB" id="filter6495" x="0.05" y="0.05" width="1.10" height="1.10">
      <feGaussianBlur stdDeviation="3.20"/>
    </filter>
    <filter style="color-interpolation-filters:sRGB" id="filter2148" x="0.04" y="0.06" width="1.09" height="1.11">
      <feGaussianBlur stdDeviation="1.95"/>
    </filter>
  </defs>
  <rect transform="matrix(0,-1,-1,0,0,0)" ry="12" rx="12" y="-176" x="-180" height="160" width="160" style="filter:url(#filter6495);opacity:0.20;fill:#000000"/>
  <rect transform="matrix(0,-1,-1,0,0,0)" ry="12" rx="12" y="-176" x="-176" height="160" width="160" style="fill:#e4e4e4"/>
  <path style="opacity:0.20;fill:#ffffff" d="M 28 16 C 21.35 16 16 21.35 16 28 L 16 29 C 16 22.35 21.35 17 28 17 L 164 17 C 170.65 17 176 22.35 176 29 L 176 28 C 176 21.35 170.65 16 164 16 L 28 16 z "/>
  <path style="filter:url(#filter2148);opacity:0.20;fill:#000000" d="m 111.22,56.00 c -2.37,0.04 -5.14,0.80 -9.24,2.69 -2.59,1.20 -4.43,2.16 -5.47,2.26 -1.49,0.15 -1.77,0.24 -5.79,-2.26 -4.91,-2.46 -7.03,-2.95 -10.39,-2.42 -2.67,0.43 -3.43,0.75 -4.76,2.03 -4.11,3.94 -7.98,13.66 -11.17,28.04 0.50,2.28 0.96,4.18 -1.01,4.22 0.05,0.05 0.31,-1.28 0.59,-2.95 0.28,-1.67 0.64,-3.89 0.82,-4.93 l 0.32,-1.88 -1.82,0.20 c -2.55,0.28 -6.91,1.25 -9.31,2.06 -6.51,2.21 -9.91,5.50 -9.49,9.18 0.24,2.14 1.36,4.01 3.91,6.58 7.87,7.90 23.95,13.69 41.70,15.02 3.17,0.24 12.68,0.18 16.20,0.10 15.52,-1.22 31.25,-5.76 40.16,-11.59 1.06,0.69 3.01,-2.34 4.33,-3.65 2.58,-2.56 3.69,-4.65 3.67,-6.92 0.01,-2.36 -1.88,-4.87 -4.87,-6.56 -2.96,-1.68 -9.35,-3.52 -13.99,-4.03 -2.13,0.24 -1.82,0.83 -2.82,5.40 0.37,2.31 0.77,4.15 0.88,4.08 0.11,0.07 0.29,0.59 0.40,-1.16 0.36,-1.89 -2.57,-9.72 -3.94,-13.93 -3.81,-11.72 -7.42,-18.21 -10.62,-19.08 0.73,0.20 -1.48,0.31 -2.27,0.32 z M 75.81,117.00 c -3.48,0.02 -6.89,0.17 -9.29,0.58 -4.85,0.84 -4.66,0.72 -4.43,2.94 0.38,3.63 0.50,3.94 1.64,4.05 1.21,0.12 1.45,0.44 1.46,1.88 0.02,3.77 1.66,8.94 3.52,11.08 1.09,1.25 3.94,2.79 5.92,3.18 2.14,0.42 5.63,0.36 7.53,0.13 5.14,-1.34 7.40,-3.49 11.80,-11.26 1.07,-1.89 1.44,-2.31 2.04,-2.31 0.59,0 0.96,0.42 2.04,2.31 2.52,4.45 3.87,6.40 5.41,7.84 2.98,2.79 6.74,4.05 11.27,3.79 7.37,0.42 10.84,-4.03 11.81,-12.26 0.50,-4.21 0.42,-4.03 1.66,-4.13 1.23,0.10 1.33,0.36 1.72,-4.04 0.23,-2.22 0.41,-2.10 -4.43,-2.94 -4.79,0.83 -13.64,0.77 -19.01,0.13 -3.46,0.53 -7.30,1.27 -10.46,1.28 -3.58,0.05 -7.24,0.74 -10.46,-1.28 -2.69,0.45 -6.24,0.69 -9.72,0.72 z m -3.65,7.00 c 0.68,0 0.98,0.94 0.78,2.46 0.16,1.18 0.31,1.46 0.87,1.53 C 71.27,128.09 71,127.58 71,125.91 c 0,-1.22 0.42,-1.91 1.16,-1.91 z"/>
  <path style="fill:#3f3f3f" d="M 111.22 54.00 C 108.85 53.96 106.08 54.80 101.98 56.69 C 99.39 57.89 97.55 58.85 96.51 58.96 C 95.02 59.11 94.73 58.72 90.72 56.70 C 85.81 54.24 83.69 53.75 80.33 54.28 C 77.65 54.71 76.90 55.03 75.56 56.31 C 71.45 60.25 67.58 69.97 64.39 84.35 C 63.89 86.63 63.44 88.53 63.39 88.57 C 63.34 88.62 63.08 87.29 62.80 85.62 C 62.53 83.95 62.16 81.73 61.98 80.70 L 61.65 78.81 L 59.84 79.01 C 57.29 79.29 52.93 80.26 50.53 81.08 C 44.02 83.29 40.62 86.57 41.03 90.25 C 41.27 92.40 42.39 94.27 44.95 96.83 C 52.82 104.74 68.90 110.53 86.64 111.85 C 89.81 112.09 99.32 112.03 102.84 111.76 C 118.36 110.54 134.09 106.00 143.00 100.17 C 144.06 99.48 146.01 97.83 147.33 96.52 C 149.91 93.96 151.01 91.88 151 89.61 C 150.99 87.25 149.12 84.74 146.13 83.04 C 143.17 81.37 136.78 79.53 132.14 79.01 C 130.01 78.78 130.32 78.18 129.32 84.41 C 128.95 86.73 128.55 88.56 128.44 88.49 C 128.33 88.42 128.15 87.90 128.04 87.33 C 127.68 85.43 125.47 77.61 124.10 73.40 C 120.29 61.68 116.68 55.19 113.48 54.32 C 112.75 54.12 112.01 54.01 111.22 54.00 z M 75.81 115.00 C 72.33 114.98 68.92 115.17 66.53 115.59 C 61.68 116.43 61.86 116.31 62.09 118.53 C 62.47 122.16 62.59 122.47 63.73 122.58 C 64.94 122.70 65.19 123.02 65.20 124.46 C 65.21 128.23 66.85 133.39 68.71 135.54 C 69.80 136.79 72.66 138.33 74.63 138.72 C 76.77 139.14 80.27 139.08 82.16 138.59 C 87.30 137.25 89.56 135.10 93.96 127.33 C 95.04 125.44 95.41 125.02 96 125.02 C 96.59 125.02 96.96 125.44 98.04 127.33 C 100.56 131.78 101.91 133.73 103.44 135.17 C 106.42 137.95 110.18 139.22 114.71 138.96 C 122.08 138.55 125.56 134.93 126.53 126.70 C 127.03 122.49 126.95 122.68 128.19 122.57 C 129.42 122.47 129.52 122.21 129.91 118.53 C 130.14 116.31 130.32 116.43 125.47 115.59 C 120.68 114.75 111.84 114.82 106.46 115.72 C 103.00 116.25 99.16 116.99 96 117 C 92.42 116.95 88.76 116.26 85.54 115.72 C 82.85 115.27 79.30 115.03 75.81 115.00 z M 72.16 122 C 72.84 122 73.14 122.94 72.94 124.46 C 72.78 125.64 72.62 125.91 72.07 125.99 C 71.27 126.09 71 125.58 71 123.91 C 71 122.69 71.42 122 72.16 122 z "/>
</svg>
