<?xml version='1.0' encoding='utf-8'?>
<svg xmlns="http://www.w3.org/2000/svg" width="192" height="192" version="1" id="svg12">
  <defs>
    <filter style="color-interpolation-filters:sRGB" id="filter955" x="0.05" width="1.10" y="0.05" height="1.10">
      <feGaussianBlur stdDeviation="3.20"/>
    </filter>
    <filter style="color-interpolation-filters:sRGB" id="filter9303" x="0.09" y="0.13" width="1.18" height="1.27">
      <feGaussianBlur stdDeviation="4.48"/>
    </filter>
  </defs>
  <rect style="filter:url(#filter955);opacity:0.20;fill:#000000" width="160" height="160" x="16" y="20" rx="30" ry="30"/>
  <rect style="fill:#0384d0" width="160" height="160" x="16" y="16" rx="30" ry="30"/>
  <path style="filter:url(#filter9303);opacity:0.20;fill:#000000" d="m 103.95,57.00 c -2.63,0.01 -4.45,0.64 -5.61,1.95 -1.08,1.22 -45.60,68.93 -45.97,69.92 -1.28,3.39 0.95,7.47 4.76,8.71 2.29,0.74 6.44,0.47 8.60,0.58 2.29,-1.00 3.65,-3.01 4.66,-4.66 6.78,-11.10 32.84,-56.41 39.35,-68.38 1.37,-2.10 1.83,-3.54 0.38,-5.02 -1.48,-1.49 -2.95,-1.95 -6.16,-1.95 z m 36.74,0.01 c 0.20,0.01 0.40,0.01 0.60,0.01 -1.19,0.12 -3.52,1.83 -21.90,16.06 -8.62,6.67 -16.13,12.58 -19.30,15.16 -1.80,1.10 -2.44,3.22 -1.37,4.96 0.60,0.91 36.14,37.69 39.39,40.77 3.69,3.50 8.17,4.81 12.26,3.58 5.46,-1.63 6.47,-7.28 2.07,-11.54 0.85,0.82 -10.39,-9.81 -21.22,-19.97 -14.08,-13.22 -19.68,-18.67 -19.68,-19.16 0,0.51 4.12,-4.03 16.65,-14.23 9.74,-7.93 16.65,-13.77 16.65,-14.08 0,0.72 -1.54,-1.49 -2.96,-1.56 z m -94.81,0.01 c -1.79,0.07 -3.14,0.30 -4.24,0.76 -2.94,1.43 -3.51,3.03 -2.31,5.02 1.31,2.12 4.41,5.99 10.72,13.88 6.33,7.91 11.79,14.78 12.14,15.28 0.91,1.28 1.08,3.10 0.42,4.38 0.30,0.58 -6.00,8.71 -12.67,18.08 C 36.18,133.72 36,134.00 36,135.13 c 0,1.01 0.79,2.20 1.71,2.57 1.29,0.52 3.50,0.34 4.80,0.41 1.06,0.61 3.68,-4.32 17.12,-24.27 8.73,-12.95 16.02,-24.09 16.20,-24.74 0.25,0.91 0.23,-1.44 0.11,-2.26 C 75.12,84.58 57.76,65.14 52.00,59.28 c -1.84,-2.29 -4.38,-2.33 -6.12,-2.26 z"/>
  <path style="opacity:0.20;fill:#ffffff" d="M 46 16 C 29.38 16 16 29.38 16 46 L 16 47 C 16 30.38 29.38 17 46 17 L 146 17 C 162.62 17 176 30.38 176 47 L 176 46 C 176 29.38 162.62 16 146 16 L 46 16 z "/>
  <path style="fill:#fb7617" d="m 149.18,135.55 c 5.46,-1.63 6.47,-7.28 2.07,-11.54 0.85,0.82 -10.39,-9.80 -21.22,-19.97 -14.08,-13.22 -19.68,-18.67 -19.68,-19.16 0,0.51 4.12,-4.03 16.65,-14.24 9.74,-7.93 16.65,-13.77 16.65,-14.08 0,0.83 -2.02,-1.70 -3.56,-1.55 -1.19,0.12 -3.52,1.83 -21.90,16.06 -8.62,6.67 -16.13,12.58 -19.30,15.16 -1.80,1.10 -2.44,3.22 -1.37,4.95 0.60,0.91 36.14,37.69 39.39,40.77 3.69,3.50 8.17,4.81 12.26,3.59 z"/>
  <path style="fill:#ffffff" d="m 65.72,135.00 c 2.29,-1.00 3.65,-3.01 4.66,-4.66 6.78,-11.10 32.84,-56.41 39.35,-68.38 1.37,-2.10 1.83,-3.54 0.38,-5.02 -1.48,-1.49 -2.95,-1.95 -6.16,-1.95 -2.63,0.01 -4.45,0.64 -5.61,1.95 -1.08,1.22 -45.60,68.93 -45.97,69.92 -1.28,3.39 0.94,7.47 4.76,8.71 2.29,0.74 6.44,0.47 8.60,0.58 z"/>
  <path style="fill:#ffffff" d="m 42.51,135.29 c 1.06,0.61 3.68,-4.32 17.12,-24.27 8.73,-12.95 16.02,-24.09 16.20,-24.74 0.25,0.91 0.23,-1.44 0.11,-2.26 0.60,-1.44 -17.95,-20.87 -23.72,-26.74 -1.84,-2.29 -4.38,-2.33 -6.12,-2.26 -1.79,0.07 -3.14,0.30 -4.24,0.76 -2.94,1.43 -3.51,3.04 -2.31,5.02 1.31,2.12 4.41,5.99 10.72,13.88 6.33,7.91 11.79,14.78 12.14,15.28 0.91,1.28 1.08,3.10 0.43,4.38 0.30,0.58 -6.00,8.71 -12.67,18.08 C 36.18,131.72 36,132.00 36,133.13 c 0,1.01 0.79,2.20 1.71,2.57 1.29,0.52 3.50,0.34 4.80,0.41 z"/>
</svg>
