<?xml version='1.0' encoding='utf-8'?>
<svg xmlns="http://www.w3.org/2000/svg" version="1.1" width="192" height="192" id="svg6">
  <defs>
    <filter style="color-interpolation-filters:sRGB" id="filter2327" x="0.05" y="0.05" width="1.10" height="1.10">
      <feGaussianBlur stdDeviation="3.20"/>
    </filter>
    <filter style="color-interpolation-filters:sRGB" id="filter2417" x="0.03" y="0.08" width="1.07" height="1.17">
      <feGaussianBlur stdDeviation="1.84"/>
    </filter>
  </defs>
  <rect style="filter:url(#filter2327);opacity:0.20;fill:#000000;stop-color:#000000" width="160" height="160" x="16" y="20" rx="20" ry="20"/>
  <rect style="fill:#e4e4e4;stop-color:#000000" width="160" height="160" x="16" y="16" rx="20" ry="20"/>
  <path style="filter:url(#filter2417);opacity:0.15;fill:#000000" d="M 63,71 V 96.83 C 63,91.39 59.54,83 46.98,83 37.72,83 30,86.92 30,98.74 30,108.10 35.19,114 47.22,114 c 14.16,0 15.07,-9 15.07,-9 h -6.86 c 0,0 -1.47,5 -8.62,5 -5.83,0 -10.02,-4.50 -10.02,-10 H 63 v 13 h 6.48 c 0,0 0.23,-2.17 0.23,-4.10 0,0 3.20,5.10 11.90,5.10 C 90.77,114 97,107.52 97,98.24 97,89.61 91.28,83 81.63,83 72.59,83 70,87.63 70,87.63 V 71 Z m 50.67,12 c -13.68,0 -14.56,7.79 -14.56,9 h 6.81 c 0,0 0.36,-5 7.28,-5 4.50,0 7.31,2.47 7.79,6.44 V 95 h -7.79 C 102.60,95 97,97.99 97,104.34 97,110.60 102.18,114 109.18,114 c 9.54,0 12.74,-5.32 12.74,-5.32 0,2.12 0.16,4.20 0.16,4.20 H 128 c 0,0 0.23,-2.58 0.23,-4.24 V 94.35 c 0,-1.94 0.32,-3.55 0.89,-4.90 L 139.25,112.85 133.42,124 h 7.37 L 161,84 h -7.02 L 142.88,106.47 131.75,84 H 124 l 2.07,3.92 C 123.49,84.00 118.36,83 113.67,83 Z M 46.74,87 C 52.25,87 56,90.60 56,96 H 37 c 0,-5.73 4.90,-9 9.74,-9 z M 80,87 c 6.11,0 10,4.87 10,11.41 C 90,105.41 85.51,110 80.04,110 73.52,110 70,104.53 70,98.47 70,92.82 73.16,87 80,87 Z m 41,12 v 1.80 C 121,103.15 119.52,109 110.81,109 106.04,109 104,106.66 104,103.96 104,99.03 110.88,99 121,99 Z"/>
  <path style="fill:#f59c02" d="m 113.67,81 c -13.68,0 -14.56,7.79 -14.56,9 h 6.81 c 0,0 0.36,-5 7.28,-5 4.50,0 7.31,2.47 7.79,6.44 V 93 h -7.79 C 102.60,93 97,95.99 97,102.34 97,108.60 102.18,112 109.18,112 c 9.54,0 12.74,-5.32 12.74,-5.32 0,2.12 0.16,4.20 0.16,4.20 H 128 c 0,0 0.23,-2.58 0.23,-4.24 V 92.35 C 127.77,82.97 120.28,81 113.67,81 Z M 121,97 v 1.80 C 121,101.15 119.52,107 110.81,107 106.04,107 104,104.66 104,101.96 104,97.03 110.88,97 121,97 Z"/>
  <path style="fill:#006fea" d="m 63,69 v 42 h 6.48 c 0,0 0.23,-2.17 0.23,-4.10 0,0 3.20,5.10 11.90,5.10 C 90.77,112 97,105.52 97,96.24 97,87.61 91.28,81 81.63,81 72.59,81 70,85.63 70,85.63 V 69 Z m 17,16 c 6.11,0 10,4.87 10,11.41 C 90,103.41 85.51,108 80.04,108 73.52,108 70,102.53 70,96.47 70,90.82 73.16,85 80,85 Z"/>
  <path style="fill:#e74348" d="M 46.98,81 C 37.72,81 30,84.92 30,96.74 30,106.10 35.19,112 47.22,112 c 14.16,0 15.07,-9 15.07,-9 h -6.86 c 0,0 -1.47,5 -8.62,5 -5.83,0 -10.02,-4.50 -10.02,-10 H 63 V 94.83 C 63,89.39 59.54,81 46.98,81 Z m 0.24,4 C 52.25,85 56,88.60 56,94 H 37 c 0,-5.73 4.90,-9 9.74,-9 z"/>
  <path style="fill:#7fb013" d="m 124,82 h 7.75 L 142.88,104.47 153.98,82 H 161 l -20.22,40 h -7.37 l 5.83,-11.15 z"/>
  <path style="opacity:0.20;fill:#ffffff;stop-color:#000000" d="M 36,16 C 24.92,16 16,24.92 16,36 v 1 C 16,25.92 24.92,17 36,17 h 120 c 11.08,0 20,8.92 20,20 v -1 c 0,-11.08 -8.92,-20 -20,-20 z"/>
</svg>
