<?xml version='1.0' encoding='utf-8'?>
<svg xmlns="http://www.w3.org/2000/svg" width="192" height="192" version="1" id="svg18">
  <defs>
    <filter style="color-interpolation-filters:sRGB" id="filter859" x="0.05" width="1.10" y="0.05" height="1.10">
      <feGaussianBlur stdDeviation="3.20"/>
    </filter>
    <filter style="color-interpolation-filters:sRGB" id="filter885" x="0.05" width="1.10" y="0.04" height="1.09">
      <feGaussianBlur stdDeviation="1.20"/>
    </filter>
    <filter style="color-interpolation-filters:sRGB" id="filter898" x="0.02" width="1.04" y="0.04" height="1.07">
      <feGaussianBlur stdDeviation="0.91"/>
    </filter>
  </defs>
  <rect style="filter:url(#filter859);opacity:0.20;fill:#000000" width="160" height="160" x="-180" y="-176" rx="80" ry="80" transform="matrix(0,-1,-1,0,0,0)"/>
  <rect transform="matrix(0,-1,-1,0,0,0)" ry="80" rx="80" y="-176" x="-176" height="160" width="160" style="fill:#e4e4e4"/>
  <path style="opacity:0.20;fill:#ffffff" d="M 96 16 C 51.68 16 16.01 51.68 16.01 96 C 16.01 96.34 16.01 96.67 16.01 97 C 16.01 52.68 51.68 17 96 17 C 140.32 17 175.99 52.68 175.99 97 C 175.99 96.67 175.99 96.34 175.99 96 C 175.99 51.68 140.32 16 96 16 z "/>
  <rect transform="matrix(0,-1,-1,0,0,0)" ry="60" rx="60" y="-156" x="-156" height="120" width="120" style="fill:#3f3f3f"/>
  <path d="M 79.07,68.00 A 6.90,7.07 0 0 0 72,75.06 v 49.88 a 6.90,7.07 0 0 0 10.35,6.11 l 21.11,-12.46 21.10,-12.48 a 6.90,7.07 0 0 0 0,-12.22 L 103.46,81.42 82.35,68.96 a 6.90,7.07 0 0 0 -3.28,0.96 z" style="filter:url(#filter885);opacity:0.20"/>
  <path d="M 79.07,64.00 A 6.90,7.07 0 0 0 72,71.06 v 49.88 a 6.90,7.07 0 0 0 10.35,6.11 l 21.11,-12.46 21.10,-12.48 a 6.90,7.07 0 0 0 0,-12.22 L 103.46,77.42 82.35,64.96 a 6.90,7.07 0 0 0 -3.28,0.96 z" style="fill:#23cbcb"/>
  <path style="opacity:0.20;fill:#ffffff" d="M 79.07 64 A 6.90 7.07 0 0 0 72 71.06 L 72 72.06 A 6.90 7.07 0 0 1 79.07 65 A 6.90 7.07 0 0 1 82.35 65.96 L 103.46 78.42 L 124.56 90.90 A 6.90 7.07 0 0 1 127.97 96.54 A 6.90 7.07 0 0 0 124.56 89.90 L 103.46 77.42 L 82.35 64.96 A 6.90 7.07 0 0 0 79.07 64 z "/>
  <path style="filter:url(#filter898);opacity:0.20;fill:#000000" d="M 96 36 C 62.76 36 36 62.76 36 96 C 36 96.34 36.02 96.67 36.03 97 C 36.56 64.23 63.10 38 96 38 C 128.90 38 155.44 64.23 155.97 97 C 155.98 96.67 156 96.34 156 96 C 156 62.76 129.24 36 96 36 z "/>
</svg>
