<?xml version='1.0' encoding='utf-8'?>
<svg xmlns="http://www.w3.org/2000/svg" width="192" height="192" version="1" id="svg28">
  <defs>
    <filter style="color-interpolation-filters:sRGB" id="filter3371" x="0.05" y="0.05" width="1.10" height="1.10">
      <feGaussianBlur stdDeviation="3.20"/>
    </filter>
    <filter style="color-interpolation-filters:sRGB" id="filter3459" x="0.05" y="0.05" width="1.10" height="1.09">
      <feGaussianBlur stdDeviation="3.07"/>
    </filter>
    <filter style="color-interpolation-filters:sRGB" id="filter3519" x="0.07" y="0.07" width="1.15" height="1.15">
      <feGaussianBlur stdDeviation="3.62"/>
    </filter>
  </defs>
  <rect transform="matrix(0,-1,-1,0,0,0)" ry="18" rx="18" y="-176" x="-180" height="160" width="160" style="filter:url(#filter3371);opacity:0.20;fill:#000000"/>
  <rect transform="matrix(0,-1,-1,0,0,0)" ry="18" rx="18" y="-176" x="-176" height="160" width="160" style="fill:#515151"/>
  <path style="filter:url(#filter3459);opacity:0.20;fill:#000000" d="m 121,18 c 10.60,11.11 37.70,39.12 26.17,63.48 l 3.64,20.85 C 156.69,91.94 162.80,79.21 163,63.58 163.16,50.52 159.07,35.43 148.53,18 Z M 61.58,31 C 48.52,30.84 33.43,34.93 16,45.47 V 73 C 27.11,62.40 55.12,35.30 79.48,46.83 L 100.32,43.19 C 89.94,37.31 77.21,31.20 61.58,31 Z M 41.19,93.68 C 35.31,104.06 29.20,116.79 29,132.42 28.84,145.48 32.93,160.57 43.47,178 H 71 C 60.40,166.89 33.30,138.88 44.83,114.52 Z"/>
  <path style="fill:#c172e9" d="m 121,16 h 27.52 C 159.07,33.43 163.16,48.52 163,61.58 162.80,77.21 156.69,89.94 150.81,100.32 L 147.17,79.48 C 158.69,55.12 131.60,27.11 121,16 Z"/>
  <path style="fill:#28a8d9" d="M 71,176 H 43.48 C 32.93,158.57 28.84,143.48 29,130.42 29.20,114.79 35.31,102.06 41.19,91.68 l 3.64,20.85 C 33.31,136.88 60.40,164.89 71,176 Z"/>
  <path style="fill:#b4e228" d="M 16,71 V 43.48 C 33.43,32.93 48.52,28.84 61.58,29 77.21,29.20 89.94,35.31 100.32,41.19 L 79.48,44.83 C 55.12,33.31 27.11,60.40 16,71 Z"/>
  <path style="filter:url(#filter3519);opacity:0.20;fill:#000000" d="M 96,40 A 58,58 0 0 0 38,98 58,58 0 0 0 96,156 58,58 0 0 0 154,98 58,58 0 0 0 96,40 Z m 6,11 a 44,44 0 0 1 44,44 44,44 0 0 1 -44,44 44,44 0 0 1 -44,-44 44,44 0 0 1 44,-44 z m 0,35 a 9,9 0 0 0 -9,9 9,9 0 0 0 9,9 9,9 0 0 0 9,-9 9,9 0 0 0 -9,-9 z"/>
  <path style="fill:#ffffff" d="M 96 38 A 58 58 0 0 0 38 96 A 58 58 0 0 0 96 154 A 58 58 0 0 0 154 96 A 58 58 0 0 0 96 38 z M 102 49 A 44 44 0 0 1 146 93 A 44 44 0 0 1 102 137 A 44 44 0 0 1 58 93 A 44 44 0 0 1 102 49 z M 102 84 A 9 9 0 0 0 93 93 A 9 9 0 0 0 102 102 A 9 9 0 0 0 111 93 A 9 9 0 0 0 102 84 z "/>
  <path style="opacity:0.10;fill:#ffffff" d="M 34 16 C 24.03 16 16 24.03 16 34 L 16 35 C 16 25.03 24.03 17 34 17 L 158 17 C 167.97 17 176 25.03 176 35 L 176 34 C 176 24.03 167.97 16 158 16 L 34 16 z "/>
</svg>
