<svg xmlns="http://www.w3.org/2000/svg" id="svg28" width="192" height="192" version="1"><defs><filter style="color-interpolation-filters:sRGB" id="filter6495" width="1.1" height="1.1" x=".05" y=".05"><feGaussianBlur stdDeviation="3.2"/></filter><filter style="color-interpolation-filters:sRGB" id="filter42257" width="1.15" height="1.15" x=".08" y=".08"><feGaussianBlur stdDeviation="3.24"/></filter><filter style="color-interpolation-filters:sRGB" id="filter42261" width="1.15" height="1.15" x=".07" y=".07"><feGaussianBlur stdDeviation="2.38"/></filter><filter style="color-interpolation-filters:sRGB" id="filter42303" width="1.18" height="1.18" x=".09" y=".09"><feGaussianBlur stdDeviation="4.56"/></filter><filter style="color-interpolation-filters:sRGB" id="filter42345" width="1.2" height="1.2" x=".1" y=".1"><feGaussianBlur stdDeviation="6.07"/></filter></defs><rect width="160" height="160" x="-180" y="-176" rx="12" ry="12" transform="matrix(0,-1,-1,0,0,0)" style="filter:url(#filter6495);opacity:.2;fill:#000"/><rect width="160" height="160" x="-176" y="-176" rx="12" ry="12" transform="matrix(0,-1,-1,0,0,0)" style="fill:#3ac3d3"/><path style="filter:url(#filter42345);opacity:.2;fill:#000" d="M 44.50,22.03 C 33.74,37.99 24.04,52.76 24,72 c 0,53.57 43.43,97 97,97 19.66,0.06 33.41,-7.47 49.56,-18.69 L 131.89,75.93 C 128.83,70.04 121.54,47.88 115.24,45.77 Z"/><path style="fill:#6fd5e1" d="M 40.56 16 A 97 97 0 0 0 24 70 A 97 97 0 0 0 121 167 A 97 97 0 0 0 176 149.69 L 176 28 C 176 21.35 170.65 16 164 16 L 40.56 16 z"/><path style="filter:url(#filter42303);opacity:.2;fill:#000" d="M 78.06,22.99 C 62.79,36.80 48.04,51.42 48,72 c 0,40.32 32.68,73 73,73 21.09,0.01 35.24,-11.50 49.10,-27.40 L 127.26,59.33 c -3.94,-5.36 14.16,-16.71 7.81,-18.68 z"/><path style="fill:#83e6e8" d="M 72.03 16 A 73 73 0 0 0 48 70 A 73 73 0 0 0 121 143 A 73 73 0 0 0 176 117.97 L 176 28 C 176 21.35 170.65 16 164 16 L 72.03 16 z"/><path style="filter:url(#filter42257);opacity:.2;fill:#000" d="M 134.91,20.09 115.63,31.22 94.13,25.46 88.37,46.96 69.09,58.09 80.22,77.37 74.46,98.87 95.96,104.63 107.09,123.91 l 19.28,-11.13 21.50,5.76 5.76,-21.50 19.28,-11.13 -11.13,-19.28 5.76,-21.50 -21.50,-5.76 z"/><path style="fill:#ff8e2b" d="M 134.91 18.09 L 115.63 29.22 L 94.13 23.46 L 88.37 44.96 L 69.09 56.09 L 80.22 75.37 L 74.46 96.87 L 95.96 102.63 L 107.09 121.91 L 126.37 110.78 L 147.87 116.54 L 153.63 95.04 L 172.91 83.91 L 161.78 64.63 L 167.54 43.13 L 146.04 37.37 L 134.91 18.09 z"/><circle style="filter:url(#filter42261);opacity:.2;fill:#000" cx="121" cy="72" r="38"/><circle style="fill:#ffcf66" cx="121" cy="70" r="38"/><path style="opacity:.2;fill:#fff" d="m 28,16 c -6.65,0 -12,5.35 -12,12 v 1 c 0,-6.65 5.35,-12 12,-12 h 136 c 6.65,0 12,5.35 12,12 v -1 c 0,-6.65 -5.35,-12 -12,-12 z"/><path style="opacity:.2;fill:#fff" d="M 121 32 A 38 38 0 0 0 83 70 A 38 38 0 0 0 83.04 70.50 A 38 38 0 0 1 121 33 A 38 38 0 0 1 158.98 70.25 A 38 38 0 0 0 159 70 A 38 38 0 0 0 121 32 z"/></svg>