<?xml version='1.0' encoding='utf-8'?>
<svg xmlns="http://www.w3.org/2000/svg" width="192" height="192" version="1.1" id="svg30">
  <defs>
    <filter style="color-interpolation-filters:sRGB" id="filter881" x="0.04" y="0.07" width="1.08" height="1.13">
      <feGaussianBlur stdDeviation="1.88"/>
    </filter>
    <filter style="color-interpolation-filters:sRGB" id="filter885" x="0.05" y="0.05" width="1.09" height="1.10">
      <feGaussianBlur stdDeviation="2.64"/>
    </filter>
    <filter style="color-interpolation-filters:sRGB" id="filter1057" x="0.03" y="0.08" width="1.07" height="1.15">
      <feGaussianBlur stdDeviation="1.28"/>
    </filter>
  </defs>
  <path style="filter:url(#filter885);opacity:0.20" d="M 112,20 C 92.02,20.01 74.63,32.88 68.44,51.41 A 22,22 0 0 0 52,44 22,22 0 0 0 30,66 22,22 0 0 0 36.55,81.64 18,18 0 0 0 26,98 a 18,18 0 0 0 0.34,3.43 c 0.03,0.16 0.07,0.32 0.11,0.48 a 18,18 0 0 0 0.90,2.89 c 0.07,0.18 0.16,0.35 0.23,0.52 A 18,18 0 0 0 29,107.94 c 0.07,0.11 0.16,0.21 0.23,0.32 a 18,18 0 0 0 1.99,2.41 c 0.06,0.06 0.12,0.11 0.18,0.16 a 18,18 0 0 0 2.49,2.06 c 0.05,0.03 0.11,0.06 0.16,0.09 a 18,18 0 0 0 2.81,1.52 c 0.09,0.04 0.18,0.07 0.27,0.11 a 18,18 0 0 0 3.16,0.98 c 0.03,0.01 0.05,0.02 0.08,0.02 A 18,18 0 0 0 44,116 a 18,18 0 0 0 6,-1.05 v 20.73 C 50,140.29 53.43,144 57.69,144 h 72.62 c 4.26,0 7.69,-3.71 7.69,-8.33 v -18.71 c 2.96,1.98 6.44,3.04 10,3.04 9.94,0 18,-8.06 18,-18 C 165.99,94.32 161.11,87.49 153.84,85 156.57,79.04 157.98,72.56 158,66 158,40.59 137.41,20 112,20 Z"/>
  <path style="filter:url(#filter881);opacity:0.20" d="m 50,112 c -6.65,0 -12,5.35 -12,12 v 47.50 c 0,4.71 3.35,8.50 7.50,8.50 h 16.50 24 24 24 16.50 c 4.16,0 7.50,-3.79 7.50,-8.50 V 124 c 0,-6.65 -5.35,-12 -12,-12 -6.65,0 -12,5.35 -12,12 v 8 c 0,-6.65 -5.35,-12 -12,-12 -6.65,0 -12,5.35 -12,12 v 4 c 0,-6.65 -5.35,-12 -12,-12 -6.65,0 -12,5.35 -12,12 v -4 c 0,-6.65 -5.35,-12 -12,-12 -6.65,0 -12,5.35 -12,12 v -8 c 0,-6.65 -5.35,-12 -12,-12 z"/>
  <path style="fill:#e6c59a" d="M 112,16 C 92.02,16.01 74.63,28.88 68.44,47.41 A 22,22 0 0 0 52,40 22,22 0 0 0 30,62 22,22 0 0 0 36.55,77.64 18,18 0 0 0 26,94 a 18,18 0 0 0 0.34,3.43 c 0.03,0.16 0.07,0.32 0.11,0.48 a 18,18 0 0 0 0.90,2.89 c 0.07,0.18 0.16,0.35 0.23,0.52 A 18,18 0 0 0 29,103.94 c 0.07,0.11 0.16,0.21 0.23,0.32 a 18,18 0 0 0 1.99,2.41 c 0.06,0.06 0.12,0.11 0.18,0.16 a 18,18 0 0 0 2.49,2.06 c 0.05,0.03 0.11,0.06 0.16,0.09 a 18,18 0 0 0 2.81,1.52 c 0.09,0.04 0.18,0.07 0.27,0.11 a 18,18 0 0 0 3.16,0.98 c 0.03,0.01 0.05,0.02 0.08,0.02 A 18,18 0 0 0 44,112 a 18,18 0 0 0 6,-1.05 v 20.73 C 50,136.29 53.43,140 57.69,140 h 72.62 c 4.26,0 7.69,-3.71 7.69,-8.33 v -18.71 c 2.96,1.98 6.44,3.04 10,3.04 9.94,0 18,-8.06 18,-18 C 165.99,90.32 161.11,83.49 153.84,81 156.57,75.04 157.98,68.56 158,62 158,36.59 137.41,16 112,16 Z"/>
  <path style="filter:url(#filter1057);opacity:0.20;fill:#000000" d="M 66,70 A 12,12 0 0 0 54,82 12,12 0 0 0 66,94 12,12 0 0 0 78,82 12,12 0 0 0 66,70 Z m 64,0 A 12,12 0 0 0 118,82 12,12 0 0 0 130,94 12,12 0 0 0 142,82 12,12 0 0 0 130,70 Z M 82,94 c 0,8.84 7.16,16 16,16 8.84,0 16,-7.16 16,-16 z"/>
  <circle style="fill:#3f3f3f" cx="66" cy="80" r="12"/>
  <circle style="fill:#3f3f3f" cx="130" cy="80" r="12"/>
  <path style="fill:#a81a1a" d="m 114,92 c 0,8.84 -7.16,16 -16,16 -8.84,0 -16,-7.16 -16,-16 z"/>
  <circle style="fill:#ffffff" cx="70" cy="76" r="4"/>
  <circle style="fill:#ffffff" cx="134" cy="76" r="4"/>
  <path style="fill:#e54b3f" d="m 146,108 c -6.65,0 -12,5.35 -12,12 v 56 h 16.50 c 4.16,0 7.50,-3.79 7.50,-8.50 V 120 c 0,-6.65 -5.35,-12 -12,-12 z"/>
  <path style="fill:#e54b3f" d="m 50,108 c -6.65,0 -12,5.35 -12,12 v 47.50 c 0,4.71 3.35,8.50 7.50,8.50 H 62 v -56 c 0,-6.65 -5.35,-12 -12,-12 z"/>
  <path style="fill:#ffffff" d="m 74,116 c -6.65,0 -12,5.35 -12,12 v 48 h 24 v -48 c 0,-6.65 -5.35,-12 -12,-12 z"/>
  <path style="fill:#e54b3f" d="m 98,120 c -6.65,0 -12,5.35 -12,12 v 44 h 24 v -44 c 0,-6.65 -5.35,-12 -12,-12 z"/>
  <path style="fill:#ffffff" d="m 122,116 c -6.65,0 -12,5.35 -12,12 v 48 h 24 v -48 c 0,-6.65 -5.35,-12 -12,-12 z"/>
  <path style="opacity:0.20;fill:#ffffff" d="M 112 16 C 92.02 16.01 74.63 28.88 68.44 47.41 A 22 22 0 0 0 52 40 A 22 22 0 0 0 30 62 A 22 22 0 0 0 30.05 62.53 A 22 22 0 0 1 52 41 A 22 22 0 0 1 68.44 48.41 C 74.63 29.88 92.02 17.01 112 17 C 137.23 17 157.70 37.31 157.99 62.47 C 157.99 62.31 158.00 62.16 158 62 C 158 36.59 137.41 16 112 16 z M 36.01 77.99 A 18 18 0 0 0 26 94 A 18 18 0 0 0 26.06 94.59 A 18 18 0 0 1 36.55 78.64 A 22 22 0 0 1 36.01 77.99 z M 154.21 81.14 C 154.09 81.43 153.97 81.72 153.84 82 C 160.93 84.43 165.74 90.99 165.98 98.45 C 165.98 98.30 166 98.15 166 98 C 165.99 90.45 161.27 83.74 154.21 81.14 z "/>
</svg>
