<?xml version='1.0' encoding='utf-8'?>
<svg xmlns="http://www.w3.org/2000/svg" width="192" height="192" version="1" id="svg24">
  <defs>
    <filter style="color-interpolation-filters:sRGB" id="filter868" x="0.05" width="1.10" y="0.05" height="1.10">
      <feGaussianBlur stdDeviation="3.20"/>
    </filter>
    <filter style="color-interpolation-filters:sRGB" id="filter898" x="0.05" width="1.10" y="0.05" height="1.10">
      <feGaussianBlur stdDeviation="2.40"/>
    </filter>
    <filter style="color-interpolation-filters:sRGB" id="filter934" x="0.05" width="1.11" y="0.04" height="1.09">
      <feGaussianBlur stdDeviation="0.88"/>
    </filter>
  </defs>
  <circle style="filter:url(#filter868);opacity:0.20;fill:#000000" cx="96" cy="100" r="80"/>
  <path d="M 176,96 C 175.70,77.59 122.94,16.30 96,16 51.68,16 16,51.68 16,96 c 0,44.32 35.68,80 80,80 44.32,0 80,-35.68 80,-80 z" style="fill:#00b3f9"/>
  <path d="m 96,16 v 80 h 80 C 176,51.68 140.32,16 96,16 Z" style="fill:#ffad0f"/>
  <path style="opacity:0.10;fill:#ffffff" d="M 96 16 C 51.68 16 16.01 51.68 16.01 96 C 16.01 96.34 16.01 96.67 16.01 97 C 16.01 52.68 51.68 17 96 17 C 140.32 17 175.99 52.68 175.99 97 C 175.99 96.67 175.99 96.34 175.99 96 C 175.99 51.68 140.32 16 96 16 z "/>
  <rect transform="matrix(0,-1,-1,0,0,0)" ry="60" rx="60" y="-156" x="-160" height="120" width="120" style="filter:url(#filter898);opacity:0.20;fill:#000000"/>
  <rect transform="matrix(0,-1,-1,0,0,0)" ry="60" rx="60" y="-156" x="-156" height="120" width="120" style="fill:#e4e4e4"/>
  <path style="opacity:0.20;fill:#ffffff" d="M 96 36 C 62.76 36 36 62.76 36 96 C 36 96.13 36.01 96.25 36.02 96.37 C 36.35 63.42 62.97 37 96 37 C 129.03 37 155.65 63.42 155.98 96.37 C 155.99 96.25 156 96.13 156 96 C 156 62.76 129.24 36 96 36 z "/>
  <circle r="40" cy="96" cx="96" style="fill:#4d4d4d"/>
  <path d="M 120,100 100.00,112 80.00,124 V 100.00 76.00 l 20.00,12 z" style="filter:url(#filter934);opacity:0.10"/>
  <path d="M 120,96.00 100.00,108 80.00,120 V 96.00 72.00 l 20.00,12 z" style="fill:#ffffff"/>
</svg>
