<?xml version='1.0' encoding='utf-8'?>
<svg xmlns="http://www.w3.org/2000/svg" width="192" height="192" version="1" id="svg20">
  <defs>
    <filter style="color-interpolation-filters:sRGB" id="filter859" x="-0.048000001" width="1.096" y="-0.048000001" height="1.096">
      <feGaussianBlur stdDeviation="3.2"/>
    </filter>
    <filter style="color-interpolation-filters:sRGB" id="filter882" x="-0.043999958" width="1.0879999" y="-0.052800063" height="1.1056001">
      <feGaussianBlur stdDeviation="1.7599983"/>
    </filter>
  </defs>
  <rect style="filter:url(#filter859);opacity:0.2;fill:#000000" width="160" height="160" x="-180" y="-176" rx="80" ry="80" transform="matrix(0,-1,-1,0,0,0)"/>
  <rect transform="matrix(0,-1,-1,0,0,0)" ry="80" rx="80" y="-176" x="-176" height="160" width="160" style="fill:#ff395d"/>
  <path d="M 57.093752,60.002756 C 52.109756,59.883956 48.001236,63.871268 48,68.83088 v 62.33594 c 0.008,6.79054 7.398008,11.03054 13.3125,7.64062 L 96,115.86994 l 34.6875,22.9375 c 5.91449,3.38992 13.3045,-0.85008 13.3125,-7.64062 V 68.83088 c -0.001,-4.959612 -4.10976,-8.946924 -9.09375,-8.828124 -1.48497,0.0418 -2.93525,0.458976 -4.21875,1.203124 L 96,84.135568 61.3125,61.20588 c -1.283496,-0.744148 -2.733776,-1.161336 -4.218748,-1.203124 z" style="filter:url(#filter882);opacity:0.2"/>
  <path style="opacity:0.2;fill:#ffffff" d="m 96,16 c -44.316,0 -79.992188,35.68 -79.992188,80 0,0.33544 0.002,0.667215 0,1 C 16.007812,52.68 51.684,17 96,17 c 44.316,0 79.99219,35.68 79.99219,80 -0.002,-0.332785 0,-0.66456 0,-1 C 175.99219,51.68 140.316,16 96,16 Z"/>
  <path d="M 57.093752,56 C 52.109756,55.8812 48.001236,59.868512 48,64.828124 V 96 127.16406 c 0.008,6.79054 7.398008,11.03054 13.3125,7.64063 L 96,111.86719 l 34.6875,22.9375 C 136.60199,138.1946 143.992,133.9546 144,127.16406 V 96 64.828124 C 143.99876,59.868512 139.89024,55.8812 134.90625,56 c -1.48497,0.0418 -2.93525,0.458976 -4.21875,1.203124 L 96,80.132812 61.3125,57.203124 C 60.029004,56.458976 58.578724,56.041788 57.093752,56 Z" style="fill:#ffe7ec"/>
  <path d="M 95.898436,80.070312 72,96 48,112 v 15.16406 c 0.008,6.79054 7.398008,11.03054 13.3125,7.64063 L 96,111.86719 l 34.6875,22.9375 C 136.60199,138.1946 143.992,133.9546 144,127.16406 V 112 L 120,96 96.101564,80.070312 96,80.132812 Z" style="fill:#ffc4cf"/>
  <path d="M 57.093752,56 C 52.109752,55.8812 48.001236,59.868512 48,64.828124 V 80 L 72,96 95.898436,111.92969 96,111.86719 96.101564,111.92969 120,96 144,80 V 64.828124 C 143.99876,59.868512 139.89024,55.8812 134.90625,56 c -1.48497,0.0418 -2.93525,0.458976 -4.21875,1.203124 L 96,80.132812 61.3125,57.203124 C 60.029004,56.458976 58.57872,56.041788 57.093752,56 Z" style="fill:#ffffff"/>
  <rect transform="matrix(0.83205029,0.5547002,-0.83205029,0.5547002,0,0)" y="14.44" x="129.8" height="28.844" width="28.844" style="fill:#ffe7ec"/>
</svg>
