<?xml version='1.0' encoding='utf-8'?>
<svg xmlns="http://www.w3.org/2000/svg" width="192" height="192" version="1" id="svg14">
  <defs>
    <filter style="color-interpolation-filters:sRGB" id="filter850" x="0.05" width="1.10" y="0.05" height="1.10">
      <feGaussianBlur stdDeviation="3.20"/>
    </filter>
    <filter style="color-interpolation-filters:sRGB" id="filter36798" x="0.08" y="0.07" width="1.16" height="1.14">
      <feGaussianBlur stdDeviation="3.02"/>
    </filter>
  </defs>
  <circle style="filter:url(#filter850);opacity:0.20;fill:#000000" cx="96" cy="100" r="80"/>
  <circle r="80" cy="96" cx="96" style="fill:#e4e4e4"/>
  <path style="filter:url(#filter36798);opacity:0.20;fill:#000000;color:#000000" d="M 62.87,47.01 A 3.10,3.05 0 0 0 60,50.05 v 12.95 12.95 a 3.10,3.05 0 0 0 4.65,2.64 l 11.40,-6.47 11.40,-6.47 a 3.10,3.05 0 0 0 0,-5.29 L 76.05,53.88 64.65,47.41 a 3.10,3.05 0 0 0 -1.78,0.40 z m 32,16 A 3.10,3.05 0 0 0 92,66.05 v 12.95 12.95 a 3.10,3.05 0 0 0 4.65,2.64 l 11.40,-6.47 11.40,-6.47 a 3.10,3.05 0 0 0 0,-5.29 l -11.40,-6.47 -11.40,-6.47 a 3.10,3.05 0 0 0 -1.78,0.40 z m -32,19 A 3.10,3.05 0 0 0 60,85.05 v 12.95 12.95 a 3.10,3.05 0 0 0 4.65,2.64 l 11.40,-6.47 11.40,-6.47 a 3.10,3.05 0 0 0 0,-5.29 L 76.05,88.88 64.65,82.41 a 3.10,3.05 0 0 0 -1.78,0.40 z m 64.00,0 A 3.10,3.05 0 0 0 124,85.05 v 12.95 12.95 a 3.10,3.05 0 0 0 4.65,2.64 l 11.40,-6.47 11.40,-6.47 a 3.10,3.05 0 0 0 0,-5.29 l -11.40,-6.47 -11.40,-6.47 a 3.10,3.05 0 0 0 -1.78,0.40 z m -32.00,17 A 3.10,3.05 0 0 0 92,102.05 v 12.95 12.95 a 3.10,3.05 0 0 0 4.65,2.64 l 11.40,-6.47 11.40,-6.47 a 3.10,3.05 0 0 0 0,-5.29 l -11.40,-6.47 -11.40,-6.47 a 3.10,3.05 0 0 0 -1.78,0.40 z m -32,18.00 A 3.10,3.05 0 0 0 60,120.05 v 12.95 12.95 a 3.10,3.05 0 0 0 4.65,2.64 l 11.40,-6.47 11.40,-6.47 a 3.10,3.05 0 0 0 0,-5.29 L 76.05,123.88 64.65,117.41 a 3.10,3.05 0 0 0 -1.78,0.40 z"/>
  <path style="opacity:0.20;fill:#ffffff" d="M 96 16 A 80 80 0 0 0 16 96 A 80 80 0 0 0 16.02 96.47 A 80 80 0 0 1 96 17 A 80 80 0 0 1 175.97 96.51 A 80 80 0 0 0 176 96 A 80 80 0 0 0 96 16 z "/>
  <path style="fill:#c758bb;color:#000000" d="M 62.87,80.01 A 3.10,3.05 0 0 0 60,83.05 v 12.95 12.95 a 3.10,3.05 0 0 0 4.65,2.64 l 11.40,-6.47 11.40,-6.47 a 3.10,3.05 0 0 0 0,-5.29 L 76.05,86.88 64.65,80.41 a 3.10,3.05 0 0 0 -1.78,0.40 z"/>
  <path style="fill:#ff715c;color:#000000" d="M 62.87,45.01 A 3.10,3.05 0 0 0 60,48.05 v 12.95 12.95 a 3.10,3.05 0 0 0 4.65,2.64 l 11.40,-6.47 11.40,-6.47 a 3.10,3.05 0 0 0 0,-5.29 L 76.05,51.88 64.65,45.41 a 3.10,3.05 0 0 0 -1.78,0.40 z"/>
  <path style="fill:#f5407c;color:#000000" d="M 62.87,115.01 A 3.10,3.05 0 0 0 60,118.05 v 12.95 12.95 a 3.10,3.05 0 0 0 4.65,2.64 l 11.40,-6.47 11.40,-6.47 a 3.10,3.05 0 0 0 0,-5.29 l -11.40,-6.47 -11.40,-6.47 a 3.10,3.05 0 0 0 -1.78,0.40 z"/>
  <path style="fill:#7798d6;color:#000000" d="M 94.87,61.01 A 3.10,3.05 0 0 0 92,64.05 v 12.95 12.95 a 3.10,3.05 0 0 0 4.65,2.64 l 11.40,-6.47 11.40,-6.47 a 3.10,3.05 0 0 0 0,-5.29 L 108.05,67.88 96.65,61.41 a 3.10,3.05 0 0 0 -1.78,0.40 z"/>
  <path style="fill:#fdac48;color:#000000" d="M 94.87,97.01 A 3.10,3.05 0 0 0 92,100.05 v 12.95 12.95 a 3.10,3.05 0 0 0 4.65,2.64 l 11.40,-6.47 11.40,-6.47 a 3.10,3.05 0 0 0 0,-5.29 l -11.40,-6.47 -11.40,-6.47 a 3.10,3.05 0 0 0 -1.78,0.40 z"/>
  <path style="fill:#c6357a;color:#000000" d="M 126.87,80.01 A 3.10,3.05 0 0 0 124,83.05 v 12.95 12.95 a 3.10,3.05 0 0 0 4.65,2.64 l 11.40,-6.47 11.40,-6.47 a 3.10,3.05 0 0 0 0,-5.29 l -11.40,-6.47 -11.40,-6.47 a 3.10,3.05 0 0 0 -1.78,0.40 z"/>
</svg>
