<?xml version='1.0' encoding='utf-8'?>
<svg xmlns="http://www.w3.org/2000/svg" width="192" height="192" version="1.1" id="svg12">
  <defs>
    <filter style="color-interpolation-filters:sRGB" id="filter845" x="-0.052235296" y="-0.044400001" width="1.1044706" height="1.0888">
      <feGaussianBlur stdDeviation="2.96"/>
    </filter>
    <filter style="color-interpolation-filters:sRGB" id="filter849" x="-0.041454544" y="-0.056999999" width="1.0829091" height="1.114">
      <feGaussianBlur stdDeviation="1.52"/>
    </filter>
  </defs>
  <path style="filter:url(#filter845);opacity:0.2" d="M 96.078596,18 C 58.22146,18 27.999687,30.13532 27.999687,30.13532 l 2.625173,81.82684 c 0,0 -0.08016,40.29176 65.374512,66.03784 65.534198,-25.74608 65.376068,-66.03784 65.376068,-66.03784 l 2.62362,-81.82684 C 164.15812,30.13532 133.93573,18 96.078596,18 Z"/>
  <path style="fill:#1c7fce" d="M 96.078596,14 C 58.22146,14 27.999687,26.13532 27.999687,26.13532 l 2.625173,81.82684 c 0,0 -0.08016,40.29176 65.374512,66.03784 65.534198,-25.74608 65.376068,-66.03784 65.376068,-66.03784 l 2.62362,-81.82684 C 164.15812,26.13532 133.93573,14 96.078596,14 Z"/>
  <path style="filter:url(#filter849);opacity:0.2" d="m 62.921564,56 c -7.15136,0 -10.921876,4.812848 -10.921876,12.296876 V 72 h 24 V 56 Z m 21.078124,0 V 72 H 107.99969 V 56 Z m 32.000002,0 v 16 h 24 V 68.296876 C 139.99969,60.812848 136.22917,56 129.07781,56 Z M 51.999688,80 v 16 h 24 V 80 Z m 64.000002,0 v 16 h 24 V 80 Z m -64.000002,24 v 3.70312 c 0,7.48403 3.770516,12.29688 10.921876,12.29688 h 13.078124 v -16 z m 32,0 v 16 h 24.000002 v -16 z m 32.000002,0 v 16 h 13.07812 c 7.15136,0 10.92188,-4.81285 10.92188,-12.29688 V 104 Z"/>
  <path style="fill:#ffffff" d="m 62.921564,54 c -7.15136,0 -10.921876,4.812848 -10.921876,12.296876 V 70 h 24 V 54 Z m 21.078124,0 V 70 H 107.99969 V 54 Z m 32.000002,0 v 16 h 24 V 66.296876 C 139.99969,58.812848 136.22917,54 129.07781,54 Z M 51.999688,78 v 16 h 24 V 78 Z m 64.000002,0 v 16 h 24 V 78 Z m -64.000002,24 v 3.70312 c 0,7.48403 3.770516,12.29688 10.921876,12.29688 h 13.078124 v -16 z m 32,0 v 16 h 24.000002 v -16 z m 32.000002,0 v 16 h 13.07812 c 7.15136,0 10.92188,-4.81285 10.92188,-12.29688 V 102 Z"/>
  <path style="opacity:0.2;fill:#ffffff" d="M 96.078125 14 C 58.220989 14 28 26.132812 28 26.132812 L 28.03125 27.121094 C 28.202261 27.05256 58.328519 15 96.078125 15 C 133.82402 15 163.9495 27.05021 163.96875 27.121094 L 164 26.132812 C 164.15905 26.132813 133.93526 14 96.078125 14 z "/>
</svg>
