<?xml version='1.0' encoding='utf-8'?>
<svg xmlns="http://www.w3.org/2000/svg" width="192" height="192" version="1" id="svg12">
  <defs>
    <filter style="color-interpolation-filters:sRGB" id="filter845" x="-0.048000026" y="-0.048000026" width="1.0960001" height="1.0960001">
      <feGaussianBlur stdDeviation="3.2000017"/>
    </filter>
    <filter style="color-interpolation-filters:sRGB" id="filter849" x="-0.048959987" y="-0.04707691" width="1.09792" height="1.0941538">
      <feGaussianBlur stdDeviation="2.0399996"/>
    </filter>
  </defs>
  <path style="filter:url(#filter845);opacity:0.2" d="M 35.998752,20 A 20.043692,20.07 0 0 0 16.000001,40 v 120 c 0,11 8.998189,20 19.998751,20 H 156.00125 C 167.00181,180 176,171 176,160 V 40 c 0,-11 -8.99819,-20 -19.99875,-20 z"/>
  <path style="fill:#e44332" d="M 35.998752,16 A 20.043692,20.07 0 0 0 16.000001,36 v 120 c 0,11 8.998189,20 19.998751,20 H 156.00125 C 167.00181,176 176,167 176,156 V 36 c 0,-11 -8.99819,-20 -19.99875,-20 z"/>
  <path style="filter:url(#filter849);opacity:0.2" d="m 106.83865,43.000102 a 5.054316,5.1934424 0 0 0 -2.57039,0.703108 c -0.77526,0.465548 -52.517084,31.352508 -54.243808,32.366364 -2.074084,1.220772 -4.6315,1.24146 -6.695512,0 L 16,59.585618 v 14.00746 c 6.650151,4.0244 23.188916,14.020972 27.196124,16.37458 2.391232,1.396636 4.681708,1.365096 6.992396,-0.0156 l 64.75974,-38.686512 c 1.38441,-0.827644 1.454,-3.373372 -0.10156,-4.288952 -1.55054,-0.920748 -4.48866,-2.66076 -5.5861,-3.328044 a 5.054316,5.1934424 0 0 0 -2.42195,-0.648448 z m 0,27.999288 a 5.054316,5.1934424 0 0 0 -2.57039,0.703108 c -0.77526,0.465548 -52.517084,31.352512 -54.243808,32.366362 -2.074084,1.22077 -4.6315,1.24146 -6.695512,0 L 16,87.584902 v 14.007458 c 6.650151,4.0244 23.188916,14.02098 27.196124,16.37459 2.391232,1.39663 4.681708,1.36509 6.992396,-0.0156 l 64.75974,-38.68652 c 1.38441,-0.82764 1.454,-3.373368 -0.10156,-4.288948 -1.55054,-0.920748 -4.48866,-2.66076 -5.5861,-3.328044 a 5.054316,5.1934424 0 0 0 -2.42195,-0.648448 z m 0,27.999288 a 5.054316,5.1934424 0 0 0 -2.57039,0.703102 c -0.77526,0.46555 -52.517084,31.35251 -54.243808,32.36637 -2.074084,1.22077 -4.6315,1.24146 -6.695512,0 L 16,115.58419 v 14.00746 c 6.650151,4.0244 23.188916,14.02098 27.196124,16.37458 2.391232,1.39664 4.681708,1.3651 6.992396,-0.0156 l 64.75974,-38.68651 c 1.38441,-0.82765 1.454,-3.37337 -0.10156,-4.28895 -1.55054,-0.92075 -4.48866,-2.66076 -5.5861,-3.32804 a 5.054316,5.1934424 0 0 0 -2.42195,-0.648452 z"/>
  <path style="fill:#ffffff" d="m 106.83865,40.000092 a 5.054316,5.1934424 0 0 0 -2.57039,0.703108 c -0.77526,0.465548 -52.517084,31.352508 -54.243808,32.366364 -2.074084,1.220772 -4.6315,1.24146 -6.695512,0 L 16,56.585608 v 14.00746 c 6.650151,4.0244 23.188916,14.020972 27.196124,16.37458 2.391232,1.396636 4.681708,1.365096 6.992396,-0.0156 l 64.75974,-38.686512 c 1.38441,-0.827644 1.454,-3.373372 -0.10156,-4.288952 -1.55054,-0.920748 -4.48866,-2.66076 -5.5861,-3.328044 a 5.054316,5.1934424 0 0 0 -2.42195,-0.648448 z m 0,27.999288 a 5.054316,5.1934424 0 0 0 -2.57039,0.703108 C 103.493,69.168036 51.751176,100.055 50.024452,101.06885 c -2.074084,1.22077 -4.6315,1.24146 -6.695512,0 L 16,84.584892 v 14.00746 c 6.650151,4.024398 23.188916,14.020978 27.196124,16.374588 2.391232,1.39663 4.681708,1.36509 6.992396,-0.0156 l 64.75974,-38.68652 c 1.38441,-0.82764 1.454,-3.373368 -0.10156,-4.288948 -1.55054,-0.920748 -4.48866,-2.66076 -5.5861,-3.328044 a 5.054316,5.1934424 0 0 0 -2.42195,-0.648448 z m 0,27.999288 a 5.054316,5.1934424 0 0 0 -2.57039,0.703104 C 103.493,97.16732 51.751176,128.05428 50.024452,129.06814 c -2.074084,1.22077 -4.6315,1.24146 -6.695512,0 L 16,112.58418 v 14.00746 c 6.650151,4.0244 23.188916,14.02098 27.196124,16.37458 2.391232,1.39664 4.681708,1.3651 6.992396,-0.0156 l 64.75974,-38.68651 c 1.38441,-0.82765 1.454,-3.37337 -0.10156,-4.288954 -1.55054,-0.920748 -4.48866,-2.66076 -5.5861,-3.32804 a 5.054316,5.1934424 0 0 0 -2.42195,-0.648448 z"/>
  <path style="opacity:0.2;fill:#ffffff" d="M 36 16 A 20.043692 20.07 0 0 0 16 36 L 16 37 A 20.043692 20.07 0 0 1 36 17 L 156 17 C 167.00056 17 176 26 176 37 L 176 36 C 176 25 167.00056 16 156 16 L 36 16 z "/>
</svg>
