<svg xmlns="http://www.w3.org/2000/svg" id="svg30" width="192" height="192" version="1"><defs><filter style="color-interpolation-filters:sRGB" id="filter889" width="1.1" height="1.1" x=".05" y=".05"><feGaussianBlur stdDeviation="3.2"/></filter><filter style="color-interpolation-filters:sRGB" id="filter947" width="1.14" height="1.14" x=".07" y=".07"><feGaussianBlur stdDeviation="1.2"/></filter><filter style="color-interpolation-filters:sRGB" id="filter951" width="1.14" height="1.14" x=".07" y=".07"><feGaussianBlur stdDeviation="1.2"/></filter><filter style="color-interpolation-filters:sRGB" id="filter1003" width="1.14" height="1.14" x=".07" y=".07"><feGaussianBlur stdDeviation="1.2"/></filter><filter style="color-interpolation-filters:sRGB" id="filter1007" width="1.14" height="1.14" x=".07" y=".07"><feGaussianBlur stdDeviation="1.2"/></filter><filter style="color-interpolation-filters:sRGB" id="filter1027" width="1.1" height="1.1" x=".05" y=".05"><feGaussianBlur stdDeviation=".8"/></filter></defs><rect style="filter:url(#filter889);opacity:.2" width="160" height="160" x="16" y="20" rx="48" ry="48"/><rect style="fill:#424652" width="160" height="160" x="16" y="16" rx="48" ry="48"/><path style="opacity:.1;fill:#fff" d="M 64 16 C 37.41 16 16 37.41 16 64 L 16 65 C 16 38.41 37.41 17 64 17 L 128 17 C 154.59 17 176 38.41 176 65 L 176 64 C 176 37.41 154.59 16 128 16 L 64 16 z"/><path style="filter:url(#filter1027);opacity:.2" d="m 76,118 a 20,20 0 0 0 -20,20 20,20 0 0 0 20,20 20,20 0 0 0 20,-20 v -20 z"/><path style="fill:#09c37b" d="m 76,116 a 20,20 0 0 0 -20,20 20,20 0 0 0 20,20 20,20 0 0 0 20,-20 v -20 z"/><path style="filter:url(#filter1003);opacity:.2" d="m 76,78 h 20 v 40 H 76 C 64.92,118 56,109.08 56,98 56,86.92 64.92,78 76,78 Z"/><circle style="filter:url(#filter1007);opacity:.2" cx="116" cy="98" r="20"/><path style="fill:#9154dd" d="m 76,76 h 20 v 40 H 76 C 64.92,116 56,107.08 56,96 56,84.92 64.92,76 76,76 Z"/><circle style="fill:#01b1f8" cx="116" cy="96" r="20"/><path style="filter:url(#filter951);opacity:.2" d="m 76,38 c -11.08,0 -20,8.92 -20,20 0,11.08 8.92,20 20,20 H 96 V 38 Z"/><path style="fill:#f24e1e" d="m 76,36 c -11.08,0 -20,8.92 -20,20 0,11.08 8.92,20 20,20 H 96 V 36 Z"/><path style="filter:url(#filter947);opacity:.2" d="m 96,38 h 20 c 11.08,0 20,8.92 20,20 0,11.08 -8.92,20 -20,20 H 96 Z"/><path style="fill:#ff7262" d="m 96,36 h 20 c 11.08,0 20,8.92 20,20 0,11.08 -8.92,20 -20,20 H 96 Z"/><path style="opacity:.2;fill:#fff" d="M 76 36 C 64.92 36 56 44.92 56 56 C 56 56.17 56.01 56.33 56.01 56.49 C 56.28 45.65 65.09 37 76 37 L 96 37 L 116 37 C 126.90 37 135.71 45.64 135.99 56.47 C 135.99 56.32 136 56.16 136 56 C 136 44.92 127.08 36 116 36 L 96 36 L 76 36 z"/></svg>