<?xml version='1.0' encoding='utf-8'?>
<svg xmlns="http://www.w3.org/2000/svg" width="192" height="192" version="1" id="svg28">
  <defs>
    <filter style="color-interpolation-filters:sRGB" id="filter6495" x="0.05" y="0.05" width="1.10" height="1.10">
      <feGaussianBlur stdDeviation="3.20"/>
    </filter>
    <filter style="color-interpolation-filters:sRGB" id="filter6847" x="0.05" y="0.15" width="1.10" height="1.31">
      <feGaussianBlur stdDeviation="2.55"/>
    </filter>
  </defs>
  <rect transform="matrix(0,-1,-1,0,0,0)" ry="12" rx="12" y="-176" x="-180" height="160" width="160" style="filter:url(#filter6495);opacity:0.20;fill:#000000"/>
  <rect transform="matrix(0,-1,-1,0,0,0)" ry="12" rx="12" y="-176" x="-176" height="160" width="160" style="fill:#1479d0"/>
  <path style="opacity:0.20;fill:#ffffff" d="m 28,16 c -6.65,0 -12,5.35 -12,12 v 1 c 0,-6.65 5.35,-12 12,-12 h 136 c 6.65,0 12,5.35 12,12 v -1 c 0,-6.65 -5.35,-12 -12,-12 z"/>
  <path style="filter:url(#filter6847);opacity:0.20;fill:#000000" d="m 35,78 v 7 h 4 v 26 h -4 v 7 h 4 8 4 v -7 H 47 V 85 h 4 v -7 z m 22,0 v 40 h 8 v -14 h 4.27 c 3.93,0.21 7.04,0.85 9.31,-2.08 2.31,-1.23 3.96,-2.86 4.94,-4.88 C 84.51,94.99 85,92.81 85,90.49 85,86.61 83.79,83.56 81.37,81.36 78.98,79.12 75.17,78 69.95,78 Z m 31,0 v 7 h 11 v 33 h 8 V 85 h 11 v -7 z m 33,0 13.78,40 h 9.39 L 158,78 h -8.71 l -7.69,23.81 c 0.11,0.41 0.32,1.18 0.62,2.30 0.30,1.08 0.61,2.24 0.91,3.47 0.27,1.20 0.45,2.20 0.57,3.03 0.11,0.82 0.32,-1.83 0.63,-3.03 0.30,-1.23 0.61,-2.39 0.91,-3.47 0.27,-1.12 0.48,-1.89 0.63,-2.30 L 129.71,78 Z m -56,7 h 4.37 C 73.79,85 76,86.96 76,90.89 76,93.04 75.30,94.60 73.90,95.58 72.54,96.53 70.68,97 68.32,97 H 65 Z"/>
  <path style="fill:#ffffff" d="m 35,76 v 7 h 4 v 26 h -4 v 7 h 4 8 4 v -7 H 47 V 83 h 4 v -7 z m 22,0 v 40 h 8 v -14 h 4.27 c 3.93,0.21 7.04,0.85 9.31,-2.08 2.31,-1.23 3.96,-2.86 4.94,-4.88 C 84.51,92.99 85,90.81 85,88.49 85,84.61 83.79,81.56 81.37,79.36 78.98,77.12 75.17,76 69.95,76 Z m 31,0 v 7 h 11 v 33 h 8 V 83 h 11 v -7 z m 33,0 13.78,40 h 9.39 L 158,76 h -8.71 l -7.69,23.81 c 0.11,0.41 0.32,1.18 0.62,2.30 0.30,1.08 0.61,2.24 0.91,3.47 0.27,1.20 0.45,2.20 0.57,3.03 0.11,0.82 0.32,-1.83 0.63,-3.03 0.30,-1.23 0.61,-2.39 0.91,-3.47 0.27,-1.12 0.48,-1.89 0.63,-2.30 L 129.71,76 Z m -56,7 h 4.37 C 73.79,83 76,84.96 76,88.89 76,91.04 75.30,92.60 73.90,93.58 72.54,94.53 70.68,95 68.32,95 H 65 Z"/>
</svg>
