<?xml version='1.0' encoding='utf-8'?>
<svg xmlns="http://www.w3.org/2000/svg" width="192" height="192" version="1.1" id="svg14">
  <defs>
    <filter style="color-interpolation-filters:sRGB" id="filter849" x="0.05" y="0.05" width="1.10" height="1.10">
      <feGaussianBlur stdDeviation="3.20"/>
    </filter>
    <filter style="color-interpolation-filters:sRGB" id="filter853" x="0.05" y="0.05" width="1.10" height="1.09">
      <feGaussianBlur stdDeviation="1.68"/>
    </filter>
  </defs>
  <circle style="filter:url(#filter849);opacity:0.20" cx="96" cy="100" r="80"/>
  <circle style="fill:#6492fd" cx="96" cy="96" r="80"/>
  <path style="filter:url(#filter853);opacity:0.20" d="m 67.95,54.00 c -6.58,0 -11.95,4.76 -11.95,12 0,7.24 5.38,12 11.95,12 h 42.46 c 0.63,0 1.03,0.68 0.72,1.29 L 100.19,100.94 c 0.40,0.63 0.32,1.38 0.88,0.91 L 130.91,75.53 C 133.98,73.14 136,71.84 136,66.00 c 0,-5.84 -5.38,-12.00 -11.95,-12 z m 23.41,40 c 0.14,0.01 0.28,0.03 0.42,0.15 L 61.09,120.47 C 58.02,122.86 56,124.16 56,130 c 0,5.84 5.38,12.00 11.95,12 H 124.05 C 130.62,142 136,137.24 136,130 c 0,-7.24 -5.38,-12 -11.95,-12 H 81.59 c 0.63,0 -1.03,0.68 0.72,-1.29 L 91.81,95.06 c 0.30,0.47 0.04,-1.02 0.45,-1.06 z"/>
  <path style="fill:#ffffff" d="m 136,64 c 0,5.84 -2.02,7.14 -5.09,9.53 l -29.84,26.32 c 0.55,0.47 -1.27,0.29 0.87,0.92 l 10.95,-21.64 C 111.44,76.68 111.05,76 110.42,76 H 67.96 C 61.38,76 56,71.24 56,64 56,56.76 61.38,52 67.96,52 H 124.04 C 130.62,52.00 136,58.16 136,64 Z"/>
  <path style="opacity:0.20;fill:#ffffff" d="M 96 16 A 80 80 0 0 0 16 96 A 80 80 0 0 0 16.02 96.64 A 80 80 0 0 1 96 17 A 80 80 0 0 1 175.98 96.30 A 80 80 0 0 0 176 96 A 80 80 0 0 0 96 16 z "/>
  <path style="fill:#ffffff" d="m 56,128 c 0,-5.84 2.02,-7.14 5.09,-9.53 L 90.94,92.15 c 0.55,0.47 1.27,0.29 0.87,0.92 L 80.86,114.71 C 80.56,115.32 80.95,116 81.58,116 h 42.46 C 130.62,116 136,120.76 136,128 c 0,7.24 -5.38,12 -11.96,12 H 67.96 C 61.38,140.00 56,133.84 56,128 Z"/>
</svg>
