<?xml version='1.0' encoding='utf-8'?>
<svg xmlns="http://www.w3.org/2000/svg" width="192" height="192" version="1" id="svg12">
  <defs>
    <filter style="color-interpolation-filters:sRGB" id="filter955" x="-0.048000001" width="1.096" y="-0.048000001" height="1.096">
      <feGaussianBlur stdDeviation="3.2"/>
    </filter>
    <filter style="color-interpolation-filters:sRGB" id="filter22355" x="-0.14502857" y="-0.086033899" width="1.2900571" height="1.1720678">
      <feGaussianBlur stdDeviation="4.23"/>
    </filter>
  </defs>
  <rect style="filter:url(#filter955);opacity:0.2;fill:#000000" width="160" height="160" x="16" y="20" rx="30" ry="30"/>
  <rect style="fill:#1d77ef" width="160" height="160" x="16" y="16" rx="30" ry="30"/>
  <rect style="filter:url(#filter22355);opacity:0.2;fill:#000000" width="70" height="118" x="61" y="39" rx="6.0181546"/>
  <path style="opacity:0.2;fill:#ffffff" d="M 46 16 C 29.38 16 16 29.38 16 46 L 16 47 C 16 30.38 29.38 17 46 17 L 146 17 C 162.62 17 176 30.38 176 47 L 176 46 C 176 29.38 162.62 16 146 16 L 46 16 z "/>
  <rect style="fill:#004db2" width="70" height="118" x="61" y="37" rx="6.0181546"/>
  <rect style="fill:#ffffff" width="60" height="104" x="66" y="44" rx="5.1584187"/>
  <path style="fill:#006eff" d="M 91.5 66 C 87.910149 66 85 67.637379 85 74 C 85 78.418278 87.910149 82 91.5 82 C 95.089851 82 98 78.418278 98 74 C 98 66.829304 95.089851 66 91.5 66 z M 96.234375 82.324219 C 94.905953 83.374042 93.292518 84 91.5 84 C 89.834065 84 88.322458 83.459926 87.050781 82.541016 C 81.37697 84.28041 78.663293 85.068078 79.033203 95.769531 C 79.033203 95.769531 81.442674 99.02966 92.011719 99 C 102.58076 98.970345 104 95.769531 104 95.769531 C 104 84.883866 102.86415 84.41446 96.234375 82.324219 z M 98.833984 119.05273 C 98.34241 119.04942 97.848924 119.08769 97.359375 119.16992 C 94.748447 119.60848 92.269785 121.39988 91.0625 124.65234 A 1 1 0 0 0 91.652344 125.9375 A 1 1 0 0 0 92.9375 125.34766 C 93.927408 122.68081 95.717213 121.47222 97.691406 121.14062 C 99.6656 120.80903 101.84623 121.4566 103.3457 122.75586 A 1 1 0 0 0 104.75586 122.6543 A 1 1 0 0 0 104.6543 121.24414 C 103.0595 119.86229 100.96414 119.06711 98.833984 119.05273 z M 99.460938 122.56445 C 99.20243 122.56736 98.940284 122.58903 98.673828 122.62695 C 97.963279 122.7281 97.227911 122.95061 96.478516 123.2793 A 1 1 0 0 0 95.962891 124.59766 A 1 1 0 0 0 97.28125 125.11133 C 98.499011 124.57721 99.522404 124.47148 100.24414 124.64648 C 100.96588 124.82148 101.44555 125.21129 101.78516 126.01953 C 102.20958 127.02964 102 129.51281 102 132 A 1 1 0 0 0 103 133 A 1 1 0 0 0 104 132 C 104 129.69939 104.4586 127.21877 103.62891 125.24414 C 103.08076 123.93958 102.00618 123.01623 100.71484 122.70312 C 100.3113 122.60528 99.891783 122.55961 99.460938 122.56445 z M 95 126 A 1 1 0 0 0 94 127 L 94 132 A 1 1 0 0 0 95 133 A 1 1 0 0 0 96 132 L 96 127 A 1 1 0 0 0 95 126 z M 99 126 A 1 1 0 0 0 98 127 L 98 129 A 1 1 0 0 0 99 130 A 1 1 0 0 0 100 129 L 100 127 A 1 1 0 0 0 99 126 z M 106 126 A 1 1 0 0 0 105 127 L 105 130 A 1 1 0 0 0 106 131 A 1 1 0 0 0 107 130 L 107 127 A 1 1 0 0 0 106 126 z M 92 127 A 1 1 0 0 0 91 128 L 91 130 A 1 1 0 0 0 92 131 A 1 1 0 0 0 93 130 L 93 128 A 1 1 0 0 0 92 127 z M 99 131 A 1 1 0 0 0 98 132 L 98 134 A 1 1 0 0 0 99 135 A 1 1 0 0 0 100 134 L 100 132 A 1 1 0 0 0 99 131 z "/>
  <path style="fill:#349773" d="M 99.910156,72 C 99.964609,72.631023 100,73.287703 100,74 c 0,0.686458 -0.06668,1.353816 -0.185547,2 H 114 c 0.554,0 1,-0.446 1,-1 v -2 c 0,-0.554 -0.446,-1 -1,-1 z m -1.121094,7 c -0.3104,0.602465 -0.66809,1.172153 -1.076171,1.695312 1.976876,0.612736 3.699989,1.225586 5.056639,2.304688 H 114 c 0.554,0 1,-0.446 1,-1 v -2 c 0,-0.554 -0.446,-1 -1,-1 z m 6.199218,7 c 0.44559,1.109267 0.69902,2.413069 0.83984,4 H 114 c 0.554,0 1,-0.446 1,-1 v -2 c 0,-0.554 -0.446,-1 -1,-1 z"/>
</svg>
