<?xml version='1.0' encoding='utf-8'?>
<svg xmlns="http://www.w3.org/2000/svg" width="192" height="192" version="1" id="svg12">
  <defs>
    <filter style="color-interpolation-filters:sRGB" id="filter845" x="0.05" y="0.05" width="1.10" height="1.10">
      <feGaussianBlur stdDeviation="3.20"/>
    </filter>
    <filter style="color-interpolation-filters:sRGB" id="filter867" x="0.05" y="0.04" width="1.11" height="1.09">
      <feGaussianBlur stdDeviation="2.12"/>
    </filter>
  </defs>
  <rect style="filter:url(#filter845);opacity:0.20" width="160" height="160" x="16" y="20" rx="48" ry="48"/>
  <rect style="fill:#e4e4e4" width="160" height="160" x="16" y="16" rx="48" ry="48"/>
  <path style="filter:url(#filter867);opacity:0.20" d="m 63.51,40.20 c -3.21,6.80 -5.24,13.99 -5.41,21.80 H 52 v 10 c 0,8.68 0.32,8.08 1.88,7.09 8.13,-3.70 18.22,3.51 18.22,13.03 0,4.69 -1.13,6.96 -6.32,12.74 -8.91,9.93 -9.23,11.89 -3.66,22.34 5.38,10.09 13.39,17.71 25.38,24.15 l 8.36,4.48 8.62,-4.36 c 12.16,-6.14 26.42,-22.08 30.46,-32.12 l -2.12,-6.70 c 0.06,0.18 0.76,-1.53 -1.90,-3.18 0.13,0.19 0.33,0.40 0.46,0.59 -1.57,1.45 -3.41,4.64 -5.67,9.32 -5.15,10.65 -12.58,18.46 -22.21,23.38 L 96,144.55 V 66.96 c 12.15,3.38 24.99,3.29 37.13,5.84 l 1.18,6.05 c 1.33,0.08 2.70,0.33 4.02,0.99 0.60,0.28 1.14,0.62 1.67,0.97 v -18.81 h -6.09 c 0.17,-7.81 -2.20,-15.00 -5.41,-21.80 l -20.22,16.62 1.50,2.28 L 96,56.00 l -13.77,3.11 1.50,-2.28 z m 70.85,42.52 c -2.09,0.19 -3.80,0.95 -5.46,1.91 -6.04,4.49 -5.79,9.14 0.94,16.91 3.17,3.66 6.23,8.11 6.79,9.88 l 1.02,3.22 2.62,-3.24 c 6.37,-7.87 4.19,-24.40 -3.70,-27.99 0.79,0.41 -1.52,0.62 -2.22,0.69 z m -75.14,0.17 c -1.24,0.14 -2.48,0.10 -3.82,0.52 -7.73,3.52 -9.94,18.64 -4.05,27.65 l 2.30,3.50 2.18,-4.23 c 1.20,-2.33 4.41,-6.72 7.13,-9.76 5.91,-6.60 5.95,-11.60 0.12,-15.94 -1.37,-1.09 -2.62,-1.61 -3.86,-1.74 z"/>
  <path style="opacity:0.20;fill:#ffffff" d="M 64 16 C 37.41 16 16 37.41 16 64 L 16 65 C 16 38.41 37.41 17 64 17 L 128 17 C 154.59 17 176 38.41 176 65 L 176 64 C 176 37.41 154.59 16 128 16 L 64 16 z "/>
  <path style="fill:#134057" d="M 63.51,38.20 C 60.29,45.00 58.27,52.19 58.09,60 H 52 v 10 c 0,8.68 0.32,8.08 1.88,7.09 8.13,-3.70 18.22,3.51 18.22,13.03 0,4.69 -1.13,6.96 -6.32,12.74 -8.91,9.93 -9.23,11.89 -3.66,22.34 5.38,10.09 13.39,17.71 25.38,24.15 l 8.36,4.48 8.62,-4.36 c 12.16,-6.14 26.42,-22.08 30.46,-32.12 l -2.12,-6.70 c 0.06,0.18 0.76,-1.53 -1.90,-3.18 0.13,0.19 0.33,0.40 0.46,0.59 -1.57,1.45 -3.41,4.64 -5.67,9.32 -5.15,10.65 -12.58,18.46 -22.21,23.38 L 96,142.55 V 64.96 c 12.15,3.38 24.99,3.29 37.13,5.84 l 1.18,6.05 c 1.33,0.08 2.70,0.33 4.02,0.99 0.60,0.28 1.14,0.62 1.67,0.97 V 60 h -6.09 c 0.17,-7.81 -2.20,-15.00 -5.41,-21.80 l -20.22,16.62 1.50,2.28 L 96,54 l -13.77,3.11 1.50,-2.28 z m 70.85,42.52 c -2.09,0.19 -3.80,0.95 -5.46,1.91 -6.04,4.49 -5.79,9.14 0.94,16.91 3.17,3.66 6.23,8.11 6.79,9.88 l 1.02,3.22 2.62,-3.24 c 6.37,-7.87 4.19,-24.40 -3.70,-27.99 0.79,0.41 -1.52,0.62 -2.22,0.69 z m -75.14,0.17 c -1.24,0.14 -2.48,0.10 -3.82,0.52 C 47.67,84.93 45.45,100.04 51.35,109.05 l 2.30,3.50 2.18,-4.23 c 1.20,-2.33 4.41,-6.72 7.13,-9.76 5.91,-6.60 5.95,-11.60 0.12,-15.94 -1.37,-1.09 -2.62,-1.61 -3.86,-1.74 z"/>
</svg>
