<svg xmlns="http://www.w3.org/2000/svg" id="svg14" width="192" height="192" version="1"><defs><filter style="color-interpolation-filters:sRGB" id="filter850" width="1.1" height="1.1" x=".05" y=".05"><feGaussianBlur stdDeviation="3.2"/></filter><filter style="color-interpolation-filters:sRGB" id="filter858" width="1.05" height="1.04" x=".03" y=".02"><feGaussianBlur stdDeviation=".98"/></filter></defs><rect style="filter:url(#filter850);opacity:.2;fill:#000" width="160" height="160" x="-180" y="-176" rx="8" ry="8" transform="matrix(0,-1,-1,0,0,0)"/><rect width="160" height="160" x="-176" y="-176" rx="8" ry="8" transform="matrix(0,-1,-1,0,0,0)" style="fill:#4eb052"/><path style="opacity:.2;fill:#fff" d="M 24 16 C 19.57 16 16 19.57 16 24 L 16 25 C 16 20.57 19.57 17 24 17 L 168 17 C 172.43 17 176 20.57 176 25 L 176 24 C 176 19.57 172.43 16 168 16 L 24 16 z"/><path d="m 96,46 -44,19.12 0.03,21.22 c 0.03,19.46 0.23,21.78 2.41,27.95 6.30,17.89 20.15,32.90 35.42,38.37 2.41,0.86 4.35,1.34 6.14,1.34 1.79,0.00 3.73,0.48 6.14,-1.34 15.27,-5.47 29.12,-20.47 35.42,-38.37 2.17,-6.18 2.37,-8.49 2.41,-27.95 L 140,65.12 Z m 0,13.09 V 102 h 31.70 c 0.03,0.67 0.05,1.75 0.09,2.27 0.25,2.92 0.40,3.28 -1.37,6.04 -5.16,14.68 -17.27,27.16 -28.15,31.05 -1.80,0.64 -2.41,0.63 -2.09,0.63 V 102 H 64.30 c 0.16,-3.16 0.25,-7.70 0.27,-15.68 v 0.01 l 0.02,-13.33 z" style="filter:url(#filter858);opacity:.1"/><path d="m 96,44 -44,19.12 0.03,21.22 c 0.03,19.46 0.23,21.78 2.41,27.95 6.30,17.89 20.15,32.90 35.42,38.37 2.41,0.86 4.35,1.34 6.14,1.34 1.79,0.00 3.73,0.48 6.14,-1.34 15.27,-5.47 29.12,-20.47 35.42,-38.37 2.17,-6.18 2.37,-8.49 2.41,-27.95 L 140,63.12 Z m 0,13.09 V 100 h 31.70 c 0.03,0.67 0.05,1.75 0.09,2.27 0.25,2.92 0.40,3.28 -1.37,6.04 -5.16,14.68 -17.27,27.16 -28.15,31.05 -1.80,0.64 -2.41,0.63 -2.09,0.63 V 100 H 64.30 c 0.16,-3.16 0.25,-7.70 0.27,-15.68 v 0.01 l 0.02,-13.33 z" style="fill:#3f3f3f"/></svg>