<svg xmlns="http://www.w3.org/2000/svg" id="svg12" width="192" height="192" version="1"><defs><filter style="color-interpolation-filters:sRGB" id="filter860" width="1.1" height="1.1" x=".05" y=".05"><feGaussianBlur stdDeviation="3.2"/></filter><filter style="color-interpolation-filters:sRGB" id="filter853" width="1.08" height="1.12" x=".04" y=".06"><feGaussianBlur stdDeviation="1.92"/></filter></defs><rect style="filter:url(#filter860);opacity:.2" width="160" height="160" x="16" y="20" rx="48" ry="48"/><rect style="fill:#e5463e" width="160" height="160" x="16" y="16" rx="48" ry="48"/><path style="opacity:.2;fill:#fff" d="M 64,16 C 37.41,16 16,37.41 16,64 v 1 C 16,38.41 37.41,17 64,17 h 64 c 26.59,0 48,21.41 48,48 V 64 C 176,37.41 154.59,16 128,16 Z"/><path style="filter:url(#filter853);opacity:.2;fill:#000" d="m 56,58 c -8.86,0 -16,7.14 -16,16 v 4 h 8 v -4 c 0,-4.57 3.43,-8 8,-8 h 4 v -8 z m 20,0 v 8 h 12 v -8 z m 28,0 v 8 h 12 v -8 z m 28,0 v 8 h 4 c 4.57,0 8,3.43 8,8 v 4 h 8 v -4 c 0,-8.86 -7.14,-16 -16,-16 z M 96,78 A 20,20 0 0 0 76,98 20,20 0 0 0 96,118 20,20 0 0 0 116,98 20,20 0 0 0 96,78 Z M 40,94 v 12 h 8 V 94 Z m 104,0 v 12 h 8 V 94 Z M 40,122 c 0,8.86 7.14,16 16,16 h 4 v -8 h -4 c -4.57,0 -8,-3.43 -8,-8 z m 104,0 c 0,4.57 -3.43,8 -8,8 h -4 v 8 h 4 c 8.86,0 16,-7.14 16,-16 z m -68,8 v 8 h 12 v -8 z m 28,0 v 8 h 12 v -8 z"/><circle style="fill:#fff" cx="96" cy="96" r="20"/><path style="fill:#fff" d="m 56,56 c -8.86,0 -16,7.14 -16,16 v 4 h 8 v -4 c 0,-4.57 3.43,-8 8,-8 h 4 v -8 z m 20,0 v 8 h 12 v -8 z m 28,0 v 8 h 12 v -8 z m 28,0 v 8 h 4 c 4.57,0 8,3.43 8,8 v 4 h 8 v -4 c 0,-8.86 -7.14,-16 -16,-16 z M 40,92 v 12 h 8 V 92 Z m 104,0 v 12 h 8 V 92 Z M 40,120 c 0,8.86 7.14,16 16,16 h 4 v -8 h -4 c -4.57,0 -8,-3.43 -8,-8 z m 104,0 c 0,4.57 -3.43,8 -8,8 h -4 v 8 h 4 c 8.86,0 16,-7.14 16,-16 z m -68,8 v 8 h 12 v -8 z m 28,0 v 8 h 12 v -8 z"/></svg>