<?xml version='1.0' encoding='utf-8'?>
<svg xmlns="http://www.w3.org/2000/svg" width="192" height="192" version="1" id="svg20">
  <defs>
    <filter style="color-interpolation-filters:sRGB" id="filter861" x="0.05" y="0.05" width="1.10" height="1.10">
      <feGaussianBlur stdDeviation="3.20"/>
    </filter>
    <filter style="color-interpolation-filters:sRGB" id="filter868" x="0.05" y="0.05" width="1.10" height="1.09">
      <feGaussianBlur stdDeviation="1.92"/>
    </filter>
    <filter style="color-interpolation-filters:sRGB" id="filter872" x="0.15" y="0.12" width="1.29" height="1.28">
      <feGaussianBlur stdDeviation="1.44"/>
    </filter>
  </defs>
  <rect style="filter:url(#filter861);opacity:0.20" width="160" height="160" x="16" y="20" rx="80" ry="80"/>
  <rect style="fill:#56b366" width="160" height="160" x="16" y="16" rx="80" ry="80"/>
  <path style="opacity:0.20;fill:#ffffff" d="M 96 16 C 51.68 16 16 51.68 16 96 C 16 96.17 16.01 96.34 16.01 96.52 C 16.27 52.42 51.84 17 96 17 C 140.16 17 175.73 52.42 175.99 96.52 C 175.99 96.34 176 96.17 176 96 C 176 51.68 140.32 16 96 16 z "/>
  <path style="filter:url(#filter872);opacity:0.20;fill:none;stroke:#000000;stroke-width:8" d="m 100,138.00 -44,-56.00 68,-20 z"/>
  <path style="fill:none;stroke:#ffffff;stroke-width:8" d="M 100,136 56,80 124,60 Z"/>
  <path style="filter:url(#filter868);opacity:0.20" d="M 124,52 A 12,12 0 0 0 112,64 12,12 0 0 0 124,76 12,12 0 0 0 136,64 12,12 0 0 0 124,52 Z M 56,72 A 12,12 0 0 0 44,84 12,12 0 0 0 56,96 12,12 0 0 0 68,84 12,12 0 0 0 56,72 Z m 44,56 a 12,12 0 0 0 -12,12 12,12 0 0 0 12,12 12,12 0 0 0 12,-12 12,12 0 0 0 -12,-12 z"/>
  <circle style="fill:#ffffff" cx="56" cy="80" r="12"/>
  <circle style="fill:#ffffff" cx="124" cy="60" r="12"/>
  <circle style="fill:#ffffff" cx="100" cy="136" r="12"/>
</svg>
