<?xml version='1.0' encoding='utf-8'?>
<svg xmlns="http://www.w3.org/2000/svg" width="192" height="192" version="1" id="svg12">
  <defs>
    <filter style="color-interpolation-filters:sRGB" id="filter955" x="0.05" width="1.10" y="0.05" height="1.10">
      <feGaussianBlur stdDeviation="3.20"/>
    </filter>
    <filter style="color-interpolation-filters:sRGB" id="filter1587" x="0.11" y="0.10" width="1.23" height="1.21">
      <feGaussianBlur stdDeviation="4.28"/>
    </filter>
  </defs>
  <rect style="filter:url(#filter955);opacity:0.20;fill:#000000" width="160" height="160" x="16" y="20" rx="30" ry="30"/>
  <rect style="fill:#3f3f3f" width="160" height="160" x="16" y="16" rx="30" ry="30"/>
  <path style="opacity:0.10;fill:#ffffff" d="M 46 16 C 29.38 16 16 29.38 16 46 L 16 47 C 16 30.38 29.38 17 46 17 L 146 17 C 162.62 17 176 30.38 176 47 L 176 46 C 176 29.38 162.62 16 146 16 L 46 16 z "/>
  <path style="filter:url(#filter1587);opacity:0.20;fill:#000000" d="M 105.87,49 C 95.55,49 85.99,56.93 80.54,62.71 61.20,83.18 51,97 51,97 h 86.13 L 141,88 71.47,87.99 c 0.02,0.03 5.31,-8.08 16.58,-19.61 C 90.88,65.51 98.32,58 105.87,58 c 4.97,0 8.82,3.60 8.82,8.18 0,4.54 -3.55,5.85 -3.55,5.85 C 111.50,70.08 110.38,65 105.68,65 100.83,65 99,68.82 99,71.53 99,77.09 103.41,81 108.82,81 119.23,81 124,73.06 124,65.29 124,57.44 117.11,49 105.87,49 Z M 50,102 c 0,0.01 4.54,14.10 10.56,27.57 C 65.66,141.06 74.11,148 84.44,148 94.17,148 101,140.00 101,132.39 101,123.74 94.63,118 87.41,118 79.69,118 78,124.36 78,125.94 78,129.57 80.86,133 84.44,133 c 5.64,0 6.07,-4.90 6.07,-4.90 0,0 1.74,1.16 1.74,4.29 0,2.97 -2.36,6.75 -7.80,6.75 -4.34,0 -10.74,-2.46 -15.15,-12.51 C 64.09,114.87 63.73,111 63.73,111 H 132.10 L 136,102 Z"/>
  <path style="fill:#ffffff" d="M 105.87 47 C 95.55 47 85.99 54.93 80.54 60.71 C 61.20 81.18 51 95 51 95 L 137.13 95 L 141 86 L 71.47 85.99 C 71.49 85.96 76.78 77.92 88.05 66.38 C 90.88 63.51 98.32 56 105.87 56 C 110.84 56 114.69 59.60 114.69 64.18 C 114.69 68.72 111.14 70.02 111.14 70.02 C 111.50 68.08 110.38 63 105.68 63 C 100.83 63 99 66.82 99 69.53 C 99 75.09 103.41 79 108.82 79 C 119.23 79 124 71.06 124 63.29 C 124 55.44 117.11 47 105.87 47 z M 50 100 C 50 100.01 54.54 114.10 60.56 127.57 C 65.66 139.06 74.11 146 84.44 146 C 94.17 146 101 138.00 101 130.39 C 101 121.74 94.63 116 87.41 116 C 79.69 116 78 122.36 78 123.94 C 78 127.57 80.86 131 84.44 131 C 90.08 131 90.51 126.10 90.51 126.10 C 90.51 126.10 92.25 127.26 92.25 130.38 C 92.25 133.35 89.88 137.14 84.44 137.14 C 80.10 137.14 73.70 134.68 69.29 124.62 C 64.09 112.87 63.73 109 63.73 109 L 132.10 109 L 136 100 L 50 100 z "/>
</svg>
