<?xml version='1.0' encoding='utf-8'?>
<svg xmlns="http://www.w3.org/2000/svg" width="192" height="192" version="1" id="svg28">
  <defs>
    <filter style="color-interpolation-filters:sRGB" id="filter28712" x="0.04" y="0.06" width="1.08" height="1.12">
      <feGaussianBlur stdDeviation="2.62"/>
    </filter>
    <filter style="color-interpolation-filters:sRGB" id="filter29510" x="0.10" y="0.12" width="1.20" height="1.24">
      <feGaussianBlur stdDeviation="1.80"/>
    </filter>
    <filter style="color-interpolation-filters:sRGB" id="filter29593" x="0.11" y="0.11" width="1.22" height="1.22">
      <feGaussianBlur stdDeviation="0.81"/>
    </filter>
  </defs>
  <rect style="fill:#f02b42" width="138" height="88" x="24" y="24" ry="6"/>
  <path d="m 128.17,46.10 c 0.08,-1.20 0.40,-2.40 -1.04,-3.44 l -5.43,-9.51 c 0.40,0.72 0.72,-1.52 0.88,-2.32 l 0.24,0.40 c 0.63,1.07 -1.08,2.28 -1.13,3.49 0.06,1.42 0.40,2.85 1.13,4.10 l 4.39,7.59 c 1.36,2.32 1.36,5.27 0,7.59 l 0.24,0.40 c 0.16,0.80 0.48,-1.60 0.88,-2.32 l -4.00,-6.95 -2.56,-4.47 c 0.40,0.72 0.72,-1.52 0.88,-2.32 l 0.24,0.40 c 0.69,1.18 0.95,2.50 0.93,3.84 0.01,1.29 0.27,2.58 0.93,3.76 v 0 l 4.39,7.59 c 1.36,2.32 1.36,5.27 0,7.59 l 0.24,0.40 c 0.16,0.80 0.48,-1.60 0.88,-2.32 l -5.51,-9.51 c 0.72,-1.28 -1.04,-2.72 -1.04,-4.16 C 107.08,47.46 103,50.74 103,54.49 103,59.76 110.83,64 120.50,64 c 9.67,0 17.50,-4.24 17.50,-9.51 0.08,-3.60 -3.92,-6.87 -9.83,-8.39 z" style="fill:#ffffff"/>
  <rect style="fill:#ffdd11" width="18" height="14" x="40" y="46" ry="4"/>
  <path style="fill:#ff9608" d="m 45,46.00 v 4 h -5 v 1 h 5 v 3 h -5 v 1 h 5 V 60 h 1 V 46.00 Z m 7,4 V 60 h 1 v -5.00 h 5 v -1 h -5 v -3 h 5 v -1 h -5 z"/>
  <rect style="fill:#fbc0c7" width="23" height="8" x="39" y="73"/>
  <rect style="fill:#fbc0c7" width="23" height="8" x="69" y="73"/>
  <rect style="fill:#fbc0c7" width="23" height="8" x="97" y="73"/>
  <rect style="fill:#fbc0c7" width="23" height="8" x="126" y="73"/>
  <ellipse style="fill:#fdde01" cx="142" cy="95.16" rx="9" ry="8.84"/>
  <rect style="fill:#f895a1" width="18" height="6" x="48" y="88"/>
  <rect style="fill:#f895a1" width="18" height="6" x="84" y="88"/>
  <rect style="fill:#f6808e" width="30" height="4" x="39" y="102"/>
  <rect style="fill:#f6808e" width="20" height="4" x="75" y="102"/>
  <ellipse style="fill:#ca0101" cx="130" cy="95.16" rx="9" ry="8.84"/>
  <path style="opacity:0.20;fill:#ffffff" d="m 30,24 c -3.32,0 -6,2.68 -6,6 v 1 c 0,-3.32 2.68,-6 6,-6 h 126 c 3.32,0 6,2.68 6,6 v -1 c 0,-3.32 -2.68,-6 -6,-6 z"/>
  <rect style="filter:url(#filter28712);opacity:0.20;fill:#000000" width="156" height="106" x="15" y="65" ry="9.93"/>
  <rect style="fill:#795548" width="156" height="106" x="15" y="61" ry="9.93"/>
  <rect style="fill:none;stroke:#684a3d;stroke-width:2;stroke-dasharray:6, 2;stroke-dashoffset:0" width="144" height="94" x="21" y="67" ry="8.81"/>
  <path style="filter:url(#filter29510);opacity:0.20;fill:#000000" d="m 151,98 c -9.94,0 -18,8.06 -18,18 0,9.94 8.06,18 18,18 H 153.32 171 c 3.32,0 6,-2.68 6,-6 v -24 c 0,-3.32 -2.68,-6 -6,-6 h -17.68 z"/>
  <path style="fill:#8d6e63" d="m 151,96 c -9.94,0 -18,8.06 -18,18 0,9.94 8.06,18 18,18 H 153.32 171 c 3.32,0 6,-2.68 6,-6 v -24 c 0,-3.32 -2.68,-6 -6,-6 h -17.68 z"/>
  <circle style="filter:url(#filter29593);opacity:0.20;fill:#000000" cx="151" cy="115" r="9"/>
  <circle style="fill:#bdbdbd" cx="151" cy="114" r="9"/>
  <path style="opacity:0.10;fill:#ffffff" d="M 151 96 C 141.06 96 133 104.06 133 114 C 133 114.17 133.01 114.33 133.01 114.50 C 133.28 104.79 141.23 97 151 97 L 153.32 97 L 171 97 C 174.32 97 177 99.68 177 103 L 177 102 C 177 98.68 174.32 96 171 96 L 153.32 96 L 151 96 z "/>
</svg>
