<?xml version='1.0' encoding='utf-8'?>
<svg xmlns="http://www.w3.org/2000/svg" width="192" height="192" version="1" id="svg14">
  <defs>
    <filter style="color-interpolation-filters:sRGB" id="filter844" x="-0.048000001" width="1.096" y="-0.048000001" height="1.096">
      <feGaussianBlur stdDeviation="3.2"/>
    </filter>
    <filter style="color-interpolation-filters:sRGB" id="filter860" x="-0.048" width="1.096" y="-0.048" height="1.096">
      <feGaussianBlur stdDeviation="2.24"/>
    </filter>
  </defs>
  <rect style="filter:url(#filter844);opacity:0.2;fill:#000000" width="160" height="160" x="-180" y="-176" rx="80" ry="80" transform="matrix(0,-1,-1,0,0,0)"/>
  <rect transform="matrix(0,-1,-1,0,0,0)" ry="80" rx="80" y="-176" x="-176" height="160" width="160" style="fill:#027cda"/>
  <path style="opacity:0.2;fill:#ffffff" d="M 95.998047 16 C 51.678955 16.001052 16 51.680653 16 96 C 16 96.115498 16.006172 96.228859 16.007812 96.34375 C 16.358829 52.329731 51.898462 17.001046 95.998047 17 L 96 17 C 140.10547 17.001047 175.64856 52.339122 175.99023 96.361328 C 175.99198 96.240601 175.99805 96.121307 175.99805 96 C 175.99805 51.680653 140.31909 16.001052 96 16 L 95.998047 16 z "/>
  <path d="m 96,44 a 56,56 0 0 0 -56,56 56,56 0 0 0 56,56 56,56 0 0 0 56,-56 56,56 0 0 0 -56,-56 z m 0,20.195312 a 36,36 0 0 1 36,35.999998 36,36 0 0 1 -36,36 36,36 0 0 1 -36,-36 36,36 0 0 1 36,-35.999998 z M 84.546876,80 A 4.4388472,4.4165916 0 0 0 80,84.414064 v 31.171876 a 4.4388472,4.4165916 0 0 0 6.656248,3.82812 l 13.570312,-7.78906 13.5625,-7.80469 a 4.4388472,4.4165916 0 0 0 0,-7.63281 l -13.5625,-7.796876 -13.570312,-7.78906 A 4.4388472,4.4165916 0 0 0 84.546876,80 Z" style="filter:url(#filter860);opacity:0.2"/>
  <path d="M 96,40 A 56,56 0 0 0 40,96 56,56 0 0 0 96,152 56,56 0 0 0 152,96 56,56 0 0 0 96,40 Z m 0,20.195312 a 36,36 0 0 1 36,36 36,36 0 0 1 -36,35.999998 36,36 0 0 1 -36,-35.999998 36,36 0 0 1 36,-36 z M 84.546876,76 A 4.4388472,4.4165916 0 0 0 80,80.414064 v 31.171876 a 4.4388472,4.4165916 0 0 0 6.656248,3.82812 l 13.570312,-7.78906 13.5625,-7.804688 a 4.4388472,4.4165916 0 0 0 0,-7.632812 l -13.5625,-7.796876 -13.570312,-7.78906 A 4.4388472,4.4165916 0 0 0 84.546876,76 Z" style="fill:#ffffff"/>
</svg>
