<?xml version='1.0' encoding='utf-8'?>
<svg xmlns="http://www.w3.org/2000/svg" width="192" height="192" version="1.1" id="svg18">
  <defs>
    <filter style="color-interpolation-filters:sRGB" id="filter865" x="0.05" width="1.10" y="0.05" height="1.10">
      <feGaussianBlur stdDeviation="3.20"/>
    </filter>
    <filter style="color-interpolation-filters:sRGB" id="filter881" x="0.05" width="1.10" y="0.05" height="1.10">
      <feGaussianBlur stdDeviation="2.40"/>
    </filter>
  </defs>
  <circle style="filter:url(#filter865);opacity:0.20" cx="96" cy="100" r="80"/>
  <circle style="fill:#439a42" cx="96" cy="96.00" r="80"/>
  <path style="filter:url(#filter881);opacity:0.20;fill-rule:evenodd" d="m 96,40.00 a 60,60 0 0 0 -60,60.00 60,60 0 0 0 60,60 60,60 0 0 0 60,-60 60,60 0 0 0 -60,-60.00 z m 0,16 a 44,44 0 0 1 42.32,32 H 53.71 A 44,44 0 0 1 96,56.00 Z m 0,52.00 a 8,8 0 0 1 8,8 8,8 0 0 1 -4.93,7.38 l 1.93,4.62 5,12 H 96 86 l 5,-12 1.92,-4.62 A 8,8 0 0 1 88,116.00 a 8,8 0 0 1 8,-8 z"/>
  <path style="fill:#ffd838;fill-rule:evenodd" d="M 96,36 A 60,60 0 0 0 36,96 60,60 0 0 0 96,156 60,60 0 0 0 156,96 60,60 0 0 0 96,36 Z m 0,16 a 44,44 0 0 1 42.32,32 H 53.71 A 44,44 0 0 1 96,52 Z m 0,52 a 8,8 0 0 1 8,8 8,8 0 0 1 -4.93,7.38 L 101,124 l 5,12 H 96 86 l 5,-12 1.92,-4.62 A 8,8 0 0 1 88,112 a 8,8 0 0 1 8,-8 z"/>
  <path style="opacity:0.20;fill:#ffffff;fill-rule:evenodd" d="M 96 16 A 80 80 0 0 0 16 96 A 80 80 0 0 0 16.02 96.51 A 80 80 0 0 1 96 17 A 80 80 0 0 1 175.77 92.32 A 80 80 0 0 1 175.79 92.83 A 80 80 0 0 1 175.98 96.52 A 80 80 0 0 0 176 96 A 80 80 0 0 0 96 16 z "/>
  <path style="opacity:0.20;fill:#ffffff;fill-rule:evenodd" d="M 96 36 A 60 60 0 0 0 36 96 A 60 60 0 0 0 36.02 96.42 A 60 60 0 0 1 96 37 A 60 60 0 0 1 155.98 96.58 A 60 60 0 0 0 156 96 A 60 60 0 0 0 96 36 z M 54.05 84 A 44 44 0 0 0 53.71 85 L 138.32 85 A 44 44 0 0 0 137.98 84 L 54.05 84 z M 103.98 112.42 A 8 8 0 0 1 99.07 119.38 L 99.42 120.21 A 8 8 0 0 0 104 113 A 8 8 0 0 0 103.98 112.42 z M 88.02 112.56 A 8 8 0 0 0 88 113 A 8 8 0 0 0 92.57 120.22 L 92.92 119.38 A 8 8 0 0 1 88.02 112.56 z M 86.42 136 L 86 137 L 96 137 L 106 137 L 105.58 136 L 96 136 L 86.42 136 z "/>
</svg>
