<?xml version='1.0' encoding='utf-8'?>
<svg xmlns="http://www.w3.org/2000/svg" width="192" height="192" version="1" id="svg28">
  <defs>
    <filter style="color-interpolation-filters:sRGB" id="filter34038" x="-0.0384" y="-0.064" width="1.0768" height="1.128">
      <feGaussianBlur stdDeviation="2.24"/>
    </filter>
    <filter style="color-interpolation-filters:sRGB" id="filter34198" x="-0.056919816" y="-0.10991316" width="1.1138396" height="1.2198263">
      <feGaussianBlur stdDeviation="3.0851549"/>
    </filter>
    <filter style="color-interpolation-filters:sRGB" id="filter34240" x="-0.086931818" y="-0.065948276" width="1.1738636" height="1.1318966">
      <feGaussianBlur stdDeviation="0.796875"/>
    </filter>
    <filter style="color-interpolation-filters:sRGB" id="filter34769" x="-0.028851064" y="-0.14273684" width="1.0577021" height="1.2854737">
      <feGaussianBlur stdDeviation="1.13"/>
    </filter>
    <filter style="color-interpolation-filters:sRGB" id="filter34857" x="-0.048900012" y="-0.15927417" width="1.0978" height="1.3185483">
      <feGaussianBlur stdDeviation="2.3227245"/>
    </filter>
  </defs>
  <path style="filter:url(#filter34198);opacity:0.2;fill:#000000" d="m 43.216948,101.2874 -12.283056,15.63557 28.601264,42.42734 c 5.16468,7.66157 10.599795,7.81218 13.892578,7.60156 H 96 118.57227 c 3.29279,0.21062 8.72789,0.06 13.89257,-7.60156 l 28.55331,-42.3562 -5.5382,-17.359763 L 96,101.63937 Z"/>
  <path style="fill:#698491" d="m 43.216948,99.287402 -12.283056,15.635568 28.601264,42.42734 c 5.16468,7.66157 10.599795,7.81218 13.892578,7.60156 H 96 118.57227 c 3.29279,0.21062 8.72789,0.06 13.89257,-7.60156 l 28.55331,-42.3562 -5.5382,-17.359764 L 96,99.639371 Z"/>
  <rect style="fill:#454f53" width="8" height="28" x="66" y="25"/>
  <rect style="fill:#454f53" width="8" height="28" x="-126" y="25" transform="scale(-1,1)"/>
  <rect style="filter:url(#filter34038);opacity:0.25;fill:#000000" width="140" height="84" x="26" y="43" ry="12"/>
  <rect style="fill:#fb3c61" width="140" height="84" x="26" y="41" ry="12"/>
  <path style="filter:url(#filter34240);opacity:0.2;fill:#000000" d="m 89,148 c -2.216,0 -4,1.784 -4,4 v 14 a 11,11 0 0 0 11,11 11,11 0 0 0 11,-11 v -14 c 0,-2.216 -1.784,-4 -4,-4 z"/>
  <path style="fill:#2e393f" d="M 89 147 C 86.784 147 85 148.784 85 151 L 85 165 A 11 11 0 0 0 96 176 A 11 11 0 0 0 107 165 L 107 151 C 107 148.784 105.216 147 103 147 L 89 147 z "/>
  <path style="filter:url(#filter34857);opacity:0.2;fill:#000000;color:#000000" d="m 43.398437,54.346267 a 3,3 0 0 0 -4.052734,1.255859 3,3 0 0 0 1.255859,4.052735 l 55,29 a 3.0003,3.0003 0 0 0 2.837891,-0.02344 l 52.999997,-29 a 3,3 0 0 0 1.19141,-4.070312 3,3 0 0 0 -4.07031,-1.191406 L 96.974609,82.594314 Z"/>
  <path style="fill:#ffffff;color:#000000" d="m 43.398437,53.345703 a 3,3 0 0 0 -4.052734,1.255859 3,3 0 0 0 1.255859,4.052735 l 55,29 a 3.0003,3.0003 0 0 0 2.837891,-0.02344 l 52.999997,-29 a 3,3 0 0 0 1.19141,-4.070312 3,3 0 0 0 -4.07031,-1.191406 L 96.974609,81.59375 Z"/>
  <path style="filter:url(#filter34769);opacity:0.2;fill:#000000" d="m 54,16 c -2.77,0 -5,2.23 -5,5 v 9 c 0,2.77 2.23,5 5,5 h 22 c 2.77,0 5,-2.23 5,-5 v -9 c 0,-2.77 -2.23,-5 -5,-5 z m 62,0 c -2.77,0 -5,2.23 -5,5 v 9 c 0,2.77 2.23,5 5,5 h 22 c 2.77,0 5,-2.23 5,-5 v -9 c 0,-2.77 -2.23,-5 -5,-5 z"/>
  <path style="fill:#78929e" d="M 54 15 C 51.23 15 49 17.23 49 20 L 49 29 C 49 31.77 51.23 34 54 34 L 76 34 C 78.77 34 81 31.77 81 29 L 81 20 C 81 17.23 78.77 15 76 15 L 54 15 z M 116 15 C 113.23 15 111 17.23 111 20 L 111 29 C 111 31.77 113.23 34 116 34 L 138 34 C 140.77 34 143 31.77 143 29 L 143 20 C 143 17.23 140.77 15 138 15 L 116 15 z "/>
  <path style="opacity:0.2;fill:#ffffff" d="M 38 41 C 31.352 41 26 46.352 26 53 L 26 54 C 26 47.352 31.352 42 38 42 L 154 42 C 160.648 42 166 47.352 166 54 L 166 53 C 166 46.352 160.648 41 154 41 L 38 41 z "/>
  <path style="opacity:0.2;fill:#ffffff" d="M 54 15 C 51.23 15 49 17.23 49 20 L 49 21 C 49 18.23 51.23 16 54 16 L 76 16 C 78.77 16 81 18.23 81 21 L 81 20 C 81 17.23 78.77 15 76 15 L 54 15 z M 116 15 C 113.23 15 111 17.23 111 20 L 111 21 C 111 18.23 113.23 16 116 16 L 138 16 C 140.77 16 143 18.23 143 21 L 143 20 C 143 17.23 140.77 15 138 15 L 116 15 z "/>
</svg>
