<?xml version='1.0' encoding='utf-8'?>
<svg xmlns="http://www.w3.org/2000/svg" width="192" height="192" version="1" id="svg10">
  <defs>
    <filter style="color-interpolation-filters:sRGB" id="filter844" x="-0.049263156" width="1.0985263" y="-0.046799997" height="1.0936">
      <feGaussianBlur stdDeviation="3.12"/>
    </filter>
  </defs>
  <path style="filter:url(#filter844);opacity:0.2;fill:#000000" d="M 33.757419,20.003378 A 13.445412,12.554906 0 0 0 20.000002,32.553483 V 167.45432 a 13.445412,12.554906 0 0 0 20.167918,10.86375 l 62.55698,-33.71921 62.55299,-33.72321 a 13.445412,12.554906 0 0 0 0,-21.745094 L 102.7249,55.403347 40.16792,21.680938 a 13.445412,12.554906 0 0 0 -6.410901,-1.67756 z"/>
  <path d="M 33.757419,16.003381 A 13.445412,12.554906 0 0 0 20.000002,28.553486 V 163.45432 a 13.445412,12.554906 0 0 0 20.167918,10.86375 l 62.55698,-33.71921 62.55299,-33.72321 a 13.445412,12.554906 0 0 0 0,-21.745091 L 102.7249,51.40335 40.16792,17.680941 a 13.445412,12.554906 0 0 0 -6.410901,-1.67756 z" style="fill:#148ae6"/>
  <path style="opacity:0.2;fill:#ffffff" d="M 33.757812 16.003906 A 13.445412 12.554906 0 0 0 20 28.552734 L 20 29.552734 A 13.445412 12.554906 0 0 1 33.757812 17.003906 A 13.445412 12.554906 0 0 1 40.167969 18.681641 L 102.72461 52.404297 L 165.27734 86.130859 A 13.445412 12.554906 0 0 1 171.98047 96.625 A 13.445412 12.554906 0 0 0 165.27734 85.130859 L 102.72461 51.404297 L 40.167969 17.681641 A 13.445412 12.554906 0 0 0 33.757812 16.003906 z "/>
</svg>
