<svg xmlns="http://www.w3.org/2000/svg" id="svg22" width="192" height="192" version="1"><defs><filter style="color-interpolation-filters:sRGB" id="filter868" width="1.1" height="1.1" x=".05" y=".05"><feGaussianBlur stdDeviation="3.2"/></filter><filter style="color-interpolation-filters:sRGB" id="filter1241" width="1.09" height="1.1" x=".05" y=".05"><feGaussianBlur stdDeviation="2.13"/></filter></defs><rect style="filter:url(#filter868);opacity:.2" width="160" height="160" x="16" y="20" rx="80" ry="80"/><rect style="fill:#4f4f4f" width="160" height="160" x="16" y="16" rx="80" ry="80"/><path style="opacity:.1;fill:#fff" d="M 96 16 C 51.68 16 16 51.68 16 96 C 16 96.17 16.01 96.34 16.01 96.52 C 16.27 52.42 51.84 17 96 17 C 140.16 17 175.73 52.42 175.99 96.52 C 175.99 96.34 176 96.17 176 96 C 176 51.68 140.32 16 96 16 z"/><path style="filter:url(#filter1241);opacity:.2;fill:#000" d="m 96,42.89 c -30.38,0 -55,24.62 -55,55 C 41,118.59 52.43,136.61 69.33,146 55.89,137.26 47,122.11 47,104.89 47,77.83 68.94,55.89 96,55.89 c 27.06,0 49,21.94 49,49.00 C 145,122.11 136.11,137.26 122.67,146 139.57,136.61 151,118.59 151,97.89 c 0,-30.38 -24.62,-55 -55,-55 z m 0,20.10 c -23.20,0 -42,18.80 -42,42.00 0,6.44 1.45,12.55 4.04,18.01 C 57.36,120.11 57,117.09 57,113.99 57,92.45 74.46,74.99 96,74.99 c 21.54,0 39,17.46 39,39.00 0,3.10 0.36,6.12 -1.04,9.01 C 136.55,117.54 138,111.44 138,104.99 138,81.80 119.20,62.99 96,62.99 Z M 96,88 c -9.94,0 -18,8.06 -18,18 0,9.94 8.06,18 18,18 9.94,0 18,-8.06 18,-18 0,-9.94 -8.06,-18 -18,-18 z M 73.96,92.20 C 68.42,97.80 65,105.50 65,114 c 0,17.12 13.88,31 31,31 17.12,0 31,-13.88 31,-31 0,-8.50 -3.42,-16.20 -8.96,-21.80 C 120.55,96.20 122,100.93 122,106 c 0,14.36 -11.64,26 -26,26 -14.36,0 -26,-11.64 -26,-26 0,-5.07 1.45,-9.80 3.96,-13.80 z"/><path style="fill:#fff" d="M 96 40.89 C 65.62 40.89 41 65.51 41 95.89 C 41 116.59 52.43 134.61 69.33 144 C 55.89 135.26 47 120.11 47 102.89 C 47 75.83 68.94 53.89 96 53.89 C 123.06 53.89 145 75.83 145 102.89 C 145 120.11 136.11 135.26 122.67 144 C 139.57 134.61 151 116.59 151 95.89 C 151 65.51 126.38 40.89 96 40.89 z M 96 60.99 C 72.80 60.99 54 79.80 54 102.99 C 54 109.44 55.45 115.54 58.04 121 C 57.36 118.11 57 115.09 57 111.99 C 57 90.45 74.46 72.99 96 72.99 C 117.54 72.99 135 90.45 135 111.99 C 135 115.09 134.64 118.11 133.96 121 C 136.55 115.54 138 109.44 138 102.99 C 138 79.80 119.20 60.99 96 60.99 z M 96 86 C 86.06 86 78 94.06 78 104 C 78 113.94 86.06 122 96 122 C 105.94 122 114 113.94 114 104 C 114 94.06 105.94 86 96 86 z M 73.96 90.20 C 68.42 95.80 65 103.50 65 112 C 65 129.12 78.88 143 96 143 C 113.12 143 127 129.12 127 112 C 127 103.50 123.58 95.80 118.04 90.20 C 120.55 94.20 122 98.93 122 104 C 122 118.36 110.36 130 96 130 C 81.64 130 70 118.36 70 104 C 70 98.93 71.45 94.20 73.96 90.20 z"/></svg>