<?xml version='1.0' encoding='utf-8'?>
<svg xmlns="http://www.w3.org/2000/svg" width="192" height="192" version="1" id="svg28">
  <defs>
    <filter style="color-interpolation-filters:sRGB" id="filter28400" x="0.04" y="0.06" width="1.08" height="1.12">
      <feGaussianBlur stdDeviation="2.60"/>
    </filter>
    <filter style="color-interpolation-filters:sRGB" id="filter28442" x="0.03" y="0.13" width="1.06" height="1.26">
      <feGaussianBlur stdDeviation="1.96"/>
    </filter>
    <filter style="color-interpolation-filters:sRGB" id="filter28695" x="0.15" y="0.09" width="1.29" height="1.17">
      <feGaussianBlur stdDeviation="3.57"/>
    </filter>
    <filter style="color-interpolation-filters:sRGB" id="filter28889" x="0.20" y="0.07" width="1.41" height="1.15">
      <feGaussianBlur stdDeviation="3.06"/>
    </filter>
  </defs>
  <path style="filter:url(#filter28442);opacity:0.20;fill:#000000" d="m 26,34.00 c -5.54,0 -10,4.46 -10,10 V 69.65 H 176 V 55.93 c 0,-5.54 -4.46,-9.93 -10,-9.93 H 80.21 c -15.84,0 -7.54,-12 -24.96,-12 z"/>
  <path style="fill:#01c58e" d="M 26,32 C 20.46,32 16,36.46 16,42 V 67.65 H 176 V 53.93 C 176,48.39 171.54,44 166,44 H 80.21 C 64.37,44 72.67,32 55.24,32 Z"/>
  <rect style="filter:url(#filter28400);opacity:0.20;fill:#000000" width="160" height="100" x="16" y="58" ry="10"/>
  <rect style="fill:#09e0a3" width="160" height="100" x="16" y="56" ry="10"/>
  <path style="filter:url(#filter28695);opacity:0.10;fill:#000000" d="M 105.57,58 C 104.32,64.60 103.82,70.63 104,76.16 105.47,120.98 149.63,133.32 160.29,158 l 2.26,-11.94 c 1.03,-5.44 -3.46,-17.46 -4.37,-22.93 l -6.30,-37.69 c 0.91,-5.46 3.76,-9.31 -1.45,-11.19 z"/>
  <path style="fill:#57eec4" d="M 105.57,56 C 104.32,62.60 103.82,68.63 104,74.16 105.47,118.98 149.63,131.32 160.29,156 H 166 c 5.54,0 10,-4.46 10,-10 V 66 c 0,-5.54 -4.46,-10 -10,-10 z"/>
  <path style="filter:url(#filter28889);opacity:0.10;fill:#000000" d="M 140.45,58 C 131.24,71.67 127.16,82.75 127,92.24 126.53,119.29 154.57,133.44 160.83,158 l 1.74,-13.60 c 0.70,-5.49 1.02,-11.73 0.13,-17.14 l -8.62,-40.51 c -1.15,-5.42 -2.19,-11.43 -5.19,-16.09 z"/>
  <path style="fill:#94f7da" d="M 140.45,56 C 131.24,69.67 127.16,80.75 127,90.24 126.53,117.29 154.57,131.44 160.83,156 H 166 c 5.54,0 10,-4.46 10,-10 V 66 c 0,-5.54 -4.46,-10 -10,-10 z"/>
  <path style="opacity:0.20;fill:#ffffff" d="M 26 56 C 20.46 56 16 60.46 16 66 L 16 67 C 16 61.46 20.46 57 26 57 L 166 57 C 171.54 57 176 61.46 176 67 L 176 66 C 176 60.46 171.54 56 166 56 L 26 56 z "/>
  <path style="opacity:0.10;fill:#ffffff" d="M 26 32 C 20.46 32 16 36.46 16 42 L 16 43 C 16 37.46 20.46 33 26 33 L 55.24 33 C 72.67 33 64.37 45 80.21 45 L 166 45 C 171.54 45 176 49.39 176 54.93 L 176 53.93 C 176 48.39 171.54 44 166 44 L 80.21 44 C 64.37 44 72.67 32 55.24 32 L 26 32 z "/>
</svg>
