<?xml version='1.0' encoding='utf-8'?>
<svg xmlns="http://www.w3.org/2000/svg" id="svg14" version="1.1" height="192" width="192">
  <defs>
    <filter style="color-interpolation-filters:sRGB" id="filter876" x="0.05" width="1.10" y="0.05" height="1.10">
      <feGaussianBlur stdDeviation="1.92"/>
    </filter>
    <filter style="color-interpolation-filters:sRGB" id="filter848" x="0.05" width="1.10" y="0.05" height="1.10">
      <feGaussianBlur stdDeviation="3.20"/>
    </filter>
  </defs>
  <circle r="80" cy="100" cx="96" style="filter:url(#filter848);opacity:0.20"/>
  <circle r="80" cy="96" cx="96" style="fill:#3aae46"/>
  <path d="M 68.58,54 C 57.95,54 49.21,62.62 48.13,73.69 47.79,75.96 48.19,78.43 48.43,80.48 49.58,91.80 54.04,110.85 70.60,127.41 87.15,143.97 106.21,148.43 117.52,149.58 118.97,149.86 120.47,150 122,150 122.80,150.02 123.50,149.92 124.32,149.88 135.38,148.80 144,140.06 144,129.43 144,118.07 134.15,114 122,114 111.61,114 102.93,116.99 100.62,124.96 95.38,122.45 89.83,118.81 84.52,113.49 79.20,108.18 75.56,102.63 73.05,97.38 81.02,95.08 84.01,86.39 84.01,76.00 84.01,63.85 79.94,54 68.58,54 Z" style="filter:url(#filter876);opacity:0.20;fill-rule:evenodd"/>
  <path d="M 68.58,52 C 57.95,52 49.21,60.62 48.13,71.69 47.79,73.96 48.19,76.43 48.43,78.48 49.58,89.80 54.04,108.85 70.60,125.41 87.15,141.97 106.21,146.43 117.52,147.58 118.97,147.86 120.47,148 122,148 122.80,148.02 123.50,147.92 124.32,147.88 135.38,146.80 144,138.06 144,127.43 144,116.07 134.15,112 122,112 111.61,112 102.93,114.99 100.62,122.96 95.38,120.45 89.83,116.81 84.52,111.49 79.20,106.18 75.56,100.63 73.05,95.38 81.02,93.08 84.01,84.39 84.01,74.00 84.01,61.85 79.94,52 68.58,52 Z" style="fill:#ffffff;fill-rule:evenodd"/>
  <path style="opacity:0.10;fill:#ffffff;fill-rule:evenodd" d="M 96,16 A 80,80 0 0 0 16,96 80,80 0 0 0 16.02,96.47 80,80 0 0 1 96,17 80,80 0 0 1 175.97,96.51 80,80 0 0 0 176,96 80,80 0 0 0 96,16 Z"/>
</svg>
