<?xml version='1.0' encoding='utf-8'?>
<svg xmlns="http://www.w3.org/2000/svg" width="192" height="192" version="1" id="svg14">
  <defs>
    <filter style="color-interpolation-filters:sRGB" id="filter850" x="0.05" width="1.10" y="0.05" height="1.10">
      <feGaussianBlur stdDeviation="3.20"/>
    </filter>
    <filter style="color-interpolation-filters:sRGB" id="filter10219" x="0.14" y="0.09" width="1.28" height="1.18">
      <feGaussianBlur stdDeviation="3.51"/>
    </filter>
  </defs>
  <circle style="filter:url(#filter850);opacity:0.20;fill:#000000" cx="96" cy="100" r="80"/>
  <circle r="80" cy="96" cx="96" style="fill:#23a9f2"/>
  <path style="fill:#38adfa" d="m 688.81,257.00 c 0.33,0.33 -1.19,0.37 -1.92,0.08 0.80,0.32 0.56,0.56 0.60,0.60 1.05,0.04 1.64,0.19 1.31,0.53 z"/>
  <path style="opacity:0.20;fill:#ffffff" d="M 96 16 A 80 80 0 0 0 16 96 A 80 80 0 0 0 16.02 96.47 A 80 80 0 0 1 96 17 A 80 80 0 0 1 175.97 96.51 A 80 80 0 0 0 176 96 A 80 80 0 0 0 96 16 z "/>
  <path style="filter:url(#filter10219);opacity:0.20;fill:#000000" d="m 68,49.00 v 91.00 c 8.86,1.41 20.37,3.91 30.76,4 8.56,0.07 16.35,-1.45 21.27,-6.92 6.45,-7.18 9.26,-18.77 8.97,-29.84 0.36,-13.77 -5.43,-26.76 -13.35,-29.49 -3.01,-1.04 -6.88,-1.79 -11.25,-1.74 -6.75,0.07 -14.67,2.08 -22.40,7.88 V 49.00 Z m 34.32,38.00 c 1.71,0.03 3.23,0.19 4.51,0.63 5.20,1.55 8.25,11.59 8.18,22.70 0.05,7.73 -1.28,15.92 -7.33,19.73 -2.73,1.72 -6.18,2.86 -10.43,2.95 C 92.43,133.00 87.08,131.95 82,130.89 V 95.94 c 7.13,-6.19 14.70,-8.86 20.32,-8.95 z"/>
  <path style="fill:#ffffff" d="m 68,47 v 91 c 8.86,1.41 20.37,3.91 30.76,4 8.56,0.07 16.35,-1.45 21.27,-6.92 6.45,-7.18 9.26,-18.77 8.97,-29.84 0.36,-13.77 -5.43,-26.76 -13.35,-29.49 -3.01,-1.04 -6.88,-1.79 -11.25,-1.74 -6.75,0.07 -14.67,2.08 -22.40,7.88 V 47 Z m 34.32,38.00 c 1.71,0.03 3.23,0.19 4.51,0.63 5.20,1.55 8.25,11.59 8.18,22.70 0.05,7.73 -1.28,15.92 -7.33,19.73 -2.73,1.72 -6.18,2.86 -10.43,2.95 C 92.43,131.01 87.08,129.95 82,128.89 V 93.95 c 7.13,-6.19 14.70,-8.86 20.32,-8.95 z"/>
</svg>
