<?xml version='1.0' encoding='utf-8'?>
<svg xmlns="http://www.w3.org/2000/svg" width="192" height="192" version="1" id="svg28">
  <defs>
    <filter style="color-interpolation-filters:sRGB" id="filter18619" x="0.05" y="0.05" width="1.10" height="1.10">
      <feGaussianBlur stdDeviation="3.20"/>
    </filter>
    <filter style="color-interpolation-filters:sRGB" id="filter18779" x="0.05" y="0.16" width="1.10" height="1.32">
      <feGaussianBlur stdDeviation="2.28"/>
    </filter>
    <filter style="color-interpolation-filters:sRGB" id="filter18821" x="0.07" y="0.07" width="1.15" height="1.15">
      <feGaussianBlur stdDeviation="3.75"/>
    </filter>
    <filter style="color-interpolation-filters:sRGB" id="filter18863" x="0.09" y="0.14" width="1.17" height="1.29">
      <feGaussianBlur stdDeviation="3.12"/>
    </filter>
  </defs>
  <path style="filter:url(#filter18779);opacity:0.20;fill:#000000" d="M 64,26 V 60 H 176 V 38.05 C 176,31.38 170.65,26 164,26 Z"/>
  <path style="fill:#1e88e5" d="M 64,24 V 58 H 176 V 36.05 C 176,29.38 170.65,24 164,24 Z"/>
  <rect style="filter:url(#filter18821);opacity:0.20;fill:#000000" width="120" height="120" x="46" y="35" rx="5.14" ry="5.14"/>
  <rect style="fill:#ffffff" width="120" height="120" x="46" y="33" rx="5.14" ry="5.14"/>
  <path style="opacity:0.10;fill:#ffffff" d="M 64 24 L 64 25 L 164 25 C 170.65 25 176 30.38 176 37.05 L 176 36.05 C 176 29.38 170.65 24 164 24 L 64 24 z "/>
  <path style="filter:url(#filter18619);opacity:0.20;fill:#000000" d="M 176,168 V 60.18 C 176,53.53 170.65,47.99 164,48 H 86.27 c -1.12,0 -2.08,0.23 -2.90,-1.96 L 71.92,21.88 C 71.25,20.02 69.88,20 69.15,20 H 28 c -6.65,0 -12,5.35 -12,12 v 136 c 0,6.65 5.35,12 12,12 h 136 c 6.65,0 12,-5.35 12,-12 z"/>
  <path style="fill:#ffca28" d="m -164,-176 h 107.82 c 6.65,0 12.19,5.35 12.18,12 v 77.73 c 0,1.12 0.23,2.08 1.96,2.90 l 24.16,11.44 C -16.02,-71.25 -16,-69.88 -16,-69.15 V -28 c 0,6.65 -5.35,12 -12,12 h -136 c -6.65,0 -12,-5.35 -12,-12 v -136 c 0,-6.65 5.35,-12 12,-12 z" transform="matrix(0,-1,-1,0,0,0)"/>
  <path style="filter:url(#filter18863);opacity:0.20;fill:#000000" d="m 52,84 v 10 9 10 23 L 64,124 V 113 H 75 L 85,103 H 64 V 94 H 94 L 104,84 H 64 Z m 69.10,0 -26.00,26 26.00,26 h 17.43 l -26,-26 26,-26 z"/>
  <path style="fill:#1e88e5" d="m 52,82 v 10 9 10 23 L 64,122 V 111 H 75 L 85,101 H 64 V 92 H 94 L 104,82 H 64 Z m 69.10,0 -26.00,26 26.00,26 h 17.43 l -26,-26 26,-26 z"/>
  <path style="opacity:0.20;fill:#ffffff" d="M 28 16 C 21.35 16 16 21.35 16 28 L 16 29 C 16 22.35 21.35 17 28 17 L 69.15 17 C 69.88 17 71.25 17.02 71.92 18.88 L 78.61 33 L 79.08 33 L 71.92 17.88 C 71.25 16.02 69.88 16 69.15 16 L 28 16 z M 166 44.18 L 166 45.18 C 171.69 46.15 176 51.21 176 57.18 L 176 56.18 C 176 50.21 171.69 45.15 166 44.18 z "/>
</svg>
