<?xml version='1.0' encoding='utf-8'?>
<svg xmlns="http://www.w3.org/2000/svg" width="192" height="192" version="1" id="svg28">
  <defs>
    <filter style="color-interpolation-filters:sRGB" id="filter6495" x="0.05" y="0.05" width="1.10" height="1.10">
      <feGaussianBlur stdDeviation="3.20"/>
    </filter>
    <filter style="color-interpolation-filters:sRGB" id="filter2307" x="0.08" y="0.17" width="1.16" height="1.35">
      <feGaussianBlur stdDeviation="3.92"/>
    </filter>
  </defs>
  <rect transform="matrix(0,-1,-1,0,0,0)" ry="12" rx="12" y="-176" x="-180" height="160" width="160" style="filter:url(#filter6495);opacity:0.20;fill:#000000"/>
  <rect transform="matrix(0,-1,-1,0,0,0)" ry="12" rx="12" y="-176" x="-176" height="160" width="160" style="fill:#e4e4e4"/>
  <path style="opacity:0.20;fill:#ffffff" d="m 28,16 c -6.65,0 -12,5.35 -12,12 v 1 c 0,-6.65 5.35,-12 12,-12 h 136 c 6.65,0 12,5.35 12,12 v -1 c 0,-6.65 -5.35,-12 -12,-12 z"/>
  <path d="M 134.60,83 H 128 v 6 h 7.10 c 1.62,0 2.90,1.41 2.90,3 0,1.60 -1.29,3 -2.90,3 H 128 v 7 h 6.60 C 139.97,102 144,97.54 144,92.22 144,86.89 139.96,83.34 134.60,83 Z m -38.81,35 c 8.15,0 15.18,-4.15 18.46,-11 H 123 v 11 h 5 v -11 h 6.60 C 142.66,107 149,100.20 149,92.22 149,84.23 142.66,78.17 134.60,78 H 123 v 17 h -7.00 C 114.59,85.19 106.08,78 95.79,78 H 71.84 L 48.02,118 h 5.68 L 60.51,107 H 85 v 11 z M 156,92.22 c 0,11.72 -9.18,21.21 -21,21.21 V 125 h -19 v -9.03 C 111.00,121.51 103.87,125 95.79,125 H 78 V 113 H 64.42 L 57.61,125 H 36 L 67.77,71 H 95.79 c 8.08,0 15.21,3.50 20.21,9.04 v -9.04 h 18.60 C 146.42,71.00 156,80.50 156,92.22 Z M 78,83 V 95 H 67.32 l -3.97,7 H 85 V 83 Z m 33.36,15 c 0,8.52 -6.97,15 -15.57,15 H 90 v -6 h 5.79 C 100.63,107 105,102.80 105,98 c 0,-4.79 -4.37,-9 -9.21,-9 H 90 v -6 h 5.79 c 8.59,0 15.57,6.48 15.57,15" style="filter:url(#filter2307);opacity:0.20;fill:#000000;fill-rule:nonzero"/>
  <path d="M 134.60,81 H 128 v 6 h 7.10 c 1.62,0 2.90,1.41 2.90,3 0,1.60 -1.29,3 -2.90,3 H 128 v 7 h 6.60 C 139.97,100 144,95.54 144,90.22 144,84.89 139.96,81.34 134.60,81 Z m -38.81,35 c 8.15,0 15.18,-4.15 18.46,-11 H 123 v 11 h 5 v -11 h 6.60 C 142.66,105 149,98.20 149,90.22 149,82.23 142.66,76.17 134.60,76 H 123 v 17 h -7.00 C 114.59,83.19 106.08,76 95.79,76 H 71.84 L 48.02,116 h 5.68 L 60.51,105 H 85 v 11 z M 156,90.22 c 0,11.72 -9.18,21.21 -21,21.21 V 123 h -19 v -9.03 C 111.00,119.51 103.87,123 95.79,123 H 78 V 111 H 64.42 L 57.61,123 H 36 L 67.77,69 H 95.79 c 8.08,0 15.21,3.50 20.21,9.04 v -9.04 h 18.60 C 146.42,69.00 156,78.50 156,90.22 Z M 78,81 V 93 H 67.32 l -3.97,7 H 85 V 81 Z m 33.36,15 c 0,8.52 -6.97,15 -15.57,15 H 90 v -6 h 5.79 C 100.63,105 105,100.80 105,96 c 0,-4.79 -4.37,-9 -9.21,-9 H 90 v -6 h 5.79 c 8.59,0 15.57,6.48 15.57,15" style="fill:#d0271d;fill-rule:nonzero"/>
</svg>
