<?xml version='1.0' encoding='utf-8'?>
<svg xmlns="http://www.w3.org/2000/svg" width="192" height="192" version="1.1" id="svg14">
  <defs>
    <filter style="color-interpolation-filters:sRGB" id="filter849" x="-0.048000001" y="-0.048000001" width="1.096" height="1.096">
      <feGaussianBlur stdDeviation="3.2"/>
    </filter>
    <filter style="color-interpolation-filters:sRGB" id="filter3255" x="-0.071999998" y="-0.035999999" width="1.144" height="1.072">
      <feGaussianBlur stdDeviation="1.68"/>
    </filter>
  </defs>
  <circle style="filter:url(#filter849);opacity:0.2" cx="96" cy="100" r="80"/>
  <circle style="fill:#e4e4e4" cx="96" cy="96" r="80"/>
  <path style="filter:url(#filter3255);opacity:0.2;fill:#000000;color:#000000" d="M 96,42 68,58.841797 V 75 L 96,58.158203 124,75 V 58.841797 Z M 68,89 v 37 c 0,15.38105 12.618955,28 28,28 15.38105,0 28,-12.61895 28,-28 V 89 h -14 v 37 c 0,7.81489 -6.18511,14 -14,14 -7.814891,0 -14,-6.18511 -14,-14 V 89 Z"/>
  <path style="opacity:0.2;fill:#ffffff" d="M 96,16 A 80,80 0 0 0 16,96 80,80 0 0 0 16.023438,96.638672 80,80 0 0 1 96,17 80,80 0 0 1 175.98438,96.302734 80,80 0 0 0 176,96 80,80 0 0 0 96,16 Z"/>
  <path style="fill:#444444;color:#000000" d="M 68 87 L 68 124 C 68 139.38105 80.618955 152 96 152 C 111.38105 152 124 139.38105 124 124 L 124 87 L 110 87 L 110 124 C 110 131.81489 103.81489 138 96 138 C 88.185109 138 82 131.81489 82 124 L 82 87 L 68 87 z "/>
  <path style="fill:#af4df2" d="M 96,40 68,56.841243 V 73 L 96,56.158757 124,73 V 56.841243 Z"/>
</svg>
