<?xml version='1.0' encoding='utf-8'?>
<svg xmlns="http://www.w3.org/2000/svg" width="192" height="192" version="1.1" id="svg14">
  <defs>
    <filter style="color-interpolation-filters:sRGB" id="filter4399" x="0.04" y="0.05" width="1.09" height="1.10">
      <feGaussianBlur stdDeviation="3.04"/>
    </filter>
    <filter style="color-interpolation-filters:sRGB" id="filter4571" x="0.05" y="0.14" width="1.10" height="1.27">
      <feGaussianBlur stdDeviation="2.09"/>
    </filter>
  </defs>
  <path style="filter:url(#filter4399);opacity:0.20;fill:#000000" d="m 109.10,169.63 c 33.49,-1.66 52.66,-8.59 61.81,-22.33 2.78,-4.18 3.76,-6.28 5.15,-11.03 2.93,-10.03 2.53,-25.12 -1.06,-40.00 -5.15,-21.35 -17.31,-39.73 -34.11,-51.58 -7.52,-5.31 -17.18,-9.89 -25.56,-12.14 -7.79,-2.09 -11.89,-2.55 -22.76,-2.55 -8.62,0.01 -10.91,0.14 -15.67,0.97 -13.72,2.40 -23.61,7.36 -32.51,16.31 -7.35,7.39 -13.20,17.47 -20.03,34.53 -5.42,13.54 -8.77,25.03 -9.99,34.26 0.74,5.63 0.31,16.24 0.83,20.46 4.44,16.43 19.00,26.63 44.18,30.98 13.01,2.24 31.42,3.03 49.72,2.12 z"/>
  <path style="fill:#27acff" d="m 109.10,165.63 c 33.49,-1.66 52.66,-8.59 61.81,-22.33 2.78,-4.18 3.76,-6.28 5.15,-11.03 2.93,-10.03 2.53,-25.12 -1.06,-40.00 -5.15,-21.35 -17.31,-39.73 -34.11,-51.58 -7.52,-5.31 -17.18,-9.89 -25.56,-12.14 -7.79,-2.09 -11.89,-2.55 -22.76,-2.55 -8.62,0.01 -10.91,0.14 -15.67,0.97 -13.72,2.40 -23.61,7.36 -32.51,16.31 -7.35,7.39 -13.20,17.47 -20.03,34.53 -5.42,13.54 -8.77,25.03 -9.99,34.26 0.74,5.63 0.31,16.24 0.83,20.46 4.44,16.43 19.00,26.63 44.18,30.98 13.01,2.24 31.42,3.03 49.72,2.12 z"/>
  <path style="filter:url(#filter4571);opacity:0.20;fill:#000000" d="M 59.50,99 A 11.50,11.50 0 0 0 48,110.50 11.50,11.50 0 0 0 59.50,122 11.50,11.50 0 0 0 71,110.50 11.50,11.50 0 0 0 59.50,99 Z m 74,0 A 11.50,11.50 0 0 0 122,110.50 11.50,11.50 0 0 0 133.50,122 11.50,11.50 0 0 0 145,110.50 11.50,11.50 0 0 0 133.50,99 Z m -29.34,24.01 a 2,2 0 0 0 -2.15,1.84 c 0,0 0.18,1.93 -1.07,3.79 C 100.03,130.49 98.82,132 96,132 c -2.91,0 -4.11,-1.37 -4.97,-2.96 0.87,-1.59 -1.03,-3.22 -1.03,-3.22 a 2,2 0 0 0 -2.17,-1.81 2,2 0 0 0 -1.81,2.17 c 0,0 0.19,2.37 1.50,4.78 C 88.83,133.37 91.63,136 96,136 c 4.47,0 7.25,-2.99 8.53,-5.63 1.28,-2.64 1.46,-5.21 1.46,-5.21 a 2,2 0 0 0 -1.84,-2.15 z"/>
  <circle style="fill:#333333" cx="59.50" cy="108.50" r="11.50"/>
  <circle style="fill:#ffffff" cx="59.50" cy="102.50" r="2.50"/>
  <circle style="fill:#333333" cx="-133.50" cy="108.50" r="11.50" transform="scale(-1,1)"/>
  <circle style="fill:#ffffff" cx="-133.50" cy="102.50" r="2.50" transform="scale(-1,1)"/>
  <path style="fill:#333333;color:#000000" d="m 104.16,121.01 a 2,2 0 0 0 -2.15,1.84 c 0,0 0.18,1.93 -1.07,3.79 C 100.03,128.49 98.82,130 96,130 c -2.91,0 -4.11,-1.37 -4.97,-2.96 0.87,-1.59 -1.03,-3.22 -1.03,-3.22 a 2,2 0 0 0 -2.17,-1.81 2,2 0 0 0 -1.81,2.17 c 0,0 0.19,2.37 1.50,4.78 C 88.83,131.37 91.63,134 96,134 c 4.47,0 7.25,-2.99 8.53,-5.63 1.28,-2.64 1.46,-5.21 1.46,-5.21 a 2,2 0 0 0 -1.84,-2.15 z"/>
  <path style="opacity:0.20;fill:#ffffff" d="M 92.56 26 C 83.94 25.99 81.66 26.14 76.90 26.97 C 63.17 29.37 53.28 34.33 44.38 43.28 C 37.03 50.67 31.18 60.75 24.35 77.81 C 18.93 91.35 15.58 102.84 14.37 112.07 C 14.16 113.68 14.06 115.72 14.03 117.88 C 14.08 116.09 14.19 114.43 14.37 113.07 C 15.58 103.84 18.93 92.35 24.35 78.81 C 31.18 61.75 37.03 51.67 44.38 44.28 C 53.28 35.33 63.17 30.37 76.90 27.97 C 81.66 27.14 83.94 26.99 92.56 27 C 103.44 27.01 107.54 27.47 115.33 29.55 C 123.70 31.80 133.36 36.38 140.88 41.69 C 157.69 53.55 169.84 71.93 174.99 93.27 C 176.78 100.69 177.78 108.16 177.96 115.04 C 177.85 107.89 176.87 100.06 174.99 92.27 C 169.84 70.93 157.69 52.55 140.88 40.69 C 133.36 35.38 123.70 30.80 115.33 28.55 C 107.54 26.47 103.44 26.01 92.56 26 z "/>
</svg>
