<?xml version='1.0' encoding='utf-8'?>
<svg xmlns="http://www.w3.org/2000/svg" width="192" height="192" version="1" id="svg28">
  <defs>
    <filter style="color-interpolation-filters:sRGB" id="filter13769" x="0.07" y="0.08" width="1.14" height="1.16">
      <feGaussianBlur stdDeviation="4.16"/>
    </filter>
    <filter style="color-interpolation-filters:sRGB" id="filter13811" x="0.08" y="0.07" width="1.15" height="1.15">
      <feGaussianBlur stdDeviation="2.19"/>
    </filter>
    <filter style="color-interpolation-filters:sRGB" id="filter13901" x="0.14" y="0.09" width="1.28" height="1.17">
      <feGaussianBlur stdDeviation="2.90"/>
    </filter>
  </defs>
  <path style="filter:url(#filter13811);opacity:0.20;fill:#000000" d="M 96,18 C 77.22,18 62,37.22 62,56 62,74.78 77.22,90 96,90 114.78,90 130,74.78 130,56 130,37.22 114.78,18 96,18 Z m 0,11 c 12.70,0.00 23,14.30 23,27 0,12.70 -10.30,23.00 -23,23 -12.70,0.00 -23.00,-10.30 -23,-23 0.00,-12.70 10.30,-27.00 23,-27 z"/>
  <path style="fill:#ff892e" d="M 96,16 C 77.22,16 62,35.22 62,54 62,72.78 77.22,88 96,88 114.78,88 130,72.78 130,54 130,35.22 114.78,16 96,16 Z m 0,11 c 12.70,0.00 23,14.30 23,27 0,12.70 -10.30,23.00 -23,23 -12.70,0.00 -23.00,-10.30 -23,-23 0.00,-12.70 10.30,-27.00 23,-27 z"/>
  <path style="filter:url(#filter13769);opacity:0.20;fill:#000000;mix-blend-mode:normal" d="m 43.25,57.00 c -16.58,0.01 -17.05,0.03 -18.14,0.88 -1.01,0.78 -1.12,1.14 -1.12,3.67 0.00,1.54 1.05,26.05 2.34,53.97 1.79,38.71 2.50,51.32 2.99,53.08 1.31,4.65 4.97,8.57 9.23,9.90 1.39,0.43 12.70,0.54 57.43,0.48 44.73,0.06 56.04,0.05 57.43,0.48 4.26,-1.33 7.92,-5.25 9.23,-9.90 0.50,-1.76 1.21,-14.37 2.99,-53.08 1.29,-27.92 2.34,-52.43 2.34,-53.97 0.00,-2.53 0.11,-2.89 -1.12,-3.67 -1.09,0.85 -1.56,0.89 -18.14,0.88 l -17.02,0.01 0.00,0.01 H 96.00 60.27 l 0.00,0.01 z"/>
  <path style="opacity:0.20;fill:#ffffff" d="M 96 16 C 77.22 16 62 35.22 62 54 C 62 54.17 62.01 54.33 62.01 54.50 C 62.28 35.88 77.39 17 96 17 C 114.61 17 129.72 35.88 129.99 54.50 C 129.99 54.33 130 54.17 130 54 C 130 35.22 114.78 16 96 16 z M 73.01 54.50 C 73.01 54.67 73 54.83 73 55 C 73.00 67.70 83.30 78.00 96 78 C 108.70 78.00 119 67.70 119 55 C 119 54.83 118.99 54.67 118.99 54.50 C 118.72 66.97 108.54 77.00 96 77 C 83.46 77.00 73.28 66.97 73.01 54.50 z "/>
  <path style="fill:#fa522e" d="m 43.25,54.00 c -16.58,0.01 -17.05,0.03 -18.14,0.88 -1.01,0.78 -1.12,1.14 -1.12,3.67 0.00,1.54 1.05,26.05 2.34,53.97 1.79,38.71 2.50,51.32 2.99,53.08 1.31,4.65 4.97,8.57 9.23,9.90 1.39,0.43 12.70,0.54 57.43,0.48 44.73,0.06 56.04,0.05 57.43,0.48 4.26,-1.33 7.92,-5.25 9.23,-9.90 0.50,-1.76 1.21,-14.37 2.99,-53.08 1.29,-27.92 2.34,-52.43 2.34,-53.97 0.00,-2.53 0.11,-2.89 -1.12,-3.67 -1.09,0.85 -1.56,0.89 -18.14,0.88 l -17.02,0.01 0.00,0.01 H 96.00 60.27 l 0.00,0.01 z"/>
  <g aria-label="S" style="filter:url(#filter13901);opacity:0.20;fill:#000000" transform="matrix(1.02,0,0,1,-1.36,2.33)">
    <path d="m 120.30,132.76 q 0,10.35 -7.52,16.13 -7.52,5.78 -20.27,5.78 -6.54,0 -12.10,0.98 -5.56,0.98 -9.26,-2.72 v -9.37 q 3.92,1.74 9.70,3.16 5.89,1.42 12.10,1.42 8.72,0 13.08,-3.38 4.47,-3.38 4.47,-9.16 0,-3.81 -1.63,-6.43 -1.63,-2.62 -5.67,-4.80 -3.92,-2.29 -11.01,-4.80 -9.92,-3.60 -15.04,-8.83 -5.01,-5.23 -5.01,-14.28 0,-6.21 3.16,-10.57 3.16,-4.47 8.72,-6.87 5.67,-2.40 12.97,-2.40 6.43,0 11.77,1.20 5.34,1.20 9.70,3.16 l -3.05,8.39 q -4.03,-1.74 -8.83,-2.94 -4.69,-1.20 -9.81,-1.20 -7.30,0 -11.01,3.16 -3.71,3.05 -3.71,8.17 0,3.92 1.63,6.54 1.63,2.62 5.34,4.69 3.71,2.07 10.03,4.47 6.87,2.51 11.55,5.45 4.80,2.83 7.19,6.87 2.51,4.03 2.51,10.14 z" style="fill:#000000"/>
  </g>
  <g aria-label="S" style="fill:#ffffff" transform="matrix(1.02,0,0,1,-1.36,0.33)">
    <path d="m 120.30,132.76 q 0,10.35 -7.52,16.13 -7.52,5.78 -20.27,5.78 -6.54,0 -12.10,0.98 -5.56,0.98 -9.26,-2.72 v -9.37 q 3.92,1.74 9.70,3.16 5.89,1.42 12.10,1.42 8.72,0 13.08,-3.38 4.47,-3.38 4.47,-9.16 0,-3.81 -1.63,-6.43 -1.63,-2.62 -5.67,-4.80 -3.92,-2.29 -11.01,-4.80 -9.92,-3.60 -15.04,-8.83 -5.01,-5.23 -5.01,-14.28 0,-6.21 3.16,-10.57 3.16,-4.47 8.72,-6.87 5.67,-2.40 12.97,-2.40 6.43,0 11.77,1.20 5.34,1.20 9.70,3.16 l -3.05,8.39 q -4.03,-1.74 -8.83,-2.94 -4.69,-1.20 -9.81,-1.20 -7.30,0 -11.01,3.16 -3.71,3.05 -3.71,8.17 0,3.92 1.63,6.54 1.63,2.62 5.34,4.69 3.71,2.07 10.03,4.47 6.87,2.51 11.55,5.45 4.80,2.83 7.19,6.87 2.51,4.03 2.51,10.14 z" style="fill:#ffffff"/>
  </g>
  <path style="opacity:0.20;fill:#ffffff" d="M 43.25 54.00 C 26.68 53.99 26.20 54.04 25.12 54.88 C 24.11 55.67 24.00 56.03 24 58.55 C 24.00 58.57 24.01 58.88 24.01 58.90 C 24.04 57.03 24.22 56.58 25.12 55.88 C 26.20 55.03 26.68 54.99 43.25 55.00 L 60.27 55.01 L 60.27 55.00 L 96 55.00 L 131.73 55.00 L 131.73 55.01 L 148.75 55.00 C 165.32 54.99 165.80 55.03 166.88 55.88 C 167.78 56.58 167.96 57.03 167.99 58.90 C 167.99 58.88 168 58.57 168 58.55 C 168.00 56.03 167.89 55.67 166.88 54.88 C 165.80 54.04 165.32 53.99 148.75 54.00 L 131.73 54.01 L 131.73 54.00 L 96 54.00 L 60.27 54.00 L 60.27 54.01 L 43.25 54.00 z "/>
</svg>
