<?xml version='1.0' encoding='utf-8'?>
<svg xmlns="http://www.w3.org/2000/svg" width="192" height="192" version="1" id="svg28">
  <defs>
    <filter style="color-interpolation-filters:sRGB" id="filter4547" x="0.04" y="0.05" width="1.09" height="1.10">
      <feGaussianBlur stdDeviation="3"/>
    </filter>
    <filter style="color-interpolation-filters:sRGB" id="filter1227" x="0.04" y="0.06" width="1.08" height="1.12">
      <feGaussianBlur stdDeviation="2.63"/>
    </filter>
  </defs>
  <path style="filter:url(#filter4547);opacity:0.20;fill:#000000;stop-color:#000000" d="M 28.24,30 C 21.46,30 16,35.38 16,42.07 V 157.93 C 16,164.62 21.46,170 28.24,170 h 16.72 c 5.04,0 8.53,-2.47 8.53,-2.47 C 62.92,162.09 78.68,154.61 79,143.42 V 42.07 C 79,35.38 73.54,30 66.76,30 Z m 97.00,0 C 118.46,30 113,35.38 113,42.07 V 143.42 c 0.32,11.19 16.08,18.67 25.50,24.11 0,0 3.49,2.47 8.53,2.47 h 16.72 C 170.54,170 176,164.62 176,157.93 V 42.07 C 176,35.38 170.54,30 163.76,30 Z"/>
  <path style="fill:#0b80f9;stop-color:#000000" d="m 32.17,36.81 c -6.68,1.19 -3.75,0.61 -8.52,4.09 L 16,48.45 V 153.93 C 16,160.62 21.46,166 28.24,166 h 16.72 c 5.04,0 8.53,-2.47 8.53,-2.47 C 62.92,158.09 78.68,150.61 79,139.42 v -20.72 L 76.05,38.96 c 0.25,-6.68 -4.31,-9.19 -10.99,-8.01 z m 93.26,-1.97 c -6.70,1.06 -9.30,-1.95 -9.55,4.73 L 113,115.29 v 24.13 c 0.32,11.19 16.08,18.67 25.50,24.11 0,0 3.49,2.47 8.53,2.47 h 16.72 C 170.54,166 176,160.62 176,153.93 V 47.57 l -3.78,-7.15 c -3.13,-5.91 -2.66,-12.54 -9.36,-11.48 z"/>
  <path style="filter:url(#filter1227);opacity:0.20;fill:#000000;stop-color:#000000" d="M 28.24,30 C 21.46,30 16,35.38 16,42.07 v 10.53 l 0.48,0.54 C 31.92,74.55 49.36,94.92 67.33,115.01 79.49,128.61 86.39,133 96,133 c 9.61,0 16.51,-4.39 28.67,-17.99 17.96,-20.10 35.41,-40.46 50.85,-61.87 L 176,52.60 V 42.07 C 176,35.38 170.54,30 163.76,30 h 0.83 -45.17 C 109.01,30 102.70,44.75 96,45 89.30,44.75 82.99,30 74.24,30 H 29.07 Z"/>
  <path style="fill:#1adcf9;stop-color:#000000" d="M 28.24,26 C 21.46,26 16,31.38 16,38.07 v 10.53 l 0.48,0.54 C 31.92,70.55 49.36,90.92 67.33,111.01 79.49,124.61 86.39,129 96,129 c 9.61,0 16.51,-4.39 28.67,-17.99 17.96,-20.10 35.41,-40.46 50.85,-61.87 L 176,48.60 V 38.07 C 176,31.38 170.54,26 163.76,26 h 0.83 -45.17 C 109.01,26 102.70,40.75 96,41 89.30,40.75 82.99,26 74.24,26 H 29.07 Z"/>
  <path style="opacity:0.20;fill:#ffffff;stop-color:#000000" d="M 28.24 26 C 21.46 26 16 31.38 16 38.07 L 16 39.07 C 16 32.38 21.46 27 28.24 27 L 29.07 27 L 74.24 27 C 82.99 27 89.30 41.75 96 42 C 102.70 41.75 109.01 27 117.76 27 L 162.93 27 L 163.76 27 C 170.54 27 176 32.38 176 39.07 L 176 38.07 C 176 31.38 170.54 26 163.76 26 L 162.93 26 L 117.76 26 C 109.01 26 102.70 40.75 96 41 C 89.30 40.75 82.99 26 74.24 26 L 29.07 26 L 28.24 26 z "/>
</svg>
