<?xml version='1.0' encoding='utf-8'?>
<svg xmlns="http://www.w3.org/2000/svg" width="192" height="192" version="1" id="svg12">
  <defs>
    <filter style="color-interpolation-filters:sRGB" id="filter860" x="-0.048000001" width="1.096" y="-0.048000001" height="1.096">
      <feGaussianBlur stdDeviation="3.2"/>
    </filter>
    <filter style="color-interpolation-filters:sRGB" id="filter874" x="-0.041882211" width="1.0837644" y="-0.056210779" height="1.1124216">
      <feGaussianBlur stdDeviation="2.233718"/>
    </filter>
  </defs>
  <rect style="filter:url(#filter860);opacity:0.2" width="160" height="160" x="16" y="20" rx="8" ry="8"/>
  <rect style="fill:#0061bd" width="160" height="160" x="16" y="16" rx="8" ry="8"/>
  <path style="opacity:0.1;fill:#ffffff" d="m 24,16 c -4.432,0 -8,3.568 -8,8 v 1 c 0,-4.432 3.568,-8 8,-8 h 144 c 4.432,0 8,3.568 8,8 v -1 c 0,-4.432 -3.568,-8 -8,-8 z"/>
  <path d="m 84,52.000412 -45.964844,2 C 34.69532,54.145704 32,56.676848 32,60.002365 v 77.996095 c 0,3.32552 2.703202,6.27342 6.035156,6.00195 0,0 27.548128,-2 38.623047,-2 11.07492,0 19.341797,7.86849 19.341797,4.54297 0,3.32552 8.26688,-4.54297 19.3418,-4.54297 11.07492,0 38.62304,2 38.62304,2 C 157.2968,144.27188 160,141.32398 160,137.99846 V 60.002365 c 0,-3.325517 -2.69532,-5.856661 -6.03516,-6.001953 l -45.96484,-2 C 101.16696,51.703157 96,58.676848 96,62.002365 96,58.676848 90.83304,51.703157 84,52.000412 Z" style="filter:url(#filter874);opacity:0.2;fill:#000000"/>
  <path style="fill:#ffffff" d="M 84,50 38.035156,52 C 34.69532,52.145292 32,54.676436 32,58.001953 v 77.996097 c 0,3.32552 2.703202,6.27342 6.035156,6.00195 0,0 27.548128,-2 38.623047,-2 C 87.733123,140 96,147.86849 96,144.54297 96,147.86849 104.26688,140 115.3418,140 c 11.07492,0 38.62304,2 38.62304,2 C 157.2968,142.27147 160,139.32357 160,135.99805 V 58.001953 C 160,54.676436 157.30468,52.145292 153.96484,52 L 108,50 C 101.16696,49.702745 96,56.676436 96,60.001953 96,56.676436 90.83304,49.702745 84,50 Z"/>
  <path d="M 38.034286,51.999631 84,50 c 6.83304,-0.297255 12,6.677221 12,10.002738 V 144.54271 C 96,147.86823 87.73226,140 76.65734,140 65.582421,140 38.034286,142 38.034286,142 34.702332,142.27147 32,139.32278 32,135.99726 V 58.002369 c 0,-3.325517 2.69445,-5.857446 6.034286,-6.002738 z" style="opacity:0.1;fill:#000000"/>
  <rect style="fill:#fd9504" width="38" height="12" x="44" y="70" rx="5.9046154" ry="6.0599999"/>
  <rect ry="6.0599999" rx="5.9046154" y="90" x="44" height="12" width="38" style="fill:#fd9504"/>
  <rect style="fill:#fd9504" width="38" height="12" x="44" y="110" rx="5.9046154" ry="6.0599999"/>
  <rect ry="6.0599999" rx="5.9046154" y="70" x="110" height="12" width="38" style="fill:#fd9504"/>
  <rect style="fill:#fd9504" width="38" height="12" x="110" y="90" rx="5.9046154" ry="6.0599999"/>
</svg>
