<?xml version='1.0' encoding='utf-8'?>
<svg xmlns="http://www.w3.org/2000/svg" width="192" height="192" version="1" id="svg16">
  <defs>
    <filter style="color-interpolation-filters:sRGB" id="filter878" x="0.05" width="1.10" y="0.05" height="1.10">
      <feGaussianBlur stdDeviation="3.20"/>
    </filter>
    <filter style="color-interpolation-filters:sRGB" id="filter851" x="0.05" width="1.10" y="0.05" height="1.10">
      <feGaussianBlur stdDeviation="2.24"/>
    </filter>
  </defs>
  <rect style="filter:url(#filter878);opacity:0.20" width="160" height="160" x="16" y="20" rx="48" ry="48"/>
  <rect style="fill:#179cd8" width="160" height="160" x="16" y="16" rx="48" ry="48"/>
  <path style="opacity:0.20;fill:#ffffff" d="M 64 16 C 37.41 16 16 37.41 16 64 L 16 65 C 16 38.41 37.41 17 64 17 L 128 17 C 154.59 17 176 38.41 176 65 L 176 64 C 176 37.41 154.59 16 128 16 L 64 16 z "/>
  <path style="filter:url(#filter851);opacity:0.20;fill:#000000;fill-rule:evenodd" d="M 152.00,81.02 C 141.50,36.66 101.19,37.03 76.85,48.61 51.24,61.55 32.70,94.73 42.81,122.51 c 15.64,41.91 73.19,41.28 92.66,2.31 6.34,-14.85 6.48,-22.84 -3.47,-38.84 v 15.99 l -8,-12.00 c 0,0 -4.97,14.17 -10.25,19.53 -7.35,7.46 -18.43,1.88 -17.75,4.46 1.96,7.42 16,12.00 16,12.00 C 72,140.10 71.56,113.34 72,105.97 73.26,84.78 91.90,68.76 114.35,69.94 121.51,70.49 136,77.98 136,77.98 130.85,66.19 120.31,61.00 116,58.79 c 16.90,-5.59 28.32,12.06 36,22.22 z"/>
  <path d="M 152.00,79.02 C 141.50,34.66 101.19,35.03 76.85,46.61 51.24,59.55 32.70,92.73 42.81,120.51 c 15.64,41.91 73.19,41.28 92.66,2.31 6.34,-14.85 6.48,-22.84 -3.47,-38.84 v 15.99 l -8,-12.00 c 0,0 -4.97,14.17 -10.25,19.53 -7.35,7.46 -18.43,1.88 -17.75,4.46 1.96,7.42 16,12.00 16,12.00 -40,14.14 -40.44,-12.63 -40,-19.99 1.26,-21.19 19.90,-37.21 42.35,-36.03 7.16,0.55 21.65,8.04 21.65,8.04 -5.15,-11.79 -15.69,-16.99 -20,-19.19 16.90,-5.59 28.32,12.06 36,22.22 z" style="fill:#ffffff;fill-rule:evenodd"/>
</svg>
