<?xml version='1.0' encoding='utf-8'?>
<svg xmlns="http://www.w3.org/2000/svg" width="192" height="192" version="1" id="svg12">
  <defs>
    <filter style="color-interpolation-filters:sRGB" id="filter34370" x="-0.031499999" y="-0.1008" width="1.063" height="1.2016">
      <feGaussianBlur stdDeviation="2.1"/>
    </filter>
    <filter style="color-interpolation-filters:sRGB" id="filter34374" x="-0.045071118" y="-0.051336" width="1.0901422" height="1.102672">
      <feGaussianBlur stdDeviation="3.0047411"/>
    </filter>
    <filter style="color-interpolation-filters:sRGB" id="filter34467" x="-0.071985418" y="-0.075414146" width="1.1439708" height="1.1508283">
      <feGaussianBlur stdDeviation="2.6394653"/>
    </filter>
  </defs>
  <path style="filter:url(#filter34374);opacity:0.2;fill:#000000" d="M 52,20 C 32.056,20 16,36.056 16,56 v 75.45262 c 3.991729,-0.73951 8.011793,-1.05282 12.013672,-1.05273 31.68683,7.1e-4 62.203721,22.64549 67.986328,30.07422 5.78261,-7.42873 36.2995,-30.07351 67.98633,-30.07422 4.00188,-9e-5 8.02194,0.31322 12.01367,1.05273 V 56 C 176,36.056 159.944,20 140,20 Z"/>
  <path style="fill:#ff7f00" d="M 52,16 C 32.056,16 16,32.056 16,52 v 75.45262 c 3.991729,-0.73951 8.011793,-1.05282 12.013672,-1.05273 31.68683,7.1e-4 62.203721,22.64549 67.986328,30.07422 5.78261,-7.42873 36.2995,-30.07351 67.98633,-30.07422 4.00188,-9e-5 8.02194,0.31322 12.01367,1.05273 V 52 C 176,32.056 159.944,16 140,16 Z"/>
  <path style="filter:url(#filter34370);opacity:0.2;fill:#000000" d="M 28.013672,130 C 24.011793,129.99991 19.991729,130.31322 16,131.05273 V 144 c 0,19.944 16.056,36 36,36 h 44 44 c 19.944,0 36,-16.056 36,-36 V 131.05273 C 172.00827,130.31322 167.98821,129.99991 163.98633,130 132.2995,130.00071 101.78261,152.64549 96,160.07422 90.217393,152.64549 59.700502,130.00071 28.013672,130 Z"/>
  <path style="fill:#ffd7c3" d="M 28.013672 126 C 24.011793 125.99991 19.991729 126.31322 16 127.05273 L 16 140 C 16 159.944 32.056 176 52 176 L 96 176 L 140 176 C 159.944 176 176 159.944 176 140 L 176 127.05273 C 172.00827 126.31322 167.98821 125.99991 163.98633 126 C 132.2995 126.00071 101.78261 148.64549 96 156.07422 C 90.217393 148.64549 59.700502 126.00071 28.013672 126 z "/>
  <path style="opacity:0.2;fill:#ffffff" d="M 28.013672 126 C 24.011793 125.99991 19.991729 126.31322 16 127.05273 L 16 128.05273 C 19.991729 127.31322 24.011793 126.99991 28.013672 127 C 59.700502 127.00071 90.217393 149.64549 96 157.07422 C 101.78261 149.64549 132.2995 127.00071 163.98633 127 C 167.98821 126.99991 172.00827 127.31322 176 128.05273 L 176 127.05273 C 172.00827 126.31322 167.98821 125.99991 163.98633 126 C 132.2995 126.00071 101.78261 148.64549 96 156.07422 C 90.217393 148.64549 59.700502 126.00071 28.013672 126 z "/>
  <path style="opacity:0.2;fill:#ffffff" d="M 52 16 C 32.056 16 16 32.056 16 52 L 16 53 C 16 33.056 32.056 17 52 17 L 140 17 C 159.944 17 176 33.056 176 53 L 176 52 C 176 32.056 159.944 16 140 16 L 52 16 z "/>
  <path style="filter:url(#filter34467);opacity:0.2;fill:#000000;color:#000000" d="m 65,75.000944 a 12,12 0 0 0 -12,12 v 23.999996 a 12,12 0 0 0 12,12 12,12 0 0 0 12,-12 V 87.000944 a 12,12 0 0 0 -12,-12 z m 64,0 a 12,12 0 0 0 -12,12 v 23.999996 a 12,12 0 0 0 12,12 12,12 0 0 0 12,-12 V 87.000944 a 12,12 0 0 0 -12,-12 z m -25.81445,58.003906 a 9,9 0 0 0 -6.958988,3.07031 L 96,136.33492 95.773438,136.07516 a 9,9 0 0 0 -6.173829,-3.05469 9,9 0 0 0 -6.52539,2.20703 9,9 0 0 0 -0.847657,12.69922 l 7,8 a 9.0009,9.0009 0 0 0 13.546878,0 l 7,-8 a 9,9 0 0 0 -0.84766,-12.69922 9,9 0 0 0 -5.74023,-2.22265 z"/>
  <path style="fill:#3f3f3f;color:#000000" d="m 129,73 a 12,12 0 0 0 -12,12 v 24 a 12,12 0 0 0 12,12 12,12 0 0 0 12,-12 V 85 A 12,12 0 0 0 129,73 Z"/>
  <path style="fill:#ffffff" d="M 117.07197,84.220703 A 12.633137,12 0 0 0 117,85 v 17.59766 l 6.49752,-5.923832 c 2.00331,-1.82655 2.00331,-4.7672 0,-6.59375 z"/>
  <path style="fill:#3f3f3f;color:#000000" d="M 65,73 A 12,12 0 0 0 53,85 v 24 a 12,12 0 0 0 12,12 12,12 0 0 0 12,-12 V 85 A 12,12 0 0 0 65,73 Z"/>
  <path style="fill:#ffffff" d="M 53.07197,84.220703 A 12.633137,12 0 0 0 53,85 v 17.59766 l 6.49752,-5.923832 c 2.00331,-1.82655 2.00331,-4.7672 0,-6.59375 z"/>
  <path style="fill:#3f3f3f;color:#000000" d="m 89.599609,131.02047 a 9,9 0 0 0 -6.52539,2.20703 9,9 0 0 0 -0.847657,12.69922 l 7,8 a 9.0009,9.0009 0 0 0 13.546878,0 l 7,-8 a 9,9 0 0 0 -0.84766,-12.69922 9,9 0 0 0 -12.699218,0.84766 L 96,134.33492 95.773437,134.07516 a 9,9 0 0 0 -6.173828,-3.05469 z"/>
</svg>
