<svg xmlns="http://www.w3.org/2000/svg" id="svg12" width="192" height="192" version="1"><defs><filter style="color-interpolation-filters:sRGB" id="filter963" width="1.1" height="1.1" x=".05" y=".05"><feGaussianBlur stdDeviation="2.4"/></filter></defs><path fill="#4f4f4f" d="M 176,100 A 80,80 0 0 1 96,180 80,80 0 0 1 16,100 80,80 0 0 1 96,20 80,80 0 0 1 176,100 Z" style="opacity:.2;fill:#000"/><path fill="#4f4f4f" d="M 176,96 A 80,80 0 0 1 96,176 80,80 0 0 1 16,96 80,80 0 0 1 96,16 80,80 0 0 1 176,96 Z"/><path style="opacity:.1;fill:#fff" d="M 96.00 16 A 80 80 0 0 0 16 96 A 80 80 0 0 0 16.02 96.64 A 80 80 0 0 1 96.00 17 L 96 17 A 80 80 0 0 1 175.98 96.29 A 80 80 0 0 0 176.00 96 A 80 80 0 0 0 96 16 L 96.00 16 z"/><path d="m 95.40,38.00 c -4.30,0.01 -8.61,0.48 -12.83,1.41 -15.18,3.37 -28.31,12.66 -37.70,26.68 -3.99,5.95 -7.60,14.23 -7.60,17.40 0,2.71 3.14,4.11 5.25,2.34 0.49,0.41 0.98,-1.17 1.09,-1.69 1.07,-4.91 4.83,-12.28 9.20,-18.00 3.64,-4.78 10.32,-10.81 15.48,-13.98 16.10,-9.89 38.09,-10.09 54.29,0.50 10.15,6.01 18.45,15.98 23.32,28.02 1.06,2.61 2.79,8.34 2.79,9.22 0,0.25 -1.55,-1.08 -3.45,-2.95 -4.13,-4.08 -4.55,-4.37 -6.16,-4.37 -1.78,0 -3.03,1.15 -3.24,2.99 0.08,0.74 0.04,1.56 0.11,1.81 0.30,0.54 13.43,13.82 14.47,14.64 1.05,0.83 3.01,0.74 4.10,0.17 1.44,-1.21 1.64,-2.09 1.44,-6.42 0.75,-16.16 -10.86,-34.49 -24.81,-44.94 -10.00,-7.50 -22.83,-11.52 -35.73,-11.48 z M 36,97.19 l 0.18,4.18 c 0.30,7.12 2.31,14.45 6.06,22.12 7.56,15.47 19.97,26.65 35.02,31.58 4.36,1.43 7.56,2.09 13.36,2.78 2.50,0.30 10.48,0.15 13.58,0.26 17.63,-2.29 33.21,-12.47 43.54,-28.45 3.34,-5.18 6.61,-12.67 7.02,-16.11 0.16,-1.34 0.11,-1.49 0.87,-2.47 0.87,0.88 -1.24,-1.04 -2.32,-1.03 -2.01,0.01 -2.49,0.59 -3.81,4.55 -4.52,13.55 -15.45,25.98 -28.36,32.23 -10.46,5.06 -22.40,6.47 -34.36,4.06 -13.58,-2.74 -25.34,-11.00 -33.44,-23.50 -3.05,-4.71 -6.23,-11.77 -7.41,-16.47 0.26,-1.05 0.56,-2.18 0.65,-2.50 0.09,0.32 1.63,1.18 3.83,3.35 l 3.99,3.93 1.51,0.14 c 2.05,0.20 2.95,-1.10 3.15,-3.17 l 0.15,-1.52 -7.62,-7.62 -7.62,-7.62 c 0,0 -1.45,0.97 -3.23,0.17 -1.79,0.80 -1.69,2.26 -1.69,2.26 z" opacity=".2" style="filter:url(#filter963)"/><path fill="#5cd1ff" d="m 95.40,36.00 c -4.30,0.01 -8.61,0.48 -12.83,1.41 -15.18,3.37 -28.31,12.66 -37.70,26.68 -3.99,5.95 -7.60,14.23 -7.60,17.40 0,2.71 3.14,4.11 5.25,2.34 0.49,0.41 0.98,-1.17 1.09,-1.69 1.07,-4.91 4.83,-12.28 9.20,-18.00 3.64,-4.78 10.32,-10.81 15.48,-13.98 16.10,-9.89 38.09,-10.09 54.29,0.50 10.15,6.01 18.45,15.98 23.32,28.02 1.06,2.61 2.79,8.34 2.79,9.22 0,0.25 -1.55,-1.08 -3.45,-2.95 -4.13,-4.08 -4.55,-4.37 -6.16,-4.37 -1.78,0 -3.03,1.15 -3.24,2.99 0.08,0.74 0.04,1.56 0.11,1.81 0.30,0.54 13.43,13.82 14.47,14.64 1.05,0.83 3.01,0.74 4.10,0.17 1.44,-1.21 1.64,-2.09 1.44,-6.42 0.74,-16.16 -10.86,-34.48 -24.80,-44.94 -10,-7.50 -22.83,-11.52 -35.73,-11.48 z M 36,95.19 l 0.18,4.18 c 0.30,7.12 2.31,14.45 6.06,22.12 7.56,15.47 19.97,26.65 35.02,31.58 4.36,1.43 7.56,2.09 13.36,2.78 2.50,0.30 10.48,0.15 13.58,0.26 17.63,-2.29 33.21,-12.47 43.54,-28.45 3.34,-5.18 6.61,-12.67 7.02,-16.11 0.16,-1.34 0.11,-1.49 0.87,-2.47 0.87,0.88 -1.24,-1.04 -2.32,-1.03 -2.01,0.01 -2.49,0.59 -3.81,4.55 -4.52,13.55 -15.45,25.98 -28.36,32.23 -10.46,5.06 -22.40,6.47 -34.36,4.06 -13.58,-2.74 -25.34,-11.00 -33.44,-23.50 -3.05,-4.71 -6.23,-11.77 -7.41,-16.47 0.26,-1.05 0.56,-2.18 0.65,-2.50 0.09,0.32 1.63,1.18 3.83,3.35 l 3.99,3.93 1.51,0.14 c 2.06,0.20 2.96,-1.11 3.16,-3.17 l 0.15,-1.52 -7.62,-7.62 -7.62,-7.62 c 0,0 -1.45,0.97 -3.23,0.17 -1.79,0.80 -1.69,2.26 -1.69,2.26 z"/></svg>