<?xml version='1.0' encoding='utf-8'?>
<svg xmlns="http://www.w3.org/2000/svg" width="192" height="192" version="1" id="svg18">
  <defs>
    <filter style="color-interpolation-filters:sRGB" id="filter975" x="0.05" y="0.05" width="1.10" height="1.09">
      <feGaussianBlur stdDeviation="3.02"/>
    </filter>
    <filter style="color-interpolation-filters:sRGB" id="filter979" x="0.05" y="0.06" width="1.09" height="1.12">
      <feGaussianBlur stdDeviation="2.62"/>
    </filter>
  </defs>
  <path fill="#4f4f4f" d="m 96.43,20.00 a 18.26,18.19 0 0 0 -9.56,2.43 L 33.13,53.33 A 18.26,18.19 0 0 0 24.00,69.09 v 61.81 a 18.26,18.19 0 0 0 9.13,15.75 l 53.74,30.91 a 18.26,18.19 0 0 0 18.26,0 l 53.74,-30.91 a 18.26,18.19 0 0 0 9.13,-15.76 V 69.09 A 18.26,18.19 0 0 0 158.86,53.33 L 105.13,22.43 a 18.26,18.19 0 0 0 -8.70,-2.43 z" style="filter:url(#filter975);opacity:0.20;fill:#000000"/>
  <path fill="#4f4f4f" d="m 96.43,16.01 a 18.26,18.19 0 0 0 -9.56,2.43 L 33.13,49.34 A 18.26,18.19 0 0 0 24.00,65.09 v 61.81 a 18.26,18.19 0 0 0 9.13,15.75 l 53.74,30.91 a 18.26,18.19 0 0 0 18.26,0 l 53.74,-30.91 a 18.26,18.19 0 0 0 9.13,-15.76 V 65.09 A 18.26,18.19 0 0 0 158.86,49.33 L 105.13,18.43 a 18.26,18.19 0 0 0 -8.70,-2.43 z"/>
  <path style="opacity:0.10;fill:#ffffff" d="m 94.18,16.10 a 18.26,18.19 0 0 0 0.29,0.04 18.26,18.19 0 0 1 0.37,0.04 18.26,18.19 0 0 0 0.08,0 z m -1.66,0.24 a 18.26,18.19 0 0 0 0.65,0.15 18.26,18.19 0 0 1 0.65,0.15 z m -1.75,0.43 a 18.26,18.19 0 0 0 0.59,0.20 18.26,18.19 0 0 1 0.59,0.20 z m -1.77,0.63 a 18.26,18.19 0 0 0 0.67,0.30 18.26,18.19 0 0 1 0.67,0.30 z m -1.59,0.74 a 18.26,18.19 0 0 0 0.54,0.29 18.26,18.19 0 0 1 0.54,0.29 z M 33.13,49.34 a 18.26,18.19 0 0 0 -4.27,3.40 18.26,18.19 0 0 1 4.27,-3.40 z M 28.87,52.73 A 18.26,18.19 0 0 0 24.05,63.92 18.26,18.19 0 0 1 28.87,52.73 Z m -4.81,11.19 a 18.26,18.19 0 0 0 0.05,1.17 v 61.81 a 18.26,18.19 0 0 0 9.13,15.75 l 53.73,30.91 a 18.26,18.19 0 0 0 9.13,2.42 v -64.00 a 18.26,18.19 0 0 1 -9.13,-2.42 L 33.13,78.66 A 18.26,18.19 0 0 1 24.05,63.92 Z"/>
  <path style="opacity:0.20;fill:#ffffff" d="m 96.43,16.00 v 0.01 A 18.26,18.19 0 0 0 86.87,18.43 L 33.13,49.34 a 18.26,18.19 0 0 0 -9.08,14.59 18.26,18.19 0 0 0 9.08,14.73 l 53.73,30.91 a 18.26,18.19 0 0 0 18.27,0 L 158.87,78.66 a 18.26,18.19 0 0 0 9.08,-14.59 18.26,18.19 0 0 0 -9.08,-14.73 L 105.13,18.43 a 18.26,18.19 0 0 0 -8.70,-2.43 z"/>
  <path style="filter:url(#filter979);opacity:0.20" d="M 120.41,29.22 24.00,84.88 v 44.02 a 18.26,18.19 0 0 0 0.13,2.09 L 160.37,52.34 a 18.26,18.19 0 0 0 -1.51,-1.00 z"/>
  <path style="fill:#00cbec" d="M 120.41,27.22 24.00,82.88 v 44.02 a 18.26,18.19 0 0 0 0.13,2.09 L 160.37,50.34 a 18.26,18.19 0 0 0 -1.51,-1.00 z"/>
  <path style="fill:#00a7c2" d="m 32.28,78.10 -8.28,4.78 v 44.02 a 18.26,18.19 0 0 0 0.13,2.02 18.26,18.19 0 0 0 0.01,0.06 L 72.30,101.19 33.13,78.66 a 18.26,18.19 0 0 1 0.85,0.55 z"/>
  <path style="opacity:0.10;fill:#ffffff" d="M 96.43 16.01 A 18.26 18.19 0 0 0 86.87 18.43 L 33.13 49.34 A 18.26 18.19 0 0 0 24.00 65.09 L 24.00 66.09 A 18.26 18.19 0 0 1 33.13 50.34 L 86.87 19.43 A 18.26 18.19 0 0 1 96.43 17.01 L 96.43 17.01 A 18.26 18.19 0 0 1 105.13 19.43 L 158.87 50.34 A 18.26 18.19 0 0 1 168.00 66.09 L 168.00 65.09 A 18.26 18.19 0 0 0 158.87 49.34 L 105.13 18.43 A 18.26 18.19 0 0 0 96.43 16.01 L 96.43 16.01 z "/>
</svg>
