<svg xmlns="http://www.w3.org/2000/svg" id="svg28" width="192" height="192" version="1"><defs><filter style="color-interpolation-filters:sRGB" id="filter6495" width="1.1" height="1.1" x=".05" y=".05"><feGaussianBlur stdDeviation="3.2"/></filter><filter style="color-interpolation-filters:sRGB" id="filter12436" width="1.08" height="1.13" x=".04" y=".06"><feGaussianBlur stdDeviation="1.79"/></filter></defs><rect width="160" height="160" x="-180" y="-176" rx="12" ry="12" transform="matrix(0,-1,-1,0,0,0)" style="filter:url(#filter6495);opacity:.2;fill:#000"/><rect width="160" height="160" x="-180" y="-176" rx="12" ry="12" transform="matrix(0,-1,-1,0,0,0)" style="fill:#e4e4e4"/><path style="filter:url(#filter12436);opacity:.2;fill:#000" d="M 101.99,64 C 84.49,64.07 72.34,76.92 72.34,76.92 l 4.32,4.16 c 0,0 10.83,-11.03 25.35,-11.08 z m 0.02,6 c 14.52,0.05 25.35,11.08 25.35,11.08 l 4.32,-4.16 c 0,0 -12.15,-12.85 -29.65,-12.92 z m 0.02,9 c -8.36,0.03 -14.75,4.06 -19.22,8.40 l 4.39,4.24 C 90.77,88.19 95.76,85.04 101.96,85 c 0.02,0.00 0.03,0.00 0.05,0 6.21,0.04 11.20,3.19 14.82,6.66 l 4.39,-4.24 C 116.75,83.07 110.36,79.03 101.99,79 Z M 102,93 a 12,12 0 0 0 -9.11,4.20 L 102,106 111.11,97.20 A 12,12 0 0 0 102,93 Z m -62,9 v 30 h 7 v -12 h 13 v -6 H 47 v -6 h 13 v -6 z m 79,0 v 30 h 7 v -12 h 13 v -6 h -13 v -6 h 13 v -6 z m 25,0 v 6 h 7 v -6 z m -67.93,6 c -3.75,0 -6.70,1.03 -8.85,3.10 C 65.07,113.16 64,116.11 64,119.96 c 0,2.57 0.51,4.76 1.54,6.57 1.03,1.78 2.43,3.14 4.22,4.07 1.81,0.93 3.87,1.40 6.17,1.40 3.72,0 6.66,-1.05 8.80,-3.14 C 86.91,126.77 88,123.80 88,119.96 c 0,-2.57 0.51,-4.73 -1.54,-6.49 -1.03,-1.78 -2.43,-3.14 -4.22,-4.07 C 80.45,108.47 78.40,108 76.07,108 Z m 13.34,0 8.06,11.74 L 89,132 h 7.74 L 102,123.78 107.26,132 H 115 L 106.49,119.74 114.63,108 h -7.74 L 102,115.65 97.15,108 Z M 144,111 v 21 h 7 v -21 z m -68.02,2 c 1.78,0 3.05,0.59 3.82,1.76 0.80,1.15 1.20,2.88 1.20,5.20 0,2.32 0.40,4.08 -1.20,5.28 C 79.03,126.41 77.77,127 76.02,127 74.24,127 72.96,126.41 72.16,125.24 71.39,124.04 71,122.28 71,119.96 c 0,-2.32 0.39,-4.05 1.16,-5.20 0.80,-1.17 2.07,-1.76 3.82,-1.76 z"/><path style="opacity:.2;fill:#fff" d="m 28,16 c -6.65,0 -12,5.35 -12,12 v 1 c 0,-6.65 5.35,-12 12,-12 h 136 c 6.65,0 12,5.35 12,12 v -1 c 0,-6.65 -5.35,-12 -12,-12 z"/><path style="fill:#15a8fb" d="m 40,100 v 30 h 7 v -12 h 13 v -6 H 47 v -6 h 13 v -6 z m 79,0 v 30 h 7 v -12 h 13 v -6 h -13 v -6 h 13 v -6 z m 25,0 v 6 h 7 v -6 z m -67.93,6 c -3.75,0 -6.70,1.03 -8.85,3.10 C 65.07,111.16 64,114.11 64,117.96 c 0,2.57 0.51,4.76 1.54,6.57 1.03,1.78 2.43,3.14 4.22,4.07 1.81,0.93 3.87,1.40 6.17,1.40 3.72,0 6.66,-1.05 8.80,-3.14 C 86.91,124.77 88,121.80 88,117.96 c 0,-2.57 0.51,-4.73 -1.54,-6.49 -1.03,-1.78 -2.43,-3.14 -4.22,-4.07 C 80.45,106.47 78.40,106 76.07,106 Z m 13.34,0 8.06,11.74 L 89,130 h 7.74 L 102,121.78 107.26,130 H 115 L 106.49,117.74 114.63,106 h -7.74 L 102,113.65 97.15,106 Z M 144,109 v 21 h 7 v -21 z m -68.02,2 c 1.78,0 3.05,0.59 3.82,1.76 0.80,1.15 1.20,2.88 1.20,5.20 0,2.32 0.40,4.08 -1.20,5.28 C 79.03,124.41 77.77,125 76.02,125 74.24,125 72.96,124.41 72.16,123.24 71.39,122.04 71,120.28 71,117.96 c 0,-2.32 0.39,-4.05 1.16,-5.20 0.80,-1.17 2.07,-1.76 3.82,-1.76 z"/><path style="fill:#355ade;color:#000" d="M 101.99,62 C 84.49,62.07 72.34,74.92 72.34,74.92 l 4.32,4.16 c 0,0 10.83,-11.03 25.35,-11.08 z m 0.02,6 c 14.52,0.05 25.35,11.08 25.35,11.08 l 4.32,-4.16 c 0,0 -12.15,-12.85 -29.65,-12.92 z m 0.02,9 c -8.36,0.03 -14.75,4.06 -19.22,8.40 l 4.39,4.24 C 90.77,86.19 95.76,83.04 101.96,83 c 0.02,0.00 0.03,0.00 0.05,0 6.21,0.04 11.20,3.19 14.82,6.66 l 4.39,-4.24 C 116.75,81.07 110.36,77.03 101.99,77 Z M 102,91 a 12,12 0 0 0 -9.11,4.20 L 102,104 111.11,95.20 A 12,12 0 0 0 102,91 Z"/></svg>