<?xml version='1.0' encoding='utf-8'?>
<svg xmlns="http://www.w3.org/2000/svg" width="192" height="192" version="1" id="svg14">
  <defs>
    <filter style="color-interpolation-filters:sRGB" id="filter850" x="-0.048000001" width="1.096" y="-0.048000001" height="1.096">
      <feGaussianBlur stdDeviation="3.2"/>
    </filter>
    <filter style="color-interpolation-filters:sRGB" id="filter2358" x="-0.12505264" y="-0.095039993" width="1.2501053" height="1.19008">
      <feGaussianBlur stdDeviation="3.9600001"/>
    </filter>
    <filter style="color-interpolation-filters:sRGB" id="filter2400" x="-0.1181718" y="-0.099440676" width="1.2363436" height="1.1988814">
      <feGaussianBlur stdDeviation="1.3180892"/>
    </filter>
  </defs>
  <circle style="filter:url(#filter850);opacity:0.2;fill:#000000" cx="96" cy="100" r="80"/>
  <circle r="80" cy="96" cx="96" style="fill:#3f3f3f"/>
  <path style="opacity:0.1;fill:#ffffff" d="M 96 16 A 80 80 0 0 0 16 96 A 80 80 0 0 0 16.019531 96.472656 A 80 80 0 0 1 96 17 A 80 80 0 0 1 175.97461 96.513672 A 80 80 0 0 0 176 96 A 80 80 0 0 0 96 16 z "/>
  <path style="fill:#38adfa" d="m 688.80525,256.99648 c -0.33229,-0.33229 -1.1948,-0.36781 -1.91667,-0.0789 -0.79773,0.31922 -0.56078,0.55618 0.60417,0.60416 1.05416,0.0434 1.64479,-0.19293 1.3125,-0.52522 z"/>
  <path style="filter:url(#filter2358);opacity:0.2;fill:#000000" d="m 93.089389,147.88817 c -12.139866,-0.98943 -23.08848,-7.56971 -29.372084,-17.65313 -4.699457,-7.54115 -6.581164,-16.20115 -5.349589,-24.62019 1.440484,-9.847355 6.737897,-21.730725 15.352739,-34.439985 7.292795,-10.7588 16.120904,-20.47161 20.62756,-22.69491 0.864108,-0.42627 1.049209,-0.47996 1.654966,-0.47996 0.816693,0 1.438458,0.23856 2.647237,1.01577 5.615532,3.61033 15.485252,15.22567 22.515742,26.498 7.27527,11.66458 11.55306,22.25076 12.66539,31.342225 0.2242,1.83306 0.22552,5.68008 0,7.55481 -1.67807,14.10889 -10.71013,25.8061 -23.90933,30.96465 -5.24899,2.05141 -11.34029,2.96056 -16.835164,2.51272 z"/>
  <path style="fill:#f63073" d="m 93.089389,145.88817 c -12.139866,-0.98943 -23.08848,-7.56971 -29.372084,-17.65313 -4.699457,-7.54115 -6.581164,-16.20115 -5.349589,-24.62019 1.440484,-9.847352 6.737897,-21.730722 15.352739,-34.439982 7.292795,-10.7588 16.120904,-20.47161 20.62756,-22.69491 0.864108,-0.42627 1.049209,-0.47996 1.654966,-0.47996 0.816693,0 1.438458,0.23856 2.647237,1.01577 5.615532,3.61033 15.485252,15.22567 22.515742,26.498 7.27527,11.66458 11.55306,22.25076 12.66539,31.342222 0.2242,1.83306 0.22552,5.68008 0,7.55481 -1.67807,14.10889 -10.71013,25.8061 -23.90933,30.96465 -5.24899,2.05141 -11.34029,2.96056 -16.835164,2.51272 z"/>
  <path style="filter:url(#filter2400);opacity:0.2;fill:#000000;color:#000000" d="m 118.75977,102.80036 a 4,4 0 0 0 -3.78516,4.20508 c 0.49996,9.53979 -6.0906,17.91265 -15.480469,19.66992 a 4,4 0 0 0 -3.195313,4.66797 4,4 0 0 0 4.667972,3.19531 c 13.27039,-2.48348 22.70267,-14.4689 21.99609,-27.95117 a 4,4 0 0 0 -4.20312,-3.78711 z"/>
  <path style="fill:#ffffff;color:#000000" d="m 118.75977,101.80078 a 4,4 0 0 0 -3.78516,4.20508 c 0.49996,9.53979 -6.0906,17.91265 -15.480469,19.66992 a 4,4 0 0 0 -3.195313,4.66797 4,4 0 0 0 4.667972,3.19531 c 13.27039,-2.48348 22.70267,-14.4689 21.99609,-27.95117 a 4,4 0 0 0 -4.20312,-3.78711 z"/>
  <path style="opacity:0.2;fill:#ffffff" d="M 96.003906 46 C 95.398149 46 95.211764 46.054199 94.347656 46.480469 C 89.841 48.703769 81.013498 58.416981 73.720703 69.175781 C 65.105861 81.885041 59.807671 93.767882 58.367188 103.61523 C 58.10252 105.4245 57.99176 107.24447 58.011719 109.0625 C 58.037685 107.57753 58.151056 106.09271 58.367188 104.61523 C 59.807671 94.767879 65.105861 82.885041 73.720703 70.175781 C 81.013498 59.416981 89.841 49.703769 94.347656 47.480469 C 95.211764 47.054199 95.398149 47 96.003906 47 C 96.820599 47 97.441612 47.238415 98.650391 48.015625 C 104.26592 51.625955 114.13553 63.241342 121.16602 74.513672 C 128.44129 86.178252 132.7197 96.764004 133.83203 105.85547 C 133.93096 106.66435 133.97844 107.88017 133.99023 109.13086 C 134.00565 107.53674 133.95797 105.88516 133.83203 104.85547 C 132.7197 95.764007 128.44129 85.178252 121.16602 73.513672 C 114.13553 62.241342 104.26592 50.625955 98.650391 47.015625 C 97.441612 46.238415 96.820599 46 96.003906 46 z "/>
</svg>
