<?xml version='1.0' encoding='utf-8'?>
<svg xmlns="http://www.w3.org/2000/svg" width="192" height="192" version="1" id="svg26">
  <defs>
    <filter style="color-interpolation-filters:sRGB" id="filter887" x="0.05" width="1.09" y="0.05" height="1.10">
      <feGaussianBlur stdDeviation="3.04"/>
    </filter>
    <filter style="color-interpolation-filters:sRGB" id="filter905" x="0.05" width="1.10" y="0.05" height="1.10">
      <feGaussianBlur stdDeviation="0.32"/>
    </filter>
    <filter style="color-interpolation-filters:sRGB" id="filter2372" x="0.07" y="0.07" width="1.15" height="1.15">
      <feGaussianBlur stdDeviation="2.69"/>
    </filter>
    <filter style="color-interpolation-filters:sRGB" id="filter2737" x="0.03" y="0.12" width="1.06" height="1.24">
      <feGaussianBlur stdDeviation="2.00"/>
    </filter>
    <filter style="color-interpolation-filters:sRGB" id="filter3344" x="0.11" y="0.11" width="1.22" height="1.22">
      <feGaussianBlur stdDeviation="2.70"/>
    </filter>
  </defs>
  <path style="filter:url(#filter887);opacity:0.20" d="M 68.20,32.15 57.36,44 H 32 c -8.80,0 -16,7.20 -16,16 v 96 c 0,8.80 7.20,16 16,16 h 128 c 8.80,0 16,-7.20 16,-16 V 60 c 0,-8.80 -7.20,-16 -16,-16 H 134.64 L 123.65,31.99 C 120,28 120,28 116,28 H 76 c -4,0 -4,0 -7.80,4.15 z"/>
  <path style="fill:#4f4f4f" d="M 68.20,28.15 57.36,40 H 32 c -8.80,0 -16,7.20 -16,16 v 96 c 0,8.80 7.20,16 16,16 h 128 c 8.80,0 16,-7.20 16,-16 V 56 c 0,-8.80 -7.20,-16 -16,-16 H 134.64 L 123.65,27.99 C 120,24 120,24 116,24 H 76 c -4,0 -4,0 -7.80,4.15 z"/>
  <path style="filter:url(#filter2737);opacity:0.15;fill:#000000" d="m 68.17,38.06 -10.84,11.85 -7.77,2.15 C 41.07,54.40 32.47,57.02 26.35,63.33 L 16,74 h 160 l -11.51,-9.46 c -6.80,-5.59 -7.24,-16.86 -16,-16 l -13.88,1.37 -10.99,-12.01 c -3.65,-3.99 -3.65,-3.99 -7.65,-3.99 H 75.97 c -4,0 -4,0.00 -7.80,4.15 z"/>
  <path style="fill:#636363" d="M 68.20,28.15 57.36,40 H 32 C 23.20,40 16,47.20 16,56 V 72 H 176 V 56 c 0,-8.80 -7.20,-16 -16,-16 H 134.64 L 123.65,27.99 C 120,24 120,24 116,24 H 76 c -4,0 -4,0 -7.80,4.15 z"/>
  <circle style="filter:url(#filter905);opacity:0.10" cx="160" cy="58" r="8"/>
  <circle style="fill:#bdbdbd" cx="160" cy="56" r="8"/>
  <path style="opacity:0.10;fill:#ffffff" d="m 76,24 c -4,0 -4.00,0.00 -7.80,4.15 L 57.36,40 H 32 c -8.80,0 -16,7.20 -16,16 v 1 C 16,48.20 23.20,41 32,41 H 57.36 L 68.20,29.15 C 72.00,25.00 72,25 76,25 h 40 c 4,0 4.00,0.00 7.65,3.99 L 134.64,41 H 160 c 8.80,0 16,7.20 16,16 v -1 c 0,-8.80 -7.20,-16 -16,-16 H 134.64 L 123.65,27.99 C 120.00,24.00 120,24 116,24 Z"/>
  <circle style="filter:url(#filter2372);opacity:0.20;fill:#000000" cx="96" cy="-103" r="43" transform="matrix(1,0,0,-1,0,1.00)"/>
  <circle style="fill:#ffffff" cx="96" cy="-101" r="43" transform="scale(1,-1)"/>
  <circle style="fill:#4285f4" cx="96" cy="-101" r="30" transform="scale(1,-1)"/>
  <circle style="filter:url(#filter3344);opacity:0.20;fill:#000000" cx="155" cy="151" r="30"/>
  <circle style="fill:#fc8014" cx="155" cy="149" r="30"/>
  <path style="fill:#ffffff" d="m 165.99,137 c -2.65,0 -4.82,1.00 -6.49,3.02 -1.67,2.00 -2.51,4.75 -2.51,8.25 v 1.48 c 0,3.51 0.84,6.26 2.52,8.26 1.68,2.00 3.85,3 6.50,3 2.73,0 4.90,-1.00 6.53,-3 C 174.18,156.00 175,153.25 175,149.74 v -1.67 c 0.03,-3.43 0.87,-6.14 -2.51,-8.10 C 170.86,137.99 168.70,137 165.99,137 Z m 0,2 c 2.21,0 3.93,0.79 5.16,2.36 1.23,1.57 1.84,3.84 1.84,6.81 v 1.61 c 0,2.99 0.61,5.27 -1.83,6.86 -1.21,1.57 -2.92,2.36 -5.15,2.36 -2.12,0 -3.82,0.79 -5.11,-2.36 C 159.64,155.05 159,152.77 159,149.78 v -1.61 c 0,-2.97 0.63,-5.23 1.90,-6.81 C 162.17,139.79 163.87,139 165.99,139 Z"/>
  <path style="fill:#ffffff" d="m 143.99,137 c -2.65,0 -4.82,1.00 -6.49,3.02 -1.67,2.00 -2.51,4.75 -2.51,8.25 v 1.48 c 0,3.51 0.84,6.26 2.52,8.26 1.68,2.00 3.85,3 6.50,3 2.73,0 4.90,-1.00 6.53,-3 C 152.18,156.00 153,153.25 153,149.74 V 149 h -1 -1 -6 v 2 h 5.96 c 0.15,2.40 0.74,4.28 -1.79,5.64 -1.21,1.57 -2.92,2.36 -5.15,2.36 -2.12,0 -3.82,0.79 -5.11,-2.36 C 137.64,155.05 137,152.77 137,149.78 v -1.61 c 0,-2.97 0.63,-5.23 1.90,-6.81 1.28,-1.57 2.98,-2.36 5.10,-2.36 2.21,0 3.93,0.79 5.16,2.36 0.57,0.73 1.01,1.61 1.31,2.64 h 2.03 c 0.41,-1.58 -1.08,-2.92 -2.01,-4.03 C 148.86,137.99 146.70,137 143.99,137 Z"/>
</svg>
