<?xml version='1.0' encoding='utf-8'?>
<svg xmlns="http://www.w3.org/2000/svg" width="192" height="192" version="1" id="svg12">
  <defs>
    <filter style="color-interpolation-filters:sRGB" id="filter856" x="-0.048000001" width="1.096" y="-0.048000001" height="1.096">
      <feGaussianBlur stdDeviation="3.2"/>
    </filter>
    <filter style="color-interpolation-filters:sRGB" id="filter874" x="-0.044869566" width="1.0897391" y="-0.051600001" height="1.1032">
      <feGaussianBlur stdDeviation="1.72"/>
    </filter>
  </defs>
  <rect ry="80" rx="80" y="20" x="16" height="160" width="160" style="filter:url(#filter856);opacity:0.2;fill:#000000"/>
  <rect style="fill:#e32037" width="160" height="160" x="16" y="16" rx="80" ry="80"/>
  <path style="opacity:0.2;fill:#ffffff" d="M 95.998047 16 C 51.678955 16.001052 16 51.680653 16 96 C 16 96.115498 16.006172 96.228859 16.007812 96.34375 C 16.358829 52.329731 51.898462 17.001046 95.998047 17 L 96 17 C 140.10547 17.001047 175.64856 52.339122 175.99023 96.361328 C 175.99198 96.240601 175.99805 96.121307 175.99805 96 C 175.99805 51.680653 140.31909 16.001052 96 16 L 95.998047 16 z "/>
  <path style="filter:url(#filter874);opacity:0.2;fill:#000000" d="m 50,58 v 80 H 74 V 94 l 22,20 22,-20 v 44 h 24 V 58 H 118 L 96,78 74,58 Z"/>
  <path d="m 50,56 v 80 H 74 V 92 l 22,20 22,-20 v 44 h 24 V 56 H 118 L 96,76 74,56 Z" style="fill:#ffffff"/>
</svg>
