<?xml version='1.0' encoding='utf-8'?>
<svg xmlns="http://www.w3.org/2000/svg" width="192" height="192" version="1" id="svg14">
  <defs>
    <filter style="color-interpolation-filters:sRGB" id="filter857" x="0.05" width="1.10" y="0.05" height="1.10">
      <feGaussianBlur stdDeviation="3.20"/>
    </filter>
    <filter style="color-interpolation-filters:sRGB" id="filter873" x="0.05" width="1.10" y="0.05" height="1.09">
      <feGaussianBlur stdDeviation="1.84"/>
    </filter>
  </defs>
  <rect style="filter:url(#filter857);opacity:0.20" width="160" height="160" x="16" y="20" rx="48" ry="48"/>
  <rect style="fill:#00539b" width="160" height="160" x="16" y="16" rx="48" ry="48"/>
  <path style="opacity:0.10;fill:#ffffff" d="M 64 16 C 37.41 16 16 37.41 16 64 L 16 65 C 16 38.41 37.41 17 64 17 L 128 17 C 154.59 17 176 38.41 176 65 L 176 64 C 176 37.41 154.59 16 128 16 L 64 16 z "/>
  <path style="filter:url(#filter873);opacity:0.20" d="m 68.42,50 -6.16,36 h 29.50 L 94.00,72 112.00,98 86.00,122 87.92,110 H 58.16 l -6.16,36 H 83.81 C 115.76,144.53 135.42,125.95 139.33,100.35 142.78,77.78 133.50,52.60 97.82,50 Z"/>
  <path style="fill:#ffcb05" d="m 68.42,48 -6.16,36 h 29.50 L 94.00,70 112.00,96 86.00,120 87.92,108 H 58.16 l -6.16,36 H 83.81 C 115.76,142.53 135.42,123.95 139.33,98.35 142.78,75.78 133.50,50.60 97.82,48 Z"/>
  <path style="opacity:0.20;fill:#ffffff" d="M 68.41 48 L 62.26 84 L 62.43 84 L 68.41 49 L 97.82 49 C 128.74 51.26 139.79 70.46 139.95 90.23 C 140.15 70.11 129.26 50.29 97.82 48 L 68.41 48 z M 110.31 97.56 L 86.75 119.30 L 86 124 L 86.19 123.83 L 86.75 120.30 L 110.31 98.56 L 111.58 100.39 L 112 100 L 110.31 97.56 z M 58.16 108 L 52 144 L 52.17 144 L 58.16 109 L 87.76 109 L 87.92 108 L 58.16 108 z "/>
</svg>
