<?xml version='1.0' encoding='utf-8'?>
<svg xmlns="http://www.w3.org/2000/svg" width="192" height="192" version="1" id="svg14">
  <defs>
    <filter style="color-interpolation-filters:sRGB" id="filter856" x="0.05" width="1.10" y="0.05" height="1.10">
      <feGaussianBlur stdDeviation="3.20"/>
    </filter>
    <filter style="color-interpolation-filters:sRGB" id="filter877" x="0.05" width="1.10" y="0.05" height="1.10">
      <feGaussianBlur stdDeviation="2.29"/>
    </filter>
  </defs>
  <rect style="filter:url(#filter856);opacity:0.20;fill:#000000" width="159.85" height="159.85" x="-82.76" y="-218.52" rx="79.93" ry="79.93" transform="matrix(0.71,0.71,0.71,0.71,0,0)"/>
  <rect transform="matrix(0.71,0.71,0.71,0.71,0,0)" ry="79.93" rx="79.93" y="-215.69" x="-79.93" height="159.85" width="159.85" style="fill:#d6223a"/>
  <path d="M 142.66,53.31 C 129.48,40.20 114.00,37.52 114.00,37.52 a 6.00,6.00 0 1 0 -2.06,11.82 c 0,0 11.77,2.05 22.25,12.48 5.24,5.21 8.55,11.05 10.44,15.44 0.94,2.20 1.53,4.04 1.82,5.15 0.05,0.19 0.04,0.17 0.07,0.31 a 6.00,6.00 0 0 0 2.12,4.83 c 0.29,0.25 0.66,0.54 1.22,0.82 0.28,0.14 0.99,0.40 0.99,0.40 0.00,0.00 1.32,0.24 1.32,0.24 0.00,0.00 3.05,0.58 3.05,0.59 0.00,0.00 2.02,-1.60 2.02,-1.60 0.00,0.00 0.68,0.99 0.85,-1.37 0.17,0.38 0.26,0.67 0.33,0.92 0.13,0.50 0.17,0.82 0.19,-1.08 0.09,-1.03 0.00,-1.30 0.06,-1.69 0.10,0.78 0.26,-1.48 0.49,-2.37 0.46,-1.78 -1.22,-4.11 -2.40,-6.87 -2.37,-5.51 -6.41,-12.65 -13.00,-19.21 z M 128.43,67.37 C 119.54,58.87 109.60,54.84 109.60,54.84 a 6.00,6.00 0 1 0 -4.56,11.10 c 0,0 8.08,3.38 15.10,10.10 6.79,6.49 9.82,14.66 9.82,14.66 a 6.00,6.00 0 1 0 11.29,-4.04 c 0,0 -3.68,-10.56 -12.81,-19.29 z m -37.24,-14.61 c -2.18,-2.69 -4.37,-3.46 -9.10,-2.88 C 60.13,55.96 43.99,76.09 43.99,99.99 43.99,128.71 67.28,152 96.00,152 c 23.71,0 43.71,-15.88 49.97,-37.57 0.62,-3.80 0.20,-7.25 -2.73,-9.63 -3.91,-3.91 -10.24,-3.91 -14.14,0 -1.46,1.47 -2.43,3.35 -2.77,5.39 -4.26,12.67 -16.21,21.80 -30.32,21.80 -17.67,0 -32.00,-14.32 -32.00,-32.00 0,-14.10 9.12,-26.04 21.78,-30.31 2.05,0.34 3.94,-1.32 5.41,-2.78 3.91,-3.91 3.91,-10.24 0,-14.14 z m 24.44,27.28 c -5.49,-5.09 -11.23,-8.01 -11.23,-8.01 a 6.00,6.00 0 1 0 -5.50,10.67 c 0,0 4.47,2.34 8.57,6.14 3.69,3.42 5.61,7.81 5.61,7.81 a 6.00,6.00 0 1 0 11.08,-4.62 c 0,0 -2.64,-6.52 -8.54,-11.98 z" style="filter:url(#filter877);opacity:0.20"/>
  <path d="M 142.66,49.32 C 129.48,36.20 114.00,33.52 114.00,33.52 a 6.00,6.00 0 1 0 -2.06,11.82 c 0,0 11.77,2.05 22.25,12.48 5.24,5.21 8.55,11.05 10.44,15.44 0.94,2.20 1.53,4.04 1.82,5.15 0.05,0.19 0.04,0.17 0.07,0.31 a 6.00,6.00 0 0 0 2.12,4.83 c 0.29,0.25 0.66,0.54 1.22,0.82 0.28,0.14 0.99,0.40 0.99,0.40 0.00,0.00 1.32,0.24 1.32,0.24 0.00,0.00 3.05,0.58 3.05,0.59 0.00,0.00 2.02,-1.60 2.02,-1.60 0.00,0.00 0.68,0.99 0.85,-1.37 0.17,0.38 0.26,0.67 0.33,0.92 0.13,0.50 0.17,0.82 0.19,-1.08 0.09,-1.03 0.00,-1.30 0.06,-1.69 0.10,0.78 0.26,-1.48 0.49,-2.37 0.46,-1.78 -1.22,-4.11 -2.40,-6.87 -2.37,-5.51 -6.41,-12.65 -13.00,-19.21 z M 128.43,63.38 C 119.54,54.88 109.60,50.85 109.60,50.85 a 6.00,6.00 0 1 0 -4.56,11.10 c 0,0 8.08,3.38 15.10,10.10 6.79,6.49 9.82,14.66 9.82,14.66 A 6.00,6.00 0 1 0 141.24,82.66 c 0,0 -3.68,-10.56 -12.81,-19.29 z M 91.19,48.77 C 89.02,46.07 86.82,45.30 82.09,45.88 60.13,51.97 43.99,72.10 43.99,96.00 c 0,28.72 23.29,52.01 52.01,52.01 23.71,0 43.71,-15.88 49.97,-37.57 0.62,-3.80 0.20,-7.25 -2.73,-9.63 -3.91,-3.91 -10.24,-3.91 -14.14,0 -1.46,1.47 -2.43,3.35 -2.77,5.39 -4.26,12.67 -16.21,21.80 -30.32,21.80 -17.67,0 -32.00,-14.32 -32.00,-32.00 0,-14.10 9.12,-26.04 21.78,-30.31 2.05,0.34 3.94,-1.32 5.41,-2.78 3.91,-3.91 3.91,-10.24 0,-14.14 z M 115.63,76.05 c -5.49,-5.09 -11.23,-8.01 -11.23,-8.01 a 6.00,6.00 0 1 0 -5.50,10.67 c 0,0 4.47,2.34 8.57,6.14 3.69,3.42 5.61,7.81 5.61,7.81 a 6.00,6.00 0 1 0 11.08,-4.62 c 0,0 -2.64,-6.52 -8.54,-11.98 z" style="fill:#ffffff"/>
  <path style="opacity:0.10;fill:#ffffff" d="M 96 16 C 75.57 16 55.14 23.83 39.48 39.48 C 23.70 55.27 15.88 75.90 16.01 96.50 C 16.14 76.24 23.95 56.01 39.48 40.48 C 70.79 9.17 121.21 9.17 152.52 40.48 C 168.05 56.01 175.86 76.24 175.99 96.50 C 176.12 75.90 168.30 55.27 152.52 39.48 C 136.86 23.83 116.43 16 96 16 z "/>
</svg>
