<?xml version='1.0' encoding='utf-8'?>
<svg xmlns="http://www.w3.org/2000/svg" width="192" height="192" version="1" id="svg28">
  <defs>
    <filter style="color-interpolation-filters:sRGB" id="filter871" x="0.05" width="1.10" y="0.05" height="1.10">
      <feGaussianBlur stdDeviation="3.20"/>
    </filter>
    <filter style="color-interpolation-filters:sRGB" id="filter890" x="0.05" width="1.10" y="0.05" height="1.10">
      <feGaussianBlur stdDeviation="2.56"/>
    </filter>
    <filter style="color-interpolation-filters:sRGB" id="filter906" x="0.05" width="1.10" y="0.04" height="1.09">
      <feGaussianBlur stdDeviation="1.04"/>
    </filter>
  </defs>
  <rect width="160" height="160" x="-180" y="-176" rx="8" ry="8" transform="matrix(0,-1,-1,0,0,0)" style="filter:url(#filter871);opacity:0.20;fill:#000000"/>
  <rect style="fill:#4f4f4f" transform="matrix(0,-1,-1,0,0,0)" ry="8" rx="8" y="-176" x="-176" height="160" width="160"/>
  <path style="opacity:0.10;fill:#ffffff" d="M 24 16 C 19.57 16 16 19.57 16 24 L 16 25 C 16 20.57 19.57 17 24 17 L 168 17 C 172.43 17 176 20.57 176 25 L 176 24 C 176 19.57 172.43 16 168 16 L 24 16 z "/>
  <circle r="64" cy="100" cx="96" style="filter:url(#filter890);opacity:0.20;fill:#000000"/>
  <circle r="64" cy="96" cx="96" style="fill:#aee42e"/>
  <circle r="52" cy="96" cx="96" style="fill:#3c3c3c"/>
  <path d="m 128,100 -24,14 -24.00,14 V 100.00 72.00 l 24.00,14 z" style="filter:url(#filter906);opacity:0.10;fill:#000000"/>
  <path d="M 128,96.00 104,110 80.00,124 V 96.00 68.00 l 24.00,14 z" style="fill:#aee42e"/>
  <circle r="8" cy="32" cx="32" style="fill:#3c3c3c"/>
  <circle r="8" cy="32" cx="160" style="fill:#3c3c3c"/>
  <circle r="8" cy="160" cx="32" style="fill:#3c3c3c"/>
  <circle r="8" cy="160" cx="160" style="fill:#3c3c3c"/>
</svg>
