<svg xmlns="http://www.w3.org/2000/svg" id="svg24" width="192" height="192" version="1"><defs><filter style="color-interpolation-filters:sRGB" id="filter868" width="1.1" height="1.1" x=".05" y=".05"><feGaussianBlur stdDeviation="3.2"/></filter><filter style="color-interpolation-filters:sRGB" id="filter896" width="1.1" height="1.1" x=".05" y=".05"><feGaussianBlur stdDeviation="2.4"/></filter><filter style="color-interpolation-filters:sRGB" id="filter928" width="1.1" height="1.09" x=".05" y=".04"><feGaussianBlur stdDeviation=".3"/></filter></defs><circle style="filter:url(#filter868);opacity:.2;fill:#000" cx="96" cy="100" r="80"/><circle cx="96" cy="96" r="80" style="fill:#a338db"/><rect style="filter:url(#filter896);opacity:.2" width="120" height="120" x="-160" y="-156" rx="60" ry="60" transform="matrix(0,-1,-1,0,0,0)"/><rect width="120" height="120" x="-156" y="-156" rx="60" ry="60" transform="matrix(0,-1,-1,0,0,0)" style="fill:#d374fb"/><path style="opacity:.2;fill:#fff" d="M 96 36 C 62.76 36 36 62.76 36 96 C 36 96.13 36.01 96.25 36.02 96.38 C 36.35 63.43 62.97 37 96 37 L 96.00 37 C 129.03 37 155.65 63.43 155.99 96.38 C 155.99 96.25 156.00 96.13 156.00 96 C 156.00 62.76 129.24 36 96.00 36 L 96 36 z"/><g transform="matrix(4,0,0,4,-1876,-663.99)" style="filter:url(#filter928);opacity:.1"><path d="m 489,187 v 6.19 c 0.32,0.12 0.64,0.19 -1,0.19 -1.66,0 -3,1.34 -3,3 0,1.66 1.34,3 3,3 1.66,0 3,-1.34 3,-3 v -9.00 h 6 v 4.19 c 0.32,0.12 0.64,0.19 -1,0.19 -1.66,0 -3,1.34 -3,3 0,1.66 1.34,3 3,3 1.66,0 3,-1.34 3,-3 v -11 h -1 l -6,0.00 c -2.98,0.12 -3,4.00 -3,4.00 z"/></g><g style="fill:#fff"><path d="m 489,187 v 6.19 c 0.32,0.12 0.64,0.19 -1,0.19 -1.66,0 -3,1.34 -3,3 0,1.66 1.34,3 3,3 1.66,0 3,-1.34 3,-3 v -9.00 h 6 v 4.19 c 0.32,0.12 0.64,0.19 -1,0.19 -1.66,0 -3,1.34 -3,3 0,1.66 1.34,3 3,3 1.66,0 3,-1.34 3,-3 v -11 h -1 l -6,0.00 c -2.98,0.12 -3,4.00 -3,4.00 z" transform="matrix(4,0,0,4,-1876,-668)"/></g><path style="opacity:.2;fill:#fff" d="M 96.00 16 A 80 80 0 0 0 16 96 A 80 80 0 0 0 16.02 96.49 A 80 80 0 0 1 96.00 17 L 96 17 A 80 80 0 0 1 175.97 96.50 A 80 80 0 0 0 176.00 96 A 80 80 0 0 0 96 16 L 96.00 16 z"/></svg>