<?xml version='1.0' encoding='utf-8'?>
<svg xmlns="http://www.w3.org/2000/svg" width="192" height="192" version="1" id="svg28">
  <defs>
    <filter style="color-interpolation-filters:sRGB" id="filter6495" x="0.05" y="0.05" width="1.10" height="1.10">
      <feGaussianBlur stdDeviation="3.20"/>
    </filter>
    <filter style="color-interpolation-filters:sRGB" id="filter2458" x="0.08" y="0.07" width="1.16" height="1.14">
      <feGaussianBlur stdDeviation="2.41"/>
    </filter>
  </defs>
  <rect transform="matrix(0,-1,-1,0,0,0)" ry="12" rx="12" y="-176" x="-180" height="160" width="160" style="filter:url(#filter6495);opacity:0.20;fill:#000000"/>
  <rect transform="matrix(0,-1,-1,0,0,0)" ry="12" rx="12" y="-176" x="-176" height="160" width="160" style="fill:#39db87"/>
  <path style="fill:#3f3f3f" d="M 169.17 17.18 C 158.68 19.03 33.08 40.97 18.11 43.56 L 16 43.93 L 16 109.99 L 16 164 C 16 168.80 18.80 172.92 22.86 174.84 C 35.66 172.58 174.97 148.76 175.44 148.76 C 175.98 148.76 176 145.91 176 82.36 L 176 28 C 176 23.21 173.21 19.10 169.17 17.18 z "/>
  <path style="filter:url(#filter2458);opacity:0.20;fill:#000000" d="m 110.09,57 c -2.66,0.00 -5.51,0.14 -7.68,0.43 -4.46,0.60 -41.76,6.98 -42.12,7.20 0.37,0.23 0.39,17.20 0.03,17.42 0.15,0.09 1.76,0.09 3.59,0.40 L 67,81.29 v 19.35 19.55 l -3.34,0.60 -3.51,0.60 0.08,8.81 c 0.07,6.94 0.00,8.81 0.31,8.81 0.22,0.00 10.71,-1.75 23.32,-3.90 12.61,-2.14 24.18,-4.26 25.73,-4.69 10.20,-2.89 17.07,-7.81 20.45,-14.64 1.71,-3.46 2.24,-6.25 2.10,-11.08 0.11,-3.73 0.17,-4.01 -1.23,-6.24 -2.18,-4.54 -5.48,-6.89 -11.60,-8.24 l 0.89,0.20 1.20,0.88 c 3.20,-2.34 5.87,-6.39 7.36,-10.45 1.21,-3.30 1.53,-8.01 0.73,-11.11 -1.34,-5.24 -5.34,-8.94 -10.95,-10.13 C 115.21,57.15 112.74,57.00 110.09,57 Z M 99.44,76.00 c 1.03,0.02 1.75,0.12 2.40,0.41 1.77,0.78 2.57,3.00 1.95,5.42 0.81,3.19 -2.62,4.42 -7.98,5.44 L 92,88 l 0.08,-5.46 0.08,-5.46 3.03,0.55 c 1.88,0.34 3.22,0.52 4.25,0.54 z M 103.34,103 c 0.85,0.01 1.37,0.17 2.15,0.46 1.02,0.39 1.46,0.79 1.92,1.74 1.59,3.31 0.12,7.11 -3.88,8.60 C 102.73,114.13 92.96,116.00 92.08,116 92.04,116.00 92,113.44 92,110.31 v -5.69 l 5.21,0.84 c 3.40,0.55 5.04,0.79 6.13,0.78 z"/>
  <path style="fill:#ffffff" d="m 110.09,55 c -4.68,0.12 -9.62,0.71 -13.53,1.36 -11.77,1.93 -35.97,6.10 -36.27,6.28 0.37,0.23 0.39,17.20 0.03,17.42 0.15,0.09 1.76,0.09 3.59,0.40 L 67,79.29 v 19.35 19.55 l -3.34,0.60 -3.51,0.60 0.08,8.81 c 0.07,6.94 0.00,8.81 0.31,8.81 0.22,0.00 10.71,-1.75 23.32,-3.90 12.61,-2.14 24.18,-4.26 25.73,-4.69 10.20,-2.89 17.07,-7.81 20.45,-14.64 1.71,-3.46 2.24,-6.25 2.10,-11.08 0.09,-3.88 0.73,-5.78 -2.61,-8.60 -2.16,-3.03 -5.27,-4.78 -10.22,-5.88 l 0.89,0.20 1.20,0.88 c 3.20,-2.34 5.87,-6.39 7.36,-10.45 1.21,-3.30 1.53,-8.01 0.73,-11.11 -1.34,-5.24 -5.34,-8.94 -10.95,-10.13 C 115.21,55.15 112.74,55.00 110.09,55 Z M 99.44,74.00 c 1.03,0.02 1.75,0.12 2.40,0.41 1.77,0.78 2.57,3.00 1.95,5.42 0.81,3.19 -2.62,4.42 -7.98,5.44 L 92,86 l 0.08,-5.46 0.08,-5.46 3.03,0.55 c 1.88,0.34 3.22,0.52 4.25,0.54 z M 103.34,101 c 0.85,0.01 1.37,0.17 2.15,0.46 1.02,0.39 1.46,0.79 1.92,1.74 1.59,3.31 0.12,7.11 -3.88,8.60 C 102.73,112.13 92.96,114.00 92.08,114 92.04,114.00 92,111.44 92,108.31 v -5.69 l 5.21,0.84 c 3.40,0.55 5.04,0.79 6.13,0.78 z"/>
  <path style="opacity:0.20;fill:#ffffff" d="m 28,16 c -6.65,0 -12,5.35 -12,12 v 1 c 0,-6.65 5.35,-12 12,-12 h 136 c 6.65,0 12,5.35 12,12 v -1 c 0,-6.65 -5.35,-12 -12,-12 z"/>
</svg>
