<?xml version='1.0' encoding='utf-8'?>
<!-- Generator: Adobe Illustrator 16.0.0, SVG Export Plug-In . SVG Version: 6.00 Build 0) -->
<svg xmlns="http://www.w3.org/2000/svg" version="1.1" id="Layer_1" x="0px" y="0px" width="192" height="192" viewBox="147.55 39.29 192.00 192.00" xml:space="preserve">
  <defs>
    <filter style="color-interpolation-filters:sRGB" id="filter1442" x="0.05" y="0.05" width="1.10" height="1.10">
      <feGaussianBlur stdDeviation="3.20"/>
    </filter>
    <filter style="color-interpolation-filters:sRGB" id="filter1607" x="0.03" y="0.11" width="1.06" height="1.22">
      <feGaussianBlur stdDeviation="1.57"/>
    </filter>
  </defs>
  <rect x="147.55" y="-283.19" style="fill:none" width="514.23" height="514.23"/>
  <path style="filter:url(#filter1442);opacity:0.20;fill:#000000" d="m 163.55,178.59 v 0.01 c 0.10,3.55 0.13,7.12 0.72,10.65 0.64,3.73 1.54,7.38 3.28,10.77 2.34,4.59 5.56,8.46 9.62,11.63 2.92,2.27 6.10,4.08 9.63,5.21 5.14,1.66 10.45,2.29 15.83,2.32 3.36,0.02 6.71,0.11 10.07,0.09 24.39,0.10 48.79,0.18 73.18,0.15 3.24,0.04 6.42,0.44 9.60,-1.02 6.09,-1.11 11.47,-3.71 16.07,-7.81 5.37,-4.78 8.99,-10.63 10.62,-17.70 1.07,-4.62 1.34,-9.30 1.38,-14.00 v 0.94 c 0,0.36 0.14,-79.87 0.15,-80.92 0.04,-2.89 0.25,-5.75 0.79,-8.59 0.66,-3.46 -1.59,-6.83 -3.25,-9.97 -1.75,-3.31 -3.95,-6.28 -6.66,-8.88 -4.16,-3.98 -8.95,-6.80 -14.54,-8.29 -5.04,-1.35 -10.19,-1.64 -15.37,-1.64 0.01,0.00 0.03,0.05 0.03,0.08 h -78.45 c 0.00,0.03 0.00,0.05 0.00,0.08 -2.94,0.05 -5.89,0.03 -8.81,0.39 -3.21,0.40 -6.38,1.00 -9.42,2.12 -4.78,1.77 -8.93,4.52 -12.48,8.19 -4.02,4.16 -6.85,8.97 -8.36,14.58 -1.34,5.00 -1.63,10.10 -1.64,15.24"/>
  <path style="fill:#3f3f3f" d="m 163.55,174.59 v 0.01 c 0.10,3.55 0.13,7.12 0.72,10.65 0.64,3.73 1.54,7.38 3.28,10.77 2.34,4.59 5.56,8.46 9.62,11.63 2.92,2.27 6.10,4.08 9.63,5.21 5.14,1.66 10.45,2.29 15.83,2.32 3.36,0.02 6.71,0.11 10.07,0.09 24.39,0.10 48.79,0.18 73.18,0.15 3.24,0.04 6.42,0.44 9.60,-1.02 6.09,-1.11 11.47,-3.71 16.07,-7.81 5.37,-4.78 8.99,-10.63 10.62,-17.70 1.07,-4.62 1.34,-9.30 1.38,-14.00 v 0.94 c 0,0.36 0.14,-79.87 0.15,-80.92 0.04,-2.89 0.25,-5.75 0.79,-8.59 0.66,-3.46 -1.59,-6.83 -3.25,-9.97 -1.75,-3.31 -3.95,-6.28 -6.66,-8.88 -4.16,-3.98 -8.95,-6.80 -14.54,-8.29 -5.04,-1.35 -10.19,-1.64 -15.37,-1.64 0.01,0.00 0.03,0.05 0.03,0.08 h -78.45 c 0.00,0.03 0.00,0.05 0.00,0.08 -2.94,0.05 -5.89,0.03 -8.81,0.39 -3.21,0.40 -6.38,1.00 -9.42,2.12 -4.78,1.77 -8.93,4.52 -12.48,8.19 -4.02,4.16 -6.85,8.97 -8.36,14.58 -1.34,5.00 -1.63,10.10 -1.64,15.24"/>
  <path style="opacity:0.10;fill:#ffffff" d="m 204.31,55.29 c 0.00,0.03 0.00,0.05 0.00,0.08 -2.94,0.05 -5.89,0.03 -8.81,0.39 -3.21,0.40 -6.38,1.00 -9.42,2.12 -4.78,1.77 -8.93,4.52 -12.48,8.19 -4.02,4.16 -6.85,8.97 -8.36,14.58 -1.34,5.00 -1.63,10.10 -1.64,15.24 v 1 c 0.01,-5.14 0.30,-10.24 1.64,-15.24 1.50,-5.60 4.34,-10.42 8.36,-14.58 3.55,-3.67 7.70,-6.42 12.48,-8.19 3.03,-1.12 6.21,-1.72 9.42,-2.12 2.93,0.36 5.87,0.34 8.81,0.39 0.00,0.03 0.00,0.05 0.00,0.08 h 78.45 c 0.00,0.03 0.02,0.08 0.03,0.08 5.18,0.00 10.33,0.29 15.37,1.64 5.58,1.49 10.38,4.31 14.54,8.29 2.71,2.60 4.91,5.57 6.66,8.88 1.66,3.13 2.59,6.51 3.25,9.97 0.54,2.84 0.76,5.71 0.79,8.59 0.01,1.05 0.15,80.37 0.15,80.86 v 0.94 c 0,0.36 0.14,-79.87 0.15,-80.92 0.04,-2.89 0.25,-5.75 0.79,-8.59 0.66,-3.46 -1.59,-6.84 -3.25,-9.97 -1.75,-3.31 -3.94,-6.28 -6.66,-8.88 -4.16,-3.98 -8.95,-6.80 -14.54,-8.29 -5.04,-1.35 -10.19,-1.64 -15.37,-1.64 0.01,0.00 0.03,0.05 0.03,0.08 z"/>
  <path style="filter:url(#filter1607);opacity:0.20;fill:#000000;stop-color:#000000" d="m 181.55,120.29 v 34 h 11 v -34 z m 14,0 v 11 3 11 9 h 11 v -9 h 10 v -11 h -10 v -3 h 14 v -11 h -14 z m 28,0 v 11 h 7 v 23 h 11 v -23 h 7 v -11 z m 28,0 v 11 h 7 v 23 h 11 v -23 h 7 v -11 z m 28,0 v 11 h 7 v 23 h 11 v -23 h 7 v -11 h -7 -11 z"/>
  <path style="fill:#ffffff;stop-color:#000000" d="m 181.55,118.29 v 34 h 11 v -34 z m 14,0 v 11 3 11 9 h 11 v -9 h 10 v -11 h -10 v -3 h 14 v -11 h -14 z"/>
  <path style="fill:#9f9f9f;stop-color:#000000" d="m 223.55,118.29 v 11 h 7 v 23 h 11 v -23 h 7 v -11 z m 28,0 v 11 h 7 v 23 h 11 v -23 h 7 v -11 z m 28,0 v 11 h 7 v 23 h 11 v -23 h 7 v -11 h -7 -11 z"/>
</svg>
