<?xml version='1.0' encoding='utf-8'?>
<svg xmlns="http://www.w3.org/2000/svg" width="192" height="192" version="1" id="svg20">
  <defs>
    <filter style="color-interpolation-filters:sRGB" id="filter859" x="-0.048000001" width="1.096" y="-0.048000001" height="1.096">
      <feGaussianBlur stdDeviation="3.2"/>
    </filter>
    <filter style="color-interpolation-filters:sRGB" id="filter877" x="-0.024000001" width="1.048" y="-0.024000001" height="1.048">
      <feGaussianBlur stdDeviation="1.2"/>
    </filter>
    <filter style="color-interpolation-filters:sRGB" id="filter893" x="-0.051432855" width="1.1028657" y="-0.044996717" height="1.0899934">
      <feGaussianBlur stdDeviation="0.300025"/>
    </filter>
  </defs>
  <circle style="filter:url(#filter859);opacity:0.2;fill:#000000" cx="96" cy="100" r="80"/>
  <circle r="80" cy="96" cx="96" style="fill:#e84757"/>
  <rect style="filter:url(#filter877);opacity:0.1;fill:#000000" width="120" height="120" x="-158" y="-156" rx="60" ry="60" transform="matrix(0,-1,-1,0,0,0)"/>
  <rect transform="matrix(0,-1,-1,0,0,0)" ry="60" rx="60" y="-156" x="-156" height="120" width="120" style="fill:#32424a"/>
  <g transform="matrix(4,0,0,4,-1876,-661.99023)" style="filter:url(#filter893);opacity:0.2">
    <path d="m 489,183 v 8.1875 c -0.32,-0.12 -0.64,-0.19 -1,-0.19 -1.6568,0 -3,1.3432 -3,3 0,1.6568 1.3432,3 3,3 1.6568,0 3,-1.3432 3,-3 v -7.7995 l 6,-1.2005 v 4.1875 c -0.32,-0.12 -0.64,-0.19 -1,-0.19 -1.6568,0 -3,1.3432 -3,3 0,1.6568 1.3432,3 3,3 1.6568,0 3,-1.3432 3,-3 v -11 z"/>
  </g>
  <g transform="matrix(4,0,0,4,-1876,-664)" style="fill:#ffffff;enable-background:new">
    <path d="m 489,183 v 8.1875 c -0.32,-0.12 -0.64,-0.19 -1,-0.19 -1.6568,0 -3,1.3432 -3,3 0,1.6568 1.3432,3 3,3 1.6568,0 3,-1.3432 3,-3 v -7.7995 l 6,-1.2005 v 4.1875 c -0.32,-0.12 -0.64,-0.19 -1,-0.19 -1.6568,0 -3,1.3432 -3,3 0,1.6568 1.3432,3 3,3 1.6568,0 3,-1.3432 3,-3 v -11 z"/>
  </g>
  <path style="opacity:0.2;fill:#ffffff" d="M 95.998047 16 A 80 80 0 0 0 16 96 A 80 80 0 0 0 16.017578 96.490234 A 80 80 0 0 1 95.998047 17 L 96 17 A 80 80 0 0 1 175.97266 96.5 A 80 80 0 0 0 175.99805 96 A 80 80 0 0 0 96 16 L 95.998047 16 z "/>
</svg>
