<?xml version='1.0' encoding='utf-8'?>
<svg xmlns="http://www.w3.org/2000/svg" width="192" height="192" version="1" id="svg14">
  <defs>
    <filter style="color-interpolation-filters:sRGB" id="filter850" x="-0.048000001" width="1.096" y="-0.048000001" height="1.096">
      <feGaussianBlur stdDeviation="3.2"/>
    </filter>
    <filter style="color-interpolation-filters:sRGB" id="filter8647" x="-0.14075455" y="-0.087612072" width="1.2815091" height="1.1752241">
      <feGaussianBlur stdDeviation="3.5774929"/>
    </filter>
  </defs>
  <circle style="filter:url(#filter850);opacity:0.2;fill:#000000" cx="96" cy="100" r="80"/>
  <circle r="80" cy="96" cx="96" style="fill:#eea362"/>
  <path style="opacity:0.2;fill:#ffffff" d="M 96 16 A 80 80 0 0 0 16 96 A 80 80 0 0 0 16.019531 96.472656 A 80 80 0 0 1 96 17 A 80 80 0 0 1 175.97461 96.513672 A 80 80 0 0 0 176 96 A 80 80 0 0 0 96 16 z "/>
  <path style="filter:url(#filter8647);opacity:0.2;fill:#000000" d="m 90.101562,49 c 0,0 -9.129201,10.303484 0,20.453125 L 111.72266,91.451172 79,122.84766 c 16.402163,12.43694 27.82314,-5.99183 38.92969,-16.98243 6.86763,-6.795939 14.76602,-15.304965 3.15039,-26.42773 z m -7.794921,83 C 82.306641,132 66,131.62389 66,147 h 43.20703 c 0,0 16.79297,-0.46557 16.79297,-15 z"/>
  <path style="fill:#2d3c4d" d="M 90.101562 47 C 90.101562 47 80.972361 57.303484 90.101562 67.453125 L 111.72266 89.451172 L 79 120.84766 C 95.402163 133.2846 106.82314 114.85583 117.92969 103.86523 C 124.79732 97.069291 132.69571 88.560265 121.08008 77.4375 L 90.101562 47 z M 82.306641 130 C 82.306641 130 66 129.62389 66 145 L 109.20703 145 C 109.20703 145 126 144.53443 126 130 L 82.306641 130 z "/>
</svg>
