<?xml version='1.0' encoding='utf-8'?>
<svg xmlns="http://www.w3.org/2000/svg" width="192" height="192" version="1.1" id="svg18">
  <defs>
    <filter style="color-interpolation-filters:sRGB" id="filter865" x="-0.048000001" width="1.096" y="-0.048000001" height="1.096">
      <feGaussianBlur stdDeviation="3.2"/>
    </filter>
    <filter style="color-interpolation-filters:sRGB" id="filter3673" x="-0.045209212" y="-0.051157529" width="1.0904184" height="1.1023151">
      <feGaussianBlur stdDeviation="2.429987"/>
    </filter>
  </defs>
  <circle style="filter:url(#filter865);opacity:0.2" cx="96" cy="100" r="80"/>
  <circle style="fill:#f3ec18" cx="96" cy="95.999443" r="80"/>
  <path style="filter:url(#filter3673);opacity:0.2;fill:#000000" d="m 74,44.000037 a 9,24.5 0 0 0 -9,24.5 9,24.5 0 0 0 9,24.5 9,24.5 0 0 0 9,-24.5 9,24.5 0 0 0 -9,-24.5 z m 44,0 a 9,24.5 0 0 0 -9,24.5 9,24.5 0 0 0 9,24.5 9,24.5 0 0 0 9,-24.5 9,24.5 0 0 0 -9,-24.5 z M 40.164062,100.00199 c -0.132677,0.002 -0.264927,0.004 -0.398437,0.01 -2.136155,0.092 -4.376548,0.70834 -6.660156,1.93555 a 2.0110553,2.1401841 0 0 0 -0.888672,2.87695 2.0110553,2.1401841 0 0 0 2.701172,0.94531 c 0.8303,-0.4462 1.614999,-0.78702 2.363281,-1.03515 2.88796,29.87431 28.092618,53.26559 58.71875,53.26559 30.72032,0 55.98126,-23.53691 58.74023,-53.54297 1.03747,0.24034 2.14208,0.66777 3.3418,1.3125 a 2.0110553,2.1401841 0 0 0 2.70117,-0.94531 2.0110553,2.1401841 0 0 0 -0.88867,-2.87695 c -2.28361,-1.22721 -4.52401,-1.84351 -6.66015,-1.93555 -2.13615,-0.09204 -4.16778,0.34046 -6.03321,1.21484 a 2.0110553,2.1401841 0 0 0 -1.03125,2.82227 2.0110553,2.1401841 0 0 0 2.65235,1.0957 c 0.62808,-0.2944 1.25852,-0.52355 1.90234,-0.68164 -2.739,27.8289 -26.16977,49.53711 -54.72461,49.53711 -28.618618,0 -52.087861,-21.80621 -54.740234,-49.72461 1.003368,0.11995 1.963379,0.4217 2.917968,0.86914 a 2.0110553,2.1401841 0 0 0 2.652344,-1.0957 2.0110553,2.1401841 0 0 0 -1.03125,-2.82227 c -1.748844,-0.81973 -3.644601,-1.249792 -5.634766,-1.22461 z"/>
  <path style="opacity:0.2;fill:#ffffff;fill-rule:evenodd" d="M 96 16 A 80 80 0 0 0 16 96 A 80 80 0 0 0 16.017578 96.513672 A 80 80 0 0 1 96 17 A 80 80 0 0 1 175.76562 92.320312 A 80 80 0 0 1 175.79102 92.832031 A 80 80 0 0 1 175.97656 96.517578 A 80 80 0 0 0 176 96 A 80 80 0 0 0 96 16 z "/>
  <path style="fill:#3f3f3f" d="M 74 41 A 9 24.5 0 0 0 65 65.5 A 9 24.5 0 0 0 74 90 A 9 24.5 0 0 0 83 65.5 A 9 24.5 0 0 0 74 41 z M 118 41 A 9 24.5 0 0 0 109 65.5 A 9 24.5 0 0 0 118 90 A 9 24.5 0 0 0 127 65.5 A 9 24.5 0 0 0 118 41 z M 40.164062 97.001953 C 40.031385 97.003632 39.899135 97.005966 39.765625 97.011719 C 37.62947 97.103759 35.389077 97.720063 33.105469 98.947266 A 2.0110553 2.1401841 0 0 0 32.216797 101.82422 A 2.0110553 2.1401841 0 0 0 34.917969 102.76953 C 35.748269 102.32333 36.532968 101.98251 37.28125 101.73438 C 40.16921 131.60872 65.373868 155 96 155 C 126.72032 155 151.98126 131.46309 154.74023 101.45703 C 155.7777 101.69737 156.88231 102.1248 158.08203 102.76953 A 2.0110553 2.1401841 0 0 0 160.7832 101.82422 A 2.0110553 2.1401841 0 0 0 159.89453 98.947266 C 157.61092 97.720063 155.37052 97.103759 153.23438 97.011719 C 151.09823 96.919676 149.0666 97.352183 147.20117 98.226562 A 2.0110553 2.1401841 0 0 0 146.16992 101.04883 A 2.0110553 2.1401841 0 0 0 148.82227 102.14453 C 149.45035 101.85013 150.08079 101.62098 150.72461 101.46289 C 147.98561 129.29179 124.55484 151 96 151 C 67.381382 151 43.912139 129.19379 41.259766 101.27539 C 42.263134 101.39534 43.223145 101.69709 44.177734 102.14453 A 2.0110553 2.1401841 0 0 0 46.830078 101.04883 A 2.0110553 2.1401841 0 0 0 45.798828 98.226562 C 44.049984 97.406832 42.154227 96.976771 40.164062 97.001953 z "/>
</svg>
