<?xml version='1.0' encoding='utf-8'?>
<svg xmlns="http://www.w3.org/2000/svg" width="192" height="192" version="1" id="svg14">
  <defs>
    <filter style="color-interpolation-filters:sRGB" id="filter850" x="-0.048000001" width="1.096" y="-0.048000001" height="1.096">
      <feGaussianBlur stdDeviation="3.2"/>
    </filter>
    <filter style="color-interpolation-filters:sRGB" id="filter6815" x="-0.108" y="-0.108" width="1.216" height="1.216">
      <feGaussianBlur stdDeviation="4.95"/>
    </filter>
  </defs>
  <circle style="filter:url(#filter850);opacity:0.2;fill:#000000" cx="96" cy="100" r="80"/>
  <circle r="80" cy="96" cx="96" style="fill:#386cea;fill-opacity:0.99607843"/>
  <path style="fill:#38adfa" d="m 688.80525,256.99648 c -0.33229,-0.33229 -1.1948,-0.36781 -1.91667,-0.0789 -0.79773,0.31922 -0.56078,0.55618 0.60417,0.60416 1.05416,0.0434 1.64479,-0.19293 1.3125,-0.52522 z"/>
  <path style="opacity:0.2;fill:#ffffff" d="M 96 16 A 80 80 0 0 0 16 96 A 80 80 0 0 0 16.019531 96.472656 A 80 80 0 0 1 96 17 A 80 80 0 0 1 175.97461 96.513672 A 80 80 0 0 0 176 96 A 80 80 0 0 0 96 16 z "/>
  <path style="filter:url(#filter6815);opacity:0.2;fill:#000000" d="m 96,43 c -30.375661,0 -55,24.624339 -55,55 0,30.37566 24.624339,55 55,55 2.756569,-0.0342 5.50531,-0.27549 8.22307,-0.72137 2.41553,-0.32703 3.11405,-0.84035 4.66813,-2.39435 l 38.97188,-38.97009 c 1.6067,-1.77508 2.06374,-2.57955 2.34832,-4.28868 C 150.70039,103.7768 150.96427,100.8927 151,98 151,67.624339 126.37566,43 96,43 Z M 80.5,79 C 84.089851,79 87,82.80558 87,87.5 87,92.19442 84.089851,96 80.5,96 76.910149,96 74,92.19442 74,87.5 74,82.80558 76.910149,79 80.5,79 Z m 31,0 c 3.58985,0 6.5,3.80558 6.5,8.5 0,4.69442 -2.91015,8.5 -6.5,8.5 -3.58985,0 -6.5,-3.80558 -6.5,-8.5 0,-4.69442 2.91015,-8.5 6.5,-8.5 z m 3.3457,27.00391 c 0.84402,-0.0328 1.67677,0.20236 2.37891,0.67187 1.83587,1.22865 2.32818,3.7129 1.09961,5.54883 0,0 -7.85166,11.77539 -22.32422,11.77539 -14.472561,0 -22.324219,-11.77539 -22.324219,-11.77539 -1.228569,-1.83593 -0.736264,-4.32018 1.09961,-5.54883 0.881558,-0.59002 1.961381,-0.8057 3.001953,-0.59961 1.040711,0.20623 1.95686,0.81746 2.546875,1.69922 0,0 5.537311,8.22461 15.675781,8.22461 10.13847,0 15.67578,-8.22461 15.67578,-8.22461 0.71228,-1.06373 1.89068,-1.72227 3.16992,-1.77148 z"/>
  <path style="fill:#ffffff" d="m 96,41 c -30.375661,0 -55,24.624339 -55,55 0,30.37566 24.624339,55 55,55 2.756569,-0.0342 5.50531,-0.27549 8.22307,-0.72137 2.41553,-0.32703 3.11405,-0.84035 4.66813,-2.39435 l 38.97188,-38.97009 c 1.6067,-1.77508 2.06374,-2.57955 2.34832,-4.28868 C 150.70039,101.7768 150.96427,98.892702 151,96 151,65.624339 126.37566,41 96,41 Z M 80.5,77 C 84.089851,77 87,80.80558 87,85.5 87,90.19442 84.089851,94 80.5,94 76.910149,94 74,90.19442 74,85.5 74,80.80558 76.910149,77 80.5,77 Z m 31,0 c 3.58985,0 6.5,3.80558 6.5,8.5 0,4.69442 -2.91015,8.5 -6.5,8.5 -3.58985,0 -6.5,-3.80558 -6.5,-8.5 0,-4.69442 2.91015,-8.5 6.5,-8.5 z m 3.3457,27.00391 c 0.84402,-0.0328 1.67677,0.20236 2.37891,0.67187 1.83587,1.22865 2.32818,3.7129 1.09961,5.54883 0,0 -7.85166,11.77539 -22.32422,11.77539 -14.472561,0 -22.324219,-11.77539 -22.324219,-11.77539 -1.228569,-1.83593 -0.736264,-4.32018 1.09961,-5.54883 0.881558,-0.59002 1.961381,-0.8057 3.001953,-0.59961 1.040711,0.20623 1.95686,0.81746 2.546875,1.69922 0,0 5.537311,8.22461 15.675781,8.22461 10.13847,0 15.67578,-8.22461 15.67578,-8.22461 0.71228,-1.06373 1.89068,-1.72227 3.16992,-1.77148 z"/>
</svg>
