<?xml version='1.0' encoding='utf-8'?>
<svg xmlns="http://www.w3.org/2000/svg" width="192" height="192" version="1.1" id="svg14">
  <defs>
    <filter style="color-interpolation-filters:sRGB" id="filter6044" x="0.04" y="0.04" width="1.08" height="1.08">
      <feGaussianBlur stdDeviation="1.77"/>
    </filter>
    <filter style="color-interpolation-filters:sRGB" id="filter14657" x="0.05" y="0.19" width="1.09" height="1.38">
      <feGaussianBlur stdDeviation="2.70"/>
    </filter>
    <filter style="color-interpolation-filters:sRGB" id="filter14806" x="0.05" y="0.05" width="1.10" height="1.10">
      <feGaussianBlur stdDeviation="3.20"/>
    </filter>
  </defs>
  <rect style="filter:url(#filter14806);opacity:0.20;fill:#000000" width="160" height="160" x="16" y="20" rx="24" ry="24"/>
  <rect style="fill:#443e3e" width="160" height="160" x="16" y="16" rx="24" ry="24"/>
  <path style="fill:#ef7247" d="m 16,64 v 76 H 176 V 64 Z"/>
  <circle style="filter:url(#filter6044);opacity:0.20;fill:#000000" cx="134.37" cy="-46.75" r="52" transform="rotate(66.75)"/>
  <path style="fill:#ffa000" d="M 97.17,50.01 A 52,52 0 0 0 96,50.07 V 102 l 44.95,-25.99 a 52,52 0 0 0 -43.78,-26 z"/>
  <path style="filter:url(#filter14657);opacity:0.20;fill:#000000" d="M 41,25 A 17,17 0 0 0 24,42 17,17 0 0 0 41,59 17,17 0 0 0 58,42 17,17 0 0 0 41,25 Z m 98,6 a 2,2 0 0 0 -2,2 2,2 0 0 0 2,2 h 22 a 2,2 0 0 0 2,-2 2,2 0 0 0 -2,-2 z m 0,5 a 2,2 0 0 0 -2,2 2,2 0 0 0 2,2 h 22 a 2,2 0 0 0 2,-2 2,2 0 0 0 -2,-2 z m 0,5 a 2,2 0 0 0 -2,2 2,2 0 0 0 2,2 h 22 a 2,2 0 0 0 2,-2 2,2 0 0 0 -2,-2 z"/>
  <circle style="fill:#ef7247" cx="41" cy="40" r="17"/>
  <path style="fill:#ffd43b" d="M 140.95,76.01 96,102 l 45.04,25.96 a 52,52 0 0 0 2.73,-46.49 52,52 0 0 0 -2.82,-5.46 z"/>
  <path style="fill:#ffffff;color:#000000" d="m 139,29 a 2,2 0 0 0 -2,2 2,2 0 0 0 2,2 h 22 a 2,2 0 0 0 2,-2 2,2 0 0 0 -2,-2 z m 0,5 a 2,2 0 0 0 -2,2 2,2 0 0 0 2,2 h 22 a 2,2 0 0 0 2,-2 2,2 0 0 0 -2,-2 z m 0,5 a 2,2 0 0 0 -2,2 2,2 0 0 0 2,2 h 22 a 2,2 0 0 0 2,-2 2,2 0 0 0 -2,-2 z"/>
  <path style="fill:#7fc430" d="m 96,102 v 51.93 a 52,52 0 0 0 20.52,-4.15 52,52 0 0 0 24.52,-21.81 z"/>
  <path style="fill:#f44336" d="m 94.82,50.01 a 52,52 0 0 1 1.17,0.06 V 102 L 51.04,76.01 a 52,52 0 0 1 43.78,-26 z"/>
  <path style="fill:#0c7edc" d="M 51.04,76.01 95.99,102 50.95,127.96 a 52,52 0 0 1 -2.73,-46.49 52,52 0 0 1 2.82,-5.46 z"/>
  <path style="fill:#03a9f4" d="m 95.99,102 v 51.93 A 52,52 0 0 1 75.47,149.78 52,52 0 0 1 50.95,127.96 Z"/>
  <circle style="fill:#534d4d" cx="96" cy="102" r="33"/>
  <path style="fill:#ffffff" d="m 33.81,33 c -1.80,0 -3.22,0.62 -4.26,1.87 C 28.52,36.12 28,37.83 28,40.00 c 0,2.15 0.51,3.86 1.53,5.12 C 30.55,46.37 31.92,47 33.67,47 34.44,47 35.18,46.89 35.91,46.68 36.63,46.47 37.33,46.16 38,45.73 V 39 h -4 v 2 h 2 v 2.70 c 0.19,0.10 0.96,0.17 -1.21,0.22 0.24,0.04 0.50,0.06 0.78,0.06 -1.03,0 -1.63,0.39 -2.19,-1.17 0.56,0.78 0.84,-1.38 0.84,-2.81 0,-1.44 0.29,-2.05 0.87,-2.82 0.58,0.78 1.21,-1.17 2.29,-1.17 0.58,0 1.16,0.11 1.73,0.32 0.58,0.21 1.16,0.53 1.74,0.96 v -3.29 c 0.56,0.33 -1.17,0.58 -1.81,0.75 C 35.17,33.09 34.51,33 33.81,33 Z M 40,33 v 14 h 3 V 33 Z m 5,0 v 14 h 3 v -5 h 4 v -3 h -4 v -3 h 5 v -3 z"/>
  <path style="opacity:0.20;fill:#ffffff" d="m 97.18,50.01 a 52,52 0 0 0 -21.70,4.21 52,52 0 0 0 -31.43,47.26 52,52 0 0 1 31.43,-46.26 52,52 0 0 1 68.30,27.25 52,52 0 0 1 4.21,19.61 52,52 0 0 0 -4.21,-20.61 52,52 0 0 0 -46.60,-31.46 z"/>
  <path style="opacity:0.10;fill:#ffffff" d="M 40,16 C 26.70,16 16,26.70 16,40 v 1 C 16,27.70 26.70,17 40,17 h 112 c 13.30,0 24,10.70 24,24 V 40 C 176,26.70 165.30,16 152,16 Z"/>
  <path style="opacity:0.20;fill:#ffffff" d="M 41,23 A 17,17 0 0 0 24,40 17,17 0 0 0 24.04,40.50 17,17 0 0 1 41,24 17,17 0 0 1 57.98,40.25 17,17 0 0 0 58,40 17,17 0 0 0 41,23 Z"/>
</svg>
