<?xml version='1.0' encoding='utf-8'?>
<svg xmlns="http://www.w3.org/2000/svg" width="192" height="192" version="1.1" id="svg14">
  <defs>
    <filter style="color-interpolation-filters:sRGB" id="filter849" x="0.05" y="0.05" width="1.10" height="1.10">
      <feGaussianBlur stdDeviation="3.20"/>
    </filter>
    <filter style="color-interpolation-filters:sRGB" id="filter7457" x="0.05" y="0.05" width="1.10" height="1.10">
      <feGaussianBlur stdDeviation="2.36"/>
    </filter>
  </defs>
  <circle style="fill:#1a1a1a" cx="96" cy="96" r="79.50"/>
  <circle style="filter:url(#filter849);opacity:0.20" cx="96" cy="100" r="80"/>
  <path style="fill:#9e41ff" d="M 16.80 84.80 A 80 80 0 0 0 16 96 A 80 80 0 0 0 96 176 A 80 80 0 0 0 107.20 175.20 L 16.80 84.80 z "/>
  <path style="fill:#ff45f7" d="M 29.29 51.96 A 80 80 0 0 0 16.80 84.80 L 107.20 175.20 A 80 80 0 0 0 140.04 162.71 L 29.29 51.96 z "/>
  <path style="fill:#ff5050" d="M 51.96 29.29 A 80 80 0 0 0 29.29 51.96 L 140.04 162.71 A 80 80 0 0 0 162.71 140.04 L 51.96 29.29 z "/>
  <path style="fill:#ff9725" d="M 84.80 16.80 A 80 80 0 0 0 51.96 29.29 L 162.71 140.04 A 80 80 0 0 0 175.20 107.20 L 84.80 16.80 z "/>
  <path style="fill:#ffe840" d="M 96 16 A 80 80 0 0 0 84.80 16.80 L 175.20 107.20 A 80 80 0 0 0 176 96 A 80 80 0 0 0 96 16 z "/>
  <path style="opacity:0.20;fill:#ffffff" d="M 96,16 A 80,80 0 0 0 16,96 80,80 0 0 0 16.02,96.64 80,80 0 0 1 96,17 80,80 0 0 1 175.98,96.30 80,80 0 0 0 176,96 80,80 0 0 0 96,16 Z"/>
  <path style="filter:url(#filter7457);opacity:0.20;fill:#000000" d="M 94.50,40 A 3.50,3.50 0 0 0 91,43.50 3.50,3.50 0 0 0 94.50,47 3.50,3.50 0 0 0 98,43.50 3.50,3.50 0 0 0 94.50,40 Z m 26.50,3 a 8,8 0 0 0 -8,8 8,8 0 0 0 8,8 8,8 0 0 0 8,-8 8,8 0 0 0 -8,-8 z m -53,4 a 4,4 0 0 0 -4,4 4,4 0 0 0 4,4 4,4 0 0 0 4,-4 4,4 0 0 0 -4,-4 z m 32.99,13.01 c 0.49,0.00 0.97,0.01 -1.46,0.03 -7.76,0.30 -15.42,2.96 -21.84,7.95 C 64.85,77.96 59.77,95.05 65.08,110.41 70.39,125.78 84.95,136.09 101.20,136 v 0.02 a 6,6 0 0 0 0.14,0.02 c 10.03,0.07 19.05,-6.29 22.35,-15.76 3.30,-9.47 0.20,-20.06 -7.70,-26.24 -3.95,-3.09 -8.68,-4.76 -13.47,-4.97 -4.79,0.21 -9.65,1.04 -13.85,3.78 a 6,6 0 0 0 -1.75,8.30 6,6 0 0 0 8.30,1.75 c 4.14,-2.70 9.48,-2.47 13.37,0.58 3.89,3.05 5.40,8.17 3.77,12.84 -1.63,4.67 -5.99,7.75 -10.94,7.71 a 6,6 0 0 0 0.28,0.04 V 124 C 89.98,124.06 80.07,117.04 76.43,106.49 72.78,95.95 76.24,84.31 85.05,77.46 93.87,70.62 106.00,70.15 115.31,76.29 l 6.61,-10.02 c -6.36,-4.19 -13.65,-6.27 -20.93,-6.27 z M 141,62 a 8,8 0 0 0 -8,8 8,8 0 0 0 8,8 8,8 0 0 0 8,-8 8,8 0 0 0 -8,-8 z M 48.50,66 A 4.50,4.50 0 0 0 44,70.50 4.50,4.50 0 0 0 48.50,75 4.50,4.50 0 0 0 53,70.50 4.50,4.50 0 0 0 48.50,66 Z m 99,23 a 7.50,7.50 0 0 0 -7.50,7.50 7.50,7.50 0 0 0 7.50,7.50 7.50,7.50 0 0 0 7.50,-7.50 7.50,7.50 0 0 0 -7.50,-7.50 z M 41,92 a 5,5 0 0 0 -5,5 5,5 0 0 0 5,5 5,5 0 0 0 5,-5 5,5 0 0 0 -5,-5 z m 99.50,24 a 7.50,7.50 0 0 0 -7.50,7.50 7.50,7.50 0 0 0 7.50,7.50 7.50,7.50 0 0 0 7.50,-7.50 7.50,7.50 0 0 0 -7.50,-7.50 z m -92,2 a 5.50,5.50 0 0 0 -5.50,5.50 5.50,5.50 0 0 0 5.50,5.50 5.50,5.50 0 0 0 5.50,-5.50 5.50,5.50 0 0 0 -5.50,-5.50 z m 72.50,18 a 7,7 0 0 0 -7,7 7,7 0 0 0 7,7 7,7 0 0 0 7,-7 7,7 0 0 0 -7,-7 z m -53,1 a 6,6 0 0 0 -6,6 6,6 0 0 0 6,6 6,6 0 0 0 6,-6 6,6 0 0 0 -6,-6 z m 27,6 a 7,7 0 0 0 -7,7 7,7 0 0 0 7,7 7,7 0 0 0 7,-7 7,7 0 0 0 -7,-7 z"/>
  <path style="fill:#ffffff" d="M 94.50 38 A 3.50 3.50 0 0 0 91 41.50 A 3.50 3.50 0 0 0 94.50 45 A 3.50 3.50 0 0 0 98 41.50 A 3.50 3.50 0 0 0 94.50 38 z M 121 41 A 8 8 0 0 0 113 49 A 8 8 0 0 0 121 57 A 8 8 0 0 0 129 49 A 8 8 0 0 0 121 41 z M 68 45 A 4 4 0 0 0 64 49 A 4 4 0 0 0 68 53 A 4 4 0 0 0 72 49 A 4 4 0 0 0 68 45 z M 100.99 58.01 C 100.50 58.01 100.02 58.02 99.53 58.04 C 91.78 58.34 84.11 61.00 77.69 65.99 C 64.85 75.96 59.77 93.05 65.08 108.41 C 70.39 123.78 84.95 134.09 101.20 134 L 101.20 133.98 A 6 6 0 0 0 101.34 134.00 C 111.37 134.07 120.38 127.71 123.69 118.24 C 126.99 108.77 123.89 98.18 115.99 92.00 C 112.04 88.91 107.31 87.24 102.52 87.03 C 97.72 86.82 92.87 88.07 88.67 90.81 A 6 6 0 0 0 86.92 99.12 A 6 6 0 0 0 95.22 100.87 C 99.36 98.17 104.70 98.40 108.59 101.45 C 112.48 104.49 113.99 109.62 112.36 114.29 C 110.73 118.95 106.36 122.03 101.42 122 A 6 6 0 0 0 101.14 122.04 L 101.14 122 C 89.98 122.06 80.07 115.04 76.43 104.49 C 72.78 93.95 76.24 82.31 85.05 75.46 C 93.87 68.62 106.00 68.15 115.31 74.29 L 121.92 64.28 C 115.56 60.08 108.26 58.01 100.99 58.01 z M 141 60 A 8 8 0 0 0 133 68 A 8 8 0 0 0 141 76 A 8 8 0 0 0 149 68 A 8 8 0 0 0 141 60 z M 48.50 64 A 4.50 4.50 0 0 0 44 68.50 A 4.50 4.50 0 0 0 48.50 73 A 4.50 4.50 0 0 0 53 68.50 A 4.50 4.50 0 0 0 48.50 64 z M 147.50 87 A 7.50 7.50 0 0 0 140 94.50 A 7.50 7.50 0 0 0 147.50 102 A 7.50 7.50 0 0 0 155 94.50 A 7.50 7.50 0 0 0 147.50 87 z M 41 90 A 5 5 0 0 0 36 95 A 5 5 0 0 0 41 100 A 5 5 0 0 0 46 95 A 5 5 0 0 0 41 90 z M 140.50 114 A 7.50 7.50 0 0 0 133 121.50 A 7.50 7.50 0 0 0 140.50 129 A 7.50 7.50 0 0 0 148 121.50 A 7.50 7.50 0 0 0 140.50 114 z M 48.50 116 A 5.50 5.50 0 0 0 43 121.50 A 5.50 5.50 0 0 0 48.50 127 A 5.50 5.50 0 0 0 54 121.50 A 5.50 5.50 0 0 0 48.50 116 z M 121 134 A 7 7 0 0 0 114 141 A 7 7 0 0 0 121 148 A 7 7 0 0 0 128 141 A 7 7 0 0 0 121 134 z M 68 135 A 6 6 0 0 0 62 141 A 6 6 0 0 0 68 147 A 6 6 0 0 0 74 141 A 6 6 0 0 0 68 135 z M 95 141 A 7 7 0 0 0 88 148 A 7 7 0 0 0 95 155 A 7 7 0 0 0 102 148 A 7 7 0 0 0 95 141 z "/>
</svg>
