<?xml version='1.0' encoding='utf-8'?>
<svg xmlns="http://www.w3.org/2000/svg" width="192" height="192" version="1" id="svg16">
  <defs>
    <filter style="color-interpolation-filters:sRGB" id="filter853" x="0.05" y="0.05" width="1.10" height="1.10">
      <feGaussianBlur stdDeviation="3.36"/>
    </filter>
    <filter style="color-interpolation-filters:sRGB" id="filter857" x="0.02" y="-1.03" width="1.05" height="3.06">
      <feGaussianBlur stdDeviation="1.72"/>
    </filter>
    <filter style="color-interpolation-filters:sRGB" id="filter861" x="0.06" y="0.04" width="1.12" height="1.08">
      <feGaussianBlur stdDeviation="1.08"/>
    </filter>
  </defs>
  <path style="filter:url(#filter853);opacity:0.20" d="m 96.00,16.00 c -4.40,0 -8.80,1.64 -12.09,4.93 L 16.93,87.91 c -6.58,6.58 -6.57,17.59 0.01,24.17 l 66.98,66.98 c 6.58,6.58 17.60,6.59 24.18,0.01 l 66.98,-66.98 c 6.58,-6.58 6.58,-17.60 0,-24.18 L 108.09,20.93 c -3.29,-3.29 -7.69,-4.93 -12.09,-4.93 z"/>
  <path style="fill:#3a497d" d="m 12,96.00 c 0.00,4.39 1.65,8.79 4.94,12.08 l 66.98,66.98 c 6.58,6.58 17.60,6.59 24.18,0.01 L 175.06,108.09 C 178.35,104.80 180,100.40 180,96.00 Z"/>
  <path style="filter:url(#filter857);opacity:0.20" d="m 12,94 c 0.00,1.35 0.21,2.68 0.52,4 H 179.48 C 179.79,96.68 180,95.35 180,94 Z"/>
  <path style="fill:#8d49bc" d="m 96,12.00 c -4.40,0 -8.80,1.64 -12.09,4.93 L 16.93,83.91 C 13.64,87.21 12.00,91.60 12,96.00 h 168 c 0,-4.40 -1.65,-8.80 -4.94,-12.09 L 108.09,16.93 C 104.80,13.64 100.40,12.00 96,12.00 Z m 84,84 c 0,2.20 0.41,4.40 -1.23,6.46 C 179.59,100.40 180,98.20 180,96.00 Z m -1.23,6.46 c 0.82,2.06 -2.06,3.98 -3.70,5.62 1.64,-1.64 2.88,-3.56 3.70,-5.62 z"/>
  <path style="opacity:0.10;fill:#ffffff" d="M 96 12 C 91.60 12 87.20 13.64 83.91 16.93 L 16.93 83.91 C 13.51 87.33 11.95 91.93 12.10 96.49 C 12.20 92.26 13.76 88.08 16.93 84.91 L 83.91 17.93 C 87.20 14.64 91.60 13 96 13 C 100.40 13 104.80 14.64 108.09 17.93 L 175.06 84.91 C 178.23 88.08 179.81 92.28 179.90 96.52 C 180.05 91.95 178.48 87.33 175.06 83.91 L 108.09 16.93 C 104.80 13.64 100.40 12 96 12 z "/>
  <path style="filter:url(#filter861);opacity:0.20" d="M 124,98 80.00,130 V 66.00 Z"/>
  <path style="fill:#ffffff" d="M 124,96 80.00,128 V 64.00 Z"/>
</svg>
