<?xml version='1.0' encoding='utf-8'?>
<svg xmlns="http://www.w3.org/2000/svg" width="192" height="192" version="1" id="svg28">
  <defs>
    <filter style="color-interpolation-filters:sRGB" id="filter1827" x="-0.048000001" y="-0.048000001" width="1.096" height="1.096">
      <feGaussianBlur stdDeviation="3.2"/>
    </filter>
  </defs>
  <path style="filter:url(#filter1827);opacity:0.2;fill:#000000" d="M 55,20 A 39,39 0 0 0 16,59 39,39 0 0 0 55,98 39,39 0 0 0 94,59 39,39 0 0 0 55,20 Z m 82,0 A 39,39 0 0 0 98,59 39,39 0 0 0 137,98 39,39 0 0 0 176,59 39,39 0 0 0 137,20 Z m 0,82 a 39,39 0 0 0 -39,39 39,39 0 0 0 39,39 39,39 0 0 0 39,-39 39,39 0 0 0 -39,-39 z"/>
  <circle style="fill:#2195f1" cx="55" cy="55" r="39"/>
  <circle style="fill:#4bae4f" cx="-137" cy="55" r="39" transform="scale(-1,1)"/>
  <circle style="fill:#fd5622" cx="-137" cy="-137" r="39" transform="scale(-1)"/>
  <path style="opacity:0.2;fill:#ffffff" d="M 55 16 A 39 39 0 0 0 16 55 A 39 39 0 0 0 16.048828 55.5 A 39 39 0 0 1 55 17 A 39 39 0 0 1 93.974609 55.265625 A 39 39 0 0 0 94 55 A 39 39 0 0 0 55 16 z M 137 16 A 39 39 0 0 0 98 55 A 39 39 0 0 0 98.048828 55.5 A 39 39 0 0 1 137 17 A 39 39 0 0 1 175.97461 55.265625 A 39 39 0 0 0 176 55 A 39 39 0 0 0 137 16 z M 137 98 A 39 39 0 0 0 98 137 A 39 39 0 0 0 98.048828 137.5 A 39 39 0 0 1 137 99 A 39 39 0 0 1 175.97461 137.26562 A 39 39 0 0 0 176 137 A 39 39 0 0 0 137 98 z "/>
</svg>
