<svg xmlns="http://www.w3.org/2000/svg" id="svg14" width="192" height="192" version="1"><defs><filter style="color-interpolation-filters:sRGB" id="filter850" width="1.1" height="1.1" x=".05" y=".05"><feGaussianBlur stdDeviation="3.2"/></filter><filter style="color-interpolation-filters:sRGB" id="filter11546" width="1.15" height="1.15" x=".07" y=".08"><feGaussianBlur stdDeviation="3.61"/></filter></defs><circle style="filter:url(#filter850);opacity:.2;fill:#000" cx="96" cy="100" r="80"/><circle cx="96" cy="96" r="80" style="fill:#00ad98"/><path style="filter:url(#filter11546);opacity:.2;fill:#000;color:#000" d="m 106.47,40.96 a 5,5 0 0 0 -5.82,4.02 5,5 0 0 0 4.01,5.82 c 15.67,2.88 28.88,13.33 35.29,27.92 6.40,14.59 5.16,31.39 -3.33,44.87 a 5,5 0 0 0 1.57,6.89 5,5 0 0 0 6.90,-1.57 c 10.25,-16.28 11.76,-36.60 4.03,-54.22 C 141.38,57.08 125.39,44.43 106.47,40.96 Z m -20.28,0.24 a 5,5 0 0 0 -1.95,0.02 c -23.27,4.82 -41.27,23.38 -45.37,46.79 -4.10,23.41 6.52,46.98 26.77,59.42 20.25,12.44 46.08,11.26 65.11,-2.97 a 5,5 0 0 0 1.01,-7 5,5 0 0 0 -7.00,-1.01 C 108.98,148.24 87.65,149.21 70.87,138.90 54.09,128.59 45.32,109.13 48.72,89.73 52.12,70.33 66.98,55.00 86.27,51.00 a 5,5 0 0 0 3.88,-5.91 5,5 0 0 0 -3.96,-3.90 z M 97,73.03 V 83.04 c 7.87,0.51 14,6.96 14,14.96 0,8.34 -6.66,15.00 -15,15.00 -8.01,0 -14.46,-6.13 -14.96,-14.00 h 9.70 l -6.90,-7.07 -6.89,-7.07 -6.89,7.07 -6.89,7.07 h 7.87 C 71.56,112.29 82.59,123.01 96,123.01 c 13.75,0 25,-11.25 25,-25.00 0,-13.41 -10.71,-24.44 -24,-24.97 z"/><path style="fill:#38adfa" d="m 688.81,257.00 c 0.33,0.33 -1.19,0.37 -1.92,0.08 0.80,0.32 0.56,0.56 0.60,0.60 1.05,0.04 1.64,0.19 1.31,0.53 z"/><path style="opacity:.2;fill:#fff" d="M 96 16 A 80 80 0 0 0 16 96 A 80 80 0 0 0 16.02 96.47 A 80 80 0 0 1 96 17 A 80 80 0 0 1 175.97 96.51 A 80 80 0 0 0 176 96 A 80 80 0 0 0 96 16 z"/><path style="fill:#39dabc;color:#000" d="m 84.24,39.21 c -23.27,4.82 -41.27,23.38 -45.37,46.79 -4.10,23.41 6.52,46.98 26.77,59.42 20.25,12.44 46.08,11.26 65.11,-2.97 a 5,5 0 0 0 1.01,-7 5,5 0 0 0 -7.00,-1.01 c -15.77,11.80 -37.10,12.77 -53.88,2.46 C 54.09,126.59 45.32,107.12 48.72,87.72 52.12,68.32 66.98,52.99 86.27,49.00 a 5,5 0 0 0 3.88,-5.91 5,5 0 0 0 -5.91,-3.88 z"/><path style="fill:#7fe7d2;color:#000" d="m 106.47,38.95 a 5,5 0 0 0 -5.82,4.02 5,5 0 0 0 4.01,5.82 c 15.67,2.88 28.88,13.33 35.29,27.92 6.40,14.59 5.16,31.39 -3.33,44.87 a 5,5 0 0 0 1.57,6.89 5,5 0 0 0 6.90,-1.57 C 155.33,110.63 156.84,90.30 149.11,72.69 141.38,55.07 125.39,42.43 106.47,38.95 Z"/><path style="fill:#fff;color:#000" d="M 97 71.03 L 97 81.04 C 104.87 81.54 111 87.99 111 96 C 111 104.34 104.34 111 96 111 C 87.99 111 81.54 104.87 81.04 97 L 90.73 97 L 83.84 89.93 L 76.94 82.87 L 70.05 89.93 L 63.15 97 L 71.03 97 C 71.56 110.29 82.59 121 96 121 C 109.75 121 121 109.75 121 96 C 121 82.59 110.29 71.56 97 71.03 z"/><path style="opacity:.2;fill:#fff;color:#000" d="M 106.47 38.95 A 5 5 0 0 0 100.65 42.97 A 5 5 0 0 0 100.72 43.83 A 5 5 0 0 1 106.47 39.96 C 125.39 43.43 141.38 56.08 149.11 73.69 C 152.39 81.17 153.99 89.14 153.98 97.07 C 154.14 88.81 152.53 80.48 149.11 72.69 C 141.38 55.07 125.39 42.43 106.47 38.95 z M 86.19 39.19 A 5 5 0 0 0 84.24 39.21 C 60.97 44.02 42.97 62.59 38.87 85.99 C 38.31 89.19 38.05 92.38 38.03 95.55 C 38.10 92.71 38.37 89.85 38.87 87 C 42.97 63.59 60.97 45.03 84.24 40.21 A 5 5 0 0 1 86.19 40.20 A 5 5 0 0 1 90.15 44.09 A 5 5 0 0 1 90.21 44.62 A 5 5 0 0 0 90.15 43.09 A 5 5 0 0 0 86.19 39.19 z M 48.02 95.78 C 47.58 112.72 56.13 128.85 70.87 137.90 C 87.65 148.21 108.98 147.24 124.75 135.44 A 5 5 0 0 1 131.75 136.45 A 5 5 0 0 1 132.71 138.91 A 5 5 0 0 0 131.75 135.44 A 5 5 0 0 0 124.75 134.44 C 108.98 146.23 87.65 147.21 70.87 136.90 C 56.42 128.02 47.93 112.35 48.02 95.78 z M 143.98 96.93 C 143.82 105.54 141.34 114.07 136.62 121.58 A 5 5 0 0 0 135.98 124.63 A 5 5 0 0 1 136.62 122.58 C 141.53 114.79 144.00 105.88 143.98 96.93 z"/></svg>