<?xml version='1.0' encoding='utf-8'?>
<svg xmlns="http://www.w3.org/2000/svg" width="192" height="192" version="1" id="svg12">
  <defs>
    <filter style="color-interpolation-filters:sRGB" id="filter902" x="-0.048000001" width="1.096" y="-0.048000001" height="1.096">
      <feGaussianBlur stdDeviation="3.2"/>
    </filter>
    <filter style="color-interpolation-filters:sRGB" id="filter933" x="-0.048000002" width="1.096" y="-0.048000002" height="1.096">
      <feGaussianBlur stdDeviation="2.4"/>
    </filter>
  </defs>
  <rect style="filter:url(#filter902);opacity:0.2" width="160" height="160" x="16" y="20" rx="48" ry="48"/>
  <path style="fill:#e53fa9" d="M 72.391608,22.293706 128,16 c 26.592,0 48,21.408 48,48 v 64 c 0,26.592 -21.408,48 -48,48 L 64.34965,170.40559 C 37.859772,168.07733 21.747196,151.79436 21.594406,125.2028 L 21.244755,64.34965 C 21.091965,37.758089 45.968305,25.284271 72.391608,22.293706 Z"/>
  <path style="fill:#7e53cb" d="M 64,16 C 37.408,16 16,37.408 16,64 V 96 H 26 C 75.089132,95.956693 118.20808,63.391955 131.67969,16.1875 130.46143,16.095672 129.24255,16 128,16 Z"/>
  <path style="fill:#f97b49" d="M 26,96 H 16 v 32 c 0,26.592 21.408,48 48,48 h 64 c 1.26097,0 2.49845,-0.093 3.73438,-0.18748 C 118.25721,128.58858 75.109416,96.018907 26,96 Z"/>
  <path style="opacity:0.2;fill:#ffffff" d="M 64 16 C 37.408 16 16 37.408 16 64 L 16 65 C 16 38.408 37.408 17 64 17 L 128 17 C 154.592 17 176 38.408 176 65 L 176 64 C 176 37.408 154.592 16 128 16 L 64 16 z "/>
  <path style="filter:url(#filter933);opacity:0.2;fill:#000000;color:#000000;font-stretch:normal;font-variant-ligatures:normal;font-variant-position:normal;font-variant-caps:normal;font-variant-numeric:normal;font-variant-alternates:normal;font-feature-settings:normal;text-indent:0;text-align:start;text-decoration-line:none;text-decoration-style:solid;text-decoration-color:#000000;text-transform:none;writing-mode:lr-tb;direction:ltr;text-orientation:mixed;dominant-baseline:auto;baseline-shift:baseline;white-space:normal;shape-padding:0;clip-rule:nonzero;display:inline;overflow:visible;visibility:visible;isolation:auto;mix-blend-mode:normal;color-interpolation:sRGB;color-interpolation-filters:linearRGB;solid-color:#000000;solid-opacity:1;vector-effect:none;fill-rule:nonzero;color-rendering:auto;image-rendering:auto;shape-rendering:auto;text-rendering:auto;enable-background:accumulate" d="M 70,40 C 51.267784,40 36,55.267784 36,74 v 52 c 0,18.73222 15.267784,34 34,34 h 52 c 18.73222,0 34,-15.26778 34,-34 V 74 C 156,55.267784 140.73222,40 122,40 Z m 0,12 h 52 c 12.29178,0 22,9.708216 22,22 v 52 c 0,12.29178 -9.70822,22 -22,22 H 70 C 57.708216,148 48,138.29178 48,126 V 74 C 48,61.708216 57.708216,52 70,52 Z m 58,8 a 8,8 0 0 0 -8,8 8,8 0 0 0 8,8 8,8 0 0 0 8,-8 8,8 0 0 0 -8,-8 z m -32,8 c -17.602044,0 -32,14.397956 -32,32 0,17.60204 14.397956,32 32,32 17.60204,0 32,-14.39796 32,-32 0,-17.602044 -14.39796,-32 -32,-32 z m 0,12 c 11.11676,0 20,8.883236 20,20 0,11.11676 -8.88324,20 -20,20 -11.116764,0 -20,-8.88324 -20,-20 0,-11.116764 8.883236,-20 20,-20 z"/>
  <rect style="fill:none;stroke:#ffffff;stroke-width:12;stroke-linecap:round;stroke-linejoin:round" width="108" height="108" x="42" y="42" rx="28" ry="28"/>
  <circle style="fill:none;stroke:#ffffff;stroke-width:12;stroke-linecap:round;stroke-linejoin:round" cx="96" cy="96" r="26"/>
  <circle style="fill:#ffffff" cx="128" cy="64" r="8"/>
</svg>
