<?xml version='1.0' encoding='utf-8'?>
<svg xmlns="http://www.w3.org/2000/svg" width="192" height="192" version="1.1" id="svg20">
  <defs>
    <filter style="color-interpolation-filters:sRGB" id="filter857" x="-0.048000001" width="1.096" y="-0.048000001" height="1.096">
      <feGaussianBlur stdDeviation="3.2"/>
    </filter>
    <filter style="color-interpolation-filters:sRGB" id="filter864" x="-0.048000001" width="1.096" y="-0.048000001" height="1.096">
      <feGaussianBlur stdDeviation="1.6"/>
    </filter>
  </defs>
  <circle r="80" cy="100" cx="96" style="filter:url(#filter857);opacity:0.2"/>
  <circle r="80" cy="96" cx="96" style="fill:#fb613a"/>
  <path style="opacity:0.2;fill:#ffffff" d="M 96,16 A 80,80 0 0 0 16,96 80,80 0 0 0 16.019531,96.472656 80,80 0 0 1 96,17 80,80 0 0 1 175.97461,96.513672 80,80 0 0 0 176,96 80,80 0 0 0 96,16 Z"/>
  <path d="M 96,58 A 40,40 0 0 0 56,98 40,40 0 0 0 96,138 40,40 0 0 0 136,98 40,40 0 0 0 96,58 Z M 76.982422,101 H 96 115.01758 c 4.66241,7.9e-4 6.10889,0.68465 4.10156,6.00391 C 115.53778,116.3616 106.53956,123 96,123 85.460438,123 76.462229,116.3616 72.880859,107.00391 70.873529,101.68465 72.320021,101.00079 76.982422,101 Z" style="filter:url(#filter864);opacity:0.2;fill:#000000"/>
  <path style="fill:#ffffff" d="M 96,56 A 40,40 0 0 0 56,96 40,40 0 0 0 96,136 40,40 0 0 0 136,96 40,40 0 0 0 96,56 Z M 76.982422,99 H 96 115.01758 c 4.66241,7.95e-4 6.10889,0.68465 4.10156,6.00391 C 115.53778,114.3616 106.53956,121 96,121 85.460438,121 76.462229,114.3616 72.880859,105.00391 70.873529,99.68465 72.320021,99.000795 76.982422,99 Z"/>
</svg>
