<?xml version='1.0' encoding='utf-8'?>
<svg xmlns="http://www.w3.org/2000/svg" width="192" height="192" version="1" id="svg12">
  <defs>
    <filter style="color-interpolation-filters:sRGB" id="filter860" x="-0.048000001" width="1.096" y="-0.048000001" height="1.096">
      <feGaussianBlur stdDeviation="3.2"/>
    </filter>
    <filter style="color-interpolation-filters:sRGB" id="filter847" x="-0.050727273" width="1.1014545" y="-0.045551021" height="1.091102">
      <feGaussianBlur stdDeviation="1.86"/>
    </filter>
  </defs>
  <rect style="filter:url(#filter860);opacity:0.2" width="160" height="160" x="16" y="20" rx="8" ry="8"/>
  <rect style="fill:#10b38f" width="160" height="160" x="16" y="16" rx="8" ry="8"/>
  <path style="opacity:0.2;fill:#ffffff" d="m 24,16 c -4.432,0 -8,3.568 -8,8 v 1 c 0,-4.432 3.568,-8 8,-8 h 144 c 4.432,0 8,3.568 8,8 v -1 c 0,-4.432 -3.568,-8 -8,-8 z"/>
  <path d="M 96,50 C 81.94817,57.470643 67.225887,60.892515 52,61.277344 V 83.039062 C 52,135.70792 84.713113,142.33954 96,148 c 11.2869,-5.66046 44,-12.29208 44,-64.960938 V 61.277344 C 124.77412,60.892515 110.05184,57.470643 96,50 Z m -3.818359,24 h 7.636718 C 102.13548,74 104,75.649351 104,77.697266 V 90 h 12.30273 C 118.35065,90 120,91.864517 120,94.181641 v 7.636719 C 120,104.13548 118.35065,106 116.30273,106 H 114 104 v 12.30273 C 104,120.35065 102.13548,122 99.818359,122 H 98 94 92.181641 C 89.864517,122 88,120.35065 88,118.30273 V 106 H 78 75.697266 C 73.649351,106 72,104.13548 72,101.81836 V 94.181641 C 72,91.864517 73.649351,90 75.697266,90 H 88 V 77.697266 C 88,75.649351 89.864517,74 92.181641,74 Z" style="filter:url(#filter847);opacity:0.2;fill:#000000"/>
  <path style="fill:#ffffff" d="M 96 48 C 81.94817 55.470643 67.225887 58.892515 52 59.277344 L 52 81.039062 C 52 133.70792 84.713113 140.33954 96 146 C 107.2869 140.33954 140 133.70792 140 81.039062 L 140 59.277344 C 124.77412 58.892515 110.05184 55.470643 96 48 z M 92.181641 72 L 99.818359 72 C 102.13548 72 104 73.649351 104 75.697266 L 104 88 L 116.30273 88 C 118.35065 88 120 89.864517 120 92.181641 L 120 99.818359 C 120 102.13548 118.35065 104 116.30273 104 L 114 104 L 104 104 L 104 116.30273 C 104 118.35065 102.13548 120 99.818359 120 L 98 120 L 94 120 L 92.181641 120 C 89.864517 120 88 118.35065 88 116.30273 L 88 104 L 78 104 L 75.697266 104 C 73.649351 104 72 102.13548 72 99.818359 L 72 92.181641 C 72 89.864517 73.649351 88 75.697266 88 L 88 88 L 88 75.697266 C 88 73.649351 89.864517 72 92.181641 72 z "/>
</svg>
