<?xml version='1.0' encoding='utf-8'?>
<svg xmlns="http://www.w3.org/2000/svg" width="192" height="192" version="1" id="svg16">
  <defs>
    <filter style="color-interpolation-filters:sRGB" id="filter867" x="0.05" width="1.10" y="0.05" height="1.10">
      <feGaussianBlur stdDeviation="3.20"/>
    </filter>
    <filter style="color-interpolation-filters:sRGB" id="filter3633" x="0.06" y="0.04" width="1.13" height="1.08">
      <feGaussianBlur stdDeviation="1.56"/>
    </filter>
  </defs>
  <rect ry="80" rx="80" height="160" width="160" y="-176" x="-180" transform="matrix(0,-1,-1,0,0,0)" style="filter:url(#filter867);opacity:0.20;fill:#000000"/>
  <rect style="fill:#ffc107" transform="matrix(0,-1,-1,0,0,0)" x="-176" y="-176" width="160" height="160" rx="80" ry="80"/>
  <path style="filter:url(#filter3633);opacity:0.20;fill:#000000" d="m 91,46.00 2.64,20.89 c 1.24,0.06 3.70,0.13 3.82,0.10 L 100,46.00 Z m -16.15,5 -1.16,0.68 c 0.64,0.38 -2.41,1.36 -3.93,2.19 C 68.24,54.70 67,55.45 67,55.53 c 0,0.08 2.58,3.84 5.73,8.35 3.15,4.51 5.80,8.17 5.88,8.13 1.11,0.57 3.29,-1.76 3.38,-1.84 0.06,0.06 -1.52,-4.39 -3.52,-9.63 z m 42.30,0 -3.63,9.53 c -2.00,5.24 -3.58,9.58 -3.52,9.63 0.09,0.08 2.27,1.27 3.38,1.84 0.08,0.04 2.73,-3.62 5.88,-8.13 C 122.42,59.36 125,55.61 125,55.53 c 0,0.08 -1.24,0.82 -2.76,-1.65 -1.52,0.83 -3.29,-1.81 -3.93,-2.19 z M 97.66,79.00 C 83.38,78.90 72.38,86.64 68.07,99.93 66.40,105.07 65.99,107.99 66,114.77 c 0.01,6.59 0.40,8.99 2.14,13.09 3.49,8.23 11.15,13.46 21.69,14.82 4.81,0.62 12.54,0.30 17.51,0.72 4.90,-1.01 13.38,-4.41 14.56,-5.83 0.27,0.33 0.05,-1.57 -1.05,-5.87 0.77,-3.00 -1.43,-5.49 -1.46,-5.54 0.04,0.05 -1.01,0.38 -2.16,0.96 -1.50,0.76 -3.58,1.57 -5.80,2.28 -5.14,1.87 -10.88,1.96 -14.52,2.04 -5.19,0.11 -9.36,0.28 -13.53,-2.73 -2.57,-1.53 -4.50,-3.55 -5.75,-6.04 -1.14,-2.28 -1.99,-5.43 -1.86,-6.86 l 0.09,0.91 22.49,0.87 22.49,0.87 0.23,-2.33 c 0.33,-3.28 0.05,-10.05 0.52,-12.81 -1.12,-5.38 -2.73,-8.61 -5.79,-11.65 -3.79,-3.77 -8.66,-5.59 -15.72,-5.89 0.47,0.02 0.93,0.03 -1.39,0.03 z M 96.08,91.00 c 2.89,0.02 5.74,0.34 7.75,0.93 3.82,1.13 6.78,3.42 8.44,6.53 0.90,1.68 2.01,5.69 1.67,6.03 0.10,0.10 -8.23,1.26 -18.07,2.59 -9.84,1.33 -18.33,2.48 -18.88,2.56 L 76,109.80 l 0.18,-2.10 c 0.71,-8.23 5.13,-13.89 12.32,-15.78 2.11,0.55 4.86,0.90 7.58,0.92 z"/>
  <path style="opacity:0.20;fill:#ffffff" d="M 96 16 C 51.68 16 16 51.68 16 96 C 16 96.34 16.00 96.67 16 97 C 16 52.68 51.68 17 96 17 C 140.32 17 176 52.68 176 97 C 176.00 96.67 176 96.34 176 96 C 176 51.68 140.32 16 96 16 z "/>
  <path style="fill:#3d3d3d" d="M 91 44 L 93.64 64.89 C 94.87 64.96 97.34 65.02 97.46 64.99 L 100 44.00 L 91 44 z M 74.85 49 L 73.69 49.68 C 73.05 50.06 71.28 51.04 69.76 51.87 C 68.24 52.70 67 53.45 67 53.53 C 67 53.61 69.58 57.36 72.73 61.87 C 75.89 66.38 78.53 70.04 78.62 70 C 79.72 69.43 81.91 68.24 82.00 68.16 C 82.06 68.10 80.48 63.77 78.48 58.53 L 74.85 49 z M 117.15 49 L 113.52 58.53 C 111.52 63.77 109.94 68.10 110.00 68.16 C 110.09 68.24 112.28 69.43 113.38 70 C 113.47 70.04 116.11 66.38 119.27 61.87 C 122.42 57.36 125 53.61 125 53.53 C 125 53.45 123.76 52.70 122.24 51.87 C 120.72 51.04 118.95 50.06 118.31 49.68 L 117.15 49 z M 97.66 77.00 C 83.38 76.90 72.38 84.64 68.07 97.93 C 66.40 103.07 65.99 105.99 66 112.77 C 66.01 119.36 66.40 121.76 68.14 125.86 C 71.63 134.09 79.29 139.33 89.83 140.68 C 94.64 141.30 102.37 140.98 107.34 139.96 C 112.24 138.95 120.72 135.55 121.90 134.13 C 122.17 133.81 121.94 132.56 120.84 128.27 C 120.08 125.27 119.42 122.77 119.38 122.72 C 119.34 122.67 118.37 123.11 117.22 123.69 C 115.72 124.45 113.64 125.25 111.42 125.96 C 106.28 127.83 100.54 127.92 96.90 128 C 91.72 128.11 87.54 127.72 83.38 125.27 C 80.81 123.74 78.88 121.72 77.63 119.23 C 76.48 116.95 75.63 113.80 75.77 112.37 L 75.86 111.46 L 98.35 110.59 L 120.85 109.71 L 121.08 107.38 C 121.41 104.11 121.13 97.33 120.56 94.57 C 119.44 89.19 117.83 85.96 114.77 82.92 C 110.98 79.16 106.12 77.33 99.05 77.04 C 98.58 77.02 98.12 77.01 97.66 77.00 z M 96.08 89 C 98.97 88.98 101.82 89.34 103.83 89.93 C 107.64 91.06 110.61 93.35 112.27 96.46 C 113.17 98.15 114.28 102.15 113.94 102.49 C 113.84 102.59 105.71 103.76 95.87 105.08 C 86.03 106.41 77.54 107.56 76.99 107.64 L 76 107.80 L 76.18 105.70 C 76.89 97.46 81.31 91.81 88.50 89.92 C 90.61 89.36 93.36 89.01 96.08 89 z "/>
</svg>
