<?xml version='1.0' encoding='utf-8'?>
<svg xmlns="http://www.w3.org/2000/svg" width="192" height="192" version="1" id="svg12">
  <defs>
    <filter style="color-interpolation-filters:sRGB" id="filter955" x="-0.048000001" width="1.096" y="-0.048000001" height="1.096">
      <feGaussianBlur stdDeviation="3.2"/>
    </filter>
    <filter style="color-interpolation-filters:sRGB" id="filter1953" x="-0.16389475" y="-0.080534479" width="1.3277895" height="1.161069">
      <feGaussianBlur stdDeviation="3.8925"/>
    </filter>
  </defs>
  <rect style="filter:url(#filter955);opacity:0.2;fill:#000000" width="160" height="160" x="16" y="20" rx="30" ry="30"/>
  <rect style="fill:#f1336e" width="160" height="160" x="16" y="16" rx="30" ry="30"/>
  <path style="opacity:0.2;fill:#ffffff" d="M 46 16 C 29.38 16 16 29.38 16 46 L 16 47 C 16 30.38 29.38 17 46 17 L 146 17 C 162.62 17 176 30.38 176 47 L 176 46 C 176 29.38 162.62 16 146 16 L 46 16 z "/>
  <path style="filter:url(#filter1953);opacity:0.2;fill:#000000" d="m 123.46555,142.27378 c 4.91174,-5.11149 6.87094,-8.51189 8.0359,-13.94714 0.65329,-3.04805 0.66705,-9.66544 0.0264,-12.72479 -1.16391,-5.55853 -5.41836,-11.46801 -18.1679,-25.235446 C 102.08858,78.195128 97.499006,72.301344 94.628137,66.311585 92.315363,61.486235 90.050599,52.887096 88.927016,44.664823 88.663189,42.73417 88.382754,41.089562 88.303833,41.010152 c -0.07893,-0.07938 -0.533865,0.31549 -1.010976,0.877565 C 82.578963,47.441119 80.115065,53.563564 80,60.459284 c -0.05221,3.128898 0.435443,6.417002 1.317222,9.883389 l 0.206893,0.813323 -1.281234,-0.19759 c -0.704678,-0.108684 -1.596667,-0.313812 -1.982206,-0.455856 -1.294896,-0.477084 -0.959691,-0.02356 1.124504,1.521316 1.138958,0.844246 2.070843,1.585338 2.070843,1.646885 0,0.472211 -2.942227,5.769643 -4.515746,8.130512 C 75.765609,83.563732 75,85.019837 75,85.491499 c 0,1.139377 1.002402,2.225894 2.964374,3.213163 0.951998,0.479041 1.730909,1.039828 1.730909,1.246194 0,0.206366 -0.528215,0.889367 -1.173816,1.517771 -0.6456,0.628414 -1.173825,1.378743 -1.173825,1.667414 0,0.638728 1.88242,2.772942 2.663875,3.020176 0.508634,0.160925 0.463168,0.273264 -0.463017,1.14399 -0.564866,0.531052 -1.027033,1.252175 -1.027033,1.602482 0,0.851914 1.237993,2.041881 2.356226,2.264811 0.687099,0.13699 0.8563,0.29349 0.705309,0.65236 -1.021703,2.42842 -0.683432,4.69213 0.862069,6.23273 1.265088,1.26107 2.609296,1.74184 5.32023,1.90283 2.466308,0.14645 5.020582,-0.78684 10.670197,-2.31036 5.060932,-1.36477 7.475692,-0.57989 10.397382,2.32588 1.97289,1.96215 3.42444,5.02016 4.6904,8.76594 2.00117,5.92114 2.09333,12.59678 0.28184,20.41313 -0.98344,4.24345 -3.84327,12.40282 -5.78259,16.21772 -0.40835,0.80329 -0.74245,1.53393 -0.74245,1.62366 0,0.37698 13.31562,-11.73104 16.18547,-14.71761 z"/>
  <path style="fill:#ffffff" d="m 123.46555,140.27378 c 4.91174,-5.11149 6.87094,-8.51189 8.0359,-13.94714 0.65329,-3.04805 0.66705,-9.66544 0.0264,-12.72479 -1.16391,-5.55853 -5.41836,-11.46801 -18.1679,-25.235443 C 102.08858,76.195131 97.499006,70.301347 94.628137,64.311588 92.315363,59.486238 90.050599,50.887099 88.927016,42.664826 88.663189,40.734173 88.382754,39.089565 88.303833,39.010155 88.224903,38.930775 87.769968,39.325645 87.292857,39.88772 82.578963,45.441122 80.115065,51.563567 80,58.459287 c -0.05221,3.128898 0.435443,6.417002 1.317222,9.883389 l 0.206893,0.813323 -1.281234,-0.19759 c -0.704678,-0.108684 -1.596667,-0.313812 -1.982206,-0.455856 -1.294896,-0.477084 -0.959691,-0.02356 1.124504,1.521316 1.138958,0.844246 2.070843,1.585338 2.070843,1.646885 0,0.472211 -2.942227,5.769643 -4.515746,8.130512 C 75.765609,81.563735 75,83.01984 75,83.491502 c 0,1.139377 1.002402,2.225894 2.964374,3.213163 0.951998,0.479041 1.730909,1.039828 1.730909,1.246194 0,0.206366 -0.528215,0.889367 -1.173816,1.517771 -0.6456,0.628414 -1.173825,1.378743 -1.173825,1.667414 0,0.638728 1.88242,2.772942 2.663875,3.020176 0.508634,0.160925 0.463168,0.273264 -0.463017,1.14399 -0.564866,0.531052 -1.027033,1.252175 -1.027033,1.602482 0,0.851914 1.237993,2.041884 2.356226,2.264815 0.687099,0.136981 0.8563,0.293483 0.705309,0.652357 -1.021703,2.428416 -0.683432,4.692126 0.862069,6.232726 1.265088,1.26107 2.609296,1.74184 5.32023,1.90283 2.466308,0.14645 5.020582,-0.78684 10.670197,-2.31036 5.060932,-1.36477 7.475692,-0.57989 10.397382,2.32588 1.97289,1.96215 3.42444,5.02016 4.6904,8.76594 2.00117,5.92114 2.09333,12.59678 0.28184,20.41313 -0.98344,4.24345 -3.84327,12.40282 -5.78259,16.21772 -0.40835,0.80329 -0.74245,1.53393 -0.74245,1.62366 0,0.37698 13.31562,-11.73104 16.18547,-14.71761 z"/>
</svg>
