<?xml version='1.0' encoding='utf-8'?>
<svg xmlns="http://www.w3.org/2000/svg" width="192" height="192" version="1" id="svg28">
  <defs>
    <filter style="color-interpolation-filters:sRGB" id="filter6495" x="0.05" y="0.05" width="1.10" height="1.10">
      <feGaussianBlur stdDeviation="3.20"/>
    </filter>
    <filter style="color-interpolation-filters:sRGB" id="filter33134" x="0.04" y="0.06" width="1.08" height="1.12">
      <feGaussianBlur stdDeviation="1.51"/>
    </filter>
    <filter style="color-interpolation-filters:sRGB" id="filter33183" x="0.07" y="0.07" width="1.15" height="1.15">
      <feGaussianBlur stdDeviation="3.56"/>
    </filter>
  </defs>
  <rect transform="matrix(0,-1,-1,0,0,0)" ry="12" rx="12" y="-176" x="-180" height="160" width="160" style="filter:url(#filter6495);opacity:0.20;fill:#000000"/>
  <rect transform="matrix(0,-1,-1,0,0,0)" ry="12" rx="12" y="-176" x="-176" height="160" width="160" style="fill:#733c95"/>
  <path style="filter:url(#filter33183);opacity:0.20;fill:#000000" d="m 51,41 c -6.65,0 -12,5.35 -12,12 v 28 c 0,6.65 5.35,12 12,12 h 28 c 6.65,0 12,-5.35 12,-12 V 53 C 91,46.35 85.65,41 79,41 Z m 62,0 c -6.65,0 -12,5.35 -12,12 v 28 c 0,6.65 5.35,12 12,12 h 28 c 6.65,0 12,-5.35 12,-12 V 53 c 0,-6.65 -5.35,-12 -12,-12 z m -62,62 c -6.65,0 -12,5.35 -12,12 v 28 c 0,6.65 5.35,12 12,12 h 28 c 6.65,0 12,-5.35 12,-12 v -28 c 0,-6.65 -5.35,-12 -12,-12 z m 62,0 c -6.65,0 -12,5.35 -12,12 v 28 c 0,6.65 5.35,12 12,12 h 28 c 6.65,0 12,-5.35 12,-12 v -28 c 0,-6.65 -5.35,-12 -12,-12 z"/>
  <path style="opacity:0.10;fill:#ffffff" d="m 28,16 c -6.65,0 -12,5.35 -12,12 v 1 c 0,-6.65 5.35,-12 12,-12 h 136 c 6.65,0 12,5.35 12,12 v -1 c 0,-6.65 -5.35,-12 -12,-12 z"/>
  <rect style="fill:#ff464d" width="52" height="52" x="39" y="39" ry="12" rx="12"/>
  <rect style="fill:#c538fb" width="52" height="52" x="101" y="39" ry="12" rx="12"/>
  <path style="opacity:0.30;fill:#000000;color:#000000" d="m 52,62 a 3,3 0 0 0 -3,3 3,3 0 0 0 3,3 h 26 a 3,3 0 0 0 3,-3 3,3 0 0 0 -3,-3 z"/>
  <circle style="opacity:0.30;fill:none;stroke:#000000;stroke-width:6;stroke-linecap:round;stroke-linejoin:round" cx="127" cy="65" r="13"/>
  <rect style="fill:#02c5e8" width="52" height="52" x="101" y="101" ry="12" rx="12"/>
  <circle style="opacity:0.30;fill:none;stroke:#000000;stroke-width:6;stroke-linecap:round;stroke-linejoin:round" cx="127" cy="127" r="13"/>
  <rect style="fill:#ffa320" width="52" height="52" x="39" y="101" ry="12" rx="12"/>
  <circle style="opacity:0.30;fill:none;stroke:#000000;stroke-width:6;stroke-linecap:round;stroke-linejoin:round" cx="65" cy="127" r="13"/>
  <path style="filter:url(#filter33134);opacity:0.20;fill:#000000;color:#000000" d="m 52,63.00 a 3,3 0 0 0 -3,3 3,3 0 0 0 3,3 h 11 a 3,3 0 0 0 3,-3 3,3 0 0 0 -3,-3 z m 75.47,49.01 a 3,3 0 0 0 -3.09,2.91 3,3 0 0 0 2.91,3.09 c 2.97,0.09 5.75,1.49 7.58,3.84 a 3,3 0 0 0 4.21,0.52 3,3 0 0 0 0.52,-4.21 c -2.93,-3.75 -7.38,-6.00 -12.13,-6.14 z"/>
  <path style="opacity:0.20;fill:#ffffff" d="M 51 39 C 44.35 39 39 44.35 39 51 L 39 52 C 39 45.35 44.35 40 51 40 L 79 40 C 85.65 40 91 45.35 91 52 L 91 51 C 91 44.35 85.65 39 79 39 L 51 39 z M 113 39 C 106.35 39 101 44.35 101 51 L 101 52 C 101 45.35 106.35 40 113 40 L 141 40 C 147.65 40 153 45.35 153 52 L 153 51 C 153 44.35 147.65 39 141 39 L 113 39 z M 51 101 C 44.35 101 39 106.35 39 113 L 39 114 C 39 107.35 44.35 102 51 102 L 79 102 C 85.65 102 91 107.35 91 114 L 91 113 C 91 106.35 85.65 101 79 101 L 51 101 z M 113 101 C 106.35 101 101 106.35 101 113 L 101 114 C 101 107.35 106.35 102 113 102 L 141 102 C 147.65 102 153 107.35 153 114 L 153 113 C 153 106.35 147.65 101 141 101 L 113 101 z "/>
  <path style="fill:#ffffff;color:#000000" d="m 52,62 a 3,3 0 0 0 -3,3 3,3 0 0 0 3,3 h 11 a 3,3 0 0 0 3,-3 3,3 0 0 0 -3,-3 z"/>
  <path style="fill:none;stroke:#ffffff;stroke-width:6;stroke-linecap:round;stroke-linejoin:round" d="m 127.39,114.01 a 13,13 0 0 1 9.86,4.99"/>
</svg>
