<?xml version='1.0' encoding='utf-8'?>
<svg xmlns="http://www.w3.org/2000/svg" width="192" height="192" version="1.1" id="svg14">
  <defs>
    <filter style="color-interpolation-filters:sRGB" id="filter3287" x="0.05" y="0.05" width="1.10" height="1.09">
      <feGaussianBlur stdDeviation="3.03"/>
    </filter>
    <filter style="color-interpolation-filters:sRGB" id="filter3291" x="0.11" y="0.06" width="1.21" height="1.12">
      <feGaussianBlur stdDeviation="2.48"/>
    </filter>
  </defs>
  <path style="filter:url(#filter3287);opacity:0.20;fill:#000000" d="m 91.47,179.88 c 0,0.07 1.20,-5.04 2.68,-11.06 1.47,-6.02 2.68,-10.98 2.68,-11.04 0,0.06 0.53,0.04 -1.18,0.03 0.65,0.07 -4.44,0.49 -8.42,0.92 -8.95,0.97 -21.74,2.67 -30.69,4.07 -8.77,1.38 -10.68,1.54 -13.54,1.13 -4.63,0.65 -7.88,-2.44 -9.91,-5.45 -1.72,-2.55 -2.36,-5.05 -2.70,-10.56 0.16,-2.64 0.79,-11.79 -1.39,-20.33 -1.11,-15.63 -3.47,-50.93 -4.45,-66.45 0.75,-11.93 0.71,-18.07 0.15,-21.28 2.05,-7.65 6.78,-12.53 14.06,-14.49 1.21,0.33 4.25,0.61 8.50,0.80 9.50,0.42 78.91,-4.01 85.55,-4.43 8.61,0.54 13.62,0.41 18.30,3.50 3.83,2.52 6.51,5.80 8.35,10.23 0.90,2.16 1.00,2.87 2.05,14.69 3.26,36.68 5.07,60.61 5.43,71.85 0.16,5.02 0.10,6.74 0.34,9.38 -1.11,6.64 -3.39,11.42 -7.54,15.78 -2.33,2.45 -4.94,4.02 -13.58,8.17 -4.67,2.24 -18.64,9.07 -31.04,15.16 C 102.02,175.01 91.78,180 91.67,180 c 0.11,0 0.20,0.05 0.20,0.12 z"/>
  <path style="fill:#ff7216" d="m 91.47,175.88 c 0,0.07 1.20,-5.04 2.68,-11.06 1.47,-6.02 2.68,-10.98 2.68,-11.04 0,0.06 0.53,0.04 -1.18,0.03 0.65,0.07 -4.44,0.49 -8.42,0.92 -8.95,0.97 -21.74,2.67 -30.69,4.07 -8.77,1.38 -10.68,1.54 -13.54,1.13 -4.63,0.65 -7.88,-2.44 -9.91,-5.45 -1.72,-2.55 -2.36,-5.05 -2.70,-10.56 0.16,-2.64 0.79,-11.79 -1.39,-20.33 -1.11,-15.63 -3.47,-50.93 -4.45,-66.45 0.75,-11.93 0.71,-18.07 0.15,-21.28 2.05,-7.65 6.78,-12.53 14.06,-14.49 1.21,0.33 4.25,0.61 8.50,0.80 9.50,0.42 78.91,-4.01 85.55,-4.43 8.61,0.54 13.62,0.41 18.30,3.50 3.83,2.52 6.51,5.80 8.35,10.23 0.90,2.16 1.00,2.87 2.05,14.69 3.26,36.68 5.07,60.61 5.43,71.85 0.16,5.02 0.10,6.74 0.34,9.38 -1.11,6.64 -3.39,11.42 -7.54,15.78 -2.33,2.45 -4.94,4.02 -13.58,8.17 -4.67,2.24 -18.64,9.07 -31.04,15.16 C 102.02,171.01 91.78,176 91.67,176 c 0.11,0 0.20,0.05 0.20,0.12 z"/>
  <path style="filter:url(#filter3291);opacity:0.20;fill:#000000;color:#000000" d="m 98,36 c -8.84,0 -16,7.16 -16,16 v 36 c 0,8.84 7.16,16 16,16 8.84,0 16,-7.16 16,-16 V 52 C 114,43.16 106.84,36 98,36 Z M 73.75,80.04 a 4,4 0 0 0 -3.36,3.29 c -1.85,10.96 2.97,22.01 12.28,28.10 3.49,2.28 7.36,3.71 11.33,4.28 V 129 H 76 a 5,5 0 0 0 -5,5 5,5 0 0 0 5,5 h 44 a 5,5 0 0 0 5,-5 5,5 0 0 0 -5,-5 h -18 v -13.29 c 3.97,0.57 7.84,-2.00 11.33,-4.28 9.30,-6.09 14.13,-17.14 12.28,-28.10 a 4,4 0 0 0 -4.61,-3.28 4,4 0 0 0 -3.28,4.61 c 1.33,7.85 -2.11,15.71 -8.77,20.07 -6.66,4.36 -15.24,4.36 -21.90,0 -6.66,-4.36 -10.10,-12.22 -8.77,-20.07 a 4,4 0 0 0 -3.28,-4.61 4,4 0 0 0 -1.25,0.01 z"/>
  <path style="fill:#ffffff;color:#000000" d="M 98 34 C 89.16 34 82 41.16 82 50 L 82 86 C 82 94.84 89.16 102 98 102 C 106.84 102 114 94.84 114 86 L 114 50 C 114 41.16 106.84 34 98 34 z M 73.75 78.04 A 4 4 0 0 0 70.39 81.33 C 68.54 92.29 73.36 103.34 82.67 109.43 C 86.16 111.71 90.03 113.14 94 113.71 L 94 127 L 76 127 A 5 5 0 0 0 71 132 A 5 5 0 0 0 76 137 L 120 137 A 5 5 0 0 0 125 132 A 5 5 0 0 0 120 127 L 102 127 L 102 113.71 C 105.97 113.14 109.84 111.71 113.33 109.43 C 122.64 103.34 127.46 92.29 125.61 81.33 A 4 4 0 0 0 121.00 78.05 A 4 4 0 0 0 117.72 82.66 C 119.05 90.51 115.61 98.38 108.95 102.73 C 102.29 107.09 93.71 107.09 87.05 102.73 C 80.39 98.38 76.95 90.51 78.28 82.66 A 4 4 0 0 0 75.00 78.05 A 4 4 0 0 0 73.75 78.04 z "/>
  <path style="opacity:0.20;fill:#ffffff" d="M 135.85 16.01 C 134.88 16.03 133.86 16.08 132.79 16.14 C 126.15 16.57 56.74 20.16 47.24 20.58 C 42.99 20.76 39.95 21.05 38.74 21.38 C 31.46 23.34 26.73 28.22 24.68 35.87 C 24.23 37.57 24.02 40.17 24.02 43.93 C 24.05 40.70 24.27 38.42 24.68 36.87 C 26.73 29.22 31.46 24.34 38.74 22.38 C 39.95 22.05 42.99 21.76 47.24 21.58 C 56.74 21.16 126.15 17.57 132.79 17.14 C 141.39 16.60 146.40 17.56 151.09 20.64 C 154.92 23.16 157.60 26.44 159.44 30.87 C 160.34 33.03 160.44 33.74 161.49 45.57 C 164.75 82.24 166.56 106.18 166.92 117.42 C 166.99 119.54 166.99 120.87 166.96 122.12 C 167.02 120.71 167.00 119.01 166.92 116.42 C 166.56 105.18 164.75 81.24 161.49 44.57 C 160.44 32.74 160.34 32.03 159.44 29.87 C 157.60 25.44 154.92 22.16 151.09 19.64 C 146.99 16.94 142.64 15.87 135.85 16.01 z M 96.82 154.78 C 96.82 154.77 96.62 154.79 96.57 154.79 C 96.38 155.62 95.48 159.35 94.14 164.82 C 92.67 170.84 91.47 175.81 91.47 175.88 C 91.47 175.95 91.56 176 91.67 176 C 91.67 176 91.68 176.00 91.68 176.00 C 91.85 175.24 92.79 171.35 94.14 165.82 C 95.61 159.80 96.82 154.83 96.82 154.78 z "/>
</svg>
