<?xml version='1.0' encoding='utf-8'?>
<svg xmlns="http://www.w3.org/2000/svg" width="192" height="192" version="1" id="svg16">
  <defs>
    <filter style="color-interpolation-filters:sRGB" id="filter853" x="0.05" width="1.10" y="0.05" height="1.10">
      <feGaussianBlur stdDeviation="3.20"/>
    </filter>
    <filter style="color-interpolation-filters:sRGB" id="filter880" x="0.05" width="1.11" y="0.04" height="1.09">
      <feGaussianBlur stdDeviation="1.60"/>
    </filter>
    <filter style="color-interpolation-filters:sRGB" id="filter905" x="0.03" width="1.05" y="0.39" height="1.79">
      <feGaussianBlur stdDeviation="1.45"/>
    </filter>
  </defs>
  <rect width="160" height="160" x="-180" y="-176" rx="8" ry="8" transform="matrix(0,-1,-1,0,0,0)" style="filter:url(#filter853);opacity:0.20;fill:#000000"/>
  <rect style="fill:#4f4f4f" transform="matrix(0,-1,-1,0,0,0)" ry="8" rx="8" y="-176" x="-176" height="160" width="160"/>
  <path style="opacity:0.10;fill:#ffffff" d="M 24 16 C 19.57 16 16 19.57 16 24 L 16 25 C 16 20.57 19.57 17 24 17 L 168 17 C 172.43 17 176 20.57 176 25 L 176 24 C 176 19.57 172.43 16 168 16 L 24 16 z "/>
  <rect transform="matrix(0,-1,-1,0,0,0)" ry="6.80" rx="6.80" y="-164" x="-164" height="136" width="136" style="fill:#3f3f3f"/>
  <path d="M 136,100 100.00,122 64,144 V 100.00 56.00 l 36,22.00 z" style="filter:url(#filter880);opacity:0.20"/>
  <path d="M 136,96.00 100.00,118 64,140 V 96.00 52.00 l 36,22.00 z" style="fill:#ffffff"/>
  <path style="filter:url(#filter905);opacity:0.20;fill:#000000" d="M 34.80 28 C 31.03 28 28 31.03 28 34.80 L 28 36.80 C 28 33.03 31.03 30 34.80 30 L 157.20 30 C 160.97 30 164 33.03 164 36.80 L 164 34.80 C 164 31.03 160.97 28 157.20 28 L 34.80 28 z "/>
  <path style="opacity:0.10;fill:#ffffff" d="M 28 157.20 L 28 158.20 C 28 161.97 31.03 165 34.80 165 L 157.20 165 C 160.97 165 164 161.97 164 158.20 L 164 157.20 C 164 160.97 160.97 164 157.20 164 L 34.80 164 C 31.03 164 28 160.97 28 157.20 z "/>
</svg>
