<svg xmlns="http://www.w3.org/2000/svg" id="svg28" width="192" height="192" version="1"><defs><filter style="color-interpolation-filters:sRGB" id="filter30307" width="1.08" height="1.11" x=".04" y=".06"><feGaussianBlur stdDeviation="2.76"/></filter><filter style="color-interpolation-filters:sRGB" id="filter30349" width="1.22" height="1.22" x=".11" y=".11"><feGaussianBlur stdDeviation="1.08"/></filter><filter style="color-interpolation-filters:sRGB" id="filter30395" width="1.13" height="1.19" x=".06" y=".09"><feGaussianBlur stdDeviation="2.05"/></filter><filter style="color-interpolation-filters:sRGB" id="filter30399" width="1.12" height="1.2" x=".06" y=".1"><feGaussianBlur stdDeviation="2.23"/></filter><filter style="color-interpolation-filters:sRGB" id="filter30403" width="1.12" height="1.21" x=".06" y=".11"><feGaussianBlur stdDeviation="2.34"/></filter><filter style="color-interpolation-filters:sRGB" id="filter30445" width="1.1" height="1.27" x=".05" y=".13"><feGaussianBlur stdDeviation="3.17"/></filter></defs><path style="filter:url(#filter30445);opacity:.2;fill:#000" d="M 33.78,25 C 30.83,25 23.02,26.20 23.02,39.04 L 23.00,82 H 169 V 52.70 C 169,38.72 161.15,39 158.20,39 H 121.02 C 96.90,39 106.00,25 83.26,25 Z"/><path style="fill:#0d60a7" d="M 33.78,23 C 30.83,23 23.02,24.20 23.02,37.04 L 23.00,80 H 169 V 50.70 C 169,36.72 161.15,37 158.20,37 H 121.02 C 96.90,37 106.00,23 83.26,23 Z"/><path style="opacity:.1;fill:#fff" d="M 33.78 23 C 30.83 23 23.02 24.20 23.02 37.04 L 23.02 38.04 C 23.02 25.20 30.83 24 33.78 24 L 83.26 24 C 106.01 24 96.90 38 121.02 38 L 158.20 38 C 161.14 38 169 37.72 169 51.70 L 169 50.70 C 169 36.72 161.14 37 158.20 37 L 121.02 37 C 96.90 37 106.01 23 83.26 23 L 33.78 23 z"/><rect style="filter:url(#filter30403);opacity:.2;fill:#000" width="97" height="53" x="31" y="36" rx="6"/><rect style="fill:#ff673f" width="97" height="53" x="31" y="34" rx="6"/><rect style="filter:url(#filter30399);opacity:.2;fill:#000" width="90" height="53" x="55" y="42" rx="6"/><rect style="fill:#ffcf24" width="90" height="53" x="55" y="40" rx="6"/><rect style="filter:url(#filter30395);opacity:.2;fill:#000" width="78" height="53" x="84" y="47" rx="6"/><rect style="fill:#fff" width="78" height="53" x="84" y="45" rx="6"/><path style="filter:url(#filter30307);opacity:.2;fill:#000" d="m 27.84,56.00 c -3.23,0 -12.60,0.38 -11.79,13.86 l 5.56,87.62 c 0,0 -1.40,14.68 13.72,14.52 h 60.67 60.67 c 15.12,0.16 13.72,-14.52 13.72,-14.52 l 5.56,-69.67 C 176.77,74.33 167.39,74.00 164.16,74.00 h -40.73 c -26.43,0 -16.46,-18 -41.38,-18 z"/><path style="fill:#2183f5" d="m 27.84,53 c -3.23,0 -12.60,0.38 -11.79,13.86 l 5.56,87.62 c 0,0 -1.40,14.68 13.72,14.52 h 60.67 60.67 c 15.12,0.16 13.72,-14.52 13.72,-14.52 l 5.56,-69.67 C 176.77,71.33 167.39,71 164.16,71 H 123.43 C 97.00,71 106.98,53 82.06,53 Z"/><circle style="filter:url(#filter30349);opacity:.2;fill:#000" cx="96" cy="109" r="12"/><circle style="fill:#fff" cx="96" cy="108" r="12"/><circle style="fill:#d7d7d7" cx="96" cy="108" r="5"/><path style="opacity:.2;fill:#fff" d="M 37 34 C 33.68 34 31 36.68 31 40 L 31 41 C 31 37.68 33.68 35 37 35 L 122 35 C 125.32 35 128 37.68 128 41 L 128 40 C 128 36.68 125.32 34 122 34 L 37 34 z"/><path style="opacity:.2;fill:#fff" d="M 61 40 C 57.68 40 55 42.68 55 46 L 55 47 C 55 43.68 57.68 41 61 41 L 139 41 C 142.32 41 145 43.68 145 47 L 145 46 C 145 42.68 142.32 40 139 40 L 61 40 z"/></svg>