<svg xmlns="http://www.w3.org/2000/svg" id="svg14" width="192" height="192" version="1"><defs><filter style="color-interpolation-filters:sRGB" id="filter907" width="1.1" height="1.09" x=".05" y=".05"><feGaussianBlur stdDeviation="1.88"/></filter><filter style="color-interpolation-filters:sRGB" id="filter857" width="1.1" height="1.1" x=".05" y=".05"><feGaussianBlur stdDeviation="3.2"/></filter><filter style="color-interpolation-filters:sRGB" id="filter882" width="1.09" height="1.1" x=".05" y=".05"><feGaussianBlur stdDeviation="1.71"/></filter></defs><ellipse cx="96" cy="100" rx="80" ry="80" style="filter:url(#filter857);opacity:.2;fill:#000"/><ellipse style="fill:#00a1d6" cx="96" cy="96" rx="80" ry="80"/><path style="fill:none;stroke:#16508d;stroke-width:4;stroke-linecap:round;stroke-linejoin:round" d="M 113.98,115.86 84.90,129.91 129.99,143.96 71.50,157.69 137.84,168.14"/><path style="filter:url(#filter907);opacity:.2;fill:#000;color:#000;font-stretch:normal;font-variant-ligatures:normal;font-variant-position:normal;font-variant-caps:normal;font-variant-numeric:normal;font-variant-alternates:normal;font-feature-settings:normal;text-indent:0;text-align:start;text-decoration-line:none;text-decoration-style:solid;text-decoration-color:#000;text-transform:none;writing-mode:lr-tb;direction:ltr;text-orientation:mixed;dominant-baseline:auto;baseline-shift:baseline;white-space:normal;shape-padding:0;clip-rule:nonzero;display:inline;overflow:visible;visibility:visible;isolation:auto;mix-blend-mode:normal;color-interpolation:sRGB;color-interpolation-filters:linearRGB;solid-color:#000;solid-opacity:1;vector-effect:none;fill-rule:nonzero;color-rendering:auto;image-rendering:auto;shape-rendering:auto;text-rendering:auto;enable-background:accumulate" d="m 103.21,80.84 a 7.00,7.00 0 0 0 0.23,0.01 7.00,7.00 0 0 0 0.47,0.01 7.00,7.00 0 0 0 -6.24,4.92 L 57.66,167.95 a 7.00,7.00 0 1 0 12.67,5.95 l 32.58,-69.34 31.72,69.28 a 7.00,7.00 0 1 0 12.73,-5.83 l -37.62,-82.18 a 7.00,7.00 0 0 0 -6.33,-4.98 7.00,7.00 0 0 0 0.09,0.01 7.00,7.00 0 0 0 0.11,0.01 z"/><path style="fill:none;stroke:#0055b7;stroke-width:14;stroke-linecap:round" d="M 141,169 103,86 m -39,83 39,-83"/><path d="m 98,18 c -3.50,0 -7,3.50 -7,7 0,3.50 3.50,7 7,7 34.79,0.00 64,28.21 64,63 0,3.50 3.17,7 7,7 3.50,0 7,-3.50 7,-7 0,-42.52 -35.47,-77 -78,-77 z m 0,28 c -3.50,0 -7,3.50 -7,7 0,3.50 3.50,7 7,7 19.33,0.00 35,15.67 35,35 0,3.50 3.50,7 7,7 3.50,0 7,-3.50 7,-7 0,-27.06 -21.94,-49 -49,-49 z m 5,28 c -7.73,0 -14,6.27 -14,14 0,7.73 6.27,14 14,14 7.73,0 14,-6.27 14,-14 0,-7.73 -6.27,-14 -14,-14 z" style="filter:url(#filter882);opacity:.2;fill:#000"/><path style="fill:#fff" d="M 98 16 C 94.50 16 91 19.50 91 23 C 91 26.50 94.50 30 98 30 C 132.79 30.00 162 58.21 162 93 C 162 96.50 165.17 100 169 100 C 172.50 100 176 96.50 176 93 C 176 50.48 140.53 16 98 16 z M 98 44 C 94.50 44 91 47.50 91 51 C 91 54.50 94.50 58 98 58 C 117.33 58.00 133 73.67 133 93 C 133 96.50 136.50 100 140 100 C 143.50 100 147 96.50 147 93 C 147 65.94 125.06 44 98 44 z M 103 72 C 95.27 72 89 78.27 89 86 C 89 93.73 95.27 100 103 100 C 110.73 100 117 93.73 117 86 C 117 78.27 110.73 72 103 72 z"/></svg>