<?xml version='1.0' encoding='utf-8'?>
<svg xmlns="http://www.w3.org/2000/svg" width="192" height="192" version="1" id="svg28">
  <defs>
    <filter style="color-interpolation-filters:sRGB" id="filter18615" x="0.09" y="0.07" width="1.17" height="1.13">
      <feGaussianBlur stdDeviation="3.94"/>
    </filter>
    <filter style="color-interpolation-filters:sRGB" id="filter18620" x="0.07" y="0.08" width="1.14" height="1.17">
      <feGaussianBlur stdDeviation="4.70"/>
    </filter>
  </defs>
  <path style="filter:url(#filter18620);opacity:0.20;fill:#000000" d="M 39.53 37 C 35.36 37 32 40.36 32 44.53 L 32 87 L 15.81 87 C 13.94 87 11.90 89.33 13.69 91.32 L 28.84 113.00 L 44.56 135.52 C 44.80 135.86 45.79 136.93 47 137 C 48.21 136.93 49.20 135.86 49.44 135.52 L 65.16 113.00 L 80.31 91.32 C 82.10 89.33 80.06 87 78.19 87 L 62 87 L 62 44.53 C 62 40.36 58.64 37 54.47 37 L 39.53 37 z M 138.53 71 C 134.36 71 131 74.36 131 78.53 L 131 121 L 114.81 121 C 112.94 121 110.90 123.33 112.69 125.32 L 127.84 147.00 L 143.56 169.52 C 143.80 169.86 144.79 170.93 146 171 C 147.21 170.93 148.20 169.86 148.44 169.52 L 164.16 147.00 L 179.31 125.32 C 181.10 123.33 179.06 121 177.19 121 L 161 121 L 161 78.53 C 161 74.36 157.64 71 153.47 71 L 138.53 71 z "/>
  <path style="fill:#db423f" d="M 39.53 34 C 35.36 34 32 37.36 32 41.53 L 32 84 L 15.81 84 C 13.94 84 11.90 86.33 13.69 88.32 L 28.84 110.00 L 44.56 132.52 C 44.80 132.86 45.79 133.93 47 134 C 48.21 133.93 49.20 132.86 49.44 132.52 L 65.16 110.00 L 80.31 88.32 C 82.10 86.33 80.06 84 78.19 84 L 62 84 L 62 41.53 C 62 37.36 58.64 34 54.47 34 L 39.53 34 z "/>
  <path style="fill:#0c86e6" d="M 138.53 68 C 134.36 68 131 71.36 131 75.53 L 131 118 L 114.81 118 C 112.94 118 110.90 120.33 112.69 122.32 L 127.84 144.00 L 143.56 166.52 C 143.80 166.86 144.79 167.93 146 168 C 147.21 167.93 148.20 166.86 148.44 166.52 L 164.16 144.00 L 179.31 122.32 C 181.10 120.33 179.06 118 177.19 118 L 161 118 L 161 75.53 C 161 71.36 157.64 68 153.47 68 L 138.53 68 z "/>
  <path style="filter:url(#filter18615);opacity:0.20;fill:#000000" d="m 84,26 c -6.65,0 -12,5.35 -12,12 v 62 H 46.46 c -2.96,0 -6.20,3.26 -3.36,6.04 l 24.06,30.36 24.98,31.52 C 92.51,168.40 94.07,169.90 96,170 c 1.93,0.10 3.49,-1.60 3.87,-2.07 L 124.85,136.40 148.90,106.04 C 151.74,103.26 148.51,100 145.54,100 H 119.81 V 38 c 0,-6.65 -5.35,-12 -12,-12 z"/>
  <path style="opacity:0.10;fill:#ffffff" d="M 39.53 34 C 35.36 34 32 37.36 32 41.53 L 32 42.53 C 32 38.36 35.36 35 39.53 35 L 54.47 35 C 58.64 35 62 38.36 62 42.53 L 62 41.53 C 62 37.36 58.64 34 54.47 34 L 39.53 34 z M 138.53 68 C 134.36 68 131 71.36 131 75.53 L 131 76.53 C 131 72.36 134.36 69 138.53 69 L 153.47 69 C 157.64 69 161 72.36 161 76.53 L 161 75.53 C 161 71.36 157.64 68 153.47 68 L 138.53 68 z M 15.81 84 C 14.31 84 12.74 85.49 13.08 87.11 C 13.39 85.92 14.63 85 15.81 85 L 32 85 L 32 84 L 15.81 84 z M 62 84 L 62 85 L 78.19 85 C 79.37 85 80.61 85.92 80.92 87.11 C 81.26 85.49 79.69 84 78.19 84 L 62 84 z M 114.81 118 C 113.31 118 111.74 119.49 112.08 121.11 C 112.39 119.92 113.63 119 114.81 119 L 131 119 L 131 118 L 114.81 118 z M 161 118 L 161 119 L 177.19 119 C 178.37 119 179.61 119.92 179.92 121.11 C 180.26 119.49 178.69 118 177.19 118 L 161 118 z "/>
  <path style="fill:#44b75f" d="M 84 23 C 77.35 23 72 28.35 72 35 L 72 97 L 46.46 97 C 43.49 97 40.26 100.26 43.10 103.04 L 67.15 133.40 L 92.13 164.93 C 92.51 165.40 94.07 166.90 96 167 C 97.93 166.90 99.49 165.40 99.87 164.93 L 124.85 133.40 L 148.90 103.04 C 151.74 100.26 148.51 97 145.54 97 L 119.81 97 L 119.81 35 C 119.81 28.35 114.46 23 107.81 23 L 84 23 z "/>
  <path style="opacity:0.20;fill:#ffffff" d="M 84 23 C 77.35 23 72 28.35 72 35 L 72 36 C 72 29.35 77.35 24 84 24 L 107.81 24 C 114.46 24 119.81 29.35 119.81 36 L 119.81 35 C 119.81 28.35 114.46 23 107.81 23 L 84 23 z M 46.46 97 C 44.13 97 41.64 99.01 42.06 101.23 C 42.40 99.44 44.49 98 46.46 98 L 72 98 L 72 97 L 46.46 97 z M 119.81 97 L 119.81 98 L 145.54 98 C 147.51 98 149.60 99.44 149.94 101.23 C 150.36 99.01 147.87 97 145.54 97 L 119.81 97 z "/>
</svg>
