<svg xmlns="http://www.w3.org/2000/svg" id="svg14" width="192" height="192" version="1"><defs><filter style="color-interpolation-filters:sRGB" id="filter859" width="1.11" height="1.09" x=".05" y=".04"><feGaussianBlur stdDeviation="2.88"/></filter><filter style="color-interpolation-filters:sRGB" id="filter890" width="1.11" height="1.08" x=".06" y=".04"><feGaussianBlur stdDeviation="2.4"/></filter><filter style="color-interpolation-filters:sRGB" id="filter962" width="1.06" height="1.04" x=".03" y=".02"><feGaussianBlur stdDeviation=".81"/></filter></defs><path d="M 160,172 V 28 c 0,-4.43 -3.57,-8 -8,-8 H 40 c -4.43,0 -8,3.57 -8,8 v 144 c 0,4.43 3.57,8 8,8 h 112 c 4.43,0 8,-3.57 8,-8 z" style="filter:url(#filter859);opacity:.2;fill:#000"/><path style="fill:#ff5722" d="M 160,168 V 24 c 0,-4.43 -3.57,-8 -8,-8 H 40 c -4.43,0 -8,3.57 -8,8 v 144 c 0,4.43 3.57,8 8,8 h 112 c 4.43,0 8,-3.57 8,-8 z"/><path style="filter:url(#filter890);opacity:.1" d="m 48,30 c -4,0 -4,4 -4,4 v 128 c 0,0 0,4 4,4 h 96.25 c 0,0 3.75,0 3.75,-4 V 82 L 99.06,30 Z M 115.53,30 148,64.50 V 34 c 0,-4 -4,-4 -4,-4 z"/><path style="fill:#f5f5f5" d="m 48,28 c -4,0 -4,4 -4,4 v 128 c 0,0 0,4 4,4 h 96.25 c 0,0 3.75,0 3.75,-4 V 80 L 99.06,28 Z M 115.53,28 148,62.50 V 32 c 0,-4 -4,-4 -4,-4 z"/><path style="filter:url(#filter962);opacity:.1;fill:#000" d="m 95.39,55.96 c -15.50,0.01 -28.81,9.60 -31.70,22.85 5.78,-9.82 18.13,-16.09 31.70,-16.11 13.56,0.01 25.90,6.28 31.69,16.09 C 124.18,65.55 110.88,55.97 95.39,55.96 Z m 0.00,14.08 c -13.45,0.01 -24.99,8.33 -27.49,19.82 5.02,-8.52 15.72,-13.96 27.49,-13.97 11.76,0.01 22.46,5.44 27.48,13.95 C 120.37,78.36 108.83,70.05 95.39,70.04 Z M 95.25,83.04 c -9.67,0.01 -17.96,5.99 -19.76,14.24 3.60,-6.12 11.30,-10.04 19.76,-10.04 8.45,0.01 16.15,3.91 19.75,10.03 C 113.20,89.02 104.91,83.04 95.25,83.04 Z M 83.73,98 C 80.56,98 78,100.53 78,103.68 v 44.65 C 78,151.47 80.56,154 83.73,154 H 108.27 C 111.44,154 114,151.47 114,148.32 V 103.68 C 114,100.53 111.44,98 108.27,98 Z"/><path style="opacity:.1;fill:#fff" d="m 40,16 c -4.43,0 -8,3.57 -8,8 v 1 c 0,-4.43 3.57,-8 8,-8 h 112 c 4.43,0 8,3.57 8,8 v -1 c 0,-4.43 -3.57,-8 -8,-8 z"/><rect style="fill:#3f3f3f" width="36" height="56" x="78" y="96" rx="5.73" ry="5.68"/><path style="fill:#19a6f7" d="m 95.39,53.96 c -15.50,0.01 -28.81,9.60 -31.70,22.85 5.78,-9.82 18.13,-16.09 31.70,-16.11 13.56,0.01 25.90,6.28 31.69,16.09 C 124.18,63.55 110.88,53.97 95.39,53.96 Z m 0.00,14.08 C 81.94,68.05 70.40,76.37 67.90,87.85 72.92,79.34 83.62,73.90 95.39,73.88 107.15,73.89 117.86,79.33 122.88,87.84 120.37,76.36 108.83,68.05 95.39,68.04 Z m 0.14,13.00 c -9.67,0.01 -17.96,5.98 -19.76,14.24 3.60,-6.12 11.30,-10.03 19.76,-10.04 8.45,0.01 16.14,3.91 19.75,10.03 -1.80,-8.25 -10.09,-14.22 -19.75,-14.23 z"/></svg>