<?xml version='1.0' encoding='utf-8'?>
<svg xmlns="http://www.w3.org/2000/svg" width="192" height="192" version="1.1" id="svg14">
  <defs>
    <filter style="color-interpolation-filters:sRGB" id="filter849" x="0.05" y="0.05" width="1.10" height="1.10">
      <feGaussianBlur stdDeviation="3.20"/>
    </filter>
    <filter style="color-interpolation-filters:sRGB" id="filter1831" x="0.05" y="0.05" width="1.09" height="1.10">
      <feGaussianBlur stdDeviation="2.00"/>
    </filter>
  </defs>
  <circle style="filter:url(#filter849);opacity:0.20" cx="96" cy="100" r="80"/>
  <circle style="fill:#fa4b74" cx="96" cy="96" r="80"/>
  <path style="opacity:0.20;fill:#ffffff" d="M 96,16 A 80,80 0 0 0 16,96 80,80 0 0 0 16.02,96.64 80,80 0 0 1 96,17 80,80 0 0 1 175.98,96.30 80,80 0 0 0 176,96 80,80 0 0 0 96,16 Z"/>
  <path style="filter:url(#filter1831);opacity:0.20;fill:#000000" d="m 75.39,145.60 c -3.06,-3.88 -7.76,-6.11 -12.98,-6.56 l -2.20,0.19 3.81,-1.27 c 5.12,-1.70 7.98,-2.91 13.14,-5.54 8.23,-4.20 15.57,-9.59 21.89,-16.08 3.16,-3.24 6.13,-6.86 6.13,-7.47 0,0.14 0.49,0.29 -1.10,0.96 0.60,0.67 -2.46,2.45 -4.12,3.95 C 86.44,125.64 70.03,133.14 51.98,135.54 48.36,136.02 45,136.10 45,135.72 c 0,0.50 1.16,0.83 3.05,-1.19 2.97,0.56 5.24,-1.79 7.22,-3.91 4.74,-5.08 5.05,-11.37 0.84,-17.26 0.76,-1.06 -1.30,-2.01 -1.21,-2.10 0.27,0.27 3.92,1.68 6.27,3.36 1.18,0.85 1.97,1.54 2.00,1.54 0.03,0.00 0.02,-1.22 0.12,-2.71 0.21,-3.22 0.13,-8.09 0.78,-11.27 1.41,-6.90 5.61,-15.11 9.71,-19.49 1.84,-1.97 2.11,-1.67 1.54,1.77 0.56,3.41 0.36,10.79 0.39,13.82 l 0.54,2.20 0.24,-3.66 c 0.87,-13.50 4.76,-26.85 10.27,-35.22 6.55,-9.97 15.32,-14.39 26.56,-13.40 8.61,0.76 15.27,3.79 21.14,9.64 7.01,6.99 10.75,15.71 11.70,27.30 0.65,7.98 -1.01,17.49 -4.28,24.43 -5.08,10.81 -15.94,18.52 -30.08,21.36 -1.97,0.40 -4.65,0.82 -5.93,0.94 l -2.34,0.22 2.20,0.46 c 3.04,0.64 8.42,0.48 11.69,0.05 1.51,0.25 2.82,0.48 2.90,0.40 0.28,0.28 0.57,1.01 -3.40,2.91 -5.06,3.40 -10.99,5.88 -17.34,7.26 -2.68,0.58 -3.91,0.67 -9.52,0.67 -4.98,0.11 -8.00,0.30 -12.46,-1.47 0.39,0.15 0.43,0.13 0.28,2.13 0.09,1.26 0.05,2.60 0.09,2.98 0.25,0.65 0.32,0.61 -1.57,0.97 z"/>
  <path style="fill:#fdfcfc" d="m 75.39,143.60 c -3.06,-3.88 -7.76,-6.11 -12.98,-6.56 l -2.20,0.19 3.81,-1.27 c 5.12,-1.70 7.98,-2.91 13.14,-5.54 8.23,-4.20 15.57,-9.59 21.89,-16.08 3.16,-3.24 6.13,-6.86 6.13,-7.47 0,0.14 0.49,0.29 -1.10,0.96 0.60,0.67 -2.46,2.45 -4.12,3.95 C 86.44,123.64 70.03,131.14 51.98,133.54 48.36,134.02 45,134.10 45,133.72 c 0,0.50 1.16,0.83 3.05,-1.19 2.97,0.56 5.24,-1.79 7.22,-3.91 4.74,-5.08 5.05,-11.37 0.84,-17.26 0.76,-1.06 -1.30,-2.01 -1.21,-2.10 0.27,0.27 3.92,1.68 6.27,3.36 1.18,0.85 1.97,1.54 2.00,1.54 0.03,0.00 0.02,-1.22 0.12,-2.71 0.21,-3.22 0.13,-8.09 0.78,-11.27 1.41,-6.90 5.61,-15.11 9.71,-19.49 1.84,-1.97 2.11,-1.67 1.54,1.77 0.56,3.41 0.36,10.79 0.39,13.82 l 0.54,2.20 0.24,-3.66 c 0.87,-13.50 4.76,-26.85 10.27,-35.22 6.55,-9.97 15.32,-14.39 26.56,-13.40 8.61,0.76 15.27,3.79 21.14,9.64 7.01,6.99 10.75,15.71 11.70,27.30 0.65,7.98 -1.01,17.49 -4.28,24.43 -5.08,10.81 -15.94,18.52 -30.08,21.36 -1.97,0.40 -4.65,0.82 -5.93,0.94 l -2.34,0.22 2.20,0.46 c 3.04,0.64 8.42,0.48 11.69,0.05 1.51,0.25 2.82,0.48 2.90,0.40 0.28,0.28 0.57,1.01 -3.40,2.91 -5.06,3.40 -10.99,5.88 -17.34,7.26 -2.68,0.58 -3.91,0.67 -9.52,0.67 -4.98,0.11 -8.00,0.30 -12.46,-1.47 0.39,0.15 0.43,0.13 0.28,2.13 0.09,1.26 0.05,2.60 0.09,2.98 0.25,0.65 0.32,0.61 -1.57,0.97 z"/>
</svg>
