<svg xmlns="http://www.w3.org/2000/svg" id="svg10" width="192" height="192" version="1"><defs><filter style="color-interpolation-filters:sRGB" id="filter844" width="1.1" height="1.09" x=".05" y=".05"><feGaussianBlur stdDeviation="3.12"/></filter></defs><path style="filter:url(#filter844);opacity:.2;fill:#000" d="M 33.76,20.00 A 13.45,12.55 0 0 0 20.00,32.55 V 167.45 a 13.45,12.55 0 0 0 20.17,10.86 l 62.56,-33.72 62.55,-33.72 a 13.45,12.55 0 0 0 0,-21.75 L 102.72,55.40 40.17,21.68 a 13.45,12.55 0 0 0 -6.41,-1.68 z"/><path d="M 33.76,16.00 A 13.45,12.55 0 0 0 20.00,28.55 V 163.45 a 13.45,12.55 0 0 0 20.17,10.86 l 62.56,-33.72 62.55,-33.72 a 13.45,12.55 0 0 0 0,-21.75 L 102.72,51.40 40.17,17.68 a 13.45,12.55 0 0 0 -6.41,-1.68 z" style="fill:#148ae6"/><path style="opacity:.2;fill:#fff" d="M 33.76 16.00 A 13.45 12.55 0 0 0 20 28.55 L 20 29.55 A 13.45 12.55 0 0 1 33.76 17.00 A 13.45 12.55 0 0 1 40.17 18.68 L 102.72 52.40 L 165.28 86.13 A 13.45 12.55 0 0 1 171.98 96.62 A 13.45 12.55 0 0 0 165.28 85.13 L 102.72 51.40 L 40.17 17.68 A 13.45 12.55 0 0 0 33.76 16.00 z"/></svg>