<?xml version='1.0' encoding='utf-8'?>
<svg xmlns="http://www.w3.org/2000/svg" width="192" height="192" version="1" id="svg12">
  <defs>
    <filter style="color-interpolation-filters:sRGB" id="filter858" x="0.05" width="1.10" y="0.05" height="1.10">
      <feGaussianBlur stdDeviation="3.20"/>
    </filter>
    <filter style="color-interpolation-filters:sRGB" id="filter886" x="0.05" width="1.09" y="0.05" height="1.10">
      <feGaussianBlur stdDeviation="1.84"/>
    </filter>
  </defs>
  <rect ry="80" rx="80" y="20" x="16" height="160" width="160" style="filter:url(#filter858);opacity:0.20;fill:#000000"/>
  <rect style="fill:#124aa0" width="160" height="160" x="16" y="16.00" rx="80" ry="80"/>
  <path style="opacity:0.10;fill:#ffffff" d="M 96 16 C 51.68 16 16.01 51.68 16.01 96 C 16.01 96.34 16.01 96.67 16.01 97 C 16.01 52.68 51.68 17 96 17 C 140.32 17 175.99 52.68 175.99 97 C 175.99 96.67 175.99 96.34 175.99 96 C 175.99 51.68 140.32 16 96 16 z "/>
  <path style="filter:url(#filter886);opacity:0.20" d="m 64.11,58.00 c -8.83,0 -17.43,7.26 -15.94,16 L 57.73,130 c 1.49,8.74 7.11,16 15.95,16 h 44.64 c 8.83,0 14.45,-7.26 15.95,-16 l 9.56,-56.00 c 1.49,-8.74 -7.11,-16 -15.94,-16 z m 31.89,20 A 16.00,16 0 0 1 112.00,94.00 16.00,16 0 0 1 104.00,107.84 V 126 c 0,2.22 -1.78,4 -4.00,4 h -8.00 c -2.22,0 -4.00,-1.78 -4.00,-4 V 107.84 A 16.00,16 0 0 1 80.00,94.00 16.00,16 0 0 1 96.00,78.00 Z"/>
  <path style="fill:#ffffff" d="m 64.11,56.00 c -8.83,0 -17.43,7.26 -15.94,16 L 57.73,128 c 1.49,8.74 7.11,16 15.95,16 h 44.64 c 8.83,0 14.45,-7.26 15.95,-16 l 9.56,-56.00 c 1.49,-8.74 -7.11,-16 -15.94,-16 z m 31.89,20 A 16.00,16 0 0 1 112.00,92.00 16.00,16 0 0 1 104.00,105.84 V 124 c 0,2.22 -1.78,4 -4.00,4 h -8.00 c -2.22,0 -4.00,-1.78 -4.00,-4 V 105.84 A 16.00,16 0 0 1 80.00,92.00 16.00,16 0 0 1 96.00,76.00 Z"/>
</svg>
