<?xml version='1.0' encoding='utf-8'?>
<svg xmlns="http://www.w3.org/2000/svg" width="192" height="192" version="1.1" id="svg14">
  <defs>
    <filter style="color-interpolation-filters:sRGB" id="filter4621" x="-0.19200001" y="-0.19200001" width="1.384" height="1.384">
      <feGaussianBlur stdDeviation="2.88"/>
    </filter>
    <filter style="color-interpolation-filters:sRGB" id="filter4666" x="-0.036450001" y="-0.070265062" width="1.0729" height="1.1405301">
      <feGaussianBlur stdDeviation="2.43"/>
    </filter>
    <filter style="color-interpolation-filters:sRGB" id="filter4857" x="-0.066693038" y="-0.085670732" width="1.1333861" height="1.1713415">
      <feGaussianBlur stdDeviation="4.390625"/>
    </filter>
  </defs>
  <rect style="filter:url(#filter4666);opacity:0.2;fill:#000000" width="160" height="83" x="20" y="75" rx="14" ry="13.833333"/>
  <path style="opacity:0.2" d="m 68,17 c -3.324,0 -6,2.676 -6,6 v 108 c 0,3.324 2.676,6 6,6 h 84 c 3.324,0 6,-2.676 6,-6 V 53 L 122,17 Z"/>
  <path style="fill:#e4e4e4" d="m 68,14 c -3.324,0 -6,2.676 -6,6 v 108 c 0,3.324 2.676,6 6,6 h 84 c 3.324,0 6,-2.676 6,-6 V 50 l -30,-6 -6,-30 z"/>
  <path style="fill:#4f4f4f" d="m 82,45 v 22 h 5 v -9 h 7 v -4 h -7 v -5 h 8 V 45 Z M 102.66992,45 95,67 h 4.96093 l 1.58204,-5 h 7.91406 l 1.58203,5 H 116 l -7.69922,-22 z m 14.7793,0 6.6582,10.660156 L 117,67 h 4.85742 L 126.83593,58.681641 131.8125,67 H 137 L 129.77343,55.908203 136.49023,45 h -4.88671 l -4.5293,7.917969 L 122.45703,45 Z M 105.5,48.40625 c 0.10145,0.409112 0.23416,0.889105 0.39648,1.441406 0.16232,0.552301 0.32401,1.095108 0.48633,1.626953 0.16232,0.531845 0.29308,0.970615 0.39453,1.31836 L 108.36132,58 h -5.6621 l 1.55273,-5.207031 c 0.0812,-0.225011 0.19391,-0.60292 0.33594,-1.134766 0.16232,-0.552301 0.32401,-1.125537 0.48633,-1.71875 0.1826,-0.613668 0.32433,-1.124091 0.42578,-1.533203 z"/>
  <path style="filter:url(#filter4621);opacity:0.2" d="M 158,52 122,16 v 30 c 0,3.324 2.676,6 6,6 z"/>
  <path style="fill:#fafafa" d="M 158,50 122,14 v 30 c 0,3.324 2.676,6 6,6 z"/>
  <path style="opacity:0.2;fill:#ffffff" d="M 68 14 C 64.676 14 62 16.676 62 20 L 62 21 C 62 17.676 64.676 15 68 15 L 122 15 L 122 14 L 68 14 z "/>
  <rect style="fill:#528dfe" width="160" height="83" x="20" y="71" rx="14" ry="13.833333"/>
  <path style="filter:url(#filter4857);opacity:0.2;fill:#000000" d="m 28,54 c -8.864,0 -16,7.136 -16,16 v 91 c 0,8.864 7.136,16 16,16 8.864,0 16,-7.136 16,-16 V 70 C 44,61.136 36.864,54 28,54 Z m 27,33 v 57 h 48 V 87 Z m 61,0 c -1.662,0 -3,1.338 -3,3 v 6 c 0,1.662 1.338,3 3,3 h 6 c 1.662,0 3,-1.338 3,-3 v -6 c 0,-1.662 -1.338,-3 -3,-3 z m 15,0 c -1.662,0 -3,1.338 -3,3 v 6 c 0,1.662 1.338,3 3,3 h 6 c 1.662,0 3,-1.338 3,-3 v -6 c 0,-1.662 -1.338,-3 -3,-3 z m 15,0 c -1.662,0 -3,1.338 -3,3 v 6 c 0,1.662 1.338,3 3,3 h 6 c 1.662,0 3,-1.338 3,-3 v -6 c 0,-1.662 -1.338,-3 -3,-3 z m 15,0 c -1.662,0 -3,1.338 -3,3 v 6 c 0,1.662 1.338,3 3,3 h 6 c 1.662,0 3,-1.338 3,-3 v -6 c 0,-1.662 -1.338,-3 -3,-3 z m -45,15 c -1.662,0 -3,1.338 -3,3 v 6 c 0,1.662 1.338,3 3,3 h 6 c 1.662,0 3,-1.338 3,-3 v -6 c 0,-1.662 -1.338,-3 -3,-3 z m 15,0 c -1.662,0 -3,1.338 -3,3 v 6 c 0,1.662 1.338,3 3,3 h 6 c 1.662,0 3,-1.338 3,-3 v -6 c 0,-1.662 -1.338,-3 -3,-3 z m 15,0 c -1.662,0 -3,1.338 -3,3 v 6 c 0,1.662 1.338,3 3,3 h 6 c 1.662,0 3,-1.338 3,-3 v -6 c 0,-1.662 -1.338,-3 -3,-3 z m 15,0 c -1.662,0 -3,1.338 -3,3 v 6 c 0,1.662 1.338,3 3,3 h 6 c 1.662,0 3,-1.338 3,-3 v -6 c 0,-1.662 -1.338,-3 -3,-3 z m -45,15 c -1.662,0 -3,1.338 -3,3 v 6 c 0,1.662 1.338,3 3,3 h 6 c 1.662,0 3,-1.338 3,-3 v -6 c 0,-1.662 -1.338,-3 -3,-3 z m 15,0 c -1.662,0 -3,1.338 -3,3 v 6 c 0,1.662 1.338,3 3,3 h 6 c 1.662,0 3,-1.338 3,-3 v -6 c 0,-1.662 -1.338,-3 -3,-3 z m 15,0 c -1.662,0 -3,1.338 -3,3 v 6 c 0,1.662 1.338,3 3,3 h 6 c 1.662,0 3,-1.338 3,-3 v -6 c 0,-1.662 -1.338,-3 -3,-3 z m 15,0 c -1.662,0 -3,1.338 -3,3 v 6 c 0,1.662 1.338,3 3,3 h 6 c 1.662,0 3,-1.338 3,-3 v -6 c 0,-1.662 -1.338,-3 -3,-3 z m -45,15 c -1.662,0 -3,1.338 -3,3 v 6 c 0,1.662 1.338,3 3,3 h 6 c 1.662,0 3,-1.338 3,-3 v -6 c 0,-1.662 -1.338,-3 -3,-3 z m 15,0 c -1.662,0 -3,1.338 -3,3 v 6 c 0,1.662 1.338,3 3,3 h 6 c 1.662,0 3,-1.338 3,-3 v -6 c 0,-1.662 -1.338,-3 -3,-3 z m 15,0 c -1.662,0 -3,1.338 -3,3 v 6 c 0,1.662 1.338,3 3,3 h 6 c 1.662,0 3,-1.338 3,-3 v -6 c 0,-1.662 -1.338,-3 -3,-3 z m 15,0 c -1.662,0 -3,1.338 -3,3 v 6 c 0,1.662 1.338,3 3,3 h 6 c 1.662,0 3,-1.338 3,-3 v -6 c 0,-1.662 -1.338,-3 -3,-3 z"/>
  <rect style="fill:#12ffab" width="48" height="57" x="55" y="84"/>
  <path style="fill:#ffffff" d="m 116,84 c -1.662,0 -3,1.338 -3,3 v 6 c 0,1.662 1.338,3 3,3 h 6 c 1.662,0 3,-1.338 3,-3 v -6 c 0,-1.662 -1.338,-3 -3,-3 z m 15,0 c -1.662,0 -3,1.338 -3,3 v 6 c 0,1.662 1.338,3 3,3 h 6 c 1.662,0 3,-1.338 3,-3 v -6 c 0,-1.662 -1.338,-3 -3,-3 z m 15,0 c -1.662,0 -3,1.338 -3,3 v 6 c 0,1.662 1.338,3 3,3 h 6 c 1.662,0 3,-1.338 3,-3 v -6 c 0,-1.662 -1.338,-3 -3,-3 z m 15,0 c -1.662,0 -3,1.338 -3,3 v 6 c 0,1.662 1.338,3 3,3 h 6 c 1.662,0 3,-1.338 3,-3 v -6 c 0,-1.662 -1.338,-3 -3,-3 z m -45,15 c -1.662,0 -3,1.338 -3,3 v 6 c 0,1.662 1.338,3 3,3 h 6 c 1.662,0 3,-1.338 3,-3 v -6 c 0,-1.662 -1.338,-3 -3,-3 z m 15,0 c -1.662,0 -3,1.338 -3,3 v 6 c 0,1.662 1.338,3 3,3 h 6 c 1.662,0 3,-1.338 3,-3 v -6 c 0,-1.662 -1.338,-3 -3,-3 z m 15,0 c -1.662,0 -3,1.338 -3,3 v 6 c 0,1.662 1.338,3 3,3 h 6 c 1.662,0 3,-1.338 3,-3 v -6 c 0,-1.662 -1.338,-3 -3,-3 z m 15,0 c -1.662,0 -3,1.338 -3,3 v 6 c 0,1.662 1.338,3 3,3 h 6 c 1.662,0 3,-1.338 3,-3 v -6 c 0,-1.662 -1.338,-3 -3,-3 z m -45,15 c -1.662,0 -3,1.338 -3,3 v 6 c 0,1.662 1.338,3 3,3 h 6 c 1.662,0 3,-1.338 3,-3 v -6 c 0,-1.662 -1.338,-3 -3,-3 z m 15,0 c -1.662,0 -3,1.338 -3,3 v 6 c 0,1.662 1.338,3 3,3 h 6 c 1.662,0 3,-1.338 3,-3 v -6 c 0,-1.662 -1.338,-3 -3,-3 z m 15,0 c -1.662,0 -3,1.338 -3,3 v 6 c 0,1.662 1.338,3 3,3 h 6 c 1.662,0 3,-1.338 3,-3 v -6 c 0,-1.662 -1.338,-3 -3,-3 z m 15,0 c -1.662,0 -3,1.338 -3,3 v 6 c 0,1.662 1.338,3 3,3 h 6 c 1.662,0 3,-1.338 3,-3 v -6 c 0,-1.662 -1.338,-3 -3,-3 z m -45,15 c -1.662,0 -3,1.338 -3,3 v 6 c 0,1.662 1.338,3 3,3 h 6 c 1.662,0 3,-1.338 3,-3 v -6 c 0,-1.662 -1.338,-3 -3,-3 z m 15,0 c -1.662,0 -3,1.338 -3,3 v 6 c 0,1.662 1.338,3 3,3 h 6 c 1.662,0 3,-1.338 3,-3 v -6 c 0,-1.662 -1.338,-3 -3,-3 z m 15,0 c -1.662,0 -3,1.338 -3,3 v 6 c 0,1.662 1.338,3 3,3 h 6 c 1.662,0 3,-1.338 3,-3 v -6 c 0,-1.662 -1.338,-3 -3,-3 z m 15,0 c -1.662,0 -3,1.338 -3,3 v 6 c 0,1.662 1.338,3 3,3 h 6 c 1.662,0 3,-1.338 3,-3 v -6 c 0,-1.662 -1.338,-3 -3,-3 z"/>
  <rect style="fill:#3f62ec" width="32" height="123" x="12" y="51" rx="16" ry="16"/>
  <path style="opacity:0.1;fill:#ffffff" d="M 28 51 C 19.136 51 12 58.136 12 67 L 12 68 C 12 59.136 19.136 52 28 52 C 36.864 52 44 59.136 44 68 L 44 67 C 44 58.136 36.864 51 28 51 z "/>
</svg>
