<?xml version='1.0' encoding='utf-8'?>
<svg xmlns="http://www.w3.org/2000/svg" width="192" height="192" version="1.1" id="svg22">
  <defs>
    <filter style="color-interpolation-filters:sRGB" id="filter1075" x="-0.04800141" y="-0.048001409" width="1.0960028" height="1.0960028">
      <feGaussianBlur stdDeviation="2.88"/>
    </filter>
    <filter style="color-interpolation-filters:sRGB" id="filter1079" x="-0.22447059" y="-0.22447059" width="1.4489412" height="1.4489412">
      <feGaussianBlur stdDeviation="1.36"/>
    </filter>
    <filter style="color-interpolation-filters:sRGB" id="filter1083" x="-0.108" y="-0.10800001" width="1.216" height="1.216">
      <feGaussianBlur stdDeviation="1.441423"/>
    </filter>
  </defs>
  <path style="filter:url(#filter1083);opacity:0.2" d="m 32,18.003862 c -14.255469,0 -21.392051,17.234216 -11.313134,27.313132 C 30.765783,55.395914 48,48.25933 48,34.003862 c 0,-8.836556 -7.163444,-16 -16,-16 z m -0.195312,8 c 0.0651,-7.95e-4 0.130212,-7.95e-4 0.195312,0 7.127734,0 10.696024,8.617108 5.656567,13.656568 C 32.617108,44.699886 24,41.131594 24,34.003862 c -0.0013,-4.343114 3.462868,-7.893968 7.804688,-8 z"/>
  <path style="filter:url(#filter1075);opacity:0.2" d="m 80,36.007812 c -26.509668,0 -48,21.490332 -48,48 0,26.509668 21.490332,47.999998 48,47.999998 2.637372,0 5.204772,-0.27048 7.726564,-0.67969 l 40.476556,40.47657 a 28,28 0 0 0 39.59376,0 28,28 0 0 0 0,-39.59375 L 127.32031,91.734376 C 127.7295,89.212584 128,86.645184 128,84.007812 c 0,-26.509668 -21.49033,-48 -48,-48 z"/>
  <path style="fill:none;stroke:#e52030;stroke-width:56;stroke-linecap:round;stroke-linejoin:round" d="m 80,80 68,68"/>
  <path style="filter:url(#filter1079);opacity:0.2;fill:none;stroke:#000000;stroke-width:24;stroke-linecap:round;stroke-linejoin:round" d="m 80,82 68,68"/>
  <path style="fill:#c6c6c6" d="M 32,16 A 16,16 0 1 0 48,32 16,16 0 0 0 32,16 Z m -0.195312,8 A 8,8 0 0 1 32,24 a 8,8 0 1 1 -8,8 8,8 0 0 1 7.804688,-8 z"/>
  <path style="fill:none;stroke:#fcfcfc;stroke-width:24;stroke-linecap:round;stroke-linejoin:round" d="m 80,80 68,68"/>
  <circle style="fill:#929292" cx="48" cy="44" r="8"/>
  <circle style="fill:#e52030" cx="80" cy="80" r="48"/>
  <path style="opacity:0.2;fill:#ffffff" d="M 32 16 C 22.177448 16 15.770222 24.184067 16.013672 32.570312 C 16.28448 24.545999 22.569038 17 32 17 C 40.690938 17 47.757545 23.931168 47.988281 32.566406 C 47.995859 32.379214 48 32.190606 48 32 C 48 23.163444 40.836556 16 32 16 z M 24.273438 34.03125 C 24.11233 34.664689 23.999796 35.317069 24 36 C 24 36.167228 24.010203 36.330897 24.019531 36.494141 C 24.058647 35.992855 24.152607 35.506329 24.273438 35.03125 C 25.722386 40.751162 33.124022 43.188476 37.65625 38.65625 C 38.73045 37.58205 39.338802 36.33589 39.679688 35.054688 C 39.815487 35.580175 39.899999 36.118857 39.933594 36.662109 C 39.988171 35.782575 39.898539 34.901553 39.679688 34.054688 C 39.338802 35.33589 38.73045 36.58205 37.65625 37.65625 C 33.124022 42.188476 25.722386 39.751162 24.273438 34.03125 z "/>
  <path style="opacity:0.2;fill:#ffffff;color:#000000" d="M 80 32 A 48 48 0 0 0 32 80 A 48 48 0 0 0 32.042969 80.5 A 48 48 0 0 1 80 33 A 48 48 0 0 1 127.97656 80.255859 A 48 48 0 0 0 128 80 A 48 48 0 0 0 80 32 z M 127.40039 87.802734 A 48 48 0 0 1 127.31836 88.720703 L 167.79883 129.20117 A 28 28 0 0 1 175.98047 148.5 A 28 28 0 0 0 167.79883 128.20117 L 127.40039 87.802734 z "/>
</svg>
