<?xml version='1.0' encoding='utf-8'?>
<svg xmlns="http://www.w3.org/2000/svg" width="192" height="192" version="1" id="svg16">
  <defs>
    <filter style="color-interpolation-filters:sRGB" id="filter971" x="0.05" y="0.05" width="1.10" height="1.10">
      <feGaussianBlur stdDeviation="3.20"/>
    </filter>
    <filter style="color-interpolation-filters:sRGB" id="filter2433" x="0.05" y="0.05" width="1.09" height="1.10">
      <feGaussianBlur stdDeviation="2.28"/>
    </filter>
  </defs>
  <rect style="filter:url(#filter971);opacity:0.20;fill:#000000" width="160" height="160" x="16" y="20" rx="80" ry="80"/>
  <circle style="fill:#239df8;stop-color:#000000" cx="96" cy="96" r="80"/>
  <path style="filter:url(#filter2433);opacity:0.20;fill:#000000;color:#000000" d="m 95.70,43.00 c -1.08,0.01 -2.15,0.04 -3.23,0.11 -5.75,0.37 -11.50,1.64 -17.05,3.88 -20.90,8.43 -34.42,28.74 -34.41,51.01 h -5.11 a 2.89,2.73 0 0 0 -2.50,4.10 l 5.05,8.27 5.05,8.27 a 2.89,2.73 0 0 0 5.01,0 l 5.05,-8.27 5.05,-8.27 A 2.89,2.73 0 0 0 56.10,98.01 H 51.01 C 51.00,79.76 62.02,63.18 79.16,56.27 c 18.18,-7.34 38.98,-2.08 51.49,13.02 12.51,15.10 13.82,36.50 3.23,53.01 -10.59,16.51 -30.58,24.25 -49.53,19.17 a 5,5 0 0 0 -6.12,3.54 5,5 0 0 0 3.54,6.12 c 23.11,6.19 47.62,-3.30 60.53,-23.43 12.91,-20.14 11.32,-46.37 -3.95,-64.79 C 127.61,49.95 111.83,42.92 95.70,43.00 Z M 77,73.00 c -1.66,0 -3,1.34 -3,3 v 8 c 0,1.66 1.34,3 3,3 h 38 c 1.66,0 3,-1.34 3,-3 v -8 c 0,-1.66 -1.34,-3 -3,-3 z m 7,4 a 3,3 0 0 1 3,3 3,3 0 0 1 -3,3 3,3 0 0 1 -3,-3 3,3 0 0 1 3,-3 z m -7,14 c -1.66,0 -3,1.34 -3,3 v 8.00 c 0,1.66 1.34,3 3,3 h 38 c 1.66,0 3,-1.34 3,-3 v -8.00 c 0,-1.66 -1.34,-3 -3,-3 z m 7,4 a 3,3 0 0 1 3,3 3,3 0 0 1 -3,3.00 3,3 0 0 1 -3,-3.00 3,3 0 0 1 3,-3 z m -7,14.00 c -1.66,0 -3,1.34 -3,3 v 8 c 0,1.66 1.34,3 3,3 h 38 c 1.66,0 3,-1.34 3,-3 v -8 c 0,-1.66 -1.34,-3 -3,-3 z m 7,4 a 3,3 0 0 1 3,3 3,3 0 0 1 -3,3 3,3 0 0 1 -3,-3 3,3 0 0 1 3,-3 z"/>
  <path style="opacity:0.20;fill:#ffffff" d="M 96.00,16 C 51.68,16.00 16,51.68 16,96 c 0,0.17 0.01,0.34 0.01,0.52 C 16.27,52.42 51.84,17.00 96.00,17 H 96 c 44.16,0.00 79.73,35.42 79.99,79.52 0.00,0.17 0.01,0.34 0.01,0.52 0,-44.32 -35.68,-80.00 -80.00,-80 z"/>
  <path style="fill:#ffffff;color:#000000" d="m 95.70,41.00 c -1.08,0.01 -2.15,0.04 -3.23,0.11 -5.75,0.37 -11.50,1.64 -17.05,3.88 -20.90,8.43 -34.42,28.74 -34.41,51.01 h -5.11 a 2.89,2.73 0 0 0 -2.50,4.10 l 5.05,8.27 5.05,8.27 a 2.89,2.73 0 0 0 5.01,0 l 5.05,-8.27 5.05,-8.27 a 2.89,2.73 0 0 0 -2.50,-4.10 h -5.09 c 0.01,-18.25 11.01,-34.82 28.15,-41.74 18.18,-7.34 38.98,-2.08 51.49,13.02 12.51,15.10 13.82,36.50 3.23,53.01 -10.59,16.51 -30.58,24.25 -49.53,19.17 a 5,5 0 0 0 -6.12,3.54 5,5 0 0 0 3.54,6.12 c 23.11,6.19 47.62,-3.30 60.53,-23.43 12.91,-20.14 11.32,-46.37 -3.95,-64.79 C 127.61,47.95 111.83,40.92 95.70,41.00 Z"/>
  <path style="fill:#196eae;stop-color:#000000" d="m 77,71 c -1.66,0 -3,1.34 -3,3 v 8 c 0,1.66 1.34,3 3,3 h 38 c 1.66,0 3,-1.34 3,-3 v -8 c 0,-1.66 -1.34,-3 -3,-3 z m 7,4 a 3,3 0 0 1 3,3 3,3 0 0 1 -3,3 3,3 0 0 1 -3,-3 3,3 0 0 1 3,-3 z m -7,14 c -1.66,0 -3,1.34 -3,3 v 8 c 0,1.66 1.34,3 3,3 h 38 c 1.66,0 3,-1.34 3,-3 v -8 c 0,-1.66 -1.34,-3 -3,-3 z m 7,4 a 3,3 0 0 1 3,3 3,3 0 0 1 -3,3 3,3 0 0 1 -3,-3 3,3 0 0 1 3,-3 z m -7,14 c -1.66,0 -3,1.34 -3,3 v 8 c 0,1.66 1.34,3 3,3 h 38 c 1.66,0 3,-1.34 3,-3 v -8 c 0,-1.66 -1.34,-3 -3,-3 z m 7,4 a 3,3 0 0 1 3,3 3,3 0 0 1 -3,3 3,3 0 0 1 -3,-3 3,3 0 0 1 3,-3 z"/>
</svg>
