<?xml version='1.0' encoding='utf-8'?>
<svg xmlns="http://www.w3.org/2000/svg" width="192" height="192" version="1" id="svg12">
  <defs>
    <filter style="color-interpolation-filters:sRGB" id="filter963" x="-0.048000001" y="-0.048000001" width="1.096" height="1.096">
      <feGaussianBlur stdDeviation="3.2"/>
    </filter>
    <filter style="color-interpolation-filters:sRGB" id="filter967" x="-0.04342166" y="-0.053657608" width="1.0868433" height="1.1073152">
      <feGaussianBlur stdDeviation="2.056875"/>
    </filter>
  </defs>
  <rect style="filter:url(#filter963);opacity:0.2;fill:#000000" width="160" height="160" x="16" y="20" rx="8" ry="8"/>
  <rect style="fill:#288cf4" width="160" height="160" x="16" y="16" rx="8" ry="8"/>
  <path style="opacity:0.2;fill:#ffffff" d="M 24 16 C 19.568 16 16 19.568 16 24 L 16 25 C 16 20.568 19.568 17 24 17 L 168 17 C 172.432 17 176 20.568 176 25 L 176 24 C 176 19.568 172.432 16 168 16 L 24 16 z "/>
  <path style="filter:url(#filter967);opacity:0.2" d="m 38.3125,54 25.906252,85.9375 c 0.0276,0.0508 0.0508,0.0676 0.07812,0.1172 C 65.20832,143.47068 68.29678,146 72,146 c 3.5137,0 6.464228,-2.27991 7.539064,-5.42969 0.0236,-0.0467 0.08112,-0.10308 0.10156,-0.14844 L 105.6875,54 H 97.335936 L 72,138.03906 46.664064,54 Z M 132,54 a 20,20 0 0 0 -20,20 v 20 h 8 v -8 -4 -8 c 0,-6.722176 5.27782,-12 12,-12 6.72218,0 12,5.277824 12,12 v 8 4 8 h 8 V 74 A 20,20 0 0 0 132,54 Z m 0,52 a 20,20 0 0 0 -20,20 20,20 0 0 0 20,20 h 20 v -8 h -8 -4 -8 c -6.72218,0 -12,-5.27782 -12,-12 0,-6.72218 5.27782,-12 12,-12 h 8 4 8 v -8 z"/>
  <path style="fill:#ffffff" d="m 38.3125,52 25.906252,85.9375 c 0.0276,0.0508 0.0508,0.0676 0.07812,0.1172 C 65.20832,141.47068 68.29678,144 72,144 c 3.5137,0 6.464228,-2.27991 7.539064,-5.42969 0.0236,-0.0467 0.08112,-0.10308 0.10156,-0.14844 L 105.6875,52 H 97.335936 L 72,136.03906 46.664064,52 Z M 132,52 a 20,20 0 0 0 -20,20 v 20 h 8 v -8 -4 -8 c 0,-6.722176 5.27782,-12 12,-12 6.72218,0 12,5.277824 12,12 v 8 4 8 h 8 V 72 A 20,20 0 0 0 132,52 Z m 0,52 a 20,20 0 0 0 -20,20 20,20 0 0 0 20,20 h 20 v -8 h -8 -4 -8 c -6.72218,0 -12,-5.27782 -12,-12 0,-6.72218 5.27782,-12 12,-12 h 8 4 8 v -8 z"/>
</svg>
