<?xml version='1.0' encoding='utf-8'?>
<svg xmlns="http://www.w3.org/2000/svg" width="192" height="192" version="1" id="svg16">
  <defs>
    <filter style="color-interpolation-filters:sRGB" id="filter867" x="0.05" width="1.10" y="0.05" height="1.10">
      <feGaussianBlur stdDeviation="3.20"/>
    </filter>
    <filter style="color-interpolation-filters:sRGB" id="filter1751" x="0.08" y="0.07" width="1.16" height="1.14">
      <feGaussianBlur stdDeviation="2.93"/>
    </filter>
  </defs>
  <rect ry="80" rx="80" height="160" width="160" y="-176" x="-180" transform="matrix(0,-1,-1,0,0,0)" style="filter:url(#filter867);opacity:0.20;fill:#000000"/>
  <rect style="fill:#17be7b" transform="matrix(0,-1,-1,0,0,0)" x="-176" y="-176" width="160" height="160" rx="80" ry="80"/>
  <path style="opacity:0.20;fill:#ffffff" d="M 96 16 C 51.68 16 16 51.68 16 96 C 16 96.34 16.00 96.67 16 97 C 16 52.68 51.68 17 96 17 C 140.32 17 176 52.68 176 97 C 176.00 96.67 176 96.34 176 96 C 176 51.68 140.32 16 96 16 z "/>
  <path style="filter:url(#filter1751);opacity:0.20;fill:#000000" d="m 88.79,48.02 c 0.78,0.06 -1.54,0.25 -2.25,0.59 -2.16,1.04 -3.54,3.23 -3.54,5.63 V 66.92 L 96,76.66 v -9.41 l 14.40,11.93 -5.85,4.55 10.47,7.92 9.61,-7.48 c 3.19,-2.48 3.23,-7.29 0.07,-9.81 L 93.16,49.35 C 91.92,48.37 90.36,47.90 88.79,48.02 Z M 59.45,61.26 51.75,71.11 83.00,95.48 v 5.00 l -22.58,17.37 c -2.72,2.12 -3.21,6.04 -1.10,8.76 2.12,2.72 6.04,3.21 8.76,1.10 L 83.00,116.32 v 25.41 c 0.00,5.24 6.06,8.16 10.16,4.88 l 27.38,-21.90 11.01,8.58 7.70,-9.85 z M 96.95,105.90 110.39,116.81 96,128.72 v -22.13 z"/>
  <path style="fill:#ffffff" d="m 88.79,46.02 c 0.78,0.06 -1.54,0.25 -2.25,0.59 -2.16,1.04 -3.54,3.23 -3.54,5.63 V 64.92 L 96,74.66 v -9.41 l 14.40,11.93 -5.85,4.55 10.47,7.92 9.61,-7.48 c 3.19,-2.48 3.23,-7.29 0.07,-9.81 L 93.16,47.35 C 91.92,46.37 90.36,45.90 88.79,46.02 Z M 59.45,59.26 51.75,69.11 83.00,93.48 v 5.00 L 60.42,115.85 c -2.72,2.12 -3.21,6.04 -1.10,8.76 2.12,2.72 6.04,3.21 8.76,1.10 L 83.00,114.32 v 25.41 c 0.00,5.24 6.06,8.16 10.16,4.88 l 27.38,-21.90 11.01,8.58 7.70,-9.85 z M 96.95,103.90 110.39,114.81 96,126.72 v -22.13 z"/>
</svg>
