<?xml version='1.0' encoding='utf-8'?>
<svg xmlns="http://www.w3.org/2000/svg" width="192" height="192" version="1" id="svg18">
  <defs>
    <filter style="color-interpolation-filters:sRGB" id="filter857" x="-0.048000001" y="-0.048000001" width="1.096" height="1.096">
      <feGaussianBlur stdDeviation="3.2"/>
    </filter>
    <filter style="color-interpolation-filters:sRGB" id="filter861" x="-0.062552442" y="-0.040982634" width="1.1251049" height="1.0819653">
      <feGaussianBlur stdDeviation="1.9808273"/>
    </filter>
  </defs>
  <rect style="filter:url(#filter857);opacity:0.2" width="160" height="160" x="16" y="20" rx="8" ry="8"/>
  <rect style="fill:#38bdec" width="160" height="160" x="16" y="16" rx="8" ry="8"/>
  <path style="opacity:0.2;fill:#ffffff" d="M 24 16 C 19.568 16 16 19.568 16 24 L 16 25 C 16 20.568 19.568 17 24 17 L 168 17 C 172.432 17 176 20.568 176 25 L 176 24 C 176 19.568 172.432 16 168 16 L 24 16 z "/>
  <path style="filter:url(#filter861);opacity:0.2" d="m 60,38 v 37.203124 l 12.523436,12.570312 a 38.066914,38.066914 0 0 0 -0.0312,0.0236 l 13.617188,13.617184 2.007812,2.00782 v 0.008 a 16,16 0 0 1 2.695312,-1.71094 16,16 0 0 1 0.008,-0.008 16,16 0 0 1 2.984376,-1.13281 A 16,16 0 0 1 96,100.14844 a 16,16 0 0 1 0.09376,-0.0156 V 78.031248 A 38.066914,38.066914 0 0 0 96,78.039064 V 70 Z m 39.906248,40 v 22.125 a 16,16 0 0 1 7.960942,3.3125 L 123.50781,87.796876 A 38.066914,38.066914 0 0 0 99.906248,78 Z M 60,80.3125 V 114 h 0.008 A 38.066914,38.066914 0 0 0 60,114.09375 h 22.125 a 16,16 0 0 1 3.3125,-7.96094 l -0.20312,-0.20312 0.07032,-0.0547 z m 66.20312,10.179688 -15.625,15.625002 a 16,16 0 0 1 3.28907,7.97656 h 22.10156 A 38.066914,38.066914 0 0 0 126.20312,90.492188 Z M 60.031248,117.90625 a 38.066914,38.066914 0 0 0 9.765628,23.60156 l 15.625,-15.625 a 16,16 0 0 1 -3.289064,-7.97656 z m 53.843752,0 a 16,16 0 0 1 -3.3125,7.96094 l 15.64062,15.64062 A 38.066914,38.066914 0 0 0 136,117.90625 Z M 88.132812,128.5625 72.492188,144.20312 A 38.066914,38.066914 0 0 0 96.093752,154 v -22.125 a 16,16 0 0 1 -7.96094,-3.3125 z m 19.749998,0.0156 a 16,16 0 0 1 -7.976562,3.28906 v 22.10157 a 38.066914,38.066914 0 0 0 23.601562,-9.76563 z"/>
  <g transform="scale(4)">
    <path style="fill:#ffffff" d="m 24.976562,19 v 5.53125 a 4,4 0 0 1 1.990235,0.828125 l 3.910156,-3.910156 A 9.5167286,9.5167286 0 0 0 24.976562,19 Z m -0.953124,0.0078 a 9.5167286,9.5167286 0 0 0 -5.900391,2.441407 l 3.90625,3.90625 a 4,4 0 0 1 1.994141,-0.822266 z m -6.574219,3.115235 A 9.5167286,9.5167286 0 0 0 15,28.023438 h 5.53125 a 4,4 0 0 1 0.828125,-1.990235 z m 14.101562,0 -3.90625,3.90625 a 4,4 0 0 1 0.822266,1.994141 h 5.525391 A 9.5167286,9.5167286 0 0 0 31.550781,22.123035 Z M 15.007812,28.97655 a 9.5167286,9.5167286 0 0 0 2.441407,5.900391 l 3.90625,-3.90625 A 4,4 0 0 1 20.533203,28.97655 Z m 13.460938,0 a 4,4 0 0 1 -0.828125,1.990235 l 3.910156,3.910156 A 9.5167286,9.5167286 0 0 0 34,28.976562 Z m -6.435547,2.664063 -3.910156,3.910156 A 9.5167286,9.5167286 0 0 0 24.023438,38 v -5.53125 a 4,4 0 0 1 -1.990235,-0.828125 z m 4.9375,0.0039 a 4,4 0 0 1 -1.994141,0.822266 v 5.525391 a 9.5167286,9.5167286 0 0 0 5.900391,-2.441407 z"/>
    <path style="fill:#ffffff" d="m 15,9 v 9.300781 l 7.029297,7.056641 A 4,4 0 0 1 24,24.537109 V 17 Z"/>
    <path style="fill:#ffffff" d="M 15,19.577327 21.326172,25.968673 20,27 18,28 h -3 z"/>
  </g>
</svg>
