<?xml version='1.0' encoding='utf-8'?>
<svg xmlns="http://www.w3.org/2000/svg" width="192" height="192" version="1" id="svg20">
  <defs>
    <filter style="color-interpolation-filters:sRGB" id="filter861" x="-0.048000001" y="-0.048000001" width="1.096" height="1.096">
      <feGaussianBlur stdDeviation="3.2"/>
    </filter>
    <filter style="color-interpolation-filters:sRGB" id="filter868" x="-0.050086955" y="-0.046079999" width="1.1001739" height="1.09216">
      <feGaussianBlur stdDeviation="1.92"/>
    </filter>
    <filter style="color-interpolation-filters:sRGB" id="filter872" x="-0.15072253" y="-0.12384717" width="1.2908942" height="1.2801945">
      <feGaussianBlur stdDeviation="1.44"/>
    </filter>
  </defs>
  <rect style="filter:url(#filter861);opacity:0.2" width="160" height="160" x="16" y="20" rx="80" ry="80"/>
  <rect style="fill:#56b366" width="160" height="160" x="16" y="16" rx="80" ry="80"/>
  <path style="opacity:0.2;fill:#ffffff" d="M 96 16 C 51.68 16 16 51.68 16 96 C 16 96.173773 16.008399 96.344911 16.011719 96.517578 C 16.270957 52.42262 51.84182 17 96 17 C 140.15818 17 175.72904 52.42262 175.98828 96.517578 C 175.9916 96.344911 176 96.173773 176 96 C 176 51.68 140.32 16 96 16 z "/>
  <path style="filter:url(#filter872);opacity:0.2;fill:none;stroke:#000000;stroke-width:8" d="m 100,138.0016 -44,-55.999994 68,-20 z"/>
  <path style="fill:none;stroke:#ffffff;stroke-width:8" d="M 100,136 56,80 124,60 Z"/>
  <path style="filter:url(#filter868);opacity:0.2" d="M 124,52 A 12,12 0 0 0 112,64 12,12 0 0 0 124,76 12,12 0 0 0 136,64 12,12 0 0 0 124,52 Z M 56,72 A 12,12 0 0 0 44,84 12,12 0 0 0 56,96 12,12 0 0 0 68,84 12,12 0 0 0 56,72 Z m 44,56 a 12,12 0 0 0 -12,12 12,12 0 0 0 12,12 12,12 0 0 0 12,-12 12,12 0 0 0 -12,-12 z"/>
  <circle style="fill:#ffffff" cx="56" cy="80" r="12"/>
  <circle style="fill:#ffffff" cx="124" cy="60" r="12"/>
  <circle style="fill:#ffffff" cx="100" cy="136" r="12"/>
</svg>
