<?xml version='1.0' encoding='utf-8'?>
<svg xmlns="http://www.w3.org/2000/svg" width="192" height="192" version="1" id="svg10">
  <defs>
    <filter style="color-interpolation-filters:sRGB" id="filter1556" x="0.05" y="0.05" width="1.10" height="1.10">
      <feGaussianBlur stdDeviation="3.39"/>
    </filter>
  </defs>
  <path style="fill:#0088d1" d="M 84.12 18.01 C 82.76 17.98 81.38 18.12 80.01 18.46 L 80.01 18.46 C 74.44 19.84 70.22 24.20 69.10 29.64 L 69.10 29.64 L 61.71 65.77 L 26.98 80.32 C 21.25 82.73 18.30 87.69 18.02 92.83 C 17.75 97.98 20.15 103.20 25.58 106.17 L 25.59 106.17 L 58.57 124.18 L 62.04 160.87 L 62.04 160.87 C 63.17 172.88 77.83 178.38 86.98 170.15 L 114.75 145.18 L 151.59 153.29 L 151.59 153.29 C 163.79 155.97 173.60 144.14 168.41 133.17 L 152.57 99.69 L 171.92 68.01 C 175.09 62.81 174.50 57.14 171.61 52.80 C 168.72 48.47 163.57 45.59 157.37 46.30 L 119.84 50.61 L 94.92 22.94 C 92.15 19.87 88.21 18.12 84.12 18.01 z "/>
  <path fill="#e4e4e4" d="M 82.87,20.03 A 16.89,16.45 0 0 0 79.53,20.52 16.89,16.45 0 0 0 67.15,33.23 L 59.96,68.34 26.21,82.48 a 16.89,16.45 0 0 0 -1.59,29.45 l 32.05,17.49 3.37,35.63 a 16.89,16.45 0 0 0 28.27,10.58 l 27.01,-24.29 35.83,7.89 a 16.89,16.45 0 0 0 19.06,-22.94 L 154.84,103.81 173.63,73.05 A 16.89,16.45 0 0 0 157.13,48.31 L 120.63,52.50 96.40,25.60 A 16.89,16.45 0 0 0 82.87,20.03 Z m 0.52,16.02 a 16.00,16.00 0 0 0 0.01,0 c 0.48,0.12 0.95,0.08 1.12,0.27 l 24.23,26.90 a 16.00,16.00 0 0 0 13.71,5.19 l 36.50,-4.20 c 1.03,0.12 0.84,0.11 1.00,0.36 0.04,0.06 0.08,0.06 0.11,0.04 0.03,0.02 0.01,0.05 0.10,0.10 l -18.78,30.75 a 16.00,16.00 0 0 0 0.80,15.18 l 15.37,32.50 a 16.00,16.00 0 0 0 0,0.01 c 0.54,1.14 0.84,0.89 -1.16,0.45 l -35.83,-7.88 a 16.00,16.00 0 0 0 -14.14,3.72 l -27.00,24.29 c -1.21,1.09 -1.54,0.89 -1.65,0.19 a 16.00,16.00 0 0 0 0,0.01 L 72.61,127.92 A 16.00,16.00 0 0 0 64.34,115.38 L 32.30,97.89 c 0.81,0.44 0.31,0.14 0.30,0.30 0.01,0.16 0.43,0.00 0.39,0.34 l 0.01,0.01 33.74,-14.14 a 16.00,16.00 0 0 0 9.49,-11.55 l 7.19,-35.09 c 0.01,0.06 0.08,0.28 0.57,0.41 z" style="filter:url(#filter1556);opacity:0.20;fill:#000000"/>
  <path fill="#e4e4e4" d="M 82.87,16.03 A 16.89,16.45 0 0 0 79.53,16.52 16.89,16.45 0 0 0 67.15,29.23 L 59.96,64.34 26.21,78.48 a 16.89,16.45 0 0 0 -1.59,29.45 l 32.05,17.49 3.37,35.63 a 16.89,16.45 0 0 0 28.27,10.58 l 27.01,-24.29 35.83,7.89 a 16.89,16.45 0 0 0 19.06,-22.94 L 154.84,99.81 173.63,69.05 A 16.89,16.45 0 0 0 157.13,44.31 L 120.63,48.50 96.40,21.60 A 16.89,16.45 0 0 0 82.87,16.03 Z m 0.52,16.02 a 16.00,16.00 0 0 0 0.01,0 c 0.48,0.12 0.95,0.08 1.12,0.27 l 24.23,26.90 a 16.00,16.00 0 0 0 13.71,5.19 l 36.50,-4.20 c 1.03,0.12 0.84,0.11 1.00,0.36 0.04,0.06 0.08,0.06 0.11,0.04 0.03,0.02 0.01,0.05 0.10,0.10 L 141.18,91.47 a 16.00,16.00 0 0 0 0.80,15.18 l 15.37,32.50 a 16.00,16.00 0 0 0 0,0.01 c 0.54,1.14 0.84,0.89 -1.16,0.45 l -35.83,-7.88 a 16.00,16.00 0 0 0 -14.14,3.72 l -27.00,24.29 c -1.21,1.09 -1.54,0.89 -1.65,0.19 a 16.00,16.00 0 0 0 0,0.01 L 72.61,123.92 A 16.00,16.00 0 0 0 64.34,111.38 L 32.30,93.89 c 0.81,0.44 0.31,0.14 0.30,0.30 0.01,0.16 0.43,0.00 0.39,0.34 l 0.01,0.01 33.74,-14.14 A 16.00,16.00 0 0 0 75.63,67.54 L 82.82,32.45 c 0.01,0.06 0.08,0.28 0.57,0.41 z"/>
  <path style="opacity:0.20;fill:#ffffff" d="M 82.87 16.03 A 16.89 16.45 0 0 0 79.53 16.52 A 16.89 16.45 0 0 0 67.15 29.23 L 59.96 64.34 L 26.21 78.48 A 16.89 16.45 0 0 0 16.14 95.63 A 16.89 16.45 0 0 1 16.14 95.61 A 16.89 16.45 0 0 1 26.21 79.48 L 59.96 65.34 L 67.15 30.23 A 16.89 16.45 0 0 1 79.53 17.52 A 16.89 16.45 0 0 1 82.87 17.03 A 16.89 16.45 0 0 1 96.40 22.60 L 120.63 49.50 L 157.13 45.31 A 16.89 16.45 0 0 1 175.96 61.18 A 16.89 16.45 0 0 0 157.13 44.31 L 120.63 48.50 L 96.40 21.60 A 16.89 16.45 0 0 0 82.87 16.03 z M 155.91 102.07 L 154.84 103.81 L 155.11 104.37 L 155.91 103.07 L 170.21 133.30 A 16.89 16.45 0 0 1 171.75 139.68 A 16.89 16.45 0 0 0 170.21 132.30 L 155.91 102.07 z "/>
</svg>
