<?xml version='1.0' encoding='utf-8'?>
<svg xmlns="http://www.w3.org/2000/svg" width="192" height="192" version="1" id="svg28">
  <defs>
    <filter style="color-interpolation-filters:sRGB" id="filter6495" x="0.05" y="0.05" width="1.10" height="1.10">
      <feGaussianBlur stdDeviation="3.20"/>
    </filter>
    <filter style="color-interpolation-filters:sRGB" id="filter2080" x="0.09" y="0.13" width="1.19" height="1.25">
      <feGaussianBlur stdDeviation="2.88"/>
    </filter>
  </defs>
  <rect transform="matrix(0,-1,-1,0,0,0)" ry="12" rx="12" y="-176" x="-180" height="160" width="160" style="filter:url(#filter6495);opacity:0.20;fill:#000000"/>
  <rect transform="matrix(0,-1,-1,0,0,0)" ry="12" rx="12" y="-176" x="-176" height="160" width="160" style="fill:#1a9aef"/>
  <path style="opacity:0.20;fill:#ffffff" d="m 28,16 c -6.65,0 -12,5.35 -12,12 v 1 c 0,-6.65 5.35,-12 12,-12 h 136 c 6.65,0 12,5.35 12,12 v -1 c 0,-6.65 -5.35,-12 -12,-12 z"/>
  <path style="filter:url(#filter2080);opacity:0.20;fill:#000000;color:#000000" d="M 100.49,100.61 66.44,135.54 47.45,116.55 37.55,126.45 66.56,155.46 110.51,110.39 Z"/>
  <path style="fill:#ffffff;color:#000000" d="M 100.49,98.61 66.44,133.54 47.45,114.55 37.55,124.45 66.56,153.46 110.51,108.39 Z"/>
</svg>
