<?xml version='1.0' encoding='utf-8'?>
<svg xmlns="http://www.w3.org/2000/svg" width="192" height="192" version="1" id="svg26">
  <defs>
    <filter style="color-interpolation-filters:sRGB" id="filter873" x="0.04" y="0.07" width="1.08" height="1.13">
      <feGaussianBlur stdDeviation="2.64"/>
    </filter>
    <filter style="color-interpolation-filters:sRGB" id="filter885" x="0.04" y="0.07" width="1.08" height="1.13">
      <feGaussianBlur stdDeviation="1.52"/>
    </filter>
  </defs>
  <path style="filter:url(#filter873);opacity:0.20" d="m 180,118 c 0,36 -24,60 -60,60 H 96 C 60,178 38.88,159.21 36.49,130 H 30 C 12,130 12,112 12,112 V 100 C 12,82 30,82 30,82 h 6 144 z M 30,94 c -6,0.39 -6.19,6.38 -6.19,6.38 v 12 C 23.81,118 30,118 30,118 h 6 L 35.88,94.19 Z"/>
  <path style="fill:#e4e4e4" d="m 180,114 c 0,36 -24,60 -60,60 H 96 C 60,174 38.88,155.21 36.49,126 H 30 C 12,126 12,108 12,108 V 96 C 12,78 30,78 30,78 h 6 144 z M 30,90 c -6,0.39 -6.19,6.38 -6.19,6.38 v 12 C 23.81,114 30,114 30,114 h 6 L 35.88,90.19 Z"/>
  <path style="opacity:0.40;fill:#ffffff" d="M 30 78 C 30 78 12 78 12 96 L 12 97 C 12 79 30 79 30 79 L 36 79 L 180 79 L 180 78 L 36 78 L 30 78 z M 23.81 108.38 L 23.81 109.38 C 23.81 115 30 115 30 115 L 35.98 115 L 35.99 118 L 36 118 L 35.98 114 L 30 114 C 30 114 23.81 114 23.81 108.38 z "/>
  <path style="filter:url(#filter885);opacity:0.20" d="M 74.32 22 C 61.14 34.92 57.18 41.28 61.93 49.51 C 66.24 56.96 77.39 60.76 71.79 78 C 80.98 69.60 88.30 58.93 81.07 50.33 C 73.73 41.58 69.70 36.26 74.32 22 z M 110.32 22 C 97.14 34.92 93.18 41.28 97.93 49.51 C 102.24 56.96 113.39 60.76 107.79 78 C 116.98 69.60 124.30 58.93 117.07 50.33 C 109.73 41.58 105.70 36.26 110.32 22 z M 146.32 22 C 133.14 34.92 129.18 41.28 133.93 49.51 C 138.24 56.96 149.39 60.76 143.79 78 C 152.98 69.60 160.30 58.93 153.07 50.33 C 145.73 41.58 141.70 36.26 146.32 22 z "/>
  <path style="fill:#956b5f" d="M 110.32,18 C 97.14,30.92 93.18,37.28 97.93,45.51 102.24,52.96 113.39,56.76 107.79,74 c 9.20,-8.40 16.51,-19.07 9.29,-27.67 C 109.73,37.58 105.70,32.26 110.32,18 Z"/>
  <path style="fill:#956b5f" d="m 74.32,18 c -13.18,12.92 -17.14,19.28 -12.39,27.51 4.31,7.45 15.45,11.26 9.85,28.49 9.20,-8.40 16.51,-19.07 9.29,-27.67 C 73.73,37.58 69.70,32.26 74.32,18 Z"/>
  <path style="fill:#956b5f" d="m 146.32,18 c -13.18,12.92 -17.14,19.28 -12.39,27.51 4.31,7.45 15.45,11.26 9.85,28.49 9.20,-8.40 16.51,-19.07 9.29,-27.67 C 145.73,37.58 141.70,32.26 146.32,18 Z"/>
  <path style="opacity:0.10;fill:#ffffff" d="M 74.32 18 C 64.46 27.66 59.78 33.66 60.03 39.51 C 60.32 34.05 64.90 28.28 73.91 19.41 C 74.05 18.94 74.16 18.49 74.32 18 z M 110.32 18 C 100.46 27.66 95.78 33.66 96.03 39.51 C 96.32 34.05 100.90 28.28 109.91 19.41 C 110.05 18.94 110.16 18.49 110.32 18 z M 146.32 18 C 136.46 27.66 131.78 33.66 132.03 39.51 C 132.32 34.05 136.90 28.28 145.91 19.41 C 146.05 18.94 146.16 18.49 146.32 18 z M 72.48 30.55 C 72.42 31.37 72.40 32.14 72.41 32.89 C 72.42 32.45 72.45 32.01 72.48 31.55 C 73.09 37.55 76.40 41.75 81.08 47.33 C 82.97 49.58 83.84 51.97 83.96 54.43 C 84.05 51.62 83.22 48.88 81.08 46.33 C 76.40 40.75 73.09 36.55 72.48 30.55 z M 108.48 30.55 C 108.42 31.37 108.40 32.14 108.41 32.89 C 108.42 32.45 108.45 32.01 108.48 31.55 C 109.09 37.55 112.40 41.75 117.08 47.33 C 118.97 49.58 119.84 51.97 119.96 54.43 C 120.05 51.62 119.22 48.88 117.08 46.33 C 112.40 40.75 109.09 36.55 108.48 30.55 z M 144.48 30.55 C 144.42 31.37 144.40 32.14 144.41 32.89 C 144.42 32.45 144.45 32.01 144.48 31.55 C 145.09 37.55 148.40 41.75 153.08 47.33 C 154.97 49.58 155.84 51.97 155.96 54.43 C 156.05 51.62 155.22 48.88 153.08 46.33 C 148.40 40.75 145.09 36.55 144.48 30.55 z M 73.21 67.27 C 73.03 69.27 72.61 71.48 71.79 74 C 71.93 73.87 72.07 73.73 72.21 73.59 C 72.75 71.65 73.07 69.89 73.21 68.27 C 73.27 68.79 73.29 69.34 73.30 69.90 C 73.34 68.97 73.31 68.10 73.21 67.27 z M 109.21 67.27 C 109.03 69.27 108.61 71.48 107.79 74 C 107.93 73.87 108.07 73.73 108.21 73.59 C 108.75 71.65 109.07 69.89 109.21 68.27 C 109.27 68.79 109.29 69.34 109.30 69.90 C 109.34 68.97 109.31 68.10 109.21 67.27 z M 145.21 67.27 C 145.03 69.27 144.61 71.48 143.79 74 C 143.93 73.87 144.07 73.73 144.21 73.59 C 144.75 71.65 145.07 69.89 145.21 68.27 C 145.27 68.79 145.29 69.34 145.30 69.90 C 145.34 68.97 145.31 68.10 145.21 67.27 z "/>
</svg>
