<?xml version='1.0' encoding='utf-8'?>
<svg xmlns="http://www.w3.org/2000/svg" width="192" height="192" version="1" id="svg16">
  <defs>
    <filter style="color-interpolation-filters:sRGB" id="filter853" x="0.04" y="0.06" width="1.08" height="1.12">
      <feGaussianBlur stdDeviation="2.64"/>
    </filter>
    <filter style="color-interpolation-filters:sRGB" id="filter1355" x="0.03" y="0.08" width="1.07" height="1.16">
      <feGaussianBlur stdDeviation="2.27"/>
    </filter>
  </defs>
  <rect style="filter:url(#filter853);opacity:0.20" width="160" height="104" x="16" y="68" rx="8" ry="8"/>
  <path style="fill:#4877b1" d="m 16,136 c 0,4.43 3.57,8 8,8 h 144 c 4.43,0 8,-3.57 8,-8 V 48 c 0,-4.43 -3.57,-8 -8,-8 H 96 C 84,40 80,24 68,24 H 24 c -4.43,0 -8,3.57 -8,8"/>
  <path style="filter:url(#filter1355);opacity:0.20" d="m 24,60 h 144 c 4.43,0 8,3.57 8,8 v 5.88 l -16.51,16.07 c -3.18,3.09 -3.32,36.17 -7.75,36.19 l -93.81,0.44 c -4.43,0.02 -9.32,-28.78 -13.14,-31.03 L 16,78.58 V 68 c 0,-4.43 3.57,-8 8,-8 z"/>
  <rect style="fill:#e4e4e4" width="144" height="64" x="24" y="52" rx="8" ry="8"/>
  <rect style="fill:#5294e2" width="160" height="104" x="16" y="64" rx="8" ry="8"/>
  <path style="opacity:0.10;fill:#ffffff" d="M 24 24 C 19.57 24 16 27.57 16 32 L 16 33 C 16 28.57 19.57 25 24 25 L 68 25 C 80 25 84 41 96 41 L 168 41 C 172.43 41 176 44.57 176 49 L 176 48 C 176 43.57 172.43 40 168 40 L 96 40 C 84 40 80 24 68 24 L 24 24 z "/>
  <path style="fill:#1d344f" d="m 96,88 c -8.86,0 -16,7.28 -16,16.25 V 112 h -4 c -2.22,0 -4,1.78 -4,4 v 24 c 0,2.22 1.78,4 4,4 h 40 c 2.22,0 4,-1.78 4,-4 v -24 c 0,-2.22 -1.78,-4 -4,-4 h -4 v -7.75 C 112,95.29 104.86,88 96,88 Z m 0,8 c 4.43,0 8,3.56 8,8 v 8 H 88 v -8 c 0,-4.44 3.57,-8 8,-8 z"/>
</svg>
