<?xml version='1.0' encoding='utf-8'?>
<svg xmlns="http://www.w3.org/2000/svg" width="192" height="192" version="1" id="svg14">
  <defs>
    <filter style="color-interpolation-filters:sRGB" id="filter850" x="-0.048000001" width="1.096" y="-0.048000001" height="1.096">
      <feGaussianBlur stdDeviation="3.2"/>
    </filter>
    <filter style="color-interpolation-filters:sRGB" id="filter6297" x="-0.05979678" y="-0.10056579" width="1.1195936" height="1.2011316">
      <feGaussianBlur stdDeviation="2.7656307"/>
    </filter>
  </defs>
  <circle style="filter:url(#filter850);opacity:0.2;fill:#000000" cx="96" cy="100" r="80"/>
  <circle r="80" cy="96" cx="96" style="fill:#e4e4e4"/>
  <path style="opacity:0.2;fill:#ffffff" d="M 96 16 A 80 80 0 0 0 16 96 A 80 80 0 0 0 16.019531 96.472656 A 80 80 0 0 1 96 17 A 80 80 0 0 1 175.97461 96.513672 A 80 80 0 0 0 176 96 A 80 80 0 0 0 96 16 z "/>
  <path style="fill:#315994;color:#000000" d="m 105.53079,68.082144 c -1.53231,0.212038 -3.53332,2.186593 -4.61723,3.290264 L 70.408203,98.310547 77.726562,72.939453 c -1.311797,-3.715017 -2.569072,-4.743427 -6.284266,-5.814286 -3.715017,-1.071476 -3.908081,0.07478 -4.97894,3.789974 l -3.609172,3.065483 -13.580747,47.079926 c -0.849368,2.94534 2.472613,1.76679 4.349031,3.40069 2.573358,2.24078 4.794148,1.71395 7.73779,-1.28735 L 93.296875,94.970703 86.240234,121.17969 c -1.005669,3.73336 1.852481,4.78985 5.586005,5.79491 3.733362,1.00567 6.928469,1.57924 7.933527,-2.15429 L 113.75977,72.820312 c -1.43857,-4.840814 -3.26381,-5.427025 -8.22898,-4.738168 z"/>
  <path style="filter:url(#filter6297);opacity:0.2;fill:#000000;color:#000000" d="m 106.93164,65.998642 a 7,7 0 0 0 -4.92969,2.097656 L 51.001953,120.0963 a 7,7 0 0 0 0.0957,9.90039 7,7 0 0 0 9.900391,-0.0957 L 111.99805,77.900986 a 7,7 0 0 0 -0.0957,-9.900391 7,7 0 0 0 -4.9707,-2.001953 z m 34.23633,0 -53.160158,54.093748 a 7,7 0 0 0 0.08594,9.89844 7,7 0 0 0 9.898438,-0.0859 L 151,75.967392 v -9.96875 z m -70.019532,0.002 a 7,7 0 0 0 -4.992188,1.943359 l -24,23 a 7,7 0 0 0 -0.210938,9.898436 7,7 0 0 0 9.898438,0.21094 l 24,-23 a 7,7 0 0 0 0.210938,-9.898438 7,7 0 0 0 -4.90625,-2.154297 z"/>
  <path style="fill:#3c81fb;color:#000000" d="M 141.16797 64 L 88.007812 118.09375 A 7 7 0 0 0 88.09375 127.99219 A 7 7 0 0 0 97.992188 127.90625 L 151 73.96875 L 151 64 L 141.16797 64 z "/>
  <path style="fill:#34b8fb;color:#000000" d="m 106.93164,64 a 7,7 0 0 0 -4.92969,2.097656 L 51.001953,118.09766 a 7,7 0 0 0 0.0957,9.90039 7,7 0 0 0 9.900391,-0.0957 L 111.99805,75.902344 A 7,7 0 0 0 111.90234,66.001953 7,7 0 0 0 106.93164,64 Z"/>
  <path style="fill:#18dde7;color:#000000" d="m 71.148437,64.001953 a 7,7 0 0 0 -4.992187,1.943359 l -24,23 a 7,7 0 0 0 -0.210938,9.898438 7,7 0 0 0 9.898438,0.210937 l 24,-23 a 7,7 0 0 0 0.210937,-9.898437 7,7 0 0 0 -4.90625,-2.154297 z"/>
</svg>
