<?xml version='1.0' encoding='utf-8'?>
<svg xmlns="http://www.w3.org/2000/svg" width="192" height="192" version="1" id="svg12">
  <defs>
    <filter style="color-interpolation-filters:sRGB" id="filter845" x="-0.048000001" y="-0.048000001" width="1.096" height="1.096">
      <feGaussianBlur stdDeviation="3.2"/>
    </filter>
    <filter style="color-interpolation-filters:sRGB" id="filter849" x="-0.046310101" y="-0.049872417" width="1.0926202" height="1.0997448">
      <feGaussianBlur stdDeviation="2.1611381"/>
    </filter>
  </defs>
  <rect style="filter:url(#filter845);opacity:0.2" width="160" height="160" x="16" y="20" rx="48" ry="48"/>
  <rect style="fill:#4c459c" width="160" height="160" x="16" y="16" rx="48" ry="48"/>
  <path style="opacity:0.1;fill:#ffffff" d="M 64 16 C 37.408 16 16 37.408 16 64 L 16 65 C 16 38.408 37.408 17 64 17 L 128 17 C 154.592 17 176 38.408 176 65 L 176 64 C 176 37.408 154.592 16 128 16 L 64 16 z "/>
  <path style="filter:url(#filter849);opacity:0.2" d="m 136,48 a 12,12 0 0 0 -12,12 12,12 0 0 0 0.78125,4.25 L 107.4375,85.445312 A 20,20 0 0 0 100,84 20,20 0 0 0 80.0625,102.8125 l -29.773436,4.25 A 8,8 0 0 0 44,104 a 8,8 0 0 0 -8,8 8,8 0 0 0 8,8 8,8 0 0 0 7.414064,-5.01562 l 29.773436,-4.25 A 20,20 0 0 0 100,124 20,20 0 0 0 120,104 20,20 0 0 0 116.71875,93.039064 l 17.35156,-21.21094 A 12,12 0 0 0 136,72 12,12 0 0 0 148,60 12,12 0 0 0 136,48 Z m -64,8 a 8,8 0 0 0 -8,8 8,8 0 0 0 8,8 8,8 0 0 0 8,-8 8,8 0 0 0 -8,-8 z m 64,0 a 4,4 0 0 1 4,4 4,4 0 0 1 -4,4 4,4 0 0 1 -4,-4 4,4 0 0 1 4,-4 z m -55.617188,14.742188 -4.828124,3.570312 3.234376,4.617188 4.828124,-3.570312 z m 4.83594,6.91406 -4.828128,3.570316 4.257812,6.085936 4.83594,-3.570312 z M 100,92 a 12,12 0 0 1 12,12 12,12 0 0 1 -12,12 12,12 0 0 1 -12,-12 12,12 0 0 1 12,-12 z m -56,16 a 4,4 0 0 1 4,4 4,4 0 0 1 -4,4 4,4 0 0 1 -4,-4 4,4 0 0 1 4,-4 z m 73.89062,9.64062 -4.25,4.25 5.48438,5.48438 4.25,-4.25 z m -29.132808,6.375 -3.953124,9.88282 5.671876,1.99218 3.953124,-9.88281 z m 36.593748,1.08594 -4.25,4.25 6.34375,6.34375 4.25,-4.25 z M 138,132 a 10,10 0 0 0 -10,10 10,10 0 0 0 10,10 10,10 0 0 0 10,-10 10,10 0 0 0 -10,-10 z m -54,4 a 8,8 0 0 0 -8,8 8,8 0 0 0 8,8 8,8 0 0 0 8,-8 8,8 0 0 0 -8,-8 z"/>
  <path style="fill:#ffffff" d="m 136,44 a 12,12 0 0 0 -12,12 12,12 0 0 0 0.78125,4.25 L 107.4375,81.445312 A 20,20 0 0 0 100,80 20,20 0 0 0 80.0625,98.8125 l -29.773436,4.25 A 8,8 0 0 0 44,100 a 8,8 0 0 0 -8,8 8,8 0 0 0 8,8 8,8 0 0 0 7.414064,-5.01562 l 29.773436,-4.25 A 20,20 0 0 0 100,120 20,20 0 0 0 120,100 20,20 0 0 0 116.71875,89.039064 l 17.35156,-21.21094 A 12,12 0 0 0 136,68 12,12 0 0 0 148,56 12,12 0 0 0 136,44 Z m -64,8 a 8,8 0 0 0 -8,8 8,8 0 0 0 8,8 8,8 0 0 0 8,-8 8,8 0 0 0 -8,-8 z m 64,0 a 4,4 0 0 1 4,4 4,4 0 0 1 -4,4 4,4 0 0 1 -4,-4 4,4 0 0 1 4,-4 z m -55.617188,14.742188 -4.828124,3.570312 3.234376,4.617188 4.828124,-3.570312 z m 4.83594,6.91406 -4.828128,3.570316 4.257812,6.085936 4.83594,-3.570312 z M 100,88 a 12,12 0 0 1 12,12 12,12 0 0 1 -12,12 12,12 0 0 1 -12,-12 12,12 0 0 1 12,-12 z m -56,16 a 4,4 0 0 1 4,4 4,4 0 0 1 -4,4 4,4 0 0 1 -4,-4 4,4 0 0 1 4,-4 z m 73.89062,9.64062 -4.25,4.25 5.48438,5.48438 4.25,-4.25 z m -29.132808,6.375 -3.953124,9.88282 5.671876,1.99218 3.953124,-9.88281 z m 36.593748,1.08594 -4.25,4.25 6.34375,6.34375 4.25,-4.25 z M 138,128 a 10,10 0 0 0 -10,10 10,10 0 0 0 10,10 10,10 0 0 0 10,-10 10,10 0 0 0 -10,-10 z m -54,4 a 8,8 0 0 0 -8,8 8,8 0 0 0 8,8 8,8 0 0 0 8,-8 8,8 0 0 0 -8,-8 z"/>
</svg>
