<?xml version='1.0' encoding='utf-8'?>
<svg xmlns="http://www.w3.org/2000/svg" width="192" height="192" version="1" id="svg14">
  <defs>
    <filter style="color-interpolation-filters:sRGB" id="filter850" x="-0.048000001" width="1.096" y="-0.048000001" height="1.096">
      <feGaussianBlur stdDeviation="3.2"/>
    </filter>
    <filter style="color-interpolation-filters:sRGB" id="filter19301" x="-0.048080633" y="-2.4005699" width="1.0961613" height="5.8011399">
      <feGaussianBlur stdDeviation="3.2019322"/>
    </filter>
  </defs>
  <circle style="filter:url(#filter850);opacity:0.2;fill:#000000" cx="96" cy="100" r="80"/>
  <path style="fill:#ad2f30" d="m 176,96 c 0,1.020042 -0.0191,2.035625 -0.0569,3.046412 -1.60134,42.771088 -37.49329,35.753768 -80.656025,35.753768 -43.458584,0 -78.110643,6.54713 -79.258298,-36.634454 C 16.009623,97.446145 16,96.724196 16,96 16,51.81722 51.81722,16 96,16 c 44.18278,0 80,35.81722 80,80 z"/>
  <path style="opacity:0.1;fill:#ffffff" d="M 96 16 A 80 80 0 0 0 16 96 A 80 80 0 0 0 16.019531 96.472656 A 80 80 0 0 1 96 17 A 80 80 0 0 1 175.97461 96.513672 A 80 80 0 0 0 176 96 A 80 80 0 0 0 96 16 z "/>
  <circle style="fill:#ffffff" cx="96" cy="96" r="42"/>
  <path style="filter:url(#filter19301);opacity:0.2;fill:#000000" d="M 96 96 C 69.224836 96 38.473796 96.643439 16.085938 97.205078 A 80 80 0 0 0 16.246094 99.201172 C 38.621332 98.640414 69.283851 98 96 98 C 122.71615 98 153.37867 98.640414 175.75391 99.201172 A 80 80 0 0 0 175.91406 97.205078 C 153.5262 96.643439 122.77517 96 96 96 z "/>
  <path style="fill:#dd393a" d="M 96 96 C 69.224836 96 38.473796 96.643439 16.085938 97.205078 A 80 80 0 0 0 96 176 A 80 80 0 0 0 175.91406 97.205078 C 153.5262 96.643439 122.77517 96 96 96 z "/>
</svg>
