<svg xmlns="http://www.w3.org/2000/svg" id="svg26" width="192" height="192" version="1"><defs><filter style="color-interpolation-filters:sRGB" id="filter883" width="1.1" height="1.1" x=".05" y=".05"><feGaussianBlur stdDeviation="3.2"/></filter><filter style="color-interpolation-filters:sRGB" id="filter902" width="1.13" height="1.08" x=".07" y=".04"><feGaussianBlur stdDeviation=".38"/></filter></defs><rect width="160" height="160" x="16" y="20" rx="8" ry="8" style="filter:url(#filter883);opacity:.2;fill:#000"/><rect style="fill:#ec8c38" width="160" height="160" x="16" y="16" rx="8" ry="8"/><path style="opacity:.2;fill:#fff" d="M 176,168 V 24 c 0,-4.43 -3.57,-8 -8,-8 H 96 v 160 h 72 c 4.43,0 8,-3.57 8,-8 z"/><path style="opacity:.2;fill:#fff" d="M 24 16 C 19.57 16 16 19.57 16 24 L 16 25 C 16 20.57 19.57 17 24 17 L 168 17 C 172.43 17 176 20.57 176 25 L 176 24 C 176 19.57 172.43 16 168 16 L 24 16 z"/><g style="filter:url(#filter902);opacity:.2" transform="matrix(4,0,0,-4,0,210)"><path d="m 14,26 a 7,7 0 0 0 -7,7 7,7 0 0 0 7,7 7,7 0 0 0 7,-7 7,7 0 0 0 -7,-7 z m 0,4 a 3,3 0 0 1 3,3 3,3 0 0 1 -3,3 3,3 0 0 1 -3,-3 3,3 0 0 1 3,-3 z"/><rect width="4" height="14" x="12" y="16"/><rect width="4" height="4" x="16" y="19"/></g><g style="fill:#ffef78" transform="matrix(4,0,0,-4,0,208)"><path style="fill:#ffef78" d="m 14,26 a 7,7 0 0 0 -7,7 7,7 0 0 0 7,7 7,7 0 0 0 7,-7 7,7 0 0 0 -7,-7 z m 0,4 a 3,3 0 0 1 3,3 3,3 0 0 1 -3,3 3,3 0 0 1 -3,-3 3,3 0 0 1 3,-3 z"/><rect style="fill:#ffef78" width="4" height="14" x="12" y="16"/><rect style="fill:#ffef78" width="4" height="4" x="16" y="19"/></g></svg>