<?xml version='1.0' encoding='utf-8'?>
<svg xmlns="http://www.w3.org/2000/svg" width="192" height="192" version="1" id="svg28">
  <defs>
    <filter style="color-interpolation-filters:sRGB" id="filter11109" x="0.04" y="0.05" width="1.09" height="1.10">
      <feGaussianBlur stdDeviation="3.00"/>
    </filter>
  </defs>
  <path style="filter:url(#filter11109);opacity:0.20;fill:#000000;color:#000000" d="m 73.92,30 c -1.03,0.00 -1.99,0.55 -2.51,1.45 L 49.39,69.54 C 48.27,71.46 49.67,74.00 51.89,74 h 42.43 l 21.21,36.55 c 1.11,1.93 3.90,1.93 5.02,0.00 l 22.06,-38.11 c 0.52,0.89 0.52,-1.99 0,-2.89 L 120.55,31.45 C 120.04,30.55 119.08,30.00 118.04,30 Z M 40.97,88 a 2.90,2.89 0 0 0 -2.51,1.44 l -21.86,37.76 0.25,0.25 a 2.90,2.89 0 0 0 0.46,3.49 l 22.07,38.12 A 2.90,2.89 0 0 0 40.97,170 h 44.12 0.02 a 2.90,2.89 0 0 0 2.51,-4.33 L 66.40,128.99 87.60,92.33 A 2.90,2.89 0 0 0 85.09,88 Z m 110.08,0 c -1.03,0.00 -1.99,0.55 -2.51,1.44 L 127.34,126 H 84.89 c -2.23,0.00 -3.62,2.51 -2.51,4.44 l 22.04,38.12 c 0.52,0.89 1.47,1.45 2.51,1.45 h 44.12 c 1.03,0.00 1.99,0.55 2.51,-1.44 l 22.06,-38.10 c 0.52,0.89 0.52,-1.99 0,-2.89 L 153.56,89.44 C 153.04,88.55 152.09,88.00 151.05,88 Z"/>
  <path style="fill:#ef2e40;color:#000000" d="m 40.97,84 a 2.90,2.89 0 0 0 -2.51,1.44 l -21.86,37.76 0.25,0.25 a 2.90,2.89 0 0 0 0.46,3.49 l 22.07,38.12 A 2.90,2.89 0 0 0 40.97,166 h 44.12 0.02 a 2.90,2.89 0 0 0 2.51,-4.33 L 66.40,124.99 87.60,88.33 a 2.90,2.89 0 0 0 -2.51,-4.33 z"/>
  <path style="fill:#ef2e40;color:#000000" d="m 151.05,84 c -1.03,0.00 -1.99,0.55 -2.51,1.44 L 127.34,122 H 84.90 c -2.23,0.00 -3.62,2.51 -2.51,4.43 l 22.04,38.12 c 0.52,0.89 1.47,1.45 2.51,1.45 h 44.12 c 1.03,0.00 1.99,0.55 2.51,-1.44 l 22.06,-38.10 c 0.52,0.89 0.52,-1.99 0,-2.89 L 153.56,85.44 C 153.04,84.55 152.08,84.00 151.05,84 Z"/>
  <path style="fill:#ef2e40;color:#000000" d="m 73.92,26.00 c -1.03,0.00 -1.99,0.55 -2.51,1.44 L 49.39,65.54 C 48.27,67.46 49.67,70.00 51.90,70 H 94.33 l 21.21,36.55 c 1.11,1.93 3.90,1.93 5.02,0.00 l 22.06,-38.11 c 0.52,0.89 0.52,-2.00 0,-2.89 l -22.06,-38.11 c 0.52,0.89 -1.47,-1.44 -2.51,-1.44 z"/>
  <path style="fill:#d11923;color:#000000" d="M 16.04 125 A 2.90 2.89 0 0 0 16.39 126.44 L 38.46 164.56 A 2.90 2.89 0 0 0 40.97 166 L 85.09 166 L 85.10 166 A 2.90 2.89 0 0 0 87.61 161.67 L 66.41 125 L 16.04 125 z "/>
  <path style="fill:#d11923;color:#000000" d="m 151.05,84 c -1.03,0.00 -1.99,0.55 -2.51,1.44 L 127.34,122 h 0.03 l 25.22,43.59 c 0.42,0.25 0.78,0.60 1.03,-1.04 l 22.06,-38.10 c 0.52,0.89 0.52,-1.99 0,-2.89 L 153.56,85.44 C 153.04,84.55 152.09,84.00 151.05,84 Z"/>
  <path style="fill:#d11923;color:#000000" d="M 119.55,26.43 94.33,70.01 115.54,106.55 c 1.11,1.93 3.90,1.93 5.02,0.00 l 22.06,-38.11 c 0.52,0.89 0.52,-1.99 0,-2.89 l -22.06,-38.11 c 0.25,0.42 0.59,0.76 -1.00,-1.01 z"/>
  <path style="opacity:0.20;fill:#ffffff;color:#000000" d="M 73.92 26 C 72.89 26.00 71.93 26.55 71.42 27.45 L 49.39 65.54 C 49.03 66.16 48.95 66.85 49.06 67.50 C 49.12 67.17 49.21 66.85 49.39 66.54 L 71.42 28.45 C 71.93 27.55 72.89 27.00 73.92 27 L 118.04 27 C 119.08 27.00 120.04 27.55 120.55 28.45 L 142.61 66.55 C 142.78 66.85 142.88 67.17 142.93 67.50 C 143.05 66.84 142.96 66.15 142.61 65.55 L 120.55 27.45 C 120.04 26.55 119.08 26.00 118.04 26 L 73.92 26 z M 40.97 84 A 2.90 2.89 0 0 0 38.46 85.44 L 16.60 123.20 L 16.85 122.95 A 2.90 2.89 0 0 0 16.17 125.33 A 2.90 2.89 0 0 1 16.85 123.95 L 16.60 124.20 L 38.46 86.44 A 2.90 2.89 0 0 1 40.97 85 L 85.09 85 A 2.90 2.89 0 0 1 87.94 87.39 A 2.90 2.89 0 0 0 85.09 84 L 40.97 84 z M 151.05 84 C 150.02 84.00 149.06 84.55 148.54 85.44 L 127.34 122 L 84.89 122 C 83.02 122.00 81.76 123.78 82.06 125.49 C 82.29 124.15 83.39 123.00 84.89 123 L 127.34 123 L 148.54 86.44 C 149.06 85.55 150.02 85.00 151.05 85 C 152.09 85.00 153.04 85.55 153.56 86.44 L 175.61 124.56 C 175.78 124.86 175.88 125.18 175.94 125.51 C 176.05 124.85 175.96 124.16 175.61 123.56 L 153.56 85.44 C 153.04 84.55 152.09 84.00 151.05 84 z M 66.69 125.49 L 66.40 125.99 L 87.61 162.67 A 2.90 2.89 0 0 1 87.96 163.61 A 2.90 2.89 0 0 0 87.61 161.67 L 66.69 125.49 z "/>
</svg>
