<?xml version='1.0' encoding='utf-8'?>
<svg xmlns="http://www.w3.org/2000/svg" width="192" height="192" version="1.1" id="svg14">
  <defs>
    <filter style="color-interpolation-filters:sRGB" id="filter849" x="0.05" y="0.05" width="1.10" height="1.10">
      <feGaussianBlur stdDeviation="3.20"/>
    </filter>
    <filter style="color-interpolation-filters:sRGB" id="filter871" x="0.07" y="0.08" width="1.15" height="1.15">
      <feGaussianBlur stdDeviation="4.00"/>
    </filter>
  </defs>
  <path style="filter:url(#filter849);opacity:0.20" d="m 96.08,20.00 c -4.49,0.02 -8.87,1.34 -12.57,3.89 l -58.00,40 c -5.95,4.11 -9.51,10.88 -9.51,18.11 V 148 c 0,0 0.31,6.90 3.40,14.57 C 23.11,170.24 35.25,180 47.67,180 h 96.66 c 12.42,0 24.55,-9.76 28.26,-17.43 C 176.30,154.90 175.99,148 175.99,148 V 82.00 c 0.00,-7.23 -3.55,-14.00 -9.51,-18.11 l -58.00,-40 c -3.65,-2.52 -7.98,-3.87 -12.41,-3.89 z"/>
  <path style="fill:#e4e4e4" d="m 96.08,16.00 c -4.49,0.02 -8.87,1.34 -12.57,3.89 l -58.00,40 c -5.95,4.11 -9.51,10.88 -9.51,18.11 v 66.00 c 0,0 0.31,6.90 3.40,14.57 3.71,7.67 15.84,17.43 28.26,17.43 h 96.66 c 12.42,0 24.55,-9.76 28.26,-17.43 3.71,-7.67 3.40,-14.57 3.40,-14.57 V 78.00 c 0.00,-7.23 -3.55,-14.00 -9.51,-18.11 l -58.00,-40 c -3.65,-2.52 -7.98,-3.87 -12.41,-3.89 z"/>
  <path style="filter:url(#filter871);opacity:0.20" d="m 96.02,34.00 a 6.00,6.00 0 0 0 -3.43,1.06 L 34.59,75.06 a 6.00,6.00 0 0 0 -2.59,4.94 v 22.84 a 6.00,6.00 0 0 0 3.02,5.20 l 58,33.17 a 6.00,6.00 0 0 0 6.02,0.04 l 33.95,-19.97 0.05,0.02 a 6.00,6.00 0 0 0 0.01,0.01 6.00,6.00 0 0 0 0.10,0.07 A 6.00,6.00 0 0 0 136,114.90 V 98.08 c 0,-6.89 -4.28,-11.97 -8.11,-13.99 -3.83,-2.03 -7.52,-2.08 -7.52,-2.08 a 6.00,6.00 0 0 0 0.20,0.01 H 71.84 a 6.00,6.00 0 0 0 0.41,0.02 c 0,0 -3.33,0.16 -6.93,1.75 -1.80,0.79 -3.82,1.99 -5.54,4.03 -1.72,2.04 -2.95,5.03 -2.95,8.20 a 6.00,6.00 0 0 0 12,0 c 0,0.49 0.00,0.32 0.12,0.47 0.12,0.15 0.55,0.50 1.21,0.79 1.29,0.57 2.78,0.73 2.84,0.74 h 47.80 c 0.02,0.00 1.21,0.12 2.29,0.69 1.09,0.58 1.73,0.54 1.73,3.39 v 14.49 L 95.96,129.06 44.00,99.35 V 83.15 L 96,47.29 148,83.15 V 146 c 0,0 0.08,1.30 0.61,2.39 C 146.86,149.48 147.10,150 144.34,150 H 47.66 c -2.76,0 -2.53,0.52 -3.05,-1.61 C 44.08,147.30 44.00,146 44.00,146 v -22 a 6.00,6.00 0 0 0 -12,0 v 22 c 0,0 0.09,3.70 1.80,7.61 C 35.69,157.52 40.76,162 47.66,162 h 96.67 c 6.90,0 11.97,-4.48 13.86,-8.39 C 160.09,149.70 160,146 160,146 V 80.00 a 6.00,6.00 0 0 0 -2.59,-4.94 L 99.41,35.06 a 6.00,6.00 0 0 0 -3.38,-1.06 z"/>
  <path style="fill:none;stroke:#2f7abb;stroke-width:12.00;stroke-linecap:round;stroke-linejoin:round" d="m 38.00,122 v 22 c 0,0 0,10.00 9.67,10.00 h 96.67 c 9.67,0 9.67,-10.00 9.67,-10.00 V 78.00 L 96.00,38.00 38.00,78.00 V 100.83 L 96.00,134 130,114"/>
  <path style="fill:none;stroke:#ffa127;stroke-width:12.00;stroke-linecap:round;stroke-linejoin:round" d="M 130,114 V 96.08 c 0,-9.74 -9.83,-10.08 -9.83,-10.08 H 71.83 c 0,0 -9.83,0.68 -9.83,8"/>
  <path style="opacity:0.20;fill:#ffffff" d="M 96.08 16 C 91.59 15.98 87.20 17.34 83.51 19.89 L 25.52 59.89 C 19.56 64.00 16.01 70.77 16.01 78 L 16.01 79 C 16.01 71.77 19.56 65.00 25.52 60.89 L 83.51 20.89 C 87.20 18.34 91.59 16.98 96.08 17 C 100.51 17.02 104.84 18.37 108.49 20.89 L 166.48 60.89 C 172.44 65.00 175.99 71.77 175.99 79 L 175.99 78 C 175.99 70.77 172.44 64.00 166.48 59.89 L 108.49 19.89 C 104.84 17.37 100.51 16.02 96.08 16 z "/>
</svg>
