<?xml version='1.0' encoding='utf-8'?>
<svg xmlns="http://www.w3.org/2000/svg" width="192" height="192" version="1" id="svg28">
  <defs>
    <filter style="color-interpolation-filters:sRGB" id="filter2627" x="0.05" y="0.05" width="1.10" height="1.10">
      <feGaussianBlur stdDeviation="3.20"/>
    </filter>
    <filter style="color-interpolation-filters:sRGB" id="filter2631" x="0.04" y="0.06" width="1.08" height="1.12">
      <feGaussianBlur stdDeviation="1.95"/>
    </filter>
  </defs>
  <rect transform="matrix(0,-1,-1,0,0,0)" ry="24.00" rx="24.00" y="-176" x="-180" height="160" width="160" style="filter:url(#filter2627);opacity:0.20;fill:#000000"/>
  <rect transform="matrix(0,-1,-1,0,0,0)" ry="24.00" rx="24.00" y="-176" x="-176" height="160" width="160" style="fill:#03b6fb"/>
  <path style="filter:url(#filter2631);opacity:0.20;fill:#000000" d="m 80.31,135.79 c 5.02,0.71 10.06,-2.84 14.14,-5.98 1.26,0.97 1.70,0.93 3.01,0.23 3.17,2.80 6.80,4.62 10.99,5.52 2.16,0.46 6.25,0.57 8.60,0.23 6.82,0.99 12.61,-3.92 17.93,-9.08 2.16,-2.09 3.41,-3.55 4.76,-5.57 1.97,-2.94 3.40,-6.19 4.22,-9.60 0.47,-1.95 0.52,-2.30 2.69,-17.96 L 148,83.85 147.65,83.18 c 0.45,0.85 -1.35,-1.51 -2.58,-1.89 0.87,0.27 -1.43,0.30 -5.32,0.30 -3.99,0 -4.42,0.03 -5.29,0.32 -1.72,0.58 -3.17,1.88 -3.95,3.55 0.41,0.87 0.57,1.92 -2.05,12.69 0.88,6.42 -1.71,11.92 -1.84,12.47 0.86,3.66 -4.24,7.00 -7.96,7.87 -1.51,0.35 -4.70,0.25 -5.91,0.20 -2.28,0.83 -4.16,-2.92 -4.79,-5.31 0.40,-1.54 0.28,-3.06 0.74,-10.52 1.13,-8.20 1.13,-7.60 0.16,-9.20 0.33,0.41 0.89,0.82 -1.54,-1.14 -1.49,0.89 -3.32,0.53 -5.00,0.55 -2.62,0.03 -4.29,0.01 -4.89,0.13 -1.29,0.25 -2.49,0.91 -3.49,1.90 -1.53,1.53 -1.53,1.13 -2.73,9.55 -1.12,7.85 -1.36,8.74 -2.30,10.34 -1.16,1.97 -3.71,4.02 -5.94,4.78 -1.22,0.42 -4.34,0.58 -5.70,0.30 -2.58,0.53 -4.97,-2.73 -5.77,-5.30 0.59,-1.91 0.51,-2.60 1.85,-19.51 l 1.74,-12.48 c 0.25,-1.39 0.51,-2.65 0.17,-4.01 0.45,-1.80 -1.94,-3.75 -3.45,-4.52 0.40,0.20 -8.32,-3.51 -17.59,-7.34 -10.51,-4.34 -14.66,-6.09 -16.51,-6.62 -1.30,0.36 -1.78,0.12 -2.58,0.81 0.62,0.60 -1.10,1.35 -1.42,2.19 0.18,0.49 0.82,2.77 -1.41,5.08 -1.26,4.92 -1.28,5.35 0.39,7.21 0.71,1.48 1.69,2.54 2.98,3.20 0.57,0.29 5.70,2.45 11.40,4.78 8.09,3.32 10.36,4.31 10.36,4.51 0,0.15 0.75,5.68 -1.68,12.30 0.92,6.62 -1.72,12.75 -1.77,13.64 0.28,4.48 1.16,9.64 3.76,13.52 3.89,5.80 9.34,9.30 16.15,10.36 1.80,0.28 5.57,0.29 7.50,0.01 z"/>
  <path style="fill:#ffffff" d="m 80.31,133.79 c 5.02,0.71 10.06,-2.84 14.14,-5.98 1.26,0.97 1.70,0.93 3.01,0.23 3.17,2.80 6.80,4.62 10.99,5.52 2.16,0.46 6.25,0.57 8.60,0.23 6.82,0.99 12.61,-3.92 17.93,-9.08 2.16,-2.09 3.41,-3.55 4.76,-5.57 1.97,-2.94 3.40,-6.19 4.22,-9.60 0.47,-1.95 0.52,-2.30 2.69,-17.96 L 148,81.85 147.65,81.18 c 0.45,0.85 -1.35,-1.51 -2.58,-1.89 0.87,0.27 -1.43,0.30 -5.32,0.30 -3.99,0 -4.42,0.03 -5.29,0.32 -1.72,0.58 -3.17,1.88 -3.95,3.55 0.41,0.87 0.57,1.92 -2.05,12.69 0.88,6.42 -1.71,11.92 -1.84,12.47 0.86,3.66 -4.24,7.00 -7.96,7.87 -1.51,0.35 -4.70,0.25 -5.91,0.20 -2.28,0.83 -4.16,-2.92 -4.79,-5.31 0.40,-1.54 0.28,-3.06 0.74,-10.52 1.13,-8.20 1.13,-7.60 0.16,-9.20 0.33,0.41 0.89,0.82 -1.54,-1.14 -1.49,0.89 -3.32,0.53 -5.00,0.55 -2.62,0.03 -4.29,0.01 -4.89,0.13 -1.29,0.25 -2.49,0.91 -3.49,1.90 -1.53,1.53 -1.53,1.13 -2.73,9.55 -1.12,7.85 -1.36,8.74 -2.30,10.34 -1.16,1.97 -3.71,4.02 -5.94,4.78 -1.22,0.42 -4.34,0.58 -5.70,0.30 -2.58,0.53 -4.97,-2.73 -5.77,-5.30 0.59,-1.91 0.51,-2.60 1.85,-19.51 l 1.74,-12.48 c 0.25,-1.39 0.51,-2.65 0.17,-4.01 0.45,-1.80 -1.94,-3.75 -3.45,-4.52 0.40,0.20 -8.32,-3.51 -17.59,-7.34 -10.51,-4.34 -14.66,-6.09 -16.51,-6.62 -1.30,0.36 -1.78,0.12 -2.58,0.81 0.62,0.60 -1.10,1.35 -1.42,2.19 0.18,0.49 0.82,2.77 -1.41,5.08 -1.26,4.92 -1.28,5.35 0.39,7.21 0.71,1.48 1.69,2.54 2.98,3.20 0.57,0.29 5.70,2.45 11.40,4.78 8.09,3.32 10.36,4.31 10.36,4.51 0,0.15 0.75,5.68 -1.68,12.30 0.92,6.62 -1.72,12.75 -1.77,13.64 0.28,4.48 1.16,9.64 3.76,13.52 3.89,5.80 9.34,9.30 16.15,10.36 1.80,0.28 5.57,0.29 7.50,0.01 z"/>
  <path style="opacity:0.20;fill:#ffffff" d="M 40,16 C 26.70,16 16,26.70 16,40 v 1 C 16,27.70 26.70,17 40,17 h 112 c 13.30,0 24,10.70 24,24 V 40 C 176,26.70 165.30,16 152,16 Z"/>
</svg>
