<?xml version='1.0' encoding='utf-8'?>
<svg xmlns="http://www.w3.org/2000/svg" width="192" height="192" version="1" id="svg28">
  <defs>
    <filter style="color-interpolation-filters:sRGB" id="filter6216" x="0.07" y="0.07" width="1.15" height="1.15">
      <feGaussianBlur stdDeviation="2.81"/>
    </filter>
    <filter style="color-interpolation-filters:sRGB" id="filter6368" x="0.05" y="0.05" width="1.09" height="1.10">
      <feGaussianBlur stdDeviation="1.15"/>
    </filter>
    <filter style="color-interpolation-filters:sRGB" id="filter6410" x="0.05" y="0.05" width="1.10" height="1.10">
      <feGaussianBlur stdDeviation="3.20"/>
    </filter>
  </defs>
  <circle style="filter:url(#filter6410);opacity:0.20;fill:#000000" cx="96" cy="100" r="80"/>
  <circle style="fill:#3f3f3f" cx="96" cy="96" r="80"/>
  <path style="fill:#fa1449;color:#000000" d="m 85.01,46.09 a 6,6 0 0 0 -2.34,0.06 6,6 0 0 0 -3.75,2.65 6,6 0 0 0 1.88,8.28 l 11.35,7.15 h 22.51 L 87.20,46.92 a 6,6 0 0 0 -2.19,0.84 z"/>
  <circle style="filter:url(#filter6216);opacity:0.20;fill:#000000" cx="96" cy="98" r="45"/>
  <circle style="fill:#ffffff" cx="96" cy="96" r="45"/>
  <path style="filter:url(#filter6368);opacity:0.20;fill:#000000;color:#000000" d="M 96.36,61.00 C 87.05,60.92 77.79,64.33 70.65,71.05 58.46,82.51 55.49,100.74 63.39,115.48 a 1,1 0 0 0 1.35,0.41 1,1 0 0 0 0.41,-1.35 C 57.67,100.58 60.49,83.36 72.02,72.51 83.55,61.66 100.92,59.90 114.39,68.22 a 1,1 0 0 0 1.38,0.32 1,1 0 0 0 0.32,-1.38 C 110.11,63.22 104.18,61.42 98.23,61.07 97.61,61.03 96.98,61.01 96.36,61.00 Z M 118,68.00 a 1,1 0 0 0 -1,1 1,1 0 0 0 1,1 1,1 0 0 0 1,-1 1,1 0 0 0 -1,-1 z m -28.04,17 C 87.89,85.04 86.00,86.68 86,88.96 v 9.04 9.04 c 0.00,3.04 3.36,4.95 6.04,3.43 l 7.97,-4.52 7.97,-4.52 c 2.68,-1.52 2.68,-5.33 0,-6.85 l -7.97,-4.52 -7.97,-4.52 c 0.67,0.38 -1.39,0.55 -2.08,0.54 z"/>
  <path style="fill:#356ef7;color:#000000" d="M 137.52 78.63 C 139.73 83.90 140.96 89.67 140.99 95.73 C 142.73 97.31 143.00 98.21 143.00 98.08 C 142.97 98.19 142.81 98.63 141.92 99.62 C 140.67 101.01 138.16 103.06 134.36 105.42 L 80.96 136.83 A 6 6 0 0 0 78.83 145.04 A 6 6 0 0 0 87.04 147.17 L 140.54 115.71 A 6.00 6.00 0 0 0 140.67 115.63 C 145.04 112.92 148.36 110.41 150.86 107.62 C 153.36 104.83 155.19 101.34 154.99 97.48 C 154.73 92.43 151.58 88.97 148.36 86.22 C 145.21 83.52 141.47 81.16 137.52 78.63 z "/>
  <g style="fill:#fa1449">
    <path style="fill:#fa1449;color:#000000" d="m 106.28,96.07 -7.92,4.57 -7.92,4.57 v -9.14 -9.14 l 7.92,4.57 z"/>
    <path style="fill:#fa1449;color:#000000" d="M 92.04,83.54 C 89.36,82.01 86.00,83.92 86,86.96 v 9.04 9.04 c 0.00,3.04 3.36,4.95 6.04,3.43 l 7.97,-4.52 7.97,-4.52 c 2.68,-1.52 2.68,-5.33 0,-6.85 l -7.97,-4.52 z"/>
  </g>
  <path style="fill:#356ef7;color:#000000" d="M 98.23,59.07 C 88.30,58.47 78.26,61.89 70.65,69.05 58.46,80.51 55.49,98.74 63.39,113.48 a 1,1 0 0 0 1.35,0.41 1,1 0 0 0 0.41,-1.35 C 57.67,98.58 60.49,81.36 72.02,70.51 83.55,59.66 100.92,57.90 114.39,66.22 a 1,1 0 0 0 1.38,0.32 1,1 0 0 0 0.32,-1.38 c -5.34,-3.30 -11.26,-5.09 -17.22,-5.45 z"/>
  <circle style="fill:#356ef7" cx="118" cy="67" r="1"/>
  <path style="opacity:0.10;fill:#ffffff" d="M 96 16 A 80 80 0 0 0 16 96 A 80 80 0 0 0 16.04 96.50 A 80 80 0 0 1 96 17 A 80 80 0 0 1 175.98 96.25 A 80 80 0 0 0 176 96 A 80 80 0 0 0 96 16 z "/>
</svg>
