<?xml version='1.0' encoding='utf-8'?>
<svg xmlns="http://www.w3.org/2000/svg" width="192" height="192" version="1" id="svg16">
  <defs>
    <filter style="color-interpolation-filters:sRGB" id="filter843" x="0.05" width="1.10" y="0.05" height="1.10">
      <feGaussianBlur stdDeviation="3.20"/>
    </filter>
    <filter style="color-interpolation-filters:sRGB" id="filter839" x="0.06" width="1.11" y="0.04" height="1.08">
      <feGaussianBlur stdDeviation="1.60"/>
    </filter>
  </defs>
  <circle r="80" cy="100.00" cx="96" style="filter:url(#filter843);opacity:0.20;fill:#000000"/>
  <circle style="fill:#dd2525" cx="96" cy="96.00" r="80"/>
  <path style="opacity:0.50;fill:#ffffff" d="m 96.00,24.00 a 72,72 0 0 0 -72,72 72,72 0 0 0 72,72.00 A 72,72 0 0 0 168,96.00 a 72,72 0 0 0 -72.00,-72 z m 0,12 a 60,60 0 0 1 60.00,60 60,60 0 0 1 -60.00,60.00 60,60 0 0 1 -60,-60.00 60,60 0 0 1 60,-60 z"/>
  <path style="opacity:0.20;fill:#ffffff" d="m 96.00,16.00 a 80,80 0 0 0 -80,80 80,80 0 0 0 0.02,0.59 80,80 0 0 1 79.98,-79.59 80,80 0 0 1 79.98,79.41 80,80 0 0 0 0.02,0.41 80,80 0 0 0 -80.00,-80 z"/>
  <path style="filter:url(#filter839);opacity:0.20;fill:#000000" d="m 130,56 v 16 h -26 v 76 H 88 V 72 H 62 V 56 Z"/>
  <path d="m 130,54 v 16 h -26 v 76 H 88 V 70 H 62 V 54 Z" style="fill:#ffffff"/>
</svg>
