<?xml version='1.0' encoding='utf-8'?>
<svg xmlns="http://www.w3.org/2000/svg" width="192" height="192" version="1" id="svg14">
  <defs>
    <filter style="color-interpolation-filters:sRGB" id="filter850" x="-0.048000001" width="1.096" y="-0.048000001" height="1.096">
      <feGaussianBlur stdDeviation="3.2"/>
    </filter>
    <filter style="color-interpolation-filters:sRGB" id="filter9967" x="-0.075" y="-0.075" width="1.15" height="1.15">
      <feGaussianBlur stdDeviation="2.8125"/>
    </filter>
  </defs>
  <circle style="filter:url(#filter850);opacity:0.2;fill:#000000" cx="96" cy="100" r="80"/>
  <circle r="80" cy="96" cx="96" style="fill:#00caff"/>
  <circle style="fill:#3f3f3f" cx="96" cy="96" r="65"/>
  <path style="opacity:0.2;fill:#ffffff" d="M 96 16 A 80 80 0 0 0 16 96 A 80 80 0 0 0 16.019531 96.472656 A 80 80 0 0 1 96 17 A 80 80 0 0 1 175.97461 96.513672 A 80 80 0 0 0 176 96 A 80 80 0 0 0 96 16 z "/>
  <circle style="fill:#00caff" cx="96" cy="96" r="40.5"/>
  <path style="filter:url(#filter9967);opacity:0.2;fill:#000000" d="M 96,53 A 45,45 0 0 0 51,98 45,45 0 0 0 96,143 45,45 0 0 0 141,98 45,45 0 0 0 96,53 Z m 0,5 A 40,40 0 0 1 136,98 40,40 0 0 1 96,138 40,40 0 0 1 56,98 40,40 0 0 1 96,58 Z m 0,13 c -14.911688,0 -27,12.088312 -27,27 0.02695,9.9831 5.545074,19.02796 14.164062,23.68164 2.531649,1.03855 4.690123,2.34414 5.835938,4.73828 1.52694,3.2589 1,7.11574 1,10.58008 15.81067,-4.59868 24.58957,-13.19064 30.39844,-27.48633 0.74945,-1.61703 1.33695,-3.3043 1.7539,-5.03711 C 122.75161,102.37765 122.97211,100.03752 123,98 123,83.088312 110.91169,71 96,71 Z"/>
  <path style="fill:#ffffff" d="M 96 51 A 45 45 0 0 0 51 96 A 45 45 0 0 0 96 141 A 45 45 0 0 0 141 96 A 45 45 0 0 0 96 51 z M 96 56 A 40 40 0 0 1 136 96 A 40 40 0 0 1 96 136 A 40 40 0 0 1 56 96 A 40 40 0 0 1 96 56 z M 96 69 C 81.088312 69 69 81.088312 69 96 C 69.02695 105.9831 74.545074 115.02796 83.164062 119.68164 C 85.695711 120.72019 87.854185 122.02578 89 124.41992 C 90.52694 127.67882 90 131.53566 90 135 C 105.81067 130.40132 114.58957 121.80936 120.39844 107.51367 C 121.14789 105.89664 121.73539 104.20937 122.15234 102.47656 C 122.75161 100.37765 122.97211 98.037523 123 96 C 123 81.088312 110.91169 69 96 69 z "/>
</svg>
