<svg xmlns="http://www.w3.org/2000/svg" id="svg12" width="192" height="192" version="1"><defs><filter style="color-interpolation-filters:sRGB" id="filter8822" width="1.1" height="1.1" x=".05" y=".05"><feGaussianBlur stdDeviation="3.2"/></filter><filter style="color-interpolation-filters:sRGB" id="filter8864" width="1.15" height="1.15" x=".07" y=".07"><feGaussianBlur stdDeviation="2.31"/></filter><filter style="color-interpolation-filters:sRGB" id="filter8907" width="1.1" height="1.33" x=".05" y=".17"><feGaussianBlur stdDeviation="3.23"/></filter></defs><rect style="filter:url(#filter8822);opacity:.2;fill:#000" width="160" height="160" x="16" y="20" rx="40" ry="40"/><path style="fill:#07f" d="m 56,16 h 80 c 22.16,0 40,17.84 40,40 v 46.40 l -20.17,28.39 c -12.83,18.07 0.96,31.14 -23.12,30.65 L 56.03,159.75 C 33.88,159.27 41.64,145.94 30.29,126.90 L 16,102.93 V 56 C 16,33.84 33.84,16 56,16 Z"/><path style="filter:url(#filter8864);opacity:.2;fill:#000;color:#000" d="m 96,43 c -20.34,0 -37,16.66 -37,37 0,20.34 16.66,37 37,37 20.34,0 37,-16.66 37,-37 0,-20.34 -16.66,-37 -37,-37 z m 0,16 c 11.69,0 21,9.31 21,21 0,11.69 -9.31,21 -21,21 C 84.31,101 75,91.69 75,80 75,68.31 84.31,59 96,59 Z"/><path style="fill:#fff;color:#000" d="m 96,41 c -20.34,0 -37,16.66 -37,37 0,20.34 16.66,37 37,37 20.34,0 37,-16.66 37,-37 0,-20.34 -16.66,-37 -37,-37 z m 0,16 c 11.69,0 21,9.31 21,21 0,11.69 -9.31,21 -21,21 C 84.31,99 75,89.69 75,78 75,66.31 84.31,57 96,57 Z"/><path style="fill:#ff5550" d="M 56 77 C 33.84 77 16 88.15 16 102 L 16 136 C 16 158.16 33.84 176 56 176 L 136 176 C 158.16 176 176 158.16 176 136 L 176 102 C 176 88.15 158.16 77 136 77 L 56 77 z"/><path style="filter:url(#filter8907);opacity:.2;fill:#000;color:#000" d="M 176,112.17 C 160.30,116.35 130.15,122.99 96.00,123 61.96,123.01 31.81,116.40 16,112.21 v 16.56 C 31.44,132.63 56.10,137.60 84.12,138.75 84.04,141.10 84,143.80 84,147 c 0,6.63 5.37,12 12,12 6.63,0 12,-5.37 12,-12 0,-3.16 0.04,-5.87 0.10,-8.25 28.06,-1.17 52.71,-6.15 68.10,-10.01 z"/><path style="fill:#fff;color:#000" d="M 176 110.17 C 160.30 114.35 130.15 120.99 96.00 121 C 61.96 121.01 31.81 114.40 16 110.21 L 16 126.77 C 31.44 130.63 56.10 135.60 84.12 136.75 C 84.04 139.10 84 141.80 84 145 C 84 151.63 89.37 157 96 157 C 102.63 157 108 151.63 108 145 C 108 141.84 107.96 139.13 107.90 136.75 C 135.97 135.58 160.62 130.59 176 126.73 L 176 110.17 z"/><path style="opacity:.2;fill:#fff" d="M 56 16 C 33.84 16 16 33.84 16 56 L 16 57 C 16 34.84 33.84 17 56 17 L 136 17 C 158.16 17 176 34.84 176 57 L 176 56 C 176 33.84 158.16 16 136 16 L 56 16 z"/><path style="opacity:.2;fill:#fff" d="M 56 77 C 33.84 77 16 88.15 16 102 L 16 103 C 16 89.15 33.84 78 56 78 L 136 78 C 158.16 78 176 89.15 176 103 L 176 102 C 176 88.15 158.16 77 136 77 L 56 77 z"/></svg>