<?xml version='1.0' encoding='utf-8'?>
<svg xmlns="http://www.w3.org/2000/svg" width="192" height="192" version="1" id="svg28">
  <defs>
    <filter style="color-interpolation-filters:sRGB" id="filter13263" x="-0.038121844" y="-0.064787875" width="1.0762437" height="1.1295758">
      <feGaussianBlur stdDeviation="1.8896496"/>
    </filter>
    <filter style="color-interpolation-filters:sRGB" id="filter13307" x="-0.029100001" y="-0.13694118" width="1.0582" height="1.2738824">
      <feGaussianBlur stdDeviation="1.94"/>
    </filter>
    <filter style="color-interpolation-filters:sRGB" id="filter13311" x="-0.042899998" y="-0.054476188" width="1.0858" height="1.1089524">
      <feGaussianBlur stdDeviation="2.86"/>
    </filter>
  </defs>
  <path style="filter:url(#filter13307);opacity:0.2;fill:#000000" d="m 16,146 v 22 c 0,6.648 5.352,12 12,12 h 136 c 6.648,0 12,-5.352 12,-12 v -22 z"/>
  <path style="fill:#16d2ab" d="m 16,142 v 22 c 0,6.648 5.352,12 12,12 h 136 c 6.648,0 12,-5.352 12,-12 v -22 z"/>
  <path style="filter:url(#filter13311);opacity:0.2;fill:#000000" d="M 28,20 C 21.352,20 16,25.352 16,32 V 146 H 176 V 32 c 0,-6.648 -5.352,-12 -12,-12 z"/>
  <path style="fill:#2c3b52" d="M 28,16 C 21.352,16 16,21.352 16,28 V 142 H 176 V 28 c 0,-6.648 -5.352,-12 -12,-12 z"/>
  <path style="filter:url(#filter13263);opacity:0.2;fill:#000000" d="m 71,48 c -19.329966,0 -35,15.670034 -35,35 0,19.32997 15.670034,35 35,35 9.92529,-0.0151 20.46534,-2.58337 27.091797,-9.97266 L 87.429688,96.792969 C 83.66758,100.74329 78.455117,102.98547 73,103 61.954305,103 53,94.045695 53,83 53,71.95431 61.954305,63 73,63 c 5.455117,0.01453 10.66758,2.256708 14.429688,6.207031 L 98.091797,57.972656 C 91.46534,50.583366 80.92529,48.0151 71,48 Z m 62.39062,0 c -5.27321,-0.014 -10.55041,1.184932 -15.30664,3.646484 -9.86812,4.920067 -13.1949,18.975446 -6.74609,27.84961 5.74321,7.957836 16.0183,8.136499 23.875,12.898437 4.67556,2.418581 3.7399,9.503239 -1.30664,10.839849 -6.98634,2.5313 -14.25859,-1.21315 -19.17187,-6.138677 -3.5779,3.593357 -7.1565,7.586327 -10.73438,11.179687 5.45987,5.1644 12.59636,8.39651 20.01562,9.42383 8.74877,1.11462 19.01846,-0.79474 25.54688,-7.07813 5.4625,-5.19501 6.02926,-13.221055 4.91406,-20.24609 -2.1543,-7.507007 -10.30096,-11.178708 -17.0625,-13.626953 -4.39811,-1.95721 -10.12406,-2.432083 -13.05078,-6.654297 -2.34977,-5.319825 3.78863,-9.377318 8.60742,-9.09375 4.60513,0.270995 8.62374,2.845352 11.94141,5.677734 l 10.05273,-10.691406 c 0,0 -1.35242,-1.253355 -2.36718,-2.02539 C 146.94503,50.041049 140.17047,48.017993 133.39062,48 Z"/>
  <path style="fill:#ffffff" d="m 71,46 c -19.329966,0 -35,15.670034 -35,35 0,19.32997 15.670034,35 35,35 9.92529,-0.0151 20.46534,-2.58337 27.091797,-9.97266 L 87.429688,94.792969 C 83.66758,98.743293 78.455117,100.98547 73,101 61.954305,101 53,92.045695 53,81 53,69.95431 61.954305,61 73,61 c 5.455117,0.01453 10.66758,2.256708 14.429688,6.207031 L 98.091797,55.972656 C 91.46534,48.583366 80.92529,46.0151 71,46 Z m 62.39062,0 c -5.27321,-0.014 -10.55041,1.184932 -15.30664,3.646484 -9.86812,4.920067 -13.1949,18.975446 -6.74609,27.84961 5.74321,7.957836 16.0183,8.136499 23.875,12.898437 4.67556,2.418581 3.7399,9.503234 -1.30664,10.839849 -6.98634,2.5313 -14.25859,-1.21315 -19.17187,-6.138677 -3.5779,3.593356 -7.1565,7.586327 -10.73438,11.179687 5.45987,5.1644 12.59636,8.39651 20.01562,9.42383 8.74877,1.11462 19.01846,-0.79474 25.54688,-7.07813 5.4625,-5.19501 6.02926,-13.221055 4.91406,-20.24609 -2.1543,-7.507007 -10.30096,-11.178708 -17.0625,-13.626953 -4.39811,-1.95721 -10.12406,-2.432083 -13.05078,-6.654297 -2.34977,-5.319825 3.78863,-9.377318 8.60742,-9.09375 4.60513,0.270995 8.62374,2.845352 11.94141,5.677734 l 10.05273,-10.691406 c 0,0 -1.35242,-1.253355 -2.36718,-2.02539 C 146.94503,48.041049 140.17047,46.017993 133.39062,46 Z"/>
  <path style="opacity:0.1;fill:#ffffff" d="m 28,16 c -6.648,0 -12,5.352 -12,12 v 1 c 0,-6.648 5.352,-12 12,-12 h 136 c 6.648,0 12,5.352 12,12 v -1 c 0,-6.648 -5.352,-12 -12,-12 z"/>
</svg>
