<svg xmlns="http://www.w3.org/2000/svg" id="svg28" width="192" height="192" version="1"><defs><filter style="color-interpolation-filters:sRGB" id="filter77829" width="1.18" height="1.13" x=".09" y=".06"><feGaussianBlur stdDeviation="4.49"/></filter></defs><path style="filter:url(#filter77829);opacity:.2;fill:#000" d="M 81.30,12 C 75.75,35.89 89.40,42.80 94.74,44 96.20,39.94 99.72,24.44 81.30,12 Z M 110,28 C 95.16,32.35 96.92,41.60 97.22,44 100.20,43.93 109.52,40.28 110,28 Z M 79.76,43.93 c 0.21,11.87 -4.64,17.63 -14.27,23.39 0.23,0.14 0.43,0.30 0.61,0.48 A 60,60 0 0 0 36,119 60,60 0 0 0 96,179 60,60 0 0 0 156,119 60,60 0 0 0 120.23,64.13 C 115.42,60.67 111.15,55.67 110.50,45.83 100.38,47.57 90.09,46.16 79.76,43.93 Z"/><path style="fill:#fdfcdf" d="m 79.76,40.93 c 0.21,11.87 -4.64,17.63 -14.27,23.39 0.23,0.14 0.43,0.30 0.61,0.48 C 46.98,75.66 36.04,95.07 36,116 c 0,33.14 26.86,60 60,60 33.14,0 50.53,-26.32 50.53,-59.46 0.01,-23.76 -9.42,-41.64 -31.16,-51.23 -4.81,-3.46 -6.95,-7.39 -7.59,-17.24 -4.50,0.78 -6.32,-4.32 -10.88,-4.58 -5.68,0.33 -11.40,-1.32 -17.14,-2.55 z"/><circle style="fill:#eaeace" cx="96" cy="116" r="46"/><circle style="fill:#d1d1b8" cx="96" cy="116" r="32"/><circle style="fill:#bfbfa9" cx="96" cy="116" r="18"/><path style="fill:#52bc45" d="m 81.30,9 c 18.41,12.44 14.90,27.94 13.44,32 -5.34,-1.20 -18.99,-8.11 -13.44,-32 z"/><path style="fill:#52bc45" d="M 110,25 C 95.16,29.35 96.92,38.60 97.22,41 100.20,40.93 109.52,37.28 110,25 Z"/><path style="opacity:.2;fill:#fff" d="M 79.76 40.93 C 79.97 52.80 75.11 58.56 65.49 64.33 C 65.25 64.47 65.06 64.63 64.88 64.80 C 46.98 75.66 36.04 95.07 36 116 C 36 116.19 36.01 116.38 36.01 116.57 C 36.20 95.80 47.10 76.59 64.88 65.80 C 65.06 65.63 65.25 65.47 65.49 65.33 C 75.11 59.56 79.97 53.80 79.76 41.93 C 85.49 43.17 91.21 44.15 96.89 44.49 C 101.46 44.75 103.27 49.84 107.78 49.07 C 108.42 58.92 110.56 62.85 115.37 66.31 C 136.99 75.85 146.41 93.59 146.52 117.15 C 146.52 116.95 146.53 116.74 146.53 116.54 C 146.52 92.78 137.11 74.90 115.37 65.31 C 110.56 61.85 108.42 57.92 107.78 48.07 C 103.27 48.84 101.46 43.75 96.89 43.49 C 91.21 43.15 85.49 42.17 79.76 40.93 z"/><path style="fill:#7d52b3" d="M 110.50 42.83 C 105.70 43.65 100.86 43.75 96 43.41 L 96 176 A 60 60 0 0 0 156 116 A 60 60 0 0 0 120.23 61.13 C 115.42 57.67 111.15 52.67 110.50 42.83 z"/><path style="opacity:.2;fill:#fff" d="M 81.30 9 C 80.36 13.05 79.98 16.61 80.01 19.74 C 80.07 16.86 80.46 13.63 81.30 10 C 93.04 17.93 95.86 27.10 95.99 33.76 C 96.13 27.04 93.64 17.33 81.30 9 z M 110 25 C 98.03 28.51 96.86 35.20 97.01 38.92 C 97.14 35.10 99.03 29.24 109.94 26.02 C 109.96 25.69 109.99 25.35 110 25 z"/><path style="opacity:.1;fill:#fff" d="M 110.50 42.83 C 105.70 43.65 100.86 43.75 96 43.41 L 96 44.41 C 100.86 44.75 105.70 44.65 110.50 43.83 C 111.15 53.67 115.42 58.67 120.23 62.13 A 60 60 0 0 1 155.97 116.50 A 60 60 0 0 0 156 116 A 60 60 0 0 0 120.23 61.13 C 115.42 57.67 111.15 52.67 110.50 42.83 z"/></svg>