<?xml version='1.0' encoding='utf-8'?>
<svg xmlns="http://www.w3.org/2000/svg" width="192" height="192" version="1" id="svg7">
  <defs>
    <filter id="filter2476" style="color-interpolation-filters:sRGB" width="1.17" height="1.12" x="0.09" y="0.06">
      <feGaussianBlur stdDeviation="3.36"/>
    </filter>
    <filter id="filter2480" style="color-interpolation-filters:sRGB" width="1.18" height="1.11" x="0.09" y="0.06">
      <feGaussianBlur stdDeviation="3.33"/>
    </filter>
  </defs>
  <path style="filter:url(#filter2480);opacity:0.20" d="M 178.37,114.66 C 174.14,89.17 150.03,72.33 124.65,76.67 l 7.43,-42.99 -27.26,-4.86 c -2.29,5.14 -12.25,28.90 -17.23,55.18 10.11,6.86 17.23,17.39 19.45,30.53 2.29,13.89 -1.27,27.51 -9.61,37.57 2.06,2.51 3.95,4.72 6.58,6.77 10.57,8.34 23.43,11.60 36.00,9.49 25.54,-4.23 42.69,-28.34 38.29,-53.71 z"/>
  <path style="fill:#0b5e6d" d="M 178.37,110.66 C 174.14,85.17 150.03,68.33 124.65,72.67 l 7.43,-42.99 -27.26,-4.86 c -2.29,5.14 -12.25,28.90 -17.23,55.18 10.11,6.86 17.23,17.39 19.45,30.53 2.29,13.89 -1.27,27.51 -9.61,37.57 2.06,2.51 3.95,4.72 6.58,6.77 10.57,8.34 23.43,11.60 36.00,9.49 25.54,-4.23 42.69,-28.34 38.29,-53.71 z"/>
  <path style="filter:url(#filter2476);opacity:0.20" d="m 34.11,29.55 c -2.38,5.28 -13.28,30.12 -17.94,57.39 -3.75,22.05 -3.57,45.69 7.95,62.34 2.55,3.58 5.56,6.82 9.19,9.66 10.56,8.30 23.38,11.54 35.87,9.43 11.47,-1.88 21.29,-8.02 28.16,-16.26 5.64,-6.96 9.34,-15.38 10.43,-24.42 C 109.52,110.70 100.90,92.00 87.51,84.01 86.61,83.40 85.87,83.02 84.93,82.47 75.81,77.12 64.97,74.86 53.75,76.72 l 7.38,-42.39 z"/>
  <path style="fill:#16a7ff" d="m 88.29,88.20 0.78,-8.19 C 86.61,79.40 85.87,79.02 84.93,78.47 75.81,73.12 64.97,70.86 53.75,72.72 l 7.38,-42.39 -27.02,-4.77 c -2.38,5.28 -13.28,30.12 -17.94,57.39 -3.75,22.05 -3.58,45.69 7.95,62.34 2.55,3.58 5.56,6.82 9.19,9.66 10.56,8.30 23.38,11.54 35.87,9.43 11.47,-1.88 21.29,-8.02 28.16,-16.26 l -1.39,-7.38 C 84.37,124.14 85.06,107.89 88.86,85.89 Z"/>
  <path style="fill:#9ef769" d="m 87.51,80.01 0.44,2.21 c -3.73,22.29 -3.56,46.19 8.15,63.02 l 2.12,2.87 c 5.64,-6.96 9.34,-15.38 10.43,-24.42 C 109.52,106.70 100.90,88 87.51,80.01 Z"/>
  <path style="opacity:0.20;fill:#ffffff" d="M 34.11,25.55 C 31.73,30.84 20.83,55.67 16.18,82.95 14.76,91.29 13.91,99.85 14.01,108.18 13.98,100.17 14.82,91.95 16.18,83.95 20.83,56.67 31.73,31.84 34.11,26.55 l 26.85,4.74 0.17,0.97 z m 27.96,46.53 c -2.68,0.03 -5.40,0.17 -8.14,0.61 L 53.75,73.72 c 11.22,-1.85 22.06,0.40 31.18,5.75 0.94,0.55 1.69,0.93 2.59,1.54 12.32,7.35 20.58,23.78 20.46,39.59 0.48,-16.12 -7.88,-33.09 -20.46,-40.59 0.90,0.62 -1.65,0.99 -2.59,-1.54 -6.84,-4.01 -14.65,-6.28 -22.86,-6.38 z"/>
  <path style="opacity:0.10;fill:#ffffff" d="m 104.82,24.83 c -2.29,5.14 -12.25,28.90 -17.22,55.18 0.06,0.04 0.12,0.08 0.18,0.12 5.02,-25.93 14.79,-49.22 17.05,-54.31 l 27.09,4.83 0.17,0.97 z M 131.74,72 c -2.28,0.04 -4.59,0.26 -6.91,0.65 l 0.18,1.03 c 25.37,-4.34 49.49,12.50 53.71,37.98 h 0.06 c 0.40,2.34 0.63,4.66 0.68,6.96 0.00,-2.62 0.21,-5.28 0.68,-7.96 h 0.06 C 174.54,87.56 154.37,71.56 131.74,72 Z"/>
</svg>
