<svg xmlns="http://www.w3.org/2000/svg" id="svg16" width="192" height="192" version="1"><defs><filter style="color-interpolation-filters:sRGB" id="filter859" width="1.11" height="1.09" x=".05" y=".04"><feGaussianBlur stdDeviation="2.88"/></filter></defs><path d="m 87.59,19.89 c -3.53,0.10 -6.93,1.36 -9.66,3.59 L 63.19,35.49 c -4.39,3.58 -6.57,9.22 -5.72,14.82 l 1.26,8.28 4.01,32.12 -20.87,12.49 c -6.87,2.85 -10.87,10.07 -9.66,17.41 l 3.20,19.06 c 0.84,5.00 4.00,9.31 8.51,11.61 l 52.84,26.97 c 5.65,2.89 12.47,2.16 17.40,-1.85 l 14.74,-12.01 c 4.39,-3.58 6.57,-9.22 5.72,-14.82 l -1.26,-8.28 -4.04,-32.34 c 11.43,-7.17 32.53,-15.50 30.55,-29.68 L 156.67,60.22 C 155.83,55.22 152.68,50.91 148.16,48.61 L 95.32,21.64 c -2.39,-1.22 -5.05,-1.82 -7.73,-1.74 z" style="filter:url(#filter859);opacity:.2"/><path d="m 87.59,15.89 c -3.53,0.10 -6.93,1.36 -9.66,3.59 L 63.19,31.49 c -4.39,3.58 -6.57,9.22 -5.72,14.82 l 1.26,8.28 4.01,32.12 -20.87,12.49 c -6.87,2.85 -10.87,10.07 -9.66,17.41 l 3.20,19.06 c 0.84,5.00 4.00,9.31 8.51,11.61 l 52.84,26.97 c 5.65,2.89 12.47,2.16 17.40,-1.85 l 14.74,-12.01 c 4.39,-3.58 6.57,-9.22 5.72,-14.82 l -1.26,-8.28 -4.04,-32.34 C 140.75,97.79 161.84,89.46 159.87,75.28 L 156.67,56.22 C 155.83,51.22 152.68,46.91 148.16,44.61 L 95.32,17.64 c -2.39,-1.22 -5.05,-1.82 -7.73,-1.74 z" style="fill:#e4e4e4"/><path d="M 48.27,114.07 140.41,58.94 143.49,77.84 51.44,132.91 Z" style="fill:#2c4f80"/><path d="M 88,32 73.27,44 74.56,52.48 84.55,132.38 48,114 51.20,133.05 104,160 Z" style="fill:#3a6dbe"/><path d="M 104,160 118.73,148 117.44,139.52 107.45,59.62 144,78 140.80,58.95 88,32 Z" style="fill:#4ea1ed"/><path style="opacity:.2;fill:#fff" d="M 87.59 15.89 C 84.06 15.99 80.66 17.26 77.92 19.48 L 63.19 31.49 C 59.30 34.66 57.17 39.45 57.32 44.39 C 57.47 39.81 59.56 35.45 63.19 32.49 L 77.92 20.48 C 80.66 18.26 84.06 16.99 87.59 16.89 C 90.27 16.81 92.93 17.42 95.32 18.64 L 148.16 45.61 C 152.68 47.91 155.83 52.22 156.67 57.22 L 159.88 76.28 C 159.92 76.62 159.95 76.95 159.96 77.28 C 159.99 76.63 159.97 75.97 159.88 75.28 L 156.67 56.22 C 155.83 51.22 152.68 46.91 148.16 44.61 L 95.32 17.64 C 92.93 16.42 90.27 15.81 87.59 15.89 z M 62.27 86.99 L 41.88 99.20 C 35.72 101.75 31.92 107.81 32.05 114.31 C 32.30 108.19 36.04 102.62 41.88 100.20 L 62.27 87.99 L 62.62 90.78 L 62.74 90.71 L 62.27 86.99 z M 129.79 108.69 C 129.65 108.77 129.46 108.87 129.32 108.95 L 129.44 109.89 C 129.56 109.82 129.69 109.75 129.79 109.69 L 133.36 138.29 L 134.62 146.57 C 134.71 147.18 134.76 147.79 134.78 148.40 C 134.80 147.47 134.76 146.52 134.62 145.57 L 133.36 137.29 L 129.79 108.69 z"/></svg>