<svg xmlns="http://www.w3.org/2000/svg" id="svg18" width="192" height="192" version="1"><defs><filter style="color-interpolation-filters:sRGB" id="filter975" width="1.1" height="1.1" x=".05" y=".05"><feGaussianBlur stdDeviation="3.2"/></filter><filter style="color-interpolation-filters:sRGB" id="filter979" width="1.11" height="1.09" x=".05" y=".04"><feGaussianBlur stdDeviation="2"/></filter><filter style="color-interpolation-filters:sRGB" id="filter983" width="1.07" height="1.14" x=".04" y=".07"><feGaussianBlur stdDeviation=".93"/></filter></defs><rect style="filter:url(#filter975);opacity:.2;fill:#000" width="160" height="160" x="16" y="20" rx="8" ry="8"/><rect style="fill:#4f4f4f" width="160" height="160" x="16" y="16" rx="8" ry="8"/><path style="opacity:.1;fill:#fff" d="M 24 16 C 19.57 16 16 19.57 16 24 L 16 25 C 16 20.57 19.57 17 24 17 L 168 17 C 172.43 17 176 20.57 176 25 L 176 24 C 176 19.57 172.43 16 168 16 L 24 16 z"/><path style="filter:url(#filter979);opacity:.2" d="M 140,42 52,70 v 32 L 85.84,111.24 52,122 v 32 l 88,-28 V 94 L 106.16,84.76 140,74 Z"/><path style="fill:#ffab36" d="M 140,40 52,68 v 32 l 88,-28 z"/><path style="fill:#ffab36" d="m 140,92 -88,28 v 32 l 88,-28 z"/><path style="filter:url(#filter983);opacity:.2" d="M 133.24,92.16 79.08,109.38 133.24,124.16 140,122 V 94 Z"/><path style="fill:#ffab36" d="m 52,68 88,24 v 32 L 52,100 Z"/></svg>