<svg xmlns="http://www.w3.org/2000/svg" id="svg16" width="192" height="192" version="1"><defs><filter style="color-interpolation-filters:sRGB" id="filter864" width="1.1" height="1.1" x=".05" y=".05"><feGaussianBlur stdDeviation="3.2"/></filter><filter style="color-interpolation-filters:sRGB" id="filter2526" width="1.14" height="1.16" x=".07" y=".08"><feGaussianBlur stdDeviation="2.59"/></filter></defs><rect style="filter:url(#filter864);opacity:.2;fill:#000" width="160" height="160" x="-180" y="-176" rx="80" ry="80" transform="matrix(0,-1,-1,0,0,0)"/><rect width="160" height="160" x="-176" y="-176" rx="80" ry="80" transform="matrix(0,-1,-1,0,0,0)" style="fill:#3f3f3f"/><path style="filter:url(#filter2526);opacity:.2;fill:#000" d="M 77,50 V 60 H 91 V 50 Z m 0,14 V 74 H 91 V 64 Z m 48,0 v 10 h 14 V 64 Z M 53,78 V 88 H 67 V 78 Z m 24,0 V 88 H 91 V 78 Z m 48,0 v 10 h 14 V 78 Z M 53,92 v 10 H 67 V 92 Z m 24,0 v 10 H 91 V 92 Z m 24,0 v 10 h 14 V 92 Z m 24,0 v 10 h 14 V 92 Z m -72,14 v 10 h 14 v -10 z m 24,0 v 10 h 14 v -10 z m 24,0 v 10 h 14 v -10 z m 24,0 v 10 h 14 v -10 z m -72,14 v 10 h 14 v -10 z m 24,0 v 10 h 14 v -10 z m 24,0 v 10 h 14 v -10 z m 24,0 v 10 h 14 v -10 z"/><path style="opacity:.1;fill:#fff" d="M 96 16 C 51.68 16 16.01 51.68 16.01 96 C 16.01 96.34 16.01 96.67 16.01 97 C 16.01 52.68 51.68 17 96 17 C 140.32 17 175.99 52.68 175.99 97 C 175.99 96.67 175.99 96.34 175.99 96 C 175.99 51.68 140.32 16 96 16 z"/><rect style="fill:#00baa7" width="14" height="10" x="77" y="104"/><rect style="fill:#00baa7" width="14" height="10" x="77" y="118"/><rect style="fill:#00baa7" width="14" height="10" x="77" y="90"/><rect style="fill:#00baa7" width="14" height="10" x="77" y="76"/><rect style="fill:#00baa7" width="14" height="10" x="77" y="62"/><rect style="fill:#00baa7" width="14" height="10" x="77" y="48"/><rect style="fill:#f44336" width="14" height="10" x="101" y="104"/><rect style="fill:#f44336" width="14" height="10" x="101" y="118"/><rect style="fill:#f44336" width="14" height="10" x="101" y="90"/><rect style="fill:#ffc107" width="14" height="10" x="53" y="104"/><rect style="fill:#ffc107" width="14" height="10" x="53" y="118"/><rect style="fill:#ffc107" width="14" height="10" x="53" y="90"/><rect style="fill:#ffc107" width="14" height="10" x="53" y="76"/><rect style="fill:#00baa7" width="14" height="10" x="77" y="104"/><rect style="fill:#00baa7" width="14" height="10" x="77" y="118"/><rect style="fill:#00baa7" width="14" height="10" x="77" y="90"/><rect style="fill:#00baa7" width="14" height="10" x="77" y="76"/><rect style="fill:#00baa7" width="14" height="10" x="77" y="62"/><rect style="fill:#00baa7" width="14" height="10" x="77" y="48"/><rect style="fill:#f44336" width="14" height="10" x="101" y="104"/><rect style="fill:#f44336" width="14" height="10" x="101" y="118"/><rect style="fill:#f44336" width="14" height="10" x="101" y="90"/><rect style="fill:#fff" width="14" height="10" x="125" y="104"/><rect style="fill:#fff" width="14" height="10" x="125" y="118"/><rect style="fill:#fff" width="14" height="10" x="125" y="90"/><rect style="fill:#fff" width="14" height="10" x="125" y="76"/><rect style="fill:#fff" width="14" height="10" x="125" y="62"/></svg>