<?xml version='1.0' encoding='utf-8'?>
<svg xmlns="http://www.w3.org/2000/svg" width="192" height="192" version="1" id="svg12">
  <defs>
    <filter style="color-interpolation-filters:sRGB" id="filter23237" x="0.07" y="0.08" width="1.14" height="1.17">
      <feGaussianBlur stdDeviation="2.80"/>
    </filter>
    <filter style="color-interpolation-filters:sRGB" id="filter23279" x="0.11" y="0.16" width="1.22" height="1.32">
      <feGaussianBlur stdDeviation="4.43"/>
    </filter>
    <filter style="color-interpolation-filters:sRGB" id="filter23710" x="0.05" y="0.05" width="1.10" height="1.10">
      <feGaussianBlur stdDeviation="3.20"/>
    </filter>
  </defs>
  <path style="filter:url(#filter23710);opacity:0.20;fill:#000000" d="m 46,20 h 100 c 16.62,0 30,13.38 30,30 v 100 c 0,16.62 -13.38,30 -30,30 H 113.26 L 76.91,152.39 C 63.68,142.33 54.58,137.20 40.34,128.64 L 16,114.02 V 50 C 16,33.38 29.38,20 46,20 Z"/>
  <path style="fill:#3f3f3f" d="m 46,16 h 100 c 16.62,0 30,13.38 30,30 v 100 c 0,16.62 -13.38,30 -30,30 H 113.26 L 76.91,148.39 C 63.68,138.33 54.58,133.20 40.34,124.64 L 16,110.02 V 46 C 16,29.38 29.38,16 46,16 Z"/>
  <path style="filter:url(#filter23279);opacity:0.20;fill:#000000" d="M 16,111.39 V 148 c 0,16.62 13.38,30 30,30 h 68.19 A 110.81,110.81 0 0 0 16,111.39 Z"/>
  <path style="fill:#b1ff3c" d="M 16 109.39 L 16 146 C 16 162.62 29.38 176 46 176 L 114.19 176 A 110.81 110.81 0 0 0 16 109.39 z "/>
  <path style="opacity:0.10;fill:#ffffff" d="M 46 16 C 29.38 16 16 29.38 16 46 L 16 47 C 16 30.38 29.38 17 46 17 L 146 17 C 162.62 17 176 30.38 176 47 L 176 46 C 176 29.38 162.62 16 146 16 L 46 16 z "/>
  <path style="filter:url(#filter23237);opacity:0.20;fill:#000000" d="m 96,57.00 c -27.06,0 -49,21.94 -49,49 0.01,11.69 4.19,22.99 11.80,31.86 l 0.10,0.12 c 0.12,-14.86 1.71,-55.74 41.45,-55.74 8.29,-8.58 18.55,-18.88 18.55,-18.88 -4.21,-2.12 -9.59,-4.50 -14.21,-5.34 C 101.83,57.27 98.92,57.00 96,57.00 Z m 30.24,9.92 -28.90,28.81 -7.32,-7.42 c -6.41,1.81 -10.83,5.06 -14.53,9.45 l 22.50,23.36 40.19,-40.10 z m 15.67,22 -15.29,14.71 c 6.04,8.80 6.54,34.28 6.54,34.28 7.63,-8.88 11.83,-20.20 11.84,-31.91 0.00,-5.83 -1.05,-11.61 -3.09,-17.08 z"/>
  <path style="fill:#b1ff3c" d="m 90.02,86.31 7.32,7.42 28.90,-28.81 11.94,14.09 L 97.99,119.12 75.49,95.76 c 3.70,-4.39 8.12,-7.64 14.53,-9.45 z"/>
  <path style="fill:#ffffff" d="m 96,55 c -27.06,0 -49,21.94 -49,49 0.01,11.69 4.19,22.99 11.80,31.86 l 0.10,0.12 c 0.12,-14.86 1.71,-55.74 41.45,-55.74 8.29,-8.58 18.55,-18.88 18.55,-18.88 -4.21,-2.12 -9.59,-4.50 -14.20,-5.34 C 101.83,55.27 98.92,55.00 96,55 Z m 45.91,31.92 -15.29,14.71 c 6.04,8.80 6.54,34.28 6.54,34.28 C 140.79,127.03 144.99,115.71 145,104 145.00,98.17 143.95,92.39 141.91,86.92 Z"/>
</svg>
