<?xml version='1.0' encoding='utf-8'?>
<svg xmlns="http://www.w3.org/2000/svg" width="192" height="192" version="1.1" id="svg16">
  <defs>
    <filter style="color-interpolation-filters:sRGB" id="filter853" x="0.05" y="0.05" width="1.10" height="1.10">
      <feGaussianBlur stdDeviation="3.22"/>
    </filter>
    <filter style="color-interpolation-filters:sRGB" id="filter875" x="0.05" y="0.05" width="1.10" height="1.10">
      <feGaussianBlur stdDeviation="0.96"/>
    </filter>
  </defs>
  <circle style="fill:#e4e4e4" cx="96.00" cy="96.00" r="76.00"/>
  <path style="fill:#56676e" d="M 175.63,88.53 C 175.85,90.95 176,93.39 176,95.87 v 0 c 0,-2.48 0.15,-4.91 0.37,-7.33 z"/>
  <path style="filter:url(#filter853);opacity:0.20" d="m 96.00,20.00 a 80.30,80.16 0 0 0 -14.51,1.38 c 92.67,11.36 68.59,119.61 11.47,118.80 0,0 83.17,10.83 77.96,-68.10 C 159.60,41.69 130.38,20.00 96.00,20.00 Z M 74.62,25.52 C 72.06,25.48 69.40,25.51 66.64,25.62 36.99,37.32 16,66.11 16,99.86 a 80.45,80.31 0 0 0 0.82,10.86 c 18.61,-93.53 124.62,-63.24 118.59,-6.12 0,0 18.44,-77.58 -60.80,-79.07 z m 9.22,33.60 C 59.40,58.35 20.43,66.83 21.30,128.96 a 80.23,80.09 0 0 0 19.34,28.87 c 0.36,0.34 0.73,0.65 1.09,0.98 a 80.28,80.14 0 0 0 7.59,6.17 c 0.41,0.29 0.80,0.62 1.21,0.91 a 79.67,79.53 0 0 0 8.76,5.19 c 0.88,0.45 1.78,0.87 2.67,1.29 a 79.17,79.03 0 0 0 8.00,3.24 c 0.67,0.23 1.31,0.51 1.98,0.73 a 79.30,79.17 0 0 0 9.96,2.35 c 1.02,0.18 2.05,0.33 3.08,0.47 a 80.25,80.11 0 0 0 10.54,0.81 c 0.14,0 0.26,0.02 0.40,0.02 2.66,0 5.29,0.14 7.88,0.40 C 10.66,157.42 46.07,53.45 103.05,61.74 c 0,0 -8.11,-2.27 -19.22,-2.62 z M 56.95,92.11 c 0,0 -22.25,81.83 66.92,82.55 27.98,-10.40 48.59,-35.89 51.72,-66.62 0.22,-2.13 0.28,-4.30 0.33,-6.47 0.01,0.57 0.09,-1.13 0.09,-1.70 0,-2.47 0.15,-4.92 0.37,-7.34 C 152.07,185.11 47.85,148.85 56.95,92.11 Z"/>
  <path style="fill:#4b6a77" d="m 96.00,16.00 a 80.30,80.16 0 0 0 -14.51,1.37 c 92.67,11.36 68.59,119.61 11.47,118.80 0,0 83.17,10.83 77.96,-68.10 C 159.60,37.69 130.38,16.00 96.00,16.00 Z m -21.38,5.52 c -2.56,0.05 -5.21,0.01 -7.98,0.10 C 36.99,33.32 16,62.11 16,95.86 a 80.45,80.31 0 0 0 0.82,10.86 c 18.61,-93.53 124.62,-63.24 118.59,-6.12 0,0 18.44,-77.58 -60.80,-79.07 z m 9.22,33.60 C 59.40,54.35 20.43,62.83 21.30,124.96 a 80.23,80.09 0 0 0 19.34,28.88 c 0.36,0.34 0.73,0.65 1.09,0.98 a 80.28,80.14 0 0 0 7.59,6.17 c 0.41,0.29 0.80,0.62 1.21,0.91 a 79.67,79.53 0 0 0 8.76,5.19 c 0.88,0.45 1.78,0.87 2.67,1.29 a 79.17,79.03 0 0 0 8.00,3.24 c 0.67,0.23 1.31,0.51 1.98,0.73 a 79.30,79.17 0 0 0 9.96,2.35 c 1.02,0.18 2.05,0.33 3.08,0.47 a 80.25,80.11 0 0 0 10.54,0.81 c 0.14,0 0.26,0.02 0.40,0.02 2.66,0 5.29,0.14 7.88,0.40 C 10.66,153.42 46.07,49.45 103.05,57.74 c 0,0 -8.11,-2.27 -19.22,-2.62 z M 56.95,88.11 c 0,0 -22.25,81.83 66.92,82.55 27.98,-10.40 48.59,-35.89 51.72,-66.62 0.22,-2.13 0.28,-4.30 0.33,-6.47 0.01,0.57 0.09,-1.13 0.09,-1.70 0,-2.47 0.15,-4.92 0.37,-7.34 C 152.07,181.11 47.85,144.85 56.95,88.11 Z"/>
  <path style="filter:url(#filter875);opacity:0.20" d="M 120.00,98.00 A 24.00,24.00 0 1 1 96.01,74.00 24.00,24.00 0 0 1 120.00,98.00 Z"/>
  <path style="fill:#4b4c4d" d="M 120.00,96.00 A 24.00,24.00 0 1 1 96.01,72.00 24.00,24.00 0 0 1 120.00,96.00 Z"/>
  <path style="opacity:0.20;fill:#ffffff" d="M 96 16 A 80.30 80.16 0 0 0 81.49 17.38 C 82.70 17.52 83.87 17.70 85.04 17.88 A 80.30 80.16 0 0 1 96 17 C 130.38 17 159.60 38.69 170.92 69.07 C 171.07 71.34 171.14 73.53 171.15 75.65 C 171.16 73.22 171.10 70.70 170.92 68.07 C 159.60 37.69 130.38 16 96 16 z M 70.71 21.51 C 69.38 21.53 68.02 21.57 66.64 21.62 C 36.99 33.32 16 62.11 16 95.86 A 80.45 80.31 0 0 0 16.02 96.06 C 16.34 62.66 37.23 34.22 66.64 22.62 C 69.40 22.51 72.06 22.48 74.62 22.52 C 128.51 23.54 137.21 59.74 137.26 82.80 C 137.45 59.81 129.30 22.55 74.62 21.52 C 73.34 21.50 72.04 21.50 70.71 21.51 z M 79.10 55.10 C 54.68 55.62 20.48 66.71 21.30 124.96 A 80.23 80.09 0 0 0 21.31 124.97 C 20.87 63.76 59.53 55.36 83.84 56.12 C 88.54 56.27 92.50 56.78 95.74 57.29 C 98.13 57.24 100.57 57.38 103.05 57.74 C 103.05 57.74 94.95 55.48 83.84 55.12 C 82.31 55.08 80.72 55.06 79.10 55.10 z M 143.46 76.84 C 143.91 106.81 123.02 136.60 92.96 136.17 C 92.96 136.17 95.81 136.53 100.38 136.64 C 126.72 132.50 144.32 104.61 143.46 76.84 z M 56.95 88.11 C 56.95 88.11 54.30 97.85 54.49 110.63 C 54.46 100.19 56.09 92.75 56.63 90.52 C 56.72 89.72 56.82 88.92 56.95 88.11 z M 175.63 88.53 C 153.20 176.68 57.65 148.02 56.40 96.10 C 56.44 148.65 153.06 178.24 175.63 89.53 C 175.83 91.74 175.96 93.97 175.98 96.22 C 175.99 96.10 176 95.99 176 95.87 C 176 93.39 175.85 90.95 175.63 88.53 z M 135.64 96.06 C 135.64 97.55 135.58 99.06 135.41 100.59 C 135.41 100.59 135.52 100.03 135.54 99.94 C 135.63 98.63 135.67 97.34 135.64 96.06 z M 46.41 115.82 C 46.51 140.26 61.77 165.48 100.81 175.83 C 101.81 175.76 102.82 175.70 103.81 175.60 C 63.08 165.91 46.93 140.57 46.41 115.82 z "/>
</svg>
