<?xml version='1.0' encoding='utf-8'?>
<svg xmlns="http://www.w3.org/2000/svg" width="192" height="192" version="1" id="svg28">
  <defs>
    <filter style="color-interpolation-filters:sRGB" id="filter6495" x="0.05" y="0.05" width="1.10" height="1.10">
      <feGaussianBlur stdDeviation="3.20"/>
    </filter>
    <filter style="color-interpolation-filters:sRGB" id="filter2217" x="0.08" y="0.07" width="1.16" height="1.14">
      <feGaussianBlur stdDeviation="2.98"/>
    </filter>
  </defs>
  <rect transform="matrix(0,-1,-1,0,0,0)" ry="12" rx="12" y="-176" x="-180" height="160" width="160" style="filter:url(#filter6495);opacity:0.20;fill:#000000"/>
  <rect transform="matrix(0,-1,-1,0,0,0)" ry="12" rx="12" y="-176" x="-176" height="160" width="160" style="fill:#ce0d38"/>
  <path style="opacity:0.20;fill:#ffffff" d="m 28,16 c -6.65,0 -12,5.35 -12,12 v 1 c 0,-6.65 5.35,-12 12,-12 h 136 c 6.65,0 12,5.35 12,12 v -1 c 0,-6.65 -5.35,-12 -12,-12 z"/>
  <path style="filter:url(#filter2217);opacity:0.20;fill:#000000" d="m 65,47 c -3.32,0 -6,2.68 -6,6 v 90 c 0,3.32 2.68,6 6,6 h 62 c 3.32,0 6,-2.68 6,-6 v -22 h -9 v 19 H 68 V 56 h 56 v 19 h 9 V 53 c 0,-3.32 -2.68,-6 -6,-6 z M 76.37,74 90.23,98 76.37,122 H 87.92 L 96,108 l 8.08,14 h 11.55 L 101.77,98 115.63,74 H 104.08 L 96,88 87.92,74 Z M 124,84 v 10 h 24 V 84 Z m 0,18 v 10 h 24 v -10 z"/>
  <path style="fill:#ffffff" d="M 65 45 C 61.68 45 59 47.68 59 51 L 59 141 C 59 144.32 61.68 147 65 147 L 127 147 C 130.32 147 133 144.32 133 141 L 133 119 L 124 119 L 124 138 L 68 138 L 68 54 L 124 54 L 124 73 L 133 73 L 133 51 C 133 47.68 130.32 45 127 45 L 65 45 z M 76.37 72 L 90.23 96 L 76.37 120 L 87.92 120 L 96 106 L 104.08 120 L 115.63 120 L 101.77 96 L 115.63 72 L 104.08 72 L 96 86 L 87.92 72 L 76.37 72 z M 124 82 L 124 92 L 148 92 L 148 82 L 124 82 z M 124 100 L 124 110 L 148 110 L 148 100 L 124 100 z "/>
</svg>
