<?xml version='1.0' encoding='utf-8'?>
<svg xmlns="http://www.w3.org/2000/svg" width="192" height="192" version="1" id="svg28">
  <defs>
    <filter style="color-interpolation-filters:sRGB" id="filter19768" x="0.05" y="0.05" width="1.09" height="1.10">
      <feGaussianBlur stdDeviation="2.86"/>
    </filter>
    <filter style="color-interpolation-filters:sRGB" id="filter19810" x="0.04" y="0.05" width="1.09" height="1.11">
      <feGaussianBlur stdDeviation="2.85"/>
    </filter>
    <filter style="color-interpolation-filters:sRGB" id="filter19852" x="0.05" y="0.04" width="1.10" height="1.09">
      <feGaussianBlur stdDeviation="2.84"/>
    </filter>
    <filter style="color-interpolation-filters:sRGB" id="filter20000" x="0.10" y="0.11" width="1.21" height="1.22">
      <feGaussianBlur stdDeviation="3.87"/>
    </filter>
  </defs>
  <path style="filter:url(#filter19852);opacity:0.20;fill:#000000" d="M 50.47,169.94 C 19.57,151.03 25.45,57.23 62.06,28.32 c 15.70,-12.40 48.01,-4.52 64.83,6.25 17.43,11.15 36.68,39.74 34.32,60.28 -5.83,50.83 -77.39,95.51 -110.74,75.10 z"/>
  <path style="fill:#4d47cb" d="M 50.47,166.94 C 19.57,148.03 25.45,54.23 62.06,25.32 c 15.70,-12.40 48.01,-4.52 64.83,6.25 17.43,11.15 36.68,39.74 34.32,60.28 -5.83,50.83 -77.39,95.51 -110.74,75.10 z"/>
  <path style="opacity:0.10;fill:#ffffff" d="M 85.03 19.01 C 76.17 18.87 67.94 20.67 62.06 25.32 C 41.35 41.67 30.48 78.79 30.54 111.38 C 30.70 79.04 41.56 42.50 62.06 26.32 C 77.76 13.92 110.06 21.80 126.89 32.57 C 143.17 42.98 161.03 68.62 161.39 88.69 C 161.63 68.48 143.44 42.16 126.89 31.57 C 116.37 24.84 99.81 19.24 85.03 19.01 z "/>
  <path style="filter:url(#filter19810);opacity:0.20;fill:#000000" d="M 18.01,104.95 C 18.94,68.64 103.38,26.73 146.85,44.02 c 18.64,7.42 28.00,39.42 27.09,59.42 0.95,20.72 -16.13,51.77 -35.15,60.02 C 91.71,183.88 17.00,144.15 18.01,104.95 Z"/>
  <path style="fill:#8d75f4" d="M 18.01,101.95 C 18.94,65.64 103.38,23.73 146.85,41.02 c 18.64,7.42 28.00,39.42 27.09,59.42 0.95,20.72 -16.13,51.77 -35.15,60.02 C 91.71,180.88 17.00,141.15 18.01,101.95 Z"/>
  <path style="filter:url(#filter19768);opacity:0.20;fill:#000000;mix-blend-mode:normal" d="m 39.04,49.08 c 26.28,-24.96 115.41,5.01 133.86,47.87 7.92,18.38 -8.06,47.56 -22.83,61.04 -15.29,13.96 -47.91,25.15 -67.14,17.56 C 35.32,156.74 10.67,76.03 39.04,49.08 Z"/>
  <path style="opacity:0.20;fill:#ffffff" d="M 123.95 37.00 C 79.03 36.69 18.80 71.32 18.01 101.95 C 18.00 102.17 18.03 102.38 18.03 102.60 C 19.50 66.37 103.52 24.78 146.85 42.02 C 164.27 48.94 173.57 77.32 173.98 97.34 C 173.88 77.27 164.56 48.06 146.85 41.02 C 140.06 38.32 132.26 37.06 123.95 37.00 z "/>
  <path style="fill:#ea33bb" d="m 39.04,46.08 c 26.28,-24.96 115.41,5.01 133.86,47.87 7.92,18.38 -8.06,47.56 -22.83,61.04 -15.29,13.96 -47.91,25.15 -67.14,17.56 C 35.32,153.74 10.67,73.03 39.04,46.08 Z"/>
  <path style="filter:url(#filter20000);opacity:0.20;fill:#000000" d="m 96,53 a 8,8 0 0 0 -8,8 V 83 H 65 c -3.88,0 -7,3.12 -7,7 v 14 h 76 V 90 c 0,-3.88 -3.12,-7 -7,-7 H 104 V 61 a 8,8 0 0 0 -8,-8 z m -38,54 c 0,4.23 0.55,27.86 -6.50,29 h 19.12 l 2.70,-8.57 2.12,8.57 H 94.14 L 96,127.71 97.86,136 h 18.70 l 2.12,-8.57 L 121.38,136 H 140.50 C 134.55,134.86 134,111.23 134,107 H 96 Z"/>
  <path style="fill:#ffffff" d="M 96 51 A 8 8 0 0 0 88 59 L 88 81 L 65 81 C 61.12 81 58 84.12 58 88 L 58 102 L 134 102 L 134 88 C 134 84.12 130.88 81 127 81 L 104 81 L 104 59 A 8 8 0 0 0 96 51 z M 58 105 C 58 109.23 57.45 132.86 51.50 134 L 70.62 134 L 73.32 125.43 L 75.45 134 L 94.14 134 L 96 125.71 L 97.86 134 L 116.55 134 L 118.68 125.43 L 121.38 134 L 140.50 134 C 134.55 132.86 134 109.23 134 105 L 96 105 L 58 105 z "/>
  <path style="opacity:0.20;fill:#ffffff" d="M 68.44 37 C 56.10 37.03 45.61 39.84 39.04 46.08 C 30.90 53.81 27.14 65.98 27.02 79.84 C 27.31 66.40 31.09 54.63 39.04 47.08 C 65.32 22.12 154.44 52.09 172.90 94.95 C 174.29 98.18 174.93 101.75 174.98 105.51 C 175.04 101.38 174.42 97.47 172.90 93.95 C 159.06 61.81 105.46 36.91 68.44 37 z "/>
</svg>
