<?xml version='1.0' encoding='utf-8'?>
<svg xmlns="http://www.w3.org/2000/svg" width="192" height="192" version="1.1" id="svg14">
  <defs>
    <filter style="color-interpolation-filters:sRGB" id="filter6159" x="-0.048000001" y="-0.048000001" width="1.096" height="1.096">
      <feGaussianBlur stdDeviation="3.2"/>
    </filter>
  </defs>
  <circle style="fill:#3f3f3f" cx="96" cy="96" r="54"/>
  <path style="filter:url(#filter6159);opacity:0.2;fill:#000000" d="m 96,20 a 80,80 0 0 0 -80,80 80,80 0 0 0 80,80 80,80 0 0 0 80,-80 80,80 0 0 0 -80,-80 z m 0,28 a 52,52 0 0 1 52,52 52,52 0 0 1 -52,52 52,52 0 0 1 -52,-52 52,52 0 0 1 52,-52 z m 23.34375,18.019531 a 3,3 0 0 0 -0.7832,0.01367 3,3 0 0 0 -1.97071,1.179688 L 95.972656,95.001953 A 5,5 0 0 0 91,100 a 5,5 0 0 0 5,5 5,5 0 0 0 5,-5 5,5 0 0 0 -0.20703,-1.423828 l 20.61719,-27.789063 a 3,3 0 0 0 -0.62305,-4.197265 3,3 0 0 0 -1.44336,-0.570313 z"/>
  <path style="fill:#ff9b0a" d="M 96 16 A 80 80 0 0 0 16 96 A 80 80 0 0 0 96 176 A 80 80 0 0 0 176 96 A 80 80 0 0 0 96 16 z M 96 44 A 52 52 0 0 1 148 96 A 52 52 0 0 1 96 148 A 52 52 0 0 1 44 96 A 52 52 0 0 1 96 44 z M 119.34375 62.019531 A 3 3 0 0 0 118.56055 62.033203 A 3 3 0 0 0 116.58984 63.212891 L 95.972656 91.001953 A 5 5 0 0 0 91 96 A 5 5 0 0 0 96 101 A 5 5 0 0 0 101 96 A 5 5 0 0 0 100.79297 94.576172 L 121.41016 66.787109 A 3 3 0 0 0 120.78711 62.589844 A 3 3 0 0 0 119.34375 62.019531 z "/>
  <path style="opacity:0.2;fill:#ffffff" d="M 96 16 A 80 80 0 0 0 16 96 A 80 80 0 0 0 16.035156 96.5 A 80 80 0 0 1 96 17 A 80 80 0 0 1 175.98242 96.253906 A 80 80 0 0 0 176 96 A 80 80 0 0 0 96 16 z M 119.34375 62.019531 A 3 3 0 0 0 118.56055 62.033203 A 3 3 0 0 0 116.58984 63.212891 L 95.972656 91.001953 A 5 5 0 0 0 91 96 A 5 5 0 0 0 91.134766 96.5 A 5 5 0 0 1 95.972656 92.001953 L 116.58984 64.212891 A 3 3 0 0 1 118.56055 63.033203 A 3 3 0 0 1 119.34375 63.019531 A 3 3 0 0 1 120.78711 63.589844 A 3 3 0 0 1 121.94727 65.554688 A 3 3 0 0 0 120.78711 62.589844 A 3 3 0 0 0 119.34375 62.019531 z M 100.91406 95.412109 L 100.79297 95.576172 A 5 5 0 0 1 100.90625 96.351562 A 5 5 0 0 0 101 96 A 5 5 0 0 0 100.91406 95.412109 z M 147.97656 96.257812 A 52 52 0 0 1 96 148 A 52 52 0 0 1 44.042969 96.5 A 52 52 0 0 0 44 97 A 52 52 0 0 0 96 149 A 52 52 0 0 0 148 97 A 52 52 0 0 0 147.97656 96.257812 z "/>
</svg>
