<?xml version='1.0' encoding='utf-8'?>
<svg xmlns="http://www.w3.org/2000/svg" width="192" height="192" version="1" id="svg18">
  <defs>
    <filter style="color-interpolation-filters:sRGB" id="filter859" x="-0.048000001" width="1.096" y="-0.048000001" height="1.096">
      <feGaussianBlur stdDeviation="3.2"/>
    </filter>
    <filter style="color-interpolation-filters:sRGB" id="filter875" x="-0.047999999" width="1.096" y="-0.047999999" height="1.096">
      <feGaussianBlur stdDeviation="1.92"/>
    </filter>
    <filter style="color-interpolation-filters:sRGB" id="filter907" x="-0.052619896" width="1.1052398" y="-0.044125862" height="1.0882517">
      <feGaussianBlur stdDeviation="1.1400977"/>
    </filter>
  </defs>
  <rect style="filter:url(#filter859);opacity:0.2;fill:#000000" width="160" height="160" x="-180" y="-176" rx="80" ry="80" transform="matrix(0,-1,-1,0,0,0)"/>
  <rect transform="matrix(0,-1,-1,0,0,0)" ry="80" rx="80" y="-176" x="-176" height="160" width="160" style="fill:#604abf"/>
  <path style="opacity:0.1;fill:#ffffff" d="M 96 16 C 51.684 16 16.007812 51.68 16.007812 96 C 16.007812 96.33544 16.009812 96.667215 16.007812 97 C 16.007812 52.68 51.684 17 96 17 C 140.316 17 175.99219 52.68 175.99219 97 C 175.99019 96.667215 175.99219 96.33544 175.99219 96 C 175.99219 51.68 140.316 16 96 16 z "/>
  <path d="m 96,52 a 48,48 0 0 0 -48,48 48,48 0 0 0 48,48 48,48 0 0 0 48,-48 48,48 0 0 0 -0.28908,-4.8125 A 30.592241,30.592241 0 0 1 120,65.406248 30.592241,30.592241 0 0 1 120.71094,58.914064 48,48 0 0 0 96,52 Z" style="filter:url(#filter875);opacity:0.2"/>
  <path d="M 96,48 A 48,48 0 0 0 48,96 48,48 0 0 0 96,144 48,48 0 0 0 144,96 48,48 0 0 0 143.71094,91.1875 30.592241,30.592241 0 0 1 120,61.406248 30.592241,30.592241 0 0 1 120.71094,54.914064 48,48 0 0 0 96,48 Z" style="fill:#ffffb4"/>
  <path style="opacity:0.15" d="M 90 64 A 14 14 0 0 0 76 78 A 14 14 0 0 0 90 92 A 14 14 0 0 0 104 78 A 14 14 0 0 0 90 64 z M 110 68 A 6 6 0 0 0 104 74 A 6 6 0 0 0 110 80 A 6 6 0 0 0 116 74 A 6 6 0 0 0 110 68 z M 120 76 A 8 8 0 0 0 112 84 A 8 8 0 0 0 120 92 A 8 8 0 0 0 128 84 A 8 8 0 0 0 127.59766 81.513672 A 30.592241 30.592241 0 0 1 124.57422 77.447266 A 8 8 0 0 0 120 76 z M 96 116 A 8 8 0 0 0 88 124 A 8 8 0 0 0 96 132 A 8 8 0 0 0 104 124 A 8 8 0 0 0 96 116 z "/>
  <path style="opacity:0.2;fill:#ffffff" d="M 96 48 A 48 48 0 0 0 48 96 A 48 48 0 0 0 48.021484 96.416016 A 48 48 0 0 1 96 49 A 48 48 0 0 1 120.54688 55.826172 A 30.592241 30.592241 0 0 1 120.71094 54.914062 A 48 48 0 0 0 96 48 z M 120.01562 62.107422 A 30.592241 30.592241 0 0 0 120 62.40625 A 30.592241 30.592241 0 0 0 143.71094 92.1875 A 48 48 0 0 1 143.97852 96.626953 A 48 48 0 0 0 144 96 A 48 48 0 0 0 143.71094 91.1875 A 30.592241 30.592241 0 0 1 120.01562 62.107422 z "/>
  <path style="filter:url(#filter907);opacity:0.2" d="M 90 64 A 14 14 0 0 0 76 78 A 14 14 0 0 0 76.158203 79.986328 A 14 14 0 0 1 90 68 A 14 14 0 0 1 103.8418 80.013672 A 14 14 0 0 0 104 78 A 14 14 0 0 0 90 64 z M 110 68 A 6 6 0 0 0 104 74 A 6 6 0 0 0 104.35156 75.998047 A 6 6 0 0 1 110 72 A 6 6 0 0 1 115.64844 76.001953 A 6 6 0 0 0 116 74 A 6 6 0 0 0 110 68 z M 120 76 A 8 8 0 0 0 115.92773 77.123047 A 6 6 0 0 1 116 78 A 6 6 0 0 1 112.01172 83.644531 A 8 8 0 0 0 112 84 A 8 8 0 0 0 112.26172 85.990234 A 8 8 0 0 1 120 80 A 8 8 0 0 1 124.57422 81.447266 A 30.592241 30.592241 0 0 0 127.59766 85.513672 A 8 8 0 0 1 127.73633 86.021484 A 8 8 0 0 0 128 84 A 8 8 0 0 0 127.59766 81.513672 A 30.592241 30.592241 0 0 1 124.57422 77.447266 A 8 8 0 0 0 120 76 z M 96 116 A 8 8 0 0 0 88 124 A 8 8 0 0 0 88.261719 125.99023 A 8 8 0 0 1 96 120 A 8 8 0 0 1 103.73828 126.00977 A 8 8 0 0 0 104 124 A 8 8 0 0 0 96 116 z "/>
</svg>
