<?xml version='1.0' encoding='utf-8'?>
<svg xmlns="http://www.w3.org/2000/svg" width="192" height="192" version="1" id="svg34">
  <defs>
    <filter style="color-interpolation-filters:sRGB" id="filter889" x="0.05" y="0.11" width="1.09" height="1.23">
      <feGaussianBlur stdDeviation="2.48"/>
    </filter>
    <filter style="color-interpolation-filters:sRGB" id="filter893" x="0.05" y="0.05" width="1.10" height="1.10">
      <feGaussianBlur stdDeviation="1.60"/>
    </filter>
    <filter style="color-interpolation-filters:sRGB" id="filter897" x="0.05" y="0.05" width="1.10" height="1.10">
      <feGaussianBlur stdDeviation="2.08"/>
    </filter>
    <filter style="color-interpolation-filters:sRGB" id="filter902" x="0.05" y="0.05" width="1.10" height="1.10">
      <feGaussianBlur stdDeviation="1.60"/>
    </filter>
    <filter style="color-interpolation-filters:sRGB" id="filter906" x="0.05" y="0.05" width="1.10" height="1.10">
      <feGaussianBlur stdDeviation="0.96"/>
    </filter>
  </defs>
  <path style="filter:url(#filter889);opacity:0.20" d="m 154,102 a 26,26 0 0 0 -25.27,20 H 91.19 A 40,40 0 0 1 52,154 h 102 a 26,26 0 0 0 26,-26 26,26 0 0 0 -26,-26 z"/>
  <path style="fill:#138985" d="m 154,98 a 26,26 0 0 0 -25.27,20 H 52 v 32 h 102 a 26,26 0 0 0 26,-26 26,26 0 0 0 -26,-26 z"/>
  <path style="opacity:0.10;fill:#ffffff" d="M 154 98 A 26 26 0 0 0 128.73 118 L 52 118 L 52 119 L 128.73 119 A 26 26 0 0 1 154 99 A 26 26 0 0 1 179.98 124.43 A 26 26 0 0 0 180 124 A 26 26 0 0 0 154 98 z "/>
  <circle style="filter:url(#filter906);opacity:0.20" cx="144" cy="96" r="24"/>
  <circle style="filter:url(#filter893);opacity:0.20" cx="52" cy="114" r="40"/>
  <circle style="fill:#16aca8" cx="52" cy="110" r="40"/>
  <path style="opacity:0.10;fill:#ffffff" d="M 52 70 A 40 40 0 0 0 12 110 A 40 40 0 0 0 12.02 110.64 A 40 40 0 0 1 52 71 A 40 40 0 0 1 91.98 110.29 A 40 40 0 0 0 92 110 A 40 40 0 0 0 52 70 z "/>
  <circle style="fill:#16aca8" cx="144" cy="94" r="24"/>
  <path style="opacity:0.10;fill:#ffffff" d="M 144 70 A 24 24 0 0 0 120 94 A 24 24 0 0 0 120.03 94.56 A 24 24 0 0 1 144 71 A 24 24 0 0 1 167.98 94.30 A 24 24 0 0 0 168 94 A 24 24 0 0 0 144 70 z "/>
  <circle style="filter:url(#filter897);opacity:0.20" cx="96" cy="98" r="52"/>
  <circle style="fill:#1bd0cb" cx="96" cy="94" r="52"/>
  <path style="filter:url(#filter902);opacity:0.20" d="M 96,56 A 40,40 0 0 0 56,96 40,40 0 0 0 96,136 40,40 0 0 0 136,96 40,40 0 0 0 96,56 Z m 0,8 A 32,32 0 0 1 128,96 32,32 0 0 1 96,128 32,32 0 0 1 64,96 32,32 0 0 1 96,64 Z M 86,76 c -3.32,0 -6,2.68 -6,6 v 32 c 0,3.32 2.68,6 6,6 3.32,0 6,-2.68 6,-6 v -6 h 12 c 8.84,0 16,-7.16 16,-16 0,-8.84 -7.16,-16 -16,-16 z m 6,12 h 12 c 2.35,0 4,1.65 4,4 0,2.35 -1.65,4 -4,4 H 92 Z"/>
  <path style="fill:#ffffff" d="M 96,54 A 40,40 0 0 0 56,94 40,40 0 0 0 96,134 40,40 0 0 0 136,94 40,40 0 0 0 96,54 Z m 0,8 A 32,32 0 0 1 128,94 32,32 0 0 1 96,126 32,32 0 0 1 64,94 32,32 0 0 1 96,62 Z"/>
  <path style="fill:#ffffff" d="m 86,74 c -3.32,0 -6,2.68 -6,6 v 32 c 0,3.32 2.68,6 6,6 3.32,0 6,-2.68 6,-6 v -6 h 12 c 8.84,0 16,-7.16 16,-16 0,-8.84 -7.16,-16 -16,-16 z m 6,12 h 12 c 2.35,0 4,1.65 4,4 0,2.35 -1.65,4 -4,4 H 92 Z"/>
  <path style="opacity:0.20;fill:#ffffff" d="M 96 42 A 52 52 0 0 0 44 94 A 52 52 0 0 0 44.02 94.64 A 52 52 0 0 1 96 43 A 52 52 0 0 1 147.98 94.30 A 52 52 0 0 0 148 94 A 52 52 0 0 0 96 42 z "/>
</svg>
