<?xml version='1.0' encoding='utf-8'?>
<svg xmlns="http://www.w3.org/2000/svg" width="192" height="192" version="1.1" id="svg14">
  <defs>
    <filter style="color-interpolation-filters:sRGB" id="filter26607" x="0.04" y="0.06" width="1.08" height="1.12">
      <feGaussianBlur stdDeviation="2.09"/>
    </filter>
    <filter style="color-interpolation-filters:sRGB" id="filter26910" x="0.05" y="0.05" width="1.10" height="1.10">
      <feGaussianBlur stdDeviation="3.20"/>
    </filter>
    <filter style="color-interpolation-filters:sRGB" id="filter26914" x="0.04" y="0.05" width="1.09" height="1.11">
      <feGaussianBlur stdDeviation="2.00"/>
    </filter>
    <filter style="color-interpolation-filters:sRGB" id="filter26929" x="0.04" y="0.05" width="1.09" height="1.11">
      <feGaussianBlur stdDeviation="1.86"/>
    </filter>
    <filter style="color-interpolation-filters:sRGB" id="filter26933" x="0.05" y="0.05" width="1.09" height="1.10">
      <feGaussianBlur stdDeviation="1.75"/>
    </filter>
  </defs>
  <path style="filter:url(#filter26914);opacity:0.20;fill:#000000" d="M 127.63,180.00 H 48 c -17.73,0 -32,-14.27 -32,-32 V 91.50 Z"/>
  <path style="filter:url(#filter26910);opacity:0.20;fill:#000000" d="m 48,20.00 h 96 c 17.73,0 32,14.27 32,32 v 96.00 c 0,17.73 -14.27,32 -32,32 H 123.72 C 65.89,155.43 25.12,126.90 16,91.50 V 52.00 c 0,-17.73 14.27,-32 32,-32 z"/>
  <path style="fill:#d72628" d="M 127.63,176 H 48 C 30.27,176 16,161.73 16,144 V 87.50 Z"/>
  <path style="fill:#e44065" d="m 48,16 h 96 c 17.73,0 32,14.27 32,32 v 96 c 0,17.73 -14.27,32 -32,32 H 123.72 C 65.89,151.43 25.12,122.90 16,87.50 V 48 C 16,30.27 30.27,16 48,16 Z"/>
  <path style="opacity:0.20;fill:#ffffff" d="M 48,16 C 30.27,16 16,30.27 16,48 v 1 C 16,31.27 30.27,17 48,17 h 96 c 17.73,0 32,14.27 32,32 V 48 C 176,30.27 161.73,16 144,16 Z"/>
  <path style="filter:url(#filter26933);opacity:0.20;fill:#000000" d="m 16,91.59 v 2.20 C 16,119.70 21.41,162.76 54.00,176 H 106.87 C 51.72,159.82 29.82,125.42 16,91.59 Z"/>
  <path style="fill:#e94849" d="M 122.92,176 H 76 C 23.69,176 16,120.69 16,89.79 v -2.20 C 31.09,124.54 55.78,162.17 122.92,176 Z"/>
  <path style="filter:url(#filter26929);opacity:0.20;fill:#000000" d="m 16,91.50 v 1.24 C 17.21,102.55 42.55,159.56 104.16,176 h 13.19 c -3.45,-3.05 -5.91,-7.52 -7.16,-12.25 0.17,0.64 0.31,-1.29 0.46,-1.94 L 81.76,139.63 C 73.10,138.91 63.48,137.93 55.87,136.15 40.54,132.57 25.08,114.00 16,91.50 Z"/>
  <path style="fill:#ff9354" d="m 16,87.50 c 9.08,22.51 24.54,41.07 39.87,44.65 12.09,2.82 29.57,3.72 39.49,4.60 11.86,1.06 12.07,12.56 14.84,23.00 2.27,8.56 8.45,16.28 17.43,16.25 C 44.92,169.45 14.26,92.43 16,87.50 Z"/>
  <path style="filter:url(#filter26607);opacity:0.20;fill:#000000" d="m 62,25 a 5,5 0 0 0 -5,5 5,5 0 0 0 5,5 5,5 0 0 0 5,-5 5,5 0 0 0 -5,-5 z m 68,0 a 5,5 0 0 0 -5,5 5,5 0 0 0 5,5 5,5 0 0 0 5,-5 5,5 0 0 0 -5,-5 z M 40,62 v 5 17 5 18 5 h 32 v -5 H 45 V 89 H 72 V 84 H 45 V 67 H 72 V 62 H 45 Z m 35.34,10 16.78,40 h 5.42 L 114.31,72 h -5.42 L 94.82,105.54 80.76,72 Z M 134,72 c -10.09,0 -18,9.14 -18,20 0,10.86 8.61,20 18.70,20 5.16,0 11.78,-2.40 15.67,-6.20 l -3.36,-3.86 C 143.85,105.06 138.62,107 134.80,107 128.05,107 121.48,100.98 121.03,93 H 151.91 V 90 C 151.01,80.04 143.46,72 134,72 Z m 0,5 c 6.47,0 12.03,3.53 12.88,11 H 121.12 C 121.97,80.53 127.53,77 134,77 Z m 24,27 a 4,4 0 0 0 -4,4 4,4 0 0 0 4,4 4,4 0 0 0 4,-4 4,4 0 0 0 -4,-4 z"/>
  <path style="fill:#ffffff" d="m 62,23 a 5,5 0 0 0 -5,5 5,5 0 0 0 5,5 5,5 0 0 0 5,-5 5,5 0 0 0 -5,-5 z m 68,0 a 5,5 0 0 0 -5,5 5,5 0 0 0 5,5 5,5 0 0 0 5,-5 5,5 0 0 0 -5,-5 z M 40,60 v 5 17 5 18 5 h 32 v -5 H 45 V 87 H 72 V 82 H 45 V 65 H 72 V 60 H 45 Z m 35.34,10 16.78,40 h 5.42 L 114.31,70 h -5.42 L 94.82,103.54 80.76,70 Z M 134,70 c -10.09,0 -18,9.14 -18,20 0,10.86 8.61,20 18.70,20 5.16,0 11.78,-2.40 15.67,-6.20 l -3.36,-3.86 C 143.85,103.06 138.62,105 134.80,105 128.05,105 121.48,98.98 121.03,91 H 151.91 V 88 C 151.01,78.04 143.46,70 134,70 Z m 0,5 c 6.47,0 12.03,3.53 12.88,11 H 121.12 C 121.97,78.53 127.53,75 134,75 Z m 24,27 a 4,4 0 0 0 -4,4 4,4 0 0 0 4,4 4,4 0 0 0 4,-4 4,4 0 0 0 -4,-4 z"/>
  <path style="opacity:0.20;fill:#ffffff" d="m 16,87.50 c 0.08,0.22 0.07,0.63 0.01,1.13 0.01,0.04 0.00,0.10 0.01,0.13 9.08,22.51 24.54,41.07 39.87,44.65 12.09,2.82 29.57,3.72 39.49,4.60 11.86,1.06 12.07,12.56 14.83,23.00 1.61,6.10 5.23,11.75 10.41,14.50 1.42,0.19 2.85,0.35 4.30,0.49 -7.51,-1.35 -12.69,-8.33 -14.71,-15.99 -2.77,-10.45 -2.97,-21.94 -14.83,-23.00 -9.92,0.88 -27.40,-1.78 -39.49,-4.60 C 40.54,128.57 25.08,110.00 16,87.50 Z m 108.91,88.25 c 0.88,0.16 1.78,0.26 2.72,0.25 0.91,0.07 -1.81,0.16 -2.72,0.25 z"/>
</svg>
