<svg xmlns="http://www.w3.org/2000/svg" id="svg14" width="192" height="192" version="1"><defs><filter style="color-interpolation-filters:sRGB" id="filter850" width="1.1" height="1.1" x=".05" y=".05"><feGaussianBlur stdDeviation="3.2"/></filter><filter style="color-interpolation-filters:sRGB" id="filter23379" width="1.22" height="1.21" x=".11" y=".1"><feGaussianBlur stdDeviation="3.46"/></filter></defs><circle style="filter:url(#filter850);opacity:.2;fill:#000" cx="96" cy="100" r="80"/><path style="fill:#1184dd" d="m 176,96 c 0,39.54 -28.68,72.38 -66.37,78.84 -4.43,0.76 -9.41,-5.19 -14.06,-5.19 -44.18,0 -72.92,-30.62 -72.92,-74.80 0,-44.18 29.17,-72.25 73.35,-72.25 23.23,0 44.16,3.31 58.77,19.13 C 167.95,55.98 176,75.05 176,96 Z"/><path style="fill:#249cf9" d="M 114.96 18.29 L 18.37 114.55 A 80 80 0 0 0 96 176 A 80 80 0 0 0 111.54 174.28 L 155.45 42.48 A 80 80 0 0 0 114.96 18.29 z"/><path style="fill:#58b6ff" d="M 96 16 A 80 80 0 0 0 16 96 A 80 80 0 0 0 20.10 120.83 L 120.92 20.01 A 80 80 0 0 0 96 16 z"/><path style="opacity:.2;fill:#fff" d="M 96 16 A 80 80 0 0 0 16 96 A 80 80 0 0 0 16.02 96.47 A 80 80 0 0 1 96 17 A 80 80 0 0 1 175.97 96.51 A 80 80 0 0 0 176 96 A 80 80 0 0 0 96 16 z"/><path style="filter:url(#filter23379);opacity:.2;fill:#000" d="m 96,54 c -2.91,0 -5.29,2.39 -5.29,5.31 0,0.16 0.00,0.37 0.05,0.53 C 78.66,62.28 69,72.95 69,85.85 V 109.73 L 59,120.35 V 123 H 69.57 122.43 133 v -2.65 L 123,109.73 V 96.46 85.85 c 0,-12.90 -9.66,-23.57 -21.77,-26.01 0.05,0.16 0.05,0.37 0.05,0.53 C 101.29,56.39 98.91,54 96,54 Z m -10.38,74 c 2.16,3.72 6.12,6 10.38,6 4.26,0 8.22,-2.28 10.38,-6 z"/><path style="fill:#fff" d="M 96 52 C 93.09 52 90.71 54.39 90.71 57.31 C 90.71 57.47 90.71 57.68 90.77 57.84 C 78.66 60.28 69 70.95 69 83.85 L 69 107.73 L 59 118.35 L 59 121 L 69.57 121 L 122.43 121 L 133 121 L 133 118.35 L 123 107.73 L 123 94.46 L 123 83.85 C 123 70.95 113.34 60.28 101.23 57.84 C 101.29 57.68 101.29 57.47 101.29 57.31 C 101.29 54.39 98.91 52 96 52 z M 85.62 126 C 87.78 129.72 91.74 132 96 132 C 100.26 132 104.22 129.72 106.38 126 L 85.62 126 z"/></svg>