<?xml version='1.0' encoding='utf-8'?>
<svg xmlns="http://www.w3.org/2000/svg" width="192" height="192" version="1" id="svg14">
  <defs>
    <filter style="color-interpolation-filters:sRGB" id="filter850" x="0.05" width="1.10" y="0.05" height="1.10">
      <feGaussianBlur stdDeviation="3.20"/>
    </filter>
    <filter style="color-interpolation-filters:sRGB" id="filter963" x="0.03" width="1.07" y="0.09" height="1.17">
      <feGaussianBlur stdDeviation="1.68"/>
    </filter>
  </defs>
  <circle style="filter:url(#filter850);opacity:0.20;fill:#000000" cx="96" cy="100" r="80"/>
  <circle r="80" cy="96" cx="96" style="fill:#3f3f3f"/>
  <path style="opacity:0.10;fill:#ffffff" d="M 96.00 16 A 80 80 0 0 0 16 96 A 80 80 0 0 0 16.02 96.49 A 80 80 0 0 1 96.00 17 L 96 17 A 80 80 0 0 1 175.97 96.50 A 80 80 0 0 0 176.00 96 A 80 80 0 0 0 96 16 L 96.00 16 z "/>
  <path style="filter:url(#filter963);opacity:0.20;fill:#000000" d="m 143.39,76.02 c -1.10,0.05 -2.23,0.00 -3.39,0.17 v 9.91 c 1.87,0.10 3.49,0.59 4.16,1.98 1.07,2.19 0.04,5.48 -2.63,8.52 -4.00,4.70 -14.65,14.32 -14.65,14.32 l 15.29,0.50 c 9.34,-9.07 12.69,-14.58 13.29,-21.46 0.32,-3.64 -1.01,-7.14 -3.64,-9.62 -2.16,-2.03 -5.13,-3.16 -8.43,-3.32 z m -5.39,0.39 c -9.03,1.91 -13.47,8.50 -12.96,19.25 l 9.63,0.85 C 134.23,88.74 136.10,87.29 138,86.50 Z M 122,80.00 109,81.86 v 8.94 l 13,-1.45 z m -15,2 -9,1.27 v 38.85 h 9 z m -24,3 -8,1.11 v 35.58 h 8 z m -11,2 -10,1.40 v 7.51 L 72,94.82 Z m -11,1.58 -7,0.97 v 32.66 h 7 z m -9,1.42 -18,2.53 v 6.67 L 52,97.22 Z m 66,6.77 -9,0.74 v 9.10 l 9,0.47 z m -72,2.12 -6,0.67 v 22.76 h 6 z m 22,2.05 -6,0.56 v 7.65 l 6,0.36 z m 88,10.69 -31,0.93 0.00,9.44 H 156 Z m -34,1.24 -13,0.40 v 8.95 h 13 z m -27,0.27 -11,0.35 v 8.21 h 11 z m -23,1.23 -10,0.30 v 7.54 h 10 z"/>
  <path style="fill:#ffffff" d="m 143.39,72.02 c -1.10,0.05 -2.23,0.00 -3.39,0.17 v 9.91 c 1.87,0.10 3.49,0.59 4.16,1.98 1.07,2.19 0.04,5.48 -2.63,8.52 -4.00,4.70 -14.65,14.32 -14.65,14.32 l 15.29,0.50 c 9.34,-9.07 12.69,-14.58 13.29,-21.46 0.32,-3.64 -1.01,-7.14 -3.64,-9.62 -2.16,-2.03 -5.13,-3.16 -8.43,-3.32 z m -5.39,0.39 c -9.03,1.91 -13.47,8.50 -12.96,19.25 l 9.63,0.85 C 134.23,84.74 136.10,83.29 138,82.50 Z M 122,76.00 109,77.86 v 8.94 l 13,-1.45 z m -15,2 -9,1.27 v 38.85 h 9 z m -24,3 -8,1.11 v 35.58 h 8 z m -11,2 -10,1.40 v 7.51 L 72,90.82 Z M 61,84.58 54,85.55 V 118.21 h 7 z m -9,1.42 -18,2.53 v 6.67 l 18,-1.98 z m 66,6.77 -9,0.74 v 9.10 l 9,0.47 z m -72,2.12 -6,0.67 v 22.76 h 6 z m 22,2.05 -6,0.56 v 7.65 l 6,0.36 z m 88,10.69 -31,0.93 0.00,9.44 H 156 Z m -34,1.24 -13,0.40 v 8.95 h 13 z m -27,0.27 -11,0.35 v 8.21 h 11 z m -23,1.23 -10,0.30 v 7.54 h 10 z"/>
</svg>
