<svg xmlns="http://www.w3.org/2000/svg" id="svg22" width="192" height="192" version="1.1"><defs><filter style="color-interpolation-filters:sRGB" id="filter865" width="1.1" height="1.1" x=".05" y=".05"><feGaussianBlur stdDeviation="2.5"/></filter><filter style="color-interpolation-filters:sRGB" id="filter887" width="1.09" height="1.09" x=".05" y=".05"><feGaussianBlur stdDeviation="1.69"/></filter><filter style="color-interpolation-filters:sRGB" id="filter897" width="1.1" height="1.1" x=".05" y=".05"><feGaussianBlur stdDeviation="2.08"/></filter></defs><path style="filter:url(#filter897);opacity:.2" d="m 72,73.84 22.29,22.29 5.57,5.57 L 122.16,124 l 22.29,-22.29 13.38,-13.38 8.91,-8.91 c 12.35,-12.35 12.35,-32.23 0,-44.58 l -5.57,-5.57 c -12.35,-12.35 -32.23,-12.35 -44.58,0 l -8.91,8.91 -13.38,13.38 z"/><path style="filter:url(#filter865);opacity:.2" d="m 123.69,60.23 c -6.69,-6.69 -17.47,-6.69 -24.16,0 L 45.18,114.58 c -4.48,4.48 -5.89,10.77 -4.38,16.46 l -19.78,19.78 c -6.69,6.69 -6.69,17.47 0.00,24.16 6.69,6.69 17.47,6.69 24.16,0 l 19.78,-19.78 c 5.69,1.52 11.98,0.10 16.46,-4.38 L 135.77,96.46 c 6.69,-6.69 6.69,-17.47 0.00,-24.16 L 123.69,60.23 Z"/><path style="fill:#e4e4e4" d="m 123.69,56.20 c -6.69,-6.69 -17.47,-6.69 -24.16,0 L 45.18,110.56 c -4.48,4.48 -5.89,10.77 -4.38,16.46 l -19.78,19.78 c -6.69,6.69 -6.69,17.47 0.00,24.16 6.69,6.69 17.47,6.69 24.16,0 l 19.78,-19.78 c 5.69,1.52 11.98,0.10 16.46,-4.38 L 135.77,92.44 c 6.69,-6.69 6.69,-17.47 0.00,-24.16 L 123.69,56.20 Z"/><path style="opacity:.2;fill:#fff" d="M 111.62 51.18 C 107.25 51.18 102.89 52.85 99.54 56.20 L 45.18 110.55 C 41.72 114.02 40.12 118.56 40.26 123.07 C 40.37 118.89 41.97 114.76 45.18 111.55 L 99.54 57.20 C 102.89 53.85 107.25 52.18 111.62 52.18 C 115.98 52.18 120.35 53.85 123.70 57.20 L 135.77 69.28 C 139.00 72.51 140.59 76.68 140.69 80.88 C 140.85 76.34 139.26 71.76 135.77 68.28 L 123.70 56.20 C 120.35 52.85 115.98 51.18 111.62 51.18 z M 40.27 127.54 L 21.02 146.80 C 17.53 150.28 15.94 154.86 16.10 159.40 C 16.20 155.19 17.79 151.02 21.02 147.80 L 40.27 128.54 C 40.32 129.43 40.45 130.33 40.63 131.21 L 40.80 131.04 C 40.50 129.89 40.34 128.72 40.27 127.54 z"/><path style="fill:#ff9913" d="m 72,69.84 22.29,22.29 5.57,5.57 L 122.16,120 l 22.29,-22.29 13.38,-13.38 8.91,-8.91 c 12.35,-12.35 12.35,-32.23 0,-44.58 l -5.57,-5.57 c -12.35,-12.35 -32.23,-12.35 -44.58,0 l -8.91,8.91 -13.38,13.38 z"/><path style="opacity:.2;fill:#fff" d="M 138.88 16 C 130.82 16 122.76 19.09 116.59 25.27 L 107.67 34.18 L 94.29 47.55 L 72 69.84 L 72.50 70.34 L 94.29 48.55 L 107.67 35.18 L 116.59 26.27 C 122.76 20.09 130.82 17 138.88 17 C 146.93 17 154.99 20.09 161.16 26.27 L 166.73 31.84 C 172.82 37.92 175.87 45.83 175.95 53.76 C 176.12 45.49 173.07 37.17 166.73 30.84 L 161.16 25.27 C 154.99 19.09 146.93 16 138.88 16 z"/><path style="filter:url(#filter887);opacity:.2" d="m 67.96,51.00 a 11.96,11.96 0 0 0 -8.33,20.54 L 123.41,135.32 A 11.96,11.96 0 1 0 140.32,118.41 L 76.54,54.63 a 11.96,11.96 0 0 0 -8.58,-3.63 z"/><path style="fill:#ffbc48" d="m 67.96,48.00 a 11.96,11.96 0 0 0 -8.33,20.54 l 63.78,63.78 a 11.96,11.96 0 1 0 16.91,-16.91 L 76.54,51.63 A 11.96,11.96 0 0 0 67.96,48.00 Z"/><rect style="fill:#4e79ff" width="16.66" height="66.62" x="127.44" y="31.76" rx="8.33" ry="8.33" transform="rotate(45)"/><path style="opacity:.2;fill:#fff" d="M 67.96 48 A 11.96 11.96 0 0 0 56.09 59.80 A 11.96 11.96 0 0 1 67.96 49 A 11.96 11.96 0 0 1 76.54 52.62 L 140.32 116.41 A 11.96 11.96 0 0 1 143.98 124.52 A 11.96 11.96 0 0 0 140.32 115.41 L 76.54 51.62 A 11.96 11.96 0 0 0 67.96 48 z"/></svg>