<?xml version='1.0' encoding='utf-8'?>
<svg xmlns="http://www.w3.org/2000/svg" width="192" height="192" version="1" id="svg28">
  <defs>
    <filter style="color-interpolation-filters:sRGB" id="filter6495" x="0.05" y="0.05" width="1.10" height="1.10">
      <feGaussianBlur stdDeviation="3.20"/>
    </filter>
    <filter style="color-interpolation-filters:sRGB" id="filter14840" x="0.12" y="0.10" width="1.24" height="1.19">
      <feGaussianBlur stdDeviation="4.05"/>
    </filter>
  </defs>
  <rect transform="matrix(0,-1,-1,0,0,0)" ry="12" rx="12" y="-176" x="-180" height="160" width="160" style="filter:url(#filter6495);opacity:0.20;fill:#000000"/>
  <rect transform="matrix(0,-1,-1,0,0,0)" ry="12" rx="12" y="-176" x="-176" height="160" width="160" style="fill:#ffce0a"/>
  <path style="opacity:0.20;fill:#ffffff" d="m 28,16 c -6.65,0 -12,5.35 -12,12 v 1 c 0,-6.65 5.35,-12 12,-12 h 136 c 6.65,0 12,5.35 12,12 v -1 c 0,-6.65 -5.35,-12 -12,-12 z"/>
  <g aria-label="S" transform="matrix(1.05,0,0,0.95,0,2.00)" style="filter:url(#filter14840);opacity:0.20;fill:#000000">
    <path d="M 127.40,81.21 H 108.85 C 108.14,71.14 101.38,66.42 88.57,66.53 c -6.25,0.05 -13.49,5.28 -12.90,11.93 1.46,16.56 54.79,4.11 55.18,42.14 0,9.81 -3.49,17.49 -10.47,23.06 -6.98,5.48 -16.70,8.22 -29.16,8.22 -12.37,0 -22.00,-2.74 -28.89,-8.22 -6.80,-5.48 -10.51,-13.09 -11.13,-23.42 h 19.35 c 0.35,5.21 2.39,8.89 6.10,11.63 3.71,2.74 8.92,4.11 15.64,4.11 6.92,0.12 15.46,-5.47 14.74,-12.99 -1.45,-15.19 -15.53,-14.46 -26.93,-16.70 -9.81,-1.86 -16.98,-4.77 -21.13,-8.75 -4.15,-3.98 -6.81,-9.72 -6.81,-17.23 0,-9.45 3.77,-16.74 10.13,-21.87 6.45,-5.21 15.65,-7.82 27.22,-7.82 3.36,0 6.58,0.22 9.67,0.66 3.18,0.44 6.54,1.37 10.07,2.78 3.53,1.33 6.58,3.09 9.14,5.30 2.56,2.12 4.68,5.12 6.36,9.01 1.77,3.80 2.65,7.79 2.65,12.83 z" style="fill:#000000"/>
  </g>
  <g aria-label="S" transform="scale(1.05,0.95)" style="fill:#3f3f3f">
    <path d="M 127.40,81.21 H 108.85 C 108.14,71.14 101.38,66.42 88.57,66.53 c -6.25,0.05 -13.49,5.28 -12.90,11.93 1.46,16.56 54.79,4.11 55.18,42.14 0,9.81 -3.49,17.49 -10.47,23.06 -6.98,5.48 -16.70,8.22 -29.16,8.22 -12.37,0 -22.00,-2.74 -28.89,-8.22 -6.80,-5.48 -10.51,-13.09 -11.13,-23.42 h 19.35 c 0.35,5.21 2.39,8.89 6.10,11.63 3.71,2.74 8.92,4.11 15.64,4.11 6.92,0.12 15.46,-5.47 14.74,-12.99 -1.45,-15.19 -15.53,-14.46 -26.93,-16.70 -9.81,-1.86 -16.98,-4.77 -21.13,-8.75 -4.15,-3.98 -6.81,-9.72 -6.81,-17.23 0,-9.45 3.77,-16.74 10.13,-21.87 6.45,-5.21 15.65,-7.82 27.22,-7.82 3.36,0 6.58,0.22 9.67,0.66 3.18,0.44 6.54,1.37 10.07,2.78 3.53,1.33 6.58,3.09 9.14,5.30 2.56,2.12 4.68,5.12 6.36,9.01 1.77,3.80 2.65,7.79 2.65,12.83 z" style="fill:#3f3f3f"/>
  </g>
</svg>
