<?xml version='1.0' encoding='utf-8'?>
<svg xmlns="http://www.w3.org/2000/svg" width="192" height="192" version="1" id="svg16">
  <defs>
    <filter style="color-interpolation-filters:sRGB" id="filter864" x="0.05" width="1.10" y="0.05" height="1.10">
      <feGaussianBlur stdDeviation="3.20"/>
    </filter>
    <filter style="color-interpolation-filters:sRGB" id="filter2362" x="0.05" y="0.05" width="1.10" height="1.10">
      <feGaussianBlur stdDeviation="2.12"/>
    </filter>
  </defs>
  <rect style="filter:url(#filter864);opacity:0.20;fill:#000000" width="160" height="160" x="-180" y="-176" rx="80" ry="80" transform="matrix(0,-1,-1,0,0,0)"/>
  <rect transform="matrix(0,-1,-1,0,0,0)" ry="80" rx="80" y="-176" x="-176" height="160" width="160" style="fill:#14abfd"/>
  <path style="opacity:0.20;fill:#ffffff" d="M 96 16 C 51.68 16 16.01 51.68 16.01 96 C 16.01 96.34 16.01 96.67 16.01 97 C 16.01 52.68 51.68 17 96 17 C 140.32 17 175.99 52.68 175.99 97 C 175.99 96.67 175.99 96.34 175.99 96 C 175.99 51.68 140.32 16 96 16 z "/>
  <path style="fill:none" d="M 126,97.10 96.00,114.60 66,132.10 V 97.10 62.10 l 30.00,17.50 z"/>
  <path style="filter:url(#filter2362);opacity:0.20;fill:#000000" d="m 96,45.00 a 53,53 0 0 0 -53,53 53,53 0 0 0 53,53 53,53 0 0 0 52.92,-51.84 l -6.20,2.42 A 47,47 0 0 1 96,145.00 a 47,47 0 0 1 -47,-47 47,47 0 0 1 47,-47 47,47 0 0 1 41.29,24.59 l 5.63,-2.20 A 53,53 0 0 0 96,45.00 Z m 47.40,38.01 c -3.18,0.11 -8.63,1.49 -16.49,4.17 l -9.84,3.35 -15.71,-3.91 C 88.13,83.31 85.15,82.88 82.53,83.88 l -3.11,1.18 8.92,5.12 c 4.90,2.82 9.61,5.55 10.45,6.07 1.13,0.70 0.23,1.55 -5.20,3.23 -7.44,2.51 -12.76,2.86 -17.66,1.15 -2.39,0.83 -3.85,0.80 -5.58,0.13 L 68,102.01 l 2.54,2.04 c 1.40,1.12 4.90,3.22 7.79,4.66 7.99,3.98 13.99,3.09 36.24,-5.37 26.89,-10.22 33.97,-14.44 32.16,-19.18 0.32,0.84 -1.42,-1.24 -3.33,-1.17 z"/>
  <path style="fill:#ffffff" d="m 114.57,101.35 c 26.89,-10.22 33.97,-14.44 32.16,-19.18 0.86,-2.25 -7.24,-1.29 -19.82,3.00 l -9.84,3.35 -15.71,-3.91 C 88.13,81.31 85.15,80.88 82.53,81.87 l -3.11,1.18 8.92,5.12 c 4.90,2.82 9.61,5.55 10.45,6.07 1.13,0.70 0.23,1.55 -5.20,3.23 -7.44,2.51 -12.76,2.86 -17.66,1.15 -2.39,0.83 -3.85,0.80 -5.59,0.13 L 68,100.01 l 2.54,2.04 c 1.40,1.12 4.90,3.22 7.79,4.66 7.99,3.98 13.99,3.09 36.24,-5.37 z"/>
  <path style="fill:#8ad5fe" d="M 96 43 A 53 53 0 0 0 43 96 A 53 53 0 0 0 96 149 A 53 53 0 0 0 148.92 97.16 L 142.72 99.58 A 47 47 0 0 1 96 143 A 47 47 0 0 1 49 96 A 47 47 0 0 1 96 49 A 47 47 0 0 1 137.29 73.59 L 142.93 71.39 A 53 53 0 0 0 96 43 z "/>
</svg>
