<?xml version='1.0' encoding='utf-8'?>
<svg xmlns="http://www.w3.org/2000/svg" width="192" height="192" version="1.1" id="svg36">
  <defs>
    <filter style="color-interpolation-filters:sRGB" id="filter900" x="0.05" width="1.10" y="0.05" height="1.10">
      <feGaussianBlur stdDeviation="3.20"/>
    </filter>
    <filter style="color-interpolation-filters:sRGB" id="filter916" x="0.03" width="1.07" y="0.08" height="1.17">
      <feGaussianBlur stdDeviation="1.12"/>
    </filter>
    <filter style="color-interpolation-filters:sRGB" id="filter975" x="0.02" width="1.05" y="0.02" height="1.05">
      <feGaussianBlur stdDeviation="0.75"/>
    </filter>
    <filter style="color-interpolation-filters:sRGB" id="filter991" x="0.02" width="1.05" y="0.02" height="1.05">
      <feGaussianBlur stdDeviation="0.80"/>
    </filter>
    <filter style="color-interpolation-filters:sRGB" id="filter1007" x="0.06" width="1.12" y="0.06" height="1.12">
      <feGaussianBlur stdDeviation="1.28"/>
    </filter>
  </defs>
  <path style="filter:url(#filter900);opacity:0.20;fill:#000000" d="m 96,20 c -2.26,0.00 -4.54,0.87 -6.28,2.61 L 18.61,93.72 C 16.86,95.47 15.99,97.72 16,100 c 0.01,2.28 0.86,4.53 2.61,6.28 l 71.12,71.12 C 91.46,179.13 93.74,180.00 96,180 c 2.26,0.00 4.54,0.87 6.28,-2.61 l 71.12,-71.12 C 175.14,104.53 176.01,102.28 176,100 c 0.01,-2.28 0.86,-4.53 -2.61,-6.28 L 102.28,22.61 C 100.54,20.87 98.26,20.00 96,20 Z"/>
  <path d="m 96,96 v 80 l 28,-80 z" style="fill:#3cccff"/>
  <path d="M 96,16 68,96 h 28 z" style="fill:#f06116"/>
  <path d="M 124,96.00 96,176 c 2.26,0.00 4.54,0.87 6.28,-2.61 l 71.12,-71.12 c 1.74,-1.74 2.61,-4.00 2.61,-6.28 z" style="fill:#1576b9"/>
  <path d="m 96,64 v 32 h 80 z" style="fill:#62a605;fill-opacity:0.94"/>
  <path d="M 96,66.00 V 18.00 c 2.26,0.00 4.54,0.87 6.28,2.61 l 71.12,71.12 c 1.74,1.74 2.61,4.00 2.61,6.28 z" style="filter:url(#filter991);opacity:0.20"/>
  <path d="M 96,64 V 16.00 c 2.26,0.00 4.54,0.87 6.28,2.61 l 71.12,71.12 c 1.74,1.74 2.61,4.00 2.61,6.28 z" style="fill:#f4d13e"/>
  <path d="M 96,128.00 V 176 c -2.26,0.00 -4.54,0.87 -6.28,-2.61 L 18.61,102.28 C 16.86,100.53 15.99,98.28 16.00,96.00 Z" style="fill:#64347e"/>
  <path d="m 16,100 80,32 v -32 z" style="filter:url(#filter916);opacity:0.10;fill-opacity:0.97"/>
  <path d="m 16,96 80,32 V 96 Z" style="fill:#ff8cca"/>
  <path style="filter:url(#filter975);opacity:0.20" d="m 96,20 c -2.26,0.00 -4.54,0.87 -6.28,2.61 C 45.77,80.19 -27.31,96 69.40,96 Z"/>
  <path d="M 68,96 96,16.00 c -2.26,0.00 -4.54,0.87 -6.28,2.61 L 18.61,89.72 C 16.86,91.47 15.99,93.72 16.00,96 Z" style="fill:#ff7472"/>
  <rect transform="rotate(45)" ry="8.36" rx="8.36" y="-22.24" x="113.52" height="50.14" width="50.14" style="filter:url(#filter1007);opacity:0.20"/>
  <rect transform="rotate(45)" ry="8.36" rx="8.36" y="-25.08" x="110.68" height="50.14" width="50.14" style="fill:#ffffff;fill-opacity:0.94"/>
  <path style="opacity:0.20;fill:#ffffff" d="M 96 16 C 93.74 16.00 91.46 16.88 89.73 18.61 L 18.61 89.73 C 16.87 91.47 15.99 93.72 16 96 L 16.06 96 C 16.28 94.07 17.12 92.21 18.61 90.73 L 89.73 19.61 C 91.46 17.88 93.74 17.00 96 17 C 98.26 17.00 100.54 17.88 102.27 19.61 L 173.39 90.73 C 174.88 92.21 175.72 94.07 175.94 96 L 176 96 C 176.00 93.72 175.13 91.47 173.39 89.73 L 102.27 18.61 C 100.54 16.88 98.26 16.00 96 16 z "/>
</svg>
