<?xml version='1.0' encoding='utf-8'?>
<svg xmlns="http://www.w3.org/2000/svg" width="192" height="192" version="1.1" id="svg14">
  <defs>
    <filter style="color-interpolation-filters:sRGB" id="filter4736" x="-0.048000001" y="-0.048000001" width="1.096" height="1.096">
      <feGaussianBlur stdDeviation="3.2"/>
    </filter>
    <filter style="color-interpolation-filters:sRGB" id="filter18492" x="-0.048" y="-0.048" width="1.096" height="1.096">
      <feGaussianBlur stdDeviation="2.48"/>
    </filter>
  </defs>
  <circle style="filter:url(#filter4736);opacity:0.2;fill:#000000" cx="96" cy="100" r="80"/>
  <circle style="fill:#585d5e" cx="96" cy="96" r="80"/>
  <path style="fill:#75797b;color:#000000" d="m 96,37 c -32.572923,0 -59,26.427077 -59,59 0,32.57292 26.427077,59 59,59 32.57292,0 59,-26.42708 59,-59 0,-32.572923 -26.42708,-59 -59,-59 z m 0,2 c 31.49204,0 57,25.507956 57,57 0,31.49204 -25.50796,57 -57,57 C 64.507956,153 39,127.49204 39,96 39,64.507956 64.507956,39 96,39 Z"/>
  <path style="opacity:0.1;fill:#ffffff" d="M 96 16 A 80 80 0 0 0 16 96 A 80 80 0 0 0 16.035156 96.5 A 80 80 0 0 1 96 17 A 80 80 0 0 1 175.98242 96.253906 A 80 80 0 0 0 176 96 A 80 80 0 0 0 96 16 z "/>
  <path style="filter:url(#filter18492);opacity:0.2;fill:#000000" d="m 96,36 v 8 A 54,54 0 0 1 150,98 54,54 0 0 1 96,152 54,54 0 0 1 42,98 H 34 A 62,62 0 0 0 96,160 62,62 0 0 0 158,98 62,62 0 0 0 96,36 Z M 62,74 v 6 h 25.857422 l -19.646484,42 h 6.345703 L 94,79.009766 V 74 Z m 41.02148,0 -3.548824,25 h 5.421874 c 1.38354,-1.617487 2.7233,-2.421181 4.01758,-3.033203 C 110.2064,95.311059 111.76781,95 113.59766,95 c 3.16876,0 5.69193,0.98907 7.5664,3 1.87448,1.967214 2.83594,4.67731 2.83594,8.13086 0,3.32241 -0.96146,5.94564 -2.83594,7.86914 -1.82985,1.92349 -4.35301,3 -7.5664,3 -5.08787,0 -8.3235,-2.79781 -9.70704,-8 H 98 c 0.133891,0.74317 0.244723,1.39367 0.333984,1.78711 0.08926,0.39345 0.312879,1.11488 0.669922,2.16406 0.401674,1.00546 0.803405,1.85719 1.205074,2.55664 0.44631,0.65574 1.07165,1.4433 1.875,2.36133 0.84797,0.87432 1.76227,1.59575 2.74414,2.16406 1.02652,0.52459 2.29898,0.98351 3.81641,1.37696 1.56206,0.39344 3.25804,0.58984 5.08789,0.58984 4.77545,0 8.67998,-1.55242 11.71485,-4.65625 3.03487,-3.10383 4.55273,-7.10383 4.55273,-12 0,-4.59017 -1.42882,-8.304953 -4.28516,-11.146484 C 122.90312,91.312019 119.22222,90 114.66992,90 c -3.21339,0 -6.13633,0.80967 -8.76953,2.689453 L 107.77344,80 H 128 v -6 z"/>
  <path style="fill:#ff9100" d="M 96 34 L 96 42 A 54 54 0 0 1 150 96 A 54 54 0 0 1 96 150 A 54 54 0 0 1 42 96 L 34 96 A 62 62 0 0 0 96 158 A 62 62 0 0 0 158 96 A 62 62 0 0 0 96 34 z "/>
  <path style="fill:#ffffff" d="M 62 72 L 62 78 L 87.857422 78 L 68.210938 120 L 74.556641 120 L 94 77.009766 L 94 72 L 62 72 z M 103.02148 72 L 99.472656 97 L 104.89453 97 C 106.27807 95.382513 107.61783 94.578819 108.91211 93.966797 C 110.2064 93.311059 111.76781 93 113.59766 93 C 116.76642 93 119.28959 93.98907 121.16406 96 C 123.03854 97.967214 124 100.67731 124 104.13086 C 124 107.45327 123.03854 110.0765 121.16406 112 C 119.33421 113.92349 116.81105 115 113.59766 115 C 108.50979 115 105.27416 112.20219 103.89062 107 L 98 107 C 98.133891 107.74317 98.244723 108.39367 98.333984 108.78711 C 98.423245 109.18056 98.646863 109.90199 99.003906 110.95117 C 99.40558 111.95663 99.807307 112.80836 100.20898 113.50781 C 100.65529 114.16355 101.28063 114.95111 102.08398 115.86914 C 102.93195 116.74346 103.84625 117.46489 104.82812 118.0332 C 105.85463 118.55779 107.1271 119.01671 108.64453 119.41016 C 110.20659 119.8036 111.90257 120 113.73242 120 C 118.50787 120 122.4124 118.44758 125.44727 115.34375 C 128.48214 112.23992 130 108.23992 130 103.34375 C 130 98.753581 128.57118 95.038797 125.71484 92.197266 C 122.90312 89.312019 119.22222 88 114.66992 88 C 111.45653 88 108.53359 88.80967 105.90039 90.689453 L 107.77344 78 L 128 78 L 128 72 L 103.02148 72 z "/>
  <path style="opacity:0.2;fill:#ffffff" d="M 96 34 L 96 35 A 62 62 0 0 1 157.98242 96.253906 A 62 62 0 0 0 158 96 A 62 62 0 0 0 96 34 z M 34 96 A 62 62 0 0 0 34.072266 97 L 42 97 A 54 54 0 0 0 96 151 A 54 54 0 0 0 150 97 A 54 54 0 0 0 149.98047 96.25 A 54 54 0 0 1 96 150 A 54 54 0 0 1 42 96 L 34 96 z "/>
</svg>
