<svg xmlns="http://www.w3.org/2000/svg" id="svg22" width="192" height="192" version="1.1"><defs><filter style="color-interpolation-filters:sRGB" id="filter865" width="1.1" height="1.1" x=".05" y=".05"><feGaussianBlur stdDeviation="3.2"/></filter><filter style="color-interpolation-filters:sRGB" id="filter869" width="1.1" height="1.09" x=".05" y=".04"><feGaussianBlur stdDeviation="2.08"/></filter><filter style="color-interpolation-filters:sRGB" id="filter891" width="1.07" height="1.14" x=".04" y=".07"><feGaussianBlur stdDeviation="1.08"/></filter><filter style="color-interpolation-filters:sRGB" id="filter913" width="1.07" height="1.18" x=".03" y=".09"><feGaussianBlur stdDeviation=".76"/></filter></defs><rect style="filter:url(#filter865);opacity:.2" width="160" height="160" x="16" y="20" rx="12" ry="12"/><rect style="fill:#0b4d9c" width="160" height="160" x="16" y="16" rx="12" ry="12"/><path style="opacity:.1;fill:#fff" d="M 28 16 C 21.35 16 16 21.35 16 28 L 16 29 C 16 22.35 21.35 17 28 17 L 164 17 C 170.65 17 176 22.35 176 29 L 176 28 C 176 21.35 170.65 16 164 16 L 28 16 z"/><path style="filter:url(#filter869);opacity:.2" d="M 92,50 C 69.84,50 52,67.84 52,90 v 16 c 0,22.16 17.84,40 40,40 h 8 c 5.56,0 10.86,-1.13 15.66,-3.16 L 134.12,162 148,149.68 130.69,131.70 C 136.50,124.75 140,115.80 140,106 V 90 C 140,67.84 122.16,50 100,50 Z m 1.82,16 h 4.36 C 110.27,66 120,77.89 120,92.66 V 103.34 C 120,118.11 110.27,130 98.18,130 H 93.82 C 81.73,130 72,118.11 72,103.34 V 92.66 C 72,77.89 81.73,66 93.82,66 Z"/><path style="fill:#fff" d="M 92,48 C 69.84,48 52,65.84 52,88 v 16 c 0,22.16 17.84,40 40,40 h 8 c 22.16,0 40,-17.84 40,-40 V 88 C 140,65.84 122.16,48 100,48 Z m 1.82,16 h 4.36 C 110.27,64 120,75.89 120,90.66 V 101.34 C 120,116.11 110.27,128 98.18,128 H 93.82 C 81.73,128 72,116.11 72,101.34 V 90.66 C 72,75.89 81.73,64 93.82,64 Z"/><path style="filter:url(#filter891);opacity:.2" d="m 16,30 v 36 h 64 c 4.43,0 8,-3.57 8,-8 V 38 c 0,-4.43 -3.57,-8 -8,-8 z"/><path style="fill:#fff" d="m 108,132.87 4.90,5.09 L 134.11,160 148,147.68 126.79,125.64 121.36,120 Z"/><path style="fill:#e46200" d="m 16,28 v 36 h 64 c 4.43,0 8,-3.57 8,-8 V 36 c 0,-4.43 -3.57,-8 -8,-8 z"/><path style="filter:url(#filter913);opacity:.2" d="m 24,37 v 20 h 4 v -7.91 h 3.60 c 2,0 3.61,0.28 4.83,0.84 1.24,0.56 2.15,-1.34 2.70,-2.33 C 39.71,44.91 40,44.54 40,43.22 40,41.24 39.33,39.71 38,38.62 36.67,37.54 34.63,37 31.90,37 Z m 20,0 v 20 h 6.40 c 2.95,0 5.28,0.88 7.01,-2.63 C 59.13,52.61 60,50.10 60,46.83 60,43.58 59.16,41.14 57.47,39.49 55.80,37.83 53.56,37 50.73,37 Z m 20,0 v 20 h 4 v -8 h 8 v -4 h -8 v -4 h 12 v -4 z m -36,4 h 3.76 c 1.47,0 2.54,0.16 3.22,0.48 C 35.66,41.81 36,42.30 36,42.96 36,43.61 35.58,44.12 34.73,44.48 33.92,44.83 32.66,45 30.98,45 H 28 Z m 20,0 h 2.41 c 1.86,0 3.26,0.47 4.19,1.41 C 55.53,43.34 56,44.82 56,46.88 56,48.94 55.51,50.48 54.54,51.48 53.59,52.49 52.07,53 50.01,53 H 48 Z"/><path style="fill:#fff" d="m 24,36 v 20 h 4 v -7.91 h 3.60 c 2,0 3.61,0.28 4.83,0.84 1.24,0.56 2.15,-1.34 2.70,-2.33 C 39.71,43.91 40,43.54 40,42.22 40,40.24 39.33,38.71 38,37.62 36.67,36.54 34.63,36 31.90,36 Z m 20,0 v 20 h 6.40 c 2.95,0 5.28,0.88 7.01,-2.63 C 59.13,51.61 60,49.10 60,45.83 60,42.58 59.16,40.14 57.47,38.49 55.80,36.83 53.56,36 50.73,36 Z m 20,0 v 20 h 4 v -8 h 8 v -4 h -8 v -4 h 12 v -4 z m -36,4 h 3.76 c 1.47,0 2.54,0.16 3.22,0.48 C 35.66,40.81 36,41.30 36,41.96 36,42.61 35.58,43.12 34.73,43.48 33.92,43.83 32.66,44 30.98,44 H 28 Z m 20,0 h 2.41 c 1.86,0 3.26,0.47 4.19,1.41 C 55.53,42.34 56,43.82 56,45.88 56,47.94 55.51,49.48 54.54,50.48 53.59,51.49 52.07,52 50.01,52 H 48 Z"/></svg>