<?xml version='1.0' encoding='utf-8'?>
<svg xmlns="http://www.w3.org/2000/svg" width="192" height="192" version="1" id="svg30">
  <defs>
    <filter style="color-interpolation-filters:sRGB" id="filter872" x="0.04" width="1.08" y="0.06" height="1.12">
      <feGaussianBlur stdDeviation="2.88"/>
    </filter>
    <filter style="color-interpolation-filters:sRGB" id="filter894" x="0.05" width="1.10" y="0.05" height="1.10">
      <feGaussianBlur stdDeviation="1.12"/>
    </filter>
    <filter style="color-interpolation-filters:sRGB" id="filter910" x="0.05" width="1.10" y="0.05" height="1.10">
      <feGaussianBlur stdDeviation="1.28"/>
    </filter>
    <filter style="color-interpolation-filters:sRGB" id="filter926" x="0.05" width="1.10" y="0.05" height="1.10">
      <feGaussianBlur stdDeviation="0.96"/>
    </filter>
    <filter style="color-interpolation-filters:sRGB" id="filter946" x="0.05" width="1.10" y="0.05" height="1.10">
      <feGaussianBlur stdDeviation="0.80"/>
    </filter>
  </defs>
  <path d="M 99.98,40 C 89.77,40.01 80.16,43.58 72.09,49.41 69.42,48.84 66.79,48.00 64.02,48 H 64 C 42.95,48 25.73,64.96 24.47,85.73 16.75,93.79 12.00,104.50 12,116 c 0,24.06 19.94,44 44,44 6.82,0.00 13.43,-1.68 19.41,-4.63 6.48,2.83 13.36,4.62 20.55,4.63 h 0.08 c 6.33,0.01 12.44,-1.50 18.29,-3.73 5.61,2.25 11.51,3.72 17.63,3.73 H 132 c 26.27,0 48,-21.73 48,-48 C 180,89.43 163.65,71.11 142.48,66.14 134.42,50.61 118.29,40.02 100.02,40 h 0.02 z" style="filter:url(#filter872);opacity:0.20"/>
  <path d="M 99.98,36 C 89.77,36.01 80.16,39.58 72.09,45.41 69.42,44.84 66.79,44.00 64.02,44 H 64 C 42.95,44 25.73,60.96 24.47,81.73 16.75,89.79 12.00,100.50 12,112 c 0,24.06 19.94,44 44,44 6.82,0.00 13.43,-1.68 19.41,-4.63 6.48,2.83 13.36,4.62 20.55,4.63 h 0.08 c 6.33,0.01 12.44,-1.50 18.29,-3.73 5.61,2.25 11.51,3.72 17.63,3.73 H 132 c 26.27,0 48,-21.73 48,-48 C 180,85.43 163.65,67.11 142.48,62.14 134.42,46.61 118.29,36.02 100.02,36 h 0.02 z" style="fill:#1da6e8"/>
  <circle r="24" cy="116" cx="56" style="filter:url(#filter926);opacity:0.10"/>
  <circle r="24" cy="112" cx="56" style="fill:#ffe174"/>
  <circle r="20" cy="86" cx="64" style="filter:url(#filter946);opacity:0.10"/>
  <circle r="20" cy="84" cx="64" style="fill:#ffd338"/>
  <circle r="28" cy="88" cx="100" style="opacity:0.20"/>
  <circle r="28" cy="84" cx="100" style="fill:#ffb822"/>
  <circle r="28" cy="112" cx="132" style="filter:url(#filter894);opacity:0.10"/>
  <circle r="28" cy="108" cx="132" style="fill:#ff7c2d"/>
  <circle r="32" cy="108" cx="96" style="filter:url(#filter910);opacity:0.10"/>
  <circle r="32" cy="104" cx="96" style="fill:#ff972d"/>
  <path style="opacity:0.20;fill:#ffffff" d="M 99.98 36 C 89.77 36.01 80.16 39.58 72.09 45.41 C 69.42 44.84 66.79 44.00 64.02 44 L 64 44 C 42.95 44 25.73 60.96 24.47 81.73 C 16.75 89.79 12.00 100.50 12 112 C 12 112.17 12.01 112.33 12.01 112.49 C 12.15 101.18 16.86 90.68 24.47 82.73 C 25.73 61.96 42.95 45 64 45 L 64.02 45 C 66.79 45.00 69.42 45.84 72.09 46.41 C 80.16 40.58 89.77 37.01 99.98 37 L 100.01 37 L 100.02 37 C 118.29 37.02 134.42 47.61 142.48 63.14 C 163.49 68.07 179.73 86.14 179.99 108.47 C 179.99 108.31 180 108.16 180 108 C 180 85.43 163.65 67.11 142.48 62.14 C 134.42 46.61 118.29 36.02 100.02 36 L 100.01 36 L 99.98 36 z "/>
</svg>
