<?xml version='1.0' encoding='utf-8'?>
<svg xmlns="http://www.w3.org/2000/svg" width="192" height="192" version="1" id="svg16">
  <defs>
    <filter style="color-interpolation-filters:sRGB" id="filter867" x="0.05" width="1.10" y="0.05" height="1.10">
      <feGaussianBlur stdDeviation="3.20"/>
    </filter>
    <filter style="color-interpolation-filters:sRGB" id="filter11947" x="0.07" y="0.08" width="1.14" height="1.17">
      <feGaussianBlur stdDeviation="3.33"/>
    </filter>
  </defs>
  <rect ry="80" rx="80" height="160" width="160" y="-176" x="-180" transform="matrix(0,-1,-1,0,0,0)" style="filter:url(#filter867);opacity:0.20;fill:#000000"/>
  <rect style="fill:#7ebe1a" transform="matrix(0,-1,-1,0,0,0)" x="-176" y="-176" width="160" height="160" rx="80" ry="80"/>
  <path style="opacity:0.20;fill:#ffffff" d="M 96 16 C 51.68 16 16 51.68 16 96 C 16 96.34 16.00 96.67 16 97 C 16 52.68 51.68 17 96 17 C 140.32 17 176 52.68 176 97 C 176.00 96.67 176 96.34 176 96 C 176 51.68 140.32 16 96 16 z "/>
  <path style="filter:url(#filter11947);opacity:0.20;fill:#000000" d="m 133,51 c -1.66,0 -3,1.34 -3,3 v 4.39 c 0.09,0.83 0.44,1.05 -1.26,1.28 C 123.09,61.47 119,66.75 119,73 c 0.01,1.99 0.45,3.96 1.28,5.76 0.67,1.42 0.14,4.23 -3.73,3.91 C 110.77,78.48 103.68,76 96,76 88.65,76.02 81.50,78.36 75.57,82.66 71.88,83.06 71.04,80.19 71.72,78.76 72.55,76.96 72.99,74.99 73,73 73,65.27 66.73,59 59,59 c -2.40,0.01 -4.74,0.63 -6.82,1.80 -1.05,0.72 -1.69,0.24 -2.07,0.07 L 47.07,57.83 C 46.50,57.28 45.73,56.98 44.93,57 c 0.80,0.02 -1.55,0.35 -2.10,0.93 -1.14,1.20 -1.10,3.10 0.10,4.24 l 3.21,3.07 c 0.46,0.69 0.24,1.85 0.20,2.96 C 45.55,69.01 44.99,69.80 44.01,70 H 40 c -1.66,0 -3,1.34 -3,3 0,1.66 1.34,3 3,3 h 3.87 c 1.14,0.00 1.65,0.66 2.06,1.93 C 47.95,83.31 53.12,86.98 59,87 c 1.84,0.01 3.65,0.38 5.33,-1.08 2.46,0.57 4.65,1.25 3.89,3.86 C 63.56,95.86 61.01,103.31 61,111 c 0,19.33 15.67,35 35,35 19.33,0 35,-15.67 35,-35 0,-8.02 -2.70,-15.40 -7.24,-21.30 0.69,-2.56 1.47,-4.34 3.91,-3.78 C 129.35,86.62 131.16,86.99 133,87 c 6.12,0.02 11.47,-4.00 13.29,-9.74 0.25,-1.29 1.67,-1.27 1.74,-1.26 H 152 c 1.66,0 3,-1.34 3,-3 0,-1.66 -1.34,-3 -3,-3 h -4.38 c 0.23,0 -1.01,0.25 -1.22,-1.04 -1.36,-4.47 -4.88,-7.97 -9.35,-9.32 C 135.96,59.44 136.00,58.61 136,58.18 V 54 c 0,-1.66 -1.34,-3 -3,-3 z m 0,14 c 1.66,0 3,1.34 3,3 0,2 0.01,2 2,2 1.66,0 3,1.34 3,3 0,1.66 -1.34,3 -3,3 -2,0 -2,0.01 -2,2 0,1.66 -1.34,3 -3,3 -1.66,0 -3,-1.34 -3,-3 0,-2 0.01,-2 -2,-2 -1.66,0 -3,-1.34 -3,-3 0,-1.66 1.34,-3 3,-3 2,0 2,0.01 2,-2 0,-1.66 1.34,-3 3,-3 z m -80,5 h 11 c 1.66,0 3,1.34 3,3 0,1.66 -1.34,3 -3,3 H 53 c -1.66,0 -3,-1.34 -3,-3 0,-1.66 1.34,-3 3,-3 z m 22.96,36 H 84 v 5 c 0,1.66 1.34,3 3,3 h 5 c 1.66,0 3,-1.34 3,-3 v -5 h 1 20.04 C 119.02,106 119,108.98 119,108.98 V 111 c 0,12.70 -10.30,23 -23,23 -12.70,0 -23,-10.30 -23,-23 v -2.02 c 0,0 0.02,-2.98 2.96,-2.98 z"/>
  <path style="fill:#ffffff" d="M 133 49 C 131.34 49 130 50.34 130 52 L 130 56.39 C 129.91 57.22 129.56 57.43 128.74 57.66 C 123.09 59.47 119 64.75 119 71 C 119.01 72.99 119.45 74.96 120.28 76.76 C 120.95 78.18 120.14 80.99 116.54 80.67 C 110.77 76.48 103.68 74 96 74 C 88.65 74.02 81.50 76.36 75.57 80.66 C 71.88 81.06 71.04 78.19 71.72 76.76 C 72.55 74.96 72.99 72.99 73 71 C 73 63.27 66.73 57 59 57 C 56.60 57.01 54.26 57.63 52.18 58.80 C 51.13 59.52 50.50 59.04 50.11 58.73 L 47.07 55.83 C 46.50 55.28 45.73 54.98 44.93 55 C 44.14 55.02 43.38 55.35 42.83 55.93 C 41.69 57.13 41.73 59.03 42.93 60.17 L 46.14 63.24 C 46.60 63.93 46.38 65.09 45.94 66.20 C 45.55 67.01 44.99 67.80 44.01 68 L 40 68 C 38.34 68 37 69.34 37 71 C 37 72.66 38.34 74 40 74 L 43.87 74 C 45.01 74.00 45.51 74.66 45.93 75.93 C 47.95 81.31 53.12 84.98 59 85 C 60.84 84.99 62.65 84.62 64.33 83.92 C 66.79 83.35 68.98 85.17 68.22 87.78 C 63.56 93.86 61.01 101.31 61 109 C 61 128.33 76.67 144 96 144 C 115.33 144 131 128.33 131 109 C 131 100.98 128.30 93.60 123.76 87.70 C 123.07 85.14 125.24 83.36 127.67 83.92 C 129.35 84.62 131.16 84.99 133 85 C 139.12 84.98 144.47 81.00 146.29 75.26 C 146.54 73.97 147.97 73.99 148.04 74 L 152 74 C 153.66 74 155 72.66 155 71 C 155 69.34 153.66 68 152 68 L 147.62 68 C 147.39 68 146.61 67.75 146.40 66.96 C 145.03 62.48 141.52 58.98 137.04 57.64 C 135.96 57.44 136.00 56.61 136 56.18 L 136 52 C 136 50.34 134.66 49 133 49 z M 133 63 C 134.66 63 136 64.34 136 66 C 136 68 135.99 68 138 68 C 139.66 68 141 69.34 141 71 C 141 72.66 139.66 74 138 74 C 136 74 136 73.99 136 76 C 136 77.66 134.66 79 133 79 C 131.34 79 130 77.66 130 76 C 130 74 130.01 74 128 74 C 126.34 74 125 72.66 125 71 C 125 69.34 126.34 68 128 68 C 130 68 130 68.01 130 66 C 130 64.34 131.34 63 133 63 z M 53 68 L 64 68 C 65.66 68 67 69.34 67 71 C 67 72.66 65.66 74 64 74 L 53 74 C 51.34 74 50 72.66 50 71 C 50 69.34 51.34 68 53 68 z M 75.96 104 L 84 104 L 84 109 C 84 110.66 85.34 112 87 112 L 92 112 C 93.66 112 95 110.66 95 109 L 95 104 L 96 104 L 116.04 104 C 119.02 104 119 106.98 119 106.98 L 119 109 C 119 121.70 108.70 132 96 132 C 83.30 132 73 121.70 73 109 L 73 106.98 C 73 106.98 72.98 104 75.96 104 z "/>
</svg>
