<?xml version='1.0' encoding='utf-8'?>
<svg xmlns="http://www.w3.org/2000/svg" width="192" height="192" version="1" id="svg28">
  <defs>
    <filter style="color-interpolation-filters:sRGB" id="filter2394" x="0.11" y="0.11" width="1.22" height="1.22">
      <feGaussianBlur stdDeviation="4.05"/>
    </filter>
    <filter style="color-interpolation-filters:sRGB" id="filter2526" x="0.05" y="0.05" width="1.10" height="1.10">
      <feGaussianBlur stdDeviation="3.20"/>
    </filter>
  </defs>
  <path style="filter:url(#filter2526);opacity:0.20;fill:#000000" d="m 96,20 a 80,80 0 0 0 -80,80 v 68 c 0,6.65 5.35,12 12,12 h 68 a 80,80 0 0 0 80,-80 V 32 c 0,-6.65 -5.35,-12 -12,-12 z"/>
  <path style="fill:#1adaaa" d="M 96 16 A 80 80 0 0 0 16 96 L 16 164 C 16 170.65 21.35 176 28 176 L 96 176 A 80 80 0 0 0 176 96 L 176 28 C 176 21.35 170.65 16 164 16 L 96 16 z "/>
  <path style="filter:url(#filter2394);opacity:0.20;fill:#000000" d="m 82.37,142.39 c 30.26,-4.65 53.36,-27.75 58.02,-58.02 0.41,-2.69 0.60,-8.14 0.61,-17.63 l 0.01,-13.74 -13.74,0.01 c -14.35,0.01 -18.09,0.32 -25.01,2.10 -23.74,6.10 -43.04,25.40 -49.14,49.14 -1.78,6.92 -2.09,10.66 -2.10,25.01 L 51.00,143 64.74,142.99 c 9.50,0.01 14.94,0.19 17.63,0.61 z"/>
  <path style="fill:#ffffff" d="m 82.37,140.39 c 30.26,-4.65 53.36,-27.75 58.02,-58.02 0.41,-2.69 0.60,-8.14 0.61,-17.63 l 0.01,-13.74 -13.74,0.01 c -14.35,0.01 -18.09,0.32 -25.01,2.10 -23.74,6.10 -43.04,25.40 -49.14,49.14 -1.78,6.92 -2.09,10.66 -2.10,25.01 L 51.00,141 64.74,140.99 c 9.50,0.01 14.94,0.19 17.63,0.61 z"/>
  <path style="opacity:0.20;fill:#ffffff" d="M 96 16 A 80 80 0 0 0 16 96 L 16 97 A 80 80 0 0 1 96 17 L 164 17 C 170.65 17 176 22.35 176 29 L 176 28 C 176 21.35 170.65 16 164 16 L 96 16 z "/>
</svg>
