<?xml version='1.0' encoding='utf-8'?>
<svg xmlns="http://www.w3.org/2000/svg" width="192" height="192" version="1" id="svg14">
  <defs>
    <filter style="color-interpolation-filters:sRGB" id="filter850" x="-0.048000001" width="1.096" y="-0.048000001" height="1.096">
      <feGaussianBlur stdDeviation="3.2"/>
    </filter>
    <filter style="color-interpolation-filters:sRGB" id="filter1739" x="-0.10516265" y="-0.11099469" width="1.2103253" height="1.2219894">
      <feGaussianBlur stdDeviation="4.381777"/>
    </filter>
  </defs>
  <circle style="filter:url(#filter850);opacity:0.2;fill:#000000" cx="96" cy="100" r="80"/>
  <circle r="80" cy="96" cx="96" style="fill:#f14055"/>
  <path style="fill:#38adfa" d="m 688.80525,256.99648 c -0.33229,-0.33229 -1.1948,-0.36781 -1.91667,-0.0789 -0.79773,0.31922 -0.56078,0.55618 0.60417,0.60416 1.05416,0.0434 1.64479,-0.19293 1.3125,-0.52522 z"/>
  <path style="opacity:0.2;fill:#ffffff" d="M 96 16 A 80 80 0 0 0 16 96 A 80 80 0 0 0 16.019531 96.472656 A 80 80 0 0 1 96 17 A 80 80 0 0 1 175.97461 96.513672 A 80 80 0 0 0 176 96 A 80 80 0 0 0 96 16 z "/>
  <path d="m 117.91539,82.860176 c -0.2283,-3.424542 -1.14152,-6.849085 -2.96794,-9.817021 L 99.422866,45.875127 c -1.14152,-2.054725 -2.05473,-4.337754 -2.51133,-6.620782 l -0.68491,1.141514 C 94.435448,43.451397 93.137895,46.895942 93,50.370435 c -0.160898,4.054088 1.136654,8.148948 3.226626,11.714192 l 12.556654,21.68876 c 3.88114,6.620782 3.88114,15.067988 0,21.688763 l -0.68491,1.14151 c -0.45661,-2.28303 -1.36982,-4.56605 -2.51134,-6.620775 L 94.171896,80.120542 86.866206,67.335585 c -1.14151,-2.054719 -2.05472,-4.337747 -2.51133,-6.620775 l -0.68491,1.141514 C 81.69483,65.225669 80.964823,69.008904 81,72.814858 c 0.03395,3.672759 0.763952,7.366675 2.669966,10.730226 v 0 l 12.55666,21.688776 c 3.881134,6.62077 3.881134,15.06797 0,21.68875 l -0.68491,1.14152 c -0.45661,-2.28303 -1.36982,-4.56606 -2.51133,-6.62078 L 77.277486,94.275315 C 75.222766,90.622471 74.309556,86.513021 74.309556,82.40357 57.643447,86.741324 46.000004,96.101735 46.000004,106.83198 46.000004,121.89995 68.37368,134 95.998316,134 123.62296,134 145.99663,121.89995 145.99663,106.83198 146.22494,96.558345 134.8098,87.197929 117.91539,82.860176 Z" style="filter:url(#filter1739);opacity:0.2;fill:#000000"/>
  <path d="m 117.91539,80.860176 c -0.2283,-3.424542 -1.14152,-6.849085 -2.96794,-9.817021 L 99.422866,43.875127 c -1.14152,-2.054725 -2.05473,-4.337754 -2.51133,-6.620782 l -0.68491,1.141514 C 94.435448,41.451397 93.137895,44.895942 93,48.370435 c -0.160898,4.054088 1.136654,8.148948 3.226626,11.714192 l 12.556654,21.68876 c 3.88114,6.620782 3.88114,15.067988 0,21.688763 l -0.68491,1.14151 c -0.45661,-2.28303 -1.36982,-4.56605 -2.51134,-6.620775 L 94.171896,78.120542 86.866206,65.335585 c -1.14151,-2.054719 -2.05472,-4.337747 -2.51133,-6.620775 l -0.68491,1.141514 C 81.69483,63.225669 80.964823,67.008904 81,70.814858 c 0.03395,3.672759 0.763952,7.366675 2.669966,10.730226 v 0 l 12.55666,21.688776 c 3.881134,6.62077 3.881134,15.06797 0,21.68875 l -0.68491,1.14152 c -0.45661,-2.28303 -1.36982,-4.56606 -2.51133,-6.62078 L 77.277486,92.275315 C 75.222766,88.622471 74.309556,84.513021 74.309556,80.40357 57.643447,84.741324 46.000004,94.101735 46.000004,104.83198 46.000004,119.89995 68.37368,132 95.998316,132 123.62296,132 145.99663,119.89995 145.99663,104.83198 146.22494,94.558345 134.8098,85.197929 117.91539,80.860176 Z" style="fill:#ffffff"/>
</svg>
