<svg xmlns="http://www.w3.org/2000/svg" id="svg28" width="192" height="192" version="1"><defs><filter style="color-interpolation-filters:sRGB" id="filter3631" width="1.1" height="1.1" x=".05" y=".05"><feGaussianBlur stdDeviation="3.2"/></filter><filter style="color-interpolation-filters:sRGB" id="filter3762" width="1.1" height="1.1" x=".05" y=".05"><feGaussianBlur stdDeviation="2.4"/></filter></defs><rect width="160" height="160" x="-180" y="-176" rx="18" ry="18" transform="matrix(0,-1,-1,0,0,0)" style="filter:url(#filter3631);opacity:.2;fill:#000"/><rect width="160" height="160" x="-176" y="-176" rx="18" ry="18" transform="matrix(0,-1,-1,0,0,0)" style="fill:#e4e4e4"/><path style="opacity:.2;fill:#fff" d="M 34 16 C 24.03 16 16 24.03 16 34 L 16 35 C 16 25.03 24.03 17 34 17 L 158 17 C 167.97 17 176 25.03 176 35 L 176 34 C 176 24.03 167.97 16 158 16 L 34 16 z"/><path style="filter:url(#filter3762);opacity:.2;fill:#000" d="M 130.64,38 36,63.36 61.36,158 156,132.64 Z M 123.71,50 144,125.71 68.29,146 48,70.29 Z M 96,68 62,94 h 8 v 32 h 20 v -19 h 14 v 19 h 18 V 94 h 8 L 116,83.86 C 115.99,79.83 116,72 116,72 h -7 v 6.03 z"/><path style="fill:#0377d8" d="M 130.64 36 L 36 61.36 L 61.36 156 L 156 130.64 L 130.64 36 z M 123.71 48 L 144 123.71 L 68.29 144 L 48 68.29 L 123.71 48 z M 96 66 L 62 92 L 70 92 L 70 124 L 90 124 L 90 105 L 104 105 L 104 124 L 122 124 L 122 92 L 130 92 L 116 81.86 C 115.99 77.83 116 70 116 70 L 109 70 L 109 76.03 L 96 66 z"/></svg>