<?xml version='1.0' encoding='utf-8'?>
<svg xmlns="http://www.w3.org/2000/svg" width="192" height="192" version="1" id="svg18">
  <defs>
    <filter id="filter963" style="color-interpolation-filters:sRGB" width="1.096" height="1.096" x="-0.048000001" y="-0.048000001">
      <feGaussianBlur stdDeviation="3.2"/>
    </filter>
    <filter style="color-interpolation-filters:sRGB" id="filter1081" x="-0.047533193" y="-0.048485823" width="1.0950664" height="1.0969716">
      <feGaussianBlur stdDeviation="2.1818619"/>
    </filter>
  </defs>
  <path style="filter:url(#filter963);opacity:0.2" d="M 176,100 A 80,80 0 0 1 96,180 80,80 0 0 1 16,100 80,80 0 0 1 96,20 80,80 0 0 1 176,100 Z"/>
  <path style="fill:#f05537" d="M 176,96 A 80,80 0 0 1 96,176 80,80 0 0 1 16,96 80,80 0 0 1 96,16 80,80 0 0 1 176,96 Z"/>
  <path style="opacity:0.2;fill:#ffffff" d="M 95.998047,16 A 80,80 0 0 0 16,96 80,80 0 0 0 16.023438,96.638672 80,80 0 0 1 95.998047,17 H 96 A 80,80 0 0 1 175.98242,96.292969 80,80 0 0 0 175.99805,96 80,80 0 0 0 96,16 Z"/>
  <path d="m 95.766455,45.016278 c -3.659003,0.08956 -7.358599,0.539418 -11.064125,1.377502 -29.639826,6.7092 -48.116624,35.699203 -41.280829,64.75127 6.844825,29.0521 36.418334,47.16433 66.058169,40.45965 17.46471,-3.95137 31.05468,-15.64275 37.87238,-30.51691 l -25.57203,-5.73958 a 29.703127,29.703127 0 0 1 -17.987,12.11493 c -12.251963,2.7714 -24.491277,-2.31001 -31.232124,-11.87649 l 53.996214,-12.2121 8.78597,-1.99557 16.82138,-3.805803 A 53.266704,53.266704 0 0 0 150.76051,86.853409 C 144.77127,61.432822 121.37971,44.389329 95.766455,45.016278 Z m 1.59827,24.768502 A 30.100978,30.100978 0 0 1 121.48863,82.226426 L 67.6602,94.403171 C 69.513816,83.010187 78.213801,73.301992 90.388921,70.544168 a 30.100978,30.100978 0 0 1 6.975804,-0.759388 z" style="filter:url(#filter1081);opacity:0.2;fill:#000000"/>
  <path d="m 95.766455,42.016735 c -3.659003,0.08956 -7.358599,0.539418 -11.064125,1.377502 -29.639826,6.7092 -48.116624,35.699203 -41.280829,64.751273 6.844825,29.0521 36.418334,47.16433 66.058169,40.45965 17.46471,-3.95137 31.05468,-15.64275 37.87238,-30.51691 l -25.57203,-5.73958 a 29.703127,29.703127 0 0 1 -17.987,12.11493 C 91.541057,127.235 79.301743,122.15359 72.560896,112.58711 l 53.996214,-12.2121 8.78597,-1.995576 16.82138,-3.8058 A 53.266704,53.266704 0 0 0 150.76051,83.853866 C 144.77127,58.433279 121.37971,41.389786 95.766455,42.016735 Z m 1.59827,24.768502 A 30.100978,30.100978 0 0 1 121.48863,79.226883 L 67.6602,91.403628 C 69.513816,80.010644 78.213801,70.302449 90.388921,67.544625 a 30.100978,30.100978 0 0 1 6.975804,-0.759388 z" style="fill:#ffffff"/>
</svg>
