<?xml version='1.0' encoding='utf-8'?>
<svg xmlns="http://www.w3.org/2000/svg" width="192" height="192" version="1" id="svg50">
  <defs>
    <filter style="color-interpolation-filters:sRGB" id="filter913" x="0.04" width="1.07" y="0.07" height="1.14">
      <feGaussianBlur stdDeviation="1.20"/>
    </filter>
    <filter style="color-interpolation-filters:sRGB" id="filter945" x="0.04" width="1.08" y="0.07" height="1.13">
      <feGaussianBlur stdDeviation="1.52"/>
    </filter>
    <filter style="color-interpolation-filters:sRGB" id="filter977" x="0.04" width="1.08" y="0.06" height="1.12">
      <feGaussianBlur stdDeviation="0.40"/>
    </filter>
    <filter style="color-interpolation-filters:sRGB" id="filter993" x="0.06" width="1.12" y="0.04" height="1.08">
      <feGaussianBlur stdDeviation="1.96"/>
    </filter>
    <filter style="color-interpolation-filters:sRGB" id="filter1021" x="0.04" width="1.09" y="0.07" height="1.13">
      <feGaussianBlur stdDeviation="0.44"/>
    </filter>
    <filter style="color-interpolation-filters:sRGB" id="filter1045" x="0.03" width="1.07" y="0.08" height="1.16">
      <feGaussianBlur stdDeviation="0.80"/>
    </filter>
  </defs>
  <path d="m 70,180 h 30 30 c 10,0 10,-10 10,-10 V 140 H 60 v 30 c 0,0 0,10 10,10 z" style="filter:url(#filter913);opacity:0.20"/>
  <path d="m 70,176 h 30 30 c 10,0 10,-10 10,-10 V 136 H 60 v 30 c 0,0 0,10 10,10 z" style="fill:#89aa5b"/>
  <rect style="opacity:0.20;fill:#ffffff" width="39" height="1" x="78" y="140"/>
  <path d="m 60,92 h 40 40 c 4,0 8,12 8,12 l -20,36 H 56 l -4,-36 c 0,0 4,-12 8,-12 z" style="fill:#c03d3d"/>
  <path d="M 100,20.00 A 40,40 0 0 0 60,60.00 40,40 0 0 0 83.62,96.46 l -11.42,34.27 a 4.00,4.00 0 1 0 7.59,2.53 L 91.22,98.99 A 40,40 0 0 0 100,100.00 a 40,40 0 0 0 40,-40 40,40 0 0 0 -40,-40.00 z" style="filter:url(#filter993);opacity:0.20"/>
  <path d="M 100,16 A 40,40 0 0 0 60,56 40,40 0 0 0 83.62,92.46 L 72.20,126.73 a 4.00,4.00 0 1 0 7.59,2.53 L 91.22,94.99 A 40,40 0 0 0 100,96 40,40 0 0 0 140,56 40,40 0 0 0 100,16 Z" style="fill:#ffc71f"/>
  <path style="opacity:0.20;fill:#ffffff" d="M 100 16 A 40 40 0 0 0 60 56 A 40 40 0 0 0 60.02 56.41 A 40 40 0 0 1 100 16.99 A 40 40 0 0 1 139.98 56.58 A 40 40 0 0 0 140 56 A 40 40 0 0 0 100 16 z M 83.34 93.32 L 72.20 126.73 A 4.00 4.00 0 0 0 72.03 128.49 A 4.00 4.00 0 0 1 72.20 127.73 L 83.62 93.46 A 40 40 0 0 1 83.34 93.32 z "/>
  <path style="filter:url(#filter1045);opacity:0.20" d="M 84 42 A 12 12 0 0 0 72 54 A 12 12 0 0 0 84 66 A 12 12 0 0 0 96 54 A 12 12 0 0 0 84 42 z M 116 42 A 12 12 0 0 0 104 54 A 12 12 0 0 0 116 66 A 12 12 0 0 0 128 54 A 12 12 0 0 0 116 42 z "/>
  <circle r="12" cy="52" cx="84" style="fill:#ffffff"/>
  <path d="m 86,56 a 6,6 0 0 0 -6,6 6,6 0 0 0 0.16,1.36 A 12,12 0 0 0 84,64 12,12 0 0 0 91.91,61 6,6 0 0 0 86,56 Z" style="fill:#3f3f3f"/>
  <circle transform="scale(-1,1)" r="12" cy="52" cx="-116" style="fill:#ffffff"/>
  <path d="m 114,56 a 6,6 0 0 1 6,6 6,6 0 0 1 0.16,1.36 A 12,12 0 0 1 116,64 12,12 0 0 1 108.09,61 6,6 0 0 1 114,56 Z" style="fill:#3f3f3f"/>
  <path d="M 59.88,95.89 A 8.00,8.00 0 0 0 52,104.00 v 24.29 c 0,5.74 0.79,10.48 2.70,14.55 1.92,4.07 5.64,7.95 10.75,8.62 5.11,0.68 9.57,-2.03 12.40,-5.28 2.82,-3.25 4.68,-7.34 5.91,-12.25 a 8.00,8.00 0 1 0 -15.50,-3.94 C 68.20,129.23 68,129.20 68,128.29 v -24.29 a 8.00,8.00 0 0 0 -8.12,-8.11 z m 80.27,0 a 8.00,8.00 0 0 0 -8.13,8.63 c 0.60,9.21 0.42,15.41 0.73,19.32 -1.15,3.91 -2.78,6.20 -7.73,9.50 a 8.00,8.00 0 1 0 8.88,13.31 c 7.06,-4.70 12.04,-10.95 14.20,-18.30 2.16,-7.35 1.98,-15.15 1.34,-24.88 a 8.00,8.00 0 0 0 -7.84,-7.59 z" style="filter:url(#filter945);opacity:0.20"/>
  <path d="m 60,100 v 24.29 C 60,144 72,144 76,128" style="fill:none;stroke:#e44a4a;stroke-width:16;stroke-linecap:round;stroke-linejoin:round"/>
  <path style="opacity:0.10;fill:#ffffff" d="M 59.88 91.89 A 8.00 8.00 0 0 0 52 100 L 52 101 A 8.00 8.00 0 0 1 59.88 92.89 A 8.00 8.00 0 0 1 68 101 L 68 100 A 8.00 8.00 0 0 0 59.88 91.89 z M 140.15 91.89 A 8.00 8.00 0 0 0 132.01 100.44 A 8.00 8.00 0 0 1 140.15 92.89 A 8.00 8.00 0 0 1 147.98 100.48 C 148.21 103.96 148.37 107.19 148.39 110.25 C 148.41 106.90 148.24 103.34 147.98 99.48 A 8.00 8.00 0 0 0 140.15 91.89 z M 132.31 112.17 C 132.20 115.36 131.86 117.89 131.29 119.84 C 130.14 123.76 128.51 126.05 123.56 129.34 A 8.00 8.00 0 0 0 119.92 136.56 A 8.00 8.00 0 0 1 123.56 130.34 C 128.51 127.05 130.14 124.76 131.29 120.84 C 131.80 119.10 132.11 116.86 132.26 114.14 C 132.28 113.50 132.31 112.86 132.31 112.17 z M 76.00 119.70 A 8.00 8.00 0 0 0 75.70 119.71 A 8.00 8.00 0 0 0 68.26 126 C 68.20 125.24 68 125.20 68 124.29 L 68 125.29 C 68 126.20 68.20 126.24 68.26 127 A 8.00 8.00 0 0 1 75.70 120.71 A 8.00 8.00 0 0 1 84.04 128.17 A 8.00 8.00 0 0 0 76.00 119.70 z "/>
  <rect transform="matrix(0.88,0.48,0.52,0.86,0,0)" ry="8.09" y="67.28" x="118.92" height="16.18" width="24.83" style="filter:url(#filter1021);opacity:0.10"/>
  <path d="m 140,100 c 1.23,18.93 0,28 -12,36" style="fill:none;stroke:#e44a4a;stroke-width:16;stroke-linecap:round;stroke-linejoin:round"/>
  <rect transform="matrix(0.02,1.00,1.00,0.02,0,-2.00)" ry="7.92" y="119.00" x="130.96" height="15.84" width="23.50" style="filter:url(#filter977);opacity:0.10"/>
  <rect transform="matrix(0.02,1.00,1.00,0.02,0,0)" ry="7.92" y="118.92" x="127" height="15.84" width="23.50" style="fill:#fcc1b6"/>
  <path d="M 84.89,146.21 83.11,149.79 98,157.23 V 176 h 4 v -18.77 l 14.89,-7.45 -1.78,-3.58 L 100,153.77 Z" style="opacity:0.30"/>
  <path d="M 96,176 H 68 c 0,-6.63 6.27,-12 14,-12 7.73,0 14,5.37 14,12 z" style="fill:#3f3f3f"/>
  <path d="m 132,176 h -28 c 0,-6.63 6.27,-12 14,-12 7.73,0 14,5.37 14,12 z" style="fill:#3f3f3f"/>
  <rect transform="matrix(0.88,0.48,0.52,0.86,0,0)" ry="8.09" y="65.56" x="117.92" height="16.18" width="24.83" style="fill:#fcc1b6"/>
</svg>
