<?xml version='1.0' encoding='utf-8'?>
<svg xmlns="http://www.w3.org/2000/svg" width="192" height="192" version="1" id="svg12">
  <defs>
    <filter style="color-interpolation-filters:sRGB" id="filter955" x="0.05" width="1.10" y="0.05" height="1.10">
      <feGaussianBlur stdDeviation="3.20"/>
    </filter>
    <filter style="color-interpolation-filters:sRGB" id="filter18275" x="0.12" y="0.10" width="1.23" height="1.20">
      <feGaussianBlur stdDeviation="4.54"/>
    </filter>
  </defs>
  <rect style="filter:url(#filter955);opacity:0.20;fill:#000000" width="160" height="160" x="16" y="20" rx="30" ry="30"/>
  <rect style="fill:#e4e4e4" width="160" height="160" x="16" y="16" rx="30" ry="30"/>
  <path style="filter:url(#filter18275);opacity:0.20;fill:#000000" d="M 49,44 V 94 H 86 V 44 Z m 66,8 A 21,21 0 0 0 94,73 21,21 0 0 0 115,94 21,21 0 0 0 136,73 21,21 0 0 0 115,52 Z m -66,50 v 50 h 37 v -50 z m 45,0 v 50 h 49 c 0,-43.07 -41.66,-50 -49,-50 z"/>
  <path style="opacity:0.20;fill:#ffffff" d="M 46 16 C 29.38 16 16 29.38 16 46 L 16 47 C 16 30.38 29.38 17 46 17 L 146 17 C 162.62 17 176 30.38 176 47 L 176 46 C 176 29.38 162.62 16 146 16 L 46 16 z "/>
  <rect style="fill:#40c74a" width="37" height="50" x="49" y="42"/>
  <rect style="fill:#0086d8" width="37" height="50" x="49" y="100"/>
  <path style="fill:#e83f75" d="m 94,100 c 7.34,0 49,6.93 49,50 H 94 Z"/>
  <circle style="fill:#ffb52f" cx="115" cy="71" r="21"/>
</svg>
