<?xml version='1.0' encoding='utf-8'?>
<svg xmlns="http://www.w3.org/2000/svg" width="192" height="192" version="1" id="svg28">
  <defs>
    <filter style="color-interpolation-filters:sRGB" id="filter6495" x="-0.048000001" y="-0.048000001" width="1.096" height="1.096">
      <feGaussianBlur stdDeviation="3.2"/>
    </filter>
    <filter style="color-interpolation-filters:sRGB" id="filter2622" x="-0.050391569" y="-0.19665003" width="1.1007831" height="1.3933001">
      <feGaussianBlur stdDeviation="3.3594379"/>
    </filter>
  </defs>
  <rect transform="matrix(0,-1,-1,0,0,0)" ry="12" rx="12" y="-176" x="-180" height="160" width="160" style="filter:url(#filter6495);opacity:0.2;fill:#000000"/>
  <rect transform="matrix(0,-1,-1,0,0,0)" ry="12" rx="12" y="-176" x="-176" height="160" width="160" style="fill:#3f3f3f"/>
  <path style="opacity:0.1;fill:#ffffff" d="m 28,16 c -6.648,0 -12,5.352 -12,12 v 1 c 0,-6.648 5.352,-12 12,-12 h 136 c 6.648,0 12,5.352 12,12 v -1 c 0,-6.648 -5.352,-12 -12,-12 z"/>
  <path style="filter:url(#filter2622);opacity:0.2;fill:#000000;color:#000000" d="m 21,78 c -1.734567,0 -3.409367,0.262289 -5,0.726562 v 8.638672 C 17.471614,86.518577 19.161757,86 21,86 c 5.57022,0 10,4.42978 10,10 v 23 h 8 V 96 c 0,-5.57022 4.42978,-10 10,-10 5.57022,0 10,4.42978 10,10 v 23 h 8 V 96 C 67,86.106263 58.893737,78 49,78 43.362712,78 38.307807,80.633929 35,84.728516 31.692193,80.633929 26.637288,78 21,78 Z m 75.5,0 A 20.5,20.5 0 0 0 76,98.5 20.5,20.5 0 0 0 96.5,119 20.5,20.5 0 0 0 117,98.5 20.5,20.5 0 0 0 96.5,78 Z m 46.5,0 c -9.89374,0 -18,8.106263 -18,18 v 23 h 8 V 96 c 0,-5.57022 4.42978,-10 10,-10 0.33822,0 0.67092,0.0169 1,0.04883 V 78.029297 C 143.66865,78.010877 143.33571,78 143,78 Z m 26.5,0 A 20.5,20.5 0 0 0 149,98.5 20.5,20.5 0 0 0 169.5,119 20.5,20.5 0 0 0 176,117.80664 v -8.80859 A 12.5,12.5 0 0 1 169.5,111 12.5,12.5 0 0 1 157.54688,102 H 176 V 94 H 157.85938 A 12.5,12.5 0 0 1 169.5,86 12.5,12.5 0 0 1 176,87.916016 V 79.074219 A 20.5,20.5 0 0 0 169.5,78 Z"/>
  <path style="fill:#ffffff;color:#000000" d="M 21 76 C 19.265433 76 17.590633 76.262289 16 76.726562 L 16 85.365234 C 17.471614 84.518577 19.161757 84 21 84 C 26.57022 84 31 88.42978 31 94 L 31 117 L 39 117 L 39 94 C 39 88.42978 43.42978 84 49 84 C 54.57022 84 59 88.42978 59 94 L 59 117 L 67 117 L 67 94 C 67 84.106263 58.893737 76 49 76 C 43.362712 76 38.307807 78.633929 35 82.728516 C 31.692193 78.633929 26.637288 76 21 76 z M 96.5 76 A 20.5 20.5 0 0 0 76 96.5 A 20.5 20.5 0 0 0 96.5 117 A 20.5 20.5 0 0 0 117 96.5 A 20.5 20.5 0 0 0 96.5 76 z M 143 76 C 133.10626 76 125 84.106263 125 94 L 125 117 L 133 117 L 133 94 C 133 88.42978 137.42978 84 143 84 C 143.33822 84 143.67092 84.016901 144 84.048828 L 144 76.029297 C 143.66865 76.010877 143.33571 76 143 76 z M 169.5 76 A 20.5 20.5 0 0 0 149 96.5 A 20.5 20.5 0 0 0 169.5 117 A 20.5 20.5 0 0 0 176 115.80664 L 176 106.99805 A 12.5 12.5 0 0 1 169.5 109 A 12.5 12.5 0 0 1 157.54688 100 L 176 100 L 176 92 L 157.85938 92 A 12.5 12.5 0 0 1 169.5 84 A 12.5 12.5 0 0 1 176 85.916016 L 176 77.074219 A 20.5 20.5 0 0 0 169.5 76 z "/>
</svg>
