<?xml version='1.0' encoding='utf-8'?>
<svg xmlns="http://www.w3.org/2000/svg" width="192" height="192" version="1" id="svg14">
  <defs>
    <filter style="color-interpolation-filters:sRGB" id="filter848" x="-0.048000001" width="1.096" y="-0.048000001" height="1.096">
      <feGaussianBlur stdDeviation="3.2"/>
    </filter>
    <filter style="color-interpolation-filters:sRGB" id="filter2766" x="-0.047402985" y="-0.048612245" width="1.094806" height="1.0972245">
      <feGaussianBlur stdDeviation="1.985"/>
    </filter>
  </defs>
  <rect transform="matrix(0,-1,-1,0,0,0)" ry="8" rx="8" y="-176" x="-180" height="160" width="160" style="filter:url(#filter848);opacity:0.2"/>
  <rect transform="matrix(0,-1,-1,0,0,0)" ry="8" rx="8" y="-176" x="-176" height="160" width="160" style="fill:#ef3434"/>
  <path style="opacity:0.2;fill:#ffffff" d="m 24,16 c -4.432,0 -8,3.568 -8,8 v 1 c 0,-4.432 3.568,-8 8,-8 h 144 c 4.432,0 8,3.568 8,8 v -1 c 0,-4.432 -3.568,-8 -8,-8 z"/>
  <path style="filter:url(#filter2766);opacity:0.2;fill:#000000;stop-color:#000000" d="M 58.5,51 55.056641,78 H 143.05664 L 146.5,51 Z M 53.525391,90 46,149 h 88 l 3.18945,-25 H 82.226562 l 1.701172,-12 h 54.791016 l 2.80664,-22 z"/>
  <path style="fill:#ffffff;stop-color:#000000" d="M 58.5,47 55.056641,74 H 143.05664 L 146.5,47 Z M 53.525391,86 46,145 h 88 l 3.18945,-25 H 82.226562 l 1.701172,-12 h 54.791016 l 2.80664,-22 z"/>
</svg>
