<?xml version='1.0' encoding='utf-8'?>
<svg xmlns="http://www.w3.org/2000/svg" width="192" height="192" version="1" id="svg14">
  <defs>
    <filter style="color-interpolation-filters:sRGB" id="filter850" x="0.05" width="1.10" y="0.05" height="1.10">
      <feGaussianBlur stdDeviation="3.20"/>
    </filter>
    <filter style="color-interpolation-filters:sRGB" id="filter3272" x="0.11" y="0.11" width="1.21" height="1.22">
      <feGaussianBlur stdDeviation="5.41"/>
    </filter>
  </defs>
  <circle style="filter:url(#filter850);opacity:0.20;fill:#000000" cx="96" cy="100" r="80"/>
  <circle r="80" cy="96" cx="96" style="fill:#e4e4e4"/>
  <path style="fill:#38adfa" d="m 688.81,257.00 c 0.33,0.33 -1.19,0.37 -1.92,0.08 0.80,0.32 0.56,0.56 0.60,0.60 1.05,0.04 1.64,0.19 1.31,0.53 z"/>
  <path style="opacity:0.20;fill:#ffffff" d="M 96 16 A 80 80 0 0 0 16 96 A 80 80 0 0 0 16.02 96.47 A 80 80 0 0 1 96 17 A 80 80 0 0 1 175.97 96.51 A 80 80 0 0 0 176 96 A 80 80 0 0 0 96 16 z "/>
  <path style="filter:url(#filter3272);opacity:0.20;fill:#000000;color:#000000" d="m 95.95,37.00 c -29.28,0.03 -54.54,21.02 -59.91,49.80 -5.37,28.78 10.61,57.48 37.91,68.07 A 11,11 0 0 0 88.17,148.59 11,11 0 0 0 81.90,134.36 C 64.33,127.55 54.21,109.36 57.66,90.84 61.12,72.33 77.13,59.02 95.97,59.00 c 18.84,0.02 34.87,13.27 38.36,31.78 3.49,18.51 -6.61,36.72 -24.16,43.56 a 11,11 0 0 0 -6.25,14.24 11,11 0 0 0 14.24,6.25 c 27.28,-10.64 43.21,-39.36 37.79,-68.13 C 150.52,57.93 125.23,36.97 95.95,37.00 Z m 0.05,39 a 22,22 0 0 0 -22,22 22,22 0 0 0 22,22.00 22,22 0 0 0 22,-22.00 22,22 0 0 0 -22,-22 z"/>
  <path style="fill:#20ad1f;color:#000000" d="M 95.95 35 C 66.67 35.03 41.41 56.02 36.04 84.80 C 30.66 113.59 46.64 142.28 73.94 152.87 A 11 11 0 0 0 88.17 146.59 A 11 11 0 0 0 81.90 132.36 C 64.33 125.55 54.21 107.36 57.66 88.84 C 61.12 70.33 77.13 57.02 95.97 57 C 114.80 56.98 130.84 70.27 134.32 88.78 C 137.81 107.29 127.72 125.49 110.17 132.34 A 11 11 0 0 0 103.91 146.58 A 11 11 0 0 0 118.16 152.83 C 145.44 142.20 161.37 113.48 155.94 84.70 C 150.52 55.93 125.23 34.97 95.95 35 z M 96 74 A 22 22 0 0 0 74 96 A 22 22 0 0 0 96 118 A 22 22 0 0 0 118 96 A 22 22 0 0 0 96 74 z "/>
</svg>
