<?xml version='1.0' encoding='utf-8'?>
<svg xmlns="http://www.w3.org/2000/svg" width="192" height="192" version="1.1" id="svg24">
  <defs>
    <filter style="color-interpolation-filters:sRGB" id="filter869" x="0.09" y="0.11" width="1.19" height="1.22">
      <feGaussianBlur stdDeviation="2.97"/>
    </filter>
    <filter style="color-interpolation-filters:sRGB" id="filter873" x="0.04" y="0.06" width="1.08" height="1.12">
      <feGaussianBlur stdDeviation="0.99"/>
    </filter>
  </defs>
  <circle style="fill:#222c62" cx="56.00" cy="104" r="40"/>
  <circle style="fill:#222c62" cx="136" cy="104" r="40"/>
  <circle style="fill:#222c62" cx="96" cy="124" r="40"/>
  <circle style="fill:#222c62" cx="76" cy="68" r="40"/>
  <circle style="fill:#222c62" cx="124" cy="76" r="40"/>
  <path style="filter:url(#filter873);opacity:0.20" d="m 67.86,77.98 a 4.00,4.00 0 0 0 -1.65,7.60 L 79.05,92.00 66.21,98.42 a 4.00,4.00 0 1 0 3.58,7.16 l 20,-10.00 a 4.00,4.00 0 0 0 0,-7.16 l -20,-10 a 4.00,4.00 0 0 0 -1.93,0.45 z m 28.15,27.98 a 4.00,4.00 0 0 0 -2.88,6.83 c 0,0 1.56,1.54 4.03,2.78 C 99.64,116.82 103.29,118 108,118 c 4.71,0 8.36,-1.18 10.84,-2.43 2.47,-1.25 4.03,-2.78 4.03,-2.78 a 4.00,4.00 0 1 0 -5.73,-5.58 c 0,0 0.39,0.46 -1.89,1.22 C 113.74,109.18 111.39,110 108,110 c -3.39,0 -5.74,0.82 -7.24,-1.57 -1.50,0.75 -1.89,-1.22 -1.89,-1.22 a 4.00,4.00 0 0 0 -2.86,-1.25 z"/>
  <path style="fill:none;stroke:#ffffff;stroke-width:8;stroke-linecap:round;stroke-linejoin:round" d="m 68.00,80.00 20,10 -20,10.00"/>
  <path style="fill:none;stroke:#ffffff;stroke-width:8;stroke-linecap:round;stroke-linejoin:round" d="m 96.00,108 c 0,0 3.90,4 12.00,4 8.10,0 12,-4 12,-4"/>
  <path style="filter:url(#filter869);opacity:0.20;fill:none;stroke:#000000;stroke-width:16;stroke-linecap:round;stroke-linejoin:round" d="M 76.00,32.00 A 40.00,40.00 0 0 0 36.00,72.00 40.00,40.00 0 0 0 36.05,73.39 40.00,40.00 0 0 0 16.00,108 40.00,40.00 0 0 0 56.00,148 40.00,40.00 0 0 0 61.20,147.62 40.00,40.00 0 0 0 96.00,168 40.00,40.00 0 0 0 130.83,147.62 40.00,40.00 0 0 0 136,148 40.00,40.00 0 0 0 176,108 40.00,40.00 0 0 0 163.98,79.47 40.00,40.00 0 0 0 124,40.00 40.00,40.00 0 0 0 105.21,44.72 40.00,40.00 0 0 0 76.00,32.00 Z"/>
  <path style="fill:none;stroke:#e4e4e4;stroke-width:16;stroke-linecap:round;stroke-linejoin:round" d="M 76.00,28.00 A 40.00,40.00 0 0 0 36.00,68.00 40.00,40.00 0 0 0 36.05,69.39 40.00,40.00 0 0 0 16.00,104 40.00,40.00 0 0 0 56.00,144 40.00,40.00 0 0 0 61.20,143.62 40.00,40.00 0 0 0 96.00,164 40.00,40.00 0 0 0 130.83,143.62 40.00,40.00 0 0 0 136,144 40.00,40.00 0 0 0 176,104 40.00,40.00 0 0 0 163.98,75.47 40.00,40.00 0 0 0 124,36.00 40.00,40.00 0 0 0 105.21,40.72 40.00,40.00 0 0 0 76.00,28.00 Z"/>
  <path style="opacity:0.20;fill:#ffffff;color:#000000" d="M 76 20 C 50.58 20 29.68 40.01 28.15 65.06 C 15.64 74.00 8.02 88.43 8 103.99 A 8.00 8.00 0 0 0 8 104 C 8 104.18 8.01 104.37 8.01 104.55 C 8.18 89.16 15.76 74.91 28.15 66.06 C 29.68 41.01 50.58 21 76 21 A 8.00 8.00 0 0 1 76.01 21 C 87.32 21.01 98.17 25.05 106.75 32.23 C 112.24 30.11 118.08 29.01 123.99 29 A 8.00 8.00 0 0 1 124.00 29 C 149.08 29.01 169.64 48.54 171.62 73.19 C 179.37 81.86 183.88 92.97 183.98 104.65 C 183.99 104.43 184 104.22 184 104 A 8.00 8.00 0 0 0 184 104.00 A 8.00 8.00 0 0 0 184 104.00 A 8.00 8.00 0 0 0 184 103.99 A 8.00 8.00 0 0 0 184 103.99 A 8.00 8.00 0 0 0 184 103.99 C 183.99 92.18 179.44 80.95 171.62 72.19 C 169.64 47.54 149.08 28.01 124.00 28 A 8.00 8.00 0 0 0 123.99 28 C 118.08 28.01 112.24 29.11 106.75 31.23 C 98.17 24.05 87.32 20.01 76.01 20 A 8.00 8.00 0 0 0 76 20 z M 44.02 68.57 C 44.02 68.71 44.00 68.84 44.00 68.98 C 44.01 69.26 44.02 69.55 44.03 69.83 A 8.00 8.00 0 0 0 44.04 68.98 C 44.03 68.85 44.03 68.71 44.02 68.57 z M 24.02 104.41 C 24.02 104.61 24.00 104.80 24 105 L 24 105.00 C 24.00 122.76 38.22 136.98 55.97 137.00 C 57.35 136.98 58.73 136.88 60.09 136.69 A 8.00 8.00 0 0 1 68.17 140.69 C 73.83 150.76 84.45 156.98 96.00 157 C 107.56 156.99 118.19 150.77 123.86 140.69 A 8.00 8.00 0 0 1 131.94 136.69 C 133.29 136.88 134.66 136.98 136.03 137.00 C 153.78 136.98 168.00 122.76 168 105.01 C 168.00 104.84 167.98 104.68 167.97 104.52 C 167.70 122.03 153.61 135.98 136.03 136.00 C 134.66 135.98 133.29 135.88 131.94 135.69 A 8.00 8.00 0 0 0 123.86 139.69 C 118.19 149.77 107.56 155.99 96.00 156 C 84.45 155.98 73.83 149.76 68.17 139.69 A 8.00 8.00 0 0 0 60.09 135.69 C 58.73 135.88 57.35 135.98 55.97 136.00 C 38.36 135.98 24.24 121.98 24.02 104.41 z "/>
</svg>
