<?xml version='1.0' encoding='utf-8'?>
<svg xmlns="http://www.w3.org/2000/svg" width="192" height="192" version="1" id="svg18">
  <defs>
    <filter style="color-interpolation-filters:sRGB" id="filter859" x="0.05" width="1.10" y="0.05" height="1.10">
      <feGaussianBlur stdDeviation="3.20"/>
    </filter>
    <filter style="color-interpolation-filters:sRGB" id="filter878" x="0.05" width="1.10" y="0.05" height="1.09">
      <feGaussianBlur stdDeviation="1.36"/>
    </filter>
    <filter style="color-interpolation-filters:sRGB" id="filter894" x="0.04" width="1.09" y="0.05" height="1.10">
      <feGaussianBlur stdDeviation="0.65"/>
    </filter>
  </defs>
  <rect style="filter:url(#filter859);opacity:0.20;fill:#000000" width="160" height="160" x="-180" y="-176" rx="80" ry="80" transform="matrix(0,-1,-1,0,0,0)"/>
  <rect transform="matrix(0,-1,-1,0,0,0)" ry="80" rx="80" y="-176" x="-176" height="160" width="160" style="fill:#2b7fe8"/>
  <path style="opacity:0.20;fill:#ffffff" d="M 96 16 C 51.68 16 16.01 51.68 16.01 96 C 16.01 96.34 16.01 96.67 16.01 97 C 16.01 52.68 51.68 17 96 17 C 140.32 17 175.99 52.68 175.99 97 C 175.99 96.67 175.99 96.34 175.99 96 C 175.99 51.68 140.32 16 96 16 z "/>
  <path d="M 82.07,113.54 96.75,122.02 117.04,110.63 84.35,91.76 Z" style="filter:url(#filter894);opacity:0.10"/>
  <path d="M 82.07,109.54 96.75,118.02 117.04,106.63 84.35,87.76 Z" style="fill:#8bb9f3"/>
  <path d="m 72,64 v 72 L 92,124.75 V 92 l 16,9 13.11,7.38 L 136,100 104,82 Z" style="filter:url(#filter878);opacity:0.10"/>
  <path d="m 72,60 v 36 36 L 92,120.75 V 106 88 l 16,9 13.11,7.38 L 136,96 Z" style="fill:#ffffff"/>
</svg>
