<svg xmlns="http://www.w3.org/2000/svg" id="svg28" width="192" height="192" version="1"><defs><filter style="color-interpolation-filters:sRGB" id="filter6495" width="1.1" height="1.1" x=".05" y=".05"><feGaussianBlur stdDeviation="3.2"/></filter><filter style="color-interpolation-filters:sRGB" id="filter1530" width="1.19" height="1.12" x=".1" y=".06"><feGaussianBlur stdDeviation="2.56"/></filter></defs><rect width="160" height="160" x="-180" y="-176" rx="12" ry="12" transform="matrix(0,-1,-1,0,0,0)" style="filter:url(#filter6495);opacity:.2;fill:#000"/><rect width="160" height="160" x="-176" y="-176" rx="12" ry="12" transform="matrix(0,-1,-1,0,0,0)" style="fill:#0d9cff"/><path style="opacity:.2;fill:#fff" d="m 28,16 c -6.65,0 -12,5.35 -12,12 v 1 c 0,-6.65 5.35,-12 12,-12 h 136 c 6.65,0 12,5.35 12,12 v -1 c 0,-6.65 -5.35,-12 -12,-12 z"/><path style="filter:url(#filter1530);opacity:.2;fill:#000" d="m 88,48 v 100 h 16 V 48 Z m 24,28 v 72 h 16 V 76 Z m -48,26 v 46 h 16 v -46 z"/><path style="fill:#fff" d="M 88 46 L 88 146 L 104 146 L 104 46 L 88 46 z M 112 74 L 112 146 L 128 146 L 128 74 L 112 74 z M 64 100 L 64 146 L 80 146 L 80 100 L 64 100 z"/></svg>