<?xml version='1.0' encoding='utf-8'?>
<svg xmlns="http://www.w3.org/2000/svg" width="192" height="192" version="1.1" id="svg16">
  <defs>
    <filter style="color-interpolation-filters:sRGB" id="filter863" x="0.05" width="1.11" y="0.04" height="1.09">
      <feGaussianBlur stdDeviation="2.88"/>
    </filter>
    <filter style="color-interpolation-filters:sRGB" id="filter879" x="0.11" width="1.22" y="0.03" height="1.07">
      <feGaussianBlur stdDeviation="0.90"/>
    </filter>
  </defs>
  <path d="m 40,20 c -4.43,0 -8,3.57 -8,8 v 144 c 0,4.43 3.57,8 8,8 h 112 c 4.43,0 8,-3.57 8,-8 V 28 c 0,-4.43 -3.57,-8 -8,-8 z" style="filter:url(#filter863);opacity:0.20;fill:#000000"/>
  <path style="fill:#745145" d="m 40,16 c -4.43,0 -8,3.57 -8,8 v 144 c 0,4.43 3.57,8 8,8 h 112 c 4.43,0 8,-3.57 8,-8 V 24 c 0,-4.43 -3.57,-8 -8,-8 z"/>
  <path style="fill:#ff3434" d="m 143.86,72 c 1.40,0.09 2.92,0 4.57,1.15 14.78,6.36 4.87,23.81 -13.97,37.08 0.11,-2.50 -1.15,-7.95 -1.13,-10.35 16.07,-11.02 25.47,-21.75 15.23,-26.00 -10.80,-4.48 -14.15,7.76 -14.34,25.52 -1.01,1.04 -7.98,5.67 -9.03,6.40 0.39,-16.20 9.00,-32.74 17.28,-33.68 0.44,0.09 0.93,0.09 1.40,0.09 m -15.05,28.19 3.36,-1.31 2.79,1.88 0.56,5.91 -3.52,2.70 -1.46,1.96 c -10.84,7.19 -20.08,12.73 -32.23,17.31 l -7.58,1.13 H 85.74 c -4.60,-2.71 -1.86,-3.75 -18.56,-5.84 l 18.82,1.46 c 14.52,-5.63 29.34,-13.72 42.82,-22.54 m -33.13,23.58 c -2.18,0 -19.16,-1.47 -25.92,-2.10 -6.69,-1.04 -14.90,-1.36 -13.35,6.46 -1.77,-4.17 2.26,-11.25 8.00,-12.50 8.87,-1.98 22.93,3.45 27.99,5.12 m -8.15,2.17 c 2.64,1.04 8.66,1.80 11.51,2.74 -4.03,2.09 -24.28,9.56 -32.65,8.00 -1.34,0 -6.98,-4.06 -7.12,-6.98 0.43,5.32 25.19,1.36 28.26,-3.86 m -5.51,0.09 c 2.17,-1.04 12.33,0.99 14.57,-1.82 12.72,4.45 29.83,14.90 42.08,21.94 l 3.55,1.04 c 0.69,4.87 3.68,6.54 6.42,9.70 l -4.15,4.17 -3.24,-5.32 c -14.34,-8.65 -42.68,-22.63 -59.22,-29.35 m 59.22,29.35 c 1.75,1.04 3.43,2.09 5.01,3.13 3.68,10.44 7.96,17.46 12.06,17.16 -6.32,3.02 -19.94,-11.87 -24.54,-25.89 m 24.54,25.89 c 9.65,-5.73 -10.77,-16.18 -15.36,-19.22 -1.03,-2.92 1.79,-7.76 0.87,-11.20 14.40,8.97 22.91,21.94 18.08,28.09 -1.16,1.46 -2.40,2.19 -3.62,2.29 m -14.01,-21.84 c 0.67,-2.69 -9.56,-8.80 -11.17,-9.74 -2.15,-16.94 -2.25,-18.61 -4.08,-31.78 1.09,-1.04 7.82,-6.29 8.86,-7.02 1.29,14.07 3.72,33.15 7.16,45.88"/>
  <path style="opacity:0.20" d="m 40,16 c -4.43,0 -8,3.57 -8,8 v 144 c 0,4.43 3.57,8 8,8 H 55.91 V 16 H 40.00 Z"/>
  <path style="filter:url(#filter879);opacity:0.20" d="m 60,17.90 c -4,0 -4,4 -4,4 V 84 l 10,-6 10,6 V 21.90 c 0,-4 -4,-4 -4,-4 z"/>
  <path style="opacity:0.10;fill:#ffffff" d="M 40 16 C 35.57 16 32 19.57 32 24 L 32 25 C 32 20.57 35.57 17 40 17 L 152 17 C 156.43 17 160 20.57 160 25 L 160 24 C 160 19.57 156.43 16 152 16 L 40 16 z "/>
  <path style="fill:#ff3434" d="m 56,16 v 66 l 10,-6 10,6 V 16 Z"/>
</svg>
