<?xml version='1.0' encoding='utf-8'?>
<svg xmlns="http://www.w3.org/2000/svg" width="192" height="192" version="1" id="svg16">
  <defs>
    <filter style="color-interpolation-filters:sRGB" id="filter867" x="0.05" width="1.10" y="0.05" height="1.10">
      <feGaussianBlur stdDeviation="3.20"/>
    </filter>
    <filter style="color-interpolation-filters:sRGB" id="filter10478" x="0.05" y="0.05" width="1.10" height="1.10">
      <feGaussianBlur stdDeviation="2.20"/>
    </filter>
  </defs>
  <rect ry="80" rx="80" height="160" width="160" y="-176" x="-180" transform="matrix(0,-1,-1,0,0,0)" style="filter:url(#filter867);opacity:0.20;fill:#000000"/>
  <rect style="fill:#ff524e" transform="matrix(0,-1,-1,0,0,0)" x="-176" y="-176" width="160" height="160" rx="80" ry="80"/>
  <path style="filter:url(#filter10478);opacity:0.20;fill:#000000" d="M 96,43 A 55,55 0 0 0 41,98 55,55 0 0 0 96,153 55,55 0 0 0 151,98 55,55 0 0 0 96,43 Z m 0,7 a 6,6 0 0 1 6,6 6,6 0 0 1 -6,6 6,6 0 0 1 -6,-6 6,6 0 0 1 6,-6 z M 81,75 h 7 c 0.55,0 1,0.45 1,1 v 18 c 1.06,0 1.34,0.04 1.95,-1.00 L 105.12,75.79 C 105.70,75.07 106.06,75.03 106.85,75 h 9.19 c 0.77,0 1.37,0.05 0.43,1.05 L 99.31,96.97 117.56,119.74 c 0.87,1.08 0.60,1.26 0.48,1.26 h -8.85 c 0.82,0 -1.26,0.15 -1.70,0.61 L 92.74,103.17 C 91.62,101.78 90.90,101.84 89,102 v 18 c 0,0.55 0.45,1 -1,1 h -7 c 0.55,0 -1,0.45 -1,-1 V 76 c 0,0.55 0.45,-1 1,-1 z m -25,4 a 6,6 0 0 1 6,6 6,6 0 0 1 -6,6 6,6 0 0 1 -6,-6 6,6 0 0 1 6,-6 z m 80,0 a 6,6 0 0 1 6,6 6,6 0 0 1 -6,6 6,6 0 0 1 -6,-6 6,6 0 0 1 6,-6 z m -65,47 a 6,6 0 0 1 6,6 6,6 0 0 1 -6,6 6,6 0 0 1 -6,-6 6,6 0 0 1 6,-6 z m 50,0 a 6,6 0 0 1 6,6 6,6 0 0 1 -6,6 6,6 0 0 1 -6,-6 6,6 0 0 1 6,-6 z"/>
  <path style="fill:#ffffff" d="M 96 41 A 55 55 0 0 0 41 96 A 55 55 0 0 0 96 151 A 55 55 0 0 0 151 96 A 55 55 0 0 0 96 41 z M 96 48 A 6 6 0 0 1 102 54 A 6 6 0 0 1 96 60 A 6 6 0 0 1 90 54 A 6 6 0 0 1 96 48 z M 81 73 L 88 73 C 88.55 73 89 73.45 89 74 L 89 92 C 90.06 92 90.34 91.96 90.95 91.00 L 105.12 73.79 C 105.70 73.07 106.06 73.03 106.85 73 L 116.04 73 C 116.81 73 117.41 72.95 116.47 74.05 L 99.31 94.97 L 117.56 117.74 C 118.43 118.83 118.16 119 117.08 119 L 108.23 119 C 107.41 119 106.97 119.15 106.53 118.39 L 92.74 101.17 C 91.62 99.78 90.90 99.84 89 100 L 89 118 C 89 118.55 88.55 119 88 119 L 81 119 C 80.45 119 80 118.55 80 118 L 80 74 C 80 73.45 80.45 73 81 73 z M 56 77 A 6 6 0 0 1 62 83 A 6 6 0 0 1 56 89 A 6 6 0 0 1 50 83 A 6 6 0 0 1 56 77 z M 136 77 A 6 6 0 0 1 142 83 A 6 6 0 0 1 136 89 A 6 6 0 0 1 130 83 A 6 6 0 0 1 136 77 z M 71 124 A 6 6 0 0 1 77 130 A 6 6 0 0 1 71 136 A 6 6 0 0 1 65 130 A 6 6 0 0 1 71 124 z M 121 124 A 6 6 0 0 1 127 130 A 6 6 0 0 1 121 136 A 6 6 0 0 1 115 130 A 6 6 0 0 1 121 124 z "/>
  <path style="opacity:0.20;fill:#ffffff" d="M 96 16 C 51.68 16 16 51.68 16 96 C 16 96.34 16.00 96.67 16 97 C 16 52.68 51.68 17 96 17 C 140.32 17 176 52.68 176 97 C 176.00 96.67 176 96.34 176 96 C 176 51.68 140.32 16 96 16 z "/>
</svg>
