<svg xmlns="http://www.w3.org/2000/svg" id="svg44" width="192" height="192" version="1.1"><defs><filter style="color-interpolation-filters:sRGB" id="filter974" width="1.1" height="1.1" x=".05" y=".05"><feGaussianBlur stdDeviation="3.2"/></filter><filter style="color-interpolation-filters:sRGB" id="filter990" width="1.05" height="2.97" x=".02" y=".98"><feGaussianBlur stdDeviation="1.64"/></filter><filter style="color-interpolation-filters:sRGB" id="filter1006" width="1.09" height="1.11" x=".04" y=".05"><feGaussianBlur stdDeviation="2.48"/></filter></defs><rect width="160" height="160" x="-180" y="-176" rx="8" ry="8" transform="matrix(0,-1,-1,0,0,0)" style="filter:url(#filter974);opacity:.2"/><path d="m 16,151.60 v 12.40 3.43 c 0,4.75 3.57,8.57 8,8.57 h 144 c 4.43,0 8,-3.82 8,-8.57 V 164.00 151.60 Z" style="fill:#3f3f3f"/><rect width="24" height="12" x="24" y="164.01" style="fill:#009072"/><rect width="24" height="12" x="64" y="164.01" style="fill:#009072"/><rect width="24" height="12" x="104" y="164.01" style="fill:#009072"/><rect width="24" height="12" x="144" y="164.01" style="fill:#009072"/><rect width="160" height="4" x="16" y="150" style="filter:url(#filter990);opacity:.2"/><path d="m 24,16 c -4.43,0 -8,3.57 -8,8 V 152 H 176 V 24 c 0,-4.43 -3.57,-8 -8,-8 z" style="fill:#4551ff"/><path d="M 28,30 V 46 H 76 V 30 Z m 88,0 v 16 h 48 V 30 Z M 28,62 V 78 H 76 V 62 Z m 88,0 v 16 h 48 V 62 Z M 28,94 v 16 H 76 V 94 Z m 88,0 v 16 h 48 V 94 Z m -88,32 v 16 h 48 v -16 z m 88,0 v 16 h 48 v -16 z" style="filter:url(#filter1006);opacity:.2"/><rect width="16" height="136" x="88" y="16.01" style="fill:#07e9ff"/><rect width="48" height="16" x="28" y="28.01" style="fill:#ff0"/><path style="opacity:.1;fill:#fff" d="M 24 16 C 19.57 16 16 19.57 16 24 L 16 25 C 16 20.57 19.57 17 24 17 L 168 17 C 172.43 17 176 20.57 176 25 L 176 24 C 176 19.57 172.43 16 168 16 L 24 16 z"/><rect width="16" height="48" x="60.01" y="-76" transform="rotate(90)" style="fill:#07e9ff"/><rect width="16" height="48" x="92.01" y="-76" transform="rotate(90)" style="fill:#07e9ff"/><rect width="16" height="48" x="124.01" y="-76" transform="rotate(90)" style="fill:#07e9ff"/><rect width="48" height="16" x="116" y="28.01" style="fill:#ff0"/><rect width="16" height="48" x="60.01" y="-164" transform="rotate(90)" style="fill:#07e9ff"/><rect width="16" height="48" x="92.01" y="-164" transform="rotate(90)" style="fill:#07e9ff"/><path style="opacity:.2;fill:#fff" d="M 28 28 L 28 29 L 76 29 L 76 28 L 28 28 z M 116 28 L 116 29 L 164 29 L 164 28 L 116 28 z M 28 60 L 28 61 L 76 61 L 76 60 L 28 60 z M 116 60 L 116 61 L 164 61 L 164 60 L 116 60 z M 28 92 L 28 93 L 76 93 L 76 92 L 28 92 z M 116 92 L 116 93 L 164 93 L 164 92 L 116 92 z M 28 124 L 28 125 L 76 125 L 76 124 L 28 124 z M 116 124 L 116 125 L 164 125 L 164 124 L 116 124 z"/><rect width="16" height="48" x="124.01" y="-164" transform="rotate(90)" style="fill:#07e9ff"/></svg>