<?xml version='1.0' encoding='utf-8'?>
<svg xmlns="http://www.w3.org/2000/svg" width="192" height="192" version="1" id="svg12">
  <defs>
    <filter style="color-interpolation-filters:sRGB" id="filter860" x="0.05" width="1.10" y="0.05" height="1.10">
      <feGaussianBlur stdDeviation="3.20"/>
    </filter>
    <filter style="color-interpolation-filters:sRGB" id="filter873" x="0.05" width="1.11" y="0.04" height="1.09">
      <feGaussianBlur stdDeviation="1.81"/>
    </filter>
  </defs>
  <rect style="filter:url(#filter860);opacity:0.20" width="160" height="160" x="16" y="20" rx="8" ry="8"/>
  <rect style="fill:#ffa702" width="160" height="160" x="16" y="16" rx="8" ry="8"/>
  <path style="opacity:0.20;fill:#ffffff" d="m 24,16 c -4.43,0 -8,3.57 -8,8 v 1 c 0,-4.43 3.57,-8 8,-8 h 144 c 4.43,0 8,3.57 8,8 v -1 c 0,-4.43 -3.57,-8 -8,-8 z"/>
  <path style="filter:url(#filter873);opacity:0.20;fill:#000000;color:#000000;font-stretch:normal;font-variant-ligatures:normal;font-variant-position:normal;font-variant-caps:normal;font-variant-numeric:normal;font-variant-alternates:normal;font-feature-settings:normal;text-indent:0;text-align:start;text-decoration-line:none;text-decoration-style:solid;text-decoration-color:#000000;text-transform:none;writing-mode:lr-tb;direction:ltr;text-orientation:mixed;dominant-baseline:auto;baseline-shift:baseline;white-space:normal;shape-padding:0;clip-rule:nonzero;display:inline;overflow:visible;visibility:visible;isolation:auto;mix-blend-mode:normal;color-interpolation:sRGB;color-interpolation-filters:linearRGB;solid-color:#000000;solid-opacity:1;vector-effect:none;fill-rule:nonzero;color-rendering:auto;image-rendering:auto;shape-rendering:auto;text-rendering:auto;enable-background:accumulate" d="m 100.38,47.00 c -1.66,0.02 -3.33,0.08 -5.01,0.30 C 77.42,49.63 63.94,65.03 64,83.13 a 5.00,5.00 0 1 0 10,0.04 c 0.05,-13.14 9.62,-24.18 22.65,-25.87 13.03,-1.69 25.20,6.51 28.51,19.23 3.25,12.46 -3.05,25.29 -14.78,30.39 L 98.30,86.45 a 5.00,5.00 0 0 0 -4.12,-2.45 5.00,5.00 0 0 0 -4.44,2.39 l -33,54.00 a 5.00,5.00 0 1 0 8.53,5.21 L 93.93,98.70 121.70,145.55 a 5.00,5.00 0 1 0 8.60,-5.10 l -14.80,-24.97 c 15.44,-7.36 23.70,-24.80 19.33,-41.55 -3.99,-15.32 -17.48,-26.00 -32.81,-26.87 0.55,0.03 -1.10,0.05 -1.65,0.05 z"/>
  <path style="fill:none;stroke:#ffffff;stroke-width:10;stroke-linecap:round;stroke-linejoin:round" d="M 69.00,81.11 A 31,31 0 0 1 96.01,50.26 31,31 0 0 1 130.00,73.19 31,31 0 0 1 111.51,109.78"/>
  <path style="fill:none;stroke:#ffffff;stroke-width:10;stroke-linecap:round;stroke-linejoin:round" d="m 61,141 33,-54 32,54"/>
</svg>
