<?xml version='1.0' encoding='utf-8'?>
<svg xmlns="http://www.w3.org/2000/svg" width="192" height="192" version="1" id="svg16">
  <defs>
    <filter style="color-interpolation-filters:sRGB" id="filter867" x="0.05" width="1.10" y="0.05" height="1.10">
      <feGaussianBlur stdDeviation="3.20"/>
    </filter>
    <filter style="color-interpolation-filters:sRGB" id="filter3968" x="0.05" y="0.04" width="1.11" height="1.09">
      <feGaussianBlur stdDeviation="2.06"/>
    </filter>
  </defs>
  <rect ry="80" rx="80" height="160" width="160" y="-176" x="-180" transform="matrix(0,-1,-1,0,0,0)" style="filter:url(#filter867);opacity:0.20;fill:#000000"/>
  <rect style="fill:#31cf86" transform="matrix(0,-1,-1,0,0,0)" x="-176" y="-176" width="160" height="160" rx="80" ry="80"/>
  <circle style="opacity:0.20;fill:none;stroke:#000000;stroke-width:4;stroke-linecap:round;stroke-linejoin:round" cx="96" cy="96" r="53"/>
  <path style="opacity:0.20;fill:#ffffff" d="M 96 16 C 51.68 16 16 51.68 16 96 C 16 96.34 16.00 96.67 16 97 C 16 52.68 51.68 17 96 17 C 140.32 17 176 52.68 176 97 C 176.00 96.67 176 96.34 176 96 C 176 51.68 140.32 16 96 16 z "/>
  <path style="filter:url(#filter3968);opacity:0.20;fill:#000000" d="m 96,41.01 a 4,4 0 0 0 -4,4 4,4 0 0 0 4,4 c 21.22,0 40.00,13.63 46.58,33.80 6.58,20.18 0.55,42.26 -17.69,54.77 -17.14,12.51 -40.34,12.58 -57.56,0.17 a 4,4 0 0 0 -5.58,0.90 4,4 0 0 0 0.90,5.58 c 20.00,14.42 47.04,14.34 66.95,0.20 19.91,-14.54 28.22,-40.27 20.58,-63.71 C 142.54,56.89 120.65,41.01 96,41.01 Z m 4.94,26 c -2.72,0.00 -4.49,0.42 -6.84,1.54 -4.44,2.13 -7.70,6.85 -9.62,13.96 0.39,1.46 -1.56,7.29 -2.59,12.96 -2.02,11.12 -2.71,14.20 -3.57,15.89 0.72,1.41 -2.16,2.58 -5.02,4.08 L 71,116.64 l 2.53,6.53 c 0,0 1.24,0.36 1.93,0.58 4.54,-1.10 4.97,-1.59 21.42,-1.59 h 16.99 l 1.11,-7 H 85.60 c 0.83,-2.15 1.87,-7.12 3.46,-15.83 2.28,-12.51 3.03,-15.69 4.29,-18.33 2.03,-4.24 4.02,-5.84 7.76,-5.84 2.36,0 3.73,0.51 4.86,1.85 1.03,1.23 1.22,2.58 0.64,4.65 -1.00,3.59 -2.79,4.96 -7.53,5.99 0.76,0.16 -2.50,0.54 -2.50,0.54 0,0 0.31,1.02 0.64,2.90 0.29,1.62 0.59,3.05 0.68,3.43 l 0.16,0.69 c 13.45,-1.15 17.72,-6.97 18.66,-17.21 0.29,-1.71 0.91,-3.28 -1.80,-4.65 -2.10,-3.15 -5.79,-5.10 -9.79,-5.17 0.43,0.02 0.84,0.03 -1.23,0.03 z"/>
  <path style="fill:#ffffff" d="m 71,114.63 2.30,-1.21 c 2.86,-1.50 4.30,-2.68 5.02,-4.08 0.86,-1.69 1.55,-4.77 3.58,-15.89 1.03,-5.67 2.20,-11.50 2.59,-12.96 1.92,-7.10 5.17,-11.82 9.62,-13.96 2.68,-1.29 4.60,-1.65 8.07,-1.52 4.00,0.07 7.69,2.02 9.80,5.17 0.89,1.37 1.51,2.94 1.80,4.65 0.94,10.23 -5.21,16.06 -18.66,17.21 l 0.16,0.69 c 0.09,0.38 0.40,-1.81 0.68,-3.43 0.33,-1.88 0.64,-2.90 0.64,-2.90 0,0 1.74,0.39 2.50,0.54 4.74,-1.03 6.53,-2.40 7.53,-5.99 0.57,-2.07 0.39,-3.42 0.64,-4.65 C 104.85,72.51 103.47,72 101.11,72 c -3.74,0 -5.73,1.60 -7.76,5.84 -1.27,2.64 -2.01,5.83 -4.29,18.34 C 87.47,104.88 86.43,109.85 85.60,112 h 29.39 l -1.11,7 H 96.89 c -16.46,0 -16.88,0.48 -21.42,1.59 0.69,0.22 -1.93,0.58 -1.93,0.58 z"/>
  <path style="fill:#fafafa;color:#000000" d="m 96,39 a 4,4 0 0 0 -4,4 4,4 0 0 0 4,4 c 21.22,0 40.00,13.63 46.58,33.80 6.58,20.18 0.55,42.26 -17.69,54.77 -17.14,12.51 -40.34,12.58 -57.56,0.17 a 4,4 0 0 0 -5.58,0.90 4,4 0 0 0 0.90,5.58 c 20.00,14.42 47.04,14.34 66.95,0.20 19.91,-14.54 28.22,-40.27 20.58,-63.71 C 142.54,54.88 120.65,39 96,39 Z"/>
</svg>
