<?xml version='1.0' encoding='utf-8'?>
<svg xmlns="http://www.w3.org/2000/svg" width="192" height="192" version="1" id="svg12">
  <defs>
    <filter style="color-interpolation-filters:sRGB" id="filter3077" x="-0.044638424" y="-0.051017998" width="1.0892768" height="1.102036">
      <feGaussianBlur stdDeviation="2.9760498"/>
    </filter>
    <filter style="color-interpolation-filters:sRGB" id="filter3119" x="-0.10247727" y="-0.1141519" width="1.2049545" height="1.2283038">
      <feGaussianBlur stdDeviation="3.7575"/>
    </filter>
  </defs>
  <path style="filter:url(#filter3077);opacity:0.2;fill:#000000;color:#000000" d="m 60.481709,30 a 8.9713547,8.9092964 0 0 0 -7.767395,4.454204 L 17.19751,95.545802 a 8.9713547,8.9092964 0 0 0 0,8.908408 L 52.714314,165.5458 A 8.9713547,8.9092964 0 0 0 60.481709,170 h 71.033661 a 8.9713547,8.9092964 0 0 0 7.77031,-4.4542 l 35.51681,-61.09159 a 8.9713547,8.9092964 0 0 0 0,-8.908408 L 139.28568,34.454204 A 8.9713547,8.9092964 0 0 0 131.51537,30 Z"/>
  <path style="fill:#f8bf31;color:#000000" d="m 60.481709,26 a 8.9713547,8.9092964 0 0 0 -7.767395,4.454204 L 17.19751,91.545802 a 8.9713547,8.9092964 0 0 0 0,8.908408 L 52.714314,161.5458 A 8.9713547,8.9092964 0 0 0 60.481709,166 h 71.033661 a 8.9713547,8.9092964 0 0 0 7.77031,-4.4542 l 35.51681,-61.09159 a 8.9713547,8.9092964 0 0 0 0,-8.908408 L 139.28568,30.454204 A 8.9713547,8.9092964 0 0 0 131.51537,26 Z"/>
  <path style="filter:url(#filter3119);opacity:0.2;fill:#000000;color:#000000" d="M 75.5,59 A 8.5,8.5 0 0 0 67,67.5 8.5,8.5 0 0 0 75.5,76 h 41 A 8.5,8.5 0 0 0 125,67.5 8.5,8.5 0 0 0 116.5,59 Z m -15,31 a 8.5,8.5 0 0 0 -8.5,8.5 8.5,8.5 0 0 0 8.5,8.5 h 71 A 8.5,8.5 0 0 0 140,98.5 8.5,8.5 0 0 0 131.5,90 Z m 24,31 a 8.5,8.5 0 0 0 -8.5,8.5 8.5,8.5 0 0 0 8.5,8.5 h 23 a 8.5,8.5 0 0 0 8.5,-8.5 8.5,8.5 0 0 0 -8.5,-8.5 z"/>
  <path style="fill:#ffffff;color:#000000" d="M 75.5 57 A 8.5 8.5 0 0 0 67 65.5 A 8.5 8.5 0 0 0 75.5 74 L 116.5 74 A 8.5 8.5 0 0 0 125 65.5 A 8.5 8.5 0 0 0 116.5 57 L 75.5 57 z M 60.5 88 A 8.5 8.5 0 0 0 52 96.5 A 8.5 8.5 0 0 0 60.5 105 L 131.5 105 A 8.5 8.5 0 0 0 140 96.5 A 8.5 8.5 0 0 0 131.5 88 L 60.5 88 z M 84.5 119 A 8.5 8.5 0 0 0 76 127.5 A 8.5 8.5 0 0 0 84.5 136 L 107.5 136 A 8.5 8.5 0 0 0 116 127.5 A 8.5 8.5 0 0 0 107.5 119 L 84.5 119 z "/>
  <path style="opacity:0.2;fill:#ffffff;color:#000000" d="M 60.482422 26 A 8.9713547 8.9092964 0 0 0 52.714844 30.455078 L 17.197266 91.544922 A 8.9713547 8.9092964 0 0 0 16.132812 95.453125 A 8.9713547 8.9092964 0 0 1 17.197266 92.544922 L 52.714844 31.455078 A 8.9713547 8.9092964 0 0 1 60.482422 27 L 131.51562 27 A 8.9713547 8.9092964 0 0 1 139.28516 31.455078 L 174.80273 92.544922 A 8.9713547 8.9092964 0 0 1 175.98438 96.5 A 8.9713547 8.9092964 0 0 0 174.80273 91.544922 L 139.28516 30.455078 A 8.9713547 8.9092964 0 0 0 131.51562 26 L 60.482422 26 z "/>
</svg>
