<svg xmlns="http://www.w3.org/2000/svg" id="svg28" width="192" height="192" version="1"><defs><filter style="color-interpolation-filters:sRGB" id="filter6495" width="1.1" height="1.1" x=".05" y=".05"><feGaussianBlur stdDeviation="3.2"/></filter><filter style="color-interpolation-filters:sRGB" id="filter3811" width="1.19" height="1.12" x=".1" y=".06"><feGaussianBlur stdDeviation="2.16"/></filter></defs><rect width="160" height="160" x="-180" y="-176" rx="12" ry="12" transform="matrix(0,-1,-1,0,0,0)" style="filter:url(#filter6495);opacity:.2;fill:#000"/><rect width="160" height="160" x="-176" y="-176" rx="12" ry="12" transform="matrix(0,-1,-1,0,0,0)" style="fill:#1d7ad8"/><rect style="opacity:.2;fill:#000" width="45" height="52" x="45" y="43" rx="6" ry="6"/><path style="opacity:.2;fill:#fff" d="m 28,16 c -6.65,0 -12,5.35 -12,12 v 1 c 0,-6.65 5.35,-12 12,-12 h 136 c 6.65,0 12,5.35 12,12 v -1 c 0,-6.65 -5.35,-12 -12,-12 z"/><rect style="opacity:.2;fill:#000" width="45" height="31" x="101" y="43" rx="6" ry="6"/><rect style="opacity:.2;fill:#000" width="45" height="67" x="101" y="81" rx="3.97" ry="3.94"/><circle style="opacity:.2;fill:#000" cx="67.5" cy="125.5" r="22.5"/><path style="filter:url(#filter3811);opacity:.2;fill:#000" d="m 73,56.00 c -2.22,0 -4,1.78 -4,4 v 76.00 c 0,2.22 1.78,4 4,4 h 8 c 2.22,0 4,-1.78 4,-4 V 60.00 c 0,-2.22 -1.78,-4 -4,-4 z m 46.66,0 c -1.45,0.00 -3.26,0.49 -5.17,1.47 -2.67,1.37 -4.95,3.76 -6.19,6.49 C 107.52,65.67 107,66.31 107,72.82 v 7.02 l -7.88,8.05 c -6.67,6.82 -7.85,8.24 -8.04,9.29 0.40,2.28 0.34,3.31 8.48,11.66 L 107,116.70 v 6.70 c 0.10,6.41 0.47,6.78 1.28,8.54 2.44,5.28 9.50,9.38 13.18,7.66 0.44,0.20 0.96,0.74 1.16,-1.19 0.25,0.55 0.37,-5.06 0.37,-14.04 0,-11.13 0.08,-13.42 0.50,-14.47 0.31,0.77 -2.47,-3.26 -5.63,-6.50 l -5.12,-5.26 5.29,-5.67 c 2.91,-3.12 5.44,-6.07 5.63,-6.57 0.49,-1.31 0.46,-27.35 0.03,-28.45 0.44,0.98 -1.51,-1.47 -2.96,-1.47 z"/><path style="fill:#fff" d="m 121.46,137.60 c 0.44,0.20 0.96,0.74 1.16,-1.19 0.25,0.55 0.36,-5.06 0.36,-14.04 0,-11.13 0.08,-13.42 0.50,-14.47 0.31,0.77 -2.47,-3.26 -5.63,-6.50 l -5.12,-5.26 5.29,-5.67 c 2.91,-3.12 5.44,-6.07 5.63,-6.57 0.49,-1.31 0.45,-27.35 0.03,-28.45 0.87,-1.96 -4.30,-1.96 -8.13,0.00 -2.67,1.37 -4.95,3.76 -6.19,6.49 C 107.52,63.67 107,64.31 107,70.82 v 7.02 l -7.88,8.05 c -6.67,6.82 -7.85,8.24 -8.04,9.29 0.40,2.28 0.35,3.31 8.48,11.65 L 107,114.70 v 6.70 c 0.10,6.41 0.47,6.78 1.28,8.54 2.44,5.28 9.50,9.38 13.18,7.67 z"/><rect style="fill:#fff" width="16" height="84" x="69" y="54" rx="4" ry="4"/></svg>