<?xml version='1.0' encoding='utf-8'?>
<svg xmlns="http://www.w3.org/2000/svg" width="192" height="192" version="1" id="svg28">
  <defs>
    <filter style="color-interpolation-filters:sRGB" id="filter4116" x="0.09" y="0.03" width="1.17" height="1.07">
      <feGaussianBlur stdDeviation="2.22"/>
    </filter>
    <filter style="color-interpolation-filters:sRGB" id="filter4139" x="0.06" y="0.04" width="1.11" height="1.08">
      <feGaussianBlur stdDeviation="2.50"/>
    </filter>
    <filter style="color-interpolation-filters:sRGB" id="filter4143" x="0.04" y="0.05" width="1.09" height="1.11">
      <feGaussianBlur stdDeviation="2.56"/>
    </filter>
    <filter style="color-interpolation-filters:sRGB" id="filter4147" x="0.06" y="0.12" width="1.11" height="1.23">
      <feGaussianBlur stdDeviation="3.17"/>
    </filter>
    <filter style="color-interpolation-filters:sRGB" id="filter4269" x="0.11" y="0.11" width="1.22" height="1.22">
      <feGaussianBlur stdDeviation="1.26"/>
    </filter>
  </defs>
  <path style="filter:url(#filter4147);opacity:0.20;fill:#000000" d="m 176,129.00 c 0,-6.65 -5.35,-12 -12.00,-12 H 72.96 l -21.98,5.27 c -16.65,3.99 -7.22,-19.31 -7.22,-2.18 0.00,17.12 -13.88,58.91 3.24,58.91 H 164 c 6.65,0 12,-5.35 12,-12.00 z"/>
  <path style="fill:#ff9900" d="m 176,126.00 c 0,-6.65 -5.35,-12 -12.00,-12 H 72.96 l -21.98,5.27 C 34.33,123.27 43.76,99.97 43.76,117.09 43.76,134.21 29.88,176 47.00,176 H 164 c 6.65,0 12,-5.35 12,-12.00 z"/>
  <path style="opacity:0.20;fill:#ffffff" d="M 42.31 110.73 C 41.64 110.80 41.03 112.41 41.13 114.24 C 41.40 111.15 43.63 109.69 43.74 117.55 C 43.74 117.40 43.76 117.23 43.76 117.09 C 43.76 112.27 43.01 110.66 42.31 110.73 z M 72.96 114 L 50.98 119.28 C 47.56 120.10 45.25 119.75 43.72 118.86 C 43.72 119.17 43.70 119.51 43.68 119.84 C 45.21 120.75 47.53 121.10 50.98 120.28 L 72.96 115 L 164 115 C 170.65 115 176 120.35 176 127 L 176 126 C 176 119.35 170.65 114 164 114 L 72.96 114 z M 43.68 119.84 C 43.67 119.83 43.65 119.82 43.64 119.81 C 42.91 131.12 38.23 149.68 38.46 162.37 C 38.48 149.33 43.20 130.74 43.68 119.84 z "/>
  <path style="filter:url(#filter4143);opacity:0.20;fill:#000000" d="m 149.42,66.05 c -3.32,-5.76 -10.63,-7.72 -16.39,-4.39 l -72.03,41.47 -11.76,8.39 c -13.93,9.95 -24.96,15.07 -16.40,29.90 8.56,14.83 14.82,40.98 29.65,32.43 l 101.52,-58.50 c 5.76,-3.32 7.72,-10.63 4.39,-16.39 z"/>
  <path style="fill:#ffc608" d="m 149.42,64.05 c -3.32,-5.76 -10.63,-7.72 -16.39,-4.39 l -72.03,41.47 -11.76,8.39 c -13.93,9.95 -24.96,15.07 -16.40,29.90 8.56,14.83 14.82,40.98 29.65,32.43 l 101.52,-58.50 c 5.76,-3.32 7.72,-10.63 4.39,-16.39 z"/>
  <path style="opacity:0.20;fill:#ffffff" d="M 138.71 58.04 C 136.78 58.09 134.82 58.61 133.03 59.65 L 61.00 101.12 L 49.24 109.52 C 38.54 117.16 29.60 121.97 29.88 130.49 C 30.30 122.58 38.97 117.85 49.24 110.52 L 61.00 102.12 L 133.03 60.65 C 138.78 57.33 146.09 59.29 149.42 65.04 L 168.42 97.96 C 169.42 99.68 169.93 101.55 170.01 103.41 C 170.10 101.23 169.60 99.00 168.42 96.96 L 149.42 64.04 C 147.13 60.09 142.96 57.92 138.71 58.04 z "/>
  <path style="filter:url(#filter4139);opacity:0.20;fill:#000000" d="M 95.05,25.58 C 89.29,22.26 81.97,24.21 78.65,29.98 l -41.11,71.40 -4.08,18.21 c -3.74,16.71 -11.10,23.50 3.73,32.06 14.83,8.56 28.10,25.69 36.65,10.86 L 132.35,60.98 c 3.32,-5.76 1.37,-13.07 -4.39,-16.39 z"/>
  <path style="fill:#3674f6" d="M 95.05,23.58 C 89.29,20.26 81.97,22.21 78.65,27.98 L 37.55,99.37 33.47,117.58 c -3.74,16.71 -11.10,23.50 3.73,32.06 14.83,8.56 28.10,25.69 36.65,10.86 L 132.35,58.98 c 3.32,-5.76 1.37,-13.07 -4.39,-16.39 z"/>
  <path style="opacity:0.20;fill:#ffffff" d="M 89.36 21.97 C 85.11 21.85 80.93 24.01 78.65 27.97 L 37.55 99.37 L 33.47 117.58 C 31.34 127.10 28.04 133.40 28.34 138.65 C 28.47 133.60 31.47 127.51 33.47 118.58 L 37.55 100.37 L 78.65 28.97 C 81.97 23.21 89.29 21.26 95.04 24.58 L 127.96 43.58 C 131.67 45.73 133.79 49.54 133.94 53.52 C 134.14 49.18 131.98 44.91 127.96 42.58 L 95.04 23.58 C 93.25 22.54 91.30 22.02 89.36 21.97 z "/>
  <path style="filter:url(#filter4116);opacity:0.20;fill:#000000" d="m 28,18 c -6.65,0 -12,5.35 -12,12 v 117 a 31,31 0 0 0 31,31 31,31 0 0 0 31,-31 V 30 C 78,23.35 72.65,18 66,18 Z"/>
  <path style="fill:#3392f8" d="M 28 16 C 21.35 16 16 21.35 16 28 L 16 145 A 31 31 0 0 0 47 176 A 31 31 0 0 0 78 145 L 78 28 C 78 21.35 72.65 16 66 16 L 28 16 z "/>
  <circle style="filter:url(#filter4269);opacity:0.20;fill:#000000" cx="47" cy="147" r="14"/>
  <circle style="fill:#ffffff" cx="47" cy="145" r="14"/>
  <path style="opacity:0.20;fill:#ffffff" d="M 28 16 C 21.35 16 16 21.35 16 28 L 16 29 C 16 22.35 21.35 17 28 17 L 66 17 C 72.65 17 78 22.35 78 29 L 78 28 C 78 21.35 72.65 16 66 16 L 28 16 z "/>
</svg>
