<svg xmlns="http://www.w3.org/2000/svg" id="svg12" width="192" height="192" version="1"><defs><filter style="color-interpolation-filters:sRGB" id="filter1207" width="1.1" height="1.1" x=".05" y=".05"><feGaussianBlur stdDeviation="3.2"/></filter><filter style="color-interpolation-filters:sRGB" id="filter1290" width="1.15" height="1.15" x=".07" y=".08"><feGaussianBlur stdDeviation="3.7"/></filter></defs><path d="M 176,153.44 C 176,168.05 164.05,180 149.44,180 H 42.56 C 27.95,180 16,168.05 16,153.44 V 46.56 C 16,31.95 27.95,20 42.56,20 h 106.88 C 164.05,20 176,31.95 176,46.56 v 106.88" style="filter:url(#filter1207);opacity:.2;fill:#000;fill-rule:nonzero"/><path d="M 176,149.44 C 176,164.05 164.05,176 149.44,176 H 42.56 C 27.95,176 16,164.05 16,149.44 V 42.56 C 16,27.95 27.95,16 42.56,16 h 106.88 C 164.05,16 176,27.95 176,42.56 v 106.88" style="fill:#dd4a38;fill-rule:nonzero"/><path style="filter:url(#filter1290);opacity:.2;fill:#000;fill-rule:nonzero" d="m 67.13,38 c -11.72,0 -19.59,2.10 -24.06,6.50 -2.84,2.81 -4.75,6.87 -5.12,10.86 0.31,3.37 0.31,8.36 5.01,12.99 C 45.83,71.19 49.82,73 53.91,73 c 4.14,0 8.12,-1.83 11.26,-4.82 l -4.15,-6.50 c -1.19,0.83 -2.61,1.29 -4.06,1.29 -1.80,0 -3.70,0.69 -4.97,-1.94 -1.37,-1.34 -2.08,-3.10 -2.01,-4.95 0.07,-1.90 0.95,-3.96 2.49,-5.27 C 54.65,48.96 58.44,47.99 63.33,48 H 73 v 56 h -7 v 10 H 94 V 104 H 87 V 85 h 13.42 v 0.11 l 0.11,0.22 c 0,0 5.61,11.53 9.87,20.13 3.36,6.77 7.13,9.76 13.01,9.76 6.84,0 9.90,-1.85 10.58,-2.28 v -11.14 c -1.36,0.47 -2.63,0.71 -3.73,0.71 -3.87,0 -5.51,-2.87 -6.84,-5.18 l 0.06,0.10 -9.88,-18.75 L 124.31,56 H 130 V 45 h -26 v 11 h 5.14 l -8.71,19 H 87 V 38 Z m 34.57,94 -5.39,0.00 H 91.30 C 89.54,138.71 83.39,143 76.34,143 69.29,143 63.14,138.71 61.39,132.00 H 50.96 C 49.20,138.71 43.05,143 36,143 v 11 c 8.00,0 15.31,-3.55 20.17,-9.31 C 61.03,150.45 68.35,154 76.34,154 84.33,154 91.64,150.45 96.50,144.71 101.36,150.45 108.67,154 116.66,154 c 0.00,0 0.01,0 0.01,0 0.00,0 0.01,0 0.01,0 7.99,0 15.30,-3.55 20.16,-9.29 C 141.70,150.45 149.01,154 157,154 v -11 c -7.05,0 -13.20,-4.29 -14.95,-11.00 h -2.14 -8.27 0.02 c -1.75,6.70 -7.90,10.99 -14.94,11.00 -7.05,0.01 -13.19,-4.29 -14.94,-11.00 h 0.03 z"/><path style="fill:#fff;fill-rule:nonzero" d="M 67.13 36 C 55.41 36 47.54 38.10 43.07 42.50 C 40.23 45.31 38.32 49.37 37.95 53.37 C 37.65 56.74 38.26 61.73 42.96 66.36 C 45.83 69.19 49.82 71 53.91 71 C 58.05 71 62.03 69.17 65.17 66.18 L 61.03 59.69 C 59.84 60.52 58.41 60.97 56.97 60.97 C 55.16 60.97 53.27 60.28 52 59.03 C 50.63 57.68 49.92 55.92 49.99 54.08 C 50.06 52.18 50.94 50.12 52.48 48.81 C 54.65 46.96 58.44 45.99 63.33 46 L 73 46 L 73 102 L 66 102 L 66 112 L 94 112 L 94 102 L 87 102 L 87 83 L 100.42 83 L 100.42 82.89 L 100.53 83.11 C 100.53 83.11 106.14 94.64 110.41 103.24 C 113.77 110.00 117.54 113 123.42 113 C 130.26 113 133.32 111.15 134 110.72 L 134 99.58 C 132.64 100.05 131.37 100.29 130.27 100.29 C 126.41 100.29 124.76 97.41 123.44 95.11 L 123.38 95.01 L 113.50 76.26 L 124.31 54 L 130 54 L 130 43 L 104 43 L 104 54 L 109.14 54 L 100.43 73 L 87 73 L 87 36 L 67.13 36 z M 101.70 130 L 96.31 130.00 L 91.30 130.00 C 89.54 136.71 83.39 141 76.34 141 C 69.29 141 63.14 136.71 61.39 130.00 L 50.96 130.00 C 49.20 136.71 43.05 141 36 141 L 36 152 C 44.00 152 51.31 148.45 56.17 142.69 C 61.03 148.45 68.35 152 76.34 152 C 84.33 152 91.64 148.45 96.50 142.71 C 101.36 148.45 108.67 152 116.66 152 C 116.66 152 116.67 152 116.67 152 C 116.68 152 116.68 152 116.68 152 C 124.67 152 131.98 148.45 136.84 142.71 C 141.70 148.45 149.01 152 157 152 L 157 141 C 149.95 141 143.80 136.71 142.05 130.00 L 139.90 130.00 L 131.64 130.00 L 131.61 130.00 C 129.86 136.71 123.72 141.00 116.67 141 C 109.63 141.00 103.48 136.71 101.73 130.00 L 101.70 130.00 L 101.70 130 z"/><path style="opacity:.2;fill:#fff;fill-rule:nonzero" d="M 42.56 16 C 27.95 16 16 27.95 16 42.56 L 16 43.56 C 16 28.95 27.95 17 42.56 17 L 149.44 17 C 164.05 17 176 28.95 176 43.56 L 176 42.56 C 176 27.95 164.05 16 149.44 16 L 42.56 16 z"/></svg>