<?xml version='1.0' encoding='utf-8'?>
<svg xmlns="http://www.w3.org/2000/svg" width="192" height="192" version="1" id="svg16">
  <defs>
    <filter style="color-interpolation-filters:sRGB" id="filter971" x="0.05" y="0.05" width="1.10" height="1.10">
      <feGaussianBlur stdDeviation="3.20"/>
    </filter>
    <filter style="color-interpolation-filters:sRGB" id="filter2099" x="0.05" y="0.05" width="1.09" height="1.10">
      <feGaussianBlur stdDeviation="2.11"/>
    </filter>
  </defs>
  <rect style="filter:url(#filter971);opacity:0.20;fill:#000000" width="160" height="160" x="16" y="20" rx="80" ry="80"/>
  <circle style="fill:#4788f4;stop-color:#000000" cx="96" cy="96" r="80"/>
  <path style="opacity:0.20;fill:#ffffff" d="M 96.00,16 C 51.68,16.00 16,51.68 16,96 c 0,0.17 0.01,0.34 0.01,0.52 C 16.27,52.42 51.84,17.00 96.00,17 H 96 c 44.16,0.00 79.73,35.42 79.99,79.52 0.00,0.17 0.01,0.34 0.01,0.52 0,-44.32 -35.68,-80.00 -80.00,-80 z"/>
  <path style="filter:url(#filter2099);opacity:0.20;fill:#000000;stop-color:#000000" d="m 95.06,46.09 a 5.00,5.00 0 0 0 -1.74,0.69 l -49,31 a 5,5 0 0 0 -1.55,6.90 5,5 0 0 0 6.90,1.55 L 96,56.92 142.33,86.22 a 5,5 0 0 0 6.90,-1.55 5,5 0 0 0 -1.55,-6.90 l -49.00,-31 a 5.00,5.00 0 0 0 -3.61,0.69 z M 96,71 a 9,9 0 0 0 -9,9 9,9 0 0 0 9,9 9,9 0 0 0 9,-9 9,9 0 0 0 -9,-9 z M 69.57,86.01 A 9,9 0 0 0 62.21,90.50 9,9 0 0 0 65.50,102.79 9,9 0 0 0 77.79,99.50 9,9 0 0 0 74.50,87.21 9,9 0 0 0 69.57,86.01 Z m 52.86,0 A 9,9 0 0 0 117.50,87.21 9,9 0 0 0 114.21,99.50 9,9 0 0 0 126.50,102.79 9,9 0 0 0 129.79,90.50 9,9 0 0 0 122.43,86.01 Z M 70.43,116.01 A 9,9 0 0 0 65.50,117.21 9,9 0 0 0 62.21,129.50 9,9 0 0 0 74.50,132.79 9,9 0 0 0 77.79,120.50 9,9 0 0 0 70.43,116.01 Z m 51.14,0 A 9,9 0 0 0 114.21,120.50 9,9 0 0 0 117.50,132.79 9,9 0 0 0 129.79,129.50 9,9 0 0 0 126.50,117.21 9,9 0 0 0 121.57,116.01 Z M 96,131 a 9,9 0 0 0 -9,9 9,9 0 0 0 9,9 9,9 0 0 0 9,-9 9,9 0 0 0 -9,-9 z"/>
  <path style="fill:#ffffff;stop-color:#000000" d="m 95.06,44.09 a 5.00,5.00 0 0 0 -1.74,0.69 l -49,31 a 5,5 0 0 0 -1.55,6.90 5,5 0 0 0 6.90,1.55 L 96,54.92 142.33,84.22 a 5,5 0 0 0 6.90,-1.55 5,5 0 0 0 -1.55,-6.90 l -49.00,-31 a 5.00,5.00 0 0 0 -3.61,0.69 z M 96,69 a 9,9 0 0 0 -9,9 9,9 0 0 0 9,9 9,9 0 0 0 9,-9 9,9 0 0 0 -9,-9 z M 69.57,84.01 A 9,9 0 0 0 62.21,88.50 9,9 0 0 0 65.50,100.79 9,9 0 0 0 77.79,97.50 9,9 0 0 0 74.50,85.21 9,9 0 0 0 69.57,84.01 Z m 52.86,0 A 9,9 0 0 0 117.50,85.21 9,9 0 0 0 114.21,97.50 9,9 0 0 0 126.50,100.79 9,9 0 0 0 129.79,88.50 9,9 0 0 0 122.43,84.01 Z M 70.43,114.01 A 9,9 0 0 0 65.50,115.21 9,9 0 0 0 62.21,127.50 9,9 0 0 0 74.50,130.79 9,9 0 0 0 77.79,118.50 9,9 0 0 0 70.43,114.01 Z m 51.14,0 A 9,9 0 0 0 114.21,118.50 9,9 0 0 0 117.50,130.79 9,9 0 0 0 129.79,127.50 9,9 0 0 0 126.50,115.21 9,9 0 0 0 121.57,114.01 Z M 96,129 a 9,9 0 0 0 -9,9 9,9 0 0 0 9,9 9,9 0 0 0 9,-9 9,9 0 0 0 -9,-9 z"/>
</svg>
