<?xml version='1.0' encoding='utf-8'?>
<svg xmlns="http://www.w3.org/2000/svg" width="192" height="192" version="1.1" id="svg12">
  <defs>
    <filter style="color-interpolation-filters:sRGB" id="filter845" x="0.05" y="0.05" width="1.10" height="1.10">
      <feGaussianBlur stdDeviation="3.20"/>
    </filter>
    <filter style="color-interpolation-filters:sRGB" id="filter867" x="0.05" y="0.04" width="1.09" height="1.08">
      <feGaussianBlur stdDeviation="1.86"/>
    </filter>
  </defs>
  <circle style="filter:url(#filter845);opacity:0.20" cx="96" cy="100" r="80"/>
  <circle style="fill:#e4e4e4" cx="96" cy="96" r="80"/>
  <path style="opacity:0.20;fill:#ffffff" d="M 96 16 A 80 80 0 0 0 16 96 A 80 80 0 0 0 16.02 96.64 A 80 80 0 0 1 96 17 A 80 80 0 0 1 175.98 96.30 A 80 80 0 0 0 176 96 A 80 80 0 0 0 96 16 z "/>
  <path style="filter:url(#filter867);opacity:0.20" d="m 76.65,79.17 c 21.53,-7.37 25.20,-26.57 22.45,-44.22 0,0.64 0.55,-1.09 1.10,0.91 C 120.82,44.05 144,65.89 144,98.64 144,123.75 124.39,145.95 95.90,145.95 A 45.81,45.49 0 0 1 70.06,61.61 c 0.55,0.36 1.28,0 1.28,0.64 0.27,3.37 1.19,11.83 4.95,16.92 z"/>
  <path style="fill:#ff5473" d="m 76.65,77.17 c 21.53,-7.37 25.20,-26.57 22.45,-44.22 0,0.64 0.55,-1.09 1.10,0.91 C 120.82,42.05 144,63.89 144,96.64 144,121.75 124.39,143.95 95.90,143.95 A 45.81,45.49 0 0 1 70.06,59.61 c 0.55,0.36 1.28,0 1.28,0.64 0.27,3.37 1.19,11.83 4.95,16.92 z"/>
</svg>
