<svg xmlns="http://www.w3.org/2000/svg" id="svg16" width="192" height="192" version="1.1"><defs><filter style="color-interpolation-filters:sRGB" id="filter5559" width="1.09" height="1.1" x=".04" y=".05"><feGaussianBlur stdDeviation="3.14"/></filter><filter style="color-interpolation-filters:sRGB" id="filter5657" width="1.09" height="1.1" x=".05" y=".05"><feGaussianBlur stdDeviation="1.6"/></filter></defs><path style="filter:url(#filter5559);opacity:.2;fill:#000;color:#000" d="M 96.47 24.01 A 3.76 3.79 0 0 0 94.79 24.29 A 3.76 3.79 0 0 0 92.61 26.83 L 75.66 92.00 L 13.12 75 C 12.73 75.07 12.36 75.23 12.04 75.47 C 11.72 75.71 11.46 76.02 11.28 76.37 C 10.91 77.10 10.91 77.95 11.26 78.68 L 53.46 166.50 C 54.20 168.05 56.20 168.49 57.50 167.39 L 58.21 166.79 A 3.76 3.79 0 0 0 60.76 168 L 144.16 168 A 3.76 3.79 0 0 0 147.68 165.53 L 180.76 75.91 A 3.76 3.79 0 0 0 179.11 71.30 L 98.11 24.50 A 3.76 3.79 0 0 0 96.47 24.01 z"/><path style="fill:#fd5757;color:#000" d="m 12.04,71.47 c 0.32,0.24 0.58,0.55 0.76,0.90 0.37,0.72 0.37,1.58 0.02,2.31 l 42.20,87.82 c 0.74,1.55 2.74,1.98 4.04,0.88 l 44.00,-37.24 c 0.83,0.70 1.13,-1.85 0.76,-2.87 L 89.22,92.58 C 88.78,91.38 87.54,90.66 86.28,90.89 L 13.12,71.00 c 0.39,0.07 0.76,0.23 -1.08,0.47 z"/><path style="opacity:.2;fill:#fff;color:#000" d="M 13.12 71 C 12.73 71.07 12.36 71.23 12.04 71.47 C 11.72 71.71 11.46 72.02 11.28 72.37 C 11.01 72.90 10.94 73.49 11.06 74.06 C 11.10 73.83 11.17 73.59 11.28 73.37 C 11.46 73.02 11.72 72.71 12.04 72.47 C 12.36 72.23 12.73 72.07 13.12 72 L 86.29 91.89 C 87.54 91.66 88.78 92.38 89.21 93.58 L 102.25 124.27 C 102.31 124.41 102.32 124.56 102.34 124.71 C 102.44 124.24 102.43 123.74 102.25 123.27 L 89.21 92.58 C 88.78 91.38 87.54 90.66 86.29 90.89 L 13.12 71 z"/><path style="fill:#ffa329;color:#000" d="m 34.87,47.22 c 0.43,0.17 0.81,0.44 -1.12,0.79 0.62,0.70 0.88,1.66 0.70,2.59 L 54.73,161.53 c 0.38,1.95 2.50,3.03 4.28,2.17 l 60.29,-28.93 c 1.13,0.54 1.81,-1.74 1.69,-3.01 l -2.69,-49.61 c 0.14,-1.48 -1.32,-2.65 -2.79,-2.76 L 36.23,47.01 c 0.46,0.04 0.93,0.04 -1.35,0.21 z"/><path style="opacity:.2;fill:#fff;color:#000" d="M 36.23 47.01 C 35.77 46.97 35.30 47.04 34.87 47.22 C 34.44 47.39 34.06 47.66 33.76 48.01 C 33.14 48.70 32.89 49.64 33.05 50.56 C 33.14 49.99 33.37 49.45 33.76 49.01 C 34.06 48.66 34.44 48.39 34.87 48.22 C 35.30 48.04 35.77 47.97 36.23 48.01 L 115.50 80.40 C 116.97 80.51 118.16 81.68 118.29 83.16 L 120.96 132.25 C 120.97 132.09 121.00 131.93 120.99 131.76 L 118.29 82.16 C 118.16 80.68 116.97 79.51 115.50 79.40 L 36.23 47.01 z"/><path style="fill:#86cb1b;color:#000" d="m 63.56,30.05 c 0.57,0.10 -1.11,0.33 -1.57,0.67 0.95,0.70 -1.52,1.80 -1.55,2.99 L 56.00,160.06 c 0.06,2.51 2.22,4.40 4.62,3.83 l 82.16,-3.27 c 1.53,0.36 2.67,-1.65 2.87,-3.24 l 6.48,-78.13 c 0.23,-1.86 0.90,-3.61 -2.66,-4.15 L 65.27,30.16 C 64.71,29.99 64.13,29.96 63.56,30.05 Z"/><path style="opacity:.2;fill:#fff;color:#000" d="M 64.42 30.01 C 64.13 29.99 63.84 30.00 63.56 30.05 C 62.99 30.15 62.45 30.38 61.98 30.72 C 61.04 31.42 60.47 32.52 60.44 33.71 L 56.00 160.06 C 56.00 160.16 56.02 160.25 56.03 160.34 L 60.44 34.71 C 60.47 33.52 61.04 32.42 61.98 31.72 C 62.45 31.38 62.99 31.15 63.56 31.05 C 64.13 30.96 64.71 30.99 65.27 31.16 L 149.47 76.11 C 150.94 76.56 151.96 77.86 152.12 79.36 L 152.13 79.26 C 152.36 77.41 151.23 75.65 149.47 75.11 L 65.27 30.16 C 64.99 30.08 64.70 30.03 64.42 30.01 z"/><path style="fill:#0f78fb;color:#000" d="m 96.48,20.01 a 3.76,3.79 0 0 0 -1.68,0.29 3.76,3.79 0 0 0 -2.18,2.53 L 57.12,159.25 A 3.76,3.79 0 0 0 60.76,164 h 83.40 a 3.76,3.79 0 0 0 3.52,-2.47 l 33.09,-89.62 a 3.76,3.79 0 0 0 -1.65,-4.61 L 98.11,20.50 a 3.76,3.79 0 0 0 -1.64,0.49 z"/><path style="filter:url(#filter5657);opacity:.2;fill:#000" d="m 102.72,49.44 -2.21,7.60 64.80,30.31 2.11,-5.97 z m -5.35,19.14 -2.21,7.60 64.79,25.03 2.10,-5.97 z m -4.45,18.39 -2.21,7.60 64.36,20.45 2.11,-5.97 z m -4.39,17.16 -2.21,7.60 63.44,16.71 2.11,-5.97 z"/><path style="fill:#fff" d="m 102.72,47.45 -2.21,7.60 64.80,30.31 2.11,-5.97 z m -5.35,19.14 -2.21,7.60 64.79,25.03 2.10,-5.97 z m -4.45,18.39 -2.21,7.60 64.36,20.45 2.11,-5.97 z m -4.39,17.16 -2.21,7.60 63.44,16.71 2.11,-5.97 z"/><path style="opacity:.2;fill:#fff;color:#000" d="M 96.47 20.01 A 3.76 3.79 0 0 0 94.79 20.29 A 3.76 3.79 0 0 0 92.61 22.83 L 57.12 159.25 A 3.76 3.79 0 0 0 57.16 160.09 L 92.61 23.83 A 3.76 3.79 0 0 1 94.79 21.29 A 3.76 3.79 0 0 1 96.47 21.01 A 3.76 3.79 0 0 1 98.11 21.50 L 179.11 68.30 A 3.76 3.79 0 0 1 180.96 71.08 A 3.76 3.79 0 0 0 179.11 67.30 L 98.11 20.50 A 3.76 3.79 0 0 0 96.47 20.01 z"/></svg>