<svg xmlns="http://www.w3.org/2000/svg" id="svg28" width="192" height="192" version="1"><defs><filter style="color-interpolation-filters:sRGB" id="filter2177" width="1.09" height="1.1" x=".04" y=".05"><feGaussianBlur stdDeviation="3"/></filter><filter style="color-interpolation-filters:sRGB" id="filter2302" width="1.18" height="1.13" x=".09" y=".06"><feGaussianBlur stdDeviation="2.66"/></filter></defs><rect width="160" height="140" x="-180" y="-166" rx="12" ry="12" transform="matrix(0,-1,-1,0,0,0)" style="filter:url(#filter2177);opacity:.2;fill:#000"/><rect width="160" height="140" x="-176" y="-166" rx="12" ry="12" transform="matrix(0,-1,-1,0,0,0)" style="fill:#7d5b4f"/><path style="opacity:.25;fill:#000" d="M 38 16 C 31.35 16 26 21.35 26 28 L 26 164 C 26 170.65 31.35 176 38 176 L 50 176 L 50 16 L 38 16 z"/><path style="filter:url(#filter2302);opacity:.2;fill:#000" d="M 102,48 V 74 H 73 v 12 h 29 v 62 h 12 V 86 h 29 V 74 H 114 V 48 Z"/><path style="fill:#ffdb0a" d="M 102 46 L 102 72 L 73 72 L 73 84 L 102 84 L 102 146 L 114 146 L 114 84 L 143 84 L 143 72 L 114 72 L 114 46 L 102 46 z"/><path style="opacity:.1;fill:#fff" d="M 38 16 C 31.35 16 26 21.35 26 28 L 26 29 C 26 22.35 31.35 17 38 17 L 154 17 C 160.65 17 166 22.35 166 29 L 166 28 C 166 21.35 160.65 16 154 16 L 38 16 z"/><path style="opacity:.2;fill:#fff" d="M 102 46 L 102 47 L 114 47 L 114 46 L 102 46 z M 73 72 L 73 73 L 102 73 L 102 72 L 73 72 z M 114 72 L 114 73 L 143 73 L 143 72 L 114 72 z"/></svg>