<?xml version='1.0' encoding='utf-8'?>
<svg xmlns="http://www.w3.org/2000/svg" width="192" height="192" version="1" id="svg20">
  <defs>
    <filter style="color-interpolation-filters:sRGB" id="filter860" x="0.05" width="1.10" y="0.05" height="1.10">
      <feGaussianBlur stdDeviation="3.20"/>
    </filter>
    <filter style="color-interpolation-filters:sRGB" id="filter891" x="0.04" width="1.08" y="0.06" height="1.13">
      <feGaussianBlur stdDeviation="1.04"/>
    </filter>
    <filter style="color-interpolation-filters:sRGB" id="filter907" x="0.04" width="1.08" y="0.06" height="1.12">
      <feGaussianBlur stdDeviation="1.64"/>
    </filter>
  </defs>
  <rect style="filter:url(#filter860);opacity:0.20;fill:#000000" width="160" height="160" x="-180" y="-176" rx="80" ry="80" transform="matrix(0,-1,-1,0,0,0)"/>
  <rect transform="matrix(0,-1,-1,0,0,0)" ry="80" rx="80" y="-176" x="-176" height="160" width="160" style="fill:#4f4f4f"/>
  <path style="opacity:0.10;fill:#ffffff" d="M 96 16 C 51.68 16 16.01 51.68 16.01 96 C 16.01 96.34 16.01 96.67 16.01 97 C 16.01 52.68 51.68 17 96 17 C 140.32 17 175.99 52.68 175.99 97 C 175.99 96.67 175.99 96.34 175.99 96 C 175.99 51.68 140.32 16 96 16 z "/>
  <path d="m 111.48,56.02 c -6.10,0.16 -12.60,1.20 -19.21,3.20 -19.12,5.77 -33.91,17.99 -39.13,30.78 -4.65,12.42 5.87,17.42 14.99,22.35 9.26,10.33 17.59,15.16 38.70,8.78 26.45,-7.99 44.63,-28.32 40.60,-45.42 C 144.42,62.89 129.78,55.53 111.48,56.02 Z M 123.03,82.36 c 0.84,1.45 1.18,3.16 1.08,5.04 0.48,9.68 -13.09,23.94 -24.52,32.09 1.31,-4.63 4.21,-8.22 2.37,-11.65 -5.23,-9.71 -30.92,-3.20 -30.92,-3.20 l -4.28,-2.43 c -1.59,0.91 -2.30,-2.02 -2.33,-3.26 0.14,-6.08 17.14,-15.24 24.83,-18.14 5.51,-2.08 12.81,-4.33 19.35,-4.46 5.68,0.11 11.58,1.39 14.43,6.01 z" style="filter:url(#filter907);opacity:0.20"/>
  <path d="m 111.48,52.02 c -6.10,0.16 -12.60,1.20 -19.21,3.20 -19.12,5.77 -33.91,17.99 -39.13,30.78 -4.65,12.42 5.87,17.42 14.99,22.35 9.26,10.33 17.59,15.16 38.70,8.78 26.45,-7.99 44.63,-28.32 40.60,-45.42 C 144.42,58.89 129.78,51.53 111.48,52.02 Z m 11.55,26.34 c 0.84,1.45 1.18,3.16 1.08,5.04 0.48,9.68 -13.09,23.94 -24.52,32.09 1.31,-4.63 4.21,-8.22 2.37,-11.65 -5.23,-9.71 -30.92,-3.20 -30.92,-3.20 L 66.75,98.21 C 65.16,97.31 64.45,96.19 64.42,94.95 64.28,88.87 81.56,79.71 89.25,76.81 94.76,74.74 102.06,72.48 108.60,72.36 c 5.68,0.11 11.58,1.39 14.43,6.01 z" style="fill:#f5821a"/>
  <path style="opacity:0.10;fill:#ffffff" d="M 114.87 52.02 C 113.75 51.99 112.62 51.99 111.48 52.02 C 105.38 52.19 98.88 53.22 92.27 55.22 C 73.15 60.99 58.36 73.21 53.14 86 C 52.27 88.31 51.94 90.36 52.01 92.20 C 52.08 90.62 52.43 88.90 53.14 87 C 58.36 74.21 73.15 61.99 92.27 56.22 C 98.88 54.22 105.38 53.19 111.48 53.02 C 129.78 52.53 144.42 59.89 147.44 72.71 C 147.78 74.15 147.95 75.61 147.98 77.09 C 148.02 75.27 147.86 73.48 147.44 71.71 C 144.61 59.69 131.56 52.47 114.87 52.02 z M 124.10 83.49 C 123.55 93.04 111.30 106.99 100.02 115.16 C 99.87 115.60 99.72 116.03 99.59 116.48 C 111.02 108.34 123.63 94.08 124.11 84.40 C 124.12 84.09 124.11 83.79 124.10 83.49 z M 64.46 95.37 C 64.43 95.56 64.42 95.76 64.42 95.95 C 64.45 97.19 65.16 98.31 66.75 99.21 L 71.03 101.64 C 71.03 101.64 96.73 95.13 101.96 104.84 C 102.29 105.46 102.46 106.08 102.52 106.71 C 102.60 105.73 102.46 104.78 101.96 103.84 C 96.73 94.13 71.03 100.64 71.03 100.64 L 66.75 98.21 C 65.34 97.41 64.62 96.44 64.46 95.37 z "/>
  <ellipse transform="matrix(0.85,0.53,0.47,0.88,0,0)" ry="19.86" rx="31.08" cy="142.34" cx="10.36" style="filter:url(#filter891);opacity:0.20"/>
  <ellipse transform="matrix(0.85,0.53,0.47,0.88,0,0)" ry="19.86" rx="31.08" cy="138.94" cx="12.26" style="fill:#ffc925"/>
  <path style="opacity:0.20;fill:#ffffff" d="M 88.40 92.02 A 19.78 31.12 55.56 0 0 66.62 98.50 A 19.78 31.12 55.56 0 0 48.07 125.74 A 19.78 31.12 55.56 0 1 66.62 99.50 A 19.78 31.12 55.56 0 1 88.40 93.02 A 19.78 31.12 55.56 0 1 102.38 100.58 A 19.78 31.12 55.56 0 1 103.95 106.79 A 19.78 31.12 55.56 0 0 102.38 99.58 A 19.78 31.12 55.56 0 0 88.40 92.02 z "/>
</svg>
