<?xml version='1.0' encoding='utf-8'?>
<svg xmlns="http://www.w3.org/2000/svg" width="192" height="192" version="1.1" id="svg14">
  <defs>
    <filter style="color-interpolation-filters:sRGB" id="filter877" x="0.05" width="1.11" y="0.04" height="1.09">
      <feGaussianBlur stdDeviation="2.88"/>
    </filter>
    <filter style="color-interpolation-filters:sRGB" id="filter921" x="0.10" width="1.20" y="0.03" height="1.06">
      <feGaussianBlur stdDeviation="0.84"/>
    </filter>
    <filter style="color-interpolation-filters:sRGB" id="filter941" x="0.05" width="1.10" y="0.04" height="1.09">
      <feGaussianBlur stdDeviation="0.97"/>
    </filter>
  </defs>
  <path style="filter:url(#filter877);opacity:0.20;fill:#000000" d="m 40,20 c -4.43,0 -8,3.57 -8,8 v 144 c 0,4.43 3.57,8 8,8 h 112 c 4.43,0 8,-3.57 8,-8 V 28 c 0,-4.43 -3.57,-8 -8,-8 z"/>
  <path d="m 40,16 c -4.43,0 -8,3.57 -8,8 v 144 c 0,4.43 3.57,8 8,8 h 112 c 4.43,0 8,-3.57 8,-8 V 24 c 0,-4.43 -3.57,-8 -8,-8 z" style="fill:#d5502e"/>
  <path style="opacity:0.30" d="m 40,16 c -4.43,0 -8,3.57 -8,8 v 144 c 0,4.43 3.57,8 8,8 H 55.91 V 16 H 40.00 Z"/>
  <path style="opacity:0.20;fill:#ffffff" d="m 40,16 c -4.43,0 -8,3.57 -8,8 v 1 c 0,-4.43 3.57,-8 8,-8 h 112 c 4.43,0 8,3.57 8,8 v -1 c 0,-4.43 -3.57,-8 -8,-8 z"/>
  <path transform="matrix(1.00,0,0,1,0.51,0.70)" d="m 130.60,97.30 -45.03,26.00 0,-52.00 z" style="filter:url(#filter941);opacity:0.20;fill:#000000"/>
  <path style="fill:#ffffff" d="m 130.60,97.30 -45.03,26.00 0,-52.00 z" transform="matrix(1.00,0,0,1,0.51,-1.30)"/>
  <path style="filter:url(#filter921);opacity:0.20" d="m 127.92,20 c -4,0 -4,4 -4,4 v 60 l 10,-6 10,6 V 24 c 0,-4 -4,-4 -4,-4 z"/>
  <path d="m 123.92,16 v 66 l 10,-6 10,6 V 16 Z" style="fill:#3f3f3f"/>
</svg>
