<?xml version='1.0' encoding='utf-8'?>
<svg xmlns="http://www.w3.org/2000/svg" width="192" height="192" version="1" id="svg14">
  <defs>
    <filter style="color-interpolation-filters:sRGB" id="filter850" x="-0.048000001" width="1.096" y="-0.048000001" height="1.096">
      <feGaussianBlur stdDeviation="3.2"/>
    </filter>
    <filter style="color-interpolation-filters:sRGB" id="filter10219" x="-0.13807303" y="-0.088684138" width="1.2761461" height="1.1773683">
      <feGaussianBlur stdDeviation="3.5105082"/>
    </filter>
  </defs>
  <circle style="filter:url(#filter850);opacity:0.2;fill:#000000" cx="96" cy="100" r="80"/>
  <circle r="80" cy="96" cx="96" style="fill:#23a9f2"/>
  <path style="fill:#38adfa" d="m 688.80525,256.99648 c -0.33229,-0.33229 -1.1948,-0.36781 -1.91667,-0.0789 -0.79773,0.31922 -0.56078,0.55618 0.60417,0.60416 1.05416,0.0434 1.64479,-0.19293 1.3125,-0.52522 z"/>
  <path style="opacity:0.2;fill:#ffffff" d="M 96 16 A 80 80 0 0 0 16 96 A 80 80 0 0 0 16.019531 96.472656 A 80 80 0 0 1 96 17 A 80 80 0 0 1 175.97461 96.513672 A 80 80 0 0 0 176 96 A 80 80 0 0 0 96 16 z "/>
  <path style="filter:url(#filter10219);opacity:0.2;fill:#000000" d="m 68,48.997446 v 91.000004 c 8.858713,1.41149 20.369367,3.91013 30.755104,4 8.558536,0.0741 16.353156,-1.44621 21.270286,-6.91992 6.45384,-7.18435 9.26257,-18.76859 8.97461,-29.84123 -0.35823,-13.774574 -5.43226,-26.757401 -13.34766,-29.49276 -3.00868,-1.039722 -6.88183,-1.792446 -11.24804,-1.744141 -6.748317,0.07466 -14.672925,2.07939 -22.4043,7.875 V 48.997446 Z m 34.31641,37.99657 c 1.70613,-0.02866 3.23161,0.189839 4.50781,0.63086 5.19641,1.548222 8.25473,11.585087 8.17578,22.696794 -0.0549,7.72504 -1.28011,15.92037 -7.33398,19.72851 -2.7347,1.72023 -6.17519,2.85904 -10.427739,2.94727 C 92.430769,133.00453 87.083654,131.95141 82,130.88612 V 95.944712 c 7.131735,-6.191703 14.703523,-8.856398 20.31641,-8.950696 z"/>
  <path style="fill:#ffffff" d="m 68,47 v 91 c 8.858713,1.41149 20.369367,3.91013 30.755104,4 8.558536,0.0741 16.353156,-1.44621 21.270286,-6.91992 6.45384,-7.18435 9.26257,-18.76859 8.97461,-29.84123 -0.35823,-13.77457 -5.43226,-26.757397 -13.34766,-29.492756 -3.00868,-1.039722 -6.88183,-1.792446 -11.24804,-1.744141 -6.748317,0.07466 -14.672925,2.07939 -22.4043,7.875 V 47 Z m 34.31641,37.99657 c 1.70613,-0.02866 3.23161,0.189839 4.50781,0.63086 5.19641,1.548222 8.25473,11.585087 8.17578,22.69679 -0.0549,7.72504 -1.28011,15.92037 -7.33398,19.72851 -2.7347,1.72023 -6.17519,2.85904 -10.427739,2.94727 C 92.430769,131.00708 87.083654,129.95396 82,128.88867 V 93.947266 c 7.131735,-6.191703 14.703523,-8.856398 20.31641,-8.950696 z"/>
</svg>
