<?xml version='1.0' encoding='utf-8'?>
<svg xmlns="http://www.w3.org/2000/svg" width="192" height="192" version="1" id="svg28">
  <defs>
    <filter style="color-interpolation-filters:sRGB" id="filter6495" x="0.05" y="0.05" width="1.10" height="1.10">
      <feGaussianBlur stdDeviation="3.20"/>
    </filter>
    <filter style="color-interpolation-filters:sRGB" id="filter10010" x="0.09" y="0.07" width="1.17" height="1.13">
      <feGaussianBlur stdDeviation="2.56"/>
    </filter>
  </defs>
  <rect transform="matrix(0,-1,-1,0,0,0)" ry="12" rx="12" y="-176" x="-180" height="160" width="160" style="filter:url(#filter6495);opacity:0.20;fill:#000000"/>
  <rect transform="matrix(0,-1,-1,0,0,0)" ry="12" rx="12" y="-176" x="-176" height="160" width="160" style="fill:#3f3f3f"/>
  <path style="opacity:0.10;fill:#ffffff" d="m 28,16 c -6.65,0 -12,5.35 -12,12 v 1 c 0,-6.65 5.35,-12 12,-12 h 136 c 6.65,0 12,5.35 12,12 v -1 c 0,-6.65 -5.35,-12 -12,-12 z"/>
  <path style="filter:url(#filter10010);opacity:0.20;fill:#000000" d="m 82.13,52 -22.07,92 h 16 L 98.13,52 Z m 33.81,0 -22.07,92 h 16.00 l 22.07,-92 z"/>
  <path style="fill:#11e8cd" d="m 82.13,50 -22.07,92 h 16 L 98.13,50 Z m 33.81,0 -22.07,92 h 16.00 l 22.07,-92 z"/>
  <path style="opacity:0.20;fill:#ffffff" d="M 82.13 50 L 60.06 142 L 60.30 142 L 82.13 51 L 97.89 51 L 98.13 50 L 82.13 50 z M 115.94 50 L 93.87 142 L 94.11 142 L 115.94 51 L 131.70 51 L 131.94 50 L 115.94 50 z "/>
</svg>
