<?xml version='1.0' encoding='utf-8'?>
<svg xmlns="http://www.w3.org/2000/svg" width="192" height="192" version="1" id="svg12">
  <defs>
    <filter style="color-interpolation-filters:sRGB" id="filter845" x="0.05" y="0.05" width="1.10" height="1.10">
      <feGaussianBlur stdDeviation="3.20"/>
    </filter>
    <filter style="color-interpolation-filters:sRGB" id="filter849" x="0.05" y="0.05" width="1.10" height="1.10">
      <feGaussianBlur stdDeviation="2.24"/>
    </filter>
  </defs>
  <rect style="filter:url(#filter845);opacity:0.20" width="160" height="160" x="16" y="20" rx="48" ry="48"/>
  <rect style="fill:#0dbc8a" width="160" height="160" x="16" y="16" rx="48" ry="48"/>
  <path style="opacity:0.20;fill:#ffffff" d="M 64 16 C 37.41 16 16 37.41 16 64 L 16 65 C 16 38.41 37.41 17 64 17 L 128 17 C 154.59 17 176 38.41 176 65 L 176 64 C 176 37.41 154.59 16 128 16 L 64 16 z "/>
  <path style="filter:url(#filter849);opacity:0.20" d="m 87.04,42 c -3.71,0 -6.72,3.01 -6.72,6.72 0,3.71 3.01,6.73 6.72,6.73 17.32,0 31.36,14.03 31.36,31.35 0,3.71 3.01,6.72 6.72,6.72 3.71,0 6.72,-3.01 6.72,-6.72 C 131.84,62.06 111.78,42 87.04,42 Z m -2.24,20.16 c -24.74,0.00 -44.80,20.06 -44.80,44.80 0,3.71 3.01,6.72 6.72,6.72 3.71,0 6.73,-3.01 6.73,-6.72 0,-17.32 14.03,-31.36 31.35,-31.36 3.71,0 6.72,-3.01 6.72,-6.72 0,-3.71 -3.01,-6.72 -6.72,-6.72 z m 60.48,20.16 c -3.71,0 -6.73,3.01 -6.73,6.72 0,17.32 -14.03,31.36 -31.35,31.36 -3.71,0 -6.72,3.01 -6.72,6.72 0,3.71 3.01,6.72 6.72,6.72 24.74,0 44.80,-20.06 44.80,-44.80 0,-3.71 -3.01,-6.72 -6.72,-6.72 z M 66.88,102.48 c -3.71,0 -6.72,3.01 -6.72,6.72 0,24.74 20.06,44.80 44.80,44.80 3.71,0 6.72,-3.01 6.72,-6.72 0,-3.71 -3.01,-6.73 -6.72,-6.73 -17.32,0 -31.36,-14.03 -31.36,-31.35 0,-3.71 -3.01,-6.72 -6.72,-6.72 z"/>
  <path style="fill:#ffffff" d="m 87.04,40 c -3.71,0 -6.72,3.01 -6.72,6.72 0,3.71 3.01,6.73 6.72,6.73 17.32,0 31.36,14.03 31.36,31.35 0,3.71 3.01,6.72 6.72,6.72 3.71,0 6.72,-3.01 6.72,-6.72 C 131.84,60.06 111.78,40 87.04,40 Z m -2.24,20.16 c -24.74,0.00 -44.80,20.06 -44.80,44.80 0,3.71 3.01,6.72 6.72,6.72 3.71,0 6.73,-3.01 6.73,-6.72 0,-17.32 14.03,-31.36 31.35,-31.36 3.71,0 6.72,-3.01 6.72,-6.72 0,-3.71 -3.01,-6.72 -6.72,-6.72 z m 60.48,20.16 c -3.71,0 -6.73,3.01 -6.73,6.72 0,17.32 -14.03,31.36 -31.35,31.36 -3.71,0 -6.72,3.01 -6.72,6.72 0,3.71 3.01,6.72 6.72,6.72 24.74,0 44.80,-20.06 44.80,-44.80 0,-3.71 -3.01,-6.72 -6.72,-6.72 z M 66.88,100.48 c -3.71,0 -6.72,3.01 -6.72,6.72 0,24.74 20.06,44.80 44.80,44.80 3.71,0 6.72,-3.01 6.72,-6.72 0,-3.71 -3.01,-6.73 -6.72,-6.73 -17.32,0 -31.36,-14.03 -31.36,-31.35 0,-3.71 -3.01,-6.72 -6.72,-6.72 z"/>
</svg>
