<svg xmlns="http://www.w3.org/2000/svg" id="svg16" width="192" height="192" version="1"><defs><filter style="color-interpolation-filters:sRGB" id="filter867" width="1.1" height="1.1" x=".05" y=".05"><feGaussianBlur stdDeviation="3.2"/></filter><filter style="color-interpolation-filters:sRGB" id="filter898" width="1.2" height="1.13" x=".1" y=".07"><feGaussianBlur stdDeviation="2.64"/></filter><filter style="color-interpolation-filters:sRGB" id="filter902" width="1.2" height="1.13" x=".1" y=".07"><feGaussianBlur stdDeviation="2.64"/></filter></defs><circle cx="96" cy="100" r="80" style="filter:url(#filter867);opacity:.2;fill:#000"/><circle style="fill:#2f67ba" cx="96" cy="96" r="80"/><path style="opacity:.1;fill:#fff" d="m 96,16 c -44.32,0 -79.99,35.68 -79.99,80 0,0.34 0.00,0.67 0,1 C 16.01,52.68 51.68,17 96,17 c 44.32,0 79.99,35.68 79.99,80 0.00,0.33 0,0.66 0,-1 C 175.99,51.68 140.32,16 96,16 Z"/><path style="filter:url(#filter902);opacity:.2" d="m 60,66 c -17.67,0 -32,14.33 -32,32 0,17.67 14.33,32 32,32 5.62,0.01 11.14,-1.50 16,-4.32 V 154 a 8,8 0 0 0 8,8 8,8 0 0 0 8,-8 V 98 66 H 76 v 4.34 C 71.14,67.51 65.62,66.01 60,66 Z m 0,16 c 8.84,0 16,7.16 16,16 0,8.84 -7.16,16 -16,16 -8.84,0 -16,-7.16 -16,-16 0,-8.84 7.16,-16 16,-16 z"/><path style="fill:#64d4f9" d="m 60,64 c -17.67,0 -32,14.33 -32,32 0,17.67 14.33,32 32,32 5.62,0.01 11.14,-1.50 16,-4.32 V 152 a 8,8 0 0 0 8,8 8,8 0 0 0 8,-8 V 96 64 H 76 v 4.34 C 71.14,65.51 65.62,64.01 60,64 Z m 0,16 c 8.84,0 16,7.16 16,16 0,8.84 -7.16,16 -16,16 -8.84,0 -16,-7.16 -16,-16 0,-8.84 7.16,-16 16,-16 z"/><path style="filter:url(#filter898);opacity:.2" d="m 108,34 a 8,8 0 0 0 -8,8 v 56 32 h 16 v -4.34 c 4.86,2.83 10.38,4.32 16,4.34 17.67,0 32,-14.33 32,-32 0,-17.67 -14.33,-32 -32,-32 -5.62,0.01 -11.14,1.50 -16,4.32 V 42 a 8,8 0 0 0 -8,-8 z m 24,48 c 8.84,0 16,7.16 16,16 0,8.84 -7.16,16 -16,16 -8.84,0 -16,-7.16 -16,-16 0,-8.84 7.16,-16 16,-16 z"/><path style="fill:#fff" d="m 108,32 a 8,8 0 0 0 -8,8 v 56 32 h 16 v -4.34 c 4.86,2.83 10.38,4.32 16,4.34 17.67,0 32,-14.33 32,-32 0,-17.67 -14.33,-32 -32,-32 -5.62,0.01 -11.14,1.50 -16,4.32 V 40 a 8,8 0 0 0 -8,-8 z m 24,48 c 8.84,0 16,7.16 16,16 0,8.84 -7.16,16 -16,16 -8.84,0 -16,-7.16 -16,-16 0,-8.84 7.16,-16 16,-16 z"/><path style="opacity:.2;fill:#fff" d="m 60,64 c -17.67,0 -32,14.33 -32,32 0,0.17 0.01,0.33 0.01,0.50 C 28.28,79.06 42.49,65 60,65 c 5.62,0.01 11.14,1.51 16,4.34 v -1 C 71.14,65.51 65.62,64.01 60,64 Z m 16,0 v 1 H 92 V 64 Z M 44.03,96.50 C 44.02,96.67 44,96.83 44,97 c 0,8.84 7.16,16 16,16 8.84,0 16,-7.16 16,-16 0,0.17 0.02,0.33 0.03,0.50 C 75.71,105.10 68.67,112 60,112 51.33,112 44.29,105.10 44.03,96.50 Z"/></svg>