<svg xmlns="http://www.w3.org/2000/svg" id="svg18" width="192" height="192" version="1.1"><defs><filter style="color-interpolation-filters:sRGB" id="filter857" width="1.1" height="1.1" x=".05" y=".05"><feGaussianBlur stdDeviation="3.2"/></filter><filter style="color-interpolation-filters:sRGB" id="filter876" width="1.1" height="1.1" x=".05" y=".05"><feGaussianBlur stdDeviation=".64"/></filter></defs><circle cx="96" cy="100" r="80" style="filter:url(#filter857);opacity:.2"/><circle cx="96" cy="96" r="80" style="fill:#d2d2d2"/><path style="opacity:.2;fill:#fff" d="M 96 16 A 80 80 0 0 0 16 96 A 80 80 0 0 0 16.02 96.47 A 80 80 0 0 1 96 17 A 80 80 0 0 1 175.97 96.51 A 80 80 0 0 0 176 96 A 80 80 0 0 0 96 16 z"/><path d="M 96,40 A 56,56 0 0 0 40,96 56,56 0 0 0 96,152 56,56 0 0 0 152,96 56,56 0 0 0 96,40 Z m 0,8 A 48,48 0 0 1 144,96 48,48 0 0 1 96,144 48,48 0 0 1 48,96 48,48 0 0 1 96,48 Z" style="fill:#3d7dd9"/><circle cx="136" cy="66" r="16" style="filter:url(#filter876);opacity:.1"/><circle cx="136" cy="64" r="16" style="fill:#2155a2"/><path d="M 96,68 A 28,28 0 0 0 68,96 28,28 0 0 0 96,124 28,28 0 0 0 124,96 28,28 0 0 0 96,68 Z m 0,8 A 20,20 0 0 1 116,96 20,20 0 0 1 96,116 20,20 0 0 1 76,96 20,20 0 0 1 96,76 Z" style="fill:#3d7dd9"/></svg>