<?xml version='1.0' encoding='utf-8'?>
<svg xmlns="http://www.w3.org/2000/svg" width="192" height="192" version="1" id="svg12">
  <defs>
    <filter style="color-interpolation-filters:sRGB" id="filter5013" x="-0.092045694" y="-0.063281136" width="1.1840914" height="1.1265623">
      <feGaussianBlur stdDeviation="4.2187609"/>
    </filter>
    <filter style="color-interpolation-filters:sRGB" id="filter5055" x="-0.108" y="-0.108" width="1.216" height="1.216">
      <feGaussianBlur stdDeviation="1.125"/>
    </filter>
  </defs>
  <path style="filter:url(#filter5013);opacity:0.2;fill:#000000;mix-blend-mode:normal" d="m 87,18.999261 v 30 h 11 v -30 z m 51.07617,5.617188 -27.51953,27.521484 7.77734,7.777344 27.52149,-27.521485 z M 91.5,57.999261 a 24.5,24.5 0 0 0 -24.5,24.5 24.5,24.5 0 0 0 24.5,24.499999 24.5,24.5 0 0 0 24.5,-24.499999 24.5,24.5 0 0 0 -24.5,-24.5 z m 31.5,14 v 11 h 30 v -11 z M 91.5,114.99926 c -26.78581,0 -48.5,21.59616 -48.5,48.23633 0,17.89849 21.71419,15.60742 48.5,15.60742 26.78581,0 48.5,2.83653 48.5,-15.60742 0,-26.64017 -21.71419,-48.23633 -48.5,-48.23633 z"/>
  <path style="fill:#00b5fb" d="m 140,160.23629 c 0,18.44395 -21.71419,15.60665 -48.5,15.60665 -26.78581,0 -48.5,2.29184 -48.5,-15.60665 C 43,133.59612 64.71419,112 91.5,112 c 26.78581,0 48.5,21.59612 48.5,48.23629 z"/>
  <circle style="fill:#00b5fb" cx="91.5" cy="79.5" r="24.5"/>
  <circle style="filter:url(#filter5055);opacity:0.2;fill:#000000" cx="91.5" cy="81.5" r="12.5"/>
  <circle style="fill:#ffffff" cx="91.5" cy="79.5" r="12.5"/>
  <rect style="fill:#00b5fb" width="11" height="30" x="87" y="16"/>
  <rect style="fill:#00b5fb" width="11" height="30" x="69" y="-153" transform="rotate(90)"/>
  <rect style="fill:#00b5fb" width="11" height="38.920826" x="112.92073" y="-82.349792" transform="rotate(45)"/>
  <path style="opacity:0.2;fill:#ffffff" d="M 87 16 L 87 17 L 98 17 L 98 16 L 87 16 z M 138.07617 21.617188 L 110.55664 49.138672 L 111.05664 49.638672 L 138.07617 22.617188 L 145.35547 29.894531 L 145.85547 29.394531 L 138.07617 21.617188 z M 91.5 55 A 24.5 24.5 0 0 0 67 79.5 A 24.5 24.5 0 0 0 67.056641 80 A 24.5 24.5 0 0 1 91.5 56 A 24.5 24.5 0 0 1 115.96875 79.769531 A 24.5 24.5 0 0 0 116 79.5 A 24.5 24.5 0 0 0 91.5 55 z M 123 69 L 123 70 L 153 70 L 153 69 L 123 69 z M 91.5 112 C 64.71419 112 43 133.59616 43 160.23633 C 43 160.37262 43.013114 160.4969 43.015625 160.63086 C 43.343157 134.271 64.918353 113 91.5 113 C 118.08428 113 139.66102 134.2752 139.98438 160.63867 C 139.98684 160.50204 140 160.37537 140 160.23633 C 140 133.59616 118.28581 112 91.5 112 z "/>
</svg>
