<?xml version='1.0' encoding='utf-8'?>
<svg xmlns="http://www.w3.org/2000/svg" width="192" height="192" version="1" id="svg24">
  <defs>
    <filter style="color-interpolation-filters:sRGB" id="filter884" x="-0.048000001" width="1.096" y="-0.048000001" height="1.096">
      <feGaussianBlur stdDeviation="2.72"/>
    </filter>
    <filter style="color-interpolation-filters:sRGB" id="filter912" x="-0.051432855" width="1.1028657" y="-0.044996717" height="1.0899934">
      <feGaussianBlur stdDeviation="0.300025"/>
    </filter>
    <filter style="color-interpolation-filters:sRGB" id="filter858" x="-0.048000001" width="1.096" y="-0.048000001" height="1.096">
      <feGaussianBlur stdDeviation="3.2"/>
    </filter>
  </defs>
  <rect ry="48" rx="48" y="20" x="16" height="160" width="160" style="filter:url(#filter858);opacity:0.2;fill:#000000"/>
  <rect style="fill:#4f4f4f" width="160" height="160" x="16" y="16" rx="48" ry="48"/>
  <path d="M 104.85156,28.648438 A 8,8 0 0 0 100,36 a 8,8 0 0 0 8,8 8,8 0 0 0 8,-8 8,8 0 0 0 -2.25781,-5.5625 68,68 0 0 0 -8.89063,-1.789062 z m -17.695312,0.01564 A 68,68 0 0 0 78.335936,30.359375 8,8 0 0 0 76,36 a 8,8 0 0 0 8,8 8,8 0 0 0 8,-8 8,8 0 0 0 -4.843752,-7.335938 z M 124.21094,34.20314 A 8,8 0 0 0 124,36 a 8,8 0 0 0 8,8 8,8 0 0 0 5.24219,-1.960936 68,68 0 0 0 -13.03125,-7.835939 z M 48,48 A 8,8 0 0 0 47.89064,48.008 68,68 0 0 0 40.109392,57.289252 8,8 0 0 0 48,64 8,8 0 0 0 56,56 8,8 0 0 0 48,48 Z m 24,0 a 8,8 0 0 0 -8,8 8,8 0 0 0 8,8 8,8 0 0 0 8,-8 8,8 0 0 0 -8,-8 z m 24,0 a 8,8 0 0 0 -8,8 8,8 0 0 0 8,8 8,8 0 0 0 8,-8 8,8 0 0 0 -8,-8 z m 24,0 a 8,8 0 0 0 -8,8 8,8 0 0 0 8,8 8,8 0 0 0 8,-8 8,8 0 0 0 -8,-8 z m 24,0 a 8,8 0 0 0 -8,8 8,8 0 0 0 8,8 8,8 0 0 0 7.875,-6.617188 68,68 0 0 0 -7.75781,-9.375 A 8,8 0 0 0 144,48 Z M 36,68 A 8,8 0 0 0 33.96875,68.273436 68,68 0 0 0 29.75,80.976564 8,8 0 0 0 36,84 8,8 0 0 0 44,76 8,8 0 0 0 36,68 Z m 24,0 a 8,8 0 0 0 -8,8 8,8 0 0 0 8,8 8,8 0 0 0 8,-8 8,8 0 0 0 -8,-8 z m 24,0 a 8,8 0 0 0 -8,8 8,8 0 0 0 8,8 8,8 0 0 0 8,-8 8,8 0 0 0 -8,-8 z m 24,0 a 8,8 0 0 0 -8,8 8,8 0 0 0 8,8 8,8 0 0 0 8,-8 8,8 0 0 0 -8,-8 z m 24,0 a 8,8 0 0 0 -8,8 8,8 0 0 0 8,8 8,8 0 0 0 8,-8 8,8 0 0 0 -8,-8 z m 24,0 a 8,8 0 0 0 -8,8 8,8 0 0 0 8,8 8,8 0 0 0 6.24219,-2.992188 68,68 0 0 0 -4.25781,-12.75 A 8,8 0 0 0 156,68 Z M 48,88 a 8,8 0 0 0 -8,8 8,8 0 0 0 8,8 8,8 0 0 0 8,-8 8,8 0 0 0 -8,-8 z m 24,0 a 8,8 0 0 0 -8,8 8,8 0 0 0 8,8 8,8 0 0 0 8,-8 8,8 0 0 0 -8,-8 z m 24,0 a 8,8 0 0 0 -8,8 8,8 0 0 0 8,8 8,8 0 0 0 8,-8 8,8 0 0 0 -8,-8 z m 24,0 a 8,8 0 0 0 -8,8 8,8 0 0 0 8,8 8,8 0 0 0 8,-8 8,8 0 0 0 -8,-8 z m 24,0 a 8,8 0 0 0 -8,8 8,8 0 0 0 8,8 8,8 0 0 0 8,-8 8,8 0 0 0 -8,-8 z M 36,108 a 8,8 0 0 0 -6.242188,2.99219 68,68 0 0 0 4.257813,12.75 A 8,8 0 0 0 36,124 a 8,8 0 0 0 8,-8 8,8 0 0 0 -8,-8 z m 24,0 a 8,8 0 0 0 -8,8 8,8 0 0 0 8,8 8,8 0 0 0 8,-8 8,8 0 0 0 -8,-8 z m 24,0 a 8,8 0 0 0 -8,8 8,8 0 0 0 8,8 8,8 0 0 0 8,-8 8,8 0 0 0 -8,-8 z m 24,0 a 8,8 0 0 0 -8,8 8,8 0 0 0 8,8 8,8 0 0 0 8,-8 8,8 0 0 0 -8,-8 z m 24,0 a 8,8 0 0 0 -8,8 8,8 0 0 0 8,8 8,8 0 0 0 8,-8 8,8 0 0 0 -8,-8 z m 24,0 a 8,8 0 0 0 -8,8 8,8 0 0 0 8,8 8,8 0 0 0 2.03125,-0.27344 A 68,68 0 0 0 162.25,111.02344 8,8 0 0 0 156,108 Z M 48,128 a 8,8 0 0 0 -7.875,6.61719 68,68 0 0 0 7.757812,9.375 A 8,8 0 0 0 48,144 a 8,8 0 0 0 8,-8 8,8 0 0 0 -8,-8 z m 24,0 a 8,8 0 0 0 -8,8 8,8 0 0 0 8,8 8,8 0 0 0 8,-8 8,8 0 0 0 -8,-8 z m 24,0 a 8,8 0 0 0 -8,8 8,8 0 0 0 8,8 8,8 0 0 0 8,-8 8,8 0 0 0 -8,-8 z m 24,0 a 8,8 0 0 0 -8,8 8,8 0 0 0 8,8 8,8 0 0 0 8,-8 8,8 0 0 0 -8,-8 z m 24,0 a 8,8 0 0 0 -8,8 8,8 0 0 0 8,8 8,8 0 0 0 0.10936,-0.008 68,68 0 0 0 7.78125,-9.28125 A 8,8 0 0 0 144,128 Z m -84,20 a 8,8 0 0 0 -5.242188,1.96094 68,68 0 0 0 13.031252,7.83594 A 8,8 0 0 0 68,156 8,8 0 0 0 60,148 Z m 24,0 a 8,8 0 0 0 -8,8 8,8 0 0 0 2.257812,5.5625 68,68 0 0 0 8.890624,1.78906 A 8,8 0 0 0 92,156 8,8 0 0 0 84,148 Z m 24,0 a 8,8 0 0 0 -8,8 8,8 0 0 0 4.84375,7.33594 68,68 0 0 0 8.82031,-1.69532 A 8,8 0 0 0 116,156 a 8,8 0 0 0 -8,-8 z m 24,0 a 8,8 0 0 0 -8,8 8,8 0 0 0 0.20312,1.78125 68,68 0 0 0 13.05469,-7.79687 A 8,8 0 0 0 132,148 Z" style="opacity:0.2"/>
  <path d="m 96,32 c -37.672,0 -68,30.328 -68,68 0,37.672 30.328,68 68,68 37.672,0 68,-30.328 68,-68 0,-37.672 -30.328,-68 -68,-68 z m 0,12 c 31.024,0 56,24.976 56,56 0,31.024 -24.976,56 -56,56 C 64.976,156 40,131.024 40,100 40,68.976 64.976,44 96,44 Z" style="filter:url(#filter884);opacity:0.2"/>
  <path d="m 96,28 c -37.672,0 -68,30.328 -68,68 0,37.672 30.328,68 68,68 37.672,0 68,-30.328 68,-68 0,-37.672 -30.328,-68 -68,-68 z m 0,12 c 31.024,0 56,24.976 56,56 0,31.024 -24.976,56 -56,56 C 64.976,152 40,127.024 40,96 40,64.976 64.976,40 96,40 Z" style="fill:#ff2764"/>
  <g transform="matrix(4,0,0,4,-1876,-655.99)" style="filter:url(#filter912);opacity:0.2;enable-background:new">
    <path d="m 489,183 v 8.1875 c -0.32,-0.12 -0.64,-0.19 -1,-0.19 -1.6568,0 -3,1.3432 -3,3 0,1.6568 1.3432,3 3,3 1.6568,0 3,-1.3432 3,-3 v -7.7995 l 6,-1.2005 v 4.1875 c -0.32,-0.12 -0.64,-0.19 -1,-0.19 -1.6568,0 -3,1.3432 -3,3 0,1.6568 1.3432,3 3,3 1.6568,0 3,-1.3432 3,-3 v -11 z"/>
  </g>
  <g transform="matrix(4,0,0,4,-1876,-659.985)" style="fill:#2be2e4;enable-background:new">
    <path d="m 489,183 v 8.1875 c -0.32,-0.12 -0.64,-0.19 -1,-0.19 -1.6568,0 -3,1.3432 -3,3 0,1.6568 1.3432,3 3,3 1.6568,0 3,-1.3432 3,-3 v -7.7995 l 6,-1.2005 v 4.1875 c -0.32,-0.12 -0.64,-0.19 -1,-0.19 -1.6568,0 -3,1.3432 -3,3 0,1.6568 1.3432,3 3,3 1.6568,0 3,-1.3432 3,-3 v -11 z" style="fill:#ff2764"/>
  </g>
  <path style="opacity:0.2;fill:#ffffff" d="M 96 28 C 58.328 28 28 58.328 28 96 C 28 96.167704 28.010519 96.332589 28.011719 96.5 C 28.280085 59.061253 58.495704 29 96 29 C 133.5043 29 163.71992 59.061253 163.98828 96.5 C 163.98948 96.332589 164 96.167704 164 96 C 164 58.328 133.672 28 96 28 z M 40.011719 96.5 C 40.010262 96.667334 40 96.832309 40 97 C 40 128.024 64.976 153 96 153 C 127.024 153 152 128.024 152 97 C 152 96.832309 151.98974 96.667334 151.98828 96.5 C 151.72029 127.29073 126.85631 152 96 152 C 65.143691 152 40.27971 127.29073 40.011719 96.5 z "/>
  <g style="opacity:0.2;fill:#ffffff;enable-background:new" transform="matrix(4,0,0,4,-1876,-659.985)">
    <path style="fill:#ffffff" d="M 120 63.994141 L 80 72.015625 L 80 73.015625 L 120 64.994141 L 120 63.994141 z M 108 95.994141 C 101.3728 95.994141 96 101.36694 96 107.99414 C 96 108.16272 96.018506 108.32726 96.025391 108.49414 C 96.289581 102.10068 101.54164 96.994141 108 96.994141 C 109.44 96.994141 110.72 97.275859 112 97.755859 L 112 96.755859 C 110.72 96.275859 109.44 95.994141 108 95.994141 z M 76 104.00586 C 69.3728 104.00586 64 109.37866 64 116.00586 C 64 116.1747 64.018484 116.33871 64.025391 116.50586 C 64.289177 110.11203 69.541377 105.00586 76 105.00586 C 77.44 105.00586 78.72 105.28562 80 105.76562 L 80 104.76562 C 78.72 104.28562 77.44 104.00586 76 104.00586 z " transform="matrix(0.25,0,0,0.25,469,164.99625)"/>
  </g>
  <g transform="matrix(4,0,0,4,-1876,-658.985)" style="opacity:0.2;fill:#ffffff;enable-background:new"/>
  <path style="opacity:0.1;fill:#ffffff" d="M 64 16 C 37.408 16 16 37.408 16 64 L 16 65 C 16 38.408 37.408 17 64 17 L 128 17 C 154.592 17 176 38.408 176 65 L 176 64 C 176 37.408 154.592 16 128 16 L 64 16 z "/>
</svg>
