<?xml version='1.0' encoding='utf-8'?>
<svg xmlns="http://www.w3.org/2000/svg" width="192" height="192" version="1" id="svg14">
  <defs>
    <filter style="color-interpolation-filters:sRGB" id="filter850" x="-0.048000001" width="1.096" y="-0.048000001" height="1.096">
      <feGaussianBlur stdDeviation="3.2"/>
    </filter>
    <filter style="color-interpolation-filters:sRGB" id="filter5752" x="-0.108" y="-0.108" width="1.216" height="1.216">
      <feGaussianBlur stdDeviation="4.86"/>
    </filter>
  </defs>
  <circle style="filter:url(#filter850);opacity:0.2;fill:#000000" cx="96" cy="100" r="80"/>
  <circle r="80" cy="96" cx="96" style="fill:#eb3343"/>
  <path style="fill:#38adfa" d="m 688.80525,256.99648 c -0.33229,-0.33229 -1.1948,-0.36781 -1.91667,-0.0789 -0.79773,0.31922 -0.56078,0.55618 0.60417,0.60416 1.05416,0.0434 1.64479,-0.19293 1.3125,-0.52522 z"/>
  <path style="opacity:0.2;fill:#ffffff" d="M 96 16 A 80 80 0 0 0 16 96 A 80 80 0 0 0 16.019531 96.472656 A 80 80 0 0 1 96 17 A 80 80 0 0 1 175.97461 96.513672 A 80 80 0 0 0 176 96 A 80 80 0 0 0 96 16 z "/>
  <path style="filter:url(#filter5752);opacity:0.2;fill:#000000;color:#000000" d="m 96,44 c -29.752279,0 -54,24.247721 -54,54 0,29.75228 24.247721,54 54,54 29.75228,0 54,-24.24772 54,-54 0,-29.752279 -24.24772,-54 -54,-54 z m 0,12 c 23.267,0 42,18.732996 42,42 0,23.267 -18.733,42 -42,42 C 72.732996,140 54,121.267 54,98 54,74.732996 72.732996,56 96,56 Z M 85,71 c 0,8.034312 -5.503704,14.034674 -15,13.984375 V 89 h 15 v 36 h 7 V 89 h 15 v 36 h 7 V 71 h -7 c 0,8.034312 -5.5037,14.034674 -15,13.984375 V 71 Z"/>
  <path style="fill:#ffffff;color:#000000" d="M 96 42 C 66.247721 42 42 66.247721 42 96 C 42 125.75228 66.247721 150 96 150 C 125.75228 150 150 125.75228 150 96 C 150 66.247721 125.75228 42 96 42 z M 96 54 C 119.267 54 138 72.732996 138 96 C 138 119.267 119.267 138 96 138 C 72.732996 138 54 119.267 54 96 C 54 72.732996 72.732996 54 96 54 z M 85 69 C 85 77.034312 79.496296 83.034674 70 82.984375 L 70 87 L 85 87 L 85 123 L 92 123 L 92 87 L 107 87 L 107 123 L 114 123 L 114 69 L 107 69 C 107 77.034312 101.4963 83.034674 92 82.984375 L 92 69 L 85 69 z "/>
</svg>
