<svg xmlns="http://www.w3.org/2000/svg" id="svg12" width="192" height="192" version="1"><defs><filter style="color-interpolation-filters:sRGB" id="filter1955" width="1.1" height="1.1" x=".05" y=".05"><feGaussianBlur stdDeviation="3"/></filter><filter style="color-interpolation-filters:sRGB" id="filter1977" width="1.09" height="1.47" x=".04" y=".23"><feGaussianBlur stdDeviation="3.13"/></filter></defs><rect style="filter:url(#filter1955);opacity:.2;fill:#000" width="150" height="150" x="21" y="25" rx="28.12" ry="28.12"/><rect style="fill:#4153c3" width="150" height="150" x="21" y="21" rx="28.12" ry="28.12"/><path style="filter:url(#filter1977);opacity:.2;fill:#000" d="m 22.04,82.00 -9.05,19.37 c -1.40,2.92 -1.47,5.52 0.83,8.30 2.56,3.07 7.85,4.33 13.30,4.33 h 9.91 c 4.98,0 8.25,0.93 12.09,-4.09 2.37,-1.97 3.53,-3.47 4.83,-6.25 L 63.97,82.00 H 49.94 l -7.37,15.64 c -2.04,4.92 -3.13,6.36 -9.65,6.36 -4.12,0 -5.71,-3.72 -4.48,-6.36 l 7.25,-15.64 z m 49.78,0 -14.50,31.70 c 4.38,0.98 9.55,0.61 11.38,-1.98 2.94,-2.20 4.70,-4.16 6.16,-7.42 l 3.25,-7.32 8.34,16.72 c 4.39,0.98 9.55,0.61 11.35,-1.98 2.96,-2.20 4.67,-4.11 6.16,-7.42 L 113.99,82.00 H 100.95 L 93.82,97.49 84.88,82.00 Z m 49.45,0 -14.39,31.70 c 4.39,0.98 9.43,0.61 11.24,-1.98 2.96,-2.20 4.67,-4.11 6.16,-7.41 l 10.03,-22.30 z m 20.03,0 -14.36,32.00 h 5.07 c 3.01,0 4.86,0.76 7.37,-2.49 2.80,-1.95 4.20,-3.24 5.43,-6.51 h 22.11 c 2.44,0 4.06,0.98 5.93,-2.62 1.42,-1.26 1.87,-2.37 2.66,-4.13 l 3.51,-7.76 c 1.04,-2.32 1.57,-4.62 0,-6.62 0.95,-1.19 -1.90,-1.88 -3.39,-1.88 z m 11.52,6 h 8.34 c 1.07,0 1.87,0.43 2.42,1.40 0.45,0.80 0.64,1.56 0.24,2.41 l -1.33,2.91 c 0.35,0.80 0.73,1.20 -1.45,1.65 0.76,0.48 -1.30,0.63 -2.18,0.63 h -10.14 z"/><path style="fill:#ffde00" d="M 22.04 80 L 12.99 99.38 C 11.59 102.30 11.52 104.89 13.82 107.67 C 16.38 110.74 21.66 112 27.12 112 L 37.02 112 C 42.00 112 45.27 111.07 49.11 107.91 C 51.48 105.94 52.64 104.44 53.95 101.66 L 63.97 80 L 49.94 80 L 42.57 95.64 C 40.53 100.57 39.44 102 32.92 102 C 28.80 102 27.21 98.28 28.44 95.64 L 35.70 80 L 22.04 80 z M 71.82 80 L 57.32 111.70 C 61.70 112.67 66.87 111.08 68.69 109.71 C 71.63 107.51 73.39 105.55 74.86 102.30 L 78.10 94.98 L 86.45 111.70 C 90.83 112.68 96.00 111.09 97.80 109.71 C 100.77 107.51 102.47 105.60 103.96 102.30 L 113.99 80 L 100.95 80 L 93.82 95.49 L 84.88 80 L 71.82 80 z M 121.27 80 L 106.88 111.70 C 111.27 112.68 116.32 111.09 118.12 109.71 C 121.08 107.51 122.79 105.60 124.28 102.30 L 134.31 80 L 121.27 80 z M 141.30 80 L 126.94 112 L 132.01 112 C 135.02 112 136.87 111.24 139.38 109.51 C 142.18 107.55 143.58 106.26 144.81 103 L 166.92 103 C 169.37 103 170.98 102.02 172.85 100.38 C 174.27 99.13 174.72 98.01 175.51 96.26 L 179.01 88.50 C 180.06 86.18 180.58 83.88 179.01 81.88 C 178.06 80.69 177.12 80 175.62 80 L 141.30 80 z M 152.82 86 L 161.16 86 C 162.23 86 163.03 86.43 163.58 87.40 C 164.03 88.21 164.22 88.96 163.81 89.81 L 162.49 92.72 C 162.13 93.52 161.75 93.92 161.04 94.37 C 160.28 94.85 159.74 95 158.86 95 L 148.71 95 L 152.82 86 z"/><path style="opacity:.1;fill:#fff" d="M 49.12 21 C 33.54 21 21 33.54 21 49.12 L 21 50.12 C 21 34.54 33.54 22 49.12 22 L 142.88 22 C 158.46 22 171 34.54 171 50.12 L 171 49.12 C 171 33.54 158.46 21 142.88 21 L 49.12 21 z"/><path style="opacity:.2;fill:#fff" d="M 22.04 80 L 12.99 99.38 C 12.27 100.87 11.91 102.27 12.03 103.66 C 12.11 102.59 12.44 101.51 12.99 100.38 L 22.04 81 L 35.23 81 L 35.70 80 L 22.04 80 z M 49.94 80 L 42.57 95.64 C 40.53 100.57 39.44 102 32.92 102 C 29.96 102 28.33 100.08 28.09 98.02 C 27.83 100.41 29.48 103 32.92 103 C 39.44 103 40.53 101.57 42.57 96.64 L 49.94 81 L 63.51 81 L 63.97 80 L 49.94 80 z M 71.82 80 L 57.32 111.70 C 57.46 111.73 57.60 111.73 57.74 111.76 L 71.82 81 L 84.88 81 L 93.82 96.49 L 100.95 81 L 113.54 81 L 113.99 80 L 100.95 80 L 93.82 95.49 L 84.88 80 L 71.82 80 z M 121.27 80 L 106.88 111.70 C 107.02 111.73 107.17 111.74 107.31 111.76 L 121.27 81 L 133.86 81 L 134.31 80 L 121.27 80 z M 141.30 80 L 126.94 112 L 127.38 112 L 141.30 81 L 175.62 81 C 177.12 81 178.06 81.69 179.01 82.88 C 179.59 83.62 179.89 84.41 179.97 85.22 C 180.07 84.05 179.83 82.92 179.01 81.88 C 178.06 80.69 177.12 80 175.62 80 L 141.30 80 z M 163.96 89.36 C 163.92 89.51 163.89 89.66 163.81 89.81 L 162.49 92.72 C 162.13 93.52 161.75 93.92 161.04 94.37 C 160.28 94.85 159.74 95 158.86 95 L 149.17 95 L 148.71 96 L 158.86 96 C 159.74 96 160.28 95.85 161.04 95.37 C 161.75 94.92 162.13 94.52 162.49 93.72 L 163.81 90.81 C 164.05 90.30 164.07 89.83 163.96 89.36 z"/></svg>