<svg xmlns="http://www.w3.org/2000/svg" id="svg22" width="192" height="192" version="1"><defs><filter style="color-interpolation-filters:sRGB" id="filter2391" width="1.1" height="1.1" x=".05" y=".05"><feGaussianBlur stdDeviation="3.2"/></filter><filter style="color-interpolation-filters:sRGB" id="filter2525" width="1.15" height="1.15" x=".08" y=".07"><feGaussianBlur stdDeviation="3.81"/></filter></defs><circle style="filter:url(#filter2391);opacity:.2;fill:#000" cx="96" cy="100" r="80"/><circle style="fill:#3b478c" cx="96" cy="96" r="80"/><path style="filter:url(#filter2525);opacity:.2;fill:#000" d="m 94.82,37.01 c -19.68,0.40 -38.61,10.32 -49.92,27.68 -16.09,24.68 -12.22,57.39 9.19,77.63 21.41,20.24 54.28,22.28 78.03,4.84 23.74,-17.44 31.63,-49.42 18.71,-75.90 a 3,3 0 0 0 -4.01,-1.38 3,3 0 0 0 -1.38,4.01 c 11.66,23.91 4.57,52.69 -16.87,68.44 C 107.12,158.07 77.54,156.24 58.21,137.96 38.88,119.68 35.40,90.25 49.93,67.96 64.45,45.68 92.79,36.99 117.31,47.30 a 3,3 0 0 0 3.93,-1.60 3,3 0 0 0 -1.60,-3.93 c -6.79,-2.85 -13.85,-4.39 -20.87,-4.71 -1.32,0.06 -2.63,0.08 -3.95,0.05 z M 75.32,70.00 C 68.40,70.00 60,70.23 60,70.23 v 55.77 h 11 v -17 c 0,0 2.20,0.09 4.32,0 C 84.92,109.06 96,106.40 96,89.60 96,72.80 84.92,70.00 75.32,70.00 Z m -1.18,9.00 c 0.57,0.00 1.17,0.01 1.75,0.04 C 81.74,79.24 85,84.66 85,89.49 85,94.87 81.08,99.90 74.99,99.97 73.16,99.99 72.23,100.04 71,99.93 V 79.04 c 0,0 1.44,0.05 3.15,0.04 z m 44.09,2.00 c -10.48,0 -17.23,6.07 -17.23,14.17 0.09,5.02 3.29,8.60 12.04,11.59 4.94,1.67 6.28,4.37 6.28,6.58 0,2.20 -3.38,4.22 -7.36,4.22 -3.90,0 -8.53,-4.13 -10.96,-5.62 0.00,3.20 0.00,8.05 0,11.25 3.20,1.76 8.45,2.66 12.64,2.80 C 125.85,126.37 132,120.00 132,111.99 c 0.09,-6.34 -3.46,-10.47 -11.52,-13.29 -5.19,-1.85 -8.21,-2.10 -8.21,-4.93 0,-2.20 3.19,-4.33 6.39,-4.33 3.64,0 8.43,1.76 10.33,2.81 v -8.44 c -2.60,-1.32 -5.83,-2.81 -10.77,-2.81 z"/><path style="fill:#219fd1" d="M 75.32 68 C 68.40 68 60 68.23 60 68.23 L 60 124 L 71 124 L 71 107 C 71 107 73.20 107.09 75.32 107 C 84.92 107.06 96 104.40 96 87.60 C 96 70.80 84.92 68 75.32 68 z M 74.15 77.00 C 74.71 77.01 75.31 77.02 75.89 77.04 C 81.74 77.24 85 82.66 85 87.49 C 85 92.87 81.08 97.90 74.99 97.97 C 73.16 97.99 72.23 98.04 71 97.93 L 71 77.04 C 71 77.04 72.44 76.99 74.15 77.00 z M 118.23 79.00 C 107.75 79.00 101.00 85.07 101.00 93.17 C 100.91 98.19 104.29 101.77 113.04 104.77 C 117.97 106.44 119.32 109.14 119.32 111.34 C 119.32 113.54 115.94 115.56 111.96 115.56 C 108.06 115.56 103.42 111.43 101 109.94 C 101.00 113.13 101.00 117.99 101 121.19 C 104.20 122.94 109.45 123.85 113.64 123.98 C 125.85 124.37 132 118.00 132 109.99 C 131.91 103.65 128.54 99.51 120.48 96.70 C 115.29 94.85 112.27 94.59 112.27 91.76 C 112.27 89.56 115.46 87.44 118.67 87.44 C 122.30 87.44 127.09 89.19 129 90.25 L 129 81.81 C 126.40 80.49 123.17 79.00 118.23 79.00 z"/><path style="fill:none;stroke:#fff;stroke-width:6;stroke-linecap:round;stroke-linejoin:round" d="M 148.13,70.57 A 58,58 0 0 1 130.34,142.74 58,58 0 0 1 56.15,138.14 58,58 0 0 1 47.41,64.33 58,58 0 0 1 118.48,42.53"/><path style="opacity:.1;fill:#fff" d="M 96 16 A 80 80 0 0 0 16 96 A 80 80 0 0 0 16.04 96.50 A 80 80 0 0 1 96 17 A 80 80 0 0 1 175.98 96.25 A 80 80 0 0 0 176 96 A 80 80 0 0 0 96 16 z"/><path style="opacity:.2;fill:#fff" d="M 75.32 68 C 68.40 68 60 68.23 60 68.23 L 60 69.23 C 60 69.23 68.40 69 75.32 69 C 84.83 69 95.77 71.75 95.99 88.10 C 95.99 87.93 96 87.77 96 87.60 C 96 70.80 84.92 68 75.32 68 z M 118.23 79.00 C 107.75 79.00 101.00 85.07 101.00 93.17 C 101.00 93.39 101.01 93.61 101.02 93.83 C 101.21 85.90 107.91 80.00 118.23 80.00 C 123.17 80.00 126.40 81.49 129 82.81 L 129 81.81 C 126.40 80.49 123.17 79.00 118.23 79.00 z M 84.98 87.97 C 84.75 93.16 80.90 97.90 74.99 97.97 C 73.16 97.99 72.23 98.04 71 97.93 L 71 98.93 C 72.23 99.04 73.16 98.99 74.99 98.97 C 81.08 98.90 85 93.87 85 88.49 C 85 88.32 84.99 88.14 84.98 87.97 z M 112.32 92.32 C 112.29 92.47 112.27 92.61 112.27 92.76 C 112.27 95.59 115.29 95.85 120.48 97.70 C 128.32 100.43 131.72 104.43 131.98 110.48 C 131.98 110.31 132 110.15 132 109.99 C 131.91 103.65 128.54 99.51 120.48 96.70 C 115.65 94.97 112.71 94.63 112.32 92.32 z M 101 109.94 C 101.00 110.22 101.00 110.63 101 110.94 C 103.42 112.43 108.06 116.56 111.96 116.56 C 115.94 116.56 119.32 114.54 119.32 112.34 C 119.32 112.16 119.29 111.97 119.27 111.78 C 118.87 113.80 115.67 115.56 111.96 115.56 C 108.06 115.56 103.42 111.43 101 109.94 z"/></svg>