<?xml version='1.0' encoding='utf-8'?>
<svg xmlns="http://www.w3.org/2000/svg" width="192" height="192" version="1" id="svg14">
  <defs>
    <filter style="color-interpolation-filters:sRGB" id="filter850" x="-0.048000001" width="1.096" y="-0.048000001" height="1.096">
      <feGaussianBlur stdDeviation="3.2"/>
    </filter>
    <filter style="color-interpolation-filters:sRGB" id="filter14776" x="-0.108" y="-0.108" width="1.216" height="1.216">
      <feGaussianBlur stdDeviation="5.31"/>
    </filter>
  </defs>
  <circle style="filter:url(#filter850);opacity:0.2;fill:#000000" cx="96" cy="100" r="80"/>
  <circle r="80" cy="96" cx="96" style="fill:#ff5687"/>
  <path style="fill:#38adfa" d="m 688.80525,256.99648 c -0.33229,-0.33229 -1.1948,-0.36781 -1.91667,-0.0789 -0.79773,0.31922 -0.56078,0.55618 0.60417,0.60416 1.05416,0.0434 1.64479,-0.19293 1.3125,-0.52522 z"/>
  <path style="opacity:0.2;fill:#ffffff" d="M 96 16 A 80 80 0 0 0 16 96 A 80 80 0 0 0 16.019531 96.472656 A 80 80 0 0 1 96 17 A 80 80 0 0 1 175.97461 96.513672 A 80 80 0 0 0 176 96 A 80 80 0 0 0 96 16 z "/>
  <path style="filter:url(#filter14776);opacity:0.2;fill:#000000;color:#000000" d="m 96,39 c -32.537389,0 -59,26.462611 -59,59 0,32.53739 26.462611,59 59,59 32.53739,0 59,-26.46261 59,-59 0,-32.537389 -26.46261,-59 -59,-59 z m 0,8 c 28.21387,0 51,22.786127 51,51 0,14.23246 -5.80339,27.07847 -15.17188,36.32031 C 126.60762,119.56848 112.54029,109 96,109 79.460031,109 65.394593,119.57086 60.173828,134.32227 50.804187,125.08028 45,112.23346 45,98 45,69.786127 67.786127,47 96,47 Z m 0,12 A 22,22 0 0 0 74,81 22,22 0 0 0 96,103 22,22 0 0 0 118,81 22,22 0 0 0 96,59 Z m -14,65 h 28 a 4,4 0 0 1 4,4 4,4 0 0 1 -4,4 H 82 a 4,4 0 0 1 -4,-4 4,4 0 0 1 4,-4 z"/>
  <path style="fill:#ffffff;color:#000000" d="M 96 37 C 63.462611 37 37 63.462611 37 96 C 37 128.53739 63.462611 155 96 155 C 128.53739 155 155 128.53739 155 96 C 155 63.462611 128.53739 37 96 37 z M 96 45 C 124.21387 45 147 67.786127 147 96 C 147 110.23246 141.19661 123.07847 131.82812 132.32031 C 126.60762 117.56848 112.54029 107 96 107 C 79.460031 107 65.394593 117.57086 60.173828 132.32227 C 50.804187 123.08028 45 110.23346 45 96 C 45 67.786127 67.786127 45 96 45 z M 96 57 A 22 22 0 0 0 74 79 A 22 22 0 0 0 96 101 A 22 22 0 0 0 118 79 A 22 22 0 0 0 96 57 z M 82 122 L 110 122 A 4 4 0 0 1 114 126 A 4 4 0 0 1 110 130 L 82 130 A 4 4 0 0 1 78 126 A 4 4 0 0 1 82 122 z "/>
</svg>
