<?xml version='1.0' encoding='utf-8'?>
<svg xmlns="http://www.w3.org/2000/svg" width="192" height="192" version="1" id="svg12">
  <defs>
    <filter style="color-interpolation-filters:sRGB" id="filter860" x="-0.048000001" width="1.096" y="-0.048000001" height="1.096">
      <feGaussianBlur stdDeviation="3.2"/>
    </filter>
    <filter style="color-interpolation-filters:sRGB" id="filter899" x="-0.046188327" width="1.0923767" y="-0.049959591" height="1.0999192">
      <feGaussianBlur stdDeviation="2.0400167"/>
    </filter>
  </defs>
  <rect style="filter:url(#filter860);opacity:0.2" width="160" height="160" x="16" y="20" rx="48" ry="48"/>
  <rect style="fill:#f5497d" width="160" height="160" x="16" y="16" rx="48" ry="48"/>
  <path style="opacity:0.2;fill:#ffffff" d="M 64,16 C 37.408,16 16,37.408 16,64 v 1 C 16,38.408 37.408,17 64,17 h 64 c 26.592,0 48,21.408 48,48 V 64 C 176,37.408 154.592,16 128,16 Z"/>
  <path style="filter:url(#filter899);opacity:0.2;fill:#000000;color:#000000;font-stretch:normal;font-variant-ligatures:normal;font-variant-position:normal;font-variant-caps:normal;font-variant-numeric:normal;font-variant-alternates:normal;font-variant-east-asian:normal;font-feature-settings:normal;font-variation-settings:normal;text-indent:0;text-align:start;text-decoration-line:none;text-decoration-style:solid;text-decoration-color:#000000;text-transform:none;writing-mode:lr-tb;direction:ltr;text-orientation:mixed;dominant-baseline:auto;baseline-shift:baseline;white-space:normal;shape-padding:0;shape-margin:0;inline-size:0;clip-rule:nonzero;display:inline;overflow:visible;visibility:visible;isolation:auto;mix-blend-mode:normal;color-interpolation:sRGB;color-interpolation-filters:linearRGB;solid-color:#000000;solid-opacity:1;vector-effect:none;fill-rule:nonzero;color-rendering:auto;image-rendering:auto;shape-rendering:auto;text-rendering:auto;enable-background:accumulate;stop-color:#000000" d="m 67,51 a 6.0007305,6.0006 0 0 0 -4.242188,1.757812 l -18.001953,18 a 6.0007305,6.0006 0 0 0 0,8.484376 L 61,95.484375 V 143 a 6.0007305,6.0006 0 0 0 6,6 h 58 a 6.0007305,6.0006 0 0 0 6,-6 V 95.484375 l 16.24414,-16.242187 a 6.0007305,6.0006 0 0 0 0,-8.484376 l -18.00195,-18 A 6.0007305,6.0006 0 0 0 125,51 Z m 2.484375,12 h 53.031245 l 12,12 -13.75781,13.757812 A 6.0007305,6.0006 0 0 0 119,93 v 44 H 73 V 93 A 6.0007305,6.0006 0 0 0 71.242188,88.757812 L 57.484375,75 Z m 1.179687,8.833984 A 26,26 0 0 0 96,92 26,26 0 0 0 121.33594,71.833984 H 109.81836 A 15,15 0 0 1 96,81 15,15 0 0 1 82.181641,71.833984 Z"/>
  <path style="fill:#ffffff;color:#000000;font-stretch:normal;font-variant-ligatures:normal;font-variant-position:normal;font-variant-caps:normal;font-variant-numeric:normal;font-variant-alternates:normal;font-variant-east-asian:normal;font-feature-settings:normal;font-variation-settings:normal;text-indent:0;text-align:start;text-decoration-line:none;text-decoration-style:solid;text-decoration-color:#000000;text-transform:none;writing-mode:lr-tb;direction:ltr;text-orientation:mixed;dominant-baseline:auto;baseline-shift:baseline;white-space:normal;shape-padding:0;shape-margin:0;inline-size:0;clip-rule:nonzero;display:inline;overflow:visible;visibility:visible;isolation:auto;mix-blend-mode:normal;color-interpolation:sRGB;color-interpolation-filters:linearRGB;solid-color:#000000;solid-opacity:1;vector-effect:none;fill-rule:nonzero;color-rendering:auto;image-rendering:auto;shape-rendering:auto;text-rendering:auto;enable-background:accumulate;stop-color:#000000" d="m 66.999364,47 a 6.0007305,6.0006 0 0 0 -4.24228,1.757812 l -18.000392,18 a 6.0007305,6.0006 0 0 0 0,8.484376 L 60.999233,91.484375 V 139 a 6.0007305,6.0006 0 0 0 6.000131,6 h 58.001266 a 6.0007305,6.0006 0 0 0 6.00013,-6 V 91.484375 l 16.24255,-16.242187 a 6.0007305,6.0006 0 0 0 0,-8.484376 l -18.0004,-18 A 6.0007305,6.0006 0 0 0 125.00063,47 Z m 2.48443,12 h 53.032396 l 12.00026,12 -13.7581,13.757812 A 6.0007305,6.0006 0 0 0 119.0005,89 v 44 H 72.999494 V 89 a 6.0007305,6.0006 0 0 0 -1.75785,-4.242188 L 57.483532,71 Z"/>
  <path style="fill:#faa4be" d="M 70.664062,67.833984 A 26,26 0 0 0 96,88 26,26 0 0 0 121.33594,67.833984 H 109.81836 A 15,15 0 0 1 96,77 15,15 0 0 1 82.181641,67.833984 Z"/>
</svg>
