<?xml version='1.0' encoding='utf-8'?>
<svg xmlns="http://www.w3.org/2000/svg" width="192" height="192" version="1" id="svg24">
  <defs>
    <filter style="color-interpolation-filters:sRGB" id="filter868" x="-0.048000001" width="1.096" y="-0.048000001" height="1.096">
      <feGaussianBlur stdDeviation="3.2"/>
    </filter>
    <filter style="color-interpolation-filters:sRGB" id="filter898" x="-0.048000002" width="1.096" y="-0.048000002" height="1.096">
      <feGaussianBlur stdDeviation="2.4"/>
    </filter>
    <filter style="color-interpolation-filters:sRGB" id="filter934" x="-0.052799997" width="1.1056" y="-0.044" height="1.088">
      <feGaussianBlur stdDeviation="0.87999996"/>
    </filter>
  </defs>
  <circle style="filter:url(#filter868);opacity:0.2;fill:#000000" cx="96" cy="100" r="80"/>
  <path d="M 176,96 C 175.69512,77.594636 122.94195,16.30488 96,16 51.68,16 16,51.68 16,96 c 0,44.32 35.68,80 80,80 44.32,0 80,-35.68 80,-80 z" style="fill:#00b3f9"/>
  <path d="m 96,16 v 80 h 80 C 176,51.68 140.32,16 96,16 Z" style="fill:#ffad0f"/>
  <path style="opacity:0.1;fill:#ffffff" d="M 96 16 C 51.684 16 16.007812 51.68 16.007812 96 C 16.007812 96.33544 16.009812 96.667215 16.007812 97 C 16.007812 52.68 51.684 17 96 17 C 140.316 17 175.99219 52.68 175.99219 97 C 175.99019 96.667215 175.99219 96.33544 175.99219 96 C 175.99219 51.68 140.316 16 96 16 z "/>
  <rect transform="matrix(0,-1,-1,0,0,0)" ry="60" rx="60" y="-156" x="-160" height="120" width="120" style="filter:url(#filter898);opacity:0.2;fill:#000000"/>
  <rect transform="matrix(0,-1,-1,0,0,0)" ry="60" rx="60" y="-156" x="-156" height="120" width="120" style="fill:#e4e4e4"/>
  <path style="opacity:0.2;fill:#ffffff" d="M 96 36 C 62.76 36 36 62.76 36 96 C 36 96.12514 36.011037 96.247207 36.015625 96.371094 C 36.352428 63.424685 62.971025 37 96 37 C 129.02898 37 155.64757 63.424685 155.98438 96.371094 C 155.98896 96.247207 156 96.12514 156 96 C 156 62.76 129.24 36 96 36 z "/>
  <circle r="40" cy="96" cx="96" style="fill:#4d4d4d"/>
  <path d="M 120,100 99.999998,112 80.000001,124 V 99.999999 76.000003 l 19.999999,12 z" style="filter:url(#filter934);opacity:0.1"/>
  <path d="M 120,96.000002 99.999998,108 80.000001,120 V 95.999999 72.000002 l 19.999999,12 z" style="fill:#ffffff"/>
</svg>
