<?xml version='1.0' encoding='utf-8'?>
<svg xmlns="http://www.w3.org/2000/svg" width="192" height="192" version="1" id="svg12">
  <defs>
    <filter style="color-interpolation-filters:sRGB" id="filter955" x="0.05" width="1.10" y="0.05" height="1.10">
      <feGaussianBlur stdDeviation="3.20"/>
    </filter>
    <filter style="color-interpolation-filters:sRGB" id="filter1443" x="0.05" y="0.14" width="1.10" height="1.27">
      <feGaussianBlur stdDeviation="2.59"/>
    </filter>
  </defs>
  <rect style="filter:url(#filter955);opacity:0.20;fill:#000000" width="160" height="160" x="16" y="20" rx="30" ry="30"/>
  <rect style="fill:#3f3f3f" width="160" height="160" x="16" y="16" rx="30" ry="30"/>
  <path style="filter:url(#filter1443);opacity:0.20;fill:#000000;fill-rule:evenodd" d="m 33.14,75 12.73,46 h 3.25 L 36.39,75 Z m 8.98,0 12.73,46 h 3.25 L 45.37,75 Z m 35.78,0 -9.11,29.11 -7.79,-29.11 H 51.09 L 63.82,121 h 9.08 L 82.46,90.51 92.01,121 h 9.14 l 12.61,-46.00 h -9.79 L 96.34,104.33 87.07,75 Z M 143,75 v 0.00 27.28 c 0.01,0.04 0.25,3.80 -2.25,6.38 -1.63,1.67 -4.06,2.52 -7.25,2.52 -3.19,0 -5.62,0.85 -7.24,-2.52 -2.50,-2.57 -2.26,-6.34 -2.26,-6.37 l 0.00,-27.28 h -4.15 L 114,95.88 V 102.38 c 0,5.52 1.85,10.21 5.34,13.54 C 122.82,119.24 127.72,121 133.50,121 c 5.78,0 10.68,-1.76 14.16,-5.09 C 151.15,112.58 153,107.90 153,102.38 V 75 Z"/>
  <path style="opacity:0.10;fill:#ffffff" d="M 46 16 C 29.38 16 16 29.38 16 46 L 16 47 C 16 30.38 29.38 17 46 17 L 146 17 C 162.62 17 176 30.38 176 47 L 176 46 C 176 29.38 162.62 16 146 16 L 46 16 z "/>
  <path fill="#ffffff" d="M 45.87,119 33.14,73 h 3.25 l 12.73,46 z" style="fill-rule:evenodd"/>
  <path style="fill:#ffdd00;fill-rule:evenodd" d="M 113.75,73.00 101.15,119 H 92.01 L 82.46,88.51 72.91,119 H 63.82 L 51.09,73.00 h 9.91 l 7.79,29.11 9.10,-29.11 h 9.17 l 9.27,29.33 7.62,-29.32 z"/>
  <path style="fill:#ffdd00;fill-rule:evenodd" d="m 143.00,73.00 v 27.28 c 0.01,0.04 0.25,3.80 -2.25,6.37 -1.63,1.67 -4.06,2.52 -7.25,2.52 -3.19,0 -5.63,0.85 -7.25,-2.52 -2.50,-2.57 -2.26,-6.34 -2.26,-6.37 l 0.01,-27.28 h -4.15 l -5.85,20.88 v 6.49 c 0,5.52 1.85,10.21 5.34,13.54 3.49,3.33 8.38,5.09 14.16,5.09 5.78,0 10.68,-1.76 14.16,-5.09 3.49,-3.33 5.34,-8.01 5.34,-13.54 V 73 h -10 z"/>
  <path fill="#ffffff" d="M 54.85,119 42.12,73 h 3.25 l 12.73,46 z" style="fill-rule:evenodd"/>
  <path style="opacity:0.20;fill:#ffffff;fill-rule:evenodd" d="M 77.90 73 L 68.79 102.11 L 61.00 73.00 L 51.09 73.00 L 51.37 74.00 L 61.00 74.00 L 68.79 103.11 L 77.90 74 L 87.07 74 L 96.34 103.33 L 103.96 74.00 L 113.48 74.00 L 113.75 73.00 L 103.96 73.00 L 96.34 102.33 L 87.07 73 L 77.90 73 z M 143 73 L 143 73.00 L 143 74 L 153 74 L 153 73 L 143 73 z M 119.85 73.00 L 114 93.88 L 114 94.88 L 119.85 74.00 L 124.00 74.00 L 124.00 73.00 L 119.85 73.00 z M 124.00 100.93 L 124.00 101.28 C 124.00 101.32 123.75 105.08 126.25 107.66 C 127.87 109.33 130.31 110.18 133.50 110.18 C 136.69 110.18 139.12 109.33 140.75 107.66 C 143.25 105.08 143.00 101.32 143 101.28 L 143 100.96 C 142.95 102.16 142.61 104.74 140.75 106.66 C 139.12 108.33 136.69 109.18 133.50 109.18 C 130.31 109.18 127.87 108.33 126.25 106.66 C 124.38 104.73 124.05 102.13 124.00 100.93 z "/>
</svg>
