<?xml version='1.0' encoding='utf-8'?>
<svg xmlns="http://www.w3.org/2000/svg" width="192" height="192" version="1" id="svg14">
  <defs>
    <filter style="color-interpolation-filters:sRGB" id="filter850" x="0.05" width="1.10" y="0.05" height="1.10">
      <feGaussianBlur stdDeviation="3.20"/>
    </filter>
    <filter style="color-interpolation-filters:sRGB" id="filter4778" x="0.11" y="0.10" width="1.22" height="1.21">
      <feGaussianBlur stdDeviation="4.64"/>
    </filter>
  </defs>
  <circle style="filter:url(#filter850);opacity:0.20;fill:#000000" cx="96" cy="100" r="80"/>
  <circle r="80" cy="96" cx="96" style="fill:#37b44e"/>
  <path style="opacity:0.20;fill:#ffffff" d="M 96 16 A 80 80 0 0 0 16 96 A 80 80 0 0 0 16.02 96.47 A 80 80 0 0 1 96 17 A 80 80 0 0 1 175.97 96.51 A 80 80 0 0 0 176 96 A 80 80 0 0 0 96 16 z "/>
  <path style="filter:url(#filter4778);opacity:0.20;fill:#000000;color:#000000" d="m 113.28,45.80 -5.73,21.24 c 7.23,1.95 13.61,6.23 18.15,12.18 L 143.18,65.86 C 135.69,56.06 125.18,49.01 113.28,45.80 Z M 74,51.00 a 15,15 0 0 0 -15,15 15,15 0 0 0 15,15 15,15 0 0 0 15,-15 15,15 0 0 0 -15,-15 z M 66.01,97.71 44.01,98.17 c 0.49,23.27 15.40,43.88 37.34,51.63 21.95,7.75 46.49,1.07 61.48,-16.73 L 126.01,118.90 C 116.87,129.75 102.06,133.78 88.68,129.06 75.30,124.34 66.30,111.90 66.01,97.71 Z"/>
  <path style="fill:#ffffff;color:#000000" d="M 113.28 43.80 L 107.55 65.04 C 114.78 66.99 121.16 71.27 125.70 77.22 L 143.18 63.86 C 135.69 54.06 125.18 47.01 113.28 43.80 z M 74 49 A 15 15 0 0 0 59 64 A 15 15 0 0 0 74 79 A 15 15 0 0 0 89 64 A 15 15 0 0 0 74 49 z M 66.01 95.71 L 44.01 96.17 C 44.50 119.44 59.41 140.05 81.35 147.80 C 103.30 155.55 127.84 148.87 142.84 131.07 L 126.01 116.90 C 116.87 127.75 102.06 131.79 88.68 127.06 C 75.30 122.34 66.30 109.90 66.01 95.71 z "/>
</svg>
