<?xml version='1.0' encoding='utf-8'?>
<svg xmlns="http://www.w3.org/2000/svg" width="192" height="192" version="1" id="svg22">
  <defs>
    <filter style="color-interpolation-filters:sRGB" id="filter869" x="-0.048000001" width="1.096" y="-0.048000001" height="1.096">
      <feGaussianBlur stdDeviation="2.72"/>
    </filter>
    <filter style="color-interpolation-filters:sRGB" id="filter885" x="-0.136" width="1.272" y="-0.029142857" height="1.0582857">
      <feGaussianBlur stdDeviation="1.36"/>
    </filter>
    <filter style="color-interpolation-filters:sRGB" id="filter911" x="-0.053333334" width="1.1066667" y="-0.043636364" height="1.0872727">
      <feGaussianBlur stdDeviation="1.6"/>
    </filter>
  </defs>
  <path style="filter:url(#filter885);opacity:0.2" d="M 152,64 176,44 V 156 L 152,136 Z"/>
  <path style="fill:#1f56a8" d="M 152,60 176,40 V 152 L 152,132 Z"/>
  <rect style="filter:url(#filter869);opacity:0.2" width="136" height="136" x="16" y="32" rx="16" ry="16"/>
  <rect style="fill:#1c6bdd" width="136" height="136" x="16" y="28" rx="16" ry="16"/>
  <path style="filter:url(#filter911);opacity:0.2" d="m 48,54 v 36 16 36 h 48 c 13.25483,0 24,-12.74517 24,-26 0,-6.64248 -2.70194,-13.1534 -7.0625,-18 C 117.29806,93.153404 120,86.642476 120,80 120,66.745168 109.25483,54 96,54 Z m 16,16 h 32 c 4.60779,0 8,5.392208 8,10 0,4.607792 -3.39221,10 -8,10 H 64 Z m 0,36 h 32 c 4.60779,0 8,5.39221 8,10 0,4.60779 -3.39221,10 -8,10 H 64 Z"/>
  <path style="fill:#ffffff" d="m 48,52 v 52 h 48 c 13.25483,0 24,-12.745168 24,-26 0,-13.254832 -10.74517,-26 -24,-26 z m 16,16 h 32 c 4.60779,0 8,5.392208 8,10 0,4.607792 -3.39221,10 -8,10 H 64 Z"/>
  <rect style="fill:none" width="128" height="128" x="32" y="31.959999"/>
  <path style="fill:#ffffff" d="m 48,88 v 52 h 48 c 13.25483,0 24,-12.74517 24,-26 0,-13.25483 -10.74517,-26 -24,-26 z m 16,16 h 32 c 4.60779,0 8,5.39221 8,10 0,4.60779 -3.39221,10 -8,10 H 64 Z"/>
  <path style="opacity:0.1;fill:#ffffff" d="m 32,28 c -8.864,0 -16,7.136 -16,16 v 1 c 0,-8.864 7.136,-16 16,-16 h 104 c 8.864,0 16,7.136 16,16 v -1 c 0,-8.864 -7.136,-16 -16,-16 z"/>
  <path style="opacity:0.1;fill:#ffffff" d="m 176,40 -24,20 v 1 l 24,-20 z"/>
</svg>
