<?xml version='1.0' encoding='utf-8'?>
<svg xmlns="http://www.w3.org/2000/svg" width="192" height="192" version="1" id="svg14">
  <defs>
    <filter style="color-interpolation-filters:sRGB" id="filter850" x="-0.048000001" width="1.096" y="-0.048000001" height="1.096">
      <feGaussianBlur stdDeviation="3.2"/>
    </filter>
    <filter style="color-interpolation-filters:sRGB" id="filter866" x="-0.066" width="1.132" y="-0.037714286" height="1.0754286">
      <feGaussianBlur stdDeviation="1.76"/>
    </filter>
  </defs>
  <rect style="filter:url(#filter850);opacity:0.2;fill:#000000" width="160" height="160" x="-180" y="-176" rx="8" ry="8" transform="matrix(0,-1,-1,0,0,0)"/>
  <rect transform="matrix(0,-1,-1,0,0,0)" ry="8" rx="8" y="-176" x="-176" height="160" width="160" style="fill:#4f4f4f"/>
  <path style="opacity:0.1;fill:#ffffff" d="M 24 16 C 19.568 16 16 19.568 16 24 L 16 25 C 16 20.568 19.568 17 24 17 L 168 17 C 172.432 17 176 20.568 176 25 L 176 24 C 176 19.568 172.432 16 168 16 L 24 16 z "/>
  <path d="m 80,44 v 64 H 64 v 48 h 64 V 108 H 96 V 92 h 16 V 76 H 96 V 60 h 16 V 44 H 96 Z m 0,80 h 32 v 16 H 80 Z" style="filter:url(#filter866);opacity:0.2"/>
  <path d="m 80,40 v 64 H 64 v 48 h 64 V 104 H 96 V 88 h 16 V 72 H 96 V 56 h 16 V 40 H 96 Z m 0,80 h 32 v 16 H 80 Z" style="fill:#ffffff"/>
</svg>
