<svg xmlns="http://www.w3.org/2000/svg" id="svg16" width="192" height="192" version="1"><defs><filter style="color-interpolation-filters:sRGB" id="filter847" width="1.1" height="1.1" x=".05" y=".05"><feGaussianBlur stdDeviation="3.19"/></filter><filter style="color-interpolation-filters:sRGB" id="filter867" width="1.1" height="1.09" x=".05" y=".04"><feGaussianBlur stdDeviation="1.04"/></filter><filter style="color-interpolation-filters:sRGB" id="filter897" width="1.08" height="1.13" x=".04" y=".06"><feGaussianBlur stdDeviation="1.91"/></filter></defs><path d="M 96,20 C 55.41,20 22.09,49.94 16.77,89.02 l 6.47,4.01 7.54,4.68 a 2.47,2.65 0 0 1 0,4.59 l -7.54,4.68 -6.47,4.01 C 22.09,150.07 55.41,180 96,180 c 44.32,0 80,-35.68 80,-80 0,-44.32 -35.68,-80 -80,-80 z" style="filter:url(#filter847);opacity:.2"/><path d="M 96,16 C 55.41,16 22.09,45.94 16.77,85.02 l 6.47,4.01 7.54,4.68 a 2.47,2.65 0 0 1 0,4.59 l -7.54,4.68 -6.47,4.01 C 22.09,146.07 55.41,176 96,176 c 44.32,0 80,-35.68 80,-80 0,-44.32 -35.68,-80 -80,-80 z" style="fill:#4f4f4f"/><path d="M 96,36 A 60,60 0 0 0 36.69,87.45 l 2.55,1.58 7.54,4.68 a 2.47,2.65 0 0 1 0,4.59 l -7.54,4.68 -2.56,1.59 A 60,60 0 0 0 96,156 60,60 0 0 0 156,96 60,60 0 0 0 96,36 Z" style="fill:#3f3f3f"/><path d="M 82.06,72.00 A 5.92,6.18 0 0 0 76,78.18 v 12.84 l 3.23,2.01 7.54,4.68 a 2.47,2.65 0 0 1 0,4.59 l -7.54,4.68 L 76,108.99 v 12.84 a 5.92,6.18 0 0 0 8.88,5.35 l 18.09,-10.90 18.09,-10.92 a 5.92,6.18 0 0 0 0,-10.69 L 120,94.02 v 5.98 h -4 V 91.61 L 108,86.78 v 13.22 h -4 V 84.37 l -1.03,0.62 L 96,79.55 V 100.00 H 92 V 77.13 l -7.12,-4.29 a 5.92,6.18 0 0 0 -2.81,0.84 z" style="filter:url(#filter867);opacity:.2"/><path d="M 82.06,68 A 5.92,6.18 0 0 0 76,74.18 v 12.84 l 3.23,2.01 7.54,4.68 a 2.47,2.65 0 0 1 0,4.59 L 79.23,102.98 76,104.98 v 12.84 a 5.92,6.18 0 0 0 8.88,5.35 l 18.09,-10.90 18.09,-10.92 a 5.92,6.18 0 0 0 0,-10.69 L 120,90.02 V 96 h -4 v -8.39 l -8,-4.83 V 96 h -4 V 80.37 l -1.03,0.62 L 96,75.55 V 96 H 92 V 73.13 l -7.12,-4.29 A 5.92,6.18 0 0 0 82.06,68 Z" style="fill:#fff"/><path style="opacity:.1;fill:#fff" d="M 96 16 C 55.41 16 22.09 45.94 16.77 85.02 L 16.91 85.11 C 22.62 46.47 55.72 17 96 17 C 140.15 17 175.73 52.41 175.99 96.50 C 176.00 96.33 176 96.17 176 96 C 176 51.68 140.32 16 96 16 z M 31.96 96.51 A 2.47 2.65 0 0 1 30.77 98.30 L 23.23 102.98 L 16.77 106.98 C 16.81 107.29 16.87 107.59 16.91 107.89 L 23.23 103.98 L 30.77 99.30 A 2.47 2.65 0 0 0 31.96 96.51 z"/><path style="filter:url(#filter897);opacity:.1;fill:#000" d="M 96 36 A 60 60 0 0 0 36.69 87.45 L 37.38 87.88 A 60 60 0 0 1 96 40 A 60 60 0 0 1 155.92 98.34 A 60 60 0 0 0 156 96 A 60 60 0 0 0 96 36 z M 47.15 98.01 A 2.47 2.65 0 0 1 46.77 98.30 L 39.23 102.98 L 36.67 104.56 A 60 60 0 0 0 37.37 108.13 L 39.23 106.98 L 46.77 102.30 A 2.47 2.65 0 0 0 47.15 98.01 z"/><path style="opacity:.1;fill:#fff" d="M 36.83 87.54 A 60 60 0 0 0 36.69 88.45 L 39.23 90.03 L 46.77 94.71 A 2.47 2.65 0 0 1 47.96 96.51 A 2.47 2.65 0 0 0 46.77 93.71 L 39.23 89.03 L 36.83 87.54 z M 155.98 96.58 A 60 60 0 0 1 96 156 A 60 60 0 0 1 36.85 105.46 L 36.67 105.56 A 60 60 0 0 0 96 157 A 60 60 0 0 0 156 97 A 60 60 0 0 0 155.98 96.58 z"/></svg>