<?xml version='1.0' encoding='utf-8'?>
<svg xmlns="http://www.w3.org/2000/svg" width="192" height="192" version="1" id="svg28">
  <defs>
    <filter style="color-interpolation-filters:sRGB" id="filter6495" x="0.05" y="0.05" width="1.10" height="1.10">
      <feGaussianBlur stdDeviation="3.20"/>
    </filter>
    <filter style="color-interpolation-filters:sRGB" id="filter8978" x="0.11" y="0.11" width="1.22" height="1.21">
      <feGaussianBlur stdDeviation="3.92"/>
    </filter>
  </defs>
  <rect transform="matrix(0,-1,-1,0,0,0)" ry="12" rx="12" y="-176" x="-180" height="160" width="160" style="filter:url(#filter6495);opacity:0.20;fill:#000000"/>
  <rect transform="matrix(0,-1,-1,0,0,0)" ry="12" rx="12" y="-176" x="-176" height="160" width="160" style="fill:#e91e63"/>
  <path style="opacity:0.20;fill:#ffffff" d="m 28,16 c -6.65,0 -12,5.35 -12,12 v 1 c 0,-6.65 5.35,-12 12,-12 h 136 c 6.65,0 12,5.35 12,12 v -1 c 0,-6.65 -5.35,-12 -12,-12 z"/>
  <path style="filter:url(#filter8978);opacity:0.20;fill:#000000" d="m 53,54 v 6 h 86 v -6 z m 54,12 c -3.31,0 -6,2.69 -6,6 V 88.18 96 c 0,2.76 -2.24,5 -5,5 -2.76,0 -5,-2.24 -5,-5 V 88.80 79 c 0,-3.31 -2.69,-6 -6,-6 -3.31,0 -6,2.69 -6,6 V 89.55 113 c 0,2.76 -2.24,5 -5,5 -2.76,0 -5,-2.24 -5,-5 V 90.18 80 c 0,-3.31 -2.69,-6 -6,-6 -3.31,0 -6,2.69 -6,6 v 13.60 c -1.33,0.63 -2.66,1.17 -4,1.44 V 134 c 0,4.43 3.57,8 8,8 h 70 c 4.43,0 8,-3.57 8,-8 V 90.29 c -1.24,0.19 -2.56,0.59 -4,-1.30 V 72 c 0,-3.31 -2.69,-6 -6,-6 -3.31,0 -6,2.69 -6,6 V 79.86 84 c 0,2.76 -2.24,5 -5,5 -2.76,0 -5,-2.24 -5,-5 V 80.49 72 c 0,-3.31 -2.69,-6 -6,-6 z"/>
  <path style="fill:#ffffff" d="M 53 52 L 53 58 L 139 58 L 139 52 L 53 52 z M 107 64 C 103.69 64 101 66.69 101 70 L 101 86.18 L 101 94 C 101 96.76 98.76 99 96 99 C 93.24 99 91 96.76 91 94 L 91 86.80 L 91 77 C 91 73.69 88.31 71 85 71 C 81.69 71 79 73.69 79 77 L 79 87.55 L 79 111 C 79 113.76 76.76 116 74 116 C 71.24 116 69 113.76 69 111 L 69 88.18 L 69 78 C 69 74.69 66.31 72 63 72 C 59.69 72 57 74.69 57 78 L 57 91.60 C 55.67 92.23 54.34 92.77 53 93.04 L 53 132 C 53 136.43 56.57 140 61 140 L 131 140 C 135.43 140 139 136.43 139 132 L 139 88.29 C 137.76 88.11 136.44 87.71 135 87.00 L 135 70 C 135 66.69 132.31 64 129 64 C 125.69 64 123 66.69 123 70 L 123 77.86 L 123 82 C 123 84.76 120.76 87 118 87 C 115.24 87 113 84.76 113 82 L 113 78.49 L 113 70 C 113 66.69 110.31 64 107 64 z "/>
</svg>
