<?xml version='1.0' encoding='utf-8'?>
<svg xmlns="http://www.w3.org/2000/svg" width="192" height="192" version="1" id="svg3">
  <defs>
    <filter id="filter1055" style="color-interpolation-filters:sRGB" width="1.10" height="1.09" x="0.05" y="0.05">
      <feGaussianBlur stdDeviation="3.04"/>
    </filter>
  </defs>
  <path style="filter:url(#filter1055);opacity:0.20" d="m 168,144.18 c 0,-7.43 -2.15,-14.59 -6.72,-20.96 L 144.09,99.60 161.28,75.99 C 165.85,69.88 168,62.45 168,55.02 c 0,-19.63 -16.39,-34.76 -35.73,-34.76 -11.28,0 -22.57,5.57 -29.55,15.12 l -8.60,11.67 c -3.22,-15.65 -16.93,-27.06 -34.39,-27.06 -20.15,0 -35.73,15.92 -35.73,35.55 v 88.89 c 0,19.63 15.85,35.55 35.73,35.55 17.19,0 30.63,-10.61 34.12,-26.00 l 7.52,10.61 c 6.99,10.08 18.54,15.39 29.82,15.39 C 151.61,180.26 168,163.81 168,144.18"/>
  <path style="fill:#05ce78" d="m 168,140.18 c 0,-7.43 -2.15,-14.59 -6.72,-20.96 L 144.09,95.60 161.28,71.99 C 165.85,65.88 168,58.45 168,51.02 c 0,-19.63 -16.39,-34.76 -35.73,-34.76 -11.28,0 -22.57,5.57 -29.55,15.12 l -8.60,11.67 c -3.22,-15.65 -16.93,-27.06 -34.39,-27.06 -20.15,0 -35.73,15.92 -35.73,35.55 v 88.89 c 0,19.63 15.85,35.55 35.73,35.55 17.19,0 30.63,-10.61 34.12,-26.00 l 7.52,10.61 c 6.99,10.08 18.54,15.39 29.82,15.39 C 151.61,176.26 168,159.81 168,140.18"/>
  <path style="opacity:0.20;fill:#ffffff" d="M 59.73 16 C 39.58 16 24 31.92 24 51.55 L 24 52.55 C 24 32.92 39.58 17 59.73 17 C 77.19 17 90.90 28.41 94.12 44.06 L 102.72 32.39 C 109.70 22.84 120.99 17.27 132.27 17.27 C 151.48 17.27 167.75 32.18 167.98 51.61 C 167.98 51.42 168 51.22 168 51.02 C 168 31.39 151.61 16.27 132.27 16.27 C 120.99 16.27 109.70 21.84 102.72 31.39 L 94.12 43.06 C 90.90 27.41 77.19 16 59.73 16 z M 144.45 96.10 L 144.09 96.60 L 161.28 120.21 C 165.73 126.41 167.87 133.37 167.98 140.59 C 167.98 140.45 168 140.32 168 140.18 C 168 132.75 165.85 125.58 161.28 119.21 L 144.45 96.10 z"/>
</svg>
