<?xml version='1.0' encoding='utf-8'?>
<svg xmlns="http://www.w3.org/2000/svg" width="192" height="192" version="1" id="svg28">
  <defs>
    <filter style="color-interpolation-filters:sRGB" id="filter2805" x="0.04" y="0.06" width="1.08" height="1.11">
      <feGaussianBlur stdDeviation="2.98"/>
    </filter>
  </defs>
  <path style="filter:url(#filter2805);opacity:0.20;fill:#000000" d="m 144.10,35.00 c -4.58,0 -9.16,1.75 -12.66,5.24 C 124.45,47.24 123,74.00 123,74.00 c 0,0 26.76,-1.45 33.76,-8.44 6.99,-6.99 6.99,-18.33 0,-25.32 -3.50,-3.50 -8.08,-5.24 -12.66,-5.24 z m -54.21,0.01 c -2.93,0.11 -6.43,1.75 -10.42,5.90 L 52.32,69.00 H 22 c -5.54,0 -10,4.46 -10,10 v 40 c 0,5.54 4.46,10 10,10 h 30.32 l 27.16,28.10 C 92.24,170.36 100,158.02 100,151.67 V 99.00 46.33 C 100,41.97 96.33,34.77 89.89,35.01 Z M 164,81.00 c -9.94,0 -30,18 -30,18 0,0 20.06,18 30,18 9.94,0 18,-8.06 18,-18 0,-9.94 -8.06,-18 -18,-18 z m -41,43 c 0,0 1.45,26.76 8.44,33.76 6.99,6.99 18.33,6.99 25.32,0 6.99,-6.99 6.99,-18.33 0,-25.32 C 149.76,125.45 123,124.00 123,124.00 Z"/>
  <rect style="fill:#e4e4e4" width="60" height="60" x="12" y="66" ry="10"/>
  <path style="fill:#e4e4e4" d="M 89.89 32.01 C 86.97 32.11 83.47 33.76 79.48 37.90 L 44.63 73.95 L 44.63 96 L 44.63 118.05 L 79.48 154.10 C 92.24 167.36 100 155.02 100 148.67 L 100 96 L 100 43.33 C 100 38.97 96.33 31.77 89.89 32.01 z "/>
  <path style="fill:#2196f3" d="m 182,96 c 0,9.94 -8.06,18 -18,18 -9.94,0 -30,-18 -30,-18 0,0 20.06,-18 30,-18 9.94,0 18,8.06 18,18 z"/>
  <path style="fill:#2196f3" d="m 156.76,37.24 c 6.99,6.99 6.99,18.33 0,25.32 C 149.77,69.55 123,71 123,71 c 0,0 1.45,-26.77 8.44,-33.76 6.99,-6.99 18.33,-6.99 25.32,0 z"/>
  <path style="fill:#2196f3" d="m 156.76,154.76 c 6.99,-6.99 6.99,-18.33 0,-25.32 C 149.77,122.45 123,121.00 123,121.00 c 0,0 1.45,26.77 8.44,33.76 6.99,6.99 18.33,6.99 25.32,0 z"/>
  <path style="opacity:0.20;fill:#ffffff" d="M 144.10 32 C 139.52 32 134.94 33.75 131.44 37.24 C 124.45 44.24 123 71 123 71 C 123 71 123.08 70.99 123.08 70.99 C 123.25 68.19 124.86 44.83 131.44 38.24 C 134.94 34.75 139.52 33 144.10 33 C 148.68 33 153.26 34.75 156.76 38.24 C 160.12 41.61 161.85 45.99 161.98 50.40 C 162.11 45.66 160.38 40.87 156.76 37.24 C 153.26 33.75 148.68 32 144.10 32 z M 89.89 32.01 C 86.97 32.11 83.47 33.76 79.48 37.90 L 52.32 66 L 22 66 C 16.46 66 12 70.46 12 76 L 12 77 C 12 71.46 16.46 67 22 67 L 52.32 67 L 79.48 38.90 C 83.47 34.76 86.97 33.11 89.89 33.01 C 96.33 32.77 100 39.97 100 44.33 L 100 43.33 C 100 38.97 96.33 31.77 89.89 32.01 z M 164 78 C 154.06 78 134 96 134 96 C 134 96 134.51 96.43 134.58 96.50 C 136.23 95.04 154.50 79 164 79 C 173.77 79 181.71 86.79 181.97 96.50 C 181.98 96.33 182 96.17 182 96 C 182 86.06 173.94 78 164 78 z M 123 121 C 123 121 123.07 121.83 123.08 122.01 C 123.32 122.02 149.80 123.48 156.76 130.44 C 160.12 133.81 161.85 138.18 161.98 142.60 C 162.11 137.85 160.38 133.06 156.76 129.44 C 149.76 122.45 123 121 123 121 z "/>
</svg>
