<?xml version='1.0' encoding='utf-8'?>
<svg xmlns="http://www.w3.org/2000/svg" width="192" height="192" version="1" id="svg28">
  <defs>
    <filter style="color-interpolation-filters:sRGB" id="filter6495" x="-0.048000001" y="-0.048000001" width="1.096" height="1.096">
      <feGaussianBlur stdDeviation="3.2"/>
    </filter>
    <filter style="color-interpolation-filters:sRGB" id="filter4738" x="-0.15378261" y="-0.083223529" width="1.3075652" height="1.1664471">
      <feGaussianBlur stdDeviation="2.9475"/>
    </filter>
  </defs>
  <rect transform="matrix(0,-1,-1,0,0,0)" ry="12" rx="12" y="-176" x="-180" height="160" width="160" style="filter:url(#filter6495);opacity:0.2;fill:#000000"/>
  <rect transform="matrix(0,-1,-1,0,0,0)" ry="12" rx="12" y="-176" x="-176" height="160" width="160" style="fill:#f8c500"/>
  <path style="opacity:0.2;fill:#ffffff" d="m 28,16 c -6.648,0 -12,5.352 -12,12 v 1 c 0,-6.648 5.352,-12 12,-12 h 136 c 6.648,0 12,5.352 12,12 v -1 c 0,-6.648 -5.352,-12 -12,-12 z"/>
  <path style="filter:url(#filter4738);opacity:0.2;fill:#000000" d="m 73,56 v 46 h 21.201172 c -0.147242,1.08861 -1.204503,5.41927 -1.859375,7.19336 -0.937061,2.53856 -2.760036,6.0118 -4.539063,8.64844 -1.71822,2.54652 -6.308275,7.4779 -8.416015,9.04101 l -1.283203,0.95117 6.566406,6.58399 C 88.281483,138.03849 91.371845,141 91.537109,141 c 0.165263,0 1.635179,-1.01659 3.267579,-2.25977 3.434859,-2.61589 7.741352,-6.82752 10.582032,-10.34961 5.84926,-7.25234 10.52486,-17.12459 12.32226,-26.01367 C 118.89204,96.526046 119,94.235115 119,74.783203 V 56 Z"/>
  <path style="fill:#ffffff" d="M 73 54 L 73 100 L 94.201172 100 C 94.05393 101.08861 92.996669 105.41927 92.341797 107.19336 C 91.404736 109.73192 89.581761 113.20516 87.802734 115.8418 C 86.084514 118.38832 81.494459 123.3197 79.386719 124.88281 L 78.103516 125.83398 L 84.669922 132.41797 C 88.281483 136.03849 91.371845 139 91.537109 139 C 91.702372 139 93.172288 137.98341 94.804688 136.74023 C 98.239547 134.12434 102.54604 129.91271 105.38672 126.39062 C 111.23598 119.13828 115.91158 109.26603 117.70898 100.37695 C 118.89204 94.526046 119 92.235115 119 72.783203 L 119 54 L 73 54 z "/>
</svg>
