<?xml version='1.0' encoding='utf-8'?>
<svg xmlns="http://www.w3.org/2000/svg" width="192" height="192" version="1" id="svg28">
  <defs>
    <filter style="color-interpolation-filters:sRGB" id="filter6495" x="0.05" y="0.05" width="1.10" height="1.10">
      <feGaussianBlur stdDeviation="3.20"/>
    </filter>
    <filter style="color-interpolation-filters:sRGB" id="filter12480" x="0.12" y="0.12" width="1.23" height="1.23">
      <feGaussianBlur stdDeviation="5.87"/>
    </filter>
  </defs>
  <rect transform="matrix(0,-1,-1,0,0,0)" ry="12" rx="12" y="-176" x="-180" height="160" width="160" style="filter:url(#filter6495);opacity:0.20;fill:#000000"/>
  <rect transform="matrix(0,-1,-1,0,0,0)" ry="12" rx="12" y="-176" x="-176" height="160" width="160" style="fill:#00baed"/>
  <path style="filter:url(#filter12480);opacity:0.20;fill:#000000" d="M 36.50,38 C 36.22,38 36,38.22 36,38.50 V 73.47 A 65.09,65.25 0 0 1 71.39,38 Z m 84.61,0 A 65.09,65.25 0 0 1 156,72.77 V 38.50 C 156,38.22 155.78,38 155.50,38 Z m -1.56,22.02 c -2.45,0.08 -4.94,0.46 -7.44,1.18 -5.04,1.45 -8.52,3.34 -13.57,7.38 L 95.94,70.67 92.91,68.43 c -1.66,-1.23 -4.66,-3.06 -6.65,-4.06 -6.06,-3.03 -10.55,-4.16 -16.34,-4.12 -7.15,0.06 -12.56,2.24 -17.43,7.02 -3.45,3.40 -4.96,5.79 -6.57,10.46 -2.29,6.62 -2.56,14.39 0.70,20.59 3.27,10.93 12.52,23.22 26.99,35.88 C 80.26,141.23 94.68,152 96.06,152 c 0.23,0 2.24,-1.25 4.45,-2.77 13.24,-9.10 26.04,-20.35 33.94,-29.83 10.31,-12.39 14.51,-22.79 13.37,-33.12 0.55,-4.97 -1.23,-7.36 -3.29,-11.54 -4.73,-9.60 -14.38,-15.06 -24.98,-14.72 z M 36,122.98 v 34.52 C 36,157.78 36.22,158 36.50,158 H 70.18 A 65.09,65.25 0 0 1 36,122.98 Z m 120,0.44 A 65.09,65.25 0 0 1 121.99,158 H 155.50 c 0.28,0 0.50,0.22 0.50,0.50 z"/>
  <path style="opacity:0.20;fill:#ffffff" d="m 28,16 c -6.65,0 -12,5.35 -12,12 v 1 c 0,-6.65 5.35,-12 12,-12 h 136 c 6.65,0 12,5.35 12,12 v -1 c 0,-6.65 -5.35,-12 -12,-12 z"/>
  <path style="fill:#b3eafa" d="M 36.50,36 C 36.22,36 36,36.22 36,36.50 V 71.47 A 65.09,65.25 0 0 1 71.39,36 Z M 121.11,36 A 65.09,65.25 0 0 1 156,70.77 V 36.50 C 156,36.22 155.78,36 155.50,36 Z M 36,120.98 v 34.52 C 36,155.78 36.22,156 36.50,156 H 70.18 A 65.09,65.25 0 0 1 36,120.98 Z m 120,0.44 A 65.09,65.25 0 0 1 121.99,156 h 33.51 C 155.78,156 156,155.78 156,155.50 Z"/>
  <path style="fill:#ffffff" d="m 100.51,147.24 c 13.24,-9.10 26.04,-20.35 33.94,-29.83 10.31,-12.39 14.51,-22.79 13.37,-33.12 0.55,-4.97 -1.23,-7.37 -3.29,-11.54 -5.82,-11.82 -19.10,-17.36 -32.42,-13.54 -5.04,1.45 -8.52,3.34 -13.57,7.38 l -2.60,2.09 -3.02,-2.24 C 91.25,65.19 88.25,63.37 86.26,62.37 80.20,59.33 75.71,58.20 69.92,58.25 62.77,58.30 57.36,60.48 52.50,65.27 49.05,68.67 47.54,71.06 45.93,75.73 43.63,82.35 43.37,90.12 45.23,96.31 48.50,107.24 57.75,119.53 72.22,132.19 80.26,139.23 94.68,150 96.06,150 c 0.23,0 2.24,-1.24 4.45,-2.76 z"/>
</svg>
