<svg xmlns="http://www.w3.org/2000/svg" id="svg12" width="192" height="192" version="1"><defs><filter style="color-interpolation-filters:sRGB" id="filter860" width="1.1" height="1.1" x=".05" y=".05"><feGaussianBlur stdDeviation="3.2"/></filter><filter style="color-interpolation-filters:sRGB" id="filter861" width="1.1" height="1.09" x=".05" y=".05"><feGaussianBlur stdDeviation="2.26"/></filter></defs><rect style="filter:url(#filter860);opacity:.2" width="160" height="160" x="16" y="20" rx="8" ry="8"/><rect style="fill:#86b204" width="160" height="160" x="16" y="16" rx="8" ry="8"/><path style="opacity:.2;fill:#fff" d="m 24,16 c -4.43,0 -8,3.57 -8,8 v 1 c 0,-4.43 3.57,-8 8,-8 h 144 c 4.43,0 8,3.57 8,8 v -1 c 0,-4.43 -3.57,-8 -8,-8 z"/><path d="m 65.95,33.98 c -1.61,0.03 -2.53,1.84 -1.60,3.16 l 7.89,11.48 C 60.55,55.65 52.11,67.72 50,82 H 60.04 C 63.28,64.72 78.16,52.00 95.84,51.93 113.63,51.85 128.70,64.59 131.96,82 H 142 C 139.88,67.71 131.44,55.64 119.76,48.61 l 7.88,-11.47 c 0.93,-1.31 0.01,-3.13 -1.60,-3.16 0.68,0.01 -1.32,0.32 -1.70,0.89 l -8.12,11.82 C 110.03,43.65 103.09,41.97 95.80,42 88.65,42.03 81.85,43.71 75.77,46.69 L 67.65,34.87 c 0.38,0.57 -1.02,0.90 -1.70,0.89 z M 80,62 c -3.31,0 -6,2.69 -6,6 0,3.31 2.69,6 6,6 3.31,0 6,-2.69 6,-6 0,-3.31 -2.69,-6 -6,-6 z m 32,0 c -3.31,0 -6,2.69 -6,6 0,3.31 2.69,6 6,6 3.31,0 6,-2.69 6,-6 0,-3.31 -2.69,-6 -6,-6 z M 42,88 V 98 H 150 V 88 Z m 0,18 v 10 H 82.37 C 82.13,115.03 82.00,114.03 82,113.01 V 113 c 0,-2.54 0.71,-4.93 1.93,-7 z m 54,0 c -3.87,0 -7,3.13 -7,7 0.00,2.53 1.36,4.85 3.56,6.09 L 89,134 h 14 L 98.87,119.38 C 101.38,118.25 103.00,115.75 103,113 c 0,-3.87 -3.13,-7 -7,-7 z m 12.07,0 c 1.22,2.07 1.93,4.46 1.93,7 v 0.01 c 0.00,1.03 0.14,2.02 0.37,2.99 H 150 V 106 Z M 42,124 v 10 h 40.01 c 0.00,0.55 0.06,-1.09 0.18,-1.63 L 84.19,124 Z m 65.45,0 2.29,8.10 c 0.17,0.62 0.26,1.26 0.26,1.90 H 150 V 124 Z M 42,142 v 10 h 108 v -10 z" style="filter:url(#filter861);opacity:.2;fill:#000"/><path style="fill:#fff" d="m 65.95,31.98 c -1.61,0.03 -2.53,1.84 -1.60,3.16 l 7.89,11.48 C 60.55,53.65 52.11,65.72 50,80 H 60.04 C 63.28,62.72 78.16,50.00 95.84,49.93 113.63,49.85 128.70,62.59 131.96,80 H 142 C 139.88,65.71 131.44,53.64 119.76,46.61 l 7.88,-11.47 c 0.93,-1.31 0.01,-3.13 -1.60,-3.16 0.68,0.01 -1.32,0.32 -1.70,0.89 l -8.12,11.82 C 110.03,41.65 103.09,39.97 95.80,40 88.65,40.03 81.85,41.71 75.77,44.69 L 67.65,32.87 c 0.38,0.57 -1.02,0.90 -1.70,0.89 z M 80,60 c -3.31,0 -6,2.69 -6,6 0,3.31 2.69,6 6,6 3.31,0 6,-2.69 6,-6 0,-3.31 -2.69,-6 -6,-6 z m 32,0 c -3.31,0 -6,2.69 -6,6 0,3.31 2.69,6 6,6 3.31,0 6,-2.69 6,-6 0,-3.31 -2.69,-6 -6,-6 z M 42,86 V 96 H 150 V 86 Z m 0,18 v 10 H 82.37 C 82.13,113.03 82.00,112.03 82,111.01 V 111 c 0,-2.54 0.71,-4.93 1.93,-7 z m 54,0 c -3.87,0 -7,3.13 -7,7 0.00,2.53 1.36,4.85 3.56,6.09 L 89,132 h 14 L 98.87,117.38 C 101.38,116.25 103.00,113.75 103,111 c 0,-3.87 -3.13,-7 -7,-7 z m 12.07,0 c 1.22,2.07 1.93,4.46 1.93,7 v 0.01 c 0.00,1.03 0.14,2.02 0.37,2.99 H 150 V 104 Z M 42,122 v 10 h 40.01 c 0.00,0.55 0.06,-1.09 0.18,-1.63 L 84.19,122 Z m 65.45,0 2.29,8.10 c 0.17,0.62 0.26,1.26 0.26,1.90 H 150 V 122 Z M 42,140 v 10 h 108 v -10 z"/></svg>