<?xml version='1.0' encoding='utf-8'?>
<svg xmlns="http://www.w3.org/2000/svg" width="192" height="192" version="1" id="svg28">
  <defs>
    <filter style="color-interpolation-filters:sRGB" id="filter25288" x="0.08" y="0.07" width="1.17" height="1.14">
      <feGaussianBlur stdDeviation="2.64"/>
    </filter>
    <filter style="color-interpolation-filters:sRGB" id="filter25372" x="0.30" y="0.04" width="1.59" height="1.09">
      <feGaussianBlur stdDeviation="1.36"/>
    </filter>
    <filter style="color-interpolation-filters:sRGB" id="filter25376" x="0.22" y="0.05" width="1.44" height="1.09">
      <feGaussianBlur stdDeviation="1.02"/>
    </filter>
    <filter style="color-interpolation-filters:sRGB" id="filter25380" x="0.11" y="0.11" width="1.22" height="1.22">
      <feGaussianBlur stdDeviation="1.49"/>
    </filter>
    <filter style="color-interpolation-filters:sRGB" id="filter25422" x="0.04" y="0.05" width="1.09" height="1.10">
      <feGaussianBlur stdDeviation="2.98"/>
    </filter>
  </defs>
  <rect transform="matrix(0,-1,-1,0,0,0)" ry="10" rx="10" y="-165" x="-180" height="138" width="160" style="filter:url(#filter25422);opacity:0.20;fill:#000000"/>
  <rect transform="matrix(0,-1,-1,0,0,0)" ry="10" rx="10" y="-165" x="-176" height="138" width="160" style="fill:#3f3f3f"/>
  <path style="filter:url(#filter25288);opacity:0.20;fill:#000000" d="m 58,49 v 93 H 69 V 49 Z m 65,22 v 71 h 11 V 71 Z"/>
  <rect style="fill:#00ff99" width="11" height="98" x="58" y="47"/>
  <rect style="fill:#a953ff" width="11" height="76" x="123" y="69"/>
  <rect style="filter:url(#filter25376);opacity:0.20;fill:#000000" width="11" height="54" x="-60" y="58" transform="rotate(-90)"/>
  <rect style="fill:#fff140" width="11" height="54" x="-58" y="58" transform="rotate(-90)"/>
  <path style="filter:url(#filter25380);opacity:0.20;fill:#000000" d="m 101,49 v 11 11 11 h 11 22 V 71 H 123 V 60 H 112 V 49 Z"/>
  <path style="fill:#ff6060" d="M 101 47 L 101 58 L 101 69 L 101 80 L 112 80 L 134 80 L 134 69 L 123 69 L 123 58 L 112 58 L 112 47 L 101 47 z "/>
  <rect style="filter:url(#filter25372);opacity:0.20;fill:#000000" width="11" height="76" x="-147" y="58" transform="rotate(-90)"/>
  <rect style="fill:#00abfd" width="11" height="76" x="-145" y="58" transform="rotate(-90)"/>
  <path style="opacity:0.10;fill:#ffffff" d="M 37 16 C 31.46 16 27 20.46 27 26 L 27 27 C 27 21.46 31.46 17 37 17 L 155 17 C 160.54 17 165 21.46 165 27 L 165 26 C 165 20.46 160.54 16 155 16 L 37 16 z "/>
</svg>
