<svg xmlns="http://www.w3.org/2000/svg" id="svg20" width="192" height="192" version="1.1"><defs><filter style="color-interpolation-filters:sRGB" id="filter879" width="1.1" height="1.09" x=".05" y=".05"><feGaussianBlur stdDeviation="3.12"/></filter><filter style="color-interpolation-filters:sRGB" id="filter899" width="1.1" height="1.1" x=".05" y=".05"><feGaussianBlur stdDeviation="1.6"/></filter><filter style="color-interpolation-filters:sRGB" id="filter927" width="1.1" height="1.1" x=".05" y=".05"><feGaussianBlur stdDeviation="1.2"/></filter></defs><path d="m 96,19.00 a 75,75 0 0 0 -75,75 75,75 0 0 0 58.61,73.12 l 12.09,12.09 c 2.38,2.38 6.22,2.38 8.61,0 l 12.13,-12.13 A 75,75 0 0 0 171,94.00 a 75,75 0 0 0 -75,-75 z" style="filter:url(#filter879);opacity:.2;fill:#000"/><path style="fill:orange" d="m 96,15.00 a 75,75 0 0 0 -75,75 75,75 0 0 0 58.61,73.12 l 12.09,12.09 c 2.38,2.38 6.22,2.38 8.61,0 l 12.13,-12.13 A 75,75 0 0 0 171,90.00 a 75,75 0 0 0 -75,-75 z"/><path style="opacity:.2;fill:#fff" d="M 96,15 A 75,75 0 0 0 21,90 75,75 0 0 0 21.02,90.41 75,75 0 0 1 96,16 75,75 0 0 1 170.98,90.66 75,75 0 0 0 171,90 75,75 0 0 0 96,15 Z"/><circle style="filter:url(#filter927);opacity:.2;fill:#000" cx="156" cy="42" r="30"/><circle cx="96" cy="92" r="40" style="filter:url(#filter899);opacity:.2;fill:#000"/><circle style="fill:#fff" cx="96" cy="90" r="40"/><circle cx="156" cy="40" r="30" style="fill:#1581f1"/><rect style="fill:#fff" width="12" height="36" x="150" y="22" rx="5" ry="5.48"/><rect width="12" height="36" x="34" y="-174" rx="5" ry="5.48" transform="rotate(90)" style="fill:#fff"/></svg>