<?xml version='1.0' encoding='utf-8'?>
<svg xmlns="http://www.w3.org/2000/svg" width="192" height="192" version="1" id="svg14">
  <defs>
    <filter style="color-interpolation-filters:sRGB" id="filter848" x="0.05" width="1.10" y="0.05" height="1.10">
      <feGaussianBlur stdDeviation="3.20"/>
    </filter>
    <filter style="color-interpolation-filters:sRGB" id="filter868" x="0.04" width="1.09" y="0.05" height="1.11">
      <feGaussianBlur stdDeviation="1.76"/>
    </filter>
  </defs>
  <circle r="80" cy="100" cx="96" style="filter:url(#filter848);opacity:0.20"/>
  <circle style="fill:#4d6074" r="80" cy="96" cx="96"/>
  <path style="opacity:0.10;fill:#ffffff" d="m 96,16 c -44.32,0 -79.99,35.68 -79.99,80 0,0.34 0.00,0.67 0,1 C 16.01,52.68 51.68,17 96,17 c 44.32,0 79.99,35.68 79.99,80 0.00,0.33 0,0.66 0,-1 C 175.99,51.68 140.32,16 96,16 Z"/>
  <path d="m 124.32,136.52 c 1.52,-2.95 10.26,-53.41 11.52,-66.45 1.35,-12.93 -5.70,-10.52 -12.19,-8.34 -15.92,5.38 -66.25,27.16 -80.02,34.35 -3.39,1.41 -4.86,3.79 -2.39,5.86 2.12,1.75 9.90,4.16 16.17,5.38 5.35,1.62 9.50,0.07 13.33,-2.10 9.21,-5.46 36.65,-22.83 38.13,-23.80 1.48,0.97 3.09,0.83 2.27,1.70 0.83,0.87 -20.26,18.30 -26.65,26.18 -3.38,4.33 -3.28,6.65 0.20,9.38 7.79,6.11 28.61,20.04 31.70,20.88 3.95,1.07 6.26,0.18 7.93,-3.05 z" style="filter:url(#filter868);opacity:0.20"/>
  <path d="m 124.32,132.52 c 1.52,-2.95 10.26,-53.41 11.52,-66.45 1.35,-12.93 -5.70,-10.52 -12.19,-8.34 -15.92,5.38 -66.25,27.16 -80.02,34.35 -3.39,1.41 -4.86,3.79 -2.39,5.86 2.12,1.75 9.90,4.16 16.17,5.38 5.35,1.62 9.50,0.07 13.33,-2.10 9.21,-5.46 36.65,-22.83 38.13,-23.80 1.48,0.97 3.09,0.83 2.27,1.70 0.83,0.87 -20.26,18.30 -26.65,26.18 -3.38,4.33 -3.28,6.65 0.20,9.38 7.79,6.11 28.61,20.04 31.70,20.88 3.95,1.07 6.26,0.18 7.93,-3.05 z" style="fill:#ffffff"/>
</svg>
