<?xml version='1.0' encoding='utf-8'?>
<svg xmlns="http://www.w3.org/2000/svg" width="192" height="192" version="1" id="svg14">
  <defs>
    <filter style="color-interpolation-filters:sRGB" id="filter850" x="0.05" width="1.10" y="0.05" height="1.10">
      <feGaussianBlur stdDeviation="3.20"/>
    </filter>
    <filter style="color-interpolation-filters:sRGB" id="filter866" x="0.05" width="1.10" y="0.05" height="1.09">
      <feGaussianBlur stdDeviation="3.04"/>
    </filter>
  </defs>
  <rect style="filter:url(#filter850);opacity:0.20;fill:#000000" width="160" height="160" x="-180" y="-176" rx="8" ry="8" transform="matrix(0,-1,-1,0,0,0)"/>
  <path transform="matrix(0,-1,-1,0,0,0)" style="fill:#fd8320" d="m -168,-170.76 142.25,0.35 C -21.32,-170.39 -16,-172.43 -16,-168 v 144 c 0,4.43 -3.57,8 -8,8 h -144 c -4.43,0 -8,-3.57 -8,-8 v -122.85 l 2.45,-15.90 c 0.67,-4.38 1.12,-8.01 5.55,-8 z"/>
  <path style="opacity:0.20;fill:#ffffff" d="M 24 16 C 19.57 16 16 19.57 16 24 L 16 25 C 16 20.57 19.57 17 24 17 L 168 17 C 172.43 17 176 20.57 176 25 L 176 24 C 176 19.57 172.43 16 168 16 L 24 16 z "/>
  <path d="m 168.64,20.06 c -3.91,0.06 -7.71,0.19 -10.50,0.49 C 146.93,21.79 135.38,24.21 126.25,27.25 l -4.27,1.42 -3.50,-1.06 c -5.09,-1.55 -6.33,-3.48 -11.38,-3.30 -5.09,0.18 -6.97,0.73 -6.97,2.02 0,1.22 3.31,7.71 3.93,7.71 0.44,0 0.49,0.29 0.30,-1.77 0.12,0.98 0.30,-3.24 0.39,-3.57 0.26,0.92 0.84,0.74 3.47,0.57 4.03,2.02 5.67,8.40 6.86,12.98 0.58,2.23 0.70,4.54 0.20,4.03 0.17,0.18 -1.17,-2.42 -2.20,-4.50 -3.41,-6.83 -4.39,-7.02 -13.14,-2.54 -23.49,12.04 -39.66,25.92 -43.78,36.91 -1.43,3.80 -1.07,8.07 0.86,10.27 0.72,0.82 0.34,1.47 -1.32,2.32 -7.04,3.59 -21.38,13.88 -22.43,16.09 -1.12,2.36 0.65,3.21 5.16,9.59 1.26,1.39 2.36,2.54 3.30,3.50 C 43.59,109.63 51.29,104.00 60,104 c 11.05,0 20,8.95 20,20 0.00,9.74 -7.01,18.06 -16.60,19.71 1.48,1.57 3.46,3.70 4.90,5.27 1.65,1.81 3.13,3.30 3.29,3.30 0.15,0 0.80,-1.03 1.44,-2.28 5.61,-11.06 16.84,-19.15 30.67,-22.08 12.40,-2.78 20.19,-9.96 23.44,-21.13 1.03,-3.59 1.11,-10.91 0.16,-14.52 -1.28,-4.02 -3.15,-8.58 -4.52,-12.28 0.43,0.33 2.32,1.08 4.05,3.49 4.30,6.04 5.66,15.07 5.66,22.14 v 2.62 l 4.73,0.23 c 16.62,1.26 28.19,10.20 30.42,24.02 0.49,3.03 0.26,9.21 0.48,13.02 -2.22,11.34 -9.40,22.20 -19.98,31.36 L 143.55,180 l 19.19,0.02 c 2.28,0.00 3.87,0.03 5.93,0.05 C 172.78,179.59 176,176.20 176,172 V 28 c 0,-4.21 -3.23,-7.61 -7.36,-7.94 z M 87.97,68.01 c 0.28,0.26 -1.58,3.12 -6.30,9.62 -2.51,3.46 -4.81,6.32 -5.10,6.36 0.30,0.04 0.94,0.22 -1.43,0.59 0.49,0.37 -1.49,0.96 -2.22,-1.31 -1.31,0.64 -1.33,0.64 -3,0.04 0.92,0.38 -1.77,0.57 -1.91,0.45 0.32,0.30 4.24,-4.22 8.74,-7.54 3.84,-2.83 10.94,-7.28 11.21,-7.03 z" style="filter:url(#filter866);opacity:0.20;fill:#000000"/>
  <path d="m 168.64,16.06 c -3.91,0.06 -7.71,0.19 -10.50,0.49 C 146.93,17.79 135.38,20.21 126.25,23.25 l -4.27,1.42 -3.50,-1.06 c -5.09,-1.55 -6.33,-3.48 -11.38,-3.30 -5.09,0.18 -6.97,0.73 -6.97,2.02 0,1.22 3.31,7.71 3.93,7.71 0.44,0 0.49,0.29 0.30,-1.77 0.12,0.98 0.30,-3.24 0.39,-3.57 0.26,0.92 0.84,0.74 3.47,0.57 4.03,2.02 5.67,8.40 6.86,12.98 0.58,2.23 0.70,4.54 0.20,4.03 0.17,0.18 -1.17,-2.42 -2.20,-4.50 -3.41,-6.83 -4.39,-7.02 -13.14,-2.54 -23.49,12.04 -39.66,25.92 -43.78,36.91 -1.43,3.80 -1.07,8.07 0.86,10.27 0.72,0.82 0.34,1.47 -1.32,2.32 -7.04,3.59 -21.38,13.88 -22.43,16.09 -1.12,2.36 0.65,3.21 5.16,9.59 1.26,1.39 2.36,2.54 3.30,3.50 C 43.59,105.63 51.29,100.00 60,100 c 11.05,0 20,8.95 20,20 0.00,9.74 -7.01,18.06 -16.60,19.71 1.48,1.57 3.46,3.70 4.90,5.27 1.65,1.81 3.13,3.30 3.29,3.30 0.15,0 0.80,-1.03 1.44,-2.28 5.61,-11.06 16.84,-19.15 30.67,-22.08 12.40,-2.78 20.19,-9.96 23.44,-21.13 1.03,-3.59 1.11,-10.91 0.16,-14.52 -1.28,-4.02 -3.15,-8.58 -4.52,-12.28 0.43,0.33 2.32,1.08 4.05,3.49 4.30,6.04 5.66,15.07 5.66,22.14 v 2.62 l 4.73,0.23 c 16.62,1.26 28.19,10.20 30.42,24.02 0.49,3.03 0.26,9.21 0.48,13.02 -2.22,11.34 -9.40,22.20 -19.98,31.36 L 143.55,176 l 19.19,0.02 c 2.28,0.00 3.87,0.03 5.93,0.05 C 172.78,175.59 176,172.20 176,168 V 24 c 0,-4.21 -3.23,-7.61 -7.36,-7.94 z M 87.97,64.01 c 0.28,0.26 -1.58,3.12 -6.30,9.62 -2.51,3.46 -4.81,6.32 -5.10,6.36 0.30,0.04 0.94,0.22 -1.43,0.59 0.49,0.37 -1.49,0.96 -2.22,-1.31 -1.31,0.64 -1.33,0.64 -3,0.04 0.92,0.38 -1.77,0.57 -1.91,0.45 0.32,0.30 4.24,-4.22 8.74,-7.54 3.84,-2.83 10.94,-7.28 11.21,-7.03 z" style="fill:#fedfc1"/>
</svg>
