<?xml version='1.0' encoding='utf-8'?>
<svg xmlns="http://www.w3.org/2000/svg" width="192" height="192" version="1" id="svg16">
  <defs>
    <filter style="color-interpolation-filters:sRGB" id="filter867" x="0.05" width="1.10" y="0.05" height="1.10">
      <feGaussianBlur stdDeviation="3.20"/>
    </filter>
    <filter style="color-interpolation-filters:sRGB" id="filter1476" x="0.09" y="0.06" width="1.18" height="1.13">
      <feGaussianBlur stdDeviation="2.61"/>
    </filter>
  </defs>
  <rect ry="80" rx="80" height="160" width="160" y="-176" x="-180" transform="matrix(0,-1,-1,0,0,0)" style="filter:url(#filter867);opacity:0.20;fill:#000000"/>
  <rect style="fill:#e4e4e4" transform="matrix(0,-1,-1,0,0,0)" x="-176" y="-176" width="160" height="160" rx="80" ry="80"/>
  <path style="opacity:0.20;fill:#ffffff" d="M 96 16 C 51.68 16 16 51.68 16 96 C 16 96.34 16.00 96.67 16 97 C 16 52.68 51.68 17 96 17 C 140.32 17 176 52.68 176 97 C 176.00 96.67 176 96.34 176 96 C 176 51.68 140.32 16 96 16 z "/>
  <path style="filter:url(#filter1476);opacity:0.20;fill:#000000" d="m 89.86,146.68 c -6.50,-1.23 -12.22,-4.29 -17.15,-9.19 -5.04,-4.99 -8.49,-11.37 -9.95,-18.39 0.66,-3.15 0.94,-7.80 0.64,-10.46 1.12,-9.88 8.20,-24.80 20.85,-43.97 3.28,-4.96 9.86,-14.37 11.23,-16.04 L 94.71,48 l 0.16,3.22 c 0.32,6.53 2.40,13.70 6.28,21.61 3.31,6.75 5.95,10.02 14.16,17.52 7.71,7.04 10.20,9.87 12.28,13.97 2.66,5.24 3.15,12.62 1.29,19.08 -3.16,10.97 -12.91,19.77 -25.38,22.93 -2.78,0.70 -10.71,0.91 -13.64,0.35 z"/>
  <path style="fill:#ec323e" d="m 89.86,144.68 c -6.50,-1.23 -12.22,-4.29 -17.15,-9.19 -5.04,-4.99 -8.49,-11.37 -9.95,-18.39 0.66,-3.15 0.94,-7.80 0.64,-10.46 1.12,-9.88 8.20,-24.80 20.85,-43.97 3.28,-4.96 9.86,-14.37 11.23,-16.04 L 94.71,46 l 0.16,3.22 c 0.32,6.53 2.40,13.70 6.28,21.61 3.31,6.75 5.95,10.02 14.16,17.52 7.71,7.04 10.20,9.87 12.28,13.97 2.66,5.24 3.15,12.62 1.29,19.08 -3.16,10.97 -12.91,19.77 -25.38,22.93 -2.78,0.70 -10.71,0.91 -13.64,0.35 z"/>
</svg>
