<?xml version='1.0' encoding='utf-8'?>
<svg xmlns="http://www.w3.org/2000/svg" width="192" height="192" version="1" id="svg28">
  <defs>
    <filter style="color-interpolation-filters:sRGB" id="filter6495" x="0.05" y="0.05" width="1.10" height="1.10">
      <feGaussianBlur stdDeviation="3.20"/>
    </filter>
    <filter style="color-interpolation-filters:sRGB" id="filter1390" x="0.05" y="0.19" width="1.09" height="1.38">
      <feGaussianBlur stdDeviation="2.52"/>
    </filter>
  </defs>
  <rect transform="matrix(0,-1,-1,0,0,0)" ry="12" rx="12" y="-176" x="-180" height="160" width="160" style="filter:url(#filter6495);opacity:0.20;fill:#000000"/>
  <rect transform="matrix(0,-1,-1,0,0,0)" ry="12" rx="12" y="-176" x="-176" height="160" width="160" style="fill:#e4e4e4"/>
  <path style="filter:url(#filter1390);opacity:0.20;fill:#000000" d="m 31,82 v 31 H 42 V 91 h 13 v 22 H 66 V 82 Z m 55.61,0 C 80.24,82 70,82.79 70,82.79 l 1.57,8.05 c 0,0 7.95,0.92 12.10,0.85 4.08,0 8.88,0.92 8.88,0.92 0,0 0.29,1.07 0.43,3.08 H 79 v 8 h 13.91 c 0.14,1.73 0.43,3.15 0.43,3.15 0.00,0 -2.29,0.85 -8.16,0.85 -5.87,0 -12.74,0.85 -12.74,0.85 L 70,113.21 c 0,0 9.81,0.79 16.54,0.79 6.73,0 14.03,0.79 14.03,0.79 0,0 2.43,-6.83 2.43,-15.53 0,-8.70 -2.36,-14.88 -2.36,-14.88 0,0 -7.66,0.79 -14.03,0.79 z M 107,82 v 31 h 11 v -12 h 3.77 l 8.82,12 H 144 L 130.88,96.51 143.21,82 h -12.55 l -8.75,11 H 118 V 82 Z m 47.93,0 C 152.25,82 150,82.28 150,82.28 V 91 h 10 V 82.28 C 160,82.28 157.68,82 154.93,82 Z M 150,104 v 8.72 c 0,0 2.82,0.28 5.07,0.28 C 157.32,113 160,112.66 160,112.66 V 104 Z"/>
  <path style="opacity:0.20;fill:#ffffff" d="m 28,16 c -6.65,0 -12,5.35 -12,12 v 1 c 0,-6.65 5.35,-12 12,-12 h 136 c 6.65,0 12,5.35 12,12 v -1 c 0,-6.65 -5.35,-12 -12,-12 z"/>
  <path fill-rule="evenodd" clip-rule="evenodd" d="M 160,80.28 C 160,80.28 157.68,80 154.93,80 152.25,80 150,80.28 150,80.28 V 89 h 10 z" fill="#e4003e"/>
  <path fill-rule="evenodd" clip-rule="evenodd" d="m 160,102 h -10 v 8.73 c 0,0 2.82,0.27 5.07,0.27 2.25,0 4.93,0.34 4.93,0.34 z" fill="#e4003e"/>
  <path fill-rule="evenodd" clip-rule="evenodd" d="m 143.21,80 h -12.55 l -8.75,11 H 118 V 80 h -11 v 31 h 11 V 99 h 3.77 l 8.82,12 H 144 L 130.88,94.51 Z" fill="#242265"/>
  <path fill-rule="evenodd" clip-rule="evenodd" d="M 66,80 H 31 v 31 H 42 V 89 h 13 v 22 h 11 z" fill="#242265"/>
  <path fill-rule="evenodd" clip-rule="evenodd" d="M 71.57,88.84 70,80.79 C 70,80.79 80.24,80 86.61,80 c 6.37,0 14.03,0.79 14.03,0.79 0,0 2.36,6.18 2.36,14.89 0,8.70 -2.43,15.53 -2.43,15.53 0,0 -7.30,0.79 -14.03,0.79 C 79.81,112 70,111.21 70,111.21 l 1.57,-8.05 c 0,0 6.87,0.84 12.74,0.84 5.87,0 8.16,0.84 8.16,0.84 0,0 0.29,-1.43 0.43,-3.16 H 79 V 92 H 92.98 C 92.84,89.99 92.55,88.92 92.55,88.92 92.55,88.92 87.75,88 83.67,88 79.52,87.93 71.57,88.84 71.57,88.84 Z" fill="#242265"/>
</svg>
