<svg xmlns="http://www.w3.org/2000/svg" id="svg22" width="192" height="192" version="1"><defs><filter style="color-interpolation-filters:sRGB" id="filter875" width="1.1" height="1.1" x=".05" y=".05"><feGaussianBlur stdDeviation="3.2"/></filter><filter style="color-interpolation-filters:sRGB" id="filter3532" width="1.18" height="1.13" x=".09" y=".06"><feGaussianBlur stdDeviation="2.33"/></filter><filter style="color-interpolation-filters:sRGB" id="filter3536" width="1.22" height="1.22" x=".11" y=".11"><feGaussianBlur stdDeviation="2.7"/></filter><filter style="color-interpolation-filters:sRGB" id="filter3540" width="1.22" height="1.22" x=".11" y=".11"><feGaussianBlur stdDeviation="1.62"/></filter></defs><rect width="160" height="160" x="16" y="20" rx="8" ry="8" style="filter:url(#filter875);opacity:.2;fill:#000"/><rect style="fill:#178be8" width="160" height="160" x="16" y="16" rx="8" ry="8"/><path style="opacity:.2;fill:#fff" d="m 24,16 c -4.43,0 -8,3.57 -8,8 v 1 c 0,-4.43 3.57,-8 8,-8 h 144 c 4.43,0 8,3.57 8,8 v -1 c 0,-4.43 -3.57,-8 -8,-8 z"/><circle style="filter:url(#filter3536);opacity:.2;fill:#000" cx="96" cy="73" r="30"/><circle style="fill:#2ba7f3" cx="96" cy="71" r="30"/><circle style="filter:url(#filter3540);opacity:.2;fill:#000" cx="96" cy="72" r="18"/><circle style="fill:#40c3ff" cx="96" cy="71" r="18"/><path style="filter:url(#filter3532);opacity:.2;fill:#000" d="m 96,65 c -4.42,0 -8,3.58 -8,8 0.01,3.08 1.78,5.85 4.50,7.17 0,0 0.91,0.30 0.79,1.17 L 91.69,92.36 C 91.60,93.75 90.20,94 90.20,94 H 79 c -7.76,0 -14,5.35 -14,12 v 34 c 0,6.65 6.24,12 14,12 h 34 c 7.76,0 14,-5.35 14,-12 v -34 c 0,-6.65 -6.24,-12 -14,-12 h -11.24 c 0,0 -1.30,0.27 -1.49,-1.62 L 98.71,81.30 C 98.44,80.44 99.56,80.14 99.56,80.14 102.25,78.81 103.99,76.06 104,73 c 0,-4.42 -3.58,-8 -8,-8 z m -12.50,42 a 6.50,6.50 0 0 1 6.50,6.50 6.50,6.50 0 0 1 -6.50,6.50 6.50,6.50 0 0 1 -6.50,-6.50 6.50,6.50 0 0 1 6.50,-6.50 z m 25,0 a 6.50,6.50 0 0 1 6.50,6.50 6.50,6.50 0 0 1 -6.50,6.50 6.50,6.50 0 0 1 -6.50,-6.50 6.50,6.50 0 0 1 6.50,-6.50 z M 79,131 h 34 a 3,3 0 0 1 3,3 3,3 0 0 1 -3,3 H 79 a 3,3 0 0 1 -3,-3 3,3 0 0 1 3,-3 z"/><path style="fill:#fff" d="M 96 63 C 91.58 63 88 66.58 88 71 C 88.01 74.08 89.78 76.85 92.50 78.17 C 92.50 78.17 93.41 78.48 93.29 79.34 L 91.69 90.36 C 91.60 91.75 90.20 92 90.20 92 L 79 92 C 71.24 92 65 97.35 65 104 L 65 138 C 65 144.65 71.24 150 79 150 L 113 150 C 120.76 150 127 144.65 127 138 L 127 104 C 127 97.35 120.76 92 113 92 L 101.76 92 C 101.76 92 100.46 91.73 100.27 90.38 L 98.71 79.30 C 98.44 78.44 99.56 78.14 99.56 78.14 C 102.25 76.81 103.99 74.06 104 71 C 104 66.58 100.42 63 96 63 z M 83.50 105 A 6.50 6.50 0 0 1 90 111.50 A 6.50 6.50 0 0 1 83.50 118 A 6.50 6.50 0 0 1 77 111.50 A 6.50 6.50 0 0 1 83.50 105 z M 108.50 105 A 6.50 6.50 0 0 1 115 111.50 A 6.50 6.50 0 0 1 108.50 118 A 6.50 6.50 0 0 1 102 111.50 A 6.50 6.50 0 0 1 108.50 105 z M 79 129 L 113 129 A 3 3 0 0 1 116 132 A 3 3 0 0 1 113 135 L 79 135 A 3 3 0 0 1 76 132 A 3 3 0 0 1 79 129 z"/><path style="opacity:.2;fill:#fff" d="M 96 41 A 30 30 0 0 0 66 71 A 30 30 0 0 0 66.04 71.50 A 30 30 0 0 1 96 42 A 30 30 0 0 1 125.98 71.26 A 30 30 0 0 0 126 71 A 30 30 0 0 0 96 41 z"/><path style="opacity:.2;fill:#fff" d="M 96 53 A 18 18 0 0 0 78 71 A 18 18 0 0 0 78.04 71.50 A 18 18 0 0 1 96 54 A 18 18 0 0 1 113.98 71.25 A 18 18 0 0 0 114 71 A 18 18 0 0 0 96 53 z"/></svg>