<?xml version='1.0' encoding='utf-8'?>
<svg xmlns="http://www.w3.org/2000/svg" width="192" height="192" version="1" id="svg12">
  <defs>
    <filter style="color-interpolation-filters:sRGB" id="filter955" x="0.05" width="1.10" y="0.05" height="1.10">
      <feGaussianBlur stdDeviation="3.20"/>
    </filter>
    <filter style="color-interpolation-filters:sRGB" id="filter11660" x="0.06" y="0.09" width="1.13" height="1.18">
      <feGaussianBlur stdDeviation="2.67"/>
    </filter>
  </defs>
  <rect style="filter:url(#filter955);opacity:0.20;fill:#000000" width="160" height="160" x="16" y="20" rx="30" ry="30"/>
  <rect style="fill:#ffb523" width="160" height="160" x="16" y="16" rx="30" ry="30"/>
  <path style="filter:url(#filter11660);opacity:0.20;fill:#000000" d="m 70,63 c -13.25,0 -24,10.75 -24,24 0.03,11.19 7.78,20.87 18.70,23.35 L 50.36,133 h 18.94 l 18.75,-29.61 c 1.55,-2.43 3.07,-4.92 4.13,-7.33 C 93.36,93.19 93.98,90.12 94,87 94,73.75 83.25,63 70,63 Z m 53,0 c -13.25,0 -24,10.75 -24,24 0.03,11.19 7.78,20.87 18.70,23.35 L 103.36,133 h 18.94 l 18.75,-29.61 c 1.55,-2.43 3.07,-4.92 4.13,-7.33 C 146.36,93.19 146.98,90.12 147,87 147,73.75 136.25,63 123,63 Z M 70,78 c 4.97,0 9,4.03 9,9 0,4.97 -4.03,9 -9,9 -4.97,0 -9,-4.03 -9,-9 0,-4.97 4.03,-9 9,-9 z m 53,0 c 4.97,0 9,4.03 9,9 0,4.97 -4.03,9 -9,9 -4.97,0 -9,-4.03 -9,-9 0,-4.97 4.03,-9 9,-9 z"/>
  <path style="opacity:0.20;fill:#ffffff" d="M 46 16 C 29.38 16 16 29.38 16 46 L 16 47 C 16 30.38 29.38 17 46 17 L 146 17 C 162.62 17 176 30.38 176 47 L 176 46 C 176 29.38 162.62 16 146 16 L 46 16 z "/>
  <path style="fill:#3f3f3f" d="m 70,61 c -13.25,0 -24,10.75 -24,24 0.03,11.19 7.78,20.87 18.70,23.35 L 50.36,131 h 18.94 l 18.75,-29.61 c 1.55,-2.43 3.07,-4.91 4.13,-7.33 C 93.36,91.19 93.98,88.12 94,85 94,71.75 83.25,61 70,61 Z m 0,15 c 4.97,0 9,4.03 9,9 0,4.97 -4.03,9 -9,9 -4.97,0 -9,-4.03 -9,-9 0,-4.97 4.03,-9 9,-9 z"/>
  <path style="fill:#3f3f3f" d="m 123,61 c -13.25,0 -24,10.75 -24,24 0.03,11.19 7.78,20.87 18.70,23.35 L 103.36,131 h 18.94 l 18.75,-29.61 c 1.55,-2.43 3.07,-4.91 4.13,-7.33 C 146.36,91.19 146.98,88.12 147,85 147,71.75 136.25,61 123,61 Z m 0,15 c 4.97,0 9,4.03 9,9 0,4.97 -4.03,9 -9,9 -4.97,0 -9,-4.03 -9,-9 0,-4.97 4.03,-9 9,-9 z"/>
</svg>
