<?xml version='1.0' encoding='utf-8'?>
<svg xmlns="http://www.w3.org/2000/svg" width="192" height="192" version="1" id="svg12">
  <defs>
    <filter style="color-interpolation-filters:sRGB" id="filter858" x="0.05" width="1.10" y="0.05" height="1.10">
      <feGaussianBlur stdDeviation="3.20"/>
    </filter>
    <filter style="color-interpolation-filters:sRGB" id="filter886" x="0.05" width="1.10" y="0.05" height="1.10">
      <feGaussianBlur stdDeviation="2.40"/>
    </filter>
  </defs>
  <rect ry="80" rx="80" y="20" x="16" height="160" width="160" style="filter:url(#filter858);opacity:0.20;fill:#000000"/>
  <rect style="fill:#1d81e8" width="160" height="160" x="16" y="16" rx="80" ry="80"/>
  <path style="opacity:0.20;fill:#ffffff" d="M 96.00 16 C 51.68 16.00 16 51.68 16 96 C 16 96.12 16.01 96.23 16.01 96.34 C 16.36 52.33 51.90 17.00 96.00 17 L 96 17 C 140.11 17.00 175.65 52.34 175.99 96.36 C 175.99 96.24 176.00 96.12 176.00 96 C 176.00 51.68 140.32 16.00 96 16 L 96.00 16 z "/>
  <path style="filter:url(#filter886);opacity:0.20" d="M 96,38 A 60,60 0 0 0 36,98 60,60 0 0 0 96,158 60,60 0 0 0 156,98 60,60 0 0 0 96,38 Z M 70.23,78 a 20.14,15.82 78.96 0 1 17.01,15.64 20.14,15.82 78.96 0 1 -10.34,23.88 20.14,15.82 78.96 0 1 -20.13,-15.16 20.14,15.82 78.96 0 1 10.34,-23.88 20.14,15.82 78.96 0 1 3.12,0.48 z m 51.55,0 a 15.82,20.14 11.04 0 1 3.12,0.48 15.82,20.14 11.04 0 1 10.34,23.88 15.82,20.14 11.04 0 1 -20.13,15.16 15.82,20.14 11.04 0 1 -10.34,-23.88 15.82,20.14 11.04 0 1 17.00,-15.64 z"/>
  <path style="fill:#ffc05b" d="M 96,36 A 60,60 0 0 0 36,96 60,60 0 0 0 96,156 60,60 0 0 0 156,96 60,60 0 0 0 96,36 Z M 70.23,76 a 20.14,15.82 78.96 0 1 17.01,15.64 20.14,15.82 78.96 0 1 -10.34,23.88 20.14,15.82 78.96 0 1 -20.13,-15.16 20.14,15.82 78.96 0 1 10.34,-23.88 20.14,15.82 78.96 0 1 3.12,0.48 z m 51.55,0 a 15.82,20.14 11.04 0 1 3.12,0.48 15.82,20.14 11.04 0 1 10.34,23.88 15.82,20.14 11.04 0 1 -20.13,15.16 15.82,20.14 11.04 0 1 -10.34,-23.88 15.82,20.14 11.04 0 1 17.00,-15.64 z"/>
  <path style="opacity:0.20;fill:#ffffff" d="M 96 36 A 60 60 0 0 0 36 96 A 60 60 0 0 0 36.02 96.42 A 60 60 0 0 1 96 37 A 60 60 0 0 1 155.98 96.58 A 60 60 0 0 0 156 96 A 60 60 0 0 0 96 36 z M 56.02 94.79 A 20.14 15.82 78.96 0 0 56.77 101.36 A 20.14 15.82 78.96 0 0 76.90 116.52 A 20.14 15.82 78.96 0 0 87.98 98.21 A 20.14 15.82 78.96 0 1 76.90 115.52 A 20.14 15.82 78.96 0 1 56.77 100.36 A 20.14 15.82 78.96 0 1 56.02 94.79 z M 135.98 95.08 A 15.82 20.14 11.04 0 1 135.24 100.36 A 15.82 20.14 11.04 0 1 115.10 115.52 A 15.82 20.14 11.04 0 1 104.02 97.92 A 15.82 20.14 11.04 0 0 115.10 116.52 A 15.82 20.14 11.04 0 0 135.24 101.36 A 15.82 20.14 11.04 0 0 135.98 95.08 z "/>
</svg>
