<?xml version='1.0' encoding='utf-8'?>
<svg xmlns="http://www.w3.org/2000/svg" width="192" height="192" version="1" id="svg22">
  <defs>
    <filter style="color-interpolation-filters:sRGB" id="filter860" x="0.05" width="1.10" y="0.05" height="1.09">
      <feGaussianBlur stdDeviation="3.12"/>
    </filter>
    <filter style="color-interpolation-filters:sRGB" id="filter876" x="0.04" width="1.08" y="0.06" height="1.12">
      <feGaussianBlur stdDeviation="1.36"/>
    </filter>
    <filter style="color-interpolation-filters:sRGB" id="filter892" x="0.05" width="1.10" y="0.05" height="1.10">
      <feGaussianBlur stdDeviation="2.23"/>
    </filter>
  </defs>
  <path d="M 96,20 C 54.26,20 20,54.26 20,96 v 36 c 0,11.89 5.36,23.19 12.57,29.56 1.29,1.14 2.53,1.52 3.83,2.40 A 20.00,20.00 0 0 0 56,180 h 20 a 20.00,20.00 0 0 0 20,-20 20.00,20.00 0 0 0 20,20 h 20 a 20.00,20.00 0 0 0 19.58,-16.02 c 1.30,0.89 2.56,-1.27 3.86,-2.42 C 166.64,155.18 172,143.89 172,132 V 96 C 172,54.26 137.74,20 96,20 Z m 0,56 c 6.92,0 12.50,3.37 16.05,8.39 A 20.00,20.00 0 0 0 96,104 20.00,20.00 0 0 0 79.94,84.41 C 83.49,79.38 89.08,76 96,76 Z" style="filter:url(#filter860);opacity:0.20"/>
  <path d="M 96,16 C 54.26,16 20,50.26 20,92 v 36 c 0,11.89 5.36,23.19 12.57,29.56 1.29,1.14 2.53,1.52 3.83,2.40 A 20.00,20.00 0 0 0 56,176 h 20 a 20.00,20.00 0 0 0 20,-20 20.00,20.00 0 0 0 20,20 h 20 a 20.00,20.00 0 0 0 19.58,-16.02 c 1.30,0.89 2.56,-1.27 3.86,-2.42 C 166.64,151.18 172,139.89 172,128 V 92 C 172,50.26 137.74,16 96,16 Z m 0,56 c 6.92,0 12.50,3.37 16.05,8.39 A 20.00,20.00 0 0 0 96,100 20.00,20.00 0 0 0 79.94,80.41 C 83.49,75.38 89.08,72 96,72 Z" style="fill:#3f3f3f"/>
  <path d="m 96,40.00 c -30.93,0 -56,25.07 -56,56 v 36 c 0,14.28 10.17,18.16 16,19.23 v -55.23 c 0,-22.16 17.84,-40 40,-40 22.16,0 40,17.84 40,40 v 55.25 c 5.83,-1.07 16,-4.97 16,-19.25 v -36 c 0,-30.93 -25.07,-56 -56,-56 z" style="filter:url(#filter892);opacity:0.20"/>
  <path d="m 96,36.00 c -30.93,0 -56,25.07 -56,56 v 36 c 0,14.28 10.17,18.16 16,19.23 v -55.23 c 0,-22.16 17.84,-40 40,-40 22.16,0 40,17.84 40,40 v 55.25 c 5.83,-1.07 16,-4.97 16,-19.25 v -36 c 0,-30.93 -25.07,-56 -56,-56 z" style="fill:#74ea74"/>
  <path d="m 56,102 v 56 h 20 v -56 z m 60,0 v 56 h 20 v -56 z" style="filter:url(#filter876);opacity:0.20"/>
  <path d="m 56,100.00 v 56 h 20 v -56 z m 60,0 v 56 h 20 v -56 z" style="fill:#30a030"/>
  <path d="m 56,100 v 1 h 20 v -1 z m 60,0 v 1 h 20 v -1 z" style="opacity:0.10;fill:#ffffff"/>
  <path style="opacity:0.20;fill:#ffffff" d="M 96 36 C 65.07 36 40 61.07 40 92 L 40 93 C 40 62.07 65.07 37 96 37 C 126.93 37 152 62.07 152 93 L 152 92 C 152 61.07 126.93 36 96 36 z "/>
  <path style="opacity:0.10;fill:#ffffff" d="M 96 16 C 54.26 16 20 50.26 20 92 L 20 93 C 20 51.26 54.26 17 96 17 C 137.74 17 172 51.26 172 93 L 172 92 C 172 50.26 137.74 16 96 16 z M 111.42 80.55 A 20.00 20.00 0 0 0 96 100 A 20.00 20.00 0 0 0 80.57 80.56 C 80.35 80.83 80.14 81.12 79.94 81.41 A 20.00 20.00 0 0 1 96 101 A 20.00 20.00 0 0 1 112.05 81.39 C 111.85 81.10 111.64 80.83 111.42 80.55 z "/>
</svg>
