<?xml version='1.0' encoding='utf-8'?>
<svg xmlns="http://www.w3.org/2000/svg" width="192" height="192" version="1" id="svg28">
  <defs>
    <filter style="color-interpolation-filters:sRGB" id="filter6495" x="-0.048000001" y="-0.048000001" width="1.096" height="1.096">
      <feGaussianBlur stdDeviation="3.2"/>
    </filter>
    <filter style="color-interpolation-filters:sRGB" id="filter6087" x="-0.096130312" y="-0.061485036" width="1.1922606" height="1.1229701">
      <feGaussianBlur stdDeviation="3.2023455"/>
    </filter>
  </defs>
  <rect transform="matrix(0,-1,-1,0,0,0)" ry="12" rx="12" y="-176" x="-180" height="160" width="160" style="filter:url(#filter6495);opacity:0.2;fill:#000000"/>
  <rect transform="matrix(0,-1,-1,0,0,0)" ry="12" rx="12" y="-176" x="-176" height="160" width="160" style="fill:#8316b5"/>
  <path style="opacity:0.1;fill:#ffffff" d="m 28,16 c -6.648,0 -12,5.352 -12,12 v 1 c 0,-6.648 5.352,-12 12,-12 h 136 c 6.648,0 12,5.352 12,12 v -1 c 0,-6.648 -5.352,-12 -12,-12 z"/>
  <path style="filter:url(#filter6087);opacity:0.2;fill:#000000" d="M 56,18 V 140.09961 C 55.860911,142.91206 57.964386,143 58.990234,143 H 77.744141 C 80.694232,143 81,141.22692 81,139.66797 v -25.54492 l 24.55273,27.69726 c 0.98269,1.10862 2.91211,1.17774 2.91211,1.17774 h 22.33204 c 0,0 9.42928,0.26251 2.76171,-7.26953 L 102.60352,100.80664 130.55664,69.269531 C 137.22421,61.737493 127.79492,62 127.79492,62 h -22.33008 c 0,0 -1.93137,0.06909 -2.91406,1.177734 L 81,87.490234 V 18 Z"/>
  <path style="fill:#ffffff" d="M 56 16 L 56 138.09961 C 55.860911 140.91206 57.964386 141 58.990234 141 L 77.744141 141 C 80.694232 141 81 139.22692 81 137.66797 L 81 112.12305 L 105.55273 139.82031 C 106.53542 140.92893 108.46484 140.99805 108.46484 140.99805 L 130.79688 140.99805 C 130.79688 140.99805 140.22616 141.26056 133.55859 133.72852 L 102.60352 98.806641 L 130.55664 67.269531 C 137.22421 59.737493 127.79492 60 127.79492 60 L 105.46484 60 C 105.46484 60 103.53347 60.06909 102.55078 61.177734 L 81 85.490234 L 81 16 L 56 16 z "/>
</svg>
