<?xml version='1.0' encoding='utf-8'?>
<svg xmlns="http://www.w3.org/2000/svg" width="192" height="192" version="1" id="svg28">
  <defs>
    <filter style="color-interpolation-filters:sRGB" id="filter6495" x="0.05" y="0.05" width="1.10" height="1.10">
      <feGaussianBlur stdDeviation="3.20"/>
    </filter>
    <filter style="color-interpolation-filters:sRGB" id="filter8143" x="0.05" y="0.04" width="1.10" height="1.09">
      <feGaussianBlur stdDeviation="2.14"/>
    </filter>
  </defs>
  <rect transform="matrix(0,-1,-1,0,0,0)" ry="12" rx="12" y="-176" x="-180" height="160" width="160" style="filter:url(#filter6495);opacity:0.20;fill:#000000"/>
  <rect transform="matrix(0,-1,-1,0,0,0)" ry="12" rx="12" y="-176" x="-176" height="160" width="160" style="fill:#e93153"/>
  <path style="filter:url(#filter8143);opacity:0.20;fill:#000000" d="m 57,40 c -5.54,0 -10,4.46 -10,10 v 12.53 l 5,-5 V 50 c 0,-2.86 2.14,-5 5,-5 h 7.53 l 5,-5 z m 65.47,0 5,5 H 135 c 2.86,0 5,2.14 5,5 v 7.53 l 5,5 V 50 c 0,-5.54 -4.46,-10 -10,-10 z M 67,54 c -3.32,0 -6,2.68 -6,6 v 76 c 0,3.32 2.68,6 6,6 h 58 c 3.32,0 6,-2.68 6,-6 V 60 c 0,-3.32 -2.68,-6 -6,-6 z M 47,133.47 V 146 c 0,5.54 4.46,10 10,10 h 12.53 l -5,-5 H 57 c -2.86,0 -5,-2.14 -5,-5 v -7.53 z m 98,0 -5,5 V 146 c 0,2.86 -2.14,5 -5,5 h -7.53 l -5,5 H 135 c 5.54,0 10,-4.46 10,-10 z"/>
  <path style="opacity:0.20;fill:#ffffff" d="m 28,16 c -6.65,0 -12,5.35 -12,12 v 1 c 0,-6.65 5.35,-12 12,-12 h 136 c 6.65,0 12,5.35 12,12 v -1 c 0,-6.65 -5.35,-12 -12,-12 z"/>
  <path style="fill:#ffffff" d="m 57,38 c -5.54,0 -10,4.46 -10,10 v 12.53 l 5,-5 V 48 c 0,-2.86 2.14,-5 5,-5 h 7.53 l 5,-5 z m 65.47,0 5,5 H 135 c 2.86,0 5,2.14 5,5 v 7.53 l 5,5 V 48 c 0,-5.54 -4.46,-10 -10,-10 z M 47,131.47 V 144 c 0,5.54 4.46,10 10,10 h 12.53 l -5,-5 H 57 c -2.86,0 -5,-2.14 -5,-5 v -7.53 z m 98,0 -5,5 V 144 c 0,2.86 -2.14,5 -5,5 h -7.53 l -5,5 H 135 c 5.54,0 10,-4.46 10,-10 z"/>
  <rect style="fill:#ffffff" width="70" height="88" x="61" y="52" rx="6" ry="6"/>
  <path style="opacity:0.36;fill:#808080" d="M 67 59 L 67 63 L 94 63 L 94 59 L 67 59 z M 98 59 L 98 63 L 125 63 L 125 59 L 98 59 z M 67 66 L 67 70 L 94 70 L 94 66 L 67 66 z M 98 66 L 98 70 L 125 70 L 125 66 L 98 66 z M 67 73 L 67 77 L 94 77 L 94 73 L 67 73 z M 98 73 L 98 77 L 125 77 L 125 73 L 98 73 z M 67 80 L 67 84 L 94 84 L 94 80 L 67 80 z M 98 80 L 98 84 L 125 84 L 125 80 L 98 80 z M 98 87 L 98 91 L 125 91 L 125 87 L 98 87 z M 98 94 L 98 98 L 125 98 L 125 94 L 98 94 z M 98 101 L 98 105 L 125 105 L 125 101 L 98 101 z M 98 108 L 98 112 L 125 112 L 125 108 L 98 108 z M 98 115 L 98 119 L 125 119 L 125 115 L 98 115 z M 67 122 L 67 126 L 98 126 L 125 126 L 125 122 L 98 122 L 67 122 z M 67 129 L 67 133 L 98 133 L 125 133 L 125 129 L 98 129 L 67 129 z "/>
  <path style="fill:#79c43c;color:#000000" d="m 75.37,107.15 -4.83,3.56 c 2.27,3.08 5.78,5.00 9.59,5.26 3.81,0.26 7.55,-1.18 10.21,-3.92 l -4.31,-4.18 c -1.43,1.48 -3.44,2.25 -5.50,2.11 -2.06,0.14 -3.94,-1.17 -5.16,-2.83 z"/>
  <path style="fill:#ffc236;color:#000000" d="m 68.81,98.49 c -1.56,4.21 0.83,8.93 1.92,12.48 l 4.74,-3.68 c -1.48,-1.91 -1.87,-4.45 -1.03,-6.72 z"/>
  <path style="fill:#ff7839;color:#000000" d="m 73.75,92.21 c -2.34,1.57 -4.10,3.86 -5.03,6.52 l 5.67,1.97 c 0.50,-1.43 1.45,-2.66 2.71,-3.51 z"/>
  <path style="fill:#ed4d59;color:#000000" d="m 81.38,90.01 c -2.81,0.08 -5.58,0.75 -7.88,2.37 l 3.46,4.90 c 1.24,0.87 2.73,-1.32 4.24,-1.28 z"/>
  <path style="fill:#54cdec;color:#000000" d="m 81.09,90 0.04,6 c 2.84,0.02 5.37,1.74 6.44,4.37 1.07,2.63 0.45,5.63 -1.58,7.62 l 4.21,4.28 c 3.75,-3.68 4.91,-9.28 2.94,-14.15 C 91.08,93.25 86.34,90.04 81.09,90 Z"/>
</svg>
