<?xml version='1.0' encoding='utf-8'?>
<svg xmlns="http://www.w3.org/2000/svg" width="192" height="192" version="1" id="svg12">
  <defs>
    <filter style="color-interpolation-filters:sRGB" id="filter1051" x="-0.048000001" y="-0.048000001" width="1.096" height="1.096">
      <feGaussianBlur stdDeviation="3.2"/>
    </filter>
    <filter style="color-interpolation-filters:sRGB" id="filter1096" x="-0.047999998" y="-0.047999998" width="1.096" height="1.096">
      <feGaussianBlur stdDeviation="2.08"/>
    </filter>
  </defs>
  <rect fill="#5db43e" width="160" height="160" x="16" y="20" rx="80" ry="80" style="filter:url(#filter1051);opacity:0.2;fill:#000000"/>
  <rect fill="#5db43e" width="160" height="160" x="16" y="16" rx="80" ry="80"/>
  <path opacity="0.2" d="m 60,46 c -4,0 -8,4 -8,8 0,4 4,8 8,8 39.7644,-4e-5 72,32.2356 72,72 0,4 3.62776,8 8,8 4,0 8,-4 8,-8 0,-48.6 -39.4,-88 -88,-88 z m 60,4 24,24 V 58 c 0,-4.432 -3.568,-8 -8,-8 z M 60,78 c -4,0 -8,4 -8,8 0,4 4,8 8,8 22.0916,-2.4e-5 40,17.9084 40,40 0,4 4,8 8,8 4,0 8,-4 8,-8 0,-30.928 -25.072,-56 -56,-56 z m 4,32 c -11.0456,0 -20,8.9544 -20,20 0,11.0448 8.9552,20 20,20 11.0456,0 20,-8.9544 20,-20 0,-11.0456 -8.9544,-20 -20,-20 z" style="filter:url(#filter1096)"/>
  <path fill="#ffffff" d="m 60,44 c -4,0 -8,4 -8,8 0,4 4,8 8,8 39.7644,-4e-5 72,32.2356 72,72 0,4 3.62776,8 8,8 4,0 8,-4 8,-8 0,-48.6 -39.4,-88 -88,-88 z m 60,4 24,24 V 56 c 0,-4.432 -3.568,-8 -8,-8 z M 60,76 c -4,0 -8,4 -8,8 0,4 4,8 8,8 22.0916,-2.4e-5 40,17.9084 40,40 0,4 4,8 8,8 4,0 8,-4 8,-8 0,-30.928 -25.072,-56 -56,-56 z m 4,32 c -11.0456,0 -20,8.9544 -20,20 0,11.0448 8.9552,20 20,20 11.0456,0 20,-8.9544 20,-20 0,-11.0456 -8.9544,-20 -20,-20 z"/>
  <path style="opacity:0.2;fill:#ffffff" d="M 96 16 C 51.68 16 16 51.68 16 96 C 16 96.167713 16.010698 96.332536 16.011719 96.5 C 16.280347 52.413241 51.847713 17 96 17 C 140.15229 17 175.71965 52.413241 175.98828 96.5 C 175.9893 96.332536 176 96.167713 176 96 C 176 51.68 140.32 16 96 16 z "/>
</svg>
