<?xml version='1.0' encoding='utf-8'?>
<svg xmlns="http://www.w3.org/2000/svg" width="192" height="192" version="1" id="svg12">
  <defs>
    <filter style="color-interpolation-filters:sRGB" id="filter860" x="0.05" width="1.10" y="0.05" height="1.10">
      <feGaussianBlur stdDeviation="3.20"/>
    </filter>
    <filter style="color-interpolation-filters:sRGB" id="filter884" x="0.02" width="1.05" y="0.02" height="1.05">
      <feGaussianBlur stdDeviation="1.16"/>
    </filter>
  </defs>
  <rect style="filter:url(#filter860);opacity:0.20" width="160" height="160" x="16" y="20" rx="48" ry="48"/>
  <rect style="fill:#e4e4e4;fill-opacity:0.94" width="160" height="160" x="16" y="16" rx="48" ry="48"/>
  <path style="opacity:0.20;fill:#ffffff" d="M 64,16 C 37.41,16 16,37.41 16,64 v 1 C 16,38.41 37.41,17 64,17 h 64 c 26.59,0 48,21.41 48,48 V 64 C 176,37.41 154.59,16 128,16 Z"/>
  <path style="fill:#125a9f;color:#000000;font-stretch:normal;font-variant-ligatures:normal;font-variant-position:normal;font-variant-caps:normal;font-variant-numeric:normal;font-variant-alternates:normal;font-feature-settings:normal;text-indent:0;text-align:start;text-decoration-line:none;text-decoration-style:solid;text-decoration-color:#000000;text-transform:none;writing-mode:lr-tb;direction:ltr;text-orientation:mixed;dominant-baseline:auto;baseline-shift:baseline;white-space:normal;shape-padding:0;clip-rule:nonzero;display:inline;overflow:visible;visibility:visible;isolation:auto;mix-blend-mode:normal;color-interpolation:sRGB;color-interpolation-filters:linearRGB;solid-color:#000000;solid-opacity:1;vector-effect:none;fill-rule:nonzero;color-rendering:auto;image-rendering:auto;shape-rendering:auto;text-rendering:auto;enable-background:accumulate" d="m 96,30 c -36.40,0 -66,29.60 -66,66 0,36.40 29.60,66 66,66 36.40,0 66,-29.60 66,-66 0,-36.40 -29.60,-66 -66,-66 z"/>
  <path d="m 96,40 c 32.08,0 58,25.92 58,58 0,32.08 -25.92,58 -58,58 C 63.92,156 38,130.08 38,98 38,65.92 63.92,40 96,40 Z" style="filter:url(#filter884);opacity:0.20;fill:#000000;color:#000000;font-stretch:normal;font-variant-ligatures:normal;font-variant-position:normal;font-variant-caps:normal;font-variant-numeric:normal;font-variant-alternates:normal;font-feature-settings:normal;text-indent:0;text-align:start;text-decoration-line:none;text-decoration-style:solid;text-decoration-color:#000000;text-transform:none;writing-mode:lr-tb;direction:ltr;text-orientation:mixed;dominant-baseline:auto;baseline-shift:baseline;white-space:normal;shape-padding:0;clip-rule:nonzero;display:inline;overflow:visible;visibility:visible;isolation:auto;mix-blend-mode:normal;color-interpolation:sRGB;color-interpolation-filters:linearRGB;solid-color:#000000;solid-opacity:1;vector-effect:none;fill-rule:nonzero;color-rendering:auto;image-rendering:auto;shape-rendering:auto;text-rendering:auto;enable-background:accumulate"/>
  <path style="fill:#ffffff;color:#000000;font-stretch:normal;font-variant-ligatures:normal;font-variant-position:normal;font-variant-caps:normal;font-variant-numeric:normal;font-variant-alternates:normal;font-feature-settings:normal;text-indent:0;text-align:start;text-decoration-line:none;text-decoration-style:solid;text-decoration-color:#000000;text-transform:none;writing-mode:lr-tb;direction:ltr;text-orientation:mixed;dominant-baseline:auto;baseline-shift:baseline;white-space:normal;shape-padding:0;clip-rule:nonzero;display:inline;overflow:visible;visibility:visible;isolation:auto;mix-blend-mode:normal;color-interpolation:sRGB;color-interpolation-filters:linearRGB;solid-color:#000000;solid-opacity:1;vector-effect:none;fill-rule:nonzero;color-rendering:auto;image-rendering:auto;shape-rendering:auto;text-rendering:auto;enable-background:accumulate" d="m 96,38 c 32.08,0 58,25.92 58,58 0,32.08 -25.92,58 -58,58 C 63.92,154 38,128.08 38,96 38,63.92 63.92,38 96,38 Z"/>
  <rect style="fill:#3f3f3f" width="8" height="50" x="60" y="56"/>
  <rect y="56" x="92" height="50" width="8" style="fill:#3f3f3f"/>
  <rect style="fill:#3f3f3f" width="8" height="40" x="78" y="-100" transform="rotate(90)"/>
  <rect y="86" x="92" height="50" width="8" style="fill:#3f3f3f"/>
  <rect transform="rotate(90)" y="-132" x="86" height="40" width="8" style="fill:#3f3f3f"/>
  <rect style="fill:#3f3f3f" width="8" height="40" x="128" y="-132" transform="rotate(90)"/>
  <rect transform="rotate(90)" y="-120" x="108" height="28" width="8" style="fill:#3f3f3f"/>
</svg>
