<?xml version='1.0' encoding='utf-8'?>
<svg xmlns="http://www.w3.org/2000/svg" width="192" height="192" version="1" id="svg12">
  <defs>
    <filter style="color-interpolation-filters:sRGB" id="filter860" x="0.05" width="1.10" y="0.05" height="1.10">
      <feGaussianBlur stdDeviation="3.20"/>
    </filter>
    <filter style="color-interpolation-filters:sRGB" id="filter861" x="0.05" width="1.10" y="0.05" height="1.09">
      <feGaussianBlur stdDeviation="2.26"/>
    </filter>
  </defs>
  <rect style="filter:url(#filter860);opacity:0.20" width="160" height="160" x="16" y="20" rx="8" ry="8"/>
  <rect style="fill:#1383b6" width="160" height="160" x="16" y="16" rx="8" ry="8"/>
  <path style="opacity:0.20;fill:#ffffff" d="m 24,16 c -4.43,0 -8,3.57 -8,8 v 1 c 0,-4.43 3.57,-8 8,-8 h 144 c 4.43,0 8,3.57 8,8 v -1 c 0,-4.43 -3.57,-8 -8,-8 z"/>
  <path d="m 65.95,33.98 c -1.61,0.03 -2.53,1.84 -1.60,3.16 l 7.89,11.48 C 60.55,55.65 52.11,67.72 50,82 H 60.04 C 63.28,64.72 78.16,52.00 95.84,51.93 113.63,51.85 128.70,64.59 131.96,82 H 142 C 139.88,67.71 131.44,55.64 119.76,48.61 l 7.88,-11.47 c 0.93,-1.31 0.01,-3.13 -1.60,-3.16 0.68,0.01 -1.32,0.32 -1.70,0.89 l -8.12,11.82 C 110.03,43.65 103.09,41.97 95.80,42 88.65,42.03 81.85,43.71 75.77,46.69 L 67.65,34.87 c 0.38,0.57 -1.02,0.90 -1.70,0.89 z M 80,62 c -3.31,0 -6,2.69 -6,6 0,3.31 2.69,6 6,6 3.31,0 6,-2.69 6,-6 0,-3.31 -2.69,-6 -6,-6 z m 32,0 c -3.31,0 -6,2.69 -6,6 0,3.31 2.69,6 6,6 3.31,0 6,-2.69 6,-6 0,-3.31 -2.69,-6 -6,-6 z M 42,88 V 98 H 150 V 88 Z m 0,18 v 10 H 82.37 C 82.13,115.03 82.00,114.03 82,113.01 V 113 c 0,-2.54 0.71,-4.93 1.93,-7 z m 54,0 c -3.87,0 -7,3.13 -7,7 0.00,2.53 1.36,4.85 3.56,6.09 L 89,134 h 14 L 98.87,119.38 C 101.38,118.25 103.00,115.75 103,113 c 0,-3.87 -3.13,-7 -7,-7 z m 12.07,0 c 1.22,2.07 1.93,4.46 1.93,7 v 0.01 c 0.00,1.03 0.14,2.02 0.37,2.99 H 150 V 106 Z M 42,124 v 10 h 40.01 c 0.00,0.55 0.06,-1.09 0.18,-1.63 L 84.19,124 Z m 65.45,0 2.29,8.10 c 0.17,0.62 0.26,1.26 0.26,1.90 H 150 V 124 Z M 42,142 v 10 h 108 v -10 z" style="filter:url(#filter861);opacity:0.20;fill:#000000"/>
  <path style="fill:#ffffff" d="M 65.95 31.98 C 64.34 32.00 63.42 33.82 64.35 35.13 L 72.24 46.61 C 60.55 53.65 52.11 65.72 50 80 L 60.04 80 C 63.28 62.72 78.16 50.00 95.84 49.93 C 113.63 49.85 128.70 62.59 131.96 80 L 142 80 C 139.88 65.71 131.44 53.64 119.76 46.61 L 127.65 35.13 C 128.58 33.82 127.66 32.00 126.05 31.98 C 125.37 31.96 124.73 32.30 124.35 32.87 L 116.23 44.69 C 110.03 41.65 103.09 39.97 95.80 40 C 88.65 40.03 81.85 41.71 75.77 44.69 L 67.65 32.87 C 67.27 32.30 66.63 31.96 65.95 31.98 z M 80 60 C 76.69 60 74 62.69 74 66 C 74 69.31 76.69 72 80 72 C 83.31 72 86 69.31 86 66 C 86 62.69 83.31 60 80 60 z M 112 60 C 108.69 60 106 62.69 106 66 C 106 69.31 108.69 72 112 72 C 115.31 72 118 69.31 118 66 C 118 62.69 115.31 60 112 60 z M 42 86 L 42 96 L 150 96 L 150 86 L 42 86 z M 42 104 L 42 114 L 82.37 114 C 82.13 113.03 82.00 112.03 82 111.01 L 82 111 C 82 108.46 82.71 106.07 83.93 104 L 42 104 z M 96 104 C 92.13 104 89 107.13 89 111 C 89.00 113.53 90.36 115.85 92.56 117.09 L 89 132 L 103 132 L 98.87 117.38 C 101.38 116.25 103.00 113.75 103 111 C 103 107.13 99.87 104 96 104 z M 108.07 104 C 109.29 106.07 110 108.46 110 111 L 110 111.01 C 110.00 112.04 109.86 113.03 109.63 114 L 150 114 L 150 104 L 108.07 104 z M 42 122 L 42 132 L 82.01 132 C 82.01 131.45 82.07 130.91 82.19 130.37 L 84.19 122 L 42 122 z M 107.45 122 L 109.74 130.10 C 109.91 130.72 110.00 131.36 109.99 132 L 150 132 L 150 122 L 107.45 122 z M 42 140 L 42 150 L 150 150 L 150 140 L 42 140 z "/>
</svg>
