<?xml version='1.0' encoding='utf-8'?>
<svg xmlns="http://www.w3.org/2000/svg" width="192" height="192" version="1" id="svg18">
  <defs>
    <filter id="filter963" style="color-interpolation-filters:sRGB" width="1.10" height="1.10" x="0.05" y="0.05">
      <feGaussianBlur stdDeviation="3.20"/>
    </filter>
    <filter style="color-interpolation-filters:sRGB" id="filter2315" x="0.03" y="0.09" width="1.07" height="1.18">
      <feGaussianBlur stdDeviation="1.24"/>
    </filter>
    <filter style="color-interpolation-filters:sRGB" id="filter1409" x="0.05" y="0.05" width="1.09" height="1.10">
      <feGaussianBlur stdDeviation="1.46"/>
    </filter>
  </defs>
  <path style="filter:url(#filter963);opacity:0.20" d="M 176,100 A 80,80 0 0 1 96,180 80,80 0 0 1 16,100 80,80 0 0 1 96,20 80,80 0 0 1 176,100 Z"/>
  <path style="fill:#2aae60" d="M 176,96 A 80,80 0 0 1 96,176 80,80 0 0 1 16,96 80,80 0 0 1 96,16 80,80 0 0 1 176,96 Z"/>
  <path style="opacity:0.20;fill:#ffffff" d="M 96.00,16 A 80,80 0 0 0 16,96 80,80 0 0 0 16.02,96.64 80,80 0 0 1 96.00,17 H 96 A 80,80 0 0 1 175.98,96.29 80,80 0 0 0 176.00,96 80,80 0 0 0 96,16 Z"/>
  <path style="filter:url(#filter1409);opacity:0.20;fill:#000000;color:#000000" d="m 64,63 a 6.00,6.00 0 0 0 -6,6 v 42 c 0,12.08 9.92,22 22,22 12.08,0 22,-9.92 22,-22 V 85 c 0,-5.59 4.41,-10 10,-10 5.59,0 10,4.41 10,10 v 42 a 6.00,6.00 0 0 0 6,6 6.00,6.00 0 0 0 6,-6 V 85 C 134,72.92 124.08,63 112,63 99.92,63 90,72.92 90,85 v 26 c 0,5.59 -4.41,10 -10,10 -5.59,0 -10,-4.41 -10,-10 V 69 a 6.00,6.00 0 0 0 -6,-6 z"/>
  <path style="fill:#97d7b1;color:#000000" d="m 64,61 a 6.00,6.00 0 0 0 -6,6 v 42 c 0,12.08 9.92,22 22,22 12.08,0 22,-9.92 22,-22 V 83 c 0,-5.59 4.41,-10 10,-10 5.59,0 10,4.41 10,10 v 42 a 6.00,6.00 0 0 0 6,6 6.00,6.00 0 0 0 6,-6 V 83 C 134,70.92 124.08,61 112,61 99.92,61 90,70.92 90,83 v 26 c 0,5.59 -4.41,10 -10,10 -5.59,0 -10,-4.41 -10,-10 V 67 a 6.00,6.00 0 0 0 -6,-6 z"/>
  <path style="filter:url(#filter2315);opacity:0.20;fill:#000000;stop-color:#000000" d="M 64,81 A 13,13 0 0 0 51,94 13,13 0 0 0 64,107 13,13 0 0 0 77,94 13,13 0 0 0 64,81 Z m 64,8 a 13,13 0 0 0 -13,13 13,13 0 0 0 13,13 13,13 0 0 0 13,-13 13,13 0 0 0 -13,-13 z"/>
  <circle style="fill:#ffffff;stop-color:#000000" cx="64" cy="92" r="13"/>
  <circle style="fill:#ffffff;stop-color:#000000" cx="-128" cy="100" r="13" transform="scale(-1,1)"/>
</svg>
