<?xml version='1.0' encoding='utf-8'?>
<svg xmlns="http://www.w3.org/2000/svg" width="192" height="192" version="1.1" id="svg22">
  <defs>
    <filter style="color-interpolation-filters:sRGB" id="filter912" x="0.05" width="1.10" y="0.04" height="1.09">
      <feGaussianBlur stdDeviation="2.70"/>
    </filter>
    <filter style="color-interpolation-filters:sRGB" id="filter918" x="0.05" width="1.10" y="0.05" height="1.10">
      <feGaussianBlur stdDeviation="1.60"/>
    </filter>
    <filter style="color-interpolation-filters:sRGB" id="filter982" x="0.03" width="1.05" y="0.40" height="1.79">
      <feGaussianBlur stdDeviation="1.32"/>
    </filter>
    <filter style="color-interpolation-filters:sRGB" id="filter986" x="0.03" width="1.05" y="0.40" height="1.79">
      <feGaussianBlur stdDeviation="1.32"/>
    </filter>
    <filter style="color-interpolation-filters:sRGB" id="filter990" x="0.03" width="1.05" y="0.40" height="1.79">
      <feGaussianBlur stdDeviation="1.32"/>
    </filter>
  </defs>
  <path style="filter:url(#filter912);opacity:0.20;fill:#000000" d="M 59.29,27 C 55.25,27 52,30.26 52,34.30 V 63 63.50 100 136.50 165.70 C 52,169.74 55.25,173 59.29,173 H 168.71 C 172.75,173 176,169.74 176,165.70 V 136 100 63.50 63 34.30 C 176,30.26 172.75,27 168.71,27 Z"/>
  <path style="fill:#103f91" d="m 52,132 v 29.70 C 52,165.74 55.25,169 59.29,169 H 168.71 C 172.75,169 176,165.74 176,161.70 V 132 Z"/>
  <path style="filter:url(#filter982);opacity:0.10;fill:#000000;mix-blend-mode:normal" d="m 52,126 v 8 h 124 v -8 z"/>
  <path style="fill:#1650a7" d="M 52 96 L 52 132 L 176 132 L 176 96 L 52 96 z "/>
  <path style="filter:url(#filter986);opacity:0.10;fill:#000000" d="m 52,90 v 8 h 124 v -8 z"/>
  <path style="fill:#2b7cd3" d="M 52 59 L 52 96 L 176 96 L 176 59 L 52 59 z "/>
  <path style="filter:url(#filter990);opacity:0.10;fill:#000000" d="m 52,53 v 8 h 124 v -8 z"/>
  <path style="fill:#41a5ee" d="M 59.29 23 C 55.25 23 52 26.26 52 30.30 L 52 59 L 176 59 L 176 30.30 C 176 26.26 172.75 23 168.71 23 L 59.29 23 z "/>
  <rect style="filter:url(#filter918);opacity:0.10;fill:#000000" width="80" height="80" x="16" y="60" rx="7.27" ry="7.27"/>
  <rect style="fill:#185abd" width="80" height="80" x="16" y="56" rx="7.27" ry="7.27"/>
  <path style="fill:#ffffff" d="M 75.92,121 H 66.84 L 56.25,86.50 45.16,121 h -9.08 L 26,71 h 9.08 l 7.06,35 10.59,-35 h 7.56 l 10.08,35 7.06,-35 H 86 Z"/>
  <path style="opacity:0.20;fill:#ffffff" d="M 59.29 23 C 55.25 23 52 26.26 52 30.30 L 52 31.30 C 52 27.26 55.25 24 59.29 24 L 168.71 24 C 172.75 24 176 27.26 176 31.30 L 176 30.30 C 176 26.26 172.75 23 168.71 23 L 59.29 23 z "/>
</svg>
