<?xml version='1.0' encoding='utf-8'?>
<svg xmlns="http://www.w3.org/2000/svg" width="192" height="192" version="1.1" id="svg14">
  <defs>
    <filter style="color-interpolation-filters:sRGB" id="filter849" x="0.05" y="0.05" width="1.10" height="1.10">
      <feGaussianBlur stdDeviation="3.20"/>
    </filter>
    <filter style="color-interpolation-filters:sRGB" id="filter2320" x="0.05" y="0.16" width="1.10" height="1.31">
      <feGaussianBlur stdDeviation="2.47"/>
    </filter>
  </defs>
  <rect style="filter:url(#filter849);opacity:0.20" width="160" height="160" x="16" y="20" rx="32" ry="32"/>
  <rect style="fill:#3f3f3f" width="160" height="160" x="16" y="16" rx="32" ry="32"/>
  <path style="opacity:0.10;fill:#ffffff" d="M 48,16 C 30.27,16 16,30.27 16,48 v 1 C 16,31.27 30.27,17 48,17 h 96 c 17.73,0 32,14.27 32,32 V 48 C 176,30.27 161.73,16 144,16 Z"/>
  <path style="filter:url(#filter2320);opacity:0.20;fill:#000000" d="m 55.51,79 c -2.25,0.01 -4.50,0.19 -5.82,0.55 C 46.25,80.48 43.66,81.97 41.26,84.38 37.54,88.11 36.02,92.03 36,97.93 c 0.01,3.83 0.54,6.46 1.95,9.33 2.33,4.73 6.88,8.08 12.62,9.30 2.51,0.53 7.51,0.54 9.97,0.02 1.09,0.23 2.71,0.76 3.60,-1.16 0.89,0.41 1.64,0.71 1.67,0.66 0.03,0.04 0.42,0.57 0.86,1.17 L 67.48,117 h 4.76 C 74.86,117 77,116.94 77,116.87 c 0,0.07 -1.15,-1.80 -2.56,-3.84 l -2.56,-3.71 0.82,-1.48 c 1.36,-2.46 2.30,-5.84 2.47,-8.90 C 75.71,89.37 70.44,81.97 61.31,79.52 60.01,79.17 57.76,78.99 55.51,79 Z M 113,79 v 4 4 h 4 4 v -4 -4 h -4 z m 12,0 v 19 19 H 129.07 133 v -1.52 c 0,-4.21 0.18,-3.98 2.71,-7.02 1.45,-1.52 2.71,-2.76 2.81,-2.76 0.10,0.00 1.94,2.54 4.08,5.65 L 146.39,117 h 9.71 c 0.23,0.37 -2.99,-4.53 -6.07,-8.97 l -5.73,-8.25 5.57,-5.61 L 155.04,89 h -5.48 -5.48 L 138.64,94.44 133,100.31 V 89.66 79 h -4.10 z m -69.20,8.00 c 3.57,0.05 7.10,1.18 9.35,3.38 2.00,1.95 2.68,3.62 2.83,6.94 0.14,3.20 0.32,5.12 -1.72,7.15 -1.15,1.66 -3.52,3.25 -5.94,3.97 -2.48,0.74 -7.20,0.74 -9.60,0.01 -2.26,0.69 -3.53,-1.49 -5.15,-3.21 -3.66,-3.91 -3.34,-11.59 0.65,-15.11 2.42,-2.14 6.03,-3.17 9.59,-3.12 z M 78,89 l 0.01,8.36 c 0.01,10.87 0.46,13.12 3.21,16.07 2.55,2.73 5.11,3.61 10.11,3.47 2.63,0.07 3.69,0.23 5.02,0.74 1.14,0.44 2.20,-1.15 3.26,-2.20 L 101,112.42 V 114.71 117 H 105.09 109 V 103 89 H 105.09 101 v 6.36 c 0.01,5.15 0.02,8.21 0.49,10.20 -1.18,3.74 -4.47,4.35 -7.01,4.44 -2.96,0.15 -5.50,0.50 -6.71,-2.86 C 86.08,105.73 86.09,105.61 86,97.36 V 89 h -4.11 z m 35,0 v 14 14 h 4 4 V 103 89 h -4 z"/>
  <path style="fill:#ffffff" d="M 55.51 77 C 53.26 77.01 51.01 77.19 49.70 77.55 C 46.25 78.48 43.66 79.97 41.26 82.38 C 37.54 86.11 36.02 90.03 36 95.93 C 35.99 99.76 36.54 102.39 37.95 105.25 C 40.27 109.98 44.82 113.33 50.57 114.55 C 53.07 115.08 58.07 115.09 60.54 114.57 C 61.63 114.34 63.25 113.81 64.14 113.40 C 65.03 113.00 65.78 112.70 65.81 112.74 C 65.84 112.78 66.23 113.31 66.67 113.91 L 67.48 115 L 72.24 115 C 74.86 115 77 114.94 77 114.87 C 77 114.80 75.85 113.07 74.44 111.03 L 71.88 107.33 L 72.70 105.85 C 74.06 103.39 75.00 100.01 75.17 96.95 C 75.71 87.37 70.44 79.97 61.31 77.52 C 60.01 77.17 57.76 76.99 55.51 77 z M 113 77 L 113 81 L 113 85 L 117 85 L 121 85 L 121 81 L 121 77 L 117 77 L 113 77 z M 125 77 L 125 96 L 125 115 L 129.07 115 L 133 115 L 133 113.48 C 133 109.27 132.82 109.50 135.71 106.45 C 137.16 104.93 138.43 103.69 138.53 103.69 C 138.63 103.69 140.46 106.23 142.61 109.34 L 146.39 115 L 156.10 115 C 155.87 114.63 153.11 110.47 150.03 106.03 L 144.30 97.78 L 149.87 92.18 L 155.04 87 L 149.56 87 L 144.09 87 L 138.64 92.44 L 133 98.31 L 133 87.66 L 133 77 L 128.90 77 L 125 77 z M 55.80 85.00 C 59.36 85.05 62.89 86.18 65.15 88.39 C 67.15 90.34 67.82 92.00 67.97 95.32 C 68.12 98.52 67.66 100.44 66.25 102.48 C 65.10 104.13 62.73 105.72 60.31 106.44 C 57.83 107.18 53.11 107.19 50.71 106.45 C 48.45 105.76 47.18 104.97 45.56 103.24 C 41.89 99.33 42.22 91.65 46.20 88.13 C 48.62 85.99 52.23 84.95 55.80 85.00 z M 78 87 L 78.01 95.36 C 78.01 106.23 78.46 108.48 81.22 111.43 C 83.77 114.16 86.32 115.04 91.33 114.90 C 93.96 114.83 95.02 114.68 96.35 114.16 C 97.49 113.72 98.54 113.01 99.61 111.96 L 101 110.42 L 101 112.71 L 101 115 L 105.09 115 L 109 115 L 109 101 L 109 87 L 105.09 87 L 101 87 L 101 93.36 C 100.99 98.51 101.02 101.57 100.51 103.56 C 99.33 107.30 96.04 107.91 93.50 108 C 90.54 108.15 88.01 107.50 86.79 105.14 C 86.08 103.73 86.09 103.61 86 95.36 L 86 87 L 81.89 87 L 78 87 z M 113 87 L 113 101 L 113 115 L 117 115 L 121 115 L 121 101 L 121 87 L 117 87 L 113 87 z "/>
</svg>
