<?xml version='1.0' encoding='utf-8'?>
<svg xmlns="http://www.w3.org/2000/svg" width="192" height="192" version="1.1" id="svg12">
  <defs>
    <filter style="color-interpolation-filters:sRGB" id="filter845" x="-0.048000001" y="-0.048000001" width="1.096" height="1.096">
      <feGaussianBlur stdDeviation="3.2"/>
    </filter>
    <filter style="color-interpolation-filters:sRGB" id="filter849" x="-0.043384615" y="-0.053714286" width="1.0867692" height="1.1074286">
      <feGaussianBlur stdDeviation="1.88"/>
    </filter>
  </defs>
  <path style="filter:url(#filter845);opacity:0.2" d="m 96,178 c 44.18281,0 80,-35.81719 80,-80 0,-44.182812 -35.81719,-80 -80,-80 -44.182812,0 -80,35.817188 -80,80 0,44.18281 35.817188,80 80,80 z"/>
  <path style="fill:#1370ba" d="m 96,174 c 44.18281,0 80,-35.81719 80,-80 0,-44.182812 -35.81719,-80 -80,-80 -44.182812,0 -80,35.817188 -80,80 0,44.18281 35.817188,80 80,80 z"/>
  <path style="filter:url(#filter849);opacity:0.2" d="m 128,48 c -11.23156,0 -20,8.776824 -20,20.296876 0.001,4.937188 8,4.937188 8,0 C 116,61.714012 119.53728,56 128,56 c 8.46272,0 12,5.714012 12,12.296876 0,4.937188 8,4.937188 8,0 C 148,56.776824 139.23171,48 128,48 Z m 0,16 c -2.21009,0 -4,1.789772 -4,4 0,2.210088 1.78991,4 4,4 2.21009,0 4,-1.789912 4,-4 0,-2.210228 -1.78991,-4 -4,-4 z M 96,76 C 89.99736,76 82.924296,79.69854 79.656248,84.3125 76.388368,79.69854 70.002632,76.585936 64,76.585936 54.081652,76.585936 44,82.8035 44,99.875 V 128 c 0,0 0,4 4,4 4,0 4,-4 4,-4 V 99.875 C 51.99654,86.90092 57.870092,84 64,84 c 6.129904,0 12,4.805812 12,13.585936 V 128 c 0,0 0,4 4,4 4,0 4,-4 4,-4 V 97.585936 C 84,88.805812 89.8701,84 96,84 c 3.89164,0 12.03125,1.368032 12.03125,13.585936 l 0.23436,10.382814 C 108.26562,127.15441 119.97351,132 128,132 c 8.02648,0 19.75475,-5.65784 20,-22.63281 V 83.398436 c 0,-4.672584 -8,-4.672584 -8,0 V 108.96094 C 140,121.83848 132.01324,124 128,124 c -4.01325,0 -12.05469,-1.34145 -12.05469,-16.42969 l -0.23436,-9.42187 C 115.71094,83.596012 106.19821,76 96,76 Z"/>
  <path style="fill:#ffffff" d="m 128,46 c -11.23156,0 -20,8.776824 -20,20.296876 0.001,4.937188 8,4.937188 8,0 C 116,59.714012 119.53728,54 128,54 c 8.46272,0 12,5.714012 12,12.296876 0,4.937188 8,4.937188 8,0 C 148,54.776824 139.23171,46 128,46 Z m 0,16 c -2.21009,0 -4,1.789772 -4,4 0,2.210088 1.78991,4 4,4 2.21009,0 4,-1.789912 4,-4 0,-2.210228 -1.78991,-4 -4,-4 z M 96,74 C 89.99736,74 82.924296,77.69854 79.656248,82.3125 76.388368,77.69854 70.002632,74.585936 64,74.585936 54.081652,74.585936 44,80.8035 44,97.875 V 126 c 0,0 0,4 4,4 4,0 4,-4 4,-4 V 97.875 C 51.99654,84.90092 57.870092,82 64,82 c 6.129904,0 12,4.805812 12,13.585936 V 126 c 0,0 0,4 4,4 4,0 4,-4 4,-4 V 95.585936 C 84,86.805812 89.8701,82 96,82 c 3.89164,0 12.03125,1.368032 12.03125,13.585936 l 0.23436,10.382814 C 108.26562,125.15441 119.97351,130 128,130 c 8.02648,0 19.75475,-5.65784 20,-22.63281 V 81.398436 c 0,-4.672584 -8,-4.672584 -8,0 V 106.96094 C 140,119.83848 132.01324,122 128,122 c -4.01325,0 -12.05469,-1.34145 -12.05469,-16.42969 l -0.23436,-9.421874 C 115.71094,81.596012 106.19821,74 96,74 Z"/>
  <path style="opacity:0.2;fill:#ffffff" d="M 96 14 C 51.817188 14 16 49.817188 16 94 C 16 94.173563 16.008409 94.344888 16.011719 94.517578 C 16.272686 50.557949 51.978966 15 96 15 C 140.02103 15 175.72731 50.557949 175.98828 94.517578 C 175.99159 94.344888 176 94.173563 176 94 C 176 49.817188 140.18281 14 96 14 z "/>
</svg>
