<?xml version='1.0' encoding='utf-8'?>
<svg xmlns="http://www.w3.org/2000/svg" width="192" height="192" version="1" id="svg28">
  <defs>
    <filter style="color-interpolation-filters:sRGB" id="filter6495" x="0.05" y="0.05" width="1.10" height="1.10">
      <feGaussianBlur stdDeviation="3.20"/>
    </filter>
    <filter style="color-interpolation-filters:sRGB" id="filter4826" x="0.09" y="0.13" width="1.19" height="1.25">
      <feGaussianBlur stdDeviation="3.76"/>
    </filter>
  </defs>
  <rect transform="matrix(0,-1,-1,0,0,0)" ry="12" rx="12" y="-176" x="-180" height="160" width="160" style="filter:url(#filter6495);opacity:0.20;fill:#000000"/>
  <rect transform="matrix(0,-1,-1,0,0,0)" ry="12" rx="12" y="-176" x="-176" height="160" width="160" style="fill:#ef313f"/>
  <path style="filter:url(#filter4826);opacity:0.20;fill:#000000" d="M 48,62 V 78 94 H 51.25 54 V 90.71 87 h 5.22 C 68.00,87 72.69,81.45 73.00,74.95 73.02,74.11 73.15,73.84 73,73 73,67.57 68,62 62,62 l -6.03,0.10 z m 34.23,0 C 79.90,61.97 78.01,62.88 78,64.98 V 78.93 94 h 3.24 3.24 L 92.35,83.71 100,73.41 V 83 94 h 3 4 V 78 62 l -3.23,0.01 -3.23,0.01 L 92.66,72.21 85,82.41 V 72 62 Z M 114,62 v 16 16 h 9.54 c 7.60,0 10.00,0.10 11.79,0.51 1.24,0.28 2.85,0.86 3.59,-1.29 2.65,-1.54 4.35,-5.18 4.04,-8.65 0.15,-1.69 -1.39,-4.78 -2.10,-5.22 0.19,0.12 0.01,0.66 0.46,-1.36 3.38,-5.04 1.31,-12.09 -4.17,-14.20 C 135.90,62.29 134.44,62 125,62 Z m -60,6 4.15,0.11 c 3.89,0.10 4.23,0.16 5.41,0.99 1.67,1.17 2.44,2.88 2.44,5.42 0.00,1.66 0.15,2.24 0.86,3.32 -1.48,2.27 -2.85,2.83 -7.29,3.01 L 54,81 v -6.50 z m 66,0 h 7.19 4.71 c 2.40,0 4.03,0.61 4.10,3 0.07,2.39 -2.09,3 -3.60,3 H 127.19 120 v -3 z m 0,14 h 7.19 4.71 c 2.40,0 4.03,0.61 4.10,3 0.07,2.39 -2.09,3 -3.60,3 H 127.19 120 v -3 z m -72,19 v 16 16 H 51.28 55 v -14 -11 h 8 8 v -3 -4 H 60 Z m 41,0 a 16,16 0 0 0 -16,16 16,16 0 0 0 16,16 16,16 0 0 0 16,-16 16,16 0 0 0 -16,-16 z m 21,0 v 16 16 h 17 17 l 0.01,-14.66 h 0.00 c 0.00,-11.08 0.10,-14.85 0.39,-15.44 0.57,-1.15 -2.27,-1.88 -4.36,-1.88 L 137,101 v 13 12 h -3 -4 v -12 -13 l -3,0.02 L 123,101 v 13 12 h -3 -4 v -12 -13 h -3 z m -21,7 a 9.00,9.00 0 0 1 9,9 9.00,9.00 0 0 1 -9,9 9.00,9.00 0 0 1 -9,-9 9.00,9.00 0 0 1 9,-9 z"/>
  <path style="fill:#ffffff" d="M 114 60 L 114 76 L 114 92 L 123.54 92 C 131.14 92 133.54 91.90 135.33 91.49 C 136.57 91.22 138.18 90.64 138.92 90.21 C 141.57 88.66 143.27 85.02 142.96 81.56 C 142.81 79.87 141.57 76.78 140.87 76.34 C 140.67 76.22 140.86 75.68 141.33 74.98 C 144.71 69.94 142.64 62.89 137.15 60.78 C 135.90 60.29 134.44 60 125 60 L 114 60 z M 120 66 L 127.19 66 L 131.90 66 C 134.30 66 135.93 66.61 136 69 C 136.07 71.39 133.91 72 132.40 72 L 127.19 72 L 120 72 L 120 69 L 120 66 z M 120 80 L 127.19 80 L 131.90 80 C 134.30 80 135.93 80.61 136 83 C 136.07 85.39 133.91 86 132.40 86 L 127.19 86 L 120 86 L 120 83 L 120 80 z "/>
  <path style="opacity:0.20;fill:#ffffff" d="m 28,16 c -6.65,0 -12,5.35 -12,12 v 1 c 0,-6.65 5.35,-12 12,-12 h 136 c 6.65,0 12,5.35 12,12 v -1 c 0,-6.65 -5.35,-12 -12,-12 z"/>
  <path style="fill:#ffffff" d="M 92.35,81.71 100,71.41 V 81 92 h 3 4.00 V 76.00 60 L 103.77,60.01 100.54,60.02 92.66,70.21 85,80.41 V 70 60 l -2.77,0.00 C 79.90,59.97 78.01,60.88 78,62.98 V 76.93 92 h 3.24 3.24 z"/>
  <path style="fill:#ffffff" d="M 48 60 L 48 76 L 48 92 L 51.25 92 L 54 92 L 54 88.71 L 54 85 L 59.22 85 C 68.00 85 72.69 79.45 73.00 72.95 C 73.02 72.11 73.15 71.84 73 71 C 73 65.57 68 60 62 60 L 55.97 60.10 L 48 60 z M 54 66 L 58.15 66.11 C 62.04 66.21 62.39 66.27 63.56 67.09 C 65.23 68.26 66.00 69.97 66 72.51 C 66.00 74.17 65.85 74.75 65.14 75.83 C 63.65 78.10 62.28 78.66 57.84 78.84 L 54 79 L 54 72.50 L 54 66 z "/>
  <path style="fill:#ffffff" d="m 144.00,116.34 c 0.00,-11.08 0.10,-14.85 0.39,-15.44 0.57,-1.15 -2.27,-1.88 -4.36,-1.88 L 137,99 v 13 12 h -3 -4 V 112 99 L 127.00,99.02 123,99 v 13 12 h -3 -4 V 112 99 h -3 l -3,0.00 V 115 131 h 17 17 l 0.01,-14.66 z"/>
  <path style="fill:#ffffff" d="m 55,117 v -11 h 8 8 v -3 -4 H 60 48 v 16 16 H 51.28 55 Z"/>
  <path style="fill:#ffffff" d="M 89 99 A 16 16 0 0 0 73 115 A 16 16 0 0 0 89 131 A 16 16 0 0 0 105 115 A 16 16 0 0 0 89 99 z M 89 106 A 9.00 9.00 0 0 1 98 115 A 9.00 9.00 0 0 1 89 124 A 9.00 9.00 0 0 1 80 115 A 9.00 9.00 0 0 1 89 106 z "/>
</svg>
