<?xml version='1.0' encoding='utf-8'?>
<svg xmlns="http://www.w3.org/2000/svg" width="192" height="192" version="1.1" id="svg12">
  <defs>
    <filter style="color-interpolation-filters:sRGB" id="filter845" x="-0.048000001" y="-0.048000001" width="1.096" height="1.096">
      <feGaussianBlur stdDeviation="3.2"/>
    </filter>
    <filter style="color-interpolation-filters:sRGB" id="filter849" x="-0.056727271" y="-0.041599998" width="1.1134545" height="1.0832">
      <feGaussianBlur stdDeviation="2.08"/>
    </filter>
  </defs>
  <rect width="160" height="160" x="16" y="20" rx="48" ry="48" style="filter:url(#filter845);opacity:0.2"/>
  <rect width="160" height="160" x="16" y="16" rx="48" ry="48" style="fill:#176fd0"/>
  <path d="M 96,54 V 38 h 44 v 16 h -8 c 0,0 -4,0 -4,4 v 72 c 0,8 -4,28 -36,28 C 64,158 52,135.82142 52,116 52,76 96,88 96,88 v 22 c 0,0 -4,-4 -12,-4 -4.8074,0 -12,4 -12,12 0,10.41367 12,16 20,16 12,0 16,-8 16,-12 V 58 c 0,-4 -4,-4 -4,-4 z" style="filter:url(#filter849);opacity:0.2"/>
  <path d="M 96,52 V 36 h 44 v 16 h -8 c 0,0 -4,0 -4,4 v 72 c 0,8 -4,28 -36,28 C 64,156 52,133.82142 52,114 52,74 96,86 96,86 v 22 c 0,0 -4,-4 -12,-4 -4.8074,0 -12,4 -12,12 0,10.41367 12,16 20,16 12,0 16,-8 16,-12 V 56 c 0,-4 -4,-4 -4,-4 z" style="fill:#ffffff"/>
  <path style="opacity:0.1;fill:#ffffff" d="M 64 16 C 37.408 16 16 37.408 16 64 L 16 65 C 16 38.408 37.408 17 64 17 L 128 17 C 154.592 17 176 38.408 176 65 L 176 64 C 176 37.408 154.592 16 128 16 L 64 16 z "/>
</svg>
