<?xml version='1.0' encoding='utf-8'?>
<svg xmlns="http://www.w3.org/2000/svg" width="192" height="192" version="1" id="svg28">
  <defs>
    <filter style="color-interpolation-filters:sRGB" id="filter6495" x="0.05" y="0.05" width="1.10" height="1.10">
      <feGaussianBlur stdDeviation="3.20"/>
    </filter>
    <filter style="color-interpolation-filters:sRGB" id="filter4468" x="0.08" y="0.15" width="1.17" height="1.31">
      <feGaussianBlur stdDeviation="3.33"/>
    </filter>
  </defs>
  <rect transform="matrix(0,-1,-1,0,0,0)" ry="12" rx="12" y="-176" x="-180" height="160" width="160" style="filter:url(#filter6495);opacity:0.20;fill:#000000"/>
  <rect transform="matrix(0,-1,-1,0,0,0)" ry="12" rx="12" y="-176" x="-176" height="160" width="160" style="fill:#e4e4e4"/>
  <path style="opacity:0.20;fill:#ffffff" d="m 28,16 c -6.65,0 -12,5.35 -12,12 v 1 c 0,-6.65 5.35,-12 12,-12 h 136 c 6.65,0 12,5.35 12,12 v -1 c 0,-6.65 -5.35,-12 -12,-12 z"/>
  <path style="filter:url(#filter4468);opacity:0.20;fill:#000000" d="M 99.90,74.95 C 98.82,74.91 98,75.94 98,77.13 v 47.37 c 0,0.83 0.67,1.50 1.50,1.50 h 8 c 0.83,0 1.50,0.67 1.50,-1.50 V 97.59 l 21,21.00 v 0.09 l 1.69,1.69 5.83,5.83 c 1.75,1.75 3.49,0.35 3.49,-1.38 v -9.22 l 0.17,0.17 L 141,115.26 V 77.44 c 0,0.83 0.67,-1.50 -1.50,-1.50 h -8 c 0.83,0 -1.50,0.67 -1.50,1.50 v 26.82 l -21,-21.00 -1.69,-1.69 -5.83,-5.83 c 0.55,0.55 -1.09,0.79 -1.58,0.80 z m -53.38,1.05 c -1.65,0 -1.93,0.85 -1.01,2.76 L 67.25,123.93 c 0.53,0.92 0.84,2.07 2.25,2.07 1.41,0 1.72,-1.15 2.25,-2.07 L 93.48,78.76 c 0.92,-1.91 0.64,-2.76 -1.01,-2.76 h -8.76 c 0.73,0 -1.33,0.16 -1.80,1.38 l -11.61,24.13 c 0.82,1.84 -1.13,1.00 -1.58,0.07 L 57.08,77.39 c 0.47,-1.23 -1.07,-1.38 -1.80,-1.38 z"/>
  <path style="fill:#3f3f3f" d="M 99.90 72.95 C 98.82 72.90 98 73.94 98 75.12 L 98 122.50 C 98 123.33 98.67 124 99.50 124 L 107.50 124 C 108.33 124 109 123.33 109 122.50 L 109 95.59 L 130 116.59 L 130 116.68 L 131.69 118.37 L 137.51 124.19 C 139.26 125.94 141 124.55 141 122.82 L 141 113.60 L 141.17 113.43 L 141 113.26 L 141 75.44 C 141 74.61 140.33 73.94 139.50 73.94 L 131.50 73.94 C 130.67 73.94 130 74.61 130 75.44 L 130 102.26 L 109 81.26 L 107.31 79.58 L 101.49 73.75 C 100.94 73.20 100.39 72.96 99.90 72.95 z M 46.53 74 C 44.88 74 44.60 74.85 45.52 76.76 L 67.25 121.93 C 67.78 122.85 68.09 124 69.50 124 C 70.91 124 71.22 122.85 71.75 121.93 L 93.48 76.76 C 94.40 74.85 94.12 74 92.47 74 L 83.71 74 C 82.98 74 82.39 74.16 81.92 75.38 L 70.31 99.52 C 69.48 101.36 69.17 100.52 68.72 99.59 L 57.08 75.38 C 56.61 74.16 56.02 74 55.29 74 L 46.53 74 z "/>
</svg>
