<?xml version='1.0' encoding='utf-8'?>
<svg xmlns="http://www.w3.org/2000/svg" width="192" height="192" version="1.1" id="svg22">
  <defs>
    <filter style="color-interpolation-filters:sRGB" id="filter908" x="-0.052258065" width="1.1045161" y="-0.044383562" height="1.0887671">
      <feGaussianBlur stdDeviation="2.7"/>
    </filter>
    <filter style="color-interpolation-filters:sRGB" id="filter914" x="-0.048000001" width="1.096" y="-0.048000001" height="1.096">
      <feGaussianBlur stdDeviation="1.6"/>
    </filter>
    <filter style="color-interpolation-filters:sRGB" id="filter926" x="-0.024774193" width="1.0495484" y="-0.76799998" height="2.536">
      <feGaussianBlur stdDeviation="1.28"/>
    </filter>
    <filter style="color-interpolation-filters:sRGB" id="filter930" x="-0.024774193" width="1.0495484" y="-0.76799998" height="2.536">
      <feGaussianBlur stdDeviation="1.28"/>
    </filter>
    <filter style="color-interpolation-filters:sRGB" id="filter934" x="-0.024774193" width="1.0495484" y="-0.76799998" height="2.536">
      <feGaussianBlur stdDeviation="1.28"/>
    </filter>
  </defs>
  <path style="filter:url(#filter908);opacity:0.2;fill:#000000" d="M 59.294922,27 C 55.253981,27 52,30.256946 52,34.300781 V 64 v 36 36 29.69922 C 52,169.74343 55.253981,173 59.294922,173 H 168.70508 C 172.74602,173 176,169.74343 176,165.69922 V 136 100 64 34.300781 C 176,30.256581 172.74602,27 168.70508,27 H 114 Z"/>
  <path style="fill:#185c37" d="m 52,132 v 29.69922 C 52,165.74343 55.253981,169 59.294922,169 H 168.70508 C 172.74602,169 176,165.74343 176,161.69922 V 132 h -62 z"/>
  <rect style="filter:url(#filter926);opacity:0.1;fill:#000000" width="124" height="4" x="52" y="130.14256"/>
  <path style="fill:#107c41" d="m 114,96 h 62 v 36 h -62 z"/>
  <path style="fill:#185c37" d="m 52,96 h 62 v 36 H 52 Z"/>
  <rect style="filter:url(#filter930);opacity:0.1;fill:#000000" width="124" height="4" x="52" y="94"/>
  <path style="fill:#107c41" d="m 52,60.000001 h 62 v 36 H 52 Z"/>
  <rect style="filter:url(#filter914);opacity:0.1;fill:#000000" width="80" height="80" x="16" y="60" rx="7.272727" ry="7.272727"/>
  <path style="fill:#21a366" d="m 114,60.000001 h 62 v 36 h -62 z"/>
  <rect style="filter:url(#filter934);opacity:0.1;fill:#000000" width="124" height="4" x="52" y="58"/>
  <path style="fill:#21a366" d="M 59.294922,23 C 55.253981,23 52,26.256946 52,30.300781 V 60 h 62 V 23 Z"/>
  <path style="fill:#33c481" d="m 114,23 h 54.70588 C 172.74682,23 176,26.2558 176,30.3 V 60 h -62 z"/>
  <rect style="fill:#0e6f3a" width="80" height="80" x="16" y="56" rx="7.272727" ry="7.272727"/>
  <path style="fill:#ffffff" d="M 33,121 49.662637,95.928569 34.400293,71 H 46.68329 L 56.592375,90.317856 67.329055,71 H 78.606432 L 62.948313,95.789284 79,121 H 67.005373 L 56.088461,101.16072 45.06488,121 Z"/>
  <path style="opacity:0.2;fill:#ffffff" d="M 59.294922 23 C 55.253981 23 52 26.256946 52 30.300781 L 52 31.300781 C 52 27.256946 55.253981 24 59.294922 24 L 114 24 L 168.70508 24 C 172.74602 24 176 27.256581 176 31.300781 L 176 30.300781 C 176 26.256581 172.74602 23 168.70508 23 L 114 23 L 59.294922 23 z "/>
</svg>
