<?xml version='1.0' encoding='utf-8'?>
<svg xmlns="http://www.w3.org/2000/svg" width="192" height="192" version="1" id="svg12">
  <defs>
    <filter style="color-interpolation-filters:sRGB" id="filter6949" x="0.05" y="0.15" width="1.10" height="1.30">
      <feGaussianBlur stdDeviation="0.97"/>
    </filter>
    <filter style="color-interpolation-filters:sRGB" id="filter6953" x="0.09" y="0.06" width="1.19" height="1.13">
      <feGaussianBlur stdDeviation="1.83"/>
    </filter>
    <filter style="color-interpolation-filters:sRGB" id="filter836" x="0.05" y="0.05" width="1.10" height="1.10">
      <feGaussianBlur stdDeviation="3.20"/>
    </filter>
  </defs>
  <circle style="filter:url(#filter836);opacity:0.20;fill:#000000" cx="96" cy="100" r="80"/>
  <path style="fill:#1b6ce5" d="m 39.43,152.57 c 31.24,31.24 81.90,31.24 113.14,0 31.24,-31.24 31.24,-81.90 0,-113.14 z"/>
  <path style="fill:#d123ff" d="m 39.43,152.57 c -31.24,-31.24 -31.24,-81.90 0,-113.14 31.24,-31.24 81.90,-31.24 113.14,0 z"/>
  <path style="filter:url(#filter6953);opacity:0.20;fill:#000000;color:#000000" d="m 81,68 c -3.39,0.01 -6.41,2.16 -7.53,5.36 0.00,0.00 0.00,0.00 0.00,0.00 C 73.17,74.79 73,76.31 73,77.95 V 133 c 0,2.76 2.24,5 5,5 2.76,0 5,-2.24 5,-5 v -28 h 32 c 2.76,0 5,-2.24 5,-5 0,-2.76 -2.24,-5 -5,-5 H 83 V 77.95 c 0,-5.27 1.92,-7.04 3.97,-8.38 C 88.93,68.29 90.71,68.03 90.90,68 Z"/>
  <path style="fill:#ffffff;color:#000000" d="m 81,66 c -3.39,0.01 -6.41,2.16 -7.53,5.36 0.00,0.00 0.00,0.00 0.00,0.00 C 73.17,72.79 73,74.31 73,75.95 V 131 c 0,2.76 2.24,5 5,5 2.76,0 5,-2.24 5,-5 v -28 h 32 c 2.76,0 5,-2.24 5,-5 0,-2.76 -2.24,-5 -5,-5 H 83 V 75.95 c 0,-5.27 1.92,-7.04 3.97,-8.38 C 88.93,66.29 90.71,66.03 90.90,66 Z"/>
  <path style="filter:url(#filter6949);opacity:0.20;fill:#000000;color:#000000" d="m 90.49,58 c 0.18,0.00 0.36,0.01 0.53,0.03 0,0 -4.25,0.42 -8.44,3.15 -3.37,2.20 -6.82,6.32 -8.05,12.18 C 74.59,70.16 77.61,68.01 81,68 H 90.90 115 c 2.76,0 5,-2.24 5,-5 0,-2.76 -2.24,-5 -5,-5 z"/>
  <path style="fill:#ffffff;color:#000000" d="m 90.49,56 c 0.18,0.00 0.36,0.01 0.53,0.03 0,0 -4.25,0.42 -8.44,3.15 -3.37,2.20 -6.82,6.32 -8.05,12.18 C 74.59,68.16 77.61,66.01 81,66 H 90.90 115 c 2.76,0 5,-2.24 5,-5 0,-2.76 -2.24,-5 -5,-5 z"/>
  <path style="opacity:0.40;fill:#ffffff" d="m 50.04,50.04 c -23.15,23.20 -25.40,60.01 -5.25,85.86 l 4.99,-4.99 C 32.35,107.84 34.57,75.46 54.99,54.99 70.87,39.12 93.94,34.22 114.26,40.97 l -6.61,6.61 28.28,-2.83 C 110.07,24.58 73.24,26.85 50.04,50.04 Z"/>
  <path style="opacity:0.40;fill:#ffffff" d="m 142.00,141.92 c 23.15,-23.20 25.40,-60.01 5.25,-85.86 l -4.99,4.99 c 17.43,23.07 15.21,55.45 -5.21,75.92 -15.88,15.87 -38.95,20.77 -59.28,14.02 l 6.61,-6.61 -28.28,2.83 c 25.87,20.16 62.71,17.89 85.90,-5.29 z"/>
  <path style="opacity:0.20;fill:#ffffff" d="M 96,16 A 80,80 0 0 0 16,96 80,80 0 0 0 16.04,96.50 80,80 0 0 1 96,17 80,80 0 0 1 175.98,96.25 80,80 0 0 0 176,96 80,80 0 0 0 96,16 Z"/>
</svg>
