<svg xmlns="http://www.w3.org/2000/svg" id="svg28" width="192" height="192" version="1"><defs><filter style="color-interpolation-filters:sRGB" id="filter3631" width="1.1" height="1.1" x=".05" y=".05"><feGaussianBlur stdDeviation="3.2"/></filter><filter style="color-interpolation-filters:sRGB" id="filter3714" width="1.1" height="1.12" x=".05" y=".06"><feGaussianBlur stdDeviation="2.06"/></filter></defs><rect width="160" height="160" x="-180" y="-176" rx="18" ry="18" transform="matrix(0,-1,-1,0,0,0)" style="filter:url(#filter3631);opacity:.2;fill:#000"/><rect width="160" height="160" x="-176" y="-176" rx="18" ry="18" transform="matrix(0,-1,-1,0,0,0)" style="fill:#1094fd"/><path style="filter:url(#filter3714);opacity:.2;fill:#000" d="m 57,58 c -5.54,0 -10,4.46 -10,10 v 12 h 9 V 67 h 80 v 62 h -31 v 9 h 30 c 5.54,0 10,-4.46 10,-10 V 68 c 0,-5.54 -4.46,-10 -10,-10 z M 47,88 v 10 c 22.15,0 40.00,17.85 40,40 h 10 c 0.00,-27.55 -22.45,-50 -50,-50 z m 0,18 v 10 c 12.21,0 22,9.79 22,22 H 79 C 79,120.39 64.61,106 47,106 Z m 0,18 v 14 H 61 A 14,14 0 0 0 47,124 Z"/><path style="fill:#fff" d="M 57 56 C 51.46 56 47 60.46 47 66 L 47 78 L 56 78 L 56 65 L 136 65 L 136 127 L 105 127 L 105 136 L 135 136 C 140.54 136 145 131.54 145 126 L 145 66 C 145 60.46 140.54 56 135 56 L 57 56 z M 47 86 L 47 96 C 69.15 96 87.00 113.85 87 136 L 97 136 C 97.00 108.45 74.55 86 47 86 z M 47 104 L 47 114 C 59.21 114 69 123.79 69 136 L 79 136 C 79 118.39 64.61 104 47 104 z M 47 122 L 47 136 L 61 136 A 14 14 0 0 0 47 122 z"/><path style="opacity:.2;fill:#fff" d="M 34 16 C 24.03 16 16 24.03 16 34 L 16 35 C 16 25.03 24.03 17 34 17 L 158 17 C 167.97 17 176 25.03 176 35 L 176 34 C 176 24.03 167.97 16 158 16 L 34 16 z"/></svg>