<?xml version='1.0' encoding='utf-8'?>
<svg xmlns="http://www.w3.org/2000/svg" width="192" height="192" version="1.1" id="svg12">
  <defs>
    <filter style="color-interpolation-filters:sRGB" id="filter845" x="-0.048000001" y="-0.048000001" width="1.096" height="1.096">
      <feGaussianBlur stdDeviation="3.2"/>
    </filter>
    <filter style="color-interpolation-filters:sRGB" id="filter867" x="-0.046474244" y="-0.039835066" width="1.0929485" height="1.0796701">
      <feGaussianBlur stdDeviation="1.8589698"/>
    </filter>
  </defs>
  <circle style="filter:url(#filter845);opacity:0.2" cx="96" cy="100" r="80"/>
  <circle style="fill:#e4e4e4" cx="96" cy="96" r="80"/>
  <path style="opacity:0.2;fill:#ffffff" d="M 96 16 A 80 80 0 0 0 16 96 A 80 80 0 0 0 16.023438 96.638672 A 80 80 0 0 1 96 17 A 80 80 0 0 1 175.98438 96.298828 A 80 80 0 0 0 176 96 A 80 80 0 0 0 96 16 z "/>
  <path style="filter:url(#filter867);opacity:0.2" d="m 76.653292,79.169419 c 21.53262,-7.369856 25.197748,-26.567872 22.448904,-44.219129 0,-0.6369 0.549764,-1.091833 1.099534,-0.90986 C 120.81807,44.048875 144,65.885483 144,98.640389 144,123.75249 124.39157,145.95304 95.895204,145.95304 A 45.814084,45.492928 0 0 1 70.05606,61.609147 c 0.549772,-0.36396 1.282796,0 1.282796,0.6369 0.27488,3.366476 1.191168,11.828164 4.947924,16.923372 z"/>
  <path style="fill:#ff5473" d="m 76.653292,77.16942 c 21.53262,-7.369856 25.197748,-26.567872 22.448904,-44.21913 0,-0.6369 0.549764,-1.09183 1.099534,-0.90986 C 120.81807,42.048876 144,63.885484 144,96.640392 144,121.75249 124.39157,143.95304 95.895204,143.95304 A 45.814084,45.492928 0 0 1 70.05606,59.609148 c 0.549772,-0.36396 1.282796,0 1.282796,0.6369 0.27488,3.366476 1.191168,11.828164 4.947924,16.923372 z"/>
</svg>
