<?xml version='1.0' encoding='utf-8'?>
<svg xmlns="http://www.w3.org/2000/svg" width="192" height="192" version="1" id="svg16">
  <defs>
    <filter style="color-interpolation-filters:sRGB" id="filter867" x="-0.048000001" width="1.096" y="-0.048000001" height="1.096">
      <feGaussianBlur stdDeviation="3.2"/>
    </filter>
    <filter style="color-interpolation-filters:sRGB" id="filter1826" x="-0.043221059" y="-0.055046717" width="1.0864421" height="1.1100934">
      <feGaussianBlur stdDeviation="2.2936133"/>
    </filter>
  </defs>
  <rect ry="80" rx="80" height="160" width="160" y="-176" x="-180" transform="matrix(0,-1,-1,0,0,0)" style="filter:url(#filter867);opacity:0.2;fill:#000000"/>
  <rect style="fill:#8b4ccb" transform="matrix(0,-1,-1,0,0,0)" x="-176" y="-176" width="160" height="160" rx="80" ry="80"/>
  <path style="filter:url(#filter1826);opacity:0.2;fill:#000000" d="m 96,48 c -27.614235,0 -50,22.385765 -50,50 0,27.61424 22.385765,50 50,50 h 60.51712 c 2.5158,-3.14603 4.79497,-6.48868 6.81836,-10 H 96 C 73.90861,138 56,120.09139 56,98 56,75.90861 73.90861,58 96,58 Z m 0,15 c -19.329965,0 -35,15.670035 -35,35 0,19.32997 15.670035,35 35,35 h 70.00345 c 1.55954,-3.21592 2.89702,-6.55832 4.02148,-10 H 96 C 82.19288,123 71,111.80712 71,98 71,84.19288 82.19288,73 96,73 c 3.442335,0.0039 6.84677,0.718734 10,2.099609 V 64.494141 C 102.75655,63.514706 99.38808,63.011405 96,63 Z m 0,15 c -11.045695,0 -20,8.954305 -20,20 0,11.04569 8.954305,20 20,20 h 75.49954 c 0.8317,-3.25436 1.44027,-6.59694 1.86133,-10 H 96 c -5.522845,0 -10,-4.47715 -10,-10 0,-5.522845 4.477155,-10 10,-10 3.56634,0.0065 6.85942,1.91145 8.64258,5 h 10.69336 C 113.05865,84.18007 105.10917,78.0132 96,78 Z"/>
  <path style="opacity:0.2;fill:#ffffff" d="M 96 16 C 51.68 16 16 51.68 16 96 C 16 96.336 16.002 96.6675 16 97 C 16 52.68 51.68 17 96 17 C 140.32 17 176 52.68 176 97 C 175.998 96.6675 176 96.336 176 96 C 176 51.68 140.32 16 96 16 z "/>
  <path style="fill:#ffffff" d="M 96 46 C 68.385765 46 46 68.385765 46 96 C 46 123.61424 68.385765 146 96 146 L 158.51758 146 C 161.03338 142.85397 163.31255 139.51132 165.33594 136 L 96 136 C 73.90861 136 56 118.09139 56 96 C 56 73.90861 73.90861 56 96 56 L 96 46 z "/>
  <path style="fill:#cba3fa" d="M 96 61 C 76.670035 61 61 76.670035 61 96 C 61 115.32997 76.670035 131 96 131 L 168.00391 131 C 169.56345 127.78408 170.90093 124.44168 172.02539 121 L 96 121 C 82.19288 121 71 109.80712 71 96 C 71 82.19288 82.19288 71 96 71 C 99.442335 71.0039 102.84677 71.718734 106 73.099609 L 106 62.494141 C 102.75655 61.514706 99.38808 61.011405 96 61 z "/>
  <path style="fill:#b176f8" d="M 96 76 C 84.954305 76 76 84.954305 76 96 C 76 107.04569 84.954305 116 96 116 L 173.5 116 C 174.3317 112.74564 174.94027 109.40306 175.36133 106 L 96 106 C 90.477155 106 86 101.52285 86 96 C 86 90.477155 90.477155 86 96 86 C 99.56634 86.0065 102.85942 87.91145 104.64258 91 L 115.33594 91 C 113.05865 82.18007 105.10917 76.0132 96 76 z "/>
</svg>
