<?xml version='1.0' encoding='utf-8'?>
<svg xmlns="http://www.w3.org/2000/svg" width="192" height="192" version="1" id="svg16">
  <defs>
    <filter style="color-interpolation-filters:sRGB" id="filter867" x="0.05" width="1.10" y="0.05" height="1.10">
      <feGaussianBlur stdDeviation="3.20"/>
    </filter>
    <filter style="color-interpolation-filters:sRGB" id="filter2828" x="0.10" y="0.06" width="1.20" height="1.12">
      <feGaussianBlur stdDeviation="2.03"/>
    </filter>
  </defs>
  <rect ry="80" rx="80" height="160" width="160" y="-176" x="-180" transform="matrix(0,-1,-1,0,0,0)" style="filter:url(#filter867);opacity:0.20;fill:#000000"/>
  <rect style="fill:#0ec7ae" transform="matrix(0,-1,-1,0,0,0)" x="-176" y="-176" width="160" height="160" rx="80" ry="80"/>
  <path style="opacity:0.20;fill:#ffffff" d="M 96 16 C 51.68 16 16 51.68 16 96 C 16 96.34 16.00 96.67 16 97 C 16 52.68 51.68 17 96 17 C 140.32 17 176 52.68 176 97 C 176.00 96.67 176 96.34 176 96 C 176 51.68 140.32 16 96 16 z "/>
  <path style="filter:url(#filter2828);opacity:0.20;fill:#000000" d="m 103.00,60.00 -5.68,0.00 c -11.09,0.00 -17.29,1.83 -21.90,6.46 -2.08,2.09 -3.83,5.26 -4.71,8.55 0.80,2.97 0.96,10.26 0.30,13.29 1.29,5.93 4.81,10.55 9.93,13.00 3.44,1.65 5.96,2.29 10.09,2.50 l 3.57,0.18 v 7.98 c 0,15.27 -1.03,17.95 -5.49,20.16 -1.86,0.92 -2.33,1.02 -4.74,1.00 -3.49,0.06 -5.57,-1.20 -8.77,-1.79 v 8.98 c 1.57,0.51 5.87,1.22 7.90,1.51 2.76,0.39 9.35,0.14 12.27,0.47 5.55,-1.16 9.43,-3.04 12.93,-6.25 3.53,-3.24 5.99,-7.40 7.51,-12.69 1.90,-6.59 2.45,-7.43 2.41,-39.13 L 118.00,60.00 h -5 -4 v 35 c 0,0 0.04,16.94 0.13,18.86 0.71,7.56 -2.43,12.10 -5.99,15.76 -1.18,1.21 -2.22,2.47 -2.30,2.38 0.98,-5.24 2.42,-12.00 2.49,-17.82 0.02,-6.29 0.07,-15.21 0.07,-24.57 z"/>
  <path style="fill:#fcfdfd" d="m 103.00,58.00 -5.68,0.00 c -11.09,0.00 -17.29,1.83 -21.90,6.46 -2.08,2.09 -3.83,5.26 -4.71,8.55 0.80,2.97 0.96,10.26 0.30,13.29 1.29,5.93 4.81,10.55 9.93,13.00 3.44,1.65 5.96,2.29 10.09,2.50 l 3.57,0.18 v 7.98 c 0,15.27 -1.03,17.95 -5.49,20.16 -1.86,0.92 -2.33,1.02 -4.74,1.00 -3.49,0.06 -5.57,-1.20 -8.77,-1.79 v 8.98 c 1.57,0.51 5.87,1.22 7.90,1.51 2.76,0.39 9.35,0.14 12.27,0.47 5.55,-1.16 9.43,-3.04 12.93,-6.25 3.53,-3.24 5.99,-7.40 7.51,-12.69 1.90,-6.59 2.45,-7.43 2.41,-39.13 l 0.03,-23.27 h -5 -4 v 35 c 0,0 0.04,16.94 0.13,18.86 0.71,7.56 -2.43,12.10 -5.99,15.76 -1.18,1.21 -2.22,2.47 -2.30,2.38 0.98,-5.24 2.42,-12.00 2.49,-17.82 0.02,-6.29 0.07,-15.21 0.07,-24.57 z"/>
</svg>
