<?xml version='1.0' encoding='utf-8'?>
<svg xmlns="http://www.w3.org/2000/svg" width="192" height="192" version="1" id="svg16">
  <defs>
    <filter style="color-interpolation-filters:sRGB" id="filter858" x="-0.0352" width="1.0704" y="-0.075428571" height="1.1508571">
      <feGaussianBlur stdDeviation="1.76"/>
    </filter>
    <filter style="color-interpolation-filters:sRGB" id="filter878" x="-0.048000001" width="1.096" y="-0.048000001" height="1.096">
      <feGaussianBlur stdDeviation="3.2"/>
    </filter>
  </defs>
  <rect style="filter:url(#filter878);opacity:0.2" width="160" height="160" x="16" y="20" rx="48" ry="48"/>
  <rect style="fill:#e4e4e4" width="160" height="160" x="16" y="16" rx="48" ry="48"/>
  <path style="filter:url(#filter858);opacity:0.1" d="M 64 70 A 28 28 0 0 0 36 98 A 28 28 0 0 0 64 126 A 28 28 0 0 0 92 98 A 28 28 0 0 0 64 70 z M 128 70 A 28 28 0 0 0 100 98 A 28 28 0 0 0 128 126 A 28 28 0 0 0 156 98 A 28 28 0 0 0 128 70 z "/>
  <circle style="fill:#296ec6" cx="64" cy="96" r="28"/>
  <circle style="fill:#e03c90" cx="128" cy="96" r="28"/>
  <path style="opacity:0.2;fill:#ffffff" d="M 64 16 C 37.408 16 16 37.408 16 64 L 16 65 C 16 38.408 37.408 17 64 17 L 128 17 C 154.592 17 176 38.408 176 65 L 176 64 C 176 37.408 154.592 16 128 16 L 64 16 z "/>
</svg>
