<?xml version='1.0' encoding='utf-8'?>
<svg xmlns="http://www.w3.org/2000/svg" width="192" height="192" version="1.1" id="svg14">
  <defs>
    <filter style="color-interpolation-filters:sRGB" id="filter4691" x="0.08" y="0.07" width="1.17" height="1.14">
      <feGaussianBlur stdDeviation="3.05"/>
    </filter>
    <filter style="color-interpolation-filters:sRGB" id="filter4736" x="0.05" y="0.05" width="1.10" height="1.10">
      <feGaussianBlur stdDeviation="3.20"/>
    </filter>
    <filter style="color-interpolation-filters:sRGB" id="filter4786" x="0.09" y="0.09" width="1.17" height="1.19">
      <feGaussianBlur stdDeviation="1.66"/>
    </filter>
  </defs>
  <circle style="filter:url(#filter4736);opacity:0.20;fill:#000000" cx="96" cy="100" r="80"/>
  <circle style="fill:#0eb4ff" cx="96" cy="96" r="80"/>
  <path style="filter:url(#filter4691);opacity:0.20;fill:#000000" d="m 96,42.00 c -4.47,0.57 -7.82,4.12 -12.02,9.76 -6.05,8.12 -16.17,17.99 -25.86,33.49 C 53.39,92.81 52,100.78 52,106.31 52,129.89 71.70,149 96,149 c 24.30,0 44,-19.11 44,-42.69 0,-5.53 -1.39,-13.49 -6.12,-21.05 C 124.19,69.74 114.08,59.88 108.02,51.76 103.82,46.12 100.47,42.57 96,42.00 Z"/>
  <path style="fill:#ebf9fe" d="M 96 39 C 91.53 39.57 88.18 43.12 83.98 48.76 C 77.92 56.88 67.81 66.74 58.12 82.25 C 53.39 89.81 52 97.78 52 103.31 C 52 126.89 71.70 146 96 146 C 120.30 146 140 126.89 140 103.31 C 140 97.78 138.61 89.81 133.88 82.25 C 124.19 66.74 114.08 56.88 108.02 48.76 C 103.82 43.12 100.47 39.57 96 39 z "/>
  <path style="filter:url(#filter4786);opacity:0.20;fill:#000000" d="m 78,85 a 5,5 0 0 0 -5,5 5,5 0 0 0 5,5 5,5 0 0 0 5,-5 5,5 0 0 0 -5,-5 z m 36,0 a 5,5 0 0 0 -5,5 5,5 0 0 0 5,5 5,5 0 0 0 5,-5 5,5 0 0 0 -5,-5 z m -34,18 v 9 c 0,3.72 1.28,7.14 3.41,9.85 a 15,15 0 0 0 0.00,0.01 c 0.03,0.04 0.07,0.09 0.11,0.13 0.05,0.06 0.09,0.12 0.14,0.18 0.03,0.04 0.07,0.07 0.11,0.11 C 86.69,125.77 91.08,128 96,128 c 4.91,0 9.30,-2.22 12.24,-5.71 0.04,0.05 0.09,0.09 0.13,0.14 0.04,0.05 0.08,0.11 0.13,0.17 0.03,0.04 0.07,0.08 0.10,0.12 a 15,15 0 0 0 0.00,0.01 C 110.72,119.14 112,115.72 112,112 v -9 z"/>
  <circle style="fill:#414141" cx="78" cy="88" r="5"/>
  <circle style="fill:#ffffff" cx="76" cy="86" r="1"/>
  <circle style="fill:#414141" cx="114" cy="88" r="5"/>
  <circle style="fill:#ffffff" cx="112" cy="86" r="1"/>
  <path style="fill:#414141" d="m 80,101 v 9 c 0,3.86 1.37,7.41 3.65,10.17 2.93,3.56 7.98,1.60 12.96,1.60 4.98,0 8.83,1.95 11.76,-1.62 C 110.64,117.39 112,113.86 112,110 v -9 z"/>
  <path style="fill:#ff5a5a" d="M 96 113 A 15 15 0 0 0 83.40 119.86 C 86.33 123.60 90.88 126 96 126 C 101.12 126 105.67 123.60 108.60 119.86 A 15 15 0 0 0 96 113 z "/>
  <path style="opacity:0.20;fill:#ffffff" d="M 96 16 A 80 80 0 0 0 16 96 A 80 80 0 0 0 16.04 96.50 A 80 80 0 0 1 96 17 A 80 80 0 0 1 175.98 96.25 A 80 80 0 0 0 176 96 A 80 80 0 0 0 96 16 z "/>
</svg>
