<?xml version='1.0' encoding='utf-8'?>
<svg xmlns="http://www.w3.org/2000/svg" width="192" height="192" version="1" id="svg16">
  <defs>
    <filter style="color-interpolation-filters:sRGB" id="filter853" x="-0.048000001" width="1.096" y="-0.048000001" height="1.096">
      <feGaussianBlur stdDeviation="3.2"/>
    </filter>
    <filter style="color-interpolation-filters:sRGB" id="filter904" x="-0.05142857" width="1.1028571" y="-0.045" height="1.09">
      <feGaussianBlur stdDeviation="1.2000002"/>
    </filter>
  </defs>
  <rect style="filter:url(#filter853);opacity:0.2;fill:#000000" width="160" height="160" x="-180" y="-176" rx="80" ry="80" transform="matrix(0,-1,-1,0,0,0)"/>
  <rect transform="matrix(0,-1,-1,0,0,0)" ry="80" rx="80" y="-176" x="-176" height="160" width="160" style="fill:#e4e4e4"/>
  <path style="opacity:0.2;fill:#ffffff" d="M 96 16 C 51.684 16 16.007812 51.68 16.007812 96 C 16.007812 96.33544 16.009812 96.667215 16.007812 97 C 16.007812 52.68 51.684 17 96 17 C 140.316 17 175.99219 52.68 175.99219 97 C 175.99019 96.667215 175.99219 96.33544 175.99219 96 C 175.99219 51.68 140.316 16 96 16 z "/>
  <rect transform="matrix(0,-1,-1,0,0,0)" ry="60" rx="60" y="-156" x="-156" height="120" width="120" style="fill:#2190df"/>
  <path d="M 79.070292,68.002022 A 6.904874,7.066546 0 0 0 72,75.06479 v 49.87687 a 6.904874,7.066546 0 0 0 10.35186,6.11482 l 21.11144,-12.45881 21.10148,-12.47963 a 6.904874,7.066546 0 0 0 0,-12.219214 L 103.4633,81.41919 82.35186,68.960394 a 6.904874,7.066546 0 0 0 -3.281568,-0.958372 z" style="filter:url(#filter904);opacity:0.2"/>
  <path d="M 79.070292,64.002028 A 6.904874,7.066546 0 0 0 72,71.064796 v 49.876864 a 6.904874,7.066546 0 0 0 10.35186,6.11482 l 21.11144,-12.45881 21.10148,-12.47963 a 6.904874,7.066546 0 0 0 0,-12.219208 L 103.4633,77.419196 82.35186,64.9604 a 6.904874,7.066546 0 0 0 -3.281568,-0.958372 z" style="fill:#ffffff"/>
</svg>
