<svg xmlns="http://www.w3.org/2000/svg" id="svg24" width="192" height="192" version="1.1"><defs><filter style="color-interpolation-filters:sRGB" id="filter2081" width="1.09" height="1.11" x=".04" y=".05"><feGaussianBlur stdDeviation="2.88"/></filter><filter style="color-interpolation-filters:sRGB" id="filter2085" width="1.11" height="1.08" x=".06" y=".04"><feGaussianBlur stdDeviation="2.24"/></filter><filter style="color-interpolation-filters:sRGB" id="filter2089" width="1.08" height="4.08" x=".04" y="-1.54"><feGaussianBlur stdDeviation="2.56"/></filter><filter style="color-interpolation-filters:sRGB" id="filter2093" width="1.15" height="1.15" x=".07" y=".07"><feGaussianBlur stdDeviation="2.75"/></filter></defs><rect style="filter:url(#filter2085);opacity:.2" width="96" height="128" x="48" y="44" rx="8" ry="8"/><rect style="fill:#8e8e8e" width="96" height="128" x="48" y="40" rx="8" ry="8"/><rect style="filter:url(#filter2081);opacity:.2" width="160" height="128" x="16" y="28" rx="8" ry="8"/><path style="fill:#3f3f3f" d="m 16,136 v 8 c 0,4.43 3.57,8 8,8 h 144 c 4.43,0 8,-3.57 8,-8 v -8 z"/><rect style="filter:url(#filter2089);opacity:.2" width="160" height="4" x="16" y="136"/><path style="fill:#0085e5" d="m 24,24 c -4.43,0 -8,3.57 -8,8 V 136 H 176 V 32 c 0,-4.43 -3.57,-8 -8,-8 z"/><path style="opacity:.2;fill:#fff" d="M 24 24 C 19.57 24 16 27.57 16 32 L 16 33 C 16 28.57 19.57 25 24 25 L 168 25 C 172.43 25 176 28.57 176 33 L 176 32 C 176 27.57 172.43 24 168 24 L 24 24 z"/><circle style="filter:url(#filter2093);opacity:.2" cx="144" cy="141" r="44"/><circle style="fill:#f15a38" cx="144" cy="137" r="44"/><path style="fill:#fff" d="M 123.26,125.00 116,132.00 129.48,145.00 116,158.00 l 7.26,7.00 20.74,-20 z"/><path style="fill:#fff" d="M 160.74,105.00 168,112.00 154.52,125.00 168,138.00 l -7.26,7.00 -20.74,-20 z"/></svg>