<?xml version='1.0' encoding='utf-8'?>
<svg xmlns="http://www.w3.org/2000/svg" width="192" height="192" version="1" id="svg12">
  <defs>
    <filter style="color-interpolation-filters:sRGB" id="filter860" x="0.05" width="1.10" y="0.05" height="1.10">
      <feGaussianBlur stdDeviation="3.20"/>
    </filter>
    <filter style="color-interpolation-filters:sRGB" id="filter894" x="0.06" width="1.11" y="0.04" height="1.08">
      <feGaussianBlur stdDeviation="2.10"/>
    </filter>
  </defs>
  <rect style="filter:url(#filter860);opacity:0.20" width="160" height="160" x="16" y="20" rx="48" ry="48"/>
  <rect style="fill:#0069d7" width="160" height="160" x="16" y="16" rx="48" ry="48"/>
  <path style="filter:url(#filter894);opacity:0.20;fill:#000000" d="M 95.86,40 C 79.34,40.08 66.00,53.49 66,70 c 0.00,0.33 0.00,0.67 0.02,1.00 3.59,0.74 7.27,-1.38 11.00,-1.86 C 77.48,59.05 85.75,51.08 95.84,51 c 0.05,0.00 0.10,0.00 0.16,0 10.17,0.00 18.54,8.02 18.98,18.18 3.64,0.46 7.30,1.06 11.00,1.83 C 125.99,70.67 126.00,70.34 126,70 126,53.43 112.57,40 96,40 c 0.05,0.00 0.10,0.00 0.14,0 z m -2.48,34.00 c -13.19,0.09 -27.11,2.48 -38.51,6.04 l -3.75,1.19 0.10,7.63 c 0.14,11.03 0.69,17.49 3.27,25.63 3.69,11.63 9.68,21.32 18.62,30.13 3.87,3.81 6.44,5.90 11.09,9.01 C 87.44,155.95 95.10,160 96,160 c 0.26,0 2.28,0.91 4.50,-2.02 6.96,-3.48 12.95,-7.79 18.60,-13.36 8.94,-8.81 14.93,-18.50 18.62,-30.13 2.56,-8.07 3.41,-14.71 3.27,-25.63 l 0.10,-7.63 -3.75,-1.19 C 122.84,75.69 109.58,74.03 96,74.02 c 0.87,0.02 -1.75,0.02 -2.63,0.01 z M 96,89 a 11,11 0 0 1 11,11 11,11 0 0 1 -7.50,10.43 C 106.09,112.01 111,117.92 111,125 c 0,0 -29.99,0.23 -30,0 0,-7.08 4.91,-12.99 11.50,-14.57 A 11,11 0 0 1 85,100 11,11 0 0 1 96,89 Z"/>
  <path style="fill:#ffffff" d="M 95.86 36 C 79.34 36.08 66.00 49.49 66 66 C 66.00 66.33 66.00 66.67 66.02 67.00 C 69.60 66.25 73.28 65.62 77.02 65.14 C 77.48 55.05 85.75 47.08 95.84 47 C 95.90 47.00 95.95 47.00 96 47 C 106.17 47.00 114.54 55.02 114.98 65.18 C 118.62 65.64 122.28 66.24 125.98 67.01 C 125.99 66.67 126.00 66.34 126 66 C 126 49.43 112.57 36 96 36 C 95.95 36.00 95.90 36.00 95.86 36 z M 93.37 70.00 C 80.18 70.09 66.26 72.48 54.86 76.05 L 51.11 77.24 L 51.01 84.87 C 50.88 95.91 51.70 102.36 54.28 110.50 C 57.97 122.13 63.96 131.82 72.90 140.63 C 76.77 144.44 79.34 146.53 83.99 149.64 C 87.44 151.95 95.10 156 96 156 C 96.26 156 98.28 155.09 100.50 153.98 C 107.45 150.50 113.45 146.20 119.10 140.63 C 128.04 131.82 134.03 122.13 137.72 110.50 C 140.28 102.43 141.13 95.79 140.99 84.87 L 140.89 77.24 L 137.14 76.05 C 122.84 71.69 109.58 70.03 96 70.02 C 95.13 70.00 94.25 70.00 93.37 70.00 z M 96 85 A 11 11 0 0 1 107 96 A 11 11 0 0 1 99.50 106.43 C 106.09 108.01 111 113.92 111 121 C 111 121 81.01 120.77 81 121 C 81 113.92 85.91 108.01 92.50 106.43 A 11 11 0 0 1 85 96 A 11 11 0 0 1 96 85 z "/>
  <path style="opacity:0.10;fill:#ffffff" d="M 64,16 C 37.41,16 16,37.41 16,64 v 1 C 16,38.41 37.41,17 64,17 h 64 c 26.59,0 48,21.41 48,48 V 64 C 176,37.41 154.59,16 128,16 Z"/>
</svg>
