<?xml version='1.0' encoding='utf-8'?>
<svg xmlns="http://www.w3.org/2000/svg" width="192" height="192" version="1" id="svg28">
  <defs>
    <filter style="color-interpolation-filters:sRGB" id="filter28400" x="-0.038999999" y="-0.062399998" width="1.078" height="1.1248">
      <feGaussianBlur stdDeviation="2.6"/>
    </filter>
    <filter style="color-interpolation-filters:sRGB" id="filter28442" x="-0.029346972" y="-0.1317245" width="1.0586939" height="1.263449">
      <feGaussianBlur stdDeviation="1.9564648"/>
    </filter>
    <filter style="color-interpolation-filters:sRGB" id="filter28695" x="-0.14592966" y="-0.08571991" width="1.2918593" height="1.1714398">
      <feGaussianBlur stdDeviation="3.5716628"/>
    </filter>
    <filter style="color-interpolation-filters:sRGB" id="filter28889" x="-0.20312823" y="-0.073553644" width="1.4062565" height="1.1471073">
      <feGaussianBlur stdDeviation="3.0647351"/>
    </filter>
  </defs>
  <path style="filter:url(#filter28442);opacity:0.2;fill:#000000" d="m 26,33.999516 c -5.54,0 -10,4.46 -10,10 V 69.646 H 176 V 55.92725 c 0,-5.54 -4.46,-9.927734 -10,-9.927734 H 80.205078 c -15.838209,0 -7.53563,-12 -24.964844,-12 z"/>
  <path style="fill:#01c58e" d="M 26,32 C 20.46,32 16,36.46 16,42 V 67.646484 H 176 V 53.927734 C 176,48.387734 171.54,44 166,44 H 80.205078 C 64.366869,44 72.669448,32 55.240234,32 Z"/>
  <rect style="filter:url(#filter28400);opacity:0.2;fill:#000000" width="160" height="100" x="16" y="58" ry="10"/>
  <rect style="fill:#09e0a3" width="160" height="100" x="16" y="56" ry="10"/>
  <path style="filter:url(#filter28695);opacity:0.1;fill:#000000" d="M 105.57255,58 C 104.32291,64.603656 103.81838,70.628643 104,76.159145 105.47194,120.98037 149.63109,133.32345 160.29492,158 l 2.25736,-11.94034 c 1.02912,-5.44357 -3.45851,-17.46379 -4.37259,-22.92786 l -6.30441,-37.68558 c -0.91408,-5.464069 3.75896,-9.307071 -1.44967,-11.194344 z"/>
  <path style="fill:#57eec4" d="M 105.57255,56 C 104.32291,62.603656 103.81838,68.628643 104,74.159145 105.47194,118.98037 149.63109,131.32345 160.29492,156 H 166 c 5.54,0 10,-4.46 10,-10 V 66 c 0,-5.54 -4.46,-10 -10,-10 z"/>
  <path style="filter:url(#filter28889);opacity:0.1;fill:#000000" d="M 140.44727,58 C 131.24392,71.674222 127.16436,82.753523 127,92.244693 126.53159,119.29391 154.57166,133.44412 160.82617,158 l 1.74483,-13.5996 c 0.705,-5.49496 1.02335,-11.72604 -0.13003,-17.14465 l -8.6231,-40.51136 c -1.15338,-5.418608 -2.18636,-11.434009 -5.19283,-16.087262 z"/>
  <path style="fill:#94f7da" d="M 140.44727,56 C 131.24392,69.674222 127.16436,80.753523 127,90.244693 126.53159,117.29391 154.57166,131.44412 160.82617,156 H 166 c 5.54,0 10,-4.46 10,-10 V 66 c 0,-5.54 -4.46,-10 -10,-10 z"/>
  <path style="opacity:0.2;fill:#ffffff" d="M 26 56 C 20.46 56 16 60.46 16 66 L 16 67 C 16 61.46 20.46 57 26 57 L 166 57 C 171.54 57 176 61.46 176 67 L 176 66 C 176 60.46 171.54 56 166 56 L 26 56 z "/>
  <path style="opacity:0.1;fill:#ffffff" d="M 26 32 C 20.46 32 16 36.46 16 42 L 16 43 C 16 37.46 20.46 33 26 33 L 55.240234 33 C 72.669448 33 64.366869 45 80.205078 45 L 166 45 C 171.54 45 176 49.387734 176 54.927734 L 176 53.927734 C 176 48.387734 171.54 44 166 44 L 80.205078 44 C 64.366869 44 72.669448 32 55.240234 32 L 26 32 z "/>
</svg>
