<?xml version='1.0' encoding='utf-8'?>
<svg xmlns="http://www.w3.org/2000/svg" width="192" height="192" version="1" id="svg28">
  <rect transform="matrix(0,-1,-1,0,0,0)" ry="10.50" rx="10.50" y="-166" x="-166" height="140" width="140" style="fill:#3981eb"/>
  <path style="opacity:0.20;fill:#ffffff" d="M 36.50,26 C 30.68,26 26,30.68 26,36.50 v 1 C 26,31.68 30.68,27 36.50,27 h 119 c 5.82,0 10.50,4.68 10.50,10.50 v -1 C 166,30.68 161.32,26 155.50,26 Z"/>
  <path style="filter:url(#filter5109);opacity:0.20;fill:#000000;stop-color:#000000" d="m 145,20 a 31,31 0 0 0 -31,31 31,31 0 0 0 31,31 31,31 0 0 0 31,-31 31,31 0 0 0 -31,-31 z m -49,86.08 c -20.32,0 -84,9.54 -84,43.92 v 14.71 C 12,173.18 19.05,180 27.81,180 H 96 164.19 C 172.95,180 180,173.18 180,164.71 V 150 c 0,-34.38 -63.68,-43.92 -84,-43.92 z"/>
  <path style="fill:#1ecc56;stop-color:#000000" d="m 96,102.08 c -20.32,0 -84,9.54 -84,43.92 v 14.71 C 12,169.18 19.05,176 27.81,176 H 96 164.19 C 172.95,176 180,169.18 180,160.71 V 146 c 0,-34.38 -63.68,-43.92 -84,-43.92 z"/>
  <path style="opacity:0.20;fill:#ffffff;stop-color:#000000" d="m 96,102.08 c -20.32,0 -84,9.54 -84,43.92 v 1 c 0,-34.38 63.68,-43.92 84,-43.92 20.32,0 84,9.54 84,43.92 v -1 c 0,-34.38 -63.68,-43.92 -84,-43.92 z"/>
  <path style="fill:#dfdfdf;color:#000000" d="M 96.27,86.05 A 7,7 0 0 0 91.31,88.08 L 58.07,121.03 a 7,7 0 0 0 0.04,9.90 7,7 0 0 0 9.90,0.04 L 101.17,98.02 a 7,7 0 0 0 0.04,-9.90 7,7 0 0 0 -4.94,-2.07 z"/>
  <path style="filter:url(#filter5060);opacity:0.20;fill:#000000;color:#000000" d="M 128.33,93.53 60.33,121.53 a 7,7 0 0 0 -3.81,9.14 7,7 0 0 0 9.14,3.81 l 68.00,-28 a 7,7 0 0 0 3.81,-9.14 7,7 0 0 0 -9.14,-3.81 z"/>
  <path style="fill:#f2f2f2;color:#000000" d="M 128.33,91.53 60.33,119.53 a 7,7 0 0 0 -3.81,9.14 7,7 0 0 0 9.14,3.81 l 68.00,-28 a 7,7 0 0 0 3.81,-9.14 7,7 0 0 0 -9.14,-3.81 z"/>
  <circle style="fill:#fec735;stop-color:#000000" cx="145" cy="47" r="31"/>
  <path style="filter:url(#filter5064);opacity:0.20;fill:#000000;color:#000000" d="m 63,54.00 a 7,7 0 0 0 -4.95,2.05 7,7 0 0 0 0,9.90 l 67.00,67.00 a 7,7 0 0 0 9.90,0 7,7 0 0 0 0,-9.90 L 67.95,56.05 A 7,7 0 0 0 63,54.00 Z"/>
  <path style="fill:#ffffff;color:#000000" d="m 63,52 a 7,7 0 0 0 -4.95,2.05 7,7 0 0 0 0,9.90 l 67.00,67.00 a 7,7 0 0 0 9.90,0 7,7 0 0 0 0,-9.90 L 67.95,54.05 A 7,7 0 0 0 63,52 Z"/>
  <path style="opacity:0.20;fill:#ffffff;stop-color:#000000" d="m 145,16 a 31,31 0 0 0 -31,31 31,31 0 0 0 0.04,0.50 A 31,31 0 0 1 145,17 31,31 0 0 1 175.98,47.25 31,31 0 0 0 176,47 31,31 0 0 0 145,16 Z"/>
  <defs>
    <filter style="color-interpolation-filters:sRGB" id="filter5060" x="0.04" y="0.07" width="1.07" height="1.14">
      <feGaussianBlur stdDeviation="1.24"/>
    </filter>
    <filter style="color-interpolation-filters:sRGB" id="filter5064" x="0.05" y="0.05" width="1.10" height="1.10">
      <feGaussianBlur stdDeviation="1.62"/>
    </filter>
    <filter style="color-interpolation-filters:sRGB" id="filter5109" x="0.05" y="0.05" width="1.09" height="1.10">
      <feGaussianBlur stdDeviation="3.28"/>
    </filter>
  </defs>
</svg>
