<?xml version='1.0' encoding='utf-8'?>
<svg xmlns="http://www.w3.org/2000/svg" width="192" height="192" version="1" id="svg28">
  <defs>
    <filter style="color-interpolation-filters:sRGB" id="filter3781" x="0.05" y="0.04" width="1.11" height="1.09">
      <feGaussianBlur stdDeviation="2.89"/>
    </filter>
    <filter style="color-interpolation-filters:sRGB" id="filter3823" x="0.08" y="0.07" width="1.17" height="1.13">
      <feGaussianBlur stdDeviation="3.44"/>
    </filter>
    <filter style="color-interpolation-filters:sRGB" id="filter3865" x="0.12" y="0.10" width="1.24" height="1.20">
      <feGaussianBlur stdDeviation="2.28"/>
    </filter>
  </defs>
  <path style="filter:url(#filter3781);opacity:0.20;fill:#000000;color:#000000" d="M 95.57,17.79 94.81,52.20 95.57,79.93 35.26,140.07 C 45.97,162.96 69.26,179 96,179 c 36.74,0 67,-30.26 67,-67 C 163,90.48 150.88,73.17 136.62,58.91 122.10,44.39 95.57,17.79 95.57,17.79 Z"/>
  <path style="fill:#2e91ff;color:#000000" d="M 95.57,14.79 94.81,49.20 95.57,76.93 35.26,137.07 C 45.97,159.96 69.26,176 96,176 c 36.74,0 67,-30.26 67,-67 C 163,87.48 150.88,70.17 136.62,55.91 122.10,41.39 95.57,14.79 95.57,14.79 Z"/>
  <path style="filter:url(#filter3823);opacity:0.20;fill:#000000;color:#000000" d="m 95.57,16.78 c 0,0 -34.73,34.80 -46.89,46.98 C 36.55,75.92 29,92.65 29,111.00 c 0,10.00 2.26,19.51 6.26,28.07 L 126.64,47.94 Z"/>
  <path style="fill:#27efff;color:#000000" d="M 95.57 14.79 C 95.57 14.79 60.84 49.58 48.68 61.76 C 36.55 73.92 29 90.65 29 109 C 29 119.00 31.26 128.51 35.26 137.07 L 126.64 45.94 L 95.57 14.79 z "/>
  <path style="filter:url(#filter3865);opacity:0.20;fill:#000000;color:#000000" d="m 96,78.87 c 0,0 23,17.17 23,30.13 0,12.96 -10.04,25 -23,25 C 83.04,134 73,121.96 73,109 73,96.04 96,78.87 96,78.87 Z"/>
  <path style="fill:#ffffff;color:#000000" d="m 96,76.87 c 0,0 23,17.17 23,30.13 0,12.96 -10.04,25 -23,25 C 83.04,132 73,119.96 73,107 73,94.04 96,76.87 96,76.87 Z"/>
  <path style="opacity:0.20;fill:#ffffff;color:#000000" d="M 95.57 14.79 C 95.57 14.79 60.84 49.58 48.68 61.76 C 36.55 73.92 29 90.65 29 109 C 29 109.16 29.01 109.32 29.01 109.48 C 29.16 91.33 36.66 74.80 48.68 62.76 C 60.84 50.58 95.57 15.79 95.57 15.79 C 95.57 15.79 122.10 42.39 136.62 56.91 C 150.78 71.07 162.82 88.25 162.98 109.58 C 162.99 109.38 163 109.19 163 109 C 163 87.48 150.88 70.17 136.62 55.91 C 122.10 41.39 95.57 14.79 95.57 14.79 z "/>
</svg>
