<svg xmlns="http://www.w3.org/2000/svg" id="svg14" width="192" height="192" version="1"><defs><filter style="color-interpolation-filters:sRGB" id="filter850" width="1.1" height="1.1" x=".05" y=".05"><feGaussianBlur stdDeviation="3.2"/></filter><filter style="color-interpolation-filters:sRGB" id="filter28847" width="1.18" height="1.13" x=".09" y=".06"><feGaussianBlur stdDeviation="3.16"/></filter><filter style="color-interpolation-filters:sRGB" id="filter28889" width="1.27" height="1.18" x=".13" y=".09"><feGaussianBlur stdDeviation="2.79"/></filter></defs><circle style="filter:url(#filter850);opacity:.2;fill:#000" cx="96" cy="100" r="80"/><circle cx="96" cy="96" r="80" style="fill:#e4e4e4"/><path style="filter:url(#filter28847);opacity:.2;fill:#000" d="m 73.95,39 c -5.24,0 -7.76,3.99 -4.50,7.24 L 83.28,57.87 C 86.22,60.34 91.74,61.67 92,56.09 V 42.69 C 92,39.09 88.37,39 88.37,39 Z M 75.50,77 A 12.50,12.50 0 0 0 63,89.50 12.50,12.50 0 0 0 75.50,102 12.50,12.50 0 0 0 88,89.50 12.50,12.50 0 0 0 75.50,77 Z m -15.60,41 c 0,0 -5.52,0.38 -4.84,5.52 C 57.77,143.55 75.07,159 96,159 c 20.93,0 38.23,-15.45 40.94,-35.48 C 137.62,118.38 132.10,118 132.10,118 H 96 Z"/><path style="opacity:.2;fill:#fff" d="M 96 16 A 80 80 0 0 0 16 96 A 80 80 0 0 0 16.02 96.47 A 80 80 0 0 1 96 17 A 80 80 0 0 1 175.97 96.51 A 80 80 0 0 0 176 96 A 80 80 0 0 0 96 16 z"/><path style="fill:#ffbb37" d="m 59.90,116 c 0,0 -5.52,0.38 -4.84,5.52 C 57.77,141.55 75.07,157 96,157 c 20.93,0 38.23,-15.45 40.94,-35.48 C 137.62,116.38 132.10,116 132.10,116 H 96 Z"/><path style="filter:url(#filter28889);opacity:.2;fill:#000;fill-rule:evenodd" d="M 100.23,60.00 C 96.38,59.98 96,66.52 96,66.52 v 30.48 30.48 c 0,0 0.62,10.71 8.34,4.68 l 18.32,-14.32 19.85,-15.51 c 2.45,-1.85 3.48,-3.67 3.50,-5.33 0.01,-1.65 -1.04,-3.48 -3.50,-5.32 L 122.66,76.16 104.34,61.84 c -1.69,-1.32 -3.04,-1.84 -4.11,-1.84 z"/><path style="fill:#58b3ff;fill-rule:evenodd" d="M 100.23,58.00 C 96.38,57.98 96,64.52 96,64.52 v 30.48 30.48 c 0,0 0.62,10.71 8.34,4.68 l 18.32,-14.32 19.85,-15.51 c 2.45,-1.85 3.48,-3.67 3.50,-5.33 0.01,-1.65 -1.04,-3.48 -3.50,-5.32 L 122.66,74.16 104.34,59.84 c -1.69,-1.32 -3.04,-1.84 -4.11,-1.84 z"/><path style="fill:#f84c66" d="m 73.95,37.00 h 14.41 c 0,0 3.64,0.09 3.64,3.69 v 13.41 c 0.26,5.57 -5.78,4.25 -8.72,1.77 L 69.46,44.24 c -3.26,-3.25 0.74,-7.24 4.50,-7.24 z"/><circle style="fill:#2cce7f" cx="75.5" cy="87.5" r="12.5"/></svg>