<svg xmlns="http://www.w3.org/2000/svg" id="svg38" width="192" height="192" version="1"><defs><filter id="filter3135" width="1.13" height="1.17" x=".07" y=".09" style="color-interpolation-filters:sRGB"><feGaussianBlur stdDeviation="4.5"/></filter><filter id="filter3177" width="1.12" height="1.16" x=".06" y=".08" style="color-interpolation-filters:sRGB"><feGaussianBlur stdDeviation="3.6"/></filter><filter id="filter3219" width="1.19" height="1.25" x=".1" y=".12" style="color-interpolation-filters:sRGB"><feGaussianBlur stdDeviation="2.86"/></filter></defs><path style="filter:url(#filter3177);opacity:.2" d="m 143.37,149.46 c 3.67,-3.13 7.34,-6.38 10.83,-9.69 C 134.32,136.71 18.38,71.38 18.26,71.44 c -2.57,13.68 -4.89,27.79 -4.10,41.71 0.61,12.39 2.26,21.84 8.63,31.10 a 59.35,59.50 0 0 0 11.32,11.53 89.88,90.11 0 0 0 50.17,21.16 63.38,63.55 0 0 0 39.16,-11.53 c 5.75,-3.93 13.64,-10.61 19.95,-15.95 z"/><path style="opacity:.4" d="m 143.37,146.46 c 3.67,-3.13 7.34,-6.38 10.83,-9.69 C 134.32,133.71 18.38,68.38 18.26,68.44 c -2.57,13.68 -4.89,27.79 -4.10,41.71 0.61,12.39 2.26,21.84 8.63,31.10 a 59.35,59.50 0 0 0 11.32,11.53 89.88,90.11 0 0 0 50.17,21.16 63.38,63.55 0 0 0 39.16,-11.53 c 5.75,-3.93 13.64,-10.61 19.95,-15.95 z"/><path style="fill:#cf671c" d="m 143.37,146.46 c 3.67,-3.13 7.34,-6.38 10.83,-9.69 C 134.32,133.71 18.38,68.38 18.26,68.44 c -2.57,13.68 -4.89,27.79 -4.10,41.71 0.61,12.39 2.26,21.84 8.63,31.10 a 59.35,59.50 0 0 0 11.32,11.53 89.88,90.11 0 0 0 50.17,21.16 63.38,63.55 0 0 0 39.16,-11.53 c 5.75,-3.93 13.64,-10.61 19.95,-15.95 z"/><path style="fill:#c3581c" d="m 26.01,68.72 19.86,3.52 -14.88,49.86 c -3.17,9.07 -9.99,15.95 -10.05,-5.82 0.70,-19.76 2.79,-32.68 5.07,-47.56 z"/><path style="fill:#c3581c" d="M 51.50,84.98 84.15,99.02 53.57,145.62 c -4.62,8.04 -16.28,11.57 -16.34,-10.20 0.70,-19.76 11.98,-35.56 14.27,-50.44 z"/><path style="fill:#c3581c" d="m 146.22,138.19 -12.63,-15.76 -36.46,37.06 c -6.41,7.15 -9.15,16.45 9.92,6.04 17.62,-8.89 27.24,-18.16 39.16,-27.33 z"/><path style="fill:#c3581c" d="M 119.75,123.61 91.76,101.66 65.71,150.94 c -4.81,7.93 -2.29,19.87 16.78,9.46 17.62,-8.89 25.34,-27.63 37.26,-36.80 z"/><path style="filter:url(#filter3135);opacity:.2" d="m 94.92,24.45 c 0,0 -30.22,-9.23 -52.25,-1.11 -21.98,8.12 -32.05,18.76 -25.88,44.54 6.10,25.78 66.54,63.98 92.05,71.42 25.46,7.51 49.08,8.61 60.19,-2.95 C 180.20,124.85 186.55,94.34 153.16,59.76 119.71,25.19 94.92,24.45 94.92,24.45 Z"/><path style="fill:#ffa219" d="m 94.92,22.45 c 0,0 -30.22,-9.23 -52.25,-1.11 -21.98,8.12 -32.05,18.76 -25.88,44.54 6.10,25.78 66.54,63.98 92.05,71.42 25.46,7.51 49.08,8.61 60.19,-2.95 C 180.20,122.85 186.55,92.34 153.16,57.76 119.71,23.19 94.92,22.45 94.92,22.45 Z"/><path style="opacity:.2;fill:#fff" d="M 64.55 18.00 C 62.43 17.99 60.27 18.09 58.12 18.24 C 56.24 18.63 54.39 19.09 52.61 19.69 C 31.48 26.78 21.79 36.09 27.72 58.61 C 33.59 81.14 91.70 114.53 116.24 121.03 C 140.72 127.59 163.44 128.55 174.13 118.44 C 175.41 117.23 176.63 115.78 177.73 114.12 C 179.36 99.34 174.00 79.34 153.16 57.76 C 119.71 23.19 94.92 22.45 94.92 22.45 C 94.92 22.45 80.64 18.09 64.55 18.00 z"/><path style="filter:url(#filter3219);opacity:.2" d="m 81.20,38.27 c 0,0 -1.83,-7.68 5.68,-13.33 7.51,-5.65 24.12,-6.08 41.58,4.55 17.52,10.57 23.20,20.52 24.36,29.80 1.10,9.22 -2.32,16.47 -17.52,16.71 C 119.84,76.18 87.55,61.99 81.20,38.27 Z"/><path style="opacity:.2;fill:#fff" d="M 64.55 18.00 C 57.24 17.96 49.55 18.81 42.67 21.34 C 24.68 27.99 14.68 36.34 15.02 53.29 C 15.09 37.02 25.04 28.86 42.67 22.34 C 64.70 14.22 94.92 23.45 94.92 23.45 C 94.92 23.45 119.71 24.19 153.16 58.76 C 171.63 77.89 177.93 95.77 177.99 109.88 C 178.23 95.62 172.07 77.34 153.16 57.76 C 119.71 23.19 94.92 22.45 94.92 22.45 C 94.92 22.45 80.64 18.09 64.55 18.00 z"/><path style="fill:#e5460d" d="m 81.20,36.27 c 0,0 -1.83,-7.68 5.68,-13.33 7.51,-5.65 24.12,-6.08 41.58,4.55 17.52,10.57 23.20,20.52 24.36,29.80 1.10,9.22 -2.32,16.47 -17.52,16.71 C 119.84,74.18 87.55,59.99 81.20,36.27 Z"/><path style="opacity:.2;fill:#fff" d="M 101.26 19 C 95.19 18.98 90.16 20.46 86.88 22.93 C 81.60 26.90 80.95 31.82 81.02 34.43 C 81.17 31.68 82.24 27.42 86.88 23.93 C 94.38 18.28 110.99 17.85 128.45 28.48 C 145.97 39.05 151.65 49.00 152.81 58.28 C 152.92 59.18 152.97 60.05 152.98 60.90 C 153.02 59.74 152.96 58.53 152.81 57.28 C 151.65 48.00 145.97 38.05 128.45 27.48 C 118.63 21.50 109.08 19.02 101.26 19 z"/></svg>