<?xml version='1.0' encoding='utf-8'?>
<svg xmlns="http://www.w3.org/2000/svg" width="192" height="192" version="1" id="svg20">
  <defs>
    <filter style="color-interpolation-filters:sRGB" id="filter1037" x="-0.038769298" y="-0.062999819" width="1.0775386" height="1.1259996">
      <feGaussianBlur stdDeviation="0.4199988"/>
    </filter>
    <filter style="color-interpolation-filters:sRGB" id="filter1079" x="-0.048000001" y="-0.048000001" width="1.096" height="1.096">
      <feGaussianBlur stdDeviation="3.2"/>
    </filter>
  </defs>
  <rect fill="#4ab367" width="160" height="160" x="16" y="20" rx="80" ry="80" style="filter:url(#filter1079);opacity:0.2;fill:#000000"/>
  <rect fill="#4ab367" width="160" height="160" x="16" y="16" rx="80" ry="80"/>
  <g opacity="0.2" transform="matrix(4,0,0,4,0,2)" style="filter:url(#filter1037)">
    <path d="m 12,16 h 4 c 0.551,0 1,0.396 1,0.886 V 31.111 C 17,31.601 16.551,32 16,32 h -4 c -0.551,0 -1,-0.399 -1,-0.889 V 16.886 C 11,16.396 11.449,16 12,16"/>
    <path d="M 19.944,16 C 19.422,16 19,16.396 19,16.885 v 14.222 c 0,0.48978 0.42167,0.88889 0.94378,0.88889 2.8427,0 5.6835,0.0036 8.5281,0.0036 4.709,10e-4 8.528,-3.581 8.528,-7.999 0,-4.4178 -3.8187,-8 -8.5281,-8 h -8.5281 z"/>
  </g>
  <g fill="#f9f9f9" transform="matrix(4,0,0,4,0,-8.8e-5)">
    <path d="m 12,16 h 4 c 0.551,0 1,0.396 1,0.886 V 31.111 C 17,31.601 16.551,32 16,32 h -4 c -0.551,0 -1,-0.399 -1,-0.889 V 16.886 C 11,16.396 11.449,16 12,16"/>
    <path d="M 19.944,16 C 19.422,16 19,16.396 19,16.885 v 14.222 c 0,0.48978 0.42167,0.88889 0.94378,0.88889 2.8427,0 5.6835,0.0036 8.5281,0.0036 4.709,10e-4 8.528,-3.581 8.528,-7.999 0,-4.4178 -3.8187,-8 -8.5281,-8 h -8.5281 z"/>
  </g>
  <path style="opacity:0.2;fill:#ffffff" d="M 96 16 C 51.68 16 16 51.68 16 96 C 16 96.167713 16.010698 96.332536 16.011719 96.5 C 16.280347 52.413241 51.847713 17 96 17 C 140.15229 17 175.71965 52.413241 175.98828 96.5 C 175.9893 96.332536 176 96.167713 176 96 C 176 51.68 140.32 16 96 16 z "/>
</svg>
