<?xml version='1.0' encoding='utf-8'?>
<svg xmlns="http://www.w3.org/2000/svg" width="192" height="192" version="1" id="svg20">
  <defs>
    <filter style="color-interpolation-filters:sRGB" id="filter865" x="-0.040799997" width="1.0816" y="-0.058285718" height="1.1165714">
      <feGaussianBlur stdDeviation="2.7200001"/>
    </filter>
    <filter style="color-interpolation-filters:sRGB" id="filter881" x="-0.048" width="1.096" y="-0.048" height="1.096">
      <feGaussianBlur stdDeviation="1.76"/>
    </filter>
    <filter style="color-interpolation-filters:sRGB" id="filter901" x="-0.052799955" width="1.1055999" y="-0.044000028" height="1.0880001">
      <feGaussianBlur stdDeviation="0.88000014"/>
    </filter>
  </defs>
  <path d="m 82.843832,151.89934 c -26.44548,-0.50264 -37.17932,-0.94645 -43.743,-1.80864 -4.8134,-0.63231 -7.17724,-1.24874 -9.84328,-2.56688 -4.40328,-2.17704 -7.14176,-5.2128 -9.11804,-10.10788 -1.80688,-4.47534 -2.5426,-8.0299 -3.2178,-15.54674 -0.76196,-8.48279 -0.82152,-10.01848 -0.90064,-23.235316 -0.0932,-15.54304 0.0944,-20.63636 1.1382,-30.952988 0.54736,-5.4085 1.34512,-9.002904 2.84412,-12.814536 1.36516,-3.47118 2.61152,-5.386884 4.8782,-7.497972 2.8488,-2.653244 5.97748,-4.266152 9.92716,-5.1176 5.89536,-1.2709 32.54148,-2.25078 61.205,-2.25078 28.663528,0 55.309648,0.97988 61.205008,2.25078 4.26348,0.919108 7.3926,2.616792 10.44564,5.667204 2.38952,2.387456 3.62024,4.556852 5.08484,8.96334 1.50912,4.540372 2.08788,8.558568 2.9454,20.4493 0.4072,5.64674 0.40712,31.640528 0,37.284488 -0.47644,6.60255 -1.06112,12.48228 -1.45044,14.58616 -1.00088,5.40898 -2.96664,10.47329 -5.18292,13.35268 -1.52056,1.97548 -4.52224,4.32931 -7.03228,5.51448 -2.54164,1.2001 -4.9632,1.79508 -8.867,2.17871 -12.09684,1.18876 -49.03669,2.05672 -70.318008,1.65219 z" style="filter:url(#filter865);opacity:0.2"/>
  <path d="m 82.843832,147.89934 c -26.44548,-0.50264 -37.17932,-0.94645 -43.743,-1.80865 -4.8134,-0.6323 -7.17724,-1.24873 -9.84328,-2.56687 -4.40328,-2.17704 -7.14176,-5.21281 -9.11804,-10.10788 -1.80688,-4.47534 -2.5426,-8.0299 -3.2178,-15.54674 -0.76196,-8.4828 -0.82152,-10.01849 -0.90064,-23.23532 -0.0932,-15.54304 0.0944,-20.63636 1.1382,-30.952988 0.54736,-5.4085 1.34512,-9.002904 2.84412,-12.814536 1.36516,-3.47118 2.61152,-5.386884 4.8782,-7.497972 2.8488,-2.653244 5.97748,-4.266152 9.92716,-5.1176 5.89536,-1.2709 32.54148,-2.25078 61.205,-2.25078 28.663528,0 55.309648,0.97988 61.205008,2.25078 4.26348,0.919108 7.3926,2.616792 10.44564,5.667204 2.38952,2.387456 3.62024,4.556852 5.08484,8.96334 1.50912,4.540372 2.08788,8.558568 2.9454,20.4493 0.4072,5.64674 0.40712,31.640532 0,37.284492 -0.47644,6.60254 -1.06112,12.48228 -1.45044,14.58616 -1.00088,5.40898 -2.96664,10.47328 -5.18292,13.35268 -1.52056,1.97548 -4.52224,4.32931 -7.03228,5.51448 -2.54164,1.2001 -4.9632,1.79507 -8.867,2.17871 -12.09684,1.18875 -49.03669,2.05672 -70.318008,1.65219 z" style="fill:#fa5477"/>
  <path d="M 97.809052,107.59079 C 120.48681,94.043109 119.99921,94.340249 119.99921,94.068259 c 0,-0.254522 -39.694282,-24.205466 -39.887826,-24.067638 -0.13072,0.09316 -0.15504,47.805729 -0.0264,47.956289 0.04832,0.0557 0.18576,0.0578 0.3052,0.004 0.11948,-0.0531 7.95728,-4.71988 17.416904,-10.37104 z" style="filter:url(#filter901);opacity:0.1"/>
  <path d="M 97.809052,105.59075 C 120.48681,92.043068 119.99921,92.340208 119.99921,92.06822 c 0,-0.25452 -39.694282,-24.205464 -39.887826,-24.067636 -0.13072,0.09316 -0.15504,47.805726 -0.0264,47.956286 0.04832,0.0557 0.18576,0.0578 0.3052,0.004 0.11948,-0.0531 7.95728,-4.71988 17.416904,-10.37104 z" style="fill:#ffffff"/>
  <path style="opacity:0.2;fill:#ffffff" d="m 96.015625,36.000004 c -28.66352,0 -55.307765,0.9791 -61.203125,2.25 -3.94968,0.851448 -7.080888,2.463944 -9.929688,5.117188 -2.26668,2.111088 -3.517652,4.02882 -4.882812,7.5 -1.499,3.811632 -2.29639,7.403999 -2.84375,12.8125 -0.8073,7.979124 -1.094861,12.960122 -1.142578,21.941406 0.06205,-8.427962 0.361979,-13.226188 1.142578,-20.941406 0.54736,-5.408501 1.34475,-9.000868 2.84375,-12.8125 1.36516,-3.47118 2.616132,-5.388912 4.882812,-7.5 2.8488,-2.653244 5.980008,-4.26574 9.929688,-5.117188 5.89536,-1.2709 32.539605,-2.25 61.203125,-2.25 28.663525,0 55.307765,0.9791 61.203125,2.25 4.26348,0.919108 7.39227,2.621463 10.44531,5.671875 2.38952,2.387456 3.62134,4.554449 5.08594,8.960937 1.50912,4.540372 2.08779,8.554581 2.94531,20.445313 0.20228,2.804522 0.2799,10.629295 0.2793,18.470703 0.001,0.417494 0.009,0.757623 0.01,1.177734 0.0196,-8.570328 -0.0673,-17.573573 -0.28907,-20.648437 -0.85752,-11.890732 -1.43619,-15.904941 -2.94531,-20.445313 -1.4646,-4.406488 -2.69642,-6.573481 -5.08594,-8.960937 -3.05304,-3.050412 -6.18183,-4.752767 -10.44531,-5.671875 -5.89536,-1.2709 -32.5396,-2.25 -61.203125,-2.25 z"/>
  <circle r="44" cy="144" cx="144" style="filter:url(#filter881);opacity:0.2"/>
  <circle r="44" cy="140" cx="144" style="fill:#e4e4e4"/>
  <path d="m 135,118 v 8 18.01562 c -1.729,-1.3038 -3.83452,-2.01112 -6,-2.01562 -5.52285,0 -10,4.47715 -10,10 0,5.52285 4.47715,10 10,10 4.75151,-5.2e-4 8.84657,-3.34449 9.79688,-8 L 139,152 v 0 -26 h 24 v 18.01562 c -1.72901,-1.3038 -3.83452,-2.01112 -6,-2.01562 -5.52285,0 -10,4.47715 -10,10 0,5.52285 4.47715,10 10,10 4.75151,-5.2e-4 8.84657,-3.34449 9.79687,-8 L 167,152 v -34 z" style="fill:#444444;fill-rule:evenodd"/>
</svg>
