<?xml version='1.0' encoding='utf-8'?>
<svg xmlns="http://www.w3.org/2000/svg" width="192" height="192" version="1" id="svg28">
  <defs>
    <filter style="color-interpolation-filters:sRGB" id="filter9388" x="0.07" y="0.08" width="1.14" height="1.17">
      <feGaussianBlur stdDeviation="3.84"/>
    </filter>
    <filter style="color-interpolation-filters:sRGB" id="filter9392" x="0.07" y="0.09" width="1.13" height="1.17">
      <feGaussianBlur stdDeviation="4.06"/>
    </filter>
    <filter style="color-interpolation-filters:sRGB" id="filter9632" x="0.11" y="0.10" width="1.23" height="1.20">
      <feGaussianBlur stdDeviation="4.68"/>
    </filter>
  </defs>
  <path style="filter:url(#filter9392);opacity:0.20" transform="matrix(0,-1,-1,0,0,0)" d="m -152,-129 h 107 c 11.08,0 20,8.92 20,20 v 73 c 0,11.08 -8.92,20 -20,20 h -107 c -11.08,0 -20,-8.92 -20,-20 v -31.44 l 42.87,-7.48 C -118.22,-76.82 -163.08,-129 -152,-129 Z"/>
  <rect transform="matrix(0,-1,-1,0,0,0)" ry="20" rx="20" y="-129" x="-169" height="113" width="147" style="fill:#e4e4e4"/>
  <path style="filter:url(#filter9388);opacity:0.20;fill:#000000" d="m 108,62 c -1.72,0.06 -3.14,0.93 -4.95,1.99 L 42.47,102.40 c -3.33,1.95 -4.61,10.90 4.73,10.60 H 59 V 152 c 0,11.08 8.92,20 20,20 h 58 c 11.08,0 20,-8.92 20,-20 v -39.01 h 11.79 c 9.34,0.31 8.06,-8.65 4.73,-10.60 L 112.95,63.99 C 111.14,62.93 109.72,62.06 108,62 Z"/>
  <path style="fill:#ffa509" d="M 108 59 C 106.28 59.06 104.86 59.93 103.05 60.99 L 42.47 99.40 C 39.15 101.34 37.87 110.30 47.21 109.99 L 59 109.99 L 59 149 C 59 160.08 67.92 169 79 169 L 137 169 C 148.08 169 157 160.08 157 149 L 157 109.99 L 168.79 109.99 C 178.13 110.30 176.85 101.34 173.53 99.40 L 112.95 60.99 C 111.14 59.93 109.72 59.06 108 59 z "/>
  <path style="filter:url(#filter9632);opacity:0.20;fill:#000000" d="m 36,43.00 a 5,5 0 0 0 -5,5 5,5 0 0 0 5,5 h 31 a 5,5 0 0 0 5,-5 5,5 0 0 0 -5,-5 z m 0,23 a 5,5 0 0 0 -5,5 5,5 0 0 0 5,5 h 11 a 5,5 0 0 0 5,-5 5,5 0 0 0 -5,-5 z M 82.42,104.00 c -2.74,0 -3.02,3.05 -1.51,4.54 l 12.92,12.66 c 2.15,2.11 4.12,0.43 4.16,-1.93 v -12.21 c 0,-1.69 -1.39,-3.05 -3.12,-3.05 z m 31.00,0 c -2.74,0 -3.02,3.05 -1.51,4.54 l 12.92,12.66 c 2.15,2.11 4.12,0.43 4.16,-1.93 v -12.21 c 0,-1.69 -1.39,-3.05 -3.12,-3.05 z m 0,31 c -2.74,0 -3.02,3.05 -1.51,4.54 l 12.92,12.66 c 2.15,2.11 4.12,0.43 4.16,-1.93 v -12.21 c 0,-1.69 -1.39,-3.05 -3.12,-3.05 z"/>
  <path style="fill:#3f3f3f" d="M 36 41 A 5 5 0 0 0 31 46 A 5 5 0 0 0 36 51 L 67 51 A 5 5 0 0 0 72 46 A 5 5 0 0 0 67 41 L 36 41 z M 36 64 A 5 5 0 0 0 31 69 A 5 5 0 0 0 36 74 L 47 74 A 5 5 0 0 0 52 69 A 5 5 0 0 0 47 64 L 36 64 z M 82.42 102 C 79.68 102 79.40 105.05 80.91 106.54 L 93.84 119.20 C 95.99 121.30 97.95 118.77 98 117.26 L 98 105.05 C 98 103.36 96.61 102 94.88 102 L 82.42 102 z M 113.42 102 C 110.68 102 110.40 105.05 111.91 106.54 L 124.84 119.20 C 126.99 121.30 128.95 118.77 129 117.26 L 129 105.05 C 129 103.36 127.61 102 125.88 102 L 113.42 102 z M 113.42 133 C 110.68 133 110.40 136.05 111.91 137.54 L 124.84 150.20 C 126.99 152.30 128.95 149.77 129 148.26 L 129 136.05 C 129 134.36 127.61 133 125.88 133 L 113.42 133 z "/>
  <path style="opacity:0.20;fill:#ffffff" d="M 36 22 C 24.92 22 16 30.92 16 42 L 16 43 C 16 31.92 24.92 23 36 23 L 109 23 C 120.08 23 129 31.92 129 43 L 129 42 C 129 30.92 120.08 22 109 22 L 36 22 z "/>
</svg>
