<svg xmlns="http://www.w3.org/2000/svg" id="svg28" width="192" height="192" version="1"><defs><filter style="color-interpolation-filters:sRGB" id="filter6970" width="1.1" height="1.1" x=".05" y=".05"><feGaussianBlur stdDeviation="3.2"/></filter><filter style="color-interpolation-filters:sRGB" id="filter7015" width="1.15" height="1.15" x=".08" y=".07"><feGaussianBlur stdDeviation="2.48"/></filter></defs><path style="filter:url(#filter7015);opacity:.2;fill:#000;color:#000" d="m 56.37,82.05 c -6.58,8.94 -13.88,17.16 -21.85,23.83 12.62,23.74 31.30,42.23 55.61,55.62 C 96.72,153.60 104.83,146.37 113.67,139.85 84.96,127.06 67.37,109.39 56.37,82.05 Z"/><path style="fill:#445cdc;color:#000" d="m 53.23,69.49 -28.48,9.43 c 14.30,43.17 44.50,72.69 88.82,89.27 l 10.51,-28.10 C 85.95,125.83 65.05,105.18 53.23,69.49 Z"/><path style="filter:url(#filter6970);opacity:.2;fill:#000" d="m 44.25,20.00 c -2.88,0.06 -6.82,1.13 -12.08,4.37 l -7.60,5.29 c -11.36,7.90 -9.63,21.75 -5.08,41.05 3.85,13.15 9.00,24.69 14.88,35.30 11.39,-9.50 21.45,-22.14 29.95,-35.60 5.35,-8.64 7.03,-15.81 0.09,-27.83 L 50.88,22.57 c 0,0 -1.83,-2.67 -6.63,-2.57 z M 139.91,127.01 c -5.05,0.19 -9.45,1.65 -14.31,4.66 -13.47,8.50 -26.10,18.56 -35.60,29.95 10.61,5.88 22.14,11.03 35.30,14.88 19.30,4.55 33.15,6.27 41.05,-5.08 l 5.29,-7.60 c 8.65,-14.01 1.80,-18.71 1.80,-18.71 l -19.99,-13.54 c -5.26,-3.04 -9.59,-4.42 -13.52,-4.58 z"/><path style="fill:#3e96ff" d="m 44.25,16.00 c -2.88,0.06 -6.82,1.13 -12.08,4.37 L 24.57,25.66 C 13.22,33.56 14.94,47.41 19.49,66.70 23.34,79.86 28.49,91.39 34.37,102 45.77,92.50 55.83,79.86 64.32,66.40 c 5.35,-8.64 7.03,-15.81 0.09,-27.83 L 50.88,18.57 c 0,0 -1.83,-2.67 -6.63,-2.57 z M 139.91,123.01 c -5.05,0.19 -9.45,1.65 -14.31,4.66 -13.47,8.50 -26.10,18.56 -35.60,29.95 10.61,5.88 22.14,11.03 35.30,14.88 19.30,4.55 33.15,6.27 41.05,-5.08 l 5.29,-7.60 c 8.65,-14.01 1.80,-18.71 1.80,-18.71 l -19.99,-13.54 c -5.26,-3.04 -9.59,-4.42 -13.52,-4.58 z"/><path style="opacity:.1;fill:#fff;color:#000" d="m 56.37,78.05 c 0.09,0.12 0.17,0.23 0.26,0.35 10.88,27.45 28.29,45.21 56.73,58.07 0.28,0.21 0.55,0.41 0.83,0.62 C 84.96,123.06 67.37,105.39 56.37,78.05 Z"/><path style="opacity:.2;fill:#fff" d="m 44.25,16.00 c -2.88,0.06 -6.82,1.13 -12.08,4.37 l -7.60,5.29 c -6.49,4.52 -8.70,10.98 -8.56,19.29 0.05,-7.83 2.33,-13.96 8.56,-18.29 l 7.60,-5.29 c 5.25,-3.24 9.20,-4.30 12.08,-4.37 4.80,0.10 6.63,2.57 6.63,2.57 l 13.54,19.99 c 3.02,5.23 4.41,9.54 4.57,13.45 0.05,-4.18 -1.29,-8.77 -4.57,-14.45 L 50.88,18.57 c 0,0 -1.83,-2.67 -6.63,-2.57 z M 139.91,123.01 c -5.05,0.19 -9.45,1.65 -14.31,4.66 -13.47,8.50 -26.10,18.56 -35.60,29.95 0.20,0.11 0.40,0.21 0.60,0.32 9.43,-11.11 21.81,-20.94 35.00,-29.27 4.86,-3.01 9.26,-4.86 14.31,-4.66 3.93,0.15 8.26,1.54 13.52,4.58 l 19.99,13.54 c 0,0 2.39,1.67 2.55,5.94 0.22,-5.01 -2.55,-6.94 -2.55,-6.94 l -19.99,-13.54 c -5.26,-3.04 -9.59,-4.42 -13.52,-4.58 z"/></svg>