<?xml version='1.0' encoding='utf-8'?>
<svg xmlns="http://www.w3.org/2000/svg" width="192" height="192" version="1.1" id="svg14">
  <defs>
    <filter style="color-interpolation-filters:sRGB" id="filter849" x="0.05" y="0.05" width="1.10" height="1.10">
      <feGaussianBlur stdDeviation="3.20"/>
    </filter>
    <filter style="color-interpolation-filters:sRGB" id="filter2501" x="0.05" y="0.04" width="1.10" height="1.09">
      <feGaussianBlur stdDeviation="1.96"/>
    </filter>
  </defs>
  <rect style="filter:url(#filter849);opacity:0.20" width="160" height="160" x="16" y="20" rx="32" ry="32"/>
  <rect style="fill:#0073df" width="160" height="160" x="16" y="16" rx="32" ry="32"/>
  <path style="filter:url(#filter2501);opacity:0.20;fill:#000000" d="m 78.45,45.00 -1.11,1.75 c -2.92,4.59 -7.66,8.12 -13.39,9.97 -3.04,0.98 -5.30,1.26 -9.30,1.28 H 51 v 23.90 c 0,26.20 0.05,25.44 1.92,31.61 2.43,7.64 6.48,14.10 12.85,20.47 7.00,7.00 14.97,11.83 25.80,15.61 2.18,0.76 4.14,1.40 4.35,1.41 0.01,0.00 0.07,0.02 0.08,0.02 0.01,0.00 0.07,0.02 0.08,0.02 0.21,0.01 2.17,0.64 4.35,-1.41 10.83,-3.78 18.80,-8.61 25.80,-15.61 6.37,-6.37 10.42,-12.84 12.85,-20.47 C 141.05,107.34 141,108.10 141,81.90 V 58.00 h -3.64 c -4.00,0 -6.26,0.30 -9.30,-1.28 -5.73,-1.85 -10.48,-5.38 -13.39,-9.97 l -1.11,-1.75 H 96.19 96 95.81 Z m 4.64,9 12.91,0.01 12.91,0.01 2.71,2.72 c 1.49,1.50 3.73,3.38 4.98,4.17 4.46,2.86 10.24,5.06 14.52,5.54 L 133,66.65 v 18.48 c 0,19.96 0.05,20.71 -1.72,25.79 -4.30,13.08 -15.68,23.83 -31.60,29.85 -1.78,0.67 -3.35,1.23 -3.48,1.23 0.01,0.00 0.17,0.06 0.20,0.07 0.03,0.01 0.19,0.07 0.20,0.07 0.13,0.01 -1.70,0.56 -3.48,-1.23 C 76.39,134.75 65.01,124.00 60.72,110.92 59.05,105.84 59,105.09 59,85.13 V 66.65 l 1.88,0.21 c 4.28,0.48 10.05,-2.69 14.52,-5.54 1.25,0.80 3.49,-2.68 4.98,-4.17 z m 12.91,25 c -5.52,0 -10,4.48 -10,10 0.00,3.97 2.36,7.57 6,9.15 V 108 c 0,2.21 1.79,4 4,4 2.21,0 4,-1.79 4,-4 v -9.85 c 3.64,-1.59 6.00,-5.18 6,-9.15 0,-5.52 -4.48,-10 -10,-10 z"/>
  <path style="fill:#ffffff" d="m 78.45,43 -1.11,1.75 C 74.42,49.34 69.68,52.87 63.95,54.72 60.90,55.70 58.64,55.98 54.64,56 H 51 v 23.90 c 0,26.20 0.05,25.44 1.92,31.61 2.43,7.64 6.48,14.10 12.85,20.47 7.00,7.00 14.97,11.83 25.80,15.61 2.18,0.76 4.14,1.40 4.35,1.41 0.01,0.00 0.07,0.02 0.08,0.02 0.01,0.00 0.07,0.02 0.08,0.02 0.21,0.01 2.17,0.64 4.35,-1.41 10.83,-3.78 18.80,-8.61 25.80,-15.61 6.37,-6.37 10.42,-12.84 12.85,-20.47 C 141.05,105.34 141,106.10 141,79.90 V 56 h -3.64 c -4.00,0 -6.26,0.30 -9.30,-1.28 C 122.32,52.87 117.58,49.34 114.66,44.75 L 113.55,43 H 96.19 96 95.81 Z M 83.09,52 96,52.01 108.91,52 l 2.71,2.72 c 1.49,1.50 3.73,3.38 4.98,4.17 4.46,2.86 10.24,5.06 14.52,5.54 L 133,64.65 v 18.48 c 0,19.96 0.05,20.71 -1.72,25.79 -4.30,13.08 -15.68,23.83 -31.60,29.85 -1.78,0.67 -3.35,1.23 -3.48,1.23 0.01,0.00 0.17,0.06 0.20,0.07 0.03,0.01 0.19,0.07 0.20,0.07 0.13,0.01 -1.70,0.56 -3.48,-1.23 C 76.39,132.75 65.01,122.00 60.72,108.92 59.05,103.84 59,103.09 59,83.13 V 64.65 l 1.88,0.21 c 4.28,0.48 10.05,-2.69 14.52,-5.54 1.25,0.80 3.49,-2.68 4.98,-4.17 z M 96,77 c -5.52,0 -10,4.48 -10,10 0.00,3.97 2.36,7.57 6,9.15 V 106 c 0,2.21 1.79,4 4,4 2.21,0 4,-1.79 4,-4 V 96.15 C 103.64,94.57 106.00,90.97 106,87 106,81.48 101.52,77 96,77 Z"/>
  <path style="opacity:0.20;fill:#ffffff" d="M 48,16 C 30.27,16 16,30.27 16,48 v 1 C 16,31.27 30.27,17 48,17 h 96 c 17.73,0 32,14.27 32,32 V 48 C 176,30.27 161.73,16 144,16 Z"/>
</svg>
