<?xml version='1.0' encoding='utf-8'?>
<svg xmlns="http://www.w3.org/2000/svg" width="192" height="192" version="1" id="svg14">
  <defs>
    <filter style="color-interpolation-filters:sRGB" id="filter850" x="0.05" width="1.10" y="0.05" height="1.10">
      <feGaussianBlur stdDeviation="3.20"/>
    </filter>
    <filter style="color-interpolation-filters:sRGB" id="filter1689" x="0.10" y="0.11" width="1.21" height="1.23">
      <feGaussianBlur stdDeviation="4.25"/>
    </filter>
  </defs>
  <circle style="filter:url(#filter850);opacity:0.20;fill:#000000" cx="96" cy="100" r="80"/>
  <circle r="80" cy="96" cx="96" style="fill:#0095f9"/>
  <path style="opacity:0.20;fill:#ffffff" d="M 96 16 A 80 80 0 0 0 16 96 A 80 80 0 0 0 16.02 96.47 A 80 80 0 0 1 96 17 A 80 80 0 0 1 175.97 96.51 A 80 80 0 0 0 176 96 A 80 80 0 0 0 96 16 z "/>
  <path style="filter:url(#filter1689);opacity:0.20;fill:#000000" d="m 99.70,53.01 c -3.96,0.06 -8.06,0.52 -12.33,1.37 C 73.61,57.13 59.14,64.99 47.67,75.95 L 45,78.51 l 3.20,5.11 c 1.76,2.81 3.37,5.11 3.59,5.11 0.21,0 0.68,0.30 1.05,0.67 0.52,0.52 0.67,0.95 0.67,-1.98 0,0.72 0.11,-1.71 0.25,-2.20 0.23,0.81 0.13,-1.08 1.14,-3 1.37,-2.08 6.03,-6.99 8.29,-8.76 L 64,71.22 v 33.60 33.60 l -1.66,0.51 c -1.92,0.59 -3.22,1.60 -3.22,2.51 0,1.58 0.15,1.55 10.18,1.55 8.81,0 9.21,0.02 9.48,0.53 0.72,-1.35 0.26,-2.61 -2.72,-3.48 L 75,138.51 v -7.88 c 0,-7.37 0.04,-8.27 0.40,-8.14 0.26,0.07 1.66,0.57 3.38,1.10 6.99,2.15 12.92,3.16 19.70,3.38 9.63,0.31 17.34,-1.26 25.00,-5.10 14.71,-7.36 22.37,-20.86 20.13,-36.13 -1.12,-7.60 -4.35,-14.23 -9.60,-19.70 -3.16,-3.29 -6.27,-5.60 -10.40,-7.70 -7.24,-3.69 -15.21,-5.46 -23.91,-5.33 z M 99.75,59.00 c 1.89,0.00 3.72,0.12 5.45,0.38 12.87,1.93 22.31,10.96 25.19,24.06 0.24,1.09 0.50,3.78 0.58,5.96 0.34,9.23 -2.20,16.18 -8.17,22.39 -4.14,4.31 -9.39,7.17 -15.89,8.65 -2.22,0.51 -11.36,0.75 -14.64,0.38 -5.84,0.65 -11.40,-1.94 -15.29,-3.56 L 75,116.44 V 91.24 66.04 l 1.03,0.65 C 82.34,61.42 91.57,59.02 99.75,59.00 Z"/>
  <path style="fill:#ffffff" d="M 99.70 51.01 C 95.74 51.07 91.63 51.53 87.37 52.38 C 73.61 55.13 59.14 62.99 47.67 73.95 L 45 76.51 L 48.20 81.62 C 49.96 84.42 51.58 86.72 51.79 86.72 C 52.00 86.72 52.47 86.42 52.84 86.05 C 53.36 85.53 53.51 85.10 53.51 84.07 C 53.51 83.35 53.39 82.36 53.25 81.88 C 53.02 81.07 53.12 80.80 54.39 78.88 C 55.77 76.80 60.42 71.88 62.68 70.12 L 64 69.22 L 64 102.82 L 64 136.42 L 62.34 136.94 C 60.42 137.53 59.12 138.54 59.12 139.45 C 59.12 141.02 59.27 141 69.29 141 C 78.11 141 78.50 140.98 78.77 140.47 C 79.49 139.12 78.52 137.87 76.05 136.99 L 75 136.51 L 75 128.63 C 75 121.26 74.96 120.36 75.40 120.49 C 75.66 120.56 77.06 121.06 78.78 121.58 C 85.77 123.73 91.70 124.75 98.48 124.96 C 108.11 125.27 115.82 123.70 123.49 119.87 C 138.20 112.51 145.86 99.00 143.62 83.74 C 142.50 76.14 139.26 69.51 134.01 64.04 C 130.85 60.74 127.74 58.44 123.61 56.34 C 116.37 52.65 108.40 50.87 99.70 51.01 z M 99.75 57 C 101.64 57.00 103.47 57.12 105.20 57.38 C 118.06 59.31 127.51 68.34 130.39 81.44 C 130.63 82.54 130.89 85.22 130.97 87.40 C 131.31 96.63 128.77 103.58 122.80 109.79 C 118.66 114.10 113.41 116.96 106.92 118.44 C 104.70 118.95 95.56 119.19 92.28 118.82 C 86.44 118.18 80.87 116.88 76.99 115.27 L 75 114.44 L 75 89.24 L 75 64.04 L 76.03 63.40 C 82.34 59.42 91.57 57.02 99.75 57 z "/>
</svg>
