<?xml version='1.0' encoding='utf-8'?>
<svg xmlns="http://www.w3.org/2000/svg" width="192" height="192" version="1" id="svg14">
  <defs>
    <filter style="color-interpolation-filters:sRGB" id="filter925" x="0.05" width="1.09" y="0.05" height="1.10">
      <feGaussianBlur stdDeviation="3.12"/>
    </filter>
    <filter style="color-interpolation-filters:sRGB" id="filter985" x="0.05" width="1.10" y="0.05" height="1.10">
      <feGaussianBlur stdDeviation="1.76"/>
    </filter>
  </defs>
  <path d="m 68,18.00 -8,8 v 16 H 12 V 162 c 0,4.43 3.57,8 8,8 h 144 c 4.43,0 8,-3.57 8,-8 V 42.00 h -48 v -16 l -8,-8 z m 0,8 h 48 v 16 H 68 Z" style="filter:url(#filter925);opacity:0.20;fill:#000000"/>
  <path style="fill:#e4e4e4" d="m 68,14.00 -8,8 v 16 H 12 V 158 c 0,4.43 3.57,8 8,8 h 144 c 4.43,0 8,-3.57 8,-8 V 38.00 h -48 v -16 l -8,-8 z m 0,8 h 48 v 16 H 68 Z"/>
  <circle style="filter:url(#filter985);opacity:0.20" cx="144" cy="144" r="44"/>
  <path style="opacity:0.20;fill:#ffffff" d="m 68,14.00 -8,8 v 1 l 8,-8 h 48 l 8,8 v -1 l -8,-8 z m -56,24 v 1 h 48 v -1 z m 56,0 v 1 h 48 v -1 z m 56,0 v 1 h 48 v -1 z"/>
  <circle style="fill:#fb613a" cx="144" cy="142" r="44"/>
  <path style="fill:#ffffff" d="m 130.53,124 c -14.39,0.00 -16.10,0.02 -16.30,0.16 L 114,124.31 v 18.64 c 0,0.39 0.00,0.32 0.00,0.69 0,0.33 0.00,0.26 0.00,0.60 v 17.29 l 0.12,0.08 c 0.02,0.09 0.05,0.15 0.08,0.18 0.19,0.19 0.34,0.20 4.43,0.20 h 3.68 l 0.10,0.10 c 0.82,0.02 1.15,0.07 1.30,0.17 L 124,161.53 v -17.29 c 0,-6.39 0.01,-7.69 0.02,-10.24 0.98,0.03 3.09,0.02 8.27,0.01 8.81,0.03 9.39,0.04 9.95,0.21 1.04,0.31 1.90,0.83 2.60,1.56 1.09,1.11 1.22,2.12 1.21,3.50 0.00,1.55 0.01,2.97 0.01,5.94 v 16.29 l 0.29,0.19 c 0.10,0.07 0.25,0.11 0.51,0.13 L 146.97,162 l 4.45,0.03 c 4.10,0.03 4.29,0.04 4.42,0.22 0.00,0.00 0.01,0.13 0.01,0.14 L 156,161.50 V 144.22 c 0,0.73 0.01,-1.36 0.03,-2.00 0.02,-4.71 0.07,-8.82 0.15,-9.31 0.35,-2.17 -1.15,-3.77 -2.69,-5.38 -1.86,-1.95 -4.12,-3.11 -6.65,-3.42 0.62,0.08 -4.86,0.11 -15.96,0.11 z M 169,124 c -4.43,0 -4.58,0.01 -4.79,0.20 C 164.00,124.40 164,124.53 164,142.99 v 18.59 l 0.29,0.21 C 164.56,162.00 164.68,162 169,162 c 4.32,0 4.44,0.01 4.71,0.21 L 174,161.59 v -18.59 c 0,-18.46 0.00,-18.59 0.21,-18.79 C 173.58,124.01 173.43,124 169,124 Z m -34,16.00 c -4.31,0 -4.65,0.01 -4.82,0.18 C 130.01,140.36 130,138.97 130,149.99 v 11.62 l 0.24,0.20 C 130.47,161.99 130.71,162 135,162 c 4.29,0 4.53,0.01 4.76,0.20 L 140,161.61 v -11.62 c 0,-11.02 0.01,-9.63 0.18,-9.80 0.17,0.17 0.51,0.18 -4.82,0.18 z"/>
</svg>
