<?xml version='1.0' encoding='utf-8'?>
<svg xmlns="http://www.w3.org/2000/svg" width="192" height="192" version="1.1" id="svg16">
  <defs>
    <filter style="color-interpolation-filters:sRGB" id="filter853" x="0.05" y="0.05" width="1.10" height="1.10">
      <feGaussianBlur stdDeviation="3.20"/>
    </filter>
    <filter style="color-interpolation-filters:sRGB" id="filter3913" x="0.05" y="0.05" width="1.10" height="1.10">
      <feGaussianBlur stdDeviation="2.52"/>
    </filter>
    <filter style="color-interpolation-filters:sRGB" id="filter3917" x="0.06" y="0.04" width="1.11" height="1.08">
      <feGaussianBlur stdDeviation="1.46"/>
    </filter>
  </defs>
  <circle style="filter:url(#filter853);opacity:0.20" cx="96" cy="100" r="80"/>
  <circle style="fill:#81c235" cx="96" cy="96" r="80"/>
  <circle style="filter:url(#filter3913);opacity:0.20;fill:#000000;stop-color:#000000" cx="96" cy="98" r="63"/>
  <circle style="fill:#ffffff;stop-color:#000000" cx="96" cy="96" r="63"/>
  <path style="opacity:0.20;fill:#ffffff" d="M 96,16 A 80,80 0 0 0 16,96 80,80 0 0 0 16.02,96.64 80,80 0 0 1 96,17 80,80 0 0 1 175.98,96.30 80,80 0 0 0 176,96 80,80 0 0 0 96,16 Z"/>
  <path style="filter:url(#filter3917);opacity:0.20;fill:#000000;stop-color:#000000" d="m 69,57 c -1.11,0 -2,0.89 -2,2 v 15 18 15 32 c 0,1.11 0.89,2 2,2 h 19 c 1.11,0 2,0.89 2,-2 v -30 h 3 c 1.11,0 2,0.89 2,-2 V 92 c 0,-1.11 0.89,-2 -2,-2 H 90 V 76 h 3 c 1.11,0 2,0.89 2,-2 V 59 c 0,-1.11 0.89,-2 -2,-2 h -5 z m 32,0 c -1.11,0 -2,0.89 -2,2 v 15 c 0,1.11 0.89,2 2,2 h 26 c 1.11,0 2,0.89 2,-2 V 59 c 0,-1.11 0.89,-2 -2,-2 z m 0,33 c -1.11,0 -2,0.89 -2,2 v 15 c 0,1.11 0.89,2 2,2 h 24 c 1.11,0 2,0.89 2,-2 V 92 c 0,-1.11 0.89,-2 -2,-2 z"/>
  <path style="fill:#0948a0;stop-color:#000000" d="m 69,55 c -1.11,0 -2,0.89 -2,2 v 15 18 15 32 c 0,1.11 0.89,2 2,2 h 19 c 1.11,0 2,0.89 2,-2 v -30 h 3 c 1.11,0 2,0.89 2,-2 V 90 c 0,-1.11 0.89,-2 -2,-2 H 90 V 74 h 3 c 1.11,0 2,0.89 2,-2 V 57 c 0,-1.11 0.89,-2 -2,-2 h -5 z m 32,0 c -1.11,0 -2,0.89 -2,2 v 15 c 0,1.11 0.89,2 2,2 h 26 c 1.11,0 2,0.89 2,-2 V 57 c 0,-1.11 0.89,-2 -2,-2 z m 0,33 c -1.11,0 -2,0.89 -2,2 v 15 c 0,1.11 0.89,2 2,2 h 24 c 1.11,0 2,0.89 2,-2 V 90 c 0,-1.11 0.89,-2 -2,-2 z"/>
</svg>
