<?xml version='1.0' encoding='utf-8'?>
<svg xmlns="http://www.w3.org/2000/svg" width="192" height="192" version="1" id="svg14">
  <defs>
    <filter style="color-interpolation-filters:sRGB" id="filter850" x="0.05" width="1.10" y="0.05" height="1.10">
      <feGaussianBlur stdDeviation="3.20"/>
    </filter>
    <filter style="color-interpolation-filters:sRGB" id="filter6815" x="0.11" y="0.11" width="1.22" height="1.22">
      <feGaussianBlur stdDeviation="4.95"/>
    </filter>
  </defs>
  <circle style="filter:url(#filter850);opacity:0.20;fill:#000000" cx="96" cy="100" r="80"/>
  <circle r="80" cy="96" cx="96" style="fill:#386cea;fill-opacity:1.00"/>
  <path style="fill:#38adfa" d="m 688.81,257.00 c 0.33,0.33 -1.19,0.37 -1.92,0.08 0.80,0.32 0.56,0.56 0.60,0.60 1.05,0.04 1.64,0.19 1.31,0.53 z"/>
  <path style="opacity:0.20;fill:#ffffff" d="M 96 16 A 80 80 0 0 0 16 96 A 80 80 0 0 0 16.02 96.47 A 80 80 0 0 1 96 17 A 80 80 0 0 1 175.97 96.51 A 80 80 0 0 0 176 96 A 80 80 0 0 0 96 16 z "/>
  <path style="filter:url(#filter6815);opacity:0.20;fill:#000000" d="m 96,43 c -30.38,0 -55,24.62 -55,55 0,30.38 24.62,55 55,55 2.76,0.03 5.51,0.28 8.22,0.72 2.42,0.33 3.11,0.84 4.67,-2.39 l 38.97,-38.97 c 1.61,-1.78 2.06,-2.58 2.35,-4.29 C 150.70,103.78 150.96,100.89 151,98 151,67.62 126.38,43 96,43 Z M 80.50,79 C 84.09,79 87,82.81 87,87.50 87,92.19 84.09,96 80.50,96 76.91,96 74,92.19 74,87.50 74,82.81 76.91,79 80.50,79 Z m 31,0 c 3.59,0 6.50,3.81 6.50,8.50 0,4.69 -2.91,8.50 -6.50,8.50 -3.59,0 -6.50,-3.81 -6.50,-8.50 0,-4.69 2.91,-8.50 6.50,-8.50 z m 3.35,27.00 c 0.84,0.03 1.68,0.20 2.38,0.67 1.84,1.23 2.33,3.71 1.10,5.55 0,0 -7.85,11.78 -22.32,11.78 -14.47,0 -22.32,-11.78 -22.32,-11.78 -1.23,-1.84 0.74,-4.32 1.10,-5.55 0.88,0.59 1.96,0.81 3.00,0.60 1.04,0.21 1.96,0.82 2.55,1.70 0,0 5.54,8.22 15.68,8.22 10.14,0 15.68,-8.22 15.68,-8.22 0.71,-1.06 1.89,-1.72 3.17,-1.77 z"/>
  <path style="fill:#ffffff" d="m 96,41 c -30.38,0 -55,24.62 -55,55 0,30.38 24.62,55 55,55 2.76,0.03 5.51,0.28 8.22,0.72 2.42,0.33 3.11,0.84 4.67,-2.39 l 38.97,-38.97 c 1.61,-1.78 2.06,-2.58 2.35,-4.29 C 150.70,101.78 150.96,98.89 151,96 151,65.62 126.38,41 96,41 Z M 80.50,77 C 84.09,77 87,80.81 87,85.50 87,90.19 84.09,94 80.50,94 76.91,94 74,90.19 74,85.50 74,80.81 76.91,77 80.50,77 Z m 31,0 c 3.59,0 6.50,3.81 6.50,8.50 0,4.69 -2.91,8.50 -6.50,8.50 -3.59,0 -6.50,-3.81 -6.50,-8.50 0,-4.69 2.91,-8.50 6.50,-8.50 z m 3.35,27.00 c 0.84,0.03 1.68,0.20 2.38,0.67 1.84,1.23 2.33,3.71 1.10,5.55 0,0 -7.85,11.78 -22.32,11.78 -14.47,0 -22.32,-11.78 -22.32,-11.78 -1.23,-1.84 0.74,-4.32 1.10,-5.55 0.88,0.59 1.96,0.81 3.00,0.60 1.04,0.21 1.96,0.82 2.55,1.70 0,0 5.54,8.22 15.68,8.22 10.14,0 15.68,-8.22 15.68,-8.22 0.71,-1.06 1.89,-1.72 3.17,-1.77 z"/>
</svg>
