<?xml version='1.0' encoding='utf-8'?>
<svg xmlns="http://www.w3.org/2000/svg" width="192" height="192" version="1.1" id="svg14">
  <defs>
    <filter style="color-interpolation-filters:sRGB" id="filter849" x="-0.048000001" y="-0.048000001" width="1.096" height="1.096">
      <feGaussianBlur stdDeviation="3.2"/>
    </filter>
    <filter style="color-interpolation-filters:sRGB" id="filter4152" x="-0.048713125" y="-0.047307448" width="1.0974263" height="1.0946149">
      <feGaussianBlur stdDeviation="2.0500108"/>
    </filter>
  </defs>
  <rect style="filter:url(#filter849);opacity:0.2" width="160" height="160" x="16" y="20" rx="32" ry="32"/>
  <rect style="fill:#134d93" width="160" height="160" x="16" y="16" rx="32" ry="32"/>
  <path style="opacity:0.1;fill:#ffffff" d="M 48,16 C 30.272,16 16,30.272 16,48 v 1 C 16,31.272 30.272,17 48,17 h 96 c 17.728,0 32,14.272 32,32 V 48 C 176,30.272 161.728,16 144,16 Z"/>
  <path style="filter:url(#filter4152);opacity:0.2;fill:#000000" d="m 109.53711,46.011719 c -5.33632,0.05762 -10.866044,0.303146 -13.189454,0.671875 -14.618293,2.31997 -23.547505,7.487196 -28.574218,16.935547 -3.484741,6.550006 -4.750992,14.973813 -2.935547,19.529297 1.764005,4.426415 6.505631,7.667363 13.507812,9.640624 1.186137,0.334266 5.033076,1.202973 8.548828,1.931641 10.71077,2.219895 13.939309,3.219867 15.419919,5.466797 0.6569,0.99694 0.7177,1.32908 0.59375,3.23438 -0.338,5.19556 -3.537171,8.56388 -8.404294,8.57812 -3.006933,0.009 -4.617529,-0.9479 -5.232422,-2.73438 -0.413092,-1.20019 -0.38713,-1.43002 0.5625,-5.12304 C 90.312202,102.28284 90.937579,99.88415 91.166016,99 H 58.982422 L 55.941406,110.08789 53,120.92773 l 1.689453,1.0293 c 5.412835,3.30227 12.781257,5.63651 20.667969,6.54492 1.523183,0.17544 3.163532,0.37253 3.644531,0.4375 0.48101,0.0649 5.138723,0.0806 10.349609,0.0352 7.809405,-0.0682 10.139905,-0.18742 13.263668,-0.67969 11.7882,-1.8577 19.51448,-5.35684 25.29102,-11.45312 4.55148,-4.80338 7.55442,-11.25401 8.84766,-18.597659 0.94645,-5.374511 -0.37219,-9.719594 -3.94922,-13.007813 -3.37858,-3.105798 -8.2214,-5.012819 -16.76953,-6.917969 C 104.71803,75.796021 101.20353,74.63224 99.261719,72.763672 97.827608,71.383638 97.648423,70.427432 98.414062,68.248047 99.500518,65.155488 101.79271,63.202478 105.27539,63 c 5.07214,-0.294889 6.55872,1.896066 5.39258,7.160156 C 110.43659,71.204647 110.1061,72.43162 109.93945,73 h 30.88282 L 143.40234,63.787109 146,54.384766 145.29688,53.84375 c -1.44498,-1.111146 -6.67555,-3.514768 -10.125,-4.652344 -4.15956,-1.371751 -9.691,-2.446991 -15.13477,-2.943359 -1.32253,-0.12059 -3.20737,-0.195516 -5.35352,-0.228516 -1.60961,-0.02475 -3.36771,-0.02703 -5.14648,-0.0078 z M 49.095703,136 45,150 h 78.9043 L 128,136 Z"/>
  <path style="fill:#ffffff" d="m 109.53711,44.011719 c -5.33632,0.05762 -10.866044,0.303146 -13.189454,0.671875 -14.618293,2.31997 -23.547168,7.487196 -28.573882,16.935547 -3.48474,6.550006 -4.750992,14.973814 -2.935547,19.529297 1.764005,4.426415 6.505295,7.667363 13.507476,9.640624 1.186137,0.334265 5.033076,1.202973 8.548828,1.931641 10.71077,2.219895 13.939309,3.219867 15.419919,5.466797 0.6569,0.996937 0.7177,1.329082 0.59375,3.23438 -0.338,5.19556 -3.537171,8.56388 -8.404294,8.57812 -3.006933,0.009 -4.617529,-0.9479 -5.232422,-2.73438 -0.413092,-1.20019 -0.38713,-1.43002 0.5625,-5.12304 C 90.312202,100.28284 90.937579,97.884148 91.166016,97 H 58.982422 L 55.941406,108.08789 53,118.92773 l 1.689453,1.0293 c 5.412835,3.30227 12.781257,5.63651 20.667969,6.54492 1.523183,0.17544 3.163532,0.37253 3.644531,0.4375 0.48101,0.0649 5.138723,0.0806 10.349609,0.0352 7.809404,-0.0682 10.139901,-0.18742 13.263668,-0.67969 11.7882,-1.8577 19.51448,-5.35684 25.29102,-11.45312 4.55148,-4.80338 7.55442,-11.25401 8.84766,-18.597659 0.94645,-5.374511 -0.37219,-9.719594 -3.94922,-13.007813 -3.37858,-3.105798 -8.2214,-5.012819 -16.76953,-6.917969 C 104.71803,73.796061 101.20353,72.63224 99.261719,70.763672 97.827608,69.383638 97.648422,68.427432 98.414062,66.248047 99.500517,63.155488 101.79271,61.202478 105.27539,61 c 5.07214,-0.294889 6.55872,1.896066 5.39258,7.160156 C 110.43659,69.204647 110.1061,70.43162 109.93945,71 h 30.88282 L 143.40234,61.787109 146,52.384766 145.29688,51.84375 c -1.44497,-1.111146 -6.67555,-3.514768 -10.125,-4.652344 -4.15956,-1.371751 -9.691,-2.446991 -15.13477,-2.943359 -1.32253,-0.12059 -3.20737,-0.195516 -5.35352,-0.228516 -1.60961,-0.02475 -3.36771,-0.02702 -5.14648,-0.0078 z"/>
  <path style="fill:#ffc107" d="M 49.095066,134 H 128 l -4.09507,14 H 45 Z"/>
  <path style="opacity:0.2;fill:#ffffff" d="M 49.095703 134 L 45 148 L 45.292969 148 L 49.095703 135 L 127.70703 135 L 128 134 L 49.095703 134 z "/>
</svg>
