<svg xmlns="http://www.w3.org/2000/svg" id="svg12" width="192" height="192" version="1"><defs><filter style="color-interpolation-filters:sRGB" id="filter1043" width="1.1" height="1.1" x=".05" y=".05"><feGaussianBlur stdDeviation="3.2"/></filter><filter style="color-interpolation-filters:sRGB" id="filter1086" width="1.1" height="1.09" x=".05" y=".04"><feGaussianBlur stdDeviation="2.24"/></filter></defs><rect width="160" height="160" x="16" y="20" fill="#2095f2" rx="8" ry="8" style="filter:url(#filter1043);opacity:.2;fill:#000"/><rect width="160" height="160" x="16" y="16" fill="#2095f2" rx="8" ry="8"/><path style="opacity:.2;fill:#fff" d="M 24 16 C 19.57 16 16 19.57 16 24 L 16 25 C 16 20.57 19.57 17 24 17 L 168 17 C 172.43 17 176 20.57 176 25 L 176 24 C 176 19.57 172.43 16 168 16 L 24 16 z"/><path d="m 60.81,157.43 c -17.00,-5.59 -22.44,-20.94 -10.10,-28.53 4.14,-2.55 12.86,-2.52 18.48,0.05 2.28,1.04 4.49,1.56 4.91,1.14 1.01,-1.02 2.90,-11.31 7.39,-40.18 3.87,-24.90 4.47,-33.44 2.70,-38.54 0.79,-2.27 0.76,-3.34 0.11,-4.40 2.88,-3.51 28.19,-8.99 41.43,-8.98 10.90,0.01 16.83,3.08 20.68,10.70 6.56,12.97 -7.76,35.26 -32.31,50.27 l -2.59,1.58 2.00,4.00 c 3.90,7.80 11.85,19.28 16.64,24.03 2.67,2.65 4.85,5.30 4.85,5.89 0,0.65 -1.78,1.07 -4.55,1.07 -8.91,0 -18.10,-6.58 -30.39,-21.77 -1.89,-2.34 -3.66,-4.03 -3.92,-3.76 0.27,0.27 -1.77,7.08 -3.34,15.14 -3.62,18.61 -6.82,25.63 -13.54,29.76 -3.53,2.17 -5.86,2.86 -10.33,3.05 -3.17,0.13 -6.83,0.10 -8.12,0.53 z m 50.24,-76.38 c 7.23,-5.18 13.43,-11.23 17.28,-16.88 2.47,-3.62 3.45,-4.37 5.09,-3.93 1.41,0.38 1.17,0.04 0.78,-1.12 -4.83,-2.87 -25.88,-1.42 -28.50,1.97 -1.01,1.30 -4.82,25.39 -4.18,26.44 0.51,0.83 2.52,0.35 11.09,-6.48 z" opacity=".2" style="filter:url(#filter1086)"/><path fill="#fff" d="m 60.81,155.43 c -17.00,-5.59 -22.44,-20.94 -10.10,-28.53 4.14,-2.55 12.86,-2.52 18.48,0.05 2.28,1.04 4.49,1.56 4.91,1.14 1.01,-1.02 2.90,-11.31 7.39,-40.18 3.87,-24.90 4.47,-33.44 2.70,-38.54 0.79,-2.27 0.76,-3.34 0.11,-4.40 2.88,-3.51 28.19,-8.99 41.43,-8.98 10.90,0.01 16.83,3.08 20.68,10.70 6.56,12.97 -7.76,35.26 -32.31,50.27 l -2.59,1.58 2.00,4.00 c 3.90,7.80 11.85,19.28 16.64,24.03 2.67,2.65 4.85,5.30 4.85,5.89 0,0.65 -1.78,1.07 -4.55,1.07 -8.91,0 -18.10,-6.58 -30.39,-21.77 -1.89,-2.34 -3.66,-4.03 -3.92,-3.76 0.27,0.27 -1.77,7.08 -3.34,15.14 -3.62,18.61 -6.82,25.63 -13.54,29.76 -3.53,2.17 -5.86,2.86 -10.33,3.05 -3.17,0.13 -6.83,0.10 -8.12,0.53 z m 50.24,-76.38 c 7.23,-5.18 13.43,-11.23 17.28,-16.88 2.47,-3.62 3.45,-4.37 5.09,-3.93 1.41,0.38 1.17,0.04 0.78,-1.12 -4.83,-2.87 -25.88,-1.42 -28.50,1.97 -1.01,1.30 -4.82,25.39 -4.18,26.44 0.51,0.83 2.52,0.35 11.09,-6.48 z"/></svg>