<?xml version='1.0' encoding='utf-8'?>
<svg xmlns="http://www.w3.org/2000/svg" width="192" height="192" version="1" id="svg72">
  <defs>
    <filter style="color-interpolation-filters:sRGB" id="filter937" x="-0.048000001" width="1.096" y="-0.048000001" height="1.096">
      <feGaussianBlur stdDeviation="3.2"/>
    </filter>
    <filter style="color-interpolation-filters:sRGB" id="filter956" x="-0.041999999" width="1.084" y="-0.055999998" height="1.112">
      <feGaussianBlur stdDeviation="0.84"/>
    </filter>
    <filter style="color-interpolation-filters:sRGB" id="filter1046" x="-0.042692308" width="1.0853846" y="-0.01669173" height="1.0333835">
      <feGaussianBlur stdDeviation="0.925"/>
    </filter>
  </defs>
  <rect style="filter:url(#filter937);opacity:0.2;fill:#000000" width="160" height="160" x="-180" y="-176" rx="8" ry="8" transform="matrix(0,-1,-1,0,0,0)"/>
  <rect transform="matrix(0,-1,-1,0,0,0)" ry="8" rx="8" y="-176" x="-176" height="160" width="160" style="fill:#4f4f4f"/>
  <path style="opacity:0.1;fill:#ffffff" d="M 24 16 C 19.568 16 16 19.568 16 24 L 16 25 C 16 20.568 19.568 17 24 17 L 168 17 C 172.432 17 176 20.568 176 25 L 176 24 C 176 19.568 172.432 16 168 16 L 24 16 z "/>
  <g style="fill:#4fff4f" transform="scale(4)">
    <rect transform="scale(-1,1)" y="40" x="-12" height="2" width="6" style="fill:#4fff4f"/>
    <rect transform="scale(-1,1)" y="40" x="-19" height="2" width="6" style="fill:#4fff4f"/>
    <rect transform="scale(-1,1)" y="37" x="-12" height="2" width="6" style="fill:#4fff4f"/>
    <rect transform="scale(-1,1)" y="37" x="-19" height="2" width="6" style="fill:#4fff4f"/>
    <rect transform="scale(-1,1)" y="34" x="-12" height="2" width="6" style="fill:#4fff4f"/>
    <rect transform="scale(-1,1)" y="34" x="-19" height="2" width="6" style="fill:#4fff4f"/>
    <rect transform="scale(-1,1)" y="31" x="-12" height="2" width="6" style="fill:#4fff4f"/>
    <rect transform="scale(-1,1)" y="31" x="-19" height="2" width="6" style="fill:#4fff4f"/>
  </g>
  <g style="fill:#ffdb2d" transform="scale(4)">
    <rect transform="scale(-1,1)" y="28" x="-12" height="2" width="6" style="fill:#ffdb2d"/>
    <rect transform="scale(-1,1)" y="28" x="-19" height="2" width="6" style="fill:#ffdb2d"/>
    <rect transform="scale(-1,1)" y="25" x="-12" height="2" width="6" style="fill:#ffdb2d"/>
    <rect transform="scale(-1,1)" y="25" x="-19" height="2" width="6" style="fill:#ffdb2d"/>
    <rect transform="scale(-1,1)" y="22" x="-12" height="2" width="6" style="fill:#ffdb2d"/>
    <rect transform="scale(-1,1)" y="22" x="-19" height="2" width="6" style="fill:#ffdb2d"/>
    <rect transform="scale(-1,1)" y="19" x="-12" height="2" width="6" style="fill:#ffdb2d"/>
    <rect transform="scale(-1,1)" y="19" x="-19" height="2" width="6" style="fill:#ffdb2d"/>
  </g>
  <g style="fill:#ff4d4d" transform="scale(4)">
    <rect transform="scale(-1,1)" y="16" x="-12" height="2" width="6" style="fill:#ff4d4d"/>
    <rect transform="scale(-1,1)" y="16" x="-19" height="2" width="6" style="fill:#ff4d4d"/>
    <rect transform="scale(-1,1)" y="13" x="-12" height="2" width="6" style="fill:#ff4d4d"/>
    <rect transform="scale(-1,1)" y="13" x="-19" height="2" width="6" style="fill:#ff4d4d"/>
    <rect transform="scale(-1,1)" y="10" x="-12" height="2" width="6" style="fill:#ff4d4d"/>
    <rect transform="scale(-1,1)" y="10" x="-19" height="2" width="6" style="fill:#ff4d4d"/>
    <rect transform="scale(-1,1)" y="7" x="-12" height="2" width="6" style="fill:#ff4d4d"/>
    <rect transform="scale(-1,1)" y="7" x="-19" height="2" width="6" style="fill:#ff4d4d"/>
  </g>
  <path d="M 136,86.333336 V 163.60568 C 136,166.04014 133.15988,168 129.632,168 h -3.264 C 122.84013,168 120,166.04014 120,163.60568 V 86.333336 Z" style="fill:#9f9f9f"/>
  <path d="m 126.375,28.000005 c -3.52787,0 -6.375,1.963331 -6.375,4.397785 v 53.935546 h 16 V 32.39779 c 0,-2.434454 -2.84712,-4.397785 -6.375,-4.397785 z" style="opacity:0.3"/>
  <rect ry="12" rx="12" y="62" x="104" height="36" width="48" style="filter:url(#filter956);opacity:0.2"/>
  <rect ry="12" rx="12" y="60" x="104" height="36" width="48" style="fill:#ffffff"/>
  <path style="filter:url(#filter1046);opacity:0.2;fill:#000000" d="M 24 28 L 24 29 L 48 29 L 48 28 L 24 28 z M 52 28 L 52 29 L 76 29 L 76 28 L 52 28 z M 24 40 L 24 41 L 48 41 L 48 40 L 24 40 z M 52 40 L 52 41 L 76 41 L 76 40 L 52 40 z M 24 52 L 24 53 L 48 53 L 48 52 L 24 52 z M 52 52 L 52 53 L 76 53 L 76 52 L 52 52 z M 24 64 L 24 65 L 48 65 L 48 64 L 24 64 z M 52 64 L 52 65 L 76 65 L 76 64 L 52 64 z M 24 76 L 24 77 L 48 77 L 48 76 L 24 76 z M 52 76 L 52 77 L 76 77 L 76 76 L 52 76 z M 24 88 L 24 89 L 48 89 L 48 88 L 24 88 z M 52 88 L 52 89 L 76 89 L 76 88 L 52 88 z M 24 100 L 24 101 L 48 101 L 48 100 L 24 100 z M 52 100 L 52 101 L 76 101 L 76 100 L 52 100 z M 24 112 L 24 113 L 48 113 L 48 112 L 24 112 z M 52 112 L 52 113 L 76 113 L 76 112 L 52 112 z M 24 124 L 24 125 L 48 125 L 48 124 L 24 124 z M 52 124 L 52 125 L 76 125 L 76 124 L 52 124 z M 24 136 L 24 137 L 48 137 L 48 136 L 24 136 z M 52 136 L 52 137 L 76 137 L 76 136 L 52 136 z M 24 148 L 24 149 L 48 149 L 48 148 L 24 148 z M 52 148 L 52 149 L 76 149 L 76 148 L 52 148 z M 24 160 L 24 161 L 48 161 L 48 160 L 24 160 z M 52 160 L 52 161 L 76 161 L 76 160 L 52 160 z "/>
</svg>
