<?xml version='1.0' encoding='utf-8'?>
<svg xmlns="http://www.w3.org/2000/svg" width="192" height="192" version="1" id="svg18">
  <defs>
    <filter style="color-interpolation-filters:sRGB" id="filter905" x="-0.108" width="1.216" y="-0.108" height="1.216">
      <feGaussianBlur stdDeviation="2.16"/>
    </filter>
    <filter style="color-interpolation-filters:sRGB" id="filter925" x="-0.054000002" width="1.108" y="-0.043200002" height="1.0864">
      <feGaussianBlur stdDeviation="2.88"/>
    </filter>
    <filter style="color-interpolation-filters:sRGB" id="filter23259" x="-0.088902436" y="-0.13754717" width="1.1778049" height="1.2750943">
      <feGaussianBlur stdDeviation="3.0375"/>
    </filter>
  </defs>
  <path d="m 40,20 c -4.432,0 -8,3.568 -8,8 v 144 c 0,4.432 3.568,8 8,8 h 112 c 4.432,0 8,-3.568 8,-8 V 68 l -44,-4 -4,-44 z" style="filter:url(#filter925);opacity:0.2"/>
  <path d="m 40,16 c -4.432,0 -8,3.568 -8,8 v 144 c 0,4.432 3.568,8 8,8 h 112 c 4.432,0 8,-3.568 8,-8 V 64 l -44,-4 -4,-44 z" style="fill:#d12d4a"/>
  <path style="filter:url(#filter23259);opacity:0.2;fill:#000000" d="m 60,60 a 5,5 0 0 0 -5,5 5,5 0 0 0 5,5 h 32 a 5,5 0 0 0 5,-5 5,5 0 0 0 -5,-5 z m -5,24 v 29 h 8 v -10 h 4.478516 c 3.710334,0 6.554358,-0.87815 8.533203,-2.50977 C 78.003582,98.845671 79,96.502074 79,93.458984 79,90.428843 78.003582,88.098411 76.011719,86.466797 74.032874,84.822234 71.18885,84 67.478516,84 Z m 29,0 v 29 h 7.802734 c 4.304627,0 7.533239,-0.31007 9.685546,-0.93164 2.15231,-0.63451 3.99584,-1.70295 5.5332,-3.20508 1.3452,-1.30788 2.34467,-2.81804 2.99805,-4.52734 0.65339,-1.72227 0.98047,-3.6768 0.98047,-5.865237 0,-2.162536 -0.32708,-4.09733 -0.98047,-5.806641 -0.65338,-1.70931 -1.65285,-3.219462 -2.99805,-4.527343 -1.52455,-1.502122 -3.35659,-2.56398 -5.49609,-3.185547 C 99.398701,84.316655 96.158606,84 91.802734,84 Z m 33,0 v 29 h 8 v -12 h 11 v -6 h -11 v -5 h 12 v -6 z m -54,5 h 4.289062 c 1.503356,0 2.66363,0.389036 3.482422,1.166016 C 71.590276,90.942994 72,92.049433 72,93.488281 c 0,1.43885 -0.409724,2.554337 -1.228516,3.345703 C 69.952692,97.610962 68.792419,98 67.289062,98 H 63 Z m 29,0 h 1.658203 c 3.043343,0 5.360831,0.807042 6.953127,2.419922 1.59229,1.612879 2.38867,3.96211 2.38867,7.048828 0,3.10062 -0.80307,5.46502 -2.4082,7.0918 C 98.999501,107.18733 96.688704,108 93.658203,108 H 92 Z"/>
  <path style="fill:#ffffff" d="m 84,82 v 29 h 7.802734 c 4.304627,0 7.533238,-0.31007 9.685546,-0.93164 2.15231,-0.63451 3.99584,-1.70295 5.5332,-3.20508 1.3452,-1.30788 2.34467,-2.81804 2.99805,-4.52734 C 110.67292,100.61367 111,98.659138 111,96.470703 c 0,-2.162536 -0.32708,-4.09733 -0.98047,-5.806641 -0.65338,-1.70931 -1.65285,-3.219462 -2.99805,-4.527343 -1.52455,-1.502122 -3.35659,-2.56398 -5.49609,-3.185547 C 99.3987,82.316655 96.158606,82 91.802734,82 Z m 8,5 h 1.658203 c 3.043343,0 5.360833,0.807042 6.953127,2.419922 1.59229,1.612879 2.38867,3.96211 2.38867,7.048828 0,3.100623 -0.80307,5.46502 -2.4082,7.0918 C 98.999504,105.18733 96.688704,106 93.658203,106 H 92 Z"/>
  <path style="opacity:0.1;fill:#ffffff" d="M 40 16 C 35.568 16 32 19.568 32 24 L 32 25 C 32 20.568 35.568 17 40 17 L 112 17 L 159 64 L 160 64 L 112 16 L 40 16 z "/>
  <path d="m 112,18 v 40 c 0,4.4184 3.58172,8 8,8 h 40 z" style="filter:url(#filter905);opacity:0.15"/>
  <path d="m 112,16 v 40 c 0,4.4184 3.58172,8 8,8 h 40 z" style="fill:#e44c6c"/>
  <path style="fill:#ffffff" d="M 55 82 L 55 111 L 63 111 L 63 101 L 67.478516 101 C 71.18885 101 74.032874 100.12185 76.011719 98.490234 C 78.003582 96.845671 79 94.502074 79 91.458984 C 79 88.428843 78.003582 86.098411 76.011719 84.466797 C 74.032874 82.822234 71.18885 82 67.478516 82 L 55 82 z M 63 87 L 67.289062 87 C 68.792418 87 69.952692 87.389036 70.771484 88.166016 C 71.590276 88.942994 72 90.049433 72 91.488281 C 72 92.927131 71.590276 94.042618 70.771484 94.833984 C 69.952692 95.610962 68.792418 96 67.289062 96 L 63 96 L 63 87 z "/>
  <path d="m 117,82 h 20 v 6 h -12 v 5 h 11 v 6 h -11 v 12 h -8 z" style="fill:#ffffff"/>
  <path style="fill:#e44c6c;color:#000000" d="m 60,58 a 5,5 0 0 0 -5,5 5,5 0 0 0 5,5 h 32 a 5,5 0 0 0 5,-5 5,5 0 0 0 -5,-5 z"/>
</svg>
