<?xml version='1.0' encoding='utf-8'?>
<svg xmlns="http://www.w3.org/2000/svg" width="192" height="192" version="1" id="svg28">
  <defs>
    <filter style="color-interpolation-filters:sRGB" id="filter6495" x="0.05" y="0.05" width="1.10" height="1.10">
      <feGaussianBlur stdDeviation="3.20"/>
    </filter>
    <filter style="color-interpolation-filters:sRGB" id="filter2427" x="0.08" y="0.08" width="1.16" height="1.15">
      <feGaussianBlur stdDeviation="5"/>
    </filter>
  </defs>
  <rect transform="matrix(0,-1,-1,0,0,0)" ry="12" rx="12" y="-176" x="-180" height="160" width="160" style="filter:url(#filter6495);opacity:0.20;fill:#000000"/>
  <rect transform="matrix(0,-1,-1,0,0,0)" ry="12" rx="12" y="-176" x="-176" height="160" width="160" style="fill:#f35820"/>
  <path style="filter:url(#filter2427);opacity:0.20;fill:#000000" d="m 68.43,18 c 0,0 -13.02,22.53 5.37,58.52 9.41,18.41 23.42,34.91 23.42,34.91 L 80.35,124.88 28.25,59.78 21.15,52.86 20.55,69.08 l -1.43,11.90 45.02,56.79 -37.94,31.44 0.59,2.19 c 2.16,2.09 0.26,0.13 3.39,0.73 l 3.49,0.95 5.33,5.04 32.66,-27.32 21.74,26.31 8.85,-2.94 10.79,0.30 20.94,-3.20 c 0,0 -6.45,4.30 -22.21,-6.62 -9.31,-6.45 -23.99,-25.77 -23.99,-25.77 l 17.19,-14.20 c 0,0 16.42,21.61 35.46,26.71 16.02,4.29 26.26,0.86 31.55,-5.11 2.13,-1.71 -5.76,-10.77 0.10,-6.60 l 0.69,-4.15 c -4.13,2.30 -3.44,0.35 -7.20,0.42 -11.69,0.20 -21.64,-9.26 -30.21,-17.82 C 126.04,106.24 118,97.08 118,80.60 118,69.29 127.99,54 146.05,54 c 9.86,0 20.56,6.47 26.14,10.40 2.11,1.49 -2.42,-8.79 -2.10,-8.52 l 0.58,-14.37 c -4.19,0.11 4.15,-2.30 1.33,-3.20 C 161.36,35.27 140.63,31.91 121.62,50.92 109.57,62.97 108.50,83.51 108.50,83.51 108.54,83.97 91.95,63.29 87.77,43.75 86.75,38.95 86.00,34.90 86,31.52 86.00,22.06 89.35,18 89.35,18 Z"/>
  <path style="fill:#ffffff" d="m 68.43,16 c 0,0 -13.02,22.53 5.37,58.52 9.41,18.41 23.42,34.91 23.42,34.91 L 80.35,122.88 28.25,57.78 16,42.28 V 75.05 L 64.13,135.77 19.66,172.62 C 21.82,174.71 24.75,176 28,176 h 7.12 L 71.66,145.44 96.91,176 h 24.71 l 12.36,-10.68 c 0,0 -6.45,4.30 -22.21,-6.62 -9.31,-6.45 -23.99,-25.77 -23.99,-25.77 l 17.19,-14.20 c 0,0 16.42,21.61 35.46,26.71 22.46,6.02 33.57,-6.53 35.58,-9.12 v -10.12 c -4.13,2.30 -8.06,3.74 -11.82,3.80 -11.69,0.20 -21.64,-9.26 -30.21,-17.82 C 126.04,104.24 118,95.08 118,78.60 118,67.29 127.99,52 146.05,52 159.64,52 174.84,64.30 176,65.28 V 38.33 C 173.81,37.24 146.27,24.27 121.62,48.92 109.57,60.97 108.50,81.51 108.50,81.51 108.54,81.97 91.95,61.29 87.77,41.75 86.75,36.95 86.00,32.90 86,29.52 86.00,20.06 89.35,16 89.35,16 Z"/>
  <path style="opacity:0.20;fill:#ffffff" d="m 28,16 c -6.65,0 -12,5.35 -12,12 v 1 c 0,-6.65 5.35,-12 12,-12 h 136 c 6.65,0 12,5.35 12,12 v -1 c 0,-6.65 -5.35,-12 -12,-12 z"/>
</svg>
