<?xml version='1.0' encoding='utf-8'?>
<svg xmlns="http://www.w3.org/2000/svg" width="192" height="192" version="1" id="svg28">
  <defs>
    <filter style="color-interpolation-filters:sRGB" id="filter1767" x="0.04" y="0.06" width="1.08" height="1.12">
      <feGaussianBlur stdDeviation="2.89"/>
    </filter>
    <filter style="color-interpolation-filters:sRGB" id="filter1953" x="0.07" y="0.27" width="1.14" height="1.53">
      <feGaussianBlur stdDeviation="3.33"/>
    </filter>
  </defs>
  <path style="filter:url(#filter1767);opacity:0.20;fill:#000000" d="m 52.34,38.00 c -3.85,0.03 -7.78,0.49 -11.70,1.62 -11.55,3.35 -20.56,11.01 -25.74,21.90 -2.61,5.47 -3.50,9.06 -3.84,15.40 0.56,10.50 2.43,19.72 9.09,28.11 4.39,5.53 12.18,10.86 19.19,13.13 1.45,0.47 2.63,0.97 2.63,1.10 0,0.14 -5.41,8.58 -12.02,18.76 -6.61,10.18 -12.02,18.96 -12.02,18.96 H 50.37 L 68.64,128.84 C 78.69,113.35 87.49,99.66 88.19,98.42 91.55,92.47 93.41,83.84 92.92,76.41 91.50,54.38 73.12,38.17 52.34,38.00 Z m 88,0 c -3.85,0.03 -7.78,0.49 -11.70,1.62 -11.55,3.35 -20.56,11.01 -25.74,21.90 -2.61,5.47 -3.50,9.06 -3.84,15.40 0.56,10.50 2.43,19.72 9.09,28.11 4.39,5.53 12.18,10.86 19.19,13.13 1.45,0.47 2.63,0.97 2.63,1.10 0,0.14 -5.41,8.58 -12.02,18.76 -6.61,10.18 -12.02,18.96 -12.02,18.96 h 32.44 l 18.27,-28.16 c 10.05,-15.49 18.84,-29.18 19.54,-30.42 3.36,-5.95 5.22,-14.58 4.73,-22.01 -1.43,-22.03 -19.80,-38.24 -40.58,-38.41 z"/>
  <path style="fill:#fe7e15" d="m 140.34,35.00 c -3.85,0.03 -7.78,0.49 -11.70,1.62 -11.55,3.35 -20.56,11.01 -25.74,21.90 -2.61,5.47 -3.50,9.06 -3.84,15.40 0.56,10.50 2.43,19.72 9.09,28.11 4.39,5.53 12.18,10.86 19.19,13.13 1.45,0.47 2.63,0.97 2.63,1.10 0,0.14 -5.41,8.58 -12.02,18.76 C 111.34,145.22 105.93,154 105.93,154 h 32.44 l 18.27,-28.16 c 10.05,-15.49 18.84,-29.18 19.54,-30.42 3.36,-5.95 5.22,-14.58 4.73,-22.01 -1.43,-22.03 -19.80,-38.24 -40.58,-38.41 z"/>
  <path style="fill:#feb315" d="m 52.34,35.00 c -3.85,0.03 -7.78,0.49 -11.70,1.62 -11.55,3.35 -20.56,11.01 -25.74,21.90 -2.61,5.47 -3.50,9.06 -3.84,15.40 0.56,10.50 2.43,19.72 9.09,28.11 4.39,5.53 12.18,10.86 19.19,13.13 1.45,0.47 2.63,0.97 2.63,1.10 0,0.14 -5.41,8.58 -12.02,18.76 C 23.34,145.22 17.93,154 17.93,154 H 50.37 L 68.64,125.84 C 78.69,110.35 87.49,96.66 88.19,95.42 91.55,89.47 93.41,80.84 92.92,73.41 91.50,51.38 73.12,35.17 52.34,35.00 Z"/>
  <path style="filter:url(#filter1953);opacity:0.20;fill:#000000" d="m 52.23,63.00 c -3.73,0.06 -7.52,1.29 -10.57,4.25 -6.87,6.69 -6.05,17.26 1.78,23.02 4.05,2.98 10.08,3.59 14.79,1.48 C 64.84,88.80 68.47,80.90 66.44,73.89 64.45,67.07 58.44,63.10 52.23,63.00 Z m 88.00,0 c -3.73,0.06 -7.52,1.29 -10.57,4.25 -6.87,6.69 -6.05,17.26 1.78,23.02 4.05,2.98 10.08,3.59 14.79,1.48 6.61,-2.95 10.24,-10.85 8.20,-17.86 -1.98,-6.83 -7.99,-10.80 -14.20,-10.89 z"/>
  <path style="fill:#ffffff" d="M 52.23 61.00 C 48.51 60.95 44.71 62.29 41.67 65.25 C 34.80 71.93 35.61 82.50 43.45 88.27 C 47.50 91.25 53.52 91.86 58.23 89.75 C 64.84 86.80 68.47 78.90 66.44 71.89 C 64.45 65.07 58.44 61.09 52.23 61.00 z M 140.23 61.00 C 136.51 60.95 132.71 62.29 129.67 65.25 C 122.80 71.93 123.61 82.50 131.45 88.27 C 135.50 91.25 141.52 91.86 146.23 89.75 C 152.84 86.80 156.47 78.90 154.44 71.89 C 152.45 65.07 146.44 61.09 140.23 61.00 z "/>
  <path style="opacity:0.20;fill:#ffffff" d="M 52.34 35.00 C 48.50 34.97 44.57 35.49 40.65 36.63 C 29.10 39.97 20.09 47.63 14.90 58.52 C 12.30 64.00 11.40 67.58 11.07 73.93 C 10.99 75.28 10.99 76.62 11.03 77.93 C 11.02 76.94 11.01 75.94 11.07 74.93 C 11.40 68.58 12.30 65.00 14.90 59.52 C 20.09 48.63 29.10 40.97 40.65 37.63 C 44.57 36.49 48.50 35.97 52.34 36.00 C 73.12 36.17 91.50 52.38 92.92 74.41 C 92.97 75.12 92.98 75.86 92.98 76.60 C 93.00 75.52 92.99 74.45 92.92 73.41 C 91.50 51.38 73.12 35.17 52.34 35.00 z M 140.34 35.00 C 136.50 34.97 132.57 35.49 128.65 36.63 C 117.10 39.97 108.09 47.63 102.90 58.52 C 100.30 64.00 99.40 67.58 99.07 73.93 C 98.99 75.28 98.99 76.62 99.03 77.93 C 99.02 76.94 99.01 75.94 99.07 74.93 C 99.40 68.58 100.30 65.00 102.90 59.52 C 108.09 48.63 117.10 40.97 128.65 37.63 C 132.57 36.49 136.50 35.97 140.34 36.00 C 161.12 36.17 179.50 52.38 180.92 74.41 C 180.97 75.12 180.98 75.86 180.98 76.60 C 181.00 75.52 180.99 74.45 180.92 73.41 C 179.50 51.38 161.12 35.17 140.34 35.00 z M 41.51 117.02 C 40.86 118.15 36.13 125.53 29.95 135.04 C 23.34 145.22 17.93 154 17.93 154 L 18.55 154 C 19.40 152.64 23.92 145.32 29.95 136.04 C 36.57 125.85 41.97 117.41 41.97 117.28 C 41.97 117.24 41.70 117.12 41.51 117.02 z M 129.51 117.02 C 128.86 118.15 124.13 125.53 117.95 135.04 C 111.34 145.22 105.93 154 105.93 154 L 106.55 154 C 107.40 152.64 111.92 145.32 117.95 136.04 C 124.57 125.85 129.97 117.41 129.97 117.28 C 129.97 117.24 129.70 117.12 129.51 117.02 z "/>
</svg>
