<?xml version='1.0' encoding='utf-8'?>
<svg xmlns="http://www.w3.org/2000/svg" width="192" height="192" version="1" id="svg12">
  <defs>
    <filter style="color-interpolation-filters:sRGB" id="filter845" x="-0.048000001" y="-0.048000001" width="1.096" height="1.096">
      <feGaussianBlur stdDeviation="3.2"/>
    </filter>
    <filter style="color-interpolation-filters:sRGB" id="filter849" x="-0.048" y="-0.048" width="1.096" height="1.096">
      <feGaussianBlur stdDeviation="2.24"/>
    </filter>
  </defs>
  <rect style="filter:url(#filter845);opacity:0.2" width="160" height="160" x="16" y="20" rx="48" ry="48"/>
  <rect style="fill:#0dbc8a" width="160" height="160" x="16" y="16" rx="48" ry="48"/>
  <path style="opacity:0.2;fill:#ffffff" d="M 64 16 C 37.408 16 16 37.408 16 64 L 16 65 C 16 38.408 37.408 17 64 17 L 128 17 C 154.592 17 176 38.408 176 65 L 176 64 C 176 37.408 154.592 16 128 16 L 64 16 z "/>
  <path style="filter:url(#filter849);opacity:0.2" d="m 87.040364,42 c -3.711308,0 -6.717448,3.006096 -6.717448,6.717448 0,3.711352 3.00614,6.726564 6.717448,6.726564 17.319866,0 31.363276,14.034532 31.363276,31.354164 0,3.7114 3.00605,6.717448 6.71745,6.717448 3.7114,0 6.71745,-3.006048 6.71745,-6.717448 C 131.83854,62.055836 111.78256,42 87.040364,42 Z m -2.242188,20.161456 c -24.74234,4.8e-5 -44.798178,20.055744 -44.798177,44.798184 0,3.7114 3.006093,6.71744 6.717449,6.71744 3.711352,0 6.72656,-3.00604 6.72656,-6.71744 0,-17.319868 14.034532,-31.363288 31.354168,-31.363288 3.7114,0 6.717448,-3.006092 6.717448,-6.717448 0,-3.711352 -3.006048,-6.717448 -6.717448,-6.717448 z m 60.484374,20.16146 c -3.7114,0 -6.72656,3.006144 -6.72656,6.717448 0,17.319866 -14.0343,31.363276 -31.35417,31.363276 -3.7114,0 -6.71744,3.00605 -6.71744,6.71745 0,3.7114 3.00604,6.71745 6.71744,6.71745 24.7422,0 44.79818,-20.05598 44.79818,-44.798176 0,-3.711304 -3.00605,-6.717448 -6.71745,-6.717448 z M 66.878904,102.48438 c -3.711356,0 -6.717448,3.00604 -6.717448,6.71744 0,24.7422 20.05574,44.79818 44.798184,44.79818 3.7114,0 6.71744,-3.00605 6.71744,-6.71745 0,-3.7114 -3.00604,-6.72656 -6.71744,-6.72656 -17.319872,0 -31.363288,-14.0343 -31.363288,-31.35417 0,-3.7114 -3.006096,-6.71744 -6.717448,-6.71744 z"/>
  <path style="fill:#ffffff" d="m 87.040364,40 c -3.711308,0 -6.717448,3.006096 -6.717448,6.717448 0,3.711352 3.00614,6.726564 6.717448,6.726564 17.319866,0 31.363276,14.034532 31.363276,31.354164 0,3.7114 3.00605,6.717448 6.71745,6.717448 3.7114,0 6.71745,-3.006048 6.71745,-6.717448 C 131.83854,60.055836 111.78256,40 87.040364,40 Z m -2.242188,20.161456 c -24.74234,4.8e-5 -44.798178,20.055744 -44.798177,44.798184 0,3.7114 3.006093,6.71744 6.717449,6.71744 3.711352,0 6.72656,-3.00604 6.72656,-6.71744 0,-17.319868 14.034532,-31.363288 31.354168,-31.363288 3.7114,0 6.717448,-3.006092 6.717448,-6.717448 0,-3.711352 -3.006048,-6.717448 -6.717448,-6.717448 z m 60.484374,20.16146 c -3.7114,0 -6.72656,3.006144 -6.72656,6.717448 0,17.319866 -14.0343,31.363276 -31.35417,31.363276 -3.7114,0 -6.71744,3.00605 -6.71744,6.71745 0,3.7114 3.00604,6.71745 6.71744,6.71745 24.7422,0 44.79818,-20.05598 44.79818,-44.798176 0,-3.711304 -3.00605,-6.717448 -6.71745,-6.717448 z M 66.878904,100.48438 c -3.711356,0 -6.717448,3.00604 -6.717448,6.71744 0,24.7422 20.05574,44.79818 44.798184,44.79818 3.7114,0 6.71744,-3.00605 6.71744,-6.71745 0,-3.7114 -3.00604,-6.72656 -6.71744,-6.72656 -17.319872,0 -31.363288,-14.0343 -31.363288,-31.35417 0,-3.7114 -3.006096,-6.71744 -6.717448,-6.71744 z"/>
</svg>
