<svg xmlns="http://www.w3.org/2000/svg" id="svg28" width="192" height="192" version="1.1"><defs><filter style="color-interpolation-filters:sRGB" id="filter874" width="1.1" height="1.1" x=".05" y=".05"><feGaussianBlur stdDeviation="3.2"/></filter><filter style="color-interpolation-filters:sRGB" id="filter8133" width="1.15" height="1.15" x=".07" y=".07"><feGaussianBlur stdDeviation="1.75"/></filter></defs><path d="m 96,20 c -44.14,0 -80,35.86 -80,80 0,44.14 35.86,80.00 80,80 44.14,0 80.00,-35.86 80,-80 0,-44.14 -35.86,-80 -80,-80 z" style="filter:url(#filter874);opacity:.2"/><path d="M 96,16.00 C 51.86,16.00 16,51.86 16,96 c 0,44.14 35.86,80.00 80,80 44.14,0 80.00,-35.86 80,-80 0,-44.14 -35.86,-80.00 -80,-80.00 z" style="fill:#3f3f3f"/><path style="fill:none;stroke:#ec4646;stroke-width:4" d="M 96,96 61.07,130.79"/><path style="opacity:.1;fill:#fff" d="M 96 16 C 51.86 16 16 51.86 16 96 C 16 96.12 16.01 96.23 16.01 96.35 C 16.36 52.51 52.08 17 96 17 C 139.92 17 175.64 52.51 175.99 96.35 C 175.99 96.23 176 96.12 176 96 C 176 51.86 140.14 16 96 16 z"/><path style="opacity:.3;fill:#000" d="M 96 34 A 3 3 0 0 0 93 37 A 3 3 0 0 0 96 40 A 3 3 0 0 0 99 37 A 3 3 0 0 0 96 34 z M 54.07 51.29 A 3 3 0 0 0 52.16 52.16 A 3 3 0 0 0 52.16 56.40 A 3 3 0 0 0 56.40 56.40 A 3 3 0 0 0 56.40 52.16 A 3 3 0 0 0 54.07 51.29 z M 137.51 51.29 A 3 3 0 0 0 135.60 52.16 A 3 3 0 0 0 135.60 56.40 A 3 3 0 0 0 139.84 56.40 A 3 3 0 0 0 139.84 52.16 A 3 3 0 0 0 137.51 51.29 z M 37 93 A 3 3 0 0 0 34 96 A 3 3 0 0 0 37 99 A 3 3 0 0 0 40 96 A 3 3 0 0 0 37 93 z M 155 93 A 3 3 0 0 0 152 96 A 3 3 0 0 0 155 99 A 3 3 0 0 0 158 96 A 3 3 0 0 0 155 93 z M 54.07 134.73 A 3 3 0 0 0 52.16 135.60 A 3 3 0 0 0 52.16 139.84 A 3 3 0 0 0 56.40 139.84 A 3 3 0 0 0 56.40 135.60 A 3 3 0 0 0 54.07 134.73 z M 137.51 134.73 A 3 3 0 0 0 135.60 135.60 A 3 3 0 0 0 135.60 139.84 A 3 3 0 0 0 139.84 139.84 A 3 3 0 0 0 139.84 135.60 A 3 3 0 0 0 137.51 134.73 z M 96 152 A 3 -3 0 0 0 93 155 A 3 -3 0 0 0 96 158 A 3 -3 0 0 0 99 155 A 3 -3 0 0 0 96 152 z"/><path style="filter:url(#filter8133);opacity:.2;fill:#000;color:#000" d="m 96,48 a 6,6 0 0 0 -6,6 v 44 a 6,6 0 0 0 6,6 h 44 a 6,6 0 0 0 6,-6 6,6 0 0 0 -6,-6 H 102 V 54 a 6,6 0 0 0 -6,-6 z"/><path d="m 96,96 h 44" style="fill:none;stroke:#fff;stroke-width:12;stroke-linecap:round;stroke-linejoin:round"/><path d="M 96,52 V 96" style="fill:none;stroke:#fff;stroke-width:12;stroke-linecap:round;stroke-linejoin:round"/></svg>