<svg xmlns="http://www.w3.org/2000/svg" id="svg22" width="192" height="192" version="1"><defs><filter style="color-interpolation-filters:sRGB" id="filter862" width="1.1" height="1.1" x=".05" y=".05"><feGaussianBlur stdDeviation="3.2"/></filter><filter style="color-interpolation-filters:sRGB" id="filter878" width="1.08" height="1.11" x=".04" y=".06"><feGaussianBlur stdDeviation=".38"/></filter></defs><rect width="160" height="160" x="-180" y="-176" rx="8" ry="8" transform="matrix(0,-1,-1,0,0,0)" style="filter:url(#filter862);opacity:.2;fill:#000"/><rect style="fill:#1da6e8" width="160" height="160" x="-176" y="-176" rx="8" ry="8" transform="matrix(0,-1,-1,0,0,0)"/><g style="filter:url(#filter878);opacity:.2" transform="matrix(4,0,0,4,0,8)"><path d="m 13,15 v 16 h 6 V 21 h 10 v 10 h 6 V 20 c 0,-4.03 -4.24,-5 -6,-5 z"/><path d="m 22,24 v 5 h 4 v -5 z"/></g><path style="opacity:.2;fill:#fff" d="M 24 16 C 19.57 16 16 19.57 16 24 L 16 25 C 16 20.57 19.57 17 24 17 L 168 17 C 172.43 17 176 20.57 176 25 L 176 24 C 176 19.57 172.43 16 168 16 L 24 16 z"/><g style="fill:#fff"><path d="m 13,15 v 16 h 6 V 21 h 10 v 10 h 6 V 20 c 0,-4.03 -4.24,-5 -6,-5 z" transform="matrix(4,0,0,4,0,4)"/><path d="m 22,24 v 5 h 4 v -5 z" transform="matrix(4,0,0,4,0,4)"/></g></svg>