<?xml version='1.0' encoding='utf-8'?>
<svg xmlns="http://www.w3.org/2000/svg" width="192" height="192" version="1" id="svg28">
  <defs>
    <filter style="color-interpolation-filters:sRGB" id="filter5438" x="0.06" y="0.04" width="1.12" height="1.08">
      <feGaussianBlur stdDeviation="1.87"/>
    </filter>
    <filter style="color-interpolation-filters:sRGB" id="filter5442" x="0.05" y="0.05" width="1.10" height="1.09">
      <feGaussianBlur stdDeviation="2.45"/>
    </filter>
    <filter style="color-interpolation-filters:sRGB" id="filter5446" x="0.10" y="0.06" width="1.21" height="1.12">
      <feGaussianBlur stdDeviation="3.49"/>
    </filter>
  </defs>
  <path style="filter:url(#filter5438);opacity:0.20;fill:#000000" d="M 40,62.00 65.21,61.00 84.75,95.37 19.34,173.70 c -1.91,2.79 -7.20,4.03 -6.25,-1.88 z"/>
  <path style="fill:#d32b2b" d="M 40,58 65.21,57.00 84.75,91.37 19.34,169.70 c -1.91,2.79 -7.20,4.03 -6.25,-1.88 z"/>
  <path style="filter:url(#filter5442);opacity:0.15;fill:#000000" d="m 40,62.00 55,-18 64,93.00 -62,33 z"/>
  <path style="opacity:0.10;fill:#ffffff" d="M 65.21,57.00 40,58 13.09,167.81 c 0.11,0.70 0.13,1.30 0.08,1.81 0.02,0.26 0.04,0.52 0.08,0.81 L 40,59 l 25.21,-1.00 19.20,33.77 0.34,0.40 z"/>
  <path style="fill:#e94040" d="m 40,58 55,-18 64,93 -62,33 z"/>
  <path style="opacity:0.20;fill:#ffffff" d="M 95,40 40,58 40.45,58.85 95,41 158.50,133.27 159,133 Z"/>
  <path style="filter:url(#filter5446);opacity:0.20;fill:#000000;mix-blend-mode:normal" d="m 159,134.00 -62,33 73.70,-140.73 c 1.91,-2.79 7.20,-4.03 6.25,1.88 z"/>
  <path style="fill:#ff5c5c" d="M 159,133 97,166 170.70,25.27 c 1.91,-2.79 7.20,-4.03 6.25,1.88 z"/>
  <path style="opacity:0.20;fill:#ffffff" d="m 174.90,22.94 c -1.44,0.08 -3.24,0.93 -4.20,2.32 L 97,166 97.73,165.61 170.70,26.27 c 1.68,-2.46 5.98,-3.70 6.33,0.08 0.16,-2.35 0.84,-3.33 -2.14,-3.40 z"/>
</svg>
