<?xml version='1.0' encoding='utf-8'?>
<svg xmlns="http://www.w3.org/2000/svg" width="192" height="192" version="1" id="svg28">
  <defs>
    <filter style="color-interpolation-filters:sRGB" id="filter8577" x="0.10" y="0.30" width="1.20" height="1.59">
      <feGaussianBlur stdDeviation="5.81"/>
    </filter>
    <filter style="color-interpolation-filters:sRGB" id="filter8622" x="0.04" y="0.07" width="1.07" height="1.14">
      <feGaussianBlur stdDeviation="2.07"/>
    </filter>
    <filter style="color-interpolation-filters:sRGB" id="filter8679" x="0.04" y="0.06" width="1.08" height="1.13">
      <feGaussianBlur stdDeviation="2.19"/>
    </filter>
    <filter style="color-interpolation-filters:sRGB" id="filter8721" x="0.03" y="0.16" width="1.06" height="1.32">
      <feGaussianBlur stdDeviation="1.62"/>
    </filter>
  </defs>
  <path style="filter:url(#filter8679);opacity:0.20;fill:#000000;color:#000000" d="m 44.27,14.01 a 6,6 0 0 0 -3.38,0.86 6,6 0 0 0 -2.03,8.24 l 11.88,19.66 C 37.60,54.06 28.75,70.18 27.01,88.36 26.69,95.00 33.70,95 33.70,95 H 158.12 c 0,0 7.21,0.00 6.86,-6.97 -1.82,-18.06 -10.65,-34.05 -23.72,-45.28 l 11.87,-19.64 a 6,6 0 0 0 -2.03,-8.24 6,6 0 0 0 -4.54,0.69 6,6 0 0 0 -3.70,2.72 l -11.38,18.83 C 121.11,29.56 108.98,26 96.01,26 83.03,26 70.90,29.56 60.52,35.74 L 49.13,16.90 A 6,6 0 0 0 45.44,14.17 6,6 0 0 0 44.27,14.01 Z"/>
  <path style="filter:url(#filter8622);opacity:0.20;fill:#000000" d="m 27,90.00 v 62.88 c 0,8.61 5.40,1.96 13,4.79 2.18,0.81 4.53,1.28 7,1.28 h 9 16 16 16 16 16 9 c 2.47,0 4.82,0.46 7,-1.28 7.60,-2.83 13,-14.54 13,-23.15 V 90.00 H 152 136 120 104 88 72 56 40 Z"/>
  <path style="filter:url(#filter8577);opacity:0.20;fill:#000000" d="M 145.63,132.97 A 198.35,91.84 0 0 0 27,151.30 V 160 c 0,11.08 8.92,20 20,20 h 98 c 11.08,0 20,-8.92 20,-20 v -26.57 a 198.35,91.84 0 0 0 -19.37,0.46 z"/>
  <path style="fill:#0071b2" d="m 27,87 v 62.88 c 0,8.61 5.40,1.96 13,4.79 V 87 Z m 29,0 v 68.95 H 72 V 87 Z m 32,0 v 68.95 h 16 V 87 Z m 32,0 v 68.95 h 16 V 87 Z m 32,0 v 67.67 c 7.60,-2.83 13,-14.53 13,-23.15 V 87 Z"/>
  <path style="fill:#00a3e4" d="m 40,87 v 67.67 c 2.18,0.81 4.53,1.28 7,1.28 h 9 V 87 Z m 32,0 v 68.95 H 88 V 87 Z m 32,0 v 68.95 h 16 V 87 Z m 32,0 v 68.95 h 9 c 2.47,0 4.82,0.46 7,-1.28 V 87 Z"/>
  <path style="fill:#e4e4e4" d="M 145.63,128.97 A 198.35,91.84 0 0 0 27,147.30 V 156 c 0,11.08 8.92,20 20,20 h 98 c 11.08,0 20,-8.92 20,-20 v -26.57 a 198.35,91.84 0 0 0 -19.37,0.46 z"/>
  <path style="filter:url(#filter8721);opacity:0.20;fill:#000000" d="M 27.09,88 27,93 86.26,112.38 96,94 Z M 96,94 105.74,112.38 165,93 164.91,88 Z"/>
  <path style="fill:#12bbff" d="M 27.09,86 27,91 86.26,110.38 96,92 Z M 96,92 105.74,110.38 165,91 164.91,86 Z"/>
  <path style="fill:#12bbff" d="m 96,92 c -13.56,10.47 0,0 0,0 z"/>
  <path style="fill:none;stroke:#30dd81;stroke-width:12;stroke-linecap:round" d="M 58.05,40.25 44,17"/>
  <path style="fill:none;stroke:#30dd81;stroke-width:12;stroke-linecap:round" d="M 133.95,40.25 148,17"/>
  <path style="fill:#30dd81" d="m 96.01,23.00 c -36.03,0 -65.64,27.37 -69.00,62.36 C 26.69,92.00 33.70,92 33.70,92 h 124.42 c 0,0 7.21,0.00 6.86,-6.97 -3.51,-34.83 -33.06,-62.03 -68.98,-62.03 z"/>
  <path style="opacity:0.30;fill:#000000" d="M 81.84,60.98 A 13,13 0 0 1 69,72 13,13 0 0 1 56.17,61 13,13 0 0 0 56,63 13,13 0 0 0 69,76 13,13 0 0 0 82,63 13,13 0 0 0 81.84,60.98 Z"/>
  <path style="opacity:0.30;fill:#000000" d="M 110.16,60.98 A 13,13 0 0 0 123,72 13,13 0 0 0 135.83,61 13,13 0 0 1 136,63 13,13 0 0 1 123,76 13,13 0 0 1 110,63 a 13,13 0 0 1 0.16,-2.02 z"/>
  <path style="opacity:0.20;fill:#ffffff;color:#000000" d="m 44.27,11.01 a 6,6 0 0 0 -3.38,0.86 6,6 0 0 0 -2.79,6.15 6,6 0 0 1 2.79,-5.15 6,6 0 0 1 3.38,0.86 6,6 0 0 1 1.16,0.17 6,6 0 0 1 3.70,2.72 L 60.52,33.74 C 70.90,27.56 83.03,24 96.01,24 c 12.97,0 25.10,3.56 35.48,9.73 l 11.38,-18.83 a 6,6 0 0 1 3.70,-2.72 6,6 0 0 1 4.54,0.69 6,6 0 0 1 2.86,4.66 6,6 0 0 0 -2.86,-5.66 6,6 0 0 0 -4.54,0.69 6,6 0 0 0 -3.70,2.72 l -11.38,18.83 C 121.11,26.56 108.98,23 96.01,23 83.03,23 70.90,26.56 60.52,32.74 L 49.13,13.90 A 6,6 0 0 0 45.44,11.17 6,6 0 0 0 44.27,11.01 Z m 97.38,29.09 0.39,0.65 c 13.05,11.20 21.86,27.15 23.71,45.16 0.01,0.29 0.03,0.57 0.01,0.89 C 163.19,67.15 154.51,51.31 141.65,40.10 Z m -91.30,0.02 C 37.43,51.39 28.74,67.36 27.01,85.36 c 0.01,0.30 0.00,0.58 0.02,0.86 1.78,-18.13 10.61,-34.19 23.72,-45.46 z"/>
  <path style="opacity:0.20;fill:#ffffff" d="M 145.63,128.97 A 198.35,91.84 0 0 0 27,147.30 v 1 A 198.35,91.84 0 0 1 145.63,129.97 198.35,91.84 0 0 1 165,130.43 v -1 a 198.35,91.84 0 0 0 -19.37,0.46 z"/>
  <circle style="opacity:0.30;fill:#030303" cx="84" cy="105" r="2"/>
  <circle style="opacity:0.30;fill:#030303" cx="-108" cy="105" r="2" transform="scale(-1,1)"/>
</svg>
