<?xml version='1.0' encoding='utf-8'?>
<svg xmlns="http://www.w3.org/2000/svg" width="192" height="192" version="1" id="svg20">
  <defs>
    <filter style="color-interpolation-filters:sRGB" id="filter859" x="0.05" width="1.10" y="0.05" height="1.10">
      <feGaussianBlur stdDeviation="3.20"/>
    </filter>
    <filter style="color-interpolation-filters:sRGB" id="filter882" x="0.05" width="1.10" y="0.05" height="1.10">
      <feGaussianBlur stdDeviation="0.48"/>
    </filter>
  </defs>
  <rect style="filter:url(#filter859);opacity:0.20;fill:#000000" width="160" height="160" x="-180" y="-176" rx="8" ry="8" transform="matrix(0,-1,-1,0,0,0)"/>
  <rect transform="matrix(0,-1,-1,0,0,0)" ry="8" rx="8" y="-176" x="-176" height="160" width="160" style="fill:#ca3742"/>
  <path style="opacity:0.20;fill:#ffffff" d="M 24 16 C 19.57 16 16 19.57 16 24 L 16 25 C 16 20.57 19.57 17 24 17 L 168 17 C 172.43 17 176 20.57 176 25 L 176 24 C 176 19.57 172.43 16 168 16 L 24 16 z "/>
  <g transform="matrix(4.00,0,0,4.00,48.00,52.00)" style="filter:url(#filter882);opacity:0.20">
    <g>
      <path d="m 24.01,0.00 c 0,0 -3.60,0.10 -7.20,1.70 -1.10,0.50 -2.30,1.30 -3.30,2.30 -1.62,1.62 -4.13,4.59 -6.11,7 H 3.01 l -2,3 3.39,0.92 c 0.01,0.12 0.04,0.29 0.14,0.52 L 4.01,16.60 c 0,0 0.20,0.40 1.30,2 1.60,1.60 2.10,1.40 2.10,1.40 l 1.24,0.56 c 0.19,0.06 0.32,0.08 0.41,0.08 l 0.94,3.49 3,-2 v -4.53 c 2.42,-1.96 5.40,-4.42 7,-5.97 1,-1 1.80,-2.20 2.40,-3.30 1.70,-3.60 1.60,-7.20 1.60,-7.20 z m -7,9 c -1.10,0 -2,0.90 -2,-2 0,-1.10 0.90,-2 2,-2 1.10,0 2,0.90 2,2 0,1.10 0.90,2 -2,2 z m -10.50,12 c 0.20,0.10 0.30,0.20 0.50,0.30 0.20,0.20 0.40,0.50 0.60,0.70 -2.30,2.30 -6.40,2 -6.40,2 0,0 0.30,-4.10 2,-6.40 0.20,0.20 0.50,0.40 0.70,0.60 0.10,0.20 0.20,0.30 0.30,0.50 -1.50,1.90 -1.30,4.80 -1.30,4.80 0,0 2.90,0.20 4.80,-1.30 z"/>
    </g>
  </g>
  <g transform="matrix(4.00,0,0,4.00,48.00,48.00)" style="fill:#ffffff">
    <path d="m 24.01,0.00 c 0,0 -3.60,0.10 -7.20,1.70 -1.10,0.50 -2.30,1.30 -3.30,2.30 -1.62,1.62 -4.13,4.59 -6.11,7 H 3.01 l -2,3 3.39,0.92 c 0.01,0.12 0.04,0.29 0.14,0.52 L 4.01,16.60 c 0,0 0.20,0.40 1.30,2 1.60,1.60 2.10,1.40 2.10,1.40 l 1.24,0.56 c 0.19,0.06 0.32,0.08 0.41,0.08 l 0.94,3.49 3,-2 v -4.53 c 2.42,-1.96 5.40,-4.42 7,-5.97 1,-1 1.80,-2.20 2.40,-3.30 1.70,-3.60 1.60,-7.20 1.60,-7.20 z m -7,9 c -1.10,0 -2,0.90 -2,-2 0,-1.10 0.90,-2 2,-2 1.10,0 2,0.90 2,2 0,1.10 0.90,2 -2,2 z m -10.50,12 c 0.20,0.10 0.30,0.20 0.50,0.30 0.20,0.20 0.40,0.50 0.60,0.70 -2.30,2.30 -6.40,2 -6.40,2 0,0 0.30,-4.10 2,-6.40 0.20,0.20 0.50,0.40 0.70,0.60 0.10,0.20 0.20,0.30 0.30,0.50 -1.50,1.90 -1.30,4.80 -1.30,4.80 0,0 2.90,0.20 4.80,-1.30 z"/>
  </g>
</svg>
