<?xml version='1.0' encoding='utf-8'?>
<svg xmlns="http://www.w3.org/2000/svg" width="192" height="192" version="1" id="svg12">
  <defs>
    <filter style="color-interpolation-filters:sRGB" id="filter858" x="0.05" width="1.10" y="0.05" height="1.10">
      <feGaussianBlur stdDeviation="3.20"/>
    </filter>
    <filter style="color-interpolation-filters:sRGB" id="filter877" x="0.08" width="1.16" y="0.03" height="1.07">
      <feGaussianBlur stdDeviation="1.64"/>
    </filter>
  </defs>
  <rect ry="8" rx="8" y="20" x="16" height="160" width="160" style="filter:url(#filter858);opacity:0.20;fill:#000000"/>
  <rect style="fill:#19416f" width="160" height="160" x="16" y="16" rx="8" ry="8"/>
  <path style="opacity:0.10;fill:#ffffff" d="M 24 16 C 19.57 16 16 19.57 16 24 L 16 25 C 16 20.57 19.57 17 24 17 L 168 17 C 172.43 17 176 20.57 176 25 L 176 24 C 176 19.57 172.43 16 168 16 L 24 16 z "/>
  <path style="filter:url(#filter877);opacity:0.20" d="M 108,38 A 12,12 0 0 0 96,50 12,12 0 0 0 108,62 12,12 0 0 0 120,50 12,12 0 0 0 108,38 Z M 92,66 c -4.43,0 -8,3.57 -8,8 0,4.43 3.57,8 8,8 h 8 v 48.89 c 0,3.77 -1.18,7.74 -4.02,10.69 A 12,12 0 0 0 84,130 12,12 0 0 0 72,142 12,12 0 0 0 84,154 c 20,0 32,0.00 32,-23.11 V 66 h -16 z"/>
  <path style="fill:#ffffff" d="M 108,36 A 12,12 0 0 0 96,48 12,12 0 0 0 108,60 12,12 0 0 0 120,48 12,12 0 0 0 108,36 Z M 92,64 c -4.43,0 -8,3.57 -8,8 0,4.43 3.57,8 8,8 h 8 v 48.89 c 0,3.77 -1.18,7.74 -4.02,10.69 A 12,12 0 0 0 84,128 12,12 0 0 0 72,140 12,12 0 0 0 84,152 c 20,0 32,0.00 32,-23.11 V 64 h -16 z"/>
</svg>
