<svg xmlns="http://www.w3.org/2000/svg" id="svg16" width="192" height="192" version="1.1"><defs><filter style="color-interpolation-filters:sRGB" id="filter15191" width="1.1" height="1.09" x=".05" y=".05"><feGaussianBlur stdDeviation="2.88"/></filter><filter style="color-interpolation-filters:sRGB" id="filter15279" width="1.11" height="1.09" x=".05" y=".04"><feGaussianBlur stdDeviation="2.57"/></filter></defs><path style="filter:url(#filter15191);opacity:.2;fill:#000;stop-color:#000" d="m 119.22,24 c -41.42,0 -75.00,33.58 -75.00,75 0,41.42 33.58,75 75.00,75 24.58,0.11 47.47,-12.26 61.36,-32.37 1.91,-2.43 1.74,-2.69 0.41,-4.85 l -21.94,-22.02 c 0,0 -2.47,-2.42 -4.27,0.21 -4.29,5.25 -14.34,17.51 -32.75,16.46 -17.67,0 -32.00,-14.33 -32.00,-32 0,-17.67 14.33,-32 32.00,-32 19.74,0.91 25.37,9.44 31.01,14.87 3.20,2.93 3.73,4.31 5.98,2.07 l 21.78,-24.78 c 2.21,-1.83 0.98,-2.78 0.32,-4.56 C 165.58,35.42 143.16,24.00 119.22,24 Z"/><path style="fill:#e44646;stop-color:#000" d="m 119.22,20 c -41.42,0 -75.00,33.58 -75.00,75 0,41.42 33.58,75 75.00,75 24.58,0.11 47.47,-12.26 61.36,-32.37 1.91,-2.43 1.74,-2.69 0.41,-4.85 l -21.94,-22.02 c 0,0 -2.47,-2.42 -4.27,0.21 -4.29,5.25 -14.34,17.51 -32.75,16.46 -17.67,0 -32.00,-14.33 -32.00,-32 0,-17.67 14.33,-32 32.00,-32 19.74,0.91 25.37,9.44 31.01,14.87 3.20,2.93 3.73,4.31 5.98,2.07 l 21.78,-24.78 c 2.21,-1.83 0.98,-2.78 0.32,-4.56 C 165.58,31.42 143.16,20.00 119.22,20 Z"/><path style="filter:url(#filter15279);opacity:.2;fill:#000;stop-color:#000" d="m 117.92,30.00 c -1.88,0.02 -3.68,1.06 -4.48,2.90 L 87.78,87.54 72.62,81.34 c 0,0 -2.61,-1.27 -4.02,1.08 l -9.83,13.45 c 0.89,1.22 0.73,1.14 0.61,1.91 l 0.19,0.12 C 45.60,113.97 29.15,126.11 10.37,128.90 c -1.76,0.25 -1.03,0.80 0.31,2.37 6.71,14.21 14.54,28.91 30.52,24.44 -1.24,3.05 -4.21,3.77 -6.54,5.36 9.47,9.34 19.15,11.11 28.90,10.92 0.68,0.01 2.77,-2.49 3.44,-2.52 0.58,0.03 0.24,2.40 0.34,2.36 4.69,0.29 9.40,0.86 14.09,-1.09 17.06,-12.55 23.46,-30.73 30.07,-48.22 l 1.74,0.29 c 1.69,0.28 2.03,0.54 2.07,-1.27 0.79,-6.61 3.18,-22.02 0.34,-22.78 l -9.41,-4.21 -4.15,-1.70 22.91,-55.46 c 1.07,-2.45 0.04,-5.29 -2.49,-6.36 l -1.41,0.62 c 0.61,0.27 -1.25,0.40 -1.88,0.41 z"/><path style="opacity:.2;fill:#fff;stop-color:#000" d="m 119.22,20 c -41.42,0 -75.00,33.58 -75.00,75 0,0.17 0.01,0.33 0.01,0.50 C 44.51,54.31 77.97,21 119.22,21 c 23.93,0.00 46.36,11.42 60.45,30.60 0.62,0.84 1.21,1.50 1.43,2.16 0.36,-1.04 0.51,-1.89 -1.43,-3.16 C 165.58,31.42 143.16,20.00 119.22,20 Z M 89.25,95.50 c 0.00,0.17 0.03,0.33 0.03,0.50 0,17.67 14.33,32 32.00,32 18.41,1.05 28.46,-11.21 32.75,-16.46 1.79,-2.21 4.27,0.21 4.27,0.21 l 21.94,22.02 c 0.88,0.88 1.41,1.45 1.62,1.98 0.34,0.94 0.20,-1.55 -1.62,-2.98 l -21.94,-22.02 c 0,0 -2.47,-2.42 -4.27,0.21 -4.29,5.25 -14.34,17.51 -32.75,16.46 -17.50,0 -31.70,-14.06 -31.97,-31.50 z"/><path style="fill:#3f9bdd;stop-color:#000" d="m 119.80,26.41 1.41,0.62 c 2.45,1.07 3.56,3.91 2.49,6.36 l -24.68,59.74 -4.35,6.71 c -1.07,2.45 -3.91,3.56 -6.36,2.49 l -1.41,0.62 c -2.45,-1.07 -3.56,-3.91 -2.49,-6.36 l 1.65,-8.16 27.37,-58.29 c 1.07,-2.45 3.91,-3.56 6.36,-2.49 z"/><path style="fill:#ffcf84;stop-color:#000" d="M 10.37,124.89 C 31.17,121.81 49.12,107.27 64.01,88.60 l 48.00,26.95 c -7.05,18.37 -13.17,37.93 -31.20,51.19 -4.69,0.23 -9.40,0.80 -14.09,1.09 0.58,0.04 0.24,-2.39 0.34,-2.36 0.68,0.03 -2.77,2.51 -3.44,2.52 -9.74,0.19 -19.43,-1.58 -28.90,-10.92 2.33,-1.59 5.30,-2.32 6.54,-5.36 -15.98,4.47 -23.81,-10.23 -30.52,-24.44 0.72,-1.58 -1.45,-2.13 0.31,-2.37 z"/><path style="fill:#3a7de2;stop-color:#000" d="M 119.75,26.39 86.54,101.54 c 0.12,0.06 0.24,0.13 0.36,0.18 l 1.41,0.62 c 2.45,1.07 5.29,0.04 6.36,-2.49 L 99.02,93.12 123.70,33.38 c 1.07,-2.45 0.04,-5.29 -2.49,-6.36 l -1.41,0.62 c 0.02,0.01 0.03,0.01 0.05,0.02 z"/><path style="fill:#3f9bdd;stop-color:#000" d="m 72.62,77.34 32.32,13.20 9.41,4.21 c 3.52,0.75 1.13,16.17 0.34,22.78 0.05,1.81 0.38,1.55 -2.07,1.27 L 94.30,115.77 59.39,93.79 C 58.05,93.01 57.89,93.09 58.78,91.87 l 9.83,-13.45 c 1.41,-2.35 4.02,-1.08 4.02,-1.08 z"/><path style="fill:#ecb356;stop-color:#000" d="m 98.25,107.82 c -12.17,24.17 -27.85,44.00 -44.13,59.64 2.93,0.46 5.87,0.58 8.82,0.53 0.68,0.01 2.77,-2.49 3.44,-2.52 0.58,0.03 0.24,2.40 0.34,2.36 4.69,0.29 9.40,0.86 14.09,-1.09 18.02,-13.26 24.15,-32.81 31.20,-51.19 z"/><path style="fill:#3a7de2;stop-color:#000" d="m 105.93,90.98 -2.19,5.09 c -2.95,6.84 -6.19,13.35 -9.65,19.57 l 0.21,0.13 18.32,3.03 c 1.69,0.28 2.03,0.54 2.07,-1.27 0.79,-6.61 3.18,-22.02 0.34,-22.78 z"/></svg>