<?xml version='1.0' encoding='utf-8'?>
<svg xmlns="http://www.w3.org/2000/svg" width="192" height="192" version="1.1" id="svg20">
  <defs>
    <filter style="color-interpolation-filters:sRGB" id="filter1405" x="0.05" y="0.05" width="1.10" height="1.10">
      <feGaussianBlur stdDeviation="3.20"/>
    </filter>
    <filter style="color-interpolation-filters:sRGB" id="filter1469" x="0.06" y="0.04" width="1.12" height="1.08">
      <feGaussianBlur stdDeviation="1.51"/>
    </filter>
  </defs>
  <circle style="fill:#039cf4;stop-color:#000000" cx="96" cy="96" r="75"/>
  <path style="filter:url(#filter1405);opacity:0.20;fill:#000000" d="m 96,20 a 80,80 0 0 0 -80,80 80,80 0 0 0 80,80 80,80 0 0 0 80,-80 80,80 0 0 0 -80,-80 z m 0,20 c 10.35,0.03 20.52,2.73 29.52,7.85 l -11.88,11.88 C 108.09,57.28 102.08,56.01 96,56 71.70,56 52,75.70 52,100 c 0,24.30 19.70,44 44,44 5.82,0.01 11.57,-1.18 16.94,-3.44 l 12.55,11.66 C 116.49,157.31 106.33,159.99 96,160 62.86,160 36,133.14 36,100 36,66.86 62.86,40 96,40 Z"/>
  <path style="fill:#e4e4e4" d="M 96 16 A 80 80 0 0 0 16 96 A 80 80 0 0 0 96 176 A 80 80 0 0 0 176 96 A 80 80 0 0 0 96 16 z M 96 36 C 106.35 36.03 116.52 38.73 125.52 43.85 L 113.65 55.73 C 108.09 53.28 102.08 52.01 96 52 C 71.70 52 52 71.70 52 96 C 52 120.30 71.70 140 96 140 C 101.82 139.99 107.57 138.82 112.94 136.56 L 125.48 148.22 C 116.49 153.31 106.33 155.99 96 156 C 62.86 156 36 129.14 36 96 C 36 62.86 62.86 36 96 36 z "/>
  <path style="filter:url(#filter1469);opacity:0.20" d="m 133.76,51.76 -28,28 8.48,8.48 28,-28 z M 96,86.00 a 12,12 0 0 0 -12,12.00 12,12 0 0 0 12,12 12,12 0 0 0 12,-12 12,12 0 0 0 -12,-12.00 z m 18.09,23.60 -8.17,8.80 28,26 8.17,-8.80 z"/>
  <circle style="fill:#3f3f3f" cx="96" cy="96" r="12"/>
  <path style="fill:none;stroke:#3f3f3f;stroke-width:12" d="m 110,82 28,-28 v 0 0"/>
  <path style="fill:none;stroke:#3f3f3f;stroke-width:12" d="m 110,112 28,26"/>
  <path style="opacity:0.20;fill:#ffffff" d="M 96 16 A 80 80 0 0 0 16 96 A 80 80 0 0 0 16.04 96.50 A 80 80 0 0 1 96 17 A 80 80 0 0 1 175.98 96.25 A 80 80 0 0 0 176 96 A 80 80 0 0 0 96 16 z M 124.87 44.51 L 113.65 55.73 C 108.09 53.28 102.08 52.01 96 52 C 71.70 52 52 71.70 52 96 C 52 96.17 52.01 96.33 52.01 96.50 C 52.28 72.43 71.87 53 96 53 C 102.08 53.01 108.09 54.28 113.65 56.73 L 125.52 44.85 C 125.31 44.73 125.09 44.63 124.87 44.51 z M 36.01 96.50 C 36.01 96.67 36 96.83 36 97 C 36 130.14 62.86 157 96 157 C 106.33 156.99 116.49 154.31 125.48 149.22 L 124.80 148.58 C 115.97 153.42 106.07 155.99 96 156 C 63.03 156 36.28 129.41 36.01 96.50 z "/>
</svg>
