<?xml version='1.0' encoding='utf-8'?>
<svg xmlns="http://www.w3.org/2000/svg" width="192" height="192" version="1" id="svg14">
  <defs>
    <filter style="color-interpolation-filters:sRGB" id="filter850" x="0.05" width="1.10" y="0.05" height="1.10">
      <feGaussianBlur stdDeviation="3.20"/>
    </filter>
    <filter style="color-interpolation-filters:sRGB" id="filter5341" x="0.05" y="0.05" width="1.10" height="1.09">
      <feGaussianBlur stdDeviation="2.23"/>
    </filter>
  </defs>
  <circle style="filter:url(#filter850);opacity:0.20;fill:#000000" cx="96" cy="100" r="80"/>
  <circle r="80" cy="96" cx="96" style="fill:#2196f3"/>
  <path style="filter:url(#filter5341);opacity:0.20;fill:#000000;color:#000000" d="m 93,39 v 33.62 l -11.95,-6.79 0.05,-7.81 -6,0.04 0.03,4.45 -3.59,-2.04 -2.96,5.21 6.51,3.70 0.09,13.07 -28.53,-16.47 -3,5.20 28.78,16.62 -11.52,6.76 -7.01,-4.12 -3.04,5.17 4.12,2.42 -4.12,2.42 3.04,5.17 7.01,-4.12 11.59,6.81 -28.86,16.66 3,5.20 28.53,-16.47 0.09,13.47 -6.51,3.70 2.96,5.21 3.59,-2.04 0.03,4.03 6,0.04 0.05,-7.38 L 93,123.78 V 157 h 6 v -33.22 l 11.05,6.28 0.05,7.89 6,0.04 0.03,-4.54 4.49,2.55 2.96,-5.21 -7.40,-4.21 0.09,-13.48 29.43,16.99 3,-5.20 -29.30,-16.92 11.17,-6.55 7.03,4.12 3.04,-5.18 -4.13,-2.42 4.13,-2.42 -3.04,-5.17 -7.02,4.12 -11.09,-6.51 29.23,-16.88 -3,-5.20 -29.43,16.99 0.09,-13.08 7.40,-4.21 -2.96,-5.21 -4.48,2.55 0.03,-4.96 -6,0.04 0.06,8.32 L 99,72.62 V 39 Z M 81.00,72.70 93,79.52 v 13.28 L 80.91,85.83 Z m 29.10,0.51 0.09,13.13 L 99,92.80 V 79.52 Z M 78.16,91.16 90,98 78.23,104.79 66.59,97.96 Z m 35.23,0.26 11.14,6.53 L 113.31,104.53 102.00,98 Z M 93,103.20 v 13.69 l -12.00,6.82 0.09,-13.53 z m 6,0 11.19,6.46 0.09,13.53 L 99,116.88 Z"/>
  <path style="fill:#38adfa" d="m 688.81,257.00 c 0.33,0.33 -1.19,0.37 -1.92,0.08 0.80,0.32 0.56,0.56 0.60,0.60 1.05,0.04 1.64,0.19 1.31,0.53 z"/>
  <path style="opacity:0.20;fill:#ffffff" d="M 96 16 A 80 80 0 0 0 16 96 A 80 80 0 0 0 16.02 96.47 A 80 80 0 0 1 96 17 A 80 80 0 0 1 175.97 96.51 A 80 80 0 0 0 176 96 A 80 80 0 0 0 96 16 z "/>
  <path style="fill:#ffffff;color:#000000" d="m 93,37 v 118 h 6 V 37 Z"/>
  <path style="fill:#ffffff;color:#000000" d="m 145.60,63.90 -102.19,59.00 3,5.20 L 148.60,69.10 Z"/>
  <path style="fill:#ffffff;color:#000000" d="m 46.40,63.90 -3,5.20 102.19,59.00 3,-5.20 z"/>
  <path style="fill:#ffffff;color:#000000" d="M 71.48,58.39 68.52,63.61 96,79.23 123.48,63.61 120.52,58.39 96,72.33 Z"/>
  <path style="fill:#ffffff;color:#000000" d="M 75.10,55.98 74.91,84.11 50.62,98.38 53.66,103.55 80.89,87.56 81.10,56.02 Z"/>
  <path style="fill:#ffffff;color:#000000" d="m 116,55.98 -6,0.04 0.21,31.54 27.27,15.99 3.04,-5.18 -24.33,-14.27 z"/>
  <path style="fill:#ffffff;color:#000000" d="M 53.66,88.36 50.62,93.53 74.91,107.80 75.10,136 l 6,0.04 0.21,-31.61 z"/>
  <path style="fill:#ffffff;color:#000000" d="M 137.48,88.36 110.21,104.35 110,135.96 l 6,0.04 0.19,-28.20 24.33,-14.27 z"/>
  <path style="fill:#ffffff;color:#000000" d="m 96,113.18 -27.48,15.62 2.96,5.21 L 96,120.08 l 24.52,13.93 2.96,-5.21 z"/>
  <path style="fill:#225ee3;color:#000000" d="M 113.20,82.36 93,94.29 V 155 h 6 v -33.22 l 21.52,12.23 2.96,-5.21 L 99,114.88 V 97.71 l 14.21,-8.39 24.27,14.23 3.04,-5.18 z"/>
</svg>
