<?xml version='1.0' encoding='utf-8'?>
<svg xmlns="http://www.w3.org/2000/svg" width="192" height="192" version="1" id="svg12">
  <defs>
    <filter style="color-interpolation-filters:sRGB" id="filter955" x="0.05" width="1.10" y="0.05" height="1.10">
      <feGaussianBlur stdDeviation="3.20"/>
    </filter>
    <filter style="color-interpolation-filters:sRGB" id="filter12336" x="0.07" y="0.08" width="1.14" height="1.16">
      <feGaussianBlur stdDeviation="3.09"/>
    </filter>
  </defs>
  <rect style="filter:url(#filter955);opacity:0.20;fill:#000000" width="160" height="160" x="16" y="20" rx="30" ry="30"/>
  <rect style="fill:#e4e4e4" width="160" height="160" x="16" y="16" rx="30" ry="30"/>
  <path style="opacity:0.20;fill:#ffffff" d="M 46 16 C 29.38 16 16 29.38 16 46 L 16 47 C 16 30.38 29.38 17 46 17 L 146 17 C 162.62 17 176 30.38 176 47 L 176 46 C 176 29.38 162.62 16 146 16 L 46 16 z "/>
  <path style="filter:url(#filter12336);opacity:0.20;fill:#000000;color:#000000" d="m 96,47.00 c -2.53,0.00 -4.86,1.36 -6.10,3.57 l -45,80.00 c -1.90,3.37 0.70,7.64 2.67,9.53 3.37,1.90 7.64,0.70 9.53,-2.67 L 90.15,78.69 c 0,0 4.56,-12.70 11.79,0.13 l 32.97,58.61 c 1.90,3.37 6.16,4.57 9.53,2.67 3.37,-1.90 4.57,-6.16 2.67,-9.53 l -45,-80.00 C 100.86,48.36 98.53,47.00 96,47.00 Z m 0.41,51.03 a 7,7 0 0 0 -3.97,0.85 7,7 0 0 0 -2.75,9.51 l 16.00,29 a 7,7 0 0 0 9.51,2.75 7,7 0 0 0 2.75,-9.51 l -16,-29.00 a 7,7 0 0 0 -4.19,-3.34 7,7 0 0 0 -1.35,0.25 z M 80.05,125.00 a 7,7 0 0 0 -3.18,0.74 7,7 0 0 0 -3.13,9.39 l 1,2 a 7,7 0 0 0 9.39,3.13 7,7 0 0 0 3.13,-9.39 l -1,-2 a 7,7 0 0 0 -4.05,-3.51 7,7 0 0 0 -2.16,0.36 z"/>
  <path style="fill:#066bd7;color:#000000" d="M 96 45 C 93.47 45.00 91.14 46.36 89.90 48.57 L 44.90 128.57 C 43.00 131.94 44.20 136.21 47.57 138.10 C 50.94 140.00 55.21 138.80 57.10 135.43 L 90.15 76.69 C 90.15 76.69 94.71 63.98 101.93 76.82 L 134.90 135.43 C 136.79 138.80 141.06 140.00 144.43 138.10 C 147.80 136.21 149.00 131.94 147.10 128.57 L 102.10 48.57 C 100.86 46.36 98.53 45.00 96 45 z M 95.59 96.03 A 7 7 0 0 0 91.62 96.87 A 7 7 0 0 0 88.87 106.38 L 104.87 135.38 A 7 7 0 0 0 114.38 138.13 A 7 7 0 0 0 117.13 128.62 L 101.13 99.62 A 7 7 0 0 0 96.94 96.28 A 7 7 0 0 0 95.59 96.03 z M 80.05 123 A 7 7 0 0 0 76.87 123.74 A 7 7 0 0 0 73.74 133.13 L 74.74 135.13 A 7 7 0 0 0 84.13 138.26 A 7 7 0 0 0 87.26 128.87 L 86.26 126.87 A 7 7 0 0 0 82.21 123.36 A 7 7 0 0 0 80.05 123 z "/>
</svg>
