<?xml version='1.0' encoding='utf-8'?>
<svg xmlns="http://www.w3.org/2000/svg" width="192" height="192" version="1" id="svg16">
  <defs>
    <filter style="color-interpolation-filters:sRGB" id="filter867" x="0.05" width="1.10" y="0.05" height="1.10">
      <feGaussianBlur stdDeviation="3.20"/>
    </filter>
    <filter style="color-interpolation-filters:sRGB" id="filter3259" x="0.05" y="0.05" width="1.10" height="1.10">
      <feGaussianBlur stdDeviation="2.56"/>
    </filter>
    <filter style="color-interpolation-filters:sRGB" id="filter3301" x="0.05" y="0.05" width="1.10" height="1.10">
      <feGaussianBlur stdDeviation="2.48"/>
    </filter>
  </defs>
  <rect ry="80" rx="80" height="160" width="160" y="-176" x="-180" transform="matrix(0,-1,-1,0,0,0)" style="filter:url(#filter867);opacity:0.20;fill:#000000"/>
  <rect style="fill:#f14037" transform="matrix(0,-1,-1,0,0,0)" x="-176" y="-176" width="160" height="160" rx="80" ry="80"/>
  <circle style="filter:url(#filter3259);opacity:0.20;fill:#000000" cx="96" cy="98" r="64"/>
  <circle style="fill:#ffffff" cx="96" cy="96" r="64"/>
  <path style="fill:#545454" d="M 75 52 C 72.78 52 71 53.78 71 56 L 71 136 C 71 138.22 72.78 140 75 140 L 117 140 C 119.22 140 121 138.22 121 136 L 121 56 C 121 53.78 119.22 52 117 52 L 75 52 z M 78 59 L 114 59 L 114 121 L 78 121 L 78 59 z M 61 81 L 61 110 L 65 110 L 65 81 L 61 81 z M 127 81 L 127 110 L 131 110 L 131 81 L 127 81 z M 52 87 L 52 104 L 56 104 L 56 87 L 52 87 z M 136 87 L 136 104 L 140 104 L 140 87 L 136 87 z M 86 129 L 106 129 L 106 133 L 86 133 L 86 129 z "/>
  <path style="filter:url(#filter3301);opacity:0.20;fill:#000000" d="M 145.74,49.60 45.01,146.25 c 3.38,4.14 -3.82,10.35 0.32,13.74 L 157.99,47.33 c -3.38,-4.14 -8.11,5.66 -12.25,2.27 z"/>
  <path style="fill:#f14037" d="M 146.67 34.01 L 34.01 146.67 C 37.40 150.81 41.19 154.60 45.33 157.99 L 157.99 45.33 C 154.60 41.19 150.81 37.40 146.67 34.01 z "/>
  <path style="opacity:0.20;fill:#ffffff" d="M 96 16 C 51.68 16 16 51.68 16 96 C 16 96.34 16.00 96.67 16 97 C 16 52.68 51.68 17 96 17 C 140.32 17 176 52.68 176 97 C 176.00 96.67 176 96.34 176 96 C 176 51.68 140.32 16 96 16 z "/>
</svg>
