<?xml version='1.0' encoding='utf-8'?>
<svg xmlns="http://www.w3.org/2000/svg" width="192" height="192" version="1.1" id="svg12">
  <defs>
    <filter style="color-interpolation-filters:sRGB" id="filter963" x="-0.048000001" y="-0.048000001" width="1.096" height="1.096">
      <feGaussianBlur stdDeviation="3.2"/>
    </filter>
    <filter style="color-interpolation-filters:sRGB" id="filter967" x="-0.038768866" y="-0.063000964" width="1.0775377" height="1.1260019">
      <feGaussianBlur stdDeviation="1.6800257"/>
    </filter>
  </defs>
  <path style="filter:url(#filter963);opacity:0.2;fill:#000000" d="M 96,20 A 80,80 0 0 0 16,100 80,80 0 0 0 96,180 80,80 0 0 0 176,100 80,80 0 0 0 96,20 Z"/>
  <path style="fill:#1c75bc" d="M 96,16 A 80,80 0 0 0 16,96 80,80 0 0 0 96,176 80,80 0 0 0 176,96 80,80 0 0 0 96,16 Z"/>
  <path style="opacity:0.2;fill:#ffffff" d="M 95.998047 16 A 80 80 0 0 0 16 96 A 80 80 0 0 0 16.029297 96.560547 A 80 80 0 0 1 95.998047 17 L 96 17 A 80 80 0 0 1 175.98438 96.376953 A 80 80 0 0 0 175.99805 96 A 80 80 0 0 0 96 16 L 95.998047 16 z "/>
  <path style="filter:url(#filter967);opacity:0.2" d="m 63.906248,66 -4.97656,16 H 128 l -12,32 H 48.976564 L 44,130 h 71.65625 c 7.98105,-0.14564 16.18524,-4.98542 19.32031,-12.64844 L 147.50781,79.679688 C 150.46607,67.482356 139.54319,66 131.09375,66 Z M 50,90 44,106 h 40 l 6,-16 z"/>
  <path style="fill:#ffffff" d="m 63.906248,64 -4.97656,16 H 128 l -12,32 H 48.976564 L 44,128 h 71.65625 c 7.98105,-0.14564 16.18524,-4.98542 19.32031,-12.64844 L 147.50781,77.679688 C 150.46607,65.482356 139.54319,64 131.09375,64 Z M 50,88 44,104 h 40 l 6,-16 z"/>
</svg>
