<?xml version='1.0' encoding='utf-8'?>
<svg xmlns="http://www.w3.org/2000/svg" width="192" height="192" version="1" id="svg14">
  <defs>
    <filter style="color-interpolation-filters:sRGB" id="filter850" x="0.05" width="1.10" y="0.05" height="1.10">
      <feGaussianBlur stdDeviation="3.20"/>
    </filter>
    <filter style="color-interpolation-filters:sRGB" id="filter2115" x="0.07" y="0.07" width="1.15" height="1.15">
      <feGaussianBlur stdDeviation="3.75"/>
    </filter>
  </defs>
  <circle style="filter:url(#filter850);opacity:0.20;fill:#000000" cx="96" cy="100" r="80"/>
  <circle r="80" cy="96" cx="96" style="fill:#18a6eb"/>
  <path style="opacity:0.20;fill:#ffffff" d="M 96 16 A 80 80 0 0 0 16 96 A 80 80 0 0 0 16.02 96.47 A 80 80 0 0 1 96 17 A 80 80 0 0 1 175.97 96.51 A 80 80 0 0 0 176 96 A 80 80 0 0 0 96 16 z "/>
  <path style="filter:url(#filter2115);opacity:0.20;fill:#000000" d="M 96,38 A 60,60 0 0 0 36,98 60,60 0 0 0 96,158 60,60 0 0 0 156,98 60,60 0 0 0 96,38 Z m 0,12 A 48,48 0 0 1 144,98 48,48 0 0 1 96,146 48,48 0 0 1 48,98 48,48 0 0 1 96,50 Z m -1.50,15.01 c -1.46,0.04 -2.76,0.20 -3.25,0.49 0.23,0.14 0.45,1.23 0.57,2.86 0.11,1.45 0.36,2.83 0.56,3.07 0.20,0.24 -1.17,0.71 -2.14,1.03 -6.93,2.32 -11.50,7.64 -11.93,13.87 0.30,4.38 0.79,7.63 3.58,10.61 2.59,2.77 6.35,4.69 14.44,7.38 3.30,1.10 4.00,1.45 5.08,2.51 1.60,1.58 1.69,2.78 0.35,4.29 0.95,1.07 -1.79,1.44 -4.33,1.91 -2.46,0.46 -7.83,0.41 -12.56,-2.02 0.96,0.33 -2.25,0.60 -2.88,0.60 -1.30,0 -1.29,0.02 -2.47,4.01 -1.81,6.15 -1.77,6.39 1.46,7.76 1.32,0.56 3.92,1.37 5.78,1.80 5.41,1.26 5.69,1.36 5.92,2.18 0.11,0.40 0.22,1.39 0.23,2.21 0.02,0.81 0.20,1.69 0.40,1.96 0.46,0.59 2.15,0.77 5.81,0.60 2.14,0.10 2.88,0.24 3.17,0.61 0.21,0.27 0.37,-1.32 0.37,-2.39 0.01,-2.93 0.24,-3.20 3.86,-4.41 4.86,-1.63 7.39,-3.38 9.44,-6.52 1.62,-2.48 2.31,-4.91 2.30,-8.16 0.01,-4.35 0.99,-6.97 -3.64,-9.76 -2.84,-2.98 -6.55,-5.13 -14.67,-8.51 -4.03,-1.67 -5.67,-2.92 -6.00,-4.54 0.22,-1.09 0.62,-2.24 2.24,-3.06 0.93,0.47 1.73,0.58 4.36,0.58 2.66,0 3.82,0.16 6.71,0.91 4.73,1.23 5.58,1.33 5.93,0.65 0.38,0.73 1.82,-6.77 2.03,-8.54 0.15,-1.27 0.10,-1.47 0.53,-1.87 0.91,0.58 -3.45,-1.22 -7.77,-1.94 -1.92,0.32 -3.62,0.71 -3.77,0.86 0.15,0.15 0.35,-1.24 0.43,-2.41 0.08,-1.17 0.26,-2.35 0.39,-2.61 0.28,0.53 -3.15,0.80 -5.58,0.74 z"/>
  <path style="fill:#ffffff" d="M 96 36 A 60 60 0 0 0 36 96 A 60 60 0 0 0 96 156 A 60 60 0 0 0 156 96 A 60 60 0 0 0 96 36 z M 96 48 A 48 48 0 0 1 144 96 A 48 48 0 0 1 96 144 A 48 48 0 0 1 48 96 A 48 48 0 0 1 96 48 z M 94.50 63.01 C 93.04 63.04 91.74 63.20 91.25 63.50 C 91.02 63.64 90.80 64.73 90.68 66.36 C 90.58 67.81 90.32 69.19 90.12 69.43 C 89.92 69.67 88.96 70.14 87.98 70.46 C 81.06 72.78 76.48 78.10 76.05 84.34 C 75.75 88.72 76.84 91.96 79.63 94.94 C 82.22 97.71 85.98 99.63 94.06 102.32 C 97.37 103.42 98.07 103.77 99.14 104.83 C 100.74 106.41 100.84 107.61 99.50 109.12 C 98.55 110.19 97.71 110.56 95.16 111.04 C 92.70 111.49 87.33 110.63 82.61 109.02 C 81.65 108.69 80.36 108.42 79.73 108.42 C 78.43 108.42 78.44 108.40 77.25 112.43 C 75.44 118.58 75.49 118.82 78.71 120.19 C 80.03 120.75 82.63 121.56 84.49 121.99 C 89.90 123.25 90.19 123.36 90.42 124.18 C 90.53 124.58 90.63 125.57 90.65 126.38 C 90.66 127.19 90.84 128.07 91.05 128.34 C 91.50 128.93 93.20 129.11 96.86 128.94 C 99.00 128.84 99.75 128.70 100.03 128.33 C 100.23 128.07 100.40 127.02 100.40 125.94 C 100.41 123.01 100.64 122.75 104.26 121.54 C 109.11 119.91 111.65 118.16 113.70 115.02 C 115.32 112.53 116.00 110.10 116 106.86 C 115.99 102.51 115.01 99.88 112.36 97.10 C 109.52 94.12 105.81 91.97 97.69 88.59 C 93.66 86.92 92.02 85.67 91.69 84.05 C 91.47 82.96 92.31 81.81 93.93 80.99 C 94.86 80.52 95.67 80.41 98.29 80.41 C 100.96 80.41 102.11 80.57 105.00 81.32 C 109.73 82.56 110.58 82.65 110.94 81.97 C 111.32 81.25 112.75 75.20 112.96 73.43 C 113.11 72.16 113.06 71.97 112.43 71.57 C 111.52 70.98 108.98 70.35 104.67 69.63 C 102.75 69.31 101.05 68.92 100.89 68.77 C 100.74 68.62 100.55 67.53 100.47 66.36 C 100.39 65.18 100.21 64.01 100.08 63.75 C 99.80 63.22 96.93 62.95 94.50 63.01 z "/>
</svg>
