<?xml version='1.0' encoding='utf-8'?>
<svg xmlns="http://www.w3.org/2000/svg" width="192" height="192" version="1" id="svg20">
  <defs>
    <filter style="color-interpolation-filters:sRGB" id="filter857" x="0.05" width="1.10" y="0.05" height="1.10">
      <feGaussianBlur stdDeviation="3.20"/>
    </filter>
    <filter style="color-interpolation-filters:sRGB" id="filter873" x="0.05" width="1.10" y="0.05" height="1.10">
      <feGaussianBlur stdDeviation="1.92"/>
    </filter>
    <filter style="color-interpolation-filters:sRGB" id="filter893" x="0.05" width="1.10" y="0.05" height="1.10">
      <feGaussianBlur stdDeviation="1.60"/>
    </filter>
  </defs>
  <rect transform="matrix(0,-1,-1,0,0,0)" ry="80" rx="80" y="-176" x="-180" height="160" width="160" style="filter:url(#filter857);opacity:0.20"/>
  <rect transform="matrix(0,-1,-1,0,0,0)" ry="80" rx="80" y="-176" x="-176" height="160" width="160" style="fill:#6868d1"/>
  <rect transform="matrix(0,-1,-1,0,0,0)" ry="48" rx="48" y="-144" x="-148" height="96" width="96" style="filter:url(#filter873);opacity:0.20"/>
  <rect transform="matrix(0,-1,-1,0,0,0)" ry="48" rx="48" y="-144" x="-144" height="96" width="96" style="fill:#ffffff"/>
  <circle r="40" cy="140" cx="144" style="filter:url(#filter893);opacity:0.20"/>
  <circle r="40" cy="136" cx="144" style="fill:#4bdbd2"/>
  <path style="opacity:0.10;fill:#ffffff" d="M 96 16 C 51.68 16 16 51.68 16 96 C 16 96.12 16.01 96.23 16.01 96.34 C 16.36 52.33 51.90 17 96 17 C 140.10 17 175.64 52.33 175.99 96.34 C 175.99 96.23 176 96.12 176 96 C 176 51.68 140.32 16 96 16 z "/>
</svg>
