<?xml version='1.0' encoding='utf-8'?>
<svg xmlns="http://www.w3.org/2000/svg" width="192" height="192" version="1" id="svg16">
  <defs>
    <filter style="color-interpolation-filters:sRGB" id="filter971" x="0.05" y="0.05" width="1.10" height="1.10">
      <feGaussianBlur stdDeviation="3.20"/>
    </filter>
    <filter style="color-interpolation-filters:sRGB" id="filter4418" x="0.04" y="0.05" width="1.09" height="1.10">
      <feGaussianBlur stdDeviation="1.66"/>
    </filter>
  </defs>
  <rect style="filter:url(#filter971);opacity:0.20;fill:#000000" width="160" height="160" x="16" y="20" rx="80" ry="80"/>
  <circle style="fill:#8e30e7;stop-color:#000000" cx="96" cy="96" r="80"/>
  <path style="filter:url(#filter4418);opacity:0.20;fill:#000000" d="m 108.26,131.52 c 9.85,-1.20 19.85,-5.78 28.58,-13.11 3.15,-2.64 9.57,-9.23 9.13,-9.37 0.16,0.05 -3.56,0.02 -7.55,0.16 -19.42,0.68 -30.90,-1.20 -38.35,-6.26 -1.27,0.86 -2.31,-1.70 -2.32,-1.86 0.01,0.16 7.35,-5.70 16.37,-12.31 9.02,-6.60 16.54,-12.16 16.72,-12.35 0.36,0.38 0.30,0.04 -18.25,9.48 -13.17,6.98 -23.22,12.49 -24.69,13.52 0.47,0.33 0.85,0.86 0.85,1.19 0,0.95 5.14,5.93 8.13,7.87 4.53,2.94 9.33,4.69 16.33,5.95 2.27,0.41 4.80,0.53 11.05,0.55 l 8.11,0.02 0.65,0.69 c -2.08,2.22 -8.53,5.76 -13.40,7.34 -5.54,1.80 -8.14,2.17 -15.17,2.17 -5.55,0.01 -6.97,0.11 -9.68,0.70 -7.85,-1.70 -16.42,-5.20 -21.65,-9.45 -1.23,0.99 -1.42,0.95 -3.75,-1.05 h -2.46 l 0.27,-1.87 c 0.12,0.81 0.63,-2.54 1.06,-3.84 0.69,-2.08 0.80,-3.00 0.89,-7.43 0.19,-9.51 2.22,-16.29 7.02,-23.48 1.96,-2.93 7.11,-8.44 7.32,-7.82 0.07,0.20 0.04,0.89 0.24,1.53 0.63,2.09 0.74,10.41 0.19,13.61 0.59,3.40 1.89,7.64 2.49,8.14 0.34,0.29 0.90,0.13 2.65,0.75 1.21,0.61 8.72,-4.15 16.67,-7.87 16.46,-7.69 19.35,-9.13 17.71,-8.82 0.60,0.11 -8.10,2.07 -16.68,4.36 -8.58,2.28 -15.67,4.08 -15.77,3.98 0.66,0.66 0.90,-10.88 0.35,-14.93 0.46,-3.36 1.63,-7.88 2.75,-10.60 0.52,-1.26 0.87,-2.37 0.78,-2.46 0.34,0.34 -9.06,4.35 -11.61,6.25 -12.72,9.46 -19.66,23.53 -19.48,39.53 0.03,2.89 0.08,3.85 0.57,5.11 0.91,2.29 -2.23,8.53 -2.44,11.50 L 56,120.71 h 5.41 5.41 l 3.39,2.17 c 11.76,7.55 24.04,10.33 38.06,8.63 z"/>
  <path style="fill:#ffffff" d="m 108.26,129.52 c 9.85,-1.20 19.85,-5.78 28.58,-13.11 3.15,-2.64 9.57,-9.23 9.13,-9.37 0.16,0.05 -3.56,0.02 -7.55,0.16 -19.42,0.68 -30.90,-1.20 -38.35,-6.26 -1.27,0.86 -2.31,-1.70 -2.32,-1.86 0.01,0.16 7.35,-5.70 16.37,-12.31 9.02,-6.60 16.54,-12.16 16.72,-12.35 0.36,0.38 0.30,0.04 -18.25,9.48 -13.17,6.98 -23.22,12.49 -24.69,13.52 0.47,0.33 0.85,0.86 0.85,1.19 0,0.95 5.14,5.93 8.13,7.87 4.53,2.94 9.33,4.69 16.33,5.95 2.27,0.41 4.80,0.53 11.05,0.55 l 8.11,0.02 0.65,0.69 c -2.08,2.22 -8.53,5.76 -13.40,7.34 -5.54,1.80 -8.14,2.17 -15.17,2.17 -5.55,0.01 -6.97,0.11 -9.68,0.70 -7.85,-1.70 -16.42,-5.20 -21.65,-9.45 -1.23,0.99 -1.42,0.95 -3.75,-1.05 h -2.46 l 0.27,-1.87 c 0.12,0.81 0.63,-2.54 1.06,-3.84 0.69,-2.08 0.80,-3.00 0.89,-7.43 0.19,-9.51 2.22,-16.29 7.02,-23.48 1.96,-2.93 7.11,-8.44 7.32,-7.82 0.07,0.20 0.04,0.89 0.24,1.53 0.63,2.09 0.74,10.41 0.19,13.61 0.59,3.40 1.89,7.64 2.49,8.14 0.34,0.29 0.90,0.13 2.65,0.75 1.21,0.61 8.72,-4.15 16.67,-7.87 16.46,-7.69 19.35,-9.13 17.71,-8.82 0.60,0.11 -8.10,2.07 -16.68,4.36 -8.58,2.28 -15.67,4.08 -15.77,3.98 0.66,0.66 0.90,-10.88 0.35,-14.93 0.46,-3.36 1.63,-7.88 2.75,-10.60 0.52,-1.26 0.87,-2.37 0.78,-2.46 0.34,0.34 -9.06,4.35 -11.61,6.25 -12.72,9.46 -19.66,23.53 -19.48,39.53 0.03,2.89 0.08,3.85 0.57,5.11 0.91,2.29 -2.23,8.53 -2.44,11.50 L 56,118.71 h 5.41 5.41 l 3.39,2.17 c 11.76,7.55 24.04,10.33 38.06,8.63 z"/>
  <path style="opacity:0.10;fill:#ffffff" d="M 96.00,16 C 51.68,16.00 16,51.68 16,96 c 0,0.17 0.01,0.34 0.01,0.52 C 16.27,52.42 51.84,17.00 96.00,17 H 96 c 44.16,0.00 79.73,35.42 79.99,79.52 0.00,0.17 0.01,0.34 0.01,0.52 0,-44.32 -35.68,-80.00 -80.00,-80 z"/>
</svg>
