<?xml version='1.0' encoding='utf-8'?>
<svg xmlns="http://www.w3.org/2000/svg" width="192" height="192" version="1" id="svg14">
  <defs>
    <filter style="color-interpolation-filters:sRGB" id="filter850" x="-0.048000001" width="1.096" y="-0.048000001" height="1.096">
      <feGaussianBlur stdDeviation="3.2"/>
    </filter>
    <filter style="color-interpolation-filters:sRGB" id="filter866" x="-0.055200001" width="1.1104" y="-0.042461539" height="1.0849231">
      <feGaussianBlur stdDeviation="1.84"/>
    </filter>
  </defs>
  <circle style="filter:url(#filter850);opacity:0.2;fill:#000000" cx="96" cy="100" r="80"/>
  <circle r="80" cy="96" cx="96" style="fill:#f59101"/>
  <path style="opacity:0.2;fill:#ffffff" d="M 96 16 A 80 80 0 0 0 16 96 A 80 80 0 0 0 16.019531 96.472656 A 80 80 0 0 1 96 17 A 80 80 0 0 1 175.97461 96.513672 A 80 80 0 0 0 176 96 A 80 80 0 0 0 96 16 z "/>
  <path d="m 96,46 c -11.048,0 -20,8.956 -20,20 0,11.044 8.952,20 20,20 11.048,0 20,-8.956 20,-20 0,-11.044 -8.952,-20 -20,-20 z m 0,52 C 56.004,98.024 56,123.6 56,123.6 V 134 c 0,0 7.384568,16 40,16 32.61543,0 40,-16 40,-16 v -10.4 c 0,0 0,-25.616 -39.992,-25.6 z" style="filter:url(#filter866);opacity:0.2"/>
  <path d="m 96,44 c -11.048,0 -20,8.956 -20,20 0,11.044 8.952,20 20,20 11.048,0 20,-8.956 20,-20 0,-11.044 -8.952,-20 -20,-20 z m 0,52 C 56.004,96.024 56,121.6 56,121.6 V 132 c 0,0 7.384568,16 40,16 32.61543,0 40,-16 40,-16 v -10.4 c 0,0 0,-25.616 -39.992,-25.6 z" style="fill:#ffffff"/>
</svg>
