<?xml version='1.0' encoding='utf-8'?>
<svg xmlns="http://www.w3.org/2000/svg" width="192" height="192" version="1" id="svg28">
  <defs>
    <filter style="color-interpolation-filters:sRGB" id="filter6495" x="-0.048000001" y="-0.048000001" width="1.096" height="1.096">
      <feGaussianBlur stdDeviation="3.2"/>
    </filter>
    <filter style="color-interpolation-filters:sRGB" id="filter4765" x="-0.048033098" y="-0.047966948" width="1.0960662" height="1.0959339">
      <feGaussianBlur stdDeviation="3.0712466"/>
    </filter>
    <filter style="color-interpolation-filters:sRGB" id="filter4887" x="-0.038973706" y="-0.062467427" width="1.0779474" height="1.1249349">
      <feGaussianBlur stdDeviation="1.7699155"/>
    </filter>
  </defs>
  <rect transform="matrix(0,-1,-1,0,0,0)" ry="12" rx="12" y="-176" x="-180" height="160" width="160" style="filter:url(#filter6495);opacity:0.2;fill:#000000"/>
  <path style="fill:#5929a1" d="M 172.49219,19.507812 95,87 19.507812,172.49219 C 21.676813,174.66119 24.676,176 28,176 h 136 c 6.648,0 12,-5.352 12,-12 V 28 c 0,-3.324 -1.33881,-6.323188 -3.50781,-8.492188 z"/>
  <path style="filter:url(#filter4765);opacity:0.2;fill:#000000" d="m 35.802927,30.523479 c -6.63374,0.435197 -2.588181,1.661945 -3.112679,8.289222 L 23.594038,153.74762 C 23.331789,157.06125 17.338812,172.323 19.507812,174.492 20,173.99981 172.49219,21.507622 172.49219,21.507622 c -2.169,-2.168999 -22.06688,1.496217 -25.38375,1.713815 z"/>
  <path style="fill:#a338d3" d="m 28,16 c -6.648,0 -12,5.352 -12,12 v 136 c 0,3.324 1.338812,6.32319 3.507812,8.49219 C 20,172 172.49219,19.507812 172.49219,19.507812 170.32319,17.338813 167.324,16 164,16 Z"/>
  <path style="filter:url(#filter4887);opacity:0.2;fill:#000000" d="m 123.47266,63.999818 -23.15625,0.02539 c -27.471845,0.02963 -28.351314,-0.05108 -28.869144,0.267578 -0.286633,0.176381 -0.594137,0.482287 -0.683594,0.679687 -0.08946,0.197403 -1.511359,5.557895 -3.160156,11.91211 L 64.726562,87.999818 H 44.900391 c -1.108,0 -1.739726,0.923004 -2,2 L 40,101.99982 c -0.260274,1.07701 0.892,2 2,2 h 18.585938 l -3.458985,13.36133 c -1.71241,6.61714 -3.111744,12.30677 -3.109375,12.64258 0.0063,0.90054 0.522302,1.60427 1.378906,1.88281 0.504555,0.16405 44.805696,0.1444 48.345706,-0.0215 9.62671,-0.45098 16.91065,-2.2228 23.63867,-5.75 10.05194,-5.26977 17.03456,-14.78998 20.43164,-27.85742 0.9047,-4.207023 1.2996,-8.14787 1.08398,-11.861328 -0.39342,-3.43149 -0.91913,-5.945478 -1.97265,-8.455078 -1.10451,-2.600599 -2.59505,-4.830286 -4.56445,-6.875 -2.6954,-2.79844 -5.90985,-4.763189 -9.72461,-5.933594 -2.95238,-1.04567 -5.9228,-1.077415 -9.16211,-1.132812 z m -38.134769,14 h 16.242189 c 15.18996,0 16.34566,0.01946 17.83594,0.298828 3.48515,0.653325 5.67736,1.694333 7.58398,3.601563 2.37177,2.372532 3.26152,5.392449 2.99219,10.160156 -0.41141,7.283089 -3.4081,14.516105 -7.83594,18.912115 -3.5524,3.5269 -7.53239,5.49667 -13.33789,6.59961 -1.7898,0.34003 -2.20176,0.34973 -17.648438,0.41015 -10.992656,0.043 -15.816406,0.009 -15.816406,-0.10742 0,-0.0924 1.660056,-6.76471 3.6875,-14.82812 2.027444,-8.063421 4.272359,-16.997334 4.990234,-19.853523 z"/>
  <path style="fill:#ffffff" d="m 123.47266,62 -23.15625,0.02539 c -27.471845,0.02963 -28.351314,-0.05108 -28.869144,0.267578 -0.286633,0.176381 -0.594137,0.482287 -0.683594,0.679687 -0.08946,0.197403 -1.511359,5.557895 -3.160156,11.91211 L 64.726562,86 H 44.900391 c -1.108,0 -1.739726,0.923004 -2,2 L 40,100 c -0.260274,1.07701 0.892,2 2,2 h 18.585938 l -3.458985,13.36133 c -1.71241,6.61714 -3.111744,12.30677 -3.109375,12.64258 0.0063,0.90054 0.522302,1.60427 1.378906,1.88281 0.504555,0.16405 44.805696,0.1444 48.345706,-0.0215 9.62671,-0.45098 16.91065,-2.2228 23.63867,-5.75 10.05194,-5.26977 17.03456,-14.78998 20.43164,-27.857418 0.9047,-4.207023 1.2996,-8.14787 1.08398,-11.861328 -0.39342,-3.43149 -0.91913,-5.945478 -1.97265,-8.455078 -1.10451,-2.600599 -2.59505,-4.830286 -4.56445,-6.875 -2.6954,-2.79844 -5.90985,-4.763189 -9.72461,-5.933594 C 129.68239,62.087142 126.71197,62.055397 123.47266,62 Z M 85.337891,76 h 16.242189 c 15.18996,0 16.34566,0.01946 17.83594,0.298828 3.48515,0.653325 5.67736,1.694333 7.58398,3.601563 2.37177,2.372532 3.26152,5.392449 2.99219,10.160156 -0.41141,7.283089 -3.4081,14.516103 -7.83594,18.912113 -3.5524,3.5269 -7.53239,5.49667 -13.33789,6.59961 -1.7898,0.34003 -2.20176,0.34973 -17.648438,0.41015 -10.992656,0.043 -15.816406,0.009 -15.816406,-0.10742 0,-0.0924 1.660056,-6.76471 3.6875,-14.82812 2.027444,-8.063419 4.272359,-16.997332 4.990234,-19.853521 z"/>
  <path style="opacity:0.2;fill:#ffffff" d="m 28,16 c -6.648,0 -12,5.352 -12,12 v 1 c 0,-6.648 5.352,-12 12,-12 h 136 c 6.648,0 12,5.352 12,12 v -1 c 0,-6.648 -5.352,-12 -12,-12 z"/>
</svg>
