<?xml version='1.0' encoding='utf-8'?>
<svg xmlns="http://www.w3.org/2000/svg" width="192" height="192" version="1" id="svg18">
  <defs>
    <filter style="color-interpolation-filters:sRGB" id="filter857" x="0.05" y="0.05" width="1.10" height="1.10">
      <feGaussianBlur stdDeviation="3.20"/>
    </filter>
    <filter style="color-interpolation-filters:sRGB" id="filter861" x="0.05" y="0.05" width="1.10" height="1.10">
      <feGaussianBlur stdDeviation="2.24"/>
    </filter>
  </defs>
  <path style="filter:url(#filter857);opacity:0.20" d="m 96,20 a 80,80 0 0 0 -80,80 80,80 0 0 0 6.23,30.77 L 16.78,151.12 A 22.95,22.94 0 0 0 44.88,179.22 l 20.26,-5.43 A 80,80 0 0 0 96,180 80,80 0 0 0 176,100 80,80 0 0 0 96,20 Z"/>
  <circle style="fill:#3a76f0" cx="96" cy="96" r="80"/>
  <path style="fill:#3a76f0" d="M 60.60,48.00 A 22.95,22.94 0 0 0 38.78,65.01 l -22.00,82.12 a 22.95,22.94 0 0 0 28.10,28.09 L 127.00,153.22 A 22.95,22.94 0 0 0 137.29,114.84 L 77.16,54.72 A 22.95,22.94 0 0 0 60.60,48.00 Z"/>
  <path style="filter:url(#filter861);opacity:0.20" d="m 96,44 a 56,56 0 0 0 -56,56 56,56 0 0 0 7.52,27.91 L 40,156 68.06,148.48 A 56,56 0 0 0 96,156 56,56 0 0 0 152,100 56,56 0 0 0 96,44 Z"/>
  <circle style="fill:#ffffff" cx="96" cy="96" r="56"/>
  <path style="fill:#ffffff" d="m 52.86,104.00 35.14,35.14 -48.00,12.86 z"/>
  <path style="opacity:0.50;fill:#ffffff" d="m 88.87,24.36 0.41,0.04 -6.73,1.04 0.39,0.08 -2.18,0.56 2.01,7.74 1.93,0.50 6.41,0.98 6.70,0.34 0.41,-7.98 z m 14.01,4.37 0.55,3.58 6.59,1.02 6.13,1.59 2.03,0.75 2.76,-7.51 -2.28,0.84 0.38,0.12 -6.51,-1.68 0.39,0.08 -6.73,-1.04 0.41,0.04 h 0.04 z m -34.66,0.88 0.36,0.16 -5.95,2.87 0.34,0.19 -5.37,3.27 4.16,6.84 L 65.56,39.75 71.22,37.02 73.90,36.04 71.14,28.53 Z m 55.86,9 2.37,1.14 5.33,3.25 5.03,3.77 1.95,-2.60 3.20,-3.51 0.05,0.05 0.29,0.24 -5.24,-3.93 0.31,0.21 -5.61,-3.41 0.34,0.19 -2.54,-1.23 z m -78.79,6.40 0.27,0.27 -4.39,4.84 0.24,0.29 -2.46,3.28 6.40,4.80 2.36,-3.15 4.13,-4.53 3.82,-3.48 -5.38,-5.91 z m 96.82,6.79 3.23,3.54 3.67,4.90 2.25,3.70 6.84,-4.16 -2.32,-3.80 0.21,0.31 -3.93,-5.24 0.24,0.29 -3.36,-3.70 z m -109.28,9.77 0.19,0.34 -2.87,5.95 0.16,0.36 -2.30,6.24 0.12,0.38 0.44,1.70 7.75,2 0.41,-1.57 2.11,-5.73 L 39.75,65.56 40.17,64.88 33.34,60.71 Z m 121.91,9.12 0.24,0.52 2.12,5.74 1.59,6.14 0.27,1.75 7.91,-1.21 0.30,-1.91 0.08,0.39 -1.68,-6.51 0.12,0.38 -2.30,-6.24 0.16,0.36 0.30,0.64 z M 24.40,88.46 24.36,88.87 24.01,95.80 24,96.14 l 0.13,3.75 0.02,0.26 0.16,1.52 7.96,0.80 L 32.12,99.45 32,95.98 32.34,89.50 32.88,85.94 24.98,84.72 Z M 159.81,92.38 160,96 l 0.34,6.50 0.77,5 7.91,1.21 0.80,-5.17 0.04,0.41 0.35,-6.93 v 0.41 l 0.20,-3.82 z m -134.16,17.64 0.34,1.52 0.09,0.31 2.17,7.05 0.13,0.37 2.71,6.51 7.39,-3.08 -2.64,-6.34 -2.07,-6.69 0.31,-1.40 z m 131.49,4.86 h 0.01 l 0.04,0.14 -2.12,5.76 -2.73,5.66 -1.18,1.93 6.84,4.16 1.27,-2.10 0.19,0.34 2.87,-5.95 0.16,0.36 2.30,-6.24 0.12,0.38 0.07,0.29 -6.73,-1.74 0.96,0.35 z M 24.94,146.38 l 7.73,2.08 4.15,-15.46 -7.73,-2.07 z m 120.38,-9.70 -4.12,4.52 -4.53,4.13 0.09,0.06 0.01,0.01 0.08,0.07 0.73,0.81 4.13,5.52 0.22,0.17 0.29,0.24 4.84,-4.39 0.27,0.27 4.39,-4.84 0.24,0.29 1.59,-2.12 -6.41,-4.80 z M 126.44,152.25 l -5.66,2.73 -4.04,1.48 2.76,7.51 4.29,-1.58 0.36,0.16 5.95,-2.87 0.34,0.19 4.12,-2.52 -4.16,-6.83 z m -97.97,3.03 -3.94,0.85 v 0.01 l 0.24,0.74 1.21,2.80 0.52,0.87 1.86,2.39 0.70,0.70 2.39,1.86 0.87,0.52 2.80,1.21 0.74,0.24 1.52,0.33 0.53,0.08 1.58,0.12 0.55,0.01 0.69,0.04 0.46,-7.98 0.37,0.02 -1.09,0.09 0.88,0.20 -1.97,0.85 -1.59,-1.24 -1.24,-1.59 -1.02,-2.34 z m 18.77,3.06 2.07,7.73 15.45,-4.14 -2.07,-7.73 z m 22.50,4.05 2.97,1.23 0.36,0.13 7.07,2.17 0.31,0.09 3.61,0.80 0.23,0.05 1.67,0.27 1.27,-7.90 -1.45,0.23 0.05,0.01 -3.45,0.77 -6.72,-2.07 -2.76,-1.15 z M 108.90,158.68 102.50,159.66 96.01,160 94.69,159.95 l 0.27,7.99 1.43,0.05 0.34,0.01 6.95,0.35 0.41,0.04 6.73,-1.04 0.39,0.08 0.77,0.20 -2,-7.74 z"/>
  <path style="opacity:0.20;fill:#ffffff" d="M 96 16 A 80 80 0 0 0 16 96 A 80 80 0 0 0 16.03 96.57 A 80 80 0 0 1 96 17 A 80 80 0 0 1 175.99 96.39 A 80 80 0 0 0 176 96 A 80 80 0 0 0 96 16 z M 21.62 129.08 L 16.78 147.12 A 22.95 22.94 0 0 0 16.11 152.03 A 22.95 22.94 0 0 1 16.78 148.12 L 21.62 130.08 A 80 80 0 0 0 22.08 131.35 L 22.23 130.77 A 80 80 0 0 1 21.62 129.08 z "/>
</svg>
