<?xml version='1.0' encoding='utf-8'?>
<svg xmlns="http://www.w3.org/2000/svg" width="192" height="192" version="1" id="svg12">
  <defs>
    <filter style="color-interpolation-filters:sRGB" id="filter1089" x="-0.048000001" y="-0.048000001" width="1.096" height="1.096">
      <feGaussianBlur stdDeviation="3.2"/>
    </filter>
    <filter style="color-interpolation-filters:sRGB" id="filter1093" x="-0.077681321" y="-0.072497604" width="1.1553626" height="1.1449952">
      <feGaussianBlur stdDeviation="3.6249295"/>
    </filter>
  </defs>
  <circle style="filter:url(#filter1089);opacity:0.2;fill:#000000" cx="96" cy="100" r="80"/>
  <circle style="fill:#3949ab" cx="96" cy="96" r="80"/>
  <path style="opacity:0.1;fill:#ffffff" d="M 95.998047 16 A 80 80 0 0 0 16 96 A 80 80 0 0 0 16.023438 96.638672 A 80 80 0 0 1 95.998047 17 L 96 17 A 80 80 0 0 1 175.98242 96.302734 A 80 80 0 0 0 175.99805 96 A 80 80 0 0 0 96 16 L 95.998047 16 z "/>
  <path style="filter:url(#filter1093);opacity:0.2" d="M 95.882812,33.999226 A 8.0008,7.9728736 0 0 0 88,42.07735 v 47.83594 a 8.0008,7.9728736 0 1 0 16,0 V 42.07735 A 8.0008,7.9728736 0 0 0 95.882812,33.999226 Z M 69.031248,50.007038 a 8.0012864,8.0081772 0 0 0 -4.265624,1.414064 c -20.379412,13.706192 -29.471636,39.201112 -22.375,62.726558 7.09664,23.52546 28.759688,39.7229 53.3125,39.85157 24.552816,0.12868 46.391976,-15.83929 53.734376,-39.28907 7.34239,-23.449782 -1.48386,-49.03409 -21.71875,-62.953122 a 8.0012864,8.0081772 0 1 0 -9.0625,13.1875 c 14.50097,9.974832 20.77742,28.171704 15.51563,44.976562 -5.2618,16.80487 -20.78749,28.15471 -38.382816,28.0625 C 78.193732,137.8914 62.796616,126.38175 57.710936,109.52266 52.62526,92.66357 59.08296,74.532454 73.6875,64.710162 A 8.0012864,8.0081772 0 0 0 69.031248,50.007038 Z"/>
  <path style="fill:#ffffff" d="M 95.882812,32 A 8.0008,7.9728736 0 0 0 88,40.078124 v 47.83594 a 8.0008,7.9728736 0 1 0 16,0 V 40.078124 A 8.0008,7.9728736 0 0 0 95.882812,32 Z M 69.031248,48.007812 a 8.0012864,8.0081772 0 0 0 -4.265624,1.414064 c -20.379412,13.706192 -29.471636,39.201112 -22.375,62.726564 7.09664,23.52545 28.759688,39.72289 53.3125,39.85156 24.552816,0.12868 46.391976,-15.83928 53.734376,-39.28906 7.34239,-23.449788 -1.48386,-49.034096 -21.71875,-62.953128 a 8.0012864,8.0081772 0 1 0 -9.0625,13.1875 c 14.50097,9.974832 20.77742,28.171704 15.51563,44.976568 -5.2618,16.80486 -20.78749,28.1547 -38.382816,28.0625 C 78.193732,135.89218 62.796616,124.38252 57.710936,107.52344 52.62526,90.664344 59.08296,72.533228 73.6875,62.710936 A 8.0012864,8.0081772 0 0 0 69.031248,48.007812 Z"/>
</svg>
