<?xml version='1.0' encoding='utf-8'?>
<svg xmlns="http://www.w3.org/2000/svg" width="192" height="192" version="1.1" id="svg12">
  <defs>
    <filter style="color-interpolation-filters:sRGB" id="filter859" x="0.05" width="1.10" y="0.05" height="1.10">
      <feGaussianBlur stdDeviation="3.20"/>
    </filter>
    <filter style="color-interpolation-filters:sRGB" id="filter863" x="0.05" width="1.10" y="0.04" height="1.09">
      <feGaussianBlur stdDeviation="2.08"/>
    </filter>
  </defs>
  <rect style="filter:url(#filter859);opacity:0.20" width="160" height="160" x="16" y="20" rx="8" ry="8"/>
  <rect style="fill:#f63db6" width="160" height="160" x="16" y="16" rx="8" ry="8"/>
  <path style="opacity:0.20;fill:#ffffff" d="M 24 16 C 19.57 16 16 19.57 16 24 L 16 25 C 16 20.57 19.57 17 24 17 L 168 17 C 172.43 17 176 20.57 176 25 L 176 24 C 176 19.57 172.43 16 168 16 L 24 16 z "/>
  <path style="filter:url(#filter863);opacity:0.15" d="M 79.69,145.50 C 63.14,139.73 49.55,134.95 49.49,134.89 c 0.07,0.06 0.08,0.15 0.04,0.20 0.05,0.04 13.67,1.50 30.29,3.44 22.90,2.67 28.16,3.47 28.26,3.31 0.18,0.28 0.18,-78.54 0.00,-78.82 0.20,0.31 -39.44,8.68 -39.77,9.11 0.18,0.23 0.23,5.88 0.23,26.87 0,21.05 0.05,26.61 0.23,26.75 0.35,0.26 -19.31,8.90 -19.58,8.90 0.18,0.00 0.22,-6.86 0.18,-34.00 l 0.05,-34.00 23.64,-8.47 c 13.00,-4.66 26.98,-9.66 31.07,-11.12 l 7.42,-2.65 16.68,5.18 c 9.17,2.85 16.78,5.24 16.90,5.32 0.18,0.11 0.23,9.48 0.23,45.87 0,43.37 0.02,45.73 0.32,45.89 0.56,0.29 -33.12,9.76 -33.52,9.75 0.21,0.00 -13.92,-4.73 -30.47,-10.50 z"/>
  <path style="fill:#ffffff" d="M 79.69,141.50 C 63.14,135.73 49.55,130.95 49.49,130.89 c 0.07,0.06 0.08,0.15 0.04,0.20 0.05,0.04 13.67,1.50 30.29,3.44 22.90,2.67 28.16,3.47 28.26,3.31 0.18,0.28 0.18,-78.54 0.00,-78.82 0.20,0.31 -39.44,8.68 -39.77,9.11 0.18,0.23 0.23,5.88 0.23,26.87 0,21.05 0.05,26.61 0.23,26.75 0.35,0.26 -19.31,8.90 -19.58,8.90 0.18,0.00 0.22,-6.86 0.18,-34.00 l 0.05,-34.00 23.64,-8.47 c 13.00,-4.66 26.98,-9.66 31.07,-11.12 l 7.42,-2.65 16.68,5.18 c 9.17,2.85 16.78,5.24 16.90,5.32 0.18,0.11 0.23,9.48 0.23,45.87 0,43.37 0.02,45.73 0.32,45.89 0.56,0.29 -33.12,9.76 -33.52,9.75 0.21,0.00 -13.92,-4.73 -30.47,-10.50 z"/>
</svg>
