<?xml version='1.0' encoding='utf-8'?>
<svg xmlns="http://www.w3.org/2000/svg" width="192" height="192" version="1" id="svg12">
  <defs>
    <filter style="color-interpolation-filters:sRGB" id="filter860" x="-0.048000001" width="1.096" y="-0.048000001" height="1.096">
      <feGaussianBlur stdDeviation="3.2"/>
    </filter>
    <filter style="color-interpolation-filters:sRGB" id="filter856" x="-0.059999999" width="1.12" y="-0.04" height="1.08">
      <feGaussianBlur stdDeviation="1.2000001"/>
    </filter>
  </defs>
  <rect style="filter:url(#filter860);opacity:0.2" width="160" height="160" x="16" y="20" rx="48" ry="48"/>
  <rect style="fill:#ee8208" width="160" height="160" x="16" y="16" rx="48" ry="48"/>
  <path style="opacity:0.2;fill:#ffffff" d="M 64 16 C 37.408 16 16 37.408 16 64 L 16 65 C 16 38.408 37.408 17 64 17 L 128 17 C 154.592 17 176 38.408 176 65 L 176 64 C 176 37.408 154.592 16 128 16 L 64 16 z "/>
  <path d="M 80.457368,62.001592 A 4.355098,5.7984165 0 0 0 76,67.797176 v 30.201926 30.201918 a 4.355098,5.7984165 0 0 0 6.532576,5.02219 l 19.645074,-15.1026 19.64508,-15.09933 a 4.355098,5.7984165 0 0 0 0,-10.042727 L 102.17765,77.877592 82.532576,62.77663 a 4.355098,5.7984165 0 0 0 -2.075208,-0.775038 z" style="filter:url(#filter856);opacity:0.2;fill:#000000;color:#000000;font-stretch:normal;font-variant-ligatures:normal;font-variant-position:normal;font-variant-caps:normal;font-variant-numeric:normal;font-variant-alternates:normal;font-feature-settings:normal;text-indent:0;text-align:start;text-decoration-line:none;text-decoration-style:solid;text-decoration-color:#000000;text-transform:none;writing-mode:lr-tb;direction:ltr;text-orientation:mixed;dominant-baseline:auto;baseline-shift:baseline;white-space:normal;shape-padding:0;clip-rule:nonzero;display:inline;overflow:visible;visibility:visible;isolation:auto;mix-blend-mode:normal;color-interpolation:sRGB;color-interpolation-filters:linearRGB;solid-color:#000000;solid-opacity:1;vector-effect:none;fill-rule:nonzero;color-rendering:auto;image-rendering:auto;shape-rendering:auto;text-rendering:auto;enable-background:accumulate"/>
  <path style="fill:#ffffff;color:#000000;font-stretch:normal;font-variant-ligatures:normal;font-variant-position:normal;font-variant-caps:normal;font-variant-numeric:normal;font-variant-alternates:normal;font-feature-settings:normal;text-indent:0;text-align:start;text-decoration-line:none;text-decoration-style:solid;text-decoration-color:#000000;text-transform:none;writing-mode:lr-tb;direction:ltr;text-orientation:mixed;dominant-baseline:auto;baseline-shift:baseline;white-space:normal;shape-padding:0;clip-rule:nonzero;display:inline;overflow:visible;visibility:visible;isolation:auto;mix-blend-mode:normal;color-interpolation:sRGB;color-interpolation-filters:linearRGB;solid-color:#000000;solid-opacity:1;vector-effect:none;fill-rule:nonzero;color-rendering:auto;image-rendering:auto;shape-rendering:auto;text-rendering:auto;enable-background:accumulate" d="M 80.457368,60.001598 A 4.355098,5.7984165 0 0 0 76,65.797182 v 30.201926 30.201922 a 4.355098,5.7984165 0 0 0 6.532576,5.02219 l 19.645074,-15.1026 19.64508,-15.09933 a 4.355098,5.7984165 0 0 0 0,-10.042731 L 102.17765,75.877598 82.532576,60.776636 a 4.355098,5.7984165 0 0 0 -2.075208,-0.775038 z"/>
</svg>
