<?xml version='1.0' encoding='utf-8'?>
<svg xmlns="http://www.w3.org/2000/svg" width="192" height="192" version="1" id="svg12">
  <defs>
    <filter style="color-interpolation-filters:sRGB" id="filter955" x="0.05" width="1.10" y="0.05" height="1.10">
      <feGaussianBlur stdDeviation="3.20"/>
    </filter>
    <filter style="color-interpolation-filters:sRGB" id="filter5693" x="0.10" y="0.11" width="1.21" height="1.23">
      <feGaussianBlur stdDeviation="4.93"/>
    </filter>
  </defs>
  <rect style="filter:url(#filter955);opacity:0.20;fill:#000000" width="160" height="160" x="16" y="20" rx="30" ry="30"/>
  <rect style="fill:#3ed6e5" width="160" height="160" x="16" y="16" rx="30" ry="30"/>
  <path style="opacity:0.20;fill:#ffffff" d="M 46 16 C 29.38 16 16 29.38 16 46 L 16 47 C 16 30.38 29.38 17 46 17 L 146 17 C 162.62 17 176 30.38 176 47 L 176 46 C 176 29.38 162.62 16 146 16 L 46 16 z "/>
  <path style="filter:url(#filter5693);opacity:0.20;fill:#000000;color:#000000" d="m 95.97,45 v 0.00 c -1.94,0.01 -3.74,0.55 -4.72,1.41 l -28.21,25.00 0.01,0.01 -20.74,18.52 C 40.23,91.79 39.19,93.47 39,94.94 39,100.16 40.81,102 46.80,102 H 51 v 41 c 0,3.81 3.19,7 7,7 h 20 v -8 H 59 v -40 -7.93 0.14 h -8.92 c 0,0 15.15,-13.06 22.54,-19.65 L 95.97,53.59 96,53.56 l 0.03,0.03 23.36,20.70 c 7.38,6.59 22.54,19.65 22.54,19.65 H 133 V 94.07 102 142 H 92 v -12 c 0,-2.26 1.74,-4 4,-4 2.26,0 4,1.74 4,4 v 8 h 8 v -8 c 0,-6.58 -5.42,-12 -12,-12 -6.58,0 -12,5.42 -12,12 v 12 8 h 50 c 3.81,0 7,-3.19 7,-7 v -41 h 4.20 C 151.19,102 153,100.16 153,94.94 c 0.19,-1.47 -1.23,-3.15 -3.29,-4.99 l -20.74,-18.52 0.01,0.01 L 100.75,46.42 c 0.98,0.87 -2.77,-1.40 -4.72,-1.41 V 45 c 0.01,0.00 0.02,0.00 0.03,0.00 0.01,0.00 0.02,0.00 0.03,0.00 z M 96,90 c -14.64,0 -23.83,9.17 -23.83,9.17 a 4,4 0 0 0 0,5.66 4,4 0 0 0 5.66,0 c 0,0 6.81,-6.83 18.17,-6.83 11.36,0 18.17,6.83 18.17,6.83 a 4,4 0 0 0 5.66,0 4,4 0 0 0 0,-5.66 C 119.83,99.17 110.64,90 96,90 Z m 0,14 c -8.52,0 -13.83,5.17 -13.83,5.17 a 4,4 0 0 0 0,5.66 4,4 0 0 0 5.66,0 c 0,0 2.70,-2.83 8.17,-2.83 5.48,0 8.17,2.83 8.17,2.83 a 4,4 0 0 0 5.66,0 4,4 0 0 0 0,-5.66 C 109.83,109.17 104.52,104 96,104 Z"/>
  <path style="fill:#ffffff;color:#000000" d="M 95.97 43 L 95.97 43.00 C 94.02 43.01 92.23 43.55 91.25 44.42 L 63.04 69.42 L 63.03 69.43 L 42.29 87.95 C 40.23 89.79 39.19 91.47 39 92.94 C 39 98.16 40.81 100 46.80 100 L 51 100 L 51 141 C 51 144.81 54.19 148 58 148 L 78 148 L 78 140 L 59 140 L 59 100 L 59 92.07 L 59 91.93 L 50.08 91.93 C 50.08 91.93 65.23 78.87 72.61 72.28 L 95.97 51.59 L 96 51.56 L 96.03 51.59 L 119.39 72.28 C 126.77 78.87 141.92 91.93 141.92 91.93 L 133 91.93 L 133 92.07 L 133 100 L 133 140 L 92 140 L 92 128 C 92 125.74 93.74 124 96 124 C 98.26 124 100 125.74 100 128 L 100 136 L 108 136 L 108 128 C 108 121.42 102.58 116 96 116 C 89.42 116 84 121.42 84 128 L 84 140 L 84 148 L 134 148 C 137.81 148 141 144.81 141 141 L 141 100 L 145.20 100 C 151.19 100 153 98.16 153 92.94 C 152.81 91.47 151.77 89.79 149.71 87.95 L 128.97 69.43 L 128.96 69.42 L 100.75 44.42 C 99.77 43.55 97.98 43.01 96.03 43.00 L 96.03 43 C 96.02 43.00 96.01 43.00 96 43.00 C 95.99 43.00 95.98 43.00 95.97 43 z M 96 88 C 81.36 88 72.17 97.17 72.17 97.17 A 4 4 0 0 0 72.17 102.83 A 4 4 0 0 0 77.83 102.83 C 77.83 102.83 84.64 96 96 96 C 107.36 96 114.17 102.83 114.17 102.83 A 4 4 0 0 0 119.83 102.83 A 4 4 0 0 0 119.83 97.17 C 119.83 97.17 110.64 88 96 88 z M 96 102 C 87.48 102 82.17 107.17 82.17 107.17 A 4 4 0 0 0 82.17 112.83 A 4 4 0 0 0 87.83 112.83 C 87.83 112.83 90.52 110 96 110 C 101.48 110 104.17 112.83 104.17 112.83 A 4 4 0 0 0 109.83 112.83 A 4 4 0 0 0 109.83 107.17 C 109.83 107.17 104.52 102 96 102 z "/>
</svg>
