<?xml version='1.0' encoding='utf-8'?>
<svg xmlns="http://www.w3.org/2000/svg" width="192" height="192" version="1" id="svg28">
  <defs>
    <filter style="color-interpolation-filters:sRGB" id="filter6495" x="0.05" y="0.05" width="1.10" height="1.10">
      <feGaussianBlur stdDeviation="3.20"/>
    </filter>
    <filter style="color-interpolation-filters:sRGB" id="filter2662" x="0.10" y="0.06" width="1.19" height="1.12">
      <feGaussianBlur stdDeviation="2.62"/>
    </filter>
  </defs>
  <rect transform="matrix(0,-1,-1,0,0,0)" ry="12" rx="12" y="-176" x="-180" height="160" width="160" style="filter:url(#filter6495);opacity:0.20;fill:#000000"/>
  <rect transform="matrix(0,-1,-1,0,0,0)" ry="12" rx="12" y="-176" x="-176" height="160" width="160" style="fill:#bc38b3"/>
  <path style="fill:#f64a8c;color:#000000" d="M 69.93,49 H 96 122.07 L 97.42,94.51 a 3.13,3.13 0 0 0 0.04,3.07 L 123.83,143 H 96.00 68.17 L 94.53,97.57 a 3.13,3.13 0 0 0 0.04,-3.07 z"/>
  <path style="opacity:0.10;fill:#ffffff" d="m 28,16 c -6.65,0 -12,5.35 -12,12 v 1 c 0,-6.65 5.35,-12 12,-12 h 136 c 6.65,0 12,5.35 12,12 v -1 c 0,-6.65 -5.35,-12 -12,-12 z"/>
  <path style="filter:url(#filter2662);opacity:0.30;fill:#000000;color:#000000" d="m 66,47 a 3.00,3.00 0 0 0 -2.64,4.43 L 88.56,97.95 63.40,141.30 A 3.00,3.00 0 0 0 63,142.80 V 146 a 3.00,3.00 0 0 0 3,3 h 30 30 a 3.00,3.00 0 0 0 3,-3 v -3.20 a 3.00,3.00 0 0 0 0.40,-1.51 L 103.44,97.95 128.64,51.43 A 3.00,3.00 0 0 0 126,47 H 96 Z m 5.04,6 H 96 120.96 L 97.36,96.57 a 3.00,3.00 0 0 0 0.04,2.94 L 122.64,143 H 96 69.36 L 94.60,99.51 a 3.00,3.00 0 0 0 0.04,-2.94 z"/>
  <path style="fill:#103887;color:#000000" d="M 66 45 A 3.00 3.00 0 0 0 63.36 49.43 L 88.56 95.95 L 63.40 139.30 A 3.00 3.00 0 0 0 63 140.80 L 63 144 A 3.00 3.00 0 0 0 66 147 L 96 147 L 126 147 A 3.00 3.00 0 0 0 129 144 L 129 140.80 A 3.00 3.00 0 0 0 128.60 139.30 L 103.44 95.95 L 128.64 49.43 A 3.00 3.00 0 0 0 126 45 L 96 45 L 66 45 z M 71.04 51 L 96 51 L 120.96 51 L 97.36 94.57 A 3.00 3.00 0 0 0 97.40 97.51 L 122.64 141 L 96 141 L 69.36 141 L 94.60 97.51 A 3.00 3.00 0 0 0 94.64 94.57 L 71.04 51 z "/>
</svg>
