<?xml version='1.0' encoding='utf-8'?>
<svg xmlns="http://www.w3.org/2000/svg" width="192" height="192" version="1" id="svg16">
  <defs>
    <filter style="color-interpolation-filters:sRGB" id="filter853" x="0.05" width="1.10" y="0.05" height="1.10">
      <feGaussianBlur stdDeviation="3.20"/>
    </filter>
    <filter style="color-interpolation-filters:sRGB" id="filter869" x="0.06" width="1.12" y="0.04" height="1.08">
      <feGaussianBlur stdDeviation="1.92"/>
    </filter>
  </defs>
  <rect style="filter:url(#filter853);opacity:0.20;fill:#000000" width="160" height="160" x="-180" y="-176" rx="80" ry="80" transform="matrix(0,-1,-1,0,0,0)"/>
  <rect transform="matrix(0,-1,-1,0,0,0)" ry="80" rx="80" y="-176" x="-176" height="160" width="160" style="fill:#e93f3f"/>
  <path style="opacity:0.20;fill:#ffffff" d="M 96 16 C 51.68 16 16.01 51.68 16.01 96 C 16.01 96.34 16.01 96.67 16.01 97 C 16.01 52.68 51.68 17 96 17 C 140.32 17 175.99 52.68 175.99 97 C 175.99 96.67 175.99 96.34 175.99 96 C 175.99 51.68 140.32 16 96 16 z "/>
  <path d="m 126.62,44.00 c -1.18,0.07 -3.84,1.66 -8.78,5.13 L 76.98,79.16 c -4.45,3.54 -8.41,7.10 -8.79,7.90 -1.28,2.71 0.41,3.98 13.17,9.96 10.68,5.00 13.17,5.77 14.09,7.64 0.93,1.90 0.94,2.23 0.06,3.87 -1.12,2.08 -9.30,12.60 -20.46,24.90 C 63.59,146.09 56,154.84 56,155.44 c 0,1.26 2.41,0.33 5.24,-2.03 1.69,-1.41 5.70,-4.32 8.91,-6.48 3.22,-2.16 10.42,-7.15 16.00,-11.09 5.58,-3.94 14.17,-9.88 19.08,-13.19 18.53,-12.52 28.05,-19.07 29.39,-20.23 1.84,-1.59 1.84,-4.52 0,-6.16 0.76,0.68 -7.32,-3.50 -13.11,-6.29 -15.50,-7.45 -16.14,-8.58 -10.25,-18.09 l 13.06,-20.36 c 1.69,-3.21 3.07,-6.23 3.07,-6.71 0,0.56 0.23,0.84 0.77,0.81 z" style="filter:url(#filter869);opacity:0.20"/>
  <path d="m 126.62,40.00 c -1.18,0.07 -3.84,1.66 -8.78,5.13 L 76.98,75.16 c -4.45,3.54 -8.41,7.10 -8.79,7.90 -1.28,2.71 0.41,3.98 13.17,9.96 10.68,5.00 13.17,5.77 14.09,7.64 0.93,1.90 0.94,2.23 0.06,3.87 -1.12,2.08 -9.30,12.60 -20.46,24.90 C 63.59,142.09 56,150.84 56,151.44 c 0,1.26 2.41,0.33 5.24,-2.03 1.69,-1.41 5.70,-4.32 8.91,-6.48 3.22,-2.16 10.42,-7.15 16.00,-11.09 5.58,-3.94 14.17,-9.88 19.08,-13.19 18.53,-12.52 28.05,-19.07 29.39,-20.23 1.84,-1.59 1.84,-4.52 0,-6.16 0.76,0.68 -7.32,-3.50 -13.11,-6.29 -15.50,-7.45 -16.14,-8.58 -10.25,-18.09 l 13.06,-20.36 c 1.69,-3.21 3.07,-6.23 3.07,-6.71 0,0.56 0.23,0.84 0.77,0.81 z" style="fill:#f2c90c"/>
  <path style="opacity:0.20;fill:#ffffff" d="M 126.62 40 C 125.44 40.07 122.78 41.66 117.84 45.12 L 76.98 75.16 C 72.53 78.70 68.58 82.26 68.20 83.07 C 67.90 83.70 67.79 84.25 67.93 84.81 C 67.99 84.57 68.07 84.33 68.20 84.07 C 68.58 83.26 72.53 79.70 76.98 76.16 L 117.84 46.12 C 122.78 42.66 125.44 41.07 126.62 41 C 126.94 40.98 127.14 41.08 127.26 41.28 C 127.34 41.05 127.39 40.88 127.39 40.80 C 127.39 40.25 127.15 39.97 126.62 40 z M 108.27 77.50 C 107.93 78.47 107.80 79.32 107.88 80.12 C 107.94 79.61 108.07 79.08 108.27 78.50 C 109.52 80.99 113.54 83.15 121.51 86.98 C 127.30 89.76 133.86 92.59 134.62 93.27 C 135.39 93.95 135.82 94.85 135.95 95.79 C 136.09 94.52 135.66 93.19 134.62 92.27 C 133.86 91.59 127.30 88.76 121.51 85.98 C 113.54 82.15 109.52 79.99 108.27 77.50 z M 95.44 104.64 C 94.20 106.85 86.11 117.24 75.05 129.44 C 63.58 142.08 56 150.84 56 151.44 C 56 151.69 56.10 151.85 56.29 151.93 C 57.74 149.84 64.86 141.68 75.05 130.44 C 86.11 118.24 94.20 107.85 95.44 105.64 C 95.44 105.65 95.45 105.66 95.45 105.66 C 95.78 106.34 95.99 106.81 96.09 107.21 C 96.27 106.49 96.07 105.92 95.45 104.66 C 95.45 104.66 95.44 104.65 95.44 104.64 z "/>
</svg>
