<svg xmlns="http://www.w3.org/2000/svg" id="svg18" width="192" height="192" version="1"><defs><filter style="color-interpolation-filters:sRGB" id="filter857" width="1.1" height="1.1" x=".05" y=".05"><feGaussianBlur stdDeviation="3.2"/></filter><filter style="color-interpolation-filters:sRGB" id="filter861" width="1.13" height="1.08" x=".06" y=".04"><feGaussianBlur stdDeviation="1.98"/></filter></defs><rect style="filter:url(#filter857);opacity:.2" width="160" height="160" x="16" y="20" rx="8" ry="8"/><rect style="fill:#38bdec" width="160" height="160" x="16" y="16" rx="8" ry="8"/><path style="opacity:.2;fill:#fff" d="M 24 16 C 19.57 16 16 19.57 16 24 L 16 25 C 16 20.57 19.57 17 24 17 L 168 17 C 172.43 17 176 20.57 176 25 L 176 24 C 176 19.57 172.43 16 168 16 L 24 16 z"/><path style="filter:url(#filter861);opacity:.2" d="m 60,38 v 37.20 l 12.52,12.57 a 38.07,38.07 0 0 0 0.03,0.02 l 13.62,13.62 2.01,2.01 v 0.01 a 16,16 0 0 1 2.70,-1.71 16,16 0 0 1 0.01,0.01 16,16 0 0 1 2.98,-1.13 A 16,16 0 0 1 96,100.15 a 16,16 0 0 1 0.09,0.02 V 78.03 A 38.07,38.07 0 0 0 96,78.04 V 70 Z m 39.91,40 v 22.12 a 16,16 0 0 1 7.96,3.31 L 123.51,87.80 A 38.07,38.07 0 0 0 99.91,78 Z M 60,80.31 V 114 h 0.01 A 38.07,38.07 0 0 0 60,114.09 h 22.12 a 16,16 0 0 1 3.31,-7.96 l 0.20,0.20 0.07,0.05 z m 66.20,10.18 -15.62,15.63 a 16,16 0 0 1 3.29,7.98 h 22.10 A 38.07,38.07 0 0 0 126.20,90.49 Z M 60.03,117.91 a 38.07,38.07 0 0 0 9.77,23.60 l 15.62,-15.62 a 16,16 0 0 1 -3.29,-7.98 z m 53.84,0 a 16,16 0 0 1 -3.31,7.96 l 15.64,15.64 A 38.07,38.07 0 0 0 136,117.91 Z M 88.13,128.56 72.49,144.20 A 38.07,38.07 0 0 0 96.09,154 v -22.12 a 16,16 0 0 1 -7.96,-3.31 z m 19.75,0.02 a 16,16 0 0 1 -7.98,3.29 v 22.10 a 38.07,38.07 0 0 0 23.60,-9.77 z"/><g><path style="fill:#fff" d="m 24.98,19 v 5.53 a 4,4 0 0 1 1.99,0.83 l 3.91,-3.91 A 9.52,9.52 0 0 0 24.98,19 Z m 0.95,0.01 a 9.52,9.52 0 0 0 -5.90,2.44 l 3.91,3.91 a 4,4 0 0 1 1.99,0.82 z m -6.57,3.12 A 9.52,9.52 0 0 0 15,28.02 h 5.53 a 4,4 0 0 1 0.83,-1.99 z m 14.10,0 -3.91,3.91 a 4,4 0 0 1 0.82,1.99 h 5.53 A 9.52,9.52 0 0 0 31.55,22.12 Z M 15.01,28.98 a 9.52,9.52 0 0 0 2.44,5.90 l 3.91,-3.91 A 4,4 0 0 1 20.53,28.98 Z m 13.46,0 a 4,4 0 0 1 0.83,1.99 l 3.91,3.91 A 9.52,9.52 0 0 0 34,28.98 Z m -6.44,2.66 -3.91,3.91 A 9.52,9.52 0 0 0 24.02,38 v -5.53 a 4,4 0 0 1 -1.99,0.83 z m 4.94,0.00 a 4,4 0 0 1 -1.99,0.82 v 5.53 a 9.52,9.52 0 0 0 5.90,-2.44 z" transform="scale(4)"/><path style="fill:#fff" d="m 15,9 v 9.30 l 7.03,7.06 A 4,4 0 0 1 24,24.54 V 17 Z" transform="scale(4)"/><path style="fill:#fff" d="M 15,19.58 21.33,25.97 20,27 18,28 h -3 z" transform="scale(4)"/></g></svg>