<?xml version='1.0' encoding='utf-8'?>
<svg xmlns="http://www.w3.org/2000/svg" width="192" height="192" version="1" id="svg20">
  <defs>
    <filter style="color-interpolation-filters:sRGB" id="filter842" x="0.05" width="1.10" y="0.05" height="1.09">
      <feGaussianBlur stdDeviation="3.02"/>
    </filter>
  </defs>
  <path style="fill:#cccccc" d="M 94.87,20.13 C 50.69,20.13 21.25,51.82 21.25,96 21.25,140.18 51.44,169.62 95.62,169.62 113.29,169.62 130.00,170.27 143.23,160.57 163.10,146.02 176,122.52 176,96 176,74.10 167.20,54.25 152.94,39.80 138.43,25.11 117.15,20.13 94.87,20.13 Z M 98,36 C 121.20,36 140,62.86 140,96 140,129.14 121.20,156 98,156 74.80,156 48.50,128.76 48.50,95.62 48.50,62.49 74.80,36 98,36 Z"/>
  <path d="M 96,20 C 51.82,20 16,55.82 16,100 16,144.18 51.82,180 96,180 119.70,179.97 142.18,169.43 157.35,151.22 146.45,162.01 132.47,167.97 118,168 80.64,166.46 54.85,129.79 56,100 57.45,62.47 82.39,32.45 118,32 132.56,32.02 146.61,38.04 157.55,48.93 142.36,30.61 119.80,20.01 96,20 Z" style="filter:url(#filter842);opacity:0.20;fill:#000000"/>
  <path style="fill:#f23845" d="M 96,16 C 51.82,16 16,51.82 16,96 16,140.18 51.82,176 96,176 119.70,175.97 142.18,165.43 157.35,147.22 146.45,158.01 132.47,163.97 118,164 80.64,162.46 54.85,125.79 56,96 57.45,58.47 82.39,28.45 118,28 132.56,28.02 146.61,34.04 157.55,44.93 142.36,26.61 119.80,16.01 96,16 Z"/>
  <path style="opacity:0.20;fill:#ffffff" d="M 96 16 C 51.82 16 16 51.82 16 96 C 16 96.17 16.00 96.33 16.01 96.50 C 16.28 52.55 51.98 17 96 17 C 117.38 17.01 137.75 25.57 152.69 40.59 C 154.36 41.94 155.99 43.38 157.55 44.93 C 142.36 26.61 119.80 16.01 96 16 z M 55.98 99.00 C 56.02 128.41 81.47 163.50 118 165 C 130.41 164.97 142.44 160.58 152.50 152.53 C 154.18 150.84 155.81 149.07 157.35 147.22 C 146.45 158.01 132.47 163.97 118 164 C 81.89 162.52 56.59 128.20 55.98 99.00 z "/>
  <circle style="opacity:0" r="80" cy="94.00" cx="96"/>
  <circle style="opacity:0" r="80" cy="94.00" cx="96"/>
</svg>
