<svg xmlns="http://www.w3.org/2000/svg" id="svg26" width="192" height="192" version="1"><defs><filter style="color-interpolation-filters:sRGB" id="filter868" width="1.1" height="1.1" x=".05" y=".05"><feGaussianBlur stdDeviation="3.2"/></filter><filter style="color-interpolation-filters:sRGB" id="filter902" width="1.24" height="1.07" x=".12" y=".04"><feGaussianBlur stdDeviation="1.28"/></filter><filter style="color-interpolation-filters:sRGB" id="filter930" width="1.24" height="1.07" x=".12" y=".04"><feGaussianBlur stdDeviation="1.28"/></filter><filter style="color-interpolation-filters:sRGB" id="filter958" width="1.24" height="1.07" x=".12" y=".04"><feGaussianBlur stdDeviation="1.28"/></filter><filter style="color-interpolation-filters:sRGB" id="filter978" width="1.13" height="1.08" x=".06" y=".04"><feGaussianBlur stdDeviation="1.28"/></filter></defs><rect style="filter:url(#filter868);opacity:.2;fill:#000" width="160" height="160" x="-180" y="-176" rx="8" ry="8" transform="matrix(0,-1,-1,0,0,0)"/><rect width="160" height="160" x="-176" y="-176" rx="8" ry="8" transform="matrix(0,-1,-1,0,0,0)" style="fill:#7755d5"/><rect width="25.71" height="84.39" x="-95.76" y="98.12" rx="12.85" ry="12.66" transform="matrix(0.93,0.36,0.38,0.93,0,0)" style="filter:url(#filter958);opacity:.2"/><path style="filter:url(#filter978);opacity:.2" d="M 75.18 60.02 C 73.51 59.98 71.80 60.27 70.14 60.91 L 70.14 60.92 C 63.50 63.50 60.28 70.80 62.91 77.30 L 84.30 130.02 C 83.78 127.66 83.95 125.14 84.93 122.72 L 97.00 92.96 L 86.88 67.98 C 84.90 63.11 80.21 60.12 75.18 60.02 z M 109.71 130.01 L 108.89 132.04 C 106.93 136.87 102.30 139.85 97.32 140 C 98.83 139.97 100.36 139.69 101.85 139.12 L 101.86 139.12 C 106.03 137.49 108.85 133.99 109.71 130.01 z M 95.51 139.92 C 95.54 139.92 95.57 139.93 95.60 139.93 C 95.57 139.93 95.54 139.92 95.51 139.92 z M 96.40 139.99 C 96.64 140.00 96.87 140.01 97.11 140.01 C 96.87 140.01 96.64 140.00 96.40 139.99 z"/><path style="opacity:.1;fill:#fff" d="M 24 16 C 19.57 16 16 19.57 16 24 L 16 25 C 16 20.57 19.57 17 24 17 L 168 17 C 172.43 17 176 20.57 176 25 L 176 24 C 176 19.57 172.43 16 168 16 L 24 16 z"/><rect width="25.71" height="84.39" x="-97.24" y="94.4" rx="12.85" ry="12.66" transform="matrix(0.93,0.36,0.38,0.93,0,0)" style="fill:#a292dc"/><rect width="25.71" height="84.39" x="-56.48" y="78.44" rx="12.85" ry="12.66" transform="matrix(0.93,0.36,0.38,0.93,0,0)" style="fill:#a292dc"/><rect width="25.71" height="84.39" x="124.84" y="11.88" rx="12.85" ry="12.66" transform="matrix(0.93,0.36,0.38,0.93,0,0)" style="filter:url(#filter930);opacity:.2"/><rect width="25.71" height="84.39" x="123.32" y="8.16" rx="12.85" ry="12.66" transform="matrix(0.93,0.36,0.38,0.93,0,0)" style="fill:#fff"/><rect width="25.71" height="84.39" x="84.04" y="27.84" rx="12.85" ry="12.66" transform="matrix(0.93,0.36,0.38,0.93,0,0)" style="filter:url(#filter902);opacity:.2"/><rect width="25.71" height="84.39" x="82.56" y="24.08" rx="12.85" ry="12.66" transform="matrix(0.93,0.36,0.38,0.93,0,0)" style="fill:#fff"/></svg>