<svg xmlns="http://www.w3.org/2000/svg" id="svg54" width="192" height="192" version="1"><defs><filter style="color-interpolation-filters:sRGB" id="filter909" width="1.09" height="1.1" x=".05" y=".05"><feGaussianBlur stdDeviation="3.04"/></filter><filter style="color-interpolation-filters:sRGB" id="filter946" width="1.05" height="1.38" x=".03" y=".19"><feGaussianBlur stdDeviation="1.28"/></filter><filter style="color-interpolation-filters:sRGB" id="filter962" width="1.1" height="1.1" x=".05" y=".05"><feGaussianBlur stdDeviation="1.76"/></filter></defs><path style="filter:url(#filter909);opacity:.2;fill:#000" d="m 24,24.00 c -4.43,0 -8,3.57 -8,8 V 63.60 64.00 160 c 0,4.43 3.57,8 8,8 h 144 c 4.43,0 8,-3.57 8,-8 V 64.00 63.60 32.00 c 0,-4.43 -3.57,-8 -8,-8 z"/><path d="M 16,59.60 V 156 c 0,4.43 3.57,8 8,8 h 144 c 4.43,0 8,-3.57 8,-8 V 59.60 Z" style="fill:#e4e4e4"/><path d="m 176,60.00 v -32 c 0,-4.43 -3.57,-8 -8,-8 H 24 c -4.43,0 -8,3.57 -8,8 v 32 z" style="fill:#86c20a"/><path d="m 24,20.00 c -4.43,0 -8,3.57 -8,8 v 2 c 0,-4.43 3.57,-8 8,-8 h 144 c 4.43,0 8,3.57 8,8 v -2 c 0,-4.43 -3.57,-8 -8,-8 z" style="opacity:.2;fill:#fff"/><rect width="24" height="24" x="132" y="100" style="opacity:.2"/><rect width="24" height="24" x="68" y="100" style="opacity:.2"/><rect width="24" height="24" x="36" y="100" style="opacity:.2"/><rect width="24" height="24" x="100" y="132" style="opacity:.2"/><rect width="24" height="24" x="132" y="132" style="opacity:.2"/><rect width="24" height="24" x="68" y="132" style="opacity:.2"/><rect width="24" height="24" x="36" y="132" style="opacity:.2"/><rect width="24" height="24" x="100" y="68" style="opacity:.2"/><rect width="24" height="24" x="132" y="68" style="opacity:.2"/><rect width="24" height="24" x="68" y="68" style="opacity:.2"/><rect width="24" height="24" x="36" y="68" style="opacity:.2"/><path style="filter:url(#filter946);opacity:.1" d="m 48,34.00 a 8,8 0 0 0 -8,8 8,8 0 0 0 8,8 8,8 0 0 0 8,-8 8,8 0 0 0 -8,-8 z m 96,0 a 8,8 0 0 0 -8,8 8,8 0 0 0 8,8 8,8 0 0 0 8,-8 8,8 0 0 0 -8,-8 z"/><circle cx="48" cy="40" r="8" style="fill:#fff"/><circle cx="144" cy="40" r="8" style="fill:#fff"/><circle cx="144" cy="144" r="44" style="filter:url(#filter962);opacity:.2"/><rect width="24" height="24" x="100" y="100" style="opacity:.2"/><circle cx="144" cy="140" r="44" style="fill:#507dd6"/><rect width="8" height="56" x="140" y="112" style="fill:#fff"/><rect width="8" height="56" x="136" y="-172" transform="rotate(90)" style="fill:#fff"/><rect style="opacity:.2;fill:#fff" width="160" height="1" x="16" y="60"/></svg>