<?xml version='1.0' encoding='utf-8'?>
<svg xmlns="http://www.w3.org/2000/svg" width="192" height="192" version="1" id="svg14">
  <defs>
    <filter style="color-interpolation-filters:sRGB" id="filter850" x="0.05" width="1.10" y="0.05" height="1.10">
      <feGaussianBlur stdDeviation="3.20"/>
    </filter>
    <filter style="color-interpolation-filters:sRGB" id="filter1589" x="0.08" y="0.15" width="1.17" height="1.30">
      <feGaussianBlur stdDeviation="3.98"/>
    </filter>
  </defs>
  <circle style="filter:url(#filter850);opacity:0.20;fill:#000000" cx="96" cy="100" r="80"/>
  <circle r="80" cy="96" cx="96" style="fill:#eb3343"/>
  <path style="fill:#38adfa" d="m 688.81,257.00 c 0.33,0.33 -1.19,0.37 -1.92,0.08 0.80,0.32 0.56,0.56 0.60,0.60 1.05,0.04 1.64,0.19 1.31,0.53 z"/>
  <path style="opacity:0.20;fill:#ffffff" d="M 96 16 A 80 80 0 0 0 16 96 A 80 80 0 0 0 16.02 96.47 A 80 80 0 0 1 96 17 A 80 80 0 0 1 175.97 96.51 A 80 80 0 0 0 176 96 A 80 80 0 0 0 96 16 z "/>
  <path style="filter:url(#filter1589);opacity:0.20;fill:#000000" d="m 95.27,60.00 c -1.16,0.02 -2.32,0.11 -3.31,0.37 -3.93,1.05 -5.92,3.53 -5.96,7.42 0.02,2.77 0.28,3.78 1.62,5.31 2.01,2.30 3.96,3.01 8.01,2.88 2.40,0.08 3.29,0.27 4.54,0.96 2.36,-1.32 3.62,-3.37 3.80,-6.19 0.24,-3.83 -1.45,-6.79 -4.64,-8.11 C 98.24,60.27 96.76,60.02 95.27,60.00 Z M 73.06,66.00 c -5.34,0 -7.00,1.63 -7.74,6.22 0.21,1.30 0.36,8.38 0.36,16.79 0.00,12.21 0.09,14.79 0.53,16.06 -1.11,3.16 -3.89,4.32 -8.39,4.03 -3.15,0.20 -5.55,-1.30 -7.87,-3.59 l -1.63,-1.62 -1.36,0.90 c -1.62,1.07 -3.25,3.34 -3.78,5.25 -1.38,4.97 0.95,9.65 5.92,11.90 1.86,0.84 2.90,1.13 6.62,1.87 1.86,0.37 10.54,0.16 12.76,0.30 7.32,-1.53 12.31,-6.29 14.52,-13.82 0.54,-1.83 0.62,-4.14 0.74,-19.86 0.14,-19.49 0.10,-20.00 -1.80,-21.91 -1.44,-1.45 -3.21,-1.93 -7.09,-1.93 z m 22.12,14 c -4.12,0 -6.33,1.15 -7.56,3.94 0.57,1.29 0.61,2.62 0.62,17.86 0.00,11.92 0.11,16.85 0.40,17.86 0.49,1.68 2.21,3.54 3.69,3.98 2.02,0.60 6.96,0.44 8.50,0.29 0.88,0.41 1.75,-1.20 2.34,-2.12 1.10,-1.24 0.95,-2.34 0.96,-3.92 l 0.08,-14.76 c 0.08,-15.16 0.03,-17.39 0.44,-18.67 -1.02,-2.75 -3.16,-3.88 -7.34,-3.88 z m 36.08,0 c -9.84,0.01 -17.39,4.14 -21.05,11.58 -1.62,3.29 -2.20,6.06 -2.21,10.50 0.02,11.38 5.92,19.07 16.63,21.54 1.38,0.32 3.61,0.43 7.06,0.36 4.45,0.09 5.36,0.21 7.73,-1.03 3.81,-1.31 6.05,-2.68 8.62,-5.27 6.98,-7.06 7.98,-19.91 2.21,-28.50 -4.00,-5.96 -10.66,-9.18 -18.99,-9.19 z m 0.06,12.00 c 3.26,0.07 6.51,1.92 8.09,5.62 0.91,2.13 0.94,6.61 0.06,8.67 0.85,1.98 -2.54,3.93 -4.17,4.82 -1.75,0.95 -5.51,1.20 -7.33,0.48 -4.59,-1.81 -6.97,-7.66 -5.35,-13.14 1.29,-4.34 4.99,-6.53 8.69,-6.45 z"/>
  <path style="fill:#ffffff" d="m 95.27,58.00 c -1.16,0.02 -2.32,0.11 -3.31,0.37 -3.93,1.05 -5.92,3.53 -5.96,7.42 0.02,2.77 0.28,3.78 1.62,5.31 2.01,2.30 3.96,3.01 8.01,2.88 2.40,0.08 3.29,0.27 4.54,0.96 2.36,-1.32 3.62,-3.37 3.80,-6.19 0.24,-3.83 -1.45,-6.79 -4.64,-8.11 -1.09,0.45 -2.57,0.70 -4.06,0.72 z m -22.21,6.00 c -5.34,0 -7.00,1.63 -7.74,6.22 0.21,1.30 0.36,8.38 0.36,16.79 0.00,12.21 0.09,14.79 0.53,16.06 -1.11,3.16 -3.89,4.32 -8.39,4.03 -3.15,0.20 -5.55,-1.30 -7.87,-3.59 l -1.63,-1.62 -1.36,0.90 c -1.62,1.07 -3.25,3.34 -3.78,5.25 -1.38,4.97 0.95,9.65 5.92,11.90 1.86,0.84 2.90,1.13 6.62,1.87 1.86,0.37 10.54,0.16 12.76,0.30 7.32,-1.53 12.31,-6.29 14.52,-13.82 0.54,-1.83 0.62,-4.14 0.74,-19.86 0.14,-19.49 0.10,-20.00 -1.80,-21.91 -1.44,-1.45 -3.21,-1.93 -7.09,-1.93 z m 22.12,14 c -4.12,0 -6.33,1.15 -7.56,3.94 0.57,1.29 0.61,2.62 0.62,17.86 0.00,11.92 0.11,16.85 0.40,17.86 0.49,1.68 2.21,3.54 3.69,3.98 2.02,0.60 6.96,0.44 8.50,0.29 0.88,0.41 1.75,-1.20 2.34,-2.12 1.10,-1.24 0.95,-2.34 0.96,-3.92 l 0.08,-14.76 c 0.08,-15.16 0.03,-17.39 0.44,-18.67 -1.02,-2.75 -3.16,-3.88 -7.34,-3.88 z m 36.08,0 c -9.84,0.01 -17.39,4.14 -21.05,11.58 -1.62,3.29 -2.20,6.06 -2.21,10.50 0.02,11.38 5.92,19.07 16.63,21.54 1.38,0.32 3.61,0.43 7.06,0.36 4.45,0.09 5.36,0.21 7.73,-1.03 3.81,-1.31 6.05,-2.68 8.62,-5.27 6.98,-7.06 7.98,-19.91 2.21,-28.50 -4.00,-5.96 -10.66,-9.18 -18.99,-9.19 z m 0.06,12.00 c 3.26,0.07 6.51,1.92 8.09,5.62 0.91,2.13 0.94,6.61 0.06,8.67 0.85,1.98 -2.54,3.93 -4.17,4.82 -1.75,0.95 -5.51,1.20 -7.33,0.48 -4.59,-1.81 -6.97,-7.66 -5.35,-13.14 1.29,-4.34 4.99,-6.53 8.69,-6.45 z"/>
</svg>
