<?xml version='1.0' encoding='utf-8'?>
<svg xmlns="http://www.w3.org/2000/svg" width="192" height="192" version="1.1" id="svg14">
  <defs>
    <filter style="color-interpolation-filters:sRGB" id="filter854" x="0.05" width="1.10" y="0.05" height="1.10">
      <feGaussianBlur stdDeviation="3.20"/>
    </filter>
    <filter style="color-interpolation-filters:sRGB" id="filter877" x="0.03" width="1.07" y="0.08" height="1.16">
      <feGaussianBlur stdDeviation="1.60"/>
    </filter>
  </defs>
  <path d="m 95.98,20.00 c -2.28,0.02 -4.56,0.13 -6.83,0.33 -1.65,0.13 -3.26,0.34 -4.88,0.56 0.86,0.11 -1.71,0.23 -2.56,0.37 -2.30,0.39 -4.56,0.88 -6.79,1.45 0.15,0.04 0.29,0.07 0.44,0.11 -33.77,8.79 -58.48,37.69 -58.48,71.98 0.00,0.25 0.02,0.49 0.02,0.74 0.01,0.15 0.02,0.31 0.02,0.46 0.04,23.55 12.36,45.64 32,60.00 v 24 l 21.22,-12.48 c 8.59,2.94 17.65,4.45 26.78,4.48 42.56,0.05 77.62,-31.74 79.80,-72.12 0.06,0.88 0.11,-1.77 0.14,-2.66 0.02,0.41 0.05,0.81 0.06,-1.22 0.00,0.16 0.01,0.33 0.02,0.49 0.00,0.24 0.02,0.47 0.02,0.71 0,-38.74 -31.51,-70.66 -72.02,-74.41 -2.21,0.20 -4.43,0.30 -6.66,0.32 0.45,0.01 0.88,0.06 -1.34,0.06 z" style="filter:url(#filter854);opacity:0.20;fill:#000000"/>
  <path style="fill:#009eff" d="m 95.98,16 c -2.28,0.02 -4.56,0.13 -6.83,0.33 -1.65,0.13 -3.26,0.34 -4.88,0.56 0.86,0.11 -1.71,0.23 -2.56,0.37 -2.30,0.39 -4.56,0.88 -6.79,1.45 0.15,0.04 0.29,0.07 0.44,0.11 -33.77,8.79 -58.48,37.69 -58.48,71.98 0.00,0.25 0.02,0.49 0.02,0.74 0.01,0.15 0.02,0.31 0.02,0.46 0.04,23.55 12.36,45.64 32,60.00 v 24 l 21.22,-12.48 c 8.59,2.94 17.65,4.45 26.78,4.48 42.56,0.05 77.62,-31.74 79.80,-72.12 0.06,0.88 0.11,-1.77 0.14,-2.66 0.02,0.41 0.05,0.81 0.06,-1.22 0.00,0.16 0.01,0.33 0.02,0.49 0.00,0.24 0.02,0.47 0.02,0.71 0,-38.74 -31.51,-70.66 -72.02,-74.41 -2.21,0.20 -4.43,0.30 -6.66,0.32 0.45,0.01 0.88,0.06 -1.34,0.06 z"/>
  <path style="filter:url(#filter877);opacity:0.20" d="M 104,116 84,92 40,116 88,68 108,92 152,68 Z"/>
  <path style="fill:#ffffff" d="M 104,112 84,88 40,112 88,64 108,88 152,64 Z"/>
  <path style="opacity:0.20;fill:#ffffff" d="M 95.97 16 A 80 76 0 0 0 89.15 16.33 C 87.50 16.46 85.89 16.67 84.27 16.89 A 80 76 0 0 0 81.71 17.26 C 79.41 17.65 77.15 18.14 74.92 18.70 A 80 76 0 0 0 74.48 18.81 C 40.72 27.61 16 56.50 16 90.80 C 16.00 90.94 16.01 91.08 16.01 91.21 C 16.29 57.17 40.91 28.56 74.48 19.81 A 80 76 0 0 1 74.92 19.70 C 77.15 19.14 79.41 18.65 81.71 18.26 A 80 76 0 0 1 84.27 17.89 C 85.89 17.67 87.50 17.46 89.15 17.33 A 80 76 0 0 1 95.98 17 L 95.97 17.00 L 95.99 17.00 C 96.44 17.00 96.88 17.05 97.33 17.06 A 80 76 0 0 1 103.98 17.38 C 144.33 21.12 175.74 52.81 175.99 91.33 C 175.99 91.15 176.00 90.98 176.00 90.79 C 176.00 52.06 144.49 20.13 103.98 16.38 A 80 76 0 0 0 97.33 16.06 C 96.88 16.06 96.44 16 95.99 16 L 95.98 16 L 95.97 16 z M 176.00 91.92 C 175.99 91.99 175.99 92.07 175.99 92.14 A 80 76 0 0 0 176.00 92 A 80 76 0 0 0 176.00 91.92 z M 16.00 91.92 A 80 76 0 0 0 16 92 A 80 76 0 0 0 16.02 92.27 C 16.01 92.15 16.01 92.04 16.00 91.92 z "/>
</svg>
