<svg xmlns="http://www.w3.org/2000/svg" id="svg14" width="192" height="192" version="1"><defs><filter style="color-interpolation-filters:sRGB" id="filter850" width="1.1" height="1.1" x=".05" y=".05"><feGaussianBlur stdDeviation="3.2"/></filter><filter style="color-interpolation-filters:sRGB" id="filter15207" width="1.24" height="1.2" x=".12" y=".1"><feGaussianBlur stdDeviation="4.5"/></filter><filter style="color-interpolation-filters:sRGB" id="filter15249" width="1.24" height="1.19" x=".12" y=".1"><feGaussianBlur stdDeviation="2.02"/></filter></defs><circle style="filter:url(#filter850);opacity:.2;fill:#000" cx="96" cy="100" r="80"/><circle cx="96" cy="96" r="80" style="fill:#1771d0"/><path style="fill:#38adfa" d="m 688.81,257.00 c 0.33,0.33 -1.19,0.37 -1.92,0.08 0.80,0.32 0.56,0.56 0.60,0.60 1.05,0.04 1.64,0.19 1.31,0.53 z"/><path style="opacity:.2;fill:#fff" d="M 96 16 A 80 80 0 0 0 16 96 A 80 80 0 0 0 16.02 96.47 A 80 80 0 0 1 96 17 A 80 80 0 0 1 175.97 96.51 A 80 80 0 0 0 176 96 A 80 80 0 0 0 96 16 z"/><path style="filter:url(#filter15207);opacity:.2;fill:#000" d="M 96,43 51,63.61 V 94.56 C 51,112.23 63.33,144.44 96,153 c 32.67,-8.56 45,-40.77 45,-58.44 V 63.61 Z"/><path style="fill:#fff" d="M 96,41 51,61.61 V 92.56 C 51,110.23 63.33,142.44 96,151 c 32.67,-8.56 45,-40.77 45,-58.44 V 61.61 Z"/><path style="filter:url(#filter15249);opacity:.2;fill:#000" d="m 96,73 c -7.70,0 -14,6.30 -14,14 v 6 c -3.32,0 -6,2.68 -6,6 v 18 c 0,3.32 2.68,6 6,6 h 28 c 3.32,0 6,-2.68 6,-6 V 99 c 0,-3.32 -2.68,-6 -6,-6 v -6 c 0,-7.70 -6.30,-14 -14,-14 z m 0,6 c 4.45,0 8,3.55 8,8 v 6 H 88 v -6 c 0,-4.45 3.55,-8 8,-8 z"/><path style="fill:#104b8e" d="M 96 71 C 88.30 71 82 77.30 82 85 L 82 91 C 78.68 91 76 93.68 76 97 L 76 115 C 76 118.32 78.68 121 82 121 L 110 121 C 113.32 121 116 118.32 116 115 L 116 97 C 116 93.68 113.32 91 110 91 L 110 85 C 110 77.30 103.70 71 96 71 z M 96 77 C 100.45 77 104 80.55 104 85 L 104 91 L 88 91 L 88 85 C 88 80.55 91.55 77 96 77 z"/></svg>