<svg xmlns="http://www.w3.org/2000/svg" id="svg18" width="192" height="192" version="1.1"><defs><filter style="color-interpolation-filters:sRGB" id="filter857" width="1.1" height="1.1" x=".05" y=".05"><feGaussianBlur stdDeviation="3.2"/></filter><filter style="color-interpolation-filters:sRGB" id="filter884" width="1.06" height="1.29" x=".03" y=".14"><feGaussianBlur stdDeviation=".96"/></filter><filter style="color-interpolation-filters:sRGB" id="filter900" width="1.06" height="1.29" x=".03" y=".14"><feGaussianBlur stdDeviation=".96"/></filter><filter style="color-interpolation-filters:sRGB" id="filter916" width="1.1" height="1.09" x=".05" y=".05"><feGaussianBlur stdDeviation="1.52"/></filter><filter style="color-interpolation-filters:sRGB" id="filter932" width="1.06" height="1.29" x=".03" y=".14"><feGaussianBlur stdDeviation=".96"/></filter></defs><circle cx="96" cy="100" r="80" style="filter:url(#filter857);opacity:.2"/><circle cx="96" cy="96" r="80" style="fill:#e4e4e4"/><path style="opacity:.2;fill:#fff" d="M 96 16 A 80 80 0 0 0 16 96 A 80 80 0 0 0 16.02 96.49 A 80 80 0 0 1 96 17 A 80 80 0 0 1 175.97 96.49 A 80 80 0 0 0 176 96 A 80 80 0 0 0 96 16 z"/><rect style="filter:url(#filter932);opacity:.1;fill:#000" width="80" height="16" x="104" y="89.99" ry="8"/><rect width="80" height="16" x="104" y="87.99" ry="8" style="fill:#469961"/><rect style="filter:url(#filter884);opacity:.1;fill:#000" width="80" height="16" x="8" y="65.99" ry="8"/><rect width="80" height="16" x="8" y="63.99" ry="8" style="fill:#438f96"/><rect style="filter:url(#filter900);opacity:.1;fill:#000" width="80" height="16" x="8" y="113.99" ry="8"/><rect width="80" height="16" x="8" y="111.99" ry="8" style="fill:#469961"/><path style="filter:url(#filter916);opacity:.1;fill:#000" d="m 64,138 c 5.28,-15.80 7.93,-28.15 8,-40 0.07,-12.15 -2.59,-23.80 -8,-40 49.85,0 72,40 72,40 0,0 -22.15,40 -72,40 z"/><path d="m 64,136.00 c 5.28,-15.80 7.93,-28.15 8,-40 0.07,-12.15 -2.59,-23.80 -8,-40 49.85,0 72,40 72,40 0,0 -22.15,40 -72,40 z" style="fill:#3f3f3f"/></svg>