<?xml version='1.0' encoding='utf-8'?>
<svg xmlns="http://www.w3.org/2000/svg" width="192" height="192" version="1" id="svg14">
  <defs>
    <filter style="color-interpolation-filters:sRGB" id="filter850" x="-0.048000001" width="1.096" y="-0.048000001" height="1.096">
      <feGaussianBlur stdDeviation="3.2"/>
    </filter>
    <filter style="color-interpolation-filters:sRGB" id="filter2895" x="-0.108" y="-0.108" width="1.216" height="1.216">
      <feGaussianBlur stdDeviation="3.33"/>
    </filter>
    <filter style="color-interpolation-filters:sRGB" id="filter2937" x="-0.075482596" y="-0.074523536" width="1.1509652" height="1.1490471">
      <feGaussianBlur stdDeviation="3.9124856"/>
    </filter>
  </defs>
  <circle style="filter:url(#filter850);opacity:0.2;fill:#000000" cx="96" cy="100" r="80"/>
  <circle r="80" cy="96" cx="96" style="fill:#007dba"/>
  <path style="filter:url(#filter2937);opacity:0.2;fill:#000000" d="M 91.092981,35.009232 C 57.386879,37.219038 31.417467,65.945844 33.075144,100.19784 v 0.55385 c 1.105118,34.252 29.837889,61.32057 64.09655,60.21565 24.312596,-0.55244 45.309036,-15.46823 54.702536,-37.56628 -6.6307,1.10489 -13.81304,2.21095 -20.44373,2.7634 -5.5256,9.39167 -13.26174,17.12541 -22.65524,22.09747 7.18327,-5.52452 13.26181,-13.25879 17.68228,-21.54557 -7.18326,0 -14.92006,-0.55219 -22.10334,-2.20954 -6.078146,8.28678 -13.814298,14.91639 -22.655235,19.33601 7.183261,-5.52454 13.261141,-12.70746 18.234174,-20.44177 -10.498619,-2.76225 -19.891701,-8.28696 -28.180089,-15.46882 8.840947,6.07697 19.33913,9.9451 29.83775,12.70737 3.86792,-7.73433 6.07934,-16.02221 7.18446,-24.308978 -12.15631,-2.762266 -23.208305,-8.285835 -32.049252,-16.572611 10.498633,6.629412 20.997409,10.497009 32.601152,13.259263 1.10511,-10.496569 0.55192,-21.546803 -1.10576,-32.043382 4.42047,10.496579 6.07872,22.098149 6.07872,33.147179 6.6307,1.104902 13.26243,1.658216 20.44569,1.105754 0.55256,-9.944117 -0.001,-20.441612 -2.21151,-30.385729 4.42048,9.944117 6.63191,19.889161 7.18446,30.385729 5.5256,-1.104901 11.60283,-2.20986 17.12843,-3.867203 -3.31535,-32.594649 -32.0481,-56.902854 -65.754209,-56.3504 z m 66.306099,61.3214 c -6.07815,1.104891 -11.60217,2.210956 -17.68032,2.763407 0,8.286781 -2.21147,16.573251 -5.52681,23.755121 7.18326,-0.55245 13.81498,-2.2093 20.44568,-4.41911 2.21024,-7.18188 2.76145,-14.36369 2.76145,-21.545562 z m -43.09896,1.105754 c -0.55256,8.286784 -3.31589,17.125144 -7.73636,24.307014 7.18326,1.65736 14.3675,2.21011 22.10333,1.65766 3.31535,-7.73433 5.52617,-16.02165 6.07872,-24.860877 -6.63071,0.552451 -13.81499,0.0011 -20.44569,-1.103797 z"/>
  <path style="fill:#e4fbff" d="M 91.092981,33.009232 C 57.386879,35.219038 31.417467,63.945844 33.075144,98.197835 v 0.553856 c 1.105118,34.251999 29.837889,61.320569 64.09655,60.215649 24.312596,-0.55244 45.309036,-15.46823 54.702536,-37.56628 -6.6307,1.10489 -13.81304,2.21095 -20.44373,2.7634 -5.5256,9.39167 -13.26174,17.12541 -22.65524,22.09747 7.18327,-5.52452 13.26181,-13.25879 17.68228,-21.54557 -7.18326,0 -14.92006,-0.55219 -22.10334,-2.20954 -6.078146,8.28678 -13.814298,14.91639 -22.655235,19.33601 7.183261,-5.52454 13.261141,-12.70746 18.234174,-20.44177 -10.498619,-2.76225 -19.891701,-8.28696 -28.180089,-15.46882 8.840947,6.07697 19.33913,9.9451 29.83775,12.70737 3.86792,-7.73433 6.07934,-16.02221 7.18446,-24.308978 -12.15631,-2.762266 -23.208305,-8.285835 -32.049252,-16.572611 10.498633,6.629412 20.997409,10.497009 32.601152,13.259263 1.10511,-10.496569 0.55192,-21.546803 -1.10576,-32.043382 4.42047,10.496579 6.07872,22.098149 6.07872,33.147179 6.6307,1.104902 13.26243,1.658216 20.44569,1.105754 0.55256,-9.944117 -0.001,-20.441612 -2.21151,-30.385729 4.42048,9.944117 6.63191,19.889161 7.18446,30.385729 5.5256,-1.104901 11.60283,-2.20986 17.12843,-3.867203 -3.31535,-32.594649 -32.0481,-56.902854 -65.754209,-56.3504 z m 66.306099,61.3214 c -6.07815,1.104891 -11.60217,2.210956 -17.68032,2.763407 0,8.286781 -2.21147,16.573251 -5.52681,23.755121 7.18326,-0.55245 13.81498,-2.2093 20.44568,-4.41911 2.21024,-7.18188 2.76145,-14.36369 2.76145,-21.545562 z m -43.09896,1.105754 c -0.55256,8.286784 -3.31589,17.125144 -7.73636,24.307014 7.18326,1.65736 14.3675,2.21011 22.10333,1.65766 3.31535,-7.73433 5.52617,-16.02165 6.07872,-24.860877 -6.63071,0.552451 -13.81499,0.0011 -20.44569,-1.103797 z"/>
  <path style="opacity:0.2;fill:#ffffff" d="M 96 16 A 80 80 0 0 0 16 96 A 80 80 0 0 0 16.019531 96.472656 A 80 80 0 0 1 96 17 A 80 80 0 0 1 175.97461 96.513672 A 80 80 0 0 0 176 96 A 80 80 0 0 0 96 16 z "/>
  <path style="filter:url(#filter2895);opacity:0.2;fill:#000000" d="m 24,61 c -4.432,0 -8,3.568 -8,8 v 29 29 c 0,4.432 3.568,8 8,8 H 53 A 37,37 0 0 0 90,98 37,37 0 0 0 53,61 Z"/>
  <path style="fill:#ffffff" d="M 24 59 C 19.568 59 16 62.568 16 67 L 16 96 L 16 125 C 16 129.432 19.568 133 24 133 L 53 133 A 37 37 0 0 0 90 96 A 37 37 0 0 0 53 59 L 24 59 z "/>
  <circle style="fill:#ffbe00" cx="53" cy="96" r="17"/>
  <path style="fill:#ffbe00;color:#000000" d="m 53,67 a 3,3 0 0 0 -3,3 v 52 a 3,3 0 0 0 3,3 3,3 0 0 0 3,-3 V 70 a 3,3 0 0 0 -3,-3 z"/>
  <path style="fill:#ffbe00;color:#000000" d="M 82,96 A 3,3 0 0 0 79,93 H 27 a 3,3 0 0 0 -3,3 3,3 0 0 0 3,3 h 52 a 3,3 0 0 0 3,-3 z"/>
  <path style="fill:#ffbe00;color:#000000" d="M 78.114737,110.5 A 3,3 0 0 0 77.01666,106.40192 L 31.98334,80.401924 A 3,3 0 0 0 27.885263,81.5 3,3 0 0 0 28.98334,85.598076 L 74.01666,111.59808 A 3,3 0 0 0 78.114737,110.5 Z"/>
  <path style="fill:#ffbe00;color:#000000" d="m 27.885265,110.5 a -3,3 0 0 1 1.098077,-4.09808 L 74.016662,80.401924 A -3,3 0 0 1 78.114739,81.5 -3,3 0 0 1 77.016662,85.598076 L 31.983342,111.59808 A -3,3 0 0 1 27.885265,110.5 Z"/>
  <path style="fill:#ffbe00;color:#000000" d="m 38.500001,121.11474 a 3,3 0 0 1 -1.098078,-4.09808 L 63.401925,71.98334 a 3,3 0 0 1 4.098076,-1.098077 3,3 0 0 1 1.098076,4.098076 L 42.59808,120.01666 a 3,3 0 0 1 -4.098079,1.09808 z"/>
  <path style="fill:#ffbe00;color:#000000" d="m 67.499998,121.11474 a -3,3 0 0 0 1.098078,-4.09808 L 42.598074,71.98334 a -3,3 0 0 0 -4.098076,-1.098077 -3,3 0 0 0 -1.098076,4.098076 l 25.999997,45.033321 a -3,3 0 0 0 4.098079,1.09808 z"/>
</svg>
