<?xml version='1.0' encoding='utf-8'?>
<svg xmlns="http://www.w3.org/2000/svg" width="192" height="192" version="1" id="svg14">
  <defs>
    <filter style="color-interpolation-filters:sRGB" id="filter4769" x="-0.052117789" y="-0.044485255" width="1.1042356" height="1.0889705">
      <feGaussianBlur stdDeviation="2.9656836"/>
    </filter>
    <filter style="color-interpolation-filters:sRGB" id="filter4811" x="-0.075000001" y="-0.075" width="1.15" height="1.15">
      <feGaussianBlur stdDeviation="3.3125"/>
    </filter>
  </defs>
  <path style="filter:url(#filter4769);opacity:0.2;fill:#000000" d="m 99.999641,20 c -44.18278,0 -80,35.81722 -80,80 0,44.18278 35.81722,80 80,80 21.188319,-0.0757 41.481229,-8.55387 56.425779,-23.57422 L 99.999641,100 156.568,43.431641 C 141.56516,28.428708 121.21692,20.000097 99.999641,20 Z"/>
  <path style="fill:#5ab4fd" d="m 99.999641,16 c -44.18278,0 -80,35.81722 -80,80 0,44.18278 35.587264,31.14518 79.770044,31.14518 21.188315,-0.0757 14.004665,29.56181 28.949215,14.54146 L 99.999641,96 156.568,39.431641 C 141.56516,24.428708 121.21692,16.000097 99.999641,16 Z"/>
  <path style="fill:#cc3d31" d="m 19.999641,96 c 0,44.18278 35.81722,80 80,80 21.188319,-0.0757 41.481229,-8.55387 56.425779,-23.57422 L 99.999641,96 Z"/>
  <path style="fill:#e5e5e5" d="M 97.999641,54 V 91.171875 L 71.714485,64.886719 68.88636,67.714844 95.171516,94 H 57.999641 v 4 h 37.171875 l -26.285156,26.28516 2.828125,2.82812 26.285156,-26.28516 V 138 h 3.999999 v -37.17188 l 26.28516,26.28516 2.82812,-2.82812 L 104.82776,98 h 37.17188 V 94 H 104.82776 L 131.11292,67.714844 128.2848,64.886719 101.99964,91.171875 V 54 Z"/>
  <path style="filter:url(#filter4811);opacity:0.2;fill:#000000" d="m 99.999641,45 a 7,7 0 0 0 -7,7 7,7 0 0 0 7,7 7,7 0 0 0 6.999999,-7 7,7 0 0 0 -6.999999,-7 z M 66.97425,58.490234 a 7,7 0 0 0 -4.451171,2.033204 7,7 0 0 0 0,9.898437 7,7 0 0 0 9.898437,0 7,7 0 0 0 0,-9.898437 7,7 0 0 0 -5.447266,-2.033204 z m 65.05273,0 a 7,7 0 0 0 -4.44922,2.033204 7,7 0 0 0 0,9.898437 7,7 0 0 0 9.89844,0 7,7 0 0 0 0,-9.898437 7,7 0 0 0 -5.44922,-2.033204 z M 99.999641,72 a 26,26 0 0 0 -26,26 26,26 0 0 0 26,26 A 26,26 0 0 0 125.99964,98 26,26 0 0 0 99.999641,72 Z m -46,19 a 7,7 0 0 0 -7,7 7,7 0 0 0 7,7 7,7 0 0 0 7,-7 7,7 0 0 0 -7,-7 z m 91.999999,0 a 7,7 0 0 0 -7,7 7,7 0 0 0 7,7 7,7 0 0 0 7,-7 7,7 0 0 0 -7,-7 z m -79.02539,32.54492 a 7,7 0 0 0 -4.451171,2.0332 7,7 0 0 0 0,9.89844 7,7 0 0 0 9.898437,0 7,7 0 0 0 0,-9.89844 7,7 0 0 0 -5.447266,-2.0332 z m 65.05273,0 a 7,7 0 0 0 -4.44922,2.0332 7,7 0 0 0 0,9.89844 7,7 0 0 0 9.89844,0 7,7 0 0 0 0,-9.89844 7,7 0 0 0 -5.44922,-2.0332 z M 99.999641,137 a 7,7 0 0 0 -7,7 7,7 0 0 0 7,7 7,7 0 0 0 6.999999,-7 7,7 0 0 0 -6.999999,-7 z"/>
  <path style="fill:#ffffff" d="m 99.999641,43 a 7,7 0 0 0 -7,7 7,7 0 0 0 7,7 7,7 0 0 0 6.999999,-7 7,7 0 0 0 -6.999999,-7 z M 66.97425,56.490234 a 7,7 0 0 0 -4.451171,2.033204 7,7 0 0 0 0,9.898437 7,7 0 0 0 9.898437,0 7,7 0 0 0 0,-9.898437 7,7 0 0 0 -5.447266,-2.033204 z m 65.05273,0 a 7,7 0 0 0 -4.44922,2.033204 7,7 0 0 0 0,9.898437 7,7 0 0 0 9.89844,0 7,7 0 0 0 0,-9.898437 7,7 0 0 0 -5.44922,-2.033204 z M 99.999641,70 a 26,26 0 0 0 -26,26 26,26 0 0 0 26,26 A 26,26 0 0 0 125.99964,96 26,26 0 0 0 99.999641,70 Z m -46,19 a 7,7 0 0 0 -7,7 7,7 0 0 0 7,7 7,7 0 0 0 7,-7 7,7 0 0 0 -7,-7 z m 91.999999,0 a 7,7 0 0 0 -7,7 7,7 0 0 0 7,7 7,7 0 0 0 7,-7 7,7 0 0 0 -7,-7 z m -79.02539,32.54492 a 7,7 0 0 0 -4.451171,2.0332 7,7 0 0 0 0,9.89844 7,7 0 0 0 9.898437,0 7,7 0 0 0 0,-9.89844 7,7 0 0 0 -5.447266,-2.0332 z m 65.05273,0 a 7,7 0 0 0 -4.44922,2.0332 7,7 0 0 0 0,9.89844 7,7 0 0 0 9.89844,0 7,7 0 0 0 0,-9.89844 7,7 0 0 0 -5.44922,-2.0332 z M 99.999641,135 a 7,7 0 0 0 -7,7 7,7 0 0 0 7,7 7,7 0 0 0 6.999999,-7 7,7 0 0 0 -6.999999,-7 z"/>
  <path style="opacity:0.2;fill:#ffffff" d="m 100,16 c -44.18278,0 -80,35.81722 -80,80 0,0.170901 0.01261,0.322994 0.01367,0.492188 C 20.288319,52.54436 55.987524,17 100,17 c 20.98096,9.6e-5 41.1037,8.25257 56.05664,22.943359 l 0.51172,-0.511718 C 141.56552,24.428708 121.21728,16.000097 100,16 Z"/>
</svg>
