<?xml version='1.0' encoding='utf-8'?>
<svg xmlns="http://www.w3.org/2000/svg" width="192" height="192" version="1.1" id="svg12">
  <defs>
    <filter style="color-interpolation-filters:sRGB" id="filter845" x="0.05" y="0.05" width="1.10" height="1.10">
      <feGaussianBlur stdDeviation="3.20"/>
    </filter>
    <filter style="color-interpolation-filters:sRGB" id="filter849" x="0.04" y="0.05" width="1.09" height="1.11">
      <feGaussianBlur stdDeviation="1.88"/>
    </filter>
  </defs>
  <path style="filter:url(#filter845);opacity:0.20" d="m 96,178 c 44.18,0 80,-35.82 80,-80 0,-44.18 -35.82,-80 -80,-80 -44.18,0 -80,35.82 -80,80 0,44.18 35.82,80 80,80 z"/>
  <path style="fill:#1370ba" d="m 96,174 c 44.18,0 80,-35.82 80,-80 0,-44.18 -35.82,-80 -80,-80 -44.18,0 -80,35.82 -80,80 0,44.18 35.82,80 80,80 z"/>
  <path style="filter:url(#filter849);opacity:0.20" d="m 128,48 c -11.23,0 -20,8.78 -20,20.30 0.00,4.94 8,4.94 8,0 C 116,61.71 119.54,56 128,56 c 8.46,0 12,5.71 12,12.30 0,4.94 8,4.94 8,0 C 148,56.78 139.23,48 128,48 Z m 0,16 c -2.21,0 -4,1.79 -4,4 0,2.21 1.79,4 4,4 2.21,0 4,-1.79 4,-4 0,-2.21 -1.79,-4 -4,-4 z M 96,76 C 90.00,76 82.92,79.70 79.66,84.31 76.39,79.70 70.00,76.59 64,76.59 54.08,76.59 44,82.80 44,99.88 V 128 c 0,0 0,4 4,4 4,0 4,-4 4,-4 V 99.88 C 52.00,86.90 57.87,84 64,84 c 6.13,0 12,4.81 12,13.59 V 128 c 0,0 0,4 4,4 4,0 4,-4 4,-4 V 97.59 C 84,88.81 89.87,84 96,84 c 3.89,0 12.03,1.37 12.03,13.59 l 0.23,10.38 C 108.27,127.15 119.97,132 128,132 c 8.03,0 19.75,-5.66 20,-22.63 V 83.40 c 0,-4.67 -8,-4.67 -8,0 V 108.96 C 140,121.84 132.01,124 128,124 c -4.01,0 -12.05,-1.34 -12.05,-16.43 l 0.23,-9.42 C 115.71,83.60 106.20,76 96,76 Z"/>
  <path style="fill:#ffffff" d="m 128,46 c -11.23,0 -20,8.78 -20,20.30 0.00,4.94 8,4.94 8,0 C 116,59.71 119.54,54 128,54 c 8.46,0 12,5.71 12,12.30 0,4.94 8,4.94 8,0 C 148,54.78 139.23,46 128,46 Z m 0,16 c -2.21,0 -4,1.79 -4,4 0,2.21 1.79,4 4,4 2.21,0 4,-1.79 4,-4 0,-2.21 -1.79,-4 -4,-4 z M 96,74 C 90.00,74 82.92,77.70 79.66,82.31 76.39,77.70 70.00,74.59 64,74.59 54.08,74.59 44,80.80 44,97.88 V 126 c 0,0 0,4 4,4 4,0 4,-4 4,-4 V 97.88 C 52.00,84.90 57.87,82 64,82 c 6.13,0 12,4.81 12,13.59 V 126 c 0,0 0,4 4,4 4,0 4,-4 4,-4 V 95.59 C 84,86.81 89.87,82 96,82 c 3.89,0 12.03,1.37 12.03,13.59 l 0.23,10.38 C 108.27,125.15 119.97,130 128,130 c 8.03,0 19.75,-5.66 20,-22.63 V 81.40 c 0,-4.67 -8,-4.67 -8,0 V 106.96 C 140,119.84 132.01,122 128,122 c -4.01,0 -12.05,-1.34 -12.05,-16.43 l 0.23,-9.42 C 115.71,81.60 106.20,74 96,74 Z"/>
  <path style="opacity:0.20;fill:#ffffff" d="M 96 14 C 51.82 14 16 49.82 16 94 C 16 94.17 16.01 94.34 16.01 94.52 C 16.27 50.56 51.98 15 96 15 C 140.02 15 175.73 50.56 175.99 94.52 C 175.99 94.34 176 94.17 176 94 C 176 49.82 140.18 14 96 14 z "/>
</svg>
