<?xml version='1.0' encoding='utf-8'?>
<svg xmlns="http://www.w3.org/2000/svg" width="192" height="192" version="1" id="svg14">
  <defs>
    <filter style="color-interpolation-filters:sRGB" id="filter850" x="0.05" width="1.10" y="0.05" height="1.10">
      <feGaussianBlur stdDeviation="3.20"/>
    </filter>
    <filter style="color-interpolation-filters:sRGB" id="filter1846" x="0.08" y="0.08" width="1.17" height="1.16">
      <feGaussianBlur stdDeviation="3.58"/>
    </filter>
  </defs>
  <circle style="filter:url(#filter850);opacity:0.20;fill:#000000" cx="96" cy="100" r="80"/>
  <circle r="80" cy="96" cx="96" style="fill:#f0374d"/>
  <path style="filter:url(#filter1846);opacity:0.20;fill:#000000" class="cls-2" d="m 115.47,32.17 -6.27,55.83 C 104.20,84.25 97.80,83.18 91.72,84.65 86.00,86.03 80.89,90.80 81,96.68 c 0.14,7.55 6.93,13.33 14.44,14.14 14.09,1.53 17.73,-6.95 18.29,-9.94 0.75,-2.89 4.22,-35.09 4.22,-35.09 l 1.87,-17.74 c 5.21,0.27 11.08,0.94 15.01,4.38 3.53,3.10 3.99,8.77 2.08,13.07 0.69,2.00 -2.56,4.24 0.68,3.29 3.08,-1.57 5.17,-5.04 5.66,-8.46 0.76,-5.28 -1.83,-10.48 -6.17,-13.58 0.94,0.94 -8.92,-5.69 -10.26,-7.03 -1.87,-1.64 -3.06,-3.93 -3.32,-6.40 z M 94.52,42 A 54.63,55 0 0 0 40,97 h 3.98 A 50.92,51.27 0 0 1 94.52,45.56 H 95 V 42 Z m 1.47,12 A 43.77,44.05 0 0 0 52,97.92 44.68,44.97 0 0 0 96.16,142 44.07,44.35 0 0 0 140,97.92 43.38,43.66 0 0 0 123.18,63.37 l 0.01,0.00 0.58,5.29 a 39.32,39.57 0 1 1 -26.42,-10.38 38.79,39.04 0 0 1 11.94,1.89 l 0.48,-4.35 A 44.42,44.71 0 0 0 95.99,54 Z M 95.82,66 A 32.00,32.00 0 1 0 128,97.94 31.45,31.45 0 0 0 121.21,78.72 v 0.01 l 0.96,8.50 A 26.05,26.05 0 0 1 122.72,98.24 27.31,27.31 0 0 1 95.80,125.14 27.02,27.02 0 0 1 68.88,98.24 27.31,27.31 0 0 1 95.80,71.35 26.07,26.07 0 0 1 106.35,73.58 l 0.62,-5.50 A 30.99,30.99 0 0 0 95.82,66 Z"/>
  <path style="fill:#38adfa" d="m 688.81,257.00 c 0.33,0.33 -1.19,0.37 -1.92,0.08 0.80,0.32 0.56,0.56 0.60,0.60 1.05,0.04 1.64,0.19 1.31,0.53 z"/>
  <path style="opacity:0.20;fill:#ffffff" d="M 96 16 A 80 80 0 0 0 16 96 A 80 80 0 0 0 16.02 96.47 A 80 80 0 0 1 96 17 A 80 80 0 0 1 175.97 96.51 A 80 80 0 0 0 176 96 A 80 80 0 0 0 96 16 z "/>
  <path style="fill:#ffffff" class="cls-2" d="M 115.47 30.17 L 109.20 86.00 C 104.20 82.25 97.80 81.18 91.72 82.65 C 86.00 84.03 80.89 88.80 81 94.68 C 81.14 102.23 87.93 108.01 95.44 108.83 C 109.53 110.36 113.17 101.87 113.73 98.89 C 114.48 96.00 117.95 63.80 117.95 63.80 L 119.82 46.06 C 125.04 45.79 130.90 47.00 134.83 50.45 C 138.36 53.54 138.82 59.22 136.91 63.51 C 136.23 65.51 134.35 67.75 136.24 66.80 C 139.32 65.23 141.40 61.76 141.89 58.33 C 142.65 53.05 140.06 47.86 135.72 44.76 C 134.78 43.82 126.80 39.07 125.46 37.73 C 123.59 36.09 122.40 33.81 122.14 31.33 L 115.47 30.17 z M 94.52 40 A 54.63 55 0 0 0 40 95 L 43.98 95 A 50.92 51.27 0 0 1 94.52 43.56 L 95 43.56 L 95 40 L 94.52 40 z M 95.99 52 A 43.77 44.05 0 0 0 52 95.92 A 44.68 44.97 0 0 0 96.16 140 A 44.07 44.35 0 0 0 140 95.92 A 43.38 43.66 0 0 0 123.18 61.37 L 123.17 61.37 L 122.60 66.66 A 39.32 39.57 0 1 1 96.17 56.29 A 38.79 39.04 0 0 1 108.12 58.18 L 108.60 53.83 A 44.42 44.71 0 0 0 95.99 52 z M 95.82 64 A 32.00 32.00 0 1 0 128 95.94 A 31.45 31.45 0 0 0 121.21 76.72 L 121.21 76.72 L 120.25 85.22 A 26.05 26.05 0 0 1 122.72 96.24 A 27.31 27.31 0 0 1 95.80 123.14 A 27.02 27.02 0 0 1 68.88 96.24 A 27.31 27.31 0 0 1 95.80 69.35 A 26.07 26.07 0 0 1 106.35 71.58 L 106.97 66.08 A 30.99 30.99 0 0 0 95.82 64 z "/>
</svg>
