<?xml version='1.0' encoding='utf-8'?>
<svg xmlns="http://www.w3.org/2000/svg" width="192" height="192" version="1.1" id="svg20">
  <defs>
    <filter style="color-interpolation-filters:sRGB" id="filter869" x="-0.048000001" width="1.096" y="-0.048000001" height="1.096">
      <feGaussianBlur stdDeviation="3.2"/>
    </filter>
    <filter style="color-interpolation-filters:sRGB" id="filter934" x="-0.036000001" width="1.072" y="-0.072000003" height="1.144">
      <feGaussianBlur stdDeviation="2.4"/>
    </filter>
    <filter style="color-interpolation-filters:sRGB" id="filter961" x="-0.03894861" width="1.0778972" y="-0.062532003" height="1.125064">
      <feGaussianBlur stdDeviation="1.6154101"/>
    </filter>
  </defs>
  <rect style="filter:url(#filter869);opacity:0.2" width="160" height="160" x="16" y="20" rx="8" ry="8"/>
  <rect style="fill:#c2c2c2" width="160" height="160" x="16" y="16" rx="8" ry="8"/>
  <path style="filter:url(#filter934);opacity:0.2;fill:#000000" d="m 16,96 v 72 c 0,4.432 3.568,8 8,8 h 144 c 4.432,0 8,-3.568 8,-8 V 96 h -69.64453 l 42.32617,62 H 119.62109 L 77.519531,96.324219 87.021484,158 H 58.693359 L 49.140625,96 Z"/>
  <path style="fill:#e4e4e4" d="m 16,96 v 72 c 0,4.432 3.568,8 8,8 h 144 c 4.432,0 8,-3.568 8,-8 V 96 h -69.64453 l 42.32617,62 H 119.62109 L 77.519531,96.324219 87.021484,158 H 58.693359 L 49.140625,96 Z"/>
  <path style="opacity:0.2;fill:#ffffff" d="m 24,16 c -4.432,0 -8,3.568 -8,8 v 1 c 0,-4.432 3.568,-8 8,-8 h 144 c 4.432,0 8,3.568 8,8 v -1 c 0,-4.432 -3.568,-8 -8,-8 z"/>
  <path style="filter:url(#filter961);opacity:0.2;fill:#000000;color:#000000;font-stretch:normal;font-variant-ligatures:normal;font-variant-position:normal;font-variant-caps:normal;font-variant-numeric:normal;font-variant-alternates:normal;font-feature-settings:normal;text-indent:0;text-align:start;text-decoration-line:none;text-decoration-style:solid;text-decoration-color:#000000;text-transform:none;writing-mode:lr-tb;direction:ltr;text-orientation:mixed;dominant-baseline:auto;baseline-shift:baseline;white-space:normal;shape-padding:0;clip-rule:nonzero;display:inline;overflow:visible;visibility:visible;isolation:auto;mix-blend-mode:normal;color-interpolation:sRGB;color-interpolation-filters:linearRGB;solid-color:#000000;solid-opacity:1;vector-effect:none;fill-rule:nonzero;color-rendering:auto;image-rendering:auto;shape-rendering:auto;text-rendering:auto;enable-background:accumulate" d="m 58.693359,36 -9.552734,62 h 28.15625 0.171875 28.88672 L 148.68164,36 H 119.62109 L 77.519531,97.675781 87.021484,36 Z"/>
  <path style="fill:#e4e4e4;color:#000000;font-stretch:normal;font-variant-ligatures:normal;font-variant-position:normal;font-variant-caps:normal;font-variant-numeric:normal;font-variant-alternates:normal;font-feature-settings:normal;text-indent:0;text-align:start;text-decoration-line:none;text-decoration-style:solid;text-decoration-color:#000000;text-transform:none;writing-mode:lr-tb;direction:ltr;text-orientation:mixed;dominant-baseline:auto;baseline-shift:baseline;white-space:normal;shape-padding:0;clip-rule:nonzero;display:inline;overflow:visible;visibility:visible;isolation:auto;mix-blend-mode:normal;color-interpolation:sRGB;color-interpolation-filters:linearRGB;solid-color:#000000;solid-opacity:1;vector-effect:none;fill-rule:nonzero;color-rendering:auto;image-rendering:auto;shape-rendering:auto;text-rendering:auto;enable-background:accumulate" d="M 58.693359,34 49.140625,96 H 77.46875 l 9.552734,-62 z"/>
  <path style="fill:#e4e4e4;color:#000000;font-stretch:normal;font-variant-ligatures:normal;font-variant-position:normal;font-variant-caps:normal;font-variant-numeric:normal;font-variant-alternates:normal;font-feature-settings:normal;text-indent:0;text-align:start;text-decoration-line:none;text-decoration-style:solid;text-decoration-color:#000000;text-transform:none;writing-mode:lr-tb;direction:ltr;text-orientation:mixed;dominant-baseline:auto;baseline-shift:baseline;white-space:normal;shape-padding:0;clip-rule:nonzero;display:inline;overflow:visible;visibility:visible;isolation:auto;mix-blend-mode:normal;color-interpolation:sRGB;color-interpolation-filters:linearRGB;solid-color:#000000;solid-opacity:1;vector-effect:none;fill-rule:nonzero;color-rendering:auto;image-rendering:auto;shape-rendering:auto;text-rendering:auto;enable-background:accumulate" d="M 119.62109,34 77.296875,96 h 29.058595 l 42.32617,-62 z"/>
</svg>
