<?xml version='1.0' encoding='utf-8'?>
<svg xmlns="http://www.w3.org/2000/svg" width="192" height="192" version="1.1" id="svg16">
  <defs>
    <filter style="color-interpolation-filters:sRGB" id="filter853" x="0.05" y="0.05" width="1.10" height="1.10">
      <feGaussianBlur stdDeviation="3.20"/>
    </filter>
    <filter style="color-interpolation-filters:sRGB" id="filter857" x="0.04" y="0.06" width="1.08" height="1.12">
      <feGaussianBlur stdDeviation="2.08"/>
    </filter>
  </defs>
  <rect style="filter:url(#filter853);opacity:0.20" width="160" height="160" x="16" y="20" rx="16" ry="16"/>
  <rect style="fill:#3e4753" width="160" height="160" x="16" y="16" rx="16" ry="16"/>
  <path style="opacity:0.10;fill:#ffffff" d="M 32 16 C 23.14 16 16 23.14 16 32 L 16 33 C 16 24.14 23.14 17 32 17 L 160 17 C 168.86 17 176 24.14 176 33 L 176 32 C 176 23.14 168.86 16 160 16 L 32 16 z "/>
  <path style="filter:url(#filter857);opacity:0.20" d="m 60,58 v 12 h 20 v 4 H 60 48 v 12 8 H 44 V 74 h -4 v 4 h -8 v 24 h 4 v 24 h 8 v -20 h 4 v 20 h 8 4 6 l 16,12 h 36 14 v -8 h 4 v 8 h 16.48 L 160,130.48 V 95.52 L 150.48,86 h -7.73 c 0.24,0.49 0.49,0.89 0.70,1.18 0.68,0.92 -1.21,1.40 -1.94,2.10 -1.41,1.40 -2.81,2.73 -4.20,4.03 C 135.53,93.67 136,102 136,102 h -4 c 0,0 0.44,-5.48 0.28,-4.81 -2.65,2.46 -5.28,4.97 -7.91,7.83 0.15,0.36 0.40,0.68 0.62,0.98 H 144 v -8 h 1.52 L 148,100.48 v 25.03 L 147.52,126 H 144 v -8 h -20 v 8 H 118 86 L 70,114 H 60 V 86 H 92.85 C 93.59,84.68 94.16,84.16 95.11,83.13 96.38,81.76 100.85,77.27 104,74.08 V 74 H 92 v -4 h 16 V 58 Z m 68.30,0 -13.54,13.68 c -17.85,18.03 -17.27,17.40 -16.74,18.02 0.34,0.40 1.30,0.51 4.59,0.51 4.39,0.00 7.74,0.28 7.74,0.64 0,0.29 -5.41,7.78 -9.45,11.96 l -3.23,3.34 -2.77,0.08 c -4.03,0.12 -4.30,0.04 -6.04,3.67 -1.87,3.91 -4.47,9.90 -4.75,11.29 0.21,1.04 0.21,1.05 0.95,0.87 1.27,0.20 18.72,-6.38 28.09,-11.18 4.36,-2.23 5.81,-3.13 5.81,-3.60 0,0.46 0.33,0.67 -1.30,0.83 -2.83,0.45 -2.50,-2.29 11,-14.65 7.53,-6.89 9.02,-8.07 8.78,-8.68 0.17,0.43 0.82,0.54 -3.38,0.56 -1.75,0.02 -4.45,0.13 -6.02,0.25 l -2.84,0.22 5.92,-6.12 C 133.72,73.33 138.58,68.76 141.92,65.66 145.39,62.45 148,59.77 148,59.43 c 0,0.35 0.33,0.68 0.77,0.78 0.42,0.10 -4.85,0.28 -9.84,0.41 z"/>
  <path style="fill:#ffffff" d="m 60,56 v 12 h 20 v 4 H 60 48 v 12 8 H 44 V 72 h -4 v 4 h -8 v 24 h 4 v 24 h 8 v -20 h 4 v 20 h 8 4 6 l 16,12 h 36 14 v -8 h 4 v 8 h 16.48 L 160,128.48 V 93.52 L 150.48,84 h -7.73 c 0.24,0.49 0.49,0.89 0.70,1.18 0.68,0.92 -1.21,1.40 -1.94,2.10 -1.41,1.40 -2.81,2.73 -4.20,4.03 C 135.53,91.67 136,100 136,100 h -4 c 0,0 0.44,-5.48 0.28,-4.81 -2.65,2.46 -5.28,4.97 -7.91,7.83 0.15,0.36 0.40,0.68 0.62,0.98 H 144 v -8 h 1.52 L 148,98.48 V 123.52 L 147.52,124 H 144 v -8 h -20 v 8 H 118 86 L 70,112 H 60 V 84 H 92.85 C 93.59,82.68 94.16,82.16 95.11,81.13 96.38,79.76 100.85,75.27 104,72.08 V 72 H 92 v -4 h 16 V 56 Z"/>
  <path style="fill:#ff6600" d="m 84.11,119.04 c 0.28,-1.39 2.89,-7.38 4.75,-11.29 1.73,-3.63 2.00,-3.80 6.03,-3.68 l 2.77,0.08 3.24,-3.35 c 4.04,-4.18 9.45,-11.67 9.45,-11.96 0,0.36 -3.35,0.64 -7.74,0.64 -3.28,0.00 -4.24,0.11 -4.58,0.51 0.53,0.62 -1.11,0.01 16.74,-18.02 l 13.54,-13.68 9.08,0.24 c 4.99,0.13 9.42,0.32 9.85,0.41 0.44,0.10 0.77,0.43 0.77,0.78 0,0.34 -2.60,3.01 -6.08,6.23 -3.34,3.10 -8.20,7.67 -10.80,10.15 l -5.92,6.12 2.84,0.22 c 1.56,0.12 4.27,0.23 6.02,0.25 2.56,0.03 3.22,0.14 3.39,0.56 0.24,0.61 -1.26,1.78 -8.78,8.68 -13.50,12.36 -13.83,14.20 -11.00,14.65 0.97,0.15 1.30,0.37 1.30,0.83 0,0.47 -1.46,1.37 -5.82,3.60 -9.38,4.80 -26.82,10.98 -28.09,11.18 -1.15,0.19 -1.16,0.18 0.95,0.87 z"/>
  <path style="opacity:0.20;fill:#ffffff" d="M 128.31 56 L 114.77 69.68 C 96.92 87.71 97.50 87.08 98.03 87.70 C 98.06 87.74 98.11 87.77 98.15 87.81 C 99.02 86.57 102.52 83.04 114.77 70.68 L 128.31 57 L 137.38 57.24 C 142.37 57.37 146.81 57.55 147.23 57.65 C 147.42 57.69 147.57 57.78 147.70 57.89 C 147.88 57.67 148 57.50 148 57.43 C 148 57.08 147.67 56.75 147.23 56.65 C 146.81 56.55 142.37 56.37 137.38 56.24 L 128.31 56 z M 126.10 80.00 L 125.20 80.94 L 128.04 81.15 C 129.61 81.27 132.32 81.39 134.06 81.40 C 135.93 81.42 136.78 81.49 137.17 81.69 C 137.43 81.35 137.51 81.13 137.45 80.97 C 137.28 80.54 136.63 80.43 134.06 80.40 C 132.32 80.39 129.61 80.27 128.04 80.15 L 126.10 80.00 z M 109.87 89.63 C 108.50 91.65 104.26 97.34 100.90 100.81 L 97.66 104.16 L 94.89 104.07 C 90.86 103.96 90.60 104.12 88.86 107.75 C 87.00 111.66 84.39 117.65 84.11 119.04 C 83.99 119.63 83.95 119.88 84.13 119.96 C 84.47 118.47 87.02 112.61 88.86 108.75 C 90.60 105.12 90.86 104.96 94.89 105.07 L 97.66 105.16 L 100.90 101.81 C 104.94 97.63 110.35 90.14 110.35 89.85 C 110.35 89.77 110.17 89.70 109.87 89.63 z M 116.36 103.67 C 115.97 104.75 116.58 105.12 117.66 105.29 C 118.13 105.37 118.44 105.46 118.65 105.58 C 118.86 105.39 118.96 105.24 118.96 105.12 C 118.96 104.66 118.63 104.45 117.66 104.29 C 117.03 104.19 116.57 104.01 116.36 103.67 z "/>
</svg>
