<?xml version='1.0' encoding='utf-8'?>
<svg xmlns="http://www.w3.org/2000/svg" width="192" height="192" version="1" id="svg14">
  <defs>
    <filter style="color-interpolation-filters:sRGB" id="filter850" x="0.05" width="1.10" y="0.05" height="1.10">
      <feGaussianBlur stdDeviation="3.20"/>
    </filter>
    <filter style="color-interpolation-filters:sRGB" id="filter15814" x="0.11" y="0.12" width="1.21" height="1.24">
      <feGaussianBlur stdDeviation="5.12"/>
    </filter>
  </defs>
  <circle style="filter:url(#filter850);opacity:0.20;fill:#000000" cx="96" cy="100" r="80"/>
  <circle r="80" cy="96" cx="96" style="fill:#36d3cc"/>
  <path style="opacity:0.10;fill:#000000" d="m 96,39 c -31.48,0 -57,25.52 -57,57 0,31.48 25.52,57 57,57 31.48,0 57,-25.52 57,-57 0,-31.48 -25.52,-57 -57,-57 z m -4.17,7.77 c 0.16,0.00 0.32,0.01 0.46,0.02 2.44,0.19 3.42,4.96 2.11,7.03 -1.09,1.72 -4.19,0.07 -6.06,0.90 -2.21,0.98 -3.24,4.12 -5.61,4.61 -3.07,0.63 -5.91,-2.95 -9.03,-2.63 -2.48,0.25 -4.21,4.17 -6.60,3.50 -1.10,0.31 -2.54,-2.15 -1.74,-2.97 5.94,-6.09 21.37,-10.50 26.47,-10.45 z m 26.23,7.76 c 1.37,0.03 2.73,0.26 4.02,0.67 7.38,2.34 12.50,8.80 16.07,15.68 4.98,9.60 9.06,23.50 7.71,31.25 0.21,1.21 -2.63,0.39 -3.43,-1.32 0.92,-1.06 0.12,-2.97 0.93,-4.12 -1.40,-1.99 -6.93,-2.85 -6.83,-5.29 0.14,-3.34 -3.25,-9.39 -8.79,-7.00 -12.35,5.32 2.73,7.52 5.64,10.01 1.81,1.55 -2.79,3.88 -4.08,5.88 0.91,1.41 -1.09,3.53 -2.57,4.32 -1.15,0.61 -2.75,0.86 -3.90,0.24 -1.42,0.76 1.77,5.56 -2.41,4.19 C 99.21,102.24 91.16,87.61 79.00,74.94 74.96,74.22 92.72,71.34 103.28,67.21 c 4.68,-1.83 3.97,-8.48 8.28,-11.06 1.93,-1.16 4.22,-1.66 6.50,-1.61 z"/>
  <path style="opacity:0.20;fill:#ffffff" d="M 96 16 A 80 80 0 0 0 16 96 A 80 80 0 0 0 16.02 96.47 A 80 80 0 0 1 96 17 A 80 80 0 0 1 175.97 96.51 A 80 80 0 0 0 176 96 A 80 80 0 0 0 96 16 z "/>
  <path style="fill:#38adfa" d="m 688.81,257.00 c 0.33,0.33 -1.19,0.37 -1.92,0.08 0.80,0.32 0.56,0.56 0.60,0.60 1.05,0.04 1.64,0.19 1.31,0.53 z"/>
  <path style="filter:url(#filter15814);opacity:0.20;fill:#000000" d="m 146.65,65.97 c -7.51,0.02 -11.00,0.39 -17.79,1.90 -7.44,1.65 -16.64,4.79 -22.65,8.17 -6.26,3.52 -6.27,3.52 -8.88,3.51 -2.89,0.02 -3.68,0.29 -7.71,-2.60 -6.05,-3.46 -11.12,-4.89 -17.38,-4.90 -2.00,0.00 -4.83,0.20 -6.30,0.46 -10.20,1.78 -19.45,8.75 -24.10,18.14 -2.38,4.79 -3.85,9.97 -3.84,15.12 0.02,7.25 2.69,14.43 7.25,20.35 1.13,1.46 2.46,3.21 2.98,3.88 1.98,2.60 2.33,6.00 1.07,10.21 -1.92,6.38 3.34,11.38 3.35,18.36 14.09,11.21 25.77,7.65 43.77,7.71 21.02,0.08 32.30,1.46 47.21,-13.35 -2.80,-14.72 0.58,-25.09 -10.25,-34.81 -6.68,-6.71 -13.53,-11.03 -22.04,-13.92 -1.45,0.49 -3.16,-1.24 -3.79,-1.66 -1.55,-1.03 -2.79,-3.53 -2.79,-5.65 0,-3.06 1.29,-4.50 9.58,-10.73 10.86,-8.15 22.83,-13.97 35.57,-17.86 3.09,0.95 3.75,-1.25 3.75,-1.75 0,0.58 0.30,0.60 -7.03,0.58 z M 79,91 c 2.21,0 4,1.79 4,4 0,2.21 -1.79,4 -4,4 -2.21,0 -4,-1.79 -4,-4 0,-2.21 1.79,-4 4,-4 z"/>
  <path style="fill:#ffffff" d="M 146.65 63.97 C 139.14 63.99 135.66 64.37 128.86 65.88 C 121.42 67.53 112.22 70.67 106.21 74.04 C 99.95 77.56 99.94 77.56 97.33 77.55 C 94.44 77.53 93.65 77.25 89.62 74.95 C 83.58 71.49 78.50 70.06 72.24 70.05 C 70.24 70.05 67.41 70.26 65.94 70.51 C 55.74 72.29 46.49 79.26 41.84 88.66 C 39.46 93.45 37.99 98.63 38 103.78 C 38.02 111.02 40.69 118.20 45.25 124.12 C 46.38 125.59 47.72 127.33 48.23 128.00 C 50.21 130.60 50.56 134.01 49.30 138.21 C 47.38 144.59 46.45 151.62 46.46 158.59 C 60.54 169.80 78.00 175.94 96 176 C 117.02 175.92 137.16 167.58 152.08 152.77 C 149.28 138.05 143.06 125.84 133.39 116.13 C 126.71 109.42 119.86 105.10 111.35 102.21 C 109.90 101.71 108.19 100.97 107.56 100.55 C 106.01 99.52 104.78 97.02 104.78 94.89 C 104.78 91.84 106.06 90.40 114.36 84.17 C 125.22 76.01 137.19 70.20 149.93 66.30 C 153.03 65.36 153.68 65.05 153.68 64.56 C 153.68 63.98 153.39 63.96 146.65 63.97 z M 79 89 A 4 4 0 0 1 83 93 A 4 4 0 0 1 79 97 A 4 4 0 0 1 75 93 A 4 4 0 0 1 79 89 z "/>
</svg>
