<?xml version='1.0' encoding='utf-8'?>
<svg xmlns="http://www.w3.org/2000/svg" width="192" height="192" version="1" id="svg22">
  <defs>
    <filter style="color-interpolation-filters:sRGB" id="filter856" x="0.05" width="1.09" y="0.05" height="1.10">
      <feGaussianBlur stdDeviation="2.76"/>
    </filter>
    <filter style="color-interpolation-filters:sRGB" id="filter872" x="0.05" width="1.09" y="0.05" height="1.10">
      <feGaussianBlur stdDeviation="2.76"/>
    </filter>
    <filter style="color-interpolation-filters:sRGB" id="filter896" x="0.05" width="1.10" y="0.04" height="1.09">
      <feGaussianBlur stdDeviation="1.04"/>
    </filter>
  </defs>
  <path d="M 160.40,52.57 146.08,66.89 C 152.34,76.37 156,87.74 156,100.00 c 0,33.24 -26.76,60 -60,60 -12.26,0 -23.63,-3.66 -33.11,-9.92 l -6.23,6.23 -8.09,8.09 -18.28,18.28 40.63,-6.69 0.02,0.02 c 7.87,2.60 16.28,4.03 25.05,4.03 44.32,0 80,-35.68 80,-80 0,-17.81 -5.83,-34.17 -15.60,-47.43 z" style="filter:url(#filter856);opacity:0.20"/>
  <rect transform="matrix(0,-1,-1,0,0,0)" ry="68" rx="68" y="-164" x="-164" height="136" width="136" style="fill:#3c3c69"/>
  <path d="m 161.71,17.32 -40.61,6.66 0.05,0.05 C 113.18,21.43 104.77,20.00 96,20.00 c -44.32,0 -80,35.68 -80,80.00 0,17.81 5.83,34.17 15.60,47.43 L 45.92,133.11 C 39.66,123.63 36,112.26 36,100.00 36,66.76 62.76,40.00 96,40.00 c 12.26,0 23.63,3.66 33.11,9.92 l 3.19,-3.19 z" style="filter:url(#filter872);opacity:0.20"/>
  <path d="m 161.71,13.32 -40.61,6.66 0.05,0.05 C 113.18,17.43 104.77,16 96,16 51.68,16 16,51.68 16,96 c 0,17.81 5.83,34.17 15.60,47.43 L 45.92,129.11 C 39.66,119.63 36,108.26 36,96 36,62.76 62.76,36 96,36 c 12.26,0 23.63,3.66 33.11,9.92 l 3.19,-3.19 z" style="fill:#ffdd33"/>
  <path d="M 160.40,48.57 146.08,62.89 C 152.34,72.37 156,83.74 156,96 c 0,33.24 -26.76,60 -60,60 -12.26,0 -23.63,-3.66 -33.11,-9.92 l -6.23,6.23 -8.09,8.09 -18.28,18.28 40.63,-6.69 0.02,0.02 C 78.82,174.57 87.23,176 96,176 c 44.32,0 80,-35.68 80,-80 0,-17.81 -5.83,-34.17 -15.60,-47.43 z" style="fill:#ffb525"/>
  <path d="M 82.06,70.00 A 5.92,6.18 0 0 0 76,76.18 v 43.64 a 5.92,6.18 0 0 0 8.87,5.35 l 18.10,-10.90 18.09,-10.92 a 5.92,6.18 0 0 0 0,-10.69 L 102.97,81.74 84.87,70.84 a 5.92,6.18 0 0 0 -2.81,0.84 z" style="filter:url(#filter896);opacity:0.20"/>
  <path d="M 82.06,68.00 A 5.92,6.18 0 0 0 76,74.18 v 43.64 a 5.92,6.18 0 0 0 8.87,5.35 l 18.10,-10.90 18.09,-10.92 a 5.92,6.18 0 0 0 0,-10.69 L 102.97,79.74 84.87,68.84 a 5.92,6.18 0 0 0 -2.81,0.84 z" style="fill:#ffffff"/>
  <path style="opacity:0.20;fill:#ffffff" d="M 161.71 13.32 L 121.10 19.98 L 121.05 20.03 C 113.19 17.43 104.77 16 96 16 C 51.68 16 16 51.68 16 96 C 16 96.12 16.01 96.25 16.01 96.37 C 16.34 52.34 51.89 17 96 17 C 104.77 17 113.19 18.43 121.05 21.03 L 121.10 20.98 L 160.51 14.52 L 161.71 13.32 z M 160.40 48.57 L 146.08 62.89 C 146.21 63.09 146.34 63.30 146.47 63.50 L 160.40 49.57 C 170.10 62.74 175.91 78.96 175.99 96.63 C 175.99 96.42 176 96.21 176 96 C 176 78.19 170.17 61.83 160.40 48.57 z M 155.99 96.43 C 155.76 129.47 129.10 156 96 156 C 83.74 156 72.37 152.34 62.89 146.08 L 56.66 152.30 L 48.57 160.40 L 30.29 178.68 L 31.49 178.48 L 48.57 161.40 L 56.66 153.30 L 62.89 147.08 C 72.37 153.34 83.74 157 96 157 C 129.24 157 156 130.24 156 97 C 156 96.81 155.99 96.62 155.99 96.43 z M 36.01 96.57 C 36.01 96.72 36 96.86 36 97 C 36 109.00 39.51 120.14 45.53 129.50 L 45.92 129.11 C 39.76 119.78 36.12 108.62 36.01 96.57 z "/>
</svg>
