<?xml version='1.0' encoding='utf-8'?>
<svg xmlns="http://www.w3.org/2000/svg" width="192" height="192" version="1" id="svg28">
  <rect transform="matrix(0,-1,-1,0,0,0)" ry="10.5" rx="10.5" y="-166" x="-166" height="140" width="140" style="fill:#3981eb"/>
  <path style="opacity:0.2;fill:#ffffff" d="M 36.5,26 C 30.683,26 26,30.683 26,36.5 v 1 C 26,31.683 30.683,27 36.5,27 h 119 c 5.817,0 10.5,4.683 10.5,10.5 v -1 C 166,30.683 161.317,26 155.5,26 Z"/>
  <path style="filter:url(#filter5109);opacity:0.2;fill:#000000;stop-color:#000000" d="m 145,20 a 31,31 0 0 0 -31,31 31,31 0 0 0 31,31 31,31 0 0 0 31,-31 31,31 0 0 0 -31,-31 z m -49,86.07617 c -20.322131,0 -84,9.54204 -84,43.92383 v 14.70508 C 12,173.17845 19.053103,180 27.814453,180 H 96 164.18555 C 172.9469,180 180,173.17845 180,164.70508 V 150 c 0,-34.38179 -63.67787,-43.92383 -84,-43.92383 z"/>
  <path style="fill:#1ecc56;stop-color:#000000" d="m 96,102.07617 c -20.322131,0 -84,9.54204 -84,43.92383 v 14.70508 C 12,169.17845 19.053103,176 27.814453,176 H 96 164.18555 C 172.9469,176 180,169.17845 180,160.70508 V 146 c 0,-34.38179 -63.67787,-43.92383 -84,-43.92383 z"/>
  <path style="opacity:0.2;fill:#ffffff;stop-color:#000000" d="m 96,102.07617 c -20.322131,0 -84,9.54204 -84,43.92383 v 1 c 0,-34.38179 63.677869,-43.92383 84,-43.92383 20.32213,0 84,9.54204 84,43.92383 v -1 c 0,-34.38179 -63.67787,-43.92383 -84,-43.92383 z"/>
  <path style="fill:#dfdfdf;color:#000000" d="M 96.271484,86.046875 A 7,7 0 0 0 91.3125,88.076172 L 58.072266,121.0293 a 7,7 0 0 0 -0.04297,9.89843 7,7 0 0 0 9.898437,0.043 L 101.16992,98.017578 a 7,7 0 0 0 0.043,-9.898437 7,7 0 0 0 -4.941406,-2.072266 z"/>
  <path style="filter:url(#filter5060);opacity:0.2;fill:#000000;color:#000000" d="M 128.33398,93.527068 60.333984,121.52706 a 7,7 0 0 0 -3.80664,9.13868 7,7 0 0 0 9.138672,3.80664 l 68.000004,-28 a 7,7 0 0 0 3.80664,-9.138672 7,7 0 0 0 -9.13868,-3.80664 z"/>
  <path style="fill:#f2f2f2;color:#000000" d="M 128.33398,91.527344 60.333984,119.52734 a 7,7 0 0 0 -3.80664,9.13868 7,7 0 0 0 9.138672,3.80664 l 68.000004,-28 a 7,7 0 0 0 3.80664,-9.138676 7,7 0 0 0 -9.13868,-3.80664 z"/>
  <circle style="fill:#fec735;stop-color:#000000" cx="145" cy="47" r="31"/>
  <path style="filter:url(#filter5064);opacity:0.2;fill:#000000;color:#000000" d="m 63,53.999724 a 7,7 0 0 0 -4.949219,2.050781 7,7 0 0 0 0,9.898438 l 66.999999,66.999997 a 7,7 0 0 0 9.89844,0 7,7 0 0 0 0,-9.89844 L 67.949219,56.050505 A 7,7 0 0 0 63,53.999724 Z"/>
  <path style="fill:#ffffff;color:#000000" d="m 63,52 a 7,7 0 0 0 -4.949219,2.050781 7,7 0 0 0 0,9.898438 l 66.999999,67.000001 a 7,7 0 0 0 9.89844,0 7,7 0 0 0 0,-9.89844 L 67.949219,54.050781 A 7,7 0 0 0 63,52 Z"/>
  <path style="opacity:0.2;fill:#ffffff;stop-color:#000000" d="m 145,16 a 31,31 0 0 0 -31,31 31,31 0 0 0 0.0352,0.5 A 31,31 0 0 1 145,17 31,31 0 0 1 175.98242,47.253906 31,31 0 0 0 176,47 31,31 0 0 0 145,16 Z"/>
  <defs>
    <filter style="color-interpolation-filters:sRGB" id="filter5060" x="-0.036292439" y="-0.070856221" width="1.0725849" height="1.1417124">
      <feGaussianBlur stdDeviation="1.24"/>
    </filter>
    <filter style="color-interpolation-filters:sRGB" id="filter5064" x="-0.048001562" y="-0.048000938" width="1.0960031" height="1.0960019">
      <feGaussianBlur stdDeviation="1.6200105"/>
    </filter>
    <filter style="color-interpolation-filters:sRGB" id="filter5109" x="-0.046857142" y="-0.0492" width="1.0937143" height="1.0984">
      <feGaussianBlur stdDeviation="3.28"/>
    </filter>
  </defs>
</svg>
