<?xml version='1.0' encoding='utf-8'?>
<svg xmlns="http://www.w3.org/2000/svg" width="192" height="192" version="1" id="svg12">
  <defs>
    <filter style="color-interpolation-filters:sRGB" id="filter963" x="0.05" y="0.05" width="1.10" height="1.10">
      <feGaussianBlur stdDeviation="3.20"/>
    </filter>
    <filter style="color-interpolation-filters:sRGB" id="filter967" x="0.05" y="0.05" width="1.09" height="1.10">
      <feGaussianBlur stdDeviation="2.56"/>
    </filter>
  </defs>
  <rect fill="#e73c4f" width="160" height="160" x="16" y="20" rx="64" ry="64" style="filter:url(#filter963);opacity:0.20;fill:#000000"/>
  <rect fill="#e73c4f" width="160" height="160" x="16" y="16" rx="64" ry="64"/>
  <path opacity="0.20" d="m 96,20.00 0.08,61.92 0.09,61.93 h 19.38 l 0.05,-16.29 c 0.04,-12.89 0.08,-16.27 0.25,-16.21 0.12,0.04 3.28,4.98 7.02,10.97 3.75,5.99 7.28,11.56 7.86,12.39 1.19,1.72 3.53,4.09 5.05,5.12 3.18,2.14 6.50,3.25 11.62,3.86 2.74,0.33 12.01,0.44 12.30,0.15 0.12,0.13 0.17,-3.07 0.14,-9.34 l 0.05,-9.15 -3.43,0.11 c -3.88,0.13 -4.72,0.29 -6.93,-1.39 -1.72,0.86 -3.72,-2.70 -5.20,-4.80 0.53,0.75 -3.17,-4.96 -5.88,-9.35 -4.78,-7.74 -4.92,-7.99 -4.66,-8.39 0.15,0.23 6.11,-8.68 13.24,-18.77 7.13,-10.09 13.01,-18.46 13.06,-18.59 0.08,0.20 -1.75,0.24 -11.49,0.24 h -11.59 L 126.47,78.47 c -5.75,8.13 -10.54,14.81 -10.65,14.84 0.22,0.08 0.26,-62.99 0.08,-73.08 -1.54,0.11 -3.08,0.23 -4.65,0.23 H 96.00 Z m -35.60,44 c -2.49,0.02 -4.92,0.12 -6.09,0.31 -9.61,1.57 -16.41,5.99 -20.09,13.09 -1.17,2.25 -1.88,4.42 -2.34,7.06 0.30,1.76 0.33,2.51 0.25,5.38 0.06,2.34 0.19,3.81 0.42,4.95 1.61,7.80 6.22,12.75 14.25,15.33 2.59,0.83 4.21,1.15 11.15,2.14 3.85,0.55 6.79,1.05 7.41,1.27 2.65,0.93 3.90,2.61 4.12,5.55 0.28,3.63 -1.79,6.12 -5.95,7.15 -1.67,0.41 -4.71,0.64 -6.86,0.52 -7.05,0.40 -11.65,-1.89 -15.63,-5.07 l 0.47,0.38 -6.04,6.05 c -3.32,3.33 -6.04,6.19 -6.04,6.35 0,0.41 2.79,2.81 4.92,4.25 5.39,3.63 11.12,5.33 20.19,6.01 1.91,0.14 8.93,0.06 10.55,0.30 12.20,-1.83 20.63,-8.10 23.39,-17.41 1.28,-4.33 1.26,-10.86 0.06,-15.71 0.97,-3.56 -2.23,-5.79 -4.68,-8.27 -2.56,-2.58 -4.76,-3.91 -8.62,-5.20 -2.61,0.87 -4.79,-1.30 -11.74,-2.27 -7.41,-1.04 -8.29,-1.30 -9.98,-2.88 -1.92,-1.80 -2.25,-4.18 0.97,-6.80 0.91,-1.85 2.77,-3.19 5.44,-3.92 1.39,0.38 6.97,0.42 9.20,0.07 2.99,0.47 5.79,1.64 7.78,3.26 0.58,0.47 1.16,0.86 1.28,0.86 0.33,0 11.88,-11.64 11.88,-11.97 0,0.39 -2.24,-2.29 -4.41,-3.74 -4.18,-2.81 -9.15,-4.53 -15.34,-5.30 -1.38,0.17 -3.93,0.24 -6.42,0.23 z" style="filter:url(#filter967)"/>
  <path fill="#ffffff" d="m 96,16 0.08,61.92 0.09,61.93 h 19.38 l 0.05,-16.29 c 0.04,-12.89 0.08,-16.27 0.25,-16.21 0.12,0.04 3.28,4.98 7.02,10.97 3.75,5.99 7.28,11.56 7.86,12.39 1.19,1.72 3.53,4.09 5.05,5.12 3.18,2.14 6.50,3.25 11.62,3.86 2.74,0.33 12.01,0.44 12.30,0.15 0.12,0.13 0.17,-3.07 0.14,-9.34 l 0.05,-9.15 -3.43,0.11 c -3.88,0.13 -4.72,0.29 -6.93,-1.39 -1.72,0.85 -3.72,-2.70 -5.20,-4.80 0.53,0.75 -3.18,-4.96 -5.88,-9.35 -4.78,-7.74 -4.92,-7.99 -4.66,-8.39 0.15,0.23 6.11,-8.68 13.24,-18.77 7.14,-10.10 13.02,-18.46 13.06,-18.60 0.08,0.20 -1.75,0.24 -11.49,0.24 h -11.59 L 126.48,74.47 c -5.75,8.13 -10.54,14.81 -10.65,14.84 0.22,0.08 0.26,-62.99 0.08,-73.07 -1.54,0.12 -3.08,0.24 -4.65,0.24 h -15.10 z M 60.40,60 c -2.49,0.02 -4.92,0.12 -6.09,0.31 -9.61,1.57 -16.41,5.99 -20.09,13.09 -1.17,2.25 -1.88,4.42 -2.34,7.06 0.30,1.76 0.33,2.51 0.25,5.38 0.06,2.34 0.19,3.81 0.42,4.95 1.61,7.80 6.22,12.75 14.25,15.33 2.59,0.83 4.21,1.15 11.15,2.14 3.85,0.55 6.79,1.05 7.41,1.27 2.65,0.93 3.90,2.61 4.12,5.55 0.28,3.63 -1.79,6.12 -5.95,7.15 -1.67,0.41 -4.71,0.64 -6.86,0.52 -7.05,0.40 -11.65,-1.89 -15.63,-5.07 l 0.47,0.38 -6.04,6.05 c -3.32,3.33 -6.04,6.18 -6.04,6.35 0,0.41 2.79,2.81 4.92,4.25 5.39,3.63 11.12,5.33 20.19,6.01 1.91,0.14 8.93,0.06 10.55,0.30 12.20,-1.83 20.63,-8.10 23.39,-17.41 1.28,-4.33 1.26,-10.86 0.06,-15.71 0.97,-3.56 -2.23,-5.79 -4.68,-8.27 -2.56,-2.58 -4.76,-3.91 -8.62,-5.20 -2.61,0.87 -4.79,-1.30 -11.74,-2.27 -7.41,-1.04 -8.29,-1.30 -9.98,-2.88 -1.92,-1.80 -2.25,-4.18 0.97,-6.80 0.91,-1.85 2.77,-3.19 5.44,-3.92 1.39,0.38 6.97,0.42 9.20,0.07 2.99,0.47 5.79,1.64 7.78,3.26 0.58,0.47 1.16,0.86 1.28,0.86 0.33,0 11.88,-11.64 11.88,-11.97 0,0.39 -2.24,-2.29 -4.41,-3.74 -4.18,-2.81 -9.15,-4.52 -15.34,-5.30 -1.38,0.17 -3.93,0.24 -6.42,0.23 z"/>
  <path style="opacity:0.20;fill:#ffffff" d="M 80 16 C 44.54 16 16 44.54 16 80 L 16 81 C 16 45.54 44.54 17 80 17 L 112 17 C 147.46 17 176 45.54 176 81 L 176 80 C 176 44.54 147.46 16 112 16 L 80 16 z "/>
</svg>
