<?xml version='1.0' encoding='utf-8'?>
<svg xmlns="http://www.w3.org/2000/svg" width="192" height="192" version="1" id="svg14">
  <defs>
    <filter style="color-interpolation-filters:sRGB" id="filter850" x="0.05" width="1.10" y="0.05" height="1.10">
      <feGaussianBlur stdDeviation="3.20"/>
    </filter>
    <filter style="color-interpolation-filters:sRGB" id="filter3488" x="0.06" y="0.11" width="1.11" height="1.22">
      <feGaussianBlur stdDeviation="3.96"/>
    </filter>
    <filter style="color-interpolation-filters:sRGB" id="filter3492" x="0.06" y="0.11" width="1.12" height="1.21">
      <feGaussianBlur stdDeviation="3.90"/>
    </filter>
  </defs>
  <circle style="filter:url(#filter850);opacity:0.20;fill:#000000" cx="96" cy="100" r="80"/>
  <circle r="80" cy="96" cx="96" style="fill:#1156a4"/>
  <path style="opacity:0.10;fill:#ffffff" d="M 96 16 A 80 80 0 0 0 16 96 A 80 80 0 0 0 16.02 96.47 A 80 80 0 0 1 96 17 A 80 80 0 0 1 175.97 96.51 A 80 80 0 0 0 176 96 A 80 80 0 0 0 96 16 z "/>
  <path style="filter:url(#filter3488);opacity:0.20;fill:#000000;color:#000000" d="m 43.36,57.02 c -6.22,0.75 -13.09,2.28 -18.84,5.17 -5.76,2.89 -10.25,5.93 -10.25,5.93 a 3,3 0 0 0 0.81,4.16 3,3 0 0 0 4.16,0.81 c 0,0 4.23,-2.84 9.60,-5.54 5.37,-2.70 12.03,-4.98 15.43,-4.57 7.87,0.95 13.30,5.62 17.98,12.81 4.69,7.19 8.31,16.77 11.97,26.38 3.66,9.62 7.34,19.28 12.67,26.82 C 90.59,136.53 97.99,142 108,142 c 10.08,0 17.47,-5.60 22.65,-13.24 5.17,-7.64 8.60,-17.40 11.87,-27 3.27,-9.60 6.40,-19.07 10.42,-25.88 4.02,-6.81 8.43,-10.72 15.14,-10.88 3.27,0.08 5.64,0.30 7.16,0.68 1.51,0.37 1.97,0.64 1.97,0.64 A 3,3 0 0 0 181.25,65.05 3,3 0 0 0 179.98,61 c 0,0 -1.30,0.65 -3.31,-1.15 -2.01,0.50 -4.94,0.95 -8.75,0.85 -9.12,0.22 -15.60,6.13 -20.15,13.83 -4.55,7.70 -7.68,17.44 -10.93,26.99 -3.26,9.55 -6.64,18.90 -11.16,25.57 C 121.16,132.07 115.97,136 108,136 100.07,136 94.83,132.13 90.17,125.53 85.50,118.92 81.86,109.63 78.21,100.04 74.56,90.44 70.89,80.53 65.65,72.51 60.42,64.49 53.30,58.22 43.36,57.02 Z"/>
  <path style="fill:#ffffff;color:#000000" d="m 43.36,55.02 c -6.22,0.75 -13.09,2.28 -18.84,5.17 -5.76,2.89 -10.25,5.93 -10.25,5.93 a 3,3 0 0 0 0.81,4.16 3,3 0 0 0 4.16,0.81 c 0,0 4.23,-2.84 9.60,-5.54 5.37,-2.70 12.03,-4.98 15.43,-4.57 7.87,0.95 13.30,5.62 17.98,12.81 4.69,7.19 8.31,16.77 11.97,26.38 3.66,9.62 7.34,19.28 12.67,26.82 C 90.59,134.53 97.99,140 108,140 c 10.08,0 17.47,-5.60 22.65,-13.24 5.17,-7.64 8.60,-17.40 11.87,-27.00 3.27,-9.60 6.40,-19.07 10.42,-25.88 4.02,-6.81 8.43,-10.72 15.14,-10.88 3.27,0.08 5.64,0.30 7.16,0.68 1.51,0.37 1.97,0.64 1.97,0.64 A 3,3 0 0 0 181.25,63.05 3,3 0 0 0 179.98,59 c 0,0 -1.30,0.65 -3.31,-1.15 -2.01,0.50 -4.94,0.95 -8.75,0.85 -9.12,0.22 -15.60,6.13 -20.15,13.83 -4.55,7.70 -7.68,17.44 -10.93,26.99 -3.26,9.55 -6.64,18.90 -11.16,25.57 C 121.16,130.07 115.97,134 108,134 100.07,134 94.83,130.13 90.17,123.53 85.50,116.92 81.86,107.63 78.21,98.04 74.56,88.44 70.89,78.53 65.65,70.51 60.42,62.49 53.30,56.22 43.36,55.02 Z"/>
  <path style="filter:url(#filter3492);opacity:0.20;fill:#000000;color:#000000" d="M 20.47,53.36 A 3,3 0 0 0 17.13,55.98 3,3 0 0 0 19.75,59.32 c 7.82,0.94 13.40,5.82 18.28,13.37 4.88,7.55 8.74,17.59 12.63,27.67 3.90,10.07 7.82,20.18 13.30,28.04 C 69.44,136.27 76.94,142 87,142 c 10.13,0 17.70,-5.78 23.24,-13.67 5.54,-7.89 9.47,-18.00 13.24,-27.98 3.77,-9.98 7.39,-19.83 11.80,-26.95 4.40,-7.12 9.14,-11.24 15.79,-11.41 2.32,0.06 8.44,1.76 13.40,3.75 4.96,1.99 9.07,4.00 9.07,4.00 a 3,3 0 0 0 4.02,-1.37 3,3 0 0 0 -1.37,-4.02 c 0,0 -4.28,-2.10 -9.48,-4.19 C 161.51,58.10 155.69,55.88 150.93,56 c -9.16,0.22 -15.83,6.30 -20.75,14.25 -4.92,7.95 -8.55,18.05 -12.31,27.98 -3.76,9.93 -7.64,19.67 -12.54,26.66 C 100.43,131.87 94.93,136 87,136 79.12,136 73.74,131.94 68.88,124.97 64.03,118.01 60.14,108.25 56.26,98.19 52.37,88.14 48.46,77.79 43.06,69.43 37.67,61.08 30.46,54.56 20.47,53.36 Z"/>
  <path style="fill:#ffffff;color:#000000" d="M 20.47,51.36 A 3,3 0 0 0 17.13,53.98 3,3 0 0 0 19.75,57.32 c 7.82,0.94 13.40,5.82 18.28,13.37 4.88,7.55 8.74,17.59 12.63,27.67 3.90,10.07 7.82,20.18 13.30,28.04 C 69.44,134.27 76.94,140 87,140 c 10.13,0 17.70,-5.78 23.24,-13.67 5.54,-7.89 9.47,-18.00 13.24,-27.98 3.77,-9.98 7.39,-19.83 11.80,-26.95 4.40,-7.12 9.14,-11.24 15.79,-11.41 2.32,0.06 8.44,1.76 13.40,3.75 4.96,1.99 9.07,4.00 9.07,4.00 a 3,3 0 0 0 4.02,-1.37 3,3 0 0 0 -1.37,-4.02 c 0,0 -4.28,-2.10 -9.48,-4.19 C 161.51,56.10 155.69,53.88 150.93,54 c -9.16,0.22 -15.83,6.30 -20.75,14.25 -4.92,7.95 -8.55,18.05 -12.31,27.98 -3.76,9.93 -7.64,19.67 -12.54,26.66 C 100.43,129.87 94.93,134 87,134 79.12,134 73.74,129.94 68.88,122.97 64.03,116.01 60.14,106.25 56.26,96.19 52.37,86.14 48.46,75.79 43.06,67.43 37.67,59.08 30.46,52.56 20.47,51.36 Z"/>
</svg>
