<?xml version='1.0' encoding='utf-8'?>
<svg xmlns="http://www.w3.org/2000/svg" width="192" height="192" version="1" id="svg18">
  <defs>
    <filter style="color-interpolation-filters:sRGB" id="filter853" x="0.05" width="1.09" y="0.05" height="1.10">
      <feGaussianBlur stdDeviation="3.24"/>
    </filter>
    <filter style="color-interpolation-filters:sRGB" id="filter874" x="0.05" width="1.10" y="0.05" height="1.10">
      <feGaussianBlur stdDeviation="1.12"/>
    </filter>
  </defs>
  <path d="m 68,20 -3.49,17.45 a 48,48 0 0 0 -13.30,5.51 l -14.80,-9.87 -11.31,11.31 9.88,14.82 a 48,48 0 0 0 -5.53,13.30 L 12,76 v 16 l 17.48,3.50 a 48,48 0 0 0 5.47,13.30 l -9.87,14.80 11.31,11.31 14.82,-9.88 a 48,48 0 0 0 13.29,5.51 L 68,148 h 16 l 3.49,-17.45 A 48,48 0 0 0 95.69,127.69 L 100,132 h 11.23 L 112,132.52 V 144 l 4,4 h 12 v 12 l 4,4 h 12 v 12 l 4,4 h 20 c 4.43,0 8,-3.57 8,-8 V 151.44 L 121.98,97.41 a 48,48 0 0 0 0.59,-1.93 L 140,92 V 76 l -17.48,-3.50 a 48,48 0 0 0 -5.47,-13.30 l 9.87,-14.80 -11.31,-11.31 -14.82,9.87 A 48,48 0 0 0 87.49,37.45 L 84,20 Z" style="filter:url(#filter853);opacity:0.20"/>
  <path d="M 106.95,78.38 78.66,106.66 100,128 h 12 v 12 l 4,4 h 12 v 12 l 4,4 h 12 v 12 l 4,4 h 20 c 4.43,0 8,-3.57 8,-8 v -20.56 z" style="fill:#d1d1d1"/>
  <path d="m 68,16 -3.49,17.45 a 48,48 0 0 0 -13.30,5.51 l -14.80,-9.87 -11.31,11.31 9.88,14.82 a 48,48 0 0 0 -5.53,13.30 L 12,72 v 16 l 17.48,3.50 a 48,48 0 0 0 5.47,13.30 l -9.87,14.80 11.31,11.31 14.82,-9.88 a 48,48 0 0 0 13.29,5.51 L 68,144 h 16 l 3.49,-17.45 a 48,48 0 0 0 13.30,-5.51 l 14.80,9.87 11.31,-11.31 -9.88,-14.82 a 48,48 0 0 0 5.53,-13.30 L 140,88 V 72 l -17.48,-3.50 a 48,48 0 0 0 -5.47,-13.30 l 9.87,-14.80 -11.31,-11.31 -14.82,9.88 A 48,48 0 0 0 87.49,33.45 L 84,16 Z" style="fill:#d1d1d1"/>
  <path d="M 113.66,109.66 A 48,48 0 0 1 95.70,123.70 L 100,128 h 12 v 12 l 4,4 h 12 v 12 l 4,4 h 12 v 12 l 4,4 h 20 c 3.26,0 6.03,-1.94 7.28,-4.72 z" style="opacity:0.20"/>
  <circle style="filter:url(#filter874);opacity:0.10;fill:#000000" cx="76" cy="82" r="28"/>
  <circle r="28" cy="80" cx="76" style="fill:#34a734"/>
  <path style="opacity:0.20;fill:#ffffff" d="M 68 16 L 64.51 33.45 A 48 48 0 0 0 51.20 38.95 L 36.40 29.09 L 25.09 40.40 L 25.48 41 L 36.40 30.09 L 51.20 39.95 A 48 48 0 0 1 64.51 34.45 L 68 17 L 84 17 L 87.49 34.45 A 48 48 0 0 1 100.78 39.96 L 115.60 30.09 L 126.52 41 L 126.91 40.40 L 115.60 29.09 L 100.78 38.96 A 48 48 0 0 0 87.49 33.45 L 84 16 L 68 16 z M 117.64 56.31 L 117.05 57.20 A 48 48 0 0 1 117.34 57.76 L 117.64 57.31 A 48 48 0 0 1 122.52 69.50 L 140 73 L 140 72 L 122.52 68.50 A 48 48 0 0 0 117.64 56.31 z M 34.37 56.32 A 48 48 0 0 0 29.43 68.52 L 12 72 L 12 73 L 29.43 69.52 A 48 48 0 0 1 34.37 57.32 L 34.66 57.77 A 48 48 0 0 1 34.96 57.22 L 34.37 56.32 z M 122.45 93.88 A 48 48 0 0 1 121.98 95.41 L 122.22 95.65 A 48 48 0 0 0 122.45 94.88 L 176 148.44 L 176 147.44 L 122.45 93.88 z M 34.36 105.69 L 25.09 119.60 L 25.49 120.00 L 34.36 106.69 A 48 48 0 0 0 34.66 107.24 L 34.95 106.80 A 48 48 0 0 1 34.36 105.69 z "/>
</svg>
