<?xml version='1.0' encoding='utf-8'?>
<svg xmlns="http://www.w3.org/2000/svg" width="192" height="192" version="1.1" id="svg14">
  <defs>
    <filter style="color-interpolation-filters:sRGB" id="filter849" x="0.05" y="0.05" width="1.10" height="1.10">
      <feGaussianBlur stdDeviation="3.20"/>
    </filter>
    <filter style="color-interpolation-filters:sRGB" id="filter3273" x="0.05" y="0.05" width="1.10" height="1.10">
      <feGaussianBlur stdDeviation="2"/>
    </filter>
  </defs>
  <rect style="filter:url(#filter849);opacity:0.20" width="160" height="160" x="16" y="20" rx="32" ry="32"/>
  <rect style="fill:#ca1f28" width="160" height="160" x="16" y="16" rx="32" ry="32"/>
  <path style="opacity:0.20;fill:#ffffff" d="M 48,16 C 30.27,16 16,30.27 16,48 v 1 C 16,31.27 30.27,17 48,17 h 96 c 17.73,0 32,14.27 32,32 V 48 C 176,30.27 161.73,16 144,16 Z"/>
  <path style="filter:url(#filter3273);opacity:0.20;fill:#000000" d="M 76.22,48 C 68.21,48.02 60.53,51.22 54.87,56.90 49.21,62.58 46.02,70.28 46,78.31 V 118 l 2.74,0.41 c 3.51,0.56 6.30,-2.34 8.61,-5.04 C 59.67,109.84 60.98,106.41 61,102.85 V 78.31 c 0.02,-3.95 1.56,-7.73 4.34,-10.52 C 68.12,65.00 71.89,63.02 75.83,63 H 146 V 48 Z M 146,78 l -2.74,0.41 c -3.51,0.56 -6.30,2.34 -8.61,5.04 -2.31,2.70 -3.63,6.14 -3.65,9.70 v 24.54 c 0.02,3.95 -1.56,7.73 -4.34,10.52 -2.78,2.79 -6.55,4.77 -10.49,4.79 H 46 v 15 h 69.78 c 8.01,0.02 15.69,-3.22 21.35,-8.90 5.66,-5.68 8.85,-13.38 8.87,-21.41 z m -71,1 v 39 H 87 V 98.18 l 9,10.84 9,-10.84 V 118 h 12 V 79 H 105.31 L 96,91.54 86.68,79 Z"/>
  <path style="fill:#ffffff" d="M 76.22 46 C 68.21 46.02 60.53 49.22 54.87 54.90 C 49.21 60.58 46.02 68.28 46 76.31 L 46 116 L 48.74 115.59 C 52.25 115.03 55.04 113.24 57.35 110.54 C 59.67 107.84 60.98 104.41 61 100.85 L 61 76.31 C 61.02 72.36 62.56 68.58 65.34 65.79 C 68.12 63.00 71.89 61.02 75.83 61 L 146 61 L 146 46 L 76.22 46 z M 146 76 L 143.26 76.41 C 139.75 76.97 136.96 78.76 134.65 81.46 C 132.33 84.16 131.02 87.59 131 91.15 L 131 115.69 C 130.98 119.64 129.44 123.42 126.66 126.21 C 123.88 129.00 120.11 130.98 116.17 131 L 46 131 L 46 146 L 115.78 146 C 123.79 145.98 131.47 142.78 137.13 137.10 C 142.79 131.42 145.98 123.72 146 115.69 L 146 76 z M 75 77 L 75 116 L 87 116 L 87 96.18 L 96 107.03 L 105 96.18 L 105 116 L 117 116 L 117 77 L 105.31 77 L 96 89.54 L 86.68 77 L 75 77 z "/>
</svg>
