<?xml version='1.0' encoding='utf-8'?>
<svg xmlns="http://www.w3.org/2000/svg" width="192" height="192" version="1" id="svg14">
  <defs>
    <filter style="color-interpolation-filters:sRGB" id="filter850" x="0.05" width="1.10" y="0.05" height="1.10">
      <feGaussianBlur stdDeviation="3.20"/>
    </filter>
    <filter style="color-interpolation-filters:sRGB" id="filter866" x="0.04" width="1.08" y="0.06" height="1.11">
      <feGaussianBlur stdDeviation="1.68"/>
    </filter>
  </defs>
  <rect width="160" height="160" x="-180" y="-176" rx="80" ry="80" transform="matrix(0,-1,-1,0,0,0)" style="filter:url(#filter850);opacity:0.20;fill:#000000"/>
  <rect style="fill:#1ed760" transform="matrix(0,-1,-1,0,0,0)" ry="80" rx="80" y="-176" x="-176" height="160" width="160"/>
  <path style="opacity:0.20;fill:#ffffff" d="M 96 16 C 51.68 16 16 51.68 16 96 C 16 96.34 16.00 96.67 16 97 C 16 52.68 51.68 17 96 17 C 140.32 17 176 52.68 176 97 C 176.00 96.67 176 96.34 176 96 C 176 51.68 140.32 16 96 16 z "/>
  <path style="filter:url(#filter866);opacity:0.20" d="m 84.34,68 c -10.18,0.00 -20.02,1.04 -28.41,3.12 -4.31,1.07 -4.63,1.19 -5.83,2.20 -1.47,1.24 -2.11,2.60 -2.11,4.56 0.00,2.43 1.16,4.30 3.34,5.38 1.79,0.88 2.95,0.85 6.86,0.14 3.95,-1.00 9.56,-1.96 14.47,-2.48 4.99,0.53 20.74,0.44 25.78,0.14 13.66,1.58 23.39,4.17 32.81,8.75 2.41,1.17 4.80,2.23 5.31,2.34 2.70,0.62 5.91,-1.03 7.03,-3.61 0.56,-1.28 0.51,-3.64 0.09,-4.91 0.74,-1.56 -2.26,-2.68 -6.30,-4.64 -6.86,-3.33 -14.24,-5.83 -22.47,-7.60 -9.72,-2.08 -20.23,-3.12 -30.40,-3.12 z m -2.27,24.02 c -1.81,0.03 -3.37,0.09 -4.43,0.20 -6.84,0.69 -15.73,2.57 -18.55,3.94 -2.97,1.44 -4.02,5.45 -2.19,8.41 0.70,1.13 2.79,2.39 3.98,2.39 0.45,0 2.60,0.50 4.80,-1.11 6.39,-1.77 10.68,-2.35 18.48,-2.50 5.06,0.10 7.70,0.01 10.66,0.33 12.53,1.45 21.75,4.51 32.38,10.77 1.46,0.86 2.97,1.56 3.36,1.56 3.16,0.01 5.92,-3.32 5.38,-6.47 0.47,-2.75 -1.66,-3.90 -7.09,-6.94 -9.00,-5.02 -18.88,-8.24 -30.62,-9.97 -2.01,0.30 -6.11,0.50 -10.22,0.58 -2.06,0.04 -4.12,0.05 -5.93,0.02 z m 2.79,24 c -1.45,0.03 -2.70,0.09 -3.55,0.20 -5.47,0.69 -12.59,2.57 -14.84,3.94 -2.37,1.44 -3.21,5.45 -1.75,8.41 0.56,1.13 2.23,2.39 3.19,2.39 0.36,0 2.09,0.50 3.84,-1.11 5.12,-1.77 8.54,-2.35 14.78,-2.50 4.05,0.10 6.17,0.01 8.53,0.33 10.03,1.45 17.39,4.51 25.89,10.77 1.17,0.86 2.39,1.56 2.70,1.56 2.53,0.01 4.71,-3.32 4.28,-6.47 0.38,-2.75 -1.31,-3.90 -5.66,-6.94 -7.20,-5.02 -15.11,-8.24 -24.50,-9.97 -1.61,0.30 -4.88,0.50 -8.17,0.58 -1.65,0.04 -3.30,0.05 -4.75,0.02 z"/>
  <path style="fill:#3f3f3f" d="m 84.34,64 c -10.18,0.00 -20.02,1.04 -28.41,3.12 -4.31,1.07 -4.63,1.19 -5.83,2.20 -1.47,1.24 -2.11,2.60 -2.11,4.56 0.00,2.43 1.16,4.30 3.34,5.38 1.79,0.88 2.95,0.85 6.86,0.14 3.95,-1.00 9.56,-1.96 14.47,-2.48 4.99,0.53 20.74,0.44 25.78,0.14 13.66,1.58 23.39,4.17 32.81,8.75 2.41,1.17 4.80,2.23 5.31,2.34 2.70,0.62 5.91,-1.03 7.03,-3.61 0.56,-1.28 0.51,-3.64 0.09,-4.91 0.74,-1.56 -2.26,-2.68 -6.30,-4.64 -6.86,-3.33 -14.24,-5.83 -22.47,-7.60 -9.72,-2.08 -20.23,-3.12 -30.41,-3.12 z m -2.27,24.02 c -1.81,0.03 -3.37,0.09 -4.43,0.20 -6.84,0.69 -15.73,2.57 -18.55,3.94 -2.97,1.44 -4.02,5.45 -2.19,8.41 0.70,1.13 2.79,2.39 3.98,2.39 0.45,0 2.60,0.50 4.80,-1.11 6.39,-1.77 10.68,-2.35 18.48,-2.50 5.06,0.10 7.70,0.01 10.66,0.33 12.53,1.45 21.75,4.51 32.38,10.77 1.46,0.86 2.97,1.56 3.36,1.56 3.16,0.01 5.92,-3.32 5.38,-6.47 0.48,-2.76 -1.66,-3.90 -7.10,-6.94 -9.00,-5.02 -18.88,-8.24 -30.62,-9.97 -2.01,0.30 -6.11,0.50 -10.22,0.58 -2.06,0.04 -4.12,0.05 -5.93,0.02 z m 2.79,24 c -1.45,0.03 -2.70,0.09 -3.55,0.20 -5.47,0.69 -12.59,2.57 -14.84,3.94 -2.37,1.44 -3.21,5.45 -1.75,8.41 0.56,1.13 2.23,2.39 3.19,2.39 0.36,0 2.09,0.50 3.84,-1.11 5.12,-1.77 8.54,-2.35 14.78,-2.50 4.05,0.10 6.17,0.01 8.53,0.33 10.03,1.45 17.39,4.51 25.89,10.77 1.17,0.86 2.39,1.56 2.70,1.56 2.53,0.01 4.71,-3.32 4.28,-6.47 0.38,-2.75 -1.31,-3.90 -5.66,-6.94 -7.20,-5.02 -15.11,-8.24 -24.50,-9.97 -1.61,0.30 -4.88,0.50 -8.17,0.58 -1.65,0.04 -3.30,0.05 -4.75,0.02 z"/>
</svg>
