<?xml version='1.0' encoding='utf-8'?>
<svg xmlns="http://www.w3.org/2000/svg" width="192" height="192" version="1" id="svg12">
  <defs>
    <filter style="color-interpolation-filters:sRGB" id="filter845" x="0.05" y="0.05" width="1.10" height="1.10">
      <feGaussianBlur stdDeviation="3.20"/>
    </filter>
    <filter style="color-interpolation-filters:sRGB" id="filter867" x="0.04" y="0.05" width="1.09" height="1.11">
      <feGaussianBlur stdDeviation="2.32"/>
    </filter>
  </defs>
  <rect style="filter:url(#filter845);opacity:0.20" width="160" height="160" x="16" y="20" rx="48" ry="48"/>
  <rect style="fill:#f4b400" width="160" height="160" x="16" y="16" rx="48" ry="48"/>
  <path style="filter:url(#filter867);opacity:0.20" d="m 96,46.00 a 52,52 0 0 0 -49.38,36 H 32 l 12,16 12,16.00 12,-16.00 12,-16 H 68.38 a 32,32 0 0 1 27.62,-16 32,32 0 0 1 30.09,21.21 l 9.91,-13.21 11.14,14.85 a 52,52 0 0 0 -51.14,-42.85 z m 40,36 -12,16 -12,16.00 h 11.62 a 32,32 0 0 1 -27.62,16 32,32 0 0 1 -30.09,-21.21 l -9.91,13.21 -11.14,-14.85 a 52,52 0 0 0 51.14,42.85 52,52 0 0 0 49.38,-36 h 14.62 l -12,-16.00 -12,-16 z"/>
  <path fill="#3f3f3f" d="M 96,44 A 52,52 0 0 0 46.62,80 H 32 L 44,96 56,112 68,96 80,80 H 68.38 a 32,32 0 0 1 27.62,-16 32,32 0 0 1 30.09,21.21 l 9.91,-13.21 11.14,14.85 A 52,52 0 0 0 96.00,44 Z m 40,36 -12,16 -12,16 h 11.62 a 32,32 0 0 1 -27.62,16 32,32 0 0 1 -30.09,-21.21 L 56.00,120 44.86,105.15 a 52,52 0 0 0 51.14,42.85 52,52 0 0 0 49.38,-36 h 14.62 l -12,-16 -12,-16 z"/>
  <path style="opacity:0.20;fill:#ffffff" d="M 64 16 C 37.41 16 16 37.41 16 64 L 16 65 C 16 38.41 37.41 17 64 17 L 128 17 C 154.59 17 176 38.41 176 65 L 176 64 C 176 37.41 154.59 16 128 16 L 64 16 z "/>
</svg>
