<?xml version='1.0' encoding='utf-8'?>
<svg xmlns="http://www.w3.org/2000/svg" width="192" height="192" version="1" id="svg12">
  <defs>
    <filter style="color-interpolation-filters:sRGB" id="filter860" x="0.05" width="1.10" y="0.05" height="1.10">
      <feGaussianBlur stdDeviation="3.20"/>
    </filter>
    <filter style="color-interpolation-filters:sRGB" id="filter899" x="0.05" width="1.09" y="0.05" height="1.10">
      <feGaussianBlur stdDeviation="2.04"/>
    </filter>
  </defs>
  <rect style="filter:url(#filter860);opacity:0.20" width="160" height="160" x="16" y="20" rx="48" ry="48"/>
  <rect style="fill:#f5497d" width="160" height="160" x="16" y="16" rx="48" ry="48"/>
  <path style="opacity:0.20;fill:#ffffff" d="M 64,16 C 37.41,16 16,37.41 16,64 v 1 C 16,38.41 37.41,17 64,17 h 64 c 26.59,0 48,21.41 48,48 V 64 C 176,37.41 154.59,16 128,16 Z"/>
  <path style="filter:url(#filter899);opacity:0.20;fill:#000000;color:#000000;font-stretch:normal;font-variant-ligatures:normal;font-variant-position:normal;font-variant-caps:normal;font-variant-numeric:normal;font-variant-alternates:normal;font-variant-east-asian:normal;font-feature-settings:normal;font-variation-settings:normal;text-indent:0;text-align:start;text-decoration-line:none;text-decoration-style:solid;text-decoration-color:#000000;text-transform:none;writing-mode:lr-tb;direction:ltr;text-orientation:mixed;dominant-baseline:auto;baseline-shift:baseline;white-space:normal;shape-padding:0;shape-margin:0;inline-size:0;clip-rule:nonzero;display:inline;overflow:visible;visibility:visible;isolation:auto;mix-blend-mode:normal;color-interpolation:sRGB;color-interpolation-filters:linearRGB;solid-color:#000000;solid-opacity:1;vector-effect:none;fill-rule:nonzero;color-rendering:auto;image-rendering:auto;shape-rendering:auto;text-rendering:auto;enable-background:accumulate;stop-color:#000000" d="m 67,51 a 6.00,6.00 0 0 0 -4.24,1.76 l -18.00,18 a 6.00,6.00 0 0 0 0,8.48 L 61,95.48 V 143 a 6.00,6.00 0 0 0 6,6 h 58 a 6.00,6.00 0 0 0 6,-6 V 95.48 l 16.24,-16.24 a 6.00,6.00 0 0 0 0,-8.48 l -18.00,-18 A 6.00,6.00 0 0 0 125,51 Z m 2.48,12 h 53.03 l 12,12 -13.76,13.76 A 6.00,6.00 0 0 0 119,93 v 44 H 73 V 93 A 6.00,6.00 0 0 0 71.24,88.76 L 57.48,75 Z m 1.18,8.83 A 26,26 0 0 0 96,92 26,26 0 0 0 121.34,71.83 H 109.82 A 15,15 0 0 1 96,81 15,15 0 0 1 82.18,71.83 Z"/>
  <path style="fill:#ffffff;color:#000000;font-stretch:normal;font-variant-ligatures:normal;font-variant-position:normal;font-variant-caps:normal;font-variant-numeric:normal;font-variant-alternates:normal;font-variant-east-asian:normal;font-feature-settings:normal;font-variation-settings:normal;text-indent:0;text-align:start;text-decoration-line:none;text-decoration-style:solid;text-decoration-color:#000000;text-transform:none;writing-mode:lr-tb;direction:ltr;text-orientation:mixed;dominant-baseline:auto;baseline-shift:baseline;white-space:normal;shape-padding:0;shape-margin:0;inline-size:0;clip-rule:nonzero;display:inline;overflow:visible;visibility:visible;isolation:auto;mix-blend-mode:normal;color-interpolation:sRGB;color-interpolation-filters:linearRGB;solid-color:#000000;solid-opacity:1;vector-effect:none;fill-rule:nonzero;color-rendering:auto;image-rendering:auto;shape-rendering:auto;text-rendering:auto;enable-background:accumulate;stop-color:#000000" d="m 67.00,47 a 6.00,6.00 0 0 0 -4.24,1.76 l -18.00,18 a 6.00,6.00 0 0 0 0,8.48 L 61.00,91.48 V 139 a 6.00,6.00 0 0 0 6.00,6 h 58.00 a 6.00,6.00 0 0 0 6.00,-6 V 91.48 l 16.24,-16.24 a 6.00,6.00 0 0 0 0,-8.48 l -18.00,-18 A 6.00,6.00 0 0 0 125.00,47 Z m 2.48,12 h 53.03 l 12.00,12 -13.76,13.76 A 6.00,6.00 0 0 0 119.00,89 v 44 H 73.00 V 89 a 6.00,6.00 0 0 0 -1.76,-4.24 L 57.48,71 Z"/>
  <path style="fill:#faa4be" d="M 70.66,67.83 A 26,26 0 0 0 96,88 26,26 0 0 0 121.34,67.83 H 109.82 A 15,15 0 0 1 96,77 15,15 0 0 1 82.18,67.83 Z"/>
</svg>
