<?xml version='1.0' encoding='utf-8'?>
<svg xmlns="http://www.w3.org/2000/svg" width="192" height="192" version="1" id="svg18">
  <defs>
    <filter style="color-interpolation-filters:sRGB" id="filter857" x="0.05" width="1.10" y="0.05" height="1.10">
      <feGaussianBlur stdDeviation="3.20"/>
    </filter>
    <filter style="color-interpolation-filters:sRGB" id="filter873" x="0.06" width="1.11" y="0.04" height="1.08">
      <feGaussianBlur stdDeviation="0.76"/>
    </filter>
    <filter style="color-interpolation-filters:sRGB" id="filter889" x="0.04" width="1.07" y="0.08" height="1.15">
      <feGaussianBlur stdDeviation="1.76"/>
    </filter>
  </defs>
  <rect transform="matrix(0,-1,-1,0,0,0)" ry="80" rx="80" y="-176" x="-180" height="160" width="160" style="filter:url(#filter857);opacity:0.20"/>
  <rect transform="matrix(0,-1,-1,0,0,0)" ry="80" rx="80" y="-176" x="-176" height="160" width="160" style="fill:#1f7ee5"/>
  <path d="m 88,110 h 14 l -6.00,10 16.00,2 -28.00,32 8,-24 -12,-4 z" style="filter:url(#filter873);opacity:0.10"/>
  <path d="m 88,108 h 14 l -6.00,10 16.00,2 -28.00,32 8,-24 -12,-4 z" style="fill:#ffe242"/>
  <path style="opacity:0.20;fill:#ffffff" d="M 96 16 C 51.68 16 16 51.68 16 96 C 16 96.12 16.01 96.23 16.01 96.34 C 16.36 52.33 51.90 17 96 17 C 140.10 17 175.64 52.33 175.99 96.34 C 175.99 96.23 176 96.12 176 96 C 176 51.68 140.32 16 96 16 z "/>
  <path d="m 96,56.00 c -9.37,0.01 -17.88,5.48 -21.79,14 -2.54,-1.31 -5.35,-1.99 -8.21,-2 -9.94,0 -18,8.06 -18,18 0.01,0.67 0.05,1.34 0.13,2.01 0.04,0.00 0.09,0.01 0.13,0.01 -6.63,0 -12,5.37 -12,12 0,6.63 5.37,12.00 12,12.00 h 96 c 6.63,0 12,-5.37 12,-12.00 0,-6.63 -5.37,-12 -12,-12 0.04,0.00 0.08,0.00 0.12,0.01 0.08,0.67 0.12,-1.34 0.12,-2.01 0,-9.94 -8.06,-18 -18,-18 -2.86,0.00 -5.68,0.68 -8.22,1.99 C 113.87,61.48 105.37,56.01 96,56.00 Z" style="filter:url(#filter889);opacity:0.20"/>
  <path d="M 96,52 C 86.63,52.01 78.12,57.48 74.21,66 71.67,64.69 68.86,64.01 66,64 c -9.94,0 -18,8.06 -18,18 0.01,0.67 0.05,1.34 0.13,2.01 C 48.09,84.00 48.04,84.00 48,84 c -6.63,0 -12,5.37 -12,12 0,6.63 5.37,12 12,12 h 96 c 6.63,0 12,-5.37 12,-12 0,-6.63 -5.37,-12 -12,-12 0.04,0.00 0.08,0.00 0.12,0.01 0.08,0.67 0.12,-1.34 0.12,-2.01 0,-9.94 -8.06,-18 -18,-18 -2.86,0.00 -5.68,0.68 -8.22,1.99 C 113.87,57.48 105.37,52.01 96,52 Z" style="fill:#ffffff"/>
</svg>
