<?xml version='1.0' encoding='utf-8'?>
<svg xmlns="http://www.w3.org/2000/svg" width="192" height="192" version="1.1" id="svg12">
  <defs>
    <filter style="color-interpolation-filters:sRGB" id="filter845" x="-0.048000001" y="-0.048000001" width="1.096" height="1.096">
      <feGaussianBlur stdDeviation="3.2"/>
    </filter>
    <filter style="color-interpolation-filters:sRGB" id="filter849" x="-0.067162484" y="-0.037344924" width="1.134325" height="1.0746898">
      <feGaussianBlur stdDeviation="1.61828"/>
    </filter>
  </defs>
  <rect style="filter:url(#filter845);opacity:0.2" width="160" height="160" x="16" y="20" rx="8" ry="8"/>
  <rect style="fill:#3f5979" width="160" height="160" x="16" y="16" rx="8" ry="8"/>
  <path style="opacity:0.1;fill:#ffffff" d="M 24 16 C 19.568 16 16 19.568 16 24 L 16 25 C 16 20.568 19.568 17 24 17 L 168 17 C 172.432 17 176 20.568 176 25 L 176 24 C 176 19.568 172.432 16 168 16 L 24 16 z "/>
  <path style="filter:url(#filter849);opacity:0.2" d="m 80,90.000139 v 36.000001 c 0,4.848 2.808,24 24,24 16,0 21.828,-6.736 21.828,-6.736 L 120,128.81614 c 0,0 -16,5.316 -16,-6.816 V 90.000139 h 16 v -20 h -16 v -24 H 88 c 0,0 -0.792,13.78 -5.796,20.108 -5.004,6.328 -14.204,7.892 -14.204,7.892 v 16 z"/>
  <path style="fill:#ffffff" d="m 80,88 v 36 c 0,4.848 2.808,24 24,24 16,0 21.828,-6.736 21.828,-6.736 L 120,126.816 c 0,0 -16,5.316 -16,-6.816 V 88 h 16 V 68 H 104 V 44 H 88 C 88,44 87.208,57.78 82.204,64.108 77.2,70.436 68,72 68,72 v 16 z"/>
</svg>
