<?xml version='1.0' encoding='utf-8'?>
<svg xmlns="http://www.w3.org/2000/svg" width="192" height="192" version="1" id="svg18">
  <defs>
    <filter id="filter955" style="color-interpolation-filters:sRGB" width="1.10" height="1.10" x="0.05" y="0.05">
      <feGaussianBlur stdDeviation="3.20"/>
    </filter>
    <filter style="color-interpolation-filters:sRGB" id="filter1370" x="0.11" y="0.11" width="1.22" height="1.22">
      <feGaussianBlur stdDeviation="4.50"/>
    </filter>
  </defs>
  <rect style="filter:url(#filter955);opacity:0.20" width="160" height="160" x="16" y="20" rx="30" ry="30"/>
  <rect style="fill:#e4e4e4" width="160" height="160" x="16" y="16" rx="30" ry="30"/>
  <path style="opacity:0.20;fill:#ffffff" d="M 46 16 C 29.38 16 16 29.38 16 46 L 16 47 C 16 30.38 29.38 17 46 17 L 146 17 C 162.62 17 176 30.38 176 47 L 176 46 C 176 29.38 162.62 16 146 16 L 46 16 z"/>
  <path style="filter:url(#filter1370);opacity:0.20;fill:#000000" d="m 96,48.00 c 0.95,0.00 -1.93,0.20 -2.77,0.63 0.97,0.50 -2.12,2.34 -4.54,7.27 -8.53,17.37 -17.25,26.09 -34.86,34.86 -6.97,3.47 -7.80,4.21 -7.83,7.23 0.03,3.02 0.86,3.76 7.83,7.23 17.61,8.77 26.33,17.49 34.86,34.86 2.42,4.93 3.57,6.76 4.54,7.27 C 94.07,147.80 95.05,148.00 96,148 c 0.95,0.00 1.93,0.20 2.77,0.63 0.97,0.50 2.12,-2.34 4.54,-7.27 8.53,-17.37 17.25,-26.09 34.86,-34.86 6.97,-3.47 7.80,-4.21 7.83,-7.23 0.03,-3.02 0.86,-3.76 -7.83,-7.23 C 120.56,82.00 111.84,73.28 103.31,55.90 100.89,50.97 99.74,49.14 98.77,48.63 97.93,48.20 96.95,48.00 96,48.00 Z"/>
  <path style="fill:#fe8113" d="m 96,46.00 c 0.95,0.00 -1.93,0.20 -2.77,0.63 0.97,0.50 -2.12,2.34 -4.54,7.27 -8.53,17.37 -17.25,26.09 -34.86,34.86 -6.97,3.47 -7.80,4.21 -7.83,7.23 0.03,3.02 0.86,3.76 7.83,7.23 17.61,8.77 26.33,17.49 34.86,34.86 2.42,4.93 3.57,6.76 4.54,7.27 C 94.07,145.80 95.05,146.00 96,146 c 0.95,0.00 1.93,0.20 2.77,0.63 0.97,0.50 2.12,-2.34 4.54,-7.27 8.53,-17.37 17.25,-26.09 34.86,-34.86 6.97,-3.47 7.80,-4.21 7.83,-7.23 0.03,-3.02 0.86,-3.76 -7.83,-7.23 C 120.56,80.00 111.84,71.28 103.31,53.90 100.89,48.97 99.74,47.14 98.77,46.63 97.93,46.20 96.95,46.00 96,46.00 Z"/>
</svg>
