<?xml version='1.0' encoding='utf-8'?>
<svg xmlns="http://www.w3.org/2000/svg" width="192" height="192" version="1" id="svg28">
  <defs>
    <filter style="color-interpolation-filters:sRGB" id="filter1626" x="0.04" y="0.06" width="1.08" height="1.11">
      <feGaussianBlur stdDeviation="2.89"/>
    </filter>
    <filter style="color-interpolation-filters:sRGB" id="filter1668" x="0.06" y="0.11" width="1.12" height="1.21">
      <feGaussianBlur stdDeviation="2.63"/>
    </filter>
  </defs>
  <path class="cls-1" d="m 14.00,149.23 3.45,-79.91 a 9.75,9.76 0 0 1 6.94,-9.28 L 80.39,41.75 93.60,37.38 a 8.22,8.23 0 0 1 4.92,0 l 20.89,6.92 48.21,15.74 a 10.09,10.11 0 0 1 3.06,1.57 8.24,8.25 0 0 1 3.28,4.40 9.53,9.54 0 0 1 0.59,3.31 L 178,149.23 a 9.81,9.82 0 0 1 -9.41,9.72 C 168.25,158.96 130.87,162 96.00,162 60.87,162 23.75,158.96 23.41,158.95 a 9.81,9.82 0 0 1 -9.41,-9.72" style="filter:url(#filter1626);opacity:0.20;fill:#000000"/>
  <path class="cls-1" d="m 14.00,145.23 3.45,-79.91 a 9.75,9.76 0 0 1 6.94,-9.28 L 80.39,37.75 93.60,33.38 a 8.22,8.23 0 0 1 4.92,0 l 20.89,6.92 48.21,15.74 a 10.09,10.11 0 0 1 3.06,1.57 8.24,8.25 0 0 1 3.28,4.40 9.53,9.54 0 0 1 0.59,3.31 L 178,145.23 a 9.81,9.82 0 0 1 -9.41,9.72 C 168.25,154.96 130.87,158 96.00,158 60.87,158 23.75,154.96 23.41,154.95 a 9.81,9.82 0 0 1 -9.41,-9.72" style="fill:#eec306"/>
  <path style="filter:url(#filter1668);opacity:0.20;fill:#000000" d="M 48.27,76 A 2.33,2.32 0 0 0 46,78.38 l 0.02,55.25 A 2.33,2.32 0 0 0 48.29,136 h 7.40 a 2.33,2.32 0 0 0 2.27,-2.37 L 58,78.38 A 2.33,2.32 0 0 0 55.73,76 Z m 19.03,0 c -1.27,0.04 -2.27,1.09 -2.24,2.36 L 65,133.64 c 0.03,1.27 0.97,2.33 2.24,2.36 h 7.19 C 75.70,135.97 77.03,134.91 77,133.64 V 106.19 c 0.04,0.67 0.54,0.91 0.84,0.31 l 11.80,23.44 c 0.20,0.40 0.61,0.68 1.06,0.68 h 2.53 c 0.49,0.01 0.93,0.30 1.15,0.73 l 11.78,-23.32 c 0.31,0.62 0.90,0.37 0.86,0.32 l 0.04,27.37 v 0.00 c 0.04,1.27 1.32,2.33 2.59,2.36 h 7.19 c 1.27,0.03 2.28,-1.09 2.24,-2.36 V 78.38 c 0.03,-1.27 0.97,-2.32 -2.24,-2.36 h -7.98 c 0.88,0.01 -1.66,0.53 -2.02,1.33 L 93.09,106.92 c 0.22,0.51 0.94,0.52 -1.17,0.02 L 77.35,77.28 c 0.37,0.77 -1.14,-1.26 -1.99,-1.27 z m 60.97,0 c -1.29,0.04 -2.30,1.11 -2.27,2.39 v 55.21 c 0.04,1.29 0.98,2.36 2.27,2.39 h 23.45 c 1.29,0.04 2.31,-1.11 2.27,-2.39 v -6.43 H 154 C 154.03,125.89 153.01,125.03 151.72,125 H 138.90 C 138.32,124.98 137.99,124.29 138,123.71 V 78.39 C 138.03,77.10 136.89,76.04 135.61,76 Z"/>
  <path style="fill:#304797" d="M 48.27 74 A 2.33 2.32 0 0 0 46 76.38 L 46.02 131.63 A 2.33 2.32 0 0 0 48.29 134 L 55.69 134 A 2.33 2.32 0 0 0 57.96 131.63 L 58 76.38 A 2.33 2.32 0 0 0 55.73 74 L 48.27 74 z M 67.30 74 C 66.02 74.04 65.02 75.09 65.06 76.36 L 65 131.64 C 64.97 132.91 65.97 133.97 67.24 134 L 74.43 134 C 75.70 133.97 77.03 132.91 77 131.64 L 77 104.19 C 76.96 103.52 77.54 103.27 77.84 103.87 L 89.64 127.32 C 89.84 127.72 90.25 128.00 90.71 128 L 93.24 128 C 93.73 127.99 94.17 127.70 94.39 127.27 L 106.16 103.94 C 106.47 103.32 107.06 103.57 107.02 104.26 L 106.98 131.64 L 106.98 131.64 C 106.95 132.91 108.30 133.97 109.57 134 L 116.76 134 C 118.03 133.97 119.03 132.91 119 131.64 L 119 76.38 C 119.03 75.11 118.03 74.06 116.76 74.02 L 108.78 74.02 C 107.90 74.03 107.11 74.55 106.76 75.35 L 93.09 104.92 C 92.87 105.44 92.15 105.45 91.92 104.94 L 77.35 75.28 C 76.99 74.51 76.21 74.01 75.36 74.00 L 67.30 74 z M 128.27 74 C 126.98 74.04 125.97 75.11 126 76.39 L 126 131.61 C 125.96 132.89 126.98 133.96 128.27 134 L 151.72 134 C 153.01 133.96 154.03 132.89 154.00 131.61 L 154.00 125.18 L 154 125.18 C 154.03 123.89 153.01 123.03 151.72 123 L 138.90 123 C 138.32 122.98 137.99 122.29 138 121.71 L 138 76.39 C 138.03 75.10 136.89 74.04 135.61 74 L 128.27 74 z "/>
  <path style="opacity:0.20;fill:#ffffff" class="cls-1" d="M 96.06 33 A 8.22 8.23 0 0 0 93.60 33.38 L 80.39 37.75 L 24.39 56.04 A 9.75 9.76 0 0 0 17.45 65.32 L 14 145.23 A 9.81 9.82 0 0 0 14.04 145.41 L 17.45 66.32 A 9.75 9.76 0 0 1 24.39 57.04 L 80.39 38.75 L 93.60 34.38 A 8.22 8.23 0 0 1 98.52 34.38 L 119.41 41.30 L 167.61 57.04 A 10.09 10.11 0 0 1 170.68 58.61 A 8.24 8.25 0 0 1 173.96 63.01 A 9.53 9.54 0 0 1 174.55 66.32 L 177.96 145.41 A 9.81 9.82 0 0 0 178 145.23 L 174.55 65.32 A 9.53 9.54 0 0 0 173.96 62.01 A 8.24 8.25 0 0 0 170.68 57.61 A 10.09 10.11 0 0 0 167.61 56.04 L 119.41 40.30 L 98.52 33.38 A 8.22 8.23 0 0 0 96.06 33 z "/>
</svg>
