<?xml version='1.0' encoding='utf-8'?>
<svg xmlns="http://www.w3.org/2000/svg" width="192" height="192" version="1.1" id="svg12">
  <defs>
    <filter style="color-interpolation-filters:sRGB" id="filter845" x="0.05" y="0.04" width="1.10" height="1.09">
      <feGaussianBlur stdDeviation="2.96"/>
    </filter>
    <filter style="color-interpolation-filters:sRGB" id="filter849" x="0.04" y="0.06" width="1.08" height="1.11">
      <feGaussianBlur stdDeviation="1.52"/>
    </filter>
  </defs>
  <path style="filter:url(#filter845);opacity:0.20" d="M 96.08,18 C 58.22,18 28.00,30.14 28.00,30.14 l 2.63,81.83 c 0,0 0.08,40.29 65.37,66.04 65.53,-25.75 65.38,-66.04 65.38,-66.04 l 2.62,-81.83 C 164.16,30.14 133.94,18 96.08,18 Z"/>
  <path style="fill:#ee4237" d="M 96.08,14 C 58.22,14 28.00,26.14 28.00,26.14 l 2.63,81.83 c 0,0 0.08,40.29 65.37,66.04 65.53,-25.75 65.38,-66.04 65.38,-66.04 l 2.62,-81.83 C 164.16,26.14 133.94,14 96.08,14 Z"/>
  <path style="filter:url(#filter849);opacity:0.20" d="m 62.92,56 c -7.15,0 -10.92,4.81 -10.92,12.30 V 72 h 24 V 56 Z m 21.08,0 V 72 H 108.00 V 56 Z m 32.00,0 v 16 h 24 V 68.30 C 140.00,60.81 136.23,56 129.08,56 Z M 52.00,80 v 16 h 24 V 80 Z m 64.00,0 v 16 h 24 V 80 Z m -64.00,24 v 3.70 c 0,7.48 3.77,12.30 10.92,12.30 h 13.08 v -16 z m 32,0 v 16 h 24.00 v -16 z m 32.00,0 v 16 h 13.08 c 7.15,0 10.92,-4.81 10.92,-12.30 V 104 Z"/>
  <path style="fill:#ffffff" d="m 62.92,54 c -7.15,0 -10.92,4.81 -10.92,12.30 V 70 h 24 V 54 Z m 21.08,0 V 70 H 108.00 V 54 Z m 32.00,0 v 16 h 24 V 66.30 C 140.00,58.81 136.23,54 129.08,54 Z M 52.00,78 v 16 h 24 V 78 Z m 64.00,0 v 16 h 24 V 78 Z m -64.00,24 v 3.70 c 0,7.48 3.77,12.30 10.92,12.30 h 13.08 v -16 z m 32,0 v 16 h 24.00 v -16 z m 32.00,0 v 16 h 13.08 c 7.15,0 10.92,-4.81 10.92,-12.30 V 102 Z"/>
  <path style="opacity:0.20;fill:#ffffff" d="M 96.08 14 C 58.22 14 28 26.13 28 26.13 L 28.03 27.12 C 28.20 27.05 58.33 15 96.08 15 C 133.82 15 163.95 27.05 163.97 27.12 L 164 26.13 C 164.16 26.13 133.94 14 96.08 14 z "/>
</svg>
