<?xml version='1.0' encoding='utf-8'?>
<svg xmlns="http://www.w3.org/2000/svg" width="192" height="192" version="1" id="svg12">
  <defs>
    <filter style="color-interpolation-filters:sRGB" id="filter955" x="0.05" width="1.10" y="0.05" height="1.10">
      <feGaussianBlur stdDeviation="3.20"/>
    </filter>
    <filter style="color-interpolation-filters:sRGB" id="filter16203" x="0.06" y="0.09" width="1.13" height="1.18">
      <feGaussianBlur stdDeviation="3.16"/>
    </filter>
  </defs>
  <rect style="filter:url(#filter955);opacity:0.20;fill:#000000" width="160" height="160" x="16" y="20" rx="30" ry="30"/>
  <rect style="fill:#70b93d" width="160" height="160" x="16" y="16" rx="30" ry="30"/>
  <path style="filter:url(#filter16203);opacity:0.20;fill:#000000" d="m 92.06,51.85 c -1.22,0.00 -2.24,0.20 -3.30,0.64 -1.39,0.57 -3.17,1.72 -3.20,2.07 0.01,0.07 1.57,2.14 3.51,4.59 1.94,2.45 3.47,4.54 3.40,4.65 0.07,0.11 0.60,0.28 -1.19,0.37 -1.70,0.27 -7.49,1.98 -10.89,3.21 -4.30,1.56 -11.56,5.27 -14.65,7.48 -2.66,1.91 -6.60,5.66 -7.41,7.06 l 0.47,0.81 5.49,-1.14 c 51.95,-10.82 68.84,-14.40 68.72,-14.59 0.26,0.41 -3.47,-1.91 -5.79,-2.70 -7.85,-2.66 -20.14,-3.02 -31.13,0.92 -1.16,0.22 -2.15,0.36 -2.20,0.31 0.08,0.08 2.50,-10.10 2.81,-10.91 0.19,0.50 -1.55,0.93 -3.71,0.93 z M 144,59.00 a 8,8 0 0 0 -8,8 8,8 0 0 0 2.94,6.18 c -1.80,1.90 -6.63,4.46 -10.38,5.49 -3.12,0.86 -3.14,0.87 -1.49,1.14 3.71,0.63 10.74,0.18 14.69,-1.68 0.63,0.24 1.90,0.92 2.48,-1.21 A 6.39,6.39 0 0 0 144,78.61 a 6.39,6.39 0 0 0 6.39,6.39 6.39,6.39 0 0 0 6.39,-6.39 6.39,6.39 0 0 0 0.22,-1.65 8,8 0 0 0 7.44,-7.96 8,8 0 0 0 -8,-8 8,8 0 0 0 -5.14,1.88 A 8,8 0 0 0 144,59.00 Z m -86.08,29 4.19,4.94 0.25,1.40 c 0.02,0.14 0.09,0.50 0.12,0.66 H 48 a 4,4 0 0 0 -4,4 4,4 0 0 0 4,4.00 h 12.24 c 0.46,2.43 0.90,4.73 0.90,4.73 0.36,1.98 0.84,4.56 -1.36,7.36 -1.73,9.30 -2.05,11.40 -1.98,13.35 0.07,1.97 0.19,2.47 0.81,3.40 0.40,0.60 1.20,1.32 1.77,1.60 1.01,0.50 2.64,0.52 37.41,0.56 34.78,0.04 36.40,0.07 37.41,0.56 0.58,0.28 1.37,-1.00 1.77,-1.60 0.62,0.93 0.74,-1.42 0.81,-3.40 0.07,-1.95 0.24,-4.05 -1.98,-13.35 0.52,-2.79 -1.00,-5.37 -1.36,-7.36 0,0 0.44,-2.31 0.90,-4.73 H 144 a 4,4 0 0 0 4,-4.00 4,4 0 0 0 -4,-4 h -13.73 c 0.03,0.16 0.10,0.52 0.12,0.66 l 0.25,-1.40 4.19,-4.94 H 96 Z"/>
  <path style="opacity:0.20;fill:#ffffff" d="M 46 16 C 29.38 16 16 29.38 16 46 L 16 47 C 16 30.38 29.38 17 46 17 L 146 17 C 162.62 17 176 30.38 176 47 L 176 46 C 176 29.38 162.62 16 146 16 L 46 16 z "/>
  <path style="fill:#236e41" d="m 92.06,49.85 c -1.22,0.00 -2.24,0.20 -3.30,0.64 -1.39,0.57 -3.17,1.72 -3.20,2.07 0.01,0.07 1.57,2.14 3.51,4.59 1.94,2.45 3.47,4.54 3.40,4.65 0.07,0.11 0.60,0.28 -1.19,0.37 -1.70,0.27 -7.49,1.98 -10.89,3.21 -4.30,1.56 -11.56,5.27 -14.65,7.48 -2.66,1.91 -6.60,5.66 -7.41,7.06 l 0.47,0.81 5.49,-1.14 c 51.95,-10.82 68.84,-14.40 68.72,-14.59 0.26,0.41 -3.47,-1.91 -5.79,-2.70 -7.85,-2.66 -20.14,-3.02 -31.13,0.92 -1.16,0.22 -2.15,0.36 -2.20,0.31 0.08,0.08 2.50,-10.10 2.81,-10.91 0.19,0.50 -1.55,0.93 -3.71,0.93 z M 144,57.00 a 8,8 0 0 0 -8,8 8,8 0 0 0 2.94,6.18 c -1.80,1.90 -6.63,4.46 -10.38,5.49 -3.12,0.86 -3.14,0.87 -1.49,1.14 3.71,0.63 10.74,0.18 14.69,-1.68 0.63,0.24 1.90,0.92 2.48,-1.21 A 6.39,6.39 0 0 0 144,76.61 a 6.39,6.39 0 0 0 6.39,6.39 6.39,6.39 0 0 0 6.39,-6.39 6.39,6.39 0 0 0 0.22,-1.65 8,8 0 0 0 7.44,-7.96 8,8 0 0 0 -8,-8 8,8 0 0 0 -5.14,1.88 A 8,8 0 0 0 144,57.00 Z m -86.08,29 4.19,4.94 0.25,1.40 c 0.02,0.14 0.09,0.50 0.12,0.66 H 48 a 4,4 0 0 0 -4,4 4,4 0 0 0 4,4.00 h 12.24 c 0.46,2.43 0.90,4.73 0.90,4.73 0.36,1.98 0.84,4.56 -1.36,7.36 -1.73,9.30 -2.05,11.40 -1.98,13.35 0.07,1.97 0.19,2.47 0.81,3.40 0.40,0.60 1.20,1.32 1.77,1.60 1.01,0.50 2.64,0.52 37.41,0.56 34.78,0.04 36.40,0.07 37.41,0.56 0.58,0.28 1.37,-1.00 1.77,-1.60 0.62,0.93 0.74,-1.42 0.81,-3.40 0.07,-1.95 0.24,-4.05 -1.98,-13.35 0.52,-2.79 -1.00,-5.37 -1.36,-7.36 0,0 0.44,-2.31 0.90,-4.73 H 144 a 4,4 0 0 0 4,-4.00 4,4 0 0 0 -4,-4 h -13.73 c 0.03,0.16 0.10,0.52 0.12,0.66 l 0.25,-1.40 4.19,-4.94 H 96 Z"/>
</svg>
