<svg xmlns="http://www.w3.org/2000/svg" id="svg14" width="192" height="192" version="1.1"><defs><filter style="color-interpolation-filters:sRGB" id="filter2494" width="1.15" height="1.15" x=".08" y=".07"><feGaussianBlur stdDeviation="3.44"/></filter><filter style="color-interpolation-filters:sRGB" id="filter2536" width="1.1" height="1.1" x=".05" y=".05"><feGaussianBlur stdDeviation="3.2"/></filter></defs><rect style="filter:url(#filter2536);opacity:.2;fill:#000" width="160" height="160" x="16" y="20" rx="32" ry="32"/><rect style="fill:#fe751d" width="160" height="160" x="16" y="16" rx="32" ry="32"/><path style="filter:url(#filter2494);opacity:.2;fill:#000" d="m 95.31,43.00 c -3.29,0.00 -6.51,0.32 -9.52,0.96 l -1.41,0.30 -2.51,8.68 c -1.38,4.78 -2.48,8.76 -2.44,8.85 0.04,0.09 14.36,2.31 31.83,4.92 17.47,2.61 32.02,4.77 32.33,4.79 0.50,0.03 0.46,0.15 0.31,-1.55 -3.71,-6.69 -11.66,-14.64 -19.14,-19.17 -8.32,-5.03 -18.94,-7.80 -28.82,-7.79 z m -16.11,2.38 c 0,0.06 0.95,0.23 -2.12,0.65 C 64.26,50.67 53.23,60.45 46.95,72.75 39.95,86.46 39.08,102.84 44.59,117.07 l 0.80,2.06 4.60,0.65 c 2.53,0.36 5.07,0.63 5.65,0.60 l 1.06,0.04 8.13,-26.83 C 72.00,69.83 79.21,45.72 79.21,45.38 Z M 127,73.75 v 69.34 c 0,0 1.05,0.57 1.98,-1.27 19.27,-14.56 26.91,-39.86 18.84,-62.43 L 146.76,76.41 145.52,76.21 C 140.86,75.43 127.10,73.63 127,73.75 Z M 47.95,124.68 c 0.20,0.20 2.78,4.76 4.73,7.24 9.34,11.90 22.87,19.32 38.29,21.02 0.69,0.08 3.65,0.09 6.59,0.02 7.81,0.17 14.34,-1.68 21.56,-4.97 L 121,147.12 v -11.19 c 0.60,0.10 -72.74,-11.57 -73.05,-11.26 z"/><path style="fill:#fdfdfc" d="m 95.31,41 c -3.29,0.00 -6.51,0.32 -9.52,0.96 l -1.41,0.30 -2.51,8.68 c -1.38,4.78 -2.48,8.76 -2.44,8.85 0.04,0.09 14.36,2.31 31.83,4.92 17.47,2.61 32.02,4.77 32.33,4.79 0.50,0.03 0.46,0.15 0.31,-1.55 C 139.57,61.27 131.62,53.31 124.13,48.79 115.82,43.76 105.20,40.99 95.31,41 Z m -16.11,2.38 c 0,0.06 0.95,0.23 -2.12,0.65 -12.83,4.64 -23.85,14.42 -30.13,26.72 -7.00,13.72 -7.88,30.09 -2.36,44.32 l 0.80,2.06 4.60,0.65 c 2.53,0.36 5.07,0.63 5.65,0.60 l 1.06,0.04 8.13,-26.83 C 72.00,67.83 79.21,43.72 79.21,43.38 Z M 127,71.75 V 141.09 c 0,0 1.05,0.57 1.98,-1.27 19.27,-14.56 26.91,-39.86 18.84,-62.43 l -1.06,-2.98 -1.24,0.21 C 140.86,73.43 127.10,71.63 127,71.75 Z M 47.95,122.68 c 0.20,0.20 2.78,4.76 4.73,7.24 9.34,11.90 22.87,19.32 38.29,21.02 0.69,0.08 3.65,0.09 6.59,0.02 7.81,0.17 14.34,-1.68 21.56,-4.97 L 121,145.12 v -11.19 c 0.60,0.10 -72.74,-11.57 -73.05,-11.26 z"/><path style="opacity:.2;fill:#fff" d="M 48 16 C 30.27 16 16 30.27 16 48 L 16 49 C 16 31.27 30.27 17 48 17 L 144 17 C 161.73 17 176 31.27 176 49 L 176 48 C 176 30.27 161.73 16 144 16 L 48 16 z"/></svg>