<?xml version='1.0' encoding='utf-8'?>
<svg xmlns="http://www.w3.org/2000/svg" width="192" height="192" version="1.1" id="svg14">
  <defs>
    <filter style="color-interpolation-filters:sRGB" id="filter849" x="0.05" y="0.05" width="1.10" height="1.10">
      <feGaussianBlur stdDeviation="3.20"/>
    </filter>
    <filter style="color-interpolation-filters:sRGB" id="filter15787" x="0.07" y="0.07" width="1.15" height="1.15">
      <feGaussianBlur stdDeviation="3.69"/>
    </filter>
  </defs>
  <circle style="filter:url(#filter849);opacity:0.20" cx="96" cy="100" r="80"/>
  <circle style="fill:#e4e4e4" cx="96" cy="96" r="80"/>
  <path style="filter:url(#filter15787);opacity:0.20;fill:#000000;color:#000000" d="m 96,39 c -32.55,0 -59,26.45 -59,59 0,32.55 26.45,59 59,59 32.55,0 59,-26.45 59,-59 0,-32.55 -26.45,-59 -59,-59 z m 0,6 c 29.31,0 53,23.69 53,53 0,29.31 -23.69,53 -53,53 C 66.69,151 43,127.31 43,98 43,68.69 66.69,45 96,45 Z M 96,57.02 87.54,65.44 89.65,67.56 96,61.25 102.35,67.56 104.47,65.44 Z M 87,82 a 1.19,1.19 0 0 0 0.60,0.16 1.19,1.19 0 0 0 0.60,1.03 V 87 90.81 a 1.19,1.19 0 0 0 1.79,1.03 l 3.31,-1.91 3.31,-1.90 a 1.19,1.19 0 0 0 0,-2.06 l -3.31,-1.90 -3.31,-1.91 A 1.19,1.19 0 0 0 87,82 Z m 10,5 a 1.19,1.19 0 0 0 0.60,0.16 1.19,1.19 0 0 0 0.60,1.03 V 92 95.81 a 1.19,1.19 0 0 0 1.79,1.03 l 3.31,-1.91 3.31,-1.90 a 1.19,1.19 0 0 0 0,-2.06 l -3.31,-1.90 -3.31,-1.91 A 1.19,1.19 0 0 0 97,87 Z m -33.56,2.54 -8.42,8.46 8.42,8.47 2.13,-2.12 L 59.25,98.00 65.57,91.65 Z m 65.12,0 -2.13,2.12 6.32,6.35 -6.32,6.35 2.13,2.12 8.42,-8.47 z M 87,93 a 1.19,1.19 0 0 0 0.60,0.16 1.19,1.19 0 0 0 0.60,1.03 V 98 v 3.81 a 1.19,1.19 0 0 0 1.79,1.03 l 3.31,-1.91 3.31,-1.90 a 1.19,1.19 0 0 0 0,-2.06 l -3.31,-1.90 -3.31,-1.91 A 1.19,1.19 0 0 0 87,93 Z m 20.19,0 A 1.19,1.19 0 0 0 106.59,93.16 1.19,1.19 0 0 0 106,94.19 V 98 v 3.81 a 1.19,1.19 0 0 0 1.79,1.03 l 3.31,-1.91 3.31,-1.90 a 1.19,1.19 0 0 0 0,-2.06 l -3.31,-1.90 -3.31,-1.91 A 1.19,1.19 0 0 0 107.19,93 Z M 97,99 a 1.19,1.19 0 0 0 0.60,0.16 1.19,1.19 0 0 0 0.60,1.03 V 104 v 3.81 a 1.19,1.19 0 0 0 1.79,1.03 l 3.31,-1.91 3.31,-1.90 a 1.19,1.19 0 0 0 0,-2.06 l -3.31,-1.90 -3.31,-1.91 A 1.19,1.19 0 0 0 97,99 Z m -10,6 a 1.19,1.19 0 0 0 0.60,0.16 1.19,1.19 0 0 0 0.60,1.03 V 110 v 3.81 a 1.19,1.19 0 0 0 1.79,1.03 l 3.31,-1.91 3.31,-1.90 a 1.19,1.19 0 0 0 0,-2.06 l -3.31,-1.90 -3.31,-1.91 A 1.19,1.19 0 0 0 87,105 Z m 2.65,23.44 -2.12,2.13 L 96,138.98 104.47,130.56 102.35,128.44 96,134.75 Z"/>
  <path style="opacity:0.20;fill:#ffffff" d="M 96,16 A 80,80 0 0 0 16,96 80,80 0 0 0 16.02,96.64 80,80 0 0 1 96,17 80,80 0 0 1 175.98,96.30 80,80 0 0 0 176,96 80,80 0 0 0 96,16 Z"/>
  <path style="fill:#24b5fc;color:#000000" d="m 96,37 c -32.55,0 -59,26.45 -59,59 0,32.55 26.45,59 59,59 32.55,0 59,-26.45 59,-59 0,-32.55 -26.45,-59 -59,-59 z m 0,6 c 29.31,0 53,23.69 53,53 0,29.31 -23.69,53 -53,53 C 66.69,149 43,125.31 43,96 43,66.69 66.69,43 96,43 Z"/>
  <path style="fill:#d53ba7;color:#000000" d="M 96,55.02 87.54,63.44 89.65,65.56 96,59.25 l 6.35,6.32 2.12,-2.13 z"/>
  <path style="fill:#d53ba7;color:#000000" d="m 107.19,91.00 a 1.19,1.19 0 0 0 0.60,0.16 1.19,1.19 0 0 0 0.59,1.03 v 3.81 3.81 a 1.19,1.19 0 0 0 1.79,1.03 l 3.31,-1.91 3.31,-1.90 a 1.19,1.19 0 0 0 0,-2.06 l -3.31,-1.90 -3.31,-1.91 a 1.19,1.19 0 0 0 0.60,0.16 z"/>
  <path style="fill:#d53ba7;color:#000000" d="m 97,85 a 1.19,1.19 0 0 0 0.60,0.16 1.19,1.19 0 0 0 0.59,1.03 v 3.81 3.81 a 1.19,1.19 0 0 0 1.79,1.03 l 3.31,-1.91 3.31,-1.90 a 1.19,1.19 0 0 0 0,-2.06 l -3.31,-1.90 -3.31,-1.91 A 1.19,1.19 0 0 0 97,85 Z"/>
  <path style="fill:#d53ba7;color:#000000" d="m 97,97 a 1.19,1.19 0 0 0 0.60,0.16 1.19,1.19 0 0 0 0.59,1.03 v 3.81 3.81 a 1.19,1.19 0 0 0 1.79,1.03 l 3.31,-1.91 3.31,-1.90 a 1.19,1.19 0 0 0 0,-2.06 l -3.31,-1.90 -3.31,-1.91 A 1.19,1.19 0 0 0 97,97 Z"/>
  <path style="fill:#d53ba7;color:#000000" d="m 87,91.00 a 1.19,1.19 0 0 0 0.60,0.16 1.19,1.19 0 0 0 0.59,1.03 v 3.81 3.81 a 1.19,1.19 0 0 0 1.79,1.03 l 3.31,-1.91 3.31,-1.90 a 1.19,1.19 0 0 0 0,-2.06 L 90.90,93.07 87.60,91.16 A 1.19,1.19 0 0 0 87,91.00 Z"/>
  <path style="fill:#d53ba7;color:#000000" d="m 87,80 a 1.19,1.19 0 0 0 0.60,0.16 1.19,1.19 0 0 0 0.59,1.03 v 3.81 3.81 a 1.19,1.19 0 0 0 1.79,1.03 l 3.31,-1.91 3.31,-1.90 a 1.19,1.19 0 0 0 0,-2.06 L 90.90,82.07 87.60,80.16 A 1.19,1.19 0 0 0 87,80 Z"/>
  <path style="fill:#d53ba7;color:#000000" d="m 87,103 a 1.19,1.19 0 0 0 0.60,0.16 1.19,1.19 0 0 0 0.59,1.03 v 3.81 3.81 a 1.19,1.19 0 0 0 1.79,1.03 l 3.31,-1.91 3.31,-1.90 a 1.19,1.19 0 0 0 0,-2.06 l -3.31,-1.90 -3.31,-1.91 A 1.19,1.19 0 0 0 87,103 Z"/>
  <path style="fill:#d53ba7;color:#000000" d="m 96,136.98 -8.46,-8.42 2.12,-2.13 6.35,6.32 6.35,-6.32 2.12,2.13 z"/>
  <path style="fill:#d53ba7;color:#000000" d="m 136.98,96.00 -8.42,-8.46 -2.13,2.12 6.32,6.35 -6.32,6.35 2.13,2.12 z"/>
  <path style="fill:#d53ba7;color:#000000" d="m 55.02,96.00 8.42,-8.46 2.13,2.12 -6.32,6.35 6.32,6.35 -2.13,2.12 z"/>
</svg>
