<?xml version='1.0' encoding='utf-8'?>
<svg xmlns="http://www.w3.org/2000/svg" width="192" height="192" version="1" id="svg26">
  <defs>
    <filter style="color-interpolation-filters:sRGB" id="filter885" x="0.05" width="1.10" y="0.05" height="1.10">
      <feGaussianBlur stdDeviation="2.40"/>
    </filter>
    <filter style="color-interpolation-filters:sRGB" id="filter901" x="0.05" width="1.10" y="0.04" height="1.09">
      <feGaussianBlur stdDeviation="1.04"/>
    </filter>
    <filter style="color-interpolation-filters:sRGB" id="filter917" x="0.04" width="1.08" y="0.06" height="1.13">
      <feGaussianBlur stdDeviation="2.56"/>
    </filter>
    <filter style="color-interpolation-filters:sRGB" id="filter939" x="0.05" width="1.10" y="0.05" height="1.10">
      <feGaussianBlur stdDeviation="3.20"/>
    </filter>
  </defs>
  <rect style="filter:url(#filter939);opacity:0.20;fill:#000000" width="160" height="160" x="-180" y="-176" rx="80" ry="80" transform="matrix(0,-1,-1,0,0,0)"/>
  <rect transform="matrix(0,-1,-1,0,0,0)" ry="80" rx="80" y="-176" x="-176" height="160" width="160" style="fill:#3f3f3f"/>
  <path d="M 21.83,52.00 A 5.69,6.03 0 0 0 16,58.02 v 83.95 a 5.69,6.03 0 0 0 8.55,5.21 l 34.30,-20.98 34.30,-20.98 a 5.69,6.03 0 0 0 0,-10.45 L 58.85,73.79 24.55,52.81 a 5.69,6.03 0 0 0 -2.72,0.81 z m 148.34,0 a 5.69,6.03 0 0 0 -2.71,0.81 L 133.15,73.79 98.85,94.78 a 5.69,6.03 0 0 0 0,10.45 l 34.30,20.98 34.30,20.98 A 5.69,6.03 0 0 0 176,141.97 V 58.02 a 5.69,6.03 0 0 0 -5.83,-6.02 5.69,6.03 0 0 1 0.01,0 z" style="filter:url(#filter917);opacity:0.20"/>
  <path style="opacity:0.10;fill:#ffffff" d="M 96 16 C 51.68 16 16.01 51.68 16.01 96 C 16.01 96.34 16.01 96.67 16.01 97 C 16.01 52.68 51.68 17 96 17 C 140.32 17 175.99 52.68 175.99 97 C 175.99 96.67 175.99 96.34 175.99 96 C 175.99 51.68 140.32 16 96 16 z "/>
  <path d="M 21.83,48 A 5.69,6.03 0 0 0 16,54.02 v 41.98 41.97 a 5.69,6.03 0 0 0 8.55,5.21 l 34.30,-20.98 34.30,-20.98 a 5.69,6.03 0 0 0 0,-10.45 L 58.85,69.80 24.55,48.81 A 5.69,6.03 0 0 0 21.83,48 Z m 148.34,0 a 5.69,6.03 0 0 0 -2.71,0.81 L 133.15,69.80 98.85,90.78 a 5.69,6.03 0 0 0 0,10.45 l 34.30,20.98 34.30,20.98 A 5.69,6.03 0 0 0 176,137.98 V 96.01 54.02 A 5.69,6.03 0 0 0 170.17,48 a 5.69,6.03 0 0 1 0.01,0 z" style="fill:#e4e4e4"/>
  <rect transform="matrix(0,-1,-1,0,0,0)" ry="60" rx="60" y="-156" x="-160" height="120" width="120" style="filter:url(#filter885);opacity:0.20;fill:#000000"/>
  <path style="opacity:0.20;fill:#ffffff" d="M 21.83 48 A 5.69 6.03 0 0 0 16 54.02 L 16 55.02 A 5.69 6.03 0 0 1 21.83 49 A 5.69 6.03 0 0 1 24.55 49.81 L 58.85 70.80 L 93.15 91.78 A 5.69 6.03 0 0 1 95.97 96.50 A 5.69 6.03 0 0 0 93.15 90.78 L 58.85 69.80 L 24.55 48.81 A 5.69 6.03 0 0 0 21.83 48 z M 170.16 48 A 5.69 6.03 0 0 0 167.45 48.81 L 133.15 69.80 L 98.85 90.78 A 5.69 6.03 0 0 0 96.03 96.50 A 5.69 6.03 0 0 1 98.85 91.78 L 133.15 70.80 L 167.45 49.81 A 5.69 6.03 0 0 1 170.16 49 A 5.69 6.03 0 0 0 170.17 49 A 5.69 6.03 0 0 1 176 55.02 L 176 54.02 A 5.69 6.03 0 0 0 170.17 48 A 5.69 6.03 0 0 1 170.16 48 z "/>
  <rect transform="matrix(0,-1,-1,0,0,0)" ry="60" rx="60" y="-156" x="-156" height="120" width="120" style="fill:#ff922d"/>
  <path d="m 128,100 -24,14 -24.00,14 V 100.00 72.00 l 24.00,14 z" style="filter:url(#filter901);opacity:0.20"/>
  <path d="M 128,96.00 104,110 80.00,124 V 96.00 68.00 l 24.00,14 z" style="fill:#ffffff"/>
  <path style="opacity:0.20;fill:#ffffff" d="M 96 36 C 62.76 36 36 62.76 36 96 C 36 96.13 36.01 96.25 36.02 96.37 C 36.35 63.42 62.97 37 96 37 C 129.03 37 155.65 63.42 155.98 96.37 C 155.99 96.25 156 96.13 156 96 C 156 62.76 129.24 36 96 36 z "/>
</svg>
