<?xml version='1.0' encoding='utf-8'?>
<svg xmlns="http://www.w3.org/2000/svg" width="192" height="192" version="1" id="svg14">
  <defs>
    <filter style="color-interpolation-filters:sRGB" id="filter850" x="0.05" width="1.10" y="0.05" height="1.10">
      <feGaussianBlur stdDeviation="3.20"/>
    </filter>
    <filter style="color-interpolation-filters:sRGB" id="filter3225" x="0.11" y="0.11" width="1.22" height="1.22">
      <feGaussianBlur stdDeviation="4.14"/>
    </filter>
  </defs>
  <circle style="filter:url(#filter850);opacity:0.20;fill:#000000" cx="96" cy="100" r="80"/>
  <circle r="80" cy="96" cx="96" style="fill:#3f3f3f"/>
  <path style="filter:url(#filter3225);opacity:0.20;fill:#000000;color:#000000" d="M 107,52 C 87.73,52 72,67.73 72,87 v 25 h -6 c -8.78,0 -16,7.22 -16,16 0,8.78 7.22,16 16,16 8.78,0 16,-7.22 16,-16 v -6 h 25 c 19.27,0 35,-15.73 35,-35 0,-19.27 -15.73,-35 -35,-35 z m 0,10 c 13.87,0 25,11.13 25,25 0,13.87 -11.13,25 -25,25 H 82 V 87 C 82,73.13 93.13,62 107,62 Z m -41,60 h 6 v 6 c 0,3.37 -2.63,6 -6,6 -3.37,0 -6,-2.63 -6,-6 0,-3.37 2.63,-6 6,-6 z"/>
  <path style="opacity:0.10;fill:#ffffff" d="M 96 16 A 80 80 0 0 0 16 96 A 80 80 0 0 0 16.02 96.47 A 80 80 0 0 1 96 17 A 80 80 0 0 1 175.97 96.51 A 80 80 0 0 0 176 96 A 80 80 0 0 0 96 16 z "/>
  <path style="fill:#00fbb5;color:#000000" d="M 107,50 C 87.73,50 72,65.73 72,85 v 25 h -6 c -8.78,0 -16,7.22 -16,16 0,8.78 7.22,16 16,16 8.78,0 16,-7.22 16,-16 v -6 h 25 c 19.27,0 35,-15.73 35,-35 0,-19.27 -15.73,-35 -35,-35 z m 0,10 c 13.87,0 25,11.13 25,25 0,13.87 -11.13,25 -25,25 H 82 V 85 C 82,71.13 93.13,60 107,60 Z m -41,60 h 6 v 6 c 0,3.37 -2.63,6 -6,6 -3.37,0 -6,-2.63 -6,-6 0,-3.37 2.63,-6 6,-6 z"/>
  <path style="opacity:0.20;fill:#ffffff;color:#000000" d="M 107 50 C 87.73 50 72 65.73 72 85 L 72 86 C 72 66.73 87.73 51 107 51 C 126.10 51 141.72 66.46 141.99 85.50 C 141.99 85.33 142 85.17 142 85 C 142 65.73 126.27 50 107 50 z M 131.97 85.50 C 131.71 99.13 120.70 110 107 110 L 82 110 L 82 111 L 107 111 C 120.87 111 132 99.87 132 86 C 132 85.83 131.98 85.67 131.97 85.50 z M 66 110 C 57.22 110 50 117.22 50 126 C 50 126.17 50.02 126.33 50.03 126.50 C 50.30 117.95 57.39 111 66 111 L 72 111 L 72 110 L 66 110 z M 72 126 C 72 129.37 69.37 132 66 132 C 62.80 132 60.30 129.62 60.05 126.50 C 60.04 126.67 60 126.83 60 127 C 60 130.37 62.63 133 66 133 C 69.37 133 72 130.37 72 127 L 72 126 z "/>
</svg>
