<?xml version='1.0' encoding='utf-8'?>
<svg xmlns="http://www.w3.org/2000/svg" width="192" height="192" version="1" id="svg12">
  <defs>
    <filter style="color-interpolation-filters:sRGB" id="filter860" x="0.05" width="1.10" y="0.05" height="1.10">
      <feGaussianBlur stdDeviation="3.20"/>
    </filter>
    <filter style="color-interpolation-filters:sRGB" id="filter853" x="0.04" width="1.09" y="0.05" height="1.11">
      <feGaussianBlur stdDeviation="1.71"/>
    </filter>
  </defs>
  <rect style="filter:url(#filter860);opacity:0.20" width="160" height="160" x="16" y="20" rx="8" ry="8"/>
  <rect style="fill:#039ae3" width="160" height="160" x="16" y="16" rx="8" ry="8"/>
  <path style="opacity:0.20;fill:#ffffff" d="m 24,16 c -4.43,0 -8,3.57 -8,8 v 1 c 0,-4.43 3.57,-8 8,-8 h 144 c 4.43,0 8,3.57 8,8 v -1 c 0,-4.43 -3.57,-8 -8,-8 z"/>
  <path d="M 48,72.35 91.00,123.73 101.27,136 116.60,123.16 142.68,101.34 132.41,89.07 106.34,110.89 63.34,59.51 Z" style="filter:url(#filter853);opacity:0.20;fill:#000000"/>
  <path style="fill:#ffffff" d="M 48,70.35 91.00,121.73 101.27,134 116.60,121.16 142.68,99.34 132.41,87.07 106.34,108.89 63.34,57.51 Z"/>
</svg>
