<?xml version='1.0' encoding='utf-8'?>
<svg xmlns="http://www.w3.org/2000/svg" width="192" height="192" version="1" id="svg20">
  <defs>
    <filter style="color-interpolation-filters:sRGB" id="filter861" x="0.05" y="0.05" width="1.10" height="1.10">
      <feGaussianBlur stdDeviation="3.20"/>
    </filter>
    <filter style="color-interpolation-filters:sRGB" id="filter868" x="0.07" y="0.04" width="1.14" height="1.07">
      <feGaussianBlur stdDeviation="0.54"/>
    </filter>
  </defs>
  <path style="filter:url(#filter861);opacity:0.20" d="m 17.85,104.43 73.73,73.73 c 2.45,2.45 6.40,2.45 8.85,0 l 73.73,-73.73 c 2.45,-2.45 2.45,-6.40 0,-8.85 L 100.43,21.85 c -2.45,-2.45 -6.40,-2.45 -8.85,0 L 17.85,95.58 c -2.45,2.45 -2.45,6.40 0,8.85 z m 0.39,16.19 57.93,57.93 c 1.93,1.93 5.03,1.93 6.95,0.00 l 57.93,-57.93 c 1.93,-1.93 1.93,-5.03 0,-6.95 L 82.34,55.74 c -1.93,-1.93 -5.03,-1.93 -6.95,0.00 L 17.45,113.67 c -1.93,1.93 -1.93,5.03 0,6.95 z m 34.28,0 57.93,57.93 c 1.93,1.93 5.03,1.93 6.95,0 l 57.93,-57.93 c 1.93,-1.93 1.93,-5.03 0,-6.95 L 116.62,55.74 c -1.93,-1.93 -5.03,-1.93 -6.95,0 L 51.74,113.67 c -1.93,1.93 -1.93,5.03 0.00,6.95 z"/>
  <rect style="fill:#4bae4f" width="91.76" height="91.76" x="89.89" y="-70.12" rx="4.92" ry="4.92" transform="matrix(0.71,0.71,0.71,0.71,0,0)"/>
  <rect style="fill:#4bae4f" width="91.76" height="91.76" x="114.13" y="-45.88" rx="4.92" ry="4.92" transform="matrix(0.71,0.71,0.71,0.71,0,0)"/>
  <rect style="fill:#f58411" width="116.79" height="116.79" x="77.37" y="-58.40" rx="6.26" ry="6.26" transform="matrix(0.71,0.71,0.71,0.71,0,0)"/>
  <path style="opacity:0.20;fill:#ffffff" d="M 96 16.01 C 94.40 16.01 92.80 16.62 91.58 17.84 L 17.85 91.57 C 16.51 92.91 15.92 94.70 16.05 96.44 C 16.17 95.03 16.77 93.66 17.85 92.58 L 91.58 18.85 C 92.80 17.62 94.40 17.01 96 17.01 C 97.60 17.01 99.20 17.62 100.43 18.85 L 174.16 92.58 C 175.24 93.66 175.83 95.03 175.95 96.44 C 176.08 94.69 175.50 92.91 174.16 91.57 L 100.43 17.84 C 99.20 16.62 97.60 16.01 96 16.01 z "/>
  <g style="filter:url(#filter868);opacity:0.20" transform="matrix(2.62,0,0,2.71,10.67,12.67)">
    <path d="m 34.05,42.31 c 1.44,0.13 1.86,0.45 2.61,-1.15 0.76,0.70 0.95,-1.58 0.95,-2.79 0,-1.09 0.03,-2.53 0.78,-3.29 0.75,0.76 -1.32,-1.24 -2.77,-1.63 z M 31.00,20.66 c -1.31,0.09 -2.01,0.62 -2.73,1.30 0.72,0.66 0.82,1.52 0.82,2.64 0,1.02 0.07,1.90 0.73,2.57 0.67,0.67 1.41,0.95 2.83,1.37 z m -7.62,21.65 v -4.92 h 2.03 c 0.05,1.74 0.63,2.49 1.60,3.38 0.97,0.89 2.09,1.50 3.99,1.54 v -8.86 c -2.92,0.81 -4.66,-2.29 -5.84,-3.35 -1.18,-1.07 -1.78,-2.48 -1.78,-4.23 0,-2.03 0.70,-3.67 2.10,-4.90 1.40,-1.23 3.03,-2.12 5.52,-2.28 v -4.92 h 3.05 v 4.92 c 1.39,0.31 1.80,0.51 2.88,0.83 1.19,0.34 2.60,0.72 3.73,1.24 v 4.82 h -2.03 c 0.15,-1.48 0.95,-2.46 -1.83,-3.32 0.88,0.85 -1.42,-1.49 -2.74,-1.60 v 8.86 c 3.13,0.85 4.49,1.75 5.74,2.86 1.26,1.09 1.88,2.19 1.88,4.03 0,2.11 0.73,4.18 -2.21,5.45 -1.48,1.27 -2.73,2.23 -5.41,2.42 v 4.92 H 31.00 V 44.28 c -1.22,0.03 -2.17,0.43 -3.48,0.76 -1.31,0.32 -2.72,0.57 -4.14,-1.21 z"/>
  </g>
  <g style="fill:#ffffff" transform="matrix(2.62,0,0,2.71,10.67,10.68)">
    <path style="fill:#ffffff" d="m 34.05,42.31 c 1.44,0.13 1.86,0.45 2.61,-1.15 0.76,0.70 0.95,-1.58 0.95,-2.79 0,-1.09 0.03,-2.53 0.78,-3.29 0.75,0.76 -1.32,-1.24 -2.77,-1.63 z M 31.00,20.66 c -1.31,0.09 -2.01,0.62 -2.73,1.30 0.72,0.66 0.82,1.52 0.82,2.64 0,1.02 0.07,1.90 0.73,2.57 0.67,0.67 1.41,0.95 2.83,1.37 z m -7.62,21.65 v -4.92 h 2.03 c 0.05,1.74 0.63,2.49 1.60,3.38 0.97,0.89 2.09,1.50 3.99,1.54 v -8.86 c -2.92,0.81 -4.66,-2.29 -5.84,-3.35 -1.18,-1.07 -1.78,-2.48 -1.78,-4.23 0,-2.03 0.70,-3.67 2.10,-4.90 1.40,-1.23 3.03,-2.12 5.52,-2.28 v -4.92 h 3.05 v 4.92 c 1.39,0.31 1.80,0.51 2.88,0.83 1.19,0.34 2.60,0.72 3.73,1.24 v 4.82 h -2.03 c 0.15,-1.48 0.95,-2.46 -1.83,-3.32 0.88,0.85 -1.42,-1.49 -2.74,-1.60 v 8.86 c 3.13,0.85 4.49,1.75 5.74,2.86 1.26,1.09 1.88,2.19 1.88,4.03 0,2.11 0.73,4.18 -2.21,5.45 -1.48,1.27 -2.73,2.23 -5.41,2.42 v 4.92 H 31.00 V 44.28 c -1.22,0.03 -2.17,0.43 -3.48,0.76 -1.31,0.32 -2.72,0.57 -4.14,-1.21 z"/>
  </g>
</svg>
