<svg xmlns="http://www.w3.org/2000/svg" id="svg12" width="192" height="192" version="1"><defs><filter style="color-interpolation-filters:sRGB" id="filter955" width="1.1" height="1.1" x=".05" y=".05"><feGaussianBlur stdDeviation="3.2"/></filter><filter style="color-interpolation-filters:sRGB" id="filter32972" width="1.15" height="1.15" x=".07" y=".07"><feGaussianBlur stdDeviation="3.38"/></filter></defs><rect style="filter:url(#filter955);opacity:.2;fill:#000" width="160" height="160" x="16" y="20" rx="30" ry="30"/><rect style="fill:#3f3f3f" width="160" height="160" x="16" y="16" rx="30" ry="30"/><path style="filter:url(#filter32972);opacity:.2;fill:#000" d="M 58,44 A 16,16 0 0 0 42,60 V 98 A 16,16 0 0 0 58,114 16,16 0 0 0 74,98 V 60 A 16,16 0 0 0 58,44 Z m 38,0 A 16,16 0 0 0 80,60 16,16 0 0 0 96,76 16,16 0 0 0 112,60 16,16 0 0 0 96,44 Z m 38,0 A 16,16 0 0 0 118,60 16,16 0 0 0 134,76 16,16 0 0 0 150,60 16,16 0 0 0 134,44 Z M 96,82 A 16,16 0 0 0 80,98 16,16 0 0 0 96,114 16,16 0 0 0 112,98 16,16 0 0 0 96,82 Z m 38,0 a 16,16 0 0 0 -16,16 16,16 0 0 0 16,16 16,16 0 0 0 16,-16 16,16 0 0 0 -16,-16 z m -76,38 a 16,16 0 0 0 -16,16 16,16 0 0 0 16,16 16,16 0 0 0 16,-16 16,16 0 0 0 -16,-16 z m 38,0 a 16,16 0 0 0 -16,16 16,16 0 0 0 16,16 16,16 0 0 0 16,-16 16,16 0 0 0 -16,-16 z m 38,0 a 16,16 0 0 0 -16,16 16,16 0 0 0 16,16 16,16 0 0 0 16,-16 16,16 0 0 0 -16,-16 z"/><path style="opacity:.1;fill:#fff" d="M 46 16 C 29.38 16 16 29.38 16 46 L 16 47 C 16 30.38 29.38 17 46 17 L 146 17 C 162.62 17 176 30.38 176 47 L 176 46 C 176 29.38 162.62 16 146 16 L 46 16 z"/><circle style="fill:#ffb825" cx="96" cy="96" r="16"/><circle style="fill:#ff434a" cx="96" cy="58" r="16"/><circle style="fill:#5eee67" cx="96" cy="134" r="16"/><circle style="fill:#009dfd" cx="134" cy="-134" r="16" transform="rotate(90)"/><circle style="fill:#696969" cx="134" cy="-58" r="16" transform="rotate(90)"/><circle style="fill:#696969" cx="96" cy="-134" r="16" transform="rotate(90)"/><path style="fill:#696969" d="M 58 42 A 16 16 0 0 0 42 58 L 42 96 A 16 16 0 0 0 58 112 A 16 16 0 0 0 74 96 L 74 58 A 16 16 0 0 0 58 42 z"/><circle style="fill:#696969" cx="58" cy="-134" r="16" transform="rotate(90)"/><path style="opacity:.2;fill:#fff" d="M 96 42 A 16 16 0 0 0 80 58 A 16 16 0 0 0 80.06 58.50 A 16 16 0 0 1 96 43 A 16 16 0 0 1 111.97 58.27 A 16 16 0 0 0 112 58 A 16 16 0 0 0 96 42 z M 96 80 A 16 16 0 0 0 80 96 A 16 16 0 0 0 80.06 96.50 A 16 16 0 0 1 96 81 A 16 16 0 0 1 111.97 96.27 A 16 16 0 0 0 112 96 A 16 16 0 0 0 96 80 z M 96 118 A 16 16 0 0 0 80 134 A 16 16 0 0 0 80.06 134.50 A 16 16 0 0 1 96 119 A 16 16 0 0 1 111.97 134.27 A 16 16 0 0 0 112 134 A 16 16 0 0 0 96 118 z M 134 118 A 16 16 0 0 0 118 134 A 16 16 0 0 0 118.06 134.50 A 16 16 0 0 1 134 119 A 16 16 0 0 1 149.97 134.27 A 16 16 0 0 0 150 134 A 16 16 0 0 0 134 118 z"/><path style="opacity:.1;fill:#fff" d="M 58 42 A 16 16 0 0 0 42 58 L 42 59 A 16 16 0 0 1 58 43 A 16 16 0 0 1 74 59 L 74 58 A 16 16 0 0 0 58 42 z M 134 42 A 16 16 0 0 0 118 58 A 16 16 0 0 0 118.07 58.50 A 16 16 0 0 1 134 43 A 16 16 0 0 1 149.97 58.25 A 16 16 0 0 0 150 58 A 16 16 0 0 0 134 42 z M 134 80 A 16 16 0 0 0 118 96 A 16 16 0 0 0 118.07 96.50 A 16 16 0 0 1 134 81 A 16 16 0 0 1 149.97 96.25 A 16 16 0 0 0 150 96 A 16 16 0 0 0 134 80 z M 58 118 A 16 16 0 0 0 42 134 A 16 16 0 0 0 42.07 134.50 A 16 16 0 0 1 58 119 A 16 16 0 0 1 73.97 134.25 A 16 16 0 0 0 74 134 A 16 16 0 0 0 58 118 z"/></svg>