<svg xmlns="http://www.w3.org/2000/svg" id="svg14" width="192" height="192" version="1"><defs><filter style="color-interpolation-filters:sRGB" id="filter844" width="1.1" height="1.09" x=".05" y=".05"><feGaussianBlur stdDeviation="2.64"/></filter><filter style="color-interpolation-filters:sRGB" id="filter860" width="1.1" height="1.09" x=".05" y=".05"><feGaussianBlur stdDeviation="2.64"/></filter></defs><path d="M 132.41,32.00 A 11.32,10.67 0 0 1 144,42.67 V 157.34 a 11.32,10.67 0 0 1 -16.98,9.23 L 74.34,137.91 21.66,109.24 a 11.32,10.67 0 0 1 0,-18.48 l 52.68,-28.67 52.68,-28.66 a 11.32,10.67 0 0 1 5.40,-1.43 z" style="filter:url(#filter860);opacity:.2"/><path d="M 132.41,28.00 A 11.32,10.67 0 0 1 144,38.67 V 153.34 a 11.32,10.67 0 0 1 -16.98,9.23 L 74.34,133.91 21.66,105.24 a 11.32,10.67 0 0 1 0,-18.48 L 74.34,58.09 127.02,29.43 a 11.32,10.67 0 0 1 5.40,-1.43 z" style="fill:#ff8f07"/><path d="M 59.59,32.00 A 11.32,10.67 0 0 0 48,42.67 V 157.34 a 11.32,10.67 0 0 0 16.98,9.23 l 52.68,-28.66 52.68,-28.66 a 11.32,10.67 0 0 0 0,-18.48 L 117.66,62.09 64.98,33.43 a 11.32,10.67 0 0 0 -5.40,-1.43 z" style="filter:url(#filter844);opacity:.2"/><path style="opacity:.1;fill:#fff" d="M 132.41 28 A 11.32 10.67 0 0 0 127.02 29.43 L 74.34 58.09 L 21.66 86.76 A 11.32 10.67 0 0 0 16.03 96.46 A 11.32 10.67 0 0 1 21.66 87.76 L 74.34 59.09 L 127.02 30.43 A 11.32 10.67 0 0 1 132.41 29 A 11.32 10.67 0 0 1 144 39.67 L 144 38.67 A 11.32 10.67 0 0 0 132.41 28 z"/><path d="M 59.59,28.00 A 11.32,10.67 0 0 0 48,38.67 V 153.34 a 11.32,10.67 0 0 0 16.98,9.23 l 52.68,-28.66 52.68,-28.66 a 11.32,10.67 0 0 0 0,-18.48 L 117.66,58.09 64.98,29.43 a 11.32,10.67 0 0 0 -5.40,-1.43 z" style="fill:#6270cd"/></svg>