<?xml version='1.0' encoding='utf-8'?>
<svg xmlns="http://www.w3.org/2000/svg" width="192" height="192" version="1" id="svg5">
  <defs>
    <filter id="filter6495" style="color-interpolation-filters:sRGB" width="1.10" height="1.10" x="0.05" y="0.05">
      <feGaussianBlur stdDeviation="3.20"/>
    </filter>
    <filter id="filter19714" style="color-interpolation-filters:sRGB" width="1.09" height="1.36" x="0.05" y="0.18">
      <feGaussianBlur stdDeviation="2.17"/>
    </filter>
  </defs>
  <rect style="filter:url(#filter6495);opacity:0.20" width="160" height="160" x="-180" y="-176" rx="12" ry="12" transform="matrix(0,-1,-1,0,0,0)"/>
  <rect style="fill:#ffe141" width="160" height="160" x="-176" y="-176" rx="12" ry="12" transform="matrix(0,-1,-1,0,0,0)"/>
  <path style="filter:url(#filter19714);opacity:0.20" d="m 41,83 v 29 h 7 v -2.85 C 48.90,110.89 51.23,112 53.60,112 59.65,112 63,107.67 63,101.16 63,94.65 59.65,90.03 53.60,90.03 c -2.06,0 -4.46,0.83 -5.60,2.21 V 83 Z m 24,0 v 29 h 7 V 83 Z m 9,0 v 6 h 7 v -6 z m 30,0 v 29 h 7 v -6.02 l 1.75,-1.83 L 117.68,112 H 126 L 117.81,99.63 125.91,91 h -8.71 L 111,97.74 V 83 Z m 24,0 v 6 h 7 v -6 z m 12,3 v 5 h -3 v 6 h 3 v 9.78 C 140,110.29 141.28,112 145.42,112 H 151 v -6 h -3.12 C 147.28,106 147,105.74 147,105.15 V 97 h 4 v -6 h -4 v -5 z m -66,5 v 21 h 7 V 91 Z m 9,0 v 21 h 7 V 99.88 c 0,-1.91 0.85,-2.84 2.50,-2.84 1.65,0 2.50,0.93 2.50,2.84 V 112 h 7 V 98.88 C 102,94.11 99.50,91 95.00,91 92.54,91 90.81,92.08 90,93.77 V 91 Z m 45,0 v 21 h 7 V 91 Z M 51.48,96 C 53.71,96 55,97.82 55,101 c 0,3.16 -1.29,5 -3.52,5 C 49.27,106 48,104.18 48,101 c 0,-3.20 1.25,-5 3.48,-5 z"/>
  <path style="opacity:0.20;fill:#ffffff" d="m 28,16 c -6.65,0 -12,5.35 -12,12 v 1 c 0,-6.65 5.35,-12 12,-12 h 136 c 6.65,0 12,5.35 12,12 v -1 c 0,-6.65 -5.35,-12 -12,-12 z"/>
  <path style="fill:#3f3f3f" d="M 41 81 L 41 110 L 48 110 L 48 107.15 C 48.90 108.89 51.23 110 53.60 110 C 59.65 110 63 105.67 63 99.16 C 63 92.65 59.65 88.03 53.60 88.03 C 51.54 88.03 49.14 88.86 48 90.23 L 48 81 L 41 81 z M 65 81 L 65 110 L 72 110 L 72 81 L 65 81 z M 74 81 L 74 87 L 81 87 L 81 81 L 74 81 z M 104 81 L 104 110 L 111 110 L 111 103.98 L 112.75 102.15 L 117.68 110 L 126 110 L 117.81 97.63 L 125.91 89 L 117.21 89 L 111 95.74 L 111 81 L 104 81 z M 74 89 L 74 110 L 81 110 L 81 89 L 74 89 z M 83 89 L 83 110 L 90 110 L 90 97.88 C 90 95.97 90.85 95.04 92.50 95.04 C 94.15 95.04 95 95.97 95 97.88 L 95 110 L 102 110 L 102 96.88 C 102 92.11 99.50 89 95.00 89 C 92.54 89 90.81 90.08 90 91.77 L 90 89 L 83 89 z M 51.48 94 C 53.71 94 55 95.82 55 99 C 55 102.16 53.71 104 51.48 104 C 49.27 104 48 102.18 48 99 C 48 95.80 49.25 94 51.48 94 z"/>
  <path style="fill:#0c831f" d="M 128 81 L 128 87 L 135 87 L 135 81 L 128 81 z M 140 84 L 140 89 L 137 89 L 137 95 L 140 95 L 140 104.78 C 140 108.29 141.28 110 145.42 110 L 151 110 L 151 104 L 147.88 104 C 147.28 104 147 103.74 147 103.15 L 147 95 L 151 95 L 151 89 L 147 89 L 147 84 L 140 84 z M 128 89 L 128 110 L 135 110 L 135 89 L 128 89 z"/>
</svg>
