<?xml version='1.0' encoding='utf-8'?>
<svg xmlns="http://www.w3.org/2000/svg" width="192" height="192" version="1" id="svg26">
  <defs>
    <filter style="color-interpolation-filters:sRGB" id="filter7316" x="-0.047999999" y="-0.047999999" width="1.096" height="1.096">
      <feGaussianBlur stdDeviation="2.84"/>
    </filter>
    <filter style="color-interpolation-filters:sRGB" id="filter7358" x="-0.038848958" y="-0.065060303" width="1.0776979" height="1.1301206">
      <feGaussianBlur stdDeviation="2.2500022"/>
    </filter>
    <filter style="color-interpolation-filters:sRGB" id="filter7400" x="-0.03" y="-0.12" width="1.06" height="1.24">
      <feGaussianBlur stdDeviation="1"/>
    </filter>
    <filter style="color-interpolation-filters:sRGB" id="filter7442" x="-0.044922153" y="-0.049603505" width="1.0898443" height="1.099207">
      <feGaussianBlur stdDeviation="0.99203633"/>
    </filter>
    <filter style="color-interpolation-filters:sRGB" id="filter7484" x="-0.032636403" y="-0.09070136" width="1.0652728" height="1.1814027">
      <feGaussianBlur stdDeviation="1.4414315"/>
    </filter>
  </defs>
  <path style="filter:url(#filter7484);opacity:0.2;fill:#000000;color:#000000" d="m 46.925781,13.999726 a 4,4 0 0 0 -1.990234,0.574219 4,4 0 0 0 -1.361328,5.490234 l 18.166015,30.140625 a 4,4 0 0 0 5.490235,1.361328 4,4 0 0 0 1.361328,-5.490234 L 50.425781,15.935273 a 4,4 0 0 0 -2.46289,-1.818359 4,4 0 0 0 -1.03711,-0.117188 z m 98.148439,0 a 4,4 0 0 0 -1.03711,0.117188 4,4 0 0 0 -2.46289,1.818359 L 123.4082,46.075898 a 4,4 0 0 0 1.36133,5.490234 4,4 0 0 0 5.49024,-1.361328 l 18.16601,-30.140625 a 4,4 0 0 0 -1.36133,-5.490234 4,4 0 0 0 -1.99023,-0.574219 z"/>
  <path style="filter:url(#filter7316);opacity:0.2;fill:#000000" d="m 96,29 a 71,71 0 0 0 -71,71 v 57 c 0,7.756 6.244,14 14,14 h 114 c 7.756,0 14,-6.244 14,-14 V 100 A 71,71 0 0 0 96,29 Z"/>
  <path style="fill:#2ab54e;color:#000000" d="M 46.925781 13 A 4 4 0 0 0 44.935547 13.574219 A 4 4 0 0 0 43.574219 19.064453 L 61.740234 49.205078 A 4 4 0 0 0 67.230469 50.566406 A 4 4 0 0 0 68.591797 45.076172 L 50.425781 14.935547 A 4 4 0 0 0 47.962891 13.117188 A 4 4 0 0 0 46.925781 13 z M 145.07422 13 A 4 4 0 0 0 144.03711 13.117188 A 4 4 0 0 0 141.57422 14.935547 L 123.4082 45.076172 A 4 4 0 0 0 124.76953 50.566406 A 4 4 0 0 0 130.25977 49.205078 L 148.42578 19.064453 A 4 4 0 0 0 147.06445 13.574219 A 4 4 0 0 0 145.07422 13 z "/>
  <path style="fill:#52d773" d="m 96,25 a 71,71 0 0 0 -71,71 71,71 0 0 0 0.429688,6 H 166.57031 A 71,71 0 0 0 167,96 71,71 0 0 0 96,25 Z"/>
  <path style="opacity:0.2;fill:#ffffff" d="M 96 25 A 71 71 0 0 0 25 96 A 71 71 0 0 0 25.035156 96.478516 A 71 71 0 0 1 96 26 A 71 71 0 0 1 166.98242 96.240234 A 71 71 0 0 0 167 96 A 71 71 0 0 0 96 25 z "/>
  <path style="fill:#4f4f4f" d="M 25 96 L 25 153 C 25 160.756 31.244 167 39 167 L 153 167 C 160.756 167 167 160.756 167 153 L 167 96 L 25 96 z "/>
  <path style="filter:url(#filter7400);opacity:0.2;fill:#000000" d="M 66,58 A 10,10 0 0 0 56,68 10,10 0 0 0 66,78 10,10 0 0 0 76,68 10,10 0 0 0 66,58 Z m 60,0 a 10,10 0 0 0 -10,10 10,10 0 0 0 10,10 10,10 0 0 0 10,-10 10,10 0 0 0 -10,-10 z"/>
  <path style="fill:#ffffff" d="M 66 56 A 10 10 0 0 0 56 66 A 10 10 0 0 0 66 76 A 10 10 0 0 0 76 66 A 10 10 0 0 0 66 56 z M 126 56 A -10 10 0 0 0 116 66 A -10 10 0 0 0 126 76 A -10 10 0 0 0 136 66 A -10 10 0 0 0 126 56 z "/>
  <path style="filter:url(#filter7442);opacity:0.2;fill:#000000;color:#000000" d="m 33.004625,34.598822 a 2.0292649,2.0249149 0 0 0 -0.733358,2.75924 l 13.671529,23.629023 a 2.0292649,2.0249149 0 0 0 3.327973,0.270558 l 13.304384,-16.213699 20.723835,-3.39039 a 2.0292649,2.0249149 0 0 0 1.42917,-3.011207 L 71.056629,15.013324 A 2.0292649,2.0249149 0 0 0 67.699333,14.781499 L 54.700822,31.434436 33.748715,34.340879 a 2.0292649,2.0249149 0 0 0 -0.74409,0.257943 z"/>
  <path style="fill:#ffffff;color:#000000" d="m 33.004625,32.598822 a 2.0292649,2.0249149 0 0 0 -0.733358,2.75924 l 13.671529,23.629023 a 2.0292649,2.0249149 0 0 0 3.327973,0.270558 l 13.304384,-16.213699 20.723835,-3.39039 a 2.0292649,2.0249149 0 0 0 1.42917,-3.011207 L 71.056629,13.013324 A 2.0292649,2.0249149 0 0 0 67.699333,12.781499 L 54.700822,29.434436 33.748715,32.340879 a 2.0292649,2.0249149 0 0 0 -0.74409,0.257943 z"/>
  <path style="filter:url(#filter7358);opacity:0.2;fill:#000000" d="m 27,99 v 15 c 42.752788,0 69,-15 69,-15 z m 69,0 c 0,0 27.24721,15 70,15 V 99 Z m -69,29 v 16 h 15.113281 c -0.04973,0.33187 -0.08752,0.66542 -0.113281,1 0,7.73199 6.268014,14 14,14 1.189405,-0.0145 2.37211,-0.18058 3.519531,-0.49414 C 59.199516,159.64397 59.02495,160.81802 59,162 c 0,7.73199 6.268014,14 14,14 3.615776,-0.0322 7.078883,-1.46205 9.664062,-3.99023 C 84.427967,177.91073 89.84114,181.96585 96,182 c 6.15886,-0.0342 11.57204,-4.08927 13.33594,-9.99023 2.58518,2.52818 6.04829,3.95808 9.66406,3.99023 7.73199,0 14,-6.26801 14,-14 4.7e-4,-1.16786 -0.14519,-2.3312 -0.43359,-3.46289 1.12095,0.29587 2.27431,0.45136 3.43359,0.46289 7.73199,0 14,-6.26801 14,-14 -0.002,-0.33372 -0.0154,-0.66726 -0.041,-1 H 166 v -16 z"/>
  <path style="fill:#ffffff" d="M 25 96 L 25 111 C 67.752788 111 96 96 96 96 L 25 96 z M 96 96 C 96 96 124.24721 111 167 111 L 167 96 L 96 96 z M 25 125 L 25 141 L 42.113281 141 A 14 14 0 0 0 42 142 A 14 14 0 0 0 56 156 A 14 14 0 0 0 59.519531 155.50586 A 14 14 0 0 0 59 159 A 14 14 0 0 0 73 173 A 14 14 0 0 0 82.664062 169.00977 A 14 14 0 0 0 96 179 A 14 14 0 0 0 109.33594 169.00977 A 14 14 0 0 0 119 173 A 14 14 0 0 0 133 159 A 14 14 0 0 0 132.56641 155.53711 A 14 14 0 0 0 136 156 A 14 14 0 0 0 150 142 A 14 14 0 0 0 149.95898 141 L 167 141 L 167 125 L 25 125 z "/>
</svg>
