<?xml version='1.0' encoding='utf-8'?>
<svg xmlns="http://www.w3.org/2000/svg" width="192" height="192" version="1" id="svg22">
  <defs>
    <filter style="color-interpolation-filters:sRGB" id="filter12839" x="0.04" y="0.05" width="1.09" height="1.11">
      <feGaussianBlur stdDeviation="2.90"/>
    </filter>
    <filter style="color-interpolation-filters:sRGB" id="filter12884" x="0.04" y="0.06" width="1.08" height="1.11">
      <feGaussianBlur stdDeviation="3.01"/>
    </filter>
    <filter style="color-interpolation-filters:sRGB" id="filter12970" x="0.04" y="0.06" width="1.08" height="1.12">
      <feGaussianBlur stdDeviation="2.57"/>
    </filter>
  </defs>
  <path style="filter:url(#filter12970);opacity:0.20;fill:#000000" d="m 33,25 h 126 c 6.65,0 12,5.35 12,12 v 83 c 0,6.65 -5.35,12 -12,12 H 33 c -6.65,0 -12,-5.35 -12,-12 V 37 c 0,-6.65 5.35,-12 12,-12 z"/>
  <path style="filter:url(#filter12839);opacity:0.20;fill:#000000" d="m 69.73,82.29 36.72,35.42 53.98,-56.48 C 165.02,56.43 176,45.18 176,51.82 V 168 c 0,6.65 -5.35,12 -12,12 H 28 c -6.65,0 -12,-5.35 -12,-12 V 128.71 L 44.41,99.12 C 49.01,94.32 64.76,77.88 69.73,82.29 Z"/>
  <path style="fill:#40a829" d="m 33,21 h 126 c 6.65,0 12,5.35 12,12 v 83 c 0,6.65 -5.35,12 -12,12 H 33 c -6.65,0 -12,-5.35 -12,-12 V 33 c 0,-6.65 5.35,-12 12,-12 z"/>
  <path style="fill:#1c382f" d="m 69.73,78.29 36.72,35.42 53.98,-56.48 C 165.02,52.43 176,41.18 176,47.82 V 164.00 c 0,6.65 -5.35,12 -12,12 H 28 c -6.65,0 -12,-5.35 -12,-12 V 124.71 L 44.41,95.12 C 49.01,90.32 64.76,73.88 69.73,78.29 Z"/>
  <rect style="fill:#40a829" width="50" height="44" x="71" y="132"/>
  <path style="filter:url(#filter12884);opacity:0.20;fill:#000000;color:#000000" d="m 181,42 -41,9.13 16.87,9.02 -50.82,50.74 -36.47,-37.38 a 5.00,5.00 0 0 0 -7.11,0.04 L 8.46,127.46 a 5,5 0 0 0 0,7.07 5,5 0 0 0 7.07,0 L 65.96,84.12 102.42,121.49 a 5.00,5.00 0 0 0 7.11,0.05 L 163.73,67.44 171.62,84 Z M 77,143 v 4 h 8 v 22 h 6 v -22 h 1 6 2 2.16 c 5.42,0 6.85,2.91 6.84,8.82 C 108.99,161.73 108.04,165 101.75,165 H 98 v -17 h -6 v 21 h 7.85 C 113.00,169 114.97,164.28 115,155.74 115.03,147.21 112.04,143 100.70,143 H 92 Z"/>
  <path style="fill:#ffffff;color:#000000" d="m 181,40.00 -41,9.13 16.87,9.02 -50.82,50.74 -36.47,-37.38 a 5.00,5.00 0 0 0 -7.11,0.04 L 8.46,125.47 a 5,5 0 0 0 0,7.07 5,5 0 0 0 7.07,0 l 50.42,-50.42 36.47,37.38 a 5.00,5.00 0 0 0 7.11,0.05 l 54.19,-54.10 7.89,16.56 z"/>
  <path style="fill:#ffffff" d="M 77 141 L 77 145 L 85 145 L 85 167 L 91 167 L 91 145 L 92 145 L 98 145 L 100 145 L 102.16 145 C 107.58 145 109.01 147.91 109 153.82 C 108.99 159.73 108.04 163 101.75 163 L 98 163 L 98 146 L 92 146 L 92 167 L 99.85 167 C 113.00 167 114.97 162.28 115 153.74 C 115.03 145.21 112.04 141 100.70 141 L 92 141 L 77 141 z "/>
  <path style="opacity:0.20;fill:#ffffff" d="M 33 21 C 26.35 21 21 26.35 21 33 L 21 34 C 21 27.35 26.35 22 33 22 L 159 22 C 165.65 22 171 27.35 171 34 L 171 33 C 171 26.35 165.65 21 159 21 L 33 21 z M 71 132 L 71 133 L 121 133 L 121 132 L 71 132 z "/>
</svg>
