<?xml version='1.0' encoding='utf-8'?>
<svg xmlns="http://www.w3.org/2000/svg" width="192" height="192" version="1" id="svg28">
  <defs>
    <filter style="color-interpolation-filters:sRGB" id="filter6495" x="0.05" y="0.05" width="1.10" height="1.10">
      <feGaussianBlur stdDeviation="3.20"/>
    </filter>
    <filter style="color-interpolation-filters:sRGB" id="filter1867" x="0.05" y="0.13" width="1.10" height="1.27">
      <feGaussianBlur stdDeviation="2.61"/>
    </filter>
  </defs>
  <rect transform="matrix(0,-1,-1,0,0,0)" ry="12" rx="12" y="-176" x="-180" height="160" width="160" style="filter:url(#filter6495);opacity:0.20;fill:#000000"/>
  <rect transform="matrix(0,-1,-1,0,0,0)" ry="12" rx="12" y="-176" x="-176" height="160" width="160" style="fill:#ffcb0e"/>
  <path style="filter:url(#filter1867);opacity:0.20;fill:#000000" d="m 36,74 v 47 H 48 V 74 Z m 17,0 v 47 H 64 V 89.95 L 68.26,121 H 75.94 L 80,89.27 V 121 H 91 V 74 H 74.98 L 72.15,95.95 70.39,84.01 C 69.83,80.19 69.34,76.85 68.92,74 Z m 43,0 v 47 h 15.25 c 2.89,0 5.05,0.16 6.49,0.48 1.44,0.32 2.64,0.88 3.62,-1.69 0.98,0.81 1.66,-1.92 2.06,-3.34 C 123.80,114.07 124,111.26 124,107.04 V 90.57 c 0,-4.45 0.13,-7.43 0.41,-8.95 0.27,-1.52 0.94,-2.90 -2.01,-4.14 -1.07,-1.23 -2.64,-2.12 -4.70,-2.67 C 114.83,74.27 110.88,74 105.04,74 Z m 33,0 v 46 h 10.92 l 0.76,-2.57 c 0.98,1.19 2.07,2.08 3.27,2.68 1.19,0.60 2.48,0.89 3.86,0.89 1.92,0 3.57,0.50 4.97,-1.50 1.39,-1.00 2.29,-2.18 2.66,-3.54 C 155.81,114.59 156,112.52 156,109.74 V 92.95 c 0,-2.80 0.07,-4.63 0.19,-5.48 0.13,0.86 0.50,-1.73 -1.12,-2.63 0.62,0.89 -1.52,-1.59 -2.70,-2.09 -1.18,0.49 -2.57,0.74 -4.18,0.74 -1.39,0 -2.69,0.28 -3.88,0.82 -1.19,0.55 -1.96,1.38 -2.93,2.50 V 74 Z m -21,8 c 1.39,0 2.33,0.14 2.82,0.42 0.50,0.28 0.82,0.72 0.96,1.33 0.14,0.60 0.21,1.97 0.21,4.10 v 18.31 c 0,3.14 0.22,5.06 0.63,5.77 C 110.95,112.65 109.82,113 108,113 Z m 34.92,6 c 0.83,0 1.37,0.30 1.65,0.91 C 144.86,89.51 145,90.80 145,92.77 v 16.06 c 0,2.26 0.13,3.69 0.38,4.28 0.25,0.59 0.79,0.89 -1.61,0.89 0.80,0 -1.34,0.28 -1.61,0.86 C 141.14,112.57 141,111.25 141,109.21 V 92.77 c 0,-2.12 0.12,-3.45 0.36,-3.98 C 141.60,88.27 142.12,88 142.92,88 Z"/>
  <path style="opacity:0.20;fill:#ffffff" d="m 28,16 c -6.65,0 -12,5.35 -12,12 v 1 c 0,-6.65 5.35,-12 12,-12 h 136 c 6.65,0 12,5.35 12,12 v -1 c 0,-6.65 -5.35,-12 -12,-12 z"/>
  <path style="fill:#3f3f3f" d="M 36 72 L 36 119 L 48 119 L 48 72 L 36 72 z M 53 72 L 53 119 L 64 119 L 64 87.95 L 68.26 119 L 75.94 119 L 80 87.27 L 80 119 L 91 119 L 91 72 L 74.98 72 L 72.15 93.95 L 70.39 82.01 C 69.83 78.19 69.34 74.85 68.92 72 L 53 72 z M 96 72 L 96 119 L 111.25 119 C 114.14 119 116.30 118.84 117.74 118.52 C 119.17 118.20 120.38 117.64 121.35 116.84 C 122.33 116.03 123.02 114.92 123.41 113.50 C 123.80 112.07 124 109.26 124 105.04 L 124 88.57 C 124 84.12 123.87 81.14 123.59 79.62 C 123.33 78.10 122.65 76.72 121.58 75.48 C 120.51 74.25 118.95 73.36 116.89 72.81 C 114.83 72.27 110.88 72 105.04 72 L 96 72 z M 129 72 L 129 118 L 139.92 118 L 140.67 115.43 C 141.66 116.61 142.75 117.51 143.94 118.11 C 145.14 118.70 146.42 119 147.80 119 C 149.72 119 151.37 118.50 152.77 117.50 C 154.16 116.50 155.06 115.32 155.43 113.96 C 155.81 112.59 156 110.52 156 107.74 L 156 90.95 C 156 88.15 155.93 86.32 155.81 85.46 C 155.68 84.61 155.31 83.73 154.69 82.84 C 154.07 81.94 153.17 81.25 151.99 80.75 C 150.81 80.26 149.42 80.01 147.81 80.01 C 146.42 80.01 145.12 80.28 143.93 80.83 C 142.74 81.38 141.97 82.21 141 83.33 L 141 72 L 129 72 z M 108 80 C 109.39 80 110.33 80.14 110.82 80.42 C 111.33 80.70 111.64 81.14 111.79 81.75 C 111.93 82.35 112 83.71 112 85.85 L 112 104.16 C 112 107.30 111.78 109.23 111.37 109.94 C 110.95 110.65 109.82 111 108 111 L 108 80 z M 142.92 86 C 143.75 86 144.29 86.30 144.58 86.91 C 144.86 87.51 145 88.80 145 90.77 L 145 106.83 C 145 109.09 144.87 110.51 144.62 111.11 C 144.37 111.71 143.84 112 143.02 112 C 142.22 112 141.68 111.72 141.41 111.14 C 141.14 110.57 141 109.25 141 107.21 L 141 90.77 C 141 88.64 141.12 87.31 141.36 86.79 C 141.60 86.27 142.12 86 142.92 86 z "/>
</svg>
