<?xml version='1.0' encoding='utf-8'?>
<svg xmlns="http://www.w3.org/2000/svg" width="192" height="192" version="1" id="svg18">
  <defs>
    <filter style="color-interpolation-filters:sRGB" id="filter867" x="0.05" width="1.10" y="0.05" height="1.10">
      <feGaussianBlur stdDeviation="3.20"/>
    </filter>
    <filter style="color-interpolation-filters:sRGB" id="filter895" x="0.04" width="1.08" y="0.06" height="1.12">
      <feGaussianBlur stdDeviation="2.00"/>
    </filter>
  </defs>
  <rect style="filter:url(#filter867);opacity:0.20;fill:#000000" width="160" height="160" x="-180" y="-176" rx="80" ry="80" transform="matrix(0,-1,-1,0,0,0)"/>
  <rect transform="matrix(0,-1,-1,0,0,0)" ry="80" rx="80" y="-176" x="-176" height="160" width="160" style="fill:#4f4f4f"/>
  <path style="opacity:0.10;fill:#ffffff" d="M 96 16 C 51.68 16 16 51.68 16 96 C 16 96.12 16.01 96.23 16.01 96.35 C 16.36 52.33 51.90 17 96 17 C 140.11 17 175.65 52.34 175.99 96.36 C 175.99 96.24 176 96.12 176 96 C 176 51.68 140.32 16 96 16 z "/>
  <path d="m 48,48 80,44 -24,12 36,40 L 92,116 60,100 84,88 Z" style="fill:#ff7317"/>
  <path d="m 79.01,137.16 c 3.85,-1.41 3.52,0.79 16.10,-30.65 6.31,-14.97 11.66,-27.29 11.89,-27.38 0.23,0.09 1.50,0.59 2.83,1.52 2.99,2.11 7.89,4.58 10.13,5.13 0.93,0.23 4.14,0.69 7.12,1.04 5.32,0.61 10.63,1.89 12.99,3.11 3.84,2.00 10.63,7.95 13.81,12.10 1.53,1.99 2.40,2.30 2.04,0.70 -1.72,-7.61 -5.11,-14.73 -8.50,-17.83 -2.12,-1.94 -6.14,-3.75 -11.91,-5.37 -8.81,-2.48 -11.18,-3.27 -14.03,-4.73 -5.23,-2.67 -11.15,-7.61 -16.29,-13.61 -1.68,-1.95 -3.16,-3.55 -3.31,-3.55 0.15,0 -5.91,13.38 -12.82,29.74 -6.90,16.36 -12.67,29.74 -12.82,29.74 0.15,0 -1.43,-1.59 -2.86,-2.56 -10.57,-7.17 -25.00,-10.27 -32.54,-6.99 -3.33,1.45 -5.26,5.36 -4.76,8.49 1.33,8.40 14.49,18.17 28.67,21.27 4.27,0.94 11.43,0.84 14.26,0.20 z" style="filter:url(#filter895);opacity:0.20"/>
  <path d="m 79.01,135.16 c 3.85,-1.41 3.52,0.79 16.10,-30.65 6.31,-14.97 11.66,-27.29 11.89,-27.38 0.23,0.09 1.50,0.59 2.83,1.52 2.99,2.11 7.89,4.58 10.13,5.13 0.93,0.23 4.14,0.69 7.12,1.04 5.32,0.61 10.63,1.89 12.99,3.11 3.84,2.00 10.63,7.95 13.81,12.10 1.53,1.99 2.40,2.30 2.04,0.70 -1.72,-7.61 -5.11,-14.73 -8.50,-17.83 -2.12,-1.94 -6.14,-3.75 -11.91,-5.37 -8.81,-2.48 -11.18,-3.27 -14.03,-4.73 -5.23,-2.67 -11.15,-7.61 -16.29,-13.61 -1.68,-1.95 -3.16,-3.55 -3.31,-3.55 0.15,0 -5.91,13.38 -12.82,29.74 -6.90,16.36 -12.67,29.74 -12.82,29.74 0.15,0 -1.43,-1.59 -2.86,-2.56 -10.57,-7.17 -25.00,-10.27 -32.54,-6.99 -3.33,1.45 -5.26,5.36 -4.76,8.49 1.33,8.40 14.49,18.17 28.67,21.27 4.27,0.94 11.43,0.84 14.26,0.20 z" style="fill:#ffd733"/>
  <path style="opacity:0.20;fill:#ffffff" d="M 101.88 55.65 C 101.73 55.65 95.96 69.04 89.05 85.39 C 82.15 101.75 76.38 115.14 76.23 115.14 C 76.09 115.14 74.80 113.55 73.38 112.58 C 62.81 105.41 48.38 102.31 40.84 105.60 C 37.68 106.97 35.79 110.55 36.02 113.59 C 36.22 110.80 38.02 107.82 40.84 106.60 C 48.38 103.31 62.81 106.41 73.38 113.58 C 74.80 114.55 76.09 116.14 76.23 116.14 C 76.38 116.14 82.15 102.75 89.05 86.39 C 95.96 70.04 101.73 56.65 101.88 56.65 C 102.02 56.65 103.51 58.25 105.19 60.21 C 110.32 66.20 116.25 71.15 121.48 73.81 C 124.33 75.27 126.70 76.06 135.51 78.54 C 141.28 80.16 145.30 81.97 147.42 83.91 C 150.80 87.00 154.18 94.08 155.90 101.67 C 156.01 101.53 156.03 101.24 155.92 100.74 C 154.20 93.13 150.81 86.01 147.42 82.91 C 145.30 80.97 141.28 79.16 135.51 77.54 C 126.70 75.06 124.33 74.27 121.48 72.81 C 116.25 70.15 110.32 65.20 105.19 59.21 C 103.51 57.25 102.02 55.65 101.88 55.65 z "/>
</svg>
