<svg xmlns="http://www.w3.org/2000/svg" id="svg27" width="192" height="192" version="1"><defs><filter style="color-interpolation-filters:sRGB" id="filter868" width="1.09" height="1.1" x=".05" y=".05"><feGaussianBlur stdDeviation="2.56"/></filter><filter style="color-interpolation-filters:sRGB" id="filter876" width="1.04" height="1.05" x=".02" y=".03"><feGaussianBlur stdDeviation="1.47"/></filter><filter style="color-interpolation-filters:sRGB" id="filter904" width="1.1" height="1.09" x=".05" y=".05"><feGaussianBlur stdDeviation=".6"/></filter><filter style="color-interpolation-filters:sRGB" id="filter933" width="1.1" height="1.1" x=".05" y=".05"><feGaussianBlur stdDeviation=".4"/></filter></defs><path d="m 32,50.00 a 8,8 0 0 0 -8,8 v 8 h -4 a 8,8 0 0 0 -8,8 8,8 0 0 0 8,8 h 20 v -16 -8 a 8,8 0 0 0 -8,-8 z" style="filter:url(#filter904);opacity:.1"/><path d="m 70.61,31.61 1.96,16.38 7.48,-2.85 z m 97.20,30.39 c -1.32,0.04 -2.61,0.41 -3.75,1.07 l -24.04,13.99 -24.03,13.98 c -5.31,3.09 -5.31,10.82 0,13.91 l 24.03,13.99 24.04,13.98 c 5.30,3.09 11.94,0.76 11.95,-6.94 0,0 -4.00,-18.56 -4,-27.98 0.00,-9.42 4,-27.98 4,-27.98 0.00,-4.52 -3.71,-8.16 -8.20,-8.02 z M 27.99,105.37 16,116.70 31.91,112.34 Z m 6.60,20.16 -6.31,15.24 12.74,-10.48 z m 104.49,7.84 -6.01,5.29 13.58,9.37 z M 45.32,137.59 40.79,153.45 52.25,141.59 Z M 100,150.00 l 4,16 4,-16 z M 66.02,150.15 67.81,166.54 73.95,151.24 Z" style="filter:url(#filter876);opacity:.2"/><path d="m 32,48 a 8,8 0 0 0 -8,8 v 8 h -4 a 8,8 0 0 0 -8,8 8,8 0 0 0 8,8 H 40 V 64 56 a 8,8 0 0 0 -8,-8 z" style="fill:#d73c3c"/><path d="m 70.61,29.61 1.96,16.38 7.48,-2.85 z M 167.80,60 c -1.32,0.04 -2.61,0.41 -3.75,1.07 L 140.02,75.06 115.98,89.05 c -5.31,3.09 -5.31,10.82 0,13.91 l 24.03,13.99 24.04,13.98 c 5.30,3.09 11.94,0.76 11.95,-6.94 0,0 -4.00,-18.56 -4,-27.98 0.00,-9.42 4,-27.98 4,-27.98 C 176.00,63.50 172.29,59.87 167.80,60 Z M 27.99,103.37 16,114.70 31.91,110.34 Z m 6.60,20.16 -6.31,15.24 12.74,-10.48 z m 104.49,7.84 -6.01,5.29 13.58,9.37 z M 45.32,135.59 40.79,151.45 52.25,139.59 Z M 100,148 l 4,16 4,-16 z m -33.98,0.15 1.79,16.39 6.14,-15.30 z" style="fill:#597320"/><path style="opacity:.1;fill:#fff" d="m 70.61,29.61 0.14,1.21 8.74,12.53 0.55,0.21 z M 167.80,60 c -1.32,0.04 -2.61,0.41 -3.75,1.07 L 140.02,75.06 115.98,89.05 c -2.81,1.63 -4.05,4.55 -3.89,7.40 0.15,-2.51 1.41,-4.96 3.89,-6.40 L 140.02,76.06 164.05,62.07 c 1.14,0.66 2.43,-1.03 3.75,-1.07 4.22,0.12 7.75,3.09 8.15,7.24 0.02,0.09 0.04,0.21 0.04,0.21 C 176.00,63.50 172.29,59.87 167.80,60 Z m 4.24,37 c 0.01,0.32 0.05,0.70 0.05,1 0,0.22 0.01,0.46 0.02,0.68 0.01,0.23 0.03,0.46 0.03,0.68 0.23,9.38 3.68,25.68 3.88,26.65 0.04,0.22 0.07,0.43 0.07,0.66 0,0 -3.71,-17.33 -3.95,-26.98 z"/><ellipse cx="88" cy="100" rx="68" ry="60" style="filter:url(#filter868);opacity:.2"/><ellipse cx="88" cy="96" rx="68" ry="60" style="fill:#84b124"/><circle cx="66" cy="64" r="10" style="filter:url(#filter933);opacity:.1"/><circle cx="66" cy="62" r="10" style="fill:#fff"/><path d="m 82,84 a 2,2 0 0 0 -2,2 2,2 0 0 0 2,2 2,2 0 0 0 2,-2 2,2 0 0 0 -2,-2 z m 18,12 a 4,4 0 0 0 -4,4 4,4 0 0 0 4,4 4,4 0 0 0 4,-4 4,4 0 0 0 -4,-4 z m -30,4 a 6,6 0 0 0 -6,6 6,6 0 0 0 6,6 6,6 0 0 0 6,-6 6,6 0 0 0 -6,-6 z m 30,24 a 4,4 0 0 0 -4,4 4,4 0 0 0 4,4 4,4 0 0 0 4,-4 4,4 0 0 0 -4,-4 z" style="opacity:.4"/><circle cx="66" cy="62" r="6" style="fill:#3f3f3f"/><path style="opacity:.1;fill:#fff" d="M 32 48 A 8 8 0 0 0 24 56 L 24 57 A 8 8 0 0 1 32 49 A 8 8 0 0 1 40 57 L 40 56 A 8 8 0 0 0 32 48 z M 20 64 A 8 8 0 0 0 12 72 A 8 8 0 0 0 12.02 72.41 A 8 8 0 0 1 20 65 L 24 65 L 24 64 L 20 64 z"/><path style="opacity:.2;fill:#fff" d="M 88 36 A 68 60 0 0 0 20 96 A 68 60 0 0 0 20.02 96.50 A 68 60 0 0 1 88 37 A 68 60 0 0 1 155.97 96.50 A 68 60 0 0 0 156 96 A 68 60 0 0 0 88 36 z"/></svg>