<?xml version='1.0' encoding='utf-8'?>
<svg xmlns="http://www.w3.org/2000/svg" width="192" height="192" version="1" id="svg12">
  <defs>
    <filter style="color-interpolation-filters:sRGB" id="filter955" x="0.05" width="1.10" y="0.05" height="1.10">
      <feGaussianBlur stdDeviation="3.20"/>
    </filter>
    <filter style="color-interpolation-filters:sRGB" id="filter39582" x="0.07" y="0.08" width="1.15" height="1.15">
      <feGaussianBlur stdDeviation="2.72"/>
    </filter>
  </defs>
  <rect style="filter:url(#filter955);opacity:0.20;fill:#000000" width="160" height="160" x="16" y="20" rx="30" ry="30"/>
  <rect style="fill:#e4e4e4" width="160" height="160" x="16" y="16" rx="30" ry="30"/>
  <path style="filter:url(#filter39582);opacity:0.20;fill:#000000" d="M 92.59,55 52,137.26 59.14,141 140,129.28 99.35,58.46 Z m 4.77,35.88 13.50,23.82 -27.32,3.82 z"/>
  <path style="opacity:0.20;fill:#ffffff" d="M 46 16 C 29.38 16 16 29.38 16 46 L 16 47 C 16 30.38 29.38 17 46 17 L 146 17 C 162.62 17 176 30.38 176 47 L 176 46 C 176 29.38 162.62 16 146 16 L 46 16 z "/>
  <path style="fill:#5f7203" d="M 92.59,53 99.35,56.46 59.14,139 l -7.14,-3.74 z"/>
  <path style="fill:#8fad02" d="M 99.35,56.46 117.24,116.40 99.16,85.27 59.14,139 Z"/>
  <path style="fill:#5f7203" d="m 99.16,85.27 18.08,31.13 -6.39,-3.71 -13.67,-24.13 z"/>
  <path style="fill:#1b7f92" d="m 117.24,116.40 -36.15,4.99 2.22,-4.85 27.54,-3.85 z"/>
  <path style="fill:#334151" d="M 140,127.28 59.14,139 99.16,85.27 81.10,121.39 Z"/>
  <path style="fill:#20a0b3" d="M 99.35,56.46 140,127.28 81.10,121.39 117.24,116.40 Z"/>
</svg>
