<?xml version='1.0' encoding='utf-8'?>
<svg xmlns="http://www.w3.org/2000/svg" width="192" height="192" version="1" id="svg28">
  <defs>
    <filter style="color-interpolation-filters:sRGB" id="filter6495" x="0.05" y="0.05" width="1.10" height="1.10">
      <feGaussianBlur stdDeviation="3.20"/>
    </filter>
    <filter style="color-interpolation-filters:sRGB" id="filter2705" x="0.06" y="0.10" width="1.12" height="1.21">
      <feGaussianBlur stdDeviation="2.95"/>
    </filter>
  </defs>
  <rect transform="matrix(0,-1,-1,0,0,0)" ry="12" rx="12" y="-176" x="-180" height="160" width="160" style="filter:url(#filter6495);opacity:0.20;fill:#000000"/>
  <rect transform="matrix(0,-1,-1,0,0,0)" ry="12" rx="12" y="-176" x="-176" height="160" width="160" style="fill:#0a6acb"/>
  <path style="opacity:0.10;fill:#ffffff" d="m 28,16 c -6.65,0 -12,5.35 -12,12 v 1 c 0,-6.65 5.35,-12 12,-12 h 136 c 6.65,0 12,5.35 12,12 v -1 c 0,-6.65 -5.35,-12 -12,-12 z"/>
  <path style="filter:url(#filter2705);opacity:0.20;fill:#000000;color:#000000" d="m 156,63 h -37 c -6.99,0.15 -12.67,4.76 -18,8.52 -5.33,3.77 -10.34,7.63 -14.50,9.14 -4.78,1.73 -9.21,1.46 -15.47,1.69 -6.26,0.23 -14.04,1.12 -24.19,5.60 -3.39,1.50 -5.77,4.03 -7.50,6.13 -1.72,2.10 -2.80,3.96 -2.80,3.96 L 36,98.97 V 122 h 14 v -8 h -6 v -12.70 c 0.28,0.45 0.56,0.96 1.52,-2.13 1.31,-1.59 3.16,-3.27 4.55,-3.89 9.16,-4.05 15.45,-4.71 21.25,-4.92 5.80,0.21 11.42,0.18 17.90,-2.16 6.11,-2.21 11.33,-6.56 16.39,-10.13 5.06,-3.57 9.61,-6.98 13.55,-7.06 L 156,71 Z m -85,37 c -8.84,0 -16,7.16 -16,16 0,8.84 7.16,16 16,16 8.84,0 16,-7.16 16,-16 0,-8.84 -7.16,-16 -16,-16 z m 0,8 c 4.42,0 8,3.58 8,8 0,4.42 -3.58,8 -8,8 -4.42,0 -8,-3.58 -8,-8 0,-4.42 3.58,-8 8,-8 z m 21,6 v 8 h 29.10 l -2.86,-8 z"/>
  <path style="fill:#ffffff;color:#000000" d="m 156,61 h -37 c -6.99,0.15 -12.67,4.76 -18,8.52 -5.33,3.77 -10.34,7.63 -14.50,9.14 -4.78,1.73 -9.21,1.46 -15.47,1.69 -6.26,0.23 -14.04,1.12 -24.19,5.60 -3.39,1.50 -5.77,4.03 -7.50,6.13 -1.72,2.10 -2.80,3.96 -2.80,3.96 L 36,96.97 V 120 h 14 v -8 H 44 V 99.30 c 0.28,0.45 0.56,0.96 1.52,-2.13 1.31,-1.59 3.16,-3.27 4.55,-3.89 9.16,-4.05 15.45,-4.71 21.25,-4.92 5.80,0.21 11.42,0.18 17.90,-2.16 6.11,-2.21 11.33,-6.56 16.39,-10.13 5.06,-3.57 9.61,-6.98 13.55,-7.06 L 156,69 Z M 71,98 c -8.84,0 -16,7.16 -16,16 0,8.84 7.16,16 16,16 8.84,0 16,-7.16 16,-16 0,-8.84 -7.16,-16 -16,-16 z m 0,8 c 4.42,0 8,3.58 8,8 0,4.42 -3.58,8 -8,8 -4.42,0 -8,-3.58 -8,-8 0,-4.42 3.58,-8 8,-8 z m 21,6 v 8 h 29.10 l -2.86,-8 z"/>
</svg>
