<?xml version='1.0' encoding='utf-8'?>
<svg xmlns="http://www.w3.org/2000/svg" width="192" height="192" version="1.1" id="svg12">
  <defs>
    <filter style="color-interpolation-filters:sRGB" id="filter845" x="0.05" y="0.05" width="1.10" height="1.10">
      <feGaussianBlur stdDeviation="3.20"/>
    </filter>
    <filter style="color-interpolation-filters:sRGB" id="filter849" x="0.04" y="0.07" width="1.07" height="1.13">
      <feGaussianBlur stdDeviation="1.56"/>
    </filter>
  </defs>
  <rect style="filter:url(#filter845);opacity:0.20" width="160" height="160" x="16" y="20" rx="48" ry="48"/>
  <rect style="fill:#4992fd" width="160" height="160" x="16" y="16" rx="48" ry="48"/>
  <path style="opacity:0.20;fill:#ffffff" d="M 64 16 C 37.41 16 16 37.41 16 64 L 16 65 C 16 38.41 37.41 17 64 17 L 128 17 C 154.59 17 176 38.41 176 65 L 176 64 C 176 37.41 154.59 16 128 16 L 64 16 z "/>
  <path style="filter:url(#filter849);opacity:0.20" d="m 54.00,70.00 c -3.32,0 -6.00,2.68 -6.00,6 v 10 12 12.00 c 0,8.86 7.14,16 16.00,16 h 20.00 20.00 10.00 c 3.32,0 6.00,-2.68 6.00,-6 v -10 -12.00 -12 c 0,-8.86 -7.14,-16 -16.00,-16 H 84.00 64.00 Z m 90.19,0.01 c -1.27,0.09 -2.73,0.50 -4.11,1.78 -4.86,4.52 -10.56,8.33 -14.54,13.73 -1.64,2.22 -1.53,5.18 -1.54,7.95 0.01,1.52 0.01,3.03 0,4.53 0.01,1.50 0.01,3.01 0,4.53 0.01,2.77 0.10,5.72 1.54,7.95 3.98,5.40 9.68,9.21 14.54,13.73 1.38,1.29 2.83,1.87 4.11,1.78 2.12,0.15 3.76,-2.16 3.76,-5.89 0,-7.30 0.11,-14.70 0,-22.10 0.11,-7.40 0,-14.80 0,-22.10 0,-3.73 -1.63,-5.74 -3.76,-5.89 z"/>
  <path style="fill:#ffffff" d="m 54.00,68.00 c -3.32,0 -6.00,2.68 -6.00,6 v 10 12 12.00 c 0,8.86 7.14,16 16.00,16 h 20.00 20.00 10.00 c 3.32,0 6.00,-2.68 6.00,-6 v -10 -12.00 -12 c 0,-8.86 -7.14,-16 -16.00,-16 H 84.00 64.00 Z m 90.19,0.01 c -1.27,0.09 -2.73,0.50 -4.11,1.78 -4.86,4.52 -10.56,8.33 -14.54,13.73 -1.64,2.22 -1.53,5.18 -1.54,7.95 0.01,1.52 0.01,3.03 0,4.53 0.01,1.50 0.01,3.01 0,4.53 0.01,2.77 0.10,5.72 1.54,7.95 3.98,5.40 9.68,9.21 14.54,13.73 1.38,1.29 2.83,1.87 4.11,1.78 2.12,0.15 3.76,-2.16 3.76,-5.89 0,-7.30 0.11,-14.70 0,-22.10 0.11,-7.40 0,-14.80 0,-22.10 0,-3.73 -1.63,-5.74 -3.76,-5.89 z"/>
</svg>
