<?xml version='1.0' encoding='utf-8'?>
<svg xmlns="http://www.w3.org/2000/svg" width="192" height="192" version="1.1" id="svg14">
  <defs>
    <filter style="color-interpolation-filters:sRGB" id="filter849" x="-0.048000001" y="-0.048000001" width="1.096" height="1.096">
      <feGaussianBlur stdDeviation="3.2"/>
    </filter>
    <filter style="color-interpolation-filters:sRGB" id="filter9113" x="-0.070588235" y="-0.08" width="1.1411765" height="1.16">
      <feGaussianBlur stdDeviation="3.5"/>
    </filter>
  </defs>
  <rect style="filter:url(#filter849);opacity:0.2" width="160" height="160" x="16" y="20" rx="32" ry="32"/>
  <rect style="fill:#ee3b6f" width="160" height="160" x="16" y="16" rx="32" ry="32"/>
  <path style="filter:url(#filter9113);opacity:0.2;fill:#000000" d="m 94,39 c -2.377106,0 -2.582021,0.946885 -3.894531,1.673828 l -54,44 C 35.386377,85.259465 35.009228,86.108646 35,86.96875 35.264543,88.877557 37.257813,89 37.257812,89 H 40.294922 46 v 24 h 6 V 79.460938 L 93.894531,45.326172 c 0.03942,-0.0321 0.06811,-0.07182 0.105469,-0.105469 0.03736,0.03365 0.06605,0.07337 0.105469,0.105469 L 136,79.460938 V 113 h 6 V 89 h 5.70508 3.03711 c 0,0 1.99327,-0.122443 2.25781,-2.03125 -0.009,-0.860104 -0.38638,-1.709285 -1.10547,-2.294922 l -53.999999,-44 C 96.671087,39.877152 96.377106,39 94,39 Z m -48,81 v 24 h 6 v -9 h 10 v 9 h 6 v -24 h -6 v 9 H 52 v -9 z m 40,0 a 12,12 0 0 0 -12,12 12,12 0 0 0 12,12 12,12 0 0 0 12,-12 12,12 0 0 0 -12,-12 z m 18,0 v 24 h 6 V 129.9082 L 116.1582,138 H 117 117.8418 L 124,129.9082 V 144 h 6 v -24 h -6 l -7,9.19727 L 110,120 Z m 32,0 v 24 h 6 12 v -6 h -12 v -3 h 12 v -6 h -12 v -3 h 12 v -6 h -12 z m -50,5 a 6,7 0 0 1 6,7 6,7 0 0 1 -6,7 6,7 0 0 1 -6,-7 6,7 0 0 1 6,-7 z"/>
  <path style="fill:#ffffff" d="M 94 37 C 91.622894 37 91.417979 37.946885 90.105469 38.673828 L 36.105469 82.673828 C 35.386377 83.259465 35.009228 84.108646 35 84.96875 C 35.264543 86.877557 37.257813 87 37.257812 87 L 40.294922 87 L 46 87 L 46 111 L 52 111 L 52 77.460938 L 93.894531 43.326172 C 93.933951 43.294072 93.962641 43.254352 94 43.220703 C 94.03736 43.254353 94.06605 43.294073 94.105469 43.326172 L 136 77.460938 L 136 111 L 142 111 L 142 87 L 147.70508 87 L 150.74219 87 C 150.74219 87 152.73546 86.877557 153 84.96875 C 152.991 84.108646 152.61362 83.259465 151.89453 82.673828 L 97.894531 38.673828 C 96.671087 37.877152 96.377106 37 94 37 z M 46 118 L 46 142 L 52 142 L 52 133 L 62 133 L 62 142 L 68 142 L 68 118 L 62 118 L 62 127 L 52 127 L 52 118 L 46 118 z M 86 118 A 12 12 0 0 0 74 130 A 12 12 0 0 0 86 142 A 12 12 0 0 0 98 130 A 12 12 0 0 0 86 118 z M 104 118 L 104 142 L 110 142 L 110 127.9082 L 116.1582 136 L 117 136 L 117.8418 136 L 124 127.9082 L 124 142 L 130 142 L 130 118 L 124 118 L 117 127.19727 L 110 118 L 104 118 z M 136 118 L 136 142 L 142 142 L 154 142 L 154 136 L 142 136 L 142 133 L 154 133 L 154 127 L 142 127 L 142 124 L 154 124 L 154 118 L 142 118 L 136 118 z M 86 123 A 6 7 0 0 1 92 130 A 6 7 0 0 1 86 137 A 6 7 0 0 1 80 130 A 6 7 0 0 1 86 123 z "/>
  <path style="opacity:0.2;fill:#ffffff" d="M 48,16 C 30.272,16 16,30.272 16,48 v 1 C 16,31.272 30.272,17 48,17 h 96 c 17.728,0 32,14.272 32,32 V 48 C 176,30.272 161.728,16 144,16 Z"/>
</svg>
