<svg xmlns="http://www.w3.org/2000/svg" id="svg14" width="192" height="192" version="1"><defs><filter style="color-interpolation-filters:sRGB" id="filter848" width="1.1" height="1.1" x=".05" y=".05"><feGaussianBlur stdDeviation="3.2"/></filter><filter style="color-interpolation-filters:sRGB" id="filter857" width="1.1" height="1.1" x=".05" y=".05"><feGaussianBlur stdDeviation="1.92"/></filter><filter style="color-interpolation-filters:sRGB" id="filter873" width="1.1" height="1.09" x=".05" y=".05"><feGaussianBlur stdDeviation="2.58"/></filter></defs><rect width="160" height="160" x="-180" y="-176" rx="8" ry="8" transform="matrix(0,-1,-1,0,0,0)" style="filter:url(#filter848);opacity:.2"/><rect width="160" height="160" x="-176" y="-176" rx="8" ry="8" transform="matrix(0,-1,-1,0,0,0)" style="fill:#0277bd"/><rect width="122" height="136" x="-152" y="-164" rx="6.1" ry="6.8" transform="matrix(0,-1,-1,0,0,0)" style="filter:url(#filter873);opacity:.2;fill:#000"/><path style="opacity:.1;fill:#fff" d="m 24,16 c -4.43,0 -8,3.57 -8,8 v 1 c 0,-4.43 3.57,-8 8,-8 h 144 c 4.43,0 8,3.57 8,8 v -1 c 0,-4.43 -3.57,-8 -8,-8 z"/><rect style="fill:#039be5" width="122" height="136" x="-150" y="-164" rx="6.1" ry="6.8" transform="matrix(0,-1,-1,0,0,0)"/><path d="M 96.00,42.00 C 69.44,42.00 48,63.44 48,90.00 V 122.00 C 48,122.00 48,138 64,138 H 80.00 V 98 H 64 V 90.00 C 64,72.24 78.24,58.00 96.00,58.00 113.76,58.00 128.00,72.24 128.00,90.00 V 98 H 112 v 40 h 16.00 c 0,0 16.00,0 16.00,-16.00 V 90.00 C 144,63.44 122.56,42.00 96.00,42.00 Z" style="filter:url(#filter857);opacity:.2;fill:#000"/><path style="fill:#fff" d="M 96.00,40.00 C 69.44,40.00 48,61.44 48,88.00 V 120.00 C 48,120.00 48,136 64,136 H 80.00 V 96 H 64 V 88.00 C 64,70.24 78.24,56.00 96.00,56.00 113.76,56.00 128.00,70.24 128.00,88.00 V 96 H 112 v 40 h 16.00 c 0,0 16.00,0 16.00,-16.00 V 88.00 C 144,61.44 122.56,40.00 96.00,40.00 Z"/><path style="opacity:.2;fill:#fff" d="M 34.80,28 C 31.03,28 28,30.72 28,34.10 v 1 C 28,31.72 31.03,29 34.80,29 H 157.20 C 160.97,29 164,31.72 164,35.10 v -1 C 164,30.72 160.97,28 157.20,28 Z"/></svg>