<svg xmlns="http://www.w3.org/2000/svg" id="svg14" width="192" height="192" version="1.1"><defs><filter style="color-interpolation-filters:sRGB" id="filter854" width="1.1" height="1.1" x=".05" y=".05"><feGaussianBlur stdDeviation="3.2"/></filter><filter style="color-interpolation-filters:sRGB" id="filter877" width="1.07" height="1.16" x=".03" y=".08"><feGaussianBlur stdDeviation="1.6"/></filter></defs><path d="m 95.98,20.00 c -2.28,0.02 -4.56,0.13 -6.83,0.33 -1.65,0.13 -3.26,0.34 -4.88,0.56 0.86,0.11 -1.71,0.23 -2.56,0.37 -2.30,0.39 -4.56,0.88 -6.79,1.45 0.15,0.04 0.29,0.07 0.44,0.11 -33.77,8.79 -58.48,37.69 -58.48,71.98 0.00,0.25 0.02,0.49 0.02,0.74 0.01,0.15 0.02,0.31 0.02,0.46 0.04,23.55 12.36,45.64 32,60.00 v 24 l 21.22,-12.48 c 8.59,2.94 17.65,4.45 26.78,4.48 42.56,0.05 77.62,-31.74 79.80,-72.12 0.06,0.88 0.11,-1.77 0.14,-2.66 0.02,0.41 0.05,0.81 0.06,-1.22 0.00,0.16 0.01,0.33 0.02,0.49 0.00,0.24 0.02,0.47 0.02,0.71 0,-38.74 -31.51,-70.66 -72.02,-74.41 -2.21,0.20 -4.43,0.30 -6.66,0.32 0.45,0.01 0.88,0.06 -1.34,0.06 z" style="filter:url(#filter854);opacity:.2;fill:#000"/><path style="fill:#e4e4e4" d="m 95.98,16 c -2.28,0.02 -4.56,0.13 -6.83,0.33 -1.65,0.13 -3.26,0.34 -4.88,0.56 0.86,0.11 -1.71,0.23 -2.56,0.37 -2.30,0.39 -4.56,0.88 -6.79,1.45 0.15,0.04 0.29,0.07 0.44,0.11 -33.77,8.79 -58.48,37.69 -58.48,71.98 0.00,0.25 0.02,0.49 0.02,0.74 0.01,0.15 0.02,0.31 0.02,0.46 0.04,23.55 12.36,45.64 32,60.00 v 24 l 21.22,-12.48 c 8.59,2.94 17.65,4.45 26.78,4.48 42.56,0.05 77.62,-31.74 79.80,-72.12 0.06,0.88 0.11,-1.77 0.14,-2.66 0.02,0.41 0.05,0.81 0.06,-1.22 0.00,0.16 0.01,0.33 0.02,0.49 0.00,0.24 0.02,0.47 0.02,0.71 0,-38.74 -31.51,-70.66 -72.02,-74.41 -2.21,0.20 -4.43,0.30 -6.66,0.32 0.45,0.01 0.88,0.06 -1.34,0.06 z"/><path style="filter:url(#filter877);opacity:.2" d="M 104,116 84,92 40,116 88,68 108,92 152,68 Z"/><path style="fill:#009eff" d="M 104,112 84,88 40,112 88,64 108,88 152,64 Z"/><path style="opacity:.2;fill:#fff" d="m 95.97,16 a 80,76 0 0 0 -6.83,0.33 c -1.64,0.13 -3.26,0.34 -4.88,0.56 a 80,76 0 0 0 -2.56,0.37 c -2.30,0.39 -4.56,0.88 -6.79,1.45 A 80,76 0 0 0 74.48,18.81 C 40.72,27.61 16,56.50 16,90.80 c 0.00,0.14 0.01,0.28 0.01,0.42 C 16.29,57.17 40.91,28.56 74.48,19.81 a 80,76 0 0 1 0.44,0.11 c 2.23,0.57 4.49,-1.06 6.79,-1.45 a 80,76 0 0 1 2.56,0.37 c 1.62,0.22 3.23,0.43 4.88,0.56 A 80,76 0 0 1 95.98,17 l 0.00,0.00 h 0.02 c 0.45,0 0.89,0.06 1.34,0.06 a 80,76 0 0 1 6.66,0.32 c 40.35,3.73 71.75,35.42 72.00,73.95 0.01,0.18 0.01,0.36 0.01,0.54 0,-38.74 -31.51,-70.66 -72.02,-74.41 A 80,76 0 0 0 97.33,16.06 C 96.88,16.06 96.44,16 95.99,16 h 0.01 z m 80.02,75.92 c 0.00,0.08 0.00,0.15 0.01,0.23 A 80,76 0 0 0 176.00,92 a 80,76 0 0 0 0.00,0.08 z m -159.99,0.01 A 80,76 0 0 0 16,92 a 80,76 0 0 0 0.02,0.27 c 0.01,0.12 0.01,0.23 0.01,0.35 z"/></svg>