<?xml version='1.0' encoding='utf-8'?>
<svg xmlns="http://www.w3.org/2000/svg" width="192" height="192" version="1" id="svg12">
  <defs>
    <filter style="color-interpolation-filters:sRGB" id="filter860" x="-0.048000001" width="1.096" y="-0.048000001" height="1.096">
      <feGaussianBlur stdDeviation="3.2"/>
    </filter>
    <filter style="color-interpolation-filters:sRGB" id="filter848" x="-0.048959999" width="1.09792" y="-0.047076922" height="1.0941538">
      <feGaussianBlur stdDeviation="2.04"/>
    </filter>
  </defs>
  <rect style="filter:url(#filter860);opacity:0.2" width="160" height="160" x="16" y="20" rx="8" ry="8"/>
  <rect style="fill:#f9b862" width="160" height="160" x="16" y="16" rx="8" ry="8"/>
  <path style="opacity:0.2;fill:#ffffff" d="m 24,16 c -4.432,0 -8,3.568 -8,8 v 1 c 0,-4.432 3.568,-8 8,-8 h 144 c 4.432,0 8,3.568 8,8 v -1 c 0,-4.432 -3.568,-8 -8,-8 z"/>
  <path style="filter:url(#filter848);opacity:0.2;fill:#000000;color:#000000;font-stretch:normal;font-variant-ligatures:normal;font-variant-position:normal;font-variant-caps:normal;font-variant-numeric:normal;font-variant-alternates:normal;font-feature-settings:normal;text-indent:0;text-align:start;text-decoration-line:none;text-decoration-style:solid;text-decoration-color:#000000;text-transform:none;writing-mode:lr-tb;direction:ltr;text-orientation:mixed;dominant-baseline:auto;baseline-shift:baseline;white-space:normal;shape-padding:0;clip-rule:nonzero;display:inline;overflow:visible;visibility:visible;isolation:auto;mix-blend-mode:normal;color-interpolation:sRGB;color-interpolation-filters:linearRGB;solid-color:#000000;solid-opacity:1;vector-effect:none;fill-rule:nonzero;color-rendering:auto;image-rendering:auto;shape-rendering:auto;text-rendering:auto;enable-background:accumulate" d="m 46,52 v 8 h 46 v 6.212891 C 72.931296,68.221162 58,84.411682 58,104 c 0,19.58832 14.931296,35.77884 34,37.78711 V 156 h 8 V 141.78711 C 119.0687,139.77884 134,123.58832 134,104 134,84.411682 119.0687,68.221162 100,66.212891 V 60 h 46 V 52 Z M 92,74.271484 V 133.72852 C 77.289093,131.78217 66,119.25817 66,104 66,88.741831 77.289093,76.217831 92,74.271484 Z m 8,0 c 14.71091,1.946347 26,14.470347 26,29.728516 0,15.25817 -11.28909,27.78217 -26,29.72852 z"/>
  <circle style="fill:none;stroke:#3f3f3f;stroke-width:8" cx="96" cy="102" r="34"/>
  <path style="fill:none;stroke:#3f3f3f;stroke-width:8" d="M 46,54 H 146"/>
  <path style="fill:none;stroke:#3f3f3f;stroke-width:8" d="M 96,154 V 55.071895"/>
</svg>
