<?xml version='1.0' encoding='utf-8'?>
<svg xmlns="http://www.w3.org/2000/svg" width="192" height="192" version="1" id="svg28">
  <defs>
    <filter style="color-interpolation-filters:sRGB" id="filter3631" x="0.05" y="0.05" width="1.10" height="1.10">
      <feGaussianBlur stdDeviation="3.20"/>
    </filter>
    <filter style="color-interpolation-filters:sRGB" id="filter2408" x="0.04" y="0.06" width="1.08" height="1.12">
      <feGaussianBlur stdDeviation="2.01"/>
    </filter>
    <filter style="color-interpolation-filters:sRGB" id="filter2452" x="0.03" y="0.08" width="1.07" height="1.16">
      <feGaussianBlur stdDeviation="1.48"/>
    </filter>
    <filter style="color-interpolation-filters:sRGB" id="filter2456" x="0.03" y="0.08" width="1.07" height="1.16">
      <feGaussianBlur stdDeviation="1.48"/>
    </filter>
  </defs>
  <rect transform="matrix(0,-1,-1,0,0,0)" ry="18" rx="18" y="-176" x="-180" height="160" width="160" style="filter:url(#filter3631);opacity:0.20;fill:#000000"/>
  <rect transform="matrix(0,-1,-1,0,0,0)" ry="18" rx="18" y="-176" x="-176" height="160" width="160" style="fill:#36c559"/>
  <path style="filter:url(#filter2452);opacity:0.20;fill:#000000" d="M 138,140 128,95 H 35 Z"/>
  <path style="opacity:0.20;fill:#ffffff" d="M 34 16 C 24.03 16 16 24.03 16 34 L 16 35 C 16 25.03 24.03 17 34 17 L 158 17 C 167.97 17 176 25.03 176 35 L 176 34 C 176 24.03 167.97 16 158 16 L 34 16 z "/>
  <path style="fill:#9cdcab" d="M 138,138 128,93 H 35 Z"/>
  <path style="filter:url(#filter2408);opacity:0.20;fill:#000000" d="M 156,55 35,95 156,135 128,95 Z"/>
  <path style="fill:#9cdcab" d="M 156,53 128,93 H 35 Z"/>
  <path style="filter:url(#filter2456);opacity:0.20;fill:#000000" d="M 138,50 35,95 135.37,61.82 Z"/>
  <path style="fill:#ceeed5" d="M 138,48 128,93 H 35 Z"/>
  <path style="fill:#ffffff" d="M 156,133 128,93 H 35 Z"/>
  <path style="fill:#9be2ac" d="M 138 48 L 35 93 L 135.37 59.82 L 138 48 z "/>
</svg>
