<svg xmlns="http://www.w3.org/2000/svg" id="svg12" width="192" height="192" version="1.1"><defs><filter style="color-interpolation-filters:sRGB" id="filter845" width="1.1" height="1.1" x=".05" y=".05"><feGaussianBlur stdDeviation="3.2"/></filter><filter style="color-interpolation-filters:sRGB" id="filter849" width="1.09" height="1.1" x=".05" y=".05"><feGaussianBlur stdDeviation="2.05"/></filter></defs><rect style="filter:url(#filter845);opacity:.2" width="160" height="160" x="16" y="20" rx="16" ry="16"/><rect style="fill:#75aa03" width="160" height="160" x="16" y="16" rx="16" ry="16"/><path style="filter:url(#filter849);opacity:.2" d="m 73.16,49.23 -2.33,1.55 5.91,8.88 A 36,36 0 0 0 60.94,82 h 70.12 A 36,36 0 0 0 115.25,59.64 l 5.91,-8.87 -2.33,-1.55 -6.02,9.02 A 36,36 0 0 0 96,54 36,36 0 0 0 79.16,58.22 Z M 80,66 a 4,4 0 0 1 4,4 4,4 0 0 1 -4,4 4,4 0 0 1 -4,-4 4,4 0 0 1 4,-4 z m 32,0 a 4,4 0 0 1 4,4 4,4 0 0 1 -4,4 4,4 0 0 1 -4,-4 4,4 0 0 1 4,-4 z M 49.91,86 A 6.00,5.98 0 0 0 44,92.06 v 31.88 a 6.00,5.98 0 1 0 12,0 V 92.06 A 6.00,5.98 0 0 0 49.91,86 Z M 60,86 v 4 8 32 12 c 0,4.43 3.57,8 8,8 h 12 v -8 h 12 v -4 0.36 C 80.46,135.69 72.01,125.70 72,114 72,100.75 82.75,90 96,90 c 13.25,0 24,10.75 24,24 0.00,11.71 -8.46,21.70 -20,23.66 V 138 v 4 h 12 v 8 h 12 c 4.43,0 8,-3.57 8,-8 V 130 98 90 86 Z m 81.91,0 A 6.00,5.98 0 0 0 136,92.06 v 31.88 a 6.00,5.98 0 1 0 12,0 V 92.06 A 6.00,5.98 0 0 0 141.91,86 Z M 96,102 a 12,12 0 0 0 -12,12 12,12 0 0 0 12,12 12,12 0 0 0 12,-12 12,12 0 0 0 -12,-12 z m 0,4 a 8,8 0 0 1 8,8 8,8 0 0 1 -8,8 8,8 0 0 1 -8,-8 8,8 0 0 1 0.36,-2.36 A 4,4 0 0 0 92,114 4,4 0 0 0 96,110 4,4 0 0 0 93.65,106.36 8,8 0 0 1 96,106 Z"/><path style="opacity:.2;fill:#fff" d="M 32 16 C 23.14 16 16 23.14 16 32 L 16 33 C 16 24.14 23.14 17 32 17 L 160 17 C 168.86 17 176 24.14 176 33 L 176 32 C 176 23.14 168.86 16 160 16 L 32 16 z"/><path style="fill:#fff" d="m 73.16,47.23 -2.33,1.55 5.91,8.88 A 36,36 0 0 0 60.94,80 h 70.12 A 36,36 0 0 0 115.25,57.64 l 5.91,-8.87 -2.33,-1.55 -6.02,9.02 A 36,36 0 0 0 96,52 36,36 0 0 0 79.16,56.22 Z M 80,64 a 4,4 0 0 1 4,4 4,4 0 0 1 -4,4 4,4 0 0 1 -4,-4 4,4 0 0 1 4,-4 z m 32,0 a 4,4 0 0 1 4,4 4,4 0 0 1 -4,4 4,4 0 0 1 -4,-4 4,4 0 0 1 4,-4 z M 49.91,84 A 6.00,5.98 0 0 0 44,90.06 v 31.88 a 6.00,5.98 0 1 0 12,0 V 90.06 A 6.00,5.98 0 0 0 49.91,84 Z M 60,84 v 4 8 32 12 c 0,4.43 3.57,8 8,8 h 12 v -8 h 12 v -4 0.36 C 80.46,133.69 72.01,123.70 72,112 72,98.75 82.75,88 96,88 c 13.25,0 24,10.75 24,24 0.00,11.71 -8.46,21.70 -20,23.66 V 136 v 4 h 12 v 8 h 12 c 4.43,0 8,-3.57 8,-8 V 128 96 88 84 Z m 81.91,0 A 6.00,5.98 0 0 0 136,90.06 v 31.88 a 6.00,5.98 0 1 0 12,0 V 90.06 A 6.00,5.98 0 0 0 141.91,84 Z M 96,100 a 12,12 0 0 0 -12,12 12,12 0 0 0 12,12 12,12 0 0 0 12,-12 12,12 0 0 0 -12,-12 z m 0,4 a 8,8 0 0 1 8,8 8,8 0 0 1 -8,8 8,8 0 0 1 -8,-8 8,8 0 0 1 0.36,-2.36 A 4,4 0 0 0 92,112 4,4 0 0 0 96,108 4,4 0 0 0 93.65,104.36 8,8 0 0 1 96,104 Z"/></svg>