<?xml version='1.0' encoding='utf-8'?>
<svg xmlns="http://www.w3.org/2000/svg" width="192" height="192" version="1" id="svg18">
  <defs>
    <filter style="color-interpolation-filters:sRGB" id="filter859" x="0.05" width="1.10" y="0.05" height="1.10">
      <feGaussianBlur stdDeviation="3.20"/>
    </filter>
    <filter style="color-interpolation-filters:sRGB" id="filter878" x="0.04" width="1.07" y="0.07" height="1.14">
      <feGaussianBlur stdDeviation="1.96"/>
    </filter>
    <filter style="color-interpolation-filters:sRGB" id="filter888" x="0.03" width="1.05" y="0.02" height="1.05">
      <feGaussianBlur stdDeviation="0.41"/>
    </filter>
  </defs>
  <rect style="filter:url(#filter859);opacity:0.20;fill:#000000" width="160" height="160" x="-180" y="-176" rx="8" ry="8" transform="matrix(0,-1,-1,0,0,0)"/>
  <rect transform="matrix(0,-1,-1,0,0,0)" ry="8" rx="8" y="-176" x="-176" height="160" width="160" style="fill:#4f4f4f"/>
  <path style="filter:url(#filter888);opacity:0.10;fill:#000000" d="M 97.98,70 C 96.88,70 96,70.89 96,72.00 v 9.98 4.16 3.86 h -4 v -3.87 -4.15 -5.99 c 0,-1.11 0.89,-2.00 -2.00,-2.00 -1.11,0 -2.00,0.89 -2.00,2.00 v 5.99 5.36 2.66 h -4 v -8.02 -2.00 c 0,-1.11 0.87,-2.00 -1.98,-2.00 -1.11,0 -1.99,0.89 -1.99,2.00 V 97.94 c 0,0.16 0.04,0.15 0,0 0.06,0.52 0.00,1.49 0,2.01 0,7.72 6.25,13.98 13.96,13.98 0,0 8.15,0.48 11.46,0.97 6.17,-2.91 13.01,-15.37 13.01,-15.37 0.68,0.87 0.78,-2.04 0,-2.82 0.78,0.78 -1.95,0.68 -2.82,0 L 108,101.25 V 99.95 75.99 c 0,-1.11 0.93,-2.00 -2.04,-2.00 -1.11,0 -1.95,0.89 -1.96,2.00 v 5.99 8.02 h -4 v -2.66 -5.36 -9.98 C 100,70.89 99.09,70 97.98,70 Z"/>
  <path style="opacity:0.10;fill:#ffffff" d="M 24 16 C 19.57 16 16 19.57 16 24 L 16 25 C 16 20.57 19.57 17 24 17 L 168 17 C 172.43 17 176 20.57 176 25 L 176 24 C 176 19.57 172.43 16 168 16 L 24 16 z "/>
  <path d="M 97.98,68.00 C 96.88,68.00 96,68.89 96,70.00 v 9.98 4.16 V 88 h -4 v -3.87 -4.15 -5.99 c 0,-1.11 0.89,-2.00 -2.00,-2.00 -1.11,0 -2.00,0.89 -2.00,2.00 V 79.98 85.34 88 h -4 v -8.02 -2.00 c 0,-1.11 0.87,-2.00 -1.98,-2.00 -1.11,0 -1.99,0.89 -1.99,2.00 v 17.95 c 0,0.16 0.04,0.15 0,0 0.06,0.52 0.00,1.49 0,2.01 0,7.72 6.25,13.98 13.96,13.98 0,0 8.15,0.48 11.46,0.97 6.17,-2.91 13.01,-15.37 13.01,-15.37 0.68,0.87 0.78,-2.04 0,-2.82 0.78,0.78 -1.95,0.68 -2.82,0 L 108,99.25 V 97.95 73.99 c 0,-1.11 0.93,-2.00 -2.04,-2.00 -1.11,0 -1.95,0.89 -1.96,2.00 V 79.98 88 h -4 v -2.66 -5.36 -9.98 c 0,-1.11 0.91,-2.00 -2.02,-2.00 z" style="fill:#ffffff"/>
  <path d="M 125.91,72.02 A 36,36 0 0 1 132,92 36,36 0 0 1 96,128 36,36 0 0 1 60,92 36,36 0 0 1 66.07,72.02 C 46.68,81.78 32,97.29 32,100 c 0,0 28,40 64,40 36,0 64,-40 64,-40 0,-2.71 -14.69,-18.23 -34.09,-27.98 z" style="filter:url(#filter878);opacity:0.20"/>
  <path d="M 125.91,68.02 A 36,36 0 0 1 132,88 36,36 0 0 1 96,124 36,36 0 0 1 60,88 36,36 0 0 1 66.07,68.02 C 46.68,77.78 32,93.29 32,96 c 0,0 28,40 64,40 36,0 64,-40 64,-40 0,-2.71 -14.69,-18.23 -34.09,-27.98 z" style="fill:#ffffff"/>
</svg>
