<?xml version='1.0' encoding='utf-8'?>
<svg xmlns="http://www.w3.org/2000/svg" width="192" height="192" version="1" id="svg28">
  <defs>
    <filter style="color-interpolation-filters:sRGB" id="filter6495" x="-0.048000001" y="-0.048000001" width="1.096" height="1.096">
      <feGaussianBlur stdDeviation="3.2"/>
    </filter>
    <filter style="color-interpolation-filters:sRGB" id="filter2080" x="-0.094595407" y="-0.12583079" width="1.1891908" height="1.2516616">
      <feGaussianBlur stdDeviation="2.8757374"/>
    </filter>
  </defs>
  <rect transform="matrix(0,-1,-1,0,0,0)" ry="12" rx="12" y="-176" x="-180" height="160" width="160" style="filter:url(#filter6495);opacity:0.2;fill:#000000"/>
  <rect transform="matrix(0,-1,-1,0,0,0)" ry="12" rx="12" y="-176" x="-176" height="160" width="160" style="fill:#1a9aef"/>
  <path style="opacity:0.2;fill:#ffffff" d="m 28,16 c -6.648,0 -12,5.352 -12,12 v 1 c 0,-6.648 5.352,-12 12,-12 h 136 c 6.648,0 12,5.352 12,12 v -1 c 0,-6.648 -5.352,-12 -12,-12 z"/>
  <path style="filter:url(#filter2080);opacity:0.2;fill:#000000;color:#000000" d="M 100.48827,100.61362 66.437489,135.5394 47.449208,116.55112 37.55077,126.44956 66.562489,155.46323 110.51171,110.38706 Z"/>
  <path style="fill:#ffffff;color:#000000" d="M 100.48827,98.613447 66.437489,133.53929 47.449208,114.55101 37.55077,124.44945 66.562489,153.46312 110.51171,108.38695 Z"/>
</svg>
