<svg xmlns="http://www.w3.org/2000/svg" id="svg28" width="192" height="192" version="1"><defs><filter style="color-interpolation-filters:sRGB" id="filter4711" width="1.13" height="1.07" x=".07" y=".04"><feGaussianBlur stdDeviation="2.49"/></filter><filter style="color-interpolation-filters:sRGB" id="filter4795" width="1.11" height="1.09" x=".05" y=".04"><feGaussianBlur stdDeviation="2.88"/></filter><filter style="color-interpolation-filters:sRGB" id="filter5544" width="1.12" height="1.08" x=".06" y=".04"><feGaussianBlur stdDeviation="2.72"/></filter><filter style="color-interpolation-filters:sRGB" id="filter5548" width="1.13" height="1.08" x=".06" y=".04"><feGaussianBlur stdDeviation="1.29"/></filter><filter style="color-interpolation-filters:sRGB" id="filter5590" width="1.12" height="1.08" x=".06" y=".04"><feGaussianBlur stdDeviation="1.32"/></filter><filter style="color-interpolation-filters:sRGB" id="filter5632" width="1.11" height="1.09" x=".05" y=".04"><feGaussianBlur stdDeviation="1.45"/></filter><filter style="color-interpolation-filters:sRGB" id="filter5791" width="1.1" height="1.09" x=".05" y=".05"><feGaussianBlur stdDeviation="1.57"/></filter></defs><path style="filter:url(#filter4711);opacity:.2;fill:#000" d="M 104.11,19 H 28 c -6.65,0 -12,5.35 -12,12 v 136 c 0,6.65 5.35,12 12,12 h 77.48 z"/><path style="fill:#222961" d="M 104.11,16 H 28 c -6.65,0 -12,5.35 -12,12 v 136 c 0,6.65 5.35,12 12,12 h 77.48 z"/><path style="filter:url(#filter5544);opacity:.2;fill:#000" d="M 100.70,19 37.78,72.15 45.51,86.77 40.23,107.13 35.66,124.05 100.70,179 h 46.74 L 145.88,19 Z"/><path style="opacity:.1;fill:#fff" d="m 28,16 c -6.65,0 -12,5.35 -12,12 v 1 c 0,-6.65 5.35,-12 12,-12 h 136 c 6.65,0 12,5.35 12,12 v -1 c 0,-6.65 -5.35,-12 -12,-12 z"/><path style="fill:#2d377f" d="M 100.70,16 37.78,69.15 45.51,83.77 40.23,104.13 35.66,121.05 100.70,176 h 46.74 L 145.88,16 Z"/><path style="filter:url(#filter5632);opacity:.2;fill:#000" d="m 33,58 h 65.28 l 0.02,80 H 33 Z"/><path style="filter:url(#filter4795);opacity:.2;fill:#000" d="M 142.70,19 48,99 142.70,179 H 164 c 6.65,0 12,-5.35 12,-12 V 31 c 0,-6.65 -5.35,-12 -12,-12 z"/><path style="fill:#0da9fa" d="m 33,56 h 65.28 l 0.02,80 H 33 Z"/><path style="fill:#3b48a7" d="M 142.70,16 48,96 142.70,176 H 164 c 6.65,0 12,-5.35 12,-12 V 28 c 0,-6.65 -5.35,-12 -12,-12 z"/><path style="filter:url(#filter5791);opacity:.2;fill:#000" d="M 95.35,58 48,98 95.35,138 H 125 V 58 Z"/><path style="fill:#0364f5" d="M 95.35,56 48,96 95.35,136 H 125 V 56 Z"/><path style="filter:url(#filter5590);opacity:.2;fill:#000" d="M 124.35,58 77,98 124.35,138 H 129 V 58 Z"/><path style="fill:#9f6fff" d="M 124.35,56 77,96 124.35,136 H 129 V 56 Z"/><path style="filter:url(#filter5548);opacity:.2;fill:#000" d="m 156,57.45 -48,40.55 48,40.55 z"/><path style="fill:#22fafd" d="M 156,55.45 108,96 l 48,40.55 z"/><path style="fill:#222961" d="m 38,61 v 5 h 10 v -5 z m 15,0 v 5 h 10 v -5 z m 15,0 v 5 h 10 v -5 z m 15,0 v 5 h 10 v -5 z m 15,0 v 5 h 10 v -5 z m 15,0 v 5 h 10 v -5 z m -75,65 v 5 h 10 v -5 z m 15,0 v 5 h 10 v -5 z m 15,0 v 5 h 10 v -5 z m 15,0 v 5 h 10 v -5 z m 15,0 v 5 h 10 v -5 z m 15,0 v 5 h 10 v -5 z"/></svg>