<?xml version='1.0' encoding='utf-8'?>
<svg xmlns="http://www.w3.org/2000/svg" width="192" height="192" version="1.1" id="svg14">
  <defs>
    <filter style="color-interpolation-filters:sRGB" id="filter4736" x="0.05" y="0.05" width="1.10" height="1.10">
      <feGaussianBlur stdDeviation="3.20"/>
    </filter>
    <filter style="color-interpolation-filters:sRGB" id="filter18492" x="0.05" y="0.05" width="1.10" height="1.10">
      <feGaussianBlur stdDeviation="2.48"/>
    </filter>
  </defs>
  <circle style="filter:url(#filter4736);opacity:0.20;fill:#000000" cx="96" cy="100" r="80"/>
  <circle style="fill:#585d5e" cx="96" cy="96" r="80"/>
  <path style="fill:#75797b;color:#000000" d="m 96,37 c -32.57,0 -59,26.43 -59,59 0,32.57 26.43,59 59,59 32.57,0 59,-26.43 59,-59 0,-32.57 -26.43,-59 -59,-59 z m 0,2 c 31.49,0 57,25.51 57,57 0,31.49 -25.51,57 -57,57 C 64.51,153 39,127.49 39,96 39,64.51 64.51,39 96,39 Z"/>
  <path style="opacity:0.10;fill:#ffffff" d="M 96 16 A 80 80 0 0 0 16 96 A 80 80 0 0 0 16.04 96.50 A 80 80 0 0 1 96 17 A 80 80 0 0 1 175.98 96.25 A 80 80 0 0 0 176 96 A 80 80 0 0 0 96 16 z "/>
  <path style="filter:url(#filter18492);opacity:0.20;fill:#000000" d="m 96,36 v 8 A 54,54 0 0 1 150,98 54,54 0 0 1 96,152 54,54 0 0 1 42,98 H 34 A 62,62 0 0 0 96,160 62,62 0 0 0 158,98 62,62 0 0 0 96,36 Z M 62,74 v 6 h 25.86 l -19.65,42 h 6.35 L 94,79.01 V 74 Z m 41.02,0 -3.55,25 h 5.42 c 1.38,-1.62 2.72,-2.42 4.02,-3.03 C 110.21,95.31 111.77,95 113.60,95 c 3.17,0 5.69,0.99 7.57,3 1.87,1.97 2.84,4.68 2.84,8.13 0,3.32 0.96,5.95 -2.84,7.87 -1.83,1.92 -4.35,3 -7.57,3 -5.09,0 -8.32,-2.80 -9.71,-8 H 98 c 0.13,0.74 0.24,1.39 0.33,1.79 0.09,0.39 0.31,1.11 0.67,2.16 0.40,1.01 0.80,1.86 1.21,2.56 0.45,0.66 1.07,1.44 1.88,2.36 0.85,0.87 1.76,1.60 2.74,2.16 1.03,0.52 2.30,0.98 3.82,1.38 1.56,0.39 3.26,0.59 5.09,0.59 4.78,0 8.68,-1.55 11.71,-4.66 3.03,-3.10 4.55,-7.10 4.55,-12 0,-4.59 -1.43,-8.30 -4.29,-11.15 C 122.90,91.31 119.22,90 114.67,90 c -3.21,0 -6.14,0.81 -8.77,2.69 L 107.77,80 H 128 v -6 z"/>
  <path style="fill:#ff9100" d="M 96 34 L 96 42 A 54 54 0 0 1 150 96 A 54 54 0 0 1 96 150 A 54 54 0 0 1 42 96 L 34 96 A 62 62 0 0 0 96 158 A 62 62 0 0 0 158 96 A 62 62 0 0 0 96 34 z "/>
  <path style="fill:#ffffff" d="M 62 72 L 62 78 L 87.86 78 L 68.21 120 L 74.56 120 L 94 77.01 L 94 72 L 62 72 z M 103.02 72 L 99.47 97 L 104.89 97 C 106.28 95.38 107.62 94.58 108.91 93.97 C 110.21 93.31 111.77 93 113.60 93 C 116.77 93 119.29 93.99 121.16 96 C 123.04 97.97 124 100.68 124 104.13 C 124 107.45 123.04 110.08 121.16 112 C 119.33 113.92 116.81 115 113.60 115 C 108.51 115 105.27 112.20 103.89 107 L 98 107 C 98.13 107.74 98.24 108.39 98.33 108.79 C 98.42 109.18 98.65 109.90 99.00 110.95 C 99.41 111.96 99.81 112.81 100.21 113.51 C 100.66 114.16 101.28 114.95 102.08 115.87 C 102.93 116.74 103.85 117.46 104.83 118.03 C 105.85 118.56 107.13 119.02 108.64 119.41 C 110.21 119.80 111.90 120 113.73 120 C 118.51 120 122.41 118.45 125.45 115.34 C 128.48 112.24 130 108.24 130 103.34 C 130 98.75 128.57 95.04 125.71 92.20 C 122.90 89.31 119.22 88 114.67 88 C 111.46 88 108.53 88.81 105.90 90.69 L 107.77 78 L 128 78 L 128 72 L 103.02 72 z "/>
  <path style="opacity:0.20;fill:#ffffff" d="M 96 34 L 96 35 A 62 62 0 0 1 157.98 96.25 A 62 62 0 0 0 158 96 A 62 62 0 0 0 96 34 z M 34 96 A 62 62 0 0 0 34.07 97 L 42 97 A 54 54 0 0 0 96 151 A 54 54 0 0 0 150 97 A 54 54 0 0 0 149.98 96.25 A 54 54 0 0 1 96 150 A 54 54 0 0 1 42 96 L 34 96 z "/>
</svg>
