<svg xmlns="http://www.w3.org/2000/svg" id="svg24" width="192" height="192" version="1.1"><defs><filter style="color-interpolation-filters:sRGB" id="filter882" width="1.1" height="1.1" x=".05" y=".05"><feGaussianBlur stdDeviation="3.2"/></filter><filter style="color-interpolation-filters:sRGB" id="filter899" width="1.11" height="1.08" x=".06" y=".04"><feGaussianBlur stdDeviation="2.08"/></filter></defs><rect width="160" height="160" x="16" y="20" rx="8" ry="8" style="filter:url(#filter882);opacity:.2;fill:#000"/><rect style="fill:#e11966" width="160" height="160" x="16" y="16" rx="8" ry="8"/><path style="opacity:.2;fill:#fff" d="M 24 16 C 19.57 16 16 19.57 16 24 L 16 25 C 16 20.57 19.57 17 24 17 L 168 17 C 172.43 17 176 20.57 176 25 L 176 24 C 176 19.57 172.43 16 168 16 L 24 16 z"/><path style="filter:url(#filter899);opacity:.2" d="m 52,38 v 76 H 68 V 38 Z m 24,24 v 96 H 92 V 62 Z m 24,0 v 96 h 16 V 62 Z m 24,0 v 56 h 16 V 62 Z"/><rect style="fill:#fff" width="16" height="76" x="52" y="36"/><rect style="fill:#fff" width="16" height="96" x="76" y="60"/><rect style="fill:#fff" width="16" height="96" x="100" y="60"/><rect style="fill:#fff" width="16" height="56" x="124" y="60"/></svg>