<?xml version='1.0' encoding='utf-8'?>
<svg xmlns="http://www.w3.org/2000/svg" width="192" height="192" version="1.1" id="svg34">
  <defs>
    <filter style="color-interpolation-filters:sRGB" id="filter889" x="0.04" y="0.06" width="1.08" height="1.13">
      <feGaussianBlur stdDeviation="2.56"/>
    </filter>
    <filter style="color-interpolation-filters:sRGB" id="filter893" x="0.04" y="0.06" width="1.08" height="1.13">
      <feGaussianBlur stdDeviation="2.56"/>
    </filter>
    <filter style="color-interpolation-filters:sRGB" id="filter897" x="0.04" y="0.06" width="1.08" height="1.13">
      <feGaussianBlur stdDeviation="2.56"/>
    </filter>
    <filter style="color-interpolation-filters:sRGB" id="filter905" x="0.05" y="0.05" width="1.09" height="1.10">
      <feGaussianBlur stdDeviation="1.48"/>
    </filter>
  </defs>
  <path style="filter:url(#filter889);opacity:0.20" d="M 96.00,82.00 C 90.70,82.00 85.39,83.18 81.46,85.54 L 21.89,121.28 c -7.85,4.71 -7.85,12.74 0.01,17.45 l 59.57,35.74 c 7.85,4.71 21.23,4.71 29.08,0 l 59.57,-35.74 c 7.85,-4.71 7.85,-12.74 0.01,-17.45 L 110.54,85.54 c -3.93,-2.36 -9.23,-3.54 -14.54,-3.54 z"/>
  <path style="fill:#af2d2c" d="m 96.00,78.00 c -5.31,0.00 -10.61,1.18 -14.54,3.54 L 21.89,117.28 c -7.85,4.71 -7.85,12.74 0.01,17.45 l 59.57,35.74 c 7.85,4.71 21.23,4.71 29.08,0 l 59.57,-35.74 c 7.85,-4.71 7.85,-12.74 0.01,-17.45 L 110.54,81.54 c -3.93,-2.36 -9.23,-3.54 -14.54,-3.54 z"/>
  <path style="filter:url(#filter893);opacity:0.20" d="M 96.00,50.00 C 90.70,50.00 85.39,51.18 81.46,53.54 L 21.89,89.28 c -7.85,4.71 -7.85,12.74 0.01,17.45 l 59.57,35.74 c 7.85,4.71 21.23,4.71 29.08,0 l 59.57,-35.74 c 7.85,-4.71 7.85,-12.74 0.01,-17.45 L 110.54,53.54 c -3.93,-2.36 -9.23,-3.54 -14.54,-3.54 z"/>
  <path style="fill:#da3837" d="m 96.00,46.00 c -5.31,0.00 -10.61,1.18 -14.54,3.54 L 21.89,85.28 c -7.85,4.71 -7.85,12.74 0.01,17.45 l 59.57,35.74 c 7.85,4.71 21.23,4.71 29.08,0 l 59.57,-35.74 c 7.85,-4.71 7.85,-12.74 0.01,-17.45 L 110.54,49.54 c -3.93,-2.36 -9.23,-3.54 -14.54,-3.54 z"/>
  <path style="filter:url(#filter897);opacity:0.20" d="m 96.00,18.00 c -5.31,0.00 -10.61,1.18 -14.54,3.54 L 21.89,57.28 c -7.85,4.71 -7.85,12.74 0.01,17.45 l 59.57,35.74 c 7.85,4.71 21.23,4.71 29.08,0 l 59.57,-35.74 c 7.85,-4.71 7.85,-12.74 0.01,-17.45 L 110.54,21.54 c -3.93,-2.36 -9.23,-3.54 -14.54,-3.54 z"/>
  <path style="fill:#e0504d" d="m 96.00,14.00 c -5.31,0.00 -10.61,1.18 -14.54,3.54 L 21.89,53.28 c -7.85,4.71 -7.85,12.74 0.01,17.45 l 59.57,35.74 c 7.85,4.71 21.23,4.71 29.08,0 l 59.57,-35.74 c 7.85,-4.71 7.85,-12.74 0.01,-17.45 L 110.54,17.54 c -3.93,-2.36 -9.23,-3.54 -14.54,-3.54 z"/>
  <path style="opacity:0.20;fill:#ffffff" d="M 96 14 C 90.69 14.00 85.39 15.18 81.46 17.54 L 21.88 53.28 C 17.69 55.80 15.78 59.25 16.08 62.65 C 16.21 59.59 18.10 56.55 21.88 54.28 L 81.46 18.54 C 85.39 16.18 90.69 15.00 96 15 C 101.31 15.00 106.62 16.18 110.55 18.54 L 170.11 54.28 C 173.89 56.55 175.79 59.59 175.91 62.65 C 176.21 59.25 174.31 55.80 170.11 53.28 L 110.55 17.54 C 106.62 15.18 101.31 14.00 96 14 z "/>
  <path style="filter:url(#filter905);opacity:0.20" d="M 84.80,28 88.58,38.23 76,44.89 92.86,47.11 98.13,60 101.40,48.45 116,46.23 104.68,40 l 3,-10.57 -11.10,5.34 z M 60,52 A 20.00,12.00 0 0 0 40,64 20.00,12.00 0 0 0 60,76 20.00,12.00 0 0 0 80,64 20.00,12.00 0 0 0 60,52 Z M 108,76 72,84.31 97.12,100 Z"/>
  <polygon style="fill:#ffffff" transform="matrix(0.12,0,0,0.17,8.41,-7.24)" points="647,191.66 746.72,230.66 840.74,199.88 815.33,260.85 911.20,296.75 787.57,309.58 759.89,376.17 715.19,301.86 572.44,289.03 678.96,250.62 "/>
  <polygon style="fill:#ffffff" transform="matrix(0.11,0,0,0.16,15.18,-3.58)" points="521.79,524.11 852.40,473.38 752.51,619.81 "/>
  <ellipse style="fill:#ffffff" cx="60.00" cy="62.00" rx="20.00" ry="12.00"/>
  <g transform="matrix(4.15,0,0,4.09,-1.59,-3.82)">
    <path style="opacity:0.25" transform="matrix(0.03,0,0,0.04,2.81,-1.06)" d="M 1046.89,477.82 840.83,400.57 1046.89,314.95 Z"/>
    <path style="opacity:0.40" transform="matrix(0.03,0,0,0.04,2.81,-1.06)" d="m 1252.96,392.27 -206.07,85.54 V 314.95 Z"/>
  </g>
</svg>
