<?xml version='1.0' encoding='utf-8'?>
<svg xmlns="http://www.w3.org/2000/svg" width="192" height="192" version="1" id="svg12">
  <defs>
    <filter style="color-interpolation-filters:sRGB" id="filter955" x="0.05" width="1.10" y="0.05" height="1.10">
      <feGaussianBlur stdDeviation="3.20"/>
    </filter>
    <filter style="color-interpolation-filters:sRGB" id="filter1186" x="0.12" y="0.10" width="1.24" height="1.19">
      <feGaussianBlur stdDeviation="3.44"/>
    </filter>
  </defs>
  <rect style="filter:url(#filter955);opacity:0.20;fill:#000000" width="160" height="160" x="16" y="20" rx="30" ry="30"/>
  <rect style="fill:#dc3936" width="160" height="160" x="16" y="16" rx="30" ry="30"/>
  <path style="opacity:0.20;fill:#ffffff" d="M 46 16 C 29.38 16 16 29.38 16 46 L 16 47 C 16 30.38 29.38 17 46 17 L 146 17 C 162.62 17 176 30.38 176 47 L 176 46 C 176 29.38 162.62 16 146 16 L 46 16 z "/>
  <path style="filter:url(#filter1186);opacity:0.20;fill:#000000" d="m 110.70,123.99 c 11.15,-11.19 16.58,-16.88 17.21,-18.02 3.13,-5.66 2.73,-12.19 -1.06,-17.19 l -1.24,-1.64 -15.68,15.89 -15.68,15.89 -7.15,-7.19 c -8.34,-8.38 -8.98,-9.34 -8.98,-13.57 0,-4.06 0.60,-4.96 8.90,-13.45 l 7.14,-7.31 2.52,2.48 c 1.39,1.37 2.52,2.63 2.52,2.82 0,0.19 -3.40,3.74 -7.55,7.90 l -7.55,7.56 5.17,5.17 5.17,5.17 L 107.39,95.27 120.36,82.05 107.35,68.85 94.34,55.65 80.72,69.35 c -7.77,7.81 -14.15,14.51 -14.84,15.58 -4.99,7.66 -5.18,17.67 0.50,25.69 1.10,1.88 3.96,4.94 15.00,16.03 7.50,7.54 13.73,13.70 13.83,13.70 0.11,0 7.52,-7.36 16.48,-16.36 z"/>
  <path style="fill:#ffffff" d="m 110.70,121.99 c 11.15,-11.19 16.58,-16.88 17.21,-18.02 3.13,-5.66 2.73,-12.19 -1.06,-17.19 l -1.24,-1.64 -15.68,15.89 -15.68,15.89 -7.15,-7.19 c -8.34,-8.38 -8.98,-9.34 -8.98,-13.57 0,-4.06 0.60,-4.96 8.90,-13.45 l 7.14,-7.31 2.52,2.48 c 1.39,1.37 2.52,2.63 2.52,2.82 0,0.19 -3.40,3.74 -7.55,7.90 l -7.55,7.56 5.17,5.17 5.17,5.17 L 107.39,93.27 120.36,80.05 107.35,66.85 94.34,53.65 80.72,67.35 c -7.77,7.81 -14.15,14.51 -14.84,15.58 -4.99,7.66 -5.18,17.67 0.50,25.69 1.10,1.88 3.96,4.94 15.00,16.03 7.50,7.54 13.73,13.70 13.83,13.70 0.11,0 7.52,-7.36 16.48,-16.36 z"/>
</svg>
