<?xml version='1.0' encoding='utf-8'?>
<svg xmlns="http://www.w3.org/2000/svg" width="192" height="192" version="1.1" id="svg14">
  <defs>
    <filter style="color-interpolation-filters:sRGB" id="filter849" x="-0.048000004" y="-0.048000001" width="1.096" height="1.096">
      <feGaussianBlur stdDeviation="3.2000001"/>
    </filter>
    <filter style="color-interpolation-filters:sRGB" id="filter853" x="-0.048000011" y="-0.048000008" width="1.096" height="1.096">
      <feGaussianBlur stdDeviation="2.4000006"/>
    </filter>
  </defs>
  <path style="filter:url(#filter849);opacity:0.2" d="M 96,20.000001 A 80,80 0 0 0 16,100 80,80 0 0 0 96,180 80,80 0 0 0 175.99999,100 80,80 0 0 0 96,20.000001 Z"/>
  <path style="fill:#4f4f4f" d="M 96,16.000001 A 80,80 0 0 0 16,96 80,80 0 0 0 96,176 80,80 0 0 0 175.99999,96 80,80 0 0 0 96,16.000001 Z"/>
  <path style="opacity:0.1;fill:#ffffff" d="M 96 16 A 80.001428 80.061476 0 0 0 16 96.0625 A 80.001428 80.061476 0 0 0 16.029297 96.619141 A 80.001428 80.061476 0 0 1 96 17 A 80.001428 80.061476 0 0 1 175.98633 96.435547 A 80.001428 80.061476 0 0 0 176 96.0625 A 80.001428 80.061476 0 0 0 96 16 z "/>
  <path style="filter:url(#filter853);opacity:0.2" d="M 96.000004,39.999992 A 60.000008,60.000008 0 0 1 156,99.999996 60.000008,60.000008 0 0 1 96.000004,160 60.000008,60.000008 0 0 1 36,99.999996 60.000008,60.000008 0 0 1 96.000004,39.999992 Z"/>
  <path style="fill:#ffffff" d="M 96.000004,35.999996 A 60.000008,60.000008 0 0 1 156,96 60.000008,60.000008 0 0 1 96.000004,156 60.000008,60.000008 0 0 1 36,96 60.000008,60.000008 0 0 1 96.000004,35.999996 Z"/>
  <path style="fill:#4f4f4f" d="M 81.88616,48 70.127436,90.05692 61.316052,93.142856 56,114.28571 64.024552,111.47879 56,136 H 90.285712 130.68394 L 136,116 H 97.119624 l 4.929486,-17.830356 11.09375,-3.883932 5.31605,-21.142856 -10.30134,3.604912 L 116.17187,48 Z"/>
</svg>
