<?xml version='1.0' encoding='utf-8'?>
<svg xmlns="http://www.w3.org/2000/svg" width="192" height="192" version="1" id="svg28">
  <defs>
    <filter style="color-interpolation-filters:sRGB" id="filter865" x="0.08" width="1.17" y="0.03" height="1.07">
      <feGaussianBlur stdDeviation="2.24"/>
    </filter>
    <filter style="color-interpolation-filters:sRGB" id="filter881" x="0.05" width="1.10" y="0.05" height="1.10">
      <feGaussianBlur stdDeviation="2.56"/>
    </filter>
    <filter style="color-interpolation-filters:sRGB" id="filter897" x="0.05" width="1.10" y="0.05" height="1.10">
      <feGaussianBlur stdDeviation="2.56"/>
    </filter>
    <filter style="color-interpolation-filters:sRGB" id="filter913" x="0.05" width="1.10" y="0.05" height="1.10">
      <feGaussianBlur stdDeviation="2.56"/>
    </filter>
    <filter style="color-interpolation-filters:sRGB" id="filter945" x="0.05" width="1.11" y="0.04" height="1.09">
      <feGaussianBlur stdDeviation="0.88"/>
    </filter>
  </defs>
  <path d="M 80.40,33.60 C 45.98,33.60 18,61.58 18,96 c 0,34.42 27.98,62.40 62.40,62.40 5.40,0 10.60,0.76 15.60,-2.06 5.00,1.29 10.20,2.06 15.60,2.06 34.42,0 62.40,-27.98 62.40,-62.40 0,-34.42 -27.98,-62.40 -62.40,-62.40 -5.40,0 -10.60,0.76 -15.60,2.06 C 91.00,34.36 85.80,33.60 80.40,33.60 Z" style="fill:#3f3f3f"/>
  <path d="m 80,36 c -35.30,0 -64,28.70 -64,64 0,35.30 28.70,64 64,64 35.30,0 64,-28.70 64,-64 0,-35.30 -28.70,-64 -64,-64 z m 0,8 c 30.98,0 56,25.02 56,56 0,30.98 -25.02,56 -56,56 C 49.02,156 24,130.98 24,100 24,69.02 49.02,44 80,44 Z" style="filter:url(#filter897);opacity:0.20;fill:#000000"/>
  <path d="m 80,32 c -35.30,0 -64,28.70 -64,64 0,35.30 28.70,64 64,64 35.30,0 64,-28.70 64,-64 0,-35.30 -28.70,-64 -64,-64 z m 0,8 c 30.98,0 56,25.02 56,56 0,30.98 -25.02,56 -56,56 C 49.02,152 24,126.98 24,96 24,65.02 49.02,40 80,40 Z" style="fill:#2d86b4"/>
  <path d="m 96,36 c -35.30,0 -64,28.70 -64,64 0,35.30 28.70,64 64,64 35.30,0 64,-28.70 64,-64 0,-35.30 -28.70,-64 -64,-64 z m 0,8 c 30.98,0 56,25.02 56,56 0,30.98 -25.02,56 -56,56 C 65.02,156 40,130.98 40,100 40,69.02 65.02,44 96,44 Z" style="filter:url(#filter913);opacity:0.20;fill:#000000"/>
  <path d="m 96,32 c -35.30,0 -64,28.70 -64,64 0,35.30 28.70,64 64,64 35.30,0 64,-28.70 64,-64 0,-35.30 -28.70,-64 -64,-64 z m 0,8 c 30.98,0 56,25.02 56,56 0,30.98 -25.02,56 -56,56 C 65.02,152 40,126.98 40,96 40,65.02 65.02,40 96,40 Z" style="fill:#6ee26e"/>
  <path d="m 112,36 c -35.30,0 -64,28.70 -64,64 0,35.30 28.70,64 64,64 35.30,0 64,-28.70 64,-64 0,-35.30 -28.70,-64 -64,-64 z m 0,8 c 30.98,0 56,25.02 56,56 0,30.98 -25.02,56 -56,56 -30.98,0 -56,-25.02 -56,-56 0,-30.98 25.02,-56 56,-56 z" style="filter:url(#filter881);opacity:0.20;fill:#000000"/>
  <path d="m 112,32 c -35.30,0 -64,28.70 -64,64 0,35.30 28.70,64 64,64 35.30,0 64,-28.70 64,-64 0,-35.30 -28.70,-64 -64,-64 z m 0,8 c 30.98,0 56,25.02 56,56 0,30.98 -25.02,56 -56,56 C 81.02,152 56,126.98 56,96 56,65.02 81.02,40 112,40 Z" style="fill:#b75aff"/>
  <rect ry="32" y="20" x="64" height="160" width="64" style="filter:url(#filter865);opacity:0.20"/>
  <rect ry="32" y="16" x="64" height="160" width="64" style="fill:#3f3f3f"/>
  <path d="M 120,100 100.00,112 80.00,124 V 100.00 76.00 l 20.00,12 z" style="filter:url(#filter945);opacity:0.10"/>
  <path d="M 120,96.00 100.00,108 80.00,120 V 96.00 72.00 l 20.00,12 z" style="fill:#ffffff"/>
  <path style="opacity:0.10;fill:#ffffff" d="M 96 16 C 78.27 16 64 30.27 64 48 L 64 49 C 64 31.27 78.27 17 96 17 C 113.73 17 128 31.27 128 49 L 128 48 C 128 30.27 113.73 16 96 16 z "/>
</svg>
