<?xml version='1.0' encoding='utf-8'?>
<svg xmlns="http://www.w3.org/2000/svg" width="192" height="192" version="1.1" id="svg14">
  <defs>
    <filter style="color-interpolation-filters:sRGB" id="filter849" x="-0.048000001" y="-0.048000001" width="1.096" height="1.096">
      <feGaussianBlur stdDeviation="3.2"/>
    </filter>
    <filter style="color-interpolation-filters:sRGB" id="filter3245" x="-0.048" y="-0.048" width="1.096" height="1.096">
      <feGaussianBlur stdDeviation="2.24"/>
    </filter>
    <filter style="color-interpolation-filters:sRGB" id="filter3292" x="-0.049454546" y="-0.046628572" width="1.0989091" height="1.0932571">
      <feGaussianBlur stdDeviation="1.36"/>
    </filter>
  </defs>
  <circle style="filter:url(#filter849);opacity:0.2" cx="96" cy="100" r="80"/>
  <circle style="fill:#24af34" cx="96" cy="96" r="80"/>
  <circle style="filter:url(#filter3245);opacity:0.2;fill:#000000" cx="96" cy="99.000008" r="56"/>
  <circle style="fill:#ffffff" cx="96" cy="96" r="56"/>
  <path style="filter:url(#filter3292);opacity:0.2;fill:#000000" d="m 72,63 c -1.662,0 -3,1.338 -3,3 v 10 c 0,1.662 1.338,3 3,3 h 10 c 1.662,0 3,-1.338 3,-3 V 66 c 0,-1.662 -1.338,-3 -3,-3 z m 29.59375,0 c 0,0 -1.59375,0.06029 -1.59375,1.716797 v 12.669922 c 0,0 0.15958,1.584168 1.49219,1.65039 C 111.36765,79.785108 119,87.903672 119,98 c 0,10.09633 -7.63235,18.21488 -17.50781,18.96289 C 100.15958,117.02911 100,118.61328 100,118.61328 V 131.2832 C 100,132.93974 101.59375,133 101.59375,133 120.09829,132.1572 135,116.72097 135,98 135,79.279033 120.09829,63.842805 101.59375,63 Z M 72,95 c -1.662,0 -3,1.338 -3,3 v 32 c 0,1.662 1.338,3 3,3 h 10 c 1.662,0 3,-1.338 3,-3 V 98 c 0,-1.662 -1.338,-3 -3,-3 z"/>
  <path style="opacity:0.2;fill:#ffffff" d="M 96,16 A 80,80 0 0 0 16,96 80,80 0 0 0 16.023438,96.638672 80,80 0 0 1 96,17 80,80 0 0 1 175.98438,96.302734 80,80 0 0 0 176,96 80,80 0 0 0 96,16 Z"/>
  <rect style="fill:#f23e2a" width="16" height="16" x="69" y="61" rx="3" ry="3"/>
  <rect style="fill:#24af34" width="16" height="38" x="69" y="93" rx="3" ry="3"/>
  <path style="fill:#008afd;color:#000000" d="m 101.59375,61 c 0,0 -1.59375,0.06016 -1.59375,1.716664 v 12.669683 c 0,0 0.15958,1.583966 1.49219,1.650188 C 111.36765,77.784534 119,85.903673 119,96.000001 119,106.09633 111.36765,114.21546 101.49219,114.96347 100.15958,115.02969 100,116.61366 100,116.61366 v 12.66968 C 100,130.93988 101.59375,131 101.59375,131 120.09829,130.1572 135,114.72097 135,96.000001 135,77.279034 120.09829,61.842805 101.59375,61 Z"/>
</svg>
