<svg xmlns="http://www.w3.org/2000/svg" id="svg14" width="192" height="192" version="1"><defs><filter style="color-interpolation-filters:sRGB" id="filter850" width="1.1" height="1.1" x=".05" y=".05"><feGaussianBlur stdDeviation="3.2"/></filter><filter style="color-interpolation-filters:sRGB" id="filter16467" width="1.12" height="1.21" x=".06" y=".1"><feGaussianBlur stdDeviation="2.89"/></filter></defs><circle style="filter:url(#filter850);opacity:.2;fill:#000" cx="96" cy="100" r="80"/><circle cx="96" cy="96" r="80" style="fill:#32364e"/><path style="filter:url(#filter16467);opacity:.2;fill:#000;color:#000" d="m 53.11,65.00 a 15,15 0 0 0 -7.52,1.96 15,15 0 0 0 -5.64,20.45 l 21,37.00 a 15,15 0 0 0 20.45,5.64 15,15 0 0 0 5.64,-20.45 l -21,-37.00 A 15,15 0 0 0 53.11,65.00 Z m 44,0 a 15,15 0 0 0 -7.52,1.96 15,15 0 0 0 -5.64,20.45 l 21.00,37.00 a 15,15 0 0 0 20.45,5.64 15,15 0 0 0 5.64,-20.45 l -21,-37.00 A 15,15 0 0 0 97.11,65.00 Z m 43.89,0 a 15,15 0 0 0 -15,15 15,15 0 0 0 15,15 15,15 0 0 0 15,-15 15,15 0 0 0 -15,-15 z"/><path style="opacity:.1;fill:#fff" d="M 96 16 A 80 80 0 0 0 16 96 A 80 80 0 0 0 16.02 96.47 A 80 80 0 0 1 96 17 A 80 80 0 0 1 175.97 96.51 A 80 80 0 0 0 176 96 A 80 80 0 0 0 96 16 z"/><path style="fill:#57baf8;color:#000" d="m 53.11,63 a 15,15 0 0 0 -7.52,1.96 15,15 0 0 0 -5.64,20.45 l 21,37.00 a 15,15 0 0 0 20.45,5.64 15,15 0 0 0 5.64,-20.45 l -21,-37.00 A 15,15 0 0 0 53.11,63 Z"/><path style="fill:#ff9840;color:#000" d="m 97.11,63 a 15,15 0 0 0 -7.52,1.96 15,15 0 0 0 -5.64,20.45 L 104.96,122.40 a 15,15 0 0 0 20.45,5.64 15,15 0 0 0 5.64,-20.45 l -21,-37.00 A 15,15 0 0 0 97.11,63 Z"/><circle style="fill:#f1366d" cx="141" cy="78" r="15"/><path style="opacity:.2;fill:#fff;color:#000" d="M 53.11 63 A 15 15 0 0 0 45.60 64.96 A 15 15 0 0 0 38.07 78.42 A 15 15 0 0 1 45.60 65.96 A 15 15 0 0 1 53.11 64 A 15 15 0 0 1 66.04 71.60 L 87.04 108.60 A 15 15 0 0 1 88.98 115.53 A 15 15 0 0 0 87.04 107.60 L 66.04 70.60 A 15 15 0 0 0 53.11 63 z M 97.11 63 A 15 15 0 0 0 89.60 64.96 A 15 15 0 0 0 82.07 78.42 A 15 15 0 0 1 89.60 65.96 A 15 15 0 0 1 97.11 64 A 15 15 0 0 1 110.04 71.60 L 131.04 108.60 A 15 15 0 0 1 132.98 115.53 A 15 15 0 0 0 131.04 107.60 L 110.04 70.60 A 15 15 0 0 0 97.11 63 z M 141 63 A 15 15 0 0 0 126 78 A 15 15 0 0 0 126.07 78.50 A 15 15 0 0 1 141 64 A 15 15 0 0 1 155.97 78.25 A 15 15 0 0 0 156 78 A 15 15 0 0 0 141 63 z"/></svg>