<?xml version='1.0' encoding='utf-8'?>
<svg xmlns="http://www.w3.org/2000/svg" width="192" height="192" version="1.1" id="svg12">
  <defs>
    <filter style="color-interpolation-filters:sRGB" id="filter845" x="-0.052235296" y="-0.044400001" width="1.1044706" height="1.0888">
      <feGaussianBlur stdDeviation="2.96"/>
    </filter>
    <filter style="color-interpolation-filters:sRGB" id="filter1412" x="-0.05309091" y="-0.043800002" width="1.1061818" height="1.0876">
      <feGaussianBlur stdDeviation="1.46"/>
    </filter>
  </defs>
  <path style="filter:url(#filter845);opacity:0.2" d="M 96.078596,18 C 58.22146,18 27.999687,30.13532 27.999687,30.13532 l 2.625173,81.82684 c 0,0 -0.08016,40.29176 65.374512,66.03784 65.534198,-25.74608 65.376068,-66.03784 65.376068,-66.03784 l 2.62362,-81.82684 C 164.15812,30.13532 133.93573,18 96.078596,18 Z"/>
  <path style="fill:#1c7fce" d="M 96.078596,14 C 58.22146,14 27.999687,26.13532 27.999687,26.13532 l 2.625173,81.82684 c 0,0 -0.08016,40.29176 65.374512,66.03784 65.534198,-25.74608 65.376068,-66.03784 65.376068,-66.03784 l 2.62362,-81.82684 C 164.15812,26.13532 133.93573,14 96.078596,14 Z"/>
  <path style="opacity:0.2;fill:#ffffff" d="M 96.078125 14 C 58.220989 14 28 26.132812 28 26.132812 L 28.03125 27.121094 C 28.202261 27.05256 58.328519 15 96.078125 15 C 133.82402 15 163.9495 27.05021 163.96875 27.121094 L 164 26.132812 C 164.15905 26.132813 133.93526 14 96.078125 14 z "/>
  <path style="filter:url(#filter1412);opacity:0.2;fill:#000000" d="M 96.000002,46.000001 C 82.800001,46.000001 73,52.666872 73,69.333193 v 9.666808 H 68.500003 C 65.453005,79.000001 63,81.434628 63,84.60035 V 120.2857 C 63,123.45143 65.453005,126 68.500003,126 H 123.5 c 3.04701,0 5.5,-2.54857 5.5,-5.7143 V 84.60035 c 0,-3.165722 -2.45299,-5.600349 -5.5,-5.600349 H 119 V 69.333193 C 119,52.704587 109.2,46.018858 96.000002,46.018858 Z m 0,10.000021 c 6.599998,0 12.896558,3.333857 12.999998,13.333171 v 9.666808 H 83 V 69.333193 C 83,59.333172 89.400002,56.000022 96.000002,56.000022 Z"/>
  <path style="fill:#ffffff" d="M 96.000002,43.000001 C 82.800001,43.000001 73,49.666872 73,66.333193 v 9.666808 H 68.500003 C 65.453005,76.000001 63,78.434628 63,81.60035 V 117.2857 C 63,120.45143 65.453005,123 68.500003,123 H 123.5 c 3.04701,0 5.5,-2.54857 5.5,-5.7143 V 81.60035 c 0,-3.165722 -2.45299,-5.600349 -5.5,-5.600349 H 119 V 66.333193 C 119,49.704587 109.2,43.018858 96.000002,43.018858 Z m 0,10.000021 c 6.599998,0 12.896558,3.333857 12.999998,13.333171 v 9.666808 H 83 V 66.333193 C 83,56.333172 89.400002,53.000022 96.000002,53.000022 Z"/>
</svg>
