<?xml version='1.0' encoding='utf-8'?>
<svg xmlns="http://www.w3.org/2000/svg" width="192" height="192" version="1" id="svg28">
  <defs>
    <filter style="color-interpolation-filters:sRGB" id="filter16056" x="0.04" y="0.06" width="1.08" height="1.11">
      <feGaussianBlur stdDeviation="3.07"/>
    </filter>
    <filter style="color-interpolation-filters:sRGB" id="filter16098" x="0.09" y="0.07" width="1.17" height="1.13">
      <feGaussianBlur stdDeviation="3.64"/>
    </filter>
  </defs>
  <path style="filter:url(#filter16098);opacity:0.20;fill:#000000" d="M 97.77,32.00 144.37,149.06 92.67,162.91 42.51,58.15 Z"/>
  <path style="fill:#c62323" d="M 97.77,30.00 144.37,147.06 92.67,160.91 42.51,56.15 Z"/>
  <path style="filter:url(#filter16056);opacity:0.20;fill:#000000" d="m 60.14,34.00 c -11.24,0 -20.01,9.40 -23.52,22.49 L 7,164.91 h 45.58 c 0,0 9.02,1.74 12.19,-10.17 L 97.77,34.00 Z m 77.90,0 c -9.10,0 -12.09,9.07 -12.09,9.07 L 92.67,164.91 h 39.00 c 12.56,0 18.93,-10.46 22.73,-24.63 L 183.44,34.00 Z"/>
  <path style="fill:#e93140" d="m 60.14,30.00 c -11.24,0 -20.01,9.40 -23.52,22.49 L 7,160.91 h 45.58 c 0,0 9.02,1.74 12.19,-10.17 L 97.77,30.00 Z m 77.90,0 c -9.10,0 -12.09,9.07 -12.09,9.07 L 92.67,160.91 h 39.00 c 12.56,0 18.93,-10.46 22.73,-24.63 L 183.44,30.00 Z"/>
  <path style="opacity:0.20;fill:#ffffff" d="M 60.14 30 C 48.91 30 40.13 39.40 36.62 52.49 L 7 160.91 L 7.27 160.91 L 36.62 53.49 C 40.13 40.40 48.91 31 60.14 31 L 97.49 31 L 97.77 30 L 60.14 30 z M 138.05 30 C 128.94 30 125.96 39.07 125.96 39.07 L 92.67 160.91 L 92.94 160.91 L 125.96 40.07 C 125.96 40.07 128.94 31 138.05 31 L 183.16 31 L 183.44 30 L 138.05 30 z "/>
</svg>
