<svg xmlns="http://www.w3.org/2000/svg" id="svg28" width="192" height="192" version="1"><defs><filter style="color-interpolation-filters:sRGB" id="filter901" width="1.1" height="1.1" x=".05" y=".05"><feGaussianBlur stdDeviation="3.2"/></filter><filter style="color-interpolation-filters:sRGB" id="filter2677" width="1.06" height="1.31" x=".03" y=".15"><feGaussianBlur stdDeviation="1.54"/></filter></defs><rect style="filter:url(#filter901);opacity:.2;fill:#000" width="160" height="160" x="-180" y="-176" rx="12" ry="12" transform="matrix(0,-1,-1,0,0,0)"/><rect width="160" height="160" x="-176" y="-176" rx="12" ry="12" transform="matrix(0,-1,-1,0,0,0)" style="fill:#015493"/><path style="filter:url(#filter2677);opacity:.2;fill:#000;fill-rule:nonzero" d="m 31,86 v 24 h 7 V 94.93 L 43.56,110 h 4.91 L 54,94.93 V 110 h 7 V 86 H 50.88 L 46,98 41.12,86 Z m 33,0 v 24 l 20.00,0.01 0.01,-4.99 H 71 v -5 H 84 V 95 H 71 v -4 h 13 v -5 z m 22,0 v 5 h 7 v 19 h 8 V 91 h 7 v -5 z m 24,0 v 24 h 7 v -9.03 h 3.48 l 4.88,9.03 h 8.62 l -5.80,-9.03 h 1.15 c 2.35,0 4.67,-2.08 4.67,-4.69 V 90.36 C 133.73,87.65 131.70,86.19 129.29,86 Z m 30.63,0 c -2.37,0.19 -4.36,1.41 -4.63,4.12 v 15.53 c 0.27,2.72 2.26,4.16 4.63,4.35 h 15.74 c 2.37,0.19 4.36,-1.63 4.63,-4.35 V 90.12 C 160.73,87.41 158.74,86.19 156.37,86 Z M 117,91 h 8.92 C 127.01,91 127,91.73 127,92.19 v 2.77 C 127,95.52 126.87,96 125.91,96 H 117 Z m 27.16,0 h 8.71 c 0.99,0.09 1.09,0.64 1.13,0.90 v 12.07 c 0.04,0.26 0.15,0.94 -1.13,1.03 h -8.66 C 143.22,104.91 143.04,104.23 143,103.97 V 91.90 C 143.04,91.64 143.17,91.09 144.16,91 Z"/><path style="opacity:.1;fill:#fff" d="m 28,16 c -6.65,0 -12,5.35 -12,12 v 1 c 0,-6.65 5.35,-12 12,-12 h 136 c 6.65,0 12,5.35 12,12 v -1 c 0,-6.65 -5.35,-12 -12,-12 z"/><path style="fill:#ffca26;fill-rule:nonzero" d="m 31,84 v 24 h 7 V 92.93 L 43.56,108 h 4.91 L 54,92.93 V 108 h 7 V 84 H 50.88 L 46,96 41.12,84 Z m 33,0 v 24 l 20.00,0.01 0.01,-4.99 H 71 V 98 H 84 V 93 H 71 v -4 h 13 v -5 z m 22,0 v 5 h 7 v 19 h 8 V 89 h 7 v -5 z m 24,0 v 24 h 7 v -9.03 h 3.48 L 125.36,108 h 8.62 l -5.80,-9.03 h 1.15 c 2.35,0 4.67,-2.08 4.67,-4.69 V 88.36 C 133.73,85.65 131.70,84.19 129.29,84 Z m 30.63,0 c -2.37,0.19 -4.36,1.41 -4.63,4.12 v 15.53 c 0.27,2.72 2.26,4.16 4.63,4.35 h 15.74 c 2.37,0.19 4.36,-1.63 4.63,-4.35 V 88.12 C 160.73,85.41 158.74,84.19 156.37,84 Z M 117,89 h 8.92 C 127.01,89 127,89.73 127,90.19 v 2.77 C 127,93.52 126.87,94 125.91,94 H 117 Z m 27.16,0 h 8.71 c 0.99,0.09 1.09,0.64 1.13,0.90 v 12.07 c 0.04,0.26 0.15,0.94 -1.13,1.03 h -8.66 C 143.22,102.91 143.04,102.23 143,101.97 V 89.90 C 143.04,89.64 143.17,89.09 144.16,89 Z"/><path style="opacity:.2;fill:#fff;fill-rule:nonzero" d="m 31,84 v 1 H 41.12 L 46,97 50.88,85 H 61 V 84 H 50.88 L 46,96 41.12,84 Z m 33,0 v 1 h 20 v -1 z m 22,0 v 1 h 22 v -1 z m 24,0 v 1 h 19.29 c 2.41,0.19 4.43,1.65 4.71,4.36 v -1 C 133.73,85.65 131.70,84.19 129.29,84 Z m 30.63,0 c -2.37,0.19 -4.36,1.41 -4.63,4.12 v 1 c 0.27,-2.72 2.26,-3.93 4.63,-4.12 h 15.74 c 2.37,0.19 4.36,1.41 4.63,4.12 v -1 C 160.73,85.41 158.74,84.19 156.37,84 Z M 127,92.96 C 127,93.52 126.87,94 125.91,94 H 117 v 1 h 8.91 C 126.87,95 127,94.52 127,93.96 Z M 71,93 v 1 H 84 V 93 Z M 128.18,99.97 133.34,108 h 0.64 l -5.16,-8.03 z M 143,101.97 v 1 c 0.04,0.26 0.22,0.94 1.20,1.03 h 8.66 c 0.99,0.09 1.10,0.77 1.13,-1.03 v -1 c 0.04,0.26 0.15,0.94 -1.13,1.03 h -8.66 C 143.22,102.91 143.04,102.23 143,101.97 Z M 71,103 v 1 h 13.00 l 0.00,-1 z"/></svg>