<svg xmlns="http://www.w3.org/2000/svg" id="svg12" width="192" height="192" version="1"><defs><filter style="color-interpolation-filters:sRGB" id="filter858" width="1.1" height="1.1" x=".05" y=".05"><feGaussianBlur stdDeviation="3.2"/></filter><filter style="color-interpolation-filters:sRGB" id="filter874" width="1.08" height="1.11" x=".04" y=".06"><feGaussianBlur stdDeviation="2.04"/></filter></defs><rect width="160" height="160" x="16" y="20" rx="8" ry="8" style="filter:url(#filter858);opacity:.2;fill:#000"/><rect style="fill:#f58411" width="160" height="160" x="16" y="16" rx="8" ry="8"/><path style="opacity:.2;fill:#fff" d="M 24 16 C 19.57 16 16 19.57 16 24 L 16 25 C 16 20.57 19.57 17 24 17 L 168 17 C 172.43 17 176 20.57 176 25 L 176 24 C 176 19.57 172.43 16 168 16 L 24 16 z"/><path style="filter:url(#filter874);opacity:.2" d="m 136,54.00 a 16,16 0 0 0 -16,16 16,16 0 0 0 16,16 16,16 0 0 0 16,-16 16,16 0 0 0 -16,-16 z M 100.38,54.29 A 16,16 0 0 0 99.24,54.30 16,16 0 0 0 86.14,62.29 16,16 0 0 0 84.59,74.56 L 63.41,86.80 A 16,16 0 0 0 52.00,82 a 16,16 0 0 0 -16,16 16,16 0 0 0 16,16 16,16 0 0 0 11.41,-4.80 l 21.18,12.23 a 16,16 0 0 0 1.55,12.27 16,16 0 0 0 21.86,5.86 16,16 0 0 0 5.86,-21.86 16,16 0 0 0 -21.86,-5.85 16,16 0 0 0 -3.42,2.65 l -21.18,-12.23 a 16,16 0 0 0 0.60,-4.28 16,16 0 0 0 0.58,-4.28 l 21.18,-12.23 a 16,16 0 0 0 3.40,2.65 16,16 0 0 0 21.86,-5.85 16,16 0 0 0 -5.86,-21.86 16,16 0 0 0 -7.62,-2.14 z M 136.00,110 a 16,16 0 0 0 -16,16 16,16 0 0 0 16,16 16,16 0 0 0 16,-16 16,16 0 0 0 -16,-16 z"/><path style="fill:#fff" d="m 136,52 a 16,16 0 0 0 -16,16 16,16 0 0 0 16,16 16,16 0 0 0 16,-16 16,16 0 0 0 -16,-16 z m -35.62,0.29 a 16,16 0 0 0 -1.13,0.02 16,16 0 0 0 -13.10,7.98 16,16 0 0 0 -1.55,12.27 l -21.18,12.23 a 16,16 0 0 0 -11.42,-4.80 16,16 0 0 0 -16,16 16,16 0 0 0 16,16 16,16 0 0 0 11.41,-4.80 l 21.18,12.23 a 16,16 0 0 0 1.55,12.27 16,16 0 0 0 21.86,5.86 16,16 0 0 0 5.86,-21.86 16,16 0 0 0 -21.86,-5.85 16,16 0 0 0 -3.42,2.65 l -21.18,-12.23 a 16,16 0 0 0 0.60,-4.28 16,16 0 0 0 0.58,-4.28 l 21.18,-12.23 a 16,16 0 0 0 3.40,2.65 16,16 0 0 0 21.86,-5.85 16,16 0 0 0 -5.86,-21.86 16,16 0 0 0 -7.62,-2.14 z m 35.62,55.71 a 16,16 0 0 0 -16,16 16,16 0 0 0 16,16 16,16 0 0 0 16,-16 16,16 0 0 0 -16,-16 z"/></svg>