<svg xmlns="http://www.w3.org/2000/svg" id="svg16" width="192" height="192" version="1"><defs><filter style="color-interpolation-filters:sRGB" id="filter833" width="1.1" height="1.1" x=".05" y=".05"><feGaussianBlur stdDeviation="3.2"/></filter><filter style="color-interpolation-filters:sRGB" id="filter853" width="1.09" height="1.1" x=".05" y=".05"><feGaussianBlur stdDeviation="2.2"/></filter></defs><path d="m 68.17,19.00 a 12.00,12.00 0 0 0 -8.49,3.48 L 19.76,62.10 a 12.00,12.00 0 0 0 -3.55,8.48 L 16,126.83 a 12.00,12.00 0 0 0 3.48,8.49 l 39.63,39.93 a 12.00,12.00 0 0 0 8.47,3.55 l 56.25,0.20 a 12.00,12.00 0 0 0 8.50,-3.48 l 39.91,-39.62 a 12.00,12.00 0 0 0 3.55,-8.47 L 176,71.17 a 12.00,12.00 0 0 0 -3.48,-8.50 l -39.62,-39.91 a 12.00,12.00 0 0 0 -3.97,-2.65 12.00,12.00 0 0 0 -4.50,0.90 z" style="filter:url(#filter833);opacity:.2"/><path d="m 68.17,16 a 12.00,12.00 0 0 0 -8.49,3.48 L 19.76,59.10 a 12.00,12.00 0 0 0 -3.55,8.48 L 16,123.83 a 12.00,12.00 0 0 0 3.48,8.49 L 59.11,172.25 a 12.00,12.00 0 0 0 8.47,3.55 L 123.83,176 a 12.00,12.00 0 0 0 8.50,-3.48 l 39.91,-39.62 a 12.00,12.00 0 0 0 3.55,-8.47 L 176,68.17 a 12.00,12.00 0 0 0 -3.48,-8.50 l -39.62,-39.91 a 12.00,12.00 0 0 0 -3.97,-2.65 12.00,12.00 0 0 0 -4.50,0.90 z" style="fill:#f84c43"/><path style="opacity:.2;fill:#fff" d="M 68.17 16 A 12.00 12.00 0 0 0 59.68 19.48 L 19.76 59.10 A 12.00 12.00 0 0 0 16.21 67.58 L 16 123.83 A 12.00 12.00 0 0 0 16.00 123.89 L 16.21 68.58 A 12.00 12.00 0 0 1 19.76 60.10 L 59.68 20.48 A 12.00 12.00 0 0 1 68.17 17 L 124.42 17.21 A 12.00 12.00 0 0 1 128.92 18.11 A 12.00 12.00 0 0 1 132.89 20.76 L 172.52 60.67 A 12.00 12.00 0 0 1 176.00 69.09 L 176 68.17 A 12.00 12.00 0 0 0 172.52 59.67 L 132.89 19.76 A 12.00 12.00 0 0 0 128.92 17.11 A 12.00 12.00 0 0 0 124.42 16.21 L 68.17 16 z"/><path d="m 109.79,150.44 c 3.14,-11.81 4.32,-13.43 20.24,-27.78 3.77,-3.40 7.57,-7.87 8.44,-9.94 0.88,-2.07 1.99,-8.69 2.48,-14.71 0.92,-11.48 2.26,-15.26 7.93,-22.35 C 150.60,73.52 156,71.49 156,71.15 c 0,0.34 -6.08,-2.54 -8.63,-4.91 -3.19,-2.96 -5.80,-4.21 -8.26,-4.24 -2.56,0.03 -4.96,1.27 -7.68,4.39 -7.52,8.62 -9.97,11.61 -13.68,11.61 -13.75,0 -23.90,-15.43 -37.45,-16 C 69.75,61.62 65.45,60.04 54.75,56.87 41.31,52.88 38.91,53.00 40.38,57.56 c 1.05,3.26 8.06,7.95 15.18,10.15 C 59.02,68.78 60,70.22 60,71.05 c 0,1.50 -5.05,3.68 -9.39,3.69 -2.69,0.01 -2.76,0.11 -1.77,2.64 1.04,2.68 6.73,4.87 12.13,4.87 3.18,0 6.53,0.43 7.04,1.31 0.53,0.92 -2.72,2.33 -5.07,4.26 -3.17,2.61 -3.51,3.31 -2.35,4.90 1.53,2.10 3.30,2.06 6.28,9.04 3.42,8.01 10.37,9.98 25.87,7.33 7.99,-1.37 11.35,1.76 11.35,5.82 0,3.09 -3.41,5.78 -16.33,12.87 -9.49,5.21 -15.64,9.65 -15.64,11.79 0,0.66 1.69,2.00 3.76,2.97 2.07,0.97 4.98,3.40 5.99,4.92 1.51,2.27 2.58,2.71 6.04,2.51 3.43,0.20 4.86,0.38 7.75,3.12 3.75,3.57 7.94,5.26 10.59,4.89 1.01,0.14 2.33,-2.95 3.55,-7.51 z" style="filter:url(#filter853);opacity:.2"/><path d="m 109.79,146.44 c 3.14,-11.81 4.32,-13.43 20.24,-27.78 3.77,-3.40 7.57,-7.87 8.44,-9.94 0.88,-2.07 1.99,-8.69 2.48,-14.71 0.92,-11.48 2.26,-15.26 7.93,-22.35 C 150.60,69.52 156,67.49 156,67.15 c 0,0.34 -6.08,-2.54 -8.63,-4.91 -3.19,-2.96 -5.80,-4.21 -8.26,-4.24 -2.56,0.03 -4.96,1.27 -7.68,4.39 -7.52,8.62 -9.97,11.61 -13.68,11.61 -13.75,0 -23.90,-15.43 -37.45,-16 C 69.75,57.62 65.45,56.04 54.75,52.87 41.31,48.88 38.91,49.00 40.38,53.56 c 1.05,3.26 8.06,7.95 15.18,10.15 C 59.02,64.78 60,66.22 60,67.05 c 0,1.50 -5.05,3.68 -9.39,3.69 -2.69,0.01 -2.76,0.11 -1.77,2.64 1.04,2.68 6.73,4.87 12.13,4.87 3.18,0 6.53,0.43 7.04,1.31 0.53,0.92 -2.72,2.33 -5.07,4.26 -3.17,2.61 -3.51,3.31 -2.35,4.90 1.53,2.10 3.30,2.06 6.28,9.04 3.42,8.01 10.37,9.98 25.87,7.33 7.99,-1.37 11.35,1.76 11.35,5.82 0,3.09 -3.41,5.78 -16.33,12.87 -9.49,5.21 -15.64,9.65 -15.64,11.79 0,0.66 1.69,2.00 3.76,2.97 2.07,0.97 4.98,3.40 5.99,4.92 1.51,2.27 2.58,2.71 6.04,2.51 3.43,0.20 4.86,0.38 7.75,3.12 3.75,3.57 7.94,5.26 10.59,4.89 1.01,0.14 2.33,-2.95 3.55,-7.51 z" style="fill:#fff"/><circle cx="142" cy="64" r="2" style="fill:#4f4f4f"/></svg>