<?xml version='1.0' encoding='utf-8'?>
<svg xmlns="http://www.w3.org/2000/svg" width="192" height="192" version="1" id="svg14">
  <defs>
    <filter style="color-interpolation-filters:sRGB" id="filter850" x="0.05" width="1.10" y="0.05" height="1.10">
      <feGaussianBlur stdDeviation="3.20"/>
    </filter>
    <filter style="color-interpolation-filters:sRGB" id="filter5655" x="0.09" y="0.13" width="1.18" height="1.25">
      <feGaussianBlur stdDeviation="2.73"/>
    </filter>
  </defs>
  <circle style="filter:url(#filter850);opacity:0.20;fill:#000000" cx="96" cy="100" r="80"/>
  <circle r="80" cy="96" cx="96" style="fill:#6a48a9"/>
  <path style="opacity:0.10;fill:#ffffff" d="M 96 16 A 80 80 0 0 0 16 96 A 80 80 0 0 0 16.02 96.47 A 80 80 0 0 1 96 17 A 80 80 0 0 1 175.97 96.51 A 80 80 0 0 0 176 96 A 80 80 0 0 0 96 16 z "/>
  <path style="filter:url(#filter5655);opacity:0.20;fill:#000000;color:#000000" d="m 125,72.00 a 6,6 0 0 0 -4.24,1.76 L 84.89,109.63 70.13,95.65 a 6,6 0 0 0 -8.48,0.23 6,6 0 0 0 0.23,8.48 l 19,18 a 6.00,6.00 0 0 0 8.37,0.11 L 129.24,82.24 a 6,6 0 0 0 0,-8.48 A 6,6 0 0 0 125,72.00 Z"/>
  <path style="fill:#ffffff;color:#000000" d="m 125,70 a 6,6 0 0 0 -4.24,1.76 L 84.89,107.63 70.13,93.64 a 6,6 0 0 0 -8.48,0.23 6,6 0 0 0 0.23,8.48 l 19,18 a 6.00,6.00 0 0 0 8.37,0.11 L 129.24,80.24 a 6,6 0 0 0 0,-8.48 A 6,6 0 0 0 125,70 Z"/>
</svg>
