<?xml version='1.0' encoding='utf-8'?>
<svg xmlns="http://www.w3.org/2000/svg" width="192" height="192" version="1" id="svg12">
  <defs>
    <filter style="color-interpolation-filters:sRGB" id="filter860" x="0.05" width="1.10" y="0.05" height="1.10">
      <feGaussianBlur stdDeviation="3.20"/>
    </filter>
    <filter style="color-interpolation-filters:sRGB" id="filter865" x="0.05" width="1.10" y="0.05" height="1.09">
      <feGaussianBlur stdDeviation="2.06"/>
    </filter>
  </defs>
  <rect style="filter:url(#filter860);opacity:0.20" width="160" height="160" x="16" y="20" rx="48" ry="48"/>
  <rect style="fill:#2083ff" width="160" height="160" x="16" y="16" rx="48" ry="48"/>
  <path style="filter:url(#filter865);opacity:0.20;fill:#000000" d="M 64.02,50 87.29,85.47 64,92.53 144,155 109.02,106.59 131.44,98.21 Z M 43,116 l 6.12,5 H 85 l -6.12,-5 z m 21,16 6.12,5 H 106 l -6.12,-5 z"/>
  <path style="opacity:0.20;fill:#ffffff" d="M 64,16 C 37.41,16 16,37.41 16,64 v 1 C 16,38.41 37.41,17 64,17 h 64 c 26.59,0 48,21.41 48,48 V 64 C 176,37.41 154.59,16 128,16 Z"/>
  <path style="fill:#ffffff" d="M 64.02,46 87.29,81.47 64,88.53 144,151 109.02,102.59 131.44,94.21 Z M 43,112 l 6.12,5 H 85 l -6.12,-5 z m 21,16 6.12,5 H 106 l -6.12,-5 z"/>
</svg>
