<?xml version='1.0' encoding='utf-8'?>
<svg xmlns="http://www.w3.org/2000/svg" width="192" height="192" version="1" id="svg28">
  <defs>
    <filter style="color-interpolation-filters:sRGB" id="filter6495" x="-0.048000001" y="-0.048000001" width="1.096" height="1.096">
      <feGaussianBlur stdDeviation="3.2"/>
    </filter>
    <filter style="color-interpolation-filters:sRGB" id="filter1530" x="-0.09609375" y="-0.0615" width="1.1921875" height="1.123">
      <feGaussianBlur stdDeviation="2.5625"/>
    </filter>
  </defs>
  <rect transform="matrix(0,-1,-1,0,0,0)" ry="12" rx="12" y="-176" x="-180" height="160" width="160" style="filter:url(#filter6495);opacity:0.2;fill:#000000"/>
  <rect transform="matrix(0,-1,-1,0,0,0)" ry="12" rx="12" y="-176" x="-176" height="160" width="160" style="fill:#0d9cff"/>
  <path style="opacity:0.2;fill:#ffffff" d="m 28,16 c -6.648,0 -12,5.352 -12,12 v 1 c 0,-6.648 5.352,-12 12,-12 h 136 c 6.648,0 12,5.352 12,12 v -1 c 0,-6.648 -5.352,-12 -12,-12 z"/>
  <path style="filter:url(#filter1530);opacity:0.2;fill:#000000" d="m 88,48 v 100 h 16 V 48 Z m 24,28 v 72 h 16 V 76 Z m -48,26 v 46 h 16 v -46 z"/>
  <path style="fill:#ffffff" d="M 88 46 L 88 146 L 104 146 L 104 46 L 88 46 z M 112 74 L 112 146 L 128 146 L 128 74 L 112 74 z M 64 100 L 64 146 L 80 146 L 80 100 L 64 100 z "/>
</svg>
