<svg xmlns="http://www.w3.org/2000/svg" id="svg12" width="192" height="192" version="1"><defs><filter style="color-interpolation-filters:sRGB" id="filter3077" width="1.09" height="1.1" x=".04" y=".05"><feGaussianBlur stdDeviation="2.98"/></filter><filter style="color-interpolation-filters:sRGB" id="filter3119" width="1.2" height="1.23" x=".1" y=".11"><feGaussianBlur stdDeviation="3.76"/></filter></defs><path style="filter:url(#filter3077);opacity:.2;fill:#000;color:#000" d="m 60.48,30 a 8.97,8.91 0 0 0 -7.77,4.45 L 17.20,95.55 a 8.97,8.91 0 0 0 0,8.91 L 52.71,165.55 A 8.97,8.91 0 0 0 60.48,170 h 71.03 a 8.97,8.91 0 0 0 7.77,-4.45 l 35.52,-61.09 a 8.97,8.91 0 0 0 0,-8.91 L 139.29,34.45 A 8.97,8.91 0 0 0 131.52,30 Z"/><path style="fill:#f8bf31;color:#000" d="m 60.48,26 a 8.97,8.91 0 0 0 -7.77,4.45 L 17.20,91.55 a 8.97,8.91 0 0 0 0,8.91 L 52.71,161.55 A 8.97,8.91 0 0 0 60.48,166 h 71.03 a 8.97,8.91 0 0 0 7.77,-4.45 l 35.52,-61.09 a 8.97,8.91 0 0 0 0,-8.91 L 139.29,30.45 A 8.97,8.91 0 0 0 131.52,26 Z"/><path style="filter:url(#filter3119);opacity:.2;fill:#000;color:#000" d="M 75.50,59 A 8.50,8.50 0 0 0 67,67.50 8.50,8.50 0 0 0 75.50,76 h 41 A 8.50,8.50 0 0 0 125,67.50 8.50,8.50 0 0 0 116.50,59 Z m -15,31 a 8.50,8.50 0 0 0 -8.50,8.50 8.50,8.50 0 0 0 8.50,8.50 h 71 A 8.50,8.50 0 0 0 140,98.50 8.50,8.50 0 0 0 131.50,90 Z m 24,31 a 8.50,8.50 0 0 0 -8.50,8.50 8.50,8.50 0 0 0 8.50,8.50 h 23 a 8.50,8.50 0 0 0 8.50,-8.50 8.50,8.50 0 0 0 -8.50,-8.50 z"/><path style="fill:#fff;color:#000" d="M 75.50 57 A 8.50 8.50 0 0 0 67 65.50 A 8.50 8.50 0 0 0 75.50 74 L 116.50 74 A 8.50 8.50 0 0 0 125 65.50 A 8.50 8.50 0 0 0 116.50 57 L 75.50 57 z M 60.50 88 A 8.50 8.50 0 0 0 52 96.50 A 8.50 8.50 0 0 0 60.50 105 L 131.50 105 A 8.50 8.50 0 0 0 140 96.50 A 8.50 8.50 0 0 0 131.50 88 L 60.50 88 z M 84.50 119 A 8.50 8.50 0 0 0 76 127.50 A 8.50 8.50 0 0 0 84.50 136 L 107.50 136 A 8.50 8.50 0 0 0 116 127.50 A 8.50 8.50 0 0 0 107.50 119 L 84.50 119 z"/><path style="opacity:.2;fill:#fff;color:#000" d="M 60.48 26 A 8.97 8.91 0 0 0 52.71 30.46 L 17.20 91.54 A 8.97 8.91 0 0 0 16.13 95.45 A 8.97 8.91 0 0 1 17.20 92.54 L 52.71 31.46 A 8.97 8.91 0 0 1 60.48 27 L 131.52 27 A 8.97 8.91 0 0 1 139.29 31.46 L 174.80 92.54 A 8.97 8.91 0 0 1 175.98 96.50 A 8.97 8.91 0 0 0 174.80 91.54 L 139.29 30.46 A 8.97 8.91 0 0 0 131.52 26 L 60.48 26 z"/></svg>