<?xml version='1.0' encoding='utf-8'?>
<svg xmlns="http://www.w3.org/2000/svg" width="192" height="192" version="1" id="svg12">
  <defs>
    <filter style="color-interpolation-filters:sRGB" id="filter860" x="0.05" width="1.10" y="0.05" height="1.10">
      <feGaussianBlur stdDeviation="3.20"/>
    </filter>
    <filter style="color-interpolation-filters:sRGB" id="filter857" x="0.04" width="1.08" y="0.06" height="1.12">
      <feGaussianBlur stdDeviation="1.96"/>
    </filter>
  </defs>
  <rect style="filter:url(#filter860);opacity:0.20" width="160" height="160" x="16" y="20" rx="8" ry="8"/>
  <rect style="fill:#fb613a" width="160" height="160" x="16" y="16" rx="8" ry="8"/>
  <path style="opacity:0.20;fill:#ffffff" d="m 24,16 c -4.43,0 -8,3.57 -8,8 v 1 c 0,-4.43 3.57,-8 8,-8 h 144 c 4.43,0 8,3.57 8,8 v -1 c 0,-4.43 -3.57,-8 -8,-8 z"/>
  <path d="m 69.05,60.00 c -28.78,0.00 -32.20,0.03 -32.60,0.31 L 36,60.62 v 37.29 c 0,0.79 0.00,0.63 0.00,1.39 0,0.65 0.00,0.52 0.00,1.20 v 34.58 l 0.25,0.17 c 0.04,0.18 0.09,0.29 0.15,0.35 0.39,0.39 0.67,0.40 8.85,0.40 h 7.37 l 0.20,0.20 c 1.64,0.04 2.30,0.13 2.61,0.34 L 56,135.07 v -34.58 c 0,-12.77 0.02,-15.38 0.04,-20.48 1.96,0.06 6.19,0.05 16.53,0.01 17.62,0.06 18.78,0.09 19.90,0.42 2.08,0.62 3.81,1.66 5.20,3.13 2.18,2.21 2.43,4.25 2.43,7 0.01,3.10 0.02,5.94 0.02,11.88 v 32.58 l 0.57,0.39 c 0.20,0.14 0.49,0.21 1.03,0.27 L 101.93,136 l 8.90,0.05 c 8.21,0.05 8.57,0.07 8.85,0.45 0.01,0.01 0.01,0.26 0.02,0.29 L 120,135.01 V 100.43 c 0,-1.46 0.03,-2.72 0.05,-4.01 0.05,-9.41 0.14,-17.63 0.30,-18.61 0.71,-4.33 -2.31,-7.53 -5.39,-10.76 -3.72,-3.90 -8.23,-6.21 -13.29,-6.83 -1.25,0.15 -9.71,0.22 -31.92,0.22 z m 76.95,0 c -8.85,0 -9.15,0.01 -9.57,0.40 C 136.00,60.80 136,61.07 136,97.98 v 37.19 l 0.57,0.41 C 137.12,135.99 137.36,136 146,136 c 8.64,0 8.88,0.01 9.43,0.41 L 156,135.17 V 97.98 c 0,-36.92 0.00,-37.19 0.43,-37.59 0.42,0.39 0.72,0.40 -9.57,0.40 z m -68,32.00 c -8.62,0 -9.29,0.03 -9.63,0.37 C 68.02,92.72 68,89.94 68,111.97 v 23.24 l 0.48,0.39 C 68.95,135.98 69.42,136 78,136 c 8.58,0 9.05,0.02 9.52,0.39 L 88,135.21 V 111.97 C 88,89.94 87.98,92.72 87.63,92.37 87.29,92.03 86.62,92.00 78,92.00 Z" style="filter:url(#filter857);opacity:0.20;fill:#000000"/>
  <path style="fill:#ffffff" d="m 69.05,58.00 c -28.78,0.00 -32.20,0.03 -32.60,0.31 L 36,58.62 v 37.29 c 0,0.79 0.00,0.63 0.00,1.39 0,0.65 0.00,0.52 0.00,1.20 V 133.07 l 0.25,0.17 c 0.04,0.18 0.09,0.29 0.15,0.35 0.39,0.39 0.67,0.40 8.85,0.40 h 7.37 l 0.20,0.20 c 1.64,0.04 2.30,0.13 2.61,0.34 L 56,133.07 V 98.49 c 0,-12.77 0.02,-15.38 0.04,-20.48 1.96,0.06 6.19,0.05 16.53,0.01 17.62,0.06 18.78,0.09 19.90,0.42 2.08,0.62 3.81,1.66 5.20,3.13 2.18,2.21 2.43,4.25 2.43,7 0.01,3.10 0.02,5.94 0.02,11.88 v 32.58 l 0.57,0.39 c 0.20,0.14 0.49,0.21 1.03,0.27 L 101.93,134 l 8.90,0.05 c 8.21,0.05 8.57,0.07 8.85,0.45 0.01,0.01 0.01,0.26 0.02,0.29 L 120,133.01 V 98.43 c 0,-1.46 0.03,-2.72 0.05,-4.01 0.05,-9.41 0.14,-17.63 0.30,-18.61 0.71,-4.33 -2.31,-7.53 -5.39,-10.76 -3.72,-3.90 -8.23,-6.21 -13.29,-6.83 -1.25,0.15 -9.71,0.22 -31.92,0.22 z m 76.95,0 c -8.85,0 -9.15,0.01 -9.57,0.40 C 136.00,58.80 136,59.07 136,95.98 v 37.19 l 0.57,0.41 C 137.12,133.99 137.36,134 146,134 c 8.64,0 8.88,0.01 9.43,0.41 L 156,133.17 V 95.98 c 0,-36.92 0.00,-37.19 0.43,-37.59 0.42,0.39 0.72,0.40 -9.57,0.40 z m -68,32.00 c -8.62,0 -9.29,0.03 -9.63,0.37 C 68.02,90.72 68,87.94 68,109.97 v 23.24 l 0.48,0.39 C 68.95,133.98 69.42,134 78,134 c 8.58,0 9.05,0.02 9.52,0.39 L 88,133.21 V 109.97 C 88,87.94 87.98,90.72 87.63,90.37 87.29,90.03 86.62,90.00 78,90.00 Z"/>
</svg>
