<?xml version='1.0' encoding='utf-8'?>
<svg xmlns="http://www.w3.org/2000/svg" width="192" height="192" version="1" id="svg12">
  <defs>
    <filter style="color-interpolation-filters:sRGB" id="filter5548" x="-0.054476188" y="-0.042899998" width="1.1089524" height="1.0858">
      <feGaussianBlur stdDeviation="2.86"/>
    </filter>
    <filter style="color-interpolation-filters:sRGB" id="filter5711" x="-0.12857143" y="-0.093103448" width="1.2571429" height="1.1862069">
      <feGaussianBlur stdDeviation="4.5"/>
    </filter>
  </defs>
  <rect style="filter:url(#filter5548);opacity:0.2;fill:#000000" width="126" height="160" x="33" y="20" rx="40"/>
  <rect style="fill:#0caa41" width="126" height="160" x="33" y="16" rx="40"/>
  <path style="filter:url(#filter5711);opacity:0.2;fill:#000000;color:#000000" d="M 71.808594,40 C 62.133265,40 54,47.974889 54,57.689453 V 126 H 70 V 57.689453 C 70,56.668513 70.615414,56 71.808594,56 H 111 h 9.19141 17.7207 C 137.0347,47.068147 129.29879,40 120.19141,40 Z M 122,70 v 68.31055 C 122,139.33149 121.38459,140 120.19141,140 H 83 71.808594 54.087891 c 0.877411,8.93185 8.613311,16 17.720703,16 H 120.19141 C 129.86673,156 138,148.02511 138,138.31055 V 70 Z"/>
  <path style="fill:#ffffff;color:#000000" d="M 71.808594 38 C 62.133265 38 54 45.974889 54 55.689453 L 54 124 L 70 124 L 70 55.689453 C 70 54.668513 70.615414 54 71.808594 54 L 111 54 L 120.19141 54 L 137.91211 54 C 137.0347 45.068147 129.29879 38 120.19141 38 L 71.808594 38 z M 122 68 L 122 136.31055 C 122 137.33149 121.38459 138 120.19141 138 L 83 138 L 71.808594 138 L 54.087891 138 C 54.965302 146.93185 62.701202 154 71.808594 154 L 120.19141 154 C 129.86673 154 138 146.02511 138 136.31055 L 138 68 L 122 68 z "/>
  <path style="opacity:0.2;fill:#ffffff" d="M 73 16 C 50.84 16 33 33.84 33 56 L 33 57 C 33 34.84 50.84 17 73 17 L 119 17 C 141.16 17 159 34.84 159 57 L 159 56 C 159 33.84 141.16 16 119 16 L 73 16 z "/>
</svg>
