<?xml version='1.0' encoding='utf-8'?>
<svg xmlns="http://www.w3.org/2000/svg" width="192" height="192" version="1" id="svg12">
  <defs>
    <filter style="color-interpolation-filters:sRGB" id="filter955" x="0.05" width="1.10" y="0.05" height="1.10">
      <feGaussianBlur stdDeviation="3.20"/>
    </filter>
    <filter style="color-interpolation-filters:sRGB" id="filter3994" x="0.11" y="0.11" width="1.22" height="1.22">
      <feGaussianBlur stdDeviation="4.32"/>
    </filter>
  </defs>
  <rect style="filter:url(#filter955);opacity:0.20;fill:#000000" width="160" height="160" x="16" y="20" rx="30" ry="30"/>
  <rect style="fill:#66828f" width="160" height="160" x="16" y="16" rx="30" ry="30"/>
  <path style="opacity:0.10;fill:#ffffff" d="M 46 16 C 29.38 16 16 29.38 16 46 L 16 47 C 16 30.38 29.38 17 46 17 L 146 17 C 162.62 17 176 30.38 176 47 L 176 46 C 176 29.38 162.62 16 146 16 L 46 16 z "/>
  <path style="filter:url(#filter3994);opacity:0.20;fill:#000000" d="m 62.54,50.00 c -10.99,0 -11.06,0.00 -12.10,0.71 0.57,0.39 -1.38,1.19 -1.78,1.78 0.73,1.06 0.73,1.15 0.57,6.81 0.58,19.97 7.59,38.26 20.61,53.75 17.50,20.82 41.82,32.75 67.21,32.95 4.00,0.03 4.57,0.03 5.62,0.62 0.64,0.36 1.46,-1.18 1.82,-1.82 0.63,-1.13 0.66,-1.54 0.66,-12.15 0,-10.91 0.01,-10.99 0.71,-12.03 -1.15,-1.70 -2.53,-2.45 -4.53,-2.46 -5.61,0.00 -13.03,-1.21 -18.91,-3.09 -3.09,0.99 -3.20,0.92 -10.75,6.58 l -6.56,6.51 -2.58,-1.51 C 89.28,119.14 75.54,105.46 68.90,94.47 L 67.07,91.45 73.56,85.01 C 81.41,77.22 81.32,77.37 79.95,73.31 78.56,69.19 77.72,64.52 77.30,58.52 76.89,52.59 76.73,52.13 74.63,50.70 73.61,50.01 73.50,50.00 62.54,50.00 Z m 33.46,0 v 5.28 5.28 l 1.78,0.17 c 10.90,1.05 17.92,4.20 24.70,11.07 6.68,6.77 9.89,13.94 10.79,24.11 l 0.18,2.09 H 138.72 144 l 0.19,-3.63 C 143.28,83.99 139.21,74.18 132.21,66.38 123.20,56.34 112.12,50.83 99.63,50.19 Z m 0,21 v 5.38 5.38 l 2.65,0.50 c 3.42,0.65 5.61,1.74 8.05,4.02 3.16,2.95 4.78,6.03 5.28,10 l 0.22,1.73 H 117.60 123 l 0.20,-1.94 C 122.00,88.27 118.47,81.66 112.62,77.04 108.33,73.64 103.66,71.79 97.94,71.20 Z"/>
  <path style="fill:#ffffff" d="M 62.54 48 C 51.55 48 51.48 48.00 50.44 48.71 C 49.87 49.09 49.06 49.89 48.66 50.49 C 47.93 51.55 47.92 51.63 48.09 57.29 C 48.67 77.26 55.68 95.55 68.69 111.04 C 86.19 131.86 110.51 143.79 135.90 143.99 C 139.90 144.02 140.47 143.96 141.52 143.37 C 142.16 143.01 142.98 142.19 143.34 141.55 C 143.98 140.42 144 140.01 144 129.40 C 144 118.48 143.99 118.40 143.29 117.37 C 142.15 115.66 140.76 114.91 138.77 114.91 C 133.16 114.91 125.73 113.70 119.86 111.82 C 116.77 110.83 116.66 110.90 109.10 118.40 L 102.55 124.91 L 99.97 123.40 C 89.28 117.14 75.54 103.46 68.90 92.47 L 67.07 89.45 L 73.56 83.01 C 81.41 75.22 81.32 75.37 79.95 71.31 C 78.56 67.19 77.72 62.52 77.30 56.52 C 76.89 50.59 76.73 50.13 74.63 48.70 C 73.61 48.01 73.50 48 62.54 48 z M 96 48 L 96 53.28 L 96 58.55 L 97.78 58.73 C 108.68 59.78 115.69 62.92 122.48 69.80 C 129.16 76.57 132.37 83.74 133.27 93.91 L 133.45 96 L 138.72 96 L 144 96 L 143.81 92.37 C 143.28 81.99 139.21 72.18 132.21 64.38 C 123.20 54.34 112.12 48.83 99.63 48.19 L 96 48 z M 96 69 L 96 74.38 L 96 79.75 L 98.65 80.25 C 102.07 80.90 104.26 81.99 106.70 84.27 C 109.85 87.22 111.48 90.30 111.97 94.27 L 112.19 96 L 117.60 96 L 123 96 L 122.80 94.06 C 122.00 86.27 118.47 79.66 112.62 75.04 C 108.33 71.64 103.66 69.79 97.94 69.20 L 96 69 z "/>
</svg>
