<?xml version='1.0' encoding='utf-8'?>
<svg xmlns="http://www.w3.org/2000/svg" width="192" height="192" version="1" id="svg16">
  <defs>
    <filter style="color-interpolation-filters:sRGB" id="filter867" x="0.05" width="1.10" y="0.05" height="1.10">
      <feGaussianBlur stdDeviation="3.20"/>
    </filter>
    <filter style="color-interpolation-filters:sRGB" id="filter35126" x="0.08" y="0.08" width="1.16" height="1.15">
      <feGaussianBlur stdDeviation="3.10"/>
    </filter>
  </defs>
  <rect ry="80" rx="80" height="160" width="160" y="-176" x="-180" transform="matrix(0,-1,-1,0,0,0)" style="filter:url(#filter867);opacity:0.20;fill:#000000"/>
  <rect style="fill:#7cc134" transform="matrix(0,-1,-1,0,0,0)" x="-176" y="-176" width="160" height="160" rx="80" ry="80"/>
  <path style="filter:url(#filter35126);opacity:0.20;fill:#000000" d="M 96,50 A 48,48 0 0 0 62.64,63.64 L 50,51 V 84.51 A 48,48 0 0 0 49.83,85 H 50 63.59 84 L 71.83,72.83 A 35,35 0 0 1 96,63 35,35 0 0 1 128.48,85 h 13.71 A 48,48 0 0 0 96,50 Z m 9,33 v 7.04 l 1.40,0.62 c 0.25,0.06 0.57,0.13 0.94,0.19 0.38,0.08 0.74,0.12 1.09,0.12 1.80,0 2.70,0.70 2.70,2.09 0,0.75 0.23,1.30 0.68,1.66 0.44,0.35 -1.08,0.52 -1.93,0.52 0.58,0 -1.19,0.08 -1.85,0.25 C 106.03,94.19 105.47,93.98 105,93.73 v 2.51 c 0.47,0.24 1.01,0.43 1.62,0.56 0.63,0.13 1.30,0.19 2,0.19 1.77,0 3.11,0.42 4.02,-1.28 C 113.55,94.86 114,93.68 114,92.19 c 0,0.92 0.19,-1.68 0.57,-2.30 0.36,0.62 0.87,-1.09 -1.51,-1.41 0.64,0.32 -1.37,0.48 -2.19,0.48 0.44,0 0.79,0.03 -1.04,0.08 0.24,0.04 0.46,0.08 0.68,0.12 L 108,85 h 5 v -2 z m -55,8 v 14 h 3.75 c 2.29,0 4.07,0.60 5.33,-1.79 C 60.36,102.01 61,100.23 61,97.86 c 0,-1.50 0.29,-2.76 0.86,-3.77 0.56,-1.02 -1.35,-1.79 -2.38,-2.31 C 56.75,91.26 55.55,91 54.16,91 Z M 65.38,91 61,105 h 2.83 l 0.90,-3 h 4.52 l 0.90,3 H 73 L 68.60,91 Z M 73,91 l 4.47,14 h 3.05 L 85,91 h -2.82 l -2.49,8.33 c 0.04,0.14 0.10,0.41 0.20,0.80 0.10,0.38 0.20,0.79 0.29,1.22 0.09,0.42 0.15,0.77 0.19,1.06 0.04,0.29 0.10,0.64 0.20,-1.06 0.10,0.43 0.20,0.84 0.29,-1.22 0.09,0.39 0.15,0.66 0.20,0.80 L 75.82,91 Z m -20,2 h 1.43 c 1.16,0 2.05,0.40 2.66,1.21 C 57.69,94.99 58,96.24 58,97.95 58,101.31 56.71,103 54.14,103 H 53 Z m 14,0.17 c 0.06,0.26 0.13,0.57 0.23,0.92 0.09,0.35 0.18,0.69 0.28,1.03 0.09,0.34 0.17,0.62 0.23,0.84 L 68.63,99 h -3.23 l 0.89,-3.04 c 0.05,0.14 0.11,0.38 0.19,0.72 0.09,0.35 0.18,0.71 0.28,-1.09 C 66.86,93.75 66.94,93.43 67,93.17 Z M 86.76,94 92.09,102.24 86.40,111 h 4.49 L 94.87,104.57 98.85,111 h 4.75 L 97.82,102.43 103.19,94 H 98.68 L 95.06,100.12 91.37,94 Z m -36.93,17 a 48,48 0 0 0 46.19,35 48,48 0 0 0 33.36,-13.64 L 142.02,145 V 111.49 A 48,48 0 0 0 142.19,111 h 0.17 -13.59 -20.41 l 12.17,12.17 A 35,35 0 0 1 96.02,133 35,35 0 0 1 63.54,111 Z"/>
  <path style="opacity:0.20;fill:#ffffff" d="M 96 16 C 51.68 16 16 51.68 16 96 C 16 96.34 16.00 96.67 16 97 C 16 52.68 51.68 17 96 17 C 140.32 17 176 52.68 176 97 C 176.00 96.67 176 96.34 176 96 C 176 51.68 140.32 16 96 16 z "/>
  <path style="fill:#ffffff" d="M 96.02,144 A 48,48 0 0 0 129.38,130.36 L 142.02,143 V 109.49 A 48,48 0 0 0 142.19,109 h 0.17 -13.59 -20.41 l 12.17,12.17 A 35,35 0 0 1 96.02,131 35,35 0 0 1 63.54,109 h -13.71 a 48,48 0 0 0 46.19,35 z"/>
  <path style="fill:#ffffff" d="M 96 48 A 48 48 0 0 0 62.64 61.64 L 50 49 L 50 82.51 A 48 48 0 0 0 49.83 83 L 50 83 L 63.59 83 L 84 83 L 71.83 70.83 A 35 35 0 0 1 96 61 A 35 35 0 0 1 128.48 83 L 142.19 83 A 48 48 0 0 0 96 48 z "/>
  <path style="fill:#14793a" d="m 105,81 v 7.04 l 1.40,0.62 c 0.25,0.06 0.57,0.13 0.94,0.19 0.38,0.08 0.74,0.12 1.09,0.12 1.80,0 2.70,0.70 2.70,2.09 0,0.75 0.23,1.30 0.68,1.66 0.44,0.35 -1.08,0.52 -1.93,0.52 0.58,0 -1.19,0.08 -1.85,0.25 C 106.03,92.19 105.47,91.98 105,91.73 v 2.51 c 0.47,0.24 1.01,0.43 1.62,0.56 0.63,0.13 1.30,0.19 2,0.19 1.77,0 3.11,0.42 4.02,-1.28 C 113.55,92.86 114,91.68 114,90.19 c 0,0.92 0.19,-1.68 0.57,-2.30 0.36,0.62 0.87,-1.09 -1.51,-1.41 0.64,0.32 -1.37,0.48 -2.19,0.48 0.44,0 0.79,0.03 -1.04,0.08 0.24,0.04 0.46,0.08 0.68,0.12 L 108,83 h 5 v -2 z m -55,8 v 14 h 3.75 c 2.29,0 4.07,0.60 5.33,-1.79 C 60.36,100.01 61,98.23 61,95.86 c 0,-1.50 0.29,-2.76 0.86,-3.77 0.56,-1.02 -1.35,-1.79 -2.38,-2.31 C 56.75,89.26 55.55,89 54.16,89 Z M 65.38,89 61,103 h 2.83 l 0.90,-3 h 4.52 l 0.90,3 H 73 L 68.60,89 Z M 73,89 l 4.47,14 h 3.05 L 85,89 h -2.82 l -2.49,8.33 c 0.04,0.14 0.10,0.41 0.20,0.80 0.10,0.38 0.20,0.79 0.29,1.22 0.09,0.42 0.15,0.77 0.19,1.06 0.04,0.29 0.10,0.64 0.20,-1.06 0.10,0.43 0.20,0.84 0.29,-1.22 0.09,0.39 0.15,0.66 0.20,0.80 L 75.82,89 Z m -20,2 h 1.43 c 1.16,0 2.05,0.40 2.66,1.21 C 57.69,92.99 58,94.24 58,95.95 58,99.31 56.71,101 54.14,101 H 53 Z m 14,0.17 c 0.06,0.26 0.13,0.57 0.23,0.92 0.09,0.35 0.18,0.69 0.28,1.03 0.09,0.34 0.17,0.62 0.23,0.84 L 68.63,97 h -3.23 l 0.89,-3.04 c 0.05,0.14 0.11,0.38 0.19,0.72 0.09,0.35 0.18,0.71 0.28,-1.09 C 66.86,91.75 66.94,91.43 67,91.17 Z M 86.76,92 92.09,100.24 86.40,109 h 4.49 L 94.87,102.57 98.85,109 h 4.75 L 97.82,100.43 103.19,92 H 98.68 L 95.06,98.12 91.37,92 Z"/>
</svg>
