<?xml version='1.0' encoding='utf-8'?>
<svg xmlns="http://www.w3.org/2000/svg" width="192" height="192" version="1" id="svg14">
  <defs>
    <filter style="color-interpolation-filters:sRGB" id="filter850" x="0.05" width="1.10" y="0.05" height="1.10">
      <feGaussianBlur stdDeviation="3.20"/>
    </filter>
    <filter style="color-interpolation-filters:sRGB" id="filter7331" x="0.07" y="0.07" width="1.15" height="1.15">
      <feGaussianBlur stdDeviation="3.69"/>
    </filter>
  </defs>
  <circle style="filter:url(#filter850);opacity:0.20;fill:#000000" cx="96" cy="100" r="80"/>
  <circle r="80" cy="96" cx="96" style="fill:#1193f6"/>
  <circle style="fill:#3666dc" cx="96" cy="96" r="56"/>
  <circle style="fill:#ffffff" cx="119.50" cy="57.50" r="2.50"/>
  <circle style="fill:#ffffff" cx="122.50" cy="100.50" r="2.50"/>
  <circle style="fill:#ffffff" cx="105.50" cy="124.50" r="2.50"/>
  <circle style="fill:#ffffff" cx="96" cy="96" r="2"/>
  <circle style="fill:#ffffff" cx="74.50" cy="85.50" r="2.50"/>
  <circle style="fill:#ffffff" cx="67.50" cy="85.50" r="2.50"/>
  <circle style="fill:#ffffff" cx="64.50" cy="128.50" r="2.50"/>
  <path style="opacity:0.50;fill:#ffffff" d="M 62.16,137.65 96,96 86.50,149.20 69.75,145.36 Z"/>
  <path style="opacity:0.20;fill:#ffffff" d="M 96 16 A 80 80 0 0 0 16 96 A 80 80 0 0 0 16.02 96.47 A 80 80 0 0 1 96 17 A 80 80 0 0 1 175.97 96.51 A 80 80 0 0 0 176 96 A 80 80 0 0 0 96 16 z "/>
  <path style="filter:url(#filter7331);opacity:0.20;fill:#000000;color:#000000" d="m 96,39 c -32.54,0 -59,26.46 -59,59 0,32.54 26.46,59 59,59 32.54,0 59,-26.46 59,-59 0,-32.54 -26.46,-59 -59,-59 z m 0,8 c 28.21,0 51,22.79 51,51 0,28.21 -22.79,51 -51,51 C 67.79,149 45,126.21 45,98 45,69.79 67.79,47 96,47 Z m 0,15 c -19.85,0 -36,16.15 -36,36 0,19.85 16.15,36 36,36 19.85,0 36,-16.15 36,-36 0,-19.85 -16.15,-36 -36,-36 z m 0,6 c 16.60,0 30,13.40 30,30 0,16.60 -13.40,30 -30,30 C 79.40,128 66,114.60 66,98 66,81.40 79.40,68 96,68 Z m 0,10 c -11.02,0 -20,8.98 -20,20 0,11.02 8.98,20 20,20 11.02,0 20,-8.98 20,-20 0,-11.02 -8.98,-20 -20,-20 z m 0,4 c 8.86,0 16,7.14 16,16 0,8.86 -7.14,16 -16,16 -8.86,0 -16,-7.14 -16,-16 0,-8.86 7.14,-16 16,-16 z"/>
  <path style="fill:#ffffff;color:#000000" d="M 96 37 C 63.46 37 37 63.46 37 96 C 37 128.54 63.46 155 96 155 C 128.54 155 155 128.54 155 96 C 155 63.46 128.54 37 96 37 z M 96 45 C 124.21 45 147 67.79 147 96 C 147 124.21 124.21 147 96 147 C 67.79 147 45 124.21 45 96 C 45 67.79 67.79 45 96 45 z M 96 60 C 76.15 60 60 76.15 60 96 C 60 115.85 76.15 132 96 132 C 115.85 132 132 115.85 132 96 C 132 76.15 115.85 60 96 60 z M 96 66 C 112.60 66 126 79.40 126 96 C 126 112.60 112.60 126 96 126 C 79.40 126 66 112.60 66 96 C 66 79.40 79.40 66 96 66 z M 96 76 C 84.98 76 76 84.98 76 96 C 76 107.02 84.98 116 96 116 C 107.02 116 116 107.02 116 96 C 116 84.98 107.02 76 96 76 z M 96 80 C 104.86 80 112 87.14 112 96 C 112 104.86 104.86 112 96 112 C 87.14 112 80 104.86 80 96 C 80 87.14 87.14 80 96 80 z "/>
</svg>
