<?xml version='1.0' encoding='utf-8'?>
<svg xmlns="http://www.w3.org/2000/svg" width="192" height="192" version="1.1" id="svg14">
  <defs>
    <filter style="color-interpolation-filters:sRGB" id="filter849" x="0.05" y="0.05" width="1.10" height="1.10">
      <feGaussianBlur stdDeviation="3.20"/>
    </filter>
    <filter style="color-interpolation-filters:sRGB" id="filter2300" x="0.04" y="0.06" width="1.08" height="1.13">
      <feGaussianBlur stdDeviation="2.24"/>
    </filter>
  </defs>
  <circle style="filter:url(#filter849);opacity:0.20" cx="96" cy="100" r="80"/>
  <circle style="fill:#e4e4e4" cx="96" cy="96" r="80"/>
  <path style="opacity:0.20;fill:#ffffff" d="M 96,16 A 80,80 0 0 0 16,96 80,80 0 0 0 16.02,96.64 80,80 0 0 1 96,17 80,80 0 0 1 175.98,96.30 80,80 0 0 0 176,96 80,80 0 0 0 96,16 Z"/>
  <path style="filter:url(#filter2300);opacity:0.20;fill:#000000" d="m 114.77,52.01 c -1.51,0.15 -5.42,2.90 -8.84,6.33 -6.69,6.71 -11.96,16.27 -15.24,27.67 -2.39,8.30 -3.31,19.13 -2.23,26.17 0.51,3.32 1.87,8.42 2.24,8.42 0.07,0 0.57,-1.36 1.13,-3.02 1.54,-4.63 4.52,-11.46 5.31,-12.18 1.07,0.97 1.83,0.15 1.83,1.98 0.00,1.35 -1.70,10.56 -2.76,14.99 0.24,1.01 0.13,0.96 2.82,-1.28 8.55,-6.49 16.41,-20.95 19.66,-36.18 1.73,-8.15 2.73,-23.73 -3.42,-32.80 0.11,0.09 0.28,0.12 0.49,0.10 z m -60.38,7.99 0.26,2.40 c -1.51,14.00 10.45,35.52 26.30,47.31 1.76,1.31 3.25,2.34 3.29,2.29 0.05,0.05 0.08,-1.30 0.30,-2.79 0.61,-4.25 0.14,-13.45 0.94,-18.59 0.80,-3.79 2.21,-8.92 2.93,-10.70 C 87.63,79.12 80.70,72.24 76.20,68.90 69.36,63.84 62.29,60.66 56.87,60.21 Z m -2.47,46.00 c -6.83,0.01 -10.17,0.49 -16.10,2.38 C 32.18,109.54 26,112.22 26,112.63 c 0,0.37 4.25,3.71 6.70,5.26 3.25,2.06 11.01,5.65 16.32,7.56 9.38,3.37 22.60,6.78 36.43,9.38 8.15,1.54 7.73,1.53 7.42,0.08 0.46,-2.18 -2.32,-6.57 -3.93,-9.29 -5.58,-9.43 -15.55,-16.30 -27.41,-18.88 -2.72,0.59 -4.74,0.75 -9.61,0.75 z m 86.58,0.00 c -2.66,0.03 -5.37,0.16 -8.05,0.65 -11.87,2.58 -21.85,9.45 -27.43,18.88 -1.61,2.72 -3.47,7.11 -3.93,9.29 C 98.94,135.52 98.98,136 99.19,136 c 0.93,0 13.29,-2.38 19.11,-3.68 21.26,-4.75 36.86,-10.83 45.43,-17.72 1.25,-1.00 2.27,-1.93 2.27,-2.07 0,0 -13.11,-6.39 -27.50,-6.53 z"/>
  <path style="fill:#84b31b" d="m 114.77,50.01 c -1.51,0.15 -5.42,2.90 -8.84,6.33 -6.69,6.71 -11.96,16.27 -15.24,27.67 -2.39,8.30 -3.31,19.13 -2.23,26.17 0.51,3.32 1.87,8.42 2.24,8.42 0.07,0 0.57,-1.36 1.13,-3.02 1.54,-4.63 4.52,-11.46 5.31,-12.18 1.07,0.97 1.83,0.15 1.83,1.98 0.00,1.35 -1.70,10.56 -2.76,14.99 0.24,1.01 0.13,0.96 2.82,-1.28 8.55,-6.49 16.41,-20.95 19.66,-36.18 1.73,-8.15 2.73,-23.73 -3.42,-32.80 0.11,0.09 0.28,0.12 0.49,0.10 z m -60.38,7.99 0.26,2.40 c -1.51,14.00 10.45,35.52 26.30,47.31 1.76,1.31 3.25,2.34 3.29,2.29 0.05,0.05 0.08,-1.30 0.30,-2.79 0.61,-4.25 0.14,-13.45 0.94,-18.59 0.80,-3.79 2.21,-8.92 2.93,-10.70 C 87.63,77.12 80.70,70.24 76.20,66.90 69.36,61.84 62.29,58.66 56.87,58.21 Z m -2.47,46.00 c -6.83,0.01 -10.17,0.49 -16.10,2.38 C 32.18,107.54 26,110.22 26,110.63 c 0,0.37 4.25,3.71 6.70,5.26 3.25,2.06 11.01,5.65 16.32,7.56 9.38,3.37 22.60,6.78 36.43,9.38 8.15,1.54 7.73,1.53 7.42,0.08 0.46,-2.18 -2.32,-6.57 -3.93,-9.29 -5.58,-9.43 -15.55,-16.30 -27.41,-18.88 -2.72,0.59 -4.74,0.75 -9.61,0.75 z m 86.58,0.00 c -2.66,0.03 -5.37,0.16 -8.05,0.65 -11.87,2.58 -21.85,9.45 -27.43,18.88 -1.61,2.72 -3.47,7.11 -3.93,9.29 C 98.94,133.52 98.98,134 99.19,134 c 0.93,0 13.29,-2.38 19.11,-3.68 21.26,-4.75 36.86,-10.83 45.43,-17.72 1.25,-1.00 2.27,-1.93 2.27,-2.07 0,0 -13.11,-6.39 -27.50,-6.53 z"/>
</svg>
