<?xml version='1.0' encoding='utf-8'?>
<svg xmlns="http://www.w3.org/2000/svg" width="192" height="192" version="1" id="svg28">
  <defs>
    <filter style="color-interpolation-filters:sRGB" id="filter6495" x="-0.048000001" y="-0.048000001" width="1.096" height="1.096">
      <feGaussianBlur stdDeviation="3.2"/>
    </filter>
    <filter style="color-interpolation-filters:sRGB" id="filter18744" x="-0.087230769" y="-0.14175" width="1.1744615" height="1.2835">
      <feGaussianBlur stdDeviation="3.78"/>
    </filter>
    <filter style="color-interpolation-filters:sRGB" id="filter18748" x="-0.049020151" y="-0.15956871" width="1.0980403" height="1.3191374">
      <feGaussianBlur stdDeviation="2.1242065"/>
    </filter>
  </defs>
  <rect transform="matrix(0,-1,-1,0,0,0)" ry="12" rx="12" y="-176" x="-180" height="160" width="160" style="filter:url(#filter6495);opacity:0.2;fill:#000000"/>
  <rect transform="matrix(0,-1,-1,0,0,0)" ry="12" rx="12" y="-176" x="-176" height="160" width="160" style="fill:#1f76e9"/>
  <path style="opacity:0.1;fill:#ffffff" d="m 28,16 c -6.648,0 -12,5.352 -12,12 v 1 c 0,-6.648 5.352,-12 12,-12 h 136 c 6.648,0 12,5.352 12,12 v -1 c 0,-6.648 -5.352,-12 -12,-12 z"/>
  <path style="filter:url(#filter18748);opacity:0.2;fill:#000000" d="m 52,54 c -4.432,0 -8,3.568 -8,8 V 85.949219 H 148 V 72 c 0,-4.432 -3.568,-8 -8,-8 H 97.235142 c 0,0 -1.339605,-0.0488 -2.035652,-0.759141 l -8.120723,-8.287443 c 0,0 -0.97882,-0.953416 -1.982338,-0.953416 z"/>
  <path style="fill:#ebeeef" d="m 52,52 c -4.432,0 -8,3.568 -8,8 V 83.949219 H 148 V 70 c 0,-4.432 -3.568,-8 -8,-8 H 97.235142 c 0,0 -1.339605,-0.0488 -2.035652,-0.759141 l -8.120723,-8.287443 c 0,0 -0.97882,-0.953416 -1.982338,-0.953416 z"/>
  <rect style="filter:url(#filter18744);opacity:0.2;fill:#000000" width="104" height="64" x="44" y="78" rx="8"/>
  <rect style="fill:#ffffff" width="104" height="64" x="44" y="76" rx="8"/>
</svg>
