<?xml version='1.0' encoding='utf-8'?>
<svg xmlns="http://www.w3.org/2000/svg" width="192" height="192" version="1" id="svg22">
  <defs>
    <filter style="color-interpolation-filters:sRGB" id="filter862" x="0.05" width="1.10" y="0.05" height="1.10">
      <feGaussianBlur stdDeviation="3.20"/>
    </filter>
    <filter style="color-interpolation-filters:sRGB" id="filter881" x="0.05" width="1.10" y="0.05" height="1.10">
      <feGaussianBlur stdDeviation="0.56"/>
    </filter>
    <filter style="color-interpolation-filters:sRGB" id="filter897" x="0.05" width="1.11" y="0.04" height="1.09">
      <feGaussianBlur stdDeviation="0.88"/>
    </filter>
  </defs>
  <rect style="filter:url(#filter862);opacity:0.20;fill:#000000" width="160" height="160" x="-180" y="-176" rx="80" ry="80" transform="matrix(0,-1,-1,0,0,0)"/>
  <rect transform="matrix(0,-1,-1,0,0,0)" ry="80" rx="80" y="-176" x="-176" height="160" width="160" style="fill:#3f3f3f"/>
  <path style="opacity:0.10;fill:#ffffff" d="M 96 16 C 51.68 16 16.01 51.68 16.01 96 C 16.01 96.34 16.01 96.67 16.01 97 C 16.01 52.68 51.68 17 96 17 C 140.32 17 175.99 52.68 175.99 97 C 175.99 96.67 175.99 96.34 175.99 96 C 175.99 51.68 140.32 16 96 16 z "/>
  <path d="M 85.05,76.00 A 4.93,5.30 0 0 0 80,81.30 v 37.41 a 4.93,5.30 0 0 0 7.39,4.59 l 15.08,-9.34 15.07,-9.36 a 4.93,5.30 0 0 0 0,-9.16 L 102.47,86.06 87.39,76.72 a 4.93,5.30 0 0 0 -2.34,0.72 z" style="filter:url(#filter897);opacity:0.10"/>
  <path d="M 85.05,72.00 A 4.93,5.30 0 0 0 80,77.30 v 37.41 a 4.93,5.30 0 0 0 7.39,4.59 l 15.08,-9.34 15.07,-9.36 a 4.93,5.30 0 0 0 0,-9.16 L 102.47,82.06 87.39,72.72 a 4.93,5.30 0 0 0 -2.34,0.72 z" style="fill:#ffffff"/>
  <path d="m 96,40 c -30.90,0 -56,25.10 -56,56 0,30.90 25.10,56 56,56 30.90,0 56,-25.10 56,-56 0,-30.90 -25.10,-56 -56,-56 z m 0,4 c 28.74,0 52,23.26 52,52 0,28.74 -23.26,52 -52,52 C 67.26,148 44,124.74 44,96 44,67.26 67.26,44 96,44 Z" style="opacity:0.10;fill:#ffffff"/>
  <path d="m 96,36 v 12 c 26.58,0 48,21.42 48,48 0,26.58 -21.42,48 -48,48 C 69.42,144 48,122.58 48,96 H 36 c 0,33.07 26.93,60 60,60 33.07,0 60,-26.93 60,-60 0,-33.07 -26.93,-60 -60,-60 z" style="fill:#919191"/>
  <circle r="14" cy="96" cx="42" style="filter:url(#filter881);opacity:0.10"/>
  <circle r="14" cy="94" cx="42" style="fill:#ffffff"/>
</svg>
