<?xml version='1.0' encoding='utf-8'?>
<svg xmlns="http://www.w3.org/2000/svg" width="192" height="192" version="1" id="svg28">
  <defs>
    <filter style="color-interpolation-filters:sRGB" id="filter6495" x="0.05" y="0.05" width="1.10" height="1.10">
      <feGaussianBlur stdDeviation="3.20"/>
    </filter>
    <filter style="color-interpolation-filters:sRGB" id="filter18566" x="0.11" y="0.07" width="1.22" height="1.14">
      <feGaussianBlur stdDeviation="1.82"/>
    </filter>
    <filter style="color-interpolation-filters:sRGB" id="filter18570" x="0.13" y="0.09" width="1.26" height="1.19">
      <feGaussianBlur stdDeviation="3.02"/>
    </filter>
    <filter style="color-interpolation-filters:sRGB" id="filter18574" x="0.09" y="0.13" width="1.18" height="1.26">
      <feGaussianBlur stdDeviation="1.82"/>
    </filter>
  </defs>
  <rect transform="matrix(0,-1,-1,0,0,0)" ry="12" rx="12" y="-176" x="-180" height="160" width="160" style="filter:url(#filter6495);opacity:0.20;fill:#000000"/>
  <rect transform="matrix(0,-1,-1,0,0,0)" ry="12" rx="12" y="-176" x="-176" height="160" width="160" style="fill:#e756c5"/>
  <rect style="filter:url(#filter18570);opacity:0.20;fill:#000000;mix-blend-mode:normal" width="56" height="78" x="66" y="48"/>
  <path style="opacity:0.20;fill:#ffffff" d="m 28,16 c -6.65,0 -12,5.35 -12,12 v 1 c 0,-6.65 5.35,-12 12,-12 h 136 c 6.65,0 12,5.35 12,12 v -1 c 0,-6.65 -5.35,-12 -12,-12 z"/>
  <rect style="fill:#70d1ff" width="56" height="78" x="66" y="46"/>
  <rect style="filter:url(#filter18566);opacity:0.20;fill:#000000" width="40.44" height="62.80" x="128.98" y="-41.30" transform="rotate(45,-6.04,2.50)"/>
  <rect style="fill:#38a6ff" width="40.44" height="62.80" x="131.10" y="-39.18" transform="rotate(45)"/>
  <rect style="filter:url(#filter18574);opacity:0.20;fill:#000000" width="48" height="34" x="91" y="113"/>
  <rect style="fill:#0069c2" width="48" height="34" x="91" y="111"/>
</svg>
