<?xml version='1.0' encoding='utf-8'?>
<svg xmlns="http://www.w3.org/2000/svg" width="192" height="192" version="1" id="svg14">
  <defs>
    <filter style="color-interpolation-filters:sRGB" id="filter850" x="0.05" width="1.10" y="0.05" height="1.10">
      <feGaussianBlur stdDeviation="3.20"/>
    </filter>
    <filter style="color-interpolation-filters:sRGB" id="filter28116" x="0.05" y="0.15" width="1.10" height="1.30">
      <feGaussianBlur stdDeviation="1.83"/>
    </filter>
    <filter style="color-interpolation-filters:sRGB" id="filter28161" x="0.10" y="0.11" width="1.21" height="1.22">
      <feGaussianBlur stdDeviation="3.60"/>
    </filter>
    <filter style="color-interpolation-filters:sRGB" id="filter28203" x="0.07" y="0.07" width="1.15" height="1.15">
      <feGaussianBlur stdDeviation="4.06"/>
    </filter>
  </defs>
  <circle style="filter:url(#filter850);opacity:0.20;fill:#000000" cx="96" cy="100" r="80"/>
  <circle r="80" cy="96" cx="96" style="fill:#3a59b3"/>
  <circle style="filter:url(#filter28203);opacity:0.20;fill:#000000" cx="96" cy="98" r="65"/>
  <circle style="fill:#ffffff" cx="96" cy="96" r="65"/>
  <path style="filter:url(#filter28161);opacity:0.20;fill:#000000" d="M 141,65.07 111,82.41 V 89 H 58 v 53 h 53 l 30,-23.93 z"/>
  <path style="opacity:0.10;fill:#ffffff" d="M 96 16 A 80 80 0 0 0 16 96 A 80 80 0 0 0 16.02 96.47 A 80 80 0 0 1 96 17 A 80 80 0 0 1 175.97 96.51 A 80 80 0 0 0 176 96 A 80 80 0 0 0 96 16 z "/>
  <rect style="fill:#ff4300" width="53" height="53" x="58" y="87"/>
  <path style="fill:#a22b00" d="M 111,80.41 141,63.07 V 116.07 L 111,140 Z"/>
  <path style="filter:url(#filter28116);opacity:0.20;fill:#000000" d="M 143,61.70 115,80 H 55 v 11 h 60 l 28,-19.40 z"/>
  <path style="fill:#ff4300" d="m 55,78 h 60 V 89 H 55 Z"/>
  <path style="fill:#bf3200" d="m 115,78 28,-18.30 v 9.90 L 115,89 Z"/>
  <path style="fill:#ff6933" d="M 84.45,60 H 143 L 115,78 H 55 Z"/>
  <rect style="fill:#a22b00" width="33" height="8" x="68" y="99"/>
</svg>
