<?xml version='1.0' encoding='utf-8'?>
<svg xmlns="http://www.w3.org/2000/svg" width="192" height="192" version="1" id="svg12">
  <defs>
    <filter style="color-interpolation-filters:sRGB" id="filter955" x="0.05" width="1.10" y="0.05" height="1.10">
      <feGaussianBlur stdDeviation="3.20"/>
    </filter>
    <filter style="color-interpolation-filters:sRGB" id="filter24966" x="0.13" y="0.09" width="1.27" height="1.18">
      <feGaussianBlur stdDeviation="2.95"/>
    </filter>
    <filter style="color-interpolation-filters:sRGB" id="filter24970" x="0.13" y="0.09" width="1.27" height="1.18">
      <feGaussianBlur stdDeviation="2.65"/>
    </filter>
    <filter style="color-interpolation-filters:sRGB" id="filter24974" x="0.13" y="0.09" width="1.26" height="1.18">
      <feGaussianBlur stdDeviation="2.20"/>
    </filter>
  </defs>
  <rect style="filter:url(#filter955);opacity:0.20;fill:#000000" width="160" height="160" x="16" y="20" rx="30" ry="30"/>
  <rect style="fill:#17375c" width="160" height="160" x="16" y="16" rx="30" ry="30"/>
  <path style="opacity:0.10;fill:#ffffff" d="M 46 16 C 29.38 16 16 29.38 16 46 L 16 47 C 16 30.38 29.38 17 46 17 L 146 17 C 162.62 17 176 30.38 176 47 L 176 46 C 176 29.38 162.62 16 146 16 L 46 16 z "/>
  <path style="filter:url(#filter24966);opacity:0.20;fill:#000000;color:#000000" d="M 105.52,59.00 C 102.10,59.10 99,61.40 99,67.56 v 30.44 30.44 c 0,10.38 8.80,9.80 13.08,6.22 l 16.96,-13.22 18.55,-14.47 c 3.07,-2.39 4.43,-5.69 4.41,-8.96 0.02,-3.28 -1.34,-6.57 -4.41,-8.96 L 129.03,74.57 112.08,61.35 c -1.74,-1.45 -4.22,-2.41 -6.56,-2.34 z"/>
  <path style="fill:#176cd6;color:#000000" d="M 105.52,57.00 C 102.10,57.10 99,59.40 99,65.56 v 30.44 30.44 c 0,10.38 8.80,9.80 13.08,6.22 l 16.96,-13.22 18.55,-14.47 c 3.07,-2.39 4.43,-5.69 4.41,-8.96 0.02,-3.28 -1.34,-6.57 -4.41,-8.96 L 129.03,72.57 112.08,59.35 c -1.74,-1.45 -4.22,-2.41 -6.56,-2.34 z"/>
  <path style="filter:url(#filter24970);opacity:0.20;fill:#000000;color:#000000" d="M 77.90,63.00 C 74.81,63.09 72,65.16 72,70.69 v 27.31 27.31 c 0,9.31 7.97,8.79 11.84,5.58 L 99.20,119.02 116.00,106.04 c 2.78,-2.15 4.01,-5.10 4.00,-8.04 0.02,-2.94 -1.22,-5.90 -4.00,-8.04 L 99.20,76.97 83.84,65.11 C 82.27,63.80 80.02,62.94 77.90,63.00 Z"/>
  <path style="fill:#25bbfe;color:#000000" d="M 77.90,61.00 C 74.81,61.09 72,63.16 72,68.69 v 27.31 27.31 c 0,9.31 7.97,8.79 11.84,5.58 L 99.20,117.02 116.00,104.04 c 2.78,-2.15 4.01,-5.10 4.00,-8.04 0.02,-2.94 -1.22,-5.90 -4.00,-8.04 L 99.20,74.97 83.84,63.11 C 82.27,61.80 80.02,60.94 77.90,61.00 Z"/>
  <path style="filter:url(#filter24974);opacity:0.20;fill:#000000;color:#000000" d="M 50.92,69.00 C 48.34,69.08 46,70.79 46,75.37 v 22.63 22.63 c 0,7.72 6.64,7.28 9.87,4.62 l 12.80,-9.83 14.00,-10.76 c 2.32,-1.78 3.34,-4.23 3.33,-6.66 0.01,-2.44 -1.01,-4.88 -3.33,-6.66 L 68.67,80.58 55.87,70.75 c -1.31,-1.08 -3.19,-1.79 -4.95,-1.74 z"/>
  <path style="fill:#c0f2ff;color:#000000" d="M 50.92,67.00 C 48.34,67.08 46,68.79 46,73.37 v 22.63 22.63 c 0,7.72 6.64,7.28 9.87,4.62 l 12.80,-9.83 14.00,-10.76 c 2.32,-1.78 3.34,-4.23 3.33,-6.66 0.01,-2.44 -1.01,-4.88 -3.33,-6.66 L 68.67,78.58 55.87,68.75 c -1.31,-1.08 -3.19,-1.79 -4.95,-1.74 z"/>
  <path style="opacity:0.10;fill:#ffffff;color:#000000" d="M 105.52 57.00 C 102.10 57.10 99 59.40 99 65.56 L 99 66.56 C 99 60.40 102.10 58.10 105.52 58.00 C 107.86 57.94 110.34 58.89 112.08 60.35 L 129.04 73.57 L 147.59 88.04 C 150.50 90.31 151.86 93.39 151.98 96.50 C 151.98 96.33 152.00 96.17 152 96 C 152.02 92.72 150.66 89.43 147.59 87.04 L 129.04 72.57 L 112.08 59.35 C 110.34 57.89 107.86 56.94 105.52 57.00 z "/>
  <path style="opacity:0.20;fill:#ffffff;color:#000000" d="M 77.90 61.00 C 74.81 61.09 72 63.16 72 68.69 L 72 69.69 C 72 64.16 74.81 62.09 77.90 62.00 C 80.02 61.94 82.27 62.80 83.85 64.11 L 99.20 75.97 L 116.00 88.96 C 118.62 90.98 119.86 93.73 119.98 96.50 C 119.98 96.33 120.00 96.17 120 96 C 120.02 93.06 118.78 90.10 116.00 87.96 L 99.20 74.97 L 83.85 63.11 C 82.27 61.80 80.02 60.94 77.90 61.00 z "/>
  <path style="opacity:0.20;fill:#ffffff;color:#000000" d="M 50.92 67.00 C 48.34 67.08 46 68.79 46 73.37 L 46 74.37 C 46 69.79 48.34 68.08 50.92 68.00 C 52.68 67.95 54.56 68.66 55.87 69.75 L 68.67 79.58 L 82.67 90.34 C 84.83 91.99 85.85 94.23 85.97 96.50 C 85.98 96.33 86.00 96.17 86 96 C 86.01 93.56 84.99 91.11 82.67 89.34 L 68.67 78.58 L 55.87 68.75 C 54.56 67.66 52.68 66.95 50.92 67.00 z "/>
</svg>
