<?xml version='1.0' encoding='utf-8'?>
<svg xmlns="http://www.w3.org/2000/svg" width="192" height="192" version="1" id="svg14">
  <defs>
    <filter style="color-interpolation-filters:sRGB" id="filter850" x="0.05" width="1.10" y="0.05" height="1.10">
      <feGaussianBlur stdDeviation="3.20"/>
    </filter>
    <filter style="color-interpolation-filters:sRGB" id="filter2143" x="0.13" y="0.09" width="1.26" height="1.18">
      <feGaussianBlur stdDeviation="4.18"/>
    </filter>
  </defs>
  <circle style="filter:url(#filter850);opacity:0.20;fill:#000000" cx="96" cy="100" r="80"/>
  <circle r="80" cy="96" cx="96" style="fill:#6f32b2"/>
  <path style="fill:#38adfa" d="m 688.81,257.00 c 0.33,0.33 -1.19,0.37 -1.92,0.08 0.80,0.32 0.56,0.56 0.60,0.60 1.05,0.04 1.64,0.19 1.31,0.53 z"/>
  <path style="opacity:0.10;fill:#ffffff" d="M 96 16 A 80 80 0 0 0 16 96 A 80 80 0 0 0 16.02 96.47 A 80 80 0 0 1 96 17 A 80 80 0 0 1 175.97 96.51 A 80 80 0 0 0 176 96 A 80 80 0 0 0 96 16 z "/>
  <path d="M 134,79.89 C 134,76.77 131.32,74 128.19,74 H 117.46 L 92.87,46.01 c -2.24,-2.67 -5.81,-3.57 -9.39,-2.67 l -8.19,2.67 c -1.34,0.45 -1.79,2.23 0.89,3.12 L 100.92,75 H 60.24 c -1.34,0 -2.24,0.43 -2.24,1.77 v 4.46 c 0,3.12 2.68,5.66 5.81,5.77 H 70 v 21.42 C 70,124.47 78.56,134 92.87,134 c 4.47,0 7.66,0.61 12.13,-2.40 v 14.27 C 105,149.88 108.52,153 112.54,153 H 118.80 c 1.34,0 2.20,-1.34 2.20,-2.67 V 87 h 10.76 C 133.11,87 134,85.68 134,84.35 Z M 105,118.23 C 102.32,119.57 99.13,120 96.45,120 89.29,120 86,116.44 86,108.42 V 87 h 19 z" fill="#ffffff" style="filter:url(#filter2143);opacity:0.20;fill:#000000"/>
  <path d="M 134,77.89 C 134,74.77 131.32,72 128.19,72 H 117.46 L 92.87,44.01 c -2.24,-2.67 -5.81,-3.57 -9.39,-2.67 l -8.19,2.67 c -1.34,0.45 -1.79,2.23 0.89,3.12 L 100.92,73 H 60.24 c -1.34,0 -2.24,0.43 -2.24,1.77 v 4.46 c 0,3.12 2.68,5.66 5.81,5.77 H 70 v 21.42 C 70,122.47 78.56,132 92.87,132 c 4.47,0 7.66,0.61 12.13,-2.40 v 14.27 C 105,147.88 108.52,151 112.54,151 H 118.80 c 1.34,0 2.20,-1.34 2.20,-2.67 V 85 h 10.76 C 133.11,85 134,83.68 134,82.35 Z M 105,116.23 C 102.32,117.57 99.13,118 96.45,118 89.29,118 86,114.44 86,106.42 V 85 h 19 z" fill="#ffffff"/>
</svg>
