<?xml version='1.0' encoding='utf-8'?>
<svg xmlns="http://www.w3.org/2000/svg" width="192" height="192" version="1" id="svg22">
  <defs>
    <filter style="color-interpolation-filters:sRGB" id="filter1000" x="0.05" y="0.05" width="1.10" height="1.10">
      <feGaussianBlur stdDeviation="3.20"/>
    </filter>
    <filter style="color-interpolation-filters:sRGB" id="filter1004" x="0.03" y="0.26" width="1.05" height="1.53">
      <feGaussianBlur stdDeviation="1.76"/>
    </filter>
  </defs>
  <path style="filter:url(#filter1000);opacity:0.20;fill:#000000" d="m 24,20 c 0.55,0 -1.10,0.06 -1.62,0.16 0.52,0.11 -1.02,0.26 -1.50,0.46 0.48,0.20 0.93,0.45 -1.36,0.74 0.43,0.29 0.82,0.61 -1.18,0.97 0.36,0.36 0.69,0.76 0.97,1.18 0.29,0.43 0.53,0.88 0.74,1.36 0.20,0.48 0.36,0.98 0.46,1.50 C 16.06,26.90 16,27.45 16,28 v 4 36 4 4 8 4 84 c 0,4.43 3.57,8 8,8 h 52 12 80 c 4.43,0 8,-3.57 8,-8 V 84 72 68 32 28 c 0,0.55 0.06,-1.10 0.16,-1.62 0.64,-3.13 -3.09,-5.58 -6.22,-6.22 C 169.10,20.06 168.55,20 168,20 h -48 -8 -8 z"/>
  <path style="fill:#ffc129" d="m 24,16 c -4.43,0 -8,3.57 -8,8 v 48 h 96 V 16 Z"/>
  <path style="fill:#5fb319" d="m 112,16 v 56 h 64 V 24 c 0,-4.43 -3.57,-8 -8,-8 z"/>
  <path style="fill:#e74b4b" d="m 80,76 v 100 h 88 c 4.43,0 8,-3.57 8,-8 V 76 Z"/>
  <path style="fill:#35abe4" d="m 16,76 v 92 c 0,4.43 3.57,8 8,8 H 76 V 76 Z"/>
  <path style="opacity:0.20;fill:#ffffff" d="M 24 16 C 19.57 16 16 19.57 16 24 L 16 25 C 16 20.57 19.57 17 24 17 L 168 17 C 172.43 17 176 20.57 176 25 L 176 24 C 176 19.57 172.43 16 168 16 L 24 16 z "/>
  <rect style="fill:#ffffff" width="112" height="16" x="64" y="-88" transform="rotate(90)"/>
  <rect style="filter:url(#filter1004);opacity:0.20" width="160" height="16" x="16" y="66"/>
  <rect style="fill:#ffffff" width="160" height="16" x="16" y="64"/>
  <rect style="fill:#ffffff" width="64" height="16" x="16" y="-120" transform="rotate(90)"/>
</svg>
