<?xml version='1.0' encoding='utf-8'?>
<svg xmlns="http://www.w3.org/2000/svg" width="192" height="192" version="1" id="svg14">
  <defs>
    <filter style="color-interpolation-filters:sRGB" id="filter859" x="-0.047999999" width="1.096" y="-0.047999999" height="1.096">
      <feGaussianBlur stdDeviation="3.199992"/>
    </filter>
    <filter style="color-interpolation-filters:sRGB" id="filter879" x="-0.05772292" width="1.1154458" y="-0.041080373" height="1.0821607">
      <feGaussianBlur stdDeviation="2.3260097"/>
    </filter>
  </defs>
  <path d="M 95.9998,20.0004 C 51.679911,20.0004 16,55.680311 16,100.0002 16,144.32009 51.679911,180 95.9998,180 c 44.31989,0 79.9998,-35.67991 79.9998,-79.9998 0,-44.319889 -35.67991,-79.9998 -79.9998,-79.9998 z" style="filter:url(#filter859);opacity:0.2;fill:#000000"/>
  <path style="fill:#e4e4e4" d="M 95.9998,16.00041 C 51.679911,16.00041 16,51.680321 16,96.00021 c 0,44.31989 35.679911,79.9998 79.9998,79.9998 44.31989,0 79.9998,-35.67991 79.9998,-79.9998 0,-44.319889 -35.67991,-79.9998 -79.9998,-79.9998 z"/>
  <path style="opacity:0.2;fill:#ffffff" d="M 96 16 C 51.720619 16.001053 16.074219 51.680765 16.074219 96 C 16.074219 96.115408 16.080445 96.228871 16.082031 96.34375 C 16.432728 52.329842 51.939929 17.001047 96 17 L 96.001953 17 C 140.06163 17.001047 175.56922 52.329842 175.91992 96.34375 C 175.92156 96.228871 175.92773 96.115408 175.92773 96 C 175.92773 51.680765 140.28094 16.001053 96.001953 16 L 96 16 z "/>
  <path style="fill:#138fed" d="M 71.99986,40.00035 A 79.9998,79.9998 0 0 0 28.609344,52.88313 C 20.657516,65.318975 16,80.082858 16,96.00021 c 0,4.47026 0.379895,8.85044 1.078122,13.11716 a 55.99986,55.99986 0 0 1 54.921738,-45.11708 55.99986,55.99986 0 0 1 55.99986,55.99986 55.99986,55.99986 0 0 1 -45.218639,54.90611 c 4.298765,0.70915 8.712942,1.09375 13.218719,1.09375 15.9828,0 30.80592,-4.69094 43.27333,-12.70309 a 79.9998,79.9998 0 0 0 12.72653,-43.29677 79.9998,79.9998 0 0 0 -79.9998,-79.9998 z"/>
  <path style="filter:url(#filter879);opacity:0.2" d="m 95.9998,18.000301 c -0.380399,0 -0.753722,0.026 -1.132809,0.03124 a 79.9998,79.9998 0 0 0 -22.867131,55.96862 79.9998,79.9998 0 0 0 77.01543,79.890419 c 8.29136,-7.33938 15.029,-16.35561 19.69526,-26.56243 A 55.99986,55.99986 0 0 1 151.99966,130.00002 55.99986,55.99986 0 0 1 95.9998,74.000161 55.99986,55.99986 0 0 1 126.65597,24.070598 c -9.4365,-3.89838 -19.77917,-6.070297 -30.65617,-6.070297 z"/>
  <path style="fill:#7bc450" d="m 95.9998,16.00041 c -0.380399,0 -0.753722,0.026 -1.132809,0.03124 a 79.9998,79.9998 0 0 0 -22.867131,55.96862 79.9998,79.9998 0 0 0 79.9998,79.9998 79.9998,79.9998 0 0 0 1.23437,-0.0625 c 7.5269,-7.70161 13.45793,-16.93488 17.39058,-27.18743 A 55.99986,55.99986 0 0 1 151.99966,128.00013 55.99986,55.99986 0 0 1 95.9998,72.00027 55.99986,55.99986 0 0 1 126.65597,22.070707 C 117.21947,18.172327 106.8768,16.00041 95.9998,16.00041 Z"/>
</svg>
