<svg xmlns="http://www.w3.org/2000/svg" id="svg18" width="192" height="192" version="1"><defs><filter id="filter975" width="1.1" height="1.09" x=".05" y=".05" style="color-interpolation-filters:sRGB"><feGaussianBlur stdDeviation="3.02"/></filter><filter id="filter2890" width="1.1" height="1.09" x=".05" y=".04" style="color-interpolation-filters:sRGB"><feGaussianBlur stdDeviation="2.35"/></filter></defs><path style="filter:url(#filter975);opacity:.2" d="m 96.43,20.00 a 18.26,18.19 0 0 0 -9.56,2.43 L 33.13,53.33 A 18.26,18.19 0 0 0 24.00,69.09 v 61.81 a 18.26,18.19 0 0 0 9.13,15.75 l 53.74,30.91 a 18.26,18.19 0 0 0 18.26,0 l 53.74,-30.91 a 18.26,18.19 0 0 0 9.13,-15.76 V 69.09 A 18.26,18.19 0 0 0 158.86,53.33 L 105.13,22.43 a 18.26,18.19 0 0 0 -8.70,-2.43 z"/><path style="fill:#e4e4e4" d="m 96.43,16.01 a 18.26,18.19 0 0 0 -9.56,2.43 L 33.13,49.34 A 18.26,18.19 0 0 0 24.00,65.09 v 61.81 a 18.26,18.19 0 0 0 9.13,15.75 l 53.74,30.91 a 18.26,18.19 0 0 0 18.26,0 l 53.74,-30.91 a 18.26,18.19 0 0 0 9.13,-15.76 V 65.09 A 18.26,18.19 0 0 0 158.86,49.33 L 105.13,18.43 a 18.26,18.19 0 0 0 -8.70,-2.43 z"/><path style="opacity:.2;fill:#fff" d="m 96.43,16.01 a 18.26,18.19 0 0 0 -9.56,2.42 l -53.74,30.91 a 18.26,18.19 0 0 0 -9.13,15.76 v 1.00 a 18.26,18.19 0 0 1 9.13,-15.76 l 53.74,-30.91 a 18.26,18.19 0 0 1 9.56,-2.42 h 0.00 a 18.26,18.19 0 0 1 8.70,2.42 l 53.74,30.91 A 18.26,18.19 0 0 1 168.00,66.09 v -1.00 a 18.26,18.19 0 0 0 -9.13,-15.76 l -53.74,-30.91 a 18.26,18.19 0 0 0 -8.70,-2.42 z"/><path style="filter:url(#filter2890);opacity:.2" d="m 96,35.00 a 4.58,4.60 0 0 0 -2.29,0.62 L 45.54,63.51 98.47,93.65 A 5.00,5.00 0 0 1 101,98.00 v 43.00 a 5,5 0 0 1 -5,5 5,5 0 0 1 -5,-5 V 100.91 L 41,72.43 v 54.77 a 4.58,4.60 0 0 0 2.29,3.98 l 50.42,29.20 a 4.58,4.60 0 0 0 4.58,0 L 148.71,131.18 A 4.58,4.60 0 0 0 151,127.20 V 72.41 l -31.53,17.94 a 5,5 0 0 1 -6.82,-1.87 5,5 0 0 1 1.87,-6.82 L 146.44,63.50 98.29,35.61 A 4.58,4.60 0 0 0 96,35.00 Z"/><path style="fill:#de1845" d="m 96,33 a 4.58,4.60 0 0 0 -2.29,0.62 L 45.54,61.51 98.47,91.65 A 5.00,5.00 0 0 1 101,96 v 43 a 5,5 0 0 1 -5,5 5,5 0 0 1 -5,-5 V 98.91 L 41,70.43 v 54.77 a 4.58,4.60 0 0 0 2.29,3.98 l 50.42,29.20 a 4.58,4.60 0 0 0 4.58,0 L 148.71,129.18 A 4.58,4.60 0 0 0 151,125.20 V 70.41 l -31.53,17.94 a 5,5 0 0 1 -6.82,-1.87 5,5 0 0 1 1.87,-6.82 L 146.44,61.50 98.29,33.62 A 4.58,4.60 0 0 0 96,33 Z"/></svg>