<?xml version='1.0' encoding='utf-8'?>
<svg xmlns="http://www.w3.org/2000/svg" width="192" height="192" version="1" id="svg16">
  <defs>
    <filter style="color-interpolation-filters:sRGB" id="filter2553" x="0.05" y="0.05" width="1.10" height="1.10">
      <feGaussianBlur stdDeviation="3.20"/>
    </filter>
    <filter style="color-interpolation-filters:sRGB" id="filter2557" x="0.04" y="0.07" width="1.07" height="1.15">
      <feGaussianBlur stdDeviation="1.84"/>
    </filter>
  </defs>
  <path fill="#f3c72f" d="m 96,20 c -44.44,0 -80,35.56 -80,80 0,44.44 35.56,80 80,80 7.11,0 13.33,-6.22 13.33,-13.33 0,-3.56 0.89,-6.22 -3.56,-8.89 -1.78,-2.67 -3.55,-5.34 -3.55,-8.89 0,-7.11 6.22,-13.33 13.33,-13.33 h 16 c 24.89,0 44.44,-19.56 44.44,-44.44 0,-39.11 -35.56,-71.11 -80,-71.11 z" style="filter:url(#filter2553);opacity:0.20;fill:#000000"/>
  <path fill="#f3c72f" d="m 96,16 c -44.44,0 -80,35.56 -80,80 0,44.44 35.56,80 80,80 7.11,0 13.33,-6.22 13.33,-13.33 0,-3.56 0.89,-6.22 -3.56,-8.89 -1.78,-2.67 -3.55,-5.34 -3.55,-8.89 0,-7.11 6.22,-13.33 13.33,-13.33 h 16 c 24.89,0 44.44,-19.56 44.44,-44.44 0,-39.11 -35.56,-71.11 -80,-71.11 z" style="fill:#ff6c0f"/>
  <path style="filter:url(#filter2557);opacity:0.20;fill:#000000;mix-blend-mode:normal" d="m 72,38.00 c -6.40,0 -12,5.60 -12,12 0,6.40 5.60,12 12,12 6.40,0 12,-5.60 12,-12 0,-6.40 -5.60,-12 -12,-12 z m 44,0 c -6.40,0 -12,5.60 -12,12 0,6.40 5.60,12 12,12 6.40,0 12,-5.60 12,-12 0,-6.40 -5.60,-12 -12,-12 z m -72,36 c -6.40,0 -12,5.60 -12,12 0,6.40 5.60,12 12,12 6.40,0 12,-5.60 12,-12 0,-6.40 -5.60,-12 -12,-12 z m 100,0 c -6.40,0 -12,5.60 -12,12 0,6.40 5.60,12 12,12 6.40,0 12,-5.60 12,-12 0,-6.40 -5.60,-12 -12,-12 z"/>
  <path fill="#da8015" d="m 44,96 c -6.40,0 -12,-5.60 -12,-12 0,-6.40 5.60,-12 12,-12 6.40,0 12,5.60 12,12 0,6.40 -5.60,12 -12,12 z" style="fill:#ffffff"/>
  <path fill="#327cc4" d="m 72,60 c -6.40,0 -12,-5.60 -12,-12 0,-6.40 5.60,-12 12,-12 6.40,0 12,5.60 12,12 0,6.40 -5.60,12 -12,12 z" style="fill:#fff627"/>
  <path fill="#4c9511" d="m 116,60 c -6.40,0 -12,-5.60 -12,-12 0,-6.40 5.60,-12 12,-12 6.40,0 12,5.60 12,12 0,6.40 -5.60,12 -12,12 z" style="fill:#78c816"/>
  <path fill="#d94d4d" d="m 144,96 c -6.40,0 -12,-5.60 -12,-12 0,-6.40 5.60,-12 12,-12 6.40,0 12,5.60 12,12 0,6.40 -5.60,12 -12,12 z" style="fill:#5e5e5e"/>
  <path style="opacity:0.20;fill:#ffffff" d="M 96.00 16 C 51.55 16.00 16 51.56 16 96 C 16 96.17 16.01 96.34 16.01 96.52 C 16.27 52.30 51.72 17.00 96.00 17 L 96 17 C 140.20 17.00 175.60 48.66 175.98 87.48 C 175.99 87.35 176.00 87.23 176.00 87.11 C 176.00 48.00 140.44 16.00 96 16 L 96.00 16 z M 102.45 146.74 C 102.33 147.45 102.22 148.16 102.22 148.89 C 102.22 149.07 102.24 149.23 102.25 149.40 C 102.29 148.84 102.36 148.29 102.45 147.74 C 102.94 150.40 104.33 152.60 105.78 154.78 C 108.29 157.29 109.19 159.82 109.29 163.06 C 109.30 162.93 109.34 162.80 109.34 162.66 C 109.34 159.11 108.45 156.45 105.78 153.78 C 104.33 151.60 102.94 149.40 102.45 146.74 z "/>
</svg>
