<?xml version='1.0' encoding='utf-8'?>
<svg xmlns="http://www.w3.org/2000/svg" width="192" height="192" version="1" id="svg16">
  <defs>
    <filter style="color-interpolation-filters:sRGB" id="filter867" x="0.05" width="1.10" y="0.05" height="1.10">
      <feGaussianBlur stdDeviation="3.20"/>
    </filter>
    <filter style="color-interpolation-filters:sRGB" id="filter1668" x="0.09" y="0.06" width="1.19" height="1.13">
      <feGaussianBlur stdDeviation="2.25"/>
    </filter>
  </defs>
  <rect ry="80" rx="80" height="160" width="160" y="-176" x="-180" transform="matrix(0,-1,-1,0,0,0)" style="filter:url(#filter867);opacity:0.20;fill:#000000"/>
  <rect style="fill:#00c4d2" transform="matrix(0,-1,-1,0,0,0)" x="-176" y="-176" width="160" height="160" rx="80" ry="80"/>
  <path style="opacity:0.20;fill:#ffffff" d="M 96 16 C 51.68 16 16 51.68 16 96 C 16 96.34 16.00 96.67 16 97 C 16 52.68 51.68 17 96 17 C 140.32 17 176 52.68 176 97 C 176.00 96.67 176 96.34 176 96 C 176 51.68 140.32 16 96 16 z "/>
  <path style="filter:url(#filter1668);opacity:0.20;fill:#000000" d="m 90.62,140.63 c 0.94,0.19 -3.11,0.88 -4.82,-1.55 -8.95,-3.47 -15.69,-11.11 -18.12,-20.53 0.97,-3.76 0.89,-10.13 0.19,-14.23 2.09,-7.94 5.26,-13.88 16.25,-30.48 4.29,-6.47 8.63,-13.36 9.64,-15.31 l 1.84,-3.54 0.53,1.25 c 0.29,0.69 0.54,1.54 0.55,1.90 0.04,1.41 2.19,6.95 4.03,10.35 1.76,3.27 3.87,6.44 14.87,22.44 4.20,6.11 7.91,13.27 8.90,17.20 1.30,5.15 0.05,12.65 -3.10,18.55 0.61,1.15 -2.81,3.79 -4.88,5.88 -3.11,3.13 -4.39,4.10 -7.30,5.51 -1.95,0.94 -4.76,1.99 -6.25,2.34 -2.88,0.67 -9.45,0.79 -12.34,0.22 z"/>
  <path style="fill:#ffffff" d="m 90.62,138.63 c 0.94,0.19 -3.11,0.88 -4.82,-1.55 -8.95,-3.47 -15.69,-11.11 -18.12,-20.53 0.97,-3.76 0.89,-10.13 0.19,-14.23 2.09,-7.94 5.26,-13.88 16.25,-30.48 4.29,-6.47 8.63,-13.36 9.64,-15.31 l 1.84,-3.54 0.53,1.25 c 0.29,0.69 0.54,1.54 0.55,1.90 0.04,1.41 2.19,6.95 4.03,10.35 1.76,3.27 3.87,6.44 14.87,22.44 4.20,6.11 7.91,13.27 8.90,17.20 1.30,5.15 0.05,12.65 -3.10,18.55 0.61,1.15 -2.81,3.79 -4.88,5.88 -3.11,3.13 -4.39,4.10 -7.30,5.51 -1.95,0.94 -4.76,1.99 -6.25,2.34 -2.88,0.67 -9.45,0.79 -12.34,0.22 z"/>
</svg>
