<?xml version='1.0' encoding='utf-8'?>
<svg xmlns="http://www.w3.org/2000/svg" width="192" height="192" version="1" id="svg22">
  <defs>
    <filter style="color-interpolation-filters:sRGB" id="filter862" x="-0.048000001" width="1.096" y="-0.048000001" height="1.096">
      <feGaussianBlur stdDeviation="3.2"/>
    </filter>
    <filter style="color-interpolation-filters:sRGB" id="filter881" x="-0.048" width="1.096" y="-0.048" height="1.096">
      <feGaussianBlur stdDeviation="0.56"/>
    </filter>
    <filter style="color-interpolation-filters:sRGB" id="filter897" x="-0.052800002" width="1.1056" y="-0.044000001" height="1.088">
      <feGaussianBlur stdDeviation="0.88000003"/>
    </filter>
  </defs>
  <rect style="filter:url(#filter862);opacity:0.2;fill:#000000" width="160" height="160" x="-180" y="-176" rx="80" ry="80" transform="matrix(0,-1,-1,0,0,0)"/>
  <rect transform="matrix(0,-1,-1,0,0,0)" ry="80" rx="80" y="-176" x="-176" height="160" width="160" style="fill:#3f3f3f"/>
  <path style="opacity:0.1;fill:#ffffff" d="M 96 16 C 51.684 16 16.007812 51.68 16.007812 96 C 16.007812 96.33544 16.009812 96.667215 16.007812 97 C 16.007812 52.68 51.684 17 96 17 C 140.316 17 175.99219 52.68 175.99219 97 C 175.99019 96.667215 175.99219 96.33544 175.99219 96 C 175.99219 51.68 140.316 16 96 16 z "/>
  <path d="M 85.050208,76.00152 A 4.9320528,5.29991 0 0 0 80,81.298596 v 37.407654 a 4.9320528,5.29991 0 0 0 7.394184,4.58611 l 15.079596,-9.3441 15.07249,-9.35973 a 4.9320528,5.29991 0 0 0 0,-9.164406 L 102.47378,86.0644 87.394184,76.7203 a 4.9320528,5.29991 0 0 0 -2.343976,-0.71878 z" style="filter:url(#filter897);opacity:0.1"/>
  <path d="M 85.050208,72.00152 A 4.9320528,5.29991 0 0 0 80,77.298596 v 37.407654 a 4.9320528,5.29991 0 0 0 7.394184,4.58611 l 15.079596,-9.3441 15.07249,-9.35973 a 4.9320528,5.29991 0 0 0 0,-9.164406 L 102.47378,82.0644 87.394184,72.7203 a 4.9320528,5.29991 0 0 0 -2.343976,-0.71878 z" style="fill:#ffffff"/>
  <path d="m 96,40 c -30.904256,0 -56,25.095744 -56,56 0,30.90426 25.095744,56 56,56 30.90426,0 56,-25.09574 56,-56 0,-30.904256 -25.09574,-56 -56,-56 z m 0,4 c 28.7425,0 52,23.257504 52,52 0,28.7425 -23.2575,52 -52,52 C 67.257504,148 44,124.7425 44,96 44,67.257504 67.257504,44 96,44 Z" style="opacity:0.1;fill:#ffffff"/>
  <path d="m 96,36 v 12 c 26.58074,0 48,21.419264 48,48 0,26.58074 -21.41926,48 -48,48 C 69.419264,144 48,122.58074 48,96 H 36 c 0,33.06602 26.933984,60 60,60 33.06602,0 60,-26.93398 60,-60 0,-33.066016 -26.93398,-60 -60,-60 z" style="fill:#919191"/>
  <circle r="14" cy="96" cx="42" style="filter:url(#filter881);opacity:0.1"/>
  <circle r="14" cy="94" cx="42" style="fill:#ffffff"/>
</svg>
