<svg xmlns="http://www.w3.org/2000/svg" id="svg28" width="192" height="192" version="1"><defs><filter style="color-interpolation-filters:sRGB" id="filter6495" width="1.1" height="1.1" x=".05" y=".05"><feGaussianBlur stdDeviation="3.2"/></filter><filter style="color-interpolation-filters:sRGB" id="filter4934" width="1.2" height="1.24" x=".1" y=".12"><feGaussianBlur stdDeviation="5.04"/></filter></defs><rect width="160" height="160" x="-180" y="-176" rx="12" ry="12" transform="matrix(0,-1,-1,0,0,0)" style="filter:url(#filter6495);opacity:.2;fill:#000"/><rect width="160" height="160" x="-176" y="-176" rx="12" ry="12" transform="matrix(0,-1,-1,0,0,0)" style="fill:#f56e0a"/><path style="opacity:.2;fill:#fff" d="m 28,16 c -6.65,0 -12,5.35 -12,12 v 1 c 0,-6.65 5.35,-12 12,-12 h 136 c 6.65,0 12,5.35 12,12 v -1 c 0,-6.65 -5.35,-12 -12,-12 z"/><path style="filter:url(#filter4934);opacity:.2;fill:#000;color:#000" d="m 96,47.00 c -3.72,0.00 -7.39,0.98 -10.61,2.84 L 59.61,64.73 C 53.06,68.52 49.00,75.54 49,83.11 v 29.78 c 0.00,7.57 4.06,14.59 10.61,18.38 l 25.78,14.89 c 6.55,3.78 14.67,3.78 21.22,0 l 25.78,-14.89 c 1.22,0.70 2.35,-1.52 3.39,-2.43 2.33,1.43 7.55,4.75 12.20,7.86 10.71,7.16 12.73,8.30 14.75,8.30 3.37,0 6.94,-2.71 7.89,-5.98 0.53,-1.82 0.38,-3.80 0.34,-5.54 0.82,-2.09 -2.35,-3.11 -3.92,-3.96 -2.39,-1.29 -6.57,-3.43 -11.13,-5.66 l -12.81,-6.09 c 0.37,-1.58 0.58,-3.21 0.58,-4.87 V 83.11 c 0.00,-7.57 -4.06,-14.60 -10.61,-18.38 L 106.61,49.84 C 103.39,47.98 99.72,47.00 96,47.00 Z m 0,8 a 13.22,13.23 0 0 1 6.61,1.77 L 128.39,71.66 A 13.22,13.23 0 0 1 135,83.11 v 29.78 a 13.22,13.23 0 0 1 -6.61,11.45 l -25.78,14.89 a 13.22,13.23 0 0 1 -13.22,0 L 63.61,124.34 A 13.22,13.23 0 0 1 57,112.89 V 83.11 A 13.22,13.23 0 0 1 63.61,71.66 L 89.39,56.77 A 13.22,13.23 0 0 1 96,55.00 Z m 0,9.00 a 10.51,10.46 0 0 0 -5.25,1.40 L 85.88,68.20 96,74.13 l 10.12,-5.94 -4.87,-2.79 A 10.51,10.46 0 0 0 96,64.00 Z M 77.89,72.78 70.25,77.17 A 10.51,10.46 0 0 0 65,86.23 v 23.54 a 10.51,10.46 0 0 0 5.25,9.05 L 75,121.55 V 88.75 a 4.00,4.00 0 0 1 1.98,-3.45 l 11.12,-6.52 z m 36.21,0 -10.20,5.99 11.12,6.52 A 4.00,4.00 0 0 1 117,88.75 v 32.81 l 4.75,-2.73 A 10.51,10.46 0 0 0 127,109.77 V 86.23 a 10.51,10.46 0 0 0 -5.25,-9.05 z M 96,83.41 83,91.04 v 35.11 l 7.75,4.45 a 10.51,10.46 0 0 0 10.51,0 L 109,126.15 V 91.04 Z"/><path style="fill:#fff;color:#000" d="M 96 45 C 92.28 45.00 88.61 45.98 85.39 47.84 L 59.61 62.73 C 53.06 66.52 49.00 73.54 49 81.11 L 49 110.89 C 49.00 118.46 53.06 125.49 59.61 129.27 L 85.39 144.16 C 91.94 147.95 100.06 147.95 106.61 144.16 L 132.39 129.27 C 133.61 128.57 134.74 127.75 135.78 126.84 C 138.11 128.27 143.32 131.59 147.97 134.70 C 158.68 141.86 160.70 143 162.73 143 C 166.10 143 169.67 140.29 170.62 137.02 C 171.15 135.20 171.00 133.21 170.28 131.48 C 169.46 129.39 167.94 128.37 166.36 127.52 C 163.97 126.23 159.79 124.09 155.23 121.86 L 142.42 115.76 C 142.79 114.18 143.00 112.55 143 110.89 L 143 81.11 C 143.00 73.54 138.94 66.52 132.39 62.73 L 106.61 47.84 C 103.39 45.98 99.72 45.00 96 45 z M 96 53 A 13.22 13.23 0 0 1 102.61 54.77 L 128.39 69.66 A 13.22 13.23 0 0 1 135 81.11 L 135 110.89 A 13.22 13.23 0 0 1 128.39 122.34 L 102.61 137.23 A 13.22 13.23 0 0 1 89.39 137.23 L 63.61 122.34 A 13.22 13.23 0 0 1 57 110.89 L 57 81.11 A 13.22 13.23 0 0 1 63.61 69.66 L 89.39 54.77 A 13.22 13.23 0 0 1 96 53 z M 96 62.00 A 10.51 10.46 0 0 0 90.75 63.40 L 85.88 66.20 L 96 72.13 L 106.12 66.20 L 101.25 63.40 A 10.51 10.46 0 0 0 96 62.00 z M 77.89 70.79 L 70.25 75.17 A 10.51 10.46 0 0 0 65 84.23 L 65 107.77 A 10.51 10.46 0 0 0 70.25 116.83 L 75 119.55 L 75 86.75 A 4.00 4.00 0 0 1 76.98 83.29 L 88.10 76.77 L 77.89 70.79 z M 114.11 70.79 L 103.90 76.77 L 115.02 83.29 A 4.00 4.00 0 0 1 117 86.75 L 117 119.55 L 121.75 116.83 A 10.51 10.46 0 0 0 127 107.77 L 127 84.23 A 10.51 10.46 0 0 0 121.75 75.17 L 114.11 70.79 z M 96 81.41 L 83 89.04 L 83 124.15 L 90.75 128.60 A 10.51 10.46 0 0 0 101.25 128.60 L 109 124.15 L 109 89.04 L 96 81.41 z"/></svg>