<?xml version='1.0' encoding='utf-8'?>
<svg xmlns="http://www.w3.org/2000/svg" width="192" height="192" version="1" id="svg12">
  <defs>
    <filter style="color-interpolation-filters:sRGB" id="filter955" x="0.05" width="1.10" y="0.05" height="1.10">
      <feGaussianBlur stdDeviation="3.20"/>
    </filter>
    <filter style="color-interpolation-filters:sRGB" id="filter16674" x="0.07" y="0.09" width="1.15" height="1.19">
      <feGaussianBlur stdDeviation="3.75"/>
    </filter>
  </defs>
  <rect style="filter:url(#filter955);opacity:0.20;fill:#000000" width="160" height="160" x="16" y="20" rx="30" ry="30"/>
  <rect style="fill:#21589c" width="160" height="160" x="16" y="16" rx="30" ry="30"/>
  <path style="filter:url(#filter16674);opacity:0.20;fill:#000000" d="M 45,50 C 39.46,50 35,54.46 35,60 V 86.13 A 12,12 0 0 1 36,86 12,12 0 0 1 48,98 12,12 0 0 1 36,110 12,12 0 0 1 35,109.87 V 136 c 0,5.54 4.46,10 10,10 h 102 c 5.54,0 10,-4.46 10,-10 V 109.87 A 12,12 0 0 1 156,110 12,12 0 0 1 144,98 a 12,12 0 0 1 12,-12 12,12 0 0 1 1,0.05 V 60 c 0,-5.54 -4.46,-10 -10,-10 z m 11,28 h 28 c 1.11,0 2,0.89 2,2 v 4 c 0,1.11 0.89,2 -2,2 H 74 v 32 H 66 V 86 H 56 c -1.11,0 -2,0.89 -2,-2 v -4 c 0,-1.11 0.89,-2 2,-2 z m 37,0 h 4 c 1.11,0 2,0.89 2,2 v 36 c 0,1.11 0.89,2 -2,2 h -4 c -1.11,0 -2,0.89 -2,-2 V 80 c 0,-1.11 0.89,-2 2,-2 z m 12.43,0 h 6.83 c 0.94,0 1.13,0.00 1.56,0.90 l 23.54,37.66 c 0.90,1.44 0.99,1.44 0.71,1.44 h -6.92 c 0.88,0 -1.11,0.06 -1.51,0.79 L 121,105.65 113.77,117.21 C 113.37,118.06 113.15,118 112.26,118 h -6.92 c -1.71,0 -1.61,0.00 0.71,-1.44 L 116.23,98.02 104.90,79.89 C 103.91,78.32 103.31,78 105.43,78 Z m 24.31,0 h 6.83 c 2.12,0 1.52,0.32 0.53,1.89 L 127.57,95.13 126.55,93.50 a 3,3 0 0 0 1.11,-2.32 3,3 0 0 0 -3,-3 3,3 0 0 0 -1.26,0.28 l 0.60,0.96 5.38,-8.60 C 128.61,78.00 128.80,78 129.74,78 Z"/>
  <path style="opacity:0.10;fill:#ffffff" d="M 46 16 C 29.38 16 16 29.38 16 46 L 16 47 C 16 30.38 29.38 17 46 17 L 146 17 C 162.62 17 176 30.38 176 47 L 176 46 C 176 29.38 162.62 16 146 16 L 46 16 z "/>
  <path style="fill:#ffc14f" d="M 45 48 C 39.46 48 35 52.46 35 58 L 35 84.13 A 12 12 0 0 1 36 84 A 12 12 0 0 1 48 96 A 12 12 0 0 1 36 108 A 12 12 0 0 1 35 107.87 L 35 134 C 35 139.54 39.46 144 45 144 L 147 144 C 152.54 144 157 139.54 157 134 L 157 107.87 A 12 12 0 0 1 156 108 A 12 12 0 0 1 144 96 A 12 12 0 0 1 156 84 A 12 12 0 0 1 157 84.05 L 157 58 C 157 52.46 152.54 48 147 48 L 45 48 z M 56 76 L 84 76 C 85.11 76 86 76.89 86 78 L 86 82 C 86 83.11 85.11 84 84 84 L 74 84 L 74 116 L 66 116 L 66 84 L 56 84 C 54.89 84 54 83.11 54 82 L 54 78 C 54 76.89 54.89 76 56 76 z M 93 76 L 97 76 C 98.11 76 99 76.89 99 78 L 99 114 C 99 115.11 98.11 116 97 116 L 93 116 C 91.89 116 91 115.11 91 114 L 91 78 C 91 76.89 91.89 76 93 76 z M 105.43 76 L 112.26 76 C 113.20 76 113.39 76.00 113.82 76.90 L 137.37 114.56 C 138.27 116.00 138.36 116 136.65 116 L 129.74 116 C 128.85 116 128.63 116.06 128.23 115.21 L 121 103.65 L 113.77 115.21 C 113.37 116.06 113.15 116 112.26 116 L 105.35 116 C 103.64 116 103.73 116.00 104.63 114.56 L 116.23 96.02 L 104.90 77.89 C 103.91 76.32 103.31 76 105.43 76 z M 129.74 76 L 136.57 76 C 138.69 76 138.09 76.32 137.10 77.89 L 127.57 93.13 L 126.55 91.50 A 3 3 0 0 0 127.66 89.18 A 3 3 0 0 0 124.66 86.18 A 3 3 0 0 0 123.40 86.46 L 122.80 85.50 L 128.18 76.90 C 128.61 76.00 128.80 76 129.74 76 z "/>
  <path style="opacity:0.20;fill:#ffffff" d="M 45 48 C 39.46 48 35 52.46 35 58 L 35 59 C 35 53.46 39.46 49 45 49 L 147 49 C 152.54 49 157 53.46 157 59 L 157 58 C 157 52.46 152.54 48 147 48 L 45 48 z M 104.36 77.07 C 103.64 77.23 104.15 77.70 104.90 78.89 L 115.92 96.52 L 116.23 96.02 L 104.90 77.89 C 104.69 77.56 104.51 77.30 104.36 77.07 z M 137.64 77.07 C 137.49 77.30 137.31 77.56 137.10 77.89 L 127.57 93.13 L 126.90 92.06 A 3 3 0 0 1 126.55 92.50 L 127.57 94.13 L 137.10 78.89 C 137.85 77.70 138.36 77.23 137.64 77.07 z M 54 82 L 54 83 C 54 84.11 54.89 85 56 85 L 66 85 L 66 84 L 56 84 C 54.89 84 54 83.11 54 82 z M 86 82 C 86 83.11 85.11 84 84 84 L 74 84 L 74 85 L 84 85 C 85.11 85 86 84.11 86 83 L 86 82 z M 123.12 86.00 L 122.80 86.50 L 123.40 87.46 A 3 3 0 0 1 124.66 87.18 A 3 3 0 0 1 127.58 89.53 A 3 3 0 0 0 127.66 89.18 A 3 3 0 0 0 124.66 86.18 A 3 3 0 0 0 123.40 86.46 L 123.12 86.00 z M 47.96 96.25 A 12 12 0 0 1 36 108 A 12 12 0 0 1 35 107.87 L 35 108.87 A 12 12 0 0 0 36 109 A 12 12 0 0 0 48 97 A 12 12 0 0 0 47.96 96.25 z M 144.08 96.50 A 12 12 0 0 0 144 97 A 12 12 0 0 0 156 109 A 12 12 0 0 0 157 108.87 L 157 107.87 A 12 12 0 0 1 156 108 A 12 12 0 0 1 144.08 96.50 z M 121 103.65 L 113.77 115.21 C 113.37 116.06 113.15 116 112.26 116 L 105.35 116 C 104.91 116 104.60 116.00 104.38 115.98 C 103.78 116.94 103.85 117 105.35 117 L 112.26 117 C 113.15 117 113.37 117.06 113.77 116.21 L 121 104.65 L 128.23 116.21 C 128.63 117.06 128.85 117 129.74 117 L 136.65 117 C 138.15 117 138.22 116.94 137.62 115.98 C 137.40 116.00 137.09 116 136.65 116 L 129.74 116 C 128.85 116 128.63 116.06 128.23 115.21 L 121 103.65 z M 91 114 L 91 115 C 91 116.11 91.89 117 93 117 L 97 117 C 98.11 117 99 116.11 99 115 L 99 114 C 99 115.11 98.11 116 97 116 L 93 116 C 91.89 116 91 115.11 91 114 z M 66 116 L 66 117 L 74 117 L 74 116 L 66 116 z "/>
</svg>
