<?xml version='1.0' encoding='utf-8'?>
<svg xmlns="http://www.w3.org/2000/svg" width="192" height="192" version="1" id="svg28">
  <defs>
    <filter style="color-interpolation-filters:sRGB" id="filter6495" x="0.05" y="0.05" width="1.10" height="1.10">
      <feGaussianBlur stdDeviation="3.20"/>
    </filter>
    <filter style="color-interpolation-filters:sRGB" id="filter2642" x="0.08" y="0.15" width="1.17" height="1.30">
      <feGaussianBlur stdDeviation="3.92"/>
    </filter>
  </defs>
  <rect transform="matrix(0,-1,-1,0,0,0)" ry="12" rx="12" y="-176" x="-180" height="160" width="160" style="filter:url(#filter6495);opacity:0.20;fill:#000000"/>
  <rect transform="matrix(0,-1,-1,0,0,0)" ry="12" rx="12" y="-176" x="-176" height="160" width="160" style="fill:#983ad5"/>
  <path style="opacity:0.10;fill:#ffffff" d="m 28,16 c -6.65,0 -12,5.35 -12,12 v 1 c 0,-6.65 5.35,-12 12,-12 h 136 c 6.65,0 12,5.35 12,12 v -1 c 0,-6.65 -5.35,-12 -12,-12 z"/>
  <path style="filter:url(#filter2642);opacity:0.20;fill:#000000" d="m 74.13,67.00 c -1.33,0.00 -2.67,0.14 -4.00,0.42 -2.61,0.55 -6.39,2.58 -8.28,4.27 l -1.46,1.31 1.46,0.19 c 3.29,0.43 5.17,0.74 7.33,1.83 4.31,2.17 7.54,6.42 9.08,11.93 0.62,2.23 0.60,2.82 0.70,21.68 l 0.10,19.38 H 86.54 94 l 0.00,-18.05 c 0.00,-9.93 0.13,-19.53 0.29,-21.32 0.54,-6.16 -2.15,-10.81 -5.09,-14.75 -3.27,-4.37 -8.74,-6.89 -14.49,-6.87 z m -13.74,6 h -1.04 c 0.57,0 -2.07,0.20 -3.33,0.44 -5.69,1.08 -11.07,5.12 -13.53,10.16 C 40.19,88.31 40,87.31 40,108.81 v 19.19 H 47.55 55 v -20.99 c 0,-22.35 0.12,-23.94 1.50,-27.60 0.66,-1.75 1.96,-4.03 3.11,-5.46 z m 37.62,-5 0.00,18.05 c 0.00,9.93 0.13,19.53 0.29,21.32 0.54,6.16 2.15,10.81 5.09,14.75 4.02,5.38 11.38,7.95 18.49,6.45 2.61,0.55 6.39,-2.58 8.28,-4.27 l 1.46,-1.31 -1.46,0.19 c -3.29,0.43 -5.17,0.74 -7.33,-1.83 -4.31,-2.17 -7.54,-6.42 -9.08,-11.93 0.62,-2.23 0.60,-2.82 0.70,-21.68 L 112.95,68.00 h -7.49 z m 33.62,55 h 1.04 c 0.57,0 2.07,0.20 3.33,0.44 5.69,-1.08 11.07,-5.12 13.53,-10.16 C 151.81,107.69 152,108.69 152,87.19 V 68.00 H 144.45 137 v 20.99 c 0,22.35 0.12,23.94 -1.50,27.60 0.66,1.75 -1.96,4.03 -3.11,5.46 z"/>
  <path style="fill:#ffffff" d="M 74.13 65 C 72.80 65.00 71.46 65.14 70.12 65.42 C 67.51 65.97 63.73 68.00 61.85 69.69 L 60.38 71 L 61.85 71.19 C 65.14 71.62 67.01 71.93 69.17 73.02 C 73.48 75.18 76.72 79.43 78.25 84.94 C 78.87 87.17 78.85 87.76 78.95 106.62 L 79.05 126 L 86.54 126 L 94 126 L 94.00 107.95 C 93.99 98.01 93.87 88.42 93.71 86.62 C 93.17 80.47 91.56 75.81 88.62 71.87 C 85.35 67.50 79.88 64.99 74.13 65 z M 60.38 71 L 59.35 71 C 58.78 71 57.28 71.20 56.01 71.44 C 50.33 72.51 44.95 76.55 42.49 81.60 C 40.19 86.31 40 85.31 40 106.81 L 40 126 L 47.55 126 L 55 126 L 55 105.01 C 55 82.66 55.12 81.07 56.50 77.41 C 57.16 75.66 58.46 73.38 59.61 71.96 L 60.38 71 z M 98 66 L 98.00 84.05 C 98.01 93.99 98.13 103.58 98.29 105.38 C 98.83 111.53 100.44 116.19 103.38 120.13 C 107.40 125.51 114.76 128.08 121.88 126.58 C 124.49 126.03 128.27 124.00 130.15 122.31 L 131.62 121 L 130.15 120.81 C 126.86 120.38 124.99 120.07 122.83 118.98 C 118.52 116.82 115.28 112.57 113.75 107.06 C 113.13 104.83 113.15 104.24 113.05 85.38 L 112.95 66 L 105.46 66 L 98 66 z M 131.62 121 L 132.65 121 C 133.22 121 134.72 120.80 135.99 120.56 C 141.67 119.49 147.05 115.45 149.51 110.40 C 151.81 105.69 152 106.69 152 85.19 L 152 66 L 144.45 66 L 137 66 L 137 86.99 C 137 109.34 136.88 110.93 135.50 114.59 C 134.84 116.34 133.54 118.62 132.39 120.04 L 131.62 121 z "/>
</svg>
