<?xml version='1.0' encoding='utf-8'?>
<svg xmlns="http://www.w3.org/2000/svg" width="192" height="192" version="1" id="svg14">
  <defs>
    <filter style="color-interpolation-filters:sRGB" id="filter850" x="-0.048000001" width="1.096" y="-0.048000001" height="1.096">
      <feGaussianBlur stdDeviation="3.2"/>
    </filter>
    <filter style="color-interpolation-filters:sRGB" id="filter5000" x="-0.15557438" y="-0.19927832" width="1.3111488" height="1.3985566">
      <feGaussianBlur stdDeviation="7.2"/>
    </filter>
  </defs>
  <circle style="filter:url(#filter850);opacity:0.2;fill:#000000" cx="96" cy="100" r="80"/>
  <circle r="80" cy="96" cx="96" style="fill:#3949ab"/>
  <path style="fill:#38adfa" d="m 688.80525,256.99648 c -0.33229,-0.33229 -1.1948,-0.36781 -1.91667,-0.0789 -0.79773,0.31922 -0.56078,0.55618 0.60417,0.60416 1.05416,0.0434 1.64479,-0.19293 1.3125,-0.52522 z"/>
  <path style="opacity:0.1;fill:#ffffff" d="M 96 16 A 80 80 0 0 0 16 96 A 80 80 0 0 0 16.019531 96.472656 A 80 80 0 0 1 96 17 A 80 80 0 0 1 175.97461 96.513672 A 80 80 0 0 0 176 96 A 80 80 0 0 0 96 16 z "/>
  <path style="filter:url(#filter5000);opacity:0.2;fill:#000000" d="M 160.91992,51.287109 99.501953,111.56836 a 5.0005,5.0005 0 0 1 -7.037109,-0.0332 l -18,-18.000004 a 5,5 0 0 1 0,-7.070312 5,5 0 0 1 7.070312,0 L 96.033203,100.96094 125.91211,71.634766 A 40,40 0 0 0 96,58 40,40 0 0 0 56,98 a 40,40 0 0 0 40,40 40,40 0 0 0 40,-40 40,40 0 0 0 -0.42188,-5.767578 l 31.49415,-30.910156 a 80,80 0 0 0 -6.15235,-10.035157 z"/>
  <path style="fill:#ffffff" d="M 160.91992 49.287109 L 99.501953 109.56836 A 5.0005 5.0005 0 0 1 92.464844 109.53516 L 74.464844 91.535156 A 5 5 0 0 1 74.464844 84.464844 A 5 5 0 0 1 81.535156 84.464844 L 96.033203 98.960938 L 125.91211 69.634766 A 40 40 0 0 0 96 56 A 40 40 0 0 0 56 96 A 40 40 0 0 0 96 136 A 40 40 0 0 0 136 96 A 40 40 0 0 0 135.57812 90.232422 L 167.07227 59.322266 A 80 80 0 0 0 160.91992 49.287109 z "/>
</svg>
