<svg xmlns="http://www.w3.org/2000/svg" id="svg28" width="192" height="192" version="1"><defs><filter style="color-interpolation-filters:sRGB" id="filter6143" width="1.16" height="1.14" x=".08" y=".07"><feGaussianBlur stdDeviation="4.69"/></filter><filter style="color-interpolation-filters:sRGB" id="filter6226" width="1.14" height="1.16" x=".07" y=".08"><feGaussianBlur stdDeviation="3.17"/></filter></defs><path style="filter:url(#filter6143);opacity:.2;fill:#000" d="M 58,20 C 40.27,20 26,34.27 26,52 v 76 c 0,17.73 14.27,32 32,32 H 83.68 L 96,180 108.32,160 H 134 c 17.73,0 32,-14.27 32,-32 V 52 C 166,34.27 151.73,20 134,20 Z"/><path style="fill:#e4e4e4" d="M 58 16 C 40.27 16 26 30.27 26 48 L 26 124 C 26 141.73 40.27 156 58 156 L 83.68 156 L 96 176 L 108.32 156 L 134 156 C 151.73 156 166 141.73 166 124 L 166 48 C 166 30.27 151.73 16 134 16 L 58 16 z"/><path style="filter:url(#filter6226);opacity:.2;fill:#000" d="m 79,39.00 v 11 H 68 v 12 h 11 v 10 H 68 v 12 h 11 v 11 h 12 v -11 h 10 v 11 h 12 v -11 h 11 v -12 h -11 v -10 h 11 v -12 h -11 v -11 h -12 v 11 H 91 v -11 z m 12,23 h 10 v 10 H 91 Z m 51.85,36.00 a 6,6 0 0 0 -1.55,0.24 6,6 0 0 0 -3.57,2.89 c 0,0 -12.01,22.79 -41.75,22.87 -29.71,0.08 -41.71,-22.86 -41.71,-22.86 a 6,6 0 0 0 -8.13,-2.42 6,6 0 0 0 -2.42,8.13 c 0,0 16.23,29.24 52.29,29.14 36.03,0.09 52.25,-29.13 52.25,-29.13 a 6,6 0 0 0 -2.40,-8.14 6,6 0 0 0 -3.02,0.73 z"/><path style="fill:#00a3f1" d="M 79 37 L 79 48 L 68 48 L 68 60 L 79 60 L 79 70 L 68 70 L 68 82 L 79 82 L 79 93 L 91 93 L 91 82 L 101 82 L 101 93 L 113 93 L 113 82 L 124 82 L 124 70 L 113 70 L 113 60 L 124 60 L 124 48 L 113 48 L 113 37 L 101 37 L 101 48 L 91 48 L 91 37 L 79 37 z M 91 60 L 101 60 L 101 70 L 91 70 L 91 60 z M 142.85 96.00 A 6 6 0 0 0 141.30 96.24 A 6 6 0 0 0 137.73 99.13 C 137.73 99.13 125.72 121.92 95.98 122 C 66.28 122.08 54.28 99.14 54.28 99.14 A 6 6 0 0 0 46.14 96.72 A 6 6 0 0 0 43.72 104.86 C 43.72 104.86 59.95 134.09 96.02 134 C 132.05 133.91 148.27 104.87 148.27 104.87 A 6 6 0 0 0 145.87 96.73 A 6 6 0 0 0 142.85 96.00 z"/><path style="opacity:.2;fill:#fff" d="M 58 16 C 40.27 16 26 30.27 26 48 L 26 49 C 26 31.27 40.27 17 58 17 L 134 17 C 151.73 17 166 31.27 166 49 L 166 48 C 166 30.27 151.73 16 134 16 L 58 16 z"/></svg>