<?xml version='1.0' encoding='utf-8'?>
<svg xmlns="http://www.w3.org/2000/svg" width="192" height="192" version="1" id="svg16">
  <defs>
    <filter style="color-interpolation-filters:sRGB" id="filter867" x="0.05" width="1.10" y="0.05" height="1.10">
      <feGaussianBlur stdDeviation="3.20"/>
    </filter>
    <filter style="color-interpolation-filters:sRGB" id="filter2301" x="0.08" y="0.07" width="1.15" height="1.15">
      <feGaussianBlur stdDeviation="2.67"/>
    </filter>
  </defs>
  <rect ry="80" rx="80" height="160" width="160" y="-176" x="-180" transform="matrix(0,-1,-1,0,0,0)" style="filter:url(#filter867);opacity:0.20;fill:#000000"/>
  <rect style="fill:#1f9dff" transform="matrix(0,-1,-1,0,0,0)" x="-176" y="-176" width="160" height="160" rx="80" ry="80"/>
  <path style="opacity:0.20;fill:#ffffff" d="M 96 16 C 51.68 16 16 51.68 16 96 C 16 96.34 16.00 96.67 16 97 C 16 52.68 51.68 17 96 17 C 140.32 17 176 52.68 176 97 C 176.00 96.67 176 96.34 176 96 C 176 51.68 140.32 16 96 16 z "/>
  <path style="filter:url(#filter2301);opacity:0.20;fill:#000000" d="M 68.85,141.73 C 64.00,140.34 60.08,136.15 55.69,127.68 54.17,124.74 54,124.24 54,122.62 c 0,-2.51 0.71,-3.78 3.73,-6.67 3.65,-3.51 7.05,-5.36 11.56,-7.05 3.55,-1.32 6.21,-1.14 8.49,0.60 1.08,0.82 4.63,4.69 6.02,7.04 1.14,1.93 1.73,1.87 5.49,0.60 10.61,-7.41 19.17,-15.74 25.33,-27.08 2.09,-3.92 2.16,-3.78 -3.53,-6.35 -5.18,-2.34 -6.98,-3.56 -7.72,-6.01 0.58,-1.93 0.56,-2.57 0.14,-5.28 1.51,-5.87 6.41,-14.82 8.92,-16.29 2.16,-1.26 4.04,-1.25 7.83,0.05 7.55,2.58 11.51,4.65 13.37,6.98 3.82,4.80 4.38,12.38 1.76,24.02 -1.72,7.62 -5.50,16.52 -9.74,22.93 -10.78,16.25 -28.64,28.54 -46.80,32.21 -4.51,0.91 -8.18,1.14 -9.98,0.62 z"/>
  <path style="fill:#ffffff" d="M 68.85,139.73 C 64.00,138.34 60.08,134.15 55.69,125.68 54.17,122.74 54,122.24 54,120.62 c 0,-2.51 0.71,-3.78 3.73,-6.67 3.65,-3.51 7.05,-5.36 11.56,-7.05 3.55,-1.32 6.21,-1.14 8.49,0.60 1.08,0.82 4.63,4.69 6.02,7.04 1.14,1.93 1.73,1.87 5.49,0.60 10.61,-7.41 19.17,-15.74 25.33,-27.08 2.09,-3.92 2.16,-3.78 -3.53,-6.35 -5.18,-2.34 -6.98,-3.56 -7.72,-6.01 0.58,-1.93 0.56,-2.57 0.14,-5.28 1.51,-5.87 6.41,-14.82 8.92,-16.29 2.16,-1.26 4.04,-1.25 7.83,0.05 7.55,2.58 11.51,4.65 13.37,6.98 3.82,4.80 4.38,12.38 1.76,24.02 -1.72,7.62 -5.50,16.52 -9.74,22.93 -10.78,16.25 -28.64,28.54 -46.80,32.21 -4.51,0.91 -8.18,1.14 -9.98,0.62 z"/>
</svg>
