<?xml version='1.0' encoding='utf-8'?>
<svg xmlns:xlink="http://www.w3.org/1999/xlink" xmlns="http://www.w3.org/2000/svg" width="192" height="192" version="1" id="svg12">
  <defs>
    <linearGradient id="linearGradient2463">
      <stop style="stop-color:#f44336;stop-opacity:1" offset="0"/>
      <stop style="stop-color:#f44336;stop-opacity:0" offset="1"/>
    </linearGradient>
    <linearGradient id="linearGradient2297">
      <stop style="stop-color:#f44336;stop-opacity:1" offset="0"/>
      <stop style="stop-color:#f44336;stop-opacity:0" offset="1"/>
    </linearGradient>
    <filter style="color-interpolation-filters:sRGB" id="filter955" x="0.05" width="1.10" y="0.05" height="1.10">
      <feGaussianBlur stdDeviation="3.20"/>
    </filter>
    <linearGradient xlink:href="#linearGradient2297" id="linearGradient2299" x1="123.71" y1="68" x2="150" y2="68" gradientUnits="userSpaceOnUse"/>
    <linearGradient xlink:href="#linearGradient2463" id="linearGradient2465" x1="116.11" y1="124" x2="165.92" y2="124" gradientUnits="userSpaceOnUse"/>
    <filter style="color-interpolation-filters:sRGB" id="filter2777" x="0.07" y="0.08" width="1.14" height="1.17">
      <feGaussianBlur stdDeviation="2.41"/>
    </filter>
  </defs>
  <rect style="filter:url(#filter955);opacity:0.20;fill:#000000" width="160" height="160" x="16" y="20" rx="30" ry="30"/>
  <rect style="fill:#4f4f4f" width="160" height="160" x="16" y="16" rx="30" ry="30"/>
  <path style="opacity:0.10;fill:#ffffff" d="M 46 16 C 29.38 16 16 29.38 16 46 L 16 47 C 16 30.38 29.38 17 46 17 L 146 17 C 162.62 17 176 30.38 176 47 L 176 46 C 176 29.38 162.62 16 146 16 L 46 16 z "/>
  <rect style="fill:url(#linearGradient2299)" width="90" height="14" x="60" y="61"/>
  <rect style="fill:url(#linearGradient2465)" width="99.64" height="14" x="66.29" y="117"/>
  <path style="fill:#f44336" d="M 62.31 89 L 62.31 103 L 176 103 L 176 89 L 62.31 89 z "/>
  <path style="filter:url(#filter2777);opacity:0.20;fill:#000000" d="m 77.67,132.12 c 0.47,0.65 10.55,-17.08 17.99,-29.21 0.16,0.26 0.36,0.40 0.44,0.31 0.08,0.09 4.16,6.87 9.05,14.82 4.90,7.96 9.12,14.92 9.40,15.22 0.44,0.49 1.20,0.35 7.03,0.35 5.95,0 6.58,0.15 7.06,0.38 0.58,0.64 0.28,1.19 5.88,-40.40 C 136.43,77.98 138,65.87 138,65.28 c 0,0.70 0.24,-1.29 0.66,-1.68 0.60,0.54 -1.20,0.60 -6.31,0.60 -5.27,0 -5.69,0.04 -6.29,0.64 0.68,0.68 0.67,0.57 -5.71,38.35 0.88,6.57 -1.63,11.98 -1.68,12.03 0.05,0.05 -3.05,-4.94 -6.67,-10.84 -3.62,-5.90 -6.85,-11.06 -7.18,-11.48 C 103.07,91.00 102.61,91 101.66,91 h -5.63 c -6.73,0 -6.88,0.04 -7.50,0.66 0.35,0.39 -3.60,5.55 -7.23,11.46 -3.63,5.92 -6.63,10.92 -6.67,10.88 0.04,0.04 -1.58,-11.25 -3.42,-24.91 -2.92,-21.69 -3.42,-24.91 -3.97,-25.46 0.58,0.58 -1.05,0.63 -6.27,0.63 -5.11,0 -5.71,0.06 -6.31,0.60 0.44,0.40 0.66,0.98 0.66,1.73 0.00,0.62 1.98,15.83 4.39,33.79 3.55,26.40 4.50,32.77 4.94,33.26 0.51,0.56 1.04,0.61 7.12,0.61 h 5.28 c 0.68,0 1.31,0.02 1.93,0.86 z"/>
  <path style="fill:#ffffff" d="m 77.67,130.12 c 0.47,0.65 10.55,-17.08 17.99,-29.21 0.16,0.26 0.36,0.40 0.44,0.31 0.08,0.09 4.16,6.87 9.05,14.82 4.90,7.96 9.12,14.92 9.40,15.22 0.44,0.49 1.20,0.35 7.03,0.35 5.95,0 6.58,0.15 7.06,0.38 0.58,0.64 0.28,1.19 5.88,-40.40 C 136.43,75.98 138,63.87 138,63.28 c 0,0.70 0.24,-1.29 0.66,-1.68 0.60,0.54 -1.20,0.60 -6.31,0.60 -5.27,0 -5.69,0.04 -6.29,0.64 0.68,0.68 0.67,0.57 -5.71,38.35 0.88,6.57 -1.63,11.98 -1.68,12.03 0.05,0.05 -3.05,-4.94 -6.67,-10.84 -3.62,-5.90 -6.85,-11.06 -7.18,-11.48 C 103.07,89.00 102.61,89 101.66,89 h -5.63 c -6.73,0 -6.88,0.04 -7.50,0.66 0.35,0.39 -3.60,5.55 -7.23,11.46 -3.63,5.92 -6.63,10.92 -6.67,10.88 0.04,0.04 -1.58,-11.25 -3.42,-24.91 -2.92,-21.69 -3.42,-24.91 -3.97,-25.46 0.58,0.58 -1.05,0.63 -6.27,0.63 -5.11,0 -5.71,0.06 -6.31,0.60 0.44,0.40 0.66,0.98 0.66,1.73 0.00,0.62 1.98,15.83 4.39,33.79 3.55,26.40 4.50,32.77 4.94,33.26 0.51,0.56 1.04,0.61 7.12,0.61 h 5.28 c 0.68,0 1.31,0.02 1.93,0.86 z"/>
</svg>
