<?xml version='1.0' encoding='utf-8'?>
<svg xmlns="http://www.w3.org/2000/svg" width="192" height="192" version="1" id="svg18">
  <defs>
    <filter style="color-interpolation-filters:sRGB" id="filter859" x="0.05" width="1.10" y="0.05" height="1.10">
      <feGaussianBlur stdDeviation="3.20"/>
    </filter>
    <filter style="color-interpolation-filters:sRGB" id="filter917" x="0.05" width="1.10" y="0.05" height="1.10">
      <feGaussianBlur stdDeviation="2.24"/>
    </filter>
  </defs>
  <rect width="160" height="160" x="-180" y="-176" rx="8" ry="8" transform="matrix(0,-1,-1,0,0,0)" style="filter:url(#filter859);opacity:0.20;fill:#000000"/>
  <rect style="fill:#2a5083" transform="matrix(0,-1,-1,0,0,0)" ry="8" rx="8" y="-176" x="-176" height="160" width="160"/>
  <path style="opacity:0.10;fill:#ffffff" d="M 24 16 C 19.57 16 16 19.57 16 24 L 16 25 C 16 20.57 19.57 17 24 17 L 168 17 C 172.43 17 176 20.57 176 25 L 176 24 C 176 19.57 172.43 16 168 16 L 24 16 z "/>
  <path style="filter:url(#filter917);opacity:0.20" d="M 96.00 44 C 65.42 44.00 40 66.90 40 96.11 C 40 125.32 65.43 148.62 96 148.62 L 96.02 148.62 C 100.30 148.61 104.50 147.79 108.67 146.87 C 117.27 152.53 126.52 157.65 138.45 155.50 C 143.91 154.50 146.09 147.84 142.28 143.80 C 138.20 139.49 136.85 136.81 136.72 131.06 C 146.04 121.49 151.99 109.29 152.00 96.11 C 152.00 66.90 126.58 44.00 96 44 L 96.00 44 z M 96 60 L 96.00 60 L 96.00 60 C 118.58 60.00 136.00 76.18 136 96.10 C 135.99 104.49 132.21 112.77 125.27 119.91 A 16.00 16.00 0 0 0 120.73 131.41 C 120.77 132.87 121.56 134.44 121.85 135.98 C 120.39 135.12 119.25 134.68 117.48 133.51 A 16.00 16.00 0 0 0 105.22 131.25 C 101.32 132.11 98.27 132.62 96.00 132.62 C 73.56 132.62 56.00 116.03 56.00 96.11 C 56.00 76.19 73.42 60.00 96 60 z M 111.93 99.89 A 8.00 8.00 0 0 0 106.34 102.34 C 106.34 102.34 104.88 103.80 102.56 105.34 C 100.25 106.89 97.33 108 96 108 C 94.67 108 91.75 106.89 89.44 105.34 C 87.12 103.80 85.66 102.34 85.66 102.34 A 8.00 8.00 0 0 0 79.92 99.92 A 8.00 8.00 0 0 0 74.34 113.66 C 74.34 113.66 76.88 116.20 80.56 118.66 C 84.25 121.11 89.33 124 96 124 C 102.67 124 107.75 121.11 111.44 118.66 C 115.12 116.20 117.66 113.66 117.66 113.66 A 8.00 8.00 0 0 0 111.93 99.89 z "/>
  <path style="fill:#ffffff" d="m 96,40 c -30.57,0 -56,22.90 -56,52.11 0,29.21 25.43,52.52 56,52.52 h 0.02 c 4.29,0.01 8.49,0.83 12.66,-1.75 8.60,5.66 17.85,10.77 29.77,8.62 5.46,0.99 7.64,-7.65 3.84,-11.70 -4.08,-4.31 -5.43,-6.99 -5.56,-12.74 9.32,-9.57 15.26,-21.77 15.27,-34.96 0,-29.21 -25.42,-52.11 -56,-52.11 z m 0,16 c 22.58,0 40.00,16.18 40,36.10 0.01,8.38 -3.79,16.67 -10.73,23.80 a 16.00,16.00 0 0 0 -4.53,11.50 c 0.03,1.46 0.82,3.03 1.12,4.57 -1.46,0.86 -2.60,-1.30 -4.38,-2.47 a 16.00,16.00 0 0 0 -12.25,-2.26 c -3.90,0.86 -6.95,1.37 -9.22,1.38 -22.45,0 -40,-16.59 -40,-36.52 0,-19.92 17.42,-36.11 40,-36.11 z"/>
  <path style="fill:none;stroke:#ffffff;stroke-width:16;stroke-linecap:round;stroke-linejoin:round" d="m 80,104 c 0,0 8,8 16,8 8,0 16,-8 16,-8"/>
</svg>
