<?xml version='1.0' encoding='utf-8'?>
<svg xmlns="http://www.w3.org/2000/svg" width="192" height="192" version="1" id="svg16">
  <defs>
    <filter style="color-interpolation-filters:sRGB" id="filter857" x="0.05" width="1.10" y="0.04" height="1.09">
      <feGaussianBlur stdDeviation="2.96"/>
    </filter>
    <filter style="color-interpolation-filters:sRGB" id="filter873" x="0.07" width="1.13" y="0.04" height="1.08">
      <feGaussianBlur stdDeviation="1.76"/>
    </filter>
  </defs>
  <path style="filter:url(#filter857);opacity:0.20" d="M 72,20 C 47.62,20 28,39.62 28,64 v 64 8 c 0,24.38 19.62,44 44,44 h 8 40 c 24.38,0 44,-19.62 44,-44 v -8 C 164,104.98 146.48,86.22 124,84.20 V 64 C 124,39.62 104.38,20 80,20 Z"/>
  <rect style="fill:#4cd6c6" width="96" height="136" x="80" y="-164" rx="44" ry="44" transform="rotate(90)"/>
  <rect style="fill:#4cd6c6" width="96" height="160" x="28" y="16" rx="44" ry="44"/>
  <path style="filter:url(#filter873);opacity:0.20" d="m 76,34 c -17.67,0 -32,14.31 -32,31.97 0,17.66 14.33,15.99 32,15.99 17.67,0 32,1.67 32,-15.99 C 108,48.31 93.67,34 76,34 Z m 0,72 a 12,12 0 0 0 -12,12 12,12 0 0 0 4,8.93 V 138 a 8,8 0 0 0 8,8 8,8 0 0 0 8,-8 V 126.92 A 12,12 0 0 0 88,118 12,12 0 0 0 76,106 Z"/>
  <path style="fill:#ffffff" d="m 76,104 a 12,12 0 0 0 -12,12 12,12 0 0 0 4,8.93 V 136 a 8,8 0 0 0 8,8 8,8 0 0 0 8,-8 V 124.92 A 12,12 0 0 0 88,116 12,12 0 0 0 76,104 Z"/>
  <path style="fill:#ffffff" d="m 108,63.97 c 0,17.66 -14.33,15.99 -32,15.99 -17.67,0 -32,1.67 -32,-15.99 0,-17.66 14.33,-31.97 32,-31.97 17.67,0 32,14.31 32,31.97 z"/>
  <path style="opacity:0.20;fill:#ffffff" d="M 72 16 C 47.62 16 28 35.62 28 60 L 28 61 C 28 36.62 47.62 17 72 17 L 80 17 C 104.38 17 124 36.62 124 61 L 124 60 C 124 35.62 104.38 16 80 16 L 72 16 z M 124 80.20 L 124 81.20 C 146.48 83.22 164 101.98 164 125 L 164 124 C 164 100.98 146.48 82.22 124 80.20 z "/>
</svg>
