<?xml version='1.0' encoding='utf-8'?>
<svg xmlns="http://www.w3.org/2000/svg" width="192" height="192" version="1" id="svg14">
  <defs>
    <filter style="color-interpolation-filters:sRGB" id="filter850" x="0.05" width="1.10" y="0.05" height="1.10">
      <feGaussianBlur stdDeviation="3.20"/>
    </filter>
    <filter style="color-interpolation-filters:sRGB" id="filter1444" x="0.09" y="0.13" width="1.19" height="1.25">
      <feGaussianBlur stdDeviation="3.35"/>
    </filter>
  </defs>
  <circle style="filter:url(#filter850);opacity:0.20;fill:#000000" cx="96" cy="100" r="80"/>
  <circle r="80" cy="96" cx="96" style="fill:#6c5ce7"/>
  <path style="fill:#38adfa" d="m 688.81,257.00 c 0.33,0.33 -1.19,0.37 -1.92,0.08 0.80,0.32 0.56,0.56 0.60,0.60 1.05,0.04 1.64,0.19 1.31,0.53 z"/>
  <path style="opacity:0.10;fill:#ffffff" d="M 96 16 A 80 80 0 0 0 16 96 A 80 80 0 0 0 16.02 96.47 A 80 80 0 0 1 96 17 A 80 80 0 0 1 175.97 96.51 A 80 80 0 0 0 176 96 A 80 80 0 0 0 96 16 z "/>
  <path d="m 53,66 h 53.07 C 127.40,66.30 138,76.96 138,98 136.52,119.33 124.73,130 102.51,130 85.18,128.22 74.15,117.08 69.44,97 h 16.00 c 2.34,11.19 9.21,17 20.62,17 C 116.73,113.41 122,107.84 122,97.29 122,87.43 116.73,82.33 106.07,82 H 69 V 95.87 L 53,82 Z" fill="#ffffff" style="filter:url(#filter1444);opacity:0.20;fill:#000000;isolation:isolate"/>
  <path d="m 53,64 h 53.07 C 127.40,64.30 138,74.96 138,96 136.52,117.33 124.73,128 102.51,128 85.18,126.22 74.15,115.08 69.44,95 h 16.00 c 2.34,11.19 9.21,17 20.62,17 C 116.73,111.41 122,105.84 122,95.29 122,85.43 116.73,80.33 106.07,80 H 69 V 93.87 L 53,80 Z" fill="#ffffff" style="isolation:isolate"/>
</svg>
