<svg xmlns="http://www.w3.org/2000/svg" id="svg12" width="192" height="192" version="1"><defs><filter style="color-interpolation-filters:sRGB" id="filter1538" width="1.1" height="1.09" x=".05" y=".04"><feGaussianBlur stdDeviation="2.89"/></filter><filter style="color-interpolation-filters:sRGB" id="filter1621" width="1.17" height="1.13" x=".09" y=".06"><feGaussianBlur stdDeviation="3.18"/></filter></defs><path style="filter:url(#filter1538);opacity:.2;fill:#000" d="m 70,20 c -2.22,0 -4,1.78 -4,4 v 4 c 0,2.22 1.78,4 4,4 h 2 V 88.24 L 52.17,116.82 31.60,146.47 A 26.86,22.35 0 0 0 54.86,180 H 96 137.14 A 26.86,22.35 0 0 0 160.40,146.47 L 139.83,116.82 120,88.23 V 32 h 2 c 2.22,0 4,-1.78 4,-4 v -4 c 0,-2.22 -1.78,-4 -4,-4 h -2 -48 z"/><rect style="fill:#e4e4e4" width="48" height="80" x="72" y="16"/><path style="fill:#e4e4e4" d="M 97.26,72.02 A 26.86,22.35 0 0 0 72.74,83.17 L 52.17,112.82 31.60,142.47 A 26.86,22.35 0 0 0 54.86,176 h 41.14 41.14 a 26.86,22.35 0 0 0 23.26,-33.53 L 139.83,112.82 119.26,83.17 A 26.86,22.35 0 0 0 97.26,72.02 Z"/><path style="filter:url(#filter1621);opacity:.2;fill:#000" d="m 96,42 a 8,8 0 0 0 -8,8 8,8 0 0 0 8,8 8,8 0 0 0 8,-8 8,8 0 0 0 -8,-8 z m -8,24 a 8,8 0 0 0 -8,8 8,8 0 0 0 8,8 8,8 0 0 0 8,-8 8,8 0 0 0 -8,-8 z m 16,16 a 8,8 0 0 0 -8,8 8,8 0 0 0 8,8 8,8 0 0 0 8,-8 8,8 0 0 0 -8,-8 z m -16,24 a 8,8 0 0 0 -8,8 8,8 0 0 0 8,8 8,8 0 0 0 8,-8 8,8 0 0 0 -8,-8 z m -25.38,24 -8.30,11.37 A 17.38,13.76 0 0 0 69.38,162 H 96 122.62 a 17.38,13.76 0 0 0 15.05,-20.63 L 129.38,130 Z"/><path style="fill:#d945bc" d="m 96,40 a 8,8 0 0 0 -8,8 8,8 0 0 0 8,8 8,8 0 0 0 8,-8 8,8 0 0 0 -8,-8 z m -8,24 a 8,8 0 0 0 -8,8 8,8 0 0 0 8,8 8,8 0 0 0 8,-8 8,8 0 0 0 -8,-8 z m 16,16 a 8,8 0 0 0 -8,8 8,8 0 0 0 8,8 8,8 0 0 0 8,-8 8,8 0 0 0 -8,-8 z m -16,24 a 8,8 0 0 0 -8,8 8,8 0 0 0 8,8 8,8 0 0 0 8,-8 8,8 0 0 0 -8,-8 z m -25.38,24 -8.30,11.37 A 17.38,13.76 0 0 0 69.38,160 H 96 122.62 a 17.38,13.76 0 0 0 15.05,-20.63 L 129.38,128 Z"/><rect style="fill:#e4e4e4" width="60" height="12" x="66" y="16" rx="4"/><path style="opacity:.2;fill:#fff" d="M 70 16 C 67.78 16 66 17.78 66 20 L 66 21 C 66 18.78 67.78 17 70 17 L 122 17 C 124.22 17 126 18.78 126 21 L 126 20 C 126 17.78 124.22 16 122 16 L 70 16 z"/></svg>