<?xml version='1.0' encoding='utf-8'?>
<svg xmlns="http://www.w3.org/2000/svg" width="192" height="192" version="1" id="svg16">
  <defs>
    <filter style="color-interpolation-filters:sRGB" id="filter867" x="0.05" width="1.10" y="0.05" height="1.10">
      <feGaussianBlur stdDeviation="3.20"/>
    </filter>
    <filter style="color-interpolation-filters:sRGB" id="filter3681" x="0.05" y="0.04" width="1.11" height="1.09">
      <feGaussianBlur stdDeviation="1.91"/>
    </filter>
  </defs>
  <rect ry="80" rx="80" height="160" width="160" y="-176" x="-180" transform="matrix(0,-1,-1,0,0,0)" style="filter:url(#filter867);opacity:0.20;fill:#000000"/>
  <rect style="fill:#0a405c" transform="matrix(0,-1,-1,0,0,0)" x="-176" y="-176" width="160" height="160" rx="80" ry="80"/>
  <path style="opacity:0.10;fill:#ffffff" d="M 96 16 C 51.68 16 16 51.68 16 96 C 16 96.34 16.00 96.67 16 97 C 16 52.68 51.68 17 96 17 C 140.32 17 176 52.68 176 97 C 176.00 96.67 176 96.34 176 96 C 176 51.68 140.32 16 96 16 z "/>
  <path style="filter:url(#filter3681);opacity:0.20;fill:#000000" d="m 94.19,36.00 c -1.67,0.00 -3.04,0.11 -3.60,0.32 -2.06,0.78 -3.54,2.92 -3.59,5.22 0.07,3.04 2.46,5.62 5.50,5.62 0.86,0.00 3.10,0.15 4.97,0.32 22.43,2.12 41.20,18.11 46.69,39.75 0.96,3.77 1.67,8.91 1.68,12.04 0.01,3.48 1.38,5.72 4.01,6.56 1.07,0.34 3.24,0.10 4.38,0.49 2.58,-1.65 2.70,-4.34 2.76,-6.04 0.26,-8.12 -2.37,-19.12 -6.55,-27.47 C 140.53,52.10 121.75,38.99 99.52,36.31 97.81,36.10 95.85,36.00 94.19,36.00 Z m 0.08,22 c -3.43,0 -5.23,1.03 -6.59,2.95 0.90,1.61 0.92,3.43 0.00,5.22 1.14,2.22 2.08,2.66 6.76,3.14 4.98,0.51 7.91,1.28 11.62,3.05 7.57,3.60 13.28,10.11 16.09,18.34 0.76,2.21 1.59,7.21 1.59,9.54 0.01,4.63 4.96,7.33 8.80,4.79 0.67,0.45 1.44,-1.36 1.86,-2.23 0.66,-1.36 0.69,-1.74 0.51,-5.12 C 133.73,76.13 115.36,58.20 94.27,58.00 Z M 92.38,81.00 c -2.53,0.03 -3.63,0.20 -5.78,0.92 C 80.19,84.06 75.39,89.19 73.55,95.85 73.06,97.61 73,99.46 73,111.90 c 0,15.60 0.02,15.76 2.04,20.00 2.44,5.13 7.54,9.27 13.04,10.61 2.67,0.65 6.75,0.60 9.54,0.12 2.80,0.72 4.87,-1.71 6.97,-3.37 0.85,0.67 1.72,-1.32 1.93,-1.44 0.23,0.14 1.04,0.29 2.02,1.06 4.59,3.63 12.11,5.40 15.37,3.74 2.63,-1.34 3.64,-4.22 2.83,-6.73 -1.17,-3.06 -3.82,-3.82 -5.60,-4.06 0.86,0.11 -2.48,0.41 -3.08,0.66 -1.40,0.58 -3.30,-2.41 -4.17,-4.02 0.66,-1.22 0.70,-1.65 0.87,-15.63 0.15,-12.65 0.23,-14.58 0.72,-16.10 -1.74,-5.36 -5.58,-9.92 -10.21,-12.12 -3.49,-1.66 -5.94,-2.10 -9.70,-2.05 z m 0.47,11.00 c 1.56,0.00 3.17,0.44 4.38,1.26 1.66,1.14 3.19,3.33 3.54,5.08 0.13,0.63 0.23,6.95 0.23,14.05 0,12.79 0.01,12.91 0.69,14.49 0.38,0.88 -1.05,2.00 -1.50,2.50 -1.91,2.15 -5.54,3.18 -8.08,2.30 -1.62,0.56 -3.33,-1.81 -4.20,-3.06 C 85.04,126.48 85.00,125.97 85,111.80 c 0.00,-13.22 0.01,-13.26 0.70,-14.85 0.85,-1.94 2.62,-3.70 4.48,-4.46 0.81,0.33 1.73,0.49 2.66,0.49 z"/>
  <path style="fill:#ffffff" d="m 94.19,34.00 c -1.67,0.00 -3.04,0.11 -3.60,0.32 -2.06,0.78 -3.54,2.92 -3.59,5.22 0.07,3.04 2.46,5.62 5.50,5.62 0.86,0.00 3.10,0.15 4.97,0.32 22.43,2.12 41.20,18.11 46.69,39.75 0.96,3.77 1.67,8.91 1.68,12.04 0.01,3.48 1.38,5.72 4.01,6.56 1.07,0.34 3.24,0.10 4.38,0.49 2.58,-1.65 2.70,-4.34 2.76,-6.04 0.26,-8.12 -2.37,-19.12 -6.55,-27.47 C 140.53,50.10 121.75,36.99 99.52,34.31 97.81,34.10 95.85,34.00 94.19,34.00 Z m 0.08,22 c -3.43,0 -5.23,1.03 -6.59,2.95 0.90,1.61 0.92,3.43 0.00,5.22 1.14,2.22 2.08,2.66 6.76,3.14 4.98,0.51 7.91,1.28 11.62,3.05 7.57,3.60 13.28,10.11 16.09,18.34 0.76,2.21 1.59,7.21 1.59,9.54 0.01,4.63 4.96,7.33 8.80,4.79 0.67,0.45 1.44,-1.36 1.86,-2.23 0.66,-1.36 0.69,-1.74 0.51,-5.12 -1.18,-21.55 -19.54,-39.47 -40.63,-39.68 z m -1.89,23.00 c -2.53,0.03 -3.63,0.20 -5.78,0.92 C 80.19,82.06 75.39,87.19 73.55,93.85 73.06,95.61 73,97.46 73,109.90 c 0,15.60 0.02,15.76 2.04,20.00 2.44,5.13 7.54,9.27 13.04,10.61 2.67,0.65 6.75,0.60 9.54,0.12 2.80,0.72 4.87,-1.71 6.97,-3.37 0.85,0.67 1.72,-1.32 1.93,-1.44 0.23,0.14 1.04,0.29 2.02,1.06 4.59,3.63 12.11,5.40 15.37,3.74 2.63,-1.34 3.64,-4.22 2.83,-6.73 -1.17,-3.06 -3.82,-3.82 -5.60,-4.06 0.86,0.11 -2.48,0.41 -3.08,0.66 -1.40,0.58 -3.30,-2.41 -4.17,-4.02 C 113.21,123.68 113.17,123.25 113,109.27 112.85,96.62 112.77,94.69 112.28,93.18 110.54,87.82 106.70,83.26 102.07,81.06 98.58,79.40 96.13,78.96 92.38,79.00 Z m 0.47,11.00 c 1.56,0.00 3.17,0.44 4.38,1.26 1.66,1.14 3.19,3.33 3.54,5.08 0.13,0.63 0.23,6.95 0.23,14.05 0,12.79 0.01,12.91 0.69,14.49 0.38,0.88 -1.05,2.00 -1.50,2.50 -1.91,2.15 -5.54,3.18 -8.08,2.30 -1.62,0.56 -3.33,-1.81 -4.20,-3.06 C 85.04,124.48 85.00,123.97 85,109.80 c 0.00,-13.22 0.01,-13.26 0.70,-14.85 0.85,-1.94 2.62,-3.70 4.48,-4.46 0.81,0.33 1.73,0.49 2.66,0.49 z"/>
</svg>
