<svg xmlns="http://www.w3.org/2000/svg" id="svg16" width="192" height="192" version="1"><defs><filter style="color-interpolation-filters:sRGB" id="filter971" width="1.1" height="1.1" x=".05" y=".05"><feGaussianBlur stdDeviation="3.2"/></filter><filter style="color-interpolation-filters:sRGB" id="filter976" width="1.09" height="1.1" x=".05" y=".05"><feGaussianBlur stdDeviation="2.4"/></filter></defs><rect style="filter:url(#filter971);opacity:.2;fill:#000" width="160" height="160" x="16" y="20" rx="8" ry="8"/><rect style="fill:#0081cc" width="160" height="160" x="16" y="16" rx="8" ry="8"/><path style="opacity:.2;fill:#fff" d="M 24 16 C 19.57 16 16 19.57 16 24 L 16 25 C 16 20.57 19.57 17 24 17 L 168 17 C 172.43 17 176 20.57 176 25 L 176 24 C 176 19.57 172.43 16 168 16 L 24 16 z"/><path style="filter:url(#filter976);opacity:.2" d="m 44,34.00 c -6.65,0 -12,5.35 -12,12 V 134 c 0,6.65 5.35,12 12,12 h 32 c 6.65,0 12,-5.35 12,-12 V 46.00 c 0,-6.65 -5.35,-12 -12,-12 z m 72,0 c -6.65,0 -12,5.35 -12,12 v 40 c 0,6.65 5.35,12 12,12 h 32 c 6.65,0 12,-5.35 12,-12 v -40 c 0,-6.65 -5.35,-12 -12,-12 z"/><rect style="fill:#fff" width="56" height="112" x="32" y="32" rx="12" ry="12"/><rect style="fill:#fff" width="56" height="64" x="104" y="32" rx="12" ry="12"/></svg>