<?xml version='1.0' encoding='utf-8'?>
<svg xmlns="http://www.w3.org/2000/svg" width="192" height="192" version="1" id="svg14">
  <defs>
    <filter style="color-interpolation-filters:sRGB" id="filter850" x="0.05" width="1.10" y="0.05" height="1.10">
      <feGaussianBlur stdDeviation="3.20"/>
    </filter>
    <filter style="color-interpolation-filters:sRGB" id="filter2895" x="0.11" y="0.11" width="1.22" height="1.22">
      <feGaussianBlur stdDeviation="3.33"/>
    </filter>
    <filter style="color-interpolation-filters:sRGB" id="filter2937" x="0.08" y="0.07" width="1.15" height="1.15">
      <feGaussianBlur stdDeviation="3.91"/>
    </filter>
  </defs>
  <circle style="filter:url(#filter850);opacity:0.20;fill:#000000" cx="96" cy="100" r="80"/>
  <circle r="80" cy="96" cx="96" style="fill:#007dba"/>
  <path style="filter:url(#filter2937);opacity:0.20;fill:#000000" d="M 91.09,35.01 C 57.39,37.22 31.42,65.95 33.08,100.20 v 0.55 c 1.11,34.25 29.84,61.32 64.10,60.22 24.31,0.55 45.31,-15.47 54.70,-37.57 -6.63,1.10 -13.81,2.21 -20.44,2.76 -5.53,9.39 -13.26,17.13 -22.66,22.10 7.18,-5.52 13.26,-13.26 17.68,-21.55 -7.18,0 -14.92,0.55 -22.10,-2.21 -6.08,8.29 -13.81,14.92 -22.66,19.34 7.18,-5.52 13.26,-12.71 18.23,-20.44 -10.50,-2.76 -19.89,-8.29 -28.18,-15.47 8.84,6.08 19.34,9.95 29.84,12.71 3.87,-7.73 6.08,-16.02 7.18,-24.31 -12.16,-2.76 -23.21,-8.29 -32.05,-16.57 10.50,6.63 21.00,10.50 32.60,13.26 1.11,-10.50 0.55,-21.55 -1.11,-32.04 4.42,10.50 6.08,22.10 6.08,33.15 6.63,1.10 13.26,1.66 20.45,1.11 0.55,-9.94 0.00,-20.44 -2.21,-30.39 4.42,9.94 6.63,19.89 7.18,30.39 5.53,-1.10 11.60,-2.21 17.13,-3.87 -3.32,-32.59 -32.05,-56.90 -65.75,-56.35 z m 66.31,61.32 c -6.08,1.10 -11.60,2.21 -17.68,2.76 0,8.29 -2.21,16.57 -5.53,23.76 7.18,0.55 13.81,-2.21 20.45,-4.42 2.21,-7.18 2.76,-14.36 2.76,-21.55 z m -43.10,1.11 c 0.55,8.29 -3.32,17.13 -7.74,24.31 7.18,1.66 14.37,2.21 22.10,1.66 3.32,-7.73 5.53,-16.02 6.08,-24.86 -6.63,0.55 -13.81,0.00 -20.45,-1.10 z"/>
  <path style="fill:#e4fbff" d="M 91.09,33.01 C 57.39,35.22 31.42,63.95 33.08,98.20 v 0.55 c 1.11,34.25 29.84,61.32 64.10,60.22 24.31,0.55 45.31,-15.47 54.70,-37.57 -6.63,1.10 -13.81,2.21 -20.44,2.76 -5.53,9.39 -13.26,17.13 -22.66,22.10 7.18,-5.52 13.26,-13.26 17.68,-21.55 -7.18,0 -14.92,0.55 -22.10,-2.21 -6.08,8.29 -13.81,14.92 -22.66,19.34 7.18,-5.52 13.26,-12.71 18.23,-20.44 -10.50,-2.76 -19.89,-8.29 -28.18,-15.47 8.84,6.08 19.34,9.95 29.84,12.71 3.87,-7.73 6.08,-16.02 7.18,-24.31 -12.16,-2.76 -23.21,-8.29 -32.05,-16.57 10.50,6.63 21.00,10.50 32.60,13.26 1.11,-10.50 0.55,-21.55 -1.11,-32.04 4.42,10.50 6.08,22.10 6.08,33.15 6.63,1.10 13.26,1.66 20.45,1.11 0.55,-9.94 0.00,-20.44 -2.21,-30.39 4.42,9.94 6.63,19.89 7.18,30.39 5.53,-1.10 11.60,-2.21 17.13,-3.87 -3.32,-32.59 -32.05,-56.90 -65.75,-56.35 z m 66.31,61.32 c -6.08,1.10 -11.60,2.21 -17.68,2.76 0,8.29 -2.21,16.57 -5.53,23.76 7.18,0.55 13.81,-2.21 20.45,-4.42 2.21,-7.18 2.76,-14.36 2.76,-21.55 z m -43.10,1.11 c 0.55,8.29 -3.32,17.13 -7.74,24.31 7.18,1.66 14.37,2.21 22.10,1.66 3.32,-7.73 5.53,-16.02 6.08,-24.86 -6.63,0.55 -13.81,0.00 -20.45,-1.10 z"/>
  <path style="opacity:0.20;fill:#ffffff" d="M 96 16 A 80 80 0 0 0 16 96 A 80 80 0 0 0 16.02 96.47 A 80 80 0 0 1 96 17 A 80 80 0 0 1 175.97 96.51 A 80 80 0 0 0 176 96 A 80 80 0 0 0 96 16 z "/>
  <path style="filter:url(#filter2895);opacity:0.20;fill:#000000" d="m 24,61 c -4.43,0 -8,3.57 -8,8 v 29 29 c 0,4.43 3.57,8 8,8 H 53 A 37,37 0 0 0 90,98 37,37 0 0 0 53,61 Z"/>
  <path style="fill:#ffffff" d="M 24 59 C 19.57 59 16 62.57 16 67 L 16 96 L 16 125 C 16 129.43 19.57 133 24 133 L 53 133 A 37 37 0 0 0 90 96 A 37 37 0 0 0 53 59 L 24 59 z "/>
  <circle style="fill:#ffbe00" cx="53" cy="96" r="17"/>
  <path style="fill:#ffbe00;color:#000000" d="m 53,67 a 3,3 0 0 0 -3,3 v 52 a 3,3 0 0 0 3,3 3,3 0 0 0 3,-3 V 70 a 3,3 0 0 0 -3,-3 z"/>
  <path style="fill:#ffbe00;color:#000000" d="M 82,96 A 3,3 0 0 0 79,93 H 27 a 3,3 0 0 0 -3,3 3,3 0 0 0 3,3 h 52 a 3,3 0 0 0 3,-3 z"/>
  <path style="fill:#ffbe00;color:#000000" d="M 78.11,110.50 A 3,3 0 0 0 77.02,106.40 L 31.98,80.40 A 3,3 0 0 0 27.89,81.50 3,3 0 0 0 28.98,85.60 L 74.02,111.60 A 3,3 0 0 0 78.11,110.50 Z"/>
  <path style="fill:#ffbe00;color:#000000" d="m 27.89,110.50 a -3,3 0 0 1 1.10,-4.10 L 74.02,80.40 A -3,3 0 0 1 78.11,81.50 -3,3 0 0 1 77.02,85.60 L 31.98,111.60 A -3,3 0 0 1 27.89,110.50 Z"/>
  <path style="fill:#ffbe00;color:#000000" d="m 38.50,121.11 a 3,3 0 0 1 -1.10,-4.10 L 63.40,71.98 a 3,3 0 0 1 4.10,-1.10 3,3 0 0 1 1.10,4.10 L 42.60,120.02 a 3,3 0 0 1 -4.10,1.10 z"/>
  <path style="fill:#ffbe00;color:#000000" d="m 67.50,121.11 a -3,3 0 0 0 1.10,-4.10 L 42.60,71.98 a -3,3 0 0 0 -4.10,-1.10 -3,3 0 0 0 -1.10,4.10 l 26.00,45.03 a -3,3 0 0 0 4.10,1.10 z"/>
</svg>
