<?xml version='1.0' encoding='utf-8'?>
<svg xmlns="http://www.w3.org/2000/svg" width="192" height="192" version="1" id="svg28">
  <defs>
    <filter style="color-interpolation-filters:sRGB" id="filter901" x="0.05" width="1.10" y="0.05" height="1.10">
      <feGaussianBlur stdDeviation="3.20"/>
    </filter>
    <filter style="color-interpolation-filters:sRGB" id="filter2629" x="0.04" y="0.05" width="1.09" height="1.11">
      <feGaussianBlur stdDeviation="1.74"/>
    </filter>
    <filter style="color-interpolation-filters:sRGB" id="filter2633" x="0.04" y="0.05" width="1.09" height="1.11">
      <feGaussianBlur stdDeviation="1.74"/>
    </filter>
  </defs>
  <rect style="filter:url(#filter901);opacity:0.20;fill:#000000" width="160" height="160" x="-180" y="-176" rx="12" ry="12" transform="matrix(0,-1,-1,0,0,0)"/>
  <rect transform="matrix(0,-1,-1,0,0,0)" ry="12" rx="12" y="-176" x="-176" height="160" width="160" style="fill:#ef523b"/>
  <path style="opacity:0.20;fill:#ffffff" d="m 28,16 c -6.65,0 -12,5.35 -12,12 v 1 c 0,-6.65 5.35,-12 12,-12 h 136 c 6.65,0 12,5.35 12,12 v -1 c 0,-6.65 -5.35,-12 -12,-12 z"/>
  <path style="filter:url(#filter2629);opacity:0.20;fill:#000000;stop-color:#000000" d="M 78,59.10 48,73 v 64 l 30,-13.90 z m 66,0 L 114,73 v 64 l 30,-13.90 z"/>
  <path style="fill:#ffffff;stop-color:#000000" d="M 78,57.10 48,71 v 64 l 30,-13.90 z m 66,0 L 114,71 v 64 l 30,-13.90 z"/>
  <path style="filter:url(#filter2633);opacity:0.20;fill:#000000;stop-color:#000000" d="m 78,59.10 66,64 L 114,137 48,73 Z"/>
  <path style="fill:#ffffff;stop-color:#000000" d="m 78,57.10 66,64 L 114,135 48,71 Z"/>
</svg>
