<?xml version='1.0' encoding='utf-8'?>
<svg xmlns="http://www.w3.org/2000/svg" width="192" height="192" version="1.1" id="svg14">
  <defs>
    <filter style="color-interpolation-filters:sRGB" id="filter849" x="-0.048000001" y="-0.048000001" width="1.096" height="1.096">
      <feGaussianBlur stdDeviation="3.2"/>
    </filter>
    <filter style="color-interpolation-filters:sRGB" id="filter853" x="-0.050399998" y="-0.045818179" width="1.1008" height="1.0916364">
      <feGaussianBlur stdDeviation="1.68"/>
    </filter>
  </defs>
  <circle style="filter:url(#filter849);opacity:0.2" cx="96" cy="100" r="80"/>
  <circle style="fill:#6492fd" cx="96" cy="96" r="80"/>
  <path style="filter:url(#filter853);opacity:0.2" d="m 67.953124,53.999999 c -6.576076,0 -11.953124,4.756248 -11.953124,12 0,7.243752 5.377048,12 11.953124,12 h 42.460936 c 0.62952,0 1.02575,0.683068 0.71875,1.289064 L 100.1875,100.9375 c -0.39988,0.63136 0.32072,1.38323 0.875,0.91406 L 130.90625,75.531247 C 133.98051,73.140451 136,71.839191 136,65.999999 c 0,-5.839192 -5.37702,-12.00314 -11.95312,-12 z m 23.406252,40 c -0.13924,-0.0148 -0.28332,0.0312 -0.421876,0.14844 L 61.093752,120.46876 C 58.019488,122.85955 56,124.16081 56,130 c 0,5.83919 5.37702,12.00314 11.953124,12 H 124.04688 C 130.62295,142 136,137.24375 136,130 c 0,-7.24375 -5.37705,-12 -11.95312,-12 H 81.585936 c -0.629512,0 -1.025748,-0.68307 -0.718748,-1.28906 L 91.8125,95.062499 c 0.299904,-0.473524 -0.03537,-1.01804 -0.453124,-1.0625 z"/>
  <path style="fill:#ffffff" d="m 136,64 c 0,5.839192 -2.01718,7.142768 -5.09144,9.533568 l -29.84384,26.32036 c -0.55429,0.469172 -1.27484,-0.28744 -0.87497,-0.918804 l 10.94696,-21.6443 C 111.44371,76.684828 111.04567,76 110.41616,76 H 67.956536 C 61.38046,76 56,71.243752 56,64 56,56.756248 61.38046,52 67.956536,52 H 124.04346 C 130.61957,51.99686 136,58.160808 136,64 Z"/>
  <path style="opacity:0.2;fill:#ffffff" d="M 96 16 A 80 80 0 0 0 16 96 A 80 80 0 0 0 16.023438 96.638672 A 80 80 0 0 1 96 17 A 80 80 0 0 1 175.98438 96.302734 A 80 80 0 0 0 176 96 A 80 80 0 0 0 96 16 z "/>
  <path style="fill:#ffffff" d="m 56,128 c 0,-5.83919 2.017176,-7.14277 5.09144,-9.53357 L 90.93528,92.146072 c 0.554292,-0.469168 1.27484,0.28744 0.874968,0.918804 L 80.863288,114.70918 C 80.556288,115.31517 80.954328,116 81.58384,116 h 42.45962 C 130.61954,116 136,120.75625 136,128 c 0,7.24375 -5.38046,12 -11.95654,12 H 67.956536 C 61.380432,140.00314 56,133.83919 56,128 Z"/>
</svg>
