<?xml version='1.0' encoding='utf-8'?>
<svg xmlns="http://www.w3.org/2000/svg" width="192" height="192" version="1" id="svg22">
  <defs>
    <filter style="color-interpolation-filters:sRGB" id="filter869" x="0.05" width="1.10" y="0.05" height="1.10">
      <feGaussianBlur stdDeviation="2.72"/>
    </filter>
    <filter style="color-interpolation-filters:sRGB" id="filter885" x="0.14" width="1.27" y="0.03" height="1.06">
      <feGaussianBlur stdDeviation="1.36"/>
    </filter>
    <filter style="color-interpolation-filters:sRGB" id="filter911" x="0.05" width="1.11" y="0.04" height="1.09">
      <feGaussianBlur stdDeviation="1.60"/>
    </filter>
  </defs>
  <path style="filter:url(#filter885);opacity:0.20" d="M 152,64 176,44 V 156 L 152,136 Z"/>
  <path style="fill:#1f56a8" d="M 152,60 176,40 V 152 L 152,132 Z"/>
  <rect style="filter:url(#filter869);opacity:0.20" width="136" height="136" x="16" y="32" rx="16" ry="16"/>
  <rect style="fill:#1c6bdd" width="136" height="136" x="16" y="28" rx="16" ry="16"/>
  <path style="filter:url(#filter911);opacity:0.20" d="m 48,54 v 36 16 36 h 48 c 13.25,0 24,-12.75 24,-26 0,-6.64 -2.70,-13.15 -7.06,-18 C 117.30,93.15 120,86.64 120,80 120,66.75 109.25,54 96,54 Z m 16,16 h 32 c 4.61,0 8,5.39 8,10 0,4.61 -3.39,10 -8,10 H 64 Z m 0,36 h 32 c 4.61,0 8,5.39 8,10 0,4.61 -3.39,10 -8,10 H 64 Z"/>
  <path style="fill:#ffffff" d="m 48,52 v 52 h 48 c 13.25,0 24,-12.75 24,-26 0,-13.25 -10.75,-26 -24,-26 z m 16,16 h 32 c 4.61,0 8,5.39 8,10 0,4.61 -3.39,10 -8,10 H 64 Z"/>
  <rect style="fill:none" width="128" height="128" x="32" y="31.96"/>
  <path style="fill:#ffffff" d="m 48,88 v 52 h 48 c 13.25,0 24,-12.75 24,-26 0,-13.25 -10.75,-26 -24,-26 z m 16,16 h 32 c 4.61,0 8,5.39 8,10 0,4.61 -3.39,10 -8,10 H 64 Z"/>
  <path style="opacity:0.10;fill:#ffffff" d="m 32,28 c -8.86,0 -16,7.14 -16,16 v 1 c 0,-8.86 7.14,-16 16,-16 h 104 c 8.86,0 16,7.14 16,16 v -1 c 0,-8.86 -7.14,-16 -16,-16 z"/>
  <path style="opacity:0.10;fill:#ffffff" d="m 176,40 -24,20 v 1 l 24,-20 z"/>
</svg>
