<?xml version='1.0' encoding='utf-8'?>
<svg xmlns="http://www.w3.org/2000/svg" width="192" height="192" version="1" id="svg26">
  <defs>
    <filter style="color-interpolation-filters:sRGB" id="filter868" x="-0.048000001" width="1.096" y="-0.048000001" height="1.096">
      <feGaussianBlur stdDeviation="3.2"/>
    </filter>
    <filter style="color-interpolation-filters:sRGB" id="filter884" x="-0.031058823" width="1.0621176" y="-0.1056" height="1.2112">
      <feGaussianBlur stdDeviation="0.44"/>
    </filter>
  </defs>
  <rect style="filter:url(#filter868);opacity:0.2;fill:#000000" width="160" height="160" x="-180" y="-176" rx="8" ry="8" transform="matrix(0,-1,-1,0,0,0)"/>
  <rect transform="matrix(0,-1,-1,0,0,0)" ry="8" rx="8" y="-176" x="-176" height="160" width="160" style="fill:#4f4f4f"/>
  <g style="filter:url(#filter884);opacity:0.2" transform="matrix(4,0,0,4,0,4)">
    <path d="M 19,19 V 29 H 29 V 19 Z m 1,1 h 7 v 3 h 1 v 5 h -8 v -6 z m 2,2 v 1 h 3 v -1 z m 0,3 v 1 h 4 v -1 z"/>
    <path d="M 7,19 V 29 H 17 V 19 Z m 1,1 h 7 v 3 h 1 v 5 H 8 v -6 z m 2,2 v 1 h 3 v -1 z m 0,3 v 1 h 4 v -1 z"/>
    <path d="M 31,19 V 29 H 41 V 19 Z m 1,1 h 8 v 2 h -6 v 4 h 6 v 2 h -8 z"/>
  </g>
  <path style="opacity:0.1;fill:#ffffff" d="M 24 16 C 19.568 16 16 19.568 16 24 L 16 25 C 16 20.568 19.568 17 24 17 L 168 17 C 172.432 17 176 20.568 176 25 L 176 24 C 176 19.568 172.432 16 168 16 L 24 16 z "/>
  <g style="fill:#ffffff" transform="scale(4)">
    <path d="M 19,19 V 29 H 29 V 19 Z m 1,1 h 7 v 3 h 1 v 5 h -8 v -6 z m 2,2 v 1 h 3 v -1 z m 0,3 v 1 h 4 v -1 z"/>
    <path d="M 7,19 V 29 H 17 V 19 Z m 1,1 h 7 v 3 h 1 v 5 H 8 v -6 z m 2,2 v 1 h 3 v -1 z m 0,3 v 1 h 4 v -1 z"/>
    <path d="M 31,19 V 29 H 41 V 19 Z m 1,1 h 8 v 2 h -6 v 4 h 6 v 2 h -8 z"/>
  </g>
</svg>
