<?xml version='1.0' encoding='utf-8'?>
<svg xmlns="http://www.w3.org/2000/svg" width="192" height="192" version="1" id="svg16">
  <defs>
    <filter style="color-interpolation-filters:sRGB" id="filter867" x="-0.048000001" width="1.096" y="-0.048000001" height="1.096">
      <feGaussianBlur stdDeviation="3.2"/>
    </filter>
    <filter style="color-interpolation-filters:sRGB" id="filter2285" x="-0.075" y="-0.075" width="1.15" height="1.15">
      <feGaussianBlur stdDeviation="3.625"/>
    </filter>
  </defs>
  <rect ry="80" rx="80" height="160" width="160" y="-176" x="-180" transform="matrix(0,-1,-1,0,0,0)" style="filter:url(#filter867);opacity:0.2;fill:#000000"/>
  <rect style="fill:#3f3f3f" transform="matrix(0,-1,-1,0,0,0)" x="-176" y="-176" width="160" height="160" rx="80" ry="80"/>
  <path style="opacity:0.1;fill:#ffffff" d="M 96 16 C 51.68 16 16 51.68 16 96 C 16 96.336 16.002 96.6675 16 97 C 16 52.68 51.68 17 96 17 C 140.32 17 176 52.68 176 97 C 175.998 96.6675 176 96.336 176 96 C 176 51.68 140.32 16 96 16 z "/>
  <path style="filter:url(#filter2285);opacity:0.2;fill:#000000" d="M 96,41 A 58,58 0 0 0 38,99 58,58 0 0 0 96,157 58,58 0 0 0 154,99 58,58 0 0 0 96,41 Z m 0,4 A 54,54 0 0 1 150,99 54,54 0 0 1 96,153 54,54 0 0 1 42,99 54,54 0 0 1 96,45 Z m 0,4 A 50,50 0 0 0 46,99 50,50 0 0 0 96,149 50,50 0 0 0 146,99 50,50 0 0 0 96,49 Z m 4.55664,19 c 6.77191,0 13.54413,2.583199 18.71094,7.75 l -9.0957,9.095703 c 10.31601,10.335014 10.31014,27.076577 -0.0176,37.404297 -10.333602,10.33361 -27.088279,10.3336 -37.421878,0 l 9.095703,-9.0957 C 71.512169,102.81927 71.517986,86.077717 81.845703,75.75 87.012505,70.583197 93.78472,68 100.55664,68 Z"/>
  <path style="fill:#ff972e" d="M 96 38 A 58 58 0 0 0 38 96 A 58 58 0 0 0 96 154 A 58 58 0 0 0 154 96 A 58 58 0 0 0 96 38 z M 96 42 A 54 54 0 0 1 150 96 A 54 54 0 0 1 96 150 A 54 54 0 0 1 42 96 A 54 54 0 0 1 96 42 z M 96 46 A 50 50 0 0 0 46 96 A 50 50 0 0 0 96 146 A 50 50 0 0 0 146 96 A 50 50 0 0 0 96 46 z M 100.55664 65 C 107.32855 65 114.10077 67.583199 119.26758 72.75 L 110.17188 81.845703 C 120.48789 92.180717 120.48202 108.92228 110.1543 119.25 C 99.820698 129.58361 83.066021 129.5836 72.732422 119.25 L 81.828125 110.1543 C 71.512169 99.819271 71.517986 83.077717 81.845703 72.75 C 87.012505 67.583197 93.78472 65 100.55664 65 z "/>
  <path style="opacity:0.2;fill:#ffffff" d="M 96 38 A 58 58 0 0 0 38 96 A 58 58 0 0 0 38.035156 96.5 A 58 58 0 0 1 96 39 A 58 58 0 0 1 153.98242 96.257812 A 58 58 0 0 0 154 96 A 58 58 0 0 0 96 38 z M 96 46 A 50 50 0 0 0 46 96 A 50 50 0 0 0 46.039062 96.5 A 50 50 0 0 1 96 47 A 50 50 0 0 1 145.98047 96.25 A 50 50 0 0 0 146 96 A 50 50 0 0 0 96 46 z M 118.74219 73.275391 L 110.17188 81.845703 C 110.34055 82.01469 110.48333 82.198738 110.64648 82.371094 L 119.26758 73.75 C 119.09878 73.5812 118.91436 73.438676 118.74219 73.275391 z M 74.119141 91.953125 C 73.991042 98.66458 76.405436 105.40179 81.353516 110.62891 L 81.828125 110.1543 C 76.798299 105.11517 74.241328 98.552277 74.119141 91.953125 z M 149.98242 96.259766 A 54 54 0 0 1 96 150 A 54 54 0 0 1 42.035156 96.5 A 54 54 0 0 0 42 97 A 54 54 0 0 0 96 151 A 54 54 0 0 0 150 97 A 54 54 0 0 0 149.98242 96.259766 z M 117.88086 101.04688 C 117.75485 107.64858 115.19185 114.21245 110.1543 119.25 C 99.989495 129.41481 83.625591 129.55732 73.257812 119.72461 L 72.732422 120.25 C 83.066021 130.5836 99.820695 130.58361 110.1543 120.25 C 115.44647 114.95784 118.00926 107.9823 117.88086 101.04688 z "/>
</svg>
