<svg xmlns="http://www.w3.org/2000/svg" id="svg30" width="192" height="192" version="1"><defs><filter style="color-interpolation-filters:sRGB" id="filter897" width="1.09" height="1.11" x=".04" y=".05"><feGaussianBlur stdDeviation="3.2"/></filter><filter style="color-interpolation-filters:sRGB" id="filter850" width="1.08" height="1.11" x=".04" y=".06"><feGaussianBlur stdDeviation="1.68"/></filter></defs><path style="filter:url(#filter850);opacity:.1;fill:#000" d="m 54,100 c -3.32,0 -6,2.68 -6,6 v 60 c 0,3.32 2.68,6 6,6 h 4 c 3.32,0 6,-2.68 6,-6 v -60 c 0,-3.32 -2.68,-6 -6,-6 z m 80,0 c -3.32,0 -6,2.68 -6,6 v 60 c 0,3.32 2.68,6 6,6 h 4 c 3.32,0 6,-2.68 6,-6 v -60 c 0,-3.32 -2.68,-6 -6,-6 z"/><path style="filter:url(#filter897);opacity:.2" d="M 96,28 A 64,64 0 0 0 32,92 v 8.74 C 18.30,104.11 8,118.61 8,136 c 0,19.88 13.47,36 30.08,36 h 6.58 C 44.66,172 48,172 48,168 V 136 104 92 a 48,48 0 0 1 48,-48 48,48 0 0 1 48,48 v 12 32 32 c 0,4 3.34,4 3.34,4 h 6.58 C 170.53,172 184,155.88 184,136 184,118.61 173.70,104.11 160,100.74 V 92 A 64,64 0 0 0 96,28 Z"/><path style="fill:#f59101" d="M 38.08,96 C 21.47,96 8,112.12 8,132 c 0,19.88 13.47,36 30.08,36 h 6.58 v 0 c 0,0 3.34,0 3.34,-4 V 100.00 C 48,96.50 44.76,96 44.76,96 Z"/><path style="fill:#f59101" d="M 153.92,96 C 170.53,96 184,112.12 184,132 c 0,19.88 -13.47,36 -30.08,36 h -6.58 v 0 c 0,0 -3.34,0 -3.34,-4 V 100.00 C 144,96.50 147.24,96 147.24,96 Z"/><rect style="fill:#f55a01" width="16" height="72" x="48" y="96" rx="6" ry="6"/><rect style="fill:#f55a01" width="16" height="72" x="128" y="96" rx="6" ry="6"/><path style="fill:#f59101" d="M 96,24 A 64,64 0 0 0 32,88 v 44 H 48 V 88 a 48,48 0 0 1 48,-48 48,48 0 0 1 48,48 v 44 h 16 V 88 A 64,64 0 0 0 96,24 Z"/><path style="opacity:.2;fill:#fff" d="M 96,24 A 64,64 0 0 0 32,88 v 0.70 A 64,64 0 0 1 96,25 64,64 0 0 1 160,89 V 88 A 64,64 0 0 0 96,24 Z M 32,96.74 C 18.30,100.11 8,114.61 8,132 c 0,0.10 0.01,0.20 0.01,0.30 C 8.29,115.22 18.49,101.06 32,97.74 Z m 128,0 v 1 c 13.51,3.32 23.71,17.48 23.99,34.56 C 183.99,132.20 184,132.10 184,132 184,114.61 173.70,100.11 160,96.74 Z"/><path style="opacity:.2;fill:#fff" d="m 54,96 c -3.32,0 -6,2.68 -6,6 v 1 c 0,-3.32 2.68,-6 6,-6 h 4 c 3.32,0 6,2.68 6,6 v -1 c 0,-3.32 -2.68,-6 -6,-6 z m 80,0 c -3.32,0 -6,2.68 -6,6 v 1 c 0,-3.32 2.68,-6 6,-6 h 4 c 3.32,0 6,2.68 6,6 v -1 c 0,-3.32 -2.68,-6 -6,-6 z"/></svg>