<?xml version='1.0' encoding='utf-8'?>
<svg xmlns="http://www.w3.org/2000/svg" width="192" height="192" version="1.1" id="svg20">
  <defs>
    <filter style="color-interpolation-filters:sRGB" id="filter1405" x="-0.048000001" y="-0.048000001" width="1.096" height="1.096">
      <feGaussianBlur stdDeviation="3.2"/>
    </filter>
    <filter style="color-interpolation-filters:sRGB" id="filter1469" x="-0.062174642" y="-0.039088546" width="1.1243493" height="1.0781771">
      <feGaussianBlur stdDeviation="1.5088281"/>
    </filter>
  </defs>
  <circle style="fill:#039cf4;stop-color:#000000" cx="96" cy="96" r="75"/>
  <path style="filter:url(#filter1405);opacity:0.2;fill:#000000" d="m 96,20 a 80,80 0 0 0 -80,80 80,80 0 0 0 80,80 80,80 0 0 0 80,-80 80,80 0 0 0 -80,-80 z m 0,20 c 10.35375,0.02602 20.52458,2.730885 29.52344,7.851562 l -11.875,11.875 C 108.08609,57.27895 102.07704,56.01 96,56 71.699472,56 52,75.699472 52,100 c 0,24.30053 19.699472,44 44,44 5.81756,-0.0148 11.57443,-1.18322 16.9375,-3.4375 l 12.54688,11.65625 C 116.49035,157.30838 106.33424,159.9888 96,160 62.862916,160 36,133.13708 36,100 36,66.862916 62.862916,40 96,40 Z"/>
  <path style="fill:#e4e4e4" d="M 96 16 A 80 80 0 0 0 16 96 A 80 80 0 0 0 96 176 A 80 80 0 0 0 176 96 A 80 80 0 0 0 96 16 z M 96 36 C 106.35375 36.026023 116.52458 38.730885 125.52344 43.851562 L 113.64844 55.726562 C 108.08609 53.27895 102.07704 52.01 96 52 C 71.699472 52 52 71.699472 52 96 C 52 120.30053 71.699472 140 96 140 C 101.81756 139.98515 107.57443 138.81678 112.9375 136.5625 L 125.48438 148.21875 C 116.49035 153.30838 106.33424 155.9888 96 156 C 62.862916 156 36 129.13708 36 96 C 36 62.862916 62.862916 36 96 36 z "/>
  <path style="filter:url(#filter1469);opacity:0.2" d="m 133.75781,51.759376 -28,28 8.48438,8.484376 28,-28 z M 96,86.001564 a 12,12 0 0 0 -12,11.999996 12,12 0 0 0 12,12 12,12 0 0 0 12,-12 12,12 0 0 0 -12,-11.999996 z m 18.08594,23.601566 -8.17188,8.79687 28,26 8.17188,-8.79687 z"/>
  <circle style="fill:#3f3f3f" cx="96" cy="96" r="12"/>
  <path style="fill:none;stroke:#3f3f3f;stroke-width:12" d="m 110,82 28,-28 v 0 0"/>
  <path style="fill:none;stroke:#3f3f3f;stroke-width:12" d="m 110,112 28,26"/>
  <path style="opacity:0.2;fill:#ffffff" d="M 96 16 A 80 80 0 0 0 16 96 A 80 80 0 0 0 16.035156 96.5 A 80 80 0 0 1 96 17 A 80 80 0 0 1 175.98242 96.253906 A 80 80 0 0 0 176 96 A 80 80 0 0 0 96 16 z M 124.86914 44.505859 L 113.64844 55.726562 C 108.08609 53.278951 102.07704 52.01 96 52 C 71.699472 52 52 71.699472 52 96 C 52 96.167728 52.009847 96.332716 52.011719 96.5 C 52.281068 72.430991 71.8672 53 96 53 C 102.07704 53.01 108.08609 54.278951 113.64844 56.726562 L 125.52344 44.851562 C 125.30861 44.729316 125.08529 44.625349 124.86914 44.505859 z M 36.011719 96.5 C 36.010346 96.667345 36 96.832331 36 97 C 36 130.13708 62.862916 157 96 157 C 106.33424 156.9888 116.49035 154.30838 125.48438 149.21875 L 124.79688 148.58008 C 115.97234 153.42387 106.07483 155.98908 96 156 C 63.030585 156 36.281663 129.40572 36.011719 96.5 z "/>
</svg>
