<?xml version='1.0' encoding='utf-8'?>
<svg xmlns="http://www.w3.org/2000/svg" width="192" height="192" version="1.1" id="svg12">
  <defs>
    <filter style="color-interpolation-filters:sRGB" id="filter845" x="0.05" y="0.05" width="1.10" height="1.10">
      <feGaussianBlur stdDeviation="3.20"/>
    </filter>
    <filter style="color-interpolation-filters:sRGB" id="filter867" x="0.04" y="0.07" width="1.07" height="1.14">
      <feGaussianBlur stdDeviation="1.80"/>
    </filter>
  </defs>
  <circle style="filter:url(#filter845);opacity:0.20" cx="96" cy="100" r="80"/>
  <circle style="fill:#44c7aa" cx="96" cy="96" r="80"/>
  <path style="opacity:0.20;fill:#ffffff" d="M 96 16 A 80 80 0 0 0 16 96 A 80 80 0 0 0 16.02 96.64 A 80 80 0 0 1 96 17 A 80 80 0 0 1 175.98 96.30 A 80 80 0 0 0 176 96 A 80 80 0 0 0 96 16 z "/>
  <path style="filter:url(#filter867);opacity:0.20" d="m 64.67,70.00 c -1.90,0.00 -3.05,0.12 -4.73,0.36 -7.24,1.04 -11.57,3.03 -15.55,7.12 -4.10,4.21 -6.47,8.31 -7.77,13.41 0.64,2.51 0.71,3.47 0.54,7.77 0.24,6.05 0.98,9.09 3.31,13.69 3.64,7.18 8.40,11.32 15.70,13.68 4.92,1.59 15.13,3.24 23.14,3.73 8.05,0.49 36.00,0.16 41.33,0.49 9.92,-1.21 17.94,-3.23 22.69,-5.71 4.19,-2.19 9.22,-8.02 11.31,-13.13 1.33,-3.24 2.15,-7.27 2.38,-11.60 0.27,-5.18 0.36,-8.58 -2.41,-12.85 -3.75,-7.82 -10.46,-13.56 -17.84,-15.27 -3.62,0.84 -16.06,0.83 -29.09,0.02 -10.57,0.69 -14.37,0.65 -32.66,0.34 -4.70,0.25 -7.36,0.39 -9.27,0.39 z m 7.33,12 a 12,18 0 0 1 12,18.00 12,18 0 0 1 -12,18 12,18 0 0 1 -12,-18 12,18 0 0 1 12,-18.00 z m 48,0 a 12,18 0 0 1 12,18.00 12,18 0 0 1 -12,18 12,18 0 0 1 -12,-18 12,18 0 0 1 12,-18.00 z"/>
  <path style="fill:#2c3638" d="m 64.67,68 c -1.90,0.00 -3.05,0.12 -4.73,0.36 -7.24,1.04 -11.57,3.03 -15.55,7.12 -4.10,4.21 -6.47,8.31 -7.77,13.41 0.64,2.51 0.71,3.47 0.54,7.77 0.24,6.05 0.98,9.09 3.31,13.69 3.64,7.18 8.40,11.32 15.70,13.68 4.92,1.59 15.13,3.24 23.14,3.73 8.05,0.49 36.00,0.16 41.33,0.49 9.92,-1.21 17.94,-3.23 22.69,-5.71 4.19,-2.19 9.22,-8.02 11.31,-13.13 1.33,-3.24 2.15,-7.27 2.38,-11.60 0.27,-5.18 0.36,-8.58 -2.41,-12.85 -3.75,-7.82 -10.46,-13.56 -17.84,-15.27 -3.62,0.84 -16.06,0.83 -29.09,0.02 C 96.02,69.42 92.23,69.38 73.94,68.39 69.23,68.14 66.57,68.00 64.67,68 Z M 72,80 A 12,18 0 0 1 84,98 12,18 0 0 1 72,116 12,18 0 0 1 60,98 12,18 0 0 1 72,80 Z m 48,0 a 12,18 0 0 1 12,18 12,18 0 0 1 -12,18 12,18 0 0 1 -12,-18 12,18 0 0 1 12,-18 z"/>
</svg>
