<?xml version='1.0' encoding='utf-8'?>
<svg xmlns:xlink="http://www.w3.org/1999/xlink" xmlns="http://www.w3.org/2000/svg" width="192" height="192" version="1" id="svg16">
  <defs>
    <linearGradient id="linearGradient1439">
      <stop style="stop-color:#ffffff;stop-opacity:1" offset="0"/>
      <stop style="stop-color:#2377f8;stop-opacity:1" offset="1"/>
    </linearGradient>
    <filter style="color-interpolation-filters:sRGB" id="filter971" x="0.05" y="0.05" width="1.10" height="1.10">
      <feGaussianBlur stdDeviation="3.20"/>
    </filter>
    <filter style="color-interpolation-filters:sRGB" id="filter3006" x="0.05" y="0.04" width="1.11" height="1.09">
      <feGaussianBlur stdDeviation="1.40"/>
    </filter>
    <filter style="color-interpolation-filters:sRGB" id="filter3010" x="0.05" y="0.05" width="1.10" height="1.09">
      <feGaussianBlur stdDeviation="1.41"/>
    </filter>
    <filter style="color-interpolation-filters:sRGB" id="filter3014" x="0.04" y="0.07" width="1.07" height="1.14">
      <feGaussianBlur stdDeviation="1.55"/>
    </filter>
    <linearGradient xlink:href="#linearGradient1439" id="linearGradient883" x1="63.26" y1="69.54" x2="106.25" y2="54.35" gradientUnits="userSpaceOnUse"/>
    <linearGradient xlink:href="#linearGradient1439" id="linearGradient1043" x1="79.21" y1="133.23" x2="52.83" y2="102.13" gradientUnits="userSpaceOnUse"/>
    <linearGradient xlink:href="#linearGradient1439" id="linearGradient1091" x1="131.35" y1="75.39" x2="135.58" y2="113.79" gradientUnits="userSpaceOnUse"/>
  </defs>
  <rect style="filter:url(#filter971);opacity:0.20;fill:#000000" width="160" height="160" x="16" y="20" rx="80" ry="80"/>
  <circle style="fill:#2a78f1;stop-color:#000000" cx="96" cy="96" r="80"/>
  <path style="opacity:0.20;fill:#ffffff" d="M 96.00,16 C 51.68,16.00 16,51.68 16,96 c 0,0.17 0.01,0.34 0.01,0.52 C 16.27,52.42 51.84,17.00 96.00,17 H 96 c 44.16,0.00 79.73,35.42 79.99,79.52 0.00,0.17 0.01,0.34 0.01,0.52 0,-44.32 -35.68,-80.00 -80.00,-80 z"/>
  <path style="filter:url(#filter3014);opacity:0.20;fill:#000000;color:#000000" d="m 146.41,115.38 a 10,10 0 0 0 -6.42,-12.60 10,10 0 0 0 -12.60,6.42 c -4.55,13.99 -17.69,23.24 -32.39,22.79 -14.71,0.45 -27.26,-10.48 -30.94,-24.72 a 10,10 0 0 0 -12.19,-7.18 10,10 0 0 0 -7.18,12.19 c 5.89,22.77 26.19,38.99 49.69,39.71 23.50,0.72 44.76,-14.23 52.03,-36.60 z"/>
  <path style="fill:url(#linearGradient1043);fill-opacity:1.00;color:#000000" d="m 146.41,112.38 a 10,10 0 0 0 -6.42,-12.60 10,10 0 0 0 -12.60,6.42 c -4.55,13.99 -17.69,23.24 -32.39,22.79 -14.71,0.45 -27.26,-10.48 -30.94,-24.72 A 10,10 0 0 0 51.87,97.08 10,10 0 0 0 44.69,109.27 c 5.89,22.77 26.19,38.99 49.69,39.71 23.50,0.72 44.76,-14.23 52.03,-36.60 z"/>
  <path style="filter:url(#filter3010);opacity:0.20;fill:#000000;color:#000000" d="m 44.95,113.25 a 10,10 0 0 0 12.32,6.94 10,10 0 0 0 6.94,-12.32 C 61.33,97.53 63.64,86.46 70.43,78.14 77.21,69.82 87.59,65.33 98.30,66.08 A 10,10 0 0 0 108.97,56.80 10,10 0 0 0 99.70,46.13 C 82.52,44.93 65.81,52.16 54.93,65.50 44.05,78.84 40.32,96.67 44.95,113.25 Z"/>
  <path style="fill:url(#linearGradient883);color:#000000" d="m 44.95,110.25 a 10,10 0 0 0 12.32,6.94 10,10 0 0 0 6.94,-12.32 C 61.33,94.53 63.64,83.46 70.43,75.14 77.21,66.82 87.59,62.33 98.30,63.08 A 10,10 0 0 0 108.97,53.80 10,10 0 0 0 99.70,43.13 C 82.52,41.93 65.81,49.16 54.93,62.50 44.05,75.85 40.32,93.67 44.95,110.25 Z"/>
  <path style="filter:url(#filter3006);opacity:0.20;fill:#000000;color:#000000" d="m 95.45,46.00 a 10,10 0 0 0 -9.89,10.11 10,10 0 0 0 10.10,9.89 c 10.74,0.11 20.83,4.99 27.11,13.70 6.28,8.71 7.93,19.90 4.44,30.05 a 10,10 0 0 0 6.20,12.71 10,10 0 0 0 12.71,-6.20 C 151.72,99.98 149.06,81.96 138.99,68.00 128.92,54.03 112.66,45.82 95.45,46.00 Z"/>
  <path style="fill:url(#linearGradient1091);fill-opacity:1.00;color:#000000" d="m 95.45,43.00 a 10,10 0 0 0 -9.89,10.11 10,10 0 0 0 10.10,9.89 c 10.74,0.11 20.83,4.99 27.11,13.70 6.28,8.71 7.93,19.90 4.44,30.05 a 10,10 0 0 0 6.20,12.71 10,10 0 0 0 12.71,-6.20 C 151.72,96.98 149.06,78.96 138.99,65.00 128.92,51.03 112.66,42.82 95.45,43.00 Z"/>
  <path style="fill:#ffffff;color:#000000" d="m 146.41,112.38 c 1.71,-5.25 -1.17,-10.89 -6.42,-12.60 -5.25,-1.71 -10.89,1.17 -12.60,6.42 -1.58,4.85 -4.18,9.13 -7.53,12.63 l 14.41,13.83 c 5.41,-5.63 9.62,-12.51 12.15,-20.28 z"/>
</svg>
