<?xml version='1.0' encoding='utf-8'?>
<svg xmlns="http://www.w3.org/2000/svg" width="192" height="192" version="1" id="svg28">
  <defs>
    <filter style="color-interpolation-filters:sRGB" id="filter14343" x="0.05" y="0.05" width="1.10" height="1.10">
      <feGaussianBlur stdDeviation="3.20"/>
    </filter>
    <filter style="color-interpolation-filters:sRGB" id="filter14426" x="0.07" y="0.08" width="1.13" height="1.17">
      <feGaussianBlur stdDeviation="4.06"/>
    </filter>
  </defs>
  <circle style="filter:url(#filter14343);opacity:0.20;fill:#000000" cx="96" cy="100" r="80"/>
  <circle style="fill:#e4e4e4" cx="96" cy="96" r="80"/>
  <path style="filter:url(#filter14426);opacity:0.20;fill:#000000" d="m 96,42 c -30.93,0 -56,25.07 -56,56 0.02,3.02 0.30,6.03 0.80,9 H 37 c -2.76,0 -5,2.24 -5,5 0,2.76 2.24,5 5,5 H 43.47 54 c 2.76,0 5,2.24 5,5 0,2.76 -2.24,5 -5,5 h -1 a 5,5 0 0 0 -5,5 5,5 0 0 0 5,5 H 56.01 82 c 2.76,0 5,2.24 5,5 0,2.76 -2.24,5 -5,5 H 69.19 63 a 5,5 0 0 0 -5,5 5,5 0 0 0 5,5 h 81 a 5,5 0 0 0 5,-5 5,5 0 0 0 -5,-5 H 122.81 114 c -2.76,0 -5,-2.24 -5,-5 0,-2.76 2.24,-5 5,-5 h 5 a 5,5 0 0 0 5,-5 5,5 0 0 0 -5,-5 h -1 c -2.76,0 -5,-2.24 -5,-5 0,-2.76 2.24,-5 5,-5 H 148.53 165 c 2.76,0 5,-2.24 5,-5 0,-2.76 -2.24,-5 -5,-5 h -13.80 c 0.51,-2.97 0.78,-5.98 0.80,-9 0,-30.93 -25.07,-56 -56,-56 z m 40,85 a 5,5 0 0 0 -5,5 5,5 0 0 0 5,5 h 9 a 5,5 0 0 0 5,-5 5,5 0 0 0 -5,-5 z m 27,0 a 5,5 0 0 0 -5,5 5,5 0 0 0 5,5 h 9 a 5,5 0 0 0 5,-5 5,5 0 0 0 -5,-5 z"/>
  <path style="fill:#f05239" d="M 96 40 C 65.07 40 40 65.07 40 96 C 40.02 99.02 40.30 102.03 40.80 105 L 37 105 C 34.24 105 32 107.24 32 110 C 32 112.76 34.24 115 37 115 L 43.47 115 L 54 115 C 56.76 115 59 117.24 59 120 C 59 122.76 56.76 125 54 125 L 53 125 A 5 5 0 0 0 48 130 A 5 5 0 0 0 53 135 L 56.01 135 L 82 135 C 84.76 135 87 137.24 87 140 C 87 142.76 84.76 145 82 145 L 69.19 145 L 63 145 A 5 5 0 0 0 58 150 A 5 5 0 0 0 63 155 L 144 155 A 5 5 0 0 0 149 150 A 5 5 0 0 0 144 145 L 122.81 145 L 114 145 C 111.24 145 109 142.76 109 140 C 109 137.24 111.24 135 114 135 L 119 135 A 5 5 0 0 0 124 130 A 5 5 0 0 0 119 125 L 118 125 C 115.24 125 113 122.76 113 120 C 113 117.24 115.24 115 118 115 L 148.53 115 L 165 115 C 167.76 115 170 112.76 170 110 C 170 107.24 167.76 105 165 105 L 151.20 105 C 151.70 102.03 151.98 99.02 152 96 C 152 65.07 126.93 40 96 40 z M 136 125 A 5 5 0 0 0 131 130 A 5 5 0 0 0 136 135 L 145 135 A 5 5 0 0 0 150 130 A 5 5 0 0 0 145 125 L 136 125 z M 163 125 A 5 5 0 0 0 158 130 A 5 5 0 0 0 163 135 L 172 135 A 5 5 0 0 0 177 130 A 5 5 0 0 0 172 125 L 163 125 z "/>
  <path style="opacity:0.20;fill:#ffffff" d="M 96 16 A 80 80 0 0 0 16 96 A 80 80 0 0 0 16.04 96.50 A 80 80 0 0 1 96 17 A 80 80 0 0 1 175.98 96.25 A 80 80 0 0 0 176 96 A 80 80 0 0 0 96 16 z "/>
</svg>
