<?xml version='1.0' encoding='utf-8'?>
<svg xmlns="http://www.w3.org/2000/svg" width="192" height="192" version="1.1" id="svg14">
  <defs>
    <filter style="color-interpolation-filters:sRGB" id="filter846" x="0.04" width="1.07" y="0.07" height="1.14">
      <feGaussianBlur stdDeviation="2.48"/>
    </filter>
    <filter style="color-interpolation-filters:sRGB" id="filter865" x="0.05" width="1.10" y="0.05" height="1.10">
      <feGaussianBlur stdDeviation="0.64"/>
    </filter>
  </defs>
  <path style="filter:url(#filter846);opacity:0.20;fill:#000000" d="m 60,56 a 44,44 0 0 0 -44,44 44,44 0 0 0 44,44 44,44 0 0 0 42.29,-32 h 33.71 v 20.11 H 163.86 V 112 h 12.14 V 84 h -75.02 A 44,44 0 0 0 60.00,56 Z"/>
  <path d="m 60,52 a 44,44 0 0 0 -44,44 44,44 0 0 0 44,44 44,44 0 0 0 42.29,-32 h 33.71 v 20.11 H 163.86 V 108 h 12.14 V 80 h -75.02 A 44,44 0 0 0 60.00,52 Z" style="fill:#22cae4"/>
  <circle r="16" cy="98" cx="60" style="filter:url(#filter865);opacity:0.10"/>
  <circle r="16" cy="96" cx="60" style="fill:#f9f9f9"/>
  <path style="opacity:0.20;fill:#ffffff" d="M 60 52 A 44 44 0 0 0 16 96 A 44 44 0 0 0 16.02 96.42 A 44 44 0 0 1 60 53 A 44 44 0 0 1 100.98 81 L 176 81 L 176 80 L 100.98 80 A 44 44 0 0 0 60 52 z "/>
</svg>
