<?xml version='1.0' encoding='utf-8'?>
<svg xmlns="http://www.w3.org/2000/svg" width="192" height="192" version="1" id="svg12">
  <defs>
    <filter style="color-interpolation-filters:sRGB" id="filter845" x="0.05" y="0.05" width="1.10" height="1.10">
      <feGaussianBlur stdDeviation="3.20"/>
    </filter>
    <filter style="color-interpolation-filters:sRGB" id="filter849" x="0.05" y="0.05" width="1.09" height="1.10">
      <feGaussianBlur stdDeviation="2.16"/>
    </filter>
  </defs>
  <rect style="filter:url(#filter845);opacity:0.20" width="160" height="160" x="16" y="20" rx="48" ry="48"/>
  <rect style="fill:#4c459c" width="160" height="160" x="16" y="16" rx="48" ry="48"/>
  <path style="opacity:0.10;fill:#ffffff" d="M 64 16 C 37.41 16 16 37.41 16 64 L 16 65 C 16 38.41 37.41 17 64 17 L 128 17 C 154.59 17 176 38.41 176 65 L 176 64 C 176 37.41 154.59 16 128 16 L 64 16 z "/>
  <path style="filter:url(#filter849);opacity:0.20" d="m 136,48 a 12,12 0 0 0 -12,12 12,12 0 0 0 0.78,4.25 L 107.44,85.45 A 20,20 0 0 0 100,84 20,20 0 0 0 80.06,102.81 l -29.77,4.25 A 8,8 0 0 0 44,104 a 8,8 0 0 0 -8,8 8,8 0 0 0 8,8 8,8 0 0 0 7.41,-5.02 l 29.77,-4.25 A 20,20 0 0 0 100,124 20,20 0 0 0 120,104 20,20 0 0 0 116.72,93.04 l 17.35,-21.21 A 12,12 0 0 0 136,72 12,12 0 0 0 148,60 12,12 0 0 0 136,48 Z m -64,8 a 8,8 0 0 0 -8,8 8,8 0 0 0 8,8 8,8 0 0 0 8,-8 8,8 0 0 0 -8,-8 z m 64,0 a 4,4 0 0 1 4,4 4,4 0 0 1 -4,4 4,4 0 0 1 -4,-4 4,4 0 0 1 4,-4 z m -55.62,14.74 -4.83,3.57 3.23,4.62 4.83,-3.57 z m 4.84,6.91 -4.83,3.57 4.26,6.09 4.84,-3.57 z M 100,92 a 12,12 0 0 1 12,12 12,12 0 0 1 -12,12 12,12 0 0 1 -12,-12 12,12 0 0 1 12,-12 z m -56,16 a 4,4 0 0 1 4,4 4,4 0 0 1 -4,4 4,4 0 0 1 -4,-4 4,4 0 0 1 4,-4 z m 73.89,9.64 -4.25,4.25 5.48,5.48 4.25,-4.25 z m -29.13,6.38 -3.95,9.88 5.67,1.99 3.95,-9.88 z m 36.59,1.09 -4.25,4.25 6.34,6.34 4.25,-4.25 z M 138,132 a 10,10 0 0 0 -10,10 10,10 0 0 0 10,10 10,10 0 0 0 10,-10 10,10 0 0 0 -10,-10 z m -54,4 a 8,8 0 0 0 -8,8 8,8 0 0 0 8,8 8,8 0 0 0 8,-8 8,8 0 0 0 -8,-8 z"/>
  <path style="fill:#ffffff" d="m 136,44 a 12,12 0 0 0 -12,12 12,12 0 0 0 0.78,4.25 L 107.44,81.45 A 20,20 0 0 0 100,80 20,20 0 0 0 80.06,98.81 l -29.77,4.25 A 8,8 0 0 0 44,100 a 8,8 0 0 0 -8,8 8,8 0 0 0 8,8 8,8 0 0 0 7.41,-5.02 l 29.77,-4.25 A 20,20 0 0 0 100,120 20,20 0 0 0 120,100 20,20 0 0 0 116.72,89.04 l 17.35,-21.21 A 12,12 0 0 0 136,68 12,12 0 0 0 148,56 12,12 0 0 0 136,44 Z m -64,8 a 8,8 0 0 0 -8,8 8,8 0 0 0 8,8 8,8 0 0 0 8,-8 8,8 0 0 0 -8,-8 z m 64,0 a 4,4 0 0 1 4,4 4,4 0 0 1 -4,4 4,4 0 0 1 -4,-4 4,4 0 0 1 4,-4 z m -55.62,14.74 -4.83,3.57 3.23,4.62 4.83,-3.57 z m 4.84,6.91 -4.83,3.57 4.26,6.09 4.84,-3.57 z M 100,88 a 12,12 0 0 1 12,12 12,12 0 0 1 -12,12 12,12 0 0 1 -12,-12 12,12 0 0 1 12,-12 z m -56,16 a 4,4 0 0 1 4,4 4,4 0 0 1 -4,4 4,4 0 0 1 -4,-4 4,4 0 0 1 4,-4 z m 73.89,9.64 -4.25,4.25 5.48,5.48 4.25,-4.25 z m -29.13,6.38 -3.95,9.88 5.67,1.99 3.95,-9.88 z m 36.59,1.09 -4.25,4.25 6.34,6.34 4.25,-4.25 z M 138,128 a 10,10 0 0 0 -10,10 10,10 0 0 0 10,10 10,10 0 0 0 10,-10 10,10 0 0 0 -10,-10 z m -54,4 a 8,8 0 0 0 -8,8 8,8 0 0 0 8,8 8,8 0 0 0 8,-8 8,8 0 0 0 -8,-8 z"/>
</svg>
