<svg xmlns="http://www.w3.org/2000/svg" id="svg28" width="192" height="192" version="1"><defs><filter style="color-interpolation-filters:sRGB" id="filter6495" width="1.1" height="1.1" x=".05" y=".05"><feGaussianBlur stdDeviation="3.2"/></filter><filter style="color-interpolation-filters:sRGB" id="filter36132" width="1.18" height="1.13" x=".09" y=".06"><feGaussianBlur stdDeviation="3.19"/></filter></defs><rect width="160" height="160" x="-180" y="-176" rx="12" ry="12" transform="matrix(0,-1,-1,0,0,0)" style="filter:url(#filter6495);opacity:.2;fill:#000"/><rect width="160" height="160" x="-176" y="-176" rx="12" ry="12" transform="matrix(0,-1,-1,0,0,0)" style="fill:#e4e4e4"/><path style="filter:url(#filter36132);opacity:.2;fill:#000" d="m 54,38 v 48 l 42,24 -42,24 42,24 42,-24 V 86 L 96,62 Z"/><path style="opacity:.2;fill:#fff" d="m 28,16 c -6.65,0 -12,5.35 -12,12 v 1 c 0,-6.65 5.35,-12 12,-12 h 136 c 6.65,0 12,5.35 12,12 v -1 c 0,-6.65 -5.35,-12 -12,-12 z"/><path style="fill:#ffae29" d="m 54,36 42,24 v 0 L 54,84 Z"/><path style="fill:#f7871a" d="M 96,60 54,84 v 0 l 42,24 z"/><path style="fill:#f35d19" d="m 96,60 42,24 v 0 l -42,24 z"/><path style="fill:#903190" d="m 138,84 -42,24 v 0 l 42,24 z"/><path style="fill:#e438a6" d="m 96,108 -42,24 v 0 l 42,24 z"/><path style="fill:#dc1d4f" d="m 96,108 42,24 v 0 l -42,24 z"/></svg>