<?xml version='1.0' encoding='utf-8'?>
<svg xmlns="http://www.w3.org/2000/svg" width="192" height="192" version="1" id="svg16">
  <defs>
    <filter style="color-interpolation-filters:sRGB" id="filter875" x="-0.040153844" width="1.0803077" y="-0.059657144" height="1.1193143">
      <feGaussianBlur stdDeviation="1.7399999"/>
    </filter>
    <filter style="color-interpolation-filters:sRGB" id="filter945" x="-0.040895033" width="1.0817901" y="-0.058092855" height="1.1161857">
      <feGaussianBlur stdDeviation="2.9308108"/>
    </filter>
    <filter style="color-interpolation-filters:sRGB" id="filter963" x="-0.037846154" width="1.0756923" y="-0.065599999" height="1.1312">
      <feGaussianBlur stdDeviation="1.64"/>
    </filter>
  </defs>
  <path d="m 96.050783,110.00018 a 7.4293141,7.0010277 0 0 0 -3.402347,0.75198 L 63.87723,124.47253 53.837053,121.22532 A 7.4293141,7.0010277 0 0 0 44,127.84965 v 18.90225 a 7.4293141,7.0010277 0 0 0 3.496649,5.93387 L 92.06808,178.937 a 7.4293141,7.0010277 0 0 0 7.87109,0 l 44.57144,-26.25123 A 7.4293141,7.0010277 0 0 0 148,146.7519 v -16.80352 a 7.4293141,7.0010277 0 0 0 -11.38226,-5.92704 l -8.84319,5.24342 -27.53794,-18.01354 a 7.4293141,7.0010277 0 0 0 -4.185827,-1.25104 z" style="filter:url(#filter875);opacity:0.2;fill:#000000"/>
  <path style="fill:#1383d9" d="m 96.050783,106.00018 a 7.4293141,7.0010277 0 0 0 -3.402347,0.75198 L 63.87723,120.47253 53.837053,117.22532 A 7.4293141,7.0010277 0 0 0 44,123.84965 v 18.90225 a 7.4293141,7.0010277 0 0 0 3.496649,5.93387 L 92.06808,174.937 a 7.4293141,7.0010277 0 0 0 7.87109,0 l 44.57144,-26.25123 A 7.4293141,7.0010277 0 0 0 148,142.7519 v -16.80352 a 7.4293141,7.0010277 0 0 0 -11.38226,-5.92704 l -8.84319,5.24342 -27.53794,-18.01354 a 7.4293141,7.0010277 0 0 0 -4.185827,-1.25104 z"/>
  <path d="M 61.6,17.99992 10,50.432353 44,78.99992 10,106.64857 61.6,139.081 96,108.99992 130.4,139.081 182,106.64857 148,78.99992 182,50.432353 130.4,17.99992 l -34.4,31 z" style="filter:url(#filter945);opacity:0.2;fill:#000000"/>
  <path style="fill:#5aacff" d="M 61.6,16 10,48.432433 44,77 10,104.64865 61.6,137.08108 96,107 130.4,137.08108 182,104.64865 148,77 182,48.432433 130.4,16 96,47 Z"/>
  <path d="M 148,79 96,109 44,79 96,49 Z" style="filter:url(#filter963);opacity:0.2;fill:#000000"/>
  <path style="fill:#ffffff" d="M 148,77 96,107 44,77 96,47 Z"/>
  <path style="opacity:0.2;fill:#ffffff" d="M 61.599609 16 L 10 48.431641 L 10.681641 49.003906 L 61.599609 17 L 96 48 L 130.40039 17 L 181.31836 49.003906 L 182 48.431641 L 130.40039 16 L 96 47 L 61.599609 16 z M 43.394531 77.492188 L 10 104.64844 L 10.693359 105.08398 L 44 78 L 43.394531 77.492188 z M 148.60547 77.492188 L 148 78 L 181.30664 105.08398 L 182 104.64844 L 148.60547 77.492188 z "/>
</svg>
