<svg xmlns="http://www.w3.org/2000/svg" id="svg28" width="192" height="192" version="1"><defs><filter style="color-interpolation-filters:sRGB" id="filter6495" width="1.1" height="1.1" x=".05" y=".05"><feGaussianBlur stdDeviation="3.2"/></filter><filter style="color-interpolation-filters:sRGB" id="filter4765" width="1.1" height="1.1" x=".05" y=".05"><feGaussianBlur stdDeviation="3.07"/></filter><filter style="color-interpolation-filters:sRGB" id="filter4887" width="1.08" height="1.12" x=".04" y=".06"><feGaussianBlur stdDeviation="1.77"/></filter></defs><rect width="160" height="160" x="-180" y="-176" rx="12" ry="12" transform="matrix(0,-1,-1,0,0,0)" style="filter:url(#filter6495);opacity:.2;fill:#000"/><path style="fill:#5929a1" d="M 172.49,19.51 95,87 19.51,172.49 C 21.68,174.66 24.68,176 28,176 h 136 c 6.65,0 12,-5.35 12,-12 V 28 c 0,-3.32 -1.34,-6.32 -3.51,-8.49 z"/><path style="filter:url(#filter4765);opacity:.2;fill:#000" d="m 35.80,30.52 c -6.63,0.44 -2.59,1.66 -3.11,8.29 L 23.59,153.75 C 23.33,157.06 17.34,172.32 19.51,174.49 20,174.00 172.49,21.51 172.49,21.51 c -2.17,-2.17 -22.07,1.50 -25.38,1.71 z"/><path style="fill:#a338d3" d="m 28,16 c -6.65,0 -12,5.35 -12,12 v 136 c 0,3.32 1.34,6.32 3.51,8.49 C 20,172 172.49,19.51 172.49,19.51 170.32,17.34 167.32,16 164,16 Z"/><path style="filter:url(#filter4887);opacity:.2;fill:#000" d="m 123.47,64.00 -23.16,0.03 c -27.47,0.03 -28.35,0.05 -28.87,0.27 0.29,0.18 0.59,0.48 0.68,0.68 0.09,0.20 -1.51,5.56 -3.16,11.91 L 64.73,88.00 H 44.90 c -1.11,0 -1.74,0.92 -2,2 L 40,102.00 c 0.26,1.08 0.89,2 2,2 h 18.59 l -3.46,13.36 c -1.71,6.62 -3.11,12.31 -3.11,12.64 0.01,0.90 0.52,1.60 1.38,1.88 0.50,0.16 44.81,0.14 48.35,0.02 9.63,0.45 16.91,-2.22 23.64,-5.75 10.05,-5.27 17.03,-14.79 20.43,-27.86 0.90,-4.21 1.30,-8.15 1.08,-11.86 0.39,-3.43 0.92,-5.95 -1.97,-8.46 -1.10,-2.60 -2.60,-4.83 -4.56,-6.88 -2.70,-2.80 -5.91,-4.76 -9.72,-5.93 -2.95,-1.05 -5.92,-1.08 -9.16,-1.13 z m -38.13,14 h 16.24 c 15.19,0 16.35,0.02 17.84,0.30 3.49,0.65 5.68,1.69 7.58,3.60 2.37,2.37 3.26,5.39 2.99,10.16 0.41,7.28 -3.41,14.52 -7.84,18.91 -3.55,3.53 -7.53,5.50 -13.34,6.60 -1.79,0.34 -2.20,0.35 -17.65,0.41 -10.99,0.04 -15.82,0.01 -15.82,0.11 0,0.09 1.66,-6.76 3.69,-14.83 2.03,-8.06 4.27,-17.00 4.99,-19.85 z"/><path style="fill:#fff" d="m 123.47,62 -23.16,0.03 c -27.47,0.03 -28.35,0.05 -28.87,0.27 0.29,0.18 0.59,0.48 0.68,0.68 0.09,0.20 -1.51,5.56 -3.16,11.91 L 64.73,86 H 44.90 c -1.11,0 -1.74,0.92 -2,2 L 40,100 c 0.26,1.08 0.89,2 2,2 h 18.59 l -3.46,13.36 c -1.71,6.62 -3.11,12.31 -3.11,12.64 0.01,0.90 0.52,1.60 1.38,1.88 0.50,0.16 44.81,0.14 48.35,0.02 9.63,0.45 16.91,-2.22 23.64,-5.75 10.05,-5.27 17.03,-14.79 20.43,-27.86 0.90,-4.21 1.30,-8.15 1.08,-11.86 0.39,-3.43 0.92,-5.95 -1.97,-8.46 -1.10,-2.60 -2.60,-4.83 -4.56,-6.88 -2.70,-2.80 -5.91,-4.76 -9.72,-5.93 C 129.68,62.09 126.71,62.06 123.47,62 Z M 85.34,76 h 16.24 c 15.19,0 16.35,0.02 17.84,0.30 3.49,0.65 5.68,1.69 7.58,3.60 2.37,2.37 3.26,5.39 2.99,10.16 0.41,7.28 -3.41,14.52 -7.84,18.91 -3.55,3.53 -7.53,5.50 -13.34,6.60 -1.79,0.34 -2.20,0.35 -17.65,0.41 -10.99,0.04 -15.82,0.01 -15.82,0.11 0,0.09 1.66,-6.76 3.69,-14.83 2.03,-8.06 4.27,-17.00 4.99,-19.85 z"/><path style="opacity:.2;fill:#fff" d="m 28,16 c -6.65,0 -12,5.35 -12,12 v 1 c 0,-6.65 5.35,-12 12,-12 h 136 c 6.65,0 12,5.35 12,12 v -1 c 0,-6.65 -5.35,-12 -12,-12 z"/></svg>