<?xml version='1.0' encoding='utf-8'?>
<svg xmlns="http://www.w3.org/2000/svg" width="192" height="192" version="1" id="svg14">
  <defs>
    <filter style="color-interpolation-filters:sRGB" id="filter850" x="0.05" width="1.10" y="0.05" height="1.10">
      <feGaussianBlur stdDeviation="3.20"/>
    </filter>
    <filter style="color-interpolation-filters:sRGB" id="filter14776" x="0.11" y="0.11" width="1.22" height="1.22">
      <feGaussianBlur stdDeviation="5.31"/>
    </filter>
  </defs>
  <circle style="filter:url(#filter850);opacity:0.20;fill:#000000" cx="96" cy="100" r="80"/>
  <circle r="80" cy="96" cx="96" style="fill:#ff5687"/>
  <path style="fill:#38adfa" d="m 688.81,257.00 c 0.33,0.33 -1.19,0.37 -1.92,0.08 0.80,0.32 0.56,0.56 0.60,0.60 1.05,0.04 1.64,0.19 1.31,0.53 z"/>
  <path style="opacity:0.20;fill:#ffffff" d="M 96 16 A 80 80 0 0 0 16 96 A 80 80 0 0 0 16.02 96.47 A 80 80 0 0 1 96 17 A 80 80 0 0 1 175.97 96.51 A 80 80 0 0 0 176 96 A 80 80 0 0 0 96 16 z "/>
  <path style="filter:url(#filter14776);opacity:0.20;fill:#000000;color:#000000" d="m 96,39 c -32.54,0 -59,26.46 -59,59 0,32.54 26.46,59 59,59 32.54,0 59,-26.46 59,-59 0,-32.54 -26.46,-59 -59,-59 z m 0,8 c 28.21,0 51,22.79 51,51 0,14.23 -5.80,27.08 -15.17,36.32 C 126.61,119.57 112.54,109 96,109 79.46,109 65.39,119.57 60.17,134.32 50.80,125.08 45,112.23 45,98 45,69.79 67.79,47 96,47 Z m 0,12 A 22,22 0 0 0 74,81 22,22 0 0 0 96,103 22,22 0 0 0 118,81 22,22 0 0 0 96,59 Z m -14,65 h 28 a 4,4 0 0 1 4,4 4,4 0 0 1 -4,4 H 82 a 4,4 0 0 1 -4,-4 4,4 0 0 1 4,-4 z"/>
  <path style="fill:#ffffff;color:#000000" d="M 96 37 C 63.46 37 37 63.46 37 96 C 37 128.54 63.46 155 96 155 C 128.54 155 155 128.54 155 96 C 155 63.46 128.54 37 96 37 z M 96 45 C 124.21 45 147 67.79 147 96 C 147 110.23 141.20 123.08 131.83 132.32 C 126.61 117.57 112.54 107 96 107 C 79.46 107 65.39 117.57 60.17 132.32 C 50.80 123.08 45 110.23 45 96 C 45 67.79 67.79 45 96 45 z M 96 57 A 22 22 0 0 0 74 79 A 22 22 0 0 0 96 101 A 22 22 0 0 0 118 79 A 22 22 0 0 0 96 57 z M 82 122 L 110 122 A 4 4 0 0 1 114 126 A 4 4 0 0 1 110 130 L 82 130 A 4 4 0 0 1 78 126 A 4 4 0 0 1 82 122 z "/>
</svg>
