<?xml version='1.0' encoding='utf-8'?>
<svg xmlns="http://www.w3.org/2000/svg" width="192" height="192" version="1" id="svg12">
  <defs>
    <filter style="color-interpolation-filters:sRGB" id="filter871" x="0.04" width="1.08" y="0.06" height="1.12">
      <feGaussianBlur stdDeviation="2.96"/>
    </filter>
  </defs>
  <path d="M 96,40 C 73.22,40 53.82,53.83 45.47,73.41 24.26,76.54 8,94.46 8,116.36 8,140.46 27.70,160 52,160 h 93.50 C 166.76,160 184,142.90 184,121.82 184,102.22 169.14,86.16 149.97,83.98 144.97,58.96 122.70,40 96,40 Z" style="filter:url(#filter871);opacity:0.20;fill:#000000"/>
  <path style="fill:#e4e4e4" d="M 96,36 C 73.22,36 53.82,49.83 45.47,69.41 24.26,72.54 8,90.46 8,112.36 8,136.46 27.70,156 52,156 h 93.50 C 166.76,156 184,138.90 184,117.82 184,98.22 169.14,82.16 149.97,79.98 144.97,54.96 122.70,36 96,36 Z"/>
  <path style="opacity:0.20;fill:#ffffff" d="M 96 36 C 73.22 36 53.82 49.83 45.47 69.41 C 24.26 72.53 8 90.47 8 112.37 C 8 112.47 8.01 112.58 8.02 112.69 C 8.35 91.10 24.48 73.50 45.47 70.41 C 53.82 50.83 73.22 37 96 37 C 122.70 37 144.97 55.96 149.97 80.98 C 168.92 83.14 183.65 98.86 183.98 118.15 C 183.99 118.04 184 117.93 184 117.82 C 184 98.22 169.14 82.16 149.97 79.98 C 144.97 54.96 122.70 36 96 36 z "/>
  <path style="opacity:0.50;fill:none;stroke:#000000;stroke-width:16;stroke-linecap:round;stroke-linejoin:round" d="m 104.10,71.95 c 0,0 16,8 16,32.00 0,24 -16,32 -16,32"/>
  <path style="opacity:0.50;fill:none;stroke:#000000;stroke-width:16;stroke-linecap:round;stroke-linejoin:round" d="m 72.10,79.95 c 0,0 16.00,8 16,24.00 0.00,16 -16,24 -16,24"/>
</svg>
