<?xml version='1.0' encoding='utf-8'?>
<svg xmlns="http://www.w3.org/2000/svg" width="192" height="192" version="1" id="svg26">
  <defs>
    <filter style="color-interpolation-filters:sRGB" id="filter991" x="0.05" y="0.05" width="1.10" height="1.10">
      <feGaussianBlur stdDeviation="3.20"/>
    </filter>
    <filter style="color-interpolation-filters:sRGB" id="filter1119" x="0.04" y="0.06" width="1.08" height="1.11">
      <feGaussianBlur stdDeviation="0.59"/>
    </filter>
  </defs>
  <path fill="#e4e4e4" d="M 96.00,20.00 C 51.68,20.00 16,55.68 16,100.00 16,144.32 51.68,180 96.00,180 c 44.32,0 80.00,-35.68 80.00,-80.00 0,-44.32 -35.68,-80.00 -80.00,-80.00 z" style="filter:url(#filter991);opacity:0.20;fill:#000000"/>
  <path fill="#e4e4e4" d="M 96.00,16.00 C 51.68,16.00 16,51.68 16,96.00 c 0,44.32 35.68,80.00 80.00,80.00 44.32,0 80.00,-35.68 80.00,-80.00 0,-44.32 -35.68,-80.00 -80.00,-80.00 z"/>
  <path style="opacity:0.20;fill:#ffffff" d="M 96 16 C 51.72 16.00 16.07 51.68 16.07 96 C 16.07 96.17 16.08 96.34 16.09 96.52 C 16.34 52.42 51.88 17.00 96 17 L 96.00 17 C 140.12 17.00 175.66 52.42 175.92 96.52 C 175.92 96.34 175.93 96.17 175.93 96 C 175.93 51.68 140.28 16.00 96.00 16 L 96 16 z "/>
  <path fill="#2971d5" d="M 96.00,32.00 A 64.00,64.00 0 0 0 32.00,96.00 64.00,64.00 0 0 0 96.00,160.00 64.00,64.00 0 0 0 160.00,96.00 64.00,64.00 0 0 0 96.00,32.00 Z m 8.00,12.00 A 48.00,48.00 0 0 1 152.00,92.00 48.00,48.00 0 0 1 104.00,140.00 48.00,48.00 0 0 1 56.00,92.00 48.00,48.00 0 0 1 104.00,44.00 Z"/>
  <g fill="#fc924d" transform="matrix(4.00,0,0,4.00,0.00,2.00)" style="filter:url(#filter1119);opacity:0.20;fill:#000000">
    <rect width="10" height="10" x="6" y="19" rx="2" ry="2" style="fill:#000000"/>
    <rect width="8" height="8" x="32" y="27" rx="1.60" ry="1.60" style="fill:#000000"/>
    <rect width="6" height="6" x="30" y="10" rx="1.20" ry="1.20" style="fill:#000000"/>
  </g>
  <g fill="#fc924d" transform="matrix(4.00,0,0,4.00,0.00,0.00)">
    <rect width="10" height="10" x="6" y="19" rx="2" ry="2"/>
    <rect width="8" height="8" x="32" y="27" rx="1.60" ry="1.60"/>
    <rect width="6" height="6" x="30" y="10" rx="1.20" ry="1.20"/>
  </g>
  <g fill="#ffffff" transform="matrix(4.00,0,0,4.00,0.00,0.00)">
    <path style="opacity:0.20;fill:#ffffff" d="M 124.79,40 C 122.13,40 120,42.14 120,44.80 v 1 C 120,43.14 122.13,41 124.79,41 h 14.41 c 2.66,0 4.80,2.14 4.80,4.80 v -1 C 144,42.14 141.86,40 139.20,40 Z M 32,76 c -4.43,0 -8,3.57 -8,8 v 1 c 0,-4.43 3.57,-8 8,-8 h 24 c 4.43,0 8,3.57 8,8 v -1 c 0,-4.43 -3.57,-8 -8,-8 z m 102.40,32 C 130.85,108 128,110.85 128,114.40 v 1 C 128,111.85 130.85,109 134.40,109 h 19.20 C 157.15,109 160,111.85 160,115.40 v -1 C 160,110.85 157.15,108 153.60,108 Z" transform="matrix(0.25,0,0,0.25,0.00,0.00)"/>
  </g>
  <g fill="#ffffff" transform="matrix(4.00,0,0,4.00,0.00,1.00)"/>
</svg>
