<?xml version='1.0' encoding='utf-8'?>
<svg xmlns="http://www.w3.org/2000/svg" width="192" height="192" version="1" id="svg12">
  <defs>
    <filter style="color-interpolation-filters:sRGB" id="filter860" x="-0.048000001" width="1.096" y="-0.048000001" height="1.096">
      <feGaussianBlur stdDeviation="3.2"/>
    </filter>
    <filter style="color-interpolation-filters:sRGB" id="filter884" x="-0.041783393" width="1.0835668" y="-0.056389773" height="1.1127795">
      <feGaussianBlur stdDeviation="1.3811166"/>
    </filter>
  </defs>
  <rect style="filter:url(#filter860);opacity:0.2" width="160" height="160" x="16" y="20" rx="8" ry="8"/>
  <rect style="fill:#e4e4e4" width="160" height="160" x="16" y="16" rx="8" ry="8"/>
  <path style="opacity:0.2;fill:#ffffff" d="m 24,16 c -4.432,0 -8,3.568 -8,8 v 1 c 0,-4.432 3.568,-8 8,-8 h 144 c 4.432,0 8,3.568 8,8 v -1 c 0,-4.432 -3.568,-8 -8,-8 z"/>
  <path style="fill:#0f55e2" d="m 64.000383,64 h 4.899471 l 6.455026,2.380952 2.645503,6.835979 V 104 h -14 z"/>
  <rect y="64" x="100.00038" height="40" width="14" style="fill:#0f55e2"/>
  <rect style="fill:#0f55e2" width="14" height="44" x="122.00038" y="60"/>
  <path style="filter:url(#filter884);opacity:0.2;fill:#000000;color:#000000;font-stretch:normal;font-variant-ligatures:normal;font-variant-position:normal;font-variant-caps:normal;font-variant-numeric:normal;font-variant-alternates:normal;font-feature-settings:normal;text-indent:0;text-align:start;text-decoration-line:none;text-decoration-style:solid;text-decoration-color:#000000;text-transform:none;writing-mode:lr-tb;direction:ltr;text-orientation:mixed;dominant-baseline:auto;baseline-shift:baseline;white-space:normal;shape-padding:0;clip-rule:nonzero;display:inline;overflow:visible;visibility:visible;isolation:auto;mix-blend-mode:normal;color-interpolation:sRGB;color-interpolation-filters:linearRGB;solid-color:#000000;solid-opacity:1;vector-effect:none;fill-rule:nonzero;color-rendering:auto;image-rendering:auto;shape-rendering:auto;text-rendering:auto;enable-background:accumulate" d="M 124.891,34.218421 86.12343,75.63053 66.221086,53.339515 55.77968,62.663733 l 25,28 a 7.0007,7.0007 0 0 0 10.330078,0.121094 l 44.000002,-47 z"/>
  <path style="fill:none;stroke:#3a7dff;stroke-width:14;stroke-linejoin:round" d="m 61.000383,56 25,28 43.999997,-47"/>
  <path style="fill:#3f3f3f;font-stretch:normal" d="m 56,114 v 36 h 4 v -14 h 6.601562 c 4.907975,0 7.557037,-0.69905 9.765626,-2.30664 C 78.723016,131.98836 80,128.51698 80,124.91211 80,120.77139 78.430107,117.50798 75.681641,115.90039 73.423972,114.53639 70.674295,114 66.011719,114 Z m 4,4 h 4.785156 c 4.17178,0 6.47292,0.30445 7.945313,1.03516 2.110429,1.07172 3.269531,2.6618 3.269531,5.87695 0,2.77673 -1.109579,4.81879 -2.974609,5.8418 C 71.503918,131.63077 69.692892,132 66.355469,132 H 60 Z m 37.951172,4 C 90.006535,122 84,128.06025 84,136.07422 84,144.03931 90.054951,150 98.193359,150 102.69855,150 106.91446,147.95485 108,144.67383 V 150 h 4 v -26 h -4 v 3.375 C 106.97559,124.98748 102.55325,122 97.951172,122 Z M 116,122 126.24023,147.36914 121.77344,158 h 4.36523 L 142,122 h -4.36523 L 128.75,141.83984 120.66602,122 Z m -17.976562,4 C 103.61785,126 108,130.30125 108,135.88477 108,141.55983 103.71015,146 98.208984,146 92.428097,146 88,141.56066 88,135.83984 88,130.39362 92.47565,126 98.023438,126 Z"/>
</svg>
