<?xml version='1.0' encoding='utf-8'?>
<svg xmlns="http://www.w3.org/2000/svg" width="192" height="192" version="1" id="svg12">
  <defs>
    <filter style="color-interpolation-filters:sRGB" id="filter955" x="-0.048000001" width="1.096" y="-0.048000001" height="1.096">
      <feGaussianBlur stdDeviation="3.2"/>
    </filter>
    <filter style="color-interpolation-filters:sRGB" id="filter3015" x="-0.108" y="-0.13745454" width="1.216" height="1.2749091">
      <feGaussianBlur stdDeviation="5.04"/>
    </filter>
  </defs>
  <rect style="filter:url(#filter955);opacity:0.2;fill:#000000" width="160" height="160" x="16" y="20" rx="30" ry="30"/>
  <rect style="fill:#4458c5" width="160" height="160" x="16" y="16" rx="30" ry="30"/>
  <path style="opacity:0.1;fill:#ffffff" d="M 46 16 C 29.38 16 16 29.38 16 46 L 16 47 C 16 30.38 29.38 17 46 17 L 146 17 C 162.62 17 176 30.38 176 47 L 176 46 C 176 29.38 162.62 16 146 16 L 46 16 z "/>
  <path style="filter:url(#filter3015);opacity:0.2;fill:#000000" d="m 96,52 a 56,56 0 0 0 -56,56 v 24 a 8,8 0 0 0 8,8 8,8 0 0 0 8,-8 v -24 a 8,8 0 0 1 8,-8 8,8 0 0 1 8,8 v 24 a 8,8 0 0 0 8,8 8,8 0 0 0 8,-8 v -24 a 8,8 0 0 1 8,-8 8,8 0 0 1 8,8 v 24 a 8,8 0 0 0 8,8 8,8 0 0 0 8,-8 v -24 a 8,8 0 0 1 8,-8 8,8 0 0 1 8,8 v 24 a 8,8 0 0 0 8,8 8,8 0 0 0 8,-8 V 108 A 56,56 0 0 0 96,52 Z"/>
  <path style="fill:#ffffff" d="m 96,50 a 56,56 0 0 0 -56,56 v 24 a 8,8 0 0 0 8,8 8,8 0 0 0 8,-8 v -24 a 8,8 0 0 1 8,-8 8,8 0 0 1 8,8 v 24 a 8,8 0 0 0 8,8 8,8 0 0 0 8,-8 v -24 a 8,8 0 0 1 8,-8 8,8 0 0 1 8,8 v 24 a 8,8 0 0 0 8,8 8,8 0 0 0 8,-8 v -24 a 8,8 0 0 1 8,-8 8,8 0 0 1 8,8 v 24 a 8,8 0 0 0 8,8 8,8 0 0 0 8,-8 V 106 A 56,56 0 0 0 96,50 Z"/>
</svg>
