<?xml version='1.0' encoding='utf-8'?>
<svg xmlns="http://www.w3.org/2000/svg" width="192" height="192" version="1" id="svg28">
  <defs>
    <filter style="color-interpolation-filters:sRGB" id="filter6495" x="0.05" y="0.05" width="1.10" height="1.10">
      <feGaussianBlur stdDeviation="3.20"/>
    </filter>
    <filter style="color-interpolation-filters:sRGB" id="filter6971" x="0.06" y="0.04" width="1.11" height="1.09">
      <feGaussianBlur stdDeviation="2.30"/>
    </filter>
    <filter style="color-interpolation-filters:sRGB" id="filter7014" x="0.19" y="0.05" width="1.38" height="1.09">
      <feGaussianBlur stdDeviation="0.94"/>
    </filter>
  </defs>
  <rect transform="matrix(0,-1,-1,0,0,0)" ry="12" rx="12" y="-176" x="-180" height="160" width="160" style="filter:url(#filter6495);opacity:0.20;fill:#000000"/>
  <rect transform="matrix(0,-1,-1,0,0,0)" ry="12" rx="12" y="-176" x="-176" height="160" width="160" style="fill:#6d41bb"/>
  <path style="filter:url(#filter6971);opacity:0.20;fill:#000000;mix-blend-mode:normal" d="m 52,48 c -3.32,0 -6,2.68 -6,6 v 16 c 0,3.32 2.68,6 6,6 h 88 c 3.32,0 6,-2.68 6,-6 V 54 c 0,-3.32 -2.68,-6 -6,-6 z m 80,8 c 3.31,0 6,2.69 6,6 0,3.31 -2.69,6 -6,6 -3.31,0 -6,-2.69 -6,-6 0,-3.31 2.69,-6 6,-6 z M 52,84 c -3.32,0 -6,2.68 -6,6 v 16 c 0,3.32 2.68,6 6,6 h 88 c 3.32,0 6,-2.68 6,-6 V 90 c 0,-3.32 -2.68,-6 -6,-6 z m 0,36 c -3.32,0 -6,2.68 -6,6 v 48 h 100 v -48 c 0,-3.32 -2.68,-6 -6,-6 z"/>
  <path style="opacity:0.10;fill:#ffffff" d="m 28,16 c -6.65,0 -12,5.35 -12,12 v 1 c 0,-6.65 5.35,-12 12,-12 h 136 c 6.65,0 12,5.35 12,12 v -1 c 0,-6.65 -5.35,-12 -12,-12 z"/>
  <path style="fill:#ffffff" d="M 52 46 C 48.68 46 46 48.68 46 52 L 46 68 C 46 71.32 48.68 74 52 74 L 140 74 C 143.32 74 146 71.32 146 68 L 146 52 C 146 48.68 143.32 46 140 46 L 52 46 z M 132 54 A 6 6 0 0 1 138 60 A 6 6 0 0 1 132 66 A 6 6 0 0 1 126 60 A 6 6 0 0 1 132 54 z "/>
  <path style="fill:#c5b3e4" d="m 52,82 h 88 c 3.32,0 6,2.68 6,6 v 16 c 0,3.32 -2.68,6 -6,6 H 52 c -3.32,0 -6,-2.68 -6,-6 V 88 c 0,-3.32 2.68,-6 6,-6 z"/>
  <path style="fill:#c5b3e4" d="M 52 118 C 48.68 118 46 120.68 46 124 L 46 176 L 146 176 L 146 124 C 146 120.68 143.32 118 140 118 L 52 118 z "/>
  <path style="filter:url(#filter7014);opacity:0.20;fill:#000000" d="m 132,91 a 6,6 0 0 0 -6,6 6,6 0 0 0 6,6 6,6 0 0 0 6,-6 6,6 0 0 0 -6,-6 z m 0,36 a 6,6 0 0 0 -6,6 6,6 0 0 0 6,6 6,6 0 0 0 6,-6 6,6 0 0 0 -6,-6 z"/>
  <path style="fill:#ffffff" d="M 132 90 A 6 6 0 0 0 126 96 A 6 6 0 0 0 132 102 A 6 6 0 0 0 138 96 A 6 6 0 0 0 132 90 z M 132 126 A 6 6 0 0 0 126 132 A 6 6 0 0 0 132 138 A 6 6 0 0 0 138 132 A 6 6 0 0 0 132 126 z "/>
  <path style="opacity:0.20;fill:#ffffff" d="M 52 82 C 48.68 82 46 84.68 46 88 L 46 89 C 46 85.68 48.68 83 52 83 L 140 83 C 143.32 83 146 85.68 146 89 L 146 88 C 146 84.68 143.32 82 140 82 L 52 82 z M 52 118 C 48.68 118 46 120.68 46 124 L 46 125 C 46 121.68 48.68 119 52 119 L 140 119 C 143.32 119 146 121.68 146 125 L 146 124 C 146 120.68 143.32 118 140 118 L 52 118 z "/>
</svg>
