<?xml version='1.0' encoding='utf-8'?>
<svg xmlns="http://www.w3.org/2000/svg" width="192" height="192" version="1" id="svg30">
  <defs>
    <filter style="color-interpolation-filters:sRGB" id="filter874" x="0.05" width="1.10" y="0.05" height="1.10">
      <feGaussianBlur stdDeviation="3.20"/>
    </filter>
    <filter style="color-interpolation-filters:sRGB" id="filter890" x="0.05" width="1.10" y="0.04" height="1.09">
      <feGaussianBlur stdDeviation="0.52"/>
    </filter>
  </defs>
  <rect style="filter:url(#filter874);opacity:0.20;fill:#000000" width="160" height="160" x="-180" y="-176" rx="80" ry="80" transform="matrix(0,-1,-1,0,0,0)"/>
  <rect transform="matrix(0,-1,-1,0,0,0)" ry="80" rx="80" y="-176" x="-176" height="160" width="160" style="fill:#7e3cac"/>
  <path style="opacity:0.10;fill:#ffffff" d="M 96.00 16 C 51.68 16.00 16 51.68 16 96 C 16 96.12 16.01 96.23 16.01 96.34 C 16.36 52.33 51.90 17.00 96.00 17 L 96 17 C 140.11 17.00 175.65 52.34 175.99 96.36 C 175.99 96.24 176.00 96.12 176.00 96 C 176.00 51.68 140.32 16.00 96 16 L 96.00 16 z "/>
  <g transform="matrix(4,0,0,4,0,12)" style="filter:url(#filter890);opacity:0.20">
    <path d="m 24,8 c -6.63,0 -12,5.37 -12,12 0.01,3.84 1.85,7.41 4.91,9.65 0.02,0.02 0.05,0.03 0.08,0.04 a 1,1 0 0 0 0.62,0.21 1,1 0 0 0 1,-1 A 1,1 0 0 0 18,27.98 v 0.00 C 15.49,26.10 14.01,23.14 14,20 c 0,-5.52 4.48,-10 10,-10 5.52,0 10,4.48 10,10 0.01,3.14 -1.49,6.09 -4,7.97 l 0.00,0.01 a 1,1 0 0 0 0.60,0.92 1,1 0 0 0 1,1 1,1 0 0 0 0.63,0.23 c 0.03,0.01 0.06,0.02 0.09,0.04 C 34.16,27.39 35.99,23.83 36,20 36,13.37 30.63,8 24,8 Z"/>
    <path d="m 24,12 c -4.42,0 -8,3.58 -8,8 0.00,2.41 1.09,4.66 2.91,6.16 0.04,0.03 0.08,0.05 0.12,0.06 a 1,1 0 0 0 0.57,0.18 1,1 0 0 0 1,-1 A 1,1 0 0 0 20,24.48 v 0.02 C 18.73,23.33 18.00,21.70 18,20 c 0,-3.31 2.69,-6 6,-6 3.31,0 6,2.69 6,6 0.00,1.70 0.73,3.33 -2,4.46 v 0.02 a 1,1 0 0 0 0.60,0.92 1,1 0 0 0 1,1 1,1 0 0 0 0.48,0.12 c 0.05,0.00 0.09,0.02 0.14,0.05 C 30.88,24.72 32.00,22.44 32,20 32,15.58 28.42,12 24,12 Z"/>
    <path d="m 24,17 a 3,3 0 0 0 -3,3 3,3 0 0 0 3,3 3,3 0 0 0 3,-3 3,3 0 0 0 -3,-3 z"/>
    <rect ry="3" rx="3" y="25" x="21" height="11" width="6"/>
  </g>
  <g transform="matrix(4,0,0,4,0,8)">
    <path d="m 24,8 c -6.63,0 -12,5.37 -12,12 0.01,3.84 1.85,7.41 4.91,9.65 0.02,0.02 0.05,0.03 0.08,0.04 a 1,1 0 0 0 0.62,0.21 1,1 0 0 0 1,-1 A 1,1 0 0 0 18,27.98 v 0.00 C 15.49,26.10 14.01,23.14 14,20 c 0,-5.52 4.48,-10 10,-10 5.52,0 10,4.48 10,10 0.01,3.14 -1.49,6.09 -4,7.97 l 0.00,0.01 a 1,1 0 0 0 0.60,0.92 1,1 0 0 0 1,1 1,1 0 0 0 0.63,0.23 c 0.03,0.01 0.06,0.02 0.09,0.04 C 34.16,27.39 35.99,23.83 36,20 36,13.37 30.63,8 24,8 Z" style="fill:#ffffff"/>
    <path d="m 24,12 c -4.42,0 -8,3.58 -8,8 0.00,2.41 1.09,4.66 2.91,6.16 0.04,0.03 0.08,0.05 0.12,0.06 a 1,1 0 0 0 0.57,0.18 1,1 0 0 0 1,-1 A 1,1 0 0 0 20,24.48 v 0.02 C 18.73,23.33 18.00,21.70 18,20 c 0,-3.31 2.69,-6 6,-6 3.31,0 6,2.69 6,6 0.00,1.70 0.73,3.33 -2,4.46 v 0.02 a 1,1 0 0 0 0.60,0.92 1,1 0 0 0 1,1 1,1 0 0 0 0.48,0.12 c 0.05,0.00 0.09,0.02 0.14,0.05 C 30.88,24.72 32.00,22.44 32,20 32,15.58 28.42,12 24,12 Z" style="fill:#ffffff"/>
    <path d="m 24,17 a 3,3 0 0 0 -3,3 3,3 0 0 0 3,3 3,3 0 0 0 3,-3 3,3 0 0 0 -3,-3 z" style="fill:#ffffff"/>
    <rect ry="3" rx="3" y="25" x="21" height="11" width="6" style="fill:#ffffff"/>
  </g>
</svg>
