<?xml version='1.0' encoding='utf-8'?>
<svg xmlns="http://www.w3.org/2000/svg" width="192" height="192" version="1" id="svg28">
  <defs>
    <filter style="color-interpolation-filters:sRGB" id="filter4609" x="0.06" y="0.07" width="1.12" height="1.14">
      <feGaussianBlur stdDeviation="2.94"/>
    </filter>
    <filter style="color-interpolation-filters:sRGB" id="filter4613" x="0.06" y="0.06" width="1.11" height="1.13">
      <feGaussianBlur stdDeviation="2.94"/>
    </filter>
    <filter style="color-interpolation-filters:sRGB" id="filter4617" x="0.07" y="0.09" width="1.15" height="1.17">
      <feGaussianBlur stdDeviation="2.94"/>
    </filter>
  </defs>
  <path style="filter:url(#filter4613);opacity:0.20;fill:#000000" d="m 146.76,68.09 c -17.17,20.56 -34.11,38.04 -36.31,40.77 -8.66,4.73 -19.20,7.60 -29.96,8.15 -11.92,0.57 -34.26,21.96 -41.05,30.85 9.99,15.82 25.96,26.86 44.78,30.32 7.20,1.33 19.78,1.02 26.90,0.66 25.70,-6.06 44.86,-25.76 50.71,-52.15 1.44,-6.50 1.57,-19.64 0.25,-25.84 -2.55,-12.00 -7.72,-22.55 -15.33,-31.43 z"/>
  <path style="fill:#23af00" d="m 146.76,65.09 c -17.17,20.56 -34.11,38.04 -36.31,40.77 -8.66,4.73 -19.20,7.60 -29.96,8.15 -11.92,0.57 -34.26,21.96 -41.05,30.85 9.99,15.82 25.96,26.86 44.78,30.32 7.20,1.33 19.78,1.02 26.90,0.66 25.70,-6.06 44.86,-25.76 50.71,-52.15 1.44,-6.50 1.57,-19.64 0.25,-25.84 -2.55,-12.00 -7.72,-22.55 -15.33,-31.43 z"/>
  <path style="filter:url(#filter4609);opacity:0.20;fill:#000000" d="m 126.63,51.76 c -24.52,4.52 -27.93,14.74 -49.58,22.25 -16.91,5.42 -20.50,9.76 -46.08,21.41 -1.40,5.28 -1.92,10.40 -1.90,16.82 0.02,8.71 0.90,14.08 3.52,21.51 1.77,5.04 4.10,9.74 6.86,14.11 11.46,5.83 23.90,8.65 35.82,8.08 10.75,0.55 21.30,-3.42 29.96,-8.15 30.50,-17.92 41.26,-46.80 41.54,-79.70 0.84,0.98 -1.68,-1.95 -2.58,-2.89 -4.67,-4.88 -8.99,-8.22 -16.54,-12.80 0.35,0.21 0.67,0.43 -1.01,0.64 z"/>
  <path style="fill:#00d8e1" d="m 126.63,48.76 c -24.52,4.52 -27.93,14.74 -49.58,22.25 -16.91,5.42 -20.50,9.76 -46.08,21.41 -1.40,5.28 -1.92,10.40 -1.90,16.82 0.02,8.71 0.90,14.08 3.52,21.51 1.77,5.04 4.10,9.74 6.86,14.11 11.46,5.83 23.90,8.65 35.82,8.08 10.75,0.55 21.30,-3.42 29.96,-8.15 30.50,-17.92 41.26,-46.80 41.54,-79.70 0.84,0.98 -1.68,-1.95 -2.58,-2.89 -4.67,-4.88 -8.99,-8.22 -16.54,-12.80 0.35,0.21 0.67,0.43 -1.01,0.64 z"/>
  <path style="filter:url(#filter4617);opacity:0.20;fill:#000000" d="m 113.55,19.00 c -1.02,0 -6.19,1.36 -10.27,2.69 C 87.42,26.88 67.39,40.83 52.81,56.83 45.73,64.61 41.76,70.34 37.48,79.04 34.33,85.44 32.29,90.50 30.99,95.42 46.96,102.99 61.26,103.94 78.17,98.52 99.81,91.01 116.94,74.30 126.63,51.76 119.71,47.44 114.40,42.78 112.30,38.73 c -1.17,-2.25 -1.31,-3.01 -1.26,-6.55 0.04,-2.47 0.50,-5.76 1.21,-8.59 0.63,-2.53 1.38,-4.59 1.30,-4.59 z"/>
  <path style="fill:#f36330" d="m 113.55,16 c -1.02,0 -6.19,1.36 -10.27,2.69 -15.86,5.19 -35.89,19.14 -50.47,35.14 -7.09,7.78 -11.05,13.51 -15.33,22.21 -3.15,6.40 -5.19,11.46 -6.49,16.38 15.96,7.57 30.27,8.52 47.17,3.10 C 99.81,88.01 116.94,71.30 126.63,48.76 119.71,44.44 114.40,39.78 112.30,35.73 c -1.17,-2.25 -1.31,-3.01 -1.26,-6.55 0.04,-2.47 0.50,-5.76 1.21,-8.59 C 112.88,18.07 113.63,16 113.55,16 Z"/>
  <path style="opacity:0.20;fill:#ffffff" d="M 113.55 16 C 112.53 16 107.36 17.36 103.28 18.69 C 87.42 23.88 67.39 37.83 52.81 53.83 C 45.73 61.61 41.76 67.35 37.48 76.04 C 34.33 82.43 32.30 87.48 31.00 92.40 C 30.99 92.40 30.98 92.41 30.97 92.41 C 29.58 97.69 29.06 102.81 29.07 109.23 C 29.07 109.38 29.08 109.49 29.08 109.63 C 29.10 103.50 29.62 98.52 30.97 93.41 C 30.98 93.41 30.99 93.40 31.00 93.40 C 32.30 88.48 34.33 83.43 37.48 77.04 C 41.76 68.35 45.73 62.61 52.81 54.83 C 67.39 38.83 87.42 24.88 103.28 19.69 C 107.15 18.42 111.90 17.17 113.25 17.05 C 113.42 16.52 113.58 16 113.55 16 z M 111.04 30.12 C 111.04 30.14 111.04 30.17 111.04 30.19 C 110.98 33.73 111.13 34.48 112.30 36.73 C 114.40 40.78 119.71 45.44 126.63 49.76 C 126.97 49.97 127.29 50.19 127.64 50.40 C 135.19 54.97 139.50 58.31 144.18 63.20 C 145.08 64.13 145.92 65.11 146.76 66.09 C 154.36 74.97 159.53 85.52 162.08 97.52 C 162.71 100.46 163.00 104.96 162.99 109.57 C 163.05 104.61 162.75 99.67 162.08 96.52 C 159.53 84.52 154.36 73.97 146.76 65.09 C 145.92 64.11 145.08 63.13 144.18 62.20 C 139.50 57.31 135.19 53.97 127.64 49.40 C 127.29 49.19 126.97 48.97 126.63 48.76 C 119.71 44.44 114.40 39.78 112.30 35.73 C 111.25 33.72 111.04 32.80 111.04 30.12 z "/>
</svg>
