<?xml version='1.0' encoding='utf-8'?>
<svg xmlns="http://www.w3.org/2000/svg" width="192" height="192" version="1.1" id="svg12">
  <defs>
    <filter style="color-interpolation-filters:sRGB" id="filter1348" x="0.04" y="0.05" width="1.09" height="1.10">
      <feGaussianBlur stdDeviation="2.96"/>
    </filter>
  </defs>
  <path style="filter:url(#filter1348);opacity:0.20;fill:#000000" d="M 61.80,32 C 36.44,32.23 16,52.74 16,77.97 16,88.92 18.94,99.58 26.27,106.86 L 96,168 164.42,108.41 C 171.96,100.91 176,89.64 176,77.97 176,52.58 155.31,32 129.79,32 116.98,32 104.74,37.29 96,46.60 87.26,37.29 75.02,32 62.21,32 c 0.14,0 0.28,0 0.42,0 z m 0,0"/>
  <path style="fill:#ffae25" d="M 61.80 28 C 36.44 28.23 16 48.74 16 73.97 C 16 84.92 18.94 95.57 26.27 102.86 L 96 164 L 164.42 104.41 C 171.96 96.91 176 85.64 176 73.97 C 176 48.58 155.31 28 129.79 28 C 116.98 28 104.74 33.29 96 42.61 C 87.26 33.29 75.02 28 62.21 28 L 61.80 28 z "/>
  <path style="opacity:0.20;fill:#ffffff" d="M 61.80 28 C 36.44 28.23 16 48.74 16 73.97 C 16 74.11 16.01 74.25 16.01 74.39 C 16.33 49.43 36.63 29.23 61.80 29 L 62.21 29 C 75.02 29 87.26 34.29 96 43.61 C 104.74 34.29 116.98 29 129.79 29 C 155.10 29 175.65 49.24 175.98 74.34 C 175.99 74.22 176 74.10 176 73.97 C 176 48.58 155.31 28 129.79 28 C 116.98 28 104.74 33.29 96 42.61 C 87.26 33.29 75.02 28 62.21 28 L 61.80 28 z "/>
  <path style="opacity:0.20;fill:#ffffff" d="M 61.93 43 C 44.59 43.16 31 56.85 31 73.97 C 31 82.16 33.24 88.54 36.75 92.10 L 96.03 144.08 L 153.95 93.64 C 158.00 89.52 161 82.11 161 73.97 C 161 56.73 147.25 43 129.79 43 C 121.11 43 112.84 46.58 106.94 52.87 A 15.00 15.00 0 0 1 85.06 52.87 C 79.16 46.58 70.89 43 62.21 43 L 61.93 43 z "/>
</svg>
