<?xml version='1.0' encoding='utf-8'?>
<svg xmlns="http://www.w3.org/2000/svg" width="192" height="192" version="1.0" id="svg12">
  <defs>
    <filter style="color-interpolation-filters:sRGB" id="filter856" x="0.05" width="1.10" y="0.05" height="1.10">
      <feGaussianBlur stdDeviation="3.20"/>
    </filter>
    <filter style="color-interpolation-filters:sRGB" id="filter872" x="0.05" width="1.10" y="0.05" height="1.10">
      <feGaussianBlur stdDeviation="2.56"/>
    </filter>
  </defs>
  <circle style="filter:url(#filter856);opacity:0.20" cx="96" cy="-100" r="80" transform="scale(1,-1)"/>
  <circle style="fill:#565c64" cx="96" cy="-96" r="80" transform="scale(1,-1)"/>
  <path style="filter:url(#filter872);opacity:0.20" d="m 100,36.03 v 54.31 l 38.42,-38.42 0.85,0.70 C 129.51,44.42 120.01,39.69 109.95,37.46 107.04,36.83 102.32,36.17 100,36.03 Z m -8,0.02 c 0.29,0.01 0.51,0.01 0.80,0.03 -13.64,1.12 -26.33,6.35 -36.76,15.14 L 53.59,51.93 92,90.34 Z M 144.08,57.58 105.66,96 h 54.28 l 0.01,0.20 c 0.33,-7.64 -2.91,-17.09 -6.73,-24.73 -2.13,-4.27 -6.07,-10.08 -9.07,-13.43 z m -96.15,0.01 0.73,0.88 C 41.55,65.14 37.55,72.41 34.88,80.80 c -1.48,4.59 -2.60,10.73 -2.79,15 L 32.08,96 H 86.34 Z M 32.09,104 c 0.06,1.45 0.29,4.01 0.65,6.21 1.78,11.39 6.82,22.31 14.46,31.36 l 0.71,0.86 L 86.34,104 Z m 73.56,0 38.44,38.44 0.72,0.87 c 5.65,-6.68 9.66,-13.95 12.33,-22.34 1.48,-4.59 2.60,-10.73 2.79,-15 L 159.94,104 Z M 92,109.66 l -38.43,38.43 0.88,0.73 c 6.68,5.65 13.95,9.66 22.34,12.33 4.59,1.48 10.73,2.60 15,2.79 L 92,163.94 Z m 8,0 v 54.28 l 0.23,0.01 c 4.27,0.19 10.41,-1.31 15,-2.79 8.39,-2.67 15.66,-6.68 22.34,-12.33 l 0.87,0.72 z"/>
  <path style="fill:#ffffff" d="m 100,32.03 v 54.31 l 38.42,-38.42 0.85,0.70 C 129.51,40.42 120.01,35.69 109.95,33.46 107.04,32.83 102.32,32.17 100,32.03 Z m -8,0.02 c 0.29,0.01 0.51,0.01 0.80,0.03 -13.64,1.12 -26.33,6.35 -36.76,15.14 L 53.59,47.93 92,86.34 Z M 144.08,53.58 105.66,92 h 54.28 l 0.01,0.20 c 0.33,-7.64 -2.91,-17.09 -6.73,-24.73 -2.13,-4.27 -6.07,-10.08 -9.07,-13.43 z m -96.15,0.01 0.73,0.88 C 41.55,61.14 37.55,68.41 34.88,76.80 c -1.48,4.59 -2.60,10.73 -2.79,15 L 32.08,92 H 86.34 Z M 32.09,100 c 0.06,1.45 0.29,4.01 0.65,6.21 1.78,11.39 6.82,22.31 14.46,31.36 l 0.71,0.86 L 86.34,100 Z m 73.56,0 38.44,38.44 0.72,0.87 c 5.65,-6.68 9.66,-13.95 12.33,-22.34 1.48,-4.59 2.60,-10.73 2.79,-15 L 159.94,100 Z M 92,105.66 l -38.43,38.43 0.88,0.73 c 6.68,5.65 13.95,9.66 22.34,12.33 4.59,1.48 10.73,2.60 15,2.79 L 92,159.94 Z m 8,0 v 54.28 l 0.23,0.01 c 4.27,0.19 10.41,-1.31 15,-2.79 8.39,-2.67 15.66,-6.68 22.34,-12.33 l 0.87,0.72 z"/>
  <path style="opacity:0.10;fill:#ffffff" d="M 96 16 A 80 80 0 0 0 16 96 A 80 80 0 0 0 16.02 96.41 A 80 80 0 0 1 96 17 A 80 80 0 0 1 175.98 96.58 A 80 80 0 0 0 176 96 A 80 80 0 0 0 96 16 z "/>
</svg>
