<?xml version='1.0' encoding='utf-8'?>
<svg xmlns="http://www.w3.org/2000/svg" width="192" height="192" version="1" id="svg20">
  <defs>
    <filter style="color-interpolation-filters:sRGB" id="filter865" x="-0.048000106" width="1.0960002" y="-0.047999896" height="1.0959998">
      <feGaussianBlur stdDeviation="3.3599781"/>
    </filter>
    <filter style="color-interpolation-filters:sRGB" id="filter900" x="-0.054666666" width="1.1093333" y="-0.042782608" height="1.0855652">
      <feGaussianBlur stdDeviation="1.64"/>
    </filter>
  </defs>
  <path d="m 96,16.000729 c -2.106484,0 -4.214028,0.807779 -5.828124,2.421875 L 68.593752,40.000729 H 44 c -4.432,0 -8,3.568 -8,8 V 72.594481 L 14.421875,94.172605 c -3.228192,3.228192 -3.228192,8.428055 0,11.656255 L 36,127.40698 v 24.59375 c 0,4.432 3.568,8 8,8 h 24.593752 l 21.578124,21.57813 c 3.228192,3.22819 8.428056,3.22819 11.656244,0 l 21.57813,-21.57813 H 148 c 4.432,0 8,-3.568 8,-8 v -24.59375 l 21.57812,-21.57812 c 3.2282,-3.2282 3.2282,-8.428063 0,-11.656255 L 156,72.594481 V 48.000729 c 0,-4.432 -3.568,-8 -8,-8 H 123.40625 L 101.82812,18.422604 C 100.21403,16.808508 98.106484,16.000729 96,16.000729 Z" style="filter:url(#filter865);opacity:0.2"/>
  <rect ry="8" rx="8" y="36" x="36" height="120" width="120" style="fill:#ffc107"/>
  <rect transform="rotate(45)" ry="8.2399998" rx="8.2399998" y="-61.799999" x="73.959999" height="123.612" width="123.612" style="fill:#ffc107"/>
  <path d="m 96,56 -10,8 -10,8 0.06252,0.04688 a 36,36 0 0 0 -0.008,0.008 l 10.109376,8.085936 a 24,24 0 0 1 0.008,0 L 96,88 V 78 a 24,24 0 0 1 24,24 24,24 0 0 1 -2.53906,10.67188 l 9.50781,7.60156 A 36,36 0 0 0 132,102 36,36 0 0 0 96,66 Z M 65.031248,83.726564 A 36,36 0 0 0 60,102 36,36 0 0 0 96,138 v 10 l 10,-8 10,-8 -0.0625,-0.0469 a 36,36 0 0 0 0.008,-0.008 l -10.10938,-8.08594 a 24,24 0 0 1 -0.008,0 L 96,116 v 10 A 24,24 0 0 1 72,102 24,24 0 0 1 74.539064,91.328124 Z" style="filter:url(#filter900);opacity:0.1"/>
  <path style="opacity:0.2;fill:#ffffff" d="M 96 12 C 93.893516 12 91.785971 12.807779 90.171875 14.421875 L 68.59375 36 L 44 36 C 39.568 36 36 39.568 36 44 L 36 45 C 36 40.568 39.568 37 44 37 L 68.59375 37 L 90.171875 15.421875 C 91.785971 13.807779 93.893516 13 96 13 C 98.106484 13 100.21403 13.807778 101.82812 15.421875 L 123.40625 37 L 148 37 C 152.432 37 156 40.568 156 45 L 156 44 C 156 39.568 152.432 36 148 36 L 123.40625 36 L 101.82812 14.421875 C 100.21403 12.807778 98.106484 12 96 12 z M 36 68.59375 L 14.421875 90.171875 C 12.689259 91.904491 11.925401 94.20065 12.056641 96.458984 C 12.173988 94.535648 12.945126 92.648624 14.421875 91.171875 L 36 69.59375 L 36 68.59375 z M 156 68.59375 L 156 69.59375 L 177.57812 91.171875 C 179.05488 92.648624 179.82601 94.535648 179.94336 96.458984 C 180.07459 94.20065 179.31074 91.904491 177.57812 90.171875 L 156 68.59375 z "/>
  <path d="m 96,60 a 36,36 0 0 0 -19.945312,6.054688 l 10.109376,8.085936 A 24,24 0 0 1 96,72 a 24,24 0 0 1 24,24 24,24 0 0 1 -2.53906,10.67188 l 9.50781,7.60156 A 36,36 0 0 0 132,96 36,36 0 0 0 96,60 Z M 65.031248,77.726564 A 36,36 0 0 0 60,96 a 36,36 0 0 0 36,36 36,36 0 0 0 19.94531,-6.05469 l -10.10937,-8.08593 A 24,24 0 0 1 96,120 24,24 0 0 1 72,96 24,24 0 0 1 74.539064,85.328124 Z" style="fill:#486ad6"/>
  <path d="m 76.000001,65.999999 10,-7.999999 10,-7.999999 V 65.999999 L 96,81.999998 86.000001,73.999999 Z" style="fill:#486ad6"/>
  <path d="m 116,126 -10,8 -9.999999,8 v -16 l 10e-7,-15.99999 L 106,118 Z" style="fill:#486ad6"/>
</svg>
