<svg xmlns="http://www.w3.org/2000/svg" id="svg28" width="192" height="192" version="1"><defs><filter style="color-interpolation-filters:sRGB" id="filter20739" width="1.07" height="1.14" x=".04" y=".07"><feGaussianBlur stdDeviation="2.46"/></filter><filter style="color-interpolation-filters:sRGB" id="filter20781" width="1.17" height="1.14" x=".08" y=".07"><feGaussianBlur stdDeviation="3.72"/></filter></defs><path style="filter:url(#filter20739);opacity:.2;fill:#000" d="m 55,81.00 a 41,41 0 0 0 -41,41.00 41,41 0 0 0 41,41 h 41 41 a 41,41 0 0 0 41,-41 A 41,41 0 0 0 137,81.00 41,41 0 0 0 96,122.00 41,41 0 0 0 55,81.00 Z"/><path style="fill:#2cd4ed" d="m 55,77.00 a 41,41 0 0 0 -41,41.00 41,41 0 0 0 41,41 h 41 v -41 A 41,41 0 0 0 55,77.00 Z"/><path style="fill:#3169ff" d="m 137,77.00 a 41,41 0 0 1 41,41.00 41,41 0 0 1 -41,41 H 96 v -41 a 41,41 0 0 1 41,-41.00 z"/><path style="filter:url(#filter20781);opacity:.2;fill:#000" d="m 57.82,46.77 a 54.00,53.85 0 0 1 76.37,0.00 54.00,53.85 0 0 1 0,76.15 L 96,161.00 57.82,122.92 a 54.00,53.85 0 0 1 0,-76.15 z"/><path style="fill:#1988e0" d="m 57.82,44.77 a 54.00,53.85 0 0 1 76.37,0.00 54.00,53.85 0 0 1 0,76.15 L 96,159.00 57.82,120.92 a 54.00,53.85 0 0 1 0,-76.15 z"/><path style="opacity:.2;fill:#fff" d="M 96,29.00 A 54.00,53.85 0 0 0 57.82,44.77 54.00,53.85 0 0 0 42.04,83.35 54.00,53.85 0 0 1 57.82,45.77 a 54.00,53.85 0 0 1 76.37,0 54.00,53.85 0 0 1 15.80,37.58 A 54.00,53.85 0 0 0 134.18,44.77 54.00,53.85 0 0 0 96,29.00 Z"/><path style="fill:#0db4e2" d="M 55,77.00 A 41,41 0 0 0 42.30,79.09 54.00,53.85 0 0 0 57.82,120.92 L 96,159.00 v -41 A 41,41 0 0 0 55,77.00 Z"/><path style="opacity:.1;fill:#fff" d="M 137,77.00 A 41,41 0 0 0 96,118.00 v 1 A 41,41 0 0 1 137,78.00 41,41 0 0 1 177.98,118.25 41,41 0 0 0 178,118.00 41,41 0 0 0 137,77.00 Z"/><path style="fill:#3153ff" d="M 137,77.00 A 41,41 0 0 0 96,118.00 v 41 l 38.18,-38.08 A 54.00,53.85 0 0 0 149.85,79.08 41,41 0 0 0 137,77.00 Z"/><path style="opacity:.2;fill:#fff" d="m 55,77.00 a 41,41 0 0 0 -41,41.00 41,41 0 0 0 0.04,0.50 A 41,41 0 0 1 55,78.00 41,41 0 0 1 96,119.00 v -1 A 41,41 0 0 0 55,77.00 Z"/></svg>