<?xml version='1.0' encoding='utf-8'?>
<svg xmlns="http://www.w3.org/2000/svg" width="192" height="192" version="1" id="svg28">
  <defs>
    <filter style="color-interpolation-filters:sRGB" id="filter6495" x="0.05" y="0.05" width="1.10" height="1.10">
      <feGaussianBlur stdDeviation="3.20"/>
    </filter>
    <filter style="color-interpolation-filters:sRGB" id="filter7283" x="0.12" y="0.10" width="1.24" height="1.20">
      <feGaussianBlur stdDeviation="4.57"/>
    </filter>
  </defs>
  <rect transform="matrix(0,-1,-1,0,0,0)" ry="12" rx="12" y="-176" x="-180" height="160" width="160" style="filter:url(#filter6495);opacity:0.20;fill:#000000"/>
  <rect transform="matrix(0,-1,-1,0,0,0)" ry="12" rx="12" y="-176" x="-176" height="160" width="160" style="fill:#3f3f3f"/>
  <path style="filter:url(#filter7283);opacity:0.20;fill:#000000;color:#000000" d="m 50,44.47 v 6 42.47 c 0,7.74 3.10,14.38 7.39,19.88 1.52,1.95 7.58,7.36 9.31,9.03 C 64.20,114.62 62,114.05 62,103.41 V 92.94 71.00 v -6 -8.53 0.47 h 59 V 44.47 Z M 71,65.00 v 6 42.47 c 0,10.50 5.71,18.98 12.35,25.36 6.63,6.38 14.45,11.10 20.31,14.67 l 3.36,2.04 3.21,-2.26 c 5.43,-3.82 13.04,-8.45 19.56,-14.67 C 136.31,132.38 142,124.03 142,113.47 V 65.00 Z m 12,12 h 47 v 36.47 c 0,6.33 -3.25,11.44 -8.50,16.45 -4.32,4.12 -9.75,7.75 -14.86,11.24 -5.09,-3.17 -10.58,-6.76 -14.98,-10.99 C 86.33,125.05 83,119.63 83,113.47 Z"/>
  <path style="opacity:0.10;fill:#ffffff" d="m 28,16 c -6.65,0 -12,5.35 -12,12 v 1 c 0,-6.65 5.35,-12 12,-12 h 136 c 6.65,0 12,5.35 12,12 v -1 c 0,-6.65 -5.35,-12 -12,-12 z"/>
  <path style="fill:#ffffff;color:#000000" d="m 71,63 v 6 42.47 c 0,10.50 5.71,18.98 12.35,25.36 6.63,6.38 14.45,11.10 20.31,14.67 l 3.36,2.04 3.21,-2.26 c 5.43,-3.82 13.04,-8.45 19.56,-14.67 C 136.31,130.38 142,122.03 142,111.47 V 63 Z m 12,12 h 47 v 36.47 c 0,6.33 -3.25,11.44 -8.50,16.45 -4.32,4.12 -9.75,7.75 -14.86,11.24 -5.09,-3.17 -10.58,-6.76 -14.98,-10.99 C 86.33,123.05 83,117.63 83,111.47 Z"/>
  <path style="fill:#00c261;color:#000000" d="m 50,42 v 6.47 42.47 c 0,7.74 3.10,14.38 7.39,19.89 1.52,1.95 7.58,7.36 9.31,9.03 C 64.20,112.62 62,112.05 62,101.41 V 90.94 69 63 54.47 54 h 59 V 42 Z"/>
  <path style="opacity:0.20;fill:#ffffff;color:#000000" d="m 50,42 v 1 h 71 v -1 z"/>
</svg>
