<?xml version='1.0' encoding='utf-8'?>
<svg xmlns="http://www.w3.org/2000/svg" width="192" height="192" version="1" id="svg28">
  <defs>
    <filter style="color-interpolation-filters:sRGB" id="filter6495" x="-0.048000001" y="-0.048000001" width="1.096" height="1.096">
      <feGaussianBlur stdDeviation="3.2"/>
    </filter>
    <filter style="color-interpolation-filters:sRGB" id="filter7283" x="-0.11919115" y="-0.098729998" width="1.2383823" height="1.19746">
      <feGaussianBlur stdDeviation="4.5689941"/>
    </filter>
  </defs>
  <rect transform="matrix(0,-1,-1,0,0,0)" ry="12" rx="12" y="-176" x="-180" height="160" width="160" style="filter:url(#filter6495);opacity:0.2;fill:#000000"/>
  <rect transform="matrix(0,-1,-1,0,0,0)" ry="12" rx="12" y="-176" x="-176" height="160" width="160" style="fill:#3f3f3f"/>
  <path style="filter:url(#filter7283);opacity:0.2;fill:#000000;color:#000000" d="m 50,44.466597 v 6 42.46875 c 0,7.739383 3.103592,14.375723 7.390625,19.884763 1.52048,1.95389 7.579638,7.36035 9.3125,9.0293 C 64.195856,114.61932 62,114.05235 62,103.41191 V 92.935347 70.9998 v -6 -8.533203 -0.466797 h 59 V 44.466597 Z M 71,64.9998 v 6 42.46875 c 0,10.50305 5.713817,18.97695 12.347656,25.35547 6.63384,6.37852 14.452666,11.10416 20.306644,14.66601 l 3.35742,2.04297 3.21289,-2.25976 c 5.4275,-3.81629 13.03512,-8.44933 19.55859,-14.66992 C 136.30667,132.38272 142,124.03376 142,113.46855 V 64.9998 Z m 12,12 h 47 v 36.46875 c 0,6.33314 -3.24534,11.44234 -8.49805,16.45117 -4.31909,4.11857 -9.74801,7.75049 -14.85937,11.24414 -5.09249,-3.16768 -10.577824,-6.75891 -14.978518,-10.99023 C 86.331606,125.0464 83,119.62885 83,113.46855 Z"/>
  <path style="opacity:0.1;fill:#ffffff" d="m 28,16 c -6.648,0 -12,5.352 -12,12 v 1 c 0,-6.648 5.352,-12 12,-12 h 136 c 6.648,0 12,5.352 12,12 v -1 c 0,-6.648 -5.352,-12 -12,-12 z"/>
  <path style="fill:#ffffff;color:#000000" d="m 71,63 v 6 42.46875 c 0,10.50305 5.713817,18.97695 12.347656,25.35547 6.63384,6.37852 14.452669,11.10416 20.306644,14.66601 l 3.35742,2.04297 3.21289,-2.25976 c 5.4275,-3.81629 13.03512,-8.44933 19.55859,-14.66992 C 136.30667,130.38292 142,122.03396 142,111.46875 V 63 Z m 12,12 h 47 v 36.46875 c 0,6.33314 -3.24534,11.44234 -8.49805,16.45117 -4.31909,4.11857 -9.74801,7.75049 -14.85937,11.24414 -5.09249,-3.16768 -10.577824,-6.75891 -14.978518,-10.99023 C 86.331606,123.0466 83,117.62905 83,111.46875 Z"/>
  <path style="fill:#00c261;color:#000000" d="m 50,42 v 6.466797 42.46875 c 0,7.739387 3.102662,14.376443 7.389695,19.885483 1.52048,1.95389 7.581183,7.36036 9.314045,9.02931 C 64.196471,112.62025 62,112.05313 62,101.41269 V 90.935547 69 63 54.466797 54 h 59 V 42 Z"/>
  <path style="opacity:0.2;fill:#ffffff;color:#000000" d="m 50,42 v 1 h 71 v -1 z"/>
</svg>
