<?xml version='1.0' encoding='utf-8'?>
<svg xmlns="http://www.w3.org/2000/svg" width="192" height="192" version="1" id="svg28">
  <defs>
    <filter style="color-interpolation-filters:sRGB" id="filter16496" x="0.03" y="0.08" width="1.07" height="1.16">
      <feGaussianBlur stdDeviation="2.30"/>
    </filter>
    <filter style="color-interpolation-filters:sRGB" id="filter17170" x="0.07" y="0.08" width="1.14" height="1.17">
      <feGaussianBlur stdDeviation="4.52"/>
    </filter>
  </defs>
  <path style="filter:url(#filter16496);opacity:0.20;fill:#000000" d="m 28,170 c -6.65,0 -12,-5.35 -12,-12 V 99.80 H 176 V 158 c 0,6.65 -5.35,12 -12,12 z"/>
  <path style="fill:#42457b" d="m 28,166 c -6.65,0 -12,-5.35 -12,-12 V 95.80 H 53.79 L 76.91,37.81 115.50,32.69 133.82,95.80 H 176 V 154 c 0,6.65 -5.35,12 -12,12 z"/>
  <path style="filter:url(#filter17170);opacity:0.20;fill:#000000" d="m 28,29.00 c -6.65,0 -12,5.35 -12,12 v 58 H 69.78 L 95.24,55.63 80.35,47.03 95.97,42.82 111.59,38.60 115.75,54.24 119.91,69.87 105.63,61.63 83.69,99.00 h 23.58 l -21.23,36.16 -14.28,-8.24 4.16,15.64 4.16,15.64 15.62,-4.22 15.62,-4.22 -14.89,-8.60 24.76,-42.16 H 176 v -58 c 0,-6.65 -5.35,-12 -12,-12 z"/>
  <path style="fill:#00dae2" d="M 28 26 C 21.35 26 16 31.35 16 38 L 16 96 L 69.78 96 L 95.24 52.63 L 80.35 44.04 L 95.97 39.82 L 111.59 35.60 L 115.75 51.24 L 119.91 66.88 L 105.63 58.63 L 83.69 96 L 107.27 96 L 86.04 132.16 L 71.77 123.92 L 75.92 139.56 L 80.08 155.20 L 95.70 150.98 L 111.33 146.76 L 96.43 138.16 L 121.19 96 L 176 96 L 176 38 C 176 31.35 170.65 26 164 26 L 28 26 z "/>
  <path style="opacity:0.20;fill:#ffffff" d="M 28 26 C 21.35 26 16 31.35 16 38 L 16 39 C 16 32.35 21.35 27 28 27 L 164 27 C 170.65 27 176 32.35 176 39 L 176 38 C 176 31.35 170.65 26 164 26 L 28 26 z M 81.53 44.72 L 80.35 45.04 L 94.80 53.38 L 95.24 52.63 L 81.53 44.72 z M 105.63 58.63 L 83.69 96 L 84.28 96 L 105.63 59.63 L 119.91 67.88 L 119.59 66.69 L 105.63 58.63 z M 106.69 97 L 86.04 132.16 L 71.77 123.92 L 72.08 125.10 L 86.04 133.16 L 107.27 97 L 106.69 97 z M 96.87 138.41 L 96.43 139.16 L 110.15 147.08 L 111.33 146.76 L 96.87 138.41 z "/>
</svg>
