<?xml version='1.0' encoding='utf-8'?>
<svg xmlns="http://www.w3.org/2000/svg" width="192" height="192" version="1" id="svg30">
  <defs>
    <filter style="color-interpolation-filters:sRGB" id="filter4904" x="0.04" y="0.05" width="1.09" height="1.11">
      <feGaussianBlur stdDeviation="3.20"/>
    </filter>
    <filter style="color-interpolation-filters:sRGB" id="filter5070" x="0.04" y="0.05" width="1.09" height="1.11">
      <feGaussianBlur stdDeviation="1.72"/>
    </filter>
    <filter style="color-interpolation-filters:sRGB" id="filter5115" x="0.05" y="0.05" width="1.09" height="1.10">
      <feGaussianBlur stdDeviation="1.56"/>
    </filter>
  </defs>
  <path style="filter:url(#filter5070);opacity:0.20;fill:#000000" d="m 48,104 v 57.70 L 96,180 144,161.70 V 104 l -48,19.40 z"/>
  <path style="fill:#8a6b60" d="M 144,100.00 96,119.40 V 176 l 48,-18.30 z"/>
  <path style="fill:#715143" d="M 48,100.00 96,119.40 V 176 L 48,157.70 Z"/>
  <path style="filter:url(#filter4904);opacity:0.20" d="M 96,28 A 64,64 0 0 0 32,92 v 8.74 C 18.30,104.11 8,118.61 8,136 c 0,19.88 13.47,36 30.08,36 h 6.58 C 44.66,172 48,172 48,168 V 136 104 92 a 48,48 0 0 1 48,-48 48,48 0 0 1 48,48 v 12 32 32 c 0,4 3.34,4 3.34,4 h 6.58 C 170.53,172 184,155.88 184,136 184,118.61 173.70,104.11 160,100.74 V 92 A 64,64 0 0 0 96,28 Z"/>
  <path style="fill:#ffa32d" d="M 38.08,96 C 21.47,96 8,112.12 8,132 c 0,19.88 13.47,36 30.08,36 h 6.58 v 0 c 0,0 3.34,0 3.34,-4 V 100.00 C 48,96.50 44.76,96 44.76,96 Z"/>
  <path style="fill:#ffa32d" d="M 153.92,96 C 170.53,96 184,112.12 184,132 c 0,19.88 -13.47,36 -30.08,36 h -6.58 v 0 c 0,0 -3.34,0 -3.34,-4 V 100.00 C 144,96.50 147.24,96 147.24,96 Z"/>
  <path style="fill:#ffa32d" d="M 96,24 A 64,64 0 0 0 32,88 v 44 H 48 V 88 a 48,48 0 0 1 48,-48 48,48 0 0 1 48,48 v 44 h 16 V 88 A 64,64 0 0 0 96,24 Z"/>
  <path style="opacity:0.20;fill:#ffffff" d="M 96 24 A 64 64 0 0 0 32 88 L 32 89 A 64 64 0 0 1 96 25 A 64 64 0 0 1 160 89 L 160 88 A 64 64 0 0 0 96 24 z M 32 96.74 C 18.30 100.11 8 114.61 8 132 C 8 132.16 8.01 132.31 8.02 132.46 C 8.23 115.32 18.44 101.07 32 97.74 L 32 96.74 z M 160 96.74 L 160 97.74 C 173.56 101.07 183.77 115.32 183.98 132.46 C 183.99 132.31 184 132.16 184 132 C 184 114.61 173.70 100.11 160 96.74 z "/>
  <path style="filter:url(#filter5115);opacity:0.20;fill:#000000" d="m 56,98 v 55.44 C 71.02,157.87 86.06,162.25 96,174 c 9.94,-11.75 24.98,-16.13 40,-20.56 V 98 c -18.63,4.60 -32.70,11.62 -40,22.21 C 88.70,109.62 74.63,102.60 56,98 Z"/>
  <path style="fill:#f5f5f5" d="m 136,96 c -18.63,4.60 -32.70,11.62 -40,22.21 V 172 c 9.94,-11.75 24.98,-16.13 40,-20.56 z"/>
  <path style="fill:#e1e1e1" d="m 56,96 c 18.63,4.60 32.70,11.62 40,22.21 V 172 C 86.06,160.25 71.02,155.87 56,151.44 Z"/>
  <path style="opacity:0.20;fill:#ffffff" d="M 56 96 L 56 97 C 74.63 101.60 88.70 108.62 96 119.21 C 103.30 108.62 117.37 101.60 136 97 L 136 96 C 117.37 100.60 103.30 107.62 96 118.21 C 88.70 107.62 74.63 100.60 56 96 z "/>
</svg>
