<svg xmlns="http://www.w3.org/2000/svg" id="svg28" width="192" height="192" version="1"><defs><filter style="color-interpolation-filters:sRGB" id="filter6495" width="1.1" height="1.1" x=".05" y=".05"><feGaussianBlur stdDeviation="3.2"/></filter><filter style="color-interpolation-filters:sRGB" id="filter15893" width="1.14" height="1.47" x=".07" y=".23"><feGaussianBlur stdDeviation="3.69"/></filter></defs><rect width="160" height="160" x="-180" y="-176" rx="12" ry="12" transform="matrix(0,-1,-1,0,0,0)" style="filter:url(#filter6495);opacity:.2;fill:#000"/><rect width="160" height="160" x="-176" y="-176" rx="12" ry="12" transform="matrix(0,-1,-1,0,0,0)" style="fill:#03c6c8"/><path style="opacity:.2;fill:#fff" d="m 28,16 c -6.65,0 -12,5.35 -12,12 v 1 c 0,-6.65 5.35,-12 12,-12 h 136 c 6.65,0 12,5.35 12,12 v -1 c 0,-6.65 -5.35,-12 -12,-12 z"/><path style="opacity:.77;fill:#192851" d="M 170.01 17.62 L 85.69 176 L 164 176 C 170.65 176 176 170.65 176 164 L 176 28 C 176 23.55 173.59 19.69 170.01 17.62 z"/><path style="filter:url(#filter15893);opacity:.2;fill:#000" d="m 141.51,74.00 c 0.22,0 0.43,0.11 0.56,0.33 l -16.89,31.98 c 0.17,0.32 0.06,0.69 0.42,0.69 h 5.20 c 0.23,0.02 0.46,0.15 0.56,0.34 l 10.72,-20.63 c 0.23,0.44 0.89,0.44 1.12,0 l 10.72,20.63 c 0.10,0.21 0.31,0.34 0.54,0.34 h 5.20 c 0.35,0 0.58,0.38 0.42,0.69 L 142.05,74.33 C 141.94,74.11 141.72,74.00 141.51,74.00 Z m -107.88,5 C 33.27,79.00 33,79.27 33,79.63 v 31.74 c 0,0.36 0.27,0.63 0.63,0.63 H 49.15 C 56.91,112.00 61,108.66 61,102.11 61,95.72 55.82,94.23 55.82,94.23 58.09,93.09 59,90.64 59,87.63 59,82.49 55.48,79.00 49.84,79.00 Z m 34,0 C 67.27,79.00 67,79.27 67,79.63 v 31.74 c 0,0.36 0.27,0.63 0.63,0.63 H 83.15 C 90.91,112.00 95,108.66 95,102.11 95,95.72 89.82,94.23 89.82,94.23 92.09,93.09 93,90.64 93,87.63 93,82.49 89.48,79.00 83.84,79.00 Z m 27.84,0 c 0.35,0 0.58,0.38 0.42,0.69 L 111.95,111.67 c 0.23,0.44 0.85,0.44 1.10,0 l 16.89,-31.98 c 0.17,0.32 0.06,0.69 0.42,0.69 h -5.20 c 0.25,0 0.46,0.13 0.56,0.34 l -10.72,20.63 c 0.23,0.44 0.89,0.44 -1.12,0 l -10.72,-20.63 c 0.10,0.21 0.31,0.34 0.54,0.34 z m -56.83,5 h 9.87 c 3.63,0 5.48,1.40 5.48,4 0,2.60 -1.85,4 -5.48,4 H 38.64 C 38.30,92.00 38,91.75 38,91.42 v -6.84 c 0,0.33 0.28,0.58 0.64,0.58 z m 34,0 h 9.87 c 3.63,0 5.48,1.40 5.48,4 0,2.60 -1.85,4 -5.48,4 H 72.64 C 72.30,92.00 72,91.75 72,91.42 v -6.84 c 0,0.33 0.28,0.58 0.64,0.58 z m -34.02,13 h 9.69 c 4.62,0 6.69,1.32 6.69,4.99 0.02,3.71 -2.02,5.01 -6.69,5.01 H 38.62 c 0.35,0 0.62,0.27 0.62,0.63 v -8.74 c 0,0.34 0.27,0.63 0.62,0.63 z m 34,0 h 9.69 c 4.62,0 6.69,1.32 6.69,4.99 0.02,3.71 -2.02,5.01 -6.69,5.01 H 72.62 c 0.35,0 0.62,0.27 0.62,0.63 v -8.74 c 0,0.34 0.27,0.63 0.62,0.63 z"/><path style="fill:#fff" d="M 141.51 72 C 141.29 72 141.07 72.11 140.95 72.33 L 124.05 104.31 C 123.89 104.62 124.12 105 124.47 105 L 129.67 105 C 129.89 104.98 130.12 104.85 130.23 104.66 L 140.95 84.03 C 141.18 83.59 141.84 83.59 142.07 84.03 L 152.79 104.66 C 152.90 104.87 153.11 105 153.33 105 L 158.53 105 C 158.88 105 159.11 104.62 158.95 104.31 L 142.05 72.33 C 141.94 72.11 141.72 72 141.51 72 z M 33.63 77 C 33.27 77 33 77.27 33 77.63 L 33 109.37 C 33 109.73 33.27 110 33.63 110 L 49.15 110 C 56.91 110 61 106.66 61 100.11 C 61 93.72 55.82 92.23 55.82 92.23 C 58.09 91.09 59 88.64 59 85.63 C 59 80.49 55.48 77 49.84 77 L 33.63 77 z M 67.63 77 C 67.27 77 67 77.27 67 77.63 L 67 109.37 C 67 109.73 67.27 110 67.63 110 L 83.15 110 C 90.91 110 95 106.66 95 100.11 C 95 93.72 89.82 92.23 89.82 92.23 C 92.09 91.09 93 88.64 93 85.63 C 93 80.49 89.48 77 83.84 77 L 67.63 77 z M 95.47 77 C 95.12 77 94.89 77.38 95.05 77.69 L 111.95 109.67 C 112.18 110.11 112.80 110.11 113.05 109.67 L 129.95 77.69 C 130.11 77.38 129.88 77 129.53 77 L 124.33 77 C 124.08 77 123.88 77.13 123.77 77.34 L 113.05 97.97 C 112.82 98.41 112.16 98.41 111.93 97.97 L 101.21 77.34 C 101.10 77.13 100.89 77 100.67 77 L 95.47 77 z M 38.64 82 L 48.52 82 C 52.15 82 54 83.40 54 86 C 54 88.60 52.15 90 48.52 90 L 38.64 90 C 38.30 90 38 89.75 38 89.42 L 38 82.58 C 38 82.25 38.28 82 38.64 82 z M 72.64 82 L 82.52 82 C 86.15 82 88 83.40 88 86 C 88 88.60 86.15 90 82.52 90 L 72.64 90 C 72.30 90 72 89.75 72 89.42 L 72 82.58 C 72 82.25 72.28 82 72.64 82 z M 38.62 95 L 48.31 95 C 52.94 95 55 96.32 55 99.99 C 54.98 103.70 52.98 105 48.31 105 L 38.62 105 C 38.27 105 38 104.73 38 104.37 L 38 95.63 C 38 95.29 38.27 95 38.62 95 z M 72.62 95 L 82.31 95 C 86.94 95 89 96.32 89 99.99 C 88.98 103.70 86.98 105 82.31 105 L 72.62 105 C 72.27 105 72 104.73 72 104.37 L 72 95.63 C 72 95.29 72.27 95 72.62 95 z"/></svg>