<?xml version='1.0' encoding='utf-8'?>
<svg xmlns="http://www.w3.org/2000/svg" width="192" height="192" version="1" id="svg12">
  <defs>
    <filter style="color-interpolation-filters:sRGB" id="filter955" x="0.05" width="1.10" y="0.05" height="1.10">
      <feGaussianBlur stdDeviation="3.20"/>
    </filter>
    <filter style="color-interpolation-filters:sRGB" id="filter6835" x="0.07" y="0.08" width="1.14" height="1.16">
      <feGaussianBlur stdDeviation="3.89"/>
    </filter>
  </defs>
  <rect style="filter:url(#filter955);opacity:0.20;fill:#000000" width="160" height="160" x="16" y="20" rx="30" ry="30"/>
  <rect style="fill:#0aac66" width="160" height="160" x="16" y="16" rx="30" ry="30"/>
  <path style="opacity:0.20;fill:#ffffff" d="M 46 16 C 29.38 16 16 29.38 16 46 L 16 47 C 16 30.38 29.38 17 46 17 L 146 17 C 162.62 17 176 30.38 176 47 L 176 46 C 176 29.38 162.62 16 146 16 L 46 16 z "/>
  <path style="filter:url(#filter6835);opacity:0.20;fill:#000000" d="M 64.01,43.00 C 58.74,43.00 58,49.04 58,49.04 V 64.00 97.37 L 79,92.29 V 64.00 h 64 V 48.61 c 0,-5.38 -6.14,-5.61 -6.14,-5.61 H 79 Z m 40.99,44 a 14,14 0 0 0 -14,14 14,14 0 0 0 14,14 14,14 0 0 0 14,-14 14,14 0 0 0 -14,-14 z M 86.81,95.55 8,114.59 v 18.37 l 78.04,-30.85 C 86.02,101.74 86,101.37 86,101.00 c 0,-1.89 0.29,-3.72 0.81,-5.45 z M 87.03,107.13 8,138.36 V 156.68 l 81.95,-44.14 c -1.25,-1.62 -2.24,-3.44 -2.92,-5.41 z M 79,124.12 58,135.43 v 17.57 h 21 z"/>
  <path style="fill:#ffffff" d="M 64.01 41 C 58.74 41 58 47.04 58 47.04 L 58 62 L 58 95.37 L 79 90.29 L 79 62 L 143 62 L 143 46.61 C 143 41.23 136.86 41 136.86 41 L 79 41 L 64.01 41 z M 105 85 A 14 14 0 0 0 91 99 A 14 14 0 0 0 105 113 A 14 14 0 0 0 119 99 A 14 14 0 0 0 105 85 z M 86.81 93.55 L 8 112.59 L 8 130.96 L 86.04 100.11 C 86.02 99.74 86 99.37 86 99 C 86 97.11 86.29 95.28 86.81 93.55 z M 87.03 105.13 L 8 136.36 L 8 154.68 L 89.95 110.54 C 88.70 108.92 87.71 107.09 87.03 105.13 z M 79 122.12 L 58 133.43 L 58 151 L 79 151 L 79 122.12 z "/>
</svg>
