<?xml version='1.0' encoding='utf-8'?>
<svg xmlns="http://www.w3.org/2000/svg" width="192" height="192" version="1" id="svg16">
  <defs>
    <filter style="color-interpolation-filters:sRGB" id="filter833" x="-0.048000002" width="1.096" y="-0.048000002" height="1.096">
      <feGaussianBlur stdDeviation="3.2000028"/>
    </filter>
    <filter style="color-interpolation-filters:sRGB" id="filter853" x="-0.045518831" width="1.0910377" y="-0.050767257" height="1.1015345">
      <feGaussianBlur stdDeviation="2.2000767"/>
    </filter>
  </defs>
  <path d="m 68.171876,18.99992 a 12.0012,12.0012 0 0 0 -8.492188,3.484375 L 19.757812,62.101479 a 12.0012,12.0012 0 0 0 -3.546874,8.47656 L 16,126.82804 a 12.0012,12.0012 0 0 0 3.484375,8.49219 l 39.625001,39.92969 a 12.0012,12.0012 0 0 0 8.468748,3.54688 l 56.249996,0.20312 a 12.0012,12.0012 0 0 0 8.5,-3.48438 l 39.91407,-39.625 a 12.0012,12.0012 0 0 0 3.54687,-8.46875 L 176,71.171791 a 12.0012,12.0012 0 0 0 -3.48438,-8.5 l -39.625,-39.914059 a 12.0012,12.0012 0 0 0 -3.96874,-2.648437 12.0012,12.0012 0 0 0 -4.5,-0.898438 z" style="filter:url(#filter833);opacity:0.2"/>
  <path d="m 68.171876,16 a 12.0012,12.0012 0 0 0 -8.492188,3.484375 L 19.757812,59.101564 a 12.0012,12.0012 0 0 0 -3.546874,8.47656 L 16,123.82812 a 12.0012,12.0012 0 0 0 3.484375,8.49219 L 59.109376,172.25 a 12.0012,12.0012 0 0 0 8.468748,3.54688 L 123.82812,176 a 12.0012,12.0012 0 0 0 8.5,-3.48438 l 39.91407,-39.625 a 12.0012,12.0012 0 0 0 3.54687,-8.46874 L 176,68.171876 a 12.0012,12.0012 0 0 0 -3.48438,-8.5 l -39.625,-39.914064 a 12.0012,12.0012 0 0 0 -3.96874,-2.648437 12.0012,12.0012 0 0 0 -4.5,-0.898437 z" style="fill:#f84c43"/>
  <path style="opacity:0.2;fill:#ffffff" d="M 68.171875 16 A 12.0012 12.0012 0 0 0 59.679688 19.484375 L 19.757812 59.101562 A 12.0012 12.0012 0 0 0 16.210938 67.578125 L 16 123.82812 A 12.0012 12.0012 0 0 0 16.003906 123.88867 L 16.210938 68.578125 A 12.0012 12.0012 0 0 1 19.757812 60.101562 L 59.679688 20.484375 A 12.0012 12.0012 0 0 1 68.171875 17 L 124.42188 17.210938 A 12.0012 12.0012 0 0 1 128.92188 18.109375 A 12.0012 12.0012 0 0 1 132.89062 20.757812 L 172.51562 60.671875 A 12.0012 12.0012 0 0 1 175.99609 69.085938 L 176 68.171875 A 12.0012 12.0012 0 0 0 172.51562 59.671875 L 132.89062 19.757812 A 12.0012 12.0012 0 0 0 128.92188 17.109375 A 12.0012 12.0012 0 0 0 124.42188 16.210938 L 68.171875 16 z "/>
  <path d="m 109.79172,150.44395 c 3.14398,-11.80694 4.3245,-13.42709 20.24222,-27.78047 3.76506,-3.39505 7.56512,-7.8669 8.44457,-9.93743 0.87943,-2.07053 1.99468,-8.69158 2.47834,-14.713454 0.92194,-11.479232 2.26211,-15.25824 7.92586,-22.349472 C 150.59723,73.5165 156,71.485444 156,71.149668 c 0,-0.3358 -6.08237,-2.543816 -8.6275,-4.906768 -3.1855,-2.957488 -5.79622,-4.212404 -8.26246,-4.242576 -2.55595,-0.0312 -4.95672,1.270768 -7.6813,4.392496 -7.52253,8.619048 -9.96809,11.607504 -13.67848,11.607504 -13.75026,0 -23.903136,-15.428436 -37.44636,-16 C 69.754652,61.619204 65.446768,60.040728 54.745496,56.86578 41.314424,52.880912 38.907635,52.997232 40.37982,57.560052 c 1.052896,3.26344 8.061068,7.949864 15.1843,10.153912 C 59.01546,68.781856 60,70.217596 60,71.0467 c 0,1.499652 -5.048436,3.68292 -9.38924,3.693504 -2.687556,0.0068 -2.758156,0.11148 -1.773516,2.635712 1.043772,2.675716 6.725548,4.867912 12.127588,4.867912 3.175388,0 6.530356,0.427016 7.035168,1.306488 0.526596,0.917424 -2.715972,2.327196 -5.067296,4.258192 -3.173496,2.606204 -3.510844,3.308256 -2.353408,4.897592 1.530052,2.101012 3.30338,2.057988 6.284576,9.03808 3.42312,8.01457 10.374888,9.98347 25.874648,7.32827 7.99053,-1.36883 11.3532,1.76247 11.3532,5.82284 0,3.09402 -3.4108,5.78089 -16.332344,12.86591 -9.493424,5.20532 -15.642184,9.65198 -15.642184,11.78805 0,0.66432 1.690932,2.00108 3.757612,2.97055 2.066672,0.96948 4.981924,3.40226 5.991112,4.91742 1.511224,2.26882 2.57726,2.71175 6.042524,2.51061 3.426084,-0.19888 4.864804,0.3806 7.745608,3.11955 3.751892,3.56715 7.936682,5.2584 10.588942,4.89141 1.00507,-0.13908 2.33411,-2.95345 3.54873,-7.51482 z" style="filter:url(#filter853);opacity:0.2"/>
  <path d="m 109.79172,146.44366 c 3.14398,-11.80695 4.3245,-13.42709 20.24222,-27.78048 3.76506,-3.39505 7.56512,-7.86689 8.44457,-9.93742 0.87943,-2.07053 1.99468,-8.6916 2.47834,-14.713481 0.92194,-11.479232 2.26211,-15.25824 7.92586,-22.349472 C 150.59723,69.516183 156,67.485127 156,67.149351 c 0,-0.3358 -6.08237,-2.543816 -8.6275,-4.906768 -3.1855,-2.957488 -5.79622,-4.212404 -8.26246,-4.242576 -2.55595,-0.0312 -4.95672,1.270768 -7.6813,4.392496 -7.52253,8.619048 -9.96809,11.607504 -13.67848,11.607504 -13.75026,0 -23.903136,-15.428436 -37.44636,-16 C 69.754652,57.618887 65.446768,56.040411 54.745496,52.865463 41.314424,48.880595 38.907635,48.996915 40.37982,53.559735 c 1.052896,3.26344 8.061068,7.949864 15.1843,10.153912 C 59.01546,64.781539 60,66.217279 60,67.046383 c 0,1.499652 -5.048436,3.68292 -9.38924,3.693504 -2.687556,0.0068 -2.758156,0.11148 -1.773516,2.635712 1.043772,2.675716 6.725548,4.867912 12.127588,4.867912 3.175388,0 6.530356,0.427016 7.035168,1.306488 0.526596,0.917424 -2.715972,2.327196 -5.067296,4.258192 -3.173496,2.606204 -3.510844,3.308256 -2.353408,4.897592 1.530052,2.101012 3.30338,2.057988 6.284576,9.038076 3.42312,8.014591 10.374888,9.983501 25.874648,7.328291 7.99053,-1.36883 11.3532,1.76248 11.3532,5.82284 0,3.09403 -3.4108,5.7809 -16.332344,12.86591 -9.493424,5.20533 -15.642184,9.65198 -15.642184,11.78805 0,0.66433 1.690932,2.00108 3.757612,2.97056 2.066672,0.96948 4.981924,3.40226 5.991112,4.91742 1.511224,2.26882 2.57726,2.71174 6.042524,2.51061 3.426084,-0.19888 4.864804,0.3806 7.745608,3.11955 3.751892,3.56715 7.936682,5.2584 10.588942,4.89141 1.00507,-0.13908 2.33411,-2.95345 3.54873,-7.51483 z" style="fill:#ffffff"/>
  <circle r="2" cy="64.000008" cx="142" style="fill:#4f4f4f"/>
</svg>
