<?xml version='1.0' encoding='utf-8'?>
<svg xmlns="http://www.w3.org/2000/svg" width="192" height="192" version="1" id="svg28">
  <defs>
    <filter style="color-interpolation-filters:sRGB" id="filter5007" x="0.05" y="0.05" width="1.10" height="1.10">
      <feGaussianBlur stdDeviation="3.20"/>
    </filter>
    <filter style="color-interpolation-filters:sRGB" id="filter5188" x="0.09" y="0.07" width="1.18" height="1.13">
      <feGaussianBlur stdDeviation="2.94"/>
    </filter>
    <filter style="color-interpolation-filters:sRGB" id="filter5230" x="0.05" y="0.17" width="1.10" height="1.33">
      <feGaussianBlur stdDeviation="1.53"/>
    </filter>
    <filter style="color-interpolation-filters:sRGB" id="filter5283" x="0.06" y="0.04" width="1.12" height="1.08">
      <feGaussianBlur stdDeviation="1.22"/>
    </filter>
  </defs>
  <circle style="filter:url(#filter5007);opacity:0.20;fill:#000000" cx="96" cy="100" r="80"/>
  <circle style="fill:#3e83e5" cx="96" cy="96" r="80"/>
  <path style="filter:url(#filter5230);opacity:0.20;fill:#000000;color:#000000" d="m 62,39.00 a 4,4 0 0 0 -2.83,1.17 4,4 0 0 0 0,5.66 l 14,14 a 4,4 0 0 0 5.66,0 4,4 0 0 0 0,-5.66 l -14,-14 A 4,4 0 0 0 62,39.00 Z m 68,0 a 4,4 0 0 0 -2.83,1.17 l -14,14 a 4,4 0 0 0 0,5.66 4,4 0 0 0 5.66,0 l 14,-14 a 4,4 0 0 0 0,-5.66 A 4,4 0 0 0 130,39.00 Z"/>
  <path style="filter:url(#filter5188);opacity:0.20;fill:#000000" d="m 96,48 c -22.09,0 -40,17.91 -40,40 0,4 3.57,6 8,6 h 64 c 4.43,0 8,-2 8,-6 C 136,65.91 118.09,48 96,48 Z M 64,99 c -4.43,0 -8,2 -8,6 v 11 c 0,22.09 17.91,40 40,40 22.09,0 40,-17.91 40,-40 v -11 c 0,-4 -3.57,-6 -8,-6 z"/>
  <path style="fill:#afccff;color:#000000" d="M 62 38 A 4 4 0 0 0 59.17 39.17 A 4 4 0 0 0 59.17 44.83 L 73.17 58.83 A 4 4 0 0 0 78.83 58.83 A 4 4 0 0 0 78.83 53.17 L 64.83 39.17 A 4 4 0 0 0 62 38 z M 130 38 A 4 4 0 0 0 127.17 39.17 L 113.17 53.17 A 4 4 0 0 0 113.17 58.83 A 4 4 0 0 0 118.83 58.83 L 132.83 44.83 A 4 4 0 0 0 132.83 39.17 A 4 4 0 0 0 130 38 z "/>
  <path style="fill:#ffffff" d="M 96 46 C 73.91 46 56 63.91 56 86 C 56 90 59.57 92 64 92 L 128 92 C 132.43 92 136 90 136 86 C 136 63.91 118.09 46 96 46 z M 64 97 C 59.57 97 56 99 56 103 L 56 114 C 56 136.09 73.91 154 96 154 C 118.09 154 136 136.09 136 114 L 136 103 C 136 99 132.43 97 128 97 L 64 97 z "/>
  <path style="filter:url(#filter5283);opacity:0.20;fill:#000000" d="m 78,70 a 6,6 0 0 0 -6,6 6,6 0 0 0 6,6 6,6 0 0 0 6,-6 6,6 0 0 0 -6,-6 z m 36,0 a 6,6 0 0 0 -6,6 6,6 0 0 0 6,6 6,6 0 0 0 6,-6 6,6 0 0 0 -6,-6 z m -18.02,36 a 5,5 0 0 0 0.64,0.09 5,5 0 0 0 0.63,0.08 5,5 0 0 0 0.02,0.00 5,5 0 0 0 0.57,0.24 5,5 0 0 0 0.60,0.24 5,5 0 0 0 0.02,0.02 5,5 0 0 0 0.47,0.36 5,5 0 0 0 0.56,0.44 5,5 0 0 0 0.44,0.56 5,5 0 0 0 0.36,0.47 5,5 0 0 0 0.02,0.02 l -16,28 a 5,5 0 0 0 0.24,0.58 5,5 0 0 0 0.25,0.62 5,5 0 0 0 0.08,0.62 A 5,5 0 0 0 75,139 a 5,5 0 0 0 0.00,0.01 5,5 0 0 0 0.09,0.66 5,5 0 0 0 0.09,0.63 5,5 0 0 0 0.23,0.56 5,5 0 0 0 0.27,0.64 5,5 0 0 0 0.49,0.64 5,5 0 0 0 0.30,0.39 5,5 0 0 0 0.66,0.51 5,5 0 0 0 0.38,0.29 5,5 0 0 0 0.01,0.01 5,5 0 0 0 0.58,0.24 5,5 0 0 0 0.62,0.25 5,5 0 0 0 0.62,0.08 A 5,5 0 0 0 80,144 h 32 a 5,5 0 0 0 0.02,0.00 c 0.41,0.00 0.82,0.05 1.22,0.16 a 5,5 0 0 0 0.04,0.01 5,5 0 0 0 0.05,0.02 c 0.39,0.11 0.78,0.26 1.15,0.47 0.01,0.00 0.01,0.01 0.02,0.01 a 5,5 0 0 0 0.01,0.00 c 0.01,0.01 0.02,0.02 0.04,0.02 a 5,5 0 0 0 0.33,0.21 c 0.05,0.04 0.10,0.08 0.15,0.12 a 5,5 0 0 0 0.22,0.18 c 0.05,0.04 0.10,0.09 0.15,0.13 a 5,5 0 0 0 0.20,0.19 c 0.05,0.05 0.09,0.10 0.13,0.14 a 5,5 0 0 0 0.16,0.19 c 0.05,0.06 0.10,0.12 0.14,0.18 a 5,5 0 0 0 0.14,0.20 c 0.04,0.06 0.08,0.12 0.11,0.18 a 5,5 0 0 0 0.05,0.07 5,5 0 0 0 0.01,0.01 5,5 0 0 0 0.06,0.12 c 0.04,0.07 0.07,0.13 0.11,0.20 a 5,5 0 0 0 0.12,0.27 c 0.02,0.05 0.04,0.10 0.06,0.15 a 5,5 0 0 0 0.14,0.44 c 0.00,0.01 0.00,0.01 0.01,0.02 a 5,5 0 0 0 0.00,0.01 c 0.01,0.02 0.01,0.05 0.02,0.07 a 5,5 0 0 0 0.07,0.34 c 0.01,0.06 0.02,0.12 0.03,0.18 a 5,5 0 0 0 0.03,0.28 c 0.01,0.07 0.01,0.14 0.01,0.21 A 5,5 0 0 0 117,139 a 5,5 0 0 0 0.00,0.04 c 0.00,0.08 0.00,0.16 0.01,0.23 a 5,5 0 0 0 0.02,0.22 c 0.01,0.09 0.02,0.19 0.04,0.28 a 5,5 0 0 0 0.01,0.07 5,5 0 0 0 0.00,0.02 5,5 0 0 0 0.02,0.07 c 0.02,0.09 0.04,0.18 0.06,0.27 a 5,5 0 0 0 0.01,0.07 5,5 0 0 0 0.00,0.01 5,5 0 0 0 0.04,0.14 c 0.02,0.07 0.04,0.14 0.07,0.21 a 5,5 0 0 0 0.02,0.06 5,5 0 0 0 0.01,0.02 5,5 0 0 0 0.08,0.20 c 0.02,0.05 0.04,0.11 0.06,0.16 a 5,5 0 0 0 0.01,0.03 5,5 0 0 0 0.01,0.02 5,5 0 0 0 0.14,0.27 c 0.02,0.03 0.03,0.07 0.05,0.10 l -9.21,-16.11 -6.79,-11.89 a 5,5 0 0 0 0.01,0.01 5,5 0 0 0 0.77,-1.01 5,5 0 0 0 0.02,0.02 5,5 0 0 0 -1.03,0.79 5,5 0 0 0 0.01,0.00 5,5 0 0 0 0.03,0.02 5,5 0 0 0 0.60,0.24 5,5 0 0 0 0.57,0.24 5,5 0 0 0 0.02,0.00 5,5 0 0 0 0.63,0.08 A 5,5 0 0 0 96,106.00 5,5 0 0 0 95.98,106 Z M 96,121.08 103.38,134 H 88.62 Z"/>
  <circle style="fill:#fe58b5" cx="78" cy="74" r="6"/>
  <circle style="fill:#ffb80b" cx="-114" cy="74" r="6" transform="scale(-1,1)"/>
  <path style="fill:#ffb80b;color:#000000" d="m 97.32,104.18 a 5,5 0 0 0 -3.80,0.48 5,5 0 0 0 -1.86,6.82 l 16.00,28 a 5,5 0 0 0 6.82,1.86 5,5 0 0 0 1.86,-6.82 l -16,-28 a 5,5 0 0 0 -3.03,-2.34 z"/>
  <path style="fill:#fe58b5;color:#000000" d="m 94.68,104.18 a 5,5 0 0 0 -3.03,2.34 l -16,28 a 5,5 0 0 0 1.86,6.82 5,5 0 0 0 6.82,-1.86 l 16.00,-28 a 5,5 0 0 0 -1.86,-6.82 5,5 0 0 0 -3.80,0.48 z"/>
  <path style="fill:#4ab0fe;color:#000000" d="m 80,132 a 5,5 0 0 0 -5,5 5,5 0 0 0 5,5 h 32 a 5,5 0 0 0 5,-5 5,5 0 0 0 -5,-5 z"/>
  <path style="fill:#ffb80b;color:#000000" d="m 100.35,126.69 7.31,12.79 c 1.37,2.40 4.42,3.23 6.82,1.86 2.40,-1.37 3.23,-4.42 1.86,-6.82 l -9.21,-16.11 z"/>
  <path style="opacity:0.20;fill:#ffffff" d="M 96 16 A 80 80 0 0 0 16 96 A 80 80 0 0 0 16.04 96.50 A 80 80 0 0 1 96 17 A 80 80 0 0 1 175.98 96.25 A 80 80 0 0 0 176 96 A 80 80 0 0 0 96 16 z "/>
</svg>
