<svg xmlns="http://www.w3.org/2000/svg" id="svg28" width="192" height="192" version="1"><defs><filter style="color-interpolation-filters:sRGB" id="filter6495" width="1.1" height="1.1" x=".05" y=".05"><feGaussianBlur stdDeviation="3.2"/></filter><filter style="color-interpolation-filters:sRGB" id="filter1970" width="1.16" height="1.34" x=".08" y=".17"><feGaussianBlur stdDeviation="3.53"/></filter></defs><rect width="160" height="160" x="-180" y="-176" rx="12" ry="12" transform="matrix(0,-1,-1,0,0,0)" style="filter:url(#filter6495);opacity:.2;fill:#000"/><rect width="160" height="160" x="-176" y="-176" rx="12" ry="12" transform="matrix(0,-1,-1,0,0,0)" style="fill:#d32f2f"/><path style="opacity:.2;fill:#fff" d="m 28,16 c -6.65,0 -12,5.35 -12,12 v 1 c 0,-6.65 5.35,-12 12,-12 h 136 c 6.65,0 12,5.35 12,12 v -1 c 0,-6.65 -5.35,-12 -12,-12 z"/><path style="filter:url(#filter1970);opacity:.2;fill:#000" d="m 67,73.00 c -13.81,0 -25,11.19 -25,25 0,13.81 11.19,25.00 25,25.00 h 15.27 c 5.37,0 9.73,-4.35 9.73,-9.73 V 99.89 l 10.40,18.20 c 4.95,8.65 17.58,5.14 17.60,-4.82 V 99.89 l 10.98,18.20 C 135.93,126.74 148.99,123.24 149,113.27 V 73.00 h -5.81 L 143,73.19 v 40.18 c 0.00,1.76 -1.24,3.08 -2.66,3.46 -1.42,0.38 -3.15,0.15 -4.03,-1.67 l 0.00,0.00 -18.93,-33.42 C 116.55,80.30 114.00,80.88 114,82.53 v 0.00 30.85 c 0.00,1.71 -1.07,3.05 -2.42,3.45 -1.35,0.40 -2.99,0.18 -3.84,-1.66 l 0.00,0.00 L 88.81,81.74 C 88.37,80.96 87.72,80.83 87.11,81.00 86.50,81.17 86.00,81.63 86,82.53 v 0.00 30.75 c 0.00,2.03 -1.69,3.73 -3.73,3.73 H 67 c -10.41,0 -19,-8.59 -19,-19.00 0,-10.41 8.59,-19 19,-19 h 7.97 L 75,78.95 v -5.95 z m 68,0 V 96.11 L 124.45,77.90 C 119.50,69.26 106.01,72.76 106,82.73 v 13.38 L 95.88,77.90 C 90.93,69.26 78.01,72.76 78,82.73 v 24.60 c 0.00,0.77 0.91,1.68 -1.68,1.68 H 67 c -5.91,0.00 -11,-5.09 -11,-11.00 0,-5.91 5.09,-11.00 11,-11 h 8 V 81.33 L 74.76,81.00 H 67 c -9.31,0 -17,7.69 -17,17 0,9.31 7.69,17.00 17,17.00 h 15.27 c 0.82,0 1.73,0.91 1.73,-1.73 v -30.75 0.00 c 0.00,-1.74 1.18,-3.07 2.58,-3.45 1.40,0.39 3.09,0.16 3.96,1.67 l 0.00,0.00 18.93,33.42 c 0.46,0.80 1.02,0.90 1.54,0.75 0.51,0.15 0.99,0.60 0.99,-1.53 v -30.85 0.00 c 0.01,-3.63 5.31,-4.92 7.12,-1.78 l 0.00,0.00 18.93,33.42 c 0.44,0.76 1.12,0.92 1.78,0.74 0.66,0.18 1.17,0.65 1.18,-1.53 V 73.19 l 0.19,0.19 z"/><path style="fill:#fff" d="M 67 71 C 53.19 71 42 82.19 42 96 C 42 109.81 53.19 121 67 121 L 82.27 121 C 87.65 121 92.00 116.65 92 111.27 L 92 97.89 L 102.40 116.10 C 107.36 124.74 119.99 121.24 120 111.27 L 120 97.89 L 130.98 116.10 C 135.93 124.74 148.99 121.24 149 111.27 L 149 71 L 143.19 71 L 143 71.19 L 143 111.38 C 143.00 113.14 141.76 114.45 140.34 114.83 C 138.92 115.21 137.19 114.69 136.31 113.16 L 136.31 113.16 L 117.38 79.74 C 116.55 78.30 114.00 78.88 114 80.53 L 114 80.53 L 114 111.38 C 114.00 113.08 112.93 114.42 111.58 114.82 C 110.23 115.23 108.60 114.65 107.74 113.16 L 107.74 113.16 L 88.81 79.74 C 88.37 78.96 87.72 78.83 87.11 79.00 C 86.50 79.17 86.00 79.63 86 80.53 L 86 80.53 L 86 111.27 C 86.00 113.31 84.31 115 82.27 115 L 67 115 C 56.59 115 48 106.41 48 96 C 48 85.59 56.59 77 67 77 L 74.97 77 L 75 76.95 L 75 71 L 67 71 z M 135 71 L 135 94.11 L 124.45 75.90 C 119.50 67.26 106.01 70.76 106 80.73 L 106 94.11 L 95.88 75.90 C 90.93 67.26 78.01 70.76 78 80.73 L 78 105.32 C 78.00 106.09 77.09 107 76.32 107 L 67 107 C 61.09 107.00 56 101.91 56 96 C 56 90.09 61.09 85.00 67 85 L 75 85 L 75 79.33 L 74.76 79 L 67 79 C 57.69 79 50 86.69 50 96 C 50 105.31 57.69 113 67 113 L 82.27 113 C 83.09 113 84.00 112.09 84 111.27 L 84 80.53 L 84 80.52 C 84.00 78.78 85.18 77.46 86.58 77.07 C 87.98 76.68 89.67 77.23 90.54 78.74 L 90.55 78.74 L 109.47 112.16 C 109.94 112.96 110.50 113.06 111.01 112.91 C 111.53 112.76 112.00 112.31 112 111.38 L 112 80.53 L 112 80.52 C 112.01 76.89 117.31 75.61 119.12 78.74 L 119.12 78.74 L 138.04 112.16 C 138.48 112.92 139.17 113.08 139.82 112.90 C 140.48 112.73 141.00 112.25 141 111.38 L 141 71.19 L 140.81 71 L 135 71 z"/></svg>