<svg xmlns="http://www.w3.org/2000/svg" id="svg28" width="192" height="192" version="1"><defs><filter style="color-interpolation-filters:sRGB" id="filter3766" width="1.1" height="1.1" x=".05" y=".05"><feGaussianBlur stdDeviation="3.2"/></filter><filter style="color-interpolation-filters:sRGB" id="filter3849" width="1.1" height="1.1" x=".05" y=".05"><feGaussianBlur stdDeviation="2.6"/></filter></defs><rect style="filter:url(#filter3766);opacity:.2;fill:#000" width="160" height="160" x="16" y="20" rx="40"/><rect style="fill:#00dc64" width="160" height="160" x="16" y="16" rx="40"/><path style="filter:url(#filter3849);opacity:.2;fill:#000" d="m 51.46,162.77 c -8.86,-1.17 -16.29,-7.41 -19.14,-16.07 0.99,-3.01 -1.01,-3.25 -1.17,-15.58 l 0.16,-12.52 c 0.10,-1.07 0.21,-1.46 0.71,-1.70 0.82,0.38 1.47,0.29 2.40,0.22 l 18.47,1.42 c 11.36,0.87 20.02,1.70 20.31,1.94 0.32,0.27 0.49,1.36 0.49,3.18 0,1.52 0.16,3.20 0.36,3.72 0.83,2.18 0.78,2.17 22.83,3.68 21.93,1.50 22.06,1.49 23.04,0.36 0.25,0.47 0.41,-3.43 0.41,-7.60 0,-6.30 0.06,-6.90 0.75,-7.58 0.41,0.41 -1.13,0.83 -1.61,0.93 0.47,0.10 -18.53,-1.54 -40.36,-3.20 -21.00,-1.59 -33.26,-2.60 -38.31,-3.16 -2.24,0.45 -3.82,0.80 -5.25,-2.21 -2.57,-2.57 -2.47,-1.60 -2.60,-26.08 0.08,-14.73 0.03,-23.21 0.31,-25.34 1.46,-11.12 9.69,-19.36 20.79,-20.83 2.23,0.29 16.21,0.39 46.26,0.31 l 43.07,0.11 c 18.98,0.67 19.22,20.37 19.37,31.71 0.17,12.89 0.03,14.37 -1.39,14.82 -1.12,0.35 -39.71,-2.73 -40.30,-3.22 0.39,0.32 0.54,-1.30 0.54,-3.41 0,-1.63 0.16,-3.38 0.36,-3.91 0.83,-2.18 0.77,-2.17 -22.99,-3.69 -18.28,-1.25 -20.62,-1.35 -21.56,0.86 0.58,0.30 -1.23,0.87 -1.44,1.27 0.22,0.42 0.39,3.49 0.39,7.22 v 4.40 c 0.19,1.59 0.52,2.38 1.06,3.14 0.83,0.84 1.53,1.11 3.31,1.30 1.24,0.13 19.06,1.52 39.74,3.09 15.95,1.21 30.02,2.35 35.95,2.89 6.02,0.45 8.82,4.63 8.82,10.35 l 0.00,20.61 0.00,24.79 c 0,8.17 -8.17,19.30 -19.26,19.30 l -44.01,0.05 c -24.21,0.03 -44.95,0.07 -46.10,0.23 z"/><path style="fill:#3f3f3f" d="m 51.46,160.77 c -8.86,-1.17 -16.29,-7.41 -19.14,-16.07 0.99,-3.01 -1.01,-3.25 -1.17,-15.58 l 0.16,-12.52 c 0.10,-1.07 0.21,-1.46 0.71,-1.70 0.82,0.38 1.47,0.29 2.40,0.22 l 18.47,1.42 c 11.36,0.87 20.02,1.70 20.31,1.94 0.32,0.27 0.49,1.36 0.49,3.18 0,1.52 0.16,3.20 0.36,3.72 0.83,2.18 0.78,2.17 22.83,3.68 21.93,1.50 22.06,1.49 23.04,0.36 0.25,0.47 0.41,-3.43 0.41,-7.60 0,-6.30 0.06,-6.90 0.75,-7.58 0.41,0.41 -1.13,0.83 -1.61,0.93 0.47,0.10 -18.53,-1.54 -40.36,-3.20 -21.00,-1.59 -33.26,-2.60 -38.31,-3.16 -2.24,0.45 -3.82,0.80 -5.25,-2.21 -2.57,-2.57 -2.47,-1.60 -2.60,-26.08 0.08,-14.73 0.03,-23.21 0.31,-25.34 1.46,-11.12 9.69,-19.36 20.79,-20.83 2.23,0.29 16.21,0.39 46.26,0.31 l 43.07,0.11 c 18.98,0.67 19.22,20.37 19.37,31.71 0.17,12.89 0.03,14.37 -1.39,14.82 -1.12,0.35 -39.71,-2.73 -40.30,-3.22 0.39,0.32 0.54,-1.30 0.54,-3.41 0,-1.63 0.16,-3.38 0.36,-3.91 0.83,-2.18 0.77,-2.17 -22.99,-3.69 -18.28,-1.25 -20.62,-1.35 -21.56,0.86 0.58,0.30 -1.23,0.87 -1.44,1.27 0.22,0.42 0.39,3.49 0.39,7.22 v 4.40 c 0.19,1.59 0.52,2.38 1.06,3.14 0.83,0.84 1.53,1.11 3.31,1.30 1.24,0.13 19.06,1.52 39.74,3.09 15.95,1.21 30.02,2.35 35.95,2.89 6.02,0.45 8.82,4.63 8.82,10.35 l 0.00,20.61 0.00,24.79 c 0,8.17 -8.17,19.30 -19.26,19.30 l -44.01,0.05 c -24.21,0.03 -44.95,0.07 -46.10,0.23 z"/><path style="opacity:.2;fill:#fff" d="M 56 16 C 33.84 16 16 33.84 16 56 L 16 57 C 16 34.84 33.84 17 56 17 L 136 17 C 158.16 17 176 34.84 176 57 L 176 56 C 176 33.84 158.16 16 136 16 L 56 16 z"/></svg>