<?xml version='1.0' encoding='utf-8'?>
<svg xmlns="http://www.w3.org/2000/svg" width="192" height="192" version="1.1" id="svg24">
  <defs>
    <filter style="color-interpolation-filters:sRGB" id="filter880" x="0.04" width="1.08" y="0.06" height="1.11">
      <feGaussianBlur stdDeviation="1.36"/>
    </filter>
    <filter style="color-interpolation-filters:sRGB" id="filter909" x="0.05" width="1.10" y="0.05" height="1.10">
      <feGaussianBlur stdDeviation="3.20"/>
    </filter>
  </defs>
  <path d="m 24,20 c -4.43,0 -8,3.57 -8,8 v 144 c 0,4.43 3.57,8 8,8 h 144 c 4.43,0 8,-3.57 8,-8 V 46.25 C 176,46.25 153,20 153.27,20 Z" style="filter:url(#filter909);opacity:0.20;fill:#000000"/>
  <path style="fill:#2d66cd" d="m 24,16 c -4.43,0 -8,3.57 -8,8 v 144 c 0,4.43 3.57,8 8,8 h 144 c 4.43,0 8,-3.57 8,-8 V 42.25 C 176,42.25 153,16 153.27,16 Z"/>
  <path style="opacity:0.10;fill:#ffffff" d="m 24,16 c -4.43,0 -8,3.57 -8,8 v 1 c 0,-4.43 3.57,-8 8,-8 H 153.27 C 153.00,17 176,43.25 176,43.25 v -1 C 176,42.25 153.00,16 153.27,16 Z"/>
  <rect style="opacity:0.20;fill:#000000" width="94" height="58" x="42" y="16" rx="2.97" ry="2.95"/>
  <path d="m 61,18 c -1.66,0 -3,1.34 -3,3 v 52 c 0,1.66 1.34,3 3,3 h 72 c 1.66,0 3,-1.34 3,-3 V 21 c 0,-1.66 -1.34,-3 -3,-3 z m 49.87,10 h 10.26 C 122.72,28 124,29.29 124,30.89 V 67.11 C 124,68.71 122.72,70 121.13,70 H 110.87 C 109.28,70 108,68.71 108,67.11 V 30.89 C 108,29.29 109.28,28 110.87,28 Z" style="filter:url(#filter880);opacity:0.20;fill:#000000"/>
  <path style="fill:#a0b3d5" d="m 61,16 c -1.66,0 -3,1.34 -3,3 v 52 c 0,1.66 1.34,3 3,3 h 72 c 1.66,0 3,-1.34 3,-3 V 19 c 0,-1.66 -1.34,-3 -3,-3 z m 49.87,10 h 10.26 C 122.72,26 124,27.29 124,28.89 V 65.11 C 124,66.71 122.72,68 121.13,68 H 110.87 C 109.28,68 108,66.71 108,65.11 V 28.89 C 108,27.29 109.28,26 110.87,26 Z"/>
  <path style="fill:#ffffff" d="m 46,88 c -3.32,0 -6,2.68 -6,6 v 72 H 152 V 94 c 0,-3.32 -2.68,-6 -6,-6 z"/>
  <path style="fill:none;stroke:#e54441;stroke-width:6;stroke-linecap:round" d="m 50,108 h 92"/>
  <path d="m 50,127 h 92" style="fill:none;stroke:#e54441;stroke-width:6;stroke-linecap:round"/>
  <path style="fill:none;stroke:#e54441;stroke-width:6;stroke-linecap:round" d="m 50,146 h 92"/>
  <rect style="fill:#e54441" width="112" height="10" x="40" y="166"/>
  <rect style="opacity:0.30;fill:#000000" width="8" height="8" x="24" y="156"/>
  <rect y="156" x="160" height="8" width="8" style="opacity:0.30;fill:#000000"/>
  <path style="opacity:0.20;fill:#ffffff" d="m 61,16 c -1.66,0 -3,1.34 -3,3 v 1 c 0,-1.66 1.34,-3 3,-3 h 72 c 1.66,0 3,1.34 3,3 v -1 c 0,-1.66 -1.34,-3 -3,-3 z m 47,49.11 v 1 C 108,67.71 109.28,69 110.87,69 h 10.26 C 122.72,69 124,67.71 124,66.11 v -1 C 124,66.71 122.72,68 121.13,68 H 110.87 C 109.28,68 108,66.71 108,65.11 Z"/>
</svg>
