<?xml version='1.0' encoding='utf-8'?>
<svg xmlns="http://www.w3.org/2000/svg" width="192" height="192" version="1.1" id="svg118">
  <defs>
    <filter style="color-interpolation-filters:sRGB" id="filter1057" x="0.05" y="0.05" width="1.10" height="1.10">
      <feGaussianBlur stdDeviation="3.20"/>
    </filter>
    <filter style="color-interpolation-filters:sRGB" id="filter1082" x="0.02" y="0.98" width="1.05" height="2.97">
      <feGaussianBlur stdDeviation="1.64"/>
    </filter>
    <filter style="color-interpolation-filters:sRGB" id="filter1104" x="0.02" y="0.98" width="1.05" height="2.97">
      <feGaussianBlur stdDeviation="1.64"/>
    </filter>
  </defs>
  <path style="filter:url(#filter1057);opacity:0.20" d="M 28.31,20 H 163.69 C 170.49,20 176,25.73 176,32.80 v 134.40 c 0,7.07 -5.51,12.80 -12.31,12.80 H 28.31 c -6.80,0 -12.31,-5.73 -12.31,-12.80 V 32.80 c 0,-7.07 5.51,-12.80 12.31,-12.80 z m 0,0"/>
  <path style="fill:#e4e4e4" d="M 28.31,16 H 163.69 C 170.49,16 176,21.73 176,28.80 v 134.40 c 0,7.07 -5.51,12.80 -12.31,12.80 H 28.31 c -6.80,0 -12.31,-5.73 -12.31,-12.80 V 28.80 c 0,-7.07 5.51,-12.80 12.31,-12.80 z m 0,0"/>
  <path style="fill:#ffffff" d="M 28,28 H 164 V 164 H 28 Z m 0,0"/>
  <path style="fill:#3d3846" d="m 28,116 v 48 h 48 v -48 z m 12,12 h 24 v 24 H 40 Z m 8,8 v 8 h 8 v -8 z"/>
  <path style="fill:#3d3846" d="m 28,88 h 8 v 8 h -8 z m 0,0"/>
  <path style="fill:#3d3846" d="m 36,92 h 12 v 12 H 36 Z m 0,0"/>
  <path style="fill:#3d3846" d="m 48,88 h 12 v 8 H 48 Z m 0,0"/>
  <path style="fill:#3d3846" d="m 64,92 h 12 v 12 H 64 Z m 0,0"/>
  <path style="fill:#3d3846" d="m 84,92 h 32 v 12 H 84 Z m 0,0"/>
  <path style="fill:#3d3846" d="m 52,100 h 8 v 8 h -8 z m 0,0"/>
  <path style="fill:#3d3846" d="m 60,92 h 8 v 8 h -8 z m 0,0"/>
  <path style="fill:#3d3846" d="m 76,92 h 8 v 8 h -8 z m 0,0"/>
  <path style="fill:#3d3846" d="m 84,88 h 8 v 8 h -8 z m 0,0"/>
  <path style="fill:#3d3846" d="m 88,80 h 8 v 8 h -8 z m 0,0"/>
  <path style="fill:#3d3846" d="m 96,88 h 12 v 8 H 96 Z m 0,0"/>
  <path style="fill:#3d3846" d="m 84,68 h 24 V 80 H 84 Z m 0,0"/>
  <path style="fill:#3d3846" d="m 88,112 h 20 v 8 H 88 Z m 0,0"/>
  <path style="fill:#3d3846" d="m 84,156 h 24 v 8 H 84 Z m 0,0"/>
  <path style="fill:#3d3846" d="m 84,120 h 12 v 20 H 84 Z m 0,0"/>
  <path style="fill:#3d3846" d="m 96,28 h 12 V 48 H 96 Z m 0,0"/>
  <path style="fill:#3d3846" d="m 88,48 h 8 v 8 h -8 z m 0,0"/>
  <path style="fill:#3d3846" d="m 96,52 h 8 v 8 h -8 z m 0,0"/>
  <path style="fill:#3d3846" d="m 84,60 h 8 v 8 h -8 z m 0,0"/>
  <path style="fill:#3d3846" d="m 84,36 h 20 v 8 H 84 Z m 0,0"/>
  <path style="fill:#3d3846" d="m 120,100 h 20 v -8 h -20 z m 0,0"/>
  <path style="fill:#3d3846" d="m 128,96 h 8 v -8 h -8 z m 0,0"/>
  <path style="fill:#3d3846" d="m 132,120 h 20 v -8 h -20 z m 0,0"/>
  <path style="fill:#3d3846" d="m 120,108 h 8 v -8 h -8 z m 0,0"/>
  <path style="fill:#3d3846" d="m 116,96 h 8 v -8 h -8 z m 0,0"/>
  <path style="fill:#3d3846" d="m 144,88 h 12 v 12 h -12 z m 0,0"/>
  <path style="fill:#3d3846" d="m 108,120 h 24 v 8 h -24 z m 0,0"/>
  <path style="fill:#3d3846" d="m 120,120 h 8 v -8 h -8 z m 0,0"/>
  <path style="fill:#3d3846" d="m 116,112 h 8 v -8 h -8 z m 0,0"/>
  <path style="fill:#3d3846" d="m 120,132 h 20 v 20 h -20 z m 0,0"/>
  <path style="fill:#3d3846" d="m 108,152 h 8 v 8 h -8 z m 0,0"/>
  <path style="fill:#3d3846" d="m 104,148 h 8 v -8 h -8 z m 0,0"/>
  <path style="fill:#3d3846" d="m 96,140 h 8 v -8 h -8 z m 0,0"/>
  <path style="fill:#3d3846" d="m 84,144 h 8 v 8 h -8 z m 0,0"/>
  <path style="fill:#3d3846" d="m 92,152 h 8 v 8 h -8 z m 0,0"/>
  <path style="fill:#3d3846" d="m 120,156 h 12 v 8 h -12 z m 0,0"/>
  <path style="fill:#3d3846" d="m 84,104 h 8 v 8 h -8 z m 0,0"/>
  <path style="fill:#3d3846" d="m 156,128 h 8 v -8 h -8 z m 0,0"/>
  <path style="fill:#3d3846" d="m 156,112 h 8 v -8 h -8 z m 0,0"/>
  <path style="fill:#3d3846" d="m 140,152 h 8 v -8 h -8 z m 0,0"/>
  <path style="fill:#3d3846" d="m 144,148 h 8 v -8 h -8 z m 0,0"/>
  <path style="fill:#3d3846" d="m 132,132 h 8 v 24 h -8 z m 0,0"/>
  <path style="fill:#3d3846" d="m 144,152 h 20 v 12 h -20 z m 0,0"/>
  <path style="fill:#3d3846" d="m 156,152 h 8 v -8 h -8 z m 0,0"/>
  <path style="fill:#3d3846" d="m 140,136 h 8 v -12 h -8 z m 0,0"/>
  <path style="fill:#3d3846" d="m 152,140 h 8 v -20 h -8 z m 0,0"/>
  <path style="fill:#3d3846" d="m 140,164 h 8 v -8 h -8 z m 0,0"/>
  <rect style="filter:url(#filter1082);opacity:0.20" width="160" height="4" x="16" y="138"/>
  <path style="fill:#ff2020" d="M 16,140 H 176 V 116 H 16 Z m 0,0"/>
  <rect style="filter:url(#filter1104);opacity:0.20" width="160" height="4" x="16" y="130"/>
  <path fill="#fccbc5" d="m 16,132 h 160 v -8 H 16 Z m 0,0"/>
  <path style="fill:#3d3846" d="M 28,28 V 76 H 76 V 28 Z M 40,40 H 64 V 64 H 40 Z m 8,8 v 8 h 8 v -8 z"/>
  <path style="fill:#3d3846" d="m 116,28 v 48 h 48 V 28 Z m 12,12 h 24 v 24 h -24 z m 8,8 v 8 h 8 v -8 z"/>
  <path style="opacity:0.20;fill:#ffffff" d="M 28.30 16 C 21.51 16 16 21.73 16 28.80 L 16 29.80 C 16 22.73 21.51 17 28.30 17 L 163.70 17 C 170.49 17 176 22.73 176 29.80 L 176 28.80 C 176 21.73 170.49 16 163.70 16 L 28.30 16 z "/>
</svg>
