<?xml version='1.0' encoding='utf-8'?>
<svg xmlns="http://www.w3.org/2000/svg" width="192" height="192" version="1" id="svg32">
  <defs>
    <filter style="color-interpolation-filters:sRGB" id="filter872" x="0.05" width="1.10" y="0.05" height="1.10">
      <feGaussianBlur stdDeviation="3.20"/>
    </filter>
    <filter style="color-interpolation-filters:sRGB" id="filter902" x="0.05" width="1.10" y="0.05" height="1.10">
      <feGaussianBlur stdDeviation="1.44"/>
    </filter>
  </defs>
  <path style="filter:url(#filter872);opacity:0.20" d="M 96 20.02 C 79.69 20.02 64.57 24.87 51.95 33.19 C 51.69 38.23 51.65 43.21 51.95 48.11 L 40.34 42.63 C 14.53 67.55 7.93 107.48 26.72 140.02 C 34.87 154.14 46.64 164.80 60.15 171.58 C 64.65 169.28 68.98 166.82 73.07 164.12 L 74.13 176.91 C 108.62 186.80 146.49 172.56 165.28 140.02 C 173.44 125.89 176.79 110.37 175.90 95.29 C 171.66 92.53 167.37 90.01 162.98 87.82 L 173.52 80.51 C 164.85 45.70 133.57 20.02 96 20.02 z M 98.29 75.62 C 110.42 75.67 122.79 76.99 134.80 79.54 C 133.56 79.44 132.30 79.37 131.03 79.34 C 124.69 101.87 111.43 124.86 94.33 143.85 C 95.04 142.82 95.73 141.78 96.39 140.69 C 80.05 123.94 66.77 100.95 58.87 76.65 C 59.41 77.78 59.97 78.90 60.58 80.02 C 72.36 77.02 85.19 75.57 98.29 75.62 z "/>
  <path d="M 96,16 C 79.69,16 64.57,20.86 51.95,29.17 51.09,45.69 52.62,61.50 60.58,76 92.00,68 130.83,71.07 162.70,84 l 10.83,-7.51 C 164.85,41.68 133.57,16 96,16 Z" style="fill:#ff6262"/>
  <path d="M 60.58,76 C 92.00,68 130.83,71.07 162.70,84 l 10.83,-7.51 C 156.18,60.92 139.21,52.15 117.60,52 96.00,51.85 70.09,61.89 60.58,76 Z" style="fill:#e34343"/>
  <path d="m 165.28,136 c 8.15,-14.12 11.51,-29.64 10.62,-44.73 C 162.03,82.26 147.57,75.68 131.03,75.32 121.77,106.58 96.28,139.00 73.04,159.76 l 1.09,13.13 C 108.62,182.78 146.50,168.54 165.28,136 Z" style="fill:#9c94fc"/>
  <path d="m 131.03,75.32 c -8.78,31.21 -30.86,63.31 -57.99,84.44 l 1.09,13.13 c 22.16,-7.23 38.24,-17.55 49.17,-36.18 10.93,-18.63 15.19,-46.09 7.73,-61.39 z" style="fill:#857ee0"/>
  <path d="m 26.72,136 c 8.15,14.12 19.92,24.79 33.43,31.56 14.74,-7.51 27.67,-16.74 36.24,-30.88 C 73.75,113.47 56.99,78.30 52.26,44.24 L 40.34,38.62 C 14.53,63.54 7.93,103.46 26.72,136 Z" style="fill:#4dc5fc"/>
  <path d="M 96.39,136.68 C 73.75,113.47 56.99,78.30 52.26,44.24 L 40.34,38.62 c -4.82,22.81 -3.92,41.89 6.75,60.67 10.67,18.78 32.32,36.20 49.30,37.39 z" style="fill:#2ba2d9"/>
  <path d="M 60,77.50 C 87.79,62.07 109.83,68.38 132,75.85 130.61,99.20 128.44,122.40 96,140 80.79,129.83 65.37,122.04 60,77.50 Z" style="filter:url(#filter902);opacity:0.20"/>
  <path d="M 60,73.50 C 87.79,58.07 109.83,64.38 132,71.85 130.61,95.20 128.44,118.40 96,136 80.79,125.83 65.37,118.04 60,73.50 Z" style="fill:#ffffff"/>
  <path style="opacity:0.20;fill:#ffffff" d="M 96 16 C 79.69 16 64.57 20.86 51.95 29.17 C 51.79 32.29 51.71 35.38 51.75 38.44 C 51.74 35.70 51.81 32.95 51.95 30.17 C 64.57 21.86 79.69 17 96 17 C 133.27 17 164.32 42.27 173.29 76.65 L 173.52 76.49 C 164.85 41.68 133.57 16 96 16 z "/>
  <path style="opacity:0.20;fill:#ffffff" d="m 131.03,75.32 v 1 c 16.53,0.36 31.00,6.93 44.87,15.94 0.09,1.61 0.13,3.22 0.13,4.83 0.03,-1.95 0.01,-3.89 0.13,-5.83 C 162.03,82.26 147.57,75.68 131.03,75.32 Z"/>
</svg>
