<?xml version='1.0' encoding='utf-8'?>
<svg xmlns="http://www.w3.org/2000/svg" width="192" height="192" version="1.1" id="svg12">
  <defs>
    <filter style="color-interpolation-filters:sRGB" id="filter963" x="0.05" y="0.05" width="1.10" height="1.10">
      <feGaussianBlur stdDeviation="3.20"/>
    </filter>
    <filter style="color-interpolation-filters:sRGB" id="filter967" x="0.05" y="0.05" width="1.10" height="1.10">
      <feGaussianBlur stdDeviation="2.08"/>
    </filter>
  </defs>
  <rect fill="#0286c2" width="160" height="160" x="16" y="20" rx="80" ry="80" style="filter:url(#filter963);opacity:0.20;fill:#000000"/>
  <rect fill="#0286c2" width="160" height="160" x="16" y="16" rx="80" ry="80"/>
  <path style="opacity:0.20;fill:#ffffff" d="M 96 16 C 51.68 16 16.01 51.68 16.01 96 C 16.01 96.34 16.01 96.67 16.01 97 C 16.01 52.68 51.68 17 96 17 C 140.32 17 175.99 52.68 175.99 97 C 175.99 96.67 175.99 96.34 175.99 96 C 175.99 51.68 140.32 16 96 16 z "/>
  <path opacity="0.20" d="m 96,47.00 a 52,52 0 0 0 -52,52 52,52 0 0 0 52,52.00 52,52 0 0 0 20.84,-4.42 28,28 0 0 1 -4.84,0.42 28,28 0 0 1 -28,-28 28,28 0 0 1 28,-28.00 28,28 0 0 1 28,28.00 28,28 0 0 1 -2.16,10.78 52,52 0 0 0 10.16,-30.78 52,52 0 0 0 -52,-52 z" style="filter:url(#filter967)"/>
  <path fill="#ffffff" d="M 96,44 A 52,52 0 0 0 44,96 52,52 0 0 0 96,148 52,52 0 0 0 116.84,143.58 28,28 0 0 1 112,144 28,28 0 0 1 84,116 28,28 0 0 1 112,88 28,28 0 0 1 140,116 28,28 0 0 1 137.84,126.78 52,52 0 0 0 148,96 52,52 0 0 0 96,44 Z"/>
</svg>
