<?xml version='1.0' encoding='utf-8'?>
<svg xmlns="http://www.w3.org/2000/svg" width="192" height="192" version="1" id="svg22">
  <defs>
    <filter style="color-interpolation-filters:sRGB" id="filter858" x="0.04" width="1.09" y="0.05" height="1.10">
      <feGaussianBlur stdDeviation="1.65"/>
    </filter>
    <filter style="color-interpolation-filters:sRGB" id="filter878" x="0.05" width="1.10" y="0.05" height="1.10">
      <feGaussianBlur stdDeviation="1.60"/>
    </filter>
    <filter style="color-interpolation-filters:sRGB" id="filter902" x="0.05" width="1.10" y="0.05" height="1.10">
      <feGaussianBlur stdDeviation="0.64"/>
    </filter>
  </defs>
  <path d="m 63.66,99.94 a 12.00,12.00 0 0 0 -4,23.25 c 0,0 5.54,2.16 12.58,4.30 2.78,0.84 5.78,1.69 8.87,2.45 l -25.59,25.59 a 12.00,12.00 0 1 0 16.97,16.97 L 96,148.97 l 23.52,23.52 a 12.00,12.00 0 1 0 16.97,-16.97 l -25.59,-25.59 c 3.09,0.76 6.09,-1.60 8.87,-2.45 7.04,-2.14 12.58,-4.30 12.58,-4.30 a 12.00,12.00 0 1 0 -8.69,-22.38 c 0,0 -4.76,1.84 -10.88,3.70 -6.11,1.86 -13.89,3.48 -16.78,3.48 -2.89,0 -10.67,-1.62 -16.78,-3.48 -6.11,-1.86 -10.88,-3.70 -10.88,-3.70 a 12.00,12.00 0 0 0 -4.69,0.88 z" style="filter:url(#filter858);opacity:0.20"/>
  <circle r="40" cy="60" cx="96" style="filter:url(#filter878);opacity:0.20;fill:#000000"/>
  <circle r="40" cy="56" cx="96" style="fill:#f58220"/>
  <path d="m 64,108 c 0,0 20.61,8 32,8 11.39,0 32,-8 32,-8" style="fill:none;stroke:#ffc732;stroke-width:24;stroke-linecap:round;stroke-linejoin:round"/>
  <path d="m 64,160 32,-32 32,32" style="fill:none;stroke:#ffc732;stroke-width:24;stroke-linecap:round;stroke-linejoin:round"/>
  <circle r="16" cy="58" cx="96" style="filter:url(#filter902);opacity:0.10;fill:#000000"/>
  <circle r="16" cy="56" cx="96" style="fill:#ffffff"/>
  <path style="opacity:0.20;fill:#ffffff" d="M 96 16 A 40 40 0 0 0 56 56 A 40 40 0 0 0 56.02 56.49 A 40 40 0 0 1 96 17 A 40 40 0 0 1 135.97 56.49 A 40 40 0 0 0 136 56 A 40 40 0 0 0 96 16 z "/>
  <path style="opacity:0.20;fill:#ffffff;color:#000000;font-stretch:normal;font-variant-ligatures:normal;font-variant-position:normal;font-variant-caps:normal;font-variant-numeric:normal;font-variant-alternates:normal;font-feature-settings:normal;text-indent:0;text-align:start;text-decoration-line:none;text-decoration-style:solid;text-decoration-color:#000000;text-transform:none;writing-mode:lr-tb;direction:ltr;text-orientation:mixed;dominant-baseline:auto;baseline-shift:baseline;white-space:normal;shape-padding:0;clip-rule:nonzero;display:inline;overflow:visible;visibility:visible;isolation:auto;mix-blend-mode:normal;color-interpolation:sRGB;color-interpolation-filters:linearRGB;solid-color:#000000;solid-opacity:1;vector-effect:none;fill-rule:nonzero;color-rendering:auto;image-rendering:auto;shape-rendering:auto;text-rendering:auto;enable-background:accumulate" d="M 63.65 95.94 A 12.00 12.00 0 0 0 51.86 108.53 A 12.00 12.00 0 0 1 63.65 96.94 A 12.00 12.00 0 0 1 68.34 97.81 C 68.34 97.81 73.10 99.66 79.22 101.52 C 85.33 103.38 93.11 105 96 105 C 98.89 105 106.67 103.38 112.78 101.52 C 118.90 99.66 123.66 97.81 123.66 97.81 A 12.00 12.00 0 0 1 140.10 108.47 A 12.00 12.00 0 0 0 123.66 96.81 C 123.66 96.81 118.90 98.66 112.78 100.52 C 106.67 102.38 98.89 104 96 104 C 93.11 104 85.33 102.38 79.22 100.52 C 73.10 98.66 68.34 96.81 68.34 96.81 A 12.00 12.00 0 0 0 63.65 95.94 z M 80.28 126.75 L 55.52 151.52 A 12.00 12.00 0 0 0 51.85 160.66 A 12.00 12.00 0 0 1 55.52 152.52 L 81.07 126.96 C 80.80 126.89 80.55 126.82 80.28 126.75 z M 111.72 126.75 C 111.45 126.82 111.20 126.89 110.93 126.96 L 136.48 152.52 A 12.00 12.00 0 0 1 140.15 160.63 A 12.00 12.00 0 0 0 136.48 151.52 L 111.72 126.75 z "/>
</svg>
