<?xml version='1.0' encoding='utf-8'?>
<svg xmlns="http://www.w3.org/2000/svg" width="192" height="192" version="1" id="svg18">
  <defs>
    <filter id="filter963" style="color-interpolation-filters:sRGB" width="1.096" height="1.096" x="-0.048000001" y="-0.048000001">
      <feGaussianBlur stdDeviation="3.2"/>
    </filter>
    <filter style="color-interpolation-filters:sRGB" id="filter2924" x="-0.04883106" y="-0.047196757" width="1.0976621" height="1.0943935">
      <feGaussianBlur stdDeviation="1.831181"/>
    </filter>
  </defs>
  <path style="filter:url(#filter963);opacity:0.2" d="M 176,100 A 80,80 0 0 1 96,180 80,80 0 0 1 16,100 80,80 0 0 1 96,20 80,80 0 0 1 176,100 Z"/>
  <path style="fill:#10c89c" d="M 176,96 A 80,80 0 0 1 96,176 80,80 0 0 1 16,96 80,80 0 0 1 96,16 80,80 0 0 1 176,96 Z"/>
  <path style="opacity:0.2;fill:#ffffff" d="M 95.998047,16 A 80,80 0 0 0 16,96 80,80 0 0 0 16.023438,96.638672 80,80 0 0 1 95.998047,17 H 96 A 80,80 0 0 1 175.98242,96.292969 80,80 0 0 0 175.99805,96 80,80 0 0 0 96,16 Z"/>
  <path style="filter:url(#filter2924);opacity:0.2;fill:#000000;color:#000000" d="m 95.21875,51.888672 c -4.352374,0.07095 -8.744191,0.763231 -13.050781,2.121094 C 62.480701,60.217137 49.306925,78.85623 50.027344,99.486328 50.747762,120.11643 65.189404,137.79044 85.261719,142.60938 100.83944,146.34926 116.90606,141.64526 128,130.91406 V 139 a 6,6 0 0 0 6,6 6,6 0 0 0 6,-6 v -30 h -30 a 6,6 0 0 0 -6,6 6,6 0 0 0 6,6 h 10.92578 c -8.2086,8.86767 -20.69539,12.86266 -32.86328,9.94141 C 73.179006,127.3682 62.55567,114.36349 62.021484,99.066406 61.487299,83.769319 71.177406,70.057804 85.775391,65.455078 100.37337,60.852352 116.17915,66.526244 124.51562,79.363281 a 6,6 0 0 0 8.29883,1.763672 6,6 0 0 0 1.76367,-8.300781 C 126.14603,59.84187 111.95619,52.258419 97.082031,51.896484 c -0.619756,-0.01508 -1.241513,-0.01795 -1.863281,-0.0078 z"/>
  <path style="fill:#ffffff;color:#000000" d="M 95.21875 49.888672 C 90.866376 49.959621 86.474559 50.651903 82.167969 52.009766 C 62.480701 58.217137 49.306925 76.85623 50.027344 97.486328 C 50.747762 118.11643 65.189404 135.79044 85.261719 140.60938 C 100.83944 144.34926 116.90606 139.64526 128 128.91406 L 128 137 A 6 6 0 0 0 134 143 A 6 6 0 0 0 140 137 L 140 107 L 110 107 A 6 6 0 0 0 104 113 A 6 6 0 0 0 110 119 L 120.92578 119 C 112.71718 127.86767 100.23039 131.86266 88.0625 128.94141 C 73.179006 125.3682 62.55567 112.36349 62.021484 97.066406 C 61.487299 81.769319 71.177406 68.057804 85.775391 63.455078 C 100.37337 58.852352 116.17915 64.526244 124.51562 77.363281 A 6 6 0 0 0 132.81445 79.126953 A 6 6 0 0 0 134.57812 70.826172 C 126.14603 57.84187 111.95619 50.258419 97.082031 49.896484 C 96.462275 49.881404 95.840518 49.878536 95.21875 49.888672 z "/>
</svg>
