<?xml version='1.0' encoding='utf-8'?>
<svg xmlns="http://www.w3.org/2000/svg" width="192" height="192" version="1" id="svg24">
  <defs>
    <filter style="color-interpolation-filters:sRGB" id="filter987" x="-0.048000001" y="-0.048000001" width="1.096" height="1.096">
      <feGaussianBlur stdDeviation="3.2"/>
    </filter>
    <filter style="color-interpolation-filters:sRGB" id="filter991" x="-0.040500002" y="-0.058909093" width="1.081" height="1.1178182">
      <feGaussianBlur stdDeviation="0.54"/>
    </filter>
  </defs>
  <rect fill="#c2352a" width="160" height="160" x="16" y="20" rx="8" ry="8" style="filter:url(#filter987);opacity:0.2;fill:#000000"/>
  <rect fill="#c2352a" width="160" height="160" x="16" y="16" rx="8" ry="8"/>
  <path style="opacity:0.2;fill:#ffffff" d="M 24 16 C 19.568 16 16 19.568 16 24 L 16 25 C 16 20.568 19.568 17 24 17 L 168 17 C 172.432 17 176 20.568 176 25 L 176 24 C 176 19.568 172.432 16 168 16 L 24 16 z "/>
  <g opacity="0.2" transform="matrix(4,0,0,4,8,1.9999953)" style="filter:url(#filter991)">
    <path d="m 14,13 v 22 h 6 V 20 h 3 v 15 h 6 V 20 h 3 v 15 h 6 V 13"/>
    <rect width="6" height="14" x="6" y="13"/>
    <rect width="6" height="6" x="6" y="29"/>
  </g>
  <g fill="#ffffff" transform="matrix(4,0,0,4,8,0)">
    <path d="m 14,13 v 22 h 6 V 20 h 3 v 15 h 6 V 20 h 3 v 15 h 6 V 13"/>
    <rect width="6" height="14" x="6" y="13"/>
    <rect width="6" height="6" x="6" y="29"/>
  </g>
</svg>
