<?xml version='1.0' encoding='utf-8'?>
<svg xmlns="http://www.w3.org/2000/svg" width="192" height="192" version="1" id="svg14">
  <defs>
    <filter style="color-interpolation-filters:sRGB" id="filter850" x="-0.048000001" width="1.096" y="-0.048000001" height="1.096">
      <feGaussianBlur stdDeviation="3.2"/>
    </filter>
    <filter style="color-interpolation-filters:sRGB" id="filter7331" x="-0.075" y="-0.075" width="1.15" height="1.15">
      <feGaussianBlur stdDeviation="3.6875"/>
    </filter>
  </defs>
  <circle style="filter:url(#filter850);opacity:0.2;fill:#000000" cx="96" cy="100" r="80"/>
  <circle r="80" cy="96" cx="96" style="fill:#1193f6"/>
  <circle style="fill:#3666dc" cx="96" cy="96" r="56"/>
  <circle style="fill:#ffffff" cx="119.5" cy="57.5" r="2.5"/>
  <circle style="fill:#ffffff" cx="122.5" cy="100.5" r="2.5"/>
  <circle style="fill:#ffffff" cx="105.5" cy="124.5" r="2.5"/>
  <circle style="fill:#ffffff" cx="96" cy="96" r="2"/>
  <circle style="fill:#ffffff" cx="74.5" cy="85.5" r="2.5"/>
  <circle style="fill:#ffffff" cx="67.5" cy="85.5" r="2.5"/>
  <circle style="fill:#ffffff" cx="64.5" cy="128.5" r="2.5"/>
  <path style="opacity:0.5;fill:#ffffff" d="M 62.155815,137.65273 96,96 86.496958,149.19878 69.74694,145.36257 Z"/>
  <path style="opacity:0.2;fill:#ffffff" d="M 96 16 A 80 80 0 0 0 16 96 A 80 80 0 0 0 16.019531 96.472656 A 80 80 0 0 1 96 17 A 80 80 0 0 1 175.97461 96.513672 A 80 80 0 0 0 176 96 A 80 80 0 0 0 96 16 z "/>
  <path style="filter:url(#filter7331);opacity:0.2;fill:#000000;color:#000000" d="m 96,39 c -32.537389,0 -59,26.462611 -59,59 0,32.53739 26.462611,59 59,59 32.53739,0 59,-26.46261 59,-59 0,-32.537389 -26.46261,-59 -59,-59 z m 0,8 c 28.21387,0 51,22.786127 51,51 0,28.21387 -22.78613,51 -51,51 C 67.786127,149 45,126.21387 45,98 45,69.786127 67.786127,47 96,47 Z m 0,15 c -19.846697,0 -36,16.153303 -36,36 0,19.8467 16.153303,36 36,36 19.8467,0 36,-16.1533 36,-36 0,-19.846697 -16.1533,-36 -36,-36 z m 0,6 c 16.60406,0 30,13.39594 30,30 0,16.60406 -13.39594,30 -30,30 C 79.39594,128 66,114.60406 66,98 66,81.39594 79.39594,68 96,68 Z m 0,10 c -11.021995,0 -20,8.978005 -20,20 0,11.02199 8.978005,20 20,20 11.02199,0 20,-8.97801 20,-20 0,-11.021995 -8.97801,-20 -20,-20 z m 0,4 c 8.86024,0 16,7.139764 16,16 0,8.86024 -7.13976,16 -16,16 -8.860236,0 -16,-7.13976 -16,-16 0,-8.860236 7.139764,-16 16,-16 z"/>
  <path style="fill:#ffffff;color:#000000" d="M 96 37 C 63.462611 37 37 63.462611 37 96 C 37 128.53739 63.462611 155 96 155 C 128.53739 155 155 128.53739 155 96 C 155 63.462611 128.53739 37 96 37 z M 96 45 C 124.21387 45 147 67.786127 147 96 C 147 124.21387 124.21387 147 96 147 C 67.786127 147 45 124.21387 45 96 C 45 67.786127 67.786127 45 96 45 z M 96 60 C 76.153303 60 60 76.153303 60 96 C 60 115.8467 76.153303 132 96 132 C 115.8467 132 132 115.8467 132 96 C 132 76.153303 115.8467 60 96 60 z M 96 66 C 112.60406 66 126 79.39594 126 96 C 126 112.60406 112.60406 126 96 126 C 79.39594 126 66 112.60406 66 96 C 66 79.39594 79.39594 66 96 66 z M 96 76 C 84.978005 76 76 84.978005 76 96 C 76 107.02199 84.978005 116 96 116 C 107.02199 116 116 107.02199 116 96 C 116 84.978005 107.02199 76 96 76 z M 96 80 C 104.86024 80 112 87.139764 112 96 C 112 104.86024 104.86024 112 96 112 C 87.139764 112 80 104.86024 80 96 C 80 87.139764 87.139764 80 96 80 z "/>
</svg>
