<?xml version='1.0' encoding='utf-8'?>
<svg xmlns="http://www.w3.org/2000/svg" width="192" height="192" version="1.1" id="svg12">
  <defs>
    <filter style="color-interpolation-filters:sRGB" id="filter845" x="-0.048000001" y="-0.048000001" width="1.096" height="1.096">
      <feGaussianBlur stdDeviation="3.2"/>
    </filter>
    <filter style="color-interpolation-filters:sRGB" id="filter849" x="-0.037440395" y="-0.066855883" width="1.0748808" height="1.1337118">
      <feGaussianBlur stdDeviation="1.5600164"/>
    </filter>
  </defs>
  <rect style="filter:url(#filter845);opacity:0.2" width="160" height="160" x="16" y="20" rx="48" ry="48"/>
  <rect style="fill:#4992fd" width="160" height="160" x="16" y="16" rx="48" ry="48"/>
  <path style="opacity:0.2;fill:#ffffff" d="M 64 16 C 37.408 16 16 37.408 16 64 L 16 65 C 16 38.408 37.408 17 64 17 L 128 17 C 154.592 17 176 38.408 176 65 L 176 64 C 176 37.408 154.592 16 128 16 L 64 16 z "/>
  <path style="filter:url(#filter849);opacity:0.2" d="m 54.000228,69.998991 c -3.324128,0 -6.000228,2.676 -6.000228,6 v 10 12 11.999999 c 0,8.864 7.136268,16 16.000604,16 h 20.000756 20.00075 10.00038 c 3.32413,0 6.00023,-2.676 6.00023,-6 v -10 -11.999999 -12 c 0,-8.864 -7.13627,-16 -16.00061,-16 H 84.00136 64.000604 Z m 90.190902,0.008 c -1.27453,-0.088 -2.72753,0.495776 -4.10953,1.781252 -4.86,4.520544 -10.55566,8.33146 -14.53961,13.734372 -1.64062,2.224948 -1.52621,5.175036 -1.53912,7.945316 -0.007,1.51998 0.008,3.031272 0,4.531248 0.008,1.499974 -0.007,3.011271 0,4.531241 0.0128,2.77028 -0.10148,5.72037 1.53912,7.94532 3.98395,5.40291 9.67961,9.21383 14.53961,13.73437 1.382,1.28548 2.835,1.86925 4.10953,1.78125 2.1242,-0.14668 3.75795,-2.1596 3.75795,-5.89062 0,-7.30426 0.11456,-14.69722 0,-22.101561 0.11456,-7.404344 0,-14.797304 0,-22.101564 0,-3.731024 -1.63375,-5.743944 -3.75795,-5.890624 z"/>
  <path style="fill:#ffffff" d="m 54.000228,67.999812 c -3.324128,0 -6.000228,2.676 -6.000228,6 v 10 12 11.999998 c 0,8.864 7.136268,16 16.000604,16 h 20.000756 20.00075 10.00038 c 3.32413,0 6.00023,-2.676 6.00023,-6 v -10 -11.999998 -12 c 0,-8.864 -7.13627,-16 -16.00061,-16 H 84.00136 64.000604 Z m 90.190902,0.008 c -1.27453,-0.088 -2.72753,0.495776 -4.10953,1.781252 -4.86,4.520544 -10.55566,8.33146 -14.53961,13.734372 -1.64062,2.224948 -1.52621,5.175036 -1.53912,7.945316 -0.007,1.51998 0.008,3.031272 0,4.531248 0.008,1.499976 -0.007,3.011272 0,4.53125 0.0128,2.77027 -0.10148,5.72037 1.53912,7.94531 3.98395,5.40292 9.67961,9.21383 14.53961,13.73438 1.382,1.28547 2.835,1.86925 4.10953,1.78125 2.1242,-0.14668 3.75795,-2.1596 3.75795,-5.89063 0,-7.30426 0.11456,-14.69722 0,-22.10156 0.11456,-7.404344 0,-14.797304 0,-22.101564 0,-3.731024 -1.63375,-5.743944 -3.75795,-5.890624 z"/>
</svg>
