<?xml version='1.0' encoding='utf-8'?>
<svg xmlns="http://www.w3.org/2000/svg" width="192" height="192" version="1" id="svg12">
  <defs>
    <filter style="color-interpolation-filters:sRGB" id="filter856" x="-0.048000001" width="1.096" y="-0.048000001" height="1.096">
      <feGaussianBlur stdDeviation="3.2"/>
    </filter>
    <filter style="color-interpolation-filters:sRGB" id="filter869" x="-0.048000229" width="1.0960005" y="-0.047999768" height="1.0959995">
      <feGaussianBlur stdDeviation="1.9999712"/>
    </filter>
  </defs>
  <rect style="filter:url(#filter856);opacity:0.2" width="160" height="160" x="16" y="20" rx="8" ry="8"/>
  <rect style="fill:#0bb1e6" width="160" height="160" x="16" y="16" rx="8" ry="8"/>
  <path style="opacity:0.2;fill:#ffffff" d="m 24,16 c -4.432,0 -8,3.568 -8,8 v 1 c 0,-4.432 3.568,-8 8,-8 h 144 c 4.432,0 8,3.568 8,8 v -1 c 0,-4.432 -3.568,-8 -8,-8 z"/>
  <path d="m 96,48.00096 c -0.89639,0 -1.793609,0.34439 -2.480469,1.03125 L 77.03125,65.520491 c -1.37372,1.37372 -1.37372,3.587218 0,4.960938 L 93.519531,86.96971 c 1.37372,1.37372 3.587218,1.37372 4.960938,0 L 114.96875,70.481429 c 1.37372,-1.37372 1.37372,-3.587218 0,-4.960938 L 98.480469,49.03221 C 97.793609,48.34535 96.89639,48.00096 96,48.00096 Z m -30,30 c -0.89639,0 -1.793609,0.34439 -2.480469,1.03125 L 47.03125,95.520491 c -1.37372,1.37372 -1.37372,3.587218 0,4.960939 l 16.488281,16.48828 c 1.37372,1.37372 3.587218,1.37372 4.960938,0 L 84.96875,100.48143 c 1.37372,-1.373721 1.37372,-3.587219 0,-4.960939 L 68.480469,79.03221 C 67.793609,78.34535 66.89639,78.00096 66,78.00096 Z m 60,0 c -0.89639,0 -1.79361,0.34439 -2.48047,1.03125 l -16.48828,16.488281 c -1.37372,1.37372 -1.37372,3.587218 0,4.960939 l 16.48828,16.48828 c 1.37372,1.37372 3.58722,1.37372 4.96094,0 l 16.48828,-16.48828 c 1.37372,-1.373721 1.37372,-3.587219 0,-4.960939 L 128.48047,79.03221 C 127.79361,78.34535 126.89639,78.00096 126,78.00096 Z m -30,30 c -0.89639,0 -1.793609,0.34439 -2.480469,1.03125 L 77.03125,125.52049 c -1.37372,1.37372 -1.37372,3.58722 0,4.96094 l 16.488281,16.48828 c 1.37372,1.37372 3.587218,1.37372 4.960938,0 l 16.488281,-16.48828 c 1.37372,-1.37372 1.37372,-3.58722 0,-4.96094 L 98.480469,109.03221 C 97.793609,108.34535 96.89639,108.00096 96,108.00096 Z" style="filter:url(#filter869);opacity:0.2;fill:#000000"/>
  <path style="fill:#ffffff" d="m 96,46 c -0.89639,0 -1.793609,0.34439 -2.480469,1.03125 L 77.03125,63.519531 c -1.37372,1.37372 -1.37372,3.587218 0,4.960938 L 93.519531,84.96875 c 1.37372,1.37372 3.587218,1.37372 4.960938,0 L 114.96875,68.480469 c 1.37372,-1.37372 1.37372,-3.587218 0,-4.960938 L 98.480469,47.03125 C 97.793609,46.34439 96.89639,46 96,46 Z M 66,76 c -0.89639,0 -1.793609,0.34439 -2.480469,1.03125 L 47.03125,93.519531 c -1.37372,1.37372 -1.37372,3.587218 0,4.960938 l 16.488281,16.488281 c 1.37372,1.37372 3.587218,1.37372 4.960938,0 L 84.96875,98.480469 c 1.37372,-1.37372 1.37372,-3.587218 0,-4.960938 L 68.480469,77.03125 C 67.793609,76.34439 66.89639,76 66,76 Z m 60,0 c -0.89639,0 -1.79361,0.34439 -2.48047,1.03125 l -16.48828,16.488281 c -1.37372,1.37372 -1.37372,3.587218 0,4.960938 l 16.48828,16.488281 c 1.37372,1.37372 3.58722,1.37372 4.96094,0 l 16.48828,-16.488281 c 1.37372,-1.37372 1.37372,-3.587218 0,-4.960938 L 128.48047,77.03125 C 127.79361,76.34439 126.89639,76 126,76 Z m -30,30 c -0.89639,0 -1.793609,0.34439 -2.480469,1.03125 L 77.03125,123.51953 c -1.37372,1.37372 -1.37372,3.58722 0,4.96094 l 16.488281,16.48828 c 1.37372,1.37372 3.587218,1.37372 4.960938,0 l 16.488281,-16.48828 c 1.37372,-1.37372 1.37372,-3.58722 0,-4.96094 L 98.480469,107.03125 C 97.793609,106.34439 96.89639,106 96,106 Z"/>
</svg>
