<?xml version='1.0' encoding='utf-8'?>
<svg xmlns="http://www.w3.org/2000/svg" width="192" height="192" version="1.1" id="svg26">
  <defs>
    <filter style="color-interpolation-filters:sRGB" id="filter876" x="0.05" width="1.10" y="0.05" height="1.10">
      <feGaussianBlur stdDeviation="3.20"/>
    </filter>
    <filter style="color-interpolation-filters:sRGB" id="filter903" x="0.04" width="1.08" y="0.06" height="1.11">
      <feGaussianBlur stdDeviation="1.68"/>
    </filter>
  </defs>
  <circle style="filter:url(#filter876);opacity:0.20" cx="96" cy="100" r="80"/>
  <circle style="fill:#ff5f3a" cx="96" cy="96.00" r="80"/>
  <path style="opacity:0.20;fill:#ffffff;fill-rule:evenodd" d="M 96 16 A 80 80 0 0 0 16 96 A 80 80 0 0 0 16.02 96.51 A 80 80 0 0 1 96 17 A 80 80 0 0 1 175.77 92.32 A 80 80 0 0 1 175.79 92.83 A 80 80 0 0 1 175.98 96.52 A 80 80 0 0 0 176 96 A 80 80 0 0 0 96 16 z "/>
  <path style="filter:url(#filter903);opacity:0.20" d="m 65.37,62.37 c -1.04,0 -2.04,0.43 -2.77,1.16 C 53.25,72.58 47.99,85.04 48,98.05 c 0.01,13.00 5.30,25.45 14.66,34.48 3.84,3.79 9.48,-2.06 5.55,-5.76 C 60.41,119.24 56.01,108.88 56,98.04 c 0.01,-10.84 4.38,-21.21 12.16,-28.76 2.66,-2.50 0.85,-6.97 -2.80,-6.91 z m 61.54,0 c -3.65,0.05 -5.46,4.41 -2.80,6.91 7.78,7.54 12.17,17.92 12.16,28.76 0.01,10.84 -4.41,21.20 -12.21,28.73 -3.92,3.70 1.71,9.55 5.55,5.76 9.35,-9.03 14.65,-21.48 14.66,-34.48 0.01,-13.00 -5.25,-25.47 -14.59,-34.52 0.74,0.73 -1.73,-1.15 -2.77,-1.16 h 0.01 z M 75.88,74.37 c -1.04,0.04 -2.02,0.49 -2.73,1.24 -12.12,12.38 -12.16,32.27 0.08,44.70 3.72,3.94 9.57,-1.75 5.73,-5.58 -9.11,-9.37 -9.09,-24.19 0.05,-33.52 2.59,-2.57 0.67,-6.98 -2.98,-6.84 z m 39.91,0 c -3.45,0.20 -5.04,4.40 -2.58,6.84 9.14,9.34 9.17,24.15 0.06,33.52 -3.84,3.82 2.02,9.52 5.73,5.58 12.08,-12.42 12.04,-32.32 0.08,-44.70 0.72,0.75 -1.70,-1.20 -2.73,-1.24 0.14,0 0.27,0 0.41,0 z M 96,82.00 c -8.84,0 -16,7.16 -16,16 0,8.84 7.16,16 16,16 8.84,0 16,-7.16 16,-16 0,-8.84 -7.16,-16 -16,-16 z"/>
  <path style="fill:#ffffff" d="m 96,116 c -4.43,0 -8,3.57 -8,8 v 51.60 a 80,80 0 0 0 8,0.40 80,80 0 0 0 8,0.48 v -51.52 c 0,-4.43 -3.57,-8 -8,-8 z"/>
  <circle style="fill:#4f4f4f" cx="96" cy="96.00" r="16"/>
  <path style="fill:none;stroke:#ffffff;stroke-width:8;stroke-linecap:round;stroke-linejoin:round" d="m 75.93,115.35 a 28,28 0 0 1 0.07,-38.80"/>
  <path style="fill:none;stroke:#ffffff;stroke-width:8;stroke-linecap:round;stroke-linejoin:round" d="m 116.13,115.35 a 28,28 0 0 0 0.07,-38.80"/>
  <path style="fill:none;stroke:#ffffff;stroke-width:8;stroke-linecap:round;stroke-linejoin:round" d="M 65.44,127.75 A 44,44 0 0 1 52,96.15 a 44,44 0 0 1 13.38,-31.60"/>
  <path style="fill:none;stroke:#ffffff;stroke-width:8;stroke-linecap:round;stroke-linejoin:round" d="m 126.84,127.75 a 44,44 0 0 0 13.44,-31.60 44,44 0 0 0 -13.38,-31.60"/>
</svg>
