<svg xmlns="http://www.w3.org/2000/svg" id="svg28" width="192" height="192" version="1.1"><defs><filter style="color-interpolation-filters:sRGB" id="filter877" width="1.1" height="1.1" x=".05" y=".05"><feGaussianBlur stdDeviation="3.2"/></filter><filter style="color-interpolation-filters:sRGB" id="filter1735" width="1.1" height="1.1" x=".05" y=".05"><feGaussianBlur stdDeviation="1.98"/></filter></defs><path style="filter:url(#filter877);opacity:.2" d="M 96,20 A 80,80 0 0 0 16,100 80,80 0 0 0 96,180 80,80 0 0 0 176,100 80,80 0 0 0 96,20 Z"/><path style="fill:#e40000" d="M 96,16 A 80,80 0 0 0 16,96 80,80 0 0 0 96,176 80,80 0 0 0 176,96 80,80 0 0 0 96,16 Z"/><path style="opacity:.2;fill:#fff" d="M 96 16 A 80 80 0 0 0 16.56 87.41 A 80 76 0 0 1 19.76 73.68 A 80 80 0 0 1 96 17 A 80 80 0 0 1 172.77 75.30 A 80 76 0 0 1 175.69 89.79 A 80 80 0 0 0 96 16 z"/><path d="m 110.53,50.02 c -6.16,0.72 -11.59,2.17 -16.55,4.09 -4.56,1.58 -8.64,3.65 -12.72,5.70 -3.59,2.10 -7.24,4.14 -10.50,6.57 -3.64,2.43 -6.91,5.22 -10.13,8.06 -2.21,2.25 -4.51,4.40 -6.42,6.94 -2.69,3.21 -5.01,6.80 -6.79,10.91 -1.43,3.35 -2.22,9.14 0.12,12.33 1.47,3.24 4.20,5.21 7.41,6.70 3.37,1.34 8.62,0.71 11.24,0.87 4.13,-1.60 7.28,-4.19 10.62,-6.57 3.05,-2.43 6.15,-4.62 9.51,-6.74 3.39,-2.39 6.84,-4.81 10.38,-7.04 3.50,-2.36 7.22,-4.50 10.99,-6.57 4.27,-2.00 8.35,-4.18 14.33,-4.46 5.40,0.45 8.05,3.66 9.39,8.19 1.49,3.98 0.84,10.34 0.62,13.86 -1.12,4.33 -3.19,7.71 -5.31,11.04 -2.38,3.35 -5.02,6.45 -7.78,9.43 -2.88,2.81 -5.72,5.66 -8.89,8.18 -3.26,2.81 -6.79,5.34 -10.38,7.81 -3.71,2.23 -7.28,4.60 -11.74,6.08 -2.37,1.25 -7.60,1.46 -6.67,-2.48 0.88,-3.79 3.35,-5.98 5.44,-8.56 3.09,-3.35 6.43,-6.65 9.41,-10.10 1.27,-1.76 3.26,-4.02 2.10,-7.07 -1.90,-3.08 -6.81,-4.17 -11.39,-3.10 -4.25,1.35 -7.44,4.08 -9.81,7.32 -2.52,3.42 -4.41,7.78 -5.93,12.20 -1.14,3.67 0.79,8.89 1.36,11.28 2.02,3.06 5.40,5.05 10.68,4.84 6.04,0.59 10.68,-2.59 15.07,-4.84 3.98,-1.95 7.57,-4.31 11.12,-6.70 3.30,-2.35 6.49,-4.81 9.64,-7.32 3.41,-2.90 6.89,-5.73 9.88,-9.05 2.89,-2.85 5.37,-6.10 7.78,-9.43 2.50,-3.69 4.84,-7.55 6.67,-11.90 2.44,-5.61 4.37,-11.73 4.20,-19.96 0.36,-5.84 -1.59,-10.80 -4.08,-14.51 -1.61,-3.22 -4.12,-5.53 -6.79,-7.69 -4.05,-2.84 -8.77,-5.01 -14.70,-5.95 -2.83,0.69 -6.33,0.66 -9.88,0.62 z" style="filter:url(#filter1735);opacity:.2;fill:#000"/><path d="m 110.53,47.02 c -6.16,0.72 -11.59,2.17 -16.55,4.09 -4.56,1.58 -8.64,3.65 -12.72,5.70 -3.59,2.10 -7.24,4.14 -10.50,6.57 -3.64,2.43 -6.91,5.22 -10.13,8.06 -2.21,2.25 -4.51,4.40 -6.42,6.94 -2.69,3.21 -5.01,6.80 -6.79,10.91 -1.43,3.35 -2.22,9.14 0.12,12.33 1.47,3.24 4.20,5.21 7.41,6.70 3.37,1.34 8.62,0.71 11.24,0.87 4.13,-1.60 7.28,-4.19 10.62,-6.57 3.05,-2.43 6.15,-4.62 9.51,-6.74 3.39,-2.39 6.84,-4.81 10.38,-7.04 3.50,-2.36 7.22,-4.50 10.99,-6.57 4.27,-2.00 8.35,-4.18 14.33,-4.46 5.40,0.45 8.05,3.66 9.39,8.19 1.49,3.98 0.84,10.34 0.62,13.86 -1.12,4.33 -3.19,7.71 -5.31,11.04 -2.38,3.35 -5.02,6.45 -7.78,9.43 -2.88,2.81 -5.72,5.66 -8.89,8.18 -3.26,2.81 -6.79,5.34 -10.38,7.81 -3.71,2.23 -7.28,4.60 -11.74,6.08 -2.37,1.25 -7.60,1.46 -6.67,-2.48 0.88,-3.79 3.35,-5.98 5.44,-8.56 3.09,-3.35 6.43,-6.65 9.41,-10.10 1.27,-1.76 3.26,-4.02 2.10,-7.07 -1.90,-3.08 -6.81,-4.17 -11.39,-3.10 -4.25,1.35 -7.44,4.08 -9.81,7.32 -2.52,3.42 -4.41,7.78 -5.93,12.20 -1.14,3.67 0.79,8.89 1.36,11.28 2.02,3.06 5.40,5.05 10.68,4.84 6.04,0.59 10.68,-2.59 15.07,-4.84 3.98,-1.95 7.57,-4.31 11.12,-6.70 3.30,-2.35 6.49,-4.81 9.64,-7.32 3.41,-2.90 6.89,-5.73 9.88,-9.05 2.89,-2.85 5.37,-6.10 7.78,-9.43 2.50,-3.69 4.84,-7.55 6.67,-11.90 2.44,-5.61 4.37,-11.73 4.20,-19.96 0.36,-5.84 -1.59,-10.80 -4.08,-14.51 -1.61,-3.22 -4.12,-5.53 -6.79,-7.69 -4.05,-2.84 -8.77,-5.01 -14.70,-5.95 -2.83,0.69 -6.33,0.66 -9.88,0.62 z" style="fill:#fff"/></svg>