<?xml version='1.0' encoding='utf-8'?>
<svg xmlns="http://www.w3.org/2000/svg" width="192" height="192" version="1" id="svg12">
  <defs>
    <filter style="color-interpolation-filters:sRGB" id="filter860" x="0.05" width="1.10" y="0.05" height="1.10">
      <feGaussianBlur stdDeviation="3.20"/>
    </filter>
    <filter style="color-interpolation-filters:sRGB" id="filter874" x="0.04" width="1.08" y="0.06" height="1.11">
      <feGaussianBlur stdDeviation="2.23"/>
    </filter>
  </defs>
  <rect style="filter:url(#filter860);opacity:0.20" width="160" height="160" x="16" y="20" rx="8" ry="8"/>
  <rect style="fill:#0061bd" width="160" height="160" x="16" y="16" rx="8" ry="8"/>
  <path style="opacity:0.10;fill:#ffffff" d="m 24,16 c -4.43,0 -8,3.57 -8,8 v 1 c 0,-4.43 3.57,-8 8,-8 h 144 c 4.43,0 8,3.57 8,8 v -1 c 0,-4.43 -3.57,-8 -8,-8 z"/>
  <path d="m 84,52.00 -45.96,2 C 34.70,54.15 32,56.68 32,60.00 v 78.00 c 0,3.33 2.70,6.27 6.04,6.00 0,0 27.55,-2 38.62,-2 11.07,0 19.34,7.87 19.34,4.54 0,3.33 8.27,-4.54 19.34,-4.54 11.07,0 38.62,2 38.62,2 C 157.30,144.27 160,141.32 160,138.00 V 60.00 c 0,-3.33 -2.70,-5.86 -6.04,-6.00 l -45.96,-2 C 101.17,51.70 96,58.68 96,62.00 96,58.68 90.83,51.70 84,52.00 Z" style="filter:url(#filter874);opacity:0.20;fill:#000000"/>
  <path style="fill:#ffffff" d="M 84,50 38.04,52 C 34.70,52.15 32,54.68 32,58.00 v 78.00 c 0,3.33 2.70,6.27 6.04,6.00 0,0 27.55,-2 38.62,-2 C 87.73,140 96,147.87 96,144.54 96,147.87 104.27,140 115.34,140 c 11.07,0 38.62,2 38.62,2 C 157.30,142.27 160,139.32 160,136.00 V 58.00 C 160,54.68 157.30,52.15 153.96,52 L 108,50 C 101.17,49.70 96,56.68 96,60.00 96,56.68 90.83,49.70 84,50 Z"/>
  <path d="M 38.03,52.00 84,50 c 6.83,0.30 12,6.68 12,10.00 V 144.54 C 96,147.87 87.73,140 76.66,140 65.58,140 38.03,142 38.03,142 34.70,142.27 32,139.32 32,136.00 V 58.00 c 0,-3.33 2.69,-5.86 6.03,-6.00 z" style="opacity:0.10;fill:#000000"/>
  <rect style="fill:#fd9504" width="38" height="12" x="44" y="70" rx="5.90" ry="6.06"/>
  <rect ry="6.06" rx="5.90" y="90" x="44" height="12" width="38" style="fill:#fd9504"/>
  <rect style="fill:#fd9504" width="38" height="12" x="44" y="110" rx="5.90" ry="6.06"/>
  <rect ry="6.06" rx="5.90" y="70" x="110" height="12" width="38" style="fill:#fd9504"/>
  <rect style="fill:#fd9504" width="38" height="12" x="110" y="90" rx="5.90" ry="6.06"/>
</svg>
