<svg xmlns="http://www.w3.org/2000/svg" id="svg16" width="192" height="192" version="1"><defs><filter style="color-interpolation-filters:sRGB" id="filter867" width="1.1" height="1.1" x=".05" y=".05"><feGaussianBlur stdDeviation="3.2"/></filter><filter style="color-interpolation-filters:sRGB" id="filter2828" width="1.15" height="1.15" x=".08" y=".07"><feGaussianBlur stdDeviation="2.63"/></filter></defs><rect width="160" height="160" x="-180" y="-176" rx="80" ry="80" transform="matrix(0,-1,-1,0,0,0)" style="filter:url(#filter867);opacity:.2;fill:#000"/><rect style="fill:#32cf6a" width="160" height="160" x="-176" y="-176" rx="80" ry="80" transform="matrix(0,-1,-1,0,0,0)"/><path style="opacity:.15;fill:#000" d="M 79 17.81 C 78.33 17.96 77.66 18.11 77 18.27 L 77 41 L 43 41 L 43 36.00 C 42.32 36.60 41.66 37.22 41 37.84 L 41 41 L 37.84 41 C 37.22 41.66 36.60 42.32 36.00 43 L 41 43 L 41 77 L 18.27 77 C 18.11 77.66 17.96 78.33 17.81 79 L 41 79 L 41 113 L 17.81 113 C 17.96 113.67 18.11 114.34 18.27 115 L 41 115 L 41 149 L 36.00 149 C 36.60 149.68 37.22 150.34 37.84 151 L 41 151 L 41 154.16 C 41.66 154.78 42.32 155.40 43 156.00 L 43 151 L 77 151 L 77 173.73 C 77.66 173.89 78.33 174.04 79 174.19 L 79 151 L 113 151 L 113 174.19 C 113.67 174.04 114.34 173.89 115 173.73 L 115 151 L 149 151 L 149 156.00 C 149.68 155.40 150.34 154.78 151 154.16 L 151 151 L 154.16 151 C 154.78 150.34 155.40 149.68 156.00 149 L 151 149 L 151 115 L 173.73 115 C 173.89 114.34 174.04 113.67 174.19 113 L 151 113 L 151 79 L 174.19 79 C 174.04 78.33 173.89 77.66 173.73 77 L 151 77 L 151 43 L 156.00 43 C 155.40 42.32 154.78 41.66 154.16 41 L 151 41 L 151 37.84 C 150.34 37.22 149.68 36.60 149 36.00 L 149 41 L 115 41 L 115 18.27 C 114.34 18.11 113.67 17.96 113 17.81 L 113 41 L 79 41 L 79 17.81 z M 43 43 L 77 43 L 77 77 L 43 77 L 43 43 z M 79 43 L 113 43 L 113 77 L 79 77 L 79 43 z M 115 43 L 149 43 L 149 77 L 115 77 L 115 43 z M 43 79 L 77 79 L 77 113 L 43 113 L 43 79 z M 79 79 L 113 79 L 113 113 L 79 113 L 79 79 z M 115 79 L 149 79 L 149 113 L 115 113 L 115 79 z M 43 115 L 77 115 L 77 149 L 43 149 L 43 115 z M 79 115 L 113 115 L 113 149 L 79 149 L 79 115 z M 115 115 L 149 115 L 149 149 L 115 149 L 115 115 z"/><path style="filter:url(#filter2828);opacity:.2;fill:#000;color:#000" d="m 69,56 c -8.22,0 -15,6.78 -15,15 v 54 c 0,8.22 6.78,15 15,15 h 54 c 8.22,0 15,-6.78 15,-15 V 91 h -10 v 34 c 0,2.86 -2.14,5 -5,5 H 69 c -2.86,0 -5,-2.14 -5,-5 V 71 c 0,-2.86 2.14,-5 5,-5 h 34 V 56 Z m 59.44,0 c 0.74,0.01 -1.47,0.29 -1.99,0.82 l -5.59,5.62 10.70,10.70 5.62,-5.59 c 1.05,-1.05 1.13,-2.92 0,-4.05 l -6.69,-6.69 C 129.93,56.25 129.18,55.99 128.44,56 Z M 117.02,66.28 90,93.30 V 104 h 10.70 L 127.72,76.98 Z"/><path style="fill:#fff;color:#000" d="M 69 54 C 60.78 54 54 60.78 54 69 L 54 123 C 54 131.22 60.78 138 69 138 L 123 138 C 131.22 138 138 131.22 138 123 L 138 89 L 128 89 L 128 123 C 128 125.86 125.86 128 123 128 L 69 128 C 66.14 128 64 125.86 64 123 L 64 69 C 64 66.14 66.14 64 69 64 L 103 64 L 103 54 L 69 54 z M 128.44 54 C 127.70 54.01 126.97 54.29 126.45 54.82 L 120.86 60.44 L 131.56 71.14 L 137.18 65.55 C 138.23 64.51 138.31 62.64 137.18 61.50 L 130.49 54.82 C 129.93 54.25 129.18 53.99 128.44 54 z M 117.02 64.28 L 90 91.30 L 90 102 L 100.70 102 L 127.72 74.98 L 117.02 64.28 z"/><path style="opacity:.2;fill:#fff" d="M 96 16 C 51.68 16 16 51.68 16 96 C 16 96.34 16.00 96.67 16 97 C 16 52.68 51.68 17 96 17 C 140.32 17 176 52.68 176 97 C 176.00 96.67 176 96.34 176 96 C 176 51.68 140.32 16 96 16 z"/></svg>