<svg xmlns="http://www.w3.org/2000/svg" id="svg28" width="192" height="192" version="1"><defs><filter style="color-interpolation-filters:sRGB" id="filter6495" width="1.1" height="1.1" x=".05" y=".05"><feGaussianBlur stdDeviation="3.2"/></filter><filter style="color-interpolation-filters:sRGB" id="filter4380" width="1.14" height="1.16" x=".07" y=".08"><feGaussianBlur stdDeviation="3.22"/></filter></defs><rect width="160" height="160" x="-180" y="-176" rx="12" ry="12" transform="matrix(0,-1,-1,0,0,0)" style="filter:url(#filter6495);opacity:.2;fill:#000"/><rect width="160" height="160" x="-176" y="-176" rx="12" ry="12" transform="matrix(0,-1,-1,0,0,0)" style="fill:#3f3f3f"/><path style="opacity:.1;fill:#fff" d="m 28,16 c -6.65,0 -12,5.35 -12,12 v 1 c 0,-6.65 5.35,-12 12,-12 h 136 c 6.65,0 12,5.35 12,12 v -1 c 0,-6.65 -5.35,-12 -12,-12 z"/><path style="filter:url(#filter4380);opacity:.2;fill:#000" d="M 96.62,48.04 86.54,65.34 117.46,100.81 c 1.64,-2.87 3.46,-6.07 4.86,-8.50 z m -12.18,20.88 -8.93,15.31 35.98,27.01 c 1.39,-2.43 2.48,-4.34 3.82,-6.69 z M 73.32,88.00 64.19,103.66 l 41.49,17.82 c 1.75,-3.09 1.92,-3.39 3.82,-6.73 z m 50.75,9.43 C 123.79,97.44 97.41,144 97.41,144 H 111.50 L 124.07,122.43 136.67,144 h 14.00 c 0,0 -26.38,-46.58 -26.60,-46.57 z m -61.96,9.79 -8.81,15.11 46.55,9.41 c 1.18,-2.07 2.19,-3.86 3.77,-6.64 z M 50.72,126.74 40.66,144 h 52.23 c 0,0 3.70,-6.51 4.82,-8.48 z"/><path style="fill:#ffac08" d="M 96.62 46.04 L 86.54 63.34 L 117.46 98.81 C 119.10 95.94 120.92 92.75 122.31 90.32 L 96.62 46.04 z M 84.45 66.92 L 75.51 82.24 L 111.50 109.24 C 112.88 106.81 113.98 104.90 115.32 102.55 L 84.45 66.92 z M 73.32 86.00 L 64.19 101.66 L 105.68 119.47 C 107.43 116.39 107.60 116.09 109.50 112.74 L 73.32 86.00 z M 124.06 95.43 C 123.79 95.44 97.41 142 97.41 142 L 111.50 142 L 124.07 120.43 L 136.67 142 L 150.66 142 C 150.66 142 124.29 95.42 124.06 95.43 z M 62.11 105.22 L 53.29 120.34 L 99.84 129.75 C 101.02 127.67 102.03 125.89 103.61 123.11 L 62.11 105.22 z M 50.72 124.74 L 40.66 142 L 92.88 142 C 92.88 142 96.58 135.49 97.70 133.52 L 50.72 124.74 z"/><path style="opacity:.2;fill:#fff" d="M 96.62 46.04 L 86.54 63.34 L 86.89 63.74 L 96.62 47.04 L 122.03 90.82 C 122.11 90.67 122.23 90.46 122.31 90.32 L 96.62 46.04 z M 84.45 66.92 L 75.51 82.24 L 75.92 82.54 L 84.45 67.92 L 114.98 103.15 C 115.09 102.95 115.20 102.76 115.32 102.55 L 84.45 66.92 z M 73.32 86.00 L 64.19 101.66 L 64.65 101.86 L 73.32 87.00 L 109.10 113.45 C 109.27 113.15 109.30 113.09 109.50 112.74 L 73.32 86.00 z M 124.06 95.43 C 123.79 95.44 97.41 142 97.41 142 L 97.98 142 C 99.06 140.08 123.79 96.44 124.06 96.43 C 124.28 96.42 149.01 140.08 150.10 142 L 150.66 142 C 150.66 142 124.29 95.42 124.06 95.43 z M 62.11 105.22 L 53.29 120.34 L 53.81 120.44 L 62.11 106.22 L 103.16 123.91 C 103.33 123.60 103.42 123.45 103.61 123.11 L 62.11 105.22 z M 50.72 124.74 L 40.66 142 L 41.24 142 L 50.72 125.74 L 97.19 134.42 C 97.36 134.12 97.58 133.73 97.70 133.52 L 50.72 124.74 z"/></svg>