<?xml version='1.0' encoding='utf-8'?>
<svg xmlns="http://www.w3.org/2000/svg" width="192" height="192" version="1" id="svg16">
  <defs>
    <filter style="color-interpolation-filters:sRGB" id="filter971" x="0.05" y="0.04" width="1.11" height="1.09">
      <feGaussianBlur stdDeviation="2.88"/>
    </filter>
    <filter style="color-interpolation-filters:sRGB" id="filter1051" x="0.09" y="0.03" width="1.17" height="1.07">
      <feGaussianBlur stdDeviation="1.72"/>
    </filter>
  </defs>
  <path fill="#4f4f4f" d="m 96.00,20.00 c -24.00,0 -40.00,16.00 -40.00,39.42 V 83.98 H 39.19 c 0,0.00 -7.19,0.02 -7.19,8.02 V 172.00 C 32.00,180 39.19,180 39.19,180 H 152.81 c 0,0 7.19,0 7.19,-8.00 V 92.00 c 0,-8.00 -7.19,-8.02 -7.19,-8.02 l -16.79,0.05 0.05,-24.87 C 136.00,36.00 120.00,20.00 96.00,20.00 Z" style="filter:url(#filter971);opacity:0.20;fill:#000000"/>
  <path fill="#4f4f4f" d="m 96.00,16.00 c -24.00,0 -40.00,16.00 -40.00,39.42 V 79.98 H 39.19 c 0,0.00 -7.19,0.02 -7.19,8.02 v 80.00 c 0,8.00 7.19,8.00 7.19,8.00 H 152.81 c 0,0 7.19,0 7.19,-8.00 V 88.00 c 0,-8.00 -7.19,-8.02 -7.19,-8.02 l -16.79,0.05 0.05,-24.87 C 136.00,32.00 120.00,16.00 96.00,16.00 Z"/>
  <path style="filter:url(#filter1051);opacity:0.20;fill:#000000" d="m 96,33.79 c -13.25,0 -24,10.75 -24,24 0,13.25 10.75,24 24,24 4.69,0 4,12.21 4,12.21 4.00,0.21 20,-20.21 20,-36.21 0,-13.25 -10.75,-24 -24,-24 z m 0,76.21 v 0.01 c -6.63,0 -12,5.37 -12,12 0,5.62 3.87,10.29 9.08,11.60 h -1.08 c -4.00,0 -6.89,3.48 -9.16,6.74 -2.14,3.09 -2.85,7.35 -2.84,8.88 0.00,1.38 0.01,2.76 0.02,2.76 0.00,0.09 0.02,0.17 0.02,0.25 0,3.18 2.60,5.77 5.80,5.77 h 20.40 c 3.20,0 5.80,-2.58 5.80,-5.77 0,0.09 0.01,0.17 0,0.26 v -2.76 c 0,-1.52 0.92,-5.72 -3.16,-8.74 -2.40,-3.23 -4.84,-6.88 -8.84,-6.88 H 98.92 C 104.13,132.29 108,127.61 108,122.00 c 0,-6.63 -5.37,-12 -12,-12 z"/>
  <path fill="#ffffff" d="m 96.00,32.00 c 13.25,0 24.00,10.75 24.00,24.00 0,16.00 -16.00,36.00 -20.00,36.21 0,0 0.69,-12.21 -4.00,-12.21 -13.25,0 -24.00,-10.75 -24.00,-24.00 0,-13.25 10.75,-24.00 24.00,-24.00 z"/>
  <path fill="#ffffff" d="m 96.00,108.00 c 6.63,0 12.00,5.37 12.00,12.00 0,5.61 -3.87,10.29 -9.08,11.60 h 1.08 c 4.00,0 6.45,3.65 8.84,6.88 2.24,3.02 3.16,7.21 3.16,8.74 v 2.76 c 0.01,0.08 0,0.17 0,0.26 0,3.18 -2.59,5.77 -5.80,5.77 H 85.81 c -3.20,0 -5.80,-2.59 -5.80,-5.77 0,0.09 0.01,0.16 0.02,0.25 0.01,0 0.01,-1.38 0.02,-2.76 0.00,-1.52 0.70,-5.79 2.84,-8.88 2.26,-3.26 5.16,-6.74 9.16,-6.74 h 1.08 c -5.21,-1.31 -9.08,-5.98 -9.08,-11.60 0,-6.63 5.37,-12.00 12.00,-12.00 z"/>
  <path style="opacity:0.10;fill:#ffffff" d="M 96 16.00 C 72.00 16.00 56 32.00 56 55.42 L 56 56.42 C 56 33.00 72.00 17.00 96 17.00 C 120.00 17.00 136.00 33.00 135.98 56.16 L 136.02 81.03 L 152.81 80.98 C 152.81 80.98 160 81.00 160 89.00 L 160 88 C 160 80.00 152.81 79.98 152.81 79.98 L 136.02 80.03 L 135.98 55.16 C 136.00 32.00 120.00 16.00 96 16.00 z M 39.19 79.98 C 39.19 79.98 32.00 80.00 32.00 88 L 32.00 89.00 C 32.00 81.00 39.19 80.98 39.19 80.98 L 56 80.98 L 56 79.98 L 39.19 79.98 z "/>
</svg>
