<svg xmlns="http://www.w3.org/2000/svg" id="svg28" width="192" height="192" version="1"><defs><filter style="color-interpolation-filters:sRGB" id="filter6495" width="1.1" height="1.1" x=".05" y=".05"><feGaussianBlur stdDeviation="3.2"/></filter><filter style="color-interpolation-filters:sRGB" id="filter10360" width="1.35" height="1.3" x=".17" y=".15"><feGaussianBlur stdDeviation="3.77"/></filter></defs><rect width="160" height="160" x="-180" y="-176" rx="12" ry="12" transform="matrix(0,-1,-1,0,0,0)" style="filter:url(#filter6495);opacity:.2;fill:#000"/><rect width="160" height="160" x="-176" y="-176" rx="12" ry="12" transform="matrix(0,-1,-1,0,0,0)" style="fill:#00b3fe"/><path style="filter:url(#filter10360);opacity:.2;fill:#000" d="m 75.21,68.06 c 0.45,0.08 0.87,0.24 -1.27,0.47 C 72.74,69.24 72.00,70.54 72,71.96 V 98 124.04 c 0.00,3.05 3.23,4.95 5.82,3.43 l 22.12,-13.02 22.12,-13.02 c 2.59,-1.52 2.59,-5.33 0,-6.85 L 99.94,81.55 77.82,68.53 C 77.03,68.06 76.10,67.90 75.21,68.06 Z"/><path style="opacity:.2;fill:#fff" d="m 28,16 c -6.65,0 -12,5.35 -12,12 v 1 c 0,-6.65 5.35,-12 12,-12 h 136 c 6.65,0 12,5.35 12,12 v -1 c 0,-6.65 -5.35,-12 -12,-12 z"/><path style="fill:#0286c6" d="M 36 35 L 36 46 L 50 46 L 50 35 L 36 35 z M 142 35 L 142 46 L 156 46 L 156 35 L 142 35 z M 36 57 L 36 68 L 50 68 L 50 57 L 36 57 z M 142 57 L 142 68 L 156 68 L 156 57 L 142 57 z M 36 79 L 36 90 L 50 90 L 50 79 L 36 79 z M 142 79 L 142 90 L 156 90 L 156 79 L 142 79 z M 36 101 L 36 112 L 50 112 L 50 101 L 36 101 z M 142 101 L 142 112 L 156 112 L 156 101 L 142 101 z M 36 123 L 36 134 L 50 134 L 50 123 L 36 123 z M 142 123 L 142 134 L 156 134 L 156 123 L 142 123 z M 36 145 L 36 156 L 50 156 L 50 145 L 36 145 z M 142 145 L 142 156 L 156 156 L 156 145 L 142 145 z"/><path style="fill:#fff;color:#000" d="M 75.21,66.06 A 3.88,3.96 0 0 0 73.94,66.53 3.88,3.96 0 0 0 72,69.96 v 26.04 26.04 a 3.88,3.96 0 0 0 5.82,3.43 L 99.94,112.45 122.06,99.43 a 3.88,3.96 0 0 0 0,-6.85 L 99.94,79.55 77.82,66.53 a 3.88,3.96 0 0 0 -2.61,0.47 z"/></svg>