<svg xmlns="http://www.w3.org/2000/svg" id="svg14" width="192" height="192" version="1.1"><defs><filter style="color-interpolation-filters:sRGB" id="filter849" width="1.1" height="1.1" x=".05" y=".05"><feGaussianBlur stdDeviation="3.2"/></filter><filter style="color-interpolation-filters:sRGB" id="filter1368" width="1.1" height="1.1" x=".05" y=".05"><feGaussianBlur stdDeviation="2.02"/></filter></defs><rect style="filter:url(#filter849);opacity:.2" width="160" height="160" x="16" y="20" rx="32" ry="32"/><rect style="fill:#e4e4e4" width="160" height="160" x="16" y="16" rx="32" ry="32"/><path style="opacity:.2;fill:#fff" d="M 48,16 C 30.27,16 16,30.27 16,48 v 1 C 16,31.27 30.27,17 48,17 h 96 c 17.73,0 32,14.27 32,32 V 48 C 176,30.27 161.73,16 144,16 Z"/><path style="filter:url(#filter1368);opacity:.2;fill:#000" d="m 88.41,147.85 c -5.77,0.66 -10.57,-2.04 -15.17,-4.37 C 62.87,138.22 52.35,127.35 48.33,117.73 46.60,113.57 45.70,109.22 45.18,102.42 44.16,88.98 47.33,78.93 56.37,66.98 63.96,56.94 75.07,50.84 89.67,48.71 c 7.11,-1.04 12.24,0.94 17.80,0.33 10.53,2.41 21.02,9.28 28.65,18.75 7.52,9.34 10.86,19.44 10.88,32.90 0.01,5.73 0.30,7.92 -1.78,12.51 -1.94,6.02 -6.89,14.03 -11.78,19.03 -9.22,9.44 -17.76,13.75 -30.41,15.35 -3.15,0.40 -12.05,0.56 -14.63,0.26 z"/><path style="fill:#fc7a27" d="m 88.41,145.85 c -5.77,0.66 -10.57,-2.04 -15.17,-4.37 C 62.87,136.22 52.35,125.35 48.33,115.73 46.60,111.57 45.70,107.22 45.18,100.42 44.16,86.98 47.33,76.93 56.37,64.98 63.96,54.94 75.07,48.84 89.67,46.71 c 7.11,-1.04 12.24,0.94 17.80,0.33 10.53,2.41 21.02,9.28 28.65,18.75 7.52,9.34 10.86,19.44 10.88,32.90 0.01,5.73 0.30,7.92 -1.78,12.51 -1.94,6.02 -6.89,14.03 -11.78,19.03 -9.22,9.44 -17.76,13.75 -30.41,15.35 -3.15,0.40 -12.05,0.56 -14.63,0.26 z"/></svg>