<?xml version='1.0' encoding='utf-8'?>
<svg xmlns="http://www.w3.org/2000/svg" width="192" height="192" version="1" id="svg28">
  <defs>
    <filter style="color-interpolation-filters:sRGB" id="filter6053" x="0.05" y="0.05" width="1.10" height="1.09">
      <feGaussianBlur stdDeviation="3.12"/>
    </filter>
    <filter style="color-interpolation-filters:sRGB" id="filter6189" x="0.13" y="0.09" width="1.25" height="1.19">
      <feGaussianBlur stdDeviation="2.61"/>
    </filter>
  </defs>
  <path style="filter:url(#filter6053);opacity:0.20;fill:#000000;stop-color:#000000" d="m 96,20 c -41.97,0 -76,25.97 -76,58 0.04,11.34 4.44,22.37 12.55,31.75 5.11,4.96 6.66,7.13 4.80,14.19 C 35.44,130.97 30.46,135.19 28,143 c 11.07,-3.08 21.58,-6.91 33.29,-9.11 4.15,0.78 8.62,-1.07 13.20,0.35 C 81.56,134.66 88.71,135.97 96,136 137.97,136 172,110.03 172,78 172,45.97 137.97,20 96,20 Z M 52,156 a 12,12 0 0 0 -12,12 12,12 0 0 0 12,12 12,12 0 0 0 12,-12 12,12 0 0 0 -12,-12 z m 44,0 a 12,12 0 0 0 -12,12 12,12 0 0 0 12,12 12,12 0 0 0 12,-12 12,12 0 0 0 -12,-12 z m 44,0 a 12,12 0 0 0 -12,12 12,12 0 0 0 12,12 12,12 0 0 0 12,-12 12,12 0 0 0 -12,-12 z"/>
  <path style="fill:#e4e4e4;stop-color:#000000" d="m 96,16 c -41.97,0 -76,25.97 -76,58 0.04,11.34 4.44,22.37 12.55,31.75 5.11,4.96 6.66,7.13 4.80,14.19 C 35.44,126.97 30.46,131.19 28,139 c 11.07,-3.08 21.58,-6.91 33.29,-9.11 4.15,0.78 8.62,-1.07 13.20,0.35 C 81.56,130.66 88.71,131.97 96,132 c 41.97,0 76,-25.97 76,-58 0,-32.03 -34.03,-58 -76,-58 z"/>
  <path style="filter:url(#filter6189);opacity:0.20;fill:#000000;stop-color:#000000" d="M 96,40 C 85.00,40 76,49.00 76,60 v 13 h -1 c -2.22,0 -4,1.78 -4,4 v 25 c 0,2.22 1.78,4 4,4 h 42 c 2.22,0 4,-1.78 4,-4 V 77 c 0,-2.22 -1.78,-4 -4,-4 h -1 V 60 C 116,49.00 107.00,40 96,40 Z m 0,8 c 6.67,0 12,5.33 12,12 V 73 H 84 V 60 c 0,-6.67 5.33,-12 12,-12 z"/>
  <path style="fill:#464646;stop-color:#000000" d="M 96,38 C 85.00,38 76,47.00 76,58 v 13 h -1 c -2.22,0 -4,1.78 -4,4 v 25 c 0,2.22 1.78,4 4,4 h 42 c 2.22,0 4,-1.78 4,-4 V 75 c 0,-2.22 -1.78,-4 -4,-4 h -1 V 58 C 116,47.00 107.00,38 96,38 Z m 0,8 c 6.67,0 12,5.33 12,12 V 71 H 84 V 58 c 0,-6.67 5.33,-12 12,-12 z"/>
  <circle style="fill:#1bd74a;stop-color:#000000" cx="52" cy="164" r="12"/>
  <circle style="fill:#16a93b;stop-color:#000000" cx="96" cy="164" r="12"/>
  <circle style="fill:#117c2c;stop-color:#000000" cx="140" cy="164" r="12"/>
  <path style="opacity:0.20;fill:#ffffff;stop-color:#000000" d="m 96,16 c -41.97,0 -76,25.97 -76,58 0.00,0.18 0.01,0.36 0.02,0.55 C 20.34,42.72 54.23,17 96,17 137.75,17 171.63,42.70 171.98,74.50 171.98,74.33 172,74.17 172,74 172,41.97 137.97,16 96,16 Z m -57.94,99.80 c 0.07,1.19 0.29,2.52 0.71,4.13 C 35.44,126.97 30.46,131.19 28,139 c 0.14,0.04 0.28,0.08 0.42,0.12 2.57,-7.09 7.12,-11.27 8.93,-17.94 0.55,-2.08 0.76,-3.71 0.71,-5.13 z"/>
  <path style="opacity:0.20;fill:#ffffff;stop-color:#000000" d="m 52,152 a 12,12 0 0 0 -12,12 12,12 0 0 0 0.04,0.50 A 12,12 0 0 1 52,153 12,12 0 0 1 63.98,164.30 12,12 0 0 0 64,164 12,12 0 0 0 52,152 Z"/>
  <path style="opacity:0.20;fill:#ffffff;stop-color:#000000" d="m 96,152 a 12,12 0 0 0 -12,12 12,12 0 0 0 0.04,0.50 A 12,12 0 0 1 96,153 12,12 0 0 1 107.98,164.30 12,12 0 0 0 108,164 12,12 0 0 0 96,152 Z"/>
  <path style="opacity:0.10;fill:#ffffff;stop-color:#000000" d="m 140,152 a 12,12 0 0 0 -12,12 12,12 0 0 0 0.04,0.50 A 12,12 0 0 1 140,153 12,12 0 0 1 151.98,164.30 12,12 0 0 0 152,164 12,12 0 0 0 140,152 Z"/>
</svg>
