<?xml version='1.0' encoding='utf-8'?>
<svg xmlns="http://www.w3.org/2000/svg" width="192" height="192" version="1" id="svg12">
  <defs>
    <filter style="color-interpolation-filters:sRGB" id="filter860" x="0.05" width="1.10" y="0.05" height="1.10">
      <feGaussianBlur stdDeviation="3.20"/>
    </filter>
    <filter style="color-interpolation-filters:sRGB" id="filter848" x="0.05" width="1.10" y="0.05" height="1.09">
      <feGaussianBlur stdDeviation="2.04"/>
    </filter>
  </defs>
  <rect style="filter:url(#filter860);opacity:0.20" width="160" height="160" x="16" y="20" rx="8" ry="8"/>
  <rect style="fill:#f9b862" width="160" height="160" x="16" y="16" rx="8" ry="8"/>
  <path style="opacity:0.20;fill:#ffffff" d="m 24,16 c -4.43,0 -8,3.57 -8,8 v 1 c 0,-4.43 3.57,-8 8,-8 h 144 c 4.43,0 8,3.57 8,8 v -1 c 0,-4.43 -3.57,-8 -8,-8 z"/>
  <path style="filter:url(#filter848);opacity:0.20;fill:#000000;color:#000000;font-stretch:normal;font-variant-ligatures:normal;font-variant-position:normal;font-variant-caps:normal;font-variant-numeric:normal;font-variant-alternates:normal;font-feature-settings:normal;text-indent:0;text-align:start;text-decoration-line:none;text-decoration-style:solid;text-decoration-color:#000000;text-transform:none;writing-mode:lr-tb;direction:ltr;text-orientation:mixed;dominant-baseline:auto;baseline-shift:baseline;white-space:normal;shape-padding:0;clip-rule:nonzero;display:inline;overflow:visible;visibility:visible;isolation:auto;mix-blend-mode:normal;color-interpolation:sRGB;color-interpolation-filters:linearRGB;solid-color:#000000;solid-opacity:1;vector-effect:none;fill-rule:nonzero;color-rendering:auto;image-rendering:auto;shape-rendering:auto;text-rendering:auto;enable-background:accumulate" d="m 46,52 v 8 h 46 v 6.21 C 72.93,68.22 58,84.41 58,104 c 0,19.59 14.93,35.78 34,37.79 V 156 h 8 V 141.79 C 119.07,139.78 134,123.59 134,104 134,84.41 119.07,68.22 100,66.21 V 60 h 46 V 52 Z M 92,74.27 V 133.73 C 77.29,131.78 66,119.26 66,104 66,88.74 77.29,76.22 92,74.27 Z m 8,0 c 14.71,1.95 26,14.47 26,29.73 0,15.26 -11.29,27.78 -26,29.73 z"/>
  <circle style="fill:none;stroke:#3f3f3f;stroke-width:8" cx="96" cy="102" r="34"/>
  <path style="fill:none;stroke:#3f3f3f;stroke-width:8" d="M 46,54 H 146"/>
  <path style="fill:none;stroke:#3f3f3f;stroke-width:8" d="M 96,154 V 55.07"/>
</svg>
