<?xml version='1.0' encoding='utf-8'?>
<svg xmlns="http://www.w3.org/2000/svg" width="192" height="192" version="1" id="svg16">
  <defs>
    <filter style="color-interpolation-filters:sRGB" id="filter863" x="0.05" width="1.10" y="0.05" height="1.10">
      <feGaussianBlur stdDeviation="3.20"/>
    </filter>
    <filter style="color-interpolation-filters:sRGB" id="filter881" x="0.06" width="1.11" y="0.04" height="1.08">
      <feGaussianBlur stdDeviation="1.68"/>
    </filter>
  </defs>
  <rect ry="8" rx="8" y="20" x="16" height="160" width="160" style="filter:url(#filter863);opacity:0.20;fill:#000000"/>
  <rect style="fill:#dd2525" width="160" height="160" x="16" y="16" rx="8" ry="8"/>
  <path style="opacity:0.20;fill:#ffffff" d="M 24 16 C 19.57 16 16 19.57 16 24 L 16 25 C 16 20.57 19.57 17 24 17 L 168 17 C 172.43 17 176 20.57 176 25 L 176 24 C 176 19.57 172.43 16 168 16 L 24 16 z "/>
  <path d="m 132,50.00 v 16 H 104 V 146 H 88 V 66.00 H 60 v -16 z" style="filter:url(#filter881);opacity:0.20"/>
  <path d="m 132,48.00 v 16 H 104 V 144 H 88 V 64.00 H 60 v -16 z" style="fill:#ffffff"/>
  <path style="opacity:0.50;fill:#ffffff" d="M 24,24 V 144 H 36.00 V 36 H 156 V 156 H 48 v 12 H 168 V 24 Z m 0,128 v 16 h 16.00 v -16 z"/>
</svg>
