<?xml version='1.0' encoding='utf-8'?>
<svg xmlns="http://www.w3.org/2000/svg" width="192" height="192" version="1" id="svg24">
  <defs>
    <filter style="color-interpolation-filters:sRGB" id="filter868" x="-0.048000001" width="1.096" y="-0.048000001" height="1.096">
      <feGaussianBlur stdDeviation="3.2"/>
    </filter>
    <filter style="color-interpolation-filters:sRGB" id="filter896" x="-0.048000002" width="1.096" y="-0.048000002" height="1.096">
      <feGaussianBlur stdDeviation="2.4"/>
    </filter>
    <filter style="color-interpolation-filters:sRGB" id="filter934" x="-0.051433713" width="1.1028674" y="-0.044996062" height="1.0899921">
      <feGaussianBlur stdDeviation="0.30003"/>
    </filter>
  </defs>
  <circle style="filter:url(#filter868);opacity:0.2;fill:#000000" cx="96" cy="100" r="80"/>
  <circle r="80" cy="96" cx="96" style="fill:#3f3f3f"/>
  <rect style="filter:url(#filter896);opacity:0.2" transform="matrix(0,-1,-1,0,0,0)" ry="60" rx="60" y="-156" x="-160" height="120" width="120"/>
  <rect transform="matrix(0,-1,-1,0,0,0)" ry="60" rx="60" y="-156" x="-156" height="120" width="120" style="fill:#4f4f4f"/>
  <path style="opacity:0.1;fill:#ffffff" d="M 96 36 C 62.76 36 36 62.76 36 96 C 36 96.12695 36.011245 96.251132 36.015625 96.376953 C 36.34932 63.427808 62.96906 37 96 37 L 96.001953 37 C 129.03289 37 155.65263 63.427808 155.98633 96.376953 C 155.99076 96.251132 156.00195 96.12695 156.00195 96 C 156.00195 62.76 129.24195 36 96.001953 36 L 96 36 z "/>
  <g transform="matrix(4,0,0,4,-1876,-663.992)" style="filter:url(#filter934);opacity:0.2">
    <path d="m 489,187 v 6.188 c -0.32,-0.12 -0.64,-0.19 -1,-0.19 -1.6568,0 -3,1.3432 -3,3 0,1.6568 1.3432,3 3,3 1.6568,0 3,-1.3432 3,-3 v -9.0005 h 6 v 4.1875 c -0.32,-0.12 -0.64,-0.19 -1,-0.19 -1.6568,0 -3,1.3432 -3,3 0,1.6568 1.3432,3 3,3 1.6568,0 3,-1.3432 3,-3 v -11 h -1 l -6,0.004 c -2.98476,0.11876 -3,4.001 -3,4.001 z"/>
  </g>
  <g transform="matrix(4,0,0,4,-1876,-668)" style="fill:#fab71c">
    <path d="m 489,187 v 6.188 c -0.32,-0.12 -0.64,-0.19 -1,-0.19 -1.6568,0 -3,1.3432 -3,3 0,1.6568 1.3432,3 3,3 1.6568,0 3,-1.3432 3,-3 v -9.0005 h 6 v 4.1875 c -0.32,-0.12 -0.64,-0.19 -1,-0.19 -1.6568,0 -3,1.3432 -3,3 0,1.6568 1.3432,3 3,3 1.6568,0 3,-1.3432 3,-3 v -11 h -1 l -6,0.004 c -2.98476,0.11876 -3,4.001 -3,4.001 z" style="fill:#fab71c"/>
  </g>
  <path style="opacity:0.1;fill:#ffffff" d="M 95.998047 16 A 80 80 0 0 0 16 96 A 80 80 0 0 0 16.017578 96.490234 A 80 80 0 0 1 95.998047 17 L 96 17 A 80 80 0 0 1 175.97266 96.5 A 80 80 0 0 0 175.99805 96 A 80 80 0 0 0 96 16 L 95.998047 16 z "/>
</svg>
