<?xml version='1.0' encoding='utf-8'?>
<svg xmlns="http://www.w3.org/2000/svg" width="192" height="192" version="1.1" id="svg14">
  <defs>
    <filter style="color-interpolation-filters:sRGB" id="filter848" x="0.05" width="1.10" y="0.05" height="1.10">
      <feGaussianBlur stdDeviation="3.20"/>
    </filter>
    <filter style="color-interpolation-filters:sRGB" id="filter859" x="0.03" width="1.06" y="0.02" height="1.04">
      <feGaussianBlur stdDeviation="0.76"/>
    </filter>
  </defs>
  <circle r="80" cy="100" cx="96" style="filter:url(#filter848);opacity:0.20"/>
  <circle r="80" cy="96" cx="96" style="fill:#e4e4e4"/>
  <path style="opacity:0.20;fill:#ffffff" d="M 96 16 A 80 80 0 0 0 16 96 A 80 80 0 0 0 16.02 96.47 A 80 80 0 0 1 96 17 A 80 80 0 0 1 175.97 96.51 A 80 80 0 0 0 176 96 A 80 80 0 0 0 96 16 z "/>
  <path d="M 128,105.93 C 128,123.64 113.67,138 96.00,138 78.33,138 64,123.64 64,105.93 64,88.22 93.24,51 96.00,51 99.02,51 128,88.22 128,105.93 Z" style="filter:url(#filter859);opacity:0.10"/>
  <path d="M 128,103.93 C 128,121.64 113.67,136 96.00,136 78.33,136 64,121.64 64,103.93 64,86.22 93.24,49 96.00,49 99.02,49 128,86.22 128,103.93 Z" style="fill:#0091eb"/>
</svg>
