<?xml version='1.0' encoding='utf-8'?>
<svg xmlns:xlink="http://www.w3.org/1999/xlink" xmlns="http://www.w3.org/2000/svg" width="192" height="192" version="1" id="svg14">
  <defs>
    <linearGradient id="linearGradient944">
      <stop style="stop-color:#31bbfd;stop-opacity:1" offset="0"/>
      <stop style="stop-color:#31bbfd;stop-opacity:0" offset="1"/>
    </linearGradient>
    <filter style="color-interpolation-filters:sRGB" id="filter943" x="-0.055978752" width="1.1119575" y="-0.055978752" height="1.1119575">
      <feGaussianBlur stdDeviation="3.2000253"/>
    </filter>
    <filter style="color-interpolation-filters:sRGB" id="filter4619" x="-0.047999985" y="-0.048000012" width="1.096" height="1.096">
      <feGaussianBlur stdDeviation="2.1999994"/>
    </filter>
    <linearGradient xlink:href="#linearGradient944" id="linearGradient946" x1="150.89844" y1="95.238281" x2="8.3428144" y2="95.244171" gradientUnits="userSpaceOnUse"/>
  </defs>
  <rect style="filter:url(#filter943);opacity:0.2" width="137.196" height="137.196" x="-71.440002" y="70" rx="41.16" ry="41.16" transform="rotate(-45)"/>
  <rect style="fill:#e4e4e4" width="137.196" height="137.196" x="-68.599998" y="67.160004" rx="41.16" ry="41.16" transform="rotate(-45)"/>
  <path style="filter:url(#filter4619);opacity:0.2;fill:#000000" d="m 95.999999,43.00385 c -0.08235,-0.01241 -0.170871,0.0098 -0.255087,0.0078 v 0.06448 c -2.58635,0.735258 -4.22507,6.426102 -5.152754,8.975021 -8.178884,18.770706 -24.132685,33.922939 -43.245072,41.422275 -2.606792,0.946208 -4.945124,1.354949 -6.245704,3.765484 -1.046614,3.34939 6.287594,5.2831 9.232182,6.47968 20.322619,8.79318 36.310654,26.57954 43.15481,47.50136 0.430832,0.85507 1.304098,1.48169 2.256538,1.68635 V 153 c 0.08649,-0.003 0.169183,-0.036 0.255087,-0.0469 0.0859,0.0109 0.168601,0.0437 0.255086,0.0469 v -0.0937 c 0.95244,-0.20464 1.825702,-0.83128 2.256538,-1.68635 6.844157,-20.92182 22.832187,-38.70818 43.154807,-47.50137 2.94459,-1.19658 10.2788,-3.13028 9.23219,-6.47967 -1.30058,-2.410535 -3.63891,-2.819276 -6.24571,-3.765484 -19.11238,-7.49932 -35.06618,-22.651553 -43.24507,-41.422259 -0.92768,-2.548919 -2.566406,-8.239763 -5.152755,-8.975021 v -0.06448 c -0.08421,0.002 -0.172705,-0.02022 -0.255086,-0.0078 z"/>
  <path style="fill:#5363f7" d="m 95.999999,41.00382 c -0.08235,-0.01241 -0.170871,0.0098 -0.255087,0.0078 v 0.06448 c -2.58635,0.735258 -4.22507,6.426102 -5.152754,8.975021 -8.178884,18.770706 -24.132685,33.922939 -43.245072,41.422275 -2.606792,0.946208 -4.945124,1.354949 -6.245704,3.765484 -1.046614,3.349386 6.287594,5.2831 9.232182,6.47968 20.322619,8.79318 36.310654,26.57954 43.15481,47.50136 0.430832,0.85507 1.304098,1.48169 2.256538,1.68635 v 0.0937 c 0.08649,-0.003 0.169183,-0.036 0.255087,-0.0469 0.0859,0.0109 0.168601,0.0437 0.255086,0.0469 v -0.0937 c 0.95244,-0.20464 1.825702,-0.83128 2.256538,-1.68635 6.844157,-20.92182 22.832187,-38.70818 43.154807,-47.50137 2.94459,-1.19658 10.2788,-3.130284 9.23219,-6.47967 -1.30058,-2.410535 -3.63891,-2.819276 -6.24571,-3.765484 -19.11238,-7.49932 -35.06618,-22.651553 -43.24507,-41.422259 -0.92768,-2.548919 -2.566406,-8.239763 -5.152755,-8.975021 v -0.06448 c -0.08421,0.002 -0.172705,-0.02022 -0.255086,-0.0078 z"/>
  <path style="opacity:0.2;fill:#ffffff" d="M 96,16 C 85.479172,16 74.960042,20.032148 66.898438,28.09375 L 28.09375,66.898438 C 19.91896,75.073228 15.938172,85.771822 16.056641,96.439453 16.1908,86.105812 20.174507,75.817681 28.09375,67.898438 L 66.898438,29.09375 C 74.960042,21.032148 85.479172,17 96,17 c 10.52083,0 21.03996,4.032148 29.10156,12.09375 l 38.80469,38.804688 c 7.91924,7.919243 11.90295,18.207374 12.03711,28.541015 0.11847,-10.667631 -3.86232,-21.366225 -12.03711,-29.541015 L 125.10156,28.09375 C 117.03996,20.032148 106.52083,16 96,16 Z"/>
  <path style="fill:#df67fc;stop-color:#000000" d="m 72.548828,75.462891 c -7.290993,6.846001 -15.86436,12.346179 -25.201172,16.009765 -2.606792,0.946208 -4.945513,1.35509 -6.246094,3.765625 -1.046613,3.349386 6.287834,5.283889 9.232422,6.480469 20.322619,8.79318 36.310141,26.58013 43.154297,47.50195 0.430832,0.85507 1.30342,1.48089 2.25586,1.68555 V 151 c 0.08649,-0.003 0.169955,-0.036 0.255859,-0.0469 0.0859,0.0109 0.169374,0.0437 0.255859,0.0469 v -0.0937 c 0.95244,-0.20464 1.825024,-0.83048 2.25586,-1.68555 3.077551,-9.40773 8.015521,-18.17209 14.353511,-25.77929 C 97.757036,111.06431 82.835128,94.499762 72.548828,75.462891 Z"/>
  <path style="fill:url(#linearGradient946);stop-color:#000000" d="m 96,41.003906 c -0.08235,-0.01241 -0.171643,0.0098 -0.255859,0.0078 v 0.06445 c -2.58635,0.735258 -4.22466,6.42569 -5.152344,8.974609 -8.178884,18.770706 -24.131754,33.922539 -43.244141,41.421875 -2.606792,0.946208 -4.945513,1.35509 -6.246094,3.765625 -0.195762,0.626483 -0.0981,1.204462 0.208985,1.736328 A 82.756012,32.858955 0 0 0 98.105469,106 82.756012,32.858955 0 0 0 147.19922,99.550781 c 2.3395,-1.094057 4.26936,-2.48792 3.69922,-4.3125 -1.30058,-2.410535 -3.6393,-2.819417 -6.2461,-3.765625 -19.11238,-7.49932 -35.06525,-22.651169 -43.24414,-41.421875 -0.92768,-2.548919 -2.565992,-8.239351 -5.152341,-8.974609 v -0.06445 c -0.08421,0.002 -0.173478,-0.02023 -0.255859,-0.0078 z"/>
</svg>
