<?xml version='1.0' encoding='utf-8'?>
<svg xmlns="http://www.w3.org/2000/svg" width="192" height="192" version="1" id="svg22">
  <defs>
    <filter style="color-interpolation-filters:sRGB" id="filter902" x="0.06" width="1.13" y="0.04" height="1.08">
      <feGaussianBlur stdDeviation="1.91"/>
    </filter>
    <filter style="color-interpolation-filters:sRGB" id="filter908" x="0.05" width="1.10" y="0.05" height="1.10">
      <feGaussianBlur stdDeviation="3.20"/>
    </filter>
  </defs>
  <g style="fill:#ffffff" transform="matrix(2,0,0,2,48,57)"/>
  <rect transform="matrix(0,-1,-1,0,0,0)" ry="16" rx="16" y="-176" x="-180" height="160" width="160" style="filter:url(#filter908);opacity:0.20;fill:#000000"/>
  <rect transform="matrix(0,-1,-1,0,0,0)" ry="16" rx="16" y="-176" x="-176" height="160" width="160" style="fill:#e4e4e4"/>
  <path style="filter:url(#filter902);opacity:0.10;fill:#000000;color:#000000;font-stretch:normal;font-variant-ligatures:normal;font-variant-position:normal;font-variant-caps:normal;font-variant-numeric:normal;font-variant-alternates:normal;font-variant-east-asian:normal;font-feature-settings:normal;font-variation-settings:normal;text-indent:0;text-align:start;text-decoration-line:none;text-decoration-style:solid;text-decoration-color:#000000;text-transform:none;writing-mode:lr-tb;direction:ltr;text-orientation:mixed;dominant-baseline:auto;baseline-shift:baseline;white-space:normal;shape-padding:0;shape-margin:0;inline-size:0;clip-rule:nonzero;display:inline;overflow:visible;visibility:visible;isolation:auto;mix-blend-mode:normal;color-interpolation:sRGB;color-interpolation-filters:linearRGB;solid-color:#000000;solid-opacity:1;vector-effect:none;fill-rule:nonzero;color-rendering:auto;image-rendering:auto;shape-rendering:auto;text-rendering:auto;enable-background:accumulate;stop-color:#000000" d="M 65.50,41 A 5.50,5.50 0 0 0 60,46.50 v 107 a 5.50,5.50 0 0 0 5.50,5.50 5.50,5.50 0 0 0 5.50,-5.50 V 86.12 c 8.49,0.55 13.02,2.85 15.48,5.25 C 89.21,94.02 90,97.25 90,100.60 V 153.50 a 5.50,5.50 0 0 0 5.50,5.50 5.50,5.50 0 0 0 5.50,-5.50 V 100.60 C 101,95.25 99.43,88.62 94.15,83.48 89.27,78.74 81.72,75.69 71,75.10 V 46.50 A 5.50,5.50 0 0 0 65.50,41 Z m 59.96,31 c -4.13,0.02 -7.46,3.37 -7.46,7.50 0.00,3.88 2.97,7.13 6.83,7.47 L 124.62,90.81 C 127.85,87.61 132.92,83.95 133,79.50 c 0,-4.14 -3.36,-7.50 -7.50,-7.50 0.01,0.00 0.02,0.00 0.04,0 z M 126.50,96 a 5.50,5.50 0 0 0 -5.50,5.50 v 52 a 5.50,5.50 0 0 0 5.50,5.50 5.50,5.50 0 0 0 5.50,-5.50 v -52 A 5.50,5.50 0 0 0 126.50,96 Z"/>
  <path style="fill:#1f95fb;color:#000000;font-stretch:normal;font-variant-ligatures:normal;font-variant-position:normal;font-variant-caps:normal;font-variant-numeric:normal;font-variant-alternates:normal;font-variant-east-asian:normal;font-feature-settings:normal;font-variation-settings:normal;text-indent:0;text-align:start;text-decoration-line:none;text-decoration-style:solid;text-decoration-color:#000000;text-transform:none;writing-mode:lr-tb;direction:ltr;text-orientation:mixed;dominant-baseline:auto;baseline-shift:baseline;white-space:normal;shape-padding:0;shape-margin:0;inline-size:0;clip-rule:nonzero;display:inline;overflow:visible;visibility:visible;isolation:auto;mix-blend-mode:normal;color-interpolation:sRGB;color-interpolation-filters:linearRGB;solid-color:#000000;solid-opacity:1;vector-effect:none;fill-rule:nonzero;color-rendering:auto;image-rendering:auto;shape-rendering:auto;text-rendering:auto;enable-background:accumulate;stop-color:#000000" d="M 65.50,37 A 5.50,5.50 0 0 0 60,42.50 v 107 a 5.50,5.50 0 0 0 5.50,5.50 5.50,5.50 0 0 0 5.50,-5.50 V 82.12 c 8.49,0.55 13.02,2.85 15.48,5.25 C 89.21,90.02 90,93.25 90,96.60 V 149.50 a 5.50,5.50 0 0 0 5.50,5.50 5.50,5.50 0 0 0 5.50,-5.50 V 96.60 C 101,91.25 99.43,84.62 94.15,79.48 89.27,74.74 81.72,71.69 71,71.10 V 42.50 A 5.50,5.50 0 0 0 65.50,37 Z"/>
  <path style="fill:#00c9df;color:#000000;font-stretch:normal;font-variant-ligatures:normal;font-variant-position:normal;font-variant-caps:normal;font-variant-numeric:normal;font-variant-alternates:normal;font-variant-east-asian:normal;font-feature-settings:normal;font-variation-settings:normal;text-indent:0;text-align:start;text-decoration-line:none;text-decoration-style:solid;text-decoration-color:#000000;text-transform:none;writing-mode:lr-tb;direction:ltr;text-orientation:mixed;dominant-baseline:auto;baseline-shift:baseline;white-space:normal;shape-padding:0;shape-margin:0;inline-size:0;clip-rule:nonzero;display:inline;overflow:visible;visibility:visible;isolation:auto;mix-blend-mode:normal;color-interpolation:sRGB;color-interpolation-filters:linearRGB;solid-color:#000000;solid-opacity:1;vector-effect:none;fill-rule:nonzero;color-rendering:auto;image-rendering:auto;shape-rendering:auto;text-rendering:auto;enable-background:accumulate;stop-color:#000000" d="m 125.46,68 c -4.13,0.02 -7.46,3.37 -7.46,7.50 0.00,3.88 2.97,7.13 6.83,7.47 L 124.62,86.81 C 127.85,83.61 132.92,79.95 133,75.50 c 0,-4.14 -3.36,-7.50 -7.50,-7.50 0.01,0.00 0.02,0.00 0.04,0 z M 126.50,92 a 5.50,5.50 0 0 0 -5.50,5.50 v 52 a 5.50,5.50 0 0 0 5.50,5.50 5.50,5.50 0 0 0 5.50,-5.50 v -52 A 5.50,5.50 0 0 0 126.50,92 Z"/>
  <path style="opacity:0.20;fill:#ffffff" d="m 32,16 c -8.86,0 -16,7.14 -16,16 v 1 c 0,-8.86 7.14,-16 16,-16 h 128 c 8.86,0 16,7.14 16,16 v -1 c 0,-8.86 -7.14,-16 -16,-16 z"/>
</svg>
