<?xml version='1.0' encoding='utf-8'?>
<svg xmlns="http://www.w3.org/2000/svg" width="192" height="192" version="1.1" id="svg12">
  <defs>
    <filter style="color-interpolation-filters:sRGB" id="filter858" x="0.05" width="1.10" y="0.05" height="1.10">
      <feGaussianBlur stdDeviation="3.20"/>
    </filter>
    <filter style="color-interpolation-filters:sRGB" id="filter877" x="0.06" width="1.12" y="0.04" height="1.08">
      <feGaussianBlur stdDeviation="1.64"/>
    </filter>
  </defs>
  <circle r="80" cy="100" cx="96" style="filter:url(#filter858);opacity:0.20;fill:#000000"/>
  <circle style="fill:#f7931a" cx="96" cy="96" r="80"/>
  <path style="opacity:0.20;fill:#ffffff" d="M 96 16 A 80 80 0 0 0 16 96 A 80 80 0 0 0 16.02 96.49 A 80 80 0 0 1 96 17 A 80 80 0 0 1 175.97 96.49 A 80 80 0 0 0 176 96 A 80 80 0 0 0 96 16 z "/>
  <path style="filter:url(#filter877);opacity:0.20" d="m 79.99,50 v 16 c -1.97,0.08 -5.58,0 -7.46,0 H 59.99 v 8 c 0,0 6.88,0.12 6.77,0 3.68,0.06 4.85,2.62 5.23,4.40 V 118 c 0.14,1.13 0.02,3.92 -2.59,4 0.12,0.10 -9.41,0 -9.41,0 v 8 h 13.02 c 2.20,0.08 4.86,0 6.98,0 v 16 l 8,0.15 V 130 h 7.88 l 0.25,16 h 8.00 l 0.25,-16 c 15.26,-1.11 24.13,-8 24.13,-18.01 0,-5.99 -5.78,-13.99 -12,-13.99 2.25,0 8,-8 8,-16 0,-6.89 -4.36,-13.78 -12.04,-15.56 C 110.72,66.15 105.41,66 104,66 l 0.01,-16 h -8 V 66 C 93.60,66 90.43,65.91 88,66 L 87.99,50 Z m 8,24 c 8,0 20.00,0.00 20.00,10 0.00,10.00 -12.00,10 -20.00,10 z m 0,28 c 16.00,0.00 24.00,0.00 24.00,10 0.00,10.00 -8,10 -24.00,10 z"/>
  <path style="fill:#ffffff" d="m 79.99,48 v 16 c -1.97,0.08 -5.58,0 -7.46,0 H 59.99 v 8 c 0,0 6.88,0.12 6.77,0 3.68,0.06 4.85,2.62 5.23,4.40 V 116 c 0.14,1.13 0.02,3.92 -2.59,4 0.12,0.10 -9.41,0 -9.41,0 v 8 h 13.02 c 2.20,0.08 4.86,0 6.98,0 v 16 l 8,0.15 V 128 h 7.88 l 0.25,16 h 8.00 l 0.25,-16 c 15.26,-1.11 24.13,-8 24.13,-18.01 0,-5.99 -5.78,-13.99 -12,-13.99 2.25,0 8,-8 8,-16 0,-6.89 -4.36,-13.78 -12.04,-15.56 C 110.72,64.15 105.41,64 104,64 l 0.01,-16 h -8 V 64 C 93.60,64 90.43,63.91 88,64 L 87.99,48 Z m 8,24 c 8,0 20.00,0.00 20.00,10 0.00,10.00 -12.00,10 -20.00,10 z m 0,28 c 16.00,0.00 24.00,0.00 24.00,10 0.00,10.00 -8,10 -24.00,10 z"/>
</svg>
