<?xml version='1.0' encoding='utf-8'?>
<svg xmlns="http://www.w3.org/2000/svg" width="192" height="192" version="1" id="svg14">
  <defs>
    <filter style="color-interpolation-filters:sRGB" id="filter850" x="-0.048000001" width="1.096" y="-0.048000001" height="1.096">
      <feGaussianBlur stdDeviation="3.2"/>
    </filter>
    <filter style="color-interpolation-filters:sRGB" id="filter12470" x="-0.044400001" y="-0.052235295" width="1.0888" height="1.1044706">
      <feGaussianBlur stdDeviation="1.85"/>
    </filter>
  </defs>
  <circle style="filter:url(#filter850);opacity:0.2;fill:#000000" cx="96" cy="100" r="80"/>
  <circle r="80" cy="96" cx="96" style="fill:#e72f8e"/>
  <circle style="fill:#1e4588" cx="96" cy="96" r="61"/>
  <path style="opacity:0.2;fill:#ffffff" d="M 96 16 A 80 80 0 0 0 16 96 A 80 80 0 0 0 16.019531 96.472656 A 80 80 0 0 1 96 17 A 80 80 0 0 1 175.97461 96.513672 A 80 80 0 0 0 176 96 A 80 80 0 0 0 96 16 z "/>
  <path style="filter:url(#filter12470);opacity:0.2;fill:#000000" d="M 99.5,56 A 3.5,3.5 0 0 0 96,59.5 3.5,3.5 0 0 0 99.5,63 3.5,3.5 0 0 0 103,59.5 3.5,3.5 0 0 0 99.5,56 Z m 13,12.5 a 4,4 0 0 0 -4,4 4,4 0 0 0 4,4 4,4 0 0 0 4,-4 4,4 0 0 0 -4,-4 z M 99.5,69 A 3.5,3.5 0 0 0 96,72.5 3.5,3.5 0 0 0 99.5,76 3.5,3.5 0 0 0 103,72.5 3.5,3.5 0 0 0 99.5,69 Z m 27,12 a 4.5,4.5 0 0 0 -4.5,4.5 4.5,4.5 0 0 0 4.5,4.5 4.5,4.5 0 0 0 4.5,-4.5 4.5,4.5 0 0 0 -4.5,-4.5 z m -14,0.5 a 4,4 0 0 0 -4,4 4,4 0 0 0 4,4 4,4 0 0 0 4,-4 4,4 0 0 0 -4,-4 z M 99.5,82 A 3.5,3.5 0 0 0 96,85.5 3.5,3.5 0 0 0 99.5,89 3.5,3.5 0 0 0 103,85.5 3.5,3.5 0 0 0 99.5,82 Z M 88,82.5 a 3,3 0 0 0 -3,3 3,3 0 0 0 3,3 3,3 0 0 0 3,-3 3,3 0 0 0 -3,-3 z M 77.5,83 A 2.5,2.5 0 0 0 75,85.5 2.5,2.5 0 0 0 77.5,88 2.5,2.5 0 0 0 80,85.5 2.5,2.5 0 0 0 77.5,83 Z m -9,0.5 a 2,2 0 0 0 -2,2 2,2 0 0 0 2,2 2,2 0 0 0 2,-2 2,2 0 0 0 -2,-2 z m -8,0.5 A 1.5,1.5 0 0 0 59,85.5 1.5,1.5 0 0 0 60.5,87 1.5,1.5 0 0 0 62,85.5 1.5,1.5 0 0 0 60.5,84 Z M 53,84.5 a 1,1 0 0 0 -1,1 1,1 0 0 0 1,1 1,1 0 0 0 1,-1 1,1 0 0 0 -1,-1 z M 46.5,85 A 0.5,0.5 0 0 0 46,85.5 0.5,0.5 0 0 0 46.5,86 0.5,0.5 0 0 0 47,85.5 0.5,0.5 0 0 0 46.5,85 Z m 94.5,8.5 a 5,5 0 0 0 -5,5 5,5 0 0 0 5,5 5,5 0 0 0 5,-5 5,5 0 0 0 -5,-5 z M 126.5,94 a 4.5,4.5 0 0 0 -4.5,4.5 4.5,4.5 0 0 0 4.5,4.5 4.5,4.5 0 0 0 4.5,-4.5 4.5,4.5 0 0 0 -4.5,-4.5 z m -14,0.5 a 4,4 0 0 0 -4,4 4,4 0 0 0 4,4 4,4 0 0 0 4,-4 4,4 0 0 0 -4,-4 z M 99.5,95 A 3.5,3.5 0 0 0 96,98.5 3.5,3.5 0 0 0 99.5,102 3.5,3.5 0 0 0 103,98.5 3.5,3.5 0 0 0 99.5,95 Z M 88,95.5 a 3,3 0 0 0 -3,3 3,3 0 0 0 3,3 3,3 0 0 0 3,-3 3,3 0 0 0 -3,-3 z M 77.5,96 A 2.5,2.5 0 0 0 75,98.5 2.5,2.5 0 0 0 77.5,101 2.5,2.5 0 0 0 80,98.5 2.5,2.5 0 0 0 77.5,96 Z m -9,0.5 a 2,2 0 0 0 -2,2 2,2 0 0 0 2,2 2,2 0 0 0 2,-2 2,2 0 0 0 -2,-2 z m -8,0.5 A 1.5,1.5 0 0 0 59,98.5 1.5,1.5 0 0 0 60.5,100 1.5,1.5 0 0 0 62,98.5 1.5,1.5 0 0 0 60.5,97 Z M 53,97.5 a 1,1 0 0 0 -1,1 1,1 0 0 0 1,1 1,1 0 0 0 1,-1 1,1 0 0 0 -1,-1 z M 46.5,98 A 0.5,0.5 0 0 0 46,98.5 0.5,0.5 0 0 0 46.5,99 0.5,0.5 0 0 0 47,98.5 0.5,0.5 0 0 0 46.5,98 Z m 80,9 a 4.5,4.5 0 0 0 -4.5,4.5 4.5,4.5 0 0 0 4.5,4.5 4.5,4.5 0 0 0 4.5,-4.5 4.5,4.5 0 0 0 -4.5,-4.5 z m -14,0.5 a 4,4 0 0 0 -4,4 4,4 0 0 0 4,4 4,4 0 0 0 4,-4 4,4 0 0 0 -4,-4 z m -13,0.5 a 3.5,3.5 0 0 0 -3.5,3.5 3.5,3.5 0 0 0 3.5,3.5 3.5,3.5 0 0 0 3.5,-3.5 3.5,3.5 0 0 0 -3.5,-3.5 z M 88,108.5 a 3,3 0 0 0 -3,3 3,3 0 0 0 3,3 3,3 0 0 0 3,-3 3,3 0 0 0 -3,-3 z M 77.5,109 a 2.5,2.5 0 0 0 -2.5,2.5 2.5,2.5 0 0 0 2.5,2.5 2.5,2.5 0 0 0 2.5,-2.5 2.5,2.5 0 0 0 -2.5,-2.5 z m -9,0.5 a 2,2 0 0 0 -2,2 2,2 0 0 0 2,2 2,2 0 0 0 2,-2 2,2 0 0 0 -2,-2 z m -8,0.5 a 1.5,1.5 0 0 0 -1.5,1.5 1.5,1.5 0 0 0 1.5,1.5 1.5,1.5 0 0 0 1.5,-1.5 1.5,1.5 0 0 0 -1.5,-1.5 z m -7.5,0.5 a 1,1 0 0 0 -1,1 1,1 0 0 0 1,1 1,1 0 0 0 1,-1 1,1 0 0 0 -1,-1 z m -6.5,0.5 a 0.5,0.5 0 0 0 -0.5,0.5 0.5,0.5 0 0 0 0.5,0.5 0.5,0.5 0 0 0 0.5,-0.5 0.5,0.5 0 0 0 -0.5,-0.5 z m 66,9.5 a 4,4 0 0 0 -4,4 4,4 0 0 0 4,4 4,4 0 0 0 4,-4 4,4 0 0 0 -4,-4 z m -13,0.5 a 3.5,3.5 0 0 0 -3.5,3.5 3.5,3.5 0 0 0 3.5,3.5 3.5,3.5 0 0 0 3.5,-3.5 3.5,3.5 0 0 0 -3.5,-3.5 z m 0,13 a 3.5,3.5 0 0 0 -3.5,3.5 3.5,3.5 0 0 0 3.5,3.5 3.5,3.5 0 0 0 3.5,-3.5 3.5,3.5 0 0 0 -3.5,-3.5 z"/>
  <path style="fill:#ffffff" d="M 99.5,54 A 3.5,3.5 0 0 0 96,57.5 3.5,3.5 0 0 0 99.5,61 3.5,3.5 0 0 0 103,57.5 3.5,3.5 0 0 0 99.5,54 Z m 13,12.5 a 4,4 0 0 0 -4,4 4,4 0 0 0 4,4 4,4 0 0 0 4,-4 4,4 0 0 0 -4,-4 z M 99.5,67 A 3.5,3.5 0 0 0 96,70.5 3.5,3.5 0 0 0 99.5,74 3.5,3.5 0 0 0 103,70.5 3.5,3.5 0 0 0 99.5,67 Z m 27,12 a 4.5,4.5 0 0 0 -4.5,4.5 4.5,4.5 0 0 0 4.5,4.5 4.5,4.5 0 0 0 4.5,-4.5 4.5,4.5 0 0 0 -4.5,-4.5 z m -14,0.5 a 4,4 0 0 0 -4,4 4,4 0 0 0 4,4 4,4 0 0 0 4,-4 4,4 0 0 0 -4,-4 z M 99.5,80 A 3.5,3.5 0 0 0 96,83.5 3.5,3.5 0 0 0 99.5,87 3.5,3.5 0 0 0 103,83.5 3.5,3.5 0 0 0 99.5,80 Z M 88,80.5 a 3,3 0 0 0 -3,3 3,3 0 0 0 3,3 3,3 0 0 0 3,-3 3,3 0 0 0 -3,-3 z M 77.5,81 A 2.5,2.5 0 0 0 75,83.5 2.5,2.5 0 0 0 77.5,86 2.5,2.5 0 0 0 80,83.5 2.5,2.5 0 0 0 77.5,81 Z m -9,0.5 a 2,2 0 0 0 -2,2 2,2 0 0 0 2,2 2,2 0 0 0 2,-2 2,2 0 0 0 -2,-2 z m -8,0.5 A 1.5,1.5 0 0 0 59,83.5 1.5,1.5 0 0 0 60.5,85 1.5,1.5 0 0 0 62,83.5 1.5,1.5 0 0 0 60.5,82 Z M 53,82.5 a 1,1 0 0 0 -1,1 1,1 0 0 0 1,1 1,1 0 0 0 1,-1 1,1 0 0 0 -1,-1 z M 46.5,83 A 0.5,0.5 0 0 0 46,83.5 0.5,0.5 0 0 0 46.5,84 0.5,0.5 0 0 0 47,83.5 0.5,0.5 0 0 0 46.5,83 Z m 94.5,8.5 a 5,5 0 0 0 -5,5 5,5 0 0 0 5,5 5,5 0 0 0 5,-5 5,5 0 0 0 -5,-5 z M 126.5,92 a 4.5,4.5 0 0 0 -4.5,4.5 4.5,4.5 0 0 0 4.5,4.5 4.5,4.5 0 0 0 4.5,-4.5 4.5,4.5 0 0 0 -4.5,-4.5 z m -14,0.5 a 4,4 0 0 0 -4,4 4,4 0 0 0 4,4 4,4 0 0 0 4,-4 4,4 0 0 0 -4,-4 z M 99.5,93 A 3.5,3.5 0 0 0 96,96.5 3.5,3.5 0 0 0 99.5,100 3.5,3.5 0 0 0 103,96.5 3.5,3.5 0 0 0 99.5,93 Z M 88,93.5 a 3,3 0 0 0 -3,3 3,3 0 0 0 3,3 3,3 0 0 0 3,-3 3,3 0 0 0 -3,-3 z M 77.5,94 A 2.5,2.5 0 0 0 75,96.5 2.5,2.5 0 0 0 77.5,99 2.5,2.5 0 0 0 80,96.5 2.5,2.5 0 0 0 77.5,94 Z m -9,0.5 a 2,2 0 0 0 -2,2 2,2 0 0 0 2,2 2,2 0 0 0 2,-2 2,2 0 0 0 -2,-2 z m -8,0.5 A 1.5,1.5 0 0 0 59,96.5 1.5,1.5 0 0 0 60.5,98 1.5,1.5 0 0 0 62,96.5 1.5,1.5 0 0 0 60.5,95 Z M 53,95.5 a 1,1 0 0 0 -1,1 1,1 0 0 0 1,1 1,1 0 0 0 1,-1 1,1 0 0 0 -1,-1 z M 46.5,96 A 0.5,0.5 0 0 0 46,96.5 0.5,0.5 0 0 0 46.5,97 0.5,0.5 0 0 0 47,96.5 0.5,0.5 0 0 0 46.5,96 Z m 80,9 a 4.5,4.5 0 0 0 -4.5,4.5 4.5,4.5 0 0 0 4.5,4.5 4.5,4.5 0 0 0 4.5,-4.5 4.5,4.5 0 0 0 -4.5,-4.5 z m -14,0.5 a 4,4 0 0 0 -4,4 4,4 0 0 0 4,4 4,4 0 0 0 4,-4 4,4 0 0 0 -4,-4 z m -13,0.5 a 3.5,3.5 0 0 0 -3.5,3.5 3.5,3.5 0 0 0 3.5,3.5 3.5,3.5 0 0 0 3.5,-3.5 3.5,3.5 0 0 0 -3.5,-3.5 z M 88,106.5 a 3,3 0 0 0 -3,3 3,3 0 0 0 3,3 3,3 0 0 0 3,-3 3,3 0 0 0 -3,-3 z M 77.5,107 a 2.5,2.5 0 0 0 -2.5,2.5 2.5,2.5 0 0 0 2.5,2.5 2.5,2.5 0 0 0 2.5,-2.5 2.5,2.5 0 0 0 -2.5,-2.5 z m -9,0.5 a 2,2 0 0 0 -2,2 2,2 0 0 0 2,2 2,2 0 0 0 2,-2 2,2 0 0 0 -2,-2 z m -8,0.5 a 1.5,1.5 0 0 0 -1.5,1.5 1.5,1.5 0 0 0 1.5,1.5 1.5,1.5 0 0 0 1.5,-1.5 1.5,1.5 0 0 0 -1.5,-1.5 z m -7.5,0.5 a 1,1 0 0 0 -1,1 1,1 0 0 0 1,1 1,1 0 0 0 1,-1 1,1 0 0 0 -1,-1 z m -6.5,0.5 a 0.5,0.5 0 0 0 -0.5,0.5 0.5,0.5 0 0 0 0.5,0.5 0.5,0.5 0 0 0 0.5,-0.5 0.5,0.5 0 0 0 -0.5,-0.5 z m 66,9.5 a 4,4 0 0 0 -4,4 4,4 0 0 0 4,4 4,4 0 0 0 4,-4 4,4 0 0 0 -4,-4 z m -13,0.5 a 3.5,3.5 0 0 0 -3.5,3.5 3.5,3.5 0 0 0 3.5,3.5 3.5,3.5 0 0 0 3.5,-3.5 3.5,3.5 0 0 0 -3.5,-3.5 z m 0,13 a 3.5,3.5 0 0 0 -3.5,3.5 3.5,3.5 0 0 0 3.5,3.5 3.5,3.5 0 0 0 3.5,-3.5 3.5,3.5 0 0 0 -3.5,-3.5 z"/>
</svg>
