<?xml version='1.0' encoding='utf-8'?>
<svg xmlns="http://www.w3.org/2000/svg" width="192" height="192" version="1.1" id="svg12">
  <defs>
    <filter style="color-interpolation-filters:sRGB" id="filter845" x="-0.048000001" y="-0.048000001" width="1.096" height="1.096">
      <feGaussianBlur stdDeviation="3.2"/>
    </filter>
    <filter style="color-interpolation-filters:sRGB" id="filter849" x="-0.048000002" y="-0.048000002" width="1.096" height="1.096">
      <feGaussianBlur stdDeviation="2.4"/>
    </filter>
  </defs>
  <circle style="filter:url(#filter845);opacity:0.2" cx="96" cy="100" r="80"/>
  <circle style="fill:#0b77d2" cx="96" cy="96" r="80"/>
  <path style="opacity:0.2;fill:#ffffff" d="M 96 16 A 80 80 0 0 0 16 96 A 80 80 0 0 0 16.023438 96.638672 A 80 80 0 0 1 96 17 A 80 80 0 0 1 175.98438 96.302734 A 80 80 0 0 0 176 96 A 80 80 0 0 0 96 16 z "/>
  <path style="filter:url(#filter849);opacity:0.2" d="m 42,98 56,24 64,-88 -60,120 z"/>
  <path style="fill:#ffffff" d="m 42,96 56,24 64,-88 -60,120 z"/>
</svg>
