<?xml version='1.0' encoding='utf-8'?>
<svg xmlns="http://www.w3.org/2000/svg" width="192" height="192" version="1" id="svg14">
  <defs>
    <filter style="color-interpolation-filters:sRGB" id="filter850" x="-0.048000001" width="1.096" y="-0.048000001" height="1.096">
      <feGaussianBlur stdDeviation="3.2"/>
    </filter>
    <filter style="color-interpolation-filters:sRGB" id="filter11795" x="-0.074437424" y="-0.080159283" width="1.1488748" height="1.1603186">
      <feGaussianBlur stdDeviation="3.1532348"/>
    </filter>
  </defs>
  <circle style="filter:url(#filter850);opacity:0.2;fill:#000000" cx="96" cy="100" r="80"/>
  <circle r="80" cy="96" cx="96" style="fill:#ef037d"/>
  <path style="filter:url(#filter11795);opacity:0.2;fill:#000000" d="m 137,77.00038 c -15.26509,0.05246 -29.95574,5.643308 -41.371094,15.675781 -0.01779,0.01348 -2.326696,1.973157 -0.222656,4.042969 l 52.86674,52.00673 c 14.81059,-14.91613 -0.83167,-27.40047 -0.7567,-48.42043 C 147.516,97.718173 175.87391,92.8274 175.62305,90.252333 164.57697,81.669578 150.98855,77.007255 137,77.00038 Z m -51.515625,26.95898 c -1.31914,1.84452 -2.536749,3.75859 -3.648437,5.73243 -0.398224,0.96429 -1.965747,4.45613 1.255859,7.67773 l 46.341353,45.48134 c 3.3601,-1.81642 6.5858,-3.87116 9.65234,-6.14844 z m -9.958984,23.00782 c -0.848294,3.77853 -1.346596,7.62634 -1.488282,11.49414 -0.292289,2.3576 0.207525,3.23096 1.904297,4.92773 l 28.880414,28.0204 c 4.31709,-0.75183 8.5651,-1.85712 12.70117,-3.30468 z"/>
  <path style="opacity:0.2;fill:#ffffff" d="M 96 16 A 80 80 0 0 0 16 96 A 80 80 0 0 0 16.019531 96.472656 A 80 80 0 0 1 96 17 A 80 80 0 0 1 175.97461 96.513672 A 80 80 0 0 0 176 96 A 80 80 0 0 0 96 16 z "/>
  <path style="fill:#f95893" d="m 75.525391,124.9668 c -0.848294,3.77853 -1.346146,7.62615 -1.487832,11.49395 -0.292289,2.3576 0.20729,3.23136 1.904062,4.92813 l 33.376739,33.37674 c 4.31709,-0.75184 8.5651,-1.85712 12.70117,-3.30468 z"/>
  <path style="fill:#f99bca" d="m 85.484375,101.95898 c -1.31914,1.84452 -2.537051,3.75797 -3.64874,5.73181 -0.398224,0.96429 -1.964759,4.45743 1.256847,7.67903 l 50.937348,50.9374 c 3.3601,-1.81642 6.5858,-3.87116 9.65234,-6.14844 z"/>
  <path style="fill:#ffffff" d="m 137,75 c -15.26509,0.05246 -29.95567,5.643949 -41.371025,15.676422 -0.01779,0.01348 -2.312084,1.956616 -0.223265,4.041788 L 152.97,152.182 c 14.81059,-14.91613 23.0555,-35.16204 23.13048,-56.182 -3e-4,-2.587258 -0.1261,-5.17298 -0.37695,-7.748047 C 164.67744,79.669198 150.98855,75.006875 137,75 Z"/>
</svg>
