<?xml version='1.0' encoding='utf-8'?>
<svg xmlns="http://www.w3.org/2000/svg" width="192" height="192" version="1.1" id="svg28">
  <defs>
    <filter style="color-interpolation-filters:sRGB" id="filter877" x="-0.048000001" y="-0.048000001" width="1.096" height="1.096">
      <feGaussianBlur stdDeviation="3.2"/>
    </filter>
    <filter style="color-interpolation-filters:sRGB" id="filter2205" x="-0.048615382" y="-0.047399998" width="1.0972308" height="1.0948">
      <feGaussianBlur stdDeviation="2.37"/>
    </filter>
  </defs>
  <path style="filter:url(#filter877);opacity:0.2" d="M 96,20 A 80,80 0 0 0 16,100 80,80 0 0 0 96,180 80,80 0 0 0 176,100 80,80 0 0 0 96,20 Z"/>
  <path style="fill:#00c2cb" d="M 96,16 A 80,80 0 0 0 16,96 80,80 0 0 0 96,176 80,80 0 0 0 176,96 80,80 0 0 0 96,16 Z"/>
  <path style="opacity:0.2;fill:#ffffff" d="M 96,16 A 80,80 0 0 0 16.564453,87.408203 80,76 0 0 1 19.755859,73.679688 80,80 0 0 1 96,17 80,80 0 0 1 172.77344,75.298828 80,76 0 0 1 175.6875,89.787109 80,80 0 0 0 96,16 Z"/>
  <path style="filter:url(#filter2205);opacity:0.2;fill:#000000;stop-color:#000000" d="M 94,38 A 10,10 0 0 0 84,48 10,10 0 0 0 94,58 10,10 0 0 0 104,48 10,10 0 0 0 94,38 Z m 24,24 A 11,11 0 0 0 107,73 11,11 0 0 0 118,84 11,11 0 0 0 129,73 11,11 0 0 0 118,62 Z M 94,63 A 10,10 0 0 0 84,73 10,10 0 0 0 94,83 10,10 0 0 0 104,73 10,10 0 0 0 94,63 Z m -24,1 a 9,9 0 0 0 -9,9 9,9 0 0 0 9,9 9,9 0 0 0 9,-9 9,9 0 0 0 -9,-9 z m 73,22 a 12,12 0 0 0 -12,12 12,12 0 0 0 12,12 12,12 0 0 0 12,-12 12,12 0 0 0 -12,-12 z m -25,1 a 11,11 0 0 0 -11,11 11,11 0 0 0 11,11 11,11 0 0 0 11,-11 11,11 0 0 0 -11,-11 z M 94,88 A 10,10 0 0 0 84,98 10,10 0 0 0 94,108 10,10 0 0 0 104,98 10,10 0 0 0 94,88 Z m -24,1 a 9,9 0 0 0 -9,9 9,9 0 0 0 9,9 9,9 0 0 0 9,-9 9,9 0 0 0 -9,-9 z m -24,1 a 8,8 0 0 0 -8,8 8,8 0 0 0 8,8 8,8 0 0 0 8,-8 8,8 0 0 0 -8,-8 z m 72,22 a 11,11 0 0 0 -11,11 11,11 0 0 0 11,11 11,11 0 0 0 11,-11 11,11 0 0 0 -11,-11 z m -24,1 a 10,10 0 0 0 -10,10 10,10 0 0 0 10,10 10,10 0 0 0 10,-10 10,10 0 0 0 -10,-10 z m -24,1 a 9,9 0 0 0 -9,9 9,9 0 0 0 9,9 9,9 0 0 0 9,-9 9,9 0 0 0 -9,-9 z m 24,24 a 10,10 0 0 0 -10,10 10,10 0 0 0 10,10 10,10 0 0 0 10,-10 10,10 0 0 0 -10,-10 z"/>
  <path style="fill:#ffffff;stop-color:#000000" d="M 94,36 A 10,10 0 0 0 84,46 10,10 0 0 0 94,56 10,10 0 0 0 104,46 10,10 0 0 0 94,36 Z m 24,24 A 11,11 0 0 0 107,71 11,11 0 0 0 118,82 11,11 0 0 0 129,71 11,11 0 0 0 118,60 Z M 94,61 A 10,10 0 0 0 84,71 10,10 0 0 0 94,81 10,10 0 0 0 104,71 10,10 0 0 0 94,61 Z m -24,1 a 9,9 0 0 0 -9,9 9,9 0 0 0 9,9 9,9 0 0 0 9,-9 9,9 0 0 0 -9,-9 z m 73,22 a 12,12 0 0 0 -12,12 12,12 0 0 0 12,12 12,12 0 0 0 12,-12 12,12 0 0 0 -12,-12 z m -25,1 a 11,11 0 0 0 -11,11 11,11 0 0 0 11,11 11,11 0 0 0 11,-11 11,11 0 0 0 -11,-11 z M 94,86 A 10,10 0 0 0 84,96 10,10 0 0 0 94,106 10,10 0 0 0 104,96 10,10 0 0 0 94,86 Z m -24,1 a 9,9 0 0 0 -9,9 9,9 0 0 0 9,9 9,9 0 0 0 9,-9 9,9 0 0 0 -9,-9 z m -24,1 a 8,8 0 0 0 -8,8 8,8 0 0 0 8,8 8,8 0 0 0 8,-8 8,8 0 0 0 -8,-8 z m 72,22 a 11,11 0 0 0 -11,11 11,11 0 0 0 11,11 11,11 0 0 0 11,-11 11,11 0 0 0 -11,-11 z m -24,1 a 10,10 0 0 0 -10,10 10,10 0 0 0 10,10 10,10 0 0 0 10,-10 10,10 0 0 0 -10,-10 z m -24,1 a 9,9 0 0 0 -9,9 9,9 0 0 0 9,9 9,9 0 0 0 9,-9 9,9 0 0 0 -9,-9 z m 24,24 a 10,10 0 0 0 -10,10 10,10 0 0 0 10,10 10,10 0 0 0 10,-10 10,10 0 0 0 -10,-10 z"/>
</svg>
