<?xml version='1.0' encoding='utf-8'?>
<svg xmlns="http://www.w3.org/2000/svg" width="192" height="192" version="1" id="svg12">
  <defs>
    <filter style="color-interpolation-filters:sRGB" id="filter1054" x="0.05" y="0.05" width="1.10" height="1.10">
      <feGaussianBlur stdDeviation="3.20"/>
    </filter>
    <filter style="color-interpolation-filters:sRGB" id="filter1058" x="0.05" y="0.05" width="1.10" height="1.10">
      <feGaussianBlur stdDeviation="2.24"/>
    </filter>
    <filter style="color-interpolation-filters:sRGB" id="filter16719" x="0.06" y="0.06" width="1.13" height="1.13">
      <feGaussianBlur stdDeviation="2.24"/>
    </filter>
  </defs>
  <rect style="filter:url(#filter1054);opacity:0.20" width="160" height="160" x="16" y="20" rx="48" ry="48"/>
  <rect style="fill:#4e7ad9" width="160" height="160" x="16" y="16" rx="48" ry="48"/>
  <path style="filter:url(#filter1058);opacity:0.20" d="M 96,44 A 56,56 0 0 0 40,100 56,56 0 0 0 96,156 56,56 0 0 0 152,100 56,56 0 0 0 96,44 Z M 76,80 v 12 h 40 V 80 l 32,20 -32,20 V 108 H 76 v 12 L 44,100 Z"/>
  <path style="fill:#ffffff" d="m 95.59,44.18 c -30.93,0 -51.68,22.20 -51.68,53.13 0,9.82 -1.38,17.74 3.06,25.77 C 56.51,140.32 74.89,152 96,152 c 30.93,0 56,-25.07 56,-56 0,-21.18 -11.76,-39.62 -29.11,-49.13 -7.98,-4.38 -17.56,-2.68 -27.30,-2.68 z M 76,76 v 12 h 40 V 76 l 32,20 -32,20 V 104 H 76 v 12 L 44,96 Z"/>
  <path style="opacity:0.20;fill:#ffffff" d="M 64 16 C 37.41 16 16 37.41 16 64 L 16 65 C 16 38.41 37.41 17 64 17 L 128 17 C 154.59 17 176 38.41 176 65 L 176 64 C 176 37.41 154.59 16 128 16 L 64 16 z "/>
  <path style="filter:url(#filter16719);opacity:0.10;fill:#000000;stop-color:#000000" d="M 56.40,58.40 A 56,56 0 0 0 47.83,126.37 L 124.43,49.77 A 56,56 0 0 0 56.40,58.40 Z"/>
  <path style="fill:#cccccc;stop-color:#000000" d="m 56.40,56.40 a 56,56 0 0 0 -8.57,67.97 L 124.43,47.77 A 56,56 0 0 0 56.40,56.40 Z"/>
  <text xml:space="preserve" style="fill:#4e7ad9;font-style:normal;font-weight:normal;font-size:35.7542px;line-height:1.25;font-family:sans-serif" x="-13.68" y="112.19" transform="rotate(-45)">
    <tspan x="-13.68" y="112.19" style="fill:#4e7ad9;font-style:normal;font-variant:normal;font-weight:bold;font-stretch:normal;font-family:sans-serif">H</tspan>
  </text>
</svg>
