<?xml version='1.0' encoding='utf-8'?>
<svg xmlns="http://www.w3.org/2000/svg" width="192" height="192" version="1" id="svg14">
  <defs>
    <filter style="color-interpolation-filters:sRGB" id="filter850" x="0.05" width="1.10" y="0.05" height="1.10">
      <feGaussianBlur stdDeviation="3.20"/>
    </filter>
    <filter style="color-interpolation-filters:sRGB" id="filter2857" x="0.11" y="0.11" width="1.21" height="1.22">
      <feGaussianBlur stdDeviation="4.62"/>
    </filter>
  </defs>
  <circle style="filter:url(#filter850);opacity:0.20;fill:#000000" cx="96" cy="100" r="80"/>
  <circle r="80" cy="96" cx="96" style="fill:#f23e3f"/>
  <path style="fill:#38adfa" d="m 688.81,257.00 c 0.33,0.33 -1.19,0.37 -1.92,0.08 0.80,0.32 0.56,0.56 0.60,0.60 1.05,0.04 1.64,0.19 1.31,0.53 z"/>
  <path style="opacity:0.20;fill:#ffffff" d="M 96 16 A 80 80 0 0 0 16 96 A 80 80 0 0 0 16.02 96.47 A 80 80 0 0 1 96 17 A 80 80 0 0 1 175.97 96.51 A 80 80 0 0 0 176 96 A 80 80 0 0 0 96 16 z "/>
  <path style="filter:url(#filter2857);opacity:0.20;fill:#000000" d="M 96,41.79 83.59,80.00 H 43.76 L 76.09,104.31 63.12,142.79 90,122.63 V 98.00 H 79 v -12 h 34 v 12 h -11 v 24.63 l 26.88,20.16 -12.97,-38.48 32.34,-24.31 h -39.83 z"/>
  <path style="fill:#ffffff" d="M 96 39.79 L 83.59 78 L 43.76 78 L 76.09 102.31 L 63.12 140.79 L 90 120.63 L 90 96 L 79 96 L 79 84 L 113 84 L 113 96 L 102 96 L 102 120.63 L 128.88 140.79 L 115.91 102.31 L 148.24 78 L 108.41 78 L 96 39.79 z "/>
</svg>
