<?xml version='1.0' encoding='utf-8'?>
<svg xmlns="http://www.w3.org/2000/svg" width="192" height="192" version="1" id="svg30">
  <defs>
    <filter style="color-interpolation-filters:sRGB" id="filter874" x="-0.048000001" width="1.096" y="-0.048000001" height="1.096">
      <feGaussianBlur stdDeviation="3.2"/>
    </filter>
    <filter style="color-interpolation-filters:sRGB" id="filter890" x="-0.051999998" width="1.104" y="-0.044571427" height="1.0891429">
      <feGaussianBlur stdDeviation="0.52"/>
    </filter>
  </defs>
  <rect style="filter:url(#filter874);opacity:0.2;fill:#000000" width="160" height="160" x="-180" y="-176" rx="80" ry="80" transform="matrix(0,-1,-1,0,0,0)"/>
  <rect transform="matrix(0,-1,-1,0,0,0)" ry="80" rx="80" y="-176" x="-176" height="160" width="160" style="fill:#7e3cac"/>
  <path style="opacity:0.1;fill:#ffffff" d="M 95.998047 16 C 51.678955 16.001052 16 51.680653 16 96 C 16 96.115498 16.006172 96.228859 16.007812 96.34375 C 16.358829 52.329731 51.898462 17.001046 95.998047 17 L 96 17 C 140.10547 17.001047 175.64856 52.339122 175.99023 96.361328 C 175.99198 96.240601 175.99805 96.121307 175.99805 96 C 175.99805 51.680653 140.31909 16.001052 96 16 L 95.998047 16 z "/>
  <g transform="matrix(4,0,0,4,0,12)" style="filter:url(#filter890);opacity:0.2">
    <path d="m 24,8 c -6.627417,0 -12,5.372583 -12,12 0.01054,3.838017 1.85269,7.411143 4.908203,9.648438 0.02455,0.01797 0.05106,0.02525 0.07617,0.03711 a 1,1 0 0 0 0.615234,0.214844 1,1 0 0 0 1,-1 A 1,1 0 0 0 18,27.982422 v -0.002 C 15.487432,26.096053 14.006139,23.140698 14,20 c 0,-5.522847 4.477153,-10 10,-10 5.522847,0 10,4.477153 10,10 -0.008,3.138635 -1.489077,6.091432 -4,7.974609 l -0.002,0.0098 a 1,1 0 0 0 -0.597656,0.916016 1,1 0 0 0 1,1 1,1 0 0 0 0.630859,-0.226563 c 0.03086,-0.01144 0.06345,-0.01816 0.0918,-0.03906 C 34.162116,27.393986 35.992607,23.82807 36,20 36,13.372583 30.627417,8 24,8 Z"/>
    <path d="m 24,12 c -4.418278,0 -8,3.581722 -8,8 0.0036,2.407547 1.088815,4.659929 2.912109,6.162109 0.03917,0.03227 0.07929,0.05073 0.119141,0.06055 a 1,1 0 0 0 0.568359,0.177735 1,1 0 0 0 1,-1 A 1,1 0 0 0 20,24.482422 v -0.01758 C 18.729291,23.32829 18.002073,21.704832 18,20 c 0,-3.313708 2.686292,-6 6,-6 3.313708,0 6,2.686292 6,6 -0.0026,1.704151 -0.729797,3.326791 -2,4.462891 v 0.01953 a 1,1 0 0 0 -0.599609,0.917969 1,1 0 0 0 1,1 1,1 0 0 0 0.478515,-0.123047 c 0.04639,-0.0034 0.09317,-0.01806 0.138672,-0.05469 C 30.884369,24.71995 31.997474,22.439792 32,20 32,15.581722 28.418278,12 24,12 Z"/>
    <path d="m 24,17 a 3,3 0 0 0 -3,3 3,3 0 0 0 3,3 3,3 0 0 0 3,-3 3,3 0 0 0 -3,-3 z"/>
    <rect ry="3" rx="3" y="25" x="21" height="11" width="6"/>
  </g>
  <g transform="matrix(4,0,0,4,0,8)">
    <path d="m 24,8 c -6.627417,0 -12,5.372583 -12,12 0.01054,3.838017 1.85269,7.411143 4.908203,9.648438 0.02455,0.01797 0.05106,0.02525 0.07617,0.03711 a 1,1 0 0 0 0.615234,0.214844 1,1 0 0 0 1,-1 A 1,1 0 0 0 18,27.982422 v -0.002 C 15.487432,26.096053 14.006139,23.140698 14,20 c 0,-5.522847 4.477153,-10 10,-10 5.522847,0 10,4.477153 10,10 -0.008,3.138635 -1.489077,6.091432 -4,7.974609 l -0.002,0.0098 a 1,1 0 0 0 -0.597656,0.916016 1,1 0 0 0 1,1 1,1 0 0 0 0.630859,-0.226563 c 0.03086,-0.01144 0.06345,-0.01816 0.0918,-0.03906 C 34.162116,27.393986 35.992607,23.82807 36,20 36,13.372583 30.627417,8 24,8 Z" style="fill:#ffffff"/>
    <path d="m 24,12 c -4.418278,0 -8,3.581722 -8,8 0.0036,2.407547 1.088815,4.659929 2.912109,6.162109 0.03917,0.03227 0.07929,0.05073 0.119141,0.06055 a 1,1 0 0 0 0.568359,0.177735 1,1 0 0 0 1,-1 A 1,1 0 0 0 20,24.482422 v -0.01758 C 18.729291,23.32829 18.002073,21.704832 18,20 c 0,-3.313708 2.686292,-6 6,-6 3.313708,0 6,2.686292 6,6 -0.0026,1.704151 -0.729797,3.326791 -2,4.462891 v 0.01953 a 1,1 0 0 0 -0.599609,0.917969 1,1 0 0 0 1,1 1,1 0 0 0 0.478515,-0.123047 c 0.04639,-0.0034 0.09317,-0.01806 0.138672,-0.05469 C 30.884369,24.71995 31.997474,22.439792 32,20 32,15.581722 28.418278,12 24,12 Z" style="fill:#ffffff"/>
    <path d="m 24,17 a 3,3 0 0 0 -3,3 3,3 0 0 0 3,3 3,3 0 0 0 3,-3 3,3 0 0 0 -3,-3 z" style="fill:#ffffff"/>
    <rect ry="3" rx="3" y="25" x="21" height="11" width="6" style="fill:#ffffff"/>
  </g>
</svg>
