<svg xmlns="http://www.w3.org/2000/svg" id="svg16" width="192" height="192" version="1"><defs><filter style="color-interpolation-filters:sRGB" id="filter853" width="1.1" height="1.1" x=".05" y=".05"><feGaussianBlur stdDeviation="3.2"/></filter><filter style="color-interpolation-filters:sRGB" id="filter880" width="1.11" height="1.09" x=".05" y=".04"><feGaussianBlur stdDeviation="1.6"/></filter><filter style="color-interpolation-filters:sRGB" id="filter905" width="1.05" height="1.79" x=".03" y=".39"><feGaussianBlur stdDeviation="1.45"/></filter></defs><rect width="160" height="160" x="-180" y="-176" rx="8" ry="8" transform="matrix(0,-1,-1,0,0,0)" style="filter:url(#filter853);opacity:.2;fill:#000"/><rect style="fill:#4f4f4f" width="160" height="160" x="-176" y="-176" rx="8" ry="8" transform="matrix(0,-1,-1,0,0,0)"/><path style="opacity:.1;fill:#fff" d="M 24 16 C 19.57 16 16 19.57 16 24 L 16 25 C 16 20.57 19.57 17 24 17 L 168 17 C 172.43 17 176 20.57 176 25 L 176 24 C 176 19.57 172.43 16 168 16 L 24 16 z"/><rect width="136" height="136" x="-164" y="-164" rx="6.8" ry="6.8" transform="matrix(0,-1,-1,0,0,0)" style="fill:#3f3f3f"/><path d="M 136,100 100.00,122 64,144 V 100.00 56.00 l 36,22.00 z" style="filter:url(#filter880);opacity:.2"/><path d="M 136,96.00 100.00,118 64,140 V 96.00 52.00 l 36,22.00 z" style="fill:#fff"/><path style="filter:url(#filter905);opacity:.2;fill:#000" d="M 34.80 28 C 31.03 28 28 31.03 28 34.80 L 28 36.80 C 28 33.03 31.03 30 34.80 30 L 157.20 30 C 160.97 30 164 33.03 164 36.80 L 164 34.80 C 164 31.03 160.97 28 157.20 28 L 34.80 28 z"/><path style="opacity:.1;fill:#fff" d="M 28 157.20 L 28 158.20 C 28 161.97 31.03 165 34.80 165 L 157.20 165 C 160.97 165 164 161.97 164 158.20 L 164 157.20 C 164 160.97 160.97 164 157.20 164 L 34.80 164 C 31.03 164 28 160.97 28 157.20 z"/></svg>