<?xml version='1.0' encoding='utf-8'?>
<svg xmlns="http://www.w3.org/2000/svg" width="192" height="192" version="1" id="svg18">
  <defs>
    <filter id="filter1756" style="color-interpolation-filters:sRGB" width="1.0936" height="1.0985263" x="-0.046799998" y="-0.049263156">
      <feGaussianBlur stdDeviation="3.12"/>
    </filter>
    <filter style="color-interpolation-filters:sRGB" id="filter1645" x="-0.089870253" y="-0.13072168" width="1.1797405" height="1.2614434">
      <feGaussianBlur stdDeviation="3.5948017"/>
    </filter>
  </defs>
  <path style="filter:url(#filter1756);opacity:0.2" d="m 72,23 -8,8 V 47 H 16 v 120 c 0,4.432 3.568,8 8,8 h 144 c 4.432,0 8,-3.568 8,-8 V 47 H 128 V 31 l -8,-8 z m 0,8 h 48 V 47 H 72 Z"/>
  <path style="fill:#13b8a7" d="m 72,19 -8,8 V 43 H 16 v 120 c 0,4.432 3.568,8 8,8 h 144 c 4.432,0 8,-3.568 8,-8 V 43 H 128 V 27 l -8,-8 z m 0,8 h 48 V 43 H 72 Z"/>
  <path style="opacity:0.2;fill:#ffffff" d="m 72,19 -8,8 v 1 l 8,-8 h 48 l 8,8 v -1 l -8,-8 z M 16,43 v 1 h 48 v -1 z m 56,0 v 1 h 48 v -1 z m 56,0 v 1 h 48 v -1 z"/>
  <path style="filter:url(#filter1645);opacity:0.2;fill:#000000;color:#000000" d="m 136.15625,78.002373 a 8,8 0 0 0 -5.70117,2.230469 L 84.109375,124.7973 61.65625,102.34417 a 8,8 0 0 0 -11.3125,0 8,8 0 0 0 0,11.3125 l 28,28 A 8.0008,8.0008 0 0 0 89.544922,141.768 L 141.54492,91.767998 a 8,8 0 0 0 0.22266,-11.3125 8,8 0 0 0 -5.61133,-2.453125 z"/>
  <path style="fill:#ffffff;color:#000000" d="m 136.15625,76.001953 a 8,8 0 0 0 -5.70117,2.230469 L 84.109375,122.79688 61.65625,100.34375 a 8,8 0 0 0 -11.3125,0 8,8 0 0 0 0,11.3125 l 28,28 a 8.0008,8.0008 0 0 0 11.201172,0.11133 L 141.54492,89.767578 a 8,8 0 0 0 0.22266,-11.3125 8,8 0 0 0 -5.61133,-2.453125 z"/>
</svg>
