<svg xmlns="http://www.w3.org/2000/svg" id="svg14" width="192" height="192" version="1"><defs><filter style="color-interpolation-filters:sRGB" id="filter850" width="1.1" height="1.1" x=".05" y=".05"><feGaussianBlur stdDeviation="3.2"/></filter><filter style="color-interpolation-filters:sRGB" id="filter5000" width="1.31" height="1.4" x=".16" y=".2"><feGaussianBlur stdDeviation="7.2"/></filter></defs><circle style="filter:url(#filter850);opacity:.2;fill:#000" cx="96" cy="100" r="80"/><circle cx="96" cy="96" r="80" style="fill:#3949ab"/><path style="fill:#38adfa" d="m 688.81,257.00 c 0.33,0.33 -1.19,0.37 -1.92,0.08 0.80,0.32 0.56,0.56 0.60,0.60 1.05,0.04 1.64,0.19 1.31,0.53 z"/><path style="opacity:.1;fill:#fff" d="M 96 16 A 80 80 0 0 0 16 96 A 80 80 0 0 0 16.02 96.47 A 80 80 0 0 1 96 17 A 80 80 0 0 1 175.97 96.51 A 80 80 0 0 0 176 96 A 80 80 0 0 0 96 16 z"/><path style="filter:url(#filter5000);opacity:.2;fill:#000" d="M 160.92,51.29 99.50,111.57 a 5.00,5.00 0 0 1 -7.04,0.03 l -18,-18.00 a 5,5 0 0 1 0,-7.07 5,5 0 0 1 7.07,0 L 96.03,100.96 125.91,71.63 A 40,40 0 0 0 96,58 40,40 0 0 0 56,98 a 40,40 0 0 0 40,40 40,40 0 0 0 40,-40 40,40 0 0 0 0.42,-5.77 l 31.49,-30.91 a 80,80 0 0 0 -6.15,-10.04 z"/><path style="fill:#fff" d="M 160.92 49.29 L 99.50 109.57 A 5.00 5.00 0 0 1 92.46 109.54 L 74.46 91.54 A 5 5 0 0 1 74.46 84.46 A 5 5 0 0 1 81.54 84.46 L 96.03 98.96 L 125.91 69.63 A 40 40 0 0 0 96 56 A 40 40 0 0 0 56 96 A 40 40 0 0 0 96 136 A 40 40 0 0 0 136 96 A 40 40 0 0 0 135.58 90.23 L 167.07 59.32 A 80 80 0 0 0 160.92 49.29 z"/></svg>