<?xml version='1.0' encoding='utf-8'?>
<svg xmlns="http://www.w3.org/2000/svg" width="192" height="192" version="1" id="svg14">
  <defs>
    <filter style="color-interpolation-filters:sRGB" id="filter850" x="0.05" width="1.10" y="0.05" height="1.10">
      <feGaussianBlur stdDeviation="3.20"/>
    </filter>
    <filter style="color-interpolation-filters:sRGB" id="filter866" x="0.05" width="1.10" y="0.05" height="1.09">
      <feGaussianBlur stdDeviation="2.04"/>
    </filter>
  </defs>
  <rect style="filter:url(#filter850);opacity:0.20;fill:#000000" width="160" height="160" x="-180" y="-176" rx="80" ry="80" transform="matrix(0,-1,-1,0,0,0)"/>
  <rect transform="matrix(0,-1,-1,0,0,0)" ry="80" rx="80" y="-176" x="-176" height="160" width="160" style="fill:#2cb4a7"/>
  <path style="opacity:0.20;fill:#ffffff" d="M 96 16 C 51.68 16 16.01 51.68 16.01 96 C 16.01 96.34 16.01 96.67 16.01 97 C 16.01 52.68 51.68 17 96 17 C 140.32 17 175.99 52.68 175.99 97 C 175.99 96.67 175.99 96.34 175.99 96 C 175.99 51.68 140.32 16 96 16 z "/>
  <path d="M 96,48 A 16,16 0 0 0 80,64 16,16 0 0 0 96,80 16,16 0 0 0 112,64 16,16 0 0 0 96,48 Z M 49.60,84 C 48.72,84 48,84.72 48,85.60 V 100 c 0,8.84 7.16,16 16,16 h 10.40 4 32.00 C 111.28,116 112,115.28 112,114.40 V 100 C 112,91.16 104.84,84.00 96,84 H 64 60 Z M 132,84 c -8.84,0 -16,7.16 -16,16 v 14.40 c 0,0.89 0.72,1.60 1.60,1.60 H 132 c 8.84,0 16,-7.16 16,-16 V 85.60 C 148,84.72 147.28,84 146.40,84 Z M 81.60,120 C 80.72,120 80,120.72 80,121.60 V 136 150.40 C 80,151.28 80.72,152 81.60,152 H 96 c 8.84,0 16,-7.16 16,-16 V 121.60 C 112,120.72 111.28,120 110.40,120 H 96 Z" style="filter:url(#filter866);opacity:0.20"/>
  <path d="M 96,44 A 16,16 0 0 0 80,60 16,16 0 0 0 96,76 16,16 0 0 0 112,60 16,16 0 0 0 96,44 Z M 49.60,80 C 48.72,80 48,80.72 48,81.60 V 96 c 0,8.84 7.16,16 16,16 h 10.40 4 32.00 C 111.28,112 112,111.28 112,110.40 V 96 C 112,87.16 104.84,80.00 96,80 H 64 60 Z M 132,80 c -8.84,0 -16,7.16 -16,16 v 14.40 c 0,0.89 0.72,1.60 1.60,1.60 H 132 c 8.84,0 16,-7.16 16,-16 V 81.60 C 148,80.72 147.28,80 146.40,80 Z M 81.60,116 C 80.72,116 80,116.72 80,117.60 V 132 146.40 C 80,147.28 80.72,148 81.60,148 H 96 c 8.84,0 16,-7.16 16,-16 V 117.60 C 112,116.72 111.28,116 110.40,116 H 96 Z" style="fill:#ffffff"/>
</svg>
