<?xml version='1.0' encoding='utf-8'?>
<svg xmlns="http://www.w3.org/2000/svg" width="192" height="192" version="1" id="svg16">
  <defs>
    <filter style="color-interpolation-filters:sRGB" id="filter867" x="0.05" width="1.10" y="0.05" height="1.10">
      <feGaussianBlur stdDeviation="3.20"/>
    </filter>
    <filter style="color-interpolation-filters:sRGB" id="filter2869" x="0.05" y="0.04" width="1.11" height="1.09">
      <feGaussianBlur stdDeviation="1.98"/>
    </filter>
  </defs>
  <rect ry="80" rx="80" height="160" width="160" y="-176" x="-180" transform="matrix(0,-1,-1,0,0,0)" style="filter:url(#filter867);opacity:0.20;fill:#000000"/>
  <rect style="fill:#e4e4e4" transform="matrix(0,-1,-1,0,0,0)" x="-176" y="-176" width="160" height="160" rx="80" ry="80"/>
  <path style="opacity:0.20;fill:#ffffff" d="M 96 16 C 51.68 16 16 51.68 16 96 C 16 96.34 16.00 96.67 16 97 C 16 52.68 51.68 17 96 17 C 140.32 17 176 52.68 176 97 C 176.00 96.67 176 96.34 176 96 C 176 51.68 140.32 16 96 16 z "/>
  <path style="filter:url(#filter2869);opacity:0.20;fill:#000000" d="m 95.32,43.00 c -3.83,0.01 -10.23,0.24 -11.86,0.48 -3.58,0.53 -8.27,1.89 -11.41,3.30 -11.08,4.99 -17.48,13.06 -19.57,24.71 0.70,3.90 0.62,11.32 0.15,15.03 1.08,5.17 2.93,8.90 5.92,11.95 3.15,3.21 6.37,4.78 11.00,5.36 10.46,1.31 18.39,-5.29 18.45,-15.37 0.02,-3.13 0.49,-5.40 -1.66,-7.44 -2.27,-3.95 -7.02,-7.02 -11.31,-7.02 0.91,0 -2.95,0.38 -4.53,0.71 -2.64,0.54 -2.57,0.56 -3.50,0.16 -1.51,0.64 -2.03,-1.72 -1.98,-4.38 0.04,-1.97 0.16,-2.41 1.24,-4.52 1.57,-3.07 4.86,-6.85 8.05,-8.66 4.44,-2.52 9.73,-3.96 16.42,-4.26 8.81,0.40 17.78,1.57 25.95,5.50 2.99,1.44 8.10,4.56 8.74,5.33 0.23,0.28 0.52,1.34 -3.13,4.45 -1.88,2.24 -4.14,4.83 -4.14,4.83 l 7.94,6.45 L 140,62.93 c 0,0 -4.97,-4.63 -6.91,-6.17 -7.35,-5.83 -17.34,-10.50 -26.58,-12.41 -2.40,0.50 -3.71,0.70 -8.49,-1.28 0.43,0.05 -1.42,0.07 -2.70,0.07 z m 25.20,49.01 c -9.49,0.32 -16.46,6.08 -16.52,15.52 0.02,3.13 0.49,5.40 1.66,7.44 2.27,3.95 7.02,7.02 11.31,7.02 0.91,0 2.95,0.38 4.53,0.71 2.64,0.54 2.57,0.56 3.50,0.16 1.51,0.64 2.03,1.72 1.98,4.38 0.04,1.97 0.16,2.41 -1.24,4.52 -1.57,3.07 -4.86,6.85 -8.05,8.66 -4.44,2.52 -9.73,3.96 -16.42,4.26 -8.81,0.40 -17.78,-1.57 -25.95,-5.50 -2.99,-1.44 -8.10,-4.56 -8.74,-5.33 0.23,0.28 0.52,-1.34 3.13,-4.45 1.88,-2.24 4.14,-4.83 4.14,-4.83 l -7.94,-6.45 L 52,133.07 c 0,0 4.97,4.63 6.91,6.17 7.35,5.83 17.34,10.50 26.58,12.41 2.40,0.50 3.71,0.70 8.49,1.28 1.73,0.21 12.38,0.09 14.55,0.41 3.58,0.53 8.27,-1.89 11.41,-3.30 11.08,-4.99 17.48,-13.06 19.57,-24.71 0.70,-3.90 0.62,-11.32 0.15,-15.03 -1.08,-5.17 -2.93,-8.90 -5.92,-11.95 -3.15,-3.21 -6.37,-4.78 -11.00,-5.36 0.65,0.08 -1.30,0.13 -1.93,0.15 z"/>
  <path style="fill:#029eb2" d="M 95.32 41 C 91.49 41.01 85.09 41.24 83.46 41.48 C 79.88 42.02 75.19 43.37 72.05 44.79 C 60.96 49.77 54.57 57.85 52.48 69.50 C 51.78 73.40 51.86 80.82 52.63 84.53 C 53.71 89.69 55.56 93.43 58.55 96.48 C 61.70 99.69 64.92 101.25 69.55 101.83 C 80.01 103.14 87.94 96.54 88.01 86.46 C 88.03 83.33 87.52 81.07 86.35 79.02 C 84.07 75.07 79.33 72 75.03 72 C 74.13 72 72.09 72.38 70.50 72.71 C 67.86 73.25 67.94 73.27 67.00 72.87 C 65.49 72.24 64.97 71.15 65.03 68.49 C 65.07 66.52 65.19 66.08 66.27 63.97 C 67.84 60.90 71.13 57.13 74.32 55.31 C 78.76 52.80 84.05 51.36 90.74 51.05 C 99.54 50.65 108.51 52.62 116.69 56.56 C 119.67 58.00 124.78 61.11 125.42 61.89 C 125.65 62.17 124.91 63.23 122.29 66.34 C 120.41 68.58 118.16 71.16 118.16 71.16 L 126.10 77.62 L 140 60.93 C 140 60.93 135.03 56.30 133.09 54.76 C 125.74 48.93 115.75 44.27 106.51 42.35 C 104.10 41.85 102.79 41.65 98.02 41.07 C 97.58 41.02 96.59 41.00 95.32 41 z M 120.52 90.01 C 111.03 89.69 104.05 96.09 103.99 105.54 C 103.97 108.67 104.48 110.93 105.65 112.98 C 107.93 116.93 112.67 120 116.97 120 C 117.87 120 119.91 119.62 121.50 119.29 C 124.14 118.75 124.06 118.73 125.00 119.13 C 126.51 119.76 127.03 120.85 126.97 123.51 C 126.93 125.48 126.81 125.92 125.73 128.03 C 124.16 131.10 120.87 134.87 117.68 136.69 C 113.24 139.20 107.95 140.64 101.26 140.95 C 92.46 141.35 83.49 139.38 75.31 135.44 C 72.33 134.00 67.22 130.89 66.58 130.11 C 66.35 129.83 67.09 128.77 69.71 125.66 C 71.59 123.42 73.84 120.84 73.84 120.84 L 65.90 114.38 L 52 131.07 C 52 131.07 56.97 135.70 58.91 137.24 C 66.26 143.07 76.25 147.73 85.49 149.65 C 87.90 150.15 89.21 150.35 93.98 150.93 C 95.71 151.14 106.37 150.84 108.54 150.52 C 112.12 149.98 116.81 148.63 119.95 147.21 C 131.04 142.23 137.43 134.15 139.52 122.50 C 140.22 118.60 140.14 111.18 139.37 107.47 C 138.29 102.31 136.44 98.57 133.45 95.52 C 130.30 92.31 127.08 90.75 122.45 90.17 C 121.79 90.08 121.15 90.03 120.52 90.01 z "/>
</svg>
