<?xml version='1.0' encoding='utf-8'?>
<svg xmlns="http://www.w3.org/2000/svg" width="192" height="192" version="1" id="svg14">
  <defs>
    <filter style="color-interpolation-filters:sRGB" id="filter860" x="-0.048000001" width="1.096" y="-0.048000001" height="1.096">
      <feGaussianBlur stdDeviation="3.2"/>
    </filter>
    <filter style="color-interpolation-filters:sRGB" id="filter11010" x="-0.041505883" y="-0.056903227" width="1.0830118" height="1.1138065">
      <feGaussianBlur stdDeviation="1.47"/>
    </filter>
  </defs>
  <circle style="filter:url(#filter860);opacity:0.2;fill:#000000" cx="96" cy="100" r="80"/>
  <circle style="fill:#dd2b33" cx="96" cy="96" r="80"/>
  <path style="opacity:0.2;fill:#ffffff" d="M 95.941406,16 A 80,80 0 0 0 16,96 80,80 0 0 0 16.002,96.529297 80,80 0 0 1 96,17 80,80 0 0 1 175.99805,96.470703 80,80 0 0 0 176,96 80,80 0 0 0 96,16 80,80 0 0 0 95.94141,16 Z"/>
  <path style="filter:url(#filter11010);opacity:0.2;fill:#000000" d="m 54,65 v 62 h 12 v -20.96484 c 0,-4.73158 0.175162,-8.349812 1.464844,-10.851566 C 68.806114,92.627454 71.203807,91 74.660156,91 79.199839,91 82,94.55902 82,100.97656 V 127 H 94 V 97.957031 C 94,92.246505 92.60798,88.413562 89.822266,85.857422 87.088139,83.246895 82.425253,82 77.833984,82 75.254619,82 72.906096,82.458855 70.791016,83.492188 68.675937,84.525522 67.34127,86.18454 66,88.46875 V 84.226562 65 Z m 45,0 v 62 h 12 v -20.96484 c 0,-4.73158 0.17515,-8.349812 1.46484,-10.851566 C 113.8061,92.627454 116.20382,91 119.66016,91 124.19985,91 127,94.55902 127,100.97656 V 127 h 12 V 97.957031 c 0,-5.710526 -1.39201,-9.543469 -4.17773,-12.099609 C 132.08815,83.246895 127.42525,82 122.83398,82 c -2.57936,0 -4.92788,0.458855 -7.04296,1.492188 C 113.67594,84.525522 112.34127,86.18454 111,88.46875 V 84.226562 65 Z"/>
  <path style="fill:#ffffff" d="m 54,63 v 62 H 66 V 104.03516 C 66,99.303578 66.175162,95.685348 67.464844,93.183594 68.806114,90.627454 71.203807,89 74.660156,89 79.199839,89 82,92.55902 82,98.976562 V 125 H 94 V 95.957031 C 94,90.246505 92.60798,86.413562 89.822266,83.857422 87.088139,81.246895 82.425253,80 77.833984,80 75.254619,80 72.906096,80.458855 70.791016,81.492188 68.675937,82.525522 67.34127,84.18454 66,86.46875 V 82.226562 63 Z m 45,0 v 62 h 12 v -20.96484 c 0,-4.731582 0.17515,-8.349812 1.46484,-10.851566 C 113.8061,90.627454 116.20382,89 119.66016,89 124.19985,89 127,92.55902 127,98.976562 V 125 h 12 V 95.957031 c 0,-5.710526 -1.39201,-9.543469 -4.17773,-12.099609 C 132.08815,81.246895 127.42525,80 122.83398,80 c -2.57936,0 -4.92788,0.458855 -7.04296,1.492188 C 113.67594,82.525522 112.34127,84.18454 111,86.46875 V 82.226562 63 Z"/>
</svg>
