<?xml version='1.0' encoding='utf-8'?>
<svg xmlns="http://www.w3.org/2000/svg" width="192" height="192" version="1" id="svg14">
  <defs>
    <filter style="color-interpolation-filters:sRGB" id="filter844" x="0.05" width="1.10" y="0.05" height="1.10">
      <feGaussianBlur stdDeviation="3.20"/>
    </filter>
    <filter style="color-interpolation-filters:sRGB" id="filter879" x="0.02" width="1.05" y="0.02" height="1.05">
      <feGaussianBlur stdDeviation="1.04"/>
    </filter>
  </defs>
  <path style="filter:url(#filter844);opacity:0.20;fill:#000000" d="M 96,20 C 51.68,20 16,55.68 16,100 16,144.32 51.68,180 96,180 140.32,180 176,144.32 176,100 176,55.68 140.32,20 96,20 Z"/>
  <path d="M 96,16 C 51.68,16 16,51.68 16,96 16,140.32 51.68,176 96,176 140.32,176 176,140.32 176,96 176,51.68 140.32,16 96,16 Z" style="fill:#e4e4e4"/>
  <path d="M 96,46 A 52,52 0 0 0 44,98 52,52 0 0 0 96,150 52,52 0 0 0 148,98 52,52 0 0 0 146.98,87.79 L 135.93,96.03 A 40,40 0 0 1 136,98 40,40 0 0 1 96,138 40,40 0 0 1 56,98 40,40 0 0 1 96,58 40,40 0 0 1 117.90,64.57 L 128.00,57.03 A 52,52 0 0 0 96,46 Z M 135.92,66.21 95.33,96.13 76,84.12 V 99.05 L 95.33,111 142.06,76.55 C 140.41,72.87 138.35,69.40 135.92,66.21 Z" style="filter:url(#filter879);opacity:0.10;fill:#000000"/>
  <path style="fill:#10b12d" d="M 96 44 A 52 52 0 0 0 44 96 A 52 52 0 0 0 96 148 A 52 52 0 0 0 148 96 A 52 52 0 0 0 146.98 85.79 L 135.93 94.03 A 40 40 0 0 1 136 96 A 40 40 0 0 1 96 136 A 40 40 0 0 1 56 96 A 40 40 0 0 1 96 56 A 40 40 0 0 1 117.90 62.57 L 128.00 55.03 A 52 52 0 0 0 96 44 z M 135.92 64.21 L 95.33 94.13 L 76 82.12 L 76 97.05 L 95.33 109 L 142.06 74.55 C 140.41 70.87 138.35 67.40 135.92 64.21 z "/>
  <path style="opacity:0.20;fill:#ffffff" d="M 96 16 C 51.68 16 16 51.68 16 96 C 16 96.17 16.00 96.33 16.01 96.50 C 16.27 52.41 51.85 17 96 17 C 140.15 17 175.73 52.41 175.99 96.50 C 176.00 96.33 176 96.17 176 96 C 176 51.68 140.32 16 96 16 z "/>
</svg>
