<?xml version='1.0' encoding='utf-8'?>
<svg xmlns="http://www.w3.org/2000/svg" width="192" height="192" version="1" id="svg18">
  <defs>
    <filter id="filter963" style="color-interpolation-filters:sRGB" width="1.10" height="1.10" x="0.05" y="0.05">
      <feGaussianBlur stdDeviation="3.20"/>
    </filter>
    <filter style="color-interpolation-filters:sRGB" id="filter1081" x="0.05" y="0.05" width="1.10" height="1.10">
      <feGaussianBlur stdDeviation="2.18"/>
    </filter>
  </defs>
  <path style="filter:url(#filter963);opacity:0.20" d="M 176,100 A 80,80 0 0 1 96,180 80,80 0 0 1 16,100 80,80 0 0 1 96,20 80,80 0 0 1 176,100 Z"/>
  <path style="fill:#f05537" d="M 176,96 A 80,80 0 0 1 96,176 80,80 0 0 1 16,96 80,80 0 0 1 96,16 80,80 0 0 1 176,96 Z"/>
  <path style="opacity:0.20;fill:#ffffff" d="M 96.00,16 A 80,80 0 0 0 16,96 80,80 0 0 0 16.02,96.64 80,80 0 0 1 96.00,17 H 96 A 80,80 0 0 1 175.98,96.29 80,80 0 0 0 176.00,96 80,80 0 0 0 96,16 Z"/>
  <path d="m 95.77,45.02 c -3.66,0.09 -7.36,0.54 -11.06,1.38 -29.64,6.71 -48.12,35.70 -41.28,64.75 6.84,29.05 36.42,47.16 66.06,40.46 17.46,-3.95 31.05,-15.64 37.87,-30.52 l -25.57,-5.74 a 29.70,29.70 0 0 1 -17.99,12.11 c -12.25,2.77 -24.49,-2.31 -31.23,-11.88 l 54.00,-12.21 8.79,-2.00 16.82,-3.81 A 53.27,53.27 0 0 0 150.76,86.85 C 144.77,61.43 121.38,44.39 95.77,45.02 Z m 1.60,24.77 A 30.10,30.10 0 0 1 121.49,82.23 L 67.66,94.40 C 69.51,83.01 78.21,73.30 90.39,70.54 a 30.10,30.10 0 0 1 6.98,0.76 z" style="filter:url(#filter1081);opacity:0.20;fill:#000000"/>
  <path d="m 95.77,42.02 c -3.66,0.09 -7.36,0.54 -11.06,1.38 -29.64,6.71 -48.12,35.70 -41.28,64.75 6.84,29.05 36.42,47.16 66.06,40.46 17.46,-3.95 31.05,-15.64 37.87,-30.52 l -25.57,-5.74 a 29.70,29.70 0 0 1 -17.99,12.11 C 91.54,127.23 79.30,122.15 72.56,112.59 l 54.00,-12.21 8.79,-2.00 16.82,-3.81 A 53.27,53.27 0 0 0 150.76,83.85 C 144.77,58.43 121.38,41.39 95.77,42.02 Z m 1.60,24.77 A 30.10,30.10 0 0 1 121.49,79.23 L 67.66,91.40 C 69.51,80.01 78.21,70.30 90.39,67.54 a 30.10,30.10 0 0 1 6.98,0.76 z" style="fill:#ffffff"/>
</svg>
