<?xml version='1.0' encoding='utf-8'?>
<svg xmlns="http://www.w3.org/2000/svg" width="192" height="192" version="1.1" id="svg12">
  <defs>
    <filter style="color-interpolation-filters:sRGB" id="filter845" x="-0.048000001" y="-0.048000001" width="1.096" height="1.096">
      <feGaussianBlur stdDeviation="3.2"/>
    </filter>
    <filter style="color-interpolation-filters:sRGB" id="filter849" x="-0.048" y="-0.048" width="1.096" height="1.096">
      <feGaussianBlur stdDeviation="2.24"/>
    </filter>
  </defs>
  <rect x="16" y="20" width="160" height="160" ry="48" style="filter:url(#filter845);opacity:0.2"/>
  <rect x="16" y="16" width="160" height="160" ry="48" style="fill:#2097d4"/>
  <path style="opacity:0.2;fill:#ffffff" d="M 64 16 C 37.408 16 16 37.408 16 64 L 16 65 C 16 38.408 37.408 17 64 17 L 128 17 C 154.592 17 176 38.408 176 65 L 176 64 C 176 37.408 154.592 16 128 16 L 64 16 z "/>
  <path d="m 96,42 c -30.927944,0 -56,25.072056 -56,56 0,30.92794 25.072056,56 56,56 30.92794,0 56,-25.07206 56,-56 0,-30.927944 -25.07206,-56 -56,-56 z m 0,8 c 26.50967,0 48,21.490332 48,48 0,26.50967 -21.49033,48 -48,48 C 83.332496,145.9856 71.184184,140.96469 62.203124,132.03125 64,130 68,126 72,126 h 48 c 0,0 8,0 8,-8 v -12 c 0,-8 -8,-8 -8,-8 0,0 8,0 8,-8 V 78 c 0,-8 -8,-8 -8,-8 H 72 C 68,70 64,66 62.1875,63.968752 71.1724,55.031496 83.327084,50.010108 96,50 Z M 80,78 h 28 c 4.432,0 8,2 8,6 0,4.432 -3.568,6 -8,6 H 80 Z m 0,28 h 28 c 4.432,0 8,1.568 8,6 0,4.432 -3.568,6 -8,6 H 80 Z" style="filter:url(#filter849);opacity:0.2"/>
  <path d="m 96,40 c -30.927944,0 -56,25.072056 -56,56 0,30.92794 25.072056,56 56,56 30.92794,0 56,-25.07206 56,-56 0,-30.927944 -25.07206,-56 -56,-56 z m 0,8 c 26.50967,0 48,21.490332 48,48 0,26.50967 -21.49033,48 -48,48 C 83.332496,143.9856 71.184184,138.96469 62.203124,130.03125 64,128 68,124 72,124 h 48 c 0,0 8,0 8,-8 v -12 c 0,-8 -8,-8 -8,-8 0,0 8,0 8,-8 V 76 c 0,-8 -8,-8 -8,-8 H 72 C 68,68 64,64 62.1875,61.968752 71.1724,53.031496 83.327084,48.010108 96,48 Z M 80,76 h 28 c 4.432,0 8,2 8,6 0,4.432 -3.568,6 -8,6 H 80 Z m 0,28 h 28 c 4.432,0 8,1.568 8,6 0,4.432 -3.568,6 -8,6 H 80 Z" style="fill:#ffffff"/>
</svg>
