<?xml version='1.0' encoding='utf-8'?>
<svg xmlns="http://www.w3.org/2000/svg" width="192" height="192" version="1" id="svg28">
  <defs>
    <filter style="color-interpolation-filters:sRGB" id="filter6780" x="0.05" y="0.04" width="1.11" height="1.09">
      <feGaussianBlur stdDeviation="2.90"/>
    </filter>
    <filter style="color-interpolation-filters:sRGB" id="filter6833" x="0.12" y="0.05" width="1.24" height="1.11">
      <feGaussianBlur stdDeviation="3.16"/>
    </filter>
  </defs>
  <rect transform="matrix(0,-1,-1,0,0,0)" ry="14" rx="14" y="-176" x="-150" height="160" width="130" style="filter:url(#filter6780);opacity:0.20;fill:#000000"/>
  <rect transform="matrix(0,-1,-1,0,0,0)" ry="14" rx="14" y="-176" x="-146" height="160" width="130" style="fill:#ed592e"/>
  <path style="filter:url(#filter6833);opacity:0.20;fill:#000000" d="m 95.81,38.00 c 0.06,0.01 0.13,0.01 0.19,0.00 -1.96,0.37 -3.17,5.19 -3.17,5.19 L 85.51,64.50 85.34,65 67.90,118.58 v 0.00 l -2.63,8.08 C 65.10,127.81 65,128.93 65,130 v 48 h 18 26 18 v -48 c 0,-1.07 0.10,-2.19 0.27,-3.34 l -2.62,-8.06 L 123.87,117.88 106.66,65 106.49,64.50 99.56,43.20 c 0,0 -1.21,-4.82 -3.17,-5.19 0.12,0.02 0.25,0.01 0.38,0.02 0.06,0.01 0.13,0.02 0.19,0.03 z"/>
  <path style="fill:#f5e5c4" d="m 85.51,62.50 -17.61,54.08 1.92,7.82 3.86,17.11 21.84,3.67 20.65,0.01 6.50,-18.97 1.43,-9.63 L 106.49,62.50 Z"/>
  <path style="fill:#e27c56" d="M 74 111.50 C 72.06 111.50 70.12 113.32 68.58 116.10 L 65.76 124.76 C 65.60 125.88 65.50 126.97 65.50 128 L 65.50 175.50 L 83 175.50 L 109 175.50 L 126.50 175.50 L 126.50 128 C 126.50 126.97 126.40 125.88 126.24 124.76 L 123.42 116.10 C 121.88 113.32 119.94 111.50 118 111.50 C 116.92 111.50 115.86 112.03 114.84 113.01 C 113.83 113.98 112.88 115.39 112.09 117.03 C 110.49 120.30 109.50 124.50 109.50 128 A 0.50 0.50 0 0 1 108.50 128 C 108.50 124.55 107.08 120.36 104.78 117.10 C 102.49 113.83 99.36 111.50 96 111.50 C 92.64 111.50 89.51 113.83 87.22 117.10 C 84.92 120.36 83.50 124.55 83.50 128 A 0.50 0.50 0 0 1 82.50 128 C 82.50 124.50 81.51 120.30 79.91 117.03 C 79.12 115.39 78.17 113.98 77.16 113.01 C 76.14 112.03 75.08 111.50 74 111.50 z "/>
  <path style="fill:#e79273" d="m 96,111 c -7.18,0 -13,9.82 -13,17 v 48 h 26 v -48 c 0,-7.18 -5.82,-17 -13,-17 z"/>
  <path style="fill:#eeb19c" d="M 74 111 C 71.75 111 69.71 113.01 68.13 115.88 L 65.27 124.66 C 65.10 125.81 65 126.93 65 128 L 65 176 L 83 176 L 83 128 C 83 120.82 78.97 111 74 111 z "/>
  <path style="fill:#f17d5b" d="m 118,111 c 2.25,0 4.29,2.01 5.87,4.88 l 2.86,8.79 C 126.90,125.81 127,126.93 127,128 v 48 h -18 v -48 c 0,-7.18 4.03,-17 9,-17 z"/>
  <path style="fill:#545454" d="M 95.62 36.01 C 93.65 36.38 92.44 41.20 92.44 41.20 L 85.34 63 L 106.66 63 L 99.56 41.20 C 99.56 41.20 98.35 36.38 96.38 36.01 C 96.26 35.98 96.13 36.02 96 36.03 C 95.87 36.02 95.74 35.98 95.62 36.01 z "/>
  <path style="opacity:0.20;fill:#ffffff" d="M 30 16 C 22.24 16 16 22.24 16 30 L 16 31 C 16 23.24 22.24 17 30 17 L 162 17 C 169.76 17 176 23.24 176 31 L 176 30 C 176 22.24 169.76 16 162 16 L 30 16 z "/>
</svg>
