<?xml version='1.0' encoding='utf-8'?>
<svg xmlns="http://www.w3.org/2000/svg" width="192" height="192" version="1" id="svg16">
  <defs>
    <filter style="color-interpolation-filters:sRGB" id="filter864" x="-0.048000001" width="1.096" y="-0.048000001" height="1.096">
      <feGaussianBlur stdDeviation="3.2"/>
    </filter>
    <filter style="color-interpolation-filters:sRGB" id="filter901" x="-0.053333335" width="1.1066667" y="-0.043636365" height="1.0872727">
      <feGaussianBlur stdDeviation="1.2"/>
    </filter>
  </defs>
  <rect style="filter:url(#filter864);opacity:0.2;fill:#000000" width="160" height="160" x="-180" y="-176" rx="80" ry="80" transform="matrix(0,-1,-1,0,0,0)"/>
  <rect transform="matrix(0,-1,-1,0,0,0)" ry="80" rx="80" y="-176" x="-176" height="160" width="160" style="fill:#3f3f3f"/>
  <path style="opacity:0.1;fill:#ffffff" d="M 96 16 C 51.684 16 16.007812 51.68 16.007812 96 C 16.007812 96.33544 16.009812 96.667215 16.007812 97 C 16.007812 52.68 51.684 17 96 17 C 140.316 17 175.99219 52.68 175.99219 97 C 175.99019 96.667215 175.99219 96.33544 175.99219 96 C 175.99219 51.68 140.316 16 96 16 z "/>
  <path style="filter:url(#filter901);opacity:0.2;fill:#000000" d="M 130,98.000003 103,114.5 76,131 V 97.999995 65 l 27,16.500001 z"/>
  <path d="M 130,96.000003 103,112.5 76,129 V 95.999995 63 l 27,16.500001 z" style="fill:#ffffff"/>
  <path style="fill:none" d="M 126,96.000003 96.00001,113.5 66,131 V 95.999996 61 l 30.00001,17.500001 z"/>
</svg>
