<svg xmlns="http://www.w3.org/2000/svg" id="svg28" width="192" height="192" version="1"><defs><filter style="color-interpolation-filters:sRGB" id="filter4580" width="1.17" height="1.28" x=".09" y=".14"><feGaussianBlur stdDeviation="4.61"/></filter><filter style="color-interpolation-filters:sRGB" id="filter4622" width="1.16" height="1.14" x=".08" y=".07"><feGaussianBlur stdDeviation="4.27"/></filter><filter style="color-interpolation-filters:sRGB" id="filter4705" width="1.22" height="1.22" x=".11" y=".11"><feGaussianBlur stdDeviation="2.25"/></filter></defs><path style="filter:url(#filter4622);opacity:.2;fill:#000" d="m 57,27 h 70 l 50,50 v 87 c 0,4.43 -3.57,8 -8,8 H 57 c -4.43,0 -8,-3.57 -8,-8 V 35 c 0,-4.43 3.57,-8 8,-8 z"/><path style="fill:#7255ed" d="m 57,23 h 70 l 50,50 v 87 c 0,4.43 -3.57,8 -8,8 H 57 c -4.43,0 -8,-3.57 -8,-8 V 31 c 0,-4.43 3.57,-8 8,-8 z"/><path style="filter:url(#filter4580);opacity:.2;fill:#000" d="M 62,71 C 44.12,71.03 29.52,85.28 29.06,103.16 20.50,107.05 15.00,115.59 15,125 c 0,13.25 10.75,24 24,24 h 79 c 13.25,0 24,-10.75 24,-24 0.00,-9.69 -5.83,-18.43 -14.77,-22.15 C 124.41,91.76 114.44,84.00 103,84 98.61,84.02 94.31,85.19 90.52,87.41 84.61,77.25 73.75,71.00 62,71 Z"/><path style="opacity:.1;fill:#fff" d="M 57 23 C 52.57 23 49 26.57 49 31 L 49 32 C 49 27.57 52.57 24 57 24 L 127 24 L 177 74 L 177 73 L 127 23 L 57 23 z"/><path style="fill:#fff" d="M 62,69 C 44.12,69.03 29.52,83.28 29.06,101.16 20.50,105.05 15.00,113.59 15,123 c 0,13.25 10.75,24 24,24 h 79 c 13.25,0 24,-10.75 24,-24 0.00,-9.69 -5.83,-18.43 -14.77,-22.15 C 124.41,89.76 114.44,82.00 103,82 98.61,82.02 94.31,83.19 90.52,85.41 84.61,75.25 73.75,69.00 62,69 Z"/><path style="fill:#7255ed" d="m 72,103 a 6,6 0 0 0 -6,6 6,6 0 0 0 4.17,5.71 L 67.00,125 h 10.00 L 73.83,114.71 A 6,6 0 0 0 78,109 6,6 0 0 0 72,103 Z"/><path style="filter:url(#filter4705);opacity:.2;fill:#000" d="m 127,24 v 42 c 0,4.43 3.57,8 8,8 h 42 z"/><path style="fill:#5a3cd9" d="m 127,23 v 42 c 0,4.43 3.57,8 8,8 h 42 z"/></svg>