<?xml version='1.0' encoding='utf-8'?>
<svg xmlns="http://www.w3.org/2000/svg" width="192" height="192" version="1" id="svg22">
  <defs>
    <filter id="filter1433" style="color-interpolation-filters:sRGB" width="1.22" height="1.21" x="0.11" y="0.11">
      <feGaussianBlur stdDeviation="3.63"/>
    </filter>
    <filter id="filter1475" style="color-interpolation-filters:sRGB" width="1.26" height="1.28" x="0.13" y="0.14">
      <feGaussianBlur stdDeviation="3.63"/>
    </filter>
    <filter style="color-interpolation-filters:sRGB" id="filter841" x="0.20" y="0.20" width="1.39" height="1.39">
      <feGaussianBlur stdDeviation="13.15"/>
    </filter>
  </defs>
  <path style="filter:url(#filter841);opacity:0.20" d="M 142.83,25.24 A 212.79,213.55 0 0 0 96.35,20.00 198.49,199.20 0 0 0 50.41,25.37 C 35.75,28.81 25.73,36.94 22.03,51.80 A 195.31,196.01 0 0 0 16.00,99.99 c 0.03,15.94 1.81,31.83 5.49,47.35 a 34.50,34.63 0 0 0 27.69,27.39 206.06,206.79 0 0 0 92.41,0 c 14.66,-3.44 24.68,-11.56 28.38,-26.58 a 195.24,195.94 0 0 0 6.03,-48.18 201.98,202.71 0 0 0 -5.49,-47.36 34.51,34.63 0 0 0 -27.69,-27.38 z"/>
  <path style="fill:#fd7525" d="M 142.83,21.24 A 212.79,213.55 0 0 0 96.35,16.00 198.49,199.20 0 0 0 50.41,21.37 C 35.75,24.81 25.73,32.94 22.03,47.80 a 195.31,196.01 0 0 0 -6.03,48.19 c 0.03,15.94 1.81,31.83 5.49,47.35 a 34.50,34.63 0 0 0 27.69,27.39 206.06,206.79 0 0 0 92.41,0 c 14.66,-3.44 24.68,-11.56 28.38,-26.58 a 195.24,195.94 0 0 0 6.03,-48.18 201.98,202.71 0 0 0 -5.49,-47.36 34.51,34.63 0 0 0 -27.69,-27.38 z"/>
  <path style="filter:url(#filter1475);opacity:0.20" d="m 51.68,101.51 c 0.26,3.42 1.83,6.60 4.39,8.89 l 38.70,-3.72 c 2.56,1.92 -2.83,16.70 0.27,14.78 l 18.18,-12.35 4.89,-1.89 -3.06,-4.91 L 95.97,88.80 78.70,76.49 54.43,59.27 C 52.37,58.45 51,59.54 51,62.14 l 0.68,39.38 z"/>
  <path style="fill:#ffffff" d="m 51.68,99.51 a 13.29,13.25 0 0 0 4.39,8.89 l 35.65,28.17 c 2.56,1.92 6.07,1.92 8.64,0 l 25.91,-20.78 4.93,-3.82 0.02,0.02 L 95.97,86.80 78.70,74.49 54.43,57.27 C 52.37,56.45 51,57.54 51,60.14 l 0.68,39.38 z"/>
  <path style="filter:url(#filter1433);opacity:0.20" d="m 140.32,101.51 a 13.29,13.25 0 0 1 -4.39,8.89 l -35.65,28.17 c -2.56,1.92 -6.07,1.92 -8.64,0 l -25.91,-20.78 -4.93,-3.82 0.02,0.02 L 96.03,88.80 113.30,76.49 137.57,59.27 C 139.63,58.45 141,59.54 141,62.14 l 0.68,39.38 z"/>
  <path style="fill:#ffffff" d="m 140.32,99.51 a 13.29,13.25 0 0 1 -4.39,8.89 l -35.65,28.17 c -2.56,1.92 -6.07,1.92 -8.64,0 l -25.91,-20.78 -4.93,-3.82 0.02,0.02 L 96.03,86.80 113.30,74.49 137.57,57.27 C 139.63,56.45 141,57.54 141,60.14 l 0.68,39.38 z"/>
  <path style="opacity:0.20;fill:#ffffff" d="M 96.35 16 A 198.49 199.20 0 0 0 50.41 21.37 C 35.75 24.81 25.73 32.94 22.03 47.80 A 195.31 196.01 0 0 0 16 95.99 C 16.00 96.24 16.01 96.50 16.01 96.76 A 195.31 196.01 0 0 1 22.03 48.80 C 25.73 33.94 35.75 25.81 50.41 22.37 A 198.49 199.20 0 0 1 96.35 17 A 212.79 213.55 0 0 1 142.83 22.24 L 142.83 22.24 A 34.51 34.63 0 0 1 170.51 49.62 A 201.98 202.71 0 0 1 176 95.98 A 201.98 202.71 0 0 0 170.51 48.62 A 34.51 34.63 0 0 0 142.83 21.24 L 142.83 21.24 A 212.79 213.55 0 0 0 96.35 16 z"/>
</svg>
