<?xml version='1.0' encoding='utf-8'?>
<svg xmlns="http://www.w3.org/2000/svg" width="192" height="192" version="1.1" id="svg14">
  <defs>
    <filter style="color-interpolation-filters:sRGB" id="filter5238" x="-0.053017603" y="-0.04385002" width="1.1060352" height="1.0877">
      <feGaussianBlur stdDeviation="2.7834242"/>
    </filter>
    <filter style="color-interpolation-filters:sRGB" id="filter5285" x="-0.049270616" y="-0.046793587" width="1.0985412" height="1.0935872">
      <feGaussianBlur stdDeviation="2.5736477"/>
    </filter>
    <filter style="color-interpolation-filters:sRGB" id="filter5327" x="-0.108" y="-0.108" width="1.216" height="1.216">
      <feGaussianBlur stdDeviation="2.43"/>
    </filter>
  </defs>
  <path style="filter:url(#filter5238);opacity:0.2;fill:#000000" d="m 104.33691,172.6133 c 13.682,-13.712 34.13973,-38.55099 42.76008,-51.91765 6.87467,-10.65983 10.75029,-21.298832 11.67327,-32.044564 0.3966,-4.617284 0.27398,-9.196057 -0.32342,-13.668148 C 155.30446,51.459144 136.98462,38.718907 114.03943,31.020152 98.285538,25.734278 85.102359,26.601252 70.132138,34.18238 51.853204,43.439087 36.697577,54.132446 33.698182,73.894847 c -0.905361,5.965237 -0.947422,12.086085 -0.02523,18.167556 1.894838,12.495687 7.48103,23.760027 20.3076,40.949367 12.6162,16.90741 33.700816,40.9065 39.964862,45.4891 L 95.994597,180 l 1.654409,-1.17108 c 0.909911,-0.64411 3.919494,-3.44112 6.687904,-6.21562 z"/>
  <path style="fill:#e4e4e4" d="m 104.33691,168.6133 c 13.682,-13.712 34.13973,-38.55099 42.76008,-51.91765 6.87467,-10.65983 10.75029,-21.298832 11.67327,-32.044564 0.3966,-4.617284 0.27398,-9.196057 -0.32342,-13.668148 C 155.30446,47.459144 136.98462,34.718907 114.03943,27.020152 98.285538,21.734278 85.102359,22.601252 70.132138,30.18238 51.853204,39.439087 36.697577,50.132446 33.698182,69.894847 c -0.905361,5.965237 -0.947422,12.086085 -0.02523,18.167556 1.894838,12.495687 7.48103,23.760027 20.3076,40.949367 12.6162,16.90741 33.700816,40.9065 39.964862,45.4891 L 95.994597,176 l 1.654409,-1.17108 c 0.909911,-0.64411 3.919494,-3.44112 6.687904,-6.21562 z"/>
  <path style="filter:url(#filter5285);opacity:0.2;fill:#000000;color:#000000" d="M 96.054688,18 C 63.881679,17.971924 36.776257,42.313833 33.357422,74.304688 a 6,6 0 0 0 5.328125,6.603515 6,6 0 0 0 6.603515,-5.328125 C 48.066402,49.591851 69.90872,29.977192 96.044922,30 122.18112,30.022808 143.98873,49.676887 146.7207,75.669922 a 6,6 0 0 0 6.59375,5.339844 6,6 0 0 0 5.33985,-6.595704 C 155.2913,42.417289 128.2277,18.028076 96.054688,18 Z M 96,41 c -22.643675,0 -41,18.356325 -41,41 0,22.64367 41,68 41,68 0,0 41,-45.35633 41,-68 0,-22.643675 -18.35633,-41 -41,-41 z"/>
  <path style="fill:#77c132;color:#000000" d="M 96.054687,16 C 63.881679,15.971924 36.776257,40.313832 33.357422,72.304687 a 6,6 0 0 0 5.328125,6.603516 6,6 0 0 0 6.603515,-5.328125 C 48.066402,47.591851 69.90872,27.977192 96.044922,28 122.18112,28.022808 143.98873,47.676887 146.7207,73.669922 a 6,6 0 0 0 6.59375,5.339844 6,6 0 0 0 5.33985,-6.595704 C 155.2913,40.417289 128.2277,16.028076 96.054687,16 Z"/>
  <path style="fill:#15b0f1" d="m 137,80 c 0,22.64367 -41,68 -41,68 0,0 -41,-45.35633 -41,-68 0,-22.643675 18.356325,-41 41,-41 22.64367,0 41,18.356325 41,41 z"/>
  <circle style="filter:url(#filter5327);opacity:0.2;fill:#000000" cx="96" cy="81" r="27"/>
  <circle style="fill:#ffffff" cx="96" cy="79" r="27"/>
  <circle style="fill:#6e6e6e" cx="96" cy="79" r="14"/>
  <path style="opacity:0.2;fill:#ffffff;color:#000000" d="M 96.054688 16 C 63.881679 15.971924 36.776257 40.313833 33.357422 72.304688 A 6 6 0 0 0 33.410156 72.894531 C 37.016993 41.107279 64.020184 16.972045 96.054688 17 C 128.2277 17.028076 155.2913 41.417289 158.6543 73.414062 A 6 6 0 0 1 158.6582 73.505859 A 6 6 0 0 0 158.6543 72.414062 C 155.2913 40.417289 128.2277 16.028076 96.054688 16 z "/>
</svg>
