<svg xmlns="http://www.w3.org/2000/svg" id="svg26" width="192" height="192" version="1"><defs><filter style="color-interpolation-filters:sRGB" id="filter867" width="1.09" height="1.1" x=".05" y=".05"><feGaussianBlur stdDeviation="3.04"/></filter><filter style="color-interpolation-filters:sRGB" id="filter883" width="1.1" height="1.1" x=".05" y=".05"><feGaussianBlur stdDeviation=".32"/></filter><filter style="color-interpolation-filters:sRGB" id="filter903" width="1.1" height="1.1" x=".05" y=".05"><feGaussianBlur stdDeviation="1.44"/></filter></defs><path style="filter:url(#filter867);opacity:.2;fill:#000" d="m 28,28 c -6.65,0 -12,5.35 -12,12 v 100 20 c 0,6.65 5.35,12 12,12 h 136 c 6.65,0 12,-5.35 12,-12 V 140 40 c 0,-6.65 -5.35,-12 -12,-12 z"/><path d="M 28,24 C 21.35,24 16,29.35 16,36 V 136 H 176 V 36 c 0,-6.65 -5.35,-12 -12,-12 z" style="fill:#0eaadb"/><path style="opacity:.2;fill:#fff" d="M 28 24 C 21.35 24 16 29.35 16 36 L 16 37 C 16 30.35 21.35 25 28 25 L 164 25 C 170.65 25 176 30.35 176 37 L 176 36 C 176 29.35 170.65 24 164 24 L 28 24 z"/><path d="m 16,136 v 20 c 0,6.65 5.35,12 12,12 h 136 c 6.65,0 12,-5.35 12,-12 v -20 z" style="fill:#ccc"/><rect style="fill:#999" width="52" height="8" x="112" y="148" rx="4" ry="3.71"/><rect width="84" height="8" x="28" y="148" rx="4" ry="4" style="fill:#0eaadb"/><circle style="filter:url(#filter883);opacity:.1" cx="112" cy="154" r="8"/><circle cx="112" cy="152" r="8" style="fill:#fff"/><rect width="160" height="1" x="16" y="136" style="opacity:.2;fill:#fff"/><path d="M 96,48 A 36,36 0 0 0 60,84 36,36 0 0 0 96,120 36,36 0 0 0 132,84 36,36 0 0 0 96,48 Z m -7.96,16 a 3.95,4.42 0 0 1 1.88,0.60 l 12.06,7.79 12.06,7.80 a 3.95,4.42 0 0 1 0,7.63 L 101.98,95.62 89.91,103.41 A 3.95,4.42 0 0 1 84,99.59 V 68.41 A 3.95,4.42 0 0 1 88.04,64 Z" style="filter:url(#filter903);opacity:.1"/><path d="M 96,44 A 36,36 0 0 0 60,80 36,36 0 0 0 96,116 36,36 0 0 0 132,80 36,36 0 0 0 96,44 Z m -7.96,16 a 3.95,4.42 0 0 1 1.88,0.60 l 12.06,7.79 12.06,7.80 a 3.95,4.42 0 0 1 0,7.63 L 101.98,91.62 89.91,99.41 A 3.95,4.42 0 0 1 84,95.59 V 64.41 A 3.95,4.42 0 0 1 88.04,60 Z" style="fill:#fff"/></svg>