<svg xmlns="http://www.w3.org/2000/svg" id="svg14" width="192" height="192" version="1"><defs><filter style="color-interpolation-filters:sRGB" id="filter860" width="1.1" height="1.1" x=".05" y=".05"><feGaussianBlur stdDeviation="3.2"/></filter><filter style="color-interpolation-filters:sRGB" id="filter11010" width="1.08" height="1.11" x=".04" y=".06"><feGaussianBlur stdDeviation="1.47"/></filter></defs><circle style="filter:url(#filter860);opacity:.2;fill:#000" cx="96" cy="100" r="80"/><circle style="fill:#dd2b33" cx="96" cy="96" r="80"/><path style="opacity:.2;fill:#fff" d="M 95.94,16 A 80,80 0 0 0 16,96 80,80 0 0 0 16.00,96.53 80,80 0 0 1 96,17 80,80 0 0 1 176.00,96.47 80,80 0 0 0 176,96 80,80 0 0 0 96,16 80,80 0 0 0 95.94,16 Z"/><path style="filter:url(#filter11010);opacity:.2;fill:#000" d="m 54,65 v 62 h 12 v -20.96 c 0,-4.73 0.18,-8.35 1.46,-10.85 C 68.81,92.63 71.20,91 74.66,91 79.20,91 82,94.56 82,100.98 V 127 H 94 V 97.96 C 94,92.25 92.61,88.41 89.82,85.86 87.09,83.25 82.43,82 77.83,82 75.25,82 72.91,82.46 70.79,83.49 68.68,84.53 67.34,86.18 66,88.47 V 84.23 65 Z m 45,0 v 62 h 12 v -20.96 c 0,-4.73 0.18,-8.35 1.46,-10.85 C 113.81,92.63 116.20,91 119.66,91 124.20,91 127,94.56 127,100.98 V 127 h 12 V 97.96 c 0,-5.71 -1.39,-9.54 -4.18,-12.10 C 132.09,83.25 127.43,82 122.83,82 c -2.58,0 -4.93,0.46 -7.04,1.49 C 113.68,84.53 112.34,86.18 111,88.47 V 84.23 65 Z"/><path style="fill:#fff" d="m 54,63 v 62 H 66 V 104.04 C 66,99.30 66.18,95.69 67.46,93.18 68.81,90.63 71.20,89 74.66,89 79.20,89 82,92.56 82,98.98 V 125 H 94 V 95.96 C 94,90.25 92.61,86.41 89.82,83.86 87.09,81.25 82.43,80 77.83,80 75.25,80 72.91,80.46 70.79,81.49 68.68,82.53 67.34,84.18 66,86.47 V 82.23 63 Z m 45,0 v 62 h 12 v -20.96 c 0,-4.73 0.18,-8.35 1.46,-10.85 C 113.81,90.63 116.20,89 119.66,89 124.20,89 127,92.56 127,98.98 V 125 h 12 V 95.96 c 0,-5.71 -1.39,-9.54 -4.18,-12.10 C 132.09,81.25 127.43,80 122.83,80 c -2.58,0 -4.93,0.46 -7.04,1.49 C 113.68,82.53 112.34,84.18 111,86.47 V 82.23 63 Z"/></svg>