<svg xmlns="http://www.w3.org/2000/svg" id="svg26" width="192" height="192" version="1"><defs><filter style="color-interpolation-filters:sRGB" id="filter13358" width="1.1" height="1.1" x=".05" y=".05"><feGaussianBlur stdDeviation="3.2"/></filter><filter style="color-interpolation-filters:sRGB" id="filter13362" width="1.11" height="1.08" x=".06" y=".04"><feGaussianBlur stdDeviation="1.66"/></filter></defs><rect width="160" height="160" x="-180" y="-176" rx="60" ry="60" transform="matrix(0,-1,-1,0,0,0)" style="filter:url(#filter13358);opacity:.2;fill:#000"/><rect width="160" height="160" x="-176" y="-176" rx="60" ry="60" transform="matrix(0,-1,-1,0,0,0)" style="fill:#e4e4e4"/><path d="m 130.99,119.36 c 0.31,8.45 -4.14,16.90 -11.74,21.20 -10.60,6.24 -24.64,6.05 -36.55,4.62 C 77.71,144.46 67.99,140.32 61,135.72 L 71.42,124.92 c 11.31,7.16 19.64,9.45 31.45,7.60 5.90,0.75 11.46,-5.38 11.46,-11.42 0.56,-5.50 -3.54,-10.18 -8.37,-12.51 C 95.87,102.92 77.09,100.67 69.09,91.89 61.98,83.95 60.97,71.50 66.33,62.44 72.14,53.23 84.29,49.83 94.88,50.01 c 13.28,0.00 22.55,3.78 31.21,7.50 l -9.72,10.15 c -8.33,-4.04 -14.57,-5.19 -21.37,-4.57 -4.69,0.59 -9.73,1.15 -13.02,4.38 -2.14,2.15 -3.34,5.10 -2.94,8.27 0.01,6.23 5.70,10.18 10.96,12.51 9.97,4.82 28.77,7.57 36.16,16.23 3.50,4.16 4.88,9.60 4.84,14.88 z" style="filter:url(#filter13362);opacity:.2;fill:#000"/><path d="m 130.99,117.36 c 0.31,8.45 -4.14,16.90 -11.74,21.20 -10.60,6.24 -24.64,6.05 -36.55,4.62 C 77.71,142.46 67.99,138.32 61,133.72 l 10.42,-10.80 c 11.31,7.16 19.64,9.45 31.45,7.60 5.90,0.75 11.46,-5.38 11.46,-11.42 0.56,-5.50 -3.54,-10.18 -8.37,-12.51 C 95.87,100.92 77.09,98.67 69.09,89.89 61.98,81.95 60.97,69.50 66.33,60.44 72.14,51.23 84.29,47.83 94.88,48.01 c 13.28,0.00 22.55,3.78 31.21,7.50 l -9.72,10.15 c -8.33,-4.04 -14.57,-5.19 -21.37,-4.57 -4.69,0.59 -9.73,1.15 -13.02,4.38 -2.14,2.15 -3.34,5.10 -2.94,8.27 0.01,6.23 5.70,10.18 10.96,12.51 9.97,4.82 28.77,7.57 36.16,16.23 3.50,4.16 4.88,9.60 4.84,14.88 z" style="fill:#424242"/><path style="opacity:.2;fill:#fff" d="M 76 16 C 42.76 16 16 42.76 16 76 L 16 77 C 16 43.76 42.76 17 76 17 L 116 17 C 149.24 17 176 43.76 176 77 L 176 76 C 176 42.76 149.24 16 116 16 L 76 16 z"/></svg>