<?xml version='1.0' encoding='utf-8'?>
<svg xmlns="http://www.w3.org/2000/svg" width="192" height="192" version="1.1" id="svg30">
  <defs>
    <filter style="color-interpolation-filters:sRGB" id="filter870" x="0.04" width="1.08" y="0.06" height="1.11">
      <feGaussianBlur stdDeviation="2.24"/>
    </filter>
    <filter style="color-interpolation-filters:sRGB" id="filter904" x="0.03" width="1.05" y="0.02" height="1.04">
      <feGaussianBlur stdDeviation="1.44"/>
    </filter>
    <filter style="color-interpolation-filters:sRGB" id="filter920" x="0.05" width="1.10" y="0.05" height="1.10">
      <feGaussianBlur stdDeviation="1.76"/>
    </filter>
    <filter style="color-interpolation-filters:sRGB" id="filter939" x="0.05" width="1.10" y="0.05" height="1.10">
      <feGaussianBlur stdDeviation="0.64"/>
    </filter>
  </defs>
  <rect style="filter:url(#filter870);opacity:0.20;fill:#000000" width="128" height="96" x="-172" y="-144" rx="8" ry="8" transform="matrix(0,-1,-1,0,0,0)"/>
  <rect transform="matrix(0,-1,-1,0,0,0)" ry="8" rx="8" y="-144" x="-168" height="96" width="128" style="fill:#8e8e8e"/>
  <rect style="filter:url(#filter904);opacity:0.10;fill:#000000" width="128" height="160" x="-156" y="-176" rx="8" ry="8" transform="matrix(0,-1,-1,0,0,0)"/>
  <rect transform="matrix(0,-1,-1,0,0,0)" ry="8" rx="8" y="-176" x="-152" height="160" width="128" style="fill:#4f4f4f"/>
  <rect transform="matrix(0,-1,-1,0,0,0)" ry="0" rx="0" y="-164" x="-140" height="136" width="104" style="fill:#6de3f8"/>
  <path d="M 71.00,100.00 88.50,120 106,140 H 71.00 36.00 l 17.50,-20 z" style="fill:#00645b"/>
  <path d="m 108,76.00 28.00,32.00 28.00,32 H 108 52.00 l 28.00,-32 z" style="fill:#3b9649"/>
  <path style="opacity:0.10;fill:#ffffff" d="M 24 24 C 19.57 24 16 27.57 16 32 L 16 33 C 16 28.57 19.57 25 24 25 L 168 25 C 172.43 25 176 28.57 176 33 L 176 32 C 176 27.57 172.43 24 168 24 L 24 24 z "/>
  <circle r="44" cy="140" cx="144" style="filter:url(#filter920);opacity:0.20"/>
  <circle r="44" cy="136" cx="144" style="fill:#ff932b"/>
  <circle r="16" cy="62" cx="52" style="filter:url(#filter939);opacity:0.10"/>
  <circle r="16" cy="60" cx="52" style="fill:#ffec44"/>
  <path d="m 124,112 c 0,2 2,4 4,4 19.88,0.00 36,16.12 36,36 0,2 1.81,4 4,4 2,0 4,-2 4,-4 0,-24.30 -19.70,-44 -44,-44 -2,0 -4,2 -4,4 z m 0,16 c 0,2 2,4 4,4 11.05,0.00 20,8.95 20,20 0,2 2,4 4,4 2,0 4,-2 4,-4 0,-15.46 -12.54,-28 -28,-28 -2,0 -4,2 -4,4 z m 8,12 c -4.42,0 -8,3.58 -8,8 0,4.42 3.58,8 8,8 4.42,0 8,-3.58 8,-8 0,-4.42 -3.58,-8 -8,-8 z" style="fill:#ffffff"/>
</svg>
