<svg xmlns="http://www.w3.org/2000/svg" id="svg24" width="192" height="192" version="1"><defs><filter style="color-interpolation-filters:sRGB" id="filter987" width="1.1" height="1.1" x=".05" y=".05"><feGaussianBlur stdDeviation="3.2"/></filter><filter style="color-interpolation-filters:sRGB" id="filter991" width="1.08" height="1.12" x=".04" y=".06"><feGaussianBlur stdDeviation=".54"/></filter></defs><rect width="160" height="160" x="16" y="20" fill="#c2352a" rx="8" ry="8" style="filter:url(#filter987);opacity:.2;fill:#000"/><rect width="160" height="160" x="16" y="16" fill="#c2352a" rx="8" ry="8"/><path style="opacity:.2;fill:#fff" d="M 24 16 C 19.57 16 16 19.57 16 24 L 16 25 C 16 20.57 19.57 17 24 17 L 168 17 C 172.43 17 176 20.57 176 25 L 176 24 C 176 19.57 172.43 16 168 16 L 24 16 z"/><g opacity=".2" transform="matrix(4,0,0,4,8,2.00)" style="filter:url(#filter991)"><path d="m 14,13 v 22 h 6 V 20 h 3 v 15 h 6 V 20 h 3 v 15 h 6 V 13"/><rect width="6" height="14" x="6" y="13"/><rect width="6" height="6" x="6" y="29"/></g><g fill="#fff" transform="matrix(4,0,0,4,8,0)"><path d="m 14,13 v 22 h 6 V 20 h 3 v 15 h 6 V 20 h 3 v 15 h 6 V 13"/><rect width="6" height="14" x="6" y="13"/><rect width="6" height="6" x="6" y="29"/></g></svg>