<?xml version='1.0' encoding='utf-8'?>
<svg xmlns="http://www.w3.org/2000/svg" width="192" height="192" version="1" id="svg14">
  <defs>
    <filter style="color-interpolation-filters:sRGB" id="filter850" x="-0.048000001" width="1.096" y="-0.048000001" height="1.096">
      <feGaussianBlur stdDeviation="3.2"/>
    </filter>
    <filter style="color-interpolation-filters:sRGB" id="filter1444" x="-0.094658822" y="-0.12571875" width="1.1893176" height="1.2514375">
      <feGaussianBlur stdDeviation="3.3525"/>
    </filter>
  </defs>
  <circle style="filter:url(#filter850);opacity:0.2;fill:#000000" cx="96" cy="100" r="80"/>
  <circle r="80" cy="96" cx="96" style="fill:#6c5ce7"/>
  <path style="fill:#38adfa" d="m 688.80525,256.99648 c -0.33229,-0.33229 -1.1948,-0.36781 -1.91667,-0.0789 -0.79773,0.31922 -0.56078,0.55618 0.60417,0.60416 1.05416,0.0434 1.64479,-0.19293 1.3125,-0.52522 z"/>
  <path style="opacity:0.1;fill:#ffffff" d="M 96 16 A 80 80 0 0 0 16 96 A 80 80 0 0 0 16.019531 96.472656 A 80 80 0 0 1 96 17 A 80 80 0 0 1 175.97461 96.513672 A 80 80 0 0 0 176 96 A 80 80 0 0 0 96 16 z "/>
  <path d="m 53,66 h 53.06633 C 127.39966,66.296477 138,76.963143 138,98 136.51848,119.33333 124.73299,130 102.51089,130 85.176187,128.22222 74.153964,117.07696 69.444221,97 h 16.000001 c 2.339445,11.18807 9.213481,17 20.622108,17 C 116.733,113.40748 122,107.83718 122,97.28911 122,87.428295 116.733,82.331925 106.06633,82 H 69 V 95.866667 L 53,82 Z" fill="#ffffff" style="filter:url(#filter1444);opacity:0.2;fill:#000000;isolation:isolate"/>
  <path d="m 53,64 h 53.06633 C 127.39966,64.296477 138,74.963143 138,96 136.51848,117.33333 124.73299,128 102.51089,128 85.176187,126.22222 74.153964,115.07696 69.444221,95 h 16.000001 c 2.339445,11.18807 9.213481,17 20.622108,17 C 116.733,111.40748 122,105.83718 122,95.28911 122,85.428295 116.733,80.331925 106.06633,80 H 69 V 93.866667 L 53,80 Z" fill="#ffffff" style="isolation:isolate"/>
</svg>
