<?xml version='1.0' encoding='utf-8'?>
<svg xmlns="http://www.w3.org/2000/svg" width="192" height="192" version="1" id="svg28">
  <defs>
    <filter style="color-interpolation-filters:sRGB" id="filter3276" x="0.05" y="0.04" width="1.11" height="1.09">
      <feGaussianBlur stdDeviation="2.84"/>
    </filter>
    <filter style="color-interpolation-filters:sRGB" id="filter3318" x="0.12" y="0.05" width="1.24" height="1.11">
      <feGaussianBlur stdDeviation="1.80"/>
    </filter>
  </defs>
  <path style="filter:url(#filter3276);opacity:0.20;fill:#000000" d="m 78.00,20.00 c -2.27,0 -4.54,0.87 -6.28,2.61 L 34.00,60.33 V 139.67 l 37.72,37.72 c 3.48,3.48 9.07,3.48 12.55,0 l 71.12,-71.12 c 3.48,-3.48 3.48,-9.07 0,-12.55 L 84.28,22.61 c -1.74,-1.74 -4.01,-2.61 -6.28,-2.61 z"/>
  <path style="fill:#5147bd" d="m 78.00,16 c -2.27,0 -4.54,0.87 -6.28,2.61 L 34.00,56.33 v 79.34 l 37.72,37.72 c 3.48,3.48 9.07,3.48 12.55,0 l 71.12,-71.12 c 3.48,-3.48 3.48,-9.07 0,-12.55 L 84.28,18.61 C 82.54,16.87 80.27,16 78.00,16 Z"/>
  <path style="filter:url(#filter3318);opacity:0.20;fill:#000000" d="M 34.00,58.33 V 137.67 l 33.39,-33.39 c 3.48,-3.48 3.48,-9.07 0,-12.55 z"/>
  <path style="fill:#7d84d1" d="m 34.00,56.33 v 79.34 l 33.39,-33.39 c 3.48,-3.48 3.48,-9.07 0,-12.55 z"/>
  <path style="opacity:0.10;fill:#ffffff" d="M 78 16 C 75.73 16 73.46 16.87 71.72 18.61 L 34 56.33 L 34 57.33 L 71.72 19.61 C 73.46 17.87 75.73 17 78 17 C 80.27 17 82.54 17.87 84.28 19.61 L 155.39 90.72 C 157.00 92.33 157.83 94.40 157.95 96.50 C 158.09 94.07 157.26 91.59 155.39 89.72 L 84.28 18.61 C 82.54 16.87 80.27 16 78 16 z "/>
  <path style="opacity:0.10;fill:#ffffff" d="M 34 56.33 L 34 57.33 L 67.39 90.72 C 69.00 92.33 69.86 94.40 69.98 96.50 C 70.11 94.07 69.26 91.59 67.39 89.72 L 34 56.33 z "/>
</svg>
