<?xml version='1.0' encoding='utf-8'?>
<svg xmlns="http://www.w3.org/2000/svg" width="192" height="192" version="1" id="svg14">
  <defs>
    <filter style="color-interpolation-filters:sRGB" id="filter850" x="0.05" width="1.10" y="0.05" height="1.10">
      <feGaussianBlur stdDeviation="3.20"/>
    </filter>
    <filter style="color-interpolation-filters:sRGB" id="filter2667" x="0.12" y="0.10" width="1.23" height="1.20">
      <feGaussianBlur stdDeviation="3.97"/>
    </filter>
  </defs>
  <circle style="filter:url(#filter850);opacity:0.20;fill:#000000" cx="96" cy="100" r="80"/>
  <circle r="80" cy="96" cx="96" style="fill:#005890"/>
  <path style="filter:url(#filter2667);opacity:0.20;fill:#000000" d="m 137.21,51.19 c 0,0 -47.05,33.22 -48.37,33.17 -1.31,0.05 -17.40,-10.30 -17.40,-10.30 0,0 6.47,17.29 5.78,18.45 0.68,1.16 -21.29,15.14 -21.29,15.14 0,0 20.13,-2.10 20.50,-1.21 C 76.91,107.55 64.50,145.61 64.50,145.61 c 0,0 25.44,-39.90 26.71,-40.59 1.21,0.68 24.87,-1.47 24.87,-1.47 0,0 -15.98,-10.04 -16.09,-11.25 C 99.88,91.09 137.21,51.19 137.21,51.19 Z m -33.28,15.88 c -5.57,0 -11.57,0.89 -17.61,2.84 0.84,0.26 -1.68,0.58 -2.52,0.89 4.26,-1.10 8.46,-1.63 12.46,-1.63 3.68,0 7.15,0.42 10.30,1.26 l 4.15,-2.89 c -2.16,0.32 -4.47,0.47 -6.78,0.47 z m 19.92,4.84 c -1.63,1.73 -3.36,3.58 -4.99,5.36 2.16,2.26 3.73,4.89 4.52,7.94 3.68,13.83 -9.46,30.23 -29.44,36.59 -3.84,1.21 -7.62,2.00 -11.30,2.31 l -3.00,4.73 c 1.31,0.11 2.63,0.16 4.00,0.16 5.63,0 11.62,0.89 17.66,-2.89 22.40,-7.20 37.22,-25.60 33.07,-41.11 -1.47,-5.57 -5.26,-9.99 -10.52,-13.09 z M 55.20,115.75 c 2.79,4.89 7.57,8.57 13.62,10.78 l 0.95,-3.10 c -6.05,-1.26 -11.15,-3.84 -14.56,-7.68 z"/>
  <path style="fill:#ffffff" d="M 137.21 49.19 C 137.21 49.19 90.15 82.42 88.84 82.36 C 87.53 82.31 71.44 72.06 71.44 72.06 C 71.44 72.06 77.91 89.36 77.22 90.51 C 76.54 91.67 55.93 105.65 55.93 105.65 C 55.93 105.65 76.07 103.55 76.43 104.44 C 76.91 105.55 64.50 143.61 64.50 143.61 C 64.50 143.61 89.94 103.71 91.21 103.02 C 92.41 102.34 116.07 101.55 116.07 101.55 C 116.07 101.55 100.09 91.51 99.98 90.30 C 99.88 89.09 137.21 49.19 137.21 49.19 z M 103.93 65.07 C 98.36 65.07 92.36 65.96 86.32 67.91 C 85.48 68.17 84.63 68.49 83.79 68.80 C 88.05 67.70 92.26 67.17 96.25 67.17 C 99.93 67.17 103.40 67.59 106.56 68.43 L 110.71 65.54 C 108.55 65.23 106.24 65.07 103.93 65.07 z M 123.85 69.90 C 122.22 71.64 120.49 73.48 118.86 75.27 C 121.01 77.53 122.59 80.16 123.38 83.21 C 127.06 97.03 113.92 113.43 93.94 119.79 C 90.10 121.00 86.32 121.79 82.64 122.11 L 79.64 126.84 C 80.95 126.94 82.27 127.00 83.64 127.00 C 89.26 127.00 95.25 126.10 101.30 124.11 C 123.69 116.90 138.52 98.50 134.37 82.99 C 132.90 77.42 129.11 73.01 123.85 69.90 z M 55.20 113.75 C 57.98 118.64 62.76 122.32 68.81 124.53 L 69.76 121.42 C 63.71 120.16 58.61 117.59 55.20 113.75 z "/>
  <path style="opacity:0.10;fill:#ffffff" d="M 96 16 A 80 80 0 0 0 16 96 A 80 80 0 0 0 16.02 96.47 A 80 80 0 0 1 96 17 A 80 80 0 0 1 175.97 96.51 A 80 80 0 0 0 176 96 A 80 80 0 0 0 96 16 z "/>
</svg>
