<?xml version='1.0' encoding='utf-8'?>
<svg xmlns="http://www.w3.org/2000/svg" width="192" height="192" version="1" id="svg14">
  <defs>
    <filter style="color-interpolation-filters:sRGB" id="filter850" x="-0.048000001" width="1.096" y="-0.048000001" height="1.096">
      <feGaussianBlur stdDeviation="3.2"/>
    </filter>
    <filter style="color-interpolation-filters:sRGB" id="filter10497" x="-0.068885605" y="-0.082502527" width="1.1377712" height="1.1650051">
      <feGaussianBlur stdDeviation="2.9563406"/>
    </filter>
  </defs>
  <circle style="filter:url(#filter850);opacity:0.2;fill:#000000" cx="96" cy="100" r="80"/>
  <circle r="80" cy="96" cx="96" style="fill:#3f3f3f"/>
  <path style="filter:url(#filter10497);opacity:0.2;fill:#000000" d="M 115,54 A 32,32 0 0 0 84.273438,77.095703 32,32 0 0 0 76,76 32,32 0 0 0 44,108 32,32 0 0 0 76,140 32,32 0 0 0 106.73633,116.86719 32,32 0 0 0 115,118 32,32 0 0 0 147,86 32,32 0 0 0 115,54 Z"/>
  <path style="opacity:0.1;fill:#ffffff" d="M 96 16 A 80 80 0 0 0 16 96 A 80 80 0 0 0 16.019531 96.472656 A 80 80 0 0 1 96 17 A 80 80 0 0 1 175.97461 96.513672 A 80 80 0 0 0 176 96 A 80 80 0 0 0 96 16 z "/>
  <circle style="fill:#0b97d9" cx="76" cy="106" r="32"/>
  <circle style="fill:#ffef08" cx="115" cy="84" r="32"/>
  <path style="fill:#41d24b" d="M 84.273438 75.095703 A 32 32 0 0 0 83 84 A 32 32 0 0 0 106.73633 114.86719 A 32 32 0 0 0 108 106 A 32 32 0 0 0 84.273438 75.095703 z "/>
</svg>
