<?xml version='1.0' encoding='utf-8'?>
<svg xmlns="http://www.w3.org/2000/svg" width="192" height="192" version="1" id="svg12">
  <defs>
    <filter style="color-interpolation-filters:sRGB" id="filter955" x="0.05" width="1.10" y="0.05" height="1.10">
      <feGaussianBlur stdDeviation="3.20"/>
    </filter>
    <filter style="color-interpolation-filters:sRGB" id="filter12139" x="0.11" y="0.11" width="1.22" height="1.22">
      <feGaussianBlur stdDeviation="4.67"/>
    </filter>
    <filter style="color-interpolation-filters:sRGB" id="filter12181" x="0.11" y="0.10" width="1.22" height="1.20">
      <feGaussianBlur stdDeviation="2.47"/>
    </filter>
  </defs>
  <rect style="filter:url(#filter955);opacity:0.20;fill:#000000" width="160" height="160" x="16" y="20" rx="30" ry="30"/>
  <rect style="fill:#fe5cc2" width="160" height="160" x="16" y="16" rx="30" ry="30"/>
  <path style="opacity:0.20;fill:#ffffff" d="M 46 16 C 29.38 16 16 29.38 16 46 L 16 47 C 16 30.38 29.38 17 46 17 L 146 17 C 162.62 17 176 30.38 176 47 L 176 46 C 176 29.38 162.62 16 146 16 L 46 16 z "/>
  <path style="filter:url(#filter12181);opacity:0.20;fill:#000000;color:#000000" d="m 148.15,69.08 a 4.98,5.01 0 0 0 -1.62,0.59 L 125.01,82.17 103.49,94.66 a 4.98,5.01 0 0 0 0,8.67 l 21.52,12.50 21.52,12.50 A 4.98,5.01 0 0 0 153.99,124.00 V 99.00 74.01 a 4.98,5.01 0 0 0 -5.84,-4.93 z"/>
  <path style="fill:#ffceea;color:#000000" d="m 148.15,68.08 a 4.98,5.01 0 0 0 -1.62,0.59 L 125.01,81.17 103.49,93.66 a 4.98,5.01 0 0 0 0,8.67 l 21.52,12.50 21.52,12.50 A 4.98,5.01 0 0 0 153.99,123.00 V 98.00 73.01 a 4.98,5.01 0 0 0 -5.84,-4.93 z"/>
  <path style="filter:url(#filter12139);opacity:0.20;fill:#000000" d="M 58.45,43 55.80,47.85 50.95,50.50 55.80,53.15 58.45,58 61.11,53.15 65.95,50.50 61.11,47.85 Z m -16,8.50 -1.77,3.23 L 37.45,56.50 40.69,58.27 42.45,61.50 44.22,58.27 47.45,56.50 44.22,54.73 Z M 53,66 c -5.54,0 -10,4.46 -10,10 v 48 c 0,5.54 4.46,10 10,10 h 61 c 5.54,0 10,-4.46 10,-10 V 92 76 66 H 114 98 Z m 83.55,70.50 -1.77,3.23 -3.23,1.77 3.23,1.77 1.77,3.23 1.77,-3.23 3.23,-1.77 -3.23,-1.77 z"/>
  <path style="fill:#ffffff" d="m 53,64 c -5.54,0 -10,4.46 -10,10 v 48 c 0,5.54 4.46,10 10,10 h 61 c 5.54,0 10,-4.46 10,-10 V 90 74 64 H 114 98 Z"/>
  <path style="fill:#ff3498;color:#000000" d="m 75.03,85.00 a 3.03,3.07 0 0 0 -1.51,0.41 3.03,3.07 0 0 0 -1.51,2.66 v 9.93 9.93 a 3.03,3.07 0 0 0 4.54,2.66 l 8.47,-4.96 8.47,-4.96 a 3.03,3.07 0 0 0 0,-5.32 l -8.47,-4.96 -8.47,-4.96 a 3.03,3.07 0 0 0 -1.51,0.41 z"/>
  <path style="fill:#ffffff" d="M 58.50,60 55.85,55.15 51,52.50 55.85,49.85 58.50,45 61.15,49.85 66,52.50 61.15,55.15 Z" transform="translate(0.05,-4)"/>
  <path style="fill:#ffffff" d="M 42.50,63.50 40.73,60.27 37.50,58.50 40.73,56.73 42.50,53.50 44.27,56.73 47.50,58.50 44.27,60.27 Z" transform="translate(0.05,-4)"/>
  <path style="fill:#ffffff" d="M 136.50,148.50 134.73,145.27 131.50,143.50 134.73,141.73 136.50,138.50 l 1.77,3.23 3.23,1.77 -3.23,1.77 z" transform="translate(0.05,-4)"/>
</svg>
