<svg xmlns="http://www.w3.org/2000/svg" id="svg32" width="192" height="192" version="1"><defs><filter style="color-interpolation-filters:sRGB" id="filter871" width="1.09" height="1.1" x=".05" y=".05"><feGaussianBlur stdDeviation="3.28"/></filter><filter style="color-interpolation-filters:sRGB" id="filter879" width="1.02" height="2.94" x=".01" y=".97"><feGaussianBlur stdDeviation=".81"/></filter><filter style="color-interpolation-filters:sRGB" id="filter887" width="1.02" height="2.94" x=".01" y=".97"><feGaussianBlur stdDeviation=".81"/></filter><filter style="color-interpolation-filters:sRGB" id="filter895" width="1.02" height="2.94" x=".01" y=".97"><feGaussianBlur stdDeviation=".81"/></filter><filter style="color-interpolation-filters:sRGB" id="filter903" width="1.02" height="2.94" x=".01" y=".97"><feGaussianBlur stdDeviation=".81"/></filter><filter style="color-interpolation-filters:sRGB" id="filter911" width="1.02" height="2.94" x=".01" y=".97"><feGaussianBlur stdDeviation=".81"/></filter></defs><rect width="168" height="160" x="-184" y="-176" rx="8.4" ry="8" transform="matrix(0,-1,-1,0,0,0)" style="filter:url(#filter871);opacity:.2"/><path d="m 16,152 v 19.60 C 16,176.26 19.57,180 24,180 h 144 c 4.43,0 8,-3.74 8,-8.40 V 152 Z" style="fill:#6767cf"/><path d="m 24,12 c -4.43,0 -8,3.74 -8,8.40 V 40 H 176 V 20.40 C 176,15.74 172.43,12 168,12 Z" style="fill:#e4e4e4"/><rect width="160" height="28" x="16" y="124" style="fill:#ffea00"/><rect width="160" height="28" x="16" y="96" style="fill:#4c872e"/><rect width="160" height="28" x="16" y="68" style="fill:#ec5454"/><rect width="160" height="28" x="16" y="40" style="fill:#4f4f4f"/><rect width="160" height="2" x="16" y="40" style="filter:url(#filter879);opacity:.1"/><rect width="160" height="2" x="16" y="68" style="filter:url(#filter887);opacity:.1"/><rect width="160" height="2" x="16" y="96" style="filter:url(#filter895);opacity:.1"/><rect width="160" height="2" x="16" y="124" style="filter:url(#filter903);opacity:.1"/><rect width="160" height="2" x="16" y="152" style="filter:url(#filter911);opacity:.1"/><path style="opacity:.2;fill:#fff" d="M 24 12 C 19.57 12 16 15.74 16 20.40 L 16 21.40 C 16 16.74 19.57 13 24 13 L 168 13 C 172.43 13 176 16.74 176 21.40 L 176 20.40 C 176 15.74 172.43 12 168 12 L 24 12 z"/><path d="M 48,12 V 40 H 80 V 12 Z m 32,28 v 28 h 32 V 40 Z m 32,0 h 32 V 12 h -32 z m 32,0 v 28 h 32 V 40 Z m 0,28 h -32 v 28 h 32 z m 0,28 v 28 h 32 V 96 Z m 0,28 h -32 v 28 h 32 z m 0,28 v 28 h 24 c 4.43,0 8,-3.74 8,-8.40 V 152 Z m -32,0 H 80 v 28 h 32 z m -32,0 V 124 H 48 v 28 z m -32,0 H 16 v 19.60 C 16,176.26 19.57,180 24,180 h 24 z m 0,-28 V 96 H 16 v 28 z M 48,96 H 80 V 68 H 48 Z M 48,68 V 40 H 16 v 28 z m 32,28 v 28 h 32 V 96 Z" style="opacity:.1"/></svg>