<?xml version='1.0' encoding='utf-8'?>
<svg xmlns="http://www.w3.org/2000/svg" version="1.1" width="192" height="192" id="svg6">
  <defs>
    <filter style="color-interpolation-filters:sRGB" id="filter2327" x="-0.048000001" y="-0.048000001" width="1.096" height="1.096">
      <feGaussianBlur stdDeviation="3.2"/>
    </filter>
    <filter style="color-interpolation-filters:sRGB" id="filter2417" x="-0.033709924" y="-0.083320756" width="1.0674198" height="1.1666415">
      <feGaussianBlur stdDeviation="1.84"/>
    </filter>
  </defs>
  <rect style="filter:url(#filter2327);opacity:0.2;fill:#000000;stop-color:#000000" width="160" height="160" x="16" y="20" rx="20" ry="20"/>
  <rect style="fill:#e4e4e4;stop-color:#000000" width="160" height="160" x="16" y="16" rx="20" ry="20"/>
  <path style="filter:url(#filter2417);opacity:0.15;fill:#000000" d="M 63,71 V 96.830078 C 63,91.388156 59.535939,83 46.978516,83 37.717475,83 30,86.917828 30,98.738281 30,108.10268 35.188677,114 47.216797,114 c 14.15766,0 15.066406,-9 15.066406,-9 h -6.861328 c 0,0 -1.470259,5 -8.623047,5 -5.825751,0 -10.015625,-4.49931 -10.015625,-10 H 63 v 13 h 6.476562 c 0,0 0.234376,-2.1668 0.234376,-4.09766 0,0 3.198511,5.09766 11.90039,5.09766 C 90.774758,114 97,107.52165 97,98.240234 97,89.605875 91.282674,83 81.626953,83 72.585053,83 70,87.632812 70,87.632812 V 71 Z m 50.67383,12 c -13.683067,0 -14.560549,7.791042 -14.560549,9 h 6.810549 c 0,0 0.35809,-5 7.28125,-5 4.49877,0 7.31474,2.46686 7.79492,6.435547 V 95 h -7.79492 C 102.60462,95 97,97.989177 97,104.34375 97,110.59755 102.17835,114 109.17578,114 c 9.5364,0 12.74414,-5.32031 12.74414,-5.32031 0,2.11642 0.16016,4.20117 0.16016,4.20117 H 128 c 0,0 -0.23437,-2.58435 -0.23438,-4.23828 V 94.345703 c 0,-1.935034 -0.32409,-3.550376 -0.88867,-4.902344 L 139.25,112.84961 133.41602,124 h 7.36523 L 161,84 h -7.02148 L 142.87695,106.46875 131.75195,84 H 124 l 2.07227,3.917969 C 123.48632,83.995231 118.35817,83 113.67383,83 Z M 46.738281,87 C 52.245982,87 56,90.601742 56,96 H 37 c 0,-5.730911 4.901751,-9 9.738281,-9 z M 80,87 c 6.11288,0 10,4.870335 10,11.40625 C 90,105.41484 85.50987,110 80.042969,110 73.518702,110 70,104.53121 70,98.46875 70,92.819724 73.158004,87 80,87 Z m 41,12 v 1.80273 C 121,103.15409 119.52043,109 110.8125,109 106.04406,109 104,106.66483 104,103.95703 104,99.031008 110.88499,99 121,99 Z"/>
  <path style="fill:#f59c02" d="m 113.67383,81 c -13.683065,0 -14.560549,7.791042 -14.560549,9 h 6.810549 c 0,0 0.35809,-5 7.28125,-5 4.49877,0 7.31474,2.46686 7.79492,6.435547 V 93 h -7.79492 C 102.60462,93 97,95.989177 97,102.34375 97,108.59755 102.17835,112 109.17578,112 c 9.5364,0 12.74414,-5.32031 12.74414,-5.32031 0,2.11642 0.16016,4.20117 0.16016,4.20117 H 128 c 0,0 -0.23438,-2.58435 -0.23438,-4.23828 V 92.345703 C 127.76562,82.972197 120.2774,81 113.67383,81 Z M 121,97 v 1.802734 C 121,101.15409 119.52043,107 110.8125,107 106.04406,107 104,104.66483 104,101.95703 104,97.031007 110.88499,97 121,97 Z"/>
  <path style="fill:#006fea" d="m 63,69 v 42 h 6.476562 c 0,0 0.234376,-2.1668 0.234376,-4.09766 0,0 3.198511,5.09766 11.90039,5.09766 C 90.774758,112 97,105.52165 97,96.240234 97,87.605875 91.282674,81 81.626953,81 72.585053,81 70,85.632812 70,85.632812 V 69 Z m 17,16 c 6.11288,0 10,4.870335 10,11.40625 C 90,103.41484 85.50987,108 80.042969,108 73.518702,108 70,102.53121 70,96.46875 70,90.819724 73.158004,85 80,85 Z"/>
  <path style="fill:#e74348" d="M 46.978516,81 C 37.717475,81 30,84.917828 30,96.738281 30,106.10268 35.188677,112 47.216797,112 c 14.15766,0 15.066406,-9 15.066406,-9 h -6.861328 c 0,0 -1.470259,5 -8.623047,5 -5.825751,0 -10.015625,-4.49931 -10.015625,-10 H 63 V 94.830078 C 63,89.388156 59.535939,81 46.978516,81 Z m -0.240235,4 C 52.245982,85 56,88.601742 56,94 H 37 c 0,-5.730911 4.901751,-9 9.738281,-9 z"/>
  <path style="fill:#7fb013" d="m 124,82 h 7.75218 L 142.87763,104.46793 153.97764,82 H 161 l -20.21846,40 h -7.36606 l 5.83429,-11.15055 z"/>
  <path style="opacity:0.2;fill:#ffffff;stop-color:#000000" d="M 36,16 C 24.92,16 16,24.92 16,36 v 1 C 16,25.92 24.92,17 36,17 h 120 c 11.08,0 20,8.92 20,20 v -1 c 0,-11.08 -8.92,-20 -20,-20 z"/>
</svg>
