<?xml version='1.0' encoding='utf-8'?>
<svg xmlns="http://www.w3.org/2000/svg" width="192" height="192" version="1" id="svg28">
  <defs>
    <filter style="color-interpolation-filters:sRGB" id="filter901" x="0.05" width="1.10" y="0.05" height="1.10">
      <feGaussianBlur stdDeviation="3.20"/>
    </filter>
    <filter style="color-interpolation-filters:sRGB" id="filter3693" x="0.05" y="0.05" width="1.09" height="1.10">
      <feGaussianBlur stdDeviation="1.84"/>
    </filter>
  </defs>
  <rect style="filter:url(#filter901);opacity:0.20;fill:#000000" width="160" height="160" x="-180" y="-176" rx="12" ry="12" transform="matrix(0,-1,-1,0,0,0)"/>
  <rect transform="matrix(0,-1,-1,0,0,0)" ry="12" rx="12" y="-176" x="-176" height="160" width="160" style="fill:#478bf9"/>
  <path style="opacity:0.20;fill:#ffffff" d="m 28,16 c -6.65,0 -12,5.35 -12,12 v 1 c 0,-6.65 5.35,-12 12,-12 h 136 c 6.65,0 12,5.35 12,12 v -1 c 0,-6.65 -5.35,-12 -12,-12 z"/>
  <path style="filter:url(#filter3693);opacity:0.20;fill:#000000;color:#000000" d="m 97.06,51 a 5.00,5.00 0 0 0 -3.55,1.43 l -45,44 a 5,5 0 0 0 0.08,7.07 5,5 0 0 0 7.07,0.08 L 96.92,63.07 136.42,103.49 a 5,5 0 0 0 7.07,0.08 5,5 0 0 0 0.08,-7.07 l -17.59,-18 A 5,5 0 0 0 126,78.35 V 63 a 5,5 0 0 0 -5,-5 5,5 0 0 0 -5,5 v 5.29 L 100.58,52.51 A 5.00,5.00 0 0 0 97.06,51 Z M 68,100 a 5,5 0 0 0 -5,5 v 27 a 5.00,5.00 0 0 0 5,5 h 56 a 5.00,5.00 0 0 0 5,-5 v -27 a 5,5 0 0 0 -5,-5 5,5 0 0 0 -5,5 v 22 H 73 v -22 a 5,5 0 0 0 -5,-5 z"/>
  <path style="fill:#ffffff;color:#000000" d="m 97.06,49 a 5.00,5.00 0 0 0 -3.55,1.43 l -45,44 a 5,5 0 0 0 0.08,7.07 5,5 0 0 0 7.07,0.08 L 96.92,61.07 136.42,101.49 a 5,5 0 0 0 7.07,0.08 5,5 0 0 0 0.08,-7.07 l -17.59,-18 A 5,5 0 0 0 126,76.35 V 61 a 5,5 0 0 0 -5,-5 5,5 0 0 0 -5,5 v 5.29 L 100.58,50.51 A 5.00,5.00 0 0 0 97.06,49 Z M 68,98 a 5,5 0 0 0 -5,5 v 27 a 5.00,5.00 0 0 0 5,5 h 56 a 5.00,5.00 0 0 0 5,-5 v -27 a 5,5 0 0 0 -5,-5 5,5 0 0 0 -5,5 v 22 H 73 v -22 a 5,5 0 0 0 -5,-5 z"/>
</svg>
