<?xml version='1.0' encoding='utf-8'?>
<svg xmlns="http://www.w3.org/2000/svg" width="192" height="192" version="1" id="svg16">
  <defs>
    <filter style="color-interpolation-filters:sRGB" id="filter971" x="0.05" y="0.05" width="1.10" height="1.10">
      <feGaussianBlur stdDeviation="3.20"/>
    </filter>
    <filter style="color-interpolation-filters:sRGB" id="filter3394" x="0.05" y="0.05" width="1.09" height="1.10">
      <feGaussianBlur stdDeviation="1.63"/>
    </filter>
    <filter style="color-interpolation-filters:sRGB" id="filter3398" x="0.03" y="0.08" width="1.07" height="1.17">
      <feGaussianBlur stdDeviation="1.27"/>
    </filter>
  </defs>
  <rect style="filter:url(#filter971);opacity:0.20;fill:#000000" width="160" height="160" x="16" y="20" rx="80" ry="80"/>
  <circle style="fill:#239df8;stop-color:#000000" cx="96" cy="96" r="80"/>
  <path style="opacity:0.20;fill:#ffffff" d="M 96.00,16 C 51.68,16.00 16,51.68 16,96 c 0,0.17 0.01,0.34 0.01,0.52 C 16.27,52.42 51.84,17.00 96.00,17 H 96 c 44.16,0.00 79.73,35.42 79.99,79.52 0.00,0.17 0.01,0.34 0.01,0.52 0,-44.32 -35.68,-80.00 -80.00,-80 z"/>
  <path style="filter:url(#filter3394);opacity:0.20;fill:#000000" d="m 68.77,53.00 c 0.84,0.01 -1.68,0.06 -2.53,0.16 -5.09,0.62 -8.95,2.45 -12.48,5.91 -2.54,2.49 -3.95,4.67 -5.16,8.00 C 47.29,70.68 47,72.39 47,76.37 47,85.05 50.35,93.11 57.33,101.23 61.37,105.26 87.61,130.06 90.00,130 92.39,130.06 118.63,105.26 122.67,101.23 129.65,93.11 133,85.05 133,76.37 c 0.00,-3.98 0.29,-5.68 -1.61,-9.30 -1.21,-3.33 -2.62,-5.51 -5.16,-8.00 -3.53,-3.46 -7.38,-5.28 -12.48,-5.91 -6.74,0.82 -13.53,1.50 -18.37,6.28 -1.80,1.78 -4.20,5.17 -4.73,6.67 0.20,0.56 0.34,0.86 0.65,0.86 0.32,0.00 0.46,0.30 0.65,0.86 0.53,-1.51 -2.93,-4.89 -4.73,-6.67 -4.24,-4.19 -9.97,-6.49 -15.85,-6.45 z"/>
  <path style="fill:#e23d3d" d="m 68.77,51.00 c 0.84,0.01 -1.68,0.06 -2.53,0.16 -5.09,0.62 -8.95,2.45 -12.48,5.91 -2.54,2.49 -3.95,4.67 -5.16,8.00 C 47.29,68.68 47,70.39 47,74.37 47,83.05 50.35,91.11 57.33,99.23 61.37,103.26 87.61,128.06 90.00,128 92.39,128.06 118.63,103.26 122.67,99.23 129.65,91.11 133,83.05 133,74.37 c 0.00,-3.98 0.29,-5.68 -1.61,-9.30 -1.21,-3.33 -2.62,-5.51 -5.16,-8.00 -3.53,-3.46 -7.38,-5.28 -12.48,-5.91 -6.74,0.82 -13.53,1.50 -18.37,6.28 -1.80,1.78 -4.20,5.17 -4.73,6.67 0.20,0.56 0.34,0.86 0.65,0.86 0.32,0.00 0.46,0.30 0.65,0.86 0.53,-1.51 -2.93,-4.89 -4.73,-6.67 -4.24,-4.19 -9.97,-6.49 -15.85,-6.45 z"/>
  <path style="filter:url(#filter3398);opacity:0.20;fill:#000000" d="m 102.17,142.05 c 5.10,-1.33 7.80,-2.50 21.28,-9.25 13.06,-6.53 19.44,-9.53 20.23,-9.53 0.24,0 0.68,0.27 0.97,0.60 0.52,0.58 0.51,0.64 0.42,-1.90 -1.59,-2.15 -5.54,-6.00 -8.16,-7.95 -2.85,-2.12 -7.65,-4.48 -10.74,-5.27 -1.51,0.39 -3.28,0.55 -5.98,0.55 -3.42,0.00 -4.21,0.11 -7.34,1.00 -1.93,0.55 -4.76,1.55 -6.29,2.22 -2.28,0.99 -8.62,4.31 -11.38,5.94 0.83,0.49 -3.59,1.59 -5.18,2.26 0.72,0.30 -2.44,0.77 -3.84,1.03 -2.76,0.51 -3.91,1.15 -4.36,2.40 0.39,1.10 0.48,2.25 2.46,3.23 1.36,0.68 1.90,0.90 5.35,0.91 4.16,0.01 5.86,0.41 11.66,-2.63 2.84,-1.09 3.57,-1.12 3.57,0.14 0,0.75 0.34,1.01 -2.94,2.29 -4.46,2.19 -11.17,3.44 -16.85,3.14 -3.89,0.20 -7.92,-1.00 -18.87,-3.74 -4.30,-1.07 -8.31,-1.95 -8.91,-1.95 C 55.09,122.97 54,123.70 54,124.61 c 0,4.49 20.56,15.56 33.44,18.01 3.62,0.69 11.01,0.40 14.73,0.57 z"/>
  <path style="fill:#ffffff" d="m 102.17,140.05 c 5.10,-1.33 7.80,-2.50 21.28,-9.25 13.06,-6.53 19.44,-9.53 20.23,-9.53 0.24,0 0.68,0.27 0.97,0.60 0.52,0.58 0.51,0.64 0.42,-1.90 -1.59,-2.15 -5.54,-6.00 -8.16,-7.95 -2.85,-2.12 -7.65,-4.48 -10.74,-5.27 -1.51,0.39 -3.28,0.55 -5.98,0.55 -3.42,0.00 -4.21,0.11 -7.34,1.00 -1.93,0.55 -4.76,1.55 -6.29,2.22 -2.28,0.99 -8.62,4.31 -11.38,5.94 0.83,0.49 -3.59,1.59 -5.18,2.26 0.72,0.30 -2.44,0.77 -3.84,1.03 -2.76,0.51 -3.91,1.15 -4.36,2.40 0.39,1.10 0.48,2.25 2.46,3.23 1.36,0.68 1.90,0.90 5.35,0.91 4.16,0.01 5.86,0.41 11.66,-2.63 2.84,-1.09 3.57,-1.12 3.57,0.14 0,0.75 0.34,1.01 -2.94,2.29 -4.46,2.19 -11.17,3.44 -16.85,3.14 -3.89,0.20 -7.92,-1.00 -18.87,-3.74 -4.30,-1.07 -8.31,-1.95 -8.91,-1.95 C 55.09,120.97 54,121.70 54,122.61 c 0,4.49 20.56,15.56 33.44,18.01 3.62,0.69 11.01,0.40 14.73,0.57 z"/>
</svg>
