<?xml version='1.0' encoding='utf-8'?>
<svg xmlns="http://www.w3.org/2000/svg" width="192" height="192" version="1" id="svg14">
  <defs>
    <filter style="color-interpolation-filters:sRGB" id="filter850" x="0.05" width="1.10" y="0.05" height="1.10">
      <feGaussianBlur stdDeviation="3.20"/>
    </filter>
    <filter style="color-interpolation-filters:sRGB" id="filter4185" x="0.05" y="0.11" width="1.10" height="1.21">
      <feGaussianBlur stdDeviation="3.20"/>
    </filter>
  </defs>
  <circle style="filter:url(#filter850);opacity:0.20;fill:#000000" cx="96" cy="100" r="80"/>
  <circle r="80" cy="96" cx="96" style="fill:#1071ff"/>
  <path style="opacity:0.20;fill:#ffffff" d="M 96,16 A 80,80 0 0 0 16,96 80,80 0 0 0 16.02,96.47 80,80 0 0 1 96,17 80,80 0 0 1 175.97,96.51 80,80 0 0 0 176,96 80,80 0 0 0 96,16 Z"/>
  <path style="fill:#f92463" d="M 122.07 77.29 L 96.38 84.90 L 86.13 175.29 A 80 80 0 0 0 96 176 A 80 80 0 0 0 169.12 128.29 L 122.07 77.29 z "/>
  <path style="filter:url(#filter4185);opacity:0.20;fill:#000000" d="m 167.12,61.41 c -1.15,1.11 -1.63,2.75 -1.23,4.32 l 3.80,14.21 -27.92,-11.85 c 0.97,0.42 -2.01,0.47 -1.73,1.49 l 7.86,29.03 c 0.51,2.04 2.37,3.45 4.47,3.39 2.82,0.13 4.79,-2.83 4.06,-5.55 l -3.84,-14.33 23.16,10.08 A 80,80 0 0 0 167.12,61.41 Z M 117.17,75.00 c -2.93,0.02 -5.99,0.42 -9.07,1.24 -14.10,3.77 -23.34,15.01 -20.63,25.09 2.71,10.08 16.33,15.20 30.43,11.43 14.10,-3.77 23.34,-15.01 20.63,-25.09 -2.03,-7.56 -10.20,-12.33 -20.11,-12.65 0.41,0.01 0.83,0.02 -1.25,0.02 z m 0.17,9 c 6.53,0.01 11.58,2.63 12.50,6.02 1.22,4.52 -4.62,11.49 -14.25,14.06 -9.64,2.56 -18.21,0.58 -19.43,-5.10 -1.22,-4.52 4.62,-11.49 14.25,-14.06 2.41,0.64 4.75,0.93 6.93,0.92 z m -37.65,0.00 a 1.29,1.28 0 0 0 0.40,0.04 l -26.98,7.21 a 4.47,4.45 0 0 0 -2.82,6.32 c 0.95,1.92 3.22,2.79 5.29,2.24 L 66.78,96.61 54.72,126.25 a 1.28,1.27 0 0 0 1.51,1.71 l 29.30,-7.83 c 2.07,0.55 3.60,-2.45 3.46,-4.58 a 4.47,4.45 0 0 0 -5.60,-4.07 l -14.63,3.91 12.05,-29.62 A 1.29,1.28 0 0 0 79.69,84.00 Z M 28.38,98.00 c -2.56,0.06 -4.99,1.12 -6.91,2.40 -1.93,1.30 -3.61,2.95 -4.96,4.88 0.89,9.87 3.62,19.49 8.02,28.37 13.73,2.71 25.54,-9.94 21.88,-23.47 -2.50,-6.59 -8.46,-11.24 -15.46,-12.05 0.85,0.10 -1.71,0.14 -2.57,0.12 z m 0.40,9.00 c 0.23,0.01 0.46,0.00 0.70,0.01 4.83,0.23 8.80,3.88 9.44,8.68 0.60,4.48 -1.89,8.80 -6.06,10.54 -5.65,2.35 -12.07,0.88 -13.55,-6.82 -1.48,-5.94 2.69,-11.80 8.78,-12.37 0.23,0.02 0.46,0.03 0.70,0.04 z"/>
  <path style="fill:#ffffff" d="M 167.12 59.41 C 165.97 60.53 165.49 62.17 165.89 63.73 L 169.70 77.93 L 141.77 66.08 C 140.80 65.66 139.77 66.55 140.04 67.58 L 147.90 96.61 C 148.42 98.65 150.28 100.06 152.38 100.00 C 155.20 99.87 157.17 97.17 156.44 94.44 L 152.60 80.12 L 175.77 90.19 A 80 80 0 0 0 167.12 59.41 z M 117.17 73 C 114.24 73.02 111.18 73.42 108.10 74.24 C 94.00 78.01 84.76 89.25 87.47 99.33 C 90.18 109.41 103.80 114.53 117.90 110.76 C 132.00 106.99 141.24 95.75 138.53 85.67 C 136.50 78.11 128.33 73.34 118.42 73.02 C 118.01 73.00 117.59 73.00 117.17 73 z M 117.34 82 C 123.88 82.01 128.92 84.63 129.84 88.02 C 131.06 92.54 125.22 99.52 115.59 102.08 C 105.95 104.64 97.38 101.50 96.16 96.98 C 94.94 92.46 100.78 85.49 110.41 82.92 C 112.82 82.28 115.17 82.00 117.34 82 z M 79.69 82.00 A 1.29 1.28 0 0 0 79.29 82.04 L 52.30 89.25 A 4.47 4.45 0 0 0 49.48 95.57 C 50.43 97.49 52.70 98.36 54.77 97.81 L 66.78 94.61 L 54.72 124.25 A 1.28 1.27 0 0 0 56.23 125.96 L 85.54 118.13 C 87.60 117.58 89.13 115.68 88.99 113.55 A 4.47 4.45 0 0 0 83.39 109.48 L 68.76 113.39 L 80.81 83.77 A 1.29 1.28 0 0 0 79.69 82.00 z M 28.38 96.00 C 25.83 95.94 23.39 97.13 21.48 98.40 C 19.55 99.70 17.86 101.35 16.52 103.28 C 17.41 113.15 20.13 122.76 24.54 131.64 C 38.27 134.35 50.09 121.70 46.42 108.17 C 43.92 101.58 37.96 96.94 30.96 96.12 C 30.10 96.03 29.24 95.99 28.38 96.00 z M 28.78 105.00 C 29.01 105.00 29.24 105.00 29.47 105.01 C 34.30 105.24 38.28 108.89 38.91 113.69 C 39.51 118.17 37.02 122.49 32.85 124.23 C 27.20 126.58 20.78 123.35 19.30 117.41 C 17.83 111.47 21.99 105.61 28.08 105.04 C 28.32 105.02 28.55 105.01 28.78 105.00 z "/>
</svg>
