<?xml version='1.0' encoding='utf-8'?>
<svg xmlns="http://www.w3.org/2000/svg" width="192" height="192" version="1.1" id="svg44">
  <defs>
    <filter style="color-interpolation-filters:sRGB" id="filter974" x="0.05" width="1.10" y="0.05" height="1.10">
      <feGaussianBlur stdDeviation="3.20"/>
    </filter>
    <filter style="color-interpolation-filters:sRGB" id="filter990" x="0.02" width="1.05" y="0.98" height="2.97">
      <feGaussianBlur stdDeviation="1.64"/>
    </filter>
    <filter style="color-interpolation-filters:sRGB" id="filter1006" x="0.04" width="1.09" y="0.05" height="1.11">
      <feGaussianBlur stdDeviation="2.48"/>
    </filter>
  </defs>
  <rect transform="matrix(0,-1,-1,0,0,0)" ry="8" rx="8" y="-176" x="-180" height="160" width="160" style="filter:url(#filter974);opacity:0.20"/>
  <path d="m 16,151.60 v 12.40 3.43 c 0,4.75 3.57,8.57 8,8.57 h 144 c 4.43,0 8,-3.82 8,-8.57 V 164.00 151.60 Z" style="fill:#3f3f3f"/>
  <rect y="164.01" x="24" height="12" width="24" style="fill:#009072"/>
  <rect y="164.01" x="64" height="12" width="24" style="fill:#009072"/>
  <rect y="164.01" x="104" height="12" width="24" style="fill:#009072"/>
  <rect y="164.01" x="144" height="12" width="24" style="fill:#009072"/>
  <rect y="150" x="16" height="4" width="160" style="filter:url(#filter990);opacity:0.20"/>
  <path d="m 24,16 c -4.43,0 -8,3.57 -8,8 V 152 H 176 V 24 c 0,-4.43 -3.57,-8 -8,-8 z" style="fill:#4551ff"/>
  <path d="M 28,30 V 46 H 76 V 30 Z m 88,0 v 16 h 48 V 30 Z M 28,62 V 78 H 76 V 62 Z m 88,0 v 16 h 48 V 62 Z M 28,94 v 16 H 76 V 94 Z m 88,0 v 16 h 48 V 94 Z m -88,32 v 16 h 48 v -16 z m 88,0 v 16 h 48 v -16 z" style="filter:url(#filter1006);opacity:0.20"/>
  <rect y="16.01" x="88" height="136" width="16" style="fill:#07e9ff"/>
  <rect y="28.01" x="28" height="16" width="48" style="fill:#ffff00"/>
  <path style="opacity:0.10;fill:#ffffff" d="M 24 16 C 19.57 16 16 19.57 16 24 L 16 25 C 16 20.57 19.57 17 24 17 L 168 17 C 172.43 17 176 20.57 176 25 L 176 24 C 176 19.57 172.43 16 168 16 L 24 16 z "/>
  <rect transform="rotate(90)" y="-76" x="60.01" height="48" width="16" style="fill:#07e9ff"/>
  <rect transform="rotate(90)" y="-76" x="92.01" height="48" width="16" style="fill:#07e9ff"/>
  <rect transform="rotate(90)" y="-76" x="124.01" height="48" width="16" style="fill:#07e9ff"/>
  <rect y="28.01" x="116" height="16" width="48" style="fill:#ffff00"/>
  <rect transform="rotate(90)" y="-164" x="60.01" height="48" width="16" style="fill:#07e9ff"/>
  <rect transform="rotate(90)" y="-164" x="92.01" height="48" width="16" style="fill:#07e9ff"/>
  <path style="opacity:0.20;fill:#ffffff" d="M 28 28 L 28 29 L 76 29 L 76 28 L 28 28 z M 116 28 L 116 29 L 164 29 L 164 28 L 116 28 z M 28 60 L 28 61 L 76 61 L 76 60 L 28 60 z M 116 60 L 116 61 L 164 61 L 164 60 L 116 60 z M 28 92 L 28 93 L 76 93 L 76 92 L 28 92 z M 116 92 L 116 93 L 164 93 L 164 92 L 116 92 z M 28 124 L 28 125 L 76 125 L 76 124 L 28 124 z M 116 124 L 116 125 L 164 125 L 164 124 L 116 124 z "/>
  <rect transform="rotate(90)" y="-164" x="124.01" height="48" width="16" style="fill:#07e9ff"/>
</svg>
