<?xml version='1.0' encoding='utf-8'?>
<svg xmlns="http://www.w3.org/2000/svg" width="192" height="192" version="1" id="svg14">
  <defs>
    <filter style="color-interpolation-filters:sRGB" id="filter849" x="-0.048000001" y="-0.048000001" width="1.096" height="1.096">
      <feGaussianBlur stdDeviation="3.2"/>
    </filter>
    <filter style="color-interpolation-filters:sRGB" id="filter853" x="-0.051004553" y="-0.045337255" width="1.1020091" height="1.0906745">
      <feGaussianBlur stdDeviation="2.0401822"/>
    </filter>
  </defs>
  <rect style="filter:url(#filter849);opacity:0.2" width="160" height="160" x="16" y="20" rx="80" ry="80"/>
  <rect style="fill:#5068f0" width="160" height="160" x="16" y="16" rx="80" ry="80"/>
  <path style="opacity:0.1;fill:#ffffff" d="M 96 16 C 51.68 16 16 51.68 16 96 C 16 96.173773 16.008399 96.344911 16.011719 96.517578 C 16.270957 52.42262 51.84182 17 96 17 C 140.15818 17 175.72904 52.42262 175.98828 96.517578 C 175.9916 96.344911 176 96.173773 176 96 C 176 51.68 140.32 16 96 16 z "/>
  <path style="filter:url(#filter853);opacity:0.2" d="m 96,49.999705 a 48,48 0 0 0 -48,48 48,48 0 0 0 20,38.914065 v 5.07813 13.60156 a 2.0322014,2.400229 0 0 0 3.046876,2.08594 l 9.968748,-6.80469 7.968752,-5.42969 A 48,48 0 0 0 96,145.99971 a 48,48 0 0 0 48,-48.000005 48,48 0 0 0 -48,-48 z m -24,48 h 48 c 0,13.254835 -10.74517,24.000005 -24,24.000005 -13.254832,0 -24,-10.74517 -24,-24.000005 z"/>
  <path style="fill:#ffffff" d="M 96,48 A 48,48 0 0 0 48,96 48,48 0 0 0 96,144 48,48 0 0 0 144,96 48,48 0 0 0 96,48 Z M 72,96 h 48 c 0,13.25483 -10.74517,24 -24,24 -13.254832,0 -24,-10.74517 -24,-24 z"/>
  <path style="fill:#ffffff" d="M 70.079624,124.00066 A 2.0322014,2.400229 0 0 0 68,126.40064 v 13.5937 13.60306 a 2.0322014,2.400229 0 0 0 3.047996,2.08124 l 9.969492,-6.80622 9.969492,-6.79684 a 2.0322014,2.400229 0 0 0 0,-4.15311 l -9.969492,-6.79684 -9.969492,-6.80622 a 2.0322014,2.400229 0 0 0 -0.968372,-0.31876 z"/>
</svg>
