<?xml version='1.0' encoding='utf-8'?>
<svg xmlns="http://www.w3.org/2000/svg" width="192" height="192" version="1" id="svg18">
  <defs>
    <filter style="color-interpolation-filters:sRGB" id="filter905" x="0.11" width="1.22" y="0.11" height="1.22">
      <feGaussianBlur stdDeviation="2.16"/>
    </filter>
    <filter style="color-interpolation-filters:sRGB" id="filter925" x="0.05" width="1.11" y="0.04" height="1.09">
      <feGaussianBlur stdDeviation="2.88"/>
    </filter>
    <filter style="color-interpolation-filters:sRGB" id="filter23259" x="0.09" y="0.14" width="1.18" height="1.28">
      <feGaussianBlur stdDeviation="3.04"/>
    </filter>
  </defs>
  <path d="m 40,20 c -4.43,0 -8,3.57 -8,8 v 144 c 0,4.43 3.57,8 8,8 h 112 c 4.43,0 8,-3.57 8,-8 V 68 l -44,-4 -4,-44 z" style="filter:url(#filter925);opacity:0.20"/>
  <path d="m 40,16 c -4.43,0 -8,3.57 -8,8 v 144 c 0,4.43 3.57,8 8,8 h 112 c 4.43,0 8,-3.57 8,-8 V 64 l -44,-4 -4,-44 z" style="fill:#d12d4a"/>
  <path style="filter:url(#filter23259);opacity:0.20;fill:#000000" d="m 60,60 a 5,5 0 0 0 -5,5 5,5 0 0 0 5,5 h 32 a 5,5 0 0 0 5,-5 5,5 0 0 0 -5,-5 z m -5,24 v 29 h 8 v -10 h 4.48 c 3.71,0 6.55,0.88 8.53,-2.51 C 78.00,98.85 79,96.50 79,93.46 79,90.43 78.00,88.10 76.01,86.47 74.03,84.82 71.19,84 67.48,84 Z m 29,0 v 29 h 7.80 c 4.30,0 7.53,0.31 9.69,0.93 2.15,0.63 4.00,-1.70 5.53,-3.21 1.35,-1.31 2.34,-2.82 3.00,-4.53 0.65,-1.72 0.98,-3.68 0.98,-5.87 0,-2.16 0.33,-4.10 0.98,-5.81 0.65,-1.71 -1.65,-3.22 -3.00,-4.53 -1.52,-1.50 -3.36,-2.56 -5.50,-3.19 C 99.40,84.32 96.16,84 91.80,84 Z m 33,0 v 29 h 8 v -12 h 11 v -6 h -11 v -5 h 12 v -6 z m -54,5 h 4.29 c 1.50,0 2.66,0.39 3.48,1.17 C 71.59,90.94 72,92.05 72,93.49 c 0,1.44 0.41,2.55 -1.23,3.35 C 69.95,97.61 68.79,98 67.29,98 H 63 Z m 29,0 h 1.66 c 3.04,0 5.36,0.81 6.95,2.42 1.59,1.61 2.39,3.96 2.39,7.05 0,3.10 0.80,5.47 -2.41,7.09 C 99.00,107.19 96.69,108 93.66,108 H 92 Z"/>
  <path style="fill:#ffffff" d="m 84,82 v 29 h 7.80 c 4.30,0 7.53,0.31 9.69,0.93 2.15,0.63 4.00,-1.70 5.53,-3.21 1.35,-1.31 2.34,-2.82 3.00,-4.53 C 110.67,100.61 111,98.66 111,96.47 c 0,-2.16 0.33,-4.10 0.98,-5.81 0.65,-1.71 -1.65,-3.22 -3.00,-4.53 -1.52,-1.50 -3.36,-2.56 -5.50,-3.19 C 99.40,82.32 96.16,82 91.80,82 Z m 8,5 h 1.66 c 3.04,0 5.36,0.81 6.95,2.42 1.59,1.61 2.39,3.96 2.39,7.05 0,3.10 0.80,5.47 -2.41,7.09 C 99.00,105.19 96.69,106 93.66,106 H 92 Z"/>
  <path style="opacity:0.10;fill:#ffffff" d="M 40 16 C 35.57 16 32 19.57 32 24 L 32 25 C 32 20.57 35.57 17 40 17 L 112 17 L 159 64 L 160 64 L 112 16 L 40 16 z "/>
  <path d="m 112,18 v 40 c 0,4.42 3.58,8 8,8 h 40 z" style="filter:url(#filter905);opacity:0.15"/>
  <path d="m 112,16 v 40 c 0,4.42 3.58,8 8,8 h 40 z" style="fill:#e44c6c"/>
  <path style="fill:#ffffff" d="M 55 82 L 55 111 L 63 111 L 63 101 L 67.48 101 C 71.19 101 74.03 100.12 76.01 98.49 C 78.00 96.85 79 94.50 79 91.46 C 79 88.43 78.00 86.10 76.01 84.47 C 74.03 82.82 71.19 82 67.48 82 L 55 82 z M 63 87 L 67.29 87 C 68.79 87 69.95 87.39 70.77 88.17 C 71.59 88.94 72 90.05 72 91.49 C 72 92.93 71.59 94.04 70.77 94.83 C 69.95 95.61 68.79 96 67.29 96 L 63 96 L 63 87 z "/>
  <path d="m 117,82 h 20 v 6 h -12 v 5 h 11 v 6 h -11 v 12 h -8 z" style="fill:#ffffff"/>
  <path style="fill:#e44c6c;color:#000000" d="m 60,58 a 5,5 0 0 0 -5,5 5,5 0 0 0 5,5 h 32 a 5,5 0 0 0 5,-5 5,5 0 0 0 -5,-5 z"/>
</svg>
