<?xml version='1.0' encoding='utf-8'?>
<svg xmlns="http://www.w3.org/2000/svg" width="192" height="192" version="1" id="svg28">
  <defs>
    <filter style="color-interpolation-filters:sRGB" id="filter2906" x="0.04" y="0.05" width="1.09" height="1.11">
      <feGaussianBlur stdDeviation="2.97"/>
    </filter>
    <filter style="color-interpolation-filters:sRGB" id="filter2948" x="0.04" y="0.06" width="1.08" height="1.12">
      <feGaussianBlur stdDeviation="2.29"/>
    </filter>
  </defs>
  <path style="filter:url(#filter2906);opacity:0.20;fill:#000000;color:#000000" d="m 96.50,35 c -3.90,0 -8.00,2.07 -11.00,3.38 l -43.73,19.47 c 0,0 -17.55,7.21 -22.75,11.30 C 15.38,72.05 13.08,76.49 13,81.40 v 37.98 c 0.00,6.35 3.75,12.10 9.56,14.66 l 63,27.73 C 89.03,163.22 92.74,165 96.50,165 c 3.76,0 7.47,-1.78 10.94,-3.22 l 63,-27.73 c 5.81,-2.56 9.56,-8.31 9.56,-14.66 V 81.40 c 0.08,-4.91 -2.38,-9.35 -6.01,-12.25 -5.20,-4.09 -22.75,-11.30 -22.75,-11.30 L 107.50,38.38 C 104.50,37.07 100.40,35 96.50,35 Z"/>
  <path style="fill:#00bcd4;color:#000000" d="M 96.50 31 C 92.60 31 88.50 33.07 85.50 34.38 L 41.76 53.85 C 41.76 53.85 24.22 61.06 19.01 65.15 C 15.38 68.05 13.08 72.49 13 77.40 L 13 115.38 C 13.00 121.73 16.75 127.49 22.56 130.04 L 85.56 157.78 C 89.03 159.22 92.74 161 96.50 161 C 100.26 161 103.97 159.22 107.44 157.78 L 170.44 130.04 C 176.25 127.49 180.00 121.73 180 115.38 L 180 77.40 C 179.92 72.49 177.62 68.05 173.99 65.15 C 168.78 61.06 151.24 53.85 151.24 53.85 L 107.50 34.38 C 104.50 33.07 100.40 31 96.50 31 z "/>
  <path style="filter:url(#filter2948);opacity:0.20;fill:#000000" d="M 92,51 35,76.35 76.35,94.53 92,87.44 Z m 9,0 V 87.44 L 116.65,94.53 158,76.35 Z M 29,79.36 V 117.30 L 92,145 v -37.94 z m 135,0 -63,27.70 V 145 l 63,-27.70 z"/>
  <path style="fill:#ccf2f6" d="M 164,77.36 101,105.06 V 143 l 63,-27.70 z"/>
  <path style="fill:#ffffff" d="M 29,77.36 V 115.30 L 92,143 v -37.94 z"/>
  <path style="fill:#99e4ee" d="M 101,49 V 85.44 L 116.65,92.53 158,74.35 Z"/>
  <path style="fill:#66d7e5" d="M 92,49 35,74.35 76.35,92.53 92,85.44 Z"/>
  <path style="opacity:0.20;fill:#ffffff;color:#000000" d="M 96.50 31 C 92.60 31 88.50 33.07 85.50 34.38 L 41.76 53.85 C 41.76 53.85 24.22 61.06 19.01 65.15 C 15.38 68.05 13.08 72.49 13 77.40 L 13 78.40 C 13.08 73.49 15.38 69.05 19.01 66.15 C 24.22 62.06 41.76 54.85 41.76 54.85 L 85.50 35.38 C 88.50 34.07 92.60 32 96.50 32 C 100.40 32 104.50 34.07 107.50 35.38 L 151.24 54.85 C 151.24 54.85 168.78 62.06 173.99 66.15 C 177.62 69.05 179.92 73.49 180 78.40 L 180 77.40 C 179.92 72.49 177.62 68.05 173.99 65.15 C 168.78 61.06 151.24 53.85 151.24 53.85 L 107.50 34.38 C 104.50 33.07 100.40 31 96.50 31 z "/>
</svg>
