<?xml version='1.0' encoding='utf-8'?>
<svg xmlns="http://www.w3.org/2000/svg" width="192" height="192" version="1" id="svg14">
  <defs>
    <filter style="color-interpolation-filters:sRGB" id="filter853" x="0.05" width="1.10" y="0.05" height="1.10">
      <feGaussianBlur stdDeviation="3.20"/>
    </filter>
    <filter style="color-interpolation-filters:sRGB" id="filter887" x="0.05" width="1.11" y="0.04" height="1.09">
      <feGaussianBlur stdDeviation="2.00"/>
    </filter>
  </defs>
  <path d="m 68.17,20.00 a 12.00,12.00 0 0 0 -8.49,3.48 L 19.76,63.10 a 12.00,12.00 0 0 0 -3.55,8.48 L 16,127.83 a 12.00,12.00 0 0 0 3.48,8.49 l 39.63,39.93 a 12.00,12.00 0 0 0 8.47,3.55 l 56.25,0.20 a 12.00,12.00 0 0 0 8.50,-3.48 l 39.91,-39.62 a 12.00,12.00 0 0 0 3.55,-8.47 L 176,72.17 a 12.00,12.00 0 0 0 -3.48,-8.50 l -39.62,-39.91 a 12.00,12.00 0 0 0 -3.97,-2.65 12.00,12.00 0 0 0 -4.50,0.90 z" style="filter:url(#filter853);opacity:0.20"/>
  <path d="m 68.17,16 a 12.00,12.00 0 0 0 -8.49,3.48 L 19.76,59.10 a 12.00,12.00 0 0 0 -3.55,8.48 L 16,123.83 a 12.00,12.00 0 0 0 3.48,8.49 L 59.11,172.25 a 12.00,12.00 0 0 0 8.47,3.55 L 123.83,176 a 12.00,12.00 0 0 0 8.50,-3.48 l 39.91,-39.62 a 12.00,12.00 0 0 0 3.55,-8.47 L 176,68.17 a 12.00,12.00 0 0 0 -3.48,-8.50 l -39.62,-39.91 a 12.00,12.00 0 0 0 -3.97,-2.65 12.00,12.00 0 0 0 -4.50,0.90 z" style="fill:#f84c43"/>
  <path d="m 98,44.00 c -3.32,0 -6,3.57 -6,8 v 38 c 0,1.11 0.89,2 -2,2 -1.11,0 -2,0.89 -2,-2 v -30 c 0,-4.43 -2.68,-8 -6,-8 -3.32,0 -6,3.57 -6,8 v 34 c 0,1.11 0.89,2 -2,2 -1.11,0 -2,0.89 -2,-2 v -22 c 0,-4.43 -2.68,-8 -6,-8 -3.32,0 -6,3.57 -6,8 V 126 c 0,16.57 14.33,30 32,30 13.04,0 24.24,0.13 29.23,-10.62 h 0.01 l 0.02,0.04 c 4.72,-13.06 21.09,-42.34 25.78,-55.81 1.46,-4.18 0.11,-8.44 -3.03,-9.53 -3.14,-1.09 -6.64,2.70 -8.30,5.59 C 132,92.00 120,108 120,108 c 0.17,-3.53 0,-11.76 0,-20.00 v -32 c 0,-4.43 -2.68,-8 -6,-8 -3.32,0 -6,3.57 -6,8 v 34 c 0,1.11 0.89,2 -2,2 -1.11,0 -2,0.89 -2,-2 v -38 c 0,-4.43 -2.68,-8 -6,-8 z" style="filter:url(#filter887);opacity:0.20"/>
  <path d="m 98,40 c -3.32,0 -6,3.57 -6,8 v 38 c 0,1.11 0.89,2 -2,2 -1.11,0 -2,0.89 -2,-2 V 56 c 0,-4.43 -2.68,-8 -6,-8 -3.32,0 -6,3.57 -6,8 v 34 c 0,1.11 0.89,2 -2,2 -1.11,0 -2,0.89 -2,-2 V 68 c 0,-4.43 -2.68,-8 -6,-8 -3.32,0 -6,3.57 -6,8 v 54 c 0,16.57 14.33,30 32,30 13.04,0 24.24,0.13 29.23,-10.62 h 0.01 l 0.02,0.04 c 4.72,-13.06 21.09,-42.34 25.78,-55.81 C 148.49,81.35 147.14,77.09 144.00,76 140.86,74.91 137.36,78.70 135.70,81.59 132,88 120,104 120,104 c 0.17,-3.53 0,-11.76 0,-20 V 52 c 0,-4.43 -2.68,-8 -6,-8 -3.32,0 -6,3.57 -6,8 v 34 c 0,1.11 0.89,2 -2,2 -1.11,0 -2,0.89 -2,-2 V 48 c 0,-4.43 -2.68,-8 -6,-8 z" style="fill:#ffffff"/>
  <path style="opacity:0.20;fill:#ffffff" d="M 68.17 16 A 12.00 12.00 0 0 0 59.68 19.48 L 19.76 59.10 A 12.00 12.00 0 0 0 16.21 67.58 L 16 123.83 A 12.00 12.00 0 0 0 16.00 123.90 L 16.21 68.58 A 12.00 12.00 0 0 1 19.76 60.10 L 59.68 20.48 A 12.00 12.00 0 0 1 68.17 17 L 124.42 17.21 A 12.00 12.00 0 0 1 128.92 18.11 A 12.00 12.00 0 0 1 132.89 20.76 L 172.52 60.67 A 12.00 12.00 0 0 1 176.00 69.09 L 176 68.17 A 12.00 12.00 0 0 0 172.52 59.67 L 132.89 19.76 A 12.00 12.00 0 0 0 128.92 17.11 A 12.00 12.00 0 0 0 124.42 16.21 L 68.17 16 z "/>
</svg>
