<?xml version='1.0' encoding='utf-8'?>
<svg xmlns="http://www.w3.org/2000/svg" width="192" height="192" version="1" id="svg28">
  <defs>
    <filter style="color-interpolation-filters:sRGB" id="filter2927" x="0.07" y="0.08" width="1.15" height="1.15">
      <feGaussianBlur stdDeviation="2.87"/>
    </filter>
    <filter style="color-interpolation-filters:sRGB" id="filter2969" x="0.05" y="0.05" width="1.10" height="1.10">
      <feGaussianBlur stdDeviation="3.20"/>
    </filter>
  </defs>
  <path style="filter:url(#filter2969);opacity:0.20;fill:#000000" d="m 69.93,179.82 c -29.50,-1.38 -41.99,-4.83 -46.76,-12.91 -3.25,-5.52 -5.32,-18.09 -6.76,-41.04 0.56,-8.91 0.55,-42.68 0.00,-51.66 1.42,-22.88 3.50,-35.52 6.75,-41.04 4.90,-8.31 17.46,-11.63 48.88,-12.95 10.21,0.43 41.62,0.21 50.51,0.35 22.17,1.39 34.77,3.50 40.21,6.71 10.01,5.91 13.23,23.64 13.23,72.76 0,49.12 -3.22,66.85 -13.23,72.76 -5.43,3.21 -17.86,5.28 -40.21,6.71 -7.04,0.45 -44.83,0.67 -52.63,0.30 z"/>
  <path style="fill:#f34235" d="m 69.93,175.82 c -29.50,-1.38 -41.99,-4.83 -46.76,-12.91 -3.25,-5.52 -5.32,-18.09 -6.76,-41.04 0.56,-8.91 0.55,-42.68 0.00,-51.66 1.42,-22.88 3.50,-35.52 6.75,-41.04 4.90,-8.31 17.46,-11.63 48.88,-12.95 10.21,0.43 41.62,0.21 50.51,0.35 22.17,1.39 34.77,3.50 40.21,6.71 10.01,5.91 13.23,23.64 13.23,72.76 0,49.12 -3.22,66.85 -13.23,72.76 -5.43,3.21 -17.86,5.28 -40.21,6.71 -7.04,0.45 -44.83,0.67 -52.63,0.30 z"/>
  <path style="filter:url(#filter2927);opacity:0.16;fill:#000000;color:#000000" d="m 132,53.00 a 10,10 0 0 0 -10,10 10,10 0 0 0 10,10 10,10 0 0 0 10,-10 10,10 0 0 0 -10,-10 z m -73,1 a 9,9 0 0 0 -9,9 9,9 0 0 0 9,9 h 38 a 9,9 0 0 0 9,-9 9,9 0 0 0 -9,-9 z m 37,35 a 10,10 0 0 0 -10,10 A 10,10 0 0 0 96,109 a 10,10 0 0 0 10,-10.00 10,10 0 0 0 -10,-10 z m 36,0 a 10,10 0 0 0 -10,10 10,10 0 0 0 10,10.00 10,10 0 0 0 10,-10.00 10,10 0 0 0 -10,-10 z M 60,125 a 10,10 0 0 0 -10,10 10,10 0 0 0 10,10 10,10 0 0 0 10,-10 10,10 0 0 0 -10,-10 z m 36,0 a 10,10 0 0 0 -10,10 10,10 0 0 0 10,10 10,10 0 0 0 10,-10 10,10 0 0 0 -10,-10 z m 36,0 a 10,10 0 0 0 -10,10 10,10 0 0 0 10,10 10,10 0 0 0 10,-10 10,10 0 0 0 -10,-10 z"/>
  <path style="fill:#ffffff;color:#000000" d="M 132 50 A 10 10 0 0 0 122 60 A 10 10 0 0 0 132 70 A 10 10 0 0 0 142 60 A 10 10 0 0 0 132 50 z M 59 51 A 9 9 0 0 0 50 60 A 9 9 0 0 0 59 69 L 97 69 A 9 9 0 0 0 106 60 A 9 9 0 0 0 97 51 L 59 51 z M 96 86 A 10 10 0 0 0 86 96 A 10 10 0 0 0 96 106 A 10 10 0 0 0 106 96 A 10 10 0 0 0 96 86 z M 132 86 A 10 10 0 0 0 122 96 A 10 10 0 0 0 132 106 A 10 10 0 0 0 142 96 A 10 10 0 0 0 132 86 z M 60 122 A 10 10 0 0 0 50 132 A 10 10 0 0 0 60 142 A 10 10 0 0 0 70 132 A 10 10 0 0 0 60 122 z M 96 122 A 10 10 0 0 0 86 132 A 10 10 0 0 0 96 142 A 10 10 0 0 0 106 132 A 10 10 0 0 0 96 122 z M 132 122 A 10 10 0 0 0 122 132 A 10 10 0 0 0 132 142 A 10 10 0 0 0 142 132 A 10 10 0 0 0 132 122 z "/>
  <path style="opacity:0.20;fill:#ffffff" d="M 83.00 16.02 C 78.48 16.05 74.61 16.12 72.05 16.23 C 40.63 17.54 28.07 20.87 23.17 29.17 C 19.91 34.69 17.83 47.33 16.42 70.21 C 16.14 74.78 16.00 85.72 16.00 96.57 C 16.01 86.07 16.14 75.63 16.42 71.21 C 17.83 48.33 19.91 35.69 23.17 30.17 C 28.07 21.87 40.63 18.54 72.05 17.23 C 82.26 16.80 113.68 17.01 122.56 17.57 C 144.73 18.97 157.33 21.07 162.77 24.28 C 172.74 30.16 175.97 47.83 176.00 96.54 C 176.00 96.36 176 96.22 176 96.04 C 176 46.92 172.78 29.18 162.77 23.28 C 157.33 20.07 144.73 17.97 122.56 16.57 C 115.90 16.15 96.56 15.93 83.00 16.02 z "/>
</svg>
