<?xml version='1.0' encoding='utf-8'?>
<svg xmlns="http://www.w3.org/2000/svg" width="192" height="192" version="1" id="svg28">
  <defs>
    <filter style="color-interpolation-filters:sRGB" id="filter6495" x="0.05" y="0.05" width="1.10" height="1.10">
      <feGaussianBlur stdDeviation="3.20"/>
    </filter>
    <filter style="color-interpolation-filters:sRGB" id="filter12779" x="0.09" y="0.14" width="1.17" height="1.28">
      <feGaussianBlur stdDeviation="4.59"/>
    </filter>
  </defs>
  <rect transform="matrix(0,-1,-1,0,0,0)" ry="12" rx="12" y="-176" x="-180" height="160" width="160" style="filter:url(#filter6495);opacity:0.20;fill:#000000"/>
  <rect transform="matrix(0,-1,-1,0,0,0)" ry="12" rx="12" y="-176" x="-176" height="160" width="160" style="fill:#1c3f71"/>
  <path style="opacity:0.10;fill:#ffffff" d="m 28,16 c -6.65,0 -12,5.35 -12,12 v 1 c 0,-6.65 5.35,-12 12,-12 h 136 c 6.65,0 12,5.35 12,12 v -1 c 0,-6.65 -5.35,-12 -12,-12 z"/>
  <path style="filter:url(#filter12779);opacity:0.20;fill:#000000" d="M 70.98,59 33,111 H 58.62 L 40,137 H 72 L 90.62,111 H 78 L 87,98 96,85 H 78 L 87,72 96,59 Z M 96,59 l 9,13 9,13 H 96 l 9,13 9,13 H 101.38 L 120,137 h 32 L 133.38,111 H 159 L 121.02,59 Z"/>
  <path style="fill:#18a6ff" d="M 70.98,57 33,109 H 58.62 L 40,135 H 72 L 90.62,109 H 78 L 87,96 96,83 H 78 L 87,70 96,57 Z M 96,57 l 9,13 9,13 H 96 l 9,13 9,13 H 101.38 L 120,135 h 32 L 133.38,109 H 159 L 121.02,57 Z"/>
  <path style="opacity:0.20;fill:#ffffff" d="M 70.98 57 L 33 109 L 33.73 109 L 70.98 58 L 95.31 58 L 96 57 L 70.98 57 z M 96 57 L 96.69 58 L 121.02 58 L 158.27 109 L 159 109 L 121.02 57 L 96 57 z M 78.69 83 L 78 84 L 95.31 84 L 96 83 L 78.69 83 z M 96 83 L 96.69 84 L 114 84 L 113.31 83 L 96 83 z M 78.69 109 L 78 110 L 89.91 110 L 90.62 109 L 78.69 109 z M 101.38 109 L 102.09 110 L 114 110 L 113.31 109 L 101.38 109 z M 57.91 110 L 40 135 L 40.72 135 L 58.62 110 L 57.91 110 z M 133.38 110 L 151.28 135 L 152 135 L 134.09 110 L 133.38 110 z "/>
</svg>
