<?xml version='1.0' encoding='utf-8'?>
<svg xmlns="http://www.w3.org/2000/svg" width="192" height="192" version="1" id="svg18">
  <defs>
    <filter style="color-interpolation-filters:sRGB" id="filter857" x="0.05" width="1.10" y="0.05" height="1.10">
      <feGaussianBlur stdDeviation="3.20"/>
    </filter>
    <filter style="color-interpolation-filters:sRGB" id="filter873" x="0.05" width="1.10" y="0.05" height="1.10">
      <feGaussianBlur stdDeviation="2.08"/>
    </filter>
    <filter style="color-interpolation-filters:sRGB" id="filter881" x="0.02" width="1.05" y="0.02" height="1.05">
      <feGaussianBlur stdDeviation="0.96"/>
    </filter>
  </defs>
  <rect transform="matrix(0,-1,-1,0,0,0)" ry="8" rx="8" y="-176" x="-180" height="160" width="160" style="filter:url(#filter857);opacity:0.20"/>
  <rect transform="matrix(0,-1,-1,0,0,0)" ry="8" rx="8" y="-176" x="-176" height="160" width="160" style="fill:#38a334"/>
  <path d="M 120,48 A 28,28 0 0 0 92,76 28,28 0 0 0 94.59,87.70 L 44,138.29 V 139.08 152 h 12.92 0.79 L 63.79,145.92 65.96,144 H 80 V 129.71 L 85.71,124 h 14.15 l -1.52,-12.63 9.96,-9.96 A 28,28 0 0 0 120,104 28,28 0 0 0 148,76 28,28 0 0 0 140,56.41 V 56 h 0.45 A 28,28 0 0 0 120,48 Z m 8,8 a 12,12 0 0 1 12,12 12,12 0 0 1 -12,12 12,12 0 0 1 -12,-12 12,12 0 0 1 12,-12 z" style="filter:url(#filter873);opacity:0.20"/>
  <path d="m 120,44 c -15.46,0 -28,12.54 -28,28 0.01,4.04 0.90,8.03 2.59,11.70 L 44,134.29 V 135.08 148 h 12.92 0.79 L 63.79,141.92 65.96,140 H 80 V 125.71 L 85.71,120 h 14.15 l -1.52,-12.63 9.96,-9.96 C 111.97,99.10 115.96,99.99 120,100 c 15.46,0 28,-12.54 28,-28 0.00,-7.32 -2.87,-14.35 -8,-19.59 v 0 L 139.55,52 C 134.33,46.88 127.31,44.01 120,44 Z m 8,8 c 6.63,0 12,5.37 12,12 0,6.63 -5.37,12 -12,12 -6.63,0 -12,-5.37 -12,-12 0,-6.63 5.37,-12 12,-12 z" style="fill:#ffffff"/>
  <path d="M 44,67.71 V 54 H 57.71 L 140,136.29 V 150 h -13.71 z" style="filter:url(#filter881);opacity:0.10"/>
  <path d="M 44,65.71 V 52 H 57.71 L 140,134.29 V 148 h -13.71 z" style="fill:#454545"/>
  <path style="opacity:0.20;fill:#ffffff" d="M 24 16 C 19.57 16 16 19.57 16 24 L 16 25 C 16 20.57 19.57 17 24 17 L 168 17 C 172.43 17 176 20.57 176 25 L 176 24 C 176 19.57 172.43 16 168 16 L 24 16 z "/>
</svg>
