<svg xmlns="http://www.w3.org/2000/svg" id="svg18" width="192" height="192" version="1"><defs><filter style="color-interpolation-filters:sRGB" id="filter859" width="1.1" height="1.1" x=".05" y=".05"><feGaussianBlur stdDeviation="3.2"/></filter><filter style="color-interpolation-filters:sRGB" id="filter875" width="1.1" height="1.1" x=".05" y=".05"><feGaussianBlur stdDeviation="2.72"/></filter><filter style="color-interpolation-filters:sRGB" id="filter891" width="1.1" height="1.09" x=".05" y=".04"><feGaussianBlur stdDeviation="1.04"/></filter></defs><rect style="filter:url(#filter859);opacity:.2;fill:#000" width="160" height="160" x="-180" y="-176" rx="80" ry="80" transform="matrix(0,-1,-1,0,0,0)"/><rect width="160" height="160" x="-176" y="-176" rx="80" ry="80" transform="matrix(0,-1,-1,0,0,0)" style="fill:#4f4f4f"/><path style="opacity:.1;fill:#fff" d="M 96 16 C 51.68 16 16.01 51.68 16.01 96 C 16.01 96.34 16.01 96.67 16.01 97 C 16.01 52.68 51.68 17 96 17 C 140.32 17 175.99 52.68 175.99 97 C 175.99 96.67 175.99 96.34 175.99 96 C 175.99 51.68 140.32 16 96 16 z"/><path d="m 96,32 c -37.67,0 -68,30.33 -68,68 0,37.67 30.33,68 68,68 37.67,0 68,-30.33 68,-68 0,-37.67 -30.33,-68 -68,-68 z m 0,12 c 31.02,0 56,24.98 56,56 0,31.02 -24.98,56 -56,56 C 64.98,156 40,131.02 40,100 40,68.98 64.98,44 96,44 Z" style="filter:url(#filter875);opacity:.2"/><path d="m 96,28 c -37.67,0 -68,30.33 -68,68 0,37.67 30.33,68 68,68 37.67,0 68,-30.33 68,-68 0,-37.67 -30.33,-68 -68,-68 z m 0,12 c 31.02,0 56,24.98 56,56 0,31.02 -24.98,56 -56,56 C 64.98,152 40,127.02 40,96 40,64.98 64.98,40 96,40 Z" style="fill:#45de44"/><path d="m 128,100 -24,14 -24.00,14 V 100.00 72.00 l 24.00,14 z" style="filter:url(#filter891);opacity:.1"/><path d="M 128,96.00 104,110 80.00,124 V 96.00 68.00 l 24.00,14 z" style="fill:#45de44"/></svg>