<svg xmlns="http://www.w3.org/2000/svg" id="svg32" width="192" height="192" version="1"><defs><filter style="color-interpolation-filters:sRGB" id="filter2485" width="1.09" height="1.1" x=".04" y=".05"><feGaussianBlur stdDeviation="1.99"/></filter><filter style="color-interpolation-filters:sRGB" id="filter2489" width="1.1" height="1.09" x=".05" y=".05"><feGaussianBlur stdDeviation="3.02"/></filter></defs><path style="filter:url(#filter2489);opacity:.2" d="m 96.43,20.00 a 18.26,18.19 0 0 0 -9.56,2.43 l -53.74,30.90 A 18.26,18.19 0 0 0 24,69.09 v 61.81 a 18.26,18.19 0 0 0 9.13,15.75 l 53.74,30.91 a 18.26,18.19 0 0 0 18.26,0 l 53.74,-30.91 A 18.26,18.19 0 0 0 168,130.90 V 69.09 a 18.26,18.19 0 0 0 -9.13,-15.76 l -53.74,-30.90 a 18.26,18.19 0 0 0 -8.70,-2.43 z"/><path style="fill:#0ac699" d="m 96.43,16 v 0.01 a 18.26,18.19 0 0 0 -9.56,2.42 L 33.13,49.34 A 18.26,18.19 0 0 0 24,65.09 v 61.81 a 18.26,18.19 0 0 0 9.13,15.75 l 53.73,30.91 a 18.26,18.19 0 0 0 18.27,0 l 53.73,-30.91 A 18.26,18.19 0 0 0 168,126.91 V 65.09 A 18.26,18.19 0 0 0 158.87,49.34 L 105.13,18.43 A 18.26,18.19 0 0 0 96.43,16 Z"/><path style="opacity:.2;fill:#fff" d="m 96.43,16.01 a 18.26,18.19 0 0 0 -9.56,2.42 L 33.13,49.34 A 18.26,18.19 0 0 0 24,65.09 v 1 a 18.26,18.19 0 0 1 9.13,-15.76 l 53.73,-30.91 a 18.26,18.19 0 0 1 9.56,-2.42 h 0.00 a 18.26,18.19 0 0 1 8.70,2.42 l 53.73,30.91 A 18.26,18.19 0 0 1 168,66.09 v -1 a 18.26,18.19 0 0 0 -9.13,-15.76 l -53.73,-30.91 a 18.26,18.19 0 0 0 -8.70,-2.42 z"/><path style="filter:url(#filter2485);opacity:.2;fill:#000;stop-color:#000" d="m 96,54.00 a 17,17 0 0 0 -17,17 17,17 0 0 0 17,17 17,17 0 0 0 17,-17 17,17 0 0 0 -17,-17 z m -53.75,30 0.14,0.95 c 0.28,1.84 0.05,10.76 0.50,13.54 0.98,6.10 2.60,11.21 5.22,16.53 5.66,11.47 15.32,20.73 26.65,25.56 8.15,3.47 17.57,5.00 25.96,4.21 7.33,0.69 13.02,-2.25 19.22,-5.27 5.50,-2.68 9.71,-5.67 14.03,-9.96 9.35,-9.30 14.90,-21.28 16.12,-34.76 0.23,-2.55 0.28,-8.40 0.08,-9.83 L 149.75,84.06 h -1.05 c -1.42,0 -4.81,0.34 -7.01,0.71 -8.98,1.50 -17.84,5.59 -24.74,11.42 -7.77,6.57 -13.37,14.71 -16.72,24.31 -1.90,5.45 -3.11,12.34 -3.11,17.78 l 0.00,1.94 H 96.04 94.97 l 0.13,-3.06 c 0.37,-8.63 -2.21,-15.85 -5.94,-23.33 C 86.09,108.20 82.79,103.64 78.28,99.19 69.11,90.14 57.31,84.87 44.58,84.13 Z"/><path style="fill:#fff;stop-color:#000" d="M 96,51 A 17,17 0 0 0 79,68 17,17 0 0 0 96,85 17,17 0 0 0 113,68 17,17 0 0 0 96,51 Z m -53.75,30 0.14,0.95 c 0.28,1.84 0.05,10.76 0.50,13.54 0.98,6.10 2.60,11.21 5.22,16.53 5.66,11.47 15.32,20.73 26.65,25.56 8.15,3.47 17.57,5.00 25.96,4.21 7.33,0.69 13.02,-2.25 19.22,-5.27 5.50,-2.68 9.71,-5.67 14.03,-9.96 9.35,-9.30 14.90,-21.28 16.12,-34.76 0.23,-2.55 0.28,-8.40 0.08,-9.83 L 149.75,81.06 h -1.05 c -1.42,0 -4.81,0.34 -7.01,0.71 -8.98,1.50 -17.84,5.59 -24.74,11.42 -7.77,6.57 -13.37,14.71 -16.72,24.31 -1.90,5.45 -3.11,12.34 -3.11,17.78 l 0.00,1.94 H 96.04 94.97 l 0.13,-3.06 c 0.37,-8.63 -2.21,-15.85 -5.94,-23.33 C 86.09,105.20 82.79,100.64 78.28,96.19 69.11,87.15 57.31,81.87 44.58,81.13 Z"/></svg>