<?xml version='1.0' encoding='utf-8'?>
<svg xmlns="http://www.w3.org/2000/svg" width="192" height="192" version="1" id="svg16">
  <defs>
    <filter style="color-interpolation-filters:sRGB" id="filter971" x="0.05" y="0.05" width="1.10" height="1.10">
      <feGaussianBlur stdDeviation="3.20"/>
    </filter>
    <filter style="color-interpolation-filters:sRGB" id="filter5796" x="0.05" y="0.05" width="1.09" height="1.10">
      <feGaussianBlur stdDeviation="2.13"/>
    </filter>
    <filter style="color-interpolation-filters:sRGB" id="filter5838" x="0.05" y="0.05" width="1.09" height="1.10">
      <feGaussianBlur stdDeviation="1.20"/>
    </filter>
  </defs>
  <rect style="filter:url(#filter971);opacity:0.20;fill:#000000" width="160" height="160" x="16" y="20" rx="80" ry="80"/>
  <circle style="fill:#e4e4e4;stop-color:#000000" cx="96" cy="96" r="80"/>
  <path style="opacity:0.20;fill:#ffffff" d="M 96.00,16 C 51.68,16.00 16,51.68 16,96 c 0,0.17 0.01,0.34 0.01,0.52 C 16.27,52.42 51.84,17.00 96.00,17 H 96 c 44.16,0.00 79.73,35.42 79.99,79.52 0.00,0.17 0.01,0.34 0.01,0.52 0,-44.32 -35.68,-80.00 -80.00,-80 z"/>
  <path style="filter:url(#filter5838);opacity:0.20;fill:#000000;color:#000000" d="m 93,67.36 v 15.82 h 6 V 67.36 Z m -25.91,18.09 -1.85,5.71 15.31,4.98 1.85,-5.71 z m 58.25,0.10 -6.46,2.05 1.81,5.72 6.47,-2.05 z m -11.86,30.37 -4.77,3.64 4.13,5.39 4.77,-3.64 z m -34.04,0.34 -3.71,5.25 4.90,3.46 3.71,-5.25 z"/>
  <path style="fill:#05c6d8;color:#000000" d="m 93,65.36 v 15.82 h 6 V 65.36 Z m -25.91,18.09 -1.85,5.71 15.31,4.98 1.85,-5.71 z m 58.25,0.10 -6.46,2.05 1.81,5.72 6.47,-2.05 z m -11.86,30.37 -4.77,3.64 4.13,5.39 4.77,-3.64 z m -34.04,0.34 -3.71,5.25 4.90,3.46 3.71,-5.25 z"/>
  <path style="filter:url(#filter5796);opacity:0.20;fill:#000000" d="m 96,42.00 a 14,14 0 0 0 -14,14 14,14 0 0 0 14,14 14,14 0 0 0 14,-14 14,14 0 0 0 -14,-14 z m 0,6 a 8,8 0 0 1 8,8 8,8 0 0 1 -8,8 8,8 0 0 1 -8,-8 8,8 0 0 1 8,-8 z m -40,23 a 14,14 0 0 0 -14,14 14,14 0 0 0 14,14 14,14 0 0 0 14,-14 14,14 0 0 0 -14,-14 z m 81,0 a 14,14 0 0 0 -14,14 14,14 0 0 0 14,14 14,14 0 0 0 14,-14 14,14 0 0 0 -14,-14 z m -81,6 a 8,8 0 0 1 8,8 8,8 0 0 1 -8,8 8,8 0 0 1 -8,-8 8,8 0 0 1 8,-8 z m 81,0 a 8,8 0 0 1 8,8 8,8 0 0 1 -8,8 8,8 0 0 1 -8,-8 8,8 0 0 1 8,-8 z m -41,3 a 18,18 0 0 0 -18,18 A 18,18 0 0 0 96,116 a 18,18 0 0 0 18,-18.00 18,18 0 0 0 -18,-18 z m 0,6 a 12,12 0 0 1 12,12 A 12,12 0 0 1 96,110 12,12 0 0 1 84,98.00 a 12,12 0 0 1 12,-12 z M 72,118 a 14,14 0 0 0 -14,14 14,14 0 0 0 14,14 14,14 0 0 0 14,-14 14,14 0 0 0 -14,-14 z m 50,0 a 14,14 0 0 0 -14,14 14,14 0 0 0 14,14 14,14 0 0 0 14,-14 14,14 0 0 0 -14,-14 z m -50,6 a 8,8 0 0 1 8,8 8,8 0 0 1 -8,8 8,8 0 0 1 -8,-8 8,8 0 0 1 8,-8 z m 50,0 a 8,8 0 0 1 8,8 8,8 0 0 1 -8,8 8,8 0 0 1 -8,-8 8,8 0 0 1 8,-8 z"/>
  <path style="fill:#1a7dd9" d="m 96,40.00 a 14,14 0 0 0 -14,14 14,14 0 0 0 14,14 14,14 0 0 0 14,-14 14,14 0 0 0 -14,-14 z m 0,6 a 8,8 0 0 1 8,8 8,8 0 0 1 -8,8 8,8 0 0 1 -8,-8 8,8 0 0 1 8,-8 z m -40,23 a 14,14 0 0 0 -14,14 14,14 0 0 0 14,14 14,14 0 0 0 14,-14 14,14 0 0 0 -14,-14 z m 81,0 a 14,14 0 0 0 -14,14 14,14 0 0 0 14,14 14,14 0 0 0 14,-14 14,14 0 0 0 -14,-14 z m -81,6 a 8,8 0 0 1 8,8 8,8 0 0 1 -8,8 8,8 0 0 1 -8,-8 8,8 0 0 1 8,-8 z m 81,0 a 8,8 0 0 1 8,8 8,8 0 0 1 -8,8 8,8 0 0 1 -8,-8 8,8 0 0 1 8,-8 z m -41,3 a 18,18 0 0 0 -18,18 A 18,18 0 0 0 96,114 a 18,18 0 0 0 18,-18.00 18,18 0 0 0 -18,-18 z m 0,6 a 12,12 0 0 1 12,12 A 12,12 0 0 1 96,108 12,12 0 0 1 84,96.00 a 12,12 0 0 1 12,-12 z M 72,116 a 14,14 0 0 0 -14,14 14,14 0 0 0 14,14 14,14 0 0 0 14,-14 14,14 0 0 0 -14,-14 z m 50,0 a 14,14 0 0 0 -14,14 14,14 0 0 0 14,14 14,14 0 0 0 14,-14 14,14 0 0 0 -14,-14 z m -50,6 a 8,8 0 0 1 8,8 8,8 0 0 1 -8,8 8,8 0 0 1 -8,-8 8,8 0 0 1 8,-8 z m 50,0 a 8,8 0 0 1 8,8 8,8 0 0 1 -8,8 8,8 0 0 1 -8,-8 8,8 0 0 1 8,-8 z"/>
</svg>
