<?xml version='1.0' encoding='utf-8'?>
<svg xmlns="http://www.w3.org/2000/svg" width="192" height="192" version="1" id="svg14">
  <defs>
    <filter style="color-interpolation-filters:sRGB" id="filter848" x="-0.050380125" width="1.1007603" y="-0.050380125" height="1.1007603">
      <feGaussianBlur stdDeviation="3.3586749"/>
    </filter>
    <filter style="color-interpolation-filters:sRGB" id="filter27961" x="-0.056108105" y="-0.041939397" width="1.1122162" height="1.0838788">
      <feGaussianBlur stdDeviation="1.7299999"/>
    </filter>
  </defs>
  <rect transform="matrix(0,-1,-1,0,0,0)" ry="20" rx="20" y="-176" x="-180" height="160" width="160" style="filter:url(#filter848);opacity:0.2"/>
  <path style="fill:#ffffff" d="M 36 16 C 25.375735 16 16.760995 24.20747 16.068359 34.650391 L 142.12695 160.70703 L 176 126.83398 L 176 82.310547 L 109.68945 16 L 36 16 z "/>
  <path style="fill:#a5d34a" d="M 16.068359 34.650391 C 16.038648 35.098347 16 35.544265 16 36 L 16 156 C 16 167.08 24.92 176 36 176 L 156 176 C 167.08 176 176 167.08 176 156 L 176 109.92578 L 131.00781 149.58984 L 16.068359 34.650391 z "/>
  <path style="fill:#6ecfff" d="M 109.68945 16 L 176 82.310547 L 176 36 C 176 24.92 167.08 16 156 16 L 109.68945 16 z "/>
  <path style="fill:#ffe251;color:#000000" d="M 18.21875 26.841797 C 16.808532 29.584785 16 32.692081 16 36 L 16 50.117188 L 72.630859 106.94531 L 16.878906 161.89453 C 18.736702 167.9663 23.401126 172.77241 29.367188 174.85938 L 85.337891 119.69531 L 116.99023 151.45703 L 92.175781 176 L 117.77344 176 L 176 118.41211 L 176 93.095703 L 129.78906 138.80078 L 18.21875 26.841797 z "/>
  <path style="filter:url(#filter27961);opacity:0.2;fill:#1a1a1a" d="M 97,49.00001 C 88.008005,49.01809 78.910541,52.308645 71.431974,59.197693 63.255837,66.729305 60.050688,74.014472 60.0007,85.178282 c -0.04769,10.656083 2.324241,15.902628 12.434017,27.505918 7.927934,9.09914 16.447756,21.72925 20.28434,30.06733 1.65343,3.59342 2.938202,5.35266 4.280943,5.2437 1.342743,0.10896 2.62751,-1.65028 4.28094,-5.2437 3.83659,-8.33808 12.35641,-20.96819 20.28435,-30.06733 10.10977,-11.60329 12.4817,-16.849835 12.43401,-27.505918 -0.05,-11.16381 -3.25514,-18.448977 -11.43128,-25.980589 C 115.08946,52.308645 105.992,49.018085 97,49.00001 Z"/>
  <path style="fill:#ff5353" d="M 97,45.000007 C 88.008005,45.018087 78.910541,48.308642 71.431974,55.19769 63.255837,62.729302 60.050688,70.014469 60.0007,81.178279 c -0.04769,10.656083 2.324241,15.902627 12.434017,27.505921 7.927934,9.09914 16.447756,21.72925 20.28434,30.06733 1.65343,3.59342 2.938202,5.35266 4.280943,5.2437 1.342743,0.10896 2.62751,-1.65028 4.28094,-5.2437 3.83659,-8.33808 12.35641,-20.96819 20.28435,-30.06733 10.10977,-11.603294 12.4817,-16.849838 12.43401,-27.505921 -0.05,-11.16381 -3.25514,-18.448977 -11.43128,-25.980589 C 115.08946,48.308642 105.992,45.018082 97,45.000007 Z"/>
  <path style="fill:#ffffff" d="m 90,66 v 7 H 85.5 C 79.70101,73 75,77.70101 75,83.5 75,89.29899 79.70101,94 85.5,94 H 96 V 83.5 66 Z m 10.01953,8 v 13.375 c -0.09059,1.489575 0.26262,2.9639 1.04883,4.068359 0.82505,1.159031 1.96143,1.793442 2.91602,2.121094 1.5996,0.549044 2.95694,0.447532 3.375,0.398438 H 118 V 74 h -6 v 13.990234 h -5 l -0.18164,0.01953 c 0,0 -0.55278,-0.02072 -0.83789,-0.09961 0.003,-0.02865 0.006,-0.06449 0.0195,-0.214844 l 0.0117,-0.134765 V 74 Z M 85.5,79 H 90 V 83.5 88 H 85.5 C 82.943653,88 81,86.056347 81,83.5 81,80.943653 82.943653,79 85.5,79 Z"/>
  <path style="opacity:0.2;fill:#ffffff" d="M 36 16 C 24.92 16 16 24.92 16 36 L 16 37 C 16 25.92 24.92 17 36 17 L 156 17 C 167.08 17 176 25.92 176 37 L 176 36 C 176 24.92 167.08 16 156 16 L 36 16 z "/>
</svg>
