<?xml version='1.0' encoding='utf-8'?>
<svg xmlns="http://www.w3.org/2000/svg" width="192" height="192" version="1" id="svg28">
  <defs>
    <filter style="color-interpolation-filters:sRGB" id="filter6495" x="-0.048000001" y="-0.048000001" width="1.096" height="1.096">
      <feGaussianBlur stdDeviation="3.2"/>
    </filter>
    <filter style="color-interpolation-filters:sRGB" id="filter4439" x="-0.089840708" y="-0.13536" width="1.1796814" height="1.27072">
      <feGaussianBlur stdDeviation="4.23"/>
    </filter>
  </defs>
  <rect transform="matrix(0,-1,-1,0,0,0)" ry="12" rx="12" y="-176" x="-180" height="160" width="160" style="filter:url(#filter6495);opacity:0.2;fill:#000000"/>
  <rect transform="matrix(0,-1,-1,0,0,0)" ry="12" rx="12" y="-176" x="-176" height="160" width="160" style="fill:#f6671e"/>
  <path style="opacity:0.2;fill:#ffffff" d="m 28,16 c -6.648,0 -12,5.352 -12,12 v 1 c 0,-6.648 5.352,-12 12,-12 h 136 c 6.648,0 12,5.352 12,12 v -1 c 0,-6.648 -5.352,-12 -12,-12 z"/>
  <path style="filter:url(#filter4439);opacity:0.2;fill:#000000" d="M 53.29624,81.984266 73.540726,115.43836 137.7905,62 152,86.611726 70.660349,137 39,104.67319 Z"/>
  <path style="fill:#ffffff" d="M 53.29624,79.984266 73.540726,113.43836 137.7905,60 152,84.611726 70.660349,135 39,102.67319 Z"/>
</svg>
