<?xml version='1.0' encoding='utf-8'?>
<svg xmlns="http://www.w3.org/2000/svg" width="192" height="192" version="1" id="svg16">
  <defs>
    <filter style="color-interpolation-filters:sRGB" id="filter873" x="0.05" width="1.10" y="0.05" height="1.10">
      <feGaussianBlur stdDeviation="3.20"/>
    </filter>
  </defs>
  <path style="filter:url(#filter873);opacity:0.20;fill:#000000;fill-rule:evenodd" d="m 96.02,16.00 c -3.63,0.04 -7.34,0.58 -11,2.04 -2.27,0.91 -3.99,2.81 -4.69,5.15 L 72.97,48.06 c 0.00,0.00 0.00,0.00 0.00,0.00 0.00,0.00 0.00,0.00 0.00,0.00 L 63.50,80.04 v 0.00 c 0.00,0.00 0.00,0.00 0.00,0 v 0.00 L 54.62,110.03 62.57,83.18 54.04,112 h -10.03 c -3.23,0.00 -6.14,1.94 -7.38,4.92 l -20,48 C 14.43,170.19 18.30,176.00 24.01,176 H 167.99 c 5.71,0.00 9.58,-5.81 7.38,-11.08 l -20,-48 C 154.13,113.94 151.22,112.00 148.00,112 h -10.03 l 0.89,-2.99 v 0.00 c 0.00,0.00 0.00,0.00 0.00,0 l -8.57,-28.96 c 0.00,0.00 0.00,0.00 0.00,0 l -9.47,-31.98 c 0.00,0.00 0.00,0.00 0.00,0.00 l -7.36,-24.86 c 0.73,-2.48 -2.62,-4.45 -5.07,-5.29 -3.39,-1.17 -6.95,-1.86 -10.58,-1.90 z"/>
  <path style="fill:#ff8800;fill-rule:evenodd" d="m 44.00,108 c -3.23,0.00 -6.14,1.94 -7.38,4.92 l -20.00,48 c -2.20,5.27 1.67,11.08 7.38,11.08 H 167.99 c 5.71,0.00 9.58,-5.81 7.38,-11.08 l -20.00,-48 c -1.24,-2.98 -4.15,-4.92 -7.38,-4.92 z"/>
  <path style="opacity:0.20;fill:#ffffff;fill-rule:evenodd" d="M 43.98 108.04 C 40.75 108.04 37.84 109.98 36.60 112.96 L 16.59 160.96 C 16.11 162.11 15.95 163.28 16.02 164.41 C 16.07 163.60 16.25 162.78 16.59 161.96 L 36.60 113.96 C 37.84 110.98 40.75 109.04 43.98 109.04 L 148.02 109.04 C 151.25 109.04 154.16 110.98 155.40 113.96 L 175.41 161.96 C 175.75 162.78 175.93 163.60 175.98 164.41 C 176.05 163.28 175.89 162.11 175.41 160.96 L 155.40 112.96 C 154.16 109.98 151.25 108.04 148.02 108.04 L 43.98 108.04 z "/>
  <path style="fill:#ff8800;fill-rule:evenodd" d="m 96.02,12.00 c -3.63,0.04 -7.34,0.58 -11,2.05 -2.27,0.91 -3.99,2.81 -4.69,5.15 l -7.36,24.86 c 12.70,48.02 35.07,8.88 46.06,0 l -7.36,-24.86 c 0.73,-2.48 -2.62,-4.45 -5.07,-5.29 -3.39,-1.17 -6.95,-1.86 -10.58,-1.91 z m -32.52,64.04 -8.88,29.98 c 4.22,36.70 47.60,20.28 82.45,-1.02 l -8.57,-28.96 c -22,8.75 -32.12,-12.94 -65.00,0 z"/>
  <path style="fill:#ffffff;fill-rule:evenodd" d="m 72.97,44.06 -9.47,31.98 C 74.99,81.20 85.17,83.97 95.00,84 106.13,84.03 116.82,80.69 128.50,76.04 l -9.47,-31.98 C 113.31,48.21 104.09,50.16 95.00,50 86.58,49.85 78.27,47.91 72.97,44.06 Z m -9.47,31.98 -15.17,51.23 c 0.98,3.30 0.27,6.85 3.09,8.82 12.33,8.59 28.34,12.05 44.28,11.90 15.94,0.15 31.93,-3.94 44.48,-11.64 3.08,-1.89 4.51,-5.61 3.48,-9.08 l -6.59,-22.27 C 123.68,113.11 109.67,115.95 97.00,116 76.74,116.08 59.93,109.13 54.63,106.03 l 8.88,-29.98 z"/>
  <path style="opacity:0.20;fill:#ffffff;fill-rule:evenodd" d="m 96.02,12.00 c -3.63,0.04 -7.34,0.58 -11,2.04 -2.27,0.91 -3.99,2.81 -4.69,5.15 -8.68,29.24 -9.13,31.84 0,1 0.69,-2.34 2.42,-4.24 4.69,-5.15 3.66,-1.47 7.37,-2.09 11,-2.04 3.63,0.04 7.20,0.74 10.58,1.90 2.45,0.84 4.34,2.81 5.07,5.29 9.08,30.68 8.57,27.96 0,-1 0.73,-2.48 -2.62,-4.45 -5.07,-5.29 -3.39,-1.17 -6.95,-1.86 -10.58,-1.90 z"/>
</svg>
