<?xml version='1.0' encoding='utf-8'?>
<svg xmlns="http://www.w3.org/2000/svg" width="192" height="192" version="1" id="svg38">
  <defs>
    <filter style="color-interpolation-filters:sRGB" id="filter4767" x="0.03" y="0.09" width="1.06" height="1.19">
      <feGaussianBlur stdDeviation="1.64"/>
    </filter>
    <filter style="color-interpolation-filters:sRGB" id="filter4986" x="0.04" y="0.05" width="1.09" height="1.11">
      <feGaussianBlur stdDeviation="2.86"/>
    </filter>
    <filter style="color-interpolation-filters:sRGB" id="filter4990" x="0.04" y="0.05" width="1.09" height="1.11">
      <feGaussianBlur stdDeviation="1.98"/>
    </filter>
  </defs>
  <path style="filter:url(#filter4990);opacity:0.20;fill:#000000" d="m 145.24,163.59 c -2.45,-1.12 -7.67,-5.89 -11.61,-10.61 -3.94,-4.72 -8.14,-9.38 -9.34,-10.36 -1.53,-1.25 -12.17,-1.59 -30.79,-1.63 l -26.51,0.05 2.43,-3.93 c 4.57,-7.40 10.23,-9.55 42.84,-9.62 32.40,0.07 34.93,0.91 43.93,-7.82 7.94,-6.10 11.38,-14.35 12.31,-31.35 0.45,-8.19 2.40,-15.71 2.97,-10.49 0.43,3.87 1.48,17.35 2.53,32.13 2.47,34.60 2.46,35.75 0.18,41.76 -3.62,8.15 -11.17,12.65 -19.12,13.31 -3.47,0.26 -6.87,0.16 -9.46,-1.34 z"/>
  <path style="fill:#fe7c35" d="m 145.24,159.59 c -2.45,-1.12 -7.67,-5.89 -11.61,-10.61 -3.94,-4.72 -8.14,-9.38 -9.34,-10.36 -1.53,-1.25 -12.17,-1.59 -30.79,-1.63 l -26.51,0.05 2.43,-3.93 c 4.57,-7.40 10.23,-9.55 42.84,-9.62 32.40,0.07 34.93,0.91 43.93,-7.82 7.94,-6.10 11.38,-14.35 12.31,-31.35 0.45,-8.19 2.40,-15.71 2.97,-10.49 0.43,3.87 1.48,17.35 2.53,32.13 2.47,34.60 2.46,35.75 0.18,41.76 -3.62,8.15 -11.17,12.65 -19.12,13.31 -3.47,0.26 -6.87,0.16 -9.46,-1.34 z"/>
  <path style="filter:url(#filter4986);opacity:0.20;fill:#000000" d="m 95.67,35.00 c -47.78,0.00 -53.35,0.77 -62.94,8.72 -10.27,8.51 -11.39,12.96 -14.61,58.06 -1.58,22.23 -2.48,42.58 -1.98,45.22 1.12,5.96 7.23,13.41 13.11,15.97 11.40,4.97 21.49,0.85 32.16,-13.12 l 7.29,-9.56 c 1.74,-2.42 3.68,-5.62 5.82,-7.68 4.19,-3.96 12.13,-4.52 38.23,-4.58 32.56,0.07 37.18,0.45 46.23,-7.36 7.98,-6.10 11.54,-15.32 12.47,-32.32 0.92,-9.64 0.69,-14.83 0.49,-21.63 -2.17,-12.34 -5.26,-16.88 -11.61,-22.33 -10.09,-8.66 -15.14,-9.40 -63.66,-9.40 z"/>
  <path style="fill:#fdba30" d="M 95.67,31.00 C 47.89,31.00 42.32,31.77 32.73,39.72 22.46,48.23 21.34,52.69 18.12,97.79 16.54,120.02 15.64,140.36 16.14,143.00 c 1.12,5.96 7.23,13.41 13.11,15.97 11.40,4.97 21.49,0.85 32.16,-13.12 l 7.29,-9.56 c 1.74,-2.42 3.68,-5.62 5.82,-7.68 4.19,-3.96 12.13,-4.52 38.23,-4.58 32.56,0.07 37.18,0.45 46.23,-7.36 7.98,-6.10 11.54,-15.32 12.47,-32.32 0.92,-9.64 0.69,-14.83 0.49,-21.63 -2.17,-12.34 -5.26,-16.88 -11.61,-22.33 -10.09,-8.66 -15.14,-9.40 -63.66,-9.40 z"/>
  <path style="filter:url(#filter4767);opacity:0.20;fill:#000000" d="m 137,58 a 7,7 0 0 0 -7,7 7,7 0 0 0 7,7 7,7 0 0 0 7,-7 7,7 0 0 0 -7,-7 z m -85,2 c -2.22,0 -4,1.78 -4,4 v 8 h -8 c -2.22,0 -4,1.78 -4,4 v 6 c 0,2.22 1.78,4 4,4 h 8 v 8 c 0,2.22 1.78,4 4,4 h 6 c 2.22,0 4,-1.78 4,-4 v -8 h 8 c 2.22,0 4,-1.78 4,-4 v -6 c 0,-2.22 -1.78,-4 -4,-4 h -8 v -8 c 0,-2.22 -1.78,-4 -4,-4 z m 71,12 a 7,7 0 0 0 -7,7 7,7 0 0 0 7,7 7,7 0 0 0 7,-7 7,7 0 0 0 -7,-7 z m 28,0 a 7,7 0 0 0 -7,7 7,7 0 0 0 7,7 7,7 0 0 0 7,-7 7,7 0 0 0 -7,-7 z m -14,14 a 7,7 0 0 0 -7,7 7,7 0 0 0 7,7 7,7 0 0 0 7,-7 7,7 0 0 0 -7,-7 z"/>
  <path style="fill:#ffffff" d="M 137 56 A 7 7 0 0 0 130 63 A 7 7 0 0 0 137 70 A 7 7 0 0 0 144 63 A 7 7 0 0 0 137 56 z M 52 58 C 49.78 58 48 59.78 48 62 L 48 70 L 40 70 C 37.78 70 36 71.78 36 74 L 36 80 C 36 82.22 37.78 84 40 84 L 48 84 L 48 92 C 48 94.22 49.78 96 52 96 L 58 96 C 60.22 96 62 94.22 62 92 L 62 84 L 70 84 C 72.22 84 74 82.22 74 80 L 74 74 C 74 71.78 72.22 70 70 70 L 62 70 L 62 62 C 62 59.78 60.22 58 58 58 L 52 58 z M 123 70 A 7 7 0 0 0 116 77 A 7 7 0 0 0 123 84 A 7 7 0 0 0 130 77 A 7 7 0 0 0 123 70 z M 151 70 A 7 7 0 0 0 144 77 A 7 7 0 0 0 151 84 A 7 7 0 0 0 158 77 A 7 7 0 0 0 151 70 z M 137 84 A 7 7 0 0 0 130 91 A 7 7 0 0 0 137 98 A 7 7 0 0 0 144 91 A 7 7 0 0 0 137 84 z "/>
  <path style="opacity:0.20;fill:#ffffff" d="M 95.67 31 C 47.89 31.00 42.32 31.77 32.73 39.72 C 22.46 48.23 21.34 52.69 18.12 97.79 C 16.87 115.31 16.06 131.52 16.02 138.95 C 16.13 131.07 16.93 115.46 18.12 98.79 C 21.34 53.69 22.46 49.23 32.73 40.72 C 42.32 32.77 47.89 32.00 95.67 32 C 144.19 32 149.24 32.75 159.33 41.40 C 165.68 46.85 168.77 51.39 170.94 63.73 C 171.52 67.07 171.87 70.03 171.97 73.32 C 171.91 69.64 171.58 66.39 170.94 62.73 C 168.77 50.39 165.68 45.85 159.33 40.40 C 149.24 31.75 144.19 31 95.67 31 z "/>
</svg>
