<?xml version='1.0' encoding='utf-8'?>
<svg xmlns="http://www.w3.org/2000/svg" width="192" height="192" version="1" id="svg18">
  <defs>
    <filter style="color-interpolation-filters:sRGB" id="filter857" x="0.05" width="1.09" y="0.05" height="1.10">
      <feGaussianBlur stdDeviation="3.12"/>
    </filter>
    <filter style="color-interpolation-filters:sRGB" id="filter892" x="0.05" width="1.10" y="0.05" height="1.10">
      <feGaussianBlur stdDeviation="0.89"/>
    </filter>
    <filter style="color-interpolation-filters:sRGB" id="filter908" x="0.05" width="1.10" y="0.05" height="1.10">
      <feGaussianBlur stdDeviation="1.84"/>
    </filter>
  </defs>
  <path d="M 21.00,55.91 A 12.09,12.98 53.63 0 0 18.77,73.64 L 103.77,171.98 a 12.09,12.98 53.63 0 0 21.70,-4.66 l 24.83,-63.59 24.82,-63.59 A 12.09,12.98 53.63 0 0 161.43,24.29 L 94.10,38.71 26.77,53.14 a 12.09,12.98 53.63 0 0 -5.78,2.77 z" style="filter:url(#filter857);opacity:0.20"/>
  <path d="m 21.00,51.91 c -5.66,4.59 -6.67,12.59 -2.23,17.73 L 103.77,167.98 c 6.09,7.04 18.14,4.45 21.70,-4.66 l 17.24,-44.16 5.20,-19.16 25.36,-63.59 c 3.56,-9.11 0.26,-15.48 -9.39,-13.41 L 93.84,36.84 73.57,39.11 26.77,49.14 c -2.10,0.45 -4.09,1.40 -5.78,2.77 z" style="fill:#02abe6"/>
  <path d="m 131.31,30.74 -37.21,7.97 -21.13,4.53 69.55,80.45 7.79,-19.96 13.72,-35.15 z" style="filter:url(#filter908);opacity:0.20"/>
  <path d="m 131.31,26.74 -37.21,7.97 -21.13,4.53 69.55,80.45 7.79,-19.96 13.72,-35.15 z" style="fill:#84cd25"/>
  <path d="m 163.88,23.00 a 12.09,12.98 53.63 0 0 -2.45,0.30 l -30.12,6.45 32.71,37.84 11.10,-28.44 A 12.09,12.98 53.63 0 0 163.88,23.00 Z" style="filter:url(#filter892);opacity:0.20"/>
  <path d="m 163.88,20 a 12.09,12.98 53.63 0 0 -2.45,0.30 L 131.31,26.74 164.02,64.59 175.12,36.15 A 12.09,12.98 53.63 0 0 163.88,20 Z" style="fill:#ffe344"/>
  <path style="opacity:0.20;fill:#ffffff" d="M 163.88 20 A 12.09 12.98 53.63 0 0 161.43 20.30 L 94.10 34.71 L 26.77 49.14 A 12.09 12.98 53.63 0 0 21 51.91 L 20.99 51.91 A 12.09 12.98 53.63 0 0 16.03 62.54 A 12.09 12.98 53.63 0 1 20.99 52.91 L 21 52.91 A 12.09 12.98 53.63 0 1 26.77 50.14 L 94.10 35.71 L 161.43 21.30 A 12.09 12.98 53.63 0 1 163.88 21 A 12.09 12.98 53.63 0 1 175.98 31.99 A 12.09 12.98 53.63 0 0 163.88 20 z "/>
</svg>
