<?xml version='1.0' encoding='utf-8'?>
<svg xmlns="http://www.w3.org/2000/svg" width="192" height="192" version="1.1" id="svg14">
  <defs>
    <filter style="color-interpolation-filters:sRGB" id="filter6095" x="0.05" y="0.05" width="1.10" height="1.09">
      <feGaussianBlur stdDeviation="2.76"/>
    </filter>
    <filter style="color-interpolation-filters:sRGB" id="filter6099" x="0.05" y="0.05" width="1.10" height="1.10">
      <feGaussianBlur stdDeviation="3.21"/>
    </filter>
    <filter style="color-interpolation-filters:sRGB" id="filter6141" x="0.05" y="0.04" width="1.11" height="1.09">
      <feGaussianBlur stdDeviation="1.95"/>
    </filter>
  </defs>
  <path style="filter:url(#filter6095);opacity:0.20;fill:#000000" d="m 145.98,102.45 c 0,44.18 -5.06,69.45 -49.24,69.45 -3.77,0 -8.21,7.84 -11.83,7.33 C 45.97,173.83 16,140.42 16,100 16,83.30 21.12,67.79 29.87,54.96 44.27,33.86 71.30,33.09 98.78,33.09 c 44.18,0 47.19,25.18 47.19,69.36 z"/>
  <path style="fill:#3f62da" d="m 145.98,98.45 c 0,44.18 -5.06,69.45 -49.24,69.45 -3.77,0 -8.21,7.84 -11.83,7.33 C 45.97,169.83 16,136.42 16,96 16,79.30 21.12,63.79 29.87,50.96 44.27,29.86 71.30,29.09 98.78,29.09 c 44.18,0 47.19,25.18 47.19,69.36 z"/>
  <path style="filter:url(#filter6099);opacity:0.20;fill:#000000" d="M 96,20 A 80,80 0 0 0 26.92,60.00 C 39.76,44.70 59.09,35.00 80.71,35 121.91,35 140.45,69.54 139,101 c -1.22,26.51 -22.62,43.90 -43.00,66 -3.27,2.82 -8.48,7.45 -13.35,11.76 A 80,80 0 0 0 96,180 80,80 0 0 0 176,100 80,80 0 0 0 96,20 Z"/>
  <path style="fill:#3b8ffe" d="M 96 16 A 80 80 0 0 0 26.92 56.00 C 39.76 40.70 59.09 31.00 80.71 31 C 121.91 31 140.45 65.54 139 97 C 137.78 123.51 116.38 140.90 96.00 163 C 92.72 165.82 87.52 170.45 82.64 174.76 A 80 80 0 0 0 96 176 A 80 80 0 0 0 176 96 A 80 80 0 0 0 96 16 z "/>
  <path style="filter:url(#filter6141);opacity:0.20;fill:#000000" d="m 101.69,159.97 c 9.34,-9.34 23.30,-26.26 29.19,-35.37 4.69,-7.26 7.34,-14.51 7.97,-21.83 C 140.54,83.08 128.34,64.41 109.71,58.17 98.95,54.57 86.73,55.48 76.51,60.65 60.27,68.86 50.74,87.22 53.46,105.09 c 1.29,8.51 5.11,16.19 13.86,27.90 8.61,11.52 23.00,27.87 27.28,30.99 L 96.00,165 l 1.13,0.80 c 0.62,0.44 2.68,-2.34 4.56,-4.23 z"/>
  <path style="fill:#ffffff" d="m 101.69,157.97 c 9.34,-9.34 23.30,-26.26 29.19,-35.37 4.69,-7.26 7.34,-14.51 7.97,-21.83 C 140.54,81.08 128.34,62.41 109.71,56.17 98.95,52.57 86.73,53.48 76.51,58.65 60.27,66.86 50.74,85.22 53.46,103.09 c 1.29,8.51 5.11,16.19 13.86,27.90 8.61,11.52 23.00,27.87 27.28,30.99 L 96.00,163 l 1.13,0.80 c 0.62,0.44 2.68,-2.34 4.56,-4.23 z"/>
  <circle style="fill:#57b8fd" cx="118.50" cy="110.50" r="8.50"/>
  <path style="fill:#57b8fd" d="m 70.93,119.52 c -3.24,-1.15 -5.20,-3.59 -5.79,-7.19 0.36,-2.19 0.26,-2.72 3.33,-17.85 2.17,-9.14 4.03,-16.18 4.49,-17.02 1.07,-1.96 3.45,-3.68 5.80,-4.20 3.36,0.75 5.02,0.01 10.82,4.83 2.72,2.27 5.22,4.23 5.56,4.37 0.90,0.34 1.70,0.17 6.45,-4.16 5.71,-4.79 6.45,-5.20 9.37,-5.19 2.79,0.02 4.72,0.88 6.50,2.91 1.44,1.64 1.67,2.24 2.82,7.23 1.02,4.46 0.97,6.51 0.21,8.82 0.98,1.91 -3.32,4.26 -5.31,4.82 -1.51,0.42 -2.39,0.01 -5.63,0.60 -1.21,0.22 -1.50,0.06 -5.05,2.90 C 99.19,103.25 98.65,104 95.53,104 c -2.74,0 -3.99,0.95 -6.08,-2.79 -1.30,-1.14 -2.21,-1.40 -3.41,0.99 -1.02,0.34 -1.29,1.10 -3.02,8.33 -1.69,7.06 -2.15,8.19 -3.91,9.53 -2.48,1.89 -5.44,2.41 -8.17,1.43 z"/>
  <path style="opacity:0.20;fill:#ffffff" d="M 96 16 A 80 80 0 0 0 16 96 A 80 80 0 0 0 16.02 96.64 A 80 80 0 0 1 96 17 A 80 80 0 0 1 106.03 17.65 A 80 80 0 0 1 106.65 17.73 A 80 80 0 0 1 116.36 19.65 A 80 80 0 0 1 116.88 19.80 A 80 80 0 0 1 135.53 27.48 A 80 80 0 0 1 135.99 27.74 A 80 80 0 0 1 144.34 33.28 A 80 80 0 0 1 144.62 33.49 A 80 80 0 0 1 152.31 40.19 A 80 80 0 0 1 159.06 47.81 A 80 80 0 0 1 159.33 48.15 A 80 80 0 0 1 165.01 56.56 A 80 80 0 0 1 165.07 56.67 A 80 80 0 0 1 169.70 65.91 A 80 80 0 0 1 173.05 75.55 A 80 80 0 0 1 173.15 75.92 A 80 80 0 0 1 175.22 85.92 A 80 80 0 0 1 175.22 85.93 A 80 80 0 0 1 175.22 85.93 A 80 80 0 0 1 175.98 96.28 A 80 80 0 0 1 175.98 96.30 A 80 80 0 0 0 176 96 A 80 80 0 0 0 96 16 z "/>
</svg>
