<svg xmlns="http://www.w3.org/2000/svg" id="svg16" width="192" height="192" version="1"><defs><filter style="color-interpolation-filters:sRGB" id="filter867" width="1.1" height="1.1" x=".05" y=".05"><feGaussianBlur stdDeviation="3.2"/></filter><filter style="color-interpolation-filters:sRGB" id="filter1695" width="1.09" height="1.1" x=".05" y=".05"><feGaussianBlur stdDeviation="1.54"/></filter></defs><rect width="160" height="160" x="-180" y="-176" rx="80" ry="80" transform="matrix(0,-1,-1,0,0,0)" style="filter:url(#filter867);opacity:.2;fill:#000"/><rect style="fill:#2497f1" width="160" height="160" x="-176" y="-176" rx="80" ry="80" transform="matrix(0,-1,-1,0,0,0)"/><path style="opacity:.2;fill:#fff" d="M 96 16 C 51.68 16 16 51.68 16 96 C 16 96.34 16.00 96.67 16 97 C 16 52.68 51.68 17 96 17 C 140.32 17 176 52.68 176 97 C 176.00 96.67 176 96.34 176 96 C 176 51.68 140.32 16 96 16 z"/><path style="filter:url(#filter1695);opacity:.2;fill:#000" d="m 85.75,59 c -2.05,0 -2.05,0.00 -3.99,2.08 L 76.20,68 H 63.20 C 58.69,68 55,71.06 55,75.46 V 123.00 C 55,127.40 58.69,131 63.20,131 H 128.80 C 133.31,131 137,127.40 137,123.00 V 75.46 C 137,71.06 133.31,68.11 128.80,68 h -13.00 l -5.62,-7.00 C 108.30,59.00 108.30,59 106.25,59 Z m 9.95,21 c 0.10,0.00 0.20,0.00 0.30,0 11.05,0.00 20.00,8.95 20,20 0,11.05 -8.95,20 -20,20 -11.05,0 -20.00,-8.95 -20,-20 0.00,-10.93 8.77,-19.83 19.70,-20 z m 0.01,8 C 89.19,88.16 84.00,93.49 84,100 c 0.00,6.63 5.37,12 12,12 6.63,0 12,-5.37 12,-12 0,-6.63 -5.37,-12.00 -12,-12 0.10,0.00 0.20,0.00 0.29,0 z"/><path style="fill:#fff" d="M 85.75 57 C 83.70 57 83.70 57.00 81.76 59.08 L 76.20 66 L 63.20 66 C 58.69 66 55 69.06 55 73.46 L 55 121.00 C 55 125.40 58.69 129 63.20 129 L 128.80 129 C 133.31 129 137 125.40 137 121.00 L 137 73.46 C 137 69.06 133.31 66.11 128.80 66 L 115.80 66 L 110.17 59.00 C 108.30 57.00 108.30 57 106.25 57 L 85.75 57 z M 95.70 78 C 95.80 78.00 95.90 78.00 96 78 C 107.05 78.00 116.00 86.95 116 98 C 116 109.05 107.05 118 96 118 C 84.95 118 76.00 109.05 76 98 C 76.00 87.07 84.77 78.17 95.70 78 z M 95.71 86 C 89.19 86.16 84.00 91.49 84 98 C 84.00 104.63 89.37 110 96 110 C 102.63 110 108 104.63 108 98 C 108 91.37 102.63 86.00 96 86 C 95.90 86.00 95.80 86.00 95.71 86 z"/></svg>