<?xml version='1.0' encoding='utf-8'?>
<svg xmlns="http://www.w3.org/2000/svg" width="192" height="192" version="1" id="svg28">
  <defs>
    <filter style="color-interpolation-filters:sRGB" id="filter1309" x="0.05" y="0.05" width="1.09" height="1.10">
      <feGaussianBlur stdDeviation="3.01"/>
    </filter>
    <filter style="color-interpolation-filters:sRGB" id="filter1351" x="0.07" y="0.08" width="1.14" height="1.16">
      <feGaussianBlur stdDeviation="2.61"/>
    </filter>
  </defs>
  <path style="filter:url(#filter1351);opacity:0.20;fill:#000000;color:#000000" d="m 125.50,60 a 8.35,8.42 0 0 0 -7.23,4.21 L 100.19,95.79 82.12,127.37 A 8.35,8.42 0 0 0 89.35,140 h 36.15 36.15 a 8.35,8.42 0 0 0 7.23,-12.63 L 150.81,95.79 132.73,64.21 A 8.35,8.42 0 0 0 125.50,60 Z"/>
  <path style="fill:#316bd5;color:#000000" d="m 125.50,58 a 8.35,8.42 0 0 0 -7.23,4.21 L 100.19,93.79 82.12,125.37 A 8.35,8.42 0 0 0 89.35,138 h 36.15 36.15 a 8.35,8.42 0 0 0 7.23,-12.63 L 150.81,93.79 132.73,62.21 A 8.35,8.42 0 0 0 125.50,58 Z"/>
  <path style="filter:url(#filter1309);opacity:0.20;fill:#000000;color:#000000" d="m 159,25.00 a 17,17 0 0 0 -17,17 17,17 0 0 0 17,17 17,17 0 0 0 17,-17 17,17 0 0 0 -17,-17 z m -83.50,36 a 11.17,11.16 0 0 0 -9.67,5.58 L 41.66,108.42 17.50,150.26 a 11.17,11.16 0 0 0 9.67,16.74 h 48.34 48.34 a 11.17,11.16 0 0 0 9.67,-16.74 L 109.34,108.42 85.17,66.58 A 11.17,11.16 0 0 0 75.50,61.00 Z"/>
  <path style="opacity:0.10;fill:#ffffff;color:#000000" d="M 125.50 58 A 8.35 8.42 0 0 0 118.27 62.21 L 100.19 93.79 L 82.12 125.37 A 8.35 8.42 0 0 0 81.08 130.45 A 8.35 8.42 0 0 1 82.12 126.37 L 100.19 94.79 L 118.27 63.21 A 8.35 8.42 0 0 1 125.50 59 A 8.35 8.42 0 0 1 132.73 63.21 L 150.80 94.79 L 168.88 126.37 A 8.35 8.42 0 0 1 169.96 129.99 A 8.35 8.42 0 0 0 168.88 125.37 L 150.80 93.79 L 132.73 62.21 A 8.35 8.42 0 0 0 125.50 58 z "/>
  <path style="fill:#00c2af;color:#000000" d="m 75.50,58.00 a 11.17,11.16 0 0 0 -9.67,5.58 L 41.66,105.42 17.50,147.26 A 11.17,11.16 0 0 0 27.16,164 h 48.34 48.34 a 11.17,11.16 0 0 0 9.67,-16.74 L 109.34,105.42 85.17,63.58 a 11.17,11.16 0 0 0 -9.67,-5.58 z"/>
  <circle style="fill:#ffa20c" cx="159" cy="39" r="17"/>
  <path style="opacity:0.20;fill:#ffffff;color:#000000" d="M 75.50 58 A 11.17 11.16 0 0 0 65.83 63.58 L 41.66 105.42 L 17.50 147.26 A 11.17 11.16 0 0 0 16.09 153.92 A 11.17 11.16 0 0 1 17.50 148.26 L 41.66 106.42 L 65.83 64.58 A 11.17 11.16 0 0 1 75.50 59 A 11.17 11.16 0 0 1 85.17 64.58 L 109.34 106.42 L 133.50 148.26 A 11.17 11.16 0 0 1 134.96 153.14 A 11.17 11.16 0 0 0 133.50 147.26 L 109.34 105.42 L 85.17 63.58 A 11.17 11.16 0 0 0 75.50 58 z "/>
  <path style="opacity:0.20;fill:#ffffff" d="M 159 22 A 17 17 0 0 0 142 39 A 17 17 0 0 0 142.04 39.50 A 17 17 0 0 1 159 23 A 17 17 0 0 1 175.98 39.25 A 17 17 0 0 0 176 39 A 17 17 0 0 0 159 22 z "/>
</svg>
