<?xml version='1.0' encoding='utf-8'?>
<svg xmlns="http://www.w3.org/2000/svg" width="192" height="192" version="1" id="svg28">
  <defs>
    <filter style="color-interpolation-filters:sRGB" id="filter901" x="0.05" width="1.10" y="0.05" height="1.10">
      <feGaussianBlur stdDeviation="3.20"/>
    </filter>
    <filter style="color-interpolation-filters:sRGB" id="filter1957" x="0.05" y="0.05" width="1.10" height="1.10">
      <feGaussianBlur stdDeviation="1.88"/>
    </filter>
    <filter style="color-interpolation-filters:sRGB" id="filter925" x="0.05" y="0.05" width="1.10" height="1.10">
      <feGaussianBlur stdDeviation="1.76"/>
    </filter>
  </defs>
  <rect style="filter:url(#filter901);opacity:0.20;fill:#000000" width="160" height="160" x="-180" y="-176" rx="12" ry="12" transform="matrix(0,-1,-1,0,0,0)"/>
  <rect transform="matrix(0,-1,-1,0,0,0)" ry="12" rx="12" y="-176" x="-176" height="160" width="160" style="fill:#606060"/>
  <path style="filter:url(#filter1957);opacity:0.20;fill:#000000;stop-color:#000000" d="m 52,51 c -1.66,0 -3,1.34 -3,3 v 26 c 0,1.66 1.34,3 3,3 h 52 c 1.66,0 3,-1.34 3,-3 V 54 c 0,-1.66 -1.34,-3 -3,-3 z m 62,0 c -1.66,0 -3,1.34 -3,3 v 52 c 0,1.66 1.34,3 3,3 h 26 c 1.66,0 3,-1.34 3,-3 V 54 c 0,-1.66 -1.34,-3 -3,-3 z M 52,87 c -1.66,0 -3,1.34 -3,3 v 52 c 0,1.66 1.34,3 3,3 h 26 c 1.66,0 3,-1.34 3,-3 V 90 c 0,-1.66 -1.34,-3 -3,-3 z m 36,26 c -1.66,0 -3,1.34 -3,3 v 26 c 0,1.66 1.34,3 3,3 h 52 c 1.66,0 3,-1.34 3,-3 v -26 c 0,-1.66 -1.34,-3 -3,-3 z"/>
  <path style="opacity:0.10;fill:#ffffff" d="m 28,16 c -6.65,0 -12,5.35 -12,12 v 1 c 0,-6.65 5.35,-12 12,-12 h 136 c 6.65,0 12,5.35 12,12 v -1 c 0,-6.65 -5.35,-12 -12,-12 z"/>
  <rect style="fill:#bcbcbc;stop-color:#000000" width="58" height="32" x="49" y="49" rx="3" ry="3"/>
  <rect style="fill:#bcbcbc;stop-color:#000000" width="58" height="32" x="49" y="-143" rx="3" ry="3" transform="rotate(90)"/>
  <rect style="fill:#bcbcbc;stop-color:#000000" width="58" height="32" x="85" y="111" rx="3" ry="3"/>
  <rect style="fill:#bcbcbc;stop-color:#000000" width="58" height="32" x="85" y="-81" rx="3" ry="3" transform="rotate(90)"/>
  <path style="opacity:0.20;fill:#ffffff;stop-color:#000000" d="m 52,49 c -1.66,0 -3,1.34 -3,3 v 1 c 0,-1.66 1.34,-3 3,-3 h 52 c 1.66,0 3,1.34 3,3 v -1 c 0,-1.66 -1.34,-3 -3,-3 z m 62,0 c -1.66,0 -3,1.34 -3,3 v 1 c 0,-1.66 1.34,-3 3,-3 h 26 c 1.66,0 3,1.34 3,3 v -1 c 0,-1.66 -1.34,-3 -3,-3 z M 52,85 c -1.66,0 -3,1.34 -3,3 v 1 c 0,-1.66 1.34,-3 3,-3 h 26 c 1.66,0 3,1.34 3,3 v -1 c 0,-1.66 -1.34,-3 -3,-3 z m 36,26 c -1.66,0 -3,1.34 -3,3 v 1 c 0,-1.66 1.34,-3 3,-3 h 52 c 1.66,0 3,1.34 3,3 v -1 c 0,-1.66 -1.34,-3 -3,-3 z"/>
  <circle style="filter:url(#filter925);opacity:0.20;fill:#000000" cx="144" cy="142" r="44"/>
  <circle style="fill:#ffc107" cx="144" cy="140" r="44"/>
  <path style="fill:#ffffff" d="m 137.95,115.99 0.01,0.02 h 0.01 z m 0,0.02 0.53,6.30 a 19.03,18.86 0 0 0 -5.56,3.20 l -5.80,-2.71 -6.05,10.40 5.26,3.62 a 19.03,18.86 0 0 0 0.29,3.18 19.03,18.86 0 0 0 0.28,3.20 l -5.26,3.61 6.05,10.39 5.78,-2.70 a 19.03,18.86 0 0 0 5.57,3.17 L 137.94,164 h 12.11 l 0.54,-6.32 a 19.03,18.86 0 0 0 5.55,-3.19 l 5.80,2.70 6.05,-10.39 -5.26,-3.62 A 19.03,18.86 0 0 0 163.02,140 a 19.03,18.86 0 0 0 0.28,-3.20 l 5.25,-3.60 -6.05,-10.40 -5.79,2.70 a 19.03,18.86 0 0 0 -5.57,-3.16 l 0.53,-6.34 z M 144,132 a 8.00,8.00 0 0 1 8,8 8.00,8.00 0 0 1 -8,8 8.00,8.00 0 0 1 -8,-8 8.00,8.00 0 0 1 8,-8 z"/>
</svg>
