<?xml version='1.0' encoding='utf-8'?>
<svg xmlns="http://www.w3.org/2000/svg" width="192" height="192" version="1" id="svg14">
  <defs>
    <filter style="color-interpolation-filters:sRGB" id="filter850" x="0.05" width="1.10" y="0.05" height="1.10">
      <feGaussianBlur stdDeviation="3.20"/>
    </filter>
    <filter style="color-interpolation-filters:sRGB" id="filter7497" x="0.11" y="0.11" width="1.22" height="1.22">
      <feGaussianBlur stdDeviation="4.33"/>
    </filter>
  </defs>
  <circle style="filter:url(#filter850);opacity:0.20;fill:#000000" cx="96" cy="100" r="80"/>
  <circle r="80" cy="96" cx="96" style="fill:#009cf1"/>
  <path style="opacity:0.20;fill:#ffffff" d="M 96 16 A 80 80 0 0 0 16 96 A 80 80 0 0 0 16.02 96.47 A 80 80 0 0 1 96 17 A 80 80 0 0 1 175.97 96.51 A 80 80 0 0 0 176 96 A 80 80 0 0 0 96 16 z "/>
  <path style="fill:#38adfa" d="m 688.81,257.00 c 0.33,0.33 -1.19,0.37 -1.92,0.08 0.80,0.32 0.56,0.56 0.60,0.60 1.05,0.04 1.64,0.19 1.31,0.53 z"/>
  <path style="filter:url(#filter7497);opacity:0.20;fill:#000000" d="m 96,50.00 a 48,48 0 0 0 -48,48 48,48 0 0 0 48,48.00 48,48 0 0 0 24.38,-6.76 l 14.48,5.69 c 6.65,1.78 11.14,2.56 8.35,-7.88 l -5.50,-15.53 A 48,48 0 0 0 144,98.00 a 48,48 0 0 0 -48,-48 z m 0,19 a 29,29 0 0 1 29,29 29,29 0 0 1 -29,29.00 29,29 0 0 1 -29,-29.00 29,29 0 0 1 29,-29 z"/>
  <path style="fill:#fffbfa" d="M 96 48 A 48 48 0 0 0 48 96 A 48 48 0 0 0 96 144 A 48 48 0 0 0 120.38 137.24 L 134.86 142.93 C 141.51 144.71 146.00 145.49 143.21 135.05 L 137.71 119.52 A 48 48 0 0 0 144 96 A 48 48 0 0 0 96 48 z M 96 67 A 29 29 0 0 1 125 96 A 29 29 0 0 1 96 125 A 29 29 0 0 1 67 96 A 29 29 0 0 1 96 67 z "/>
</svg>
