<svg xmlns="http://www.w3.org/2000/svg" id="svg28" width="192" height="192" version="1"><defs><filter style="color-interpolation-filters:sRGB" id="filter871" width="1.1" height="1.1" x=".05" y=".05"><feGaussianBlur stdDeviation="3.2"/></filter><filter style="color-interpolation-filters:sRGB" id="filter887" width="1.1" height="1.1" x=".05" y=".05"><feGaussianBlur stdDeviation="1.76"/></filter><filter style="color-interpolation-filters:sRGB" id="filter903" width="1.08" height="1.11" x=".04" y=".06"><feGaussianBlur stdDeviation="2.08"/></filter></defs><rect style="filter:url(#filter871);opacity:.2;fill:#000" width="160" height="160" x="-180" y="-176" rx="80" ry="80" transform="matrix(0,-1,-1,0,0,-4.00)"/><path d="M 118.00,122.00 V 54.00 L 54.00,122.00 v 0" style="fill:none;stroke:#fff;stroke-width:12;stroke-linecap:round;stroke-linejoin:round"/><rect width="160" height="160" x="-172" y="-176" rx="80" ry="80" transform="matrix(0,-1,-1,0,0,0)" style="fill:#4f4f4f"/><path style="opacity:.1;fill:#fff" d="M 96 12 C 51.68 12 16 47.68 16 92 C 16 92.12 16.01 92.23 16.01 92.35 C 16.36 48.33 51.90 13 96 13 C 140.11 13 175.65 48.34 175.99 92.36 C 175.99 92.24 176 92.12 176 92 C 176 47.68 140.32 12 96 12 z"/><path d="M 156,94.00 C 156,106 129.14,138 96,138 62.86,138 36,106 36,94.00 c 0,-12 26.86,-44 60,-44 33.14,0 60,32 60,44 z" style="filter:url(#filter903);opacity:.2"/><path d="M 91.73,48.25 C 60.60,50.82 36,80.52 36,92.00 36,103.41 60.31,132.86 91.20,135.72 68.90,133.27 54.01,114.43 54,92.00 c 0.02,-22.63 15.21,-41.56 37.73,-43.75 z m 9.07,0.03 C 123.10,50.73 137.99,69.57 138,92.00 137.98,114.63 122.79,133.56 100.27,135.75 131.40,133.18 156,103.48 156,92.00 156,80.59 131.69,51.14 100.80,48.28 Z" style="fill:#fff"/><circle cx="96" cy="92" r="44" style="fill:#3392f2"/><circle cx="96" cy="92" r="16" style="fill:#3f3f3f"/><circle cx="144" cy="144" r="44" style="filter:url(#filter887);opacity:.2"/><circle cx="144" cy="140" r="44" style="fill:#e24444"/><path style="fill:#fff" d="M 128.67,117 121,124.67 136.33,140.00 121,155.33 128.67,163 144.00,147.67 159.33,163 167,155.33 151.67,140.00 167,124.67 159.33,117 144.00,132.33 Z"/></svg>