<?xml version='1.0' encoding='utf-8'?>
<svg xmlns="http://www.w3.org/2000/svg" width="192" height="192" version="1" id="svg12">
  <defs>
    <filter style="color-interpolation-filters:sRGB" id="filter955" x="0.05" width="1.10" y="0.05" height="1.10">
      <feGaussianBlur stdDeviation="3.20"/>
    </filter>
    <filter style="color-interpolation-filters:sRGB" id="filter14135" x="0.06" y="0.11" width="1.11" height="1.23">
      <feGaussianBlur stdDeviation="3.52"/>
    </filter>
  </defs>
  <rect style="filter:url(#filter955);opacity:0.20;fill:#000000" width="160" height="160" x="16" y="20" rx="30" ry="30"/>
  <rect style="fill:#3f3f3f" width="160" height="160" x="16" y="16" rx="30" ry="30"/>
  <path style="filter:url(#filter14135);opacity:0.20;fill:#000000" d="m 98.78,56.00 c 0.54,0.01 -1.09,0.00 -1.64,0.04 -12.97,0.73 -19.43,5.23 -26.63,14.01 -4.53,5.55 -7.78,11.94 -10.65,20.67 -3.38,10.28 -3.53,11.29 -1.64,11.29 0.74,0 3.50,-3.92 6.13,-8.72 5.55,-10.11 14.84,-20.33 21.11,-23.23 6.35,-2.93 14.84,-2.71 21.28,0.56 6.85,3.47 14.76,12.59 19.93,22.96 2.31,4.63 4.50,8.42 4.88,8.42 1.83,0 3.96,-5.28 3.35,-8.31 -1.33,-6.57 -8.34,-19.57 -13.79,-25.57 -7.02,-7.71 -14.19,-12.02 -22.33,-12.12 z M 141.50,58.00 c -1.97,0.01 -3.71,1.13 -4.26,3.05 0.42,1.47 0.50,2.84 1.57,6.81 l 2.69,5.14 2.69,-5.14 c 2.07,-3.97 2.00,-5.34 1.57,-6.81 C 145.21,59.13 143.47,57.99 141.50,58.00 Z M 26.31,110.00 c -4.02,0.00 -5.11,0.14 -5.24,0.70 0.32,1.35 0.53,1.84 3.23,1.86 5.99,0.03 16.62,1.87 27.84,4.83 14.22,3.75 22.50,5.39 32.07,6.34 5.40,0.54 22.73,0.23 28.30,0.50 6.33,0.83 16.05,-2.89 25.59,-5.40 10.84,-2.86 20.35,-4.65 27.08,-5.08 5.19,0.34 6.09,0.65 5.76,-2.02 0.14,0.59 -1.14,0.73 -5.25,0.72 -6.26,0.01 -15.53,1.39 -27.09,4.04 -19.71,4.52 -26.38,5.36 -42.61,5.36 -16.23,0 -22.89,0.84 -42.61,-5.36 -11.56,-2.65 -20.83,-4.03 -27.09,-4.04 z m 4.13,6 c -1.39,0.01 -1.50,0.09 -1.41,1.16 0.09,1.02 0.31,1.19 1.67,1.29 7.03,0.56 11.73,1.67 32.13,7.64 6.96,2.03 14.74,3.74 20.03,4.40 5.19,0.64 20.40,0.68 25.53,0.06 6.07,0.73 13.57,-2.34 20.81,-4.46 20.40,-5.97 25.10,-7.08 32.13,-7.64 1.36,0.11 1.58,0.28 1.67,-1.29 0.09,-1.08 0.02,-1.17 -1.41,-1.16 -3.98,0.02 -11.59,1.24 -18.11,2.89 -28.92,7.34 -31.44,7.75 -47.46,7.75 -16.02,0 -18.54,0.41 -47.46,-7.75 -6.52,-1.65 -14.13,-2.87 -18.11,-2.89 z"/>
  <path style="opacity:0.10;fill:#ffffff" d="M 46 16 C 29.38 16 16 29.38 16 46 L 16 47 C 16 30.38 29.38 17 46 17 L 146 17 C 162.62 17 176 30.38 176 47 L 176 46 C 176 29.38 162.62 16 146 16 L 46 16 z "/>
  <path style="fill:#ffffff" d="m 141.50,56.00 c -1.97,0.01 -3.71,1.13 -4.26,3.05 0.42,1.47 0.50,2.84 1.58,6.81 L 141.50,71 l 2.68,-5.14 c 2.07,-3.97 2.00,-5.34 1.58,-6.81 0.55,-1.92 -2.29,-3.06 -4.26,-3.05 z"/>
  <path style="fill:#ffffff" d="m 64.35,91.28 c 5.55,-10.11 14.83,-20.33 21.10,-23.23 6.35,-2.93 14.84,-2.71 21.28,0.56 6.85,3.47 14.76,12.59 19.93,22.97 2.31,4.63 4.51,8.42 4.88,8.42 1.83,0 3.96,-5.28 3.35,-8.31 C 133.57,85.12 126.56,72.12 121.10,66.13 113.62,57.90 105.95,53.54 97.14,54.04 84.16,54.77 77.70,59.27 70.51,68.04 65.98,73.59 62.73,79.99 59.86,88.71 56.47,98.99 56.32,100 58.22,100 c 0.74,0 3.51,-3.92 6.14,-8.72 z"/>
  <path style="fill:#ffcd33" d="m 112.51,121.23 c 6.33,0.83 16.05,-2.89 25.59,-5.40 10.84,-2.86 20.35,-4.65 27.08,-5.08 5.19,0.34 6.09,0.65 5.76,-2.02 0.14,0.59 -1.14,0.73 -5.25,0.72 -6.26,0.01 -15.53,1.38 -27.09,4.03 -19.71,4.52 -26.38,5.36 -42.61,5.36 -16.23,0 -22.89,0.84 -42.61,-5.36 -11.56,-2.65 -20.83,-4.03 -27.09,-4.03 -4.02,0.00 -5.11,0.14 -5.24,0.70 0.32,1.35 0.53,1.84 3.23,1.85 5.99,0.03 16.62,1.87 27.84,4.83 14.22,3.75 22.50,5.39 32.07,6.34 5.40,0.54 22.73,0.23 28.30,0.50 z"/>
  <path style="fill:#007efc" d="m 108.37,128.55 c 6.07,0.73 13.57,-2.34 20.81,-4.46 20.40,-5.97 25.10,-7.08 32.13,-7.64 1.36,0.11 1.58,0.28 1.67,-1.30 0.09,-1.08 0.02,-1.17 -1.41,-1.16 -3.98,0.02 -11.59,1.24 -18.11,2.89 -28.92,7.34 -31.44,7.75 -47.46,7.75 -16.02,0 -18.54,0.41 -47.46,-7.75 -6.52,-1.65 -14.13,-2.87 -18.11,-2.89 -1.39,0.01 -1.50,0.09 -1.41,1.16 0.09,1.02 0.31,1.19 1.67,1.30 7.03,0.56 11.73,1.67 32.13,7.64 6.96,2.03 14.74,3.74 20.03,4.40 5.19,0.64 20.40,0.68 25.53,0.06 z"/>
</svg>
