<svg xmlns="http://www.w3.org/2000/svg" id="svg12" width="192" height="192" version="1"><defs><filter style="color-interpolation-filters:sRGB" id="filter963" width="1.1" height="1.1" x=".05" y=".05"><feGaussianBlur stdDeviation="3.2"/></filter><filter style="color-interpolation-filters:sRGB" id="filter967" width="1.09" height="1.11" x=".04" y=".05"><feGaussianBlur stdDeviation="2.06"/></filter></defs><rect style="filter:url(#filter963);opacity:.2;fill:#000" width="160" height="160" x="16" y="20" rx="8" ry="8"/><rect style="fill:#288cf4" width="160" height="160" x="16" y="16" rx="8" ry="8"/><path style="opacity:.2;fill:#fff" d="M 24 16 C 19.57 16 16 19.57 16 24 L 16 25 C 16 20.57 19.57 17 24 17 L 168 17 C 172.43 17 176 20.57 176 25 L 176 24 C 176 19.57 172.43 16 168 16 L 24 16 z"/><path style="filter:url(#filter967);opacity:.2" d="m 38.31,54 25.91,85.94 c 0.03,0.05 0.05,0.07 0.08,0.12 C 65.21,143.47 68.30,146 72,146 c 3.51,0 6.46,-2.28 7.54,-5.43 0.02,0.05 0.08,0.10 0.10,0.15 L 105.69,54 H 97.34 L 72,138.04 46.66,54 Z M 132,54 a 20,20 0 0 0 -20,20 v 20 h 8 v -8 -4 -8 c 0,-6.72 5.28,-12 12,-12 6.72,0 12,5.28 12,12 v 8 4 8 h 8 V 74 A 20,20 0 0 0 132,54 Z m 0,52 a 20,20 0 0 0 -20,20 20,20 0 0 0 20,20 h 20 v -8 h -8 -4 -8 c -6.72,0 -12,-5.28 -12,-12 0,-6.72 5.28,-12 12,-12 h 8 4 8 v -8 z"/><path style="fill:#fff" d="m 38.31,52 25.91,85.94 c 0.03,0.05 0.05,0.07 0.08,0.12 C 65.21,141.47 68.30,144 72,144 c 3.51,0 6.46,-2.28 7.54,-5.43 0.02,0.05 0.08,0.10 0.10,0.15 L 105.69,52 H 97.34 L 72,136.04 46.66,52 Z M 132,52 a 20,20 0 0 0 -20,20 v 20 h 8 v -8 -4 -8 c 0,-6.72 5.28,-12 12,-12 6.72,0 12,5.28 12,12 v 8 4 8 h 8 V 72 A 20,20 0 0 0 132,52 Z m 0,52 a 20,20 0 0 0 -20,20 20,20 0 0 0 20,20 h 20 v -8 h -8 -4 -8 c -6.72,0 -12,-5.28 -12,-12 0,-6.72 5.28,-12 12,-12 h 8 4 8 v -8 z"/></svg>