<?xml version='1.0' encoding='utf-8'?>
<svg xmlns="http://www.w3.org/2000/svg" width="192" height="192" version="1" id="svg14">
  <defs>
    <filter style="color-interpolation-filters:sRGB" id="filter1505" x="0.10" y="0.06" width="1.19" height="1.12">
      <feGaussianBlur stdDeviation="4.12"/>
    </filter>
    <filter style="color-interpolation-filters:sRGB" id="filter1512" x="0.04" y="-1.01" width="1.08" height="3.02">
      <feGaussianBlur stdDeviation="1.69"/>
    </filter>
    <filter style="color-interpolation-filters:sRGB" id="filter1890" x="0.09" y="0.15" width="1.17" height="1.29">
      <feGaussianBlur stdDeviation="2.50"/>
    </filter>
  </defs>
  <rect style="filter:url(#filter1505);opacity:0.20" width="104" height="160" x="44" y="20" rx="8" ry="8"/>
  <rect style="fill:#077063" width="104" height="120" x="44" y="32"/>
  <rect style="filter:url(#filter1512);opacity:0.15" width="104" height="4" x="44" y="30"/>
  <path style="fill:#30dd81" d="M 52 16 C 47.57 16 44 19.57 44 24 L 44 32 L 148 32 L 148 24 C 148 19.57 144.43 16 140 16 L 52 16 z M 44 152 L 44 168 C 44 172.43 47.57 176 52 176 L 140 176 C 144.43 176 148 172.43 148 168 L 148 152 L 44 152 z "/>
  <path style="opacity:0.30;fill:#000000" d="m 86,24 c -1.11,0 -2,0.89 -2,2 0,1.11 0.89,2 2,2 h 20 c 1.11,0 2,0.89 2,-2 0,-1.11 0.89,-2 -2,-2 z m 28,0 a 2,2 0 0 0 -2,2 2,2 0 0 0 2,2 2,2 0 0 0 2,-2 2,2 0 0 0 -2,-2 z M 92,156 c -2.22,0 -4,1.78 -4,4 v 8 c 0,2.22 1.78,4 4,4 h 8 c 2.22,0 4,-1.78 4,-4 v -8 c 0,-2.22 -1.78,-4 -4,-4 z m -28,4 c -2.22,0 -4,1.78 -4,4 0,2.22 1.78,4 4,4 h 8 c 2.22,0 4,-1.78 4,-4 0,-2.22 -1.78,-4 -4,-4 z m 56,0 c -2.22,0 -4,1.78 -4,4 0,2.22 1.78,4 4,4 h 8 c 2.22,0 4,-1.78 4,-4 0,-2.22 -1.78,-4 -4,-4 z"/>
  <path style="opacity:0.20;fill:#ffffff" d="M 52 16 C 47.57 16 44 19.57 44 24 L 44 25 C 44 20.57 47.57 17 52 17 L 140 17 C 144.43 17 148 20.57 148 25 L 148 24 C 148 19.57 144.43 16 140 16 L 52 16 z "/>
  <path style="filter:url(#filter1890);opacity:0.20;fill:#000000;color:#000000" d="m 67.83,70.72 a 3.28,3.28 0 0 0 -1.79,0.64 3.28,3.28 0 0 0 0.67,4.59 l 7.33,9.85 C 66.22,91.52 61.88,99.57 61.01,108.63 60.85,112.00 64.40,112 64.40,112 h 63.11 c 0,0 3.66,0.00 3.48,-3.54 0.91,-9.00 -5.25,-16.99 -11.69,-22.67 l 7.32,-9.84 a 3.28,3.28 0 0 0 0.67,-4.59 3.28,3.28 0 0 0 -2.43,0.62 3.28,3.28 0 0 0 -2.16,1.29 L 114,81.93 C 108.73,78.80 102.58,77 96.01,77 c -6.58,0 -12.74,1.81 -18.00,4.94 l -7.37,-9.90 a 3.28,3.28 0 0 0 -2.16,-1.29 3.28,3.28 0 0 0 0.64,0.03 z M 78.50,92 A 4.50,4.50 0 0 1 83,96.50 4.50,4.50 0 0 1 78.50,101 4.50,4.50 0 0 1 74,96.50 4.50,4.50 0 0 1 78.50,92 Z m 35,0 a 4.50,4.50 0 0 1 4.50,4.50 4.50,4.50 0 0 1 -4.50,4.50 4.50,4.50 0 0 1 -4.50,-4.50 4.50,4.50 0 0 1 4.50,-4.50 z"/>
  <path style="fill:#fbfefc;color:#000000" d="M 67.83 68.72 A 3.28 3.28 0 0 0 66.04 69.37 A 3.28 3.28 0 0 0 65.37 73.96 L 72.70 83.80 C 66.22 89.52 61.88 97.57 61.01 106.63 C 60.85 110.00 64.40 110 64.40 110 L 127.51 110 C 127.51 110 131.17 110.00 130.99 106.46 C 130.09 97.46 125.75 89.47 119.31 83.79 L 126.63 73.96 A 3.28 3.28 0 0 0 125.96 69.37 A 3.28 3.28 0 0 0 123.53 68.75 A 3.28 3.28 0 0 0 121.37 70.04 L 114 79.93 C 108.73 76.80 102.58 75 96.01 75 C 89.42 75 83.27 76.81 78.00 79.94 L 70.63 70.04 A 3.28 3.28 0 0 0 68.47 68.75 A 3.28 3.28 0 0 0 67.83 68.72 z M 78.50 90 A 4.50 4.50 0 0 1 83 94.50 A 4.50 4.50 0 0 1 78.50 99 A 4.50 4.50 0 0 1 74 94.50 A 4.50 4.50 0 0 1 78.50 90 z M 113.50 90 A 4.50 4.50 0 0 1 118 94.50 A 4.50 4.50 0 0 1 113.50 99 A 4.50 4.50 0 0 1 109 94.50 A 4.50 4.50 0 0 1 113.50 90 z "/>
</svg>
