<?xml version='1.0' encoding='utf-8'?>
<svg xmlns="http://www.w3.org/2000/svg" width="192" height="192" version="1" id="svg12">
  <defs>
    <filter style="color-interpolation-filters:sRGB" id="filter955" x="0.05" width="1.10" y="0.05" height="1.10">
      <feGaussianBlur stdDeviation="3.20"/>
    </filter>
    <filter style="color-interpolation-filters:sRGB" id="filter5145" x="0.06" y="0.09" width="1.13" height="1.18">
      <feGaussianBlur stdDeviation="2.72"/>
    </filter>
  </defs>
  <rect style="filter:url(#filter955);opacity:0.20;fill:#000000" width="160" height="160" x="16" y="20" rx="30" ry="30"/>
  <rect style="fill:#dd3434" width="160" height="160" x="16" y="16" rx="30" ry="30"/>
  <path style="filter:url(#filter5145);opacity:0.20;fill:#000000" d="m 136.50,62.00 a 12.50,12.50 0 0 0 -12.50,12.50 12.50,12.50 0 0 0 12.50,12.50 12.50,12.50 0 0 0 12.50,-12.50 12.50,12.50 0 0 0 -12.50,-12.50 z m -90.50,3 v 68.00 c 0,0 26.38,0.03 28.42,0.36 6.90,-1.34 11.91,-4.98 14.48,-9.97 C 90.43,119.70 91,117.25 91,113.64 91,105.45 86.87,99.36 79.95,97.32 l -2.10,0.62 1.56,-1.12 c 3.92,-2.81 6.05,-7.97 5.62,-13.59 0.62,-8.04 -5.18,-13.53 -13.11,-15.77 -2.02,0.57 -3.10,-1.22 -14.01,-1.22 z m 84,5 h 2 v 0.55 a 4,4 0 0 1 2,0.55 4,4 0 0 1 4,4 4,4 0 0 1 -4,4 4,4 0 0 1 -2,0.55 v 3.55 h -2 v -7 z m 7.85,0 h 2.30 l 2.54,4.47 2.38,-4.47 h 2.27 l -5.86,11 h -2.27 l 2.37,-4.44 z m -3.85,2 a 2,2 0 0 0 -2,2 2,2 0 0 0 2,2 2,2 0 0 0 2,-2 2,2 0 0 0 -2,-2 z m -6.50,3 a 1.50,1.50 0 0 1 1.50,1.50 1.50,1.50 0 0 1 -1.50,1.50 1.50,1.50 0 0 1 -1.50,-1.50 1.50,1.50 0 0 1 1.50,-1.50 z m -68.50,1 3.17,0.16 c 4.06,0.21 6.04,0.90 7.82,2.75 1.50,1.56 2.04,3.09 2.01,5.74 0.04,3.57 -1.31,5.75 -4.20,7.20 -1.71,0.85 -2.09,0.93 -5.32,1.04 L 59,93.00 v -8.50 z m 39,18 v 39.00 h 11 l 17,-23.51 v 23.51 h 11 V 94.00 H 126 L 109,117.66 V 94.00 Z m -39,9.00 5.41,0.13 c 6.22,0.15 7.85,0.59 10.05,2.69 1.88,1.80 2.55,3.49 2.54,6.38 0.01,3.10 0.79,5.03 -2.79,6.89 -2.22,2.07 -4.15,2.60 -10.24,2.77 L 59,122.00 v -9.50 z"/>
  <path style="fill:#ffffff" d="M 136.50 60 A 12.50 12.50 0 0 0 124 72.50 A 12.50 12.50 0 0 0 136.50 85 A 12.50 12.50 0 0 0 149 72.50 A 12.50 12.50 0 0 0 136.50 60 z M 46 63 L 46 131 C 46 131 72.38 131.03 74.42 130.64 C 81.32 129.30 86.33 125.66 88.90 120.67 C 90.43 117.70 91 115.25 91 111.64 C 91 103.45 86.87 97.36 79.95 95.32 L 77.84 94.70 L 79.40 93.58 C 83.32 90.78 85.46 85.61 85.03 79.99 C 84.41 71.95 79.84 66.46 71.92 64.22 C 69.89 63.65 68.82 63 57.91 63 L 46 63 z M 130 68 L 132 68 L 132 68.55 A 4 4 0 0 1 134 68 A 4 4 0 0 1 138 72 A 4 4 0 0 1 134 76 A 4 4 0 0 1 132 75.45 L 132 79 L 130 79 L 130 72 L 130 68 z M 137.85 68 L 140.15 68 L 142.69 72.47 L 145.07 68 L 147.34 68 L 141.48 79 L 139.21 79 L 141.57 74.56 L 137.85 68 z M 134 70 A 2 2 0 0 0 132 72 A 2 2 0 0 0 134 74 A 2 2 0 0 0 136 72 A 2 2 0 0 0 134 70 z M 127.50 73 A 1.50 1.50 0 0 1 129 74.50 A 1.50 1.50 0 0 1 127.50 76 A 1.50 1.50 0 0 1 126 74.50 A 1.50 1.50 0 0 1 127.50 73 z M 59 74 L 62.17 74.16 C 66.23 74.37 68.21 75.06 69.99 76.91 C 71.49 78.47 72.03 80.00 72 82.65 C 71.96 86.22 70.69 88.41 67.80 89.85 C 66.09 90.70 65.71 90.77 62.48 90.88 L 59 91 L 59 82.50 L 59 74 z M 98 92 L 98 131 L 109 131 L 126 107.49 L 126 131 L 137 131 L 137 92 L 126 92 L 109 115.66 L 109 92 L 98 92 z M 59 101 L 64.41 101.13 C 70.63 101.28 72.26 101.72 74.46 103.82 C 76.34 105.63 77.01 107.31 77 110.20 C 76.99 113.30 76.21 115.23 74.21 117.09 C 71.99 119.17 70.06 119.69 63.97 119.86 L 59 120 L 59 110.50 L 59 101 z "/>
  <path style="opacity:0.20;fill:#ffffff" d="M 46 16 C 29.38 16 16 29.38 16 46 L 16 47 C 16 30.38 29.38 17 46 17 L 146 17 C 162.62 17 176 30.38 176 47 L 176 46 C 176 29.38 162.62 16 146 16 L 46 16 z "/>
</svg>
