<?xml version='1.0' encoding='utf-8'?>
<svg xmlns="http://www.w3.org/2000/svg" width="192" height="192" version="1" id="svg30">
  <defs>
    <filter style="color-interpolation-filters:sRGB" id="filter876" x="-0.044000002" width="1.088" y="-0.052800002" height="1.1056">
      <feGaussianBlur stdDeviation="2.64"/>
    </filter>
    <filter style="color-interpolation-filters:sRGB" id="filter892" x="-0.047999999" width="1.096" y="-0.047999999" height="1.096">
      <feGaussianBlur stdDeviation="0.32"/>
    </filter>
    <filter style="color-interpolation-filters:sRGB" id="filter930" x="-0.048000001" width="1.096" y="-0.048000001" height="1.096">
      <feGaussianBlur stdDeviation="3.2"/>
    </filter>
  </defs>
  <rect style="filter:url(#filter930);opacity:0.2;fill:#000000" width="160" height="160" x="-180" y="-176" rx="8" ry="8" transform="matrix(0,-1,-1,0,0,0)"/>
  <rect transform="matrix(0,-1,-1,0,0,0)" ry="8" rx="8" y="-176" x="-176" height="160" width="160" style="fill:#3f3f3f"/>
  <path d="m 28,32 c -2.216,0 -4,1.784 -4,4 v 112 c 0,2.216 1.784,4 4,4 h 136 c 2.216,0 4,-1.784 4,-4 V 36 c 0,-2.216 -1.784,-4 -4,-4 H 60 Z" style="filter:url(#filter876);opacity:0.2"/>
  <path d="m 28,28 c -2.216,0 -4,1.784 -4,4 v 112 c 0,2.216 1.784,4 4,4 H 60 V 28 Z" style="fill:#d45736"/>
  <path style="opacity:0.1;fill:#ffffff" d="M 24 16 C 19.568 16 16 19.568 16 24 L 16 25 C 16 20.568 19.568 17 24 17 L 168 17 C 172.432 17 176 20.568 176 25 L 176 24 C 176 19.568 172.432 16 168 16 L 24 16 z "/>
  <path d="M 60,28 V 148 H 96 V 28 Z" style="fill:#e46b31"/>
  <path d="m 96,28 v 120 h 36 V 28 Z" style="fill:#ea812a"/>
  <path d="m 132,28 v 120 h 32 c 2.216,0 4,-1.784 4,-4 V 32 c 0,-2.216 -1.784,-4 -4,-4 z" style="fill:#eb9027"/>
  <path d="m 28,88 a 56,56 0 0 0 -4,0.14844 V 144 c 0,2.216 1.784,4 4,4 H 60 83.796876 A 56,56 0 0 0 84,144 56,56 0 0 0 28,88 Z" style="fill:#f3c4c4"/>
  <path d="m 28,104 a 40,40 0 0 0 -4,0.2422 V 144 c 0,2.216 1.784,4 4,4 h 32 7.796876 A 40,40 0 0 0 68,144 40,40 0 0 0 28,104 Z" style="fill:#ffffff"/>
  <circle r="8" cy="166" cx="96" style="filter:url(#filter892);opacity:0.1"/>
  <circle r="8" cy="164" cx="96" style="fill:#ffffff"/>
  <path style="opacity:0.2;fill:#ffffff" d="M 28 28 C 25.784 28 24 29.784 24 32 L 24 33 C 24 30.784 25.784 29 28 29 L 60 29 L 96 29 L 132 29 L 164 29 C 166.216 29 168 30.784 168 33 L 168 32 C 168 29.784 166.216 28 164 28 L 132 28 L 96 28 L 60 28 L 28 28 z "/>
</svg>
