<?xml version='1.0' encoding='utf-8'?>
<svg xmlns="http://www.w3.org/2000/svg" width="192" height="192" version="1" id="svg12">
  <defs>
    <filter style="color-interpolation-filters:sRGB" id="filter2245" x="0.05" y="0.04" width="1.11" height="1.09">
      <feGaussianBlur stdDeviation="2.86"/>
    </filter>
    <filter style="color-interpolation-filters:sRGB" id="filter2287" x="0.11" y="0.11" width="1.22" height="1.22">
      <feGaussianBlur stdDeviation="3.78"/>
    </filter>
  </defs>
  <path d="M 96.44,179.81 C 146.19,128.65 152.59,111.23 152.59,111.23 156.69,102.83 159,93.35 159,83.35 159,48.36 130.82,20 96.10,20 H 95.92 C 61.16,20 33,48.38 33,83.35 c 0,10.02 2.29,19.48 6.41,27.88 0,0 6.40,17.42 56.17,68.58 0.11,0.12 0.27,0.19 0.44,0.19 0.13,0 0.31,0.08 0.42,0.19 z" fill="#00bfa5" style="filter:url(#filter2245);opacity:0.20;fill:#000000"/>
  <path d="M 96.44,175.81 C 146.19,124.65 152.59,107.23 152.59,107.23 156.69,98.83 159,89.35 159,79.35 159,44.36 130.82,16 96.10,16 H 95.92 C 61.16,16 33,44.38 33,79.35 c 0,10.02 2.29,19.48 6.41,27.88 0,0 6.40,17.42 56.17,68.58 0.11,0.12 0.27,0.19 0.44,0.19 0.13,0 0.31,0.08 0.42,0.19 z" fill="#00bfa5" style="fill:#00d2b5"/>
  <path d="M 131.60,76.00 H 109.97 c -3.89,0 -6.97,3.23 -6.97,7.10 C 103,86.95 106.06,90 109.97,90 h 7.62 c 0.98,0 1.69,0.40 2.18,1.03 0.47,0.61 0.49,1.38 0.06,2.27 0.51,1.32 -1.28,2.62 -2.24,3.87 C 112.38,103.82 104.50,107.95 96.55,108 81.53,107.57 69.11,94.22 69,80.03 69.38,65.19 82.11,52.11 96.55,52 c 4.40,0 9.78,1.65 13.73,4.02 1.30,0.74 3.33,2.33 3.67,2.61 0.04,0.04 0.08,0.06 0.09,0.09 l 0.02,0.02 c 3.13,2.93 7.38,3.16 10.47,0.32 3.24,-3.00 3.29,-8.06 0.17,-11.13 l 0.13,0.11 c -2.13,-1.77 -4.44,-3.35 -6.98,-4.71 C 111.46,39.71 103.97,38 96.53,38 c -5.81,0 -11.30,1.12 -16.46,3.31 -5.08,2.22 -9.59,5.21 -13.54,8.95 -1.94,1.92 -3.69,3.98 -5.21,6.20 -1.52,2.21 -2.86,4.62 -3.97,7.20 C 55.11,68.92 54,74.37 54,80.07 c 0,5.75 1.13,11.19 3.35,16.29 2.16,4.95 5.23,9.38 9.16,13.27 3.87,3.83 8.39,6.87 13.54,9.06 C 85.20,120.90 90.68,122 96.51,122 c 5.30,0 10.36,0.89 15.22,-2.66 4.83,-1.77 9.08,-4.24 12.75,-7.41 3.67,-3.09 6.68,-6.83 9.05,-11.19 2.18,-4.00 3.55,-8.47 4.06,-13.40 l 0.11,0.95 c 0.06,0.37 0.26,-2.18 0.30,-3.41 v 0.50 c 0.06,-3.59 -2.84,-6.54 -6.40,-6.48 z" fill="#ffffff" style="filter:url(#filter2287);opacity:0.20;fill:#000000"/>
  <path d="M 131.60,74.00 H 109.97 c -3.89,0 -6.97,3.23 -6.97,7.10 C 103,84.95 106.06,88 109.97,88 h 7.62 c 0.98,0 1.69,0.40 2.18,1.03 0.47,0.61 0.49,1.38 0.06,2.27 0.51,1.32 -1.28,2.62 -2.24,3.87 C 112.38,101.82 104.50,105.95 96.55,106 81.53,105.57 69.11,92.22 69,78.03 69.38,63.19 82.11,50.11 96.55,50 c 4.40,0 9.78,1.65 13.73,4.02 1.30,0.74 3.33,2.33 3.67,2.61 0.04,0.04 0.08,0.06 0.09,0.09 l 0.02,0.02 c 3.13,2.93 7.38,3.16 10.47,0.32 3.24,-3.00 3.29,-8.06 0.17,-11.13 l 0.13,0.11 c -2.13,-1.77 -4.44,-3.35 -6.98,-4.71 C 111.46,37.71 103.97,36 96.53,36 c -5.81,0 -11.30,1.12 -16.46,3.31 -5.08,2.22 -9.59,5.21 -13.54,8.95 -1.94,1.92 -3.69,3.98 -5.21,6.20 -1.52,2.21 -2.86,4.62 -3.97,7.20 C 55.11,66.92 54,72.37 54,78.07 c 0,5.75 1.13,11.19 3.35,16.29 2.16,4.95 5.23,9.38 9.16,13.27 3.87,3.83 8.39,6.87 13.54,9.06 C 85.20,118.90 90.68,120 96.51,120 c 5.30,0 10.36,0.89 15.22,-2.66 4.83,-1.77 9.08,-4.24 12.75,-7.41 3.67,-3.09 6.68,-6.83 9.05,-11.19 2.18,-4.00 3.55,-8.47 4.06,-13.40 l 0.11,0.95 c 0.06,0.37 0.26,-2.18 0.30,-3.41 v 0.50 c 0.06,-3.59 -2.84,-6.54 -6.40,-6.48 z" fill="#ffffff"/>
  <path style="opacity:0.20;fill:#ffffff" d="M 95.92 16 C 61.16 16 33 44.38 33 79.35 C 33 79.51 33.01 79.66 33.01 79.82 C 33.30 45.09 61.34 17 95.92 17 L 96.10 17 C 130.64 17 158.70 45.07 158.99 79.82 C 158.99 79.66 159 79.51 159 79.35 C 159 44.36 130.82 16 96.10 16 L 95.92 16 z "/>
</svg>
