<?xml version='1.0' encoding='utf-8'?>
<svg xmlns="http://www.w3.org/2000/svg" width="192" height="192" version="1" id="svg28">
  <defs>
    <filter style="color-interpolation-filters:sRGB" id="filter29344" x="0.07" y="0.09" width="1.13" height="1.18">
      <feGaussianBlur stdDeviation="4.38"/>
    </filter>
    <filter style="color-interpolation-filters:sRGB" id="filter29389" x="0.12" y="0.06" width="1.23" height="1.11">
      <feGaussianBlur stdDeviation="1.75"/>
    </filter>
    <filter style="color-interpolation-filters:sRGB" id="filter29473" x="0.14" y="0.09" width="1.27" height="1.18">
      <feGaussianBlur stdDeviation="2.99"/>
    </filter>
  </defs>
  <path style="filter:url(#filter29389);opacity:0.20;fill:#000000" d="m 138,30 c -3.32,0 -6,2.68 -6,6 v 24 c 0,3.32 2.68,6 6,6 h 24 c 3.32,0 6,-2.68 6,-6 V 36 c 0,-3.32 -2.68,-6 -6,-6 z m 0,40 c -3.32,0 -6,2.68 -6,6 v 24 c 0,3.32 2.68,6 6,6 h 24 c 3.32,0 6,-2.68 6,-6 V 76 c 0,-3.32 -2.68,-6 -6,-6 z"/>
  <rect style="fill:#168bff" width="36" height="36" x="132" y="68" ry="6"/>
  <rect style="fill:#ee7500" width="36" height="36" x="132" y="28" ry="6"/>
  <rect transform="matrix(0,-1,-1,0,0,-1.00)" rx="12" y="-156" x="-180" height="120" width="160" style="filter:url(#filter29344);opacity:0.20;fill:#000000;mix-blend-mode:normal"/>
  <rect transform="matrix(0,-1,-1,0,0,0)" rx="12" y="-156" x="-176" height="120" width="160" style="fill:#ffcf16"/>
  <path style="filter:url(#filter29473);opacity:0.20;fill:#000000" d="m 95.18,58 c -2.37,0 -4.63,0.21 -6.79,0.64 -2.08,0.36 -4.35,1.15 -6.79,2.37 -2.44,1.22 -4.56,2.83 -6.36,4.84 -1.72,1.94 -3.20,4.66 -4.42,8.17 C 69.71,77.46 69.10,81.46 69.01,86 h 14.64 v 0.90 c 0,-4.16 1.11,-7.60 3.34,-10.32 C 89.29,72.05 92.12,71 95.50,71 c 3.23,0 6.12,0.87 8.28,3.24 2.15,2.37 3.23,5.31 3.23,8.82 0,2.37 0.65,4.48 -1.94,6.34 -1.22,1.86 -2.93,3.51 -4.72,4.95 -1.80,1.43 -3.59,2.97 -5.39,4.62 -1.80,1.65 -3.34,3.84 -4.63,6.56 C 89.11,108.18 88,111.30 88,114.88 V 116 h 14 c 0,-3.51 0.25,-5.56 1.04,-6.92 0.79,-1.36 2.80,-3.19 6.03,-5.48 5.03,-3.51 8.44,-6.74 10.23,-9.68 C 121.10,90.97 122,87.25 122,82.73 122,75.42 119.49,69.47 114.46,64.88 109.50,60.29 103.08,58 95.18,58 Z M 87,122 v 16 h 16 v -16 z"/>
  <path style="fill:#ee7500" d="M 95.18 56 C 92.81 56 90.55 56.21 88.39 56.64 C 86.31 57.00 84.05 57.79 81.60 59.01 C 79.16 60.23 77.04 61.84 75.25 63.85 C 73.52 65.79 72.05 68.51 70.83 72.02 C 69.71 75.46 69.10 79.46 69.01 84 L 83.65 84 L 83.65 83.10 C 83.65 78.94 84.76 75.50 86.99 72.77 C 89.29 70.05 92.12 69 95.50 69 C 98.73 69 101.62 69.87 103.78 72.24 C 105.93 74.60 107.01 77.54 107.01 81.05 C 107.01 83.42 106.36 85.53 105.07 87.40 C 103.85 89.26 102.14 90.91 100.35 92.34 C 98.55 93.78 96.76 95.32 94.96 96.97 C 93.17 98.62 91.62 100.80 90.33 103.53 C 89.11 106.18 88 109.30 88 112.88 L 88 114 L 102 114 C 102 110.49 102.25 108.44 103.04 107.08 C 103.83 105.71 105.84 103.89 109.07 101.59 C 114.10 98.08 117.51 94.85 119.31 91.91 C 121.10 88.97 122 85.25 122 80.73 C 122 73.42 119.49 67.47 114.46 62.88 C 109.50 58.29 103.08 56 95.18 56 z M 87 120 L 87 136 L 103 136 L 103 120 L 87 120 z "/>
  <path style="opacity:0.20;fill:#ffffff" d="M 48 16 C 41.35 16 36 21.35 36 28 L 36 29 C 36 22.35 41.35 17 48 17 L 144 17 C 150.65 17 156 22.35 156 29 L 156 28 C 156 21.35 150.65 16 144 16 L 48 16 z "/>
</svg>
