<?xml version='1.0' encoding='utf-8'?>
<svg xmlns="http://www.w3.org/2000/svg" width="192" height="192" version="1" id="svg12">
  <defs>
    <filter style="color-interpolation-filters:sRGB" id="filter1054" x="-0.048000001" y="-0.048000001" width="1.096" height="1.096">
      <feGaussianBlur stdDeviation="3.2"/>
    </filter>
    <filter style="color-interpolation-filters:sRGB" id="filter1058" x="-0.048" y="-0.048" width="1.096" height="1.096">
      <feGaussianBlur stdDeviation="2.24"/>
    </filter>
    <filter style="color-interpolation-filters:sRGB" id="filter16719" x="-0.06377002" y="-0.063770057" width="1.12754" height="1.1275401">
      <feGaussianBlur stdDeviation="2.2415772"/>
    </filter>
  </defs>
  <rect style="filter:url(#filter1054);opacity:0.2" width="160" height="160" x="16" y="20" rx="48" ry="48"/>
  <rect style="fill:#4e7ad9" width="160" height="160" x="16" y="16" rx="48" ry="48"/>
  <path style="filter:url(#filter1058);opacity:0.2" d="M 96,44 A 56,56 0 0 0 40,100 56,56 0 0 0 96,156 56,56 0 0 0 152,100 56,56 0 0 0 96,44 Z M 76,80 v 12 h 40 V 80 l 32,20 -32,20 V 108 H 76 v 12 L 44,100 Z"/>
  <path style="fill:#ffffff" d="m 95.591663,44.183641 c -30.927946,0 -51.681603,22.197517 -51.681603,53.125463 0,9.821306 -1.381772,17.742996 3.059454,25.767936 C 56.514001,140.32315 74.893363,152 96,152 c 30.92795,0 56,-25.07205 56,-56 0,-21.181276 -11.75959,-39.615954 -29.10613,-49.13141 -7.9821,-4.378585 -17.55554,-2.684949 -27.302207,-2.684949 z M 76,76 v 12 h 40 V 76 l 32,20 -32,20 V 104 H 76 v 12 L 44,96 Z"/>
  <path style="opacity:0.2;fill:#ffffff" d="M 64 16 C 37.408 16 16 37.408 16 64 L 16 65 C 16 38.408 37.408 17 64 17 L 128 17 C 154.592 17 176 38.408 176 65 L 176 64 C 176 37.408 154.592 16 128 16 L 64 16 z "/>
  <path style="filter:url(#filter16719);opacity:0.1;fill:#000000;stop-color:#000000" d="M 56.40202,58.4025 A 56,56 0 0 0 47.832493,126.369 L 124.43481,49.766683 A 56,56 0 0 0 56.40202,58.4025 Z"/>
  <path style="fill:#cccccc;stop-color:#000000" d="m 56.40202,56.40202 a 56,56 0 0 0 -8.569527,67.9665 L 124.43481,47.766203 A 56,56 0 0 0 56.40202,56.40202 Z"/>
  <text xml:space="preserve" style="fill:#4e7ad9;font-style:normal;font-weight:normal;font-size:35.7542px;line-height:1.25;font-family:sans-serif" x="-13.67598" y="112.18629" transform="rotate(-45)">
    <tspan x="-13.67598" y="112.18629" style="fill:#4e7ad9;font-style:normal;font-variant:normal;font-weight:bold;font-stretch:normal;font-family:sans-serif">H</tspan>
  </text>
</svg>
