<?xml version='1.0' encoding='utf-8'?>
<svg xmlns="http://www.w3.org/2000/svg" width="192" height="192" version="1" id="svg14">
  <defs>
    <filter style="color-interpolation-filters:sRGB" id="filter857" x="-0.048000001" width="1.096" y="-0.048000001" height="1.096">
      <feGaussianBlur stdDeviation="3.2"/>
    </filter>
    <filter style="color-interpolation-filters:sRGB" id="filter873" x="-0.050182595" width="1.1003652" y="-0.045999351" height="1.0919987">
      <feGaussianBlur stdDeviation="1.839974"/>
    </filter>
  </defs>
  <rect style="filter:url(#filter857);opacity:0.2" width="160" height="160" x="16" y="20" rx="48" ry="48"/>
  <rect style="fill:#00539b" width="160" height="160" x="16" y="16" rx="48" ry="48"/>
  <path style="opacity:0.1;fill:#ffffff" d="M 64 16 C 37.408 16 16 37.408 16 64 L 16 65 C 16 38.408 37.408 17 64 17 L 128 17 C 154.592 17 176 38.408 176 65 L 176 64 C 176 37.408 154.592 16 128 16 L 64 16 z "/>
  <path style="filter:url(#filter873);opacity:0.2" d="m 68.415368,50 -6.156252,36 h 29.5 L 94.001304,72 112.0013,98 86.001304,122 87.92318,110 H 58.157552 l -6.156248,36 H 83.805992 C 115.75752,144.52946 135.42019,125.954 139.32943,100.35156 142.77546,77.78278 133.49787,52.602456 97.821616,50 Z"/>
  <path style="fill:#ffcb05" d="m 68.415368,48 -6.156252,36 h 29.5 L 94.001304,70 112.0013,96 86.001304,120 87.92318,108 H 58.157552 l -6.156248,36 H 83.805992 C 115.75752,142.52946 135.42019,123.954 139.32943,98.351564 142.77546,75.78278 133.49787,50.602456 97.821616,48 Z"/>
  <path style="opacity:0.2;fill:#ffffff" d="M 68.414062 48 L 62.257812 84 L 62.429688 84 L 68.414062 49 L 97.820312 49 C 128.7358 51.255174 139.78649 70.462172 139.95117 90.234375 C 140.1546 70.114186 129.257 50.293194 97.820312 48 L 68.414062 48 z M 110.3125 97.5625 L 86.75 119.30469 L 86 124 L 86.1875 123.82617 L 86.75 120.30469 L 110.3125 98.5625 L 111.57812 100.39062 L 112 100 L 110.3125 97.5625 z M 58.15625 108 L 52 144 L 52.171875 144 L 58.15625 109 L 87.761719 109 L 87.921875 108 L 58.15625 108 z "/>
</svg>
