<?xml version='1.0' encoding='utf-8'?>
<svg xmlns="http://www.w3.org/2000/svg" width="192" height="192" version="1" id="svg18">
  <defs>
    <filter style="color-interpolation-filters:sRGB" id="filter859" x="-0.048000001" width="1.096" y="-0.048000001" height="1.096">
      <feGaussianBlur stdDeviation="3.2"/>
    </filter>
    <filter style="color-interpolation-filters:sRGB" id="filter875" x="-0.054316547" width="1.1086331" y="-0.042999525" height="1.085999">
      <feGaussianBlur stdDeviation="0.860012"/>
    </filter>
  </defs>
  <rect style="filter:url(#filter859);opacity:0.2;fill:#000000" width="160" height="160" x="-180" y="-176" rx="8" ry="8" transform="matrix(0,-1,-1,0,0,0)"/>
  <rect transform="matrix(0,-1,-1,0,0,0)" ry="8" rx="8" y="-176" x="-176" height="160" width="160" style="fill:#e84c2b"/>
  <path style="opacity:0.1;fill:#ffffff" d="M 24 16 C 19.568 16 16 19.568 16 24 L 16 25 C 16 20.568 19.568 17 24 17 L 168 17 C 172.432 17 176 20.568 176 25 L 176 24 C 176 19.568 172.432 16 168 16 L 24 16 z "/>
  <g transform="matrix(2,0,0,2,48,60)" style="filter:url(#filter875);opacity:0.2">
    <path d="m 42,-6.0008 -28,5 V 26.266 C 13.347,26.093 12.675,26.004 12,26 c -4.4183,0 -8,3.5817 -8,8 0,4.4183 3.5817,8 8,8 4.0287,-0.0038 7.4261,-3.0029 7.9297,-7 0,0 0.07031,-0.72732 0.07031,-1 V 3.9292 l 16,-2.8574 v 20.1938 c -0.653,-0.173 -1.325,-0.262 -2,-0.266 -4.4183,0 -8,3.5817 -8,8 0,4.4183 3.5817,8 8,8 4.0287,-0.0038 7.4261,-3.0029 7.9297,-7 l 0.07,-1 V -6.0012 Z"/>
  </g>
  <g transform="matrix(2,0,0,2,48,56)" style="fill:#ffffff">
    <path d="m 42,-6.0008 -28,5 V 26.266 C 13.347,26.093 12.675,26.004 12,26 c -4.4183,0 -8,3.5817 -8,8 0,4.4183 3.5817,8 8,8 4.0287,-0.0038 7.4261,-3.0029 7.9297,-7 0,0 0.07031,-0.72732 0.07031,-1 V 3.9292 l 16,-2.8574 v 20.1938 c -0.653,-0.173 -1.325,-0.262 -2,-0.266 -4.4183,0 -8,3.5817 -8,8 0,4.4183 3.5817,8 8,8 4.0287,-0.0038 7.4261,-3.0029 7.9297,-7 l 0.07,-1 V -6.0012 Z" style="fill:#ffffff"/>
  </g>
</svg>
