<?xml version='1.0' encoding='utf-8'?>
<svg xmlns="http://www.w3.org/2000/svg" width="192" height="192" version="1.1" id="svg14">
  <defs>
    <filter style="color-interpolation-filters:sRGB" id="filter849" x="-0.048000001" y="-0.048000001" width="1.096" height="1.096">
      <feGaussianBlur stdDeviation="3.2"/>
    </filter>
    <filter style="color-interpolation-filters:sRGB" id="filter2070" x="-0.047645721" y="-0.05231416" width="1.0952914" height="1.1046283">
      <feGaussianBlur stdDeviation="2.7800003"/>
    </filter>
  </defs>
  <rect style="filter:url(#filter849);opacity:0.2" width="160" height="160" x="16" y="20" rx="32" ry="32"/>
  <rect style="fill:#005397" width="160" height="160" x="16" y="16" rx="32" ry="32"/>
  <path style="filter:url(#filter2070);opacity:0.2;fill:#000000" d="m 129.76367,47 c -14.90138,0.01288 -30.176142,3.236773 -44.289061,9.347656 -44.40374,19.22624 -66.733512,61.743404 -49.875,94.964844 6.090164,11.9913 32.507637,17.17037 46.522741,23.22468 l 61.72018,-9.86234 c 1.99397,-0.72842 3.96597,-1.51149 5.91211,-2.34766 9.79665,-4.27716 6.36934,1.61645 14.17659,-4.99358 1.81273,-4.01995 2.97762,-8.47441 2.8457,-13.18359 L 164.60306,66.549595 C 151.97688,58.298519 147.22718,47.03112 129.76367,47 Z m -4.08789,24.023438 c 16.5163,-0.459628 30.69381,5.682444 38.36133,16.61914 13.62162,19.427942 3.15721,48.097302 -23.37305,64.035152 -26.53044,15.93687 -59.079455,13.10721 -72.701169,-6.32031 -13.621622,-19.42794 -3.15721,-48.097299 23.373047,-64.035154 10.574512,-6.35267 22.645132,-9.972757 34.339842,-10.298828 z"/>
  <path style="fill:#ffffff" d="M 129.76367 44 A 67.150477 87.846819 71.556853 0 0 85.474609 53.347656 A 67.150477 87.846819 71.556853 0 0 35.599609 148.3125 A 67.150477 87.846819 71.556853 0 0 66.447266 176 L 140.61328 176 A 67.150477 87.846819 71.556853 0 0 146.52539 173.65234 A 67.150477 87.846819 71.556853 0 0 173.1543 157.18359 C 174.96703 153.16364 176 148.71103 176 144 L 176 56.726562 A 67.150477 87.846819 71.556853 0 0 129.76367 44 z M 125.67578 68.023438 A 42.707612 56.23442 64.596157 0 1 164.03711 84.642578 A 42.707612 56.23442 64.596157 0 1 140.66406 148.67773 A 42.707612 56.23442 64.596157 0 1 67.962891 142.35742 A 42.707612 56.23442 64.596157 0 1 91.335938 78.322266 A 42.707612 56.23442 64.596157 0 1 125.67578 68.023438 z "/>
  <path style="opacity:0.1;fill:#ffffff" d="M 48,16 C 30.272,16 16,30.272 16,48 v 1 C 16,31.272 30.272,17 48,17 h 96 c 17.728,0 32,14.272 32,32 V 48 C 176,30.272 161.728,16 144,16 Z"/>
</svg>
