<svg xmlns="http://www.w3.org/2000/svg" id="svg20" width="192" height="192" version="1"><defs><filter style="color-interpolation-filters:sRGB" id="filter859" width="1.1" height="1.1" x=".05" y=".05"><feGaussianBlur stdDeviation="3.2"/></filter><filter style="color-interpolation-filters:sRGB" id="filter887" width="1.1" height="1.1" x=".05" y=".05"><feGaussianBlur stdDeviation="2.4"/></filter><filter style="color-interpolation-filters:sRGB" id="filter907" width="1.1" height="1.09" x=".05" y=".05"><feGaussianBlur stdDeviation="1.2"/></filter></defs><rect style="filter:url(#filter859);opacity:.2;fill:#000" width="160" height="160" x="-180" y="-176" rx="80" ry="80" transform="matrix(0,-1,-1,0,0,0)"/><rect width="160" height="160" x="-176" y="-176" rx="80" ry="80" transform="matrix(0,-1,-1,0,0,0)" style="fill:#8e2a6d"/><path style="opacity:.1;fill:#fff" d="M 96 16 C 51.68 16 16.01 51.68 16.01 96 C 16.01 96.34 16.01 96.67 16.01 97 C 16.01 52.68 51.68 17 96 17 C 140.32 17 175.99 52.68 175.99 97 C 175.99 96.67 175.99 96.34 175.99 96 C 175.99 51.68 140.32 16 96 16 z"/><rect width="120" height="120" x="-160" y="-156" rx="60" ry="60" transform="matrix(0,-1,-1,0,0,0)" style="filter:url(#filter887);opacity:.2"/><rect width="120" height="120" x="-156" y="-156" rx="60" ry="60" transform="matrix(0,-1,-1,0,0,0)" style="fill:#d960d1"/><path d="M 79.07,66.00 A 6.90,7.07 0 0 0 72,73.06 v 49.88 a 6.90,7.07 0 0 0 10.35,6.11 l 21.11,-12.46 21.10,-12.48 a 6.90,7.07 0 0 0 0,-12.22 L 103.46,79.42 82.35,66.96 a 6.90,7.07 0 0 0 -3.28,0.96 z" style="filter:url(#filter907);opacity:.1"/><path d="M 79.07,64.00 A 6.90,7.07 0 0 0 72,71.06 v 49.88 a 6.90,7.07 0 0 0 10.35,6.11 l 21.11,-12.46 21.10,-12.48 a 6.90,7.07 0 0 0 0,-12.22 L 103.46,77.42 82.35,64.96 a 6.90,7.07 0 0 0 -3.28,0.96 z" style="fill:#fff"/><path style="opacity:.1;fill:#fff" d="M 96 36 C 62.76 36 36 62.76 36 96 C 36 96.13 36.01 96.25 36.02 96.37 C 36.35 63.42 62.97 37 96 37 C 129.03 37 155.65 63.42 155.98 96.37 C 155.99 96.25 156 96.13 156 96 C 156 62.76 129.24 36 96 36 z"/></svg>