<?xml version='1.0' encoding='utf-8'?>
<svg xmlns="http://www.w3.org/2000/svg" width="192" height="192" version="1" id="svg26">
  <defs>
    <filter style="color-interpolation-filters:sRGB" id="filter868" x="0.05" width="1.10" y="0.05" height="1.10">
      <feGaussianBlur stdDeviation="3.20"/>
    </filter>
    <filter style="color-interpolation-filters:sRGB" id="filter5110" x="0.03" y="0.09" width="1.07" height="1.17">
      <feGaussianBlur stdDeviation="1.37"/>
    </filter>
    <filter style="color-interpolation-filters:sRGB" id="filter5114" x="0.03" y="0.09" width="1.07" height="1.17">
      <feGaussianBlur stdDeviation="1.37"/>
    </filter>
  </defs>
  <rect style="filter:url(#filter868);opacity:0.20;fill:#000000" width="160" height="160" x="-180" y="-176" rx="8" ry="8" transform="matrix(0,-1,-1,0,0,0)"/>
  <rect transform="matrix(0,-1,-1,0,0,0)" ry="8" rx="8" y="-176" x="-176" height="160" width="160" style="fill:#e4e4e4"/>
  <path style="opacity:0.20;fill:#ffffff" d="M 24 16 C 19.57 16 16 19.57 16 24 L 16 25 C 16 20.57 19.57 17 24 17 L 168 17 C 172.43 17 176 20.57 176 25 L 176 24 C 176 19.57 172.43 16 168 16 L 24 16 z "/>
  <path style="fill:#ffc500;color:#000000" d="m 55.78,71.63 -7.75,3.94 2.38,8.48 78.23,36.83 5.91,-1.25 9.73,-6.46 -2.88,-5.07 -79.87,-37.61 z"/>
  <path style="filter:url(#filter5114);opacity:0.15;fill:#000000;color:#000000" d="M 105.04,49.03 A 3.53,3.38 0 0 0 104.08,49.30 3.53,3.38 0 0 0 102,52.38 V 70.00 H 54.50 c -4.69,0 -8.50,3.81 -8.50,8.50 0,4.69 3.81,8.50 8.50,8.50 h 51.03 14.17 22.77 a 3.53,3.38 0 0 0 2.34,-5.91 L 107.86,49.85 a 3.53,3.38 0 0 0 -2.82,0.81 z"/>
  <path style="fill:#00c6a8;color:#000000" d="M 105.04 47.03 A 3.53 3.38 0 0 0 104.08 47.30 A 3.53 3.38 0 0 0 102 50.38 L 102 68 L 54.50 68 C 49.81 68 46 71.81 46 76.50 C 46 81.19 49.81 85 54.50 85 L 105.53 85 L 119.70 85 L 142.47 85 A 3.53 3.38 0 0 0 144.81 79.09 L 107.86 47.85 A 3.53 3.38 0 0 0 105.04 47.03 z "/>
  <path style="filter:url(#filter5110);opacity:0.15;fill:#000000;color:#000000" d="m 86.95,146.97 a 3.53,3.38 0 0 0 0.97,0.27 3.53,3.38 0 0 0 2.08,-3.08 V 126.00 H 137.50 c 4.69,0 8.50,-3.81 8.50,-8.50 0,-4.69 -3.81,-8.50 -8.50,-8.50 H 86.47 72.30 49.53 a 3.53,3.38 0 0 0 -2.34,5.91 l 36.95,31.24 a 3.53,3.38 0 0 0 2.82,0.81 z"/>
  <path style="fill:#ff9100;color:#000000" d="m 86.95,144.97 a 3.53,3.38 0 0 0 0.97,0.27 3.53,3.38 0 0 0 2.08,-3.08 V 124.00 H 137.50 c 4.69,0 8.50,-3.81 8.50,-8.50 0,-4.69 -3.81,-8.50 -8.50,-8.50 H 86.47 72.30 49.53 a 3.53,3.38 0 0 0 -2.34,5.91 l 36.95,31.24 a 3.53,3.38 0 0 0 2.82,0.81 z"/>
</svg>
