<?xml version='1.0' encoding='utf-8'?>
<svg xmlns="http://www.w3.org/2000/svg" width="192" height="192" version="1.1" id="svg12">
  <defs>
    <filter style="color-interpolation-filters:sRGB" id="filter845" x="0.05" y="0.05" width="1.10" height="1.10">
      <feGaussianBlur stdDeviation="3.20"/>
    </filter>
    <filter style="color-interpolation-filters:sRGB" id="filter867" x="0.05" y="0.05" width="1.10" height="1.09">
      <feGaussianBlur stdDeviation="2.16"/>
    </filter>
  </defs>
  <circle style="filter:url(#filter845);opacity:0.20" cx="96" cy="100" r="80"/>
  <circle style="fill:#e4e4e4" cx="96" cy="96" r="80"/>
  <path style="opacity:0.20;fill:#ffffff" d="M 96 16 A 80 80 0 0 0 16 96 A 80 80 0 0 0 16.02 96.64 A 80 80 0 0 1 96 17 A 80 80 0 0 1 175.98 96.30 A 80 80 0 0 0 176 96 A 80 80 0 0 0 96 16 z "/>
  <path style="filter:url(#filter867);opacity:0.20" d="m 117.75,90.28 c 0.01,0.01 0.03,0.03 0.04,0.05 C 119.26,88.43 116.51,69.28 109.91,58.89 c -2.16,-3.40 -3.49,-5.33 -5.01,-7.35 -6.09,-8.05 -9.35,-9.54 -9.35,-9.54 0,0 -21.77,16.72 -21.12,47.15 -2.73,0.10 -17.47,9.72 -23.09,20.41 -1.88,3.57 -2.89,5.68 -3.88,8.01 -3.95,9.28 -3.63,12.85 -3.63,12.85 0,0 25.34,10.58 51.42,-5.13 0.01,0.03 0.02,0.07 0.03,0.10 0.84,2.16 18.81,9.31 31.11,8.75 4.03,0.18 6.36,0.37 8.87,0.69 10.01,-1.27 12.92,-3.36 12.92,-3.36 0,0 -3.68,-25.23 -30.43,-39.80 z M 97.23,119.90 c 1.65,-1.84 7.24,-7.11 1.55,-15.62 0.39,0.59 0.77,0.37 0.77,0.37 0,0 0.10,14.85 -8.04,17.25 -8.14,2.39 -21.63,6.85 -31.82,0.71 -1.09,0.65 1.91,-18.25 20.01,-28.18 0.85,2.49 4.42,10.68 14.47,9.98 0.71,0.05 0.71,0.49 0.71,0.49 0,0 -14.67,-8.30 -12.70,-16.55 1.97,-8.25 4.81,-22.17 15.21,-27.95 1.11,0.62 16.74,11.83 16.22,32.61 -2.50,0.50 -11.49,-1.56 -15.93,7.58 0.31,0.64 0.07,0.86 0.07,0.86 0,0 14.50,-8.60 20.68,-2.79 6.18,5.81 16.84,13.20 16.68,25.10 0.02,1.27 -18.57,8.63 -36.34,-2.14 z M 73.59,74.86 c 0,0 -1.54,5.05 0.94,11.72 L 51.79,74.86 c 0.00,0 9.69,-6.56 21.80,0 z m -22.46,1.38 20.78,11.86 C 65.89,91.01 62.35,94.93 62.35,94.93 50.49,87.93 51.13,76.24 51.13,76.24 Z m 79.58,20.30 c 0,0 -3.62,-3.85 -9.70,-6.64 l 20.54,-12.27 c 0.00,0 0.88,11.67 -10.84,18.91 z m 9.97,-20.17 -20.62,12.14 c 0.47,-6.68 -1.17,-11.70 -1.17,-11.70 11.97,-6.81 21.79,0.44 21.79,0.44 z M 83.66,133.03 c 0,0 5.15,-1.15 10.66,-4.96 L 94.41,154 c 0,0.00 -10.49,-7.19 -10.75,-20.97 z m 12.27,20.86 0.07,-25.93 c 5.51,3.81 10.66,4.95 10.66,4.95 0.25,13.77 -10.73,20.97 -10.73,20.97 z"/>
  <path style="fill:#3f3f3f" d="m 117.75,88.28 c 0.01,0.01 0.03,0.03 0.04,0.05 1.46,-1.80 -1.28,-20.95 -7.89,-31.35 -2.16,-3.40 -3.49,-5.33 -5.01,-7.35 -6.09,-8.05 -9.35,-9.54 -9.35,-9.54 0,0 -21.77,16.72 -21.12,47.15 -2.73,0.10 -17.47,9.72 -23.09,20.41 -1.88,3.57 -2.89,5.68 -3.88,8.01 -3.95,9.28 -3.63,12.85 -3.63,12.85 0,0 25.34,10.58 51.42,-5.13 0.01,0.03 0.02,0.07 0.03,0.10 0.84,2.16 18.81,9.31 31.11,8.75 4.03,0.18 6.36,0.37 8.87,0.69 10.01,-1.27 12.92,-3.36 12.92,-3.36 0,0 -3.68,-25.23 -30.43,-39.80 z M 97.23,117.90 c 1.65,-1.84 7.24,-7.11 1.55,-15.62 0.39,0.59 0.77,0.37 0.77,0.37 0,0 0.10,14.85 -8.04,17.25 -8.14,2.39 -21.63,6.85 -31.82,0.71 -1.09,0.65 1.91,-18.25 20.01,-28.18 0.85,2.49 4.42,10.68 14.47,9.98 0.71,0.05 0.71,0.49 0.71,0.49 0,0 -14.67,-8.30 -12.70,-16.55 1.97,-8.25 4.81,-22.17 15.21,-27.95 1.11,0.62 16.74,11.83 16.22,32.61 -2.50,0.50 -11.49,-1.56 -15.93,7.58 0.31,0.64 0.07,0.86 0.07,0.86 0,0 14.50,-8.60 20.68,-2.79 6.18,5.81 16.84,13.20 16.68,25.10 0.02,1.27 -18.57,8.63 -36.34,-2.14 z M 73.59,72.86 c 0,0 -1.54,5.05 0.94,11.72 L 51.79,72.86 c 0.00,0 9.69,-6.56 21.80,0 z m -22.46,1.38 20.78,11.86 C 65.89,89.01 62.35,92.93 62.35,92.93 50.49,85.93 51.13,74.24 51.13,74.24 Z m 79.58,20.30 c 0,0 -3.62,-3.85 -9.70,-6.64 L 141.55,75.63 c 0.00,0 0.88,11.67 -10.84,18.91 z m 9.97,-20.17 -20.62,12.14 c 0.47,-6.68 -1.17,-11.70 -1.17,-11.70 11.97,-6.81 21.79,0.44 21.79,0.44 z m -57.02,56.66 c 0,0 5.15,-1.15 10.66,-4.96 L 94.41,152 c 0,0.00 -10.49,-7.19 -10.75,-20.97 z m 12.27,20.86 0.07,-25.93 c 5.51,3.81 10.66,4.95 10.66,4.95 0.25,13.77 -10.73,20.97 -10.73,20.97 z"/>
</svg>
