<?xml version='1.0' encoding='utf-8'?>
<svg xmlns="http://www.w3.org/2000/svg" width="192" height="192" version="1" id="svg28">
  <defs>
    <filter style="color-interpolation-filters:sRGB" id="filter17607" x="0.04" y="0.05" width="1.09" height="1.11">
      <feGaussianBlur stdDeviation="2.84"/>
    </filter>
    <filter style="color-interpolation-filters:sRGB" id="filter17649" x="0.07" y="0.07" width="1.15" height="1.15">
      <feGaussianBlur stdDeviation="3.06"/>
    </filter>
    <filter style="color-interpolation-filters:sRGB" id="filter17698" x="0.05" y="0.05" width="1.09" height="1.10">
      <feGaussianBlur stdDeviation="2.72"/>
    </filter>
  </defs>
  <path style="filter:url(#filter17698);opacity:0.20;fill:#000000" d="m 39,20.00 c -5.54,0 -10,4.46 -10,10 V 40.68 c 0.63,0.95 -1,2.09 -1,3.32 v 6 h -2 c -3.32,0 -6,2.68 -6,6 v 87.09 c 0,3.32 2.68,6.02 6,6 l 108,0.73 c 0.69,0.01 1.35,0.15 1.97,0.37 H 142 c 2.62,0 4.81,-1.67 5.63,-4 H 153 c 5.54,0 10,-4.46 10,-10 V 30.00 c 0,-5.54 -4.46,-10 -10,-10 z"/>
  <rect style="fill:#eb9141" width="134" height="124" x="29" y="16" ry="10" rx="10"/>
  <rect style="fill:#ffffff" width="120" height="110" x="36" y="22" ry="6" rx="6"/>
  <rect style="fill:#3ee888" width="120" height="110" x="28" y="34" ry="6" rx="6"/>
  <path style="fill:#ffffff" d="m 26,46 h 108 c 3.32,0 6,2.68 6,6 v 86.36 c 0,3.32 -2.68,5.98 -6,6 l -108,0.73 c -3.32,0.02 -6,-2.68 -6,-6 V 52 c 0,-3.32 2.68,-6 6,-6 z"/>
  <path style="filter:url(#filter17607);opacity:0.20;fill:#000000" d="M 28,59 H 75.18 C 90.90,59 101.29,34.50 124.60,34 H 164 c 6.65,0 12,5.35 12,12 v 100 c 0,6.65 -5.35,12 -12,12 H 28 c -6.65,0 -12,-5.35 -12,-12 V 70.63 C 16,63.98 21.35,59.05 28,59 Z"/>
  <path style="fill:#ffaf3e" d="M 28,57 H 75.18 C 90.90,57 101.29,32.50 124.60,32 H 164 c 6.65,0 12,5.35 12,12 v 94.50 l -4.27,5.01 c -4.31,5.06 -1.74,8.23 -8.38,8.24 l -135.11,0.22 c -6.65,0.01 -5.65,-2.82 -9.16,-8.46 L 16,138.55 V 68.63 C 16,61.98 21.35,57.05 28,57 Z"/>
  <path style="fill:#eb9141" d="m 16,138 v 6 c 0,6.65 5.35,12 12,12 h 136 c 6.65,0 12,-5.35 12,-12 v -6 z"/>
  <rect style="filter:url(#filter17649);opacity:0.20;fill:#000000" width="98" height="98" x="47" y="80" rx="9.68" ry="9.99"/>
  <rect style="fill:#e4e4e4" width="98" height="98" x="47" y="78" rx="9.68" ry="9.99"/>
  <path style="fill:#4f4f4f;color:#000000" d="m 84,97 c -2.76,0.00 -5.00,2.24 -5,5 v 46 c 0,2.76 2.24,5 5,5 2.76,0 5,-2.24 5,-5 v -17 h 15 c 2.76,0 5,-2.24 5,-5 0,-2.76 -2.24,-5 -5,-5 H 89 v -14 h 21.00 c 2.76,0 5.00,-2.24 5.00,-5 0,-2.76 -2.24,-5 -5.00,-5 z"/>
  <path style="opacity:0.20;fill:#ffffff" d="M 56.68 78 C 51.32 78 47 82.46 47 87.99 L 47 88.99 C 47 83.46 51.32 79 56.68 79 L 135.32 79 C 140.68 79 145 83.46 145 88.99 L 145 87.99 C 145 82.46 140.68 78 135.32 78 L 56.68 78 z "/>
</svg>
