<?xml version='1.0' encoding='utf-8'?>
<svg xmlns="http://www.w3.org/2000/svg" width="192" height="192" version="1" id="svg28">
  <defs>
    <filter style="color-interpolation-filters:sRGB" id="filter6495" x="0.05" y="0.05" width="1.10" height="1.10">
      <feGaussianBlur stdDeviation="3.20"/>
    </filter>
    <filter style="color-interpolation-filters:sRGB" id="filter5147" x="0.21" y="0.07" width="1.43" height="1.14">
      <feGaussianBlur stdDeviation="2.23"/>
    </filter>
    <filter style="color-interpolation-filters:sRGB" id="filter5151" x="0.17" y="0.08" width="1.34" height="1.16">
      <feGaussianBlur stdDeviation="2.49"/>
    </filter>
    <filter style="color-interpolation-filters:sRGB" id="filter5155" x="0.10" y="0.12" width="1.20" height="1.24">
      <feGaussianBlur stdDeviation="2.40"/>
    </filter>
  </defs>
  <rect transform="matrix(0,-1,-1,0,0,0)" ry="12" rx="12" y="-176" x="-180" height="160" width="160" style="filter:url(#filter6495);opacity:0.20;fill:#000000"/>
  <rect transform="matrix(0,-1,-1,0,0,0)" ry="12" rx="12" y="-176" x="-176" height="160" width="160" style="fill:#3982f3"/>
  <path style="opacity:0.20;fill:#ffffff" d="m 28,16 c -6.65,0 -12,5.35 -12,12 v 1 c 0,-6.65 5.35,-12 12,-12 h 136 c 6.65,0 12,5.35 12,12 v -1 c 0,-6.65 -5.35,-12 -12,-12 z"/>
  <path style="filter:url(#filter5147);opacity:0.20;fill:#000000;color:#000000" d="m 67.50,62 c -6.90,0 -7.07,7.10 -8.91,13.75 L 55,88.67 V 123.50 c 0,6.90 5.60,12.50 12.50,12.50 6.90,0 12.50,-5.60 12.50,-12.50 v -49 C 80,67.60 74.40,62 67.50,62 Z"/>
  <path style="fill:#ffffff;color:#000000" d="m 67.50,60 c -6.90,0 -7.07,7.10 -8.91,13.75 L 55,86.67 V 121.50 c 0,6.90 5.60,12.50 12.50,12.50 6.90,0 12.50,-5.60 12.50,-12.50 v -49 C 80,65.60 74.40,60 67.50,60 Z"/>
  <path style="filter:url(#filter5155);opacity:0.20;fill:#000000" d="M 72.64,93.24 C 67.79,88.41 64.82,85.67 64.06,85.36 62.32,84.64 60.43,84.75 58.56,85.68 56.77,86.58 55,89.67 55,89.67 c 0,0 0.13,-14.81 0.23,-17.58 C 56.13,65.19 63.00,60.03 69.66,60 c 8.00,0.43 12.91,6.69 16.15,9.95 4.14,4.16 7.59,7.37 8.19,7.62 0.64,0.27 1.43,0.40 2.21,0.40 2.41,0.10 3.96,-2.08 5.72,-3.04 0.41,0.22 0.83,0.41 1.28,0.57 3.14,-1.06 7.29,0.43 9.00,3.64 1.13,10.70 0.28,23.06 0.28,23.06 l -2.09,1.95 C 105.27,107.29 101.73,109 96.16,109 c -5.57,0 -9.12,-1.71 -13.69,-5.99 0,0 2.65,2.68 -9.83,-9.77 z"/>
  <path style="fill:#94d0ff" d="M 72.64,91.24 C 67.79,86.41 64.82,83.67 64.06,83.36 62.32,82.64 60.43,82.75 58.56,83.68 56.77,84.58 55,87.67 55,87.67 c 0,0 0.13,-14.81 0.23,-17.58 C 56.13,63.19 63.00,58.03 69.66,58 c 8.00,0.43 12.91,6.69 16.15,9.95 4.14,4.16 7.59,7.37 8.19,7.62 0.64,0.27 1.43,0.40 2.21,0.40 2.41,0.10 3.96,-2.08 5.72,-3.04 0.41,0.22 0.83,0.41 1.28,0.57 3.14,-1.06 7.29,0.43 9.00,3.64 1.13,10.70 0.28,23.06 0.28,23.06 l -2.09,1.95 C 105.27,105.29 101.73,107 96.16,107 c -5.57,0 -9.12,-1.71 -13.69,-5.99 0,0 2.65,2.68 -9.83,-9.77 z"/>
  <path style="filter:url(#filter5151);opacity:0.20;fill:#000000;color:#000000" d="m 122.51,60 c -10.37,0 -20.30,14.78 -20.30,14.78 6.44,-2.43 9.66,2.69 9.79,5.47 v 43.25 c 0,6.90 5.60,12.50 12.50,12.50 6.90,0 12.50,-5.60 12.50,-12.50 V 73.90 C 137,67.00 132.12,60 122.51,60 Z"/>
  <path style="fill:#ffffff;color:#000000" d="m 122.51,58 c -10.37,0 -20.30,14.78 -20.30,14.78 6.44,-2.43 9.66,2.69 9.79,5.47 v 43.25 c 0,6.90 5.60,12.50 12.50,12.50 6.90,0 12.50,-5.60 12.50,-12.50 V 71.90 C 137,65.00 132.12,58 122.51,58 Z"/>
</svg>
