<?xml version='1.0' encoding='utf-8'?>
<svg xmlns="http://www.w3.org/2000/svg" width="192" height="192" version="1" id="svg14">
  <defs>
    <filter style="color-interpolation-filters:sRGB" id="filter848" x="0.05" width="1.10" y="0.05" height="1.10">
      <feGaussianBlur stdDeviation="3.20"/>
    </filter>
    <filter style="color-interpolation-filters:sRGB" id="filter3225" x="0.05" y="0.05" width="1.09" height="1.10">
      <feGaussianBlur stdDeviation="2.13"/>
    </filter>
  </defs>
  <rect transform="matrix(0,-1,-1,0,0,0)" ry="8" rx="8" y="-176" x="-180" height="160" width="160" style="filter:url(#filter848);opacity:0.20"/>
  <rect transform="matrix(0,-1,-1,0,0,0)" ry="8" rx="8" y="-176" x="-176" height="160" width="160" style="fill:#ffe600"/>
  <path style="opacity:0.20;fill:#ffffff" d="m 24,16 c -4.43,0 -8,3.57 -8,8 v 1 c 0,-4.43 3.57,-8 8,-8 h 144 c 4.43,0 8,3.57 8,8 v -1 c 0,-4.43 -3.57,-8 -8,-8 z"/>
  <path style="filter:url(#filter3225);opacity:0.20;fill:#000000" d="m 61.98,49 c -1.56,0.01 -3.12,0.26 -4.65,0.84 C 46.70,54.02 41.66,65.91 41,76.69 L 45.65,72.41 64,90 69,85.33 V 73.61 l 5,4.79 v 13.87 l 6.90,7.86 C 68.96,112.72 56.55,124.84 44.36,137.18 c 2.46,2.47 4.92,4.94 7.37,7.41 2.50,2.48 4.96,5.02 7.55,7.41 C 71.64,139.89 83.77,127.54 96,115.30 c 12.23,12.24 24.36,24.58 36.72,36.70 2.59,-2.39 5.04,-4.93 7.55,-7.41 2.46,-2.47 4.92,-4.94 7.37,-7.41 C 135.45,124.84 123.04,112.72 111.10,100.13 L 118,92.27 v -13.87 l 5,-4.79 V 85.33 L 128,90 146.35,72.41 151,76.69 C 150.34,65.91 145.30,54.02 134.67,49.84 133.14,49.26 131.58,48.99 130.02,49 c -4.67,0.02 -9.23,2.46 -12.34,6.01 -5.61,5.43 -11.02,11.05 -16.33,16.77 1.43,1.30 2.86,2.60 4.29,3.90 -3.22,3.21 -6.43,6.43 -9.65,9.64 -3.22,-3.21 -6.43,-6.43 -9.65,-9.64 1.43,-1.30 2.86,-2.60 4.29,-3.90 C 85.34,66.06 79.92,60.43 74.31,55.01 71.21,51.46 66.65,49.02 61.98,49 Z"/>
  <path style="fill:#3c3c3c" d="M 61.98 46 C 60.42 45.99 58.86 46.26 57.33 46.84 C 46.70 51.02 41.66 62.91 41 73.69 L 45.65 69.41 L 64 87 L 69 82.33 L 69 70.61 L 74 75.40 L 74 89.27 L 80.90 97.13 C 68.96 109.72 56.55 121.84 44.36 134.18 C 46.82 136.65 49.27 139.12 51.73 141.59 C 54.23 144.07 56.69 146.61 59.28 149 C 71.64 136.89 83.77 124.54 96 112.30 C 108.23 124.54 120.36 136.89 132.72 149 C 135.31 146.61 137.77 144.07 140.27 141.59 C 142.73 139.12 145.18 136.65 147.64 134.18 C 135.45 121.84 123.04 109.72 111.10 97.13 L 118 89.27 L 118 75.40 L 123 70.61 L 123 82.33 L 128 87 L 146.35 69.41 L 151 73.69 C 150.34 62.91 145.30 51.02 134.67 46.84 C 133.14 46.26 131.58 45.99 130.02 46 C 125.35 46.02 120.79 48.46 117.69 52.01 C 112.08 57.43 106.66 63.06 101.36 68.78 C 102.79 70.08 104.22 71.38 105.65 72.68 C 102.43 75.89 99.22 79.10 96 82.32 C 92.78 79.10 89.57 75.89 86.35 72.68 C 87.78 71.38 89.21 70.08 90.64 68.78 C 85.34 63.06 79.92 57.43 74.31 52.01 C 71.21 48.46 66.65 46.02 61.98 46 z "/>
</svg>
