<?xml version='1.0' encoding='utf-8'?>
<svg xmlns="http://www.w3.org/2000/svg" width="192" height="192" version="1" id="svg28">
  <defs>
    <filter style="color-interpolation-filters:sRGB" id="filter5640" x="-0.048079687" y="-0.048079687" width="1.0961594" height="1.0961594">
      <feGaussianBlur stdDeviation="3.2053124"/>
    </filter>
    <filter style="color-interpolation-filters:sRGB" id="filter5682" x="-0.086652308" y="-0.14330959" width="1.1733046" height="1.2866192">
      <feGaussianBlur stdDeviation="3.1050411"/>
    </filter>
  </defs>
  <path style="filter:url(#filter5640);opacity:0.2;fill:#000000" d="m 96,20 a 80,80 0 0 0 -80,80 80,80 0 0 0 16.496094,48.32422 l -7.289063,26.75976 29.054688,-6.95703 A 80,80 0 0 0 96,180 80,80 0 0 0 176,100 80,80 0 0 0 96,20 Z"/>
  <path style="fill:#008cff" d="M 96 16 A 80 80 0 0 0 16 96 A 80 80 0 0 0 32.496094 144.32422 L 25.207031 171.08398 L 54.261719 164.12695 A 80 80 0 0 0 96 176 A 80 80 0 0 0 176 96 A 80 80 0 0 0 96 16 z "/>
  <path style="filter:url(#filter5682);opacity:0.2;fill:#000000" d="m 67,72 c -7.756,0 -14,6.244 -14,14 v 24 c 0,7.756 6.244,14 14,14 h 34 c 7.756,0 14,-6.244 14,-14 V 86 c 0,-7.756 -6.244,-14 -14,-14 z m 68.74414,9 a 3.2559968,4.7630728 0 0 0 -1.62695,0.638672 l -7.24414,6.117187 -7.2461,6.121094 a 3.2559968,4.7630728 0 0 0 0,8.246097 l 7.2461,6.12109 7.24414,6.11719 A 3.2559968,4.7630728 0 0 0 139,110.23828 V 98 85.761719 A 3.2559968,4.7630728 0 0 0 135.74414,81 Z"/>
  <path style="fill:#ffffff" d="M 67 70 C 59.244 70 53 76.244 53 84 L 53 108 C 53 115.756 59.244 122 67 122 L 101 122 C 108.756 122 115 115.756 115 108 L 115 84 C 115 76.244 108.756 70 101 70 L 67 70 z M 135.74414 79 A 3.2559968 4.7630728 0 0 0 134.11719 79.638672 L 126.87305 85.755859 L 119.62695 91.876953 A 3.2559968 4.7630728 0 0 0 119.62695 100.12305 L 126.87305 106.24414 L 134.11719 112.36133 A 3.2559968 4.7630728 0 0 0 139 108.23828 L 139 96 L 139 83.761719 A 3.2559968 4.7630728 0 0 0 135.74414 79 z "/>
  <path style="opacity:0.2;fill:#ffffff" d="M 96 16 A 80 80 0 0 0 16 96 A 80 80 0 0 0 16.035156 96.507812 A 80 80 0 0 1 96 17 A 80 80 0 0 1 175.98242 96.253906 A 80 80 0 0 0 176 96 A 80 80 0 0 0 96 16 z M 32.302734 145.03516 L 25.207031 171.08398 L 25.498047 171.01367 L 32.496094 145.32422 A 80 80 0 0 1 32.302734 145.03516 z "/>
</svg>
