<?xml version='1.0' encoding='utf-8'?>
<svg xmlns="http://www.w3.org/2000/svg" width="192" height="192" version="1" id="svg16">
  <defs>
    <filter style="color-interpolation-filters:sRGB" id="filter861" x="0.05" width="1.10" y="0.05" height="1.10">
      <feGaussianBlur stdDeviation="3.20"/>
    </filter>
    <filter style="color-interpolation-filters:sRGB" id="filter883" x="0.05" width="1.09" y="0.05" height="1.10">
      <feGaussianBlur stdDeviation="1.68"/>
    </filter>
  </defs>
  <circle style="filter:url(#filter861);opacity:0.20" cx="96" cy="100" r="80"/>
  <path style="fill:#e74a99" d="m 148.79,35.49 c 0.02,0.02 0.04,0.03 0.06,0.05 C 123.58,13.86 88.06,10.03 58.67,25.04 29.29,40.04 12.56,73.50 16.59,105.92 c 2.81,22.66 15.45,42.53 33.50,55.29 0,0 49.75,-44.42 62.96,-60.19 12.39,-14.80 39.44,-62.05 39.44,-62.05 -1.19,-1.20 -2.42,-2.36 -3.70,-3.49 z"/>
  <path style="opacity:0.20;fill:#ffffff" d="M 96 16 C 51.68 16 16.01 51.68 16.01 96 C 16.01 96.34 16.01 96.67 16.01 97 C 16.01 52.68 51.68 17 96 17 C 140.32 17 175.99 52.68 175.99 97 C 175.99 96.67 175.99 96.34 175.99 96 C 175.99 51.68 140.32 16 96 16 z "/>
  <path style="fill:#27aae1" d="m 50.09,161.22 c 8.32,5.88 17.78,10.26 27.96,12.70 31.86,7.63 66.21,-6.22 84.44,-33.23 21.48,-31.84 16.76,-74.85 -10.00,-101.70 0,0 -38.20,45.60 -50.93,60.80 C 88.69,115.14 50.09,161.22 50.09,161.22 Z"/>
  <path style="opacity:0.20;fill:#ffffff" d="M 152.49 38.98 C 152.49 38.98 114.29 84.59 101.55 99.79 C 88.69 115.14 50.09 161.22 50.09 161.22 C 50.27 161.34 50.45 161.46 50.63 161.57 C 51.43 160.62 88.82 115.98 101.55 100.79 C 114.29 85.59 152.49 39.98 152.49 39.98 C 167.96 55.51 175.97 76.43 175.91 97.47 C 175.91 97.52 175.91 97.57 175.91 97.62 C 176.28 76.20 168.24 54.79 152.49 38.98 z "/>
  <path style="filter:url(#filter883);opacity:0.20" d="m 98.59,75.95 c 0,0 -7.83,-17.31 -24.13,-13.37 C 58.15,66.52 24.11,100.16 96.03,142 h 0.06 C 167.89,100.16 133.85,66.53 117.55,62.58 101.25,58.64 93.42,75.95 93.42,75.95 Z"/>
  <path style="fill:#ffffff" d="m 98.59,73.95 c 0,0 -7.83,-17.31 -24.13,-13.37 C 58.15,64.52 24.11,98.16 96.03,140 h 0.06 C 167.89,98.16 133.85,64.53 117.55,60.58 101.25,56.64 93.42,73.95 93.42,73.95 Z"/>
</svg>
