<?xml version='1.0' encoding='utf-8'?>
<svg xmlns="http://www.w3.org/2000/svg" width="192" height="192" version="1" id="svg14">
  <defs>
    <filter style="color-interpolation-filters:sRGB" id="filter6012" x="0.05" y="0.05" width="1.10" height="1.10">
      <feGaussianBlur stdDeviation="2.60"/>
    </filter>
    <filter style="color-interpolation-filters:sRGB" id="filter6152" x="0.04" y="0.07" width="1.07" height="1.13">
      <feGaussianBlur stdDeviation="2.50"/>
    </filter>
    <filter style="color-interpolation-filters:sRGB" id="filter6283" x="0.07" y="0.08" width="1.14" height="1.17">
      <feGaussianBlur stdDeviation="2.97"/>
    </filter>
  </defs>
  <rect transform="matrix(0,-1,-1,0,0,0)" ry="8" rx="8" y="-141" x="-179" height="90" width="160" style="filter:url(#filter6152);opacity:0.20;fill:#000000"/>
  <rect transform="matrix(0,-1,-1,0,0,0)" ry="8" rx="8" y="-141" x="-176" height="90" width="160" style="fill:#235ebb"/>
  <circle style="filter:url(#filter6012);opacity:0.20;fill:#000000" cx="96" cy="98" r="65"/>
  <circle style="fill:#1196f8" cx="96" cy="96" r="65"/>
  <path style="filter:url(#filter6283);opacity:0.20;fill:#000000" d="m 76,65 a 5,5 0 0 0 -5,5 5,5 0 0 0 5,5 5,5 0 0 0 5,-5 5,5 0 0 0 -5,-5 z m -17.52,3 c -1.98,0 -2.59,0.25 -3.82,1.59 -1.79,1.94 -2.63,4.59 -2.41,7.65 C 52.41,79.42 52.51,80 53.91,80 c 1.38,0 1.56,0.67 2.38,-3.48 0.49,-1.67 1.25,-3.40 1.69,-3.84 0.73,0.74 1.00,0.70 3.04,0.39 1.23,0.66 2.36,1.53 2.51,1.92 0.16,0.41 -1.10,2.43 -2.93,4.69 -3.86,4.79 -3.92,4.91 -5.42,10.39 -1.08,3.95 -1.46,4.63 -4.02,7.20 -2.13,2.15 -3.72,3.19 -6.50,4.28 C 41.63,102.75 41,103.19 41,104.15 c 0,0.63 0.15,1.31 0.34,1.49 0.73,0.74 4.33,0.28 6.88,0.87 4.03,-1.83 7.11,-4.89 9.36,-9.31 1.07,-2.12 2.13,-3.85 2.36,-3.85 0.79,0.00 4.20,1.98 5.69,3.31 l 1.52,1.36 -1.85,1.64 c -1.02,0.90 -3.25,2.18 -4.96,2.84 -3.16,1.22 -4.89,2.64 -4.33,4.10 0.53,1.39 2.98,1.45 6.12,0.16 5.04,-2.07 7.11,-3.85 8.06,-6.38 0.77,-2.03 0.78,-2.44 0.10,-4.09 0.44,-1.05 -1.84,-2.67 -3.31,-3.80 -1.40,-1.08 -2.56,-2.19 -2.58,-2.46 0.02,0.27 0.69,-1.24 1.57,-2.15 l 1.60,-1.67 1.44,2.01 c 0.79,1.10 2.12,2.36 2.95,2.80 1.95,1.02 6.07,1.01 8.62,0.02 2.16,0.87 2.80,-1.83 2.29,-3.43 0.29,0.93 0.58,0.98 -3.18,0.61 -6.40,0.92 -7.30,0.50 -7.86,-3.62 C 70.86,74.70 64.30,68 58.48,68 Z M 110,71 c -2.77,0 -5,2.23 -5,5 v 20 c 0,2.77 2.23,5 5,5 h 30 c 2.77,0 5,-2.23 5,-5 V 76 c 0,-2.77 -2.23,-5 -5,-5 z m 0,5 15,7.50 15,-7.50 v 5 L 125,88.50 110,81 Z m -30,55 a 10,10 0 0 0 -10,10 10,10 0 0 0 10,10 10,10 0 0 0 10,-10 10,10 0 0 0 -10,-10 z"/>
  <path style="fill:#ffffff" d="m 110,69 c -2.77,0 -5,2.23 -5,5 v 20 c 0,2.77 2.23,5 5,5 h 30 c 2.77,0 5,-2.23 5,-5 V 74 c 0,-2.77 -2.23,-5 -5,-5 z m 0,5 15,7.50 15,-7.50 v 5 L 125,86.50 110,79 Z"/>
  <circle style="fill:#ffffff" cx="76" cy="68" r="5"/>
  <path style="fill:#ffffff" d="m 48.22,102.77 c 4.03,-1.83 7.11,-4.89 9.36,-9.31 1.07,-2.12 2.13,-3.85 2.36,-3.85 0.79,0.00 4.20,1.98 5.69,3.31 l 1.52,1.36 -1.85,1.64 c -1.02,0.90 -3.25,2.18 -4.95,2.84 C 57.18,99.99 55.45,101.41 56,102.87 c 0.53,1.39 2.98,1.45 6.12,0.16 5.04,-2.07 7.11,-3.85 8.06,-6.38 0.77,-2.03 0.78,-2.44 0.10,-4.09 0.44,-1.05 -1.84,-2.67 -3.31,-3.80 -1.40,-1.08 -2.57,-2.19 -2.58,-2.46 0.02,0.27 0.69,-1.24 1.57,-2.15 l 1.60,-1.67 1.44,2.01 c 0.79,1.10 2.12,2.36 2.95,2.80 1.95,1.02 6.07,1.01 8.62,0.02 2.16,0.87 2.80,-1.83 2.29,-3.43 0.29,0.93 0.58,0.98 -3.18,0.61 -6.40,0.92 -7.30,0.50 -7.86,-3.62 0.94,-6.90 -7.49,-13.60 -13.31,-13.60 -1.98,0 -2.59,0.25 -3.82,1.59 -1.79,1.94 -2.63,4.59 -2.41,7.65 C 52.41,77.42 52.51,78 53.91,78 c 1.38,0 1.56,0.67 2.38,-3.48 0.49,-1.67 1.25,-3.40 1.69,-3.84 0.73,0.74 1.00,0.70 3.04,0.39 1.23,0.66 2.36,1.52 2.51,1.92 0.16,0.41 -1.11,2.43 -2.93,4.69 -3.86,4.79 -3.92,4.90 -5.42,10.39 -1.08,3.95 -1.46,4.63 -4.01,7.20 -2.13,2.15 -3.72,3.19 -6.50,4.28 C 41.63,100.75 41,101.19 41,102.15 c 0,0.63 0.15,1.31 0.34,1.49 0.73,0.74 4.33,0.28 6.88,0.87 z"/>
  <path style="opacity:0.20;fill:#000000;color:#000000" d="m 80,129 a 10,10 0 0 0 -10,10 10,10 0 0 0 10,10 h 32 a 10,10 0 0 0 10,-10 10,10 0 0 0 -10,-10 z"/>
  <circle style="fill:#ffffff" cx="80" cy="139" r="10"/>
  <path style="opacity:0.20;fill:#ffffff" d="M 96 31 A 65 65 0 0 0 31 96 A 65 65 0 0 0 31.04 96.50 A 65 65 0 0 1 96 32 A 65 65 0 0 1 160.98 96.26 A 65 65 0 0 0 161 96 A 65 65 0 0 0 96 31 z "/>
  <path style="opacity:0.10;fill:#ffffff" d="M 59 16 C 54.57 16 51 19.57 51 24 L 51 25 C 51 20.57 54.57 17 59 17 L 133 17 C 137.43 17 141 20.57 141 25 L 141 24 C 141 19.57 137.43 16 133 16 L 59 16 z "/>
</svg>
