<?xml version='1.0' encoding='utf-8'?>
<svg xmlns="http://www.w3.org/2000/svg" width="192" height="192" version="1" id="svg39">
  <defs>
    <linearGradient id="linearGradient4721" x1="24.756001" x2="24.101999" y1="26.511999" y2="5.9239998" gradientTransform="matrix(2.75,0,0,2.66668,30,20)" gradientUnits="userSpaceOnUse">
      <stop offset="0" stop-color="#fff"/>
      <stop offset="1" stop-color="#fff" stop-opacity="0"/>
    </linearGradient>
    <filter style="color-interpolation-filters:sRGB" id="filter900" x="-0.054000002" width="1.108" y="-0.043200002" height="1.0864">
      <feGaussianBlur stdDeviation="2.88"/>
    </filter>
  </defs>
  <rect transform="scale(-1,1)" ry="8" rx="8" y="20" x="-160" height="160" width="128" style="filter:url(#filter900);opacity:0.2;fill:#000000"/>
  <rect style="fill:#e4e4e4" width="128" height="160" x="-160" y="16" rx="8" ry="8" transform="scale(-1,1)"/>
  <rect style="opacity:0.15;fill:url(#linearGradient4721)" width="88" height="56" x="52" y="36" rx="1.648" ry="1.6"/>
  <rect style="fill:#333333" width="80" height="48" x="56" y="40" rx="0" ry="0"/>
  <path style="opacity:0.2;fill:#ffffff" d="M 40 16 C 35.568 16 32 19.568 32 24 L 32 25 C 32 20.568 35.568 17 40 17 L 152 17 C 156.432 17 160 20.568 160 25 L 160 24 C 160 19.568 156.432 16 152 16 L 40 16 z "/>
  <path style="opacity:0.2;fill:#ffffff" d="m 60,116 c -2.216,0 -4,1.784 -4,4 v 8 h -8 c -2.216,0 -4,1.784 -4,4 v 8 c 0,2.216 1.784,4 4,4 h 8 v 8 c 0,2.216 1.784,4 4,4 h 8 c 2.216,0 4,-1.784 4,-4 v -8 h 8 c 2.216,0 4,-1.784 4,-4 v -8 c 0,-2.216 -1.784,-4 -4,-4 h -8 v -8 c 0,-2.216 -1.784,-4 -4,-4 z"/>
  <path style="fill:#4f4f4f" d="m 60,112 c -2.216,0 -4,1.784 -4,4 v 8 h -8 c -2.216,0 -4,1.784 -4,4 v 8 c 0,2.216 1.784,4 4,4 h 8 v 8 c 0,2.216 1.784,4 4,4 h 8 c 2.216,0 4,-1.784 4,-4 v -8 h 8 c 2.216,0 4,-1.784 4,-4 v -8 c 0,-2.216 -1.784,-4 -4,-4 h -8 v -8 c 0,-2.216 -1.784,-4 -4,-4 z"/>
  <circle style="opacity:0.2;fill:#ffffff" cx="140" cy="124" r="8"/>
  <circle style="opacity:0.2;fill:#ffffff" cx="116" cy="124" r="8"/>
  <circle style="opacity:0.2;fill:#ffffff" cx="140" cy="148" r="8"/>
  <circle style="opacity:0.2;fill:#ffffff" cx="116" cy="148" r="8"/>
  <circle style="fill:#ef5646" cx="140" cy="120" r="8"/>
  <circle style="fill:#ef5646" cx="116" cy="120" r="8"/>
  <circle style="fill:#eb9200" cx="140" cy="144" r="8"/>
  <circle style="fill:#eb9200" cx="116" cy="144" r="8"/>
</svg>
