<?xml version='1.0' encoding='utf-8'?>
<svg xmlns="http://www.w3.org/2000/svg" width="192" height="192" version="1" id="svg12">
  <defs>
    <filter style="color-interpolation-filters:sRGB" id="filter860" x="0.05" width="1.10" y="0.05" height="1.10">
      <feGaussianBlur stdDeviation="3.20"/>
    </filter>
    <filter style="color-interpolation-filters:sRGB" id="filter907" x="0.05" width="1.09" y="0.05" height="1.10">
      <feGaussianBlur stdDeviation="2.14"/>
    </filter>
    <filter style="color-interpolation-filters:sRGB" id="filter913" x="0.05" width="1.10" y="0.05" height="1.10">
      <feGaussianBlur stdDeviation="1.60"/>
    </filter>
  </defs>
  <path style="fill:#000000" d=""/>
  <rect style="filter:url(#filter860);opacity:0.20" width="160" height="160" x="16" y="20" rx="48" ry="48"/>
  <rect style="fill:#0cb5f6" width="160" height="160" x="16" y="16" rx="48" ry="48"/>
  <path style="opacity:0.20;fill:#ffffff" d="M 64,16 C 37.41,16 16,37.41 16,64 v 1 C 16,38.41 37.41,17 64,17 h 64 c 26.59,0 48,21.41 48,48 V 64 C 176,37.41 154.59,16 128,16 Z"/>
  <path style="filter:url(#filter907);opacity:0.20;fill:#000000" d="M 96.00,50.01 C 80.73,49.74 71.65,57.63 68.64,72.18 c 0.40,1.93 0.61,3.93 0.64,6.03 0.10,7.89 2.25,17.12 7.70,28.83 8.22,17.67 6.16,20.13 -22.40,26.72 -5.63,1.30 -10.90,2.93 -11.69,3.63 0.80,0.69 -1.71,3.17 -2.02,5.50 -1.05,7.79 -6.66,7.10 56.41,7.10 63.07,0 57.46,0.69 56.41,-7.10 0.31,-2.33 -1.22,-4.81 -2.02,-5.50 0.80,0.69 -6.06,-2.33 -11.69,-3.63 -28.56,-6.60 -30.62,-9.05 -22.40,-26.72 5.45,-11.71 7.80,-20.94 7.70,-28.83 0.03,-2.10 0.24,-4.10 0.64,-6.03 C 120.35,57.63 111.27,49.74 96.00,50.01 Z"/>
  <path style="fill:#ffffff" d="m 96.00,46.01 c -15.27,0.27 -24.35,7.63 -27.36,22.17 0.40,1.93 0.61,3.93 0.64,6.03 0.10,7.89 2.25,17.12 7.70,28.83 8.22,17.67 6.16,20.13 -22.40,26.72 -5.63,1.30 -10.90,2.93 -11.69,3.63 0.80,0.69 -1.71,3.17 -2.02,5.50 -1.05,7.79 -6.66,7.10 56.41,7.10 63.07,0 57.46,0.69 56.41,-7.10 0.31,-2.33 -1.22,-4.81 -2.02,-5.50 0.80,0.69 -6.06,-2.33 -11.69,-3.63 -28.56,-6.60 -30.62,-9.05 -22.40,-26.72 5.45,-11.71 7.80,-20.94 7.70,-28.83 0.03,-2.10 0.24,-4.10 0.64,-6.03 -3.01,-14.55 -12.09,-22.44 -27.36,-22.17 z"/>
  <path style="filter:url(#filter913);opacity:0.20;fill:#000000" d="m 56,43 v 6 10 h 6 V 49 H 72 V 43 H 62 Z m 64,0 v 6 h 10 v 10 h 6 V 49 43 h -6 z m -64,64 v 10 6 h 6 10 v -6 H 62 v -10 z m 74,0 v 10 h -10 v 6 h 10 6 v -6 -10 z"/>
  <path style="fill:#ffffff" d="m 56,41 v 6 10 h 6 V 47 H 72 V 41 H 62 Z m 64,0 v 6 h 10 v 10 h 6 V 47 41 h -6 z m -64,64 v 10 6 h 6 10 v -6 H 62 v -10 z m 74,0 v 10 h -10 v 6 h 10 6 v -6 -10 z"/>
</svg>
