<?xml version='1.0' encoding='utf-8'?>
<svg xmlns="http://www.w3.org/2000/svg" width="192" height="192" version="1" id="svg28">
  <defs>
    <filter style="color-interpolation-filters:sRGB" id="filter6495" x="0.05" y="0.05" width="1.10" height="1.10">
      <feGaussianBlur stdDeviation="3.20"/>
    </filter>
    <filter style="color-interpolation-filters:sRGB" id="filter8024" x="0.04" y="0.06" width="1.08" height="1.12">
      <feGaussianBlur stdDeviation="1.81"/>
    </filter>
  </defs>
  <rect transform="matrix(0,-1,-1,0,0,0)" ry="12" rx="12" y="-176" x="-180" height="160" width="160" style="filter:url(#filter6495);opacity:0.20;fill:#000000"/>
  <rect transform="matrix(0,-1,-1,0,0,0)" ry="12" rx="12" y="-176" x="-176" height="160" width="160" style="fill:#ea3acf"/>
  <path style="opacity:0.20;fill:#ffffff" d="m 28,16 c -6.65,0 -12,5.35 -12,12 v 1 c 0,-6.65 5.35,-12 12,-12 h 136 c 6.65,0 12,5.35 12,12 v -1 c 0,-6.65 -5.35,-12 -12,-12 z"/>
  <path style="filter:url(#filter8024);opacity:0.20;fill:#000000" d="m 124.58,64.97 c -2.62,0 -5.25,0.30 -7.73,1.14 -6.42,2.16 -12.19,9.06 -13.54,16.21 C 103.13,83.26 103,91.68 103,102.47 v 18.53 h 1.34 c 0.74,0 2.10,0.22 3.03,0.50 h 0.00 c 5.13,-1.51 9.72,-5.90 11.10,-11.22 0.26,-1.01 0.53,-2.30 0.48,-2.86 L 119,106.00 h 3 3 v -8.00 -8 h -3 -3 l 0.01,-3.21 c 0.10,-3.59 1.28,-5.71 4.66,-5.75 2.68,0 5.33,0.96 5.33,5.96 0,3 0.02,6.44 0,7.46 0.19,11.04 0.42,11.49 2.37,15.44 3.11,6.31 10.40,11.07 16.99,11.09 l 1.64,0.01 v -8 -8 l -1.26,0.19 C 146.07,104.39 145,102.68 145,99.59 v -1.59 h 2 3 v -8 -8 h -3 -3 l 0.09,-1.61 c 0.54,-9.31 -7.91,-15.41 -19.32,-15.41 z M 42,66.00 42.02,108.98 c 0.02,6.02 8.43,12.06 14.04,12.01 1.71,0.03 3.58,0.19 5.17,0.95 0.97,0.42 0.73,0.79 0.24,-2.11 C 58.90,115.11 58,112.63 58,109.18 v -19.80 -23.38 z m 20,16 v 13.43 c 0,14.89 0.02,15.96 1.73,19.10 1.07,1.97 3.65,4.32 5.94,5.42 1.47,0.71 2.33,0.89 4.77,0.99 3.27,0.14 5.54,0.42 7.87,-1.97 1.35,0.89 1.47,0.67 0.56,1.11 -1.43,2.80 -4.87,4.22 -9.66,3.97 C 70.47,123.92 69.06,123.71 66,122.42 v 6.92 6.66 l 1.88,0.50 c 2.92,0.77 6.63,1.57 10.08,1.50 11.04,0 21.04,-11 21.04,-17 v -19 -20.00 h -8 -8 v 11 10.00 c 0,1 -1.00,2 -2.61,2 -1.39,0 -2.39,-1 -2.39,-2 V 92.71 82.00 h -8 z"/>
  <path style="fill:#ffffff" d="M 124.58 62.97 C 121.97 62.97 119.33 63.28 116.85 64.11 C 110.42 66.27 104.66 73.17 103.30 80.33 C 103.13 81.26 103 89.68 103 100.47 L 103 119 L 104.34 119 C 105.08 119 106.45 118.78 107.38 118.50 L 107.38 118.50 C 112.51 116.99 117.10 112.60 118.48 107.28 C 118.74 106.27 119.01 104.98 118.96 104.42 L 119 104 L 122 104 L 125 104 L 125 96 L 125 88 L 122 88 L 119 88 L 119.01 84.79 C 119.11 81.20 120.28 79.08 123.67 79.04 C 126.35 79.04 129 80 129 85 C 129 88 128.98 91.44 129 92.46 C 129.19 103.50 129.42 103.96 131.37 107.91 C 134.48 114.22 141.77 118.98 148.36 118.99 L 150 119 L 150 111 L 150 103 L 148.74 102.81 C 146.07 102.39 145 100.68 145 97.59 L 145 96 L 147 96 L 150 96 L 150 88 L 150 80 L 147 80 L 144 80 L 143.91 78.39 C 143.37 69.08 136.00 62.97 124.58 62.97 z M 42 64 L 42.02 106.98 C 42.00 113.00 50.45 119.04 56.06 118.99 C 57.77 118.96 59.64 118.80 61.23 118.05 C 62.20 117.63 61.96 117.26 60.99 115.94 C 58.90 113.11 58 110.63 58 107.18 L 58 87.38 L 58 64 L 42 64 z M 62 80 L 62 93.43 C 62 108.32 62.02 109.39 63.73 112.53 C 64.80 114.50 67.38 116.85 69.67 117.96 C 71.14 118.66 72.01 118.84 74.44 118.95 C 77.71 119.09 79.97 118.52 82.31 116.98 C 83.66 116.09 83.77 116.31 82.87 118.09 C 81.44 120.90 78.00 122.31 73.21 122.06 C 70.47 121.92 69.06 121.71 66 120.42 L 66 127.34 L 66 134 L 67.88 134.50 C 70.79 135.27 74.50 136.07 77.96 136 C 89.00 136 99 125 99 119 L 99 100 L 99 80 L 91 80 L 83 80 L 83 91 L 83 101 C 83 102 82.00 103 80.39 103 C 79.00 103 78 102 78 101 L 78 90.71 L 78 80 L 70 80 L 62 80 z "/>
</svg>
