<?xml version='1.0' encoding='utf-8'?>
<svg xmlns="http://www.w3.org/2000/svg" width="192" height="192" version="1" id="svg28">
  <defs>
    <filter style="color-interpolation-filters:sRGB" id="filter7943" x="0.05" y="0.05" width="1.09" height="1.10">
      <feGaussianBlur stdDeviation="3.12"/>
    </filter>
    <filter style="color-interpolation-filters:sRGB" id="filter7947" x="0.05" y="0.05" width="1.10" height="1.10">
      <feGaussianBlur stdDeviation="3.16"/>
    </filter>
    <filter style="color-interpolation-filters:sRGB" id="filter7951" x="0.05" y="0.05" width="1.10" height="1.10">
      <feGaussianBlur stdDeviation="2.00"/>
    </filter>
    <filter style="color-interpolation-filters:sRGB" id="filter8277" x="0.09" y="0.14" width="1.18" height="1.27">
      <feGaussianBlur stdDeviation="1.26"/>
    </filter>
  </defs>
  <path style="filter:url(#filter7943);opacity:0.20;fill:#000000" d="M 96.00,24.00 120.72,74.03 176,82.06 136,121.01 145.44,176.00 96.00,150.03 46.56,176.00 56.00,121.01 16.00,82.06 71.28,74.03 Z"/>
  <path style="fill:#cf1f3f" d="M 96.00,20.00 120.72,70.04 176,78.06 136,117.01 145.44,172 96.00,146.04 46.56,172 56.00,117.01 16.00,78.06 71.28,70.04 Z"/>
  <path style="opacity:0.10;fill:#ffffff" d="M 96,20 71.28,70.04 16,78.06 16.89,78.93 71.28,71.04 96,21 120.72,71.04 175.11,78.93 176,78.06 120.72,70.04 Z M 55.85,117.86 46.56,172 46.75,171.90 56,118.01 Z m 80.29,0 0.15,0.14 9.25,53.89 0.19,0.10 z"/>
  <path style="opacity:0.15;fill:#ffffff" d="m 96,20 v 76 l 24.72,-25.96 z m 0,76 40,21.01 40,-38.95 z m 0,0 v 50.04 L 145.44,172 Z M 96,96 56,117.01 46.56,172 Z M 96,96 71.28,70.04 16,78.06 Z"/>
  <path style="filter:url(#filter7947);opacity:0.20;fill:#000000" d="M 42.26,46.26 95.12,64.16 139.88,30.74 139.14,86.57 184.70,118.78 131.38,135.38 114.78,188.70 82.57,143.14 26.75,143.88 60.16,99.12 Z"/>
  <path style="fill:#fb4242" d="m 42.26,42.26 52.86,17.90 44.76,-33.41 0.74,55.82 45.56,32.21 -53.32,16.60 -16.60,53.32 -32.21,-45.56 -55.82,0.74 33.41,-44.76 z"/>
  <path style="opacity:0.15;fill:#ffffff" d="M 42.26,42.26 96.00,96.00 95.12,60.16 Z m 53.74,53.74 43.14,-13.43 0.74,-55.82 z m 0,0 35.38,35.38 53.32,-16.60 z m 0,0 -13.43,43.14 32.21,45.56 z m 0,0 -35.84,0.88 -33.41,44.76 z"/>
  <path style="filter:url(#filter7951);opacity:0.20;fill:#000000" d="m 61.98,63.98 33.47,11.33 28.34,-21.15 0.47,35.34 28.85,20.39 -33.76,10.51 -10.51,33.76 -20.39,-28.85 -35.34,0.47 21.15,-28.34 z"/>
  <path style="fill:#fb8294" d="m 61.98,61.98 33.47,11.33 28.34,-21.15 0.47,35.34 28.85,20.39 -33.76,10.51 -10.51,33.76 -20.39,-28.85 -35.34,0.47 21.15,-28.34 z"/>
  <path style="fill:#fb6d82" d="M 61.98,61.98 96,96 95.44,73.31 Z M 96,96 l 27.31,-8.50 0.47,-35.34 z m 0,0 22.40,22.40 33.76,-10.51 z m 0,0 -8.50,27.31 20.39,28.85 z m 0,0 -22.69,0.56 -21.15,28.34 z"/>
  <path style="opacity:0.20;fill:#ffffff" d="M 139.88,26.75 95.12,60.16 42.26,42.26 42.64,43.39 95.12,61.16 139.87,27.75 Z m 0.73,55.83 0.01,0.99 44.58,31.52 0.98,0.31 z m -79.22,12.86 -33.18,44.45 0.75,0.01 32.66,-43.75 z"/>
  <path style="opacity:0.20;fill:#ffffff" d="M 123.78,52.16 95.44,73.31 61.98,61.98 62.36,63.11 95.44,74.31 123.77,53.17 Z m 0.46,35.35 0.01,0.99 27.86,19.70 0.98,0.31 z m -50.25,8.25 -20.92,28.03 0.75,0.01 20.40,-27.33 z"/>
  <path style="filter:url(#filter8277);opacity:0.20;fill:#000000" d="m 79,86.00 v 8 h 34 v -8 z M 79,100 v 8 h 34 v -8 z"/>
  <path style="fill:#ffffff" d="m 79,85 v 8 h 34 v -8 z m 0,14 v 8 h 34 v -8 z"/>
</svg>
