<?xml version='1.0' encoding='utf-8'?>
<svg xmlns="http://www.w3.org/2000/svg" width="192" height="192" version="1" id="svg18">
  <defs>
    <filter style="color-interpolation-filters:sRGB" id="filter890" x="0.05" width="1.10" y="0.05" height="1.10">
      <feGaussianBlur stdDeviation="2.64"/>
    </filter>
    <filter style="color-interpolation-filters:sRGB" id="filter906" x="0.07" width="1.13" y="0.07" height="1.13">
      <feGaussianBlur stdDeviation="2.08"/>
    </filter>
    <filter style="color-interpolation-filters:sRGB" id="filter922" x="0.05" width="1.10" y="0.05" height="1.10">
      <feGaussianBlur stdDeviation="2.64"/>
    </filter>
  </defs>
  <path d="m 76.00,34.00 c -3.46,0 -6.92,1.29 -9.50,3.87 L 13.87,90.50 c -5.17,5.17 -5.16,13.82 0.01,18.99 l 52.62,52.63 c 5.17,5.17 13.83,5.18 19.00,0.01 L 138.12,109.50 c 5.17,-5.17 5.17,-13.83 0,-18.99 L 85.50,37.87 c -2.58,-2.58 -6.04,-3.87 -9.50,-3.87 z" style="filter:url(#filter890);opacity:0.20;fill:#000000"/>
  <path style="fill:#8e8e8e" d="m 76.00,30.00 c -3.46,0 -6.92,1.29 -9.50,3.87 L 13.87,86.50 c -5.17,5.17 -5.16,13.82 0.01,18.99 l 52.62,52.63 c 5.17,5.17 13.83,5.18 19.00,0.01 L 138.12,105.50 c 5.17,-5.17 5.17,-13.83 0,-18.99 L 85.50,33.87 c -2.58,-2.58 -6.04,-3.87 -9.50,-3.87 z"/>
  <rect transform="rotate(45)" ry="4.13" rx="4.13" y="-21.01" x="86.47" height="75.95" width="75.95" style="filter:url(#filter906);opacity:0.20;fill:#000000"/>
  <rect style="fill:#ffffff" width="75.95" height="75.95" x="83.65" y="-23.84" rx="4.13" ry="4.13" transform="rotate(45)"/>
  <path d="m 116.00,34.00 c -3.46,0 -6.92,1.29 -9.50,3.87 L 53.87,90.50 c -5.17,5.17 -5.16,13.82 0.01,18.99 l 52.62,52.63 c 5.17,5.17 13.83,5.18 19.00,0.01 l 52.62,-52.63 c 5.17,-5.17 5.17,-13.83 0,-18.99 l -52.62,-52.63 c -2.58,-2.58 -6.04,-3.87 -9.50,-3.87 z" style="filter:url(#filter922);opacity:0.20;fill:#000000"/>
  <path style="opacity:0.20;fill:#ffffff" d="m 76.00,30 c -3.46,0 -6.92,1.29 -9.50,3.87 L 13.87,86.50 c -2.71,2.71 -3.98,6.37 -3.85,9.99 0.12,-3.29 1.39,-6.53 3.85,-8.99 L 66.50,34.87 C 69.08,32.29 72.54,31 76.00,31 79.46,31 82.92,32.29 85.50,34.87 l 52.62,52.63 c 2.46,2.46 3.73,5.71 3.85,9.00 0.13,-3.62 -1.14,-7.29 -3.85,-10.00 L 85.50,33.87 C 82.92,31.29 79.46,30 76.00,30 Z"/>
  <path style="fill:#e52e38" d="m 116.00,30.00 c -3.46,0 -6.92,1.29 -9.50,3.87 L 53.87,86.50 c -5.17,5.17 -5.16,13.82 0.01,18.99 l 52.62,52.63 c 5.17,5.17 13.83,5.18 19.00,0.01 l 52.62,-52.63 c 5.17,-5.17 5.17,-13.83 0,-18.99 l -52.62,-52.63 c -2.58,-2.58 -6.04,-3.87 -9.50,-3.87 z"/>
  <path style="opacity:0.20;fill:#ffffff" d="m 116.00,30 c -3.46,0 -6.92,1.29 -9.50,3.87 L 53.87,86.50 c -2.71,2.71 -3.98,6.37 -3.85,9.99 0.12,-3.29 1.39,-6.53 3.85,-8.99 L 106.50,34.87 C 109.08,32.29 112.54,31 116.00,31 c 3.46,0 6.92,1.29 9.50,3.87 l 52.62,52.63 c 2.46,2.46 3.73,5.71 3.85,9.00 0.13,-3.62 -1.14,-7.29 -3.85,-10.00 L 125.50,33.87 C 122.92,31.29 119.46,30 116.00,30 Z"/>
</svg>
