<?xml version='1.0' encoding='utf-8'?>
<svg xmlns="http://www.w3.org/2000/svg" width="192" height="192" version="1" id="svg14">
  <defs>
    <filter style="color-interpolation-filters:sRGB" id="filter850" x="-0.054000002" width="1.108" y="-0.043200002" height="1.0864">
      <feGaussianBlur stdDeviation="2.88"/>
    </filter>
    <filter style="color-interpolation-filters:sRGB" id="filter869" x="-0.033333333" width="1.0666667" y="-0.085714286" height="1.1714286">
      <feGaussianBlur stdDeviation="2"/>
    </filter>
  </defs>
  <rect style="filter:url(#filter850);opacity:0.2;fill:#000000" width="128" height="160" x="-164" y="-176" rx="8" ry="8" transform="matrix(0,-1,-1,0,0,0)"/>
  <rect transform="matrix(0,-1,-1,0,0,0)" ry="8" rx="8" y="-176" x="-160" height="160" width="128" style="fill:#0ed7ae"/>
  <path style="opacity:0.2;fill:#ffffff" d="M 24 32 C 19.568 32 16 35.568 16 40 L 16 41 C 16 36.568 19.568 33 24 33 L 168 33 C 172.432 33 176 36.568 176 41 L 176 40 C 176 35.568 172.432 32 168 32 L 24 32 z "/>
  <path d="m 44,74 v 13.070312 l -11.320312,-6.531248 -4,6.921872 L 40.007812,94 l -11.328124,6.53906 4,6.92188 L 44,100.92969 V 114 h 8 v -13.07031 l 11.320312,6.53125 4,-6.92188 L 55.992188,94 l 11.328124,-6.539064 -4,-6.921872 L 52,87.070312 V 74 Z m 48,0 v 13.070312 l -11.320312,-6.531248 -4,6.921872 L 88.007812,94 l -11.328124,6.53906 4,6.92188 L 92,100.92969 V 114 h 8 v -13.07031 l 11.32031,6.53125 4,-6.92188 L 103.99219,94 l 11.32812,-6.539064 -4,-6.921872 L 100,87.070312 V 74 Z m 48,0 v 13.070312 l -11.32031,-6.531248 -4,6.921872 L 136.00781,94 l -11.32812,6.53906 4,6.92188 L 140,100.92969 V 114 h 8 v -13.07031 l 11.32031,6.53125 4,-6.92188 L 151.99219,94 l 11.32812,-6.539064 -4,-6.921872 L 148,87.070312 V 74 Z M 24,122 v 8 h 144 v -8 z" style="filter:url(#filter869);opacity:0.2"/>
  <path d="m 44,72 v 13.070312 l -11.320312,-6.531248 -4,6.921872 L 40.007812,92 l -11.328124,6.539064 4,6.921876 L 44,98.929688 V 112 h 8 V 98.929688 l 11.320312,6.531252 4,-6.921876 L 55.992188,92 l 11.328124,-6.539064 -4,-6.921872 L 52,85.070312 V 72 Z m 48,0 v 13.070312 l -11.320312,-6.531248 -4,6.921872 L 88.007812,92 l -11.328124,6.539064 4,6.921876 L 92,98.929688 V 112 h 8 V 98.929688 l 11.32031,6.531252 4,-6.921876 L 103.99219,92 l 11.32812,-6.539064 -4,-6.921872 L 100,85.070312 V 72 Z m 48,0 v 13.070312 l -11.32031,-6.531248 -4,6.921872 L 136.00781,92 l -11.32812,6.539064 4,6.921876 L 140,98.929688 V 112 h 8 V 98.929688 l 11.32031,6.531252 4,-6.921876 L 151.99219,92 l 11.32812,-6.539064 -4,-6.921872 L 148,85.070312 V 72 Z M 24,120 v 8 h 144 v -8 z" style="fill:#ffffff"/>
</svg>
