<?xml version='1.0' encoding='utf-8'?>
<svg xmlns="http://www.w3.org/2000/svg" width="192" height="192" version="1" id="svg28">
  <defs>
    <filter style="color-interpolation-filters:sRGB" id="filter6495" x="0.05" y="0.05" width="1.10" height="1.10">
      <feGaussianBlur stdDeviation="3.20"/>
    </filter>
    <filter style="color-interpolation-filters:sRGB" id="filter1689" x="0.09" y="0.07" width="1.18" height="1.13">
      <feGaussianBlur stdDeviation="2.72"/>
    </filter>
  </defs>
  <rect transform="matrix(0,-1,-1,0,0,0)" ry="12" rx="12" y="-176" x="-180" height="160" width="160" style="filter:url(#filter6495);opacity:0.20;fill:#000000"/>
  <rect transform="matrix(0,-1,-1,0,0,0)" ry="12" rx="12" y="-176" x="-176" height="160" width="160" style="fill:#e4e4e4"/>
  <path style="opacity:0.20;fill:#ffffff" d="m 28,16 c -6.65,0 -12,5.35 -12,12 v 1 c 0,-6.65 5.35,-12 12,-12 h 136 c 6.65,0 12,5.35 12,12 v -1 c 0,-6.65 -5.35,-12 -12,-12 z"/>
  <path style="filter:url(#filter1689);opacity:0.20;fill:#000000" d="m 115,48 v 1.60 c 4.83,0 8,1.60 8,5.35 C 123,57.09 121.74,60 116.91,60 113.16,60 105.12,58.16 99.22,56.02 92.25,53.35 85.81,51 80.45,51 69.72,51 62.22,59.23 62.22,68.32 c 0,8.02 5.90,10.70 8.04,11.77 l 0.54,-1.07 c -1.07,-1.07 -2.68,-2.14 -2.68,-5.35 0,-2.14 2.15,-5.67 7.51,-5.67 4.83,0 11.26,1.93 19.84,4.60 7.51,2.14 15.25,3.74 19.54,4.28 v 16.58 l -8,6.95 v 0.54 l 8,6.95 v 23.00 c -4.29,2.67 -8.81,3.21 -13.10,3.21 -8.04,0 -15.01,-2.14 -20.91,-8.55 L 103,114.85 V 77.95 L 76.16,89.71 c 2.14,-6.95 8.04,-11.76 13.94,-14.97 L 89.56,73.13 C 73.48,77.41 59,92.38 59,110.57 59,131.96 76.70,148 96.54,148 c 21.45,0 35.39,-17.35 35.39,-35 h -1.07 c -3.22,6.95 -7.96,13.61 -13.86,16.82 v -21.93 l 8,-6.95 v 0.54 l -8,-6.95 V 76.88 c 8.04,0 16,-5.35 16,-15.51 C 133,50.67 123.04,48 115,48 Z M 86,86.94 v 33.55 l -6.09,2.91 c -3.75,-4.81 -5.90,-11.23 -5.90,-20.32 0,-3.74 0.00,-8.02 1.07,-11.23 z"/>
  <path style="fill:#3f3f3f" d="m 115,46 v 1.60 c 4.83,0 8,1.60 8,5.35 C 123,55.09 121.74,58 116.91,58 113.16,58 105.12,56.16 99.22,54.02 92.25,51.35 85.81,49 80.45,49 69.72,49 62.22,57.23 62.22,66.32 c 0,8.02 5.90,10.70 8.04,11.77 l 0.54,-1.07 c -1.07,-1.07 -2.68,-2.14 -2.68,-5.35 0,-2.14 2.15,-5.67 7.51,-5.67 4.83,0 11.26,1.93 19.84,4.60 7.51,2.14 15.25,3.74 19.54,4.28 v 16.58 l -8,6.95 v 0.54 l 8,6.95 v 23.00 c -4.29,2.67 -8.81,3.21 -13.10,3.21 -8.04,0 -15.01,-2.14 -20.91,-8.55 L 103,112.85 V 75.95 L 76.16,87.71 c 2.14,-6.95 8.04,-11.76 13.94,-14.97 L 89.56,71.13 C 73.48,75.41 59,90.38 59,108.57 59,129.96 76.70,146 96.54,146 c 21.45,0 35.39,-17.35 35.39,-35 h -1.07 c -3.22,6.95 -7.96,13.61 -13.86,16.82 v -21.93 l 8,-6.95 V 98.41 l -8,-6.95 V 74.88 c 8.04,0 16,-5.35 16,-15.51 C 133,48.67 123.04,46 115,46 Z M 86,84.94 v 33.55 l -6.09,2.91 c -3.75,-4.81 -5.90,-11.23 -5.90,-20.32 0,-3.74 0.00,-8.02 1.07,-11.23 z"/>
</svg>
