<?xml version='1.0' encoding='utf-8'?>
<svg xmlns="http://www.w3.org/2000/svg" width="192" height="192" version="1" id="svg14">
  <defs>
    <filter style="color-interpolation-filters:sRGB" id="filter2621" x="-0.048000001" y="-0.048000001" width="1.096" height="1.096">
      <feGaussianBlur stdDeviation="3.2"/>
    </filter>
    <filter style="color-interpolation-filters:sRGB" id="filter13498" x="-0.13389828" y="-0.090496401" width="1.2677966" height="1.1809928">
      <feGaussianBlur stdDeviation="4.0723416"/>
    </filter>
  </defs>
  <rect style="filter:url(#filter2621);opacity:0.2;fill:#000000" width="160" height="160" x="16" y="20" ry="20"/>
  <rect style="fill:#e4e4e4" width="160" height="160" x="16" y="16" ry="20"/>
  <path style="filter:url(#filter13498);opacity:0.2;fill:#000000" d="m 128.67188,44 c -25.51642,14.75508 -70.48046,19.803793 -68.605474,60.46484 6.1e-5,0.001 -6e-5,0.003 0,0.004 -0.511088,11.67273 1.221475,35.36812 50.136714,47.53125 5.55998,-20.35293 -1.99327,-30.84124 -19.718745,-40.17188 1.848229,-0.80065 3.689668,-1.6027 5.425781,-2.34765 C 147.70666,87.255139 130.82321,47.955443 128.67188,44 Z"/>
  <path style="fill:#38adfa" d="m 688.80525,256.99648 c -0.33229,-0.33229 -1.1948,-0.36781 -1.91667,-0.0789 -0.79773,0.31922 -0.56078,0.55618 0.60417,0.60416 1.05416,0.0434 1.64479,-0.19293 1.3125,-0.52522 z"/>
  <path style="opacity:0.2;fill:#ffffff" d="M 36 16 C 24.92 16 16 24.92 16 36 L 16 37 C 16 25.92 24.92 17 36 17 L 156 17 C 167.08 17 176 25.92 176 37 L 176 36 C 176 24.92 167.08 16 156 16 L 36 16 z "/>
  <path style="fill:#3881ef" d="m 128.67169,42 c 2.15133,3.955443 19.03458,43.25557 -32.761919,65.4809 C 86.847516,111.36942 76.37853,116.20817 63.243016,120 46.298217,62.932464 99.875293,58.651756 128.67169,42 Z"/>
  <path style="fill:#9bc4ff" d="m 60.272242,97 c 38.357235,14.66185 58.018708,23.39269 49.930638,53 C 51.343269,135.36413 60.790187,103.96599 60.272242,97 Z"/>
  <path style="fill:#1b51b3" d="M 60.271484 97 C 60.358942 98.176242 60.170356 100.09371 60.066406 102.46484 C 60.307424 107.69157 61.312133 113.49987 63.242188 120 C 73.861249 116.93459 82.68512 113.20677 90.484375 109.82812 C 82.42468 105.58553 72.260841 101.58287 60.271484 97 z "/>
</svg>
