<?xml version='1.0' encoding='utf-8'?>
<svg xmlns="http://www.w3.org/2000/svg" width="192" height="192" version="1" id="svg28">
  <defs>
    <filter style="color-interpolation-filters:sRGB" id="filter901" x="0.05" width="1.10" y="0.05" height="1.10">
      <feGaussianBlur stdDeviation="3.20"/>
    </filter>
    <filter style="color-interpolation-filters:sRGB" id="filter2434" x="0.04" y="0.06" width="1.08" height="1.11">
      <feGaussianBlur stdDeviation="1.87"/>
    </filter>
  </defs>
  <rect style="filter:url(#filter901);opacity:0.20;fill:#000000" width="160" height="160" x="-180" y="-176" rx="12" ry="12" transform="matrix(0,-1,-1,0,0,0)"/>
  <rect transform="matrix(0,-1,-1,0,0,0)" ry="12" rx="12" y="-176" x="-176" height="160" width="160" style="fill:#f2383a"/>
  <path style="opacity:0.20;fill:#ffffff" d="m 28,16 c -6.65,0 -12,5.35 -12,12 v 1 c 0,-6.65 5.35,-12 12,-12 h 136 c 6.65,0 12,5.35 12,12 v -1 c 0,-6.65 -5.35,-12 -12,-12 z"/>
  <path style="filter:url(#filter2434);opacity:0.20;fill:#000000" d="M 87.58,58.00 C 76.80,89.82 70.53,102.39 65.73,110.80 c -2.67,4.56 -5.73,8.53 -7.60,9.53 0.73,0.39 -1.53,0.14 -1.60,-1.06 0,-1.33 0.47,-3.29 1.93,-7.26 H 40.52 c -3.46,9.26 -4.93,23.94 6.20,25 h 0.67 c 11.47,0 24.47,-28.32 26.88,-33.15 0.06,0.10 0.15,0.19 0.26,0.24 0.10,0.06 0.22,0.09 0.34,0.09 0.10,0.00 0.19,0.02 0.28,0.07 0.09,0.04 0.16,0.11 0.22,0.18 0.06,0.08 0.10,0.17 0.11,0.26 0.02,0.09 0.01,0.19 0.02,0.29 -1.13,4.30 -6.46,24.21 0.79,30.11 1.65,1.63 3.87,2.55 6.20,2.58 11.07,0 24.54,-31.70 30.36,-43.67 0.47,0.86 1.67,-3.44 2.14,-4.43 0.06,0.10 0.15,0.19 0.25,0.24 0.10,0.06 0.22,0.09 0.34,0.09 0.10,0.00 0.21,0.03 0.30,0.07 0.09,0.05 0.17,0.12 0.23,0.20 0.06,0.08 0.10,0.18 0.11,0.28 0.01,0.10 0.01,0.20 0.03,0.30 0.34,0.80 0.80,2.12 -1.33,3.51 -2.34,6.42 -15.54,33.68 -6.07,41.81 1.05,1.04 2.38,1.75 3.82,2.04 9.07,1.45 18.21,-10.92 23.80,-17.79 l -2.80,-2.78 c -1.13,1.26 -2.73,3.31 -3.87,4.70 0.18,0.28 0.45,0.49 0.76,0.61 0.31,0.12 0.65,0.14 0.97,0.06 0.32,0.08 0.61,0.26 0.83,0.51 0.22,0.25 0.35,0.57 0.37,0.89 C 123.59,111.26 143,58.00 143,58.00 h -19.74 c -1.22,3.83 -21.74,47.76 -27.34,52.99 0.16,0.16 0.37,0.26 0.59,0.29 0.22,0.03 0.45,0.00 0.65,0.11 0.20,0.10 0.36,0.27 0.46,0.46 0.10,0.20 0.14,0.43 0.10,0.65 2.56,-18.32 7.30,-34.34 13.10,-52.06 z M 140.50,126.00 c 0.72,0.01 -1.44,0.13 -2.11,0.41 0.67,0.27 -1.28,0.68 -1.79,1.19 0.51,0.51 0.92,1.12 -1.19,1.79 0.27,0.67 0.41,1.39 0.41,2.11 0,1.09 0.32,2.15 0.93,3.05 0.60,0.90 1.46,1.61 2.47,2.03 1.00,0.42 2.11,0.52 3.18,0.31 1.07,0.21 2.05,0.74 2.82,-1.51 0.77,0.77 1.29,-1.75 1.51,-2.82 0.21,-1.07 0.10,-2.17 0.31,-3.18 0.42,-1.00 -1.12,-1.86 -2.03,-2.47 0.90,0.60 -1.97,0.93 -3.05,0.93 z"/>
  <path style="fill:#ffffff" d="m 87.58,56 c -10.78,31.82 -17.05,44.40 -21.85,52.80 -2.67,4.56 -5.73,8.53 -7.60,9.53 0.73,0.39 -1.53,0.14 -1.60,-1.06 0,-1.33 0.47,-3.29 1.93,-7.26 H 40.52 c -3.46,9.26 -4.93,23.94 6.20,25 h 0.67 c 11.47,0 24.47,-28.32 26.88,-33.15 0.06,0.10 0.15,0.19 0.26,0.24 0.10,0.06 0.22,0.09 0.34,0.09 0.10,0.00 0.19,0.02 0.28,0.07 0.09,0.04 0.16,0.11 0.22,0.18 0.06,0.08 0.10,0.17 0.11,0.26 0.02,0.09 0.01,0.19 0.02,0.29 -1.13,4.30 -6.46,24.21 0.79,30.11 1.65,1.63 3.87,2.55 6.20,2.58 11.07,0 24.54,-31.70 30.36,-43.67 0.47,0.86 1.67,-3.44 2.14,-4.43 0.06,0.10 0.15,0.19 0.25,0.24 0.10,0.06 0.22,0.09 0.34,0.09 0.10,0.00 0.21,0.03 0.30,0.07 0.09,0.05 0.17,0.12 0.23,0.20 0.06,0.08 0.10,0.18 0.11,0.28 0.01,0.10 0.01,0.20 0.03,0.30 0.34,0.80 0.80,2.12 -1.33,3.51 -2.34,6.42 -15.54,33.68 -6.07,41.81 1.05,1.04 2.38,1.75 3.82,2.04 9.07,1.45 18.21,-10.92 23.80,-17.79 l -2.80,-2.78 c -1.13,1.26 -2.73,3.31 -3.87,4.70 0.18,0.28 0.45,0.49 0.76,0.61 0.31,0.12 0.65,0.14 0.97,0.06 0.32,0.08 0.61,0.26 0.83,0.51 0.22,0.25 0.35,0.57 0.37,0.89 C 123.59,109.26 143,56 143,56 h -19.74 c -1.22,3.83 -21.74,47.76 -27.34,52.99 0.16,0.16 0.37,0.26 0.59,0.29 0.22,0.03 0.45,0.00 0.65,0.11 0.20,0.10 0.36,0.27 0.46,0.46 0.10,0.20 0.14,0.43 0.10,0.65 C 96.68,89.74 101.41,73.73 107.21,56 Z M 140.50,124 c 0.72,0.01 -1.44,0.13 -2.11,0.41 0.67,0.27 -1.28,0.68 -1.79,1.19 0.51,0.51 0.92,1.12 -1.19,1.79 0.27,0.67 0.41,1.39 0.41,2.11 0,1.09 0.32,2.15 0.93,3.05 0.60,0.90 1.46,1.61 2.47,2.03 1.00,0.42 2.11,0.52 3.18,0.31 1.07,0.21 2.05,0.74 2.82,-1.51 0.77,0.77 1.29,-1.75 1.51,-2.82 0.21,-1.07 0.10,-2.17 0.31,-3.18 0.42,-1.00 -1.12,-1.86 -2.03,-2.47 C 142.65,124.32 141.59,124 140.50,124 Z"/>
</svg>
