<?xml version='1.0' encoding='utf-8'?>
<svg xmlns="http://www.w3.org/2000/svg" width="192" height="192" version="1" id="svg16">
  <defs>
    <filter style="color-interpolation-filters:sRGB" id="filter971" x="0.05" y="0.05" width="1.10" height="1.10">
      <feGaussianBlur stdDeviation="3.20"/>
    </filter>
    <filter style="color-interpolation-filters:sRGB" id="filter3864" x="0.07" y="0.04" width="1.14" height="1.07">
      <feGaussianBlur stdDeviation="1.28"/>
    </filter>
    <filter style="color-interpolation-filters:sRGB" id="filter3868" x="0.07" y="0.04" width="1.14" height="1.07">
      <feGaussianBlur stdDeviation="1.34"/>
    </filter>
  </defs>
  <rect style="filter:url(#filter971);opacity:0.20;fill:#000000" width="160" height="160" x="16" y="20" rx="80" ry="80"/>
  <circle style="fill:#313177;stop-color:#000000" cx="96" cy="96" r="80"/>
  <path style="opacity:0.10;fill:#ffffff" d="M 96.00,16 C 51.68,16.00 16,51.68 16,96 c 0,0.17 0.01,0.34 0.01,0.52 C 16.27,52.42 51.84,17.00 96.00,17 H 96 c 44.16,0.00 79.73,35.42 79.99,79.52 0.00,0.17 0.01,0.34 0.01,0.52 0,-44.32 -35.68,-80.00 -80.00,-80 z"/>
  <path style="filter:url(#filter3864);opacity:0.20;fill:#000000" d="m 109.20,49.30 c -7.12,7.08 -11.67,16.80 -12.85,27.48 -2.24,20.17 6.59,38.65 23.05,48.21 4.30,2.50 10.73,5.19 11.96,5.01 0.99,0.14 0.87,0.54 -1.40,-4.39 -3.10,-5.28 -4.59,-9.63 -5.58,-16.35 0.62,-4.17 0.78,-6.84 0.61,-9.69 0.75,-12.01 5.57,-23.02 13.38,-30.63 1.42,-1.38 2.69,-2.71 2.81,-2.95 0.49,0.96 -3.66,-5.88 -8.75,-10.37 -4.74,-4.19 -15.54,-9.94 -18.00,-9.60 0.45,0.06 -2.26,1.54 -4.01,3.28 z"/>
  <path style="fill:#0894ff" d="m 109.20,47.30 c -7.12,7.08 -11.67,16.80 -12.85,27.48 -2.24,20.17 6.59,38.65 23.05,48.21 4.30,2.50 10.73,5.19 11.96,5.01 0.99,0.14 0.87,0.54 -1.40,-4.39 -3.10,-5.28 -4.59,-9.63 -5.58,-16.35 0.62,-4.17 0.78,-6.84 0.61,-9.69 0.75,-12.01 5.57,-23.02 13.38,-30.63 1.42,-1.38 2.69,-2.71 2.81,-2.95 0.49,0.96 -3.66,-5.88 -8.75,-10.37 -4.74,-4.19 -15.54,-9.94 -18.00,-9.60 0.45,0.06 -2.26,1.54 -4.01,3.28 z"/>
  <path style="filter:url(#filter3868);opacity:0.20;fill:#000000" d="M 83.31,146.29 C 91.45,140.22 97.42,131.12 100.17,120.57 105.38,100.63 99.28,80.78 84.27,68.78 80.34,65.64 74.33,62.00 73.07,62.00 c -1.01,0.00 0.94,0.41 0.75,4.62 2.32,5.76 3.16,10.35 3.17,17.23 0.00,4.28 0.22,6.98 0.82,9.82 -2.52,11.95 -8.94,22.31 -17.85,28.81 -1.62,1.18 -3.08,2.33 -3.23,2.55 0.63,0.89 2.78,6.44 7.20,11.70 4.11,4.90 14.04,12.26 16.55,12.27 0.46,0.00 2.48,-1.22 4.48,-2.71 z"/>
  <path style="fill:#50f4ff" d="M 83.31,144.29 C 91.45,138.22 97.42,129.12 100.17,118.57 105.38,98.63 99.28,78.78 84.27,66.78 80.34,63.64 74.33,60.00 73.07,60 c -1.01,0.00 0.94,0.41 0.75,4.62 2.32,5.76 3.16,10.35 3.17,17.23 0.00,4.28 0.22,6.98 0.82,9.82 -2.52,11.95 -8.94,22.31 -17.85,28.81 -1.62,1.18 -3.08,2.33 -3.23,2.55 0.63,0.89 2.78,6.44 7.20,11.70 4.11,4.90 14.04,12.26 16.55,12.27 0.46,0.00 2.48,-1.22 4.48,-2.71 z"/>
</svg>
