<?xml version='1.0' encoding='utf-8'?>
<svg xmlns="http://www.w3.org/2000/svg" width="192" height="192" version="1" id="svg14">
  <defs>
    <filter style="color-interpolation-filters:sRGB" id="filter850" x="0.05" width="1.10" y="0.05" height="1.10">
      <feGaussianBlur stdDeviation="3.20"/>
    </filter>
    <filter style="color-interpolation-filters:sRGB" id="filter2358" x="0.13" y="0.10" width="1.25" height="1.19">
      <feGaussianBlur stdDeviation="3.96"/>
    </filter>
    <filter style="color-interpolation-filters:sRGB" id="filter2400" x="0.12" y="0.10" width="1.24" height="1.20">
      <feGaussianBlur stdDeviation="1.32"/>
    </filter>
  </defs>
  <circle style="filter:url(#filter850);opacity:0.20;fill:#000000" cx="96" cy="100" r="80"/>
  <circle r="80" cy="96" cx="96" style="fill:#3f3f3f"/>
  <path style="opacity:0.10;fill:#ffffff" d="M 96 16 A 80 80 0 0 0 16 96 A 80 80 0 0 0 16.02 96.47 A 80 80 0 0 1 96 17 A 80 80 0 0 1 175.97 96.51 A 80 80 0 0 0 176 96 A 80 80 0 0 0 96 16 z "/>
  <path style="fill:#38adfa" d="m 688.81,257.00 c 0.33,0.33 -1.19,0.37 -1.92,0.08 0.80,0.32 0.56,0.56 0.60,0.60 1.05,0.04 1.64,0.19 1.31,0.53 z"/>
  <path style="filter:url(#filter2358);opacity:0.20;fill:#000000" d="m 93.09,147.89 c -12.14,0.99 -23.09,-7.57 -29.37,-17.65 -4.70,-7.54 -6.58,-16.20 -5.35,-24.62 1.44,-9.85 6.74,-21.73 15.35,-34.44 7.29,-10.76 16.12,-20.47 20.63,-22.69 0.86,0.43 1.05,0.48 1.65,0.48 0.82,0 1.44,0.24 2.65,1.02 5.62,3.61 15.49,15.23 22.52,26.50 7.28,11.66 11.55,22.25 12.67,31.34 0.22,1.83 0.23,5.68 0,7.55 -1.68,14.11 -10.71,25.81 -23.91,30.96 -5.25,2.05 -11.34,2.96 -16.84,2.51 z"/>
  <path style="fill:#f63073" d="m 93.09,145.89 c -12.14,0.99 -23.09,-7.57 -29.37,-17.65 -4.70,-7.54 -6.58,-16.20 -5.35,-24.62 1.44,-9.85 6.74,-21.73 15.35,-34.44 7.29,-10.76 16.12,-20.47 20.63,-22.69 0.86,0.43 1.05,0.48 1.65,0.48 0.82,0 1.44,0.24 2.65,1.02 5.62,3.61 15.49,15.23 22.52,26.50 7.28,11.66 11.55,22.25 12.67,31.34 0.22,1.83 0.23,5.68 0,7.55 -1.68,14.11 -10.71,25.81 -23.91,30.96 -5.25,2.05 -11.34,2.96 -16.84,2.51 z"/>
  <path style="filter:url(#filter2400);opacity:0.20;fill:#000000;color:#000000" d="m 118.76,102.80 a 4,4 0 0 0 -3.79,4.21 c 0.50,9.54 -6.09,17.91 -15.48,19.67 a 4,4 0 0 0 -3.20,4.67 4,4 0 0 0 4.67,3.20 c 13.27,-2.48 22.70,-14.47 22.00,-27.95 a 4,4 0 0 0 -4.20,-3.79 z"/>
  <path style="fill:#ffffff;color:#000000" d="m 118.76,101.80 a 4,4 0 0 0 -3.79,4.21 c 0.50,9.54 -6.09,17.91 -15.48,19.67 a 4,4 0 0 0 -3.20,4.67 4,4 0 0 0 4.67,3.20 c 13.27,-2.48 22.70,-14.47 22.00,-27.95 a 4,4 0 0 0 -4.20,-3.79 z"/>
  <path style="opacity:0.20;fill:#ffffff" d="M 96.00 46 C 95.40 46 95.21 46.05 94.35 46.48 C 89.84 48.70 81.01 58.42 73.72 69.18 C 65.11 81.89 59.81 93.77 58.37 103.62 C 58.10 105.42 57.99 107.24 58.01 109.06 C 58.04 107.58 58.15 106.09 58.37 104.62 C 59.81 94.77 65.11 82.89 73.72 70.18 C 81.01 59.42 89.84 49.70 94.35 47.48 C 95.21 47.05 95.40 47 96.00 47 C 96.82 47 97.44 47.24 98.65 48.02 C 104.27 51.63 114.14 63.24 121.17 74.51 C 128.44 86.18 132.72 96.76 133.83 105.86 C 133.93 106.66 133.98 107.88 133.99 109.13 C 134.01 107.54 133.96 105.89 133.83 104.86 C 132.72 95.76 128.44 85.18 121.17 73.51 C 114.14 62.24 104.27 50.63 98.65 47.02 C 97.44 46.24 96.82 46 96.00 46 z "/>
</svg>
