<?xml version='1.0' encoding='utf-8'?>
<svg xmlns="http://www.w3.org/2000/svg" width="192" height="192" version="1" id="svg14">
  <defs>
    <filter style="color-interpolation-filters:sRGB" id="filter850" x="-0.048000001" width="1.096" y="-0.048000001" height="1.096">
      <feGaussianBlur stdDeviation="3.2"/>
    </filter>
    <filter style="color-interpolation-filters:sRGB" id="filter12135" x="-0.082463236" y="-0.15645206" width="1.1649265" height="1.3129041">
      <feGaussianBlur stdDeviation="3.9169919"/>
    </filter>
  </defs>
  <circle style="filter:url(#filter850);opacity:0.2;fill:#000000" cx="96" cy="100" r="80"/>
  <circle r="80" cy="96" cx="96" style="fill:#4858dd"/>
  <path style="opacity:0.2;fill:#ffffff" d="M 53 49 L 53 143 L 55 143 L 55 49 L 53 49 z M 81 49 L 81 143 L 83 143 L 83 49 L 81 49 z M 109 49 L 109 143 L 111 143 L 111 49 L 109 49 z M 137 49 L 137 143 L 139 143 L 139 49 L 137 49 z "/>
  <path style="opacity:0.1;fill:#ffffff" d="M 96 16 A 80 80 0 0 0 16 96 A 80 80 0 0 0 16.019531 96.472656 A 80 80 0 0 1 96 17 A 80 80 0 0 1 175.97461 96.513672 A 80 80 0 0 0 176 96 A 80 80 0 0 0 96 16 z "/>
  <path style="filter:url(#filter12135);opacity:0.2;fill:#000000;color:#000000" d="m 147.61719,65.245971 a 4,4 0 0 0 -2.24805,2.076172 c 0,0 -1.74412,3.763776 -4.37305,7.871093 -2.62892,4.107318 -6.47389,8.287407 -8.48632,9.095703 -1.68717,0.677653 -4.64599,-0.18573 -8.66407,-1.751953 -4.01808,-1.566222 -9.29885,-3.830263 -14.66015,-1.101562 -4.3008,2.188942 -6.87814,6.076605 -8.54297,10.05664 -1.664829,3.980036 -2.579461,8.239739 -3.51758,12.146486 -0.938119,3.90675 -1.925253,7.45017 -3.193359,9.75781 -1.268107,2.30765 -2.330239,3.29185 -4.570313,3.6543 -1.440715,0.23311 -1.72966,0.0347 -2.634766,-0.79101 -0.905105,-0.82569 -2.0289,-2.54707 -3.234375,-4.6543 -1.205474,-2.10723 -2.514018,-4.57121 -4.482421,-6.81836 -1.968404,-2.24715 -4.85421,-4.29953 -8.515625,-4.75586 C 63.658397,99.17917 56.828728,102.7844 51,106.07605 c -5.828728,3.29166 -10.398438,6.72266 -10.398438,6.72266 a 4,4 0 0 0 -0.802734,5.59961 4,4 0 0 0 5.599609,0.80273 c 0,0 4.219479,-3.15628 9.535157,-6.1582 5.315678,-3.00192 11.985685,-5.39659 14.572265,-5.07422 1.43631,0.17901 2.331713,0.77395 3.484375,2.08984 1.152663,1.3159 2.306308,3.33047 3.558594,5.51954 1.252286,2.18906 2.582452,4.58237 4.785156,6.59179 2.202705,2.00942 5.674191,3.36672 9.304688,2.7793 4.805609,-0.77756 8.301996,-4.05481 10.304688,-7.69922 2.00269,-3.64441 2.99874,-7.7433 3.95898,-11.74219 0.96025,-3.99889 1.85755,-7.907014 3.1211,-10.927735 1.26355,-3.020721 2.73097,-4.967139 4.79101,-6.015625 1.56366,-0.795842 4.17694,-0.113149 8.125,1.425781 3.94807,1.538931 9.02753,3.939126 14.55078,1.720703 5.63003,-2.261307 9.2837,-7.579806 12.24414,-12.205078 2.96045,-4.625271 4.89649,-8.828125 4.89649,-8.828125 a 4,4 0 0 0 -1.95313,-5.308593 4,4 0 0 0 -3.06054,-0.123047 z"/>
  <path style="fill:#ffbb36;color:#000000" d="m 147.61719,63.246094 a 4,4 0 0 0 -2.24805,2.076172 c 0,0 -1.74412,3.763776 -4.37305,7.871093 -2.62892,4.107318 -6.47389,8.287407 -8.48632,9.095703 -1.68717,0.677653 -4.64599,-0.18573 -8.66407,-1.751953 -4.01808,-1.566222 -9.29885,-3.830263 -14.66015,-1.101562 -4.3008,2.188942 -6.87814,6.076605 -8.54297,10.05664 -1.664829,3.980036 -2.579461,8.239739 -3.51758,12.146483 -0.938119,3.90675 -1.925253,7.45017 -3.193359,9.75781 -1.268107,2.30765 -2.330239,3.29185 -4.570313,3.6543 -1.440715,0.23311 -1.72966,0.0347 -2.634766,-0.79101 -0.905105,-0.82569 -2.0289,-2.54707 -3.234375,-4.6543 -1.205474,-2.10723 -2.514018,-4.57121 -4.482421,-6.81836 -1.968404,-2.24715 -4.85421,-4.299523 -8.515625,-4.75586 C 63.658397,97.179293 56.828728,100.78452 51,104.07617 c -5.828728,3.29166 -10.398438,6.72266 -10.398438,6.72266 a 4,4 0 0 0 -0.802734,5.59961 4,4 0 0 0 5.599609,0.80273 c 0,0 4.219479,-3.15628 9.535157,-6.1582 5.315678,-3.00192 11.985685,-5.39659 14.572265,-5.07422 1.43631,0.17901 2.331713,0.77395 3.484375,2.08984 1.152663,1.3159 2.306308,3.33047 3.558594,5.51954 1.252286,2.18906 2.582452,4.58237 4.785156,6.59179 2.202705,2.00942 5.674191,3.36672 9.304688,2.7793 4.805609,-0.77756 8.301996,-4.05481 10.304688,-7.69922 2.00269,-3.64441 2.99874,-7.7433 3.95898,-11.74219 0.96025,-3.998883 1.85755,-7.907011 3.1211,-10.927732 1.26355,-3.020721 2.73097,-4.967139 4.79101,-6.015625 1.56366,-0.795842 4.17694,-0.113149 8.125,1.425781 3.94807,1.538931 9.02753,3.939126 14.55078,1.720703 5.63003,-2.261307 9.2837,-7.579806 12.24414,-12.205078 2.96045,-4.625271 4.89649,-8.828125 4.89649,-8.828125 a 4,4 0 0 0 -1.95313,-5.308593 4,4 0 0 0 -3.06054,-0.123047 z"/>
  <path style="opacity:0.2;fill:#ffffff;color:#000000" d="M 149.16016 63.003906 A 4 4 0 0 0 147.61719 63.246094 A 4 4 0 0 0 145.36914 65.322266 C 145.36914 65.322266 143.62502 69.086042 140.99609 73.193359 C 138.36717 77.300677 134.5222 81.480767 132.50977 82.289062 C 130.8226 82.966716 127.86378 82.103332 123.8457 80.537109 C 119.82762 78.970887 114.54685 76.706846 109.18555 79.435547 C 104.88475 81.624489 102.30741 85.512152 100.64258 89.492188 C 98.977749 93.472223 98.063119 97.731928 97.125 101.63867 C 96.186881 105.54542 95.199747 109.08884 93.931641 111.39648 C 92.663534 113.70413 91.601402 114.68833 89.361328 115.05078 C 87.920613 115.28389 87.631669 115.08548 86.726562 114.25977 C 85.821457 113.43408 84.697662 111.7127 83.492188 109.60547 C 82.286714 107.49824 80.978169 105.03426 79.009766 102.78711 C 77.041362 100.53996 74.155556 98.487587 70.494141 98.03125 C 63.658397 97.179293 56.828728 100.78452 51 104.07617 C 45.171272 107.36783 40.601562 110.79883 40.601562 110.79883 A 4 4 0 0 0 39.087891 114.29883 A 4 4 0 0 1 40.601562 111.79883 C 40.601562 111.79883 45.171272 108.36783 51 105.07617 C 56.828728 101.78452 63.658397 98.179293 70.494141 99.03125 C 74.155556 99.487587 77.041362 101.53996 79.009766 103.78711 C 80.978169 106.03426 82.286714 108.49824 83.492188 110.60547 C 84.697662 112.7127 85.821457 114.43408 86.726562 115.25977 C 87.631669 116.08548 87.920613 116.28389 89.361328 116.05078 C 91.601402 115.68833 92.663534 114.70413 93.931641 112.39648 C 95.199747 110.08884 96.186881 106.54542 97.125 102.63867 C 98.063119 98.731925 98.977749 94.472223 100.64258 90.492188 C 102.30741 86.512152 104.88475 82.624489 109.18555 80.435547 C 114.54685 77.706846 119.82762 79.970887 123.8457 81.537109 C 127.86378 83.103332 130.8226 83.966716 132.50977 83.289062 C 134.5222 82.480766 138.36717 78.300677 140.99609 74.193359 C 143.62502 70.086042 145.36914 66.322266 145.36914 66.322266 A 4 4 0 0 1 147.61719 64.246094 A 4 4 0 0 1 150.67773 64.369141 A 4 4 0 0 1 152.95898 67.529297 A 4 4 0 0 0 150.67773 63.369141 A 4 4 0 0 0 149.16016 63.003906 z "/>
</svg>
