<?xml version='1.0' encoding='utf-8'?>
<svg xmlns="http://www.w3.org/2000/svg" width="192" height="192" version="1" id="svg22">
  <defs>
    <filter style="color-interpolation-filters:sRGB" id="filter875" x="0.05" width="1.10" y="0.05" height="1.10">
      <feGaussianBlur stdDeviation="3.20"/>
    </filter>
    <filter style="color-interpolation-filters:sRGB" id="filter11486" x="0.06" y="0.10" width="1.12" height="1.19">
      <feGaussianBlur stdDeviation="2.73"/>
    </filter>
  </defs>
  <path style="opacity:0.54;fill:#9797fd" d="m 117.50,129.85 c -4.34,0.71 -7.21,-2.12 -9.62,-4.73 -2.02,-2.18 -3.35,-4.84 -4.19,-8.41 0.60,-2.52 0.62,-3.50 0.55,-21.23 l 0.08,-18.59 7.06,0.08 7.06,0.08 0.16,0.70 c 0.09,0.39 0.20,8.25 0.24,17.47 0.07,16.29 0.09,16.81 0.73,18.16 1.37,2.95 3.68,4.21 7.58,4.17 2.40,0.03 3.93,0.47 6.13,-1.78 l 1.63,0.96 0.08,-18.80 0.08,-18.80 7.19,0.08 7.19,0.08 0.17,24.61 c 0.10,13.54 0.21,25.24 0.26,26.01 l 0.08,1.40 -6.24,0.08 c -7.05,0.09 -6.92,0.14 -7.19,-2.26 0.09,0.77 0.21,-1.40 0.27,-1.40 0.06,0 0.79,0.49 -1.62,1.08 -2.10,1.51 -4.47,2.54 -7.13,3.10 -2.86,0.60 -6.89,0.83 -8.91,0.50 z"/>
  <rect ry="8" rx="8" y="20" x="16" height="160" width="160" style="filter:url(#filter875);opacity:0.20;fill:#000000"/>
  <rect style="fill:#3f4692" width="160" height="160" x="16" y="16" rx="8" ry="8"/>
  <path style="opacity:0.10;fill:#ffffff" d="m 24,16 c -4.43,0 -8,3.57 -8,8 v 1 c 0,-4.43 3.57,-8 8,-8 h 144 c 4.43,0 8,3.57 8,8 v -1 c 0,-4.43 -3.57,-8 -8,-8 z"/>
  <path style="filter:url(#filter11486);opacity:0.20;fill:#000000" d="m 43,63 v 69 h 14 v -25 h 4.46 c 3.89,0 4.23,0.05 4.96,0.70 0.43,0.38 3.00,3.91 5.71,8.52 5.49,9.35 8.63,14.18 9.76,15.67 L 81.96,132 h 17.19 c 0.74,-1.66 -5.76,-9.36 -12.42,-19.35 -5.32,-7.99 -6.64,-10.16 -6.30,-10.40 0.23,0.17 1.59,0.80 2.64,-1.40 2.50,-1.42 6.06,-4.76 7.36,-6.93 2.04,-3.26 2.63,-7.37 2.64,-10.00 0.00,-2.60 0.16,-4.34 0.54,-5.74 C 90.84,71.87 85.87,66.97 78.85,64.68 75.29,63.51 72.58,63.09 65.58,63 Z m 14,13 6.47,0.14 c 5.72,0.12 6.70,0.22 8.44,0.83 4.25,1.49 6.08,3.85 6.09,7.87 0.02,4.69 -2.47,7.52 -7.67,8.71 -1.35,0.31 -3.73,0.45 -7.65,0.46 L 57,94 v -9 z m 46,3 v 33.94 c 0,6.67 1.61,11.53 4.84,14.58 3.22,2.99 7.51,4.48 12.87,4.48 3.10,0 6.02,0.60 8.76,-1.81 2.23,0.96 4.07,-2.40 5.53,-4.30 V 131 h 3.58 l 0.01,0.05 H 149 V 131 79 h -14 -1 V 103.50 116 c 0,0 -3.10,3 -9.12,3 -5.58,0.07 -6.99,-3.78 -6.88,-9.59 V 79 Z"/>
  <path style="fill:#8989fd" d="M 43 61 L 43 130 L 57 130 L 57 105 L 61.46 105 C 65.35 105 65.69 105.05 66.42 105.70 C 66.85 106.08 69.41 109.61 72.12 114.22 C 77.61 123.57 80.75 128.39 81.88 129.89 L 81.96 130 L 99.16 130 C 98.42 128.34 93.40 120.64 86.74 110.65 C 81.42 102.66 80.10 100.49 80.44 100.24 C 80.68 100.07 82.03 99.45 83.09 98.85 C 85.59 97.43 89.14 94.09 90.44 91.92 C 92.48 88.66 93.08 84.55 93.08 81.92 C 93.09 79.33 92.92 77.59 92.54 76.18 C 90.84 69.87 85.87 64.97 78.85 62.68 C 75.29 61.51 72.58 61.09 65.58 61 L 43 61 z M 57 74 L 63.47 74.14 C 69.19 74.26 70.16 74.35 71.91 74.96 C 76.15 76.45 77.99 78.82 78 82.83 C 78.02 87.52 75.53 90.35 70.33 91.54 C 68.98 91.85 66.61 91.99 62.69 92.00 L 57 92 L 57 83 L 57 74 z M 103 77 L 103 110.94 C 103 117.61 104.61 122.47 107.84 125.52 C 111.06 128.51 115.35 130 120.71 130 C 123.81 130 126.73 129.40 129.47 128.19 C 131.70 127.23 133.54 125.79 135 123.89 L 135 129 L 138.58 129 L 138.60 129.05 L 149 129.05 L 149 129 L 149 77 L 135 77 L 134 77 L 134 101.50 L 134 114 C 134 114 130.90 117 124.88 117 C 119.31 116.93 117.89 113.22 118 107.41 L 118 77 L 103 77 z "/>
  <path style="opacity:0.20;fill:#ffffff" d="M 43 61 L 43 62 L 65.58 62 C 72.58 62.09 75.29 62.51 78.85 63.68 C 85.87 65.97 90.84 70.87 92.54 77.18 C 92.88 78.43 93.04 79.99 93.07 82.14 C 93.07 82.08 93.08 81.99 93.08 81.92 C 93.09 79.33 92.92 77.59 92.54 76.18 C 90.84 69.87 85.87 64.97 78.85 62.68 C 75.29 61.51 72.58 61.09 65.58 61 L 43 61 z M 103 77 L 103 78 L 118 78 L 118 77 L 103 77 z M 134 77 L 134 78 L 135 78 L 149 78 L 149 77 L 135 77 L 134 77 z M 77.97 83.32 C 77.80 87.71 75.34 90.39 70.33 91.54 C 68.98 91.85 66.61 91.99 62.69 92.00 L 57 92 L 57 93 L 62.69 93.00 C 66.61 92.99 68.98 92.85 70.33 92.54 C 75.53 91.35 78.02 88.52 78 83.83 C 78.00 83.65 77.97 83.49 77.97 83.32 z M 80.68 101.12 C 80.64 101.14 80.46 101.23 80.44 101.24 C 80.10 101.49 81.42 103.66 86.74 111.65 C 92.51 120.30 97.03 127.22 98.62 130 L 99.16 130 C 98.42 128.34 93.40 120.64 86.74 110.65 C 82.96 104.97 81.26 102.32 80.68 101.12 z M 118 107.41 L 118 108.41 C 117.89 114.22 119.31 117.93 124.88 118 C 130.90 118 134 115 134 115 L 134 114 C 134 114 130.90 117 124.88 117 C 119.31 116.93 117.89 113.22 118 107.41 z "/>
</svg>
