<?xml version='1.0' encoding='utf-8'?>
<svg xmlns="http://www.w3.org/2000/svg" width="192" height="192" version="1" id="svg12">
  <defs>
    <filter style="color-interpolation-filters:sRGB" id="filter955" x="0.05" width="1.10" y="0.05" height="1.10">
      <feGaussianBlur stdDeviation="3.20"/>
    </filter>
    <filter style="color-interpolation-filters:sRGB" id="filter9340" x="0.06" y="0.09" width="1.13" height="1.18">
      <feGaussianBlur stdDeviation="3.21"/>
    </filter>
    <filter style="color-interpolation-filters:sRGB" id="filter9384" x="0.09" y="0.13" width="1.19" height="1.26">
      <feGaussianBlur stdDeviation="2.20"/>
    </filter>
    <filter style="color-interpolation-filters:sRGB" id="filter9388" x="0.09" y="0.13" width="1.19" height="1.26">
      <feGaussianBlur stdDeviation="2.20"/>
    </filter>
  </defs>
  <rect style="filter:url(#filter955);opacity:0.20;fill:#000000" width="160" height="160" x="16" y="20" rx="30" ry="30"/>
  <rect style="fill:#0072d0" width="160" height="160" x="16" y="16" rx="30" ry="30"/>
  <path style="opacity:0.10;fill:#ffffff" d="M 46 16 C 29.38 16 16 29.38 16 46 L 16 47 C 16 30.38 29.38 17 46 17 L 146 17 C 162.62 17 176 30.38 176 47 L 176 46 C 176 29.38 162.62 16 146 16 L 46 16 z "/>
  <path style="filter:url(#filter9388);opacity:0.20;fill:#000000" d="m 75.86,100 h 36.10 l 20.81,41 H 96.66 Z"/>
  <path style="fill:#ffffff" d="m 75.86,98 h 36.10 l 20.81,41 H 96.66 Z"/>
  <path style="filter:url(#filter9340);opacity:0.20;fill:#000000" d="M 119.69,55 79.79,96 H 115.79 L 155.69,55 Z M 75.90,100 36,141 h 36 l 39.90,-41 z"/>
  <path style="fill:#ff9d0a" d="M 119.69 53 L 79.79 94 L 115.79 94 L 155.69 53 L 119.69 53 z M 75.90 98 L 36 139 L 72 139 L 111.90 98 L 75.90 98 z "/>
  <path style="filter:url(#filter9384);opacity:0.20;fill:#000000" d="M 58.94,55 H 95.04 L 115.84,96 H 79.74 Z"/>
  <path style="fill:#ffffff" d="M 58.94,53 H 95.04 L 115.84,94 H 79.74 Z"/>
  <path style="opacity:0.20;fill:#ffffff" d="M 119.69 53 L 79.79 94 L 80.76 94 L 119.69 54 L 154.71 54 L 155.69 53 L 119.69 53 z M 75.90 98 L 36 139 L 36.97 139 L 75.90 99 L 110.92 99 L 111.90 98 L 75.90 98 z "/>
</svg>
