<?xml version='1.0' encoding='utf-8'?>
<svg xmlns="http://www.w3.org/2000/svg" width="192" height="192" version="1" id="svg22">
  <defs>
    <filter style="color-interpolation-filters:sRGB" id="filter869" x="-0.045599999" width="1.0912" y="-0.050666667" height="1.1013333">
      <feGaussianBlur stdDeviation="3.04"/>
    </filter>
    <filter style="color-interpolation-filters:sRGB" id="filter889" x="-0.036802003" width="1.073604" y="-0.068992966" height="1.1379859">
      <feGaussianBlur stdDeviation="1.7350814"/>
    </filter>
    <filter style="color-interpolation-filters:sRGB" id="filter905" x="-0.052277347" width="1.1045547" y="-0.044369663" height="1.0887393">
      <feGaussianBlur stdDeviation="0.69703119"/>
    </filter>
  </defs>
  <path style="filter:url(#filter869);opacity:0.2;fill:#000000" d="M 95.999999,28.000004 C 51.68,28.000004 16,63.680003 16,108 c 0,26.26967 12.591477,49.43205 32.031248,64 H 143.96875 C 163.40852,157.43205 176,134.26967 176,108 176,63.680003 140.32,28.000004 95.999999,28.000004 Z"/>
  <path style="fill:#2d96d0" d="M 95.999999,24.000002 C 51.68,24.000002 16,59.680001 16,104 c 0,26.26967 12.591477,49.43205 32.031248,64 H 143.96875 C 163.40852,153.43205 176,130.26967 176,104 176,59.680001 140.32,24.000002 95.999999,24.000002 Z"/>
  <path style="opacity:0.2;fill:#ffffff" d="M 96 24 C 51.683941 24 16.007812 59.680003 16.007812 104 C 16.007812 104.336 16.009812 104.6675 16.007812 105 C 16.007812 60.680003 51.683941 25 96 25 C 140.31606 25 175.99219 60.680003 175.99219 105 C 175.99019 104.6675 175.99219 104.336 175.99219 104 C 175.99219 59.680003 140.31606 24 96 24 z "/>
  <path style="fill:#f4deb9" d="M 95.999999,68.000003 A 59.999999,59.999999 0 0 0 35.999999,128 59.999999,59.999999 0 0 0 51.375,168 h 89.26562 A 59.999999,59.999999 0 0 0 156,128 59.999999,59.999999 0 0 0 95.999999,68.000003 Z"/>
  <path style="filter:url(#filter889);opacity:0.2" d="m 95.999999,70.000454 c -21.327063,0 -40.039259,11.140644 -50.679686,27.906248 -1.55196,2.029378 -2.920144,4.146888 -3.914064,6.414068 -1.561832,3.56261 -2.722412,7.25098 -3.601562,11.23437 -0.58499,2.36366 -1.079567,4.76171 -1.375,7.22656 -0.02628,0.2194 0.04074,0.26548 0.148436,0.23436 -0.11276,0.94942 -0.256036,1.84944 -0.343748,2.84375 -0.2812,3.18758 -0.308312,4.49219 -0.09375,4.49219 L 72,90.000454 64.27344,122.00817 c 0.052,0.052 1.183348,-0.41 2.515628,-1.02344 8.185452,-3.76889 15.559724,-5.44492 24.578123,-6.52122 3.110088,-0.37116 13.898329,-0.41788 17.140619,-0.0781 6.56796,0.6882 12.56285,1.05521 19.9375,3.0838 3.26768,0.89886 4.87059,1.11275 7.54688,1.01563 2.67826,-0.0972 4.25597,-0.4549 6.23438,-1.40625 4.93682,-2.37397 7.52504,-7.24952 6.80468,-12.8125 -0.0679,-0.52432 -0.2062,-1.0224 -0.31248,-1.53125 0.21156,-0.52393 0.007,-1.40717 -0.82813,-2.86719 -0.82193,-2.184012 -2.03217,-4.37118 -3.85939,-6.84374 C 131.66309,79.432858 115.50934,69.736367 95.999999,70.000454 Z"/>
  <path style="fill:#ff8e49" d="m 95.999999,68.000003 c -21.327063,0 -40.039259,11.140643 -50.679686,27.906247 -1.55196,2.029376 -2.920144,4.14689 -3.914064,6.41406 -1.561832,3.56262 -2.722412,7.25098 -3.601562,11.23438 -0.58499,2.36366 -1.079567,4.7617 -1.375,7.22656 -0.02628,0.2194 0.04074,0.26548 0.148436,0.23436 -0.11276,0.94942 -0.256036,1.84944 -0.343748,2.84375 -0.2812,3.18758 -0.308312,4.49219 -0.09375,4.49219 L 72,88.000002 64.27344,120.00772 c 0.052,0.052 1.183348,-0.41001 2.515628,-1.02344 8.185452,-3.76889 15.559724,-5.44492 24.578123,-6.52122 3.110088,-0.37116 13.898329,-0.41788 17.140619,-0.0781 6.56796,0.6882 12.56285,1.05521 19.9375,3.0838 3.26768,0.89886 4.87059,1.11275 7.54688,1.01563 2.67826,-0.0972 4.25597,-0.4549 6.23438,-1.40626 4.93682,-2.37396 7.52504,-7.24951 6.80468,-12.8125 -0.0679,-0.52432 -0.2062,-1.02239 -0.31248,-1.53124 0.21156,-0.52393 0.007,-1.407168 -0.82813,-2.867192 -0.82193,-2.184012 -2.03217,-4.37118 -3.85939,-6.84374 C 131.66309,77.432406 115.50934,67.735915 95.999999,68.000003 Z"/>
  <circle style="fill:#252524" cx="72" cy="136" r="8"/>
  <circle style="fill:#252524" cx="120" cy="136" r="8"/>
  <path style="filter:url(#filter905);opacity:0.1" d="m 83.132812,36.296877 c -0.24608,0 -1.853396,2.743684 -3.382812,5.773436 -2.238932,4.435308 -3.305568,7.848804 -3.671876,11.789064 -0.09052,0.97368 -0.07628,1.927156 -0.0156,2.867188 -0.0376,0.42348 -0.0586,0.848296 -0.06252,1.273436 C 76.000004,66.836557 83.163448,74 92.000003,74 100.83656,74 108,66.836557 108,58.000001 c -1.3e-4,-0.4067 -0.0156,-0.813244 -0.0469,-1.218752 0.0136,-0.405364 0.0518,-0.81206 0.0312,-1.210936 -0.28224,-5.478492 -3.44924,-9.234852 -8.234321,-11.706248 -2.533372,-1.308436 -6.40884,-1.923016 -8.9375,-1.928064 -3.154628,-0.0064 -5.551959,-2.749768 -7.093747,-4.990687 -0.2468,-0.35872 -0.5124,-0.648438 -0.58594,-0.648437 z"/>
  <path style="fill:#ff8e49" d="m 83.132812,34.296879 c -0.24608,0 -1.853396,2.743684 -3.382812,5.773436 -2.238932,4.435308 -3.305568,7.848804 -3.671876,11.789064 -0.09052,0.97368 -0.07628,1.927156 -0.0156,2.867188 -0.03777,0.42348 -0.05862,0.848296 -0.06252,1.273436 0,8.836556 7.163444,16 15.999999,16 8.836557,0 15.999997,-7.163444 15.999997,-16 -1.3e-4,-0.4067 -0.0156,-0.813244 -0.0469,-1.218752 0.0136,-0.405364 0.0518,-0.81206 0.0312,-1.210936 -0.28225,-5.478492 -3.44924,-9.234852 -8.234317,-11.706248 -2.533372,-1.308436 -6.40884,-1.923017 -8.9375,-1.928064 -3.154628,-0.0063 -5.551959,-2.749767 -7.093747,-4.990687 -0.2468,-0.35872 -0.5124,-0.648438 -0.58594,-0.648437 z"/>
</svg>
