<?xml version='1.0' encoding='utf-8'?>
<svg xmlns="http://www.w3.org/2000/svg" width="192" height="192" version="1" id="svg14">
  <defs>
    <filter style="color-interpolation-filters:sRGB" id="filter850" x="-0.048000001" width="1.096" y="-0.048000001" height="1.096">
      <feGaussianBlur stdDeviation="3.2"/>
    </filter>
    <filter style="color-interpolation-filters:sRGB" id="filter881" x="-0.071996282" width="1.1439926" y="-0.036000929" height="1.0720019">
      <feGaussianBlur stdDeviation="1.8000046"/>
    </filter>
  </defs>
  <rect style="filter:url(#filter850);opacity:0.2;fill:#000000" width="160" height="160" x="-180" y="-176" rx="80" ry="80" transform="matrix(0,-1,-1,0,0,0)"/>
  <rect transform="matrix(0,-1,-1,0,0,0)" ry="80" rx="80" y="-176" x="-176" height="160" width="160" style="fill:#fc7e39"/>
  <path style="opacity:0.2;fill:#ffffff" d="M 96 16 C 51.684 16 16.007812 51.68 16.007812 96 C 16.007812 96.33544 16.009812 96.667215 16.007812 97 C 16.007812 52.68 51.684 17 96 17 C 140.316 17 175.99219 52.68 175.99219 97 C 175.99019 96.667215 175.99219 96.33544 175.99219 96 C 175.99219 51.68 140.316 16 96 16 z "/>
  <path d="M 91.101564,40.00298 C 83.365676,39.984418 79.853464,41.2627 75.125,45.81548 72.774444,48.078688 68,54.274228 68,56.034228 c 0,0.467704 8.886616,12.154196 18.328124,25.976564 9.441512,13.822368 17.254426,25.584418 17.367186,26.132808 0.15948,0.775 -0.93337,0.036 -4.914062,-0.14064 -6.888556,-0.30584 -12.118228,1.72826 -18.429684,4.875 -12.919088,6.44113 -19.14144,19.16457 -15.164064,31.03125 2.282024,6.80853 9.217856,12.59849 17.945312,14.98438 19.257178,5.26451 40.934928,-9.00875 40.867188,-26.91405 -0.009,-2.50779 -0.5681,-5.47055 -1.35938,-7.22656 -0.73711,-1.63585 -8.57526,-14.84904 -17.42187,-29.367188 C 96.372136,80.86764 88.740648,68.227832 88.257812,67.299856 c -1.272716,-2.44612 0.33756,-8.014304 3.898436,-9.781252 2.62578,-1.302924 3.405516,-1.747872 8.812502,-0.953124 8.11375,1.192596 9.86092,4.898488 12.67187,3.156252 2.64529,-1.639536 5.19911,-6.649116 5.92188,-11.609376 L 120,43.971728 l -5.32031,0.06252 c -4.0888,0.047 -5.91596,0.716876 -10.77344,-1.429688 C 98.59754,40.258608 97.405628,40.01814 91.101564,40.003 Z m -3.828128,84 c 1.594892,0.006 15.676584,9.20883 16.460944,10.75781 0.99198,1.95903 -0.64686,3.75656 -7.54688,8.28907 -8.304476,5.45503 -9.144608,5.76413 -10.835936,3.97656 C 84.146244,145.75252 84,144.61368 84,136.40142 c 0,-9.67765 0.71942,-12.4073 3.273436,-12.39844 z" style="filter:url(#filter881);opacity:0.2"/>
  <path d="M 91.101564,36 C 83.365676,35.98144 79.853464,37.25972 75.125,41.8125 72.774444,44.075708 68,50.271248 68,52.031248 c 0,0.467704 8.886616,12.154196 18.328124,25.976564 9.441512,13.822368 17.254426,25.584418 17.367186,26.132808 0.15948,0.775 -0.93337,0.036 -4.914062,-0.14064 -6.888556,-0.30584 -12.118228,1.72826 -18.429684,4.875 -12.919088,6.44113 -19.14144,19.16457 -15.164064,31.03125 2.282024,6.80853 9.217856,12.59849 17.945312,14.98438 19.257178,5.26451 40.934928,-9.00875 40.867188,-26.91405 -0.009,-2.50779 -0.5681,-5.47055 -1.35938,-7.22656 -0.73711,-1.63585 -8.57526,-14.84904 -17.42187,-29.367188 C 96.372136,76.86466 88.740648,64.224852 88.257812,63.296876 c -1.272716,-2.44612 0.33756,-8.014304 3.898436,-9.781252 2.62578,-1.302924 3.405516,-1.747872 8.812502,-0.953124 8.11375,1.192596 9.86092,4.898488 12.67187,3.156252 2.64529,-1.639536 5.19911,-6.649116 5.92188,-11.609376 L 120,39.96875 l -5.32031,0.0625 c -4.0888,0.047 -5.91596,0.716876 -10.77344,-1.429686 C 98.59754,36.255608 97.405628,36.015143 91.101564,36 Z m -3.828128,84 c 1.594892,0.006 15.676584,9.20883 16.460944,10.75781 0.99198,1.95903 -0.64686,3.75656 -7.54688,8.28907 -8.304476,5.45503 -9.144608,5.76413 -10.835936,3.97656 C 84.146244,141.74954 84,140.6107 84,132.39844 84,122.72079 84.71942,119.99114 87.273436,120 Z" style="fill:#ffffff"/>
</svg>
