<svg xmlns="http://www.w3.org/2000/svg" id="svg12" width="192" height="192" version="1"><defs><filter style="color-interpolation-filters:sRGB" id="filter860" width="1.1" height="1.1" x=".05" y=".05"><feGaussianBlur stdDeviation="3.2"/></filter><filter style="color-interpolation-filters:sRGB" id="filter867" width="1.09" height="1.1" x=".05" y=".05"><feGaussianBlur stdDeviation="1.9"/></filter></defs><rect style="filter:url(#filter860);opacity:.2" width="160" height="160" x="16" y="20" rx="8" ry="8"/><rect style="fill:#cc1d23" width="160" height="160" x="16" y="16" rx="8" ry="8"/><path style="opacity:.2;fill:#fff" d="m 24,16 c -4.43,0 -8,3.57 -8,8 v 1 c 0,-4.43 3.57,-8 8,-8 h 144 c 4.43,0 8,3.57 8,8 v -1 c 0,-4.43 -3.57,-8 -8,-8 z"/><path d="M 74.06,52.11 A 54.27,54.27 0 0 0 72,66.73 54.27,54.27 0 0 0 126.27,121 54.27,54.27 0 0 0 145.15,117.57 71.64,71.64 0 0 1 74.06,52.11 Z M 50.51,61.23 A 66,66 0 0 0 48,79 a 66,66 0 0 0 66,66 66,66 0 0 0 22.96,-4.17 87.12,87.12 0 0 1 -86.45,-79.61 z" style="filter:url(#filter867);opacity:.2;fill:#000"/><path style="fill:#fff" d="M 74.06,50.11 A 54.27,54.27 0 0 0 72,64.73 54.27,54.27 0 0 0 126.27,119 54.27,54.27 0 0 0 145.15,115.57 71.64,71.64 0 0 1 74.06,50.11 Z M 50.51,59.23 A 66,66 0 0 0 48,77 a 66,66 0 0 0 66,66 66,66 0 0 0 22.96,-4.17 87.12,87.12 0 0 1 -86.45,-79.61 z"/></svg>