<?xml version='1.0' encoding='utf-8'?>
<svg xmlns="http://www.w3.org/2000/svg" width="192" height="192" version="1" id="svg22">
  <defs>
    <filter style="color-interpolation-filters:sRGB" id="filter1000" x="-0.048000001" y="-0.048000001" width="1.096" height="1.096">
      <feGaussianBlur stdDeviation="3.2"/>
    </filter>
    <filter style="color-interpolation-filters:sRGB" id="filter1004" x="-0.0264" y="-0.264" width="1.0528" height="1.528">
      <feGaussianBlur stdDeviation="1.76"/>
    </filter>
  </defs>
  <path style="filter:url(#filter1000);opacity:0.2;fill:#000000" d="m 24,20 c -0.554,0 -1.095469,0.05589 -1.617188,0.162109 -0.521718,0.106219 -1.023078,0.262969 -1.501953,0.464844 -0.478875,0.201875 -0.933906,0.44936 -1.359375,0.736328 -0.425468,0.286969 -0.822093,0.61311 -1.183593,0.97461 -0.3615,0.3615 -0.687641,0.758125 -0.97461,1.183593 -0.286968,0.425469 -0.534453,0.8805 -0.736328,1.359375 -0.201875,0.478875 -0.358625,0.980235 -0.464844,1.501953 C 16.055891,26.904531 16,27.446 16,28 v 4 36 4 4 8 4 84 c 0,4.432 3.568,8 8,8 h 52 12 80 c 4.432,0 8,-3.568 8,-8 V 84 72 68 32 28 c 0,-0.554 -0.0559,-1.095469 -0.16211,-1.617188 -0.63731,-3.130312 -3.09039,-5.58339 -6.2207,-6.220703 C 169.09547,20.055891 168.554,20 168,20 h -48 -8 -8 z"/>
  <path style="fill:#ffc129" d="m 24,16 c -4.432,0 -8,3.568 -8,8 v 48 h 96 V 16 Z"/>
  <path style="fill:#5fb319" d="m 112,16 v 56 h 64 V 24 c 0,-4.432 -3.568,-8 -8,-8 z"/>
  <path style="fill:#e74b4b" d="m 80,76 v 100 h 88 c 4.432,0 8,-3.568 8,-8 V 76 Z"/>
  <path style="fill:#35abe4" d="m 16,76 v 92 c 0,4.432 3.568,8 8,8 H 76 V 76 Z"/>
  <path style="opacity:0.2;fill:#ffffff" d="M 24 16 C 19.568 16 16 19.568 16 24 L 16 25 C 16 20.568 19.568 17 24 17 L 168 17 C 172.432 17 176 20.568 176 25 L 176 24 C 176 19.568 172.432 16 168 16 L 24 16 z "/>
  <rect style="fill:#ffffff" width="112" height="16" x="64" y="-88" transform="rotate(90)"/>
  <rect style="filter:url(#filter1004);opacity:0.2" width="160" height="16" x="16" y="66"/>
  <rect style="fill:#ffffff" width="160" height="16" x="16" y="64"/>
  <rect style="fill:#ffffff" width="64" height="16" x="16" y="-120" transform="rotate(90)"/>
</svg>
