<?xml version='1.0' encoding='utf-8'?>
<svg xmlns="http://www.w3.org/2000/svg" width="192" height="192" version="1" id="svg14">
  <defs>
    <filter style="color-interpolation-filters:sRGB" id="filter848" x="0.05" width="1.10" y="0.05" height="1.10">
      <feGaussianBlur stdDeviation="3.20"/>
    </filter>
    <filter style="color-interpolation-filters:sRGB" id="filter2766" x="0.05" y="0.05" width="1.09" height="1.10">
      <feGaussianBlur stdDeviation="1.99"/>
    </filter>
  </defs>
  <rect transform="matrix(0,-1,-1,0,0,0)" ry="8" rx="8" y="-176" x="-180" height="160" width="160" style="filter:url(#filter848);opacity:0.20"/>
  <rect transform="matrix(0,-1,-1,0,0,0)" ry="8" rx="8" y="-176" x="-176" height="160" width="160" style="fill:#ef3434"/>
  <path style="opacity:0.20;fill:#ffffff" d="m 24,16 c -4.43,0 -8,3.57 -8,8 v 1 c 0,-4.43 3.57,-8 8,-8 h 144 c 4.43,0 8,3.57 8,8 v -1 c 0,-4.43 -3.57,-8 -8,-8 z"/>
  <path style="filter:url(#filter2766);opacity:0.20;fill:#000000;stop-color:#000000" d="M 58.50,51 55.06,78 H 143.06 L 146.50,51 Z M 53.53,90 46,149 h 88 l 3.19,-25 H 82.23 l 1.70,-12 h 54.79 l 2.81,-22 z"/>
  <path style="fill:#ffffff;stop-color:#000000" d="M 58.50,47 55.06,74 H 143.06 L 146.50,47 Z M 53.53,86 46,145 h 88 l 3.19,-25 H 82.23 l 1.70,-12 h 54.79 l 2.81,-22 z"/>
</svg>
