<?xml version='1.0' encoding='utf-8'?>
<svg xmlns="http://www.w3.org/2000/svg" width="192" height="192" version="1" id="svg28">
  <defs>
    <filter style="color-interpolation-filters:sRGB" id="filter6495" x="0.05" y="0.05" width="1.10" height="1.10">
      <feGaussianBlur stdDeviation="3.20"/>
    </filter>
    <filter style="color-interpolation-filters:sRGB" id="filter24042" x="0.05" y="0.19" width="1.09" height="1.37">
      <feGaussianBlur stdDeviation="1.64"/>
    </filter>
    <filter style="color-interpolation-filters:sRGB" id="filter24084" x="0.09" y="0.09" width="1.18" height="1.18">
      <feGaussianBlur stdDeviation="3.27"/>
    </filter>
    <filter style="color-interpolation-filters:sRGB" id="filter24126" x="0.09" y="0.09" width="1.18" height="1.18">
      <feGaussianBlur stdDeviation="3.27"/>
    </filter>
  </defs>
  <rect transform="matrix(0,-1,-1,0,0,0)" ry="12" rx="12" y="-176" x="-180" height="160" width="160" style="filter:url(#filter6495);opacity:0.20;fill:#000000"/>
  <rect transform="matrix(0,-1,-1,0,0,0)" ry="12" rx="12" y="-176" x="-176" height="160" width="160" style="fill:#fdbb11"/>
  <path style="opacity:0.20;fill:#ffffff" d="m 28,16 c -6.65,0 -12,5.35 -12,12 v 1 c 0,-6.65 5.35,-12 12,-12 h 136 c 6.65,0 12,5.35 12,12 v -1 c 0,-6.65 -5.35,-12 -12,-12 z"/>
  <rect style="filter:url(#filter24126);opacity:0.20;fill:#000000" width="85.51" height="85.51" x="-10.49" y="75.22" transform="rotate(-15)"/>
  <rect style="fill:#fde01e" width="85.51" height="85.51" x="-9.97" y="73.29" transform="rotate(-15)"/>
  <rect style="filter:url(#filter24084);opacity:0.20;fill:#000000" width="85.51" height="85.51" x="-192.01" y="10.84" transform="matrix(0.97,0.26,0.26,0.97,0,0)"/>
  <rect style="fill:#fd8500" width="85.51" height="85.51" x="-191.49" y="8.91" transform="matrix(0.97,0.26,0.26,0.97,0,0)"/>
  <path style="filter:url(#filter24042);opacity:0.20;fill:#000000" d="m 121,86.00 v 6 h 6 v -6 z m -67,1 v 20.00 h 6 v -6 h 2.88 C 68.49,101.43 71,98.06 71,93.76 71,89.64 68.29,87.00 62.66,87.00 Z m 50.05,2 v 3.98 H 102 v 4 h 1.95 v 4.86 c 0.03,4.94 0.90,5.45 8.05,5.05 v -3.89 h 0.93 c -1.50,0.22 -2.08,0.60 -2.08,-1.91 V 97.02 H 112 v -4 h -2.99 v -4.02 z m 26,0 v 3.98 H 128 v 4 h 1.95 v 4.86 c 0.03,4.94 0.90,5.45 8.05,5.05 v -3.89 h 0.93 c -1.50,0.22 -2.08,0.60 -2.08,-1.91 V 97.02 H 138 v -4 h -2.99 v -4.02 z m -70.05,2 h 1.14 c 1.57,0 3.86,0.48 3.86,2.80 0,2.33 -1.22,3.15 -2.91,3.15 v 0.04 H 60 Z m 18.98,1 C 74.22,92.00 71,94.82 71,99.66 c 0,4.85 3.49,7.34 8,7.34 4.51,0 8,-2.43 8,-7.63 0,-4.39 -3.06,-7.37 -8.02,-7.37 z m 15.32,0 c -3.00,0 -6.82,1.05 -6.82,4.67 0,5.49 8.83,3.67 8.83,5.94 0,1.01 0.94,1.28 -1.81,1.28 0.51,0.01 -1.00,0.14 -1.41,0.44 0.40,0.31 0.63,0.96 0.60,-1.46 l 0.04,0.02 H 87 c 0.30,3.83 3.94,4.99 7.24,4.99 5.28,0 7.76,-1.98 7.76,-4.95 0,-5.29 -9.07,-3.96 -9.07,-5.94 0,0.69 0.61,0.99 1.62,0.99 0.85,0.00 1.36,0.25 1.70,0.88 h 5.21 c 0.33,-3.76 -4.16,-4 -7.16,-4 z m 26.70,1 v 14.00 h 6 V 93.00 Z m -41.76,3 C 80.94,96.02 82,97.47 82,99.38 c 0,2.53 -1.22,3.62 -3,3.62 -1.78,0 -3,-1.10 -3,-3.62 0,-1.51 0.71,-3.38 3.07,-3.38 0.06,0.00 0.11,0.00 0.17,0.00 z m 34.76,1 v 5.00 h 5 v -5.00 z"/>
  <path style="fill:#3f3f3f" d="M 121 85 L 121 91 L 127 91 L 127 85 L 121 85 z M 54 86 L 54 106 L 60 106 L 60 100 L 62.88 100 C 68.49 100.43 71 97.06 71 92.76 C 71 88.64 68.29 86 62.66 86 L 54 86 z M 104.05 88 L 104.05 91.98 L 102 91.98 L 102 95.98 L 103.95 95.98 L 103.95 100.84 C 103.98 105.78 104.85 106.29 112 105.89 L 112 102 L 111.07 102 C 109.57 102.22 108.99 101.40 108.99 100.09 L 108.99 96.02 L 112 96.02 L 112 92.02 L 109.01 92.02 L 109.01 88 L 104.05 88 z M 130.05 88 L 130.05 91.98 L 128 91.98 L 128 95.98 L 129.95 95.98 L 129.95 100.84 C 129.98 105.78 130.85 106.29 138 105.89 L 138 102 L 137.07 102 C 135.57 102.22 134.99 101.40 134.99 100.09 L 134.99 96.02 L 138 96.02 L 138 92.02 L 135.01 92.02 L 135.01 88 L 130.05 88 z M 60 90 L 61.14 90 C 62.71 90 65 90.48 65 92.80 C 65 95.13 63.78 95.96 62.09 95.96 L 62.09 96 L 60 96 L 60 90 z M 78.98 91 C 74.22 91 71 93.82 71 98.66 C 71 103.51 74.49 106 79 106 C 83.51 106 87 103.57 87 98.37 C 87 93.97 83.94 91 78.98 91 z M 94.30 91 C 91.30 91 87.48 92.05 87.48 95.67 C 87.48 101.16 96.32 99.35 96.32 101.61 C 96.32 102.62 95.38 102.89 94.51 102.89 C 94.00 102.90 93.50 102.75 93.09 102.46 C 92.69 102.14 92.47 101.49 92.49 100.99 L 92.45 101.01 L 87 101.01 C 87.30 104.84 90.94 106 94.24 106 C 99.52 106 102 104.02 102 101.05 C 102 95.76 92.93 97.09 92.93 95.11 C 92.93 94.42 93.55 94.12 94.55 94.12 C 95.41 94.12 95.92 94.36 96.26 95 L 101.47 95 C 101.13 91.24 97.30 91 94.30 91 z M 121 92 L 121 106 L 127 106 L 127 92 L 121 92 z M 79.24 95 C 80.94 95.02 82 96.47 82 98.38 C 82 100.90 80.78 102 79 102 C 77.22 102 76 100.90 76 98.38 C 76 96.87 76.71 95.00 79.07 95.00 C 79.13 95.00 79.19 95.00 79.24 95 z M 114 96 L 114 101 L 119 101 L 119 96 L 114 96 z "/>
</svg>
