<?xml version='1.0' encoding='utf-8'?>
<svg xmlns="http://www.w3.org/2000/svg" width="192" height="192" version="1" id="svg30">
  <defs>
    <filter style="color-interpolation-filters:sRGB" id="filter868" x="0.06" width="1.12" y="0.04" height="1.08">
      <feGaussianBlur stdDeviation="2.64"/>
    </filter>
    <filter style="color-interpolation-filters:sRGB" id="filter884" x="0.01" width="1.02" y="0.64" height="2.27">
      <feGaussianBlur stdDeviation="0.53"/>
    </filter>
    <filter style="color-interpolation-filters:sRGB" id="filter900" x="0.05" width="1.10" y="0.05" height="1.09">
      <feGaussianBlur stdDeviation="1.64"/>
    </filter>
  </defs>
  <rect ry="8" rx="8" y="20" x="44" height="160" width="104" style="filter:url(#filter868);opacity:0.20"/>
  <path d="m 52,16 c -4.43,0 -8,3.57 -8,8 v 8 h 104 v -8 c 0,-4.43 -3.57,-8 -8,-8 z m -8,136 v 16 c 0,4.43 3.57,8 8,8 h 88 c 4.43,0 8,-3.57 8,-8 v -16 z" style="fill:#e4e4e4"/>
  <rect ry="2" rx="2" y="24" x="84" height="4" width="24" style="fill:#333333"/>
  <rect y="32" x="44" height="120" width="104" style="fill:#3f3f3f"/>
  <path style="opacity:0.20;fill:#ffffff" d="M 52 16 C 47.57 16 44 19.57 44 24 L 44 25 C 44 20.57 47.57 17 52 17 L 140 17 C 144.43 17 148 20.57 148 25 L 148 24 C 148 19.57 144.43 16 140 16 L 52 16 z "/>
  <rect ry="4" rx="4" y="156" x="88" height="16" width="16" style="fill:#4d4d4d"/>
  <rect ry="4" rx="4" y="160" x="116" height="8" width="16" style="fill:#4d4d4d"/>
  <rect ry="4" rx="4" y="160" x="60" height="8" width="16" style="fill:#4d4d4d"/>
  <circle r="2" cy="26" cx="114" style="fill:#333333"/>
  <path d="m 104,56 -16,2.42 v 57.88 L 104,112 V 89.64 L 120,116 136,110 116,86 136.01,60.01 120.48,56 104,82.24 Z M 71.42,71.70 c 0.38,0 0.76,0.15 -1.04,0.44 l -6.29,6.29 c 0.58,0.58 0.44,1.41 0,2.10 l 6.51,10.22 c 0.48,1 0.90,2.03 -1.25,3.08 0.02,0.04 0.04,0.09 0.06,0.13 L 57.48,96.58 C 56.68,96.76 56,97.25 56,98.07 v 3.93 3.93 c 0,0.82 0.68,1.31 1.48,1.49 l 11.80,2.62 c 0.03,0.08 0.07,0.15 0.10,0.22 0.34,1.02 0.74,2.03 1.21,3 l -6.51,10.21 c 0.44,0.69 0.58,1.52 0,2.10 l 6.29,6.29 c 0.58,0.58 1.51,0.58 2.09,0 l 10.20,-6.50 c 1.00,0.49 2.04,0.91 3.09,1.26 0.07,0.02 0.14,0.06 0.20,0.09 l 2.62,11.80 c 0,0.82 0.66,1.48 1.49,1.48 h 8.88 c 0.82,0 1.31,0.68 1.48,-1.48 l 2.62,-12.16 c 1.20,0.45 2.37,0.99 3.49,-1.62 l 9.96,7.12 c 0.58,0.58 1.51,0.58 2.09,0 l 6.29,-6.29 c 0.58,0.58 0.44,-1.41 0,-2.10 l -3.79,-5.75 0.40,0.15 c 0.90,0.34 -1.92,0.01 -2.42,0.84 l -3.98,-6.56 C 110.98,118.42 103.14,124 94,124 81.85,124 72,114.15 72,102 72,92.68 77.81,84.73 86,81.52 V 77.14 l 0.03,0.14 c 0.09,0.03 0.17,0.08 0.26,0.11 -1.04,0.34 -2.06,0.76 -3.06,1.23 L 72.47,72.13 C 72.18,71.84 71.80,71.70 71.42,71.70 Z" style="filter:url(#filter900);opacity:0.20"/>
  <path d="m 104,52 -16,2.42 v 57.88 L 104,108 V 85.64 L 120,112 136,106 116,82 136.01,56.01 120.48,52 104,78.24 Z M 71.42,67.70 c 0.38,0 0.76,0.15 -1.04,0.44 l -6.29,6.29 c 0.58,0.58 0.44,1.41 0,2.10 l 6.51,10.22 c 0.48,1 0.90,2.03 -1.25,3.08 0.02,0.04 0.04,0.09 0.06,0.13 L 57.48,92.58 C 56.68,92.76 56,93.25 56,94.07 V 98 v 3.93 c 0,0.82 0.68,1.31 1.48,1.49 l 11.80,2.62 c 0.03,0.08 0.07,0.15 0.10,0.22 0.34,1.02 0.74,2.03 1.21,3 l -6.51,10.21 c 0.44,0.69 0.58,1.52 0,2.10 l 6.29,6.29 c 0.58,0.58 1.51,0.58 2.09,0 l 10.20,-6.50 c 1.00,0.49 2.04,0.91 3.09,1.26 0.07,0.02 0.14,0.06 0.20,0.09 l 2.62,11.80 c 0,0.82 0.66,1.48 1.49,1.48 h 8.88 c 0.82,0 1.31,0.68 1.48,-1.48 l 2.62,-12.16 c 1.20,0.45 2.37,0.99 3.49,-1.62 l 9.96,7.12 c 0.58,0.58 1.51,0.58 2.09,0 l 6.29,-6.29 c 0.58,0.58 0.44,-1.41 0,-2.10 l -3.79,-5.75 0.40,0.15 c 0.90,0.34 -1.92,0.01 -2.42,0.84 l -3.98,-6.56 C 110.98,114.42 103.14,120 94,120 81.85,120 72,110.15 72,98 72,88.68 77.81,80.73 86,77.52 V 73.14 l 0.03,0.14 c 0.09,0.03 0.17,0.08 0.26,0.11 -1.04,0.34 -2.06,0.76 -3.06,1.23 L 72.47,68.13 C 72.18,67.84 71.80,67.70 71.42,67.70 Z" style="fill:#ffffff"/>
  <rect y="32" x="44" height="2" width="104" style="filter:url(#filter884);opacity:0.20"/>
  <rect y="152" x="44" height="1" width="104" style="opacity:0.20;fill:#ffffff"/>
</svg>
