<?xml version='1.0' encoding='utf-8'?>
<svg xmlns="http://www.w3.org/2000/svg" width="192" height="192" version="1" id="svg14">
  <defs>
    <filter style="color-interpolation-filters:sRGB" id="filter844" x="-0.048000001" width="1.096" y="-0.048000001" height="1.096">
      <feGaussianBlur stdDeviation="3.2"/>
    </filter>
    <filter style="color-interpolation-filters:sRGB" id="filter870" x="-0.047608683" width="1.0952174" y="-0.048394533" height="1.0967891">
      <feGaussianBlur stdDeviation="65.004662"/>
    </filter>
  </defs>
  <path style="filter:url(#filter844);opacity:0.2;fill:#000000" d="m 96,20 c -44.32,0 -80,35.68 -80,80 0,44.32 35.68,80 80,80 44.32,0 80,-35.68 80,-80 0,-44.32 -35.68,-80 -80,-80 z"/>
  <path d="m 96,16 c -44.32,0 -80,35.68 -80,80 0,44.32 35.68,80 80,80 44.32,0 80,-35.68 80,-80 0,-44.32 -35.68,-80 -80,-80 z" style="fill:#107c10"/>
  <path style="opacity:0.1;fill:#ffffff" d="m 96,16 c -44.32,0 -80,35.68 -80,80 0,0.167244 0.0048,0.333003 0.0059,0.5 C 16.273741,52.412589 51.847244,17 96,17 140.15276,17 175.72626,52.412589 175.99414,96.5 175.99516,96.333003 176,96.167244 176,96 176,51.68 140.32,16 96,16 Z"/>
  <g style="filter:url(#filter870);opacity:0.2;fill:#000000" transform="matrix(0.03173685,0,0,-0.03226071,33.79658,164.69422)">
    <path style="fill:#000000" d="m 1763,3604 c -122,-15 -279,-51 -378,-89 -110,-41 -245,-107 -245,-120 0,-8 24,-15 63,-19 140,-16 400,-125 635,-264 57,-34 113,-62 123,-62 11,0 66,28 122,62 134,81 355,188 457,222 46,15 118,32 161,39 52,7 79,16 79,24 0,29 -233,128 -395,168 -213,53 -409,65 -622,39 z"/>
    <path style="fill:#000000" d="M 796,3138 C 529,2866 384,2571 335,2193 c -23,-176 -17,-326 21,-518 37,-185 122,-393 222,-540 66,-98 77,-97 85,8 31,394 337,935 846,1491 44,49 81,95 81,101 0,14 -152,162 -264,258 -150,128 -345,247 -402,247 -22,0 -50,-23 -128,-102 z"/>
    <path style="fill:#000000" d="m 2923,3211 c -127,-61 -298,-189 -463,-348 -66,-63 -120,-122 -120,-130 0,-8 49,-69 109,-136 432,-481 706,-940 791,-1324 11,-49 20,-116 20,-150 0,-56 2,-63 19,-63 23,0 114,140 171,265 116,249 157,456 147,742 -10,331 -100,602 -285,862 -85,120 -272,311 -304,311 -13,0 -51,-13 -85,-29 z"/>
    <path style="fill:#000000" d="M 1850,2328 C 1613,2122 1300,1798 1122,1573 933,1335 730,1013 730,953 730,934 835,827 930,748 1264,472 1749,344 2205,411 c 352,52 672,212 938,468 41,39 47,50 47,86 -1,184 -362,640 -959,1211 -162,155 -252,234 -266,234 -12,0 -61,-35 -115,-82 z"/>
  </g>
  <g style="fill:#ffffff" transform="matrix(0.03173685,0,0,-0.03226071,33.79658,160.69422)">
    <path style="fill:#ffffff" d="m 1763,3604 c -122,-15 -279,-51 -378,-89 -110,-41 -245,-107 -245,-120 0,-8 24,-15 63,-19 140,-16 400,-125 635,-264 57,-34 113,-62 123,-62 11,0 66,28 122,62 134,81 355,188 457,222 46,15 118,32 161,39 52,7 79,16 79,24 0,29 -233,128 -395,168 -213,53 -409,65 -622,39 z"/>
    <path style="fill:#ffffff" d="M 796,3138 C 529,2866 384,2571 335,2193 c -23,-176 -17,-326 21,-518 37,-185 122,-393 222,-540 66,-98 77,-97 85,8 31,394 337,935 846,1491 44,49 81,95 81,101 0,14 -152,162 -264,258 -150,128 -345,247 -402,247 -22,0 -50,-23 -128,-102 z"/>
    <path style="fill:#ffffff" d="m 2923,3211 c -127,-61 -298,-189 -463,-348 -66,-63 -120,-122 -120,-130 0,-8 49,-69 109,-136 432,-481 706,-940 791,-1324 11,-49 20,-116 20,-150 0,-56 2,-63 19,-63 23,0 114,140 171,265 116,249 157,456 147,742 -10,331 -100,602 -285,862 -85,120 -272,311 -304,311 -13,0 -51,-13 -85,-29 z"/>
    <path style="fill:#ffffff" d="M 1850,2328 C 1613,2122 1300,1798 1122,1573 933,1335 730,1013 730,953 730,934 835,827 930,748 1264,472 1749,344 2205,411 c 352,52 672,212 938,468 41,39 47,50 47,86 -1,184 -362,640 -959,1211 -162,155 -252,234 -266,234 -12,0 -61,-35 -115,-82 z"/>
  </g>
</svg>
