<?xml version='1.0' encoding='utf-8'?>
<svg xmlns="http://www.w3.org/2000/svg" width="192" height="192" version="1.1" id="svg10">
  <defs>
    <filter style="color-interpolation-filters:sRGB" id="filter841" x="-0.040734278" y="-0.05842037" width="1.0814686" height="1.1168407">
      <feGaussianBlur stdDeviation="2.7141599"/>
    </filter>
  </defs>
  <path style="fill:#840010" d="m 28,16 h 136 c 6.648,0 12,5.352 12,12 v 107.99243 l -3.40586,26.49385 c -0.84765,6.59374 -4.59518,10.08815 -11.24315,10.10786 l -127.674547,0.37842 c -5.399867,0.016 -15.621171,-0.50361 -17.137356,-5.39211 C 16.188642,166.45054 16,165.24811 16,164 V 28 c 0,-6.648 5.352,-12 12,-12 z"/>
  <path style="opacity:0.1;fill:#ffffff" d="M 28 16 C 21.352 16 16 21.352 16 28 L 16 29 C 16 22.352 21.352 17 28 17 L 164 17 C 170.648 17 176 22.352 176 29 L 176 28 C 176 21.352 170.648 16 164 16 L 28 16 z "/>
  <path style="filter:url(#filter841);opacity:0.2" d="m 120.85156,68.5 c -0.28128,0.0316 -0.19,0.451336 0.41406,1.25 0.73096,0.966456 0.67692,2.887732 -0.10156,3.570312 -2.57492,2.257684 -7.24931,2.737944 -28.046872,4.117188 -11.8624,0.786684 -17.317552,1.981736 -21.320312,4.671876 -1.94224,1.30534 -3.382812,3.21844 -3.382812,4.484376 0,2.079896 3.29124,4.127836 13.125,8.171872 12.48348,5.133712 18.037004,8.136416 21.828126,11.789066 2.54276,2.44987 3.59467,4.12619 4.29687,6.86719 1.13096,4.41463 -0.65926,9.04966 -5.33594,13.82031 -8.436716,8.60633 -23.720592,16.69077 -58.171872,30.77343 -11.095919,4.53567 -17.21201,6.88072 -24.38281,9.35157 -0.577682,0.19904 -2.292465,0.92532 -3.6875,1.5 C 16.535786,175.09909 21.649525,180 28,180 h 136 c 6.648,0 12,-5.352 12,-12 v -29.59375 l -1.32031,-3.24219 c -4.58456,-14.18145 -12.44553,-23.60258 -24.88281,-29.8125 -10.15244,-5.06911 -21.52087,-8.510272 -45.86719,-13.867184 -15.124882,-3.327924 -18.858274,-4.56536 -19.320314,-6.406252 -0.69616,-2.77376 5.458228,-4.12342 18.742184,-5.085936 13.77984,-0.998444 18.96408,-2.581812 20.5,-6.257812 0.6766,-1.619336 0.3406,-2.79896 -1.1875,-4.140624 -0.87498,-0.768208 -1.53123,-1.125376 -1.8125,-1.093752 z"/>
  <path style="fill:#ffffff" d="m 120.85156,64.5 c -0.28128,0.0316 -0.19,0.451336 0.41406,1.25 0.73096,0.966456 0.67692,2.887732 -0.10156,3.570312 -2.57492,2.257684 -7.24931,2.737944 -28.046872,4.117188 -11.8624,0.786684 -17.317552,1.981736 -21.320312,4.671876 -1.94224,1.30534 -3.382812,3.21844 -3.382812,4.484376 0,2.079896 3.29124,4.127836 13.125,8.171872 12.48348,5.133712 18.037004,8.13642 21.828126,11.789066 2.54276,2.44987 3.59467,4.12619 4.29687,6.86719 1.13096,4.41463 -0.65926,9.04966 -5.33594,13.82031 -8.436716,8.60633 -23.720592,16.69077 -58.171872,30.77343 -11.095919,4.53567 -17.21201,6.88072 -24.38281,9.35157 -0.577682,0.19904 -2.292465,0.92532 -3.6875,1.5 C 16.535786,171.09909 21.649525,176 28,176 h 136 c 6.648,0 12,-5.352 12,-12 v -29.59375 l -1.32031,-3.24219 c -4.58456,-14.18145 -12.44553,-23.60258 -24.88281,-29.8125 -10.15244,-5.069108 -21.52087,-8.510272 -45.86719,-13.867184 -15.124882,-3.327924 -18.858274,-4.56536 -19.320314,-6.406252 -0.69616,-2.77376 5.458228,-4.12342 18.742184,-5.085936 13.77984,-0.998444 18.96408,-2.581812 20.5,-6.257812 0.6766,-1.619336 0.3406,-2.79896 -1.1875,-4.140624 -0.87498,-0.768208 -1.53123,-1.125376 -1.8125,-1.093752 z"/>
</svg>
