<?xml version='1.0' encoding='utf-8'?>
<svg xmlns="http://www.w3.org/2000/svg" width="192" height="192" version="1" id="svg12">
  <defs>
    <filter style="color-interpolation-filters:sRGB" id="filter858" x="-0.048000001" width="1.096" y="-0.048000001" height="1.096">
      <feGaussianBlur stdDeviation="3.2"/>
    </filter>
    <filter style="color-interpolation-filters:sRGB" id="filter886" x="-0.048000002" width="1.096" y="-0.048000002" height="1.096">
      <feGaussianBlur stdDeviation="2.4"/>
    </filter>
  </defs>
  <rect ry="80" rx="80" y="20" x="16" height="160" width="160" style="filter:url(#filter858);opacity:0.2;fill:#000000"/>
  <rect style="fill:#1d81e8" width="160" height="160" x="16" y="16" rx="80" ry="80"/>
  <path style="opacity:0.2;fill:#ffffff" d="M 95.998047 16 C 51.678955 16.001052 16 51.680653 16 96 C 16 96.115498 16.006172 96.228859 16.007812 96.34375 C 16.358829 52.329731 51.898462 17.001046 95.998047 17 L 96 17 C 140.10547 17.001047 175.64856 52.339122 175.99023 96.361328 C 175.99198 96.240601 175.99805 96.121307 175.99805 96 C 175.99805 51.680653 140.31909 16.001052 96 16 L 95.998047 16 z "/>
  <path style="filter:url(#filter886);opacity:0.2" d="M 96,38 A 60,60 0 0 0 36,98 60,60 0 0 0 96,158 60,60 0 0 0 156,98 60,60 0 0 0 96,38 Z M 70.2264,78 a 20.142,15.8208 78.959 0 1 17.008,15.6408 20.142,15.8208 78.959 0 1 -10.336,23.8752 20.142,15.8208 78.959 0 1 -20.1328,-15.1564 20.142,15.8208 78.959 0 1 10.336,-23.8752 20.142,15.8208 78.959 0 1 3.124,-0.484 z m 51.548,0 a 15.8208,20.142 11.041 0 1 3.125,0.48436 15.8208,20.142 11.041 0 1 10.336,23.8752 15.8208,20.142 11.041 0 1 -20.1328,15.1564 15.8208,20.142 11.041 0 1 -10.336,-23.8752 15.8208,20.142 11.041 0 1 17.004,-15.64 z"/>
  <path style="fill:#ffc05b" d="M 96,36 A 60,60 0 0 0 36,96 60,60 0 0 0 96,156 60,60 0 0 0 156,96 60,60 0 0 0 96,36 Z M 70.2264,76 a 20.142,15.8208 78.959 0 1 17.008,15.6408 20.142,15.8208 78.959 0 1 -10.336,23.8752 20.142,15.8208 78.959 0 1 -20.1328,-15.1564 20.142,15.8208 78.959 0 1 10.336,-23.8752 20.142,15.8208 78.959 0 1 3.124,-0.484 z m 51.548,0 a 15.8208,20.142 11.041 0 1 3.125,0.48436 15.8208,20.142 11.041 0 1 10.336,23.8752 15.8208,20.142 11.041 0 1 -20.1328,15.1564 15.8208,20.142 11.041 0 1 -10.336,-23.8752 15.8208,20.142 11.041 0 1 17.004,-15.64 z"/>
  <path style="opacity:0.2;fill:#ffffff" d="M 96 36 A 60 60 0 0 0 36 96 A 60 60 0 0 0 36.021484 96.416016 A 60 60 0 0 1 96 37 A 60 60 0 0 1 155.97852 96.583984 A 60 60 0 0 0 156 96 A 60 60 0 0 0 96 36 z M 56.019531 94.792969 A 20.142 15.8208 78.959 0 0 56.765625 101.35938 A 20.142 15.8208 78.959 0 0 76.898438 116.51562 A 20.142 15.8208 78.959 0 0 87.980469 98.207031 A 20.142 15.8208 78.959 0 1 76.898438 115.51562 A 20.142 15.8208 78.959 0 1 56.765625 100.35938 A 20.142 15.8208 78.959 0 1 56.019531 94.792969 z M 135.98242 95.078125 A 15.8208 20.142 11.041 0 1 135.23633 100.35938 A 15.8208 20.142 11.041 0 1 115.10352 115.51562 A 15.8208 20.142 11.041 0 1 104.01953 97.921875 A 15.8208 20.142 11.041 0 0 115.10352 116.51562 A 15.8208 20.142 11.041 0 0 135.23633 101.35938 A 15.8208 20.142 11.041 0 0 135.98242 95.078125 z "/>
</svg>
