<?xml version='1.0' encoding='utf-8'?>
<svg xmlns="http://www.w3.org/2000/svg" width="192" height="192" version="1" id="svg12">
  <defs>
    <filter style="color-interpolation-filters:sRGB" id="filter955" x="0.05" width="1.10" y="0.05" height="1.10">
      <feGaussianBlur stdDeviation="3.20"/>
    </filter>
    <filter style="color-interpolation-filters:sRGB" id="filter44930" x="0.13" y="0.09" width="1.25" height="1.19">
      <feGaussianBlur stdDeviation="4.05"/>
    </filter>
  </defs>
  <rect style="filter:url(#filter955);opacity:0.20;fill:#000000" width="160" height="160" x="16" y="20" rx="30" ry="30"/>
  <path style="fill:#f6ab2c" d="m 49.70,28.83 85.01,4.28 c 16.60,0.84 20.06,11.94 26.09,27.43 L 176,99.57 V 146 c 0,16.62 -13.38,30 -30,30 H 69.65 L 52.02,164.57 C 38.07,155.53 25.35,161.76 25.91,145.15 l 3.04,-90.19 C 29.52,38.35 33.10,28.00 49.70,28.83 Z"/>
  <path style="fill:#e4474b" d="M 49.32,41.06 C 32.76,42.44 46.58,61.53 31.61,68.75 L 16,76.29 V 146 c 0,16.62 13.38,30 30,30 H 73.10 C 107.94,165.88 150.20,134.32 176,101.10 V 46 c 0,-9.56 -4.42,-18.04 -11.34,-23.53 -5.11,-4.05 -6.67,9.49 -13.71,10.08 z"/>
  <path style="fill:#008568" d="M 48.84,39.86 C 33.16,39.45 17.53,27.90 16.13,43.20 16.04,44.12 16,45.06 16,46 v 33.67 c 0.09,0.06 0.15,0.08 0.24,0.14 10.49,6.53 40.11,39.45 62.65,57.93 3.22,2.64 7.39,2.75 10.75,2.75 25.06,0 44.34,-23.41 58.11,-53.24 9.21,-19.96 16.01,-41.94 20.09,-61.81 -1.06,-1.12 -2.20,-2.17 -3.42,-3.12 -5.08,-3.96 -8.99,20.39 -15.95,20.20 z"/>
  <path style="fill:#29d4ff" d="M 48.34,41.24 C 40.33,42.74 30.49,19.21 25.09,24.45 19.48,29.89 16,37.53 16,46 v 0.76 c 11.64,17.33 25.41,34.80 39.93,45.95 12.04,9.25 22.45,15.97 38.72,15.70 38.64,0.65 61.67,-44.24 72.44,-83.76 -4.37,-4.31 -10.06,-7.29 -16.43,-8.28 -1.52,0.24 -4.93,6.63 -6.49,6.92 z"/>
  <path style="fill:#1d64ba" d="M 46,16 C 37.18,16 29.30,19.79 23.82,25.81 33.26,48.88 50.73,77.21 92.79,76.50 118.64,76.07 140.56,46.26 152.97,16.84 150.73,16.31 148.41,16 146,16 h -35.93 z"/>
  <path style="fill:#d649a5" d="M 46 16 C 45.04 16 44.08 16.05 43.14 16.14 C 48.12 29.05 54.94 41.15 67.74 41.15 C 86.08 41.15 105.78 30.71 113.79 16 L 46 16 z "/>
  <path style="opacity:0.20;fill:#ffffff" d="M 46 16 C 29.38 16 16 29.38 16 46 L 16 47 C 16 30.38 29.38 17 46 17 L 146 17 C 162.62 17 176 30.38 176 47 L 176 46 C 176 29.38 162.62 16 146 16 L 46 16 z "/>
  <path style="filter:url(#filter44930);opacity:0.20;fill:#000000" d="M 128.13,47 113,68.95 V 74 h 15 v 7 h 7 v -7 h 4 v -6 h -4 V 47 Z m -37.41,5 c 0,0 -1.07,16 -28.71,16 v 13 h 24 v 69 h 17 V 52 Z m 37.12,3.24 H 128 V 68 h -8.57 z"/>
  <path style="fill:#ffffff" d="M 128.13 45 L 113 66.95 L 113 72 L 128 72 L 128 79 L 135 79 L 135 72 L 139 72 L 139 66 L 135 66 L 135 45 L 128.13 45 z M 90.71 50 C 90.71 50 89.64 66 62 66 L 62 79 L 86 79 L 86 148 L 103 148 L 103 50 L 90.71 50 z M 127.84 53.24 L 128 53.24 L 128 66 L 119.43 66 L 127.84 53.24 z "/>
</svg>
