<?xml version='1.0' encoding='utf-8'?>
<svg xmlns="http://www.w3.org/2000/svg" width="192" height="192" version="1" id="svg12">
  <defs>
    <filter style="color-interpolation-filters:sRGB" id="filter845" x="-0.048000001" y="-0.048000001" width="1.096" height="1.096">
      <feGaussianBlur stdDeviation="3.2"/>
    </filter>
    <filter style="color-interpolation-filters:sRGB" id="filter867" x="-0.043499915" y="-0.05353869" width="1.0869998" height="1.1070774">
      <feGaussianBlur stdDeviation="2.32001"/>
    </filter>
  </defs>
  <rect style="filter:url(#filter845);opacity:0.2" width="160" height="160" x="16" y="20" rx="48" ry="48"/>
  <rect style="fill:#f4b400" width="160" height="160" x="16" y="16" rx="48" ry="48"/>
  <path style="filter:url(#filter867);opacity:0.2" d="m 96,45.999978 a 52,52 0 0 0 -49.376,36 H 32 l 12,16 12,16.000002 12,-16.000002 12,-16 H 68.3752 a 32,32 0 0 1 27.624,-16 32,32 0 0 1 30.092,21.212 l 9.908,-13.212 11.14,14.852 a 52,52 0 0 0 -51.14,-42.852 z m 40,36 -12,16 -12,16.000002 h 11.6248 a 32,32 0 0 1 -27.624,16 32,32 0 0 1 -30.092,-21.212 l -9.908,13.212 -11.14,-14.852 a 52,52 0 0 0 51.14,42.852 52,52 0 0 0 49.376,-36 h 14.624 l -12,-16.000002 -12,-16 z"/>
  <path fill="#3f3f3f" d="M 96,44 A 52,52 0 0 0 46.624,80 H 32 L 44,96 56,112 68,96 80,80 H 68.3752 a 32,32 0 0 1 27.624,-16 32,32 0 0 1 30.092,21.212 l 9.908,-13.212 11.14,14.852 A 52,52 0 0 0 95.9992,44 Z m 40,36 -12,16 -12,16 h 11.6248 a 32,32 0 0 1 -27.624,16 32,32 0 0 1 -30.092,-21.212 L 56.0008,120 44.8608,105.148 a 52,52 0 0 0 51.14,42.852 52,52 0 0 0 49.376,-36 h 14.624 l -12,-16 -12,-16 z"/>
  <path style="opacity:0.2;fill:#ffffff" d="M 64 16 C 37.408 16 16 37.408 16 64 L 16 65 C 16 38.408 37.408 17 64 17 L 128 17 C 154.592 17 176 38.408 176 65 L 176 64 C 176 37.408 154.592 16 128 16 L 64 16 z "/>
</svg>
