<?xml version='1.0' encoding='utf-8'?>
<svg xmlns="http://www.w3.org/2000/svg" width="192" height="192" version="1" id="svg14">
  <defs>
    <filter style="color-interpolation-filters:sRGB" id="filter2932" x="-0.048000001" y="-0.048000001" width="1.096" height="1.096">
      <feGaussianBlur stdDeviation="3.2"/>
    </filter>
  </defs>
  <circle style="fill:#3f3f3f" cx="96" cy="96" r="61.965748"/>
  <path style="filter:url(#filter2932);opacity:0.2;fill:#000000" d="m 96,20 a 80,80 0 0 0 -80,80 80,80 0 0 0 80,80 80,80 0 0 0 80,-80 80,80 0 0 0 -80,-80 z m 0,25 a 55,55 0 0 1 55,55 55,55 0 0 1 -55,55 55,55 0 0 1 -55,-55 55,55 0 0 1 55,-55 z"/>
  <path style="fill:#42b947" d="M 96 16 A 80 80 0 0 0 16 96 A 80 80 0 0 0 96 176 A 80 80 0 0 0 176 96 A 80 80 0 0 0 96 16 z M 96 41 A 55 55 0 0 1 151 96 A 55 55 0 0 1 96 151 A 55 55 0 0 1 41 96 A 55 55 0 0 1 96 41 z "/>
  <path style="fill:#38adfa" d="m 688.80525,256.99648 c -0.33229,-0.33229 -1.1948,-0.36781 -1.91667,-0.0789 -0.79773,0.31922 -0.56078,0.55618 0.60417,0.60416 1.05416,0.0434 1.64479,-0.19293 1.3125,-0.52522 z"/>
  <path style="opacity:0.2;fill:#ffffff" d="M 96 16 A 80 80 0 0 0 16 96 A 80 80 0 0 0 16.035156 96.5 A 80 80 0 0 1 96 17 A 80 80 0 0 1 175.98242 96.253906 A 80 80 0 0 0 176 96 A 80 80 0 0 0 96 16 z M 150.97852 96.255859 A 55 55 0 0 1 96 151 A 55 55 0 0 1 41.042969 96.5 A 55 55 0 0 0 41 97 A 55 55 0 0 0 96 152 A 55 55 0 0 0 151 97 A 55 55 0 0 0 150.97852 96.255859 z "/>
</svg>
