<?xml version='1.0' encoding='utf-8'?>
<svg xmlns="http://www.w3.org/2000/svg" width="192" height="192" version="1.1" id="svg26">
  <defs>
    <filter style="color-interpolation-filters:sRGB" id="filter886" x="0.05" width="1.10" y="0.04" height="1.09">
      <feGaussianBlur stdDeviation="2.70"/>
    </filter>
    <filter style="color-interpolation-filters:sRGB" id="filter897" x="0.05" width="1.10" y="0.05" height="1.10">
      <feGaussianBlur stdDeviation="1.60"/>
    </filter>
    <filter style="color-interpolation-filters:sRGB" id="filter915" x="0.03" width="1.05" y="0.24" height="1.48">
      <feGaussianBlur stdDeviation="0.40"/>
    </filter>
    <filter style="color-interpolation-filters:sRGB" id="filter919" x="0.03" width="1.05" y="0.24" height="1.48">
      <feGaussianBlur stdDeviation="0.40"/>
    </filter>
    <filter style="color-interpolation-filters:sRGB" id="filter923" x="0.03" width="1.05" y="0.24" height="1.48">
      <feGaussianBlur stdDeviation="0.40"/>
    </filter>
  </defs>
  <path style="filter:url(#filter886);opacity:0.20;fill:#000000" d="M 58.89,27 C 55.08,27.00 52,30.11 52,33.95 V 166.05 C 52.00,169.89 55.08,173 58.89,173 H 140 h 0.88 28.23 C 172.92,173 176,169.89 176,166.05 V 137 101 65 h 0.04 L 176,64.54 V 33.95 C 176,30.11 172.92,27 169.11,27 Z"/>
  <path style="fill:#7719aa" d="m 140.00,133 h 36.00 v 29.05 c 0,3.84 -3.08,6.95 -6.89,6.95 h -29.11 z"/>
  <rect style="filter:url(#filter915);opacity:0.05;fill:#000000" width="36" height="4" x="140.00" y="131"/>
  <path style="fill:#9332bf" d="m 140.00,97 v 36 H 176 V 97 Z"/>
  <rect style="filter:url(#filter919);opacity:0.05;fill:#000000" width="36" height="4" x="140.00" y="95"/>
  <path style="fill:#ae4bd5" d="M 140.00,61 V 97 H 176 V 61 Z"/>
  <rect style="filter:url(#filter923);opacity:0.05;fill:#000000" width="36" height="4" x="140.00" y="59"/>
  <path style="fill:#ca64ea" d="M 58.89 23 C 55.08 23.00 52 26.11 52 29.95 L 52 162.05 C 52.00 165.89 55.08 169 58.89 169 L 140 169 L 140 133 L 140 97 L 140 61 L 175.96 61 L 176 60.54 L 176 29.95 C 176 26.11 172.92 23 169.11 23 L 58.89 23 z "/>
  <path style="filter:url(#filter897);opacity:0.10;fill:#000000" d="M 22.67,60.00 H 89.33 A 6.67,6.67 0 0 1 96,66.67 v 66.67 A 6.67,6.67 0 0 1 89.33,140 H 22.67 A 6.67,6.67 0 0 1 16,133.33 V 66.67 a 6.67,6.67 0 0 1 6.67,-6.67 z"/>
  <path style="fill:#7719aa" d="M 22.67,56.00 H 89.33 A 6.67,6.67 0 0 1 96,62.67 v 66.67 A 6.67,6.67 0 0 1 89.33,136 H 22.67 A 6.67,6.67 0 0 1 16,129.33 V 62.67 a 6.67,6.67 0 0 1 6.67,-6.67 z"/>
  <path style="fill:#ffffff" d="m 34,71.00 h 11.72 c 6.97,12.48 14.48,25.00 21.74,37.16 h 0.15 C 67.33,105.96 66.94,103.74 67,101.53 V 71.00 H 78 V 121 H 66.30 L 47.15,87.85 c 0.81,-1.09 -1.45,-2.24 -2.06,-3.44 h 0.19 c 0.24,2.42 0.14,4.85 0.09,7.28 V 121 H 34 Z"/>
  <path style="opacity:0.20;fill:#ffffff" d="M 58.89 23 C 55.08 23.00 52 26.11 52 29.95 L 52 30.95 C 52 27.11 55.08 24.00 58.89 24 L 169.11 24 C 172.92 24 176 27.11 176 30.95 L 176 29.95 C 176 26.11 172.92 23 169.11 23 L 58.89 23 z "/>
</svg>
