<?xml version='1.0' encoding='utf-8'?>
<svg xmlns="http://www.w3.org/2000/svg" width="192" height="192" version="1" id="svg14">
  <defs>
    <filter style="color-interpolation-filters:sRGB" id="filter850" x="0.05" width="1.10" y="0.05" height="1.10">
      <feGaussianBlur stdDeviation="3.20"/>
    </filter>
    <filter style="color-interpolation-filters:sRGB" id="filter866" x="0.05" width="1.11" y="0.04" height="1.09">
      <feGaussianBlur stdDeviation="1.76"/>
    </filter>
  </defs>
  <rect style="filter:url(#filter850);opacity:0.20;fill:#000000" width="160" height="160" x="-180" y="-176" rx="80" ry="80" transform="matrix(0,-1,-1,0,0,0)"/>
  <rect transform="matrix(0,-1,-1,0,0,0)" ry="80" rx="80" y="-176" x="-176" height="160" width="160" style="fill:#f5466a"/>
  <path d="m 108,52 c -2.22,0 -4,1.78 -4,4 v 88 c 0,2.22 1.78,4 4,4 2.22,0 4,-1.78 4,-4 V 56 c 0,-2.22 -1.78,-4 -4,-4 z M 96,64 c -2.22,0 -4,1.78 -4,4 v 64 c 0,2.22 1.78,4 4,4 2.22,0 4,-1.78 4,-4 V 68 c 0,-2.22 -1.78,-4 -4,-4 z m -24,8 c -2.22,0 -4,1.78 -4,4 v 48 c 0,2.22 1.78,4 4,4 2.22,0 4,-1.78 4,-4 V 76 c 0,-2.22 -1.78,-4 -4,-4 z m 48,0 c -2.22,0 -4,1.78 -4,4 v 48 c 0,2.22 1.78,4 4,4 2.22,0 4,-1.78 4,-4 V 76 c 0,-2.22 -1.78,-4 -4,-4 z m -36,4 c -2.22,0 -4,1.78 -4,4 v 40 c 0,2.22 1.78,4 4,4 2.22,0 4,-1.78 4,-4 V 80 c 0,-2.22 -1.78,-4 -4,-4 z m -24,8 c -2.22,0 -4,1.78 -4,4 v 24 c 0,2.22 1.78,4 4,4 2.22,0 4,-1.78 4,-4 V 88 c 0,-2.22 -1.78,-4 -4,-4 z m 72,4 c -2.22,0 -4,1.78 -4,4 v 16 c 0,2.22 1.78,4 4,4 2.22,0 4,-1.78 4,-4 V 92 c 0,-2.22 -1.78,-4 -4,-4 z" style="filter:url(#filter866);opacity:0.20"/>
  <path style="opacity:0.20;fill:#ffffff" d="M 96 16 C 51.68 16 16.01 51.68 16.01 96 C 16.01 96.34 16.01 96.67 16.01 97 C 16.01 52.68 51.68 17 96 17 C 140.32 17 175.99 52.68 175.99 97 C 175.99 96.67 175.99 96.34 175.99 96 C 175.99 51.68 140.32 16 96 16 z "/>
  <path d="m 108,48 c -2.22,0 -4,1.78 -4,4 v 88 c 0,2.22 1.78,4 4,4 2.22,0 4,-1.78 4,-4 V 52 c 0,-2.22 -1.78,-4 -4,-4 z M 96,60 c -2.22,0 -4,1.78 -4,4 v 64 c 0,2.22 1.78,4 4,4 2.22,0 4,-1.78 4,-4 V 64 c 0,-2.22 -1.78,-4 -4,-4 z m -24,8 c -2.22,0 -4,1.78 -4,4 v 48 c 0,2.22 1.78,4 4,4 2.22,0 4,-1.78 4,-4 V 72 c 0,-2.22 -1.78,-4 -4,-4 z m 48,0 c -2.22,0 -4,1.78 -4,4 v 48 c 0,2.22 1.78,4 4,4 2.22,0 4,-1.78 4,-4 V 72 c 0,-2.22 -1.78,-4 -4,-4 z m -36,4 c -2.22,0 -4,1.78 -4,4 v 40 c 0,2.22 1.78,4 4,4 2.22,0 4,-1.78 4,-4 V 76 c 0,-2.22 -1.78,-4 -4,-4 z m -24,8 c -2.22,0 -4,1.78 -4,4 v 24 c 0,2.22 1.78,4 4,4 2.22,0 4,-1.78 4,-4 V 84 c 0,-2.22 -1.78,-4 -4,-4 z m 72,4 c -2.22,0 -4,1.78 -4,4 v 16 c 0,2.22 1.78,4 4,4 2.22,0 4,-1.78 4,-4 V 88 c 0,-2.22 -1.78,-4 -4,-4 z" style="fill:#ffffff"/>
</svg>
