<?xml version='1.0' encoding='utf-8'?>
<svg xmlns="http://www.w3.org/2000/svg" width="192" height="192" version="1" id="svg12">
  <defs>
    <filter style="color-interpolation-filters:sRGB" id="filter852" x="-0.047999985" width="1.096" y="-0.048000013" height="1.096">
      <feGaussianBlur stdDeviation="3.359999"/>
    </filter>
    <filter style="color-interpolation-filters:sRGB" id="filter2433" x="-0.075" y="-0.075" width="1.15" height="1.15">
      <feGaussianBlur stdDeviation="3.5625"/>
    </filter>
  </defs>
  <path style="filter:url(#filter852);opacity:0.2" d="m 95.99756,16.000153 c -4.400196,0 -8.803332,1.640084 -12.092585,4.929259 L 16.929186,87.912668 c -6.57851,6.578342 -6.569178,17.587262 0.0096,24.165612 l 66.975789,66.98326 c 6.57851,6.57835 17.597245,6.58768 24.175755,0.01 l 66.97579,-66.98325 c 6.5785,-6.57835 6.57851,-17.5967 0,-24.175046 L 108.09015,20.929412 c -3.28925,-3.289174 -7.69239,-4.929259 -12.09259,-4.929259 z"/>
  <path style="fill:#ee1750" d="m 95.99756,12.000052 c -4.400196,0 -8.803332,1.640084 -12.092585,4.929259 L 16.929186,83.912566 c -6.57851,6.578341 -6.569178,17.587264 0.0096,24.165614 l 66.975789,66.98325 c 6.57851,6.57835 17.597245,6.58768 24.175755,0.01 l 66.97579,-66.98325 c 6.5785,-6.57835 6.57851,-17.596693 0,-24.175038 L 108.09015,16.929311 c -3.28925,-3.289174 -7.69239,-4.929259 -12.09259,-4.929259 z"/>
  <path style="filter:url(#filter2433);opacity:0.2;fill:#000000" d="M 96,42 A 13,13 0 0 0 83,55 13,13 0 0 0 96,68 13,13 0 0 0 109,55 13,13 0 0 0 96,42 Z M 74,64 A 13,13 0 0 0 61,77 13,13 0 0 0 74,90 13,13 0 0 0 87,77 13,13 0 0 0 74,64 Z m 44,0 A 13,13 0 0 0 105,77 13,13 0 0 0 118,90 13,13 0 0 0 131,77 13,13 0 0 0 118,64 Z M 52,86 A 13,13 0 0 0 39,99 13,13 0 0 0 52,112 13,13 0 0 0 65,99 13,13 0 0 0 52,86 Z m 44,0 A 13,13 0 0 0 83,99 13,13 0 0 0 96,112 13,13 0 0 0 109,99 13,13 0 0 0 96,86 Z m 44,0 a 13,13 0 0 0 -13,13 13,13 0 0 0 13,13 13,13 0 0 0 13,-13 13,13 0 0 0 -13,-13 z m -66,22 a 13,13 0 0 0 -13,13 13,13 0 0 0 13,13 13,13 0 0 0 13,-13 13,13 0 0 0 -13,-13 z m 44,0 a 13,13 0 0 0 -13,13 13,13 0 0 0 13,13 13,13 0 0 0 13,-13 13,13 0 0 0 -13,-13 z m -22,22 a 13,13 0 0 0 -13,13 13,13 0 0 0 13,13 13,13 0 0 0 13,-13 13,13 0 0 0 -13,-13 z"/>
  <path style="opacity:0.2;fill:#ffffff" d="M 96 12 C 91.599804 12 87.195503 13.640513 83.90625 16.929688 L 16.929688 83.914062 C 13.564951 87.27871 11.993317 91.793818 12.085938 96.289062 C 12.231011 92.130733 13.814724 88.028944 16.929688 84.914062 L 83.90625 17.929688 C 87.195503 14.640514 91.599804 13 96 13 C 100.4002 13 104.8045 14.640513 108.09375 17.929688 L 175.0625 84.914062 C 178.18226 88.033747 179.77187 92.14689 179.91602 96.314453 C 180.01029 91.810311 178.43191 87.283389 175.0625 83.914062 L 108.09375 16.929688 C 104.8045 13.640514 100.4002 12 96 12 z "/>
  <circle style="fill:#ffffff" cx="96" cy="96" r="13"/>
  <circle style="fill:#ffffff" cx="52" cy="96" r="13"/>
  <circle style="fill:#ffffff" cx="74" cy="74" r="13"/>
  <circle style="fill:#acdb2b" cx="96" cy="52" r="13"/>
  <circle style="fill:#ffffff" cx="-140" cy="96" r="13" transform="scale(-1,1)"/>
  <circle style="fill:#ffffff" cx="-118" cy="74" r="13" transform="scale(-1,1)"/>
  <circle style="fill:#ffffff" cx="74" cy="-118" r="13" transform="scale(1,-1)"/>
  <circle style="fill:#ffffff" cx="96" cy="-140" r="13" transform="scale(1,-1)"/>
  <circle style="fill:#ffffff" cx="-118" cy="-118" r="13" transform="scale(-1)"/>
</svg>
