<?xml version='1.0' encoding='utf-8'?>
<svg xmlns="http://www.w3.org/2000/svg" width="192" height="192" version="1.1" id="svg32">
  <defs>
    <filter style="color-interpolation-filters:sRGB" id="filter875" x="0.05" width="1.10" y="0.05" height="1.10">
      <feGaussianBlur stdDeviation="2.24"/>
    </filter>
    <filter style="color-interpolation-filters:sRGB" id="filter903" x="0.05" width="1.10" y="0.05" height="1.10">
      <feGaussianBlur stdDeviation="3.20"/>
    </filter>
    <filter style="color-interpolation-filters:sRGB" id="filter919" x="0.05" width="1.10" y="0.05" height="1.10">
      <feGaussianBlur stdDeviation="0.48"/>
    </filter>
    <filter style="color-interpolation-filters:sRGB" id="filter935" x="0.05" width="1.10" y="0.05" height="1.10">
      <feGaussianBlur stdDeviation="0.48"/>
    </filter>
    <filter style="color-interpolation-filters:sRGB" id="filter963" x="0.10" width="1.21" y="0.10" height="1.21">
      <feGaussianBlur stdDeviation="1.04"/>
    </filter>
    <filter style="color-interpolation-filters:sRGB" id="filter967" x="0.10" width="1.21" y="0.10" height="1.21">
      <feGaussianBlur stdDeviation="1.04"/>
    </filter>
  </defs>
  <path style="filter:url(#filter875);opacity:0.20;fill:#000000" d="m 132.00,75.00 a 56,52 0 0 1 56,52.00 56,52 0 0 1 -20,39.83 V 187 l -14.88,-11.87 a 56,52 0 0 1 -21.12,3.87 56,52 0 0 1 -56,-52 56,52 0 0 1 56,-52.00 z"/>
  <path style="filter:url(#filter903);opacity:0.20;fill:#000000" d="m 95.98,7.00 c -2.28,0.02 -4.56,0.13 -6.83,0.33 -1.65,0.13 -3.26,0.34 -4.88,0.56 0.86,0.11 -1.71,0.23 -2.56,0.37 -2.30,0.39 -4.56,0.88 -6.79,1.45 0.15,0.04 0.29,0.07 0.44,0.11 -33.77,8.79 -58.48,37.69 -58.48,71.98 0.00,0.25 0.02,0.49 0.02,0.74 0.01,0.15 0.02,0.31 0.02,0.46 0.04,23.55 12.36,45.64 32,60.00 v 24 l 21.22,-12.48 c 8.59,2.94 17.65,4.45 26.78,4.48 42.56,0.05 77.62,-31.74 79.80,-72.12 0.06,0.88 0.11,-1.77 0.14,-2.66 0.02,0.41 0.05,0.81 0.06,-1.22 0.00,0.16 0.01,0.33 0.02,0.49 0.00,0.24 0.02,0.47 0.02,0.71 0,-38.74 -31.51,-70.66 -72.02,-74.41 -2.21,0.20 -4.43,0.30 -6.66,0.32 0.45,0.01 0.88,0.06 -1.34,0.06 z"/>
  <path d="m 95.98,3.00 c -2.28,0.02 -4.56,0.13 -6.83,0.33 -1.65,0.13 -3.26,0.34 -4.88,0.56 0.86,0.11 -1.71,0.23 -2.56,0.37 -2.30,0.39 -4.56,0.88 -6.79,1.45 0.15,0.04 0.29,0.07 0.44,0.11 -33.77,8.79 -58.48,37.69 -58.48,71.98 0.00,0.25 0.02,0.49 0.02,0.74 0.01,0.15 0.02,0.31 0.02,0.46 0.04,23.55 12.36,45.64 32,60.00 v 24 l 21.22,-12.48 c 8.59,2.94 17.65,4.45 26.78,4.48 42.56,0.05 77.62,-31.74 79.80,-72.12 0.06,0.88 0.11,-1.77 0.14,-2.66 0.02,0.41 0.05,0.81 0.06,-1.22 0.00,0.16 0.01,0.33 0.02,0.49 0.00,0.24 0.02,0.47 0.02,0.71 0,-38.74 -31.51,-70.66 -72.02,-74.41 -2.21,0.20 -4.43,0.30 -6.66,0.32 0.45,0.01 0.88,0.06 -1.34,0.06 z" style="fill:#50bcff"/>
  <circle r="12" cy="65" cx="136" style="filter:url(#filter935);opacity:0.10"/>
  <circle r="12" cy="63.00" cx="136" style="fill:#3f3f3f"/>
  <path style="opacity:0.20;fill:#ffffff" d="M 95.97 3 A 80 76 0 0 0 89.15 3.33 C 87.50 3.46 85.89 3.67 84.27 3.89 A 80 76 0 0 0 81.71 4.26 C 79.41 4.65 77.15 5.14 74.92 5.70 A 80 76 0 0 0 74.48 5.81 C 40.72 14.61 16 43.50 16 77.80 C 16.00 77.94 16.01 78.08 16.01 78.21 C 16.29 44.17 40.91 15.56 74.48 6.81 A 80 76 0 0 1 74.92 6.70 C 77.15 6.14 79.41 5.65 81.71 5.26 A 80 76 0 0 1 84.27 4.89 C 85.89 4.67 87.50 4.46 89.15 4.33 A 80 76 0 0 1 95.98 4 L 95.97 4.00 L 95.99 4.00 C 96.44 4.00 96.88 4.05 97.33 4.06 A 80 76 0 0 1 103.98 4.38 C 144.33 8.12 175.74 39.81 175.99 78.33 C 175.99 78.15 176.00 77.98 176.00 77.79 C 176.00 39.06 144.49 7.13 103.98 3.38 A 80 76 0 0 0 97.33 3.06 C 96.88 3.06 96.44 3 95.99 3 L 95.98 3 L 95.97 3 z M 176.00 78.92 C 175.99 78.99 175.99 79.07 175.99 79.14 A 80 76 0 0 0 176.00 79 A 80 76 0 0 0 176.00 78.92 z M 16.00 78.92 A 80 76 0 0 0 16 79 A 80 76 0 0 0 16.02 79.27 C 16.01 79.15 16.01 79.04 16.00 78.92 z "/>
  <circle r="12" cy="65" cx="56" style="filter:url(#filter919);opacity:0.10"/>
  <circle r="12" cy="63.00" cx="56" style="fill:#3f3f3f"/>
  <path d="m 132.00,71.00 a 56,52 0 0 1 56,52.00 56,52 0 0 1 -20,39.83 V 183 l -14.88,-11.87 a 56,52 0 0 1 -21.12,3.87 56,52 0 0 1 -56,-52 56,52 0 0 1 56,-52.00 z" style="fill:#ffffff"/>
  <path d="M 132.00,71.00 A 56,52 0 0 1 188.00,123 56,52 0 0 1 187.92,124.66 56,52 0 0 0 132.00,75.00 56,52 0 0 0 76.09,125.34 56,52 0 0 1 76.00,123 a 56,52 0 0 1 56,-52.00 z" style="opacity:0.20;fill:#ffffff"/>
  <circle r="12" cy="121" cx="104" style="filter:url(#filter967);opacity:0.10"/>
  <circle r="12" cy="119.00" cx="104" style="fill:#3f3f3f"/>
  <circle r="12" cy="121" cx="160" style="filter:url(#filter963);opacity:0.10"/>
  <circle r="12" cy="119.00" cx="160" style="fill:#3f3f3f"/>
</svg>
