<?xml version='1.0' encoding='utf-8'?>
<svg xmlns="http://www.w3.org/2000/svg" width="192" height="192" version="1" id="svg14">
  <defs>
    <filter style="color-interpolation-filters:sRGB" id="filter850" x="-0.048000001" width="1.096" y="-0.048000001" height="1.096">
      <feGaussianBlur stdDeviation="3.2"/>
    </filter>
    <filter style="color-interpolation-filters:sRGB" id="filter869" x="-0.048959999" width="1.09792" y="-0.047076922" height="1.0941538">
      <feGaussianBlur stdDeviation="2.04"/>
    </filter>
  </defs>
  <rect style="filter:url(#filter850);opacity:0.2;fill:#000000" width="160" height="160" x="-180" y="-176" rx="80" ry="80" transform="matrix(0,-1,-1,0,0,0)"/>
  <rect transform="matrix(0,-1,-1,0,0,0)" ry="80" rx="80" y="-176" x="-176" height="160" width="160" style="fill:#4f4f4f"/>
  <path style="opacity:0.1;fill:#ffffff" d="M 96 16 C 51.684 16 16.007812 51.68 16.007812 96 C 16.007812 96.33544 16.009812 96.667215 16.007812 97 C 16.007812 52.68 51.684 17 96 17 C 140.316 17 175.99219 52.68 175.99219 97 C 175.99019 96.667215 175.99219 96.33544 175.99219 96 C 175.99219 51.68 140.316 16 96 16 z "/>
  <path d="M 96,48 A 16,16 0 0 0 80,64 16,16 0 0 0 96,80 16,16 0 0 0 112,64 16,16 0 0 0 96,48 Z M 49.601564,84 C 48.715164,84 48,84.715164 48,85.601564 V 100 c 0,8.83655 7.163444,16 16,16 h 10.398436 4 32.000004 C 111.28483,116 112,115.28483 112,114.39844 V 100 C 112,91.163444 104.83655,83.999996 96,84 H 64 60 Z M 132,84 c -8.83656,0 -16,7.163448 -16,16 v 14.39844 c 0,0.8864 0.71516,1.60156 1.60156,1.60156 H 132 c 8.83655,0 16,-7.16344 16,-16 V 85.601564 C 148,84.715168 147.28483,84 146.39844,84 Z M 81.601564,120 C 80.715168,120 80,120.71517 80,121.60156 V 136 150.39844 C 80,151.28484 80.715164,152 81.601564,152 H 96 c 8.83655,0 16,-7.16344 16,-16 V 121.60156 C 112,120.71517 111.28483,120 110.39844,120 H 96 Z" style="filter:url(#filter869);opacity:0.2"/>
  <path d="M 96,44 A 16,16 0 0 0 80,60 16,16 0 0 0 96,76 16,16 0 0 0 112,60 16,16 0 0 0 96,44 Z M 49.601564,80 C 48.715164,80 48,80.715164 48,81.601564 V 96 c 0,8.83655 7.163444,16 16,16 h 10.398436 4 32.000004 C 111.28483,112 112,111.28483 112,110.39844 V 96 C 112,87.163444 104.83655,79.999996 96,80 H 64 60 Z M 132,80 c -8.83656,0 -16,7.163448 -16,16 v 14.39844 c 0,0.8864 0.71516,1.60156 1.60156,1.60156 H 132 c 8.83655,0 16,-7.16344 16,-16 V 81.601564 C 148,80.715168 147.28483,80 146.39844,80 Z M 81.601564,116 C 80.715168,116 80,116.71517 80,117.60156 V 132 146.39844 C 80,147.28484 80.715164,148 81.601564,148 H 96 c 8.83655,0 16,-7.16344 16,-16 V 117.60156 C 112,116.71517 111.28483,116 110.39844,116 H 96 Z" style="fill:#08d2be"/>
  <path style="opacity:0.2;fill:#ffffff" d="M 96 44 A 16 16 0 0 0 80 60 A 16 16 0 0 0 80.021484 60.419922 A 16 16 0 0 1 96 45 A 16 16 0 0 1 111.97852 60.580078 A 16 16 0 0 0 112 60 A 16 16 0 0 0 96 44 z M 49.601562 80 C 48.715162 80 48 80.715163 48 81.601562 L 48 82.601562 C 48 81.715163 48.715162 81 49.601562 81 L 60 81 L 64 81 L 96 81 C 104.83655 80.999996 112 88.163444 112 97 L 112 96 C 112 87.163444 104.83655 79.999996 96 80 L 64 80 L 60 80 L 49.601562 80 z M 132 80 C 123.16344 80 116 87.163448 116 96 L 116 97 C 116 88.163448 123.16344 81 132 81 L 146.39844 81 C 147.28483 81 148 81.715167 148 82.601562 L 148 81.601562 C 148 80.715167 147.28483 80 146.39844 80 L 132 80 z M 81.601562 116 C 80.715167 116 80 116.71517 80 117.60156 L 80 118.60156 C 80 117.71517 80.715167 117 81.601562 117 L 96 117 L 110.39844 117 C 111.28483 117 112 117.71517 112 118.60156 L 112 117.60156 C 112 116.71517 111.28483 116 110.39844 116 L 96 116 L 81.601562 116 z "/>
</svg>
