<?xml version='1.0' encoding='utf-8'?>
<svg xmlns="http://www.w3.org/2000/svg" width="192" height="192" version="1" id="svg28">
  <defs>
    <filter style="color-interpolation-filters:sRGB" id="filter6495" x="0.05" y="0.05" width="1.10" height="1.10">
      <feGaussianBlur stdDeviation="3.20"/>
    </filter>
    <filter style="color-interpolation-filters:sRGB" id="filter18744" x="0.09" y="0.14" width="1.17" height="1.28">
      <feGaussianBlur stdDeviation="3.78"/>
    </filter>
    <filter style="color-interpolation-filters:sRGB" id="filter18748" x="0.05" y="0.16" width="1.10" height="1.32">
      <feGaussianBlur stdDeviation="2.12"/>
    </filter>
  </defs>
  <rect transform="matrix(0,-1,-1,0,0,0)" ry="12" rx="12" y="-176" x="-180" height="160" width="160" style="filter:url(#filter6495);opacity:0.20;fill:#000000"/>
  <rect transform="matrix(0,-1,-1,0,0,0)" ry="12" rx="12" y="-176" x="-176" height="160" width="160" style="fill:#1f76e9"/>
  <path style="opacity:0.10;fill:#ffffff" d="m 28,16 c -6.65,0 -12,5.35 -12,12 v 1 c 0,-6.65 5.35,-12 12,-12 h 136 c 6.65,0 12,5.35 12,12 v -1 c 0,-6.65 -5.35,-12 -12,-12 z"/>
  <path style="filter:url(#filter18748);opacity:0.20;fill:#000000" d="m 52,54 c -4.43,0 -8,3.57 -8,8 V 85.95 H 148 V 72 c 0,-4.43 -3.57,-8 -8,-8 H 97.24 c 0,0 -1.34,0.05 -2.04,0.76 l -8.12,-8.29 c 0,0 0.98,0.95 -1.98,0.95 z"/>
  <path style="fill:#ebeeef" d="m 52,52 c -4.43,0 -8,3.57 -8,8 V 83.95 H 148 V 70 c 0,-4.43 -3.57,-8 -8,-8 H 97.24 c 0,0 -1.34,0.05 -2.04,0.76 l -8.12,-8.29 c 0,0 0.98,0.95 -1.98,0.95 z"/>
  <rect style="filter:url(#filter18744);opacity:0.20;fill:#000000" width="104" height="64" x="44" y="78" rx="8"/>
  <rect style="fill:#ffffff" width="104" height="64" x="44" y="76" rx="8"/>
</svg>
