<?xml version='1.0' encoding='utf-8'?>
<svg xmlns="http://www.w3.org/2000/svg" width="192" height="192" version="1" id="svg28">
  <defs>
    <filter style="color-interpolation-filters:sRGB" id="filter6482" x="0.04" y="0.05" width="1.09" height="1.10">
      <feGaussianBlur stdDeviation="3"/>
    </filter>
    <filter style="color-interpolation-filters:sRGB" id="filter6524" x="0.07" y="0.08" width="1.14" height="1.16">
      <feGaussianBlur stdDeviation="3.97"/>
    </filter>
    <filter style="color-interpolation-filters:sRGB" id="filter6854" x="0.11" y="0.11" width="1.21" height="1.22">
      <feGaussianBlur stdDeviation="2.75"/>
    </filter>
    <filter style="color-interpolation-filters:sRGB" id="filter6896" x="0.08" y="0.08" width="1.15" height="1.15">
      <feGaussianBlur stdDeviation="3.90"/>
    </filter>
  </defs>
  <path style="filter:url(#filter6524);opacity:0.20;fill:#000000" d="M 44.69,33 H 146 c 9.97,0 18,8.03 18,18 v 81 c 0,9.97 -8.03,18 -18,18 H 44.69 c -9.97,0 -18,-8.03 -18,-18 V 51 c 0,-9.97 8.03,-18 18,-18 z"/>
  <path style="fill:#eda253" d="M 44.69,31 H 146 c 9.97,0 18,8.03 18,18 v 81 c 0,9.97 -8.03,18 -18,18 H 44.69 c -9.97,0 -18,-8.03 -18,-18 V 49 c 0,-9.97 8.03,-18 18,-18 z"/>
  <path style="opacity:0.20;fill:#ffffff" d="M 44.69 31 C 34.72 31 26.69 39.03 26.69 49 L 26.69 50 C 26.69 40.03 34.72 32 44.69 32 L 146 32 C 155.97 32 164 40.03 164 50 L 164 49 C 164 39.03 155.97 31 146 31 L 44.69 31 z "/>
  <path style="filter:url(#filter6482);opacity:0.20;fill:#000000" d="m 34,30 c -9.97,0 -18,8.03 -18,18 v 23 58 23 c 0,9.97 8.03,18 18,18 h 124 c 9.97,0 18,-8.03 18,-18 V 129 78.98 71 c 0,-9.97 -8.03,-18 -18,-18 H 112.01 C 76.20,53 89.97,30 71.67,30 Z"/>
  <path style="fill:#ffd38c" d="M 34 26 C 24.03 26 16 34.03 16 44 L 16 67 L 16 125 L 16 148 C 16 157.97 24.03 166 34 166 L 158 166 C 167.97 166 176 157.97 176 148 L 176 125 L 176 74.98 L 176 67 C 176 57.03 167.97 49 158 49 L 112.01 49 C 76.20 49 89.97 26 71.67 26 L 34 26 z "/>
  <path style="opacity:0.20;fill:#ffffff" d="M 34 26 C 24.03 26 16 34.03 16 44 L 16 45 C 16 35.03 24.03 27 34 27 L 71.67 27 C 89.97 27 76.20 50 112.01 50 L 158 50 C 167.97 50 176 58.03 176 68 L 176 67 C 176 57.03 167.97 49 158 49 L 112.01 49 C 76.20 49 89.97 26 71.67 26 L 34 26 z "/>
  <path style="filter:url(#filter6896);opacity:0.20;fill:#000000;color:#000000" d="M 81.91,39.87 35.22,164 H 67.14 L 95.97,88.89 124.69,164 h 31.91 L 110.10,39.88 Z"/>
  <path style="fill:#f68300;color:#000000" d="M 81.91 37.87 L 35.22 166 L 67.14 166 L 95.97 86.89 L 124.69 166 L 156.61 166 L 110.10 37.88 L 81.91 37.87 z "/>
  <path style="filter:url(#filter6854);opacity:0.20;fill:#000000" d="m 96.00,86 -8.28,23 H 65 L 82.26,123.24 74.76,146 96.00,133.00 117.24,146 109.74,123.24 127,109 h -22.72 z"/>
  <path style="fill:#ffffff" d="m 96.00,84 -8.28,23 H 65 L 82.26,121.24 74.76,144 96.00,131.00 117.24,144 109.74,121.24 127,107 h -22.72 z"/>
</svg>
