<?xml version='1.0' encoding='utf-8'?>
<svg xmlns="http://www.w3.org/2000/svg" width="192" height="192" version="1" id="svg12">
  <defs>
    <filter style="color-interpolation-filters:sRGB" id="filter963" x="0.05" y="0.05" width="1.10" height="1.10">
      <feGaussianBlur stdDeviation="3.20"/>
    </filter>
    <filter style="color-interpolation-filters:sRGB" id="filter967" x="0.04" y="0.08" width="1.08" height="1.16">
      <feGaussianBlur stdDeviation="1.96"/>
    </filter>
  </defs>
  <rect style="filter:url(#filter963);opacity:0.20;fill:#000000" width="160" height="160" x="16" y="20" rx="8" ry="8"/>
  <rect style="fill:#3f3f3f" width="160" height="160" x="16" y="16" rx="8" ry="8"/>
  <path style="opacity:0.10;fill:#ffffff" d="M 24 16 C 19.57 16 16 19.57 16 24 L 16 25 C 16 20.57 19.57 17 24 17 L 168 17 C 172.43 17 176 20.57 176 25 L 176 24 C 176 19.57 172.43 16 168 16 L 24 16 z "/>
  <path style="filter:url(#filter967);opacity:0.20;fill:none;stroke:#000000;stroke-width:4" d="M 40,96 H 98.40 L 70.17,56 H 80.18 l 30.63,42 -30.93,42 H 90.09 L 120.42,98 90.39,56 h 9.91 l 29.73,42 -29.73,42 h 9.61 L 138.64,100 H 152"/>
  <path style="fill:none;stroke:#ffb81b;stroke-width:4" d="M 40,94 H 98.40 L 70.17,54 H 80.18 l 30.63,42 -30.93,42 H 90.09 L 120.42,96 90.39,54 h 9.91 l 29.73,42 -29.73,42 h 9.61 L 138.64,98 H 152"/>
</svg>
