<?xml version='1.0' encoding='utf-8'?>
<svg xmlns="http://www.w3.org/2000/svg" width="192" height="192" version="1.1" id="svg14">
  <defs>
    <filter style="color-interpolation-filters:sRGB" id="filter849" x="-0.048000001" y="-0.048000001" width="1.096" height="1.096">
      <feGaussianBlur stdDeviation="3.2"/>
    </filter>
    <filter style="color-interpolation-filters:sRGB" id="filter3886" x="-0.061111016" y="-0.097059054" width="1.122222" height="1.1941181">
      <feGaussianBlur stdDeviation="2.7499958"/>
    </filter>
  </defs>
  <rect style="filter:url(#filter849);opacity:0.2" width="160" height="160" x="16" y="20" rx="32" ry="32"/>
  <rect style="fill:#e4e4e4" width="160" height="160" x="16" y="16" rx="32" ry="32"/>
  <path style="opacity:0.2;fill:#ffffff" d="M 48,16 C 30.272,16 16,30.272 16,48 v 1 C 16,31.272 30.272,17 48,17 h 96 c 17.728,0 32,14.272 32,32 V 48 C 176,30.272 161.728,16 144,16 Z"/>
  <path style="filter:url(#filter3886);opacity:0.2;fill:#000000" d="m 48.004267,64.000271 c -4.494753,0.0025 -7.390719,4.765068 -5.325336,8.757812 l 29.00131,55.999997 c 2.157596,4.16665 8.046854,4.35566 10.467108,0.33594 l 9.561,-15.89063 2.671456,-4.44531 7.201985,-11.976559 3.7338,-6.210938 8.76424,-14.570312 c 3.07746,-4.324647 5.98998,-12 9.21553,-12 h -12.60561 c -2.10431,1.93e-4 -4.05471,1.103016 -5.13983,2.90625 l -8.053416,13.382812 -2.234024,3.71875 -7.248863,12.0625 -2.929229,4.867187 -7.686294,12.77344 -19.528187,-37.710939 h 19.707847 l 8.272139,15.90625 7.248863,-12.054688 -6.561471,-12.617187 c -1.031429,-1.985845 -3.082026,-3.23266 -5.319477,-3.234375 z m 79.952473,0 c -2.76608,0 -6.27787,7.352947 -9.21162,12 h 14.64419 l -22.69176,37.835939 -6.92078,-12.94531 -7.201996,11.96875 8.529906,15.96874 c 2.19747,4.11121 8.03813,4.2555 10.43587,0.25782 l 33.59629,-56.000001 c 2.39786,-4.00027 -0.48427,-9.087443 -5.14763,-9.085938 z"/>
  <path style="fill:#f4423c" d="m 48.004267,62.000134 c -4.494753,0.0025 -7.390719,4.765068 -5.325336,8.757812 l 29.00131,55.999994 c 2.157596,4.16665 8.046854,4.35566 10.467108,0.33594 l 9.561,-15.89063 2.671456,-4.44531 7.201985,-11.976556 3.7338,-6.210938 8.76424,-14.570312 c 3.07746,-4.324647 5.98998,-12 9.21553,-12 h -12.60561 c -2.10431,1.93e-4 -4.05471,1.103016 -5.13983,2.90625 l -8.053416,13.382812 -2.234024,3.71875 -7.248863,12.0625 -2.929229,4.867188 -7.686294,12.773436 -19.528187,-37.710936 h 19.707847 l 8.272139,15.90625 7.248863,-12.054688 -6.561471,-12.617187 c -1.031429,-1.985845 -3.082026,-3.23266 -5.319477,-3.234375 z m 79.952473,0 c -2.76608,0 -6.27787,7.352947 -9.21162,12 h 14.64419 l -22.69176,37.835936 -6.92078,-12.945311 -7.201996,11.968751 8.529906,15.96874 c 2.19747,4.11121 8.03813,4.2555 10.43587,0.25782 l 33.59629,-55.999998 c 2.39786,-4.00027 -0.48427,-9.087443 -5.14763,-9.085938 z"/>
</svg>
