<?xml version='1.0' encoding='utf-8'?>
<svg xmlns="http://www.w3.org/2000/svg" width="192" height="192" version="1" id="svg14">
  <defs>
    <filter style="color-interpolation-filters:sRGB" id="filter846" x="-0.049263159" width="1.0985263" y="-0.0468" height="1.0936">
      <feGaussianBlur stdDeviation="3.1200001"/>
    </filter>
    <filter style="color-interpolation-filters:sRGB" id="filter867" x="-0.066000003" width="1.132" y="-0.037714287" height="1.0754286">
      <feGaussianBlur stdDeviation="1.32"/>
    </filter>
  </defs>
  <path style="filter:url(#filter846);opacity:0.2;fill:#000000" d="M 33.757417,20.003377 A 13.445412,12.554906 0 0 0 20,32.553482 V 167.45432 a 13.445412,12.554906 0 0 0 20.167918,10.86375 l 62.556982,-33.71921 62.55299,-33.72321 a 13.445412,12.554906 0 0 0 0,-21.745095 L 102.7249,55.403346 40.167918,21.680937 a 13.445412,12.554906 0 0 0 -6.410901,-1.67756 z"/>
  <path d="M 33.757417,16.00338 A 13.445412,12.554906 0 0 0 20,28.553485 V 163.45432 a 13.445412,12.554906 0 0 0 20.167918,10.86375 l 62.556982,-33.71921 62.55299,-33.72321 a 13.445412,12.554906 0 0 0 0,-21.745092 L 102.7249,51.403349 40.167918,17.68094 a 13.445412,12.554906 0 0 0 -6.410901,-1.67756 z" style="fill:#21a758"/>
  <path d="m 76,60 v 57.89062 A 16,14 0 0 0 68,116 16,14 0 0 0 52,130 16,14 0 0 0 68,144 16,14 0 0 0 84,130 16,14 0 0 0 83.9844,129.67188 H 84 V 76.656248 c 1.500664,1.281488 3.864336,2.903184 4.789064,4.08594 C 90.95194,83.508584 92,86.305224 92,92 h 8 C 100,85.139608 98.302856,79.917056 95.093752,75.8125 92.28592,72.221196 88.350464,69.452736 84,66.1875 V 60 Z" style="filter:url(#filter867);opacity:0.2"/>
  <path d="m 76,56 v 9.992188 47.898432 A 16,14 0 0 0 68,112 16,14 0 0 0 52,126 16,14 0 0 0 68,140 16,14 0 0 0 84,126 16,14 0 0 0 83.9844,125.67188 H 84 V 72.656248 c 1.500664,1.281488 3.864336,2.903184 4.789064,4.08594 C 90.95194,79.508584 92,82.305224 92,88 h 8 C 100,81.139608 98.302856,75.917056 95.093752,71.8125 92.28592,68.221196 88.350464,65.452736 84,62.1875 V 56 Z" style="fill:#ffffff"/>
  <path style="opacity:0.2;fill:#ffffff" d="M 33.757812 16.003906 A 13.445412 12.554906 0 0 0 20 28.552734 L 20 29.552734 A 13.445412 12.554906 0 0 1 33.757812 17.003906 A 13.445412 12.554906 0 0 1 40.167969 18.681641 L 102.72461 52.404297 L 165.27734 86.130859 A 13.445412 12.554906 0 0 1 171.98047 96.625 A 13.445412 12.554906 0 0 0 165.27734 85.130859 L 102.72461 51.404297 L 40.167969 17.681641 A 13.445412 12.554906 0 0 0 33.757812 16.003906 z "/>
</svg>
