<?xml version='1.0' encoding='utf-8'?>
<svg xmlns="http://www.w3.org/2000/svg" width="192" height="192" version="1.1" id="svg8">
  <defs>
    <filter style="color-interpolation-filters:sRGB" id="filter843" x="0.04" width="1.08" y="0.06" height="1.12">
      <feGaussianBlur stdDeviation="2.90"/>
    </filter>
  </defs>
  <path d="M 126,40.00 10,158.00 H 57.30 L 108,105.56 v 52.44 l 47.92,-48.02 0.15,48.02 L 182,131.78 V 40.00 l -56,61.19 z" style="filter:url(#filter843);opacity:0.20;fill:#000000;fill-rule:evenodd"/>
  <path style="fill:#2b87d8;fill-rule:evenodd" d="M 126,36.00 10,154.00 H 57.30 L 108,101.56 v 52.44 l 47.92,-48.02 0.15,48.02 L 182,127.78 V 36.00 L 126,97.19 Z"/>
  <path style="opacity:0.20;fill:#ffffff;fill-rule:evenodd" d="M 126 37 L 10 155 L 10.98 155 L 126 38 L 126 37 z M 182 37 L 126 98.19 L 126 99.19 L 182 38 L 182 37 z "/>
</svg>
