<?xml version='1.0' encoding='utf-8'?>
<svg xmlns="http://www.w3.org/2000/svg" width="192" height="192" version="1" id="svg28">
  <defs>
    <filter style="color-interpolation-filters:sRGB" id="filter6324" x="0.06" y="0.04" width="1.11" height="1.08">
      <feGaussianBlur stdDeviation="1.15"/>
    </filter>
    <filter style="color-interpolation-filters:sRGB" id="filter6328" x="0.06" y="0.04" width="1.13" height="1.08">
      <feGaussianBlur stdDeviation="1.85"/>
    </filter>
    <filter style="color-interpolation-filters:sRGB" id="filter6332" x="0.03" y="0.22" width="1.05" height="1.44">
      <feGaussianBlur stdDeviation="1"/>
    </filter>
    <filter style="color-interpolation-filters:sRGB" id="filter6495" x="0.05" y="0.05" width="1.10" height="1.10">
      <feGaussianBlur stdDeviation="3.20"/>
    </filter>
  </defs>
  <rect transform="matrix(0,-1,-1,0,0,0)" ry="12" rx="12" y="-176" x="-180" height="160" width="160" style="filter:url(#filter6495);opacity:0.20;fill:#000000"/>
  <rect transform="matrix(0,-1,-1,0,0,0)" ry="12" rx="12" y="-176" x="-176" height="160" width="160" style="fill:#e4e4e4"/>
  <path style="filter:url(#filter6332);opacity:0.20;fill:#000000;color:#000000" d="m 56.50,88.00 a 5.50,5.50 0 0 0 -5.50,5.50 5.50,5.50 0 0 0 5.50,5.50 h 78.00 a 5.50,5.50 0 0 0 5.50,-5.50 5.50,5.50 0 0 0 -5.50,-5.50 z"/>
  <path style="fill:#7652f9;color:#000000" d="m 56.50,86 a 5.50,5.50 0 0 0 -5.50,5.50 5.50,5.50 0 0 0 5.50,5.50 h 78.00 a 5.50,5.50 0 0 0 5.50,-5.50 5.50,5.50 0 0 0 -5.50,-5.50 z"/>
  <path style="filter:url(#filter6324);opacity:0.20;fill:#000000;color:#000000" d="m 133.62,88.07 c -1.44,0.23 -2.73,1.03 -3.58,2.21 L 95.07,130.83 c -1.78,2.46 -5.78,20.10 -3.31,21.88 2.46,1.78 7.87,2.19 9.65,0.27 l 37.56,-55.72 c 1.78,-2.46 1.22,-5.90 -1.24,-7.68 -1.18,0.85 -2.66,-1.20 -4.10,0.97 z"/>
  <path style="fill:#bb21af;color:#000000" d="m 133.62,86.07 c -1.44,0.23 -2.73,1.03 -3.58,2.21 l -34.97,40.55 c -1.78,2.46 -5.78,20.10 -3.31,21.88 2.46,1.78 7.87,2.19 9.65,0.27 l 37.56,-55.72 c 1.78,-2.46 1.22,-5.90 -1.24,-7.68 -1.18,0.85 -2.66,-1.20 -4.10,0.97 z"/>
  <path style="filter:url(#filter6328);opacity:0.20;fill:#000000;color:#000000" d="m 114.47,41.00 c -4.65,0.11 -7.38,2.93 -10.64,5.67 L 52.96,89.29 c -2.32,1.95 -2.62,5.41 0.66,7.73 1.05,1.24 2.54,1.93 4.05,1.98 2.85,0.30 4.64,-1.87 7.13,-3.33 L 97.29,75.79 89.58,148.51 c 0.51,2.99 1.50,5.82 4.49,6.33 5.30,0.91 8.15,-2.43 8.66,-5.42 0.66,0.03 15.25,-73.07 19.27,-101.23 0,-4.41 -3.12,-7.20 -7.53,-7.20 z"/>
  <path style="fill:#f13e58;color:#000000" d="m 114.47,39.00 c -4.65,0.11 -7.38,2.93 -10.64,5.67 L 52.96,87.29 c -2.32,1.95 -2.62,5.41 0.66,7.73 1.05,1.24 2.54,1.93 4.05,1.98 2.85,0.30 4.64,-1.87 7.13,-3.33 L 97.29,73.79 89.58,146.51 c 0.51,2.99 1.50,5.82 4.49,6.33 5.30,0.91 8.15,-2.43 8.66,-5.42 0.66,0.03 15.25,-73.07 19.27,-101.23 0,-4.41 -3.12,-7.20 -7.53,-7.20 z"/>
  <path style="opacity:0.20;fill:#ffffff" d="m 28,16 c -6.65,0 -12,5.35 -12,12 v 1 c 0,-6.65 5.35,-12 12,-12 h 136 c 6.65,0 12,5.35 12,12 v -1 c 0,-6.65 -5.35,-12 -12,-12 z"/>
</svg>
