<?xml version='1.0' encoding='utf-8'?>
<svg xmlns="http://www.w3.org/2000/svg" width="192" height="192" version="1" id="svg16">
  <defs>
    <filter style="color-interpolation-filters:sRGB" id="filter867" x="0.05" width="1.10" y="0.05" height="1.10">
      <feGaussianBlur stdDeviation="3.20"/>
    </filter>
    <filter style="color-interpolation-filters:sRGB" id="filter2300" x="0.07" y="0.07" width="1.15" height="1.15">
      <feGaussianBlur stdDeviation="3.75"/>
    </filter>
  </defs>
  <rect ry="80" rx="80" height="160" width="160" y="-176" x="-180" transform="matrix(0,-1,-1,0,0,0)" style="filter:url(#filter867);opacity:0.20;fill:#000000"/>
  <rect style="fill:#b1df42" transform="matrix(0,-1,-1,0,0,0)" x="-176" y="-176" width="160" height="160" rx="80" ry="80"/>
  <circle style="filter:url(#filter2300);opacity:0.20;fill:#000000" cx="96" cy="98" r="60"/>
  <path style="opacity:0.20;fill:#ffffff" d="M 96 16 C 51.68 16 16 51.68 16 96 C 16 96.34 16.00 96.67 16 97 C 16 52.68 51.68 17 96 17 C 140.32 17 176 52.68 176 97 C 176.00 96.67 176 96.34 176 96 C 176 51.68 140.32 16 96 16 z "/>
  <circle style="fill:#ffffff" cx="96" cy="96" r="60"/>
  <path style="fill:#3f3f3f" d="M 96 64 A 32 32 0 0 0 64 96 A 32 32 0 0 0 96 128 A 32 32 0 0 0 128 96 A 32 32 0 0 0 127.94 94.20 A 22.25 22.25 0 0 1 117.25 97 A 22.25 22.25 0 0 1 95 74.75 A 22.25 22.25 0 0 1 97.80 64.06 A 32 32 0 0 0 96 64 z "/>
</svg>
