<?xml version='1.0' encoding='utf-8'?>
<svg xmlns="http://www.w3.org/2000/svg" width="192" height="192" version="1" id="svg22">
  <defs>
    <filter style="color-interpolation-filters:sRGB" id="filter3917" x="0.07" y="0.07" width="1.15" height="1.15">
      <feGaussianBlur stdDeviation="4.19"/>
    </filter>
    <filter style="color-interpolation-filters:sRGB" id="filter3959" x="0.11" y="0.11" width="1.21" height="1.22">
      <feGaussianBlur stdDeviation="1.82"/>
    </filter>
    <filter style="color-interpolation-filters:sRGB" id="filter4002" x="0.08" y="0.16" width="1.16" height="1.32">
      <feGaussianBlur stdDeviation="2.29"/>
    </filter>
  </defs>
  <circle style="fill:#3f3f3f" cx="83" cy="83" r="64"/>
  <path style="fill:#3f3f3f;color:#000000" d="m 112.07,106.57 -5.71,5.61 60.82,61.86 5.70,-5.61 z"/>
  <path style="filter:url(#filter3917);opacity:0.20;fill:#000000" d="M 83,19 A 67,67 0 0 0 16,86 67,67 0 0 0 83,153 67,67 0 0 0 150,86 67,67 0 0 0 83,19 Z m 0,13 A 54,54 0 0 1 137,86 54,54 0 0 1 83,140 54,54 0 0 1 29,86 54,54 0 0 1 83,32 Z"/>
  <path style="fill:#e4e4e4" d="M 83 16 A 67 67 0 0 0 16 83 A 67 67 0 0 0 83 150 A 67 67 0 0 0 150 83 A 67 67 0 0 0 83 16 z M 83 29 A 54 54 0 0 1 137 83 A 54 54 0 0 1 83 137 A 54 54 0 0 1 29 83 A 54 54 0 0 1 83 29 z "/>
  <path style="filter:url(#filter4002);opacity:0.20;fill:#000000" d="m 51,68 c -1.11,0 -2,0.89 -2,2 v 8 c 0,1.11 0.89,2 2,2 h 64 c 1.11,0 2,0.89 2,-2 v -8 c 0,-1.11 0.89,-2 -2,-2 z m 0,22 c -1.11,0 -2,0.89 -2,2 v 8 c 0,1.11 0.89,2 2,2 h 46 c 1.11,0 2,0.89 2,-2 v -8 c 0,-1.11 0.89,-2 -2,-2 z"/>
  <path style="fill:#ef313f" d="M 51 66 C 49.89 66 49 66.89 49 68 L 49 76 C 49 77.11 49.89 78 51 78 L 115 78 C 116.11 78 117 77.11 117 76 L 117 68 C 117 66.89 116.11 66 115 66 L 51 66 z M 51 88 C 49.89 88 49 88.89 49 90 L 49 98 C 49 99.11 49.89 100 51 100 L 97 100 C 98.11 100 99 99.11 99 98 L 99 90 C 99 88.89 98.11 88 97 88 L 51 88 z "/>
  <path style="filter:url(#filter3959);opacity:0.20;fill:#000000;color:#000000" d="m 142.84,138.00 a 8,8 0 0 0 -5.61,2.46 8,8 0 0 0 0.23,11.31 l 25,24 a 8,8 0 0 0 11.31,0.23 8,8 0 0 0 0.23,-11.31 l -25,-24 a 8,8 0 0 0 -5.71,-2.23 z"/>
  <path style="fill:#898989;color:#000000" d="m 142.84,136.00 a 8,8 0 0 0 -5.61,2.46 8,8 0 0 0 0.23,11.31 l 25,24 a 8,8 0 0 0 11.31,0.23 8,8 0 0 0 0.23,-11.31 l -25,-24 a 8,8 0 0 0 -5.71,-2.23 z"/>
  <path style="opacity:0.20;fill:#ffffff" d="M 83 16 A 67 67 0 0 0 16 83 A 67 67 0 0 0 16.04 83.50 A 67 67 0 0 1 83 17 A 67 67 0 0 1 149.98 83.25 A 67 67 0 0 0 150 83 A 67 67 0 0 0 83 16 z M 136.98 83.26 A 54 54 0 0 1 83 137 A 54 54 0 0 1 29.04 83.50 A 54 54 0 0 0 29 84 A 54 54 0 0 0 83 138 A 54 54 0 0 0 137 84 A 54 54 0 0 0 136.98 83.26 z "/>
  <path style="opacity:0.20;fill:#ffffff" d="M 51 66 C 49.89 66 49 66.89 49 68 L 49 69 C 49 67.89 49.89 67 51 67 L 115 67 C 116.11 67 117 67.89 117 69 L 117 68 C 117 66.89 116.11 66 115 66 L 51 66 z M 51 88 C 49.89 88 49 88.89 49 90 L 49 91 C 49 89.89 49.89 89 51 89 L 97 89 C 98.11 89 99 89.89 99 91 L 99 90 C 99 88.89 98.11 88 97 88 L 51 88 z "/>
</svg>
