<?xml version='1.0' encoding='utf-8'?>
<svg xmlns="http://www.w3.org/2000/svg" width="192" height="192" version="1" id="svg28">
  <defs>
    <filter style="color-interpolation-filters:sRGB" id="filter6324" x="-0.056389497" y="-0.041783543" width="1.112779" height="1.0835671">
      <feGaussianBlur stdDeviation="1.1518809"/>
    </filter>
    <filter style="color-interpolation-filters:sRGB" id="filter6328" x="-0.062535025" y="-0.03894744" width="1.12507" height="1.0778949">
      <feGaussianBlur stdDeviation="1.8500036"/>
    </filter>
    <filter style="color-interpolation-filters:sRGB" id="filter6332" x="-0.026966291" y="-0.21818182" width="1.0539326" height="1.4363636">
      <feGaussianBlur stdDeviation="1"/>
    </filter>
    <filter style="color-interpolation-filters:sRGB" id="filter6495" x="-0.048000001" y="-0.048000001" width="1.096" height="1.096">
      <feGaussianBlur stdDeviation="3.2"/>
    </filter>
  </defs>
  <rect transform="matrix(0,-1,-1,0,0,0)" ry="12" rx="12" y="-176" x="-180" height="160" width="160" style="filter:url(#filter6495);opacity:0.2;fill:#000000"/>
  <rect transform="matrix(0,-1,-1,0,0,0)" ry="12" rx="12" y="-176" x="-176" height="160" width="160" style="fill:#e4e4e4"/>
  <path style="filter:url(#filter6332);opacity:0.2;fill:#000000;color:#000000" d="m 56.500346,87.999995 a 5.5,5.5 0 0 0 -5.5,5.5 5.5,5.5 0 0 0 5.5,5.5 h 78.000004 a 5.5,5.5 0 0 0 5.5,-5.5 5.5,5.5 0 0 0 -5.5,-5.5 z"/>
  <path style="fill:#7652f9;color:#000000" d="m 56.500346,86 a 5.5,5.5 0 0 0 -5.5,5.5 5.5,5.5 0 0 0 5.5,5.5 h 78.000004 a 5.5,5.5 0 0 0 5.5,-5.5 5.5,5.5 0 0 0 -5.5,-5.5 z"/>
  <path style="filter:url(#filter6324);opacity:0.2;fill:#000000;color:#000000" d="m 133.6234,88.070307 c -1.43995,0.232827 -2.72844,1.028122 -3.58203,2.210938 L 95.067556,130.82921 c -1.777288,2.46272 -5.775602,20.1019 -3.313304,21.87977 2.462717,1.77729 7.868994,2.18944 9.646868,-0.27286 l 37.55821,-55.717375 c 1.77729,-2.462717 1.22207,-5.899863 -1.24023,-7.677734 -1.18251,-0.853842 -2.65576,-1.20301 -4.0957,-0.970704 z"/>
  <path style="fill:#bb21af;color:#000000" d="m 133.6234,86.070312 c -1.43995,0.232827 -2.72844,1.028122 -3.58203,2.210938 l -34.973814,40.54796 c -1.777288,2.46272 -5.775602,20.1019 -3.313304,21.87977 2.462717,1.77729 7.868994,2.18944 9.646868,-0.27286 l 37.55821,-55.71737 c 1.77729,-2.462717 1.22207,-5.899863 -1.24023,-7.677734 -1.18251,-0.853842 -2.65576,-1.20301 -4.0957,-0.970704 z"/>
  <path style="filter:url(#filter6328);opacity:0.2;fill:#000000;color:#000000" d="m 114.46679,41.002863 c -4.65406,-0.109472 -7.38296,2.931821 -10.64205,5.668859 L 52.957377,89.291229 c -2.323563,1.951562 -2.62088,5.412344 -0.664062,7.729712 1.049849,1.243433 2.535315,1.934309 4.045592,1.979054 2.849277,-0.296165 4.642829,-1.86851 7.12969,-3.330751 L 97.28599,75.785066 89.578471,148.51323 c -0.514043,2.98671 1.497445,5.82334 4.492187,6.33494 5.303608,0.90803 8.149172,-2.42937 8.662112,-5.41627 -0.65731,-0.0313 15.25357,-73.069117 19.26758,-101.22572 0,-4.406712 -3.11528,-7.203317 -7.53356,-7.203317 z"/>
  <path style="fill:#f13e58;color:#000000" d="m 114.46679,39.002868 c -4.65406,-0.109472 -7.38296,2.931821 -10.64205,5.668859 L 52.957377,87.291234 c -2.323563,1.951562 -2.62088,5.412344 -0.664062,7.729712 1.049849,1.243433 2.535315,1.934309 4.045592,1.979054 2.849277,-0.296165 4.642829,-1.86851 7.12969,-3.330751 L 97.28599,73.785071 89.578471,146.51323 c -0.514043,2.98671 1.497445,5.82334 4.492187,6.33494 5.303608,0.90803 8.149172,-2.42937 8.662112,-5.41627 -0.65731,-0.0313 15.25357,-73.069112 19.26758,-101.225715 0,-4.406712 -3.11528,-7.203317 -7.53356,-7.203317 z"/>
  <path style="opacity:0.2;fill:#ffffff" d="m 28,16 c -6.648,0 -12,5.352 -12,12 v 1 c 0,-6.648 5.352,-12 12,-12 h 136 c 6.648,0 12,5.352 12,12 v -1 c 0,-6.648 -5.352,-12 -12,-12 z"/>
</svg>
