<?xml version='1.0' encoding='utf-8'?>
<svg xmlns="http://www.w3.org/2000/svg" width="192" height="192" version="1" id="svg14">
  <defs>
    <filter style="color-interpolation-filters:sRGB" id="filter850" x="-0.048000001" width="1.096" y="-0.048000001" height="1.096">
      <feGaussianBlur stdDeviation="3.2"/>
    </filter>
    <filter style="color-interpolation-filters:sRGB" id="filter878" x="-0.048000002" width="1.096" y="-0.048000002" height="1.096">
      <feGaussianBlur stdDeviation="2.4"/>
    </filter>
  </defs>
  <rect style="filter:url(#filter850);opacity:0.2;fill:#000000" width="160" height="160" x="-180" y="-176" rx="80" ry="80" transform="matrix(0,-1,-1,0,0,0)"/>
  <rect transform="matrix(0,-1,-1,0,0,0)" ry="80" rx="80" y="-176" x="-176" height="160" width="160" style="fill:#5183de"/>
  <path style="opacity:0.2;fill:#ffffff" d="M 95.998047 16 C 51.678955 16.001052 16 51.680653 16 96 C 16 96.115498 16.006172 96.228859 16.007812 96.34375 C 16.358829 52.329731 51.898462 17.001046 95.998047 17 L 96 17 C 140.10547 17.001047 175.64856 52.339122 175.99023 96.361328 C 175.99198 96.240601 175.99805 96.121307 175.99805 96 C 175.99805 51.680653 140.31909 16.001052 96 16 L 95.998047 16 z "/>
  <path d="m 96,40 a 60,60 0 0 0 -60,60 60,60 0 0 0 60,60 60,60 0 0 0 32.375,-9.5625 l -8.72656,-8.72656 A 48,48 0 0 1 96,148 48,48 0 0 1 48,100 48,48 0 0 1 96,52 a 48,48 0 0 1 24.64062,6.875 l 8.69532,-8.703124 A 60,60 0 0 0 96,40 Z m 42.63281,17.851564 -8.46093,8.460936 A 48,48 0 0 1 144,100 48,48 0 0 1 129.39062,134.47656 l 8.44532,8.44532 A 60,60 0 0 0 156,100 60,60 0 0 0 138.63281,57.851564 Z M 81.554688,76 A 5.4247292,5.2997108 0 0 0 76,81.296876 V 100 118.70312 a 5.4247292,5.2997108 0 0 0 8.132812,4.58594 l 16.585938,-9.34375 16.57813,-9.35937 a 5.4247292,5.2997108 0 0 0 0,-9.164064 L 100.71875,86.0625 84.132812,76.718752 A 5.4247292,5.2997108 0 0 0 81.554688,76 Z" style="filter:url(#filter878);opacity:0.2"/>
  <path d="m 96,36 a 60,60 0 0 0 -60,60 60,60 0 0 0 60,60 60,60 0 0 0 32.375,-9.5625 l -8.72656,-8.72656 A 48,48 0 0 1 96,144 48,48 0 0 1 48,96 48,48 0 0 1 96,48 a 48,48 0 0 1 24.64062,6.875 l 8.69532,-8.703124 A 60,60 0 0 0 96,36 Z m 42.63281,17.851564 -8.46093,8.460936 A 48,48 0 0 1 144,96 48,48 0 0 1 129.39062,130.47656 l 8.44532,8.44532 A 60,60 0 0 0 156,96 60,60 0 0 0 138.63281,53.851564 Z M 81.554688,72 A 5.4247292,5.2997108 0 0 0 76,77.296876 V 96 114.70312 a 5.4247292,5.2997108 0 0 0 8.132812,4.58594 l 16.585938,-9.34375 16.57813,-9.35937 a 5.4247292,5.2997108 0 0 0 0,-9.164064 L 100.71875,82.0625 84.132812,72.718752 A 5.4247292,5.2997108 0 0 0 81.554688,72 Z" style="fill:#ffffff"/>
</svg>
