<?xml version='1.0' encoding='utf-8'?>
<svg xmlns="http://www.w3.org/2000/svg" width="192" height="192" version="1" id="svg12">
  <defs>
    <filter style="color-interpolation-filters:sRGB" id="filter856" x="0.05" width="1.10" y="0.05" height="1.10">
      <feGaussianBlur stdDeviation="3.20"/>
    </filter>
    <filter style="color-interpolation-filters:sRGB" id="filter886" x="0.05" width="1.10" y="0.05" height="1.10">
      <feGaussianBlur stdDeviation="2.40"/>
    </filter>
  </defs>
  <rect style="filter:url(#filter856);opacity:0.20" width="160" height="160" x="16" y="20" rx="80" ry="80"/>
  <rect style="fill:#2071c5" width="160" height="160" x="16" y="16" rx="80" ry="80"/>
  <path style="filter:url(#filter886);opacity:0.20" d="m 94,38 a 6,6 0 0 0 -1.23,0.13 C 61.14,39.82 36,65.95 36,98 c 0,33.14 26.86,60 60,60 32.04,0 58.17,-25.13 59.87,-56.74 A 6,6 0 0 0 156,100 a 6,6 0 0 0 -6,-6 6,6 0 0 0 -5.99,5.88 c 0.01,0.02 0.05,0.02 0.05,0.04 C 142.96,125.54 121.87,146 96,146 69.49,146 48,124.51 48,98 48,72.15 68.44,51.07 94.04,50.04 c 0.01,0.00 0.02,0.04 0.04,0.04 A 6,6 0 0 0 100,44 6,6 0 0 0 94,38 Z m 0,24 a 6,6 0 0 0 -1.60,0.22 c 0.00,0.00 0.01,0.00 0.01,0 C 74.21,64.04 60,79.34 60,98 c 0,19.88 16.12,36 36,36 18.67,0 33.98,-14.22 35.78,-32.41 A 6,6 0 0 0 132,100 a 6,6 0 0 0 -6,-6 6,6 0 0 0 -5.98,5.70 c 0.02,0.05 0.08,0.08 0.09,0.13 C 118.99,112.23 108.64,122 96,122 82.75,122 72,111.25 72,98 72,85.28 81.89,74.88 94.40,74.05 c 0.04,0.00 0.06,0.06 0.09,0.08 A 6,6 0 0 0 100,68 6,6 0 0 0 94,62 Z m 2,24 A 12,12 0 0 0 84,98 12,12 0 0 0 96,110 12,12 0 0 0 108,98 12,12 0 0 0 96,86 Z"/>
  <path style="fill:#ffffff" d="m 94,36 a 6,6 0 0 0 -1.23,0.13 C 61.14,37.82 36,63.95 36,96 c 0,33.14 26.86,60 60,60 32.04,0 58.17,-25.13 59.87,-56.74 A 6,6 0 0 0 156,98 a 6,6 0 0 0 -6,-6 6,6 0 0 0 -5.99,5.88 c 0.01,0.02 0.05,0.02 0.05,0.04 C 142.96,123.54 121.87,144 96,144 69.49,144 48,122.51 48,96 48,70.15 68.44,49.07 94.04,48.04 c 0.01,0.00 0.02,0.04 0.04,0.04 A 6,6 0 0 0 100,42 6,6 0 0 0 94,36 Z m 0,24 a 6,6 0 0 0 -1.60,0.22 c 0.00,0.00 0.01,0.00 0.01,0 C 74.21,62.04 60,77.34 60,96 c 0,19.88 16.12,36 36,36 18.67,0 33.98,-14.22 35.78,-32.41 A 6,6 0 0 0 132,98 a 6,6 0 0 0 -6,-6 6,6 0 0 0 -5.98,5.70 c 0.02,0.05 0.08,0.08 0.09,0.13 C 118.99,110.23 108.64,120 96,120 82.75,120 72,109.25 72,96 72,83.28 81.89,72.88 94.40,72.05 c 0.04,0.00 0.06,0.06 0.09,0.08 A 6,6 0 0 0 100,66 6,6 0 0 0 94,60 Z m 2,24 A 12,12 0 0 0 84,96 12,12 0 0 0 96,108 12,12 0 0 0 108,96 12,12 0 0 0 96,84 Z"/>
  <path style="opacity:0.10;fill:#ffffff" d="M 96 16 C 51.68 16 16 51.68 16 96 C 16 96.12 16.01 96.23 16.01 96.34 C 16.36 52.33 51.90 17 96 17 C 140.10 17 175.64 52.33 175.99 96.34 C 175.99 96.23 176 96.12 176 96 C 176 51.68 140.32 16 96 16 z "/>
</svg>
