<?xml version='1.0' encoding='utf-8'?>
<svg xmlns="http://www.w3.org/2000/svg" width="192" height="192" version="1" id="svg16">
  <defs>
    <filter style="color-interpolation-filters:sRGB" id="filter867" x="0.05" width="1.10" y="0.05" height="1.10">
      <feGaussianBlur stdDeviation="3.20"/>
    </filter>
    <filter style="color-interpolation-filters:sRGB" id="filter2553" x="0.08" y="0.08" width="1.15" height="1.15">
      <feGaussianBlur stdDeviation="3.75"/>
    </filter>
    <filter style="color-interpolation-filters:sRGB" id="filter2595" x="0.12" y="0.10" width="1.23" height="1.20">
      <feGaussianBlur stdDeviation="2.97"/>
    </filter>
  </defs>
  <rect ry="80" rx="80" height="160" width="160" y="-176" x="-180" transform="matrix(0,-1,-1,0,0,0)" style="filter:url(#filter867);opacity:0.20;fill:#000000"/>
  <rect style="fill:#e4e4e4" transform="matrix(0,-1,-1,0,0,0)" x="-176" y="-176" width="160" height="160" rx="80" ry="80"/>
  <path style="filter:url(#filter2553);opacity:0.20;fill:#000000" d="m 96,38 a 60,60 0 0 0 -60,60 60,60 0 0 0 60,60 60,60 0 0 0 59.57,-54 H 133 V 92 h 22.70 A 60,60 0 0 0 96,38 Z"/>
  <path style="fill:#5cbf41" d="M 96 36 A 60 60 0 0 0 36 96 A 60 60 0 0 0 96 156 A 60 60 0 0 0 155.57 102 L 133 102 L 133 90 L 155.70 90 A 60 60 0 0 0 96 36 z "/>
  <path style="opacity:0.20;fill:#ffffff" d="M 96 16 C 51.68 16 16 51.68 16 96 C 16 96.34 16.00 96.67 16 97 C 16 52.68 51.68 17 96 17 C 140.32 17 176 52.68 176 97 C 176.00 96.67 176 96.34 176 96 C 176 51.68 140.32 16 96 16 z "/>
  <path style="filter:url(#filter2595);opacity:0.20;fill:#000000" d="m 94.99,62.00 c -11.39,0.03 -20.65,4.79 -26.39,13.33 -1.47,2.20 -2.72,4.64 -3.70,7.32 -2.62,9.19 -2.46,17.94 0.08,26.44 1.01,3.33 2.82,7.40 4.33,9.73 8.42,12.30 20.99,16.49 34.37,13.00 8.24,-2.28 14.17,-7.42 18.16,-15.70 2.35,-4.88 2.66,-7.00 1.13,-7.59 -1.96,0.75 -2.63,0.36 -3.78,2.18 -1.62,3.59 -6.35,8.15 -10.50,10.11 -6.80,2.53 -14.87,2.50 -20.01,0.57 -2.04,-1.23 -4.65,-3.32 -5.79,-4.65 -4.51,-5.24 -7.69,-13.41 -8.10,-20.81 l 0.19,-3.48 10.83,-1.74 c 5.96,0.96 14.70,-2.34 19.43,-3.08 13.65,-2.13 14.07,-2.38 12.33,-7.50 -1.35,-3.98 -3.92,-7.91 -7.00,-10.98 C 105.83,63.31 99.82,62.00 94.99,62.00 Z M 91.09,67.08 c 1.53,0.03 3.06,0.22 4.51,0.77 3.80,1.44 7.13,6.23 7.39,10.62 0.19,3.20 0.68,3.53 -14.35,5.55 -6.22,0.92 -11.71,1.82 -12.20,2.01 0.49,0.19 -1.04,0.10 -1.22,0.19 0.54,0.88 0.69,-6.26 2.15,-9.36 2.67,-5.68 8.25,-9.29 13.73,-9.39 z"/>
  <path style="fill:#ffffff" d="M 94.99 60 C 83.60 60.03 74.34 64.79 68.60 73.33 C 67.12 75.53 65.88 77.97 64.90 80.65 C 62.28 89.84 62.44 98.60 64.98 107.09 C 65.99 110.43 67.80 114.50 69.31 116.82 C 77.73 129.12 90.29 133.31 103.68 129.82 C 111.92 127.53 117.85 122.40 121.84 114.12 C 124.19 109.23 124.50 107.11 122.97 106.52 C 121.01 105.77 120.34 106.16 119.19 108.71 C 117.57 112.30 112.84 116.85 108.69 118.81 C 101.89 121.35 93.82 121.32 88.68 118.24 C 86.64 117.01 84.03 114.92 82.89 113.59 C 78.37 108.35 75.19 100.18 74.79 92.78 L 74.60 89.30 L 85.43 87.56 C 91.39 86.61 100.13 85.22 104.86 84.48 C 118.52 82.35 118.93 82.10 117.20 76.98 C 115.84 73.00 113.28 69.07 110.20 66.01 C 105.83 61.31 99.82 60.00 94.99 60 z M 91.09 65.08 C 92.63 65.05 94.15 65.29 95.61 65.84 C 99.41 67.28 102.74 72.07 103.00 76.46 C 103.18 79.65 102.32 79.99 88.64 82.01 C 82.43 82.92 76.94 83.83 76.45 84.02 C 75.95 84.21 75.40 84.12 75.22 83.83 C 74.68 82.95 75.91 77.57 77.37 74.47 C 80.04 68.78 85.61 65.18 91.09 65.08 z "/>
</svg>
