<?xml version='1.0' encoding='utf-8'?>
<svg xmlns="http://www.w3.org/2000/svg" width="192" height="192" version="1" id="svg30">
  <defs>
    <filter style="color-interpolation-filters:sRGB" id="filter889" x="-0.048000001" width="1.096" y="-0.048000001" height="1.096">
      <feGaussianBlur stdDeviation="3.2"/>
    </filter>
    <filter style="color-interpolation-filters:sRGB" id="filter947" x="-0.072000003" width="1.144" y="-0.072000003" height="1.144">
      <feGaussianBlur stdDeviation="1.2"/>
    </filter>
    <filter style="color-interpolation-filters:sRGB" id="filter951" x="-0.072000003" width="1.144" y="-0.072000003" height="1.144">
      <feGaussianBlur stdDeviation="1.2"/>
    </filter>
    <filter style="color-interpolation-filters:sRGB" id="filter1003" x="-0.072000003" width="1.144" y="-0.072000003" height="1.144">
      <feGaussianBlur stdDeviation="1.2"/>
    </filter>
    <filter style="color-interpolation-filters:sRGB" id="filter1007" x="-0.072000003" width="1.144" y="-0.072000003" height="1.144">
      <feGaussianBlur stdDeviation="1.2"/>
    </filter>
    <filter style="color-interpolation-filters:sRGB" id="filter1027" x="-0.048000001" width="1.096" y="-0.048000001" height="1.096">
      <feGaussianBlur stdDeviation="0.8"/>
    </filter>
  </defs>
  <rect style="filter:url(#filter889);opacity:0.2" width="160" height="160" x="16" y="20" rx="48" ry="48"/>
  <rect style="fill:#424652" width="160" height="160" x="16" y="16" rx="48" ry="48"/>
  <path style="opacity:0.1;fill:#ffffff" d="M 64 16 C 37.408 16 16 37.408 16 64 L 16 65 C 16 38.408 37.408 17 64 17 L 128 17 C 154.592 17 176 38.408 176 65 L 176 64 C 176 37.408 154.592 16 128 16 L 64 16 z "/>
  <path style="filter:url(#filter1027);opacity:0.2" d="m 76,118 a 20,20 0 0 0 -20,20 20,20 0 0 0 20,20 20,20 0 0 0 20,-20 v -20 z"/>
  <path style="fill:#09c37b" d="m 76,116 a 20,20 0 0 0 -20,20 20,20 0 0 0 20,20 20,20 0 0 0 20,-20 v -20 z"/>
  <path style="filter:url(#filter1003);opacity:0.2" d="m 76,78 h 20 v 40 H 76 C 64.92,118 56,109.08 56,98 56,86.92 64.92,78 76,78 Z"/>
  <circle style="filter:url(#filter1007);opacity:0.2" cx="116" cy="98" r="20"/>
  <path style="fill:#9154dd" d="m 76,76 h 20 v 40 H 76 C 64.92,116 56,107.08 56,96 56,84.92 64.92,76 76,76 Z"/>
  <circle style="fill:#01b1f8" cx="116" cy="96" r="20"/>
  <path style="filter:url(#filter951);opacity:0.2" d="m 76,38 c -11.08,0 -20,8.92 -20,20 0,11.08 8.92,20 20,20 H 96 V 38 Z"/>
  <path style="fill:#f24e1e" d="m 76,36 c -11.08,0 -20,8.92 -20,20 0,11.08 8.92,20 20,20 H 96 V 36 Z"/>
  <path style="filter:url(#filter947);opacity:0.2" d="m 96,38 h 20 c 11.08,0 20,8.92 20,20 0,11.08 -8.92,20 -20,20 H 96 Z"/>
  <path style="fill:#ff7262" d="m 96,36 h 20 c 11.08,0 20,8.92 20,20 0,11.08 -8.92,20 -20,20 H 96 Z"/>
  <path style="opacity:0.2;fill:#ffffff" d="M 76 36 C 64.92 36 56 44.92 56 56 C 56 56.166207 56.00744 56.329323 56.011719 56.494141 C 56.279424 45.650749 65.08984 37 76 37 L 96 37 L 116 37 C 126.90359 37 135.7085 45.640391 135.98633 56.474609 C 135.99029 56.316244 136 56.159651 136 56 C 136 44.92 127.08 36 116 36 L 96 36 L 76 36 z "/>
</svg>
