<?xml version='1.0' encoding='utf-8'?>
<svg xmlns="http://www.w3.org/2000/svg" width="192" height="192" version="1" id="svg28">
  <defs>
    <filter style="color-interpolation-filters:sRGB" id="filter14456" x="0.07" y="0.08" width="1.14" height="1.16">
      <feGaussianBlur stdDeviation="3.16"/>
    </filter>
    <filter style="color-interpolation-filters:sRGB" id="filter14460" x="0.06" y="0.09" width="1.13" height="1.18">
      <feGaussianBlur stdDeviation="2.92"/>
    </filter>
    <filter style="color-interpolation-filters:sRGB" id="filter14553" x="0.13" y="0.05" width="1.25" height="1.11">
      <feGaussianBlur stdDeviation="2.30"/>
    </filter>
  </defs>
  <path style="filter:url(#filter14460);opacity:0.20;fill:#000000" d="m 53.96,14 a 6,6 0 0 0 -4.23,1.78 6,6 0 0 0 0.05,8.48 L 61.21,35.56 C 49.47,45.36 42,60.00 42,76.38 c 0.01,2.53 0,7.54 0,7.54 C 42.01,92.14 46.54,93 49.59,93 H 96 142.41 c 3.05,0 7.57,0.86 7.59,-9.08 0,0 0.01,-5.01 0,-7.54 0,-16.38 -7.47,-31.02 -19.21,-40.81 L 142.22,24.27 a 6,6 0 0 0 0.05,-8.48 A 6,6 0 0 0 138.04,14 6,6 0 0 0 133.78,15.73 L 120.53,28.83 C 113.17,25.11 104.84,23 96,23 87.16,23 78.83,25.11 71.47,28.83 L 58.22,15.73 A 6,6 0 0 0 53.96,14 Z"/>
  <path style="fill:#22dd55" d="M 53.96 11 A 6 6 0 0 0 49.73 12.78 A 6 6 0 0 0 49.78 21.27 L 61.21 32.56 C 49.47 42.36 42 57.00 42 73.38 C 42.01 75.91 42 80.92 42 80.92 C 42.01 89.14 46.54 90 49.59 90 L 96 90 L 142.41 90 C 145.46 90 149.99 89.14 150 80.92 C 150 80.92 149.99 75.91 150 73.38 C 150 57.00 142.53 42.36 130.79 32.56 L 142.22 21.27 A 6 6 0 0 0 142.27 12.78 A 6 6 0 0 0 138.04 11 A 6 6 0 0 0 133.78 12.73 L 120.53 25.83 C 113.17 22.11 104.84 20 96 20 C 87.16 20 78.83 22.11 71.47 25.83 L 58.22 12.73 A 6 6 0 0 0 53.96 11 z "/>
  <path style="filter:url(#filter14456);opacity:0.20;fill:#000000" d="M 96,85 A 16,16 0 0 0 80,101 H 50 c -4.43,0 -8,3.57 -8,8 v 62 c 0,4.43 3.57,8 8,8 h 92 c 4.43,0 8,-3.57 8,-8 v -62 c 0,-4.43 -3.57,-8 -8,-8 H 112 A 16,16 0 0 0 96,85 Z m 0,8 a 8,8 0 0 1 8,8 H 88 a 8,8 0 0 1 8,-8 z"/>
  <path style="fill:#00aaff" d="M 96 82 A 16 16 0 0 0 80 98 L 50 98 C 45.57 98 42 101.57 42 106 L 42 168 C 42 172.43 45.57 176 50 176 L 142 176 C 146.43 176 150 172.43 150 168 L 150 106 C 150 101.57 146.43 98 142 98 L 112 98 A 16 16 0 0 0 96 82 z M 96 90 A 8 8 0 0 1 104 98 L 88 98 A 8 8 0 0 1 96 90 z "/>
  <path style="opacity:0.20;fill:#ffffff" d="M 53.96 11 A 6 6 0 0 0 49.73 12.78 A 6 6 0 0 0 48.10 17.52 A 6 6 0 0 1 49.73 13.78 A 6 6 0 0 1 53.96 12 A 6 6 0 0 1 58.22 13.73 L 71.47 26.83 C 78.83 23.11 87.16 21 96 21 C 104.84 21 113.17 23.11 120.53 26.83 L 133.78 13.73 A 6 6 0 0 1 138.04 12 A 6 6 0 0 1 142.27 13.78 A 6 6 0 0 1 143.97 17.49 A 6 6 0 0 0 142.27 12.78 A 6 6 0 0 0 138.04 11 A 6 6 0 0 0 133.78 12.73 L 120.53 25.83 C 113.17 22.11 104.84 20 96 20 C 87.16 20 78.83 22.11 71.47 25.83 L 58.22 12.73 A 6 6 0 0 0 53.96 11 z M 60.68 33.04 C 49.25 42.82 42 57.26 42 73.38 C 42.00 73.71 42.00 73.97 42 74.38 C 42 58.00 49.47 43.36 61.21 33.56 L 60.68 33.04 z M 131.32 33.04 L 130.79 33.56 C 142.53 43.36 150 58.00 150 74.38 C 150.00 73.97 150.00 73.71 150 73.38 C 150 57.26 142.75 42.82 131.32 33.04 z "/>
  <path style="opacity:0.20;fill:#ffffff" d="M 96 82 A 16 16 0 0 0 80 98 L 50 98 C 45.57 98 42 101.57 42 106 L 42 107 C 42 102.57 45.57 99 50 99 L 80 99 A 16 16 0 0 1 96 83 A 16 16 0 0 1 112 99 L 142 99 C 146.43 99 150 102.57 150 107 L 150 106 C 150 101.57 146.43 98 142 98 L 112 98 A 16 16 0 0 0 96 82 z M 88.16 98 A 8 8 0 0 0 88 99 L 104 99 A 8 8 0 0 0 103.94 98 L 88.16 98 z "/>
  <path style="filter:url(#filter14553);opacity:0.20;fill:#000000" d="m 80.50,53.00 a 6.50,7 0 0 0 -6.50,7 6.50,7 0 0 0 6.50,7 6.50,7 0 0 0 6.50,-7 6.50,7 0 0 0 -6.50,-7 z m 31,0 a 6.50,7 0 0 0 -6.50,7 6.50,7 0 0 0 6.50,7 6.50,7 0 0 0 6.50,-7 6.50,7 0 0 0 -6.50,-7 z m -15.50,67 a 18,18 0 0 0 -18,18 18,18 0 0 0 10.61,16.41 c 1.30,-2.04 2.50,-3.72 1.70,-9.24 0.18,-1.15 0.67,-2.18 -1.22,-3.13 0.71,-1.22 -1.09,-2.60 -1.09,-4.03 0,-4.42 3.58,-8 8,-8 4.42,0 8,3.58 8,8 0.00,1.43 0.38,2.82 -1.09,4.03 0.55,0.95 -1.03,1.98 -1.22,3.13 0.80,5.52 0.40,7.20 1.70,9.24 A 18,18 0 0 0 114,138.00 a 18,18 0 0 0 -18,-18 z"/>
  <ellipse style="fill:#ffffff" cx="80.50" cy="59" rx="6.50" ry="7"/>
  <ellipse style="fill:#ffffff" cx="-111.50" cy="59" rx="6.50" ry="7" transform="scale(-1,1)"/>
  <path style="fill:#aaddff" d="M 96 119 A 18 18 0 0 0 78 137 A 18 18 0 0 0 88.61 153.41 C 89.91 151.37 91.11 149.69 90.31 144.16 C 90.13 143.01 89.65 141.98 89.09 141.03 C 88.38 139.82 88.00 138.43 88 137 C 88 132.58 91.58 129 96 129 C 100.42 129 104 132.58 104 137 C 104.00 138.43 103.62 139.82 102.91 141.03 C 102.35 141.98 101.87 143.01 101.69 144.16 C 100.89 149.69 102.09 151.37 103.39 153.41 A 18 18 0 0 0 114 137 A 18 18 0 0 0 96 119 z "/>
</svg>
