<?xml version='1.0' encoding='utf-8'?>
<svg xmlns:xlink="http://www.w3.org/1999/xlink" xmlns="http://www.w3.org/2000/svg" width="192" height="192" version="1" id="svg14">
  <defs>
    <linearGradient id="linearGradient944">
      <stop style="stop-color:#31bbfd;stop-opacity:1" offset="0"/>
      <stop style="stop-color:#31bbfd;stop-opacity:0" offset="1"/>
    </linearGradient>
    <filter style="color-interpolation-filters:sRGB" id="filter943" x="0.06" width="1.11" y="0.06" height="1.11">
      <feGaussianBlur stdDeviation="3.20"/>
    </filter>
    <filter style="color-interpolation-filters:sRGB" id="filter4619" x="0.05" y="0.05" width="1.10" height="1.10">
      <feGaussianBlur stdDeviation="2.20"/>
    </filter>
    <linearGradient xlink:href="#linearGradient944" id="linearGradient946" x1="150.90" y1="95.24" x2="8.34" y2="95.24" gradientUnits="userSpaceOnUse"/>
  </defs>
  <rect style="filter:url(#filter943);opacity:0.20" width="137.20" height="137.20" x="-71.44" y="70" rx="41.16" ry="41.16" transform="rotate(-45)"/>
  <rect style="fill:#e4e4e4" width="137.20" height="137.20" x="-68.60" y="67.16" rx="41.16" ry="41.16" transform="rotate(-45)"/>
  <path style="filter:url(#filter4619);opacity:0.20;fill:#000000" d="m 96.00,43.00 c 0.08,0.01 0.17,0.01 0.26,0.01 v 0.06 c -2.59,0.74 -4.23,6.43 -5.15,8.98 -8.18,18.77 -24.13,33.92 -43.25,41.42 -2.61,0.95 -4.95,1.35 -6.25,3.77 -1.05,3.35 6.29,5.28 9.23,6.48 20.32,8.79 36.31,26.58 43.15,47.50 0.43,0.86 1.30,1.48 2.26,1.69 V 153 c 0.09,0.00 0.17,0.04 0.26,0.05 0.09,0.01 0.17,0.04 0.26,0.05 v 0.09 c 0.95,0.20 1.83,0.83 2.26,-1.69 6.84,-20.92 22.83,-38.71 43.15,-47.50 2.94,-1.20 10.28,-3.13 9.23,-6.48 -1.30,-2.41 -3.64,-2.82 -6.25,-3.77 -19.11,-7.50 -35.07,-22.65 -43.25,-41.42 0.93,-2.55 -2.57,-8.24 -5.15,-8.98 v 0.06 c 0.08,0.00 0.17,0.02 0.26,0.01 z"/>
  <path style="fill:#5363f7" d="m 96.00,41.00 c 0.08,0.01 0.17,0.01 0.26,0.01 v 0.06 c -2.59,0.74 -4.23,6.43 -5.15,8.98 -8.18,18.77 -24.13,33.92 -43.25,41.42 -2.61,0.95 -4.95,1.35 -6.25,3.77 -1.05,3.35 6.29,5.28 9.23,6.48 20.32,8.79 36.31,26.58 43.15,47.50 0.43,0.86 1.30,1.48 2.26,1.69 v 0.09 c 0.09,0.00 0.17,0.04 0.26,0.05 0.09,0.01 0.17,0.04 0.26,0.05 v 0.09 c 0.95,0.20 1.83,0.83 2.26,-1.69 6.84,-20.92 22.83,-38.71 43.15,-47.50 2.94,-1.20 10.28,-3.13 9.23,-6.48 -1.30,-2.41 -3.64,-2.82 -6.25,-3.77 -19.11,-7.50 -35.07,-22.65 -43.25,-41.42 0.93,-2.55 -2.57,-8.24 -5.15,-8.98 v 0.06 c 0.08,0.00 0.17,0.02 0.26,0.01 z"/>
  <path style="opacity:0.20;fill:#ffffff" d="M 96,16 C 85.48,16 74.96,20.03 66.90,28.09 L 28.09,66.90 C 19.92,75.07 15.94,85.77 16.06,96.44 16.19,86.11 20.17,75.82 28.09,67.90 L 66.90,29.09 C 74.96,21.03 85.48,17 96,17 c 10.52,0 21.04,4.03 29.10,12.09 l 38.80,38.80 c 7.92,7.92 11.90,18.21 12.04,28.54 0.12,-10.67 -3.86,-21.37 -12.04,-29.54 L 125.10,28.09 C 117.04,20.03 106.52,16 96,16 Z"/>
  <path style="fill:#df67fc;stop-color:#000000" d="m 72.55,75.46 c -7.29,6.85 -15.86,12.35 -25.20,16.01 -2.61,0.95 -4.95,1.36 -6.25,3.77 -1.05,3.35 6.29,5.28 9.23,6.48 20.32,8.79 36.31,26.58 43.15,47.50 0.43,0.86 1.30,1.48 2.26,1.69 V 151 c 0.09,0.00 0.17,0.04 0.26,0.05 0.09,0.01 0.17,0.04 0.26,0.05 v 0.09 c 0.95,0.20 1.83,0.83 2.26,-1.69 3.08,-9.41 8.02,-18.17 14.35,-25.78 C 97.76,111.06 82.84,94.50 72.55,75.46 Z"/>
  <path style="fill:url(#linearGradient946);stop-color:#000000" d="m 96,41.00 c 0.08,0.01 0.17,0.01 0.26,0.01 v 0.06 c -2.59,0.74 -4.22,6.43 -5.15,8.97 -8.18,18.77 -24.13,33.92 -43.24,41.42 -2.61,0.95 -4.95,1.36 -6.25,3.77 0.20,0.63 0.10,1.20 0.21,1.74 A 82.76,32.86 0 0 0 98.11,106 82.76,32.86 0 0 0 147.20,99.55 c 2.34,-1.09 4.27,-2.49 3.70,-4.31 -1.30,-2.41 -3.64,-2.82 -6.25,-3.77 -19.11,-7.50 -35.07,-22.65 -43.24,-41.42 0.93,-2.55 -2.57,-8.24 -5.15,-8.97 v 0.06 c 0.08,0.00 0.17,0.02 0.26,0.01 z"/>
</svg>
