<?xml version='1.0' encoding='utf-8'?>
<svg xmlns="http://www.w3.org/2000/svg" width="192" height="192" version="1" id="svg28">
  <defs>
    <filter style="color-interpolation-filters:sRGB" id="filter6495" x="-0.048000001" y="-0.048000001" width="1.096" height="1.096">
      <feGaussianBlur stdDeviation="3.2"/>
    </filter>
    <filter style="color-interpolation-filters:sRGB" id="filter2322" x="-0.079411765" y="-0.16875" width="1.1588235" height="1.3375">
      <feGaussianBlur stdDeviation="3.375"/>
    </filter>
  </defs>
  <rect transform="matrix(0,-1,-1,0,0,0)" ry="12" rx="12" y="-176" x="-180" height="160" width="160" style="filter:url(#filter6495);opacity:0.2;fill:#000000"/>
  <rect transform="matrix(0,-1,-1,0,0,0)" ry="12" rx="12" y="-176" x="-176" height="160" width="160" style="fill:#1c90ef"/>
  <path style="opacity:0.2;fill:#ffffff" d="m 28,16 c -6.648,0 -12,5.352 -12,12 v 1 c 0,-6.648 5.352,-12 12,-12 h 136 c 6.648,0 12,5.352 12,12 v -1 c 0,-6.648 -5.352,-12 -12,-12 z"/>
  <path style="filter:url(#filter2322);opacity:0.2;fill:#000000" d="m 45,74 v 24 24 H 51.839844 59 v -6 -5 h 4 4.699219 l 1.570312,-4.26367 c 0.732928,-1.99252 1.805236,-4.92535 2.482422,-6.48047 C 72.429139,98.700733 72.982422,97 72.982422,97 H 65.818359 59 v -5 -5 h 10 9.537109 l 2.669922,-3.541016 C 82.760102,81.398396 84.732956,78.514663 85.78125,77.1875 86.829553,75.860346 88.275391,74 88.275391,74 H 66.646484 Z m 48.238281,0 -1.30664,2.630859 c -4.251031,8.573416 -7.269628,22.49691 -7.736329,38.625001 L 84,121.99023 h 6.865234 L 98,122 V 106.27734 90.564453 L 103.39844,106.28125 109.04102,122 h 6.63281 6.63476 L 127.75977,106.27734 133,90.720703 V 106 122 l 7.18555,-0.01 H 147 V 97.994141 74 h -11.04297 -11.57812 c -0.1278,0 -8.24916,24.292657 -8.5625,25.078125 -0.10189,0.255429 -2.09778,-5.246729 -4.43555,-12.228516 L 107,74 h -7 z"/>
  <path style="fill:#ffffff" d="m 45,72 v 24 24 H 51.839844 59 v -6 -5 h 4 4.699219 l 1.570312,-4.26367 c 0.732928,-1.99252 1.805236,-4.925345 2.482422,-6.480471 C 72.429139,96.700733 72.982422,95 72.982422,95 H 65.818359 59 v -5 -5 h 10 9.537109 l 2.669922,-3.541016 C 82.760102,79.398396 84.732956,76.514663 85.78125,75.1875 86.829553,73.860346 88.275391,72 88.275391,72 H 66.646484 Z m 48.238281,0 -1.30664,2.630859 c -4.251031,8.573416 -7.269628,22.49691 -7.736329,38.625001 L 84,119.99023 h 6.865234 L 98,120 V 104.27734 88.564453 L 103.39844,104.28125 109.04102,120 h 6.63281 6.63476 L 127.75977,104.27734 133,88.720703 V 104 120 l 7.18555,-0.01 H 147 V 95.994141 72 h -11.04297 -11.57812 c -0.1278,0 -8.24916,24.292657 -8.5625,25.078125 -0.10189,0.255429 -2.09778,-5.246729 -4.43555,-12.228516 L 107,72 h -7 z"/>
</svg>
