<?xml version='1.0' encoding='utf-8'?>
<svg xmlns="http://www.w3.org/2000/svg" width="192" height="192" version="1.1" id="svg20">
  <defs>
    <filter style="color-interpolation-filters:sRGB" id="filter869" x="-0.048000001" width="1.096" y="-0.048000001" height="1.096">
      <feGaussianBlur stdDeviation="3.2"/>
    </filter>
    <filter style="color-interpolation-filters:sRGB" id="filter885" x="-0.047999999" width="1.096" y="-0.047999999" height="1.096">
      <feGaussianBlur stdDeviation="0.64"/>
    </filter>
    <filter style="color-interpolation-filters:sRGB" id="filter905" x="-0.050666666" width="1.1013333" y="-0.045600002" height="1.0912">
      <feGaussianBlur stdDeviation="1.14"/>
    </filter>
    <filter style="color-interpolation-filters:sRGB" id="filter929" x="-0.079384617" width="1.1587692" y="-0.034400002" height="1.0688">
      <feGaussianBlur stdDeviation="1.72"/>
    </filter>
  </defs>
  <rect style="filter:url(#filter869);opacity:0.2" width="160" height="160" x="16" y="20" rx="8" ry="8"/>
  <rect style="fill:#e4e4e4" width="160" height="160" x="16" y="16" rx="8" ry="8"/>
  <path style="filter:url(#filter905);opacity:0.1" d="M 64,86.000004 118,146 H 64 Z"/>
  <path style="fill:#a11d21" d="M 64,84.000004 118,144 H 64 Z"/>
  <path style="filter:url(#filter929);opacity:0.1" d="m 64,88.000004 52,-60 L 64,148 Z"/>
  <path style="fill:#e02a32" d="m 64,84.000004 52,-60 L 64,144 Z"/>
  <circle style="filter:url(#filter885);opacity:0.1" cx="112" cy="102" r="16"/>
  <circle style="fill:#e02a32" cx="112" cy="100" r="16"/>
  <path style="opacity:0.2;fill:#ffffff" d="M 24 16 C 19.568 16 16 19.568 16 24 L 16 25 C 16 20.568 19.568 17 24 17 L 168 17 C 172.432 17 176 20.568 176 25 L 176 24 C 176 19.568 172.432 16 168 16 L 24 16 z "/>
</svg>
