<?xml version='1.0' encoding='utf-8'?>
<svg xmlns="http://www.w3.org/2000/svg" width="192" height="192" version="1.1" id="svg22">
  <defs>
    <filter style="color-interpolation-filters:sRGB" id="filter865" x="0.04" y="0.05" width="1.09" height="1.10">
      <feGaussianBlur stdDeviation="2.24"/>
    </filter>
    <filter style="color-interpolation-filters:sRGB" id="filter869" x="0.04" y="0.06" width="1.08" height="1.12">
      <feGaussianBlur stdDeviation="1.60"/>
    </filter>
    <filter style="color-interpolation-filters:sRGB" id="filter873" x="0.09" y="0.17" width="1.17" height="1.35">
      <feGaussianBlur stdDeviation="1.44"/>
    </filter>
    <filter style="color-interpolation-filters:sRGB" id="filter960" x="0.11" y="0.06" width="1.22" height="1.11">
      <feGaussianBlur stdDeviation="1.13"/>
    </filter>
  </defs>
  <path style="filter:url(#filter869);opacity:0.20" d="M 96.90,20.00 H 95.10 C 69.09,20.00 48.00,41.23 48.00,67.43 V 80.15 c 0,2.13 1.71,3.85 3.82,3.85 h 10.16 c 2.11,0.00 2.01,-1.72 2.01,-3.85 v -13.51 c 0,-16.40 15.01,-30.64 31.30,-30.64 h 1.44 C 113.03,36.00 128,50.24 128,66.64 v 13.51 c 0,2.13 0.06,3.85 2.06,3.85 h 10.16 c 2.09,0.02 3.78,-1.74 3.78,-3.85 V 67.43 C 144.00,41.24 122.92,20.00 96.90,20.00 Z"/>
  <path style="filter:url(#filter865);opacity:0.20" d="m 48.00,171.73 c 1.90,4.30 6.16,8.27 10.86,8.27 h 13.49 c 4.47,0.00 8.56,-4.01 10.58,-8.00 h 24.75 c 2.02,3.98 6.11,8.00 10.57,8.00 h 13.50 c 4.56,0.00 8.72,-3.82 10.69,-7.94 7.82,-1.31 13.55,-8.09 13.56,-16.02 V 95.49 c 0.00,-2.82 0.73,-5.59 -2.13,-8.04 v 0.08 c 0.00,-6.28 -5.09,-11.38 -11.37,-11.38 h -21.84 c -2.96,0.00 -5.81,1.93 -7.92,4.00 H 79.36 c -2.12,-2.07 -4.96,-4.00 -7.92,-4.00 H 49.59 c -6.24,0.00 -11.31,5.04 -11.36,11.29 -1.46,2.49 -2.23,5.32 -2.23,8.20 v 60.55 c 0.00,7.34 4.92,13.77 12.00,15.69 z"/>
  <path style="fill:#3f8d35" d="M 96.90,16 H 95.10 C 69.09,16.00 48.00,37.23 48.00,63.43 v 12.72 c 0,2.13 1.71,3.85 3.82,3.85 h 10.16 c 2.11,0.00 2.01,-1.72 2.01,-3.85 v -13.51 C 64.00,46.24 79.01,32 95.30,32 h 1.44 C 113.03,32 128,46.24 128,62.64 v 13.51 c 0,2.13 0.06,3.85 2.06,3.85 h 10.16 c 2.09,0.02 3.78,-1.74 3.78,-3.85 V 63.43 C 144.00,37.24 122.92,16.00 96.90,16 Z"/>
  <path style="fill:#51a948" d="m 48.00,167.73 c 1.90,4.30 6.16,8.27 10.86,8.27 h 13.49 c 4.47,0.00 8.56,-4.01 10.58,-8.00 h 24.75 c 2.02,3.98 6.11,8.00 10.57,8.00 h 13.50 c 4.56,0.00 8.72,-3.82 10.69,-7.94 7.82,-1.31 13.55,-8.09 13.56,-16.02 V 91.49 c 0.00,-2.82 0.73,-5.59 -2.13,-8.04 v 0.08 c 0.00,-6.28 -5.09,-11.38 -11.37,-11.38 H 120.66 C 117.69,72.00 114.85,73.93 112.73,76 H 79.36 c -2.12,-2.07 -4.96,-4.00 -7.92,-4.00 H 49.59 c -6.24,0.00 -11.31,5.04 -11.36,11.29 -1.46,2.49 -2.23,5.32 -2.23,8.20 v 60.55 c 0.00,7.34 4.92,13.77 12.00,15.69 z"/>
  <path style="filter:url(#filter873);opacity:0.20" d="M 110.01,50.00 A 6,6 0 1 0 116,55.99 6,6 0 0 0 110.01,50.00 Z m -28.30,0.01 a 6.00,6.00 0 0 0 0.30,11.99 6.00,6.00 0 0 0 6,-6 6.00,6.00 0 0 0 -6.30,-5.99 z m 22.62,13.83 a 1.41,1.41 0 0 0 0.79,0.36 11.24,11.24 0 0 1 -15.05,0 1.40,1.40 0 0 0 -1.90,2.06 13.76,13.76 0 0 0 18.86,0 1.41,1.41 0 0 0 -1.12,-2.42 z"/>
  <path style="fill:#51a948" d="M 110.01,48 A 6,6 0 1 0 116,53.99 6,6 0 0 0 110.01,48 Z M 81.70,48.01 A 6.00,6.00 0 0 0 82.00,60 a 6.00,6.00 0 0 0 6,-6 6.00,6.00 0 0 0 -6.30,-5.99 z m 22.62,13.83 a 1.41,1.41 0 0 0 0.79,0.36 11.24,11.24 0 0 1 -15.05,0 1.40,1.40 0 0 0 -1.90,2.06 13.76,13.76 0 0 0 18.86,0 1.41,1.41 0 0 0 -1.12,-2.42 z"/>
  <path style="filter:url(#filter960);opacity:0.20" d="m 107.98,114.03 c 0.00,-9.06 -9.63,-14.86 -17.61,-10.61 -7.99,4.25 -8.59,15.49 -1.10,20.56 0.59,0.40 0.90,1.10 0.79,1.80 l -2.95,22.06 c 0.17,1.13 0.71,2.15 1.85,2.15 h 14.08 c 1.14,0.00 2.02,-1.02 1.85,-2.15 l -2.95,-22.06 c 0.10,0.71 0.21,-1.42 0.80,-1.82 3.29,-2.23 5.26,-5.96 5.26,-9.94"/>
  <path style="fill:#fefefe" d="m 107.98,112.03 c 0.00,-9.06 -9.63,-14.86 -17.61,-10.61 -7.99,4.25 -8.59,15.49 -1.10,20.56 0.59,0.40 0.90,1.10 0.79,1.80 l -2.95,22.06 c 0.17,1.13 0.71,2.15 1.85,2.15 h 14.08 c 1.14,0.00 2.02,-1.02 1.85,-2.15 l -2.95,-22.06 c 0.10,0.71 0.21,-1.42 0.80,-1.82 3.29,-2.23 5.26,-5.96 5.26,-9.94"/>
  <path style="opacity:0.10;fill:#ffffff" d="M 95.10 16 C 69.09 16.00 48.00 37.23 48 63.43 L 48 64.43 C 48.00 38.23 69.09 17.00 95.10 17 L 96.91 17 C 122.92 17.00 144.00 38.24 144 64.43 L 144 63.43 C 144.00 37.24 122.92 16.00 96.91 16 L 95.10 16 z "/>
  <path style="opacity:0.20;fill:#ffffff" d="M 49.59 72 C 43.35 72.00 38.28 77.04 38.23 83.29 C 36.77 85.78 36.00 88.61 36 91.49 L 36 92.49 C 36.00 89.61 36.77 86.78 38.23 84.29 C 38.28 78.04 43.35 73.00 49.59 73 L 71.44 73 C 74.40 73.00 77.24 74.93 79.36 77 L 112.73 77 C 114.85 74.93 117.70 73.00 120.66 73 L 142.50 73 C 148.78 73 153.87 78.09 153.87 84.38 L 153.87 84.46 C 155.27 86.90 156.00 89.67 156 92.49 L 156 91.49 C 156.00 88.67 155.27 85.90 153.87 83.46 L 153.87 83.38 C 153.87 77.09 148.78 72 142.50 72 L 120.66 72 C 117.70 72.00 114.85 73.93 112.73 76 L 79.36 76 C 77.24 73.93 74.40 72.00 71.44 72 L 49.59 72 z "/>
</svg>
