<?xml version='1.0' encoding='utf-8'?>
<svg xmlns="http://www.w3.org/2000/svg" width="192" height="192" version="1" id="svg28">
  <defs>
    <filter style="color-interpolation-filters:sRGB" id="filter6495" x="-0.048000001" y="-0.048000001" width="1.096" height="1.096">
      <feGaussianBlur stdDeviation="3.2"/>
    </filter>
    <filter style="color-interpolation-filters:sRGB" id="filter11173" x="-0.087941236" y="-0.1399132" width="1.1758825" height="1.2798264">
      <feGaussianBlur stdDeviation="3.4758546"/>
    </filter>
    <filter style="color-interpolation-filters:sRGB" id="filter11215" x="-0.11681288" y="-0.13943627" width="1.2336258" height="1.2788725">
      <feGaussianBlur stdDeviation="3.4807324"/>
    </filter>
  </defs>
  <rect transform="matrix(0,-1,-1,0,0,0)" ry="12" rx="12" y="-176" x="-180" height="160" width="160" style="filter:url(#filter6495);opacity:0.2;fill:#000000"/>
  <rect transform="matrix(0,-1,-1,0,0,0)" ry="12" rx="12" y="-176" x="-176" height="160" width="160" style="fill:#00abff"/>
  <path style="opacity:0.2;fill:#ffffff" d="m 28,16 c -6.648,0 -12,5.352 -12,12 v 1 c 0,-6.648 5.352,-12 12,-12 h 136 c 6.648,0 12,5.352 12,12 v -1 c 0,-6.648 -5.352,-12 -12,-12 z"/>
  <rect style="fill:#ececec" width="102" height="68" x="45" y="62" ry="6" rx="6"/>
  <rect style="fill:#0182ec" width="92" height="54" x="50" y="68" ry="2.9859409" rx="3.013344"/>
  <path style="filter:url(#filter11215);opacity:0.2;fill:#000000" d="M 147,72.292969 75.485985,108.24393 141,132 c 3.1249,1.13312 6,-2.676 6,-6 z"/>
  <path style="fill:#f7f7f7" d="M 147 70.292969 L 52.007812 130 L 141 130 C 144.324 130 147 127.324 147 124 L 147 70.292969 z "/>
  <path style="filter:url(#filter11173);opacity:0.2;fill:#000000" d="M 45,72.376953 V 126 c 0,3.324 2.676,6 6,6 h 88.85938 z"/>
  <path style="fill:#ffffff" d="M 45 70.376953 L 45 124 C 45 127.324 47.676 130 51 130 L 139.85938 130 L 45 70.376953 z "/>
</svg>
