<?xml version='1.0' encoding='utf-8'?>
<svg xmlns="http://www.w3.org/2000/svg" width="192" height="192" x="0" y="0" version="1.1" id="svg16">
  <defs>
    <filter style="color-interpolation-filters:sRGB" id="filter853" x="0.05" y="0.05" width="1.10" height="1.10">
      <feGaussianBlur stdDeviation="3.20"/>
    </filter>
    <filter style="color-interpolation-filters:sRGB" id="filter2779" x="0.06" y="0.04" width="1.13" height="1.08">
      <feGaussianBlur stdDeviation="1.52"/>
    </filter>
  </defs>
  <circle style="filter:url(#filter853);opacity:0.20" cx="96" cy="100" r="80"/>
  <circle style="fill:#e4e4e4" cx="96" cy="96" r="80"/>
  <path style="opacity:0.20;fill:#ffffff" d="M 96,16 A 80,80 0 0 0 16,96 80,80 0 0 0 16.03,96.48 80,80 0 0 1 96,17 80,80 0 0 1 175.98,96.24 80,80 0 0 0 176,96 80,80 0 0 0 96,16 Z"/>
  <path style="filter:url(#filter2779);opacity:0.20;fill:#000000" d="m 73,51 c -3.31,0 -6,2.69 -6,6 0.00,2.01 0,5 0,5 0,13.89 9.91,25.58 23,28.37 V 105.63 C 76.91,108.42 67,120.11 67,134 c 0,0 0.00,2.99 0,5 0,3.31 2.69,6 6,6 3.31,0 6,-2.69 6,-6 0.00,-2.01 0,-5 0,-5 0,-9.46 7.54,-17 17,-17 9.46,0 17,7.54 17,17 0,0 0.00,2.99 0,5 0,3.31 2.69,6 6,6 3.31,0 6,-2.69 6,-6 0.00,-2.01 0,-5 0,-5 0,-13.89 -9.91,-25.58 -23,-28.37 V 90.37 C 115.09,87.58 125,75.89 125,62 c 0,0 0.00,-2.99 0,-5 0,-3.31 -2.69,-6 -6,-6 -3.31,0 -6,2.69 -6,6 0.00,2.01 0,5 0,5 0,9.46 -7.54,17 -17,17 -9.46,0 -17,-7.54 -17,-17 0,0 0.00,-2.99 0,-5 0,-3.31 -2.69,-6 -6,-6 z m 23,70 a 12,12 0 0 0 -12,12 12,12 0 0 0 12,12 12,12 0 0 0 12,-12 12,12 0 0 0 -12,-12 z"/>
  <path style="fill:#00aeef" d="m 73,49 c -3.31,0 -6,2.69 -6,6 0.00,2.01 0,5 0,5 0,13.89 9.91,25.58 23,28.37 V 103.63 C 76.91,106.42 67,118.11 67,132 c 0,0 0.00,2.99 0,5 0,3.31 2.69,6 6,6 3.31,0 6,-2.69 6,-6 0.00,-2.01 0,-5 0,-5 0,-9.46 7.54,-17 17,-17 9.46,0 17,7.54 17,17 0,0 0.00,2.99 0,5 0,3.31 2.69,6 6,6 3.31,0 6,-2.69 6,-6 0.00,-2.01 0,-5 0,-5 0,-13.89 -9.91,-25.58 -23,-28.37 V 88.37 C 115.09,85.58 125,73.89 125,60 c 0,0 0.00,-2.99 0,-5 0,-3.31 -2.69,-6 -6,-6 -3.31,0 -6,2.69 -6,6 0.00,2.01 0,5 0,5 0,9.46 -7.54,17 -17,17 -9.46,0 -17,-7.54 -17,-17 0,0 0.00,-2.99 0,-5 0,-3.31 -2.69,-6 -6,-6 z m 23,70 a 12,12 0 0 0 -12,12 12,12 0 0 0 12,12 12,12 0 0 0 12,-12 12,12 0 0 0 -12,-12 z"/>
</svg>
