<?xml version='1.0' encoding='utf-8'?>
<svg xmlns="http://www.w3.org/2000/svg" width="192" height="192" version="1" id="svg28">
  <defs>
    <filter style="color-interpolation-filters:sRGB" id="filter21861" x="0.05" y="0.08" width="1.11" height="1.15">
      <feGaussianBlur stdDeviation="2.71"/>
    </filter>
    <filter style="color-interpolation-filters:sRGB" id="filter21865" x="0.05" y="0.08" width="1.11" height="1.15">
      <feGaussianBlur stdDeviation="2.71"/>
    </filter>
    <filter style="color-interpolation-filters:sRGB" id="filter21869" x="0.05" y="0.08" width="1.11" height="1.15">
      <feGaussianBlur stdDeviation="2.71"/>
    </filter>
    <filter style="color-interpolation-filters:sRGB" id="filter21873" x="0.05" y="0.08" width="1.11" height="1.15">
      <feGaussianBlur stdDeviation="2.71"/>
    </filter>
    <filter style="color-interpolation-filters:sRGB" id="filter21877" x="0.05" y="0.08" width="1.11" height="1.15">
      <feGaussianBlur stdDeviation="2.71"/>
    </filter>
  </defs>
  <path style="filter:url(#filter21877);opacity:0.20;fill:#000000;color:#000000" d="m 116.00,74.00 a 17.00,17.00 0 0 0 -15.45,9.89 L 93.71,98.79 87.67,84.42 A 17,17 0 0 0 65.42,75.33 17,17 0 0 0 56.32,97.58 l 21,50.00 a 17.00,17.00 0 0 0 31.12,0.52 l 7.55,-16.42 7.55,16.42 a 17.00,17.00 0 0 0 31.23,0.79 l 20,-50.00 a 17,17 0 0 0 -9.47,-22.10 17,17 0 0 0 -22.10,9.47 l -5.31,13.27 -6.46,-14.05 a 17.00,17.00 0 0 0 -15.45,-9.89 z"/>
  <path style="fill:#3f51b5;color:#000000" d="m 116.00,72.00 a 17.00,17.00 0 0 0 -15.45,9.89 L 93.71,96.79 87.67,82.42 A 17,17 0 0 0 65.42,73.33 17,17 0 0 0 56.32,95.58 l 21,50.00 a 17.00,17.00 0 0 0 31.12,0.52 l 7.55,-16.42 7.55,16.42 a 17.00,17.00 0 0 0 31.23,0.79 l 20,-50.00 a 17,17 0 0 0 -9.47,-22.10 17,17 0 0 0 -22.10,9.47 l -5.31,13.27 -6.46,-14.05 a 17.00,17.00 0 0 0 -15.45,-9.89 z"/>
  <path style="filter:url(#filter21873);opacity:0.20;fill:#000000;color:#000000" d="M 106.00,65.00 A 17.00,17.00 0 0 0 90.55,74.90 L 83.71,89.78 77.67,75.42 A 17,17 0 0 0 55.42,66.33 17,17 0 0 0 46.32,88.58 l 21,50.00 a 17.00,17.00 0 0 0 31.12,0.52 l 7.55,-16.42 7.55,16.42 a 17.00,17.00 0 0 0 31.23,0.79 l 20,-50.00 a 17,17 0 0 0 -9.47,-22.10 17,17 0 0 0 -22.10,9.47 l -5.31,13.27 -6.46,-14.05 a 17.00,17.00 0 0 0 -15.45,-9.89 z"/>
  <path style="fill:#4caf50;color:#000000" d="M 106.00,63.00 A 17.00,17.00 0 0 0 90.55,72.90 L 83.71,87.78 77.67,73.42 A 17,17 0 0 0 55.42,64.33 17,17 0 0 0 46.32,86.58 l 21,50.00 a 17.00,17.00 0 0 0 31.12,0.52 l 7.55,-16.42 7.55,16.42 a 17.00,17.00 0 0 0 31.23,0.79 l 20,-50.00 a 17,17 0 0 0 -9.47,-22.10 17,17 0 0 0 -22.10,9.47 l -5.31,13.27 -6.46,-14.05 a 17.00,17.00 0 0 0 -15.45,-9.89 z"/>
  <path style="filter:url(#filter21869);opacity:0.20;fill:#000000;color:#000000" d="M 96.00,56.00 A 17.00,17.00 0 0 0 80.55,65.89 L 73.71,80.78 67.67,66.42 A 17,17 0 0 0 45.42,57.32 17,17 0 0 0 36.33,79.58 l 21,50.00 a 17.00,17.00 0 0 0 31.12,0.52 l 7.55,-16.42 7.55,16.42 a 17.00,17.00 0 0 0 31.23,0.79 l 20,-50.00 a 17,17 0 0 0 -9.47,-22.10 17,17 0 0 0 -22.10,9.47 l -5.31,13.27 -6.46,-14.05 A 17.00,17.00 0 0 0 96.00,56.00 Z"/>
  <path style="fill:#ff9800;color:#000000" d="M 96.00,54.00 A 17.00,17.00 0 0 0 80.55,63.89 L 73.71,78.78 67.67,64.42 A 17,17 0 0 0 45.42,55.32 17,17 0 0 0 36.33,77.58 l 21,50.00 a 17.00,17.00 0 0 0 31.12,0.52 l 7.55,-16.42 7.55,16.42 a 17.00,17.00 0 0 0 31.23,0.79 l 20,-50.00 a 17,17 0 0 0 -9.47,-22.10 17,17 0 0 0 -22.10,9.47 l -5.31,13.27 -6.46,-14.05 A 17.00,17.00 0 0 0 96.00,54.00 Z"/>
  <path style="filter:url(#filter21865);opacity:0.20;fill:#000000;color:#000000" d="M 86.00,47.00 A 17.00,17.00 0 0 0 70.55,56.89 L 63.71,71.78 57.67,57.41 A 17,17 0 0 0 35.42,48.32 17,17 0 0 0 26.33,70.58 l 21,50.00 a 17.00,17.00 0 0 0 31.12,0.52 l 7.55,-16.42 7.55,16.42 a 17.00,17.00 0 0 0 31.23,0.79 l 20,-50.00 a 17,17 0 0 0 -9.47,-22.10 17,17 0 0 0 -22.10,9.47 l -5.31,13.27 -6.46,-14.05 A 17.00,17.00 0 0 0 86.00,47.00 Z"/>
  <path style="fill:#f44336;color:#000000" d="M 86.00,45.00 A 17.00,17.00 0 0 0 70.55,54.89 L 63.71,69.78 57.67,55.41 A 17,17 0 0 0 35.42,46.32 17,17 0 0 0 26.33,68.58 l 21,50.00 a 17.00,17.00 0 0 0 31.12,0.52 l 7.55,-16.42 7.55,16.42 a 17.00,17.00 0 0 0 31.23,0.79 l 20,-50.00 a 17,17 0 0 0 -9.47,-22.10 17,17 0 0 0 -22.10,9.47 l -5.31,13.27 -6.46,-14.05 A 17.00,17.00 0 0 0 86.00,45.00 Z"/>
  <path style="filter:url(#filter21861);opacity:0.20;fill:#000000;color:#000000" d="M 76.00,38.00 A 17.00,17.00 0 0 0 60.55,47.89 L 53.71,62.78 47.67,48.41 A 17,17 0 0 0 25.42,39.32 17,17 0 0 0 16.33,61.58 l 21,50.00 a 17.00,17.00 0 0 0 31.12,0.52 l 7.55,-16.42 7.55,16.42 a 17.00,17.00 0 0 0 31.23,0.79 l 20,-50.00 a 17,17 0 0 0 -9.47,-22.10 17,17 0 0 0 -22.10,9.47 L 97.91,61.94 91.45,47.89 A 17.00,17.00 0 0 0 76.00,38.00 Z"/>
  <path style="fill:#e4e4e4;color:#000000" d="M 76.00,36.00 A 17.00,17.00 0 0 0 60.55,45.89 L 53.71,60.78 47.67,46.41 A 17,17 0 0 0 25.42,37.32 17,17 0 0 0 16.33,59.58 l 21,50.00 a 17.00,17.00 0 0 0 31.12,0.52 l 7.55,-16.42 7.55,16.42 a 17.00,17.00 0 0 0 31.23,0.79 l 20,-50.00 a 17,17 0 0 0 -9.47,-22.10 17,17 0 0 0 -22.10,9.47 L 97.91,59.94 91.45,45.89 A 17.00,17.00 0 0 0 76.00,36.00 Z"/>
</svg>
