<?xml version='1.0' encoding='utf-8'?>
<svg xmlns="http://www.w3.org/2000/svg" width="192" height="192" version="1" id="svg12">
  <defs>
    <filter style="color-interpolation-filters:sRGB" id="filter955" x="0.05" width="1.10" y="0.05" height="1.10">
      <feGaussianBlur stdDeviation="3.20"/>
    </filter>
    <filter style="color-interpolation-filters:sRGB" id="filter11721" x="0.09" y="0.07" width="1.17" height="1.13">
      <feGaussianBlur stdDeviation="2.63"/>
    </filter>
  </defs>
  <rect style="filter:url(#filter955);opacity:0.20;fill:#000000" width="160" height="160" x="16" y="20" rx="30" ry="30"/>
  <rect style="fill:#3f3f3f" width="160" height="160" x="16" y="16" rx="30" ry="30"/>
  <path style="filter:url(#filter11721);opacity:0.20;fill:#000000" d="m 106.25,51 -1.88,3 H 101.25 l -1.88,3 H 97.16 L 89.00,70 H 115.04 L 96.76,98 h 11.61 l -28.32,39.34 -1.10,1.38 0.03,0.23 L 91.68,108 h -12.88 l 3.16,-8 H 66.53 c -2.04,0 -3.10,0.39 -3.37,2.89 0.00,0.04 0.01,0.10 0.01,0.14 -2.67,0.18 -3.79,1.41 -4.04,3.35 0.25,2.47 0.00,6.47 0,8.62 0,14.70 14.82,26.99 29.84,30.19 C 91.22,145.71 93.57,146 96,146 c 0.06,0 0.11,0.00 0.17,0.00 0.06,0.00 0.11,0.00 0.17,0.00 1.78,0 3.45,0.16 5.01,0.45 C 119.08,143.88 132,128.19 132,112 V 55.53 C 132,53.78 131.03,51 127.05,51 Z"/>
  <path style="opacity:0.10;fill:#ffffff" d="M 46 16 C 29.38 16 16 29.38 16 46 L 16 47 C 16 30.38 29.38 17 46 17 L 146 17 C 162.62 17 176 30.38 176 47 L 176 46 C 176 29.38 162.62 16 146 16 L 46 16 z "/>
  <path style="fill:#e8157c" d="M 98.09,62.00 H 124.12 l -17.19,28 h 11.58 L 78.82,136.90 91.68,106 H 78.80 l 3.17,-8.00 h -15.43 c -2.04,0 -3.10,0.39 -3.37,2.89 C 62.87,103.53 62.50,107.41 62.50,110 c 0,17.12 18.62,33.71 35.74,33.71 C 117.55,143.71 132,127.12 132,110 V 53.53 c 0,-1.75 0.97,-4.53 -4.95,-4.53 h -20.80 z"/>
  <path style="fill:#26b6ea" d="M 89.00,68 H 115.03 L 96.76,96 H 108.37 L 78.93,136.90 82.79,109 H 69.91 l 3.17,-8 H 63.81 c -3.18,0 -4.44,1.29 -4.70,3.38 0.25,2.47 0.00,6.47 0,8.62 0,17.12 20.11,31 37.23,31 17.12,0 24.19,-13.89 24.77,-31 l 1.80,-53.47 C 122.91,57.78 121.95,55 117.96,55 H 97.17 Z"/>
  <path style="fill:#ffffff" d="M 93.09,65 H 119.12 l -17.19,28 h 11.58 L 78.82,136.90 88.68,109 H 75.80 l 3.17,-8 H 66 c 0,0 0.99,7.73 -1,12 0,17.12 13.88,31 31,31 17.12,0 31,-13.88 31,-31 V 56.53 C 127,54.78 126.03,52 122.05,52 h -20.80 z"/>
</svg>
