<?xml version='1.0' encoding='utf-8'?>
<svg xmlns="http://www.w3.org/2000/svg" width="192" height="192" version="1" id="svg14">
  <defs>
    <filter style="color-interpolation-filters:sRGB" id="filter853" x="0.05" width="1.10" y="0.05" height="1.10">
      <feGaussianBlur stdDeviation="3.20"/>
    </filter>
    <filter style="color-interpolation-filters:sRGB" id="filter873" x="0.04" width="1.08" y="0.06" height="1.13">
      <feGaussianBlur stdDeviation="1.84"/>
    </filter>
  </defs>
  <rect width="160" height="160" x="-180" y="-176" rx="8" ry="8" transform="matrix(0,-1,-1,0,0,0)" style="filter:url(#filter853);opacity:0.20;fill:#000000"/>
  <rect style="fill:#2787f5" transform="matrix(0,-1,-1,0,0,0)" ry="8" rx="8" y="-176" x="-176" height="160" width="160"/>
  <path style="opacity:0.20;fill:#ffffff" d="M 24 16 C 19.57 16 16 19.57 16 24 L 16 25 C 16 20.57 19.57 17 24 17 L 168 17 C 172.43 17 176 20.57 176 25 L 176 24 C 176 19.57 172.43 16 168 16 L 24 16 z "/>
  <path style="filter:url(#filter873);opacity:0.20;fill-rule:evenodd" d="m 92.76,135.72 h 6.93 c 0,0 2.09,0.24 3.16,-1.42 0.98,-1.09 0.95,-3.13 0.95,-3.13 0,0 0.14,-9.56 4.18,-10.97 4.26,-1.39 9.72,9.24 15.52,13.33 4.38,3.09 7.71,2.41 7.71,2.41 l 15.49,0.22 c 0,0 8.10,0.51 4.26,-7.06 0.31,0.53 -2.24,-4.84 -11.52,-13.69 -9.71,-9.26 -8.41,-7.77 3.29,-23.79 7.13,-9.76 9.97,-15.72 9.08,-18.27 0.85,-2.43 -6.09,-1.79 -6.09,-1.79 l -17.44,0.11 c 0,0 -1.29,0.18 -2.25,0.41 0.94,0.58 -1.54,1.92 -1.54,1.92 0,0 -2.76,7.55 -6.44,13.97 -7.77,13.55 -10.87,14.27 -12.14,13.43 -2.95,-1.96 -2.22,-7.88 -2.22,-12.08 0,-13.13 1.94,-18.61 -3.78,-20.03 -1.90,0.47 -3.29,0.78 -8.14,0.83 -6.22,0.07 -11.49,0.02 -14.47,1.52 -1.98,1.00 -3.52,3.22 -2.58,3.35 1.15,0.16 3.76,0.72 5.15,2.66 1.79,2.50 1.73,8.11 1.73,8.11 0,0 1.03,15.46 -2.40,17.38 -2.35,1.32 -5.58,-1.37 -12.50,-13.67 -3.55,-6.30 -6.23,-13.26 -6.23,-13.26 0,0 0.52,-1.30 -1.44,-2.00 -1.12,0.84 -2.68,-1.11 -2.68,-1.11 l -16.58,0.11 c 0,0 -2.49,0.07 -3.40,1.18 0.81,0.99 0.07,3.03 0.07,3.03 0,0 12.98,31.19 27.67,46.92 13.47,14.42 28.77,13.47 28.77,13.47"/>
  <path style="fill:#ffffff;fill-rule:evenodd" d="m 92.76,131.72 h 6.93 c 0,0 2.09,0.24 3.16,-1.42 0.98,-1.09 0.95,-3.13 0.95,-3.13 0,0 0.14,-9.56 4.18,-10.97 4.26,-1.39 9.72,9.24 15.52,13.33 4.38,3.09 7.71,2.41 7.71,2.41 l 15.49,0.22 c 0,0 8.10,0.51 4.26,-7.06 0.31,0.53 -2.24,-4.84 -11.52,-13.69 -9.71,-9.26 -8.41,-7.77 3.29,-23.79 7.13,-9.76 9.97,-15.72 9.08,-18.27 0.85,-2.43 -6.09,-1.79 -6.09,-1.79 l -17.44,0.11 c 0,0 -1.29,0.18 -2.25,0.41 0.94,0.58 -1.54,1.92 -1.54,1.92 0,0 -2.76,7.55 -6.44,13.97 -7.77,13.55 -10.87,14.27 -12.14,13.43 -2.95,-1.96 -2.22,-7.88 -2.22,-12.08 0,-13.13 1.94,-18.61 -3.78,-20.03 -1.90,0.47 -3.29,0.78 -8.14,0.83 -6.22,0.07 -11.49,0.02 -14.47,1.52 -1.98,1.00 -3.52,3.22 -2.58,3.35 1.15,0.16 3.76,0.72 5.15,2.66 1.79,2.50 1.73,8.11 1.73,8.11 0,0 1.03,15.46 -2.40,17.38 -2.35,1.32 -5.58,-1.37 -12.50,-13.67 -3.55,-6.30 -6.23,-13.26 -6.23,-13.26 0,0 0.52,-1.30 -1.44,-2.00 -1.12,0.84 -2.68,-1.11 -2.68,-1.11 l -16.58,0.11 c 0,0 -2.49,0.07 -3.40,1.18 0.81,0.99 0.07,3.03 0.07,3.03 0,0 12.98,31.19 27.67,46.92 13.47,14.42 28.77,13.47 28.77,13.47"/>
</svg>
