<?xml version='1.0' encoding='utf-8'?>
<svg xmlns="http://www.w3.org/2000/svg" width="192" height="192" version="1" id="svg12">
  <defs>
    <filter style="color-interpolation-filters:sRGB" id="filter955" x="-0.048000001" width="1.096" y="-0.048000001" height="1.096">
      <feGaussianBlur stdDeviation="3.2"/>
    </filter>
    <filter style="color-interpolation-filters:sRGB" id="filter4350" x="-0.057521186" y="-0.1077381" width="1.1150424" height="1.2154762">
      <feGaussianBlur stdDeviation="2.828125"/>
    </filter>
  </defs>
  <rect style="filter:url(#filter955);opacity:0.2;fill:#000000" width="160" height="160" x="16" y="20" rx="30" ry="30"/>
  <rect style="fill:#006ab4" width="160" height="160" x="16" y="16" rx="30" ry="30"/>
  <path style="filter:url(#filter4350);opacity:0.2;fill:#000000;color:#000000" d="m 77,66 a 4,4 0 0 0 -4,4 4,4 0 0 0 4,4 h 18 a 4,4 0 0 0 4,-4 4,4 0 0 0 -4,-4 z m 57,0 a 4,4 0 0 0 -4,4 4,4 0 0 0 4,4 h 17 a 4,4 0 0 0 4,-4 4,4 0 0 0 -4,-4 z M 41,77 a 4,4 0 0 0 -4,4 4,4 0 0 0 4,4 h 54 a 4,4 0 0 0 4,-4 4,4 0 0 0 -4,-4 z m 85,0 a 4,4 0 0 0 -4,4 4,4 0 0 0 4,4 h 17 a 4,4 0 0 0 4,-4 4,4 0 0 0 -4,-4 z M 59,88 a 4,4 0 0 0 -4,4 4,4 0 0 0 4,4 h 6 a 4,4 0 0 0 4,-4 4,4 0 0 0 -4,-4 z m 18,0 a 4,4 0 0 0 -4,4 4,4 0 0 0 4,4 h 18 a 4,4 0 0 0 4,-4 4,4 0 0 0 -4,-4 z m 38,0 a 4,4 0 0 0 -4,4 4,4 0 0 0 4,4 h 17 a 4,4 0 0 0 4,-4 4,4 0 0 0 -4,-4 z M 77,99 a 4,4 0 0 0 -4,4 4,4 0 0 0 4,4 h 18 a 4,4 0 0 0 4,-4 4,4 0 0 0 -4,-4 z m 29,0 a 4,4 0 0 0 -4,4 4,4 0 0 0 4,4 h 17 a 4,4 0 0 0 4,-4 4,4 0 0 0 -4,-4 z m -47,11 a 4,4 0 0 0 -4,4 4,4 0 0 0 4,4 h 6 a 4,4 0 0 0 4,-4 4,4 0 0 0 -4,-4 z m 18,0 a 4,4 0 0 0 -4,4 4,4 0 0 0 4,4 h 38 a 4,4 0 0 0 4,-4 4,4 0 0 0 -4,-4 z m -36,11 a 4,4 0 0 0 -4,4 4,4 0 0 0 4,4 h 6 a 4,4 0 0 0 4,-4 4,4 0 0 0 -4,-4 z m 18,0 a 4,4 0 0 0 -4,4 4,4 0 0 0 4,4 h 47 a 4,4 0 0 0 4,-4 4,4 0 0 0 -4,-4 z"/>
  <path style="opacity:0.1;fill:#ffffff" d="M 46 16 C 29.38 16 16 29.38 16 46 L 16 47 C 16 30.38 29.38 17 46 17 L 146 17 C 162.62 17 176 30.38 176 47 L 176 46 C 176 29.38 162.62 16 146 16 L 46 16 z "/>
  <path style="fill:#ffffff;color:#000000" d="M 77 64 A 4 4 0 0 0 73 68 A 4 4 0 0 0 77 72 L 95 72 A 4 4 0 0 0 99 68 A 4 4 0 0 0 95 64 L 77 64 z M 134 64 A 4 4 0 0 0 130 68 A 4 4 0 0 0 134 72 L 151 72 A 4 4 0 0 0 155 68 A 4 4 0 0 0 151 64 L 134 64 z M 41 75 A 4 4 0 0 0 37 79 A 4 4 0 0 0 41 83 L 95 83 A 4 4 0 0 0 99 79 A 4 4 0 0 0 95 75 L 41 75 z M 126 75 A 4 4 0 0 0 122 79 A 4 4 0 0 0 126 83 L 143 83 A 4 4 0 0 0 147 79 A 4 4 0 0 0 143 75 L 126 75 z M 77 86 A 4 4 0 0 0 73 90 A 4 4 0 0 0 77 94 L 95 94 A 4 4 0 0 0 99 90 A 4 4 0 0 0 95 86 L 77 86 z M 115 86 A 4 4 0 0 0 111 90 A 4 4 0 0 0 115 94 L 132 94 A 4 4 0 0 0 136 90 A 4 4 0 0 0 132 86 L 115 86 z M 77 97 A 4 4 0 0 0 73 101 A 4 4 0 0 0 77 105 L 95 105 A 4 4 0 0 0 99 101 A 4 4 0 0 0 95 97 L 77 97 z M 106 97 A 4 4 0 0 0 102 101 A 4 4 0 0 0 106 105 L 123 105 A 4 4 0 0 0 127 101 A 4 4 0 0 0 123 97 L 106 97 z M 77 108 A 4 4 0 0 0 73 112 A 4 4 0 0 0 77 116 L 115 116 A 4 4 0 0 0 119 112 A 4 4 0 0 0 115 108 L 77 108 z "/>
  <path style="fill:#28e7ff;color:#000000" d="M 59 86 A 4 4 0 0 0 55 90 A 4 4 0 0 0 59 94 L 65 94 A 4 4 0 0 0 69 90 A 4 4 0 0 0 65 86 L 59 86 z M 59 108 A 4 4 0 0 0 55 112 A 4 4 0 0 0 59 116 L 65 116 A 4 4 0 0 0 69 112 A 4 4 0 0 0 65 108 L 59 108 z M 41 119 A 4 4 0 0 0 37 123 A 4 4 0 0 0 41 127 L 47 127 A 4 4 0 0 0 51 123 A 4 4 0 0 0 47 119 L 41 119 z M 59 119 A 4 4 0 0 0 55 123 A 4 4 0 0 0 59 127 L 106 127 A 4 4 0 0 0 110 123 A 4 4 0 0 0 106 119 L 59 119 z "/>
</svg>
