<?xml version='1.0' encoding='utf-8'?>
<svg xmlns="http://www.w3.org/2000/svg" width="192" height="192" version="1" id="svg18">
  <defs>
    <filter style="color-interpolation-filters:sRGB" id="filter859" x="0.05" width="1.10" y="0.05" height="1.10">
      <feGaussianBlur stdDeviation="3.20"/>
    </filter>
    <filter style="color-interpolation-filters:sRGB" id="filter875" x="0.05" width="1.10" y="0.05" height="1.10">
      <feGaussianBlur stdDeviation="1.76"/>
    </filter>
    <filter style="color-interpolation-filters:sRGB" id="filter891" x="0.02" width="1.05" y="0.03" height="1.05">
      <feGaussianBlur stdDeviation="1.36"/>
    </filter>
  </defs>
  <rect style="filter:url(#filter859);opacity:0.20;fill:#000000" width="160" height="160" x="-180" y="-176" rx="8" ry="8" transform="matrix(0,-1,-1,0,0,-4.00)"/>
  <rect transform="matrix(0,-1,-1,0,0,0)" ry="8" rx="8" y="-176" x="-172" height="160" width="160" style="fill:#0ab1c3"/>
  <path style="opacity:0.10;fill:#ffffff" d="M 24 36 L 24 37 L 40 37 L 40 36 L 24 36 z M 152 36 L 152 37 L 168 37 L 168 36 L 152 36 z M 24 68 L 24 69 L 40 69 L 40 68 L 24 68 z M 152 68 L 152 69 L 168 69 L 168 68 L 152 68 z M 56 84 L 56 85 L 136 85 L 136 84 L 56 84 z M 24 100 L 24 101 L 40 101 L 40 100 L 24 100 z M 152 100 L 152 101 L 168 101 L 168 100 L 152 100 z M 24 132 L 24 133 L 40 133 L 40 132 L 24 132 z M 152 132 L 152 133 L 168 133 L 168 132 L 152 132 z M 56 156 L 56 157 L 136 157 L 136 156 L 56 156 z M 24 164 L 24 165 L 40 165 L 40 164 L 24 164 z M 152 164 L 152 165 L 168 165 L 168 164 L 152 164 z "/>
  <path style="opacity:0.10;fill:#ffffff" d="M 24 12 C 19.57 12 16 15.57 16 20 L 16 21 C 16 16.57 19.57 13 24 13 L 168 13 C 172.43 13 176 16.57 176 21 L 176 20 C 176 15.57 172.43 12 168 12 L 24 12 z "/>
  <path d="m 24,20.00 v 16 h 16 v -16 z m 128,0 v 16 h 16 v -16 z m -96,8 v 56 h 80 v -56 z m -32,24 v 16 h 16 v -16 z m 128,0 v 16 h 16 v -16 z m -128,32 V 100 H 40 V 84.00 Z m 128,0 V 100 h 16 V 84.00 Z M 56,100 v 56 h 80 v -56 z m -32,16 v 16 h 16 v -16 z m 128,0 v 16 h 16 V 116 Z M 24,148 v 16 h 16 v -16 z m 128,0 v 16 h 16 v -16 z" style="opacity:0.40"/>
  <path style="filter:url(#filter891);opacity:0.20;fill:#000000" d="M 24 20 L 24 21 L 40 21 L 40 20 L 24 20 z M 152 20 L 152 21 L 168 21 L 168 20 L 152 20 z M 56 28 L 56 29 L 136 29 L 136 28 L 56 28 z M 24 52 L 24 53 L 40 53 L 40 52 L 24 52 z M 152 52 L 152 53 L 168 53 L 168 52 L 152 52 z M 24 84 L 24 85 L 40 85 L 40 84 L 24 84 z M 152 84 L 152 85 L 168 85 L 168 84 L 152 84 z M 56 100 L 56 101 L 136 101 L 136 100 L 56 100 z M 24 116 L 24 117 L 40 117 L 40 116 L 24 116 z M 152 116 L 152 117 L 168 117 L 168 116 L 152 116 z M 24 148 L 24 149 L 40 149 L 40 148 L 24 148 z M 152 148 L 152 149 L 168 149 L 168 148 L 152 148 z "/>
  <circle r="44" cy="144" cx="144" style="filter:url(#filter875);opacity:0.20"/>
  <circle r="44" cy="140" cx="144" style="fill:#4caf2f"/>
  <path d="m 133,117 v 8 20.02 c -1.73,-1.30 -3.83,-2.01 -6,-2.02 -5.52,0 -10,4.48 -10,10 0,5.52 4.48,10 10,10 4.75,0.00 8.85,-3.34 9.80,-8 L 137,153 v 0 -28 h 26 v 20.02 c -1.73,-1.30 -3.83,-2.01 -6,-2.02 -5.52,0 -10,4.48 -10,10 0,5.52 4.48,10 10,10 4.75,0.00 8.85,-3.34 9.80,-8 L 167,153 v -36 z" style="fill:#ffffff;fill-rule:evenodd"/>
</svg>
