<?xml version='1.0' encoding='utf-8'?>
<svg xmlns="http://www.w3.org/2000/svg" width="192" height="192" version="1" id="svg14">
  <defs>
    <filter style="color-interpolation-filters:sRGB" id="filter849" x="0.05" y="0.05" width="1.10" height="1.10">
      <feGaussianBlur stdDeviation="3.36"/>
    </filter>
    <filter style="color-interpolation-filters:sRGB" id="filter853" x="0.04" y="0.05" width="1.09" height="1.11">
      <feGaussianBlur stdDeviation="2.84"/>
    </filter>
  </defs>
  <path style="filter:url(#filter849);opacity:0.20" d="m 96.00,16.00 c -4.40,0 -8.80,1.64 -12.09,4.93 L 16.93,87.91 c -6.58,6.58 -6.57,17.59 0.01,24.17 l 66.98,66.98 c 6.58,6.58 17.60,6.59 24.18,0.01 l 66.98,-66.98 c 6.58,-6.58 6.58,-17.60 0,-24.18 L 108.09,20.93 C 104.80,17.64 100.40,16.00 96.00,16.00 Z"/>
  <path style="fill:#159532" d="m 96.00,12.00 c -4.40,0 -8.80,1.64 -12.09,4.93 L 16.93,83.91 c -6.58,6.58 -6.57,17.59 0.01,24.17 l 66.98,66.98 c 6.58,6.58 17.60,6.59 24.18,0.01 l 66.98,-66.98 c 6.58,-6.58 6.58,-17.60 0,-24.18 L 108.09,16.93 c -3.29,-3.29 -7.70,-4.93 -12.10,-4.93 z"/>
  <path style="opacity:0.20;fill:#ffffff" d="M 96 12 C 91.60 12 87.20 13.64 83.91 16.93 L 16.93 83.92 C 13.51 87.33 11.95 91.93 12.10 96.49 C 12.20 92.27 13.76 88.08 16.93 84.92 L 83.91 17.93 C 87.20 14.64 91.60 13 96 13 C 100.40 13 104.80 14.64 108.09 17.93 L 175.06 84.92 C 178.23 88.08 179.81 92.28 179.90 96.52 C 180.05 91.95 178.48 87.33 175.06 83.92 L 108.09 16.93 C 104.80 13.64 100.40 12 96 12 z "/>
  <path style="filter:url(#filter853);opacity:0.20" d="m 28.00,36.00 c -4.43,0 -8.00,3.57 -8.00,8.00 0,4.43 3.57,8.03 8.00,8.00 h 4.00 v 95.97 c 0.00,14.13 16.97,21.32 27.12,11.50 L 170.74,51.49 c 3.07,-1.12 5.26,-4.03 5.26,-7.49 0,-4.43 -3.57,-8.00 -8.00,-8.00 h -40.00 c -4.43,0 -8.00,3.57 -8.00,8.00 0,3.31 2.00,6.14 4.86,7.36 L 64.00,110.22 V 52.00 h 4.00 c 4.43,0 8.00,-3.57 8.00,-8.00 0,-4.43 -3.57,-8.00 -8.00,-8.00 z"/>
  <path style="fill:#e4e4e4" d="m 28.00,32.00 c -4.43,0 -8.00,3.57 -8.00,8.00 0,4.43 3.57,8.00 8.00,8.00 h 4.00 v 96.00 c 0.00,14.12 16.97,21.32 27.12,11.50 L 170.74,47.49 c 3.07,-1.12 5.26,-4.03 5.26,-7.49 0,-4.43 -3.57,-8.00 -8.00,-8.00 h -40.00 c -4.43,0 -8.00,3.57 -8.00,8.00 0,3.31 2.00,6.14 4.86,7.36 L 64.00,106.25 V 48.00 h 4.00 c 4.43,0 8.00,-3.57 8.00,-8.00 0,-4.43 -3.57,-8.00 -8.00,-8.00 z"/>
  <path style="opacity:0.20;fill:#ffffff" d="M 28 32 C 23.57 32 20 35.57 20 40 C 20 40.19 20.03 40.38 20.04 40.57 C 20.27 36.34 23.72 33 28 33 L 68 33 C 72.28 33 75.73 36.34 75.96 40.57 C 75.97 40.38 76 40.19 76 40 C 76 35.57 72.43 32 68 32 L 28 32 z M 128 32 C 123.57 32 120 35.57 120 40 C 120 40.18 120.03 40.36 120.05 40.54 C 120.29 36.33 123.73 33 128 33 L 168 33 C 172.29 33 175.73 36.35 175.96 40.58 C 175.97 40.39 176 40.20 176 40 C 176 35.57 172.43 32 168 32 L 128 32 z M 122.47 49.67 L 64 106.25 L 64 107.25 L 122.47 50.67 C 122.99 51.17 123.58 51.60 124.21 51.96 L 124.86 51.33 C 123.95 50.94 123.17 50.35 122.47 49.67 z "/>
</svg>
