<?xml version='1.0' encoding='utf-8'?>
<svg xmlns="http://www.w3.org/2000/svg" width="192" height="192" version="1" id="svg12">
  <defs>
    <filter style="color-interpolation-filters:sRGB" id="filter860" x="0.05" width="1.10" y="0.05" height="1.10">
      <feGaussianBlur stdDeviation="3.20"/>
    </filter>
    <filter style="color-interpolation-filters:sRGB" id="filter867" x="0.05" width="1.09" y="0.05" height="1.10">
      <feGaussianBlur stdDeviation="1.90"/>
    </filter>
  </defs>
  <rect style="filter:url(#filter860);opacity:0.20" width="160" height="160" x="16" y="20" rx="8" ry="8"/>
  <rect style="fill:#cc1d23" width="160" height="160" x="16" y="16" rx="8" ry="8"/>
  <path style="opacity:0.20;fill:#ffffff" d="m 24,16 c -4.43,0 -8,3.57 -8,8 v 1 c 0,-4.43 3.57,-8 8,-8 h 144 c 4.43,0 8,3.57 8,8 v -1 c 0,-4.43 -3.57,-8 -8,-8 z"/>
  <path d="M 74.06,52.11 A 54.27,54.27 0 0 0 72,66.73 54.27,54.27 0 0 0 126.27,121 54.27,54.27 0 0 0 145.15,117.57 71.64,71.64 0 0 1 74.06,52.11 Z M 50.51,61.23 A 66,66 0 0 0 48,79 a 66,66 0 0 0 66,66 66,66 0 0 0 22.96,-4.17 87.12,87.12 0 0 1 -86.45,-79.61 z" style="filter:url(#filter867);opacity:0.20;fill:#000000"/>
  <path style="fill:#ffffff" d="M 74.06,50.11 A 54.27,54.27 0 0 0 72,64.73 54.27,54.27 0 0 0 126.27,119 54.27,54.27 0 0 0 145.15,115.57 71.64,71.64 0 0 1 74.06,50.11 Z M 50.51,59.23 A 66,66 0 0 0 48,77 a 66,66 0 0 0 66,66 66,66 0 0 0 22.96,-4.17 87.12,87.12 0 0 1 -86.45,-79.61 z"/>
</svg>
