<?xml version='1.0' encoding='utf-8'?>
<svg xmlns="http://www.w3.org/2000/svg" width="192" height="192" version="1.1" id="svg14">
  <defs>
    <filter style="color-interpolation-filters:sRGB" id="filter967" x="0.05" y="0.05" width="1.10" height="1.10">
      <feGaussianBlur stdDeviation="3.20"/>
    </filter>
    <filter style="color-interpolation-filters:sRGB" id="filter1010" x="0.05" y="0.05" width="1.10" height="1.10">
      <feGaussianBlur stdDeviation="2.72"/>
    </filter>
  </defs>
  <path fill="#248afd" d="M 96,20 A 80,80 0 0 0 16,100 80,80 0 0 0 96,180 80,80 0 0 0 176,100 80,80 0 0 0 96,20 Z" style="filter:url(#filter967);opacity:0.20;fill:#000000"/>
  <path fill="#248afd" d="M 96,16 A 80,80 0 0 0 16,96 80,80 0 0 0 96,176 80,80 0 0 0 176,96 80,80 0 0 0 96,16 Z"/>
  <path style="opacity:0.20;fill:#ffffff" d="M 96.00 16 A 80 80 0 0 0 16 96 A 80 80 0 0 0 16.03 96.56 A 80 80 0 0 1 96.00 17 L 96 17 A 80 80 0 0 1 175.98 96.38 A 80 80 0 0 0 176.00 96 A 80 80 0 0 0 96 16 L 96.00 16 z "/>
  <path style="filter:url(#filter1010);opacity:0.20" d="M 96,30 A 68,68 0 0 0 28,98 68,68 0 0 0 96,166 68,68 0 0 0 164,98 68,68 0 0 0 96,30 Z m 0,4 a 64,64 0 0 1 46.41,19.98 C 140.67,53.99 138.94,54 138.80,54 c -6.35,0 -10.85,5.42 -10.85,11.36 0,5.32 3.08,8.23 6.35,13.55 2.46,4.30 5.33,9.83 5.33,17.82 0,5.53 -2.12,11.95 -4.91,20.89 l -6.45,21.54 -23.35,-69.06 c 3.89,0.20 8.99,0.22 8.99,0.22 3.48,0.41 3.08,-8.33 0.41,-8.12 0,0 -12.07,0.82 -18.83,0.82 -6.35,0 -19.82,0.82 -19.82,0.82 -3.48,0.21 -3.89,7.92 0.41,8.12 0,0 6.10,0.01 9.58,0.22 L 94.09,97.28 79.94,139.70 56.41,70.50 c 3.90,0.20 9.40,0.61 9.40,0.61 3.48,0.41 3.07,-7.93 0.41,-7.73 0,0 -12.47,0.82 -19.23,0.82 -1.06,0.00 -2.33,0.03 -3.64,0.07 A 64,64 0 0 1 96,34 Z m 55.87,32.93 A 64,64 0 0 1 160,98 64,64 0 0 1 129.69,152.36 l 18.54,-53.57 c 3.69,-9.22 3.71,-16.59 3.71,-23.15 0.20,-2.90 0.07,-5.81 0.07,-8.71 z M 38.05,71.01 c 0.52,1.28 -1.07,2.70 -1.07,2.70 l 29.59,81.06 c 1.92,0.99 3.88,1.89 5.89,2.68 2.01,0.79 4.05,1.49 6.13,2.08 l 18.55,-53.88 19.31,52.91 c 2.28,0.76 4.51,-1.66 6.69,-2.67 a 64,64 0 0 1 -6.69,2.67 A 64,64 0 0 1 96,162 64,64 0 0 1 78.59,159.52 64,64 0 0 1 72.46,157.45 64,64 0 0 1 66.57,154.77 64,64 0 0 1 32,98 64,64 0 0 1 38.05,71.01 Z m 88.44,83.19 a 64,64 0 0 1 -3.22,1.62 c 1.09,0.51 2.16,-1.05 3.22,-1.62 z"/>
  <path style="fill:#ffffff" d="M 146.04,51.95 C 145.76,51.93 139.08,52 138.80,52 c -6.35,0 -10.85,5.42 -10.85,11.36 0,5.32 3.08,8.23 6.35,13.55 2.46,4.30 5.33,9.83 5.33,17.82 0,5.53 -2.12,11.95 -4.91,20.89 l -6.45,21.54 -23.35,-69.06 c 3.89,0.20 8.99,0.22 8.99,0.22 3.48,0.41 3.08,-8.33 0.41,-8.12 0,0 -12.07,0.82 -18.83,0.82 -6.35,0 -19.82,0.82 -19.82,0.82 -3.48,0.21 -3.89,7.92 0.41,8.12 0,0 6.10,0.01 9.58,0.22 L 94.09,95.28 79.94,137.70 56.41,68.50 c 3.90,0.20 9.40,0.61 9.40,0.61 3.48,0.41 3.07,-7.93 0.41,-7.73 0,0 -12.47,0.82 -19.23,0.82 -1.06,0.00 -2.33,0.03 -3.64,0.07 -3.50,4.57 -5.55,10.79 -5.55,10.79 l 29.59,81.06 c 3.84,1.99 7.87,3.58 12.02,4.76 l 18.55,-53.88 19.31,52.91 c 4.63,-1.55 9.07,-3.63 13.23,-6.20 l 18.54,-53.57 c 3.69,-9.22 3.71,-16.59 3.71,-23.15 0.23,-3.25 0.02,-6.51 0.06,-9.77 z"/>
  <path style="fill:#ffffff" d="M 96,28 A 68,68 0 0 0 28,96 68,68 0 0 0 96,164 68,68 0 0 0 164,96 68,68 0 0 0 96,28 Z m 0,4 A 64,64 0 0 1 160,96 64,64 0 0 1 96,160 64,64 0 0 1 32,96 64,64 0 0 1 96,32 Z"/>
</svg>
