<?xml version='1.0' encoding='utf-8'?>
<svg xmlns="http://www.w3.org/2000/svg" width="192" height="192" version="1" id="svg12">
  <defs>
    <filter style="color-interpolation-filters:sRGB" id="filter858" x="0.05" width="1.10" y="0.05" height="1.10">
      <feGaussianBlur stdDeviation="3.20"/>
    </filter>
    <filter style="color-interpolation-filters:sRGB" id="filter866" x="0.02" width="1.05" y="0.02" height="1.05">
      <feGaussianBlur stdDeviation="1.36"/>
    </filter>
  </defs>
  <rect ry="8" rx="8" y="20" x="16" height="160" width="160" style="filter:url(#filter858);opacity:0.20;fill:#000000"/>
  <rect style="fill:#fadd00" width="160" height="160" x="16" y="16" rx="8" ry="8"/>
  <path style="filter:url(#filter866);opacity:0.10" d="M 28,30 V 42 H 40 V 30 Z m 16,0 V 42 H 56 V 30 Z m 16,0 V 42 H 72 V 30 Z m 16,0 V 42 H 88 V 30 Z m 16,0 v 12 h 12 V 30 Z m 16,0 v 12 h 12 V 30 Z m 28,0 v 12 h 12 V 30 Z m 16,0 v 12 h 12 V 30 Z M 28,46 V 58 H 40 V 46 Z m 16,0 V 58 H 56 V 46 Z m 16,0 V 58 H 72 V 46 Z m 16,0 V 58 H 88 V 46 Z m 16,0 v 12 h 12 V 46 Z m 16,0 v 12 h 12 V 46 Z m 28,0 v 12 h 12 V 46 Z m 16,0 v 12 h 12 V 46 Z m -16,16 v 12 h 12 V 62 Z m 16,0 v 12 h 12 V 62 Z M 28,74 V 86 H 40 V 74 Z m 16,0 V 86 H 56 V 74 Z m 92,4 v 12 h 12 V 78 Z m 16,0 v 12 h 12 V 78 Z M 28,90 v 12 H 40 V 90 Z m 16,0 v 12 H 56 V 90 Z m 92,4 v 12 h 12 V 94 Z m 16,0 v 12 h 12 V 94 Z M 28,106 v 12 h 12 v -12 z m 16,0 v 12 h 12 v -12 z m 92,4 v 12 h 12 v -12 z m 16,0 v 12 h 12 V 110 Z M 28,122 v 12 h 12 v -12 z m 16,0 v 12 h 12 v -12 z m -16,16 v 12 h 12 v -12 z m 16,0 v 12 h 12 v -12 z m 28,0 v 12 h 12 v -12 z m 16,0 v 12 h 12 v -12 z m 16,0 v 12 h 12 v -12 z m 16,0 v 12 h 12 v -12 z m 16,0 v 12 h 12 v -12 z m 16,0 v 12 h 12 V 138 Z M 28,154 v 12 h 12 v -12 z m 16,0 v 12 h 12 v -12 z m 28,0 v 12 h 12 v -12 z m 16,0 v 12 h 12 v -12 z m 16,0 v 12 h 12 v -12 z m 16,0 v 12 h 12 v -12 z m 16,0 v 12 h 12 v -12 z m 16,0 v 12 h 12 v -12 z"/>
  <path style="fill:#234fa7" d="M 28,28 V 40 H 40 V 28 Z m 16,0 V 40 H 56 V 28 Z m 16,0 V 40 H 72 V 28 Z m 16,0 V 40 H 88 V 28 Z m 16,0 v 12 h 12 V 28 Z m 16,0 v 12 h 12 V 28 Z m 28,0 v 12 h 12 V 28 Z m 16,0 v 12 h 12 V 28 Z M 28,44 V 56 H 40 V 44 Z m 16,0 V 56 H 56 V 44 Z m 16,0 V 56 H 72 V 44 Z m 16,0 V 56 H 88 V 44 Z m 16,0 v 12 h 12 V 44 Z m 16,0 v 12 h 12 V 44 Z m 28,0 v 12 h 12 V 44 Z m 16,0 v 12 h 12 V 44 Z m -16,16 v 12 h 12 V 60 Z m 16,0 v 12 h 12 V 60 Z M 28,72 V 84 H 40 V 72 Z m 16,0 V 84 H 56 V 72 Z m 92,4 v 12 h 12 V 76 Z m 16,0 v 12 h 12 V 76 Z M 28,88 v 12 H 40 V 88 Z m 16,0 v 12 H 56 V 88 Z m 92,4 v 12 h 12 V 92 Z m 16,0 v 12 h 12 V 92 Z M 28,104 v 12 h 12 v -12 z m 16,0 v 12 h 12 v -12 z m 92,4 v 12 h 12 v -12 z m 16,0 v 12 h 12 V 108 Z M 28,120 v 12 h 12 v -12 z m 16,0 v 12 h 12 v -12 z m -16,16 v 12 h 12 v -12 z m 16,0 v 12 h 12 v -12 z m 28,0 v 12 h 12 v -12 z m 16,0 v 12 h 12 v -12 z m 16,0 v 12 h 12 v -12 z m 16,0 v 12 h 12 v -12 z m 16,0 v 12 h 12 v -12 z m 16,0 v 12 h 12 V 136 Z M 28,152 v 12 h 12 v -12 z m 16,0 v 12 h 12 v -12 z m 28,0 v 12 h 12 v -12 z m 16,0 v 12 h 12 v -12 z m 16,0 v 12 h 12 v -12 z m 16,0 v 12 h 12 v -12 z m 16,0 v 12 h 12 v -12 z m 16,0 v 12 h 12 v -12 z"/>
  <path style="opacity:0.20;fill:#ffffff" d="M 24 16 C 19.57 16 16 19.57 16 24 L 16 25 C 16 20.57 19.57 17 24 17 L 168 17 C 172.43 17 176 20.57 176 25 L 176 24 C 176 19.57 172.43 16 168 16 L 24 16 z "/>
</svg>
