<?xml version='1.0' encoding='utf-8'?>
<svg xmlns="http://www.w3.org/2000/svg" width="192" height="192" version="1" id="svg12">
  <defs>
    <filter style="color-interpolation-filters:sRGB" id="filter955" x="0.05" width="1.10" y="0.05" height="1.10">
      <feGaussianBlur stdDeviation="3.20"/>
    </filter>
    <filter style="color-interpolation-filters:sRGB" id="filter4394" x="0.11" y="0.11" width="1.21" height="1.22">
      <feGaussianBlur stdDeviation="3.28"/>
    </filter>
    <filter style="color-interpolation-filters:sRGB" id="filter4398" x="0.11" y="0.11" width="1.22" height="1.22">
      <feGaussianBlur stdDeviation="3.55"/>
    </filter>
  </defs>
  <rect style="filter:url(#filter955);opacity:0.20;fill:#000000" width="160" height="160" x="16" y="20" rx="30" ry="30"/>
  <rect style="fill:#fc4670" width="160" height="160" x="16" y="16" rx="30" ry="30"/>
  <path style="filter:url(#filter4398);opacity:0.20;fill:#000000" d="m 98.23,50.76 c -2.35,-2.34 -6.13,-2.34 -8.48,0 l -23.83,23.77 53.49,53.34 23.83,-23.77 c 2.35,-2.34 2.35,-6.11 0,-8.46 l -7.60,-7.58 -9.40,4.34 4.22,-9.51 -6.55,-6.53 -6.79,3.86 3.13,-7.51 L 106.39,58.90 90.29,71.84 102.20,54.72 Z"/>
  <path style="opacity:0.20;fill:#ffffff" d="M 46 16 C 29.38 16 16 29.38 16 46 L 16 47 C 16 30.38 29.38 17 46 17 L 146 17 C 162.62 17 176 30.38 176 47 L 176 46 C 176 29.38 162.62 16 146 16 L 46 16 z "/>
  <path style="fill:#fea3b8" d="m 98.23,48.76 c -2.35,-2.34 -6.13,-2.34 -8.48,0 l -23.83,23.77 53.49,53.34 23.83,-23.77 c 2.35,-2.34 2.35,-6.11 0,-8.46 l -7.60,-7.58 -9.40,4.34 4.22,-9.51 -6.55,-6.53 -6.79,3.86 3.13,-7.51 -13.86,-13.82 -16.10,12.94 11.91,-17.12 z"/>
  <path style="filter:url(#filter4394);opacity:0.20;fill:#000000" d="m 65.91,74.52 -5.08,5.07 c -6.26,6.25 -6.26,16.31 0,22.55 l 9.02,9.00 -20.86,18.77 c -4.10,3.69 -3.90,10.20 0,14.10 3.90,3.89 10.44,4.09 14.13,0 l 18.82,-20.80 9.75,9.73 c 6.26,6.25 16.35,6.25 22.61,0 l 5.08,-5.07 z"/>
  <path style="fill:#ffffff" d="m 65.91,72.52 -5.08,5.07 c -6.26,6.25 -6.26,16.31 0,22.55 l 9.02,9.00 -20.86,18.77 c -4.10,3.69 -3.90,10.20 0,14.10 3.90,3.89 10.44,4.09 14.13,0 l 18.82,-20.80 9.75,9.73 c 6.26,6.25 16.35,6.25 22.61,0 l 5.08,-5.07 z"/>
  <path style="opacity:0.20;fill:#ffffff" d="M 93.99 47 C 92.45 47 90.92 47.59 89.75 48.76 L 65.91 72.52 L 66.42 73.02 L 89.75 49.76 C 92.10 47.42 95.88 47.42 98.23 49.76 L 101.79 53.31 L 102.20 52.72 L 98.23 48.76 C 97.05 47.59 95.52 47 93.99 47 z M 106.39 56.90 L 91.87 68.57 L 90.29 70.84 L 106.39 57.90 L 119.95 71.43 L 120.25 70.72 L 106.39 56.90 z M 123.91 74.37 L 117.66 77.91 L 117.12 79.22 L 123.91 75.37 L 130.15 81.59 L 130.46 80.90 L 123.91 74.37 z M 135.64 86.06 L 126.79 90.15 L 126.23 91.41 L 135.64 87.06 L 143.24 94.64 C 144.28 95.69 144.84 97.02 144.95 98.37 C 145.09 96.68 144.54 94.94 143.24 93.64 L 135.64 86.06 z "/>
</svg>
