<?xml version='1.0' encoding='utf-8'?>
<svg xmlns="http://www.w3.org/2000/svg" width="192" height="192" version="1" id="svg14">
  <defs>
    <filter style="color-interpolation-filters:sRGB" id="filter850" x="-0.048000001" width="1.096" y="-0.048000001" height="1.096">
      <feGaussianBlur stdDeviation="3.2"/>
    </filter>
    <filter style="color-interpolation-filters:sRGB" id="filter873" x="-0.05142857" width="1.1028571" y="-0.045" height="1.09">
      <feGaussianBlur stdDeviation="1.2000001"/>
    </filter>
  </defs>
  <rect style="filter:url(#filter850);opacity:0.2;fill:#000000" width="160" height="160" x="-180" y="-176" rx="80" ry="80" transform="matrix(0,-1,-1,0,0,0)"/>
  <rect transform="matrix(0,-1,-1,0,0,0)" ry="80" rx="80" y="-176" x="-176" height="160" width="160" style="fill:#4285f4"/>
  <path style="opacity:0.1;fill:#ffffff" d="M 95.998047 16 C 51.678955 16.001052 16 51.680653 16 96 C 16 96.115498 16.006172 96.228859 16.007812 96.34375 C 16.358829 52.329731 51.898462 17.001046 95.998047 17 L 96 17 C 140.10547 17.001047 175.64856 52.339122 175.99023 96.361328 C 175.99198 96.240601 175.99805 96.121307 175.99805 96 C 175.99805 51.680653 140.31909 16.001052 96 16 L 95.998047 16 z "/>
  <path d="M 79.070292,68.002028 A 6.904874,7.066546 0 0 0 72,75.064796 v 49.876864 a 6.904874,7.066546 0 0 0 10.35186,6.11482 l 21.11144,-12.45881 21.10148,-12.47963 a 6.904874,7.066546 0 0 0 0,-12.219208 L 103.4633,81.419196 82.35186,68.9604 a 6.904874,7.066546 0 0 0 -3.281568,-0.958372 z" style="filter:url(#filter873);opacity:0.1"/>
  <path d="M 79.070292,64.002028 A 6.904874,7.066546 0 0 0 72,71.064796 v 49.876864 a 6.904874,7.066546 0 0 0 10.35186,6.11482 l 21.11144,-12.45881 21.10148,-12.47963 a 6.904874,7.066546 0 0 0 0,-12.219208 L 103.4633,77.419196 82.35186,64.9604 a 6.904874,7.066546 0 0 0 -3.281568,-0.958372 z" style="fill:#ffffff"/>
</svg>
