<svg xmlns="http://www.w3.org/2000/svg" id="svg10" width="192" height="192" version="1"><defs><filter style="color-interpolation-filters:sRGB" id="filter1870" width="1.1" height="1.09" x=".05" y=".05"><feGaussianBlur stdDeviation="2.86"/></filter><filter style="color-interpolation-filters:sRGB" id="filter1915" width="1.14" height="1.16" x=".07" y=".08"><feGaussianBlur stdDeviation="3.84"/></filter><filter style="color-interpolation-filters:sRGB" id="filter1957" width="1.22" height="1.22" x=".11" y=".11"><feGaussianBlur stdDeviation="2.43"/></filter></defs><path style="fill:#ff8114;fill-opacity:1" d="M 19.09,50.47 C 14.46,62.90 14,76.72 14,90.07 v 5.53 c 0,15.20 0,30.85 5.09,45.13 4.33,12.04 12.29,14.85 22.00,12.54 1.23,0.32 2.43,0.60 3.47,-1.02 -3.24,-18.42 -4.69,-37.30 -4.69,-56.64 0,-19.34 2.62,-38.22 5.86,-56.64 L 43.18,38.56 C 40.62,38.08 38.54,38.03 36.23,38.03 28.36,37.57 22.34,41.72 19.09,50.47" mask="url(#e)"/><path style="filter:url(#filter1870);opacity:.2;fill:#000" d="M 45.07,43.19 C 41.85,62.15 40,81.11 40,101 c 0,19.89 1.85,38.85 5.07,57.81 C 46.92,168.53 55.22,175 64.45,175 c 2.31,0 4.15,0.46 6.46,0.93 17.99,-6.47 35.98,-14.80 53.05,-24.98 17.07,-9.71 33.68,-19.89 46.59,-33.30 10.61,-11.10 9.23,-21.27 0,-30.06 -13.84,-12.95 -30.45,-23.59 -47.52,-33.30 C 107.35,44.07 80.43,27.46 64.45,27 55.22,27 46.92,33.48 45.07,43.19" mask="url(#b)"/><path style="fill:#1292f6" d="M 45.07,39.19 C 41.85,58.15 40,77.11 40,97 c 0,19.89 1.85,38.85 5.07,57.81 C 46.92,164.53 55.22,171 64.45,171 c 2.31,0 4.15,0.46 6.46,0.93 17.99,-6.47 35.98,-14.80 53.05,-24.98 17.07,-9.71 33.68,-19.89 46.59,-33.30 10.61,-11.10 9.23,-21.27 0,-30.06 -13.84,-12.95 -30.45,-23.59 -47.52,-33.30 C 107.35,40.07 80.43,23.46 64.45,23 55.22,23 46.92,29.48 45.07,39.19" mask="url(#b)"/><path style="opacity:.2;fill:#fff" d="M 64.45 23 C 55.22 23 46.92 29.48 45.07 39.19 C 41.85 58.15 40 77.11 40 97 C 40 97.17 40.01 97.33 40.01 97.50 C 40.04 77.80 41.87 58.99 45.07 40.19 C 46.92 30.48 55.22 24 64.45 24 C 80.43 24.46 107.35 41.07 123.04 49.44 C 140.11 59.15 156.71 69.79 170.55 82.74 C 175.10 87.07 177.73 91.74 177.97 96.68 C 178.06 91.36 175.40 86.36 170.55 81.74 C 156.71 68.79 140.11 58.15 123.04 48.44 C 107.35 40.07 80.43 23.46 64.45 23 z" mask="url(#b)"/><path style="filter:url(#filter1915);opacity:.2;fill:#000;fill-opacity:1" d="M 45.40 40.90 C 42.32 58.71 39.87 76.94 39.87 95.60 C 39.87 114.94 41.32 133.81 44.57 152.23 C 44.10 152.23 43.64 152.70 43.18 152.70 C 32.53 155.92 23.72 153.62 19.09 140.72 C 14.98 129.19 14.20 116.76 14.05 104.39 C 14.14 117.42 14.76 130.57 19.09 142.72 C 23.72 155.62 32.53 157.92 43.18 154.70 C 43.64 154.70 44.10 154.23 44.57 154.23 C 60.85 149.17 77.44 142.72 93.27 135.36 C 109.09 127.53 123.98 119.70 137.02 109.11 C 146.79 101.74 145.86 92.53 137.02 85.62 C 123.98 75.49 108.63 67.20 92.80 59.38 C 77.44 52.01 62.02 46.02 45.74 40.96 L 45.40 40.90 z M 14 95.60 L 14 97.60 C 14 97.81 14.00 98.03 14.00 98.24 C 14.00 97.36 14 96.48 14 95.60 z" mask="url(#e)"/><path style="fill:#98dd30" d="m 39.75,96.06 c 0,19.34 1.56,38.22 4.82,56.18 16.29,-5.07 32.88,-11.51 48.70,-18.88 15.82,-7.83 30.72,-15.66 43.75,-26.25 9.77,-7.37 8.84,-16.58 0,-23.48 C 123.98,73.49 108.63,65.20 92.80,57.37 77.45,50.01 61.45,43.92 45.16,38.86 40.97,57.74 39.75,76.72 39.75,96.06" mask="url(#h)"/><path style="filter:url(#filter1957);opacity:.2;fill:#000" d="m 60.94,74.31 c 0,0 0.94,2.36 0.94,23.61 0,21.25 0.94,24.09 0.94,24.09 0.47,2.83 1.88,3.31 4.70,2.83 0,0 4.70,0.94 23.99,-10.39 19.29,-9.92 22.58,-13.22 22.58,-13.22 1.88,-1.89 2.82,-3.31 0,-5.67 0,0 -5.17,-4.72 -22.58,-13.70 -16.94,-8.97 -23.99,-10.39 -23.99,-10.39 0.47,0 0.94,0.47 -1.41,0.47 -1.88,0 -2.82,0.94 -3.29,3.31"/><path style="fill:#fff" d="m 60.94,72.31 c 0,0 0.94,2.36 0.94,23.61 0,21.25 0.94,24.09 0.94,24.09 0.47,2.83 1.88,3.31 4.70,2.83 0,0 4.70,0.94 23.99,-10.39 19.29,-9.92 22.58,-13.22 22.58,-13.22 1.88,-1.89 2.82,-3.31 0,-5.67 0,0 -5.17,-4.72 -22.58,-13.70 C 72.70,70.89 65.65,69.47 65.65,69.47 c 0.47,0 0.94,0.47 -1.41,0.47 -1.88,0 -2.82,0.94 -3.29,3.31"/><path style="opacity:.2;fill:#fff;fill-opacity:1" d="M 34.78 38.00 C 27.62 38.11 22.13 42.26 19.09 50.47 C 14.46 62.90 14 76.72 14 90.07 L 14 91.07 C 14 77.72 14.46 63.90 19.09 51.47 C 22.13 43.26 27.62 39.11 34.78 39.00 C 35.25 38.99 35.74 39.01 36.23 39.04 C 38.54 39.04 40.62 39.08 43.18 39.56 L 45.74 39.96 C 62.02 45.02 77.44 51.01 92.80 58.38 C 108.63 66.20 123.98 74.49 137.02 84.62 C 141.33 87.99 143.74 91.91 143.97 95.89 C 144.12 91.57 141.69 87.27 137.02 83.62 C 123.98 73.49 108.63 65.20 92.80 57.38 C 77.44 50.01 62.02 44.02 45.74 38.96 L 43.18 38.56 C 40.62 38.08 38.54 38.04 36.23 38.04 C 35.74 38.01 35.25 37.99 34.78 38.00 z" mask="url(#e)"/></svg>