<?xml version='1.0' encoding='utf-8'?>
<svg xmlns="http://www.w3.org/2000/svg" width="192" height="192" version="1" id="svg14">
  <defs>
    <filter style="color-interpolation-filters:sRGB" id="filter9374" x="-0.056353512" y="-0.048043571" width="1.112707" height="1.0960871">
      <feGaussianBlur stdDeviation="3.2029048"/>
    </filter>
    <filter style="color-interpolation-filters:sRGB" id="filter9434" x="-0.108" y="-0.108" width="1.216" height="1.216">
      <feGaussianBlur stdDeviation="4.23"/>
    </filter>
  </defs>
  <path style="filter:url(#filter9374);opacity:0.2;fill:#000000" d="m 102,20 a 80,80 0 0 0 -80,80 80,80 0 0 0 80,80 80,80 0 0 0 56.26562,-23.41797 L 130.05469,128.37109 A 40,40 0 0 0 142,100 40,40 0 0 0 130.12305,71.560547 l 28.2832,-28.283203 A 80,80 0 0 0 102,20 Z"/>
  <path style="fill:#00b7f9" d="m 102,16 a 80,80 0 0 0 -80,80 80,80 0 0 0 80,80 80,80 0 0 0 56.26562,-23.41797 L 130.05469,124.37109 A 40,40 0 0 0 142,96 40,40 0 0 0 130.12305,67.560547 l 28.2832,-28.283203 A 80,80 0 0 0 102,16 Z"/>
  <path style="filter:url(#filter9434);opacity:0.2;fill:#000000" d="m 102,51 a 47,47 0 0 0 -47,47 47,47 0 0 0 47,47 47,47 0 0 0 47,-47 47,47 0 0 0 -47,-47 z m 0,10 a 37,37 0 0 1 37,37 37,37 0 0 1 -37,37 37,37 0 0 1 -37,-37 37,37 0 0 1 37,-37 z m -27,21 10.164062,36 h 9.603516 l 5.361332,-18.857422 c 0.11168,-0.403364 0.26112,-0.975352 0.44726,-1.714844 0.18615,-0.773112 0.37245,-1.579585 0.5586,-2.419922 0.18614,-0.873948 0.35303,-1.697593 0.50195,-2.470703 0.18614,-0.806722 0.2987,-1.428259 0.33594,-1.865234 0.0745,0.436975 0.18507,1.058512 0.33398,1.865234 0.14892,0.77311 0.31776,1.596755 0.50391,2.470703 0.22337,0.873951 0.40772,1.680424 0.55664,2.419922 0.18614,0.739492 0.33558,1.294314 0.44726,1.664063 L 109.23242,118 h 9.60352 L 129,82 h -8.32031 l -5.08203,19.66406 c -0.18615,0.77312 -0.42873,1.74737 -0.72657,2.92383 -0.2606,1.17647 -0.50124,2.35282 -0.72461,3.5293 -0.22336,1.14285 -0.39222,2.13427 -0.5039,2.97461 -0.11169,-0.80672 -0.27858,-1.79814 -0.50196,-2.97461 -0.22337,-1.17648 -0.46596,-2.3185 -0.72656,-3.42774 -0.22336,-1.10924 -0.42713,-1.95005 -0.61328,-2.52148 L 105.99219,82 h -7.984378 l -5.808593,20.16797 c -0.186144,0.60504 -0.409323,1.46302 -0.669922,2.57226 -0.223371,1.07563 -0.446551,2.20048 -0.669922,3.37696 -0.223371,1.14285 -0.390268,2.13427 -0.501953,2.97461 -0.111686,-0.80672 -0.280536,-1.79814 -0.503906,-2.97461 -0.223372,-1.17648 -0.46401,-2.35283 -0.72461,-3.5293 -0.260599,-1.17646 -0.50319,-2.15071 -0.726562,-2.92383 L 83.320312,82 Z"/>
  <path style="fill:#ffffff" d="m 102,49 a 47,47 0 0 0 -47,47 47,47 0 0 0 47,47 47,47 0 0 0 47,-47 47,47 0 0 0 -47,-47 z m 0,10 a 37,37 0 0 1 37,37 37,37 0 0 1 -37,37 37,37 0 0 1 -37,-37 37,37 0 0 1 37,-37 z m -27,21 10.164062,36 h 9.603516 l 5.361332,-18.857422 c 0.11168,-0.403364 0.26112,-0.975352 0.44726,-1.714844 0.18615,-0.773112 0.37245,-1.579585 0.5586,-2.419922 0.18614,-0.873948 0.35303,-1.697593 0.50195,-2.470703 0.18614,-0.806722 0.2987,-1.428259 0.33594,-1.865234 0.0745,0.436975 0.18507,1.058512 0.33398,1.865234 0.14892,0.77311 0.31776,1.596755 0.50391,2.470703 0.22337,0.873951 0.40772,1.680424 0.55664,2.419922 0.18614,0.739492 0.33558,1.294314 0.44726,1.664063 L 109.23242,116 h 9.60352 L 129,80 h -8.32031 l -5.08203,19.664062 c -0.18615,0.773118 -0.42873,1.747368 -0.72657,2.923828 -0.2606,1.17647 -0.50124,2.35282 -0.72461,3.5293 -0.22336,1.14285 -0.39222,2.13427 -0.5039,2.97461 -0.11169,-0.80672 -0.27858,-1.79814 -0.50196,-2.97461 -0.22337,-1.17648 -0.46596,-2.3185 -0.72656,-3.42774 -0.22336,-1.10924 -0.42713,-1.95005 -0.61328,-2.52148 L 105.99219,80 h -7.984378 l -5.808593,20.16797 c -0.186144,0.60504 -0.409323,1.46302 -0.669922,2.57226 -0.223371,1.07563 -0.446551,2.20048 -0.669922,3.37696 -0.223371,1.14285 -0.390268,2.13427 -0.501953,2.97461 -0.111686,-0.80672 -0.280536,-1.79814 -0.503906,-2.97461 -0.223372,-1.17648 -0.46401,-2.35283 -0.72461,-3.5293 -0.260599,-1.17646 -0.50319,-2.15071 -0.726562,-2.923828 L 83.320312,80 Z"/>
  <path style="opacity:0.2;fill:#ffffff" d="M 102 16 A 80 80 0 0 0 22 96 A 80 80 0 0 0 22.035156 96.5 A 80 80 0 0 1 102 17 A 80 80 0 0 1 157.87305 39.810547 L 158.40625 39.277344 A 80 80 0 0 0 102 16 z M 130.57617 68.107422 L 130.12305 68.560547 A 40 40 0 0 1 141.94922 96.492188 A 40 40 0 0 0 142 96 A 40 40 0 0 0 130.57617 68.107422 z M 130.50977 124.82617 A 40 40 0 0 1 130.05469 125.37109 L 157.73242 153.04883 A 80 80 0 0 0 158.26562 152.58203 L 130.50977 124.82617 z "/>
</svg>
