<?xml version='1.0' encoding='utf-8'?>
<svg xmlns="http://www.w3.org/2000/svg" width="192" height="192" version="1" id="svg34">
  <defs>
    <filter style="color-interpolation-filters:sRGB" id="filter881" x="0.05" width="1.09" y="0.05" height="1.10">
      <feGaussianBlur stdDeviation="3.04"/>
    </filter>
    <filter style="color-interpolation-filters:sRGB" id="filter897" x="0.05" width="1.10" y="0.05" height="1.10">
      <feGaussianBlur stdDeviation="0.32"/>
    </filter>
    <filter style="color-interpolation-filters:sRGB" id="filter924" x="0.03" width="1.07" y="0.08" height="1.16">
      <feGaussianBlur stdDeviation="1.96"/>
    </filter>
  </defs>
  <path style="filter:url(#filter881);opacity:0.20;fill:#000000" d="m 28,28 c -6.65,0 -12,5.35 -12,12 v 100 20 c 0,6.65 5.35,12 12,12 h 136 c 6.65,0 12,-5.35 12,-12 V 140 40 c 0,-6.65 -5.35,-12 -12,-12 z"/>
  <path style="fill:#c2352a" d="M 28,24 C 21.35,24 16,29.35 16,36 V 136 H 176 V 36 c 0,-6.65 -5.35,-12 -12,-12 z"/>
  <path style="opacity:0.20;fill:#ffffff" d="M 28 24 C 21.35 24 16 29.35 16 36 L 16 37 C 16 30.35 21.35 25 28 25 L 164 25 C 170.65 25 176 30.35 176 37 L 176 36 C 176 29.35 170.65 24 164 24 L 28 24 z "/>
  <path d="m 16,136 v 20 c 0,6.65 5.35,12 12,12 h 136 c 6.65,0 12,-5.35 12,-12 v -20 z" style="fill:#e4e4e4"/>
  <rect style="fill:#999999" ry="3.71" rx="4" y="148" x="112" height="8" width="52"/>
  <rect style="fill:#c2352a" ry="4" rx="4" y="148" x="28" height="8" width="84"/>
  <circle style="filter:url(#filter897);opacity:0.10" r="8" cy="154" cx="112"/>
  <circle style="fill:#ffffff" r="8" cy="152" cx="112"/>
  <rect y="136" x="16" height="1" width="160" style="opacity:0.20;fill:#ffffff"/>
  <path style="filter:url(#filter924);opacity:0.20;fill:#000000;color:#000000;font-stretch:normal;font-variant-ligatures:normal;font-variant-position:normal;font-variant-caps:normal;font-variant-numeric:normal;font-variant-alternates:normal;font-feature-settings:normal;text-indent:0;text-align:start;text-decoration-line:none;text-decoration-style:solid;text-decoration-color:#000000;text-transform:none;writing-mode:lr-tb;direction:ltr;text-orientation:mixed;dominant-baseline:auto;baseline-shift:baseline;white-space:normal;shape-padding:0;clip-rule:nonzero;display:inline;overflow:visible;visibility:visible;isolation:auto;mix-blend-mode:normal;color-interpolation:sRGB;color-interpolation-filters:linearRGB;solid-color:#000000;solid-opacity:1;vector-effect:none;fill-rule:nonzero;color-rendering:auto;image-rendering:auto;shape-rendering:auto;text-rendering:auto;enable-background:accumulate" d="M 34.00 51.83 A 6.00 6.00 0 0 0 29.87 53.57 A 6.00 6.00 0 0 0 29.72 53.72 A 6.00 6.00 0 0 0 28.09 58.88 L 28.09 80.93 A 6.00 6.00 0 0 0 28.09 82.88 L 28.09 105.91 A 6.00 6.00 0 1 0 40.09 105.91 L 40.09 87.92 L 58.08 87.92 A 6.00 6.00 0 1 0 58.08 75.92 L 40.09 75.92 L 40.09 63.92 L 58.08 63.92 A 6.00 6.00 0 1 0 58.08 51.92 L 35.06 51.92 A 6.00 6.00 0 0 0 34.00 51.83 z M 157.76 51.90 A 6.00 6.00 0 0 0 152.41 55.90 L 140.03 88.91 L 127.65 55.90 A 6.00 6.00 0 0 0 122.16 51.93 A 6.00 6.00 0 0 0 116.41 60.11 L 134.41 108.11 A 6.00 6.00 0 0 0 145.65 108.11 L 163.64 60.11 A 6.00 6.00 0 0 0 157.76 51.90 z M 81.91 51.92 A 6.00 6.00 0 0 0 76 58.00 L 76 106 A 6.00 6.00 0 0 0 82 112 L 106.00 112 A 6.00 6.00 0 1 0 106.00 100 L 88 100 L 88 58.00 A 6.00 6.00 0 0 0 81.91 51.92 z "/>
  <path d="M 34.09,77.92 H 58.08 M 34.09,53.92 H 58.08 M 34.09,101.91 V 53.92" style="fill:none;stroke:#ffffff;stroke-width:12.00;stroke-linecap:round;stroke-linejoin:bevel"/>
  <path d="m 82.00,54.00 v 48.00 h 24.00 v 0" style="fill:none;stroke:#ffffff;stroke-width:12.00;stroke-linecap:round;stroke-linejoin:round"/>
  <path d="M 158.03,54.00 140.03,102.00 122.03,54.00" style="fill:none;stroke:#ffffff;stroke-width:12.00;stroke-linecap:round;stroke-linejoin:round"/>
</svg>
