<?xml version='1.0' encoding='utf-8'?>
<svg xmlns="http://www.w3.org/2000/svg" width="192" height="192" version="1" id="svg14">
  <defs>
    <filter style="color-interpolation-filters:sRGB" id="filter850" x="0.05" width="1.10" y="0.05" height="1.10">
      <feGaussianBlur stdDeviation="3.20"/>
    </filter>
    <filter style="color-interpolation-filters:sRGB" id="filter11855" x="0.03" y="0.10" width="1.06" height="1.20">
      <feGaussianBlur stdDeviation="1.49"/>
    </filter>
  </defs>
  <rect style="filter:url(#filter850);opacity:0.20;fill:#000000" width="160" height="160" x="-180" y="-176" rx="80" ry="80" transform="matrix(0,-1,-1,0,0,0)"/>
  <rect transform="matrix(0,-1,-1,0,0,0)" ry="80" rx="80" y="-176" x="-176" height="160" width="160" style="fill:#5a96ff"/>
  <path style="opacity:0.20;fill:#ffffff" d="m 96,16 c -44.32,0 -80,35.68 -80,80 0,0.12 0.01,0.23 0.01,0.35 C 16.36,52.33 51.90,17 96,17 140.10,17 175.64,52.33 175.99,96.35 175.99,96.23 176,96.12 176,96 176,51.68 140.32,16 96,16 Z"/>
  <path style="filter:url(#filter11855);opacity:0.20;fill:#000000" d="m 39,80 v 36 h 7 V 88.77 C 46,88.77 54.68,107.61 60.60,116 H 70 V 80 h -7 v 26.97 L 48.35,80 Z m 39,0 v 22.87 c 0,3.94 1.18,7.13 3.54,9.55 C 83.89,114.81 87.33,116 91.86,116 c 3.19,0 5.81,0.56 7.88,-1.69 2.10,-1.16 3.66,-2.72 4.68,-4.67 C 105.48,107.65 106,105.43 106,102.97 V 80 h -7 v 21.98 c 0.03,2.75 0.76,4.77 -1.84,6.07 C 96.11,109.34 94.40,110 92.05,110 89.79,110 88.08,109.39 86.94,108.20 85.79,107.00 85,104.95 85,102.03 V 80 Z m 37,0 v 36 h 7 V 87.77 L 129.64,116 h 6.74 L 145,87.81 V 116 h 7 V 80 h -9.99 l -8.68,27.53 h 0.14 L 124.99,80 Z"/>
  <path style="fill:#223860" d="m 39,78 v 36 h 7 V 86.77 C 46,86.77 54.68,105.61 60.60,114 H 70 V 78 h -7 v 26.97 L 48.35,78 Z m 39,0 v 22.87 c 0,3.94 1.18,7.13 3.54,9.55 C 83.89,112.81 87.33,114 91.86,114 c 3.19,0 5.81,0.56 7.88,-1.69 2.10,-1.16 3.66,-2.72 4.68,-4.67 C 105.48,105.65 106,103.43 106,100.97 V 78 h -7 v 21.98 c 0.03,2.75 0.76,4.77 -1.84,6.07 C 96.11,107.34 94.40,108 92.05,108 89.79,108 88.08,107.39 86.94,106.20 85.79,105.00 85,102.95 85,100.03 V 78 Z m 37,0 v 36 h 7 V 85.77 L 129.64,114 h 6.74 L 145,85.81 V 114 h 7 V 78 h -9.99 l -8.68,27.53 h 0.14 L 124.99,78 Z"/>
</svg>
