<?xml version='1.0' encoding='utf-8'?>
<svg xmlns="http://www.w3.org/2000/svg" width="192" height="192" version="1" id="svg21">
  <defs>
    <filter id="filter850" style="color-interpolation-filters:sRGB" width="1.096" height="1.096" x="-0.048000001" y="-0.048000001">
      <feGaussianBlur stdDeviation="3.2"/>
    </filter>
    <filter style="color-interpolation-filters:sRGB" id="filter3310" x="-0.065625" y="-0.0875" width="1.13125" height="1.175">
      <feGaussianBlur stdDeviation="3.5"/>
    </filter>
  </defs>
  <circle style="filter:url(#filter850);opacity:0.2" cx="96" cy="100" r="80"/>
  <circle style="fill:#e4e4e4" cx="96" cy="96" r="80"/>
  <path style="opacity:0.2;fill:#ffffff" d="M 96 16 A 80 80 0 0 0 16 96 A 80 80 0 0 0 16.019531 96.472656 A 80 80 0 0 1 96 17 A 80 80 0 0 1 175.97461 96.513672 A 80 80 0 0 0 176 96 A 80 80 0 0 0 96 16 z"/>
  <path style="filter:url(#filter3310);opacity:0.2;fill:#000000" d="M 163.5,45 A 17.5,17.5 0 0 0 146,62.5 17.5,17.5 0 0 0 163.5,80 17.5,17.5 0 0 0 181,62.5 17.5,17.5 0 0 0 163.5,45 Z M 96,55 A 43,43 0 0 0 53,98 43,43 0 0 0 96,141 43,43 0 0 0 139,98 43,43 0 0 0 96,55 Z m 0,11 A 32,32 0 0 1 128,98 32,32 0 0 1 96,130 32,32 0 0 1 64,98 32,32 0 0 1 96,66 Z"/>
  <path style="fill:#464646" d="M 96 53 A 43 43 0 0 0 53 96 A 43 43 0 0 0 96 139 A 43 43 0 0 0 139 96 A 43 43 0 0 0 96 53 z M 96 64 A 32 32 0 0 1 128 96 A 32 32 0 0 1 96 128 A 32 32 0 0 1 64 96 A 32 32 0 0 1 96 64 z "/>
  <circle style="fill:#dd3e34" cx="163.5" cy="60.5" r="17.5"/>
</svg>
