<svg xmlns="http://www.w3.org/2000/svg" id="svg28" width="192" height="192" version="1"><defs><filter style="color-interpolation-filters:sRGB" id="filter871" width="1.1" height="1.1" x=".05" y=".05"><feGaussianBlur stdDeviation="3.2"/></filter><filter style="color-interpolation-filters:sRGB" id="filter890" width="1.1" height="1.1" x=".05" y=".05"><feGaussianBlur stdDeviation="2.56"/></filter><filter style="color-interpolation-filters:sRGB" id="filter906" width="1.1" height="1.09" x=".05" y=".04"><feGaussianBlur stdDeviation="1.04"/></filter></defs><rect width="160" height="160" x="-180" y="-176" rx="8" ry="8" transform="matrix(0,-1,-1,0,0,0)" style="filter:url(#filter871);opacity:.2;fill:#000"/><rect style="fill:#4f4f4f" width="160" height="160" x="-176" y="-176" rx="8" ry="8" transform="matrix(0,-1,-1,0,0,0)"/><path style="opacity:.1;fill:#fff" d="M 24 16 C 19.57 16 16 19.57 16 24 L 16 25 C 16 20.57 19.57 17 24 17 L 168 17 C 172.43 17 176 20.57 176 25 L 176 24 C 176 19.57 172.43 16 168 16 L 24 16 z"/><circle cx="96" cy="100" r="64" style="filter:url(#filter890);opacity:.2;fill:#000"/><circle cx="96" cy="96" r="64" style="fill:#aee42e"/><circle cx="96" cy="96" r="52" style="fill:#3c3c3c"/><path d="m 128,100 -24,14 -24.00,14 V 100.00 72.00 l 24.00,14 z" style="filter:url(#filter906);opacity:.1;fill:#000"/><path d="M 128,96.00 104,110 80.00,124 V 96.00 68.00 l 24.00,14 z" style="fill:#aee42e"/><circle cx="32" cy="32" r="8" style="fill:#3c3c3c"/><circle cx="160" cy="32" r="8" style="fill:#3c3c3c"/><circle cx="32" cy="160" r="8" style="fill:#3c3c3c"/><circle cx="160" cy="160" r="8" style="fill:#3c3c3c"/></svg>