<?xml version='1.0' encoding='utf-8'?>
<svg xmlns="http://www.w3.org/2000/svg" width="192" height="192" version="1" id="svg28">
  <defs>
    <filter style="color-interpolation-filters:sRGB" id="filter891" x="-0.048000001" width="1.096" y="-0.048000001" height="1.096">
      <feGaussianBlur stdDeviation="3.2"/>
    </filter>
    <filter style="color-interpolation-filters:sRGB" id="filter910" x="-0.047142858" width="1.0942857" y="-0.04888889" height="1.0977778">
      <feGaussianBlur stdDeviation="2.2"/>
    </filter>
  </defs>
  <circle style="filter:url(#filter891);opacity:0.2;fill:#000000" cx="96" cy="100" r="80"/>
  <path d="M 39.421002,39.49371 C 55.070321,23.844431 75.541058,16.013194 95.963417,16 v 80.035584 z" style="fill:#cf67df"/>
  <path d="M 152.50623,39.49371 C 136.85731,23.844431 116.38657,16.013194 95.963816,16 v 80.035584 z" style="fill:#ef4646"/>
  <path d="M 39.493769,39.484914 C 23.844451,55.134993 16.013194,75.605679 16,96.027188 h 80.035784 z" style="fill:#636ad8"/>
  <path d="M 39.493769,152.57066 C 23.844451,136.92178 16.013194,116.45109 16,96.028387 h 80.035784 z" style="fill:#38a3e3"/>
  <path d="M 152.50623,39.484914 C 168.15515,55.133794 175.98641,75.60488 176,96.027188 H 95.964216 Z" style="fill:#ee8e56"/>
  <path d="M 152.50623,152.57066 C 168.15515,136.92178 175.98641,116.4507 176,96.028387 H 95.964216 Z" style="fill:#fdbf5c"/>
  <path d="M 39.421002,152.50669 C 55.070321,168.15557 75.541058,175.98801 95.963417,176 V 95.964416 Z" style="fill:#49ddbe"/>
  <path d="M 152.50623,152.50669 C 136.85731,168.15557 116.38657,175.98801 95.963816,176 V 95.964416 Z" style="fill:#52c72b"/>
  <path d="M 96,40 C 65.072,40 40,65.072 40,96 v 20 c 0,14.2784 10.1676,18.16416 16,19.22656 V 148 H 76 V 108 H 56 V 96 c 0,-22.16 17.84,-40 40,-40 22.16,0 40,17.84 40,40 v 12 h -20 v 40 h 20 v -12.75 c 5.832,-1.072 16,-4.97 16,-19.25 V 96 C 152,65.072 126.928,40 96,40 Z" style="filter:url(#filter910);opacity:0.2"/>
  <path d="M 96,36 C 65.072,36 40,61.072 40,92 v 20 c 0,14.2784 10.1676,18.16416 16,19.22656 V 144 H 76 V 104 H 56 V 92 c 0,-22.16 17.84,-40 40,-40 22.16,0 40,17.84 40,40 v 12 h -20 v 40 h 20 v -12.75 c 5.832,-1.072 16,-4.97 16,-19.25 V 92 C 152,61.072 126.928,36 96,36 Z" style="fill:#ffffff"/>
  <path style="opacity:0.2;fill:#ffffff" d="M 96 16 A 80 80 0 0 0 16 96 A 80 80 0 0 0 16.021484 96.585938 A 80 80 0 0 1 96 17 A 80 80 0 0 1 175.97852 96.414062 A 80 80 0 0 0 176 96 A 80 80 0 0 0 96 16 z "/>
</svg>
