<?xml version='1.0' encoding='utf-8'?>
<svg xmlns="http://www.w3.org/2000/svg" width="192" height="192" version="1" id="svg18">
  <defs>
    <filter id="filter955" style="color-interpolation-filters:sRGB" width="1.10" height="1.10" x="0.05" y="0.05">
      <feGaussianBlur stdDeviation="3.20"/>
    </filter>
    <filter style="color-interpolation-filters:sRGB" id="filter22458" x="0.08" y="0.15" width="1.15" height="1.30">
      <feGaussianBlur stdDeviation="2.81"/>
    </filter>
  </defs>
  <rect style="fill:#c3c3c3" width="159" height="159" x="16.50" y="16.50" rx="29.81" ry="29.81"/>
  <rect style="filter:url(#filter955);opacity:0.20" width="160" height="160" x="16" y="20" rx="30" ry="30"/>
  <path style="fill:#dbdbdb" d="M 46 16 C 29.38 16 16 29.38 16 46 L 16 48 L 48 48 L 48 16 L 46 16 z M 48 48 L 48 80 L 80 80 L 80 48 L 48 48 z M 80 48 L 112 48 L 112 16 L 80 16 L 80 48 z M 112 48 L 112 80 L 144 80 L 144 48 L 112 48 z M 144 48 L 176 48 L 176 46 C 176 29.38 162.62 16 146 16 L 144 16 L 144 48 z M 144 80 L 144 112 L 176 112 L 176 80 L 144 80 z M 144 112 L 112 112 L 112 144 L 144 144 L 144 112 z M 144 144 L 144 176 L 146 176 C 162.62 176 176 162.62 176 146 L 176 144 L 144 144 z M 112 144 L 80 144 L 80 176 L 112 176 L 112 144 z M 80 144 L 80 112 L 48 112 L 48 144 L 80 144 z M 48 144 L 16 144 L 16 146 C 16 162.62 29.38 176 46 176 L 48 176 L 48 144 z M 48 112 L 48 80 L 16 80 L 16 112 L 48 112 z M 80 112 L 112 112 L 112 80 L 80 80 L 80 112 z "/>
  <path style="fill:#ffffff" d="M 48 16 L 48 48 L 80 48 L 80 16 L 48 16 z M 80 48 L 80 80 L 112 80 L 112 48 L 80 48 z M 112 48 L 144 48 L 144 16 L 112 16 L 112 48 z M 144 48 L 144 80 L 176 80 L 176 48 L 144 48 z M 144 80 L 112 80 L 112 112 L 144 112 L 144 80 z M 144 112 L 144 144 L 176 144 L 176 112 L 144 112 z M 144 144 L 112 144 L 112 176 L 144 176 L 144 144 z M 112 144 L 112 112 L 80 112 L 80 144 L 112 144 z M 80 144 L 48 144 L 48 176 L 80 176 L 80 144 z M 48 144 L 48 112 L 16 112 L 16 144 L 48 144 z M 48 112 L 80 112 L 80 80 L 48 80 L 48 112 z M 48 80 L 48 48 L 16 48 L 16 80 L 48 80 z "/>
  <rect style="filter:url(#filter22458);opacity:0.20;fill:#000000" width="89.81" height="44.84" x="-46.32" y="114.76" ry="6.31" transform="rotate(-45)"/>
  <rect style="fill:#eb4b3f" width="89.81" height="44.84" x="-44.91" y="113.34" ry="6.31" transform="rotate(-45)"/>
  <path style="fill:#c6362b" d="m 52.85,107.44 c -2.47,2.47 -2.47,6.45 0,8.92 l 22.79,22.79 c 2.47,2.47 6.45,2.47 8.92,0 l 4.62,-4.62 -31.71,-31.71 z"/>
  <path style="fill:#2a6db3" d="M 85.39,74.90 117.10,106.61 139.15,84.56 c 2.47,-2.47 2.47,-6.45 0,-8.92 L 116.36,52.85 c -2.47,-2.47 -6.45,-2.47 -8.92,0 z"/>
  <path style="fill:#ffffff" d="m 52.85,107.44 c 0.28,0.28 0.53,0.59 0.74,0.90 l 31.55,31.55 c 0.32,0.22 0.62,0.46 0.90,0.74 l 0.98,0.98 -31.71,-31.71 z"/>
  <path style="opacity:0.20;fill:#ffffff" d="M 46 16 C 29.38 16 16 29.38 16 46 L 16 47 C 16 30.38 29.38 17 46 17 L 146 17 C 162.62 17 176 30.38 176 47 L 176 46 C 176 29.38 162.62 16 146 16 L 46 16 z"/>
</svg>
