<?xml version='1.0' encoding='utf-8'?>
<svg xmlns="http://www.w3.org/2000/svg" width="192" height="192" version="1" id="svg28">
  <defs>
    <filter style="color-interpolation-filters:sRGB" id="filter871" x="0.05" width="1.10" y="0.05" height="1.10">
      <feGaussianBlur stdDeviation="3.20"/>
    </filter>
    <filter style="color-interpolation-filters:sRGB" id="filter887" x="0.05" width="1.11" y="0.04" height="1.09">
      <feGaussianBlur stdDeviation="2.28"/>
    </filter>
    <filter style="color-interpolation-filters:sRGB" id="filter903" x="0.05" width="1.10" y="0.05" height="1.10">
      <feGaussianBlur stdDeviation="0.96"/>
    </filter>
  </defs>
  <rect style="filter:url(#filter871);opacity:0.20;fill:#000000" width="160" height="160" x="-180" y="-176" rx="80" ry="80" transform="matrix(0,-1,-1,0,0,0)"/>
  <rect transform="matrix(0,-1,-1,0,0,0)" ry="80" rx="80" y="-176" x="-176" height="160" width="160" style="fill:#728b98"/>
  <path style="opacity:0.10;fill:#ffffff" d="M 96 16 C 51.68 16 16.01 51.68 16.01 96 C 16.01 96.34 16.01 96.67 16.01 97 C 16.01 52.68 51.68 17 96 17 C 140.32 17 175.99 52.68 175.99 97 C 175.99 96.67 175.99 96.34 175.99 96 C 175.99 51.68 140.32 16 96 16 z "/>
  <path d="m 96,40 c -7.33,0.00 -14.56,1.45 -21.30,4.23 0.01,0.01 0.03,0.00 0.05,0.01 0.01,0.01 0.02,0.02 0.04,0.02 0.05,0.02 0.11,0.03 0.16,0.05 0.09,0.04 0.09,0.09 0.16,0.12 -1.28,0.67 -2.18,1.98 -2.18,3.52 0,2.21 1.79,4 4,4 0.58,0 1.13,0.13 1.63,0.35 0.01,0.00 0.02,0.01 0.03,0.02 0.04,0.01 0.09,0.00 0.13,0.02 C 83.64,49.23 89.78,48.01 96,48 c 26.51,0 48,21.49 48,48 0.02,6.30 -1.27,12.53 -3.69,18.33 0.07,0.18 0.14,0.35 0.22,0.52 0.01,0.03 0.03,0.05 0.04,0.08 0.02,0.04 0.01,0.08 0,0.12 0.16,0.43 0.27,0.88 0.27,1.37 0,2.21 1.79,4 4,4 1.58,0 2.94,0.92 3.59,-2.25 0.01,0.02 0.01,0.04 0.02,0.06 0.00,0.01 0.01,0.01 0.02,0.02 0.11,0.25 0.21,0.51 0.32,0.77 C 150.53,110.58 151.98,103.34 152,96 152,65.07 126.93,40 96,40 Z" style="fill:#576a73"/>
  <path d="m 96,152 c 7.33,0.00 14.56,-1.45 21.30,-4.23 0.01,0.01 0.03,0.00 0.05,0.01 0.01,0.01 0.02,0.02 0.04,0.02 0.05,0.02 0.11,0.03 0.16,0.05 0.09,0.04 0.09,0.09 0.16,0.12 1.28,0.67 2.18,-1.98 2.18,-3.52 0,-2.21 -1.79,-4 -4,-4 0.58,0 -1.13,0.13 -1.63,0.35 0.01,0.01 0.02,0.01 0.03,0.02 0.04,0.01 0.09,0.00 0.13,0.02 C 108.36,142.77 102.22,143.99 96,144 69.49,144 48,122.51 48,96 c 0.02,-6.30 1.27,-12.53 3.69,-18.33 0.07,0.18 0.14,0.35 0.22,0.52 0.01,0.03 0.03,0.05 0.04,0.08 0.02,0.04 0.01,0.08 0,0.12 0.16,0.43 0.27,0.88 0.27,-1.37 0,-2.21 -1.79,-4 -4,-4 -1.58,0 -2.94,0.92 -3.59,2.25 0.01,0.02 0.01,0.04 0.02,0.06 0.00,0.01 0.01,0.01 0.02,0.02 0.11,0.25 0.21,0.51 0.32,0.77 C 41.47,81.42 40.02,88.66 40,96 c 0,30.93 25.07,56 56,56 z" style="fill:#576a73"/>
  <circle r="24" cy="100" cx="96" style="filter:url(#filter903);opacity:0.10"/>
  <circle r="24" cy="96" cx="96" style="fill:#9fb0b8"/>
  <circle r="12" cy="96" cx="96" style="fill:#576a73"/>
  <path d="m 44.23,52 c 0.08,0.00 0.16,0.00 0.23,0.01 0.95,0.11 -1.74,0.76 -1.98,1.65 0,0 -1.85,16.39 -3.74,24.40 C 32.94,101.30 23.48,123.65 16.60,146.25 16.20,148.14 16.00,150.07 16,152 c 0,15.46 12.54,28 28,28 15.46,0 28,-12.54 28,-28 0.01,-6.90 -2.57,-13.54 -7.18,-18.67 8.36,-2.61 16.48,-4.94 22.95,-6.36 8.69,-1.90 26.48,-3.20 26.48,-3.20 1.74,0.44 2.33,-2.52 1.06,-3.75 L 80.62,86.34 45.92,52.66 C 45.48,52.23 44.87,51.99 44.23,52 Z" style="filter:url(#filter887);opacity:0.20"/>
  <path d="m 44.23,48 c 0.08,0.00 0.16,0.00 0.23,0.01 0.95,0.11 -1.74,0.76 -1.98,1.65 0,0 -1.85,16.39 -3.74,24.40 C 32.94,97.30 23.48,119.65 16.60,142.25 16.20,144.14 16.00,146.07 16,148 c 0,15.46 12.54,28 28,28 15.46,0 28,-12.54 28,-28 0.01,-6.90 -2.57,-13.54 -7.18,-18.67 8.36,-2.61 8.92,-9.84 15.39,-11.25 8.69,-1.90 15.75,-4.84 15.75,-4.84 1.74,0.44 -5.19,0.56 -6.45,-1.79 L 80.62,82.34 45.92,48.66 C 45.48,48.23 44.87,47.99 44.23,48 Z" style="fill:#ffc92a"/>
  <path d="m 80.98,82.70 -50.65,50.65 0.05,0.11 A 20,20 0 0 0 24.00,148 20,20 0 0 0 44,168 20,20 0 0 0 64,148 20,20 0 0 0 56.76,132.61 c 2.38,-1.28 5.08,-2.40 8.08,-3.26 0.01,0.01 0.01,0.02 0.02,0.02 8.36,-2.61 16.48,-4.94 22.95,-6.36 8.69,-1.90 26.48,-3.20 26.48,-3.20 1.74,0.44 2.33,-2.52 1.06,-3.75 z M 44,136 a 12,12 0 0 1 12,12 12,12 0 0 1 -12,12 12,12 0 0 1 -12,-12 12,12 0 0 1 12,-12 z" style="fill:#fd9e00"/>
  <path style="opacity:0.20;fill:#ffffff" d="M 44.23 48 C 44.16 48.00 44.08 48.00 44 48.01 C 43.05 48.11 42.26 48.77 42.02 49.66 C 42.02 49.66 40.16 66.05 38.27 74.05 C 32.94 97.30 23.48 119.65 16.60 142.25 C 16.20 144.14 16.00 146.07 16 148 C 16 148.17 16.01 148.34 16.01 148.51 C 16.05 146.74 16.24 144.98 16.60 143.25 C 23.48 120.65 32.94 98.30 38.27 75.05 C 40.16 67.05 42.02 50.66 42.02 50.66 C 42.26 49.77 43.05 49.11 44 49.01 C 44.08 49.00 44.16 49.00 44.23 49 C 44.87 48.99 45.48 49.23 45.92 49.66 L 80.62 83.34 L 80.79 83.89 L 80.98 83.70 L 115.32 117.02 C 115.64 117.33 115.84 117.70 115.93 118.08 C 116.09 117.38 115.92 116.60 115.32 116.02 L 80.98 82.70 L 80.79 82.89 L 80.62 82.34 L 45.92 48.66 C 45.48 48.23 44.87 47.99 44.23 48 z M 65.50 130.12 C 65.27 130.19 65.05 130.26 64.82 130.33 C 69.32 135.33 71.85 141.77 71.99 148.48 C 71.99 148.32 72 148.16 72 148 C 71.99 141.45 69.68 135.13 65.50 130.12 z "/>
</svg>
