<?xml version='1.0' encoding='utf-8'?>
<svg xmlns="http://www.w3.org/2000/svg" width="192" height="192" version="1" id="svg12">
  <defs>
    <filter style="color-interpolation-filters:sRGB" id="filter906" x="-0.0408" width="1.0816" y="-0.058285715" height="1.1165714">
      <feGaussianBlur stdDeviation="2.72"/>
    </filter>
    <filter style="color-interpolation-filters:sRGB" id="filter937" x="-0.054206894" width="1.1084138" y="-0.043068491" height="1.086137">
      <feGaussianBlur stdDeviation="1.31"/>
    </filter>
    <filter style="color-interpolation-filters:sRGB" id="filter987" x="-0.047020407" width="1.0940408" y="-0.049021273" height="1.0980425">
      <feGaussianBlur stdDeviation="1.92"/>
    </filter>
  </defs>
  <path style="filter:url(#filter937);opacity:0.2;fill:#000000" d="m 74,19 a 7,7 0 0 0 -7,7 7,7 0 0 0 7,7 7,7 0 0 0 1.316406,-0.130859 l 6.908203,13.285156 A 25,25 0 0 0 71,67 25,25 0 0 0 96,92 25,25 0 0 0 121,67 25,25 0 0 0 109.77344,46.15625 l 6.9082,-13.287109 A 7,7 0 0 0 118,33 a 7,7 0 0 0 7,-7 7,7 0 0 0 -7,-7 7,7 0 0 0 -7,7 7,7 0 0 0 2.13086,5.027344 l -6.86524,13.201172 A 25,25 0 0 0 96,42 25,25 0 0 0 85.738281,44.238281 L 78.869141,31.027344 A 7,7 0 0 0 81,26 7,7 0 0 0 74,19 Z"/>
  <rect rx="14" ry="14" y="66" x="16" height="112" width="160" style="filter:url(#filter906);opacity:0.2;fill:#000000"/>
  <circle style="fill:#d03d32" cx="96" cy="65" r="25"/>
  <path style="fill:none;stroke:#d03d32;stroke-width:4" d="M 87,49 74,24 v 0"/>
  <circle style="fill:#d03d32" cx="74" cy="24" r="7"/>
  <path d="m 105,49 13,-25 v 0" style="fill:none;stroke:#d03d32;stroke-width:4"/>
  <circle r="7" cy="24" cx="-118" style="fill:#d03d32" transform="scale(-1,1)"/>
  <rect style="fill:#f44336" width="160" height="112" x="16" y="62" ry="14" rx="14"/>
  <path style="opacity:0.2;fill:#ffffff" d="m 30,62 c -7.756,0 -14,6.244 -14,14 v 1 c 0,-7.756 6.244,-14 14,-14 h 132 c 7.756,0 14,6.244 14,14 v -1 c 0,-7.756 -6.244,-14 -14,-14 z"/>
  <path style="opacity:0.1;fill:#ffffff" d="m 74,17 a 7,7 0 0 0 -7,7 7,7 0 0 0 0.02344,0.458984 A 7,7 0 0 1 74,18 7,7 0 0 1 80.974609,24.503906 7,7 0 0 0 81,24 7,7 0 0 0 74,17 Z m 44,0 a 7,7 0 0 0 -7,7 7,7 0 0 0 0.0234,0.458984 A 7,7 0 0 1 118,18 7,7 0 0 1 124.97656,24.541016 7,7 0 0 0 125,24 7,7 0 0 0 118,17 Z M 79.203125,29.669922 a 7,7 0 0 1 -0.333984,0.357422 l 6.86914,13.210937 A 25,25 0 0 1 96,41 a 25,25 0 0 1 10.26562,2.228516 l 6.86524,-13.201172 a 7,7 0 0 1 -0.33398,-0.357422 l -6.53126,12.558594 A 25,25 0 0 0 96,40 25,25 0 0 0 85.738281,42.238281 Z m 2.644531,14.759766 A 25,25 0 0 0 71,65 25,25 0 0 0 71.02344,65.46875 25,25 0 0 1 82.224611,45.154297 Z m 28.302734,0 -0.37695,0.726562 A 25,25 0 0 1 120.97852,65.589844 25,25 0 0 0 121,65 25,25 0 0 0 110.15039,44.429688 Z"/>
  <path d="M 96,73.999995 83.289062,110 H 47 L 76.193359,130.84375 64,168 96,146 128,168 115.80664,130.84375 145,110 h -36.28906 z" style="filter:url(#filter987);opacity:0.2;fill:#000000"/>
  <path style="fill:#ffc11f" d="M 96,71.999995 83.289062,108 H 47 L 76.193359,128.84375 64,166 96,144 128,166 115.80664,128.84375 145,108 h -36.28906 z"/>
  <path style="opacity:0.2;fill:#ffffff" d="M 96,71.999995 83.289062,108 H 47 l 1.400391,1 H 83.289062 L 96,72.999995 108.71094,109 h 34.88867 L 145,108 H 108.71094 Z M 75.927734,129.6543 64,166 l 0.423828,-0.29102 11.769531,-35.86523 z m 40.144536,0 -0.26563,0.18945 11.76953,35.86523 L 128,166 Z"/>
</svg>
