<?xml version='1.0' encoding='utf-8'?>
<svg xmlns="http://www.w3.org/2000/svg" width="192" height="192" version="1" id="svg14">
  <defs>
    <filter style="color-interpolation-filters:sRGB" id="filter850" x="-0.048000001" width="1.096" y="-0.048000001" height="1.096">
      <feGaussianBlur stdDeviation="3.2"/>
    </filter>
    <filter style="color-interpolation-filters:sRGB" id="filter8042" x="-0.094645782" y="-0.064659808" width="1.1892916" height="1.1293196">
      <feGaussianBlur stdDeviation="2.7210477"/>
    </filter>
  </defs>
  <circle style="filter:url(#filter850);opacity:0.2;fill:#000000" cx="96" cy="100" r="80"/>
  <circle cy="96" cx="96" style="fill:#e4e4e4" r="80"/>
  <path style="opacity:0.2;fill:#ffffff" d="M 96 16 A 80 80 0 0 0 16 96 A 80 80 0 0 0 16.019531 96.472656 A 80 80 0 0 1 96 17 A 80 80 0 0 1 175.97461 96.513672 A 80 80 0 0 0 176 96 A 80 80 0 0 0 96 16 z "/>
  <path style="filter:url(#filter8042);opacity:0.2;fill:#000000" d="m 100.65234,47.001953 c -11.295955,0.07756 -21.770349,6.435024 -30.818356,16.371094 -8.041277,8.880445 -13.039506,19.165917 -14.765625,32.125 -0.238753,3.02272 0.144734,2.728788 1.242188,-0.951172 2.839183,-9.52027 7.348756,-18.595155 12.230469,-24.609375 2.644647,-3.25817 7.847243,-8.104201 10.923828,-10.175781 7.147748,-4.81283 13.767362,-6.962891 21.427736,-6.962891 7.242,0 12.56832,1.654682 19.14258,5.951172 4.01527,2.62411 4.74877,2.512352 3.23632,-0.492188 -4.23995,-7.914499 -14.18904,-10.93856 -22.61914,-11.255859 z M 96.5,67 A 12.5,12.5 0 0 0 84,79.5 12.5,12.5 0 0 0 96.5,92 12.5,12.5 0 0 0 109,79.5 12.5,12.5 0 0 0 96.5,67 Z M 105,97.916016 A 29.248762,29.248762 0 0 1 91.400391,101.34961 29.248762,29.248762 0 0 1 88,101.10742 V 139.5 a 8.5,8.5 0 0 0 8.5,8.5 8.5,8.5 0 0 0 8.5,-8.5 z"/>
  <path style="fill:#006acd" d="M 100.65234 45.001953 C 89.356385 45.079511 78.881991 51.436977 69.833984 61.373047 C 61.792707 70.253492 56.794478 80.538964 55.068359 93.498047 C 54.829606 96.520767 55.213093 96.226835 56.310547 92.546875 C 59.14973 83.026605 63.659303 73.95172 68.541016 67.9375 C 71.185663 64.67933 76.388259 59.833299 79.464844 57.761719 C 86.612592 52.948889 93.232206 50.798828 100.89258 50.798828 C 108.13458 50.798828 113.4609 52.45351 120.03516 56.75 C 124.05043 59.37411 124.78393 59.262352 123.27148 56.257812 C 119.03153 48.343313 109.08244 45.319252 100.65234 45.001953 z M 96.5 65 A 12.5 12.5 0 0 0 84 77.5 A 12.5 12.5 0 0 0 96.5 90 A 12.5 12.5 0 0 0 109 77.5 A 12.5 12.5 0 0 0 96.5 65 z M 105 95.916016 A 29.248762 29.248762 0 0 1 91.400391 99.349609 A 29.248762 29.248762 0 0 1 88 99.107422 L 88 137.5 A 8.5 8.5 0 0 0 96.5 146 A 8.5 8.5 0 0 0 105 137.5 L 105 95.916016 z "/>
</svg>
