<?xml version='1.0' encoding='utf-8'?>
<svg xmlns="http://www.w3.org/2000/svg" width="192" height="192" version="1" id="svg12">
  <defs>
    <filter style="color-interpolation-filters:sRGB" id="filter860" x="-0.048000001" width="1.096" y="-0.048000001" height="1.096">
      <feGaussianBlur stdDeviation="3.2"/>
    </filter>
    <filter style="color-interpolation-filters:sRGB" id="filter907" x="-0.04505263" width="1.0901053" y="-0.051359998" height="1.10272">
      <feGaussianBlur stdDeviation="2.1399999"/>
    </filter>
    <filter style="color-interpolation-filters:sRGB" id="filter913" x="-0.048000001" width="1.096" y="-0.048000001" height="1.096">
      <feGaussianBlur stdDeviation="1.6"/>
    </filter>
  </defs>
  <path style="fill:#000000" d=""/>
  <rect style="filter:url(#filter860);opacity:0.2" width="160" height="160" x="16" y="20" rx="48" ry="48"/>
  <rect style="fill:#0cb5f6" width="160" height="160" x="16" y="16" rx="48" ry="48"/>
  <path style="opacity:0.2;fill:#ffffff" d="M 64,16 C 37.408,16 16,37.408 16,64 v 1 C 16,38.408 37.408,17 64,17 h 64 c 26.592,0 48,21.408 48,48 V 64 C 176,37.408 154.592,16 128,16 Z"/>
  <path style="filter:url(#filter907);opacity:0.2;fill:#000000" d="M 96.000001,50.006713 C 80.73315,49.736462 71.653342,57.63437 68.644918,72.180373 c -0.398829,1.928376 -0.614545,3.930709 -0.642432,6.027297 -0.104951,7.890446 2.248494,17.122676 7.695509,28.82791 8.221594,17.66759 6.162824,20.12581 -22.395278,26.72244 -5.633433,1.30127 -10.895648,2.93289 -11.692644,3.62693 -0.796977,0.69406 -1.705276,3.17011 -2.01907,5.50191 -1.047736,7.78575 -6.663699,7.09761 56.408998,7.09761 63.072699,0 57.456719,0.68814 56.408999,-7.09761 -0.31381,-2.3318 -1.2221,-4.80785 -2.01908,-5.50191 -0.797,-0.69404 -6.0592,-2.32566 -11.69264,-3.62693 -28.5581,-6.59663 -30.61687,-9.05485 -22.39528,-26.72244 5.44702,-11.705234 7.80046,-20.937464 7.69552,-28.82791 -0.0279,-2.096588 -0.24361,-4.098921 -0.64244,-6.027297 C 120.34666,57.63437 111.26685,49.736462 96.000001,50.006713 Z"/>
  <path style="fill:#ffffff" d="m 96.000001,46.006712 c -15.266851,-0.270251 -24.346659,7.627657 -27.355083,22.17366 -0.398829,1.928376 -0.614545,3.930709 -0.642432,6.027297 -0.104951,7.890446 2.248494,17.122676 7.695509,28.827911 8.221594,17.66759 6.162824,20.12581 -22.395278,26.72244 -5.633433,1.30127 -10.895648,2.93289 -11.692644,3.62693 -0.796977,0.69406 -1.705276,3.17011 -2.01907,5.50191 -1.047736,7.78575 -6.663699,7.09761 56.408998,7.09761 63.072699,0 57.456719,0.68814 56.408999,-7.09761 -0.31381,-2.3318 -1.2221,-4.80785 -2.01908,-5.50191 -0.797,-0.69404 -6.0592,-2.32566 -11.69264,-3.62693 -28.5581,-6.59663 -30.61687,-9.05485 -22.39528,-26.72244 5.44702,-11.705235 7.80046,-20.937465 7.69552,-28.827911 -0.0279,-2.096588 -0.24361,-4.098921 -0.64244,-6.027297 -3.00842,-14.546003 -12.08823,-22.443911 -27.355079,-22.17366 z"/>
  <path style="filter:url(#filter913);opacity:0.2;fill:#000000" d="m 56,43 v 6 10 h 6 V 49 H 72 V 43 H 62 Z m 64,0 v 6 h 10 v 10 h 6 V 49 43 h -6 z m -64,64 v 10 6 h 6 10 v -6 H 62 v -10 z m 74,0 v 10 h -10 v 6 h 10 6 v -6 -10 z"/>
  <path style="fill:#ffffff" d="m 56,41 v 6 10 h 6 V 47 H 72 V 41 H 62 Z m 64,0 v 6 h 10 v 10 h 6 V 47 41 h -6 z m -64,64 v 10 6 h 6 10 v -6 H 62 v -10 z m 74,0 v 10 h -10 v 6 h 10 6 v -6 -10 z"/>
</svg>
