<?xml version='1.0' encoding='utf-8'?>
<svg xmlns="http://www.w3.org/2000/svg" width="192" height="192" version="1" id="svg28">
  <defs>
    <filter style="color-interpolation-filters:sRGB" id="filter6495" x="-0.048000001" y="-0.048000001" width="1.096" height="1.096">
      <feGaussianBlur stdDeviation="3.2"/>
    </filter>
    <filter style="color-interpolation-filters:sRGB" id="filter8143" x="-0.052408166" y="-0.044275864" width="1.1048163" height="1.0885517">
      <feGaussianBlur stdDeviation="2.14"/>
    </filter>
  </defs>
  <rect transform="matrix(0,-1,-1,0,0,0)" ry="12" rx="12" y="-176" x="-180" height="160" width="160" style="filter:url(#filter6495);opacity:0.2;fill:#000000"/>
  <rect transform="matrix(0,-1,-1,0,0,0)" ry="12" rx="12" y="-176" x="-176" height="160" width="160" style="fill:#e93153"/>
  <path style="filter:url(#filter8143);opacity:0.2;fill:#000000" d="m 57,40 c -5.54,0 -10,4.46 -10,10 v 12.529297 l 5,-5 V 50 c 0,-2.856483 2.143517,-5 5,-5 h 7.529297 l 5,-5 z m 65.4707,0 5,5 H 135 c 2.85648,0 5,2.143517 5,5 v 7.529297 l 5,5 V 50 c 0,-5.54 -4.46,-10 -10,-10 z M 67,54 c -3.324,0 -6,2.676 -6,6 v 76 c 0,3.324 2.676,6 6,6 h 58 c 3.324,0 6,-2.676 6,-6 V 60 c 0,-3.324 -2.676,-6 -6,-6 z M 47,133.4707 V 146 c 0,5.54 4.46,10 10,10 h 12.529297 l -5,-5 H 57 c -2.856483,0 -5,-2.14352 -5,-5 v -7.5293 z m 98,0 -5,5 V 146 c 0,2.85648 -2.14352,5 -5,5 h -7.5293 l -5,5 H 135 c 5.54,0 10,-4.46 10,-10 z"/>
  <path style="opacity:0.2;fill:#ffffff" d="m 28,16 c -6.648,0 -12,5.352 -12,12 v 1 c 0,-6.648 5.352,-12 12,-12 h 136 c 6.648,0 12,5.352 12,12 v -1 c 0,-6.648 -5.352,-12 -12,-12 z"/>
  <path style="fill:#ffffff" d="m 57,38 c -5.54,0 -10,4.46 -10,10 v 12.529297 l 5,-5 V 48 c 0,-2.856483 2.143517,-5 5,-5 h 7.529297 l 5,-5 z m 65.4707,0 5,5 H 135 c 2.85648,0 5,2.143517 5,5 v 7.529297 l 5,5 V 48 c 0,-5.54 -4.46,-10 -10,-10 z M 47,131.4707 V 144 c 0,5.54 4.46,10 10,10 h 12.529297 l -5,-5 H 57 c -2.856483,0 -5,-2.14352 -5,-5 v -7.5293 z m 98,0 -5,5 V 144 c 0,2.85648 -2.14352,5 -5,5 h -7.5293 l -5,5 H 135 c 5.54,0 10,-4.46 10,-10 z"/>
  <rect style="fill:#ffffff" width="70" height="88" x="61" y="52" rx="6" ry="6"/>
  <path style="opacity:0.36025;fill:#808080" d="M 67 59 L 67 63 L 94 63 L 94 59 L 67 59 z M 98 59 L 98 63 L 125 63 L 125 59 L 98 59 z M 67 66 L 67 70 L 94 70 L 94 66 L 67 66 z M 98 66 L 98 70 L 125 70 L 125 66 L 98 66 z M 67 73 L 67 77 L 94 77 L 94 73 L 67 73 z M 98 73 L 98 77 L 125 77 L 125 73 L 98 73 z M 67 80 L 67 84 L 94 84 L 94 80 L 67 80 z M 98 80 L 98 84 L 125 84 L 125 80 L 98 80 z M 98 87 L 98 91 L 125 91 L 125 87 L 98 87 z M 98 94 L 98 98 L 125 98 L 125 94 L 98 94 z M 98 101 L 98 105 L 125 105 L 125 101 L 98 101 z M 98 108 L 98 112 L 125 112 L 125 108 L 98 108 z M 98 115 L 98 119 L 125 119 L 125 115 L 98 115 z M 67 122 L 67 126 L 98 126 L 125 126 L 125 122 L 98 122 L 67 122 z M 67 129 L 67 133 L 98 133 L 125 133 L 125 129 L 98 129 L 67 129 z "/>
  <path style="fill:#79c43c;color:#000000" d="m 75.365234,107.1543 -4.828125,3.56054 c 2.267438,3.07548 5.777494,4.99931 9.589844,5.25586 3.81235,0.25656 7.54992,-1.17988 10.208984,-3.92382 l -4.308593,-4.17579 c -1.433836,1.47961 -3.442329,2.25163 -5.498047,2.11329 -2.055718,-0.13835 -3.941402,-1.17171 -5.164063,-2.83008 z"/>
  <path style="fill:#ffc236;color:#000000" d="m 68.806641,98.490234 c -1.556586,4.207996 -0.828037,8.933356 1.921875,12.478516 l 4.740234,-3.67773 c -1.484588,-1.91392 -1.873553,-4.44699 -1.033203,-6.71875 z"/>
  <path style="fill:#ff7839;color:#000000" d="m 73.75,92.208984 c -2.33625,1.569895 -4.101677,3.857473 -5.027344,6.515625 l 5.666016,1.972661 c 0.498653,-1.431941 1.448502,-2.662121 2.707031,-3.507817 z"/>
  <path style="fill:#ed4d59;color:#000000" d="m 81.384766,90.005859 c -2.813479,-0.0835 -5.578874,0.7486 -7.878907,2.371094 l 3.458985,4.902344 c 1.239018,-0.874031 2.726577,-1.320373 4.242187,-1.275391 z"/>
  <path style="fill:#54cdec;color:#000000" d="m 81.089844,90 -0.04102,6 c 2.842035,0.01984 5.372483,1.738824 6.439453,4.37305 1.06697,2.63422 0.445101,5.62708 -1.582031,7.61914 l 4.205078,4.27929 c 3.747052,-3.68221 4.909741,-9.28311 2.9375,-14.152339 C 91.076588,93.249912 86.343202,90.036676 81.089844,90 Z"/>
</svg>
