<?xml version='1.0' encoding='utf-8'?>
<svg xmlns="http://www.w3.org/2000/svg" width="192" height="192" version="1" id="svg28">
  <defs>
    <filter style="color-interpolation-filters:sRGB" id="filter11109" x="-0.044941628" y="-0.051362134" width="1.0898833" height="1.1027243">
      <feGaussianBlur stdDeviation="2.9961246"/>
    </filter>
  </defs>
  <path style="filter:url(#filter11109);opacity:0.2;fill:#000000;color:#000000" d="m 73.923828,30 c -1.034416,2.04e-4 -1.990552,0.551577 -2.507812,1.445312 L 49.388672,69.537109 C 48.274605,71.463053 49.665729,73.999307 51.894531,74 h 42.433594 l 21.207035,36.55469 c 1.11381,1.92739 3.90221,1.92845 5.01757,0.002 l 22.0586,-38.113281 c 0.51723,-0.893921 0.51723,-1.994751 0,-2.888671 L 120.55273,31.445312 C 120.03547,30.551575 119.07934,30.000204 118.04492,30 Z M 40.966797,88 a 2.8971249,2.8887648 0 0 0 -2.509766,1.443359 l -21.861328,37.757811 0.251953,-0.25195 a 2.8971249,2.8887648 0 0 0 -0.458984,3.48633 l 22.068359,38.12109 A 2.8971249,2.8887648 0 0 0 40.966797,170 h 44.119141 0.01758 a 2.8971249,2.8887648 0 0 0 2.509765,-4.33008 L 66.404297,128.99023 87.595703,92.330078 A 2.8971249,2.8887648 0 0 0 85.085938,88 Z m 110.083983,0 c -1.03423,2.03e-4 -1.99064,0.54981 -2.50781,1.443359 L 127.33789,126 H 84.894531 c -2.227785,8e-5 -3.619926,2.5097 -2.507812,4.43555 l 22.039061,38.11914 c 0.51702,0.89486 1.47252,1.44539 2.50781,1.44531 h 44.11719 c 1.03423,-2.1e-4 1.9887,-0.54981 2.50586,-1.44336 l 22.05664,-38.10352 c 0.51713,-0.89373 0.51713,-1.99494 0,-2.88867 L 153.55664,89.443359 C 153.03947,88.54981 152.08501,88.000203 151.05078,88 Z"/>
  <path style="fill:#ef2e40;color:#000000" d="m 40.965847,84 a 2.8971249,2.8887648 0 0 0 -2.508322,1.444238 l -21.862058,37.757052 0.252721,-0.25199 a 2.8971249,2.8887648 0 0 0 -0.460173,3.48647 l 22.06951,38.11999 A 2.8971249,2.8887648 0 0 0 40.965847,166 h 44.120158 0.01697 a 2.8971249,2.8887648 0 0 0 2.510212,-4.33084 L 66.40368,124.98966 87.59622,88.330838 a 2.8971249,2.8887648 0 0 0 -2.510213,-4.330834 z"/>
  <path style="fill:#ef2e40;color:#000000" d="m 151.04982,84 c -1.03423,2.03e-4 -1.98982,0.550721 -2.50699,1.44427 L 127.33709,122 H 84.895475 c -2.227785,8e-5 -3.620988,2.50902 -2.508874,4.43487 l 22.038879,38.11897 c 0.51702,0.89486 1.47358,1.44624 2.50887,1.44616 h 44.11547 c 1.03423,-2.1e-4 1.98983,-0.55073 2.50699,-1.44428 l 22.05584,-38.10205 c 0.51713,-0.89373 0.51713,-1.99481 0,-2.88854 L 153.55681,85.44427 C 153.03964,84.550721 152.08405,84.000203 151.04982,84 Z"/>
  <path style="fill:#ef2e40;color:#000000" d="m 73.923048,25.999971 c -1.034416,2.04e-4 -1.990188,0.550838 -2.507448,1.444574 L 49.387754,65.53766 C 48.273687,67.463604 49.666405,69.999307 51.895207,70 H 94.32765 l 21.20774,36.55379 c 1.11381,1.92739 3.90142,1.9285 5.01678,0.002 l 22.0599,-38.112008 c 0.51723,-0.893921 0.51723,-1.995227 0,-2.889148 l -22.0599,-38.110041 c -0.51726,-0.893737 -1.47303,-1.444369 -2.50745,-1.444573 z"/>
  <path style="fill:#d11923;color:#000000" d="M 16.042969 125 A 2.8971249 2.8887648 0 0 0 16.388672 126.43555 L 38.457031 164.55664 A 2.8971249 2.8887648 0 0 0 40.966797 166 L 85.085938 166 L 85.103516 166 A 2.8971249 2.8887648 0 0 0 87.613281 161.66992 L 66.410156 125 L 16.042969 125 z "/>
  <path style="fill:#d11923;color:#000000" d="m 151.05078,84 c -1.03423,2.03e-4 -1.99064,0.54981 -2.50781,1.443359 L 127.33789,122 h -0.0332 l 25.2207,43.5918 c 0.41981,-0.24861 0.77868,-0.59877 1.03125,-1.03516 l 22.05664,-38.10352 c 0.51713,-0.89373 0.51713,-1.99494 0,-2.88867 L 153.55664,85.443359 C 153.03947,84.54981 152.08501,84.000203 151.05078,84 Z"/>
  <path style="fill:#d11923;color:#000000" d="M 119.55469,26.433594 94.332031,70.007812 115.53516,106.55469 c 1.11381,1.92739 3.90221,1.92845 5.01757,0.002 l 22.0586,-38.113281 c 0.51723,-0.893921 0.51723,-1.994751 0,-2.888671 l -22.0586,-38.109376 c -0.24515,-0.423583 -0.5942,-0.764346 -0.99804,-1.011718 z"/>
  <path style="opacity:0.2;fill:#ffffff;color:#000000" d="M 73.923828 26 C 72.889412 26.000204 71.933276 26.551578 71.416016 27.445312 L 49.388672 65.537109 C 49.026529 66.163164 48.950536 66.849116 49.060547 67.496094 C 49.117333 67.169414 49.210332 66.845414 49.388672 66.537109 L 71.416016 28.445312 C 71.933276 27.551578 72.889412 27.000204 73.923828 27 L 118.04492 27 C 119.07934 27.000204 120.03547 27.551575 120.55273 28.445312 L 142.61133 66.554688 C 142.78282 66.851069 142.87582 67.173211 142.93359 67.5 C 143.05063 66.840578 142.9574 66.152805 142.61133 65.554688 L 120.55273 27.445312 C 120.03547 26.551575 119.07934 26.000204 118.04492 26 L 73.923828 26 z M 40.966797 84 A 2.8971249 2.8887648 0 0 0 38.457031 85.443359 L 16.595703 123.20117 L 16.847656 122.94922 A 2.8971249 2.8887648 0 0 0 16.167969 125.32812 A 2.8971249 2.8887648 0 0 1 16.847656 123.94922 L 16.595703 124.20117 L 38.457031 86.443359 A 2.8971249 2.8887648 0 0 1 40.966797 85 L 85.085938 85 A 2.8971249 2.8887648 0 0 1 87.9375 87.392578 A 2.8971249 2.8887648 0 0 0 85.085938 84 L 40.966797 84 z M 151.05078 84 C 150.01655 84.000203 149.06014 84.54981 148.54297 85.443359 L 127.33789 122 L 84.894531 122 C 83.020184 122.00007 81.75807 123.77568 82.060547 125.48633 C 82.288456 124.14948 83.389631 123.00005 84.894531 123 L 127.33789 123 L 148.54297 86.443359 C 149.06014 85.54981 150.01655 85.000203 151.05078 85 C 152.08501 85.000203 153.03947 85.54981 153.55664 86.443359 L 175.61328 124.56445 C 175.78451 124.86038 175.87771 125.18145 175.93555 125.50781 C 176.052 124.84893 175.95896 124.16187 175.61328 123.56445 L 153.55664 85.443359 C 153.03947 84.54981 152.08501 84.000203 151.05078 84 z M 66.693359 125.49023 L 66.404297 125.99023 L 87.613281 162.66992 A 2.8971249 2.8887648 0 0 1 87.955078 163.60742 A 2.8971249 2.8887648 0 0 0 87.613281 161.66992 L 66.693359 125.49023 z "/>
</svg>
