<?xml version='1.0' encoding='utf-8'?>
<svg xmlns="http://www.w3.org/2000/svg" width="192" height="192" version="1" id="svg16">
  <defs>
    <filter style="color-interpolation-filters:sRGB" id="filter867" x="0.05" width="1.10" y="0.05" height="1.10">
      <feGaussianBlur stdDeviation="3.20"/>
    </filter>
    <filter style="color-interpolation-filters:sRGB" id="filter3859" x="0.08" y="0.07" width="1.16" height="1.14">
      <feGaussianBlur stdDeviation="2.59"/>
    </filter>
  </defs>
  <rect ry="80" rx="80" height="160" width="160" y="-176" x="-180" transform="matrix(0,-1,-1,0,0,0)" style="filter:url(#filter867);opacity:0.20;fill:#000000"/>
  <rect style="fill:#366cca" transform="matrix(0,-1,-1,0,0,0)" x="-176" y="-176" width="160" height="160" rx="80" ry="80"/>
  <path style="opacity:0.20;fill:#ffffff" d="M 96 16 C 51.68 16 16 51.68 16 96 C 16 96.34 16.00 96.67 16 97 C 16 52.68 51.68 17 96 17 C 140.32 17 176 52.68 176 97 C 176.00 96.67 176 96.34 176 96 C 176 51.68 140.32 16 96 16 z "/>
  <path style="filter:url(#filter3859);opacity:0.20;fill:#000000" d="m 96.25,54.00 c -10.19,0.03 -22.28,2.54 -35.05,7.29 -4.34,1.61 -5.26,1.91 -5.62,2.88 0.37,1.47 0.55,3.12 0.57,4.57 0.01,1.33 0.12,2.48 0.39,3.14 L 55.80,72.86 C 61.81,71.47 67.88,70.47 74,69.71 v 35.90 35.39 c 0,0 5.35,1.02 8.41,1 3.06,0.02 8.59,-1 8.59,-1 V 124.12 107.97 h 0.53 c 2.43,0.11 3.86,1.17 4.86,2.81 1.61,2.64 4.90,8.37 8.49,14.83 4.81,8.66 8.97,15.56 9.23,15.70 1.52,0.85 12.19,0.94 15.40,0.13 4.25,-1.12 3.51,-5.90 3.48,-8.68 l 0.02,-1.92 -2.41,0.38 c -2.89,0.46 -5.18,-1.27 -6.31,-2.22 0.46,0.38 -1.66,-2.18 -2.67,-3.99 -2.57,-4.62 -5.16,-8.99 -8.39,-14.18 -1.53,-2.45 -2.73,-4.49 -2.67,-4.54 0.06,0.04 0.90,0.39 1.86,0.76 2.47,0.97 5.40,-2.43 7.56,-4.19 7.62,-6.19 10.18,-15.87 8.74,-25.12 -2.01,-10.58 -11.12,-18.01 -20.27,-20.28 -2.84,0.67 -6.51,-1.04 -10.15,-1.15 0.66,0.02 -1.33,0.03 -2.01,0.03 z m -5.25,13 h 4.77 c 2.62,0 5.46,0.14 6.30,0.32 2.88,0.61 5.21,1.97 6.92,4.04 2.57,3.12 3.00,7.14 3.00,9.97 0.12,3.97 -1.00,7.65 -3.72,10.27 -1.16,1.09 -2.58,1.93 -4.38,2.62 -1.53,0.59 -2.34,0.68 -6.81,0.75 -2.79,0.05 -5.30,0.02 -5.58,0.06 C 91.03,94.77 91,93.85 91,80.88 Z"/>
  <path style="fill:#ffffff" d="m 96.25,52 c -10.19,0.03 -22.28,2.54 -35.05,7.29 -4.34,1.61 -5.26,1.91 -5.62,2.88 0.37,1.47 0.55,3.12 0.57,4.57 0.01,1.33 0.12,2.48 0.39,3.14 l 0.41,0.98 C 61.81,69.47 67.88,68.47 74,67.71 V 103.61 139 c 0,0 5.35,1.02 8.41,1 C 85.46,139.98 91,139 91,139 v -16.88 -16.15 h 0.53 c 2.43,0.11 3.86,1.17 4.86,2.81 1.61,2.64 4.90,8.37 8.49,14.83 4.81,8.66 8.97,15.56 9.23,15.70 1.52,0.85 12.19,0.94 15.40,0.13 4.25,-1.12 3.51,-5.90 3.48,-8.68 l 0.02,-1.92 -2.41,0.38 c -2.89,0.46 -5.18,-1.27 -6.31,-2.22 0.46,0.38 -1.66,-2.18 -2.67,-3.99 -2.57,-4.62 -5.16,-8.99 -8.39,-14.18 -1.53,-2.45 -2.73,-4.49 -2.67,-4.54 0.06,0.04 0.90,0.39 1.86,0.76 2.47,0.97 5.40,-2.43 7.56,-4.19 7.62,-6.19 10.18,-15.87 8.74,-25.12 C 126.67,62.88 117.56,55.45 108.40,53.18 105.57,52.50 101.90,52.14 98.26,52.03 97.60,52.01 96.93,52.00 96.25,52 Z M 91,65 h 4.77 c 2.62,0 5.46,0.14 6.30,0.32 2.88,0.61 5.21,1.97 6.92,4.04 2.57,3.12 3.00,7.14 3.00,9.97 0.12,3.97 -1.00,7.65 -3.72,10.27 -1.16,1.09 -2.58,1.93 -4.38,2.62 -1.53,0.59 -2.34,0.68 -6.81,0.75 -2.79,0.05 -5.30,0.02 -5.58,0.06 C 91.03,92.77 91,91.85 91,78.88 Z"/>
</svg>
