<?xml version='1.0' encoding='utf-8'?>
<svg xmlns="http://www.w3.org/2000/svg" width="192" height="192" version="1.1" id="svg14">
  <defs>
    <filter style="color-interpolation-filters:sRGB" id="filter849" x="0.05" y="0.05" width="1.10" height="1.10">
      <feGaussianBlur stdDeviation="3.20"/>
    </filter>
    <filter style="color-interpolation-filters:sRGB" id="filter993" x="0.03" y="0.09" width="1.06" height="1.18">
      <feGaussianBlur stdDeviation="1.30"/>
    </filter>
  </defs>
  <path style="filter:url(#filter849);opacity:0.20" d="M 21.95,18 C 18.65,18 16,20.66 16,23.96 V 50 74 98 c 0,6.68 2.03,12.87 5.50,17.98 8.26,12.29 20.07,27.62 33.38,39.98 5.06,5.13 10.94,9.63 17.01,13.23 2.56,1.60 5.13,3.07 7.73,4.28 C 84.41,176.34 90.00,178 96,178 H 117.95 120 121.89 144 170.05 c 1.50,0 2.85,0.57 3.90,-1.48 0.00,0.00 0.01,0.00 0.02,0.01 0.01,0.01 0.02,0.02 0.02,0.02 0.26,0.24 0.50,0.49 0.72,0.77 0.04,0.06 0.09,0.11 0.13,0.16 0.20,0.27 0.36,0.56 0.52,0.87 0.03,0.06 0.07,0.12 0.10,0.18 0.14,0.31 0.25,0.64 0.34,0.98 0.02,0.07 0.05,0.14 0.06,0.22 0.09,0.41 0.14,0.83 0.14,-1.27 V 171.02 146 122 98 c 0,-1.47 0.14,-2.92 0.33,-4.34 0.05,0.38 0.10,0.75 0.16,-1.12 0.23,-1.37 0.53,-2.73 0.93,-4.03 0.01,0.02 0.01,0.03 0.02,0.05 0.03,0.09 0.07,0.16 0.09,0.25 0.40,-1.26 0.89,-2.47 -1.44,-3.65 0.15,0.32 0.30,0.64 0.46,0.95 0.62,-1.23 -1.29,-2.43 -2.05,-3.56 0.01,0.01 0.01,0.02 0.02,0.03 C 167.13,74.71 163.39,69.54 159.34,64.76 152.32,55.76 144.27,46.48 135.46,38.55 127.40,31.47 118.97,25.52 110.88,21.88 105.92,19.72 100.94,18.31 96,18 H 72 48 Z"/>
  <path style="fill:#125072" d="M 21.95,14 C 18.65,14 16,16.66 16,19.96 V 46 70 94 c 0,6.68 2.03,12.87 5.50,17.98 16.27,24.19 46.23,60.24 74.50,62.02 h 24 1.89 l 3.71,0.80 h 24 22.05 c 0.82,0 1.59,0.25 2.30,0.68 0.00,0.00 0.01,0.00 0.02,0.01 C 175.21,171.42 176,169.83 176,168.04 V 142 118 94 C 176,87.32 173.97,81.13 170.50,76.02 161.90,63.22 149.45,47.15 135.46,34.55 127.40,27.47 118.97,21.52 110.88,17.88 105.92,15.72 100.94,14.31 96,14 H 72 48 Z"/>
  <path style="fill:#ffffff" d="M 45.95,38 C 42.65,38 40,40.66 40,43.96 V 70 94 125.60 C 43.69,149.70 75.42,172.14 96,174 h 21.95 l 1.26,0.40 h 24 26.85 c 3.30,0 5.89,-3.28 5.95,-6.59 V 142 118 94 C 176,87.32 173.97,81.13 170.50,76.02 158.36,56.88 141.88,38.96 120,38 H 96 72 Z"/>
  <path style="fill:#00cae5" d="M 69.95,62 C 66.65,62 64,64.66 64,67.96 V 94 98 h 40 V 78 l 56,34 -56,34 V 126 H 64 v 16 c 0,17.73 14.27,32 32,32 h 24 24 26.05 C 173.35,174 176,171.34 176,168.04 V 142 118 94 C 176,76.27 161.73,62 144,62 H 120 96 Z"/>
  <path style="opacity:0.10;fill:#ffffff" d="M 21.95 14 C 18.65 14 16 16.66 16 19.96 L 16 20.96 C 16 17.66 18.65 15 21.95 15 L 48 15 L 72 15 L 96 15 C 100.94 15.31 105.92 16.72 110.88 18.88 C 118.97 22.52 127.40 28.47 135.46 35.55 C 149.45 48.15 161.90 64.22 170.50 77.02 C 173.97 82.13 176 88.32 176 95 L 176 94 C 176 87.32 173.97 81.13 170.50 76.02 C 161.90 63.22 149.45 47.15 135.46 34.55 C 127.40 27.47 118.97 21.52 110.88 17.88 C 105.92 15.72 100.94 14.31 96 14 L 72 14 L 48 14 L 21.95 14 z "/>
  <path style="filter:url(#filter993);opacity:0.20" d="M 156.70 114 L 104 146 L 104 148 L 156.70 116 L 158.35 117 L 160 116 L 156.70 114 z M 64 126 L 64 128 L 104 128 L 104 126 L 64 126 z "/>
</svg>
