<?xml version='1.0' encoding='utf-8'?>
<svg xmlns="http://www.w3.org/2000/svg" width="192" height="192" version="1" id="svg14">
  <defs>
    <filter style="color-interpolation-filters:sRGB" id="filter850" x="0.05" width="1.10" y="0.05" height="1.10">
      <feGaussianBlur stdDeviation="3.20"/>
    </filter>
    <filter style="color-interpolation-filters:sRGB" id="filter11152" x="0.09" y="0.13" width="1.19" height="1.25">
      <feGaussianBlur stdDeviation="4.34"/>
    </filter>
  </defs>
  <circle style="filter:url(#filter850);opacity:0.20;fill:#000000" cx="96" cy="100" r="80"/>
  <circle r="80" cy="96" cx="96" style="fill:#0091eb"/>
  <path style="fill:#38adfa" d="m 688.81,257.00 c 0.33,0.33 -1.19,0.37 -1.92,0.08 0.80,0.32 0.56,0.56 0.60,0.60 1.05,0.04 1.64,0.19 1.31,0.53 z"/>
  <path style="opacity:0.20;fill:#ffffff" d="M 96 16 A 80 80 0 0 0 16 96 A 80 80 0 0 0 16.02 96.47 A 80 80 0 0 1 96 17 A 80 80 0 0 1 175.97 96.51 A 80 80 0 0 0 176 96 A 80 80 0 0 0 96 16 z "/>
  <path style="filter:url(#filter11152);opacity:0.20;fill:#000000" d="m 86.64,53.00 c -6.95,0.12 -12.66,1.97 -17.91,5.94 -2.96,2.27 -5.48,5.05 -7.37,8.20 -1.64,2.72 -3.59,8.10 -3.89,10.72 l 0.20,1.73 -1.39,0.50 c -3.77,1.36 -8.55,5.34 -11.02,9.18 -1.52,2.36 -2.88,5.81 -3.52,8.90 0.55,2.68 0.40,7.40 0.34,10.46 2.03,8.39 8.93,15.41 17.38,17.70 2.63,0.71 2.52,0.74 2.28,0.70 0.12,0.70 0.32,-2.59 0.45,-4.20 0.13,-1.61 0.29,-2.96 0.35,-3 0.06,0.04 -1.11,0.56 -2.34,-1.17 -5.26,-2.58 -8.37,-7.14 -8.93,-13.07 0.30,-3.23 0.06,-5.51 1.30,-8.19 2.06,-4.44 5.98,-7.79 10.52,-9.00 2.44,0.65 6.37,0.60 8.64,0.11 l 1.64,0.51 1.74,-2.30 c 0.14,0.19 0.26,0.32 0.34,0.44 0.78,-1.06 -3.66,-4.06 -5.44,-5.19 -1.79,-1.14 -1.81,-1.22 -1.03,-3.89 1.38,-4.72 6.10,-10.25 10.65,-12.50 3.81,-1.88 6.87,-2.55 10.71,-2.35 5.86,0.30 9.97,2.14 14.17,6.33 2.98,2.98 4.61,5.73 5.63,9.49 0.17,0.63 0.29,1.06 0.41,1.37 0.09,0.21 0.23,0.53 0.36,0.83 h 2.38 c 0.25,0.31 0.51,0.65 0.65,0.85 0.78,-1.07 1.79,-2.96 2.13,-4.12 l 0.39,-1.84 1.85,0.09 c 3.50,0.17 7.02,1.33 9.66,4.11 2.77,2.92 4.05,6.79 4.05,11.17 0,2.45 0.01,2.47 0.82,2.65 3.55,0.79 6.96,2.56 8.91,4.64 3.30,3.52 4.70,8.94 3.50,13.57 0.59,2.25 -1.52,3.85 -3.53,6.03 -1.42,1.54 -5.35,7.29 -7.69,11.25 L 130.52,127 l 1.62,0.19 c 7.22,0.85 14.37,-6.59 17.34,-13.92 1.64,-4.04 2.00,-9.94 0.88,-14.20 -1.55,-5.91 -6.03,-11.44 -11.50,-14.21 l -1.68,0.85 0.50,-2.33 c -2.08,-9.63 -10.79,-17.28 -20.50,-17.36 -1.34,0.01 -3.08,0.08 -3.87,0.20 l -1.43,0.22 -2.12,-1.81 C 102.62,55.67 93.55,53.13 86.64,53.00 Z M 83,104 a 16,16 0 0 0 -16,16 16,16 0 0 0 16,16 16,16 0 0 0 14.36,-9 H 123 l 4.78,-7.50 L 123,113 h -1.80 l -1.46,4 h -2.17 l -1.83,-4 h -2.66 l -1.28,4 h -2.07 l -1.48,-4 h -2.50 l -1.63,4 h -2.30 l -1.19,-4 H 97.38 A 16,16 0 0 0 83,104 Z m -5,12 a 4,4 0 0 1 4,4 4,4 0 0 1 -4,4 4,4 0 0 1 -4,-4 4,4 0 0 1 4,-4 z"/>
  <path style="fill:#ffffff" d="m 86.64,51.00 c -6.95,0.12 -12.66,1.97 -17.91,5.94 -2.96,2.27 -5.48,5.05 -7.37,8.20 -1.64,2.72 -3.59,8.10 -3.89,10.72 l 0.20,1.73 -1.39,0.50 c -3.77,1.36 -8.55,5.34 -11.02,9.18 -1.52,2.36 -2.88,5.81 -3.52,8.90 0.55,2.68 0.40,7.40 0.34,10.46 2.03,8.39 8.93,15.41 17.38,17.70 2.63,0.71 2.52,0.74 2.28,0.70 0.12,0.70 0.32,-2.59 0.45,-4.20 0.13,-1.61 0.29,-2.96 0.35,-3 0.06,0.04 -1.11,0.56 -2.34,-1.17 -5.26,-2.58 -8.37,-7.14 -8.93,-13.07 0.30,-3.23 0.06,-5.51 1.30,-8.19 2.06,-4.44 5.98,-7.79 10.52,-9.00 2.44,0.65 6.37,0.60 8.64,0.11 l 1.64,0.51 1.74,-2.30 c 0.14,0.19 0.26,0.32 0.34,0.44 0.78,-1.06 -3.66,-4.06 -5.44,-5.19 -1.79,-1.14 -1.81,-1.22 -1.03,-3.89 1.38,-4.72 6.10,-10.25 10.65,-12.50 3.81,-1.88 6.87,-2.55 10.71,-2.35 5.86,0.30 9.97,2.14 14.17,6.33 2.98,2.98 4.61,5.73 5.63,9.49 0.17,0.63 0.29,1.06 0.41,1.37 0.09,0.21 0.23,0.53 0.36,0.83 h 2.38 c 0.25,0.31 0.51,0.65 0.65,0.85 0.78,-1.07 1.79,-2.96 2.13,-4.12 l 0.39,-1.84 1.85,0.09 c 3.50,0.17 7.02,1.33 9.66,4.11 2.77,2.92 4.05,6.79 4.05,11.17 0,2.45 0.01,2.47 0.82,2.65 3.55,0.79 6.96,2.56 8.91,4.64 3.30,3.52 4.70,8.94 3.50,13.57 0.59,2.25 -1.52,3.85 -3.53,6.03 -1.42,1.54 -5.35,7.29 -7.69,11.25 L 130.52,125 l 1.62,0.19 c 7.22,0.85 14.37,-6.59 17.34,-13.92 1.64,-4.04 2.00,-9.94 0.88,-14.20 -1.55,-5.91 -6.03,-11.44 -11.50,-14.21 l -1.68,0.85 0.50,-2.33 c -2.08,-9.63 -10.79,-17.28 -20.50,-17.36 -1.34,0.01 -3.08,0.08 -3.87,0.20 l -1.43,0.22 -2.12,-1.81 C 102.62,53.67 93.55,51.13 86.64,51.00 Z M 83,102 a 16,16 0 0 0 -16,16 16,16 0 0 0 16,16 16,16 0 0 0 14.36,-9 H 123 l 4.78,-7.50 L 123,111 h -1.80 l -1.46,4 h -2.17 l -1.83,-4 h -2.66 l -1.28,4 h -2.07 l -1.48,-4 h -2.50 l -1.63,4 h -2.30 l -1.19,-4 H 97.38 A 16,16 0 0 0 83,102 Z m -5,12 a 4,4 0 0 1 4,4 4,4 0 0 1 -4,4 4,4 0 0 1 -4,-4 4,4 0 0 1 4,-4 z"/>
</svg>
