<?xml version='1.0' encoding='utf-8'?>
<svg xmlns="http://www.w3.org/2000/svg" width="192" height="192" version="1" id="svg28">
  <defs>
    <filter style="color-interpolation-filters:sRGB" id="filter6495" x="0.05" y="0.05" width="1.10" height="1.10">
      <feGaussianBlur stdDeviation="3.20"/>
    </filter>
    <filter style="color-interpolation-filters:sRGB" id="filter4283" x="0.08" y="0.07" width="1.15" height="1.15">
      <feGaussianBlur stdDeviation="2.92"/>
    </filter>
    <filter style="color-interpolation-filters:sRGB" id="filter4857" x="0.07" y="0.07" width="1.15" height="1.15">
      <feGaussianBlur stdDeviation="2.38"/>
    </filter>
  </defs>
  <rect transform="matrix(0,-1,-1,0,0,0)" ry="12" rx="12" y="-176" x="-180" height="160" width="160" style="filter:url(#filter6495);opacity:0.20;fill:#000000"/>
  <rect transform="matrix(0,-1,-1,0,0,0)" ry="12" rx="12" y="-176" x="-176" height="160" width="160" style="fill:#00d05d"/>
  <path style="opacity:0.20;fill:#ffffff" d="m 28,16 c -6.65,0 -12,5.35 -12,12 v 1 c 0,-6.65 5.35,-12 12,-12 h 136 c 6.65,0 12,5.35 12,12 v -1 c 0,-6.65 -5.35,-12 -12,-12 z"/>
  <path style="filter:url(#filter4283);opacity:0.20;fill:#000000;color:#000000" d="m 116.61,51.00 c -9.61,0 -18.86,3.25 -28.86,10.13 -18.33,12.62 -35.87,39.58 -37.63,57.79 0.48,4.99 0.43,11.05 2.17,14.51 1.85,3.67 5.57,7.64 9.00,9.61 5.91,3.39 12.77,2.27 15.22,-2.47 1.02,-1.98 3.73,-16.69 4.38,-22.68 0.55,-5.03 0.09,-6.76 -4.24,-9.35 -2.02,-1.21 -3.68,-2.51 -3.68,-2.88 0,-1.23 5.21,-9.62 8.64,-13.94 4.01,-5.04 9.97,-10.65 15.84,-14.44 3.83,-2.46 4.38,-2.65 4.96,-1.66 4.62,7.70 5.16,8.00 12.35,6.85 5.95,0.95 19.60,-4.16 21.82,-5.30 3.82,-1.97 5.38,-7.80 3.32,-12.44 -4.01,-9.05 -11.95,-13.73 -23.31,-13.73 z m 22.69,51.02 a 3,3 0 0 0 -3.29,2.68 c -1.26,12.29 -5.26,19.89 -11.03,25.14 -5.76,5.25 -13.56,8.20 -22.65,10.24 a 3,3 0 0 0 -2.27,3.58 3,3 0 0 0 3.58,2.27 c 9.57,-2.15 18.46,-5.37 25.37,-11.66 6.91,-6.29 11.59,-15.60 12.96,-28.96 a 3,3 0 0 0 -2.68,-3.29 z m -22.94,0.01 a 3,3 0 0 0 -3.15,1.85 c -2.03,5.01 -4.02,9.82 -11.19,12.29 a 3,3 0 0 0 -1.86,3.81 3,3 0 0 0 3.81,1.86 c 9.30,-3.19 12.71,-10.55 14.81,-15.71 a 3,3 0 0 0 -1.65,-3.91 3,3 0 0 0 0.76,0.20 z m 11.06,0.01 a 3,3 0 0 0 -3.40,2.54 c 0.59,4.05 -2.25,9.23 -5.61,13.67 -3.36,4.44 -8.32,8.22 -16.03,9.82 a 3,3 0 0 0 -2.33,3.55 3,3 0 0 0 3.55,2.33 c 9.09,-1.88 15.48,-6.62 19.60,-12.07 4.12,-5.45 6.05,-11.53 6.76,-16.44 a 3,3 0 0 0 -2.54,-3.40 z"/>
  <path style="fill:#00884f;color:#000000" d="M 116.61 49 C 107.00 49 97.75 52.25 87.75 59.13 C 69.43 71.75 51.88 98.71 50.13 116.92 C 49.65 121.91 50.56 127.97 52.30 131.43 C 54.15 135.10 57.87 139.07 61.30 141.04 C 67.21 144.43 74.08 143.31 76.52 138.57 C 77.55 136.59 80.25 121.88 80.91 115.89 C 81.46 110.86 81.00 109.13 76.67 106.54 C 74.64 105.33 72.99 104.03 72.99 103.66 C 72.99 102.43 78.19 94.03 81.63 89.72 C 85.64 84.68 91.59 79.07 97.47 75.29 C 101.30 72.82 101.85 72.64 102.44 73.62 C 107.05 81.32 107.60 81.62 114.79 80.47 C 120.74 79.52 134.39 76.32 136.61 75.17 C 140.43 73.20 141.98 67.37 139.93 62.73 C 135.92 53.68 127.97 49 116.61 49 z M 139.31 100.02 A 3 3 0 0 0 136.02 102.69 C 134.76 114.98 130.75 122.58 124.99 127.83 C 119.23 133.08 111.43 136.03 102.34 138.07 A 3 3 0 0 0 100.07 141.66 A 3 3 0 0 0 103.66 143.93 C 113.23 141.78 122.11 138.56 129.03 132.27 C 135.94 125.97 140.62 116.66 141.98 103.31 A 3 3 0 0 0 139.31 100.02 z M 116.37 100.02 A 3 3 0 0 0 113.22 101.87 C 111.19 106.89 109.20 111.70 102.03 114.16 A 3 3 0 0 0 100.16 117.97 A 3 3 0 0 0 103.97 119.84 C 113.27 116.64 116.69 109.29 118.78 104.13 A 3 3 0 0 0 117.13 100.22 A 3 3 0 0 0 116.37 100.02 z M 127.43 100.03 A 3 3 0 0 0 124.03 102.57 C 123.45 106.63 121.78 111.81 118.42 116.25 C 115.07 120.69 110.10 124.46 102.39 126.06 A 3 3 0 0 0 100.06 129.61 A 3 3 0 0 0 103.61 131.94 C 112.70 130.05 119.09 125.31 123.21 119.87 C 127.33 114.42 129.26 108.34 129.97 103.43 A 3 3 0 0 0 127.43 100.03 z "/>
  <circle r="38" cy="46" cx="43" style="filter:url(#filter4857);opacity:0.20;fill:#000000"/>
  <circle r="38" cy="43" cx="43" style="fill:#e4e4e4"/>
  <rect style="fill:#00884f" width="8" height="46" x="39" y="20"/>
  <rect style="fill:#00884f" width="8" height="46" x="39" y="-66" transform="rotate(90)"/>
</svg>
