<?xml version='1.0' encoding='utf-8'?>
<svg xmlns="http://www.w3.org/2000/svg" width="192" height="192" version="1" id="svg28">
  <defs>
    <filter style="color-interpolation-filters:sRGB" id="filter19454" x="0.05" y="0.05" width="1.10" height="1.10">
      <feGaussianBlur stdDeviation="3.20"/>
    </filter>
    <filter style="color-interpolation-filters:sRGB" id="filter69086" x="0.07" y="0.07" width="1.15" height="1.15">
      <feGaussianBlur stdDeviation="3.19"/>
    </filter>
    <filter style="color-interpolation-filters:sRGB" id="filter69242" x="0.06" y="0.06" width="1.12" height="1.12">
      <feGaussianBlur stdDeviation="3.56"/>
    </filter>
  </defs>
  <rect transform="matrix(0,-1,-1,0,0,0)" ry="30" rx="30" y="-176" x="-180" height="160" width="160" style="filter:url(#filter19454);opacity:0.20;fill:#000000"/>
  <rect transform="matrix(0,-1,-1,0,0,0)" ry="30" rx="30" y="-176" x="-176" height="160" width="160" style="fill:#5eab0e"/>
  <path style="filter:url(#filter69086);opacity:0.20;fill:#000000;color:#000000" d="m 96,47 c -27.99,0 -51,23.01 -51,51 0,27.99 23.01,51 51,51 27.99,0 51,-23.01 51,-51 0,-27.99 -23.01,-51 -51,-51 z m 0,30 c 11.78,0 21,9.22 21,21 0,11.78 -9.22,21 -21,21 -11.78,0 -21,-9.22 -21,-21 0,-11.78 9.22,-21 21,-21 z"/>
  <path style="fill:#ffda12;color:#000000" d="m 96,45 c -27.99,0 -51,23.01 -51,51 0,27.99 23.01,51 51,51 27.99,0 51,-23.01 51,-51 0,-27.99 -23.01,-51 -51,-51 z m 0,30 c 11.78,0 21,9.22 21,21 0,11.78 -9.22,21 -21,21 -11.78,0 -21,-9.22 -21,-21 0,-11.78 9.22,-21 21,-21 z"/>
  <path style="filter:url(#filter69242);opacity:0.20;fill:#000000;color:#000000" d="m 82.46,18.00 c 1.29,4.60 2.07,7.25 8.95,16.93 l 2.42,4.77 11.39,-3.44 C 104.60,34.23 103.74,32.40 103.06,30.55 101.39,25.98 97.43,22.28 95.99,18.00 Z M 141,26.00 120.27,36.07 97,47.38 a 49.45,49.52 0 0 0 44,27.62 V 62.12 49.07 Z M 28.86,47.13 22.79,58.21 c 10.45,5.23 16.84,10.31 23.54,15.40 L 54.44,62.63 C 44.65,55.72 36.04,50.44 28.86,47.13 Z m 139.47,44.85 -7.72,1.78 c -5.22,1.98 -10.21,5.60 -16.00,3.69 l 0.97,13.15 c 8.36,1.36 9.22,-1.92 15.80,-3.66 l 8.76,-2.32 z M 53.79,142.00 a 3.39,3.45 0 0 0 -1.31,0.19 l -7.61,2.73 -7.61,2.72 a 3.39,3.45 0 0 0 -1.08,5.87 l 6.13,5.33 6.12,5.34 a 3.39,3.45 0 0 0 5.54,-1.98 l 1.48,-8.06 1.48,-8.06 a 3.39,3.45 0 0 0 -3.15,-4.07 z M 148.50,148.00 a 7.50,7.50 0 0 0 -7.50,7.50 7.50,7.50 0 0 0 7.50,7.50 7.50,7.50 0 0 0 7.50,-7.50 7.50,7.50 0 0 0 -7.50,-7.50 z"/>
  <path style="fill:#0ee9dd;color:#000000" d="m 53.79,140.00 a 3.39,3.45 0 0 0 -1.31,0.19 l -7.61,2.73 -7.61,2.72 a 3.39,3.45 0 0 0 -1.08,5.87 l 6.13,5.33 6.12,5.34 a 3.39,3.45 0 0 0 5.54,-1.98 l 1.48,-8.06 1.48,-8.06 a 3.39,3.45 0 0 0 -3.15,-4.07 z"/>
  <circle style="fill:#ff7342" cx="148.50" cy="153.50" r="7.50"/>
  <path style="fill:#ffda12" transform="rotate(36.43)" d="m 50.02,19.17 c 7.74,-1.60 17.80,-2.47 29.78,-2.71 l 0,13.64 C 71.39,29.99 63.23,29.69 51.72,31.69 Z"/>
  <path style="fill:#0ee9dd" d="m 144.62,95.45 c 5.79,1.92 10.77,-1.71 16.00,-3.69 l 7.72,-1.78 1.82,12.63 -8.76,2.32 c -6.58,1.74 -7.44,5.02 -15.80,3.66 z"/>
  <path style="fill:#12db6c" d="M 82.46 16 C 83.75 20.60 84.54 23.25 91.41 32.93 L 93.83 37.70 L 105.22 34.26 C 104.60 32.23 103.74 30.40 103.06 28.55 C 101.39 23.98 97.43 20.28 95.99 16 L 82.46 16 z "/>
  <path style="opacity:0.10;fill:#ffffff" d="M 46 16 C 29.38 16 16 29.38 16 46 L 16 47 C 16 30.38 29.38 17 46 17 L 146 17 C 162.62 17 176 30.38 176 47 L 176 46 C 176 29.38 162.62 16 146 16 L 46 16 z "/>
  <path style="opacity:0.20;fill:#ffffff;color:#000000" d="M 96 45 C 68.01 45 45 68.01 45 96 C 45 96.17 45.01 96.33 45.01 96.50 C 45.29 68.74 68.18 46 96 46 C 123.97 46 146.97 68.98 147.00 96.95 C 151.80 97.38 156.12 94.47 160.61 92.76 L 168.33 90.98 L 170.01 102.65 L 170.15 102.62 L 168.33 89.98 L 160.61 91.76 C 156.12 93.47 151.80 96.38 147.00 95.95 C 146.97 67.98 123.97 45 96 45 z M 28.86 45.13 L 22.79 56.21 C 22.94 56.29 23.07 56.36 23.22 56.44 L 28.86 46.13 C 35.92 49.38 44.37 54.55 53.95 61.30 L 54.44 60.63 C 44.65 53.72 36.04 48.44 28.86 45.13 z M 75.03 96.50 C 75.02 96.67 75 96.83 75 97 C 75 108.78 84.22 118 96 118 C 107.78 118 117 108.78 117 97 C 117 96.83 116.98 96.67 116.97 96.50 C 116.71 108.03 107.61 117 96 117 C 84.39 117 75.29 108.03 75.03 96.50 z M 53.79 140.00 A 3.39 3.45 0 0 0 52.48 140.19 L 44.88 142.91 L 37.27 145.63 A 3.39 3.45 0 0 0 35.12 149.11 A 3.39 3.45 0 0 1 37.27 146.63 L 44.88 143.91 L 52.48 141.19 A 3.39 3.45 0 0 1 53.79 141.00 A 3.39 3.45 0 0 1 56.95 143.98 A 3.39 3.45 0 0 0 53.79 140.00 z "/>
  <path style="fill:#f23f37" d="M 141,24 97,45.38 A 49.45,49.52 0 0 0 141,73 Z"/>
  <path style="fill:#ffda12" d="M 141,24 108.56,39.76 A 36.58,36.64 0 0 0 141,60.12 Z"/>
  <path style="fill:#7854fb" d="M 141,24 120.27,34.07 A 23.56,23.59 0 0 0 141,47.07 Z"/>
</svg>
