<?xml version='1.0' encoding='utf-8'?>
<svg xmlns="http://www.w3.org/2000/svg" width="192" height="192" version="1" id="svg28">
  <defs>
    <filter style="color-interpolation-filters:sRGB" id="filter4734" x="0.03" y="0.12" width="1.06" height="1.24">
      <feGaussianBlur stdDeviation="2.24"/>
    </filter>
    <filter style="color-interpolation-filters:sRGB" id="filter4776" x="0.03" y="0.09" width="1.06" height="1.18">
      <feGaussianBlur stdDeviation="2.22"/>
    </filter>
    <filter style="color-interpolation-filters:sRGB" id="filter4818" x="0.05" y="0.05" width="1.10" height="1.10">
      <feGaussianBlur stdDeviation="3"/>
    </filter>
  </defs>
  <rect transform="matrix(0,-1,-1,0,0,0)" ry="16.87" rx="16.87" y="-171" x="-171" height="150" width="150" style="filter:url(#filter4818);opacity:0.20;fill:#000000"/>
  <path style="filter:url(#filter4776);opacity:0.20;fill:#000000" d="m 14,134 v 25.55 C 14,169.77 22.23,178 32.45,178 H 159.55 C 169.77,178 178,169.77 178,159.55 V 134 H 139.83 L 123.95,147.91 97.06,120.05 71.28,148.41 51.83,134 Z"/>
  <rect transform="matrix(0,-1,-1,0,0,0)" ry="16.87" rx="16.87" y="-171" x="-167" height="150" width="150" style="fill:#e136af"/>
  <path style="opacity:0.70;fill:#ffffff" d="m 81,31 v 10 h 30 V 31 Z m 0,14 v 10 h 30 V 45 Z m 0,14 v 10 h 30 V 59 Z m 37,0 v 10 h 30 V 59 Z M 81,73 v 10 h 30 V 73 Z m 37,0 v 10 h 30 V 73 Z M 44,87 V 97 H 74 V 87 Z m 37,0 v 10 h 30 V 87 Z m 37,0 v 10 h 30 V 87 Z m -74,14 v 10 h 30 v -10 z m 37,0 v 10 h 30 v -10 z m 37,0 v 10 h 30 v -10 z m -74,14 v 10 h 30 v -10 z m 37,0 v 10 h 30 v -10 z m 37,0 v 10 h 30 v -10 z m -74,14 v 10 h 30 v -10 z m 37,0 v 10 h 30 v -10 z m 37,0 v 10 h 30 v -10 z"/>
  <path style="fill:#d60351" d="m 14,130 v 25.55 C 14,165.77 22.23,174 32.45,174 H 159.55 C 169.77,174 178,165.77 178,155.55 V 130 H 139.83 L 123.95,143.91 97.06,116.05 71.28,144.41 51.83,130 Z"/>
  <path style="filter:url(#filter4734);opacity:0.20;fill:#000000;color:#000000" d="m 95.50,110.02 a 7,7 0 0 0 0.41,0.08 7,7 0 0 0 0.88,0.18 7,7 0 0 0 0.87,0.29 7,7 0 0 0 0.80,0.40 7,7 0 0 0 0.76,0.50 7,7 0 0 0 0.35,0.23 7,7 0 0 0 0.26,0.31 7,7 0 0 0 0.44,0.39 l -20.77,23.96 -8.87,-10.02 a 7.00,7.00 0 0 0 -5.24,-2.36 H 12 a 7,7 0 0 0 -7,7 7,7 0 0 0 7,7 h 40.68 l 12.08,13.64 a 7.00,7.00 0 0 0 10.53,0.06 L 96,127.69 l 20.71,23.90 a 7.00,7.00 0 0 0 10.53,0.06 l 12.08,-13.64 H 180 a 7,7 0 0 0 7,-7 7,7 0 0 0 -7,-7 h -43.83 a 7.00,7.00 0 0 0 -5.24,2.36 l -8.87,10.02 -20.77,-23.96 a 7,7 0 0 0 0.04,0.04 7,7 0 0 0 0.66,0.67 7,7 0 0 0 0.35,0.23 7,7 0 0 0 0.76,0.50 7,7 0 0 0 0.80,0.40 7,7 0 0 0 0.87,0.29 7,7 0 0 0 0.88,0.18 7,7 0 0 0 0.41,0.08 7,7 0 0 0 0.50,0.03 7,7 0 0 0 0.50,0.03 z"/>
  <path style="fill:#ffffff;color:#000000" d="m 95.50,107.02 a 7,7 0 0 0 0.41,0.08 7,7 0 0 0 0.88,0.18 7,7 0 0 0 0.87,0.29 7,7 0 0 0 0.80,0.40 7,7 0 0 0 0.76,0.50 7,7 0 0 0 0.35,0.23 7,7 0 0 0 0.26,0.31 7,7 0 0 0 0.44,0.39 L 69.94,133.38 61.07,123.36 A 7.00,7.00 0 0 0 55.83,121 H 12 a 7,7 0 0 0 -7,7 7,7 0 0 0 7,7 h 40.68 l 12.08,13.64 a 7.00,7.00 0 0 0 10.53,0.06 L 96,124.69 l 20.71,23.90 a 7.00,7.00 0 0 0 10.53,0.06 L 139.32,135 H 180 a 7,7 0 0 0 7,-7 7,7 0 0 0 -7,-7 h -43.83 a 7.00,7.00 0 0 0 -5.24,2.36 l -8.87,10.02 -20.77,-23.96 a 7,7 0 0 0 0.04,0.04 7,7 0 0 0 0.66,0.67 7,7 0 0 0 0.35,0.23 7,7 0 0 0 0.76,0.50 7,7 0 0 0 0.80,0.40 7,7 0 0 0 0.87,0.29 7,7 0 0 0 0.88,0.18 7,7 0 0 0 0.41,0.08 7,7 0 0 0 0.50,0.03 7,7 0 0 0 0.50,0.03 z"/>
  <path style="opacity:0.20;fill:#ffffff" d="M 37.88 17 C 28.53 17 21 24.53 21 33.88 L 21 34.88 C 21 25.53 28.53 18 37.88 18 L 154.12 18 C 163.47 18 171 25.53 171 34.88 L 171 33.88 C 171 24.53 163.47 17 154.12 17 L 37.88 17 z "/>
</svg>
