<?xml version='1.0' encoding='utf-8'?>
<svg xmlns="http://www.w3.org/2000/svg" width="192" height="192" version="1.1" id="svg14">
  <defs>
    <filter style="color-interpolation-filters:sRGB" id="filter857" x="0.05" width="1.10" y="0.05" height="1.10">
      <feGaussianBlur stdDeviation="3.20"/>
    </filter>
    <filter style="color-interpolation-filters:sRGB" id="filter873" x="0.05" width="1.10" y="0.05" height="1.09">
      <feGaussianBlur stdDeviation="1.96"/>
    </filter>
  </defs>
  <circle cy="100" cx="96" style="filter:url(#filter857);opacity:0.20" r="80"/>
  <circle cy="96" cx="96" style="fill:#cb1e1d" r="80"/>
  <path style="filter:url(#filter873);opacity:0.20" d="m 64,48 v 104 l 16,-9.05 V 76 l 44,24 -32,16 v 20.17 L 156,100 Z"/>
  <path style="fill:#ffffff" d="m 64,44 v 104 l 16,-9.05 V 72 l 44,24 -32,16 v 20.17 L 156,96 Z"/>
  <path style="opacity:0.10;fill:#ffffff" d="M 96 16 A 80 80 0 0 0 16 96 A 80 80 0 0 0 16.02 96.59 A 80 80 0 0 1 96 17 A 80 80 0 0 1 175.98 96.41 A 80 80 0 0 0 176 96 A 80 80 0 0 0 96 16 z "/>
</svg>
