<?xml version='1.0' encoding='utf-8'?>
<svg xmlns="http://www.w3.org/2000/svg" width="192" height="192" version="1" id="svg14">
  <defs>
    <filter style="color-interpolation-filters:sRGB" id="filter850" x="0.05" width="1.10" y="0.05" height="1.10">
      <feGaussianBlur stdDeviation="3.20"/>
    </filter>
    <filter style="color-interpolation-filters:sRGB" id="filter2189" x="0.10" y="0.24" width="1.20" height="1.47">
      <feGaussianBlur stdDeviation="5.13"/>
    </filter>
  </defs>
  <circle style="filter:url(#filter850);opacity:0.20;fill:#000000" cx="96" cy="100" r="80"/>
  <circle r="80" cy="96" cx="96" style="fill:#f54355"/>
  <path style="opacity:0.20;fill:#ffffff" d="M 96 16 A 80 80 0 0 0 16 96 A 80 80 0 0 0 16.02 96.47 A 80 80 0 0 1 96 17 A 80 80 0 0 1 175.97 96.51 A 80 80 0 0 0 176 96 A 80 80 0 0 0 96 16 z "/>
  <path style="filter:url(#filter2189);opacity:0.20;fill:#000000" d="m 91.80,72.01 c -5.72,0.15 -10.75,1.41 -15.87,3.89 -4.73,2.28 -9.00,5.48 -11.61,8.70 -2.88,3.55 -6.98,7.07 -9.90,8.50 -2.40,1.17 -5.09,1.93 -13.55,1.90 -2.03,0.01 -13.77,0.01 -24.67,0.02 A 80,80 0 0 0 16,98.00 a 80,80 0 0 0 0.21,2.98 c 10.87,0.01 22.56,0.03 24.56,0.02 8.45,0.04 11.28,0.75 13.64,1.91 2.93,1.44 7.03,4.95 9.91,8.51 4.30,5.30 12.64,10.13 20.37,11.79 5.08,1.09 11.43,1.04 18.33,0.13 17.54,-2.99 29.98,-10.64 34.02,-20.52 1.35,-3.30 1.35,-5.80 0,-9.10 C 132.99,83.59 120.56,75.94 103.02,72.94 98.92,72.24 95.23,71.93 91.80,72.01 Z m 0.62,6.99 c 0.63,0.00 1.34,0.02 2.15,0.04 4.39,0.13 6.60,0.41 11.16,1.41 2.54,0.56 5.26,1.36 3.91,1.15 -4.73,0.74 -11.09,-1.08 -15.14,0.81 -5.43,0.36 -8.67,1.18 -12.88,3.25 -1.14,0.58 -1.98,1.28 -3.03,0.79 0.56,0.41 0.73,-1.00 0.49,-1.70 0.37,-1.05 5.97,-3.22 9.96,-3.86 0.84,0.13 1.65,0.22 2.66,0.25 0.50,0.02 1.06,0.02 1.69,0.02 z"/>
  <path style="fill:#ffffff" d="M 91.80 70.01 C 86.08 70.16 81.05 71.43 75.93 73.90 C 71.20 76.19 66.93 79.38 64.32 82.60 C 61.45 86.15 57.35 89.67 54.43 91.10 C 52.03 92.28 49.33 93.04 40.88 93 C 38.85 92.99 27.11 93.01 16.21 93.02 A 80 80 0 0 0 16 96 A 80 80 0 0 0 16.21 98.98 C 27.08 98.99 38.77 99.01 40.77 99 C 49.22 98.96 52.04 99.75 54.41 100.91 C 57.35 102.35 61.44 105.87 64.32 109.42 C 68.62 114.73 76.96 119.56 84.69 121.21 C 89.77 122.31 96.12 122.26 103.02 121.08 C 120.56 118.09 132.99 110.44 137.04 100.56 C 138.39 97.26 138.39 94.76 137.04 91.46 C 132.99 81.59 120.56 73.94 103.02 70.94 C 98.92 70.24 95.23 69.93 91.80 70.01 z M 92.42 77 C 93.05 77.00 93.76 77.02 94.57 77.04 C 98.96 77.17 101.17 77.45 105.73 78.46 C 108.28 79.02 110.99 79.82 109.64 79.61 C 104.91 78.86 98.55 78.52 94.50 78.79 C 89.07 79.16 85.84 79.98 81.62 82.05 C 80.48 82.63 79.64 83.32 78.60 82.84 C 78.03 82.42 77.86 81.83 78.11 81.14 C 78.48 80.09 84.08 77.91 88.07 77.28 C 88.91 77.14 89.72 77.06 90.73 77.02 C 91.24 77.00 91.79 77.00 92.42 77 z "/>
</svg>
