<?xml version='1.0' encoding='utf-8'?>
<svg xmlns="http://www.w3.org/2000/svg" width="192" height="192" version="1" id="svg14">
  <defs>
    <filter style="color-interpolation-filters:sRGB" id="filter850" x="0.05" width="1.10" y="0.05" height="1.10">
      <feGaussianBlur stdDeviation="3.20"/>
    </filter>
    <filter style="color-interpolation-filters:sRGB" id="filter6343" x="0.13" y="0.09" width="1.25" height="1.19">
      <feGaussianBlur stdDeviation="4.09"/>
    </filter>
  </defs>
  <circle style="filter:url(#filter850);opacity:0.20;fill:#000000" cx="96" cy="100" r="80"/>
  <circle r="80" cy="96" cx="96" style="fill:#e4e4e4"/>
  <path style="filter:url(#filter6343);opacity:0.20;fill:#000000" d="m 70,48.00 a 13,13 0 0 0 -13,13 13,13 0 0 0 13,13 13,13 0 0 0 13,-13 13,13 0 0 0 -13,-13 z m 13,13 a 13,13 0 0 0 13,13 13,13 0 0 0 13,-13 13,13 0 0 0 -13,-13 13,13 0 0 0 -13,13 z m 26,0 a 13,13 0 0 0 13,13 13,13 0 0 0 13,-13 13,13 0 0 0 -13,-13 13,13 0 0 0 -13,13 z m 12,18 a 13,13 0 0 0 -13,13 v 22.00 c 0,6.61 -4.99,11.77 -11.60,11.99 -6.61,0.22 -11.93,-4.60 -12.37,-11.20 A 13,13 0 0 0 70.19,102.69 13,13 0 0 0 58.08,116.52 c 1.35,20.31 18.83,36.14 39.18,35.46 C 117.61,151.30 134,134.36 134,114.00 V 92.00 a 13,13 0 0 0 -13,-13 z"/>
  <path style="fill:#38adfa" d="m 688.81,257.00 c 0.33,0.33 -1.19,0.37 -1.92,0.08 0.80,0.32 0.56,0.56 0.60,0.60 1.05,0.04 1.64,0.19 1.31,0.53 z"/>
  <path style="opacity:0.20;fill:#ffffff" d="M 96 16 A 80 80 0 0 0 16 96 A 80 80 0 0 0 16.02 96.47 A 80 80 0 0 1 96 17 A 80 80 0 0 1 175.97 96.51 A 80 80 0 0 0 176 96 A 80 80 0 0 0 96 16 z "/>
  <path style="fill:#fda916" d="M 109,59 A 13,13 0 0 1 96,72 13,13 0 0 1 83,59 13,13 0 0 1 96,46 13,13 0 0 1 109,59 Z"/>
  <path style="fill:#fda916" d="M 83,59 A 13,13 0 0 1 70,72 13,13 0 0 1 57,59 13,13 0 0 1 70,46 13,13 0 0 1 83,59 Z"/>
  <path style="fill:#fda916" d="M 135,59 A 13,13 0 0 1 122,72 13,13 0 0 1 109,59 13,13 0 0 1 122,46 13,13 0 0 1 135,59 Z"/>
  <path style="fill:#fda916;color:#000000" d="M 121 77 A 13 13 0 0 0 108 90 L 108 112 C 108 118.61 103.01 123.77 96.40 123.99 C 89.79 124.21 84.47 119.39 84.03 112.79 A 13 13 0 0 0 70.19 100.69 A 13 13 0 0 0 58.08 114.52 C 59.43 134.83 76.91 150.65 97.26 149.98 C 117.61 149.30 134 132.36 134 112 L 134 90 A 13 13 0 0 0 121 77 z "/>
</svg>
