<?xml version='1.0' encoding='utf-8'?>
<svg xmlns="http://www.w3.org/2000/svg" width="192" height="192" version="1" id="svg12">
  <defs>
    <filter style="color-interpolation-filters:sRGB" id="filter862" x="0.05" width="1.10" y="0.05" height="1.10">
      <feGaussianBlur stdDeviation="3.20"/>
    </filter>
    <filter height="1.26" y="0.13" width="1.06" x="0.03" id="filter899" style="color-interpolation-filters:sRGB">
      <feGaussianBlur stdDeviation="1.60"/>
    </filter>
  </defs>
  <rect style="filter:url(#filter862);opacity:0.20;fill:#000000" width="160" height="160" x="-180" y="-176" rx="8" ry="8" transform="matrix(0,-1,-1,0,0,0)"/>
  <rect transform="matrix(0,-1,-1,0,0,0)" ry="8" rx="8" y="-176" x="-176" height="160" width="160" style="fill:#4f4f4f"/>
  <path style="opacity:0.10;fill:#ffffff" d="M 24,16 C 19.57,16 16,19.57 16,24 V 25 C 16,20.57 19.57,17 24,17 H 168 C 172.43,17 176,20.57 176,25 V 24 C 176,19.57 172.43,16 168,16 Z"/>
  <path d="M 108,84 V 114 H 116 V 92 H 124 V 114 H 132 V 92 C 132,87.60 128.40,84 124,84 Z M 138,92 V 106 C 138,110.40 141.60,114 146,114 H 154 C 158.40,114 162,110.40 162,106 V 92 C 162,87.60 158.40,84 154,84 H 146 C 141.60,84 138,87.60 138,92 Z M 154,106 H 146 V 92 H 154 Z M 78,92 V 106 C 78,110.40 81.60,114 86,114 H 94 C 98.40,114 102,110.40 102,106 V 92 C 102,87.60 98.40,84 94,84 H 86 C 81.60,84 78,87.60 78,92 Z M 94,106 H 86 V 92 H 94 Z M 60,84 C 57,84 54.20,85.20 52,87 49.80,85 47,84 44,84 H 38 32 V 114 H 40 V 96 C 40,93.80 41.80,92 44,92 46.20,92 48,93.80 48,96 V 114 114 H 56 V 114 96 C 56,93.80 57.80,92 60,92 62.20,92 64,93.80 64,96 V 114 H 72 V 96 C 72,89.40 66.60,84 60,84 Z" style="filter:url(#filter899);opacity:0.20"/>
  <path style="fill:#ffffff" fill="#757575" d="M 60,82 C 57,82 54.20,83.20 52,85 49.80,83 47,82 44,82 H 38 32 V 112 H 40 V 94 C 40,91.80 41.80,90 44,90 46.20,90 48,91.80 48,94 V 112 112 H 56 V 112 94 C 56,91.80 57.80,90 60,90 62.20,90 64,91.80 64,94 V 112 H 72 V 94 C 72,87.40 66.60,82 60,82 Z"/>
  <path style="fill:#ffffff" fill="#757575" d="M 78,90 V 104 C 78,108.40 81.60,112 86,112 H 94 C 98.40,112 102,108.40 102,104 V 90 C 102,85.60 98.40,82 94,82 H 86 C 81.60,82 78,85.60 78,90 Z M 94,104 H 86 V 90 H 94 Z"/>
  <path style="fill:#ffffff" d="M 138,90 V 104 C 138,108.40 141.60,112 146,112 H 154 C 158.40,112 162,108.40 162,104 V 90 C 162,85.60 158.40,82 154,82 H 146 C 141.60,82 138,85.60 138,90 Z M 154,104 H 146 V 90 H 154 Z" fill="#757575"/>
  <path style="fill:#ffffff" fill="#757575" d="M 108,82 V 112 H 116 V 90 H 124 V 112 H 132 V 90 C 132,85.60 128.40,82 124,82 Z"/>
</svg>
