<?xml version='1.0' encoding='utf-8'?>
<svg xmlns="http://www.w3.org/2000/svg" width="192" height="192" version="1.1" id="svg12">
  <defs>
    <filter style="color-interpolation-filters:sRGB" id="filter852" x="0.05" width="1.10" y="0.05" height="1.10">
      <feGaussianBlur stdDeviation="3.20"/>
    </filter>
    <filter style="color-interpolation-filters:sRGB" id="filter868" x="0.06" width="1.12" y="0.04" height="1.08">
      <feGaussianBlur stdDeviation="1.92"/>
    </filter>
  </defs>
  <path style="filter:url(#filter852);opacity:0.20" d="M 81.19,178.72 C 44.90,172.18 18.43,142.54 16.15,105.90 13.17,57.81 53.80,17.16 101.85,20.16 c 18.83,1.17 36.11,8.55 49.44,21.09 16.15,15.21 24.66,34.57 24.71,56.22 0.02,10.38 -1.36,16.82 -6.16,28.72 -1.97,4.89 -4.12,10.82 -4.76,13.18 -2.48,9.05 0.96,18.39 4.87,29.89 1.89,3.72 3.24,6.96 3.01,7.19 0.23,0.23 -4.01,0.94 -8.40,-2.61 -16.40,-6.22 -22.74,-6.26 -37.46,0.26 -15.17,6.18 -30.55,7.91 -45.90,5.14 z"/>
  <path style="fill:#465c66" d="M 81.19,174.72 C 44.90,168.18 18.43,138.54 16.15,101.90 13.17,53.81 53.80,13.16 101.85,16.16 c 18.83,1.17 36.11,8.55 49.44,21.09 16.15,15.21 24.66,34.57 24.71,56.22 0.02,10.38 -1.36,16.82 -6.16,28.72 -1.97,4.89 -4.12,10.82 -4.76,13.18 -2.48,9.05 0.96,18.39 4.87,29.89 1.89,3.72 3.24,6.96 3.01,7.19 0.23,0.23 -4.01,0.94 -8.40,-2.61 -16.40,-6.22 -22.74,-6.26 -37.46,0.26 -15.17,6.18 -30.55,7.91 -45.90,5.14 z"/>
  <path style="filter:url(#filter868);opacity:0.20" d="m 94.22,42.00 c -4.86,0.04 -8.54,0.41 -11.51,1.16 -9.94,2.48 -15.04,7.15 -14.89,13.63 0.13,5.63 2.90,9.29 15.85,18.75 6.41,4.69 11.52,8.91 11.36,9.39 0.16,0.48 -3.10,1.57 -6.52,2.41 -13.51,3.35 -24.74,11.24 -29.52,20.73 -4.03,9.40 -3.94,19.34 0.03,27.15 6.37,12.65 20.42,19.74 36.95,18.66 3.44,0.22 8.69,-1.14 11.66,-2.03 6.60,-1.99 13.30,-6.20 18.51,-11.31 9.76,-9.41 12.48,-26.10 7.43,-36.91 C 129.40,95.37 121.13,88.19 105.09,78.96 82.46,65.95 79.59,63.89 76.82,60.81 c -1.46,-1.62 -2.65,-3.84 -2.65,-4.91 0,-7.40 14.43,-11.55 24.52,-6.90 2.36,1.09 6.81,3.96 9.87,6.39 9.02,7.14 13.31,8.10 17.82,3.98 5.13,-4.68 0.48,-11.70 -9.91,-14.99 -5.02,-1.59 -14.16,-2.44 -22.26,-2.38 z m 6.13,48.00 c 1.93,0.00 2.96,0.93 6.94,4.59 9.19,8.45 13.60,18.66 12.56,29.06 -1.42,11.80 -9.57,22.04 -23.36,22.34 -14.34,0.12 -24.41,-14.22 -24.49,-26.36 0.05,-10.40 1.65,-15.22 7.32,-20.74 4.35,-4.23 11.83,-7.71 18.66,-8.66 0.98,0.14 1.72,0.24 2.37,0.23 z"/>
  <path style="fill:#ffffff" d="m 94.22,40.00 c -4.86,0.04 -8.54,0.41 -11.51,1.16 -9.94,2.48 -15.04,7.15 -14.89,13.63 0.13,5.63 2.90,9.29 15.85,18.75 6.41,4.69 11.52,8.91 11.36,9.39 0.16,0.48 -3.10,1.57 -6.52,2.41 -13.51,3.35 -24.74,11.24 -29.52,20.73 -4.03,9.40 -3.94,19.34 0.03,27.15 6.37,12.65 20.42,19.74 36.95,18.66 3.44,0.22 8.69,-1.14 11.66,-2.03 6.60,-1.99 13.30,-6.20 18.51,-11.31 9.76,-9.41 12.48,-26.10 7.43,-36.91 C 129.40,93.37 121.13,86.18 105.09,76.96 82.46,63.95 79.59,61.89 76.82,58.80 c -1.46,-1.62 -2.65,-3.84 -2.65,-4.91 0,-7.40 14.43,-11.55 24.52,-6.90 2.36,1.09 6.81,3.96 9.87,6.39 9.02,7.14 13.31,8.10 17.82,3.98 5.13,-4.68 0.48,-11.70 -9.91,-14.99 -5.02,-1.59 -14.16,-2.44 -22.26,-2.37 z m 6.13,48.00 c 1.93,0.00 2.96,0.93 6.94,4.59 9.19,8.45 13.60,18.66 12.56,29.06 -1.42,11.80 -9.57,22.04 -23.36,22.34 -14.34,0.12 -24.41,-14.22 -24.49,-26.36 0.05,-10.40 1.65,-15.22 7.32,-20.74 4.35,-4.23 11.83,-7.71 18.66,-8.66 0.98,0.14 1.72,0.24 2.37,0.23 z"/>
  <path style="opacity:0.10;fill:#ffffff" d="M 97.37 16 C 52.80 15.72 15.80 52.77 16.04 97.36 C 16.35 53.21 53.14 16.72 97.37 17 C 98.85 17.01 100.35 17.06 101.85 17.16 C 120.68 18.33 137.96 25.70 151.29 38.25 C 167.30 53.32 175.79 72.47 175.98 93.88 C 175.99 93.74 176.00 93.62 176 93.47 C 175.96 71.82 167.44 52.46 151.29 37.25 C 137.96 24.70 120.68 17.33 101.85 16.16 C 100.35 16.06 98.85 16.01 97.37 16 z M 164 145.93 C 163.96 146.68 163.94 147.43 163.95 148.19 C 163.96 147.77 163.98 147.35 164 146.93 C 164.38 152.84 166.33 159.13 169.95 166.26 C 171.27 168.88 172.30 171.20 172.74 172.46 C 172.85 172.47 172.93 172.47 172.95 172.45 C 173.19 172.21 171.83 168.98 169.95 165.26 C 166.33 158.13 164.38 151.84 164 145.93 z "/>
</svg>
