<svg xmlns="http://www.w3.org/2000/svg" id="svg28" width="192" height="192" version="1"><defs><filter style="color-interpolation-filters:sRGB" id="filter5343" width="1.11" height="1.09" x=".05" y=".04"><feGaussianBlur stdDeviation="2.94"/></filter><filter style="color-interpolation-filters:sRGB" id="filter5659" width="1.2" height="1.12" x=".1" y=".06"><feGaussianBlur stdDeviation="3.38"/></filter><filter style="color-interpolation-filters:sRGB" id="filter6282" width="1.13" height="1.17" x=".07" y=".09"><feGaussianBlur stdDeviation="1.81"/></filter></defs><path style="filter:url(#filter5659);opacity:.2;fill:#000;mix-blend-mode:normal;stop-color:#000" d="m 94,46 v 121 l 51.09,13.38 4.91,0.24 c 0,0 5.82,0.61 13,0.61 7.18,0 13,-5.82 13,-13 V 58.69 C 176,45.68 163.20,46 163.20,46 Z"/><path style="fill:#e64d49;stop-color:#000" d="m 147,163 h 16 v 13 h -16 z"/><path style="fill:#636464;stop-color:#000" d="m 94,42 v 121 h 56 a 13,13 0 0 0 13,13 13,13 0 0 0 13,-13 V 54.69 C 176,41.68 163.20,42 163.20,42 Z"/><path style="opacity:.1;fill:#fff;stop-color:#000" d="m 94,42 v 1 h 69.20 C 163.20,43 176,42.68 176,55.69 v -1 C 176,41.68 163.20,42 163.20,42 Z"/><path style="filter:url(#filter5343);opacity:.2;fill:#000;color:#000" d="m 81.71,20.00 c -6.29,0.14 -10.06,4.91 -14.52,9.04 L 19.04,73.55 C 17.12,75.32 16.00,78.07 16,80.97 v 87.87 c 0.00,5.17 7.81,11.16 12.10,11.16 H 54.83 83 111.17 l 25.66,-2.80 7.87,-7.83 L 150,158.36 V 80.97 c 0.00,-2.91 -1.12,-5.65 -3.04,-7.42 L 98.81,29.04 C 94.05,24.64 90.08,19.50 83,20.04 c 0.44,0.03 0.87,0.05 -1.29,0.04 z"/><path style="fill:#e64d49;color:#000" d="m 81.71,16.00 c -6.29,0.14 -10.06,4.91 -14.52,9.04 L 19.04,69.55 C 17.12,71.32 16.00,74.07 16,76.97 v 87.87 c 0.00,5.17 7.81,11.16 12.10,11.16 H 54.83 83 111.17 137.90 150 V 163 76.97 c 0.00,-2.91 -1.12,-5.65 -3.04,-7.42 L 98.81,25.04 C 94.05,20.64 90.08,15.50 83,16.04 c 0.44,0.03 0.87,0.05 -1.29,0.04 z"/><path style="filter:url(#filter6282);opacity:.2;fill:#000;stop-color:#000" d="m 70,90 v 50 H 96 V 90 Z m -20,8 v 34 h 17 v -8 h -8 v -18 h 8 v -8 z m 29,0 h 8 v 34 h -8 z m 20,0 v 8 h 8 v 18 h -8 v 8 h 17 V 98 Z"/><path style="fill:#fff;stop-color:#000" d="m 70,88 v 50 H 96 V 88 Z m -20,8 v 34 h 17 v -8 h -8 v -18 h 8 v -8 z m 29,0 h 8 v 34 h -8 z m 20,0 v 8 h 8 v 18 h -8 v 8 h 17 V 96 Z"/><path style="opacity:.2;fill:#fff;color:#000" d="M 81.71,16.00 C 75.42,16.14 71.65,20.92 67.19,25.04 L 19.04,69.55 C 17.12,71.33 16.00,74.07 16,76.97 v 1 c 0.00,-2.91 1.12,-5.65 3.04,-7.42 L 67.19,26.04 c 4.46,-4.12 8.23,-8.90 14.52,-9.04 0.42,0.01 0.85,0.01 1.29,0.04 7.08,0.54 11.05,4.60 15.81,9.00 l 48.15,44.52 c 1.92,1.77 3.04,4.51 3.04,7.42 v -1 c 0.00,-2.91 -1.12,-5.65 -3.04,-7.42 L 98.81,25.04 C 94.05,20.64 90.08,15.50 83,16.04 c 0.44,0.03 0.87,0.05 -1.29,0.04 z"/></svg>