<?xml version='1.0' encoding='utf-8'?>
<svg xmlns="http://www.w3.org/2000/svg" width="192" height="192" version="1" id="svg28">
  <defs>
    <filter style="color-interpolation-filters:sRGB" id="filter6495" x="-0.048000001" y="-0.048000001" width="1.096" height="1.096">
      <feGaussianBlur stdDeviation="3.2"/>
    </filter>
    <filter style="color-interpolation-filters:sRGB" id="filter16695" x="-0.040137932" y="-0.059692309" width="1.0802759" height="1.1193846">
      <feGaussianBlur stdDeviation="1.94"/>
    </filter>
  </defs>
  <rect transform="matrix(0,-1,-1,0,0,0)" ry="12" rx="12" y="-176" x="-180" height="160" width="160" style="filter:url(#filter6495);opacity:0.2;fill:#000000"/>
  <rect transform="matrix(0,-1,-1,0,0,0)" ry="12" rx="12" y="-176" x="-176" height="160" width="160" style="fill:#3e5059"/>
  <path style="opacity:0.1;fill:#ffffff" d="m 28,16 c -6.648,0 -12,5.352 -12,12 v 1 c 0,-6.648 5.352,-12 12,-12 h 136 c 6.648,0 12,5.352 12,12 v -1 c 0,-6.648 -5.352,-12 -12,-12 z"/>
  <path style="filter:url(#filter16695);opacity:0.2;fill:#000000" d="m 38,59 v 3.550781 c 7.893462,1.947137 8.693896,2.749389 12.240234,12.59961 L 71.748047,137 h 6.75 L 95.199219,86.947266 112.01562,137 h 6.75 L 140.95898,75.150391 C 144.61971,65.071095 146.67853,63.008931 154,62.550781 V 59 h -31 v 3.550781 c 4.23273,0.572688 6.86104,0.686381 7.89062,1.144531 2.28796,1.145374 3.7754,3.43651 3.7754,5.841797 0,1.145374 -0.34236,2.97837 -0.68555,4.238282 L 118.65039,121.42383 101.94922,70.453125 c -0.3432,-0.801763 -0.45899,-1.601975 -0.45899,-2.632813 0,-2.290748 1.25892,-3.896063 3.54688,-4.46875 1.25838,-0.343612 3.87414,-0.457168 6.96289,-0.800781 V 59 H 79 v 3.550781 c 7.550269,1.718062 9.906511,4.925446 12.880859,15.462891 L 78.267578,121.65234 61.566406,71.255859 c -0.457592,-1.259912 -0.6875,-2.52064 -0.6875,-3.666015 0,-3.321586 1.829203,-4.580913 8.121094,-5.039063 V 59 Z m 105,60 v 7 h -7 v 4 h 7 v 7 h 4 v -7 h 7 v -4 h -7 v -7 z"/>
  <path style="fill:#ffffff" d="m 38,57 v 3.550781 c 7.893462,1.947137 8.693896,2.749389 12.240234,12.59961 L 71.748047,135 h 6.75 L 95.199219,84.947266 112.01562,135 h 6.75 L 140.95898,73.150391 C 144.61971,63.071095 146.67853,61.008931 154,60.550781 V 57 h -31 v 3.550781 c 4.23273,0.572688 6.86104,0.686381 7.89062,1.144531 2.28796,1.145374 3.7754,3.43651 3.7754,5.841797 0,1.145374 -0.34236,2.97837 -0.68555,4.238282 L 118.65039,119.42383 101.94922,68.453125 c -0.3432,-0.801763 -0.45899,-1.601975 -0.45899,-2.632813 0,-2.290748 1.25892,-3.896063 3.54688,-4.46875 1.25838,-0.343612 3.87414,-0.457168 6.96289,-0.800781 V 57 H 79 v 3.550781 c 7.550269,1.718062 9.906511,4.925446 12.880859,15.462891 L 78.267578,119.65234 61.566406,69.255859 c -0.457592,-1.259912 -0.6875,-2.52064 -0.6875,-3.666015 0,-3.321586 1.829203,-4.580913 8.121094,-5.039063 V 57 Z m 105,60 v 7 h -7 v 4 h 7 v 7 h 4 v -7 h 7 v -4 h -7 v -7 z"/>
</svg>
