<?xml version='1.0' encoding='utf-8'?>
<svg xmlns="http://www.w3.org/2000/svg" width="192" height="192" version="1" id="svg16">
  <defs>
    <filter style="color-interpolation-filters:sRGB" id="filter853" x="-0.047999985" y="-0.048000014" width="1.096" height="1.096">
      <feGaussianBlur stdDeviation="3.3600021"/>
    </filter>
    <filter style="color-interpolation-filters:sRGB" id="filter857" x="-0.024571429" y="-1.032" width="1.0491429" height="3.064">
      <feGaussianBlur stdDeviation="1.72"/>
    </filter>
    <filter style="color-interpolation-filters:sRGB" id="filter861" x="-0.058909092" y="-0.040500002" width="1.1178182" height="1.081">
      <feGaussianBlur stdDeviation="1.08"/>
    </filter>
  </defs>
  <path style="filter:url(#filter853);opacity:0.2" d="m 95.99756,15.999998 c -4.4002,0 -8.80334,1.640085 -12.092596,4.929263 L 16.929112,87.912579 c -6.578516,6.578348 -6.569184,17.587281 0.0096,24.165631 l 66.975852,66.98332 c 6.578516,6.57836 17.597256,6.58769 24.175776,0.01 l 66.97585,-66.98331 c 6.57851,-6.57836 6.57852,-17.596713 0,-24.175065 L 108.09016,20.929261 c -3.28925,-3.289177 -7.6924,-4.929263 -12.0926,-4.929263 z"/>
  <path style="fill:#3a497d" d="m 12,95.999999 c 0.0043,4.394231 1.650048,8.790891 4.9375,12.078121 l 66.976564,66.98438 c 6.578516,6.57835 17.601166,6.5859 24.179686,0.008 L 175.0625,108.08593 C 178.35176,104.79676 180,100.39917 180,95.999999 Z"/>
  <path style="filter:url(#filter857);opacity:0.2" d="m 12,94 c 0.0013,1.34768 0.21332,2.683936 0.523438,4 H 179.47656 C 179.78616,96.683556 180,95.348632 180,94 Z"/>
  <path style="fill:#8d49bc" d="m 96,11.999999 c -4.4002,0 -8.804496,1.64051 -12.093752,4.929688 L 16.929688,83.914063 C 13.638489,87.205175 11.995691,91.600583 12,95.999999 h 168 c 0,-4.399176 -1.64824,-8.79676 -4.9375,-12.085936 L 108.09375,16.929687 C 104.8045,13.640509 100.4002,11.999999 96,11.999999 Z m 84,84 c 0,2.199588 -0.41116,4.400491 -1.23438,6.460931 C 179.58794,100.4001 180,98.199587 180,95.999999 Z m -1.23438,6.460931 c -0.82321,2.06044 -2.05849,3.98042 -3.70312,5.625 1.64463,-1.64458 2.88081,-3.56416 3.70312,-5.625 z"/>
  <path style="opacity:0.1;fill:#ffffff" d="M 96 12 C 91.5998 12 87.195506 13.640509 83.90625 16.929688 L 16.929688 83.914062 C 13.514184 87.329476 11.952346 91.930004 12.097656 96.492188 C 12.197502 92.264699 13.764148 88.079518 16.929688 84.914062 L 83.90625 17.929688 C 87.195506 14.64051 91.5998 13 96 13 C 100.4002 13 104.8045 14.64051 108.09375 17.929688 L 175.0625 84.914062 C 178.23248 88.083961 179.80521 92.279418 179.9043 96.515625 C 180.05091 91.945266 178.48216 87.333641 175.0625 83.914062 L 108.09375 16.929688 C 104.8045 13.640509 100.4002 12 96 12 z "/>
  <path style="filter:url(#filter861);opacity:0.2" d="M 124,98 79.999999,130 V 66.000001 Z"/>
  <path style="fill:#ffffff" d="M 124,96 79.999999,128 V 64.000001 Z"/>
</svg>
