<?xml version='1.0' encoding='utf-8'?>
<svg xmlns="http://www.w3.org/2000/svg" width="192" height="192" version="1.1" id="svg18">
  <defs>
    <filter style="color-interpolation-filters:sRGB" id="filter865" x="-0.048000001" width="1.096" y="-0.048000001" height="1.096">
      <feGaussianBlur stdDeviation="3.2"/>
    </filter>
    <filter style="color-interpolation-filters:sRGB" id="filter881" x="-0.048000002" width="1.096" y="-0.048000001" height="1.096">
      <feGaussianBlur stdDeviation="2.4"/>
    </filter>
  </defs>
  <circle style="filter:url(#filter865);opacity:0.2" cx="96" cy="100" r="80"/>
  <circle style="fill:#439a42" cx="96" cy="95.999443" r="80"/>
  <path style="filter:url(#filter881);opacity:0.2;fill-rule:evenodd" d="m 96,40.000957 a 60,60 0 0 0 -60,60.000003 60,60 0 0 0 60,60 60,60 0 0 0 60,-60 60,60 0 0 0 -60,-60.000003 z m 0,16 a 44,44 0 0 1 42.32031,32 H 53.710936 A 44,44 0 0 1 96,56.000957 Z m 0,52.000003 a 8,8 0 0 1 8,8 8,8 0 0 1 -4.929688,7.3752 l 1.929688,4.6248 5,12 H 96 86 l 5,-12 1.921876,-4.6172 A 8,8 0 0 1 88,116.00096 a 8,8 0 0 1 8,-8 z"/>
  <path style="fill:#ffd838;fill-rule:evenodd" d="M 96,36 A 60,60 0 0 0 36,96 60,60 0 0 0 96,156 60,60 0 0 0 156,96 60,60 0 0 0 96,36 Z m 0,16 a 44,44 0 0 1 42.32031,32 H 53.710936 A 44,44 0 0 1 96,52 Z m 0,52 a 8,8 0 0 1 8,8 8,8 0 0 1 -4.929688,7.3752 L 101,124 l 5,12 H 96 86 l 5,-12 1.921876,-4.6172 A 8,8 0 0 1 88,112 a 8,8 0 0 1 8,-8 z"/>
  <path style="opacity:0.2;fill:#ffffff;fill-rule:evenodd" d="M 96 16 A 80 80 0 0 0 16 96 A 80 80 0 0 0 16.017578 96.513672 A 80 80 0 0 1 96 17 A 80 80 0 0 1 175.76562 92.320312 A 80 80 0 0 1 175.79102 92.832031 A 80 80 0 0 1 175.97656 96.517578 A 80 80 0 0 0 176 96 A 80 80 0 0 0 96 16 z "/>
  <path style="opacity:0.2;fill:#ffffff;fill-rule:evenodd" d="M 96 36 A 60 60 0 0 0 36 96 A 60 60 0 0 0 36.021484 96.416016 A 60 60 0 0 1 96 37 A 60 60 0 0 1 155.97852 96.583984 A 60 60 0 0 0 156 96 A 60 60 0 0 0 96 36 z M 54.048828 84 A 44 44 0 0 0 53.710938 85 L 138.32031 85 A 44 44 0 0 0 137.98438 84 L 54.048828 84 z M 103.97852 112.41797 A 8 8 0 0 1 99.070312 119.375 L 99.419922 120.21289 A 8 8 0 0 0 104 113 A 8 8 0 0 0 103.97852 112.41797 z M 88.021484 112.55859 A 8 8 0 0 0 88 113 A 8 8 0 0 0 92.574219 120.2168 L 92.921875 119.38281 A 8 8 0 0 1 88.021484 112.55859 z M 86.416016 136 L 86 137 L 96 137 L 106 137 L 105.58398 136 L 96 136 L 86.416016 136 z "/>
</svg>
