<?xml version='1.0' encoding='utf-8'?>
<svg xmlns="http://www.w3.org/2000/svg" width="192" height="192" version="1" id="svg20">
  <defs>
    <filter style="color-interpolation-filters:sRGB" id="filter882" x="0.05" width="1.10" y="0.05" height="1.10">
      <feGaussianBlur stdDeviation="3.20"/>
    </filter>
    <filter style="color-interpolation-filters:sRGB" id="filter902" x="0.05" width="1.10" y="0.05" height="1.09">
      <feGaussianBlur stdDeviation="1.68"/>
    </filter>
  </defs>
  <path d="m 35.94,179.84 c 0.92,0.16 -1.10,0.38 -2.46,-3.00 -7.64,-14.68 -13.79,-34.30 -16.20,-51.65 -1.16,-8.37 -1.29,-10.58 -1.28,-21.31 0.01,-9.93 0.06,-10.95 0.80,-16.51 1.15,-8.67 2.87,-16.90 5.44,-26.04 3.04,-10.81 12.30,-33.01 16.43,-39.40 l 1.24,-1.92 3.04,0.18 c 14.81,0.88 28.94,3.62 43.50,8.45 22.10,7.33 39.69,17.77 56.19,33.34 8.61,8.12 14.96,15.43 23.79,27.36 4.80,6.48 6.36,8.82 8.29,12.38 L 176,104.06 l -2.50,3.79 c -4.98,7.55 -10.41,14.33 -17.50,21.85 -4.39,4.66 -4.98,5.23 -10.00,9.74 -4.22,3.79 -6.30,5.50 -12.42,10.16 -2.77,2.11 -8.18,5.69 -11.35,7.50 -1.01,0.58 -1.90,1.13 -1.98,1.24 0.83,1.08 -17.30,8.98 -21.22,10.18 0.39,0.12 -1.79,0.62 -3.12,1.12 -1.32,0.50 -3.42,1.22 -4.67,1.61 -1.25,0.39 -3.73,1.19 -5.52,1.78 -3.35,1.11 -5.57,1.61 -13.58,3.09 -14.25,2.63 -32.08,4.46 -36.22,3.72 z" style="filter:url(#filter882);opacity:0.20"/>
  <path d="m 35.94,175.84 c 0.92,0.16 -1.10,0.38 -2.46,-3.00 -7.64,-14.68 -13.79,-34.30 -16.20,-51.65 -1.16,-8.37 -1.29,-10.58 -1.28,-21.31 0.01,-9.93 0.06,-10.95 0.80,-16.51 1.15,-8.67 2.87,-16.90 5.44,-26.04 3.04,-10.81 12.30,-33.01 16.43,-39.40 l 0.87,1.83 3.04,0.18 c 14.81,0.88 28.94,3.62 43.50,8.45 22.10,7.33 39.69,17.77 56.20,33.34 8.61,8.12 14.96,15.43 23.79,27.36 4.80,6.48 1.48,5.06 3.41,8.62 l 1.27,2.35 -2.50,3.79 c -4.98,7.55 -10.41,14.33 -17.50,21.85 -4.39,4.66 -4.98,5.23 -10.00,9.74 -4.22,3.79 -6.30,5.50 -12.42,10.16 -2.77,2.11 -8.18,5.69 -11.35,7.50 -1.01,0.58 -1.90,1.13 -1.98,1.24 0.83,1.08 -17.30,8.58 -21.22,9.78 0.39,0.12 -1.79,0.62 -3.12,1.12 -1.32,0.50 -3.42,1.22 -4.67,1.61 -1.25,0.39 -3.73,1.19 -5.52,1.78 -3.35,1.11 -5.57,1.61 -13.58,3.09 -14.25,2.63 -26.82,4.86 -30.96,4.12 z" style="fill:#4fa6e7"/>
  <path d="M 39.91,16 C 29.12,33.53 26.74,52.12 28.12,71.27 31.18,97.49 45.23,116.09 56,140 V 52 c 1.37,0.08 2.80,0.15 4.19,0.23 L 59.79,52 c 2.82,0.28 5.60,0.48 8.36,0.66 1.29,0.07 2.57,0.15 3.88,0.23 21.23,1.14 40.85,0.54 61.23,9.33 7.52,3.65 14.55,7.92 20.95,13.02 4.89,3.65 16.76,19.81 21.01,24.83 -2.86,-4.71 -5.79,-10.68 -8.78,-14.73 C 157.61,73.41 151.25,66.10 142.64,57.98 126.13,42.40 108.55,31.96 86.45,24.63 71.89,19.80 57.76,17.06 42.95,16.18 Z" style="fill:#26d5ea"/>
  <path d="M 136,100 96.00,122 56.00,144 V 100.00 56.00 l 40,22.00 z" style="filter:url(#filter902);opacity:0.20"/>
  <path d="M 136,96.00 96.00,118 56.00,140 V 96.00 52.00 l 40,22.00 z" style="fill:#ffffff"/>
  <path d="M 175.22,100.07 C 165.44,81.96 150.53,70.60 133.26,62.22 109.01,51.76 82.10,54.63 56,52 l 80,44 C 115.21,127.57 79.88,167.90 35.94,175.84 L 49.25,175.23 c 0.98,0.11 1.46,0.12 2.66,0.26 14.75,-1.68 24.26,-3.54 35.59,-6.93 21.75,-6.51 39.57,-16.52 56.97,-31.99 11.46,-10.19 20.90,-21.06 29.07,-33.45 z" style="fill:#2479e2"/>
  <path style="opacity:0.20;fill:#ffffff" d="M 39.91 16 C 39.50 16.68 39.11 17.36 38.72 18.04 L 38.67 17.92 C 34.53 24.32 25.27 46.51 22.23 57.32 C 19.66 66.46 17.94 74.68 16.79 83.36 C 16.06 88.92 16.01 89.94 16 99.87 C 16.00 100.05 16.00 100.14 16.00 100.31 C 16.01 91.01 16.07 89.79 16.79 84.36 C 17.94 75.68 19.66 67.46 22.23 58.32 C 25.27 47.51 34.53 25.32 38.67 18.92 L 38.72 19.04 C 39.11 18.36 39.50 17.68 39.91 17 L 42.95 17.18 C 57.76 18.06 71.89 20.80 86.45 25.63 C 108.55 32.96 126.13 43.40 142.64 58.98 C 151.25 67.10 157.61 74.41 166.44 86.34 C 168.66 89.34 170.84 93.41 172.99 97.23 C 173.65 98.30 174.30 99.40 174.92 100.53 L 175.22 100.07 C 174.51 98.75 173.76 97.48 172.99 96.23 C 170.84 92.41 168.66 88.34 166.44 85.34 C 157.61 73.41 151.25 66.10 142.64 57.98 C 126.13 42.40 108.55 31.96 86.45 24.63 C 71.89 19.80 57.76 17.06 42.95 16.18 L 39.91 16 z "/>
</svg>
