<svg xmlns="http://www.w3.org/2000/svg" id="svg28" width="192" height="192" version="1"><defs><filter style="color-interpolation-filters:sRGB" id="filter6495" width="1.1" height="1.1" x=".05" y=".05"><feGaussianBlur stdDeviation="3.2"/></filter><filter style="color-interpolation-filters:sRGB" id="filter2322" width="1.16" height="1.34" x=".08" y=".17"><feGaussianBlur stdDeviation="3.38"/></filter></defs><rect width="160" height="160" x="-180" y="-176" rx="12" ry="12" transform="matrix(0,-1,-1,0,0,0)" style="filter:url(#filter6495);opacity:.2;fill:#000"/><rect width="160" height="160" x="-176" y="-176" rx="12" ry="12" transform="matrix(0,-1,-1,0,0,0)" style="fill:#1c90ef"/><path style="opacity:.2;fill:#fff" d="m 28,16 c -6.65,0 -12,5.35 -12,12 v 1 c 0,-6.65 5.35,-12 12,-12 h 136 c 6.65,0 12,5.35 12,12 v -1 c 0,-6.65 -5.35,-12 -12,-12 z"/><path style="filter:url(#filter2322);opacity:.2;fill:#000" d="m 45,74 v 24 24 H 51.84 59 v -6 -5 h 4 4.70 l 1.57,-4.26 c 0.73,-1.99 1.81,-4.93 2.48,-6.48 C 72.43,98.70 72.98,97 72.98,97 H 65.82 59 v -5 -5 h 10 9.54 l 2.67,-3.54 C 82.76,81.40 84.73,78.51 85.78,77.19 86.83,75.86 88.28,74 88.28,74 H 66.65 Z m 48.24,0 -1.31,2.63 c -4.25,8.57 -7.27,22.50 -7.74,38.63 L 84,121.99 h 6.87 L 98,122 V 106.28 90.56 L 103.40,106.28 109.04,122 h 6.63 6.63 L 127.76,106.28 133,90.72 V 106 122 l 7.19,0.01 H 147 V 97.99 74 h -11.04 -11.58 c 0.13,0 -8.25,24.29 -8.56,25.08 0.10,0.26 -2.10,-5.25 -4.44,-12.23 L 107,74 h -7 z"/><path style="fill:#fff" d="m 45,72 v 24 24 H 51.84 59 v -6 -5 h 4 4.70 l 1.57,-4.26 c 0.73,-1.99 1.81,-4.93 2.48,-6.48 C 72.43,96.70 72.98,95 72.98,95 H 65.82 59 v -5 -5 h 10 9.54 l 2.67,-3.54 C 82.76,79.40 84.73,76.51 85.78,75.19 86.83,73.86 88.28,72 88.28,72 H 66.65 Z m 48.24,0 -1.31,2.63 c -4.25,8.57 -7.27,22.50 -7.74,38.63 L 84,119.99 h 6.87 L 98,120 V 104.28 88.56 L 103.40,104.28 109.04,120 h 6.63 6.63 L 127.76,104.28 133,88.72 V 104 120 l 7.19,0.01 H 147 V 95.99 72 h -11.04 -11.58 c 0.13,0 -8.25,24.29 -8.56,25.08 0.10,0.26 -2.10,-5.25 -4.44,-12.23 L 107,72 h -7 z"/></svg>