<?xml version='1.0' encoding='utf-8'?>
<svg xmlns="http://www.w3.org/2000/svg" width="192" height="192" version="1" id="svg28">
  <defs>
    <filter style="color-interpolation-filters:sRGB" id="filter6495" x="0.05" y="0.05" width="1.10" height="1.10">
      <feGaussianBlur stdDeviation="3.20"/>
    </filter>
    <filter style="color-interpolation-filters:sRGB" id="filter57253" x="0.06" y="0.04" width="1.11" height="1.08">
      <feGaussianBlur stdDeviation="1.12"/>
    </filter>
    <filter style="color-interpolation-filters:sRGB" id="filter57257" x="0.03" y="0.09" width="1.07" height="1.18">
      <feGaussianBlur stdDeviation="1.18"/>
    </filter>
    <filter style="color-interpolation-filters:sRGB" id="filter57305" x="0.04" y="0.06" width="1.08" height="1.13">
      <feGaussianBlur stdDeviation="1.89"/>
    </filter>
  </defs>
  <rect transform="matrix(0,-1,-1,0,0,0)" ry="12" rx="12" y="-176" x="-180" height="160" width="160" style="filter:url(#filter6495);opacity:0.20;fill:#000000"/>
  <rect transform="matrix(0,-1,-1,0,0,0)" ry="12" rx="12" y="-176" x="-176" height="160" width="160" style="fill:#2d377f"/>
  <path style="filter:url(#filter57305);opacity:0.20;fill:#000000;color:#000000" d="m 151,63 a 4,4 0 0 0 -4,4 v 62 a 4,4 0 0 0 4,4 4,4 0 0 0 4,-4 V 67 a 4,4 0 0 0 -4,-4 z M 38.96,66.01 A 2.75,2.74 0 0 0 36,68.74 V 127.26 A 2.75,2.74 0 0 0 38.74,130 h 80.51 a 2.75,2.74 0 0 0 1.61,-4.96 L 40.36,66.52 A 2.75,2.74 0 0 0 38.96,66.01 Z M 136,74 a 4,4 0 0 0 -4,4 v 40 a 4,4 0 0 0 4,4 4,4 0 0 0 4,-4 V 78 a 4,4 0 0 0 -4,-4 z m -13.54,10 a 2.54,3.19 0 0 0 -1.27,0.43 l -7.46,5.40 -7.46,5.41 a 2.54,3.19 0 0 0 0,5.52 l 7.46,5.41 7.46,5.41 A 2.54,3.19 0 0 0 125,108.81 V 98 87.19 A 2.54,3.19 0 0 0 122.46,84 Z"/>
  <path style="fill:#0364f5;color:#000000" d="M 38.74,128 A 2.75,2.74 0 0 1 36,125.26 V 66.74 a 2.75,2.74 0 0 1 4.36,-2.22 L 120.87,123.04 A 2.75,2.74 0 0 1 119.26,128 Z"/>
  <path style="opacity:0.10;fill:#ffffff" d="m 28,16 c -6.65,0 -12,5.35 -12,12 v 1 c 0,-6.65 5.35,-12 12,-12 h 136 c 6.65,0 12,5.35 12,12 v -1 c 0,-6.65 -5.35,-12 -12,-12 z"/>
  <path style="fill:#f66295;color:#000000" d="m 122.46,82.00 a 2.54,3.19 0 0 0 -1.27,0.43 l -7.46,5.41 -7.46,5.41 a 2.54,3.19 0 0 0 0,5.52 l 7.46,5.41 7.46,5.41 a 2.54,3.19 0 0 0 3.81,-2.76 V 96.00 85.19 a 2.54,3.19 0 0 0 -2.54,-3.19 z"/>
  <path style="fill:#edfd78;color:#000000" d="m 136,72 a 4,4 0 0 0 -4,4 v 40 a 4,4 0 0 0 4,4 4,4 0 0 0 4,-4 V 76 a 4,4 0 0 0 -4,-4 z"/>
  <path style="fill:#2ffcab;color:#000000" d="m 151,61 a 4,4 0 0 0 -4,4 v 62 a 4,4 0 0 0 4,4 4,4 0 0 0 4,-4 V 65 a 4,4 0 0 0 -4,-4 z"/>
  <path style="filter:url(#filter57253);opacity:0.20;fill:#000000;color:#000000" d="M 38.96,66.01 A 2.75,2.74 0 0 0 38,66.20 2.75,2.74 0 0 0 37.45,66.35 2.75,2.74 0 0 0 36.74,67.00 2.75,2.74 0 0 0 36.39,67.34 2.75,2.74 0 0 0 36,68.74 v 58.52 a 2.75,2.74 0 0 0 0.39,1.40 2.75,2.74 0 0 0 0.34,0.34 2.75,2.74 0 0 0 0.71,0.65 A 2.75,2.74 0 0 0 38,129.80 2.75,2.74 0 0 0 40.36,129.48 L 83.67,98 40.36,66.52 a 2.75,2.74 0 0 0 -1.40,0.52 z"/>
  <path style="fill:#0da9fa;color:#000000" d="M 38.96,64.01 A 2.75,2.74 0 0 0 38,64.20 2.75,2.74 0 0 0 37.45,64.35 2.75,2.74 0 0 0 36.74,65.00 2.75,2.74 0 0 0 36.39,65.34 2.75,2.74 0 0 0 36,66.74 v 58.52 a 2.75,2.74 0 0 0 0.39,1.40 2.75,2.74 0 0 0 0.34,0.34 2.75,2.74 0 0 0 0.71,0.65 A 2.75,2.74 0 0 0 38,127.80 2.75,2.74 0 0 0 40.36,127.48 L 83.67,96 40.36,64.52 a 2.75,2.74 0 0 0 -1.40,0.52 z"/>
  <path style="filter:url(#filter57257);opacity:0.20;fill:#000000;color:#000000" d="m 38.74,66 c 0,0 0.09,0.03 0.10,0.03 a 2.75,2.74 0 0 1 0.12,0.02 2.75,2.74 0 0 1 1.40,0.52 L 83.67,98 120.87,70.96 C 123.02,69.40 121.91,66.00 119.26,66 Z"/>
  <path style="fill:#22fafd;color:#000000" d="m 38.74,64 c 0,0 0.09,0.03 0.10,0.03 a 2.75,2.74 0 0 1 0.12,0.02 2.75,2.74 0 0 1 1.40,0.52 L 83.67,96 120.87,68.96 C 123.02,67.40 121.91,64.00 119.26,64 Z"/>
  <path style="opacity:0.20;fill:#ffffff;color:#000000" d="m 151,61 a 4,4 0 0 0 -4,4 v 1 a 4,4 0 0 1 4,-4 4,4 0 0 1 4,4 v -1 a 4,4 0 0 0 -4,-4 z M 38.74,64 c 0,0 0.09,0.03 0.10,0.03 a 2.75,2.74 0 0 1 0.12,0.02 2.75,2.74 0 0 1 1.40,0.52 L 41.01,65 h 78.24 c 1.48,0.00 2.46,1.07 2.67,2.28 C 122.23,65.72 121.15,64.00 119.26,64 Z M 136,72 a 4,4 0 0 0 -4,4 v 1 a 4,4 0 0 1 4,-4 4,4 0 0 1 4,4 v -1 a 4,4 0 0 0 -4,-4 z m -13.54,10 a 2.54,3.19 0 0 0 -1.27,0.43 l -7.46,5.40 -7.46,5.41 A 2.54,3.19 0 0 0 105.11,96.50 a 2.54,3.19 0 0 1 1.16,-2.26 l 7.46,-5.41 7.46,-5.40 A 2.54,3.19 0 0 1 122.46,83 2.54,3.19 0 0 1 125,86.19 v -1 A 2.54,3.19 0 0 0 122.46,82 Z"/>
</svg>
