<?xml version='1.0' encoding='utf-8'?>
<svg xmlns="http://www.w3.org/2000/svg" width="192" height="192" version="1" id="svg14">
  <defs>
    <filter style="color-interpolation-filters:sRGB" id="filter852" x="0.05" width="1.10" y="0.05" height="1.10">
      <feGaussianBlur stdDeviation="3.20"/>
    </filter>
    <filter style="color-interpolation-filters:sRGB" id="filter890" x="0.04" width="1.08" y="0.06" height="1.13">
      <feGaussianBlur stdDeviation="1.68"/>
    </filter>
  </defs>
  <rect style="filter:url(#filter852);opacity:0.20;fill:#000000" width="160" height="160" x="-180" y="-176" rx="80" ry="80" transform="matrix(0,-1,-1,0,0,0)"/>
  <rect transform="matrix(0,-1,-1,0,0,0)" ry="80" rx="80" y="-176" x="-176" height="160" width="160" style="fill:#c2352a"/>
  <path style="filter:url(#filter890);opacity:0.20;fill:#000000" d="M 70.35,131.70 C 68.27,131.42 64.57,130.21 62.10,129.02 46.01,121.32 39.43,101.90 47.36,85.55 56.41,66.85 81.11,62.09 95.97,76.17 c 4.30,4.07 6.21,7.34 12.68,22.72 6.75,16.09 8.00,18.62 10.19,20.76 2.34,2.28 4.52,3.05 8.68,3.05 6.83,0 11.71,-4.22 11.71,-10.11 0,-4.99 -2.05,-6.58 -10.99,-9.76 -13.61,-4.91 -18.02,-9.65 -18.04,-18.56 0,-4.75 1.20,-7.92 4.27,-11.21 4.39,-4.69 11.97,-6.24 18.68,-3.91 2.86,1.02 8.85,6.32 8.85,7.83 0,0.74 -3.47,2.99 -5.39,3.52 -1.02,0.26 -1.89,0.08 -3.07,-1.20 -2.38,-2.28 -3.99,-2.99 -6.83,-2.99 -4.91,0 -7.96,2.95 -7.96,7.72 0,4.75 1.94,6.66 11.61,9.93 13.33,4.50 17.57,8.57 17.65,17.98 0.08,8.13 -3.58,13.99 -10.86,17.46 -3.31,1.56 -4.44,1.77 -9.85,1.77 -7.72,0 -11.19,-1.44 -15.52,-6.32 -2.91,-3.28 -5.86,-9.24 -15.32,-31.72 C 92.53,83.81 87.49,79.24 79.10,77.45 63.51,75.03 51.82,88.99 53.23,101.89 c 1.54,14.03 10.97,20.64 21.80,20.66 7.84,0.17 14.78,-3.70 19.06,-10.43 l 0.97,-1.58 1.91,4.36 c 1.06,2.41 1.92,4.67 1.92,5.08 0,1.20 -4.31,5.14 -8.27,7.60 -6.00,3.71 -12.90,5.09 -20.26,4.09"/>
  <path d="M 70.35,127.70 C 68.27,127.42 64.57,126.21 62.10,125.02 46.01,117.32 39.43,97.90 47.36,81.55 56.41,62.85 81.11,58.09 95.97,72.17 c 4.30,4.07 6.21,7.34 12.68,22.72 6.75,16.09 8.00,18.62 10.19,20.76 2.34,2.28 4.52,3.05 8.68,3.05 6.83,0 11.71,-4.22 11.71,-10.11 0,-4.99 -2.05,-6.58 -10.99,-9.76 -13.61,-4.91 -18.02,-9.65 -18.04,-18.56 0,-4.75 1.20,-7.92 4.27,-11.21 4.39,-4.69 11.97,-6.24 18.68,-3.91 2.86,1.02 8.85,6.32 8.85,7.83 0,0.74 -3.47,2.99 -5.39,3.52 -1.02,0.26 -1.89,0.08 -3.07,-1.20 -2.38,-2.28 -3.99,-2.99 -6.83,-2.99 -4.91,0 -7.96,2.95 -7.96,7.72 0,4.75 1.94,6.66 11.61,9.93 13.33,4.50 17.57,8.57 17.65,17.98 0.08,8.13 -3.58,13.99 -10.86,17.46 -3.31,1.56 -4.44,1.77 -9.85,1.77 -7.72,0 -11.19,-1.44 -15.52,-6.32 -2.91,-3.28 -5.86,-9.24 -15.32,-31.72 C 92.53,79.81 87.49,75.24 79.10,73.45 63.51,71.03 51.82,84.99 53.23,97.89 c 1.54,14.03 10.97,20.64 21.80,20.66 7.84,0.17 14.78,-3.70 19.06,-10.43 l 0.97,-1.58 1.91,4.36 c 1.06,2.41 1.92,4.67 1.92,5.08 0,1.20 -4.31,5.14 -8.27,7.60 -6.00,3.71 -12.90,5.09 -20.26,4.09" style="fill:#ffffff"/>
  <path style="opacity:0.20;fill:#ffffff" d="M 96 16 C 51.68 16 16 51.68 16 96 C 16 96.17 16.00 96.33 16.01 96.50 C 16.27 52.41 51.85 17 96 17 C 140.15 17 175.73 52.41 175.99 96.50 C 176.00 96.33 176 96.17 176 96 C 176 51.68 140.32 16 96 16 z "/>
</svg>
