<?xml version='1.0' encoding='utf-8'?>
<svg xmlns="http://www.w3.org/2000/svg" width="192" height="192" version="1" id="svg22">
  <defs>
    <filter style="color-interpolation-filters:sRGB" id="filter3713" x="0.10" y="0.06" width="1.19" height="1.12">
      <feGaussianBlur stdDeviation="3.41"/>
    </filter>
    <filter style="color-interpolation-filters:sRGB" id="filter3717" x="0.10" y="0.06" width="1.19" height="1.12">
      <feGaussianBlur stdDeviation="3.41"/>
    </filter>
    <filter style="color-interpolation-filters:sRGB" id="filter3815" x="0.08" y="0.07" width="1.16" height="1.14">
      <feGaussianBlur stdDeviation="2.88"/>
    </filter>
    <filter style="color-interpolation-filters:sRGB" id="filter3857" x="0.08" y="0.07" width="1.16" height="1.14">
      <feGaussianBlur stdDeviation="2.88"/>
    </filter>
    <filter style="color-interpolation-filters:sRGB" id="filter3899" x="0.05" y="0.12" width="1.11" height="1.24">
      <feGaussianBlur stdDeviation="2.00"/>
    </filter>
  </defs>
  <rect style="filter:url(#filter3857);opacity:0.20;fill:#000000" width="86" height="98" x="16" y="57"/>
  <rect style="fill:#333333" width="86" height="99" x="16" y="52.50"/>
  <path style="filter:url(#filter3713);opacity:0.20;fill:#000000" d="M 22.62,44 C 18.95,44 16,46.94 16,50.60 V 57 h 86 V 50.60 C 102,46.94 99.05,44 95.38,44 Z M 16,155 v 14.40 c 0,3.66 2.95,6.60 6.62,6.60 h 72.77 C 99.05,176 102,173.06 102,169.40 V 155 Z"/>
  <path style="fill:#595959" d="M 22.62,40 C 18.95,40 16,42.94 16,46.60 V 53 h 86 V 46.60 C 102,42.94 99.05,40 95.38,40 Z M 16,151 v 14.40 c 0,3.66 2.95,6.60 6.62,6.60 h 72.77 C 99.05,172 102,169.06 102,165.40 V 151 Z"/>
  <path style="opacity:0.10;fill:#ffffff" d="M 22.62 40 C 18.95 40 16 42.94 16 46.60 L 16 47.60 C 16 43.94 18.95 41 22.62 41 L 95.38 41 C 99.05 41 102 43.94 102 47.60 L 102 46.60 C 102 42.94 99.05 40 95.38 40 L 22.62 40 z M 16 151 L 16 152 L 102 152 L 102 151 L 16 151 z "/>
  <path style="fill:#333333" d="m 32.25,158 c -1.80,0 -3.25,1.56 -3.25,3.50 0,1.94 1.45,3.50 3.25,3.50 h 6.50 c 1.80,0 3.25,-1.56 3.25,-3.50 0,-1.94 -1.45,-3.50 -3.25,-3.50 z"/>
  <path style="fill:#333333" d="m 55.25,155 c -1.80,0 -3.25,1.45 -3.25,3.25 v 6.50 c 0,1.80 1.45,3.25 3.25,3.25 h 6.50 c 1.80,0 3.25,-1.45 3.25,-3.25 v -6.50 C 65,156.45 63.55,155 61.75,155 Z"/>
  <path style="fill:#333333" d="m 74,45 a 2.00,2 0 0 0 -2,2 2.00,2 0 0 0 2,2 2.00,2 0 0 0 2,-2 2.00,2 0 0 0 -2,-2 z"/>
  <path style="fill:#333333" d="M 50.67,45 C 49.74,45 49,45.89 49,47 c 0,1.11 0.74,2 1.67,2 H 67.33 C 68.26,49 69,48.11 69,47 69,45.89 68.26,45 67.33,45 Z"/>
  <path style="fill:#333333" d="m 85.75,158 c 1.80,0 3.25,1.56 3.25,3.50 0,1.94 -1.45,3.50 -3.25,3.50 h -6.50 c -1.80,0 -3.25,-1.56 -3.25,-3.50 0,-1.94 1.45,-3.50 3.25,-3.50 z"/>
  <rect style="filter:url(#filter3815);opacity:0.20;fill:#000000" width="86" height="98" x="90" y="36"/>
  <rect style="fill:#a30e17" width="86" height="99" x="90" y="31.50"/>
  <path style="filter:url(#filter3717);opacity:0.20;fill:#000000" d="M 96.62,23 C 92.95,23 90,25.94 90,29.60 V 36 h 86 V 29.60 C 176,25.94 173.05,23 169.38,23 Z M 90,134 v 14.40 c 0,3.66 2.95,6.60 6.62,6.60 H 169.38 C 173.05,155 176,152.06 176,148.40 V 134 Z"/>
  <path style="fill:#ef313f" d="M 96.62,19 C 92.95,19 90,21.94 90,25.60 V 32 h 86 V 25.60 C 176,21.94 173.05,19 169.38,19 Z M 90,130 v 14.40 c 0,3.66 2.95,6.60 6.62,6.60 H 169.38 C 173.05,151 176,148.06 176,144.40 V 130 Z"/>
  <path style="fill:#a30e17" d="m 106.25,137 c -1.80,0 -3.25,1.56 -3.25,3.50 0,1.94 1.45,3.50 3.25,3.50 h 6.50 c 1.80,0 3.25,-1.56 3.25,-3.50 0,-1.94 -1.45,-3.50 -3.25,-3.50 z"/>
  <path style="fill:#a30e17" d="m 129.25,134 c -1.80,0 -3.25,1.45 -3.25,3.25 v 6.50 c 0,1.80 1.45,3.25 3.25,3.25 h 6.50 c 1.80,0 3.25,-1.45 3.25,-3.25 v -6.50 c 0,-1.80 -1.45,-3.25 -3.25,-3.25 z"/>
  <path style="fill:#a30e17" d="m 148,24 a 2.00,2 0 0 0 -2,2 2.00,2 0 0 0 2,2 2.00,2 0 0 0 2,-2 2.00,2 0 0 0 -2,-2 z"/>
  <path style="fill:#a30e17" d="M 124.67,24 C 123.74,24 123,24.89 123,26 c 0,1.11 0.74,2 1.67,2 h 16.67 C 142.26,28 143,27.11 143,26 c 0,-1.11 0.74,-2 -1.67,-2 z"/>
  <path style="fill:#a30e17" d="m 159.75,137 c 1.80,0 3.25,1.56 3.25,3.50 0,1.94 -1.45,3.50 -3.25,3.50 h -6.50 c -1.80,0 -3.25,-1.56 -3.25,-3.50 0,-1.94 1.45,-3.50 3.25,-3.50 z"/>
  <path style="filter:url(#filter3899);opacity:0.20;fill:#000000;color:#000000" d="m 77.64,78.03 a 2.00,2.00 0 0 0 -1.03,0.52 l -25,24.00 a 2.00,2.00 0 0 0 1.38,3.44 h 25 H 112 v 10 a 2.00,2.00 0 0 0 3.38,1.44 l 25,-24.00 A 2.00,2.00 0 0 0 139,90.00 H 114 80.00 v -10 a 2.00,2.00 0 0 0 -1.22,-1.84 2.00,2.00 0 0 0 -1.14,0.13 z"/>
  <path style="fill:#ffffff;color:#000000" d="m 77.64,76.03 a 2.00,2.00 0 0 0 -1.03,0.52 l -25,24.00 a 2.00,2.00 0 0 0 1.38,3.44 h 25 H 112 v 10 a 2.00,2.00 0 0 0 3.38,1.44 l 25,-24.00 A 2.00,2.00 0 0 0 139,88.00 H 114 80.00 v -10 A 2.00,2.00 0 0 0 78.78,76.16 2.00,2.00 0 0 0 77.64,76.03 Z"/>
  <path style="opacity:0.20;fill:#ffffff" d="M 96.62 19 C 92.95 19 90 21.94 90 25.60 L 90 26.60 C 90 22.94 92.95 20 96.62 20 L 169.38 20 C 173.05 20 176 22.94 176 26.60 L 176 25.60 C 176 21.94 173.05 19 169.38 19 L 96.62 19 z M 90 130 L 90 131 L 176 131 L 176 130 L 90 130 z "/>
</svg>
