<?xml version='1.0' encoding='utf-8'?>
<svg xmlns="http://www.w3.org/2000/svg" width="192" height="192" version="1" id="svg26">
  <defs>
    <filter style="color-interpolation-filters:sRGB" id="filter885" x="-0.048000002" width="1.096" y="-0.048000002" height="1.096">
      <feGaussianBlur stdDeviation="2.4"/>
    </filter>
    <filter style="color-interpolation-filters:sRGB" id="filter901" x="-0.051999999" width="1.104" y="-0.044571428" height="1.0891429">
      <feGaussianBlur stdDeviation="1.04"/>
    </filter>
    <filter style="color-interpolation-filters:sRGB" id="filter917" x="-0.038400711" width="1.0768014" y="-0.063998027" height="1.1279961">
      <feGaussianBlur stdDeviation="2.5600474"/>
    </filter>
    <filter style="color-interpolation-filters:sRGB" id="filter939" x="-0.048000001" width="1.096" y="-0.048000001" height="1.096">
      <feGaussianBlur stdDeviation="3.2"/>
    </filter>
  </defs>
  <rect style="filter:url(#filter939);opacity:0.2;fill:#000000" width="160" height="160" x="-180" y="-176" rx="80" ry="80" transform="matrix(0,-1,-1,0,0,0)"/>
  <rect transform="matrix(0,-1,-1,0,0,0)" ry="80" rx="80" y="-176" x="-176" height="160" width="160" style="fill:#3f3f3f"/>
  <path d="M 21.828125,51.99706 A 5.68932,6.0274748 0 0 0 16,58.020496 v 83.953124 a 5.68932,6.0274748 0 0 0 8.546875,5.21094 l 34.304689,-20.98438 34.296872,-20.97656 a 5.68932,6.0274748 0 0 0 0,-10.445312 L 58.851564,73.793936 24.546875,52.80956 a 5.68932,6.0274748 0 0 0 -2.71875,-0.8125 z m 148.335935,0 a 5.68932,6.0274748 0 0 0 -2.71094,0.8125 L 133.14844,73.793936 98.851564,94.778308 a 5.68932,6.0274748 0 0 0 0,10.445312 l 34.296876,20.97656 34.30468,20.98438 A 5.68932,6.0274748 0 0 0 176,141.97362 V 58.020496 a 5.68932,6.0274748 0 0 0 -5.82812,-6.023436 5.68932,6.0274748 0 0 1 -0.008,0 z" style="filter:url(#filter917);opacity:0.2"/>
  <path style="opacity:0.1;fill:#ffffff" d="M 96 16 C 51.684 16 16.007812 51.68 16.007812 96 C 16.007812 96.33544 16.009812 96.667215 16.007812 97 C 16.007812 52.68 51.684 17 96 17 C 140.316 17 175.99219 52.68 175.99219 97 C 175.99019 96.667215 175.99219 96.33544 175.99219 96 C 175.99219 51.68 140.316 16 96 16 z "/>
  <path d="M 21.828125,48 A 5.68932,6.0274748 0 0 0 16,54.023436 v 41.984376 41.968748 a 5.68932,6.0274748 0 0 0 8.546875,5.21094 l 34.304689,-20.98438 34.296872,-20.97656 a 5.68932,6.0274748 0 0 0 0,-10.445312 L 58.851564,69.796876 24.546875,48.8125 A 5.68932,6.0274748 0 0 0 21.828125,48 Z m 148.335935,0 a 5.68932,6.0274748 0 0 0 -2.71094,0.8125 L 133.14844,69.796876 98.851564,90.781248 a 5.68932,6.0274748 0 0 0 0,10.445312 l 34.296876,20.97656 34.30468,20.98438 A 5.68932,6.0274748 0 0 0 176,137.97656 V 96.007812 54.023436 A 5.68932,6.0274748 0 0 0 170.17188,48 a 5.68932,6.0274748 0 0 1 -0.008,0 z" style="fill:#e4e4e4"/>
  <rect transform="matrix(0,-1,-1,0,0,0)" ry="60" rx="60" y="-156" x="-160" height="120" width="120" style="filter:url(#filter885);opacity:0.2;fill:#000000"/>
  <path style="opacity:0.2;fill:#ffffff" d="M 21.828125 48 A 5.68932 6.0274748 0 0 0 16 54.023438 L 16 55.023438 A 5.68932 6.0274748 0 0 1 21.828125 49 A 5.68932 6.0274748 0 0 1 24.546875 49.8125 L 58.851562 70.796875 L 93.148438 91.78125 A 5.68932 6.0274748 0 0 1 95.970703 96.5 A 5.68932 6.0274748 0 0 0 93.148438 90.78125 L 58.851562 69.796875 L 24.546875 48.8125 A 5.68932 6.0274748 0 0 0 21.828125 48 z M 170.16406 48 A 5.68932 6.0274748 0 0 0 167.45312 48.8125 L 133.14844 69.796875 L 98.851562 90.78125 A 5.68932 6.0274748 0 0 0 96.03125 96.503906 A 5.68932 6.0274748 0 0 1 98.851562 91.78125 L 133.14844 70.796875 L 167.45312 49.8125 A 5.68932 6.0274748 0 0 1 170.16406 49 A 5.68932 6.0274748 0 0 0 170.17188 49 A 5.68932 6.0274748 0 0 1 176 55.023438 L 176 54.023438 A 5.68932 6.0274748 0 0 0 170.17188 48 A 5.68932 6.0274748 0 0 1 170.16406 48 z "/>
  <rect transform="matrix(0,-1,-1,0,0,0)" ry="60" rx="60" y="-156" x="-156" height="120" width="120" style="fill:#ff922d"/>
  <path d="m 128,100 -24,14 -23.999999,14 V 99.999997 72.000001 l 23.999999,14 z" style="filter:url(#filter901);opacity:0.2"/>
  <path d="M 128,96.000002 104,110 80.000001,124 V 95.999997 68.000002 l 23.999999,14 z" style="fill:#ffffff"/>
  <path style="opacity:0.2;fill:#ffffff" d="M 96 36 C 62.76 36 36 62.76 36 96 C 36 96.12514 36.011037 96.247207 36.015625 96.371094 C 36.352428 63.424685 62.971025 37 96 37 C 129.02898 37 155.64757 63.424685 155.98438 96.371094 C 155.98896 96.247207 156 96.12514 156 96 C 156 62.76 129.24 36 96 36 z "/>
</svg>
