<?xml version='1.0' encoding='utf-8'?>
<svg xmlns="http://www.w3.org/2000/svg" width="192" height="192" version="1" id="svg20">
  <defs>
    <filter style="color-interpolation-filters:sRGB" id="filter865" x="0.05" width="1.10" y="0.05" height="1.10">
      <feGaussianBlur stdDeviation="3.36"/>
    </filter>
    <filter style="color-interpolation-filters:sRGB" id="filter900" x="0.05" width="1.11" y="0.04" height="1.09">
      <feGaussianBlur stdDeviation="1.64"/>
    </filter>
  </defs>
  <path d="m 96,16.00 c -2.11,0 -4.21,0.81 -5.83,2.42 L 68.59,40.00 H 44 c -4.43,0 -8,3.57 -8,8 V 72.59 L 14.42,94.17 c -3.23,3.23 -3.23,8.43 0,11.66 L 36,127.41 v 24.59 c 0,4.43 3.57,8 8,8 h 24.59 l 21.58,21.58 c 3.23,3.23 8.43,3.23 11.66,0 l 21.58,-21.58 H 148 c 4.43,0 8,-3.57 8,-8 v -24.59 l 21.58,-21.58 c 3.23,-3.23 3.23,-8.43 0,-11.66 L 156,72.59 V 48.00 c 0,-4.43 -3.57,-8 -8,-8 H 123.41 L 101.83,18.42 C 100.21,16.81 98.11,16.00 96,16.00 Z" style="filter:url(#filter865);opacity:0.20"/>
  <rect ry="8" rx="8" y="36" x="36" height="120" width="120" style="fill:#ffc107"/>
  <rect transform="rotate(45)" ry="8.24" rx="8.24" y="-61.80" x="73.96" height="123.61" width="123.61" style="fill:#ffc107"/>
  <path d="m 96,56 -10,8 -10,8 0.06,0.05 a 36,36 0 0 0 0.01,0.01 l 10.11,8.09 a 24,24 0 0 1 0.01,0 L 96,88 V 78 a 24,24 0 0 1 24,24 24,24 0 0 1 -2.54,10.67 l 9.51,7.60 A 36,36 0 0 0 132,102 36,36 0 0 0 96,66 Z M 65.03,83.73 A 36,36 0 0 0 60,102 36,36 0 0 0 96,138 v 10 l 10,-8 10,-8 0.06,0.05 a 36,36 0 0 0 0.01,0.01 l -10.11,-8.09 a 24,24 0 0 1 0.01,0 L 96,116 v 10 A 24,24 0 0 1 72,102 24,24 0 0 1 74.54,91.33 Z" style="filter:url(#filter900);opacity:0.10"/>
  <path style="opacity:0.20;fill:#ffffff" d="M 96 12 C 93.89 12 91.79 12.81 90.17 14.42 L 68.59 36 L 44 36 C 39.57 36 36 39.57 36 44 L 36 45 C 36 40.57 39.57 37 44 37 L 68.59 37 L 90.17 15.42 C 91.79 13.81 93.89 13 96 13 C 98.11 13 100.21 13.81 101.83 15.42 L 123.41 37 L 148 37 C 152.43 37 156 40.57 156 45 L 156 44 C 156 39.57 152.43 36 148 36 L 123.41 36 L 101.83 14.42 C 100.21 12.81 98.11 12 96 12 z M 36 68.59 L 14.42 90.17 C 12.69 91.90 11.93 94.20 12.06 96.46 C 12.17 94.54 12.95 92.65 14.42 91.17 L 36 69.59 L 36 68.59 z M 156 68.59 L 156 69.59 L 177.58 91.17 C 179.05 92.65 179.83 94.54 179.94 96.46 C 180.07 94.20 179.31 91.90 177.58 90.17 L 156 68.59 z "/>
  <path d="m 96,60 a 36,36 0 0 0 -19.95,6.05 l 10.11,8.09 A 24,24 0 0 1 96,72 a 24,24 0 0 1 24,24 24,24 0 0 1 -2.54,10.67 l 9.51,7.60 A 36,36 0 0 0 132,96 36,36 0 0 0 96,60 Z M 65.03,77.73 A 36,36 0 0 0 60,96 a 36,36 0 0 0 36,36 36,36 0 0 0 19.95,-6.05 l -10.11,-8.09 A 24,24 0 0 1 96,120 24,24 0 0 1 72,96 24,24 0 0 1 74.54,85.33 Z" style="fill:#486ad6"/>
  <path d="m 76.00,66.00 10,-8.00 10,-8.00 V 66.00 L 96,82.00 86.00,74.00 Z" style="fill:#486ad6"/>
  <path d="m 116,126 -10,8 -10.00,8 v -16 l 0.00,-16.00 L 106,118 Z" style="fill:#486ad6"/>
</svg>
