<?xml version='1.0' encoding='utf-8'?>
<svg xmlns="http://www.w3.org/2000/svg" width="192" height="192" version="1" id="svg16">
  <defs>
    <filter style="color-interpolation-filters:sRGB" id="filter863" x="0.05" width="1.10" y="0.05" height="1.10">
      <feGaussianBlur stdDeviation="3.20"/>
    </filter>
    <filter style="color-interpolation-filters:sRGB" id="filter882" x="0.05" width="1.10" y="0.05" height="1.10">
      <feGaussianBlur stdDeviation="2.55"/>
    </filter>
    <filter style="color-interpolation-filters:sRGB" id="filter898" x="0.05" width="1.10" y="0.05" height="1.10">
      <feGaussianBlur stdDeviation="0.96"/>
    </filter>
  </defs>
  <path d="M 96.00,20.00 C 51.68,20.00 16,55.68 16,100.00 16,144.32 51.68,180 96.00,180 c 44.32,0 80.00,-35.68 80.00,-80.00 0,-44.32 -35.68,-80.00 -80.00,-80.00 z" style="filter:url(#filter863);opacity:0.20;fill:#000000"/>
  <path style="fill:#154277" d="M 96.00,16.00 C 51.68,16.00 16,51.68 16,96.00 c 0,44.32 35.68,80.00 80.00,80.00 44.32,0 80.00,-35.68 80.00,-80.00 0,-44.32 -35.68,-80.00 -80.00,-80.00 z"/>
  <path style="opacity:0.10;fill:#ffffff" d="m 96,16 c -44.28,0.00 -79.93,35.68 -79.93,80 0,0.12 0.01,0.23 0.01,0.34 C 16.43,52.33 51.94,17.00 96,17 h 0.00 c 44.06,0.00 79.57,35.33 79.92,79.34 0.00,0.11 0.01,0.23 0.01,0.34 0,-44.32 -35.65,-80.00 -79.93,-80 z"/>
  <path style="filter:url(#filter882);opacity:0.20" d="m 142.73,33.07 -12.09,20.94 -8.13,14.09 a 40.00,40.00 0 0 1 13.49,29.91 40.00,40.00 0 0 1 -2.09,12.65 l 14.07,8.12 a 56.00,56.00 0 0 0 4.02,-20.77 56.00,56.00 0 0 0 -9.92,-31.80 l 12.86,-22.27 c -3.69,-4.02 -7.77,-7.66 -12.21,-10.86 z M 41.93,39.06 c -4.02,3.69 -7.66,7.77 -10.86,12.21 l 20.94,12.09 14.09,8.13 A 40.00,40.00 0 0 1 96.00,58.00 a 40.00,40.00 0 0 1 12.65,2.09 l 8.12,-14.07 A 56.00,56.00 0 0 0 96.00,42.00 56.00,56.00 0 0 0 64.20,51.92 Z m 2.09,38.16 a 56.00,56.00 0 0 0 -4.02,20.77 56.00,56.00 0 0 0 9.92,31.80 L 38.48,149.62 c 3.77,3.90 7.91,7.45 12.41,10.52 l 10.47,-18.14 8.13,-14.09 A 40.00,40.00 0 0 1 56.00,98.00 40.00,40.00 0 0 1 58.09,85.35 Z M 125.91,124.51 A 40.00,40.00 0 0 1 96.00,138.00 40.00,40.00 0 0 1 83.35,135.91 l -8.12,14.07 a 56.00,56.00 0 0 0 20.77,4.02 56.00,56.00 0 0 0 31.80,-9.92 l 19.58,11.30 c 4.23,-3.54 8.05,-7.53 11.46,-11.86 l -18.84,-10.88 z"/>
  <path style="fill:#5286fe" d="m 142.73,31.07 -12.09,20.94 -8.13,14.09 a 40.00,40.00 0 0 1 13.49,29.91 40.00,40.00 0 0 1 -2.09,12.65 l 14.07,8.12 a 56.00,56.00 0 0 0 4.02,-20.77 56.00,56.00 0 0 0 -9.92,-31.80 l 12.86,-22.27 c -3.69,-4.02 -7.77,-7.66 -12.21,-10.86 z M 41.93,37.06 c -4.02,3.69 -7.66,7.77 -10.86,12.21 l 20.94,12.09 14.09,8.13 A 40.00,40.00 0 0 1 96.00,56.00 a 40.00,40.00 0 0 1 12.65,2.09 l 8.12,-14.07 A 56.00,56.00 0 0 0 96.00,40.00 56.00,56.00 0 0 0 64.20,49.92 Z m 2.09,38.16 a 56.00,56.00 0 0 0 -4.02,20.77 56.00,56.00 0 0 0 9.92,31.80 l -12.86,22.27 c 3.69,4.02 7.77,7.66 12.21,10.86 l 12.09,-20.94 8.13,-14.09 A 40.00,40.00 0 0 1 56.00,96.00 40.00,40.00 0 0 1 58.09,83.35 Z M 125.91,122.51 A 40.00,40.00 0 0 1 96.00,136.00 40.00,40.00 0 0 1 83.35,133.91 l -8.12,14.07 a 56.00,56.00 0 0 0 20.77,4.02 56.00,56.00 0 0 0 31.80,-9.92 l 22.27,12.86 c 4.02,-3.69 7.66,-7.77 10.86,-12.21 l -20.94,-12.09 z"/>
  <circle style="filter:url(#filter898);opacity:0.20" cx="96.00" cy="98.00" r="24.00"/>
  <circle style="fill:#f5ca4a" cx="96.00" cy="96.00" r="24.00"/>
</svg>
