<?xml version='1.0' encoding='utf-8'?>
<svg xmlns="http://www.w3.org/2000/svg" width="192" height="192" version="1.1" id="svg18">
  <defs>
    <filter style="color-interpolation-filters:sRGB" id="filter4645" x="0.05" y="0.05" width="1.09" height="1.10">
      <feGaussianBlur stdDeviation="3.08"/>
    </filter>
    <filter style="color-interpolation-filters:sRGB" id="filter4733" x="0.05" y="0.05" width="1.09" height="1.10">
      <feGaussianBlur stdDeviation="1.23"/>
    </filter>
  </defs>
  <path style="filter:url(#filter4645);opacity:0.20;fill:#000000" d="m 119.81,26.01 c -1.05,0 -8.02,2.96 -24.32,10.32 C 82.92,42.00 71.51,47.74 70.61,48 70.61,48 56.21,48.01 49,48 30.72,48 16,62.72 16,81 v 60 c 0,18.28 14.72,33 33,33 h 94 c 18.28,0 33,-14.72 33,-33 V 81 C 176,62.72 161.28,48 143,48 h -17.95 c -1.93,0.63 -2.65,-1.45 -3,-2.37 0.22,0.57 0.41,-3.06 1.02,-7.04 1.33,-8.74 1.31,-9.50 0.40,-11.21 -1.06,-1.06 -1.72,-1.38 -2.85,-1.38 z"/>
  <path style="fill:#6d45df" d="m 119.81,22.01 c -1.05,0 -8.02,2.96 -24.32,10.32 C 82.92,38.00 71.51,43.74 70.61,44 70.61,44 56.21,44.01 49,44 30.72,44 16,58.72 16,77 v 60 c 0,18.28 14.72,33 33,33 h 94 c 18.28,0 33,-14.72 33,-33 V 77 C 176,58.72 161.28,44 143,44 h -17.95 c -1.93,0.63 -2.65,-1.45 -3,-2.37 0.22,0.57 0.41,-3.06 1.02,-7.04 1.33,-8.74 1.31,-9.50 0.40,-11.21 -1.06,-1.06 -1.72,-1.38 -2.85,-1.38 z"/>
  <path style="filter:url(#filter4733);opacity:0.20;fill:#000000;stop-color:#000000" d="m 124.00,82.00 a 4,4 0 0 0 -2.22,0.67 l -9,6 a 4.00,4.00 0 0 0 0.24,6.49 l 9,7.00 a 4,4 0 0 0 5.61,0.70 4,4 0 0 0 0.70,-5.61 l -4.62,-3.59 4.38,-2.92 a 4,4 0 0 0 1.11,-5.55 4,4 0 0 0 -2.54,-1.70 4,4 0 0 0 0.78,0.08 z m -52.50,1 a 8.50,8.50 0 0 0 -8.50,8.50 8.50,8.50 0 0 0 8.50,8.50 8.50,8.50 0 0 0 8.50,-8.50 8.50,8.50 0 0 0 -8.50,-8.50 z m 21.00,18.00 c -3.22,0.03 -5.61,1.54 -6.87,4.53 0.52,1.24 0.63,3.73 0.63,14.64 0.00,7.34 0.18,13.78 0.40,14.58 0.46,1.65 2.91,4.16 4.71,4.81 3.01,1.09 4.35,0.58 16.23,-6.23 11.30,-6.47 13.04,-7.67 14.09,-9.67 0.85,-1.62 0.73,-4.95 0.26,-6.87 0.98,-1.91 -1.49,-2.25 -14.92,-9.96 -8.82,-5.06 -10.05,-5.65 -12.11,-5.80 0.22,0.02 0.44,0.03 0.65,0.03 z"/>
  <circle style="fill:#ffffff;stop-color:#000000" cx="71.50" cy="88.50" r="8.50"/>
  <path style="fill:#ffffff;color:#000000" d="m 124.79,79.08 a 4,4 0 0 0 -3.00,0.59 l -9,6 a 4.00,4.00 0 0 0 0.24,6.49 l 9,7 a 4,4 0 0 0 5.61,0.70 4,4 0 0 0 0.70,-5.61 L 121.84,89.25 l 4.38,-2.92 a 4,4 0 0 0 1.11,-5.55 4,4 0 0 0 -2.54,-1.70 z"/>
  <path style="fill:#fcd600" d="m 106.34,130.33 c 11.30,-6.47 13.04,-7.67 14.09,-9.67 0.85,-1.62 0.73,-4.95 0.26,-6.87 0.98,-1.91 -1.49,-2.25 -14.92,-9.95 -8.82,-5.06 -10.05,-5.65 -12.10,-5.81 -3.55,0.26 -6.19,1.31 -7.52,4.50 0.52,1.24 0.63,3.73 0.63,14.64 0.00,7.34 0.18,13.77 0.40,14.58 0.46,1.65 2.91,4.16 4.71,4.81 3.01,1.09 4.35,0.58 16.23,-6.23 z"/>
  <path style="opacity:0.10;fill:#ffffff" d="m 119.81,22.01 c -1.05,0 -8.02,2.96 -24.32,10.32 C 82.92,38.00 71.51,43.74 70.61,44 70.61,44 56.21,44.01 49,44 30.72,44 16,58.72 16,77 v 1 c 0,-18.28 14.72,-33 33,-33 7.21,0.01 21.61,0 21.61,0 0.89,0.26 12.31,-6.00 24.88,-11.67 16.30,-7.36 23.28,-10.32 24.32,-10.32 1.13,0 1.79,0.32 2.85,1.38 0.82,0.82 1.24,1.44 1.32,2.80 0.08,-2.09 0.33,-2.81 -1.32,-3.80 -1.06,-1.06 -1.72,-1.38 -2.85,-1.38 z m 2.24,19.65 c 0.05,0.46 0.07,0.82 0.01,0.98 0.35,0.92 1.07,1.74 3,2.37 H 143 c 18.28,0 33,14.72 33,33 V 77 C 176,58.72 161.28,44 143,44 h -17.95 c -1.92,0.63 -2.63,-1.43 -2.99,-2.35 z"/>
</svg>
