<?xml version='1.0' encoding='utf-8'?>
<svg xmlns="http://www.w3.org/2000/svg" width="192" height="192" version="1" id="svg20">
  <defs>
    <filter style="color-interpolation-filters:sRGB" id="filter880" x="0.10" y="0.03" width="1.20" height="1.06">
      <feGaussianBlur stdDeviation="2.10"/>
    </filter>
    <filter style="color-interpolation-filters:sRGB" id="filter884" x="0.05" y="0.05" width="1.10" height="1.09">
      <feGaussianBlur stdDeviation="2.43"/>
    </filter>
    <filter style="color-interpolation-filters:sRGB" id="filter888" x="0.04" y="0.06" width="1.08" height="1.11">
      <feGaussianBlur stdDeviation="2.80"/>
    </filter>
  </defs>
  <path style="filter:url(#filter888);opacity:0.20" d="M 170.34,36.95 137.39,21.00 c -3.81,-1.85 -8.37,-1.07 -11.36,1.94 L 18.18,120.65 c -2.90,2.66 -2.90,7.25 0.01,9.91 l 8.81,8.06 c 2.37,2.17 5.95,2.33 8.51,0.38 L 165.38,41.09 c 4.36,-3.32 10.62,0.20 10.62,5.30 v 0.38 c 0,-3.86 -2.20,-7.38 -5.66,-9.06 z"/>
  <path style="filter:url(#filter880);opacity:0.20" d="m 137.40,179.01 c -3.81,1.85 -8.37,1.07 -11.37,-1.95 3.69,3.71 9.99,1.08 9.99,-4.16 V 27.10 c 0,-5.25 -6.31,-7.87 -9.99,-4.16 2.99,-3.01 7.55,-3.79 11.37,-1.95 l 32.94,15.93 C 173.80,38.60 176,42.12 176,45.98 V 154.02 c 0,3.86 -2.20,7.38 -5.66,9.06 z"/>
  <path style="fill:#0072b0" d="M 170.34,32.95 137.39,17.00 c -3.81,-1.85 -8.37,-1.07 -11.36,1.94 L 18.18,116.65 c -2.90,2.66 -2.90,7.25 0.01,9.91 l 8.81,8.06 c 2.37,2.17 5.95,2.33 8.51,0.38 L 165.38,37.09 c 4.36,-3.32 10.62,0.20 10.62,5.30 v 0.38 c 0,-3.86 -2.20,-7.38 -5.66,-9.06 z"/>
  <path style="opacity:0.10;fill:#ffffff" d="M 132.91 16.00 C 130.38 16.04 127.90 17.06 126.03 18.94 L 18.17 116.65 C 16.60 118.09 15.92 120.09 16.06 122.05 C 16.18 120.43 16.87 118.84 18.17 117.65 L 126.03 19.94 C 127.90 18.06 130.38 17.04 132.91 17.00 C 134.43 16.98 135.96 17.30 137.39 17.99 L 170.34 33.95 C 172.95 35.21 174.84 37.53 175.61 40.25 C 175.84 40.91 176 41.62 176 42.39 L 176 42.01 C 176 38.15 173.80 34.62 170.34 32.95 L 137.39 16.99 C 135.96 16.30 134.43 15.98 132.91 16.00 z "/>
  <path style="filter:url(#filter884);opacity:0.20" d="m 31.18,56.06 c -1.51,0.07 -3.00,0.65 -4.19,1.73 l -8.81,8.05 c -2.90,2.66 -2.91,7.25 0.01,9.91 L 126.03,177.06 c 3.69,3.71 9.99,1.08 9.99,-4.16 V 135.97 L 35.50,57.41 c -1.28,0.98 -2.81,-1.42 -4.32,-1.35 z"/>
  <path style="fill:#008eda" d="m 170.34,159.05 -32.95,15.96 c -3.81,1.85 -8.37,1.07 -11.36,-1.94 L 18.18,71.75 c -2.90,-2.66 -2.90,-7.25 0.01,-9.91 l 8.81,-8.06 c 2.37,-2.17 5.95,-2.33 8.51,0.38 L 165.38,154.91 c 4.36,3.32 10.62,0.20 10.62,-5.30 v 0.39 c 0,3.86 -2.20,7.38 -5.66,9.06 z"/>
  <path style="opacity:0.10;fill:#ffffff" d="M 31.18 52.06 C 29.67 52.12 28.18 52.71 26.99 53.79 L 18.18 61.85 C 16.61 63.29 15.92 65.29 16.05 67.24 C 16.18 65.62 16.88 64.04 18.18 62.85 L 26.99 54.79 C 28.18 53.71 29.67 53.12 31.18 53.06 C 32.69 52.99 34.22 53.43 35.50 54.41 L 165.38 155.91 C 168.89 158.59 173.62 157.08 175.34 153.53 C 175.75 152.42 176 151.23 176 149.99 L 176 149.61 C 176 155.11 169.74 158.24 165.38 154.91 L 35.50 53.41 C 34.22 52.43 32.69 51.99 31.18 52.06 z "/>
  <path style="fill:#1eacf8" d="m 137.40,175.01 c -3.81,1.85 -8.37,1.07 -11.37,-1.95 3.69,3.71 9.99,1.08 9.99,-4.16 V 23.10 c 0,-5.25 -6.31,-7.87 -9.99,-4.16 2.99,-3.01 7.55,-3.79 11.37,-1.95 l 32.94,15.93 C 173.80,34.60 176,38.12 176,41.98 V 150.02 c 0,3.86 -2.20,7.38 -5.66,9.06 z"/>
</svg>
