<?xml version='1.0' encoding='utf-8'?>
<svg xmlns="http://www.w3.org/2000/svg" width="192" height="192" version="1" id="svg28">
  <defs>
    <filter style="color-interpolation-filters:sRGB" id="filter901" x="-0.048000001" width="1.096" y="-0.048000001" height="1.096">
      <feGaussianBlur stdDeviation="3.2"/>
    </filter>
    <filter style="color-interpolation-filters:sRGB" id="filter1957" x="-0.048" y="-0.048" width="1.096" height="1.096">
      <feGaussianBlur stdDeviation="1.88"/>
    </filter>
  </defs>
  <rect style="filter:url(#filter901);opacity:0.2;fill:#000000" width="160" height="160" x="-180" y="-176" rx="12" ry="12" transform="matrix(0,-1,-1,0,0,0)"/>
  <rect transform="matrix(0,-1,-1,0,0,0)" ry="12" rx="12" y="-176" x="-176" height="160" width="160" style="fill:#606060"/>
  <path style="filter:url(#filter1957);opacity:0.2;fill:#000000;stop-color:#000000" d="m 52,51 c -1.662,0 -3,1.338 -3,3 v 26 c 0,1.662 1.338,3 3,3 h 52 c 1.662,0 3,-1.338 3,-3 V 54 c 0,-1.662 -1.338,-3 -3,-3 z m 62,0 c -1.662,0 -3,1.338 -3,3 v 52 c 0,1.662 1.338,3 3,3 h 26 c 1.662,0 3,-1.338 3,-3 V 54 c 0,-1.662 -1.338,-3 -3,-3 z M 52,87 c -1.662,0 -3,1.338 -3,3 v 52 c 0,1.662 1.338,3 3,3 h 26 c 1.662,0 3,-1.338 3,-3 V 90 c 0,-1.662 -1.338,-3 -3,-3 z m 36,26 c -1.662,0 -3,1.338 -3,3 v 26 c 0,1.662 1.338,3 3,3 h 52 c 1.662,0 3,-1.338 3,-3 v -26 c 0,-1.662 -1.338,-3 -3,-3 z"/>
  <path style="opacity:0.1;fill:#ffffff" d="m 28,16 c -6.648,0 -12,5.352 -12,12 v 1 c 0,-6.648 5.352,-12 12,-12 h 136 c 6.648,0 12,5.352 12,12 v -1 c 0,-6.648 -5.352,-12 -12,-12 z"/>
  <rect style="fill:#bcbcbc;stop-color:#000000" width="58" height="32" x="49" y="49" rx="3" ry="3"/>
  <rect style="fill:#bcbcbc;stop-color:#000000" width="58" height="32" x="49" y="-143" rx="3" ry="3" transform="rotate(90)"/>
  <rect style="fill:#ffc107;stop-color:#000000" width="58" height="32" x="85" y="111" rx="3" ry="3"/>
  <rect style="fill:#bcbcbc;stop-color:#000000" width="58" height="32" x="85" y="-81" rx="3" ry="3" transform="rotate(90)"/>
  <path style="opacity:0.2;fill:#ffffff;stop-color:#000000" d="m 52,49 c -1.662,0 -3,1.338 -3,3 v 1 c 0,-1.662 1.338,-3 3,-3 h 52 c 1.662,0 3,1.338 3,3 v -1 c 0,-1.662 -1.338,-3 -3,-3 z m 62,0 c -1.662,0 -3,1.338 -3,3 v 1 c 0,-1.662 1.338,-3 3,-3 h 26 c 1.662,0 3,1.338 3,3 v -1 c 0,-1.662 -1.338,-3 -3,-3 z M 52,85 c -1.662,0 -3,1.338 -3,3 v 1 c 0,-1.662 1.338,-3 3,-3 h 26 c 1.662,0 3,1.338 3,3 v -1 c 0,-1.662 -1.338,-3 -3,-3 z m 36,26 c -1.662,0 -3,1.338 -3,3 v 1 c 0,-1.662 1.338,-3 3,-3 h 52 c 1.662,0 3,1.338 3,3 v -1 c 0,-1.662 -1.338,-3 -3,-3 z"/>
</svg>
