<?xml version='1.0' encoding='utf-8'?>
<svg xmlns="http://www.w3.org/2000/svg" width="192" height="192" version="1" id="svg14">
  <defs>
    <filter style="color-interpolation-filters:sRGB" id="filter850" x="0.05" width="1.10" y="0.05" height="1.10">
      <feGaussianBlur stdDeviation="3.20"/>
    </filter>
    <filter style="color-interpolation-filters:sRGB" id="filter12326" x="0.11" y="0.11" width="1.22" height="1.22">
      <feGaussianBlur stdDeviation="5.15"/>
    </filter>
  </defs>
  <circle style="filter:url(#filter850);opacity:0.20;fill:#000000" cx="96" cy="100" r="80"/>
  <circle r="80" cy="96" cx="96" style="fill:#009e8e"/>
  <path style="filter:url(#filter12326);opacity:0.20;fill:#000000" d="M 96,40.77 86.44,88.44 38.77,98.00 86.44,107.56 96,155.23 l 9.56,-47.67 47.67,-9.56 -47.67,-9.56 z"/>
  <path style="fill:#38adfa" d="m 688.81,257.00 c 0.33,0.33 -1.19,0.37 -1.92,0.08 0.80,0.32 0.56,0.56 0.60,0.60 1.05,0.04 1.64,0.19 1.31,0.53 z"/>
  <path style="opacity:0.20;fill:#ffffff" d="M 96 16 A 80 80 0 0 0 16 96 A 80 80 0 0 0 16.02 96.47 A 80 80 0 0 1 96 17 A 80 80 0 0 1 175.97 96.51 A 80 80 0 0 0 176 96 A 80 80 0 0 0 96 16 z "/>
  <path style="fill:#ffffff" d="M 96,38.77 V 96 l -9.59,-9.44 z"/>
  <path style="fill:#006d62" d="M 96,38.77 V 96 l 9.59,-9.44 z"/>
  <path style="fill:#006d62" d="M 96,153.23 V 96 l -9.59,9.44 z"/>
  <path style="fill:#ffffff" d="M 96,153.23 V 96 l 9.59,9.44 z"/>
  <path style="fill:#ffffff" d="M 153.23,96.00 H 96.00 l 9.44,-9.59 z"/>
  <path style="fill:#006d62" d="M 153.23,96.00 H 96.00 l 9.44,9.59 z"/>
  <path style="fill:#006d62" d="m 38.77,96.00 h 57.23 l -9.44,-9.59 z"/>
  <path style="fill:#ffffff" d="m 38.77,96.00 h 57.23 l -9.44,9.59 z"/>
</svg>
