<?xml version='1.0' encoding='utf-8'?>
<svg xmlns="http://www.w3.org/2000/svg" width="192" height="192" version="1" id="svg16">
  <defs>
    <filter style="color-interpolation-filters:sRGB" id="filter867" x="0.05" width="1.10" y="0.05" height="1.10">
      <feGaussianBlur stdDeviation="3.20"/>
    </filter>
    <filter style="color-interpolation-filters:sRGB" id="filter1686" x="0.13" y="0.05" width="1.26" height="1.11">
      <feGaussianBlur stdDeviation="2.42"/>
    </filter>
  </defs>
  <rect ry="80" rx="80" height="160" width="160" y="-176" x="-180" transform="matrix(0,-1,-1,0,0,0)" style="filter:url(#filter867);opacity:0.20;fill:#000000"/>
  <rect style="fill:#36d4c8" transform="matrix(0,-1,-1,0,0,0)" x="-176" y="-176" width="160" height="160" rx="80" ry="80"/>
  <path style="opacity:0.20;fill:#ffffff" d="M 96 16 C 51.68 16 16 51.68 16 96 C 16 96.34 16.00 96.67 16 97 C 16 52.68 51.68 17 96 17 C 140.32 17 176 52.68 176 97 C 176.00 96.67 176 96.34 176 96 C 176 51.68 140.32 16 96 16 z "/>
  <path style="filter:url(#filter1686);opacity:0.20;fill:#000000" d="m 108.11,152.83 c 1.69,-4.45 3.09,-9.13 3.89,-13.63 2.83,-16.04 0.56,-29.51 -9.80,-39.71 -4.55,-5.03 -11.69,-9.68 -19.52,-12.71 -1.67,0.65 -3.08,-1.21 -3.12,-1.24 0.04,0.03 0.55,-1.13 1.31,-2.43 C 84.57,76.83 87,69.99 87,65.36 87,60.83 85.11,55.92 81.77,51.17 80.29,49.08 77.15,45.72 75.27,44.21 74.51,43.61 73.94,43.06 74.00,43.00 c 0.06,0.06 1.46,0.57 3.12,1.39 9.09,4.54 15.57,12.51 17.46,21.88 0.66,3.26 0.40,8.83 0.58,12.54 0.41,1.55 -1.18,3.43 -1.47,4.17 0.41,1.05 0.46,1.36 0.20,1.44 0.98,0.31 6.51,3.32 8.30,4.51 9.52,6.35 15.42,14.43 17.71,24.24 0.72,3.07 0.89,9.78 0.35,13.45 0.99,6.71 -3.59,14.08 -7.49,21.18 -1.72,3.14 -3.42,5.90 -3.08,5.01 z"/>
  <path style="fill:#f9fcfc" d="m 108.11,150.83 c 1.69,-4.45 3.09,-9.13 3.89,-13.63 2.83,-16.04 0.56,-29.51 -9.80,-39.71 -4.55,-5.03 -11.69,-9.68 -19.52,-12.71 -1.67,0.65 -3.08,-1.21 -3.12,-1.24 0.04,0.03 0.55,-1.13 1.31,-2.43 C 84.57,74.83 87,67.99 87,63.36 87,58.83 85.11,53.92 81.77,49.17 80.29,47.08 77.15,43.72 75.27,42.21 74.51,41.61 73.94,41.06 74.00,41.00 c 0.06,0.06 1.46,0.57 3.12,1.39 9.09,4.54 15.57,12.51 17.46,21.88 0.66,3.26 0.40,8.83 0.58,12.54 0.41,1.55 -1.18,3.43 -1.47,4.17 0.41,1.05 0.46,1.36 0.20,1.44 0.98,0.31 6.51,3.32 8.30,4.51 9.52,6.35 15.42,14.43 17.71,24.24 0.72,3.07 0.89,9.78 0.35,13.45 0.99,6.71 -3.59,14.08 -7.49,21.18 -1.72,3.14 -3.42,5.90 -3.08,5.01 z"/>
</svg>
