<?xml version='1.0' encoding='utf-8'?>
<svg xmlns="http://www.w3.org/2000/svg" width="192" height="192" version="1" id="svg24">
  <defs>
    <filter style="color-interpolation-filters:sRGB" id="filter880" x="0.05" width="1.10" y="0.05" height="1.10">
      <feGaussianBlur stdDeviation="3.20"/>
    </filter>
    <filter style="color-interpolation-filters:sRGB" id="filter896" x="0.06" width="1.12" y="0.04" height="1.08">
      <feGaussianBlur stdDeviation="2.72"/>
    </filter>
  </defs>
  <path style="filter:url(#filter880);opacity:0.20" d="m 24,20 c -4.43,0 -8,3.57 -8,8 v 72 72 c 0,4.43 3.57,8 8,8 H 96 A 80,80 0 0 0 176,100 80,80 0 0 0 96,20 Z"/>
  <path style="fill:#e4e4e4" d="m 51.60,16 v 160 h 43.20 c 25.20,0 76,-35.82 76,-80 0,-44.18 -50.80,-80 -76,-80 z"/>
  <path style="fill:#e8494e" d="m 24,16 c -4.43,0 -8,3.57 -8,8 v 72 72 c 0,4.43 3.57,8 8,8 h 4 V 16 Z"/>
  <rect style="fill:#38af29" width="12" height="160" x="28" y="16"/>
  <rect style="fill:#1f72c7" width="12" height="160" x="40" y="16"/>
  <path style="filter:url(#filter896);opacity:0.10" d="M 96,20 A 80,80 0 0 0 88.31,20.45 80,80 0 0 1 160,100 80,80 0 0 1 87.69,179.55 80,80 0 0 0 96,180 80,80 0 0 0 176,100 80,80 0 0 0 96,20 Z m 0,32 A 48,48 0 0 0 87.84,52.70 48,48 0 0 1 128,100 48,48 0 0 1 88.16,147.30 48,48 0 0 0 96,148 48,48 0 0 0 144,100 48,48 0 0 0 96,52 Z m -8,24 a 24,24 0 0 0 -24,24 24,24 0 0 0 24,24 24,24 0 0 0 24,-24 24,24 0 0 0 -24,-24 z"/>
  <path style="fill:#4f4f4f" d="M 96,16 A 80,80 0 0 0 88.31,16.45 80,80 0 0 1 160,96 80,80 0 0 1 87.69,175.55 80,80 0 0 0 96,176 80,80 0 0 0 176,96 80,80 0 0 0 96,16 Z"/>
  <path style="fill:#4f4f4f" d="M 96,48 A 48,48 0 0 0 87.84,48.70 48,48 0 0 1 128,96 48,48 0 0 1 88.16,143.30 48,48 0 0 0 96,144 48,48 0 0 0 144,96 48,48 0 0 0 96,48 Z"/>
  <circle style="fill:#4f4f4f" cx="88" cy="96" r="24"/>
  <path style="fill:#ffffff" d="m 82.45,108.40 c 0,0.66 0.10,-1.23 0.29,-1.69 0.19,0.46 0.46,0.83 0.79,-1.11 0.34,0.28 0.74,0.49 1.20,0.62 0.46,0.13 0.95,0.19 1.47,0.19 0.50,0 0.97,0.06 1.41,0.19 0.44,0.13 0.84,0.33 1.18,0.62 0.34,0.28 0.61,0.65 0.80,1.11 0.20,0.46 0.30,1.02 0.30,1.69 0,0.64 0.10,1.18 0.30,1.63 0.20,0.45 0.47,0.83 0.80,1.12 0.34,0.30 0.73,0.51 -1.18,0.65 0.44,0.13 0.91,0.20 -1.41,0.20 0.52,0 -1.01,0.07 -1.47,0.20 0.46,0.14 0.86,0.35 -1.20,0.65 0.34,0.30 0.60,0.67 0.79,-1.12 0.19,0.45 0.28,-1.00 0.28,-1.63 m 0.70,-8.40 v 0.42 c 0,0.72 0.07,-1.37 0.22,-1.96 0.15,0.59 0.37,-1.14 0.68,-1.67 0.30,0.53 0.69,-1.05 1.17,-1.55 0.48,0.50 1.06,-1.02 1.74,-1.56 0.59,0.47 1.09,0.88 1.50,-1.25 0.41,0.37 0.74,0.73 1.00,-1.09 0.25,0.36 0.44,0.74 0.55,-1.13 0.11,0.40 0.17,0.86 0.17,-1.38 0,0.81 0.27,-1.47 0.82,-1.99 0.54,0.52 -1.37,0.78 -2.49,0.78 0.97,0 -2.02,0.20 -3.15,0.61 -1.12,0.41 -2.28,0.91 -3.49,1.51 L 78.09,82.65 c 0.61,0.35 1.27,0.69 1.98,-1.01 0.71,0.32 1.46,0.60 2.22,0.85 0.77,0.25 1.55,0.44 2.34,0.58 0.79,0.14 1.57,0.21 2.33,0.21 1.44,0 2.74,0.17 3.90,0.52 1.16,0.35 2.14,0.85 2.95,1.51 0.81,0.66 1.42,1.47 1.85,2.42 0.43,0.95 0.65,2.03 0.65,3.24 0,0.89 0.10,1.69 0.30,2.38 0.20,0.70 0.49,1.35 0.88,1.95 0.39,0.60 0.88,1.18 -1.46,1.74 0.59,0.56 -1.27,1.15 -2.04,1.77 0.59,0.47 -1.08,0.87 -1.45,1.22 0.37,0.35 0.67,0.68 0.88,0.98 0.21,0.31 0.36,0.63 0.44,0.97 0.08,0.33 0.12,0.72 0.12,1.17 v 0.12 h -5.59 z"/>
  <path style="opacity:0.10;fill:#ffffff" d="M 24 16 C 19.57 16 16 19.57 16 24 L 16 25 C 16 20.57 19.57 17 24 17 L 96 17 A 80 80 0 0 1 175.98 96.58 A 80 80 0 0 0 176 96 A 80 80 0 0 0 96 16 L 24 16 z "/>
</svg>
