<svg xmlns="http://www.w3.org/2000/svg" id="svg12" width="192" height="192" version="1.1"><defs><filter style="color-interpolation-filters:sRGB" id="filter845" width="1.1" height="1.1" x=".05" y=".05"><feGaussianBlur stdDeviation="3.2"/></filter><filter style="color-interpolation-filters:sRGB" id="filter6536" width="1.1" height="1.1" x=".05" y=".05"><feGaussianBlur stdDeviation="1.98"/></filter><filter style="color-interpolation-filters:sRGB" id="filter6540" width="1.1" height="1.14" x=".05" y=".07"><feGaussianBlur stdDeviation="2.08"/></filter><filter style="color-interpolation-filters:sRGB" id="filter6544" width="1.1" height="1.09" x=".05" y=".04"><feGaussianBlur stdDeviation=".48"/></filter></defs><circle style="filter:url(#filter845);opacity:.2" cx="96" cy="100" r="80"/><path style="fill:#621934" d="m 176,96 c 0,21.09 -8.16,40.28 -21.51,54.57 -14.60,15.64 -35.92,18.14 -59.01,18.14 -23.24,0 -43.65,-2.63 -58.27,-18.46 C 24.04,136.00 16,116.94 16,96 16,51.82 51.82,16 96,16 c 44.18,0 80,35.82 80,80 z"/><path style="filter:url(#filter6544);opacity:.2;fill:#000;stop-color:#000" d="m 112,36 v 12.42 c 8.39,2.60 15.91,7.20 22,13.24 V 36 l -11,4 z"/><path style="opacity:.1;fill:#fff" d="M 96,16.00 A 80.00,79.99 0 0 0 16,95.99 80.00,79.99 0 0 0 16.02,96.63 80.00,79.99 0 0 1 96,17 80.00,79.99 0 0 1 175.98,96.29 80.00,79.99 0 0 0 176,95.99 80.00,79.99 0 0 0 96,16.00 Z"/><path style="filter:url(#filter6536);opacity:.2;fill:#000;stop-color:#000" d="m 94.49,54.13 c -28.72,0 -46.53,17.15 -46.53,45.87 0.01,5.91 -2.94,11.73 -1.01,17.21 2.10,5.96 5.28,11.54 9.44,16.43 L 90.30,144 h 11.40 l 33.91,-10.36 c 4.88,-5.74 8.43,-12.43 10.44,-19.58 1.28,-4.54 -5.72,-13.45 -5.72,-18.24 0,-12.65 3.15,-20.07 -4.36,-29.08 -1.11,-1.33 -2.28,-2.60 -3.51,-3.81 -9.38,-9.23 -23.76,-8.79 -37.96,-8.79 z m 22.96,47.93 c 5.55,0 8.58,6.49 4.98,10.68 l -1.47,1.71 0.84,-1.56 c -1.27,-2.38 -4.34,-3.93 -6.93,-3.51 C 111.10,109.71 111,109.63 111,107.78 c 0,-3.00 3.06,-5.72 6.46,-5.72 z M 104.31,133 c 1.15,0.02 0.83,1.83 0.72,3.18 -3.07,2.66 -7.32,3.49 -11.48,2.27 C 89.69,137.73 87,135.57 87,134.33 c 0,-1.13 1.26,-1.11 5.35,0.07 3.42,0.99 3.99,0.93 11.55,-1.34 0.15,0.05 0.29,0.07 0.41,0.07 z m -41.86,6.67 C 71.82,147.62 83.71,151.99 96,152 c 12.29,0.01 24.18,-4.38 33.55,-12.33 l -26.97,8.24 C 102.39,147.97 102.20,148.00 102,148 H 90 c 0.20,0.00 0.39,0.03 0.58,0.09 z"/><path style="fill:#fced97;stop-color:#000" d="m 94.49,52.13 c -28.72,0 -46.53,17.15 -46.53,45.87 0.01,5.91 -2.94,11.73 -1.01,17.21 2.10,5.96 5.28,11.54 9.44,16.43 L 90.30,142 h 11.40 l 33.91,-10.36 c 4.88,-5.74 8.43,-12.43 10.44,-19.58 1.28,-4.54 -5.72,-13.45 -5.72,-18.24 0,-12.65 3.15,-20.07 -4.36,-29.08 -1.11,-1.33 -2.28,-2.60 -3.51,-3.81 -9.38,-9.23 -23.76,-8.79 -37.96,-8.79 z m 22.96,47.93 c 5.55,0 8.58,6.49 4.98,10.68 l -1.47,1.71 0.84,-1.56 c -1.27,-2.38 -4.34,-3.93 -6.93,-3.51 C 111.10,107.71 111,107.63 111,105.78 c 0,-3.00 3.06,-5.72 6.46,-5.72 z M 104.31,131 c 1.15,0.02 0.83,1.83 0.72,3.18 -3.07,2.66 -7.32,3.49 -11.48,2.27 C 89.69,135.73 87,133.57 87,132.33 c 0,-1.13 1.26,-1.11 5.35,0.07 3.42,0.99 3.99,0.93 11.55,-1.34 0.15,0.05 0.29,0.07 0.41,0.07 z m -41.86,6.67 C 71.82,145.62 83.71,149.99 96,150 c 12.29,0.01 24.18,-4.38 33.55,-12.33 l -26.97,8.24 C 102.39,145.97 102.20,146.00 102,146 H 90 c 0.20,0.00 0.39,0.03 0.58,0.09 z"/><path style="filter:url(#filter6540);opacity:.2;fill:#000;stop-color:#000" d="m 96,48 a 52,52 0 0 0 -52,52 52,52 0 0 0 3.24,17.68 c 40.03,5.47 74.82,-17.55 85.82,-54.15 A 52,52 0 0 0 96,48 Z m 38.79,17.38 c -3.73,10.67 -8.08,20.98 -12.40,25.12 l 23.45,24.30 A 52,52 0 0 0 148,100 52,52 0 0 0 134.79,65.38 Z"/><path style="fill:#a41b47;stop-color:#000" d="m 96,46 a 52,52 0 0 0 -52,52 52,52 0 0 0 3.24,17.68 C 87.27,121.15 122.06,98.13 133.06,61.53 A 52,52 0 0 0 96,46 Z m 38.79,17.38 c -3.73,10.67 -8.08,20.98 -12.40,25.12 l 23.45,24.30 A 52,52 0 0 0 148,98 52,52 0 0 0 134.79,63.38 Z"/><path style="fill:#29cfc3;stop-color:#000" d="m 112,34 v 12.42 c 8.39,2.60 15.91,7.20 22,13.24 V 34 l -11,4 z"/><path style="fill:#fff;stop-color:#000" d="m 142.32,131.91 c 0.45,0.01 0.91,0.05 -1.37,0.20 L 102,144 H 90 L 51.05,132.10 C 47.14,132.10 44,135.03 44,138.66 v 18.09 A 80,80 0 0 0 63.38,169 H 128.62 A 80,80 0 0 0 148,156.75 v -18.09 c 0,-3.18 -2.55,-6.69 -5.68,-6.75 z"/><path style="fill:#28cec1;stop-color:#000" d="m 45,137.12 c -4.43,0 -8,3.56 -8,7.98 v 4.75 A 80,80 0 0 0 96,176 a 80,80 0 0 0 9,0.64 V 146 H 87 Z"/><path style="fill:#24beb6;stop-color:#000" d="m 87,146 v 29.36 A 80,80 0 0 0 96,176 a 80,80 0 0 0 9,0.64 V 146 Z"/><path style="fill:#23b0a7;stop-color:#000" d="m 147.80,137.01 c 0.27,0.02 0.53,0.05 0.80,0.11 L 105,146 v 29.36 a 80,80 0 0 0 50,-25.51 v -4.75 c 0,-4.14 -3.22,-8.34 -7.20,-8.09 z"/><path style="opacity:.2;fill:#fff;stop-color:#000" d="M 96,46 A 52,52 0 0 0 44,98 52,52 0 0 0 44.03,98.50 52,52 0 0 1 96,47 52,52 0 0 1 132.80,62.31 c 0.08,0.26 0.17,0.51 0.25,0.78 A 52,52 0 0 0 96,46 Z m 38.79,17.38 c -3.73,10.67 -8.08,20.98 -12.40,25.12 l 0.48,0.50 c 4.17,-4.42 8.33,-14.33 11.92,-24.61 A 52,52 0 0 1 147.97,98.55 52,52 0 0 0 148,98 52,52 0 0 0 134.79,63.38 Z"/></svg>