<?xml version='1.0' encoding='utf-8'?>
<svg xmlns="http://www.w3.org/2000/svg" width="192" height="192" version="1" id="svg28">
  <defs>
    <filter style="color-interpolation-filters:sRGB" id="filter6495" x="0.05" y="0.05" width="1.10" height="1.10">
      <feGaussianBlur stdDeviation="3.20"/>
    </filter>
    <filter style="color-interpolation-filters:sRGB" id="filter9810" x="0.12" y="0.10" width="1.24" height="1.20">
      <feGaussianBlur stdDeviation="3.92"/>
    </filter>
  </defs>
  <rect transform="matrix(0,-1,-1,0,0,0)" ry="12" rx="12" y="-176" x="-180" height="160" width="160" style="filter:url(#filter6495);opacity:0.20;fill:#000000"/>
  <rect transform="matrix(0,-1,-1,0,0,0)" ry="12" rx="12" y="-176" x="-176" height="160" width="160" style="fill:#364248"/>
  <path style="filter:url(#filter9810);opacity:0.20;fill:#000000;color:#000000" d="M 56,50.96 V 140.36 l 16,-9.24 V 77.40 l 33,17.28 v -18.06 z m 80,4.68 -16,9.24 V 118.60 L 87,101.32 v 18.06 l 49,25.65 z"/>
  <path style="opacity:0.10;fill:#ffffff" d="m 28,16 c -6.65,0 -12,5.35 -12,12 v 1 c 0,-6.65 5.35,-12 12,-12 h 136 c 6.65,0 12,5.35 12,12 v -1 c 0,-6.65 -5.35,-12 -12,-12 z"/>
  <path style="fill:#ffffff;color:#000000" d="m 56,48.96 v 89.40 l 16,-9.24 V 75.40 l 33,17.28 v -18.06 z"/>
  <path style="fill:#54d14e;color:#000000" d="M 136,143.04 V 53.64 l -16,9.24 V 116.60 L 87,99.33 V 117.39 Z"/>
</svg>
