<svg xmlns="http://www.w3.org/2000/svg" id="svg18" width="192" height="192" version="1"><defs><filter style="color-interpolation-filters:sRGB" id="filter4600" width="1.13" height="1.18" x=".07" y=".09"><feGaussianBlur stdDeviation="4.38"/></filter><filter style="color-interpolation-filters:sRGB" id="filter4604" width="1.27" height="1.18" x=".14" y=".09"><feGaussianBlur stdDeviation="2.7"/></filter><filter style="color-interpolation-filters:sRGB" id="filter4646" width="1.24" height="1.11" x=".12" y=".05"><feGaussianBlur stdDeviation=".95"/></filter></defs><path style="filter:url(#filter4604);opacity:.2;fill:#000" d="m 16,107 h 47.97 v 68.40 c 0,0.74 0.50,3.60 -2.47,3.60 -2.36,0.31 -5.52,-2.87 -5.52,-2.87 L 16,144.07 Z"/><path style="fill:#d91120" d="m 16,103 h 47.97 v 68.40 c 0,0.74 0.50,3.60 -2.47,3.60 -2.36,0.31 -5.52,-2.87 -5.52,-2.87 L 16,140.07 Z"/><path style="filter:url(#filter4600);opacity:.2;fill:#000" d="m 28,24 c -6.65,0 -12,5.35 -12,12 v 90 6 12 h 12 7 129 c 6.65,0 12,-5.35 12,-12 V 36 c 0,-6.65 -5.35,-12 -12,-12 z"/><path style="fill:#ef313f" d="M 28 20 C 21.35 20 16 25.35 16 32 L 16 122 L 16 128 L 16 140 L 28 140 L 35 140 L 164 140 C 170.65 140 176 134.65 176 128 L 176 32 C 176 25.35 170.65 20 164 20 L 28 20 z"/><path style="filter:url(#filter4646);opacity:.2;fill:#000" d="m 149.05,82 c 0.86,1.81 -1.83,4.72 -2.91,5.57 -1.08,0.81 -2.63,1.28 -4.62,1.43 L 139,89.13 V 96 h 8 v 28 h 11 V 82 Z"/><path style="fill:#fff" d="m 149.05,80 c 0.86,1.81 -1.83,4.72 -2.91,5.57 -1.08,0.81 -2.63,1.28 -4.62,1.43 L 139,87.13 V 94 h 8 v 28 h 11 V 80 Z"/><path style="opacity:.2;fill:#fff" d="M 28 20 C 21.35 20 16 25.35 16 32 L 16 33 C 16 26.35 21.35 21 28 21 L 164 21 C 170.65 21 176 26.35 176 33 L 176 32 C 176 25.35 170.65 20 164 20 L 28 20 z"/></svg>