<svg xmlns="http://www.w3.org/2000/svg" id="svg14" width="192" height="192" version="1"><defs><filter style="color-interpolation-filters:sRGB" id="filter850" width="1.1" height="1.1" x=".05" y=".05"><feGaussianBlur stdDeviation="3.2"/></filter><filter style="color-interpolation-filters:sRGB" id="filter4246" width="1.15" height="1.15" x=".08" y=".08"><feGaussianBlur stdDeviation="3.12"/></filter></defs><circle style="filter:url(#filter850);opacity:.2;fill:#000" cx="96" cy="100" r="80"/><circle cx="96" cy="96" r="80" style="fill:#ffd100"/><path style="fill:#38adfa" d="m 688.81,257.00 c 0.33,0.33 -1.19,0.37 -1.92,0.08 0.80,0.32 0.56,0.56 0.60,0.60 1.05,0.04 1.64,0.19 1.31,0.53 z"/><path style="opacity:.2;fill:#fff" d="M 96 16 A 80 80 0 0 0 16 96 A 80 80 0 0 0 16.02 96.47 A 80 80 0 0 1 96 17 A 80 80 0 0 1 175.97 96.51 A 80 80 0 0 0 176 96 A 80 80 0 0 0 96 16 z"/><path style="filter:url(#filter4246);opacity:.2;fill:#000" d="M 59.84,145.68 C 58.99,144.04 47.44,108.34 46.81,105.38 45.80,100.67 45.72,92.17 46.64,87.25 50.07,68.87 62.96,54.07 80.50,48.34 c 5.42,-1.77 9.23,-2.34 15.50,-2.34 6.26,0 10.08,0.58 15.50,2.34 17.50,5.71 30.44,20.58 33.86,38.90 0.92,4.92 0.84,13.42 0.17,18.13 0.63,2.96 -12.18,38.66 -13.03,40.31 0.27,0.51 0.60,0.46 -3.66,0.58 -1.85,0.63 -3.44,-1.20 -3.52,-1.29 0.08,0.08 2.62,-8.50 6.01,-18.72 3.39,-10.21 6.43,-19.84 6.75,-21.39 0.81,-3.86 0.80,-11.72 0.01,-15.63 -1.82,-8.73 -5.34,-15.38 -11.45,-21.70 -6.50,-6.71 -14.88,-11.03 -24.01,-12.38 -13.66,-2.01 -27.00,2.52 -36.60,12.43 -6.00,6.20 -9.59,13.01 -11.40,21.65 0.82,3.91 0.82,11.78 0.01,15.63 0.33,1.56 3.37,11.18 6.75,21.39 3.39,10.21 6.09,18.63 6.01,18.72 0.08,0.08 -1.67,0.66 -3.52,1.29 -3.07,1.03 -3.40,1.09 -3.66,0.58 z m 5.19,-15.43 c -2.32,-6.99 -4.12,-12.81 -3.98,-12.93 0.13,0.12 2.45,0.95 5.16,-1.84 l 4.91,-1.61 c 1.17,0.31 2.14,0.11 2.46,1.32 l 3.63,10.81 c 3.81,11.35 3.91,11.90 2.55,13.27 0.53,0.53 -9.23,3.69 -10.16,3.69 0.18,0 -2.24,-5.72 -4.56,-12.71 z m 52.10,11.09 c -4.97,-1.69 -5.85,-2.32 -5.85,-4.15 0,0.57 1.51,-5.61 3.35,-11.19 1.89,-5.73 2.84,-8.43 3.50,-9.81 0.61,-1.36 1.42,-2.42 3.17,-1.98 2.36,0.71 9.74,3.04 9.71,3.35 0.01,0.16 -1.88,5.94 -4.14,12.85 -3.09,9.42 -4.24,12.55 -4.62,12.53 0.28,0.01 -2.58,0.73 -5.12,-1.59 z"/><path style="fill:#3f3f3f" d="M 59.84,143.68 C 58.99,142.04 47.44,106.34 46.81,103.38 45.80,98.67 45.72,90.17 46.64,85.25 50.07,66.87 62.96,52.07 80.50,46.34 c 5.42,-1.77 9.23,-2.34 15.50,-2.34 6.26,0 10.08,0.58 15.50,2.34 17.50,5.71 30.44,20.58 33.86,38.90 0.92,4.92 0.84,13.42 0.17,18.13 0.63,2.96 -12.18,38.66 -13.03,40.31 0.27,0.51 0.60,0.46 -3.66,0.58 -1.85,0.63 -3.44,-1.20 -3.52,-1.29 0.08,0.08 2.62,-8.50 6.01,-18.72 3.39,-10.21 6.43,-19.84 6.75,-21.39 0.81,-3.86 0.80,-11.72 0.01,-15.63 -1.82,-8.73 -5.34,-15.38 -11.45,-21.70 -6.50,-6.71 -14.88,-11.03 -24.01,-12.38 -13.66,-2.01 -27.00,2.52 -36.60,12.43 -6.00,6.20 -9.59,13.01 -11.40,21.65 0.82,3.91 0.82,11.78 0.01,15.63 0.33,1.56 3.37,11.18 6.75,21.39 3.39,10.21 6.09,18.63 6.01,18.72 0.08,0.08 -1.67,0.66 -3.52,1.29 -3.07,1.03 -3.40,1.09 -3.66,0.58 z m 5.19,-15.43 c -2.32,-6.99 -4.12,-12.81 -3.98,-12.93 0.13,0.12 2.45,0.95 5.16,-1.84 l 4.91,-1.61 c 1.17,0.31 2.14,0.11 2.46,1.32 l 3.63,10.81 c 3.81,11.35 3.91,11.90 2.55,13.27 0.53,0.53 -9.23,3.69 -10.16,3.69 0.18,0 -2.24,-5.72 -4.56,-12.71 z m 52.10,11.09 c -4.97,-1.69 -5.85,-2.32 -5.85,-4.15 0,0.57 1.51,-5.61 3.35,-11.19 1.89,-5.73 2.84,-8.43 3.50,-9.81 0.61,-1.36 1.42,-2.42 3.17,-1.98 2.36,0.71 9.74,3.04 9.71,3.35 0.01,0.16 -1.88,5.94 -4.14,12.85 -3.09,9.42 -4.24,12.55 -4.62,12.53 0.28,0.01 -2.58,0.73 -5.12,-1.59 z"/></svg>