<svg xmlns="http://www.w3.org/2000/svg" id="svg16" width="192" height="192" version="1.1"><defs><filter style="color-interpolation-filters:sRGB" id="filter3592" width="1.1" height="1.1" x=".05" y=".05"><feGaussianBlur stdDeviation="3.2"/></filter><filter style="color-interpolation-filters:sRGB" id="filter3698" width="1.19" height="1.12" x=".1" y=".06"><feGaussianBlur stdDeviation="2.63"/></filter></defs><path style="filter:url(#filter3592);opacity:.2;fill:#000" d="m 25,20 c -4.99,0 -9,4.01 -9,9 v 142 c 0,4.99 4.01,9 9,9 h 24 1 117 c 4.99,0 9,-4.01 9,-9 V 29 c 0,-4.99 -4.01,-9 -9,-9 H 50 49 Z"/><path style="fill:#f3eabc" d="M 49 16 L 49 176 L 167 176 C 171.99 176 176 171.99 176 167 L 176 25 C 176 20.01 171.99 16 167 16 L 49 16 z"/><path style="filter:url(#filter3698);opacity:.2;fill:#000" d="m 110.05,47.01 c -11.87,0.34 -23.51,7.23 -28.19,18.35 -5.37,12.82 -5.10,25.65 0.54,38.47 5.91,13.36 22.83,18.96 36.26,15.22 4.30,0.80 9.09,-2.94 12.05,-5.61 1.61,-1.34 3.22,-2.67 4.30,-4.01 0.27,5.08 0.54,10.15 -1.34,14.96 -1.07,6.14 -4.26,11.49 -10.17,14.43 -4.05,2.10 -8.33,3.28 -12.48,3.18 -9.07,0.23 -17.49,-6.02 -21.36,-15 h -8.86 c 0.54,8.55 5.10,14.49 12.35,17.96 8.59,4.27 17.72,4.81 26.86,3.21 11.82,-1.87 19.61,-8.55 22.29,-20.30 1.07,-4.27 1.34,-8.55 1.61,-12.82 0.24,-24.04 0.05,-46.55 0.05,-66.05 H 143.90 135 v 10.22 C 128.66,50.45 119.29,46.75 110.05,47.01 Z m 2.31,6.99 c 4.45,0.11 7.93,2.02 9.34,2.48 5.65,2.95 9.96,8.58 11.84,16.35 1.13,4.84 1.68,9.68 1.35,14.47 0.54,7.96 -4.03,16.05 -10.34,20.64 0.81,0.54 -5.39,3.75 -12.12,4.02 0.27,0.03 -1.61,0.05 -2.96,0 0.05,0.03 0.08,0.03 0.16,0.03 -9.69,0.54 -16.96,-6.16 -20.19,-15.54 -2.69,-7.77 -2.69,-15.81 0.81,-23.59 2.96,-11.52 11.31,-18.49 21.80,-18.76 0.24,0.03 0.27,0.03 0.27,0.03 0.67,0.07 1.33,0.09 1.96,0.07 z"/><path style="fill:#814910" d="M 110.05 45.01 C 98.19 45.35 86.55 52.24 81.87 63.36 C 76.49 76.18 76.76 89.01 82.40 101.83 C 88.31 115.18 105.23 120.79 118.66 117.05 C 122.96 116.25 127.75 114.11 130.71 111.44 C 132.32 110.11 133.93 108.77 135.00 107.44 C 134.73 112.51 134.47 117.59 133.66 122.39 C 132.59 128.54 129.40 133.88 123.49 136.82 C 119.45 138.92 115.16 140.10 111.02 140 C 101.95 139.77 93.52 133.98 89.65 125 L 80.79 125 C 81.33 133.55 85.89 139.49 93.14 142.96 C 101.74 147.24 110.87 147.77 120 146.17 C 131.82 144.30 139.61 137.62 142.29 125.87 C 143.37 121.59 143.63 117.32 143.90 113.05 C 144.14 89.01 143.85 66.50 143.96 47 L 143.90 47 L 135 47 L 135 57.22 C 128.66 48.45 119.29 44.75 110.05 45.01 z M 112.37 52.01 C 116.82 52.12 120.29 54.02 121.71 54.49 C 127.36 57.44 131.67 63.07 133.55 70.84 C 134.69 75.68 135.24 80.52 134.90 85.31 C 134.36 93.26 130.87 101.35 124.56 105.95 C 123.75 106.49 119.18 109.70 112.45 109.97 C 112.18 110.00 110.83 110.02 109.48 109.97 C 109.43 110.00 109.41 110.00 109.32 110.00 C 99.63 109.46 92.36 103.83 89.13 94.45 C 86.44 86.68 86.44 78.64 88.33 70.87 C 91.29 59.34 99.63 52.37 110.13 52.10 C 110.37 52.08 110.40 52.08 110.40 52.08 C 111.07 52.01 111.73 51.99 112.37 52.01 z"/><path style="opacity:.2;fill:#fff" d="M 49 16 L 49 17 L 167 17 C 171.99 17 176 21.01 176 26 L 176 25 C 176 20.01 171.99 16 167 16 L 49 16 z"/><path style="fill:#814910" d="m 25,16 c -4.99,0 -9,4.01 -9,9 v 142 c 0,4.99 4.01,9 9,9 H 50 V 16 Z"/><path style="opacity:.1;fill:#fff" d="M 25 16 C 20.01 16 16 20.01 16 25 L 16 26 C 16 21.01 20.01 17 25 17 L 50 17 L 50 16 L 25 16 z"/></svg>