<?xml version='1.0' encoding='utf-8'?>
<svg xmlns="http://www.w3.org/2000/svg" width="192" height="192" version="1" id="svg20">
  <defs>
    <filter style="color-interpolation-filters:sRGB" id="filter857" x="-0.043200002" width="1.0864" y="-0.054000002" height="1.108">
      <feGaussianBlur stdDeviation="2.88"/>
    </filter>
    <filter style="color-interpolation-filters:sRGB" id="filter876" x="-0.048" width="1.096" y="-0.048" height="1.096">
      <feGaussianBlur stdDeviation="1.76"/>
    </filter>
    <filter style="color-interpolation-filters:sRGB" id="filter889" x="-0.021299999" width="1.0426" y="-0.02748387" height="1.0549677">
      <feGaussianBlur stdDeviation="0.71"/>
    </filter>
  </defs>
  <rect transform="matrix(0,-1,-1,0,0,-1.9999961)" ry="8" rx="8" y="-160" x="-180" height="128" width="160" style="filter:url(#filter857);opacity:0.2"/>
  <rect transform="matrix(0,-1,-1,0,0,0)" ry="8" rx="8" y="-160" x="-174" height="128" width="160" style="fill:#8e8e8e"/>
  <path style="opacity:0.2;fill:#ffffff" d="M 96 58 C 84.9544 58 76 66.9544 76 78 C 76 78.16767 76.007616 78.333318 76.011719 78.5 C 76.277887 67.686152 85.12207 59 96 59 C 106.87793 59 115.72211 67.686152 115.98828 78.5 C 115.99238 78.333318 116 78.16767 116 78 C 116 66.9544 107.0456 58 96 58 z M 135.98633 78.5 C 135.7173 100.35972 117.92352 118 96 118 L 56 118 L 56 119 L 96 119 C 118.0912 119 136 101.0912 136 79 C 136 78.832317 135.98839 78.667195 135.98633 78.5 z "/>
  <path d="m 96,38.000004 c 22.0912,0 40,17.9088 40,40 C 136,100.0912 118.0912,118 96,118 H 56 V 78.000004 c 0,-22.0912 17.9088,-40 40,-40 z m 0,20 c -11.0456,0 -20,8.9544 -20,20 0,11.0456 8.9544,20 20,20 11.0456,0 20,-8.9544 20,-20 0,-11.0456 -8.9544,-20 -20,-20 z" style="opacity:0.5"/>
  <path style="opacity:0.2;fill:#ffffff" d="m 40,14.000004 c -4.432,0 -8,3.568 -8,8 v 1 c 0,-4.432 3.568,-8 8,-8 h 112 c 4.432,0 8,3.568 8,8 v -1 c 0,-4.432 -3.568,-8 -8,-8 z"/>
  <circle r="44" cy="144" cx="144" style="filter:url(#filter876);opacity:0.2"/>
  <circle r="44" cy="142" cx="144" style="fill:#d65050"/>
  <path style="filter:url(#filter889);opacity:0.2" d="M 96 38 C 73.9088 38 56 55.9088 56 78 L 56 80 C 56 57.9088 73.9088 40 96 40 C 117.75585 40 135.44226 57.372315 135.97461 79 C 135.98282 78.666627 136 78.335348 136 78 C 136 55.9088 118.0912 38 96 38 z M 76.025391 79 C 76.009074 79.331309 76 79.664644 76 80 C 76 91.0456 84.9544 100 96 100 C 107.0456 100 116 91.0456 116 80 C 116 79.664644 115.99093 79.331309 115.97461 79 C 115.45352 89.580983 106.71024 98 96 98 C 85.289756 98 76.546478 89.580983 76.025391 79 z "/>
  <path style="fill:#ffffff" d="m 144,114 c -7.756,0 -14,6.24526 -14,13.92807 v 6.07279 h -3.5 c -1.939,0 -3.5,1.60086 -3.5,3.50022 v 21.07047 c 0,1.89936 1.561,3.42845 3.5,3.42845 h 35 c 1.939,0 3.5,-1.52909 3.5,-3.42845 v -21.07047 c 0,-1.89936 -1.561,-3.50022 -3.5,-3.50022 H 158 v -6.07107 c 0,-7.67973 -6.244,-13.92636 -14,-13.92636 z m 0,6.8569 c 3.878,0 7,3.05818 7,6.8569 v 6.28534 h -14 v -6.28534 c 0,-3.79872 3.122,-6.8569 7,-6.8569 z"/>
</svg>
