<?xml version='1.0' encoding='utf-8'?>
<svg xmlns="http://www.w3.org/2000/svg" width="192" height="192" version="1" id="svg18">
  <defs>
    <filter style="color-interpolation-filters:sRGB" id="filter857" x="-0.048000001" width="1.096" y="-0.048000001" height="1.096">
      <feGaussianBlur stdDeviation="3.2"/>
    </filter>
    <filter style="color-interpolation-filters:sRGB" id="filter873" x="-0.057000003" width="1.114" y="-0.041454545" height="1.0829091">
      <feGaussianBlur stdDeviation="0.75999998"/>
    </filter>
    <filter style="color-interpolation-filters:sRGB" id="filter889" x="-0.035199964" width="1.0703999" y="-0.075428742" height="1.1508575">
      <feGaussianBlur stdDeviation="1.7599982"/>
    </filter>
  </defs>
  <rect transform="matrix(0,-1,-1,0,0,0)" ry="80" rx="80" y="-176" x="-180" height="160" width="160" style="filter:url(#filter857);opacity:0.2"/>
  <rect transform="matrix(0,-1,-1,0,0,0)" ry="80" rx="80" y="-176" x="-176" height="160" width="160" style="fill:#1f7ee5"/>
  <path d="m 88,110 h 14 l -6.000004,10 15.999994,2 -27.999998,32 8,-24 -12,-4 z" style="filter:url(#filter873);opacity:0.1"/>
  <path d="m 88,108 h 14 l -6.000004,10 15.999994,2 -27.999998,32 8,-24 -12,-4 z" style="fill:#ffe242"/>
  <path style="opacity:0.2;fill:#ffffff" d="M 96 16 C 51.68 16 16 51.68 16 96 C 16 96.115411 16.006233 96.228869 16.007812 96.34375 C 16.358834 52.329079 51.899508 17 96 17 C 140.10049 17 175.64117 52.329079 175.99219 96.34375 C 175.99377 96.228869 176 96.115411 176 96 C 176 51.68 140.32 16 96 16 z "/>
  <path d="m 96,56.000004 c -9.37382,0.0112 -17.883308,5.478632 -21.789064,14 -2.539476,-1.308832 -5.354024,-1.994392 -8.210936,-2 -9.941124,0 -18,8.058876 -18,18 0.0068,0.671224 0.05112,1.34154 0.1328,2.007812 -0.04424,-0.0028 -0.08852,-0.0056 -0.1328,-0.008 -6.627416,0 -12,5.372584 -12,12 0,6.627414 5.372584,12.000004 12,12.000004 h 96 c 6.62742,0 12,-5.37259 12,-12.000004 0,-6.627416 -5.37258,-12 -12,-12 -0.0417,0.0024 -0.0834,0.0048 -0.125,0.008 0.0791,-0.666604 0.1208,-1.336924 0.125,-2.008 0,-9.941124 -8.05888,-18 -18,-18 -2.85892,0.002 -5.67625,0.68486 -8.21875,1.992188 C 113.87438,61.47644 105.36918,56.012732 96,56.000004 Z" style="filter:url(#filter889);opacity:0.2"/>
  <path d="M 96,52 C 86.62618,52.0112 78.116692,57.478632 74.210936,66 71.67146,64.691168 68.856912,64.005608 66,64 c -9.941124,0 -18,8.058876 -18,18 0.0068,0.671224 0.05112,1.34154 0.1328,2.007812 C 48.088556,84.004964 48.044284,84.00236 48,84 c -6.627416,0 -12,5.372584 -12,12 0,6.62742 5.372584,12 12,12 h 96 c 6.62742,0 12,-5.37258 12,-12 0,-6.627416 -5.37258,-12 -12,-12 -0.0417,0.0024 -0.0834,0.0048 -0.125,0.008 0.0791,-0.666604 0.1208,-1.336924 0.125,-2.008 0,-9.941124 -8.05888,-18 -18,-18 -2.85892,0.002 -5.67625,0.68486 -8.21875,1.992188 C 113.87438,57.476436 105.36918,52.012728 96,52 Z" style="fill:#ffffff"/>
</svg>
