<svg xmlns="http://www.w3.org/2000/svg" id="svg28" width="192" height="192" version="1.1"><defs><filter style="color-interpolation-filters:sRGB" id="filter871" width="1.1" height="1.1" x=".05" y=".05"><feGaussianBlur stdDeviation="3.2"/></filter><filter style="color-interpolation-filters:sRGB" id="filter887" width="1.1" height="1.1" x=".05" y=".05"><feGaussianBlur stdDeviation="2.56"/></filter><filter style="color-interpolation-filters:sRGB" id="filter903" width="1.1" height="1.1" x=".05" y=".05"><feGaussianBlur stdDeviation=".64"/></filter><filter style="color-interpolation-filters:sRGB" id="filter931" width="1.08" height="1.11" x=".04" y=".06"><feGaussianBlur stdDeviation=".92"/></filter><filter style="color-interpolation-filters:sRGB" id="filter947" width="1.1" height="1.1" x=".05" y=".05"><feGaussianBlur stdDeviation="1.6"/></filter></defs><path d="m 96,20 c -44.14,0 -80,35.86 -80,80 0,44.14 35.86,80.00 80,80 44.14,0 80.00,-35.86 80,-80 0,-44.14 -35.86,-80 -80,-80 z" style="filter:url(#filter871);opacity:.2"/><path d="M 96,16.00 C 51.86,16.00 16,51.86 16,96 c 0,44.14 35.86,80.00 80,80 44.14,0 80.00,-35.86 80,-80 0,-44.14 -35.86,-80.00 -80,-80.00 z" style="fill:#4f4f4f"/><path style="opacity:.1;fill:#fff" d="M 96 16 C 51.86 16 16 51.86 16 96 C 16 96.12 16.01 96.23 16.01 96.35 C 16.36 52.51 52.08 17 96 17 C 139.92 17 175.64 52.51 175.99 96.35 C 175.99 96.23 176 96.12 176 96 C 176 51.86 140.14 16 96 16 z"/><path d="M 96.00,36.00 C 60.69,36.00 32,64.69 32,100.00 32,135.31 60.69,164.00 96.00,164 131.31,164 160.00,135.31 160,100.00 160,64.69 131.31,36.00 96.00,36.00 Z" style="filter:url(#filter887);opacity:.2"/><path d="M 96.00,32 C 60.69,32 32,60.69 32,96.00 32,131.31 60.69,160.00 96.00,160 131.31,160 160.00,131.31 160,96.00 160,60.69 131.31,32 96.00,32 Z" style="fill:#a56bf9"/><path style="opacity:.1;fill:#fff" d="M 96 32 C 60.69 32 32 60.69 32 96 C 32 96.12 32.01 96.23 32.02 96.35 C 32.37 61.34 60.90 33 96 33 C 131.10 33 159.63 61.34 159.98 96.35 C 159.99 96.23 160 96.12 160 96 C 160 60.69 131.31 32 96 32 z"/><path d="m 96,82.00 c -8.83,0 -16,7.17 -16,16 C 80,106.83 87.17,114 96,114 c 8.83,0 16,-7.17 16,-16.00 0,-8.83 -7.17,-16 -16,-16 z" style="filter:url(#filter903);opacity:.1"/><path style="filter:url(#filter947);opacity:.2;fill:#000;color:#000;font-stretch:normal;font-variant-ligatures:normal;font-variant-position:normal;font-variant-caps:normal;font-variant-numeric:normal;font-variant-alternates:normal;font-feature-settings:normal;text-indent:0;text-align:start;text-decoration-line:none;text-decoration-style:solid;text-decoration-color:#000;text-transform:none;writing-mode:lr-tb;direction:ltr;text-orientation:mixed;dominant-baseline:auto;baseline-shift:baseline;white-space:normal;shape-padding:0;clip-rule:nonzero;display:inline;overflow:visible;visibility:visible;isolation:auto;mix-blend-mode:normal;color-interpolation:sRGB;color-interpolation-filters:linearRGB;solid-color:#000;solid-opacity:1;vector-effect:none;fill-rule:nonzero;color-rendering:auto;image-rendering:auto;shape-rendering:auto;text-rendering:auto;enable-background:accumulate" d="m 159.84,27.92 a 8.00,8.00 0 0 0 -5.50,2.42 l -64,64 a 8.00,8.00 0 1 0 11.31,11.31 l 64,-64 A 8.00,8.00 0 0 0 159.84,27.92 Z"/><path d="M 96,96 160,32" style="fill:none;stroke:#e4e4e4;stroke-width:16;stroke-linecap:round;stroke-linejoin:round"/><path style="filter:url(#filter931);opacity:.2;fill:#000;color:#000;font-stretch:normal;font-variant-ligatures:normal;font-variant-position:normal;font-variant-caps:normal;font-variant-numeric:normal;font-variant-alternates:normal;font-feature-settings:normal;text-indent:0;text-align:start;text-decoration-line:none;text-decoration-style:solid;text-decoration-color:#000;text-transform:none;writing-mode:lr-tb;direction:ltr;text-orientation:mixed;dominant-baseline:auto;baseline-shift:baseline;white-space:normal;shape-padding:0;clip-rule:nonzero;display:inline;overflow:visible;visibility:visible;isolation:auto;mix-blend-mode:normal;color-interpolation:sRGB;color-interpolation-filters:linearRGB;solid-color:#000;solid-opacity:1;vector-effect:none;fill-rule:nonzero;color-rendering:auto;image-rendering:auto;shape-rendering:auto;text-rendering:auto;enable-background:accumulate" d="M 59.92,67.94 A 8.00,8.00 0 0 0 55.56,82.66 l 36,24 a 8.00,8.00 0 1 0 8.88,-13.31 l -36,-24 a 8.00,8.00 0 0 0 -4.51,-1.41 z"/><path d="M 60,72 96,96" style="fill:none;stroke:#e4e4e4;stroke-width:16;stroke-linecap:round;stroke-linejoin:round"/><path d="m 96,80 c -8.83,0 -16,7.17 -16,16 0,8.83 7.17,16 16,16 8.83,0 16,-7.17 16,-16 0,-8.83 -7.17,-16 -16,-16 z" style="fill:#4f4f4f"/></svg>