<?xml version='1.0' encoding='utf-8'?>
<svg xmlns="http://www.w3.org/2000/svg" width="192" height="192" version="1" id="svg28">
  <defs>
    <filter style="color-interpolation-filters:sRGB" id="filter2624" x="0.05" y="0.05" width="1.10" height="1.09">
      <feGaussianBlur stdDeviation="3.12"/>
    </filter>
    <filter style="color-interpolation-filters:sRGB" id="filter2666" x="0.07" y="0.08" width="1.15" height="1.15">
      <feGaussianBlur stdDeviation="3.52"/>
    </filter>
  </defs>
  <path style="filter:url(#filter2624);opacity:0.20;fill:#000000" d="m 137.21,179.01 c -4.47,-1.16 -6.56,-2.00 -12.79,-5.12 -6.04,-3.02 -9.40,-5.01 -16.15,-9.57 l -5.09,-3.84 -3.90,1.18 c -9.70,2.93 -17.80,4.24 -26.39,4.25 -11.33,0.01 -19.75,-2.39 -28.35,-8.09 -11.32,-7.51 -19.05,-19.25 -22.43,-34.79 -2.86,-13.21 -2.81,-31.39 0.13,-47.30 2.99,-16.16 8.70,-28.04 18.17,-37.82 7.65,-7.90 14.25,-12.19 23.10,-15.00 14.14,-4.50 31.64,-3.74 48.50,2.10 21.69,7.50 38.26,19.70 47.06,34.62 8.31,14.10 10.31,32.14 5.27,47.56 -1.14,3.48 -3.93,9.56 -6.03,13.13 l -1.03,1.75 3.38,5.85 c 4.99,8.62 9.75,18.37 10.59,21.69 0.97,3.82 0.98,9.83 0.02,13.02 -2.12,7.03 -6.45,11.94 -13.21,14.97 -5.75,2.59 -14.18,3.16 -20.86,1.43 z"/>
  <path style="fill:#a73231" d="m 137.21,175.01 c -4.47,-1.16 -6.56,-2.00 -12.79,-5.12 -6.04,-3.02 -9.40,-5.01 -16.15,-9.57 l -5.09,-3.84 -3.90,1.18 c -9.70,2.93 -17.80,4.24 -26.39,4.25 -11.33,0.01 -19.75,-2.39 -28.35,-8.09 -11.32,-7.51 -19.05,-19.25 -22.43,-34.79 -2.86,-13.21 -2.81,-31.39 0.13,-47.30 2.99,-16.16 8.70,-28.04 18.17,-37.82 7.65,-7.90 14.25,-12.19 23.10,-15.00 14.14,-4.50 31.64,-3.74 48.50,2.10 21.69,7.50 38.26,19.70 47.06,34.62 8.31,14.10 10.31,32.14 5.27,47.56 -1.14,3.48 -3.93,9.56 -6.03,13.13 l -1.03,1.75 3.38,5.85 c 4.99,8.62 9.75,18.37 10.59,21.69 0.97,3.82 0.98,9.83 0.02,13.02 -2.12,7.03 -6.45,11.94 -13.21,14.97 -5.75,2.59 -14.18,3.16 -20.86,1.43 z"/>
  <path style="filter:url(#filter2666);opacity:0.20;fill:#000000" d="m 85.51,145.77 c 19.54,-4.15 37.67,-13.96 50.58,-27.37 12.60,-13.09 16.63,-27.36 12.13,-42.98 C 144.89,63.84 136.52,54.24 123.01,46.49 112.99,40.74 101.18,36.63 91.01,35.36 85.16,34.63 75.91,35.05 71.25,36.27 61.93,38.71 54.49,44.47 48.65,52.11 41.12,62.22 37,78.80 37,98.96 c 0,16.79 3.28,28.49 10.39,37.07 4.38,5.29 11.55,9.41 18.54,10.66 3.82,0.68 14.38,0.18 19.59,0.92 z"/>
  <path style="fill:#ffffff" d="m 85.51,143.77 c 19.54,-4.15 37.67,-13.96 50.58,-27.37 12.60,-13.09 16.63,-27.36 12.13,-42.98 C 144.89,61.84 136.52,52.24 123.01,44.49 112.99,38.74 101.18,34.63 91.01,33.36 85.16,32.63 75.91,33.05 71.25,34.27 61.93,36.71 54.49,42.47 48.65,50.11 41.12,60.22 37,76.80 37,96.96 c 0,16.79 3.28,28.49 10.39,37.07 4.38,5.29 11.55,9.41 18.54,10.66 3.82,0.68 14.38,0.18 19.59,0.92 z"/>
  <path style="opacity:0.10;fill:#ffffff" d="M 83.67 16 C 76.53 15.97 69.70 16.93 63.52 18.90 C 54.66 21.72 48.06 26.00 40.41 33.90 C 30.94 43.68 25.24 55.56 22.25 71.72 C 20.74 79.86 20.00 88.58 20.01 96.94 C 20.06 88.89 20.80 80.53 22.25 72.72 C 25.24 56.56 30.94 44.68 40.41 34.90 C 48.06 27.00 54.66 22.72 63.52 19.90 C 77.66 15.40 95.15 16.16 112.02 22.00 C 133.71 29.50 150.28 41.70 159.08 56.61 C 164.22 65.33 166.94 75.55 167.08 85.72 C 167.11 75.22 164.39 64.61 159.08 55.61 C 150.28 40.70 133.71 28.50 112.02 21.00 C 102.53 17.71 92.85 16.04 83.67 16 z M 157.58 118.56 L 157.29 119.06 L 160.67 124.91 C 165.66 133.53 170.42 143.28 171.27 146.59 C 171.72 148.37 171.94 150.62 171.97 152.84 C 172.01 150.31 171.79 147.65 171.27 145.59 C 170.42 142.28 165.66 132.53 160.67 123.91 L 157.58 118.56 z "/>
</svg>
