<svg xmlns="http://www.w3.org/2000/svg" id="svg16" width="192" height="192" version="1"><defs><filter style="color-interpolation-filters:sRGB" id="filter867" width="1.1" height="1.1" x=".05" y=".05"><feGaussianBlur stdDeviation="3.2"/></filter><filter style="color-interpolation-filters:sRGB" id="filter7055" width="1.15" height="1.15" x=".08" y=".07"><feGaussianBlur stdDeviation="3.58"/></filter></defs><rect width="160" height="160" x="-180" y="-176" rx="80" ry="80" transform="matrix(0,-1,-1,0,0,0)" style="filter:url(#filter867);opacity:.2;fill:#000"/><rect style="fill:#00783b" width="160" height="160" x="-176" y="-176" rx="80" ry="80" transform="matrix(0,-1,-1,0,0,0)"/><path style="filter:url(#filter7055);opacity:.2;fill:#000" d="m 96,42.00 c -24.85,0 -45,20.15 -45,45 0,0.22 0.03,0.45 0.04,0.68 0.03,0.86 0.11,1.75 0.25,2.66 0.00,0.01 0.01,0.03 0.01,0.04 0.13,0.85 0.29,1.72 0.50,2.61 -3.70,3.03 -6.69,5.97 -8.76,8.85 -2.34,3.27 -3.81,6.87 -2.61,10.27 1.20,3.39 4.48,4.92 8.19,5.54 3.71,0.61 8.31,0.42 13.68,0.40 0.32,0.05 0.66,0.12 0.98,0.17 13.26,20.67 32.55,41.12 32.82,42.82 0.60,0.64 44.06,-47.32 44.86,-72.19 0.01,0.23 0.04,0.47 0.04,0.70 0,0.64 0.02,-1.28 0.05,-1.92 0.01,0.23 0.02,0.46 0.03,0.69 0.00,0.07 0.01,0.14 0.02,0.20 0.05,0.81 0.12,-1.60 0.21,-2.40 3.03,-2.60 5.48,-5.14 7.27,-7.63 2.34,-3.27 3.81,-6.87 2.61,-10.27 -1.20,-3.39 -4.48,-4.92 -8.19,-5.54 -3.21,0.53 -7.11,0.43 -11.56,0.13 C 122.56,48.42 110.03,42.00 96,42.00 Z M 96.11,159.88 C 96.10,159.89 96,160.00 96,160.00 c 0.09,0.01 0.12,0.03 0.11,0.12 z M 136.01,64.16 c 2.01,0.06 3.74,0.02 5.13,0.25 2.78,0.46 3.74,1.38 3.93,1.90 0.18,0.52 0.04,1.92 -1.71,4.36 0.94,1.31 -2.30,2.81 -3.96,4.41 -1.05,-3.85 -2.60,-7.48 -4.58,-10.84 0.39,0.02 0.83,0.07 1.20,0.08 z m -82.32,34.84 c 1.54,3.97 3.65,8.17 6.13,12.43 -4.11,0.50 -7.57,0.56 -9.97,0.16 -2.78,0.46 -3.74,-1.38 -3.93,-1.90 0.18,0.52 0.04,-1.92 1.72,-4.37 1.31,-1.82 3.37,-4.00 6.05,-6.33 z"/><path style="opacity:.1;fill:#fff" d="M 96 16 C 51.68 16 16 51.68 16 96 C 16 96.34 16.00 96.67 16 97 C 16 52.68 51.68 17 96 17 C 140.32 17 176 52.68 176 97 C 176.00 96.67 176 96.34 176 96 C 176 51.68 140.32 16 96 16 z"/><path style="fill:#fff" d="m 141,85.00 c 0,24.85 -45,73.00 -45,73.00 2.70,0.38 -45,-48.15 -45,-73.00 0,-24.85 20.15,-45 45,-45 24.85,0 45,20.15 45,45 z"/><path style="fill:#fff;color:#000" d="m 89.50,69.01 c -14.64,6.41 -27.34,13.80 -36.20,20.74 -4.43,3.47 -7.91,6.81 -10.26,10.08 -2.34,3.27 -3.81,6.87 -2.61,10.27 1.20,3.39 4.48,4.92 8.19,5.54 3.71,0.61 8.31,0.42 13.68,0.40 10.74,-1.63 24.56,-5.85 39.20,-12.25 14.64,-6.41 27.34,-13.80 36.20,-20.74 4.43,-3.47 7.91,-6.81 10.26,-10.08 2.34,-3.27 3.81,-6.87 2.61,-10.27 -1.20,-3.39 -4.48,-4.92 -8.19,-5.54 -3.71,0.61 -8.31,0.42 -13.68,0.40 -10.74,1.63 -24.55,5.85 -39.20,12.26 z m 1.99,5.63 c 14.25,-6.24 27.72,-10.30 37.73,-11.82 5.00,0.76 9.15,0.87 11.93,0.41 2.78,0.46 3.74,1.38 3.92,1.90 0.18,0.52 0.04,1.92 -1.71,4.36 -1.75,2.44 -4.86,5.51 -8.99,8.75 -8.26,6.47 -20.61,13.70 -34.86,19.94 -14.25,6.24 -27.72,10.30 -37.73,11.83 -5.00,0.76 -9.15,0.87 -11.93,0.41 -2.78,0.46 -3.74,-1.38 -3.93,-1.90 0.18,0.52 0.04,-1.92 1.72,-4.36 1.75,-2.44 4.85,-5.51 8.98,-8.75 C 64.89,88.11 77.24,80.88 91.49,74.64 Z"/><path style="fill:#09d792" d="m 140.68,79.69 c -5.08,4.30 -10.70,8.59 -16.33,11.51 -27.63,-7.26 -34.86,11.48 -48.39,22.18 8.73,4.24 18.05,8.11 26.56,8.03 9.65,0.09 18.25,-5.27 23.76,-20.78 -10.94,6.27 -23.77,9.25 -36.93,11.67 13.67,-3.76 25.46,-9.39 35.74,-15.63 v 0.00 c 2.96,-1.73 10.98,-6.58 15.88,-10.97 0.01,0.23 0.04,0.47 0.04,0.70 0,-1.80 0.12,-3.57 0.32,-5.31 z"/><path style="fill:#09d792" d="M 90.42,49.10 C 80.77,49.19 72.17,54.37 66.66,69.88 77.59,63.61 90.43,60.63 103.59,58.21 89.92,61.97 78.13,67.60 67.85,73.83 v 0.00 c -3.16,1.84 -12.06,7.24 -16.81,11.84 0.06,1.73 0.34,3.57 0.80,5.50 5.19,-4.42 10.96,-8.87 16.75,-11.87 27.63,7.26 34.86,-11.48 48.39,-22.18 -8.73,-4.24 -18.05,-8.11 -26.56,-8.03 z"/></svg>