<?xml version='1.0' encoding='utf-8'?>
<svg xmlns="http://www.w3.org/2000/svg" width="192" height="192" version="1" id="svg12">
  <defs>
    <filter style="color-interpolation-filters:sRGB" id="filter963" x="0.05" y="0.05" width="1.10" height="1.10">
      <feGaussianBlur stdDeviation="3.20"/>
    </filter>
    <filter style="color-interpolation-filters:sRGB" id="filter967" x="0.06" y="0.04" width="1.11" height="1.08">
      <feGaussianBlur stdDeviation="2.74"/>
    </filter>
  </defs>
  <rect fill="#0286c2" width="160" height="160" x="16" y="20" rx="80" ry="80" style="filter:url(#filter963);opacity:0.20;fill:#000000"/>
  <rect fill="#0286c2" width="160" height="160" x="16" y="16" rx="80" ry="80"/>
  <path style="filter:url(#filter967);opacity:0.20" d="M 91.14,18.16 C 84.41,18.56 77.92,19.79 71.75,21.74 59.85,55.78 47.89,93.11 36.00,126.03 c 0.86,0.25 1.72,0.15 2.61,0.16 4.92,0.03 9.86,0.01 14.79,0 0.67,0 0.58,0.97 0.87,-1.39 5.93,-16.73 11.95,-33.38 17.91,-50.09 0.36,-1.03 0.75,-2.14 1.22,-3.13 3.09,0.06 6.14,0.04 9.22,0 -6.47,18.14 -12.91,36.38 -19.49,54.45 0.69,0.27 1.38,0.15 2.10,0.16 5.16,0.04 10.31,0.07 15.47,0 C 86.54,109.72 92.58,93.28 98.45,76.80 99.70,73.44 99.88,69.13 97.75,66.37 93.23,60.51 83.19,59.53 76.70,59.29 81.43,45.88 86.34,31.86 91.14,18.16 Z m 23.47,43.53 c 0.13,0.27 0.21,0.94 0.34,1.21 C 102.10,97.07 87.77,136.08 75.13,171.18 c 4.46,1.20 9.04,2.09 13.77,2.50 5.65,-14.73 12.73,-31.18 17.70,-45.03 6.45,0.13 12.86,0.06 19.33,0.19 4.10,0.14 10.29,-2.61 11.65,-6.60 5.44,-15.33 10.89,-30.52 16.16,-45.92 0.86,-2.33 1.39,-4.88 0.70,-7.30 0.92,-3.09 -3.74,-5.44 -6.77,-6.27 -2.64,0.82 -5.29,0.47 -8.00,0.52 -8.28,0.01 -16.78,0.08 -25.06,0.17 z m 15.57,9.71 c 0.26,0.03 0.53,0.07 0.78,0.03 2.40,0.04 4.75,0.06 7.13,0 -5.56,15.87 -11.21,31.74 -16.69,47.66 -3.10,0.21 -6.30,0.01 -9.41,0 5.66,-15.77 11.23,-31.53 16.88,-47.33 0.13,0.14 0.35,0.30 0.52,0.34 v 0.02 c 0.26,0.08 0.52,0.06 0.78,0.03 z"/>
  <path style="fill:#ffffff" d="M 91.14,16.16 C 84.41,16.56 77.92,17.79 71.75,19.74 59.85,53.78 47.89,91.11 36.00,124.03 c 0.86,0.25 1.72,0.15 2.61,0.16 4.92,0.03 9.86,0.01 14.79,0 0.67,0 0.58,0.97 0.87,-1.39 5.93,-16.73 11.95,-33.38 17.91,-50.09 0.36,-1.03 0.75,-2.14 1.22,-3.13 3.09,0.06 6.14,0.04 9.22,0 -6.47,18.14 -12.91,36.38 -19.49,54.45 0.69,0.27 1.38,0.15 2.10,0.16 5.16,0.04 10.31,0.07 15.47,0 C 86.54,107.72 92.58,91.28 98.45,74.80 99.70,71.44 99.88,67.13 97.75,64.37 93.23,58.51 83.19,57.53 76.70,57.29 81.43,43.88 86.34,29.86 91.14,16.16 Z m 23.47,43.53 c 0.13,0.27 0.21,0.94 0.34,1.21 C 101.69,96.22 86.74,136.85 73.80,172.84 c 4.40,1.26 8.93,2.21 13.60,2.70 5.83,-15.63 13.80,-33.84 19.20,-48.90 6.45,0.13 12.86,0.06 19.33,0.19 4.10,0.14 10.29,-2.61 11.65,-6.60 5.44,-15.33 10.89,-30.52 16.16,-45.92 0.86,-2.33 1.39,-4.88 0.70,-7.30 0.92,-3.09 -3.74,-5.44 -6.77,-6.27 -2.64,0.82 -5.29,0.47 -8.00,0.52 -8.28,0.01 -16.78,0.08 -25.06,0.17 z m 15.57,9.71 c 0.26,0.03 0.53,0.07 0.78,0.03 2.40,0.04 4.75,0.06 7.13,0 -5.56,15.87 -11.21,31.74 -16.69,47.66 -3.10,0.21 -6.30,0.01 -9.41,0 5.66,-15.77 11.23,-31.53 16.88,-47.33 0.13,0.14 0.35,0.30 0.52,0.34 v 0.02 c 0.26,0.08 0.52,0.06 0.78,0.03 z"/>
  <path style="opacity:0.20;fill:#ffffff" d="M 96 16 C 51.68 16 16.01 51.68 16.01 96 C 16.01 96.34 16.01 96.67 16.01 97 C 16.01 52.68 51.68 17 96 17 C 140.32 17 175.99 52.68 175.99 97 C 175.99 96.67 175.99 96.34 175.99 96 C 175.99 51.68 140.32 16 96 16 z "/>
</svg>
