<?xml version='1.0' encoding='utf-8'?>
<svg xmlns="http://www.w3.org/2000/svg" width="192" height="192" version="1.1" id="svg14">
  <defs>
    <filter style="color-interpolation-filters:sRGB" id="filter2893" x="0.03" y="0.11" width="1.06" height="1.21">
      <feGaussianBlur stdDeviation="1.52"/>
    </filter>
    <filter style="color-interpolation-filters:sRGB" id="filter3209" x="0.03" y="0.10" width="1.06" height="1.19">
      <feGaussianBlur stdDeviation="2.14"/>
    </filter>
    <filter style="color-interpolation-filters:sRGB" id="filter3213" x="0.04" y="0.06" width="1.08" height="1.12">
      <feGaussianBlur stdDeviation="2.66"/>
    </filter>
    <filter style="color-interpolation-filters:sRGB" id="filter4691" x="0.05" y="0.05" width="1.10" height="1.10">
      <feGaussianBlur stdDeviation="1.35"/>
    </filter>
  </defs>
  <path style="filter:url(#filter3209);opacity:0.20;fill:#000000" d="m 16,126 v 22 c 0,17.73 14.27,32 32,32 h 48 48 c 17.73,0 32,-14.27 32,-32 V 126 H 96 Z"/>
  <path style="fill:#01ac56" d="m 16,122 v 22 c 0,17.73 14.27,32 32,32 h 48 v -54 z"/>
  <path style="fill:#e23c2f" d="m 176,122 v 22 c 0,17.73 -14.27,32 -32,32 H 96 v -54 z"/>
  <path style="filter:url(#filter2893);opacity:0.20;fill:#000000;color:#000000" d="m 44.80,134.00 c 0.61,0.01 -1.25,0.24 -2.37,0.93 l -1.61,1.12 c -2.41,1.68 -2.05,4.62 -1.08,8.72 0.82,2.80 1.91,5.25 3.16,7.50 0.01,0.01 0.02,0.02 0.03,0.03 2.68,5.05 6.65,8.97 11.82,11.82 0.01,0.01 0.02,0.02 0.03,0.03 2.25,1.25 4.71,2.34 7.50,3.16 4.10,0.97 7.04,1.33 8.72,-1.08 l 1.12,-1.61 c 1.84,-2.98 0.38,-3.78 0.38,-3.78 l -4.25,-2.88 c -1.12,0.65 -2.04,0.94 -2.87,0.97 -1.07,0.04 -2.01,0.35 -3.04,0.99 0.82,0.52 -1.62,1.05 -2.40,1.60 -6.23,-2.74 -10.02,-6.55 -12.37,-12.48 0.53,0.76 1.04,-1.54 1.55,-2.33 1.14,-1.84 1.49,-3.36 0.02,-5.91 l -2.88,-4.25 c 0,0 0.39,0.57 -1.41,0.55 z m 91.28,9 c -2.74,0.00 -5.51,0.41 -8.29,1.22 0.00,0.01 0.00,0.02 0.00,0.04 -2.43,0.70 -4.90,1.65 -7.41,3.03 -3.52,2.18 -5.82,3.98 -5.31,6.83 l 0.34,1.91 c 0.79,3.36 2.50,3.04 2.50,3.04 l 4.95,0.96 c 1.22,0.33 2.07,0.77 2.67,-1.33 0.77,0.72 1.15,-1.64 1.42,-2.81 0.22,0.99 0.41,-1.98 0.55,-2.98 6.13,-2.36 11.33,-2.35 16.99,0.07 0.15,0.97 0.33,1.94 0.54,2.90 0.49,2.07 1.30,3.38 4.10,4.14 l 4.95,0.96 c 0,0 0.66,0.12 1.36,0.60 0.42,0.44 0.84,-1.18 1.14,-2.44 l 0.34,-1.91 c 0.51,-2.85 -1.79,-4.65 -5.31,-6.83 -2.51,-1.38 -4.97,-2.33 -7.41,-3.03 0.00,0.01 0.00,0.03 0.00,0.04 -2.68,0.82 -5.39,-1.23 -8.13,-1.23 z"/>
  <path style="fill:#ffffff;color:#000000" d="M 44.80 132 C 44.19 132.01 43.55 132.24 42.44 132.93 L 40.82 134.05 C 38.41 135.73 38.78 138.67 39.74 142.77 C 40.56 145.57 41.65 148.02 42.90 150.28 C 42.91 150.27 42.92 150.26 42.94 150.25 C 45.62 155.29 49.59 159.22 54.75 162.07 C 54.74 162.08 54.73 162.09 54.72 162.10 C 56.98 163.35 59.43 164.44 62.23 165.26 C 66.33 166.22 69.27 166.59 70.95 164.18 L 72.07 162.56 C 73.91 159.59 72.45 158.79 72.45 158.79 L 68.21 155.91 C 67.09 155.27 66.17 154.97 65.33 154.94 C 64.26 154.90 63.32 155.29 62.29 155.93 C 61.47 156.45 60.67 156.98 59.89 157.53 C 53.66 154.78 49.87 150.98 47.52 145.04 C 48.05 144.28 48.57 143.50 49.07 142.71 C 50.21 140.87 50.56 139.35 49.09 136.79 L 46.21 132.55 C 46.21 132.55 45.82 131.98 44.80 132 z M 136.08 141 C 133.34 141.00 130.57 141.41 127.79 142.22 C 127.79 142.21 127.79 142.20 127.79 142.19 C 125.35 142.89 122.89 143.83 120.38 145.21 C 116.86 147.40 114.56 149.19 115.07 152.04 L 115.41 153.95 C 116.20 157.31 117.91 156.99 117.91 156.99 L 122.86 156.04 C 124.08 155.71 124.93 155.27 125.53 154.71 C 126.30 153.99 126.68 153.06 126.95 151.90 C 127.18 150.91 127.36 149.92 127.51 148.92 C 133.64 146.56 138.84 146.57 144.50 148.99 C 144.65 149.97 144.83 150.94 145.05 151.90 C 145.53 153.97 146.34 155.28 149.14 156.04 L 154.09 156.99 C 154.09 156.99 154.76 157.12 155.45 156.39 C 155.86 155.96 156.29 155.21 156.59 153.95 L 156.93 152.04 C 157.44 149.19 155.14 147.40 151.62 145.21 C 149.11 143.83 146.65 142.89 144.21 142.19 C 144.21 142.20 144.21 142.21 144.21 142.23 C 141.53 141.40 138.82 141.00 136.08 141 z "/>
  <path style="filter:url(#filter3213);opacity:0.20;fill:#000000" d="M 48,20 C 30.27,20 16,34.27 16,52 v 74 H 176 V 52 C 176,34.27 161.73,20 144,20 Z"/>
  <path style="fill:#3f3f3f" d="M 48 16 C 30.27 16 16 30.27 16 48 L 16 122 L 176 122 L 176 48 C 176 30.27 161.73 16 144 16 L 48 16 z "/>
  <path style="opacity:0.10;fill:#ffffff" d="M 48,16 C 30.27,16 16,30.27 16,48 v 1 C 16,31.27 30.27,17 48,17 h 96 c 17.73,0 32,14.27 32,32 V 48 C 176,30.27 161.73,16 144,16 Z"/>
  <path style="filter:url(#filter4691);opacity:0.20;fill:#000000;color:#000000" d="m 128.93,36.14 a 4,4 0 0 0 -2.41,1.88 L 94.79,94.02 72.44,76.83 a 4,4 0 0 0 -5.61,0.73 4,4 0 0 0 0.73,5.61 l 26,20.00 a 4.00,4.00 0 0 0 5.92,-1.20 l 34.00,-60 a 4,4 0 0 0 -1.51,-5.45 4,4 0 0 0 -3.04,0.38 z"/>
  <path style="fill:none;stroke:#ed3e31;stroke-width:8;stroke-linecap:round;stroke-linejoin:round" d="M 70,78 96,98 130,38"/>
  <path style="opacity:0.20;fill:#ffffff;color:#000000" d="M 130.49 34.03 A 4 4 0 0 0 128.93 34.14 A 4 4 0 0 0 126.52 36.03 L 94.79 92.02 L 72.44 74.83 A 4 4 0 0 0 66.83 75.56 A 4 4 0 0 0 66.09 78.68 A 4 4 0 0 1 66.83 76.56 A 4 4 0 0 1 72.44 75.83 L 94.79 93.02 L 126.52 37.03 A 4 4 0 0 1 128.93 35.14 A 4 4 0 0 1 131.97 35.52 A 4 4 0 0 1 133.96 38.51 A 4 4 0 0 0 131.97 34.52 A 4 4 0 0 0 130.49 34.03 z "/>
</svg>
