<svg xmlns="http://www.w3.org/2000/svg" id="svg14" width="192" height="192" version="1"><defs><filter style="color-interpolation-filters:sRGB" id="filter866" width="1.1" height="1.1" x=".05" y=".05"><feGaussianBlur stdDeviation="3.2"/></filter></defs><path style="filter:url(#filter866);opacity:.2;fill:#000" d="m 24,20 c -4.43,0 -8,3.57 -8,8 v 72 72 c 0,4.43 3.57,8 8,8 h 72 72 c 4.43,0 8,-3.57 8,-8 V 100 28 c 0,-4.43 -3.57,-8 -8,-8 H 96 Z"/><path style="fill:#2d4a5d" d="M 96,16 H 24 c -4.43,0 -8,3.57 -8,8 v 72 h 80 z"/><path style="fill:#1f8fd7" d="m 96,16 h 72 c 4.43,0 8,3.57 8,8 V 96 H 96 Z"/><path style="fill:#1f8fd7" d="M 96,176 H 24 c -4.43,0 -8,-3.57 -8,-8 V 96 h 80 z"/><path style="fill:#2d4a5d" d="m 96,176 h 72 c 4.43,0 8,-3.57 8,-8 V 96 H 96 Z"/><path style="opacity:.1;fill:#fff" d="M 24 16 C 19.57 16 16 19.57 16 24 L 16 25 C 16 20.57 19.57 17 24 17 L 168 17 C 172.43 17 176 20.57 176 25 L 176 24 C 176 19.57 172.43 16 168 16 L 24 16 z"/></svg>