<?xml version='1.0' encoding='utf-8'?>
<svg xmlns="http://www.w3.org/2000/svg" width="192" height="192" version="1" id="svg28">
  <defs>
    <filter style="color-interpolation-filters:sRGB" id="filter869" x="0.05" width="1.10" y="0.05" height="1.10">
      <feGaussianBlur stdDeviation="3.20"/>
    </filter>
    <filter style="color-interpolation-filters:sRGB" id="filter840" x="0.05" width="1.10" y="0.05" height="1.10">
      <feGaussianBlur stdDeviation="2.48"/>
    </filter>
  </defs>
  <rect style="filter:url(#filter869);opacity:0.20;fill:#000000" width="160" height="160" x="-180" y="-176" rx="8" ry="8" transform="matrix(0,-1,-1,0,0,0)"/>
  <rect transform="matrix(0,-1,-1,0,0,0)" ry="8" rx="8" y="-176" x="-176" height="160" width="160" style="fill:#00aaff"/>
  <path style="opacity:0.20;fill:#ffffff" d="m 24,16 c -4.43,0 -8,3.57 -8,8 v 1 c 0,-4.43 3.57,-8 8,-8 h 144 c 4.43,0 8,3.57 8,8 v -1 c 0,-4.43 -3.57,-8 -8,-8 z"/>
  <path d="M 67.64,36 C 49.04,36 34,51.05 34,69.63 c 0,5.74 1.45,11.29 3.99,16.03 0.84,4.01 -1.30,8.08 -1.30,12.33 0,32.74 26.56,59.29 59.35,59.29 4.23,0 8.33,0.45 12.32,-1.29 C 113.11,158.56 118.59,160 124.36,160 142.96,160.00 158,144.95 158,126.37 c 0,-5.78 -1.45,-11.29 -4.01,-16.04 0.84,-3.99 1.29,-8.09 1.29,-12.32 0,-32.72 -26.56,-59.29 -59.31,-59.29 -4.25,0 -8.35,0.43 -12.34,1.29 C 78.90,37.48 73.36,36.01 67.64,36 Z m 27.30,28 c 17.00,0 25.78,8.86 25.78,14.06 0,5.22 -2.53,6 -6.70,6 -8.11,0 -4.79,-9.64 -19.98,-9.64 -5.03,0 -11.31,2.27 -11.31,8.06 0,4.66 5.56,6.37 15.38,8.76 C 112.90,95.16 124,99.06 124,112.46 124,125.47 113.26,132 96.25,132 c -17.00,0 -27.86,-10.03 -27.86,-15.23 0,-5.20 2.00,-6.51 6.17,-6.51 8.12,0 7.03,10.94 22.22,10.94 5.04,0 12.49,-2.27 12.49,-8.08 0,-4.64 0.39,-6.25 -11.17,-9.12 C 86.59,102.46 68,98.77 68,84.60 68,71.59 77.95,64.01 94.96,64.01 Z" style="filter:url(#filter840);opacity:0.20;fill:#000000"/>
  <path style="fill:#ffffff" d="M 67.64 34 C 49.04 34 34 49.05 34 67.63 C 34 73.37 35.45 78.92 37.99 83.65 C 37.15 87.66 36.69 91.74 36.69 95.99 C 36.69 128.72 63.25 155.28 96.04 155.28 C 100.27 155.28 104.37 154.83 108.36 153.99 C 113.11 156.56 118.59 158 124.36 158 C 142.96 158.00 158 142.95 158 124.37 C 158 118.60 156.55 113.08 153.99 108.33 C 154.83 104.34 155.28 100.24 155.28 96.01 C 155.28 63.29 128.72 36.72 95.97 36.72 C 91.72 36.72 87.62 37.15 83.63 38.01 C 78.90 35.48 73.36 34.01 67.64 34 z M 94.94 62 C 111.94 62 120.72 70.86 120.72 76.06 C 120.72 81.28 118.19 82.06 114.02 82.06 C 105.91 82.06 109.22 72.42 94.04 72.42 C 89.01 72.42 82.73 74.69 82.73 80.48 C 82.73 85.14 88.29 86.86 98.11 89.25 C 112.90 93.16 124 97.06 124 110.46 C 124 123.47 113.26 130 96.25 130 C 79.25 130 68.39 119.97 68.39 114.77 C 68.39 109.56 70.39 108.26 74.57 108.26 C 82.69 108.26 81.60 119.20 96.79 119.20 C 101.83 119.20 109.27 116.94 109.27 111.12 C 109.27 106.48 108.88 104.87 98.10 102.00 C 86.59 100.46 68 96.77 68 82.60 C 68 69.59 77.95 62.01 94.96 62.01 L 94.94 62 z "/>
</svg>
