<?xml version='1.0' encoding='utf-8'?>
<svg xmlns="http://www.w3.org/2000/svg" width="192" height="192" version="1" id="svg18">
  <defs>
    <filter style="color-interpolation-filters:sRGB" id="filter853" x="0.05" width="1.10" y="0.05" height="1.10">
      <feGaussianBlur stdDeviation="1.09"/>
    </filter>
    <filter style="color-interpolation-filters:sRGB" id="filter869" x="0.05" width="1.10" y="0.05" height="1.10">
      <feGaussianBlur stdDeviation="1.92"/>
    </filter>
    <filter style="color-interpolation-filters:sRGB" id="filter889" x="0.05" width="1.10" y="0.05" height="1.10">
      <feGaussianBlur stdDeviation="3.20"/>
    </filter>
  </defs>
  <path d="m 84,20.00 c -37.31,0 -67.99,30.69 -67.99,68.01 0,37.32 30.68,68.01 67.99,68.01 h 0.03 c 7.45,0.01 14.69,-1.55 21.67,-3.92 l 18.08,18.08 c 11.03,11.03 30.81,14.45 43.84,1.41 13.02,-13.03 9.61,-32.82 -1.41,-43.84 l -18.09,-18.10 c 2.36,-6.97 3.88,-14.20 3.88,-21.64 v 0.01 c 0,-37.32 -30.68,-68.01 -67.99,-68.01 z" style="filter:url(#filter889);opacity:0.20"/>
  <path d="M 84,16 C 46.69,16 16.01,46.69 16.01,84.01 16.01,121.33 46.69,152.02 84,152.02 h 0.03 c 7.45,0.01 14.69,-1.55 21.67,-3.92 l 18.08,18.08 c 11.03,11.03 30.81,14.45 43.84,1.41 13.02,-13.03 9.61,-32.82 -1.41,-43.84 l -18.09,-18.10 c 2.36,-6.97 3.88,-14.20 3.88,-21.64 v 0.01 C 151.99,46.69 121.31,16 84.00,16 Z" style="fill:#32a0e0"/>
  <path d="m 107.41,110.50 c 3.92,-3.92 6.02,-7.27 10.72,-2.57 l 33.94,33.94 c 4.70,4.70 5.33,11.64 1.41,15.56 -3.92,3.92 -10.86,3.29 -15.56,-1.41 l -33.94,-33.94 c -4.70,-4.70 0.50,-7.66 3.42,-11.57 z" style="filter:url(#filter853);opacity:0.10"/>
  <path d="m 107.41,106.50 c 3.92,-3.92 6.02,-7.27 10.72,-2.57 l 33.94,33.94 c 4.70,4.70 5.33,11.64 1.41,15.56 -3.92,3.92 -10.86,3.29 -15.56,-1.41 l -33.94,-33.94 c -4.70,-4.70 0.50,-7.66 3.42,-11.57 z" style="fill:#e62c2c"/>
  <path d="M 84,40.00 A 48,48 0 0 0 36,88.00 48,48 0 0 0 84,136 48,48 0 0 0 132,88.00 48,48 0 0 0 84,40.00 Z m 0,20.00 a 28,28 0 0 1 28,28 A 28,28 0 0 1 84,116 28,28 0 0 1 56,88.00 a 28,28 0 0 1 28,-28 z" style="filter:url(#filter869);opacity:0.20"/>
  <path d="M 84,36 A 48,48 0 0 0 36,84 48,48 0 0 0 84,132 48,48 0 0 0 132,84 48,48 0 0 0 84,36 Z m 0,20 A 28,28 0 0 1 112,84 28,28 0 0 1 84,112 28,28 0 0 1 56,84 28,28 0 0 1 84,56 Z" style="fill:#ffffff"/>
  <path style="opacity:0.20;fill:#ffffff" d="M 84 16 C 46.69 16 16.01 46.69 16.01 84.01 C 16.01 84.18 16.02 84.34 16.02 84.51 C 16.30 47.41 46.86 17 84 17 C 121.15 17 151.70 47.42 151.98 84.51 C 151.98 84.35 151.99 84.18 151.99 84.02 L 151.99 84.01 C 151.99 46.69 121.31 16 84 16 z M 148.35 105.90 C 148.27 106.15 148.19 106.40 148.11 106.65 L 166.20 124.75 C 172.19 130.74 175.92 139.32 176 147.99 C 176.21 138.98 172.42 129.97 166.20 123.75 L 148.35 105.90 z "/>
</svg>
