<?xml version='1.0' encoding='utf-8'?>
<svg xmlns="http://www.w3.org/2000/svg" width="192" height="192" version="1.1" id="svg14">
  <defs>
    <filter style="color-interpolation-filters:sRGB" id="filter849" x="0.05" y="0.05" width="1.10" height="1.10">
      <feGaussianBlur stdDeviation="3.20"/>
    </filter>
    <filter style="color-interpolation-filters:sRGB" id="filter10979" x="0.24" y="0.24" width="1.48" height="1.48">
      <feGaussianBlur stdDeviation="2.18"/>
    </filter>
    <filter style="color-interpolation-filters:sRGB" id="filter10983" x="0.24" y="0.24" width="1.48" height="1.48">
      <feGaussianBlur stdDeviation="2.18"/>
    </filter>
    <filter style="color-interpolation-filters:sRGB" id="filter10987" x="0.12" y="0.07" width="1.24" height="1.15">
      <feGaussianBlur stdDeviation="2.18"/>
    </filter>
    <filter style="color-interpolation-filters:sRGB" id="filter10991" x="0.06" y="0.37" width="1.12" height="1.75">
      <feGaussianBlur stdDeviation="2.18"/>
    </filter>
    <filter style="color-interpolation-filters:sRGB" id="filter10995" x="0.07" y="0.37" width="1.13" height="1.75">
      <feGaussianBlur stdDeviation="2.18"/>
    </filter>
    <filter style="color-interpolation-filters:sRGB" id="filter10999" x="0.25" y="0.12" width="1.50" height="1.24">
      <feGaussianBlur stdDeviation="2.18"/>
    </filter>
  </defs>
  <rect style="filter:url(#filter849);opacity:0.20" width="160" height="160" x="16" y="20" rx="32" ry="32"/>
  <rect style="fill:#546e7a" width="160" height="160" x="16" y="16" rx="32" ry="32"/>
  <path style="opacity:0.10;fill:#ffffff" d="M 48,16 C 30.27,16 16,30.27 16,48 v 1 C 16,31.27 30.27,17 48,17 h 96 c 17.73,0 32,14.27 32,32 V 48 C 176,30.27 161.73,16 144,16 Z"/>
  <path style="filter:url(#filter10983);opacity:0.20;fill:#000000;color:#000000" d="m 133,139 a 11,11 0 0 1 -11,11 11,11 0 0 1 -11,-11 11,11 0 0 1 11,-11 11,11 0 0 1 11,11 z"/>
  <path style="fill:#f6446d;color:#000000" d="m 133,137 a 11,11 0 0 1 -11,11 11,11 0 0 1 -11,-11 11,11 0 0 1 11,-11 11,11 0 0 1 11,11 z"/>
  <path style="filter:url(#filter10999);opacity:0.20;fill:#000000;color:#000000" d="m 143.64,77.20 a 7,7 0 0 0 -8.45,5.16 l -7,29 a 7,7 0 0 0 5.16,8.45 7,7 0 0 0 8.45,-5.16 l 7,-29.00 a 7,7 0 0 0 -5.16,-8.45 z"/>
  <path style="fill:#f04e23;color:#000000" d="m 143.64,75.20 a 7,7 0 0 0 -8.45,5.16 l -7,29.00 a 7,7 0 0 0 5.16,8.45 7,7 0 0 0 8.45,-5.16 l 7,-29.00 a 7,7 0 0 0 -5.16,-8.45 z"/>
  <path style="filter:url(#filter10991);opacity:0.20;fill:#000000;color:#000000" d="m 62.04,67.00 a 7,7 0 0 0 -7,7 7,7 0 0 0 7,7 H 132 a 7,7 0 0 0 7,-7 7,7 0 0 0 -7,-7 z"/>
  <path style="fill:#10b12d;color:#000000" d="m 62.04,65 a 7,7 0 0 0 -7,7 7,7 0 0 0 7,7 H 132 a 7,7 0 0 0 7,-7 7,7 0 0 0 -7,-7 z"/>
  <path style="filter:url(#filter10979);opacity:0.20;fill:#000000;color:#000000" d="M 90,139 A 11,11 0 0 1 79,150 11,11 0 0 1 68,139 11,11 0 0 1 79,128 11,11 0 0 1 90,139 Z"/>
  <path style="fill:#ffd507;color:#000000" d="M 90,137 A 11,11 0 0 1 79,148 11,11 0 0 1 68,137 11,11 0 0 1 79,126 11,11 0 0 1 90,137 Z"/>
  <path style="filter:url(#filter10995);opacity:0.20;fill:#000000;color:#000000" d="m 69,106.00 a 7,7 0 0 0 -7,7 7,7 0 0 0 7,7 h 66 a 7,7 0 0 0 7,-7 7,7 0 0 0 -7,-7 z"/>
  <path style="opacity:0.20;fill:#ffffff;color:#000000" d="M 142.09 75 A 7 7 0 0 0 135.20 80.36 L 128.20 109.36 A 7 7 0 0 0 128.06 111.47 A 7 7 0 0 1 128.20 110.36 L 135.20 81.36 A 7 7 0 0 1 143.64 76.20 A 7 7 0 0 1 148.98 82.49 A 7 7 0 0 0 143.64 75.20 A 7 7 0 0 0 142.09 75 z "/>
  <path style="fill:#ff8f14;color:#000000" d="m 69,104 a 7,7 0 0 0 -7,7 7,7 0 0 0 7,7 h 66 a 7,7 0 0 0 7,-7 7,7 0 0 0 -7,-7 z"/>
  <path style="opacity:0.20;fill:#ffffff;color:#000000" d="M 62.04 65 A 7 7 0 0 0 55.04 72 A 7 7 0 0 0 55.10 72.50 A 7 7 0 0 1 62.04 66 L 132 66 A 7 7 0 0 1 138.96 72.29 A 7 7 0 0 0 139 72 A 7 7 0 0 0 132 65 L 62.04 65 z "/>
  <path style="filter:url(#filter10987);opacity:0.20;fill:#000000;color:#000000" d="m 40,48.00 a 7,7 0 0 0 -7,7 7,7 0 0 0 7,7 c 4.48,0 6.64,1.11 8.76,3.25 2.12,2.14 4.04,5.83 5.57,10.83 3.06,10.01 4.37,24.57 7.88,38.61 a 7,7 0 0 0 8.49,5.10 7,7 0 0 0 5.10,-8.49 C 72.67,98.78 71.49,84.34 67.72,71.99 65.83,65.82 63.25,59.99 58.71,55.40 54.17,50.82 47.53,48.00 40,48.00 Z"/>
  <path style="opacity:0.20;fill:#ffffff;color:#000000" d="M 69 104 A 7 7 0 0 0 62 111 A 7 7 0 0 0 62.07 111.50 A 7 7 0 0 1 69 105 L 135 105 A 7 7 0 0 1 141.96 111.29 A 7 7 0 0 0 142 111 A 7 7 0 0 0 135 104 L 69 104 z "/>
  <path style="fill:#01c3d2;color:#000000" d="m 40,46 a 7,7 0 0 0 -7,7 7,7 0 0 0 7,7 c 4.48,0 6.64,1.11 8.76,3.25 2.12,2.14 4.04,5.83 5.57,10.83 3.06,10.01 4.37,24.57 7.88,38.61 a 7,7 0 0 0 8.49,5.10 7,7 0 0 0 5.10,-8.49 C 72.67,96.78 71.49,82.34 67.72,69.99 65.83,63.82 63.25,57.99 58.71,53.40 54.17,48.82 47.53,46 40,46 Z"/>
  <path style="opacity:0.20;fill:#ffffff;color:#000000" d="M 122 126 A 11 11 0 0 0 111 137 A 11 11 0 0 0 111.04 137.50 A 11 11 0 0 1 122 127 A 11 11 0 0 1 132.98 137.33 A 11 11 0 0 0 133 137 A 11 11 0 0 0 122 126 z "/>
  <path style="opacity:0.20;fill:#ffffff;color:#000000" d="M 79 126 A 11 11 0 0 0 68 137 A 11 11 0 0 0 68.04 137.50 A 11 11 0 0 1 79 127 A 11 11 0 0 1 89.98 137.33 A 11 11 0 0 0 90 137 A 11 11 0 0 0 79 126 z "/>
  <path style="opacity:0.20;fill:#ffffff;color:#000000" d="M 40 46 A 7 7 0 0 0 33 53 A 7 7 0 0 0 33.07 53.50 A 7 7 0 0 1 40 47 C 47.53 47 54.17 49.82 58.71 54.40 C 63.25 58.99 65.83 64.82 67.72 70.99 C 71.49 83.34 72.67 97.78 75.79 110.30 A 7 7 0 0 1 75.97 111.50 A 7 7 0 0 0 75.79 109.30 C 72.67 96.78 71.49 82.34 67.72 69.99 C 65.83 63.82 63.25 57.99 58.71 53.40 C 54.17 48.82 47.53 46 40 46 z "/>
</svg>
