<?xml version='1.0' encoding='utf-8'?>
<svg xmlns="http://www.w3.org/2000/svg" width="192" height="192" version="1" id="svg12">
  <defs>
    <filter style="color-interpolation-filters:sRGB" id="filter955" x="-0.048000001" width="1.096" y="-0.048000001" height="1.096">
      <feGaussianBlur stdDeviation="3.2"/>
    </filter>
    <filter style="color-interpolation-filters:sRGB" id="filter7113" x="-0.05627279" y="-0.10760267" width="1.1125456" height="1.2152053">
      <feGaussianBlur stdDeviation="4.0797773"/>
    </filter>
  </defs>
  <rect style="filter:url(#filter955);opacity:0.2;fill:#000000" width="160" height="160" x="16" y="20" rx="30" ry="30"/>
  <rect style="fill:#3ed6e5" width="160" height="160" x="16" y="16" rx="30" ry="30"/>
  <path style="opacity:0.2;fill:#ffffff" d="M 46 16 C 29.38 16 16 29.38 16 46 L 16 47 C 16 30.38 29.38 17 46 17 L 146 17 C 162.62 17 176 30.38 176 47 L 176 46 C 176 29.38 162.62 16 146 16 L 46 16 z "/>
  <path style="filter:url(#filter7113);opacity:0.2;fill:#000000;color:#000000" d="m 78.226562,57.271566 a 6.0006,6.0006 0 0 0 -3.621093,3.103516 L 57.248047,96.002035 H 15 a 6,6 0 0 0 -6,5.999995 6,6 0 0 0 6,6 h 46 a 6.0006,6.0006 0 0 0 5.394531,-3.37305 L 78.074219,80.654379 93.166016,143.40437 a 6.0006,6.0006 0 0 0 11.451174,0.70508 L 118.1582,108.00203 H 177 a 6,6 0 0 0 6,-6 6,6 0 0 0 -6,-5.999995 h -63 a 6.0006,6.0006 0 0 0 -5.61719,3.892578 L 100.25586,121.56648 85.833984,61.599691 a 6.0006,6.0006 0 0 0 -7.607422,-4.328125 z"/>
  <path style="fill:#ffffff;color:#000000" d="m 78.226562,55.269531 a 6.0006,6.0006 0 0 0 -3.621093,3.103516 L 57.248047,94 H 15 a 6,6 0 0 0 -6,6 6,6 0 0 0 6,6 h 46 a 6.0006,6.0006 0 0 0 5.394531,-3.37305 L 78.074219,78.652344 93.166016,141.40234 a 6.0006,6.0006 0 0 0 11.451174,0.70508 L 118.1582,106 H 177 a 6,6 0 0 0 6,-6 6,6 0 0 0 -6,-6 h -63 a 6.0006,6.0006 0 0 0 -5.61719,3.892578 L 100.25586,119.56445 85.833984,59.597656 a 6.0006,6.0006 0 0 0 -7.607422,-4.328125 z"/>
</svg>
