<svg xmlns="http://www.w3.org/2000/svg" id="svg26" width="192" height="192" version="1"><defs><filter style="color-interpolation-filters:sRGB" id="filter881" width="1.09" height="1.11" x=".04" y=".05"><feGaussianBlur stdDeviation="1.44"/></filter><filter style="color-interpolation-filters:sRGB" id="filter897" width="1.06" height="1.34" x=".03" y=".17"><feGaussianBlur stdDeviation=".56"/></filter><filter style="color-interpolation-filters:sRGB" id="filter913" width="1.1" height="1.1" x=".05" y=".05"><feGaussianBlur stdDeviation="2.24"/></filter><filter style="color-interpolation-filters:sRGB" id="filter929" width="1.09" height="1.11" x=".04" y=".05"><feGaussianBlur stdDeviation="2"/></filter></defs><rect style="filter:url(#filter897);opacity:.2" width="48" height="8" x="96" y="170" rx="3" ry="4"/><rect style="filter:url(#filter929);opacity:.2" width="112" height="88" x="64" y="20" rx="12" ry="12"/><circle style="filter:url(#filter913);opacity:.2" cx="72" cy="100" r="56"/><rect style="fill:#00b4ed" width="112" height="88" x="64" y="16" rx="12" ry="12"/><circle style="fill:#4f4f4f" cx="72" cy="96" r="56"/><circle style="fill:#3f3f3f" cx="72" cy="96" r="44"/><circle style="opacity:.2" cx="72" cy="96" r="16"/><rect style="fill:#3f3f3f" width="24" height="20" x="108" y="152" rx="3.43" ry="4"/><rect style="filter:url(#filter881);opacity:.2" width="80" height="64" x="80" y="102" rx="8.57" ry="8.73"/><rect style="fill:#1d64bc" width="80" height="64" x="80" y="100" rx="8.57" ry="8.73"/><rect style="fill:#4f4f4f" width="48" height="8" x="96" y="168" rx="3" ry="4"/><path style="opacity:.2;fill:#fff" d="M 76 16 C 69.35 16 64 21.35 64 28 L 64 29 C 64 22.35 69.35 17 76 17 L 164 17 C 170.65 17 176 22.35 176 29 L 176 28 C 176 21.35 170.65 16 164 16 L 76 16 z"/></svg>