<?xml version='1.0' encoding='utf-8'?>
<svg xmlns="http://www.w3.org/2000/svg" width="192" height="192" version="1" id="svg28">
  <defs>
    <filter style="color-interpolation-filters:sRGB" id="filter6495" x="-0.048000001" y="-0.048000001" width="1.096" height="1.096">
      <feGaussianBlur stdDeviation="3.2"/>
    </filter>
    <filter style="color-interpolation-filters:sRGB" id="filter1393" x="-0.108" y="-0.108" width="1.216" height="1.216">
      <feGaussianBlur stdDeviation="4.5"/>
    </filter>
  </defs>
  <rect transform="matrix(0,-1,-1,0,0,0)" ry="12" rx="12" y="-176" x="-180" height="160" width="160" style="filter:url(#filter6495);opacity:0.2;fill:#000000"/>
  <rect transform="matrix(0,-1,-1,0,0,0)" ry="12" rx="12" y="-176" x="-176" height="160" width="160" style="fill:#e4e4e4"/>
  <path style="opacity:0.2;fill:#ffffff" d="m 28,16 c -6.648,0 -12,5.352 -12,12 v 1 c 0,-6.648 5.352,-12 12,-12 h 136 c 6.648,0 12,5.352 12,12 v -1 c 0,-6.648 -5.352,-12 -12,-12 z"/>
  <path style="filter:url(#filter1393);opacity:0.2;fill:#000000" d="m 85,48 c -4.432,0 -8,3.568 -8,8 V 79 H 54 c -4.432,0 -8,3.568 -8,8 v 22 c 0,4.432 3.568,8 8,8 h 23 v 23 c 0,4.432 3.568,8 8,8 h 22 c 4.432,0 8,-3.568 8,-8 v -23 h 23 c 4.432,0 8,-3.568 8,-8 V 87 c 0,-4.432 -3.568,-8 -8,-8 H 115 V 56 c 0,-4.432 -3.568,-8 -8,-8 z"/>
  <path style="fill:#f44336" d="M 85 46 C 80.568 46 77 49.568 77 54 L 77 77 L 54 77 C 49.568 77 46 80.568 46 85 L 46 107 C 46 111.432 49.568 115 54 115 L 77 115 L 77 138 C 77 142.432 80.568 146 85 146 L 107 146 C 111.432 146 115 142.432 115 138 L 115 115 L 138 115 C 142.432 115 146 111.432 146 107 L 146 85 C 146 80.568 142.432 77 138 77 L 115 77 L 115 54 C 115 49.568 111.432 46 107 46 L 85 46 z "/>
</svg>
