<?xml version='1.0' encoding='utf-8'?>
<svg xmlns="http://www.w3.org/2000/svg" width="192" height="192" version="1.1" id="svg12">
  <defs>
    <filter style="color-interpolation-filters:sRGB" id="filter845" x="0.05" y="0.05" width="1.10" height="1.10">
      <feGaussianBlur stdDeviation="3.20"/>
    </filter>
    <filter style="color-interpolation-filters:sRGB" id="filter849" x="0.05" y="0.05" width="1.10" height="1.11">
      <feGaussianBlur stdDeviation="3.21"/>
    </filter>
  </defs>
  <circle style="filter:url(#filter845);opacity:0.20" cx="96" cy="100" r="80"/>
  <circle style="fill:#2a4986" cx="96" cy="96" r="80"/>
  <path style="filter:url(#filter849);opacity:0.20" d="m 58.20,27.57 a 80,80 0 0 0 -19.64,14.88 L 149.55,109.80 30.59,52.03 A 80,80 0 0 0 19.54,74.50 L 153.15,118.62 17.03,85.86 A 80,80 0 0 0 16,98.00 80,80 0 0 0 17.12,111.19 L 142.38,123.62 20.19,123.23 a 80,80 0 0 0 10.52,20.82 L 144.72,133.73 37.77,152.77 A 80,80 0 0 0 57.82,168.29 L 167.32,134.05 a 80,80 0 0 0 5.81,-15.15 z"/>
  <path style="fill:#ffffff" d="m 58.20,25.57 a 80,80 0 0 0 -19.64,14.88 L 149.55,107.80 30.59,50.03 A 80,80 0 0 0 19.54,72.50 L 153.15,116.62 17.03,83.86 A 80,80 0 0 0 16,96 80,80 0 0 0 17.12,109.20 L 142.38,121.62 20.19,121.23 a 80,80 0 0 0 10.52,20.82 L 144.72,131.73 37.77,150.77 a 80,80 0 0 0 20.05,15.52 L 167.32,132.05 a 80,80 0 0 0 5.81,-15.15 z"/>
  <path style="opacity:0.10;fill:#ffffff" d="M 96 16 A 80 80 0 0 0 16 96 A 80 80 0 0 0 16.02 96.64 A 80 80 0 0 1 96 17 A 80 80 0 0 1 175.98 96.30 A 80 80 0 0 0 176 96 A 80 80 0 0 0 96 16 z "/>
</svg>
