<svg xmlns="http://www.w3.org/2000/svg" id="svg28" width="192" height="192" version="1"><defs><filter style="color-interpolation-filters:sRGB" id="filter6495" width="1.1" height="1.1" x=".05" y=".05"><feGaussianBlur stdDeviation="3.2"/></filter><filter style="color-interpolation-filters:sRGB" id="filter3225" width="1.14" height="1.16" x=".07" y=".08"><feGaussianBlur stdDeviation="3.22"/></filter></defs><rect width="160" height="160" x="-180" y="-176" rx="12" ry="12" transform="matrix(0,-1,-1,0,0,0)" style="filter:url(#filter6495);opacity:.2;fill:#000"/><rect width="160" height="160" x="-176" y="-176" rx="12" ry="12" transform="matrix(0,-1,-1,0,0,0)" style="fill:#f5c400"/><path style="filter:url(#filter3225);opacity:.2;fill:#000" d="M 67.96,128.64 C 61.71,122.53 56.66,115.28 52.60,107.60 49.01,100.76 46.63,93.39 44.85,85.91 42.51,76.19 41.35,66.19 41.00,56.21 41.00,54.14 41,50.00 41,50.00 h 110 c 0.96,10.52 -1.74,22.00 -1.74,22.00 H 144.32 65 c 0.78,10.32 3.65,20.40 8.95,29.39 5.75,9.29 12.75,17.21 22.05,21.61 7.88,-4.10 15.55,-10.97 19.77,-18 H 93.98 c -6.09,-6.08 -10.55,-12.67 -11.11,-21 h 3.96 60.84 c -2.90,12.78 -8.09,24.57 -15.86,35.23 -3.16,4.56 -7.12,8.47 -11.11,12.31 -5.47,4.51 -11.25,8.76 -17.78,11.65 C 100.60,144.12 96,146 96,146 85.73,143.24 74.71,135.13 67.96,128.64 Z"/><path style="fill:#464646" d="M 67.96,126.63 C 61.71,120.53 56.66,113.28 52.60,105.60 49.01,98.76 46.63,91.39 44.85,83.91 42.51,74.19 41.35,64.19 41.00,54.21 41.00,52.14 41,48.00 41,48.00 H 151 C 151.96,58.52 149.26,70 149.26,70 H 144.32 65 c 0.78,10.32 3.65,20.40 8.95,29.39 C 79.70,108.68 86.71,116.60 96,121 c 7.88,-4.10 15.55,-10.97 19.77,-18 H 93.98 C 87.89,96.92 83.43,90.33 82.87,82 h 3.96 60.84 c -2.90,12.78 -8.09,24.57 -15.86,35.23 -3.16,4.56 -7.12,8.47 -11.11,12.31 -5.47,4.51 -11.25,8.76 -17.78,11.65 C 100.60,142.12 96,144.00 96,144.00 85.73,141.24 74.71,133.13 67.96,126.63 Z"/><path style="opacity:.2;fill:#fff" d="m 28,16 c -6.65,0 -12,5.35 -12,12 v 1 c 0,-6.65 5.35,-12 12,-12 h 136 c 6.65,0 12,5.35 12,12 v -1 c 0,-6.65 -5.35,-12 -12,-12 z"/></svg>