<?xml version='1.0' encoding='utf-8'?>
<svg xmlns="http://www.w3.org/2000/svg" width="192" height="192" version="1" id="svg22">
  <defs>
    <filter style="color-interpolation-filters:sRGB" id="filter869" x="0.05" width="1.10" y="0.05" height="1.10">
      <feGaussianBlur stdDeviation="3.20"/>
    </filter>
    <filter style="color-interpolation-filters:sRGB" id="filter888" x="0.05" width="1.10" y="0.05" height="1.10">
      <feGaussianBlur stdDeviation="2.08"/>
    </filter>
  </defs>
  <path style="filter:url(#filter869);opacity:0.20;fill:#000000" d="m 24,20 c -4.43,0 -8,3.57 -8,8 v 72 72 c 0,4.43 3.57,8 8,8 h 72 72 c 4.43,0 8,-3.57 8,-8 V 100 28 c 0,-4.43 -3.57,-8 -8,-8 H 96 Z"/>
  <path d="M 96,16 H 24 c -4.43,0 -8,3.57 -8,8 v 72 h 80 z" style="fill:#43c95a"/>
  <path d="m 96,16 h 72 c 4.43,0 8,3.57 8,8 V 96 H 96 Z" style="fill:#e4214c"/>
  <path d="M 96,176 H 24 c -4.43,0 -8,-3.57 -8,-8 V 96 h 80 z" style="fill:#2d8fc5"/>
  <path d="m 96,176 h 72 c 4.43,0 8,-3.57 8,-8 V 96 H 96 Z" style="fill:#ffd13e"/>
  <path style="opacity:0.20;fill:#ffffff" d="M 24 16 C 19.57 16 16 19.57 16 24 L 16 25 C 16 20.57 19.57 17 24 17 L 168 17 C 172.43 17 176 20.57 176 25 L 176 24 C 176 19.57 172.43 16 168 16 L 24 16 z "/>
  <rect ry="12" rx="12" y="48" x="44" height="104" width="104" style="filter:url(#filter888);opacity:0.20"/>
  <rect ry="12" rx="12" y="44" x="44" height="104" width="104" style="fill:#ffffff"/>
  <path d="m 76.00,68 24,14.00 L 124,96.00 100.00,110 76,124 l 0.00,-28.00 z" style="fill:#714480"/>
</svg>
