<?xml version='1.0' encoding='utf-8'?>
<svg xmlns="http://www.w3.org/2000/svg" width="192" height="192" version="1" id="svg14">
  <defs>
    <filter style="color-interpolation-filters:sRGB" id="filter850" x="-0.048000001" width="1.096" y="-0.048000001" height="1.096">
      <feGaussianBlur stdDeviation="3.2"/>
    </filter>
    <filter style="color-interpolation-filters:sRGB" id="filter13975" x="-0.091666667" y="-0.063461538" width="1.1833333" height="1.1269231">
      <feGaussianBlur stdDeviation="2.75"/>
    </filter>
  </defs>
  <circle style="filter:url(#filter850);opacity:0.2;fill:#000000" cx="96" cy="100" r="80"/>
  <circle r="80" cy="96" cx="96" style="fill:#003f57"/>
  <path style="filter:url(#filter13975);opacity:0.2;fill:#000000" d="m 69,46 a 7,7 0 0 0 -7,7 7,7 0 0 0 7,7 7,7 0 0 0 7,-7 7,7 0 0 0 -7,-7 z M 85,58 A 11,11 0 0 0 74,69 11,11 0 0 0 85,80 11,11 0 0 0 96,69 11,11 0 0 0 85,58 Z m 26,17 a 23,23 0 0 0 -23,23 23,23 0 0 0 23,23 23,23 0 0 0 23,-23 23,23 0 0 0 -23,-23 z m 0,6 a 17,17 0 0 1 17,17 17,17 0 0 1 -17,17 17,17 0 0 1 -17,-17 17,17 0 0 1 17,-17 z m 0,6 a 11,11 0 0 0 -11,11 11,11 0 0 0 11,11 11,11 0 0 0 11,-11 11,11 0 0 0 -11,-11 z m -26,29 a 11,11 0 0 0 -11,11 11,11 0 0 0 11,11 11,11 0 0 0 11,-11 11,11 0 0 0 -11,-11 z m -16,20 a 7,7 0 0 0 -7,7 7,7 0 0 0 7,7 7,7 0 0 0 7,-7 7,7 0 0 0 -7,-7 z"/>
  <path style="opacity:0.1;fill:#ffffff" d="M 96 16 A 80 80 0 0 0 16 96 A 80 80 0 0 0 16.019531 96.472656 A 80 80 0 0 1 96 17 A 80 80 0 0 1 175.97461 96.513672 A 80 80 0 0 0 176 96 A 80 80 0 0 0 96 16 z "/>
  <path style="fill:#ffffff" d="M 111 73 A 23 23 0 0 0 88 96 A 23 23 0 0 0 111 119 A 23 23 0 0 0 134 96 A 23 23 0 0 0 111 73 z M 111 79 A 17 17 0 0 1 128 96 A 17 17 0 0 1 111 113 A 17 17 0 0 1 94 96 A 17 17 0 0 1 111 79 z "/>
  <circle style="fill:#d5df3e" cx="111" cy="96" r="11"/>
  <circle style="fill:#d5df3e" cx="85" cy="67" r="11"/>
  <circle style="fill:#d5df3e" cx="69" cy="51" r="7"/>
  <circle style="fill:#d5df3e" cx="85" cy="-125" r="11" transform="scale(1,-1)"/>
  <circle style="fill:#d5df3e" cx="69" cy="-141" r="7" transform="scale(1,-1)"/>
  <path style="opacity:0.2;fill:#ffffff" d="M 69 44 A 7 7 0 0 0 62 51 A 7 7 0 0 0 62.078125 51.5 A 7 7 0 0 1 69 45 A 7 7 0 0 1 75.957031 51.275391 A 7 7 0 0 0 76 51 A 7 7 0 0 0 69 44 z M 85 56 A 11 11 0 0 0 74 67 A 11 11 0 0 0 74.066406 67.5 A 11 11 0 0 1 85 57 A 11 11 0 0 1 95.964844 67.271484 A 11 11 0 0 0 96 67 A 11 11 0 0 0 85 56 z M 111 73 A 23 23 0 0 0 88 96 A 23 23 0 0 0 88.048828 96.5 A 23 23 0 0 1 111 74 A 23 23 0 0 1 133.97461 96.253906 A 23 23 0 0 0 134 96 A 23 23 0 0 0 111 73 z M 111 85 A 11 11 0 0 0 100 96 A 11 11 0 0 0 100.06641 96.5 A 11 11 0 0 1 111 86 A 11 11 0 0 1 121.96484 96.271484 A 11 11 0 0 0 122 96 A 11 11 0 0 0 111 85 z M 127.9707 96.259766 A 17 17 0 0 1 111 113 A 17 17 0 0 1 94.056641 96.5 A 17 17 0 0 0 94 97 A 17 17 0 0 0 111 114 A 17 17 0 0 0 128 97 A 17 17 0 0 0 127.9707 96.259766 z M 85 114 A 11 11 0 0 0 74 125 A 11 11 0 0 0 74.066406 125.5 A 11 11 0 0 1 85 115 A 11 11 0 0 1 95.964844 125.27148 A 11 11 0 0 0 96 125 A 11 11 0 0 0 85 114 z M 69 134 A 7 7 0 0 0 62 141 A 7 7 0 0 0 62.078125 141.5 A 7 7 0 0 1 69 135 A 7 7 0 0 1 75.957031 141.27539 A 7 7 0 0 0 76 141 A 7 7 0 0 0 69 134 z "/>
</svg>
