<?xml version='1.0' encoding='utf-8'?>
<svg xmlns="http://www.w3.org/2000/svg" width="192" height="192" version="1" id="svg12">
  <defs>
    <filter style="color-interpolation-filters:sRGB" id="filter860" x="0.05" width="1.10" y="0.05" height="1.10">
      <feGaussianBlur stdDeviation="3.20"/>
    </filter>
    <filter style="color-interpolation-filters:sRGB" id="filter869" x="0.05" width="1.10" y="0.05" height="1.10">
      <feGaussianBlur stdDeviation="2.24"/>
    </filter>
  </defs>
  <rect style="filter:url(#filter860);opacity:0.20" width="160" height="160" x="16" y="20" rx="48" ry="48"/>
  <rect style="fill:#5972fe" width="160" height="160" x="16" y="16" rx="48" ry="48"/>
  <path style="opacity:0.20;fill:#ffffff" d="M 64,16 C 37.41,16 16,37.41 16,64 v 1 C 16,38.41 37.41,17 64,17 h 64 c 26.59,0 48,21.41 48,48 V 64 C 176,37.41 154.59,16 128,16 Z"/>
  <path d="m 96,42 a 56,56 0 0 0 -56,56 56,56 0 0 0 56,56 56,56 0 0 0 25.49,-6.20 L 106.19,132.50 A 36,36 0 0 1 96,134 36,36 0 0 1 60,98 36,36 0 0 1 96,62 a 36,36 0 0 1 36,36 36,36 0 0 1 -1.60,10.62 l 15.25,15.25 A 56,56 0 0 0 152,98 56,56 0 0 0 96,42 Z m 21.93,62.27 c -1.53,0.01 -3.05,0.57 -4.22,1.74 l -9.97,9.97 c -2.33,2.33 -2.31,6.10 0.04,8.46 L 129.22,149.87 149.73,152 147.61,131.49 122.16,106.04 c -1.18,-1.18 -2.71,-1.77 -4.24,-1.78 z" style="filter:url(#filter869);opacity:0.20;fill:#000000"/>
  <path style="fill:#ffffff" d="m 96,40 a 56,56 0 0 0 -56,56 56,56 0 0 0 56,56 56,56 0 0 0 25.49,-6.20 L 106.19,130.50 A 36,36 0 0 1 96,132 36,36 0 0 1 60,96 36,36 0 0 1 96,60 a 36,36 0 0 1 36,36 36,36 0 0 1 -1.60,10.62 l 15.25,15.25 A 56,56 0 0 0 152,96 56,56 0 0 0 96,40 Z m 21.93,62.27 c -1.53,0.01 -3.05,0.57 -4.22,1.74 l -9.97,9.97 c -2.33,2.33 -2.31,6.10 0.04,8.46 L 129.22,147.87 149.73,150 147.61,129.49 122.16,104.04 c -1.18,-1.18 -2.71,-1.77 -4.24,-1.78 z"/>
</svg>
