<?xml version='1.0' encoding='utf-8'?>
<svg xmlns="http://www.w3.org/2000/svg" width="192" height="192" version="1" id="svg14">
  <defs>
    <filter style="color-interpolation-filters:sRGB" id="filter850" x="0.05" width="1.10" y="0.05" height="1.10">
      <feGaussianBlur stdDeviation="3.20"/>
    </filter>
    <filter style="color-interpolation-filters:sRGB" id="filter2211" x="0.05" y="0.05" width="1.10" height="1.10">
      <feGaussianBlur stdDeviation="2.31"/>
    </filter>
  </defs>
  <rect style="filter:url(#filter850);opacity:0.20;fill:#000000" width="160" height="160" x="-180" y="-176" rx="80" ry="80" transform="matrix(0,-1,-1,0,0,0)"/>
  <rect transform="matrix(0,-1,-1,0,0,0)" ry="80" rx="80" y="-176" x="-176" height="160" width="160" style="fill:#247fff"/>
  <path style="opacity:0.20;fill:#ffffff" d="m 96,16 c -44.32,0 -80,35.68 -80,80 0,0.12 0.01,0.23 0.01,0.35 C 16.36,52.33 51.90,17 96,17 140.10,17 175.64,52.33 175.99,96.35 175.99,96.23 176,96.12 176,96 176,51.68 140.32,16 96,16 Z"/>
  <path style="filter:url(#filter2211);opacity:0.20;fill:#000000" d="m 96,35.00 a 18,18 0 0 0 -18,18 18,18 0 0 0 18,18 18,18 0 0 0 18,-18 18,18 0 0 0 -18,-18 z m 21.17,15.05 0.02,3.19 c 0.02,3.54 0.53,5.91 -1.92,8.90 l 0.91,1.96 2.22,1.12 c 11.97,6.04 21.76,16.07 27.41,28.09 1.24,2.64 1.79,4.02 3.26,8.20 0.08,0.21 0.30,0.39 0.50,0.39 0.62,0 0.16,-10.47 0.63,-14.29 -2.07,-10.00 -6.61,-18.69 -13.55,-25.95 -4.02,-4.21 -9.04,-7.94 -14.12,-10.49 z m -42.18,0.10 c 0.42,0.06 -1.46,0.59 -3.12,1.48 -4.79,2.57 -8.56,5.38 -12.50,9.33 -4.30,4.31 -7.15,8.23 -9.67,13.28 -3.81,7.67 -5.26,13.44 -5.54,22.15 L 44,101.66 l 1.40,0.82 c 2.58,-1.51 5.76,-2.41 9.22,-2.60 l 3.20,0.18 v -4.99 c 0,-7.51 1.16,-14.17 3.65,-20.86 2.29,-6.16 6.38,-13.09 10.60,-17.92 2.65,-3.04 3.64,-4.24 2.93,-4.14 z M 56,101.00 a 18,18 0 0 0 -18,18 18,18 0 0 0 18,18 18,18 0 0 0 18,-18 18,18 0 0 0 -18,-18 z m 80,0 a 18,18 0 0 0 -18,18 18,18 0 0 0 18,18 18,18 0 0 0 18,-18 18,18 0 0 0 -18,-18 z m -18.75,28.89 c 0.32,0.00 -1.52,0.64 -3.07,1.65 -13.70,8.89 -30.42,11.75 -46.47,7.96 -1.86,0.44 -3.44,0.73 -3.53,0.64 0.23,0.23 3.36,2.71 6.59,4.56 5.99,3.42 13.22,5.62 21.06,6.39 8.91,0.87 19.62,-1.32 28.03,-5.74 3.29,-1.73 7.84,-4.63 7.83,-4.99 0.00,0.09 0.81,0.54 -1.79,-1.01 -2.48,-1.19 -5.14,-3.41 -6.93,-5.78 0.84,-1.11 -1.57,-2.17 -1.64,-2.37 0.01,0.03 0.04,0.04 0.08,0.04 z"/>
  <path style="fill:#ffffff" d="m 96,33.00 a 18,18 0 0 0 -18,18 18,18 0 0 0 18,18 18,18 0 0 0 18,-18 18,18 0 0 0 -18,-18 z M 56,99.00 a 18,18 0 0 0 -18,18.00 18,18 0 0 0 18,18 18,18 0 0 0 18,-18 18,18 0 0 0 -18,-18.00 z m 80,0 a 18,18 0 0 0 -18,18.00 18,18 0 0 0 18,18 18,18 0 0 0 18,-18 18,18 0 0 0 -18,-18.00 z"/>
  <path style="fill:#92bfff" d="m 117.17,48.05 0.02,3.19 c 0.02,3.54 0.53,5.91 -1.92,8.90 l 0.91,1.96 2.22,1.12 c 11.97,6.04 21.76,16.07 27.41,28.09 1.24,2.64 1.79,4.02 3.26,8.20 0.08,0.21 0.30,0.39 0.50,0.39 0.62,0 0.16,-10.47 0.63,-14.29 -2.07,-10.00 -6.61,-18.69 -13.55,-25.95 -4.02,-4.21 -9.05,-7.94 -14.13,-10.49 z m -42.18,0.10 c 0.42,0.06 -1.46,0.59 -3.11,1.48 -4.79,2.57 -8.56,5.38 -12.50,9.33 -4.30,4.31 -7.15,8.23 -9.66,13.28 -3.81,7.67 -5.26,13.44 -5.54,22.15 L 44,99.66 45.40,98.83 c 2.58,-1.51 5.76,-2.41 9.22,-2.60 l 3.20,0.18 v -4.99 c 0,-7.51 1.17,-14.17 3.65,-20.86 2.29,-6.16 6.38,-13.09 10.60,-17.92 2.65,-3.04 3.64,-4.24 2.93,-4.14 z m 42.26,79.74 c 0.32,0.00 -1.52,0.64 -3.07,1.65 -13.70,8.89 -30.42,11.75 -46.47,7.96 -1.86,0.44 -3.45,0.73 -3.53,0.64 0.23,0.23 3.36,2.71 6.59,4.56 5.99,3.42 13.22,5.62 21.07,6.39 8.91,0.87 19.62,-1.32 28.03,-5.74 3.29,-1.73 7.84,-4.63 7.83,-4.99 0.00,0.09 0.81,0.54 -1.78,-1.01 -2.48,-1.19 -5.14,-3.41 -6.93,-5.78 0.84,-1.11 -1.57,-2.17 -1.64,-2.37 0.01,0.03 0.04,0.04 0.08,0.04 z"/>
</svg>
