<svg xmlns="http://www.w3.org/2000/svg" id="svg28" width="192" height="192" version="1"><defs><filter style="color-interpolation-filters:sRGB" id="filter6495" width="1.1" height="1.1" x=".05" y=".05"><feGaussianBlur stdDeviation="3.2"/></filter><filter style="color-interpolation-filters:sRGB" id="filter6619" width="1.25" height="1.19" x=".13" y=".09"><feGaussianBlur stdDeviation="3.8"/></filter></defs><rect width="160" height="160" x="-180" y="-176" rx="12" ry="12" transform="matrix(0,-1,-1,0,0,0)" style="filter:url(#filter6495);opacity:.2;fill:#000"/><rect width="160" height="160" x="-176" y="-176" rx="12" ry="12" transform="matrix(0,-1,-1,0,0,0)" style="fill:#e4e4e4"/><path style="filter:url(#filter6619);opacity:.2;fill:#000;color:#000" d="m 66.06,50.00 a 6,6 0 0 0 -4.26,1.71 6,6 0 0 0 0.09,8.49 l 15.76,16.09 8.49,-8.49 -15.67,-16 A 6,6 0 0 0 66.06,50.00 Z m 59.88,0 a 6,6 0 0 0 -4.22,1.80 L 91.71,82.43 A 6.00,6.00 0 0 0 90,86.63 V 123.00 H 76.90 c -3.55,0.00 -4.89,3.40 -3.12,5.14 l 8.68,8.17 9.55,9.38 c 0.93,0.91 2.37,1.35 3.99,1.31 1.62,0.04 3.07,0.40 3.99,-1.31 l 9.55,-9.38 8.68,-8.17 c 1.77,-1.74 0.43,-5.14 -3.12,-5.14 H 102 V 89.08 L 130.29,60.20 a 6,6 0 0 0 0.09,-8.49 6,6 0 0 0 -4.26,-1.71 z"/><path style="opacity:.2;fill:#fff" d="m 28,16 c -6.65,0 -12,5.35 -12,12 v 1 c 0,-6.65 5.35,-12 12,-12 h 136 c 6.65,0 12,5.35 12,12 v -1 c 0,-6.65 -5.35,-12 -12,-12 z"/><path style="fill:#5091ff;color:#000" d="m 125.94,48 a 6,6 0 0 0 -4.22,1.80 L 91.71,80.43 A 6.00,6.00 0 0 0 90,84.63 v 42.35 a 6,6 0 0 0 6,6 6,6 0 0 0 6,-6 V 87.08 L 130.29,58.20 A 6,6 0 0 0 130.20,49.71 6,6 0 0 0 125.94,48 Z"/><path style="fill:#5091ff;color:#000" d="m 76.90,121 c -3.55,0.00 -4.89,3.40 -3.12,5.14 l 8.68,8.17 9.55,9.38 c 0.93,0.91 2.37,1.35 3.99,1.31 1.62,0.04 3.07,0.40 3.99,-1.31 l 9.55,-9.38 8.68,-8.17 C 119.99,124.40 118.65,121.00 115.10,121 H 96 Z"/><path style="fill:#5091ff;color:#000" d="M 66.06 48 A 6 6 0 0 0 61.80 49.71 A 6 6 0 0 0 61.71 58.20 L 77.47 74.29 L 85.96 65.80 L 70.29 49.80 A 6 6 0 0 0 66.06 48 z"/></svg>