<?xml version='1.0' encoding='utf-8'?>
<svg xmlns="http://www.w3.org/2000/svg" width="192" height="192" version="1" id="svg14">
  <rect transform="matrix(0,-1,-1,0,0,0)" ry="8" rx="8" y="-176" x="-180" height="160" width="160" style="filter:url(#filter848);opacity:0.20"/>
  <rect transform="matrix(0,-1,-1,0,0,0)" ry="8" rx="8" y="-176" x="-176" height="160" width="160" style="fill:#fe0328"/>
  <defs>
    <filter style="color-interpolation-filters:sRGB" id="filter848" x="0.05" width="1.10" y="0.05" height="1.10">
      <feGaussianBlur stdDeviation="3.20"/>
    </filter>
    <filter style="color-interpolation-filters:sRGB" id="filter7505" x="0.06" y="0.04" width="1.11" height="1.08">
      <feGaussianBlur stdDeviation="2.08"/>
    </filter>
  </defs>
  <path style="opacity:0.20;fill:#ffffff" d="m 24,16 c -4.43,0 -8,3.57 -8,8 v 1 c 0,-4.43 3.57,-8 8,-8 h 144 c 4.43,0 8,3.57 8,8 v -1 c 0,-4.43 -3.57,-8 -8,-8 z"/>
  <path style="filter:url(#filter7505);opacity:0.20;fill:#000000" d="m 90.33,38.01 c 0.42,0.08 0.41,0.79 0.11,2.64 0.31,1.94 0.07,3.95 0.69,5.76 0.64,1.53 -7.85,11.16 -16.26,21.41 -8.41,10.25 -16.14,19.93 -17.18,21.52 -6.25,9.56 -5.24,24.23 2.29,33.19 2.20,2.62 42.27,35.43 43.31,35.47 0.35,0.01 0.41,-1.32 0.13,-2.97 0.37,-2.19 0.11,-3.87 0.99,-6.27 0.82,-1.81 8.44,-11.67 16.93,-21.92 C 138.41,104.31 140,101.53 140,91.47 140,78.34 138.02,75.71 112.51,55.00 101.37,45.96 91.54,38.36 90.90,38.11 90.66,38.02 90.47,37.98 90.33,38.01 Z m 7.36,36.94 c 0.14,0.02 0.25,0.05 0.25,0.05 H 117 v 6.30 c 0,2.12 0.05,4.70 -4.50,4.70 h -6.89 c 0,0 -1.96,0.28 -2.68,-2.03 0.38,-3.08 -1.40,-5.29 -2.84,-6.93 0.73,0.83 -1.54,-1.51 -2.40,-2.09 z m -17.43,0.05 h 11.26 c 4.76,0 9.43,3.89 9.48,11 v 36.93 c 0.08,2.21 0.48,3.85 2.04,4.74 0,0 -1.46,1.32 -2.88,1.32 -10.44,0 -10.22,-6.79 -10.16,-8.42 V 86.00 H 75 v -5.44 c 0,-1.73 1.85,-5.56 5.26,-5.56 z"/>
  <path style="fill:#ffffff" d="M 90.33 36.01 C 89.91 36.09 89.92 36.80 90.22 38.65 C 90.53 40.59 90.29 42.61 89.53 44.41 C 88.89 45.94 81.69 55.58 73.28 65.83 C 64.87 76.07 57.14 85.76 56.10 87.35 C 49.84 96.91 50.86 111.58 58.39 120.53 C 60.59 123.15 100.66 155.96 101.70 156 C 102.05 156.01 102.11 154.68 101.83 153.03 C 101.46 150.84 101.73 149.16 102.82 146.76 C 103.65 144.95 111.27 135.09 119.75 124.84 C 138.41 102.31 140 99.53 140 89.47 C 140 76.34 138.02 73.71 112.51 53.00 C 101.37 43.96 91.54 36.36 90.90 36.11 C 90.66 36.02 90.47 35.98 90.33 36.01 z M 97.69 72.95 C 97.83 72.98 97.94 73 97.94 73 L 117 73 L 117 79.30 C 117 81.42 116.95 84 112.50 84 L 105.60 84 C 105.60 84 103.64 83.72 102.92 81.97 C 102.55 78.89 101.52 76.68 100.09 75.04 C 99.36 74.21 98.54 73.53 97.69 72.95 z M 80.26 73 L 91.52 73 C 96.28 73 100.95 76.89 101 84 L 101 120.93 C 101.08 123.14 101.48 124.78 103.04 125.67 C 103.04 125.67 101.58 126.99 100.16 126.99 C 89.72 126.99 89.95 120.20 90 118.56 L 90 84 L 75 84 L 75 78.56 C 75 76.83 76.85 73 80.26 73 z "/>
</svg>
