<?xml version='1.0' encoding='utf-8'?>
<svg xmlns="http://www.w3.org/2000/svg" width="192" height="192" version="1" id="svg26">
  <rect transform="matrix(0,-1,-1,0,0,0)" ry="30" rx="30" y="-176" x="-180" height="160" width="160" style="filter:url(#filter1687);opacity:0.20;fill:#000000"/>
  <rect transform="matrix(0,-1,-1,0,0,0)" ry="30" rx="30" y="-176" x="-176" height="160" width="160" style="fill:#f02b35"/>
  <path style="filter:url(#filter1770);opacity:0.20;fill:#000000" d="M 90.93,47.00 C 73.14,53.07 55.75,91.28 59.52,116.00 c 3.21,21.03 17.86,34.21 36.48,34.00 18.62,0.21 33.27,-12.97 36.48,-34.00 3.77,-24.72 -13.62,-62.92 -31.41,-69.00 -3.62,-1.59 -7.06,-1.05 -10.15,0 z"/>
  <path style="fill:#ffffff" d="m 90.93,45.00 c -17.79,6.07 -35.18,44.27 -31.41,69.00 3.21,21.03 17.86,34.21 36.48,34.00 18.62,0.21 33.27,-12.97 36.48,-34.00 3.77,-24.72 -13.62,-62.92 -31.41,-69.00 -3.62,-1.59 -7.06,-1.05 -10.15,0 z"/>
  <defs>
    <filter style="color-interpolation-filters:sRGB" id="filter1687" x="0.05" y="0.05" width="1.10" height="1.10">
      <feGaussianBlur stdDeviation="3.20"/>
    </filter>
    <filter style="color-interpolation-filters:sRGB" id="filter1770" x="0.06" y="0.04" width="1.12" height="1.08">
      <feGaussianBlur stdDeviation="1.78"/>
    </filter>
  </defs>
  <path style="opacity:0.20;fill:#ffffff" d="M 46 16 C 29.38 16 16 29.38 16 46 L 16 47 C 16 30.38 29.38 17 46 17 L 146 17 C 162.62 17 176 30.38 176 47 L 176 46 C 176 29.38 162.62 16 146 16 L 46 16 z "/>
</svg>
