<?xml version='1.0' encoding='utf-8'?>
<svg xmlns="http://www.w3.org/2000/svg" width="192" height="192" version="1" id="svg12">
  <defs>
    <filter style="color-interpolation-filters:sRGB" id="filter955" x="0.05" width="1.10" y="0.05" height="1.10">
      <feGaussianBlur stdDeviation="3.20"/>
    </filter>
    <filter style="color-interpolation-filters:sRGB" id="filter7095" x="0.10" y="0.11" width="1.21" height="1.23">
      <feGaussianBlur stdDeviation="4.58"/>
    </filter>
    <filter style="color-interpolation-filters:sRGB" id="filter7137" x="0.11" y="0.11" width="1.22" height="1.22">
      <feGaussianBlur stdDeviation="2.25"/>
    </filter>
    <filter style="color-interpolation-filters:sRGB" id="filter7179" x="0.10" y="0.12" width="1.20" height="1.23">
      <feGaussianBlur stdDeviation="3.07"/>
    </filter>
  </defs>
  <rect style="filter:url(#filter955);opacity:0.20;fill:#000000" width="160" height="160" x="16" y="20" rx="30" ry="30"/>
  <rect style="fill:#ff6c2a" width="160" height="160" x="16" y="16" rx="30" ry="30"/>
  <path style="filter:url(#filter7179);opacity:0.20;fill:#000000" d="M 40.26,58.81 101.49,120.04 v 0 l 11.29,-13.68 v 0 L 66.68,60.70 c 0,0 -4.08,-4.77 -11.63,-4.69 -3.70,0.04 -8.52,0.79 -14.80,2.81 z"/>
  <path style="fill:#ffffff" d="m 40.26,56.81 61.23,61.23 v 0 l 11.29,-13.68 v 0 L 66.68,58.70 c 0,0 -4.08,-4.77 -11.63,-4.69 -3.70,0.04 -8.52,0.79 -14.80,2.81 z"/>
  <path style="opacity:0.20;fill:#ffffff" d="M 46 16 C 29.38 16 16 29.38 16 46 L 16 47 C 16 30.38 29.38 17 46 17 L 146 17 C 162.62 17 176 30.38 176 47 L 176 46 C 176 29.38 162.62 16 146 16 L 46 16 z "/>
  <path style="filter:url(#filter7137);opacity:0.20;fill:#000000" d="m 122,103 a 25,25 0 0 0 -25,25 25,25 0 0 0 25,25 25,25 0 0 0 25,-25 25,25 0 0 0 -25,-25 z m 5.50,8 a 5.50,5.50 0 0 1 5.50,5.50 5.50,5.50 0 0 1 -5.50,5.50 5.50,5.50 0 0 1 -5.50,-5.50 5.50,5.50 0 0 1 5.50,-5.50 z m -14,2 a 5.50,5.50 0 0 1 5.50,5.50 5.50,5.50 0 0 1 -5.50,5.50 5.50,5.50 0 0 1 -5.50,-5.50 5.50,5.50 0 0 1 5.50,-5.50 z m 21,11 a 5.50,5.50 0 0 1 5.50,5.50 5.50,5.50 0 0 1 -5.50,5.50 5.50,5.50 0 0 1 -5.50,-5.50 5.50,5.50 0 0 1 5.50,-5.50 z m -12.50,1 a 3,3 0 0 1 3,3 3,3 0 0 1 -3,3 3,3 0 0 1 -3,-3 3,3 0 0 1 3,-3 z m -11.50,2 a 5.50,5.50 0 0 1 5.50,5.50 5.50,5.50 0 0 1 -5.50,5.50 5.50,5.50 0 0 1 -5.50,-5.50 5.50,5.50 0 0 1 5.50,-5.50 z m 13,7 a 5.50,5.50 0 0 1 5.50,5.50 5.50,5.50 0 0 1 -5.50,5.50 5.50,5.50 0 0 1 -5.50,-5.50 5.50,5.50 0 0 1 5.50,-5.50 z"/>
  <path style="fill:#ffffff" d="M 122 101 A 25 25 0 0 0 97 126 A 25 25 0 0 0 122 151 A 25 25 0 0 0 147 126 A 25 25 0 0 0 122 101 z M 127.50 109 A 5.50 5.50 0 0 1 133 114.50 A 5.50 5.50 0 0 1 127.50 120 A 5.50 5.50 0 0 1 122 114.50 A 5.50 5.50 0 0 1 127.50 109 z M 113.50 111 A 5.50 5.50 0 0 1 119 116.50 A 5.50 5.50 0 0 1 113.50 122 A 5.50 5.50 0 0 1 108 116.50 A 5.50 5.50 0 0 1 113.50 111 z M 134.50 122 A 5.50 5.50 0 0 1 140 127.50 A 5.50 5.50 0 0 1 134.50 133 A 5.50 5.50 0 0 1 129 127.50 A 5.50 5.50 0 0 1 134.50 122 z M 122 123 A 3 3 0 0 1 125 126 A 3 3 0 0 1 122 129 A 3 3 0 0 1 119 126 A 3 3 0 0 1 122 123 z M 110.50 125 A 5.50 5.50 0 0 1 116 130.50 A 5.50 5.50 0 0 1 110.50 136 A 5.50 5.50 0 0 1 105 130.50 A 5.50 5.50 0 0 1 110.50 125 z M 123.50 132 A 5.50 5.50 0 0 1 129 137.50 A 5.50 5.50 0 0 1 123.50 143 A 5.50 5.50 0 0 1 118 137.50 A 5.50 5.50 0 0 1 123.50 132 z "/>
  <path style="filter:url(#filter7095);opacity:0.20;fill:#000000" d="m 122,42.00 c -13.81,0 -25,11.19 -25,25 0.00,3.53 0.76,7.02 2.21,10.24 L 40.26,136.19 c 5.95,1.91 10.59,2.79 14.21,2.79 7.72,0 12.21,-4.68 12.21,-4.68 L 111.66,89.76 c 3.25,1.48 6.78,2.24 10.34,2.24 13.81,0 25,-11.19 25,-25 0,-13.81 -11.19,-25 -25,-25 z m 0,14 c 6.08,0 11,4.92 11,11 0,6.08 -4.92,11 -11,11 -6.08,0 -11,-4.92 -11,-11 0,-6.08 4.92,-11 11,-11 z"/>
  <path style="fill:#ffffff" d="m 122,40 c -13.81,0 -25,11.19 -25,25 0.00,3.53 0.76,7.02 2.21,10.24 L 40.26,134.19 c 5.95,1.91 10.59,2.79 14.21,2.79 7.72,0 12.21,-4.68 12.21,-4.68 L 111.66,87.76 C 114.90,89.23 118.43,90.00 122,90 135.81,90 147,78.81 147,65 147,51.19 135.81,40 122,40 Z m 0,14 c 6.08,0 11,4.92 11,11 0,6.08 -4.92,11 -11,11 -6.08,0 -11,-4.92 -11,-11 0,-6.08 4.92,-11 11,-11 z"/>
</svg>
