<svg xmlns="http://www.w3.org/2000/svg" id="svg14" width="192" height="192" version="1"><defs><filter style="color-interpolation-filters:sRGB" id="filter850" width="1.1" height="1.1" x=".05" y=".05"><feGaussianBlur stdDeviation="3.2"/></filter><filter style="color-interpolation-filters:sRGB" id="filter894" width="1.07" height="1.13" x=".04" y=".07"><feGaussianBlur stdDeviation="1.56"/></filter></defs><rect width="160" height="160" x="-180" y="-176" rx="8" ry="8" transform="matrix(0,-1,-1,0,0,0)" style="filter:url(#filter850);opacity:.2;fill:#000"/><rect style="fill:#ff9700" width="160" height="160" x="-176" y="-176" rx="8" ry="8" transform="matrix(0,-1,-1,0,0,0)"/><path style="opacity:.2;fill:#fff" d="m 24,16 c -4.43,0 -8,3.57 -8,8 v 1 c 0,-4.43 3.57,-8 8,-8 h 144 c 4.43,0 8,3.57 8,8 v -1 c 0,-4.43 -3.57,-8 -8,-8 z"/><path style="filter:url(#filter894);opacity:.2;fill:#000;color:#000;font-stretch:normal;font-variant-ligatures:normal;font-variant-position:normal;font-variant-caps:normal;font-variant-numeric:normal;font-variant-alternates:normal;font-feature-settings:normal;text-indent:0;text-align:start;text-decoration-line:none;text-decoration-style:solid;text-decoration-color:#000;text-transform:none;writing-mode:lr-tb;direction:ltr;text-orientation:mixed;dominant-baseline:auto;baseline-shift:baseline;white-space:normal;shape-padding:0;clip-rule:nonzero;display:inline;overflow:visible;visibility:visible;isolation:auto;mix-blend-mode:normal;color-interpolation:sRGB;color-interpolation-filters:linearRGB;solid-color:#000;solid-opacity:1;vector-effect:none;fill-rule:nonzero;color-rendering:auto;image-rendering:auto;shape-rendering:auto;text-rendering:auto;enable-background:accumulate" d="m 47.96,69.95 a 4.00,4.00 0 0 0 -3.63,5.59 l 20,48.00 a 4.00,4.00 0 0 0 7.38,0 l 20,-48.00 A 4.00,4.00 0 1 0 84.33,72.46 L 68.02,111.60 51.71,72.46 a 4.00,4.00 0 0 0 -3.75,-2.51 z m 78.06,0.05 c -5,0 -11.48,0.21 -17.06,3.73 -5.58,3.94 -8.94,11.60 -8.94,24.27 0,12.67 3.37,20.33 8.94,24.27 5.58,3.94 12.06,3.73 17.06,3.73 12.13,0 17.58,-10.21 17.58,-10.21 a 4.00,4.00 0 1 0 -7.15,-3.58 c 0,0 -2.56,5.79 -10.42,5.79 -5,0 -9.52,0.21 -12.44,-2.27 -2.92,-2.06 -5.56,-6.40 -5.56,-17.73 0,-11.33 2.63,-15.67 5.56,-17.73 2.92,-2.06 7.44,-2.27 12.44,-2.27 7.87,0 10.42,5.79 10.42,5.79 a 4.00,4.00 0 1 0 7.15,-3.58 c 0,0 -5.44,-10.21 -17.58,-10.21 z"/><g><path d="m 12,20 5,12 5,-12" transform="matrix(4,0,0,4,0.02,-8.00)" style="fill:none;stroke:#fff;stroke-width:2;stroke-linecap:round;stroke-linejoin:round"/><path d="m 35,30 c 0,0 -1,2 -3.50,2 -2.50,0 -5.50,0 -5.50,-6 0,-6 3,-6 5.50,-6 2.50,0 3.50,2 3.50,2" transform="matrix(4,0,0,4,0.02,-8.00)" style="fill:none;stroke:#fff;stroke-width:2;stroke-linecap:round;stroke-linejoin:round"/></g></svg>