<svg xmlns="http://www.w3.org/2000/svg" id="svg22" width="192" height="192" version="1"><defs><filter style="color-interpolation-filters:sRGB" id="filter873" width="1.1" height="1.1" x=".05" y=".05"><feGaussianBlur stdDeviation="3.04"/></filter><filter style="color-interpolation-filters:sRGB" id="filter893" width="1.1" height="1.1" x=".05" y=".05"><feGaussianBlur stdDeviation="1.86"/></filter><filter style="color-interpolation-filters:sRGB" id="filter913" width="1.1" height="1.1" x=".05" y=".05"><feGaussianBlur stdDeviation="1.86"/></filter><filter style="color-interpolation-filters:sRGB" id="filter929" width="1.12" height="1.08" x=".06" y=".04"><feGaussianBlur stdDeviation="1.36"/></filter></defs><circle style="filter:url(#filter913);opacity:.1" cx="62.4" cy="66.4" r="46.4"/><circle style="filter:url(#filter893);opacity:.1" cx="129.6" cy="133.6" r="46.4"/><circle style="fill:#1587d7" cx="62.4" cy="62.4" r="46.4"/><path style="opacity:.1;fill:#fff" d="M 62.40 16 A 46.40 46.40 0 0 0 16 62.40 A 46.40 46.40 0 0 0 16.02 62.89 A 46.40 46.40 0 0 1 62.40 17 A 46.40 46.40 0 0 1 108.77 62.91 A 46.40 46.40 0 0 0 108.80 62.40 A 46.40 46.40 0 0 0 62.40 16 z"/><circle style="fill:#1587d7" cx="129.6" cy="129.6" r="46.4"/><circle style="filter:url(#filter873);opacity:.2" cx="96" cy="100" r="76"/><circle style="fill:#28a8ea" cx="96" cy="96" r="76"/><path style="filter:url(#filter929);opacity:.2;fill-rule:evenodd" d="M 77.26,96.64 A 21.96,21.58 0 0 1 70.37,89.49 20.09,19.74 0 0 1 68.01,79.63 18.05,17.74 0 0 1 72.26,67.68 25.60,25.15 0 0 1 83.35,60.40 42.82,42.06 0 0 1 97.86,58.00 56.37,55.38 0 0 1 107.52,58.73 34.87,34.26 0 0 1 114.22,60.43 12.98,12.76 0 0 1 119.46,63.72 6.78,6.66 0 0 1 121.08,68.14 6.52,6.41 0 0 1 119.38,72.75 5.66,5.57 0 0 1 115.10,74.50 7.71,7.57 0 0 1 111.91,73.80 57.62,56.61 0 0 0 104.34,71.08 27.49,27.01 0 0 0 97.04,70.19 16.66,16.37 0 0 0 87.90,72.48 7.60,7.47 0 0 0 84.25,79.19 6.87,6.75 0 0 0 86.15,83.91 17.27,16.96 0 0 0 91.25,87.50 Q 94.46,89.06 100.83,91.65 A 9.92,9.75 0 0 1 102.20,92.19 68.02,66.83 0 0 1 114.05,98.18 23.90,23.48 0 0 1 121.35,105.54 19.75,19.41 0 0 1 123.99,115.75 20.92,20.55 0 0 1 120.34,128.08 21.69,21.31 0 0 1 110.13,135.52 43.03,42.27 0 0 1 94.79,137.97 48.33,47.48 0 0 1 73.88,134.09 11.38,11.18 0 0 1 69.57,130.80 7.53,7.39 0 0 1 68.17,126.32 5.95,5.85 0 0 1 70.01,121.77 6.78,6.66 0 0 1 74.76,120.12 12.13,11.92 0 0 1 80.30,121.52 Q 83.48,123.09 85.32,123.87 A 25.24,24.80 0 0 0 89.66,125.22 24.79,24.36 0 0 0 95.23,125.78 14.87,14.61 0 0 0 104.59,123.33 8.24,8.10 0 0 0 107.74,116.62 7.26,7.13 0 0 0 105.77,111.71 21.00,20.63 0 0 0 99.95,107.56 Q 96.11,105.56 89.14,102.70 A 66.98,65.81 0 0 1 77.26,96.64"/><path style="fill:#fff;fill-rule:evenodd" d="M 77.26,94.64 A 21.96,21.58 0 0 1 70.37,87.49 20.09,19.74 0 0 1 68.01,77.63 18.05,17.74 0 0 1 72.26,65.68 25.60,25.15 0 0 1 83.35,58.40 42.82,42.06 0 0 1 97.86,56.00 56.37,55.38 0 0 1 107.52,56.73 34.87,34.26 0 0 1 114.22,58.43 12.98,12.76 0 0 1 119.46,61.72 6.78,6.66 0 0 1 121.08,66.14 6.52,6.41 0 0 1 119.38,70.75 5.66,5.57 0 0 1 115.10,72.50 7.71,7.57 0 0 1 111.91,71.80 57.62,56.61 0 0 0 104.34,69.08 27.49,27.01 0 0 0 97.04,68.19 16.66,16.37 0 0 0 87.90,70.48 7.60,7.47 0 0 0 84.25,77.19 6.87,6.75 0 0 0 86.15,81.91 17.27,16.96 0 0 0 91.25,85.50 Q 94.46,87.06 100.83,89.65 A 9.92,9.75 0 0 1 102.20,90.19 68.02,66.83 0 0 1 114.05,96.18 23.90,23.48 0 0 1 121.35,103.54 19.75,19.41 0 0 1 123.99,113.75 20.92,20.55 0 0 1 120.34,126.08 21.69,21.31 0 0 1 110.13,133.52 43.03,42.27 0 0 1 94.79,135.97 48.33,47.48 0 0 1 73.88,132.09 11.38,11.18 0 0 1 69.57,128.80 7.53,7.39 0 0 1 68.17,124.32 5.95,5.85 0 0 1 70.01,119.77 6.78,6.66 0 0 1 74.76,118.12 12.13,11.92 0 0 1 80.30,119.52 Q 83.48,121.09 85.32,121.87 A 25.24,24.80 0 0 0 89.66,123.22 24.79,24.36 0 0 0 95.23,123.78 14.87,14.61 0 0 0 104.59,121.33 8.24,8.10 0 0 0 107.74,114.62 7.26,7.13 0 0 0 105.77,109.71 21.00,20.63 0 0 0 99.95,105.56 Q 96.11,103.56 89.14,100.70 A 66.98,65.81 0 0 1 77.26,94.64"/><path style="opacity:.2;fill:#fff" d="M 96 20 A 76 76 0 0 0 20 96 A 76 76 0 0 0 20.02 96.49 A 76 76 0 0 1 96 21 A 76 76 0 0 1 171.97 96.49 A 76 76 0 0 0 172 96 A 76 76 0 0 0 96 20 z"/></svg>