<?xml version='1.0' encoding='utf-8'?>
<svg xmlns="http://www.w3.org/2000/svg" width="192" height="192" version="1.1" id="svg28">
  <defs>
    <filter style="color-interpolation-filters:sRGB" id="filter871" x="-0.048000001" width="1.096" y="-0.048000001" height="1.096">
      <feGaussianBlur stdDeviation="3.2"/>
    </filter>
    <filter style="color-interpolation-filters:sRGB" id="filter887" x="-0.047999999" width="1.096" y="-0.047999999" height="1.096">
      <feGaussianBlur stdDeviation="2.56"/>
    </filter>
    <filter style="color-interpolation-filters:sRGB" id="filter903" x="-0.047999999" width="1.096" y="-0.048" height="1.096">
      <feGaussianBlur stdDeviation="0.64"/>
    </filter>
    <filter style="color-interpolation-filters:sRGB" id="filter931" x="-0.042452388" width="1.0849048" y="-0.055215473" height="1.1104309">
      <feGaussianBlur stdDeviation="0.92336022"/>
    </filter>
    <filter style="color-interpolation-filters:sRGB" id="filter947" x="-0.048000064" width="1.0960001" y="-0.047999938" height="1.0959999">
      <feGaussianBlur stdDeviation="1.6033839"/>
    </filter>
  </defs>
  <path d="m 96,20 c -44.141228,0 -80,35.85876 -80,80 0,44.14124 35.858772,80.00001 80,80 44.14123,0 80.00004,-35.85876 80,-80 0,-44.14124 -35.85877,-80 -80,-80 z" style="filter:url(#filter871);opacity:0.2"/>
  <path d="M 96,16.000002 C 51.858772,16.000002 16,51.85876 16,96 c 0,44.14124 35.858772,80.00001 80,80 44.14123,0 80.00004,-35.85876 80,-80 0,-44.14124 -35.85877,-79.999998 -80,-79.999998 z" style="fill:#4f4f4f"/>
  <path style="opacity:0.1;fill:#ffffff" d="M 96 16 C 51.858772 16 16 51.85876 16 96 C 16 96.117346 16.005349 96.233006 16.007812 96.349609 C 16.358771 52.507744 52.076264 17 96 17 C 139.92374 17 175.64123 52.507744 175.99219 96.349609 C 175.99465 96.233006 176 96.117349 176 96 C 176 51.85876 140.14123 16 96 16 z "/>
  <path d="M 96.000004,35.999999 C 60.687008,35.999999 32,64.687004 32,99.999996 32,135.31299 60.687008,164.00001 96.000004,164 131.31299,164 160.00002,135.31299 160,99.999996 160,64.687004 131.31299,35.999999 96.000004,35.999999 Z" style="filter:url(#filter887);opacity:0.2"/>
  <path d="M 96.000004,32 C 60.687008,32 32,60.687004 32,95.999996 32,131.31299 60.687008,160.00001 96.000004,160 131.31299,160 160.00002,131.31299 160,95.999996 160,60.687004 131.31299,32 96.000004,32 Z" style="fill:#a56bf9"/>
  <path style="opacity:0.1;fill:#ffffff" d="M 96 32 C 60.687004 32 32 60.687008 32 96 C 32 96.118628 32.01068 96.234272 32.015625 96.351562 C 32.365873 61.337916 60.904428 33 96 33 C 131.09557 33 159.63413 61.337916 159.98438 96.351562 C 159.98932 96.234272 160 96.118626 160 96 C 160 60.687008 131.31299 32 96 32 z "/>
  <path d="m 96,82.000001 c -8.828248,0 -16,7.171752 -16,16 C 80,106.82824 87.171752,114 96,114 c 8.82824,0 16,-7.17176 16,-15.999999 0,-8.828248 -7.17176,-16 -16,-16 z" style="filter:url(#filter903);opacity:0.1"/>
  <path style="filter:url(#filter947);opacity:0.2;fill:#000000;color:#000000;font-stretch:normal;font-variant-ligatures:normal;font-variant-position:normal;font-variant-caps:normal;font-variant-numeric:normal;font-variant-alternates:normal;font-feature-settings:normal;text-indent:0;text-align:start;text-decoration-line:none;text-decoration-style:solid;text-decoration-color:#000000;text-transform:none;writing-mode:lr-tb;direction:ltr;text-orientation:mixed;dominant-baseline:auto;baseline-shift:baseline;white-space:normal;shape-padding:0;clip-rule:nonzero;display:inline;overflow:visible;visibility:visible;isolation:auto;mix-blend-mode:normal;color-interpolation:sRGB;color-interpolation-filters:linearRGB;solid-color:#000000;solid-opacity:1;vector-effect:none;fill-rule:nonzero;color-rendering:auto;image-rendering:auto;shape-rendering:auto;text-rendering:auto;enable-background:accumulate" d="m 159.8418,27.921875 a 8.0008,8.0008 0 0 0 -5.49805,2.419922 l -64,64 a 8.0008,8.0008 0 1 0 11.3125,11.314453 l 64,-64 A 8.0008,8.0008 0 0 0 159.8418,27.921875 Z"/>
  <path d="M 96,96 160,32" style="fill:none;stroke:#e4e4e4;stroke-width:16;stroke-linecap:round;stroke-linejoin:round"/>
  <path style="filter:url(#filter931);opacity:0.2;fill:#000000;color:#000000;font-stretch:normal;font-variant-ligatures:normal;font-variant-position:normal;font-variant-caps:normal;font-variant-numeric:normal;font-variant-alternates:normal;font-feature-settings:normal;text-indent:0;text-align:start;text-decoration-line:none;text-decoration-style:solid;text-decoration-color:#000000;text-transform:none;writing-mode:lr-tb;direction:ltr;text-orientation:mixed;dominant-baseline:auto;baseline-shift:baseline;white-space:normal;shape-padding:0;clip-rule:nonzero;display:inline;overflow:visible;visibility:visible;isolation:auto;mix-blend-mode:normal;color-interpolation:sRGB;color-interpolation-filters:linearRGB;solid-color:#000000;solid-opacity:1;vector-effect:none;fill-rule:nonzero;color-rendering:auto;image-rendering:auto;shape-rendering:auto;text-rendering:auto;enable-background:accumulate" d="M 59.923828,67.935547 A 8.0008,8.0008 0 0 0 55.5625,82.65625 l 36,24 a 8.0008,8.0008 0 1 0 8.875,-13.3125 l -36,-24 a 8.0008,8.0008 0 0 0 -4.513672,-1.408203 z"/>
  <path d="M 60,72 96,96" style="fill:none;stroke:#e4e4e4;stroke-width:16;stroke-linecap:round;stroke-linejoin:round"/>
  <path d="m 96,80 c -8.828248,0 -16,7.171752 -16,16 0,8.82824 7.171752,16 16,16 8.82824,0 16,-7.17176 16,-16 0,-8.828248 -7.17176,-16 -16,-16 z" style="fill:#4f4f4f"/>
</svg>
