<?xml version='1.0' encoding='utf-8'?>
<svg xmlns="http://www.w3.org/2000/svg" width="192" height="192" version="1" id="svg16">
  <defs>
    <filter style="color-interpolation-filters:sRGB" id="filter882" x="0.05" width="1.10" y="0.05" height="1.10">
      <feGaussianBlur stdDeviation="3.20"/>
    </filter>
    <filter style="color-interpolation-filters:sRGB" id="filter866" x="0.05" width="1.10" y="0.05" height="1.09">
      <feGaussianBlur stdDeviation="2.65"/>
    </filter>
    <filter style="color-interpolation-filters:sRGB" id="filter884" x="0.05" width="1.10" y="0.05" height="1.10">
      <feGaussianBlur stdDeviation="0.56"/>
    </filter>
  </defs>
  <rect style="filter:url(#filter882);opacity:0.20;fill:#000000" width="160" height="160" x="-180" y="-176" rx="8" ry="8" transform="matrix(0,-1,-1,0,0,0)"/>
  <rect transform="matrix(0,-1,-1,0,0,0)" ry="8" rx="8" y="-176" x="-176" height="160" width="160" style="fill:#58a0f8"/>
  <path style="opacity:0.08;fill:#000000" d="M 28 16 L 28 28 L 16 28 L 16 36 L 28 36 L 28 60 L 16 60 L 16 68 L 28 68 L 28 92 L 16 92 L 16 100 L 28 100 L 28 124 L 16 124 L 16 132 L 28 132 L 28 156 L 16 156 L 16 164 L 28 164 L 28 176 L 36 176 L 36 164 L 60 164 L 60 176 L 68 176 L 68 164 L 92 164 L 92 176 L 100 176 L 100 164 L 124 164 L 124 176 L 132 176 L 132 164 L 156 164 L 156 176 L 164 176 L 164 164 L 176 164 L 176 156 L 164 156 L 164 132 L 176 132 L 176 124 L 164 124 L 164 100 L 176 100 L 176 92 L 164 92 L 164 68 L 176 68 L 176 60 L 164 60 L 164 36 L 176 36 L 176 28 L 164 28 L 164 16 L 156 16 L 156 28 L 132 28 L 132 16 L 124 16 L 124 28 L 100 28 L 100 16 L 92 16 L 92 28 L 68 28 L 68 16 L 60 16 L 60 28 L 36 28 L 36 16 L 28 16 z M 36 36 L 60 36 L 60 60 L 36 60 L 36 36 z M 68 36 L 92 36 L 92 60 L 68 60 L 68 36 z M 100 36 L 124 36 L 124 60 L 100 60 L 100 36 z M 132 36 L 156 36 L 156 60 L 132 60 L 132 36 z M 36 68 L 60 68 L 60 92 L 36 92 L 36 68 z M 68 68 L 92 68 L 92 92 L 68 92 L 68 68 z M 100 68 L 124 68 L 124 92 L 100 92 L 100 68 z M 132 68 L 156 68 L 156 92 L 132 92 L 132 68 z M 36 100 L 60 100 L 60 124 L 36 124 L 36 100 z M 68 100 L 92 100 L 92 124 L 68 124 L 68 100 z M 100 100 L 124 100 L 124 124 L 100 124 L 100 100 z M 132 100 L 156 100 L 156 124 L 132 124 L 132 100 z M 36 132 L 60 132 L 60 156 L 36 156 L 36 132 z M 68 132 L 92 132 L 92 156 L 68 156 L 68 132 z M 100 132 L 124 132 L 124 156 L 100 156 L 100 132 z M 132 132 L 156 132 L 156 156 L 132 156 L 132 132 z "/>
  <path style="opacity:0.20;fill:#ffffff" d="M 24 16 C 19.57 16 16 19.57 16 24 L 16 25 C 16 20.57 19.57 17 24 17 L 168 17 C 172.43 17 176 20.57 176 25 L 176 24 C 176 19.57 172.43 16 168 16 L 24 16 z "/>
  <path style="filter:url(#filter866);opacity:0.20;fill:#000000;color:#000000;font-stretch:normal;font-variant-ligatures:normal;font-variant-position:normal;font-variant-caps:normal;font-variant-numeric:normal;font-variant-alternates:normal;font-feature-settings:normal;text-indent:0;text-align:start;text-decoration-line:none;text-decoration-style:solid;text-decoration-color:#000000;text-transform:none;writing-mode:lr-tb;direction:ltr;text-orientation:mixed;dominant-baseline:auto;baseline-shift:baseline;white-space:normal;shape-padding:0;clip-rule:nonzero;display:inline;overflow:visible;visibility:visible;isolation:auto;mix-blend-mode:normal;color-interpolation:sRGB;color-interpolation-filters:linearRGB;solid-color:#000000;solid-opacity:1;vector-effect:none;fill-rule:nonzero;color-rendering:auto;image-rendering:auto;shape-rendering:auto;text-rendering:auto;enable-background:accumulate" d="M 77.47,30.13 C 68.04,30.00 57.73,33.38 47.13,40.44 l 0.20,0.13 0.19,0.14 C 34.10,50.16 28.80,65.04 31.60,78.99 34.39,92.95 44.16,105.88 58.92,115.60 a 9.00,9.00 0 1 0 9.90,-15.04 C 57.19,92.91 50.84,83.41 49.25,75.46 47.66,67.56 49.67,61.10 57.37,55.28 68.53,47.90 75.85,47.12 81.75,48.77 c 5.95,1.66 11.69,6.63 17.10,14.35 10.81,15.43 18.26,39.56 27.12,54.91 a 9.00,9.00 0 0 0 6.64,4.50 c 5.44,1.57 9.21,6.38 9.39,12.07 0.18,5.82 -3.44,10.97 -8.98,12.77 -5.54,1.80 -11.50,0.24 -14.77,-5.06 a 9.00,9.00 0 1 0 -14.89,10.12 c 7.73,11.37 22.14,16.31 35.22,12.06 13.08,-4.25 21.84,-16.71 21.40,-30.46 C 159.59,121.43 151.55,110.40 139.95,106.01 133.64,93.50 125.94,70.41 113.59,52.78 106.88,43.21 98.30,34.70 86.59,31.43 83.66,30.61 80.61,30.18 77.47,30.13 Z"/>
  <path style="fill:none;stroke:#e0edfd;stroke-width:18;stroke-linecap:round" d="M 63.87,106.08 C 37.47,88.70 31.65,61.22 52.13,45.92 103,12 118.28,84.69 133.76,111.52"/>
  <path style="fill:none;stroke:#e0edfd;stroke-width:18;stroke-linecap:round;stroke-linejoin:round" d="m 134.47,111.69 a 22,22 0 0 1 16.52,20.62 22,22 0 0 1 -15.19,21.61 22,22 0 0 1 -24.99,-8.56"/>
  <path style="fill:none;stroke:#97c3f8;stroke-width:18;stroke-linecap:round" d="m 74,72 36.80,73.37"/>
  <circle r="14" cy="148" cx="110" style="filter:url(#filter884);opacity:0.20;fill:#000000"/>
  <circle style="fill:#ffffff" cx="110" cy="146" r="14"/>
</svg>
