<?xml version='1.0' encoding='utf-8'?>
<svg xmlns="http://www.w3.org/2000/svg" width="192" height="192" version="1.1" id="svg12">
  <defs>
    <filter style="color-interpolation-filters:sRGB" id="filter856" x="0.05" width="1.10" y="0.05" height="1.10">
      <feGaussianBlur stdDeviation="3.20"/>
    </filter>
    <filter style="color-interpolation-filters:sRGB" id="filter884" x="0.05" width="1.10" y="0.05" height="1.10">
      <feGaussianBlur stdDeviation="2.24"/>
    </filter>
  </defs>
  <circle style="filter:url(#filter856);opacity:0.20" cx="96" cy="100" r="80"/>
  <circle style="fill:#e4e4e4" cx="96" cy="96" r="80"/>
  <path style="opacity:0.20;fill:#ffffff" d="M 96,16 A 80,80 0 0 0 16,96 80,80 0 0 0 16.02,96.52 80,80 0 0 1 96,17 80,80 0 0 1 175.97,96.51 80,80 0 0 0 176,96 80,80 0 0 0 96,16 Z"/>
  <path style="filter:url(#filter884);opacity:0.10" d="M 94.73,42.06 A 56,56 0 0 0 40,98 56,56 0 0 0 96,154 56,56 0 0 0 152,98 56,56 0 0 0 127.89,52.14 V 65.98 A 40,40 0 0 1 136,90 40,40 0 0 1 96,130 40,40 0 0 1 56,90 40,40 0 0 1 87.27,51.02 c 2.29,-2.73 5.12,-6.14 6.31,-7.59 0.40,0.49 0.77,0.90 1.16,-1.36 z M 109.12,50.08 c 0.30,0.13 -1.71,1.70 -3.16,3.47 -1.45,1.77 -4.60,5.56 -7.02,8.42 -2.41,2.87 -6.99,8.35 -10.17,12.19 -6.24,7.53 -7.24,9.05 -8.27,12.62 0.64,2.23 0.70,5.84 0.13,7.94 1.57,5.74 6.83,10.05 13.61,11.16 0.31,0.05 1.37,0.11 2.36,0.13 4.11,0.06 7.60,-1.33 10.56,-4.20 1.56,-1.52 1.99,-2.11 2.95,-4.05 0.62,-1.25 1.29,-2.91 1.50,-3.69 0.54,-1.99 0.80,-6.12 0.52,-15.55 V 51.05 c 0.15,0.74 -2.10,-1.26 -2.77,0.97 z"/>
  <path style="fill:#3f3f3f" d="M 94.73,40.06 A 56,56 0 0 0 40,96 56,56 0 0 0 96,152 56,56 0 0 0 152,96 56,56 0 0 0 127.89,50.14 V 63.98 A 40,40 0 0 1 136,88 40,40 0 0 1 96,128 40,40 0 0 1 56,88 40,40 0 0 1 87.27,49.02 c 2.29,-2.73 5.12,-6.14 6.31,-7.59 0.40,0.49 0.77,0.90 1.16,-1.36 z M 109.12,48.08 c 0.30,0.13 -1.71,1.70 -3.16,3.47 -1.45,1.77 -4.60,5.56 -7.02,8.42 -2.41,2.87 -6.99,8.35 -10.17,12.19 -6.24,7.53 -7.24,9.05 -8.27,12.62 0.64,2.23 0.70,5.84 0.13,7.94 1.57,5.74 6.83,10.05 13.61,11.16 0.31,0.05 1.37,0.11 2.36,0.13 4.11,0.06 7.60,-1.33 10.56,-4.20 1.56,-1.52 1.99,-2.11 2.95,-4.05 0.62,-1.25 1.29,-2.91 1.50,-3.69 0.54,-1.99 0.80,-6.12 0.52,-15.55 V 49.05 c 0.15,0.74 -2.10,-1.26 -2.77,0.97 z"/>
</svg>
