<?xml version='1.0' encoding='utf-8'?>
<svg xmlns="http://www.w3.org/2000/svg" width="192" height="192" version="1.1" id="svg12">
  <defs>
    <filter style="color-interpolation-filters:sRGB" id="filter845" x="0.05" y="0.05" width="1.09" height="1.10">
      <feGaussianBlur stdDeviation="2.92"/>
    </filter>
    <filter style="color-interpolation-filters:sRGB" id="filter849" x="0.07" y="0.07" width="1.15" height="1.15">
      <feGaussianBlur stdDeviation="1.75"/>
    </filter>
  </defs>
  <circle style="filter:url(#filter849);opacity:0.20" cx="96" cy="150" r="28"/>
  <circle style="fill:#fb8c00" cx="96" cy="148" r="28"/>
  <path style="filter:url(#filter845);opacity:0.20" d="m 96.00,19.00 c -6.61,0 -11.97,5.37 -11.97,12 0.00,0.02 0.01,0.04 0.01,0.05 C 60.43,36.50 44,57.59 44,83.00 v 40.20 c 0,0 0.45,9.53 -7.11,14.03 l -14.80,12.77 c -3.26,2.90 -2.62,9 1.37,9 h 19.33 53.21 53.21 19.33 c 3.99,0 4.63,-6.10 1.37,-9 l -14.80,-12.77 C 148.45,132.73 148,123.20 148,123.20 V 83.00 C 148,57.59 131.57,36.50 107.96,31.05 c 0.00,0.02 0.01,0.04 0.01,0.05 0,-6.63 -5.36,-12 -11.97,-12 z"/>
  <path style="fill:#ffc107" d="M 96.00,16 C 89.39,16 84.03,21.37 84.03,28 c 0.00,0.02 0.01,0.04 0.01,0.05 C 60.43,33.50 44,54.59 44,80 v 40.20 c 0,0 0.45,9.53 -7.11,14.03 L 22.08,147 c -3.26,2.90 -2.62,9 1.37,9 h 19.33 53.21 53.21 19.33 c 3.99,0 4.63,-6.10 1.37,-9 l -14.80,-12.77 C 148.45,129.73 148,120.20 148,120.20 V 80 c 0,-25.41 -16.43,-46.50 -40.04,-51.95 0.00,0.02 0.01,0.04 0.01,0.05 0,-6.63 -5.36,-12 -11.97,-12 z"/>
  <path style="opacity:0.20;fill:#ffffff" d="M 96 16 C 89.39 16 84.03 21.37 84.03 28 C 84.03 28.02 84.04 28.04 84.04 28.05 C 60.44 33.50 44 54.59 44 80 L 44 81 C 44 55.59 60.44 34.50 84.04 29.05 C 84.04 29.04 84.03 29.02 84.03 29 C 84.03 22.37 89.39 17 96 17 C 102.61 17 107.97 22.37 107.97 29 C 107.97 29.02 107.96 29.04 107.96 29.05 C 131.56 34.50 148 55.59 148 81 L 148 80 C 148 54.59 131.56 33.50 107.96 28.05 C 107.96 28.04 107.97 28.02 107.97 28 C 107.97 21.37 102.61 16 96 16 z M 44 120.20 C 44 120.20 43.54 129.73 36.88 134.23 L 22.09 147 C 20.56 148.36 19.91 150.41 20.04 152.21 C 20.17 150.69 20.84 149.11 22.09 148 L 36.88 135.23 C 43.54 130.73 44 121.20 44 121.20 L 44 120.20 z M 148 120.20 L 148 121.20 C 148 121.20 148.46 130.73 155.12 135.23 L 169.91 148 C 171.16 149.11 171.83 150.69 171.96 152.21 C 172.09 150.41 171.44 148.36 169.91 147 L 155.12 134.23 C 148.46 129.73 148 120.20 148 120.20 z "/>
</svg>
