<?xml version='1.0' encoding='utf-8'?>
<svg xmlns="http://www.w3.org/2000/svg" width="192" height="192" version="1.1" id="svg12">
  <defs>
    <filter style="color-interpolation-filters:sRGB" id="filter845" x="0.05" y="0.04" width="1.10" height="1.09">
      <feGaussianBlur stdDeviation="2.96"/>
    </filter>
    <filter style="color-interpolation-filters:sRGB" id="filter1412" x="0.05" y="0.04" width="1.11" height="1.09">
      <feGaussianBlur stdDeviation="1.46"/>
    </filter>
  </defs>
  <path style="filter:url(#filter845);opacity:0.20" d="M 96.08,18 C 58.22,18 28.00,30.14 28.00,30.14 l 2.63,81.83 c 0,0 0.08,40.29 65.37,66.04 65.53,-25.75 65.38,-66.04 65.38,-66.04 l 2.62,-81.83 C 164.16,30.14 133.94,18 96.08,18 Z"/>
  <path style="fill:#1c7fce" d="M 96.08,14 C 58.22,14 28.00,26.14 28.00,26.14 l 2.63,81.83 c 0,0 0.08,40.29 65.37,66.04 65.53,-25.75 65.38,-66.04 65.38,-66.04 l 2.62,-81.83 C 164.16,26.14 133.94,14 96.08,14 Z"/>
  <path style="opacity:0.20;fill:#ffffff" d="M 96.08 14 C 58.22 14 28 26.13 28 26.13 L 28.03 27.12 C 28.20 27.05 58.33 15 96.08 15 C 133.82 15 163.95 27.05 163.97 27.12 L 164 26.13 C 164.16 26.13 133.94 14 96.08 14 z "/>
  <path style="filter:url(#filter1412);opacity:0.20;fill:#000000" d="M 96.00,46.00 C 82.80,46.00 73,52.67 73,69.33 v 9.67 H 68.50 C 65.45,79.00 63,81.43 63,84.60 V 120.29 C 63,123.45 65.45,126 68.50,126 H 123.50 c 3.05,0 5.50,-2.55 5.50,-5.71 V 84.60 c 0,-3.17 -2.45,-5.60 -5.50,-5.60 H 119 V 69.33 C 119,52.70 109.20,46.02 96.00,46.02 Z m 0,10.00 c 6.60,0 12.90,3.33 13.00,13.33 v 9.67 H 83 V 69.33 C 83,59.33 89.40,56.00 96.00,56.00 Z"/>
  <path style="fill:#ffffff" d="M 96.00,43.00 C 82.80,43.00 73,49.67 73,66.33 v 9.67 H 68.50 C 65.45,76.00 63,78.43 63,81.60 V 117.29 C 63,120.45 65.45,123 68.50,123 H 123.50 c 3.05,0 5.50,-2.55 5.50,-5.71 V 81.60 c 0,-3.17 -2.45,-5.60 -5.50,-5.60 H 119 V 66.33 C 119,49.70 109.20,43.02 96.00,43.02 Z m 0,10.00 c 6.60,0 12.90,3.33 13.00,13.33 v 9.67 H 83 V 66.33 C 83,56.33 89.40,53.00 96.00,53.00 Z"/>
</svg>
