<?xml version='1.0' encoding='utf-8'?>
<svg xmlns="http://www.w3.org/2000/svg" width="192" height="192" version="1" id="svg28">
  <defs>
    <filter style="color-interpolation-filters:sRGB" id="filter16056" x="-0.041819536" y="-0.056324073" width="1.0836391" height="1.1126481">
      <feGaussianBlur stdDeviation="3.0743554"/>
    </filter>
    <filter style="color-interpolation-filters:sRGB" id="filter16098" x="-0.08569728" y="-0.066676961" width="1.1713946" height="1.1333539">
      <feGaussianBlur stdDeviation="3.6369912"/>
    </filter>
  </defs>
  <path style="filter:url(#filter16098);opacity:0.2;fill:#000000" d="M 97.765544,31.999529 144.36687,149.0572 92.670012,162.911 42.510906,58.149434 Z"/>
  <path style="fill:#c62323" d="M 97.765544,29.999999 144.36687,147.05767 92.670012,160.91147 42.510906,56.149904 Z"/>
  <path style="filter:url(#filter16056);opacity:0.2;fill:#000000" d="m 60.144531,34.000007 c -11.237636,0 -20.013515,9.396392 -23.523437,22.486747 L 7,164.91147 h 45.583984 c 0,0 9.017789,1.73617 12.19336,-10.1689 L 97.765625,34.000007 Z m 77.902349,0 c -9.1047,0 -12.0879,9.068087 -12.0879,9.068087 L 92.669922,164.91147 h 39.001958 c 12.55599,0 18.92684,-10.45531 22.72851,-24.63373 L 183.43555,34.000007 Z"/>
  <path style="fill:#e93140" d="m 60.144531,29.999999 c -11.237636,0 -20.013515,9.396392 -23.523437,22.486747 L 7,160.91147 h 45.583984 c 0,0 9.017789,1.73617 12.19336,-10.1689 L 97.765625,29.999999 Z m 77.902349,0 c -9.1047,0 -12.0879,9.068087 -12.0879,9.068087 L 92.669922,160.91147 h 39.001958 c 12.55599,0 18.92684,-10.45531 22.72851,-24.63373 L 183.43555,29.999999 Z"/>
  <path style="opacity:0.2;fill:#ffffff" d="M 60.144531 30 C 48.906895 30 40.131016 39.395973 36.621094 52.486328 L 7 160.91211 L 7.2734375 160.91211 L 36.621094 53.486328 C 40.131016 40.395973 48.906895 31 60.144531 31 L 97.492188 31 L 97.765625 30 L 60.144531 30 z M 138.04688 30 C 128.94217 30 125.95898 39.068359 125.95898 39.068359 L 92.669922 160.91211 L 92.943359 160.91211 L 125.95898 40.068359 C 125.95898 40.068359 128.94217 31 138.04688 31 L 183.16211 31 L 183.43555 30 L 138.04688 30 z "/>
</svg>
