<svg xmlns="http://www.w3.org/2000/svg" id="svg28" width="192" height="192" version="1"><defs><filter style="color-interpolation-filters:sRGB" id="filter19523" width="1.18" height="1.36" x=".09" y=".18"><feGaussianBlur stdDeviation="2.98"/></filter><filter style="color-interpolation-filters:sRGB" id="filter19527" width="1.12" height="1.24" x=".06" y=".12"><feGaussianBlur stdDeviation="2.98"/></filter><filter style="color-interpolation-filters:sRGB" id="filter19531" width="1.1" height="1.23" x=".05" y=".12"><feGaussianBlur stdDeviation="2.98"/></filter><filter style="color-interpolation-filters:sRGB" id="filter19535" width="1.15" height="1.26" x=".07" y=".13"><feGaussianBlur stdDeviation="2.98"/></filter></defs><ellipse style="filter:url(#filter19535);opacity:.2;fill:#000" cx="99" cy="150" rx="49" ry="28"/><ellipse style="fill:#3f3f3f" cx="99" cy="148" rx="49" ry="28"/><path style="filter:url(#filter19531);opacity:.2;fill:#000" d="m 164.19,138.53 c -5.84,15.26 -40.87,21.76 -78.25,14.50 -37.38,-7.25 -62.95,-25.51 -57.11,-40.77 5.84,-15.26 36.52,-18.43 74.57,-16.92 40.33,1.60 66.63,27.92 60.80,43.19 z"/><path style="fill:#fc5edc" d="m 164.19,136.53 c -5.84,15.26 -40.87,21.76 -78.25,14.50 -37.38,-7.25 -62.95,-25.51 -57.11,-40.77 5.84,-15.26 36.52,-18.43 74.57,-16.92 40.33,1.60 66.63,27.92 60.80,43.19 z"/><path style="filter:url(#filter19527);opacity:.2;fill:#000" d="m 135.59,112.69 c -11.19,0.97 -27.22,0.25 -50.68,-4.71 C 47.59,100.88 22.00,83.71 27.83,69.19 c 5.83,-14.52 33.21,-17.28 71.24,-15.85 9.42,2.55 26.94,8.66 37.48,16.07 2.06,1.45 4.09,2.86 5.84,4.48 9.01,8.34 6.89,13.50 4.74,22.42 -1.52,6.32 5.46,14.22 -11.53,16.38 z"/><path style="fill:#f6db1a" d="m 135.59,110.69 c -11.19,0.97 -27.22,0.25 -50.68,-4.71 C 47.59,98.88 22.00,81.71 27.83,67.19 c 5.83,-14.52 33.21,-17.28 71.24,-15.85 9.42,2.55 26.94,8.66 37.48,16.07 2.06,1.45 4.09,2.86 5.84,4.48 9.01,8.34 6.89,13.50 4.74,22.42 -1.52,6.32 5.46,14.22 -11.53,16.38 z"/><path style="filter:url(#filter19523);opacity:.2;fill:#000" d="m 89.39,18.00 c 5.56,0.14 41.55,9.67 41.61,21.18 0.08,15.50 -29.86,18.46 -45.50,18.81 C 71.13,58.30 51.32,53.76 50.03,43.06 48.86,33.34 84.14,18.13 89.39,18.00 Z"/><path style="fill:#0ebaf4" d="m 89.39,16.00 c 5.56,0.14 41.55,9.67 41.61,21.18 0.08,15.50 -29.86,18.46 -45.50,18.81 C 71.13,56.30 51.32,51.76 50.03,41.06 48.86,31.34 84.14,16.13 89.39,16.00 Z"/><path style="opacity:.2;fill:#fff" d="M 89.39 16.00 C 84.14 16.14 48.86 31.34 50.03 41.06 C 50.03 41.07 50.03 41.07 50.03 41.08 C 51.16 31.35 84.32 17.13 89.39 17.00 C 94.87 16.86 129.88 26.39 130.97 37.67 C 130.98 37.50 131.00 37.35 131 37.18 C 130.94 25.68 94.95 15.86 89.39 16.00 z"/></svg>