<?xml version='1.0' encoding='utf-8'?>
<svg xmlns="http://www.w3.org/2000/svg" width="192" height="192" version="1.1" id="svg14">
  <defs>
    <filter style="color-interpolation-filters:sRGB" id="filter849" x="-0.048000001" y="-0.048000001" width="1.096" height="1.096">
      <feGaussianBlur stdDeviation="3.2"/>
    </filter>
    <filter style="color-interpolation-filters:sRGB" id="filter1368" x="-0.047529415" y="-0.048480002" width="1.0950588" height="1.09696">
      <feGaussianBlur stdDeviation="2.0199999"/>
    </filter>
  </defs>
  <rect style="filter:url(#filter849);opacity:0.2" width="160" height="160" x="16" y="20" rx="32" ry="32"/>
  <rect style="fill:#e4e4e4" width="160" height="160" x="16" y="16" rx="32" ry="32"/>
  <path style="opacity:0.2;fill:#ffffff" d="M 48,16 C 30.272,16 16,30.272 16,48 v 1 C 16,31.272 30.272,17 48,17 h 96 c 17.728,0 32,14.272 32,32 V 48 C 176,30.272 161.728,16 144,16 Z"/>
  <path style="filter:url(#filter1368);opacity:0.2;fill:#000000" d="m 88.406487,147.84936 c -5.76593,-0.65624 -10.56749,-2.0399 -15.167757,-4.37083 C 62.865669,138.22248 52.34825,127.34851 48.33349,117.72892 46.598068,113.57058 45.703454,109.22101 45.184978,102.42078 44.159836,88.975343 47.328841,78.929133 56.365837,66.976178 63.955721,56.937084 75.065613,50.844247 89.6731,48.709859 c 7.111485,-1.039098 12.2385,-0.944201 17.80172,0.329491 10.53266,2.411427 21.02293,9.277613 28.64663,18.750026 7.51892,9.342201 10.85671,19.436709 10.87831,32.899304 0.0101,5.7315 -0.30234,7.92439 -1.77762,12.51486 -1.936,6.02374 -6.8901,14.03066 -11.77726,19.03479 -9.22214,9.44286 -17.76085,13.75235 -30.40871,15.34733 -3.145066,0.39662 -12.051333,0.55715 -14.629683,0.2637 z"/>
  <path style="fill:#fc7a27" d="m 88.406487,145.84936 c -5.76593,-0.65624 -10.56749,-2.0399 -15.167757,-4.37083 C 62.865669,136.22248 52.34825,125.34851 48.33349,115.72892 46.598068,111.57058 45.703454,107.22101 45.184978,100.42078 44.159836,86.975341 47.328841,76.929131 56.365837,64.976176 63.955721,54.937082 75.065613,48.844245 89.6731,46.709857 c 7.111485,-1.039098 12.2385,-0.944201 17.80172,0.329491 10.53266,2.411427 21.02293,9.277613 28.64663,18.750026 7.51892,9.342201 10.85671,19.436709 10.87831,32.899299 0.0101,5.731507 -0.30234,7.924397 -1.77762,12.514867 -1.936,6.02374 -6.8901,14.03066 -11.77726,19.03479 -9.22214,9.44286 -17.76085,13.75235 -30.40871,15.34733 -3.145066,0.39662 -12.051333,0.55715 -14.629683,0.2637 z"/>
</svg>
