<svg xmlns="http://www.w3.org/2000/svg" id="svg16" width="192" height="192" version="1"><defs><filter style="color-interpolation-filters:sRGB" id="filter862" width="1.1" height="1.1" x=".05" y=".05"><feGaussianBlur stdDeviation="2.4"/></filter><filter style="color-interpolation-filters:sRGB" id="filter884" width="1.1" height="1.1" x=".05" y=".05"><feGaussianBlur stdDeviation="3.2"/></filter></defs><rect style="filter:url(#filter884);opacity:.2;fill:#000" width="160" height="160" x="-180" y="-176" rx="80" ry="80" transform="matrix(0,-1,-1,0,0,0)"/><rect width="160" height="160" x="-176" y="-176" rx="80" ry="80" transform="matrix(0,-1,-1,0,0,0)" style="fill:#454545"/><path style="opacity:.1;fill:#fff" d="M 96 16 C 51.68 16 16.01 51.68 16.01 96 C 16.01 96.34 16.01 96.67 16.01 97 C 16.01 52.68 51.68 17 96 17 C 140.32 17 175.99 52.68 175.99 97 C 175.99 96.67 175.99 96.34 175.99 96 C 175.99 51.68 140.32 16 96 16 z"/><path d="m 96,40 c -33.24,0 -60,26.76 -60,60 0,33.24 26.76,60 60,60 33.24,0 60,-26.76 60,-60 0,-33.24 -26.76,-60 -60,-60 z m 0,16 40,72 H 121.25 L 110.53,109.44 104,98 96,84 80,112 h 16 6.78 l 9.23,16 H 96 56 Z" style="filter:url(#filter862);opacity:.2;fill:#000"/><path style="fill:#ffa83c" d="M 96 36 C 62.76 36 36 62.76 36 96 C 36 129.24 62.76 156 96 156 C 129.24 156 156 129.24 156 96 C 156 62.76 129.24 36 96 36 z M 96 52 L 136 124 L 121.25 124 L 110.53 105.44 L 104 94 L 96 80 L 80 108 L 96 108 L 102.78 108 L 112.02 124 L 96 124 L 56 124 L 96 52 z"/><path style="opacity:.2;fill:#fff" d="M 96 36 C 62.76 36 36 62.76 36 96 C 36 96.17 36.01 96.33 36.01 96.50 C 36.28 63.49 62.93 37 96 37 C 129.07 37 155.72 63.49 155.99 96.50 C 155.99 96.33 156 96.17 156 96 C 156 62.76 129.24 36 96 36 z M 96 80 L 80 108 L 80.57 108 L 96 81 L 104 95 L 110.53 106.44 L 121.25 125 L 136 125 L 135.45 124 L 121.25 124 L 110.53 105.44 L 104 94 L 96 80 z M 56.55 124 L 56 125 L 96 125 L 112.02 125 L 111.44 124 L 96 124 L 56.55 124 z"/></svg>