<?xml version='1.0' encoding='utf-8'?>
<svg xmlns="http://www.w3.org/2000/svg" width="192" height="192" version="1.1" id="svg14">
  <defs>
    <filter style="color-interpolation-filters:sRGB" id="filter4621" x="0.19" y="0.19" width="1.38" height="1.38">
      <feGaussianBlur stdDeviation="2.88"/>
    </filter>
    <filter style="color-interpolation-filters:sRGB" id="filter4666" x="0.04" y="0.07" width="1.07" height="1.14">
      <feGaussianBlur stdDeviation="2.43"/>
    </filter>
    <filter style="color-interpolation-filters:sRGB" id="filter4857" x="0.07" y="0.09" width="1.13" height="1.17">
      <feGaussianBlur stdDeviation="4.39"/>
    </filter>
  </defs>
  <rect style="filter:url(#filter4666);opacity:0.20;fill:#000000" width="160" height="83" x="20" y="75" rx="14" ry="13.83"/>
  <path style="opacity:0.20" d="m 68,17 c -3.32,0 -6,2.68 -6,6 v 108 c 0,3.32 2.68,6 6,6 h 84 c 3.32,0 6,-2.68 6,-6 V 53 L 122,17 Z"/>
  <path style="fill:#e4e4e4" d="m 68,14 c -3.32,0 -6,2.68 -6,6 v 108 c 0,3.32 2.68,6 6,6 h 84 c 3.32,0 6,-2.68 6,-6 V 50 l -30,-6 -6,-30 z"/>
  <path style="fill:#4f4f4f" d="m 82,45 v 22 h 5 v -9 h 7 v -4 h -7 v -5 h 8 V 45 Z M 102.67,45 95,67 h 4.96 l 1.58,-5 h 7.91 l 1.58,5 H 116 l -7.70,-22 z m 14.78,0 6.66,10.66 L 117,67 h 4.86 L 126.84,58.68 131.81,67 H 137 L 129.77,55.91 136.49,45 h -4.89 l -4.53,7.92 L 122.46,45 Z M 105.50,48.41 c 0.10,0.41 0.23,0.89 0.40,1.44 0.16,0.55 0.32,1.10 0.49,1.63 0.16,0.53 0.29,0.97 0.39,1.32 L 108.36,58 h -5.66 l 1.55,-5.21 c 0.08,0.23 0.19,0.60 0.34,-1.13 0.16,0.55 0.32,-1.13 0.49,-1.72 0.18,0.61 0.32,-1.12 0.43,-1.53 z"/>
  <path style="filter:url(#filter4621);opacity:0.20" d="M 158,52 122,16 v 30 c 0,3.32 2.68,6 6,6 z"/>
  <path style="fill:#fafafa" d="M 158,50 122,14 v 30 c 0,3.32 2.68,6 6,6 z"/>
  <path style="opacity:0.20;fill:#ffffff" d="M 68 14 C 64.68 14 62 16.68 62 20 L 62 21 C 62 17.68 64.68 15 68 15 L 122 15 L 122 14 L 68 14 z "/>
  <rect style="fill:#528dfe" width="160" height="83" x="20" y="71" rx="14" ry="13.83"/>
  <path style="filter:url(#filter4857);opacity:0.20;fill:#000000" d="m 28,54 c -8.86,0 -16,7.14 -16,16 v 91 c 0,8.86 7.14,16 16,16 8.86,0 16,-7.14 16,-16 V 70 C 44,61.14 36.86,54 28,54 Z m 27,33 v 57 h 48 V 87 Z m 61,0 c -1.66,0 -3,1.34 -3,3 v 6 c 0,1.66 1.34,3 3,3 h 6 c 1.66,0 3,-1.34 3,-3 v -6 c 0,-1.66 -1.34,-3 -3,-3 z m 15,0 c -1.66,0 -3,1.34 -3,3 v 6 c 0,1.66 1.34,3 3,3 h 6 c 1.66,0 3,-1.34 3,-3 v -6 c 0,-1.66 -1.34,-3 -3,-3 z m 15,0 c -1.66,0 -3,1.34 -3,3 v 6 c 0,1.66 1.34,3 3,3 h 6 c 1.66,0 3,-1.34 3,-3 v -6 c 0,-1.66 -1.34,-3 -3,-3 z m 15,0 c -1.66,0 -3,1.34 -3,3 v 6 c 0,1.66 1.34,3 3,3 h 6 c 1.66,0 3,-1.34 3,-3 v -6 c 0,-1.66 -1.34,-3 -3,-3 z m -45,15 c -1.66,0 -3,1.34 -3,3 v 6 c 0,1.66 1.34,3 3,3 h 6 c 1.66,0 3,-1.34 3,-3 v -6 c 0,-1.66 -1.34,-3 -3,-3 z m 15,0 c -1.66,0 -3,1.34 -3,3 v 6 c 0,1.66 1.34,3 3,3 h 6 c 1.66,0 3,-1.34 3,-3 v -6 c 0,-1.66 -1.34,-3 -3,-3 z m 15,0 c -1.66,0 -3,1.34 -3,3 v 6 c 0,1.66 1.34,3 3,3 h 6 c 1.66,0 3,-1.34 3,-3 v -6 c 0,-1.66 -1.34,-3 -3,-3 z m 15,0 c -1.66,0 -3,1.34 -3,3 v 6 c 0,1.66 1.34,3 3,3 h 6 c 1.66,0 3,-1.34 3,-3 v -6 c 0,-1.66 -1.34,-3 -3,-3 z m -45,15 c -1.66,0 -3,1.34 -3,3 v 6 c 0,1.66 1.34,3 3,3 h 6 c 1.66,0 3,-1.34 3,-3 v -6 c 0,-1.66 -1.34,-3 -3,-3 z m 15,0 c -1.66,0 -3,1.34 -3,3 v 6 c 0,1.66 1.34,3 3,3 h 6 c 1.66,0 3,-1.34 3,-3 v -6 c 0,-1.66 -1.34,-3 -3,-3 z m 15,0 c -1.66,0 -3,1.34 -3,3 v 6 c 0,1.66 1.34,3 3,3 h 6 c 1.66,0 3,-1.34 3,-3 v -6 c 0,-1.66 -1.34,-3 -3,-3 z m 15,0 c -1.66,0 -3,1.34 -3,3 v 6 c 0,1.66 1.34,3 3,3 h 6 c 1.66,0 3,-1.34 3,-3 v -6 c 0,-1.66 -1.34,-3 -3,-3 z m -45,15 c -1.66,0 -3,1.34 -3,3 v 6 c 0,1.66 1.34,3 3,3 h 6 c 1.66,0 3,-1.34 3,-3 v -6 c 0,-1.66 -1.34,-3 -3,-3 z m 15,0 c -1.66,0 -3,1.34 -3,3 v 6 c 0,1.66 1.34,3 3,3 h 6 c 1.66,0 3,-1.34 3,-3 v -6 c 0,-1.66 -1.34,-3 -3,-3 z m 15,0 c -1.66,0 -3,1.34 -3,3 v 6 c 0,1.66 1.34,3 3,3 h 6 c 1.66,0 3,-1.34 3,-3 v -6 c 0,-1.66 -1.34,-3 -3,-3 z m 15,0 c -1.66,0 -3,1.34 -3,3 v 6 c 0,1.66 1.34,3 3,3 h 6 c 1.66,0 3,-1.34 3,-3 v -6 c 0,-1.66 -1.34,-3 -3,-3 z"/>
  <rect style="fill:#12ffab" width="48" height="57" x="55" y="84"/>
  <path style="fill:#ffffff" d="m 116,84 c -1.66,0 -3,1.34 -3,3 v 6 c 0,1.66 1.34,3 3,3 h 6 c 1.66,0 3,-1.34 3,-3 v -6 c 0,-1.66 -1.34,-3 -3,-3 z m 15,0 c -1.66,0 -3,1.34 -3,3 v 6 c 0,1.66 1.34,3 3,3 h 6 c 1.66,0 3,-1.34 3,-3 v -6 c 0,-1.66 -1.34,-3 -3,-3 z m 15,0 c -1.66,0 -3,1.34 -3,3 v 6 c 0,1.66 1.34,3 3,3 h 6 c 1.66,0 3,-1.34 3,-3 v -6 c 0,-1.66 -1.34,-3 -3,-3 z m 15,0 c -1.66,0 -3,1.34 -3,3 v 6 c 0,1.66 1.34,3 3,3 h 6 c 1.66,0 3,-1.34 3,-3 v -6 c 0,-1.66 -1.34,-3 -3,-3 z m -45,15 c -1.66,0 -3,1.34 -3,3 v 6 c 0,1.66 1.34,3 3,3 h 6 c 1.66,0 3,-1.34 3,-3 v -6 c 0,-1.66 -1.34,-3 -3,-3 z m 15,0 c -1.66,0 -3,1.34 -3,3 v 6 c 0,1.66 1.34,3 3,3 h 6 c 1.66,0 3,-1.34 3,-3 v -6 c 0,-1.66 -1.34,-3 -3,-3 z m 15,0 c -1.66,0 -3,1.34 -3,3 v 6 c 0,1.66 1.34,3 3,3 h 6 c 1.66,0 3,-1.34 3,-3 v -6 c 0,-1.66 -1.34,-3 -3,-3 z m 15,0 c -1.66,0 -3,1.34 -3,3 v 6 c 0,1.66 1.34,3 3,3 h 6 c 1.66,0 3,-1.34 3,-3 v -6 c 0,-1.66 -1.34,-3 -3,-3 z m -45,15 c -1.66,0 -3,1.34 -3,3 v 6 c 0,1.66 1.34,3 3,3 h 6 c 1.66,0 3,-1.34 3,-3 v -6 c 0,-1.66 -1.34,-3 -3,-3 z m 15,0 c -1.66,0 -3,1.34 -3,3 v 6 c 0,1.66 1.34,3 3,3 h 6 c 1.66,0 3,-1.34 3,-3 v -6 c 0,-1.66 -1.34,-3 -3,-3 z m 15,0 c -1.66,0 -3,1.34 -3,3 v 6 c 0,1.66 1.34,3 3,3 h 6 c 1.66,0 3,-1.34 3,-3 v -6 c 0,-1.66 -1.34,-3 -3,-3 z m 15,0 c -1.66,0 -3,1.34 -3,3 v 6 c 0,1.66 1.34,3 3,3 h 6 c 1.66,0 3,-1.34 3,-3 v -6 c 0,-1.66 -1.34,-3 -3,-3 z m -45,15 c -1.66,0 -3,1.34 -3,3 v 6 c 0,1.66 1.34,3 3,3 h 6 c 1.66,0 3,-1.34 3,-3 v -6 c 0,-1.66 -1.34,-3 -3,-3 z m 15,0 c -1.66,0 -3,1.34 -3,3 v 6 c 0,1.66 1.34,3 3,3 h 6 c 1.66,0 3,-1.34 3,-3 v -6 c 0,-1.66 -1.34,-3 -3,-3 z m 15,0 c -1.66,0 -3,1.34 -3,3 v 6 c 0,1.66 1.34,3 3,3 h 6 c 1.66,0 3,-1.34 3,-3 v -6 c 0,-1.66 -1.34,-3 -3,-3 z m 15,0 c -1.66,0 -3,1.34 -3,3 v 6 c 0,1.66 1.34,3 3,3 h 6 c 1.66,0 3,-1.34 3,-3 v -6 c 0,-1.66 -1.34,-3 -3,-3 z"/>
  <rect style="fill:#3f62ec" width="32" height="123" x="12" y="51" rx="16" ry="16"/>
  <path style="opacity:0.10;fill:#ffffff" d="M 28 51 C 19.14 51 12 58.14 12 67 L 12 68 C 12 59.14 19.14 52 28 52 C 36.86 52 44 59.14 44 68 L 44 67 C 44 58.14 36.86 51 28 51 z "/>
</svg>
