<?xml version='1.0' encoding='utf-8'?>
<svg xmlns="http://www.w3.org/2000/svg" width="192" height="192" version="1.1" id="svg14">
  <defs>
    <filter style="color-interpolation-filters:sRGB" id="filter8489" x="0.05" y="0.05" width="1.10" height="1.10">
      <feGaussianBlur stdDeviation="3.19"/>
    </filter>
    <filter style="color-interpolation-filters:sRGB" id="filter8572" x="0.06" y="0.09" width="1.13" height="1.19">
      <feGaussianBlur stdDeviation="1.94"/>
    </filter>
  </defs>
  <circle style="fill:#323232" cx="96" cy="96" r="69"/>
  <path style="filter:url(#filter8489);opacity:0.20;fill:#000000;color:#000000" d="m 85.83,20.65 c -43.46,5.57 -74.50,45.41 -69.26,88.92 5.24,43.51 44.85,74.84 88.39,69.93 43.54,-4.91 75.18,-44.28 70.60,-87.86 a 11,11 0 0 0 -12.09,-9.79 11,11 0 0 0 -9.79,12.09 C 157.03,125.75 134.29,154.05 102.50,157.64 70.71,161.22 42.24,138.69 38.42,106.93 34.59,75.17 56.90,46.54 88.63,42.47 A 11,11 0 0 0 98.14,30.16 11,11 0 0 0 85.83,20.65 Z"/>
  <path style="fill:#3f51b5;color:#000000" d="m 85.83,16.65 c -43.46,5.57 -74.50,45.41 -69.26,88.92 5.24,43.51 44.85,74.84 88.39,69.93 43.54,-4.91 75.18,-44.28 70.60,-87.86 A 11,11 0 0 0 163.47,77.85 11,11 0 0 0 153.68,89.94 c 3.34,31.81 -19.40,60.11 -51.18,63.70 C 70.71,157.22 42.24,134.69 38.42,102.93 34.59,71.17 56.90,42.54 88.63,38.47 A 11,11 0 0 0 98.14,26.16 11,11 0 0 0 85.83,16.65 Z"/>
  <path style="filter:url(#filter8572);opacity:0.20;fill:#000000" d="m 59,73 v 9 h 21.72 c -1.68,2.35 -3.49,5.31 -5.12,8.58 -1.64,3.22 -3.13,6.65 -4.47,10.30 -1.30,3.65 -2.41,7.37 -3.32,11.17 C 66.89,115.84 66.29,119.49 66.00,123 h 10.99 c 0.29,-4.32 1.04,-8.65 2.24,-12.97 1.25,-4.32 2.69,-8.36 4.33,-12.10 1.68,-3.79 3.44,-7.18 5.27,-10.16 C 90.70,84.79 92.46,82.46 94,80.78 V 73 Z m 39,0 v 9 h 21.72 c -1.68,2.35 -3.49,5.31 -5.12,8.58 -1.64,3.22 -3.13,6.65 -4.47,10.30 -1.30,3.65 -2.41,7.37 -3.32,11.17 0.91,3.79 -1.51,7.44 -1.80,10.95 h 10.99 c 0.29,-4.32 1.04,-8.65 2.24,-12.97 1.25,-4.32 2.69,-8.36 4.33,-12.10 1.68,-3.79 3.44,-7.18 5.27,-10.16 1.88,-2.98 3.63,-5.31 5.17,-6.99 V 73 Z"/>
  <path style="fill:#10caff" d="M 59 71 L 59 80 L 80.72 80 C 79.04 82.35 77.24 85.31 75.60 88.58 C 73.96 91.80 72.47 95.23 71.12 98.88 C 69.83 102.53 68.72 106.25 67.80 110.05 C 66.89 113.84 66.29 117.49 66.00 121 L 76.99 121 C 77.28 116.68 78.03 112.35 79.23 108.03 C 80.48 103.71 81.92 99.67 83.56 95.93 C 85.24 92.13 87.00 88.75 88.83 85.77 C 90.70 82.79 92.46 80.46 94 78.78 L 94 71 L 59 71 z M 98 71 L 98 80 L 119.72 80 C 118.04 82.35 116.24 85.31 114.60 88.58 C 112.96 91.80 111.47 95.23 110.12 98.88 C 108.83 102.53 107.72 106.25 106.80 110.05 C 105.89 113.84 105.29 117.49 105.00 121 L 115.99 121 C 116.28 116.68 117.03 112.35 118.23 108.03 C 119.48 103.71 120.92 99.67 122.56 95.93 C 124.24 92.13 126.00 88.75 127.83 85.77 C 129.70 82.79 131.46 80.46 133 78.78 L 133 71 L 98 71 z "/>
  <path style="opacity:0.10;fill:#ffffff;color:#000000" d="M 85.83 16.65 C 45.04 21.87 15.21 57.29 16.02 97.58 C 15.72 57.70 45.38 22.83 85.83 17.65 A 11 11 0 0 1 98.14 27.16 A 11 11 0 0 1 98.20 28.07 A 11 11 0 0 0 98.14 26.16 A 11 11 0 0 0 85.83 16.65 z M 163.47 77.85 A 11 11 0 0 0 153.68 89.94 C 153.70 90.12 153.71 90.29 153.72 90.47 A 11 11 0 0 1 163.47 78.85 A 11 11 0 0 1 175.56 88.64 C 175.83 91.22 175.97 93.78 175.99 96.32 C 176.00 93.45 175.87 90.56 175.56 87.64 A 11 11 0 0 0 163.47 77.85 z M 154.00 96.46 C 153.84 125.53 132.09 150.30 102.50 153.63 C 70.71 157.22 42.24 134.69 38.42 102.93 C 38.18 100.98 38.05 99.04 38.01 97.12 C 38.02 99.37 38.14 101.64 38.42 103.93 C 42.24 135.69 70.71 158.22 102.50 154.63 C 132.43 151.26 154.34 125.96 154.00 96.46 z "/>
  <path style="opacity:0.20;fill:#ffffff" d="M 59 71 L 59 72 L 94 72 L 94 71 L 59 71 z M 98 71 L 98 72 L 133 72 L 133 71 L 98 71 z M 80.04 81 C 78.55 83.18 77.02 85.75 75.60 88.58 C 73.96 91.80 72.47 95.23 71.12 98.88 C 69.83 102.53 68.72 106.25 67.80 110.05 C 66.89 113.84 66.29 117.49 66.00 121 L 66.11 121 C 66.42 117.80 66.98 114.49 67.80 111.05 C 68.72 107.25 69.83 103.53 71.12 99.88 C 72.47 96.23 73.96 92.80 75.60 89.58 C 77.24 86.31 79.04 83.35 80.72 81 L 80.04 81 z M 119.04 81 C 117.55 83.18 116.02 85.75 114.60 88.58 C 112.96 91.80 111.47 95.23 110.12 98.88 C 108.83 102.53 107.72 106.25 106.80 110.05 C 105.89 113.84 105.29 117.49 105.00 121 L 105.11 121 C 105.42 117.80 105.98 114.49 106.80 111.05 C 107.72 107.25 108.83 103.53 110.12 99.88 C 111.47 96.23 112.96 92.80 114.60 89.58 C 116.24 86.31 118.04 83.35 119.72 81 L 119.04 81 z "/>
</svg>
