<?xml version='1.0' encoding='utf-8'?>
<svg xmlns="http://www.w3.org/2000/svg" width="192" height="192" version="1" id="svg28">
  <defs>
    <filter style="color-interpolation-filters:sRGB" id="filter6495" x="-0.048000001" y="-0.048000001" width="1.096" height="1.096">
      <feGaussianBlur stdDeviation="3.2"/>
    </filter>
    <filter style="color-interpolation-filters:sRGB" id="filter7672" x="-0.11462603" y="-0.10209815" width="1.2292521" height="1.2041963">
      <feGaussianBlur stdDeviation="3.8287613"/>
    </filter>
  </defs>
  <rect transform="matrix(0,-1,-1,0,0,0)" ry="12" rx="12" y="-176" x="-180" height="160" width="160" style="filter:url(#filter6495);opacity:0.2;fill:#000000"/>
  <rect transform="matrix(0,-1,-1,0,0,0)" ry="12" rx="12" y="-176" x="-176" height="160" width="160" style="fill:#ea1e45"/>
  <path style="opacity:0.2;fill:#ffffff" d="m 28,16 c -6.648,0 -12,5.352 -12,12 v 1 c 0,-6.648 5.352,-12 12,-12 h 136 c 6.648,0 12,5.352 12,12 v -1 c 0,-6.648 -5.352,-12 -12,-12 z"/>
  <path style="filter:url(#filter7672);opacity:0.2;fill:#000000" d="m 69.948356,142.54437 c 1.655362,-0.94475 1.997339,-2.48209 2.051644,-3.77633 0.141394,-3.4674 0.01134,-10.87457 0,-25.20288 V 86.465857 l 28.01921,28.091133 c 15.25233,15.29148 28.51883,27.71918 29.10325,27.99822 2.24192,1.07046 5.89571,-0.23134 6.87754,-2.58535 0.37186,-0.89159 0,-42.969859 0,-43.237552 V 55.752001 c -0.44869,-2.107776 -2.65922,-2.751999 -4.391,-2.751999 h -3.21804 c -2.38375,0 -3.97023,0.01685 -5.07062,0.135515 -2.3888,0.335335 -3.22349,1.518229 -3.32034,3.273671 -0.16345,3.041289 0,10.332357 0,25.559666 V 109.24279 L 92.10316,81.725702 C 76.948249,66.77709 63.836434,53.980182 63.279244,53.63985 c -1.647317,-1.00618 -3.726417,-0.797263 -5.354017,0.403072 -1.489841,1.051277 -1.932793,2.513724 -1.92513,4.051229 v 40.668047 41.405872 c 0.09538,1.52965 0.804569,2.36199 2.193124,2.5509 0.344634,0.14281 2.92464,0.2686 5.733343,0.27954 3.972206,0.0154 5.310037,-0.0854 6.021812,-0.45414 z"/>
  <path style="fill:#ffffff" d="m 69.948356,140.54437 c 1.655362,-0.94475 1.997339,-2.48209 2.051644,-3.77633 0.141394,-3.4674 0.01134,-10.87457 0,-25.20288 V 84.465856 l 28.01921,28.091134 c 15.25233,15.29148 28.51883,27.71918 29.10325,27.99822 2.24192,1.07046 5.89571,-0.23134 6.87754,-2.58535 0.37186,-0.89159 0,-42.96986 0,-43.237553 V 53.752 c -0.44869,-2.107776 -2.65922,-2.751999 -4.391,-2.751999 h -3.21804 c -2.38375,0 -3.97023,0.01685 -5.07062,0.135515 -2.3888,0.335335 -3.22349,1.518229 -3.32034,3.273671 -0.16345,3.041289 0,10.332357 0,25.559666 V 107.24279 L 92.10316,79.725701 C 76.948249,64.777089 63.836434,51.980181 63.279244,51.639849 c -1.647317,-1.00618 -3.726417,-0.797263 -5.354017,0.403072 -1.489841,1.051277 -1.932793,2.513724 -1.92513,4.051229 v 40.668047 41.405873 c 0.09538,1.52965 0.804569,2.36199 2.193124,2.5509 0.344634,0.14281 2.92464,0.2686 5.733343,0.27954 3.972206,0.0154 5.310037,-0.0854 6.021812,-0.45414 z"/>
</svg>
