<svg xmlns="http://www.w3.org/2000/svg" id="svg28" width="192" height="192" version="1"><defs><filter style="color-interpolation-filters:sRGB" id="filter43329" width="1.08" height="1.12" x=".04" y=".06"><feGaussianBlur stdDeviation="2.66"/></filter><filter style="color-interpolation-filters:sRGB" id="filter43371" width="1.11" height="1.23" x=".06" y=".11"><feGaussianBlur stdDeviation="3.23"/></filter><filter style="color-interpolation-filters:sRGB" id="filter43542" width="1.24" height="1.44" x=".12" y=".22"><feGaussianBlur stdDeviation="2.77"/></filter></defs><path style="fill:#ff7d19" d="M 77.84,28 H 92.65 L 111.22,46 H 96.42 Z"/><path style="fill:#ffa714" d="m 92.25,28 h 14.80 l 18.57,18 h -14.80 z"/><path style="fill:#ffd94b" d="m 106.85,28 h 14.80 l 18.57,18 h -14.80 z"/><path style="filter:url(#filter43371);opacity:.2;fill:#000" d="M 36.97,30 H 79.25 L 93.37,45 h 61.67 C 160.55,45 165,49.06 165,54.58 V 89.03 C 165,94.55 160.55,99 155.03,99 H 36.97 C 31.45,99 27,94.55 27,89.03 V 39.97 C 27,34.45 31.45,30 36.97,30 Z"/><path style="opacity:.2;fill:#fff" d="M 77.85 28 L 78.88 29 L 92.25 29 L 92.65 29 L 107.05 29 L 121.65 29 L 139.19 46 L 140.22 46 L 121.65 28 L 107.05 28 L 92.65 28 L 92.25 28 L 77.85 28 z"/><path style="fill:#0c73c3" d="M 36.97,28 H 79.25 L 93.37,43 h 61.67 C 160.55,43 165,47.06 165,52.58 V 87.03 C 165,92.55 160.55,97 155.03,97 H 36.97 C 31.45,97 27,92.55 27,87.03 V 37.97 C 27,32.45 31.45,28 36.97,28 Z"/><path style="filter:url(#filter43329);opacity:.2;fill:#000" d="m 26.03,62 c -5.54,0 -10.51,4.48 -10.00,10 l 8.08,86 c 0.52,5.52 4.46,10 10.00,10 H 96 157.89 c 5.54,0 9.48,-4.48 10.00,-10 l 8.08,-86 c 0.52,-5.52 -4.46,-10 -10.00,-10 H 96 Z"/><path style="fill:#30c1e5" d="m 26.03,58 c -5.54,0 -10.51,4.48 -10.00,10 l 8.08,86 c 0.52,5.52 4.46,10 10.00,10 H 96 157.89 c 5.54,0 9.48,-4.48 10.00,-10 l 8.08,-86 c 0.52,-5.52 -4.46,-10 -10.00,-10 H 96 Z"/><circle style="fill:#0c73c3" cx="96" cy="111" r="38"/><path style="filter:url(#filter43542);opacity:.2;fill:#000" d="M 84.78,98 A 15.77,15 0 0 0 69,113 a 15.77,15 0 0 0 15.78,15 15.77,15 0 0 0 6.96,-1.57 16.76,33.86 0 0 1 -1.15,-7.62 c -1.55,0.46 -3.22,1.05 -4.61,1.15 C 81.97,120.28 78,118.36 78,112.82 c 0,-5.16 3.52,-6.91 7.13,-6.82 1.73,0.05 3.66,0.56 5.43,0.88 A 16.76,33.86 0 0 1 91.61,99.49 15.77,15 0 0 0 84.78,98 Z m 10.34,1 9.03,13.63 L 94.62,127 h 9.62 l 4.71,-7.11 4.71,7.11 h 9.62 L 113.77,112.63 122.80,99 h -9.62 l -4.22,6.37 L 104.74,99 Z"/><path style="fill:#fff" d="M 84.78 96 A 15.77 15 0 0 0 69 111 A 15.77 15 0 0 0 84.78 126 A 15.77 15 0 0 0 91.74 124.43 A 16.76 33.86 0 0 1 90.58 116.81 C 89.03 117.27 87.36 117.86 85.97 117.97 C 81.97 118.28 78 116.36 78 110.82 C 78 105.67 81.52 103.91 85.13 104.00 C 86.86 104.05 88.79 104.57 90.55 104.89 A 16.76 33.86 0 0 1 91.61 97.49 A 15.77 15 0 0 0 84.78 96 z M 95.12 97 L 104.15 110.63 L 94.62 125 L 104.24 125 L 108.96 117.89 L 113.67 125 L 123.29 125 L 113.77 110.63 L 122.80 97 L 113.18 97 L 108.96 103.37 L 104.74 97 L 95.12 97 z"/><path style="opacity:.2;fill:#fff" d="M 26.03 58 C 20.60 58 15.71 62.33 16.03 67.71 C 16.33 62.80 20.94 59 26.03 59 L 96 59 L 165.97 59 C 171.06 59 175.67 62.80 175.97 67.71 C 176.29 62.33 171.40 58 165.97 58 L 96 58 L 26.03 58 z"/><path style="opacity:.1;fill:#fff" d="M 36.97 28 C 31.45 28 27 32.45 27 37.97 L 27 38.97 C 27 33.45 31.45 29 36.97 29 L 79.25 29 L 93.37 44 L 155.03 44 C 160.55 44 165 48.06 165 53.58 L 165 52.58 C 165 47.06 160.55 43 155.03 43 L 93.37 43 L 79.25 28 L 36.97 28 z"/></svg>