<?xml version='1.0' encoding='utf-8'?>
<svg xmlns="http://www.w3.org/2000/svg" width="192" height="192" version="1" id="svg14">
  <defs>
    <filter style="color-interpolation-filters:sRGB" id="filter848" x="0.05" width="1.10" y="0.05" height="1.10">
      <feGaussianBlur stdDeviation="3.20"/>
    </filter>
    <filter style="color-interpolation-filters:sRGB" id="filter875" x="0.05" width="1.10" y="0.04" height="1.09">
      <feGaussianBlur stdDeviation="1.20"/>
    </filter>
  </defs>
  <path d="M 96,20 C 51.82,20 16,55.82 16,100 v 72 c 0,4.43 3.57,8 8,8 h 72 c 44.18,0 80,-35.82 80,-80 V 28 c 0,-4.43 -3.57,-8 -8,-8 z" style="filter:url(#filter848);opacity:0.20"/>
  <path d="M 96,16 C 51.82,16 16,51.82 16,96 v 72 c 0,4.43 3.57,8 8,8 h 72 c 44.18,0 80,-35.82 80,-80 V 24 c 0,-4.43 -3.57,-8 -8,-8 z" style="fill:#4a9fff"/>
  <path d="m 74.41,68.00 c -2.18,0.04 -2.55,2.76 -2.37,4.78 0.02,18.93 0.03,37.86 0.02,56.78 0.19,2.26 2.62,3.17 4.00,1.76 14.77,-9.69 36.26,-19.31 51.01,-29.05 1.61,-1.34 0.99,-4.46 0.80,-5.11 -14.77,-9.65 -36.20,-19.36 -50.99,-28.98 0.28,0.13 0.57,0.20 0.87,0.20 z" style="filter:url(#filter875);opacity:0.20"/>
  <path d="m 74.41,64.00 c -2.18,0.04 -2.55,2.76 -2.37,4.78 0.02,18.93 0.03,37.86 0.02,56.78 0.19,2.26 2.62,3.17 4.00,1.76 14.77,-9.69 36.26,-19.31 51.01,-29.05 1.61,-1.34 0.99,-4.46 0.80,-5.11 -14.77,-9.65 -36.20,-19.36 -50.99,-28.98 0.28,0.13 0.57,0.20 0.87,0.20 z" style="fill:#ffffff"/>
  <path style="opacity:0.20;fill:#ffffff" d="M 96 16 C 51.82 16 16 51.82 16 96 L 16 97 C 16 52.82 51.82 17 96 17 L 168 17 C 172.43 17 176 20.57 176 25 L 176 24 C 176 19.57 172.43 16 168 16 L 96 16 z "/>
</svg>
