<?xml version='1.0' encoding='utf-8'?>
<svg xmlns="http://www.w3.org/2000/svg" width="192" height="192" version="1" id="svg12">
  <defs>
    <filter style="color-interpolation-filters:sRGB" id="filter21408" x="0.06" y="0.10" width="1.11" height="1.20">
      <feGaussianBlur stdDeviation="3.51"/>
    </filter>
    <filter style="color-interpolation-filters:sRGB" id="filter21450" x="0.07" y="0.08" width="1.15" height="1.15">
      <feGaussianBlur stdDeviation="2.77"/>
    </filter>
    <filter style="color-interpolation-filters:sRGB" id="filter21883" x="0.05" y="0.05" width="1.10" height="1.10">
      <feGaussianBlur stdDeviation="3"/>
    </filter>
  </defs>
  <rect style="filter:url(#filter21883);opacity:0.20;fill:#000000" width="150" height="150" x="21" y="25" rx="28.12" ry="28.12"/>
  <rect style="fill:#e4e4e4" width="150" height="150" x="21" y="21" rx="28.12" ry="28.12"/>
  <path style="filter:url(#filter21450);opacity:0.20;fill:#000000;color:#000000;mix-blend-mode:normal" d="m 55,55.00 c -6.76,0.00 -13.01,3.59 -16.41,9.42 l -28,48.00 c -5.29,9.06 -2.23,20.70 6.84,25.99 2.05,1.18 4.30,1.97 6.64,2.32 1.50,0.25 2.58,0.27 4.19,0.27 h 49.51 c 2.08,0.15 3.02,-5.57 4.89,-5.60 3.04,0.12 3.74,1.49 6.39,0.01 9.06,-5.29 13.17,-13.75 7.89,-22.81 L 69.35,67.70 C 65.94,61.87 61.76,55.00 55,55.00 Z"/>
  <path style="fill:#1066c0;color:#000000" d="m 55,53.00 c -6.76,0.00 -13.01,3.59 -16.41,9.42 l -28,47.97 c -5.29,9.06 -2.23,20.69 6.84,25.97 2.05,1.18 4.30,1.97 6.64,2.32 1.50,0.25 2.58,0.27 4.19,0.27 h 49.51 c 2.08,0.15 4.29,0.09 6.15,0.12 3.04,0.12 2.48,-3.98 5.13,-5.49 9.06,-5.28 13.17,-13.74 7.89,-22.80 L 69.35,65.70 C 65.94,59.86 61.76,53.00 55,53.00 Z"/>
  <path style="filter:url(#filter21408);opacity:0.20;fill:#000000;color:#000000" d="m 55.21,55.00 a 19,19 0 0 0 -9.53,2.44 19,19 0 0 0 -7.25,25.88 l 27,48.00 a 19.00,19.00 0 0 0 32.97,0.26 L 110,111.71 l 11.59,19.87 a 19.00,19.00 0 0 0 32.97,0.26 l 27,-48.00 a 19,19 0 0 0 -7.25,-25.88 19,19 0 0 0 -25.88,7.25 L 137.70,83.78 126.41,64.43 a 19.00,19.00 0 0 0 -32.82,0 L 82.30,83.78 71.56,64.69 A 19,19 0 0 0 55.21,55.00 Z"/>
  <path style="fill:#01a2e0;color:#000000" d="m 55.21,53.00 a 19,19 0 0 0 -9.53,2.44 19,19 0 0 0 -7.25,25.88 l 27,48.00 a 19.00,19.00 0 0 0 32.97,0.26 L 110,109.71 l 11.59,19.87 a 19.00,19.00 0 0 0 32.97,0.26 l 27,-48.00 a 19,19 0 0 0 -7.25,-25.88 19,19 0 0 0 -25.88,7.25 L 137.70,81.78 126.41,62.43 a 19.00,19.00 0 0 0 -32.82,0 L 82.30,81.78 71.56,62.69 A 19,19 0 0 0 55.21,53.00 Z"/>
  <path style="opacity:0.20;fill:#ffffff" d="M 49.12 21 C 33.54 21 21 33.54 21 49.12 L 21 50.12 C 21 34.54 33.54 22 49.12 22 L 142.88 22 C 158.46 22 171 34.54 171 50.12 L 171 49.12 C 171 33.54 158.46 21 142.88 21 L 49.12 21 z "/>
</svg>
