<?xml version='1.0' encoding='utf-8'?>
<svg xmlns="http://www.w3.org/2000/svg" width="192" height="192" version="1" id="svg18">
  <defs>
    <filter id="filter963" style="color-interpolation-filters:sRGB" width="1.096" height="1.096" x="-0.048000001" y="-0.048000001">
      <feGaussianBlur stdDeviation="3.2"/>
    </filter>
    <filter style="color-interpolation-filters:sRGB" id="filter2315" x="-0.033066667" y="-0.087529412" width="1.0661333" height="1.1750588">
      <feGaussianBlur stdDeviation="1.24"/>
    </filter>
    <filter style="color-interpolation-filters:sRGB" id="filter1409" x="-0.046105264" y="-0.050057144" width="1.0922105" height="1.1001143">
      <feGaussianBlur stdDeviation="1.46"/>
    </filter>
  </defs>
  <path style="filter:url(#filter963);opacity:0.2" d="M 176,100 A 80,80 0 0 1 96,180 80,80 0 0 1 16,100 80,80 0 0 1 96,20 80,80 0 0 1 176,100 Z"/>
  <path style="fill:#2aae60" d="M 176,96 A 80,80 0 0 1 96,176 80,80 0 0 1 16,96 80,80 0 0 1 96,16 80,80 0 0 1 176,96 Z"/>
  <path style="opacity:0.2;fill:#ffffff" d="M 95.998047,16 A 80,80 0 0 0 16,96 80,80 0 0 0 16.023438,96.638672 80,80 0 0 1 95.998047,17 H 96 A 80,80 0 0 1 175.98242,96.292969 80,80 0 0 0 175.99805,96 80,80 0 0 0 96,16 Z"/>
  <path style="filter:url(#filter1409);opacity:0.2;fill:#000000;color:#000000" d="m 64,63 a 5.9999996,5.9999996 0 0 0 -6,6 v 42 c 0,12.07918 9.920815,22 22,22 12.079185,0 22,-9.92082 22,-22 V 85 c 0,-5.59391 4.40609,-10 10,-10 5.59391,0 10,4.40609 10,10 v 42 a 5.9999996,5.9999996 0 0 0 6,6 5.9999996,5.9999996 0 0 0 6,-6 V 85 C 134,72.92082 124.07918,63 112,63 99.92081,63 90,72.92082 90,85 v 26 c 0,5.59391 -4.40609,10 -10,10 -5.59391,0 -10,-4.40609 -10,-10 V 69 a 5.9999996,5.9999996 0 0 0 -6,-6 z"/>
  <path style="fill:#97d7b1;color:#000000" d="m 64,61 a 5.9999996,5.9999996 0 0 0 -6,6 v 42 c 0,12.07918 9.920815,22 22,22 12.079185,0 22,-9.92082 22,-22 V 83 c 0,-5.59391 4.40609,-10 10,-10 5.59391,0 10,4.40609 10,10 v 42 a 5.9999996,5.9999996 0 0 0 6,6 5.9999996,5.9999996 0 0 0 6,-6 V 83 C 134,70.92082 124.07918,61 112,61 99.92081,61 90,70.92082 90,83 v 26 c 0,5.59391 -4.40609,10 -10,10 -5.59391,0 -10,-4.40609 -10,-10 V 67 a 5.9999996,5.9999996 0 0 0 -6,-6 z"/>
  <path style="filter:url(#filter2315);opacity:0.2;fill:#000000;stop-color:#000000" d="M 64,81 A 13,13 0 0 0 51,94 13,13 0 0 0 64,107 13,13 0 0 0 77,94 13,13 0 0 0 64,81 Z m 64,8 a 13,13 0 0 0 -13,13 13,13 0 0 0 13,13 13,13 0 0 0 13,-13 13,13 0 0 0 -13,-13 z"/>
  <circle style="fill:#ffffff;stop-color:#000000" cx="64" cy="92" r="13"/>
  <circle style="fill:#ffffff;stop-color:#000000" cx="-128" cy="100" r="13" transform="scale(-1,1)"/>
</svg>
