<?xml version='1.0' encoding='utf-8'?>
<svg xmlns="http://www.w3.org/2000/svg" width="192" height="192" version="1" id="svg5">
  <defs>
    <filter id="filter963" style="color-interpolation-filters:sRGB" width="1.10" height="1.10" x="0.05" y="0.05">
      <feGaussianBlur stdDeviation="3.20"/>
    </filter>
    <filter id="filter3843" style="color-interpolation-filters:sRGB" width="1.15" height="1.12" x="0.08" y="0.06">
      <feGaussianBlur stdDeviation="3.20"/>
    </filter>
  </defs>
  <path style="filter:url(#filter963);opacity:0.20" d="M 176,100 A 80,80 0 0 1 96,180 80,80 0 0 1 16,100 80,80 0 0 1 96,20 80,80 0 0 1 176,100 Z"/>
  <path style="fill:#e42946" d="M 176,96 A 80,80 0 0 1 96,176 80,80 0 0 1 16,96 80,80 0 0 1 96,16 80,80 0 0 1 176,96 Z"/>
  <path style="opacity:0.20;fill:#ffffff" d="M 96.00,16 A 80,80 0 0 0 16,96 80,80 0 0 0 16.02,96.64 80,80 0 0 1 96.00,17 H 96 A 80,80 0 0 1 175.98,96.29 80,80 0 0 0 176.00,96 80,80 0 0 0 96,16 Z"/>
  <path style="filter:url(#filter3843);opacity:0.20" d="M 97.77,50.00 C 63.30,50.00 45,73.14 45,98.38 c 0,11.73 6.24,26.34 16.21,30.99 1.51,0.71 2.32,0.39 2.67,-1.07 0.26,-1.11 1.61,-6.55 2.22,-9.07 0.19,0.81 0.10,-1.50 0.55,-2.29 C 62.25,112.92 60,105.55 60,98.68 60.00,81.03 72.94,64.00 95.66,64.00 115.28,64.00 129,77.35 129,96.50 c 0,21.64 -10.89,36.50 -25.08,36.50 -7.84,0 -13.71,-6.36 -11.82,-14.32 C 94.34,109.17 99,98.91 99,92.04 99,85.90 95.41,81.00 88.60,81.00 80.59,81.00 74,89.08 74,100.21 c 0,7.09 2.54,11.88 2.54,11.88 0,0 -7.91,33.52 -9.37,39.76 -1.57,6.74 -1.00,16.11 0.32,22.45 a 80,80 0 0 0 5.69,2.12 c 3.25,-5.34 7.97,-13.83 9.74,-20.66 0.97,-3.74 4.98,-19.02 4.98,-19.02 2.60,4.97 10.21,9.26 18.30,9.26 C 129.64,146.00 147,123.74 147,96.17 147,69.74 125.47,50.00 97.77,50.00 Z"/>
  <path style="fill:#ffffff" d="M 97.77,46 C 63.30,46.00 45,69.14 45,94.38 c 0,11.73 6.24,26.34 16.21,30.99 1.51,0.71 2.32,0.39 2.67,-1.07 0.26,-1.11 1.61,-6.55 2.22,-9.07 0.19,0.81 0.10,-1.50 0.55,-2.29 C 62.25,108.92 60,101.55 60,94.68 60.00,77.03 72.94,60 95.66,60 115.28,60 129,73.35 129,92.50 129,114.15 118.11,129 103.92,129 96.08,129 90.21,122.64 92.09,114.68 94.34,105.17 99,94.91 99,88.04 99,81.90 95.41,77 88.60,77 80.59,77 74,85.08 74,96.21 c 0,7.09 2.54,11.88 2.54,11.88 0,0 -7.91,33.52 -9.37,39.76 -1.57,6.74 -1.00,16.11 0.32,22.45 a 80,80 0 0 0 5.69,2.12 c 3.25,-5.34 7.97,-13.83 9.74,-20.66 0.97,-3.74 4.98,-19.02 4.98,-19.02 C 89.86,137.72 97.47,142 105.56,142 129.64,142 147,119.74 147,92.17 147,65.74 125.47,46 97.77,46 Z"/>
</svg>
