<?xml version='1.0' encoding='utf-8'?>
<svg xmlns="http://www.w3.org/2000/svg" width="192" height="192" version="1" id="svg12">
  <defs>
    <filter style="color-interpolation-filters:sRGB" id="filter860" x="0.05" width="1.10" y="0.05" height="1.10">
      <feGaussianBlur stdDeviation="3.20"/>
    </filter>
    <filter style="color-interpolation-filters:sRGB" id="filter884" x="0.04" width="1.08" y="0.06" height="1.11">
      <feGaussianBlur stdDeviation="1.38"/>
    </filter>
  </defs>
  <rect style="filter:url(#filter860);opacity:0.20" width="160" height="160" x="16" y="20" rx="8" ry="8"/>
  <rect style="fill:#e4e4e4" width="160" height="160" x="16" y="16" rx="8" ry="8"/>
  <path style="opacity:0.20;fill:#ffffff" d="m 24,16 c -4.43,0 -8,3.57 -8,8 v 1 c 0,-4.43 3.57,-8 8,-8 h 144 c 4.43,0 8,3.57 8,8 v -1 c 0,-4.43 -3.57,-8 -8,-8 z"/>
  <path style="fill:#0f55e2" d="m 64.00,64 h 4.90 l 6.46,2.38 2.65,6.84 V 104 h -14 z"/>
  <rect y="64" x="100.00" height="40" width="14" style="fill:#0f55e2"/>
  <rect style="fill:#0f55e2" width="14" height="44" x="122.00" y="60"/>
  <path style="filter:url(#filter884);opacity:0.20;fill:#000000;color:#000000;font-stretch:normal;font-variant-ligatures:normal;font-variant-position:normal;font-variant-caps:normal;font-variant-numeric:normal;font-variant-alternates:normal;font-feature-settings:normal;text-indent:0;text-align:start;text-decoration-line:none;text-decoration-style:solid;text-decoration-color:#000000;text-transform:none;writing-mode:lr-tb;direction:ltr;text-orientation:mixed;dominant-baseline:auto;baseline-shift:baseline;white-space:normal;shape-padding:0;clip-rule:nonzero;display:inline;overflow:visible;visibility:visible;isolation:auto;mix-blend-mode:normal;color-interpolation:sRGB;color-interpolation-filters:linearRGB;solid-color:#000000;solid-opacity:1;vector-effect:none;fill-rule:nonzero;color-rendering:auto;image-rendering:auto;shape-rendering:auto;text-rendering:auto;enable-background:accumulate" d="M 124.89,34.22 86.12,75.63 66.22,53.34 55.78,62.66 l 25,28 a 7.00,7.00 0 0 0 10.33,0.12 l 44.00,-47 z"/>
  <path style="fill:none;stroke:#3a7dff;stroke-width:14;stroke-linejoin:round" d="m 61.00,56 25,28 44.00,-47"/>
  <path style="fill:#3f3f3f;font-stretch:normal" d="m 56,114 v 36 h 4 v -14 h 6.60 c 4.91,0 7.56,0.70 9.77,-2.31 C 78.72,131.99 80,128.52 80,124.91 80,120.77 78.43,117.51 75.68,115.90 73.42,114.54 70.67,114 66.01,114 Z m 4,4 h 4.79 c 4.17,0 6.47,0.30 7.95,1.04 2.11,1.07 3.27,2.66 3.27,5.88 0,2.78 -1.11,4.82 -2.97,5.84 C 71.50,131.63 69.69,132 66.36,132 H 60 Z m 37.95,4 C 90.01,122 84,128.06 84,136.07 84,144.04 90.05,150 98.19,150 102.70,150 106.91,147.95 108,144.67 V 150 h 4 v -26 h -4 v 3.38 C 106.98,124.99 102.55,122 97.95,122 Z M 116,122 126.24,147.37 121.77,158 h 4.37 L 142,122 h -4.37 L 128.75,141.84 120.67,122 Z m -17.98,4 C 103.62,126 108,130.30 108,135.88 108,141.56 103.71,146 98.21,146 92.43,146 88,141.56 88,135.84 88,130.39 92.48,126 98.02,126 Z"/>
</svg>
