<?xml version='1.0' encoding='utf-8'?>
<svg xmlns="http://www.w3.org/2000/svg" width="192" height="192" version="1.1" id="svg24">
  <defs>
    <filter style="color-interpolation-filters:sRGB" id="filter882" x="-0.048000001" width="1.096" y="-0.048000001" height="1.096">
      <feGaussianBlur stdDeviation="3.2"/>
    </filter>
    <filter style="color-interpolation-filters:sRGB" id="filter899" x="-0.056727271" width="1.1134545" y="-0.041599998" height="1.0832">
      <feGaussianBlur stdDeviation="2.08"/>
    </filter>
  </defs>
  <rect ry="8" rx="8" y="20" x="16" height="160" width="160" style="filter:url(#filter882);opacity:0.2;fill:#000000"/>
  <rect style="fill:#e11966" width="160" height="160" x="16" y="16" rx="8" ry="8"/>
  <path style="opacity:0.2;fill:#ffffff" d="M 24 16 C 19.568 16 16 19.568 16 24 L 16 25 C 16 20.568 19.568 17 24 17 L 168 17 C 172.432 17 176 20.568 176 25 L 176 24 C 176 19.568 172.432 16 168 16 L 24 16 z "/>
  <path style="filter:url(#filter899);opacity:0.2" d="m 52,38 v 76 H 68 V 38 Z m 24,24 v 96 H 92 V 62 Z m 24,0 v 96 h 16 V 62 Z m 24,0 v 56 h 16 V 62 Z"/>
  <rect style="fill:#ffffff" width="16" height="76" x="52" y="36"/>
  <rect style="fill:#ffffff" width="16" height="96" x="76" y="60"/>
  <rect style="fill:#ffffff" width="16" height="96" x="100" y="60"/>
  <rect style="fill:#ffffff" width="16" height="56" x="124" y="60"/>
</svg>
