<?xml version='1.0' encoding='utf-8'?>
<svg xmlns="http://www.w3.org/2000/svg" width="192" height="192" version="1" id="svg28">
  <defs>
    <filter style="color-interpolation-filters:sRGB" id="filter6495" x="-0.048000001" y="-0.048000001" width="1.096" height="1.096">
      <feGaussianBlur stdDeviation="3.2"/>
    </filter>
    <filter style="color-interpolation-filters:sRGB" id="filter7523" x="-0.16553432" y="-0.080144418" width="1.3310686" height="1.1602888">
      <feGaussianBlur stdDeviation="4.000413"/>
    </filter>
  </defs>
  <rect transform="matrix(0,-1,-1,0,0,0)" ry="12" rx="12" y="-176" x="-180" height="160" width="160" style="filter:url(#filter6495);opacity:0.2;fill:#000000"/>
  <rect transform="matrix(0,-1,-1,0,0,0)" ry="12" rx="12" y="-176" x="-176" height="160" width="160" style="fill:#d43036"/>
  <path style="opacity:0.2;fill:#ffffff" d="m 28,16 c -6.648,0 -12,5.352 -12,12 v 1 c 0,-6.648 5.352,-12 12,-12 h 136 c 6.648,0 12,5.352 12,12 v -1 c 0,-6.648 -5.352,-12 -12,-12 z"/>
  <path d="M 90.071233,102.75318 95.330414,94.591529 96,94.815009 V 73.877021 L 67.049564,54.452758 v 20.937987 l 18.977888,12.875019 -5.259181,8.186229 -13.718707,-9.327287 v 20.937464 l 4.366183,2.97701 -4.29165,6.67314 -0.07453,-0.0495 v 0.17358 l -0.04957,0.0497 h 0.04957 v 20.71431 L 96,158 V 137.06237 L 76.426803,124.01351 80.718773,117.34036 96,127.4865 V 106.52411 Z M 106,120.4412 l 12,-9.77424 v 11.70923 l -12,9.77418 z m 0,-30.810908 12,-9.774555 V 91.540382 L 106,101.3145 Z M 99,73.430711 125,54.452758 v 84.048352 l -26,18.97788 z m 0,-25.085732 11,-8.702298 v 5.705936 l -5,4.065255 v 8.534256 l 5,-4.090877 v 5.879464 l -11,8.702306 v -5.879464 0 z M 80,38.20387 96,49.119491 v 5.010546 L 91,50.756159 V 67.799055 L 85,63.808 V 46.464703 l -5,-3.25029 V 38.20387" style="filter:url(#filter7523);opacity:0.2;fill:#000000;fill-rule:evenodd"/>
  <path d="M 90.071233,100.75318 95.330414,92.591529 96,92.815009 V 71.877021 L 67.049564,52.452758 v 20.937987 l 18.977888,12.875019 -5.259181,8.186229 -13.718707,-9.327287 v 20.937464 l 4.366183,2.97701 -4.29165,6.67314 -0.07453,-0.0495 v 0.17358 l -0.04957,0.0497 h 0.04957 v 20.71431 L 96,156 V 135.06237 L 76.426803,122.01351 80.718773,115.34036 96,125.4865 V 104.52411 Z M 106,118.4412 l 12,-9.77424 v 11.70923 l -12,9.77418 z m 0,-30.810908 12,-9.774555 v 11.684645 l -12,9.774116 z M 99,71.430711 125,52.452758 v 84.048352 l -26,18.97788 z m 0,-25.085732 11,-8.702298 v 5.705936 l -5,4.065255 v 8.534256 l 5,-4.090877 v 5.879464 l -11,8.702306 v -5.879464 0 z M 80,36.20387 96,47.119491 v 5.010546 L 91,48.756159 V 65.799055 L 85,61.808 V 44.464703 l -5,-3.25029 V 36.20387" style="fill:#ffffff;fill-rule:evenodd"/>
</svg>
