<?xml version='1.0' encoding='utf-8'?>
<svg xmlns="http://www.w3.org/2000/svg" width="192" height="192" version="1" id="svg28">
  <defs>
    <filter style="color-interpolation-filters:sRGB" id="filter6495" x="-0.048000001" y="-0.048000001" width="1.096" height="1.096">
      <feGaussianBlur stdDeviation="3.2"/>
    </filter>
    <filter style="color-interpolation-filters:sRGB" id="filter8978" x="-0.10925581" y="-0.10677273" width="1.2185116" height="1.2135455">
      <feGaussianBlur stdDeviation="3.915"/>
    </filter>
  </defs>
  <rect transform="matrix(0,-1,-1,0,0,0)" ry="12" rx="12" y="-176" x="-180" height="160" width="160" style="filter:url(#filter6495);opacity:0.2;fill:#000000"/>
  <rect transform="matrix(0,-1,-1,0,0,0)" ry="12" rx="12" y="-176" x="-176" height="160" width="160" style="fill:#3f3f3f"/>
  <path style="opacity:0.1;fill:#ffffff" d="m 28,16 c -6.648,0 -12,5.352 -12,12 v 1 c 0,-6.648 5.352,-12 12,-12 h 136 c 6.648,0 12,5.352 12,12 v -1 c 0,-6.648 -5.352,-12 -12,-12 z"/>
  <path style="filter:url(#filter8978);opacity:0.2;fill:#000000" d="m 53,54 v 6 h 86 v -6 z m 54,12 c -3.31371,0 -6,2.686292 -6,6 V 88.177734 96 c 0,2.761424 -2.238576,5 -5,5 -2.761424,0 -5,-2.238576 -5,-5 V 88.802734 79 c 0,-3.313708 -2.686292,-6 -6,-6 -3.313708,0 -6,2.686292 -6,6 V 89.552734 113 c 0,2.76142 -2.238576,5 -5,5 -2.761424,0 -5,-2.23858 -5,-5 V 90.179688 80 c 0,-3.313708 -2.686292,-6 -6,-6 -3.313708,0 -6,2.686292 -6,6 v 13.599609 c -1.326556,0.634068 -2.657872,1.170931 -4,1.44336 V 134 c 0,4.432 3.568,8 8,8 h 70 c 4.432,0 8,-3.568 8,-8 V 90.294922 c -1.24113,-0.185627 -2.56301,-0.586404 -4,-1.298828 V 72 c 0,-3.313708 -2.68629,-6 -6,-6 -3.31371,0 -6,2.686292 -6,6 V 79.859375 84 c 0,2.761424 -2.23858,5 -5,5 -2.76142,0 -5,-2.238576 -5,-5 V 80.486328 72 c 0,-3.313708 -2.68629,-6 -6,-6 z"/>
  <path style="fill:#ffffff" d="M 53 52 L 53 58 L 139 58 L 139 52 L 53 52 z M 107 64 C 103.68629 64 101 66.686292 101 70 L 101 86.177734 L 101 94 C 101 96.761424 98.761424 99 96 99 C 93.238576 99 91 96.761424 91 94 L 91 86.802734 L 91 77 C 91 73.686292 88.313708 71 85 71 C 81.686292 71 79 73.686292 79 77 L 79 87.552734 L 79 111 C 79 113.76142 76.761424 116 74 116 C 71.238576 116 69 113.76142 69 111 L 69 88.179688 L 69 78 C 69 74.686292 66.313708 72 63 72 C 59.686292 72 57 74.686292 57 78 L 57 91.599609 C 55.673444 92.233677 54.342128 92.77054 53 93.042969 L 53 132 C 53 136.432 56.568 140 61 140 L 131 140 C 135.432 140 139 136.432 139 132 L 139 88.294922 C 137.75887 88.109295 136.43699 87.708518 135 86.996094 L 135 70 C 135 66.686292 132.31371 64 129 64 C 125.68629 64 123 66.686292 123 70 L 123 77.859375 L 123 82 C 123 84.761424 120.76142 87 118 87 C 115.23858 87 113 84.761424 113 82 L 113 78.486328 L 113 70 C 113 66.686292 110.31371 64 107 64 z "/>
</svg>
