<?xml version='1.0' encoding='utf-8'?>
<svg xmlns="http://www.w3.org/2000/svg" width="192" height="192" version="1" id="svg28">
  <defs>
    <filter style="color-interpolation-filters:sRGB" id="filter10253" x="0.05" y="0.05" width="1.10" height="1.09">
      <feGaussianBlur stdDeviation="3.13"/>
    </filter>
    <filter style="color-interpolation-filters:sRGB" id="filter10340" x="0.08" y="0.07" width="1.16" height="1.14">
      <feGaussianBlur stdDeviation="2.18"/>
    </filter>
  </defs>
  <path style="filter:url(#filter10253);opacity:0.20;fill:#000000" d="m 151.71,19.01 a 6,6 0 0 0 -1.54,0.28 6,6 0 0 0 -3.50,2.97 l -19.69,38.28 a 6,6 0 0 0 0.56,1.86 l 7.32,7 a 6,6 0 0 0 0.60,0.11 l 32.52,-10.58 a 6,6 0 0 0 3.85,-7.56 6,6 0 0 0 -7.56,-3.85 l -19.05,6.20 13.25,-25.75 a 6,6 0 0 0 -2.59,-8.08 6,6 0 0 0 -3.04,0.66 z M 91.33,46.01 c -7.76,0.36 -12.06,10.06 -12.06,10.06 L 21.94,159.06 c -10.63,18.35 10.44,23.83 17.80,19.58 L 144.69,117.01 c 0,0 17.63,-9.57 1.54,-23.66 L 101.97,51.03 C 97.93,47.16 94.37,45.87 91.33,46.01 Z"/>
  <path style="fill:#ff9407" d="m 101.97,47.03 44.25,42.32 c 16.09,14.08 -1.54,23.66 -1.54,23.66 L 39.74,174.64 c -7.37,4.24 -28.43,-1.23 -17.80,-19.58 L 79.27,52.07 c 0,0 8.33,-18.79 22.70,-5.04 z"/>
  <path style="filter:url(#filter10340);opacity:0.20;fill:#000000;color:#000000" d="m 69.79,70.11 -4.05,7.28 19.44,19.61 a 4,4 0 0 0 5.66,0.03 4,4 0 0 0 0.02,-5.66 z m 11.49,51.02 a 4,4 0 0 0 -2.83,1.16 4,4 0 0 0 0.02,5.66 L 94.08,143.73 101.20,139.55 84.11,122.31 a 4,4 0 0 0 -2.82,-1.18 z m -41.64,3.14 -4.05,7.28 9.93,10.02 a 4,4 0 0 0 5.66,0.03 4,4 0 0 0 0.02,-5.66 z"/>
  <path style="fill:#de6c14;color:#000000" d="M 69.79 69.11 L 65.74 76.38 L 85.18 95.99 A 4 4 0 0 0 90.83 96.02 A 4 4 0 0 0 90.86 90.36 L 69.79 69.11 z M 81.28 120.13 A 4 4 0 0 0 78.45 121.29 A 4 4 0 0 0 78.43 126.94 L 94.08 142.73 L 101.20 138.55 L 84.11 121.31 A 4 4 0 0 0 81.28 120.13 z M 39.64 123.26 L 35.59 130.54 L 45.52 140.56 A 4 4 0 0 0 51.18 140.58 A 4 4 0 0 0 51.20 134.92 L 39.64 123.26 z "/>
  <path style="fill:#3acf6b;color:#000000" d="m 151.71,15.01 a 6,6 0 0 0 -1.54,0.28 6,6 0 0 0 -3.50,2.97 l -19.69,38.28 a 6,6 0 0 0 0.56,1.86 l 7.32,7 a 6,6 0 0 0 0.60,0.11 l 32.52,-10.58 a 6,6 0 0 0 3.85,-7.56 6,6 0 0 0 -7.56,-3.85 l -19.05,6.20 13.25,-25.75 a 6,6 0 0 0 -2.59,-8.08 6,6 0 0 0 -3.04,0.66 z"/>
  <path style="opacity:0.20;fill:#ffffff" d="m 151.71,15.01 a 6,6 0 0 0 -1.54,0.28 6,6 0 0 0 -3.50,2.97 l -19.69,38.28 a 6,6 0 0 0 0.56,1.86 l 0.23,0.22 a 6,6 0 0 1 0.33,-1.08 l 19.69,-38.28 a 6,6 0 0 1 3.50,-2.97 6,6 0 0 1 1.54,0.28 6,6 0 0 1 3.04,0.66 6,6 0 0 1 3.22,4.82 6,6 0 0 0 -3.22,-5.82 6,6 0 0 0 -3.04,0.66 z M 91.33,42.01 c -7.76,0.36 -12.06,10.06 -12.06,10.06 L 21.94,155.06 c -2.19,3.78 -3.02,7.00 -2.91,9.72 0.12,-2.50 0.99,-5.39 2.91,-8.72 L 79.28,53.07 c 0,0 4.30,-9.71 12.06,-10.06 3.03,0.14 6.60,1.15 10.64,5.02 l 44.25,42.32 c 4.80,4.20 6.56,7.99 6.72,11.26 0.18,-3.48 -1.42,-7.62 -6.72,-12.26 L 101.97,47.03 C 97.93,43.16 94.37,41.87 91.33,42.01 Z m 74.91,1.12 a 6,6 0 0 0 -3.10,0.16 l -18.44,6 0.62,1.20 19.05,-6.20 a 6,6 0 0 1 7.56,3.85 6,6 0 0 1 0.25,1.36 6,6 0 0 0 0.25,-2.36 6,6 0 0 0 -4.46,-4.01 z"/>
</svg>
