<?xml version='1.0' encoding='utf-8'?>
<svg xmlns="http://www.w3.org/2000/svg" width="192" height="192" version="1.1" id="svg20">
  <defs>
    <filter style="color-interpolation-filters:sRGB" id="filter869" x="0.05" width="1.10" y="0.05" height="1.10">
      <feGaussianBlur stdDeviation="3.20"/>
    </filter>
    <filter style="color-interpolation-filters:sRGB" id="filter885" x="0.05" width="1.10" y="0.05" height="1.10">
      <feGaussianBlur stdDeviation="0.64"/>
    </filter>
    <filter style="color-interpolation-filters:sRGB" id="filter905" x="0.05" width="1.10" y="0.05" height="1.09">
      <feGaussianBlur stdDeviation="1.14"/>
    </filter>
    <filter style="color-interpolation-filters:sRGB" id="filter929" x="0.08" width="1.16" y="0.03" height="1.07">
      <feGaussianBlur stdDeviation="1.72"/>
    </filter>
  </defs>
  <rect style="filter:url(#filter869);opacity:0.20" width="160" height="160" x="16" y="20" rx="8" ry="8"/>
  <rect style="fill:#e4e4e4" width="160" height="160" x="16" y="16" rx="8" ry="8"/>
  <path style="filter:url(#filter905);opacity:0.10" d="M 64,86.00 118,146 H 64 Z"/>
  <path style="fill:#a11d21" d="M 64,84.00 118,144 H 64 Z"/>
  <path style="filter:url(#filter929);opacity:0.10" d="m 64,88.00 52,-60 L 64,148 Z"/>
  <path style="fill:#e02a32" d="m 64,84.00 52,-60 L 64,144 Z"/>
  <circle style="filter:url(#filter885);opacity:0.10" cx="112" cy="102" r="16"/>
  <circle style="fill:#e02a32" cx="112" cy="100" r="16"/>
  <path style="opacity:0.20;fill:#ffffff" d="M 24 16 C 19.57 16 16 19.57 16 24 L 16 25 C 16 20.57 19.57 17 24 17 L 168 17 C 172.43 17 176 20.57 176 25 L 176 24 C 176 19.57 172.43 16 168 16 L 24 16 z "/>
</svg>
