<?xml version='1.0' encoding='utf-8'?>
<svg xmlns="http://www.w3.org/2000/svg" width="192" height="192" version="1" id="svg14">
  <defs>
    <filter style="color-interpolation-filters:sRGB" id="filter850" x="-0.048000001" width="1.096" y="-0.048000001" height="1.096">
      <feGaussianBlur stdDeviation="3.2"/>
    </filter>
    <filter style="color-interpolation-filters:sRGB" id="filter12326" x="-0.108" y="-0.108" width="1.216" height="1.216">
      <feGaussianBlur stdDeviation="5.151094"/>
    </filter>
  </defs>
  <circle style="filter:url(#filter850);opacity:0.2;fill:#000000" cx="96" cy="100" r="80"/>
  <circle r="80" cy="96" cx="96" style="fill:#009e8e"/>
  <path style="filter:url(#filter12326);opacity:0.2;fill:#000000" d="M 96,40.765245 86.4375,88.43712 38.765625,97.99962 86.4375,107.56212 96,155.234 l 9.5625,-47.67188 47.67188,-9.5625 -47.67188,-9.5625 z"/>
  <path style="fill:#38adfa" d="m 688.80525,256.99648 c -0.33229,-0.33229 -1.1948,-0.36781 -1.91667,-0.0789 -0.79773,0.31922 -0.56078,0.55618 0.60417,0.60416 1.05416,0.0434 1.64479,-0.19293 1.3125,-0.52522 z"/>
  <path style="opacity:0.2;fill:#ffffff" d="M 96 16 A 80 80 0 0 0 16 96 A 80 80 0 0 0 16.019531 96.472656 A 80 80 0 0 1 96 17 A 80 80 0 0 1 175.97461 96.513672 A 80 80 0 0 0 176 96 A 80 80 0 0 0 96 16 z "/>
  <path style="fill:#ffffff" d="M 96,38.765215 V 96 l -9.586283,-9.442713 z"/>
  <path style="fill:#006d62" d="M 96,38.765215 V 96 l 9.58628,-9.442713 z"/>
  <path style="fill:#006d62" d="M 96,153.23478 V 96 l -9.586283,9.44271 z"/>
  <path style="fill:#ffffff" d="M 96,153.23478 V 96 l 9.58628,9.44271 z"/>
  <path style="fill:#ffffff" d="M 153.23478,95.999999 H 95.999997 l 9.442713,-9.586283 z"/>
  <path style="fill:#006d62" d="M 153.23478,95.999999 H 95.999997 l 9.442713,9.586281 z"/>
  <path style="fill:#006d62" d="m 38.765217,95.999999 h 57.23478 l -9.44271,-9.586283 z"/>
  <path style="fill:#ffffff" d="m 38.765217,95.999999 h 57.23478 l -9.44271,9.586281 z"/>
</svg>
