<?xml version='1.0' encoding='utf-8'?>
<svg xmlns="http://www.w3.org/2000/svg" width="192" height="192" version="1.1" id="svg14">
  <defs>
    <filter style="color-interpolation-filters:sRGB" id="filter2891" x="-0.058909091" y="-0.040500001" width="1.1178182" height="1.081">
      <feGaussianBlur stdDeviation="2.7"/>
    </filter>
  </defs>
  <path style="filter:url(#filter2891);opacity:0.2;fill:#000000" d="m 151,125 c 0,30.37566 -24.62434,55 -54.999999,55 C 65.624337,180 40.999996,155.37566 40.999998,125 41,94.624342 96.000001,20 96.000001,20 96.000001,20 151,94.624343 151,125 Z"/>
  <path style="fill:#2ab2fe" d="m 151,121 c 0,30.37566 -24.62434,55 -54.999999,55 C 65.624337,176 40.999996,151.37566 40.999998,121 41,90.624342 96.000001,16 96.000001,16 96.000001,16 151,90.624343 151,121 Z"/>
  <path style="opacity:0.3;fill:#ffffff" d="m 87.982349,47.797394 c 0,0 -21.598331,38.733996 -22.119195,71.501266 -0.32804,20.6368 16.980965,41.80105 16.018264,44.87661 C 25.27377,137.37891 77.644719,64.198078 87.982349,47.797394 Z"/>
  <path style="opacity:0.2;fill:#ffffff" d="M 96 16 C 96 16 41.000002 90.624342 41 121 C 41 121.22667 41.014844 121.44976 41.017578 121.67578 C 41.389724 91.104545 96 17 96 17 C 96 17 150.61028 91.104546 150.98242 121.67578 C 150.98516 121.44976 151 121.22667 151 121 C 151 90.624343 96 16 96 16 z "/>
</svg>
