<?xml version='1.0' encoding='utf-8'?>
<svg xmlns="http://www.w3.org/2000/svg" width="192" height="192" version="1.1" id="svg198">
  <defs>
    <filter style="color-interpolation-filters:sRGB" id="filter1217" x="0.05" y="0.05" width="1.10" height="1.10">
      <feGaussianBlur stdDeviation="3.20"/>
    </filter>
    <filter style="color-interpolation-filters:sRGB" id="filter1301" x="0.05" y="0.05" width="1.10" height="1.10">
      <feGaussianBlur stdDeviation="1.28"/>
    </filter>
    <filter style="color-interpolation-filters:sRGB" id="filter1305" x="0.05" y="0.05" width="1.10" height="1.10">
      <feGaussianBlur stdDeviation="0.72"/>
    </filter>
  </defs>
  <rect style="filter:url(#filter1217);opacity:0.20" width="160" height="160" x="16" y="20" rx="8" ry="8"/>
  <rect style="fill:#419d45" width="160" height="160" x="16" y="16" rx="8" ry="8"/>
  <rect style="filter:url(#filter1301);opacity:0.20" width="64" height="64" x="64" y="66" rx="16" ry="16"/>
  <rect style="fill:#37474f" width="64" height="64" x="64" y="64" rx="16" ry="16"/>
  <g style="filter:url(#filter1305);opacity:0.20" transform="matrix(4,0,0,4,0,2)">
    <circle cx="11.50" cy="11.50" r="1.50"/>
    <circle cx="16.50" cy="11.50" r="1.50"/>
    <circle cx="21.50" cy="11.50" r="1.50"/>
    <circle cx="11.50" cy="16.50" r="1.50"/>
    <circle cx="11.50" cy="21.50" r="1.50"/>
    <circle cx="26.50" cy="11.50" r="1.50"/>
    <circle cx="31.50" cy="11.50" r="1.50"/>
    <circle cx="36.50" cy="11.50" r="1.50"/>
    <circle cx="36.50" cy="16.50" r="1.50"/>
    <circle cx="36.50" cy="21.50" r="1.50"/>
    <circle cx="36.50" cy="26.50" r="1.50"/>
    <circle cx="36.50" cy="36.50" r="1.50"/>
    <circle cx="31.50" cy="36.50" r="1.50"/>
    <circle cx="26.50" cy="36.50" r="1.50"/>
    <circle cx="26.50" cy="40.50" r="1.50"/>
    <circle cx="21.50" cy="36.50" r="1.50"/>
    <circle cx="16.50" cy="36.50" r="1.50"/>
    <circle cx="11.50" cy="31.50" r="1.50"/>
    <circle cx="11.50" cy="36.50" r="1.50"/>
    <circle cx="11.50" cy="26.50" r="1.50"/>
    <circle cx="36.50" cy="31.50" r="1.50"/>
    <circle cx="40.50" cy="11.50" r="1.50"/>
    <circle cx="40.50" cy="16.50" r="1.50"/>
    <circle cx="40.50" cy="21.50" r="1.50"/>
    <circle cx="40.50" cy="26.50" r="1.50"/>
    <circle cx="40.50" cy="31.50" r="1.50"/>
    <circle cx="40.50" cy="36.50" r="1.50"/>
    <circle cx="40.50" cy="40.50" r="1.50"/>
    <circle cx="36.50" cy="40.50" r="1.50"/>
    <circle cx="31.50" cy="40.50" r="1.50"/>
    <circle cx="21.50" cy="40.50" r="1.50"/>
    <circle cx="16.50" cy="40.50" r="1.50"/>
    <circle cx="7.50" cy="40.50" r="1.50"/>
    <circle cx="7.50" cy="36.50" r="1.50"/>
    <circle cx="7.50" cy="31.50" r="1.50"/>
    <circle cx="7.50" cy="26.50" r="1.50"/>
    <circle cx="7.50" cy="21.50" r="1.50"/>
    <circle cx="7.50" cy="16.50" r="1.50"/>
    <circle cx="7.50" cy="11.50" r="1.50"/>
    <circle cx="16.50" cy="7.50" r="1.50"/>
    <circle cx="21.50" cy="7.50" r="1.50"/>
    <circle cx="26.50" cy="7.50" r="1.50"/>
    <circle cx="31.50" cy="7.50" r="1.50"/>
    <circle cx="36.50" cy="7.50" r="1.50"/>
    <circle cx="40.50" cy="7.50" r="1.50"/>
  </g>
  <g style="fill:#ffdc65" transform="scale(4)">
    <circle cx="11.50" cy="11.50" r="1.50"/>
    <circle cx="16.50" cy="11.50" r="1.50"/>
    <circle cx="21.50" cy="11.50" r="1.50"/>
    <circle cx="11.50" cy="16.50" r="1.50"/>
    <circle cx="11.50" cy="21.50" r="1.50"/>
    <circle cx="26.50" cy="11.50" r="1.50"/>
    <circle cx="31.50" cy="11.50" r="1.50"/>
    <circle cx="36.50" cy="11.50" r="1.50"/>
    <circle cx="36.50" cy="16.50" r="1.50"/>
    <circle cx="36.50" cy="21.50" r="1.50"/>
    <circle cx="36.50" cy="26.50" r="1.50"/>
    <circle cx="36.50" cy="36.50" r="1.50"/>
    <circle cx="31.50" cy="36.50" r="1.50"/>
    <circle cx="26.50" cy="36.50" r="1.50"/>
    <circle cx="26.50" cy="40.50" r="1.50"/>
    <circle cx="21.50" cy="36.50" r="1.50"/>
    <circle cx="16.50" cy="36.50" r="1.50"/>
    <circle cx="11.50" cy="31.50" r="1.50"/>
    <circle cx="11.50" cy="36.50" r="1.50"/>
    <circle cx="11.50" cy="26.50" r="1.50"/>
    <circle cx="36.50" cy="31.50" r="1.50"/>
    <circle cx="40.50" cy="11.50" r="1.50"/>
    <circle cx="40.50" cy="16.50" r="1.50"/>
    <circle cx="40.50" cy="21.50" r="1.50"/>
    <circle cx="40.50" cy="26.50" r="1.50"/>
    <circle cx="40.50" cy="31.50" r="1.50"/>
    <circle cx="40.50" cy="36.50" r="1.50"/>
    <circle cx="40.50" cy="40.50" r="1.50"/>
    <circle cx="36.50" cy="40.50" r="1.50"/>
    <circle cx="31.50" cy="40.50" r="1.50"/>
    <circle cx="21.50" cy="40.50" r="1.50"/>
    <circle cx="16.50" cy="40.50" r="1.50"/>
    <circle cx="7.50" cy="40.50" r="1.50"/>
    <circle cx="7.50" cy="36.50" r="1.50"/>
    <circle cx="7.50" cy="31.50" r="1.50"/>
    <circle cx="7.50" cy="26.50" r="1.50"/>
    <circle cx="7.50" cy="21.50" r="1.50"/>
    <circle cx="7.50" cy="16.50" r="1.50"/>
    <circle cx="7.50" cy="11.50" r="1.50"/>
    <circle cx="16.50" cy="7.50" r="1.50"/>
    <circle cx="21.50" cy="7.50" r="1.50"/>
    <circle cx="26.50" cy="7.50" r="1.50"/>
    <circle cx="31.50" cy="7.50" r="1.50"/>
    <circle cx="36.50" cy="7.50" r="1.50"/>
    <circle cx="40.50" cy="7.50" r="1.50"/>
  </g>
  <path style="opacity:0.10;fill:#ffffff" d="M 24 16 C 19.57 16 16 19.57 16 24 L 16 25 C 16 20.57 19.57 17 24 17 L 168 17 C 172.43 17 176 20.57 176 25 L 176 24 C 176 19.57 172.43 16 168 16 L 24 16 z "/>
</svg>
