<?xml version='1.0' encoding='utf-8'?>
<svg xmlns="http://www.w3.org/2000/svg" width="192" height="192" version="1" id="svg28">
  <defs>
    <filter style="color-interpolation-filters:sRGB" id="filter6495" x="0.05" y="0.05" width="1.10" height="1.10">
      <feGaussianBlur stdDeviation="3.20"/>
    </filter>
    <filter style="color-interpolation-filters:sRGB" id="filter2798" x="0.09" y="0.14" width="1.17" height="1.29">
      <feGaussianBlur stdDeviation="4.05"/>
    </filter>
  </defs>
  <rect transform="matrix(0,-1,-1,0,0,0)" ry="12" rx="12" y="-176" x="-180" height="160" width="160" style="filter:url(#filter6495);opacity:0.20;fill:#000000"/>
  <path style="fill:#f94738" transform="matrix(0,-1,-1,0,0,0)" d="m -148.00,-152.50 118.65,-15.29 c 2.54,0.33 6.27,-7.41 8.22,-6.06 C -18.02,-171.68 -16,-168.09 -16,-164 v 136 c 0,6.65 -5.35,12 -12,12 h -136 c -3.91,0 -7.37,-1.85 -9.55,-4.72 -1.54,-2.02 4.56,-12.86 4.79,-15.59 l 8.76,-104.19 c 0.56,-6.62 5.41,-11.15 12,-12 z"/>
  <path style="fill:#e03018" d="M 172.41 19.44 L 19.44 172.41 C 21.61 174.62 24.64 176 28 176 L 164 176 C 170.65 176 176 170.65 176 164 L 176 28 C 176 24.64 174.62 21.61 172.41 19.44 z "/>
  <path style="opacity:0.20;fill:#ffffff" d="m 28,16 c -6.65,0 -12,5.35 -12,12 v 1 c 0,-6.65 5.35,-12 12,-12 h 136 c 6.65,0 12,5.35 12,12 v -1 c 0,-6.65 -5.35,-12 -12,-12 z"/>
  <path style="filter:url(#filter2798);opacity:0.20;fill:#000000" d="m 91.43,64.00 -39.95,0.02 1.23,1.02 c 1.68,1.39 7.87,4.42 12.09,5.93 4.16,1.48 11.74,3.14 17.17,3.75 5.38,0.60 18.71,0.23 24.09,0.68 5.64,0.95 10.80,-2.38 15.48,-4.29 4.21,-1.72 9.84,-5.15 9.84,-5.73 0,0 -17.97,0.01 -39.95,0 z m 50.87,2.00 c -1.26,0.06 -2.95,0.62 -5.52,1.69 -2.30,0.96 -7.01,2.87 -10.46,4.25 -4.23,1.69 -6.50,2.71 -6.34,3.14 0.13,0.34 0.63,3.11 1.11,6.14 1.22,7.72 1.22,25.82 0,33.54 0.48,3.03 0.97,5.78 -1.10,6.12 0.15,0.40 2.92,1.76 8.31,3.94 14.70,5.95 14.41,5.88 16.54,4.21 1.73,-1.35 2.96,-3.85 4.47,-9.03 3.58,-12.30 3.58,-31.71 0.00,-44.02 -1.44,-4.96 -2.33,-6.84 -4.07,-8.70 0.85,0.90 -1.68,-1.33 -2.94,-1.27 z m -94.02,3.99 c -4.14,0 -7.66,10.62 -8.19,24.72 0.34,8.84 0.28,15.26 2.09,21.89 1.97,7.19 4.09,9.96 7.09,9.29 0.68,0.15 3.96,-1.40 7.29,-2.77 l 6.36,-2.49 0.29,-1.68 c 0.16,0.92 0.65,-4.60 -1.08,-8.16 0.96,-7.88 0.68,-23.15 0.57,-30.40 0.45,-2.60 0.73,-4.79 0.64,-4.87 C 62.11,74.95 49.11,70.00 48.28,70.00 Z m 42.26,51.00 c -3.42,0.03 -6.55,0.06 -8.57,0.29 -5.42,0.61 -13.01,2.26 -17.17,3.75 -4.22,1.50 -10.40,4.54 -12.09,5.93 l -1.23,1.02 39.95,0.02 c 21.97,0.01 39.95,0 39.95,0 0,0.57 -5.64,-4.01 -9.84,-5.73 -4.68,-1.91 -9.84,-3.34 -15.48,-4.29 -3.36,0.57 -9.83,0.93 -15.52,0.97 z"/>
  <path style="fill:#ffffff" d="M 91.43 62.00 L 51.48 62.02 L 52.71 63.04 C 54.39 64.42 60.58 67.46 64.80 68.96 C 68.96 70.44 76.54 72.10 81.97 72.71 C 87.35 73.31 100.68 72.93 106.06 72.03 C 111.69 71.07 116.85 69.64 121.54 67.73 C 125.74 66.01 131.38 62.58 131.38 62.00 C 131.38 62.00 113.40 61.99 91.43 62.00 z M 142.30 64.01 C 141.04 64.07 139.35 64.62 136.79 65.69 C 134.49 66.65 129.78 68.56 126.32 69.94 C 122.09 71.63 119.82 72.66 119.98 73.08 C 120.12 73.43 120.62 76.19 121.09 79.22 C 122.31 86.94 122.31 105.04 121.09 112.76 C 120.62 115.79 120.12 118.54 119.99 118.88 C 119.84 119.27 122.91 120.63 128.30 122.82 C 143.00 128.77 142.71 128.69 144.85 127.02 C 146.57 125.67 147.81 123.17 149.31 117.99 C 152.90 105.69 152.90 86.29 149.31 73.98 C 147.87 69.02 146.99 67.14 145.24 65.28 C 144.39 64.38 143.56 63.94 142.30 64.01 z M 48.28 68 C 44.14 68 40.62 78.62 40.09 92.72 C 39.75 101.57 40.37 107.99 42.18 114.61 C 44.15 121.80 46.27 124.58 49.27 123.90 C 49.95 123.75 53.23 122.51 56.56 121.14 L 62.92 118.65 L 62.63 116.97 C 62.47 116.04 61.99 112.37 61.55 108.81 C 60.59 100.93 60.88 85.66 62.12 78.40 C 62.57 75.81 62.86 73.62 62.77 73.54 C 62.11 72.95 49.11 68 48.28 68 z M 90.54 119.00 C 87.12 118.98 83.99 119.07 81.97 119.29 C 76.54 119.90 68.96 121.56 64.80 123.04 C 60.58 124.54 54.39 127.58 52.71 128.96 L 51.48 129.98 L 91.43 130.00 C 113.40 130.01 131.38 130.00 131.38 130.00 C 131.38 129.42 125.74 125.99 121.54 124.27 C 116.85 122.36 111.69 120.93 106.06 119.97 C 102.70 119.41 96.23 119.05 90.54 119.00 z "/>
</svg>
