<?xml version='1.0' encoding='utf-8'?>
<svg xmlns="http://www.w3.org/2000/svg" width="192" height="192" version="1" id="svg28">
  <defs>
    <filter style="color-interpolation-filters:sRGB" id="filter2627" x="0.05" y="0.05" width="1.10" height="1.10">
      <feGaussianBlur stdDeviation="3.20"/>
    </filter>
    <filter style="color-interpolation-filters:sRGB" id="filter7020" x="0.04" y="0.07" width="1.07" height="1.14">
      <feGaussianBlur stdDeviation="1.59"/>
    </filter>
    <filter style="color-interpolation-filters:sRGB" id="filter7024" x="0.06" y="0.04" width="1.12" height="1.08">
      <feGaussianBlur stdDeviation="1.28"/>
    </filter>
  </defs>
  <rect transform="matrix(0,-1,-1,0,0,0)" ry="24.00" rx="24.00" y="-176" x="-180" height="160" width="160" style="filter:url(#filter2627);opacity:0.20;fill:#000000"/>
  <rect transform="matrix(0,-1,-1,0,0,0)" ry="24.00" rx="24.00" y="-176" x="-176" height="160" width="160" style="fill:#07aae4"/>
  <path style="opacity:0.20;fill:#ffffff" d="M 40,16 C 26.70,16 16,26.70 16,40 v 1 C 16,27.70 26.70,17 40,17 h 112 c 13.30,0 24,10.70 24,24 V 40 C 176,26.70 165.30,16 152,16 Z"/>
  <path style="filter:url(#filter7024);opacity:0.20;fill:#000000" d="m 42,58 c -3.31,0 -6,2.69 -6,6 v 43 c 0,14.91 12.09,27 27,27 10.17,0 19.02,-5.62 23.63,-13.93 2.15,-3.87 1.67,-9.04 1.67,-13.78 0,-14.91 -10.39,-24.36 -25.30,-24.36 -5.34,0.01 -10.56,1.64 -15,4.62 V 64 c 0,-3.31 -2.69,-6 -6,-6 z m 21,32.40 c 8.28,0 15,8.32 15,16.60 0,8.28 -6.72,15 -15,15 -8.28,0 -15,-6.72 -15,-15 0,-8.28 6.72,-16.60 15,-16.60 z"/>
  <path style="fill:#02688c" d="m 42,56 c -3.31,0 -6,2.69 -6,6 v 43 c 0,14.91 12.09,27 27,27 10.17,0 19.02,-5.62 23.63,-13.93 2.15,-3.87 1.67,-9.04 1.67,-13.78 0,-14.91 -10.39,-24.36 -25.30,-24.36 -5.34,0.01 -10.56,1.64 -15,4.62 V 62 c 0,-3.31 -2.69,-6 -6,-6 z m 21,32.40 c 8.28,0 15,8.32 15,16.60 0,8.28 -6.72,15 -15,15 -8.28,0 -15,-6.72 -15,-15 0,-8.28 6.72,-16.60 15,-16.60 z"/>
  <path style="filter:url(#filter7020);opacity:0.20;fill:#000000;color:#000000" d="m 63,80 c -5.34,0.01 -10.56,1.61 -15,4.59 v 22.32 h 0.01 C 48.06,98.66 54.75,92.00 63,92 c 5.23,0.00 10.04,2.72 12.75,7.10 0.92,1.36 1.35,2.76 1.96,4.42 L 84.80,122.87 88.88,134 H 103.10 L 113,106.64 122.90,134 h 14.21 l 15.54,-42.96 c 1.13,-3.12 0.49,-6.56 -3.60,-7.68 0.59,0.21 -1.21,0.33 -1.84,0.36 -2.60,0.09 -4.96,1.51 -5.84,3.96 L 130,118.36 118.64,86.96 c -1.91,-5.28 -9.38,-5.28 -11.29,0 L 95.96,118.46 87.88,96.43 C 87.74,96.02 87.54,95.64 87.32,95.29 82.82,85.94 73.37,80.00 63,80 Z"/>
  <path style="fill:#fdcd3b;color:#000000" d="m 63,78 c -5.34,0.01 -10.56,1.61 -15,4.59 v 22.32 h 0.01 C 48.06,96.66 54.75,90.00 63,90 c 5.23,0.00 10.04,2.72 12.75,7.10 0.92,1.36 1.35,2.76 1.96,4.42 L 84.80,120.87 88.88,132 H 103.10 L 113,104.64 122.90,132 h 14.21 l 15.54,-42.96 c 1.13,-3.12 0.49,-6.56 -3.60,-7.68 0.59,0.21 -1.21,0.33 -1.84,0.36 -2.60,0.09 -4.96,1.51 -5.84,3.96 L 130,116.36 118.64,84.96 c -1.91,-5.28 -9.38,-5.28 -11.29,0 L 95.96,116.46 87.88,94.43 C 87.74,94.02 87.54,93.64 87.32,93.29 82.82,83.94 73.37,78.00 63,78 Z"/>
  <path style="opacity:0.20;fill:#ffffff;color:#000000" d="M 63 78 C 57.66 78.01 52.44 79.61 48 82.59 L 48 83.59 C 52.44 80.61 57.66 79.01 63 79 C 73.37 79.00 82.82 84.94 87.32 94.29 C 87.54 94.64 87.74 95.02 87.88 95.43 L 95.96 117.46 L 107.36 85.96 C 109.27 80.68 116.73 80.68 118.64 85.96 L 130 117.36 L 141.36 85.96 C 142.24 83.51 144.60 81.92 147.20 82.00 C 147.83 82.02 148.45 82.14 149.04 82.36 C 151.30 83.17 152.75 85.21 152.96 87.45 C 153.16 84.83 151.63 82.29 149.04 81.36 C 148.45 81.14 147.83 81.02 147.20 81.00 C 144.60 80.92 142.24 82.51 141.36 84.96 L 130 116.36 L 118.64 84.96 C 116.73 79.68 109.27 79.68 107.36 84.96 L 95.96 116.46 L 87.88 94.43 C 87.74 94.02 87.54 93.64 87.32 93.29 C 82.82 83.94 73.37 78.00 63 78 z "/>
</svg>
