<?xml version='1.0' encoding='utf-8'?>
<svg xmlns="http://www.w3.org/2000/svg" width="192" height="192" version="1" id="svg14">
  <defs>
    <filter style="color-interpolation-filters:sRGB" id="filter850" x="0.05" width="1.10" y="0.05" height="1.10">
      <feGaussianBlur stdDeviation="3.20"/>
    </filter>
    <filter style="color-interpolation-filters:sRGB" id="filter8226" x="0.07" y="0.08" width="1.14" height="1.16">
      <feGaussianBlur stdDeviation="2.95"/>
    </filter>
  </defs>
  <circle style="filter:url(#filter850);opacity:0.20;fill:#000000" cx="96" cy="100" r="80"/>
  <circle r="80" cy="96" cx="96" style="fill:#bfedff"/>
  <path style="filter:url(#filter8226);opacity:0.20;fill:#000000" d="M 112.29,57.01 C 98.69,57.24 81.93,61.34 70.17,67.82 63.56,71.46 58.98,74.89 54.40,79.61 48.47,85.74 46.03,91.70 46,100.15 c 0.03,6.93 1.71,12.80 5.43,18.39 1.69,2.54 7.03,7.37 10.17,9.47 4.94,3.30 10.04,5.61 15.19,6.54 v 0.00 c 3.17,0.57 5.51,0.59 5.96,0.04 0.61,0.74 0.09,-1.76 -2.13,-4.14 -2.49,-2.67 -3.58,-5.14 -3.80,-7.35 0.22,-2.12 0.05,-2.96 1.12,-3.52 0.83,0.43 1.10,0.43 3.21,0.00 2.70,0.54 9.34,0.62 13.61,0.16 8.00,0.87 15.98,-3.15 23.85,-7.03 15.33,-7.54 24.22,-16.48 26.74,-26.87 0.80,-3.30 0.86,-7.60 0.15,-10.51 -1.08,-4.41 -4.05,-9.02 -7.44,-11.54 -3.02,-2.24 -8.98,-4.69 -14.20,-5.82 -2.66,0.58 -5.67,0.89 -8.91,0.96 0.88,0.02 -1.77,0.02 -2.68,0.01 z M 95.04,131.00 c -1.56,0.03 -3.52,0.67 -6.56,2.08 -1.85,0.85 -3.54,1.55 -3.76,1.55 0.78,0 0.70,0.34 0.52,2.16 0.68,1.01 1.65,2.62 2.16,3.57 1.59,2.98 3.69,5.07 5.56,5.50 0.50,0.12 1.09,0.17 1.33,0.12 2.79,0.57 3.86,-2.70 2.72,-5.43 0.49,-1.18 0.24,-2.02 0.71,-2.32 1.03,0.33 2.32,-2.10 2.32,-3.20 0.00,-2.02 -1.14,-3.27 -3.54,-3.88 0.46,0.12 0.94,0.17 -1.46,0.16 z"/>
  <path style="fill:#38adfa" d="m 688.81,257.00 c 0.33,0.33 -1.19,0.37 -1.92,0.08 0.80,0.32 0.56,0.56 0.60,0.60 1.05,0.04 1.64,0.19 1.31,0.53 z"/>
  <path style="opacity:0.20;fill:#ffffff" d="M 96 16 A 80 80 0 0 0 16 96 A 80 80 0 0 0 16.02 96.47 A 80 80 0 0 1 96 17 A 80 80 0 0 1 175.97 96.51 A 80 80 0 0 0 176 96 A 80 80 0 0 0 96 16 z "/>
  <path style="fill:#009ff5" d="M 112.29 55.01 C 98.69 55.24 81.93 59.34 70.17 65.82 C 63.56 69.46 58.98 72.89 54.40 77.61 C 48.47 83.74 46.03 89.70 46 98.15 C 45.97 105.09 47.71 110.96 51.43 116.55 C 53.13 119.09 58.46 123.92 61.60 126.02 C 66.54 129.32 71.64 131.63 76.79 132.56 L 76.79 132.56 C 79.97 133.14 82.30 133.15 82.76 132.60 C 83.37 131.86 82.85 130.84 80.63 128.46 C 78.14 125.79 77.05 123.32 76.82 121.11 C 76.61 118.99 76.87 118.15 77.95 117.59 C 78.78 117.16 79.05 117.16 81.16 117.59 C 83.86 118.13 90.50 118.21 94.77 117.75 C 102.77 116.88 110.75 114.59 118.62 110.72 C 133.95 103.18 142.84 94.24 145.36 83.85 C 146.16 80.55 146.22 76.25 145.51 73.34 C 144.43 68.93 141.46 64.32 138.07 61.80 C 135.05 59.55 129.09 57.11 123.87 55.98 C 121.21 55.40 118.20 55.09 114.97 55.02 C 114.09 55.00 113.20 55.00 112.29 55.01 z M 95.04 129.00 C 93.48 129.04 91.52 129.67 88.48 131.08 C 86.63 131.93 84.93 132.63 84.71 132.63 C 83.93 132.63 84.02 132.97 85.24 134.79 C 85.92 135.80 86.89 137.41 87.39 138.36 C 88.98 141.33 91.09 143.42 92.95 143.86 C 93.45 143.98 94.05 144.03 94.28 143.98 C 97.08 143.41 98.15 141.28 97.01 138.56 C 96.51 137.37 96.77 136.53 97.72 136.23 C 98.75 135.90 100.04 134.13 100.04 133.04 C 100.04 131.02 98.89 129.77 96.50 129.16 C 96.04 129.05 95.56 128.99 95.04 129.00 z "/>
  <circle style="fill:#004768" cx="124.50" cy="69.50" r="6.50"/>
  <circle style="fill:#ffffff" cx="127" cy="68" r="3"/>
</svg>
