<svg xmlns="http://www.w3.org/2000/svg" id="svg12" width="192" height="192" version="1"><defs><filter style="color-interpolation-filters:sRGB" id="filter860" width="1.1" height="1.1" x=".05" y=".05"><feGaussianBlur stdDeviation="3.2"/></filter><filter style="color-interpolation-filters:sRGB" id="filter835" width="1.09" height="1.1" x=".05" y=".05"><feGaussianBlur stdDeviation="1.68"/></filter></defs><rect style="filter:url(#filter860);opacity:.2" width="160" height="160" x="16" y="20" rx="8" ry="8"/><rect style="fill:#fddd08" width="160" height="160" x="16" y="16" rx="8" ry="8"/><path style="opacity:.2;fill:#fff" d="m 24,16 c -4.43,0 -8,3.57 -8,8 v 1 c 0,-4.43 3.57,-8 8,-8 h 144 c 4.43,0 8,3.57 8,8 v -1 c 0,-4.43 -3.57,-8 -8,-8 z"/><path d="M 52.00,58.00 V 138 h 16 V 81.03 L 86.54,136.93 86.87,138 h 18.26 l 0.33,-1.07 18.54,-55.90 V 138 h 16 V 58.00 h -8.08 -7.92 -9.00 L 96.00,112.33 77.00,58.00 H 68.00 60.08 Z" style="filter:url(#filter835);opacity:.2;fill:#000"/><path style="fill:#3a3a3a" d="m 52.00,56.00 v 80.00 h 16 V 79.03 l 18.54,55.90 0.33,1.07 h 18.26 l 0.33,-1.07 18.54,-55.90 v 56.97 h 16 V 56.00 h -8.08 -7.92 -9.00 L 96.00,110.33 77.00,56.00 H 68.00 60.08 Z"/></svg>