<svg xmlns="http://www.w3.org/2000/svg" id="svg16" width="192" height="192" version="1"><defs><filter style="color-interpolation-filters:sRGB" id="filter867" width="1.1" height="1.1" x=".05" y=".05"><feGaussianBlur stdDeviation="3.2"/></filter><filter style="color-interpolation-filters:sRGB" id="filter8081" width="1.1" height="1.09" x=".05" y=".05"><feGaussianBlur stdDeviation="2.36"/></filter><filter style="color-interpolation-filters:sRGB" id="filter8085" width="1.1" height="1.09" x=".05" y=".05"><feGaussianBlur stdDeviation="2.4"/></filter></defs><rect width="160" height="160" x="-180" y="-176" rx="80" ry="80" transform="matrix(0,-1,-1,0,0,0)" style="filter:url(#filter867);opacity:.2;fill:#000"/><rect style="fill:#e4e4e4" width="160" height="160" x="-176" y="-176" rx="80" ry="80" transform="matrix(0,-1,-1,0,0,0)"/><path style="filter:url(#filter8081);opacity:.2;fill:#000" d="m 161,98 c 0,35.90 -29.10,65 -65,65 -10.80,0 -20.99,-2.64 -29.96,-7.30 -20.82,-10.83 -15.85,-18.85 -15.85,-43.94 0,-35.90 8.11,-67.06 44.01,-67.06 9.65,0 20.61,-9.60 28.85,-5.83 C 145.44,49.14 161,71.75 161,98 Z"/><path style="opacity:.2;fill:#fff" d="M 96 16 C 51.68 16 16 51.68 16 96 C 16 96.34 16.00 96.67 16 97 C 16 52.68 51.68 17 96 17 C 140.32 17 176 52.68 176 97 C 176.00 96.67 176 96.34 176 96 C 176 51.68 140.32 16 96 16 z"/><path style="fill:#7b3dcc" d="m 161,96 c 0,35.90 -29.10,65 -65,65 -10.80,0 -20.99,-2.64 -29.96,-7.30 -20.82,-10.83 -15.85,-18.85 -15.85,-43.94 0,-35.90 8.11,-67.06 44.01,-67.06 9.65,0 20.61,-9.60 28.85,-5.83 C 145.44,47.14 161,69.75 161,96 Z"/><path style="filter:url(#filter8085);opacity:.2;fill:#000" d="m 96,33 c -35.90,0 -65,29.10 -65,65 0.08,27.05 16.91,51.32 42.25,60.79 l -3.68,-1.62 c -5.56,-2.44 -8.09,-9.03 -5.64,-14.60 1.17,-2.67 3.36,-4.77 6.08,-5.82 0.90,0.35 1.83,0.58 2.79,0.68 1.92,0.21 3.86,0.09 5.63,0.86 l 21.76,9.57 c 5.24,1.41 10.73,-1.20 12.92,-6.17 1.47,-3.45 1.07,-7.35 0.94,-10.39 -1.18,-1.72 -3.00,-2.52 -5.13,-3.44 L 64.62,108.09 c -5.57,-2.42 -8.13,-8.90 -5.71,-14.47 1.16,-2.68 3.34,-4.78 6.05,-5.85 0.89,0.35 1.83,0.59 2.79,0.70 1.92,0.22 3.86,0.07 5.63,0.84 l 21.54,9.34 c 2.44,1.37 5.06,1.91 7.56,1.37 3.30,0.75 6.17,-3.00 7.62,-6.24 1.63,-3.76 1.00,-7.99 -1.38,-11.08 -1.52,-1.97 -3.10,-2.72 -5.32,-3.69 l -5.79,-2.54 c -5.57,-2.43 -8.10,-8.92 -5.67,-14.48 1.17,-2.67 3.35,-4.77 6.07,-5.84 0.89,0.35 1.83,0.58 2.79,0.69 1.92,0.21 3.86,0.08 5.63,0.85 l 6.32,2.76 c 1.94,1.11 4.18,1.38 6.15,1.06 3.56,0.60 6.70,-2.94 8.22,-6.39 C 129.15,47.59 127.58,42.04 123.34,39.04 114.77,35.06 105.44,33.00 96,33 Z m 34,57 a 11,11 0 0 0 -11,11 11,11 0 0 0 11,11 11,11 0 0 0 11,-11 11,11 0 0 0 -11,-11 z m 3,48 a 11,11 0 0 0 -11,11 11,11 0 0 0 11,11 11,11 0 0 0 11,-11 11,11 0 0 0 -11,-11 z"/><path style="fill:#ff4962" d="M 96 31 C 60.10 31 31 60.10 31 96 C 31.08 123.05 47.91 147.32 73.25 156.79 L 69.57 155.17 C 64.01 152.73 61.49 146.14 63.93 140.57 C 65.10 137.90 67.29 135.81 70.01 134.75 C 70.91 134.40 71.84 134.17 72.80 134.07 C 74.72 133.86 76.66 134.15 78.43 134.93 L 100.19 144.50 C 105.43 145.91 110.91 143.29 113.11 138.33 C 114.59 134.88 114.18 130.98 112.17 127.94 C 110.98 126.21 109.17 125.42 107.04 124.50 L 64.62 106.09 C 59.05 103.67 56.49 97.19 58.91 91.62 C 60.07 88.95 62.25 86.84 64.96 85.77 C 65.85 85.42 66.79 85.18 67.75 85.07 C 69.66 84.85 71.61 85.14 73.38 85.91 L 94.91 95.25 C 97.35 96.62 99.98 97.17 102.47 96.62 C 105.78 95.87 108.64 93.61 110.09 90.38 C 111.72 86.62 111.09 82.39 108.71 79.30 C 107.19 77.33 105.61 76.58 103.39 75.61 L 97.59 73.08 C 92.03 70.64 89.49 64.16 91.92 58.59 C 93.09 55.92 95.27 53.82 97.99 52.76 C 98.89 52.41 99.82 52.18 100.78 52.07 C 102.70 51.85 104.64 52.15 106.41 52.92 L 112.73 55.69 C 114.67 56.79 116.91 57.07 118.87 56.75 C 122.43 56.15 125.57 53.81 127.10 50.36 C 129.15 45.59 127.58 40.04 123.34 37.04 C 114.77 33.06 105.44 31.00 96 31 z M 130 88 A 11 11 0 0 0 119 99 A 11 11 0 0 0 130 110 A 11 11 0 0 0 141 99 A 11 11 0 0 0 130 88 z M 133 136 A 11 11 0 0 0 122 147 A 11 11 0 0 0 133 158 A 11 11 0 0 0 144 147 A 11 11 0 0 0 133 136 z"/></svg>