<?xml version='1.0' encoding='utf-8'?>
<svg xmlns="http://www.w3.org/2000/svg" width="192" height="192" version="1.1" id="svg10">
  <defs>
    <filter style="color-interpolation-filters:sRGB" id="filter841" x="0.04" y="0.06" width="1.08" height="1.12">
      <feGaussianBlur stdDeviation="2.71"/>
    </filter>
  </defs>
  <path style="fill:#840010" d="m 28,16 h 136 c 6.65,0 12,5.35 12,12 v 107.99 l -3.41,26.49 c 0.85,6.59 -4.60,10.09 -11.24,10.11 l -127.67,0.38 c -5.40,0.02 -15.62,0.50 -17.14,-5.39 C 16.19,166.45 16,165.25 16,164 V 28 c 0,-6.65 5.35,-12 12,-12 z"/>
  <path style="opacity:0.10;fill:#ffffff" d="M 28 16 C 21.35 16 16 21.35 16 28 L 16 29 C 16 22.35 21.35 17 28 17 L 164 17 C 170.65 17 176 22.35 176 29 L 176 28 C 176 21.35 170.65 16 164 16 L 28 16 z "/>
  <path style="filter:url(#filter841);opacity:0.20" d="m 120.85,68.50 c 0.28,0.03 0.19,0.45 0.41,1.25 0.73,0.97 0.68,2.89 0.10,3.57 -2.57,2.26 -7.25,2.74 -28.05,4.12 -11.86,0.79 -17.32,1.98 -21.32,4.67 -1.94,1.31 -3.38,3.22 -3.38,4.48 0,2.08 3.29,4.13 13.12,8.17 12.48,5.13 18.04,8.14 21.83,11.79 2.54,2.45 3.59,4.13 4.30,6.87 1.13,4.41 0.66,9.05 -5.34,13.82 -8.44,8.61 -23.72,16.69 -58.17,30.77 -11.10,4.54 -17.21,6.88 -24.38,9.35 0.58,0.20 -2.29,0.93 -3.69,1.50 C 16.54,175.10 21.65,180 28,180 h 136 c 6.65,0 12,-5.35 12,-12 v -29.59 l -1.32,-3.24 c -4.58,-14.18 -12.45,-23.60 -24.88,-29.81 -10.15,-5.07 -21.52,-8.51 -45.87,-13.87 -15.12,-3.33 -18.86,-4.57 -19.32,-6.41 0.70,-2.77 5.46,-4.12 18.74,-5.09 13.78,-1.00 18.96,-2.58 20.50,-6.26 0.68,-1.62 0.34,-2.80 -1.19,-4.14 0.87,0.77 -1.53,-1.13 -1.81,-1.09 z"/>
  <path style="fill:#ffffff" d="m 120.85,64.50 c 0.28,0.03 0.19,0.45 0.41,1.25 0.73,0.97 0.68,2.89 0.10,3.57 -2.57,2.26 -7.25,2.74 -28.05,4.12 -11.86,0.79 -17.32,1.98 -21.32,4.67 -1.94,1.31 -3.38,3.22 -3.38,4.48 0,2.08 3.29,4.13 13.12,8.17 12.48,5.13 18.04,8.14 21.83,11.79 2.54,2.45 3.59,4.13 4.30,6.87 1.13,4.41 0.66,9.05 -5.34,13.82 -8.44,8.61 -23.72,16.69 -58.17,30.77 -11.10,4.54 -17.21,6.88 -24.38,9.35 0.58,0.20 -2.29,0.93 -3.69,1.50 C 16.54,171.10 21.65,176 28,176 h 136 c 6.65,0 12,-5.35 12,-12 v -29.59 l -1.32,-3.24 c -4.58,-14.18 -12.45,-23.60 -24.88,-29.81 -10.15,-5.07 -21.52,-8.51 -45.87,-13.87 -15.12,-3.33 -18.86,-4.57 -19.32,-6.41 0.70,-2.77 5.46,-4.12 18.74,-5.09 13.78,-1.00 18.96,-2.58 20.50,-6.26 0.68,-1.62 0.34,-2.80 -1.19,-4.14 0.87,0.77 -1.53,-1.13 -1.81,-1.09 z"/>
</svg>
