<?xml version='1.0' encoding='utf-8'?>
<svg xmlns="http://www.w3.org/2000/svg" width="192" height="192" version="1" id="svg28">
  <defs>
    <filter style="color-interpolation-filters:sRGB" id="filter901" x="-0.048000001" width="1.096" y="-0.048000001" height="1.096">
      <feGaussianBlur stdDeviation="3.2"/>
    </filter>
    <filter style="color-interpolation-filters:sRGB" id="filter2995" x="-0.051099165" y="-0.045255266" width="1.1021983" height="1.0905105">
      <feGaussianBlur stdDeviation="1.7347852"/>
    </filter>
    <filter style="color-interpolation-filters:sRGB" id="filter2999" x="-0.051099162" y="-0.04525527" width="1.1021983" height="1.0905105">
      <feGaussianBlur stdDeviation="1.7347853"/>
    </filter>
  </defs>
  <rect style="filter:url(#filter901);opacity:0.2;fill:#000000" width="160" height="160" x="-180" y="-176" rx="12" ry="12" transform="matrix(0,-1,-1,0,0,0)"/>
  <rect transform="matrix(0,-1,-1,0,0,0)" ry="12" rx="12" y="-176" x="-176" height="160" width="160" style="fill:#31a1fa"/>
  <path style="filter:url(#filter2999);opacity:0.2;fill:#000000;color:#000000" d="M 121.45071,60.000002 58.130387,152 h 73.220723 l 8.25781,-12 H 80.956559 L 136.01907,60.000002 Z"/>
  <path style="opacity:0.2;fill:#ffffff" d="m 28,16 c -6.648,0 -12,5.352 -12,12 v 1 c 0,-6.648 5.352,-12 12,-12 h 136 c 6.648,0 12,5.352 12,12 v -1 c 0,-6.648 -5.352,-12 -12,-12 z"/>
  <path style="fill:#add9fd;color:#000000" d="M 121.45071,58.000002 58.130387,150 h 73.220723 l 8.25781,-12 H 80.956559 L 136.01907,58.000002 Z"/>
  <path style="filter:url(#filter2995);opacity:0.2;fill:#000000;color:#000000" d="M 109.4507,39 46.130387,131 H 119.3511 l 8.25781,-12 H 68.956559 L 124.01906,39 Z"/>
  <path style="fill:#ffffff;color:#000000" d="M 109.4507,37 46.130387,129 H 119.3511 l 8.25781,-12 H 68.956559 L 124.01906,37 Z"/>
</svg>
