<?xml version='1.0' encoding='utf-8'?>
<svg xmlns="http://www.w3.org/2000/svg" width="192" height="192" version="1" id="svg14">
  <defs>
    <filter style="color-interpolation-filters:sRGB" id="filter1841" x="0.07" y="0.07" width="1.15" height="1.15">
      <feGaussianBlur stdDeviation="4.12"/>
    </filter>
    <filter style="color-interpolation-filters:sRGB" id="filter2621" x="0.05" y="0.05" width="1.10" height="1.10">
      <feGaussianBlur stdDeviation="3.20"/>
    </filter>
  </defs>
  <rect style="filter:url(#filter2621);opacity:0.20;fill:#000000" width="160" height="160" x="16" y="20" ry="20"/>
  <rect style="fill:#e4e4e4" width="160" height="160" x="16" y="16" ry="20"/>
  <path style="fill:#38adfa" d="m 688.81,257.00 c 0.33,0.33 -1.19,0.37 -1.92,0.08 0.80,0.32 0.56,0.56 0.60,0.60 1.05,0.04 1.64,0.19 1.31,0.53 z"/>
  <path style="filter:url(#filter1841);opacity:0.20;fill:#000000" d="M 30,32 59.34,98 30,164 96,98 Z M 96,98 162,164 132.66,98 162,32 Z"/>
  <path style="fill:#f44336" d="M 30,30 96,96 30,162 59.34,96 Z"/>
  <path style="fill:#3ebd44" d="M 162,30 96,96 162,162 132.66,96 Z"/>
  <path style="opacity:0.20;fill:#ffffff" d="M 36 16 C 24.92 16 16 24.92 16 36 L 16 37 C 16 25.92 24.92 17 36 17 L 156 17 C 167.08 17 176 25.92 176 37 L 176 36 C 176 24.92 167.08 16 156 16 L 36 16 z "/>
</svg>
