<?xml version='1.0' encoding='utf-8'?>
<svg xmlns="http://www.w3.org/2000/svg" width="192" height="192" version="1" id="svg14">
  <defs>
    <filter style="color-interpolation-filters:sRGB" id="filter850" x="0.05" width="1.10" y="0.05" height="1.10">
      <feGaussianBlur stdDeviation="3.20"/>
    </filter>
    <filter style="color-interpolation-filters:sRGB" id="filter873" x="0.05" width="1.10" y="0.04" height="1.09">
      <feGaussianBlur stdDeviation="1.20"/>
    </filter>
  </defs>
  <rect style="filter:url(#filter850);opacity:0.20;fill:#000000" width="160" height="160" x="-180" y="-176" rx="80" ry="80" transform="matrix(0,-1,-1,0,0,0)"/>
  <rect transform="matrix(0,-1,-1,0,0,0)" ry="80" rx="80" y="-176" x="-176" height="160" width="160" style="fill:#4f4f4f"/>
  <path style="opacity:0.10;fill:#ffffff" d="M 96.00,16 C 51.68,16.00 16,51.68 16,96 c 0,0.12 0.01,0.23 0.01,0.34 C 16.36,52.33 51.90,17.00 96.00,17 H 96 c 44.11,0.00 79.65,35.34 79.99,79.36 0.00,0.12 0.01,0.24 0.01,0.36 0,-44.32 -35.68,-80.00 -80.00,-80 z"/>
  <path d="M 79.07,68.00 A 6.90,7.07 0 0 0 72,75.06 v 49.88 a 6.90,7.07 0 0 0 10.35,6.11 l 21.11,-12.46 21.10,-12.48 a 6.90,7.07 0 0 0 0,-12.22 L 103.46,81.42 82.35,68.96 a 6.90,7.07 0 0 0 -3.28,0.96 z" style="filter:url(#filter873);opacity:0.10"/>
  <path d="M 79.07,64.00 A 6.90,7.07 0 0 0 72,71.06 v 49.88 a 6.90,7.07 0 0 0 10.35,6.11 l 21.11,-12.46 21.10,-12.48 a 6.90,7.07 0 0 0 0,-12.22 L 103.46,77.42 82.35,64.96 a 6.90,7.07 0 0 0 -3.28,0.96 z" style="fill:#ffffff"/>
</svg>
