<?xml version='1.0' encoding='utf-8'?>
<svg xmlns="http://www.w3.org/2000/svg" width="192" height="192" version="1" id="svg16">
  <defs>
    <filter style="color-interpolation-filters:sRGB" id="filter867" x="0.05" width="1.10" y="0.05" height="1.10">
      <feGaussianBlur stdDeviation="3.20"/>
    </filter>
    <filter style="color-interpolation-filters:sRGB" id="filter5353" x="0.07" y="0.08" width="1.14" height="1.16">
      <feGaussianBlur stdDeviation="3.30"/>
    </filter>
  </defs>
  <rect ry="80" rx="80" height="160" width="160" y="-176" x="-180" transform="matrix(0,-1,-1,0,0,0)" style="filter:url(#filter867);opacity:0.20;fill:#000000"/>
  <rect style="fill:#008fe1" transform="matrix(0,-1,-1,0,0,0)" x="-176" y="-176" width="160" height="160" rx="80" ry="80"/>
  <path style="opacity:0.20;fill:#ffffff" d="M 96 16 C 51.68 16 16 51.68 16 96 C 16 96.34 16.00 96.67 16 97 C 16 52.68 51.68 17 96 17 C 140.32 17 176 52.68 176 97 C 176.00 96.67 176 96.34 176 96 C 176 51.68 140.32 16 96 16 z "/>
  <path style="filter:url(#filter5353);opacity:0.20;fill:#000000" d="m 89.70,48.01 c -1.67,0.02 -4.94,0.43 -8.00,1.25 -7.55,2.04 -14.58,7.19 -19.71,14.15 -2.88,3.95 -5.01,7.96 -6.14,12.45 0.71,2.82 -1.04,5.83 0.92,9.13 0.01,5.95 1.80,15.74 6.50,23.37 12.06,22.86 11.72,23.77 -9.05,24.16 -13.25,0.25 -13.11,0.20 -10.80,3.95 2.14,3.47 10.55,8.06 18.94,10.33 3.47,0.94 5.92,1.17 11.24,1.06 3.13,0.07 8.28,0.11 12.27,-3.73 2.09,-2.03 2.76,-4.66 3.00,-9.97 0.44,-9.93 -1.79,-17.75 -9.38,-32.94 C 73.26,92.48 72.10,88.56 72.49,83.78 73.16,75.37 80.38,67.49 88.69,66.10 l 0.94,0.16 C 86.84,63.94 85,60.66 85,57.00 85,53.31 86.87,50.01 89.70,48.01 Z m 12.90,0.03 0.25,0.00 c 2.81,2.00 4.65,5.28 4.65,8.96 0,3.73 -1.90,7.05 -4.78,9.04 l 1.08,0.24 c 3.69,0.83 6.72,2.39 9.25,4.82 4.20,4.10 6.80,9.27 6.41,15.42 0.25,4.39 0.56,5.26 -5.33,15.17 -8.41,17.50 -9.61,21.33 -9.61,30.64 0.01,5.82 0.16,6.79 1.47,9.12 1.67,2.98 3.48,4.49 6.82,5.68 h 0.00 c 3.62,1.29 12.73,1.11 18.64,0.36 5.70,-1.42 13.94,-5.06 16.72,-7.39 2.29,-1.92 3.95,-4.31 3.95,-5.71 0.00,0.95 0.88,-1.04 -10.27,-1.04 -11.55,0 -15.96,0.61 -17.95,-2.48 -2.55,-2.39 -1.96,-4.57 4.83,-17.84 3.62,-7.07 6.75,-14.03 7.52,-16.75 1.83,-6.41 1.83,-14.84 0.01,-20.71 -1.77,-5.70 -6.22,-12.30 -11.27,-17.19 -5.56,-5.33 -13.52,-8.87 -21.90,-9.63 z M 96,50.00 a 7,7 0 0 0 -7,7 7,7 0 0 0 7,7 7,7 0 0 0 7,-7 7,7 0 0 0 -7,-7 z"/>
  <path style="fill:#093fad" d="M 89.70 46.01 C 88.03 45.99 84.76 46.44 81.70 47.27 C 74.15 49.30 67.12 54.46 61.98 61.42 C 59.10 65.37 56.98 69.38 55.84 73.87 C 55.13 76.69 54.80 79.70 54.92 83 C 54.91 88.95 56.72 98.74 61.42 106.37 C 73.48 129.23 73.14 130.14 52.37 130.53 C 39.12 130.78 39.25 130.73 41.57 134.48 C 43.71 137.95 52.12 142.53 60.50 144.80 C 63.98 145.75 66.42 145.98 71.75 145.87 C 74.88 145.80 80.03 145.76 84.01 142.13 C 86.11 140.10 86.77 137.47 87.01 132.16 C 87.45 122.24 85.22 114.42 77.63 99.22 C 73.26 90.47 72.10 86.56 72.49 81.78 C 73.16 73.36 80.38 65.48 88.69 64.10 L 89.63 63.94 C 86.84 61.94 85 58.66 85 55 C 85 51.31 86.87 48.01 89.70 46.01 z M 102.60 46.04 L 102.35 46.04 C 105.15 48.05 107 51.33 107 55 C 107 58.73 105.10 62.05 102.22 64.04 L 103.29 64.29 C 106.98 65.11 110.02 66.68 112.55 69.11 C 116.75 73.21 119.34 78.38 118.96 84.53 C 118.71 88.91 118.40 89.78 113.63 99.70 C 105.22 117.20 104.02 121.03 104.03 130.34 C 104.03 136.15 104.19 137.12 105.49 139.46 C 107.16 142.44 108.97 143.95 112.31 145.14 L 112.31 145.14 C 115.93 146.42 125.05 146.25 130.95 144.77 C 136.65 143.35 144.89 139.71 147.67 137.38 C 149.96 135.47 151.62 133.07 151.62 131.67 C 151.63 130.72 150.75 130.63 141.35 130.63 C 129.80 130.63 125.39 130.03 123.40 128.16 C 120.86 125.76 121.44 123.59 128.24 110.32 C 131.86 103.25 134.99 96.29 135.76 93.57 C 137.59 87.16 137.59 78.73 135.77 72.86 C 134.00 67.16 129.55 60.56 124.50 55.68 C 118.94 50.34 110.98 46.81 102.60 46.04 z M 96 48 A 7 7 0 0 0 89 55 A 7 7 0 0 0 96 62 A 7 7 0 0 0 103 55 A 7 7 0 0 0 96 48 z "/>
</svg>
