<?xml version='1.0' encoding='utf-8'?>
<svg xmlns="http://www.w3.org/2000/svg" width="192" height="192" version="1" id="svg12">
  <defs>
    <filter style="color-interpolation-filters:sRGB" id="filter8699" x="0.04" y="0.06" width="1.08" height="1.12">
      <feGaussianBlur stdDeviation="2.21"/>
    </filter>
    <filter style="color-interpolation-filters:sRGB" id="filter8993" x="0.04" y="0.06" width="1.09" height="1.11">
      <feGaussianBlur stdDeviation="2.66"/>
    </filter>
  </defs>
  <path style="fill:#3781e9" d="M 150,25.00 H 119.08 C 109.80,25.00 109.89,31 102.65,31 H 34 c -7.76,0 -14,6.24 -14,14 v 82 c 0,7.76 6.24,14 14,14 h 116 c 7.76,0 14,-6.24 14,-14 V 39.00 c 0,-7.76 -6.24,-14 -14,-14 z"/>
  <rect style="fill:#dedede" width="116" height="58" x="34" y="35" rx="3.92" ry="3.90"/>
  <rect style="fill:#ededed" width="124" height="58" x="30" y="41" rx="4.19" ry="3.90"/>
  <rect style="fill:#ffffff" width="130" height="58" x="27" y="48" rx="4.39" ry="3.90"/>
  <path style="filter:url(#filter8993);opacity:0.20;fill:#000000" d="m 31,51 h 33.82 c 9.28,0 9.20,8 16.43,8 H 153 c 7.76,0 14,6.24 14,14 v 80 c 0,7.76 -6.24,14 -14,14 H 31 c -7.76,0 -14,-6.24 -14,-14 V 65 c 0,-7.76 6.24,-14 14,-14 z"/>
  <path style="fill:#2ba6f5" d="m 31,47 h 33.82 c 9.28,0 9.20,8 16.43,8 H 153 c 7.76,0 14,6.24 14,14 v 80 c 0,7.76 -6.24,14 -14,14 H 31 c -7.76,0 -14,-6.24 -14,-14 V 61 c 0,-7.76 6.24,-14 14,-14 z"/>
  <path style="filter:url(#filter8699);opacity:0.20;fill:#000000" d="M 113,85 C 100.58,85.03 89.11,91.64 82.86,102.36 80.68,101.46 78.35,101.00 76,101 c -9.94,0.00 -17.99,8.05 -18.00,17.99 C 47.76,123.07 41.03,132.97 41,144 c 0,14.91 12.09,27 27,27 h 77 c 17.12,0 31,-13.88 31,-31 0.00,-16.64 -13.15,-30.31 -29.78,-30.97 C 141.49,94.69 128.10,85.00 113,85 Z m -18.15,30 h 26.74 l -6.31,11 H 88.53 Z m 44.15,0.00 c 3.64,0.08 7.00,1.27 9.69,2.63 3.56,1.47 2.03,2.36 0.01,5.06 -2.70,-1.62 -6.39,-3.15 -10.06,0.37 -9.03,6.85 -1.34,27.14 -9.65,34.81 -6.86,6.33 -26.43,2.98 -26.43,2.98 l 0.70,-2.88 c 0,0 10.40,0.20 13.50,-3.14 6.53,-7.06 0.25,-21.14 5.68,-29.48 5.32,-7.49 11.24,-9.73 16.56,-9.61 z M 83.94,134 h 26.74 l -5.74,10 H 93.24 l -4.02,7 h 11.70 l -5.74,10 H 71.87 c -2.73,0 -1.03,-4.17 -1.03,-4.17 z"/>
  <path style="fill:#ffffff" d="M 113 81 C 100.58 81.03 89.11 87.64 82.86 98.36 C 80.68 97.46 78.35 97.00 76 97 C 66.06 97.00 58.01 105.05 58.00 114.99 C 47.76 119.07 41.03 128.97 41 140 C 41 154.91 53.09 167 68 167 L 145 167 C 162.12 167 176 153.12 176 136 C 176.00 119.36 162.85 105.69 146.22 105.03 C 141.49 90.69 128.10 81.00 113 81 z M 94.85 111 L 121.58 111 L 115.27 122 L 88.53 122 L 94.85 111 z M 138.99 111.00 C 142.63 111.08 145.99 112.27 148.68 113.64 C 152.24 115.11 150.71 115.99 148.69 118.70 C 146.00 117.07 142.30 115.55 138.63 118.33 C 129.60 125.17 137.30 145.47 128.99 153.13 C 122.13 159.46 102.56 156.12 102.56 156.12 L 103.25 153.23 C 103.25 153.23 113.66 153.43 116.75 150.10 C 123.28 143.04 116.50 128.96 122.43 120.62 C 127.75 113.13 133.67 110.89 138.99 111.00 z M 83.94 130 L 110.68 130 L 104.94 140 L 93.24 140 L 89.22 147 L 100.92 147 L 95.18 157 L 71.87 157 C 69.14 157 70.84 152.83 70.84 152.83 L 83.94 130 z "/>
  <path style="opacity:0.20;fill:#ffffff" d="M 119.08 25 C 109.80 25 109.89 31 102.65 31 L 34 31 C 26.24 31 20 37.24 20 45 L 20 46 C 20 38.24 26.24 32 34 32 L 102.65 32 C 109.89 32 109.80 26 119.08 26 L 150 26 C 157.76 26 164 32.24 164 40 L 164 39 C 164 31.24 157.76 25 150 25 L 119.08 25 z "/>
</svg>
