<?xml version='1.0' encoding='utf-8'?>
<svg xmlns="http://www.w3.org/2000/svg" width="192" height="192" version="1" id="svg14">
  <defs>
    <filter style="color-interpolation-filters:sRGB" id="filter846" x="0.05" width="1.10" y="0.05" height="1.09">
      <feGaussianBlur stdDeviation="3.04"/>
    </filter>
    <filter style="color-interpolation-filters:sRGB" id="filter874" x="0.05" width="1.10" y="0.05" height="1.09">
      <feGaussianBlur stdDeviation="2.00"/>
    </filter>
  </defs>
  <path style="filter:url(#filter846);opacity:0.20;fill:#000000" d="M 48.67,20.01 C 35.16,19.63 24.00,30.48 24,44.00 V 155.97 c 0.00,18.52 20.09,30.06 36.09,20.73 l 96.00,-55.99 c 15.87,-9.26 15.87,-32.19 0,-41.45 L 108.09,51.26 60.09,23.27 C 56.62,21.24 52.69,20.12 48.67,20.01 Z"/>
  <path d="M 48.67,16.01 C 35.16,15.63 24.00,26.48 24,40.00 V 151.97 c 0.00,18.52 20.09,30.06 36.09,20.73 l 96.00,-55.99 c 15.87,-9.26 15.87,-32.19 0,-41.45 L 108.09,47.26 60.09,19.27 C 56.62,17.24 52.69,16.12 48.67,16.01 Z" style="fill:#23ae88"/>
  <path d="M 56.12,48.00 A 11.84,11.48 0 0 0 44,59.48 v 81.05 a 11.84,11.48 0 0 0 17.74,9.94 L 68,146.97 V 88.05 c 0,-2.25 1.76,-4.05 3.95,-4.05 h 0.11 C 74.24,84.00 76,85.81 76,88.05 V 142.49 L 97.94,130.22 104,126.82 v -22.77 c 0,-2.25 1.76,-4.05 3.95,-4.05 h 0.11 c 2.19,0 3.95,1.81 3.95,4.05 v 18.28 l 22.11,-12.39 a 11.84,11.48 0 0 0 0,-19.86 L 97.94,69.80 61.74,49.56 a 11.84,11.48 0 0 0 -5.62,-1.56 z" style="filter:url(#filter874);opacity:0.20"/>
  <path d="M 56.12,44 A 11.84,11.48 0 0 0 44,55.48 v 40.53 40.52 a 11.84,11.48 0 0 0 17.74,9.94 L 68,142.97 V 84.05 C 68,81.81 69.76,80 71.95,80 h 0.11 C 74.24,80 76,81.81 76,84.05 V 138.49 L 97.94,126.22 104,122.82 V 100.05 C 104,97.81 105.76,96 107.95,96 h 0.11 C 110.24,96 112,97.81 112,100.05 v 18.28 l 22.11,-12.39 a 11.84,11.48 0 0 0 0,-19.86 L 97.94,65.80 61.74,45.56 A 11.84,11.48 0 0 0 56.12,44 Z" style="fill:#ffffff"/>
  <path style="opacity:0.20;fill:#ffffff" d="M 47.41 16.01 C 34.47 16.31 24.00 26.90 24 40.00 L 24 41.00 C 24.00 27.48 35.16 16.63 48.67 17.01 C 52.69 17.12 56.62 18.24 60.09 20.27 L 108.10 48.26 L 156.10 76.26 C 163.87 80.79 167.82 88.61 167.98 96.49 C 168.15 88.27 164.20 79.99 156.10 75.26 L 108.10 47.26 L 60.09 19.27 C 56.62 17.24 52.69 16.12 48.67 16.01 C 48.25 16.00 47.83 16.00 47.41 16.01 z "/>
</svg>
