<?xml version='1.0' encoding='utf-8'?>
<svg xmlns="http://www.w3.org/2000/svg" width="192" height="192" version="1.1" id="svg12">
  <defs>
    <filter style="color-interpolation-filters:sRGB" id="filter845" x="0.05" y="0.05" width="1.10" height="1.10">
      <feGaussianBlur stdDeviation="3.20"/>
    </filter>
    <filter style="color-interpolation-filters:sRGB" id="filter849" x="0.07" y="0.04" width="1.13" height="1.07">
      <feGaussianBlur stdDeviation="1.62"/>
    </filter>
  </defs>
  <rect style="filter:url(#filter845);opacity:0.20" width="160" height="160" x="16" y="20" rx="8" ry="8"/>
  <rect style="fill:#3f5979" width="160" height="160" x="16" y="16" rx="8" ry="8"/>
  <path style="opacity:0.10;fill:#ffffff" d="M 24 16 C 19.57 16 16 19.57 16 24 L 16 25 C 16 20.57 19.57 17 24 17 L 168 17 C 172.43 17 176 20.57 176 25 L 176 24 C 176 19.57 172.43 16 168 16 L 24 16 z "/>
  <path style="filter:url(#filter849);opacity:0.20" d="m 80,90.00 v 36.00 c 0,4.85 2.81,24 24,24 16,0 21.83,-6.74 21.83,-6.74 L 120,128.82 c 0,0 -16,5.32 -16,-6.82 V 90.00 h 16 v -20 h -16 v -24 H 88 c 0,0 0.79,13.78 -5.80,20.11 -5.00,6.33 -14.20,7.89 -14.20,7.89 v 16 z"/>
  <path style="fill:#ffffff" d="m 80,88 v 36 c 0,4.85 2.81,24 24,24 16,0 21.83,-6.74 21.83,-6.74 L 120,126.82 c 0,0 -16,5.32 -16,-6.82 V 88 h 16 V 68 H 104 V 44 H 88 C 88,44 87.21,57.78 82.20,64.11 77.20,70.44 68,72 68,72 v 16 z"/>
</svg>
