<?xml version='1.0' encoding='utf-8'?>
<svg xmlns="http://www.w3.org/2000/svg" width="192" height="192" version="1.1" id="svg14">
  <defs>
    <filter style="color-interpolation-filters:sRGB" id="filter4770" x="0.05" y="0.04" width="1.11" height="1.09">
      <feGaussianBlur stdDeviation="2.92"/>
    </filter>
    <filter style="color-interpolation-filters:sRGB" id="filter4774" x="0.05" y="0.04" width="1.11" height="1.09">
      <feGaussianBlur stdDeviation="2.36"/>
    </filter>
  </defs>
  <path style="filter:url(#filter4770);opacity:0.20;fill:#000000;color:#000000" d="M 63,20 C 44.94,20 30,34.94 30,53 v 61 c 0,36.28 29.72,66 66,66 36.28,0 66,-29.72 66,-66 0,-36.28 -29.72,-66 -66,-66 a 14.00,14.00 0 0 0 0.08,0 c 0.47,0.00 0.94,0.10 -1.41,0.11 C 92.17,32.95 79.32,20 63,20 Z"/>
  <path style="fill:#22b52d;color:#000000" d="M 63 16 C 44.94 16 30 30.94 30 49 L 30 110 C 30 146.28 59.72 176 96 176 C 132.28 176 162 146.28 162 110 C 162 73.72 132.28 44 96 44 A 14.00 14.00 0 0 0 95.92 44 C 95.45 44.00 94.98 44.10 94.51 44.11 C 92.17 28.95 79.32 16 63 16 z "/>
  <path style="filter:url(#filter4774);opacity:0.20;fill:#000000" d="m 63,32.00 c -10.49,0 -19,8.51 -19,19 v 61.00 a 52,52 0 0 0 52,52 52,52 0 0 0 52,-52 A 52,52 0 0 0 96,60.00 52,52 0 0 0 81,62.30 V 51.00 c 0,-10.49 -7.51,-19 -18,-19 z m 0,8 c 6.63,0 11,5.37 11,12 v 60.00 c 0,12.15 9.85,22 22,22 12.15,0 22,-9.85 22,-22 0,-12.15 -9.85,-22.00 -22,-22.00 -5.80,0 -11.07,2.26 -15,5.94 v -9.92 a 30,30 0 0 1 15,-4.02 30,30 0 0 1 30,30.00 30,30 0 0 1 -30,30 30,30 0 0 1 -30,-30 V 51.50 a 3.50,3.50 0 0 0 -3.50,-3.50 3.50,3.50 0 0 0 -3.50,3.50 v 60.50 a 37,37 0 0 0 37,37 37,37 0 0 0 37,-37 37,37 0 0 0 -37,-37.00 37,37 0 0 0 -15,3.29 v -8.60 a 45,45 0 0 1 15,-2.69 45,45 0 0 1 45,45.00 45,45 0 0 1 -45,45 45,45 0 0 1 -45,-45 V 52.00 c 0,-6.63 5.37,-12 12,-12 z m 33,57 a 15,15 0 0 1 15,15.00 15,15 0 0 1 -15,15 15,15 0 0 1 -15,-15 15,15 0 0 1 15,-15.00 z"/>
  <path style="fill:#ffffff" d="M 63 30 C 52.51 30 44 38.51 44 49 L 44 110 A 52 52 0 0 0 96 162 A 52 52 0 0 0 148 110 A 52 52 0 0 0 96 58 A 52 52 0 0 0 81 60.29 L 81 49 C 81 38.51 73.49 30 63 30 z M 63 38 C 69.63 38 74 43.37 74 50 L 74 110 C 74 122.15 83.85 132 96 132 C 108.15 132 118 122.15 118 110 C 118 97.85 108.15 88 96 88 C 90.20 88 84.93 90.26 81 93.94 L 81 84.02 A 30 30 0 0 1 96 80 A 30 30 0 0 1 126 110 A 30 30 0 0 1 96 140 A 30 30 0 0 1 66 110 L 66 49.50 A 3.50 3.50 0 0 0 62.50 46 A 3.50 3.50 0 0 0 59 49.50 L 59 110 A 37 37 0 0 0 96 147 A 37 37 0 0 0 133 110 A 37 37 0 0 0 96 73 A 37 37 0 0 0 81 76.29 L 81 67.69 A 45 45 0 0 1 96 65 A 45 45 0 0 1 141 110 A 45 45 0 0 1 96 155 A 45 45 0 0 1 51 110 L 51 50 C 51 43.37 56.37 38 63 38 z M 96 95 A 15 15 0 0 1 111 110 A 15 15 0 0 1 96 125 A 15 15 0 0 1 81 110 A 15 15 0 0 1 96 95 z "/>
  <path style="opacity:0.20;fill:#ffffff;color:#000000" d="M 63 16 C 44.94 16 30 30.94 30 49 L 30 50 C 30 31.94 44.94 17 63 17 C 79.32 17 92.17 29.95 94.51 45.11 C 94.98 45.10 95.45 45.00 95.92 45 A 14.00 14.00 0 0 1 96 45 C 132.12 45 161.71 74.44 161.99 110.50 C 161.99 110.33 162 110.17 162 110 C 162 73.72 132.28 44 96 44 A 14.00 14.00 0 0 0 95.92 44 C 95.45 44.00 94.98 44.10 94.51 44.11 C 92.17 28.95 79.32 16 63 16 z "/>
</svg>
