<?xml version='1.0' encoding='utf-8'?>
<svg xmlns="http://www.w3.org/2000/svg" width="192" height="192" version="1" id="svg14">
  <defs>
    <filter style="color-interpolation-filters:sRGB" id="filter850" x="0.05" width="1.11" y="0.04" height="1.09">
      <feGaussianBlur stdDeviation="2.88"/>
    </filter>
    <filter style="color-interpolation-filters:sRGB" id="filter863" x="0.03" width="1.06" y="0.02" height="1.04">
      <feGaussianBlur stdDeviation="1.11"/>
    </filter>
  </defs>
  <path style="filter:url(#filter850);opacity:0.20;fill:#000000" d="m 96.00,20.00 -31.83,14.46 -32.17,14.47 0.06,25.94 c 0.21,20.26 0.08,27.87 1.35,34.79 5.79,31.59 27.39,58.20 55.97,68.97 2.46,0.93 4.45,1.41 6.62,1.37 2.16,0.04 4.16,0.45 6.62,-1.37 28.58,-10.76 50.18,-37.38 55.97,-68.97 1.27,-6.92 1.56,-14.53 1.35,-34.79 l 0.06,-25.94 -32.17,-14.47 z"/>
  <path d="m 96.00,16 -31.83,14.46 -32.17,14.47 0.06,25.94 c 0.21,20.26 0.08,27.87 1.35,34.79 5.79,31.59 27.39,58.20 55.97,68.97 2.46,0.93 4.45,1.41 6.62,1.37 2.16,0.04 4.16,0.45 6.62,-1.37 28.58,-10.76 50.18,-37.38 55.97,-68.97 1.27,-6.92 1.56,-14.53 1.35,-34.79 l 0.06,-25.94 -32.17,-14.47 z" style="fill:#ff7e40"/>
  <path d="m 96,35.58 -25.23,11.46 -22.74,10.23 0.04,15.66 v 0.11 c 0.14,13.03 0.02,20.02 0.33,24.96 H 96 Z m 0,62.42 v 64.00 c 0.07,0.03 0.29,0.09 0.98,0.35 22.93,-8.64 41.07,-30.66 45.87,-56.88 0.34,-1.86 0.57,-4.11 0.76,-6.77 z" style="filter:url(#filter863);opacity:0.10"/>
  <path d="m 96,33.58 -25.23,11.46 -22.74,10.23 0.04,15.66 v 0.11 c 0.14,13.03 0.02,20.02 0.33,24.96 H 96 Z M 96,96 v 64 c 0.07,0.03 0.29,0.09 0.98,0.35 22.93,-8.64 41.07,-30.66 45.87,-56.88 0.34,-1.86 0.57,-4.11 0.76,-6.77 z" style="fill:#00655b"/>
  <path style="opacity:0.20;fill:#ffffff" d="M 96 16 L 64.17 30.46 L 32 44.93 L 32.00 45.93 L 64.17 31.46 L 96 17 L 127.83 31.46 L 160.00 45.93 L 160 44.93 L 127.83 30.46 L 96 16 z M 32.06 71.10 C 32.03 73.96 32.02 76.51 32.01 78.89 C 32.02 76.73 32.04 74.40 32.06 71.87 L 32.06 71.10 z M 159.94 71.10 L 159.94 71.87 C 159.96 74.40 159.98 76.73 159.99 78.89 C 159.98 76.51 159.97 73.96 159.94 71.10 z "/>
</svg>
