<?xml version='1.0' encoding='utf-8'?>
<svg xmlns="http://www.w3.org/2000/svg" width="192" height="192" version="1.1" id="svg12">
  <defs>
    <filter style="color-interpolation-filters:sRGB" id="filter845" x="-0.048000001" y="-0.048000001" width="1.096" height="1.096">
      <feGaussianBlur stdDeviation="3.2"/>
    </filter>
    <filter style="color-interpolation-filters:sRGB" id="filter1644" x="-0.0465" y="-0.0496" width="1.093" height="1.0992">
      <feGaussianBlur stdDeviation="1.86"/>
    </filter>
  </defs>
  <circle style="filter:url(#filter845);opacity:0.2" cx="96" cy="100" r="80"/>
  <circle style="fill:#fd5364" cx="96" cy="96" r="80"/>
  <path style="opacity:0.2;fill:#ffffff" d="M 96,15.998047 A 79.999996,79.99496 0 0 0 16,95.994141 79.999996,79.99496 0 0 0 16.023438,96.632812 79.999996,79.99496 0 0 1 96,17 79.999996,79.99496 0 0 1 175.98438,96.292969 79.999996,79.99496 0 0 0 176,95.994141 79.999996,79.99496 0 0 0 96,15.998047 Z"/>
  <path style="filter:url(#filter1644);opacity:0.2;fill:#000000;stop-color:#000000" d="M 96,48 A 21,21 0 0 0 75,69 21,21 0 0 0 96,90 21,21 0 0 0 117,69 21,21 0 0 0 96,48 Z M 69,96 A 21,21 0 0 0 48,117 21,21 0 0 0 69,138 21,21 0 0 0 90,117 21,21 0 0 0 69,96 Z m 54,0 a 21,21 0 0 0 -21,21 21,21 0 0 0 21,21 21,21 0 0 0 21,-21 21,21 0 0 0 -21,-21 z"/>
  <path style="fill:#ffffff;stop-color:#000000" d="M 96,44 A 21,21 0 0 0 75,65 21,21 0 0 0 96,86 21,21 0 0 0 117,65 21,21 0 0 0 96,44 Z M 69,92 A 21,21 0 0 0 48,113 21,21 0 0 0 69,134 21,21 0 0 0 90,113 21,21 0 0 0 69,92 Z m 54,0 a 21,21 0 0 0 -21,21 21,21 0 0 0 21,21 21,21 0 0 0 21,-21 21,21 0 0 0 -21,-21 z"/>
</svg>
