<?xml version='1.0' encoding='utf-8'?>
<svg xmlns="http://www.w3.org/2000/svg" width="192" height="192" version="1" id="svg14">
  <defs>
    <filter style="color-interpolation-filters:sRGB" id="filter850" x="0.05" width="1.10" y="0.05" height="1.10">
      <feGaussianBlur stdDeviation="3.20"/>
    </filter>
    <filter style="color-interpolation-filters:sRGB" id="filter4098" x="0.07" y="0.07" width="1.15" height="1.15">
      <feGaussianBlur stdDeviation="3.62"/>
    </filter>
  </defs>
  <circle style="filter:url(#filter850);opacity:0.20;fill:#000000" cx="96" cy="100" r="80"/>
  <circle r="80" cy="96" cx="96" style="fill:#ffac30"/>
  <circle style="fill:#3f3f3f" cx="96" cy="96" r="38"/>
  <path style="fill:#38adfa" d="m 688.81,257.00 c 0.33,0.33 -1.19,0.37 -1.92,0.08 0.80,0.32 0.56,0.56 0.60,0.60 1.05,0.04 1.64,0.19 1.31,0.53 z"/>
  <path style="opacity:0.20;fill:#ffffff" d="M 96 16 A 80 80 0 0 0 16 96 A 80 80 0 0 0 16.02 96.47 A 80 80 0 0 1 96 17 A 80 80 0 0 1 175.97 96.51 A 80 80 0 0 0 176 96 A 80 80 0 0 0 96 16 z "/>
  <path style="fill:#3f3f3f" d="m 143.98,126.61 c 8.53,9.25 16.62,13.35 24.23,11.78 l -3.81,11.62 c -8.65,-2.19 -17.86,-2.34 -21.82,-21.77 z"/>
  <path style="filter:url(#filter4098);opacity:0.20;fill:#000000" d="M 96,40 A 58,58 0 0 0 38,98 58,58 0 0 0 96,156 58,58 0 0 0 154,98 58,58 0 0 0 96,40 Z m 0,9 A 16,16 0 0 1 112,65 16,16 0 0 1 96,81 16,16 0 0 1 80,65 16,16 0 0 1 96,49 Z M 65.59,72.01 a 16,16 0 0 1 4.48,0.81 16,16 0 0 1 10.11,20.24 A 16,16 0 0 1 59.93,103.18 16,16 0 0 1 49.82,82.93 16,16 0 0 1 65.59,72.01 Z m 60.82,0 a 16,16 0 0 1 15.76,10.92 16,16 0 0 1 -10.11,20.24 16,16 0 0 1 -20.24,-10.11 16,16 0 0 1 10.11,-20.24 16,16 0 0 1 4.48,0.81 z M 89,85 a 2,2 0 0 1 2,2 2,2 0 0 1 -2,2 2,2 0 0 1 -2,-2 2,2 0 0 1 2,-2 z m 15,0 a 2,2 0 0 1 2,2 2,2 0 0 1 -2,2 2,2 0 0 1 -2,-2 2,2 0 0 1 2,-2 z m -8,6 a 7,7 0 0 1 7,7 7,7 0 0 1 -7,7 7,7 0 0 1 -7,-7 7,7 0 0 1 7,-7 z m -12,8 a 2,2 0 0 1 2,2 2,2 0 0 1 -2,2 2,2 0 0 1 -2,-2 2,2 0 0 1 2,-2 z m 24,0 a 2,2 0 0 1 2,2 2,2 0 0 1 -2,2 2,2 0 0 1 -2,-2 2,2 0 0 1 2,-2 z m -12,9 a 2,2 0 0 1 2,2 2,2 0 0 1 -2,2 2,2 0 0 1 -2,-2 2,2 0 0 1 2,-2 z m -17.99,0.03 a 16,16 0 0 1 8.47,3.08 16,16 0 0 1 3.40,22.37 16,16 0 0 1 -22.37,3.40 16,16 0 0 1 -3.40,-22.37 16,16 0 0 1 13.90,-6.48 z m 35.97,0 a 16,16 0 0 1 13.90,6.48 16,16 0 0 1 -3.40,22.37 16,16 0 0 1 -22.37,-3.40 16,16 0 0 1 3.40,-22.37 16,16 0 0 1 8.47,-3.08 z"/>
  <path style="fill:#fbfbfb" d="M 96 38 A 58 58 0 0 0 38 96 A 58 58 0 0 0 96 154 A 58 58 0 0 0 154 96 A 58 58 0 0 0 96 38 z M 96 47 A 16 16 0 0 1 112 63 A 16 16 0 0 1 96 79 A 16 16 0 0 1 80 63 A 16 16 0 0 1 96 47 z M 65.59 70.01 A 16 16 0 0 1 70.07 70.82 A 16 16 0 0 1 80.18 91.07 A 16 16 0 0 1 59.93 101.18 A 16 16 0 0 1 49.82 80.93 A 16 16 0 0 1 65.59 70.01 z M 126.41 70.01 A 16 16 0 0 1 142.18 80.93 A 16 16 0 0 1 132.07 101.18 A 16 16 0 0 1 111.82 91.07 A 16 16 0 0 1 121.93 70.82 A 16 16 0 0 1 126.41 70.01 z M 89 83 A 2 2 0 0 1 91 85 A 2 2 0 0 1 89 87 A 2 2 0 0 1 87 85 A 2 2 0 0 1 89 83 z M 104 83 A 2 2 0 0 1 106 85 A 2 2 0 0 1 104 87 A 2 2 0 0 1 102 85 A 2 2 0 0 1 104 83 z M 96 89 A 7 7 0 0 1 103 96 A 7 7 0 0 1 96 103 A 7 7 0 0 1 89 96 A 7 7 0 0 1 96 89 z M 84 97 A 2 2 0 0 1 86 99 A 2 2 0 0 1 84 101 A 2 2 0 0 1 82 99 A 2 2 0 0 1 84 97 z M 108 97 A 2 2 0 0 1 110 99 A 2 2 0 0 1 108 101 A 2 2 0 0 1 106 99 A 2 2 0 0 1 108 97 z M 96 106 A 2 2 0 0 1 98 108 A 2 2 0 0 1 96 110 A 2 2 0 0 1 94 108 A 2 2 0 0 1 96 106 z M 78.01 106.03 A 16 16 0 0 1 86.49 109.12 A 16 16 0 0 1 89.88 131.49 A 16 16 0 0 1 67.51 134.88 A 16 16 0 0 1 64.12 112.51 A 16 16 0 0 1 78.01 106.03 z M 113.99 106.03 A 16 16 0 0 1 127.88 112.51 A 16 16 0 0 1 124.49 134.88 A 16 16 0 0 1 102.12 131.49 A 16 16 0 0 1 105.51 109.12 A 16 16 0 0 1 113.99 106.03 z "/>
</svg>
