<?xml version='1.0' encoding='utf-8'?>
<svg xmlns="http://www.w3.org/2000/svg" width="192" height="192" version="1" id="svg12">
  <defs>
    <filter style="color-interpolation-filters:sRGB" id="filter886" x="0.05" width="1.10" y="0.05" height="1.10">
      <feGaussianBlur stdDeviation="2.60"/>
    </filter>
    <filter style="color-interpolation-filters:sRGB" id="filter902" x="0.05" width="1.10" y="0.05" height="1.10">
      <feGaussianBlur stdDeviation="2.60"/>
    </filter>
    <filter style="color-interpolation-filters:sRGB" id="filter918" x="0.05" width="1.10" y="0.05" height="1.10">
      <feGaussianBlur stdDeviation="2.60"/>
    </filter>
  </defs>
  <rect style="filter:url(#filter886);opacity:0.20;fill:#000000" width="130" height="130" x="16" y="20" rx="39" ry="39"/>
  <rect ry="39" rx="39" y="16" x="16" height="130" width="130" style="fill:#048cbf"/>
  <path style="opacity:0.10;fill:#ffffff" d="M 55,16 C 33.39,16 16,33.39 16,55 v 1 C 16,34.39 33.39,17 55,17 h 52 c 21.61,0 39,17.39 39,39 V 55 C 146,33.39 128.61,16 107,16 Z"/>
  <rect ry="39" rx="39" y="36" x="30" height="130" width="130" style="filter:url(#filter902);opacity:0.20;fill:#000000"/>
  <rect style="fill:#03a2dd" width="130" height="130" x="30" y="32" rx="39" ry="39"/>
  <path style="opacity:0.10;fill:#ffffff" d="M 69,32 C 47.39,32 30,49.39 30,71 v 1 C 30,50.39 47.39,33 69,33 h 52 c 21.61,0 39,17.39 39,39 V 71 C 160,49.39 142.61,32 121,32 Z"/>
  <rect ry="39" rx="39" y="50" x="46" height="130" width="130" style="filter:url(#filter918);opacity:0.20;fill:#000000"/>
  <rect style="fill:#1dc0fc" width="130" height="130" x="46" y="46" rx="39" ry="39"/>
  <path style="opacity:0.60;fill:#000000;font-stretch:normal" d="m 72,84 v 28.15 l 5.58,2.39 c 1.01,0.25 2.27,0.50 3.78,0.74 1.51,0.30 3.37,0.45 4.78,0.45 7.19,0 10.79,2.69 10.79,8.06 0,2.88 0.91,4.22 -2.72,5.61 -1.76,1.34 -4.33,2.01 -7.70,2.01 -2.31,0 -5.18,0.32 -7.80,0.97 C 76.10,127.36 73.86,126.54 72,125.59 v 9.50 c 1.86,0.94 4.02,1.66 6.49,2.16 2.52,0.50 5.18,0.75 8,0.75 7.09,0 12.45,-1.64 16.08,-4.92 3.62,-3.33 5.43,-6.88 5.43,-12.65 0,-3.53 0.75,-6.74 -2.26,-9.12 -1.46,-2.39 -3.47,-4.20 -6.04,-5.45 -2.57,-1.24 -5.48,-1.87 -8.75,-1.87 -1.76,0 -3.14,0.10 -4.15,0.30 0.96,0.15 -3.94,0.30 -4.79,0.45 V 94 h 22 V 84 Z m 59.05,0 c -3.79,0 -7.07,0.49 -9.84,1.47 -2.72,0.98 -5.10,2.21 -7.14,3.68 l 5.10,7.65 c 1.21,0.78 2.75,-1.62 4.59,-2.50 1.85,0.88 4.41,-1.32 6.89,-1.32 2.67,0 4.57,0.54 5.68,1.62 1.17,1.03 1.75,2.58 1.75,4.44 0,1.37 0.32,2.60 0.95,3.68 0.58,1.03 -1.72,1.86 -3.42,2.50 -1.65,0.59 -4.48,0.88 -7.69,0.88 H 122 v 7.93 h 3.95 c 3.26,0 6.28,0.27 8.08,0.81 1.85,0.49 3.13,1.25 3.86,2.28 0.73,1.03 1.09,2.26 1.09,3.68 0,2.50 0.80,4.94 -2.41,6.31 -1.55,1.37 -4.30,2.06 -8.23,2.06 -2.14,0 -4.92,0.29 -7.35,0.88 -2.43,0.59 -4.76,-1.45 -7.00,-2.57 v 9.42 c 4.37,1.91 9.38,2.87 15.01,2.87 4.86,0 8.82,0.69 11.88,-2.06 3.11,-1.42 5.39,-3.34 6.85,-5.74 1.51,-2.45 2.26,-5.20 2.26,-8.24 0,-3.43 -1.09,-6.18 -3.28,-8.24 -2.19,-2.06 -5.35,-3.36 -9.47,-3.90 v 0.22 c 3.16,0.78 5.81,-2.26 7.94,-4.41 2.19,-2.16 3.28,-5.05 3.28,-8.68 0,-3.97 -1.58,-7.04 -4.74,-9.20 C 140.62,85.10 136.40,84 131.05,84 Z"/>
  <path style="opacity:0.20;fill:#ffffff" d="M 85,46 C 63.39,46 46,63.39 46,85 v 1 C 46,64.39 63.39,47 85,47 h 52 c 21.61,0 39,17.39 39,39 V 85 C 176,63.39 158.61,46 137,46 Z"/>
</svg>
