<?xml version='1.0' encoding='utf-8'?>
<svg xmlns="http://www.w3.org/2000/svg" width="192" height="192" version="1" id="svg28">
  <defs>
    <filter style="color-interpolation-filters:sRGB" id="filter2807" x="0.08" y="0.08" width="1.15" height="1.15">
      <feGaussianBlur stdDeviation="2.75"/>
    </filter>
    <filter style="color-interpolation-filters:sRGB" id="filter2811" x="0.07" y="0.07" width="1.15" height="1.15">
      <feGaussianBlur stdDeviation="2.75"/>
    </filter>
    <filter style="color-interpolation-filters:sRGB" id="filter2815" x="0.07" y="0.08" width="1.15" height="1.15">
      <feGaussianBlur stdDeviation="2.75"/>
    </filter>
    <filter style="color-interpolation-filters:sRGB" id="filter2924" x="0.10" y="0.06" width="1.19" height="1.12">
      <feGaussianBlur stdDeviation="1.79"/>
    </filter>
    <filter style="color-interpolation-filters:sRGB" id="filter2966" x="0.13" y="0.09" width="1.26" height="1.18">
      <feGaussianBlur stdDeviation="2.00"/>
    </filter>
    <filter style="color-interpolation-filters:sRGB" id="filter3009" x="0.08" y="0.08" width="1.15" height="1.15">
      <feGaussianBlur stdDeviation="2.06"/>
    </filter>
  </defs>
  <path style="filter:url(#filter2807);opacity:0.20;fill:#000000" d="M 94,91.00 A 44,44 0 0 0 50,135 44,44 0 0 0 94,179 44,44 0 0 0 138.00,135 44,44 0 0 0 94,91.00 Z"/>
  <path style="fill:#4f4f4f" d="M 94,88.00 A 44,44 0 0 0 50,132 44,44 0 0 0 94,176 44,44 0 0 0 138.00,132 44,44 0 0 0 94,88.00 Z"/>
  <path style="filter:url(#filter3009);opacity:0.20;fill:#000000" d="m 94,101 a 33.00,33.00 0 0 0 -33,33 33.00,33.00 0 0 0 33,33 33.00,33.00 0 0 0 33,-33 33.00,33.00 0 0 0 -33,-33 z m -7.76,7 h 18.86 l -4.41,15.41 5.66,-1.98 -2.92,11.63 -6.10,2.14 L 94.62,145 H 116 l -2.92,11 H 90.86 72 L 76.41,142.51 72,144.06 l 2.92,-11.63 4.85,-1.70 z"/>
  <path style="fill:#ffffff" d="M 94 99 A 33.00 33.00 0 0 0 61 132 A 33.00 33.00 0 0 0 94 165 A 33.00 33.00 0 0 0 127 132 A 33.00 33.00 0 0 0 94 99 z M 86.24 106 L 105.09 106 L 100.69 121.41 L 106.35 119.43 L 103.43 131.06 L 97.33 133.19 L 94.62 143 L 116 143 L 113.08 154 L 90.86 154 L 72 154 L 76.41 140.51 L 72 142.06 L 74.92 130.43 L 79.77 128.73 L 86.24 106 z "/>
  <path style="filter:url(#filter2815);opacity:0.20;fill:#000000" d="m 130,29.00 a 44,44 0 0 0 -44,44 A 44,44 0 0 0 130,117 a 44,44 0 0 0 44,-44.00 44,44 0 0 0 -44,-44 z"/>
  <path style="fill:#4c6a8f" d="m 130,26.00 a 44,44 0 0 0 -44,44 A 44,44 0 0 0 130,114 a 44,44 0 0 0 44,-44.00 44,44 0 0 0 -44,-44 z"/>
  <path style="filter:url(#filter2924);opacity:0.20;fill:#000000" d="M 130,36.80 119,54.40 108,72.00 130,85.20 152,72.00 141,54.40 Z m -22,39.60 11,15.40 11,15.40 11,-15.40 11,-15.40 -22,13.20 z"/>
  <path style="fill:#ffffff" d="m 130,34.80 11,17.60 11,17.60 -22,13.20 -22,-13.20 11,-17.60 z"/>
  <path style="fill:#ffffff" d="m 130,105.20 11,-15.40 11,-15.40 -22,13.20 -22,-13.20 11,15.40 z"/>
  <circle style="filter:url(#filter2811);opacity:0.20;fill:#000000" cx="61.00" cy="64" r="44"/>
  <path style="opacity:0.10;fill:#ffffff" d="M 130 26 A 44 44 0 0 0 86 70 A 44 44 0 0 0 86.04 70.50 A 44 44 0 0 1 130 27 A 44 44 0 0 1 173.98 70.26 A 44 44 0 0 0 174 70 A 44 44 0 0 0 130 26 z "/>
  <circle style="fill:#f7931a" cx="61.00" cy="61.00" r="44"/>
  <path style="filter:url(#filter2966);opacity:0.20;fill:#000000" d="m 52,37 v 9.00 c -1.07,0.04 -3.19,0.05 -4.21,0 H 41 V 50 c 0,0 3.72,0.06 3.66,0 C 46.66,49.97 47.79,51.42 48,52.38 v 21.45 c 0.08,0.61 0.51,2.12 -1.90,2.17 0.06,0.06 -5.10,0 -5.10,0 v 4 h 7.05 c 1.19,0.04 2.80,0 3.95,0 v 9.00 l 4,0.08 v -8.92 h 3.93 L 60.07,89 h 4.00 L 63.93,80.13 C 73,80 77.84,76 77.84,70.58 c 0,-3.25 -3.13,-7.58 -6.50,-7.58 C 72.55,63.00 75,58.67 75,54.33 75,50.60 73.31,47.17 69.15,46.21 68.48,46.05 64.76,46.00 64.00,46.00 l 0.00,-9.00 H 60 v 9.00 c -1.29,0 -2.68,0.05 -4.00,0 l 0.00,-9.00 z m 4.00,13 c 4.33,0 11.00,0.00 11.00,5.42 C 67.00,60.83 60.33,61 56.00,61 Z m 0,15 c 8.67,0.00 13.00,0.17 13.00,5.58 0.00,5.42 -4.34,5.42 -13.00,5.42 z"/>
  <path style="fill:#ffffff" d="m 52,35 v 9.00 c -1.07,0.04 -3.19,0.05 -4.21,0 H 41 V 48 c 0,0 3.72,0.06 3.66,0 C 46.66,47.97 47.79,49.42 48,50.38 v 21.45 c 0.08,0.61 0.51,2.12 -1.90,2.17 0.06,0.06 -5.10,0 -5.10,0 v 4 h 7.05 c 1.19,0.04 2.80,0 3.95,0 v 9.00 l 4,0.08 v -8.92 h 3.93 L 60.07,87 h 4.00 L 63.93,78.13 C 73,78 77.84,74 77.84,68.58 c 0,-3.25 -3.13,-7.58 -6.50,-7.58 C 72.55,61.00 75,56.67 75,52.33 75,48.60 73.31,45.17 69.15,44.21 68.48,44.05 64.76,44.00 64.00,44.00 l 0.00,-9.00 H 60 v 9.00 c -1.29,0 -2.68,0.05 -4.00,0 l 0.00,-9.00 z m 4.00,13 c 4.33,0 11.00,0.00 11.00,5.42 C 67.00,58.83 60.33,59 56.00,59 Z m 0,15 c 8.67,0.00 13.00,0.17 13.00,5.58 0.00,5.42 -4.34,5.42 -13.00,5.42 z"/>
  <path style="opacity:0.20;fill:#ffffff" d="M 61 17 A 44 44 0 0 0 17 61 A 44 44 0 0 0 17.04 61.50 A 44 44 0 0 1 61 18 A 44 44 0 0 1 104.98 61.26 A 44 44 0 0 0 105 61 A 44 44 0 0 0 61 17 z "/>
</svg>
