<?xml version='1.0' encoding='utf-8'?>
<svg xmlns="http://www.w3.org/2000/svg" width="192" height="192" version="1" id="svg16">
  <defs>
    <filter style="color-interpolation-filters:sRGB" id="filter867" x="0.05" width="1.10" y="0.05" height="1.10">
      <feGaussianBlur stdDeviation="3.20"/>
    </filter>
    <filter style="color-interpolation-filters:sRGB" id="filter5821" x="0.06" y="0.09" width="1.13" height="1.18">
      <feGaussianBlur stdDeviation="2.89"/>
    </filter>
  </defs>
  <rect ry="80" rx="80" height="160" width="160" y="-176" x="-180" transform="matrix(0,-1,-1,0,0,0)" style="filter:url(#filter867);opacity:0.20;fill:#000000"/>
  <rect style="fill:#255ebb" transform="matrix(0,-1,-1,0,0,0)" x="-176" y="-176" width="160" height="160" rx="80" ry="80"/>
  <path style="filter:url(#filter5821);opacity:0.20;fill:#000000" d="m 45.88,68 c -4.91,0 -5.16,2.30 0.75,6.95 3.73,3.93 13.44,11.29 23.63,17.89 l 2.72,1.76 0.49,-1.59 c 0.27,0.88 0.54,-1.74 0.61,-1.92 0.08,0.21 0.40,0.70 -1.34,-1.37 -1.61,-1.15 -3.46,-2.93 -3.91,-3.77 0.49,0.90 0.13,-1.69 0.86,-1.87 1.22,0.23 4.71,0.44 8.18,1.56 13.22,4.28 38.06,17.87 44.65,24.43 1.77,1.76 2.48,3.53 1.57,3.88 0.78,0.30 -3.16,0.00 -5.60,0.69 0.40,0.11 0.73,0.13 -1.69,1.28 0.65,0.78 -1.19,1.51 -1.19,1.62 0,0.22 2.68,1.36 8.50,3.62 7.72,3.00 14.53,5.27 19.09,6.35 3.73,0.89 3.72,0.89 5.62,0.84 1.27,0.03 1.78,0.15 2.15,0.48 3.34,-3.01 -9.61,-14.05 -32.57,-27.76 C 87.99,81.49 56.83,68 45.88,68 Z M 95.50,76 c -4.20,0.02 -8.31,1.16 -11.92,3.30 10.80,5.07 22.61,11.31 34.10,18.16 0.44,0.26 0.85,0.52 1.29,0.78 C 118.30,85.77 107.99,76.00 95.50,76 Z M 75.63,86.98 C 73.26,90.73 72.01,95.07 72,99.50 c 0,12.98 10.52,23.50 23.50,23.50 9.41,0.01 17.90,-5.64 21.58,-14.29 -3.87,-2.94 -10.02,-6.78 -16.62,-10.39 -8.63,-4.72 -18.13,-9.17 -24.55,-11.25 0.10,0.03 0.19,0.05 0.28,0.08 z M 59.00,131 c -1.07,0 -2.13,0.41 -2.54,1.24 0.24,0.48 -1.02,2.70 -3.26,9.26 L 52,145 h 1.53 1.53 L 55.36,144.02 55.66,143 h 3.32 3.32 l 0.32,1.02 L 62.93,145 H 64.46 66 l -1.02,-2.93 c 0.56,-1.61 -1.51,-4.37 -2.11,-6.14 0.60,-1.77 -1.20,-3.43 -1.33,-3.69 C 61.13,131.41 60.06,131 59.00,131 Z m 3.20,0 0.67,1.36 L 63.54,134 h 2.08 C 68.11,134 69,134.00 69,134.93 69,136.04 68.41,136 66.23,136 h -2.12 l 2.22,6.41 L 72,145 v -3.19 L 66.32,139 h 1.07 c 1.61,0 2.79,0.24 3.70,-1.28 1.14,-1.31 1.23,-3.82 0.18,-5.31 0.20,0.28 0.75,0.71 -1.23,0.96 C 69.27,131.06 68.46,131 65.45,131 Z m -3.25,3 2.25,6 h -4.50 z"/>
  <path style="opacity:0.10;fill:#ffffff" d="M 96 16 C 51.68 16 16 51.68 16 96 C 16 96.34 16.00 96.67 16 97 C 16 52.68 51.68 17 96 17 C 140.32 17 176 52.68 176 97 C 176.00 96.67 176 96.34 176 96 C 176 51.68 140.32 16 96 16 z "/>
  <path style="fill:#ffffff" d="m 95.50,74 c -4.20,0.02 -8.31,1.16 -11.92,3.30 10.80,5.07 22.61,11.31 34.10,18.16 0.44,0.26 0.85,0.52 1.29,0.78 C 118.30,83.77 107.99,74.00 95.50,74 Z M 75.63,84.98 C 73.26,88.73 72.01,93.07 72,97.50 c 0,12.98 10.52,23.50 23.50,23.50 9.41,0.01 17.90,-5.64 21.58,-14.29 -3.87,-2.94 -10.02,-6.78 -16.62,-10.39 -8.63,-4.72 -18.13,-9.17 -24.55,-11.25 0.10,0.03 0.19,0.05 0.28,0.08 z"/>
  <path style="fill:#3bb2ff" d="M 149.48,124.50 C 152.82,121.49 139.87,110.45 116.91,96.75 87.99,79.49 56.83,66 45.88,66 c -4.91,0 -5.16,2.30 0.75,6.95 3.73,3.93 13.45,11.29 23.63,17.89 l 2.72,1.76 0.49,-1.60 c 0.27,0.88 0.54,-1.74 0.61,-1.92 0.08,0.21 0.40,0.70 -1.34,-1.37 -1.61,-1.15 -3.46,-2.93 -3.92,-3.77 0.49,0.90 0.13,-1.69 0.86,-1.87 1.22,0.23 4.71,0.44 8.18,1.57 13.22,4.28 38.06,17.87 44.65,24.43 1.77,1.76 2.49,3.53 1.57,3.88 0.78,0.30 -3.16,0.00 -5.60,0.69 0.40,0.11 0.73,0.13 -1.69,1.28 0.65,0.78 -1.19,1.51 -1.19,1.62 0,0.22 2.68,1.36 8.50,3.62 7.72,3.00 14.53,5.27 19.09,6.35 3.73,0.89 3.72,0.89 5.62,0.84 1.27,0.03 1.78,0.15 2.15,0.48 z"/>
  <path style="fill:#ffffff" d="M 59.00 129 C 57.93 129 56.86 129.41 56.46 130.24 C 56.22 130.71 55.44 132.94 53.20 139.50 L 52 143 L 53.53 143 L 55.06 143 L 55.36 142.02 L 55.66 141 L 58.98 141 L 62.30 141 L 62.62 142.02 L 62.93 143 L 64.46 143 L 66 143 L 64.98 140.07 C 64.43 138.46 63.47 135.70 62.87 133.93 C 62.27 132.16 61.67 130.50 61.54 130.24 C 61.13 129.41 60.06 129 59.00 129 z M 58.95 132 L 61.20 138 L 56.70 138 L 58.95 132 z "/>
  <path style="fill:#3bb2ff" d="M 72,139.81 66.32,137 h 1.07 c 1.61,0 2.80,0.24 3.70,-1.27 1.14,-1.31 1.23,-3.82 0.18,-5.31 0.20,0.28 0.75,0.71 -1.23,0.96 0.76,0.39 -1.58,0.45 -4.58,0.45 h -3.25 l 0.67,1.36 L 63.54,132 h 2.08 C 68.11,132 69,132.00 69,132.93 69,134.04 68.41,134 66.23,134 h -2.12 l 2.22,6.41 L 72,143.00 Z"/>
</svg>
