<?xml version='1.0' encoding='utf-8'?>
<svg xmlns="http://www.w3.org/2000/svg" width="192" height="192" version="1" id="svg28">
  <defs>
    <filter style="color-interpolation-filters:sRGB" id="filter6495" x="0.05" y="0.05" width="1.10" height="1.10">
      <feGaussianBlur stdDeviation="3.20"/>
    </filter>
    <filter style="color-interpolation-filters:sRGB" id="filter4738" x="0.15" y="0.08" width="1.31" height="1.17">
      <feGaussianBlur stdDeviation="2.95"/>
    </filter>
  </defs>
  <rect transform="matrix(0,-1,-1,0,0,0)" ry="12" rx="12" y="-176" x="-180" height="160" width="160" style="filter:url(#filter6495);opacity:0.20;fill:#000000"/>
  <rect transform="matrix(0,-1,-1,0,0,0)" ry="12" rx="12" y="-176" x="-176" height="160" width="160" style="fill:#f8c500"/>
  <path style="opacity:0.20;fill:#ffffff" d="m 28,16 c -6.65,0 -12,5.35 -12,12 v 1 c 0,-6.65 5.35,-12 12,-12 h 136 c 6.65,0 12,5.35 12,12 v -1 c 0,-6.65 -5.35,-12 -12,-12 z"/>
  <path style="filter:url(#filter4738);opacity:0.20;fill:#000000" d="m 73,56 v 46 h 21.20 c 0.15,1.09 -1.20,5.42 -1.86,7.19 0.94,2.54 -2.76,6.01 -4.54,8.65 -1.72,2.55 -6.31,7.48 -8.42,9.04 l -1.28,0.95 6.57,6.58 C 88.28,138.04 91.37,141 91.54,141 c 0.17,0 1.64,-1.02 3.27,-2.26 3.43,-2.62 7.74,-6.83 10.58,-10.35 5.85,-7.25 10.52,-17.12 12.32,-26.01 C 118.89,96.53 119,94.24 119,74.78 V 56 Z"/>
  <path style="fill:#ffffff" d="M 73 54 L 73 100 L 94.20 100 C 94.05 101.09 93.00 105.42 92.34 107.19 C 91.40 109.73 89.58 113.21 87.80 115.84 C 86.08 118.39 81.49 123.32 79.39 124.88 L 78.10 125.83 L 84.67 132.42 C 88.28 136.04 91.37 139 91.54 139 C 91.70 139 93.17 137.98 94.80 136.74 C 98.24 134.12 102.55 129.91 105.39 126.39 C 111.24 119.14 115.91 109.27 117.71 100.38 C 118.89 94.53 119 92.24 119 72.78 L 119 54 L 73 54 z "/>
</svg>
