<svg xmlns="http://www.w3.org/2000/svg" id="svg18" width="192" height="192" version="1.1"><defs><filter style="color-interpolation-filters:sRGB" id="filter857" width="1.1" height="1.1" x=".05" y=".05"><feGaussianBlur stdDeviation="3.2"/></filter><filter style="color-interpolation-filters:sRGB" id="filter887" width="1.1" height="1.1" x=".05" y=".05"><feGaussianBlur stdDeviation="2.56"/></filter><filter style="color-interpolation-filters:sRGB" id="filter891" width="1.19" height="1.06" x=".1" y=".03"><feGaussianBlur stdDeviation=".96"/></filter></defs><circle style="filter:url(#filter857);opacity:.2" cx="96" cy="100" r="80"/><circle style="fill:#e4e4e4" cx="96" cy="96" r="80"/><circle style="opacity:.2" cx="96" cy="96" r="24"/><path style="opacity:.2;fill:#fff" d="M 96 16 A 80 80 0 0 0 16 96 A 80 80 0 0 0 16.02 96.66 A 80 80 0 0 1 96 17 A 80 80 0 0 1 175.98 96.31 A 80 80 0 0 0 176 96 A 80 80 0 0 0 96 16 z"/><path style="filter:url(#filter891);opacity:.2" d="m 88,62 c -2.22,0 -4,1.78 -4,4 v 16.21 c 0,0 4.34,3.81 4.34,6.38 C 88.34,91.17 84,94.98 84,94.98 V 130 c 0,2.22 1.78,4 4,4 h 16 c 2.22,0 4,-1.78 4,-4 v -16.15 l 0.04,0.05 c 0,0 -4.52,-3.97 -4.52,-6.66 0.00,-2.68 4.52,-6.66 4.52,-6.66 L 108,100.42 V 66 c 0,-2.22 -1.78,-4 -4,-4 z"/><path style="fill:#394045" d="m 88,60 c -2.22,0 -4,1.78 -4,4 v 16.21 c 0,0 4.34,3.81 4.34,6.38 C 88.34,89.17 84,92.98 84,92.98 V 128 c 0,2.22 1.78,4 4,4 h 16 c 2.22,0 4,-1.78 4,-4 v -16.15 l 0.04,0.05 c 0,0 -4.52,-3.97 -4.52,-6.66 0.00,-2.68 4.52,-6.66 4.52,-6.66 L 108,98.42 V 64 c 0,-2.22 -1.78,-4 -4,-4 z"/><path style="filter:url(#filter887);opacity:.2" d="m 96,34 c -35.25,0 -64,28.75 -64,64 0,35.25 28.75,64 64,64 35.25,0 64,-28.75 64,-64 0,-35.25 -28.75,-64 -64,-64 z m 0,16 c 26.60,0 48,21.40 48,48 0,26.60 -21.40,48 -48,48 C 69.40,146 48,124.60 48,98 48,71.40 69.40,50 96,50 Z"/><path style="fill:#0076e2" d="m 96,32 c -35.25,0 -64,28.75 -64,64 0,35.25 28.75,64 64,64 35.25,0 64,-28.75 64,-64 0,-35.25 -28.75,-64 -64,-64 z m 0,16 c 26.60,0 48,21.40 48,48 0,26.60 -21.40,48 -48,48 C 69.40,144 48,122.60 48,96 48,69.40 69.40,48 96,48 Z"/></svg>