<?xml version='1.0' encoding='utf-8'?>
<svg xmlns="http://www.w3.org/2000/svg" width="192" height="192" version="1" id="svg28">
  <defs>
    <filter style="color-interpolation-filters:sRGB" id="filter901" x="0.05" width="1.10" y="0.05" height="1.10">
      <feGaussianBlur stdDeviation="3.20"/>
    </filter>
    <filter style="color-interpolation-filters:sRGB" id="filter8723" x="0.04" y="0.07" width="1.07" height="1.15">
      <feGaussianBlur stdDeviation="1.74"/>
    </filter>
  </defs>
  <rect style="filter:url(#filter901);opacity:0.20;fill:#000000" width="160" height="160" x="-180" y="-176" rx="12" ry="12" transform="matrix(0,-1,-1,0,0,0)"/>
  <rect transform="matrix(0,-1,-1,0,0,0)" ry="12" rx="12" y="-176" x="-176" height="160" width="160" style="fill:#a901b0"/>
  <path style="filter:url(#filter8723);opacity:0.20;fill:#000000" d="m 36,70 14.83,56 h 7.14 L 68.56,89.53 c 0.73,-2.41 1.33,-4.71 1.80,-6.90 0.52,-2.25 0.81,-3.71 0.86,-4.39 0.10,0.47 0.29,1.31 0.55,2.51 0.26,1.15 0.60,2.48 1.02,4 L 74.05,89.29 84.96,126 H 92.09 L 107,70 h -7.38 l -8.63,34.12 c 0.63,2.46 -1.18,4.84 -1.65,7.14 0.47,2.25 0.84,4.34 -1.10,6.27 0.26,-1.83 0.65,-3.92 -1.18,-6.27 0.52,-2.41 -1.15,-4.81 -1.88,-7.22 L 74.91,70 h -7.29 l -9.88,33.80 c 0.68,2.30 -1.28,4.65 -1.80,7.06 0.52,2.41 0.92,4.63 -1.18,6.67 0.26,-1.99 0.63,-4.11 -1.10,-6.35 0.42,-2.25 0.94,-4.58 -1.57,-6.98 L 43.38,70 Z m 79,0 v 56 h 19.62 c 5.99,0 10.71,-1.39 14.15,-4.16 3.49,-2.77 5.24,-6.69 5.24,-11.77 0,-2.93 0.55,-5.31 -1.64,-7.14 -1.09,-1.83 -2.61,-3.24 -4.53,-4.24 -1.88,0.99 -3.99,-1.67 -6.33,-2.04 v 0.39 c 3.44,0.63 5.97,-2.01 7.79,-4.16 1.82,-2.20 2.73,-4.94 2.73,-8.23 0,-5.12 -1.80,-8.71 -5.39,-10.75 C 143.09,71.05 137.93,70 130.94,70 Z m 7,6 h 9.29 c 4.78,0 8.24,0.69 10.40,2.06 2.21,1.32 3.31,3.54 3.31,6.66 0,3.07 0.89,5.39 -2.68,6.98 C 140.54,93.23 137.23,94 132.40,94 H 122 Z m 0,24 h 10.50 c 5.06,0 8.56,0.90 10.51,2.70 1.99,1.75 2.99,4.07 2.99,6.95 0,3.09 0.95,5.59 -2.84,7.49 C 141.27,119.05 137.90,120 133.04,120 H 122 Z"/>
  <path style="fill:#ffffff" d="M 36 68 L 50.83 124 L 57.97 124 L 68.56 87.53 C 69.29 85.12 69.89 82.82 70.36 80.63 C 70.89 78.38 71.17 76.91 71.22 76.23 C 71.33 76.70 71.51 77.54 71.78 78.74 C 72.04 79.89 72.38 81.23 72.79 82.74 L 74.05 87.29 L 84.96 124 L 92.09 124 L 107 68 L 99.62 68 L 91.00 102.12 C 90.37 104.57 89.82 106.96 89.35 109.26 C 88.88 111.50 88.51 113.59 88.25 115.53 C 87.99 113.70 87.60 111.61 87.07 109.26 C 86.55 106.85 85.92 104.44 85.19 102.04 L 74.91 68 L 67.62 68 L 57.73 101.80 C 57.05 104.11 56.45 106.46 55.93 108.86 C 55.40 111.27 55.01 113.49 54.75 115.53 C 54.49 113.54 54.12 111.42 53.65 109.18 C 53.23 106.93 52.71 104.60 52.08 102.20 L 43.38 68 L 36 68 z M 115 68 L 115 124 L 134.62 124 C 140.61 124 145.32 122.61 148.76 119.84 C 152.25 117.07 154 113.15 154 108.08 C 154 105.15 153.45 102.77 152.36 100.94 C 151.27 99.11 149.75 97.70 147.83 96.71 C 145.95 95.71 143.84 95.03 141.49 94.67 L 141.49 94.28 C 144.93 93.65 147.47 92.26 149.29 90.12 C 151.11 87.92 152.02 85.18 152.02 81.88 C 152.02 76.76 150.23 73.18 146.63 71.14 C 143.09 69.05 137.93 68 130.94 68 L 115 68 z M 122 74 L 131.29 74 C 136.07 74 139.54 74.69 141.69 76.06 C 143.90 77.38 145 79.60 145 82.72 C 145 85.79 144.11 88.12 142.32 89.70 C 140.54 91.23 137.23 92 132.40 92 L 122 92 L 122 74 z M 122 98 L 132.50 98 C 137.56 98 141.07 98.90 143.01 100.70 C 145.00 102.45 146 104.77 146 107.65 C 146 110.74 145.05 113.24 143.16 115.14 C 141.27 117.05 137.90 118 133.04 118 L 122 118 L 122 98 z "/>
  <path style="opacity:0.20;fill:#ffffff" d="M 28 16 C 21.35 16 16 21.35 16 28 L 16 29 C 16 22.35 21.35 17 28 17 L 164 17 C 170.65 17 176 22.35 176 29 L 176 28 C 176 21.35 170.65 16 164 16 L 28 16 z "/>
</svg>
