<?xml version='1.0' encoding='utf-8'?>
<svg xmlns="http://www.w3.org/2000/svg" width="192" height="192" version="1" id="svg20">
  <defs>
    <filter style="color-interpolation-filters:sRGB" id="filter861" x="0.05" y="0.05" width="1.09" height="1.10">
      <feGaussianBlur stdDeviation="3.04"/>
    </filter>
    <filter style="color-interpolation-filters:sRGB" id="filter868" x="0.08" y="0.24" width="1.16" height="1.47">
      <feGaussianBlur stdDeviation="1.60"/>
    </filter>
    <filter style="color-interpolation-filters:sRGB" id="filter872" x="0.08" y="0.24" width="1.16" height="1.47">
      <feGaussianBlur stdDeviation="1.60"/>
    </filter>
    <filter style="color-interpolation-filters:sRGB" id="filter876" x="0.08" y="0.24" width="1.16" height="1.48">
      <feGaussianBlur stdDeviation="1.60"/>
    </filter>
  </defs>
  <rect style="filter:url(#filter861);opacity:0.20" width="160" height="144" x="16" y="28" rx="12" ry="12"/>
  <rect style="fill:#4f4f4f" width="160" height="144" x="16" y="24" rx="12" ry="12"/>
  <path style="opacity:0.10;fill:#ffffff" d="M 28 24 C 21.35 24 16 29.35 16 36 L 16 37 C 16 30.35 21.35 25 28 25 L 164 25 C 170.65 25 176 30.35 176 37 L 176 36 C 176 29.35 170.65 24 164 24 L 28 24 z "/>
  <rect style="filter:url(#filter876);opacity:0.20" width="48" height="16" x="80" y="90.00" rx="4" ry="4"/>
  <rect style="fill:#ffffff" width="48" height="16" x="80" y="88" rx="4" ry="4"/>
  <rect style="filter:url(#filter868);opacity:0.20" width="48.98" height="16.33" x="-49.38" y="91.02" rx="4.08" ry="4.08" transform="matrix(0.73,0.69,0.73,0.69,0,0)"/>
  <rect style="fill:#a2a2a2" width="48.98" height="16.33" x="-47.92" y="89.56" rx="4.08" ry="4.08" transform="matrix(0.73,0.69,0.73,0.69,0,0)"/>
  <rect style="filter:url(#filter872);opacity:0.20" width="48.98" height="16.33" x="58.38" y="-16.74" rx="4.08" ry="4.08" transform="matrix(0.73,0.69,0.73,0.69,0,0)"/>
  <rect style="fill:#ffffff" width="48.98" height="16.33" x="56.92" y="-15.28" rx="4.08" ry="4.08" transform="matrix(0.73,0.69,0.73,0.69,0,0)"/>
</svg>
