<?xml version='1.0' encoding='utf-8'?>
<svg xmlns="http://www.w3.org/2000/svg" width="192" height="192" version="1" id="svg20">
  <defs>
    <filter style="color-interpolation-filters:sRGB" id="filter982" x="0.05" y="0.05" width="1.10" height="1.10">
      <feGaussianBlur stdDeviation="3.20"/>
    </filter>
    <filter style="color-interpolation-filters:sRGB" id="filter1025" x="0.05" y="0.05" width="1.10" height="1.10">
      <feGaussianBlur stdDeviation="0.96"/>
    </filter>
    <filter style="color-interpolation-filters:sRGB" id="filter1029" x="0.12" y="0.03" width="1.24" height="1.06">
      <feGaussianBlur stdDeviation="0.80"/>
    </filter>
  </defs>
  <path style="filter:url(#filter982);opacity:0.20;fill:#000000" d="m 72,20 c -4.43,0 -8,3.57 -8,8 V 68 H 24 c -4.43,0 -8,3.57 -8,8 v 48 c 0,4.43 3.57,8 8,8 h 40 v 40 c 0,4.43 3.57,8 8,8 h 48 c 4.43,0 8,-3.57 8,-8 v -40 h 40 c 4.43,0 8,-3.57 8,-8 V 76 c 0,-4.43 -3.57,-8 -8,-8 H 128 V 28 c 0,-4.43 -3.57,-8 -8,-8 z"/>
  <rect fill="#e4e4e4" width="64" height="160" x="64" y="16" rx="8" ry="8"/>
  <rect fill="#e4e4e4" width="64" height="160" x="64" y="-176" rx="8" ry="8" transform="rotate(90)"/>
  <rect opacity="0.20" width="16" height="64" x="90" y="-160" rx="8" ry="8" transform="rotate(90)" style="filter:url(#filter1029)"/>
  <rect fill="#3e3e3e" width="16" height="64" x="88" y="32" rx="8" ry="8"/>
  <rect fill="#3e3e3e" width="16" height="64" x="88" y="-160" rx="8" ry="8" transform="rotate(90)"/>
  <circle opacity="0.20" cx="96" cy="98" r="24" style="filter:url(#filter1025)"/>
  <circle fill="#df574d" cx="96" cy="96" r="24"/>
  <path style="opacity:0.20;fill:#ffffff" d="M 72 16 C 67.57 16 64 19.57 64 24 L 64 25 C 64 20.57 67.57 17 72 17 L 120 17 C 124.43 17 128 20.57 128 25 L 128 24 C 128 19.57 124.43 16 120 16 L 72 16 z M 24 64 C 19.57 64 16 67.57 16 72 L 16 73 C 16 68.57 19.57 65 24 65 L 64 65 L 64 64 L 24 64 z M 128 64 L 128 65 L 168 65 C 172.43 65 176 68.57 176 73 L 176 72 C 176 67.57 172.43 64 168 64 L 128 64 z "/>
</svg>
