<?xml version='1.0' encoding='utf-8'?>
<svg xmlns="http://www.w3.org/2000/svg" width="192" height="192" version="1" id="svg12">
  <defs>
    <filter style="color-interpolation-filters:sRGB" id="filter856" x="0.05" width="1.10" y="0.05" height="1.10">
      <feGaussianBlur stdDeviation="3.20"/>
    </filter>
    <filter style="color-interpolation-filters:sRGB" id="filter884" x="0.05" width="1.09" y="0.05" height="1.10">
      <feGaussianBlur stdDeviation="2.16"/>
    </filter>
  </defs>
  <rect style="filter:url(#filter856);opacity:0.20" width="160" height="160" x="16" y="20" rx="8" ry="8"/>
  <rect style="fill:#2a7bdb" width="160" height="160" x="16" y="16" rx="8" ry="8"/>
  <path style="opacity:0.20;fill:#ffffff" d="M 24 16 C 19.57 16 16 19.57 16 24 L 16 25 C 16 20.57 19.57 17 24 17 L 168 17 C 172.43 17 176 20.57 176 25 L 176 24 C 176 19.57 172.43 16 168 16 L 24 16 z "/>
  <path style="filter:url(#filter884);opacity:0.20" d="M 94,46.00 A 34,34 0 0 0 60.06,78.72 26,26 0 0 0 40,104.00 a 26,26 0 0 0 26,26 h -1.27 l 2.34,0.12 c 0.56,1.95 1.07,3.94 0.93,5.87 0.07,4.85 -2.60,7.80 -5.87,10.63 0.83,0.44 -1.47,0.96 -1.41,1.14 0.20,0.61 4.01,1.91 6.25,2.13 2.89,0.29 6.92,0.07 9.23,0.93 3.67,-1.37 6.61,-3.66 8.68,-6.77 1.77,-2.65 2.71,-5.28 2.98,-8.35 l 0.23,-3.73 14.34,0.12 H 130 a 22,22 0 0 0 22,-22 22,22 0 0 0 -22,-22.00 22,22 0 0 0 -2.59,0.18 34,34 0 0 0 0.59,-6.18 34,34 0 0 0 -34,-34 z"/>
  <path style="fill:#ffffff" d="M 94,44 A 34,34 0 0 0 60.06,76.72 26,26 0 0 0 40,102 26,26 0 0 0 66,128 h -1.27 l 2.34,0.12 c 0.56,1.95 1.07,3.94 0.93,5.87 0.07,4.85 -2.60,7.80 -5.87,10.63 0.83,0.44 -1.47,0.96 -1.41,1.14 0.20,0.61 4.01,1.91 6.25,2.13 2.89,0.29 6.92,0.07 9.23,0.93 3.67,-1.37 6.61,-3.66 8.68,-6.77 1.77,-2.65 2.71,-5.28 2.98,-8.35 L 88.10,128.12 102.45,128 H 130 A 22,22 0 0 0 152,106 22,22 0 0 0 130,84 22,22 0 0 0 127.41,84.18 34,34 0 0 0 128,78 34,34 0 0 0 94,44 Z"/>
</svg>
