<?xml version='1.0' encoding='utf-8'?>
<svg xmlns="http://www.w3.org/2000/svg" width="192" height="192" version="1" id="svg18">
  <defs>
    <filter style="color-interpolation-filters:sRGB" id="filter975" x="0.05" y="0.05" width="1.10" height="1.10">
      <feGaussianBlur stdDeviation="3.20"/>
    </filter>
    <filter style="color-interpolation-filters:sRGB" id="filter979" x="0.05" y="0.04" width="1.11" height="1.09">
      <feGaussianBlur stdDeviation="2"/>
    </filter>
    <filter style="color-interpolation-filters:sRGB" id="filter983" x="0.04" y="0.07" width="1.07" height="1.14">
      <feGaussianBlur stdDeviation="0.93"/>
    </filter>
  </defs>
  <rect style="filter:url(#filter975);opacity:0.20;fill:#000000" width="160" height="160" x="16" y="20" rx="8" ry="8"/>
  <rect style="fill:#4f4f4f" width="160" height="160" x="16" y="16" rx="8" ry="8"/>
  <path style="opacity:0.10;fill:#ffffff" d="M 24 16 C 19.57 16 16 19.57 16 24 L 16 25 C 16 20.57 19.57 17 24 17 L 168 17 C 172.43 17 176 20.57 176 25 L 176 24 C 176 19.57 172.43 16 168 16 L 24 16 z "/>
  <path style="filter:url(#filter979);opacity:0.20" d="M 140,42 52,70 v 32 L 85.84,111.24 52,122 v 32 l 88,-28 V 94 L 106.16,84.76 140,74 Z"/>
  <path style="fill:#ffab36" d="M 140,40 52,68 v 32 l 88,-28 z"/>
  <path style="fill:#ffab36" d="m 140,92 -88,28 v 32 l 88,-28 z"/>
  <path style="filter:url(#filter983);opacity:0.20" d="M 133.24,92.16 79.08,109.38 133.24,124.16 140,122 V 94 Z"/>
  <path style="fill:#ffab36" d="m 52,68 88,24 v 32 L 52,100 Z"/>
</svg>
