<?xml version='1.0' encoding='utf-8'?>
<svg xmlns="http://www.w3.org/2000/svg" width="192" height="192" version="1" id="svg14">
  <defs>
    <filter style="color-interpolation-filters:sRGB" id="filter13308" x="0.15" y="0.08" width="1.31" height="1.17">
      <feGaussianBlur stdDeviation="3.46"/>
    </filter>
    <filter style="color-interpolation-filters:sRGB" id="filter13350" x="0.05" y="0.05" width="1.10" height="1.10">
      <feGaussianBlur stdDeviation="3.22"/>
    </filter>
  </defs>
  <path style="filter:url(#filter13350);opacity:0.20;fill:#000000" d="m 96,20 a 80,80 0 0 0 -80,80 80,80 0 0 0 80,80 h 81.66 L 153.23,155.62 A 80,80 0 0 0 176,100 80,80 0 0 0 96,20 Z"/>
  <path style="fill:#2a9af2" d="M 96 16 A 80 80 0 0 0 16 96 A 80 80 0 0 0 96 176 L 177.66 176 L 153.23 151.62 A 80 80 0 0 0 176 96 A 80 80 0 0 0 96 16 z "/>
  <path style="filter:url(#filter13308);opacity:0.20;fill:#000000" d="M 95.42,48 C 90.77,48 86.25,48.61 81.87,49.84 77.54,51.07 73.25,52.93 69,55.43 v 12.37 c 4.38,-2.94 8.58,-5.18 12.60,-6.71 4.07,-1.54 7.58,-2.30 11.15,-2.30 4.88,0 8.79,1.21 11.72,3.62 2.98,2.41 4.47,5.57 4.47,9.47 0,2.15 0.59,4.26 -1.76,6.32 -1.13,2.06 -2.98,4.25 -5.55,6.58 l -6.10,5.86 c -4.07,3.77 -6.43,7.08 -7.70,9.94 C 86.57,103.42 85,107.06 85,111.49 V 122 h 14 v -8.47 c 0,-2.28 0.05,-4.08 0.08,-5.39 0.14,-1.32 0.34,-2.43 0.61,-3.36 0.36,-1.10 0.97,-2.21 1.83,-3.35 0.90,-1.18 2.42,-2.81 4.54,-4.87 l 5.96,-5.66 c 4.07,-3.77 6.91,-7.15 8.54,-10.13 C 122.19,77.74 123,74.56 123,71.22 123,64.25 120.47,58.64 115.41,54.38 110.40,50.13 103.73,48 95.42,48 Z M 85,132 v 16 h 14 v -16 z"/>
  <path style="fill:#ffffff" d="M 95.42 46 C 90.77 46 86.25 46.61 81.87 47.84 C 77.54 49.07 73.25 50.93 69 53.43 L 69 65.80 C 73.38 62.86 77.58 60.63 81.60 59.09 C 85.67 57.56 89.18 56.79 92.75 56.79 C 97.63 56.79 101.54 58.00 104.47 60.41 C 107.46 62.82 108.95 65.98 108.95 69.88 C 108.95 72.03 108.36 74.14 107.18 76.20 C 106.05 78.26 104.20 80.45 101.63 82.78 L 95.53 88.63 C 91.47 92.40 89.10 95.72 87.84 98.57 C 86.57 101.42 85 105.06 85 109.49 L 85 120 L 99 120 L 99 111.53 C 99 109.24 98.95 107.45 99.08 106.13 C 99.22 104.82 99.42 103.70 99.69 102.78 C 100.05 101.68 100.66 100.56 101.52 99.42 C 102.42 98.24 103.94 96.61 106.06 94.55 L 112.02 88.89 C 116.09 85.12 118.93 81.75 120.56 78.76 C 122.19 75.74 123 72.56 123 69.22 C 123 62.25 120.47 56.64 115.41 52.38 C 110.40 48.13 103.73 46 95.42 46 z M 85 130 L 85 146 L 99 146 L 99 130 L 85 130 z "/>
  <path style="opacity:0.20;fill:#ffffff" d="M 96 16 A 80 80 0 0 0 16 96 A 80 80 0 0 0 16.04 96.50 A 80 80 0 0 1 96 17 A 80 80 0 0 1 175.98 96.27 A 80 80 0 0 0 176 96 A 80 80 0 0 0 96 16 z M 153.69 152.08 A 80 80 0 0 1 153.23 152.62 L 176.66 176 L 177.66 176 L 153.69 152.08 z "/>
</svg>
