<?xml version='1.0' encoding='utf-8'?>
<svg xmlns="http://www.w3.org/2000/svg" width="192" height="192" version="1" id="svg12">
  <defs>
    <filter style="color-interpolation-filters:sRGB" id="filter955" x="-0.048000001" width="1.096" y="-0.048000001" height="1.096">
      <feGaussianBlur stdDeviation="3.2"/>
    </filter>
    <filter style="color-interpolation-filters:sRGB" id="filter7095" x="-0.10306371" y="-0.11343293" width="1.2061274" height="1.2268659">
      <feGaussianBlur stdDeviation="4.5839363"/>
    </filter>
    <filter style="color-interpolation-filters:sRGB" id="filter7137" x="-0.108" y="-0.108" width="1.216" height="1.216">
      <feGaussianBlur stdDeviation="2.25"/>
    </filter>
    <filter style="color-interpolation-filters:sRGB" id="filter7179" x="-0.10168384" y="-0.11515279" width="1.2033677" height="1.2303056">
      <feGaussianBlur stdDeviation="3.0725803"/>
    </filter>
  </defs>
  <rect style="filter:url(#filter955);opacity:0.2;fill:#000000" width="160" height="160" x="16" y="20" rx="30" ry="30"/>
  <rect style="fill:#ff6c2a" width="160" height="160" x="16" y="16" rx="30" ry="30"/>
  <path style="filter:url(#filter7179);opacity:0.2;fill:#000000" d="M 40.256349,58.80823 101.4911,120.039 v 0 l 11.28604,-13.68399 v 0 L 66.68361,60.69622 c 0,0 -4.076229,-4.774091 -11.631742,-4.694571 -3.697602,0.03892 -8.522322,0.793837 -14.795519,2.806581 z"/>
  <path style="fill:#ffffff" d="m 40.256349,56.80818 61.234751,61.23077 v 0 l 11.28604,-13.68399 v 0 L 66.68361,58.69617 c 0,0 -4.076229,-4.774091 -11.631742,-4.694571 -3.697602,0.03892 -8.522322,0.793837 -14.795519,2.806581 z"/>
  <path style="opacity:0.2;fill:#ffffff" d="M 46 16 C 29.38 16 16 29.38 16 46 L 16 47 C 16 30.38 29.38 17 46 17 L 146 17 C 162.62 17 176 30.38 176 47 L 176 46 C 176 29.38 162.62 16 146 16 L 46 16 z "/>
  <path style="filter:url(#filter7137);opacity:0.2;fill:#000000" d="m 122,103 a 25,25 0 0 0 -25,25 25,25 0 0 0 25,25 25,25 0 0 0 25,-25 25,25 0 0 0 -25,-25 z m 5.5,8 a 5.5,5.5 0 0 1 5.5,5.5 5.5,5.5 0 0 1 -5.5,5.5 5.5,5.5 0 0 1 -5.5,-5.5 5.5,5.5 0 0 1 5.5,-5.5 z m -14,2 a 5.5,5.5 0 0 1 5.5,5.5 5.5,5.5 0 0 1 -5.5,5.5 5.5,5.5 0 0 1 -5.5,-5.5 5.5,5.5 0 0 1 5.5,-5.5 z m 21,11 a 5.5,5.5 0 0 1 5.5,5.5 5.5,5.5 0 0 1 -5.5,5.5 5.5,5.5 0 0 1 -5.5,-5.5 5.5,5.5 0 0 1 5.5,-5.5 z m -12.5,1 a 3,3 0 0 1 3,3 3,3 0 0 1 -3,3 3,3 0 0 1 -3,-3 3,3 0 0 1 3,-3 z m -11.5,2 a 5.5,5.5 0 0 1 5.5,5.5 5.5,5.5 0 0 1 -5.5,5.5 5.5,5.5 0 0 1 -5.5,-5.5 5.5,5.5 0 0 1 5.5,-5.5 z m 13,7 a 5.5,5.5 0 0 1 5.5,5.5 5.5,5.5 0 0 1 -5.5,5.5 5.5,5.5 0 0 1 -5.5,-5.5 5.5,5.5 0 0 1 5.5,-5.5 z"/>
  <path style="fill:#ffffff" d="M 122 101 A 25 25 0 0 0 97 126 A 25 25 0 0 0 122 151 A 25 25 0 0 0 147 126 A 25 25 0 0 0 122 101 z M 127.5 109 A 5.5 5.5 0 0 1 133 114.5 A 5.5 5.5 0 0 1 127.5 120 A 5.5 5.5 0 0 1 122 114.5 A 5.5 5.5 0 0 1 127.5 109 z M 113.5 111 A 5.5 5.5 0 0 1 119 116.5 A 5.5 5.5 0 0 1 113.5 122 A 5.5 5.5 0 0 1 108 116.5 A 5.5 5.5 0 0 1 113.5 111 z M 134.5 122 A 5.5 5.5 0 0 1 140 127.5 A 5.5 5.5 0 0 1 134.5 133 A 5.5 5.5 0 0 1 129 127.5 A 5.5 5.5 0 0 1 134.5 122 z M 122 123 A 3 3 0 0 1 125 126 A 3 3 0 0 1 122 129 A 3 3 0 0 1 119 126 A 3 3 0 0 1 122 123 z M 110.5 125 A 5.5 5.5 0 0 1 116 130.5 A 5.5 5.5 0 0 1 110.5 136 A 5.5 5.5 0 0 1 105 130.5 A 5.5 5.5 0 0 1 110.5 125 z M 123.5 132 A 5.5 5.5 0 0 1 129 137.5 A 5.5 5.5 0 0 1 123.5 143 A 5.5 5.5 0 0 1 118 137.5 A 5.5 5.5 0 0 1 123.5 132 z "/>
  <path style="filter:url(#filter7095);opacity:0.2;fill:#000000" d="m 122,41.99964 c -13.80712,0 -25,11.192881 -25,25 0.0037,3.532286 0.75591,7.02369 2.207031,10.244141 L 40.255859,136.19105 c 5.948994,1.90872 10.593762,2.79495 14.21324,2.79495 7.719601,0 12.214495,-4.68167 12.214495,-4.68167 L 111.65625,89.755499 c 3.24823,1.477721 6.77518,2.242915 10.34375,2.244141 13.80712,0 25,-11.192881 25,-25 0,-13.807119 -11.19288,-25 -25,-25 z m 0,14 c 6.07513,0 11,4.924868 11,11 0,6.075132 -4.92487,11 -11,11 -6.07513,0 -11,-4.924868 -11,-11 0,-6.075132 4.92487,-11 11,-11 z"/>
  <path style="fill:#ffffff" d="m 122,40 c -13.80712,0 -25,11.192881 -25,25 0.0037,3.532286 0.75591,7.02369 2.207031,10.244141 L 40.255859,134.19141 c 5.948994,1.90872 10.593762,2.79495 14.21324,2.79495 7.719601,0 12.214495,-4.68167 12.214495,-4.68167 L 111.65625,87.755859 C 114.90448,89.23358 118.43143,89.998774 122,90 135.80712,90 147,78.807119 147,65 147,51.192881 135.80712,40 122,40 Z m 0,14 c 6.07513,0 11,4.924868 11,11 0,6.075132 -4.92487,11 -11,11 -6.07513,0 -11,-4.924868 -11,-11 0,-6.075132 4.92487,-11 11,-11 z"/>
</svg>
