<?xml version='1.0' encoding='utf-8'?>
<svg xmlns="http://www.w3.org/2000/svg" width="192" height="192" version="1" id="svg28">
  <defs>
    <filter style="color-interpolation-filters:sRGB" id="filter6495" x="0.05" y="0.05" width="1.10" height="1.10">
      <feGaussianBlur stdDeviation="3.20"/>
    </filter>
    <filter style="color-interpolation-filters:sRGB" id="filter11133" x="0.05" y="0.12" width="1.11" height="1.24">
      <feGaussianBlur stdDeviation="2.62"/>
    </filter>
  </defs>
  <rect transform="matrix(0,-1,-1,0,0,0)" ry="12" rx="12" y="-176" x="-180" height="160" width="160" style="filter:url(#filter6495);opacity:0.20;fill:#000000"/>
  <rect transform="matrix(0,-1,-1,0,0,0)" ry="12" rx="12" y="-176" x="-176" height="160" width="160" style="fill:#313644"/>
  <path style="opacity:0.10;fill:#ffffff" d="m 28,16 c -6.65,0 -12,5.35 -12,12 v 1 c 0,-6.65 5.35,-12 12,-12 h 136 c 6.65,0 12,5.35 12,12 v -1 c 0,-6.65 -5.35,-12 -12,-12 z"/>
  <path style="filter:url(#filter11133);opacity:0.20;fill:#000000" d="m 44,69 v 53 H 55 V 87.01 L 70.50,112 86,87.01 V 122 H 97 V 69 H 86.16 L 70.50,94.19 54.84,69 Z m 79.15,13 c -6.27,0 -11.20,1.78 -14.79,5.34 C 104.78,90.90 103,95.79 103,102 c 0,6.33 1.82,11.25 5.45,14.76 3.66,3.49 8.77,5.24 15.35,5.24 7.60,0.03 11.28,-1.83 17.47,-7.21 l -6.93,-4.08 c 0,0 -3.83,4.21 -9.47,4.28 -4.47,0.04 -12.60,-3.47 -13.23,-9 H 142 v -4.14 C 142,95.83 140.28,91.01 136.84,87.41 133.42,83.80 128.86,82 123.15,82 Z m 1.01,9 c 2.94,0 5.31,0.74 7.12,2.22 1.84,1.46 2.76,3.38 2.76,5.78 h -22.16 c 0.49,-2.58 1.73,-4.56 3.72,-5.92 C 117.59,91.69 120.98,91 124.16,91 Z M 153.50,111 a 5.50,5.50 0 0 0 -5.50,5.50 5.50,5.50 0 0 0 5.50,5.50 5.50,5.50 0 0 0 5.50,-5.50 5.50,5.50 0 0 0 -5.50,-5.50 z"/>
  <path style="fill:#ffffff" d="M 44 67 L 44 120 L 55 120 L 55 85.01 L 70.50 110 L 86 85.01 L 86 120 L 97 120 L 97 67 L 86.16 67 L 70.50 92.19 L 54.84 67 L 44 67 z M 123.15 80 C 116.88 80 111.94 81.78 108.35 85.34 C 104.78 88.90 103 93.79 103 100 C 103 106.33 104.82 111.25 108.45 114.76 C 112.11 118.25 117.22 120 123.80 120 C 131.40 119.97 135.07 118.17 141.27 112.79 L 134.34 108.72 C 134.34 108.72 130.51 112.93 124.87 113 C 120.40 112.96 112.27 109.53 111.64 104 L 142 104 L 142 99.86 C 142 93.83 140.28 89.01 136.84 85.41 C 133.42 81.80 128.86 80 123.15 80 z M 124.16 89 C 127.10 89 129.47 89.74 131.28 91.22 C 133.12 92.68 134.04 94.60 134.04 97 L 111.88 97 C 112.37 94.42 113.61 92.44 115.60 91.08 C 117.59 89.69 120.98 89 124.16 89 z M 153.50 109 A 5.50 5.50 0 0 0 148 114.50 A 5.50 5.50 0 0 0 153.50 120 A 5.50 5.50 0 0 0 159 114.50 A 5.50 5.50 0 0 0 153.50 109 z "/>
</svg>
