<?xml version='1.0' encoding='utf-8'?>
<svg xmlns="http://www.w3.org/2000/svg" width="192" height="192" version="1" id="svg5">
  <defs>
    <filter id="filter1382" style="color-interpolation-filters:sRGB" width="1.10" height="1.09" x="0.05" y="0.04">
      <feGaussianBlur stdDeviation="3"/>
    </filter>
    <filter id="filter1443" style="color-interpolation-filters:sRGB" width="1.22" height="1.21" x="0.11" y="0.10">
      <feGaussianBlur stdDeviation="3.46"/>
    </filter>
  </defs>
  <path style="filter:url(#filter1382);opacity:0.20" d="m 166,90.02 c 0.00,15.81 -5.36,31.15 -15.19,43.53 -9.84,12.38 -23.57,21.07 -38.98,24.65 L 96,180 80.17,158.21 C 64.76,154.62 51.03,145.94 41.19,133.56 31.36,121.17 26.00,105.83 26,90.02 26,88.00 26.08,86.00 26.25,84.03 27.75,66.56 35.74,50.29 48.66,38.43 61.57,26.58 78.47,20 96,20 c 17.53,0 34.43,6.58 47.34,18.43 12.91,11.86 20.91,28.13 22.40,45.59 0.17,1.97 0.25,3.97 0.25,5.99 z"/>
  <path fill="#ffa300" d="m 166,86.02 c 0.00,15.81 -5.36,31.15 -15.19,43.53 -9.84,12.38 -23.57,21.07 -38.98,24.65 L 96,176 80.17,154.21 C 64.76,150.62 51.03,141.94 41.19,129.56 31.36,117.17 26.00,101.83 26,86.02 26,84.00 26.08,82.00 26.25,80.03 27.75,62.56 35.74,46.29 48.66,34.43 61.57,22.58 78.47,16 96,16 c 17.53,0 34.43,6.58 47.34,18.43 12.91,11.86 20.91,28.13 22.40,45.59 0.17,1.97 0.25,3.97 0.25,5.99 z"/>
  <path style="filter:url(#filter1443);opacity:0.20" d="m 96,46.00 c -1.19,0 -2.35,0.32 -3.38,0.91 L 65.84,62.52 c 0.26,0.15 0.47,0.36 0.62,0.62 C 65.08,63.41 65,63.70 65,64.00 c 0,0.30 0.08,0.59 0.22,0.85 0.15,0.26 0.36,0.47 0.62,0.62 l 26.78,15.61 c 1.03,0.60 2.19,0.91 3.38,0.91 1.19,0 2.35,0.32 3.38,0.91 L 126.16,65.47 c 0.26,0.15 0.47,0.36 0.62,0.62 C 126.92,64.59 127,64.30 127,64.00 c 0,0.30 0.08,0.59 0.22,0.85 0.15,0.26 0.36,0.47 0.62,0.62 L 99.38,46.91 C 98.35,46.32 97.19,46.00 96,46.00 Z m -35.32,28 c 0.30,0 0.59,0.08 0.84,0.22 0.26,0.15 0.47,0.36 0.62,0.62 C 59.08,75.09 59.00,75.38 59,75.68 v 29.32 c 0.00,1.17 0.32,2.33 0.91,3.34 0.59,1.02 1.44,1.86 2.46,2.45 l 26.11,14.99 C 88.73,125.92 89.02,126 89.32,126 c 0.30,0 0.59,0.08 0.84,0.22 0.26,0.15 0.47,0.36 0.62,0.62 0.15,0.26 0.23,0.54 0.22,0.84 V 95.02 c 0.00,-1.18 0.31,-2.33 0.90,-3.35 0.59,-1.02 -1.44,-1.87 -2.47,-2.45 L 61.53,74.22 c 0.26,0.15 0.55,0.22 0.84,0.22 z m 70.63,0 c 0.30,0 0.59,0.08 0.84,0.22 l -26.11,14.99 c -1.02,0.59 -1.88,1.43 -2.47,2.45 0.59,1.02 0.90,2.17 0.90,3.35 v 29.31 c 0.00,0.29 0.08,0.58 0.22,0.84 0.15,0.25 0.36,0.47 0.62,0.61 0.26,0.15 0.55,0.22 0.84,0.22 0.30,0.00 0.59,0.08 0.84,0.22 l 26.11,-14.99 c 1.02,0.59 1.87,-1.43 2.46,-2.45 0.59,-1.02 0.90,-2.17 0.90,-3.35 V 75.68 c 0.00,0.29 0.08,0.58 0.22,0.84 0.15,0.26 0.36,0.47 0.62,0.62 0.26,0.15 0.55,0.22 0.84,0.22 z"/>
  <path style="fill:#ffffff" d="M 96 44 C 94.81 44 93.65 44.32 92.62 44.91 L 65.84 60.52 C 65.59 60.67 65.37 60.89 65.22 61.15 C 65.08 61.41 65 61.70 65 62.00 C 65 62.30 65.08 62.59 65.22 62.85 C 65.37 63.11 65.59 63.32 65.84 63.47 L 92.62 79.09 C 93.65 79.68 94.81 80 96 80 C 97.19 80 98.35 79.68 99.38 79.09 L 126.16 63.47 C 126.41 63.32 126.63 63.11 126.78 62.85 C 126.92 62.59 127 62.30 127 62.00 C 127 61.70 126.92 61.41 126.78 61.15 C 126.63 60.89 126.41 60.67 126.16 60.52 L 99.38 44.91 C 98.35 44.32 97.19 44 96 44 z M 60.68 72 C 60.39 72 60.10 72.08 59.84 72.22 C 59.59 72.37 59.37 72.58 59.22 72.84 C 59.08 73.09 59.00 73.38 59 73.68 L 59 103.00 C 59.00 104.17 59.32 105.32 59.91 106.34 C 60.50 107.35 61.35 108.19 62.37 108.78 L 88.47 123.78 C 88.73 123.92 89.02 124 89.32 124 C 89.61 124 89.90 123.92 90.16 123.78 C 90.42 123.63 90.63 123.41 90.78 123.16 C 90.92 122.90 91.00 122.62 91 122.32 L 91 93.02 C 91.00 91.85 90.69 90.69 90.10 89.67 C 89.51 88.65 88.66 87.81 87.63 87.22 L 61.53 72.22 C 61.27 72.08 60.98 72 60.68 72 z M 131.32 72 C 131.02 72 130.73 72.08 130.47 72.22 L 104.37 87.21 C 103.34 87.80 102.49 88.65 101.90 89.67 C 101.31 90.68 101.00 91.84 101 93.02 L 101 122.32 C 101.00 122.62 101.08 122.91 101.22 123.16 C 101.37 123.42 101.59 123.63 101.84 123.78 C 102.10 123.92 102.39 124 102.68 124 C 102.98 124.00 103.27 123.92 103.53 123.78 L 129.63 108.79 C 130.66 108.20 131.51 107.35 132.10 106.33 C 132.69 105.32 133.00 104.16 133 102.98 L 133 73.68 C 133.00 73.38 132.92 73.09 132.78 72.84 C 132.63 72.58 132.42 72.37 132.16 72.22 C 131.90 72.08 131.61 72 131.32 72 z"/>
  <path style="opacity:0.20;fill:#ffffff" d="M 96 16 C 78.47 16 61.57 22.58 48.66 34.43 C 35.74 46.29 27.75 62.56 26.25 80.03 C 26.08 82.00 26 84.00 26 86.02 C 26.00 86.19 26.01 86.36 26.01 86.52 C 26.02 84.67 26.10 82.84 26.25 81.03 C 27.75 63.56 35.74 47.29 48.66 35.43 C 61.57 23.58 78.47 17 96 17 C 113.53 17 130.43 23.58 143.34 35.43 C 156.26 47.29 164.25 63.56 165.75 81.03 C 165.90 82.83 165.98 84.67 165.99 86.52 C 165.99 86.35 166.00 86.19 166 86.02 C 166 84.00 165.92 82.00 165.75 80.03 C 164.25 62.56 156.26 46.29 143.34 34.43 C 130.43 22.58 113.53 16 96 16 z"/>
</svg>
