<svg xmlns="http://www.w3.org/2000/svg" id="svg12" width="192" height="192" version="1"><defs><filter style="color-interpolation-filters:sRGB" id="filter955" width="1.1" height="1.1" x=".05" y=".05"><feGaussianBlur stdDeviation="3.2"/></filter><filter style="color-interpolation-filters:sRGB" id="filter18198" width="1.22" height="1.21" x=".11" y=".1"><feGaussianBlur stdDeviation="4.05"/></filter><filter style="color-interpolation-filters:sRGB" id="filter18240" width="1.22" height="1.21" x=".11" y=".1"><feGaussianBlur stdDeviation="4.05"/></filter></defs><rect style="filter:url(#filter955);opacity:.2;fill:#000" width="160" height="160" x="16" y="20" rx="30" ry="30"/><rect style="fill:#28337b" width="160" height="160" x="16" y="16" rx="30" ry="30"/><path style="filter:url(#filter18240);opacity:.2;fill:#000;color:#000" d="m 66.54,51.01 a 12,12 0 0 0 -8.64,3.13 12,12 0 0 0 0.77,16.95 l 63.00,69.00 a 12,12 0 0 0 16.95,0.77 12,12 0 0 0 0.77,-16.95 l -63.00,-69 a 12,12 0 0 0 -8.32,-3.90 z"/><path style="fill:#2e48f3;color:#000" d="m 66.54,49.01 a 12,12 0 0 0 -8.64,3.13 12,12 0 0 0 0.77,16.95 L 120.14,138.09 a 12,12 0 0 0 16.95,0.77 12,12 0 0 0 0.77,-16.95 L 74.86,52.91 a 12,12 0 0 0 -8.32,-3.90 z"/><path style="opacity:.1;fill:#fff" d="M 46 16 C 29.38 16 16 29.38 16 46 L 16 47 C 16 30.38 29.38 17 46 17 L 146 17 C 162.62 17 176 30.38 176 47 L 176 46 C 176 29.38 162.62 16 146 16 L 46 16 z"/><path style="filter:url(#filter18198);opacity:.2;fill:#000;color:#000" d="M 66,51 A 12,12 0 0 0 54,63 12,12 0 0 0 66,75 H 79.82 110 c 4.01,0 7,2.99 7,7 0,4.01 -2.99,7 -7,7 H 66 a 12.00,12.00 0 0 0 -12,12 v 31 a 12,12 0 0 0 12,12 12,12 0 0 0 12,-12 v -19 h 32 c 16.98,0 31,-14.02 31,-31 0,-16.98 -14.02,-31 -31,-31 z"/><path style="fill:#f550ff;color:#000" d="M 66 49 A 12 12 0 0 0 54 61 A 12 12 0 0 0 66 73 L 79.82 73 L 110 73 C 114.01 73 117 75.99 117 80 C 117 84.01 114.01 87 110 87 L 66 87 A 12.00 12.00 0 0 0 54 99 L 54 130 A 12 12 0 0 0 66 142 A 12 12 0 0 0 78 130 L 78 111 L 110 111 C 126.98 111 141 96.98 141 80 C 141 63.02 126.98 49 110 49 L 66 49 z"/><path style="opacity:.2;fill:#fff;color:#000" d="M 66 49 A 12 12 0 0 0 54 61 A 12 12 0 0 0 54.07 61.50 A 12 12 0 0 1 66 50 L 110 50 C 126.81 50 140.71 63.75 140.99 80.50 C 140.99 80.33 141 80.17 141 80 C 141 63.02 126.98 49 110 49 L 66 49 z M 116.98 80.50 C 116.74 84.25 113.84 87 110 87 L 66 87 A 12.00 12.00 0 0 0 54 99 L 54 100 A 12.00 12.00 0 0 1 66 88 L 110 88 C 114.01 88 117 85.01 117 81 C 117 80.83 116.99 80.67 116.98 80.50 z"/></svg>