<svg xmlns="http://www.w3.org/2000/svg" id="svg30" width="192" height="192" version="1"><defs><filter id="filter848" width="1.1" height="1.1" x=".05" y=".05" style="color-interpolation-filters:sRGB"><feGaussianBlur stdDeviation="3.2"/></filter><filter id="filter1279" width="1.14" height="1.29" x=".07" y=".15" style="color-interpolation-filters:sRGB"><feGaussianBlur stdDeviation="2.12"/></filter><filter id="filter1283" width="1.29" height="1.29" x=".15" y=".15" style="color-interpolation-filters:sRGB"><feGaussianBlur stdDeviation="2.12"/></filter><filter id="filter1287" width="1.29" height="1.1" x=".15" y=".05" style="color-interpolation-filters:sRGB"><feGaussianBlur stdDeviation="2.12"/></filter></defs><rect style="filter:url(#filter848);opacity:.2" width="160" height="160" x="-180" y="-176" rx="8" ry="8" transform="matrix(0,-1,-1,0,0,0)"/><rect style="fill:#3a3a4a" width="160" height="160" x="-176" y="-176" rx="8" ry="8" transform="matrix(0,-1,-1,0,0,0)"/><path style="opacity:.1;fill:#fff" d="m 24,16 c -4.43,0 -8,3.57 -8,8 v 1 c 0,-4.43 3.57,-8 8,-8 h 144 c 4.43,0 8,3.57 8,8 v -1 c 0,-4.43 -3.57,-8 -8,-8 z"/><rect style="filter:url(#filter1283);opacity:.2;shape-rendering:crispEdges" width="35" height="35" x="78" y="81"/><rect style="fill:#babac0;shape-rendering:crispEdges" width="35" height="35" x="78" y="78"/><rect style="filter:url(#filter1279);opacity:.2;shape-rendering:crispEdges" width="71" height="35" x="78" y="46"/><rect style="fill:#e2e2e4;shape-rendering:crispEdges" width="71" height="35" x="78" y="43"/><rect style="filter:url(#filter1287);opacity:.2;shape-rendering:crispEdges" width="35" height="106" x="43" y="46"/><rect style="fill:#fff;shape-rendering:crispEdges" width="35" height="106" x="43" y="43"/></svg>