<?xml version='1.0' encoding='utf-8'?>
<svg xmlns="http://www.w3.org/2000/svg" width="192" height="192" version="1" id="svg12">
  <defs>
    <filter style="color-interpolation-filters:sRGB" id="filter955" x="0.05" width="1.10" y="0.05" height="1.10">
      <feGaussianBlur stdDeviation="3.20"/>
    </filter>
    <filter style="color-interpolation-filters:sRGB" id="filter11294" x="0.08" y="0.07" width="1.15" height="1.15">
      <feGaussianBlur stdDeviation="3.30"/>
    </filter>
  </defs>
  <rect style="filter:url(#filter955);opacity:0.20;fill:#000000" width="160" height="160" x="16" y="20" rx="30" ry="30"/>
  <rect style="fill:#3f3f3f" width="160" height="160" x="16" y="16" rx="30" ry="30"/>
  <path style="opacity:0.10;fill:#ffffff" d="M 46 16 C 29.38 16 16 29.38 16 46 L 16 47 C 16 30.38 29.38 17 46 17 L 146 17 C 162.62 17 176 30.38 176 47 L 176 46 C 176 29.38 162.62 16 146 16 L 46 16 z "/>
  <path style="filter:url(#filter11294);opacity:0.20;fill:#000000" d="m 106.06,151.54 c 8.24,-1.56 13.84,-6.56 16.57,-14.80 0.99,-3.00 14.81,-71.96 15.25,-76.08 0.41,-3.89 0.11,-7.25 -1.56,-10.00 -1.51,-2.87 -4.04,-4.72 -7.97,-5.82 C 126.05,44.19 125.83,44 101.66,44 H 77.28 L 75.31,54.15 C 74.23,59.74 73.34,64.88 73.35,65 c 0.01,0.12 8.75,0.14 19.43,0 h 17.03 c 2.56,0 3.52,0.59 3.82,2.69 0,0.93 -4.05,22.18 -4.87,25.58 L 108.61,94 H 97.16 c -6.30,0 -11.52,0.09 -11.60,0 0.09,0.09 0.62,-4.15 1.56,-8.75 0.95,-4.60 1.68,-8.46 1.64,-8.59 C 88.72,76.54 76.55,82.25 61.73,89.34 L 34.77,102 h 20.11 20.11 l -1.73,8.93 c 0.90,4.63 -1.66,8.46 -1.58,8.55 0.08,0.08 7.99,-3.61 17.57,-8.21 9.58,-4.60 17.46,-8.31 17.50,-8.25 0.22,0.27 -4.53,25.32 -4.96,26.13 0.99,1.89 0.35,1.86 -21.97,1.85 H 60.24 l 0.15,0.65 c 0.08,0.36 0.94,4.86 -1.92,9.99 C 57.20,146.78 56.25,152 56.25,152 c 0,0 0,0 23.62,0 20.37,0 24.12,0.07 26.18,0.46 z"/>
  <path style="fill:#78cf24" d="m 106.06,149.54 c 8.24,-1.56 13.84,-6.56 16.57,-14.80 0.99,-3.00 14.81,-71.96 15.25,-76.08 0.41,-3.89 0.11,-7.25 -1.56,-10.00 -1.51,-2.87 -4.04,-4.72 -7.97,-5.82 C 126.05,42.19 125.83,42 101.66,42 H 77.28 L 75.31,52.15 C 74.23,57.74 73.34,62.88 73.35,63 c 0.01,0.12 8.75,0.14 19.43,0 h 17.03 c 2.56,0 3.52,0.59 3.82,2.69 0,0.93 -4.05,22.18 -4.87,25.58 L 108.61,92 H 97.16 c -6.30,0 -11.52,0.09 -11.60,0 0.09,0.09 0.62,-4.15 1.56,-8.75 0.95,-4.60 1.68,-8.46 1.64,-8.59 C 88.72,74.54 76.55,80.25 61.73,87.34 L 34.77,100 h 20.11 20.11 l -1.73,8.93 c 0.90,4.63 -1.66,8.46 -1.58,8.55 0.08,0.08 7.99,-3.61 17.57,-8.21 9.58,-4.60 17.46,-8.31 17.50,-8.25 0.22,0.27 -4.53,25.32 -4.96,26.13 0.99,1.89 0.35,1.86 -21.97,1.85 H 60.24 l 0.15,0.65 c 0.08,0.36 0.94,4.86 -1.92,9.99 C 57.20,144.78 56.25,150 56.25,150 c 0,0 0,0 23.62,0 20.37,0 24.12,0.07 26.18,0.46 z"/>
  <path style="opacity:0.20;fill:#ffffff" d="M 77.28 42 L 75.31 52.15 C 74.23 57.74 73.34 62.88 73.35 63 C 73.35 63.00 73.50 63.00 73.52 63.01 C 73.72 61.73 74.39 57.92 75.31 53.15 L 77.28 43 L 101.66 43 C 125.83 43 126.05 43.19 128.34 43.84 C 132.28 44.94 134.81 46.79 136.32 49.66 C 137.37 51.66 137.92 53.99 137.99 56.60 C 138.05 53.58 137.50 50.91 136.32 48.66 C 134.81 45.79 132.28 43.94 128.34 42.84 C 126.05 42.19 125.83 42 101.66 42 L 77.28 42 z M 113.54 66.24 C 113.27 68.48 109.55 87.99 108.77 91.27 L 108.61 92 L 97.16 92 C 91.00 92 86.00 92.08 85.70 92.00 C 85.67 92.27 85.54 92.98 85.56 93 C 85.64 93.09 90.86 93 97.16 93 L 108.61 93 L 108.77 92.27 C 109.58 88.87 113.63 67.62 113.63 66.69 C 113.61 66.53 113.57 66.39 113.54 66.24 z M 88.76 74.67 C 88.72 74.54 76.55 80.25 61.73 87.34 L 34.78 100 L 36.90 100 L 61.73 88.34 C 76.23 81.40 88.03 75.87 88.57 75.75 C 88.63 75.43 88.77 74.69 88.76 74.67 z M 74.80 101 L 73.26 108.93 C 72.36 113.56 71.59 117.40 71.68 117.48 C 71.68 117.48 71.84 117.41 71.85 117.40 C 72.04 116.20 72.55 113.59 73.26 109.93 L 74.99 101 L 74.80 101 z M 106.75 102.02 C 106.75 102.01 106.63 102.07 106.63 102.07 C 105.93 106.72 102.17 126.42 101.79 127.15 C 100.80 129.04 101.44 129.01 79.81 129 L 60.24 129 L 60.09 129.64 C 60.01 130.01 59.15 134.50 58.17 139.64 C 57.20 144.78 56.25 150 56.25 150 L 56.44 150 C 56.60 149.13 57.29 145.28 58.17 140.64 C 59.15 135.50 60.01 131.01 60.09 130.64 L 60.24 130 L 79.81 130 C 101.44 130.01 100.80 130.04 101.79 128.15 C 102.21 127.33 106.97 102.29 106.75 102.02 z "/>
</svg>
