<?xml version='1.0' encoding='utf-8'?>
<svg xmlns="http://www.w3.org/2000/svg" width="192" height="192" version="1" id="svg18">
  <defs>
    <filter style="color-interpolation-filters:sRGB" id="filter857" x="-0.053999998" y="-0.043199999" width="1.108" height="1.0864">
      <feGaussianBlur stdDeviation="2.8799992"/>
    </filter>
    <filter style="color-interpolation-filters:sRGB" id="filter879" x="-0.048000145" y="-0.04799985" width="1.0960003" height="1.0959997">
      <feGaussianBlur stdDeviation="2.2400418"/>
    </filter>
  </defs>
  <path style="filter:url(#filter857);opacity:0.2" d="m 23.999131,180 c -4.431999,0 -7.999998,-3.568 -7.999998,-8 V 28.000042 c 0,-4.431999 3.567999,-7.999998 7.999998,-7.999998 H 135.9991 c 4.432,0 8,3.567999 8,7.999998 V 132.00001 L 95.999111,180 Z"/>
  <path style="fill:#e4e4e4" d="m 23.999131,176 c -4.431999,0 -7.999998,-3.568 -7.999998,-8 V 24.000043 c 0,-4.431999 3.567999,-7.999998 7.999998,-7.999998 H 135.9991 c 4.432,0 8,3.567999 8,7.999998 V 128.00001 L 95.999111,176 Z"/>
  <path style="opacity:0.2;fill:#ffffff" d="M 24 16 C 19.568001 16 16 19.568001 16 24 L 16 25 C 16 20.568001 19.568001 17 24 17 L 136 17 C 140.432 17 144 20.568001 144 25 L 144 24 C 144 19.568001 140.432 16 136 16 L 24 16 z "/>
  <path style="filter:url(#filter879);opacity:0.2" d="m 152.4071,18.023634 c -2.808,0.2548 -4.844,2.296799 -4.844,2.296799 L 63.99912,103.88401 V 130 H 90.115113 L 173.67909,46.436026 c 0,0 5.224,-5.219998 0,-10.443997 l -15.672,-15.671596 c -1.96,-1.958799 -3.91999,-2.449999 -5.59999,-2.296799 z"/>
  <path style="fill:#fafafa" d="m 95.999111,176 v -39.99999 c 0,-4.42 3.579999,-8 7.999999,-8 h 39.99999 z"/>
  <path style="fill:#f3d491" d="m 63.99912,128.00001 v -26.11199 l 26.111993,26.11199 z"/>
  <path style="fill:#545454" d="m 63.99912,128.00001 v -10.44399 l 10.443997,10.44399 z"/>
  <path style="fill:#ffbb29" d="M 147.5631,18.321244 63.99912,101.88802 90.111113,128.00001 173.67909,44.436037 c 0,0 5.22,-5.223598 0,-10.446397 l -15.668,-15.668396 c -5.22399,-5.222798 -10.44799,0 -10.44799,0 z"/>
</svg>
