<?xml version='1.0' encoding='utf-8'?>
<svg xmlns="http://www.w3.org/2000/svg" width="192" height="192" version="1" id="svg10">
  <defs>
    <linearGradient id="linear-gradient-6" x1="583.02" x2="528.42" y1="147.92" y2="697.21" gradientTransform="matrix(0.12979852,0,0,0.12955627,29.543342,30.574902)" gradientUnits="userSpaceOnUse">
      <stop offset="0" stop-color="#fff"/>
      <stop offset="1" stop-color="#f5f5f5"/>
    </linearGradient>
    <linearGradient id="linear-gradient-7" x1="494.96" x2="440.72" y1="142.09" y2="698.42" gradientTransform="matrix(0.12979852,0,0,0.12955627,29.543342,30.574902)" gradientUnits="userSpaceOnUse">
      <stop offset="0" stop-color="#fff"/>
      <stop offset="1" stop-color="#e6f0fc"/>
    </linearGradient>
    <filter id="filter1048" style="color-interpolation-filters:sRGB" width="1.23" height="1.20" x="0.12" y="0.10">
      <feGaussianBlur stdDeviation="4.23"/>
    </filter>
    <filter id="filter1090" style="color-interpolation-filters:sRGB" width="1.10" height="1.10" x="0.05" y="0.05">
      <feGaussianBlur stdDeviation="3.20"/>
    </filter>
  </defs>
  <rect style="filter:url(#filter1090);opacity:0.20" class="cls-1" width="160" height="160" x="16" y="20" rx="35"/>
  <rect style="fill:#137aea" class="cls-1" width="160" height="160" x="16" y="16" rx="35"/>
  <path style="filter:url(#filter1048);opacity:0.20" class="cls-2" d="m 96,48.00 a 1.82,1.81 0 0 0 0.64,0.12 1.82,1.81 0 0 0 0.04,0.01 1.82,1.81 0 0 0 0.94,0.87 v 0.01 c 0.01,0.01 0.01,0.02 0.02,0.03 L 52.13,136.71 a 1.30,1.30 0 0 0 0.04,0.92 1.30,1.30 0 0 0 0.12,0.23 1.30,1.30 0 0 0 0.47,0.48 1.30,1.30 0 0 0 0.23,0.12 1.30,1.30 0 0 0 0.92,0.02 l 31.91,-14.60 a 0.78,0.78 0 0 1 0.65,0.02 0.78,0.78 0 0 1 0.41,0.43 l 8.21,23.02 A 1.04,1.04 0 0 0 96,147.91 V 148 a 1.02,1.02 0 0 0 0.28,0.09 1.04,1.04 0 0 0 0.20,0.06 1.02,1.02 0 0 0 0.50,0.53 1.04,1.04 0 0 0 0.01,0.01 l 8.22,-23.02 a 0.78,0.78 0 0 1 1.06,0.45 l 31.91,14.60 a 1.30,1.30 0 0 0 1.71,-1.74 L 97.64,49.03 a 1.82,1.81 0 0 0 0.00,0.00 1.82,1.81 0 0 0 0.01,0.03 A 1.82,1.81 0 0 0 96.67,48.13 1.82,1.81 0 0 0 96.65,48.12 1.82,1.81 0 0 0 96,48.00 Z"/>
  <path style="fill:#f2f7fd" class="cls-2" d="M 138.16,136.45 106.25,121.85 a 0.78,0.78 0 0 0 -1.06,0.45 l -8.22,23.02 a 1.04,1.04 0 0 1 -1.96,0 L 86.81,122.29 A 0.78,0.78 0 0 0 85.75,121.85 l -31.91,14.60 a 1.30,1.30 0 0 1 -1.71,-1.74 L 94.36,47.03 a 1.82,1.81 0 0 1 3.28,0 l 42.23,87.68 a 1.30,1.30 0 0 1 -1.71,1.74 z"/>
  <path style="fill:#b8d5f7" class="cls-3" d="m 94.38,47.00 -7.94,74.87 a 0.78,0.78 0 0 0 0.69,0.02 l -31.91,14.60 a 1.30,1.30 0 0 1 -1.71,-1.74 L 94.36,47.03 c 0.01,0.01 0.01,0.02 0.02,0.03 z"/>
  <path style="fill:#7fb0f0" class="cls-4" d="m 105.56,121.87 a 0.76,0.76 0 0 0 0.28,0.24 0.74,0.74 0 0 0 0.09,0.18 v 0.01 l -8.22,23.02 a 1.02,1.02 0 0 1 0.98,0.69 V 46.26 l 1.62,0.73 z"/>
  <path style="fill:url(#linear-gradient-6)" class="cls-6" d="m 106.06,121.79 a 0.78,0.78 0 0 0 0.78,0.32 l -7.90,-74.12 0.44,0.22 z"/>
  <path style="fill:url(#linear-gradient-7)" class="cls-7" d="m 94.62,47.98 -7.91,74.12 a 0.78,0.78 0 0 0 0.28,0.24 0.77,0.77 0 0 0 0.50,0.08 l 8.24,-74.03 z"/>
  <path style="fill:#ffffff" class="cls-8" d="m 94.43,48.73 a 17.29,17.26 0 0 1 0.94,2.06 c 0.48,1.41 0.62,3.07 0.64,3.99 0.02,0.93 0.15,-2.58 0.64,-3.99 a 17.37,17.34 0 0 1 0.93,-2.05 z"/>
  <ellipse style="fill:#ffffff" class="cls-8" cx="96" cy="47.82" rx="1.82" ry="1.81"/>
  <path style="opacity:0.20;fill:#ffffff" class="cls-1" d="M 51 16 C 31.61 16 16 31.61 16 51 L 16 52 C 16 32.61 31.61 17 51 17 L 141 17 C 160.39 17 176 32.61 176 52 L 176 51 C 176 31.61 160.39 16 141 16 L 51 16 z"/>
</svg>
