<?xml version='1.0' encoding='utf-8'?>
<svg xmlns="http://www.w3.org/2000/svg" width="192" height="192" version="1" id="svg12">
  <defs>
    <filter style="color-interpolation-filters:sRGB" id="filter955" x="0.05" width="1.10" y="0.05" height="1.10">
      <feGaussianBlur stdDeviation="3.20"/>
    </filter>
    <filter style="color-interpolation-filters:sRGB" id="filter3038" x="0.10" y="0.12" width="1.20" height="1.24">
      <feGaussianBlur stdDeviation="4.37"/>
    </filter>
  </defs>
  <rect style="filter:url(#filter955);opacity:0.20;fill:#000000" width="160" height="160" x="16" y="20" rx="30" ry="30"/>
  <rect style="fill:#eb3729" width="160" height="160" x="16" y="16" rx="30" ry="30"/>
  <path style="opacity:0.20;fill:#ffffff" d="M 46 16 C 29.38 16 16 29.38 16 46 L 16 47 C 16 30.38 29.38 17 46 17 L 146 17 C 162.62 17 176 30.38 176 47 L 176 46 C 176 29.38 162.62 16 146 16 L 46 16 z "/>
  <path style="filter:url(#filter3038);opacity:0.20;fill:#000000" d="m 56.17,134.79 c 0.24,-9.13 0.65,-17.14 1.21,-23.83 2.22,-26.55 7.34,-45.13 13.03,-49.26 1.04,0.75 1.38,0.85 2.70,0.74 2.01,0.16 3.28,1.16 5.11,3.98 5.42,8.41 9.15,28.43 10.47,54.33 0.16,3.13 0.29,8.08 0.29,11.00 l 0.00,5.73 h 6.98 6.98 l 0.18,-9.23 c 0.56,-28.16 4.66,-52.49 10.68,-61.84 1.82,-2.83 3.10,-3.82 5.11,-3.98 1.32,0.11 1.67,0.01 2.70,0.74 6.52,4.74 12.09,28.31 13.75,60.19 0.15,2.97 0.37,8.70 0.48,12.75 L 136.02,142 h 6.39 6.59 l 0.19,-6.63 c 0.92,-31.62 -7.02,-58.28 -16.55,-72.36 -1.63,-2.41 -4.97,-5.86 -6.79,-7.03 -9.24,-5.91 -19.37,1.66 -26.50,19.79 0.80,2.04 -1.76,4.72 -2.14,5.97 0.37,1.24 0.75,2.26 0.83,2.26 0.08,0 0.45,-1.02 0.83,-2.26 C 92.52,72.95 87.91,64.13 83.58,59.55 76.77,52.35 69.69,52.15 63.09,58.98 51.83,70.62 44.23,99.80 43.19,135.37 L 43.00,142 h 6.59 6.39 z"/>
  <path style="fill:#ffc325" d="m 56.17,132.79 c 0.24,-9.13 0.65,-17.14 1.21,-23.83 2.22,-26.55 7.34,-45.13 13.03,-49.26 1.04,0.75 1.38,0.85 2.70,0.74 2.01,0.16 3.28,1.16 5.11,3.98 5.42,8.41 9.15,28.43 10.47,54.33 0.16,3.13 0.29,8.08 0.29,11.00 l 0.00,5.73 h 6.98 6.98 l 0.18,-9.23 c 0.56,-28.16 4.66,-52.49 10.68,-61.84 1.82,-2.83 3.10,-3.82 5.11,-3.98 1.32,0.11 1.67,0.01 2.70,0.74 6.52,4.74 12.09,28.31 13.75,60.19 0.15,2.97 0.37,8.70 0.48,12.75 L 136.02,140 h 6.39 6.59 l 0.19,-6.63 c 0.92,-31.62 -7.02,-58.28 -16.55,-72.36 -1.63,-2.41 -4.97,-5.86 -6.79,-7.03 -9.24,-5.91 -19.37,1.66 -26.50,19.79 0.80,2.04 -1.76,4.72 -2.14,5.97 0.37,1.24 0.75,2.26 0.83,2.26 0.08,0 0.45,-1.02 0.83,-2.26 C 92.52,70.95 87.91,62.13 83.58,57.55 76.77,50.35 69.69,50.15 63.09,56.98 51.83,68.62 44.23,97.80 43.19,133.37 L 43.00,140 h 6.59 6.39 z"/>
  <path style="opacity:0.20;fill:#ffffff" d="M 119.32 52.00 C 111.94 51.88 104.54 59.60 98.97 73.77 C 98.16 75.81 97.20 78.49 96.83 79.73 C 96.45 80.97 96.08 81.99 96 81.99 C 95.92 81.99 95.55 80.97 95.17 79.73 C 92.52 70.95 87.91 62.14 83.58 57.55 C 76.77 50.35 69.69 50.15 63.09 56.98 C 51.83 68.62 44.23 97.80 43.19 133.37 L 43 140 L 43.03 140 L 43.19 134.37 C 44.23 98.80 51.83 69.62 63.09 57.98 C 69.69 51.15 76.77 51.35 83.58 58.55 C 87.91 63.14 92.52 71.95 95.17 80.73 C 95.55 81.97 95.92 82.99 96 82.99 C 96.08 82.99 96.45 81.97 96.83 80.73 C 97.20 79.49 98.16 76.81 98.97 74.77 C 106.10 56.63 116.23 49.06 125.47 54.98 C 127.29 56.14 130.62 59.59 132.26 62.01 C 141.79 76.09 147.89 102.74 148.81 134.37 L 148.97 140 L 149 140 L 148.81 133.37 C 147.89 101.74 141.79 75.09 132.26 61.01 C 130.62 58.59 127.29 55.14 125.47 53.98 C 123.45 52.68 121.38 52.04 119.32 52.00 z "/>
</svg>
