<?xml version='1.0' encoding='utf-8'?>
<svg xmlns="http://www.w3.org/2000/svg" width="192" height="192" version="1.1" id="svg30">
  <defs>
    <filter style="color-interpolation-filters:sRGB" id="filter881" x="-0.0376" y="-0.066352941" width="1.0752" height="1.1327059">
      <feGaussianBlur stdDeviation="1.88"/>
    </filter>
    <filter style="color-interpolation-filters:sRGB" id="filter885" x="-0.045269373" y="-0.051110583" width="1.0905387" height="1.1022212">
      <feGaussianBlur stdDeviation="2.6407135"/>
    </filter>
    <filter style="color-interpolation-filters:sRGB" id="filter1057" x="-0.03490909" y="-0.076799998" width="1.0698182" height="1.1536">
      <feGaussianBlur stdDeviation="1.28"/>
    </filter>
  </defs>
  <path style="filter:url(#filter885);opacity:0.2" d="M 112,20 C 92.019328,20.0078 74.628752,32.883425 68.4375,51.414064 A 22,22 0 0 0 52,44 22,22 0 0 0 30,66 22,22 0 0 0 36.554688,81.640624 18,18 0 0 0 26,98 a 18,18 0 0 0 0.343748,3.42969 c 0.03116,0.16116 0.07394,0.31696 0.109376,0.47656 a 18,18 0 0 0 0.898438,2.89063 c 0.07294,0.17848 0.155916,0.34788 0.234376,0.52343 A 18,18 0 0 0 29,107.9375 c 0.07358,0.1108 0.158428,0.21124 0.234376,0.32032 a 18,18 0 0 0 1.992187,2.41406 c 0.05726,0.0577 0.121652,0.10712 0.179688,0.16408 a 18,18 0 0 0 2.492188,2.0625 c 0.05036,0.0344 0.105532,0.06 0.156252,0.0938 a 18,18 0 0 0 2.8125,1.52344 c 0.08843,0.0384 0.176468,0.0725 0.265624,0.10936 a 18,18 0 0 0 3.164063,0.98438 c 0.02696,0.006 0.05114,0.018 0.07812,0.0236 A 18,18 0 0 0 44,116 a 18,18 0 0 0 6,-1.05469 v 20.72657 C 50,140.28684 53.42836,144 57.6875,144 h 72.625 c 4.25914,0 7.6875,-3.71316 7.6875,-8.32812 v -18.71094 c 2.95939,1.97976 6.43946,3.03738 10,3.03906 9.94112,0 18,-8.05888 18,-18 C 165.9893,94.320328 161.10745,87.493224 153.84375,85 156.56753,79.035288 157.98462,72.557176 158,66 158,40.5949 137.4051,20 112,20 Z"/>
  <path style="filter:url(#filter881);opacity:0.2" d="m 50,112 c -6.648,0 -12,5.352 -12,12 v 47.5 c 0,4.709 3.345,8.5 7.5,8.5 h 16.5 24 24 24 16.5 c 4.155,0 7.5,-3.791 7.5,-8.5 V 124 c 0,-6.648 -5.352,-12 -12,-12 -6.648,0 -12,5.352 -12,12 v 8 c 0,-6.648 -5.352,-12 -12,-12 -6.648,0 -12,5.352 -12,12 v 4 c 0,-6.648 -5.352,-12 -12,-12 -6.648,0 -12,5.352 -12,12 v -4 c 0,-6.648 -5.352,-12 -12,-12 -6.648,0 -12,5.352 -12,12 v -8 c 0,-6.648 -5.352,-12 -12,-12 z"/>
  <path style="fill:#e6c59a" d="M 112,16 C 92.019328,16.0078 74.628752,28.883425 68.4375,47.414064 A 22,22 0 0 0 52,40 22,22 0 0 0 30,62 22,22 0 0 0 36.554688,77.640624 18,18 0 0 0 26,94 a 18,18 0 0 0 0.343748,3.429688 c 0.03116,0.16116 0.07394,0.31696 0.109376,0.47656 a 18,18 0 0 0 0.898438,2.890632 c 0.07294,0.17848 0.155916,0.34788 0.234376,0.52343 A 18,18 0 0 0 29,103.9375 c 0.07358,0.1108 0.158428,0.21124 0.234376,0.32032 a 18,18 0 0 0 1.992187,2.41406 c 0.05726,0.0577 0.121652,0.10712 0.179688,0.16408 a 18,18 0 0 0 2.492188,2.0625 c 0.05036,0.0344 0.105532,0.06 0.156252,0.0938 a 18,18 0 0 0 2.8125,1.52344 c 0.08843,0.0384 0.176468,0.0725 0.265624,0.10936 a 18,18 0 0 0 3.164063,0.98438 c 0.02696,0.006 0.05114,0.018 0.07812,0.0236 A 18,18 0 0 0 44,112 a 18,18 0 0 0 6,-1.05469 v 20.72657 C 50,136.28684 53.42836,140 57.6875,140 h 72.625 c 4.25914,0 7.6875,-3.71316 7.6875,-8.32812 v -18.71094 c 2.95939,1.97976 6.43946,3.03738 10,3.03906 9.94112,0 18,-8.05888 18,-18 C 165.9893,90.320328 161.10745,83.493224 153.84375,81 156.56753,75.035288 157.98462,68.557176 158,62 158,36.594902 137.4051,16 112,16 Z"/>
  <path style="filter:url(#filter1057);opacity:0.2;fill:#000000" d="M 66,70 A 12,12 0 0 0 54,82 12,12 0 0 0 66,94 12,12 0 0 0 78,82 12,12 0 0 0 66,70 Z m 64,0 A 12,12 0 0 0 118,82 12,12 0 0 0 130,94 12,12 0 0 0 142,82 12,12 0 0 0 130,70 Z M 82,94 c 0,8.83656 7.163444,16 16,16 8.83656,0 16,-7.16344 16,-16 z"/>
  <circle style="fill:#3f3f3f" cx="66" cy="80" r="12"/>
  <circle style="fill:#3f3f3f" cx="130" cy="80" r="12"/>
  <path style="fill:#a81a1a" d="m 114,92 c 0,8.83656 -7.16344,16 -16,16 -8.836556,0 -16,-7.16344 -16,-16 z"/>
  <circle style="fill:#ffffff" cx="70" cy="76" r="4"/>
  <circle style="fill:#ffffff" cx="134" cy="76" r="4"/>
  <path style="fill:#e54b3f" d="m 146,108 c -6.648,0 -12,5.352 -12,12 v 56 h 16.5 c 4.155,0 7.5,-3.791 7.5,-8.5 V 120 c 0,-6.648 -5.352,-12 -12,-12 z"/>
  <path style="fill:#e54b3f" d="m 50,108 c -6.648,0 -12,5.352 -12,12 v 47.5 c 0,4.709 3.345,8.5 7.5,8.5 H 62 v -56 c 0,-6.648 -5.352,-12 -12,-12 z"/>
  <path style="fill:#ffffff" d="m 74,116 c -6.648,0 -12,5.352 -12,12 v 48 h 24 v -48 c 0,-6.648 -5.352,-12 -12,-12 z"/>
  <path style="fill:#e54b3f" d="m 98,120 c -6.648,0 -12,5.352 -12,12 v 44 h 24 v -44 c 0,-6.648 -5.352,-12 -12,-12 z"/>
  <path style="fill:#ffffff" d="m 122,116 c -6.648,0 -12,5.352 -12,12 v 48 h 24 v -48 c 0,-6.648 -5.352,-12 -12,-12 z"/>
  <path style="opacity:0.2;fill:#ffffff" d="M 112 16 C 92.019328 16.0078 74.628752 28.883423 68.4375 47.414062 A 22 22 0 0 0 52 40 A 22 22 0 0 0 30 62 A 22 22 0 0 0 30.052734 62.529297 A 22 22 0 0 1 52 41 A 22 22 0 0 1 68.4375 48.414062 C 74.628752 29.883423 92.019328 17.0078 112 17 C 137.22824 17 157.70233 37.311688 157.98633 62.472656 C 157.98832 62.314953 157.99963 62.157801 158 62 C 158 36.594902 137.4051 16 112 16 z M 36.011719 77.988281 A 18 18 0 0 0 26 94 A 18 18 0 0 0 26.058594 94.591797 A 18 18 0 0 1 36.554688 78.640625 A 22 22 0 0 1 36.011719 77.988281 z M 154.20898 81.142578 C 154.08566 81.427816 153.97297 81.717027 153.84375 82 C 160.93131 84.432764 165.73703 90.994216 165.97656 98.445312 C 165.98023 98.295799 166 98.150396 166 98 C 165.98948 90.451848 161.26739 83.738 154.20898 81.142578 z "/>
</svg>
