<?xml version='1.0' encoding='utf-8'?>
<svg xmlns="http://www.w3.org/2000/svg" width="192" height="192" version="1" id="svg18">
  <defs>
    <filter style="color-interpolation-filters:sRGB" id="filter857" x="0.05" y="0.05" width="1.10" height="1.10">
      <feGaussianBlur stdDeviation="3.20"/>
    </filter>
    <filter style="color-interpolation-filters:sRGB" id="filter861" x="0.07" y="0.07" width="1.15" height="1.15">
      <feGaussianBlur stdDeviation="2.25"/>
    </filter>
  </defs>
  <circle style="filter:url(#filter857);opacity:0.20" cx="96" cy="100" r="80"/>
  <path style="fill:#396bd7" d="m 95.88,16.00 c -28.02,0 -52.53,14.37 -66.78,36.11 0.50,32.57 20.19,43.92 35.20,60.97 -2.76,-5.10 -4.37,-10.89 -4.37,-17.12 0,-19.93 16.16,-25.77 35.95,-27.99 l 71.39,-8.00 C 154.16,33.83 127.19,16.00 95.87,16.00 Z"/>
  <path style="fill:#6199f6" d="m 26.78,136.17 c 14.01,24.29 38.69,38.35 64.63,39.83 27.65,-15.26 42.31,-34.65 35.15,-61.00 -3.03,4.94 -7.23,9.23 -12.62,12.34 -8.56,4.95 -16.49,0.25 -25.32,-2.57 -8.95,-2.35 -18.77,-1.91 -23.78,-10.60 L 29.13,52.29 C 13.06,76.72 11.12,109.01 26.78,136.17 Z"/>
  <path style="fill:#a2c2fa" d="m 165.28,135.95 c 14.01,-24.29 13.83,-52.72 2.15,-75.94 l -70.35,0.03 c 5.79,0.16 11.60,1.66 16.99,4.77 9.22,5.33 8.35,15.85 10.39,25.47 1.78,8.38 7.40,15.64 2.77,23.68 l -35.70,61.89 c 29.17,1.71 58.08,-12.75 73.75,-39.90 z"/>
  <rect opacity="0.20" width="72" height="72" x="-134" y="-132" rx="36" ry="36" transform="matrix(0,-1,-1,0,0,0)" style="filter:url(#filter861)"/>
  <rect style="fill:#ffffff" width="72" height="72" x="-132" y="-132" rx="36" ry="36" transform="matrix(0,-1,-1,0,0,0)"/>
  <rect style="fill:#4688f4" width="56" height="56" x="-124" y="-124" rx="28" ry="28" transform="matrix(0,-1,-1,0,0,0)"/>
  <path style="opacity:0.20;fill:#ffffff" d="M 96 16 A 80 80 0 0 0 16 96 A 80 80 0 0 0 16.02 96.64 A 80 80 0 0 1 96 17 A 80 80 0 0 1 175.98 96.30 A 80 80 0 0 0 176 96 A 80 80 0 0 0 96 16 z "/>
</svg>
