<?xml version='1.0' encoding='utf-8'?>
<svg xmlns="http://www.w3.org/2000/svg" width="192" height="192" version="1" id="svg52">
  <defs>
    <filter style="color-interpolation-filters:sRGB" id="filter910" x="0.05" width="1.10" y="0.05" height="1.10">
      <feGaussianBlur stdDeviation="3.20"/>
    </filter>
    <filter style="color-interpolation-filters:sRGB" id="filter923" x="0.07" width="1.14" y="0.01" height="1.03">
      <feGaussianBlur stdDeviation="0.72"/>
    </filter>
    <filter style="color-interpolation-filters:sRGB" id="filter939" x="0.05" width="1.10" y="0.05" height="1.10">
      <feGaussianBlur stdDeviation="0.64"/>
    </filter>
    <filter style="color-interpolation-filters:sRGB" id="filter955" x="0.05" width="1.10" y="0.05" height="1.10">
      <feGaussianBlur stdDeviation="1.12"/>
    </filter>
  </defs>
  <rect style="filter:url(#filter910);opacity:0.20;fill:#000000" width="160" height="160" x="-180" y="-176" rx="8" ry="8" transform="matrix(0,-1,-1,0,0,0)"/>
  <rect transform="matrix(0,-1,-1,0,0,0)" ry="8" rx="8" y="-176" x="-176" height="160" width="160" style="fill:#3f3f3f"/>
  <path style="opacity:0.10;fill:#ffffff" d="M 24 16 C 19.57 16 16 19.57 16 24 L 16 25 C 16 20.57 19.57 17 24 17 L 168 17 C 172.43 17 176 20.57 176 25 L 176 24 C 176 19.57 172.43 16 168 16 L 24 16 z "/>
  <path d="m 168,132 a 36,36 0 0 1 -36,36 36,36 0 0 1 -36,-36 36,36 0 0 1 36,-36 36,36 0 0 1 36,36 z" style="opacity:0.30"/>
  <path d="m 160,136 a 28,28 0 0 1 -28,28 28,28 0 0 1 -28,-28 28,28 0 0 1 28,-28 28,28 0 0 1 28,28 z" style="filter:url(#filter955);opacity:0.20"/>
  <path d="M 156.25,146 A 28,28 30 0 1 118,156.25 28,28 30 0 1 107.75,118 28,28 30 0 1 146,107.75 28,28 30 0 1 156.25,146 Z" style="fill:#838383"/>
  <path d="M 80,100 H 27.01 C 25.34,100 24,98.58 24,96.82 v -1.63 c 0,-1.76 1.34,-3.18 3.01,-3.18 H 80 Z" style="fill:#ffdc59"/>
  <path style="filter:url(#filter923);opacity:0.10" d="M 76,38 A 12,12 0 0 0 64,50 12,12 0 0 0 76,62 12,12 0 0 0 88,50 12,12 0 0 0 76,38 Z m 0,48 A 12,12 0 0 0 64,98 12,12 0 0 0 76,110 12,12 0 0 0 88,98 12,12 0 0 0 76,86 Z m 0,48 a 12,12 0 0 0 -12,12 12,12 0 0 0 12,12 12,12 0 0 0 12,-12 12,12 0 0 0 -12,-12 z"/>
  <circle r="12" cy="96" cx="76" style="fill:#838383"/>
  <path d="M 80,148 H 27.01 C 25.34,148 24,146.58 24,144.82 v -1.63 C 24,141.42 25.34,140 27.01,140 H 80 Z" style="fill:#ffdc59"/>
  <circle r="12" cy="144" cx="76" style="fill:#838383"/>
  <path d="M 80,52.00 H 27.01 C 25.34,52.00 24,50.58 24,48.82 v -1.63 c 0,-1.76 1.34,-3.18 3.01,-3.18 H 80 Z" style="fill:#ffdc59"/>
  <circle r="12" cy="48" cx="76" style="fill:#838383"/>
  <rect ry="16" rx="16" y="32" x="96" height="32" width="72" style="opacity:0.30"/>
  <circle r="16" cy="50" cx="152" style="filter:url(#filter939);opacity:0.10"/>
  <circle r="16" cy="48" cx="152" style="fill:#838383"/>
  <path style="opacity:0.10;fill:#ffffff" d="M 152 32 A 16 16 0 0 0 136 48 A 16 16 0 0 0 136.02 48.38 A 16 16 0 0 1 152 33 A 16 16 0 0 1 167.98 48.59 A 16 16 0 0 0 168 48 A 16 16 0 0 0 152 32 z M 76 36 A 12 12 0 0 0 64 48 A 12 12 0 0 0 64.02 48.42 A 12 12 0 0 1 76 37 A 12 12 0 0 1 87.98 48.57 A 12 12 0 0 0 88 48 A 12 12 0 0 0 76 36 z M 76 84 A 12 12 0 0 0 64 96 A 12 12 0 0 0 64.02 96.42 A 12 12 0 0 1 76 85 A 12 12 0 0 1 87.98 96.57 A 12 12 0 0 0 88 96 A 12 12 0 0 0 76 84 z M 132.66 104.01 A 28 28 0 0 0 130.68 104.03 A 28 28 0 0 0 107.75 118 A 28 28 0 0 0 104.05 132.09 A 28 28 0 0 1 107.75 119 A 28 28 0 0 1 130.68 105.03 A 28 28 0 0 1 132.66 105.01 A 28 28 0 0 1 146 108.75 A 28 28 0 0 1 159.95 132.00 A 28 28 0 0 0 146 107.75 A 28 28 0 0 0 132.66 104.01 z M 76 132 A 12 12 0 0 0 64 144 A 12 12 0 0 0 64.02 144.42 A 12 12 0 0 1 76 133 A 12 12 0 0 1 87.98 144.57 A 12 12 0 0 0 88 144 A 12 12 0 0 0 76 132 z "/>
  <rect transform="rotate(30)" ry="4" rx="4" y="16.32" x="176.32" height="24" width="8" style="fill:#ffdc59"/>
</svg>
