<?xml version='1.0' encoding='utf-8'?>
<svg xmlns="http://www.w3.org/2000/svg" width="192" height="192" version="1" id="svg14">
  <defs>
    <filter style="color-interpolation-filters:sRGB" id="filter854" x="0.04" width="1.08" y="0.06" height="1.12">
      <feGaussianBlur stdDeviation="1.40"/>
    </filter>
    <filter style="color-interpolation-filters:sRGB" id="filter874" x="0.05" width="1.10" y="0.04" height="1.09">
      <feGaussianBlur stdDeviation="2.95"/>
    </filter>
  </defs>
  <path d="M 74.80,20.91 C 48.69,23.05 34.80,28.42 34.80,28.42 31.06,28.94 28,32.18 28,36.84 V 133.69 C 28,146.32 88,180 96,180 c 8,0 68,-33.68 68,-46.31 V 36.84 c 0,-4.67 -3.06,-7.91 -6.80,-8.42 0,0 -13.90,-5.38 -40,-7.52 l -6.94,12.23 -8.92,15.72 a 6.18,6.29 0 0 1 -10.69,0 L 81.73,33.14 Z" style="filter:url(#filter874);opacity:0.20"/>
  <path d="M 74.80,16.91 C 48.69,19.05 34.80,24.42 34.80,24.42 31.06,24.94 28,28.18 28,32.84 V 129.69 C 28,142.32 88,176 96,176 c 8,0 68,-33.68 68,-46.31 V 32.84 c 0,-4.67 -3.06,-7.91 -6.80,-8.42 0,0 -13.90,-5.38 -40,-7.52 l -6.94,12.23 -8.92,15.72 a 6.18,6.29 0 0 1 -10.69,0 L 81.73,29.14 Z" style="fill:#0f9d58"/>
  <path style="filter:url(#filter854);opacity:0.20;fill:#000000;color:#000000;font-stretch:normal;font-variant-ligatures:normal;font-variant-position:normal;font-variant-caps:normal;font-variant-numeric:normal;font-variant-alternates:normal;font-feature-settings:normal;text-indent:0;text-align:start;text-decoration-line:none;text-decoration-style:solid;text-decoration-color:#000000;text-transform:none;writing-mode:lr-tb;direction:ltr;text-orientation:mixed;dominant-baseline:auto;baseline-shift:baseline;white-space:normal;shape-padding:0;clip-rule:nonzero;display:inline;overflow:visible;visibility:visible;isolation:auto;mix-blend-mode:normal;color-interpolation:sRGB;color-interpolation-filters:linearRGB;solid-color:#000000;solid-opacity:1;vector-effect:none;fill-rule:nonzero;color-rendering:auto;image-rendering:auto;shape-rendering:auto;text-rendering:auto;enable-background:accumulate" d="m 136.23,67.92 a 8.00,8.00 0 0 0 -5.61,2.16 L 92.26,104.95 73.66,86.34 a 8.00,8.00 0 1 0 -11.31,11.31 l 24,24.00 a 8.00,8.00 0 0 0 11.04,0.26 L 141.38,81.92 a 8.00,8.00 0 0 0 -5.15,-14.00 z"/>
  <path d="m 68.00,88.00 24,24.00 44,-40.00" style="fill:none;stroke:#fdfdfd;stroke-width:16;stroke-linecap:round;stroke-linejoin:round"/>
  <path style="opacity:0.20;fill:#ffffff" d="M 74.80 16.91 C 48.69 19.05 34.80 24.42 34.80 24.42 C 31.06 24.94 28 28.18 28 32.84 L 28 33.84 C 28 29.18 31.06 25.94 34.80 25.42 C 34.80 25.42 48.69 20.05 74.80 17.91 L 81.73 30.14 L 90.66 45.86 A 6.18 6.29 0 0 0 101.34 45.86 L 110.27 30.14 L 117.20 17.91 C 143.31 20.05 157.20 25.42 157.20 25.42 C 160.94 25.94 164 29.18 164 33.84 L 164 32.84 C 164 28.18 160.94 24.94 157.20 24.42 C 157.20 24.42 143.31 19.05 117.20 16.91 L 110.27 29.14 L 101.34 44.86 A 6.18 6.29 0 0 1 90.66 44.86 L 81.73 29.14 L 74.80 16.91 z "/>
</svg>
