<?xml version='1.0' encoding='utf-8'?>
<svg xmlns="http://www.w3.org/2000/svg" width="192" height="192" version="1" id="svg28">
  <defs>
    <filter style="color-interpolation-filters:sRGB" id="filter901" x="0.05" width="1.10" y="0.05" height="1.10">
      <feGaussianBlur stdDeviation="3.20"/>
    </filter>
    <filter style="color-interpolation-filters:sRGB" id="filter2777" x="0.04" y="0.06" width="1.08" height="1.12">
      <feGaussianBlur stdDeviation="1.95"/>
    </filter>
  </defs>
  <rect style="filter:url(#filter901);opacity:0.20;fill:#000000" width="160" height="160" x="-180" y="-176" rx="12" ry="12" transform="matrix(0,-1,-1,0,0,0)"/>
  <rect transform="matrix(0,-1,-1,0,0,0)" ry="12" rx="12" y="-176" x="-176" height="160" width="160" style="fill:#005aab"/>
  <path style="filter:url(#filter2777);opacity:0.20;fill:#000000;stop-color:#000000" d="M 97.50,56 A 10.50,10.50 0 0 0 87,66.50 10.50,10.50 0 0 0 97.50,77 10.50,10.50 0 0 0 108,66.50 10.50,10.50 0 0 0 97.50,56 Z M 38,68 l 65,34 29,-34 -32,14 z m 40,26 -36,41 40,-16 72,15 z"/>
  <path style="opacity:0.10;fill:#ffffff" d="m 28,16 c -6.65,0 -12,5.35 -12,12 v 1 c 0,-6.65 5.35,-12 12,-12 h 136 c 6.65,0 12,5.35 12,12 v -1 c 0,-6.65 -5.35,-12 -12,-12 z"/>
  <circle style="fill:#ffffff;stop-color:#000000" cx="97.50" cy="64.50" r="10.50"/>
  <path style="fill:#f03940;stop-color:#000000" d="M 38,66.00 100,80 132,66 103,100 Z"/>
  <path style="fill:#ffffff;stop-color:#000000" d="M 154,132 82,117 42,133 78,92 Z"/>
</svg>
