<?xml version='1.0' encoding='utf-8'?>
<svg xmlns="http://www.w3.org/2000/svg" width="192" height="192" version="1.1" id="svg12">
  <defs>
    <filter style="color-interpolation-filters:sRGB" id="filter860" x="0.05" width="1.10" y="0.05" height="1.10">
      <feGaussianBlur stdDeviation="3.20"/>
    </filter>
    <filter style="color-interpolation-filters:sRGB" id="filter876" x="0.05" width="1.10" y="0.04" height="1.09">
      <feGaussianBlur stdDeviation="1.92"/>
    </filter>
  </defs>
  <circle style="filter:url(#filter860);opacity:0.20" cx="96" cy="100" r="80"/>
  <circle style="fill:#3f3f3f" cx="96" cy="96" r="80"/>
  <path style="filter:url(#filter876);opacity:0.20" d="M 100,47.00 V 119 C 100,127.84 92.84,135 84,135 75.16,135 68,127.84 68,119 68,110.16 75.16,103 84,103 85.35,103.01 86.69,103.19 88,103.53 V 87.29 C 86.67,87.11 85.34,87.01 84,87.00 66.33,87.00 52,101.33 52,119 52,136.67 66.33,151 84,151 101.67,151 116,136.67 116,119 V 82.23 C 122.87,86.94 131.05,91.00 140,91.00 V 75.70 71.91 C 135.34,71.92 130.90,70.61 126.95,68.14 V 68.15 C 121.58,64.80 117.60,59.44 116,53.14 L 114.80,47.00 Z"/>
  <path style="fill:#ffffff" d="M 100,44 V 116 C 100,124.84 92.84,132 84,132 75.16,132 68,124.84 68,116 68,107.16 75.16,100 84,100 85.35,100.01 86.69,100.19 88,100.53 V 84.29 C 86.67,84.11 85.34,84.01 84,84 66.33,84 52,98.33 52,116 52,133.67 66.33,148 84,148 101.67,148 116,133.67 116,116 V 79.23 C 122.87,83.94 131.05,88 140,88 V 72.70 68.91 C 135.34,68.92 130.90,67.61 126.95,65.14 V 65.15 C 121.58,61.80 117.60,56.44 116,50.14 L 114.80,44 Z"/>
  <path style="opacity:0.10;fill:#ffffff" d="M 96 16 A 80 80 0 0 0 16 96 A 80 80 0 0 0 16.02 96.49 A 80 80 0 0 1 96 17 A 80 80 0 0 1 175.97 96.49 A 80 80 0 0 0 176 96 A 80 80 0 0 0 96 16 z "/>
</svg>
