<?xml version='1.0' encoding='utf-8'?>
<svg xmlns="http://www.w3.org/2000/svg" width="192" height="192" version="1" id="svg10">
  <defs>
    <filter style="color-interpolation-filters:sRGB" id="filter851" x="0.05" width="1.10" y="0.05" height="1.10">
      <feGaussianBlur stdDeviation="3.20"/>
    </filter>
    <filter style="color-interpolation-filters:sRGB" id="filter884" x="0.05" width="1.11" y="0.04" height="1.09">
      <feGaussianBlur stdDeviation="1.44"/>
    </filter>
  </defs>
  <rect ry="8" rx="8" y="20" x="16" height="160" width="160" style="filter:url(#filter851);opacity:0.20;fill:#000000"/>
  <rect style="fill:#dcdcbe" width="160" height="160" x="16" y="16" rx="8" ry="8"/>
  <path d="m 64.00,58.00 v 8 h 0.03 L 82.40,97.80 64.00,129.66 V 138 h 64 v -16 h -8 v 8 h -46.95 l 16.16,-28 2.42,-4.20 v 0.01 L 89.21,93.60 73.27,66 h 38.73 v 4 h 8 V 58 h -56 z" style="filter:url(#filter884);opacity:0.10;fill:#000000"/>
  <path style="opacity:0.20;fill:#ffffff" d="M 24 16 C 19.57 16 16 19.57 16 24 L 16 25 C 16 20.57 19.57 17 24 17 L 168 17 C 172.43 17 176 20.57 176 25 L 176 24 C 176 19.57 172.43 16 168 16 L 24 16 z "/>
  <path style="fill:#2a2a2a" d="m 64.00,56 v 8 h 0.03 L 82.40,95.80 64.00,127.66 v 8.34 h 64 v -16 h -8 v 8 h -46.95 l 16.16,-28 2.42,-4.20 v 0.01 L 89.21,91.60 73.27,64.00 h 38.73 v 4 h 8 v -12 h -56 z"/>
</svg>
