<svg xmlns="http://www.w3.org/2000/svg" id="svg7" width="256" height="256" version="1.1" viewBox="0 0 192 192"><defs><filter style="color-interpolation-filters:sRGB" id="filter2106" width="1.1" height="1.1" x=".05" y=".05"><feGaussianBlur stdDeviation="3.2"/></filter><filter style="color-interpolation-filters:sRGB" id="filter2110" width="1.11" height="1.08" x=".06" y=".04"><feGaussianBlur stdDeviation="4.86"/></filter></defs><circle style="filter:url(#filter2106);opacity:.2;fill:#000" cx="96" cy="100" r="80"/><circle style="fill:#f80101" cx="96" cy="96" r="80"/><g transform="matrix(0.42,0,0,0.42,16.30,18.14)" style="filter:url(#filter2110);opacity:.2;fill:#000"><path style="fill:#000;fill-rule:nonzero" d="m 228.81,20.40 c 13.03,-2.20 23.11,-3.71 36.28,-1.71 l 1.89,0.32 -1.27,0.48 c -12.25,3.51 -20.78,9.00 -30.32,17.60 -17.18,14.96 -28.49,37.68 -27.24,60.68 2.03,0.51 4.54,1.05 6.56,1.63 21.23,6.07 41.92,16.11 56.47,33.14 16.69,19.05 22.73,45.48 20.88,70.33 -2.94,37.91 -28.67,73.39 -64.47,86.53 -23.86,8.90 -51.19,9.01 -74.75,0.96 C 128.39,278.37 108.10,258.85 96.58,235.05 85.39,212.36 82.34,186.22 85.64,161.30 90.62,126.13 108.29,93.25 133.50,68.48 159.79,43.74 193.42,27.09 228.81,20.40 Z"/></g><g><path style="fill:#fff;fill-rule:nonzero" d="m 228.81,20.40 c 13.03,-2.20 23.11,-3.71 36.28,-1.71 l 1.89,0.32 -1.27,0.48 c -12.25,3.51 -20.78,9.00 -30.32,17.60 -17.18,14.96 -28.49,37.68 -27.24,60.68 2.03,0.51 4.54,1.05 6.56,1.63 21.23,6.07 41.92,16.11 56.47,33.14 16.69,19.05 22.73,45.48 20.88,70.33 -2.94,37.91 -28.67,73.39 -64.47,86.53 -23.86,8.90 -51.19,9.01 -74.75,0.96 C 128.39,278.37 108.10,258.85 96.58,235.05 85.39,212.36 82.34,186.22 85.64,161.30 90.62,126.13 108.29,93.25 133.50,68.48 159.79,43.74 193.42,27.09 228.81,20.40 Z" transform="matrix(0.42,0,0,0.42,16.30,15.14)"/></g><path style="opacity:.2;fill:#fff" d="M 128 21.33 A 106.67 106.67 0 0 0 21.33 128 A 106.67 106.67 0 0 0 21.38 128.67 A 106.67 106.67 0 0 1 128 22.67 A 106.67 106.67 0 0 1 234.64 128.35 A 106.67 106.67 0 0 0 234.67 128 A 106.67 106.67 0 0 0 128 21.33 z" transform="scale(0.75)"/></svg>