<?xml version='1.0' encoding='utf-8'?>
<svg xmlns="http://www.w3.org/2000/svg" width="192" height="192" version="1" id="svg14">
  <defs>
    <filter style="color-interpolation-filters:sRGB" id="filter852" x="0.05" width="1.10" y="0.05" height="1.09">
      <feGaussianBlur stdDeviation="3.04"/>
    </filter>
    <filter style="color-interpolation-filters:sRGB" id="filter880" x="0.05" width="1.10" y="0.05" height="1.09">
      <feGaussianBlur stdDeviation="2.08"/>
    </filter>
  </defs>
  <path d="M 48.67,20.01 C 35.16,19.63 24.00,30.48 24,44.00 V 155.97 c 0.00,18.52 20.09,30.06 36.09,20.73 l 96.00,-55.99 c 15.87,-9.26 15.87,-32.19 0,-41.45 l -48,-28.00 -48.00,-27.99 c -3.47,-2.03 -7.40,-3.15 -11.42,-3.26 z" style="filter:url(#filter852);opacity:0.20"/>
  <path d="M 48.67,16.01 C 35.16,15.63 24.00,26.48 24,40.00 V 151.97 c 0.00,18.52 20.09,30.06 36.09,20.73 l 96.00,-55.99 c 15.87,-9.26 15.87,-32.19 0,-41.45 l -48,-28.00 -48.00,-27.99 c -3.47,-2.03 -7.40,-3.15 -11.42,-3.26 z" style="fill:#3f89e3"/>
  <path style="opacity:0.20;fill:#ffffff" d="M 47.41 16.01 C 34.47 16.31 24.00 26.90 24 39.99 L 24 40.99 C 24.00 27.48 35.16 16.63 48.67 17.01 C 52.69 17.12 56.62 18.24 60.09 20.27 L 108.09 48.26 L 156.09 76.26 C 163.91 80.82 167.83 88.69 167.94 96.62 C 168.16 88.36 164.24 80.01 156.09 75.26 L 108.09 47.26 L 60.09 19.27 C 56.62 17.24 52.69 16.12 48.67 16.01 C 48.25 16.00 47.83 16.00 47.41 16.01 z "/>
  <path d="M 100.54,46.85 24,91.04 V 113.10 L 96.94,155.21 108.09,148.70 124,139.43 V 60.54 L 108.09,51.26 Z M 108,61.03 V 143.11 L 36.91,102.07 Z" style="filter:url(#filter880);opacity:0.20"/>
  <path d="M 100.54,42.85 24,87.04 v 22.06 l 72.94,42.11 11.16,-6.51 L 124,135.43 V 56.54 L 108.09,47.26 Z M 108,57.03 V 139.11 L 36.91,98.07 Z" style="fill:#a4c7f6"/>
  <path style="opacity:0.20;fill:#ffffff" d="M 100.54 42.85 L 24 87.04 L 24 88.04 L 100.54 43.85 L 108.09 48.26 L 124 57.54 L 124 56.54 L 108.09 47.26 L 100.54 42.85 z M 37.78 98.57 L 36.91 99.07 L 108 140.11 L 108 139.11 L 37.78 98.57 z "/>
</svg>
