<?xml version='1.0' encoding='utf-8'?>
<svg xmlns="http://www.w3.org/2000/svg" width="192" height="192" version="1" id="svg14">
  <defs>
    <filter style="color-interpolation-filters:sRGB" id="filter848" x="0.05" width="1.10" y="0.05" height="1.10">
      <feGaussianBlur stdDeviation="3.20"/>
    </filter>
    <filter style="color-interpolation-filters:sRGB" id="filter871" x="0.02" width="1.04" y="0.03" height="1.06">
      <feGaussianBlur stdDeviation="1.38"/>
    </filter>
    <filter style="color-interpolation-filters:sRGB" id="filter900" x="0.05" width="1.10" y="0.05" height="1.10">
      <feGaussianBlur stdDeviation="1.92"/>
    </filter>
  </defs>
  <rect transform="matrix(0,-1,-1,0,0,0)" ry="8" rx="8" y="-176" x="-180" height="160" width="160" style="filter:url(#filter848);opacity:0.20"/>
  <rect transform="matrix(0,-1,-1,0,0,0)" ry="8" rx="8" y="-176" x="-176" height="160" width="160" style="fill:#284361"/>
  <path style="opacity:0.10;fill:#ffffff" d="m 24,16 c -4.43,0 -8,3.57 -8,8 v 1 c 0,-4.43 3.57,-8 8,-8 h 144 c 4.43,0 8,3.57 8,8 v -1 c 0,-4.43 -3.57,-8 -8,-8 z"/>
  <path style="filter:url(#filter871);opacity:0.20;fill:#000000" d="m 65,61 v 9 h 30 v -9 z m 0,12 v 9 H 95 V 73 Z M 32,85 v 9 h 30 v -9 z m 33,0 v 9 h 30 v -9 z m 99,0 v 9 h 12 V 85 Z M 16,97 v 9 h 13 v -9 z m 16,0 v 9 h 30 v -9 z m 33,0 v 9 h 30 v -9 z m 66,0 v 9 h 30 v -9 z m 33,0 v 9 h 12 V 97 Z M 16,109 v 9 h 13 v -9 z m 16,0 v 9 h 30 v -9 z m 33,0 v 9 h 30 v -9 z m 33,0 v 9 h 30 v -9 z m 33,0 v 9 h 30 v -9 z m 33,0 v 9 h 12 v -9 z M 16,121 v 9 h 13 v -9 z m 16,0 v 9 h 30 v -9 z m 33,0 v 9 h 30 v -9 z m 33,0 v 9 h 30 v -9 z m 33,0 v 9 h 30 v -9 z m 33,0 v 9 h 12 v -9 z M 16,133 v 9 h 13 v -9 z m 16,0 v 9 h 30 v -9 z m 33,0 v 9 h 30 v -9 z m 33,0 v 9 h 30 v -9 z m 33,0 v 9 h 30 v -9 z m 33,0 v 9 h 12 v -9 z M 16,145 v 9 h 13 v -9 z m 16,0 v 9 h 30 v -9 z m 33,0 v 9 h 30 v -9 z m 33,0 v 9 h 30 v -9 z m 33,0 v 9 h 30 v -9 z m 33,0 v 9 h 12 v -9 z M 16,157 v 9 h 13 v -9 z m 16,0 v 9 h 30 v -9 z m 33,0 v 9 h 30 v -9 z m 33,0 v 9 h 30 v -9 z m 33,0 v 9 h 30 v -9 z m 33,0 v 9 h 12 v -9 z M 16.07,169 c 0.49,3.96 3.84,7 7.93,7 h 5 v -7 z M 32,169 v 7 h 30 v -7 z m 33,0 v 7 h 30 v -7 z m 33,0 v 7 h 30 v -7 z m 33,0 v 7 h 30 v -7 z m 33,0 v 7 h 4 c 4.09,0 7.44,-3.04 7.93,-7 z"/>
  <path style="fill:#288cfb" d="m 65,59 v 9 h 30 v -9 z m 0,12 v 9 H 95 V 71 Z M 32,83 v 9 h 30 v -9 z m 33,0 v 9 h 30 v -9 z m 99,0 v 9 h 12 V 83 Z M 16,95 v 9 h 13 v -9 z m 16,0 v 9 h 30 v -9 z m 33,0 v 9 h 30 v -9 z m 66,0 v 9 h 30 v -9 z m 33,0 v 9 h 12 V 95 Z M 16,107 v 9 h 13 v -9 z m 16,0 v 9 h 30 v -9 z m 33,0 v 9 h 30 v -9 z m 33,0 v 9 h 30 v -9 z m 33,0 v 9 h 30 v -9 z m 33,0 v 9 h 12 v -9 z M 16,119 v 9 h 13 v -9 z m 16,0 v 9 h 30 v -9 z m 33,0 v 9 h 30 v -9 z m 33,0 v 9 h 30 v -9 z m 33,0 v 9 h 30 v -9 z m 33,0 v 9 h 12 v -9 z M 16,131 v 9 h 13 v -9 z m 16,0 v 9 h 30 v -9 z m 33,0 v 9 h 30 v -9 z m 33,0 v 9 h 30 v -9 z m 33,0 v 9 h 30 v -9 z m 33,0 v 9 h 12 v -9 z M 16,143 v 9 h 13 v -9 z m 16,0 v 9 h 30 v -9 z m 33,0 v 9 h 30 v -9 z m 33,0 v 9 h 30 v -9 z m 33,0 v 9 h 30 v -9 z m 33,0 v 9 h 12 v -9 z M 16,155 v 9 h 13 v -9 z m 16,0 v 9 h 30 v -9 z m 33,0 v 9 h 30 v -9 z m 33,0 v 9 h 30 v -9 z m 33,0 v 9 h 30 v -9 z m 33,0 v 9 h 12 v -9 z M 16,167 v 1 c 0,4.43 3.57,8 8,8 h 5 v -9 z m 16,0 v 9 h 30 v -9 z m 33,0 v 9 h 30 v -9 z m 33,0 v 9 h 30 v -9 z m 33,0 v 9 h 30 v -9 z m 33,0 v 9 h 4 c 4.43,0 8,-3.57 8,-8 v -1 z"/>
  <path style="opacity:0.20;fill:#ffffff" d="m 65,59 v 1 h 30 v -1 z m 0,12 v 1 H 95 V 71 Z M 32,83 v 1 h 30 v -1 z m 33,0 v 1 h 30 v -1 z m 99,0 v 1 h 12 V 83 Z M 16,95 v 1 h 13 v -1 z m 16,0 v 1 h 30 v -1 z m 33,0 v 1 h 30 v -1 z m 66,0 v 1 h 30 v -1 z m 33,0 v 1 h 12 V 95 Z M 16,107 v 1 h 13 v -1 z m 16,0 v 1 h 30 v -1 z m 33,0 v 1 h 30 v -1 z m 33,0 v 1 h 30 v -1 z m 33,0 v 1 h 30 v -1 z m 33,0 v 1 h 12 v -1 z M 16,119 v 1 h 13 v -1 z m 16,0 v 1 h 30 v -1 z m 33,0 v 1 h 30 v -1 z m 33,0 v 1 h 30 v -1 z m 33,0 v 1 h 30 v -1 z m 33,0 v 1 h 12 v -1 z M 16,131 v 1 h 13 v -1 z m 16,0 v 1 h 30 v -1 z m 33,0 v 1 h 30 v -1 z m 33,0 v 1 h 30 v -1 z m 33,0 v 1 h 30 v -1 z m 33,0 v 1 h 12 v -1 z M 16,143 v 1 h 13 v -1 z m 16,0 v 1 h 30 v -1 z m 33,0 v 1 h 30 v -1 z m 33,0 v 1 h 30 v -1 z m 33,0 v 1 h 30 v -1 z m 33,0 v 1 h 12 v -1 z M 16,155 v 1 h 13 v -1 z m 16,0 v 1 h 30 v -1 z m 33,0 v 1 h 30 v -1 z m 33,0 v 1 h 30 v -1 z m 33,0 v 1 h 30 v -1 z m 33,0 v 1 h 12 v -1 z M 16,167 v 1 h 13 v -1 z m 16,0 v 1 h 30 v -1 z m 33,0 v 1 h 30 v -1 z m 33,0 v 1 h 30 v -1 z m 33,0 v 1 h 30 v -1 z m 33,0 v 1 h 12 v -1 z"/>
  <path d="M 96.00,50 C 69.44,50 48.00,71.44 48.00,98.00 v 32.00 c 0,0 0,16.00 16.00,16.00 H 80.00 V 106 H 64.00 V 98.00 C 64.00,80.24 78.24,66 96.00,66 113.76,66 128.00,80.24 128.00,98.00 V 106 H 112 v 40 h 16.00 c 0,0 16.00,0 16.00,-16.00 V 98.00 C 144,71.44 122.56,50 96.00,50 Z" style="filter:url(#filter900);opacity:0.20;fill:#000000"/>
  <path style="fill:#ffffff" d="M 96.00,48 C 69.44,48 48.00,69.44 48.00,96.00 v 32.00 c 0,0 0,16.00 16.00,16.00 H 80.00 V 104 H 64.00 V 96.00 C 64.00,78.24 78.24,64 96.00,64 113.76,64 128.00,78.24 128.00,96.00 V 104 H 112 v 40 h 16.00 c 0,0 16.00,0 16.00,-16.00 V 96.00 C 144,69.44 122.56,48 96.00,48 Z"/>
</svg>
