<?xml version='1.0' encoding='utf-8'?>
<svg xmlns="http://www.w3.org/2000/svg" width="192" height="192" version="1" id="svg14">
  <defs>
    <filter style="color-interpolation-filters:sRGB" id="filter850" x="-0.048000001" width="1.096" y="-0.048000001" height="1.096">
      <feGaussianBlur stdDeviation="3.2"/>
    </filter>
    <filter style="color-interpolation-filters:sRGB" id="filter7497" x="-0.10820897" y="-0.10826774" width="1.2164179" height="1.2165355">
      <feGaussianBlur stdDeviation="4.3307223"/>
    </filter>
  </defs>
  <circle style="filter:url(#filter850);opacity:0.2;fill:#000000" cx="96" cy="100" r="80"/>
  <circle r="80" cy="96" cx="96" style="fill:#009cf1"/>
  <path style="opacity:0.2;fill:#ffffff" d="M 96 16 A 80 80 0 0 0 16 96 A 80 80 0 0 0 16.019531 96.472656 A 80 80 0 0 1 96 17 A 80 80 0 0 1 175.97461 96.513672 A 80 80 0 0 0 176 96 A 80 80 0 0 0 96 16 z "/>
  <path style="fill:#38adfa" d="m 688.80525,256.99648 c -0.33229,-0.33229 -1.1948,-0.36781 -1.91667,-0.0789 -0.79773,0.31922 -0.56078,0.55618 0.60417,0.60416 1.05416,0.0434 1.64479,-0.19293 1.3125,-0.52522 z"/>
  <path style="filter:url(#filter7497);opacity:0.2;fill:#000000" d="m 96,49.999718 a 48,48 0 0 0 -48,48 48,48 0 0 0 48,48.000002 48,48 0 0 0 24.38086,-6.76172 l 14.48047,5.69336 c 6.64868,1.7815 11.14304,2.55897 8.3457,-7.88086 l -5.49805,-15.5332 A 48,48 0 0 0 144,97.999718 a 48,48 0 0 0 -48,-48 z m 0,19 a 29,29 0 0 1 29,29 29,29 0 0 1 -29,29.000002 29,29 0 0 1 -29,-29.000002 29,29 0 0 1 29,-29 z"/>
  <path style="fill:#fffbfa" d="M 96 48 A 48 48 0 0 0 48 96 A 48 48 0 0 0 96 144 A 48 48 0 0 0 120.38086 137.23828 L 134.86133 142.93164 C 141.51001 144.71314 146.00437 145.49061 143.20703 135.05078 L 137.70898 119.51758 A 48 48 0 0 0 144 96 A 48 48 0 0 0 96 48 z M 96 67 A 29 29 0 0 1 125 96 A 29 29 0 0 1 96 125 A 29 29 0 0 1 67 96 A 29 29 0 0 1 96 67 z "/>
</svg>
