<?xml version='1.0' encoding='utf-8'?>
<svg xmlns="http://www.w3.org/2000/svg" width="192" height="192" version="1" id="svg18">
  <defs>
    <filter style="color-interpolation-filters:sRGB" id="filter843" x="-0.048000001" width="1.096" y="-0.048000001" height="1.096">
      <feGaussianBlur stdDeviation="3.2"/>
    </filter>
    <filter style="color-interpolation-filters:sRGB" id="filter857" x="-0.056464727" width="1.1129295" y="-0.041570925" height="1.0831418">
      <feGaussianBlur stdDeviation="0.39838804"/>
    </filter>
  </defs>
  <circle r="80" cy="100" cx="96" style="filter:url(#filter843);opacity:0.2;fill:#000000"/>
  <circle style="fill:#569a40" cx="96" cy="96" r="80"/>
  <path style="opacity:0.5;fill:#ffffff" d="M 96 24 A 72 72 0 0 0 24 96 A 72 72 0 0 0 96 168 A 72 72 0 0 0 168 96 A 72 72 0 0 0 96 24 z M 96 36 A 60 60 0 0 1 156 96 A 60 60 0 0 1 96 156 A 60 60 0 0 1 36 96 A 60 60 0 0 1 96 36 z "/>
  <g transform="matrix(4.1338584,0,0,4,-129.46104,-68.055344)" style="filter:url(#filter857);opacity:0.2;fill:#000000">
    <path d="M 21.945312,12 C 20.88232,12 19.713091,12.04529 18.4375,12.136719 17.185532,12.20529 16.039371,12.35346 15,12.582031 V 15 35 H 19.464844 20 v -7.465727 h 1.697266 c 1.795275,0 2.889415,-0.14817 4.283116,-0.445312 1.3937,-0.297143 2.574464,-0.755904 3.542969,-1.373047 0.968503,-0.64 1.701202,-1.450736 2.197265,-2.433594 0.519685,-1.005713 0.779297,-1.705238 0.779297,-3.099523 0,-2.674286 -0.955755,-5.040889 -2.869141,-6.298031 C 27.741009,12.627623 25.512242,12 21.945312,12 Z m 0.31836,3.736328 c 1.359258,0.08132 2.646958,0.193662 3.822179,0.824219 0.543307,0.297143 0.968304,0.708661 1.27539,1.234375 0.307087,0.525715 0.460938,1.575576 0.460938,2.352719 0,0.70706 -0.109879,1.221654 -0.32962,1.626425 C 26.036942,23.80584 21.940989,23.821322 20,23.831148 v -8.024507 c 0.642915,-0.04232 1.372925,-0.07031 2.263672,-0.07031 z" transform="matrix(0.96761902,0,0,1,33.25248,17.513836)" style="fill:#000000"/>
  </g>
  <g transform="matrix(4.1338584,0,0,4,-129.46104,-70.055344)">
    <path style="fill:#ffffff" transform="matrix(0.96761902,0,0,1,33.25248,17.513836)" d="M 21.945312,12 C 20.88232,12 19.713091,12.04529 18.4375,12.136719 17.185532,12.20529 16.039371,12.35346 15,12.582031 V 15 35 H 19.464844 20 v -7.465727 h 1.697266 c 1.795275,0 2.889415,-0.14817 4.283116,-0.445312 1.3937,-0.297143 2.574464,-0.755904 3.542969,-1.373047 0.968503,-0.64 1.701202,-1.450736 2.197265,-2.433594 0.519685,-1.005713 0.779297,-1.705238 0.779297,-3.099523 0,-2.674286 -0.955755,-5.040889 -2.869141,-6.298031 C 27.741009,12.627623 25.512242,12 21.945312,12 Z m 0.31836,3.736328 c 1.359258,0.08132 2.646958,0.193662 3.822179,0.824219 0.543307,0.297143 0.968304,0.708661 1.27539,1.234375 0.307087,0.525715 0.460938,1.575576 0.460938,2.352719 0,0.70706 -0.109879,1.221654 -0.32962,1.626425 C 26.036942,23.80584 21.940989,23.821322 20,23.831148 v -8.024507 c 0.642915,-0.04232 1.372925,-0.07031 2.263672,-0.07031 z"/>
  </g>
  <path style="opacity:0.2;fill:#ffffff" d="M 96 16 A 80 80 0 0 0 16 96 A 80 80 0 0 0 16.021484 96.585938 A 80 80 0 0 1 96 17 A 80 80 0 0 1 175.97852 96.414062 A 80 80 0 0 0 176 96 A 80 80 0 0 0 96 16 z "/>
</svg>
