<?xml version='1.0' encoding='utf-8'?>
<svg xmlns="http://www.w3.org/2000/svg" width="192" height="192" version="1" id="svg14">
  <defs>
    <filter style="color-interpolation-filters:sRGB" id="filter850" x="0.05" width="1.10" y="0.05" height="1.10">
      <feGaussianBlur stdDeviation="3.20"/>
    </filter>
    <filter style="color-interpolation-filters:sRGB" id="filter2899" x="0.06" y="0.11" width="1.12" height="1.21">
      <feGaussianBlur stdDeviation="2.42"/>
    </filter>
    <filter style="color-interpolation-filters:sRGB" id="filter2903" x="0.07" y="0.08" width="1.14" height="1.16">
      <feGaussianBlur stdDeviation="2.92"/>
    </filter>
  </defs>
  <circle style="filter:url(#filter850);opacity:0.20;fill:#000000" cx="96" cy="100" r="80"/>
  <circle r="80" cy="96" cx="96" style="fill:#e4e4e4"/>
  <path style="filter:url(#filter2899);opacity:0.20;fill:#000000" class="cls-1" d="m 96,47.11 c -27.61,0 -50,22.29 -50,49.78 h 0.01 v 5.21 H 60 v -5.10 l -7,0.03 v 0.05 C 53.89,73.87 72.79,55.00 96.01,55.00 119.23,55.00 138.11,73.87 139,96.97 v 0.05 l -7,0.03 v 5.10 h 14 v -5.21 c 0,-27.49 -22.39,-49.78 -50,-49.78 z m 0.06,13.89 v 7 C 111.91,67.78 125.27,81.14 125,97.00 h 7 V 96.79 C 132.03,87.42 128.06,78.27 121.43,71.65 114.83,65.00 105.85,60.99 96.47,61.00 Z m 0.02,14 v 7 C 104.13,81.75 111.27,88.91 111,97.00 h 7 C 118.29,85.20 107.84,74.75 96.04,75.00 Z"/>
  <path style="fill:#38adfa" d="m 688.81,257.00 c 0.33,0.33 -1.19,0.37 -1.92,0.08 0.80,0.32 0.56,0.56 0.60,0.60 1.05,0.04 1.64,0.19 1.31,0.53 z"/>
  <path style="opacity:0.20;fill:#ffffff" d="M 96 16 A 80 80 0 0 0 16 96 A 80 80 0 0 0 16.02 96.47 A 80 80 0 0 1 96 17 A 80 80 0 0 1 175.97 96.51 A 80 80 0 0 0 176 96 A 80 80 0 0 0 96 16 z "/>
  <path style="fill:#f44336" class="cls-1" d="M 96 46.11 C 68.39 46.11 46 68.39 46 95.89 L 46.01 95.89 L 46.01 101.10 L 60 101.10 L 60 96 L 53 96.03 L 53 95.97 C 53.89 72.87 72.79 54 96.01 54 C 119.23 54 138.11 72.87 139 95.97 L 139 96.03 L 132 96 L 132 101.10 L 146 101.10 L 146 95.89 C 146 68.39 123.61 46.11 96 46.11 z M 96.06 60 L 96.06 67 C 111.91 66.78 125.27 80.14 125 96.00 L 132 96.00 L 132 95.79 C 132.03 86.42 128.06 77.27 121.43 70.65 C 114.83 64.00 105.85 59.99 96.47 60 L 96.06 60 z M 96.04 74 L 96.04 81 C 104.13 80.75 111.27 87.91 111 96.00 L 118 96.00 C 118.29 84.20 107.84 73.75 96.04 74 z "/>
  <path style="filter:url(#filter2903);opacity:0.20;fill:#000000" d="M 96,52.32 92.25,93.32 a 6,6 0 1 0 7.50,0 z M 46,110.00 v 29 h 6 v -11 h 14 v -6 H 52 v -6 h 16 v -6 z m 31.12,0 -12.12,29 h 6.34 l 2.59,-6 h 11.95 l 2.59,6 H 88.49 95 l -12.12,-29 z m 44.88,0 v 6 h 9 v 23 h 6 v -23 h 9 v -6 z m -13.68,0.00 C 102.43,110.00 98,113.39 98,118.51 v 0.08 c 0,5.60 3.94,7.18 9.78,8.63 4.85,1.21 6.22,2.01 6.22,3.58 v 0.08 c 0,1.65 -1.95,3.11 -4.56,3.11 -3.32,0 -6.05,-1.83 -8.67,-3.90 L 97,134.49 c 3.40,2.92 7.78,4.53 12.32,4.51 6.26,0 10.66,-3.13 10.68,-8.74 v 0.08 c 0,-4.92 -3.35,-6.98 -9.23,-8.47 C 105.75,120.45 104,119.85 104,117.99 v 0.08 c 0,-1.38 1.77,-2.91 4.21,-2.91 2.44,0 4.97,1.50 7.54,3.24 l 3.32,-4.68 c -3.05,-2.36 -6.85,-3.62 -10.75,-3.56 z m -28.41,7.61 3.76,9.39 h -7.52 z"/>
  <path style="fill:#4f4f4f" d="M 96 50.32 L 92.25 91.32 A 6 6 0 1 0 99.75 91.32 L 96 50.32 z M 46 108 L 46 137 L 52 137 L 52 126 L 66 126 L 66 120 L 52 120 L 52 114 L 68 114 L 68 108 L 46 108 z M 77.12 108 L 65 137 L 71.34 137 L 73.93 131 L 85.88 131 L 88.47 137 L 88.49 137 L 95 137 L 82.88 108 L 77.12 108 z M 122 108 L 122 114 L 131 114 L 131 137 L 137 137 L 137 114 L 146 114 L 146 108 L 122 108 z M 108.32 108.00 C 102.43 108.00 98 111.39 98 116.51 L 98 116.60 C 98 122.20 101.94 123.77 107.78 125.22 C 112.63 126.43 114 127.23 114 128.81 L 114 128.89 C 114 130.54 112.05 132 109.44 132 C 106.12 132 103.39 130.17 100.77 128.10 L 97 132.49 C 100.40 135.41 104.78 137.02 109.32 137 C 115.57 137 119.97 133.87 120 128.26 L 120 128.17 C 120 123.25 116.65 121.20 110.77 119.70 C 105.75 118.45 104 117.85 104 115.99 L 104 115.91 C 104 114.53 105.77 113 108.21 113 C 110.65 113 113.18 114.50 115.75 116.24 L 119.07 111.56 C 116.02 109.20 112.22 107.94 108.32 108.00 z M 79.91 115.61 L 83.67 125 L 76.15 125 L 79.91 115.61 z "/>
</svg>
