<?xml version='1.0' encoding='utf-8'?>
<svg xmlns="http://www.w3.org/2000/svg" width="192" height="192" version="1" id="svg28">
  <defs>
    <filter style="color-interpolation-filters:sRGB" id="filter3608" x="0.06" y="0.04" width="1.11" height="1.08">
      <feGaussianBlur stdDeviation="2.80"/>
    </filter>
    <filter style="color-interpolation-filters:sRGB" id="filter3774" x="0.06" y="0.04" width="1.11" height="1.08">
      <feGaussianBlur stdDeviation="1.03"/>
    </filter>
  </defs>
  <path style="filter:url(#filter3608);opacity:0.20;fill:#000000" d="M 95,20 C 78.38,20 65,33.38 65,50 v 45 c 0,16.62 13.38,30 30,30 h 2 c 16.62,0 30,-13.38 30,-30 V 50 C 127,33.38 113.62,20 97,20 Z M 45.02,87 C 40.05,86.99 36.01,91.01 36,95.99 35.96,117.43 47.39,137.19 65.94,147.93 72.54,151.75 79.69,154.19 87,155.29 V 171 a 9,9 0 0 0 9,9 9,9 0 0 0 9,-9 v -15.71 c 7.28,-1.10 14.40,-3.52 20.97,-7.31 C 144.54,137.27 156,117.53 156,96.09 c 0,-4.97 -4.03,-9.00 -9,-9.00 -4.97,0 -9,4.03 -9,9.00 0,15.03 -8.00,28.82 -21.02,36.33 -13.02,7.51 -29.02,7.49 -42.02,0.04 C 61.95,124.85 53.97,111.05 54,96.02 54.01,91.05 49.99,87.01 45.02,87 Z"/>
  <rect style="fill:#3fcde1" width="62" height="105" x="65" y="16" rx="30" ry="30"/>
  <path style="fill:#b1bfc5;color:#000000" d="M 45.02 83 C 40.05 82.99 36.01 87.01 36 91.99 C 35.96 113.43 47.39 133.19 65.94 143.93 C 72.54 147.75 79.69 150.19 87 151.29 L 87 167 A 9 9 0 0 0 96 176 A 9 9 0 0 0 105 167 L 105 151.29 C 112.28 150.19 119.40 147.77 125.97 143.98 C 144.54 133.27 156 113.53 156 92.09 C 156 87.12 151.97 83.09 147 83.09 C 142.03 83.09 138 87.12 138 92.09 C 138 107.12 130.00 120.91 116.98 128.42 C 103.96 135.93 87.96 135.91 74.96 128.38 C 61.95 120.85 53.97 107.05 54 92.02 C 54.01 87.05 49.99 83.01 45.02 83 z "/>
  <path style="filter:url(#filter3774);opacity:0.20;fill:#000000;color:#000000" d="m 78,41 a 4,4 0 0 0 -4,4 4,4 0 0 0 4,4 h 36 a 4,4 0 0 0 4,-4 4,4 0 0 0 -4,-4 z m 0,17 a 4,4 0 0 0 -4,4 4,4 0 0 0 4,4 h 36 a 4,4 0 0 0 4,-4 4,4 0 0 0 -4,-4 z m 0,17 a 4,4 0 0 0 -4,4 4,4 0 0 0 4,4 h 36 a 4,4 0 0 0 4,-4 4,4 0 0 0 -4,-4 z m 0,17 a 4,4 0 0 0 -4,4 4,4 0 0 0 4,4 h 36 a 4,4 0 0 0 4,-4 4,4 0 0 0 -4,-4 z"/>
  <path style="fill:#143950;color:#000000" d="m 78,39 a 4,4 0 0 0 -4,4 4,4 0 0 0 4,4 h 36 a 4,4 0 0 0 4,-4 4,4 0 0 0 -4,-4 z m 0,17 a 4,4 0 0 0 -4,4 4,4 0 0 0 4,4 h 36 a 4,4 0 0 0 4,-4 4,4 0 0 0 -4,-4 z m 0,17 a 4,4 0 0 0 -4,4 4,4 0 0 0 4,4 h 36 a 4,4 0 0 0 4,-4 4,4 0 0 0 -4,-4 z m 0,17 a 4,4 0 0 0 -4,4 4,4 0 0 0 4,4 h 36 a 4,4 0 0 0 4,-4 4,4 0 0 0 -4,-4 z"/>
  <path style="opacity:0.20;fill:#ffffff" d="M 95 16 C 78.38 16 65 29.38 65 46 L 65 47 C 65 30.38 78.38 17 95 17 L 97 17 C 113.62 17 127 30.38 127 47 L 127 46 C 127 29.38 113.62 16 97 16 L 95 16 z M 45.02 83 C 40.05 82.99 36.01 87.01 36 91.99 C 36.00 92.24 36.02 92.49 36.02 92.75 C 36.16 87.89 40.13 83.99 45.02 84 C 49.99 84.01 54.01 88.05 54 93.02 C 53.97 108.05 61.95 121.85 74.96 129.38 C 87.96 136.91 103.96 136.93 116.98 129.42 C 130.00 121.91 138 108.12 138 93.09 C 138 88.12 142.03 84.09 147 84.09 C 151.89 84.09 155.84 87.99 155.97 92.84 C 155.98 92.59 156 92.34 156 92.09 C 156 87.12 151.97 83.09 147 83.09 C 142.03 83.09 138 87.12 138 92.09 C 138 107.12 130.00 120.91 116.98 128.42 C 103.96 135.93 87.96 135.91 74.96 128.38 C 61.95 120.85 53.97 107.05 54 92.02 C 54.01 87.05 49.99 83.01 45.02 83 z "/>
</svg>
