<svg xmlns="http://www.w3.org/2000/svg" id="svg28" width="192" height="192" version="1"><defs><filter style="color-interpolation-filters:sRGB" id="filter6495" width="1.1" height="1.1" x=".05" y=".05"><feGaussianBlur stdDeviation="3.2"/></filter><filter style="color-interpolation-filters:sRGB" id="filter3210" width="1.11" height="1.08" x=".06" y=".04"><feGaussianBlur stdDeviation="1.89"/></filter></defs><rect width="160" height="160" x="-180" y="-176" rx="12" ry="12" transform="matrix(0,-1,-1,0,0,0)" style="filter:url(#filter6495);opacity:.2;fill:#000"/><rect width="160" height="160" x="-176" y="-176" rx="12" ry="12" transform="matrix(0,-1,-1,0,0,0)" style="fill:#d73132"/><path style="opacity:.2;fill:#fff" d="m 28,16 c -6.65,0 -12,5.35 -12,12 v 1 c 0,-6.65 5.35,-12 12,-12 h 136 c 6.65,0 12,5.35 12,12 v -1 c 0,-6.65 -5.35,-12 -12,-12 z"/><path style="filter:url(#filter3210);opacity:.2;fill:#000" d="m 92.59,47.95 c -3.67,0.02 -7.61,0.05 -11.96,0.05 -21.75,0 -20.75,0.02 -18.82,2.61 L 63,52.23 v 45.38 45.17 l -1.17,1.64 c -1.83,2.56 -1.82,2.58 10.22,2.58 H 82 v -17.84 -18.16 h 4.87 4.49 l 9.10,15.73 c 5.00,8.59 9.93,16.88 10.94,18.43 4.24,6.47 8.68,9.61 14.83,10.51 4.77,0.69 8.29,0.35 12.50,-1.22 3.29,-1.23 4.24,-2.80 2.25,-3.71 -1.30,0.59 -3.45,-2.77 -4.95,-5.00 -1.63,-2.44 -23.00,-37.50 -22.87,-37.58 0.05,0.03 1.08,0.43 2.29,0.90 10.14,-3.88 16.15,-12.79 17.48,-25.89 0.75,-7.39 0.86,-14.21 -4.58,-19.39 -1.62,-2.26 -4.76,-5.36 -6.89,-6.82 -9.33,-6.21 -17.86,-7.13 -28.87,-7.20 z M 82,62.00 l 9.22,0.13 c 7.39,0.11 9.59,0.24 11.11,0.66 7.50,2.09 10.64,6.77 10.67,15.92 0.02,6.40 -1.24,10.06 -4.60,13.35 -2.13,2.09 -4.40,3.32 -7.60,4.14 -1.43,0.36 -4.13,0.53 -10.37,0.64 L 82,97.00 v -17.50 z"/><path style="fill:#fdfcfc" d="M 92.59 45.95 C 88.92 45.93 84.97 46 80.63 46 C 58.88 46 59.88 45.98 61.81 48.61 L 63 50.23 L 63 95.60 L 63 140.78 L 61.83 142.42 C 60.00 144.98 60.01 145 72.05 145 L 82 145 L 82 127.16 L 82 109 L 86.87 109 L 91.36 109 L 100.45 124.73 C 105.45 133.32 110.38 141.61 111.39 143.15 C 115.63 149.62 120.07 152.76 126.21 153.66 C 130.98 154.35 134.50 154.01 138.71 152.43 C 142.00 151.20 142.96 149.63 140.97 148.72 C 139.67 148.13 137.52 145.96 136.02 143.72 C 134.39 141.28 113.02 106.22 113.15 106.14 C 113.20 106.11 114.23 105.71 115.44 105.24 C 125.58 101.36 131.59 92.45 132.92 79.36 C 133.67 71.97 132.06 65.14 128.34 59.96 C 126.73 57.71 123.58 54.60 121.46 53.15 C 112.12 46.94 103.60 46.02 92.59 45.95 z M 82 60 L 91.22 60.13 C 98.61 60.24 100.81 60.37 102.33 60.79 C 109.83 62.89 112.97 67.57 113 76.72 C 113.02 83.12 111.76 86.77 108.40 90.06 C 106.27 92.16 104.01 93.39 100.80 94.20 C 99.36 94.57 96.67 94.74 90.43 94.85 L 82 95 L 82 77.50 L 82 60 z"/></svg>