<?xml version='1.0' encoding='utf-8'?>
<svg xmlns="http://www.w3.org/2000/svg" width="192" height="192" version="1" id="svg14">
  <defs>
    <filter style="color-interpolation-filters:sRGB" id="filter850" x="-0.048000001" width="1.096" y="-0.048000001" height="1.096">
      <feGaussianBlur stdDeviation="3.2"/>
    </filter>
    <filter style="color-interpolation-filters:sRGB" id="filter6343" x="-0.12599954" y="-0.094500255" width="1.2519991" height="1.1890005">
      <feGaussianBlur stdDeviation="4.0949851"/>
    </filter>
  </defs>
  <circle style="filter:url(#filter850);opacity:0.2;fill:#000000" cx="96" cy="100" r="80"/>
  <circle r="80" cy="96" cx="96" style="fill:#e4e4e4"/>
  <path style="filter:url(#filter6343);opacity:0.2;fill:#000000" d="m 70,48.000666 a 13,13 0 0 0 -13,13 13,13 0 0 0 13,13 13,13 0 0 0 13,-13 13,13 0 0 0 -13,-13 z m 13,13 a 13,13 0 0 0 13,13 13,13 0 0 0 13,-13 13,13 0 0 0 -13,-13 13,13 0 0 0 -13,13 z m 26,0 a 13,13 0 0 0 13,13 13,13 0 0 0 13,-13 13,13 0 0 0 -13,-13 13,13 0 0 0 -13,13 z m 12,18 a 13,13 0 0 0 -13,13 v 22.000004 c 0,6.61122 -4.99398,11.77494 -11.601562,11.99414 -6.60758,0.2192 -11.932943,-4.60254 -12.371094,-11.19922 A 13,13 0 0 0 70.193359,102.68622 13,13 0 0 0 58.083984,116.51825 c 1.349184,20.31292 18.829292,36.1359 39.175782,35.46094 C 117.60626,151.30422 134,134.35835 134,114.00067 V 92.000666 a 13,13 0 0 0 -13,-13 z"/>
  <path style="fill:#38adfa" d="m 688.80525,256.99648 c -0.33229,-0.33229 -1.1948,-0.36781 -1.91667,-0.0789 -0.79773,0.31922 -0.56078,0.55618 0.60417,0.60416 1.05416,0.0434 1.64479,-0.19293 1.3125,-0.52522 z"/>
  <path style="opacity:0.2;fill:#ffffff" d="M 96 16 A 80 80 0 0 0 16 96 A 80 80 0 0 0 16.019531 96.472656 A 80 80 0 0 1 96 17 A 80 80 0 0 1 175.97461 96.513672 A 80 80 0 0 0 176 96 A 80 80 0 0 0 96 16 z "/>
  <path style="fill:#fda916" d="M 109,59 A 13,13 0 0 1 96,72 13,13 0 0 1 83,59 13,13 0 0 1 96,46 13,13 0 0 1 109,59 Z"/>
  <path style="fill:#fda916" d="M 83,59 A 13,13 0 0 1 70,72 13,13 0 0 1 57,59 13,13 0 0 1 70,46 13,13 0 0 1 83,59 Z"/>
  <path style="fill:#fda916" d="M 135,59 A 13,13 0 0 1 122,72 13,13 0 0 1 109,59 13,13 0 0 1 122,46 13,13 0 0 1 135,59 Z"/>
  <path style="fill:#fda916;color:#000000" d="M 121 77 A 13 13 0 0 0 108 90 L 108 112 C 108 118.61122 103.00602 123.77494 96.398438 123.99414 C 89.790858 124.21334 84.465495 119.3916 84.027344 112.79492 A 13 13 0 0 0 70.193359 100.68555 A 13 13 0 0 0 58.083984 114.51758 C 59.433168 134.8305 76.913276 150.65348 97.259766 149.97852 C 117.60626 149.30355 134 132.35768 134 112 L 134 90 A 13 13 0 0 0 121 77 z "/>
</svg>
