<?xml version='1.0' encoding='utf-8'?>
<svg xmlns="http://www.w3.org/2000/svg" width="192" height="192" version="1" id="svg28">
  <defs>
    <filter style="color-interpolation-filters:sRGB" id="filter4928" x="0.04" y="0.06" width="1.08" height="1.12">
      <feGaussianBlur stdDeviation="2.84"/>
    </filter>
    <filter style="color-interpolation-filters:sRGB" id="filter4988" x="0.07" y="0.07" width="1.15" height="1.15">
      <feGaussianBlur stdDeviation="2.69"/>
    </filter>
    <filter style="color-interpolation-filters:sRGB" id="filter955" x="0.07" y="0.08" width="1.15" height="1.15">
      <feGaussianBlur stdDeviation="1.69"/>
    </filter>
  </defs>
  <path style="filter:url(#filter4928);opacity:0.20;fill:#000000" d="M 111.50,24 A 39.50,39.50 0 0 0 73.42,53.18 20,20 0 0 0 60,48 20,20 0 0 0 40,68 20,20 0 0 0 40.50,72.21 32.50,32.50 0 0 0 11,104.50 32.50,32.50 0 0 0 43.50,137 h 105 A 32.50,32.50 0 0 0 181,104.50 32.50,32.50 0 0 0 149.96,72.04 39.50,39.50 0 0 0 151,63.50 39.50,39.50 0 0 0 111.50,24 Z"/>
  <path style="fill:#ff9c12" d="M 111.50,20 A 39.50,39.50 0 0 0 73.42,49.18 20,20 0 0 0 60,44 20,20 0 0 0 40,64 20,20 0 0 0 40.50,68.21 32.50,32.50 0 0 0 11,100.50 32.50,32.50 0 0 0 43.50,133 h 105 A 32.50,32.50 0 0 0 181,100.50 32.50,32.50 0 0 0 149.96,68.04 39.50,39.50 0 0 0 151,59.50 39.50,39.50 0 0 0 111.50,20 Z"/>
  <circle style="filter:url(#filter4988);opacity:0.20;fill:#000000" cx="143" cy="132" r="43"/>
  <path style="filter:url(#filter955);opacity:0.20;fill:#000000" d="m 96.00,56.00 c -14.91,0 -27.00,12.09 -27.00,27.00 C 69.00,97.91 81.09,110 96.00,110 110.91,110 123,97.91 123,83.00 123,68.09 110.91,56.00 96.00,56.00 Z m -2.70,5.16 c 0.31,0.03 0.71,0.02 1.03,0 0.04,0.15 0.23,0.68 0.59,1.47 -2.29,4.99 -2.42,10.85 0.29,13.97 0.38,0.57 0.73,1.11 0.73,1.18 0,0.07 0.41,0.14 0.88,0.14 -1.10,0 -2.14,0.67 -4.26,-2.35 0.94,0.75 -2.17,-1.37 -2.64,-1.47 0.75,0.15 0.95,0.08 -1.91,0.88 0.90,0.90 -1.18,1.38 -1.18,2.21 0,3.12 3.70,5.59 10.58,7.05 9.35,1.98 11.65,3.76 11.91,8.68 0.32,6.16 -2.96,10.81 -10.15,14.41 0.86,0.43 -1.40,0.59 -1.76,0.73 0.16,0.01 0.28,0.01 0.44,0 0.06,0.19 0.15,0.63 0.15,-1.47 0,-3.27 -1.29,-6.64 -3.23,-8.53 0.52,0.51 -1.99,-1.58 -3.24,-2.35 -1.25,0.77 -2.51,-1.67 -2.79,-2.06 0.47,0.64 0.50,-1.03 0.14,-2.21 0.65,-2.15 1.43,-3.35 2.94,-4.71 0.79,0.71 1.59,-1.30 1.76,-1.32 0.18,0.01 -1.01,0.37 -2.79,0.74 -1.78,0.37 -4.39,-1.13 -5.74,-1.62 -2.46,0.89 -5.78,-2.76 -7.05,-4.11 0.05,0.06 0.10,0.10 0.15,0.15 1.82,-7.24 6.91,-13.17 13.67,-16.02 1.41,0.60 2.88,-1.01 4.41,-1.33 0.77,0.16 1.56,0.21 2.35,0.29 z m 22.06,11.03 c 0.55,0.34 2.64,4.86 3.23,7.06 0.77,2.84 0.71,7.76 0,10.58 0.27,1.07 0.61,2.08 0.73,2.21 0.12,0.13 0.54,0.59 -1.03,-1.47 0.49,0.87 -2.07,-2.74 -3.38,-4.12 -3.78,-3.99 -4.38,-6.07 -2.79,-9.26 0.80,-1.61 4.28,-5.27 4.71,-5.00 z"/>
  <path style="fill:#3f3f3f" d="m 96.00,54.00 c -14.91,0 -27.00,12.09 -27.00,27.00 C 69.00,95.91 81.09,108 96.00,108 110.91,108 123,95.91 123,81.00 123,66.09 110.91,54.00 96.00,54.00 Z m -2.70,5.16 c 0.31,0.03 0.71,0.02 1.03,0 0.04,0.15 0.23,0.68 0.59,1.47 -2.29,4.99 -2.42,10.85 0.29,13.97 0.38,0.57 0.73,1.11 0.73,1.18 0,0.07 0.41,0.14 0.88,0.14 -1.10,0 -2.14,0.67 -4.26,-2.35 0.94,0.75 -2.17,-1.37 -2.64,-1.47 0.75,0.15 0.95,0.08 -1.91,0.88 0.90,0.90 -1.18,1.38 -1.18,2.21 0,3.12 3.70,5.59 10.58,7.05 9.35,1.98 11.65,3.76 11.91,8.68 0.32,6.16 -2.96,10.81 -10.15,14.41 0.86,0.43 -1.40,0.59 -1.76,0.73 0.16,0.01 0.28,0.01 0.44,0 0.06,0.19 0.15,0.63 0.15,-1.47 0,-3.27 -1.29,-6.64 -3.23,-8.53 0.52,0.51 -1.99,-1.58 -3.24,-2.35 -1.25,0.77 -2.51,-1.67 -2.79,-2.06 0.47,0.64 0.50,-1.03 0.14,-2.21 0.65,-2.15 1.43,-3.35 2.94,-4.71 0.79,0.71 1.59,-1.30 1.76,-1.32 0.18,0.01 -1.01,0.37 -2.79,0.74 -1.78,0.37 -4.39,-1.13 -5.74,-1.62 -2.46,0.89 -5.78,-2.76 -7.05,-4.11 0.05,0.06 0.10,0.10 0.15,0.15 1.82,-7.24 6.91,-13.17 13.67,-16.02 1.41,0.60 2.88,-1.01 4.41,-1.33 0.77,0.16 1.56,0.21 2.35,0.29 z m 22.06,11.03 c 0.55,0.34 2.64,4.86 3.23,7.06 0.77,2.84 0.71,7.76 0,10.58 0.27,1.07 0.61,2.08 0.73,2.21 0.12,0.13 0.54,0.59 -1.03,-1.47 0.49,0.87 -2.07,-2.74 -3.38,-4.12 -3.78,-3.99 -4.38,-6.07 -2.79,-9.26 0.80,-1.61 4.28,-5.27 4.71,-5.00 z"/>
  <circle style="fill:#1866be" cx="143" cy="130" r="43"/>
  <rect style="fill:#ffffff" width="12" height="56" x="137" y="102"/>
  <rect style="fill:#ffffff" width="12" height="56" x="124" y="-171" transform="rotate(90)"/>
  <path style="opacity:0.20;fill:#ffffff" d="M 111.50 20 A 39.50 39.50 0 0 0 73.42 49.18 A 20 20 0 0 0 60 44 A 20 20 0 0 0 40 64 A 20 20 0 0 0 40.06 64.53 A 20 20 0 0 1 60 45 A 20 20 0 0 1 73.42 50.18 A 39.50 39.50 0 0 1 111.50 21 A 39.50 39.50 0 0 1 150.98 59.83 A 39.50 39.50 0 0 0 151 59.50 A 39.50 39.50 0 0 0 111.50 20 z M 150.14 68.06 A 39.50 39.50 0 0 1 149.96 69.04 A 32.50 32.50 0 0 1 180.95 101.03 A 32.50 32.50 0 0 0 181 100.50 A 32.50 32.50 0 0 0 150.14 68.06 z M 40.38 68.24 A 32.50 32.50 0 0 0 11 100.50 A 32.50 32.50 0 0 0 11.05 101.02 A 32.50 32.50 0 0 1 40.50 69.21 A 20 20 0 0 1 40.38 68.24 z "/>
</svg>
