<?xml version='1.0' encoding='utf-8'?>
<svg xmlns="http://www.w3.org/2000/svg" width="192" height="192" version="1.1" id="svg30">
  <defs>
    <filter style="color-interpolation-filters:sRGB" id="filter870" x="-0.042" width="1.084" y="-0.056" height="1.112">
      <feGaussianBlur stdDeviation="2.24"/>
    </filter>
    <filter style="color-interpolation-filters:sRGB" id="filter904" x="-0.027000001" width="1.054" y="-0.021600001" height="1.0432">
      <feGaussianBlur stdDeviation="1.44"/>
    </filter>
    <filter style="color-interpolation-filters:sRGB" id="filter920" x="-0.048" width="1.096" y="-0.048" height="1.096">
      <feGaussianBlur stdDeviation="1.76"/>
    </filter>
    <filter style="color-interpolation-filters:sRGB" id="filter939" x="-0.047999999" width="1.096" y="-0.047999999" height="1.096">
      <feGaussianBlur stdDeviation="0.64"/>
    </filter>
  </defs>
  <rect style="filter:url(#filter870);opacity:0.2;fill:#000000" width="128" height="96" x="-172" y="-144" rx="8" ry="8" transform="matrix(0,-1,-1,0,0,0)"/>
  <rect transform="matrix(0,-1,-1,0,0,0)" ry="8" rx="8" y="-144" x="-168" height="96" width="128" style="fill:#8e8e8e"/>
  <rect style="filter:url(#filter904);opacity:0.1;fill:#000000" width="128" height="160" x="-156" y="-176" rx="8" ry="8" transform="matrix(0,-1,-1,0,0,0)"/>
  <rect transform="matrix(0,-1,-1,0,0,0)" ry="8" rx="8" y="-176" x="-152" height="160" width="128" style="fill:#4f4f4f"/>
  <rect transform="matrix(0,-1,-1,0,0,0)" ry="0" rx="0" y="-164" x="-140" height="136" width="104" style="fill:#6de3f8"/>
  <path d="M 71.000003,99.999998 88.499999,120 106,140 H 71.000003 36.000001 l 17.500002,-20 z" style="fill:#00645b"/>
  <path d="m 108,75.999953 27.99999,31.999997 28.00001,32 H 108 51.999999 l 28.000003,-32 z" style="fill:#3b9649"/>
  <path style="opacity:0.1;fill:#ffffff" d="M 24 24 C 19.568 24 16 27.568 16 32 L 16 33 C 16 28.568 19.568 25 24 25 L 168 25 C 172.432 25 176 28.568 176 33 L 176 32 C 176 27.568 172.432 24 168 24 L 24 24 z "/>
  <circle r="44" cy="140" cx="144" style="filter:url(#filter920);opacity:0.2"/>
  <circle r="44" cy="136" cx="144" style="fill:#ff932b"/>
  <circle r="16" cy="62" cx="52" style="filter:url(#filter939);opacity:0.1"/>
  <circle r="16" cy="60" cx="52" style="fill:#ffec44"/>
  <path d="m 124,112 c 0,2 2,4 4,4 19.8824,-2e-5 36,16.1176 36,36 0,2 1.81388,4 4,4 2,0 4,-2 4,-4 0,-24.3 -19.7,-44 -44,-44 -2,0 -4,2 -4,4 z m 0,16 c 0,2 2,4 4,4 11.0456,-1e-5 20,8.9544 20,20 0,2 2,4 4,4 2,0 4,-2 4,-4 0,-15.464 -12.536,-28 -28,-28 -2,0 -4,2 -4,4 z m 8,12 c -4.4184,0 -8,3.5818 -8,8 0,4.418 3.582,8 8,8 4.4184,0 8,-3.5818 8,-8 0,-4.4182 -3.5818,-8 -8,-8 z" style="fill:#ffffff"/>
</svg>
