<?xml version='1.0' encoding='utf-8'?>
<svg xmlns="http://www.w3.org/2000/svg" width="192" height="192" version="1" id="svg28">
  <defs>
    <filter style="color-interpolation-filters:sRGB" id="filter4580" x="-0.087165358" y="-0.14192308" width="1.1743307" height="1.2838462">
      <feGaussianBlur stdDeviation="4.6125"/>
    </filter>
    <filter style="color-interpolation-filters:sRGB" id="filter4622" x="-0.079980469" y="-0.070603448" width="1.1599609" height="1.1412069">
      <feGaussianBlur stdDeviation="4.265625"/>
    </filter>
    <filter style="color-interpolation-filters:sRGB" id="filter4705" x="-0.108" y="-0.108" width="1.216" height="1.216">
      <feGaussianBlur stdDeviation="2.25"/>
    </filter>
  </defs>
  <path style="filter:url(#filter4622);opacity:0.2;fill:#000000" d="m 57,27 h 70 l 50,50 v 87 c 0,4.432 -3.568,8 -8,8 H 57 c -4.432,0 -8,-3.568 -8,-8 V 35 c 0,-4.432 3.568,-8 8,-8 z"/>
  <path style="fill:#7255ed" d="m 57,23 h 70 l 50,50 v 87 c 0,4.432 -3.568,8 -8,8 H 57 c -4.432,0 -8,-3.568 -8,-8 V 31 c 0,-4.432 3.568,-8 8,-8 z"/>
  <path style="filter:url(#filter4580);opacity:0.2;fill:#000000" d="M 62,71 C 44.122612,71.026957 29.51762,85.284685 29.060547,103.15625 20.497543,107.05239 15.000519,115.59229 15,125 c 0,13.25483 10.745166,24 24,24 h 79 c 13.25483,0 24,-10.74517 24,-24 -2e-4,-9.68953 -5.82692,-18.42846 -14.77148,-22.1543 C 124.41331,91.761675 114.43596,84.000977 103,84 98.611712,84.020026 94.306003,85.1948 90.515625,87.40625 84.608306,77.251621 73.747889,71.003162 62,71 Z"/>
  <path style="opacity:0.1;fill:#ffffff" d="M 57 23 C 52.568 23 49 26.568 49 31 L 49 32 C 49 27.568 52.568 24 57 24 L 127 24 L 177 74 L 177 73 L 127 23 L 57 23 z "/>
  <path style="fill:#ffffff" d="M 62,69 C 44.122612,69.026957 29.51762,83.284685 29.060547,101.15625 20.497543,105.05239 15.000519,113.59229 15,123 c 0,13.25483 10.745166,24 24,24 h 79 c 13.25483,0 24,-10.74517 24,-24 -2e-4,-9.68953 -5.82692,-18.42846 -14.77148,-22.1543 C 124.41331,89.761675 114.43596,82.000977 103,82 98.611712,82.020026 94.306003,83.1948 90.515625,85.40625 84.608306,75.251621 73.747889,69.003162 62,69 Z"/>
  <path style="fill:#7255ed" d="m 72,103 a 6,6 0 0 0 -6,6 6,6 0 0 0 4.171875,5.70703 L 67.001953,125 h 9.996094 L 73.828125,114.70703 A 6,6 0 0 0 78,109 6,6 0 0 0 72,103 Z"/>
  <path style="filter:url(#filter4705);opacity:0.2;fill:#000000" d="m 127,24 v 42 c 0,4.432 3.568,8 8,8 h 42 z"/>
  <path style="fill:#5a3cd9" d="m 127,23 v 42 c 0,4.432 3.568,8 8,8 h 42 z"/>
</svg>
