<?xml version='1.0' encoding='utf-8'?>
<svg xmlns="http://www.w3.org/2000/svg" width="192" height="192" version="1" id="svg16">
  <defs>
    <filter style="color-interpolation-filters:sRGB" id="filter971" x="-0.048000001" y="-0.048000001" width="1.096" height="1.096">
      <feGaussianBlur stdDeviation="3.2"/>
    </filter>
    <filter style="color-interpolation-filters:sRGB" id="filter2099" x="-0.046889417" y="-0.04916509" width="1.0937788" height="1.0983302">
      <feGaussianBlur stdDeviation="2.1100058"/>
    </filter>
  </defs>
  <rect style="filter:url(#filter971);opacity:0.2;fill:#000000" width="160" height="160" x="16" y="20" rx="80" ry="80"/>
  <circle style="fill:#4788f4;stop-color:#000000" cx="96" cy="96" r="80"/>
  <path style="opacity:0.2;fill:#ffffff" d="M 95.998047,16 C 51.678957,16.001054 16,51.680655 16,96 c 0,0.173903 0.0083,0.344936 0.01172,0.517578 C 16.270953,52.423274 51.840776,17.00105 95.998047,17 H 96 c 44.15727,0.001 79.72709,35.423274 79.98633,79.517578 0.003,-0.172666 0.0117,-0.34381 0.0117,-0.517578 0,-44.319345 -35.67896,-79.998946 -79.99805,-80 z"/>
  <path style="filter:url(#filter2099);opacity:0.2;fill:#000000;stop-color:#000000" d="m 95.064453,46.087891 a 5.0005,5.0005 0 0 0 -1.738281,0.6875 l -49,31 a 5,5 0 0 0 -1.550781,6.898437 5,5 0 0 0 6.898437,1.550781 L 96,56.916016 142.32617,86.224609 a 5,5 0 0 0 6.89844,-1.550781 5,5 0 0 0 -1.55078,-6.898437 l -49.000002,-31 a 5.0005,5.0005 0 0 0 -3.609375,-0.6875 z M 96,71 a 9,9 0 0 0 -9,9 9,9 0 0 0 9,9 9,9 0 0 0 9,-9 9,9 0 0 0 -9,-9 z M 69.572266,86.009766 A 9,9 0 0 0 62.205078,90.5 9,9 0 0 0 65.5,102.79492 9,9 0 0 0 77.794922,99.5 9,9 0 0 0 74.5,87.205078 9,9 0 0 0 69.572266,86.009766 Z m 52.855464,0 A 9,9 0 0 0 117.5,87.205078 9,9 0 0 0 114.20508,99.5 9,9 0 0 0 126.5,102.79492 9,9 0 0 0 129.79492,90.5 9,9 0 0 0 122.42773,86.009766 Z M 70.427734,116.00977 A 9,9 0 0 0 65.5,117.20508 9,9 0 0 0 62.205078,129.5 9,9 0 0 0 74.5,132.79492 9,9 0 0 0 77.794922,120.5 9,9 0 0 0 70.427734,116.00977 Z m 51.144536,0 A 9,9 0 0 0 114.20508,120.5 9,9 0 0 0 117.5,132.79492 9,9 0 0 0 129.79492,129.5 9,9 0 0 0 126.5,117.20508 9,9 0 0 0 121.57227,116.00977 Z M 96,131 a 9,9 0 0 0 -9,9 9,9 0 0 0 9,9 9,9 0 0 0 9,-9 9,9 0 0 0 -9,-9 z"/>
  <path style="fill:#ffffff;stop-color:#000000" d="m 95.064453,44.087891 a 5.0005,5.0005 0 0 0 -1.738281,0.6875 l -49,31 a 5,5 0 0 0 -1.550781,6.898437 5,5 0 0 0 6.898437,1.550781 L 96,54.916016 142.32617,84.224609 a 5,5 0 0 0 6.89844,-1.550781 5,5 0 0 0 -1.55078,-6.898437 l -49.000002,-31 a 5.0005,5.0005 0 0 0 -3.609375,-0.6875 z M 96,69 a 9,9 0 0 0 -9,9 9,9 0 0 0 9,9 9,9 0 0 0 9,-9 9,9 0 0 0 -9,-9 z M 69.572266,84.009766 A 9,9 0 0 0 62.205078,88.5 9,9 0 0 0 65.5,100.79492 9,9 0 0 0 77.794922,97.5 9,9 0 0 0 74.5,85.205078 9,9 0 0 0 69.572266,84.009766 Z m 52.855464,0 A 9,9 0 0 0 117.5,85.205078 9,9 0 0 0 114.20508,97.5 9,9 0 0 0 126.5,100.79492 9,9 0 0 0 129.79492,88.5 9,9 0 0 0 122.42773,84.009766 Z M 70.427734,114.00977 A 9,9 0 0 0 65.5,115.20508 9,9 0 0 0 62.205078,127.5 9,9 0 0 0 74.5,130.79492 9,9 0 0 0 77.794922,118.5 9,9 0 0 0 70.427734,114.00977 Z m 51.144536,0 A 9,9 0 0 0 114.20508,118.5 9,9 0 0 0 117.5,130.79492 9,9 0 0 0 129.79492,127.5 9,9 0 0 0 126.5,115.20508 9,9 0 0 0 121.57227,114.00977 Z M 96,129 a 9,9 0 0 0 -9,9 9,9 0 0 0 9,9 9,9 0 0 0 9,-9 9,9 0 0 0 -9,-9 z"/>
</svg>
