<?xml version='1.0' encoding='utf-8'?>
<svg xmlns="http://www.w3.org/2000/svg" width="192" height="192" version="1.1" id="svg14">
  <defs>
    <filter style="color-interpolation-filters:sRGB" id="filter849" x="0.05" y="0.05" width="1.10" height="1.10">
      <feGaussianBlur stdDeviation="3.20"/>
    </filter>
    <filter style="color-interpolation-filters:sRGB" id="filter2040" x="0.07" y="0.08" width="1.15" height="1.15">
      <feGaussianBlur stdDeviation="3.09"/>
    </filter>
  </defs>
  <rect style="filter:url(#filter849);opacity:0.20" width="160" height="160" x="16" y="20" rx="32" ry="32"/>
  <rect style="fill:#00afd9" width="160" height="160" x="16" y="16" rx="32" ry="32"/>
  <path style="opacity:0.20;fill:#ffffff" d="M 48,16 C 30.27,16 16,30.27 16,48 v 1 C 16,31.27 30.27,17 48,17 h 96 c 17.73,0 32,14.27 32,32 V 48 C 176,30.27 161.73,16 144,16 Z"/>
  <path style="filter:url(#filter2040);opacity:0.20;fill:#000000" d="m 52.40,146.64 c -4.74,-1.58 -7.14,-5.32 -6.19,-9.61 0.46,-2.07 2.70,-5.40 5.02,-7.45 3.95,-3.50 11.33,-7.91 18.33,-10.96 l 4.17,-1.81 3.17,-6.52 c 3.16,-6.49 6.88,-15.52 9.37,-22.74 l 1.31,-3.79 0.93,-2.27 C 83.30,73.30 81.30,63.47 82.25,57.78 c 0.53,-3.14 2.22,-5.84 3.98,-7.14 3.19,-2.34 7.53,-2.16 10.80,0.45 3.66,2.92 5.62,9.25 4.85,16.73 0.44,4.35 -1.95,10.88 -3.30,15.45 -1.56,5.29 -1.65,4.69 1.48,9.47 3.07,4.69 6.95,9.30 9.37,11.84 l 1.66,1.63 3.22,0.49 c 5.20,0.79 14.97,0.95 18.75,0.31 6.47,1.09 10.26,3.15 11.93,6.47 2.16,4.31 0.71,8.88 -3.46,10.85 -2.68,1.26 -5.40,1.51 -9.17,1.08 -7.30,0.84 -13.25,-3.30 -20.45,-8.71 l -3.04,-2.28 -3.41,0.71 c -5.29,1.10 -11.49,2.90 -16.76,4.52 l -4.81,1.48 -1.32,2.33 c -3.98,7.06 -9.36,14.23 -13.92,18.56 -3.12,2.97 -5.24,4.41 -8.24,5.63 -2.38,0.97 -6.07,1.24 -8.03,0.58 z m 4.57,-6.87 c 2.84,-1.71 8.10,-7.20 11.96,-13.02 2.37,-3.57 2.44,-3.53 -2.26,-1.12 -11.12,5.70 -16.60,10.30 -15.43,13.68 0.69,2.00 2.88,2.18 5.73,0.46 z m 77.88,-22.53 c 1.38,0.71 2.29,-1.97 2.02,-3.42 0.28,-1.50 -1.90,-2.92 -4.09,-3.42 -3.20,0.73 -17.85,0.43 -17.85,0.37 0,0.46 3.81,2.64 6.62,4.08 5.93,3.05 10.45,3.84 13.30,2.39 z m -42.81,-6.61 c 2.00,0.58 5.38,-1.64 7.49,-2.12 2.12,0.48 3.90,0.90 3.95,0.94 0.06,0.04 -1.16,-1.65 -2.70,-3.57 -1.54,-1.92 -3.56,-4.41 -4.48,-5.78 l -1.68,-2.48 0.34,0.90 c -1.64,4.35 -3.12,8.00 -4.50,11.13 0.90,2.04 -1.64,3.75 -1.64,3.81 0,0.17 0.14,0.14 3.90,0.95 z m 0.01,-38.02 c 2.01,-8.40 2.50,-14.42 1.37,-16.74 -1.48,-3.05 -5.09,-2.16 -6.04,1.58 0.59,2.33 0.44,7.84 0.32,11.51 0.81,3.89 2.62,8.58 2.93,8.38 0.13,0.08 0.83,-2.21 1.43,-4.73 z"/>
  <path style="fill:#fbfcfd" d="m 52.40,144.64 c -4.74,-1.58 -7.14,-5.32 -6.19,-9.61 0.46,-2.07 2.70,-5.40 5.02,-7.45 3.95,-3.50 11.33,-7.91 18.33,-10.96 l 4.17,-1.81 3.17,-6.52 c 3.16,-6.49 6.88,-15.52 9.37,-22.74 l 1.31,-3.79 0.93,-2.27 C 83.30,71.30 81.30,61.47 82.25,55.78 c 0.53,-3.14 2.22,-5.84 3.98,-7.14 3.19,-2.34 7.53,-2.16 10.80,0.45 3.66,2.92 5.62,9.25 4.85,16.73 0.44,4.35 -1.95,10.88 -3.30,15.45 -1.56,5.29 -1.65,4.69 1.48,9.47 3.07,4.69 6.95,9.30 9.37,11.84 l 1.66,1.63 3.22,0.49 c 5.20,0.79 14.97,0.95 18.75,0.31 6.47,1.09 10.26,3.15 11.93,6.47 2.16,4.31 0.71,8.88 -3.46,10.85 -2.68,1.26 -5.40,1.51 -9.17,1.08 -7.30,0.84 -13.25,-3.30 -20.45,-8.71 l -3.04,-2.28 -3.41,0.71 c -5.29,1.10 -11.49,2.90 -16.76,4.52 l -4.81,1.48 -1.32,2.33 c -3.98,7.06 -9.36,14.23 -13.92,18.56 -3.12,2.97 -5.24,4.41 -8.24,5.63 -2.38,0.97 -6.07,1.24 -8.03,0.58 z m 4.57,-6.87 c 2.84,-1.71 8.10,-7.20 11.96,-13.02 2.37,-3.57 2.44,-3.53 -2.26,-1.12 -11.12,5.70 -16.60,10.30 -15.43,13.68 0.69,2.00 2.88,2.18 5.73,0.46 z m 77.88,-22.53 c 1.38,0.71 2.29,-1.97 2.02,-3.42 0.28,-1.50 -1.90,-2.92 -4.09,-3.42 -3.20,0.73 -17.85,0.43 -17.85,0.37 0,0.46 3.81,2.64 6.62,4.08 5.93,3.05 10.45,3.84 13.30,2.39 z m -42.81,-6.61 c 2.00,0.58 5.38,-1.64 7.49,-2.12 2.12,0.48 3.90,0.90 3.95,0.94 0.06,0.04 -1.16,-1.65 -2.70,-3.57 -1.54,-1.92 -3.56,-4.41 -4.48,-5.78 L 94.62,93.75 94.28,94.65 c -1.64,4.35 -3.12,8.00 -4.50,11.13 0.90,2.04 -1.64,3.75 -1.64,3.81 0,0.17 0.14,0.14 3.90,0.95 z m 0.01,-38.02 c 2.01,-8.40 2.50,-14.42 1.37,-16.74 -1.48,-3.05 -5.09,-2.16 -6.04,1.58 0.59,2.33 0.44,7.84 0.32,11.51 0.81,3.89 2.62,8.58 2.93,8.38 0.13,0.08 0.83,-2.21 1.43,-4.73 z"/>
</svg>
