<?xml version='1.0' encoding='utf-8'?>
<svg xmlns="http://www.w3.org/2000/svg" width="192" height="192" version="1" id="svg18">
  <defs>
    <filter style="color-interpolation-filters:sRGB" id="filter873" x="0.07" width="1.14" y="0.04" height="1.07">
      <feGaussianBlur stdDeviation="1.36"/>
    </filter>
    <filter style="color-interpolation-filters:sRGB" id="filter1984" x="0.05" y="0.05" width="1.10" height="1.10">
      <feGaussianBlur stdDeviation="3.20"/>
    </filter>
  </defs>
  <rect style="filter:url(#filter1984);opacity:0.20;fill:#000000" width="160" height="160" x="16" y="20" rx="30" ry="30"/>
  <rect style="fill:#e53ebd" width="160" height="160" x="16" y="16" rx="30" ry="30"/>
  <path d="M 88,52 V 93.41 C 78.42,96.79 72.01,105.84 72,116 c 0,13.25 10.75,24 24,24 13.25,0 24,-10.75 24,-24 0.01,-10.16 -6.42,-19.21 -16,-22.60 V 76 h 16 V 60 h -16 v -8 z m 8,56 c 4.42,0 8,3.58 8,8 0,4.42 -3.58,8 -8,8 -4.42,0 -8,-3.58 -8,-8 0,-4.42 3.58,-8 8,-8 z" style="filter:url(#filter873);opacity:0.20"/>
  <path d="M 88,48 V 89.41 C 78.42,92.79 72.01,101.84 72,112 c 0,13.25 10.75,24 24,24 13.25,0 24,-10.75 24,-24 0.01,-10.16 -6.42,-19.21 -16,-22.60 V 72 h 16 V 56 h -16 v -8 z m 8,56 c 4.42,0 8,3.58 8,8 0,4.42 -3.58,8 -8,8 -4.42,0 -8,-3.58 -8,-8 0,-4.42 3.58,-8 8,-8 z" style="fill:#ffffff"/>
  <path style="opacity:0.20;fill:#ffffff" d="M 46 16 C 29.38 16 16 29.38 16 46 L 16 47 C 16 30.38 29.38 17 46 17 L 146 17 C 162.62 17 176 30.38 176 47 L 176 46 C 176 29.38 162.62 16 146 16 L 46 16 z "/>
</svg>
