<?xml version='1.0' encoding='utf-8'?>
<svg xmlns="http://www.w3.org/2000/svg" width="192" height="192" version="1" id="svg26">
  <defs>
    <filter style="color-interpolation-filters:sRGB" id="filter867" x="0.05" width="1.09" y="0.05" height="1.10">
      <feGaussianBlur stdDeviation="3.04"/>
    </filter>
    <filter style="color-interpolation-filters:sRGB" id="filter883" x="0.05" width="1.10" y="0.05" height="1.10">
      <feGaussianBlur stdDeviation="0.32"/>
    </filter>
    <filter style="color-interpolation-filters:sRGB" id="filter903" x="0.05" width="1.10" y="0.05" height="1.09">
      <feGaussianBlur stdDeviation="1.16"/>
    </filter>
    <filter style="color-interpolation-filters:sRGB" id="filter922" x="0.02" width="1.05" y="0.98" height="2.97">
      <feGaussianBlur stdDeviation="1.64"/>
    </filter>
  </defs>
  <path style="filter:url(#filter867);opacity:0.20;fill:#000000" d="m 28,28 c -6.65,0 -12,5.35 -12,12 v 100 20 c 0,6.65 5.35,12 12,12 h 136 c 6.65,0 12,-5.35 12,-12 V 140 40 c 0,-6.65 -5.35,-12 -12,-12 z"/>
  <path d="m 16,136 v 20 c 0,6.65 5.35,12 12,12 h 136 c 6.65,0 12,-5.35 12,-12 v -20 z" style="fill:#4f4f4f"/>
  <rect y="136" x="16" height="4" width="160" style="filter:url(#filter922);opacity:0.20"/>
  <rect ry="3.71" rx="4" y="148" x="112" height="8" width="52" style="opacity:0.20"/>
  <rect ry="4" rx="4" y="148" x="28" height="8" width="84" style="fill:#ef5959"/>
  <circle style="filter:url(#filter883);opacity:0.10" r="8" cy="154" cx="112"/>
  <circle r="8" cy="152" cx="112" style="fill:#6c6c6c"/>
  <path d="M 28,24 C 21.35,24 16,29.35 16,36 V 136 H 176 V 36 c 0,-6.65 -5.35,-12 -12,-12 z" style="fill:#ef5959"/>
  <path style="opacity:0.20;fill:#ffffff" d="M 28 24 C 21.35 24 16 29.35 16 36 L 16 37 C 16 30.35 21.35 25 28 25 L 164 25 C 170.65 25 176 30.35 176 37 L 176 36 C 176 29.35 170.65 24 164 24 L 28 24 z "/>
  <path style="filter:url(#filter903);opacity:0.10" d="m 74.36,56 c -2.17,0.04 -2.55,2.59 -2.37,4.48 0.02,17.74 0.03,35.49 0.02,53.24 0.19,2.12 2.62,2.97 4.00,1.65 14.74,-9.08 36.19,-18.11 50.91,-27.23 1.61,-1.26 0.99,-4.18 0.80,-4.79 -14.74,-9.05 -36.13,-18.15 -50.89,-27.17 0.28,0.12 0.57,0.19 0.87,0.19 z"/>
  <path d="m 74.36,52 c -2.17,0.04 -2.55,2.59 -2.37,4.48 0.02,17.74 0.03,35.49 0.02,53.24 0.19,2.12 2.62,2.97 4.00,1.65 14.74,-9.08 36.19,-18.11 50.91,-27.23 1.61,-1.26 0.99,-4.18 0.80,-4.79 -14.74,-9.05 -36.13,-18.15 -50.89,-27.17 0.28,0.12 0.57,0.19 0.87,0.19 z" style="fill:#3f3f3f"/>
  <path style="opacity:0.10;fill:#ffffff" d="M 112 144 A 8 8 0 0 0 104 152 A 8 8 0 0 0 104.02 152.58 A 8 8 0 0 1 112 145 A 8 8 0 0 1 119.98 152.42 A 8 8 0 0 0 120 152 A 8 8 0 0 0 112 144 z "/>
</svg>
