<?xml version='1.0' encoding='utf-8'?>
<svg xmlns="http://www.w3.org/2000/svg" width="192" height="192" version="1.1" id="svg12">
  <defs>
    <filter style="color-interpolation-filters:sRGB" id="filter5218" x="-0.084375" y="-0.0675" width="1.16875" height="1.135">
      <feGaussianBlur stdDeviation="3.09375"/>
    </filter>
    <filter style="color-interpolation-filters:sRGB" id="filter5222" x="-0.084375" y="-0.067500001" width="1.16875" height="1.135">
      <feGaussianBlur stdDeviation="3.09375"/>
    </filter>
    <filter style="color-interpolation-filters:sRGB" id="filter5226" x="-0.084375" y="-0.0675" width="1.16875" height="1.135">
      <feGaussianBlur stdDeviation="3.09375"/>
    </filter>
    <filter style="color-interpolation-filters:sRGB" id="filter5268" x="-0.108" y="-0.108" width="1.216" height="1.216">
      <feGaussianBlur stdDeviation="1.485"/>
    </filter>
  </defs>
  <path style="filter:url(#filter5218);opacity:0.2;fill:#000000" d="M 21.5,69 C 18.453,69 16,71.453 16,74.5 v 99 c 0,3.047 2.453,5.5 5.5,5.5 h 77 c 3.047,0 5.5,-2.453 5.5,-5.5 V 102 L 76.5,96.5 71,69 Z"/>
  <path style="fill:#e4e4e4" d="M 21.5,66 C 18.453,66 16,68.453 16,71.5 v 99 c 0,3.047 2.453,5.5 5.5,5.5 h 77 c 3.047,0 5.5,-2.453 5.5,-5.5 V 99 L 76.5,93.5 71,66 Z"/>
  <path style="opacity:0.2;fill:#ffffff" d="M 21.5 66 C 18.453 66 16 68.453 16 71.5 L 16 72.5 C 16 69.453 18.453 67 21.5 67 L 71 67 L 76.5 94.5 L 104 100 L 104 99 L 76.5 93.5 L 71 66 L 21.5 66 z "/>
  <path style="fill:#fafafa" d="M 104,99 71,66 v 27.5 c 0,3.047 2.453,5.5 5.5,5.5 z"/>
  <path style="fill:#008eef" d="m 30,109 v 6 h 60 v -6 z m 0,10 v 6 h 45 v -6 z m 0,10 v 6 h 36 v -6 z m 0,10 v 6 h 53 v -6 z m 0,10 v 6 h 28 v -6 z m 0,10 v 6 h 47 v -6 z"/>
  <path style="filter:url(#filter5222);opacity:0.2;fill:#000000" d="m 57.5,44.000001 c -3.047,0 -5.5,2.453 -5.5,5.5 V 148.5 c 0,3.047 2.453,5.5 5.5,5.5 h 77 c 3.047,0 5.5,-2.453 5.5,-5.5 V 77.000001 l -27.5,-5.5 -5.5,-27.5 z"/>
  <path style="fill:#e4e4e4" d="m 57.5,41.000001 c -3.047,0 -5.5,2.453 -5.5,5.5 V 145.5 c 0,3.047 2.453,5.5 5.5,5.5 h 77 c 3.047,0 5.5,-2.453 5.5,-5.5 V 74.000001 l -27.5,-5.5 -5.5,-27.5 z"/>
  <path style="opacity:0.2;fill:#ffffff" d="M 57.5 41 C 54.453 41 52 43.453 52 46.5 L 52 47.5 C 52 44.453 54.453 42 57.5 42 L 107 42 L 112.5 69.5 L 140 75 L 140 74 L 112.5 68.5 L 107 41 L 57.5 41 z "/>
  <path style="fill:#fafafa" d="m 140,74.000001 -33,-33 v 27.5 c 0,3.047 2.453,5.5 5.5,5.5 z"/>
  <path style="fill:#00c385" d="m 66.000001,82.000001 v 10 H 126 v -10 z m 0,14 V 104 h 17 v -7.999999 z m 21,0 V 104 H 105 v -7.999999 z m 21.999999,0 V 104 h 17 V 96.000001 Z M 66.000001,108 v 8 h 17 v -8 z m 21,0 v 8 H 105 v -8 z M 109,108 v 8 h 17 v -8 z m -42.999999,12 v 8 h 17 v -8 z m 21,0 v 8 H 105 v -8 z M 109,120 v 8 h 17 v -8 z m -42.999999,12 v 10 h 17 v -10 z m 21,0 v 10 H 105 V 132 Z M 109,132 v 10 h 17 v -10 z"/>
  <path style="filter:url(#filter5226);opacity:0.2;fill:#000000" d="M 93.5,19 C 90.453,19 88,21.453 88,24.5 v 99 c 0,3.047 2.453,5.5 5.5,5.5 h 77 c 3.047,0 5.5,-2.453 5.5,-5.5 V 52 L 148.5,46.5 143,19 Z"/>
  <path style="fill:#e4e4e4" d="M 93.5,16 C 90.453,16 88,18.453 88,21.5 v 99 c 0,3.047 2.453,5.5 5.5,5.5 h 77 c 3.047,0 5.5,-2.453 5.5,-5.5 V 49 L 148.5,43.5 143,16 Z"/>
  <path style="filter:url(#filter5268);opacity:0.2;fill:#000000" d="M 176,51 143,18 v 27.5 c 0,3.047 2.453,5.5 5.5,5.5 z"/>
  <path style="fill:#fafafa" d="M 176,49 143,16 v 27.5 c 0,3.047 2.453,5.5 5.5,5.5 z"/>
  <path style="fill:#ff7919" d="m 102,59 v 6 h 60 v -6 z m 3,10 a 3,3 0 0 0 -3,3 3,3 0 0 0 3,3 3,3 0 0 0 3,-3 3,3 0 0 0 -3,-3 z m 7,0 v 6 h 35 15 v -6 h -15 z m -7,10 a 3,3 0 0 0 -3,3 3,3 0 0 0 3,3 3,3 0 0 0 3,-3 3,3 0 0 0 -3,-3 z m 7,0 v 6 h 26 24 v -6 h -24 z m -7,10 a 3,3 0 0 0 -3,3 3,3 0 0 0 3,3 3,3 0 0 0 3,-3 3,3 0 0 0 -3,-3 z m 7,0 v 6 h 43 7 v -6 h -7 z m -7,10 a 3,3 0 0 0 -3,3 3,3 0 0 0 3,3 3,3 0 0 0 3,-3 3,3 0 0 0 -3,-3 z m 7,0 v 6 h 18 32 v -6 h -32 z m -7,10 a 3,3 0 0 0 -3,3 3,3 0 0 0 3,3 3,3 0 0 0 3,-3 3,3 0 0 0 -3,-3 z m 7,0 v 6 h 37 13 v -6 h -13 z"/>
  <path style="opacity:0.2;fill:#ffffff" d="M 93.5,16 C 90.453,16 88,18.453 88,21.5 v 1 C 88,19.453 90.453,17 93.5,17 H 143 v -1 z"/>
</svg>
