<?xml version='1.0' encoding='utf-8'?>
<svg xmlns="http://www.w3.org/2000/svg" width="192" height="192" version="1" id="svg14">
  <defs>
    <filter style="color-interpolation-filters:sRGB" id="filter850" x="0.05" width="1.10" y="0.05" height="1.10">
      <feGaussianBlur stdDeviation="3.20"/>
    </filter>
    <filter style="color-interpolation-filters:sRGB" id="filter8042" x="0.09" y="0.06" width="1.19" height="1.13">
      <feGaussianBlur stdDeviation="2.72"/>
    </filter>
  </defs>
  <circle style="filter:url(#filter850);opacity:0.20;fill:#000000" cx="96" cy="100" r="80"/>
  <circle cy="96" cx="96" style="fill:#e4e4e4" r="80"/>
  <path style="opacity:0.20;fill:#ffffff" d="M 96 16 A 80 80 0 0 0 16 96 A 80 80 0 0 0 16.02 96.47 A 80 80 0 0 1 96 17 A 80 80 0 0 1 175.97 96.51 A 80 80 0 0 0 176 96 A 80 80 0 0 0 96 16 z "/>
  <path style="filter:url(#filter8042);opacity:0.20;fill:#000000" d="m 100.65,47.00 c -11.30,0.08 -21.77,6.44 -30.82,16.37 -8.04,8.88 -13.04,19.17 -14.77,32.12 0.24,3.02 0.14,2.73 1.24,0.95 2.84,-9.52 7.35,-18.60 12.23,-24.61 2.64,-3.26 7.85,-8.10 10.92,-10.18 7.15,-4.81 13.77,-6.96 21.43,-6.96 7.24,0 12.57,1.65 19.14,5.95 4.02,2.62 4.75,2.51 3.24,0.49 -4.24,-7.91 -14.19,-10.94 -22.62,-11.26 z M 96.50,67 A 12.50,12.50 0 0 0 84,79.50 12.50,12.50 0 0 0 96.50,92 12.50,12.50 0 0 0 109,79.50 12.50,12.50 0 0 0 96.50,67 Z M 105,97.92 A 29.25,29.25 0 0 1 91.40,101.35 29.25,29.25 0 0 1 88,101.11 V 139.50 a 8.50,8.50 0 0 0 8.50,8.50 8.50,8.50 0 0 0 8.50,-8.50 z"/>
  <path style="fill:#006acd" d="M 100.65 45.00 C 89.36 45.08 78.88 51.44 69.83 61.37 C 61.79 70.25 56.79 80.54 55.07 93.50 C 54.83 96.52 55.21 96.23 56.31 92.55 C 59.15 83.03 63.66 73.95 68.54 67.94 C 71.19 64.68 76.39 59.83 79.46 57.76 C 86.61 52.95 93.23 50.80 100.89 50.80 C 108.13 50.80 113.46 52.45 120.04 56.75 C 124.05 59.37 124.78 59.26 123.27 56.26 C 119.03 48.34 109.08 45.32 100.65 45.00 z M 96.50 65 A 12.50 12.50 0 0 0 84 77.50 A 12.50 12.50 0 0 0 96.50 90 A 12.50 12.50 0 0 0 109 77.50 A 12.50 12.50 0 0 0 96.50 65 z M 105 95.92 A 29.25 29.25 0 0 1 91.40 99.35 A 29.25 29.25 0 0 1 88 99.11 L 88 137.50 A 8.50 8.50 0 0 0 96.50 146 A 8.50 8.50 0 0 0 105 137.50 L 105 95.92 z "/>
</svg>
