<?xml version='1.0' encoding='utf-8'?>
<svg xmlns="http://www.w3.org/2000/svg" width="192" height="192" version="1" id="svg12">
  <defs>
    <filter style="color-interpolation-filters:sRGB" id="filter871" x="-0.040363637" width="1.0807273" y="-0.059200001" height="1.1184">
      <feGaussianBlur stdDeviation="2.96"/>
    </filter>
  </defs>
  <path d="M 96,40 C 73.22,40 53.82,53.832 45.468,73.408 24.2628,76.536 8,94.464 8,116.364 8,140.464 27.6996,160 52,160 h 93.5 C 166.764,160 184,142.904 184,121.82 184,102.22 169.14,86.16 149.968,83.976 144.968,58.96 122.696,40 96,40 Z" style="filter:url(#filter871);opacity:0.2;fill:#000000"/>
  <path style="fill:#e4e4e4" d="M 96,36 C 73.22,36 53.82,49.832 45.468,69.408 24.2628,72.536 8,90.464 8,112.364 8,136.464 27.6996,156 52,156 h 93.5 C 166.764,156 184,138.904 184,117.82 184,98.22 169.14,82.16 149.968,79.976 144.968,54.96 122.696,36 96,36 Z"/>
  <path style="opacity:0.2;fill:#ffffff" d="M 96 36 C 73.22 36 53.82075 49.828203 45.46875 69.408203 C 24.26355 72.532203 8 90.467187 8 112.36719 C 8 112.47485 8.0124236 112.57885 8.015625 112.68555 C 8.3503185 91.097155 24.48486 73.499599 45.46875 70.408203 C 53.82075 50.828203 73.22 37 96 37 C 122.696 37 144.96875 55.956563 149.96875 80.976562 C 168.92161 83.135598 183.64991 98.857718 183.98438 118.15234 C 183.98744 118.04108 184 117.93239 184 117.82031 C 184 98.220313 169.14075 82.160563 149.96875 79.976562 C 144.96875 54.956563 122.696 36 96 36 z "/>
  <path style="opacity:0.5;fill:none;stroke:#000000;stroke-width:16;stroke-linecap:round;stroke-linejoin:round" d="m 104.1,71.948604 c 0,0 16,8 16,31.999996 0,24 -16,32 -16,32"/>
  <path style="opacity:0.5;fill:none;stroke:#000000;stroke-width:16;stroke-linecap:round;stroke-linejoin:round" d="m 72.101996,79.948604 c 0,0 15.998004,8 16,23.999996 0.002,16 -16,24 -16,24"/>
</svg>
