<?xml version='1.0' encoding='utf-8'?>
<svg xmlns="http://www.w3.org/2000/svg" width="192" height="192" version="1.1" id="svg12">
  <defs>
    <filter style="color-interpolation-filters:sRGB" id="filter845" x="0.05" y="0.05" width="1.10" height="1.10">
      <feGaussianBlur stdDeviation="3.20"/>
    </filter>
    <filter style="color-interpolation-filters:sRGB" id="filter5098" x="0.03" y="0.03" width="1.05" height="1.06">
      <feGaussianBlur stdDeviation="1.54"/>
    </filter>
    <filter style="color-interpolation-filters:sRGB" id="filter5102" x="0.04" y="0.04" width="1.07" height="1.08">
      <feGaussianBlur stdDeviation="1.54"/>
    </filter>
    <filter style="color-interpolation-filters:sRGB" id="filter2222" x="0.05" y="0.04" width="1.10" height="1.09">
      <feGaussianBlur stdDeviation="13.98"/>
    </filter>
  </defs>
  <circle style="filter:url(#filter845);opacity:0.20" cx="96" cy="100" r="80"/>
  <path style="fill:#e403d1" d="m 163.00,111.88 c 0,20.98 4.93,24.19 -8.28,38.46 C 140.10,166.12 119.20,176 96,176 51.82,176 16,140.18 16,96 16,78.09 21.89,61.55 31.83,48.22 46.41,28.66 66.57,28.01 92.84,28.01 c 44.18,0 70.15,39.69 70.15,83.87 z"/>
  <path style="filter:url(#filter5098);opacity:0.20;fill:#000000" d="m 95.68,29.48 c -8.14,0.02 -12.27,1.68 -19.85,4.06 C 59.37,38.69 41.26,37.24 31.02,51.65 39.03,110.37 89.17,154.16 148.43,154.19 c 1.52,0.08 3.04,0.19 4.56,0.33 10.15,-10.30 -4.32,-12.90 0.89,-26.71 1.53,-6.16 13.61,-27.01 13.63,-33.46 0,-44.18 -25.87,-64.21 -70.05,-64.21 z"/>
  <path style="fill:#664bdd" d="M 95.68,27.48 C 87.54,27.50 79.89,17.28 72.31,19.66 55.84,24.82 41.26,35.24 31.02,49.65 39.03,108.37 89.17,152.16 148.43,152.19 c 1.52,0.08 3.04,0.19 4.56,0.33 10.15,-10.30 17.23,-23.07 20.66,-36.88 1.53,-6.16 -7.94,-16.84 -7.92,-23.29 0,-44.18 -25.87,-64.21 -70.05,-64.21 z"/>
  <path style="filter:url(#filter5102);opacity:0.20;fill:#000000" d="m 95.68,27.48 c -9.61,0.07 -18.80,-7.61 -27.77,-4.17 9.77,51.83 52.61,90.98 105.11,96.05 1.95,-6.95 -7.15,-11.13 -7.12,-18.35 0,-44.18 -26.03,-73.53 -70.22,-73.53 z"/>
  <path style="fill:#11e1dc" d="M 96,16 A 80,80 0 0 0 67.91,21.31 118.56,118.56 0 0 0 173.02,117.36 80,80 0 0 0 176,96 80,80 0 0 0 96,16 Z"/>
  <path style="opacity:0.20;fill:#ffffff" d="M 96,16.00 A 80.00,79.99 0 0 0 16,95.99 80.00,79.99 0 0 0 16.02,96.63 80.00,79.99 0 0 1 96,17 80.00,79.99 0 0 1 175.98,96.29 80.00,79.99 0 0 0 176,95.99 80.00,79.99 0 0 0 96,16.00 Z"/>
  <g transform="matrix(0.13,0,0,0.13,-140.08,68.43)" style="filter:url(#filter2222);opacity:0.20;fill:#000000">
    <path style="fill:#000000" d="m 2138.00,606.95 c 46.27,-11.35 28.78,-59.40 18.31,-90.47 -4.04,-30.90 18.35,-72.42 -18.15,-91.28 -32.51,-17.00 -59.90,16.47 -87.98,27.89 -16.69,10.41 -45.78,24.92 -23.56,-4.46 22.92,-44.91 46.14,-87.36 69.78,-131.72 13.11,-35.07 -32.30,-68.25 -62.01,-46.22 -22.11,14.75 -42.60,38.61 -61.91,50.15 46.22,-65.15 91.89,-127.28 133.07,-195.80 20.79,-32.31 -2.17,-81.71 -42.01,-81.28 -54.08,0.29 -91.79,44.87 -131.22,75.40 -79.36,68.21 -152.35,138.46 -229.38,209.26 5.71,-17.77 31.86,-47.22 46.55,-68.52 76.92,-100.03 171.95,-185.78 240.79,-291.99 20.09,-29.76 25.16,-77.18 -8.62,-99.44 -43.73,-27.02 -98.07,-6.68 -141.48,10.75 -95.89,44.22 -185.62,97.27 -272.22,157.53 -40.74,21.46 -16.11,86.98 28.24,77.12 32.63,-14.47 60.16,-39.35 91.57,-56.71 68.30,-41.99 137.20,-80.46 211.15,-111.57 15.96,2.04 -22.45,33.43 -28.30,45.79 -90.62,107.57 -190.94,208.25 -263.72,329.59 -28.01,47.43 -56.10,95.30 -77.98,145.84 -15.32,31.79 10.13,72.69 45.89,70.67 41.33,-2.91 65.33,-42.64 95.20,-66.47 90.26,-80.76 176.95,-165.60 268.28,-245.08 -52.01,74.63 -107.81,147.40 -154.10,225.92 -19.23,29.87 -7.21,74.73 28.20,84.96 44.15,7.71 69.73,-36.06 101.84,-58.02 -10.16,28.75 -49.15,62.03 -19.57,92.06 16.97,17.53 38.79,15.68 60.33,10.04 36.36,-5.63 102.57,-47.70 121.41,-38.15 6.54,29.24 22.33,75.94 61.59,64.21 z"/>
  </g>
  <g transform="matrix(0.13,0,0,0.13,-140.08,66.43)" style="fill:#ffffff">
    <path style="fill:#ffffff" d="m 2138.00,606.95 c 46.27,-11.35 28.78,-59.40 18.31,-90.47 -4.04,-30.90 18.35,-72.42 -18.15,-91.28 -32.51,-17.00 -59.90,16.47 -87.98,27.89 -16.69,10.41 -45.78,24.92 -23.56,-4.46 22.92,-44.91 46.14,-87.36 69.78,-131.72 13.11,-35.07 -32.30,-68.25 -62.01,-46.22 -22.11,14.75 -42.60,38.61 -61.91,50.15 46.22,-65.15 91.89,-127.28 133.07,-195.80 20.79,-32.31 -2.17,-81.71 -42.01,-81.28 -54.08,0.29 -91.79,44.87 -131.22,75.40 -79.36,68.21 -152.35,138.46 -229.38,209.26 5.71,-17.77 31.86,-47.22 46.55,-68.52 76.92,-100.03 171.95,-185.78 240.79,-291.99 20.09,-29.76 25.16,-77.18 -8.62,-99.44 -43.73,-27.02 -98.07,-6.68 -141.48,10.75 -95.89,44.22 -185.62,97.27 -272.22,157.53 -40.74,21.46 -16.11,86.98 28.24,77.12 32.63,-14.47 60.16,-39.35 91.57,-56.71 68.30,-41.99 137.20,-80.46 211.15,-111.57 15.96,2.04 -22.45,33.43 -28.30,45.79 -90.62,107.57 -190.94,208.25 -263.72,329.59 -28.01,47.43 -56.10,95.30 -77.98,145.84 -15.32,31.79 10.13,72.69 45.89,70.67 41.33,-2.91 65.33,-42.64 95.20,-66.47 90.26,-80.76 176.95,-165.60 268.28,-245.08 -52.01,74.63 -107.81,147.40 -154.10,225.92 -19.23,29.87 -7.21,74.73 28.20,84.96 44.15,7.71 69.73,-36.06 101.84,-58.02 -10.16,28.75 -49.15,62.03 -19.57,92.06 16.97,17.53 38.79,15.68 60.33,10.04 36.36,-5.63 102.57,-47.70 121.41,-38.15 6.54,29.24 22.33,75.94 61.59,64.21 z"/>
  </g>
</svg>
