<?xml version='1.0' encoding='utf-8'?>
<svg xmlns="http://www.w3.org/2000/svg" width="192" height="192" version="1" id="svg8">
  <defs>
    <filter style="color-interpolation-filters:sRGB" id="filter4685" x="0.04" y="0.05" width="1.09" height="1.11">
      <feGaussianBlur stdDeviation="2.90"/>
    </filter>
  </defs>
  <path style="filter:url(#filter4685);opacity:0.20;fill:#000000" d="m 51.23,35.00 c 0.86,0.01 -1.69,0.24 -2.43,0.68 -3.21,1.78 -23.50,14.18 -29.56,17.95 l 0.46,0.26 c -1.12,0.73 -1.89,1.82 -2.32,3.05 l 0.11,0.06 C 16.13,57.53 16.01,58.22 16,58.92 v 55.17 c 0.12,0.98 0.49,1.89 1.05,2.66 0.14,0.20 0.30,0.38 0.47,0.56 0.03,0.03 0.06,0.06 0.09,0.09 0.49,0.54 1.06,1.01 1.74,1.33 2.37,1.20 65.02,40.53 73.48,45.43 0.99,0.56 2.11,0.85 3.24,0.84 1.14,0.01 2.26,0.32 3.24,0.91 8.62,-4.80 71.08,-44.13 73.45,-45.43 0.45,0.21 0.87,0.47 1.24,0.78 0.37,0.31 0.70,0.66 0.98,-1.06 0.28,0.39 0.51,0.82 0.68,-1.28 0.17,0.45 0.29,0.93 0.34,-1.43 V 58.95 c 0.01,0.51 0.06,-1.01 0.18,-1.50 0.00,0.02 0.01,0.03 0.01,0.05 0.10,0.40 0.24,0.78 0.42,-1.15 l 0.03,0.02 c 0.49,0.97 -1.22,-1.81 -2.17,-2.38 -1.07,0.68 -26.22,-16.10 -29.92,-18.14 0.73,0.44 -1.57,0.68 -2.43,0.68 0.80,0.01 -1.59,0.20 -2.27,0.62 0.29,0 -27.42,17.23 -31.67,19.47 -3.34,1.82 -7.09,2.93 -10.89,2.85 -3.35,0.06 -6.68,0.83 -9.72,-2.23 C 81.93,54.11 53.54,35.58 53.54,35.58 52.83,35.21 52.04,35.01 51.23,35.00 Z"/>
  <path style="fill:#fb9200" d="m 96.06,161.00 c -1.14,0.01 -2.25,0.28 -3.24,0.84 -8.46,-4.90 -71.12,-44.23 -73.48,-45.43 -1.80,0.84 -3.03,-2.56 -3.24,-4.54 V 55.01 c 0.05,-2.06 0.97,-4.00 2.69,-5.13 l 0.45,0.26 c 6.06,-3.76 26.35,-16.16 29.56,-17.95 0.74,0.44 1.57,0.67 2.43,0.68 0.80,0.01 1.59,0.21 2.30,0.58 0,0 28.40,18.53 32.74,20.18 3.05,1.40 6.37,2.29 9.72,2.23 3.80,0.08 7.56,-1.02 10.89,-2.85 4.25,-2.24 31.38,-19.47 31.67,-19.47 0.68,0.41 1.47,0.63 2.27,0.62 0.86,0.00 1.70,0.24 2.43,0.68 3.70,2.04 28.85,17.46 29.92,18.14 v 0 c 1.77,1.07 2.84,2.99 2.82,5.06 v 55.17 c 0.20,1.98 -1.43,3.71 -3.24,4.54 -2.37,1.30 -64.83,40.63 -73.45,45.43 0.98,0.58 -2.10,0.90 -3.24,0.91 z"/>
  <path style="fill:#ec3b95" d="m 95.74,160.93 h 0.32 c 1.14,0.01 2.25,0.28 3.24,0.84 8.46,-4.90 71.09,-44.23 73.45,-45.43 1.81,0.83 3.04,-2.56 3.24,-4.54 V 54.95 c 0.01,0.93 0.20,-1.86 0.62,-2.69 L 95.74,96.03 Z"/>
  <path opacity="0.41" style="fill:#f76a00" d="m 16.00,110.08 c 0.24,2.01 1.54,3.75 3.40,4.54 2.37,1.30 65.02,40.63 73.48,45.43 0.87,0.50 2.11,0.79 3.11,0.84 V 96.00 L 16.36,52.87 c 0.23,0.66 0.35,1.35 0.36,2.04 z"/>
  <path style="opacity:0.20;fill:#ffffff" d="M 51.23 31 C 50.38 31.01 49.54 31.24 48.80 31.68 C 45.60 33.47 25.30 45.86 19.24 49.63 L 18.79 49.89 C 17.67 50.62 16.90 51.71 16.47 52.93 L 16.36 52.87 C 16.13 53.53 16.01 54.22 16 54.92 L 16 55.92 C 16.01 55.22 16.13 54.53 16.36 53.87 L 16.47 53.93 C 16.90 52.71 17.67 51.62 18.79 50.89 L 19.24 50.63 C 25.30 46.86 45.60 34.47 48.80 32.68 C 49.54 32.24 50.38 32.01 51.23 32 C 52.04 32.01 52.83 32.21 53.54 32.58 C 53.54 32.58 81.93 51.11 86.28 52.77 C 89.32 54.17 92.65 55.06 96 55 C 99.80 55.08 103.55 53.98 106.89 52.15 C 111.14 49.91 138.27 32.68 138.56 32.68 C 139.24 32.27 140.03 32.05 140.83 32.06 C 141.69 32.07 142.53 32.30 143.26 32.75 C 146.96 34.79 172.11 50.21 173.18 50.89 C 174.14 51.46 174.87 52.30 175.35 53.27 L 175.38 53.26 C 175.57 53.62 175.70 54.01 175.80 54.41 C 175.81 54.42 175.81 54.44 175.82 54.45 C 175.94 54.94 176.00 55.44 176 55.95 L 176 54.95 C 176.01 54.44 175.94 53.94 175.82 53.45 C 175.81 53.44 175.81 53.42 175.80 53.41 C 175.70 53.01 175.57 52.62 175.38 52.26 L 175.35 52.27 C 174.87 51.30 174.14 50.46 173.18 49.89 C 172.11 49.21 146.96 33.79 143.26 31.75 C 142.53 31.30 141.69 31.07 140.83 31.06 C 140.03 31.05 139.24 31.27 138.56 31.68 C 138.27 31.68 111.14 48.91 106.89 51.15 C 103.55 52.98 99.80 54.08 96 54 C 92.65 54.06 89.32 53.17 86.28 51.77 C 81.93 50.11 53.54 31.58 53.54 31.58 C 52.83 31.21 52.04 31.01 51.23 31 z "/>
</svg>
