<?xml version='1.0' encoding='utf-8'?>
<svg xmlns="http://www.w3.org/2000/svg" width="192" height="192" version="1" id="svg14">
  <defs>
    <filter style="color-interpolation-filters:sRGB" id="filter850" x="0.05" width="1.10" y="0.05" height="1.10">
      <feGaussianBlur stdDeviation="3.20"/>
    </filter>
    <filter style="color-interpolation-filters:sRGB" id="filter2943" x="0.07" y="0.07" width="1.15" height="1.15">
      <feGaussianBlur stdDeviation="3.12"/>
    </filter>
  </defs>
  <circle style="filter:url(#filter850);opacity:0.20;fill:#000000" cx="96" cy="100" r="80"/>
  <circle r="80" cy="96" cx="96" style="fill:#29a6fc"/>
  <path style="filter:url(#filter2943);opacity:0.20;fill:#000000;color:#000000" d="m 75,50 v 10 c 33.75,0 61,27.25 61,61 h 10 C 146,81.85 114.15,50 75,50 Z m 0,22 v 10 c 21.60,0 39,17.40 39,39 h 10 C 124,94.00 102.00,72 75,72 Z m 0,20 a 29,29 0 0 0 -29,29 29,29 0 0 0 29,29 29,29 0 0 0 29,-29 29,29 0 0 0 -29,-29 z m 8,13 a 8,8 0 0 1 8,8 8,8 0 0 1 -8,8 8,8 0 0 1 -8,-8 8,8 0 0 1 8,-8 z"/>
  <path style="opacity:0.20;fill:#ffffff" d="M 96 16 A 80 80 0 0 0 16 96 A 80 80 0 0 0 16.02 96.47 A 80 80 0 0 1 96 17 A 80 80 0 0 1 175.97 96.51 A 80 80 0 0 0 176 96 A 80 80 0 0 0 96 16 z "/>
  <path style="fill:#ffffff;color:#000000" d="M 75 48 L 75 58 C 108.75 58 136 85.25 136 119 L 146 119 C 146 79.85 114.15 48 75 48 z "/>
  <path style="fill:#ffffff;color:#000000" d="M 75 70 L 75 80 C 96.60 80 114 97.40 114 119 L 124 119 C 124 92.00 102.00 70 75 70 z "/>
  <path style="fill:#ffffff" d="M 75 90 A 29 29 0 0 0 46 119 A 29 29 0 0 0 75 148 A 29 29 0 0 0 104 119 A 29 29 0 0 0 75 90 z M 83 103 A 8 8 0 0 1 91 111 A 8 8 0 0 1 83 119 A 8 8 0 0 1 75 111 A 8 8 0 0 1 83 103 z "/>
</svg>
