<?xml version='1.0' encoding='utf-8'?>
<svg xmlns="http://www.w3.org/2000/svg" width="192" height="192" version="1" id="svg16">
  <defs>
    <filter style="color-interpolation-filters:sRGB" id="filter867" x="0.05" width="1.10" y="0.05" height="1.10">
      <feGaussianBlur stdDeviation="3.20"/>
    </filter>
    <filter style="color-interpolation-filters:sRGB" id="filter1826" x="0.04" y="0.06" width="1.09" height="1.11">
      <feGaussianBlur stdDeviation="2.29"/>
    </filter>
  </defs>
  <rect ry="80" rx="80" height="160" width="160" y="-176" x="-180" transform="matrix(0,-1,-1,0,0,0)" style="filter:url(#filter867);opacity:0.20;fill:#000000"/>
  <rect style="fill:#8b4ccb" transform="matrix(0,-1,-1,0,0,0)" x="-176" y="-176" width="160" height="160" rx="80" ry="80"/>
  <path style="filter:url(#filter1826);opacity:0.20;fill:#000000" d="m 96,48 c -27.61,0 -50,22.39 -50,50 0,27.61 22.39,50 50,50 h 60.52 c 2.52,-3.15 4.79,-6.49 6.82,-10 H 96 C 73.91,138 56,120.09 56,98 56,75.91 73.91,58 96,58 Z m 0,15 c -19.33,0 -35,15.67 -35,35 0,19.33 15.67,35 35,35 h 70.00 c 1.56,-3.22 2.90,-6.56 4.02,-10 H 96 C 82.19,123 71,111.81 71,98 71,84.19 82.19,73 96,73 c 3.44,0.00 6.85,0.72 10,2.10 V 64.49 C 102.76,63.51 99.39,63.01 96,63 Z m 0,15 c -11.05,0 -20,8.95 -20,20 0,11.05 8.95,20 20,20 h 75.50 c 0.83,-3.25 1.44,-6.60 1.86,-10 H 96 c -5.52,0 -10,-4.48 -10,-10 0,-5.52 4.48,-10 10,-10 3.57,0.01 6.86,1.91 8.64,5 h 10.69 C 113.06,84.18 105.11,78.01 96,78 Z"/>
  <path style="opacity:0.20;fill:#ffffff" d="M 96 16 C 51.68 16 16 51.68 16 96 C 16 96.34 16.00 96.67 16 97 C 16 52.68 51.68 17 96 17 C 140.32 17 176 52.68 176 97 C 176.00 96.67 176 96.34 176 96 C 176 51.68 140.32 16 96 16 z "/>
  <path style="fill:#ffffff" d="M 96 46 C 68.39 46 46 68.39 46 96 C 46 123.61 68.39 146 96 146 L 158.52 146 C 161.03 142.85 163.31 139.51 165.34 136 L 96 136 C 73.91 136 56 118.09 56 96 C 56 73.91 73.91 56 96 56 L 96 46 z "/>
  <path style="fill:#cba3fa" d="M 96 61 C 76.67 61 61 76.67 61 96 C 61 115.33 76.67 131 96 131 L 168.00 131 C 169.56 127.78 170.90 124.44 172.03 121 L 96 121 C 82.19 121 71 109.81 71 96 C 71 82.19 82.19 71 96 71 C 99.44 71.00 102.85 71.72 106 73.10 L 106 62.49 C 102.76 61.51 99.39 61.01 96 61 z "/>
  <path style="fill:#b176f8" d="M 96 76 C 84.95 76 76 84.95 76 96 C 76 107.05 84.95 116 96 116 L 173.50 116 C 174.33 112.75 174.94 109.40 175.36 106 L 96 106 C 90.48 106 86 101.52 86 96 C 86 90.48 90.48 86 96 86 C 99.57 86.01 102.86 87.91 104.64 91 L 115.34 91 C 113.06 82.18 105.11 76.01 96 76 z "/>
</svg>
