<?xml version='1.0' encoding='utf-8'?>
<svg xmlns="http://www.w3.org/2000/svg" width="192" height="192" version="1" id="svg14">
  <defs>
    <filter style="color-interpolation-filters:sRGB" id="filter850" x="0.05" width="1.10" y="0.05" height="1.10">
      <feGaussianBlur stdDeviation="3.20"/>
    </filter>
    <filter style="color-interpolation-filters:sRGB" id="filter881" x="0.07" width="1.14" y="0.04" height="1.07">
      <feGaussianBlur stdDeviation="1.80"/>
    </filter>
  </defs>
  <rect style="filter:url(#filter850);opacity:0.20;fill:#000000" width="160" height="160" x="-180" y="-176" rx="80" ry="80" transform="matrix(0,-1,-1,0,0,0)"/>
  <rect transform="matrix(0,-1,-1,0,0,0)" ry="80" rx="80" y="-176" x="-176" height="160" width="160" style="fill:#fc7e39"/>
  <path style="opacity:0.20;fill:#ffffff" d="M 96 16 C 51.68 16 16.01 51.68 16.01 96 C 16.01 96.34 16.01 96.67 16.01 97 C 16.01 52.68 51.68 17 96 17 C 140.32 17 175.99 52.68 175.99 97 C 175.99 96.67 175.99 96.34 175.99 96 C 175.99 51.68 140.32 16 96 16 z "/>
  <path d="M 91.10,40.00 C 83.37,39.98 79.85,41.26 75.12,45.82 72.77,48.08 68,54.27 68,56.03 c 0,0.47 8.89,12.15 18.33,25.98 9.44,13.82 17.25,25.58 17.37,26.13 0.16,0.78 0.93,0.04 -4.91,0.14 -6.89,0.31 -12.12,1.73 -18.43,4.88 -12.92,6.44 -19.14,19.16 -15.16,31.03 2.28,6.81 9.22,12.60 17.95,14.98 19.26,5.26 40.93,-9.01 40.87,-26.91 0.01,-2.51 0.57,-5.47 -1.36,-7.23 0.74,-1.64 -8.58,-14.85 -17.42,-29.37 C 96.37,80.87 88.74,68.23 88.26,67.30 c -1.27,-2.45 0.34,-8.01 3.90,-9.78 2.63,-1.30 3.41,-1.75 8.81,0.95 8.11,1.19 9.86,4.90 12.67,3.16 2.65,-1.64 5.20,-6.65 5.92,-11.61 L 120,43.97 l -5.32,0.06 c -4.09,0.05 -5.92,0.72 -10.77,-1.43 C 98.60,40.26 97.41,40.02 91.10,40.00 Z m -3.83,84 c 1.59,0.01 15.68,9.21 16.46,10.76 0.99,1.96 0.65,3.76 -7.55,8.29 -8.30,5.46 -9.14,5.76 -10.84,3.98 C 84.15,145.75 84,144.61 84,136.40 c 0,-9.68 0.72,-12.41 3.27,-12.40 z" style="filter:url(#filter881);opacity:0.20"/>
  <path d="M 91.10,36 C 83.37,35.98 79.85,37.26 75.12,41.81 72.77,44.08 68,50.27 68,52.03 c 0,0.47 8.89,12.15 18.33,25.98 9.44,13.82 17.25,25.58 17.37,26.13 0.16,0.78 0.93,0.04 -4.91,0.14 -6.89,0.31 -12.12,1.73 -18.43,4.88 -12.92,6.44 -19.14,19.16 -15.16,31.03 2.28,6.81 9.22,12.60 17.95,14.98 19.26,5.26 40.93,-9.01 40.87,-26.91 0.01,-2.51 0.57,-5.47 -1.36,-7.23 0.74,-1.64 -8.58,-14.85 -17.42,-29.37 C 96.37,76.86 88.74,64.22 88.26,63.30 c -1.27,-2.45 0.34,-8.01 3.90,-9.78 2.63,-1.30 3.41,-1.75 8.81,0.95 8.11,1.19 9.86,4.90 12.67,3.16 2.65,-1.64 5.20,-6.65 5.92,-11.61 L 120,39.97 l -5.32,0.06 c -4.09,0.05 -5.92,0.72 -10.77,-1.43 C 98.60,36.26 97.41,36.02 91.10,36 Z m -3.83,84 c 1.59,0.01 15.68,9.21 16.46,10.76 0.99,1.96 0.65,3.76 -7.55,8.29 -8.30,5.46 -9.14,5.76 -10.84,3.98 C 84.15,141.75 84,140.61 84,132.40 84,122.72 84.72,119.99 87.27,120 Z" style="fill:#ffffff"/>
</svg>
