<?xml version='1.0' encoding='utf-8'?>
<svg xmlns="http://www.w3.org/2000/svg" width="192" height="192" version="1" id="svg14">
  <defs>
    <filter style="color-interpolation-filters:sRGB" id="filter850" x="-0.048000001" width="1.096" y="-0.048000001" height="1.096">
      <feGaussianBlur stdDeviation="3.2"/>
    </filter>
    <filter style="color-interpolation-filters:sRGB" id="filter2857" x="-0.10619825" y="-0.10986394" width="1.2123965" height="1.2197279">
      <feGaussianBlur stdDeviation="4.6235303"/>
    </filter>
  </defs>
  <circle style="filter:url(#filter850);opacity:0.2;fill:#000000" cx="96" cy="100" r="80"/>
  <circle r="80" cy="96" cx="96" style="fill:#f23e3f"/>
  <path style="fill:#38adfa" d="m 688.80525,256.99648 c -0.33229,-0.33229 -1.1948,-0.36781 -1.91667,-0.0789 -0.79773,0.31922 -0.56078,0.55618 0.60417,0.60416 1.05416,0.0434 1.64479,-0.19293 1.3125,-0.52522 z"/>
  <path style="opacity:0.2;fill:#ffffff" d="M 96 16 A 80 80 0 0 0 16 96 A 80 80 0 0 0 16.019531 96.472656 A 80 80 0 0 1 96 17 A 80 80 0 0 1 175.97461 96.513672 A 80 80 0 0 0 176 96 A 80 80 0 0 0 96 16 z "/>
  <path style="filter:url(#filter2857);opacity:0.2;fill:#000000" d="M 96,41.791046 83.587891,80.00003 H 43.755859 L 76.09375,104.31448 63.125,142.793 90,122.63284 V 98.00003 H 79 v -12 h 34 v 12 h -11 v 24.63281 l 26.875,20.16016 -12.96875,-38.47852 32.33789,-24.31445 h -39.83203 z"/>
  <path style="fill:#ffffff" d="M 96 39.791016 L 83.587891 78 L 43.755859 78 L 76.09375 102.31445 L 63.125 140.79297 L 90 120.63281 L 90 96 L 79 96 L 79 84 L 113 84 L 113 96 L 102 96 L 102 120.63281 L 128.875 140.79297 L 115.90625 102.31445 L 148.24414 78 L 108.41211 78 L 96 39.791016 z "/>
</svg>
