<svg xmlns="http://www.w3.org/2000/svg" id="svg30" width="192" height="192" version="1"><defs><filter style="color-interpolation-filters:sRGB" id="filter3528" width="1.09" height="1.1" x=".05" y=".05"><feGaussianBlur stdDeviation="3.2"/></filter><filter style="color-interpolation-filters:sRGB" id="filter3532" width="1.06" height="1.19" x=".03" y=".1"><feGaussianBlur stdDeviation="1.48"/></filter></defs><path style="filter:url(#filter3528);opacity:.2;fill:#000" d="m 90.01,177.51 c -1.31,0.92 -1.39,-2.95 0.35,-8.85 0.40,-2.24 0.72,-5.41 0.72,-7.04 0.00,-5.00 -2.10,-6.60 -10.60,-8.05 -13.70,-2.33 -25.42,-6.80 -36.48,-14.08 -5.77,-3.80 -15.70,-13.49 -19.13,-18.68 -6.96,-10.52 -10.16,-20.71 -10.16,-32.32 0,-15.21 5.75,-28.77 17.27,-40.74 29.74,-30.89 85.10,-34.55 120.41,-7.97 26.07,19.62 33.68,50.55 18.73,76.18 -9.31,15.97 -32.64,36.36 -62.96,54.74 -10.72,6.50 -15.32,8.29 -17.44,6.81 z"/><path style="fill:#e4e4e4" d="m 90.01,173.51 c -1.31,0.92 -1.39,-2.95 0.35,-8.85 0.40,-2.24 0.72,-5.41 0.72,-7.04 0.00,-5.00 -2.10,-6.60 -10.60,-8.05 -13.70,-2.33 -25.42,-6.80 -36.48,-14.08 -5.77,-3.80 -15.70,-13.49 -19.13,-18.68 -6.96,-10.52 -10.16,-20.71 -10.16,-32.32 0,-15.21 5.75,-28.77 17.27,-40.74 29.74,-30.89 85.10,-34.55 120.41,-7.97 26.07,19.62 33.68,50.55 18.73,76.18 -9.31,15.97 -32.64,36.36 -62.96,54.74 -10.72,6.50 -15.32,8.29 -17.44,6.81 z"/><path style="filter:url(#filter3532);opacity:.2;fill:#000" d="m 43,70.00 c -1.11,0 -2,0.89 -2,2 V 105 c 0,0.28 0.06,0.54 0.16,0.78 0.20,0.48 0.59,0.86 1.06,1.06 C 42.46,106.94 42.72,107 43,107 h 5 17 c 1.11,0 2,0.89 2,-2 v -5 c 0,-1.11 0.89,-2.00 -2,-2.00 H 50 V 72.00 c 0,-1.11 0.89,-2 -2,-2 z m 31,0 c -1.11,0 -2,0.89 -2,2 V 105 c 0,1.11 0.89,2 2,2 h 5 c 1.11,0 2,0.89 2,-2 V 72.00 c 0,-1.11 0.89,-2 -2,-2 z m 14,0 c -1.11,0 -2,0.89 -2,2 V 105 c 0,1.11 0.89,2 2,2 h 5 c 1.11,0 2,0.89 2,-2 V 83.98 l 16.31,22.09 c 0.03,0.05 0.08,0.11 0.12,0.16 0.00,0.00 0.00,0.01 0.01,0.01 C 111.80,106.70 112.36,107 113,107 h 5 c 1.11,0 2,0.89 2,-2 V 72.00 c 0,-1.11 0.89,-2 -2,-2 h -5 c -1.11,0 -2,0.89 -2,2 V 92.02 L 94.69,70.93 C 94.33,70.37 93.71,70.00 93,70.00 Z m 39,0 c 0.07,0 0.14,0.00 0.21,0.01 C 125.78,70.11 125,70.96 125,72.00 v 5 9.00 5 V 105 c 0,1.11 0.89,2 2,2 h 5 17 c 1.11,0 2,0.89 2,-2 v -5 c 0,-1.11 0.89,-2.00 -2,-2.00 h -15 v -5 h 15 c 1.11,0 2,0.89 2,-2 v -5 c 0,-1.11 0.89,-2 -2,-2 h -15 v -5.00 h 15 c 1.11,0 2,0.89 2,-2 v -5 c 0,-1.11 0.89,-2 -2,-2 h -17 z"/><path style="fill:#21b94e" d="m 43,68.00 c -1.11,0 -2,0.89 -2,2 V 103 c 0,0.28 0.06,0.54 0.16,0.78 0.20,0.48 0.59,0.86 1.06,1.06 C 42.46,104.94 42.72,105 43,105 h 5 17 c 1.11,0 2,0.89 2,-2 v -5 c 0,-1.11 0.89,-2 -2,-2 H 50 V 70.00 c 0,-1.11 0.89,-2 -2,-2 z m 31,0 c -1.11,0 -2,0.89 -2,2 V 103 c 0,1.11 0.89,2 2,2 h 5 c 1.11,0 2,0.89 2,-2 V 70.00 c 0,-1.11 0.89,-2 -2,-2 z m 14,0 c -1.11,0 -2,0.89 -2,2 V 103 c 0,1.11 0.89,2 2,2 h 5 c 1.11,0 2,0.89 2,-2 V 81.98 l 16.31,22.09 c 0.03,0.05 0.08,0.11 0.12,0.16 0.00,0.00 0.00,0.01 0.01,0.01 C 111.80,104.70 112.36,105 113,105 h 5 c 1.11,0 2,0.89 2,-2 V 70.00 c 0,-1.11 0.89,-2 -2,-2 h -5 c -1.11,0 -2,0.89 -2,2 V 90.02 L 94.69,68.93 C 94.33,68.37 93.71,68.00 93,68.00 Z m 39,0 c 0.07,0 0.14,0.00 0.21,0.01 C 125.78,68.11 125,68.96 125,70.00 v 5 V 84 v 5 14 c 0,1.11 0.89,2 2,2 h 5 17 c 1.11,0 2,0.89 2,-2 v -5 c 0,-1.11 0.89,-2 -2,-2 h -15 v -5 h 15 c 1.11,0 2,0.89 2,-2 v -5 c 0,-1.11 0.89,-2 -2,-2 h -15 v -5.00 h 15 c 1.11,0 2,0.89 2,-2 v -5 c 0,-1.11 0.89,-2 -2,-2 h -17 z"/><path style="opacity:.2;fill:#fff" d="M 97.64,18.01 C 72.83,17.62 48.00,26.38 31.27,43.76 19.75,55.73 14,69.29 14,84.50 c 0,0.14 0.01,0.27 0.01,0.40 0.15,-14.97 5.89,-28.33 17.26,-40.14 29.74,-30.89 85.10,-34.55 120.41,-7.97 16.97,12.77 26.11,30.33 26.30,48.10 0.14,-18.11 -9.02,-36.09 -26.30,-49.10 C 136.23,24.16 116.94,18.32 97.64,18.01 Z M 90.35,158.10 c 0.04,1.71 0.32,4.48 0.69,6.55 0.57,3.23 0.79,5.27 0.67,6.64 0.02,-1.33 0.22,-3.07 0.67,-5.64 0.40,-2.24 0.72,-5.41 0.72,-7.04 0.00,0.19 0.03,0.34 0.03,0.51 z"/></svg>