<svg xmlns="http://www.w3.org/2000/svg" id="svg14" width="192" height="192" version="1.1"><defs><filter style="color-interpolation-filters:sRGB" id="filter967" width="1.1" height="1.1" x=".05" y=".05"><feGaussianBlur stdDeviation="3.2"/></filter><filter style="color-interpolation-filters:sRGB" id="filter971" width="1.1" height="1.1" x=".05" y=".05"><feGaussianBlur stdDeviation="1.6"/></filter></defs><path style="filter:url(#filter967);opacity:.2;fill:#000" d="M 96,20 A 80,80 0 0 0 16,100 80,80 0 0 0 96,180 80,80 0 0 0 176,100 80,80 0 0 0 96,20 Z"/><path style="fill:#e04c7f" d="M 96,16 A 80,80 0 0 0 16,96 80,80 0 0 0 96,176 80,80 0 0 0 176,96 80,80 0 0 0 96,16 Z"/><path style="opacity:.2;fill:#fff" d="M 96.00 16 A 80 80 0 0 0 16 96 A 80 80 0 0 0 16.03 96.56 A 80 80 0 0 1 96.00 17 L 96 17 A 80 80 0 0 1 175.98 96.38 A 80 80 0 0 0 176.00 96 A 80 80 0 0 0 96 16 L 96.00 16 z"/><rect style="filter:url(#filter971);opacity:.2" width="80" height="80" x="56" y="58" rx="12" ry="12"/><rect style="fill:#fff" width="80" height="80" x="56" y="56" rx="12" ry="12"/><rect style="fill:#ab4367" width="56" height="56" x="68" y="68" rx="8.4" ry="8.4"/></svg>