<?xml version='1.0' encoding='utf-8'?>
<svg xmlns="http://www.w3.org/2000/svg" width="192" height="192" version="1" id="svg14">
  <defs>
    <filter style="color-interpolation-filters:sRGB" id="filter850" x="0.05" width="1.10" y="0.05" height="1.10">
      <feGaussianBlur stdDeviation="3.20"/>
    </filter>
    <filter style="color-interpolation-filters:sRGB" id="filter8717" x="0.11" y="0.11" width="1.21" height="1.22">
      <feGaussianBlur stdDeviation="3.73"/>
    </filter>
  </defs>
  <circle style="filter:url(#filter850);opacity:0.20;fill:#000000" cx="96" cy="100" r="80"/>
  <circle r="80" cy="96" cx="96" style="fill:#7054e0"/>
  <path style="filter:url(#filter8717);opacity:0.20;fill:#000000;color:#000000" d="m 71,57 c -9.89,0 -18,8.11 -18,18 0,9.89 8.11,18 18,18 9.89,0 18,-8.11 18,-18 0,-9.89 -8.11,-18 -18,-18 z m 38,3 a 4,4 0 0 0 -2.83,1.17 4,4 0 0 0 0,5.66 l 8.67,8.67 -8.67,8.67 a 4,4 0 0 0 0,5.66 4,4 0 0 0 5.66,0 L 120.50,81.16 l 8.67,8.67 a 4,4 0 0 0 5.66,0 4,4 0 0 0 0,-5.66 L 126.16,75.50 l 8.67,-8.67 a 4,4 0 0 0 0,-5.66 A 4,4 0 0 0 132,60 4,4 0 0 0 129.17,61.17 L 120.50,69.84 111.83,61.17 A 4,4 0 0 0 109,60 Z m -38,5 c 5.57,0 10,4.43 10,10 0,5.57 -4.43,10 -10,10 -5.57,0 -10,-4.43 -10,-10 0,-5.57 4.43,-10 10,-10 z m 0,37 c -9.89,0 -18,8.11 -18,18 0,9.89 8.11,18 18,18 9.89,0 18,-8.11 18,-18 0,-9.89 -8.11,-18 -18,-18 z m 49,0 c -9.89,0 -18,8.11 -18,18 0,9.89 8.11,18 18,18 9.89,0 18,-8.11 18,-18 0,-9.89 -8.11,-18 -18,-18 z m -49,8 c 5.57,0 10,4.43 10,10 0,5.57 -4.43,10 -10,10 -5.57,0 -10,-4.43 -10,-10 0,-5.57 4.43,-10 10,-10 z m 49,0 c 5.57,0 10,4.43 10,10 0,5.57 -4.43,10 -10,10 -5.57,0 -10,-4.43 -10,-10 0,-5.57 4.43,-10 10,-10 z"/>
  <path style="opacity:0.10;fill:#ffffff" d="M 96 16 A 80 80 0 0 0 16 96 A 80 80 0 0 0 16.02 96.47 A 80 80 0 0 1 96 17 A 80 80 0 0 1 175.97 96.51 A 80 80 0 0 0 176 96 A 80 80 0 0 0 96 16 z "/>
  <path style="fill:#ffffff;color:#000000" d="m 71,55 c -9.89,0 -18,8.11 -18,18 0,9.89 8.11,18 18,18 9.89,0 18,-8.11 18,-18 0,-9.89 -8.11,-18 -18,-18 z m 0,8 c 5.57,0 10,4.43 10,10 0,5.57 -4.43,10 -10,10 -5.57,0 -10,-4.43 -10,-10 0,-5.57 4.43,-10 10,-10 z"/>
  <path style="fill:#ffffff;color:#000000" d="m 71,100 c -9.89,0 -18,8.11 -18,18 0,9.89 8.11,18 18,18 9.89,0 18,-8.11 18,-18 0,-9.89 -8.11,-18 -18,-18 z m 0,8 c 5.57,0 10,4.43 10,10 0,5.57 -4.43,10 -10,10 -5.57,0 -10,-4.43 -10,-10 0,-5.57 4.43,-10 10,-10 z"/>
  <path style="fill:#ffffff;color:#000000" d="m 120,100 c -9.89,0 -18,8.11 -18,18 0,9.89 8.11,18 18,18 9.89,0 18,-8.11 18,-18 0,-9.89 -8.11,-18 -18,-18 z m 0,8 c 5.57,0 10,4.43 10,10 0,5.57 -4.43,10 -10,10 -5.57,0 -10,-4.43 -10,-10 0,-5.57 4.43,-10 10,-10 z"/>
  <path style="fill:#fff764;color:#000000" d="m 132,58 a 4,4 0 0 0 -2.83,1.17 l -23.00,23 a 4,4 0 0 0 0,5.66 4,4 0 0 0 5.66,0 l 23.00,-23 a 4,4 0 0 0 0,-5.66 A 4,4 0 0 0 132,58 Z"/>
  <path style="fill:#fff764;color:#000000" d="m 109,58 a 4,4 0 0 0 -2.83,1.17 4,4 0 0 0 0,5.66 l 23.00,23 a 4,4 0 0 0 5.66,0 4,4 0 0 0 0,-5.66 l -23.00,-23 A 4,4 0 0 0 109,58 Z"/>
</svg>
