<svg xmlns="http://www.w3.org/2000/svg" id="svg30" width="192" height="192" version="1"><defs><filter style="color-interpolation-filters:sRGB" id="filter876" width="1.09" height="1.11" x=".04" y=".05"><feGaussianBlur stdDeviation="2.64"/></filter><filter style="color-interpolation-filters:sRGB" id="filter892" width="1.1" height="1.1" x=".05" y=".05"><feGaussianBlur stdDeviation=".32"/></filter><filter style="color-interpolation-filters:sRGB" id="filter930" width="1.1" height="1.1" x=".05" y=".05"><feGaussianBlur stdDeviation="3.2"/></filter></defs><rect style="filter:url(#filter930);opacity:.2;fill:#000" width="160" height="160" x="-180" y="-176" rx="8" ry="8" transform="matrix(0,-1,-1,0,0,0)"/><rect width="160" height="160" x="-176" y="-176" rx="8" ry="8" transform="matrix(0,-1,-1,0,0,0)" style="fill:#3f3f3f"/><path d="m 28,32 c -2.22,0 -4,1.78 -4,4 v 112 c 0,2.22 1.78,4 4,4 h 136 c 2.22,0 4,-1.78 4,-4 V 36 c 0,-2.22 -1.78,-4 -4,-4 H 60 Z" style="filter:url(#filter876);opacity:.2"/><path d="m 28,28 c -2.22,0 -4,1.78 -4,4 v 112 c 0,2.22 1.78,4 4,4 H 60 V 28 Z" style="fill:#d45736"/><path style="opacity:.1;fill:#fff" d="M 24 16 C 19.57 16 16 19.57 16 24 L 16 25 C 16 20.57 19.57 17 24 17 L 168 17 C 172.43 17 176 20.57 176 25 L 176 24 C 176 19.57 172.43 16 168 16 L 24 16 z"/><path d="M 60,28 V 148 H 96 V 28 Z" style="fill:#e46b31"/><path d="m 96,28 v 120 h 36 V 28 Z" style="fill:#ea812a"/><path d="m 132,28 v 120 h 32 c 2.22,0 4,-1.78 4,-4 V 32 c 0,-2.22 -1.78,-4 -4,-4 z" style="fill:#eb9027"/><path d="m 28,88 a 56,56 0 0 0 -4,0.15 V 144 c 0,2.22 1.78,4 4,4 H 60 83.80 A 56,56 0 0 0 84,144 56,56 0 0 0 28,88 Z" style="fill:#f3c4c4"/><path d="m 28,104 a 40,40 0 0 0 -4,0.24 V 144 c 0,2.22 1.78,4 4,4 h 32 7.80 A 40,40 0 0 0 68,144 40,40 0 0 0 28,104 Z" style="fill:#fff"/><circle cx="96" cy="166" r="8" style="filter:url(#filter892);opacity:.1"/><circle cx="96" cy="164" r="8" style="fill:#fff"/><path style="opacity:.2;fill:#fff" d="M 28 28 C 25.78 28 24 29.78 24 32 L 24 33 C 24 30.78 25.78 29 28 29 L 60 29 L 96 29 L 132 29 L 164 29 C 166.22 29 168 30.78 168 33 L 168 32 C 168 29.78 166.22 28 164 28 L 132 28 L 96 28 L 60 28 L 28 28 z"/></svg>