<?xml version='1.0' encoding='utf-8'?>
<svg xmlns="http://www.w3.org/2000/svg" width="192" height="192" version="1" id="svg12">
  <defs>
    <filter style="color-interpolation-filters:sRGB" id="filter955" x="0.05" width="1.10" y="0.05" height="1.10">
      <feGaussianBlur stdDeviation="3.20"/>
    </filter>
    <filter style="color-interpolation-filters:sRGB" id="filter30694" x="0.11" y="0.11" width="1.22" height="1.22">
      <feGaussianBlur stdDeviation="2.79"/>
    </filter>
    <filter style="color-interpolation-filters:sRGB" id="filter30736" x="0.13" y="0.09" width="1.26" height="1.18">
      <feGaussianBlur stdDeviation="0.99"/>
    </filter>
    <filter style="color-interpolation-filters:sRGB" id="filter30778" x="0.11" y="0.11" width="1.22" height="1.21">
      <feGaussianBlur stdDeviation="3.84"/>
    </filter>
  </defs>
  <rect style="filter:url(#filter955);opacity:0.20;fill:#000000" width="160" height="160" x="16" y="20" rx="30" ry="30"/>
  <path style="fill:#ffc403" d="m 16,80 v 66 c 0,0.81 0.03,1.62 0.09,2.41 0.66,8.39 7.86,7.35 13.98,12.37 4.70,3.85 7.49,14.74 13.96,15.16 C 44.68,175.98 45.34,176 46,176 h 100 c 16.62,0 30,-13.38 30,-30 V 80 Z"/>
  <path style="fill:#f48314" d="M 46,16 C 29.38,16 16,29.38 16,46 V 80.30 H 176 V 46 C 176,29.38 162.62,16 146,16 Z"/>
  <path style="opacity:0.20;fill:#ffffff" d="M 46 16 C 29.38 16 16 29.38 16 46 L 16 47 C 16 30.38 29.38 17 46 17 L 146 17 C 162.62 17 176 30.38 176 47 L 176 46 C 176 29.38 162.62 16 146 16 L 46 16 z "/>
  <circle style="fill:#cc621f" cx="47" cy="59" r="5"/>
  <circle style="fill:#cc621f" cx="63" cy="59" r="5"/>
  <circle style="fill:#cc621f" cx="79" cy="59" r="5"/>
  <path style="filter:url(#filter30778);opacity:0.20;fill:#000000;mix-blend-mode:normal" d="M 29.29,87.84 20.00,105 C 60.32,105 89,133.68 89,174.00 l 16.21,-1.97 C 100.79,140.03 82.31,87.84 29.29,87.84 Z M 22.08,121.71 20.00,138 C 42.09,138 56,151.91 56,174.00 l 17.97,-1.50 C 59.77,144.27 43.28,126.28 22.08,121.71 Z"/>
  <path style="fill:#ffffff" d="M 16 80 L 16 103 A 73 73 0 0 1 89 176 L 112 176 A 96 96 0 0 0 16 80 z M 16 114 L 16 136 A 40 40 0 0 1 56 176 L 78 176 A 62 62 0 0 0 16 114 z M 16.05 147.00 C 16.57 162.81 29.19 175.43 45.00 175.95 A 29 29 0 0 0 16.05 147.00 z "/>
  <path style="opacity:0.20;fill:#ffffff" d="M 16 80 L 16 81 L 176 81 L 176 80 L 16 80 z "/>
  <circle style="filter:url(#filter30694);opacity:0.20;fill:#000000" cx="130" cy="82" r="31"/>
  <circle style="fill:#148aed" cx="130" cy="80" r="31"/>
  <path style="filter:url(#filter30736);opacity:0.20;fill:#000000" d="m 125.41,68.00 c 0.08,0.00 0.15,0.00 0.22,0.01 C 124.28,68.10 124,69.16 124,71.13 v 9.72 0.15 0.15 9.72 c 0,1.96 0.28,3.02 1.19,3.12 0.55,0.06 1.32,0.23 2.41,0.89 l 6.08,-4.61 6.14,-4.66 c 1.60,-1.14 2.18,-2.07 2.19,-2.83 0.01,0.76 0.58,-1.69 -2.19,-2.83 l -6.14,-4.66 -6.08,-4.61 c 0.95,0.57 -1.66,0.86 -2.19,0.89 z"/>
  <path style="fill:#ffffff" d="m 125.41,67.00 c 0.08,0.00 0.15,0.00 0.22,0.01 C 124.28,67.10 124,68.16 124,70.13 v 9.72 0.15 0.15 9.72 c 0,1.96 0.28,3.02 1.19,3.12 0.55,0.06 1.32,0.23 2.41,0.89 l 6.08,-4.61 6.14,-4.66 c 1.60,-1.14 2.18,-2.07 2.19,-2.83 0.01,0.76 0.58,-1.69 -2.19,-2.83 l -6.14,-4.66 -6.08,-4.61 c 0.95,0.57 -1.66,0.86 -2.19,0.89 z"/>
</svg>
