<?xml version='1.0' encoding='utf-8'?>
<svg xmlns="http://www.w3.org/2000/svg" width="192" height="192" version="1" id="svg28">
  <defs>
    <filter style="color-interpolation-filters:sRGB" id="filter4928" x="0.04" y="0.06" width="1.08" height="1.12">
      <feGaussianBlur stdDeviation="2.84"/>
    </filter>
    <filter style="color-interpolation-filters:sRGB" id="filter4988" x="0.07" y="0.07" width="1.15" height="1.15">
      <feGaussianBlur stdDeviation="2.69"/>
    </filter>
    <filter style="color-interpolation-filters:sRGB" id="filter5071" x="0.09" y="0.06" width="1.18" height="1.13">
      <feGaussianBlur stdDeviation="1.48"/>
    </filter>
  </defs>
  <path style="filter:url(#filter4928);opacity:0.20;fill:#000000" d="M 111.50,24 A 39.50,39.50 0 0 0 73.42,53.18 20,20 0 0 0 60,48 20,20 0 0 0 40,68 20,20 0 0 0 40.50,72.21 32.50,32.50 0 0 0 11,104.50 32.50,32.50 0 0 0 43.50,137 h 105 A 32.50,32.50 0 0 0 181,104.50 32.50,32.50 0 0 0 149.96,72.04 39.50,39.50 0 0 0 151,63.50 39.50,39.50 0 0 0 111.50,24 Z"/>
  <path style="fill:#ff9c12" d="M 111.50,20 A 39.50,39.50 0 0 0 73.42,49.18 20,20 0 0 0 60,44 20,20 0 0 0 40,64 20,20 0 0 0 40.50,68.21 32.50,32.50 0 0 0 11,100.50 32.50,32.50 0 0 0 43.50,133 h 105 A 32.50,32.50 0 0 0 181,100.50 32.50,32.50 0 0 0 149.96,68.04 39.50,39.50 0 0 0 151,59.50 39.50,39.50 0 0 0 111.50,20 Z"/>
  <path style="filter:url(#filter5071);opacity:0.20;fill:#000000" d="M 92.24,58.00 C 89.48,58.00 87,60.19 87,62.91 v 23.09 h -8.39 c -2.22,0.00 -3.43,2.75 -2.00,4.56 l 17.39,21.46 c 1.04,1.32 2.96,1.32 4.00,0 L 115.39,90.55 c 1.43,-1.80 0.22,-4.55 -2.00,-4.56 H 105 V 62.91 c 0,-2.72 -2.48,-4.91 -5.24,-4.91 z"/>
  <path style="fill:#3f3f3f" d="M 92.24,56.00 C 89.48,56.00 87,58.19 87,60.91 v 23.09 h -8.39 c -2.22,0.00 -3.43,2.75 -2.00,4.56 l 17.39,21.46 c 1.04,1.32 2.96,1.32 4.00,0 L 115.39,88.55 c 1.43,-1.80 0.22,-4.55 -2.00,-4.56 H 105 V 60.91 c 0,-2.72 -2.48,-4.91 -5.24,-4.91 z"/>
  <circle style="filter:url(#filter4988);opacity:0.20;fill:#000000" cx="143" cy="132" r="43"/>
  <circle style="fill:#1866be" cx="143" cy="130" r="43"/>
  <rect style="fill:#ffffff" width="12" height="56" x="137" y="102"/>
  <rect style="fill:#ffffff" width="12" height="56" x="124" y="-171" transform="rotate(90)"/>
  <path style="opacity:0.20;fill:#ffffff" d="M 111.50 20 A 39.50 39.50 0 0 0 73.42 49.18 A 20 20 0 0 0 60 44 A 20 20 0 0 0 40 64 A 20 20 0 0 0 40.06 64.53 A 20 20 0 0 1 60 45 A 20 20 0 0 1 73.42 50.18 A 39.50 39.50 0 0 1 111.50 21 A 39.50 39.50 0 0 1 150.98 59.83 A 39.50 39.50 0 0 0 151 59.50 A 39.50 39.50 0 0 0 111.50 20 z M 150.14 68.06 A 39.50 39.50 0 0 1 149.96 69.04 A 32.50 32.50 0 0 1 180.95 101.03 A 32.50 32.50 0 0 0 181 100.50 A 32.50 32.50 0 0 0 150.14 68.06 z M 40.38 68.24 A 32.50 32.50 0 0 0 11 100.50 A 32.50 32.50 0 0 0 11.05 101.02 A 32.50 32.50 0 0 1 40.50 69.21 A 20 20 0 0 1 40.38 68.24 z "/>
</svg>
