<?xml version='1.0' encoding='utf-8'?>
<svg xmlns="http://www.w3.org/2000/svg" width="192" height="192" x="0" y="0" version="1.1" id="svg16">
  <defs>
    <filter style="color-interpolation-filters:sRGB" id="filter853" x="-0.048000001" y="-0.048000001" width="1.096" height="1.096">
      <feGaussianBlur stdDeviation="3.2"/>
    </filter>
    <filter style="color-interpolation-filters:sRGB" id="filter2779" x="-0.062896551" y="-0.03880851" width="1.1257931" height="1.077617">
      <feGaussianBlur stdDeviation="1.52"/>
    </filter>
  </defs>
  <circle style="filter:url(#filter853);opacity:0.2" cx="96" cy="100" r="80"/>
  <circle style="fill:#e4e4e4" cx="96" cy="96" r="80"/>
  <path style="opacity:0.2;fill:#ffffff" d="M 96,16 A 80,80 0 0 0 16,96 80,80 0 0 0 16.0332,96.482422 80,80 0 0 1 96,17 80,80 0 0 1 175.98242,96.236328 80,80 0 0 0 176,96 80,80 0 0 0 96,16 Z"/>
  <path style="filter:url(#filter2779);opacity:0.2;fill:#000000" d="m 73,51 c -3.313708,0 -6,2.686292 -6,6 0.0022,2.012946 0,5 0,5 0,13.889475 9.906872,25.58219 23,28.367188 V 105.63281 C 76.906872,108.41781 67,120.11053 67,134 c 0,0 0.0022,2.98705 0,5 0,3.31371 2.686292,6 6,6 3.313708,0 6,-2.68629 6,-6 -0.0022,-2.01295 0,-5 0,-5 0,-9.4599 7.540101,-17 17,-17 9.4599,0 17,7.5401 17,17 0,0 0.002,2.98705 0,5 0,3.31371 2.68629,6 6,6 3.31371,0 6,-2.68629 6,-6 -0.002,-2.01295 0,-5 0,-5 0,-13.88947 -9.90687,-25.58219 -23,-28.36719 V 90.367188 C 115.09313,87.58219 125,75.889475 125,62 c 0,0 -0.002,-2.987054 0,-5 0,-3.313708 -2.68629,-6 -6,-6 -3.31371,0 -6,2.686292 -6,6 0.002,2.012946 0,5 0,5 0,9.459899 -7.5401,17 -17,17 -9.459899,0 -17,-7.540101 -17,-17 0,0 -0.0022,-2.987054 0,-5 0,-3.313708 -2.686292,-6 -6,-6 z m 23,70 a 12,12 0 0 0 -12,12 12,12 0 0 0 12,12 12,12 0 0 0 12,-12 12,12 0 0 0 -12,-12 z"/>
  <path style="fill:#00aeef" d="m 73,49 c -3.313708,0 -6,2.686292 -6,6 0.0022,2.012946 0,5 0,5 0,13.889475 9.906872,25.58219 23,28.367188 V 103.63281 C 76.906872,106.41781 67,118.11053 67,132 c 0,0 0.0022,2.98705 0,5 0,3.31371 2.686292,6 6,6 3.313708,0 6,-2.68629 6,-6 -0.0022,-2.01295 0,-5 0,-5 0,-9.4599 7.540101,-17 17,-17 9.4599,0 17,7.5401 17,17 0,0 0.002,2.98705 0,5 0,3.31371 2.68629,6 6,6 3.31371,0 6,-2.68629 6,-6 -0.002,-2.01295 0,-5 0,-5 0,-13.88947 -9.90687,-25.58219 -23,-28.36719 V 88.367188 C 115.09313,85.58219 125,73.889475 125,60 c 0,0 -0.002,-2.987054 0,-5 0,-3.313708 -2.68629,-6 -6,-6 -3.31371,0 -6,2.686292 -6,6 0.002,2.012946 0,5 0,5 0,9.459899 -7.5401,17 -17,17 -9.459899,0 -17,-7.540101 -17,-17 0,0 -0.0022,-2.987054 0,-5 0,-3.313708 -2.686292,-6 -6,-6 z m 23,70 a 12,12 0 0 0 -12,12 12,12 0 0 0 12,12 12,12 0 0 0 12,-12 12,12 0 0 0 -12,-12 z"/>
</svg>
