<?xml version='1.0' encoding='utf-8'?>
<svg xmlns="http://www.w3.org/2000/svg" width="192" height="192" version="1" id="svg22">
  <defs>
    <filter style="color-interpolation-filters:sRGB" id="filter862" x="-0.048000001" width="1.096" y="-0.048000001" height="1.096">
      <feGaussianBlur stdDeviation="3.2"/>
    </filter>
    <filter style="color-interpolation-filters:sRGB" id="filter878" x="-0.041454545" width="1.0829091" y="-0.056999999" height="1.114">
      <feGaussianBlur stdDeviation="0.38"/>
    </filter>
  </defs>
  <rect width="160" height="160" x="-180" y="-176" rx="8" ry="8" transform="matrix(0,-1,-1,0,0,0)" style="filter:url(#filter862);opacity:0.2;fill:#000000"/>
  <rect style="fill:#1da6e8" transform="matrix(0,-1,-1,0,0,0)" ry="8" rx="8" y="-176" x="-176" height="160" width="160"/>
  <g style="filter:url(#filter878);opacity:0.2" transform="matrix(4,0,0,4,0,8)">
    <path d="m 13,15 v 16 h 6 V 21 h 10 v 10 h 6 V 20 c 0,-4.0345 -4.2373,-5 -6,-5 z"/>
    <path d="m 22,24 v 5 h 4 v -5 z"/>
  </g>
  <path style="opacity:0.2;fill:#ffffff" d="M 24 16 C 19.568 16 16 19.568 16 24 L 16 25 C 16 20.568 19.568 17 24 17 L 168 17 C 172.432 17 176 20.568 176 25 L 176 24 C 176 19.568 172.432 16 168 16 L 24 16 z "/>
  <g style="fill:#ffffff" transform="matrix(4,0,0,4,0,4)">
    <path d="m 13,15 v 16 h 6 V 21 h 10 v 10 h 6 V 20 c 0,-4.0345 -4.2373,-5 -6,-5 z"/>
    <path d="m 22,24 v 5 h 4 v -5 z"/>
  </g>
</svg>
