<?xml version='1.0' encoding='utf-8'?>
<svg xmlns="http://www.w3.org/2000/svg" width="192" height="192" version="1.1" id="svg14">
  <defs>
    <filter style="color-interpolation-filters:sRGB" id="filter849" x="0.05" y="0.05" width="1.10" height="1.10">
      <feGaussianBlur stdDeviation="3.20"/>
    </filter>
    <filter style="color-interpolation-filters:sRGB" id="filter874" x="0.05" y="0.05" width="1.09" height="1.10">
      <feGaussianBlur stdDeviation="2.28"/>
    </filter>
  </defs>
  <path style="filter:url(#filter849);opacity:0.20" d="M 176,100.00 C 176,144.18 140.18,180.00 96.00,180 51.85,180.00 15.99,144.14 16.00,99.99 c 0.01,-44.18 35.82,-79.99 80.00,-79.99 13.21,0 25.68,3.20 36.66,8.88 0.56,0.29 0.72,1.02 0.34,1.52 l -8.38,11.06 c 0.41,0.54 -1.15,0.73 -1.77,0.44 C 114.72,38.12 105.66,36.01 96.11,36.00 60.76,35.94 32.00,64.65 32.00,100.00 c 0.00,35.25 28.49,63.84 63.70,64.00 35.47,0.16 64.19,-28.32 64.30,-63.79 0.02,-5.36 0.63,-10.57 -1.85,-15.55 0.14,0.55 0.01,-1.14 0.39,-1.56 l 10.53,-11.89 c 0.50,0.57 1.44,0.40 1.71,0.31 3.38,8.85 5.22,18.46 5.22,28.49 z"/>
  <path style="fill:#e4e4e4" d="m 96,168 c 39.76,0 72,-32.24 72,-72 0,-39.76 -32.24,-72 -72,-72 -39.76,0 -72,32.24 -72,72 0,39.76 32.24,72 72,72 z"/>
  <path style="filter:url(#filter874);opacity:0.20" class="st0" d="M 167.75,53.22 89.60,141.66 c 0.38,0.44 -1.06,0.46 -1.47,0.04 L 52.30,105.82 c 0.33,0.33 0.39,0.84 0.15,-1.24 l 9.71,-15.94 c 0.34,0.56 1.11,0.65 1.57,0.19 l 21.49,21.55 c 0.31,0.31 0.82,0.27 1.08,0.07 L 146.16,30.40 c 0.34,0.44 0.97,0.53 1.42,0.19 7.93,6.04 14.79,13.42 20.26,21.79 0.25,0.38 0.21,0.88 0.09,1.22 z"/>
  <path style="fill:#0bbe5b" class="st0" d="m 167.75,51.22 -78.15,88.44 c 0.38,0.44 -1.06,0.46 -1.47,0.04 L 52.30,103.82 c 0.33,0.33 0.39,0.84 0.15,-1.24 l 9.71,-15.94 c 0.34,0.56 1.11,0.65 1.57,0.19 l 21.49,21.55 c 0.31,0.31 0.82,0.27 1.08,0.07 L 146.16,28.40 c 0.34,0.44 0.97,0.53 1.42,0.19 7.93,6.04 14.79,13.42 20.26,21.79 0.25,0.38 0.21,0.88 0.09,1.22 z"/>
  <path style="fill:#3f3f3f" d="m 176,96.00 c 0,44.18 -35.82,80.00 -80.00,80.00 -44.15,0.00 -80.01,-35.86 -80.00,-80.01 0.01,-44.18 35.82,-79.99 80.00,-79.99 13.21,0 25.68,3.20 36.66,8.88 0.56,0.29 0.72,1.02 0.34,1.52 l -8.38,11.06 c 0.41,0.54 -1.15,0.73 -1.77,0.44 -8.14,-3.77 -17.20,-5.88 -26.75,-5.89 -35.35,0.06 -64.11,28.65 -64.11,64.00 0.00,35.25 28.49,63.84 63.70,64.00 35.47,0.16 64.19,-28.32 64.30,-63.79 0.02,-5.36 0.63,-10.57 -1.85,-15.55 0.14,0.55 0.01,-1.14 0.39,-1.56 l 10.53,-11.89 c 0.50,0.57 1.44,0.40 1.71,0.31 3.38,8.85 5.22,18.46 5.22,28.49 z"/>
  <path style="opacity:0.10;fill:#ffffff" d="M 96 16 C 51.82 16 16.01 51.81 16 95.98 C 16.00 96.16 16.01 96.33 16.01 96.51 C 16.28 52.55 51.98 17 96 17 C 109.21 17 121.68 20.20 132.66 25.88 C 132.85 25.97 132.97 26.12 133.06 26.28 C 133.34 25.79 133.18 25.14 132.66 24.88 C 121.68 19.20 109.21 16 96 16 z M 170.01 66.87 C 169.68 66.81 169.32 66.91 169.07 67.20 L 158.54 79.09 C 158.16 79.52 158.01 80.10 158.15 80.66 C 158.16 80.70 158.17 80.74 158.18 80.78 C 158.25 80.53 158.36 80.29 158.54 80.09 L 169.07 68.20 C 169.32 67.91 169.68 67.81 170.01 67.87 C 170.34 67.93 170.64 68.15 170.77 68.51 C 174.09 77.21 175.93 86.64 175.99 96.49 C 175.99 96.33 176 96.16 176 96 C 176 85.96 174.15 76.36 170.77 67.51 C 170.64 67.15 170.34 66.93 170.01 66.87 z M 159.93 97.55 C 159.10 132.39 130.71 160.16 95.70 160 C 61.16 159.84 33.17 132.31 32.10 98 C 32.08 98.67 32.00 99.33 32 100 C 32.00 100.22 32.02 100.45 32.02 100.67 C 32.04 100.11 32.08 99.56 32.10 99 C 33.17 133.31 61.16 160.84 95.70 161 C 130.71 161.16 159.10 133.39 159.93 98.55 C 159.96 99.26 159.98 99.97 159.99 100.69 C 159.99 100.53 160.00 100.37 160 100.20 C 160.00 99.31 159.96 98.44 159.93 97.55 z "/>
</svg>
