<?xml version='1.0' encoding='utf-8'?>
<svg xmlns="http://www.w3.org/2000/svg" width="192" height="192" version="1" id="svg26">
  <defs>
    <filter style="color-interpolation-filters:sRGB" id="filter873" x="-0.047999998" y="-0.047999998" width="1.096" height="1.096">
      <feGaussianBlur stdDeviation="3.1999999"/>
    </filter>
    <filter style="color-interpolation-filters:sRGB" id="filter877" x="-0.047999999" y="-0.047999999" width="1.096" height="1.096">
      <feGaussianBlur stdDeviation="2.56"/>
    </filter>
    <filter style="color-interpolation-filters:sRGB" id="filter899" x="-0.05723077" y="-0.041333337" width="1.1144615" height="1.0826667">
      <feGaussianBlur stdDeviation="1.24"/>
    </filter>
  </defs>
  <path style="filter:url(#filter873);opacity:0.2" d="M 176,100 A 79.999998,79.999998 0 0 1 96.000001,180 79.999998,79.999998 0 0 1 16.000003,100 79.999998,79.999998 0 0 1 96.000001,20.000004 79.999998,79.999998 0 0 1 176,100 Z"/>
  <path style="fill:#3591ac" d="M 96.000001,96.000002 V 176 a 80.053718,79.999998 0 0 0 68.796169,-39.27343 80.053718,79.999998 0 0 0 0.44561,-0.77344 z"/>
  <path style="fill:#2cba66" d="M 96.000001,96.000002 V 176 a 80.053718,79.999998 0 0 1 -68.796162,-39.27343 80.053718,79.999998 0 0 1 -0.445611,-0.77344 z"/>
  <path style="fill:#ff482e" d="M 96.000001,96.000002 V 16.000004 a 80.053718,79.999998 0 0 1 68.796169,39.273435 80.053718,79.999998 0 0 1 0.44561,0.77344 z"/>
  <path style="fill:#ff8201" d="M 96.000001,96.000002 V 16.000004 a 80.053718,79.999998 0 0 0 -68.796162,39.273435 80.053718,79.999998 0 0 0 -0.445611,0.77344 z"/>
  <path style="fill:#ffc825" d="M 96.000001,96.000002 26.67145,136 a 80.053718,79.999998 0 0 1 -0.363451,-79.175961 80.053718,79.999998 0 0 1 0.447463,-0.772372 z"/>
  <path style="fill:#9e56d6" d="M 96.000001,96.000002 165.32856,56.000003 a 80.053718,79.999998 0 0 1 0.36344,79.175967 80.053718,79.999998 0 0 1 -0.44747,0.77237 z"/>
  <circle style="filter:url(#filter877);opacity:0.2" cx="96" cy="100" r="64"/>
  <circle style="fill:#ffffff" cx="96" cy="96" r="64"/>
  <path style="filter:url(#filter899);opacity:0.2" d="m 128,98 -26,18 -26,18 V 98 62.000005 L 102,80 Z"/>
  <path style="fill:#33c0e8" d="M 128,96.000003 102,114 76,132 V 96.000003 60.000005 L 102,78 Z"/>
  <path style="opacity:0.2;fill:#ffffff" d="M 96 16 A 79.999998 79.999998 0 0 0 16 96 A 79.999998 79.999998 0 0 0 16.023438 96.638672 A 79.999998 79.999998 0 0 1 96 17 A 79.999998 79.999998 0 0 1 175.98438 96.298828 A 79.999998 79.999998 0 0 0 176 96 A 79.999998 79.999998 0 0 0 96 16 z "/>
</svg>
