<?xml version='1.0' encoding='utf-8'?>
<svg xmlns="http://www.w3.org/2000/svg" width="192" height="192" version="1" id="svg14">
  <defs>
    <filter style="color-interpolation-filters:sRGB" id="filter13812" x="0.05" y="0.05" width="1.10" height="1.10">
      <feGaussianBlur stdDeviation="3.20"/>
    </filter>
    <filter style="color-interpolation-filters:sRGB" id="filter13895" x="0.08" y="0.08" width="1.15" height="1.15">
      <feGaussianBlur stdDeviation="4.07"/>
    </filter>
  </defs>
  <path style="filter:url(#filter13812);opacity:0.20;fill:#000000;color:#000000" d="m 96,20 c -44.01,0.00 -80,35.99 -80,80 v 0.04 0.04 c 0.06,11.45 2.71,22.68 7.49,33.03 l -5.62,19.91 0.03,0.10 c -1.21,4.52 -2.41,10.73 2.80,18.00 2.60,3.64 7.21,6.52 11.47,7.43 4.26,0.90 7.99,0.40 11.39,0.51 l 0.59,0.16 17.09,-6.11 c 10.82,5.28 22.67,8.20 34.78,8.24 H 95.98 96 c 44.01,0 80,-35.99 80,-80 0,-44.01 -35.99,-80.00 -80,-80 z"/>
  <path style="fill:#81655b;color:#000000" d="M 96 16 C 51.99 16.00 16 51.99 16 96 L 16 96.04 L 16 96.08 C 16.06 107.53 18.71 118.75 23.49 129.11 L 17.87 149.02 L 17.84 149.12 C 16.63 153.63 15.43 159.84 20.64 167.12 C 23.24 170.75 27.85 173.64 32.11 174.54 C 36.38 175.45 40.10 174.94 43.51 174.03 L 44.10 173.87 L 61.18 167.76 C 72.01 173.04 83.85 175.97 95.96 176 L 95.98 176 L 96 176 C 140.01 176 176 140.01 176 96 C 176 51.99 140.01 16.00 96 16 z "/>
  <path style="filter:url(#filter13895);opacity:0.20;fill:#000000" d="m 96,33 a 65,65 0 0 0 -65,65 65,65 0 0 0 8.46,31.74 l -7.13,25.26 c 0.98,3.66 0.10,8.52 7.29,6.54 l 22.64,-8.09 A 65,65 0 0 0 96,163 65,65 0 0 0 161,98 65,65 0 0 0 96,33 Z m 0,10 c 30.49,0 55,24.51 55,55 0,30.49 -24.50,54.99 -54.98,55 -10.07,0.03 -19.94,-2.83 -28.54,-8.08 l -4.08,-2.49 -19.05,6.81 5.87,-20.80 -2.06,-3.63 C 43.52,116.62 41.05,107.38 41.00,97.97 41.02,67.49 65.52,43 96,43 Z M 80.85,70 C 69.33,70 60,79.34 60,90.85 c 0.02,5.33 2.07,10.45 5.75,14.31 8.76,8.69 17.65,17.36 26.53,26.01 0,0 1.39,1.65 3.73,1.83 2.34,0.18 3.73,-1.83 3.73,-1.83 8.88,-8.65 17.77,-17.32 26.53,-26.01 C 129.93,101.30 131.98,96.18 132,90.85 132,79.34 122.67,70 111.15,70 105.18,70 99.80,72.52 96,76.54 92.20,72.52 86.82,70 80.85,70 Z"/>
  <path style="fill:#ffffff" d="M 96 31 A 65 65 0 0 0 31 96 A 65 65 0 0 0 39.46 127.74 L 32.33 153.00 C 31.35 156.65 32.23 161.52 39.62 159.54 L 62.26 151.45 A 65 65 0 0 0 96 161 A 65 65 0 0 0 161 96 A 65 65 0 0 0 96 31 z M 96 41 C 126.49 41 151 65.51 151 96 C 151 126.49 126.50 150.99 96.02 151 C 85.94 150.97 76.07 148.17 67.48 142.92 L 63.40 140.42 L 44.35 147.23 L 50.22 126.44 L 48.16 122.80 C 43.52 114.62 41.05 105.38 41.00 95.97 C 41.02 65.49 65.52 41 96 41 z M 80.85 68 C 69.33 68 60 77.34 60 88.85 C 60.02 94.18 62.07 99.30 65.75 103.16 C 74.50 111.85 83.40 120.52 92.27 129.17 C 92.27 129.17 93.66 130.82 96 131 C 98.34 130.82 99.73 129.17 99.73 129.17 C 108.60 120.52 117.50 111.85 126.25 103.16 C 129.93 99.30 131.98 94.18 132 88.85 C 132 77.34 122.67 68 111.15 68 C 105.18 68 99.80 70.52 96 74.54 C 92.20 70.52 86.82 68 80.85 68 z "/>
  <path style="opacity:0.10;fill:#ffffff;color:#000000" d="M 96 16 C 51.99 16.00 16 51.99 16 96 L 16 96.04 L 16 96.08 C 16.00 96.21 16.01 96.34 16.01 96.48 C 16.30 52.71 52.17 17.00 96 17 C 139.84 17.00 175.71 52.72 175.99 96.50 C 175.99 96.33 176 96.17 176 96 C 176 51.99 140.01 16.00 96 16 z M 23.32 129.71 L 17.87 149.02 L 17.84 149.12 C 17.32 151.05 16.84 153.32 16.83 155.83 C 16.94 153.71 17.39 151.80 17.84 150.12 L 17.87 150.02 L 23.49 130.11 C 23.43 129.98 23.38 129.84 23.32 129.71 z "/>
</svg>
