<?xml version='1.0' encoding='utf-8'?>
<svg xmlns="http://www.w3.org/2000/svg" width="192" height="192" version="1" id="svg26">
  <defs>
    <filter style="color-interpolation-filters:sRGB" id="filter868" x="0.03" width="1.06" y="0.03" height="1.06">
      <feGaussianBlur stdDeviation="1.60"/>
    </filter>
    <filter style="color-interpolation-filters:sRGB" id="filter856" x="0.05" width="1.10" y="0.05" height="1.10">
      <feGaussianBlur stdDeviation="3.20"/>
    </filter>
    <filter style="color-interpolation-filters:sRGB" id="filter877" x="0.05" width="1.10" y="0.05" height="1.10">
      <feGaussianBlur stdDeviation="2.88"/>
    </filter>
    <filter style="color-interpolation-filters:sRGB" id="filter901" x="0.05" width="1.10" y="0.04" height="1.09">
      <feGaussianBlur stdDeviation="1.04"/>
    </filter>
  </defs>
  <rect style="filter:url(#filter856);opacity:0.20;fill:#000000" width="160" height="160" x="-180" y="-176" rx="80" ry="80" transform="matrix(0,-1,-1,0,0,0)"/>
  <rect transform="matrix(0,-1,-1,0,0,0)" ry="80" rx="80" y="-176" x="-176" height="160" width="160" style="fill:#3f3f3f"/>
  <rect transform="matrix(0,-1,-1,0,0,0)" ry="72" rx="72" y="-176" x="-180" height="144" width="144" style="filter:url(#filter877);opacity:0.20"/>
  <rect transform="matrix(0,-1,-1,0,0,0)" ry="72" rx="72" y="-176" x="-176" height="144" width="144" style="fill:#ea3e82"/>
  <path style="opacity:0.10;fill:#ffffff" d="M 96 16 C 51.68 16 16.01 51.68 16.01 96 C 16.01 96.34 16.01 96.67 16.01 97 C 16.01 52.68 51.68 17 96 17 C 140.32 17 175.99 52.68 175.99 97 C 175.99 96.67 175.99 96.34 175.99 96 C 175.99 51.68 140.32 16 96 16 z "/>
  <rect transform="matrix(0,-1,-1,0,0,0)" ry="64" rx="64" y="-176" x="-177" height="128" width="128" style="filter:url(#filter868);opacity:0.20;fill:#040404"/>
  <rect transform="matrix(0,-1,-1,0,0,0)" ry="64" rx="64" y="-176" x="-176" height="128" width="128" style="fill:#3f3f3f"/>
  <path d="M 102.06,89.00 A 5.92,6.18 0 0 0 96,95.18 v 43.64 a 5.92,6.18 0 0 0 8.87,5.35 l 18.10,-10.90 18.09,-10.92 a 5.92,6.18 0 0 0 0,-10.69 L 122.97,100.74 104.87,89.84 a 5.92,6.18 0 0 0 -2.81,0.84 z" style="filter:url(#filter901);opacity:0.20"/>
  <path d="M 102.06,84.00 A 5.92,6.18 0 0 0 96,90.18 v 43.64 a 5.92,6.18 0 0 0 8.87,5.35 l 18.10,-10.90 18.09,-10.92 a 5.92,6.18 0 0 0 0,-10.69 L 122.97,95.74 104.87,84.84 a 5.92,6.18 0 0 0 -2.81,0.84 z" style="fill:#ea3e82"/>
  <path style="opacity:0.20;fill:#ffffff" d="M 104 32 C 64.11 32 32 64.11 32 104 C 32 104.13 32.01 104.25 32.02 104.37 C 32.35 64.78 64.32 33 104 33 C 143.68 33 175.65 64.78 175.98 104.37 C 175.99 104.25 176 104.13 176 104 C 176 64.11 143.89 32 104 32 z "/>
  <path style="opacity:0.20;fill:#ffffff" d="M 102.06 84 A 5.92 6.18 0 0 0 96 90.18 L 96 91.18 A 5.92 6.18 0 0 1 102.06 85 A 5.92 6.18 0 0 1 104.88 85.84 L 122.97 96.74 L 141.05 107.66 A 5.92 6.18 0 0 1 143.97 112.49 A 5.92 6.18 0 0 0 141.05 106.66 L 122.97 95.74 L 104.88 84.84 A 5.92 6.18 0 0 0 102.06 84 z "/>
</svg>
