<?xml version='1.0' encoding='utf-8'?>
<svg xmlns="http://www.w3.org/2000/svg" width="192" height="192" version="1" id="svg16">
  <defs>
    <filter style="color-interpolation-filters:sRGB" id="filter867" x="0.05" width="1.10" y="0.05" height="1.10">
      <feGaussianBlur stdDeviation="3.20"/>
    </filter>
    <filter style="color-interpolation-filters:sRGB" id="filter2344" x="0.07" y="0.08" width="1.14" height="1.16">
      <feGaussianBlur stdDeviation="3.02"/>
    </filter>
  </defs>
  <rect ry="80" rx="80" height="160" width="160" y="-176" x="-180" transform="matrix(0,-1,-1,0,0,0)" style="filter:url(#filter867);opacity:0.20;fill:#000000"/>
  <rect style="fill:#ffbf28" transform="matrix(0,-1,-1,0,0,0)" x="-176" y="-176" width="160" height="160" rx="80" ry="80"/>
  <path style="opacity:0.20;fill:#ffffff" d="M 96 16 C 51.68 16 16 51.68 16 96 C 16 96.34 16.00 96.67 16 97 C 16 52.68 51.68 17 96 17 C 140.32 17 176 52.68 176 97 C 176.00 96.67 176 96.34 176 96 C 176 51.68 140.32 16 96 16 z "/>
  <path style="filter:url(#filter2344);opacity:0.20;fill:#000000" d="m 58.22,57 c -4.62,0.01 -6.79,0.34 -7.68,1.19 -2.13,2.04 -3.03,7.27 -2.29,13.28 0.66,5.31 2.71,12.77 4.40,16 3.60,6.86 10.03,11.37 19.52,14.47 4.94,1.62 8.94,2.03 15.26,2.86 l 1.36,0.18 c 0.29,0.15 -1.00,-1.14 -2.58,-3.49 -3.10,-4.63 -8.02,-11.39 -11.13,-15.30 -2.77,-3.48 -8.99,-9.83 -10.40,-10.62 -1.39,0.78 -1.37,0.61 0.05,0.44 2.74,2.01 8.68,10.33 15.33,21.43 1.77,2.96 2.19,3.84 1.85,3.84 0.74,0 -5.67,-1.48 -7.75,-2.33 C 64.39,94.96 58.88,89.47 56.88,81.69 55.43,76.06 54.73,69.96 55.09,66.04 L 55.28,64 l 2.96,0.18 c 1.63,0.10 3.99,0.34 5.24,0.55 8.21,1.35 15.41,5.72 19.38,11.74 3.98,6.06 5.84,12.97 6.08,22.59 0.07,2.86 0.09,5.47 0.04,5.80 0.01,0.07 0.03,0.11 0.06,0.12 L 89,105 c 0,0 0.03,5.51 0.00,8.31 0.18,5.92 0.16,9.53 1.32,14.09 2.92,11.50 10.05,19.65 19.29,22.06 1.07,0.28 2.63,0.51 3.46,0.52 l 1.52,0.01 -2.04,-1.33 C 106.39,144.66 101.64,138.16 99.63,130.22 98.14,124.35 98.02,123.31 98,109.18 97.99,100.30 97.91,95.39 97.69,93.81 96.05,82.02 92.92,74.21 86.56,67.83 79.37,60.59 69.91,56.98 58.22,57 Z m 77.48,20.00 c -3.16,0.02 -6.17,0.22 -8,0.61 C 118.29,79.62 111.31,84.04 106.65,90.94 103.34,95.85 100.95,103.03 101,107.95 l 0.02,1.74 0.33,-1.04 c 0.60,-1.88 2.26,-5.67 3.34,-7.65 5.20,-9.54 12.60,-15.45 22.37,-17.46 2.18,0.45 10.84,0.80 12.72,0.52 1.13,0.17 1.20,0.43 1.20,1.17 0,1.36 -1.04,5.94 -1.97,8.75 -2.40,7.15 -6.62,13.04 -12.08,17.09 -2.61,1.94 -7.88,4.52 -11.50,5.64 -1.71,0.53 -3.34,1.06 -3.62,1.19 0.33,0.15 0.41,0.19 2.09,0.09 10.81,0.60 19.60,-5.05 25.76,-13.01 4.71,-6.09 7.76,-14.64 8.19,-22.92 L 148,78.02 l -3.36,0.50 c -2.45,0.36 -5.77,0.53 -8.94,0.51 z"/>
  <path style="fill:#fefcf9" d="M 58.22 55 C 53.60 55.01 51.43 55.34 50.54 56.19 C 48.41 58.23 47.51 63.46 48.26 69.47 C 48.92 74.78 50.97 82.24 52.66 85.47 C 56.26 92.33 62.70 96.84 72.18 99.94 C 77.11 101.56 81.12 101.97 87.44 102.80 L 88.80 102.97 C 88.50 102.82 87.79 101.84 86.21 99.48 C 83.11 94.85 78.19 88.09 75.09 84.18 C 72.32 80.70 66.10 74.35 64.69 73.57 C 63.30 72.79 63.32 72.95 64.74 74.00 C 67.48 76.02 73.43 84.33 80.08 95.44 C 81.85 98.39 82.27 99.27 81.92 99.27 C 81.19 99.27 76.26 97.79 74.18 96.94 C 64.39 92.96 58.88 87.47 56.88 79.69 C 55.43 74.06 54.73 67.96 55.09 64.04 L 55.28 62 L 58.24 62.18 C 59.87 62.27 62.23 62.52 63.48 62.73 C 71.69 64.07 78.89 68.44 82.86 74.47 C 86.84 80.53 88.70 87.44 88.94 97.06 C 89.01 99.92 89.02 102.53 88.97 102.86 C 88.96 102.93 88.94 102.97 88.91 102.99 L 89 103 C 89 103 89.03 108.51 89.00 111.31 C 88.82 117.24 89.16 120.84 90.32 125.41 C 93.24 136.91 100.36 145.06 109.61 147.46 C 110.68 147.74 112.23 147.98 113.07 147.99 L 114.59 148 L 112.55 146.67 C 106.39 142.66 101.64 136.16 99.63 128.22 C 98.14 122.35 98.02 121.31 98 107.18 C 97.99 98.30 97.91 93.39 97.69 91.81 C 96.05 80.02 92.92 72.21 86.56 65.83 C 79.37 58.59 69.91 54.98 58.22 55 z M 135.70 75.00 C 132.53 75.02 129.52 75.23 127.70 75.62 C 118.29 77.62 111.31 82.04 106.65 88.94 C 103.34 93.85 100.95 101.03 101 105.95 L 101.02 107.69 L 101.35 106.66 C 101.95 104.78 103.61 100.99 104.69 99.01 C 109.89 89.46 117.29 83.55 127.06 81.54 C 129.24 81.10 137.90 80.74 139.78 81.02 C 140.91 81.19 140.98 81.45 140.98 82.19 C 140.98 83.55 139.95 88.13 139.01 90.94 C 136.61 98.09 132.39 103.97 126.93 108.03 C 124.32 109.96 119.06 112.55 115.43 113.66 C 113.72 114.19 112.09 114.72 111.81 114.86 C 111.47 115.01 112.22 115.04 113.89 114.95 C 124.70 114.34 133.50 109.90 139.65 101.94 C 144.36 95.85 147.41 87.30 147.84 79.02 L 148 76.02 L 144.64 75.52 C 142.18 75.15 138.86 74.98 135.70 75.00 z "/>
</svg>
