<?xml version='1.0' encoding='utf-8'?>
<svg xmlns="http://www.w3.org/2000/svg" width="192" height="192" version="1" id="svg14">
  <defs>
    <filter style="color-interpolation-filters:sRGB" id="filter848" x="0.05" width="1.10" y="0.05" height="1.10">
      <feGaussianBlur stdDeviation="3.20"/>
    </filter>
    <filter style="color-interpolation-filters:sRGB" id="filter859" x="0.02" width="1.04" y="0.03" height="1.05">
      <feGaussianBlur stdDeviation="0.90"/>
    </filter>
  </defs>
  <rect transform="matrix(0,-1,-1,0,0,0)" ry="8" rx="8" y="-176" x="-180" height="160" width="160" style="filter:url(#filter848);opacity:0.20"/>
  <rect transform="matrix(0,-1,-1,0,0,0)" ry="8" rx="8" y="-176" x="-176" height="160" width="160" style="fill:#546e7a"/>
  <path style="opacity:0.10;fill:#ffffff" d="M 24 16 C 19.57 16 16 19.57 16 24 L 16 25 C 16 20.57 19.57 17 24 17 L 168 17 C 172.43 17 176 20.57 176 25 L 176 24 C 176 19.57 172.43 16 168 16 L 24 16 z "/>
  <path d="m 84,54 c -4.43,0 -8,3.57 -8,8 v 8 H 56 c -4.43,0 -8,3.57 -8,8 v 52 c 0,4.43 3.57,8 8,8 h 12 v -20 c 0,-2.22 1.78,-4 4,-4 2.22,0 4,1.78 4,4 v 20 h 8 v -20 c 0,-2.22 1.78,-4 4,-4 2.22,0 4,1.78 4,4 v 20 h 8 v -20 c 0,-2.22 1.78,-4 4,-4 2.22,0 4,1.78 4,4 v 20 h 8 v -20 c 0,-2.22 1.78,-4 4,-4 2.22,0 4,1.78 4,4 v 20 h 12 c 4.43,0 8,-3.57 8,-8 V 78 c 0,-4.43 -3.57,-8 -8,-8 h -20 v -8 c 0,-4.43 -3.57,-8 -8,-8 z" style="filter:url(#filter859);opacity:0.10"/>
  <path d="m 84,52 c -4.43,0 -8,3.57 -8,8 v 8 H 56 c -4.43,0 -8,3.57 -8,8 v 52 c 0,4.43 3.57,8 8,8 h 12 v -20 c 0,-2.22 1.78,-4 4,-4 2.22,0 4,1.78 4,4 v 20 h 8 v -20 c 0,-2.22 1.78,-4 4,-4 2.22,0 4,1.78 4,4 v 20 h 8 v -20 c 0,-2.22 1.78,-4 4,-4 2.22,0 4,1.78 4,4 v 20 h 8 v -20 c 0,-2.22 1.78,-4 4,-4 2.22,0 4,1.78 4,4 v 20 h 12 c 4.43,0 8,-3.57 8,-8 V 76 c 0,-4.43 -3.57,-8 -8,-8 h -20 v -8 c 0,-4.43 -3.57,-8 -8,-8 z" style="fill:#324249"/>
</svg>
