<?xml version='1.0' encoding='utf-8'?>
<svg xmlns="http://www.w3.org/2000/svg" width="192" height="192" version="1" id="svg28">
  <defs>
    <filter style="color-interpolation-filters:sRGB" id="filter6495" x="0.05" y="0.05" width="1.10" height="1.10">
      <feGaussianBlur stdDeviation="3.20"/>
    </filter>
    <filter style="color-interpolation-filters:sRGB" id="filter1421" x="0.11" y="0.10" width="1.23" height="1.21">
      <feGaussianBlur stdDeviation="4.84"/>
    </filter>
  </defs>
  <rect transform="matrix(0,-1,-1,0,0,0)" ry="12" rx="12" y="-176" x="-180" height="160" width="160" style="filter:url(#filter6495);opacity:0.20;fill:#000000"/>
  <rect transform="matrix(0,-1,-1,0,0,0)" ry="12" rx="12" y="-176" x="-176" height="160" width="160" style="fill:#00cbbb"/>
  <path style="filter:url(#filter1421);opacity:0.20;fill:#000000" d="m 116.31,42.00 c 0.03,0.05 -1.22,11.09 -2.65,24.54 -1.43,13.45 -2.68,24.23 -2.78,23.96 0.10,0.28 -2.12,-9.51 -4.50,-20.52 -2.38,-11.01 -4.36,-20.07 -4.42,-20.13 0.12,0.14 -27.53,5.51 -27.99,5.78 0.22,0.13 1.07,6.61 4.15,20.78 2.46,11.33 4.48,20.67 4.48,20.76 0.00,0.09 -9.09,2.05 -20.20,4.35 -11.11,2.30 -20.29,4.27 -20.40,4.37 0.35,0.32 6.91,33.14 7.36,33.29 0.94,0.31 71.04,14.88 71.30,14.82 0.16,0.04 3.99,-8.21 8.51,-18.16 l 8.21,-18.09 3.88,-36.29 c 2.13,-19.96 3.81,-36.36 3.73,-36.44 0.16,0.16 -28.60,-3.15 -28.69,-3.02 z M 94.22,106.00 c 0.97,0.03 1.93,0.21 2.77,0.73 1.44,0.90 2.01,1.98 2.01,3.82 0.00,3.28 -2.80,5.21 -6.04,4.16 -1.40,0.45 -1.96,0.96 -2.51,-2.26 0.98,-2.35 0.30,-4.92 1.56,-5.87 0.71,0.36 1.47,0.56 2.22,0.58 z m 20.51,3.00 c 0.25,0.00 0.54,0.01 0.90,0.04 3.79,0.28 5.48,3.61 3.58,7.07 -1.03,1.87 -2.96,2.37 -5.61,1.43 -1.64,0.58 -2.39,-1.53 -2.58,-3.24 0.18,-1.66 0.63,-3.55 1.97,-4.60 0.67,0.52 1.00,0.69 1.74,0.70 z"/>
  <path style="fill:#ffffff" d="M 116.31 40.00 C 116.28 40.05 115.09 51.09 113.66 64.55 C 112.23 78.00 110.98 88.78 110.88 88.50 C 110.78 88.23 108.76 78.99 106.38 67.99 C 104.01 56.98 102.02 47.92 101.96 47.85 C 101.84 47.71 74.44 53.37 73.97 53.63 C 73.75 53.76 75.04 60.24 78.12 74.41 C 80.59 85.74 82.60 95.08 82.61 95.17 C 82.61 95.26 73.52 97.22 62.41 99.52 C 51.30 101.82 42.12 103.79 42.01 103.89 C 41.66 104.20 48.92 137.03 49.37 137.18 C 50.31 137.49 120.41 152.06 120.67 152 C 120.83 151.96 124.66 143.79 129.18 133.84 L 137.39 115.75 L 141.27 79.46 C 143.40 59.50 145.08 43.10 145.00 43.02 C 144.84 42.86 116.40 39.87 116.31 40.00 z M 94.22 104.00 C 95.19 103.97 96.15 104.22 96.99 104.73 C 98.43 105.63 99.00 106.71 99 108.55 C 99.00 111.84 96.20 113.76 92.96 112.71 C 91.56 112.27 90.99 111.76 90.45 110.46 C 89.47 108.11 90.15 105.53 92.00 104.58 C 92.71 104.22 93.47 104.03 94.22 104.00 z M 114.74 107 C 114.98 107.00 115.27 107.01 115.64 107.04 C 119.43 107.32 121.12 110.65 119.21 114.11 C 118.18 115.98 116.25 116.48 113.61 115.54 C 111.97 114.96 111.21 114.01 111.03 112.30 C 110.84 110.64 111.66 108.74 113.00 107.70 C 113.67 107.18 114.00 107.01 114.74 107 z "/>
  <path style="opacity:0.20;fill:#ffffff" d="m 28,16 c -6.65,0 -12,5.35 -12,12 v 1 c 0,-6.65 5.35,-12 12,-12 h 136 c 6.65,0 12,5.35 12,12 v -1 c 0,-6.65 -5.35,-12 -12,-12 z"/>
</svg>
