<?xml version='1.0' encoding='utf-8'?>
<svg xmlns="http://www.w3.org/2000/svg" width="192" height="192" version="1" id="svg16">
  <defs>
    <filter style="color-interpolation-filters:sRGB" id="filter867" x="-0.048000001" width="1.096" y="-0.048000001" height="1.096">
      <feGaussianBlur stdDeviation="3.2"/>
    </filter>
    <filter style="color-interpolation-filters:sRGB" id="filter1751" x="-0.080358186" y="-0.070311698" width="1.1607164" height="1.1406234">
      <feGaussianBlur stdDeviation="2.929654"/>
    </filter>
  </defs>
  <rect ry="80" rx="80" height="160" width="160" y="-176" x="-180" transform="matrix(0,-1,-1,0,0,0)" style="filter:url(#filter867);opacity:0.2;fill:#000000"/>
  <rect style="fill:#17be7b" transform="matrix(0,-1,-1,0,0,0)" x="-176" y="-176" width="160" height="160" rx="80" ry="80"/>
  <path style="opacity:0.2;fill:#ffffff" d="M 96 16 C 51.68 16 16 51.68 16 96 C 16 96.336 16.002 96.6675 16 97 C 16 52.68 51.68 17 96 17 C 140.32 17 176 52.68 176 97 C 175.998 96.6675 176 96.336 176 96 C 176 51.68 140.32 16 96 16 z "/>
  <path style="filter:url(#filter1751);opacity:0.2;fill:#000000" d="m 88.786215,48.01868 c -0.779498,0.06 -1.541336,0.253 -2.246005,0.590999 -2.162453,1.040597 -3.5381,3.227492 -3.539969,5.627285 V 66.919732 L 96,76.660707 v -9.411376 l 14.40438,11.925969 -5.84704,4.553088 10.46781,7.92218 9.60669,-7.482781 c 3.19073,-2.478693 3.22667,-7.287981 0.073,-9.814174 L 93.155974,49.354277 C 91.921127,48.371279 90.359921,47.898081 88.785955,48.01838 Z M 59.45344,61.256246 51.751,71.107021 83.00023,95.483858 v 5.004792 l -22.582442,17.36581 c -2.721563,2.118 -3.213172,6.04029 -1.098596,8.76448 2.118014,2.72149 6.040164,3.21319 8.764407,1.0986 L 83.000241,116.3208 v 25.41433 c -0.0027,5.24279 6.062664,8.15868 10.155992,4.88269 l 27.379707,-21.89884 11.01048,8.58127 7.70244,-9.85077 z M 96.945549,105.89623 110.39214,116.809 96,128.72277 v -22.13075 z"/>
  <path style="fill:#ffffff" d="m 88.786215,46.018677 c -0.779498,0.06 -1.541336,0.253 -2.246005,0.590999 -2.162453,1.040597 -3.5381,3.227492 -3.539969,5.627285 V 64.919729 L 96,74.660704 v -9.411376 l 14.40438,11.925969 -5.84704,4.553088 10.46781,7.92218 9.60669,-7.482781 c 3.19073,-2.478693 3.22667,-7.287981 0.073,-9.814174 L 93.155974,47.354274 C 91.921127,46.371276 90.359921,45.898078 88.785955,46.018377 Z M 59.45344,59.256243 51.751,69.107018 83.00023,93.483855 v 5.004788 L 60.417788,115.85446 c -2.721563,2.118 -3.213172,6.04029 -1.098596,8.76448 2.118014,2.72149 6.040164,3.21319 8.764407,1.0986 L 83.000241,114.3208 v 25.41433 c -0.0027,5.24279 6.062664,8.15868 10.155992,4.88269 l 27.379707,-21.89884 11.01048,8.58127 7.70244,-9.85077 z M 96.945549,103.89623 110.39214,114.809 96,126.72277 v -22.13075 z"/>
</svg>
