<?xml version='1.0' encoding='utf-8'?>
<svg xmlns="http://www.w3.org/2000/svg" width="192" height="192" version="1.1" id="svg14">
  <defs>
    <filter style="color-interpolation-filters:sRGB" id="filter849" x="0.05" y="0.05" width="1.10" height="1.10">
      <feGaussianBlur stdDeviation="3.20"/>
    </filter>
    <filter style="color-interpolation-filters:sRGB" id="filter9113" x="0.07" y="0.08" width="1.14" height="1.16">
      <feGaussianBlur stdDeviation="3.50"/>
    </filter>
  </defs>
  <rect style="filter:url(#filter849);opacity:0.20" width="160" height="160" x="16" y="20" rx="32" ry="32"/>
  <rect style="fill:#ee3b6f" width="160" height="160" x="16" y="16" rx="32" ry="32"/>
  <path style="filter:url(#filter9113);opacity:0.20;fill:#000000" d="m 94,39 c -2.38,0 -2.58,0.95 -3.89,1.67 l -54,44 C 35.39,85.26 35.01,86.11 35,86.97 35.26,88.88 37.26,89 37.26,89 H 40.29 46 v 24 h 6 V 79.46 L 93.89,45.33 c 0.04,0.03 0.07,0.07 0.11,0.11 0.04,0.03 0.07,0.07 0.11,0.11 L 136,79.46 V 113 h 6 V 89 h 5.71 3.04 c 0,0 1.99,0.12 2.26,-2.03 0.01,0.86 0.39,-1.71 -1.11,-2.29 l -54.00,-44 C 96.67,39.88 96.38,39 94,39 Z m -48,81 v 24 h 6 v -9 h 10 v 9 h 6 v -24 h -6 v 9 H 52 v -9 z m 40,0 a 12,12 0 0 0 -12,12 12,12 0 0 0 12,12 12,12 0 0 0 12,-12 12,12 0 0 0 -12,-12 z m 18,0 v 24 h 6 V 129.91 L 116.16,138 H 117 117.84 L 124,129.91 V 144 h 6 v -24 h -6 l -7,9.20 L 110,120 Z m 32,0 v 24 h 6 12 v -6 h -12 v -3 h 12 v -6 h -12 v -3 h 12 v -6 h -12 z m -50,5 a 6,7 0 0 1 6,7 6,7 0 0 1 -6,7 6,7 0 0 1 -6,-7 6,7 0 0 1 6,-7 z"/>
  <path style="fill:#ffffff" d="M 94 37 C 91.62 37 91.42 37.95 90.11 38.67 L 36.11 82.67 C 35.39 83.26 35.01 84.11 35 84.97 C 35.26 86.88 37.26 87 37.26 87 L 40.29 87 L 46 87 L 46 111 L 52 111 L 52 77.46 L 93.89 43.33 C 93.93 43.29 93.96 43.25 94 43.22 C 94.04 43.25 94.07 43.29 94.11 43.33 L 136 77.46 L 136 111 L 142 111 L 142 87 L 147.71 87 L 150.74 87 C 150.74 87 152.74 86.88 153 84.97 C 152.99 84.11 152.61 83.26 151.89 82.67 L 97.89 38.67 C 96.67 37.88 96.38 37 94 37 z M 46 118 L 46 142 L 52 142 L 52 133 L 62 133 L 62 142 L 68 142 L 68 118 L 62 118 L 62 127 L 52 127 L 52 118 L 46 118 z M 86 118 A 12 12 0 0 0 74 130 A 12 12 0 0 0 86 142 A 12 12 0 0 0 98 130 A 12 12 0 0 0 86 118 z M 104 118 L 104 142 L 110 142 L 110 127.91 L 116.16 136 L 117 136 L 117.84 136 L 124 127.91 L 124 142 L 130 142 L 130 118 L 124 118 L 117 127.20 L 110 118 L 104 118 z M 136 118 L 136 142 L 142 142 L 154 142 L 154 136 L 142 136 L 142 133 L 154 133 L 154 127 L 142 127 L 142 124 L 154 124 L 154 118 L 142 118 L 136 118 z M 86 123 A 6 7 0 0 1 92 130 A 6 7 0 0 1 86 137 A 6 7 0 0 1 80 130 A 6 7 0 0 1 86 123 z "/>
  <path style="opacity:0.20;fill:#ffffff" d="M 48,16 C 30.27,16 16,30.27 16,48 v 1 C 16,31.27 30.27,17 48,17 h 96 c 17.73,0 32,14.27 32,32 V 48 C 176,30.27 161.73,16 144,16 Z"/>
</svg>
