<?xml version='1.0' encoding='utf-8'?>
<svg xmlns="http://www.w3.org/2000/svg" width="192" height="192" version="1" id="svg16">
  <defs>
    <filter style="color-interpolation-filters:sRGB" id="filter861" x="-0.048000001" width="1.096" y="-0.048000001" height="1.096">
      <feGaussianBlur stdDeviation="3.2"/>
    </filter>
    <filter style="color-interpolation-filters:sRGB" id="filter883" x="-0.045818178" width="1.0916364" y="-0.0504" height="1.1008">
      <feGaussianBlur stdDeviation="1.68"/>
    </filter>
  </defs>
  <circle style="filter:url(#filter861);opacity:0.2" cx="96" cy="100" r="80"/>
  <path style="fill:#e74a99" d="m 148.78661,35.494128 c -0.0188,-0.02 -0.0412,-0.032 -0.0624,-0.0492 C 123.5835,13.858328 88.061039,10.028316 58.665495,25.040248 29.286425,40.044007 12.563606,73.500447 16.594874,105.92441 c 2.814592,22.65788 15.448487,42.52759 33.495058,55.29351 0,0 49.746034,-44.42199 62.956498,-60.18539 12.39032,-14.795564 39.44194,-62.046882 39.44194,-62.046882 -1.18961,-1.19592 -2.42158,-2.36128 -3.7018,-3.49136 z"/>
  <path style="opacity:0.2;fill:#ffffff" d="M 96 16 C 51.683942 16 16.007812 51.680001 16.007812 96 C 16.007812 96.336 16.009812 96.6675 16.007812 97 C 16.007812 52.680001 51.683942 17 96 17 C 140.31606 17 175.99219 52.680001 175.99219 97 C 175.99019 96.6675 175.99219 96.336 175.99219 96 C 175.99219 51.680001 140.31606 16 96 16 z "/>
  <path style="fill:#27aae1" d="m 50.091144,161.21776 c 8.315519,5.88084 17.779471,10.2612 27.963539,12.70124 31.859487,7.62828 66.211167,-6.2242 84.436587,-33.233 21.48127,-31.84071 16.75695,-74.846913 -10.00168,-101.700512 0,0 -38.19938,45.600318 -50.93448,60.802758 C 88.687063,115.14357 50.091144,161.21776 50.091144,161.21776 Z"/>
  <path style="opacity:0.2;fill:#ffffff" d="M 152.49219 38.984375 C 152.49219 38.984375 114.28978 84.586623 101.55469 99.789062 C 88.686633 115.14439 50.093746 161.21875 50.09375 161.21875 C 50.269413 161.34298 50.453904 161.45515 50.634766 161.57227 C 51.431134 160.62151 88.821998 115.98285 101.55469 100.78906 C 114.28978 85.586618 152.49219 39.984375 152.49219 39.984375 C 167.96066 55.507751 175.97261 76.430972 175.90625 97.472656 C 175.90797 97.523495 175.91243 97.574157 175.91406 97.625 C 176.28304 76.196401 168.24316 54.791251 152.49219 38.984375 z "/>
  <path style="filter:url(#filter883);opacity:0.2" d="m 98.585166,75.954671 c 0,0 -7.831567,-17.311504 -24.132831,-13.371368 C 58.153487,66.524687 24.112761,100.15684 96.029026,142 h -0.058 C 167.88609,100.15684 133.84778,66.525891 117.54772,62.583303 101.24646,58.643167 93.416103,75.954671 93.416103,75.954671 Z"/>
  <path style="fill:#ffffff" d="m 98.585166,73.954671 c 0,0 -7.831567,-17.311504 -24.132831,-13.371368 C 58.153487,64.524687 24.112761,98.156842 96.029026,140 h -0.058 C 167.88609,98.156842 133.84778,64.525891 117.54772,60.583303 101.24646,56.643167 93.416103,73.954671 93.416103,73.954671 Z"/>
</svg>
