<?xml version='1.0' encoding='utf-8'?>
<svg xmlns="http://www.w3.org/2000/svg" width="192" height="192" version="1" id="svg12">
  <defs>
    <filter style="color-interpolation-filters:sRGB" id="filter860" x="-0.048000001" width="1.096" y="-0.048000001" height="1.096">
      <feGaussianBlur stdDeviation="3.2"/>
    </filter>
    <filter style="color-interpolation-filters:sRGB" id="filter853" x="-0.043388713" width="1.0867774" y="-0.053708007" height="1.107416">
      <feGaussianBlur stdDeviation="1.7116724"/>
    </filter>
  </defs>
  <rect style="filter:url(#filter860);opacity:0.2" width="160" height="160" x="16" y="20" rx="8" ry="8"/>
  <rect style="fill:#039ae3" width="160" height="160" x="16" y="16" rx="8" ry="8"/>
  <path style="opacity:0.2;fill:#ffffff" d="m 24,16 c -4.432,0 -8,3.568 -8,8 v 1 c 0,-4.432 3.568,-8 8,-8 h 144 c 4.432,0 8,3.568 8,8 v -1 c 0,-4.432 -3.568,-8 -8,-8 z"/>
  <path d="M 48,72.347457 90.998517,123.72963 101.26682,136 116.60478,123.16462 142.67932,101.34448 132.41102,89.074107 106.33648,110.89425 63.337962,59.512079 Z" style="filter:url(#filter853);opacity:0.2;fill:#000000"/>
  <path style="fill:#ffffff" d="M 48,70.347457 90.998517,121.72963 101.26682,134 116.60478,121.16462 142.67932,99.344477 132.41102,87.074107 106.33648,108.89425 63.337962,57.512079 Z"/>
</svg>
