<?xml version='1.0' encoding='utf-8'?>
<svg xmlns="http://www.w3.org/2000/svg" width="192" height="192" version="1" id="svg14">
  <defs>
    <filter style="color-interpolation-filters:sRGB" id="filter850" x="0.05" width="1.10" y="0.05" height="1.10">
      <feGaussianBlur stdDeviation="3.20"/>
    </filter>
    <filter style="color-interpolation-filters:sRGB" id="filter26402" x="0.08" y="0.07" width="1.16" height="1.14">
      <feGaussianBlur stdDeviation="3.62"/>
    </filter>
  </defs>
  <circle style="filter:url(#filter850);opacity:0.20;fill:#000000" cx="96" cy="100" r="80"/>
  <circle r="80" cy="96" cx="96" style="fill:#33b578"/>
  <path style="filter:url(#filter26402);opacity:0.20;fill:#000000;color:#000000" d="M 96.43,36.01 C 68.35,35.82 43.58,54.59 36.19,81.69 c -7.40,27.09 4.40,55.85 28.69,69.95 24.29,14.10 55.11,10.08 74.96,-9.78 a 6,6 0 0 0 0,-8.48 6,6 0 0 0 -8.48,0 C 115.30,149.42 90.53,152.65 70.90,141.25 51.26,129.86 41.79,106.75 47.76,84.85 53.74,62.94 73.65,47.85 96.35,48.01 a 6,6 0 0 0 6.04,-5.96 6,6 0 0 0 -5.96,-6.04 z m 0.17,29.03 c -1.01,0.02 -2.01,0.01 -3.01,0.08 -8.02,0.59 -15.82,4.07 -21.68,10.33 -11.71,12.52 -11.85,32.08 0.31,44.76 11.54,12.68 31.02,14.39 44.59,3.90 a 6,6 0 0 0 1.08,-8.42 6,6 0 0 0 -8.42,-1.08 c -8.70,6.73 -20.97,5.65 -28.38,-2.48 -7.40,-8.14 -7.32,-20.45 0.20,-28.48 7.52,-8.03 19.80,-8.93 28.41,-2.09 a 6,6 0 0 0 8.43,0.96 6,6 0 0 0 0.96,-8.43 c -5.87,-4.67 -12.90,-7.02 -19.94,-7.14 z M 111,87.01 v 9 h -9 v 4.00 h 9 v 9 h 4 v -9 h 9 v -4.00 h -9 v -9 z"/>
  <path style="fill:#38adfa" d="m 688.81,257.00 c 0.33,0.33 -1.19,0.37 -1.92,0.08 0.80,0.32 0.56,0.56 0.60,0.60 1.05,0.04 1.64,0.19 1.31,0.53 z"/>
  <path style="opacity:0.20;fill:#ffffff" d="M 96 16 A 80 80 0 0 0 16 96 A 80 80 0 0 0 16.02 96.47 A 80 80 0 0 1 96 17 A 80 80 0 0 1 175.97 96.51 A 80 80 0 0 0 176 96 A 80 80 0 0 0 96 16 z "/>
  <path style="fill:#288f5d;color:#000000" d="m 96,34 c -34.17,0 -62,27.83 -62,62 0,34.17 27.83,62 62,62 34.17,0 62,-27.83 62,-62 0,-34.17 -27.83,-62 -62,-62 z m 0,12 c 27.69,0 50,22.31 50,50 0,27.69 -22.31,50 -50,50 C 68.31,146 46,123.69 46,96 46,68.31 68.31,46 96,46 Z"/>
  <path style="fill:#00ff97;color:#000000" d="M 96.43,34.00 C 68.35,33.81 43.58,52.58 36.19,79.67 c -7.40,27.09 4.40,55.85 28.69,69.95 24.29,14.10 55.11,10.08 74.96,-9.78 a 6,6 0 0 0 0,-8.48 6,6 0 0 0 -8.48,0 C 115.30,147.41 90.53,150.64 70.90,139.24 51.26,127.85 41.79,104.74 47.76,82.83 53.74,60.93 73.65,45.84 96.35,46.00 a 6,6 0 0 0 6.04,-5.96 6,6 0 0 0 -5.96,-6.04 z"/>
  <path style="fill:#79ffdf;color:#000000" d="m 93.59,63.12 c -8.02,0.59 -15.82,4.07 -21.68,10.33 -11.71,12.52 -11.85,32.08 0.31,44.76 11.54,12.68 31.02,14.39 44.59,3.90 a 6,6 0 0 0 1.08,-8.42 6,6 0 0 0 -8.42,-1.08 c -8.70,6.73 -20.97,5.65 -28.38,-2.48 C 73.06,102.00 73.15,89.68 80.67,81.65 88.18,73.62 100.46,72.72 109.07,79.56 a 6,6 0 0 0 8.43,0.96 6,6 0 0 0 0.96,-8.43 c -6.71,-5.34 -14.94,-7.65 -22.96,-7.06 z"/>
  <path style="fill:#43df95" d="M 111 85 L 111 94 L 102 94 L 102 98 L 111 98 L 111 107 L 115 107 L 115 98 L 124 98 L 124 94 L 115 94 L 115 85 L 111 85 z "/>
</svg>
