<?xml version='1.0' encoding='utf-8'?>
<svg xmlns="http://www.w3.org/2000/svg" width="192" height="192" version="1" id="svg14">
  <defs>
    <filter style="color-interpolation-filters:sRGB" id="filter850" x="-0.048000001" width="1.096" y="-0.048000001" height="1.096">
      <feGaussianBlur stdDeviation="3.2"/>
    </filter>
    <filter style="color-interpolation-filters:sRGB" id="filter20906" x="-0.10803699" y="-0.10850321" width="1.216074" height="1.2170064">
      <feGaussianBlur stdDeviation="4.5015409"/>
    </filter>
  </defs>
  <circle style="filter:url(#filter850);opacity:0.2;fill:#000000" cx="96" cy="100" r="80"/>
  <path style="fill:#6338b0" d="m 152.56854,152.56854 c 31.24195,-31.24194 31.24195,-81.895139 0,-113.137082 -31.24194,-31.2419438 -81.895139,-31.2419438 -113.137082,0 z"/>
  <path style="fill:#de316e" d="m 152.56854,152.56854 c -31.24194,31.24195 -81.895139,31.24195 -113.137082,0 -31.2419438,-31.24194 -31.2419438,-81.895139 0,-113.137082 z"/>
  <path style="fill:#38adfa" d="m 688.80525,256.99648 c -0.33229,-0.33229 -1.1948,-0.36781 -1.91667,-0.0789 -0.79773,0.31922 -0.56078,0.55618 0.60417,0.60416 1.05416,0.0434 1.64479,-0.19293 1.3125,-0.52522 z"/>
  <path style="opacity:0.1;fill:#ffffff" d="M 96 16 A 80 80 0 0 0 16 96 A 80 80 0 0 0 16.019531 96.472656 A 80 80 0 0 1 96 17 A 80 80 0 0 1 175.97461 96.513672 A 80 80 0 0 0 176 96 A 80 80 0 0 0 96 16 z "/>
  <path style="filter:url(#filter20906);opacity:0.2;fill:#000000" d="m 96,47.99969 a 50,50 0 0 0 -50,50 50,50 0 0 0 44,49.57031 v -34.77539 a 16,16 0 0 1 -10,-14.79492 16,16 0 0 1 16,-16 16,16 0 0 1 16,16 16,16 0 0 1 -10,14.79492 V 147.57 a 50,50 0 0 0 44,-49.57031 50,50 0 0 0 -50,-50 z"/>
  <path style="fill:#15c1ff" d="M 96 46 A 50 50 0 0 0 46 96 A 50 50 0 0 0 90 145.57031 L 90 110.79492 A 16 16 0 0 1 80 96 A 16 16 0 0 1 96 80 A 16 16 0 0 1 112 96 A 16 16 0 0 1 102 110.79492 L 102 145.57031 A 50 50 0 0 0 146 96 A 50 50 0 0 0 96 46 z "/>
  <path style="opacity:0.2;fill:#ffffff" d="M 96 46 A 50 50 0 0 0 46 96 A 50 50 0 0 0 46.037109 96.492188 A 50 50 0 0 1 96 47 A 50 50 0 0 1 145.98242 96.25 A 50 50 0 0 0 146 96 A 50 50 0 0 0 96 46 z M 111.96875 96.263672 A 16 16 0 0 1 102 110.79492 L 102 111.79492 A 16 16 0 0 0 112 97 A 16 16 0 0 0 111.96875 96.263672 z M 80.0625 96.519531 A 16 16 0 0 0 80 97 A 16 16 0 0 0 90 111.79492 L 90 110.79492 A 16 16 0 0 1 80.0625 96.519531 z "/>
</svg>
