<?xml version='1.0' encoding='utf-8'?>
<svg xmlns="http://www.w3.org/2000/svg" width="192" height="192" version="1" id="svg18">
  <defs>
    <filter style="color-interpolation-filters:sRGB" id="filter859" x="0.05" width="1.10" y="0.05" height="1.10">
      <feGaussianBlur stdDeviation="3.20"/>
    </filter>
    <filter style="color-interpolation-filters:sRGB" id="filter875" x="0.05" width="1.10" y="0.05" height="1.10">
      <feGaussianBlur stdDeviation="1.92"/>
    </filter>
    <filter style="color-interpolation-filters:sRGB" id="filter907" x="0.05" width="1.11" y="0.04" height="1.09">
      <feGaussianBlur stdDeviation="1.14"/>
    </filter>
  </defs>
  <rect style="filter:url(#filter859);opacity:0.20;fill:#000000" width="160" height="160" x="-180" y="-176" rx="80" ry="80" transform="matrix(0,-1,-1,0,0,0)"/>
  <rect transform="matrix(0,-1,-1,0,0,0)" ry="80" rx="80" y="-176" x="-176" height="160" width="160" style="fill:#604abf"/>
  <path style="opacity:0.10;fill:#ffffff" d="M 96 16 C 51.68 16 16.01 51.68 16.01 96 C 16.01 96.34 16.01 96.67 16.01 97 C 16.01 52.68 51.68 17 96 17 C 140.32 17 175.99 52.68 175.99 97 C 175.99 96.67 175.99 96.34 175.99 96 C 175.99 51.68 140.32 16 96 16 z "/>
  <path d="m 96,52 a 48,48 0 0 0 -48,48 48,48 0 0 0 48,48 48,48 0 0 0 48,-48 48,48 0 0 0 0.29,-4.81 A 30.59,30.59 0 0 1 120,65.41 30.59,30.59 0 0 1 120.71,58.91 48,48 0 0 0 96,52 Z" style="filter:url(#filter875);opacity:0.20"/>
  <path d="M 96,48 A 48,48 0 0 0 48,96 48,48 0 0 0 96,144 48,48 0 0 0 144,96 48,48 0 0 0 143.71,91.19 30.59,30.59 0 0 1 120,61.41 30.59,30.59 0 0 1 120.71,54.91 48,48 0 0 0 96,48 Z" style="fill:#ffffb4"/>
  <path style="opacity:0.15" d="M 90 64 A 14 14 0 0 0 76 78 A 14 14 0 0 0 90 92 A 14 14 0 0 0 104 78 A 14 14 0 0 0 90 64 z M 110 68 A 6 6 0 0 0 104 74 A 6 6 0 0 0 110 80 A 6 6 0 0 0 116 74 A 6 6 0 0 0 110 68 z M 120 76 A 8 8 0 0 0 112 84 A 8 8 0 0 0 120 92 A 8 8 0 0 0 128 84 A 8 8 0 0 0 127.60 81.51 A 30.59 30.59 0 0 1 124.57 77.45 A 8 8 0 0 0 120 76 z M 96 116 A 8 8 0 0 0 88 124 A 8 8 0 0 0 96 132 A 8 8 0 0 0 104 124 A 8 8 0 0 0 96 116 z "/>
  <path style="opacity:0.20;fill:#ffffff" d="M 96 48 A 48 48 0 0 0 48 96 A 48 48 0 0 0 48.02 96.42 A 48 48 0 0 1 96 49 A 48 48 0 0 1 120.55 55.83 A 30.59 30.59 0 0 1 120.71 54.91 A 48 48 0 0 0 96 48 z M 120.02 62.11 A 30.59 30.59 0 0 0 120 62.41 A 30.59 30.59 0 0 0 143.71 92.19 A 48 48 0 0 1 143.98 96.63 A 48 48 0 0 0 144 96 A 48 48 0 0 0 143.71 91.19 A 30.59 30.59 0 0 1 120.02 62.11 z "/>
  <path style="filter:url(#filter907);opacity:0.20" d="M 90 64 A 14 14 0 0 0 76 78 A 14 14 0 0 0 76.16 79.99 A 14 14 0 0 1 90 68 A 14 14 0 0 1 103.84 80.01 A 14 14 0 0 0 104 78 A 14 14 0 0 0 90 64 z M 110 68 A 6 6 0 0 0 104 74 A 6 6 0 0 0 104.35 76.00 A 6 6 0 0 1 110 72 A 6 6 0 0 1 115.65 76.00 A 6 6 0 0 0 116 74 A 6 6 0 0 0 110 68 z M 120 76 A 8 8 0 0 0 115.93 77.12 A 6 6 0 0 1 116 78 A 6 6 0 0 1 112.01 83.64 A 8 8 0 0 0 112 84 A 8 8 0 0 0 112.26 85.99 A 8 8 0 0 1 120 80 A 8 8 0 0 1 124.57 81.45 A 30.59 30.59 0 0 0 127.60 85.51 A 8 8 0 0 1 127.74 86.02 A 8 8 0 0 0 128 84 A 8 8 0 0 0 127.60 81.51 A 30.59 30.59 0 0 1 124.57 77.45 A 8 8 0 0 0 120 76 z M 96 116 A 8 8 0 0 0 88 124 A 8 8 0 0 0 88.26 125.99 A 8 8 0 0 1 96 120 A 8 8 0 0 1 103.74 126.01 A 8 8 0 0 0 104 124 A 8 8 0 0 0 96 116 z "/>
</svg>
