<?xml version='1.0' encoding='utf-8'?>
<svg xmlns="http://www.w3.org/2000/svg" width="192" height="192" version="1" id="svg28">
  <defs>
    <filter style="color-interpolation-filters:sRGB" id="filter6495" x="0.05" y="0.05" width="1.10" height="1.10">
      <feGaussianBlur stdDeviation="3.20"/>
    </filter>
    <filter style="color-interpolation-filters:sRGB" id="filter4861" x="0.07" y="0.08" width="1.15" height="1.15">
      <feGaussianBlur stdDeviation="2.95"/>
    </filter>
  </defs>
  <rect transform="matrix(0,-1,-1,0,0,0)" ry="11.93" rx="11.93" y="-175.50" x="-175.50" height="159" width="159" style="fill:#393939"/>
  <rect transform="matrix(0,-1,-1,0,0,0)" ry="12" rx="12" y="-176" x="-180" height="160" width="160" style="filter:url(#filter6495);opacity:0.20;fill:#000000"/>
  <path style="fill:#35daba" d="M 28 16 C 21.35 16 16 21.35 16 28 L 16 46.83 L 145.17 176 L 164 176 C 170.65 176 176 170.65 176 164 L 176 145.17 L 46.83 16 L 28 16 z "/>
  <path style="fill:#19c2de" d="M 16 46.83 L 16 108.49 L 83.51 176 L 145.17 176 L 16 46.83 z "/>
  <path style="fill:#3191fe" d="M 16 108.49 L 16 164 C 16 170.65 21.35 176 28 176 L 83.51 176 L 16 108.49 z "/>
  <path style="fill:#f6b92c" d="M 46.83 16 L 176 145.17 L 176 83.51 L 108.49 16 L 46.83 16 z "/>
  <path style="fill:#fb693a" d="M 108.49 16 L 176 83.51 L 176 28 C 176 21.35 170.65 16 164 16 L 108.49 16 z "/>
  <path style="opacity:0.10;fill:#ffffff" d="M 83.51 16 L 16 83.51 L 16 145.17 L 145.17 16 L 83.51 16 z "/>
  <path style="opacity:0.25;fill:#ffffff" d="M 28 16 C 21.35 16 16 21.35 16 28 L 16 83.51 L 83.51 16 L 28 16 z "/>
  <path style="opacity:0.07;fill:#000000" d="M 176 46.83 L 46.83 176 L 108.49 176 L 176 108.49 L 176 46.83 z "/>
  <path style="opacity:0.15;fill:#000000" d="M 176 108.49 L 108.49 176 L 164 176 C 170.65 176 176 170.65 176 164 L 176 108.49 z "/>
  <path style="opacity:0.20;fill:#ffffff" d="m 28,16 c -6.65,0 -12,5.35 -12,12 v 1 c 0,-6.65 5.35,-12 12,-12 h 136 c 6.65,0 12,5.35 12,12 v -1 c 0,-6.65 -5.35,-12 -12,-12 z"/>
  <path style="filter:url(#filter4861);opacity:0.20;fill:#000000" d="m 83,51 v 94 H 93 V 51 Z M 66,65 v 66 H 76 V 65 Z m 34,6 v 54 h 10 V 71 Z m 34,5 v 44 h 10 V 76 Z m -85,3 v 38 H 59 V 79 Z m 68,4 v 30 h 10 V 83 Z"/>
  <path style="fill:#ffffff" d="M 83 49 L 83 143 L 93 143 L 93 49 L 83 49 z M 66 63 L 66 129 L 76 129 L 76 63 L 66 63 z M 100 69 L 100 123 L 110 123 L 110 69 L 100 69 z M 134 74 L 134 118 L 144 118 L 144 74 L 134 74 z M 49 77 L 49 115 L 59 115 L 59 77 L 49 77 z M 117 81 L 117 111 L 127 111 L 127 81 L 117 81 z "/>
</svg>
