<?xml version='1.0' encoding='utf-8'?>
<svg xmlns="http://www.w3.org/2000/svg" width="192" height="192" version="1" id="svg14">
  <defs>
    <filter style="color-interpolation-filters:sRGB" id="filter850" x="0.05" width="1.10" y="0.05" height="1.10">
      <feGaussianBlur stdDeviation="3.20"/>
    </filter>
    <filter style="color-interpolation-filters:sRGB" id="filter882" x="0.05" width="1.09" y="0.05" height="1.10">
      <feGaussianBlur stdDeviation="2.32"/>
    </filter>
  </defs>
  <rect style="filter:url(#filter850);opacity:0.20;fill:#000000" width="160" height="160" x="-180" y="-176" rx="8" ry="8" transform="matrix(0,-1,-1,0,0,0)"/>
  <rect transform="matrix(0,-1,-1,0,0,0)" ry="8" rx="8" y="-176" x="-176" height="160" width="160" style="fill:#b6b6b6"/>
  <path style="opacity:0.20;fill:#ffffff" d="M 24 16 C 19.57 16 16 19.57 16 24 L 16 25 C 16 20.57 19.57 17 24 17 L 168 17 C 172.43 17 176 20.57 176 25 L 176 24 C 176 19.57 172.43 16 168 16 L 24 16 z "/>
  <path d="m 96.00,44.00 c -6.16,0.01 -10.74,0.14 -11.18,0.31 -1.53,0.58 -1.14,9.13 1.58,35.20 0.45,4.33 0.67,8.10 0.49,8.39 0.52,0.83 -1.19,0.65 -5.73,-1.49 -7.83,-3.69 -12.37,-5.30 -19.52,-8.05 -10.70,-4.11 -16.74,-6.10 -17.55,-5.79 0.41,0.15 -2.06,4.37 -3.72,9.48 -1.65,5.06 -3.38,10.31 -3.86,11.65 -1.15,3.25 0.76,3.58 6.21,5.23 3.04,0.72 8.52,2.02 12.18,2.89 3.66,0.87 9.58,2.16 13.15,2.87 10.57,2.11 11.47,2.38 11.47,3.39 0,0.27 -2.07,2.63 -4.60,5.26 -7.37,7.66 -21.43,23.78 -23.68,27.16 -1.02,1.52 -1.49,1.07 9.88,9.12 5.63,3.98 9.59,6.45 10.22,6.37 1.72,0.25 10.63,-13.97 20.88,-32.18 1.68,-2.98 2.62,-4.14 3.36,-4.14 0.12,0 0.28,0.13 0.44,0.23 0.15,0.09 0.32,0.23 0.44,0.23 0.74,0 1.68,1.16 3.36,4.14 10.25,18.21 19.16,31.93 20.88,32.18 0.62,0.09 4.59,-2.38 10.22,-6.37 11.38,-8.05 10.90,-7.59 9.88,-9.12 -2.25,-3.38 -16.31,-19.50 -23.68,-27.16 -2.53,-2.63 -4.60,-5.00 -4.60,-5.26 0,-1.01 0.90,-1.29 11.47,-3.39 3.57,0.71 9.48,-2.00 13.15,-2.87 3.66,0.87 9.15,-2.17 12.18,-2.89 6.97,-1.65 7.35,-1.98 6.21,-5.23 0.48,-1.35 -2.21,-6.59 -3.86,-11.65 -1.66,-5.12 -3.32,-9.33 -3.72,-9.48 0.82,0.31 -6.86,1.69 -17.55,5.79 -7.15,2.75 -11.70,4.36 -19.52,8.05 -4.54,2.14 -5.21,2.31 -5.73,1.49 0.18,0.29 0.04,-4.06 0.49,-8.39 2.72,-26.07 3.11,-34.63 1.58,-35.20 0.45,0.17 -5.03,0.31 -11.18,0.31 z" style="filter:url(#filter882);opacity:0.10"/>
  <path d="m 96.00,40 c -6.16,0.01 -10.74,0.14 -11.18,0.31 -1.53,0.58 -1.14,9.13 1.58,35.20 0.45,4.33 0.67,8.10 0.49,8.39 0.52,0.83 -1.19,0.65 -5.73,-1.49 -7.83,-3.69 -12.37,-5.30 -19.52,-8.05 -10.70,-4.11 -16.74,-6.10 -17.55,-5.79 0.41,0.15 -2.06,4.37 -3.72,9.48 -1.65,5.06 -3.38,10.31 -3.86,11.65 -1.15,3.25 0.76,3.58 6.21,5.23 3.04,0.72 8.52,2.02 12.18,2.89 3.66,0.87 9.58,2.16 13.15,2.87 10.57,2.11 11.47,2.38 11.47,3.39 0,0.27 -2.07,2.63 -4.60,5.26 -7.37,7.66 -21.43,23.78 -23.68,27.16 -1.02,1.52 -1.49,1.07 9.88,9.12 5.63,3.98 9.59,6.45 10.22,6.37 1.72,0.25 10.63,-13.97 20.88,-32.18 1.68,-2.98 2.62,-4.14 3.36,-4.14 0.12,0 0.28,0.13 0.44,0.23 0.15,0.09 0.32,0.23 0.44,0.23 0.74,0 1.68,1.16 3.36,4.14 10.25,18.21 19.16,31.93 20.88,32.18 0.62,0.09 4.59,-2.38 10.22,-6.37 11.38,-8.05 10.90,-7.59 9.88,-9.12 -2.25,-3.38 -16.31,-19.50 -23.68,-27.16 -2.53,-2.63 -4.60,-5.00 -4.60,-5.26 0,-1.01 0.90,-1.29 11.47,-3.39 3.57,0.71 9.48,-2.00 13.15,-2.87 3.66,0.87 9.15,-2.17 12.18,-2.89 6.97,-1.65 7.35,-1.98 6.21,-5.23 0.48,-1.35 -2.21,-6.59 -3.86,-11.65 -1.66,-5.12 -3.32,-9.33 -3.72,-9.48 0.82,0.31 -6.86,1.69 -17.55,5.79 -7.15,2.75 -11.70,4.36 -19.52,8.05 -4.54,2.14 -5.21,2.31 -5.73,1.49 0.18,0.29 0.04,-4.06 0.49,-8.39 2.72,-26.07 3.11,-34.63 1.58,-35.20 C 106.74,40.14 102.16,40.01 96.00,40 Z" style="fill:#3f3f3f"/>
</svg>
