<?xml version='1.0' encoding='utf-8'?>
<svg xmlns="http://www.w3.org/2000/svg" width="192" height="192" version="1" id="svg14">
  <defs>
    <filter style="color-interpolation-filters:sRGB" id="filter850" x="0.05" width="1.10" y="0.05" height="1.10">
      <feGaussianBlur stdDeviation="3.20"/>
    </filter>
    <filter style="color-interpolation-filters:sRGB" id="filter4802" x="0.11" y="0.11" width="1.22" height="1.22">
      <feGaussianBlur stdDeviation="5.49"/>
    </filter>
  </defs>
  <circle style="filter:url(#filter850);opacity:0.20;fill:#000000" cx="96" cy="100" r="80"/>
  <circle r="80" cy="96" cx="96" style="fill:#ff3b41"/>
  <path style="filter:url(#filter4802);opacity:0.20;fill:#000000" d="m 96,37 c -3.31,0 -6,2.69 -6,6 0,3.31 4.27,12 6,12 1.73,0 6,-8.69 6,-12 0,-3.31 -2.69,-6 -6,-6 z M 57.11,53.11 c -1.54,0 -3.07,0.59 -4.24,1.76 -2.34,2.34 -2.34,6.14 0,8.48 2.34,2.34 11.50,5.47 12.73,4.24 1.22,-1.22 -1.90,-10.38 -4.24,-12.73 -1.17,-1.17 -2.71,-1.76 -4.24,-1.76 z m 77.78,0 c -1.54,0 -3.07,0.59 -4.24,1.76 -2.34,2.34 -5.47,11.50 -4.24,12.73 1.22,1.22 10.38,-1.90 12.73,-4.24 2.34,-2.34 2.34,-6.14 0,-8.48 -1.17,-1.17 -2.71,-1.76 -4.24,-1.76 z M 120.19,78.33 94.37,103.24 81.45,90.87 75.91,96.65 94.39,114.33 125.74,84.09 Z M 41,92 c -3.31,0 -6,2.69 -6,6 0,3.31 2.69,6 6,6 3.31,0 12,-4.27 12,-6 0,-1.73 -8.69,-6 -12,-6 z m 110,0 c -3.31,0 -12,4.27 -12,6 0,1.73 8.69,6 12,6 3.31,0 6,-2.69 6,-6 0,-3.31 -2.69,-6 -6,-6 z m -86.21,36.14 c -2.61,0.19 -9.88,2.46 -11.93,4.51 -2.34,2.34 -2.34,6.14 0,8.48 2.34,2.34 6.14,2.34 8.48,0 2.34,-2.34 5.47,-11.50 4.24,-12.73 0.15,0.15 0.43,0.24 0.80,0.27 z m 62.41,0 c 0.37,0.03 0.65,0.11 0.80,0.27 -1.22,1.22 1.90,10.38 4.24,12.73 2.34,2.34 6.14,2.34 8.48,0 2.34,-2.34 2.34,-6.14 0,-8.48 -2.05,-2.05 -9.32,-4.70 -11.93,-4.51 z M 96,141 c -1.73,0 -6,8.69 -6,12 0,3.31 2.69,6 6,6 3.31,0 6,-2.69 6,-6 0,-3.31 -4.27,-12 -6,-12 z"/>
  <path style="fill:#38adfa" d="m 688.81,257.00 c 0.33,0.33 -1.19,0.37 -1.92,0.08 0.80,0.32 0.56,0.56 0.60,0.60 1.05,0.04 1.64,0.19 1.31,0.53 z"/>
  <path style="opacity:0.20;fill:#ffffff" d="M 96 16 A 80 80 0 0 0 16 96 A 80 80 0 0 0 16.02 96.47 A 80 80 0 0 1 96 17 A 80 80 0 0 1 175.97 96.51 A 80 80 0 0 0 176 96 A 80 80 0 0 0 96 16 z "/>
  <path style="fill:#ffffff" d="M 96 35 C 92.69 35 90 37.69 90 41 C 90 44.31 94.27 53 96 53 C 97.73 53 102 44.31 102 41 C 102 37.69 99.31 35 96 35 z M 57.11 51.11 C 55.57 51.11 54.04 51.70 52.87 52.87 C 50.52 55.21 50.52 59.01 52.87 61.35 C 55.21 63.69 64.37 66.82 65.59 65.59 C 66.82 64.37 63.69 55.21 61.35 52.87 C 60.18 51.70 58.64 51.11 57.11 51.11 z M 134.89 51.11 C 133.36 51.11 131.82 51.70 130.65 52.87 C 128.31 55.21 125.18 64.37 126.41 65.59 C 127.63 66.82 136.79 63.69 139.13 61.35 C 141.48 59.01 141.48 55.21 139.13 52.87 C 137.96 51.70 136.43 51.11 134.89 51.11 z M 120.19 76.33 L 94.37 101.24 L 81.45 88.87 L 75.91 94.65 L 94.39 112.33 L 125.74 82.09 L 120.19 76.33 z M 41 90 C 37.69 90 35 92.69 35 96 C 35 99.31 37.69 102 41 102 C 44.31 102 53 97.73 53 96 C 53 94.27 44.31 90 41 90 z M 151 90 C 147.69 90 139 94.27 139 96 C 139 97.73 147.69 102 151 102 C 154.31 102 157 99.31 157 96 C 157 92.69 154.31 90 151 90 z M 64.79 126.14 C 62.19 125.95 54.92 128.60 52.87 130.65 C 50.52 132.99 50.52 136.79 52.87 139.13 C 55.21 141.48 59.01 141.48 61.35 139.13 C 63.69 136.79 66.82 127.63 65.59 126.41 C 65.44 126.25 65.17 126.17 64.79 126.14 z M 127.21 126.14 C 126.83 126.17 126.56 126.25 126.41 126.41 C 125.18 127.63 128.31 136.79 130.65 139.13 C 132.99 141.48 136.79 141.48 139.13 139.13 C 141.48 136.79 141.48 132.99 139.13 130.65 C 137.08 128.60 129.81 125.95 127.21 126.14 z M 96 139 C 94.27 139 90 147.69 90 151 C 90 154.31 92.69 157 96 157 C 99.31 157 102 154.31 102 151 C 102 147.69 97.73 139 96 139 z "/>
</svg>
