<svg xmlns="http://www.w3.org/2000/svg" id="svg22" width="192" height="192" version="1"><defs><filter style="color-interpolation-filters:sRGB" id="filter858" width="1.1" height="1.09" x=".05" y=".05"><feGaussianBlur stdDeviation="3.04"/></filter><filter style="color-interpolation-filters:sRGB" id="filter879" width="1.11" height="1.09" x=".05" y=".04"><feGaussianBlur stdDeviation="1.28"/></filter></defs><path style="filter:url(#filter858);opacity:.2;fill:#000" d="m 67.56,178.74 c -1.47,0.73 -3.75,-2.93 -5.07,-4.88 -1.32,-1.95 -3.52,-4.81 -4.88,-6.35 -2.36,-2.68 -2.70,-3.60 -7.41,-3.52 -2.81,0.05 -7.95,0.99 -11.92,2.17 -7.88,2.35 -12.26,2.64 -13.68,0.91 -1.38,-1.69 0.46,-4.86 3.67,-15.00 7.14,-17.55 7.73,-19.51 7.73,-54.49 0,-29.57 0.84,-34.09 6.76,-45.81 2.46,-4.86 4.82,-7.96 10.26,-13.43 10.47,-10.53 18.83,-14.90 33.46,-17.47 29.86,-5.26 60.75,14.05 68.02,42.83 1.36,5.38 1.54,8.81 1.55,29.46 0.02,33.89 0.98,40.53 8.62,59.69 2.84,7.11 3.47,9.90 3.30,12.04 0.23,2.78 0.42,2.98 -3.05,3.21 -1.55,0.13 -6.94,0.85 -11.98,-2.17 -5.04,-1.33 -10.02,-1.93 -11.06,-1.93 -3.57,0 -7.15,2.49 -9.35,5.98 -3.23,5.13 -6.51,8.82 -9.35,9.77 -2.94,0.98 -6.06,0.90 -14.93,-4.47 -10.10,-4.06 -11.70,-4.19 -19.49,-1.58 -3.76,1.26 -8.84,3.84 -11.30,4.75 -5.35,1.99 -6.44,2.02 -9.90,0.29 z"/><path d="m 67.56,174.74 c -1.47,0.73 -3.75,-2.93 -5.07,-4.88 -1.32,-1.95 -3.52,-4.81 -4.88,-6.35 -2.36,-2.68 -2.70,-3.60 -7.41,-3.52 -2.81,0.05 -7.95,0.99 -11.92,2.17 -7.88,2.35 -12.26,2.64 -13.68,0.91 -1.38,-1.69 0.46,-4.86 3.67,-15.00 7.14,-17.55 7.73,-19.51 7.73,-54.49 0,-29.57 0.84,-34.09 6.76,-45.81 2.46,-4.86 4.82,-7.96 10.26,-13.43 10.47,-10.53 18.83,-14.90 33.46,-17.47 29.86,-5.26 60.75,14.05 68.02,42.83 1.36,5.38 1.54,8.81 1.55,29.46 0.02,33.89 0.98,40.53 8.62,59.69 2.84,7.11 3.47,9.90 3.30,12.04 0.23,2.78 0.42,2.98 -3.05,3.21 -1.55,0.13 -6.94,0.85 -11.98,-2.17 -5.04,-1.33 -10.02,-1.93 -11.06,-1.93 -3.57,0 -7.15,2.49 -9.35,5.98 -3.23,5.13 -6.51,8.82 -9.35,9.77 -2.94,0.98 -6.06,0.90 -14.93,-4.47 -10.10,-4.06 -11.70,-4.19 -19.49,-1.58 -3.76,1.26 -8.84,3.84 -11.30,4.75 -5.35,1.99 -6.44,2.02 -9.90,0.29 z" style="fill:#00aef0"/><path style="filter:url(#filter879);opacity:.2" d="M 80.06 52.00 C 71.93 52.20 68.06 62.41 68 69.65 C 68 76.32 69.50 80.46 73.36 84.47 C 77.26 88.51 80.52 89.03 85.02 86.30 C 94.33 80.66 94.33 58.65 85.02 53.00 C 83.22 52.27 81.57 51.97 80.06 52.00 z M 111.94 52.00 C 110.43 51.97 108.78 52.27 106.98 53.00 C 97.67 58.65 97.67 80.66 106.98 86.30 C 111.48 89.03 114.74 88.51 118.64 84.47 C 122.50 80.46 124 76.32 124 69.65 C 123.94 62.41 120.07 52.20 111.94 52.00 z M 123.64 100.01 C 122.99 100.14 121.51 101.11 120.09 102.38 C 113.40 108.35 105.58 112.01 96.29 112 C 86.74 111.99 80.92 109.21 73.00 103.13 C 70.55 101.25 68.35 99.91 68.11 100.14 C 67.14 101.10 72.66 110.80 76.38 114.70 C 83.38 122.03 88.40 124.28 97.00 123.97 C 101.22 123.82 103.78 123.27 106.59 121.92 C 112.18 119.24 118.44 112.67 121.82 105.97 C 123.51 102.63 124.35 100.17 123.86 100.01 C 123.81 99.99 123.73 100.00 123.64 100.01 z"/><path d="m 106.59,117.92 c 5.59,-2.69 11.85,-9.25 15.23,-15.96 1.68,-3.34 2.52,-5.79 2.04,-5.95 0.45,0.15 -2.15,0.92 -3.78,2.37 C 113.41,104.35 105.58,108.01 96.29,108 86.74,107.99 80.92,105.21 73.00,99.13 70.55,97.25 68.35,95.91 68.11,96.14 c 0.97,0.96 4.55,10.66 8.27,14.56 7.00,7.33 12.01,9.58 20.62,9.27 4.21,0.15 6.78,0.70 9.59,-2.05 z" style="fill:#fff"/><path d="m 85.02,82.30 c 9.30,-5.64 9.30,-27.65 0,-33.30 C 73.50,44.32 68.08,57.07 68,65.65 c 0,6.66 1.50,10.81 5.36,14.81 3.90,4.05 7.17,4.56 11.67,1.83 z" style="fill:#fff"/><path d="m 106.98,82.30 c -9.30,-5.64 -9.30,-27.65 0,-33.30 11.52,-4.68 16.95,8.06 17.02,16.65 0,6.66 -1.50,10.81 -5.36,14.81 -3.90,4.05 -7.17,4.56 -11.67,1.83 z" style="fill:#fff"/><path style="opacity:.2;fill:#fff" d="M 97.68 16.01 C 93.96 15.93 90.21 16.21 86.48 16.87 C 71.85 19.44 63.49 23.81 53.02 34.34 C 47.58 39.81 45.21 42.90 42.76 47.76 C 36.84 59.48 36 64.00 36 93.57 C 36 128.56 35.41 130.51 28.27 148.06 C 25.08 155.90 23.81 159.57 24.03 161.61 C 24.22 159.42 25.54 155.77 28.27 149.06 C 35.41 131.51 36 129.56 36 94.57 C 36 65.00 36.84 60.48 42.76 48.76 C 45.21 43.90 47.58 40.81 53.02 35.34 C 63.49 24.81 71.85 20.44 86.48 17.87 C 116.34 12.60 147.23 31.92 154.50 60.70 C 155.86 66.08 156.04 69.51 156.05 90.16 C 156.07 124.05 157.03 130.68 164.68 149.85 C 167.05 155.79 167.87 158.69 167.98 160.74 C 168.11 158.62 167.46 155.81 164.68 148.85 C 157.03 129.68 156.07 123.05 156.05 89.16 C 156.04 68.51 155.86 65.08 154.50 59.70 C 148.14 34.52 123.69 16.58 97.68 16.01 z"/></svg>