<?xml version='1.0' encoding='utf-8'?>
<svg xmlns="http://www.w3.org/2000/svg" width="192" height="192" version="1.1" id="svg32">
  <defs>
    <filter style="color-interpolation-filters:sRGB" id="filter1234" x="0.04" y="0.05" width="1.09" height="1.11">
      <feGaussianBlur stdDeviation="3.04"/>
    </filter>
    <filter style="color-interpolation-filters:sRGB" id="filter1241" x="0.06" y="0.59" width="1.12" height="2.19">
      <feGaussianBlur stdDeviation="0.99"/>
    </filter>
    <filter style="color-interpolation-filters:sRGB" id="filter1480" x="0.06" y="0.10" width="1.12" height="1.20">
      <feGaussianBlur stdDeviation="3.44"/>
    </filter>
  </defs>
  <path style="filter:url(#filter1234);opacity:0.20;fill:#000000" d="M 25.11,32 C 17.85,32 12,38.32 12,46.16 v 107.69 C 12,161.68 17.85,168 25.11,168 H 166.89 C 174.15,168 180,161.68 180,153.84 V 46.16 C 180,38.32 174.15,32 166.89,32 Z M 60,88 A 12,12 0 0 1 72,100 12,12 0 0 1 60,112 12,12 0 0 1 48,100 12,12 0 0 1 60,88 Z m 72,0 a 12,12 0 0 1 12,12 12,12 0 0 1 -12,12 12,12 0 0 1 -12,-12 12,12 0 0 1 12,-12 z"/>
  <path style="fill:#3f3f3f" d="M 25.11,28 C 17.85,28 12,34.32 12,42.16 V 149.84 C 12,157.68 17.85,164 25.11,164 H 166.89 C 174.15,164 180,157.68 180,149.84 V 42.16 C 180,34.32 174.15,28 166.89,28 Z M 60,78 A 18,18 0 0 1 78,96 18,18 0 0 1 60,114 18,18 0 0 1 42,96 18,18 0 0 1 60,78 Z m 72,0 a 18,18 0 0 1 18,18 18,18 0 0 1 -18,18 18,18 0 0 1 -18,-18 18,18 0 0 1 18,-18 z"/>
  <path style="filter:url(#filter1480);opacity:0.20;fill:#000000" d="M 34.82,46 C 31.04,46 28,49.62 28,54.12 V 82 122.35 C 28,126.59 31.04,130 34.82,130 H 157.18 C 160.96,130 164,126.59 164,122.35 V 82 54.12 C 164,49.62 160.96,46 157.18,46 Z M 59.90,78.13 A 20.46,20.46 0 0 1 80.36,98.59 20.46,20.46 0 0 1 59.90,119.05 20.46,20.46 0 0 1 39.44,98.59 20.46,20.46 0 0 1 59.90,78.13 Z m 71.95,0 a 20.46,20.46 0 0 1 20.46,20.46 20.46,20.46 0 0 1 -20.46,20.46 20.46,20.46 0 0 1 -20.46,-20.46 20.46,20.46 0 0 1 20.46,-20.46 z"/>
  <path style="fill:#4f4f4f" d="M 28.00,164 44.00,136 H 148.00 l 16,28 z"/>
  <path style="fill:#1eb5c5" d="M 34.82,44 C 31.04,44 28,47.62 28,52.12 V 80 120.35 C 28,124.59 31.04,128 34.82,128 H 157.18 C 160.96,128 164,124.59 164,120.35 V 80 52.12 C 164,47.62 160.96,44 157.18,44 Z M 60,82 A 14,14 0 0 1 74,96 14,14 0 0 1 60,110 14,14 0 0 1 46,96 14,14 0 0 1 60,82 Z m 72,0 a 14,14 0 0 1 14,14 14,14 0 0 1 -14,14 14,14 0 0 1 -14,-14 14,14 0 0 1 14,-14 z"/>
  <circle style="opacity:0.40" cx="60" cy="148" r="8"/>
  <circle style="opacity:0.40" cx="132" cy="148" r="8"/>
  <rect style="fill:#cccccc" width="42" height="18" x="75" y="87"/>
  <path style="fill:#874f29" d="m 76.00,88.00 v 16 H 90.60 A 24,24 0 0 0 92.00,96 24,24 0 0 0 90.60,88.00 Z"/>
  <rect style="filter:url(#filter1241);opacity:0.20" width="40" height="4" x="76" y="86"/>
  <path style="fill:#3f3f3f" d="M 59.27 80 C 50.81 80 44 87.13 44 95.98 L 44 96.02 C 44 104.87 50.81 112 59.27 112 L 132.73 112 C 141.19 112 148 104.87 148 96.02 L 148 95.98 C 148 87.13 141.19 80 132.73 80 L 59.27 80 z M 60 84 A 12 12 0 0 1 72 96 A 12 12 0 0 1 60 108 A 12 12 0 0 1 48 96 A 12 12 0 0 1 60 84 z M 132 84 A 12 12 0 0 1 144 96 A 12 12 0 0 1 132 108 A 12 12 0 0 1 120 96 A 12 12 0 0 1 132 84 z M 76 88 L 116 88 L 116 104 L 76 104 L 76 88 z "/>
  <path style="opacity:0.20;fill:#ffffff" d="M 34.82 44 C 31.04 44 28 47.62 28 52.12 L 28 53.12 C 28 48.62 31.04 45 34.82 45 L 157.18 45 C 160.96 45 164 48.62 164 53.12 L 164 52.12 C 164 47.62 160.96 44 157.18 44 L 34.82 44 z "/>
  <path style="opacity:0.10;fill:#ffffff" d="M 25.11 28 C 17.85 28 12 34.32 12 42.16 L 12 43.16 C 12 35.32 17.85 29 25.11 29 L 166.89 29 C 174.15 29 180 35.32 180 43.16 L 180 42.16 C 180 34.32 174.15 28 166.89 28 L 25.11 28 z "/>
  <path style="opacity:0.10;fill:#ffffff" d="M 44 136 L 28 164 L 28.57 164 L 44 137 L 148 137 L 163.43 164 L 164 164 L 148 136 L 44 136 z "/>
</svg>
