<?xml version='1.0' encoding='utf-8'?>
<svg xmlns="http://www.w3.org/2000/svg" width="192" height="192" version="1" id="svg28">
  <defs>
    <filter style="color-interpolation-filters:sRGB" id="filter9670" x="0.06" y="0.04" width="1.11" height="1.08">
      <feGaussianBlur stdDeviation="2.86"/>
    </filter>
    <filter style="color-interpolation-filters:sRGB" id="filter9715" x="0.07" y="0.08" width="1.14" height="1.17">
      <feGaussianBlur stdDeviation="4.12"/>
    </filter>
    <filter style="color-interpolation-filters:sRGB" id="filter9757" x="0.16" y="0.05" width="1.31" height="1.10">
      <feGaussianBlur stdDeviation="1.44"/>
    </filter>
  </defs>
  <rect transform="matrix(0,-1,-1,0,0,0)" ry="12" y="-179" x="-165" height="166" width="120" style="filter:url(#filter9670);opacity:0.20;fill:#000000"/>
  <rect transform="matrix(0,-1,-1,0,0,0)" ry="12" y="-179" x="-161" height="166" width="120" style="fill:#ee317d"/>
  <path style="filter:url(#filter9715);opacity:0.20;fill:#000000" d="M 34.41,32 C 28.64,32 24,36.64 24,42.41 V 141.59 C 24,147.36 28.64,152 34.41,152 H 95 96 157.59 C 163.36,152 168,147.36 168,141.59 V 42.41 C 168,36.64 163.36,32 157.59,32 H 96 95 Z"/>
  <path style="fill:#efefef" d="m 95,30 v 120 h 62.59 C 163.36,150 168,145.36 168,139.59 V 40.41 C 168,34.64 163.36,30 157.59,30 Z"/>
  <path style="fill:#cccccc" d="m 108.20,52 v 4 h 52 v -4 z m 0,12 v 4 h 52 v -4 z m 0,12 v 4 h 52 v -4 z m 0,12 v 4 h 52 v -4 z m 0,12 v 4 h 52 v -4 z m 0,12 v 4 h 52 v -4 z m 0,12 v 4 h 52 v -4 z"/>
  <path style="fill:#ffffff" d="M 34.41 30 C 28.64 30 24 34.64 24 40.41 L 24 139.59 C 24 145.36 28.64 150 34.41 150 L 96 150 L 96 30 L 34.41 30 z "/>
  <path style="fill:#cccccc" d="M 34 52 L 34 56 L 86 56 L 86 52 L 34 52 z M 34 64 L 34 68 L 86 68 L 86 64 L 34 64 z M 34 76 L 34 80 L 86 80 L 86 76 L 34 76 z M 34 88 L 34 92 L 86 92 L 86 88 L 34 88 z M 34 100 L 34 104 L 86 104 L 86 100 L 34 100 z M 34 112 L 34 116 L 86 116 L 86 112 L 34 112 z M 34 124 L 34 128 L 86 128 L 86 124 L 34 124 z "/>
  <path style="opacity:0.20;fill:#ffffff" d="M 95 30 L 95 31 L 157.59 31 C 163.36 31 168 35.64 168 41.41 L 168 40.41 C 168 34.64 163.36 30 157.59 30 L 95 30 z "/>
  <path style="filter:url(#filter9757);opacity:0.20;fill:#000000" d="M 111.34,29 C 109.49,29 108,30.49 108,32.34 V 77 95.66 99 l 11,-12 11,12 V 95.66 77 32.34 C 130,30.49 128.51,29 126.66,29 Z"/>
  <path style="fill:#f44336" d="M 111.34,27 C 109.49,27 108,28.49 108,30.34 V 75 93.66 97 l 11,-12 11,12 V 93.66 75 30.34 C 130,28.49 128.51,27 126.66,27 Z"/>
  <path style="opacity:0.20;fill:#ffffff" d="M 111.34 27 C 109.49 27 108 28.49 108 30.34 L 108 31.34 C 108 29.49 109.49 28 111.34 28 L 126.66 28 C 128.51 28 130 29.49 130 31.34 L 130 30.34 C 130 28.49 128.51 27 126.66 27 L 111.34 27 z "/>
</svg>
