<?xml version='1.0' encoding='utf-8'?>
<svg xmlns="http://www.w3.org/2000/svg" width="192" height="192" version="1" id="svg18">
  <defs>
    <filter style="color-interpolation-filters:sRGB" id="filter859" x="0.05" width="1.10" y="0.05" height="1.10">
      <feGaussianBlur stdDeviation="3.20"/>
    </filter>
    <filter style="color-interpolation-filters:sRGB" id="filter875" x="0.05" width="1.11" y="0.04" height="1.09">
      <feGaussianBlur stdDeviation="0.86"/>
    </filter>
  </defs>
  <rect style="filter:url(#filter859);opacity:0.20;fill:#000000" width="160" height="160" x="-180" y="-176" rx="8" ry="8" transform="matrix(0,-1,-1,0,0,0)"/>
  <rect transform="matrix(0,-1,-1,0,0,0)" ry="8" rx="8" y="-176" x="-176" height="160" width="160" style="fill:#e84c2b"/>
  <path style="opacity:0.10;fill:#ffffff" d="M 24 16 C 19.57 16 16 19.57 16 24 L 16 25 C 16 20.57 19.57 17 24 17 L 168 17 C 172.43 17 176 20.57 176 25 L 176 24 C 176 19.57 172.43 16 168 16 L 24 16 z "/>
  <g transform="matrix(2,0,0,2,48,60)" style="filter:url(#filter875);opacity:0.20">
    <path d="m 42,-6.00 -28,5 V 26.27 C 13.35,26.09 12.68,26.00 12,26 c -4.42,0 -8,3.58 -8,8 0,4.42 3.58,8 8,8 4.03,0.00 7.43,-3.00 7.93,-7 0,0 0.07,0.73 0.07,-1 V 3.93 l 16,-2.86 v 20.19 c 0.65,0.17 -1.32,0.26 -2,0.27 -4.42,0 -8,3.58 -8,8 0,4.42 3.58,8 8,8 4.03,0.00 7.43,-3.00 7.93,-7 l 0.07,-1 V -6.00 Z"/>
  </g>
  <g transform="matrix(2,0,0,2,48,56)" style="fill:#ffffff">
    <path d="m 42,-6.00 -28,5 V 26.27 C 13.35,26.09 12.68,26.00 12,26 c -4.42,0 -8,3.58 -8,8 0,4.42 3.58,8 8,8 4.03,0.00 7.43,-3.00 7.93,-7 0,0 0.07,0.73 0.07,-1 V 3.93 l 16,-2.86 v 20.19 c 0.65,0.17 -1.32,0.26 -2,0.27 -4.42,0 -8,3.58 -8,8 0,4.42 3.58,8 8,8 4.03,0.00 7.43,-3.00 7.93,-7 l 0.07,-1 V -6.00 Z" style="fill:#ffffff"/>
  </g>
</svg>
