<?xml version='1.0' encoding='utf-8'?>
<svg xmlns="http://www.w3.org/2000/svg" width="192" height="192" version="1" id="svg12">
  <defs>
    <filter style="color-interpolation-filters:sRGB" id="filter21408" x="-0.05690243" y="-0.097926357" width="1.1138049" height="1.1958527">
      <feGaussianBlur stdDeviation="3.5090016"/>
    </filter>
    <filter style="color-interpolation-filters:sRGB" id="filter21450" x="-0.072853071" y="-0.077318205" width="1.1457061" height="1.1546364">
      <feGaussianBlur stdDeviation="2.770598"/>
    </filter>
    <filter style="color-interpolation-filters:sRGB" id="filter21883" x="-0.048" y="-0.048" width="1.096" height="1.096">
      <feGaussianBlur stdDeviation="3"/>
    </filter>
  </defs>
  <rect style="filter:url(#filter21883);opacity:0.2;fill:#000000" width="150" height="150" x="21" y="25" rx="28.125" ry="28.125"/>
  <rect style="fill:#e4e4e4" width="150" height="150" x="21" y="21" rx="28.125" ry="28.125"/>
  <path style="filter:url(#filter21450);opacity:0.2;fill:#000000;color:#000000;mix-blend-mode:normal" d="m 55,55.00159 c -6.757144,-2.66e-4 -13.006112,3.58789 -16.412109,9.423828 l -28,48.000002 c -5.2880549,9.06411 -2.2265567,20.69885 6.83789,25.98633 2.053315,1.18195 4.304453,1.96656 6.635772,2.31937 1.496125,0.24852 2.582035,0.26852 4.18904,0.26852 h 49.508399 c 2.081267,0.14859 3.020679,-5.5663 4.88815,-5.59685 3.03907,-0.1161 3.740677,1.49222 6.392491,-0.0149 9.064451,-5.28748 13.174357,-13.74617 7.886311,-22.81028 L 69.348707,67.704464 C 65.94271,61.868526 61.757144,55.001324 55,55.00159 Z"/>
  <path style="fill:#1066c0;color:#000000" d="m 55,53.000002 c -6.757144,-2.66e-4 -13.006112,3.585955 -16.412109,9.418745 l -28,47.974113 c -5.2880549,9.05922 -2.2265567,20.68768 6.83789,25.97231 2.053315,1.18131 4.304453,1.9655 6.635772,2.31812 1.496125,0.24839 2.582035,0.26838 4.18904,0.26838 h 49.508399 c 2.081267,0.14851 4.285234,-0.0898 6.152705,-0.12029 3.03907,-0.11604 2.476122,-3.98213 5.127936,-5.48842 9.064451,-5.28463 13.174357,-13.73875 7.886311,-22.79797 L 69.348707,65.696025 C 65.94271,59.863234 61.757144,52.999736 55,53.000002 Z"/>
  <path style="filter:url(#filter21408);opacity:0.2;fill:#000000;color:#000000" d="m 55.212891,55.002978 a 19,19 0 0 0 -9.527344,2.4375 19,19 0 0 0 -7.246094,25.875 l 27,47.999992 a 19.0019,19.0019 0 0 0 32.972656,0.25977 L 110,111.71 l 11.58789,19.86524 a 19.0019,19.0019 0 0 0 32.97266,-0.25977 l 27,-47.999992 a 19,19 0 0 0 -7.2461,-25.875 19,19 0 0 0 -25.875,7.246094 L 137.70117,83.778369 126.41211,64.426806 a 19.0019,19.0019 0 0 0 -32.824219,0 L 82.298828,83.778369 71.560547,64.686572 A 19,19 0 0 0 55.212891,55.002978 Z"/>
  <path style="fill:#01a2e0;color:#000000" d="m 55.212891,53.001953 a 19,19 0 0 0 -9.527344,2.4375 19,19 0 0 0 -7.246094,25.875 l 27,47.999997 a 19.0019,19.0019 0 0 0 32.972656,0.25977 L 110,109.70898 l 11.58789,19.86524 a 19.0019,19.0019 0 0 0 32.97266,-0.25977 l 27,-47.999997 a 19,19 0 0 0 -7.2461,-25.875 19,19 0 0 0 -25.875,7.246094 L 137.70117,81.777344 126.41211,62.425781 a 19.0019,19.0019 0 0 0 -32.824219,0 L 82.298828,81.777344 71.560547,62.685547 A 19,19 0 0 0 55.212891,53.001953 Z"/>
  <path style="opacity:0.2;fill:#ffffff" d="M 49.125 21 C 33.54375 21 21 33.54375 21 49.125 L 21 50.125 C 21 34.54375 33.54375 22 49.125 22 L 142.875 22 C 158.45625 22 171 34.54375 171 50.125 L 171 49.125 C 171 33.54375 158.45625 21 142.875 21 L 49.125 21 z "/>
</svg>
