<?xml version='1.0' encoding='utf-8'?>
<svg xmlns="http://www.w3.org/2000/svg" width="192" height="192" version="1.1" id="svg12">
  <defs>
    <filter style="color-interpolation-filters:sRGB" id="filter845" x="-0.048000001" y="-0.048000001" width="1.096" height="1.096">
      <feGaussianBlur stdDeviation="3.2"/>
    </filter>
    <filter style="color-interpolation-filters:sRGB" id="filter849" x="-0.049030957" y="-0.054750145" width="1.0980619" height="1.1095003">
      <feGaussianBlur stdDeviation="3.2101549"/>
    </filter>
  </defs>
  <circle style="filter:url(#filter845);opacity:0.2" cx="96" cy="100" r="80"/>
  <circle style="fill:#2a4986" cx="96" cy="96" r="80"/>
  <path style="filter:url(#filter849);opacity:0.2" d="m 58.195312,27.569248 a 80,80 0 0 0 -19.640624,14.875 L 149.55469,109.79581 30.585938,52.030184 A 80,80 0 0 0 19.539062,74.498936 L 153.14844,118.62394 17.03125,85.858312 A 80,80 0 0 0 16,97.998936 80,80 0 0 0 17.117188,111.19425 L 142.38281,123.61612 20.1875,123.2255 a 80,80 0 0 0 10.515625,20.82031 L 144.71875,133.73331 37.765625,152.77237 A 80,80 0 0 0 57.820312,168.288 L 167.32031,134.04581 a 80,80 0 0 0 5.8125,-15.14844 z"/>
  <path style="fill:#ffffff" d="m 58.195312,25.570312 a 80,80 0 0 0 -19.640624,14.875 L 149.55469,107.79688 30.585938,50.031248 A 80,80 0 0 0 19.539062,72.5 L 153.14844,116.625 17.03125,83.859376 A 80,80 0 0 0 16,96 80,80 0 0 0 17.117188,109.19531 L 142.38281,121.61719 20.1875,121.22656 a 80,80 0 0 0 10.515625,20.82032 L 144.71875,131.73438 37.765625,150.77344 a 80,80 0 0 0 20.054687,15.51562 L 167.32031,132.04688 a 80,80 0 0 0 5.8125,-15.14844 z"/>
  <path style="opacity:0.1;fill:#ffffff" d="M 96 16 A 80 80 0 0 0 16 96 A 80 80 0 0 0 16.023438 96.638672 A 80 80 0 0 1 96 17 A 80 80 0 0 1 175.98438 96.302734 A 80 80 0 0 0 176 96 A 80 80 0 0 0 96 16 z "/>
</svg>
