<?xml version='1.0' encoding='utf-8'?>
<svg xmlns="http://www.w3.org/2000/svg" width="192" height="192" version="1" id="svg26">
  <defs>
    <filter style="color-interpolation-filters:sRGB" id="filter1028" x="0.05" y="0.05" width="1.10" height="1.10">
      <feGaussianBlur stdDeviation="3.20"/>
    </filter>
  </defs>
  <rect fill="#394e6f" width="160" height="160" x="16" y="20" rx="8" ry="8" style="filter:url(#filter1028);opacity:0.20;fill:#000000"/>
  <rect fill="#394e6f" width="160" height="160" x="16" y="16" rx="8" ry="8"/>
  <path style="opacity:0.10;fill:#ffffff" d="M 24 16 C 19.57 16 16 19.57 16 24 L 16 25 C 16 20.57 19.57 17 24 17 L 168 17 C 172.43 17 176 20.57 176 25 L 176 24 C 176 19.57 172.43 16 168 16 L 24 16 z "/>
  <circle fill="#ffffff" stroke="#394e6f" stroke-linecap="round" stroke-linejoin="round" cx="112" cy="88" r="18"/>
  <circle fill="#ffffff" stroke="#394e6f" stroke-linecap="round" stroke-linejoin="round" cx="148" cy="120" r="10"/>
  <circle fill="#ffffff" stroke="#394e6f" stroke-linecap="round" stroke-linejoin="round" cx="126" cy="110" r="20"/>
  <circle fill="#ffffff" stroke="#394e6f" stroke-linecap="round" stroke-linejoin="round" cx="52" cy="112" r="18"/>
  <circle fill="#ffffff" stroke="#394e6f" stroke-linecap="round" stroke-linejoin="round" cx="70" cy="74" r="12"/>
  <circle fill="#ffffff" stroke="#394e6f" stroke-linecap="round" stroke-linejoin="round" cx="72" cy="96" r="22"/>
  <circle fill="#ffffff" stroke="#394e6f" stroke-linecap="round" stroke-linejoin="round" cx="70" cy="120" r="10"/>
  <circle fill="#ffffff" stroke="#394e6f" stroke-linecap="round" stroke-linejoin="round" cx="90" cy="78" r="20"/>
  <circle fill="#ffffff" stroke="#394e6f" stroke-linecap="round" stroke-linejoin="round" cx="95.99" cy="104.01" r="25.99"/>
</svg>
