<?xml version='1.0' encoding='utf-8'?>
<svg xmlns="http://www.w3.org/2000/svg" width="192" height="192" version="1" id="svg14">
  <defs>
    <filter style="color-interpolation-filters:sRGB" id="filter13010" x="0.07" y="0.08" width="1.15" height="1.15">
      <feGaussianBlur stdDeviation="1.70"/>
    </filter>
    <filter style="color-interpolation-filters:sRGB" id="filter13052" x="0.07" y="0.07" width="1.15" height="1.15">
      <feGaussianBlur stdDeviation="3.44"/>
    </filter>
    <filter style="color-interpolation-filters:sRGB" id="filter13094" x="0.07" y="0.07" width="1.15" height="1.15">
      <feGaussianBlur stdDeviation="4.06"/>
    </filter>
    <filter style="color-interpolation-filters:sRGB" id="filter13136" x="0.11" y="0.06" width="1.23" height="1.11">
      <feGaussianBlur stdDeviation="3.72"/>
    </filter>
  </defs>
  <rect style="filter:url(#filter13136);opacity:0.20;fill:#000000" width="78" height="160" x="57" y="18" ry="8"/>
  <rect style="fill:#3f3f3f" width="78" height="160" x="57" y="16" ry="8"/>
  <circle r="65" cy="98" cx="96" style="filter:url(#filter13094);opacity:0.20;fill:#000000"/>
  <path style="fill:#38adfa" d="m 688.81,257.00 c 0.33,0.33 -1.19,0.37 -1.92,0.08 0.80,0.32 0.56,0.56 0.60,0.60 1.05,0.04 1.64,0.19 1.31,0.53 z"/>
  <circle r="65" cy="96" cx="96" style="fill:#4f4f4f"/>
  <circle r="55" cy="98" cx="96" style="filter:url(#filter13052);opacity:0.20;fill:#000000"/>
  <circle r="55" cy="96" cx="96" style="fill:#ffffff"/>
  <path style="filter:url(#filter13010);opacity:0.20;fill:#000000;color:#000000" d="m 74,71 a 5.00,5.00 0 0 0 -5,5 v 44 a 5,5 0 0 0 5,5 5,5 0 0 0 5,-5 V 81 h 40 a 5,5 0 0 0 5,-5 5,5 0 0 0 -5,-5 z m 15,15 a 5,5 0 0 0 -5,5 5,5 0 0 0 5,5 h 27.21 l 4.94,-10 z m 0,15 c -2.76,0.00 -5.00,2.24 -5,5 v 19 h 10 v -14 h 14.80 l 4.94,-10 z"/>
  <path style="fill:#31ace1;color:#000000" d="m 74,69 a 5.00,5.00 0 0 0 -5,5 v 44 a 5,5 0 0 0 5,5 5,5 0 0 0 5,-5 V 79 h 40 a 5,5 0 0 0 5,-5 5,5 0 0 0 -5,-5 z"/>
  <path style="fill:#6dbc48;color:#000000" d="m 89,84 a 5,5 0 0 0 -5,5 5,5 0 0 0 5,5 h 27.21 l 4.94,-10 z"/>
  <path style="fill:#ed4445;color:#000000" d="m 89,99 c -2.76,0.00 -5.00,2.24 -5,5 v 19 h 10 v -14 h 14.80 l 4.94,-10 z"/>
  <circle style="fill:#ffffff" cx="74" cy="74" r="2"/>
  <circle style="fill:#ffffff" cx="89" cy="89" r="2"/>
  <circle style="fill:#ffffff" cx="89" cy="104" r="2"/>
</svg>
