<?xml version='1.0' encoding='utf-8'?>
<svg xmlns="http://www.w3.org/2000/svg" width="192" height="192" version="1.1" id="svg14">
  <defs>
    <filter style="color-interpolation-filters:sRGB" id="filter849" x="0.05" y="0.05" width="1.10" height="1.10">
      <feGaussianBlur stdDeviation="3.20"/>
    </filter>
    <filter style="color-interpolation-filters:sRGB" id="filter3409" x="0.05" y="0.04" width="1.11" height="1.09">
      <feGaussianBlur stdDeviation="2.10"/>
    </filter>
    <filter style="color-interpolation-filters:sRGB" id="filter3413" x="0.04" y="0.05" width="1.09" height="1.11">
      <feGaussianBlur stdDeviation="2.10"/>
    </filter>
  </defs>
  <rect style="filter:url(#filter849);opacity:0.20" width="160" height="160" x="16" y="20" rx="32" ry="32"/>
  <rect style="fill:#f03d5a" width="160" height="160" x="16" y="16" rx="32" ry="32"/>
  <path style="filter:url(#filter3409);opacity:0.20;fill:#000000;color:#000000" d="m 55,40 a 6,6 0 0 0 -6,6 v 9.22 a 6,6 0 0 0 6,6 6,6 0 0 0 6,-6 V 46 A 6,6 0 0 0 55,40 Z M 96,72 A 26,26 0 0 0 70,98 26,26 0 0 0 96,124 26,26 0 0 0 122,98 26,26 0 0 0 96,72 Z m 0,12 A 14,14 0 0 1 110,98 14,14 0 0 1 96,112 14,14 0 0 1 82,98 14,14 0 0 1 96,84 Z m 41,50.78 a 6,6 0 0 0 -6,6 V 150 a 6,6 0 0 0 6,6 6,6 0 0 0 6,-6 v -9.22 a 6,6 0 0 0 -6,-6 z"/>
  <path style="fill:#ffffff;color:#000000" d="M 55 38 A 6 6 0 0 0 49 44 L 49 53.22 A 6 6 0 0 0 55 59.22 A 6 6 0 0 0 61 53.22 L 61 44 A 6 6 0 0 0 55 38 z M 96 70 A 26 26 0 0 0 70 96 A 26 26 0 0 0 96 122 A 26 26 0 0 0 122 96 A 26 26 0 0 0 96 70 z M 96 82 A 14 14 0 0 1 110 96 A 14 14 0 0 1 96 110 A 14 14 0 0 1 82 96 A 14 14 0 0 1 96 82 z M 137 132.78 A 6 6 0 0 0 131 138.78 L 131 148 A 6 6 0 0 0 137 154 A 6 6 0 0 0 143 148 L 143 138.78 A 6 6 0 0 0 137 132.78 z "/>
  <path style="opacity:0.20;fill:#ffffff" d="M 48,16 C 30.27,16 16,30.27 16,48 v 1 C 16,31.27 30.27,17 48,17 h 96 c 17.73,0 32,14.27 32,32 V 48 C 176,30.27 161.73,16 144,16 Z"/>
  <path style="filter:url(#filter3413);opacity:0.20;fill:#000000;color:#000000" d="m 44,51 a 6,6 0 0 0 -6,6 6,6 0 0 0 6,6 h 71.91 c 4.53,0 7.85,0.29 9.93,0.78 2.08,0.49 2.73,0.99 3.20,1.54 C 129.99,66.42 131,70.66 131,79.69 V 124 h 12 V 79.69 c 0,-9.47 0.02,-16.58 -4.87,-22.20 -2.42,-2.81 -5.86,-4.51 -9.52,-5.38 C 124.96,51.24 120.89,51 115.91,51 Z m 5,21 v 44.31 c 0,9.47 0.02,16.58 4.87,22.20 2.42,2.81 5.86,4.51 9.52,5.38 C 67.04,144.76 71.11,145 76.09,145 H 148 a 6,6 0 0 0 6,-6 6,6 0 0 0 -6,-6 H 76.09 c -4.53,0 -7.85,0.29 -9.93,0.78 -2.08,0.49 -2.73,0.99 -3.20,-1.54 C 62.01,129.58 61,125.34 61,116.31 V 72 Z"/>
  <path style="fill:#ffffff;color:#000000" d="M 44 49 A 6 6 0 0 0 38 55 A 6 6 0 0 0 44 61 L 115.91 61 C 120.45 61 123.77 61.29 125.84 61.78 C 127.92 62.27 128.57 62.77 129.04 63.32 C 129.99 64.42 131 68.66 131 77.69 L 131 122 L 143 122 L 143 77.69 C 143 68.21 142.98 61.11 138.13 55.49 C 135.71 52.68 132.28 50.97 128.62 50.11 C 124.96 49.24 120.89 49 115.91 49 L 44 49 z M 49 70 L 49 114.31 C 49 123.79 49.02 130.89 53.87 136.51 C 56.29 139.32 59.72 141.03 63.38 141.89 C 67.04 142.76 71.11 143 76.09 143 L 148 143 A 6 6 0 0 0 154 137 A 6 6 0 0 0 148 131 L 76.09 131 C 71.55 131 68.23 130.71 66.16 130.22 C 64.08 129.73 63.43 129.23 62.96 128.68 C 62.01 127.58 61 123.34 61 114.31 L 61 70 L 49 70 z "/>
</svg>
