<svg xmlns="http://www.w3.org/2000/svg" id="svg14" width="192" height="192" version="1.1"><defs><filter style="color-interpolation-filters:sRGB" id="filter857" width="1.1" height="1.1" x=".05" y=".05"><feGaussianBlur stdDeviation="3.2"/></filter><filter style="color-interpolation-filters:sRGB" id="filter873" width="1.1" height="1.09" x=".05" y=".05"><feGaussianBlur stdDeviation="1.96"/></filter></defs><circle cx="96" cy="100" r="80" style="filter:url(#filter857);opacity:.2"/><circle cx="96" cy="96" r="80" style="fill:#cb1e1d"/><path style="filter:url(#filter873);opacity:.2" d="m 64,48 v 104 l 16,-9.05 V 76 l 44,24 -32,16 v 20.17 L 156,100 Z"/><path style="fill:#fff" d="m 64,44 v 104 l 16,-9.05 V 72 l 44,24 -32,16 v 20.17 L 156,96 Z"/><path style="opacity:.1;fill:#fff" d="M 96 16 A 80 80 0 0 0 16 96 A 80 80 0 0 0 16.02 96.59 A 80 80 0 0 1 96 17 A 80 80 0 0 1 175.98 96.41 A 80 80 0 0 0 176 96 A 80 80 0 0 0 96 16 z"/></svg>