<?xml version='1.0' encoding='utf-8'?>
<svg xmlns="http://www.w3.org/2000/svg" width="192" height="192" version="1.1" id="svg14">
  <defs>
    <filter style="color-interpolation-filters:sRGB" id="filter849" x="0.05" y="0.05" width="1.10" height="1.10">
      <feGaussianBlur stdDeviation="3.20"/>
    </filter>
    <filter style="color-interpolation-filters:sRGB" id="filter2490" x="0.05" y="0.05" width="1.10" height="1.09">
      <feGaussianBlur stdDeviation="1.78"/>
    </filter>
  </defs>
  <circle style="filter:url(#filter849);opacity:0.20" cx="96" cy="100" r="80"/>
  <circle style="fill:#185552" cx="96" cy="96" r="80"/>
  <path style="opacity:0.10;fill:#ffffff" d="M 96,16 A 80,80 0 0 0 16,96 80,80 0 0 0 16.02,96.64 80,80 0 0 1 96,17 80,80 0 0 1 175.98,96.30 80,80 0 0 0 176,96 80,80 0 0 0 96,16 Z"/>
  <path style="filter:url(#filter2490);opacity:0.20;fill:#000000;color:#000000" d="M 87,53 C 67.70,53 52,68.70 52,88 v 20 c 0,19.30 15.70,35 35,35 h 18 c 15.46,0 28.60,-10.07 33.22,-24 H 127.47 C 123.44,127.32 114.97,133 105,133 H 87 C 73.06,133 62,121.94 62,108 v -6 h 68 10 V 88 C 140,68.70 124.30,53 105,53 Z m 0,10 h 18 c 13.94,0 25,11.06 25,25 v 4 H 62 V 88 C 62,74.06 73.06,63 87,63 Z"/>
  <path style="fill:#bcd4f1;color:#000000" d="M 87 51 C 67.70 51 52 66.70 52 86 L 52 106 C 52 125.30 67.70 141 87 141 L 105 141 C 120.46 141 133.60 130.93 138.22 117 L 127.47 117 C 123.44 125.32 114.97 131 105 131 L 87 131 C 73.06 131 62 119.94 62 106 L 62 100 L 130 100 L 140 100 L 140 86 C 140 66.70 124.30 51 105 51 L 87 51 z M 87 61 L 105 61 C 118.94 61 130 72.06 130 86 L 130 90 L 62 90 L 62 86 C 62 72.06 73.06 61 87 61 z "/>
</svg>
