<?xml version='1.0' encoding='utf-8'?>
<svg xmlns="http://www.w3.org/2000/svg" width="192" height="192" version="1" id="svg16">
  <defs>
    <filter style="color-interpolation-filters:sRGB" id="filter851" x="0.05" width="1.10" y="0.05" height="1.10">
      <feGaussianBlur stdDeviation="3.20"/>
    </filter>
    <filter style="color-interpolation-filters:sRGB" id="filter867" x="0.05" width="1.10" y="0.05" height="1.10">
      <feGaussianBlur stdDeviation="1.76"/>
    </filter>
  </defs>
  <circle r="80" cy="100" cx="96" style="filter:url(#filter851);opacity:0.20"/>
  <circle r="80" cy="96" cx="96" style="fill:#00c586"/>
  <path style="opacity:0.20;fill:#ffffff" d="M 96 16 C 51.68 16 16.01 51.68 16.01 96 C 16.01 96.34 16.01 96.67 16.01 97 C 16.01 52.68 51.68 17 96 17 C 140.32 17 175.99 52.68 175.99 97 C 175.99 96.67 175.99 96.34 175.99 96 C 175.99 51.68 140.32 16 96 16 z "/>
  <path d="m 132,64 c 0,0 -88.00,27.91 -88,28 L 76.58,105.69 88,108 90.45,119.70 104,152 Z m -59.05,52.02 c 0.38,0.03 0.87,0.11 -1.31,0.23 -3.41,0.89 -8.37,4.56 -11.03,8.16 -3.01,4.09 -4.62,8.87 -4.61,13.75 0.00,1.36 0.06,1.60 0.46,1.77 0.45,0.20 4.32,0.04 5.88,0.36 4.51,0.92 8.36,-3.03 11.80,-6.48 2.16,-2.16 3.43,-3.95 4.69,-6.56 0.82,-1.71 1.38,-3.79 1.09,-4.08 0.06,0.05 0.51,0.21 -1,0.60 C 75.20,125.44 72.22,127.17 68,128 c 1.10,-4.15 2.27,-7.32 4.45,-10.30 0.63,0.85 1.15,-1.58 1.15,-1.62 0,0.08 0.27,0.09 0.64,0.06 z" style="filter:url(#filter867);opacity:0.20"/>
  <path d="m 132,60 c 0,0 -88.00,27.91 -88,28 L 76.58,101.69 88,104 90.45,115.70 104,148 Z m -59.05,52.02 c 0.38,0.03 0.87,0.11 -1.31,0.23 -3.41,0.89 -8.37,4.56 -11.03,8.16 -3.01,4.09 -4.62,8.87 -4.61,13.75 0.00,1.36 0.06,1.60 0.46,1.77 0.45,0.20 4.32,0.04 5.88,0.36 4.51,0.92 8.36,-3.03 11.80,-6.48 2.16,-2.16 3.43,-3.95 4.69,-6.56 0.82,-1.71 1.38,-3.79 1.09,-4.08 0.06,0.05 0.51,0.21 -1,0.60 C 75.20,121.44 72.22,123.17 68,124 c 1.10,-4.15 2.27,-7.32 4.45,-10.30 0.63,0.85 1.15,-1.58 1.15,-1.62 0,0.08 0.27,0.09 0.64,0.06 z" style="fill:#ffffff"/>
  <path d="m 132,60 c 0,0 -88.00,27.91 -88,28 L 76.57,101.68 88,104 Z" style="fill:#c4f1e3"/>
</svg>
