<?xml version='1.0' encoding='utf-8'?>
<svg xmlns="http://www.w3.org/2000/svg" width="192" height="192" version="1" id="svg28">
  <defs>
    <filter style="color-interpolation-filters:sRGB" id="filter6495" x="0.05" y="0.05" width="1.10" height="1.10">
      <feGaussianBlur stdDeviation="3.20"/>
    </filter>
    <filter style="color-interpolation-filters:sRGB" id="filter11668" x="0.10" y="0.12" width="1.20" height="1.24">
      <feGaussianBlur stdDeviation="3.24"/>
    </filter>
  </defs>
  <rect transform="matrix(0,-1,-1,0,0,0)" ry="12" rx="12" y="-176" x="-180" height="160" width="160" style="filter:url(#filter6495);opacity:0.20;fill:#000000"/>
  <path style="fill:#e4e4e4" transform="matrix(0,-1,-1,0,0,0)" d="M -159.30,-165.77 -152.43,-176 H -28 c 6.65,0 12,5.35 12,12 v 20.39 l -9.82,102.64 c 0.63,6.62 -1.17,11.71 -6.99,14.93 L -50.94,-16 H -164 c -6.65,0 -12,-5.35 -12,-12 v -55.62 l 9.67,-73.42 c 0.87,-6.59 3.32,-3.20 7.03,-8.72 z"/>
  <path style="filter:url(#filter11668);opacity:0.20;fill:#000000;color:#000000" d="M 64.36,69.00 C 60.29,69.00 57.00,72.32 57,76.42 V 95.70 C 57,117.32 74.55,135 96.00,135 117.45,135 135,117.32 135,95.70 V 84 H 120 V 95.70 C 120,109.30 109.50,120 96.00,120 82.50,120 72.33,109.30 72,95.70 V 84 h 48 V 69.00 Z"/>
  <path style="fill:#ff732f;color:#000000" d="M 64.36,67.00 C 60.29,67.00 57.00,70.32 57,74.42 V 93.70 C 57,115.32 74.55,133 96.00,133 117.45,133 135,115.32 135,93.70 V 82 H 120 V 93.70 C 120,107.30 109.50,118 96.00,118 82.50,118 72.33,107.30 72,93.70 V 82 h 48 V 67.00 Z"/>
  <path style="fill:#ff732f" d="M 28 16 C 21.35 16 16 21.35 16 28 L 16 51.57 L 149.37 16 L 28 16 z "/>
  <path style="fill:#31b77e" d="M 176 150.67 L 81.04 176 L 164 176 C 170.65 176 176 170.65 176 164 L 176 150.67 z "/>
  <path style="opacity:0.20;fill:#ffffff" d="m 28,16 c -6.65,0 -12,5.35 -12,12 v 1 c 0,-6.65 5.35,-12 12,-12 h 136 c 6.65,0 12,5.35 12,12 v -1 c 0,-6.65 -5.35,-12 -12,-12 z"/>
</svg>
