<?xml version='1.0' encoding='utf-8'?>
<svg xmlns="http://www.w3.org/2000/svg" width="192" height="192" version="1" id="svg54">
  <defs>
    <filter style="color-interpolation-filters:sRGB" id="filter909" x="0.05" width="1.09" y="0.05" height="1.10">
      <feGaussianBlur stdDeviation="3.04"/>
    </filter>
    <filter style="color-interpolation-filters:sRGB" id="filter946" x="0.03" width="1.05" y="0.19" height="1.38">
      <feGaussianBlur stdDeviation="1.28"/>
    </filter>
    <filter style="color-interpolation-filters:sRGB" id="filter962" x="0.05" width="1.10" y="0.05" height="1.10">
      <feGaussianBlur stdDeviation="1.76"/>
    </filter>
  </defs>
  <path style="filter:url(#filter909);opacity:0.20;fill:#000000" d="m 24,24.00 c -4.43,0 -8,3.57 -8,8 V 63.60 64.00 160 c 0,4.43 3.57,8 8,8 h 144 c 4.43,0 8,-3.57 8,-8 V 64.00 63.60 32.00 c 0,-4.43 -3.57,-8 -8,-8 z"/>
  <path d="M 16,59.60 V 156 c 0,4.43 3.57,8 8,8 h 144 c 4.43,0 8,-3.57 8,-8 V 59.60 Z" style="fill:#e4e4e4"/>
  <path d="m 176,60.00 v -32 c 0,-4.43 -3.57,-8 -8,-8 H 24 c -4.43,0 -8,3.57 -8,8 v 32 z" style="fill:#86c20a"/>
  <path d="m 24,20.00 c -4.43,0 -8,3.57 -8,8 v 2 c 0,-4.43 3.57,-8 8,-8 h 144 c 4.43,0 8,3.57 8,8 v -2 c 0,-4.43 -3.57,-8 -8,-8 z" style="opacity:0.20;fill:#ffffff"/>
  <rect y="100.00" x="132" height="24" width="24" style="opacity:0.20"/>
  <rect y="100.00" x="68" height="24" width="24" style="opacity:0.20"/>
  <rect y="100.00" x="36" height="24" width="24" style="opacity:0.20"/>
  <rect y="132" x="100" height="24" width="24" style="opacity:0.20"/>
  <rect y="132" x="132" height="24" width="24" style="opacity:0.20"/>
  <rect y="132" x="68" height="24" width="24" style="opacity:0.20"/>
  <rect y="132" x="36" height="24" width="24" style="opacity:0.20"/>
  <rect y="68.00" x="100" height="24" width="24" style="opacity:0.20"/>
  <rect y="68.00" x="132" height="24" width="24" style="opacity:0.20"/>
  <rect y="68.00" x="68" height="24" width="24" style="opacity:0.20"/>
  <rect y="68.00" x="36" height="24" width="24" style="opacity:0.20"/>
  <path style="filter:url(#filter946);opacity:0.10" d="m 48,34.00 a 8,8 0 0 0 -8,8 8,8 0 0 0 8,8 8,8 0 0 0 8,-8 8,8 0 0 0 -8,-8 z m 96,0 a 8,8 0 0 0 -8,8 8,8 0 0 0 8,8 8,8 0 0 0 8,-8 8,8 0 0 0 -8,-8 z"/>
  <circle r="8" cy="40.00" cx="48" style="fill:#ffffff"/>
  <circle r="8" cy="40.00" cx="144" style="fill:#ffffff"/>
  <circle r="44" cy="144" cx="144" style="filter:url(#filter962);opacity:0.20"/>
  <rect y="100.00" x="100" height="24" width="24" style="opacity:0.20"/>
  <circle r="44" cy="140" cx="144" style="fill:#507dd6"/>
  <rect y="112.00" x="140" height="56" width="8" style="fill:#ffffff"/>
  <rect transform="rotate(90)" y="-172" x="136" height="56" width="8" style="fill:#ffffff"/>
  <rect style="opacity:0.20;fill:#ffffff" width="160" height="1" x="16" y="60.00"/>
</svg>
