<?xml version='1.0' encoding='utf-8'?>
<svg xmlns="http://www.w3.org/2000/svg" width="192" height="192" version="1" id="svg12">
  <defs>
    <filter style="color-interpolation-filters:sRGB" id="filter5013" x="0.09" y="0.06" width="1.18" height="1.13">
      <feGaussianBlur stdDeviation="4.22"/>
    </filter>
    <filter style="color-interpolation-filters:sRGB" id="filter5055" x="0.11" y="0.11" width="1.22" height="1.22">
      <feGaussianBlur stdDeviation="1.12"/>
    </filter>
  </defs>
  <path style="filter:url(#filter5013);opacity:0.20;fill:#000000;mix-blend-mode:normal" d="m 87,19.00 v 30 h 11 v -30 z m 51.08,5.62 -27.52,27.52 7.78,7.78 27.52,-27.52 z M 91.50,58.00 a 24.50,24.50 0 0 0 -24.50,24.50 24.50,24.50 0 0 0 24.50,24.50 24.50,24.50 0 0 0 24.50,-24.50 24.50,24.50 0 0 0 -24.50,-24.50 z m 31.50,14 v 11 h 30 v -11 z M 91.50,115.00 c -26.79,0 -48.50,21.60 -48.50,48.24 0,17.90 21.71,15.61 48.50,15.61 26.79,0 48.50,2.84 48.50,-15.61 0,-26.64 -21.71,-48.24 -48.50,-48.24 z"/>
  <path style="fill:#00b5fb" d="m 140,160.24 c 0,18.44 -21.71,15.61 -48.50,15.61 -26.79,0 -48.50,2.29 -48.50,-15.61 C 43,133.60 64.71,112 91.50,112 c 26.79,0 48.50,21.60 48.50,48.24 z"/>
  <circle style="fill:#00b5fb" cx="91.50" cy="79.50" r="24.50"/>
  <circle style="filter:url(#filter5055);opacity:0.20;fill:#000000" cx="91.50" cy="81.50" r="12.50"/>
  <circle style="fill:#ffffff" cx="91.50" cy="79.50" r="12.50"/>
  <rect style="fill:#00b5fb" width="11" height="30" x="87" y="16"/>
  <rect style="fill:#00b5fb" width="11" height="30" x="69" y="-153" transform="rotate(90)"/>
  <rect style="fill:#00b5fb" width="11" height="38.92" x="112.92" y="-82.35" transform="rotate(45)"/>
  <path style="opacity:0.20;fill:#ffffff" d="M 87 16 L 87 17 L 98 17 L 98 16 L 87 16 z M 138.08 21.62 L 110.56 49.14 L 111.06 49.64 L 138.08 22.62 L 145.36 29.89 L 145.86 29.39 L 138.08 21.62 z M 91.50 55 A 24.50 24.50 0 0 0 67 79.50 A 24.50 24.50 0 0 0 67.06 80 A 24.50 24.50 0 0 1 91.50 56 A 24.50 24.50 0 0 1 115.97 79.77 A 24.50 24.50 0 0 0 116 79.50 A 24.50 24.50 0 0 0 91.50 55 z M 123 69 L 123 70 L 153 70 L 153 69 L 123 69 z M 91.50 112 C 64.71 112 43 133.60 43 160.24 C 43 160.37 43.01 160.50 43.02 160.63 C 43.34 134.27 64.92 113 91.50 113 C 118.08 113 139.66 134.28 139.98 160.64 C 139.99 160.50 140 160.38 140 160.24 C 140 133.60 118.29 112 91.50 112 z "/>
</svg>
