<?xml version='1.0' encoding='utf-8'?>
<svg xmlns="http://www.w3.org/2000/svg" width="192" height="192" version="1" id="svg28">
  <defs>
    <filter style="color-interpolation-filters:sRGB" id="filter19454" x="-0.048000001" y="-0.048000001" width="1.096" height="1.096">
      <feGaussianBlur stdDeviation="3.2"/>
    </filter>
    <filter style="color-interpolation-filters:sRGB" id="filter1373" x="-0.083883493" y="-0.14896551" width="1.167767" height="1.297931">
      <feGaussianBlur stdDeviation="3.6"/>
    </filter>
  </defs>
  <rect transform="matrix(0,-1,-1,0,0,0)" ry="30" rx="30" y="-176" x="-180" height="160" width="160" style="filter:url(#filter19454);opacity:0.2;fill:#000000"/>
  <rect transform="matrix(0,-1,-1,0,0,0)" ry="30" rx="30" y="-176" x="-176" height="160" width="160" style="fill:#3f3f3f"/>
  <path style="opacity:0.1;fill:#ffffff" d="M 46 16 C 29.38 16 16 29.38 16 46 L 16 47 C 16 30.38 29.38 17 46 17 L 146 17 C 162.62 17 176 30.38 176 47 L 176 46 C 176 29.38 162.62 16 146 16 L 46 16 z "/>
  <path style="filter:url(#filter1373);opacity:0.2;fill:#000000" d="m 73,69 c -16.016258,0 -29,12.983742 -29,29 0,16.01626 12.983742,29 29,29 16.016258,0 29,-12.98374 29,-29 C 102,81.983742 89.016258,69 73,69 Z m 46.5,2 c -8.00813,0 -14.5,12.088312 -14.5,27 0,14.91169 6.49187,27 14.5,27 8.00813,0 14.5,-12.08831 14.5,-27 0,-14.911688 -6.49187,-27 -14.5,-27 z m 22.5,2 c -2.76142,0 -5,11.192881 -5,25 0,13.80712 2.23858,25 5,25 2.76142,0 5,-11.19288 5,-25 0,-13.807119 -2.23858,-25 -5,-25 z"/>
  <path style="fill:#ffffff" d="m 73,67 c -16.016258,0 -29,12.983742 -29,29 0,16.01626 12.983742,29 29,29 16.016258,0 29,-12.98374 29,-29 C 102,79.983742 89.016258,67 73,67 Z m 46.5,2 c -8.00813,0 -14.5,12.088312 -14.5,27 0,14.91169 6.49187,27 14.5,27 8.00813,0 14.5,-12.08831 14.5,-27 0,-14.911688 -6.49187,-27 -14.5,-27 z m 22.5,2 c -2.76142,0 -5,11.192881 -5,25 0,13.80712 2.23858,25 5,25 2.76142,0 5,-11.19288 5,-25 0,-13.807119 -2.23858,-25 -5,-25 z"/>
</svg>
