<svg xmlns="http://www.w3.org/2000/svg" id="svg14" width="192" height="192" version="1"><defs><filter style="color-interpolation-filters:sRGB" id="filter844" width="1.1" height="1.1" x=".05" y=".05"><feGaussianBlur stdDeviation="3.2"/></filter><filter style="color-interpolation-filters:sRGB" id="filter873" width="1.08" height="1.12" x=".04" y=".06"><feGaussianBlur stdDeviation="2.07"/></filter></defs><rect style="filter:url(#filter844);opacity:.2;fill:#000" width="160" height="160" x="-180" y="-176" rx="80" ry="80" transform="matrix(0,-1,-1,0,0,0)"/><rect width="160" height="160" x="-176" y="-176" rx="80" ry="80" transform="matrix(0,-1,-1,0,0,0)" style="fill:#81bf4f"/><path style="opacity:.2;fill:#fff" d="M 96.00,16 C 51.68,16.00 16,51.68 16,96 c 0,0.12 0.01,0.23 0.01,0.34 C 16.36,52.33 51.90,17.00 96.00,17 H 96 c 44.11,0.00 79.65,35.34 79.99,79.36 0.00,0.12 0.01,0.24 0.01,0.36 0,-44.32 -35.68,-80.00 -80.00,-80 z"/><path style="filter:url(#filter873);opacity:.2;fill:#000;color:#000;font-stretch:normal;font-variant-ligatures:normal;font-variant-position:normal;font-variant-caps:normal;font-variant-numeric:normal;font-variant-alternates:normal;font-feature-settings:normal;text-indent:0;text-align:start;text-decoration-line:none;text-decoration-style:solid;text-decoration-color:#000;text-transform:none;writing-mode:lr-tb;direction:ltr;text-orientation:mixed;dominant-baseline:auto;baseline-shift:baseline;white-space:normal;shape-padding:0;clip-rule:nonzero;display:inline;overflow:visible;visibility:visible;isolation:auto;mix-blend-mode:normal;color-interpolation:sRGB;color-interpolation-filters:linearRGB;solid-color:#000;solid-opacity:1;vector-effect:none;fill-rule:nonzero;color-rendering:auto;image-rendering:auto;shape-rendering:auto;text-rendering:auto;enable-background:accumulate" d="m 96,74.00 c -13.25,0 -24,10.75 -24,24 0,3.04 0.58,5.94 1.61,8.62 l -40.21,41.28 c 2.23,2.80 4.65,5.44 7.23,7.91 l 41.96,-43.08 c 0.22,0.22 0.42,0.47 0.59,0.72 L 96,93.39 108.82,112.01 c 0.18,0.26 0.38,0.50 0.59,0.72 l 41.96,43.08 c 2.58,-2.47 5.00,-5.11 7.23,-7.91 L 118.40,106.63 C 119.43,103.95 120,101.04 120,98.00 c 0,-13.25 -10.75,-24 -24,-24 z"/><path style="fill:#fff;color:#000;font-stretch:normal;font-variant-ligatures:normal;font-variant-position:normal;font-variant-caps:normal;font-variant-numeric:normal;font-variant-alternates:normal;font-feature-settings:normal;text-indent:0;text-align:start;text-decoration-line:none;text-decoration-style:solid;text-decoration-color:#000;text-transform:none;writing-mode:lr-tb;direction:ltr;text-orientation:mixed;dominant-baseline:auto;baseline-shift:baseline;white-space:normal;shape-padding:0;clip-rule:nonzero;display:inline;overflow:visible;visibility:visible;isolation:auto;mix-blend-mode:normal;color-interpolation:sRGB;color-interpolation-filters:linearRGB;solid-color:#000;solid-opacity:1;vector-effect:none;fill-rule:nonzero;color-rendering:auto;image-rendering:auto;shape-rendering:auto;text-rendering:auto;enable-background:accumulate" d="m 96,76.66 c -1.69,0.07 -3.72,0.94 -4.67,2.34 L 74.60,103.60 33.40,145.90 c 2.23,2.80 4.65,5.44 7.23,7.91 l 41.96,-43.08 c 0.22,0.22 0.42,0.47 0.59,0.72 L 96,91.39 108.82,110.01 c 0.18,0.26 0.38,0.50 0.59,0.72 l 41.96,43.08 c 2.58,-2.47 5.00,-5.11 7.23,-7.91 L 117.40,103.60 100.67,78.99 C 99.72,77.60 97.69,76.73 96,76.66 Z"/><path style="fill:#fff" d="m 120,96 c 0,4.92 -1.48,9.49 -4.02,13.30 -4.30,6.45 -11.97,-23.29 -20.31,-23.29 -7.93,0 -14.64,30.14 -19.01,24.21 C 73.73,106.24 72,101.32 72,96 72,82.75 82.75,72 96,72 c 13.25,0 24,10.75 24,24 z"/></svg>