<?xml version='1.0' encoding='utf-8'?>
<svg xmlns="http://www.w3.org/2000/svg" width="192" height="192" version="1" id="svg6">
  <defs>
    <filter id="filter1465" style="color-interpolation-filters:sRGB" width="1.11" height="1.09" x="0.05" y="0.04">
      <feGaussianBlur stdDeviation="2.84"/>
    </filter>
    <filter id="filter1625" style="color-interpolation-filters:sRGB" width="1.10" height="1.29" x="0.05" y="0.14">
      <feGaussianBlur stdDeviation="1.19"/>
    </filter>
    <filter id="filter1667" style="color-interpolation-filters:sRGB" width="1.10" height="1.10" x="0.05" y="0.05">
      <feGaussianBlur stdDeviation="1.72"/>
    </filter>
  </defs>
  <path style="filter:url(#filter1465);opacity:0.20" d="M 159,169.10 V 26.90 C 159,22.52 155.49,19 151.12,19 H 40.87 c -4.36,0 -7.88,3.52 -7.88,7.90 v 142.20 c 0,4.38 3.51,7.90 7.88,7.90 H 151.12 c 4.36,0 7.88,-3.52 7.88,-7.90 z"/>
  <path fill="#e4e4e4" d="M 159,167.10 V 24.90 C 159,20.52 155.49,17 151.12,17 H 40.87 c -4.36,0 -7.88,3.52 -7.88,7.90 v 142.20 c 0,4.38 3.51,7.90 7.88,7.90 H 151.12 c 4.36,0 7.88,-3.52 7.88,-7.90 z"/>
  <circle style="filter:url(#filter1667);opacity:0.20" cx="143" cy="145" r="43"/>
  <circle style="fill:#ff9d0b" cx="143" cy="143" r="43"/>
  <path style="fill:#f43737" d="M 33,32 V 68 H 97.00 C 101.43,68 105,64.43 105,60 V 40 c 0,-4.43 -3.57,-8 -8.00,-8 z"/>
  <path style="filter:url(#filter1625);opacity:0.20" d="m 41,41 v 20 h 4 v -7.91 h 3.60 c 2,0 3.61,0.28 4.83,0.84 1.24,0.56 2.15,-1.34 2.70,-2.33 C 56.71,48.91 57,48.54 57,47.22 57,45.24 56.33,43.71 55,42.62 53.67,41.54 51.63,41 48.90,41 Z m 20,0 v 20 h 6.40 c 2.95,0 5.28,0.88 7.01,-2.63 C 76.13,56.61 77,54.10 77,50.83 77,47.58 76.16,45.14 74.47,43.49 72.80,41.83 70.56,41 67.73,41 Z m 20,0 v 20 h 4 v -8 h 8.00 V 49 H 85 v -4 h 12.00 v -4 z m -36,4 h 3.76 c 1.47,0 2.54,0.16 3.22,0.48 C 52.66,45.81 53,46.30 53,46.96 53,47.61 52.58,48.12 51.73,48.48 50.92,48.83 49.66,49 47.98,49 H 45 Z m 20,0 h 2.41 c 1.86,0 3.26,0.47 4.19,1.41 C 72.53,47.34 73,48.82 73,50.88 73,52.94 72.51,54.48 71.54,55.48 70.59,56.49 69.07,57 67.01,57 H 65 Z"/>
  <path style="fill:#ffffff" d="m 41,40 v 20 h 4 v -7.91 h 3.60 c 2,0 3.61,0.28 4.83,0.84 1.24,0.56 2.15,-1.34 2.70,-2.33 C 56.71,47.91 57,47.54 57,46.22 57,44.24 56.33,42.71 55,41.62 53.67,40.54 51.63,40 48.90,40 Z m 20,0 v 20 h 6.40 c 2.95,0 5.28,0.88 7.01,-2.63 C 76.13,55.61 77,53.10 77,49.83 77,46.58 76.16,44.14 74.47,42.49 72.80,40.83 70.56,40 67.73,40 Z m 20,0 v 20 h 4 v -8 h 8.00 V 48 H 85 v -4 h 12.00 v -4 z m -36,4 h 3.76 c 1.47,0 2.54,0.16 3.22,0.48 C 52.66,44.81 53,45.30 53,45.96 53,46.61 52.58,47.12 51.73,47.48 50.92,47.83 49.66,48 47.98,48 H 45 Z m 20,0 h 2.41 c 1.86,0 3.26,0.47 4.19,1.41 C 72.53,46.34 73,47.82 73,49.88 73,51.94 72.51,53.48 71.54,54.48 70.59,55.49 69.07,56 67.01,56 H 65 Z"/>
  <path style="fill:#ffffff" d="m 143.06,117.00 a 4.00,4.00 0 1 0 0,8.00 c 5.27,0 10.27,2.30 13.69,6.31 2.80,3.28 4.29,7.44 4.29,11.69 h -8.03 l 6.00,8.00 6.00,8.00 6.00,-8.00 L 177.00,143 h -7.98 c 0.00,-6.15 -2.14,-12.15 -6.19,-16.89 -4.94,-5.78 -12.17,-9.11 -19.77,-9.11 z m -22.06,10.00 -6.00,8.00 L 109.00,143 h 7.98 c 0.00,6.15 2.14,12.15 6.19,16.89 4.94,5.78 12.17,9.11 19.77,9.11 a 4.00,4.00 0 1 0 0,-8.00 c -5.27,0 -10.27,-2.30 -13.69,-6.31 -2.80,-3.28 -4.29,-7.44 -4.29,-11.69 h 8.03 l -6.00,-8.00 z"/>
</svg>
