<?xml version='1.0' encoding='utf-8'?>
<svg xmlns="http://www.w3.org/2000/svg" width="192" height="192" version="1" id="svg12">
  <defs>
    <filter style="color-interpolation-filters:sRGB" id="filter883" x="0.06" width="1.12" y="0.04" height="1.08">
      <feGaussianBlur stdDeviation="2.11"/>
    </filter>
    <filter style="color-interpolation-filters:sRGB" id="filter887" x="0.05" width="1.11" y="0.04" height="1.09">
      <feGaussianBlur stdDeviation="2.49"/>
    </filter>
  </defs>
  <path style="filter:url(#filter883);opacity:0.20;fill:#000000" d="M 36.54,132.17 C 25.29,118.26 15.61,105.95 15.03,104.82 c -1.47,-2.85 -1.35,-6.95 0.29,-10.13 1.34,-2.58 49.64,-62.69 49.64,-62.69 0,0 7.45,9.03 15.75,19.30 13.14,16.27 19.54,14.81 18.89,15.69 L 72.29,99.89 c 0,0 7.11,9.17 11.57,15.09 2.95,3.92 4.16,7.10 1.07,10.96 l -10.07,12.59 c -6.85,8.58 -10.69,13.32 -12.99,15.91 -3.32,4.24 -4.63,2.52 -7.08,0.25 -3.50,-3.96 -9.69,-11.43 -18.26,-22.02 z"/>
  <path style="fill:#0563ba" d="M 36.54,128.17 C 25.29,114.26 15.61,101.95 15.03,100.82 c -1.47,-2.85 -1.35,-6.95 0.29,-10.13 1.34,-2.58 49.64,-62.69 49.64,-62.69 0,0 7.45,9.03 15.75,19.30 13.14,16.27 19.54,14.81 18.89,15.69 L 72.29,95.89 c 0,0 7.11,9.17 11.57,15.09 2.95,3.92 4.16,7.10 1.07,10.96 l -10.07,12.59 c -6.85,8.58 -10.69,13.32 -12.99,15.91 -3.32,4.24 -4.63,2.52 -7.08,0.25 -3.50,-3.96 -9.69,-11.43 -18.26,-22.02 z"/>
  <path style="filter:url(#filter887);opacity:0.20;fill:#000000" d="m 64.97,32.00 c 0,0 35.50,44.84 54.06,68.00 0,0 -8.47,11.36 -25.01,31.88 -10.32,12.80 -19.26,24.13 -23.34,29.52 -2.51,2.96 -2.04,6.53 1.33,6.60 h 48.87 c 4.20,0 5.69,0.79 7.65,-3.03 9.73,-11.13 45.70,-55.32 47.96,-59.13 3.89,-7.14 0.51,-11.91 -3.92,-16.37 -12.21,-15.99 -42.97,-54.28 -45.41,-56.18 -1.65,-1.28 -1.75,-1.29 -31.91,-1.29 z"/>
  <path style="fill:#14b6fc" d="m 64.97,28.00 c 0,0 35.50,44.84 54.06,68.00 0,0 -8.47,11.36 -25.01,31.88 -10.32,12.80 -19.26,24.13 -23.34,29.52 -2.51,2.96 -2.04,6.53 1.33,6.60 h 48.87 c 4.20,0 5.69,0.79 7.65,-3.03 9.73,-11.13 45.70,-55.32 47.96,-59.13 3.89,-7.14 0.51,-11.91 -3.92,-16.37 -12.21,-15.99 -42.97,-54.28 -45.41,-56.18 -1.65,-1.28 -1.75,-1.29 -31.91,-1.29 z"/>
  <path style="opacity:0.10;fill:#ffffff" d="m 64.97,28 c 0,0 -48.31,60.11 -49.64,62.69 0.94,1.82 -1.37,3.94 -1.30,5.96 0.08,-1.70 0.51,-3.44 1.30,-4.96 C 16.66,89.11 64.97,29 64.97,29 c 0,0 0.00,-1.00 0,-1 z m 7.72,68.41 0.40,0.48 c 0,0 7.11,9.17 11.57,15.09 1.61,2.13 2.69,4.05 2.85,5.97 0.20,-2.27 0.97,-4.47 -2.85,-6.97 C 79.62,105.35 73.33,97.23 72.69,96.41 Z"/>
  <path style="opacity:0.20;fill:#ffffff" d="M 64.97 28 C 64.97 28 65.73 28.97 65.76 29 L 95.23 29 C 125.40 29 125.50 29.00 127.15 30.29 C 129.59 32.19 160.35 70.48 172.56 86.47 C 174.93 89.58 177.78 92.84 177.98 96.95 C 178.24 92.36 175.12 88.83 172.56 85.47 C 160.35 69.48 129.59 31.19 127.15 29.29 C 125.50 28.00 125.40 28 95.23 28 L 64.97 28 z M 118.63 96.51 C 117.66 97.81 109.54 108.61 94.01 127.88 C 83.69 140.68 74.74 152.01 70.67 157.40 C 69.46 158.83 68.95 160.40 69.12 161.66 C 69.25 160.62 69.76 159.47 70.67 158.40 C 74.74 153.01 83.69 141.68 94.01 128.88 C 110.55 108.36 119.02 97 119.02 97 C 118.91 96.86 118.74 96.65 118.63 96.51 z "/>
</svg>
