<svg xmlns="http://www.w3.org/2000/svg" id="svg12" width="192" height="192" version="1"><defs><filter style="color-interpolation-filters:sRGB" id="filter845" width="1.1" height="1.1" x=".05" y=".05"><feGaussianBlur stdDeviation="3.2"/></filter><filter style="color-interpolation-filters:sRGB" id="filter849" width="1.1" height="1.09" x=".05" y=".05"><feGaussianBlur stdDeviation="2.04"/></filter></defs><path style="filter:url(#filter845);opacity:.2" d="M 36.00,20 A 20.04,20.07 0 0 0 16.00,40 v 120 c 0,11 9.00,20 20.00,20 H 156.00 C 167.00,180 176,171 176,160 V 40 c 0,-11 -9.00,-20 -20.00,-20 z"/><path style="fill:#e44332" d="M 36.00,16 A 20.04,20.07 0 0 0 16.00,36 v 120 c 0,11 9.00,20 20.00,20 H 156.00 C 167.00,176 176,167 176,156 V 36 c 0,-11 -9.00,-20 -20.00,-20 z"/><path style="filter:url(#filter849);opacity:.2" d="m 106.84,43.00 a 5.05,5.19 0 0 0 -2.57,0.70 c 0.78,0.47 -52.52,31.35 -54.24,32.37 -2.07,1.22 -4.63,1.24 -6.70,0 L 16,59.59 v 14.01 c 6.65,4.02 23.19,14.02 27.20,16.37 2.39,1.40 4.68,1.37 6.99,0.02 l 64.76,-38.69 c 1.38,0.83 1.45,-3.37 0.10,-4.29 -1.55,0.92 -4.49,-2.66 -5.59,-3.33 a 5.05,5.19 0 0 0 -2.42,0.65 z m 0,28.00 a 5.05,5.19 0 0 0 -2.57,0.70 c 0.78,0.47 -52.52,31.35 -54.24,32.37 -2.07,1.22 -4.63,1.24 -6.70,0 L 16,87.58 v 14.01 c 6.65,4.02 23.19,14.02 27.20,16.37 2.39,1.40 4.68,1.37 6.99,0.02 l 64.76,-38.69 c 1.38,0.83 1.45,-3.37 0.10,-4.29 -1.55,0.92 -4.49,-2.66 -5.59,-3.33 a 5.05,5.19 0 0 0 -2.42,0.65 z m 0,28.00 a 5.05,5.19 0 0 0 -2.57,0.70 c 0.78,0.47 -52.52,31.35 -54.24,32.37 -2.07,1.22 -4.63,1.24 -6.70,0 L 16,115.58 v 14.01 c 6.65,4.02 23.19,14.02 27.20,16.37 2.39,1.40 4.68,1.37 6.99,0.02 l 64.76,-38.69 c 1.38,0.83 1.45,-3.37 0.10,-4.29 -1.55,0.92 -4.49,-2.66 -5.59,-3.33 a 5.05,5.19 0 0 0 -2.42,0.65 z"/><path style="fill:#fff" d="m 106.84,40.00 a 5.05,5.19 0 0 0 -2.57,0.70 c 0.78,0.47 -52.52,31.35 -54.24,32.37 -2.07,1.22 -4.63,1.24 -6.70,0 L 16,56.59 v 14.01 c 6.65,4.02 23.19,14.02 27.20,16.37 2.39,1.40 4.68,1.37 6.99,0.02 l 64.76,-38.69 c 1.38,0.83 1.45,-3.37 0.10,-4.29 -1.55,0.92 -4.49,-2.66 -5.59,-3.33 a 5.05,5.19 0 0 0 -2.42,0.65 z m 0,28.00 a 5.05,5.19 0 0 0 -2.57,0.70 C 103.49,69.17 51.75,100.06 50.02,101.07 c -2.07,1.22 -4.63,1.24 -6.70,0 L 16,84.58 v 14.01 c 6.65,4.02 23.19,14.02 27.20,16.37 2.39,1.40 4.68,1.37 6.99,0.02 l 64.76,-38.69 c 1.38,0.83 1.45,-3.37 0.10,-4.29 -1.55,0.92 -4.49,-2.66 -5.59,-3.33 a 5.05,5.19 0 0 0 -2.42,0.65 z m 0,28.00 a 5.05,5.19 0 0 0 -2.57,0.70 C 103.49,97.17 51.75,128.05 50.02,129.07 c -2.07,1.22 -4.63,1.24 -6.70,0 L 16,112.58 v 14.01 c 6.65,4.02 23.19,14.02 27.20,16.37 2.39,1.40 4.68,1.37 6.99,0.02 l 64.76,-38.69 c 1.38,0.83 1.45,-3.37 0.10,-4.29 -1.55,0.92 -4.49,-2.66 -5.59,-3.33 a 5.05,5.19 0 0 0 -2.42,0.65 z"/><path style="opacity:.2;fill:#fff" d="M 36 16 A 20.04 20.07 0 0 0 16 36 L 16 37 A 20.04 20.07 0 0 1 36 17 L 156 17 C 167.00 17 176 26 176 37 L 176 36 C 176 25 167.00 16 156 16 L 36 16 z"/></svg>