<svg xmlns="http://www.w3.org/2000/svg" id="svg18" width="192" height="192" version="1"><defs><filter style="color-interpolation-filters:sRGB" id="filter861" width="1.1" height="1.1" x=".05" y=".05"><feGaussianBlur stdDeviation="3.2"/></filter><filter style="color-interpolation-filters:sRGB" id="filter882" width="1.06" height="1.22" x=".03" y=".11"><feGaussianBlur stdDeviation="1.12"/></filter></defs><rect style="filter:url(#filter861);opacity:.2;fill:#000" width="160" height="160" x="-180" y="-176" rx="80" ry="80" transform="matrix(0,-1,-1,0,0,0)"/><rect width="160" height="160" x="-176" y="-176" rx="80" ry="80" transform="matrix(0,-1,-1,0,0,0)" style="fill:#36b5e5"/><circle cx="96" cy="96" r="64" style="fill:#3f3f3f"/><rect width="88" height="24" x="52" y="86" style="filter:url(#filter882);opacity:.2"/><rect width="88" height="24" x="52" y="84" style="fill:#36b5e5"/><rect width="88" height="1" x="52" y="-85" transform="scale(1,-1)" style="opacity:.2;fill:#fff"/><path style="opacity:.2;fill:#fff" d="M 96 16 C 51.68 16 16 51.68 16 96 C 16 96.17 16.00 96.33 16.01 96.50 C 16.27 52.41 51.85 17 96 17 C 140.15 17 175.73 52.41 175.99 96.50 C 176.00 96.33 176 96.17 176 96 C 176 51.68 140.32 16 96 16 z"/></svg>