<?xml version='1.0' encoding='utf-8'?>
<svg xmlns="http://www.w3.org/2000/svg" width="192" height="192" version="1" id="svg28">
  <defs>
    <filter style="color-interpolation-filters:sRGB" id="filter20739" x="-0.036000001" y="-0.071999998" width="1.072" height="1.144">
      <feGaussianBlur stdDeviation="2.46"/>
    </filter>
    <filter style="color-interpolation-filters:sRGB" id="filter20781" x="-0.082638883" y="-0.068653844" width="1.1652778" height="1.1373077">
      <feGaussianBlur stdDeviation="3.7187499"/>
    </filter>
  </defs>
  <path style="filter:url(#filter20739);opacity:0.2;fill:#000000" d="m 55,81.000006 a 41,41 0 0 0 -41,41.000004 41,41 0 0 0 41,41 h 41 41 a 41,41 0 0 0 41,-41 A 41,41 0 0 0 137,81.000006 41,41 0 0 0 96,122.00001 41,41 0 0 0 55,81.000006 Z"/>
  <path style="fill:#2cd4ed" d="m 55,77.000006 a 41,41 0 0 0 -41,41.000004 41,41 0 0 0 41,41 h 41 v -41 A 41,41 0 0 0 55,77.000006 Z"/>
  <path style="fill:#3169ff" d="m 137,77.000006 a 41,41 0 0 1 41,41.000004 41,41 0 0 1 -41,41 H 96 v -41 a 41,41 0 0 1 41,-41.000004 z"/>
  <path style="filter:url(#filter20781);opacity:0.2;fill:#000000" d="m 57.816237,46.771652 a 53.999999,53.847765 0 0 1 76.367533,10e-7 53.999999,53.847765 0 0 1 0,76.152247 L 96,161.00001 57.816237,122.9239 a 53.999999,53.847765 0 0 1 0,-76.152248 z"/>
  <path style="fill:#1988e0" d="m 57.816237,44.771652 a 53.999999,53.847765 0 0 1 76.367533,10e-7 53.999999,53.847765 0 0 1 0,76.152247 L 96,159.00001 57.816237,120.9239 a 53.999999,53.847765 0 0 1 0,-76.152248 z"/>
  <path style="opacity:0.2;fill:#ffffff" d="M 96,29.000006 A 53.999999,53.847765 0 0 0 57.816406,44.77149 53.999999,53.847765 0 0 0 42.039062,83.347662 53.999999,53.847765 0 0 1 57.816406,45.77149 a 53.999999,53.847765 0 0 1 76.367184,0 53.999999,53.847765 0 0 1 15.80274,37.576172 A 53.999999,53.847765 0 0 0 134.18359,44.77149 53.999999,53.847765 0 0 0 96,29.000006 Z"/>
  <path style="fill:#0db4e2" d="M 55,77.000006 A 41,41 0 0 0 42.296875,79.08985 53.999999,53.847765 0 0 0 57.816406,120.92384 L 96,159.00001 v -41 A 41,41 0 0 0 55,77.000006 Z"/>
  <path style="opacity:0.1;fill:#ffffff" d="M 137,77.000006 A 41,41 0 0 0 96,118.00001 v 1 A 41,41 0 0 1 137,78.000006 41,41 0 0 1 177.98242,118.25392 41,41 0 0 0 178,118.00001 41,41 0 0 0 137,77.000006 Z"/>
  <path style="fill:#3153ff" d="M 137,77.000006 A 41,41 0 0 0 96,118.00001 v 41 l 38.18359,-38.07617 A 53.999999,53.847765 0 0 0 149.85156,79.078131 41,41 0 0 0 137,77.000006 Z"/>
  <path style="opacity:0.2;fill:#ffffff" d="m 55,77.000006 a 41,41 0 0 0 -41,41.000004 41,41 0 0 0 0.03516,0.5 A 41,41 0 0 1 55,78.000006 41,41 0 0 1 96,119.00001 v -1 A 41,41 0 0 0 55,77.000006 Z"/>
</svg>
