<?xml version='1.0' encoding='utf-8'?>
<svg xmlns="http://www.w3.org/2000/svg" width="192" height="192" version="1" id="svg28">
  <defs>
    <filter style="color-interpolation-filters:sRGB" id="filter2627" x="0.05" y="0.05" width="1.10" height="1.10">
      <feGaussianBlur stdDeviation="3.20"/>
    </filter>
    <filter style="color-interpolation-filters:sRGB" id="filter6255" x="0.05" y="0.05" width="1.10" height="1.10">
      <feGaussianBlur stdDeviation="1.81"/>
    </filter>
    <filter style="color-interpolation-filters:sRGB" id="filter6297" x="0.05" y="0.05" width="1.10" height="1.10">
      <feGaussianBlur stdDeviation="2.24"/>
    </filter>
  </defs>
  <rect transform="matrix(0,-1,-1,0,0,0)" ry="24.00" rx="24.00" y="-176" x="-180" height="160" width="160" style="filter:url(#filter2627);opacity:0.20;fill:#000000"/>
  <rect transform="matrix(0,-1,-1,0,0,0)" ry="24.00" rx="24.00" y="-176" x="-176" height="160" width="160" style="fill:#3f3f3f"/>
  <circle style="filter:url(#filter6297);opacity:0.20;fill:#000000" cx="96" cy="99" r="56"/>
  <circle style="fill:#747474" cx="96" cy="96" r="56"/>
  <path style="filter:url(#filter6255);opacity:0.20;fill:#000000" d="M 96,53 A 45,45 0 0 0 67.93,62.95 45,45 0 0 0 51,98 45,45 0 0 0 52.02,107 45,45 0 0 0 80.23,140.02 45,45 0 0 0 96,143 45,45 0 0 0 124.17,132.98 45,45 0 0 0 141,98 45,45 0 0 0 140.09,89 45,45 0 0 0 111.41,55.73 45,45 0 0 0 96,53 Z"/>
  <path style="opacity:0.10;fill:#ffffff" d="M 40,16 C 26.70,16 16,26.70 16,40 v 1 C 16,27.70 26.70,17 40,17 h 112 c 13.30,0 24,10.70 24,24 V 40 C 176,26.70 165.30,16 152,16 Z"/>
  <circle style="fill:#ffffff" cx="96" cy="96" r="3.57"/>
  <path style="fill:#db6ded" d="M 96,51 A 45,45 0 0 0 67.93,60.95 L 81.12,85.91 96,96 100.12,77.42 111.41,53.73 A 45,45 0 0 0 96,51 Z"/>
  <path style="fill:#009aff" d="M 111.41,53.73 100.12,77.42 113.39,87 h 26.70 A 45,45 0 0 0 111.41,53.73 Z"/>
  <path style="fill:#0b9b29" d="m 113.39,87 -3.82,18.64 14.61,25.34 A 45,45 0 0 0 141,96 45,45 0 0 0 140.09,87 Z"/>
  <path style="fill:#fdea23" d="M 102.93,99.83 89.98,115.46 80.23,138.02 A 45,45 0 0 0 96,141 45,45 0 0 0 124.17,130.98 l -14.61,-25.34 z"/>
  <path style="fill:#ff9311" d="m 52.02,105 a 45,45 0 0 0 28.21,33.02 L 89.98,115.46 73.13,105 Z"/>
  <path style="fill:#ef2937" d="M 67.93,60.95 A 45,45 0 0 0 51,96 a 45,45 0 0 0 1.02,9 h 21.10 l 7.99,-19.09 z"/>
  <circle style="fill:#323232" cx="96" cy="96" r="27"/>
  <circle style="opacity:0.50;fill:#ffffff" cx="86" cy="83" r="5"/>
  <circle style="opacity:0.50;fill:#ffffff" cx="91.50" cy="89.50" r="1.50"/>
  <path style="opacity:0.20;fill:#ffffff" d="M 96,51 C 85.78,51.03 75.88,54.54 67.93,60.95 57.26,69.46 51.04,82.35 51,96 c 0.01,0.17 0.02,0.34 0.03,0.51 C 51.21,83.04 57.41,70.36 67.93,61.95 75.88,55.54 85.78,52.03 96,52 c 5.26,0.00 10.47,0.93 15.41,2.73 14.69,5.36 25.54,17.95 28.67,33.27 0.56,2.78 0.86,5.60 0.88,8.44 C 140.98,96.29 140.99,96.15 141,96 141.00,92.98 140.69,89.96 140.09,87 136.96,71.68 126.10,59.09 111.41,53.73 106.47,51.93 101.26,51.00 96,51 Z"/>
</svg>
