<?xml version='1.0' encoding='utf-8'?>
<svg xmlns="http://www.w3.org/2000/svg" width="192" height="192" version="1" id="svg20">
  <defs>
    <filter style="color-interpolation-filters:sRGB" id="filter979" x="-0.047999999" y="-0.047999999" width="1.096" height="1.096">
      <feGaussianBlur stdDeviation="3.199992"/>
    </filter>
    <filter style="color-interpolation-filters:sRGB" id="filter983" x="-0.048052914" y="-0.047947201" width="1.0961058" height="1.0958944">
      <feGaussianBlur stdDeviation="0.56061734"/>
    </filter>
  </defs>
  <path fill="#e4e4e4" d="M 95.9998,20.0004 C 51.679911,20.0004 16,55.680311 16,100.0002 16,144.32009 51.679911,180 95.9998,180 c 44.31989,0 79.9998,-35.67991 79.9998,-79.9998 0,-44.319889 -35.67991,-79.9998 -79.9998,-79.9998 z" style="filter:url(#filter979);opacity:0.2;fill:#000000"/>
  <path fill="#e4e4e4" d="M 95.9998,16.00041 C 51.679911,16.00041 16,51.680321 16,96.00021 c 0,44.31989 35.679911,79.9998 79.9998,79.9998 44.31989,0 79.9998,-35.67991 79.9998,-79.9998 0,-44.319889 -35.67991,-79.9998 -79.9998,-79.9998 z"/>
  <path style="opacity:0.2;fill:#ffffff" d="M 96 16 C 51.720621 16.001055 16.074219 51.680766 16.074219 96 C 16.074219 96.173768 16.082606 96.344913 16.085938 96.517578 C 16.344936 52.423385 51.882296 17.001051 96 17 L 96.001953 17 C 140.11926 17.001051 175.65701 52.423385 175.91602 96.517578 C 175.91945 96.344913 175.92773 96.173768 175.92773 96 C 175.92773 51.680766 140.28093 16.001055 96.001953 16 L 96 16 z "/>
  <g opacity="0.2" transform="matrix(3.99999,0,0,3.99999,4.00005e-5,1.8769128)" style="filter:url(#filter983)">
    <path d="m 17,12 c -4.3628,2.4872 -6.9929,6.978 -7,12 0.0092,6.9171 5.1605,12.966 12,14 0.49038,0.05185 0.63898,0.02889 1,0 3.3137,0 6,-2.6863 6,-6 -0.003,-2.2743 -1.2841,-4.305 -3.2344,-5.3174 0,0 -2.1544,-0.98728 -3.1074,-1.499 -1.381,-0.691 -2.9,-1.302 -4.347,-2.186 -0.724,-0.442 -1.455,-0.958 -2.112,-1.756 -0.656,-0.797 -1.199,-1.992 -1.199,-3.242 0,-2.4249 0.87659,-4.2729 2,-6 z"/>
    <path d="m 31,36 c 4.3628,-2.4872 6.9929,-6.978 7,-12 -0.0092,-6.9171 -5.1605,-12.966 -12,-14 -0.49038,-0.05185 -0.63898,-0.02889 -1,0 -3.3137,0 -6,2.6863 -6,6 0.003,2.2743 1.2841,4.305 3.2344,5.3174 0,0 2.1544,0.98728 3.1074,1.499 1.3807,0.69037 2.9005,1.3012 4.3477,2.1855 0.72357,0.44218 1.4546,0.95846 2.1113,1.7559 0.656,0.797 1.199,1.992 1.199,3.242 0,2.4249 -0.87659,4.2729 -2,6 z"/>
  </g>
  <g fill="#2b8ae2" transform="matrix(3.99999,0,0,3.99999,4.00005e-5,4.5e-4)" style="fill:#325fc9">
    <path d="m 17,12 c -4.3628,2.4872 -6.9929,6.978 -7,12 0.0092,6.9171 5.1605,12.966 12,14 0.49038,0.05185 0.63898,0.02889 1,0 3.3137,0 6,-2.6863 6,-6 -0.003,-2.2743 -1.2841,-4.305 -3.2344,-5.3174 0,0 -2.1544,-0.98728 -3.1074,-1.499 -1.381,-0.691 -2.9,-1.302 -4.347,-2.186 -0.724,-0.442 -1.455,-0.958 -2.112,-1.756 -0.656,-0.797 -1.199,-1.992 -1.199,-3.242 0,-2.4249 0.87659,-4.2729 2,-6 z" style="fill:#325fc9"/>
    <path d="m 31,36 c 4.3628,-2.4872 6.9929,-6.978 7,-12 -0.0092,-6.9171 -5.1605,-12.966 -12,-14 -0.49038,-0.05185 -0.63898,-0.02889 -1,0 -3.3137,0 -6,2.6863 -6,6 0.003,2.2743 1.2841,4.305 3.2344,5.3174 0,0 2.1544,0.98728 3.1074,1.499 1.3807,0.69037 2.9005,1.3012 4.3477,2.1855 0.72357,0.44218 1.4546,0.95846 2.1113,1.7559 0.656,0.797 1.199,1.992 1.199,3.242 0,2.4249 -0.87659,4.2729 -2,6 z" style="fill:#325fc9"/>
  </g>
</svg>
