<?xml version='1.0' encoding='utf-8'?>
<svg xmlns="http://www.w3.org/2000/svg" width="192" height="192" version="1" id="svg28">
  <defs>
    <filter style="color-interpolation-filters:sRGB" id="filter14093" x="0.05" y="0.04" width="1.11" height="1.09">
      <feGaussianBlur stdDeviation="2.94"/>
    </filter>
    <filter style="color-interpolation-filters:sRGB" id="filter14097" x="0.08" y="0.07" width="1.16" height="1.14">
      <feGaussianBlur stdDeviation="3.56"/>
    </filter>
  </defs>
  <path style="filter:url(#filter14093);opacity:0.20;fill:#000000;color:#000000" d="m 95.57,180 c 0,0 -34.73,-34.53 -46.89,-46.62 C 36.55,121.32 29,104.71 29,86.50 29,76.57 31.26,67.13 35.26,58.64 45.97,35.92 69.26,20 96,20 132.74,20 163,50.03 163,86.50 163,107.86 150.88,125.03 136.62,139.19 122.10,153.59 95.57,180 95.57,180 Z"/>
  <path style="opacity:0.20;fill:#ffffff;color:#000000" d="M 95.57 14.79 C 95.57 14.79 60.84 49.58 48.68 61.76 C 36.55 73.92 29 90.65 29 109 C 29 109.16 29.01 109.32 29.01 109.48 C 29.16 91.33 36.66 74.80 48.68 62.76 C 60.84 50.58 95.57 15.79 95.57 15.79 C 95.57 15.79 122.10 42.39 136.62 56.91 C 150.78 71.07 162.82 88.25 162.98 109.58 C 162.99 109.38 163 109.19 163 109 C 163 87.48 150.88 70.17 136.62 55.91 C 122.10 41.39 95.57 14.79 95.57 14.79 z "/>
  <path style="fill:#3d44ac;color:#000000" d="m 95.57,176 c 0,0 -34.73,-34.53 -46.89,-46.62 C 36.55,117.32 29,100.71 29,82.50 29,72.57 31.26,63.13 35.26,54.64 45.97,31.92 69.26,16 96,16 132.74,16 163,46.03 163,82.50 163,103.86 150.88,121.03 136.62,135.19 122.10,149.59 95.57,176 95.57,176 Z"/>
  <path style="filter:url(#filter14097);opacity:0.20;fill:#000000;color:#000000" d="m 96,33.00 c -20.79,0 -38.89,12.45 -47.17,30.03 C 45.72,69.62 44,76.85 44,84.50 c 0,14.07 5.80,26.84 15.26,36.24 9.42,9.36 26.44,26.29 36.31,36.11 8.25,-8.21 19.69,-19.60 30.48,-30.31 C 139.02,113.67 148,100.18 148,84.50 148,56.33 124.57,33.00 96,33.00 Z m 0,10 c 23.13,0 42,18.87 42,41.50 0,11.87 -6.87,22.91 -19.00,34.95 -8.30,8.23 -16.12,16.02 -23.43,23.30 C 85.83,133.05 73.90,121.20 66.31,113.65 58.61,106.00 54,95.82 54,84.50 54,78.35 55.37,72.62 57.88,67.29 64.54,53.15 79.20,43.00 96,43.00 Z m -15,11 v 10 h 30 v -10 z m 15,16 a 23,23 0 0 0 -23,23 23,23 0 0 0 23,23 23,23 0 0 0 23,-23 23,23 0 0 0 -23,-23 z m 0,10 a 13,13 0 0 1 13,13 13,13 0 0 1 -13,13 13,13 0 0 1 -13,-13 13,13 0 0 1 13,-13 z"/>
  <path style="fill:#00fbec;color:#000000" d="M 96 31 C 75.21 31 57.11 43.45 48.83 61.03 C 45.72 67.62 44 74.85 44 82.50 C 44 96.57 49.80 109.34 59.26 118.74 C 68.68 128.10 85.70 145.03 95.57 154.85 C 103.82 146.64 115.26 135.25 126.05 124.54 C 139.02 111.67 148 98.18 148 82.50 C 148 54.33 124.57 31 96 31 z M 96 41 C 119.13 41 138 59.87 138 82.50 C 138 94.36 131.13 105.41 119.00 117.44 C 110.71 125.68 102.89 133.46 95.57 140.74 C 85.83 131.05 73.90 119.20 66.31 111.65 C 58.61 104.00 54 93.82 54 82.50 C 54 76.35 55.37 70.62 57.88 65.29 C 64.54 51.15 79.20 41 96 41 z M 81 52 L 81 62 L 111 62 L 111 52 L 81 52 z M 96 68 A 23 23 0 0 0 73 91 A 23 23 0 0 0 96 114 A 23 23 0 0 0 119 91 A 23 23 0 0 0 96 68 z M 96 78 A 13 13 0 0 1 109 91 A 13 13 0 0 1 96 104 A 13 13 0 0 1 83 91 A 13 13 0 0 1 96 78 z "/>
  <path style="opacity:0.20;fill:#ffffff;color:#000000" d="M 96 31 C 75.21 31 57.11 43.45 48.83 61.03 C 45.72 67.62 44 74.85 44 82.50 C 44 82.67 44.01 82.84 44.01 83.02 C 44.08 75.54 45.79 68.48 48.83 62.03 C 57.11 44.45 75.21 32 96 32 C 124.37 32 147.67 55.01 147.98 82.92 C 147.99 82.78 148 82.64 148 82.50 C 148 54.33 124.57 31 96 31 z M 81 52 L 81 53 L 111 53 L 111 52 L 81 52 z M 96 68 A 23 23 0 0 0 73 91 A 23 23 0 0 0 73.06 91.50 A 23 23 0 0 1 96 69 A 23 23 0 0 1 118.97 91.26 A 23 23 0 0 0 119 91 A 23 23 0 0 0 96 68 z M 137.98 82.91 C 137.82 94.62 130.99 105.55 119.00 117.44 C 110.71 125.68 102.89 133.46 95.57 140.74 C 85.83 131.05 73.90 119.20 66.31 111.65 C 58.73 104.12 54.16 94.13 54.01 83.03 C 54.01 83.18 54 83.34 54 83.50 C 54 94.82 58.61 105.00 66.31 112.65 C 73.90 120.20 85.83 132.05 95.57 141.74 C 102.89 134.46 110.71 126.68 119.00 118.44 C 131.13 106.41 138 95.36 138 83.50 C 138 83.30 137.99 83.11 137.98 82.91 z M 108.96 91.25 A 13 13 0 0 1 96 104 A 13 13 0 0 1 83.08 91.50 A 13 13 0 0 0 83 92 A 13 13 0 0 0 96 105 A 13 13 0 0 0 109 92 A 13 13 0 0 0 108.96 91.25 z "/>
  <path style="opacity:0.10;fill:#ffffff;color:#000000" d="M 96 16 C 69.26 16 45.97 31.92 35.26 54.64 C 31.26 63.13 29 72.57 29 82.50 C 29 82.67 29.01 82.84 29.01 83.02 C 29.09 73.27 31.32 64.00 35.26 55.64 C 45.97 32.92 69.26 17 96 17 C 132.55 17 162.67 46.72 162.98 82.92 C 162.99 82.78 163 82.64 163 82.50 C 163 46.03 132.74 16 96 16 z "/>
</svg>
