<?xml version='1.0' encoding='utf-8'?>
<svg xmlns="http://www.w3.org/2000/svg" width="192" height="192" version="1" id="svg14">
  <defs>
    <filter style="color-interpolation-filters:sRGB" id="filter850" x="-0.048000001" width="1.096" y="-0.048000001" height="1.096">
      <feGaussianBlur stdDeviation="3.2"/>
    </filter>
    <filter style="color-interpolation-filters:sRGB" id="filter10211" x="-0.075" y="-0.075" width="1.15" height="1.15">
      <feGaussianBlur stdDeviation="4"/>
    </filter>
    <filter style="color-interpolation-filters:sRGB" id="filter10253" x="-0.12304544" y="-0.096233051" width="1.2460909" height="1.1924661">
      <feGaussianBlur stdDeviation="2.5121778"/>
    </filter>
  </defs>
  <circle style="filter:url(#filter850);opacity:0.2;fill:#000000" cx="96" cy="100" r="80"/>
  <circle r="80" cy="96" cx="96" style="fill:#47a2fd"/>
  <circle style="filter:url(#filter10211);opacity:0.2;fill:#000000" cx="96" cy="98" r="64"/>
  <path style="fill:#38adfa" d="m 688.80525,256.99648 c -0.33229,-0.33229 -1.1948,-0.36781 -1.91667,-0.0789 -0.79773,0.31922 -0.56078,0.55618 0.60417,0.60416 1.05416,0.0434 1.64479,-0.19293 1.3125,-0.52522 z"/>
  <path style="opacity:0.2;fill:#ffffff" d="M 96 16 A 80 80 0 0 0 16 96 A 80 80 0 0 0 16.019531 96.472656 A 80 80 0 0 1 96 17 A 80 80 0 0 1 175.97461 96.513672 A 80 80 0 0 0 176 96 A 80 80 0 0 0 96 16 z "/>
  <circle style="fill:#ffffff" cx="96" cy="96" r="64"/>
  <path style="filter:url(#filter10253);opacity:0.2;fill:#000000;color:#000000" d="M 82.097656,66.501653 78,68.868841 v 6.875 L 112.21094,97.4372 88,113.16767 V 85.9997 H 78 v 19.48438 21.50781 L 81.748047,129.154 127,99.755559 v -4.78125 z"/>
  <path style="fill:#1b65d3;color:#000000" d="M 82.097656,64.501953 78,66.869141 v 6.875 L 112.21094,95.4375 88,111.16797 V 84 H 78 v 19.48438 21.50781 L 81.748047,127.1543 127,97.755859 v -4.78125 z"/>
</svg>
