<?xml version='1.0' encoding='utf-8'?>
<svg xmlns="http://www.w3.org/2000/svg" width="192" height="192" version="1" id="svg14">
  <defs>
    <filter style="color-interpolation-filters:sRGB" id="filter850" x="0.05" width="1.10" y="0.05" height="1.10">
      <feGaussianBlur stdDeviation="3.20"/>
    </filter>
    <filter style="color-interpolation-filters:sRGB" id="filter19301" x="0.05" y="-2.40" width="1.10" height="5.80">
      <feGaussianBlur stdDeviation="3.20"/>
    </filter>
  </defs>
  <circle style="filter:url(#filter850);opacity:0.20;fill:#000000" cx="96" cy="100" r="80"/>
  <path style="fill:#ad2f30" d="m 176,96 c 0,1.02 0.02,2.04 0.06,3.05 -1.60,42.77 -37.49,35.75 -80.66,35.75 -43.46,0 -78.11,6.55 -79.26,-36.63 C 16.01,97.45 16,96.72 16,96 16,51.82 51.82,16 96,16 c 44.18,0 80,35.82 80,80 z"/>
  <path style="opacity:0.10;fill:#ffffff" d="M 96 16 A 80 80 0 0 0 16 96 A 80 80 0 0 0 16.02 96.47 A 80 80 0 0 1 96 17 A 80 80 0 0 1 175.97 96.51 A 80 80 0 0 0 176 96 A 80 80 0 0 0 96 16 z "/>
  <circle style="fill:#ffffff" cx="96" cy="96" r="42"/>
  <path style="filter:url(#filter19301);opacity:0.20;fill:#000000" d="M 96 96 C 69.22 96 38.47 96.64 16.09 97.21 A 80 80 0 0 0 16.25 99.20 C 38.62 98.64 69.28 98 96 98 C 122.72 98 153.38 98.64 175.75 99.20 A 80 80 0 0 0 175.91 97.21 C 153.53 96.64 122.78 96 96 96 z "/>
  <path style="fill:#dd393a" d="M 96 96 C 69.22 96 38.47 96.64 16.09 97.21 A 80 80 0 0 0 96 176 A 80 80 0 0 0 175.91 97.21 C 153.53 96.64 122.78 96 96 96 z "/>
</svg>
