<svg xmlns="http://www.w3.org/2000/svg" id="svg28" width="192" height="192" version="1"><defs><filter style="color-interpolation-filters:sRGB" id="filter10766" width="1.13" height="1.17" x=".07" y=".09"><feGaussianBlur stdDeviation="4.41"/></filter><filter style="color-interpolation-filters:sRGB" id="filter10811" width="1.1" height="1.35" x=".05" y=".17"><feGaussianBlur stdDeviation="1.75"/></filter><filter style="color-interpolation-filters:sRGB" id="filter10854" width="1.12" height="1.21" x=".06" y=".11"><feGaussianBlur stdDeviation="3.31"/></filter><filter style="color-interpolation-filters:sRGB" id="filter11022" width="1.12" height="1.2" x=".06" y=".1"><feGaussianBlur stdDeviation="2.05"/></filter></defs><path style="filter:url(#filter10854);opacity:.2;fill:#000" d="m 41,48 h 138 c 0,0 1.15,74 -29.68,74 H 56.74 Z"/><path style="filter:url(#filter10811);opacity:.2;fill:#000" d="m 80,144 a 12,12 0 0 0 -12,12 12,12 0 0 0 12,12 12,12 0 0 0 12,-12 12,12 0 0 0 -12,-12 z m 64,0 a 12,12 0 0 0 -12,12 12,12 0 0 0 12,12 12,12 0 0 0 12,-12 12,12 0 0 0 -12,-12 z"/><circle style="fill:#00aa42" cx="144" cy="154" r="12"/><circle style="fill:#00aa42" cx="80" cy="154" r="12"/><path style="fill:#ff6200" d="m 41,46 h 138 c 0,0 1.15,74 -29.68,74 H 56.74 Z"/><path style="filter:url(#filter11022);opacity:.2;fill:#000;mix-blend-mode:normal" d="m 71,61 v 48 h 8 V 61 Z m 12,0 v 48 h 4 V 61 Z m 13,0 v 48 h 4 V 61 Z m 8,0 v 48 h 4 V 61 Z m 9,0 v 48 h 8 V 61 Z m 16,0 v 48 h 4 V 61 Z m 9,0 v 48 h 8 V 61 Z m 12,0 v 48 h 4 V 61 Z"/><path style="fill:#fff" d="m 71,59 v 48 h 8 V 59 Z m 12,0 v 48 h 4 V 59 Z m 13,0 v 48 h 4 V 59 Z m 8,0 v 48 h 4 V 59 Z m 9,0 v 48 h 8 V 59 Z m 16,0 v 48 h 4 V 59 Z m 9,0 v 48 h 8 V 59 Z m 12,0 v 48 h 4 V 59 Z"/><path style="filter:url(#filter10766);opacity:.2;fill:#000;color:#000" d="m 15.71,22.04 a 6,6 0 0 0 -6.67,5.24 6,6 0 0 0 5.24,6.67 L 37.83,36.78 57.12,139.11 A 6.00,6.00 0 0 0 63.02,144 H 163 a 6,6 0 0 0 6,-6 6,6 0 0 0 -6,-6 H 67.99 L 48.80,30.23 a 6.00,6.00 0 0 0 -5.18,-4.85 z"/><path style="opacity:.2;fill:#fff" d="M 41 46 L 41.21 47 L 179.00 47 C 178.99 46.78 179 46 179 46 L 41 46 z"/><path style="fill:#ffb200;color:#000" d="m 15.71,20.04 a 6,6 0 0 0 -6.67,5.24 6,6 0 0 0 5.24,6.67 L 37.83,34.78 57.12,137.11 A 6.00,6.00 0 0 0 63.02,142 H 163 a 6,6 0 0 0 6,-6 6,6 0 0 0 -6,-6 H 67.99 L 48.80,28.23 a 6.00,6.00 0 0 0 -5.18,-4.85 z"/><path style="opacity:.2;fill:#fff;color:#000" d="M 15.71 20.04 A 6 6 0 0 0 9.04 25.29 A 6 6 0 0 0 9.11 26.09 A 6 6 0 0 1 15.71 21.04 L 43.62 24.39 A 6.00 6.00 0 0 1 48.80 29.23 L 67.99 131 L 163 131 A 6 6 0 0 1 168.94 136.29 A 6 6 0 0 0 169 136 A 6 6 0 0 0 163 130 L 67.99 130 L 48.80 28.23 A 6.00 6.00 0 0 0 43.62 23.39 L 15.71 20.04 z"/></svg>