<svg xmlns="http://www.w3.org/2000/svg" id="svg14" width="192" height="192" version="1"><defs><filter style="color-interpolation-filters:sRGB" id="filter2621" width="1.1" height="1.1" x=".05" y=".05"><feGaussianBlur stdDeviation="3.2"/></filter><filter style="color-interpolation-filters:sRGB" id="filter13498" width="1.27" height="1.18" x=".13" y=".09"><feGaussianBlur stdDeviation="4.07"/></filter></defs><rect style="filter:url(#filter2621);opacity:.2;fill:#000" width="160" height="160" x="16" y="20" ry="20"/><rect style="fill:#e4e4e4" width="160" height="160" x="16" y="16" ry="20"/><path style="filter:url(#filter13498);opacity:.2;fill:#000" d="m 128.67,44 c -25.52,14.76 -70.48,19.80 -68.61,60.46 0.00,0.00 0.00,0.00 0,0.00 0.51,11.67 1.22,35.37 50.14,47.53 5.56,-20.35 -1.99,-30.84 -19.72,-40.17 1.85,0.80 3.69,-1.60 5.43,-2.35 C 147.71,87.26 130.82,47.96 128.67,44 Z"/><path style="fill:#38adfa" d="m 688.81,257.00 c 0.33,0.33 -1.19,0.37 -1.92,0.08 0.80,0.32 0.56,0.56 0.60,0.60 1.05,0.04 1.64,0.19 1.31,0.53 z"/><path style="opacity:.2;fill:#fff" d="M 36 16 C 24.92 16 16 24.92 16 36 L 16 37 C 16 25.92 24.92 17 36 17 L 156 17 C 167.08 17 176 25.92 176 37 L 176 36 C 176 24.92 167.08 16 156 16 L 36 16 z"/><path style="fill:#3881ef" d="m 128.67,42 c 2.15,3.96 19.03,43.26 -32.76,65.48 C 86.85,111.37 76.38,116.21 63.24,120 46.30,62.93 99.88,58.65 128.67,42 Z"/><path style="fill:#9bc4ff" d="m 60.27,97 c 38.36,14.66 58.02,23.39 49.93,53 C 51.34,135.36 60.79,103.97 60.27,97 Z"/><path style="fill:#1b51b3" d="M 60.27 97 C 60.36 98.18 60.17 100.09 60.07 102.46 C 60.31 107.69 61.31 113.50 63.24 120 C 73.86 116.93 82.69 113.21 90.48 109.83 C 82.42 105.59 72.26 101.58 60.27 97 z"/></svg>