<?xml version='1.0' encoding='utf-8'?>
<svg xmlns="http://www.w3.org/2000/svg" width="192" height="192" version="1" id="svg8">
  <defs>
    <filter id="filter850" style="color-interpolation-filters:sRGB" width="1.10" height="1.10" x="0.05" y="0.05">
      <feGaussianBlur stdDeviation="3.20"/>
    </filter>
    <filter id="filter2764" style="color-interpolation-filters:sRGB" width="1.15" height="1.15" x="0.07" y="0.07">
      <feGaussianBlur stdDeviation="2.50"/>
    </filter>
    <filter id="filter2809" style="color-interpolation-filters:sRGB" width="1.14" height="1.16" x="0.07" y="0.08">
      <feGaussianBlur stdDeviation="3.19"/>
    </filter>
  </defs>
  <circle style="filter:url(#filter850);opacity:0.20" cx="96" cy="100" r="80"/>
  <circle style="fill:#ffc50a" cx="96" cy="96" r="80"/>
  <circle style="filter:url(#filter2764);opacity:0.20" cx="96" cy="99" r="40"/>
  <circle style="fill:#ababab" cx="96" cy="96" r="40"/>
  <path style="fill:#38adfa" d="m 688.81,257.00 c 0.33,0.33 -1.19,0.37 -1.92,0.08 0.80,0.32 0.56,0.56 0.60,0.60 1.05,0.04 1.64,0.19 1.31,0.53 z"/>
  <path style="opacity:0.20;fill:#ffffff" d="M 96 16 A 80 80 0 0 0 16 96 A 80 80 0 0 0 16.02 96.47 A 80 80 0 0 1 96 17 A 80 80 0 0 1 175.97 96.51 A 80 80 0 0 0 176 96 A 80 80 0 0 0 96 16 z"/>
  <path style="filter:url(#filter2809);opacity:0.20" d="m 144.85,51.00 c -1.69,0.01 -3.40,0.51 -4.96,1.11 -5.41,2.15 -10.27,5.42 -15.02,8.72 -1.99,1.33 -5.44,4.28 -5.74,4.41 0.18,0.18 0.05,0.12 0.24,0.27 2.15,-1.82 4.85,-3.19 7.27,-4.62 3.66,-2.00 7.28,-4.26 11.37,-5.34 2.03,0.44 4.67,0.71 6.16,1.06 1.17,1.88 0.22,4.19 0.57,6.05 -2.92,6.07 -7.36,11.24 -11.76,16.30 -8.23,9.08 -17.10,17.56 -26.54,25.40 -1.21,0.94 -2.35,2.00 -3.70,2.77 L 93,99.00 v 24.00 c 0.01,0.00 24,0 24,0 0,0 -5.59,-5.63 -8.18,-8.36 7.50,-7.79 14.77,-15.81 21.78,-24.03 2.92,-3.42 5.51,-6.66 8.34,-10.15 3.36,-4.34 6.51,-8.85 9.12,-13.68 1.60,-3.12 3.24,-6.49 2.90,-10.10 0.07,-2.07 -1.28,-4.11 -3.13,-5.08 0.96,0.43 -1.96,0.60 -2.98,0.59 z m -69.85,22 c 0,0 5.59,5.63 8.18,8.36 -7.50,7.79 -14.77,15.81 -21.78,24.03 -2.92,3.42 -5.51,6.66 -8.34,10.15 -3.36,4.34 -6.51,8.85 -9.12,13.68 -1.60,3.12 -3.24,6.49 -2.90,10.10 0.07,2.07 1.28,4.11 3.13,5.08 2.56,1.14 5.44,0.44 7.93,0.52 5.41,-2.15 10.27,-5.42 15.02,-8.72 1.99,-1.33 5.44,-4.28 5.74,-4.41 0.18,0.18 0.05,0.12 0.24,0.27 -2.15,1.82 -4.85,3.19 -7.27,4.62 -3.66,2.00 -7.28,4.26 -11.37,5.34 -2.03,0.44 -4.67,0.71 -6.16,-1.06 -1.17,-1.88 0.22,-4.19 0.57,-6.05 2.92,-6.07 7.36,-11.24 11.76,-16.30 8.23,-9.08 17.10,-17.56 26.54,-25.40 1.21,0.94 2.35,-2.00 3.70,-2.77 L 99,97.00 v -24 c 0.01,0.00 -24,0 -24,0 z"/>
  <path style="fill:#0161b0" d="m 117,121 c 0,0 -23.99,0.00 -24,0 V 97.00 l 8.60,8.14 c 1.35,0.77 2.48,-1.83 3.69,-2.77 9.44,-7.84 18.30,-16.33 26.54,-25.40 4.40,-5.06 8.84,-10.23 11.76,-16.30 0.79,-1.85 1.74,-4.16 0.57,-6.05 -1.49,-1.76 -4.13,-1.49 -6.16,-1.06 -4.08,1.07 -7.70,3.33 -11.36,5.34 -2.42,1.43 -5.12,2.79 -7.27,4.62 0.19,0.15 0.07,0.09 0.24,0.27 0.30,0.13 3.75,-3.08 5.74,-4.41 4.75,-3.30 9.61,-6.57 15.02,-8.72 2.49,0.96 5.37,-1.66 7.93,0.52 1.85,0.97 3.06,3.01 3.13,5.08 0.33,3.61 -1.30,6.98 -2.90,10.10 -2.61,4.83 -5.76,9.34 -9.12,13.68 -2.83,3.49 -5.42,6.73 -8.34,10.15 -7.01,8.22 -14.28,16.24 -21.78,24.03 C 111.41,115.37 117,121 117,121 Z"/>
  <path style="fill:#e7333a" d="m 75,71 c 0,0 23.99,0.00 24,0 v 24 l -8.60,-8.14 c -1.35,0.77 -2.48,1.83 -3.69,2.77 -9.44,7.84 -18.30,16.33 -26.54,25.40 -4.40,5.06 -8.84,10.23 -11.76,16.30 0.79,1.85 -1.74,4.16 0.57,6.05 1.49,1.76 4.13,1.49 6.16,1.06 4.08,-1.07 7.70,-3.33 11.36,-5.34 2.42,-1.43 5.12,-2.79 7.27,-4.62 0.19,0.15 0.07,0.09 0.24,0.27 0.30,0.13 -3.75,3.08 -5.74,4.41 -4.75,3.30 -9.61,6.57 -15.02,8.72 -2.49,0.96 -5.37,1.66 -7.93,0.52 -1.85,0.97 -3.06,-3.01 -3.13,-5.08 0.33,-3.61 1.30,-6.98 2.90,-10.10 2.61,-4.83 5.76,-9.34 9.12,-13.68 2.83,-3.49 5.42,-6.73 8.34,-10.15 C 68.41,95.17 75.68,87.15 83.18,79.36 80.59,76.63 75,71 75,71 Z"/>
</svg>
