<?xml version='1.0' encoding='utf-8'?>
<svg xmlns="http://www.w3.org/2000/svg" width="192" height="192" version="1.1" id="svg22">
  <defs>
    <filter style="color-interpolation-filters:sRGB" id="filter865" x="-0.048000001" y="-0.048000001" width="1.096" height="1.096">
      <feGaussianBlur stdDeviation="3.2"/>
    </filter>
    <filter style="color-interpolation-filters:sRGB" id="filter968" x="-0.046249205" y="-0.052847387" width="1.0924984" height="1.1056948">
      <feGaussianBlur stdDeviation="3.0832803"/>
    </filter>
    <filter style="color-interpolation-filters:sRGB" id="filter972" x="-0.057130412" y="-0.041385839" width="1.1142608" height="1.0827717">
      <feGaussianBlur stdDeviation="2.070235"/>
    </filter>
  </defs>
  <rect x="16" y="20" width="160" height="160" rx="8" ry="8" style="filter:url(#filter865);opacity:0.2"/>
  <path d="M 16,36 V 168 L 176,140 V 64 Z" style="fill:#40c412"/>
  <path d="m 24,16 c -4.432,0 -8,3.568 -8,8 V 36.664062 L 176,63.335936 V 24 c 0,-4.432 -3.568,-8 -8,-8 z" style="fill:#fbc72b"/>
  <path d="M 176,140 16,168 c 0,4.432 3.568,8 8,8 h 144 c 4.432,0 8,-3.568 8,-8 z" style="fill:#80d511"/>
  <path d="M 16,33.945562 V 42.00025 L 175.3125,69.883062 A 4.0004,4.0004 0 0 0 176,69.968998 V 61.890874 L 16.6875,34.008062 A 4.0004,4.0004 0 0 0 16,33.945562 Z M 175.98438,137.93775 a 4.0004,4.0004 0 0 0 -0.67188,0.0703 L 16,165.89087 v 8.07813 a 4.0004,4.0004 0 0 0 0.6875,-0.0859 L 176,146.00025 v -8.0625 a 4.0004,4.0004 0 0 0 -0.0156,0 z" style="filter:url(#filter968);opacity:0.2"/>
  <path d="m 16,32 v 8.054688 L 175.3125,67.9375 A 4.0004,4.0004 0 0 0 176,68.023436 V 59.945312 L 16.6875,32.0625 A 4.0004,4.0004 0 0 0 16,32 Z m 159.98438,103.99219 a 4.0004,4.0004 0 0 0 -0.67188,0.0703 L 16,163.94531 v 8.07813 a 4.0004,4.0004 0 0 0 0.6875,-0.0859 L 176,144.05469 v -8.0625 a 4.0004,4.0004 0 0 0 -0.0156,0 z" style="fill:#ffffff"/>
  <path d="m 88,152 h 16 l 4,-48 20,-8 h 4 L 136,68 132,52 112,36 H 84 l -20,12 -8,16 4,32 24,8 z" style="fill:#1ca3f4"/>
  <path d="m 96,33.945562 c -14.714284,0 -25.135016,4.031853 -31.984376,10.453124 -6.849356,6.421272 -9.903576,14.909636 -10.984376,23.015628 -2.161596,16.21198 3.171876,31.796876 3.171876,31.796876 0.535724,1.6068 2.0253,2.70208 3.718752,2.73437 0,0 5.111764,0.10808 10.398436,1.08594 2.643336,0.48893 5.306516,1.21511 7.171876,2.08594 1.86536,0.87083 2.611816,1.79638 2.710936,2.09375 1.620528,4.86158 2.809852,17.03035 3.304688,27.42187 C 84.002648,145.02459 84,150.00025 84,150.00025 c 2.2e-4,2.20905 1.790952,3.99978 4,4 h 16 c 2.20905,-2.2e-4 3.99978,-1.79095 4,-4 0,0 -0.003,-4.97566 0.49219,-15.36719 0.49483,-10.39152 1.68416,-22.56029 3.30469,-27.42187 0.0991,-0.29736 0.84557,-1.22292 2.71093,-2.09375 1.86536,-0.87083 4.52854,-1.59701 7.17188,-2.08594 5.28667,-0.97787 10.39843,-1.08594 10.39843,-1.08594 1.69346,-0.0324 3.18303,-1.12757 3.71876,-2.73437 0,0 5.33347,-15.584896 3.17187,-31.796876 -1.0808,-8.105992 -4.13502,-16.594356 -10.98437,-23.015628 C 121.13502,37.977415 110.71428,33.945562 96,33.945562 Z m 0,8 c 13.28572,0 21.36498,3.468148 26.51562,8.296876 5.15065,4.828728 7.59643,11.340364 8.51563,18.234376 1.59067,11.929984 -1.34479,22.67102 -2.25781,25.796872 -1.93786,0.08688 -4.10974,0.06844 -8.55469,0.890628 -3.04044,0.562384 -6.22194,1.36244 -9.09375,2.703124 -2.87181,1.340682 -5.75608,3.315132 -6.92188,6.812502 -2.37947,7.13842 -3.19014,18.96965 -3.69531,29.57812 -0.40253,8.45313 -0.3898,9.05013 -0.40625,11.74219 h -8.203124 c -0.0164,-2.69206 -0.0037,-3.28906 -0.406248,-11.74219 -0.505164,-10.60847 -1.31584,-22.4397 -3.695312,-29.57812 C 86.631084,101.18257 83.746812,99.20812 80.875,97.867438 78.003188,96.526754 74.821688,95.726698 71.781248,95.164314 67.3363,94.342138 65.16442,94.360554 63.226564,94.273686 62.31354,91.147834 59.378084,80.406798 60.968752,68.476814 61.887952,61.582802 64.333732,55.071166 69.484376,50.242438 74.635016,45.41371 82.714284,41.945562 96,41.945562 Z" style="filter:url(#filter972);opacity:0.2"/>
  <path d="m 60,96 c 0,0 21.470176,0.410532 24,8 4,12 4,48 4,48 h 16 c 0,0 0,-36 4,-48 2.52982,-7.589468 24,-8 24,-8 0,0 20,-60 -36,-60 -56,0 -36,60 -36,60 z" style="fill:none;stroke:#ffffff;stroke-width:8;stroke-linecap:round;stroke-linejoin:round"/>
  <path style="opacity:0.2;fill:#ffffff" d="M 24 16 C 19.568 16 16 19.568 16 24 L 16 25 C 16 20.568 19.568 17 24 17 L 168 17 C 172.432 17 176 20.568 176 25 L 176 24 C 176 19.568 172.432 16 168 16 L 24 16 z "/>
</svg>
