<?xml version='1.0' encoding='utf-8'?>
<svg xmlns="http://www.w3.org/2000/svg" width="192" height="192" version="1" id="svg44">
  <defs>
    <filter style="color-interpolation-filters:sRGB" id="filter898" x="-0.048000001" width="1.096" y="-0.048000001" height="1.096">
      <feGaussianBlur stdDeviation="3.2"/>
    </filter>
    <filter style="color-interpolation-filters:sRGB" id="filter917" x="-0.048" width="1.096" y="-0.048" height="1.096">
      <feGaussianBlur stdDeviation="2.24"/>
    </filter>
  </defs>
  <rect style="filter:url(#filter898);opacity:0.2;fill:#000000" width="160" height="160" x="-180" y="-176" rx="8" ry="8" transform="matrix(0,-1,-1,0,0,0)"/>
  <rect transform="matrix(0,-1,-1,0,0,0)" ry="8" rx="8" y="-176" x="-176" height="160" width="160" style="fill:#314dab"/>
  <path style="opacity:0.2;fill:#ffffff" d="M 24 16 C 19.568 16 16 19.568 16 24 L 16 25 C 16 20.568 19.568 17 24 17 L 168 17 C 172.432 17 176 20.568 176 25 L 176 24 C 176 19.568 172.432 16 168 16 L 24 16 z "/>
  <path d="m 48,42 c -4.432,0 -8,3.568 -8,8 0,4.432 3.568,8 8,8 h 16 c 4.432,0 8,-3.568 8,-8 0,-4.432 -3.568,-8 -8,-8 z m 40,0 c -4.432,0 -8,3.568 -8,8 0,4.432 3.568,8 8,8 h 16 c 4.432,0 8,-3.568 8,-8 0,-4.432 -3.568,-8 -8,-8 z m 40,0 c -4.432,0 -8,3.568 -8,8 0,4.432 3.568,8 8,8 h 16 c 4.432,0 8,-3.568 8,-8 0,-4.432 -3.568,-8 -8,-8 z M 48,66 c -4.432,0 -8,3.568 -8,8 0,4.432 3.568,8 8,8 h 16 c 4.432,0 8,-3.568 8,-8 0,-4.432 -3.568,-8 -8,-8 z m 40,0 c -4.432,0 -8,3.568 -8,8 0,4.432 3.568,8 8,8 h 16 c 4.432,0 8,-3.568 8,-8 0,-4.432 -3.568,-8 -8,-8 z m 40,0 c -4.432,0 -8,3.568 -8,8 0,4.432 3.568,8 8,8 h 16 c 4.432,0 8,-3.568 8,-8 0,-4.432 -3.568,-8 -8,-8 z M 48,90 c -4.432,0 -8,3.568 -8,8 0,4.432 3.568,8 8,8 h 16 c 4.432,0 8,-3.568 8,-8 0,-4.432 -3.568,-8 -8,-8 z m 40,0 c -4.432,0 -8,3.568 -8,8 0,4.432 3.568,8 8,8 h 16 c 4.432,0 8,-3.568 8,-8 0,-4.432 -3.568,-8 -8,-8 z m 40,0 c -4.432,0 -8,3.568 -8,8 0,4.432 3.568,8 8,8 h 16 c 4.432,0 8,-3.568 8,-8 0,-4.432 -3.568,-8 -8,-8 z m -80,24 c -4.432,0 -8,3.568 -8,8 0,4.432 3.568,8 8,8 h 16 c 4.432,0 8,-3.568 8,-8 0,-4.432 -3.568,-8 -8,-8 z m 40,0 c -4.432,0 -8,3.568 -8,8 0,4.432 3.568,8 8,8 h 16 c 4.432,0 8,-3.568 8,-8 0,-4.432 -3.568,-8 -8,-8 z m 40,0 c -4.432,0 -8,3.568 -8,8 0,4.432 3.568,8 8,8 h 16 c 4.432,0 8,-3.568 8,-8 0,-4.432 -3.568,-8 -8,-8 z m -80,24 c -4.432,0 -8,3.568 -8,8 0,4.432 3.568,8 8,8 h 16 c 4.432,0 8,-3.568 8,-8 0,-4.432 -3.568,-8 -8,-8 z m 40,0 c -4.432,0 -8,3.568 -8,8 0,4.432 3.568,8 8,8 h 16 c 4.432,0 8,-3.568 8,-8 0,-4.432 -3.568,-8 -8,-8 z m 40,0 c -4.432,0 -8,3.568 -8,8 0,4.432 3.568,8 8,8 h 16 c 4.432,0 8,-3.568 8,-8 0,-4.432 -3.568,-8 -8,-8 z" style="filter:url(#filter917);opacity:0.2"/>
  <g transform="scale(4)">
    <rect ry="2" rx="2" y="22" x="20" height="4" width="8" style="fill:#ffffff"/>
    <rect ry="2" rx="2" y="22" x="10" height="4" width="8" style="fill:#ffffff"/>
    <rect ry="2" rx="2" y="22" x="30" height="4" width="8" style="fill:#ffffff"/>
    <rect ry="2" rx="2" y="16" x="20" height="4" width="8" style="fill:#ffffff"/>
    <rect ry="2" rx="2" y="16" x="10" height="4" width="8" style="fill:#ffffff"/>
    <rect ry="2" rx="2" y="16" x="30" height="4" width="8" style="fill:#ffffff"/>
    <rect ry="2" rx="2" y="10" x="20" height="4" width="8" style="fill:#ffffff"/>
    <rect ry="2" rx="2" y="10" x="10" height="4" width="8" style="fill:#ffffff"/>
    <rect ry="2" rx="2" y="10" x="30" height="4" width="8" style="fill:#ffffff"/>
    <rect ry="2" rx="2" y="34" x="20" height="4" width="8" style="fill:#ffff00"/>
    <rect ry="2" rx="2" y="34" x="10" height="4" width="8" style="fill:#fc5b5b"/>
    <rect ry="2" rx="2" y="34" x="30" height="4" width="8" style="fill:#51dc49"/>
    <rect ry="2" rx="2" y="28" x="20" height="4" width="8" style="fill:#ffffff"/>
    <rect ry="2" rx="2" y="28" x="10" height="4" width="8" style="fill:#ffffff"/>
    <rect ry="2" rx="2" y="28" x="30" height="4" width="8" style="fill:#ffffff"/>
  </g>
</svg>
