<?xml version='1.0' encoding='utf-8'?>
<svg xmlns="http://www.w3.org/2000/svg" width="192" height="192" version="1" id="svg10">
  <defs>
    <filter style="color-interpolation-filters:sRGB" id="filter851" x="0.05" width="1.11" y="0.04" height="1.09">
      <feGaussianBlur stdDeviation="2.88"/>
    </filter>
    <filter style="color-interpolation-filters:sRGB" id="filter884" x="0.06" width="1.11" y="0.04" height="1.08">
      <feGaussianBlur stdDeviation="2.40"/>
    </filter>
  </defs>
  <path d="M 160,172 V 28 c 0,-4.43 -3.57,-8 -8,-8 H 40 c -4.43,0 -8,3.57 -8,8 v 144 c 0,4.43 3.57,8 8,8 h 112 c 4.43,0 8,-3.57 8,-8 z" style="filter:url(#filter851);opacity:0.20;fill:#000000"/>
  <path style="fill:#4f4f4f" d="M 160,168 V 24 c 0,-4.43 -3.57,-8 -8,-8 H 40 c -4.43,0 -8,3.57 -8,8 v 144 c 0,4.43 3.57,8 8,8 h 112 c 4.43,0 8,-3.57 8,-8 z"/>
  <path style="opacity:0.10;fill:#ffffff" d="M 40 16 C 35.57 16 32 19.57 32 24 L 32 25 C 32 20.57 35.57 17 40 17 L 152 17 C 156.43 17 160 20.57 160 25 L 160 24 C 160 19.57 156.43 16 152 16 L 40 16 z "/>
  <path d="m 48,30 c -4,0 -4,4 -4,4 v 128 c 0,0 0,4 4,4 h 96.25 c 0,0 3.75,0 3.75,-4 V 82 L 99.06,30 Z M 115.53,30 148,64.50 V 34 c 0,-4 -4,-4 -4,-4 z" style="filter:url(#filter884);opacity:0.20;fill:#000000"/>
  <path style="fill:#f5f5f5" d="m 48,28 c -4,0 -4,4 -4,4 v 128 c 0,0 0,4 4,4 h 96.25 c 0,0 3.75,0 3.75,-4 V 80 L 99.06,28 Z M 115.53,28 148,62.50 V 32 c 0,-4 -4,-4 -4,-4 z"/>
</svg>
