<?xml version='1.0' encoding='utf-8'?>
<svg xmlns="http://www.w3.org/2000/svg" width="192" height="192" version="1" id="svg14">
  <defs>
    <filter style="color-interpolation-filters:sRGB" id="filter850" x="0.05" width="1.10" y="0.05" height="1.10">
      <feGaussianBlur stdDeviation="3.20"/>
    </filter>
    <filter style="color-interpolation-filters:sRGB" id="filter10211" x="0.07" y="0.07" width="1.15" height="1.15">
      <feGaussianBlur stdDeviation="4"/>
    </filter>
    <filter style="color-interpolation-filters:sRGB" id="filter10253" x="0.12" y="0.10" width="1.25" height="1.19">
      <feGaussianBlur stdDeviation="2.51"/>
    </filter>
  </defs>
  <circle style="filter:url(#filter850);opacity:0.20;fill:#000000" cx="96" cy="100" r="80"/>
  <circle r="80" cy="96" cx="96" style="fill:#47a2fd"/>
  <circle style="filter:url(#filter10211);opacity:0.20;fill:#000000" cx="96" cy="98" r="64"/>
  <path style="fill:#38adfa" d="m 688.81,257.00 c 0.33,0.33 -1.19,0.37 -1.92,0.08 0.80,0.32 0.56,0.56 0.60,0.60 1.05,0.04 1.64,0.19 1.31,0.53 z"/>
  <path style="opacity:0.20;fill:#ffffff" d="M 96 16 A 80 80 0 0 0 16 96 A 80 80 0 0 0 16.02 96.47 A 80 80 0 0 1 96 17 A 80 80 0 0 1 175.97 96.51 A 80 80 0 0 0 176 96 A 80 80 0 0 0 96 16 z "/>
  <circle style="fill:#ffffff" cx="96" cy="96" r="64"/>
  <path style="filter:url(#filter10253);opacity:0.20;fill:#000000;color:#000000" d="M 82.10,66.50 78,68.87 v 6.88 L 112.21,97.44 88,113.17 V 86.00 H 78 v 19.48 21.51 L 81.75,129.15 127,99.76 v -4.78 z"/>
  <path style="fill:#1b65d3;color:#000000" d="M 82.10,64.50 78,66.87 v 6.88 L 112.21,95.44 88,111.17 V 84 H 78 v 19.48 21.51 L 81.75,127.15 127,97.76 v -4.78 z"/>
</svg>
