<?xml version='1.0' encoding='utf-8'?>
<svg xmlns="http://www.w3.org/2000/svg" width="192" height="192" version="1" id="svg16">
  <defs>
    <filter style="color-interpolation-filters:sRGB" id="filter5718" x="0.05" y="0.04" width="1.10" height="1.09">
      <feGaussianBlur stdDeviation="2.95"/>
    </filter>
    <filter style="color-interpolation-filters:sRGB" id="filter6075" x="0.09" y="0.14" width="1.18" height="1.27">
      <feGaussianBlur stdDeviation="3.89"/>
    </filter>
  </defs>
  <path style="filter:url(#filter5718);opacity:0.20;fill:#000000" d="m 119.50,20.00 c -1.79,0.05 -3.54,0.87 -4.51,2.54 l -3.32,5.78 c -1.40,2.43 0.57,5.53 1.85,6.93 l 2.73,1.58 -7.25,11.65 A 67,67 0 0 0 91,46 67,67 0 0 0 24,113 67,67 0 0 0 91,180 67,67 0 0 0 158,113 67,67 0 0 0 138.12,65.38 l 7.25,-11.65 2.74,1.59 c 2.42,1.41 5.50,0.58 6.90,-1.86 l 3.32,-5.78 C 159.72,45.25 158.89,42.16 156.47,40.75 L 121.90,20.68 c 0.76,0.44 -1.58,0.66 -2.39,0.68 z"/>
  <circle style="fill:#26874b" cx="91" cy="109" r="67"/>
  <path style="filter:url(#filter6075);opacity:0.20;fill:#000000" d="m 91,58.00 c -24.25,0 -44.69,16.29 -50.99,38.53 2.43,0.47 5.38,0.70 7.86,0.64 2.44,0.06 4.81,0.38 6.93,0.98 1.74,0.49 3.42,1.10 5.07,1.78 0.00,0.00 0.00,0.00 0.01,0.00 0.56,0.23 1.12,0.48 1.68,0.73 0.00,0.00 0.01,0.00 0.01,0.01 0.00,0.00 0.01,0.00 0.01,0.00 0.56,0.25 1.11,0.52 1.66,0.79 0.55,0.27 1.10,0.55 1.65,0.84 0.49,0.26 0.98,0.53 1.46,0.80 0.37,0.20 0.73,0.43 1.10,0.64 5.35,3.09 10.50,6.80 16.01,10.42 0.15,0.10 0.29,0.19 0.44,0.29 0.96,0.63 1.94,1.25 2.93,1.87 0.37,0.23 0.75,0.46 1.13,0.69 0.03,0.02 0.07,0.04 0.10,0.06 0.04,0.03 0.09,0.06 0.13,0.08 2.23,1.36 4.54,2.67 6.96,3.88 0.03,0.01 0.06,0.03 0.08,0.04 0.63,0.31 1.26,0.62 1.90,0.92 0.17,0.08 0.35,0.16 0.52,0.24 0.50,0.23 1.01,0.46 1.52,0.68 0.23,0.10 0.45,0.19 0.68,0.29 0.06,0.03 0.13,0.06 0.19,0.08 0.42,0.17 0.84,0.34 1.26,0.51 0.22,0.09 0.44,0.17 0.66,0.25 0.10,0.04 0.19,0.07 0.29,0.11 0.40,0.15 0.81,0.30 1.22,0.45 0.24,0.08 0.48,0.17 0.72,0.25 0.11,0.04 0.21,0.07 0.32,0.11 0.39,0.13 0.79,0.26 1.19,0.38 0.25,0.08 0.51,0.16 0.77,0.24 0.12,0.03 0.23,0.07 0.35,0.10 0.40,0.12 0.81,0.23 1.22,0.34 0.28,0.08 0.57,0.16 0.85,0.23 0.08,0.02 0.17,0.04 0.25,0.06 0.41,0.11 0.83,0.20 1.25,0.30 0.32,0.08 0.64,0.16 0.96,0.23 0.06,0.01 0.12,0.03 0.19,0.04 0.48,0.10 0.98,0.20 1.47,0.29 0.28,0.06 0.56,0.12 0.85,0.17 0.06,0.01 0.13,0.02 0.19,0.03 0.51,0.09 1.02,0.17 1.54,0.25 0.31,0.05 0.60,0.10 0.91,0.14 0.03,0.01 0.07,0.01 0.10,0.01 0.86,0.12 1.74,0.22 2.63,0.31 0.63,0.06 1.27,0.10 1.92,0.12 0.13,0.00 0.25,0.01 0.38,0.01 0.07,0.00 0.14,0.00 0.21,0.00 0.60,0.01 1.20,0.01 1.81,0.02 0.07,0.00 0.13,0.01 0.20,0.01 0.03,0.00 0.07,0.00 0.10,0.00 0.14,0.01 0.29,0.01 0.43,0.02 0.47,0.02 0.94,0.06 1.41,0.10 0.10,0.01 0.20,0.02 0.30,0.03 0.16,0.01 0.32,0.03 0.48,0.04 0.09,0.01 0.18,0.02 0.27,0.03 0.46,0.05 0.92,0.10 1.38,0.17 0.05,0.01 0.11,0.01 0.16,0.02 0.28,0.04 0.55,0.08 0.83,0.12 0.72,0.11 1.44,0.24 2.16,0.38 0.31,0.06 0.62,0.12 0.92,0.18 0.35,0.07 0.71,0.14 1.06,0.22 0.27,0.06 0.53,0.11 0.80,0.17 0.22,0.05 0.45,0.11 0.67,0.16 0.39,0.09 0.79,0.19 1.18,0.29 0.31,0.08 0.63,0.15 0.94,0.23 0.13,0.03 0.26,0.07 0.39,0.11 0.10,0.03 0.20,0.05 0.30,0.08 0.00,0.00 0.00,0.00 0.00,0.01 0.62,0.16 1.25,0.33 1.87,0.50 1.05,0.30 2.10,0.60 3.14,0.91 C 143.49,119.26 144,115.19 144,111.00 c 0.00,-3.75 0.41,-7.49 -1.20,-11.15 0.03,0.19 0.06,0.39 0.10,0.58 C 137.36,75.64 116.24,58.00 91,58.00 Z"/>
  <path style="fill:#ffffff" d="m 91,56 c -24.25,0 -44.69,16.29 -50.99,38.53 2.43,0.47 5.38,0.70 7.86,0.64 2.44,0.06 4.81,0.38 6.93,0.98 2.17,0.61 4.25,1.39 6.28,2.29 17.66,7.81 31.13,18.96 58.19,21.63 6.24,0.62 11.00,2.27 17.83,0.36 1.01,-4.10 3.88,-5.59 3.88,-10.34 0,-4.03 2.57,-7.77 1.72,-11.54 C 137.36,73.64 116.24,56 91,56 Z"/>
  <path style="fill:#4de462" d="M 90.60 89 C 80.49 88.99 70.06 91.41 59.87 96.65 C 78.13 104.20 91.57 122.09 119.24 124.83 C 124.92 125.39 131.31 124.24 137.56 122.60 C 137.97 120.70 138.33 118.71 138.60 116.60 C 136.98 114.53 140.18 111.80 138.38 109.95 C 125.55 96.67 108.59 89.01 90.60 89 z "/>
  <path style="fill:#0ec03e" d="M 142.60 96.94 C 122.77 97.96 103.38 104.12 84.51 111.56 C 94.00 117.70 104.63 123.38 119.24 124.83 C 126.45 125.54 134.82 123.51 142.57 121.18 C 143.49 117.26 144 113.19 144 109 C 144.00 104.94 143.52 100.89 142.60 96.94 z "/>
  <path style="fill:#26874b" transform="rotate(30)" d="m 117.15,-31.06 h 33.66 l 0.54,16.31 -33.66,0 z"/>
  <rect style="fill:#26874b" width="50.09" height="16.80" x="108.96" y="-46.75" ry="5.07" rx="5.06" transform="matrix(0.86,0.50,0.50,0.87,0,0)"/>
</svg>
