<?xml version='1.0' encoding='utf-8'?>
<svg xmlns="http://www.w3.org/2000/svg" width="192" height="192" version="1" id="svg22">
  <defs>
    <filter style="color-interpolation-filters:sRGB" id="filter860" x="0.05" width="1.10" y="0.05" height="1.10">
      <feGaussianBlur stdDeviation="2.56"/>
    </filter>
    <filter style="color-interpolation-filters:sRGB" id="filter880" x="0.05" width="1.10" y="0.05" height="1.10">
      <feGaussianBlur stdDeviation="2.24"/>
    </filter>
    <filter style="color-interpolation-filters:sRGB" id="filter900" x="0.05" width="1.10" y="0.05" height="1.10">
      <feGaussianBlur stdDeviation="1.69"/>
    </filter>
  </defs>
  <path style="filter:url(#filter860);opacity:0.20;fill:#000000;color:#000000;font-stretch:normal;font-variant-ligatures:normal;font-variant-position:normal;font-variant-caps:normal;font-variant-numeric:normal;font-variant-alternates:normal;font-feature-settings:normal;text-indent:0;text-align:start;text-decoration-line:none;text-decoration-style:solid;text-decoration-color:#000000;text-transform:none;writing-mode:lr-tb;direction:ltr;text-orientation:mixed;dominant-baseline:auto;baseline-shift:baseline;white-space:normal;shape-padding:0;clip-rule:nonzero;display:inline;overflow:visible;visibility:visible;isolation:auto;mix-blend-mode:normal;color-interpolation:sRGB;color-interpolation-filters:linearRGB;solid-color:#000000;solid-opacity:1;vector-effect:none;fill-rule:nonzero;color-rendering:auto;image-rendering:auto;shape-rendering:auto;text-rendering:auto;enable-background:accumulate" d="M 60.20,52.08 A 12.00,12.00 0 0 0 51.84,72.69 L 155.52,176.36 a 12.00,12.00 0 1 0 16.97,-16.97 L 68.81,55.71 a 12.00,12.00 0 0 0 -8.61,-3.63 z"/>
  <path d="M 164,163.88 60.32,60.20" style="fill:none;stroke:#2975df;stroke-width:24;stroke-linecap:round;stroke-linejoin:round"/>
  <path style="opacity:0.10;fill:#ffffff" d="M 60.20 48.08 A 12.00 12.00 0 0 0 48.24 60.72 A 12.00 12.00 0 0 1 60.20 49.08 A 12.00 12.00 0 0 1 68.80 52.72 L 172.48 156.40 A 12.00 12.00 0 0 1 176.15 164.52 A 12.00 12.00 0 0 0 172.48 155.40 L 68.80 51.72 A 12.00 12.00 0 0 0 60.20 48.08 z "/>
  <path d="m 56.63,20.50 a 10.71,10.71 0 0 0 -7.35,8.57 L 46.03,50.04 25.06,53.28 A 10.71,10.71 0 0 0 19.99,72.21 L 36.53,85.50 28.86,105.28 a 10.71,10.71 0 0 0 13.85,13.86 l 19.78,-7.67 13.29,16.54 a 10.71,10.71 0 0 0 18.93,-5.07 l 3.24,-20.97 20.97,-3.24 a 10.71,10.71 0 0 0 5.07,-18.93 l -16.54,-13.29 7.68,-19.78 A 10.71,10.71 0 0 0 101.28,32.86 L 81.50,40.54 68.20,24.00 A 10.71,10.71 0 0 0 56.63,20.50 Z" style="filter:url(#filter880);opacity:0.20"/>
  <path d="m 56.63,16.50 a 10.71,10.71 0 0 0 -7.35,8.57 L 46.03,46.04 25.06,49.28 A 10.71,10.71 0 0 0 19.99,68.21 L 36.53,81.50 28.86,101.28 a 10.71,10.71 0 0 0 13.85,13.86 l 19.78,-7.67 13.29,16.54 a 10.71,10.71 0 0 0 18.93,-5.07 L 97.96,97.96 118.92,94.72 a 10.71,10.71 0 0 0 5.07,-18.93 l -16.54,-13.29 7.68,-19.78 A 10.71,10.71 0 0 0 101.28,28.86 L 81.50,36.54 68.20,20.00 A 10.71,10.71 0 0 0 56.63,16.50 Z" style="fill:#ff8208"/>
  <path d="M 60.69,31.80 57.89,49.88 A 12.00,12.00 0 0 1 47.87,59.90 l -18.06,2.80 14.24,11.45 a 12.00,12.00 0 0 1 3.67,13.69 l -6.62,17.05 17.05,-6.61 a 12.00,12.00 0 0 1 13.70,3.66 l 11.45,14.25 L 86.09,98.12 A 12.00,12.00 0 0 1 96.12,88.10 L 114.20,85.30 99.95,73.84 A 12.00,12.00 0 0 1 96.27,60.16 L 102.88,43.11 85.84,49.73 A 12.00,12.00 0 0 1 72.14,46.05 Z" style="filter:url(#filter900);opacity:0.20"/>
  <path d="M 60.69,29.80 57.89,47.88 A 12.00,12.00 0 0 1 47.87,57.90 l -18.06,2.80 14.24,11.45 a 12.00,12.00 0 0 1 3.67,13.69 l -6.62,17.05 17.05,-6.61 a 12.00,12.00 0 0 1 13.70,3.66 L 83.30,114.20 86.09,96.12 A 12.00,12.00 0 0 1 96.12,86.10 L 114.20,83.30 99.95,71.84 A 12.00,12.00 0 0 1 96.27,58.16 L 102.88,41.11 85.84,47.73 A 12.00,12.00 0 0 1 72.14,44.05 Z" style="fill:#ffc64d"/>
  <path style="opacity:0.20;fill:#ffffff" d="M 59.79 16 A 10.71 10.71 0 0 0 56.62 16.50 A 10.71 10.71 0 0 0 49.27 25.07 L 46.03 46.04 L 25.06 49.28 A 10.71 10.71 0 0 0 16.03 60.35 A 10.71 10.71 0 0 1 25.06 50.28 L 46.03 47.04 L 49.27 26.07 A 10.71 10.71 0 0 1 56.62 17.50 A 10.71 10.71 0 0 1 59.79 17 A 10.71 10.71 0 0 1 68.20 21 L 81.49 37.54 L 101.27 29.86 A 10.71 10.71 0 0 1 115.82 39.34 A 10.71 10.71 0 0 0 101.27 28.86 L 81.49 36.54 L 68.20 20 A 10.71 10.71 0 0 0 59.79 16 z M 108.05 62.97 L 107.46 64.49 L 107.76 64.73 L 108.05 63.97 L 124 76.79 A 10.71 10.71 0 0 1 127.97 84.62 A 10.71 10.71 0 0 0 124 75.79 L 108.05 62.97 z M 35.94 83.02 L 28.86 101.28 A 10.71 10.71 0 0 0 28.16 105.70 A 10.71 10.71 0 0 1 28.86 102.28 L 35.94 84.02 L 36.24 84.26 L 36.53 83.50 L 35.94 83.02 z "/>
  <path style="opacity:0.20;fill:#ffffff" d="M 60.69 29.80 L 57.89 47.88 A 12.00 12.00 0 0 1 47.87 57.90 L 29.80 60.70 L 30.85 61.53 L 47.87 58.90 A 12.00 12.00 0 0 0 57.89 48.88 L 60.69 30.80 L 72.14 45.05 A 12.00 12.00 0 0 0 85.84 48.73 L 102.43 42.29 L 102.88 41.11 L 85.84 47.73 A 12.00 12.00 0 0 1 72.14 44.05 L 60.69 29.80 z M 95.52 63.54 A 12.00 12.00 0 0 0 95.50 65.04 A 12.00 12.00 0 0 1 95.52 64.54 A 12.00 12.00 0 0 0 99.95 72.84 L 113.15 83.46 L 114.20 83.30 L 99.95 71.84 A 12.00 12.00 0 0 1 95.52 63.54 z M 48.48 82.45 A 12.00 12.00 0 0 1 47.72 85.84 L 41.10 102.89 L 41.56 102.71 L 47.72 86.84 A 12.00 12.00 0 0 0 48.48 83.45 A 12.00 12.00 0 0 1 48.50 83.91 A 12.00 12.00 0 0 0 48.48 82.45 z "/>
</svg>
