<svg xmlns="http://www.w3.org/2000/svg" id="svg20" width="192" height="192" version="1"><defs><filter style="color-interpolation-filters:sRGB" id="filter899" width="1.1" height="1.1" x=".05" y=".05"><feGaussianBlur stdDeviation="3.2"/></filter><filter style="color-interpolation-filters:sRGB" id="filter934" width="1.1" height="1.09" x=".05" y=".05"><feGaussianBlur stdDeviation="2.39"/></filter></defs><rect style="filter:url(#filter899);opacity:.2;fill:#000" width="160" height="160" x="-180" y="-176" rx="80" ry="80" transform="matrix(0,-1,-1,0,0,0)"/><rect width="160" height="160" x="-176" y="-176" rx="80" ry="80" transform="matrix(0,-1,-1,0,0,0)" style="fill:#3f3f3f"/><path d="M 132,28.57 V 57.11 A 56,56 0 0 0 96,44 56,56 0 0 0 40,100 56,56 0 0 0 96,156 56,56 0 0 0 152,100 V 42.82 c -5.85,-5.73 -12.60,-10.53 -20,-14.25 z M 82.06,72.00 a 5.92,6.18 0 0 1 2.81,0.84 l 18.10,10.90 18.09,10.92 a 5.92,6.18 0 0 1 0,10.69 l -18.09,10.92 -18.10,10.90 A 5.92,6.18 0 0 1 76,121.82 V 78.18 a 5.92,6.18 0 0 1 6.06,-6.18 z" style="filter:url(#filter934);opacity:.2;fill:#000"/><path style="fill:#ffb600" d="M 132 24.57 L 132 53.11 A 56 56 0 0 0 96 40 A 56 56 0 0 0 40 96 A 56 56 0 0 0 96 152 A 56 56 0 0 0 152 96 L 152 38.82 C 146.15 33.09 139.40 28.29 132 24.57 z M 82.06 68.00 A 5.92 6.18 0 0 1 84.87 68.84 L 102.97 79.74 L 121.05 90.66 A 5.92 6.18 0 0 1 121.05 101.35 L 102.97 112.27 L 84.87 123.17 A 5.92 6.18 0 0 1 76 117.82 L 76 74.18 A 5.92 6.18 0 0 1 82.06 68.00 z"/><path style="opacity:.1;fill:#fff" d="M 96 16 C 51.68 16 16.01 51.68 16.01 96 C 16.01 96.34 16.01 96.67 16.01 97 C 16.01 52.68 51.68 17 96 17 C 140.32 17 175.99 52.68 175.99 97 C 175.99 96.67 175.99 96.34 175.99 96 C 175.99 51.68 140.32 16 96 16 z"/><path style="opacity:.2;fill:#fff" d="M 132 24.57 L 132 25.57 C 139.40 29.29 146.15 34.09 152 39.82 L 152 38.82 C 146.15 33.09 139.40 28.29 132 24.57 z M 96 40 A 56 56 0 0 0 40 96 A 56 56 0 0 0 40.02 96.42 A 56 56 0 0 1 96 41 A 56 56 0 0 1 132 54.11 L 132 53.11 A 56 56 0 0 0 96 40 z M 123.97 96.52 A 5.92 6.18 0 0 1 121.05 101.35 L 102.97 112.27 L 84.87 123.17 A 5.92 6.18 0 0 1 76 117.82 L 76 118.82 A 5.92 6.18 0 0 0 84.87 124.17 L 102.97 113.27 L 121.05 102.35 A 5.92 6.18 0 0 0 123.97 96.52 z"/></svg>