<?xml version='1.0' encoding='utf-8'?>
<svg xmlns="http://www.w3.org/2000/svg" width="192pt" height="192pt" viewBox="0 0 192 192" version="1.1" id="svg7">
  <defs>
    <filter style="color-interpolation-filters:sRGB" id="filter2106" x="0.05" y="0.05" width="1.10" height="1.10">
      <feGaussianBlur stdDeviation="3.20"/>
    </filter>
    <filter style="color-interpolation-filters:sRGB" id="filter2110" x="0.06" y="0.04" width="1.11" height="1.08">
      <feGaussianBlur stdDeviation="4.86"/>
    </filter>
  </defs>
  <circle style="filter:url(#filter2106);opacity:0.20;fill:#000000" cx="96" cy="100" r="80"/>
  <circle style="fill:#f80101" cx="96" cy="96" r="80"/>
  <g transform="matrix(0.42,0,0,0.42,16.30,18.14)" style="filter:url(#filter2110);opacity:0.20;fill:#000000">
    <path style="fill:#000000;fill-rule:nonzero" d="m 228.81,20.40 c 13.03,-2.20 23.11,-3.71 36.28,-1.71 l 1.89,0.32 -1.27,0.48 c -12.25,3.51 -20.78,9.00 -30.32,17.60 -17.18,14.96 -28.49,37.68 -27.24,60.68 2.03,0.51 4.54,1.05 6.56,1.63 21.23,6.07 41.92,16.11 56.47,33.14 16.69,19.05 22.73,45.48 20.88,70.33 -2.94,37.91 -28.67,73.39 -64.47,86.53 -23.86,8.90 -51.19,9.01 -74.75,0.96 C 128.39,278.37 108.10,258.85 96.58,235.05 85.39,212.36 82.34,186.22 85.64,161.30 90.62,126.13 108.29,93.25 133.50,68.48 159.79,43.74 193.42,27.09 228.81,20.40 Z"/>
  </g>
  <g transform="matrix(0.42,0,0,0.42,16.30,15.14)">
    <path style="fill:#ffffff;fill-rule:nonzero" d="m 228.81,20.40 c 13.03,-2.20 23.11,-3.71 36.28,-1.71 l 1.89,0.32 -1.27,0.48 c -12.25,3.51 -20.78,9.00 -30.32,17.60 -17.18,14.96 -28.49,37.68 -27.24,60.68 2.03,0.51 4.54,1.05 6.56,1.63 21.23,6.07 41.92,16.11 56.47,33.14 16.69,19.05 22.73,45.48 20.88,70.33 -2.94,37.91 -28.67,73.39 -64.47,86.53 -23.86,8.90 -51.19,9.01 -74.75,0.96 C 128.39,278.37 108.10,258.85 96.58,235.05 85.39,212.36 82.34,186.22 85.64,161.30 90.62,126.13 108.29,93.25 133.50,68.48 159.79,43.74 193.42,27.09 228.81,20.40 Z"/>
  </g>
  <path style="opacity:0.20;fill:#ffffff" d="M 128 21.33 A 106.67 106.67 0 0 0 21.33 128 A 106.67 106.67 0 0 0 21.38 128.67 A 106.67 106.67 0 0 1 128 22.67 A 106.67 106.67 0 0 1 234.64 128.35 A 106.67 106.67 0 0 0 234.67 128 A 106.67 106.67 0 0 0 128 21.33 z " transform="scale(0.75)"/>
</svg>
