<?xml version='1.0' encoding='utf-8'?>
<svg xmlns="http://www.w3.org/2000/svg" width="192" height="192" version="1" id="svg12">
  <defs>
    <filter style="color-interpolation-filters:sRGB" id="filter860" x="-0.048000001" width="1.096" y="-0.048000001" height="1.096">
      <feGaussianBlur stdDeviation="3.2"/>
    </filter>
    <filter style="color-interpolation-filters:sRGB" id="filter865" x="-0.069000001" width="1.138" y="-0.0368" height="1.0736">
      <feGaussianBlur stdDeviation="1.61"/>
    </filter>
  </defs>
  <rect style="filter:url(#filter860);opacity:0.2" width="160" height="160" x="16" y="20" rx="8" ry="8"/>
  <rect style="fill:#dd3a27" width="160" height="160" x="16" y="16" rx="8" ry="8"/>
  <path style="opacity:0.2;fill:#ffffff" d="m 24,16 c -4.432,0 -8,3.568 -8,8 v 1 c 0,-4.432 3.568,-8 8,-8 h 144 c 4.432,0 8,3.568 8,8 v -1 c 0,-4.432 -3.568,-8 -8,-8 z"/>
  <path d="M 92,44 V 64 H 69 v 8 h 45.45508 L 68,120.14062 V 130 h 24 v 19 h 8 v -19 h 24 v -8 H 77.322266 L 124,73.628906 V 64 H 100 V 44 Z" style="filter:url(#filter865);opacity:0.2;fill:#000000;color:#000000;font-stretch:normal;font-variant-ligatures:normal;font-variant-position:normal;font-variant-caps:normal;font-variant-numeric:normal;font-variant-alternates:normal;font-feature-settings:normal;text-indent:0;text-align:start;text-decoration-line:none;text-decoration-style:solid;text-decoration-color:#000000;text-transform:none;writing-mode:lr-tb;direction:ltr;text-orientation:mixed;dominant-baseline:auto;baseline-shift:baseline;white-space:normal;shape-padding:0;clip-rule:nonzero;display:inline;overflow:visible;visibility:visible;isolation:auto;mix-blend-mode:normal;color-interpolation:sRGB;color-interpolation-filters:linearRGB;solid-color:#000000;solid-opacity:1;vector-effect:none;fill-rule:nonzero;color-rendering:auto;image-rendering:auto;shape-rendering:auto;text-rendering:auto;enable-background:accumulate"/>
  <path style="fill:#ffffff;color:#000000;font-stretch:normal;font-variant-ligatures:normal;font-variant-position:normal;font-variant-caps:normal;font-variant-numeric:normal;font-variant-alternates:normal;font-feature-settings:normal;text-indent:0;text-align:start;text-decoration-line:none;text-decoration-style:solid;text-decoration-color:#000000;text-transform:none;writing-mode:lr-tb;direction:ltr;text-orientation:mixed;dominant-baseline:auto;baseline-shift:baseline;white-space:normal;shape-padding:0;clip-rule:nonzero;display:inline;overflow:visible;visibility:visible;isolation:auto;mix-blend-mode:normal;color-interpolation:sRGB;color-interpolation-filters:linearRGB;solid-color:#000000;solid-opacity:1;vector-effect:none;fill-rule:nonzero;color-rendering:auto;image-rendering:auto;shape-rendering:auto;text-rendering:auto;enable-background:accumulate" d="M 92,42 V 62 H 69 v 8 h 45.45508 L 68,118.14062 V 128 h 24 v 19 h 8 v -19 h 24 v -8 H 77.322266 L 124,71.628906 V 62 H 100 V 42 Z"/>
</svg>
