<?xml version='1.0' encoding='utf-8'?>
<svg xmlns="http://www.w3.org/2000/svg" width="192" height="192" version="1" id="svg30">
  <defs>
    <filter style="color-interpolation-filters:sRGB" id="filter868" x="-0.060923079" width="1.1218462" y="-0.039600002" height="1.0792">
      <feGaussianBlur stdDeviation="2.64"/>
    </filter>
    <filter style="color-interpolation-filters:sRGB" id="filter884" x="-0.012230769" width="1.0244615" y="-0.63599997" height="2.2719999">
      <feGaussianBlur stdDeviation="0.53"/>
    </filter>
    <filter style="color-interpolation-filters:sRGB" id="filter900" x="-0.04919748" width="1.098395" y="-0.046859428" height="1.0937189">
      <feGaussianBlur stdDeviation="1.64008"/>
    </filter>
  </defs>
  <rect ry="8" rx="8" y="20" x="44" height="160" width="104" style="filter:url(#filter868);opacity:0.2"/>
  <path d="m 52,16 c -4.432,0 -8,3.568 -8,8 v 8 h 104 v -8 c 0,-4.432 -3.568,-8 -8,-8 z m -8,136 v 16 c 0,4.432 3.568,8 8,8 h 88 c 4.432,0 8,-3.568 8,-8 v -16 z" style="fill:#e4e4e4"/>
  <rect ry="2" rx="2" y="24" x="84" height="4" width="24" style="fill:#333333"/>
  <rect y="32" x="44" height="120" width="104" style="fill:#3f3f3f"/>
  <path style="opacity:0.2;fill:#ffffff" d="M 52 16 C 47.568 16 44 19.568 44 24 L 44 25 C 44 20.568 47.568 17 52 17 L 140 17 C 144.432 17 148 20.568 148 25 L 148 24 C 148 19.568 144.432 16 140 16 L 52 16 z "/>
  <rect ry="4" rx="4" y="156" x="88" height="16" width="16" style="fill:#4d4d4d"/>
  <rect ry="4" rx="4" y="160" x="116" height="8" width="16" style="fill:#4d4d4d"/>
  <rect ry="4" rx="4" y="160" x="60" height="8" width="16" style="fill:#4d4d4d"/>
  <circle r="2" cy="26" cx="114" style="fill:#333333"/>
  <path d="m 104,56 -16,2.42 v 57.876 L 104,112 V 89.64 L 120,116 136,110 116,86 136.008,60.008 120.484,56 104,82.236 Z M 71.42,71.696 c -0.376,0 -0.756,0.148 -1.044,0.436 l -6.292,6.288 c -0.58,0.584 -0.44,1.412 0,2.104 l 6.508,10.22 c -0.48,1 -0.896,2.028 -1.248,3.084 -0.016,0.044 -0.04,0.088 -0.056,0.132 L 57.484,96.584 C 56.684,96.764 56,97.248 56,98.072 v 3.928 3.928 c 0,0.824 0.684,1.308 1.484,1.488 l 11.804,2.624 c 0.028,0.076 0.068,0.148 0.096,0.224 0.34,1.024 0.744,2.028 1.208,3 l -6.508,10.212 c -0.44,0.692 -0.58,1.52 0,2.104 l 6.292,6.288 c 0.58,0.58 1.512,0.58 2.092,0 l 10.204,-6.5 c 1.004,0.488 2.036,0.908 3.092,1.264 0.072,0.024 0.136,0.064 0.204,0.088 l 2.616,11.796 c 0,0.82 0.664,1.484 1.488,1.484 h 8.88 c 0.82,0 1.308,-0.684 1.484,-1.484 l 2.62,-12.156 c 1.2,-0.452 2.368,-0.992 3.492,-1.616 l 9.96,7.124 c 0.58,0.58 1.512,0.58 2.092,0 l 6.292,-6.288 c 0.58,-0.584 0.44,-1.412 0,-2.104 l -3.792,-5.748 -0.396,0.148 c -0.9,0.336 -1.916,-0.012 -2.416,-0.836 l -3.984,-6.564 C 110.984,118.416 103.144,124 94,124 81.848,124 72,114.152 72,102 72,92.676 77.812,84.728 86,81.524 V 77.14 l -0.032,0.14 c -0.088,0.032 -0.168,0.08 -0.256,0.112 -1.044,0.344 -2.064,0.756 -3.056,1.232 L 72.468,72.132 C 72.18,71.844 71.8,71.696 71.42,71.696 Z" style="filter:url(#filter900);opacity:0.2"/>
  <path d="m 104,52 -16,2.42 v 57.876 L 104,108 V 85.64 L 120,112 136,106 116,82 136.008,56.008 120.484,52 104,78.236 Z M 71.42,67.696 c -0.376,0 -0.756,0.148 -1.044,0.436 l -6.292,6.288 c -0.58,0.584 -0.44,1.412 0,2.104 l 6.508,10.22 c -0.48,1 -0.896,2.028 -1.248,3.084 -0.016,0.044 -0.04,0.088 -0.056,0.132 L 57.484,92.584 C 56.684,92.764 56,93.248 56,94.072 V 98 v 3.928 c 0,0.824 0.684,1.308 1.484,1.488 l 11.804,2.624 c 0.028,0.076 0.068,0.148 0.096,0.224 0.34,1.024 0.744,2.028 1.208,3 l -6.508,10.212 c -0.44,0.692 -0.58,1.52 0,2.104 l 6.292,6.288 c 0.58,0.58 1.512,0.58 2.092,0 l 10.204,-6.5 c 1.004,0.488 2.036,0.908 3.092,1.264 0.072,0.024 0.136,0.064 0.204,0.088 l 2.616,11.796 c 0,0.82 0.664,1.484 1.488,1.484 h 8.88 c 0.82,0 1.308,-0.684 1.484,-1.484 l 2.62,-12.156 c 1.2,-0.452 2.368,-0.992 3.492,-1.616 l 9.96,7.124 c 0.58,0.58 1.512,0.58 2.092,0 l 6.292,-6.288 c 0.58,-0.584 0.44,-1.412 0,-2.104 l -3.792,-5.748 -0.396,0.148 c -0.9,0.336 -1.916,-0.012 -2.416,-0.836 l -3.984,-6.564 C 110.984,114.416 103.144,120 94,120 81.848,120 72,110.152 72,98 72,88.676 77.812,80.728 86,77.524 V 73.14 l -0.032,0.14 c -0.088,0.032 -0.168,0.08 -0.256,0.112 -1.044,0.344 -2.064,0.756 -3.056,1.232 L 72.468,68.132 C 72.18,67.844 71.8,67.696 71.42,67.696 Z" style="fill:#ffffff"/>
  <rect y="32" x="44" height="2" width="104" style="filter:url(#filter884);opacity:0.2"/>
  <rect y="152" x="44" height="1" width="104" style="opacity:0.2;fill:#ffffff"/>
</svg>
