<?xml version='1.0' encoding='utf-8'?>
<svg xmlns="http://www.w3.org/2000/svg" width="192" height="192" version="1" id="svg24">
  <defs>
    <filter style="color-interpolation-filters:sRGB" id="filter987" x="0.05" y="0.05" width="1.10" height="1.10">
      <feGaussianBlur stdDeviation="3.20"/>
    </filter>
    <filter style="color-interpolation-filters:sRGB" id="filter1009" x="0.04" y="0.05" width="1.09" height="1.10">
      <feGaussianBlur stdDeviation="2.13"/>
    </filter>
    <filter style="color-interpolation-filters:sRGB" id="filter1013" x="0.05" y="0.05" width="1.10" height="1.10">
      <feGaussianBlur stdDeviation="0.48"/>
    </filter>
  </defs>
  <rect style="filter:url(#filter987);opacity:0.20;fill:#000000" width="160" height="160" x="16" y="20" rx="80" ry="80"/>
  <rect style="fill:#e4e4e4" width="160" height="160" x="16" y="16.00" rx="80" ry="80"/>
  <path style="filter:url(#filter1009);opacity:0.20" d="m 72.16,42.01 a 4.00,4.00 0 0 0 -3.79,2.32 L 44.37,96.33 a 4.00,4.00 0 0 0 7.27,3.36 L 57.95,86.01 h 28.11 l 6.31,13.68 15.92,39.80 a 4.00,4.00 0 0 0 7.48,0.16 L 126,110.11 l 10.23,29.22 a 4.00,4.00 0 0 0 7.48,0.16 l 16,-40.00 a 4.00,4.00 0 1 0 -7.42,-2.97 L 140.25,126.62 129.77,96.69 a 4.00,4.00 0 0 0 -7.55,0 L 111.75,126.62 99.77,96.66 a 4.00,4.00 0 0 0 0.13,0.33 L 75.63,44.33 A 4.00,4.00 0 0 0 72.16,42.01 Z M 72.00,55.56 82.36,78.01 H 61.64 Z"/>
  <path style="opacity:0.20;fill:#ffffff" d="M 96 16 C 51.68 16 16.01 51.68 16.01 96 C 16.01 96.34 16.01 96.67 16.01 97 C 16.01 52.68 51.68 17 96 17 C 140.32 17 175.99 52.68 175.99 97 C 175.99 96.67 175.99 96.34 175.99 96 C 175.99 51.68 140.32 16 96 16 z "/>
  <path style="fill:none;stroke:#7a7a7a;stroke-width:8;stroke-linecap:round;stroke-linejoin:round" d="M 48,96.00 72.00,44.00 96.00,96.00"/>
  <rect style="fill:#7a7a7a" width="32" height="8" x="56" y="76"/>
  <path style="fill:none;stroke:#7a7a7a;stroke-width:8;stroke-linecap:round;stroke-linejoin:round" d="M 96.00,96.00 112,136 126,96.00 140,136 156,96.00"/>
  <path style="fill:none;stroke:#404040;stroke-width:4px;stroke-linecap:round" d="M 54.00,134 96.00,96.00"/>
  <path style="fill:none;stroke:#404040;stroke-width:8;stroke-linecap:round" d="M 96.00,96.00 120,68.00"/>
  <circle style="filter:url(#filter1013);opacity:0.20" cx="96" cy="97" r="12"/>
  <circle style="fill:#595959" cx="96" cy="96" r="12"/>
</svg>
