<?xml version='1.0' encoding='utf-8'?>
<svg xmlns="http://www.w3.org/2000/svg" width="192" height="192" version="1" id="svg8">
  <defs>
    <filter id="filter848" style="color-interpolation-filters:sRGB" width="1.10" height="1.10" x="0.05" y="0.05">
      <feGaussianBlur stdDeviation="3.20"/>
    </filter>
    <filter id="filter1279" style="color-interpolation-filters:sRGB" width="1.14" height="1.29" x="0.07" y="0.15">
      <feGaussianBlur stdDeviation="2.12"/>
    </filter>
    <filter id="filter1283" style="color-interpolation-filters:sRGB" width="1.29" height="1.29" x="0.15" y="0.15">
      <feGaussianBlur stdDeviation="2.12"/>
    </filter>
    <filter id="filter1287" style="color-interpolation-filters:sRGB" width="1.29" height="1.10" x="0.15" y="0.05">
      <feGaussianBlur stdDeviation="2.12"/>
    </filter>
  </defs>
  <rect style="filter:url(#filter848);opacity:0.20" width="160" height="160" x="-180" y="-176" rx="8" ry="8" transform="matrix(0,-1,-1,0,0,0)"/>
  <rect style="fill:#e53935" width="160" height="160" x="-176" y="-176" rx="8" ry="8" transform="matrix(0,-1,-1,0,0,0)"/>
  <path style="opacity:0.20;fill:#ffffff" d="m 24,16 c -4.43,0 -8,3.57 -8,8 v 1 c 0,-4.43 3.57,-8 8,-8 h 144 c 4.43,0 8,3.57 8,8 v -1 c 0,-4.43 -3.57,-8 -8,-8 z"/>
  <rect style="filter:url(#filter1283);opacity:0.20;shape-rendering:crispEdges" width="35" height="35" x="78" y="81"/>
  <rect style="fill:#f7bfbf;shape-rendering:crispEdges" width="35" height="35" x="78" y="78"/>
  <rect style="filter:url(#filter1279);opacity:0.20;shape-rendering:crispEdges" width="71" height="35" x="78" y="46"/>
  <rect style="fill:#fbe2e0;shape-rendering:crispEdges" width="71" height="35" x="78" y="43"/>
  <rect style="filter:url(#filter1287);opacity:0.20;shape-rendering:crispEdges" width="35" height="106" x="43" y="46"/>
  <rect style="fill:#ffffff;shape-rendering:crispEdges" width="35" height="106" x="43" y="43"/>
</svg>
