<?xml version='1.0' encoding='utf-8'?>
<svg xmlns="http://www.w3.org/2000/svg" width="192" height="192" version="1" id="svg28">
  <defs>
    <filter style="color-interpolation-filters:sRGB" id="filter6495" x="0.05" y="0.05" width="1.10" height="1.10">
      <feGaussianBlur stdDeviation="3.20"/>
    </filter>
    <filter style="color-interpolation-filters:sRGB" id="filter4817" x="0.09" y="0.13" width="1.19" height="1.25">
      <feGaussianBlur stdDeviation="4.48"/>
    </filter>
  </defs>
  <rect transform="matrix(0,-1,-1,0,0,0)" ry="12" rx="12" y="-176" x="-180" height="160" width="160" style="filter:url(#filter6495);opacity:0.20;fill:#000000"/>
  <rect transform="matrix(0,-1,-1,0,0,0)" ry="12" rx="12" y="-176" x="-176" height="160" width="160" style="fill:#3f3f3f"/>
  <path style="opacity:0.10;fill:#ffffff" d="m 28,16 c -6.65,0 -12,5.35 -12,12 v 1 c 0,-6.65 5.35,-12 12,-12 h 136 c 6.65,0 12,5.35 12,12 v -1 c 0,-6.65 -5.35,-12 -12,-12 z"/>
  <path style="filter:url(#filter4817);opacity:0.20;fill:#000000;color:#000000" d="M 57.15,55 C 54.41,55 49.51,55.17 45.35,58.77 41.19,62.37 39,68.47 39,77.07 c 0.00,2.28 1.29,4.36 3.34,5.38 L 72.73,97.50 42.34,112.56 c -2.04,1.01 -3.34,3.10 -3.34,5.38 0,8.59 2.19,14.69 6.35,18.29 C 49.51,139.83 54.41,140 57.15,140 h 56.53 c 2.35,0 7.26,0.05 11.79,-3.40 2.85,-2.11 5.10,-5.42 6.37,-9.82 l 19.37,9.60 C 152.73,137.08 153,137.12 153,135.94 v -10.63 c 0,0.90 0.30,-1.58 -1.61,-2.23 L 99.76,97.50 151.39,71.92 C 152.70,71.27 153,70.59 153,69.69 V 59.06 c 0,-1.18 0.27,-1.14 -1.79,0.45 l -19.37,9.60 c -1.27,-4.39 -3.52,-7.71 -6.37,-9.82 C 120.94,55.05 116.03,55 113.68,55 Z m 0,12 h 56.53 c 1.80,0 3.55,0.24 4.65,1.05 0.87,0.65 2.04,1.87 2.48,5.63 L 86.25,90.80 51.21,73.45 c 0.42,-3.74 1.43,-5.12 1.99,-5.60 C 53.91,67.23 55.08,67 57.15,67 Z m 29.09,37.20 34.56,17.12 c 0.44,3.77 -1.61,4.99 -2.48,5.63 C 117.23,127.76 115.48,128 113.68,128 H 57.15 c -2.07,0 -3.24,0.23 -3.95,0.85 0.56,0.48 -1.56,-1.86 -1.99,-5.60 z"/>
  <path style="fill:#ffffff;color:#000000" d="M 57.15 53 C 54.41 53 49.51 53.17 45.35 56.77 C 41.19 60.37 39 66.47 39 75.07 C 39.00 77.35 40.29 79.43 42.34 80.44 L 72.73 95.50 L 42.34 110.56 C 40.29 111.57 39.00 113.65 39 115.93 C 39 124.53 41.19 130.63 45.35 134.23 C 49.51 137.83 54.41 138 57.15 138 L 113.68 138 C 116.03 138 120.94 137.95 125.46 134.60 C 128.32 132.49 130.56 129.18 131.84 124.78 L 151.21 134.38 C 152.73 135.08 153 135.12 153 133.94 L 153 123.31 C 153 122.41 152.70 121.73 151.39 121.08 L 99.76 95.50 L 151.39 69.92 C 152.70 69.27 153 68.59 153 67.69 L 153 57.06 C 153 55.88 152.73 55.92 151.21 56.62 L 131.84 66.22 C 130.56 61.82 128.32 58.51 125.46 56.40 C 120.94 53.05 116.03 53 113.68 53 L 57.15 53 z M 57.15 65 L 113.68 65 C 115.48 65 117.23 65.24 118.33 66.05 C 119.20 66.69 120.37 67.91 120.81 71.68 L 86.25 88.80 L 51.21 71.45 C 51.63 67.71 52.64 66.33 53.20 65.85 C 53.91 65.23 55.08 65 57.15 65 z M 86.25 102.20 L 120.81 119.32 C 120.37 123.09 119.20 124.31 118.33 124.95 C 117.23 125.76 115.48 126 113.68 126 L 57.15 126 C 55.08 126 53.91 125.77 53.20 125.15 C 52.64 124.67 51.63 123.29 51.21 119.55 L 86.25 102.20 z "/>
</svg>
