<?xml version='1.0' encoding='utf-8'?>
<svg xmlns="http://www.w3.org/2000/svg" width="192" height="192" version="1" id="svg16">
  <defs>
    <filter style="color-interpolation-filters:sRGB" id="filter867" x="-0.048000001" width="1.096" y="-0.048000001" height="1.096">
      <feGaussianBlur stdDeviation="3.2"/>
    </filter>
    <filter style="color-interpolation-filters:sRGB" id="filter5033" x="-0.048000002" y="-0.048000001" width="1.096" height="1.096">
      <feGaussianBlur stdDeviation="2.2"/>
    </filter>
  </defs>
  <rect ry="80" rx="80" height="160" width="160" y="-176" x="-180" transform="matrix(0,-1,-1,0,0,0)" style="filter:url(#filter867);opacity:0.2;fill:#000000"/>
  <rect style="fill:#ea3633" transform="matrix(0,-1,-1,0,0,0)" x="-176" y="-176" width="160" height="160" rx="80" ry="80"/>
  <path style="opacity:0.2;fill:#ffffff" d="M 96 16 C 51.68 16 16 51.68 16 96 C 16 96.336 16.002 96.6675 16 97 C 16 52.68 51.68 17 96 17 C 140.32 17 176 52.68 176 97 C 175.998 96.6675 176 96.336 176 96 C 176 51.68 140.32 16 96 16 z "/>
  <path style="filter:url(#filter5033);opacity:0.2;fill:#000000" d="m 96.000002,44 a 55,55 0 0 0 -55,55 55,55 0 0 0 55,55 A 55,55 0 0 0 151,99 55,55 0 0 0 96.000002,44 Z m 0,26 A 29,29 0 0 1 120.6875,83.794921 c -17.71677,2.712345 -35.424018,5.742622 -53.107428,9.470704 A 29,29 0 0 1 96.000002,70 Z M 122.75977,87.855468 A 29,29 0 0 1 125,99 29,29 0 0 1 96.000002,128 29,29 0 0 1 77.474612,121.13281 c 12.98003,-14.0695 28.294538,-24.852703 45.285158,-33.277342 z"/>
  <path style="fill:#ffffff" d="m 96.000002,41 a 55,55 0 0 0 -55,55 55,55 0 0 0 55,55 A 55,55 0 0 0 151,96 55,55 0 0 0 96.000002,41 Z m 0,26 A 29,29 0 0 1 120.6875,80.794921 c -17.71677,2.712345 -35.424018,5.742622 -53.107428,9.470704 A 29,29 0 0 1 96.000002,67 Z M 122.75977,84.855468 A 29,29 0 0 1 125,96 29,29 0 0 1 96.000002,125 29,29 0 0 1 77.474612,118.13281 c 12.98003,-14.0695 28.294538,-24.852703 45.285158,-33.277342 z"/>
</svg>
