<?xml version='1.0' encoding='utf-8'?>
<svg xmlns="http://www.w3.org/2000/svg" width="192" height="192" version="1.1" id="svg12">
  <defs>
    <filter style="color-interpolation-filters:sRGB" id="filter963" x="0.05" y="0.05" width="1.10" height="1.10">
      <feGaussianBlur stdDeviation="3.20"/>
    </filter>
    <filter style="color-interpolation-filters:sRGB" id="filter967" x="0.04" y="0.06" width="1.08" height="1.12">
      <feGaussianBlur stdDeviation="2.04"/>
    </filter>
  </defs>
  <rect style="filter:url(#filter963);opacity:0.20;fill:#000000" width="160" height="160" x="16" y="20" rx="12" ry="12"/>
  <rect style="fill:#7cca3e" width="160" height="160" x="16" y="16" rx="12" ry="12"/>
  <path style="opacity:0.20;fill:#ffffff" d="M 28 16 C 21.35 16 16 21.35 16 28 L 16 29 C 16 22.35 21.35 17 28 17 L 164 17 C 170.65 17 176 22.35 176 29 L 176 28 C 176 21.35 170.65 16 164 16 L 28 16 z "/>
  <path style="filter:url(#filter967);opacity:0.20;fill-rule:evenodd" d="m 40,66 v 40 c 0.00,0.86 0.14,1.72 0.41,2.53 0,0 1.55,4.63 5.44,8.88 C 49.74,121.65 56.71,126 66,126 c 9.29,0 16.26,-4.35 20.15,-8.59 3.89,-4.25 5.44,-8.88 5.44,-8.88 C 91.86,107.72 92.00,106.86 92,106 V 94.13 c 1.19,1.60 0.94,1.61 2.23,3.24 1.50,1.90 3.45,3.48 5.07,5.36 C 96.18,119.78 96,142.23 96,146 h 16 c 0,-2.81 0.45,-12.68 1.60,-23.55 C 119.05,126.59 124.91,130 132,130 c 12.13,0 21.47,-5.69 26.25,-13.20 C 163.03,109.29 164,100.89 164,94 164,85.33 159.47,77.90 153.41,73.19 147.36,68.48 139.78,66 132,66 c -10.05,0 -18.08,0.68 -22.91,8.20 -1.94,3.01 -3.33,6.39 -4.67,9.80 C 98.99,76.64 94.05,69.14 92,66.00 92,66 92,66 92,66 H 76 v 8 30.09 c 0.17,0.41 0.36,1.10 -1.65,2.50 C 72.74,108.35 70.71,110 66,110 c -4.71,0 -6.74,-1.65 -8.35,-3.41 -1.29,-1.40 -1.48,-2.09 -1.65,-2.50 V 66 Z m 92,16 c 4.22,0 8.64,1.52 11.59,3.81 C 146.53,88.10 148,90.67 148,94 c 0,5.11 -1.03,10.71 -3.25,14.20 C 142.53,111.69 139.87,114 132,114 c -1.80,0 -6.09,-1.74 -10.84,-5.66 -1.37,-1.13 -2.74,-3.04 -4.15,-4.41 1.56,-5.84 3.19,-11.83 5.52,-15.47 C 125.58,83.72 128.05,82 132,82 Z"/>
  <path style="fill:#ffffff;fill-rule:evenodd" d="m 40,64 v 40 c 0.00,0.86 0.14,1.72 0.41,2.53 0,0 1.55,4.63 5.44,8.88 C 49.74,119.65 56.71,124 66,124 c 9.29,0 16.26,-4.35 20.15,-8.59 3.89,-4.25 5.44,-8.88 5.44,-8.88 C 91.86,105.72 92.00,104.86 92,104 V 92.13 c 1.19,1.60 0.94,1.61 2.23,3.24 1.50,1.90 3.45,3.48 5.07,5.36 C 96.18,117.78 96,140.23 96,144 h 16 c 0,-2.81 0.45,-12.68 1.60,-23.55 C 119.05,124.59 124.91,128 132,128 c 12.13,0 21.47,-5.69 26.25,-13.20 C 163.03,107.29 164,98.89 164,92 164,83.33 159.47,75.90 153.41,71.19 147.36,66.48 139.78,64 132,64 c -10.05,0 -18.08,0.68 -22.91,8.20 -1.94,3.01 -3.33,6.39 -4.67,9.80 C 98.99,74.64 94.05,67.14 92,64.00 92,64 92,64 92,64 H 76 v 8 30.09 c 0.17,0.41 0.36,1.10 -1.65,2.50 C 72.74,106.35 70.71,108 66,108 c -4.71,0 -6.74,-1.65 -8.35,-3.41 -1.29,-1.40 -1.48,-2.09 -1.65,-2.50 V 64 Z m 92,16 c 4.22,0 8.64,1.52 11.59,3.81 C 146.53,86.10 148,88.67 148,92 c 0,5.11 -1.03,10.71 -3.25,14.20 C 142.53,109.69 139.87,112 132,112 c -1.80,0 -6.09,-1.74 -10.84,-5.66 -1.37,-1.13 -2.74,-3.04 -4.15,-4.41 1.56,-5.84 3.19,-11.83 5.52,-15.47 C 125.58,81.72 128.05,80 132,80 Z"/>
</svg>
