<?xml version='1.0' encoding='utf-8'?>
<svg xmlns="http://www.w3.org/2000/svg" width="192" height="192" version="1" id="svg18">
  <defs>
    <filter style="color-interpolation-filters:sRGB" id="filter975" x="-0.050261311" y="-0.045234051" width="1.1005226" height="1.0904681">
      <feGaussianBlur stdDeviation="3.0156531"/>
    </filter>
    <filter style="color-interpolation-filters:sRGB" id="filter979" x="-0.046028582" y="-0.061677665" width="1.0920572" height="1.1233553">
      <feGaussianBlur stdDeviation="2.6154998"/>
    </filter>
  </defs>
  <path fill="#4f4f4f" d="m 96.430804,20.002682 a 18.26255,18.191749 0 0 0 -9.564079,2.42682 L 33.130284,53.333755 A 18.26255,18.191749 0 0 0 23.99821,69.089884 v 61.812506 a 18.26255,18.191749 0 0 0 9.131274,15.75453 l 53.736441,30.90585 a 18.26255,18.191749 0 0 0 18.262545,0 l 53.73645,-30.90585 a 18.26255,18.191749 0 0 0 9.13207,-15.75613 V 69.088284 A 18.26255,18.191749 0 0 0 158.86492,53.332155 L 105.12847,22.427902 a 18.26255,18.191749 0 0 0 -8.700066,-2.42682 z" style="filter:url(#filter975);opacity:0.2;fill:#000000"/>
  <path fill="#4f4f4f" d="m 96.430804,16.005323 a 18.26255,18.191749 0 0 0 -9.564079,2.42682 L 33.130284,49.336396 A 18.26255,18.191749 0 0 0 23.99821,65.092525 v 61.812505 a 18.26255,18.191749 0 0 0 9.131274,15.75453 l 53.736441,30.90585 a 18.26255,18.191749 0 0 0 18.262545,0 l 53.73645,-30.90585 a 18.26255,18.191749 0 0 0 9.13207,-15.75613 V 65.090925 A 18.26255,18.191749 0 0 0 158.86492,49.334796 L 105.12847,18.430543 a 18.26255,18.191749 0 0 0 -8.700066,-2.42682 z"/>
  <path style="opacity:0.1;fill:#ffffff" d="m 94.178473,16.101686 a 18.26255,18.191749 0 0 0 -0.289082,0.03908 18.26255,18.191749 0 0 1 0.367203,-0.03908 18.26255,18.191749 0 0 0 -0.07812,0 z m -1.664078,0.24219 a 18.26255,18.191749 0 0 0 -0.648441,0.148437 18.26255,18.191749 0 0 1 0.648441,-0.148437 z m -1.750014,0.429691 a 18.26255,18.191749 0 0 0 -0.593753,0.195314 18.26255,18.191749 0 0 1 0.593753,-0.195314 z m -1.77345,0.625005 a 18.26255,18.191749 0 0 0 -0.671882,0.304691 18.26255,18.191749 0 0 1 0.671882,-0.304691 z m -1.585953,0.742193 a 18.26255,18.191749 0 0 0 -0.539065,0.289067 18.26255,18.191749 0 0 1 0.539065,-0.289067 z M 33.131097,49.336332 a 18.26255,18.191749 0 0 0 -4.26566,3.398468 18.26255,18.191749 0 0 1 4.26566,-3.398468 z M 28.865437,52.7348 A 18.26255,18.191749 0 0 0 24.052898,63.922392 18.26255,18.191749 0 0 1 28.865437,52.7348 Z m -4.812539,11.187592 a 18.26255,18.191749 0 0 0 -0.05469,1.171885 v 61.813003 a 18.26255,18.191749 0 0 0 9.132887,15.75013 l 53.734816,30.9065 a 18.26255,18.191749 0 0 0 9.132887,2.4219 v -64.00052 a 18.26255,18.191749 0 0 1 -9.132887,-2.4219 L 33.131097,78.656884 A 18.26255,18.191749 0 0 1 24.052898,63.922392 Z"/>
  <path style="opacity:0.2;fill:#ffffff" d="m 96.428492,16.000123 v 0.0078 A 18.26255,18.191749 0 0 0 86.865913,18.42983 L 33.131097,49.336332 a 18.26255,18.191749 0 0 0 -9.078199,14.58606 18.26255,18.191749 0 0 0 9.078199,14.734492 l 53.734816,30.906506 a 18.26255,18.191749 0 0 0 18.265777,0 L 158.8665,78.656884 a 18.26255,18.191749 0 0 0 9.0782,-14.593867 18.26255,18.191749 0 0 0 -9.0782,-14.726685 L 105.13169,18.42983 a 18.26255,18.191749 0 0 0 -8.703198,-2.429707 z"/>
  <path style="filter:url(#filter979);opacity:0.2" d="M 120.41306,29.218729 23.99821,84.883248 v 44.023792 a 18.26255,18.191749 0 0 0 0.132813,2.08596 L 160.37433,52.336105 a 18.26255,18.191749 0 0 0 -1.50783,-1.000008 z"/>
  <path style="fill:#00cbec" d="M 120.41306,27.218965 23.99821,82.883483 v 44.023797 a 18.26255,18.191749 0 0 0 0.132813,2.08596 L 160.37433,50.33634 a 18.26255,18.191749 0 0 0 -1.50783,-1.000008 z"/>
  <path style="fill:#00a7c2" d="m 32.279527,78.102196 -8.281317,4.781287 v 44.023797 a 18.26255,18.191749 0 0 0 0.125001,2.02346 18.26255,18.191749 0 0 0 0.0078,0.0625 L 72.295482,101.18832 33.131097,78.656884 a 18.26255,18.191749 0 0 1 -0.85157,-0.554688 z"/>
  <path style="opacity:0.1;fill:#ffffff" d="M 96.427734 16.007812 A 18.26255 18.191749 0 0 0 86.867188 18.429688 L 33.130859 49.335938 A 18.26255 18.191749 0 0 0 23.998047 65.091797 L 23.998047 66.09375 A 18.26255 18.191749 0 0 1 33.130859 50.335938 L 86.867188 19.429688 A 18.26255 18.191749 0 0 1 96.427734 17.007812 L 96.429688 17.007812 A 18.26255 18.191749 0 0 1 105.13281 19.429688 L 158.86914 50.335938 A 18.26255 18.191749 0 0 1 168.00195 66.09375 L 168.00195 65.091797 A 18.26255 18.191749 0 0 0 158.86914 49.335938 L 105.13281 18.429688 A 18.26255 18.191749 0 0 0 96.429688 16.007812 L 96.427734 16.007812 z "/>
</svg>
