<?xml version='1.0' encoding='utf-8'?>
<svg xmlns="http://www.w3.org/2000/svg" width="192" height="192" version="1" id="svg16">
  <defs>
    <filter style="color-interpolation-filters:sRGB" id="filter867" x="0.05" width="1.10" y="0.05" height="1.10">
      <feGaussianBlur stdDeviation="3.20"/>
    </filter>
    <filter style="color-interpolation-filters:sRGB" id="filter7930" x="0.11" y="0.06" width="1.22" height="1.11">
      <feGaussianBlur stdDeviation="2.45"/>
    </filter>
  </defs>
  <rect ry="80" rx="80" height="160" width="160" y="-176" x="-180" transform="matrix(0,-1,-1,0,0,0)" style="filter:url(#filter867);opacity:0.20;fill:#000000"/>
  <rect style="fill:#ea463e" transform="matrix(0,-1,-1,0,0,0)" x="-176" y="-176" width="160" height="160" rx="80" ry="80"/>
  <path style="opacity:0.20;fill:#ffffff" d="M 96 16 C 51.68 16 16 51.68 16 96 C 16 96.34 16.00 96.67 16 97 C 16 52.68 51.68 17 96 17 C 140.32 17 176 52.68 176 97 C 176.00 96.67 176 96.34 176 96 C 176 51.68 140.32 16 96 16 z "/>
  <path style="filter:url(#filter7930);opacity:0.20;fill:#000000" d="m 93.92,47 c 0,0 3.24,4.06 -1.68,15.32 -6.04,13.83 -19.02,22.90 -22.56,35.99 -1.41,5.21 0.54,10.79 1.60,15.75 3.12,7.23 10.29,13.95 14.91,19.03 0.47,0.52 -2.90,-3.68 -3.89,-8.45 -2.38,-12.68 8.97,-25.24 12.95,-37.56 2.72,-7.49 1.03,-9.05 1.50,-8.27 0.59,0.97 7.56,11.23 10.02,23.59 1.37,6.86 -4.49,15.39 -9.47,20.13 -4.08,3.88 -3.48,12.35 -3.12,12.01 2.20,-6.75 5.78,-8.89 9.38,-10.59 -4.01,3.94 -7.39,10.79 -7.57,17.32 0.08,3.10 0.44,6.12 2.18,8.72 0,0 0.66,-11.02 6.62,-15.20 6.49,-4.55 12.24,-9.93 15.56,-15.61 C 130.55,97.58 109.00,63.21 93.92,47 Z m 6.07,46 c 0.06,0.00 -1.80,3.68 -4.60,7.60 -2.89,4.06 -6.68,9.10 -8.42,14.80 -1.51,4.96 -1.40,10.48 1.31,15.60 0,0 0.63,-3.45 2.30,-7.42 1.71,-4.06 7.87,-12.97 9.83,-19.02 C 101.95,99.85 99.99,93 99.99,93 Z"/>
  <path style="fill:#ffffff" d="M 92.24,60.33 C 97.16,49.06 93.92,45 93.92,45 c 15.08,16.21 36.63,50.58 26.43,72.19 -3.32,5.69 -9.06,11.07 -15.56,15.61 C 98.84,136.98 98.18,148 98.18,148 96.44,145.40 95.92,142.38 96,139.28 c 0.18,-6.53 3.56,-13.38 7.57,-17.32 -3.60,1.70 -7.18,3.84 -9.38,10.59 0.36,0.34 0.96,-8.13 3.12,-12.01 4.99,-4.74 10.84,-13.27 9.47,-20.13 -2.46,-12.36 -9.43,-22.62 -10.02,-23.59 0.48,0.79 1.21,0.78 -1.50,8.27 -3.98,12.32 -15.32,24.88 -12.95,37.56 0.98,4.77 4.36,8.97 3.89,8.45 -4.62,-5.08 -11.79,-11.80 -14.91,-19.03 -2.14,-4.96 -3.01,-10.54 -1.60,-15.75 3.54,-13.09 16.52,-22.17 22.56,-35.99 z"/>
  <path style="fill:#f5a39f" d="m 99.99,91 c 0,0 1.96,6.85 0.42,11.56 -1.96,6.04 -8.13,14.96 -9.83,19.02 C 88.91,125.55 88.28,129 88.28,129 85.57,123.87 85.46,118.36 86.98,113.40 88.71,107.69 92.50,102.65 95.40,98.60 98.19,94.68 99.93,91.00 99.99,91 Z"/>
</svg>
