<?xml version='1.0' encoding='utf-8'?>
<svg xmlns="http://www.w3.org/2000/svg" width="192" height="192" version="1" id="svg12">
  <defs>
    <filter style="color-interpolation-filters:sRGB" id="filter845" x="-0.050666666" y="-0.045599999" width="1.1013333" height="1.0912">
      <feGaussianBlur stdDeviation="3.04"/>
    </filter>
    <filter style="color-interpolation-filters:sRGB" id="filter5591" x="-0.10800001" y="-0.108" width="1.216" height="1.216">
      <feGaussianBlur stdDeviation="3.0599999"/>
    </filter>
  </defs>
  <path style="filter:url(#filter845);opacity:0.2" d="m 36,20 h 120 c 6.648,0 12,5.352 12,12 v 84 l -64,64 H 36 c -6.648,0 -12,-5.352 -12,-12 V 32 c 0,-6.648 5.352,-12 12,-12 z"/>
  <path style="fill:#f44336;stop-color:#000000" d="m 36,16 h 120 c 6.648,0 12,5.352 12,12 v 84 l -64,64 H 36 c -6.648,0 -12,-5.352 -12,-12 V 28 c 0,-6.648 5.352,-12 12,-12 z"/>
  <path style="fill:#f5675e" d="m 168,112 h -56 c -4.42,0 -8,3.58 -8,8 v 56 z"/>
  <path style="opacity:0.2;fill:#ffffff" d="M 36 16 C 29.352 16 24 21.352 24 28 L 24 29 C 24 22.352 29.352 17 36 17 L 156 17 C 162.648 17 168 22.352 168 29 L 168 28 C 168 21.352 162.648 16 156 16 L 36 16 z "/>
  <path style="opacity:0.2;fill:#ffffff" d="M 112 112 C 107.58 112 104 115.58 104 120 L 104 121 C 104 116.58 107.58 113 112 113 L 167 113 L 168 112 L 112 112 z "/>
  <path style="filter:url(#filter5591);opacity:0.2;fill:#000000" d="M 62,116.81333 V 132 H 77.13 L 115.37999,93.750001 100.25,78.563334 Z m 66.81,-36.436663 c 1.58666,-1.586667 1.58666,-4.136667 0,-5.723333 L 119.34666,65.19 c -1.64334,-1.586667 -4.13667,-1.586667 -5.72333,0 l -7.93333,7.933334 15.12999,15.186667 z"/>
  <path style="fill:#ffffff" d="M 62,114.81333 V 130 H 77.13 L 115.37999,91.750001 100.25,76.563334 Z m 66.81,-36.436663 c 1.58666,-1.586667 1.58666,-4.136667 0,-5.723333 L 119.34666,63.19 c -1.64334,-1.586667 -4.13667,-1.586667 -5.72333,0 l -7.93333,7.933334 15.12999,15.186667 z"/>
</svg>
