<?xml version='1.0' encoding='utf-8'?>
<svg xmlns="http://www.w3.org/2000/svg" width="192" height="192" version="1" id="svg18">
  <defs>
    <filter style="color-interpolation-filters:sRGB" id="filter893" x="-0.048000001" width="1.096" y="-0.048000001" height="1.096">
      <feGaussianBlur stdDeviation="3.2"/>
    </filter>
    <filter style="color-interpolation-filters:sRGB" id="filter916" x="-0.061333334" width="1.1226667" y="-0.039428572" height="1.0788571">
      <feGaussianBlur stdDeviation="1.84"/>
    </filter>
    <filter style="color-interpolation-filters:sRGB" id="filter920" x="-0.136" width="1.272" y="-0.029142857" height="1.0582857">
      <feGaussianBlur stdDeviation="1.36"/>
    </filter>
  </defs>
  <rect style="filter:url(#filter893);opacity:0.2;fill:#000000" width="160" height="160" x="16" y="20" rx="8" ry="8"/>
  <rect style="fill:#4f4f4f" width="160" height="160" x="16" y="16" rx="8" ry="8"/>
  <path style="opacity:0.1;fill:#ffffff" d="M 24 16 C 19.568 16 16 19.568 16 24 L 16 25 C 16 20.568 19.568 17 24 17 L 168 17 C 172.432 17 176 20.568 176 25 L 176 24 C 176 19.568 172.432 16 168 16 L 24 16 z "/>
  <path style="fill:#d44338" d="m 108,40 h 24 v 112 l -24,-4 z"/>
  <path style="filter:url(#filter920);opacity:0.2" d="M 60,43.000009 V 155.00001 l 24,-4 V 43.000009 Z"/>
  <path style="fill:#d44338" d="m 60,40 v 112 l 24,-4 V 40 Z"/>
  <path style="filter:url(#filter916);opacity:0.2" d="m 60,43.000009 48,108.000001 24,4 v -4 l -24,-4 V 99.000009 l -24,-56 z"/>
  <path style="fill:#ff695e" d="m 60,40 48,108 24,4 L 84,40 Z"/>
</svg>
