<?xml version='1.0' encoding='utf-8'?>
<svg xmlns="http://www.w3.org/2000/svg" width="192" height="192" version="1" id="svg16">
  <defs>
    <filter style="color-interpolation-filters:sRGB" id="filter867" x="0.05" width="1.10" y="0.05" height="1.10">
      <feGaussianBlur stdDeviation="3.20"/>
    </filter>
    <filter style="color-interpolation-filters:sRGB" id="filter5033" x="0.05" y="0.05" width="1.10" height="1.10">
      <feGaussianBlur stdDeviation="2.20"/>
    </filter>
  </defs>
  <rect ry="80" rx="80" height="160" width="160" y="-176" x="-180" transform="matrix(0,-1,-1,0,0,0)" style="filter:url(#filter867);opacity:0.20;fill:#000000"/>
  <rect style="fill:#ea3633" transform="matrix(0,-1,-1,0,0,0)" x="-176" y="-176" width="160" height="160" rx="80" ry="80"/>
  <path style="opacity:0.20;fill:#ffffff" d="M 96 16 C 51.68 16 16 51.68 16 96 C 16 96.34 16.00 96.67 16 97 C 16 52.68 51.68 17 96 17 C 140.32 17 176 52.68 176 97 C 176.00 96.67 176 96.34 176 96 C 176 51.68 140.32 16 96 16 z "/>
  <path style="filter:url(#filter5033);opacity:0.20;fill:#000000" d="m 96.00,44 a 55,55 0 0 0 -55,55 55,55 0 0 0 55,55 A 55,55 0 0 0 151,99 55,55 0 0 0 96.00,44 Z m 0,26 A 29,29 0 0 1 120.69,83.79 c -17.72,2.71 -35.42,5.74 -53.11,9.47 A 29,29 0 0 1 96.00,70 Z M 122.76,87.86 A 29,29 0 0 1 125,99 29,29 0 0 1 96.00,128 29,29 0 0 1 77.47,121.13 c 12.98,-14.07 28.29,-24.85 45.29,-33.28 z"/>
  <path style="fill:#ffffff" d="m 96.00,41 a 55,55 0 0 0 -55,55 55,55 0 0 0 55,55 A 55,55 0 0 0 151,96 55,55 0 0 0 96.00,41 Z m 0,26 A 29,29 0 0 1 120.69,80.79 c -17.72,2.71 -35.42,5.74 -53.11,9.47 A 29,29 0 0 1 96.00,67 Z M 122.76,84.86 A 29,29 0 0 1 125,96 29,29 0 0 1 96.00,125 29,29 0 0 1 77.47,118.13 c 12.98,-14.07 28.29,-24.85 45.29,-33.28 z"/>
</svg>
