<?xml version='1.0' encoding='utf-8'?>
<svg xmlns="http://www.w3.org/2000/svg" width="192" height="192" version="1" id="svg28">
  <defs>
    <filter style="color-interpolation-filters:sRGB" id="filter6495" x="0.05" y="0.05" width="1.10" height="1.10">
      <feGaussianBlur stdDeviation="3.20"/>
    </filter>
    <filter style="color-interpolation-filters:sRGB" id="filter26649" x="0.07" y="0.08" width="1.15" height="1.15">
      <feGaussianBlur stdDeviation="2.91"/>
    </filter>
  </defs>
  <rect transform="matrix(0,-1,-1,0,0,0)" ry="12" rx="12" y="-176" x="-180" height="160" width="160" style="filter:url(#filter6495);opacity:0.20;fill:#000000"/>
  <rect transform="matrix(0,-1,-1,0,0,0)" ry="12" rx="12" y="-176" x="-176" height="160" width="160" style="fill:#229eff"/>
  <path style="filter:url(#filter26649);opacity:0.10;fill:#000000" d="m 95.83,53.00 c -3.20,0.05 -5.39,4.29 -6.66,6.48 l -3.94,6.80 0.42,0.72 -35.32,61 H 78.77 L 97,145.94 v -17.94 -16 -3.50 c 0,-2.49 2.01,-4.50 4.50,-4.50 2.49,0 4.50,2.01 4.50,4.50 v 19.50 h 36.50 l -35.32,-61 0.66,-1.14 -3.69,-6.38 c -1.27,-2.19 -3.46,-6.53 -6.66,-6.48 0.06,0.00 0.11,0.01 0.17,0.01 0.06,0.00 0.11,0.01 0.17,0.01 z"/>
  <path style="opacity:0.20;fill:#ffffff" d="m 28,16 c -6.65,0 -12,5.35 -12,12 v 1 c 0,-6.65 5.35,-12 12,-12 h 136 c 6.65,0 12,5.35 12,12 v -1 c 0,-6.65 -5.35,-12 -12,-12 z"/>
  <path style="fill:#ffffff" d="m 95.83,52.70 c -3.20,0.05 -3.40,4.59 -4.67,6.78 L 85.23,64.28 49.50,126 H 78.77 L 97,143.94 V 126 110 106.50 c 0,-2.49 2.01,-4.50 4.50,-4.50 2.49,0 4.50,2.01 4.50,4.50 V 126 h 36.50 l -35.98,-62.14 -4.96,-4.76 c -1.27,-2.19 -2.20,-6.45 -5.40,-6.40 0.06,0.00 0.47,3.48 0.17,0.01 0.06,0.00 0.11,0.01 0.17,0.01 z"/>
  <path style="fill:#007db0" d="M 95.83 51 C 92.63 50.95 90.44 55.29 89.17 57.48 L 84.82 65 L 107.18 65 L 102.83 57.48 C 101.56 55.29 99.37 50.95 96.17 51 C 96.11 51.00 96.06 51.01 96 51.01 C 95.94 51.01 95.89 51.00 95.83 51 z "/>
</svg>
