<?xml version='1.0' encoding='utf-8'?>
<svg xmlns="http://www.w3.org/2000/svg" width="192" height="192" version="1" id="svg18">
  <defs>
    <filter style="color-interpolation-filters:sRGB" id="filter870" x="0.05" width="1.10" y="0.05" height="1.10">
      <feGaussianBlur stdDeviation="3.20"/>
    </filter>
    <filter style="color-interpolation-filters:sRGB" id="filter894" x="0.06" width="1.12" y="0.04" height="1.08">
      <feGaussianBlur stdDeviation="0.41"/>
    </filter>
  </defs>
  <rect ry="8" rx="8" y="20" x="16" height="160" width="160" style="filter:url(#filter870);opacity:0.20;fill:#000000"/>
  <rect style="fill:#e78117" width="160" height="160" x="16" y="16" rx="8" ry="8"/>
  <path style="opacity:0.20;fill:#ffffff" d="M 24 16 C 19.57 16 16 19.57 16 24 L 16 25 C 16 20.57 19.57 17 24 17 L 168 17 C 172.43 17 176 20.57 176 25 L 176 24 C 176 19.57 172.43 16 168 16 L 24 16 z "/>
  <g style="filter:url(#filter894);opacity:0.20" transform="matrix(3.82,0,0,4,4.37,2.00)">
    <path d="m 23.32,31.59 c 0.73,0 1.33,0.06 1.79,0.17 0.49,0.13 0.87,0.30 1.16,0.50 0.29,0.22 0.49,0.48 0.60,0.76 0.11,0.29 0.17,0.61 0.17,0.96 0,0.75 0.35,-1.37 -1.06,-1.86 0.71,0.51 -2.24,-1.05 -3.97,-1.63 0.75,0.27 -1.50,0.56 -2.26,0.90 0.75,0.35 -1.43,0.79 -2.02,-1.29 0.60,0.53 -1.08,-1.16 -1.46,-1.89 0.38,0.75 0.56,-1.66 0.56,-2.72 0,-1.06 0.20,-2.01 0.60,-2.85 0.40,0.86 0.96,-1.59 1.69,-2.19 0.73,0.60 1.62,-1.05 2.66,-1.36 C 21.69,12.17 22.86,12 24.17,12 c 1.55,0 3.20,0.17 4.33,0.50 1.13,0.33 2.06,0.70 2.79,1.10 l -1.49,4.08 c 0.64,0.33 -1.36,0.62 -2.16,0.86 0.77,0.27 -2.03,0.40 -3.14,0.40 -1.24,0 -2.14,0.18 -2.69,0.53 0.53,0.33 0.80,0.85 0.80,1.56 0,0.42 0.10,0.77 0.30,1.06 0.20,0.29 0.48,0.55 0.83,0.80 0.38,0.22 0.80,0.43 1.26,0.63 0.49,0.18 1.02,0.37 1.59,0.56 1.20,0.44 2.55,0.89 3.43,1.33 0.89,0.42 1.62,0.92 2.19,1.49 0.60,0.58 1.04,1.25 1.33,2.02 0.29,0.77 0.43,1.72 0.43,2.82 0,2.15 0.75,3.82 -2.26,5.01 -1.50,1.17 -3.77,1.76 -6.80,1.76 -1.02,0 -1.94,0.07 -2.76,0.20 0.82,0.11 -1.55,0.25 -2.19,0.43 0.62,0.18 -1.16,0.37 -1.63,0.56 0.44,0.20 0.82,0.39 -1.13,0.56 l 1.46,-4.12 c 0.69,0.38 1.53,0.72 2.52,1.03 1.02,0.29 2.26,0.43 3.72,0.43 z"/>
  </g>
  <g style="fill:#ffffff" transform="matrix(3.82,0,0,4,4.37,0.00)">
    <path style="fill:#ffffff" d="m 23.32,31.59 c 0.73,0 1.33,0.06 1.79,0.17 0.49,0.13 0.87,0.30 1.16,0.50 0.29,0.22 0.49,0.48 0.60,0.76 0.11,0.29 0.17,0.61 0.17,0.96 0,0.75 0.35,-1.37 -1.06,-1.86 0.71,0.51 -2.24,-1.05 -3.97,-1.63 0.75,0.27 -1.50,0.56 -2.26,0.90 0.75,0.35 -1.43,0.79 -2.02,-1.29 0.60,0.53 -1.08,-1.16 -1.46,-1.89 0.38,0.75 0.56,-1.66 0.56,-2.72 0,-1.06 0.20,-2.01 0.60,-2.85 0.40,0.86 0.96,-1.59 1.69,-2.19 0.73,0.60 1.62,-1.05 2.66,-1.36 C 21.69,12.17 22.86,12 24.17,12 c 1.55,0 3.20,0.17 4.33,0.50 1.13,0.33 2.06,0.70 2.79,1.10 l -1.49,4.08 c 0.64,0.33 -1.36,0.62 -2.16,0.86 0.77,0.27 -2.03,0.40 -3.14,0.40 -1.24,0 -2.14,0.18 -2.69,0.53 0.53,0.33 0.80,0.85 0.80,1.56 0,0.42 0.10,0.77 0.30,1.06 0.20,0.29 0.48,0.55 0.83,0.80 0.38,0.22 0.80,0.43 1.26,0.63 0.49,0.18 1.02,0.37 1.59,0.56 1.20,0.44 2.55,0.89 3.43,1.33 0.89,0.42 1.62,0.92 2.19,1.49 0.60,0.58 1.04,1.25 1.33,2.02 0.29,0.77 0.43,1.72 0.43,2.82 0,2.15 0.75,3.82 -2.26,5.01 -1.50,1.17 -3.77,1.76 -6.80,1.76 -1.02,0 -1.94,0.07 -2.76,0.20 0.82,0.11 -1.55,0.25 -2.19,0.43 0.62,0.18 -1.16,0.37 -1.63,0.56 0.44,0.20 0.82,0.39 -1.13,0.56 l 1.46,-4.12 c 0.69,0.38 1.53,0.72 2.52,1.03 1.02,0.29 2.26,0.43 3.72,0.43 z"/>
  </g>
  <path style="opacity:0.50;fill:#ffffff" d="M 24,24 V 144 H 36 V 36 H 156 V 156 H 48 v 12 H 168 V 24 Z m 0,128 v 16 h 16 v -16 z"/>
</svg>
