<?xml version='1.0' encoding='utf-8'?>
<svg xmlns="http://www.w3.org/2000/svg" width="192" height="192" version="1" id="svg14">
  <defs>
    <filter style="color-interpolation-filters:sRGB" id="filter850" x="-0.048000001" width="1.096" y="-0.048000001" height="1.096">
      <feGaussianBlur stdDeviation="3.2"/>
    </filter>
    <filter style="color-interpolation-filters:sRGB" id="filter11855" x="-0.031646018" y="-0.099333334" width="1.063292" height="1.1986667">
      <feGaussianBlur stdDeviation="1.49"/>
    </filter>
  </defs>
  <rect style="filter:url(#filter850);opacity:0.2;fill:#000000" width="160" height="160" x="-180" y="-176" rx="80" ry="80" transform="matrix(0,-1,-1,0,0,0)"/>
  <rect transform="matrix(0,-1,-1,0,0,0)" ry="80" rx="80" y="-176" x="-176" height="160" width="160" style="fill:#5a96ff"/>
  <path style="opacity:0.2;fill:#ffffff" d="m 96,16 c -44.32,0 -80,35.68 -80,80 0,0.116813 0.0054,0.231684 0.0078,0.347656 C 16.356433,52.330881 51.897996,17 96,17 140.102,17 175.64357,52.330881 175.99219,96.347656 175.99459,96.231684 176,96.11681 176,96 176,51.68 140.32,16 96,16 Z"/>
  <path style="filter:url(#filter11855);opacity:0.2;fill:#000000" d="m 39,80 v 36 h 7 V 88.773438 C 46,88.773437 54.6803,107.61387 60.597656,116 H 70 V 80 h -7 v 26.97461 L 48.353516,80 Z m 39,0 v 22.87305 c 0,3.94475 1.177932,7.12698 3.535156,9.54687 C 83.892381,114.80666 87.3341,116 91.857422,116 c 3.185438,0 5.812273,-0.56434 7.882812,-1.69141 2.102386,-1.16022 3.664256,-2.71801 4.683596,-4.67382 C 105.47502,107.64583 106,105.42571 106,102.97266 V 80 h -7 v 21.97852 c 0.02692,2.75124 -0.756795,4.77359 -1.839844,6.0664 C 96.108961,109.33774 94.404098,110 92.046875,110 89.785213,110 88.082304,109.38868 86.935547,108.19531 85.788789,107.00194 85,104.94643 85,102.0293 V 80 Z m 37,0 v 36 h 7 V 87.765625 L 129.64453,116 h 6.74024 L 145,87.814453 V 116 h 7 V 80 h -9.99023 l -8.67969,27.5293 h -0.14453 L 124.99023,80 Z"/>
  <path style="fill:#223860" d="m 39,78 v 36 h 7 V 86.773438 C 46,86.773437 54.6803,105.61387 60.597656,114 H 70 V 78 h -7 v 26.97461 L 48.353516,78 Z m 39,0 v 22.87305 c 0,3.94475 1.177932,7.12698 3.535156,9.54687 C 83.892381,112.80666 87.3341,114 91.857422,114 c 3.185438,0 5.812273,-0.56434 7.882812,-1.69141 2.102386,-1.16022 3.664256,-2.71801 4.683596,-4.67382 C 105.47502,105.64583 106,103.42571 106,100.97266 V 78 h -7 v 21.978516 c 0.02692,2.751244 -0.756795,4.773594 -1.839844,6.066404 C 96.108961,107.33774 94.404098,108 92.046875,108 89.785213,108 88.082304,107.38868 86.935547,106.19531 85.788789,105.00194 85,102.94643 85,100.0293 V 78 Z m 37,0 v 36 h 7 V 85.765625 L 129.64453,114 h 6.74024 L 145,85.814453 V 114 h 7 V 78 h -9.99023 l -8.67969,27.5293 h -0.14453 L 124.99023,78 Z"/>
</svg>
