<svg xmlns="http://www.w3.org/2000/svg" id="svg28" width="192" height="192" version="1"><defs><filter style="color-interpolation-filters:sRGB" id="filter6495" width="1.1" height="1.1" x=".05" y=".05"><feGaussianBlur stdDeviation="3.2"/></filter><filter style="color-interpolation-filters:sRGB" id="filter13067" width="1.09" height="1.36" x=".05" y=".18"><feGaussianBlur stdDeviation="1.64"/></filter><filter style="color-interpolation-filters:sRGB" id="filter13071" width="1.11" height="1.24" x=".05" y=".12"><feGaussianBlur stdDeviation="2.42"/></filter></defs><rect width="160" height="160" x="-180" y="-176" rx="12" ry="12" transform="matrix(0,-1,-1,0,0,0)" style="filter:url(#filter6495);opacity:.2;fill:#000"/><rect width="160" height="160" x="-176" y="-176" rx="12" ry="12" transform="matrix(0,-1,-1,0,0,0)" style="fill:#e4e4e4"/><path style="filter:url(#filter13071);opacity:.2;fill:#000" d="M 96,65 67.94,77 H 51 v 5 h -8 v 32 H 149 V 82 h -8 v -5 h -16.94 z"/><path style="opacity:.2;fill:#fff" d="m 28,16 c -6.65,0 -12,5.35 -12,12 v 1 c 0,-6.65 5.35,-12 12,-12 h 136 c 6.65,0 12,5.35 12,12 v -1 c 0,-6.65 -5.35,-12 -12,-12 z"/><path style="fill:#0059b9" d="M 96,63 67.94,75 H 51 v 5 h -8 v 32 H 149 V 80 h -8 v -5 h -16.94 z"/><path style="filter:url(#filter13067);opacity:.2;fill:#000" d="m 55,85 v 22 h 5 7 v -5 H 60 V 85 Z m 67,0 v 5 h 3 l 1,-5 z m -50,4 c -1.66,0 -3,1.34 -3,3 v 12 c 0,1.66 1.34,3 3,3 h 9 c 1.66,0 3,-1.34 3,-3 V 92 c 0,-1.66 -1.34,-3 -3,-3 z m 14,0 v 3 3 9 c 0,1.66 1.34,3 3,3 h 5.50 c 1.11,0 1.48,0.89 2,-1.77 0.52,0.89 0.89,1.77 2,1.77 h 5.50 c 1.66,0 3,-1.34 3,-3 v -9 -3 -3 h -3 -2 v 4 2 2 6 H 99 V 102.88 97 95 89 h -2 -3 v 3 3 7.88 V 103 h -3 v -6 -2 -2 -4 h -2 z m 23,0 v 5 2 4 2 5 h 12 v -5 h -7 v -2 h 7 v -4 h -7 v -2 h 7 v -5 h -7 z m 22.79,0 c 0.12,0.00 0.24,0.00 0.37,0.01 -3.09,0.20 -6.13,2.53 -6.42,5.95 0,0.76 0.14,1.43 0.41,2.00 1.11,1.90 4.20,2.50 6.22,3.08 2.22,0.77 1.66,3.26 0.76,2.96 0.82,0 -1.94,0.31 -2.87,0.51 0.93,0.21 -2.03,0.51 -3.01,0.92 v 3.80 c 2.33,0.89 4.38,1.63 6.21,1.64 0.12,0.00 0.24,0.00 0.37,0.01 3.09,0.20 6.13,-2.53 6.42,-5.95 0,-3.22 -4.20,-4.57 -6.63,-5.28 -2.22,0.77 -1.66,-3.03 0.76,-2.73 0.82,0 1.94,0.27 2.87,0.48 0.93,0.21 2.03,0.71 3.01,1.12 V 90.64 C 135.67,89.75 133.62,89.01 131.79,89 Z M 74,93 h 5 v 10 h -5 z"/><path style="fill:#fff" d="m 55,83 v 22 h 5 7 v -5 H 60 V 83 Z m 67,0 v 5 h 3 l 1,-5 z m -50,4 c -1.66,0 -3,1.34 -3,3 v 12 c 0,1.66 1.34,3 3,3 h 9 c 1.66,0 3,-1.34 3,-3 V 90 c 0,-1.66 -1.34,-3 -3,-3 z m 14,0 v 3 3 9 c 0,1.66 1.34,3 3,3 h 5.50 c 1.11,0 1.48,0.89 2,-1.77 0.52,0.89 0.89,1.77 2,1.77 h 5.50 c 1.66,0 3,-1.34 3,-3 v -9 -3 -3 h -3 -2 v 4 2 2 6 H 99 V 100.88 95 93 87 h -2 -3 v 3 3 7.88 V 101 h -3 v -6 -2 -2 -4 h -2 z m 23,0 v 5 2 4 2 5 h 12 v -5 h -7 v -2 h 7 v -4 h -7 v -2 h 7 v -5 h -7 z m 22.79,0 c 0.12,0.00 0.24,0.00 0.37,0.01 -3.09,0.20 -6.13,2.53 -6.42,5.95 0,0.76 0.14,1.43 0.41,2.00 1.11,1.90 4.20,2.50 6.22,3.08 2.22,0.77 1.66,3.26 0.76,2.96 0.82,0 -1.94,0.31 -2.87,0.51 0.93,0.21 -2.03,0.51 -3.01,0.92 v 3.80 c 2.33,0.89 4.38,1.63 6.21,1.64 0.12,0.00 0.24,0.00 0.37,0.01 3.09,0.20 6.13,-2.53 6.42,-5.95 0,-3.22 -4.20,-4.57 -6.63,-5.28 -2.22,0.77 -1.66,-3.03 0.76,-2.73 0.82,0 1.94,0.27 2.87,0.48 0.93,0.21 2.03,0.71 3.01,1.12 V 88.64 C 135.67,87.75 133.62,87.01 131.79,87 Z M 74,91 h 5 v 10 h -5 z"/></svg>