<svg xmlns="http://www.w3.org/2000/svg" id="svg20" width="192" height="192" version="1"><defs><filter style="color-interpolation-filters:sRGB" id="filter859" width="1.1" height="1.1" x=".05" y=".05"><feGaussianBlur stdDeviation="3.2"/></filter><filter style="color-interpolation-filters:sRGB" id="filter875" width="1.1" height="1.1" x=".05" y=".05"><feGaussianBlur stdDeviation="2.72"/></filter><filter style="color-interpolation-filters:sRGB" id="filter891" width="1.1" height="1.09" x=".05" y=".04"><feGaussianBlur stdDeviation="1.04"/></filter></defs><rect style="filter:url(#filter859);opacity:.2;fill:#000" width="160" height="160" x="-180" y="-176" rx="80" ry="80" transform="matrix(0,-1,-1,0,0,0)"/><rect width="160" height="160" x="-176" y="-176" rx="80" ry="80" transform="matrix(0,-1,-1,0,0,0)" style="fill:#4f4f4f"/><path d="M 104.85,28.65 A 8,8 0 0 0 100,36 a 8,8 0 0 0 8,8 8,8 0 0 0 8,-8 8,8 0 0 0 -2.26,-5.56 68,68 0 0 0 -8.89,-1.79 z m -17.70,0.02 A 68,68 0 0 0 78.34,30.36 8,8 0 0 0 76,36 a 8,8 0 0 0 8,8 8,8 0 0 0 8,-8 8,8 0 0 0 -4.84,-7.34 z M 124.21,34.20 A 8,8 0 0 0 124,36 a 8,8 0 0 0 8,8 8,8 0 0 0 5.24,-1.96 68,68 0 0 0 -13.03,-7.84 z M 48,48 A 8,8 0 0 0 47.89,48.01 68,68 0 0 0 40.11,57.29 8,8 0 0 0 48,64 8,8 0 0 0 56,56 8,8 0 0 0 48,48 Z m 24,0 a 8,8 0 0 0 -8,8 8,8 0 0 0 8,8 8,8 0 0 0 8,-8 8,8 0 0 0 -8,-8 z m 24,0 a 8,8 0 0 0 -8,8 8,8 0 0 0 8,8 8,8 0 0 0 8,-8 8,8 0 0 0 -8,-8 z m 24,0 a 8,8 0 0 0 -8,8 8,8 0 0 0 8,8 8,8 0 0 0 8,-8 8,8 0 0 0 -8,-8 z m 24,0 a 8,8 0 0 0 -8,8 8,8 0 0 0 8,8 8,8 0 0 0 7.88,-6.62 68,68 0 0 0 -7.76,-9.38 A 8,8 0 0 0 144,48 Z M 36,68 A 8,8 0 0 0 33.97,68.27 68,68 0 0 0 29.75,80.98 8,8 0 0 0 36,84 8,8 0 0 0 44,76 8,8 0 0 0 36,68 Z m 24,0 a 8,8 0 0 0 -8,8 8,8 0 0 0 8,8 8,8 0 0 0 8,-8 8,8 0 0 0 -8,-8 z m 24,0 a 8,8 0 0 0 -8,8 8,8 0 0 0 8,8 8,8 0 0 0 8,-8 8,8 0 0 0 -8,-8 z m 24,0 a 8,8 0 0 0 -8,8 8,8 0 0 0 8,8 8,8 0 0 0 8,-8 8,8 0 0 0 -8,-8 z m 24,0 a 8,8 0 0 0 -8,8 8,8 0 0 0 8,8 8,8 0 0 0 8,-8 8,8 0 0 0 -8,-8 z m 24,0 a 8,8 0 0 0 -8,8 8,8 0 0 0 8,8 8,8 0 0 0 6.24,-2.99 68,68 0 0 0 -4.26,-12.75 A 8,8 0 0 0 156,68 Z M 48,88 a 8,8 0 0 0 -8,8 8,8 0 0 0 8,8 8,8 0 0 0 8,-8 8,8 0 0 0 -8,-8 z m 24,0 a 8,8 0 0 0 -8,8 8,8 0 0 0 8,8 8,8 0 0 0 8,-8 8,8 0 0 0 -8,-8 z m 24,0 a 8,8 0 0 0 -8,8 8,8 0 0 0 8,8 8,8 0 0 0 8,-8 8,8 0 0 0 -8,-8 z m 24,0 a 8,8 0 0 0 -8,8 8,8 0 0 0 8,8 8,8 0 0 0 8,-8 8,8 0 0 0 -8,-8 z m 24,0 a 8,8 0 0 0 -8,8 8,8 0 0 0 8,8 8,8 0 0 0 8,-8 8,8 0 0 0 -8,-8 z M 36,108 a 8,8 0 0 0 -6.24,2.99 68,68 0 0 0 4.26,12.75 A 8,8 0 0 0 36,124 a 8,8 0 0 0 8,-8 8,8 0 0 0 -8,-8 z m 24,0 a 8,8 0 0 0 -8,8 8,8 0 0 0 8,8 8,8 0 0 0 8,-8 8,8 0 0 0 -8,-8 z m 24,0 a 8,8 0 0 0 -8,8 8,8 0 0 0 8,8 8,8 0 0 0 8,-8 8,8 0 0 0 -8,-8 z m 24,0 a 8,8 0 0 0 -8,8 8,8 0 0 0 8,8 8,8 0 0 0 8,-8 8,8 0 0 0 -8,-8 z m 24,0 a 8,8 0 0 0 -8,8 8,8 0 0 0 8,8 8,8 0 0 0 8,-8 8,8 0 0 0 -8,-8 z m 24,0 a 8,8 0 0 0 -8,8 8,8 0 0 0 8,8 8,8 0 0 0 2.03,0.27 A 68,68 0 0 0 162.25,111.02 8,8 0 0 0 156,108 Z M 48,128 a 8,8 0 0 0 -7.88,6.62 68,68 0 0 0 7.76,9.38 A 8,8 0 0 0 48,144 a 8,8 0 0 0 8,-8 8,8 0 0 0 -8,-8 z m 24,0 a 8,8 0 0 0 -8,8 8,8 0 0 0 8,8 8,8 0 0 0 8,-8 8,8 0 0 0 -8,-8 z m 24,0 a 8,8 0 0 0 -8,8 8,8 0 0 0 8,8 8,8 0 0 0 8,-8 8,8 0 0 0 -8,-8 z m 24,0 a 8,8 0 0 0 -8,8 8,8 0 0 0 8,8 8,8 0 0 0 8,-8 8,8 0 0 0 -8,-8 z m 24,0 a 8,8 0 0 0 -8,8 8,8 0 0 0 8,8 8,8 0 0 0 0.11,0.01 68,68 0 0 0 7.78,-9.28 A 8,8 0 0 0 144,128 Z m -84,20 a 8,8 0 0 0 -5.24,1.96 68,68 0 0 0 13.03,7.84 A 8,8 0 0 0 68,156 8,8 0 0 0 60,148 Z m 24,0 a 8,8 0 0 0 -8,8 8,8 0 0 0 2.26,5.56 68,68 0 0 0 8.89,1.79 A 8,8 0 0 0 92,156 8,8 0 0 0 84,148 Z m 24,0 a 8,8 0 0 0 -8,8 8,8 0 0 0 4.84,7.34 68,68 0 0 0 8.82,-1.70 A 8,8 0 0 0 116,156 a 8,8 0 0 0 -8,-8 z m 24,0 a 8,8 0 0 0 -8,8 8,8 0 0 0 0.20,1.78 68,68 0 0 0 13.05,-7.80 A 8,8 0 0 0 132,148 Z" style="opacity:.2"/><path style="opacity:.1;fill:#fff" d="M 96 16 C 51.68 16 16.01 51.68 16.01 96 C 16.01 96.34 16.01 96.67 16.01 97 C 16.01 52.68 51.68 17 96 17 C 140.32 17 175.99 52.68 175.99 97 C 175.99 96.67 175.99 96.34 175.99 96 C 175.99 51.68 140.32 16 96 16 z"/><path d="m 96,32 c -37.67,0 -68,30.33 -68,68 0,37.67 30.33,68 68,68 37.67,0 68,-30.33 68,-68 0,-37.67 -30.33,-68 -68,-68 z m 0,12 c 31.02,0 56,24.98 56,56 0,31.02 -24.98,56 -56,56 C 64.98,156 40,131.02 40,100 40,68.98 64.98,44 96,44 Z" style="filter:url(#filter875);opacity:.2"/><path d="m 96,28 c -37.67,0 -68,30.33 -68,68 0,37.67 30.33,68 68,68 37.67,0 68,-30.33 68,-68 0,-37.67 -30.33,-68 -68,-68 z m 0,12 c 31.02,0 56,24.98 56,56 0,31.02 -24.98,56 -56,56 C 64.98,152 40,127.02 40,96 40,64.98 64.98,40 96,40 Z" style="fill:#f35c5c"/><path d="m 128,100 -24,14 -24.00,14 V 100.00 72.00 l 24.00,14 z" style="filter:url(#filter891);opacity:.2"/><path d="M 128,96.00 104,110 80.00,124 V 96.00 68.00 l 24.00,14 z" style="fill:#feefef"/></svg>