<?xml version='1.0' encoding='utf-8'?>
<svg xmlns="http://www.w3.org/2000/svg" width="192" height="192" version="1.1" id="svg38">
  <defs>
    <filter style="color-interpolation-filters:sRGB" id="filter1398" x="0.16" y="0.16" width="1.32" height="1.32">
      <feGaussianBlur stdDeviation="3.24"/>
    </filter>
    <filter style="color-interpolation-filters:sRGB" id="filter1402" x="0.49" y="0.08" width="1.97" height="1.16">
      <feGaussianBlur stdDeviation="3.24"/>
    </filter>
    <filter style="color-interpolation-filters:sRGB" id="filter1406" x="0.16" y="0.16" width="1.32" height="1.32">
      <feGaussianBlur stdDeviation="3.24"/>
    </filter>
    <filter style="color-interpolation-filters:sRGB" id="filter1410" x="0.17" y="0.31" width="1.34" height="1.63">
      <feGaussianBlur stdDeviation="3.24"/>
    </filter>
    <filter style="color-interpolation-filters:sRGB" id="filter1414" x="0.12" y="0.22" width="1.24" height="1.45">
      <feGaussianBlur stdDeviation="3.24"/>
    </filter>
    <filter style="color-interpolation-filters:sRGB" id="filter1418" x="0.09" y="0.17" width="1.18" height="1.34">
      <feGaussianBlur stdDeviation="3.24"/>
    </filter>
    <filter style="color-interpolation-filters:sRGB" id="filter1422" x="0.19" y="0.19" width="1.39" height="1.39">
      <feGaussianBlur stdDeviation="3.24"/>
    </filter>
  </defs>
  <path style="filter:url(#filter1402);opacity:0.20;fill:#010101;color:#000000" d="m 80,80 a 8,8 0 0 0 -8,8 v 84 a 8,8 0 0 0 8,8 8,8 0 0 0 8,-8 V 88 a 8,8 0 0 0 -8,-8 z"/>
  <circle style="filter:url(#filter1422);opacity:0.20" cx="32" cy="42" r="20"/>
  <path style="filter:url(#filter1398);opacity:0.20;fill:#010101;color:#000000" d="m 80,132 a 8,8 0 0 0 -5.66,2.34 l -32,32 a 8,8 0 0 0 0,11.31 8,8 0 0 0 11.31,0 l 32,-32 a 8,8 0 0 0 0,-11.31 A 8,8 0 0 0 80,132 Z"/>
  <path style="fill:none;stroke:#9c9c9c;stroke-width:16;stroke-linecap:round;stroke-linejoin:round" d="M 80,136 48,168"/>
  <path style="fill:none;stroke:#757575;stroke-width:16;stroke-linecap:round;stroke-linejoin:round" d="M 80,168 V 84"/>
  <path style="filter:url(#filter1406);opacity:0.20;fill:#010101;color:#000000" d="m 80,132 a 8,8 0 0 0 -5.66,2.34 8,8 0 0 0 0,11.31 l 32,32 a 8,8 0 0 0 11.31,0 8,8 0 0 0 0,-11.31 l -32,-32 A 8,8 0 0 0 80,132 Z"/>
  <path style="fill:none;stroke:#9c9c9c;stroke-width:16;stroke-linecap:round;stroke-linejoin:round" d="m 80,136 32,32"/>
  <rect style="filter:url(#filter1410);opacity:0.20" width="45.78" height="24.77" x="164.36" y="7.08" rx="5.06" ry="5.10" transform="matrix(0.86,0.51,0.49,0.87,0,0)"/>
  <rect style="fill:#607582" width="45.78" height="24.77" x="162.36" y="3.60" rx="5.06" ry="5.10" transform="matrix(0.86,0.51,0.49,0.87,0,0)"/>
  <path style="opacity:0.10;fill:#ffffff" d="M 140.07 87.07 C 138.37 87.11 136.73 88.02 135.81 89.63 L 128.60 102.30 C 128.07 103.23 127.90 104.25 128.00 105.23 C 128.06 104.57 128.25 103.92 128.60 103.30 L 135.81 90.63 C 136.86 88.79 138.85 87.86 140.80 88.11 C 141.45 88.19 142.09 88.40 142.70 88.76 L 173.48 106.79 C 174.94 107.64 175.80 109.11 175.95 110.69 C 176.14 108.76 175.24 106.82 173.48 105.79 L 142.70 87.76 C 142.09 87.40 141.45 87.19 140.80 87.11 C 140.55 87.08 140.31 87.06 140.07 87.07 z "/>
  <rect style="filter:url(#filter1414);opacity:0.20" width="64.15" height="34.70" x="109.92" y="2.08" rx="7.09" ry="7.14" transform="matrix(0.86,0.51,0.49,0.87,0,0)"/>
  <rect style="fill:#4b626d" width="64.15" height="34.70" x="107.92" y="-1.36" rx="7.09" ry="7.14" transform="matrix(0.86,0.51,0.49,0.87,0,0)"/>
  <circle style="fill:#00baff" cx="32" cy="38" r="20"/>
  <path style="opacity:0.20;fill:#ffffff" d="M 32 18 A 20 20 0 0 0 12 38 A 20 20 0 0 0 12.03 38.56 A 20 20 0 0 1 32 19 A 20 20 0 0 1 51.98 38.30 A 20 20 0 0 0 52 38 A 20 20 0 0 0 32 18 z "/>
  <rect style="filter:url(#filter1418);opacity:0.20" width="85.36" height="46.17" x="38.96" y="-3.64" rx="9.43" ry="9.50" transform="matrix(0.86,0.51,0.49,0.87,0,0)"/>
  <path style="opacity:0.10;fill:#ffffff" d="M 96.41 55.98 C 96.24 55.98 96.07 55.99 95.90 56 C 93.64 56.16 91.50 57.42 90.27 59.57 L 80.17 77.32 C 79.44 78.61 79.16 80.02 79.26 81.39 C 79.33 80.34 79.62 79.29 80.17 78.32 L 90.27 60.57 C 91.50 58.42 93.64 57.16 95.90 57 C 97.25 56.90 98.65 57.21 99.92 57.95 L 143.05 83.21 C 145.15 84.45 146.38 86.60 146.54 88.88 C 146.72 86.25 145.46 83.63 143.05 82.21 L 99.92 56.95 C 98.81 56.30 97.60 55.99 96.41 55.98 z "/>
  <rect style="fill:#37474f" width="85.36" height="46.17" x="36.96" y="-7.08" rx="9.43" ry="9.50" transform="matrix(0.86,0.51,0.49,0.87,0,0)"/>
  <path style="opacity:0.10;fill:#ffffff" d="M 38.87 16 C 38.64 16.00 38.41 16.01 38.19 16.02 C 35.18 16.24 32.34 17.91 30.71 20.77 L 17.27 44.39 C 16.33 46.03 15.95 47.82 16.04 49.57 C 16.12 48.15 16.51 46.72 17.27 45.39 L 30.71 21.77 C 32.34 18.91 35.18 17.24 38.19 17.02 C 39.99 16.90 41.86 17.30 43.55 18.29 L 100.93 51.89 C 103.80 53.57 105.43 56.54 105.57 59.65 C 105.77 56.19 104.11 52.75 100.93 50.89 L 43.55 17.29 C 42.07 16.42 40.46 16.01 38.87 16 z "/>
</svg>
