<?xml version='1.0' encoding='utf-8'?>
<svg xmlns="http://www.w3.org/2000/svg" width="192" height="192" version="1" id="svg22">
  <defs>
    <filter style="color-interpolation-filters:sRGB" id="filter862" x="0.05" width="1.10" y="0.05" height="1.10">
      <feGaussianBlur stdDeviation="3.20"/>
    </filter>
    <filter style="color-interpolation-filters:sRGB" id="filter878" x="0.05" width="1.10" y="0.05" height="1.10">
      <feGaussianBlur stdDeviation="2.24"/>
    </filter>
  </defs>
  <rect style="filter:url(#filter862);opacity:0.20;fill:#000000" width="160" height="160" x="-180" y="-176" rx="80" ry="80" transform="matrix(0,-1,-1,0,0,0)"/>
  <rect transform="matrix(0,-1,-1,0,0,0)" ry="80" rx="80" y="-176" x="-176" height="160" width="160" style="fill:#4f4f4f"/>
  <path d="m 96,44 c -4.43,0 -8,3.57 -8,8 v 96 c 0,4.43 3.57,8 8,8 4.43,0 8,-3.57 8,-8 V 52 c 0,-4.43 -3.57,-8 -8,-8 z M 72,64 c -4.43,0 -8,3.57 -8,8 v 56 c 0,4.43 3.57,8 8,8 4.43,0 8,-3.57 8,-8 V 72 c 0,-4.43 -3.57,-8 -8,-8 z m 48,0 c -4.43,0 -8,3.57 -8,8 v 56 c 0,4.43 3.57,8 8,8 4.43,0 8,-3.57 8,-8 V 72 c 0,-4.43 -3.57,-8 -8,-8 z M 48,84 c -4.43,0 -8,3.57 -8,8 v 16 c 0,4.43 3.57,8 8,8 4.43,0 8,-3.57 8,-8 V 92 c 0,-4.43 -3.57,-8 -8,-8 z m 96,0 c -4.43,0 -8,3.57 -8,8 v 16 c 0,4.43 3.57,8 8,8 4.43,0 8,-3.57 8,-8 V 92 c 0,-4.43 -3.57,-8 -8,-8 z" style="filter:url(#filter878);opacity:0.20"/>
  <path style="opacity:0.10;fill:#ffffff" d="M 96 16 C 51.68 16 16.01 51.68 16.01 96 C 16.01 96.34 16.01 96.67 16.01 97 C 16.01 52.68 51.68 17 96 17 C 140.32 17 175.99 52.68 175.99 97 C 175.99 96.67 175.99 96.34 175.99 96 C 175.99 51.68 140.32 16 96 16 z "/>
  <rect ry="8" rx="8" y="40" x="88" height="112" width="16" style="fill:#64ff63"/>
  <rect ry="8" rx="8" y="60" x="64" height="72" width="16" style="fill:#ffee4b"/>
  <rect ry="8" rx="8" y="80" x="40" height="32" width="16" style="fill:#ff6060"/>
  <rect transform="scale(-1,1)" ry="8" rx="8" y="60" x="-128" height="72" width="16" style="fill:#36adff"/>
  <rect transform="scale(-1,1)" ry="8" rx="8" y="80" x="-152" height="32" width="16" style="fill:#e657f3"/>
  <path style="opacity:0.20;fill:#ffffff" d="M 96 40 C 91.57 40 88 43.57 88 48 L 88 49 C 88 44.57 91.57 41 96 41 C 100.43 41 104 44.57 104 49 L 104 48 C 104 43.57 100.43 40 96 40 z M 72 60 C 67.57 60 64 63.57 64 68 L 64 69 C 64 64.57 67.57 61 72 61 C 76.43 61 80 64.57 80 69 L 80 68 C 80 63.57 76.43 60 72 60 z M 120 60 C 115.57 60 112 63.57 112 68 L 112 69 C 112 64.57 115.57 61 120 61 C 124.43 61 128 64.57 128 69 L 128 68 C 128 63.57 124.43 60 120 60 z M 48 80 C 43.57 80 40 83.57 40 88 L 40 89 C 40 84.57 43.57 81 48 81 C 52.43 81 56 84.57 56 89 L 56 88 C 56 83.57 52.43 80 48 80 z M 144 80 C 139.57 80 136 83.57 136 88 L 136 89 C 136 84.57 139.57 81 144 81 C 148.43 81 152 84.57 152 89 L 152 88 C 152 83.57 148.43 80 144 80 z "/>
</svg>
