<?xml version='1.0' encoding='utf-8'?>
<svg xmlns:xlink="http://www.w3.org/1999/xlink" xmlns="http://www.w3.org/2000/svg" width="192" height="192" version="1.1" id="svg33">
  <defs>
    <linearGradient id="linearGradient845" x1="301.30" x2="306.32" y1="260.41" y2="284.69" gradientTransform="matrix(2.1043574,0,0,3.6722348,-540.6934,-908.28752)" gradientUnits="userSpaceOnUse" xlink:href="#a"/>
    <linearGradient id="a" x1="0.09" x2="0.28" y2="0.91" gradientUnits="objectBoundingBox">
      <stop offset="0" stop-color="#fff"/>
      <stop offset="1" stop-color="#fff" stop-opacity="0"/>
    </linearGradient>
    <linearGradient id="b" x1="95.10" x2="89.65" y1="289.36" y2="265.08" gradientTransform="matrix(2.1040751,0,0,3.6727274,-99.7725,-918.72896)" gradientUnits="userSpaceOnUse" xlink:href="#a"/>
    <linearGradient id="c" x1="0.37" x2="32.14" y1="418.55" y2="412.65" gradientTransform="matrix(3.7391253,0,0,2.0667118,30.60714,-767.1506)" gradientUnits="userSpaceOnUse" xlink:href="#a"/>
    <linearGradient id="d" x1="34.02" x2="3.05" y1="694.51" y2="702.24" gradientTransform="matrix(3.7378602,0,0,2.0674113,32.017724,-1343.1431)" gradientUnits="userSpaceOnUse" xlink:href="#a"/>
    <filter style="color-interpolation-filters:sRGB" id="filter874" x="0.05" y="0.05" width="1.10" height="1.10">
      <feGaussianBlur stdDeviation="3.20"/>
    </filter>
    <filter style="color-interpolation-filters:sRGB" id="filter878" x="0.05" y="0.05" width="1.10" height="1.09">
      <feGaussianBlur stdDeviation="1.16"/>
    </filter>
  </defs>
  <circle style="filter:url(#filter874);opacity:0.20" cx="96" cy="100" r="80"/>
  <circle style="fill:#0099f2" cx="96" cy="96" r="80"/>
  <path style="fill:url(#linearGradient845)" d="m 104.58,146.09 -1.16,-8.93 A 40.59,40.59 0 0 0 94.67,56.96 c 0.57,0 -1.14,0.01 -1.70,0.04 v 0.08 c 0.15,0.01 0.30,0.02 0.46,0.02 a 4.48,4.48 0 1 1 0.51,-8.93 c 0.56,0.02 1.11,0.03 1.65,0.03 a 49.55,49.55 0 0 1 9.91,98.10 z"/>
  <path style="fill:url(#b)" d="m 87.64,45.90 1.16,8.93 a 40.59,40.59 0 0 0 8.75,80.20 c 0.57,0 1.14,0.01 1.70,0.04 v 0.07 a 4.48,4.48 0 1 1 0.46,8.94 4.50,4.50 0 0 1 0.51,0.03 c 0.56,0.02 -1.11,0.03 -1.65,0.03 A 49.55,49.55 0 0 1 87.63,45.90 Z"/>
  <path style="fill:url(#c)" d="m 150.36,85.57 c -5.36,-28.10 -31.21,-47.51 -59.69,-44.83 -28.48,2.69 -50.24,24.59 -50.26,53.20 0,0.52 0.01,1.03 0.02,1.54 h 0.06 c 0.59,5.49 -7.64,6.38 -8.23,0.89 h 0.09 c 0.03,0.81 0.05,-1.63 0.05,-2.45 C 31.98,60.82 57.25,35.18 90.22,32.25 123.19,29.32 152.94,52.06 158.76,84.65 l -8.40,0.91 z"/>
  <path style="fill:url(#d)" d="m 41.82,106.43 c 5.36,28.10 31.21,47.51 59.69,44.83 28.48,-2.69 50.24,-24.59 50.26,-53.20 0,0.52 0.01,-1.03 0.02,-1.54 h 0.06 c 0.02,0.16 0.03,0.33 0.03,0.49 0.00,-5.26 7.76,-5.64 8.26,0.40 h 0.09 c 0.03,0.81 0.05,1.63 0.05,2.45 0.02,33.10 -25.25,58.74 -58.22,61.67 -32.97,2.93 -62.72,-19.81 -68.54,-52.40 l 8.40,0.91 z"/>
  <path style="filter:url(#filter878);opacity:0.20" d="M 123.56,97.71 99.34,128.13 c 0.73,1.14 -1.93,1.84 -3.22,1.87 v 0 h 0.12 0.12 v 0 c -1.30,0.04 -2.50,0.74 -3.22,-1.87 L 68.43,97.71 c 0,0 -1.83,-3.72 2.02,-3.72 h 8.36 c 0.65,0.00 1.17,0.56 1.17,-1.24 v -19.03 C 79.99,71.66 81.56,70.00 83.49,70 h 25.00 c 1.94,0 3.41,1.67 3.51,3.72 v 8.44 0 10.59 c 0,0.69 0.52,1.24 1.17,1.24 h 8.37 c 3.85,0 2.02,3.72 2.02,3.72 z"/>
  <path style="fill:#52ff45" d="M 123.56,95.71 99.34,126.13 c 0.73,1.14 -1.93,1.84 -3.22,1.87 v 0 h 0.12 0.12 v 0 c -1.30,0.04 -2.50,0.74 -3.22,-1.87 L 68.43,95.71 c 0,0 -1.83,-3.72 2.02,-3.72 h 8.36 c 0.65,0.00 1.17,0.56 1.17,-1.24 v -19.03 C 79.99,69.66 81.56,68.00 83.49,68 h 25.00 c 1.94,0 3.41,1.67 3.51,3.72 v 8.44 0 10.59 c 0,0.69 0.52,1.24 1.17,1.24 h 8.37 c 3.85,0 2.02,3.72 2.02,3.72 z"/>
  <path style="opacity:0.20;fill:#ffffff" d="M 96 16 A 80 80 0 0 0 16 96 A 80 80 0 0 0 16.02 96.64 A 80 80 0 0 1 96 17 A 80 80 0 0 1 175.98 96.30 A 80 80 0 0 0 176 96 A 80 80 0 0 0 96 16 z "/>
  <path style="opacity:0.20;fill:#ffffff" d="M 83.49 68 C 81.56 68.00 79.99 69.66 79.98 71.71 L 79.98 72.71 C 79.99 70.66 81.56 69.00 83.49 69 L 108.49 69 C 110.43 69 111.91 70.67 112.01 72.72 L 112.01 71.72 C 111.91 69.67 110.43 68 108.49 68 L 83.49 68 z M 79.98 90.74 C 79.98 91.43 79.46 91.98 78.81 91.98 L 70.45 91.98 C 68.11 91.98 67.88 93.37 68.05 94.45 C 68.21 93.67 68.81 92.98 70.45 92.98 L 78.81 92.98 C 79.46 92.98 79.98 92.43 79.98 91.74 L 79.98 90.74 z M 112.01 90.75 L 112.01 91.75 C 112.01 92.44 112.53 92.99 113.18 92.99 L 121.55 92.99 C 123.19 92.99 123.79 93.67 123.95 94.45 C 124.13 93.37 123.89 91.99 121.55 91.99 L 113.18 91.99 C 112.53 91.99 112.01 91.44 112.01 90.75 z "/>
</svg>
