<?xml version='1.0' encoding='utf-8'?>
<svg xmlns="http://www.w3.org/2000/svg" width="192" height="192" version="1" id="svg12">
  <defs>
    <filter style="color-interpolation-filters:sRGB" id="filter955" x="0.05" width="1.10" y="0.05" height="1.10">
      <feGaussianBlur stdDeviation="3.20"/>
    </filter>
    <filter style="color-interpolation-filters:sRGB" id="filter22355" x="0.15" y="0.09" width="1.29" height="1.17">
      <feGaussianBlur stdDeviation="4.23"/>
    </filter>
  </defs>
  <rect style="filter:url(#filter955);opacity:0.20;fill:#000000" width="160" height="160" x="16" y="20" rx="30" ry="30"/>
  <rect style="fill:#1d77ef" width="160" height="160" x="16" y="16" rx="30" ry="30"/>
  <rect style="filter:url(#filter22355);opacity:0.20;fill:#000000" width="70" height="118" x="61" y="39" rx="6.02"/>
  <path style="opacity:0.20;fill:#ffffff" d="M 46 16 C 29.38 16 16 29.38 16 46 L 16 47 C 16 30.38 29.38 17 46 17 L 146 17 C 162.62 17 176 30.38 176 47 L 176 46 C 176 29.38 162.62 16 146 16 L 46 16 z "/>
  <rect style="fill:#004db2" width="70" height="118" x="61" y="37" rx="6.02"/>
  <rect style="fill:#ffffff" width="60" height="104" x="66" y="44" rx="5.16"/>
  <path style="fill:#006eff" d="M 91.50 66 C 87.91 66 85 67.64 85 74 C 85 78.42 87.91 82 91.50 82 C 95.09 82 98 78.42 98 74 C 98 66.83 95.09 66 91.50 66 z M 96.23 82.32 C 94.91 83.37 93.29 84 91.50 84 C 89.83 84 88.32 83.46 87.05 82.54 C 81.38 84.28 78.66 85.07 79.03 95.77 C 79.03 95.77 81.44 99.03 92.01 99 C 102.58 98.97 104 95.77 104 95.77 C 104 84.88 102.86 84.41 96.23 82.32 z M 98.83 119.05 C 98.34 119.05 97.85 119.09 97.36 119.17 C 94.75 119.61 92.27 121.40 91.06 124.65 A 1 1 0 0 0 91.65 125.94 A 1 1 0 0 0 92.94 125.35 C 93.93 122.68 95.72 121.47 97.69 121.14 C 99.67 120.81 101.85 121.46 103.35 122.76 A 1 1 0 0 0 104.76 122.65 A 1 1 0 0 0 104.65 121.24 C 103.06 119.86 100.96 119.07 98.83 119.05 z M 99.46 122.56 C 99.20 122.57 98.94 122.59 98.67 122.63 C 97.96 122.73 97.23 122.95 96.48 123.28 A 1 1 0 0 0 95.96 124.60 A 1 1 0 0 0 97.28 125.11 C 98.50 124.58 99.52 124.47 100.24 124.65 C 100.97 124.82 101.45 125.21 101.79 126.02 C 102.21 127.03 102 129.51 102 132 A 1 1 0 0 0 103 133 A 1 1 0 0 0 104 132 C 104 129.70 104.46 127.22 103.63 125.24 C 103.08 123.94 102.01 123.02 100.71 122.70 C 100.31 122.61 99.89 122.56 99.46 122.56 z M 95 126 A 1 1 0 0 0 94 127 L 94 132 A 1 1 0 0 0 95 133 A 1 1 0 0 0 96 132 L 96 127 A 1 1 0 0 0 95 126 z M 99 126 A 1 1 0 0 0 98 127 L 98 129 A 1 1 0 0 0 99 130 A 1 1 0 0 0 100 129 L 100 127 A 1 1 0 0 0 99 126 z M 106 126 A 1 1 0 0 0 105 127 L 105 130 A 1 1 0 0 0 106 131 A 1 1 0 0 0 107 130 L 107 127 A 1 1 0 0 0 106 126 z M 92 127 A 1 1 0 0 0 91 128 L 91 130 A 1 1 0 0 0 92 131 A 1 1 0 0 0 93 130 L 93 128 A 1 1 0 0 0 92 127 z M 99 131 A 1 1 0 0 0 98 132 L 98 134 A 1 1 0 0 0 99 135 A 1 1 0 0 0 100 134 L 100 132 A 1 1 0 0 0 99 131 z "/>
  <path style="fill:#349773" d="M 99.91,72 C 99.96,72.63 100,73.29 100,74 c 0,0.69 0.07,1.35 0.19,2 H 114 c 0.55,0 1,0.45 1,-1 v -2 c 0,0.55 0.45,-1 -1,-1 z m -1.12,7 c 0.31,0.60 0.67,1.17 -1.08,1.70 1.98,0.61 3.70,1.23 5.06,2.30 H 114 c 0.55,0 1,0.45 1,-1 v -2 c 0,0.55 0.45,-1 -1,-1 z m 6.20,7 c 0.45,1.11 0.70,2.41 0.84,4 H 114 c 0.55,0 1,0.45 1,-1 v -2 c 0,0.55 0.45,-1 -1,-1 z"/>
</svg>
