<?xml version='1.0' encoding='utf-8'?>
<svg xmlns="http://www.w3.org/2000/svg" width="192" height="192" version="1" id="svg12">
  <defs>
    <filter style="color-interpolation-filters:sRGB" id="filter4524" x="-0.044745764" y="-0.051764707" width="1.0894915" height="1.1035294">
      <feGaussianBlur stdDeviation="2.2"/>
    </filter>
    <filter style="color-interpolation-filters:sRGB" id="filter4528" x="-0.066342855" y="-0.29024999" width="1.1326857" height="1.5805">
      <feGaussianBlur stdDeviation="3.87"/>
    </filter>
    <filter style="color-interpolation-filters:sRGB" id="filter4575" x="-0.054017634" y="-0.12451677" width="1.1080353" height="1.2490335">
      <feGaussianBlur stdDeviation="2.697445"/>
    </filter>
  </defs>
  <path style="filter:url(#filter4575);opacity:0.2;fill:#000000" d="m 53.494141,19.011719 c -2.834689,0.06046 -5.568336,1.176402 -8.392579,4.095703 -3.445558,3.258723 -5.60919,6.574193 -8.177734,12.521484 C 35.397242,39.17967 35.76106,42.914297 39.4375,45.833984 45.150694,51.349535 54.726836,56.193153 68.5,62.394531 L 84.003906,58.943359 A 12,12 0 0 0 84,59 a 12,12 0 0 0 12,12 12,12 0 0 0 12,-12 12,12 0 0 0 -0.002,-0.05664 L 123.5,62.394531 c 13.77316,-6.201378 23.3493,-11.044996 29.0625,-16.560547 3.67644,-2.919687 4.04026,-6.654314 2.51367,-10.205078 -2.56854,-5.947291 -4.73217,-9.262761 -8.17773,-12.521484 -5.64848,-5.838601 -10.9322,-4.468917 -17.39258,-1.851563 -17.8044,7.276917 -20.0029,17.791815 -27.94141,27.115235 A 12,12 0 0 0 96,47 12,12 0 0 0 90.453125,48.390625 c -7.952497,-9.32841 -10.14177,-19.852613 -27.958984,-27.134766 -3.230192,-1.308677 -6.165312,-2.304598 -9,-2.24414 z"/>
  <rect style="filter:url(#filter4524);opacity:0.2;fill:#000000" width="118" height="102" x="37" y="78" ry="10"/>
  <path style="fill:#ffd04f" d="m 62.494299,19.255892 c 19.703724,8.053196 20.29281,20.07138 30.702629,30.052429 L 89.457874,55.727872 68.500054,60.395 C 54.72689,54.193622 45.151448,49.349883 39.438254,43.834332 c -3.67644,-2.919687 -4.040402,-6.654943 -2.513816,-10.205707 2.568544,-5.947291 4.731113,-9.261556 8.176671,-12.520279 5.648485,-5.838601 10.932806,-4.469808 17.39319,-1.852454 z"/>
  <ellipse style="fill:#fea214" cx="75.968193" cy="16.274929" rx="21.841162" ry="4.7938018" transform="rotate(26.771307)"/>
  <path style="fill:#ffd04f" d="m 129.5057,19.255892 c -19.70372,8.053196 -20.29281,20.07138 -30.702628,30.052429 l 3.739058,6.419551 20.95782,4.667128 c 13.77316,-6.201378 23.3486,-11.045117 29.0618,-16.560668 3.67644,-2.919687 4.0404,-6.654943 2.51381,-10.205707 -2.56854,-5.947291 -4.73111,-9.261556 -8.17667,-12.520279 -5.64848,-5.838601 -10.93281,-4.469808 -17.39319,-1.852454 z"/>
  <ellipse style="fill:#fea214" cx="-95.451614" cy="102.75758" rx="21.841162" ry="4.7938018" transform="matrix(-0.8928115,0.45043049,0.45043049,0.8928115,0,0)"/>
  <rect style="fill:#e93427" width="118" height="102" x="37" y="74" ry="10"/>
  <rect style="fill:#ffd04f" width="32" height="98.57177" x="80" y="77.42823"/>
  <rect style="filter:url(#filter4528);opacity:0.2;fill:#000000" width="140" height="32" x="26" y="61" ry="8"/>
  <rect style="fill:#f44336" width="140" height="32" x="26" y="57" ry="8"/>
  <circle style="fill:#fea214" cx="96" cy="57" r="12"/>
  <rect style="fill:#ffd04f" width="32" height="32" x="80" y="57"/>
</svg>
