<svg xmlns="http://www.w3.org/2000/svg" id="svg12" width="192" height="192" version="1"><defs><filter style="color-interpolation-filters:sRGB" id="filter884" width="1.1" height="1.1" x=".05" y=".05"><feGaussianBlur stdDeviation="3.2"/></filter><filter style="color-interpolation-filters:sRGB" id="filter988" width="1.1" height="1.1" x=".05" y=".05"><feGaussianBlur stdDeviation=".72"/></filter><filter style="color-interpolation-filters:sRGB" id="filter1052" width="1.1" height="1.1" x=".05" y=".05"><feGaussianBlur stdDeviation=".32"/></filter><filter style="color-interpolation-filters:sRGB" id="filter1070" width="1.1" height="1.1" x=".05" y=".05"><feGaussianBlur stdDeviation="1.52"/></filter></defs><circle cx="96" cy="100" r="80" style="filter:url(#filter884);opacity:.2;fill:#000"/><circle style="fill:#045cc5" cx="96" cy="96" r="80"/><path style="opacity:.6;fill:none;stroke:#fff;stroke-width:12;stroke-linecap:round" d="M 96.00,96.00 V 35"/><path d="m 96,96.00 h 61" style="opacity:.6;fill:none;stroke:#fff;stroke-width:12;stroke-linecap:round"/><circle cx="96" cy="98" r="18" style="filter:url(#filter988);opacity:.1;fill:#000"/><circle style="fill:#fff" cx="96" cy="96" r="18"/><path style="opacity:.2;fill:#fff" d="M 95.98,29.00 C 55.67,29.00 23,55.72 23,96.02 23,136.33 55.67,169 95.98,169 136.28,169 163,136.33 163,96.02 v 0 c 0,37.01 -30.01,67.02 -67.02,67.02 -37.01,0 -67.02,-30.01 -67.02,-67.02 0,-37.01 30.01,-67.02 67.02,-67.02 z"/><circle style="filter:url(#filter1070);opacity:.2;fill:#000" cx="30.06" cy="150.07" r="38" transform="rotate(-60)"/><path style="opacity:.1;fill:#fff" d="M 96,16 A 80,80 0 0 0 16,96 80,80 0 0 0 16.02,96.59 80,80 0 0 1 96,17 80,80 0 0 1 175.98,96.41 80,80 0 0 0 176,96 80,80 0 0 0 96,16 Z"/><circle cx="31.8" cy="149.07" r="38" transform="rotate(-60)" style="fill:#199ef6"/><path d="m 145,47.00 -25.11,-14.50" style="opacity:.6;fill:none;stroke:#fff;stroke-width:6;stroke-linecap:round"/><path style="opacity:.6;fill:none;stroke:#fff;stroke-width:6;stroke-linecap:round" d="m 145,47.00 14.50,-25.11"/><circle style="filter:url(#filter1052);opacity:.1;fill:#000" cx="30.06" cy="150.07" r="8" transform="rotate(-60)"/><circle cx="31.8" cy="149.07" r="8" transform="rotate(-60)" style="fill:#fff"/><path style="opacity:.2;fill:#fff" d="M 143.21,9.04 A 38,38 0 0 0 112.09,28 38,38 0 0 0 107.04,48.82 38,38 0 0 1 112.09,29 38,38 0 0 1 164,15.09 38,38 0 0 1 182.96,46.18 38,38 0 0 0 164,14.09 38,38 0 0 0 143.21,9.04 Z"/></svg>