<?xml version='1.0' encoding='utf-8'?>
<svg xmlns="http://www.w3.org/2000/svg" width="192" height="192" version="1" id="svg14">
  <defs>
    <filter style="color-interpolation-filters:sRGB" id="filter3474" x="-0.047995246" y="-0.048004558" width="1.0959905" height="1.0960091">
      <feGaussianBlur stdDeviation="3.189122"/>
    </filter>
    <filter style="color-interpolation-filters:sRGB" id="filter3478" x="-0.048" y="-0.048" width="1.096" height="1.096">
      <feGaussianBlur stdDeviation="2.48"/>
    </filter>
    <filter style="color-interpolation-filters:sRGB" id="filter3482" x="-0.044602773" y="-0.050549946" width="1.0892055" height="1.1010999">
      <feGaussianBlur stdDeviation="1.8955768"/>
    </filter>
  </defs>
  <path style="filter:url(#filter3474);opacity:0.2;fill:#000000;color:#000000" d="M 85.972656,20.630203 C 44.758694,25.836736 14.286349,61.939665 16.074219,103.4427 c 1.78787,41.50304 35.252692,74.85115 76.761718,76.49414 41.509023,1.64299 77.505723,-28.95562 82.568363,-70.1875 a 9,9 0 0 0 -7.83594,-10.029293 9,9 0 0 0 -10.03125,7.835933 c -3.94123,32.09878 -31.67375,55.67359 -63.988282,54.39453 C 61.234298,160.67146 35.448487,134.97718 34.056641,102.66731 32.664794,70.357445 56.143692,42.54088 88.228516,38.487625 A 9,9 0 0 0 96.03125,28.430985 9,9 0 0 0 85.972656,20.630203 Z"/>
  <path style="fill:#5377ec;color:#000000" d="m 85.972656,16.630859 c -41.213962,5.206533 -71.686307,41.309462 -69.898437,82.8125 1.78787,41.503041 35.252692,74.851151 76.761718,76.494141 41.509023,1.64299 77.505723,-28.95562 82.568363,-70.1875 0.6055,-4.9333 -2.90268,-9.423456 -7.83594,-10.029297 -4.93401,-0.606665 -9.42543,2.901821 -10.03125,7.835937 -0.12615,1.02738 -2.9075,2.20942 -3.08176,3.2188 -5.27026,30.52703 -28.6921,47.71682 -59.97235,46.4787 C 62.16847,151.97508 38.460324,131.22796 37.068477,98.918093 35.733785,67.935006 55.037785,42.834553 85.101,37.107399 c 1.28739,-0.245253 1.809976,-2.452674 3.127516,-2.619118 4.931883,-0.62213 8.425432,-5.124828 7.802734,-10.05664 -0.623081,-4.931957 -5.126743,-8.4247 -10.058594,-7.800782 z"/>
  <circle style="filter:url(#filter3478);opacity:0.2;fill:#000000" cx="96" cy="99.999344" r="62"/>
  <circle style="fill:#ffffff" cx="96" cy="96" r="62"/>
  <path style="filter:url(#filter3482);opacity:0.2;fill:#000000;color:#000000" d="m 148.74609,33.073759 a 11,11 0 0 0 -7.35937,4.08789 L 94.283203,96.476102 76.912109,82.444852 a 11,11 0 0 0 -15.46875,1.644532 11,11 0 0 0 1.644532,15.468755 l 26,20.999991 a 11.0011,11.0011 0 0 0 15.525389,-1.7168 l 54,-67.999993 a 11,11 0 0 0 -1.77344,-15.453125 11,11 0 0 0 -8.09375,-2.314453 z"/>
  <path style="fill:#ffb000;color:#000000" d="m 148.74609,31.072266 a 11,11 0 0 0 -7.35937,4.08789 L 94.283203,94.474609 76.912109,80.443359 a 11,11 0 0 0 -15.46875,1.644532 11,11 0 0 0 1.644532,15.46875 l 26,20.999999 a 11.0011,11.0011 0 0 0 15.525389,-1.7168 l 54,-67.999996 a 11,11 0 0 0 -1.77344,-15.453125 11,11 0 0 0 -8.09375,-2.314453 z"/>
  <path style="opacity:0.2;fill:#ffffff;color:#000000" d="M 85.972656,16.630859 C 45.846039,21.700029 15.913762,56.05851 16.011719,96.171875 16.409517,56.489357 46.180274,22.657805 85.972656,17.630859 c 4.931851,-0.623918 9.435513,2.868825 10.058594,7.800782 0.02045,0.219523 0.03283,0.439724 0.03711,0.660156 0.03882,-0.553346 0.02639,-1.109097 -0.03711,-1.660156 -0.623081,-4.931957 -5.126743,-8.4247 -10.058594,-7.800782 z m 81.595704,79.089844 c -4.93401,-0.606665 -9.42543,2.901821 -10.03125,7.835937 v 1 c 0.60582,-4.934116 5.09724,-8.442602 10.03125,-7.835937 4.30133,0.537867 7.60812,4.065497 7.86719,8.392577 0.24235,-4.70812 -3.18954,-8.805425 -7.86719,-9.392577 z"/>
</svg>
