<?xml version='1.0' encoding='utf-8'?>
<svg xmlns="http://www.w3.org/2000/svg" width="192" height="192" version="1" id="svg28">
  <defs>
    <filter style="color-interpolation-filters:sRGB" id="filter6495" x="0.05" y="0.05" width="1.10" height="1.10">
      <feGaussianBlur stdDeviation="3.20"/>
    </filter>
    <filter style="color-interpolation-filters:sRGB" id="filter32565" x="0.07" y="0.07" width="1.15" height="1.15">
      <feGaussianBlur stdDeviation="3.50"/>
    </filter>
  </defs>
  <rect transform="matrix(0,-1,-1,0,0,0)" ry="12" rx="12" y="-176" x="-180" height="160" width="160" style="filter:url(#filter6495);opacity:0.20;fill:#000000"/>
  <rect transform="matrix(0,-1,-1,0,0,0)" ry="12" rx="12" y="-176" x="-176" height="160" width="160" style="fill:#3f3f3f"/>
  <path style="filter:url(#filter32565);opacity:0.20;fill:#000000" d="m 46,42 c -3.32,0 -6,2.68 -6,6 v 22 c 0,3.32 2.68,6 6,6 h 22 c 3.32,0 6,-2.68 6,-6 V 48 c 0,-3.32 -2.68,-6 -6,-6 z m 39,0 c -3.32,0 -6,2.68 -6,6 v 22 c 0,3.32 2.68,6 6,6 h 22 c 3.32,0 6,-2.68 6,-6 V 48 c 0,-3.32 -2.68,-6 -6,-6 z m 39,0 c -3.32,0 -6,2.68 -6,6 v 22 c 0,3.32 2.68,6 6,6 h 22 c 3.32,0 6,-2.68 6,-6 V 48 c 0,-3.32 -2.68,-6 -6,-6 z M 46,81 c -3.32,0 -6,2.68 -6,6 v 22 c 0,3.32 2.68,6 6,6 h 22 c 3.32,0 6,-2.68 6,-6 V 87 c 0,-3.32 -2.68,-6 -6,-6 z m 39,0 c -3.32,0 -6,2.68 -6,6 v 22 c 0,3.32 2.68,6 6,6 h 22 c 3.32,0 6,-2.68 6,-6 V 87 c 0,-3.32 -2.68,-6 -6,-6 z m 39,0 c -3.32,0 -6,2.68 -6,6 v 22 c 0,3.32 2.68,6 6,6 h 22 c 3.32,0 6,-2.68 6,-6 V 87 c 0,-3.32 -2.68,-6 -6,-6 z m -78,39 c -3.32,0 -6,2.68 -6,6 v 22 c 0,3.32 2.68,6 6,6 h 22 c 3.32,0 6,-2.68 6,-6 v -22 c 0,-3.32 -2.68,-6 -6,-6 z m 39,0 c -3.32,0 -6,2.68 -6,6 v 22 c 0,3.32 2.68,6 6,6 h 22 c 3.32,0 6,-2.68 6,-6 v -22 c 0,-3.32 -2.68,-6 -6,-6 z m 39,0 c -3.32,0 -6,2.68 -6,6 v 22 c 0,3.32 2.68,6 6,6 h 22 c 3.32,0 6,-2.68 6,-6 v -22 c 0,-3.32 -2.68,-6 -6,-6 z"/>
  <path style="opacity:0.10;fill:#ffffff" d="m 28,16 c -6.65,0 -12,5.35 -12,12 v 1 c 0,-6.65 5.35,-12 12,-12 h 136 c 6.65,0 12,5.35 12,12 v -1 c 0,-6.65 -5.35,-12 -12,-12 z"/>
  <rect style="fill:#ff8fff" width="34" height="34" x="79" y="79" rx="6" ry="6"/>
  <rect style="fill:#fe6e37" width="34" height="34" x="40" y="79" rx="6" ry="6"/>
  <rect style="fill:#7047ff" width="34" height="34" x="118" y="79" rx="6" ry="6"/>
  <rect style="fill:#f11ae7" width="34" height="34" x="40" y="-113" rx="6" ry="6" transform="rotate(90)"/>
  <rect style="fill:#7047ff" width="34" height="34" x="118" y="-113" rx="6" ry="6" transform="rotate(90)"/>
  <rect style="fill:#c7d1ff" width="34" height="34" x="118" y="40" rx="6" ry="6"/>
  <rect style="fill:#7047ff" width="34" height="34" x="40" y="118" rx="6" ry="6"/>
  <rect style="fill:#7047ff" width="34" height="34" x="118" y="118" rx="6" ry="6"/>
  <rect style="fill:#fe6e37" width="34" height="34" x="40" y="40" rx="6" ry="6"/>
  <path style="opacity:0.15;fill:#ffffff" d="M 46 40 C 42.68 40 40 42.68 40 46 L 40 47 C 40 43.68 42.68 41 46 41 L 68 41 C 71.32 41 74 43.68 74 47 L 74 46 C 74 42.68 71.32 40 68 40 L 46 40 z M 85 40 C 81.68 40 79 42.68 79 46 L 79 47 C 79 43.68 81.68 41 85 41 L 107 41 C 110.32 41 113 43.68 113 47 L 113 46 C 113 42.68 110.32 40 107 40 L 85 40 z M 124 40 C 120.68 40 118 42.68 118 46 L 118 47 C 118 43.68 120.68 41 124 41 L 146 41 C 149.32 41 152 43.68 152 47 L 152 46 C 152 42.68 149.32 40 146 40 L 124 40 z M 46 79 C 42.68 79 40 81.68 40 85 L 40 86 C 40 82.68 42.68 80 46 80 L 68 80 C 71.32 80 74 82.68 74 86 L 74 85 C 74 81.68 71.32 79 68 79 L 46 79 z M 85 79 C 81.68 79 79 81.68 79 85 L 79 86 C 79 82.68 81.68 80 85 80 L 107 80 C 110.32 80 113 82.68 113 86 L 113 85 C 113 81.68 110.32 79 107 79 L 85 79 z M 124 79 C 120.68 79 118 81.68 118 85 L 118 86 C 118 82.68 120.68 80 124 80 L 146 80 C 149.32 80 152 82.68 152 86 L 152 85 C 152 81.68 149.32 79 146 79 L 124 79 z M 46 118 C 42.68 118 40 120.68 40 124 L 40 125 C 40 121.68 42.68 119 46 119 L 68 119 C 71.32 119 74 121.68 74 125 L 74 124 C 74 120.68 71.32 118 68 118 L 46 118 z M 85 118 C 81.68 118 79 120.68 79 124 L 79 125 C 79 121.68 81.68 119 85 119 L 107 119 C 110.32 119 113 121.68 113 125 L 113 124 C 113 120.68 110.32 118 107 118 L 85 118 z M 124 118 C 120.68 118 118 120.68 118 124 L 118 125 C 118 121.68 120.68 119 124 119 L 146 119 C 149.32 119 152 121.68 152 125 L 152 124 C 152 120.68 149.32 118 146 118 L 124 118 z "/>
</svg>
