<?xml version='1.0' encoding='utf-8'?>
<svg xmlns="http://www.w3.org/2000/svg" width="192" height="192" version="1" id="svg12">
  <defs>
    <filter style="color-interpolation-filters:sRGB" id="filter860" x="0.05" width="1.10" y="0.05" height="1.10">
      <feGaussianBlur stdDeviation="3.20"/>
    </filter>
    <filter style="color-interpolation-filters:sRGB" id="filter853" x="0.05" width="1.10" y="0.04" height="1.09">
      <feGaussianBlur stdDeviation="1.56"/>
    </filter>
  </defs>
  <rect style="filter:url(#filter860);opacity:0.20" width="160" height="160" x="16" y="20" rx="48" ry="48"/>
  <rect style="fill:#43b17e" width="160" height="160" x="16" y="16" rx="48" ry="48"/>
  <path style="opacity:0.20;fill:#ffffff" d="M 64,16 C 37.41,16 16,37.41 16,64 v 1 C 16,38.41 37.41,17 64,17 h 64 c 26.59,0 48,21.41 48,48 V 64 C 176,37.41 154.59,16 128,16 Z"/>
  <path d="m 60,58 v 52.83 l 12,-5.10 V 73.10 L 96.36,83.54 120,73.18 v 12.16 l 12,-5.10 V 58 h -7.26 L 96.31,70.46 67.23,58 Z m 72,33.11 -2.74,1.16 L 120,96.21 V 106 c 0,13.33 -10.67,24 -24,24 -9.85,0 -18.25,-5.84 -21.96,-14.27 L 63.03,120.41 C 68.61,133.09 81.31,142 96,142 c 19.28,0 35.13,-15.34 35.96,-34.42 H 132 V 106 Z" style="filter:url(#filter853);opacity:0.20;fill:#000000;color:#000000;font-stretch:normal;font-variant-ligatures:normal;font-variant-position:normal;font-variant-caps:normal;font-variant-numeric:normal;font-variant-alternates:normal;font-feature-settings:normal;text-indent:0;text-align:start;text-decoration-line:none;text-decoration-style:solid;text-decoration-color:#000000;text-transform:none;writing-mode:lr-tb;direction:ltr;text-orientation:mixed;dominant-baseline:auto;baseline-shift:baseline;white-space:normal;shape-padding:0;clip-rule:nonzero;display:inline;overflow:visible;visibility:visible;isolation:auto;mix-blend-mode:normal;color-interpolation:sRGB;color-interpolation-filters:linearRGB;solid-color:#000000;solid-opacity:1;vector-effect:none;fill-rule:nonzero;color-rendering:auto;image-rendering:auto;shape-rendering:auto;text-rendering:auto;enable-background:accumulate"/>
  <path style="fill:#ffffff;color:#000000;font-stretch:normal;font-variant-ligatures:normal;font-variant-position:normal;font-variant-caps:normal;font-variant-numeric:normal;font-variant-alternates:normal;font-feature-settings:normal;text-indent:0;text-align:start;text-decoration-line:none;text-decoration-style:solid;text-decoration-color:#000000;text-transform:none;writing-mode:lr-tb;direction:ltr;text-orientation:mixed;dominant-baseline:auto;baseline-shift:baseline;white-space:normal;shape-padding:0;clip-rule:nonzero;display:inline;overflow:visible;visibility:visible;isolation:auto;mix-blend-mode:normal;color-interpolation:sRGB;color-interpolation-filters:linearRGB;solid-color:#000000;solid-opacity:1;vector-effect:none;fill-rule:nonzero;color-rendering:auto;image-rendering:auto;shape-rendering:auto;text-rendering:auto;enable-background:accumulate" d="m 60,56 v 52.83 l 12,-5.10 V 71.10 L 96.36,81.54 120,71.18 v 12.16 l 12,-5.10 V 56 h -7.26 L 96.31,68.46 67.23,56 Z m 72,33.11 -2.74,1.16 L 120,94.21 V 104 c 0,13.33 -10.67,24 -24,24 -9.85,0 -18.25,-5.84 -21.96,-14.27 L 63.03,118.41 C 68.61,131.09 81.31,140 96,140 c 19.28,0 35.13,-15.34 35.96,-34.42 H 132 V 104 Z"/>
</svg>
