<?xml version='1.0' encoding='utf-8'?>
<svg xmlns="http://www.w3.org/2000/svg" width="192" height="192" version="1" id="svg22">
  <defs>
    <filter style="color-interpolation-filters:sRGB" id="filter862" x="-0.048000001" width="1.096" y="-0.048000001" height="1.096">
      <feGaussianBlur stdDeviation="3.2"/>
    </filter>
    <filter style="color-interpolation-filters:sRGB" id="filter893" x="-0.049831822" width="1.0996636" y="-0.046298075" height="1.0925961">
      <feGaussianBlur stdDeviation="2.00625"/>
    </filter>
    <filter style="color-interpolation-filters:sRGB" id="filter909" x="-0.047999999" width="1.096" y="-0.047999999" height="1.096">
      <feGaussianBlur stdDeviation="0.32"/>
    </filter>
    <filter style="color-interpolation-filters:sRGB" id="filter925" x="-0.0528" width="1.1056" y="-0.044" height="1.088">
      <feGaussianBlur stdDeviation="0.88"/>
    </filter>
  </defs>
  <rect style="filter:url(#filter862);opacity:0.2;fill:#000000" width="160" height="160" x="-180" y="-176" rx="80" ry="80" transform="matrix(0,-1,-1,0,0,0)"/>
  <rect transform="matrix(0,-1,-1,0,0,0)" ry="80" rx="80" y="-176" x="-176" height="160" width="160" style="fill:#3f3f3f"/>
  <path d="M 96,48 A 52,52 0 0 0 51.375,73.414064 l 10.281248,6.16406 A 40,40 0 0 1 96,60 40,40 0 0 1 136,100 40,40 0 0 1 96,140 40,40 0 0 1 61.664064,120.42188 l -10.281252,6.16406 A 52,52 0 0 0 96,152 52,52 0 0 0 148,100 52,52 0 0 0 96,48 Z m 0,24 A 28,28 0 0 0 71.9375,85.75 l 10.281252,6.164064 A 16,16 0 0 1 96,84 16,16 0 0 1 112,100 16,16 0 0 1 96,116 16,16 0 0 1 82.218752,108.08594 L 71.9375,114.25 A 28,28 0 0 0 96,128 28,28 0 0 0 124,100 28,28 0 0 0 96,72 Z" style="filter:url(#filter893);opacity:0.2"/>
  <path d="M 96,44 A 52,52 0 0 0 51.375,69.414064 l 10.281248,6.16406 A 40,40 0 0 1 96,56 40,40 0 0 1 136,96 40,40 0 0 1 96,136 40,40 0 0 1 61.664064,116.42188 l -10.281252,6.16406 A 52,52 0 0 0 96,148 52,52 0 0 0 148,96 52,52 0 0 0 96,44 Z m 0,24 A 28,28 0 0 0 71.9375,81.75 l 10.281252,6.164064 A 16,16 0 0 1 96,80 16,16 0 0 1 112,96 16,16 0 0 1 96,112 16,16 0 0 1 82.218752,104.08594 L 71.9375,110.25 A 28,28 0 0 0 96,124 28,28 0 0 0 124,96 28,28 0 0 0 96,68 Z" style="fill:#f3ac00"/>
  <path style="opacity:0.1;fill:#ffffff" d="M 95.998047,16 C 51.678955,16.001052 16,51.680653 16,96 c 0,0.115498 0.0062,0.228859 0.0078,0.34375 C 16.358829,52.329731 51.898462,17.001046 95.998047,17 H 96 c 44.10547,0.001 79.64856,35.339122 79.99023,79.361328 0.002,-0.120727 0.008,-0.240021 0.008,-0.361328 0,-44.319347 -35.67896,-79.998948 -79.99805,-80 z"/>
  <circle r="8" cy="98" cx="96" style="filter:url(#filter909);opacity:0.1"/>
  <circle r="8" cy="96" cx="96" style="fill:#ffffff"/>
  <path d="M 80,100 40,124 V 76 l 20,12.000004 z" style="filter:url(#filter925);opacity:0.1"/>
  <path d="M 79.999998,95.999998 60,108 40,120 V 95.999998 72 l 20,12.000001 z" style="fill:#ffffff"/>
</svg>
