<?xml version='1.0' encoding='utf-8'?>
<svg xmlns="http://www.w3.org/2000/svg" width="192" height="192" version="1" id="svg28">
  <defs>
    <filter style="color-interpolation-filters:sRGB" id="filter1834" x="0.05" y="0.05" width="1.10" height="1.09">
      <feGaussianBlur stdDeviation="3.05"/>
    </filter>
    <filter style="color-interpolation-filters:sRGB" id="filter1838" x="0.05" y="0.04" width="1.11" height="1.09">
      <feGaussianBlur stdDeviation="1.78"/>
    </filter>
  </defs>
  <path style="filter:url(#filter1834);opacity:0.20;fill:#000000" d="m 147.57,163.60 -82.14,15.72 C 44.00,183.60 24,167.17 24,145.02 V 54.98 C 24,32.83 44.00,16.40 65.43,20.68 L 147.57,36.40 C 160.43,38.55 169,49.27 169,61.41 v 76.46 c 0,12.86 -9.29,23.58 -21.43,25.72"/>
  <path style="fill:#f56d2b" d="m 147.57,159.60 -82.14,15.72 C 44.00,179.60 24,163.17 24,141.02 V 50.98 C 24,28.83 44.00,12.40 65.43,16.68 L 147.57,32.40 C 160.43,34.55 169,45.27 169,57.41 v 76.46 c 0,12.86 -9.29,23.58 -21.43,25.72"/>
  <path d="M 69,128.87 V 68.41 c 0,-2.87 2.52,-5.03 5.39,-4.31 L 135.05,73.44 134.33,59.49 76.55,50.16 C 65.06,48.72 55,57.34 55,68.83 v 60.34 c 0,11.49 10.06,20.11 21.55,18.68 L 135,138.51 v -13.95 l -61.32,9.34 C 71.52,133.90 69,131.74 69,128.87" style="filter:url(#filter1838);opacity:0.20;fill:#000000"/>
  <path d="M 69,126.87 V 66.41 c 0,-2.87 2.52,-5.03 5.39,-4.31 L 135.05,71.44 134.33,57.49 76.55,48.16 C 65.06,46.72 55,55.34 55,66.83 v 60.34 c 0,11.49 10.06,20.11 21.55,18.68 L 135,136.51 v -13.95 l -61.32,9.34 C 71.52,131.90 69,129.74 69,126.87" style="fill:#ffffff"/>
  <path style="opacity:0.20;fill:#ffffff" d="M 59.46 16.01 C 40.43 15.53 24 30.91 24 50.98 L 24 51.98 C 24 29.83 44.00 13.40 65.43 17.68 L 147.57 33.40 C 160.43 35.55 169 46.27 169 58.41 L 169 57.41 C 169 45.27 160.43 34.55 147.57 32.40 L 65.43 16.68 C 63.42 16.28 61.42 16.06 59.46 16.01 z "/>
</svg>
