<?xml version='1.0' encoding='utf-8'?>
<svg xmlns="http://www.w3.org/2000/svg" width="192" height="192" version="1" id="svg16">
  <defs>
    <filter style="color-interpolation-filters:sRGB" id="filter867" x="0.05" width="1.10" y="0.05" height="1.10">
      <feGaussianBlur stdDeviation="3.20"/>
    </filter>
    <filter style="color-interpolation-filters:sRGB" id="filter4533" x="0.11" y="0.10" width="1.22" height="1.21">
      <feGaussianBlur stdDeviation="5.29"/>
    </filter>
  </defs>
  <rect ry="80" rx="80" height="160" width="160" y="-176" x="-180" transform="matrix(0,-1,-1,0,0,0)" style="filter:url(#filter867);opacity:0.20;fill:#000000"/>
  <rect style="fill:#f74141" transform="matrix(0,-1,-1,0,0,0)" x="-176" y="-176" width="160" height="160" rx="80" ry="80"/>
  <path style="opacity:0.20;fill:#ffffff" d="M 96 16 C 51.68 16 16 51.68 16 96 C 16 96.34 16.00 96.67 16 97 C 16 52.68 51.68 17 96 17 C 140.32 17 176 52.68 176 97 C 176.00 96.67 176 96.34 176 96 C 176 51.68 140.32 16 96 16 z "/>
  <path style="filter:url(#filter4533);opacity:0.20;fill:#000000;color:#000000" d="m 94.83,37.01 c -4.90,0.09 -9.84,0.78 -14.72,2.10 -26.05,7.03 -44.43,30.43 -45.09,57.40 0.66,26.98 16.55,51.24 42.23,59.54 25.68,8.29 53.83,-1.32 69.08,-23.58 l -11.55,-7.91 c -11.78,17.20 -33.39,24.58 -53.23,18.17 C 61.72,136.32 48.50,117.69 49.01,96.85 49.52,76.01 63.63,58.05 83.76,52.62 c 20.13,-5.43 41.35,2.99 52.28,20.75 l 11.92,-7.34 C 137.35,48.80 119.14,38.31 99.71,37.12 98.09,37.02 96.47,36.98 94.83,37.01 Z M 72,75.00 v 46.00 h 8 V 75.00 Z m 12.80,0 18.14,46.00 h 7.35 L 128.41,75.00 h -6.10 c -1.66,0 -2.48,0.06 -3.28,1.99 L 106.61,108.50 94.14,76.87 c 0.56,-1.98 -1.90,-1.87 -2.79,-1.87 z"/>
  <path style="fill:#ffffff;color:#000000" d="M 94.83 35.01 C 89.94 35.10 84.99 35.79 80.11 37.11 C 54.06 44.14 35.68 67.53 35.02 94.51 C 34.36 121.49 51.57 145.75 77.25 154.05 C 102.93 162.34 131.09 152.73 146.33 130.46 L 134.78 122.55 C 123.00 139.75 101.39 147.13 81.55 140.72 C 61.72 134.32 48.50 115.69 49.01 94.85 C 49.52 74.01 63.63 56.05 83.76 50.62 C 103.88 45.19 125.11 53.62 136.03 71.37 L 147.96 64.04 C 137.35 46.80 119.14 36.31 99.71 35.12 C 98.09 35.02 96.47 34.98 94.83 35.01 z M 72 73 L 72 119 L 80 119 L 80 73 L 72 73 z M 84.80 73 L 102.94 119 L 110.29 119 L 128.41 73 L 122.31 73 C 120.65 73 119.83 72.94 119.03 74.99 L 106.61 106.50 L 94.14 74.87 C 93.58 72.89 92.24 73 91.36 73 L 84.80 73 z "/>
</svg>
