<svg xmlns="http://www.w3.org/2000/svg" id="svg14" width="192" height="192" version="1"><defs><filter style="color-interpolation-filters:sRGB" id="filter850" width="1.1" height="1.1" x=".05" y=".05"><feGaussianBlur stdDeviation="3.2"/></filter><filter style="color-interpolation-filters:sRGB" id="filter1739" width="1.21" height="1.22" x=".11" y=".11"><feGaussianBlur stdDeviation="4.38"/></filter></defs><circle style="filter:url(#filter850);opacity:.2;fill:#000" cx="96" cy="100" r="80"/><circle cx="96" cy="96" r="80" style="fill:#f14055"/><path style="fill:#38adfa" d="m 688.81,257.00 c 0.33,0.33 -1.19,0.37 -1.92,0.08 0.80,0.32 0.56,0.56 0.60,0.60 1.05,0.04 1.64,0.19 1.31,0.53 z"/><path style="opacity:.2;fill:#fff" d="M 96 16 A 80 80 0 0 0 16 96 A 80 80 0 0 0 16.02 96.47 A 80 80 0 0 1 96 17 A 80 80 0 0 1 175.97 96.51 A 80 80 0 0 0 176 96 A 80 80 0 0 0 96 16 z"/><path d="m 117.92,82.86 c 0.23,-3.42 -1.14,-6.85 -2.97,-9.82 L 99.42,45.88 c -1.14,-2.05 -2.05,-4.34 -2.51,-6.62 l 0.68,1.14 C 94.44,43.45 93.14,46.90 93,50.37 c 0.16,4.05 1.14,8.15 3.23,11.71 l 12.56,21.69 c 3.88,6.62 3.88,15.07 0,21.69 l 0.68,1.14 c 0.46,-2.28 -1.37,-4.57 -2.51,-6.62 L 94.17,80.12 86.87,67.34 c -1.14,-2.05 -2.05,-4.34 -2.51,-6.62 l 0.68,1.14 C 81.69,65.23 80.96,69.01 81,72.81 c 0.03,3.67 0.76,7.37 2.67,10.73 v 0 l 12.56,21.69 c 3.88,6.62 3.88,15.07 0,21.69 l 0.68,1.14 c 0.46,-2.28 -1.37,-4.57 -2.51,-6.62 L 77.28,94.28 C 75.22,90.62 74.31,86.51 74.31,82.40 57.64,86.74 46.00,96.10 46.00,106.83 46.00,121.90 68.37,134 96.00,134 123.62,134 146.00,121.90 146.00,106.83 146.22,96.56 134.81,87.20 117.92,82.86 Z" style="filter:url(#filter1739);opacity:.2;fill:#000"/><path d="m 117.92,80.86 c 0.23,-3.42 -1.14,-6.85 -2.97,-9.82 L 99.42,43.88 c -1.14,-2.05 -2.05,-4.34 -2.51,-6.62 l 0.68,1.14 C 94.44,41.45 93.14,44.90 93,48.37 c 0.16,4.05 1.14,8.15 3.23,11.71 l 12.56,21.69 c 3.88,6.62 3.88,15.07 0,21.69 l 0.68,1.14 c 0.46,-2.28 -1.37,-4.57 -2.51,-6.62 L 94.17,78.12 86.87,65.34 c -1.14,-2.05 -2.05,-4.34 -2.51,-6.62 l 0.68,1.14 C 81.69,63.23 80.96,67.01 81,70.81 c 0.03,3.67 0.76,7.37 2.67,10.73 v 0 l 12.56,21.69 c 3.88,6.62 3.88,15.07 0,21.69 l 0.68,1.14 c 0.46,-2.28 -1.37,-4.57 -2.51,-6.62 L 77.28,92.28 C 75.22,88.62 74.31,84.51 74.31,80.40 57.64,84.74 46.00,94.10 46.00,104.83 46.00,119.90 68.37,132 96.00,132 123.62,132 146.00,119.90 146.00,104.83 146.22,94.56 134.81,85.20 117.92,80.86 Z" style="fill:#fff"/></svg>