<?xml version='1.0' encoding='utf-8'?>
<svg xmlns="http://www.w3.org/2000/svg" width="192" height="192" version="1" id="svg26">
  <defs>
    <filter style="color-interpolation-filters:sRGB" id="filter862" x="-0.044400001" width="1.0888" y="-0.052235295" height="1.1044706">
      <feGaussianBlur stdDeviation="2.96"/>
    </filter>
    <filter style="color-interpolation-filters:sRGB" id="filter896" x="-0.012214286" width="1.0244286" y="-0.68399999" height="2.368">
      <feGaussianBlur stdDeviation="0.57"/>
    </filter>
  </defs>
  <path d="M 64,168 48,152 H 28 c -6.648,0 -12,-5.352 -12,-12 V 44 c 0,-6.648 5.352,-12 12,-12 h 136 c 6.648,0 12,5.352 12,12 v 96 c 0,6.648 -5.352,12 -12,12 h -20 l -16,16 z" style="filter:url(#filter862);opacity:0.2"/>
  <path d="M 64,164 48,148 H 28 c -6.648,0 -12,-5.352 -12,-12 V 40 c 0,-6.648 5.352,-12 12,-12 h 136 c 6.648,0 12,5.352 12,12 v 96 c 0,6.648 -5.352,12 -12,12 h -20 l -16,16 z" style="fill:#afafb1"/>
  <path d="M 80,140 62,124 H 40 V 52 h 112 v 72 h -24 l -16,16 z" style="opacity:0.6"/>
  <g transform="scale(4,-4)" style="fill:#f8c44e">
    <rect y="-16" x="15" height="3" width="2"/>
    <rect y="-16" x="19" height="3" width="2"/>
    <rect y="-16" x="23" height="3" width="2"/>
    <rect y="-16" x="27" height="3" width="2"/>
    <rect y="-16" x="31" height="3" width="2"/>
  </g>
  <path style="opacity:0.2;fill:#ffffff" d="M 28 28 C 21.352 28 16 33.352 16 40 L 16 41 C 16 34.352 21.352 29 28 29 L 164 29 C 170.648 29 176 34.352 176 41 L 176 40 C 176 33.352 170.648 28 164 28 L 28 28 z "/>
  <path style="opacity:0.2;fill:#ffffff" d="M 40 124 L 40 125 L 62 125 L 80 141 L 112 141 L 128 125 L 152 125 L 152 124 L 128 124 L 112 140 L 80 140 L 62 124 L 40 124 z "/>
  <rect style="filter:url(#filter896);opacity:0.2;fill:#000000" width="112" height="2" x="40" y="52"/>
</svg>
