<?xml version='1.0' encoding='utf-8'?>
<svg xmlns="http://www.w3.org/2000/svg" width="192" height="192" version="1" id="svg14">
  <defs>
    <filter style="color-interpolation-filters:sRGB" id="filter850" x="-0.048000001" width="1.096" y="-0.048000001" height="1.096">
      <feGaussianBlur stdDeviation="3.2"/>
    </filter>
    <filter style="color-interpolation-filters:sRGB" id="filter11356" x="-0.12676498" y="-0.1469494" width="1.25353" height="1.2938988">
      <feGaussianBlur stdDeviation="3.045021"/>
    </filter>
    <filter style="color-interpolation-filters:sRGB" id="filter11360" x="-0.064311823" y="-0.089948877" width="1.1286236" height="1.1798978">
      <feGaussianBlur stdDeviation="1.8635144"/>
    </filter>
    <filter style="color-interpolation-filters:sRGB" id="filter11364" x="-0.10103492" y="-0.1159965" width="1.2020698" height="1.231993">
      <feGaussianBlur stdDeviation="1.6143583"/>
    </filter>
  </defs>
  <circle style="filter:url(#filter850);opacity:0.2;fill:#000000" cx="96" cy="100" r="80"/>
  <circle r="80" cy="96" cx="96" style="fill:#3f3f3f"/>
  <path style="filter:url(#filter11364);opacity:0.2;fill:#000000" d="m 122.33594,80.390535 c 0.01,0.002 0,0 0,0 z m 0.01,0.002 c 0.0281,0.633704 -8.28373,11.118806 -8.28063,11.753121 -0.008,11.553764 -3.78142,11.894624 -3.38367,21.646404 H 138 c 6.07513,0 11,-4.90439 11,-10.95425 0,-6.049865 -4.92487,-10.954253 -11,-10.954253 -1.1814,0.0069 -2.35398,0.203251 -3.47266,0.581555 -1.48612,-6.048589 -6.24619,-10.657522 -12.18164,-12.072625 z"/>
  <path style="fill:#38adfa" d="m 688.80525,256.99648 c -0.33229,-0.33229 -1.1948,-0.36781 -1.91667,-0.0789 -0.79773,0.31922 -0.56078,0.55618 0.60417,0.60416 1.05416,0.0434 1.64479,-0.19293 1.3125,-0.52522 z"/>
  <path style="opacity:0.1;fill:#ffffff" d="M 96 16 A 80 80 0 0 0 16 96 A 80 80 0 0 0 16.019531 96.472656 A 80 80 0 0 1 96 17 A 80 80 0 0 1 175.97461 96.513672 A 80 80 0 0 0 176 96 A 80 80 0 0 0 96 16 z "/>
  <path style="fill:#c31b1b" d="m 122.33594,78.390534 c 0.01,0.002 0,0 0,0 z m 0.01,0.002 c 0.0281,0.633704 -8.28373,11.118806 -8.28063,11.753121 -0.008,11.553765 -3.78142,11.894625 -3.38367,21.646405 H 138 c 6.07513,0 11,-4.90439 11,-10.95425 0,-6.049866 -4.92487,-10.954254 -11,-10.954254 -1.1814,0.0069 -2.35398,0.203251 -3.47266,0.581555 -1.48612,-6.048589 -6.24619,-10.657522 -12.18164,-12.072625 z"/>
  <path style="filter:url(#filter11360);opacity:0.2;fill:#000000" d="m 100.625,64.278137 c -67.083333,86.120793 -33.541667,43.060393 0,0 z m 0,0 c 0.0124,0.354535 -10.833924,13.084188 -10.829324,13.438908 -9.851546,8.409915 -10.432825,35.552445 -36.946057,36.014705 0.378122,0.0391 0.761853,0.0602 1.150381,0.0602 h 56.68164 c 7.55002,-8.77274 11.70341,-19.943548 11.71094,-31.497361 -0.003,-0.634314 -0.0187,-1.268508 -0.0469,-1.902211 -0.87874,-0.209506 -1.78153,-0.350562 -2.70508,-0.414286 -2.96982,-8.418259 -10.34965,-14.38311 -19.0156,-15.700055 z"/>
  <path style="fill:#dc383d" d="m 100.625,62.278136 c -67.083333,86.120794 -33.541667,43.060394 0,0 z m 0,0 c 0.0124,0.354535 -10.833924,13.084188 -10.829324,13.438908 -9.851546,8.409915 -10.432825,35.552446 -36.946057,36.014706 0.378122,0.0391 0.761853,0.0602 1.150381,0.0602 h 56.68164 c 7.55002,-8.77274 11.70341,-19.943549 11.71094,-31.497362 -0.003,-0.634314 -0.0187,-1.268508 -0.0469,-1.902211 -0.87874,-0.209506 -1.78153,-0.350562 -2.70508,-0.414286 -2.96982,-8.418259 -10.34965,-14.38311 -19.0156,-15.700055 z"/>
  <path style="filter:url(#filter11356);opacity:0.2;fill:#000000" d="m 97,64.000001 c -6.84853,0.0076 -13.367608,2.928317 -17.916016,8.027023 C 77.132231,71.328569 75.073948,70.971265 73,70.970888 c -9.941125,0 -18,8.025358 -18,17.925137 0.01036,1.029014 0.109688,2.055227 0.296875,3.067268 -0.430336,-0.05201 -0.863383,-0.07863 -1.296875,-0.07975 -6.075132,0 -11,4.904388 -11,10.954257 0,5.66229 4.314153,10.32026 9.847656,10.89395 A 48.652489,48.450142 0 0 0 100.65039,65.342052 48.652489,48.450142 0 0 0 100.625,64.278137 C 99.437895,64.097735 98.227376,64.000135 97,64.000001 Z"/>
  <path style="fill:#e55555" d="M 97,62 C 90.15147,62.0076 83.632392,64.928317 79.083984,70.027023 77.132231,69.328568 75.073948,68.971264 73,68.970887 c -9.941125,0 -18,8.025358 -18,17.925137 0.01036,1.029014 0.109688,2.055227 0.296875,3.067268 -0.430336,-0.05201 -0.863383,-0.07863 -1.296875,-0.07975 -6.075132,0 -11,4.904388 -11,10.954258 0,5.66229 4.314153,10.32026 9.847656,10.89395 A 48.652489,48.450142 0 0 0 100.65039,63.342051 48.652489,48.450142 0 0 0 100.625,62.278136 C 99.437895,62.097734 98.227376,62.000134 97,62 Z"/>
  <path style="opacity:0.1;fill:#ffffff" d="M 97,62 C 90.15147,62.0076 83.632392,64.928317 79.083984,70.027023 77.132231,69.328568 75.073948,68.971264 73,68.970887 c -9.941125,0 -18,8.025358 -18,17.925137 0.0016,0.163046 0.01929,0.325336 0.02539,0.488195 C 55.297831,77.721466 63.231014,69.966728 73,69.966728 c 2.073948,3.77e-4 4.132231,0.357681 6.083984,1.056136 C 83.632392,65.924158 90.15147,63.00341 97,62.995841 c 10.18731,0.0011 19.26393,6.406757 22.64062,15.978191 7.16162,0.494145 13.18058,5.542828 14.88672,12.486911 1.11868,-0.378304 2.29126,-0.574683 3.47266,-0.581555 5.90637,0 10.71143,4.639214 10.97461,10.456332 0.008,-0.16621 0.0254,-0.32986 0.0254,-0.49792 0,-6.049865 -4.92487,-10.954253 -11,-10.954253 -1.1814,0.0069 -2.35398,0.203251 -3.47266,0.581555 C 132.8212,83.521019 126.80224,78.472336 119.64062,77.978191 116.26393,68.406757 107.18731,62.001112 97,62 Z M 54,89.883547 c -6.075132,0 -11,4.904388 -11,10.954253 0,0.16806 0.01787,0.33171 0.02539,0.49792 0.263177,-5.817118 5.068234,-10.456332 10.974609,-10.456332 0.433492,0.0011 0.866539,0.02774 1.296875,0.07975 -0.06152,-0.332593 -0.09813,-0.66837 -0.140625,-1.00362 C 54.772059,89.91405 54.386505,89.884537 54,89.883547 Z"/>
</svg>
