<?xml version='1.0' encoding='utf-8'?>
<svg xmlns="http://www.w3.org/2000/svg" width="192" height="192" version="1" id="svg28">
  <defs>
    <filter style="color-interpolation-filters:sRGB" id="filter6495" x="0.05" y="0.05" width="1.10" height="1.10">
      <feGaussianBlur stdDeviation="3.20"/>
    </filter>
    <filter style="color-interpolation-filters:sRGB" id="filter3140" x="0.04" y="0.05" width="1.09" height="1.10">
      <feGaussianBlur stdDeviation="2.06"/>
    </filter>
  </defs>
  <rect transform="matrix(0,-1,-1,0,0,0)" ry="12" rx="12" y="-176" x="-180" height="160" width="160" style="filter:url(#filter6495);opacity:0.20;fill:#000000"/>
  <rect transform="matrix(0,-1,-1,0,0,0)" ry="12" rx="12" y="-176" x="-176" height="160" width="160" style="fill:#3f3f3f"/>
  <path style="opacity:0.10;fill:#ffffff" d="m 28,16 c -6.65,0 -12,5.35 -12,12 v 1 c 0,-6.65 5.35,-12 12,-12 h 136 c 6.65,0 12,5.35 12,12 v -1 c 0,-6.65 -5.35,-12 -12,-12 z"/>
  <path style="filter:url(#filter3140);opacity:0.20;fill:#000000" d="M 96,55.50 72.92,69.26 84.61,76.22 96,69.50 l 11.39,6.72 11.69,-6.97 z m -55,0.90 v 20.10 l 9,4.86 v 10.83 l 32.24,19.00 -6.85,4.44 L 96,127.50 116.61,115.63 109.76,111.20 142,92.20 V 81.37 l 9,-4.86 V 56.40 L 100.66,85.23 96,82.50 91.34,85.23 Z m 14,44.60 v 26.50 l 41,23.67 41,-23.67 v -26.50 l -12,6.60 v 12.97 L 96,137.31 67,120.57 v -12.97 z"/>
  <path style="fill:#ffffff" d="M 96,53.50 72.92,67.26 84.61,74.22 96,67.50 l 11.39,6.72 11.69,-6.97 z m -55,0.90 v 20.10 l 9,4.86 v 10.83 l 32.24,19.00 -6.85,4.44 L 96,125.50 116.61,113.63 109.76,109.20 142,90.20 V 79.37 l 9,-4.86 V 54.40 L 100.66,83.23 96,80.50 91.34,83.23 Z M 55,99 v 26.50 L 96,149.17 137,125.50 V 99 l -12,6.60 v 12.97 L 96,135.31 67,118.57 v -12.97 z"/>
</svg>
