<?xml version='1.0' encoding='utf-8'?>
<svg xmlns="http://www.w3.org/2000/svg" width="192" height="192" version="1" id="svg92">
  <defs>
    <filter style="color-interpolation-filters:sRGB" id="filter967" x="0.05" width="1.10" y="0.05" height="1.10">
      <feGaussianBlur stdDeviation="3.20"/>
    </filter>
    <filter style="color-interpolation-filters:sRGB" id="filter975" x="0.02" width="1.04" y="0.03" height="1.06">
      <feGaussianBlur stdDeviation="0.10"/>
    </filter>
    <filter style="color-interpolation-filters:sRGB" id="filter983" x="0.02" width="1.04" y="0.03" height="1.06">
      <feGaussianBlur stdDeviation="0.10"/>
    </filter>
    <filter style="color-interpolation-filters:sRGB" id="filter1011" x="0.05" width="1.10" y="0.05" height="1.10">
      <feGaussianBlur stdDeviation="1.12"/>
    </filter>
  </defs>
  <rect style="filter:url(#filter967);opacity:0.20;fill:#000000" width="160" height="160" x="-180" y="-176" rx="8" ry="8" transform="matrix(0,-1,-1,0,0,0)"/>
  <rect transform="matrix(0,-1,-1,0,0,0)" ry="8" rx="8" y="-176" x="-176" height="160" width="160" style="fill:#4f4f4f"/>
  <path style="opacity:0.10;fill:#ffffff" d="M 24 16 C 19.57 16 16 19.57 16 24 L 16 25 C 16 20.57 19.57 17 24 17 L 168 17 C 172.43 17 176 20.57 176 25 L 176 24 C 176 19.57 172.43 16 168 16 L 24 16 z "/>
  <path d="m 164,132 a 36,36 0 0 1 -36,36 36,36 0 0 1 -36,-36 36,36 0 0 1 36,-36 36,36 0 0 1 36,36 z" style="opacity:0.30"/>
  <path d="m 156,136 a 28,28 0 0 1 -28,28 28,28 0 0 1 -28,-28 28,28 0 0 1 28,-28 28,28 0 0 1 28,28 z" style="filter:url(#filter1011);opacity:0.20"/>
  <path d="M 152.25,146 A 28,28 30 0 1 114,156.25 28,28 30 0 1 103.75,118 28,28 30 0 1 142,107.75 28,28 30 0 1 152.25,146 Z" style="fill:#979797"/>
  <path style="opacity:0.20;fill:#ffffff" d="M 128.66 104.01 A 28 28 0 0 0 126.68 104.03 A 28 28 0 0 0 103.75 118 A 28 28 0 0 0 100.05 132.09 A 28 28 0 0 1 103.75 119 A 28 28 0 0 1 126.68 105.03 A 28 28 0 0 1 142 108.75 A 28 28 0 0 1 155.95 132.00 A 28 28 0 0 0 142 107.75 A 28 28 0 0 0 128.66 104.01 z "/>
  <rect transform="rotate(30)" ry="4" rx="4" y="18.32" x="172.84" height="24" width="8" style="fill:#0bd5d5"/>
  <path d="m 68,136 v 18.49 C 68,155.33 67.29,156 66.41,156 H 65.59 C 64.71,156 64,155.33 64,154.49 V 136 Z" style="fill:#0bd5d5"/>
  <path d="M 65.59,108 C 64.71,108 64,108.67 64,109.51 V 136 h 4 V 109.51 C 68,108.67 67.29,108 66.41,108 Z" style="opacity:0.30"/>
  <rect ry="2.67" rx="3" y="134" x="60" height="8" width="12" style="filter:url(#filter975);opacity:0.10"/>
  <rect ry="2.67" rx="3" y="132" x="60" height="8" width="12" style="fill:#979797"/>
  <path d="m 40,128 v 26.49 C 40,155.33 39.29,156 38.41,156 H 37.59 C 36.71,156 36,155.33 36,154.49 V 128 Z" style="fill:#0bd5d5"/>
  <path d="M 37.59,108 C 36.71,108 36,108.67 36,109.51 V 128 h 4 V 109.51 C 40,108.67 39.29,108 38.41,108 Z" style="opacity:0.30"/>
  <rect ry="2.67" rx="3" y="122" x="32" height="8" width="12" style="filter:url(#filter983);opacity:0.10"/>
  <rect ry="2.67" rx="3" y="120" x="32" height="8" width="12" style="fill:#979797"/>
  <path style="opacity:0.20;fill:#ffffff" d="M 63 132 C 61.34 132 60 133.19 60 134.66 L 60 135.66 C 60 134.19 61.34 133 63 133 L 69 133 C 70.66 133 72 134.19 72 135.66 L 72 134.66 C 72 133.19 70.66 132 69 132 L 63 132 z "/>
  <path style="opacity:0.20;fill:#ffffff" d="M 35 120 C 33.34 120 32 121.19 32 122.66 L 32 123.66 C 32 122.19 33.34 121 35 121 L 41 121 C 42.66 121 44 122.19 44 123.66 L 44 122.66 C 44 121.19 42.66 120 41 120 L 35 120 z "/>
  <rect transform="scale(-1,1)" y="52" x="-52" height="8" width="24" style="opacity:0.30"/>
  <rect transform="scale(-1,1)" y="40" x="-52" height="8" width="24" style="opacity:0.30"/>
  <rect transform="scale(-1,1)" y="28" x="-52" height="8" width="24" style="opacity:0.30"/>
  <rect transform="scale(-1,1)" y="28" x="-80" height="8" width="24" style="opacity:0.30"/>
  <rect transform="scale(-1,1)" y="52" x="-108" height="8" width="24" style="opacity:0.30"/>
  <rect transform="scale(-1,1)" y="40" x="-108" height="8" width="24" style="opacity:0.30"/>
  <rect transform="scale(-1,1)" y="40" x="-136" height="8" width="24" style="opacity:0.30"/>
  <rect transform="scale(-1,1)" y="28" x="-108" height="8" width="24" style="opacity:0.30"/>
  <rect transform="scale(-1,1)" y="28" x="-136" height="8" width="24" style="opacity:0.30"/>
  <g transform="matrix(4,0,0,4,4,0)" style="fill:#0bd5d5">
    <rect transform="scale(-1,1)" y="19" x="-12" height="2" width="6" style="fill:#0bd5d5"/>
    <rect transform="scale(-1,1)" y="19" x="-19" height="2" width="6" style="fill:#0bd5d5"/>
    <rect transform="scale(-1,1)" y="16" x="-12" height="2" width="6" style="fill:#0bd5d5"/>
    <rect transform="scale(-1,1)" y="16" x="-19" height="2" width="6" style="fill:#0bd5d5"/>
    <rect transform="scale(-1,1)" y="13" x="-19" height="2" width="6" style="fill:#0bd5d5"/>
    <rect transform="scale(-1,1)" y="10" x="-19" height="2" width="6" style="fill:#0bd5d5"/>
    <rect transform="scale(-1,1)" y="19" x="-26" height="2" width="6" style="fill:#0bd5d5"/>
    <rect transform="scale(-1,1)" y="19" x="-33" height="2" width="6" style="fill:#0bd5d5"/>
    <rect transform="scale(-1,1)" y="16" x="-26" height="2" width="6" style="fill:#0bd5d5"/>
    <rect transform="scale(-1,1)" y="16" x="-33" height="2" width="6" style="fill:#0bd5d5"/>
    <rect transform="scale(-1,1)" y="13" x="-33" height="2" width="6" style="fill:#0bd5d5"/>
    <rect transform="scale(-1,1)" y="19" x="-40" height="2" width="6" style="fill:#0bd5d5"/>
    <rect transform="scale(-1,1)" y="16" x="-40" height="2" width="6" style="fill:#0bd5d5"/>
    <rect transform="scale(-1,1)" y="13" x="-40" height="2" width="6" style="fill:#0bd5d5"/>
    <rect transform="scale(-1,1)" y="10" x="-40" height="2" width="6" style="fill:#0bd5d5"/>
    <rect transform="scale(-1,1)" y="7" x="-40" height="2" width="6" style="fill:#0bd5d5"/>
  </g>
</svg>
