<?xml version='1.0' encoding='utf-8'?>
<svg xmlns="http://www.w3.org/2000/svg" width="192" height="192" version="1" id="svg16">
  <defs>
    <filter style="color-interpolation-filters:sRGB" id="filter864" x="0.05" width="1.10" y="0.05" height="1.10">
      <feGaussianBlur stdDeviation="3.20"/>
    </filter>
    <filter style="color-interpolation-filters:sRGB" id="filter4077" x="0.05" y="0.05" width="1.10" height="1.10">
      <feGaussianBlur stdDeviation="2.56"/>
    </filter>
    <filter style="color-interpolation-filters:sRGB" id="filter4081" x="0.05" y="0.05" width="1.10" height="1.10">
      <feGaussianBlur stdDeviation="1.28"/>
    </filter>
  </defs>
  <rect style="filter:url(#filter864);opacity:0.20;fill:#000000" width="160" height="160" x="-180" y="-176" rx="80" ry="80" transform="matrix(0,-1,-1,0,0,0)"/>
  <rect transform="matrix(0,-1,-1,0,0,0)" ry="80" rx="80" y="-176" x="-176" height="160" width="160" style="fill:#e4e4e4"/>
  <path style="opacity:0.20;fill:#ffffff" d="M 96 16 C 51.68 16 16.01 51.68 16.01 96 C 16.01 96.34 16.01 96.67 16.01 97 C 16.01 52.68 51.68 17 96 17 C 140.32 17 175.99 52.68 175.99 97 C 175.99 96.67 175.99 96.34 175.99 96 C 175.99 51.68 140.32 16 96 16 z "/>
  <path style="fill:none" d="M 126,96.00 96.00,113.50 66,131 V 96.00 61 l 30.00,17.50 z"/>
  <path style="filter:url(#filter4077);opacity:0.20;fill:#000000" d="m 96,34 a 9,9 0 0 0 -9,9 9,9 0 0 0 9,9 9,9 0 0 0 9,-9 9,9 0 0 0 -9,-9 z M 41,89 a 9,9 0 0 0 -9,9 9,9 0 0 0 9,9 9,9 0 0 0 9,-9 9,9 0 0 0 -9,-9 z m 110,0 a 9,9 0 0 0 -9,9 9,9 0 0 0 9,9 9,9 0 0 0 9,-9 9,9 0 0 0 -9,-9 z m -55,55 a 9,9 0 0 0 -9,9 9,9 0 0 0 9,9 9,9 0 0 0 9,-9 9,9 0 0 0 -9,-9 z"/>
  <path style="fill:#68cdff" d="M 96 32 A 9 9 0 0 0 87 41 A 9 9 0 0 0 96 50 A 9 9 0 0 0 105 41 A 9 9 0 0 0 96 32 z M 41 87 A 9 9 0 0 0 32 96 A 9 9 0 0 0 41 105 A 9 9 0 0 0 50 96 A 9 9 0 0 0 41 87 z M 151 87 A 9 9 0 0 0 142 96 A 9 9 0 0 0 151 105 A 9 9 0 0 0 160 96 A 9 9 0 0 0 151 87 z M 96 142 A 9 9 0 0 0 87 151 A 9 9 0 0 0 96 160 A 9 9 0 0 0 105 151 A 9 9 0 0 0 96 142 z "/>
  <path style="filter:url(#filter4081);opacity:0.20;fill:#000000" d="M 96,66 A 32,32 0 0 0 64,98 32,32 0 0 0 96,130 32,32 0 0 0 128,98 32,32 0 0 0 96,66 Z"/>
  <path style="fill:#07a1ff" d="M 96,64 A 32,32 0 0 0 64,96 32,32 0 0 0 96,128 32,32 0 0 0 128,96 32,32 0 0 0 96,64 Z"/>
</svg>
