<?xml version='1.0' encoding='utf-8'?>
<svg xmlns="http://www.w3.org/2000/svg" width="192" height="192" version="1.1" id="svg10">
  <defs>
    <filter id="filter1064" style="color-interpolation-filters:sRGB" width="1.10" height="1.09" x="0.05" y="0.05">
      <feGaussianBlur stdDeviation="1.23"/>
    </filter>
    <filter id="filter1068" style="color-interpolation-filters:sRGB" width="1.10" height="1.09" x="0.05" y="0.05">
      <feGaussianBlur stdDeviation="2.42"/>
    </filter>
    <filter id="filter1072" style="color-interpolation-filters:sRGB" width="1.10" height="1.09" x="0.05" y="0.05">
      <feGaussianBlur stdDeviation="2.42"/>
    </filter>
    <filter id="filter1045" style="color-interpolation-filters:sRGB" width="1.23" height="1.21" x="0.11" y="0.10">
      <feGaussianBlur stdDeviation="2.07"/>
    </filter>
  </defs>
  <path style="filter:url(#filter1072);opacity:0.20" d="M 61.46,52 108.04,124.52 105.97,148 H 93.31 l 9.84,32 h 62.20 C 171.21,180 176,175.28 176,169.51 V 62.49 C 176,56.72 171.21,52 165.36,52 Z"/>
  <path style="fill:#e4e4e4" d="m 165.36,176.00 c 5.85,0 10.64,-4.72 10.64,-10.49 V 58.49 c 0,-5.78 -4.79,-10.49 -10.64,-10.49 H 61.46 l 46.58,72.51 -4.88,55.49 z"/>
  <path style="opacity:0.20;fill:#ffffff" d="M 61.46 48 L 62.10 49 L 165.36 49 C 171.21 49 176 53.72 176 59.49 L 176 58.49 C 176 52.72 171.21 48 165.36 48 L 61.46 48 z M 107.73 124.03 L 103.16 176 L 103.24 176 L 107.73 125.03 L 107.96 125.40 L 108.04 124.52 L 107.73 124.03 z"/>
  <path style="filter:url(#filter1064);opacity:0.10" d="m 124,78 v 8 h -19.25 v 8.01 H 108 V 94 h 24 v 0.01 h 11.12 c -2.05,7.12 -6.59,14.00 -11.02,19.23 -5.55,-6.48 -7.16,-9.81 -7.64,-11.23 h -8.16 c 0.60,1.83 2.84,6.71 11.12,16.27 -3.57,3.60 -6.28,5.73 -6.28,5.73 l 2.50,7.71 c 0,0 3.78,-3.20 8.51,-8.15 4.75,5.07 10.87,11.16 18.79,18.43 l 5.15,-5.07 C 147.61,129.35 141.40,123.33 136.83,118.50 c 6.12,-7.14 12.34,-16.28 13.66,-24.51 h 13.51 v 0.02 h 0.02 V 86 H 132 v -8 z"/>
  <path style="fill:#09856d" d="m 130.54,144 -37.22,0.00 9.84,32 z"/>
  <path style="fill:#5a717f" d="m 124,76 v 8 h -19.25 v 8.01 H 108 V 92 h 24 v 0.01 h 11.12 c -2.05,7.12 -6.59,14.00 -11.02,19.23 -5.55,-6.48 -7.16,-9.81 -7.64,-11.23 h -8.16 c 0.60,1.83 2.84,6.71 11.12,16.27 -3.57,3.60 -6.28,5.73 -6.28,5.73 l 2.50,7.71 c 0,0 3.78,-3.20 8.51,-8.15 4.75,5.07 10.87,11.16 18.79,18.43 l 5.15,-5.07 C 147.61,127.35 141.40,121.33 136.83,116.50 c 6.12,-7.14 12.34,-16.28 13.66,-24.51 h 13.51 v 0.02 h 0.02 V 84 H 132 v -8 z"/>
  <path style="filter:url(#filter1068);opacity:0.20" d="m 26.64,20 c -5.85,0 -10.64,4.73 -10.64,10.51 v 107.00 c 0,5.77 4.79,10.49 10.64,10.49 H 130.54 L 88.84,20 Z"/>
  <path style="fill:#0dc09c" d="m 26.64,16 c -5.85,0 -10.64,4.73 -10.64,10.51 v 107.00 c 0,5.77 4.79,10.49 10.64,10.49 H 130.54 L 88.84,16 Z"/>
  <path style="opacity:0.20;fill:#ffffff" d="M 26.64 16 C 20.79 16 16 20.72 16 26.51 L 16 27.51 C 16 21.72 20.79 17 26.64 17 L 88.84 17 L 130.21 144 L 130.54 144 L 88.84 16 L 26.64 16 z"/>
  <path style="filter:url(#filter1045);opacity:0.20" d="m 61.00,60.00 c -4.84,0 -5.86,3.09 -7.70,7.66 L 39.29,102.51 c 0.82,2.05 0.17,4.38 2.22,5.20 2.05,0.82 4.38,0.17 5.20,-2.22 l 3.82,-9.49 h 10.47 10.47 l 3.82,9.49 c 0.82,2.05 3.15,3.04 5.20,2.22 2.05,0.82 3.04,-3.15 2.22,-5.20 L 68.70,67.66 c -1.84,-4.57 -2.85,-7.66 -7.70,-7.66 z m 0,9.96 7.26,18.04 h -7.26 -7.26 z"/>
  <path style="fill:#ffffff" d="m 61.00,58.00 c -4.84,0 -5.86,3.09 -7.70,7.66 L 39.29,100.51 c 0.82,2.05 0.17,4.38 2.22,5.20 2.05,0.82 4.38,0.17 5.20,-2.22 l 3.82,-9.49 h 10.47 10.47 l 3.82,9.49 c 0.82,2.05 3.15,3.04 5.20,2.22 2.05,0.82 3.04,-3.15 2.22,-5.20 L 68.70,65.66 C 66.86,61.09 65.84,58.00 61.00,58.00 Z m 0,9.96 7.26,18.04 h -7.26 -7.26 z"/>
</svg>
