<svg xmlns="http://www.w3.org/2000/svg" id="svg28" width="192" height="192" version="1"><defs><filter style="color-interpolation-filters:sRGB" id="filter6495" width="1.1" height="1.1" x=".05" y=".05"><feGaussianBlur stdDeviation="3.2"/></filter><filter style="color-interpolation-filters:sRGB" id="filter2787" width="1.12" height="1.19" x=".06" y=".1"><feGaussianBlur stdDeviation="2.14"/></filter><filter style="color-interpolation-filters:sRGB" id="filter2791" width="1.1" height="1.27" x=".05" y=".14"><feGaussianBlur stdDeviation="1.81"/></filter></defs><rect width="160" height="160" x="-180" y="-176" rx="12" ry="12" transform="matrix(0,-1,-1,0,0,0)" style="filter:url(#filter6495);opacity:.2;fill:#000"/><rect width="160" height="160" x="-176" y="-176" rx="12" ry="12" transform="matrix(0,-1,-1,0,0,0)" style="fill:#1a73e8"/><path style="opacity:.2;fill:#fff" d="m 28,16 c -6.65,0 -12,5.35 -12,12 v 1 c 0,-6.65 5.35,-12 12,-12 h 136 c 6.65,0 12,5.35 12,12 v -1 c 0,-6.65 -5.35,-12 -12,-12 z"/><path style="filter:url(#filter2787);opacity:.2;fill:#000" d="m 54,87 v 45 c 0,4.43 3.57,8 8,8 h 68 c 4.43,0 8,-3.57 8,-8 V 87 h -9 v 44 H 63 V 87 Z"/><path style="fill:#eee" d="M 54 85 L 54 130 C 54 134.43 57.57 138 62 138 L 130 138 C 134.43 138 138 134.43 138 130 L 138 85 L 129 85 L 129 129 L 63 129 L 63 85 L 54 85 z"/><path style="filter:url(#filter2791);opacity:.3;fill:#000" d="m 62,56 c -4.43,0 -8,3.57 -8,8 v 24 h 84 V 64 c 0,-4.43 -3.57,-8 -8,-8 z"/><path style="fill:#fff" d="m 62,54 c -4.43,0 -8,3.57 -8,8 v 24 h 84 V 62 c 0,-4.43 -3.57,-8 -8,-8 z"/></svg>