<?xml version='1.0' encoding='utf-8'?>
<svg xmlns="http://www.w3.org/2000/svg" width="192" height="192" version="1" id="svg14">
  <defs>
    <filter style="color-interpolation-filters:sRGB" id="filter850" x="0.05" width="1.10" y="0.05" height="1.10">
      <feGaussianBlur stdDeviation="3.20"/>
    </filter>
    <filter style="color-interpolation-filters:sRGB" id="filter11795" x="0.07" y="0.08" width="1.15" height="1.16">
      <feGaussianBlur stdDeviation="3.15"/>
    </filter>
  </defs>
  <circle style="filter:url(#filter850);opacity:0.20;fill:#000000" cx="96" cy="100" r="80"/>
  <circle r="80" cy="96" cx="96" style="fill:#ef037d"/>
  <path style="filter:url(#filter11795);opacity:0.20;fill:#000000" d="m 137,77.00 c -15.27,0.05 -29.96,5.64 -41.37,15.68 0.02,0.01 -2.33,1.97 0.22,4.04 l 52.87,52.01 c 14.81,-14.92 0.83,-27.40 0.76,-48.42 C 147.52,97.72 175.87,92.83 175.62,90.25 164.58,81.67 150.99,77.01 137,77.00 Z m -51.52,26.96 c -1.32,1.84 -2.54,3.76 -3.65,5.73 0.40,0.96 -1.97,4.46 1.26,7.68 l 46.34,45.48 c 3.36,-1.82 6.59,-3.87 9.65,-6.15 z m -9.96,23.01 c 0.85,3.78 -1.35,7.63 -1.49,11.49 0.29,2.36 0.21,3.23 1.90,4.93 l 28.88,28.02 c 4.32,0.75 8.57,-1.86 12.70,-3.30 z"/>
  <path style="opacity:0.20;fill:#ffffff" d="M 96 16 A 80 80 0 0 0 16 96 A 80 80 0 0 0 16.02 96.47 A 80 80 0 0 1 96 17 A 80 80 0 0 1 175.97 96.51 A 80 80 0 0 0 176 96 A 80 80 0 0 0 96 16 z "/>
  <path style="fill:#f95893" d="m 75.53,124.97 c 0.85,3.78 -1.35,7.63 -1.49,11.49 0.29,2.36 0.21,3.23 1.90,4.93 l 33.38,33.38 c 4.32,0.75 8.57,-1.86 12.70,-3.30 z"/>
  <path style="fill:#f99bca" d="m 85.48,101.96 c -1.32,1.84 -2.54,3.76 -3.65,5.73 0.40,0.96 -1.96,4.46 1.26,7.68 l 50.94,50.94 c 3.36,-1.82 6.59,-3.87 9.65,-6.15 z"/>
  <path style="fill:#ffffff" d="m 137,75 c -15.27,0.05 -29.96,5.64 -41.37,15.68 0.02,0.01 -2.31,1.96 0.22,4.04 L 152.97,152.18 c 14.81,-14.92 23.06,-35.16 23.13,-56.18 0.00,-2.59 0.13,-5.17 0.38,-7.75 C 164.68,79.67 150.99,75.01 137,75 Z"/>
</svg>
