<?xml version='1.0' encoding='utf-8'?>
<svg xmlns="http://www.w3.org/2000/svg" width="192" height="192" version="1" id="svg28">
  <defs>
    <filter style="color-interpolation-filters:sRGB" id="filter901" x="0.05" width="1.10" y="0.05" height="1.10">
      <feGaussianBlur stdDeviation="3.20"/>
    </filter>
    <filter style="color-interpolation-filters:sRGB" id="filter2995" x="0.05" y="0.05" width="1.10" height="1.09">
      <feGaussianBlur stdDeviation="1.73"/>
    </filter>
    <filter style="color-interpolation-filters:sRGB" id="filter2999" x="0.05" y="0.05" width="1.10" height="1.09">
      <feGaussianBlur stdDeviation="1.73"/>
    </filter>
  </defs>
  <rect style="filter:url(#filter901);opacity:0.20;fill:#000000" width="160" height="160" x="-180" y="-176" rx="12" ry="12" transform="matrix(0,-1,-1,0,0,0)"/>
  <rect transform="matrix(0,-1,-1,0,0,0)" ry="12" rx="12" y="-176" x="-176" height="160" width="160" style="fill:#31a1fa"/>
  <path style="filter:url(#filter2999);opacity:0.20;fill:#000000;color:#000000" d="M 121.45,60.00 58.13,152 h 73.22 l 8.26,-12 H 80.96 L 136.02,60.00 Z"/>
  <path style="opacity:0.20;fill:#ffffff" d="m 28,16 c -6.65,0 -12,5.35 -12,12 v 1 c 0,-6.65 5.35,-12 12,-12 h 136 c 6.65,0 12,5.35 12,12 v -1 c 0,-6.65 -5.35,-12 -12,-12 z"/>
  <path style="fill:#add9fd;color:#000000" d="M 121.45,58.00 58.13,150 h 73.22 l 8.26,-12 H 80.96 L 136.02,58.00 Z"/>
  <path style="filter:url(#filter2995);opacity:0.20;fill:#000000;color:#000000" d="M 109.45,39 46.13,131 H 119.35 l 8.26,-12 H 68.96 L 124.02,39 Z"/>
  <path style="fill:#ffffff;color:#000000" d="M 109.45,37 46.13,129 H 119.35 l 8.26,-12 H 68.96 L 124.02,37 Z"/>
</svg>
