<?xml version='1.0' encoding='utf-8'?>
<svg xmlns="http://www.w3.org/2000/svg" width="192" height="192" version="1.1" id="svg14">
  <defs>
    <filter style="color-interpolation-filters:sRGB" id="filter2745" x="0.05" y="0.05" width="1.10" height="1.09">
      <feGaussianBlur stdDeviation="3.12"/>
    </filter>
    <filter style="color-interpolation-filters:sRGB" id="filter2829" x="0.04" y="0.06" width="1.08" height="1.12">
      <feGaussianBlur stdDeviation="1.45"/>
    </filter>
  </defs>
  <path style="filter:url(#filter2745);opacity:0.20;fill:#000000" d="m 20.34,38.07 c 0.41,2.27 0.45,75.53 0.11,91.91 0.13,8.43 5.75,15.93 12.61,19.19 3.80,1.73 5.34,1.92 15.93,1.93 9.67,0.01 12.17,0.18 15.23,1.21 3.41,1.15 6.13,2.85 8.71,5.46 3.19,3.22 5.48,7.87 6.01,12.17 0.12,0.96 0.21,3.55 0.21,5.76 0,3.64 0.06,4.29 0.37,4.29 0.05,0 0.61,0.34 1.24,0.75 h 0.00 c 0.63,0.41 4.09,-2.71 7.69,-5.09 3.60,-2.39 10.64,-7.06 15.64,-10.38 5.01,-3.32 9.70,-6.37 10.43,-6.77 0.73,0.40 1.74,0.96 2.25,-1.23 2.22,-1.21 7.28,-2.97 10.45,-3.65 3.62,0.77 4.87,0.85 16.03,-1.01 15.07,1.05 28.58,-6.32 28.81,-22.05 0.19,-13.49 0.20,-69.29 0.02,-85.57 C 171.84,29.96 162.59,20.04 149.68,20.04 H 96.01 45.05 C 32.71,19.42 22.64,26.34 20.34,38.07 Z"/>
  <path style="fill:#1773cf" d="m 20.34,34.07 c 0.41,2.27 0.45,75.53 0.11,91.91 0.13,8.43 5.75,15.93 12.61,19.19 3.80,1.73 5.34,1.92 15.93,1.93 9.67,0.01 12.17,0.18 15.23,1.21 3.41,1.15 6.13,2.85 8.71,5.46 3.19,3.22 5.48,7.87 6.01,12.17 0.12,0.96 0.21,3.55 0.21,5.76 0,3.64 0.06,4.29 0.37,4.29 0.05,0 0.61,0.34 1.24,0.75 h 0.00 c 0.63,0.41 4.09,-2.71 7.69,-5.09 3.60,-2.39 10.64,-7.06 15.64,-10.38 5.01,-3.32 9.70,-6.37 10.43,-6.77 0.73,0.40 1.74,0.96 2.25,-1.23 2.22,-1.21 7.28,-2.97 10.45,-3.65 3.62,0.77 4.87,0.85 16.03,-1.01 15.07,1.05 28.58,-6.32 28.81,-22.05 0.19,-13.49 0.20,-69.29 0.02,-85.57 C 171.84,25.96 162.59,16.04 149.68,16.04 H 96.01 45.05 C 32.71,15.42 22.64,22.34 20.34,34.07 Z"/>
  <path style="filter:url(#filter2829);opacity:0.20;fill:#000000" d="m 100.79,55.01 c -36.42,0.05 -39.15,0.08 -40.10,0.41 -2.17,0.76 -4.64,2.52 -5.58,3.99 C 53.10,62.56 53,63.09 53,70.56 c 0,5.75 0.03,6.23 0.36,6.32 0.20,0.05 15.57,0.08 34.16,0.05 l 25.66,0.04 c 3.36,0.00 6.86,0.47 10.09,0.55 1.07,0.29 2.36,0.71 2.87,0.92 6.12,-2.53 10.53,-7.15 12.67,-13.29 0.62,-1.77 1.32,-5.66 1.17,-6.46 0.04,0.23 0.09,0.48 0.10,0.57 0.01,0.09 -17.60,0.13 -39.10,0.10 z M 87.80,91 c 0.58,0.01 -1.16,0.03 -1.76,0.07 l -14.06,0.00 -18.92,0.00 0.05,6.30 c 0.06,7.08 0.05,7.88 1.50,10.37 1.37,2.35 4.50,4.62 6.94,5.04 0.56,0.10 11.49,0.19 24.28,0.20 L 109,113 v -1.43 c 0,-2.01 -1.00,-5.86 -2.12,-8.21 -1.03,-2.14 -2.86,-4.75 -4.34,-6.19 C 99.96,94.67 96.44,92.65 92.90,91.64 91.20,91.16 89.53,90.98 87.80,91 Z"/>
  <path style="fill:#ffffff" d="M 100.79 53.01 C 64.37 53.06 61.64 53.09 60.68 53.42 C 58.51 54.18 56.05 55.94 55.11 57.42 C 53.10 60.56 53 61.09 53 68.56 C 53 74.31 53.03 74.79 53.36 74.88 C 53.56 74.93 68.93 74.96 87.52 74.93 L 113.18 74.89 C 116.54 74.89 120.04 75.36 123.27 74.35 C 124.34 74.05 125.63 73.64 126.14 73.43 C 132.26 70.90 136.67 66.28 138.81 60.14 C 139.43 58.36 140.13 54.48 139.98 53.68 C 139.93 53.45 139.89 53.20 139.88 53.11 C 139.87 53.02 122.28 52.98 100.79 53.01 z M 87.80 89 C 87.22 89.01 86.64 89.03 86.04 89.07 L 71.98 89.07 L 53.07 89.07 L 53.01 95.37 C 52.95 102.45 53.07 103.25 54.52 105.74 C 55.88 108.09 59.01 110.36 61.45 110.78 C 62.01 110.87 72.94 110.96 85.74 110.98 L 109 111 L 109 109.57 C 109 107.55 108.00 103.70 106.88 101.36 C 105.85 99.22 104.02 96.61 102.53 95.17 C 99.96 92.67 96.44 90.65 92.90 89.64 C 91.20 89.16 89.53 88.98 87.80 89 z "/>
  <path style="opacity:0.20;fill:#ffffff" d="M 42.77 16.01 C 31.49 16.30 22.50 23.08 20.34 34.07 C 20.13 35.22 20.02 54.52 20.00 75.45 C 20.02 54.93 20.13 36.20 20.34 35.07 C 22.64 23.34 32.72 16.42 45.05 17.04 L 96.01 17.04 L 149.68 17.04 C 162.59 17.04 171.84 26.96 171.87 40.50 C 171.96 48.54 172.00 66.33 172.00 83.79 C 172.00 65.93 171.96 47.73 171.87 39.50 C 171.84 25.96 162.59 16.04 149.68 16.04 L 96.01 16.04 L 45.05 16.04 C 44.28 16.00 43.52 15.99 42.77 16.01 z "/>
</svg>
