<svg xmlns="http://www.w3.org/2000/svg" id="svg14" width="192" height="192" version="1"><defs><filter style="color-interpolation-filters:sRGB" id="filter850" width="1.1" height="1.1" x=".05" y=".05"><feGaussianBlur stdDeviation="3.2"/></filter><filter style="color-interpolation-filters:sRGB" id="filter878" width="1.1" height="1.1" x=".05" y=".05"><feGaussianBlur stdDeviation="2.4"/></filter></defs><rect style="filter:url(#filter850);opacity:.2;fill:#000" width="160" height="160" x="-180" y="-176" rx="80" ry="80" transform="matrix(0,-1,-1,0,0,0)"/><rect width="160" height="160" x="-176" y="-176" rx="80" ry="80" transform="matrix(0,-1,-1,0,0,0)" style="fill:#5183de"/><path style="opacity:.2;fill:#fff" d="M 96.00 16 C 51.68 16.00 16 51.68 16 96 C 16 96.12 16.01 96.23 16.01 96.34 C 16.36 52.33 51.90 17.00 96.00 17 L 96 17 C 140.11 17.00 175.65 52.34 175.99 96.36 C 175.99 96.24 176.00 96.12 176.00 96 C 176.00 51.68 140.32 16.00 96 16 L 96.00 16 z"/><path d="m 96,40 a 60,60 0 0 0 -60,60 60,60 0 0 0 60,60 60,60 0 0 0 32.38,-9.56 l -8.73,-8.73 A 48,48 0 0 1 96,148 48,48 0 0 1 48,100 48,48 0 0 1 96,52 a 48,48 0 0 1 24.64,6.88 l 8.70,-8.70 A 60,60 0 0 0 96,40 Z m 42.63,17.85 -8.46,8.46 A 48,48 0 0 1 144,100 48,48 0 0 1 129.39,134.48 l 8.45,8.45 A 60,60 0 0 0 156,100 60,60 0 0 0 138.63,57.85 Z M 81.55,76 A 5.42,5.30 0 0 0 76,81.30 V 100 118.70 a 5.42,5.30 0 0 0 8.13,4.59 l 16.59,-9.34 16.58,-9.36 a 5.42,5.30 0 0 0 0,-9.16 L 100.72,86.06 84.13,76.72 A 5.42,5.30 0 0 0 81.55,76 Z" style="filter:url(#filter878);opacity:.2"/><path d="m 96,36 a 60,60 0 0 0 -60,60 60,60 0 0 0 60,60 60,60 0 0 0 32.38,-9.56 l -8.73,-8.73 A 48,48 0 0 1 96,144 48,48 0 0 1 48,96 48,48 0 0 1 96,48 a 48,48 0 0 1 24.64,6.88 l 8.70,-8.70 A 60,60 0 0 0 96,36 Z m 42.63,17.85 -8.46,8.46 A 48,48 0 0 1 144,96 48,48 0 0 1 129.39,130.48 l 8.45,8.45 A 60,60 0 0 0 156,96 60,60 0 0 0 138.63,53.85 Z M 81.55,72 A 5.42,5.30 0 0 0 76,77.30 V 96 114.70 a 5.42,5.30 0 0 0 8.13,4.59 l 16.59,-9.34 16.58,-9.36 a 5.42,5.30 0 0 0 0,-9.16 L 100.72,82.06 84.13,72.72 A 5.42,5.30 0 0 0 81.55,72 Z" style="fill:#fff"/></svg>