<?xml version='1.0' encoding='utf-8'?>
<svg xmlns="http://www.w3.org/2000/svg" width="192" height="192" version="1" id="svg28">
  <defs>
    <filter style="color-interpolation-filters:sRGB" id="filter5640" x="0.05" y="0.05" width="1.10" height="1.10">
      <feGaussianBlur stdDeviation="3.21"/>
    </filter>
    <filter style="color-interpolation-filters:sRGB" id="filter5682" x="0.09" y="0.14" width="1.17" height="1.29">
      <feGaussianBlur stdDeviation="3.11"/>
    </filter>
  </defs>
  <path style="filter:url(#filter5640);opacity:0.20;fill:#000000" d="m 96,20 a 80,80 0 0 0 -80,80 80,80 0 0 0 16.50,48.32 l -7.29,26.76 29.05,-6.96 A 80,80 0 0 0 96,180 80,80 0 0 0 176,100 80,80 0 0 0 96,20 Z"/>
  <path style="fill:#008cff" d="M 96 16 A 80 80 0 0 0 16 96 A 80 80 0 0 0 32.50 144.32 L 25.21 171.08 L 54.26 164.13 A 80 80 0 0 0 96 176 A 80 80 0 0 0 176 96 A 80 80 0 0 0 96 16 z "/>
  <path style="filter:url(#filter5682);opacity:0.20;fill:#000000" d="m 67,72 c -7.76,0 -14,6.24 -14,14 v 24 c 0,7.76 6.24,14 14,14 h 34 c 7.76,0 14,-6.24 14,-14 V 86 c 0,-7.76 -6.24,-14 -14,-14 z m 68.74,9 a 3.26,4.76 0 0 0 -1.63,0.64 l -7.24,6.12 -7.25,6.12 a 3.26,4.76 0 0 0 0,8.25 l 7.25,6.12 7.24,6.12 A 3.26,4.76 0 0 0 139,110.24 V 98 85.76 A 3.26,4.76 0 0 0 135.74,81 Z"/>
  <path style="fill:#ffffff" d="M 67 70 C 59.24 70 53 76.24 53 84 L 53 108 C 53 115.76 59.24 122 67 122 L 101 122 C 108.76 122 115 115.76 115 108 L 115 84 C 115 76.24 108.76 70 101 70 L 67 70 z M 135.74 79 A 3.26 4.76 0 0 0 134.12 79.64 L 126.87 85.76 L 119.63 91.88 A 3.26 4.76 0 0 0 119.63 100.12 L 126.87 106.24 L 134.12 112.36 A 3.26 4.76 0 0 0 139 108.24 L 139 96 L 139 83.76 A 3.26 4.76 0 0 0 135.74 79 z "/>
  <path style="opacity:0.20;fill:#ffffff" d="M 96 16 A 80 80 0 0 0 16 96 A 80 80 0 0 0 16.04 96.51 A 80 80 0 0 1 96 17 A 80 80 0 0 1 175.98 96.25 A 80 80 0 0 0 176 96 A 80 80 0 0 0 96 16 z M 32.30 145.04 L 25.21 171.08 L 25.50 171.01 L 32.50 145.32 A 80 80 0 0 1 32.30 145.04 z "/>
</svg>
