<?xml version='1.0' encoding='utf-8'?>
<svg xmlns="http://www.w3.org/2000/svg" width="192" height="192" version="1" id="svg16">
  <defs>
    <filter style="color-interpolation-filters:sRGB" id="filter34366" x="0.04" y="0.06" width="1.08" height="1.12">
      <feGaussianBlur stdDeviation="1.98"/>
    </filter>
    <filter style="color-interpolation-filters:sRGB" id="filter34408" x="0.04" y="0.07" width="1.07" height="1.14">
      <feGaussianBlur stdDeviation="2.48"/>
    </filter>
    <filter style="color-interpolation-filters:sRGB" id="filter34450" x="0.04" y="0.06" width="1.08" height="1.12">
      <feGaussianBlur stdDeviation="2.67"/>
    </filter>
    <filter style="color-interpolation-filters:sRGB" id="filter34636" x="0.13" y="0.05" width="1.27" height="1.10">
      <feGaussianBlur stdDeviation="2.50"/>
    </filter>
  </defs>
  <path style="filter:url(#filter34408);opacity:0.20;fill:#000000" d="M 176,121.17 C 176,145.38 140.18,165 96,165 51.82,165 16.00,145.38 16,121.17 16,115.32 26.92,109.72 30.72,104.61 42.63,88.61 62.50,77.35 96,77.35 c 34.51,0 54.09,11.97 65.32,28.74 C 164.46,110.80 176,115.88 176,121.17 Z"/>
  <path style="fill:#b82526" d="M 176,117.17 C 176,141.38 140.18,161 96,161 51.82,161 16.00,141.38 16,117.17 16,111.32 26.92,105.72 30.72,100.61 42.63,84.61 62.50,73.35 96,73.35 c 34.51,0 54.09,11.97 65.32,28.74 C 164.46,106.80 176,111.88 176,117.17 Z"/>
  <ellipse style="filter:url(#filter34366);opacity:0.20;fill:#000000" cx="96" cy="128.15" rx="58" ry="40.85"/>
  <ellipse style="fill:#df9434" cx="96" cy="125.15" rx="58" ry="40.85"/>
  <path style="fill:#af5d24" d="m 146.11,104.02 c -4.71,19.08 -13.65,13.57 -23.08,12.31 7.64,8.39 8.75,19.98 8.97,32.30 11.89,-7.32 17.15,-21.03 14.11,-44.61 z"/>
  <path style="fill:#af5d24" d="m 45.89,104.02 c 4.71,19.08 13.65,13.57 23.08,12.31 -7.64,8.39 -8.75,19.98 -8.97,32.30 -11.89,-7.32 -17.15,-21.03 -14.11,-44.61 z"/>
  <path style="filter:url(#filter34450);opacity:0.20;fill:#000000" d="M 96.00,22.00 C 31.12,21.74 29.50,60.16 25.26,90.93 23.53,103.47 15.17,113.48 16.07,120.93 c 0.53,4.41 1.20,7.41 1.63,8.40 27.75,-14.88 52.84,-18.34 78.30,-18.34 25.46,0 50.55,3.46 78.30,18.34 0.43,0.99 1.10,-4.00 1.63,-8.40 0.89,-7.46 -7.46,-17.46 -9.19,-30.00 -4.24,-30.77 -5.86,-69.19 -70.74,-68.93 z"/>
  <path style="fill:#d73b3c" d="M 96.00,19 C 31.12,18.74 29.50,57.16 25.26,87.93 23.53,100.47 15.17,110.48 16.07,117.93 c 0.53,4.41 1.20,7.41 1.63,8.40 C 45.45,111.46 70.54,108 96.00,108 c 25.46,0 50.55,3.46 78.30,18.34 0.43,0.99 1.10,-4.00 1.63,-8.40 0.89,-7.46 -7.46,-17.46 -9.19,-30.00 C 162.50,57.16 160.88,18.74 96.00,19 Z"/>
  <path style="filter:url(#filter34636);opacity:0.20;fill:#000000" d="M 96,34.51 73.63,74.56 82.37,79.44 96,55.02 l 13.63,24.42 8.73,-4.88 z m 19.13,91.60 c -5.53,4.72 -9.81,7.64 -15.85,7.00 l -22.79,-2.68 2.65,7.68 6.20,2.90 -6.94,-1.48 -1.28,2.42 c 0,0 9.07,7.98 19.01,8.12 15.69,0.22 19.52,-10.72 19.52,-10.72 l -5.49,1.98 6.68,-4.33 z"/>
  <path style="fill:#ffffff" d="m 76.50,128.42 22.79,2.68 c 6.04,0.64 10.31,-2.28 15.85,-7.00 l 1.72,10.89 -6.68,4.33 5.49,-1.98 c 0,0 -3.83,10.95 -19.52,10.72 -9.94,0.14 -19.01,-8.12 -19.01,-8.12 l 1.28,-2.42 6.94,1.48 -6.20,-2.90 z"/>
  <path style="fill:#ffef29;color:#000000" d="M 96,32.51 73.63,72.56 82.37,77.44 96,53.02 109.63,77.44 l 8.73,-4.88 z"/>
  <path style="opacity:0.20;fill:#ffffff" d="M 96 19 C 31.12 18.74 29.50 57.16 25.26 87.93 C 23.58 100.05 15.75 109.80 16.03 117.17 C 16.43 109.93 23.66 100.51 25.26 88.93 C 29.50 58.16 31.12 19.74 96 20 C 160.88 19.74 162.50 58.16 166.74 88.93 C 168.34 100.51 175.57 109.93 175.97 117.17 C 176.25 109.80 168.42 100.05 166.74 87.93 C 162.50 57.16 160.88 18.74 96 19 z "/>
</svg>
