<?xml version='1.0' encoding='utf-8'?>
<svg xmlns="http://www.w3.org/2000/svg" width="192" height="192" version="1.1" id="svg64">
  <defs>
    <filter style="color-interpolation-filters:sRGB" id="filter949" x="-0.055427886" y="-0.042327675" width="1.1108558" height="1.0846554">
      <feGaussianBlur stdDeviation="1.200937"/>
    </filter>
    <filter style="color-interpolation-filters:sRGB" id="filter953" x="-0.051712814" y="-0.044784612" width="1.1034256" height="1.0895692">
      <feGaussianBlur stdDeviation="2.0685114"/>
    </filter>
    <filter style="color-interpolation-filters:sRGB" id="filter957" x="-0.051712817" y="-0.04478461" width="1.1034256" height="1.0895692">
      <feGaussianBlur stdDeviation="1.7237596"/>
    </filter>
    <filter style="color-interpolation-filters:sRGB" id="filter961" x="-0.035999999" y="-0.072000009" width="1.072" height="1.144">
      <feGaussianBlur stdDeviation="0.71999966"/>
    </filter>
    <filter style="color-interpolation-filters:sRGB" id="filter965" x="-0.051712813" y="-0.04478461" width="1.1034256" height="1.0895692">
      <feGaussianBlur stdDeviation="0.68950385"/>
    </filter>
  </defs>
  <path style="filter:url(#filter949);opacity:0.2" d="m 101.99997,114.14403 -8.000001,4.61719 v 26.03905 9.00781 l 8.000001,4.62499 7.99999,4.61719 8,-4.61719 v -9.0078 l -8,-4.625 v -26.03905 z m -27.999992,19.1875 -7.999996,4.61718 v 26.03905 9.00781 l 7.999996,4.62499 7.999997,4.61719 7.999996,-4.61719 v -9.0078 l -7.999996,-4.625 v -26.03905 z"/>
  <path style="fill:#ba2c00" d="m 101.99997,137.18517 -8.000001,4.61719 v 9.00547 l 8.000001,4.625 7.99999,4.61718 8,-4.61718 v -9.00548 l -8,-4.62499 z"/>
  <path style="fill:#ff7900" d="m 101.99997,137.18283 -8.000001,4.61719 8.000001,4.625 7.99999,4.61718 8,-4.61718 -8,-4.625 z"/>
  <path style="fill:#ff4200" d="m 101.99997,111.14482 7.99999,4.6188 v 26.03873 l -7.99999,4.6188 -8.000001,-4.6188 v -26.03873 z"/>
  <path style="fill:#ff4200" d="m 109.99996,160.05001 8,-4.61718 v -9.00781 l -8,4.61718 z"/>
  <path style="fill:#ba2c00" d="m 101.99997,111.14482 v 35.27633 l -8.000001,-4.6188 v -26.03873 z"/>
  <path style="fill:#ba2c00" d="m 73.999978,156.37297 -7.999996,4.61719 v 9.00547 l 7.999996,4.625 7.999997,4.61718 7.999996,-4.61718 v -9.00547 l -7.999996,-4.625 z"/>
  <path style="fill:#ff4200" d="m 81.999975,179.23781 7.999996,-4.61718 v -9.00781 l -7.999996,4.61719 z"/>
  <path style="fill:#ff7900" d="m 73.999978,156.37064 -7.999996,4.61718 7.999996,4.625 7.999997,4.61719 7.999996,-4.61719 -7.999996,-4.625 z"/>
  <path style="fill:#ff4200" d="m 73.999978,130.33263 7.999997,4.61879 v 26.03873 l -7.999997,4.61881 -7.999996,-4.61881 v -26.03873 z"/>
  <path style="fill:#ba2c00" d="m 73.999978,130.33263 v 35.27633 l -7.999996,-4.61881 v -26.03873 z"/>
  <path style="filter:url(#filter953);opacity:0.2" d="m 77.999977,41.29882 47.999973,27.712798 v 55.425602 l -47.999973,27.71279 -47.999978,-27.71279 2e-6,-55.425602 z"/>
  <path style="fill:#ffce00" d="M 77.999977,37.298822 125.99995,65.01162 v 55.4256 l -47.999973,27.7128 -47.999978,-27.7128 2e-6,-55.4256 z"/>
  <path style="fill:#ff6700" d="m 29.999999,65.008452 v 55.429658 l 47.999978,27.71093 V 92.727187 Z"/>
  <path style="filter:url(#filter957);opacity:0.2" d="m 105.99996,19.76598 39.99998,23.094 v 46.187998 l -39.99998,23.094002 -39.999978,-23.094006 4e-6,-46.187998 z"/>
  <path style="fill:#ffc200" d="M 77.999977,37.297522 29.999999,65.008452 77.999977,92.727187 125.99995,65.008452 Z"/>
  <path style="filter:url(#filter965);opacity:0.2" d="m 45.999992,20.891791 15.999992,9.2376 v 18.4752 l -15.999992,9.2376 -15.999993,-9.2376 1e-6,-18.4752 z"/>
  <path style="fill:#ff9e02" d="m 45.999992,18.89197 15.999992,9.2376 V 46.604769 L 45.999992,55.842368 29.999999,46.604769 30,28.129569 Z"/>
  <path style="fill:#ff9e02" d="m 105.99996,16.764274 39.99998,23.094 V 86.04627 l -39.99998,23.094 -39.999978,-23.094 4e-6,-46.187999 z"/>
  <path style="filter:url(#filter961);opacity:0.2" d="m 137.99995,88.730014 -23.99999,3.999998 v 7.999998 l 23.99999,11.99999 23.99999,-11.99999 v -7.999998 z"/>
  <path style="fill:#ba2c00" d="m 137.99998,86.730043 v 23.999987 l -23.99999,-11.999992 -4e-5,-7.999997 z"/>
  <path style="fill:#ff7900" d="M 137.99998,86.730042 V 110.73003 L 161.99996,98.730036 162,90.73004 Z"/>
  <rect style="fill:#ff4200" width="26.831987" height="26.831987" x="165.17422" y="10.890351" transform="matrix(0.8944272,0.44721359,-0.8944272,0.44721359,0,0)"/>
  <path style="fill:#3f3f3f" d="m 113.99996,73.930052 8,-4.799998 v 10.799995 l -8,4.799998 z"/>
  <path style="fill:#ff6700" d="M 65.999982,39.855068 V 86.042546 L 105.99996,109.1441 V 62.948809 Z"/>
  <path style="fill:#ffc200" d="M 105.99996,16.761329 65.999982,39.855068 105.99996,62.948809 145.99994,39.855068 Z"/>
  <path style="fill:#3f3f3f" d="m 129.99995,64.942056 8,-4.799998 v 10.799995 l -8,4.799998 z"/>
  <path style="fill:#ff6700" d="m 29.999999,28.128511 v 18.476554 l 15.999993,9.234371 c 0,0.0029 0,-18.468742 0,-18.468742 z"/>
  <path style="fill:#ffc200" d="m 45.999992,18.89414 -15.999993,9.234371 15.999993,9.242183 15.999992,-9.242183 z"/>
  <path style="opacity:0.2;fill:#ffffff" d="M 106 16.761719 L 66 39.855469 L 66.865234 40.355469 L 106 17.761719 L 145.13477 40.355469 L 146 39.855469 L 106 16.761719 z "/>
  <path style="opacity:0.2;fill:#ffffff" d="M 46 18.894531 L 30 28.128906 L 30.865234 28.628906 L 46 19.894531 L 61.134766 28.628906 L 62 28.128906 L 46 18.894531 z "/>
</svg>
