<?xml version='1.0' encoding='utf-8'?>
<svg xmlns="http://www.w3.org/2000/svg" width="192" height="192" version="1.1" id="svg16">
  <defs>
    <filter style="color-interpolation-filters:sRGB" id="filter869" x="-0.048000001" y="-0.048000001" width="1.096" height="1.096">
      <feGaussianBlur stdDeviation="3.2"/>
    </filter>
  </defs>
  <path style="filter:url(#filter869);opacity:0.2" d="M 96,20 A 28,28 0 0 0 68,48 28,28 0 0 0 96,76 28,28 0 0 0 124,48 28,28 0 0 0 96,20 Z M 44,72 A 28,28 0 0 0 16,100 28,28 0 0 0 44,128 28,28 0 0 0 72,100 28,28 0 0 0 44,72 Z m 104,0 a 28,28 0 0 0 -28,28 28,28 0 0 0 28,28 28,28 0 0 0 28,-28 28,28 0 0 0 -28,-28 z m -52,52 a 28,28 0 0 0 -28,28 28,28 0 0 0 28,28 28,28 0 0 0 28,-28 28,28 0 0 0 -28,-28 z"/>
  <path style="fill:#8685b9" d="M 124,44 A 28,28 0 0 1 96,72 28,28 0 0 1 68,44 28,28 0 0 1 96,16 28,28 0 0 1 124,44 Z"/>
  <path style="fill:#6560e0" d="m 124,148 a 28,28 0 0 1 -28,28 28,28 0 0 1 -28,-28 28,28 0 0 1 28,-28 28,28 0 0 1 28,28 z"/>
  <path style="fill:#6560e0" d="m 148,124 a 28,28 0 0 1 -28,-28 28,28 0 0 1 28,-28 28,28 0 0 1 28,28 28,28 0 0 1 -28,28 z"/>
  <path style="fill:#8685b9" d="M 44,124 A 28,28 0 0 1 16,96 28,28 0 0 1 44,68 28,28 0 0 1 72,96 28,28 0 0 1 44,124 Z"/>
  <path style="opacity:0.1;fill:#ffffff" d="M 148 68 A 28 28 0 0 0 120 96 A 28 28 0 0 0 120.0332 96.658203 A 28 28 0 0 1 148 69 A 28 28 0 0 1 175.98047 96.433594 A 28 28 0 0 0 176 96 A 28 28 0 0 0 148 68 z M 96 120 A 28 28 0 0 0 68 148 A 28 28 0 0 0 68.033203 148.6582 A 28 28 0 0 1 96 121 A 28 28 0 0 1 123.98047 148.43359 A 28 28 0 0 0 124 148 A 28 28 0 0 0 96 120 z "/>
  <path style="opacity:0.2;fill:#ffffff" d="M 96 16 A 28 28 0 0 0 68 44 A 28 28 0 0 0 68.033203 44.658203 A 28 28 0 0 1 96 17 A 28 28 0 0 1 123.98047 44.433594 A 28 28 0 0 0 124 44 A 28 28 0 0 0 96 16 z M 44 68 A 28 28 0 0 0 16 96 A 28 28 0 0 0 16.033203 96.658203 A 28 28 0 0 1 44 69 A 28 28 0 0 1 71.980469 96.433594 A 28 28 0 0 0 72 96 A 28 28 0 0 0 44 68 z "/>
</svg>
