<?xml version='1.0' encoding='utf-8'?>
<svg xmlns="http://www.w3.org/2000/svg" width="192" height="192" version="1.1" id="svg26">
  <defs>
    <filter style="color-interpolation-filters:sRGB" id="filter858" x="0.05" y="0.05" width="1.10" height="1.09">
      <feGaussianBlur stdDeviation="3.02"/>
    </filter>
    <filter style="color-interpolation-filters:sRGB" id="filter862" x="0.05" y="0.04" width="1.11" height="1.09">
      <feGaussianBlur stdDeviation="0.22"/>
    </filter>
  </defs>
  <path d="m 96.43,20.00 c -3.35,0.08 -6.66,0.75 -9.56,2.42 L 33.13,53.33 c -5.65,3.25 -9.13,9.26 -9.13,15.76 v 61.81 c 0.00,4.51 1.71,8.76 4.62,12.04 a 18.26,18.19 0 0 0 0.34,0.40 c 0.30,0.32 0.62,0.62 0.94,0.91 a 18.26,18.19 0 0 0 0.62,0.55 c 0.30,0.25 0.59,0.50 0.91,0.73 a 18.26,18.19 0 0 0 1.70,1.13 l 53.73,30.91 a 18.26,18.19 0 0 0 18.27,0 l 53.73,-30.91 A 18.26,18.19 0 0 0 168,130.90 V 69.09 a 18.26,18.19 0 0 0 0.15,-2.16 c 0.03,0.23 0.06,0.46 0.10,0.69 a 18.26,18.19 0 0 0 0.27,-1.37 c 0.07,0.31 0.15,0.62 0.24,0.92 a 18.26,18.19 0 0 0 0.34,-1.01 C 166.76,62.59 166.65,62.24 166.50,61.90 a 18.26,18.19 0 0 0 0.06,0.14 l 0.01,0.01 c -1.54,-3.48 -4.15,-6.46 -7.56,-8.43 L 105.13,22.43 c -2.65,-1.52 -5.64,-2.35 -8.70,-2.42 z" style="filter:url(#filter858);opacity:0.20"/>
  <path d="m 96.31,16.01 c 0.22,0.00 0.45,0.03 0.67,0.03 v 0.05 c -3.08,0.06 -6.09,0.81 -8.77,2.34 L 33.12,49.34 C 30.23,51.01 27.92,53.39 26.34,56.20 L 59.81,75.33 96,96.00 v 0.45 l 36.19,-19.89 33.41,-19.42 c -1.58,-2.81 -3.84,-5.23 -6.73,-6.89 L 105.14,18.44 c -2.65,-1.52 -5.64,-2.35 -8.70,-2.42 0.03,0.00 0.05,0.00 0.08,0 0.02,0.00 0.03,0.00 0.05,0 z" style="fill:#8d7cae"/>
  <path d="m 26.72,55.59 c -1.74,2.82 -2.72,6.08 -2.72,9.50 v 61.81 c 0.00,3.17 0.94,6.16 2.45,8.83 l 0.05,0.03 c 0.04,0.08 0.11,0.14 0.16,0.22 0.08,0.13 0.11,0.29 0.19,0.42 l 0.08,0.05 c 0.55,0.90 1.09,1.80 1.80,2.59 a 18.26,18.19 0 0 0 0.34,0.39 c 0.30,0.32 0.62,0.63 0.94,0.92 a 18.26,18.19 0 0 0 0.62,0.55 c 0.30,0.25 0.59,0.49 0.91,0.72 a 18.26,18.19 0 0 0 1.70,1.13 l 53.73,30.91 a 18.26,18.19 0 0 0 9.48,2.41 L 96.19,137.69 96,96.00 60,75.00 Z" style="fill:#6e59a4"/>
  <path d="M 165.25,55.59 132,75.00 96,96.00 95.81,137.69 95.64,176.00 a 18.26,18.19 0 0 0 9.50,-2.44 L 158.88,142.66 a 18.26,18.19 0 0 0 6.41,-6.23 h 0.02 a 18.26,18.19 0 0 0 0.08,0.16 18.26,18.19 0 0 0 0.28,0.47 h 0.02 A 18.26,18.19 0 0 0 168,126.91 V 65.09 a 18.26,18.19 0 0 0 0.14,-2.16 c 0.03,0.23 0.07,0.46 0.11,0.69 a 18.26,18.19 0 0 0 0.28,-1.38 c 0.07,0.31 0.14,0.62 0.23,0.92 a 18.26,18.19 0 0 0 0.34,-1.00 c 0.13,0.35 0.24,0.70 0.39,-1.05 a 18.26,18.19 0 0 0 0.06,0.14 h 0.02 c 0.33,0.75 0.74,-1.47 -1.17,-2.17 z" style="fill:#65319e"/>
  <g transform="matrix(8.00,0,0,8.00,0.00,2.00)" style="filter:url(#filter862);opacity:0.20">
    <path d="m 12,6 5,2.90 v 5.89 L 12,18 7,14.79 V 8.90 Z"/>
  </g>
  <path style="opacity:0.20;fill:#ffffff" d="M 96.43 16.01 C 93.08 15.93 89.77 16.76 86.87 18.43 L 33.13 49.33 C 27.48 52.58 24.00 58.59 24 65.09 L 24 66.09 C 24.00 59.59 27.48 53.58 33.13 50.33 L 86.87 19.43 C 89.77 17.76 93.08 16.93 96.43 17.01 C 99.49 17.08 102.48 17.91 105.13 19.43 L 158.87 50.33 C 162.28 52.30 164.89 55.28 166.43 58.76 L 166.44 58.76 A 18.26 18.19 0 0 1 166.50 58.90 C 166.65 59.24 166.76 59.59 166.89 59.94 A 18.26 18.19 0 0 1 167.23 60.95 C 167.32 61.26 167.40 61.56 167.48 61.87 A 18.26 18.19 0 0 1 167.75 63.24 C 167.79 63.47 167.82 63.70 167.85 63.93 A 18.26 18.19 0 0 1 168 66.09 L 168 65.09 A 18.26 18.19 0 0 0 167.85 62.93 C 167.82 62.70 167.79 62.47 167.75 62.24 A 18.26 18.19 0 0 0 167.48 60.87 C 167.40 60.56 167.32 60.26 167.23 59.95 A 18.26 18.19 0 0 0 166.89 58.94 C 166.76 58.59 166.65 58.24 166.50 57.90 A 18.26 18.19 0 0 0 166.44 57.76 L 166.43 57.76 C 164.89 54.28 162.28 51.30 158.87 49.33 L 105.13 18.43 C 102.48 16.91 99.49 16.08 96.43 16.01 z "/>
  <g transform="matrix(8.00,0,0,8.00,0.00,0.00)">
    <path d="m 12,6 5,3.10 V 14.79 L 12,18 7,14.79 V 9.10 Z" style="fill:#ed75ff"/>
  </g>
  <path d="m 96,48.00 40,24.80 v 45.55 l -40,25.65 z" style="fill:#e141ff"/>
  <path d="M 96,48.00 56.00,72.80 96,96.10 136,72.80 Z" style="fill:#fca2ae"/>
</svg>
