<?xml version='1.0' encoding='utf-8'?>
<svg xmlns="http://www.w3.org/2000/svg" width="192" height="192" version="1.1" id="svg16">
  <defs>
    <filter style="color-interpolation-filters:sRGB" id="filter1374" x="0.04" y="0.05" width="1.08" height="1.10">
      <feGaussianBlur stdDeviation="2.79"/>
    </filter>
  </defs>
  <path style="filter:url(#filter1374);opacity:0.20" d="M 111.95,35.67 A 16.00,16.00 0 0 0 97.23,45.84 L 72,106.41 46.77,45.84 A 16.00,16.00 0 0 0 31.76,35.79 16.00,16.00 0 0 0 17.23,58.16 l 40.00,96.00 a 16.00,16.00 0 0 0 29.53,0 L 126.77,58.16 A 16.00,16.00 0 0 0 111.95,35.67 Z m 47.81,0.10 A 16.00,16.00 0 0 0 144,52.00 v 96 a 16.00,16.00 0 1 0 32,0 v -96 A 16.00,16.00 0 0 0 159.76,35.77 Z"/>
  <path style="fill:none;stroke:#c0562a;stroke-width:32;stroke-linecap:round;stroke-linejoin:round" d="m 32,48 40,96 v 0 0"/>
  <path style="opacity:0.10;fill:#ffffff" d="M 31.76 31.79 A 16.00 16.00 0 0 0 16.04 46.95 A 16.00 16.00 0 0 1 31.76 32.79 A 16.00 16.00 0 0 1 46.77 42.84 L 86.77 138.84 A 16.00 16.00 0 0 1 88.11 144.81 A 16.00 16.00 0 0 0 86.77 137.84 L 46.77 41.84 A 16.00 16.00 0 0 0 31.76 31.79 z "/>
  <path style="fill:none;stroke:#c0562a;stroke-width:32;stroke-linecap:round;stroke-linejoin:round" d="m 160.00,48 v 96"/>
  <path style="fill:none;stroke:#ea8c46;stroke-width:32;stroke-linecap:round;stroke-linejoin:round" d="M 112,48 72,144"/>
  <path style="opacity:0.10;fill:#ffffff" d="M 159.76 31.77 A 16.00 16.00 0 0 0 144 48 L 144 49 A 16.00 16.00 0 0 1 159.76 32.77 A 16.00 16.00 0 0 1 176 49 L 176 48 A 16.00 16.00 0 0 0 159.76 31.77 z "/>
  <path style="opacity:0.20;fill:#ffffff" d="M 111.77 31.79 A 16.00 16.00 0 0 0 97.23 41.84 L 57.23 137.84 A 16.00 16.00 0 0 0 55.93 144.22 A 16.00 16.00 0 0 1 57.23 138.84 L 97.23 42.84 A 16.00 16.00 0 0 1 111.77 32.79 A 16.00 16.00 0 0 1 128.05 48.46 A 16.00 16.00 0 0 0 111.77 31.79 z "/>
</svg>
