<svg xmlns="http://www.w3.org/2000/svg" id="svg28" width="192" height="192" version="1"><defs><filter style="color-interpolation-filters:sRGB" id="filter3065" width="1.13" height="1.13" x=".06" y=".06"><feGaussianBlur stdDeviation="3.36"/></filter><filter style="color-interpolation-filters:sRGB" id="filter3107" width="1.2" height="1.12" x=".1" y=".06"><feGaussianBlur stdDeviation="3.32"/></filter></defs><rect width="124.24" height="124.24" x="-64.95" y="-200.71" rx="9.32" ry="9.32" transform="matrix(0.71,0.71,0.71,0.71,0,0)" style="filter:url(#filter3065);opacity:.2;fill:#000"/><rect width="124.24" height="124.24" x="-62.12" y="-197.88" rx="9.32" ry="9.32" transform="matrix(0.71,0.71,0.71,0.71,0,0)" style="fill:#2196f3"/><path style="filter:url(#filter3107);opacity:.2;fill:#000" d="M 64,29 V 149 H 76 V 29 Z m 17,13 v 12 h 29.33 c 4.81,0 10.55,3.33 14.92,8.72 4.37,5.39 7.01,12.52 6.76,17.83 0.61,12.85 -6.63,17.65 -13.09,20.58 -6.46,2.93 -12.95,2.87 -12.95,2.87 L 94.91,103.77 130.45,161 h 14.12 l -28.75,-46.29 c 2.52,0.59 5.21,-1.36 8.04,-2.65 9.27,-4.20 19.33,-13.98 20.12,-30.94 0.44,-9.29 -3.45,-18.57 -9.43,-25.95 C 128.58,47.78 120.13,42 110.33,42 Z"/><path style="fill:#fff" d="M 64 27 L 64 147 L 76 147 L 76 27 L 64 27 z M 81 40 L 81 52 L 110.33 52 C 115.14 52 120.87 55.33 125.24 60.72 C 129.61 66.11 132.26 73.24 132.01 78.55 C 131.40 91.40 125.38 96.20 118.91 99.13 C 112.45 102.06 105.96 102.00 105.96 102.00 L 94.91 101.77 L 130.45 159 L 144.57 159 L 115.82 112.71 C 118.34 112.12 121.03 111.34 123.87 110.06 C 133.14 105.86 143.19 96.08 143.99 79.12 C 144.43 69.82 140.55 60.54 134.56 53.16 C 128.58 45.78 120.13 40 110.33 40 L 81 40 z"/><path style="opacity:.2;fill:#fff" d="M 96 12 C 93.62 12 91.24 12.91 89.41 14.74 L 14.74 89.41 C 12.78 91.37 11.91 93.95 12.05 96.50 C 12.17 94.29 13.04 92.11 14.74 90.41 L 89.41 15.74 C 93.06 12.09 98.94 12.09 102.59 15.74 L 177.26 90.41 C 178.96 92.11 179.83 94.29 179.95 96.50 C 180.09 93.95 179.22 91.37 177.26 89.41 L 102.59 14.74 C 100.76 12.91 98.38 12 96 12 z"/></svg>