<svg xmlns="http://www.w3.org/2000/svg" id="svg18" width="192" height="192" version="1.1"><defs><filter style="color-interpolation-filters:sRGB" id="filter975" width="1.13" height="1.08" x=".06" y=".04"><feGaussianBlur stdDeviation="2.56"/></filter><filter style="color-interpolation-filters:sRGB" id="filter1017" width="1.17" height="1.07" x=".09" y=".03"><feGaussianBlur stdDeviation="1.28"/></filter><filter style="color-interpolation-filters:sRGB" id="filter1027" width="1.08" height="1.13" x=".04" y=".07"><feGaussianBlur stdDeviation=".99"/></filter></defs><rect width="36" height="92" x="38" y="62" ry="18" style="filter:url(#filter1017);opacity:.2;fill:#000"/><rect width="36" height="92" x="38" y="60" ry="18" style="fill:#b71c1c"/><path style="opacity:.1;fill:#fff" d="M 56 60 C 46.03 60 38 68.03 38 78 L 38 79 C 38 69.03 46.03 61 56 61 C 65.97 61 74 69.03 74 79 L 74 78 C 74 68.03 65.97 60 56 60 z"/><path d="m 58,120 c 0,24 8,52 8,52 0,0 0,8 16,8 20,0 24,-8 24,-8 v -8 c 0,-4 2.11,-4 4,-4 4,0 4,8 4,8 0,0 4,4 16,4 16,0 20,-8 20,-8 0,0 4,-12 4,-28 0,-26.96 -4,-52 -12,-80 C 136.51,36.77 134,20 98,20 62,24 58,40 58,120 Z" style="filter:url(#filter975);opacity:.2;fill:#000"/><path d="m 58,116 c 0,24 8,52 8,52 0,0 0,8 16,8 20,0 24,-8 24,-8 v -8 c 0,-4 2.11,-4 4,-4 4,0 4,8 4,8 0,0 4,4 16,4 16,0 20,-8 20,-8 0,0 4,-12 4,-28 0,-26.96 -4,-52 -12,-80 C 136.51,32.77 134,16 98,16 62,20 58,36 58,116 Z" style="fill:#f44336"/><path d="m 104,50 c -9.97,0 -18,8.03 -18,18 0,9.97 8.03,18 18,18 h 32 c 5.27,0 9.95,-2.28 13.23,-5.86 -1.79,-9.42 -4.10,-19.00 -6.91,-28.94 C 140.35,50.46 138.24,50 136,50 Z" style="filter:url(#filter1027);opacity:.2"/><path style="opacity:.2;fill:#fff" d="M 98 16 C 62 20 58 36 58 116 C 58 116.03 58.00 116.06 58.00 116.09 C 58.04 36.92 62.14 20.98 98 17 C 134 17 136.51 33.77 142 53 C 149.92 80.73 153.92 105.56 153.99 132.23 C 153.99 132.16 154 132.08 154 132 C 154 105.03 150 80 142 52 C 136.51 32.77 134 16 98 16 z"/><rect width="68" height="36" x="86" y="48" ry="18" style="fill:#84ddd1"/><path style="opacity:.2;fill:#fff" d="M 104 48 C 94.03 48 86 56.03 86 66 C 86 66.13 86.01 66.25 86.02 66.37 C 86.34 56.69 94.24 49 104 49 L 136 49 C 145.76 49 153.66 56.69 153.98 66.37 C 153.99 66.25 154 66.13 154 66 C 154 56.03 145.97 48 136 48 L 104 48 z"/></svg>