<?xml version='1.0' encoding='utf-8'?>
<svg xmlns="http://www.w3.org/2000/svg" width="192" height="192" version="1.1" id="svg24">
  <defs>
    <filter style="color-interpolation-filters:sRGB" id="filter987" x="0.05" y="0.05" width="1.10" height="1.10">
      <feGaussianBlur stdDeviation="3.20"/>
    </filter>
    <filter style="color-interpolation-filters:sRGB" id="filter992" x="0.03" y="0.10" width="1.06" height="1.20">
      <feGaussianBlur stdDeviation="1.64"/>
    </filter>
  </defs>
  <rect style="filter:url(#filter987);opacity:0.20;fill:#000000" width="160" height="160" x="16" y="20" rx="12" ry="12"/>
  <rect style="fill:#70c74d" width="160" height="160" x="16" y="16" rx="12" ry="12"/>
  <path style="opacity:0.20;fill:#ffffff" d="M 28 16 C 21.35 16 16 21.35 16 28 L 16 29 C 16 22.35 21.35 17 28 17 L 164 17 C 170.65 17 176 22.35 176 29 L 176 28 C 176 21.35 170.65 16 164 16 L 28 16 z "/>
  <path style="filter:url(#filter992);opacity:0.20" d="m 44,78 c 0,0 -2.83,0.06 -5.79,1.42 C 35.26,80.90 32,84.67 32,90 h 8 c 0,-4 4,-4 4,-4 0,0 4,0 4,4 0,2.11 0.56,3.29 -1.62,4.62 -1.07,1.33 -2.77,2.67 -4.77,4.17 -2,1.50 -4.29,3.16 -6.23,5.58 C 33.44,106.79 32,110.11 32,114 v 4 h 24 v -8 H 41.41 c 0.13,0.18 0.07,0.45 0.22,0.62 1.07,-1.33 2.77,-2.67 4.77,-4.17 2,-1.50 4.29,-3.16 6.23,-5.58 C 54.56,97.21 56,93.89 56,90 56,84.67 52.74,80.90 49.79,79.42 46.83,77.94 44,78 44,78 Z m 34,0 c -7.69,0 -14,6.31 -14,14 v 12 c 0,7.69 6.31,14 14,14 7.69,0 14,-6.31 14,-14 V 92 C 92,84.31 85.69,78 78,78 Z m 22,0 v 24 h 16 v 16 h 8 v -16 h 4 v -8 h -4 V 78 h -8 v 16 h -8 V 78 Z m 44,0 c -6.58,0 -12,0 -12,12 0,3.07 2.07,5.87 4,8 -1.93,2.13 -4,4.93 -4,8 0,12 5.42,12 12,12 6.58,0 12,0 12,-12 0,-3.07 -2.07,-5.87 -4,-8 1.93,-2.13 4,-4.93 4,-8 0,-12 -5.42,-12 -12,-12 z m -66,8 c 3.39,0 6,2.61 6,6 v 12 c 0,3.39 -2.61,6 -6,6 -3.39,0 -6,-2.61 -6,-6 V 92 c 0,-3.39 2.61,-6 6,-6 z m 66,0 c 2.26,0 4,1.74 4,4 0,2.26 -1.74,4 -4,4 -2.26,0 -4,-1.74 -4,-4 0,-2.26 1.74,-4 4,-4 z m 0,16 c 2.26,0 4,1.74 4,4 0,2.26 -1.74,4 -4,4 -2.26,0 -4,-1.74 -4,-4 0,-2.26 1.74,-4 4,-4 z"/>
  <path style="fill:#ffffff" d="m 144,76 c -6.58,0 -12,0 -12,12 0,3.07 2.07,5.87 4,8 -1.93,2.13 -4,4.93 -4,8 0,12 5.42,12 12,12 6.58,0 12,0 12,-12 0,-3.07 -2.07,-5.87 -4,-8 1.93,-2.13 4,-4.93 4,-8 0,-12 -5.42,-12 -12,-12 z m 0,8 c 2.26,0 4,1.74 4,4 0,2.26 -1.74,4 -4,4 -2.26,0 -4,-1.74 -4,-4 0,-2.26 1.74,-4 4,-4 z m 0,16 c 2.26,0 4,1.74 4,4 0,2.26 -1.74,4 -4,4 -2.26,0 -4,-1.74 -4,-4 0,-2.26 1.74,-4 4,-4 z"/>
  <path style="fill:#ffffff;fill-rule:evenodd" d="m 108,76 v 16 h 8 V 76 h 8 v 16 h 4 v 8 h -4 v 16 h -8 V 100 H 100 V 76 h 8 v 0"/>
  <path style="fill:#ffffff;fill-rule:evenodd" d="m 44,76.00 c 0,0 -2.83,0.06 -5.79,1.42 C 35.26,78.90 32,82.67 32,88.00 h 8 c 0,-4 4,-4 4,-4 0,0 4,0 4,4 0,2.11 0.56,3.29 -1.62,4.62 -1.07,1.33 -2.77,2.67 -4.77,4.17 -2,1.50 -4.29,3.16 -6.23,5.58 -1.93,2.42 -3.38,5.74 -3.38,9.62 v 4 h 24 v -8 H 41.41 c 0.13,0.18 0.07,0.44 0.22,0.62 1.07,-1.33 2.77,-2.67 4.77,-4.17 2,-1.50 4.29,-3.16 6.23,-5.58 1.93,-2.42 3.38,-5.74 3.38,-9.62 0,-5.33 -3.26,-9.10 -6.21,-10.58 C 46.84,75.94 44,76.00 44,76.00 Z"/>
  <path style="fill:#ffffff" d="m 78,76 c -7.69,0 -14,6.31 -14,14 v 12 c 0,7.69 6.31,14 14,14 7.69,0 14,-6.31 14,-14 V 90 C 92,82.31 85.69,76 78,76 Z m 0,8 c 3.39,0 6,2.61 6,6 v 12 c 0,3.39 -2.61,6 -6,6 -3.39,0 -6,-2.61 -6,-6 V 90 c 0,-3.39 2.61,-6 6,-6 z"/>
</svg>
