<?xml version='1.0' encoding='utf-8'?>
<svg xmlns="http://www.w3.org/2000/svg" width="192" height="192" version="1.1" id="svg12">
  <defs>
    <filter style="color-interpolation-filters:sRGB" id="filter1031" x="0.05" y="0.04" width="1.10" height="1.09">
      <feGaussianBlur stdDeviation="2.96"/>
    </filter>
    <filter style="color-interpolation-filters:sRGB" id="filter1038" x="0.09" y="0.07" width="1.17" height="1.13">
      <feGaussianBlur stdDeviation="3.54"/>
    </filter>
  </defs>
  <path d="m 36,20.00 c -4.42,0.00 -8.00,3.58 -8,8 V 148.00 c 0.00,3.27 1.99,6.22 5.03,7.43 l 60.00,24 c 1.91,0.76 4.03,0.76 5.94,0 l 60.00,-24 c 3.04,-1.21 5.03,-4.16 5.03,-7.43 V 28.00 c 0.00,-4.42 -3.58,-8.00 -8,-8 z" style="filter:url(#filter1031);opacity:0.20"/>
  <path d="m 36,16 c -4.42,0.00 -8.00,3.58 -8,8 v 120 c 0.00,3.27 1.99,6.22 5.03,7.43 l 60.00,24 c 1.91,0.76 4.03,0.76 5.94,0 l 60.00,-24 C 162.01,150.22 164.00,147.27 164,144 V 24 c 0.00,-4.42 -3.58,-8.00 -8,-8 z" style="fill:#4f4f4f"/>
  <path d="m 48,38 v 64 H 68 V 94 H 56 V 74 H 68 V 66 H 56 V 46 H 68 V 38 H 56 Z m 24,0 v 64 h 8 V 78 h 8 c 6.65,0 12,-5.35 12,-12 V 50 C 100,43.35 94.65,38 88,38 h -8 z m 32,0 v 64 h 8 V 38 Z m 20,0 c -4.43,0 -8,3.57 -8,8 v 48 c 0,4.43 3.57,8 8,8 h 12 c 4.43,0 8,-3.57 8,-8 V 78 h -8 V 89.60 C 136,91.82 133.78,94 132,94 h -4 c -2.22,0 -4,-1.78 -4,-4 V 50 c 0,-2.22 2.36,-4 4,-4 h 4 c 2.22,0 4,1.78 4,4 v 12 h 8 V 46 c 0,-4.43 -3.57,-8 -8,-8 z m -44,8 h 8 c 2.22,0 4,1.78 4,4 v 16 c 0,2.22 -1.78,4 -4,4 H 80 V 50 Z m 56.80,67.73 c -3.33,0.02 -6.80,2.10 -6.90,7.22 0.10,5.19 10.32,4.47 10.35,7.12 0.01,0.92 -1.37,1.43 -2.28,1.54 -2.10,0.25 -5.95,-2.23 -5.95,-2.23 l -2.92,3.51 c 0,0 3.57,3.00 8.65,3.02 3.36,0.02 7.73,-1.63 7.70,-6.53 0.04,-5.89 -10.25,-5.63 -10.40,-7.64 0.07,-1.01 0.98,-1.63 2.07,-1.59 1.96,0.07 5.09,1.91 5.09,1.91 l 2.45,-3.72 c 0,0 -3.17,-2.63 -7.86,-2.60 z m -79.61,0.16 c -4.94,0.09 -10.26,3.54 -10.42,10.12 0.11,4.67 4.12,9.90 9.83,9.98 5.01,0.07 8.63,-3.12 8.63,-3.12 v -8.49 h -8.34 v 3.88 l 3.42,0.30 0.15,2.53 c 0,0 -1.12,1.15 -3.12,1.19 -3.53,0.07 -5.24,-2.83 -5.36,-5.36 0.12,-2.71 1.80,-5.96 5.42,-5.94 2.42,0.01 3.96,2.21 3.96,2.21 l 3.27,-4.02 c 0,0 -3.12,-2.60 -7.45,-2.68 z M 74.26,114 65.43,134.02 71.41,134 l 1.37,-3.61 h 7.69 L 81.80,134 H 87.38 L 79.17,114 Z M 88,114 v 20 h 4.89 v -11.10 l 5.09,7.58 4.95,-7.88 L 103.27,134 H 108 v -20 h -5.06 L 97.98,121.98 93.04,114 Z m 24,0 v 20 h 14.80 v -4 H 116 v -4 l 10,0.09 V 122 h -10 v -4 h 10.80 v -4 z m -35.34,6.12 2.14,5.80 H 74.47 Z M 68,154 l 28,12 28,-12 z" style="filter:url(#filter1038);opacity:0.20"/>
  <path d="m 48,36 v 64 H 68 V 92 H 56 V 72 H 68 V 64 H 56 V 44 h 12 v -8 z m 24,0 v 64 h 8 V 76 h 8 c 6.65,0 12,-5.35 12,-12 V 48 C 100,41.35 94.65,36 88,36 h -8 z m 32,0 v 64 h 8 V 36 Z m 20,0 c -4.43,0 -8,3.57 -8,8 v 48 c 0,4.43 3.57,8 8,8 h 12 c 4.43,0 8,-3.57 8,-8 V 76 h -8 V 87.60 C 136,89.82 133.78,92 132,92 h -4 c -2.22,0 -4,-1.78 -4,-4 V 48 c 0,-2.22 2.36,-4 4,-4 h 4 c 2.22,0 4,1.78 4,4 v 12 h 8 V 44 c 0,-4.43 -3.57,-8 -8,-8 z m -44,8 h 8 c 2.22,0 4,1.78 4,4 v 16 c 0,2.22 -1.78,4 -4,4 H 80 V 48 Z m 56.80,67.73 c -3.33,0.02 -6.80,2.10 -6.90,7.22 0.10,5.19 10.32,4.47 10.35,7.12 0.01,0.92 -1.37,1.43 -2.28,1.54 -2.10,0.25 -5.95,-2.23 -5.95,-2.23 l -2.92,3.51 c 0,0 3.57,3.00 8.65,3.02 3.36,0.02 7.73,-1.63 7.70,-6.53 0.04,-5.89 -10.25,-5.63 -10.40,-7.64 0.07,-1.01 0.98,-1.63 2.07,-1.59 1.96,0.07 5.09,1.91 5.09,1.91 l 2.45,-3.72 c 0,0 -3.17,-2.63 -7.86,-2.60 z m -79.61,0.16 c -4.94,0.09 -10.26,3.54 -10.42,10.12 0.11,4.67 4.12,9.90 9.83,9.98 5.01,0.07 8.63,-3.12 8.63,-3.12 v -8.49 h -8.34 v 3.88 l 3.42,0.30 0.15,2.53 c 0,0 -1.12,1.15 -3.12,1.19 -3.53,0.07 -5.24,-2.83 -5.36,-5.36 0.12,-2.71 1.80,-5.96 5.42,-5.94 2.42,0.01 3.96,2.21 3.96,2.21 l 3.27,-4.02 c 0,0 -3.12,-2.60 -7.45,-2.68 z M 74.26,112 65.43,132.02 71.41,132 l 1.37,-3.61 h 7.69 L 81.80,132 H 87.38 L 79.17,112 Z M 88,112 v 20 h 4.89 v -11.10 l 5.09,7.58 4.95,-7.88 L 103.27,132 H 108 v -20 h -5.06 L 97.98,119.98 93.04,112 Z m 24,0 v 20 h 14.80 v -4 H 116 v -4 l 10,0.09 V 120 h -10 v -4 h 10.80 v -4 z m -35.34,6.12 2.14,5.80 H 74.47 Z M 68,152 l 28,12 28,-12 z" style="fill:#ffffff"/>
  <path style="opacity:0.10;fill:#ffffff" d="M 36 16 C 31.58 16.00 28.00 19.58 28 24 L 28 25 C 28.00 20.58 31.58 17.00 36 17 L 156 17 C 160.42 17.00 164.00 20.58 164 25 L 164 24 C 164.00 19.58 160.42 16.00 156 16 L 36 16 z "/>
</svg>
