<?xml version='1.0' encoding='utf-8'?>
<svg xmlns="http://www.w3.org/2000/svg" height="192" width="192" version="1.1" id="svg50">
  <defs>
    <filter style="color-interpolation-filters:sRGB" id="filter894" x="0.05" y="0.05" width="1.10" height="1.10">
      <feGaussianBlur stdDeviation="3.20"/>
    </filter>
    <filter style="color-interpolation-filters:sRGB" id="filter1477" x="0.05" y="0.20" width="1.09" height="1.40">
      <feGaussianBlur stdDeviation="2.74"/>
    </filter>
    <filter style="color-interpolation-filters:sRGB" id="filter1481" x="0.07" y="0.21" width="1.14" height="1.41">
      <feGaussianBlur stdDeviation="2.74"/>
    </filter>
    <filter style="color-interpolation-filters:sRGB" id="filter1485" x="0.06" y="0.08" width="1.12" height="1.16">
      <feGaussianBlur stdDeviation="2.74"/>
    </filter>
    <filter style="color-interpolation-filters:sRGB" id="filter1489" x="0.05" y="0.06" width="1.10" height="1.12">
      <feGaussianBlur stdDeviation="2.74"/>
    </filter>
    <filter style="color-interpolation-filters:sRGB" id="filter1691" x="0.06" y="0.16" width="1.12" height="1.31">
      <feGaussianBlur stdDeviation="2.08"/>
    </filter>
    <filter style="color-interpolation-filters:sRGB" id="filter1695" x="0.06" y="0.09" width="1.12" height="1.18">
      <feGaussianBlur stdDeviation="2.08"/>
    </filter>
    <filter style="color-interpolation-filters:sRGB" id="filter1699" x="0.16" y="0.07" width="1.31" height="1.14">
      <feGaussianBlur stdDeviation="2.08"/>
    </filter>
  </defs>
  <circle cx="94" cy="100" r="80" style="filter:url(#filter894);opacity:0.20"/>
  <circle cx="94" cy="96" r="80" style="fill:#426180"/>
  <path style="opacity:0.10;fill:#ffffff" d="M 94 16 A 80 80 0 0 0 14 96 A 80 80 0 0 0 14.02 96.66 A 80 80 0 0 1 94 17 A 80 80 0 0 1 173.98 96.31 A 80 80 0 0 0 174 96 A 80 80 0 0 0 94 16 z "/>
  <path style="filter:url(#filter1489);opacity:0.20" d="m 30,122 c 0,22.86 16,32 16,32 v -8 l 24,16 8,-8 c 0,0 16,-8 32,0 l 8,8 c 0,0 5.61,-4.94 8.80,-6.86 C 142,146 150,154 150,154 c 0,0 10.40,-10.29 10.40,-44.57 0,-34.29 0.80,-59.43 -66.40,-59.43 -48,0 -64,0 -64,72.00 z"/>
  <path style="fill:#4f4f4f" d="m 30,120 c 0,22.86 16,32 16,32 v -8 l 24,16 8,-8 c 0,0 16,-8 32,0 l 8,8 c 0,0 5.61,-4.94 8.80,-6.86 C 142,144 150,152 150,152 c 0,0 10.40,-10.29 10.40,-44.57 C 160.40,73.14 161.20,48 94,48 46,48 30,48 30,120 Z"/>
  <rect style="filter:url(#filter1485);opacity:0.20" rx="24" ry="24" height="80" width="112" y="66" x="38"/>
  <rect style="fill:#e4e4e4" rx="24" ry="24" height="80" width="112" y="64" x="38"/>
  <path style="filter:url(#filter1691);opacity:0.20" d="m 54,90 c -4.43,0 -8,3.57 -8,8 v 16 c 0,4.43 3.57,8 8,8 4.43,0 8,-3.57 8,-8 V 98 c 0,-4.43 -3.57,-8 -8,-8 z m 64,0 c -4.43,0 -8,3.57 -8,8 v 16 c 0,4.43 3.57,8 8,8 4.43,0 8,-3.57 8,-8 V 98 c 0,-4.43 -3.57,-8 -8,-8 z"/>
  <rect style="fill:#426180" rx="8" ry="8" height="32" width="16" y="88" x="46"/>
  <rect style="fill:#426180" rx="8" ry="8" height="32" width="16" y="88" x="110"/>
  <path style="filter:url(#filter1695);opacity:0.20" d="M 70,66.00 C 70,90 94,98 94,98 V 66.00 c 0,0 -24,-8 -24,0 z m 24,0 C 94,66.00 116.40,114 150,114 l 3.00,-30.37 C 154.08,72.65 139.00,57.55 126.80,59.84 Z"/>
  <path style="fill:#4f4f4f" d="m 70,64 c 0,24 24,32 24,32 V 64 c 0,0 -24,-8 -24,0 z m 24,0 c 0,0 22.40,48 56,48 l 3.00,-30.37 C 154.08,70.65 139.00,55.55 126.80,57.84 Z"/>
  <path style="filter:url(#filter1699);opacity:0.20" d="m 174,50 -8,32 c -8,-8 -16,-8 -16,-8 v 48 c 0,0 24,0 24,-24 l 8,-48 z"/>
  <path style="fill:#7cac5a" d="m 174,48 -8,32 c -8,-8 -16,-8 -16,-8 v 48 c 0,0 24,0 24,-24 l 8,-48 z"/>
  <path style="opacity:0.20;fill:#ffffff" d="M 174 48 L 166 80 C 158 72 150 72 150 72 L 150 73 C 150 73 158 73 166 81 L 174 49 L 181.83 49 L 182 48 L 174 48 z "/>
  <path style="filter:url(#filter1477);opacity:0.20" d="m 14,74 h 144 c 0,0 2.40,-33.14 -20,-33.14 H 59.60 C 37.20,40.86 38,66 38,66 H 14 Z"/>
  <path style="fill:#df371c" d="m 14,72 h 144 c 0,0 2.40,-33.14 -20,-33.14 H 59.60 C 37.20,38.86 38,64 38,64 H 14 Z"/>
  <path style="opacity:0.20;fill:#ffffff" d="M 59.59 38.86 C 37.19 38.86 38 64 38 64 L 14 64 L 14 65 L 38 65 C 38 65 37.19 39.86 59.59 39.86 L 138 39.86 C 155.90 39.86 157.95 60.27 158.05 68.57 C 158.11 61.19 156.77 38.86 138 38.86 L 59.59 38.86 z "/>
  <path style="filter:url(#filter1481);opacity:0.20" d="m 38,66 h 96 V 42 c 0,0 0,-8 -8,-8 H 46 c -8,0 -8,8 -8,8 z"/>
  <path style="fill:#cccccc" d="m 38,64 h 96 V 40 c 0,0 0,-8 -8,-8 H 46 c -8,0 -8,8 -8,8 z"/>
  <circle r="8" style="fill:#999999" cx="54" cy="48"/>
  <circle r="8" style="fill:#999999" cx="118" cy="48"/>
  <path style="opacity:0.20;fill:#ffffff" d="M 46 32 C 38 32 38 40 38 40 L 38 41 C 38 41 38 33 46 33 L 126 33 C 134 33 134 41 134 41 L 134 40 C 134 40 134 32 126 32 L 46 32 z "/>
</svg>
