<?xml version='1.0' encoding='utf-8'?>
<svg xmlns="http://www.w3.org/2000/svg" width="192" height="192" version="1" id="svg12">
  <defs>
    <filter style="color-interpolation-filters:sRGB" id="filter856" x="-0.059555621" width="1.1191112" y="-0.040199972" height="1.0803999">
      <feGaussianBlur stdDeviation="2.6799981"/>
    </filter>
    <filter style="color-interpolation-filters:sRGB" id="filter876" x="-0.069176915" width="1.1383538" y="-0.036749877" height="1.0734998">
      <feGaussianBlur stdDeviation="1.9600125"/>
    </filter>
  </defs>
  <path style="filter:url(#filter856);opacity:0.2" d="m 141.98563,172 7.99869,-128 c 0.2764,-4.423367 -3.19256,-6.844581 -6.74805,-8 L 95.999873,20 48.763485,36 c -3.54092,1.199386 -7.024472,3.576633 -6.748055,8 l 7.998695,128 c 0.2764,4.42337 3.009632,8 6.748055,8 h 78.47539 c 3.73842,0 6.47164,-3.57663 6.74806,-8 z"/>
  <path style="fill:#ffd787" d="m 141.98563,168 7.99869,-128 c 0.2764,-4.423367 -3.19256,-6.844581 -6.74805,-8 L 95.999873,16 48.763485,32 c -3.54092,1.199386 -7.024472,3.576633 -6.748055,8 l 7.998695,128 c 0.2764,4.42337 3.009632,8 6.748055,8 h 78.47539 c 3.73842,0 6.47164,-3.57663 6.74806,-8 z"/>
  <path style="filter:url(#filter876);opacity:0.2" d="m 89.984441,41.998752 3,14 3,13.999996 3,-13.999996 2.999999,-14 h -5.999999 z m -9.5,4 -3.25,2.640624 -3.25,2.640624 6,9.359376 6,9.359372 -2.75,-11.999996 z m 30.999999,0 -2.75,12 -2.75,11.999996 6,-9.359372 6,-9.359376 -3.25,-2.640624 z M 75.984441,69.998748 c -7.731988,0 -14,9.849736 -14,22 0,12.150272 6.268012,22.000002 14,22.000002 7.731988,0 14,-9.84973 14,-22.000002 0,-12.150264 -6.268012,-22 -14,-22 z m 39.999999,0 c -7.73199,0 -14,9.849736 -14,22 0,12.150272 6.26801,22.000002 14,22.000002 7.73199,0 14,-9.84973 14,-22.000002 0,-12.150264 -6.26801,-22 -14,-22 z M 95.812565,102.00666 c -1.369372,0.0618 -2.557316,0.86797 -2.992188,2.03906 l -3.328124,9 -3.328124,8.99219 c -0.976124,2.64054 2.224264,4.95377 4.875,3.52343 4.543492,-3.09594 5.328096,-2.46227 9.890621,0 2.65074,1.43034 5.85113,-0.88289 4.875,-3.52343 l -3.32812,-8.99219 -3.328125,-9 c -0.4743,-1.27755 -1.84224,-2.10844 -3.33594,-2.03906 z M 77.984441,134 c -6.648,0 -12,5.352 -12,12 v 12 c 0,6.648 5.352,12 12,12 h 35.999999 c 6.648,0 12,-5.352 12,-12 v -12 c 0,-6.648 -5.352,-12 -12,-12 z m 0,4 v 12 h -8 v -4 c 0,-4.50119 3.498812,-8 8,-8 z m 4,0 h 12 v 12 h -12 z m 16,0 h 11.999999 v 12 H 97.984441 Z m 15.999999,0 c 4.50119,0 8,3.49881 8,8 v 4 h -8 z m -43.999999,16 h 8 v 12 c -4.501188,0 -8,-3.49881 -8,-8 z m 12,0 h 12 v 12 h -12 z m 16,0 h 11.999999 v 12 H 97.984441 Z m 15.999999,0 h 8 v 4 c 0,4.50119 -3.49881,8 -8,8 z"/>
  <path style="fill:#593333" d="m 89.984441,39.99875 3,14.000002 3,13.999996 3,-13.999996 2.999999,-14.000002 h -5.999999 z m -9.5,4.000002 -3.25,2.640624 -3.25,2.640624 6,9.359376 6,9.359372 -2.75,-11.999996 z m 30.999999,0 -2.75,12 -2.75,11.999996 6,-9.359372 6,-9.359376 -3.25,-2.640624 z M 75.984441,67.998748 c -7.731988,0 -14,9.849736 -14,22 0,12.150272 6.268012,22.000002 14,22.000002 7.731988,0 14,-9.84973 14,-22.000002 0,-12.150264 -6.268012,-22 -14,-22 z m 39.999999,0 c -7.73199,0 -14,9.849736 -14,22 0,12.150272 6.26801,22.000002 14,22.000002 7.73199,0 14,-9.84973 14,-22.000002 0,-12.150264 -6.26801,-22 -14,-22 z M 95.812565,100.00666 c -1.369372,0.0618 -2.557316,0.86797 -2.992188,2.03906 l -3.328124,9 -3.328124,8.99219 c -0.976124,2.64054 2.224264,4.95377 4.875,3.52343 4.543492,-3.09594 5.328096,-2.46227 9.890621,0 2.65074,1.43034 5.85113,-0.88289 4.875,-3.52343 l -3.32812,-8.99219 -3.328125,-9 c -0.4743,-1.27755 -1.84224,-2.108444 -3.33594,-2.03906 z M 77.984441,132 c -6.648,0 -12,5.352 -12,12 v 12 c 0,6.648 5.352,12 12,12 h 35.999999 c 6.648,0 12,-5.352 12,-12 v -12 c 0,-6.648 -5.352,-12 -12,-12 z m 0,4 v 12 h -8 v -4 c 0,-4.50119 3.498812,-8 8,-8 z m 4,0 h 12 v 12 h -12 z m 16,0 h 11.999999 v 12 H 97.984441 Z m 15.999999,0 c 4.50119,0 8,3.49881 8,8 v 4 h -8 z m -43.999999,16 h 8 v 12 c -4.501188,0 -8,-3.49881 -8,-8 z m 12,0 h 12 v 12 h -12 z m 16,0 h 11.999999 v 12 H 97.984441 Z m 15.999999,0 h 8 v 4 c 0,4.50119 -3.49881,8 -8,8 z"/>
  <path style="opacity:0.2;fill:#ffffff" d="M 96 16 L 48.763672 32 C 45.222752 33.199386 41.739209 35.576633 42.015625 40 L 42.019531 40.068359 C 42.253516 36.240072 45.481029 34.111902 48.763672 33 L 96 17 L 143.23633 33 C 146.5296 34.070208 149.74322 36.22932 149.98047 40.056641 L 149.98438 40 C 150.26077 35.576633 146.79182 33.155419 143.23633 32 L 96 16 z "/>
</svg>
