<svg xmlns="http://www.w3.org/2000/svg" id="svg20" width="192" height="192" version="1.1"><defs><filter style="color-interpolation-filters:sRGB" id="filter979" width="1.1" height="1.1" x=".05" y=".05"><feGaussianBlur stdDeviation="3.2"/></filter><filter style="color-interpolation-filters:sRGB" id="filter983" width="1.08" height="1.13" x=".04" y=".07"><feGaussianBlur stdDeviation="1.32"/></filter></defs><rect style="filter:url(#filter979);opacity:.2;fill:#000" width="160" height="160" x="16" y="20" rx="8" ry="8"/><rect style="fill:#4f4f4f" width="160" height="160" x="16" y="16" rx="8" ry="8"/><path style="opacity:.1;fill:#fff" d="M 24 16 C 19.57 16 16 19.57 16 24 L 16 25 C 16 20.57 19.57 17 24 17 L 168 17 C 172.43 17 176 20.57 176 25 L 176 24 C 176 19.57 172.43 16 168 16 L 24 16 z"/><path style="fill:#f24c3d" d="M 36,176 H 64 L 176,64 V 36 Z"/><path style="fill:#e6df15" d="M 64,176 H 92 L 176,92 V 64 Z"/><path style="fill:#66dd23" d="m 92,176 h 28 l 56,-56 V 92 Z"/><path style="fill:#24f0ff" d="m 120,176 h 28 l 28,-28 v -28 z"/><path style="filter:url(#filter983);opacity:.2" d="M 76,34 90.29,58 76.00,82 H 87.43 L 96.00,67.60 104.57,82 h 11.43 l -14.29,-24 14.28,-24 h -11.43 L 96.00,48.40 87.43,34 Z m -44,0 h 40 v 6 L 46.28,73 H 72 v 9 H 32 V 76 L 57.72,43 H 32 Z"/><path style="fill:#fff" d="M 76,32 90.28,56 76,80 h 11.43 l 8.57,-14.40 8.57,14.40 h 11.43 l -14.28,-24 14.28,-24 h -11.43 L 96.00,46.40 87.43,32 Z m -44,0 h 40 v 6 L 46.29,71 h 25.72 v 9 h -40 V 74 L 57.72,41 H 32 Z"/></svg>