<?xml version='1.0' encoding='utf-8'?>
<svg xmlns="http://www.w3.org/2000/svg" width="192" height="192" version="1" id="svg15">
  <defs>
    <filter style="color-interpolation-filters:sRGB" id="filter852" x="0.05" y="0.05" width="1.10" height="1.10">
      <feGaussianBlur stdDeviation="3.20"/>
    </filter>
    <filter style="color-interpolation-filters:sRGB" id="filter856" x="0.05" y="0.05" width="1.10" height="1.09">
      <feGaussianBlur stdDeviation="2.32"/>
    </filter>
  </defs>
  <circle style="filter:url(#filter852);opacity:0.20" cx="96" cy="100" r="80"/>
  <circle style="fill:#595f93" cx="96" cy="96" r="80"/>
  <path style="opacity:0.10;fill:#ffffff" d="M 96 16 A 80 80 0 0 0 16 96 A 80 80 0 0 0 16.02 96.64 A 80 80 0 0 1 96 17 A 80 80 0 0 1 175.98 96.30 A 80 80 0 0 0 176 96 A 80 80 0 0 0 96 16 z "/>
  <path style="filter:url(#filter856);opacity:0.20" d="m 60.74,38.01 c 0.62,0.04 -1.39,0.32 -2.49,0.86 -6.18,3.01 -13.06,11.74 -16.05,20.38 -2.66,7.70 -2.92,16.13 0.71,22.99 2.54,7.64 8.24,14.10 14.30,19.48 1.76,3.84 0.71,6.81 0.42,17.05 0.78,7.10 1.16,9.53 1.98,12.81 2.20,17.84 13.80,26.41 37.80,26.41 24.00,0.00 35.60,-8.57 37.80,-26.41 0.82,-3.28 1.20,-5.71 1.98,-12.81 1.13,-10.24 -1.34,-13.22 0.42,-17.05 6.07,-5.38 11.77,-11.85 14.31,-19.48 2.21,-6.86 1.95,-15.30 0.71,-22.99 -2.99,-8.63 -9.86,-17.37 -16.05,-20.38 -1.10,0.54 -1.87,0.82 -2.49,0.86 0.62,0.04 -1.09,0.15 -1.59,0.58 0,0 4.24,4.35 4.71,8.62 0.89,3.12 -6.87,2.62 -6.87,2.62 0,0.00 9.22,8.49 10.84,15.10 1.31,5.55 0.60,15.81 -5.55,18.38 0,0 -15.32,-5.31 -36.81,-5.31 -21.49,0 -36.81,5.31 -36.81,5.31 C 53.04,80.74 52.33,70.48 53.64,64.93 55.27,58.32 64.49,49.83 64.49,49.83 c 0,0 -5.98,0.50 -6.87,-2.62 0.47,-4.27 4.71,-8.62 4.71,-8.62 0.50,0.42 0.97,0.62 -1.59,0.58 z"/>
  <path style="fill:#ffffff" d="m 60.74,36.01 c 0.62,0.04 -1.39,0.32 -2.49,0.86 -6.18,3.01 -13.06,11.74 -16.05,20.38 -2.66,7.70 -2.92,16.13 0.71,22.99 2.54,7.64 8.24,14.10 14.30,19.48 1.76,3.84 0.71,6.81 0.42,17.05 0.78,7.10 1.16,9.53 1.98,12.81 2.20,17.84 13.80,26.41 37.80,26.41 24.00,0.00 35.60,-8.57 37.80,-26.41 0.82,-3.28 1.20,-5.71 1.98,-12.81 1.13,-10.24 -1.34,-13.22 0.42,-17.05 6.07,-5.38 11.77,-11.85 14.31,-19.48 2.21,-6.86 1.95,-15.30 0.71,-22.99 -2.99,-8.63 -9.86,-17.37 -16.05,-20.38 -1.10,0.54 -1.87,0.82 -2.49,0.86 0.62,0.04 -1.09,0.15 -1.59,0.58 0,0 4.24,4.35 4.71,8.62 0.89,3.12 -6.87,2.62 -6.87,2.62 0,0.00 9.22,8.49 10.84,15.10 1.31,5.55 0.60,15.81 -5.55,18.38 0,0 -15.32,-5.31 -36.81,-5.31 -21.49,0 -36.81,5.31 -36.81,5.31 C 53.04,78.74 52.33,68.48 53.64,62.93 55.27,56.32 64.49,47.83 64.49,47.83 c 0,0 -5.98,0.50 -6.87,-2.62 0.47,-4.27 4.71,-8.62 4.71,-8.62 0.50,0.42 0.97,0.62 -1.59,0.58 z"/>
  <ellipse style="fill:#3f3f3f" cx="161.45" cy="60.17" rx="11.56" ry="14.36" transform="matrix(0.88,0.47,0.44,0.90,0,0)"/>
  <ellipse style="fill:#3f3f3f" cx="-11.08" cy="150.56" rx="11.56" ry="14.36" transform="matrix(0.88,0.47,0.44,0.90,0,0)"/>
</svg>
