<?xml version='1.0' encoding='utf-8'?>
<svg xmlns="http://www.w3.org/2000/svg" width="192" height="192" version="1" id="svg12">
  <defs>
    <filter style="color-interpolation-filters:sRGB" id="filter858" x="0.05" width="1.10" y="0.05" height="1.10">
      <feGaussianBlur stdDeviation="3.20"/>
    </filter>
    <filter style="color-interpolation-filters:sRGB" id="filter874" x="0.05" width="1.10" y="0.05" height="1.10">
      <feGaussianBlur stdDeviation="2.24"/>
    </filter>
  </defs>
  <rect ry="8" rx="8" y="20" x="16" height="160" width="160" style="filter:url(#filter858);opacity:0.20;fill:#000000"/>
  <rect style="fill:#4f4f4f" width="160" height="160" x="16" y="16" rx="8" ry="8"/>
  <path style="opacity:0.10;fill:#ffffff" d="M 24 16 C 19.57 16 16 19.57 16 24 L 16 25 C 16 20.57 19.57 17 24 17 L 168 17 C 172.43 17 176 20.57 176 25 L 176 24 C 176 19.57 172.43 16 168 16 L 24 16 z "/>
  <path style="filter:url(#filter874);opacity:0.20" d="m 40,42 v 24 8 h 24 v -8 h 88 V 42 Z m 0,44 v 24 H 152 V 86 Z m 0,36 v 8 24 H 152 V 130 H 64 v -8 z"/>
  <path style="fill:#ffffff" d="m 40,40 v 24 8 h 24 v -8 h 88 V 40 Z m 0,44 v 24 H 152 V 84 Z m 0,36 v 8 24 H 152 V 128 H 64 v -8 z"/>
</svg>
