<svg xmlns="http://www.w3.org/2000/svg" id="svg26" width="192" height="192" version="1.1"><defs><filter style="color-interpolation-filters:sRGB" id="filter858" width="1.11" height="1.09" x=".05" y=".04"><feGaussianBlur stdDeviation="2.88"/></filter><filter style="color-interpolation-filters:sRGB" id="filter863" width="1.07" height="1.18" x=".03" y=".09"><feGaussianBlur stdDeviation=".88"/></filter></defs><path d="m 96,20 c 32,0 64,40 64,88 0,48 -31.89,72 -64,72 C 63.89,180 32,156 32,108 32,60 64,20 96,20 Z" style="filter:url(#filter858);opacity:.2"/><path d="m 96,16 c 32,0 64,40 64,88 0,48 -31.89,72 -64,72 C 63.89,176 32,152 32,104 32,56 64,16 96,16 Z" style="fill:#db8bdc"/><path style="filter:url(#filter863);opacity:.2" d="m 72,146 a 8,8 0 0 0 -8,8 8,8 0 0 0 8,8 8,8 0 0 0 8,-8 8,8 0 0 0 -8,-8 z m 48,0 a 8,8 0 0 0 -8,8 8,8 0 0 0 8,8 8,8 0 0 0 8,-8 8,8 0 0 0 -8,-8 z m -24,8 a 8,8 0 0 0 -8,8 8,8 0 0 0 8,8 8,8 0 0 0 8,-8 8,8 0 0 0 -8,-8 z"/><path d="m 96,32 c -24,0 -48,40 -48,72 0,13.32 4.19,25.22 10.78,34.61 L 64,136 l 16,8 16,-8 16,8 16,-8 5.22,2.61 C 139.81,129.22 144,117.32 144,104 144,72 120,32 96,32 Z" style="fill:#b356c3"/><rect width="64" height="64" x="64" y="56" ry="8" style="fill:#333"/><circle cx="96" cy="160" r="8" style="fill:#f9f9f9"/><circle cx="120" cy="152" r="8" style="fill:#f9f9f9"/><circle cx="72" cy="152" r="8" style="fill:#f9f9f9"/><path style="opacity:.2;fill:#fff" d="M 96 16 C 64 16 32 56 32 104 C 32 104.12 32.01 104.23 32.01 104.35 C 32.30 56.64 64.14 17 96 17 C 127.86 17 159.70 56.64 159.99 104.35 C 159.99 104.23 160 104.12 160 104 C 160 56 128 16 96 16 z"/></svg>