<?xml version='1.0' encoding='utf-8'?>
<svg xmlns="http://www.w3.org/2000/svg" width="192" height="192" version="1.1" id="svg28">
  <defs>
    <filter style="color-interpolation-filters:sRGB" id="filter877" x="0.05" y="0.05" width="1.10" height="1.10">
      <feGaussianBlur stdDeviation="3.20"/>
    </filter>
    <filter style="color-interpolation-filters:sRGB" id="filter1131" x="0.05" y="0.05" width="1.09" height="1.10">
      <feGaussianBlur stdDeviation="2.00"/>
    </filter>
  </defs>
  <path d="M 62.16,20.00 C 36.67,20.00 16,43.52 16,72.53 c 0,7.79 1.21,15.30 3.33,22.46 0,0 1.92,6.46 3.62,10.02 1.48,3.46 3.21,6.79 5.05,10.06 V 144 a 8.00,8.00 0 1 0 16,0 v -6.49 C 67.07,164.02 96.00,180 96.00,180 c 0,0 25.72,-14.18 48.00,-38.02 V 168 a 8.00,8.00 0 1 0 16,0 v -46.25 c 3.45,-5.30 6.54,-10.88 9.05,-16.74 1.70,-3.56 3.62,-10.02 3.62,-10.02 2.12,-7.16 3.33,-14.67 3.33,-22.46 0,-29.01 -20.67,-52.53 -46.16,-52.53 -13.37,0 -25.40,5.66 -33.84,16.00 C 87.57,25.66 75.53,20.00 62.16,20.00 Z" style="filter:url(#filter877);opacity:0.20"/>
  <path d="M 62.16,16.00 C 36.67,16.00 16,39.52 16,68.53 c 0,7.79 1.21,15.30 3.33,22.46 0,0 1.92,6.46 3.62,10.02 1.48,3.46 3.21,6.79 5.05,10.06 V 140 a 8.00,8.00 0 1 0 16,0 v -6.49 C 67.07,160.02 96.00,176 96.00,176 c 0,0 25.72,-14.18 48.00,-38.02 V 164 a 8.00,8.00 0 1 0 16,0 v -46.25 c 3.45,-5.30 6.54,-10.88 9.05,-16.74 1.70,-3.56 3.62,-10.02 3.62,-10.02 2.12,-7.16 3.33,-14.67 3.33,-22.46 0,-29.01 -20.67,-52.53 -46.16,-52.53 -13.37,0 -25.40,5.66 -33.84,16.00 C 87.57,21.66 75.53,16.00 62.16,16.00 Z" style="fill:#dc2c33"/>
  <path style="opacity:0.20;fill:#ffffff" d="M 62.16,16 C 36.67,16 16,39.52 16,68.53 c 0,0.09 0.01,0.18 0.01,0.26 C 16.35,40.12 36.89,17 62.16,17 75.53,17 87.57,22.66 96,33 104.43,22.66 116.47,17 129.84,17 155.11,17 175.65,40.12 175.99,68.79 175.99,68.71 176,68.62 176,68.53 176,39.52 155.33,16 129.84,16 116.47,16 104.43,21.66 96,32 87.57,21.66 75.53,16 62.16,16 Z"/>
  <path d="m 96.00,50.00 c -28.72,0 -52.00,17.91 -52.00,40.00 0.03,12.41 7.54,24.11 20.34,31.66 L 60.00,126 l 8.00,4 c 0,8 14.71,15.99 28.00,16 13.95,0.01 28.00,-8 28.00,-16 l 8,-4 -4.31,-4.31 c 12.80,-7.57 20.30,-19.27 20.31,-31.69 0,-22.09 -23.28,-40.00 -52.00,-40.00 z" style="filter:url(#filter1131);opacity:0.20"/>
  <path d="m 96.00,48.00 c -28.72,0 -52.00,17.91 -52.00,40.00 0.03,12.41 7.54,24.11 20.34,31.66 L 60.00,124 l 8.00,4 c 0,8 14.71,15.99 28.00,16 13.95,0.01 28.00,-8 28.00,-16 l 8,-4 -4.31,-4.31 c 12.80,-7.57 20.30,-19.27 20.31,-31.69 0,-22.09 -23.28,-40.00 -52.00,-40.00 z" style="fill:#ffffff"/>
  <rect x="68" y="128" width="56.00" height="4.00" style="fill:#3f3f3f"/>
  <rect x="76" y="120" width="4.00" height="16.00" style="fill:#3f3f3f"/>
  <rect x="112.00" y="120" width="4.00" height="16.00" style="fill:#3f3f3f"/>
  <rect x="92" y="120" width="4.00" height="16.00" style="fill:#3f3f3f"/>
  <path d="m 64.98,70.98 a 18.00,22.00 0 0 0 -7.56,10.44 l -5.42,-5.42 v 8 l 4.08,4.08 A 18.00,22.00 0 0 0 56.00,90.00 18.00,22.00 0 0 0 74.00,112 18.00,22.00 0 0 0 91.91,91.94 Z M 127.00,71.00 100.09,91.94 A 18.00,22.00 0 0 0 118.00,112 a 18.00,22.00 0 0 0 18,-22.00 18.00,22.00 0 0 0 0.09,-1.91 l 4.09,-4.09 v -8 l -5.45,5.45 a 18.00,22.00 0 0 0 -7.55,-10.45 z" style="fill:#3f3f3f"/>
</svg>
