<?xml version='1.0' encoding='utf-8'?>
<svg xmlns="http://www.w3.org/2000/svg" width="192" height="192" version="1.1" id="svg32">
  <defs>
    <filter style="color-interpolation-filters:sRGB" id="filter885" x="-0.048000001" y="-0.048000001" width="1.096" height="1.096">
      <feGaussianBlur stdDeviation="3.2"/>
    </filter>
    <filter style="color-interpolation-filters:sRGB" id="filter889" x="-0.062694279" y="-0.039407832" width="1.1253886" height="1.0788157">
      <feGaussianBlur stdDeviation="2.2987902"/>
    </filter>
  </defs>
  <rect style="filter:url(#filter885);opacity:0.2" width="160" height="160" x="16" y="20" rx="8" ry="8"/>
  <rect style="fill:#3f3f3f" width="160" height="160" x="16" y="16" rx="8" ry="8"/>
  <path style="filter:url(#filter889);opacity:0.2" d="M 64,30 A 12,12 0 0 0 52,42 12,12 0 0 0 60,53.296876 V 88.851564 90 146.64844 L 96,170 132,146.64844 V 90 66 53.304688 a 12,12 0 0 0 0.98438,-0.406252 12,12 0 0 0 0.125,-0.04688 12,12 0 0 0 0.0547,-0.0312 12,12 0 0 0 0.94531,-0.507812 12,12 0 0 0 0.0547,-0.0312 12,12 0 0 0 0.0236,-0.0156 12,12 0 0 0 0.82031,-0.546872 12,12 0 0 0 0.21876,-0.15624 12,12 0 0 0 0.70312,-0.578124 12,12 0 0 0 0.23436,-0.20312 12,12 0 0 0 0.64844,-0.656248 12,12 0 0 0 0.125,-0.125 12,12 0 0 0 0.0392,-0.05468 12,12 0 0 0 0.61719,-0.765624 12,12 0 0 0 0.0938,-0.10936 12,12 0 0 0 0.0392,-0.06252 12,12 0 0 0 0.42968,-0.640624 12,12 0 0 0 0.28124,-0.468752 12,12 0 0 0 0.29688,-0.570312 12,12 0 0 0 0.22656,-0.460936 12,12 0 0 0 0.2422,-0.609376 12,12 0 0 0 0.20312,-0.554688 12,12 0 0 0 0.15624,-0.570312 12,12 0 0 0 0.14844,-0.5625 12,12 0 0 0 0.10156,-0.570312 12,12 0 0 0 0.10156,-0.656248 12,12 0 0 0 0.0469,-0.562504 A 12,12 0 0 0 140,42 a 12,12 0 0 0 -0.0547,-1.054688 12,12 0 0 0 -0.0547,-0.429688 12,12 0 0 0 -0.1172,-0.796872 12,12 0 0 0 -0.0859,-0.3672 12,12 0 0 0 -0.19532,-0.781252 12,12 0 0 0 -0.1328,-0.39064 12,12 0 0 0 -0.2578,-0.726563 12,12 0 0 0 -0.20312,-0.445313 12,12 0 0 0 -0.30468,-0.625 12,12 0 0 0 -0.29688,-0.523437 12,12 0 0 0 -0.28124,-0.453125 12,12 0 0 0 -0.42187,-0.59375 12,12 0 0 0 -0.28124,-0.375 12,12 0 0 0 -0.46875,-0.53125 12,12 0 0 0 -0.3672,-0.382812 12,12 0 0 0 -0.3828,-0.367188 12,12 0 0 0 -0.53125,-0.46875 12,12 0 0 0 -0.375,-0.281248 12,12 0 0 0 -0.59375,-0.421875 12,12 0 0 0 -0.45313,-0.281252 12,12 0 0 0 -0.52343,-0.296876 12,12 0 0 0 -0.625,-0.304688 12,12 0 0 0 -0.44532,-0.203124 12,12 0 0 0 -0.72656,-0.257812 12,12 0 0 0 -0.39064,-0.132812 12,12 0 0 0 -0.78125,-0.195312 12,12 0 0 0 -0.3672,-0.08594 12,12 0 0 0 -0.79691,-0.117162 12,12 0 0 0 -0.42969,-0.05469 A 12,12 0 0 0 128,30 a 12,12 0 0 0 -1.05469,0.05469 12,12 0 0 0 -0.42969,0.05469 12,12 0 0 0 -0.79687,0.117188 12,12 0 0 0 -0.3672,0.08594 12,12 0 0 0 -0.78125,0.195312 12,12 0 0 0 -0.39064,0.132812 12,12 0 0 0 -0.72656,0.257812 12,12 0 0 0 -0.44532,0.203124 12,12 0 0 0 -0.625,0.304688 12,12 0 0 0 -0.52343,0.296876 12,12 0 0 0 -0.45313,0.281252 12,12 0 0 0 -0.59375,0.421875 12,12 0 0 0 -0.375,0.281248 12,12 0 0 0 -0.53125,0.46875 12,12 0 0 0 -0.3828,0.367188 12,12 0 0 0 -0.3672,0.382812 12,12 0 0 0 -0.46875,0.53125 12,12 0 0 0 -0.28124,0.375 12,12 0 0 0 -0.42187,0.59375 12,12 0 0 0 -0.28124,0.453125 12,12 0 0 0 -0.29688,0.523437 12,12 0 0 0 -0.30468,0.625 12,12 0 0 0 -0.20312,0.445313 12,12 0 0 0 -0.2578,0.726564 12,12 0 0 0 -0.1328,0.39064 12,12 0 0 0 -0.19532,0.781252 12,12 0 0 0 -0.0859,0.3672 12,12 0 0 0 -0.1172,0.796872 12,12 0 0 0 -0.0547,0.429688 A 12,12 0 0 0 116,42 a 12,12 0 0 0 0.0547,1.054688 12,12 0 0 0 0.0547,0.429688 12,12 0 0 0 0.1172,0.796872 12,12 0 0 0 0.0859,0.3672 12,12 0 0 0 0.19532,0.781252 12,12 0 0 0 0.1172,0.34376 12,12 0 0 0 0.31252,0.859376 12,12 0 0 0 0.0625,0.14064 12,12 0 0 0 0.45312,0.929688 12,12 0 0 0 0.0938,0.16408 12,12 0 0 0 0.54688,0.875 12,12 0 0 0 0.0547,0.08592 12,12 0 0 0 0.6875,0.89844 12,12 0 0 0 0.8125,0.875 12,12 0 0 0 0.008,0.008 12,12 0 0 0 1.85938,1.47656 12,12 0 0 0 0.0547,0.0312 12,12 0 0 0 0.99218,0.5625 12,12 0 0 0 0.0236,0.0156 12,12 0 0 0 1.07813,0.476564 A 12,12 0 0 0 124,53.296876 V 66 H 100 V 53.304688 a 12,12 0 0 0 0.98438,-0.406252 12,12 0 0 0 0.125,-0.04688 12,12 0 0 0 0.0547,-0.0312 12,12 0 0 0 0.94531,-0.507812 12,12 0 0 0 0.0547,-0.0312 12,12 0 0 0 0.0236,-0.0156 12,12 0 0 0 0.82031,-0.546872 12,12 0 0 0 0.21876,-0.15624 12,12 0 0 0 0.70312,-0.578124 12,12 0 0 0 0.23436,-0.20312 12,12 0 0 0 0.64844,-0.656248 12,12 0 0 0 0.125,-0.125 12,12 0 0 0 0.0392,-0.05468 12,12 0 0 0 0.61719,-0.765624 12,12 0 0 0 0.0938,-0.10936 12,12 0 0 0 0.0392,-0.06252 12,12 0 0 0 0.42968,-0.640624 12,12 0 0 0 0.28124,-0.468752 12,12 0 0 0 0.29688,-0.570312 12,12 0 0 0 0.22656,-0.460936 12,12 0 0 0 0.2422,-0.609376 12,12 0 0 0 0.20312,-0.554688 12,12 0 0 0 0.15624,-0.570312 12,12 0 0 0 0.14844,-0.5625 12,12 0 0 0 0.10156,-0.570312 12,12 0 0 0 0.10156,-0.656248 12,12 0 0 0 0.0469,-0.562504 A 12,12 0 0 0 108,42 a 12,12 0 0 0 -0.0547,-1.054688 12,12 0 0 0 -0.0547,-0.429688 12,12 0 0 0 -0.1172,-0.796872 12,12 0 0 0 -0.0859,-0.3672 12,12 0 0 0 -0.19532,-0.781252 12,12 0 0 0 -0.1328,-0.39064 12,12 0 0 0 -0.2578,-0.726563 12,12 0 0 0 -0.20312,-0.445313 12,12 0 0 0 -0.30468,-0.625 12,12 0 0 0 -0.29688,-0.523437 12,12 0 0 0 -0.28124,-0.453125 12,12 0 0 0 -0.42187,-0.59375 12,12 0 0 0 -0.28124,-0.375 12,12 0 0 0 -0.46875,-0.53125 12,12 0 0 0 -0.3672,-0.382812 12,12 0 0 0 -0.3828,-0.367188 12,12 0 0 0 -0.53125,-0.46875 12,12 0 0 0 -0.375,-0.281248 12,12 0 0 0 -0.59375,-0.421875 12,12 0 0 0 -0.45313,-0.281252 12,12 0 0 0 -0.52343,-0.296876 12,12 0 0 0 -0.625,-0.304688 12,12 0 0 0 -0.44532,-0.203124 12,12 0 0 0 -0.72656,-0.257812 12,12 0 0 0 -0.39064,-0.132812 12,12 0 0 0 -0.781252,-0.195312 12,12 0 0 0 -0.3672,-0.08594 12,12 0 0 0 -0.796912,-0.117162 12,12 0 0 0 -0.429688,-0.05469 A 12,12 0 0 0 96,30 12,12 0 0 0 84,42 12,12 0 0 0 92,53.296876 V 66 H 68 V 53.304688 A 12,12 0 0 0 76,42 12,12 0 0 0 64,30 Z"/>
  <path style="opacity:0.1;fill:#ffffff" d="M 24 16 C 19.568 16 16 19.568 16 24 L 16 25 C 16 20.568 19.568 17 24 17 L 168 17 C 172.432 17 176 20.568 176 25 L 176 24 C 176 19.568 172.432 16 168 16 L 24 16 z "/>
  <rect style="fill:#fae71d" width="8" height="36" x="60" y="50.84"/>
  <rect style="fill:#fae71d" width="8" height="36" x="92" y="50.84"/>
  <rect style="fill:#fae71d" width="8" height="36" x="124" y="50.84"/>
  <circle style="fill:#fae71d" cx="96" cy="40" r="12"/>
  <circle style="fill:#fae71d" cx="64" cy="40" r="12"/>
  <circle style="fill:#fae71d" cx="128" cy="40" r="12"/>
  <path style="fill:#ffffff" d="m 60,86.850112 h 72 V 144.6518 L 96,168 60,144.6518 Z"/>
  <rect style="opacity:0.675" width="8" height="20" x="76" y="108"/>
  <rect style="opacity:0.675" width="8" height="20" x="108" y="108"/>
  <rect style="fill:#fae71d" width="72" height="24" x="60" y="64"/>
  <path style="opacity:0.2" d="m 96,28 v 140 l 36,-23.35156 V 88 64 51.304688 A 12,12 0 0 0 140,40 12,12 0 0 0 128,28 12,12 0 0 0 116,40 12,12 0 0 0 124,51.296876 V 64 H 100 V 51.304688 A 12,12 0 0 0 108,40 12,12 0 0 0 96,28 Z"/>
</svg>
