<svg xmlns="http://www.w3.org/2000/svg" id="svg12" width="192" height="192" version="1"><defs><filter style="color-interpolation-filters:sRGB" id="filter963" width="1.1" height="1.1" x=".05" y=".05"><feGaussianBlur stdDeviation="3.2"/></filter><filter style="color-interpolation-filters:sRGB" id="filter967" width="1.11" height="1.1" x=".05" y=".05"><feGaussianBlur stdDeviation="3.2"/></filter></defs><circle style="filter:url(#filter963);opacity:.2;fill:#000" cx="96" cy="100" r="80"/><circle style="fill:#e4e4e4" cx="96" cy="96" r="80"/><path style="filter:url(#filter967);opacity:.2" d="m 85.86,18.66 c -2.42,0.30 -4.80,0.74 -7.15,1.25 C 75.29,43.54 79.29,68.88 92.06,91.14 85.50,101.59 77.63,111.39 68.45,118.58 49.46,93.99 42.71,63.33 46.98,34.79 c -2.69,2.08 -5.28,4.28 -7.68,6.69 -2.37,28.36 5.56,57.14 23.25,81.68 -9.97,7.01 -21.02,12.40 -32.63,15.80 a 80,80 0 0 0 4.20,5.66 c 25.79,-8.41 48.94,-25.48 63.84,-50.22 12.46,0.00 24.93,2.61 36.08,6.53 -14.06,32.88 -41.81,56.04 -74.20,64.34 a 80,80 0 0 0 10.20,4.31 c 30.61,-10.69 56.64,-34.14 69.91,-65.38 11.25,5.31 21.35,12.26 29.98,20.28 a 80,80 0 0 0 2.71,-7.66 C 152.65,99.31 126.83,88.50 97.97,87.88 91.41,76.77 87.48,65.00 85.51,53.24 c 4.35,0.49 8.66,0.73 12.93,0.74 28.71,0.07 55.38,10.50 75.75,28.56 0.86,-4.00 -2.06,-7.85 -3.48,-11.60 C 146.82,51.27 116.46,42.30 84.85,46.71 84.24,37.57 84.26,27.88 85.86,18.66 Z"/><path style="fill:#4f4f4f" d="m 85.86,16.66 c -2.42,0.30 -4.80,0.74 -7.15,1.25 C 75.29,41.54 79.29,66.88 92.06,89.14 85.50,99.59 77.63,109.39 68.45,116.58 49.46,91.99 42.71,61.33 46.98,32.79 c -2.69,2.08 -5.28,4.28 -7.68,6.69 -2.37,28.36 5.56,57.14 23.25,81.68 -10.61,7.46 -22.42,13.11 -34.84,16.46 1.22,2.00 2.52,3.95 3.91,5.83 26.81,-8.10 50.97,-25.50 66.36,-51.04 12.46,0.00 24.93,2.61 36.08,6.53 -14.80,34.61 -44.77,58.49 -79.34,65.55 3.06,1.84 6.21,3.53 9.52,4.96 33.11,-9.64 61.63,-34.05 75.73,-67.24 11.73,5.53 22.27,12.83 31.12,21.29 0.94,-2.59 1.75,-5.23 2.43,-7.93 C 153.40,97.61 127.24,86.51 97.97,85.88 91.41,74.77 87.48,63.00 85.51,51.24 c 4.35,0.49 8.66,0.73 12.93,0.74 28.71,0.07 55.38,10.50 75.75,28.56 0.86,-4.00 -2.06,-7.85 -3.48,-11.60 C 146.82,49.27 116.46,40.30 84.85,44.71 84.24,35.57 84.26,25.88 85.86,16.66 Z"/><path style="opacity:.2;fill:#fff" d="M 96.00 16 C 51.68 16.00 16 51.68 16 96 C 16 96.17 16.01 96.34 16.01 96.52 C 16.27 52.42 51.84 17.00 96.00 17 L 96 17 C 140.16 17.00 175.73 52.42 175.99 96.52 C 175.99 96.34 176.00 96.17 176.00 96 C 176.00 51.68 140.32 16.00 96 16 L 96.00 16 z"/></svg>