<?xml version='1.0' encoding='utf-8'?>
<svg xmlns="http://www.w3.org/2000/svg" width="192" height="192" version="1.1" id="svg28">
  <defs>
    <filter style="color-interpolation-filters:sRGB" id="filter877" x="-0.055999999" y="-0.041999999" width="1.112" height="1.084">
      <feGaussianBlur stdDeviation="2.8"/>
    </filter>
    <filter style="color-interpolation-filters:sRGB" id="filter884" x="-0.033230771" y="-0.086400003" width="1.0664615" height="1.1728">
      <feGaussianBlur stdDeviation="1.44"/>
    </filter>
  </defs>
  <rect x="40" y="152" width="112" height="16" style="fill:#4d401e"/>
  <rect x="88" y="28" width="16" height="40" style="fill:#4d401e"/>
  <path d="m 88,20 c -2.216,0 -4,1.784 -4,4 v 20 c 0,2.216 1.784,4 4,4 h 16 c 2.216,0 4,-1.784 4,-4 V 24 c 0,-2.216 -1.784,-4 -4,-4 z m 8,36 a 60,60 0 0 0 -60,60 v 12 28 H 156 V 128 116 A 60,60 0 0 0 96,56 Z M 36,164 v 8 c 0,4.432 3.568,8 8,8 h 104 c 4.432,0 8,-3.568 8,-8 v -8 z" style="filter:url(#filter877);opacity:0.2"/>
  <rect x="84" y="16" width="24" height="28" ry="4" style="fill:#baa74b"/>
  <path d="m 96,52 a 60,60 0 0 0 -60,60 v 40 H 156 V 112 A 60,60 0 0 0 96,52 Z M 36,160 v 8 c 0,4.432 3.568,8 8,8 h 104 c 4.432,0 8,-3.568 8,-8 v -8 z" style="fill:#baa74b"/>
  <path d="m 64,106 a 20,20 0 0 0 -20,20 20,20 0 0 0 20,20 20,20 0 0 0 20,-20 20,20 0 0 0 -20,-20 z m 64,0 a 20,20 0 0 0 -20,20 20,20 0 0 0 20,20 20,20 0 0 0 20,-20 20,20 0 0 0 -20,-20 z" style="filter:url(#filter884);opacity:0.2"/>
  <circle cx="64" cy="123.99998" r="20" style="fill:#e7c275"/>
  <circle cx="128" cy="124" r="20" style="fill:#e7c275"/>
  <path d="m 92,52 v 100 h 8 V 52 Z m 16,8 a 4,4 0 0 0 -4,4 4,4 0 0 0 4,4 4,4 0 0 0 4,-4 4,4 0 0 0 -4,-4 z m 0,16 a 4,4 0 0 0 -4,4 4,4 0 0 0 4,4 4,4 0 0 0 4,-4 4,4 0 0 0 -4,-4 z m 0,16 a 4,4 0 0 0 -4,4 4,4 0 0 0 4,4 4,4 0 0 0 4,-4 4,4 0 0 0 -4,-4 z" style="opacity:0.2"/>
  <circle cx="64" cy="123.99998" r="8" style="opacity:0.8"/>
  <circle cx="128" cy="124" r="8" style="opacity:0.8"/>
  <path style="opacity:0.2;fill:#ffffff" d="M 88 16 C 85.784 16 84 17.784 84 20 L 84 21 C 84 18.784 85.784 17 88 17 L 104 17 C 106.216 17 108 18.784 108 21 L 108 20 C 108 17.784 106.216 16 104 16 L 88 16 z M 96 52 C 62.862916 52 36 78.862916 36 112 L 36 113 C 36 79.862916 62.862916 53 96 53 C 129.13708 53 156 79.862916 156 113 L 156 112 C 156 78.862916 129.13708 52 96 52 z M 36 160 L 36 161 L 156 161 L 156 160 L 36 160 z "/>
  <path style="opacity:0.2;fill:#ffffff" d="M 64 104 A 20 20 0 0 0 44 124 A 20 20 0 0 0 44.035156 124.65039 A 20 20 0 0 1 64 105 A 20 20 0 0 1 83.978516 124.37891 A 20 20 0 0 0 84 124 A 20 20 0 0 0 64 104 z M 128 104 A 20 20 0 0 0 108 124 A 20 20 0 0 0 108.03516 124.65039 A 20 20 0 0 1 128 105 A 20 20 0 0 1 147.97852 124.37891 A 20 20 0 0 0 148 124 A 20 20 0 0 0 128 104 z "/>
</svg>
