<svg xmlns="http://www.w3.org/2000/svg" id="svg32" width="192" height="192" version="1.1"><defs><filter style="color-interpolation-filters:sRGB" id="filter1733" width="1.09" height="1.1" x=".05" y=".05"><feGaussianBlur stdDeviation="2.51"/></filter><filter style="color-interpolation-filters:sRGB" id="filter1737" width="1.12" height="1.2" x=".06" y=".1"><feGaussianBlur stdDeviation="1.96"/></filter><filter style="color-interpolation-filters:sRGB" id="filter1784" width="1.06" height="1.19" x=".03" y=".09"><feGaussianBlur stdDeviation="1.5"/></filter></defs><path d="m 70.00,130.43 c 0,0 -13.00,4.32 -13.00,21.62 0,8.65 4.33,8.95 4.33,8.95 h 8.67 c 0,0 0,8.35 4.33,12.68 3.23,3.22 4.33,4.32 13.00,4.32 C 96,178.00 96,169.35 96,169.35 c 0,0 0,8.65 8.67,8.65 8.67,0 9.77,-1.10 13.00,-4.32 C 122,169.35 122,161.00 122,161.00 h 8.67 c 0,0 4.33,0.30 4.33,-8.95 0,-17.30 -13,-21.62 -13,-21.62 H 96 Z" style="filter:url(#filter1737);opacity:.2;fill:#000"/><path d="m 70.00,128.43 c 0,0 -13.00,4.32 -13.00,21.62 C 57,158.70 61.33,159 61.33,159 h 8.67 c 0,0 0,8.35 4.33,12.68 C 77.56,174.90 78.67,176 87.33,176 96,176 96,167.35 96,167.35 c 0,0 0,8.65 8.67,8.65 8.67,0 9.77,-1.10 13.00,-4.32 C 122,167.35 122,159 122,159 h 8.67 c 0,0 4.33,0.30 4.33,-8.95 0,-17.30 -13,-21.62 -13,-21.62 H 96 Z" style="fill:#faa7b0"/><ellipse cx="96" cy="78.5" rx="65" ry="60.5" style="filter:url(#filter1733);opacity:.2;fill:#000"/><ellipse cx="96" cy="76.5" rx="65" ry="60.5" style="fill:#fcd0d5"/><path style="fill:#b2e8fa" d="m 143.58,91.76 v 25.79 a -65,60.50 0 0 1 -17,12.16 V 91.76 Z"/><path style="fill:#b2e8fa" d="M 48.42 91.76 L 48.42 117.55 A 65 60.50 0 0 0 65.42 129.71 L 65.42 91.76 L 48.42 91.76 z"/><path style="filter:url(#filter1784);opacity:.2;fill:#000" d="M 57,66 A 17,17 0 0 0 40,83 17,17 0 0 0 57,100 17,17 0 0 0 74,83 17,17 0 0 0 57,66 Z m 78,0 a 17,17 0 0 0 -17,17 17,17 0 0 0 17,17 17,17 0 0 0 17,-17 17,17 0 0 0 -17,-17 z M 96,82 c -17.00,0 -17,22 -17,22 h 34 c 0,0 0,-22 -17,-22 z"/><circle cx="57" cy="81" r="17" style="fill:#2f2f2f"/><path d="M 79.00,102 H 113 c 0,0 0,-22 -17.00,-22 -17.00,0 -17.00,22 -17.00,22 z" style="fill:#2f2f2f"/><circle cx="50.5" cy="74.5" r="6.5" style="fill:#fff"/><rect width="26" height="4" x="83" y="94" style="fill:#fff"/><circle cx="135" cy="81" r="17" style="fill:#2f2f2f"/><circle cx="128.5" cy="74.5" r="6.5" style="fill:#fff"/><path style="opacity:.2;fill:#fff" d="M 96 16 A 65 60.50 0 0 0 31 76.50 A 65 60.50 0 0 0 31.04 77 A 65 60.50 0 0 1 96 17 A 65 60.50 0 0 1 160.98 76.76 A 65 60.50 0 0 0 161 76.50 A 65 60.50 0 0 0 96 16 z"/></svg>