<?xml version='1.0' encoding='utf-8'?>
<svg xmlns="http://www.w3.org/2000/svg" width="192" height="192" version="1.1" id="svg18">
  <defs>
    <filter style="color-interpolation-filters:sRGB" id="filter864" x="0.04" width="1.08" y="0.06" height="1.13">
      <feGaussianBlur stdDeviation="2.56"/>
    </filter>
    <filter style="color-interpolation-filters:sRGB" id="filter886" x="0.06" width="1.13" y="0.04" height="1.08">
      <feGaussianBlur stdDeviation="0.64"/>
    </filter>
    <filter style="color-interpolation-filters:sRGB" id="filter906" x="0.05" width="1.10" y="0.05" height="1.09">
      <feGaussianBlur stdDeviation="1.68"/>
    </filter>
  </defs>
  <path style="filter:url(#filter864);opacity:0.20" d="m 95.62,82.01 c -2.65,0.06 -5.12,0.45 -8.02,2.05 L 22.31,120.09 c -2.91,1.61 -5.95,4.64 -6.28,9.19 0.33,4.55 3.07,8.85 6.25,10.61 l 65.36,36.07 c 3.18,1.76 6.10,2.09 8.75,2.03 2.65,0.06 5.12,0.45 8.02,-2.05 l 65.29,-36.04 c 2.91,-1.60 5.95,-4.63 6.28,-9.19 0.34,-4.55 -3.07,-8.85 -6.25,-10.61 L 104.37,84.04 c -3.18,-1.75 -6.09,-2.09 -8.74,-2.03 z"/>
  <path style="fill:#197236" d="m 95.62,78.01 c -2.65,0.06 -5.12,0.45 -8.02,2.05 L 22.31,116.09 c -2.91,1.61 -5.95,4.64 -6.28,9.19 0.33,4.55 3.07,8.85 6.25,10.61 l 65.36,36.07 c 3.18,1.76 6.10,2.09 8.75,2.03 2.65,0.06 5.12,0.45 8.02,-2.05 l 65.29,-36.04 c 2.91,-1.60 5.95,-4.63 6.28,-9.19 0.34,-4.55 -3.07,-8.85 -6.25,-10.61 L 104.37,80.04 c -3.18,-1.75 -6.09,-2.09 -8.74,-2.03 z"/>
  <path style="filter:url(#filter886);opacity:0.20" d="m 60.00,92.00 h 24 V 124 l -12,8 -12,-8 z"/>
  <path style="opacity:0.10;fill:#ffffff" d="M 96.63 78.01 C 96.29 78.00 95.96 78.00 95.62 78.01 L 95.62 78.01 C 92.96 78.07 90.50 78.45 87.59 80.05 L 22.30 116.09 C 19.40 117.70 16.36 120.73 16.02 125.28 C 16.00 125.61 16.01 125.93 16.03 126.26 C 16.37 121.72 19.40 118.70 22.30 117.09 L 87.59 81.05 C 90.50 79.45 92.96 79.07 95.62 79.01 L 95.62 79.01 C 98.28 78.95 101.19 79.28 104.37 81.04 L 169.73 117.11 C 172.65 118.72 175.76 122.49 175.98 126.63 C 176.26 122.11 172.88 117.85 169.73 116.11 L 104.37 80.04 C 101.59 78.50 99.01 78.05 96.63 78.01 z "/>
  <path style="fill:#a0722e" d="m 60.00,90.00 h 24 V 122 l -12,8 -12,-8 z"/>
  <path style="filter:url(#filter906);opacity:0.20" d="m 72.24,20.00 a 10.15,10.01 0 0 0 -5.31,1.33 l -29.85,17.00 a 10.15,10.01 0 0 0 -5.07,8.67 v 34.00 a 10.15,10.01 0 0 0 5.07,8.66 l 29.85,17.00 a 10.15,10.01 0 0 0 10.15,0 L 106.93,89.66 A 10.15,10.01 0 0 0 112,81.00 V 47.00 a 10.15,10.01 0 0 0 -5.07,-8.67 L 77.07,21.34 a 10.15,10.01 0 0 0 -4.83,-1.33 z"/>
  <path style="fill:#74ba2f" d="m 72.24,18.00 a 10.15,10.01 0 0 0 -5.31,1.33 l -29.85,17.00 a 10.15,10.01 0 0 0 -5.07,8.67 v 34.00 a 10.15,10.01 0 0 0 5.07,8.66 l 29.85,17.00 a 10.15,10.01 0 0 0 10.15,0 L 106.93,87.66 A 10.15,10.01 0 0 0 112,79.00 V 45.00 a 10.15,10.01 0 0 0 -5.07,-8.67 L 77.07,19.34 a 10.15,10.01 0 0 0 -4.83,-1.33 z"/>
  <path style="opacity:0.20;fill:#ffffff" d="M 72.24 18 A 10.15 10.01 0 0 0 66.93 19.34 L 37.07 36.34 A 10.15 10.01 0 0 0 32 45 L 32 46 A 10.15 10.01 0 0 1 37.07 37.34 L 66.93 20.34 A 10.15 10.01 0 0 1 72.24 19 A 10.15 10.01 0 0 1 77.07 20.34 L 106.93 37.34 A 10.15 10.01 0 0 1 112 46 L 112 45 A 10.15 10.01 0 0 0 106.93 36.34 L 77.07 19.34 A 10.15 10.01 0 0 0 72.24 18 z "/>
</svg>
