<?xml version='1.0' encoding='utf-8'?>
<svg xmlns="http://www.w3.org/2000/svg" height="192" width="192" version="1.1" id="svg26">
  <defs>
    <filter style="color-interpolation-filters:sRGB" id="filter858" x="-0.048000001" y="-0.048000001" width="1.096" height="1.096">
      <feGaussianBlur stdDeviation="3.2"/>
    </filter>
    <filter style="color-interpolation-filters:sRGB" id="filter962" x="-0.051693426" y="-0.05216459" width="1.1033869" height="1.1043292">
      <feGaussianBlur stdDeviation="2.0865835"/>
    </filter>
    <filter style="color-interpolation-filters:sRGB" id="filter966" x="-0.048000001" y="-0.048000001" width="1.096" height="1.096">
      <feGaussianBlur stdDeviation="3.2"/>
    </filter>
  </defs>
  <circle cx="96" cy="100" r="80" style="filter:url(#filter858);opacity:0.2"/>
  <circle cx="96" cy="96" r="80" style="fill:#ff4f4f"/>
  <path style="filter:url(#filter966);opacity:0.2" d="m 96,18 -8,40 h 16 z m -48,72 -32,8 32,8 z m 96,0 v 16 l 32,-8 z m -56,48 8,40 8,-40 z"/>
  <path style="fill:#f7df67" d="m 96,16 -8,40 h 16 z m -48,72 -32,8 32,8 z m 96,0 v 16 l 32,-8 z m -56,48 8,40 8,-40 z"/>
  <path style="opacity:0.2;fill:#ffffff" d="M 96 16 A 80 80 0 0 0 16 96 A 80 80 0 0 0 16.021484 96.662109 A 80 80 0 0 1 96 17 A 80 80 0 0 1 175.98438 96.310547 A 80 80 0 0 0 176 96 A 80 80 0 0 0 96 16 z "/>
  <path style="filter:url(#filter962);opacity:0.2" d="m 96,50 a 56,48 0 0 0 -8.40625,0.609375 L 72,74 h 72.42188 A 56,48 0 0 0 96,50 Z m -8.640625,0.640625 A 56,48 0 0 0 47.5625,74 H 64 Z M 68,82 A 12,16 0 0 0 56,98 12,16 0 0 0 68,114 12,16 0 0 0 80,98 12,16 0 0 0 68,82 Z m 32,0 a 12,16 0 0 0 -12,16 12,16 0 0 0 12,16 12,16 0 0 0 12,-16 12,16 0 0 0 -12,-16 z m 28,0 -8,8 h 8 v 24 h 8 V 82 Z m -60,8 a 4,8 0 0 1 4,8 4,8 0 0 1 -4,8 4,8 0 0 1 -4,-8 4,8 0 0 1 4,-8 z m 32,0 a 4,8 0 0 1 4,8 4,8 0 0 1 -4,8 4,8 0 0 1 -4,-8 4,8 0 0 1 4,-8 z M 47.578125,122 A 56,48 0 0 0 87.40625,145.40625 L 64,122 Z M 72,122 87.625,145.4375 A 56,48 0 0 0 96,146 56,48 0 0 0 144.4375,122 Z"/>
  <path style="fill:#ffffff" d="m 128,112 h 8 V 80 h -8 l -8,8 h 8 z"/>
  <path style="fill:#ffffff" d="M 68,80 A 12,16 0 0 0 56,96 12,16 0 0 0 68,112 12,16 0 0 0 80,96 12,16 0 0 0 68,80 Z m 0,8 a 4,8 0 0 1 4,8 4,8 0 0 1 -4,8 4,8 0 0 1 -4,-8 4,8 0 0 1 4,-8 z"/>
  <path style="fill:#ffffff" d="m 100,80 a 12,16 0 0 0 -12,16 12,16 0 0 0 12,16 12,16 0 0 0 12,-16 12,16 0 0 0 -12,-16 z m 0,8 a 4,8 0 0 1 4,8 4,8 0 0 1 -4,8 4,8 0 0 1 -4,-8 4,8 0 0 1 4,-8 z"/>
  <path style="fill:#ffffff" d="m 96,48 a 56,48 0 0 0 -8.40625,0.609375 L 72,72 h 72.42187 A 56,48 0 0 0 96,48 Z m -8.640625,0.640625 A 56,48 0 0 0 47.5625,72 H 64 Z M 47.578125,120 A 56,48 0 0 0 87.40625,143.40625 L 64,120 Z M 72,120 87.625,143.4375 A 56,48 0 0 0 96,144 56,48 0 0 0 144.4375,120 Z"/>
</svg>
