<?xml version='1.0' encoding='utf-8'?>
<svg xmlns="http://www.w3.org/2000/svg" width="192" height="192" version="1.1" id="svg28">
  <defs>
    <filter style="color-interpolation-filters:sRGB" id="filter877" x="0.05" y="0.05" width="1.10" height="1.10">
      <feGaussianBlur stdDeviation="3.20"/>
    </filter>
    <filter style="color-interpolation-filters:sRGB" id="filter881" x="0.05" y="0.05" width="1.10" height="1.10">
      <feGaussianBlur stdDeviation="2.72"/>
    </filter>
  </defs>
  <path style="filter:url(#filter877);opacity:0.20" d="M 96,20 A 80,80 0 0 0 16,100 80,80 0 0 0 96,180 80,80 0 0 0 176,100 80,80 0 0 0 96,20 Z"/>
  <path style="fill:#ff9426" d="M 96,16 A 80,80 0 0 0 16,96 80,80 0 0 0 96,176 80,80 0 0 0 176,96 80,80 0 0 0 96,16 Z"/>
  <circle style="filter:url(#filter881);opacity:0.20" cx="96" cy="100" r="68"/>
  <circle style="fill:#ffffff" cx="96" cy="96" r="68"/>
  <path style="opacity:0.20;fill:#ffffff" d="M 96 16 A 80 80 0 0 0 16.56 87.41 A 80 76 0 0 1 19.76 73.68 A 80 80 0 0 1 96 17 A 80 80 0 0 1 172.77 75.30 A 80 76 0 0 1 175.69 89.79 A 80 80 0 0 0 96 16 z "/>
  <path style="fill:#d2e015" d="M 95.86,36 C 89.26,35.96 83.11,37.50 80.14,39.18 c 0.00,0.02 0.00,0.02 0.01,0.05 0.25,1.51 0.84,3.86 1.66,6.63 1.63,5.54 4.18,12.84 6.83,20.06 3.53,9.62 5.26,13.78 7.36,19.04 2.12,-5.26 3.88,-9.43 7.45,-19.05 2.67,-7.22 5.22,-14.51 6.83,-20.04 0.81,-2.76 1.38,-5.10 1.61,-6.59 C 108.73,37.60 102.45,36.04 95.86,36 Z"/>
  <path style="fill:#c74a30" d="m 95.99,107.04 c -2.10,5.26 -3.83,9.42 -7.36,19.04 -2.65,7.22 -5.20,14.52 -6.83,20.06 0.82,2.77 -1.40,5.12 -1.66,6.63 0.00,0.03 0.00,0.02 0.01,0.05 2.97,1.68 9.12,3.22 15.72,3.18 6.59,0.04 12.87,-1.60 16.02,-3.27 0.23,-1.49 0.80,-3.83 -1.61,-6.59 -1.61,-5.53 -4.16,-12.82 -6.83,-20.04 -3.56,-9.63 -5.33,-13.80 -7.45,-19.05 z"/>
  <path style="fill:#ff769d" d="m 152.82,80.14 c 0.02,0.00 0.02,0.00 0.05,0.01 -1.51,0.25 -3.86,0.84 -6.63,1.66 -5.54,1.63 -12.84,4.18 -20.06,6.83 -9.62,3.53 -13.78,5.26 -19.04,7.36 5.26,2.12 9.43,3.88 19.05,7.45 7.22,2.67 14.51,5.22 20.04,6.83 2.76,0.81 5.10,1.38 6.59,1.61 1.68,-3.15 3.24,-9.42 3.27,-16.02 0.04,-6.60 -1.50,-12.75 -3.18,-15.72 z"/>
  <path style="fill:#f9a726" d="M 39.18,80.14 C 37.50,83.11 35.96,89.26 36,95.86 c 0.04,6.59 1.60,12.87 3.27,16.02 1.49,0.23 3.83,0.80 6.59,-1.61 5.53,-1.61 12.82,-4.16 20.04,-6.83 9.63,-3.56 13.80,-5.33 19.05,-7.45 -5.26,-2.10 -9.42,-3.83 -19.04,-7.36 -7.22,-2.65 -14.52,-5.20 -20.06,-6.83 -2.77,0.82 -5.12,-1.40 -6.63,-1.66 0.03,0.00 0.02,0.00 0.05,0.01 z"/>
  <path style="fill:#89dc3c" d="m 124.97,44.61 c 0.02,0.02 0.02,0.02 0.03,0.04 0.89,1.25 -2.13,3.32 -3.52,5.86 -2.76,5.07 -6.13,12.03 -9.36,19.01 -4.30,9.30 -6.02,13.47 -8.26,18.67 5.22,-2.22 9.40,-3.92 18.73,-8.21 6.99,-3.21 13.96,-6.57 19.01,-9.34 2.52,-1.38 4.58,-2.64 5.80,-3.53 -1.04,-3.41 -4.37,-8.95 -9.01,-13.63 -4.64,-4.69 -10.07,-7.95 -13.36,-8.87 z"/>
  <path style="fill:#dc6e33" d="m 88.19,103.80 c -5.20,2.24 -9.37,3.95 -18.67,8.26 -6.98,3.23 -13.94,6.60 -19.01,9.36 -2.53,1.38 -4.61,2.62 -5.86,3.52 0.02,0.02 0.02,0.02 0.04,0.03 0.92,3.29 4.18,8.72 8.87,13.36 4.69,4.63 10.22,7.97 13.63,9.01 0.89,-1.22 2.15,-3.27 3.53,-5.80 2.77,-5.05 6.12,-12.02 9.34,-19.01 4.29,-9.32 5.99,-13.51 8.21,-18.73 z"/>
  <path style="fill:#dd4f3c" d="m 103.81,103.80 c 2.22,5.22 3.92,9.40 8.21,18.73 3.21,6.99 6.57,13.96 9.34,19.01 1.38,2.52 2.64,4.58 3.53,5.80 3.41,-1.04 8.95,-4.37 13.63,-9.01 4.69,-4.64 7.95,-10.07 8.87,-13.36 0.02,0.02 0.02,0.02 0.04,0.03 -1.25,0.89 -3.32,-2.13 -5.86,-3.52 -5.07,-2.76 -12.03,-6.13 -19.01,-9.36 -9.30,-4.30 -13.47,-6.02 -18.67,-8.26 z"/>
  <path style="fill:#f8e12e" d="m 67.03,44.61 c -3.29,0.92 -8.72,4.18 -13.36,8.87 -4.63,4.69 -7.97,10.22 -9.01,13.63 1.22,0.89 3.27,2.15 5.80,3.53 5.05,2.77 12.02,6.12 19.01,9.34 C 78.79,84.26 82.98,85.97 88.20,88.19 85.96,82.99 84.24,78.82 79.94,69.52 76.71,62.54 73.34,55.58 70.58,50.51 c -1.38,-2.53 -2.62,-4.61 -3.52,-5.86 0.02,0.02 0.02,0.02 0.03,0.04 z"/>
</svg>
