<?xml version='1.0' encoding='utf-8'?>
<svg xmlns="http://www.w3.org/2000/svg" width="192" height="192" version="1" id="svg50">
  <defs>
    <filter style="color-interpolation-filters:sRGB" id="filter26942" x="0.39" y="0.35" width="1.77" height="1.71">
      <feGaussianBlur stdDeviation="7.07"/>
    </filter>
    <filter style="color-interpolation-filters:sRGB" id="filter26946" x="0.26" y="0.26" width="1.53" height="1.53">
      <feGaussianBlur stdDeviation="7.07"/>
    </filter>
    <filter style="color-interpolation-filters:sRGB" id="filter26950" x="0.35" y="0.35" width="1.71" height="1.71">
      <feGaussianBlur stdDeviation="7.07"/>
    </filter>
    <filter style="color-interpolation-filters:sRGB" id="filter26954" x="0.35" y="0.35" width="1.71" height="1.71">
      <feGaussianBlur stdDeviation="7.07"/>
    </filter>
    <filter style="color-interpolation-filters:sRGB" id="filter26958" x="0.35" y="0.35" width="1.71" height="1.71">
      <feGaussianBlur stdDeviation="7.07"/>
    </filter>
    <filter style="color-interpolation-filters:sRGB" id="filter26962" x="0.24" y="0.21" width="1.47" height="1.42">
      <feGaussianBlur stdDeviation="7.07"/>
    </filter>
    <filter style="color-interpolation-filters:sRGB" id="filter26966" x="0.16" y="0.16" width="1.33" height="1.33">
      <feGaussianBlur stdDeviation="7.07"/>
    </filter>
    <filter style="color-interpolation-filters:sRGB" id="filter26970" x="0.24" y="0.24" width="1.47" height="1.47">
      <feGaussianBlur stdDeviation="7.07"/>
    </filter>
    <filter style="color-interpolation-filters:sRGB" id="filter26974" x="0.26" y="0.26" width="1.53" height="1.53">
      <feGaussianBlur stdDeviation="7.07"/>
    </filter>
    <filter style="color-interpolation-filters:sRGB" id="filter26978" x="0.42" y="0.42" width="1.85" height="1.85">
      <feGaussianBlur stdDeviation="7.07"/>
    </filter>
  </defs>
  <circle style="filter:url(#filter26978);opacity:0.20" cx="84" cy="158" r="20"/>
  <circle style="fill:#13d3d1" cx="52" cy="116" r="20"/>
  <circle style="fill:#13d3d1" cx="84" cy="156" r="20"/>
  <circle style="filter:url(#filter26974);opacity:0.20" cx="60" cy="144" r="32"/>
  <circle style="fill:#e5df0b" cx="60" cy="142" r="32"/>
  <circle style="filter:url(#filter26970);opacity:0.20" cx="116" cy="126" r="36"/>
  <circle style="fill:#13d3d1" cx="116" cy="124" r="36"/>
  <circle style="filter:url(#filter26966);opacity:0.20" cx="104" cy="90" r="52"/>
  <circle style="fill:#e5df0b" cx="104" cy="88" r="52"/>
  <path style="filter:url(#filter26962);opacity:0.20;fill-rule:evenodd" d="M 93.74,89.17 C 88.07,110.56 74.51,126.56 53.37,120.83 32.24,115.10 19.70,93.11 25.36,71.72 31.02,50.34 52.75,37.65 73.88,43.38 95.02,49.11 99.40,67.79 93.74,89.17 Z"/>
  <circle style="filter:url(#filter26958);opacity:0.20" cx="48" cy="154" r="24"/>
  <circle style="fill:#13d3d1" cx="48" cy="152" r="24"/>
  <path style="fill:#13d3d1;fill-rule:evenodd" d="M 93.74,87.17 C 88.07,108.56 74.51,124.56 53.37,118.83 32.24,113.10 19.70,91.11 25.36,69.72 31.02,48.34 52.75,35.65 73.88,41.38 95.02,47.11 99.40,65.79 93.74,87.17 Z"/>
  <path style="opacity:0.20;fill:#ffffff;fill-rule:evenodd" d="M 63.50 40 C 63.01 40.00 62.53 40.01 62.04 40.03 C 45.16 40.71 29.96 52.35 25.36 69.73 C 24.38 73.42 23.97 77.11 24.03 80.75 C 24.05 77.44 24.47 74.08 25.36 70.73 C 29.96 53.35 45.16 41.71 62.04 41.03 C 65.93 40.87 69.92 41.30 73.88 42.38 C 89.14 46.51 95.63 57.41 95.96 71.18 C 95.93 56.94 89.50 45.61 73.88 41.38 C 70.42 40.43 66.93 39.99 63.50 40 z "/>
  <circle style="filter:url(#filter26954);opacity:0.20" cx="144" cy="44" r="24"/>
  <circle style="fill:#13d3d1" cx="144" cy="40" r="24"/>
  <circle style="filter:url(#filter26950);opacity:0.20" cx="140" cy="78" r="24"/>
  <circle style="fill:#13d3d1" cx="140" cy="76" r="24"/>
  <circle style="filter:url(#filter26946);opacity:0.20" cx="132" cy="58" r="32"/>
  <path style="opacity:0.20;fill:#ffffff;fill-rule:evenodd" d="M 144 16 A 24 24 0 0 0 120 40 A 24 24 0 0 0 120.03 40.56 A 24 24 0 0 1 144 17 A 24 24 0 0 1 167.98 40.30 A 24 24 0 0 0 168 40 A 24 24 0 0 0 144 16 z "/>
  <circle style="fill:#e5df0b" cx="132" cy="56" r="32"/>
  <path style="filter:url(#filter26942);opacity:0.20;fill-rule:evenodd" d="m 128,58 c 0,13.25 -6.75,24 -20,24 C 94.75,82 84,71.25 84,58 84,44.75 94.75,34 108,34 c 13.25,0 20,10.75 20,24 z"/>
  <path style="fill:#13d3d1;fill-rule:evenodd" d="m 128,56 c 0,13.25 -6.75,24 -20,24 C 94.75,80 84,69.25 84,56 84,42.75 94.75,32 108,32 c 13.25,0 20,10.75 20,24 z"/>
  <path style="opacity:0.20;fill:#ffffff;fill-rule:evenodd" d="M 108 32 C 94.75 32 84 42.75 84 56 C 84 56.16 84.01 56.31 84.01 56.46 C 84.30 43.46 94.92 33 108 33 C 121.03 33 127.77 43.39 127.99 56.34 C 127.99 56.23 128 56.11 128 56 C 128 42.75 121.25 32 108 32 z "/>
</svg>
