<svg xmlns="http://www.w3.org/2000/svg" id="svg12" width="192" height="192" version="1.1"><defs><filter style="color-interpolation-filters:sRGB" id="filter845" width="1.1" height="1.1" x=".05" y=".05"><feGaussianBlur stdDeviation="3.2"/></filter><filter style="color-interpolation-filters:sRGB" id="filter3192" width="1.1" height="1.09" x=".05" y=".05"><feGaussianBlur stdDeviation="1.7"/></filter></defs><circle style="filter:url(#filter845);opacity:.2" cx="96" cy="100" r="80"/><circle style="fill:#00bcd4" cx="96" cy="96" r="80"/><path style="filter:url(#filter3192);opacity:.2;fill:#000;stop-color:#000" d="m 68,54 c -3.32,0 -6,2.68 -6,6 v 30 c 0,3.32 2.68,6 6,6 h 56 c 3.32,0 6,-2.68 6,-6 V 60 c 0,-3.32 -2.68,-6 -6,-6 z m -1.34,46 c -3.34,0 -5.32,2.63 -6.03,5.71 L 54.09,134.29 C 53.39,137.37 56.78,140 60.12,140 H 96 131.88 c 3.34,0 6.74,-2.63 6.03,-5.71 l -6.53,-28.57 C 130.67,102.63 128.68,100 125.34,100 H 96 Z"/><path style="opacity:.2;fill:#fff" d="M 96 16.00 A 80.00 79.99 0 0 0 16 95.99 A 80.00 79.99 0 0 0 16.02 96.63 A 80.00 79.99 0 0 1 96 17 A 80.00 79.99 0 0 1 175.98 96.29 A 80.00 79.99 0 0 0 176 95.99 A 80.00 79.99 0 0 0 96 16.00 z"/><rect style="fill:#e5e5e5;stop-color:#000" width="68" height="42" x="62" y="52" rx="6" ry="6"/><rect style="fill:#546e7a;stop-color:#000" width="42" height="24" x="75" y="61" rx="3.71" ry="3.43"/><path style="fill:#fff;stop-color:#000" d="m 66.66,98 c -3.34,0 -5.32,2.63 -6.03,5.71 l -6.53,28.57 C 53.39,135.37 56.78,138 60.12,138 H 96 131.88 c 3.34,0 6.74,-2.63 6.03,-5.71 l -6.53,-28.57 C 130.67,100.63 128.68,98 125.34,98 H 96 Z"/><path style="fill:#607d8b;stop-color:#000" d="m 76.61,105 c -2.11,0 -3.50,1.55 -3.80,3.43 l -2.77,17.14 C 69.73,127.45 71.73,129 73.84,129 H 96.00 118.16 c 2.11,0 4.11,-1.55 3.81,-3.43 l -2.77,-17.14 C 118.89,106.55 117.50,105 115.39,105 H 96.00 Z"/></svg>