<?xml version='1.0' encoding='utf-8'?>
<svg xmlns="http://www.w3.org/2000/svg" width="192" height="192" version="1.1" id="svg34">
  <defs>
    <filter style="color-interpolation-filters:sRGB" id="filter1007" x="-0.037846153" y="-0.065599992" width="1.0756923" height="1.1312">
      <feGaussianBlur stdDeviation="1.6400004"/>
    </filter>
    <filter style="color-interpolation-filters:sRGB" id="filter1049" x="-0.033333336" y="-0.085714286" width="1.0666667" height="1.1714286">
      <feGaussianBlur stdDeviation="2.0000006"/>
    </filter>
    <filter style="color-interpolation-filters:sRGB" id="filter1091" x="-0.056727276" y="-0.041600001" width="1.1134546" height="1.0832">
      <feGaussianBlur stdDeviation="2.0800006"/>
    </filter>
    <filter style="color-interpolation-filters:sRGB" id="filter1096" x="-0.047999999" y="-0.047999999" width="1.096" height="1.096">
      <feGaussianBlur stdDeviation="1.28"/>
    </filter>
    <filter style="color-interpolation-filters:sRGB" id="filter1221" x="-0.035105772" y="-0.061435194" width="1.0702115" height="1.1228704">
      <feGaussianBlur stdDeviation="0.40956681"/>
    </filter>
  </defs>
  <path d="m 96,23.999966 c -24.000007,0 -44.000012,24.000007 -44.000012,52.000014 0,19.22961 32.000009,44.00001 32.000009,48.00001 0,7.77461 0,20.00001 12.000003,20.00001 12,0 12,-12.2254 12,-20.00001 0,-4 32.00001,-28.7704 32.00001,-48.00001 0,-24.000006 -20,-52.000014 -44.00001,-52.000014 z" style="filter:url(#filter1091);opacity:0.2;fill:#000000"/>
  <path d="m 35.999983,123.99998 c -6.648001,0 -12.000003,5.352 -12.000003,12.00001 v 16 V 176 c 0,2.216 1.784001,4 4.000001,4 h 8.000002 8.000003 c 2.216,0 4.000001,-1.784 4.000001,-4 v -24.00001 -16 c 0,-6.64801 -5.352002,-12.00001 -12.000004,-12.00001 z m 120.000037,0 c -6.64801,0 -12.00001,5.352 -12.00001,12.00001 v 16 V 176 c 0,2.216 1.784,4 4,4 h 8.00001 8 c 2.216,0 4,-1.784 4,-4 v -24.00001 -16 c 0,-6.64801 -5.352,-12.00001 -12,-12.00001 z" style="filter:url(#filter1049);opacity:0.2;fill:#000000"/>
  <path d="m 35.999983,119.99998 c -6.648001,0 -12.000003,5.352 -12.000003,12.00001 v 16 V 172 c 0,2.216 1.784001,4 4.000001,4 h 8.000002 8.000003 c 2.216,0 4.000001,-1.784 4.000001,-4 v -24.00001 -16 c 0,-6.64801 -5.352002,-12.00001 -12.000004,-12.00001 z m 120.000037,0 c -6.64801,0 -12.00001,5.352 -12.00001,12.00001 v 16 V 172 c 0,2.216 1.784,4 4,4 h 8.00001 8 c 2.216,0 4,-1.784 4,-4 v -24.00001 -16 c 0,-6.64801 -5.352,-12.00001 -12,-12.00001 z" style="fill:#14d014"/>
  <path style="opacity:0.1;fill:#ffffff" d="M 36 120 C 29.351999 120 24 125.35199 24 132 L 24 133 C 24 126.35199 29.351999 121 36 121 C 42.648002 121 48 126.35199 48 133 L 48 132 C 48 125.35199 42.648002 120 36 120 z M 156 120 C 149.35199 120 144 125.35199 144 132 L 144 133 C 144 126.35199 149.35199 121 156 121 C 162.648 121 168 126.35199 168 133 L 168 132 C 168 125.35199 162.648 120 156 120 z "/>
  <path d="m 96,19.999956 c -24.000007,0 -44.000012,24.000007 -44.000012,52.000014 0,19.22961 32.000009,44.00001 32.000009,48.00001 0,7.77461 0,20.00001 12.000003,20.00001 12,0 12,-12.2254 12,-20.00001 0,-4 32.00001,-28.7704 32.00001,-48.00001 0,-24.000006 -20,-52.000014 -44.00001,-52.000014 z" style="fill:#d2b575"/>
  <path d="m 59.99999,119.99998 c -16.000004,0 -16.000004,16.00001 -16.000004,16.00001 v 8 4 V 176 c 0,2.216 1.784,4 4.000001,4 h 96.000023 c 2.216,0 4,-1.784 4,-4 v -28.00001 -4 -8 c 0,0 0,-16.00001 -16,-16.00001 -13.59739,0 -20.00001,8 -36.00001,8 -16.000004,0 -22.402622,-8 -36.00001,-8 z" style="filter:url(#filter1007);opacity:0.2;fill:#000000"/>
  <path d="m 59.99999,115.99998 c -16.000004,0 -16.000004,16.00001 -16.000004,16.00001 v 8 4 V 172 c 0,2.216 1.784,4 4.000001,4 h 96.000023 c 2.216,0 4,-1.784 4,-4 v -28.00001 -4 -8 c 0,0 0,-16.00001 -16,-16.00001 -13.59739,0 -20.00001,8 -36.00001,8 -16.000004,0 -22.402622,-8 -36.00001,-8 z" style="fill:#37e137"/>
  <path style="opacity:0.2;fill:#ffffff" d="M 96 20 C 71.999993 20 52 43.999993 52 72 C 52 72.071343 52.012674 72.144683 52.017578 72.216797 C 52.387306 44.55499 72.224769 21 96 21 C 119.75239 21 139.5737 48.423206 139.98047 72.253906 C 139.98611 72.169449 140 72.083506 140 72 C 140 47.999994 120.00001 20 96 20 z "/>
  <path style="filter:url(#filter1096);opacity:0.2" d="M 76 46 C 69.372582 46 64 51.372582 64 58 C 64 64.627418 69.372582 70 76 70 C 82.627417 70 88 64.627418 88 58 C 88 51.372582 82.627417 46 76 46 z M 116 46 C 109.37258 46 104 51.372582 104 58 C 104 64.627418 109.37258 70 116 70 C 122.62741 70 128 64.627418 128 58 C 128 51.372582 122.62741 46 116 46 z M 96 58 C 96 58 88 77.999997 88 86 C 88 89.771237 87.999998 94 96 94 C 104 94 104 89.771237 104 86 C 104 77.999997 96 58 96 58 z M 72 98 C 72 98 87.999998 110 96 110 C 104 110 120 98 120 98 C 120 98 108 102 96 102 C 83.999997 102 72 98 72 98 z "/>
  <path d="m 122.18228,17.038911 c 0,0 -1.85136,-0.201076 -4.64052,0.31148 -2.78915,0.512558 -6.68763,1.718027 -11.28205,4.446406 -4.7834,2.840612 -9.64697,7.771476 -9.64697,7.771476 a 1.9934395,1.9936842 0 1 0 2.818573,2.818912 c 0,0 4.839567,-4.771599 8.868357,-7.164086 4.18945,-2.487889 7.62042,-3.524742 9.9662,-3.955822 2.34578,-0.431079 3.43367,-0.272544 3.43367,-0.272544 a 1.9934395,1.9936842 0 1 0 0.48274,-3.955822 z" style="filter:url(#filter1221);opacity:0.2;fill:#000000"/>
  <path d="m 122.18228,16.038867 c 0,0 -1.85136,-0.201076 -4.64052,0.31148 -2.78915,0.512558 -6.68763,1.718027 -11.28205,4.446406 -4.7834,2.840612 -9.64697,7.771476 -9.64697,7.771476 a 1.9934395,1.9936842 0 1 0 2.818573,2.818912 c 0,0 4.839567,-4.771599 8.868357,-7.164086 4.18945,-2.487889 7.62042,-3.524742 9.9662,-3.955822 2.34578,-0.431079 3.43367,-0.272544 3.43367,-0.272544 a 1.9934395,1.9936842 0 1 0 0.48274,-3.955822 z" style="fill:#684322"/>
  <path d="m 96,55.999966 c 0,0 8,20.000005 8,28.000008 0,3.771237 0,8.000002 -8,8.000002 -8.000002,0 -8.000002,-4.228765 -8.000002,-8.000002 C 87.999998,75.999971 96,55.999966 96,55.999966 Z" style="fill:#e7cf9c"/>
  <path d="M 75.999995,43.999963 A 12.000003,12.000003 0 0 0 63.999991,55.999966 12.000003,12.000003 0 0 0 75.999995,67.999969 12.000003,12.000003 0 0 0 87.999998,55.999966 12.000003,12.000003 0 0 0 75.999995,43.999963 Z m 40.000015,0 A 12.000003,12.000003 0 0 0 104,55.999966 a 12.000003,12.000003 0 0 0 12.00001,12.000003 12.000003,12.000003 0 0 0 12,-12.000003 12.000003,12.000003 0 0 0 -12,-12.000003 z" style="fill:#ffffff"/>
  <path d="m 96,99.999978 c -12.000003,0 -24.000007,-4.000001 -24.000007,-4.000001 0,0 16.000005,12.000003 24.000007,12.000003 8,0 24.00001,-12.000003 24.00001,-12.000003 0,0 -12.00001,4.000001 -24.00001,4.000001 z" style="fill:#e43a31"/>
  <circle cx="75.999992" cy="55.999966" r="4.000001" style="fill:#323232"/>
  <circle cx="116.00001" cy="55.999966" r="4.000001" style="fill:#323232"/>
  <path style="opacity:0.2;fill:#ffffff" d="M 60 116 C 43.999996 116 44 132 44 132 L 44 133 C 44 133 43.999996 117 60 117 C 73.597388 117 79.999996 125 96 125 C 112 125 118.40261 117 132 117 C 148 117 148 133 148 133 L 148 132 C 148 132 148 116 132 116 C 118.40261 116 112 124 96 124 C 79.999996 124 73.597388 116 60 116 z "/>
</svg>
