<?xml version='1.0' encoding='utf-8'?>
<svg xmlns="http://www.w3.org/2000/svg" width="192" height="192" version="1" id="svg14">
  <defs>
    <filter style="color-interpolation-filters:sRGB" id="filter850" x="0.05" width="1.10" y="0.05" height="1.10">
      <feGaussianBlur stdDeviation="3.20"/>
    </filter>
    <filter style="color-interpolation-filters:sRGB" id="filter2194" x="0.07" y="0.07" width="1.15" height="1.15">
      <feGaussianBlur stdDeviation="3.31"/>
    </filter>
  </defs>
  <circle style="filter:url(#filter850);opacity:0.20;fill:#000000" cx="96" cy="100" r="80"/>
  <circle r="80" cy="96" cx="96" style="fill:#3f3f3f"/>
  <path style="opacity:0.10;fill:#ffffff" d="M 96 16 A 80 80 0 0 0 16 96 A 80 80 0 0 0 16.02 96.47 A 80 80 0 0 1 96 17 A 80 80 0 0 1 175.97 96.51 A 80 80 0 0 0 176 96 A 80 80 0 0 0 96 16 z "/>
  <path style="filter:url(#filter2194);opacity:0.20;fill:#000000" d="m 87,45 c -1.11,0 -2,0.89 -2,2 v 8.48 a 44,44 0 0 0 -14.91,7.09 l -4.01,-4.01 c 0.75,0.75 -1.97,0.75 -2.72,0 l -6.80,6.80 c 0.75,0.75 0.75,1.97 0,2.72 l 4.01,4.01 A 44,44 0 0 0 53.48,87 H 45 c -1.11,0 -2,0.89 -2,2 v 18 c 0,1.11 0.89,2 2,2 h 8.48 a 44,44 0 0 0 7.09,14.91 l -4.01,4.01 c 0.75,0.75 0.75,1.97 0,2.72 l 6.80,6.80 c 0.75,0.75 1.97,0.75 2.72,0 l 4.01,-4.01 A 44,44 0 0 0 85,140.52 V 149 c 0,1.11 0.89,2 2,2 h 18 c 1.11,0 2,0.89 2,-2 v -8.48 a 44,44 0 0 0 14.91,-7.09 l 4.01,4.01 c 0.75,0.75 1.97,0.75 2.72,0 l 6.80,-6.80 c 0.75,0.75 0.75,-1.97 0,-2.72 l -4.01,-4.01 A 44,44 0 0 0 138.52,109 H 147 c 1.11,0 2,0.89 2,-2 V 89 c 0,-1.11 0.89,-2 -2,-2 h -8.40 a 44,44 0 0 0 -7.09,-14.98 l 3.93,-3.93 c 0.75,0.75 0.75,-1.97 0,-2.72 l -6.80,-6.80 c 0.75,0.75 -1.97,0.75 -2.72,0 l -3.93,3.93 A 44,44 0 0 0 107,55.40 V 47 c 0,-1.11 0.89,-2 -2,-2 z m 1.13,43 H 103.87 C 105.05,88 106,88.92 106,90.07 V 105.93 C 106,107.08 105.05,108 103.87,108 H 88.13 C 86.95,108 86,107.08 86,105.93 V 90.07 C 86,88.92 86.95,88 88.13,88 Z"/>
  <path style="fill:#ffffff" d="M 87 43 C 85.89 43 85 43.89 85 45 L 85 53.48 A 44 44 0 0 0 70.09 60.57 L 66.08 56.56 C 65.33 55.81 64.12 55.81 63.36 56.56 L 56.56 63.36 C 55.81 64.12 55.81 65.33 56.56 66.08 L 60.57 70.09 A 44 44 0 0 0 53.48 85 L 45 85 C 43.89 85 43 85.89 43 87 L 43 105 C 43 106.11 43.89 107 45 107 L 53.48 107 A 44 44 0 0 0 60.57 121.91 L 56.56 125.92 C 55.81 126.67 55.81 127.88 56.56 128.64 L 63.36 135.44 C 64.12 136.19 65.33 136.19 66.08 135.44 L 70.09 131.43 A 44 44 0 0 0 85 138.52 L 85 147 C 85 148.11 85.89 149 87 149 L 105 149 C 106.11 149 107 148.11 107 147 L 107 138.52 A 44 44 0 0 0 121.91 131.43 L 125.92 135.44 C 126.67 136.19 127.88 136.19 128.64 135.44 L 135.44 128.64 C 136.19 127.88 136.19 126.67 135.44 125.92 L 131.43 121.91 A 44 44 0 0 0 138.52 107 L 147 107 C 148.11 107 149 106.11 149 105 L 149 87 C 149 85.89 148.11 85 147 85 L 138.60 85 A 44 44 0 0 0 131.50 70.02 L 135.44 66.08 C 136.19 65.33 136.19 64.12 135.44 63.36 L 128.64 56.56 C 127.88 55.81 126.67 55.81 125.92 56.56 L 121.98 60.50 A 44 44 0 0 0 107 53.40 L 107 45 C 107 43.89 106.11 43 105 43 L 87 43 z M 88.13 86 L 103.87 86 C 105.05 86 106 86.92 106 88.07 L 106 103.93 C 106 105.08 105.05 106 103.87 106 L 88.13 106 C 86.95 106 86 105.08 86 103.93 L 86 88.07 C 86 86.92 86.95 86 88.13 86 z "/>
</svg>
