<svg xmlns="http://www.w3.org/2000/svg" id="svg28" width="192" height="192" version="1.1"><defs><filter style="color-interpolation-filters:sRGB" id="filter877" width="1.11" height="1.08" x=".06" y=".04"><feGaussianBlur stdDeviation="2.8"/></filter><filter style="color-interpolation-filters:sRGB" id="filter884" width="1.07" height="1.17" x=".03" y=".09"><feGaussianBlur stdDeviation="1.44"/></filter></defs><rect width="112" height="16" x="40" y="152" style="fill:#4d401e"/><rect width="16" height="40" x="88" y="28" style="fill:#4d401e"/><path d="m 88,20 c -2.22,0 -4,1.78 -4,4 v 20 c 0,2.22 1.78,4 4,4 h 16 c 2.22,0 4,-1.78 4,-4 V 24 c 0,-2.22 -1.78,-4 -4,-4 z m 8,36 a 60,60 0 0 0 -60,60 v 12 28 H 156 V 128 116 A 60,60 0 0 0 96,56 Z M 36,164 v 8 c 0,4.43 3.57,8 8,8 h 104 c 4.43,0 8,-3.57 8,-8 v -8 z" style="filter:url(#filter877);opacity:.2"/><rect width="24" height="28" x="84" y="16" ry="4" style="fill:#baa74b"/><path d="m 96,52 a 60,60 0 0 0 -60,60 v 40 H 156 V 112 A 60,60 0 0 0 96,52 Z M 36,160 v 8 c 0,4.43 3.57,8 8,8 h 104 c 4.43,0 8,-3.57 8,-8 v -8 z" style="fill:#baa74b"/><path d="m 64,106 a 20,20 0 0 0 -20,20 20,20 0 0 0 20,20 20,20 0 0 0 20,-20 20,20 0 0 0 -20,-20 z m 64,0 a 20,20 0 0 0 -20,20 20,20 0 0 0 20,20 20,20 0 0 0 20,-20 20,20 0 0 0 -20,-20 z" style="filter:url(#filter884);opacity:.2"/><circle cx="64" cy="124" r="20" style="fill:#e7c275"/><circle cx="128" cy="124" r="20" style="fill:#e7c275"/><path d="m 92,52 v 100 h 8 V 52 Z m 16,8 a 4,4 0 0 0 -4,4 4,4 0 0 0 4,4 4,4 0 0 0 4,-4 4,4 0 0 0 -4,-4 z m 0,16 a 4,4 0 0 0 -4,4 4,4 0 0 0 4,4 4,4 0 0 0 4,-4 4,4 0 0 0 -4,-4 z m 0,16 a 4,4 0 0 0 -4,4 4,4 0 0 0 4,4 4,4 0 0 0 4,-4 4,4 0 0 0 -4,-4 z" style="opacity:.2"/><circle cx="64" cy="124" r="8" style="opacity:.8"/><circle cx="128" cy="124" r="8" style="opacity:.8"/><path style="opacity:.2;fill:#fff" d="M 88 16 C 85.78 16 84 17.78 84 20 L 84 21 C 84 18.78 85.78 17 88 17 L 104 17 C 106.22 17 108 18.78 108 21 L 108 20 C 108 17.78 106.22 16 104 16 L 88 16 z M 96 52 C 62.86 52 36 78.86 36 112 L 36 113 C 36 79.86 62.86 53 96 53 C 129.14 53 156 79.86 156 113 L 156 112 C 156 78.86 129.14 52 96 52 z M 36 160 L 36 161 L 156 161 L 156 160 L 36 160 z"/><path style="opacity:.2;fill:#fff" d="M 64 104 A 20 20 0 0 0 44 124 A 20 20 0 0 0 44.04 124.65 A 20 20 0 0 1 64 105 A 20 20 0 0 1 83.98 124.38 A 20 20 0 0 0 84 124 A 20 20 0 0 0 64 104 z M 128 104 A 20 20 0 0 0 108 124 A 20 20 0 0 0 108.04 124.65 A 20 20 0 0 1 128 105 A 20 20 0 0 1 147.98 124.38 A 20 20 0 0 0 148 124 A 20 20 0 0 0 128 104 z"/></svg>