<?xml version='1.0' encoding='utf-8'?>
<svg xmlns="http://www.w3.org/2000/svg" width="192" height="192" version="1.1" id="svg20">
  <defs>
    <filter style="color-interpolation-filters:sRGB" id="filter861" x="-0.048000001" y="-0.048000001" width="1.096" height="1.096">
      <feGaussianBlur stdDeviation="3.2"/>
    </filter>
    <filter style="color-interpolation-filters:sRGB" id="filter865" x="-0.056758109" y="-0.074222143" width="1.1135162" height="1.1484443">
      <feGaussianBlur stdDeviation="3.2162929"/>
    </filter>
  </defs>
  <circle style="filter:url(#filter861);opacity:0.2" cx="96" cy="100" r="80"/>
  <path style="fill:#1955aa" d="m 176,96 c 0,44.18278 -35.81722,80 -80,80 -36.737772,0 -67.691727,-24.76346 -77.080376,-58.50891 -1.902635,-6.83861 3.767682,-3.89128 3.767682,-11.33629 0,-1.6124 -6.639605,-13.368448 -6.545537,-14.957224 C 18.625349,49.250712 53.429616,16 96,16 c 44.18278,0 80,35.81722 80,80 z"/>
  <path style="filter:url(#filter865);opacity:0.2" d="M 120,52 A 32,32 0 0 0 88.046876,82.585936 L 72.781248,108.03125 A 24,24 0 0 0 72,108 24,24 0 0 0 57.695312,112.76562 L 16.257812,94.890624 A 80,80 0 0 0 16,100 a 80,80 0 0 0 3.210938,22.29688 l 28.96875,12.49218 A 24,24 0 0 0 72,156 24,24 0 0 0 96,132 24,24 0 0 0 95.9688,131.35156 L 122.49219,115.875 A 32,32 0 0 0 152,84 32,32 0 0 0 120,52 Z m 0,12 a 20,20 0 0 1 20,20 20,20 0 0 1 -20,20 20,20 0 0 1 -20,-20 20,20 0 0 1 20,-20 z m 0,4 a 16,16 0 0 0 -16,16 16,16 0 0 0 16,16 16,16 0 0 0 16,-16 16,16 0 0 0 -16,-16 z m -48,48 a 16,16 0 0 1 16,16 16,16 0 0 1 -16,16 16,16 0 0 1 -14.445312,-9.16406 L 67.25,143.01562 a 12.0012,12.0012 0 1 0 9.5,-22.03124 l -9.695312,-4.17969 A 16,16 0 0 1 72,116 Z"/>
  <path style="fill:#ffffff" d="m 92,72 12,28 32,4 -48,28 V 112 H 68 Z"/>
  <path style="fill:#ffffff" d="m 120,48 a 32,32 0 0 0 -32,32 32,32 0 0 0 32,32 32,32 0 0 0 32,-32 32,32 0 0 0 -32,-32 z m 0,12 a 20,20 0 0 1 20,20 20,20 0 0 1 -20,20 20,20 0 0 1 -20,-20 20,20 0 0 1 20,-20 z"/>
  <path style="fill:#ffffff" d="m 72,104 a 24,24 0 0 0 -24,24 24,24 0 0 0 24,24 24,24 0 0 0 24,-24 24,24 0 0 0 -24,-24 z m 0,8 a 16,16 0 0 1 16,16 16,16 0 0 1 -16,16 16,16 0 0 1 -16,-16 16,16 0 0 1 16,-16 z"/>
  <circle style="fill:#ffffff" cx="120" cy="80" r="16"/>
  <path style="fill:#ffffff" d="M 16.257812,90.890624 A 80,80 0 0 0 16,96 80,80 0 0 0 19.210938,118.29688 L 67.25,139.01562 a 12.0012,12.0012 0 1 0 9.5,-22.03124 z"/>
  <path style="opacity:0.1;fill:#ffffff" d="M 96 16 A 80 80 0 0 0 16 96 A 80 80 0 0 0 16.023438 96.638672 A 80 80 0 0 1 96 17 A 80 80 0 0 1 175.98438 96.298828 A 80 80 0 0 0 176 96 A 80 80 0 0 0 96 16 z "/>
</svg>
