<svg xmlns="http://www.w3.org/2000/svg" id="svg18" width="192" height="192" version="1.1"><defs><filter style="color-interpolation-filters:sRGB" id="filter857" width="1.1" height="1.1" x=".05" y=".05"><feGaussianBlur stdDeviation="3.2"/></filter><filter style="color-interpolation-filters:sRGB" id="filter883" width="1.1" height="1.1" x=".05" y=".05"><feGaussianBlur stdDeviation="2.88"/></filter></defs><circle cx="96" cy="100" r="80" style="filter:url(#filter857);opacity:.2"/><circle cx="96" cy="96" r="80" style="fill:#fecd38"/><path style="opacity:.2;fill:#fff" d="m 96,16.00 a 80,80 0 0 0 -80,80 80,80 0 0 0 0.02,0.64 A 80,80 0 0 1 96,17.00 80,80 0 0 1 175.98,96.30 80,80 0 0 0 176,96.00 a 80,80 0 0 0 -80,-80 z"/><path d="m 96,26.00 a 72,72 0 0 0 -72,72 72,72 0 0 0 72,72.00 72,72 0 0 0 72,-72.00 72,72 0 0 0 -72,-72 z m 0,8 a 64,64 0 0 1 64,64 64,64 0 0 1 -64,64.00 64,64 0 0 1 -64,-64.00 64,64 0 0 1 64,-64 z m -28,44 c -20,0 -28,4 -28,4 v 12 c 0,0 4,0 4,4 0,4.00 4,16.00 20,16.00 24,0 20,-4 24,-16.00 1.79,-5.37 4,-8 8,-8 4,0 6.21,2.63 8,8 4,12.00 0,16.00 24,16.00 16,0 20,-12 20,-16.00 0,-4 4,-4 4,-4 v -12 c 0,0 -4.94,-2.40 -16.52,-3.48 L 132,82.00 l 4,4 -20,12 8,-12 -4,-4 4,-4 c -12,0 -20,4 -28,4 -8,0 -16,-4 -28,-4 z m 52.67,45.78 c 0,0 -1.81,2.70 -4.50,5.39 C 113.49,131.86 110,134.00 108,134.00 h -8 v 8 h 8 c 6,0 10.51,-3.86 13.83,-7.17 3.31,-3.31 5.50,-6.61 5.50,-6.61 z" style="filter:url(#filter883);opacity:.2"/><path d="m 96,24.00 a 72,72 0 0 0 -72,72 72,72 0 0 0 72,72.00 72,72 0 0 0 72,-72.00 72,72 0 0 0 -72,-72 z m 0,8 a 64,64 0 0 1 64,64 64,64 0 0 1 -64,64.00 64,64 0 0 1 -64,-64.00 64,64 0 0 1 64,-64 z m -28,44 c -20,0 -28,4 -28,4 v 12 c 0,0 4,0 4,4 0,4.00 4,16.00 20,16.00 24,0 20,-4 24,-16.00 1.79,-5.37 4,-8 8,-8 4,0 6.21,2.63 8,8 4,12.00 0,16.00 24,16.00 16,0 20,-12 20,-16.00 0,-4 4,-4 4,-4 v -12 c 0,0 -4.94,-2.40 -16.52,-3.48 L 132,80.00 l 4,4 -20,12 8,-12 -4,-4 4,-4 c -12,0 -20,4 -28,4 -8,0 -16,-4 -28,-4 z m 52.67,45.78 c 0,0 -1.81,2.70 -4.50,5.39 C 113.49,129.86 110,132.00 108,132.00 h -8 v 8 h 8 c 6,0 10.51,-3.86 13.83,-7.17 3.31,-3.31 5.50,-6.61 5.50,-6.61 z" style="fill:#4f4f4f"/></svg>