<?xml version='1.0' encoding='utf-8'?>
<svg xmlns="http://www.w3.org/2000/svg" width="192" height="192" version="1.1" id="svg16">
  <defs>
    <filter style="color-interpolation-filters:sRGB" id="filter853" x="-0.048000001" y="-0.048000001" width="1.096" height="1.096">
      <feGaussianBlur stdDeviation="3.2"/>
    </filter>
    <filter style="color-interpolation-filters:sRGB" id="filter865" x="-0.048092036" y="-0.073987748" width="1.0961841" height="1.1479755">
      <feGaussianBlur stdDeviation="3.2061358"/>
    </filter>
    <filter style="color-interpolation-filters:sRGB" id="filter869" x="-0.0336" y="-0.084" width="1.0672" height="1.168">
      <feGaussianBlur stdDeviation="0.56"/>
    </filter>
  </defs>
  <circle style="filter:url(#filter853);opacity:0.2" cx="96" cy="100" r="80"/>
  <circle style="fill:#bfee00" cx="96" cy="96" r="80"/>
  <path style="opacity:0.2;fill:#ffffff" d="M 96 16 A 80 80 0 0 0 16 96 A 80 80 0 0 0 16.023438 96.638672 A 80 80 0 0 1 96 17 A 80 80 0 0 1 175.98438 96.302734 A 80 80 0 0 0 176 96 A 80 80 0 0 0 96 16 z "/>
  <path style="filter:url(#filter865);opacity:0.2" d="m 72,34 c -16,0 -24,8 -24,8 l 4,4 c 0,0 8,-8 20,-8 12,0 20,8 20,8 l 4,-4 c 0,0 -8,-8 -24,-8 z m 0,12 c -5.497476,0 -16,4 -16,4 l 4,4 c 0,0 7.783628,-4 12,-4 4.216372,0 12,4 12,4 l 4,-4 c 0,0 -10.502524,-4 -16,-4 z m 0,8 -8,20 H 19.703124 A 80,80 0 0 0 16,98 80,80 0 0 0 19.781252,122 H 84 l 12,16 12,-16 h 64.29688 A 80,80 0 0 0 176,98 80,80 0 0 0 172.21875,74 H 128 l -8,-20 -8,20 H 80 Z"/>
  <path style="fill:#162d50" d="m 72,32 c -16,0 -24,8 -24,8 l 4,4 c 0,0 8,-8 20,-8 12,0 20,8 20,8 l 4,-4 c 0,0 -8,-8 -24,-8 z m 0,12 c -5.497476,0 -16,4 -16,4 l 4,4 c 0,0 7.783628,-4 12,-4 4.216372,0 12,4 12,4 l 4,-4 c 0,0 -10.502524,-4 -16,-4 z m 0,8 -8,20 H 19.703124 a 80,80 0 0 0 -3.703125,24 80,80 0 0 0 3.78125,24 H 84 l 12,16 12,-16 h 64.29688 A 80,80 0 0 0 176,96 80,80 0 0 0 172.21875,72 H 128 l -8,-20 -8,20 H 80 Z"/>
  <path style="filter:url(#filter869);opacity:0.2" d="m 76,94 v 16 h 8 V 94 Z m 32,0 v 16 h 8 V 94 Z"/>
  <path style="fill:#ffaaee" d="m 76,92 v 16 h 8 V 92 Z m 32,0 v 16 h 8 V 92 Z"/>
</svg>
