<?xml version='1.0' encoding='utf-8'?>
<svg xmlns="http://www.w3.org/2000/svg" width="192" height="192" version="1.1" id="svg34">
  <defs>
    <filter style="color-interpolation-filters:sRGB" id="filter889" x="0.05" y="0.05" width="1.10" height="1.10">
      <feGaussianBlur stdDeviation="3.28"/>
    </filter>
    <filter style="color-interpolation-filters:sRGB" id="filter893" x="0.06" y="0.06" width="1.12" height="1.12">
      <feGaussianBlur stdDeviation="2.64"/>
    </filter>
    <filter style="color-interpolation-filters:sRGB" id="filter898" x="0.05" y="0.05" width="1.10" height="1.10">
      <feGaussianBlur stdDeviation="1.84"/>
    </filter>
  </defs>
  <path style="filter:url(#filter889);opacity:0.20" d="M 20.02,85.50 81.50,24.02 c 8.03,-8.03 20.96,-8.03 28.99,0 l 61.48,61.48 c 8.03,8.03 8.03,20.96 0,28.99 l -61.48,61.48 c -8.03,8.03 -20.96,8.03 -28.99,0 L 20.02,114.50 c -8.03,-8.03 -8.03,-20.96 0,-28.99 z"/>
  <path style="fill:#519b31" d="M 20.02,81.50 81.50,20.02 c 8.03,-8.03 20.96,-8.03 28.99,0 l 61.48,61.48 c 8.03,8.03 8.03,20.96 0,28.99 l -61.48,61.48 c -8.03,8.03 -20.96,8.03 -28.99,0 L 20.02,110.50 c -8.03,-8.03 -8.03,-20.96 0,-28.99 z"/>
  <rect style="filter:url(#filter893);opacity:0.20" width="105.71" height="105.71" x="-55.67" y="85.72" rx="21.17" ry="21.17" transform="rotate(-45)"/>
  <rect style="fill:#ffe8b6" width="105.71" height="105.71" x="-52.87" y="82.92" rx="21.17" ry="21.17" transform="rotate(-45)"/>
  <rect style="fill:#d0273d" width="90.50" height="90.50" x="-45.27" y="90.52" rx="14.50" ry="14.50" transform="rotate(-45)"/>
  <path style="filter:url(#filter898);opacity:0.20" d="m 90.52,52.01 c -2.06,0 -4.12,0.79 -5.70,2.37 L 52.38,86.82 c -3.16,3.16 -3.16,8.25 0,11.40 l 15.42,15.42 c 3.16,3.16 8.25,3.16 11.40,0 L 111.64,81.21 c 3.16,-3.16 3.16,-8.25 0,-11.40 L 96.22,54.38 c -1.58,-1.58 -3.64,-2.37 -5.70,-2.37 z M 118.49,79.99 c -2.06,0 -4.12,0.79 -5.70,2.37 L 80.35,114.79 c -3.16,3.16 -3.16,8.25 0,11.40 l 15.42,15.42 c 3.16,3.16 8.25,3.16 11.40,0 l 32.43,-32.43 c 3.16,-3.16 3.16,-8.25 0,-11.40 L 124.19,82.36 c -1.58,-1.58 -3.64,-2.37 -5.70,-2.37 z"/>
  <rect style="fill:#ff5b54" width="62.00" height="37.94" x="-30.99" y="97" rx="8.06" ry="8.06" transform="rotate(-45)"/>
  <rect style="fill:#ff5b54" width="62.00" height="37.94" x="-30.99" y="136.60" rx="8.06" ry="8.06" transform="rotate(-45)"/>
  <rect style="fill:#3f3f3f" width="38.75" height="23.71" x="-19.39" y="104.12" rx="5.04" ry="5.04" transform="rotate(-45)"/>
  <rect style="fill:#3f3f3f" width="12.12" height="12.12" x="-28.67" y="149.52" rx="1.38" ry="1.38" transform="rotate(-45)"/>
  <rect style="fill:#3f3f3f" width="12.12" height="12.12" x="16.57" y="149.52" rx="1.38" ry="1.38" transform="rotate(-45)"/>
  <path style="opacity:0.20;fill:#ffffff" d="M 90.51 50 C 88.45 50 86.38 50.79 84.80 52.37 L 52.37 84.80 C 50.67 86.50 49.92 88.75 50.06 90.96 C 50.18 89.08 50.93 87.25 52.37 85.80 L 84.80 53.37 C 86.38 51.79 88.45 51 90.51 51 C 92.57 51 94.63 51.79 96.21 53.37 L 111.63 68.79 C 113.07 70.23 113.82 72.07 113.94 73.94 C 114.07 71.73 113.33 69.49 111.63 67.79 L 96.21 52.37 C 94.63 50.79 92.57 50 90.51 50 z M 118.51 78 C 116.45 78 114.38 78.79 112.80 80.37 L 80.37 112.80 C 78.67 114.50 77.92 116.75 78.06 118.96 C 78.18 117.08 78.93 115.25 80.37 113.80 L 112.80 81.37 C 114.38 79.79 116.45 79 118.51 79 C 120.57 79 122.63 79.79 124.21 81.37 L 139.63 96.79 C 141.07 98.23 141.82 100.07 141.94 101.94 C 142.07 99.73 141.33 97.49 139.63 95.79 L 124.21 80.37 C 122.63 78.79 120.57 78 118.51 78 z "/>
  <path style="opacity:0.20;fill:#ffffff" d="M 96 14 C 90.76 14 85.52 16.01 81.51 20.02 L 20.02 81.51 C 15.92 85.61 14.01 90.99 14.12 96.35 C 14.26 91.33 16.17 86.36 20.02 82.51 L 81.51 21.02 C 85.52 17.01 90.76 15 96 15 C 101.24 15 106.48 17.01 110.49 21.02 L 171.98 82.51 C 175.83 86.36 177.74 91.33 177.88 96.35 C 177.99 90.99 176.08 85.61 171.98 81.51 L 110.49 20.02 C 106.48 16.01 101.24 14 96 14 z "/>
  <path style="opacity:0.20;fill:#ffffff" d="M 96 30 C 90.59 30 85.18 32.07 81.03 36.22 L 36.22 81.03 C 31.99 85.26 30.02 90.80 30.12 96.31 C 30.27 91.13 32.25 86.00 36.22 82.03 L 81.03 37.22 C 85.18 33.07 90.59 31 96 31 C 101.41 31 106.82 33.07 110.97 37.22 L 155.78 82.03 C 159.75 86.00 161.73 91.13 161.88 96.31 C 161.98 90.80 160.01 85.26 155.78 81.03 L 110.97 36.22 C 106.82 32.07 101.41 30 96 30 z "/>
</svg>
