<svg xmlns="http://www.w3.org/2000/svg" id="svg26" width="192" height="192" version="1.1"><defs><filter style="color-interpolation-filters:sRGB" id="filter874" width="1.08" height="1.13" x=".04" y=".06"><feGaussianBlur stdDeviation="1.16"/></filter><filter style="color-interpolation-filters:sRGB" id="filter878" width="1.1" height="1.1" x=".05" y=".05"><feGaussianBlur stdDeviation="1.92"/></filter><filter style="color-interpolation-filters:sRGB" id="filter882" width="1.09" height="1.1" x=".05" y=".05"><feGaussianBlur stdDeviation="2.48"/></filter><filter style="color-interpolation-filters:sRGB" id="filter904" width="1.08" height="1.13" x=".04" y=".06"><feGaussianBlur stdDeviation="1.16"/></filter></defs><rect style="filter:url(#filter882);opacity:.2" width="128" height="120" x="32" y="24" rx="8" ry="8"/><path style="filter:url(#filter874);opacity:.2" d="M 71.50,135 C 65.13,135 60,140.35 60,147 v 20 c 0,6.65 5.13,12 11.50,12 h 1.00 C 78.87,179 84,173.65 84,167 v -20 c 0,-6.65 -5.13,-12 -11.50,-12 z M 120,135 c -6.65,0 -12,5.35 -12,12 v 20 c 0,6.65 5.35,12 12,12 6.65,0 12,-5.35 12,-12 v -20 c 0,-6.65 -5.35,-12 -12,-12 z"/><rect style="fill:#c9c9c9" width="128" height="120" x="32" y="20" rx="8" ry="8"/><rect style="fill:#4f4f4f" width="24" height="44" x="108" y="132" rx="12" ry="12"/><rect style="fill:#4f4f4f" width="24" height="44" x="60" y="132" rx="11.5" ry="12"/><rect style="filter:url(#filter878);opacity:.2" width="96" height="96" x="48" y="64" rx="8.35" ry="8.33"/><rect style="fill:#e4e4e4" width="96" height="96" x="48" y="60" rx="8.35" ry="8.33"/><rect style="filter:url(#filter904);opacity:.2" width="72" height="44.33" x="60" y="73.67" rx="8" ry="8"/><rect style="fill:#4f4f4f" width="72" height="44.33" x="60" y="72" rx="8" ry="8"/><path style="opacity:.1;fill:#fff" d="M 40 20 C 35.57 20 32 23.57 32 28 L 32 29 C 32 24.57 35.57 21 40 21 L 152 21 C 156.43 21 160 24.57 160 29 L 160 28 C 160 23.57 156.43 20 152 20 L 40 20 z"/><path style="opacity:.2;fill:#fff" d="M 56.35 60 C 51.73 60 48 63.72 48 68.34 L 48 69.34 C 48 64.72 51.73 61 56.35 61 L 135.65 61 C 140.27 61 144 64.72 144 69.34 L 144 68.34 C 144 63.72 140.27 60 135.65 60 L 56.35 60 z"/></svg>