<?xml version='1.0' encoding='utf-8'?>
<svg xmlns="http://www.w3.org/2000/svg" width="192" height="192" version="1" id="svg15">
  <defs>
    <filter style="color-interpolation-filters:sRGB" id="filter852" x="-0.048000001" y="-0.048000001" width="1.096" height="1.096">
      <feGaussianBlur stdDeviation="3.2"/>
    </filter>
    <filter style="color-interpolation-filters:sRGB" id="filter856" x="-0.049713886" y="-0.046400348" width="1.0994278" height="1.0928007">
      <feGaussianBlur stdDeviation="2.3199813"/>
    </filter>
  </defs>
  <circle style="filter:url(#filter852);opacity:0.2" cx="96" cy="100" r="80"/>
  <circle style="fill:#595f93" cx="96" cy="96" r="80"/>
  <path style="opacity:0.1;fill:#ffffff" d="M 96 16 A 80 80 0 0 0 16 96 A 80 80 0 0 0 16.023438 96.638672 A 80 80 0 0 1 96 17 A 80 80 0 0 1 175.98438 96.298828 A 80 80 0 0 0 176 96 A 80 80 0 0 0 96 16 z "/>
  <path style="filter:url(#filter856);opacity:0.2" d="m 60.742736,38.007812 c -0.620548,0.04376 -1.39042,0.32292 -2.492256,0.859376 -6.182376,3.009912 -13.059812,11.744132 -16.047296,20.375 -2.66408,7.696524 -2.922035,16.133544 -0.710956,22.992188 2.537972,7.636292 8.238108,14.101692 14.304616,19.484374 1.758232,3.83875 -0.70934,6.81441 0.421888,17.05469 0.784168,7.09855 1.161404,9.52832 1.984428,12.8125 2.196412,17.84443 13.797684,26.412 37.798316,26.41406 24.000634,-0.002 35.598954,-8.56963 37.795364,-26.41406 0.82303,-3.28418 1.20026,-5.71395 1.98443,-12.8125 1.13123,-10.24028 -1.33635,-13.21594 0.42189,-17.05469 6.0665,-5.382682 11.76959,-11.848082 14.30756,-19.484374 2.21108,-6.858644 1.95313,-15.295664 -0.71095,-22.992188 -2.98749,-8.630868 -9.86493,-17.365088 -16.0473,-20.375 -1.10184,-0.536452 -1.87171,-0.81562 -2.49225,-0.859376 -0.62055,-0.04378 -1.08558,0.15472 -1.58598,0.578124 0,0 4.23845,4.350752 4.71106,8.625 -0.88715,3.119012 -6.86737,2.617188 -6.86737,2.617188 0,-4e-6 9.21857,8.49312 10.84404,15.101564 1.30912,5.552092 0.60013,15.810564 -5.55484,18.382812 0,0 -15.31891,-5.3125 -36.805654,-5.3125 -21.486748,0 -36.80566,5.3125 -36.80566,5.3125 C 53.040848,80.740252 52.33186,70.48178 53.640984,64.929688 55.266452,58.321244 64.48502,49.82812 64.48502,49.828124 c 0,0 -5.98022,0.501824 -6.867368,-2.617188 0.472612,-4.274248 4.71106,-8.625 4.71106,-8.625 -0.500396,-0.423392 -0.965428,-0.621898 -1.585976,-0.578124 z"/>
  <path style="fill:#ffffff" d="m 60.742736,36.007812 c -0.620548,0.04376 -1.39042,0.322924 -2.492256,0.859376 -6.182376,3.009912 -13.059812,11.744132 -16.047296,20.375 -2.66408,7.696524 -2.922035,16.133544 -0.710956,22.992188 2.537972,7.636292 8.238108,14.101692 14.304616,19.484376 1.758232,3.838748 -0.70934,6.814408 0.421888,17.054688 0.784168,7.09855 1.161404,9.52832 1.984428,12.8125 2.196412,17.84443 13.797684,26.412 37.798316,26.41406 24.000634,-0.002 35.598954,-8.56963 37.795364,-26.41406 0.82303,-3.28418 1.20026,-5.71395 1.98443,-12.8125 1.13123,-10.24028 -1.33635,-13.21594 0.42189,-17.054688 6.0665,-5.382684 11.76959,-11.848084 14.30756,-19.484376 2.21108,-6.858644 1.95313,-15.295664 -0.71095,-22.992188 -2.98749,-8.630868 -9.86493,-17.365088 -16.0473,-20.375 -1.10184,-0.536453 -1.87171,-0.81562 -2.49225,-0.859376 -0.62055,-0.04378 -1.08558,0.154732 -1.58598,0.578126 0,0 4.23845,4.35075 4.71106,8.624998 -0.88715,3.119012 -6.86737,2.617188 -6.86737,2.617188 0,-4e-6 9.21857,8.49312 10.84404,15.101564 1.30912,5.552092 0.60013,15.810564 -5.55484,18.382812 0,0 -15.31891,-5.3125 -36.805654,-5.3125 -21.486748,0 -36.80566,5.3125 -36.80566,5.3125 C 53.040848,78.740252 52.33186,68.48178 53.640984,62.929688 55.266452,56.321244 64.48502,47.82812 64.48502,47.828124 c 0,0 -5.98022,0.501824 -6.867368,-2.617188 0.472612,-4.274248 4.71106,-8.624998 4.71106,-8.624998 -0.500396,-0.423394 -0.965428,-0.6219 -1.585976,-0.578126 z"/>
  <ellipse style="fill:#3f3f3f" cx="161.448" cy="60.167999" rx="11.564" ry="14.364" transform="matrix(0.88238941,0.47051985,-0.43981122,0.89809025,0,0)"/>
  <ellipse style="fill:#3f3f3f" cx="-11.084" cy="150.56" rx="11.564" ry="14.364" transform="matrix(-0.88238941,0.47051985,0.43981122,0.89809025,0,0)"/>
</svg>
