<?xml version='1.0' encoding='utf-8'?>
<svg xmlns="http://www.w3.org/2000/svg" width="192" height="192" version="1.1" id="svg20">
  <defs>
    <filter style="color-interpolation-filters:sRGB" id="filter866" x="0.05" y="0.05" width="1.10" height="1.09">
      <feGaussianBlur stdDeviation="3.12"/>
    </filter>
    <filter style="color-interpolation-filters:sRGB" id="filter874" x="0.03" y="0.17" width="1.06" height="1.34">
      <feGaussianBlur stdDeviation="1.12"/>
    </filter>
  </defs>
  <path d="m 92.00,20.00 c 80.00,0 80.00,72 80.00,72 0,0 0,48.00 -16,64.00 -24,24 -48,24 -72.00,24 -32,0 -56,-28 -56,-48 V 68.00 l -8,8 8,-24 h -8 l 16,-8 h -8 l 16,-8 h -8 c 0,0 24,-16 56,-16 z" style="filter:url(#filter866);opacity:0.20" transform="matrix(-1,0,0,1,192,0)"/>
  <path d="m 100,16.00 c -80,0 -80,72 -80,72 0,0 0,48.00 16,64.00 24,24 48,24 72,24 32,0 56,-28 56,-48 V 64.00 l 8,8 -8,-24 h 8 l -16,-8 h 8 l -16,-8 h 8 c 0,0 -24,-16 -56,-16 z" style="fill:#4f4f4f"/>
  <path d="M 100.00,90.00 C 116,90.00 124,106.00 124,106.00 H 68.00 c 0,0 16,-16.00 32,-16.00 z m -64,8 c 10.13,0 24,8.00 24,8.00 h -32 c 0,0 0,-8.00 8,-8.00 z" style="filter:url(#filter874);opacity:0.20" transform="matrix(-1,0,0,1,192,0)"/>
  <path d="M 92.00,88.00 C 76,88.00 68,104.00 68,104.00 h 56 c 0,0 -16,-16.00 -32.00,-16.00 z m 64.00,8 c -10.13,0 -24,8.00 -24,8.00 h 32 c 0,0 0,-8.00 -8,-8.00 z" style="fill:#ffffff"/>
  <path style="opacity:0.10;fill:#ffffff" d="m 100,16.00 c 32,0 56,16 56,16 h -1.64 c -5.71,-3.42 -27.05,-15 -54.36,-15 -79.26,0 -79.98,70.47 -79.99,71.77 0.00,0.20 0.01,0.77 0.01,0.77 0,0 0,-72 80,-72 z m 50,17 14,7 h -2 l -14,-7 z m 8,8 14,7 h -2 l -14,-7 z m 6.33,8 7.67,23 0.50,0.50 -7.50,-22.50 z"/>
</svg>
