<?xml version='1.0' encoding='utf-8'?>
<svg xmlns="http://www.w3.org/2000/svg" width="192" height="192" version="1" id="svg14">
  <defs>
    <filter style="color-interpolation-filters:sRGB" id="filter850" x="0.05" width="1.10" y="0.05" height="1.10">
      <feGaussianBlur stdDeviation="3.20"/>
    </filter>
    <filter style="color-interpolation-filters:sRGB" id="filter7517" x="0.11" y="0.11" width="1.22" height="1.22">
      <feGaussianBlur stdDeviation="1.98"/>
    </filter>
  </defs>
  <circle style="filter:url(#filter850);opacity:0.20;fill:#000000" cx="96" cy="100" r="80"/>
  <path style="fill:#e4e4e4" d="m 176,96 c 0,44.18 -35.82,80 -80,80 C 51.82,176 16,140.18 16,96 16,51.82 50.96,79.20 95.14,79.20 139.33,79.20 176,51.82 176,96 Z"/>
  <path style="fill:#e9533c" d="M 96 16 A 80 80 0 0 0 16 96 L 176 96 A 80 80 0 0 0 96 16 z "/>
  <path style="fill:#3f3f3f" d="M 16.36 91 A 80 80 0 0 0 16 96 A 80 80 0 0 0 16.36 101 L 175.64 101 A 80 80 0 0 0 176 96 A 80 80 0 0 0 175.82 91 L 16.36 91 z "/>
  <circle style="fill:#3f3f3f" cx="96" cy="96" r="32"/>
  <circle style="filter:url(#filter7517);opacity:0.20;fill:#000000" cx="96" cy="98" r="22"/>
  <circle style="fill:#ffffff" cx="96" cy="96" r="22"/>
  <path style="opacity:0.20;fill:#ffffff" d="M 96 16 A 80 80 0 0 0 16 96 A 80 80 0 0 0 16.02 96.47 A 80 80 0 0 1 96 17 A 80 80 0 0 1 175.97 96.51 A 80 80 0 0 0 176 96 A 80 80 0 0 0 96 16 z "/>
</svg>
