<?xml version='1.0' encoding='utf-8'?>
<svg xmlns="http://www.w3.org/2000/svg" width="192" height="192" version="1" id="svg14">
  <defs>
    <filter style="color-interpolation-filters:sRGB" id="filter967" x="0.05" y="0.05" width="1.10" height="1.10">
      <feGaussianBlur stdDeviation="3.20"/>
    </filter>
    <filter style="color-interpolation-filters:sRGB" id="filter971" x="0.05" y="0.05" width="1.09" height="1.10">
      <feGaussianBlur stdDeviation="2.48"/>
    </filter>
  </defs>
  <rect style="filter:url(#filter967);opacity:0.20;fill:#000000" width="160" height="160" x="16" y="20" rx="8" ry="8"/>
  <rect style="fill:#d9b263" width="160" height="160" x="16" y="16" rx="8" ry="8"/>
  <path style="filter:url(#filter971);opacity:0.20;fill-rule:evenodd" d="M 96,38 A 64,60 0 0 0 32,98 64,60 0 0 0 96,158 64,60 0 0 0 160,98 64,60 0 0 0 96,38 Z m 0,12 A 44,48 0 0 1 140,98 44,48 0 0 1 96,146 44,48 0 0 1 52,98 44,48 0 0 1 96,50 Z M 72,82 v 32 h 4 c 0,-8 0,-8 20,-8 16,0 16,0 16,8 h 4 V 82 h -4 c 0,8 0,8 -16,8 -20,0 -20,0 -20,-8 z"/>
  <path style="opacity:0.20;fill:#ffffff" d="M 24 16 C 19.57 16 16 19.57 16 24 L 16 25 C 16 20.57 19.57 17 24 17 L 168 17 C 172.43 17 176 20.57 176 25 L 176 24 C 176 19.57 172.43 16 168 16 L 24 16 z "/>
  <path style="fill:#3f3f3f;fill-rule:evenodd" d="M 96,36 A 64,60 0 0 0 32,96 64,60 0 0 0 96,156 64,60 0 0 0 160,96 64,60 0 0 0 96,36 Z m 0,12 A 44,48 0 0 1 140,96 44,48 0 0 1 96,144 44,48 0 0 1 52,96 44,48 0 0 1 96,48 Z"/>
  <path style="fill:#3f3f3f;fill-rule:evenodd" d="m 72,80 v 32 h 4 c 0,-8 0,-8 20,-8 16,0 16,0 16,8 h 4 V 80 h -4 c 0,8 0,8 -16,8 -20,0 -20,0 -20,-8 z"/>
</svg>
