<?xml version='1.0' encoding='utf-8'?>
<svg xmlns="http://www.w3.org/2000/svg" width="192" height="192" version="1.1" id="svg18">
  <defs>
    <filter style="color-interpolation-filters:sRGB" id="filter857" x="-0.048000001" y="-0.048000001" width="1.096" height="1.096">
      <feGaussianBlur stdDeviation="3.2"/>
    </filter>
    <filter style="color-interpolation-filters:sRGB" id="filter861" x="-0.048" y="-0.048" width="1.096" height="1.096">
      <feGaussianBlur stdDeviation="1.76"/>
    </filter>
    <filter style="color-interpolation-filters:sRGB" id="filter883" x="-0.048000002" y="-0.048000002" width="1.096" height="1.096">
      <feGaussianBlur stdDeviation="2.88"/>
    </filter>
  </defs>
  <circle cx="90" cy="96" r="80" style="filter:url(#filter857);opacity:0.2"/>
  <circle cx="90" cy="92" r="80" style="fill:#fecd38"/>
  <path style="opacity:0.2;fill:#ffffff" d="M 90 12 A 80 80 0 0 0 10 92 A 80 80 0 0 0 10.023438 92.638672 A 80 80 0 0 1 90 13 A 80 80 0 0 1 169.98438 92.302734 A 80 80 0 0 0 170 92 A 80 80 0 0 0 90 12 z "/>
  <path d="M 90,22 A 72,72 0 0 0 18,94 72,72 0 0 0 90,166 72,72 0 0 0 162,94 72,72 0 0 0 90,22 Z m 0,8 A 64,64 0 0 1 154,94 64,64 0 0 1 90,158 64,64 0 0 1 26,94 64,64 0 0 1 90,30 Z M 62,74 c -20,0 -28,4 -28,4 v 12 c 0,0 4,0 4,4 0,4 4,16 20,16 24,0 20,-4 24,-16 1.788856,-5.366564 4,-8 8,-8 4,0 6.211144,2.633436 8,8 4,12 0,16 24,16 16,0 20,-12 20,-16 0,-4 4,-4 4,-4 V 78 c 0,0 -4.94047,-2.402536 -16.52344,-3.476564 L 126,78 l 4,4 -20,12 8,-12 -4,-4 4,-4 c -12,0 -20,4 -28,4 -8,0 -16,-4 -28,-4 z m 52.67188,45.78125 c 0,0 -1.81428,2.70489 -4.5,5.39063 C 107.48614,127.8576 104,130 102,130 h -8 v 8 h 8 c 6,0 10.51386,-3.8576 13.82812,-7.17188 3.31428,-3.31426 5.5,-6.60937 5.5,-6.60937 z" style="filter:url(#filter883);opacity:0.2"/>
  <path d="M 90,20 A 72,72 0 0 0 18,92 72,72 0 0 0 90,164 72,72 0 0 0 162,92 72,72 0 0 0 90,20 Z m 0,8 A 64,64 0 0 1 154,92 64,64 0 0 1 90,156 64,64 0 0 1 26,92 64,64 0 0 1 90,28 Z M 62,72 c -20,0 -28,4 -28,4 v 12 c 0,0 4,0 4,4 0,4 4,16 20,16 24,0 20,-4 24,-16 1.788856,-5.366564 4,-8 8,-8 4,0 6.211144,2.633436 8,8 4,12 0,16 24,16 16,0 20,-12 20,-16 0,-4 4,-4 4,-4 V 76 c 0,0 -4.94047,-2.402536 -16.52344,-3.476564 L 126,76 l 4,4 -20,12 8,-12 -4,-4 4,-4 c -12,0 -20,4 -28,4 -8,0 -16,-4 -28,-4 z m 52.67188,45.78125 c 0,0 -1.81428,2.70489 -4.5,5.39063 C 107.48614,125.8576 104,128 102,128 h -8 v 8 h 8 c 6,0 10.51386,-3.8576 13.82812,-7.17188 3.31428,-3.31426 5.5,-6.60937 5.5,-6.60937 z" style="fill:#4f4f4f"/>
  <circle cx="138" cy="139" r="44" style="filter:url(#filter861);opacity:0.2"/>
  <circle cx="138" cy="136" r="44" style="fill:#c03630"/>
  <path d="m 138,116 c 0,0 -2.835,-0.056 -5.78908,1.422 C 129.25688,118.8988 126,122.6668 126,128 h 8 c 0,-4 4,-4 4,-4 0,0 4,0 4,4 0,2.1112 -0.5584,3.2916 -1.625,4.6248 -1.0666,1.3336 -2.77344,2.672 -4.77344,4.172 -2,1.5 -4.29316,3.1616 -6.22656,5.5784 C 127.4416,144.7916 126,148.1112 126,152 v 4 h 24 v -8 h -14.59376 c 0.1252,-0.176 0.0748,-0.4448 0.2188,-0.6248 1.0666,-1.3336 2.77344,-2.672 4.77344,-4.172 2,-1.5 4.29316,-3.1616 6.22656,-5.5784 1.9334,-2.4164 3.375,-5.736 3.375,-9.6248 0,-5.3332 -3.25688,-9.1012 -6.21092,-10.578 C 140.835,115.9448 138,116 138,116 Z" style="fill:#ffffff;fill-rule:evenodd"/>
</svg>
