<?xml version='1.0' encoding='utf-8'?>
<svg xmlns="http://www.w3.org/2000/svg" width="192" height="192" version="1" id="svg28">
  <defs>
    <filter style="color-interpolation-filters:sRGB" id="filter6495" x="0.05" y="0.05" width="1.10" height="1.10">
      <feGaussianBlur stdDeviation="3.20"/>
    </filter>
    <filter style="color-interpolation-filters:sRGB" id="filter3355" x="0.16" y="0.08" width="1.32" height="1.16">
      <feGaussianBlur stdDeviation="3.78"/>
    </filter>
  </defs>
  <rect transform="matrix(0,-1,-1,0,0,0)" ry="12" rx="12" y="-176" x="-180" height="160" width="160" style="filter:url(#filter6495);opacity:0.20;fill:#000000"/>
  <rect transform="matrix(0,-1,-1,0,0,0)" ry="12" rx="12" y="-176" x="-176" height="160" width="160" style="fill:#3f3f3f"/>
  <path style="opacity:0.10;fill:#ffffff" d="m 28,16 c -6.65,0 -12,5.35 -12,12 v 1 c 0,-6.65 5.35,-12 12,-12 h 136 c 6.65,0 12,5.35 12,12 v -1 c 0,-6.65 -5.35,-12 -12,-12 z"/>
  <path style="filter:url(#filter3355);opacity:0.20;fill:#000000;color:#000000" d="m 73,42 c -2.76,0.00 -5.00,2.24 -5,5 v 102 c 0,2.76 2.24,5 5,5 2.76,0 5,-2.24 5,-5 v -38 h 8.46 C 88.50,111 91,111.14 91,115.78 V 149 c 0.00,1.33 0.53,2.60 1.47,3.54 0.46,0.46 1.01,0.83 1.62,1.08 0.61,0.25 1.26,0.38 1.92,0.38 1.33,0.00 2.60,0.53 3.53,-1.46 0.94,0.94 1.47,-2.21 1.47,-3.54 V 115.89 C 100.70,110.90 104.28,111 105.47,111 h 8.53 v 38 c 0,2.76 2.24,5 5,5 2.76,0 5,-2.24 5,-5 V 47 c 0.00,-2.76 -2.24,-5.00 -5,-5 H 101.80 90.20 Z m 5,10 h 11.90 c 0.12,0.18 0.40,0.64 0.61,1.37 C 90.97,55.00 91,56.96 91,56.96 c 0.00,0.02 0.00,0.04 0,0.05 V 101 H 78 Z m 24.10,0 h 11.90 v 49 h -13 v -43.99 0.01 c 0.00,0.01 0.00,0.01 0,0.02 0.00,0.01 0.00,0.01 0,0.02 v 0.01 c 0,0 0.03,-1.96 0.49,-3.58 0.21,0.74 0.49,-1.20 0.61,-1.37 z"/>
  <path style="fill:#ffffff;color:#000000" d="m 73,40 c -2.76,0.00 -5.00,2.24 -5,5 v 102 c 0,2.76 2.24,5 5,5 2.76,0 5,-2.24 5,-5 v -38 h 8.46 C 88.50,109 91,109.14 91,113.78 V 147 c 0.00,1.33 0.53,2.60 1.47,3.54 0.46,0.46 1.01,0.83 1.62,1.08 0.61,0.25 1.26,0.38 1.92,0.38 1.33,0.00 2.60,0.53 3.53,-1.46 0.94,0.94 1.47,-2.21 1.47,-3.54 V 113.89 C 100.70,108.90 104.28,109 105.47,109 h 8.53 v 38 c 0,2.76 2.24,5 5,5 2.76,0 5,-2.24 5,-5 V 45 c 0.00,-2.76 -2.24,-5.00 -5,-5 H 101.80 90.20 Z m 5,10 h 11.90 c 0.12,0.18 0.40,0.64 0.61,1.37 C 90.97,53.00 91,54.96 91,54.96 c 0.00,0.02 0.00,0.04 0,0.05 V 99 H 78 Z m 24.10,0 h 11.90 v 49 h -13 v -43.99 0.01 c 0.00,0.01 0.00,0.01 0,0.02 0.00,0.01 0.00,0.01 0,0.02 v 0.01 c 0,0 0.03,-1.96 0.49,-3.58 0.21,0.74 0.49,-1.20 0.61,-1.37 z"/>
</svg>
