<svg xmlns="http://www.w3.org/2000/svg" id="svg12" width="192" height="192" version="1.1"><defs><filter style="color-interpolation-filters:sRGB" id="filter856" width="1.1" height="1.1" x=".05" y=".05"><feGaussianBlur stdDeviation="3.2"/></filter><filter style="color-interpolation-filters:sRGB" id="filter876" width="1.06" height="1.21" x=".03" y=".1"><feGaussianBlur stdDeviation="2.07"/></filter></defs><circle style="filter:url(#filter856);opacity:.2" cx="96" cy="100" r="80"/><circle style="fill:#595552" cx="96" cy="96" r="80"/><path style="filter:url(#filter876);opacity:.2" d="M 32,74 V 94 H 16.20 C 16.10,95.33 16.03,96.67 16,98 c 0.01,1.33 0.06,2.67 0.14,4 H 32 v 20 h 8 V 74 Z m 36,0 c -13.25,0 -24,10.75 -24,24 0,13.25 10.75,24 24,24 13.25,0 24,-10.75 24,-24 C 92,84.75 81.25,74 68,74 Z m 52,0 c -13.25,0 -24,10.75 -24,24 0,13.25 10.75,24 24,24 13.25,0 24,-10.75 24,-24 0,-13.25 -10.75,-24 -24,-24 z m 28,0 v 48 h 8 v -16.68 l 16.58,15.74 a 80,80 0 0 0 2.11,-9.03 L 160.01,98.09 174.84,84.48 A 80,80 0 0 0 172.74,75.56 L 156,90.91 V 74 Z m -80,8 c 8.84,0 16,7.16 16,16 0,8.84 -7.16,16 -16,16 -8.84,0 -16,-7.16 -16,-16 0,-8.84 7.16,-16 16,-16 z m 52,0 c 8.84,0 16,7.16 16,16 0,8.84 -7.16,16 -16,16 -8.84,0 -16,-7.16 -16,-16 0,-8.84 7.16,-16 16,-16 z"/><path style="fill:#fff" d="M 32,72 V 92 H 16.20 C 16.10,93.33 16.03,94.67 16,96 c 0.01,1.33 0.06,2.67 0.14,4 H 32 v 20 h 8 V 72 Z m 36,0 c -13.25,0 -24,10.75 -24,24 0,13.25 10.75,24 24,24 13.25,0 24,-10.75 24,-24 C 92,82.75 81.25,72 68,72 Z m 52,0 c -13.25,0 -24,10.75 -24,24 0,13.25 10.75,24 24,24 13.25,0 24,-10.75 24,-24 0,-13.25 -10.75,-24 -24,-24 z m 28,0 v 48 h 8 v -16.68 l 16.58,15.74 a 80,80 0 0 0 2.11,-9.03 L 160.01,96.09 174.84,82.48 A 80,80 0 0 0 172.74,73.56 L 156,88.91 V 72 Z m -80,8 c 8.84,0 16,7.16 16,16 0,8.84 -7.16,16 -16,16 -8.84,0 -16,-7.16 -16,-16 0,-8.84 7.16,-16 16,-16 z m 52,0 c 8.84,0 16,7.16 16,16 0,8.84 -7.16,16 -16,16 -8.84,0 -16,-7.16 -16,-16 0,-8.84 7.16,-16 16,-16 z"/><path style="opacity:.1;fill:#fff" d="M 96 16 A 80 80 0 0 0 16 96 A 80 80 0 0 0 16.02 96.49 A 80 80 0 0 1 96 17 A 80 80 0 0 1 175.97 96.50 A 80 80 0 0 0 176 96 A 80 80 0 0 0 96 16 z"/></svg>