<?xml version='1.0' encoding='utf-8'?>
<svg xmlns="http://www.w3.org/2000/svg" width="192" height="192" version="1" id="svg16">
  <defs>
    <filter style="color-interpolation-filters:sRGB" id="filter34366" x="-0.040902543" y="-0.058077707" width="1.0818051" height="1.1161554">
      <feGaussianBlur stdDeviation="1.9769563"/>
    </filter>
    <filter style="color-interpolation-filters:sRGB" id="filter34408" x="-0.037147515" y="-0.067810559" width="1.074295" height="1.1356211">
      <feGaussianBlur stdDeviation="2.476501"/>
    </filter>
    <filter style="color-interpolation-filters:sRGB" id="filter34450" x="-0.040100581" y="-0.059775101" width="1.0802012" height="1.1195502">
      <feGaussianBlur stdDeviation="2.6733721"/>
    </filter>
    <filter style="color-interpolation-filters:sRGB" id="filter34636" x="-0.13437701" y="-0.052015829" width="1.268754" height="1.1040317">
      <feGaussianBlur stdDeviation="2.5044775"/>
    </filter>
  </defs>
  <path style="filter:url(#filter34408);opacity:0.2;fill:#000000" d="M 176,121.17495 C 176,145.37886 140.18278,165 96,165 51.81722,165 16.000001,145.37886 16,121.17495 16,115.3223 26.916057,109.71857 30.716409,104.61445 42.632591,88.610236 62.500881,77.349899 96,77.349899 c 34.50877,0 54.09491,11.96953 65.31745,28.743361 C 164.46353,110.79555 176,115.8754 176,121.17495 Z"/>
  <path style="fill:#b82526" d="M 176,117.17495 C 176,141.37886 140.18278,161 96,161 51.81722,161 16.000001,141.37886 16,117.17495 16,111.3223 26.916057,105.71857 30.716409,100.61445 42.632591,84.610236 62.500881,73.349899 96,73.349899 c 34.50877,0 54.09491,11.96953 65.31745,28.743361 C 164.46353,106.79555 176,111.8754 176,117.17495 Z"/>
  <ellipse style="filter:url(#filter34366);opacity:0.2;fill:#000000" cx="96" cy="128.15219" rx="58" ry="40.847816"/>
  <ellipse style="fill:#df9434" cx="96" cy="125.15218" rx="58" ry="40.847816"/>
  <path style="fill:#af5d24" d="m 146.10568,104.02192 c -4.70671,19.08253 -13.64773,13.57438 -23.07546,12.31112 7.63696,8.38808 8.74698,19.97561 8.96778,32.30079 11.88652,-7.3179 17.14964,-21.0316 14.10768,-44.61191 z"/>
  <path style="fill:#af5d24" d="m 45.894316,104.02192 c 4.706712,19.08253 13.647734,13.57438 23.075468,12.31112 -7.636966,8.38808 -8.746981,19.97561 -8.967784,32.30079 -11.886524,-7.3179 -17.149638,-21.0316 -14.107684,-44.61191 z"/>
  <path style="filter:url(#filter34450);opacity:0.2;fill:#000000" d="M 96.000001,22.00006 C 31.118558,21.743917 29.499167,60.157262 25.255854,90.929748 23.527046,103.46706 15.174872,113.47615 16.066387,120.9317 c 0.527194,4.40879 1.196153,7.41398 1.631141,8.4043 27.752358,-14.87952 52.841868,-18.33594 78.302473,-18.33594 25.460609,0 50.550109,3.45642 78.302469,18.33594 0.43499,-0.99032 1.10395,-3.99551 1.63114,-8.4043 0.89151,-7.45555 -7.46065,-17.46464 -9.18947,-30.001952 -4.2433,-30.772486 -5.8627,-69.185831 -70.744139,-68.929688 z"/>
  <path style="fill:#d73b3c" d="M 96.000001,19 C 31.118558,18.743857 29.499167,57.157202 25.255854,87.929688 23.527046,100.467 15.174872,110.47609 16.066387,117.93164 c 0.527194,4.40879 1.196153,7.41398 1.631141,8.4043 C 45.449886,111.45642 70.539396,108 96.000001,108 c 25.460609,0 50.550109,3.45642 78.302469,18.33594 0.43499,-0.99032 1.10395,-3.99551 1.63114,-8.4043 0.89151,-7.45555 -7.46065,-17.46464 -9.18947,-30.001952 C 162.50084,57.157202 160.88144,18.743857 96.000001,19 Z"/>
  <path style="filter:url(#filter34636);opacity:0.2;fill:#000000" d="M 96,34.509906 73.634766,74.56264 82.365234,79.43764 96,55.019671 l 13.63477,24.417969 8.73046,-4.875 z m 19.12891,91.597654 c -5.53364,4.72124 -9.81049,7.63681 -15.845707,6.99805 l -22.785156,-2.68164 2.650391,7.67969 6.197265,2.90039 -6.943359,-1.48438 -1.275391,2.41992 c 0,0 9.074354,7.98184 19.013672,8.12305 15.691845,0.22296 19.519535,-10.72461 19.519535,-10.72461 l -5.48828,1.98438 6.67773,-4.33008 z"/>
  <path style="fill:#ffffff" d="m 76.497155,128.42458 22.785998,2.68057 c 6.035217,0.63876 10.311607,-2.27737 15.845247,-6.99861 l 1.72114,10.88532 -6.67825,4.33034 5.4887,-1.98398 c 0,0 -3.82689,10.94697 -19.518731,10.72401 -9.939318,-0.14121 -19.014833,-8.12185 -19.014833,-8.12185 l 1.275887,-2.42086 6.943143,1.48395 -6.196648,-2.90034 z"/>
  <path style="fill:#ffef29;color:#000000" d="M 96,32.509766 73.634766,72.5625 82.365234,77.4375 96,53.019531 109.63477,77.4375 l 8.73046,-4.875 z"/>
  <path style="opacity:0.2;fill:#ffffff" d="M 96 19 C 31.118557 18.743857 29.499172 57.157201 25.255859 87.929688 C 23.58455 100.05002 15.748795 109.80011 16.033203 117.17188 C 16.429419 109.92583 23.659208 100.5086 25.255859 88.929688 C 29.499172 58.157201 31.118557 19.743857 96 20 C 160.88144 19.743857 162.50084 58.157201 166.74414 88.929688 C 168.3408 100.5086 175.57058 109.92583 175.9668 117.17188 C 176.2512 109.80011 168.41546 100.05002 166.74414 87.929688 C 162.50084 57.157202 160.88144 18.743857 96 19 z "/>
</svg>
