<?xml version='1.0' encoding='utf-8'?>
<svg xmlns="http://www.w3.org/2000/svg" width="192" height="192" version="1.1" id="svg18">
  <defs>
    <filter style="color-interpolation-filters:sRGB" id="filter846" x="0.05" y="0.04" width="1.11" height="1.09">
      <feGaussianBlur stdDeviation="2.88"/>
    </filter>
    <filter style="color-interpolation-filters:sRGB" id="filter851" x="0.03" y="0.09" width="1.07" height="1.18">
      <feGaussianBlur stdDeviation="0.88"/>
    </filter>
  </defs>
  <path style="filter:url(#filter846);opacity:0.20" d="M 32.01,109.98 C 31.79,93.43 34.62,77.69 40.41,63.24 47.67,44.92 58.26,26.24 76.99,21.19 c 4.32,-1.10 13.31,-1.60 14.13,0.78 0.21,0.21 -1.37,2.29 -3.50,4.63 -4.59,5.02 -8.27,11.78 -9.90,18.18 -1.50,5.86 -1.48,5.81 0.17,6.88 3.59,2.34 36.18,2.89 39.91,0.84 0.74,0.41 3.21,-1.80 5.49,-4.08 5.21,-5.21 14.57,-9.23 21.47,-10.29 4.96,0.76 14.84,0.13 15.23,1.04 0.12,0.37 -1.51,1.92 -3.64,3.43 -4.27,3.05 -9.78,7.19 -11.19,10.16 0.85,1.80 0.81,2.34 0.57,7.64 2.18,8.36 3.02,21.10 2.14,31.30 0.95,11.12 -4.06,31.87 -6.48,43.32 -6.11,28.88 -17.30,42.74 -33.52,46.15 -3.93,0.82 -16.47,0.08 -16.47,0.08 -38.84,-2.15 -58.66,-35.40 -59.39,-69.71 z"/>
  <path style="fill:#4f4f4f" d="M 32.01,105.98 C 31.79,89.43 34.62,73.69 40.41,59.24 47.67,40.92 58.26,22.24 76.99,17.19 c 4.32,-1.10 13.31,-1.60 14.13,0.78 0.21,0.21 -1.37,2.29 -3.50,4.63 -4.59,5.02 -8.27,11.78 -9.90,18.18 -1.50,5.86 -1.48,5.81 0.17,6.88 3.59,2.34 36.18,2.89 39.91,0.84 0.74,0.41 3.21,-1.80 5.49,-4.08 5.21,-5.21 14.57,-9.23 21.47,-10.29 4.96,0.76 14.84,0.13 15.23,1.04 0.12,0.37 -1.51,1.92 -3.64,3.43 -4.27,3.05 -9.78,7.19 -11.19,10.16 0.85,1.80 0.81,2.34 0.57,7.64 2.18,8.36 3.02,21.10 2.14,31.30 0.95,11.12 -4.06,31.87 -6.48,43.32 -6.11,28.88 -17.30,42.74 -33.52,46.15 -3.93,0.82 -16.47,0.08 -16.47,0.08 -38.84,-2.15 -58.66,-35.40 -59.39,-69.71 z"/>
  <path style="filter:url(#filter851);opacity:0.20" d="m 80,126 a 8.00,8.00 0 0 0 -8,8 8.00,8.00 0 0 0 8,8 8.00,8.00 0 0 0 8,-8 8.00,8.00 0 0 0 -8,-8 z m 48,8 a 8.00,8.00 0 0 0 -8,8 8.00,8.00 0 0 0 8,8 8.00,8.00 0 0 0 8,-8 8.00,8.00 0 0 0 -8,-8 z"/>
  <circle style="fill:#ffffff" cx="80.00" cy="132.00" r="8.00"/>
  <circle style="fill:#ffffff" cx="128.00" cy="140.00" r="8.00"/>
  <path style="opacity:0.10;fill:#ffffff" d="M 89.17 16.03 C 86.10 15.87 80.23 16.36 76.99 17.19 C 58.26 22.24 47.67 40.92 40.41 59.24 C 34.62 73.69 31.79 89.43 32.01 105.98 C 32.01 106.05 32.02 106.12 32.02 106.18 C 31.90 89.93 34.71 74.45 40.41 60.24 C 47.67 41.92 58.26 23.24 76.99 18.19 C 80.98 17.17 88.86 16.68 90.71 17.25 C 91.00 16.82 91.19 16.48 91.12 16.41 C 90.92 16.20 90.20 16.08 89.17 16.03 z M 149.18 32.25 C 147.55 32.28 146.00 32.38 144.76 32.57 C 137.85 33.63 128.50 37.65 123.29 42.86 C 121.01 45.14 118.54 46.53 117.80 46.94 C 114.07 48.98 81.48 48.44 77.89 46.09 C 77.18 45.63 76.79 45.35 76.67 44.75 C 76.48 46.19 76.88 46.43 77.89 47.09 C 81.48 49.44 114.07 49.98 117.80 47.94 C 118.54 47.53 121.01 46.14 123.29 43.86 C 128.50 38.65 137.85 34.63 144.76 33.57 C 149.23 32.88 157.69 33.33 159.59 34.29 C 159.85 33.98 160.03 33.73 159.99 33.62 C 159.70 32.73 154.07 32.16 149.18 32.25 z M 144.63 49.84 C 144.50 50.92 144.81 52.34 145.73 55.85 C 147.32 61.96 148.19 70.42 148.21 78.51 C 148.27 70.12 147.39 61.21 145.73 54.85 C 145.06 52.28 144.72 50.86 144.63 49.84 z "/>
</svg>
