<?xml version='1.0' encoding='utf-8'?>
<svg xmlns="http://www.w3.org/2000/svg" width="192" height="192" version="1" id="svg12">
  <defs>
    <filter style="color-interpolation-filters:sRGB" id="filter21883" x="0.05" y="0.05" width="1.10" height="1.10">
      <feGaussianBlur stdDeviation="3"/>
    </filter>
    <filter style="color-interpolation-filters:sRGB" id="filter33989" x="0.07" y="0.08" width="1.14" height="1.16">
      <feGaussianBlur stdDeviation="4.73"/>
    </filter>
    <filter style="color-interpolation-filters:sRGB" id="filter34031" x="0.05" y="0.18" width="1.10" height="1.35">
      <feGaussianBlur stdDeviation="3.38"/>
    </filter>
  </defs>
  <rect style="filter:url(#filter21883);opacity:0.20;fill:#000000" width="150" height="150" x="21" y="25" rx="28.12" ry="28.12"/>
  <rect style="fill:#2f476a" width="150" height="150" x="21" y="21" rx="28.12" ry="28.12"/>
  <path style="opacity:0.10;fill:#ffffff" d="M 49.12 21 C 33.54 21 21 33.54 21 49.12 L 21 50.12 C 21 34.54 33.54 22 49.12 22 L 142.88 22 C 158.46 22 171 34.54 171 50.12 L 171 49.12 C 171 33.54 158.46 21 142.88 21 L 49.12 21 z "/>
  <rect style="fill:#f3ca14" width="36" height="34" x="78" y="52.00"/>
  <path style="fill:#00af80" d="m 78,86 h 36 v 15.11 L 106.79,120 H 95.67 84.90 L 78,102.26 Z"/>
  <path style="fill:#db3a78" d="M 138,72.88 V 122 138.26 L 144.90,156 h 10.77 11.12 L 174,137.11 V 122 72.88 Z"/>
  <path style="fill:#1485e7" d="m 18,108 h 36 v 15.11 L 46.79,142 H 35.67 24.90 L 18,124.26 Z"/>
  <rect style="fill:#14e2e7" width="36" height="34" x="18" y="74"/>
  <path style="filter:url(#filter33989);opacity:0.20;fill:#000000;color:#000000" d="m 76,21 v 87 c 0,11.05 8.95,20 20,20 11.05,0 20,-8.95 20,-20 V 21 Z m 6,3 h 28 v 84 c 0,7.80 -6.20,14 -14,14 -7.80,0 -14,-6.20 -14,-14 z M 16,43 v 87 c 0,11.05 8.95,20 20,20 11.05,0 20,-8.95 20,-20 V 43 Z m 6,3 h 28 v 84 c 0,7.80 -6.20,14 -14,14 -7.80,0 -14,-6.20 -14,-14 z m 114,11 v 87 c 0,11.05 8.95,20 20,20 11.05,0 20,-8.95 20,-20 V 57 Z m 6,3 h 28 v 84 c 0,7.80 -6.20,14 -14,14 -7.80,0 -14,-6.20 -14,-14 z"/>
  <path style="fill:#ffffff;color:#000000" d="M 76 19 L 76 106 C 76 117.05 84.95 126 96 126 C 107.05 126 116 117.05 116 106 L 116 19 L 76 19 z M 82 22 L 110 22 L 110 106 C 110 113.80 103.80 120 96 120 C 88.20 120 82 113.80 82 106 L 82 22 z M 16 41 L 16 128 C 16 139.05 24.95 148 36 148 C 47.05 148 56 139.05 56 128 L 56 41 L 16 41 z M 22 44 L 50 44 L 50 128 C 50 135.80 43.80 142 36 142 C 28.20 142 22 135.80 22 128 L 22 44 z M 136 55 L 136 142 C 136 153.05 144.95 162 156 162 C 167.05 162 176 153.05 176 142 L 176 55 L 136 55 z M 142 58 L 170 58 L 170 142 C 170 149.80 163.80 156 156 156 C 148.20 156 142 149.80 142 142 L 142 58 z "/>
  <path style="filter:url(#filter34031);opacity:0.20;fill:#000000" d="m 75,18 c -2.22,0 -4,1.78 -4,4 v 2 c 0,2.22 1.78,4 4,4 h 42 c 2.22,0 4,-1.78 4,-4 v -2 c 0,-2.22 -1.78,-4 -4,-4 z M 15,40 c -2.22,0 -4,1.78 -4,4 v 2 c 0,2.22 1.78,4 4,4 h 42 c 2.22,0 4,-1.78 4,-4 v -2 c 0,-2.22 -1.78,-4 -4,-4 z m 120,14 c -2.22,0 -4,1.78 -4,4 v 2 c 0,2.22 1.78,4 4,4 h 42 c 2.22,0 4,-1.78 4,-4 v -2 c 0,-2.22 -1.78,-4 -4,-4 z"/>
  <path style="fill:#ffffff" d="M 75 16 C 72.78 16 71 17.78 71 20 L 71 22 C 71 24.22 72.78 26 75 26 L 117 26 C 119.22 26 121 24.22 121 22 L 121 20 C 121 17.78 119.22 16 117 16 L 75 16 z M 15 38 C 12.78 38 11 39.78 11 42 L 11 44 C 11 46.22 12.78 48 15 48 L 57 48 C 59.22 48 61 46.22 61 44 L 61 42 C 61 39.78 59.22 38 57 38 L 15 38 z M 135 52 C 132.78 52 131 53.78 131 56 L 131 58 C 131 60.22 132.78 62 135 62 L 177 62 C 179.22 62 181 60.22 181 58 L 181 56 C 181 53.78 179.22 52 177 52 L 135 52 z "/>
</svg>
