<?xml version='1.0' encoding='utf-8'?>
<svg xmlns="http://www.w3.org/2000/svg" width="192" height="192" version="1.1" id="svg14">
  <defs>
    <filter style="color-interpolation-filters:sRGB" id="filter849" x="0.05" y="0.05" width="1.10" height="1.10">
      <feGaussianBlur stdDeviation="3.20"/>
    </filter>
    <filter style="color-interpolation-filters:sRGB" id="filter19996" x="0.11" y="0.09" width="1.22" height="1.18">
      <feGaussianBlur stdDeviation="5.08"/>
    </filter>
    <filter style="color-interpolation-filters:sRGB" id="filter20056" x="0.12" y="0.10" width="1.25" height="1.19">
      <feGaussianBlur stdDeviation="1.64"/>
    </filter>
  </defs>
  <circle style="filter:url(#filter849);opacity:0.20" cx="96" cy="100" r="80"/>
  <circle style="fill:#3b4f5d" cx="96" cy="96" r="80"/>
  <path style="filter:url(#filter19996);opacity:0.20;fill:#000000" d="m 96,43 a 55,55 0 0 0 -55,55 55,55 0 0 0 49,54.57 v 25 A 80,80 0 0 0 96,178 a 80,80 0 0 0 6,0.43 v -25 A 55,55 0 0 0 151,98 55,55 0 0 0 96,43 Z m 0,12 A 43,43 0 0 1 139,98 43,43 0 0 1 96,141 43,43 0 0 1 53,98 43,43 0 0 1 96,55 Z m 0,4.91 a 38,38 0 0 0 -38,38 38,38 0 0 0 38,38.00 38,38 0 0 0 38,-38.00 38,38 0 0 0 -38,-38 z"/>
  <path style="opacity:0.10;fill:#ffffff" d="M 96,16 A 80,80 0 0 0 16,96 80,80 0 0 0 16.02,96.64 80,80 0 0 1 96,17 80,80 0 0 1 175.98,96.30 80,80 0 0 0 176,96 80,80 0 0 0 96,16 Z"/>
  <path style="fill:#32bcff" d="M 96 41 A 55 55 0 0 0 41 96 A 55 55 0 0 0 96 151 A 55 55 0 0 0 151 96 A 55 55 0 0 0 96 41 z M 96 53 A 43 43 0 0 1 139 96 A 43 43 0 0 1 96 139 A 43 43 0 0 1 53 96 A 43 43 0 0 1 96 53 z "/>
  <circle style="fill:#3d6e9a" cx="96" cy="96" r="38"/>
  <path style="filter:url(#filter20056);opacity:0.20;fill:#000000" d="m 112,100 c 0,8.84 -7.16,16 -16,16 -8.84,0 -16,-7.16 -16,-16 0,-8.84 9.99,-25 16,-25 6.01,0 16,16.16 16,25 z"/>
  <path style="fill:#32bcff" d="m 112,99 c 0,8.84 -7.16,16 -16,16 -8.84,0 -16,-7.16 -16,-16 0,-8.84 9.99,-25 16,-25 6.01,0 16,16.16 16,25 z"/>
  <path style="fill:#3b4f5d;color:#000000" d="m 86.81,93.71 a 1.50,1.50 0 0 0 -1.95,0.84 c -2.23,5.57 0.02,11.95 5.23,14.90 a 1.50,1.50 0 0 0 2.04,0.57 1.50,1.50 0 0 0 0.57,-2.04 c -3.93,-2.22 -5.60,-6.98 -3.92,-11.18 a 1.50,1.50 0 0 0 0.84,-1.95 z"/>
  <circle style="fill:#3b4f5d" cx="95.50" cy="108.50" r="1.50"/>
  <path style="fill:#32bcff" d="M 90 139 L 90 175.57 A 80 80 0 0 0 96 176 A 80 80 0 0 0 102 175.57 L 102 139 L 90 139 z "/>
  <path style="opacity:0.20;fill:#ffffff" d="M 96 41 A 55 55 0 0 0 41 96 A 55 55 0 0 0 41.04 96.50 A 55 55 0 0 1 96 42 A 55 55 0 0 1 150.98 96.26 A 55 55 0 0 0 151 96 A 55 55 0 0 0 96 41 z M 96 74 C 89.99 74 80 90.16 80 99 C 80 99.19 80.02 99.38 80.03 99.57 C 80.33 90.65 90.08 75 96 75 C 101.92 75 111.67 90.65 111.97 99.57 C 111.98 99.38 112 99.19 112 99 C 112 90.16 102.01 74 96 74 z M 138.98 96.27 A 43 43 0 0 1 96 139 A 43 43 0 0 1 53.04 96.50 A 43 43 0 0 0 53 97 A 43 43 0 0 0 96 140 A 43 43 0 0 0 139 97 A 43 43 0 0 0 138.98 96.27 z "/>
  <path style="opacity:0.10;fill:#ffffff" d="M 96 58 A 38 38 0 0 0 58 96 A 38 38 0 0 0 58.04 96.50 A 38 38 0 0 1 96 59 A 38 38 0 0 1 133.98 96.25 A 38 38 0 0 0 134 96 A 38 38 0 0 0 96 58 z "/>
</svg>
