<?xml version='1.0' encoding='utf-8'?>
<svg xmlns="http://www.w3.org/2000/svg" width="192" height="192" version="1.1" id="svg20">
  <defs>
    <filter style="color-interpolation-filters:sRGB" id="filter1139" x="0.05" y="0.05" width="1.09" height="1.10">
      <feGaussianBlur stdDeviation="3.28"/>
    </filter>
    <filter style="color-interpolation-filters:sRGB" id="filter1184" x="0.03" y="0.08" width="1.07" height="1.15">
      <feGaussianBlur stdDeviation="2.56"/>
    </filter>
  </defs>
  <path d="m 99.98,180 c 87.82,0 79.83,-80 79.83,-80 0,0 -11.97,-80 -79.83,-80 -67.86,0 -87.82,76 -87.82,76 0,0 -7.98,84 87.82,84 z" style="filter:url(#filter1139);opacity:0.20;fill:#000000"/>
  <path d="m 99.98,176 c 87.82,0 79.83,-80 79.83,-80 0,0 -11.97,-80 -79.83,-80 -67.86,0 -87.82,76 -87.82,76 0,0 -7.98,84 87.82,84 z" style="fill:#4f4f4f"/>
  <path style="opacity:0.10;fill:#ffffff" d="M 99.98 16 C 32.12 16 12.16 92 12.16 92 C 12.16 92 12.03 93.68 12.02 96.39 C 12.06 94.35 12.16 93 12.16 93 C 12.16 93 32.12 17 99.98 17 C 167.84 17 179.81 97 179.81 97 C 179.81 97 179.93 98.26 179.98 100.37 C 179.95 97.68 179.81 96 179.81 96 C 179.81 96 167.84 16 99.98 16 z "/>
  <path style="filter:url(#filter1184);opacity:0.20;fill:#000000" d="M 48.19,35 C 12.02,35 8,75 8,75 c 0,0 0.00,40 32.15,40 40.19,0 40.19,-40 40.19,-40 0,0 8.04,-40 -32.15,-40 z M 155.91,39 C 124.00,39 124,71 124,71 c 0,0 0.00,32 31.91,32 31.91,0 27.93,-32 27.93,-32 0,0 -3.99,-32 -27.93,-32 z"/>
  <path d="M 40.15,112 C 80.34,112 80.34,72 80.34,72 c 0,0 8.04,-40 -32.15,-40 C 12.02,32 8,72 8,72 c 0,0 0,40 32.15,40 z" style="fill:#efefef"/>
  <circle cx="36" cy="68" style="fill:#4f4f4f" r="8"/>
  <path d="M 155.91,100 C 124,100 124,68 124,68 c 0,0 0,-32 31.91,-32 23.94,0 27.93,32 27.93,32 0,0 3.99,32 -27.93,32 z" style="fill:#efefef"/>
  <circle cx="164" cy="68" style="fill:#4f4f4f" r="8"/>
  <path d="M 48,32 C 12,32 8,72 8,72 8,72 8.04,73.19 8.16,74.81 8.99,69.05 15.11,36 48,36 75.06,36 80.13,54.28 80.59,66.12 81.06,55.04 78.41,32 48,32 Z m 108,4 c -32,0 -32,32 -32,32 0,0 0.04,0.83 0.14,2 0.59,-6.83 4.55,-30 31.86,-30 24,0 28,32 28,32 0,0 0.06,0.52 0.10,1.24 C 184.25,70.12 184,68 184,68 c 0,0 -4,-32 -28,-32 z" style="opacity:0.20;fill:#ffffff"/>
</svg>
