<?xml version='1.0' encoding='utf-8'?>
<svg xmlns="http://www.w3.org/2000/svg" width="192" height="192" version="1.1" id="svg24">
  <defs>
    <filter style="color-interpolation-filters:sRGB" id="filter869" x="0.05" y="0.05" width="1.10" height="1.10">
      <feGaussianBlur stdDeviation="3.20"/>
    </filter>
    <filter style="color-interpolation-filters:sRGB" id="filter874" x="0.07" y="0.07" width="1.14" height="1.14">
      <feGaussianBlur stdDeviation="3.51"/>
    </filter>
  </defs>
  <circle cx="96" cy="100" r="80" style="filter:url(#filter869);opacity:0.20"/>
  <circle cx="96" cy="96" r="80" style="fill:#4fc8f3"/>
  <path style="opacity:0.20;fill:#ffffff" d="M 96 16 A 80 80 0 0 0 16 96 A 80 80 0 0 0 16.02 96.64 A 80 80 0 0 1 96 17 A 80 80 0 0 1 175.98 96.30 A 80 80 0 0 0 176 96 A 80 80 0 0 0 96 16 z "/>
  <path style="filter:url(#filter874);opacity:0.20" d="M 96,17.80 A 80,80 0 0 0 92,17.94 v 15.86 a 4.00,4.00 0 1 0 8,0 V 18.00 a 80,80 0 0 0 -4,0.20 z m 31.80,6.62 A 32,24 0 0 1 96,45.80 32,24 0 0 1 64.24,24.48 80,80 0 0 0 56.80,28.17 40,32 0 0 0 96,53.80 40,32 0 0 0 135.18,28.10 80,80 0 0 0 127.80,24.42 Z M 67.94,65.94 A 4.00,4.00 0 0 0 64,70.00 v 28 a 4.00,4.00 0 1 0 8,0 v -28 a 4.00,4.00 0 0 0 -4.06,-4.05 z m 56,0 A 4.00,4.00 0 0 0 120,70.00 v 28 a 4.00,4.00 0 1 0 8,0 v -28 a 4.00,4.00 0 0 0 -4.06,-4.05 z M 40,106.00 a 4.00,4.00 0 1 0 0,8 h 20 a 4.00,4.00 0 1 0 0,-8 z m 92,0 a 4.00,4.00 0 1 0 0,8 h 20 a 4.00,4.00 0 1 0 0,-8 z m -12,12 a 4.00,4.00 0 1 0 0,8 H 72 a 4.00,4.00 0 1 0 0,8 h 52 a 4.00,4.00 0 0 0 2.83,-1.17 c 2.94,-2.94 3.31,-7.08 2.47,-9.59 0.84,-2.51 -2.47,-4.06 -2.47,-4.06 A 4.00,4.00 0 0 0 124,118.00 Z"/>
  <path d="m 96,16 a 80,80 0 0 0 -4,0.14 V 32 a 4.00,4.00 0 1 0 8,0 V 16.20 A 80,80 0 0 0 96,16 Z m 31.80,6.62 A 32,24 0 0 1 96,44 32,24 0 0 1 64.24,22.68 80,80 0 0 0 56.80,26.38 40,32 0 0 0 96,52 40,32 0 0 0 135.18,26.30 80,80 0 0 0 127.80,22.62 Z" style="fill:#ffffff"/>
  <path d="M 68,68 V 96" style="fill:none;stroke:#ffffff;stroke-width:8;stroke-linecap:round;stroke-linejoin:round"/>
  <path d="M 124,68 V 96" style="fill:none;stroke:#ffffff;stroke-width:8;stroke-linecap:round;stroke-linejoin:round"/>
  <path d="m 132,108 h 20" style="fill:none;stroke:#f8bfd5;stroke-width:8;stroke-linecap:round;stroke-linejoin:round"/>
  <path d="M 40,108 H 60" style="fill:none;stroke:#f8bfd5;stroke-width:8;stroke-linecap:round;stroke-linejoin:round"/>
  <path d="m 72,128 h 52 c 4,-4 0,-8 0,-8 h -4" style="fill:none;stroke:#ffffff;stroke-width:8;stroke-linecap:round;stroke-linejoin:round"/>
</svg>
