<?xml version='1.0' encoding='utf-8'?>
<svg xmlns="http://www.w3.org/2000/svg" width="192" height="192" version="1.1" id="svg22">
  <defs>
    <filter style="color-interpolation-filters:sRGB" id="filter866" x="-0.045599999" y="-0.050666666" width="1.0912" height="1.1013333">
      <feGaussianBlur stdDeviation="3.04"/>
    </filter>
    <filter style="color-interpolation-filters:sRGB" id="filter874" x="-0.03" y="-0.12" width="1.06" height="1.24">
      <feGaussianBlur stdDeviation="1.6"/>
    </filter>
    <filter style="color-interpolation-filters:sRGB" id="filter870" x="-0.042666666" y="-0.054857142" width="1.0853333" height="1.1097143">
      <feGaussianBlur stdDeviation="2.56"/>
    </filter>
  </defs>
  <path d="M 31.2,44 C 27.2112,44 24,46.775108 24,50.222224 V 149.77778 C 24,153.22489 27.2112,156 31.2,156 H 150 c 3.9888,0 7.2,-2.77511 7.2,-6.22222 V 50.222224 C 157.2,46.775108 153.9888,44 150,44 Z m 115.2,0 c -3.9888,0 -7.2,2.775108 -7.2,6.222224 v 99.555556 c 0,3.44711 3.2112,6.22222 7.2,6.22222 h 14.4 c 3.9888,0 7.2,-2.77511 7.2,-6.22222 V 50.222224 C 168,46.775108 164.7888,44 160.8,44 Z" style="filter:url(#filter870);opacity:0.2;fill:#000000"/>
  <path d="M 31.2,40 C 27.2112,40 24,42.775108 24,46.222224 V 145.77778 C 24,149.22489 27.2112,152 31.2,152 H 150 c 3.9888,0 7.2,-2.77511 7.2,-6.22222 V 46.222224 C 157.2,42.775108 153.9888,40 150,40 Z m 115.2,0 c -3.9888,0 -7.2,2.775108 -7.2,6.222224 v 99.555556 c 0,3.44711 3.2112,6.22222 7.2,6.22222 h 14.4 c 3.9888,0 7.2,-2.77511 7.2,-6.22222 V 46.222224 C 168,42.775108 164.7888,40 160.8,40 Z" style="fill:#5ecff3"/>
  <path style="filter:url(#filter866);opacity:0.2" d="M 24 28 C 19.568 28 16 31.568 16 36 L 16 164 C 16 168.432 19.568 172 24 172 L 40 172 C 44.432 172 48 168.432 48 164 L 48 36 C 48 31.568 44.432 28 40 28 L 24 28 z M 152 28 C 147.568 28 144 31.568 144 36 L 144 164 C 144 168.432 147.568 172 152 172 L 168 172 C 172.432 172 176 168.432 176 164 L 176 36 C 176 31.568 172.432 28 168 28 L 152 28 z "/>
  <rect x="16" y="24" width="32" height="144" rx="8" ry="8" style="fill:#868686"/>
  <rect x="144" y="24" width="32" height="144" rx="8" ry="8" style="fill:#868686"/>
  <path d="m 48,124 h 96" style="fill:none;stroke:#c48f61;stroke-width:16;stroke-linecap:round;stroke-linejoin:round"/>
  <path d="m 48,110 c -8.836556,0 -16,7.16344 -16,16 0,8.83656 7.163444,16 16,16 8.836556,0 16,-7.16344 16,-16 0,-8.83656 -7.163444,-16 -16,-16 z m 48,0 c -8.836556,0 -16,7.16344 -16,16 0,8.83656 7.163444,16 16,16 8.83656,0 16,-7.16344 16,-16 0,-8.83656 -7.16344,-16 -16,-16 z m 48,0 c -8.83656,0 -16,7.16344 -16,16 0,8.83656 7.16344,16 16,16 8.83656,0 16,-7.16344 16,-16 0,-8.83656 -7.16344,-16 -16,-16 z" style="filter:url(#filter874);opacity:0.2"/>
  <path d="m 48,108 c -8.836556,0 -16,7.16344 -16,16 0,8.83656 7.163444,16 16,16 8.836556,0 16,-7.16344 16,-16 0,-8.83656 -7.163444,-16 -16,-16 z m 48,0 c -8.836556,0 -16,7.16344 -16,16 0,8.83656 7.163444,16 16,16 8.83656,0 16,-7.16344 16,-16 0,-8.83656 -7.16344,-16 -16,-16 z m 48,0 c -8.83656,0 -16,7.16344 -16,16 0,8.83656 7.16344,16 16,16 8.83656,0 16,-7.16344 16,-16 0,-8.83656 -7.16344,-16 -16,-16 z" style="fill:#ffffff"/>
  <path style="opacity:0.1;fill:#ffffff" d="M 24 24 C 19.568 24 16 27.568 16 32 L 16 33 C 16 28.568 19.568 25 24 25 L 40 25 C 44.432 25 48 28.568 48 33 L 48 32 C 48 27.568 44.432 24 40 24 L 24 24 z M 152 24 C 147.568 24 144 27.568 144 32 L 144 33 C 144 28.568 147.568 25 152 25 L 168 25 C 172.432 25 176 28.568 176 33 L 176 32 C 176 27.568 172.432 24 168 24 L 152 24 z "/>
</svg>
