<?xml version='1.0' encoding='utf-8'?>
<svg xmlns="http://www.w3.org/2000/svg" width="192" height="192" version="1" id="svg14">
  <defs>
    <filter style="color-interpolation-filters:sRGB" id="filter850" x="-0.048000001" width="1.096" y="-0.048000001" height="1.096">
      <feGaussianBlur stdDeviation="3.2"/>
    </filter>
    <filter style="color-interpolation-filters:sRGB" id="filter7517" x="-0.108" y="-0.108" width="1.216" height="1.216">
      <feGaussianBlur stdDeviation="1.98"/>
    </filter>
  </defs>
  <circle style="filter:url(#filter850);opacity:0.2;fill:#000000" cx="96" cy="100" r="80"/>
  <path style="fill:#e4e4e4" d="m 176,96 c 0,44.18278 -35.81722,80 -80,80 C 51.81722,176 16,140.18278 16,96 16,51.81722 50.960747,79.195979 95.143527,79.195979 139.32631,79.195979 176,51.81722 176,96 Z"/>
  <path style="fill:#e9533c" d="M 96 16 A 80 80 0 0 0 16 96 L 176 96 A 80 80 0 0 0 96 16 z "/>
  <path style="fill:#3f3f3f" d="M 16.357422 91 A 80 80 0 0 0 16 96 A 80 80 0 0 0 16.357422 101 L 175.64258 101 A 80 80 0 0 0 176 96 A 80 80 0 0 0 175.82422 91 L 16.357422 91 z "/>
  <circle style="fill:#3f3f3f" cx="96" cy="96" r="32"/>
  <circle style="filter:url(#filter7517);opacity:0.2;fill:#000000" cx="96" cy="98" r="22"/>
  <circle style="fill:#ffffff" cx="96" cy="96" r="22"/>
  <path style="opacity:0.2;fill:#ffffff" d="M 96 16 A 80 80 0 0 0 16 96 A 80 80 0 0 0 16.019531 96.472656 A 80 80 0 0 1 96 17 A 80 80 0 0 1 175.97461 96.513672 A 80 80 0 0 0 176 96 A 80 80 0 0 0 96 16 z "/>
</svg>
