<?xml version='1.0' encoding='utf-8'?>
<svg xmlns="http://www.w3.org/2000/svg" width="192" height="192" version="1.1" id="svg18">
  <defs>
    <filter style="color-interpolation-filters:sRGB" id="filter857" x="0.05" y="0.05" width="1.10" height="1.10">
      <feGaussianBlur stdDeviation="3.20"/>
    </filter>
    <filter style="color-interpolation-filters:sRGB" id="filter861" x="0.05" y="0.05" width="1.10" height="1.10">
      <feGaussianBlur stdDeviation="1.76"/>
    </filter>
    <filter style="color-interpolation-filters:sRGB" id="filter883" x="0.05" y="0.05" width="1.10" height="1.10">
      <feGaussianBlur stdDeviation="2.88"/>
    </filter>
  </defs>
  <circle cx="90" cy="96" r="80" style="filter:url(#filter857);opacity:0.20"/>
  <circle cx="90" cy="92" r="80" style="fill:#fecd38"/>
  <path style="opacity:0.20;fill:#ffffff" d="M 90 12 A 80 80 0 0 0 10 92 A 80 80 0 0 0 10.02 92.64 A 80 80 0 0 1 90 13 A 80 80 0 0 1 169.98 92.30 A 80 80 0 0 0 170 92 A 80 80 0 0 0 90 12 z "/>
  <path d="M 90,22 A 72,72 0 0 0 18,94 72,72 0 0 0 90,166 72,72 0 0 0 162,94 72,72 0 0 0 90,22 Z m 0,8 A 64,64 0 0 1 154,94 64,64 0 0 1 90,158 64,64 0 0 1 26,94 64,64 0 0 1 90,30 Z M 62,74 c -20,0 -28,4 -28,4 v 12 c 0,0 4,0 4,4 0,4 4,16 20,16 24,0 20,-4 24,-16 1.79,-5.37 4,-8 8,-8 4,0 6.21,2.63 8,8 4,12 0,16 24,16 16,0 20,-12 20,-16 0,-4 4,-4 4,-4 V 78 c 0,0 -4.94,-2.40 -16.52,-3.48 L 126,78 l 4,4 -20,12 8,-12 -4,-4 4,-4 c -12,0 -20,4 -28,4 -8,0 -16,-4 -28,-4 z m 52.67,45.78 c 0,0 -1.81,2.70 -4.50,5.39 C 107.49,127.86 104,130 102,130 h -8 v 8 h 8 c 6,0 10.51,-3.86 13.83,-7.17 3.31,-3.31 5.50,-6.61 5.50,-6.61 z" style="filter:url(#filter883);opacity:0.20"/>
  <path d="M 90,20 A 72,72 0 0 0 18,92 72,72 0 0 0 90,164 72,72 0 0 0 162,92 72,72 0 0 0 90,20 Z m 0,8 A 64,64 0 0 1 154,92 64,64 0 0 1 90,156 64,64 0 0 1 26,92 64,64 0 0 1 90,28 Z M 62,72 c -20,0 -28,4 -28,4 v 12 c 0,0 4,0 4,4 0,4 4,16 20,16 24,0 20,-4 24,-16 1.79,-5.37 4,-8 8,-8 4,0 6.21,2.63 8,8 4,12 0,16 24,16 16,0 20,-12 20,-16 0,-4 4,-4 4,-4 V 76 c 0,0 -4.94,-2.40 -16.52,-3.48 L 126,76 l 4,4 -20,12 8,-12 -4,-4 4,-4 c -12,0 -20,4 -28,4 -8,0 -16,-4 -28,-4 z m 52.67,45.78 c 0,0 -1.81,2.70 -4.50,5.39 C 107.49,125.86 104,128 102,128 h -8 v 8 h 8 c 6,0 10.51,-3.86 13.83,-7.17 3.31,-3.31 5.50,-6.61 5.50,-6.61 z" style="fill:#4f4f4f"/>
  <circle cx="138" cy="139" r="44" style="filter:url(#filter861);opacity:0.20"/>
  <circle cx="138" cy="136" r="44" style="fill:#c03630"/>
  <path d="m 138,116 c 0,0 -2.83,0.06 -5.79,1.42 C 129.26,118.90 126,122.67 126,128 h 8 c 0,-4 4,-4 4,-4 0,0 4,0 4,4 0,2.11 0.56,3.29 -1.62,4.62 -1.07,1.33 -2.77,2.67 -4.77,4.17 -2,1.50 -4.29,3.16 -6.23,5.58 C 127.44,144.79 126,148.11 126,152 v 4 h 24 v -8 h -14.59 c 0.13,0.18 0.07,0.44 0.22,0.62 1.07,-1.33 2.77,-2.67 4.77,-4.17 2,-1.50 4.29,-3.16 6.23,-5.58 1.93,-2.42 3.38,-5.74 3.38,-9.62 0,-5.33 -3.26,-9.10 -6.21,-10.58 C 140.84,115.94 138,116 138,116 Z" style="fill:#ffffff;fill-rule:evenodd"/>
</svg>
