<?xml version='1.0' encoding='utf-8'?>
<svg xmlns="http://www.w3.org/2000/svg" width="192" height="192" version="1" id="svg18">
  <defs>
    <filter id="filter1019" style="color-interpolation-filters:sRGB" width="1.10" height="1.10" x="0.05" y="0.05">
      <feGaussianBlur stdDeviation="3.20"/>
    </filter>
    <filter id="filter3010" style="color-interpolation-filters:sRGB" width="1.10" height="1.10" x="0.05" y="0.05">
      <feGaussianBlur stdDeviation="2.10"/>
    </filter>
    <filter style="color-interpolation-filters:sRGB" id="filter916" x="0.05" y="0.05" width="1.10" height="1.10">
      <feGaussianBlur stdDeviation="2.12"/>
    </filter>
  </defs>
  <path style="filter:url(#filter3010);opacity:0.20;stop-color:#000000" d="M 65.69,45.50 43.50,128.31 126.31,150.50 148.50,67.69 Z m 23.97,41.51 17.33,4.65 -4.65,17.33 -17.33,-4.65 z"/>
  <rect style="filter:url(#filter1019);opacity:0.20" width="160" height="160" x="16" y="20" rx="8" ry="8"/>
  <rect style="fill:#3f3f3f" width="160" height="160" x="16" y="16" rx="8" ry="8"/>
  <path style="opacity:0.10;fill:#ffffff" d="m 24,16 c -4.43,0 -8,3.57 -8,8 v 1 c 0,-4.43 3.57,-8 8,-8 h 144 c 4.43,0 8,3.57 8,8 v -1 c 0,-4.43 -3.57,-8 -8,-8 z"/>
  <path style="filter:url(#filter916);opacity:0.20;fill:#000000;stop-color:#000000" d="M 65.40,45.00 43,128.60 126.60,151 149,67.40 Z m 24.25,42 L 107,91.65 102.35,109 85,104.35 Z"/>
  <path style="fill:#cdd6d9;stop-color:#000000" d="M 65.40 43 L 43 126.60 L 126.60 149 L 149 65.40 L 65.40 43 z M 89.65 85 L 107 89.65 L 102.35 107 L 85 102.35 L 89.65 85 z "/>
  <path style="opacity:0.20;fill:#ffffff;stop-color:#000000" d="M 65.40 43 L 43 126.60 L 43.25 126.67 L 65.40 44 L 148.75 66.33 L 149 65.40 L 65.40 43 z M 106.75 90.58 L 102.35 107 L 85.25 102.42 L 85 103.35 L 102.35 108 L 107 90.65 L 106.75 90.58 z "/>
</svg>
