<svg xmlns="http://www.w3.org/2000/svg" id="svg8" width="192" height="192" version="1"><defs><filter style="color-interpolation-filters:sRGB" id="filter837" width="1.1" height="1.1" x=".05" y=".05"><feGaussianBlur stdDeviation="3.2"/></filter></defs><path style="filter:url(#filter837);opacity:.2" d="m 54.01,32.02 c -2.05,0.55 -3.25,2.64 -2.71,4.69 L 61.79,75.83 94.60,94.77 113.54,61.97 103.06,22.84 c 0.55,-2.05 -2.64,-3.25 -4.69,-2.71 z M 18.84,92.94 c -2.05,0.55 -3.25,2.64 -2.71,4.69 l 11.88,44.36 c 0.55,2.05 2.64,3.25 4.69,2.71 L 71.83,134.21 90.77,101.40 57.97,82.46 Z m 101.33,-27.15 -18.94,32.81 32.81,18.94 39.13,-10.48 c 2.05,0.55 3.25,-2.64 2.71,-4.69 L 163.98,58.01 c 0.55,-2.05 -2.64,-3.25 -4.69,-2.71 z M 97.40,105.23 78.46,138.03 88.94,177.16 c 0.55,2.05 2.64,3.25 4.69,2.71 l 44.36,-11.88 c 2.05,0.55 3.25,-2.64 2.71,-4.69 l -10.48,-39.13 z"/><path style="fill:#ffc53e" d="m 54.01,28.02 c -2.05,0.55 -3.25,2.64 -2.71,4.69 L 61.79,71.83 94.60,90.77 113.54,57.97 103.06,18.84 c 0.55,-2.05 -2.64,-3.25 -4.69,-2.71 z M 18.84,88.94 c -2.05,0.55 -3.25,2.64 -2.71,4.69 l 11.88,44.36 c 0.55,2.05 2.64,3.25 4.69,2.71 L 71.83,130.21 90.77,97.40 57.97,78.46 Z M 120.17,61.79 101.23,94.60 l 32.81,18.94 39.13,-10.48 c 2.05,0.55 3.25,-2.64 2.71,-4.69 L 163.98,54.01 c 0.55,-2.05 -2.64,-3.25 -4.69,-2.71 z M 97.40,101.23 78.46,134.03 88.94,173.16 c 0.55,2.05 2.64,3.25 4.69,2.71 l 44.36,-11.88 c 2.05,0.55 3.25,-2.64 2.71,-4.69 l -10.48,-39.13 z"/><path style="opacity:.2;fill:#fff" d="m 99.14,16.01 c 0.26,0.01 0.51,0.05 0.77,0.12 L 54.02,28.02 c -1.87,0.50 -3.02,2.28 -2.80,4.14 0.21,-1.47 1.27,-2.73 2.80,-3.14 L 98.37,17.13 c 0.51,0.14 1.03,0.16 1.52,0.09 1.48,0.20 2.75,1.26 3.16,2.80 l 10.30,38.45 0.18,0.32 -10.48,-39.13 c 0.41,-1.54 -1.69,-2.59 -3.16,-2.80 0.25,0.03 0.50,0.04 0.75,0.03 z M 160.06,51.18 c 0.25,0.01 0.51,0.05 0.77,0.12 l -39.13,10.48 -18.94,32.81 0.43,0.25 18.50,-32.06 39.13,-10.48 c 0.51,0.14 1.02,0.16 1.52,0.09 1.48,0.20 2.76,1.27 3.17,2.80 l 11.88,44.35 c 0.05,0.17 0.06,0.34 0.08,0.50 0.07,0.49 0.05,-1.00 0.08,-1.50 L 163.98,54.02 c 0.41,-1.54 -1.69,-2.60 -3.17,-2.80 0.25,0.03 0.50,0.04 0.75,0.03 z M 57.97,78.46 18.84,88.95 c -1.86,0.50 -3.01,2.28 -2.79,4.13 0.21,-1.46 1.27,-2.73 2.79,-3.13 l 39.13,-10.48 32.37,18.69 0.43,0.75 z m 39.43,22.77 -18.94,32.80 0.18,0.68 18.75,-32.49 32.81,18.94 10.48,39.13 c 0.04,0.16 0.06,0.33 0.08,0.49 0.07,0.48 0.06,0.99 0.08,-1.49 l -10.48,-39.13 z"/></svg>