<?xml version='1.0' encoding='utf-8'?>
<svg xmlns="http://www.w3.org/2000/svg" width="192" height="192" version="1" id="svg8">
  <defs>
    <filter style="color-interpolation-filters:sRGB" id="filter837" x="0.05" y="0.05" width="1.10" height="1.10">
      <feGaussianBlur stdDeviation="3.20"/>
    </filter>
  </defs>
  <path style="filter:url(#filter837);opacity:0.20" d="m 54.01,32.02 c -2.05,0.55 -3.25,2.64 -2.71,4.69 L 61.79,75.83 94.60,94.77 113.54,61.97 103.06,22.84 c 0.55,-2.05 -2.64,-3.25 -4.69,-2.71 z M 18.84,92.94 c -2.05,0.55 -3.25,2.64 -2.71,4.69 l 11.88,44.36 c 0.55,2.05 2.64,3.25 4.69,2.71 L 71.83,134.21 90.77,101.40 57.97,82.46 Z m 101.33,-27.15 -18.94,32.81 32.81,18.94 39.13,-10.48 c 2.05,0.55 3.25,-2.64 2.71,-4.69 L 163.98,58.01 c 0.55,-2.05 -2.64,-3.25 -4.69,-2.71 z M 97.40,105.23 78.46,138.03 88.94,177.16 c 0.55,2.05 2.64,3.25 4.69,2.71 l 44.36,-11.88 c 2.05,0.55 3.25,-2.64 2.71,-4.69 l -10.48,-39.13 z"/>
  <path style="fill:#09aef0" d="m 54.01,28.02 c -2.05,0.55 -3.25,2.64 -2.71,4.69 L 61.79,71.83 94.60,90.77 113.54,57.97 103.06,18.84 c 0.55,-2.05 -2.64,-3.25 -4.69,-2.71 z M 18.84,88.94 c -2.05,0.55 -3.25,2.64 -2.71,4.69 l 11.88,44.36 c 0.55,2.05 2.64,3.25 4.69,2.71 L 71.83,130.21 90.77,97.40 57.97,78.46 Z M 120.17,61.79 101.23,94.60 l 32.81,18.94 39.13,-10.48 c 2.05,0.55 3.25,-2.64 2.71,-4.69 L 163.98,54.01 c 0.55,-2.05 -2.64,-3.25 -4.69,-2.71 z M 97.40,101.23 78.46,134.03 88.94,173.16 c 0.55,2.05 2.64,3.25 4.69,2.71 l 44.36,-11.88 c 2.05,0.55 3.25,-2.64 2.71,-4.69 l -10.48,-39.13 z"/>
  <path style="opacity:0.20;fill:#ffffff" d="M 99.14 16.01 C 98.88 16.02 98.62 16.06 98.37 16.13 L 54.02 28.02 C 52.15 28.52 50.99 30.30 51.21 32.16 C 51.43 30.69 52.49 29.42 54.02 29.02 L 98.37 17.13 C 98.88 17.00 99.40 16.97 99.89 17.04 C 101.37 17.24 102.64 18.30 103.05 19.84 L 113.36 58.29 L 113.54 57.97 L 103.05 18.84 C 102.64 17.30 101.37 16.24 99.89 16.04 C 99.64 16.01 99.39 15.99 99.14 16.01 z M 160.06 51.18 C 159.81 51.20 159.55 51.24 159.30 51.30 L 120.16 61.79 L 101.23 94.60 L 101.66 94.85 L 120.16 62.79 L 159.30 52.30 C 159.81 52.17 160.32 52.14 160.81 52.21 C 162.29 52.41 163.57 53.48 163.98 55.02 L 175.87 99.37 C 175.91 99.54 175.93 99.70 175.95 99.87 C 176.02 99.38 176.00 98.88 175.87 98.37 L 163.98 54.02 C 163.57 52.48 162.29 51.41 160.81 51.21 C 160.57 51.18 160.32 51.17 160.06 51.18 z M 57.97 78.46 L 18.84 88.95 C 16.97 89.44 15.82 91.22 16.04 93.08 C 16.26 91.62 17.31 90.35 18.84 89.95 L 57.97 79.46 L 90.34 98.15 L 90.77 97.40 L 57.97 78.46 z M 97.40 101.23 L 78.46 134.03 L 78.64 134.71 L 97.40 102.23 L 130.21 121.16 L 140.70 160.30 C 140.74 160.46 140.75 160.62 140.78 160.79 C 140.85 160.30 140.83 159.80 140.70 159.30 L 130.21 120.16 L 97.40 101.23 z "/>
</svg>
