<?xml version='1.0' encoding='utf-8'?>
<svg xmlns="http://www.w3.org/2000/svg" width="192" height="192" version="1.1" id="svg14">
  <defs>
    <filter style="color-interpolation-filters:sRGB" id="filter849" x="0.05" y="0.05" width="1.10" height="1.10">
      <feGaussianBlur stdDeviation="3.20"/>
    </filter>
    <filter style="color-interpolation-filters:sRGB" id="filter853" x="0.12" y="0.03" width="1.25" height="1.06">
      <feGaussianBlur stdDeviation="1.24"/>
    </filter>
  </defs>
  <rect style="filter:url(#filter849);opacity:0.20" width="160" height="160" x="16" y="20" rx="32" ry="32"/>
  <rect style="fill:#6868ff" width="160" height="160" x="16" y="16" rx="32" ry="32"/>
  <path style="filter:url(#filter853);opacity:0.20" d="m 95.87,46 c -1.74,0.01 -2.09,0.05 -3.12,0.35 -4.08,1.22 -7.36,4.74 -8.49,9.12 0.24,0.91 0.26,1.29 0.26,3.46 0.01,2.74 0.14,3.79 1.05,8.45 0.77,3.96 0.72,3.72 2.16,10.52 2.71,12.82 4.05,20.17 5.61,30.77 0.38,2.61 0.72,4.87 0.75,5.03 0.06,0.29 0.07,0.29 2.41,0.29 h 2.35 l 0.07,0.41 c 0.04,0.23 0.32,-2.18 0.64,-4.33 1.63,-11.00 3.41,-20.76 5.87,-32.24 1.20,-5.62 1.98,-9.45 2.41,-11.80 1.16,-6.45 0.86,-9.98 -1.14,-13.26 C 104.79,49.69 102.32,47.53 100.12,46.69 98.58,46.10 97.91,45.99 95.87,46 Z M 96,122 a 12,12 0 0 0 -12,12 12,12 0 0 0 12,12 12,12 0 0 0 12,-12 12,12 0 0 0 -12,-12 z"/>
  <path style="fill:#ffffff" d="m 98.39,111.58 c 0.04,0.23 0.32,-2.18 0.64,-4.33 1.63,-11.00 3.41,-20.76 5.87,-32.24 1.20,-5.62 1.99,-9.45 2.41,-11.80 1.16,-6.45 0.86,-9.99 -1.14,-13.26 -1.39,-2.28 -3.86,-4.42 -6.06,-5.27 -1.54,0.59 -2.21,0.70 -4.25,0.69 -1.74,0.01 -2.09,0.05 -3.11,0.35 -4.08,1.22 -7.36,4.74 -8.49,9.12 0.24,0.91 0.26,1.29 0.26,3.46 0.01,2.74 0.14,3.79 1.05,8.45 0.77,3.96 0.72,3.72 2.16,10.52 2.71,12.82 4.05,20.17 5.61,30.77 0.38,2.61 0.72,4.87 0.75,5.03 0.06,0.29 0.06,0.29 2.41,0.29 h 2.35 z"/>
  <circle style="fill:#ffffff" cx="96" cy="132" r="12"/>
  <path style="opacity:0.10;fill:#ffffff" d="M 48 16 C 30.27 16 16 30.27 16 48 L 16 49 C 16 31.27 30.27 17 48 17 L 144 17 C 161.73 17 176 31.27 176 49 L 176 48 C 176 30.27 161.73 16 144 16 L 48 16 z "/>
</svg>
