<?xml version='1.0' encoding='utf-8'?>
<svg xmlns="http://www.w3.org/2000/svg" width="192" height="192" version="1.1" id="svg16">
  <defs>
    <filter style="color-interpolation-filters:sRGB" id="filter853" x="0.06" y="0.04" width="1.12" height="1.08">
      <feGaussianBlur stdDeviation="2.32"/>
    </filter>
    <filter style="color-interpolation-filters:sRGB" id="filter857" x="0.06" y="0.04" width="1.12" height="1.08">
      <feGaussianBlur stdDeviation="2.32"/>
    </filter>
  </defs>
  <path style="fill:#254fd0" d="m 104.11,91.41 c 4.32,22.87 2.98,43.51 -1.39,62.95 -34.88,4.43 -54.27,-1.01 -74.72,-5.77 L 48.97,138.39 C 16.72,103.93 35.79,67.13 47.62,49.66 L 48.29,70.61 C 63.82,33.24 85.52,22.89 120,16 85.36,43.91 83.14,78.64 86.46,114.53 Z"/>
  <path style="filter:url(#filter853);opacity:0.20" d="M 87.89,104.59 C 83.57,81.72 84.91,61.08 89.28,41.64 124.15,37.21 143.55,42.65 164,47.41 l -20.97,10.20 c 32.25,34.46 13.18,71.26 1.35,88.73 L 143.71,125.39 C 128.18,162.76 106.48,173.11 72,180 c 34.64,-27.91 36.86,-62.64 33.54,-98.53 z"/>
  <path style="fill:#2b93ff" d="M 87.89,100.59 C 83.57,77.72 84.91,57.08 89.28,37.64 124.15,33.21 143.55,38.65 164,43.41 l -20.97,10.20 c 32.25,34.46 13.18,71.26 1.35,88.73 L 143.71,121.39 C 128.18,158.76 106.48,169.11 72,176 c 34.64,-27.91 36.86,-62.64 33.54,-98.53 z"/>
  <path style="filter:url(#filter857);opacity:0.20" d="m 120,20 c -2.17,0.43 -4.15,0.94 -6.22,1.41 -5.17,4.85 -9.42,9.91 -12.97,15.10 1.04,0.07 2.01,0.12 3.02,0.17 C 108.21,30.68 113.52,25.22 120,20 Z M 85.68,84.01 c 0.23,3.86 0.35,7.74 0.29,11.66 0.03,-3.44 0.17,-6.86 0.44,-10.26 0.00,0.01 0.00,0.01 0,0.02 0.04,0.46 0.11,0.93 0.15,-1.39 z M 31.23,97.34 c 0.66,13.37 3.04,27.96 15.26,42.26 l 2.48,-1.20 C 36.07,124.61 31.46,110.48 31.23,97.34 Z M 106.70,119.81 c 0.04,12.02 -1.49,23.49 -3.98,34.55 -31.71,4.03 -50.59,0.13 -69.14,-4.49 L 28,152.59 c 20.45,4.77 39.85,10.20 74.73,5.77 2.76,-12.28 4.30,-25.05 3.98,-38.55 z"/>
  <path style="opacity:0.10;fill:#ffffff" d="M 120 16 C 85.52 22.89 63.82 33.24 48.29 70.61 L 47.62 49.66 C 40.55 60.10 30.91 77.43 31.16 97.05 C 31.24 77.85 40.67 60.92 47.62 50.66 L 48.29 71.61 C 63.57 34.83 84.86 24.24 118.40 17.34 C 118.93 16.89 119.45 16.44 120 16 z M 104.12 91.41 L 86.46 114.53 C 85.85 107.90 85.43 101.32 85.37 94.80 C 85.40 101.64 85.82 108.56 86.46 115.53 L 104.12 92.41 C 105.95 102.15 106.76 111.49 106.75 120.51 C 106.82 111.18 106.02 101.52 104.12 91.41 z M 48.35 138.69 L 28 148.59 C 28.46 148.70 28.92 148.81 29.39 148.91 L 48.97 139.39 C 48.75 139.16 48.56 138.92 48.35 138.69 z "/>
  <path style="opacity:0.20;fill:#ffffff" d="M 112.79 36.00 C 105.75 36.04 97.99 36.53 89.28 37.64 C 86.77 48.80 85.27 60.35 85.25 72.49 C 85.35 60.72 86.84 49.49 89.28 38.64 C 123.36 34.31 142.66 39.40 162.61 44.09 L 164 43.41 C 148.66 39.84 133.92 35.89 112.79 36.00 z M 143.65 54.31 L 143.03 54.61 C 156.01 68.48 160.67 82.73 160.84 95.95 C 160.90 82.68 156.46 68.31 143.65 54.31 z M 106.63 98.20 C 106.76 126.58 99.92 153.50 72 176 C 72.55 175.89 73.06 175.77 73.60 175.66 C 100.48 153.17 106.92 126.39 106.63 98.20 z "/>
  <path style="fill:#254fd0" d="m 104.11,91.41 c 4.32,22.87 2.98,43.51 -1.39,62.95 -7.94,1.01 -15.09,1.51 -21.62,1.62 l 5.36,-41.45 z"/>
</svg>
