<svg xmlns="http://www.w3.org/2000/svg" id="svg22" width="192" height="192" version="1.1"><defs><filter style="color-interpolation-filters:sRGB" id="filter986" width="1.1" height="1.1" x=".05" y=".05"><feGaussianBlur stdDeviation="3.2"/></filter><filter style="color-interpolation-filters:sRGB" id="filter991" width="1.08" height="1.11" x=".04" y=".06"><feGaussianBlur stdDeviation="2.2"/></filter></defs><path style="filter:url(#filter986);opacity:.2;fill:#000" d="m 96,20 c -44.32,0 -80,35.68 -80,80 0,23.98 10.50,45.36 27.10,60 C 57.19,172.42 75.66,180 96,180 c 20.34,0 38.81,-7.58 52.90,-20 C 165.50,145.36 176,123.98 176,100 176,55.68 140.32,20 96,20 Z"/><path style="fill:#8e2121" d="m 96.00,16 c -44.32,0 -80,35.68 -80,80 0,23.98 10.50,45.36 27.10,60 l 52.90,12 52.90,-12 c 16.60,-14.64 27.10,-36.02 27.10,-60 0,-44.32 -35.68,-80 -80.00,-80 z"/><path style="fill:#f2c557" d="m 92.00,92 -4.00,12 v 8 c 0,44 -16.00,44 -16.00,44 l 24,4 24.00,-4 c 0,0 -16,0 -16,-44 v -8 l -4,-12 z"/><path style="opacity:.1;fill:#fff" d="M 96.01 16 C 51.69 16 16.01 51.68 16.01 96 C 16.01 96.34 16.01 96.67 16.01 97 C 16.01 52.68 51.69 17 96.01 17 C 140.33 17 176.01 52.68 176.01 97 C 176.01 96.67 176.01 96.34 176.01 96 C 176.01 51.68 140.33 16 96.01 16 z"/><path style="filter:url(#filter991);opacity:.2" d="M 96,34 C 56,34 32,70 32,82 32,88.54 34.02,92.99 36.39,96.07 38.72,103.96 51.12,106.14 60,106 c 11.47,0.18 28,0 28,0 h 16 c 0,0 16.53,0.18 28,0 8.88,0.14 21.28,-2.04 23.61,-9.93 C 157.98,92.99 160,88.54 160,82 160,62 123.74,34 96,34 Z m -56,84 c -2.22,0 -4,1.78 -4,4 0,2.22 1.78,4 4,4 h 112 c 2.22,0 4,-1.78 4,-4 0,-2.22 -1.78,-4 -4,-4 z"/><path style="fill:#f2f257" d="m 96.00,44 c -52,0 -61.67,21.59 -60,48 0.61,9.60 14.39,12.15 24,12 11.47,0.18 28,0 28,0 h 16.00 c 0,0 16.53,0.18 28,0 9.61,0.15 23.39,-2.40 24,-12 1.67,-26.41 -20,-48 -60.00,-48 z"/><rect style="fill:#e66b19" width="120" height="8" x="36" y="116" ry="4"/><path style="fill:#82461d" d="m 43.10,156 c 14.09,12.42 32.56,20 52.90,20 20.34,0 38.81,-7.58 52.90,-20 z"/><path style="fill:#f29a57" d="m 44.00,100 c 0,0 -4,-16 -4,-20 0,-14.91 25.93,12.92 40,8 13.38,-4.67 13.87,-30.89 28.00,-32 10.38,0.82 13.77,18.07 24,20 4.14,0.78 7.78,-4 12,-4 8,0 8,6.34 8,12 0,8 -4,16 -4,16 0,0 12,-4 12,-20 0,-20 -36.26,-48 -64.00,-48 -40,0 -64,36 -64,48 0,16 12,20 12,20 z"/></svg>