<?xml version='1.0' encoding='utf-8'?>
<svg xmlns="http://www.w3.org/2000/svg" width="192" height="192" version="1" id="svg20">
  <defs>
    <filter style="color-interpolation-filters:sRGB" id="filter861" x="0.06" y="0.04" width="1.11" height="1.08">
      <feGaussianBlur stdDeviation="2.80"/>
    </filter>
    <filter style="color-interpolation-filters:sRGB" id="filter865" x="0.06" y="0.04" width="1.12" height="1.08">
      <feGaussianBlur stdDeviation="2.16"/>
    </filter>
  </defs>
  <path style="filter:url(#filter861);opacity:0.20" d="m 76,20.00 c -4.24,0.00 -8.31,1.69 -11.31,4.69 l -24,24.00 c -2.62,2.63 -4.21,6.04 -4.59,9.63 L 36,68.00 v 52.97 c 0.00,4.24 1.69,8.31 4.69,11.31 l 15.52,15.52 16.48,15.52 12,12.00 c 6.25,6.25 16.38,6.25 22.62,0 l 12,-12.00 16.48,-15.52 15.52,-15.52 c 3.00,-3.00 4.69,-7.07 4.69,-11.31 V 68.00 l 0.02,-8.45 c 0.11,-4.03 -1.74,-7.93 -4.67,-10.86 l -24,-24.00 C 124.31,21.69 120.24,20.00 116,20.00 Z"/>
  <path style="fill:#fd541a" d="m 76,16 c -4.24,0.00 -8.31,1.69 -11.31,4.69 l -24,24.00 c -2.62,2.63 -4.21,6.04 -4.59,9.63 L 36,64.00 v 52.97 c 0.00,4.24 1.69,8.31 4.69,11.31 l 15.52,15.52 16.48,15.52 12,12.00 c 6.25,6.25 16.38,6.25 22.62,0 l 12,-12.00 16.48,-15.52 15.52,-15.52 c 3.00,-3.00 4.69,-7.07 4.69,-11.31 V 64.00 l 0.02,-8.45 c 0.11,-4.03 -1.74,-7.93 -4.67,-10.86 l -24,-24.00 C 124.31,17.69 120.24,16.00 116,16 Z"/>
  <path style="filter:url(#filter865);opacity:0.20" d="M 76,34 52,58 h 32 v 59.03 l -8,-8 V 66 H 52 v 52.97 L 67.52,134.48 84,118 v 32 l 12,12 12,-12 V 118 L 124.48,134.48 140,118.97 V 66 h -24 v 43.03 l -8,8 V 58 h 32 L 116,34 Z"/>
  <path style="fill:#ffffff" d="M 76,32 52,56 h 32 v 59.03 L 76,107.03 V 64 H 52 v 52.97 L 67.52,132.48 84,116 v 32 l 12,12 12,-12 V 116 L 124.48,132.48 140,116.97 V 64 h -24 v 43.03 l -8,8.00 V 56 h 32 L 116,32 Z"/>
  <path style="opacity:0.20;fill:#ffffff" d="m 76,16 c -4.24,0.00 -8.31,1.69 -11.31,4.69 l -24,24 c -2.62,2.63 -4.21,6.05 -4.59,9.63 L 36,64 v 1 l 0.10,-9.68 C 36.48,51.74 38.06,48.32 40.69,45.69 l 24,-24 C 67.69,18.69 71.76,17.00 76,17 h 40 c 4.24,0.00 8.31,1.69 11.31,4.69 l 24,24 c 2.92,2.93 4.55,6.84 4.66,10.87 L 156,65 v -1 l 0.02,-8.45 c 0.11,-4.03 -1.74,-7.94 -4.66,-10.87 l -24,-24 C 124.31,17.69 120.24,16.00 116,16 Z"/>
</svg>
