<?xml version='1.0' encoding='utf-8'?>
<svg xmlns="http://www.w3.org/2000/svg" width="192" height="192" version="1.1" id="svg22">
  <defs>
    <filter style="color-interpolation-filters:sRGB" id="filter986" x="-0.048000001" y="-0.048000001" width="1.096" height="1.096">
      <feGaussianBlur stdDeviation="3.2"/>
    </filter>
    <filter style="color-interpolation-filters:sRGB" id="filter991" x="-0.041250001" y="-0.057391306" width="1.0825" height="1.1147826">
      <feGaussianBlur stdDeviation="2.2"/>
    </filter>
  </defs>
  <path style="filter:url(#filter986);opacity:0.2;fill:#000000" d="m 96,20 c -44.32,0 -80,35.68 -80,80 0,23.97666 10.497924,45.36195 27.101562,60 C 57.189155,172.41986 75.65666,180 96,180 c 20.34334,0 38.81085,-7.58014 52.89844,-20 C 165.50208,145.36195 176,123.97666 176,100 176,55.68 140.32,20 96,20 Z"/>
  <path style="fill:#8e2121" d="m 96.000111,16 c -44.32,0 -80,35.68 -80,80 0,23.97666 10.497925,45.36195 27.101564,60 l 52.898436,12 52.898439,-12 c 16.60364,-14.63805 27.10156,-36.02334 27.10156,-60 0,-44.32 -35.68,-80 -79.999999,-80 z"/>
  <path style="fill:#f2c557" d="m 92.000111,92 -4.000004,12 v 8 c 0,44 -15.999996,44 -15.999996,44 l 24,4 23.999999,-4 c 0,0 -16,0 -16,-44 v -8 l -4,-12 z"/>
  <path style="opacity:0.1;fill:#ffffff" d="M 96.007812 16 C 51.687812 16 16.007812 51.68 16.007812 96 C 16.007812 96.336 16.009812 96.6675 16.007812 97 C 16.007812 52.68 51.687812 17 96.007812 17 C 140.32781 17 176.00781 52.68 176.00781 97 C 176.00581 96.6675 176.00781 96.336 176.00781 96 C 176.00781 51.68 140.32781 16 96.007812 16 z "/>
  <path style="filter:url(#filter991);opacity:0.2" d="M 96,34 C 56,34 32,70 32,82 32,88.538684 34.020433,92.99384 36.390625,96.070312 38.719555,103.95927 51.12272,106.14313 60,106 c 11.468276,-0.18492 28,0 28,0 h 16 c 0,0 16.53173,-0.18492 28,0 8.87728,0.14312 21.28045,-2.04073 23.60938,-9.929688 C 157.97957,92.993841 160,88.538684 160,82 160,62 123.74487,34 96,34 Z m -56,84 c -2.216,0 -4,1.784 -4,4 0,2.216 1.784,4 4,4 h 112 c 2.216,0 4,-1.784 4,-4 0,-2.216 -1.784,-4 -4,-4 z"/>
  <path style="fill:#f2f257" d="m 96.000111,44 c -52,0 -61.667413,21.586668 -60,48 0.605755,9.5957 14.386448,12.155 24,12 11.468276,-0.18492 28,0 28,0 h 15.999999 c 0,0 16.53173,-0.18492 28,0 9.61355,0.155 23.39425,-2.4043 24,-12 1.66741,-26.413332 -20,-48 -59.999999,-48 z"/>
  <rect style="fill:#e66b19" width="120" height="8" x="36.000111" y="116" ry="4"/>
  <path style="fill:#82461d" d="m 43.101675,156 c 14.087592,12.41986 32.555096,20 52.898436,20 20.343339,0 38.810849,-7.58014 52.898439,-20 z"/>
  <path style="fill:#f29a57" d="m 44.000111,100 c 0,0 -4,-16 -4,-20 0,-14.90712 25.926748,12.915872 40,8 13.380696,-4.673956 13.870248,-30.886908 27.999999,-32 10.38151,-0.817816 13.76691,18.069152 24,20 4.14326,0.781776 7.78363,-4 12,-4 8,0 8,6.343144 8,12 0,8 -4,16 -4,16 0,0 12,-4 12,-20 0,-20 -36.25513,-48 -63.999999,-48 -40,0 -64,36 -64,48 0,16 12,20 12,20 z"/>
</svg>
