<?xml version='1.0' encoding='utf-8'?>
<svg xmlns="http://www.w3.org/2000/svg" width="192" height="192" version="1" id="svg14">
  <defs>
    <filter style="color-interpolation-filters:sRGB" id="filter850" x="0.05" width="1.10" y="0.05" height="1.10">
      <feGaussianBlur stdDeviation="3.20"/>
    </filter>
    <filter style="color-interpolation-filters:sRGB" id="filter21996" x="0.08" y="0.07" width="1.17" height="1.14">
      <feGaussianBlur stdDeviation="3.72"/>
    </filter>
  </defs>
  <circle style="filter:url(#filter850);opacity:0.20;fill:#000000" cx="96" cy="100" r="80"/>
  <circle r="80" cy="96" cx="96" style="fill:#ffc408"/>
  <path style="filter:url(#filter21996);opacity:0.20;fill:#000000" d="m 125.16,19.94 c 0.31,0.00 0.63,0.01 0.95,0.02 -5.07,0.24 -9.89,2.81 -13.54,6.87 -2.52,2.80 -4.62,6.29 -6.39,10.46 -4.13,0.75 -8.27,-1.32 -12.42,-1.80 -1.38,0.16 -2.31,1.34 -2.31,1.34 l -5.23,14.00 c 0.27,0.71 0.41,1.13 0.38,1.38 -21.93,5.06 -38.54,25.64 -38.94,52.37 0.41,27.19 22.80,46.20 49.75,46.42 C 127.12,151.26 145,128.81 145,101.62 c 0,-15.15 -7.30,-29.12 -18.42,-38.53 0.24,0.09 0.42,0.42 0.58,-1.19 l 4.03,-11.66 c 1.35,-2.79 0.36,-4.16 -4.95,-6.50 -3.33,-1.45 -6.68,-2.64 -10.04,-3.64 1.13,-2.27 2.28,-4.02 3.38,-5.24 2.01,-2.23 3.52,-2.83 5.20,-2.91 3.35,0.16 9.70,3.35 16.35,12.56 a 6,6 0 0 0 8.38,1.35 6,6 0 0 0 1.35,-8.38 C 143.33,27.05 134.89,19.93 125.16,19.94 Z"/>
  <path style="fill:#38adfa" d="m 688.81,257.00 c 0.33,0.33 -1.19,0.37 -1.92,0.08 0.80,0.32 0.56,0.56 0.60,0.60 1.05,0.04 1.64,0.19 1.31,0.53 z"/>
  <path style="opacity:0.20;fill:#ffffff" d="M 96 16 A 80 80 0 0 0 16 96 A 80 80 0 0 0 16.02 96.47 A 80 80 0 0 1 96 17 A 80 80 0 0 1 175.97 96.51 A 80 80 0 0 0 176 96 A 80 80 0 0 0 96 16 z "/>
  <path style="fill:#70435e" d="M 145,99.62 C 145,126.81 127.12,149.26 94.76,149.00 67.80,148.78 44.60,129.77 45.01,102.58 45.47,71.69 67.57,49.00 94.53,49.00 121.49,49 145,72.43 145,99.62 Z"/>
  <path style="fill:#ffffff;color:#000000" d="m 124.21,17.96 c -5.07,0.24 -9.89,2.81 -13.54,6.87 -3.65,4.05 -6.41,9.51 -8.59,16.45 a 6,6 0 0 0 3.93,7.52 6,6 0 0 0 7.52,-3.93 c 1.83,-5.84 4.05,-9.78 6.06,-12.01 2.01,-2.23 3.52,-2.83 5.20,-2.91 3.35,0.16 9.70,3.35 16.35,12.56 a 6,6 0 0 0 8.38,1.35 6,6 0 0 0 1.35,-8.38 C 143.09,24.71 134.34,17.48 124.21,17.96 Z"/>
  <path style="fill:#402635" d="m 76.29,69.63 5.67,0.68 0.12,13.23 -6.73,0.19 z"/>
  <path style="fill:#402635" d="m 109.30,68.18 -5.54,0.57 1.82,13.10 6.70,0.67 z"/>
  <path style="fill:#402635;color:#000000" d="m 60.47,91.93 c 0,0 0.10,10.86 4.62,21.19 2.36,5.16 5.97,10.26 11.49,13.70 5.52,3.43 12.90,5.11 22.37,3.68 17.35,-2.62 25.68,-12.04 29.28,-20.71 3.60,-8.67 2.74,-16.67 2.74,-16.67 l -3.99,0.42 c 0,0 0.73,7.06 -2.46,14.73 -3.18,7.66 -10.02,15.84 -26.18,18.29 -8.73,1.32 -14.97,0.21 -19.65,-3.11 -4.67,-2.91 -7.83,-7.30 -9.96,-11.96 -4.27,-9.34 -4.26,-19.51 -4.26,-19.51 z"/>
  <path style="fill:#402635" d="m 57.64,90.03 c 3.71,0.74 7.43,0.54 11.18,0.81 l 0.79,3.36 -10.46,-1.03 z"/>
  <path style="fill:#402635" d="m 133.27,90.36 c -3.39,0.10 -5.94,0.33 -9.48,0.99 l 0.79,3.36 8.92,0.93 z"/>
  <path style="fill:#8a5274" d="m 91.86,33.50 c 11.57,1.33 23.09,3.33 34.38,8.25 4.59,2.34 6.30,3.71 4.95,6.50 l -4.03,11.65 c 0.39,1.85 0.87,1.23 -2.06,0.51 -11.75,-6.95 -25.38,-9.02 -39.50,-9.82 -1.87,0.04 -1.96,0.05 -1.28,-1.76 l 5.23,-14.00 c 0,0 0.93,-1.50 2.31,-1.34 z"/>
</svg>
