<?xml version='1.0' encoding='utf-8'?>
<svg xmlns="http://www.w3.org/2000/svg" width="192" height="192" version="1.1" id="svg20">
  <defs>
    <filter style="color-interpolation-filters:sRGB" id="filter871" x="0.05" width="1.10" y="0.05" height="1.10">
      <feGaussianBlur stdDeviation="3.20"/>
    </filter>
    <filter style="color-interpolation-filters:sRGB" id="filter909" x="0.04" width="1.09" y="0.05" height="1.11">
      <feGaussianBlur stdDeviation="2.04"/>
    </filter>
  </defs>
  <path d="M 96,20 A 80,80 0 0 0 16,100 80,80 0 0 0 96,180 80,80 0 0 0 176,100 80,80 0 0 0 96,20 Z" style="filter:url(#filter871);opacity:0.20;fill:#000000"/>
  <path style="fill:#ed6212" d="M 96,16 A 80,80 0 0 0 16,96 80,80 0 0 0 96,176 80,80 0 0 0 176,96 80,80 0 0 0 96,16 Z"/>
  <path style="opacity:0.20;fill:#ffffff" d="M 96.00 16 A 80 80 0 0 0 16 96 A 80 80 0 0 0 16.02 96.41 A 80 80 0 0 1 96.00 17 L 96 17 A 80 80 0 0 1 175.98 96.58 A 80 80 0 0 0 176.00 96 A 80 80 0 0 0 96 16 L 96.00 16 z "/>
  <path style="filter:url(#filter909);opacity:0.20;fill:#000000;color:#000000;font-stretch:normal;font-variant-ligatures:normal;font-variant-position:normal;font-variant-caps:normal;font-variant-numeric:normal;font-variant-alternates:normal;font-feature-settings:normal;text-indent:0;text-align:start;text-decoration-line:none;text-decoration-style:solid;text-decoration-color:#000000;text-transform:none;writing-mode:lr-tb;direction:ltr;text-orientation:mixed;dominant-baseline:auto;baseline-shift:baseline;white-space:normal;shape-padding:0;clip-rule:nonzero;display:inline;overflow:visible;visibility:visible;isolation:auto;mix-blend-mode:normal;color-interpolation:sRGB;color-interpolation-filters:linearRGB;solid-color:#000000;solid-opacity:1;vector-effect:none;fill-rule:nonzero;color-rendering:auto;image-rendering:auto;shape-rendering:auto;text-rendering:auto;enable-background:accumulate" d="m 136,50.00 c -2.22,0 -4,1.78 -4,4 v 12 h -12 c -2.22,0 -4,1.78 -4,4 0,2.22 1.78,4 4,4 h 12 v 12 c 0,2.22 1.78,4 4,4 2.22,0 4,-1.78 4,-4 v -12 h 12 c 2.22,0 4,-1.78 4,-4 0,-2.22 -1.78,-4 -4,-4 h -12 v -12 c 0,-2.22 -1.78,-4 -4,-4 z M 68,77.89 c -9.33,0 -15.77,2.46 -19.66,6.34 -1.94,1.94 -3.10,4.12 -3.68,5.88 C 44.07,91.87 44,93.89 44,93.89 v 40 a 8.00,8.00 0 1 0 16,0 V 95.37 c 0.40,0.33 2.00,-1.48 8,-1.48 6.00,0 7.60,1.15 8,1.48 v 38.52 a 8.00,8.00 0 0 0 0.03,0.80 8.00,8.00 0 0 0 0.29,1.57 8.00,8.00 0 0 0 0.60,1.48 8.00,8.00 0 0 0 0.88,1.33 8.00,8.00 0 0 0 1.77,1.60 8.00,8.00 0 0 0 0.00,0 8.00,8.00 0 0 0 2.17,1.01 8.00,8.00 0 0 0 0.78,0.19 8.00,8.00 0 0 0 0.79,0.11 8.00,8.00 0 0 0 0.80,0.03 8.00,8.00 0 0 0 3.11,0.68 8.00,8.00 0 0 0 0.71,0.36 8.00,8.00 0 0 0 0.68,0.43 8.00,8.00 0 0 0 0.63,0.49 8.00,8.00 0 0 0 0.58,0.55 8.00,8.00 0 0 0 0.52,0.61 8.00,8.00 0 0 0 0.46,0.66 8.00,8.00 0 0 0 0.70,-1.44 8.00,8.00 0 0 0 0.40,-1.54 8.00,8.00 0 0 0 0.10,-1.35 V 95.37 c 0.40,0.33 2.00,-1.48 8.00,-1.48 6.00,0 7.60,1.15 8,1.48 v 38.52 a 8.00,8.00 0 1 0 16,0 v -40 c 0,0 0.07,-2.02 0.66,-3.78 0.59,-1.76 -1.74,-3.93 -3.68,-5.88 -3.89,-3.89 -10.32,-6.34 -19.66,-6.34 -6.86,0 -12.13,1.35 -16.00,3.60 -3.87,-2.25 -9.14,-3.60 -16,-3.60 z"/>
  <path style="fill:none;stroke:#f8bf94;stroke-width:16;stroke-linecap:round;stroke-linejoin:round" d="m 84.00,131.89 v -40 c 0,0 0,-8 16,-8 16,0 16,8 16,8 v 40 m -64.00,0 v -40 c 0,0 0,-8 16,-8 16,0 16,8 16,8 v 40"/>
  <rect style="fill:#ffffff" width="8" height="40" x="132" y="48" rx="4" ry="4"/>
  <rect style="fill:#ffffff" width="8" height="40" x="64" y="-156" rx="4" ry="4" transform="rotate(90)"/>
  <path style="opacity:0.20;fill:#ffffff" d="M 68 75.88 C 58.67 75.88 52.23 78.34 48.34 82.23 C 46.40 84.17 45.25 86.35 44.66 88.11 C 44.08 89.87 44 91.88 44 91.88 L 44 92.88 C 44 92.88 44.08 90.87 44.66 89.11 C 45.25 87.35 46.40 85.17 48.34 83.23 C 52.23 79.34 58.67 76.88 68 76.88 C 75.14 76.88 80.10 78.64 84 81.05 C 87.90 78.64 92.86 76.88 100 76.88 C 109.33 76.88 115.77 79.34 119.66 83.23 C 121.60 85.17 122.76 87.35 123.34 89.11 C 123.93 90.87 124 92.88 124 92.88 L 124 91.88 C 124 91.88 123.93 89.87 123.34 88.11 C 122.76 86.35 121.60 84.17 119.66 82.23 C 115.77 78.34 109.33 75.88 100 75.88 C 92.86 75.88 87.90 77.64 84 80.05 C 80.10 77.64 75.14 75.88 68 75.88 z "/>
</svg>
