<?xml version='1.0' encoding='utf-8'?>
<svg xmlns="http://www.w3.org/2000/svg" width="192" height="192" version="1" id="svg28">
  <defs>
    <filter style="color-interpolation-filters:sRGB" id="filter25653" x="0.04" y="0.05" width="1.09" height="1.10">
      <feGaussianBlur stdDeviation="3.18"/>
    </filter>
    <filter style="color-interpolation-filters:sRGB" id="filter25813" x="0.07" y="0.08" width="1.14" height="1.16">
      <feGaussianBlur stdDeviation="2.11"/>
    </filter>
  </defs>
  <path style="filter:url(#filter25653);opacity:0.20;fill:#000000;color:#000000" d="m 57.31,25 a 7.62,7.66 0 0 0 -6.60,3.83 L 12.02,96.17 a 7.62,7.66 0 0 0 0,7.66 l 38.69,67.34 A 7.62,7.66 0 0 0 57.31,175 h 77.38 a 7.62,7.66 0 0 0 6.60,-3.83 l 38.69,-67.34 a 7.62,7.66 0 0 0 0,-7.66 L 141.29,28.83 A 7.62,7.66 0 0 0 134.69,25 Z"/>
  <path style="fill:#35c5e1;color:#000000" d="m 57.31,21 a 7.62,7.66 0 0 0 -6.60,3.83 L 12.02,92.17 a 7.62,7.66 0 0 0 0,7.66 l 38.69,67.34 A 7.62,7.66 0 0 0 57.31,171 h 77.38 a 7.62,7.66 0 0 0 6.60,-3.83 l 38.69,-67.34 a 7.62,7.66 0 0 0 0,-7.66 L 141.29,24.83 A 7.62,7.66 0 0 0 134.69,21 Z"/>
  <path style="fill:#97e3ee" d="M 90.12 21 L 157.46 139.02 L 172.32 113.16 L 110.54 21 L 90.12 21 z M 35.89 50.63 L 13.57 89.48 L 105.52 171 L 134.69 171 A 7.62 7.66 0 0 0 141.29 167.17 L 147.00 157.22 L 35.89 50.63 z "/>
  <path style="fill:#3f3f3f;color:#000000" d="m 72.79,51 a 4.57,4.59 0 0 0 -3.96,2.30 L 45.61,93.70 a 4.57,4.59 0 0 0 0,4.59 L 68.83,138.70 A 4.57,4.59 0 0 0 72.79,141 h 46.43 a 4.57,4.59 0 0 0 3.96,-2.30 l 23.21,-40.41 a 4.57,4.59 0 0 0 0,-4.59 L 123.17,53.30 A 4.57,4.59 0 0 0 119.21,51 Z"/>
  <path style="filter:url(#filter25813);opacity:0.20;fill:#000000;color:#000000" d="m 79.61,66.00 a 3.23,3.27 0 0 0 -2.79,1.63 L 60.43,96.37 a 3.23,3.27 0 0 0 0,3.27 L 76.82,128.37 A 3.23,3.27 0 0 0 79.61,130 h 32.77 a 3.23,3.27 0 0 0 2.79,-1.63 l 16.39,-28.73 a 3.23,3.27 0 0 0 0,-3.27 L 115.18,67.63 a 3.23,3.27 0 0 0 -2.79,-1.63 z"/>
  <path style="fill:#35c5e1;color:#000000" d="m 79.61,64.00 a 3.23,3.27 0 0 0 -2.79,1.63 L 60.43,94.37 a 3.23,3.27 0 0 0 0,3.27 l 16.39,28.73 a 3.23,3.27 0 0 0 2.79,1.63 h 32.77 a 3.23,3.27 0 0 0 2.79,-1.63 l 16.39,-28.73 a 3.23,3.27 0 0 0 0,-3.27 L 115.18,65.63 A 3.23,3.27 0 0 0 112.39,64 Z"/>
  <path style="fill:#97e3ee" d="m 67.91,81.24 -7.48,13.12 a 3.23,3.27 0 0 0 0,3.27 L 76.82,126.36 A 3.23,3.27 0 0 0 79.61,128 h 32.77 a 3.23,3.27 0 0 0 2.54,-1.33 z"/>
  <path style="opacity:0.20;fill:#ffffff;color:#000000" d="M 57.31 21 A 7.62 7.66 0 0 0 50.71 24.83 L 12.02 92.17 A 7.62 7.66 0 0 0 11.12 95.67 A 7.62 7.66 0 0 1 12.02 93.17 L 50.71 25.83 A 7.62 7.66 0 0 1 57.31 22 L 134.69 22 A 7.62 7.66 0 0 1 141.29 25.83 L 179.98 93.17 A 7.62 7.66 0 0 1 180.98 96.50 A 7.62 7.66 0 0 0 179.98 92.17 L 141.29 24.83 A 7.62 7.66 0 0 0 134.69 21 L 57.31 21 z "/>
  <path style="opacity:0.20;fill:#ffffff;color:#000000" d="M 79.61 64 A 3.23 3.27 0 0 0 76.82 65.63 L 60.43 94.37 A 3.23 3.27 0 0 0 60.05 96.43 A 3.23 3.27 0 0 1 60.43 95.37 L 76.82 66.63 A 3.23 3.27 0 0 1 79.61 65 L 112.39 65 A 3.23 3.27 0 0 1 115.18 66.63 L 131.57 95.37 A 3.23 3.27 0 0 1 131.96 96.50 A 3.23 3.27 0 0 0 131.57 94.37 L 115.18 65.63 A 3.23 3.27 0 0 0 112.39 64 L 79.61 64 z "/>
</svg>
