<?xml version='1.0' encoding='utf-8'?>
<svg xmlns="http://www.w3.org/2000/svg" width="192" height="192" version="1.1" id="svg68">
  <defs>
    <filter style="color-interpolation-filters:sRGB" id="filter957" x="-0.048000001" y="-0.048000001" width="1.096" height="1.096">
      <feGaussianBlur stdDeviation="3.2"/>
    </filter>
    <filter style="color-interpolation-filters:sRGB" id="filter971" x="-0.029999999" y="-0.12" width="1.06" height="1.24">
      <feGaussianBlur stdDeviation="1.8"/>
    </filter>
  </defs>
  <rect style="filter:url(#filter957);opacity:0.2" width="160" height="160" x="16" y="20" rx="8" ry="8"/>
  <rect style="fill:#9293ff" width="160" height="160" x="16" y="16" rx="8" ry="8"/>
  <path style="fill:#6469bb" d="M 176,167.99998 V 92 H 16 v 75.99998 c 0,4.432 3.568,8 8,8 h 144 c 4.432,0 8,-3.568 8,-8 z"/>
  <path style="fill:#3e3e3e" d="m 48,28 h 96 V 80 H 48 m 0,-52"/>
  <path style="fill:#3e3e3e" d="m 64,112 h 64 v 52 H 64 m 0,-52"/>
  <path style="filter:url(#filter971);opacity:0.2" d="m 36,122 v 12 H 24 v 12 h 12 v 12 H 48 V 146 H 60 V 134 H 48 v -12 z m 114,0 a 6,6 0 0 0 -6,6 6,6 0 0 0 6,6 6,6 0 0 0 6,-6 6,6 0 0 0 -6,-6 z m -12,12 a 6,6 0 0 0 -6,6 6,6 0 0 0 6,6 6,6 0 0 0 6,-6 6,6 0 0 0 -6,-6 z m 24,0 a 6,6 0 0 0 -6,6 6,6 0 0 0 6,6 6,6 0 0 0 6,-6 6,6 0 0 0 -6,-6 z m -12,12 a 6,6 0 0 0 -6,6 6,6 0 0 0 6,6 6,6 0 0 0 6,-6 6,6 0 0 0 -6,-6 z"/>
  <g style="fill:#e4e4e4" transform="matrix(4,0,0,4,-16.080002,68.28)">
    <rect width="3" height="9" x="13.02" y="12.93" ry="0"/>
    <rect width="3" height="9" x="15.93" y="-19.02" ry="0" transform="rotate(90)"/>
  </g>
  <g style="fill:#e4e4e4" transform="matrix(4,0,0,4,34.143919,3.1285706)">
    <circle style="fill:#e4e4e4" cx="31.964001" cy="33.717999" r="1.5"/>
    <g style="fill:#e4e4e4" transform="translate(-4.5559803,16.287855)">
      <circle style="fill:#e4e4e4" cx="30.52" cy="17.43" r="1.5"/>
      <circle style="fill:#e4e4e4" cx="14.43" cy="-33.52" r="1.5" transform="rotate(90)"/>
    </g>
    <circle style="fill:#e4e4e4" cx="36.717999" cy="-28.964001" r="1.5" transform="rotate(90)"/>
  </g>
  <g style="opacity:0.2" transform="scale(4)">
    <rect width="4" height="1" x="6" y="15"/>
    <rect width="4" height="1" x="6" y="17"/>
    <rect width="4" height="1" x="6" y="19"/>
  </g>
  <g style="opacity:0.2" transform="matrix(4,0,0,4,128,0)">
    <rect width="4" height="1" x="6" y="15"/>
    <rect width="4" height="1" x="6" y="17"/>
    <rect width="4" height="1" x="6" y="19"/>
  </g>
  <rect style="opacity:0.2" width="160" height="8" x="16" y="92"/>
  <path style="opacity:0.2;fill:#ffffff" d="M 24 16 C 19.568 16 16 19.568 16 24 L 16 25 C 16 20.568 19.568 17 24 17 L 168 17 C 172.432 17 176 20.568 176 25 L 176 24 C 176 19.568 172.432 16 168 16 L 24 16 z "/>
</svg>
