<?xml version='1.0' encoding='utf-8'?>
<svg xmlns="http://www.w3.org/2000/svg" width="192" height="192" version="1.1" id="svg14">
  <defs>
    <filter style="color-interpolation-filters:sRGB" id="filter849" x="0.05" y="0.05" width="1.10" height="1.10">
      <feGaussianBlur stdDeviation="3.20"/>
    </filter>
    <filter style="color-interpolation-filters:sRGB" id="filter853" x="0.05" y="0.05" width="1.10" height="1.11">
      <feGaussianBlur stdDeviation="3.23"/>
    </filter>
  </defs>
  <circle style="filter:url(#filter849);opacity:0.20" cx="96" cy="100" r="80"/>
  <circle style="fill:#3f3f3f" cx="96" cy="96" r="80"/>
  <path style="opacity:0.10;fill:#ffffff" d="M 96 16 A 80 80 0 0 0 16 96 A 80 80 0 0 0 16.02 96.64 A 80 80 0 0 1 96 17 A 80 80 0 0 1 175.98 96.30 A 80 80 0 0 0 176 96 A 80 80 0 0 0 96 16 z "/>
  <path style="filter:url(#filter853);opacity:0.20" d="m 52.70,30.73 a 80,80 0 0 0 -6.38,4.57 L 63.53,86.99 18.27,116.52 a 80,80 0 0 0 1.46,5.34 l 55.50,0.27 15.61,55.62 A 80,80 0 0 0 96,178 80,80 0 0 0 99.88,177.86 L 116.42,122 H 128 172.30 a 80,80 0 0 0 1.66,-6.38 l -44.94,-29.20 17.77,-50.18 a 80,80 0 0 0 -6.77,-4.98 L 96.70,62.83 Z m 5.07,13.60 32.13,23.45 -19.58,14.27 z m 77.58,0.23 -13.08,36.94 -18.79,-13.72 z M 96.69,72.73 119.48,89.37 110.77,114 H 110.59 80.96 L 72.98,90.01 Z M 126.23,94.30 158.04,114 H 128 119.26 Z M 66.19,94.96 72.52,114 H 64 v 0.05 L 35.75,113.93 Z M 83.62,122 h 24.13 l -12.45,43.88 0.35,-1.02 z"/>
  <path style="fill:#f14c21" d="m 52.70,28.73 a 80,80 0 0 0 -6.38,4.57 L 63.53,84.99 18.27,114.52 a 80,80 0 0 0 1.46,5.34 l 55.50,0.27 15.61,55.62 A 80,80 0 0 0 96,176 80,80 0 0 0 99.88,175.86 L 116.42,120 H 128 172.30 a 80,80 0 0 0 1.66,-6.38 l -44.94,-29.20 17.77,-50.18 a 80,80 0 0 0 -6.77,-4.98 L 96.70,60.83 Z m 5.07,13.60 32.13,23.45 -19.58,14.27 z m 77.58,0.23 -13.08,36.94 -18.79,-13.72 z M 96.69,70.73 119.48,87.37 110.77,112 H 110.59 80.96 L 72.98,88.01 Z M 126.23,92.30 158.04,112 H 128 119.26 Z M 66.19,92.96 72.52,112 H 64 v 0.05 L 35.75,111.93 Z M 83.62,120 h 24.13 l -12.45,43.88 0.35,-1.02 z"/>
  <path style="opacity:0.20;fill:#ffffff" d="M 52.70 28.73 A 80 80 0 0 0 46.33 33.30 L 46.60 34.10 A 80 80 0 0 1 52.70 29.73 L 96.70 61.83 L 140.02 30.27 A 80 80 0 0 1 146.51 35.04 L 146.79 34.24 A 80 80 0 0 0 140.02 29.27 L 96.70 60.83 L 52.70 28.73 z M 57.77 43.33 L 70.33 81.05 L 89.91 66.78 L 89.22 66.28 L 70.33 80.05 L 58.21 43.65 L 57.77 43.33 z M 135.35 43.56 L 134.88 43.91 L 122.27 79.50 L 104.17 66.28 L 103.48 66.78 L 122.27 80.50 L 135.35 43.56 z M 129.31 84.61 L 129.02 85.42 L 173.74 114.48 A 80 80 0 0 0 173.96 113.62 L 129.31 84.61 z M 63.26 85.17 L 18.27 114.52 A 80 80 0 0 0 18.50 115.36 L 63.53 85.99 L 63.26 85.17 z M 119.20 88.16 L 110.77 112 L 110.59 112 L 80.96 112 L 73.24 88.81 L 72.98 89.01 L 80.96 113 L 110.59 113 L 110.77 113 L 119.48 88.37 L 119.20 88.16 z M 37.34 111.94 L 35.75 112.93 L 64 113.05 L 64 113 L 72.52 113 L 72.19 112 L 64 112 L 64 112.05 L 37.34 111.94 z M 119.61 112 L 119.26 113 L 128 113 L 158.04 113 L 156.43 112 L 128 112 L 119.61 112 z M 83.62 121 L 94.96 163.87 L 95.31 164.88 L 107.76 121 L 107.47 121 L 95.31 163.88 L 94.96 162.87 L 83.89 121 L 83.62 121 z "/>
</svg>
