<svg xmlns="http://www.w3.org/2000/svg" id="svg12" width="192" height="192" version="1"><defs><filter style="color-interpolation-filters:sRGB" id="filter63334" width="1.1" height="1.1" x=".05" y=".05"><feGaussianBlur stdDeviation="3"/></filter></defs><path style="filter:url(#filter63334);opacity:.2;fill:#000" d="M 69,24 V 34 H 59 V 44 54 64 H 49 V 74 H 39 V 84 H 29 V 94 H 19 v 10 h 10 v 10 h 10 10 v 10 H 39 v 10 10 H 29 v 10 h 10 10 10 10 10 v 10 h 10 10 v 10 h 10 10 10 10 10 v -10 h 10 v -10 h 10 V 144 134 124 114 104 94 84 74 H 159 V 64 54 44 34 24 H 149 V 34 H 139 129 119 109 V 24 H 99 89 79 Z"/><path style="fill:#1793c6" d="M 69,20 V 30 H 59 V 40 50 60 H 49 V 70 H 59 69 V 60 50 40 H 79 V 30 H 89 V 40 H 99 V 30 h 10 V 20 H 99 89 79 Z m 40,10 v 10 h 10 10 10 V 30 h -10 -10 z m 0,10 H 99 v 10 10 h 10 V 50 Z M 49,70 H 39 V 80 H 49 Z M 39,80 H 29 v 10 10 h 10 10 v 10 10 10 h 10 v 10 H 69 79 V 130 H 69 V 120 H 59 V 110 100 90 H 49 39 Z M 149,20 v 10 h 10 V 20 Z m 0,10 h -10 v 10 10 h 10 V 40 Z m 0,20 v 10 10 h 10 V 60 50 Z m 10,20 v 10 10 10 10 10 h 10 V 110 100 90 80 70 Z"/><path style="fill:#fff" d="M 99 70 L 99 80 L 89 80 L 89 90 L 89 100 L 89 110 L 89 120 L 89 130 L 99 130 L 109 130 L 119 130 L 119 120 L 109 120 L 99 120 L 99 110 L 99 100 L 99 90 L 109 90 L 119 90 L 119 100 L 119 110 L 119 120 L 129 120 L 139 120 L 139 110 L 139 100 L 139 90 L 129 90 L 129 80 L 119 80 L 119 70 L 109 70 L 99 70 z M 139 90 L 149 90 L 149 100 L 149 110 L 149 120 L 159 120 L 159 110 L 159 100 L 159 90 L 159 80 L 159 70 L 149 70 L 149 80 L 139 80 L 139 90 z"/><path style="fill:#dc685f" d="M 79,30 V 40 H 89 V 30 Z M 89,40 V 50 60 H 99 V 50 40 Z m 60,-10 v 10 10 h 10 V 40 30 Z M 69,50 V 60 70 H 79 V 60 50 Z m 10,70 v 10 10 10 h 10 v -10 -10 -10 z m 10,30 v 10 h 10 v -10 z m 10,10 v 10 h 10 10 10 10 10 v -10 h -10 -10 -10 -10 z m 50,0 h 10 v -10 h -10 z m 10,-10 h 10 v -10 -10 -10 h -10 v 10 10 z m -40,-30 v 10 H 99 v 10 h 20 v -10 h 20 v -10 h -10 z"/><path style="fill:#433838" d="m 149,120 h 10 v 10 h -10 z"/><path style="fill:#433838" d="m 139,120 h 10 v 10 h -10 z"/><path style="fill:#793048" d="M 99 140 L 99 150 L 109 150 L 109 140 L 99 140 z M 109 150 L 109 160 L 119 160 L 129 160 L 129 150 L 119 150 L 109 150 z"/><path style="fill:#433838" d="M 99 90 L 99 100 L 99 110 L 109 110 L 109 100 L 119 100 L 119 90 L 109 90 L 99 90 z M 139 90 L 139 100 L 139 110 L 149 110 L 149 100 L 149 90 L 139 90 z"/><path style="fill:#226ba9" d="M 69 40 L 69 50 L 79 50 L 79 40 L 69 40 z M 79 60 L 79 70 L 89 70 L 89 60 L 79 60 z M 79 70 L 69 70 L 69 80 L 79 80 L 79 70 z M 19 90 L 19 100 L 29 100 L 29 90 L 19 90 z M 29 100 L 29 110 L 39 110 L 49 110 L 49 100 L 39 100 L 29 100 z M 39 120 L 39 130 L 39 140 L 29 140 L 29 150 L 39 150 L 49 150 L 59 150 L 69 150 L 79 150 L 79 140 L 69 140 L 59 140 L 59 130 L 49 130 L 49 120 L 39 120 z M 79 150 L 79 160 L 89 160 L 89 150 L 79 150 z"/><path style="fill:#33ae3f" d="m 99,110 h 10 v 10 H 99 Z"/><path style="fill:#ccd756" d="m 109,110 h 10 v 10 h -10 z"/><path style="fill:#70b25b" d="m 109,100 h 10 v 10 h -10 z"/><path style="fill:#33ae3f" d="m 139,110 h 10 v 10 h -10 z"/><path style="fill:#fbb576" d="M 79 40 L 79 50 L 79 60 L 89 60 L 89 50 L 89 40 L 79 40 z M 89 130 L 89 140 L 89 150 L 99 150 L 99 140 L 99 130 L 89 130 z M 99 150 L 99 160 L 109 160 L 109 150 L 99 150 z M 109 150 L 119 150 L 129 150 L 129 160 L 139 160 L 149 160 L 149 150 L 159 150 L 159 140 L 159 130 L 149 130 L 139 130 L 129 130 L 119 130 L 119 140 L 109 140 L 109 150 z"/><path style="fill:#18bceb" d="M 99 30 L 99 40 L 109 40 L 109 30 L 99 30 z M 109 40 L 109 50 L 109 60 L 99 60 L 89 60 L 89 70 L 79 70 L 79 80 L 69 80 L 69 70 L 59 70 L 49 70 L 49 80 L 39 80 L 39 90 L 49 90 L 59 90 L 59 100 L 59 110 L 59 120 L 69 120 L 69 130 L 79 130 L 79 120 L 89 120 L 89 110 L 89 100 L 89 90 L 89 80 L 99 80 L 99 70 L 109 70 L 119 70 L 119 80 L 129 80 L 129 90 L 139 90 L 139 80 L 149 80 L 149 70 L 149 60 L 149 50 L 139 50 L 139 40 L 129 40 L 119 40 L 109 40 z"/><path style="opacity:.2;fill:#fff" d="M 69 20 L 69 21 L 79 21 L 89 21 L 99 21 L 109 21 L 109 20 L 99 20 L 89 20 L 79 20 L 69 20 z M 149 20 L 149 21 L 159 21 L 159 20 L 149 20 z M 59 30 L 59 31 L 69 31 L 69 30 L 59 30 z M 109 30 L 109 31 L 119 31 L 129 31 L 139 31 L 149 31 L 149 30 L 139 30 L 129 30 L 119 30 L 109 30 z M 49 60 L 49 61 L 59 61 L 59 60 L 49 60 z M 39 70 L 39 71 L 49 71 L 49 70 L 39 70 z M 159 70 L 159 71 L 169 71 L 169 70 L 159 70 z M 29 80 L 29 81 L 39 81 L 39 80 L 29 80 z M 19 90 L 19 91 L 29 91 L 29 90 L 19 90 z M 39 120 L 39 121 L 49 121 L 49 120 L 39 120 z M 29 140 L 29 141 L 39 141 L 39 140 L 29 140 z"/></svg>