<?xml version='1.0' encoding='utf-8'?>
<svg xmlns="http://www.w3.org/2000/svg" width="192" height="192" version="1.1" id="svg20">
  <defs>
    <filter style="color-interpolation-filters:sRGB" id="filter979" x="-0.048000001" y="-0.048000001" width="1.096" height="1.096">
      <feGaussianBlur stdDeviation="3.2"/>
    </filter>
    <filter style="color-interpolation-filters:sRGB" id="filter983" x="-0.037713958" y="-0.066000998" width="1.0754279" height="1.132002">
      <feGaussianBlur stdDeviation="1.32002"/>
    </filter>
  </defs>
  <rect style="filter:url(#filter979);opacity:0.2;fill:#000000" width="160" height="160" x="16" y="20" rx="8" ry="8"/>
  <rect style="fill:#4f4f4f" width="160" height="160" x="16" y="16" rx="8" ry="8"/>
  <path style="opacity:0.1;fill:#ffffff" d="M 24 16 C 19.568 16 16 19.568 16 24 L 16 25 C 16 20.568 19.568 17 24 17 L 168 17 C 172.432 17 176 20.568 176 25 L 176 24 C 176 19.568 172.432 16 168 16 L 24 16 z "/>
  <path style="fill:#f24c3d" d="M 36,176 H 64 L 176,64 V 36 Z"/>
  <path style="fill:#e6df15" d="M 64,176 H 92 L 176,92 V 64 Z"/>
  <path style="fill:#66dd23" d="m 92,176 h 28 l 56,-56 V 92 Z"/>
  <path style="fill:#24f0ff" d="m 120,176 h 28 l 28,-28 v -28 z"/>
  <path style="filter:url(#filter983);opacity:0.2" d="M 76,34 90.2856,58 76.0016,82 H 87.43 L 96.002,67.596 104.574,82 h 11.428 l -14.2856,-24 14.284,-24 h -11.428 L 96.0004,48.404 87.4284,34 Z m -44,0 h 40 v 6 L 46.284,73 H 72 v 9 H 32 V 76 L 57.716,43 H 32 Z"/>
  <path style="fill:#ffffff" d="M 76,32 90.284,56 76,80 h 11.4284 l 8.572,-14.404 8.572,14.404 h 11.428 l -14.284,-24 14.284,-24 h -11.428 L 96.0004,46.404 87.4284,32 Z m -44,0 h 40 v 6 L 46.2856,71 h 25.716 v 9 h -40 V 74 L 57.716,41 H 32 Z"/>
</svg>
