<?xml version='1.0' encoding='utf-8'?>
<svg xmlns="http://www.w3.org/2000/svg" width="192" height="192" version="1" id="svg18">
  <defs>
    <filter id="filter1019" style="color-interpolation-filters:sRGB" width="1.096" height="1.096" x="-0.048000001" y="-0.048000001">
      <feGaussianBlur stdDeviation="3.2"/>
    </filter>
    <filter id="filter3010" style="color-interpolation-filters:sRGB" width="1.096" height="1.096" x="-0.047999997" y="-0.047999998">
      <feGaussianBlur stdDeviation="2.1"/>
    </filter>
    <filter style="color-interpolation-filters:sRGB" id="filter916" x="-0.047999997" y="-0.047999999" width="1.096" height="1.096">
      <feGaussianBlur stdDeviation="2.12"/>
    </filter>
  </defs>
  <path style="filter:url(#filter3010);opacity:0.2;stop-color:#000000" d="M 65.688473,45.5 43.499999,128.31153 126.31153,150.5 148.5,67.688474 Z m 23.968069,41.510904 17.332558,4.645639 -4.64564,17.332557 -17.332557,-4.64564 z"/>
  <rect style="filter:url(#filter1019);opacity:0.2" width="160" height="160" x="16" y="20" rx="8" ry="8"/>
  <rect style="fill:#3f3f3f" width="160" height="160" x="16" y="16" rx="8" ry="8"/>
  <path style="opacity:0.1;fill:#ffffff" d="m 24,16 c -4.432,0 -8,3.568 -8,8 v 1 c 0,-4.432 3.568,-8 8,-8 h 144 c 4.432,0 8,3.568 8,8 v -1 c 0,-4.432 -3.568,-8 -8,-8 z"/>
  <path style="filter:url(#filter916);opacity:0.2;fill:#000000;stop-color:#000000" d="M 65.400391,45.000004 43,128.59961 126.59961,151 149,67.400395 Z m 24.25,42 L 107,91.650395 102.34961,109 85,104.34961 Z"/>
  <path style="fill:#cdd6d9;stop-color:#000000" d="M 65.400391 43 L 43 126.59961 L 126.59961 149 L 149 65.400391 L 65.400391 43 z M 89.650391 85 L 107 89.650391 L 102.34961 107 L 85 102.34961 L 89.650391 85 z "/>
  <path style="opacity:0.2;fill:#ffffff;stop-color:#000000" d="M 65.400391 43 L 43 126.59961 L 43.25 126.66602 L 65.400391 44 L 148.75 66.333984 L 149 65.400391 L 65.400391 43 z M 106.75 90.583984 L 102.34961 107 L 85.25 102.41602 L 85 103.34961 L 102.34961 108 L 107 90.650391 L 106.75 90.583984 z "/>
</svg>
