<?xml version='1.0' encoding='utf-8'?>
<svg xmlns="http://www.w3.org/2000/svg" width="192" height="192" version="1" id="svg12">
  <defs>
    <filter style="color-interpolation-filters:sRGB" id="filter963" x="-0.048000001" y="-0.048000001" width="1.096" height="1.096">
      <feGaussianBlur stdDeviation="3.2"/>
    </filter>
    <filter style="color-interpolation-filters:sRGB" id="filter1006" x="-0.047999799" y="-0.048000197" width="1.0959996" height="1.0960004">
      <feGaussianBlur stdDeviation="1.919992"/>
    </filter>
  </defs>
  <rect fill="#c2352a" width="160" height="160" x="16" y="20" rx="8" ry="8" style="filter:url(#filter963);opacity:0.2;fill:#000000"/>
  <rect fill="#c2352a" width="160" height="160" x="16" y="16" rx="8" ry="8"/>
  <path style="opacity:0.2;fill:#ffffff" d="M 24 16 C 19.568 16 16 19.568 16 24 L 16 25 C 16 20.568 19.568 17 24 17 L 168 17 C 172.432 17 176 20.568 176 25 L 176 24 C 176 19.568 172.432 16 168 16 L 24 16 z "/>
  <path opacity="0.2" d="m 48,50.999816 28,28 h 40 v 0.1248 h 0.1248 L 116,118.74942 l 28,28 V 51.001416 Z m 28,31.3752 -28,27.500004 v 37.124 h 39.248 l 27.752,-28 H 76 Z" style="filter:url(#filter1006)"/>
  <path fill="#ffffff" d="m 48,48 28,28 h 40 v 0.1248 h 0.1248 L 116,115.7496 l 28,28 v -95.748 z m 28,31.3752 -28,27.5 v 37.124 h 39.248 l 27.752,-28 H 76 Z"/>
</svg>
