<?xml version='1.0' encoding='utf-8'?>
<svg xmlns="http://www.w3.org/2000/svg" width="192" height="192" version="1" id="svg23">
  <defs>
    <filter style="color-interpolation-filters:sRGB" id="filter872" x="0.04" y="0.05" width="1.09" height="1.11">
      <feGaussianBlur stdDeviation="3.20"/>
    </filter>
    <filter style="color-interpolation-filters:sRGB" id="filter1210" x="0.04" y="0.05" width="1.09" height="1.11">
      <feGaussianBlur stdDeviation="1.73"/>
    </filter>
  </defs>
  <path style="filter:url(#filter872);opacity:0.20" d="M 132.65,28.06 C 100.54,29.84 62.89,34.59 39.81,44.56 14.96,55.29 6.53,70.46 8.20,83.03 l 6.54,49.02 c 0.67,5.00 1.84,9.87 3.52,14.41 0.01,0.02 0.03,0.04 0.04,0.05 0.03,0.09 0.08,0.17 0.12,0.27 0.64,1.72 1.35,3.40 2.15,5.01 0.02,0.04 0.04,0.08 0.05,0.12 0.10,0.20 0.17,0.41 0.27,0.60 0.55,1.07 1.14,2.01 1.75,2.90 6.24,10.14 16.13,17.02 30.72,16.70 l 35.29,0.59 c 20.65,0.35 66.37,-11.90 79.55,-21.97 12.19,-8.61 17.91,-14.79 15.22,-36.14 L 177.75,68.92 C 176.69,47.43 156.83,26.72 132.65,28.06 Z"/>
  <path style="fill:#e4e4e4" d="M 39.82,40.56 C 62.90,30.60 100.55,25.84 132.65,24.06 c 24.18,-1.34 44.04,19.37 45.10,40.86 l 2.22,45.12 c 1.06,21.49 -7.78,25.35 -19.97,33.96 -13.18,10.06 -54.68,22.53 -75.18,20.02 l -32.82,-4.02 c -15.97,0.35 -25.12,0.14 -31.19,-11.60 -3.13,-6.06 -5.10,-13.07 -6.07,-20.34 L 8.21,79.03 C 6.53,66.47 14.96,51.30 39.82,40.56 Z"/>
  <path style="filter:url(#filter1210);opacity:0.20;fill:#000000;color:#000000" d="m 120.80,50.04 a 9.70,24.12 6.32 0 0 -12.40,22.52 9.70,24.12 6.32 0 0 6.80,25.40 9.70,24.12 6.32 0 0 12.40,-22.51 9.70,24.12 6.32 0 0 -6.79,-25.40 z m -76.00,16 A 9.70,24.12 6.32 0 0 32.40,88.56 9.70,24.12 6.32 0 0 39.20,113.96 9.70,24.12 6.32 0 0 51.60,91.44 9.70,24.12 6.32 0 0 44.80,66.04 Z M 100.47,107.24 91.45,121.17 80.19,113.26 77.89,116.53 92.55,126.83 103.83,109.41 Z"/>
  <ellipse style="fill:#3f3f3f" cx="51.97" cy="80.83" rx="9.71" ry="24.12" transform="matrix(0.99,0.15,0.12,0.99,0,0)"/>
  <ellipse style="fill:#ffffff" cx="32.47" cy="98.03" rx="4.26" ry="5.36" transform="matrix(0.73,0.68,0.20,0.98,0,0)"/>
  <ellipse style="fill:#3f3f3f" cx="125.64" cy="53.71" rx="9.71" ry="24.12" transform="matrix(0.99,0.15,0.12,0.99,0,0)"/>
  <ellipse style="fill:#ffffff" cx="123.41" cy="144.78" rx="4.26" ry="5.36" transform="matrix(0.73,0.68,0.20,0.98,0,0)"/>
  <path style="fill:none;stroke:#3f3f3f;stroke-width:4.00" d="m 79.04,112.90 12.96,9.10 10.15,-15.68"/>
  <path style="fill:#eb73ff" d="m 172.83,49.09 c 4.05,31.70 6.72,69.87 -10.98,82.53 -39.85,22.43 -78.71,24.46 -122.11,25.19 -7.70,0.17 -15.00,-5.68 -21.52,-14.41 5.44,14.83 16.50,25.99 35.06,25.58 L 88.57,167.40 c 20.65,0.35 66.37,-11.91 79.55,-21.97 12.19,-8.61 17.91,-14.79 15.22,-36.14 l -5.60,-44.36 c 0.69,-5.43 -2.38,-10.82 -4.91,-15.83 z"/>
  <path style="opacity:0.20;fill:#ffffff" d="M 134.90 24.00 C 134.16 24.00 133.41 24.02 132.65 24.06 C 100.54 25.84 62.90 30.60 39.81 40.56 C 16.80 50.50 7.92 64.23 8.06 76.19 C 8.42 64.47 17.44 51.22 39.81 41.56 C 62.90 31.60 100.54 26.84 132.65 25.06 C 156.83 23.72 176.69 44.43 177.75 65.92 L 179.97 111.04 C 180.01 111.86 180.02 112.63 180.03 113.39 C 180.04 112.32 180.03 111.22 179.97 110.04 L 177.75 64.92 C 176.73 44.10 158.05 24.02 134.90 24.00 z "/>
</svg>
