<?xml version='1.0' encoding='utf-8'?>
<svg xmlns="http://www.w3.org/2000/svg" width="192" height="192" version="1" id="svg18">
  <defs>
    <filter style="color-interpolation-filters:sRGB" id="filter838" x="-0.048000001" width="1.096" y="-0.048000001" height="1.096">
      <feGaussianBlur stdDeviation="3.2"/>
    </filter>
    <filter style="color-interpolation-filters:sRGB" id="filter854" x="-0.048" width="1.096" y="-0.048" height="1.096">
      <feGaussianBlur stdDeviation="1.76"/>
    </filter>
    <filter style="color-interpolation-filters:sRGB" id="filter873" x="-0.047999999" width="1.096" y="-0.047999999" height="1.096">
      <feGaussianBlur stdDeviation="2.56"/>
    </filter>
  </defs>
  <circle style="filter:url(#filter838);opacity:0.2;fill:#000000" cx="96" cy="100" r="80"/>
  <path style="fill:#f37b21" d="m 96,16 c -44.092,0 -80,35.912 -80,80 0,44.096 35.912,80 80,80 44.088,0 80,-35.908 80,-80 0,-44.088 -35.908,-80 -80,-80 z"/>
  <path style="filter:url(#filter873);opacity:0.2" d="M 96,36 A 64,64 0 0 0 32,100 64,64 0 0 0 96,164 64,64 0 0 0 160,100 64,64 0 0 0 96,36 Z M 70.328,54.8436 h 24.5236 l 28.1564,71.608 12.3828,-4.0312 4.1248,13.8672 -26.704,7.712 -17.96,-45.532 -26.336,41.5 H 52 l 36.7812,-59.4 -4.1248,-11.7344 h -14.328 v -13.992 z"/>
  <path style="fill:#ffffff" d="M 96,32 A 64,64 0 0 0 32,96 64,64 0 0 0 96,160 64,64 0 0 0 160,96 64,64 0 0 0 96,32 Z M 70.328,50.8436 h 24.5236 l 28.1564,71.608 12.3828,-4.0312 4.1248,13.8672 -26.704,7.712 -17.96,-45.532 -26.336,41.5 H 52 l 36.7812,-59.4 -4.1248,-11.7344 h -14.328 v -13.992 z"/>
  <path style="opacity:0.2;fill:#ffffff" d="M 95.998047 16 C 51.906942 16.001064 16 51.912653 16 96 C 16 96.115498 16.006242 96.228859 16.007812 96.34375 C 16.362722 52.557446 52.126355 17.001058 95.998047 17 L 96 17 C 139.87169 17.001058 175.63532 52.557446 175.99023 96.34375 C 175.99188 96.228859 175.99805 96.115498 175.99805 96 C 175.99805 51.912653 140.0911 16.001064 96 16 L 95.998047 16 z "/>
  <circle style="filter:url(#filter854);opacity:0.2" cx="144" cy="144" r="44"/>
  <circle style="fill:#42a1cd" cx="144" cy="140" r="44"/>
  <path style="fill:#ffffff;fill-rule:evenodd" d="m 144,120 c 0,0 -2.835,-0.056 -5.78908,1.422 C 135.25688,122.8988 132,126.6668 132,132 h 8 c 0,-4 4,-4 4,-4 0,0 4,0 4,4 0,2.1112 -0.5584,3.2916 -1.625,4.6248 -1.0666,1.3336 -2.77344,2.672 -4.77344,4.172 -2,1.5 -4.29316,3.1616 -6.22656,5.5784 C 133.4416,148.7916 132,152.1112 132,156 v 4 h 24 v -8 h -14.59376 c 0.1252,-0.176 0.0748,-0.4448 0.2188,-0.6248 1.0666,-1.3336 2.77344,-2.672 4.77344,-4.172 2,-1.5 4.29316,-3.1616 6.22656,-5.5784 1.9334,-2.4164 3.375,-5.736 3.375,-9.6248 0,-5.3332 -3.25688,-9.1012 -6.21092,-10.578 C 146.835,119.9448 144,120 144,120 Z"/>
</svg>
