<?xml version='1.0' encoding='utf-8'?>
<svg xmlns="http://www.w3.org/2000/svg" width="192" height="192" version="1" id="svg40">
  <defs>
    <filter style="color-interpolation-filters:sRGB" id="filter1019" x="-0.048000001" y="-0.048000001" width="1.096" height="1.096">
      <feGaussianBlur stdDeviation="3.2"/>
    </filter>
    <filter style="color-interpolation-filters:sRGB" id="filter1023" x="-0.04823543" y="-0.047766857" width="1.0964709" height="1.0955337">
      <feGaussianBlur stdDeviation="0.55728"/>
    </filter>
  </defs>
  <rect fill="#c2352a" width="160" height="160" x="16" y="20" rx="8" ry="8" style="filter:url(#filter1019);opacity:0.2;fill:#000000"/>
  <rect fill="#c2352a" width="160" height="160" x="16" y="16" rx="8" ry="8"/>
  <path style="opacity:0.2;fill:#ffffff" d="M 24 16 C 19.568 16 16 19.568 16 24 L 16 25 C 16 20.568 19.568 17 24 17 L 168 17 C 172.432 17 176 20.568 176 25 L 176 24 C 176 19.568 172.432 16 168 16 L 24 16 z "/>
  <g opacity="0.2" transform="matrix(4,0,0,4,0,2)" style="filter:url(#filter1023)">
    <rect width="2.1210001" height="2.1210001" x="34.299999" y="-1.77" transform="rotate(45)"/>
    <path d="m 30,10 -2,8 h -5 l -2,-8 z"/>
    <rect width="5" height="2" x="23" y="19"/>
    <path d="m 11,29 8,-2 v -5 l -8,-2 z"/>
    <rect width="5" height="2" x="22" y="20" transform="matrix(0,1,1,0,0,0)"/>
    <path d="m 32.364,38 -4.2426,-7.0711 3.5355,-3.5355 7.0711,4.2426 z"/>
    <rect width="5" height="2" x="-3.02" y="-40.759998" transform="rotate(135)"/>
  </g>
  <g fill="#ffffff" transform="scale(4)">
    <rect width="2.1210001" height="2.1210001" x="34.299999" y="-1.77" transform="rotate(45)"/>
    <path d="m 30,10 -2,8 h -5 l -2,-8 z"/>
    <rect width="5" height="2" x="23" y="19"/>
    <path d="m 11,29 8,-2 v -5 l -8,-2 z"/>
    <rect width="5" height="2" x="22" y="20" transform="matrix(0,1,1,0,0,0)"/>
    <path d="m 32.364,38 -4.2426,-7.0711 3.5355,-3.5355 7.0711,4.2426 z"/>
    <rect width="5" height="2" x="-3.02" y="-40.759998" transform="rotate(135)"/>
  </g>
</svg>
