<?xml version='1.0' encoding='utf-8'?>
<svg xmlns="http://www.w3.org/2000/svg" width="192" height="192" version="1.1" id="svg12">
  <defs>
    <filter style="color-interpolation-filters:sRGB" id="filter845" x="-0.048000001" y="-0.048000001" width="1.096" height="1.096">
      <feGaussianBlur stdDeviation="3.2"/>
    </filter>
    <filter style="color-interpolation-filters:sRGB" id="filter867" x="-0.044571447" y="-0.051999972" width="1.0891429" height="1.1039999">
      <feGaussianBlur stdDeviation="2.0800009"/>
    </filter>
  </defs>
  <circle style="filter:url(#filter845);opacity:0.2" cx="96" cy="100" r="80"/>
  <circle style="fill:#e4e4e4" cx="96" cy="96" r="80"/>
  <path style="opacity:0.2;fill:#ffffff" d="M 96 16 A 80 80 0 0 0 16 96 A 80 80 0 0 0 16.021484 96.662109 A 80 80 0 0 1 96 17 A 80 80 0 0 1 175.98438 96.310547 A 80 80 0 0 0 176 96 A 80 80 0 0 0 96 16 z "/>
  <path style="filter:url(#filter867);opacity:0.2" d="m 131.36746,84.836804 -25.84684,-19.313416 -30.953328,0.986616 -20.375536,23.1049 0.743876,24.537396 23.080828,18.38254 16.00858,-0.0156 13.18674,-5.8373 8.49614,-16.97753 -4.84537,-19.066414 -13.686118,-8.767968 -12.807708,1.036208 -10.327684,10.45754 -1.23706,12.664484 13.270844,10.23188 9.62378,-2.53508 -0.561104,-5.51613 -6.729248,-1.0508 -7.126592,-6.41943 3.840836,-9.247668 10.778296,-0.958188 10.193308,7.754136 0.27712,13.07956 -5.72874,10.436 -19.85244,3.69398 -17.980216,-14.72465 0.32512,-22.961122 17.872444,-15.04754 24.245972,1.226268 19.21041,16.67054 1.34777,28.523634 -16.84552,20.87234 L 83.349336,146 52.26382,132.3116 40,109.47412 44.834184,77.913348 74.55282,52.572172 106.70567,49.999908 131.20527,60.088772 146.18894,78.9178 152,106.19599 l -15.71542,3.94589 z"/>
  <path style="fill:#3e4f9c" d="m 131.36746,82.836848 -25.84684,-19.313416 -30.953328,0.986616 -20.375536,23.1049 0.743876,24.537392 23.080828,18.38255 16.00858,-0.0156 13.18674,-5.8373 8.49614,-16.97754 -4.84537,-19.06641 -13.686118,-8.767968 -12.807708,1.036208 -10.327684,10.45754 -1.23706,12.66448 13.270844,10.23189 9.62378,-2.53509 -0.561104,-5.51613 -6.729248,-1.0508 -7.126592,-6.419422 3.840836,-9.247672 10.778296,-0.958188 10.193308,7.75414 0.27712,13.079552 -5.72874,10.436 -19.85244,3.69398 -17.980216,-14.72465 0.32512,-22.961118 17.872444,-15.04754 24.245972,1.226268 19.21041,16.67054 1.34777,28.52364 -16.84552,20.87233 -25.616684,5.94401 L 52.26382,130.31164 40,107.47416 44.834184,75.913392 74.55282,50.572216 l 32.15285,-2.572264 24.4996,10.088864 14.98367,18.829028 5.81106,27.278196 -15.71542,3.94588 z"/>
</svg>
