<?xml version='1.0' encoding='utf-8'?>
<svg xmlns="http://www.w3.org/2000/svg" width="192" height="192" version="1" id="svg22">
  <defs>
    <filter style="color-interpolation-filters:sRGB" id="filter869" x="-0.132" width="1.264" y="-0.029333333" height="1.0586667">
      <feGaussianBlur stdDeviation="1.76"/>
    </filter>
    <filter style="color-interpolation-filters:sRGB" id="filter885" x="-0.132" width="1.264" y="-0.029333333" height="1.0586667">
      <feGaussianBlur stdDeviation="1.76"/>
    </filter>
    <filter style="color-interpolation-filters:sRGB" id="filter901" x="-0.041250001" width="1.0825" y="-0.057391306" height="1.1147826">
      <feGaussianBlur stdDeviation="2.2"/>
    </filter>
  </defs>
  <path style="fill:#8e8e8e" d="M 31.2,40 C 27.2112,40 24,42.775108 24,46.222224 V 145.77778 C 24,149.22489 27.2112,152 31.2,152 H 150 c 3.9888,0 7.2,-2.77511 7.2,-6.22222 V 46.222224 C 157.2,42.775108 153.9888,40 150,40 Z m 115.2,0 c -3.9888,0 -7.2,2.775108 -7.2,6.222224 v 99.555556 c 0,3.44711 3.2112,6.22222 7.2,6.22222 h 14.4 c 3.9888,0 7.2,-2.77511 7.2,-6.22222 V 46.222224 C 168,42.775108 164.7888,40 160.8,40 Z"/>
  <rect style="filter:url(#filter869);opacity:0.2" width="32" height="144" x="16" y="28" rx="8" ry="8"/>
  <rect style="filter:url(#filter885);opacity:0.2" width="32" height="144" x="144" y="28" rx="8" ry="8"/>
  <rect style="fill:#ff9205" width="32" height="144" x="16" y="24" rx="8" ry="8"/>
  <rect style="fill:#00c1ee" width="32" height="144" x="144" y="24" rx="8" ry="8"/>
  <path style="fill:none;stroke:#3f3f3f;stroke-width:16;stroke-linecap:round;stroke-linejoin:round" d="m 96.000004,64 v 60 m 0,-60 -48,60 H 144 Z"/>
  <path style="filter:url(#filter901);opacity:0.2" d="M 96,50 A 16,16 0 0 0 80,66 16,16 0 0 0 96,82 16,16 0 0 0 112,66 16,16 0 0 0 96,50 Z m -48,60 a 16,16 0 0 0 -16,16 16,16 0 0 0 16,16 16,16 0 0 0 16,-16 16,16 0 0 0 -16,-16 z m 48,0 a 16,16 0 0 0 -16,16 16,16 0 0 0 16,16 16,16 0 0 0 16,-16 16,16 0 0 0 -16,-16 z m 48,0 a 16,16 0 0 0 -16,16 16,16 0 0 0 16,16 16,16 0 0 0 16,-16 16,16 0 0 0 -16,-16 z"/>
  <path style="fill:#ffffff" d="M 96,48 A 16,16 0 0 0 80,64 16,16 0 0 0 96,80 16,16 0 0 0 112,64 16,16 0 0 0 96,48 Z m -48,60 a 16,16 0 0 0 -16,16 16,16 0 0 0 16,16 16,16 0 0 0 16,-16 16,16 0 0 0 -16,-16 z m 48,0 a 16,16 0 0 0 -16,16 16,16 0 0 0 16,16 16,16 0 0 0 16,-16 16,16 0 0 0 -16,-16 z m 48,0 a 16,16 0 0 0 -16,16 16,16 0 0 0 16,16 16,16 0 0 0 16,-16 16,16 0 0 0 -16,-16 z"/>
  <path style="opacity:0.1;fill:#ffffff" d="M 24 24 C 19.568 24 16 27.568 16 32 L 16 33 C 16 28.568 19.568 25 24 25 L 40 25 C 44.432 25 48 28.568 48 33 L 48 32 C 48 27.568 44.432 24 40 24 L 24 24 z "/>
  <path style="opacity:0.1;fill:#ffffff" d="M 152 24 C 147.568 24 144 27.568 144 32 L 144 33 C 144 28.568 147.568 25 152 25 L 168 25 C 172.432 25 176 28.568 176 33 L 176 32 C 176 27.568 172.432 24 168 24 L 152 24 z "/>
</svg>
