<?xml version='1.0' encoding='utf-8'?>
<svg xmlns="http://www.w3.org/2000/svg" width="192" height="192" version="1.1" id="svg16">
  <defs>
    <filter style="color-interpolation-filters:sRGB" id="filter1374" x="-0.041763803" y="-0.052007163" width="1.0835276" height="1.1040143">
      <feGaussianBlur stdDeviation="2.7857886"/>
    </filter>
  </defs>
  <path style="filter:url(#filter1374);opacity:0.2" d="M 111.94531,35.671995 A 16.0016,16.0016 0 0 0 97.234376,45.843872 L 72,106.40637 46.765624,45.843872 A 16.0016,16.0016 0 0 0 31.757812,35.789182 16.0016,16.0016 0 0 0 17.234375,58.156368 l 40.000001,96.000002 a 16.0016,16.0016 0 0 0 29.531248,0 L 126.76562,58.156368 A 16.0016,16.0016 0 0 0 111.94531,35.671995 Z m 47.8125,0.101564 A 16.0016,16.0016 0 0 0 144,52.00012 v 96 a 16.0016,16.0016 0 1 0 32,0 v -96 A 16.0016,16.0016 0 0 0 159.75781,35.773559 Z"/>
  <path style="fill:none;stroke:#c0562a;stroke-width:32;stroke-linecap:round;stroke-linejoin:round" d="m 32,48 40,96 v 0 0"/>
  <path style="opacity:0.1;fill:#ffffff" d="M 31.757812 31.789062 A 16.0016 16.0016 0 0 0 16.035156 46.945312 A 16.0016 16.0016 0 0 1 31.757812 32.789062 A 16.0016 16.0016 0 0 1 46.765625 42.84375 L 86.765625 138.84375 A 16.0016 16.0016 0 0 1 88.113281 144.80664 A 16.0016 16.0016 0 0 0 86.765625 137.84375 L 46.765625 41.84375 A 16.0016 16.0016 0 0 0 31.757812 31.789062 z "/>
  <path style="fill:none;stroke:#c0562a;stroke-width:32;stroke-linecap:round;stroke-linejoin:round" d="m 160.0016,48 v 96"/>
  <path style="fill:none;stroke:#ea8c46;stroke-width:32;stroke-linecap:round;stroke-linejoin:round" d="M 112,48 72,144"/>
  <path style="opacity:0.1;fill:#ffffff" d="M 159.75781 31.773438 A 16.0016 16.0016 0 0 0 144 48 L 144 49 A 16.0016 16.0016 0 0 1 159.75781 32.773438 A 16.0016 16.0016 0 0 1 176 49 L 176 48 A 16.0016 16.0016 0 0 0 159.75781 31.773438 z "/>
  <path style="opacity:0.2;fill:#ffffff" d="M 111.76562 31.789062 A 16.0016 16.0016 0 0 0 97.234375 41.84375 L 57.234375 137.84375 A 16.0016 16.0016 0 0 0 55.927734 144.21875 A 16.0016 16.0016 0 0 1 57.234375 138.84375 L 97.234375 42.84375 A 16.0016 16.0016 0 0 1 111.76562 32.789062 A 16.0016 16.0016 0 0 1 128.05273 48.464844 A 16.0016 16.0016 0 0 0 111.76562 31.789062 z "/>
</svg>
