<?xml version='1.0' encoding='utf-8'?>
<svg xmlns="http://www.w3.org/2000/svg" width="192" height="192" version="1.1" id="svg22">
  <defs>
    <filter style="color-interpolation-filters:sRGB" id="filter865" x="-0.06799998" y="-0.037090917" width="1.136" height="1.0741818">
      <feGaussianBlur stdDeviation="1.3600008"/>
    </filter>
    <filter style="color-interpolation-filters:sRGB" id="filter869" x="-0.108" y="-0.030857143" width="1.216" height="1.0617143">
      <feGaussianBlur stdDeviation="1.4400014"/>
    </filter>
    <filter style="color-interpolation-filters:sRGB" id="filter879" x="-0.031999999" y="-0.096000005" width="1.064" height="1.192">
      <feGaussianBlur stdDeviation="0.64000065"/>
    </filter>
    <filter style="color-interpolation-filters:sRGB" id="filter921" x="-0.054" y="-0.0432" width="1.108" height="1.0864">
      <feGaussianBlur stdDeviation="0.72000069"/>
    </filter>
  </defs>
  <rect style="filter:url(#filter921);opacity:0.2;fill:#000000" width="32.000031" height="40.000038" x="79.999985" y="17.999962"/>
  <path style="filter:url(#filter865);opacity:0.2" d="M 71.999976,90.999965 H 120.00002 V 155.00013 L 96.000004,179 71.999976,155.00013 Z"/>
  <path style="fill:#afafb1" d="m 71.999976,87.99986 h 48.000044 v 64.00016 L 96.000004,175.9999 71.999976,152.00002 Z"/>
  <path style="fill:#e4e4e4" d="M 71.999976,87.99986 H 96.000004 V 175.9999 L 71.999976,152.00002 Z"/>
  <rect style="filter:url(#filter869);opacity:0.2" width="32.000031" height="112.00011" x="60.000046" y="-152.00006" rx="15.996017" ry="15.996017" transform="rotate(90,1.0000391,-1.0000391)"/>
  <rect style="fill:#ec8a2b" width="32.000031" height="112.00011" x="56.000038" y="-152.00006" rx="15.996017" ry="15.996017" transform="rotate(90)"/>
  <rect style="fill:#d13808" width="32.000031" height="40.000038" x="79.999985" y="16"/>
  <rect style="filter:url(#filter879);opacity:0.2" width="48.00005" height="16.000015" x="71.999977" y="17.999985" rx="7.9960079" ry="7.9960079"/>
  <rect style="fill:#ec8a2b" width="48.00005" height="16.000015" x="71.999977" y="16" rx="7.9960079" ry="7.9960079"/>
  <path style="opacity:0.2;fill:#ffffff" d="M 56 56 C 47.137891 56 40 63.131502 40 71.992188 L 40 72.007812 C 40 72.15214 40.018636 72.290068 40.027344 72.431641 C 40.323249 63.834836 47.327122 57 56 57 L 136 57 C 144.67288 57 151.67675 63.834813 151.97266 72.431641 C 151.98136 72.290071 152 72.152135 152 72.007812 L 152 71.992188 C 152 63.131479 144.86211 56 136 56 L 56 56 z "/>
  <path style="opacity:0.2;fill:#ffffff" d="M 79.992188 16 C 75.562399 16 72 19.569104 72 24 C 72 24.179853 72.009055 24.357496 72.023438 24.533203 C 72.264537 20.322318 75.719949 17 79.992188 17 L 112.00781 17 C 116.28005 17 119.73546 20.322318 119.97656 24.533203 C 119.99095 24.357496 120 24.179853 120 24 C 120 19.569104 116.4376 16 112.00781 16 L 79.992188 16 z "/>
</svg>
