<?xml version='1.0' encoding='utf-8'?>
<svg xmlns="http://www.w3.org/2000/svg" width="192" height="192" version="1.1" id="svg8">
  <defs>
    <filter style="color-interpolation-filters:sRGB" id="filter837" x="0.04" y="0.05" width="1.09" height="1.10">
      <feGaussianBlur stdDeviation="2.96"/>
    </filter>
  </defs>
  <path style="filter:url(#filter837);opacity:0.20" d="m 140,160.44 c 0,3.78 4.23,7.56 8,7.56 h 20 c 4,0 8,-3.78 8,-7.56 V 39.56 C 176,39.56 176,32 168,32 h -34 c -8,0 -10,7.56 -10,7.56 L 116,96 108,43.33 C 108,43.33 106,32 94,32 H 64 c -4,0 -4,3.78 -4,3.78 0,0 8,15.11 8,18.89 C 68,58.44 48,66 48,69.78 48,73.56 64,81.11 64,84.89 64,88.67 16,106.22 16,110 c 0,3.78 44,20.22 44,24 0,3.78 -28,26.44 -28,30.22 0,0 0,3.78 4,3.78 h 56 c 4,0 4,-3.78 4,-3.78 v -44.44 c 0,-3.78 0,-7.56 4,-7.56 2.98,0 4,7.56 4,7.56 l 8,40.67 c 0,0 0,7.56 4,7.56 4,0 4,-7.56 4,-7.56 0,0 7.13,-32.61 12,-49.11 1.48,-5.00 4,-15.11 8,-15.11 z"/>
  <path style="fill:#ffd426" d="m 140,156.44 c 0,3.78 4.23,7.56 8,7.56 h 20 c 4,0 8,-3.78 8,-7.56 V 35.56 C 176,35.56 176,28 168,28 h -34 c -8,0 -10,7.56 -10,7.56 L 116,92 108,39.33 C 108,39.33 106,28 94,28 H 64 c -4,0 -4,3.78 -4,3.78 0,0 8,15.11 8,18.89 C 68,54.44 48,62 48,65.78 48,69.56 64,77.11 64,80.89 64,84.67 16,102.22 16,106 c 0,3.78 44,20.22 44,24 0,3.78 -28,26.44 -28,30.22 0,0 0,3.78 4,3.78 h 56 c 4,0 4,-3.78 4,-3.78 v -44.44 c 0,-3.78 0,-7.56 4,-7.56 2.98,0 4,7.56 4,7.56 l 8,40.67 c 0,0 0,7.56 4,7.56 4,0 4,-7.56 4,-7.56 0,0 7.13,-32.61 12,-49.11 1.48,-5.00 4,-15.11 8,-15.11 z"/>
  <path style="opacity:0.20;fill:#ffffff" d="M 64 28 C 60 28 60 31.78 60 31.78 C 60 31.78 60.10 31.98 60.11 31.99 C 60.35 30.89 61.16 29 64 29 L 94 29 C 106 29 108 40.33 108 40.33 L 116 93 L 124 36.55 C 124 36.55 126 29 134 29 L 168 29 C 176 29 176 36.55 176 36.55 L 176 35.55 C 176 35.55 176 28 168 28 L 134 28 C 126 28 124 35.55 124 35.55 L 116 92 L 108 39.33 C 108 39.33 106 28 94 28 L 64 28 z M 67.92 50.93 C 67.07 54.79 48 62.08 48 65.78 C 48 65.95 48.07 66.14 48.13 66.33 C 49.50 62.44 68 55.30 68 51.67 C 68 51.46 67.97 51.20 67.92 50.93 z M 63.86 81.29 C 61.00 85.77 16 102.34 16 106 C 16 106.15 16.09 106.32 16.22 106.51 C 19.58 101.91 64 85.52 64 81.89 C 64 81.70 63.93 81.50 63.86 81.29 z M 59.84 130.57 C 57.71 135.63 32 156.60 32 160.22 C 32 160.22 32.00 160.48 32.07 160.85 C 33.57 156.17 60 134.67 60 131 C 60 130.87 59.94 130.73 59.84 130.57 z "/>
</svg>
