<svg xmlns="http://www.w3.org/2000/svg" id="svg12" width="192" height="192" version="1"><defs><filter style="color-interpolation-filters:sRGB" id="filter845" width="1.1" height="1.1" x=".05" y=".05"><feGaussianBlur stdDeviation="3.2"/></filter><filter style="color-interpolation-filters:sRGB" id="filter849" width="1.1" height="1.1" x=".05" y=".05"><feGaussianBlur stdDeviation="2.42"/></filter></defs><rect style="filter:url(#filter845);opacity:.2" width="160" height="160" x="16" y="20" rx="8" ry="8"/><rect style="fill:#f2385a" width="160" height="160" x="16" y="16" rx="8" ry="8"/><path style="opacity:.2;fill:#fff" d="M 24 16 C 19.57 16 16 19.57 16 24 L 16 25 C 16 20.57 19.57 17 24 17 L 168 17 C 172.43 17 176 20.57 176 25 L 176 24 C 176 19.57 172.43 16 168 16 L 24 16 z"/><path style="filter:url(#filter849);opacity:.2" d="M 40,34 V 58 H 56 V 54.92 H 42.46 V 34 Z m 28,0 c 0.44,3.84 1.38,6.91 2.80,9.20 1.31,2.11 3.23,4.11 5.75,6 V 58 h 2.89 v -8.80 c 2.52,-1.89 4.44,-3.89 5.75,-6 C 86.62,40.91 87.56,37.84 88,34 h -2.92 c 0.39,3.14 -1.16,5.65 -2.31,7.54 -1.08,1.76 -2.67,3.44 -4.77,5.02 C 75.90,44.98 74.31,43.30 73.23,41.54 72.08,39.65 71.31,37.14 70.92,34 Z m 36,0 v 24 h 2.39 V 41.11 L 120,58 V 34 h -2.39 v 16.83 z m 32,0 v 24 h 16 v -3.08 h -13.54 v -8.59 h 9.84 v -3.08 h -9.84 V 37.08 H 152 V 34 Z M 48,68 36,80 48,92 60,80 Z M 80,68 68,80 80,92 92,80 Z m 32,0 -12,12 12,12 12,-12 z m 32,0 -12,12 12,12 12,-12 z m -96,32 -12,12 12,12 12,-12 z m 32,0 -12,12 12,12 12,-12 z m 32,0 -12,12 12,12 12,-12 z m 32,0 -12,12 12,12 12,-12 z m -96,32 -12,12 12,12 12,-12 z m 32,0 -12,12 12,12 12,-12 z m 32,0 -12,12 12,12 12,-12 z m 32,0 -12,12 12,12 12,-12 z"/><path style="fill:#fff" d="M 40,32 V 56 H 56 V 52.92 H 42.46 V 32 Z m 28,0 c 0.44,3.84 1.38,6.91 2.80,9.20 1.31,2.11 3.23,4.11 5.75,6 V 56 h 2.89 v -8.80 c 2.52,-1.89 4.44,-3.89 5.75,-6 C 86.62,38.91 87.56,35.84 88,32 h -2.92 c 0.39,3.14 -1.16,5.65 -2.31,7.54 C 81.69,41.30 80.10,42.98 78,44.55 75.90,42.98 74.31,41.30 73.23,39.54 72.08,37.65 71.31,35.14 70.92,32 Z m 36,0 v 24 h 2.39 V 39.11 L 120,56 V 32 h -2.39 v 16.83 z m 32,0 v 24 h 16 v -3.08 h -13.54 v -8.59 h 9.84 v -3.08 h -9.84 V 35.08 H 152 V 32 Z M 48,66 36,78 48,90 60,78 Z M 80,66 68,78 80,90 92,78 Z m 32,0 -12,12 12,12 12,-12 z m 32,0 -12,12 12,12 12,-12 z m -96,32 -12,12 12,12 12,-12 z m 32,0 -12,12 12,12 12,-12 z m 32,0 -12,12 12,12 12,-12 z m 32,0 -12,12 12,12 12,-12 z m -96,32 -12,12 12,12 12,-12 z m 32,0 -12,12 12,12 12,-12 z m 32,0 -12,12 12,12 12,-12 z m 32,0 -12,12 12,12 12,-12 z"/></svg>