<?xml version='1.0' encoding='utf-8'?>
<svg xmlns="http://www.w3.org/2000/svg" width="192" height="192" version="1.1" id="svg24">
  <defs>
    <filter style="color-interpolation-filters:sRGB" id="filter869" x="-0.048000001" y="-0.048000001" width="1.096" height="1.096">
      <feGaussianBlur stdDeviation="3.2"/>
    </filter>
    <filter style="color-interpolation-filters:sRGB" id="filter873" x="-0.048" y="-0.048" width="1.096" height="1.096">
      <feGaussianBlur stdDeviation="2.24"/>
    </filter>
    <filter style="color-interpolation-filters:sRGB" id="filter895" x="-0.06" y="-0.04" width="1.12" height="1.08">
      <feGaussianBlur stdDeviation="1.5"/>
    </filter>
    <filter style="color-interpolation-filters:sRGB" id="filter899" x="-0.055999998" y="-0.041999999" width="1.112" height="1.084">
      <feGaussianBlur stdDeviation="1.68"/>
    </filter>
    <filter style="color-interpolation-filters:sRGB" id="filter903" x="-0.045599999" y="-0.050666666" width="1.0912" height="1.1013333">
      <feGaussianBlur stdDeviation="1.52"/>
    </filter>
  </defs>
  <circle style="filter:url(#filter869);opacity:0.2" cx="96" cy="100" r="80"/>
  <circle style="fill:#e4accb" cx="96" cy="96" r="80"/>
  <circle style="filter:url(#filter873);opacity:0.2" cx="96" cy="98.000008" r="56"/>
  <circle style="fill:#e4e4e4" cx="96" cy="96" r="56"/>
  <path style="opacity:0.2;fill:#ffffff" d="M 96 16 A 80 80 0 0 0 16 96 A 80 80 0 0 0 16.021484 96.662109 A 80 80 0 0 1 96 17 A 80 80 0 0 1 175.98438 96.310547 A 80 80 0 0 0 176 96 A 80 80 0 0 0 96 16 z "/>
  <path style="filter:url(#filter903);opacity:0.2" d="M 16,130 H 48 V 98 l 8,8 8,-8 v 32 H 96 L 88,66 64,58 56,66 48,58 24,66 Z"/>
  <path style="fill:#ee5364" d="M 16,128 H 48 V 96 l 8,8 8,-8 v 32 H 96 L 88,64 64,56 56,64 48,56 24,64 Z"/>
  <path style="filter:url(#filter899);opacity:0.2" d="M 104,34 V 66 L 120,34 Z M 88,50 96,66 V 50 Z m 40,0 -8,16 16,-8 z m -28,16 a 36,32 0 0 0 -36,32 36,32 0 0 0 36,32 36,32 0 0 0 36,-32 36,32 0 0 0 -36,-32 z m 0,24 a 12,8 0 0 1 12,8 12,8 0 0 1 -12,8 12,8 0 0 1 -12,-8 12,8 0 0 1 12,-8 z"/>
  <path style="fill:#96b92f" d="M 104,32 V 64 L 120,32 Z M 88,48 96,64 V 48 Z m 40,0 -8,16 16,-8 z m -28,16 a 36,32 0 0 0 -36,32 36,32 0 0 0 36,32 36,32 0 0 0 36,-32 36,32 0 0 0 -36,-32 z m 0,24 a 12,8 0 0 1 12,8 12,8 0 0 1 -12,8 12,8 0 0 1 -12,-8 12,8 0 0 1 12,-8 z"/>
  <path style="filter:url(#filter895);opacity:0.2" d="m 116,138 4,-80 56,-10 v 26 h -32 v 8 h 24 v 16 h -24 v 16 h 24 l 8,24 z"/>
  <path style="fill:#34a0e8" d="m 116,136 4,-80 56,-10 v 26 h -32 v 8 h 24 v 16 h -24 v 16 h 24 l 8,24 z"/>
</svg>
