<?xml version='1.0' encoding='utf-8'?>
<svg xmlns="http://www.w3.org/2000/svg" width="192" height="192" version="1" id="svg8">
  <defs>
    <filter style="color-interpolation-filters:sRGB" id="filter955" x="-0.050666666" y="-0.045599999" width="1.1013333" height="1.0912">
      <feGaussianBlur stdDeviation="3.04"/>
    </filter>
  </defs>
  <path fill="#2097fb" d="M 116,20 76,28 V 40 H 56 C 24,40 24,60 24,60 v 20 h 52 c 0,-6.6276 3.3726,-12 10,-12 6.6276,0 10,5.3724 10,12 h 0.4 L 24.728,128 H 24 v 32 h 52 v 20 l 40,-8 v -12 h 52 V 128 H 96.46 l 55.696,-38.3672 c 7.84,-5.628 15.844,-9.632 15.844,-25.632 0,0 0,-24 -44,-24 h -8 z" style="filter:url(#filter955);opacity:0.2;fill:#000000"/>
  <path fill="#2097fb" d="M 116,16 76,24 V 36 H 56 C 24,36 24,56 24,56 v 20 h 52 c 0,-6.6276 3.3726,-12 10,-12 6.6276,0 10,5.3724 10,12 h 0.4 L 24.728,124 H 24 v 32 h 52 v 20 l 40,-8 v -12 h 52 V 124 H 96.46 l 55.696,-38.3672 c 7.84,-5.628 15.844,-9.632 15.844,-25.632 0,0 0,-24 -44,-24 h -8 z"/>
  <path style="opacity:0.2;fill:#ffffff" d="M 116 16 L 76 24 L 76 25 L 116 17 L 116 16 z M 56 36 C 24 36 24 56 24 56 L 24 57 C 24 57 24 37 56 37 L 76 37 L 76 36 L 56 36 z M 116 36 L 116 37 L 124 37 C 166.52069 37 167.9285 59.215553 167.97656 60.722656 C 167.98051 60.476182 168 60.25239 168 60 C 168 60 168 36 124 36 L 116 36 z M 95.955078 76.298828 L 24.728516 124 L 24 124 L 24 125 L 24.728516 125 L 96.400391 77 L 96 77 C 96 76.759784 95.963933 76.53555 95.955078 76.298828 z M 97.912109 124 L 96.460938 125 L 168 125 L 168 124 L 97.912109 124 z "/>
</svg>
