<?xml version='1.0' encoding='utf-8'?>
<svg xmlns="http://www.w3.org/2000/svg" width="192" height="192" version="1" id="svg14">
  <defs>
    <filter style="color-interpolation-filters:sRGB" id="filter850" x="0.05" width="1.10" y="0.05" height="1.10">
      <feGaussianBlur stdDeviation="3.20"/>
    </filter>
    <filter style="color-interpolation-filters:sRGB" id="filter19892" x="0.08" y="0.07" width="1.16" height="1.14">
      <feGaussianBlur stdDeviation="2.97"/>
    </filter>
    <filter style="color-interpolation-filters:sRGB" id="filter19937" x="0.09" y="0.15" width="1.17" height="1.29">
      <feGaussianBlur stdDeviation="1.64"/>
    </filter>
    <filter style="color-interpolation-filters:sRGB" id="filter19982" x="0.06" y="0.10" width="1.12" height="1.19">
      <feGaussianBlur stdDeviation="0.85"/>
    </filter>
  </defs>
  <circle style="filter:url(#filter850);opacity:0.20;fill:#000000" cx="96" cy="100" r="80"/>
  <circle r="80" cy="96" cx="96" style="fill:#8eb512"/>
  <path style="fill:#38adfa" d="m 688.81,257.00 c 0.33,0.33 -1.19,0.37 -1.92,0.08 0.80,0.32 0.56,0.56 0.60,0.60 1.05,0.04 1.64,0.19 1.31,0.53 z"/>
  <path style="opacity:0.20;fill:#ffffff" d="M 96 16 A 80 80 0 0 0 16 96 A 80 80 0 0 0 16.02 96.47 A 80 80 0 0 1 96 17 A 80 80 0 0 1 175.97 96.51 A 80 80 0 0 0 176 96 A 80 80 0 0 0 96 16 z "/>
  <path style="filter:url(#filter19982);opacity:0.20;fill:#000000;color:#000000" d="m 82,130.59 a 1,1 0 0 0 -1,1 v 13.19 l -1.24,-1.44 a 1,1 0 0 0 -1.41,0.10 1,1 0 0 0 0.10,1.41 l 1.17,1.35 H 78 a 1,1 0 0 0 -1,1 1,1 0 0 0 1,1 h 1.49 l -1.22,1.32 a 1,1 0 0 0 0.05,1.41 1,1 0 0 0 1.41,0.05 l 3,-3.24 A 1.00,1.00 0 0 0 83,146.75 v -15.16 a 1,1 0 0 0 -1,-1 z m 27,1 a 1,1 0 0 0 -1,1 v 13.19 l -1.24,-1.44 a 1,1 0 0 0 -1.41,0.10 1,1 0 0 0 0.10,1.41 l 1.17,1.35 H 105 a 1,1 0 0 0 -1,1 1,1 0 0 0 1,1 h 1.49 l -1.22,1.32 a 1,1 0 0 0 0.05,1.41 1,1 0 0 0 1.41,0.05 l 3,-3.24 A 1.00,1.00 0 0 0 110,147.75 v -15.16 a 1,1 0 0 0 -1,-1 z"/>
  <path style="fill:#ffdcaf;color:#000000" d="M 82 129.59 A 1 1 0 0 0 81 130.59 L 81 143.78 L 79.76 142.35 A 1 1 0 0 0 78.35 142.24 A 1 1 0 0 0 78.24 143.65 L 79.41 145 L 78 145 A 1 1 0 0 0 77 146 A 1 1 0 0 0 78 147 L 79.49 147 L 78.27 148.32 A 1 1 0 0 0 78.32 149.73 A 1 1 0 0 0 79.73 149.68 L 82.73 146.44 A 1.00 1.00 0 0 0 83 145.76 L 83 130.59 A 1 1 0 0 0 82 129.59 z "/>
  <path style="fill:#ffdcaf;color:#000000" d="m 109,130.59 a 1,1 0 0 0 -1,1 v 13.19 l -1.24,-1.44 a 1,1 0 0 0 -1.41,0.10 1,1 0 0 0 0.10,1.41 l 1.17,1.35 H 105 a 1,1 0 0 0 -1,1 1,1 0 0 0 1,1 h 1.49 l -1.22,1.32 a 1,1 0 0 0 0.05,1.41 1,1 0 0 0 1.41,0.05 l 3,-3.24 a 1.00,1.00 0 0 0 0.27,0.68 V 131.59 a 1,1 0 0 0 -1,-1 z"/>
  <path style="filter:url(#filter19892);opacity:0.20;fill:#000000" d="m 51.19,97.91 c 1.09,-12.51 7.88,-24.83 15.86,-35.26 5.35,-6.99 14.65,-10.45 20.86,-13.60 4.84,-2.46 5.93,-7.58 6.94,-10.66 0.82,-1.43 0.89,-4.43 2.93,0.27 1.40,3.87 3.23,7.70 7.79,10.80 8.73,5.94 19.87,13.63 26.79,23.64 5.55,8.03 7.68,16.85 8.33,22.93 1.46,13.57 -1.96,35.62 -15.23,38.59 -16.91,3.78 -41.92,1.16 -59.48,0.91 C 53.44,131.69 50.10,110.53 51.19,97.91 Z"/>
  <path style="fill:#f05b00" d="m 51.19,95.91 c 1.09,-12.51 7.88,-24.83 15.86,-35.26 5.35,-6.99 14.65,-10.45 20.86,-13.60 4.84,-2.46 5.93,-7.58 6.94,-10.66 0.82,-1.43 0.89,-4.43 2.93,0.27 1.40,3.87 3.23,7.70 7.79,10.80 8.73,5.94 19.87,13.63 26.79,23.64 5.55,8.03 7.68,16.85 8.33,22.93 1.46,13.57 -1.96,35.62 -15.23,38.59 -16.91,3.78 -41.92,1.16 -59.48,0.91 C 53.44,129.69 50.10,108.53 51.19,95.91 Z"/>
  <path style="filter:url(#filter19937);opacity:0.20;fill:#000000" d="m 64,86 a 9,9 0 0 0 -9,9 9,9 0 0 0 9,9 9,9 0 0 0 9,-9 9,9 0 0 0 -9,-9 z m 28,9 a 9,9 0 0 0 -9,9 9,9 0 0 0 9,9 9,9 0 0 0 9,-9 9,9 0 0 0 -9,-9 z"/>
  <circle style="fill:#ffffff" cx="92" cy="103" r="9"/>
  <circle style="fill:#333333" cx="89" cy="103" r="3"/>
  <circle style="fill:#ffffff" cx="64" cy="94" r="9"/>
  <circle style="fill:#333333" cx="61" cy="94" r="3"/>
</svg>
