<svg xmlns="http://www.w3.org/2000/svg" id="svg8" width="192" height="192" version="1"><defs><filter style="color-interpolation-filters:sRGB" id="filter955" width="1.1" height="1.09" x=".05" y=".05"><feGaussianBlur stdDeviation="3.04"/></filter></defs><path fill="#2097fb" d="M 116,20 76,28 V 40 H 56 C 24,40 24,60 24,60 v 20 h 52 c 0,-6.63 3.37,-12 10,-12 6.63,0 10,5.37 10,12 h 0.40 L 24.73,128 H 24 v 32 h 52 v 20 l 40,-8 v -12 h 52 V 128 H 96.46 l 55.70,-38.37 c 7.84,-5.63 15.84,-9.63 15.84,-25.63 0,0 0,-24 -44,-24 h -8 z" style="filter:url(#filter955);opacity:.2;fill:#000"/><path fill="#2097fb" d="M 116,16 76,24 V 36 H 56 C 24,36 24,56 24,56 v 20 h 52 c 0,-6.63 3.37,-12 10,-12 6.63,0 10,5.37 10,12 h 0.40 L 24.73,124 H 24 v 32 h 52 v 20 l 40,-8 v -12 h 52 V 124 H 96.46 l 55.70,-38.37 c 7.84,-5.63 15.84,-9.63 15.84,-25.63 0,0 0,-24 -44,-24 h -8 z"/><path style="opacity:.2;fill:#fff" d="M 116 16 L 76 24 L 76 25 L 116 17 L 116 16 z M 56 36 C 24 36 24 56 24 56 L 24 57 C 24 57 24 37 56 37 L 76 37 L 76 36 L 56 36 z M 116 36 L 116 37 L 124 37 C 166.52 37 167.93 59.22 167.98 60.72 C 167.98 60.48 168 60.25 168 60 C 168 60 168 36 124 36 L 116 36 z M 95.96 76.30 L 24.73 124 L 24 124 L 24 125 L 24.73 125 L 96.40 77 L 96 77 C 96 76.76 95.96 76.54 95.96 76.30 z M 97.91 124 L 96.46 125 L 168 125 L 168 124 L 97.91 124 z"/></svg>