<?xml version='1.0' encoding='utf-8'?>
<svg xmlns="http://www.w3.org/2000/svg" width="192" height="192" version="1" id="svg18">
  <defs>
    <filter style="color-interpolation-filters:sRGB" id="filter838" x="0.05" width="1.10" y="0.05" height="1.10">
      <feGaussianBlur stdDeviation="3.20"/>
    </filter>
    <filter style="color-interpolation-filters:sRGB" id="filter854" x="0.05" width="1.10" y="0.05" height="1.10">
      <feGaussianBlur stdDeviation="1.76"/>
    </filter>
    <filter style="color-interpolation-filters:sRGB" id="filter873" x="0.05" width="1.10" y="0.05" height="1.10">
      <feGaussianBlur stdDeviation="2.56"/>
    </filter>
  </defs>
  <circle style="filter:url(#filter838);opacity:0.20;fill:#000000" cx="96" cy="100" r="80"/>
  <path style="fill:#f37b21" d="m 96,16 c -44.09,0 -80,35.91 -80,80 0,44.10 35.91,80 80,80 44.09,0 80,-35.91 80,-80 0,-44.09 -35.91,-80 -80,-80 z"/>
  <path style="filter:url(#filter873);opacity:0.20" d="M 96,36 A 64,64 0 0 0 32,100 64,64 0 0 0 96,164 64,64 0 0 0 160,100 64,64 0 0 0 96,36 Z M 70.33,54.84 h 24.52 l 28.16,71.61 12.38,-4.03 4.12,13.87 -26.70,7.71 -17.96,-45.53 -26.34,41.50 H 52 l 36.78,-59.40 -4.12,-11.73 h -14.33 v -13.99 z"/>
  <path style="fill:#ffffff" d="M 96,32 A 64,64 0 0 0 32,96 64,64 0 0 0 96,160 64,64 0 0 0 160,96 64,64 0 0 0 96,32 Z M 70.33,50.84 h 24.52 l 28.16,71.61 12.38,-4.03 4.12,13.87 -26.70,7.71 -17.96,-45.53 -26.34,41.50 H 52 l 36.78,-59.40 -4.12,-11.73 h -14.33 v -13.99 z"/>
  <path style="opacity:0.20;fill:#ffffff" d="M 96.00 16 C 51.91 16.00 16 51.91 16 96 C 16 96.12 16.01 96.23 16.01 96.34 C 16.36 52.56 52.13 17.00 96.00 17 L 96 17 C 139.87 17.00 175.64 52.56 175.99 96.34 C 175.99 96.23 176.00 96.12 176.00 96 C 176.00 51.91 140.09 16.00 96 16 L 96.00 16 z "/>
  <circle style="filter:url(#filter854);opacity:0.20" cx="144" cy="144" r="44"/>
  <circle style="fill:#42a1cd" cx="144" cy="140" r="44"/>
  <path style="fill:#ffffff;fill-rule:evenodd" d="m 144,120 c 0,0 -2.83,0.06 -5.79,1.42 C 135.26,122.90 132,126.67 132,132 h 8 c 0,-4 4,-4 4,-4 0,0 4,0 4,4 0,2.11 0.56,3.29 -1.62,4.62 -1.07,1.33 -2.77,2.67 -4.77,4.17 -2,1.50 -4.29,3.16 -6.23,5.58 C 133.44,148.79 132,152.11 132,156 v 4 h 24 v -8 h -14.59 c 0.13,0.18 0.07,0.44 0.22,0.62 1.07,-1.33 2.77,-2.67 4.77,-4.17 2,-1.50 4.29,-3.16 6.23,-5.58 1.93,-2.42 3.38,-5.74 3.38,-9.62 0,-5.33 -3.26,-9.10 -6.21,-10.58 C 146.84,119.94 144,120 144,120 Z"/>
</svg>
