<?xml version='1.0' encoding='utf-8'?>
<svg xmlns="http://www.w3.org/2000/svg" width="192" height="192" version="1.1" id="svg28">
  <defs>
    <filter style="color-interpolation-filters:sRGB" id="filter976" x="-0.041454545" y="-0.057000002" width="1.0829091" height="1.114">
      <feGaussianBlur stdDeviation="2.28"/>
    </filter>
    <filter style="color-interpolation-filters:sRGB" id="filter980" x="-0.043428571" y="-0.053647058" width="1.0868571" height="1.1072941">
      <feGaussianBlur stdDeviation="1.52"/>
    </filter>
    <filter style="color-interpolation-filters:sRGB" id="filter984" x="-0.049921367" y="-0.046221052" width="1.0998427" height="1.0924421">
      <feGaussianBlur stdDeviation="2.7842681"/>
    </filter>
    <filter style="color-interpolation-filters:sRGB" id="filter1068" x="-0.042761107" y="-0.054701813" width="1.0855222" height="1.1094036">
      <feGaussianBlur stdDeviation="1.6410544"/>
    </filter>
  </defs>
  <path d="m 67.91716,177 h 48 c 0,0 8,0 8,-8 0,-8 16,-56 16,-56 l -84,-4 c 0,0 0.618732,67.92039 12,68 z" style="filter:url(#filter980);opacity:0.2"/>
  <path d="m 67.91716,174 h 48 c 0,0 8,0 8,-8 0,-8 16,-56 16,-56 l -84,-4 c 0,0 0.618732,67.92039 12,68 z" style="fill:#df8028"/>
  <path d="m 42.06178,80.857144 c 0,79.999996 56.57692,85.714286 75.54615,85.714286 56.90771,0 58.30923,-52.57143 58.30923,-52.57143 0,0 -13.07232,-11.42857 -13.85538,-25.142856 0.78306,-14.285712 4,-32 4,-32 0,0 -6.14462,-34.857144 -42.14462,-34.857144 -22.76308,0 -48,12 -48,12 l -16,12 c 0,0 -17.85538,17.714288 -17.85538,34.857144 z" style="filter:url(#filter984);opacity:0.2"/>
  <path d="m 42.06178,76.857144 c 0,79.999996 56.57692,85.714286 75.54615,85.714286 56.90771,0 58.30923,-52.57143 58.30923,-52.57143 0,0 -13.07232,-11.428568 -13.85538,-25.142856 0.78306,-14.285712 4,-32 4,-32 0,0 -6.14462,-34.857144 -42.14462,-34.857144 -22.76308,0 -48,12 -48,12 l -16,12 c 0,0 -17.85538,17.714288 -17.85538,34.857144 z" style="fill:#f8bb07"/>
  <path style="opacity:0.2;fill:#ffffff" d="M 123.91797 18 C 101.15489 18 75.917969 30 75.917969 30 L 59.917969 42 C 59.917969 42 42.066406 59.716519 42.066406 76.859375 C 42.066406 77.065241 42.075049 77.257586 42.078125 77.458984 C 42.351709 60.441798 59.917969 43 59.917969 43 L 75.917969 31 C 75.917969 31 101.15489 19 123.91797 19 C 158.65683 19 165.52892 51.165212 165.97266 53.439453 C 166.0021 53.255422 166.06641 52.859375 166.06641 52.859375 C 166.06643 52.859375 159.91797 18 123.91797 18 z M 162.26172 86.609375 C 162.20992 87.352875 162.10633 88.130899 162.06641 88.859375 C 162.07499 89.009683 162.10381 89.155019 162.11523 89.304688 C 162.16368 88.741262 162.22269 88.169562 162.26172 87.609375 C 163.95699 100.36075 175.51861 110.63777 175.82031 110.9043 C 175.83634 110.72943 175.91797 110 175.91797 110 C 175.91797 110 163.97925 99.528143 162.26172 86.609375 z "/>
  <path d="m 59.91716,44 c -12.146236,0 -20,28 -20,28 0,0 0,36 16,36 16,0 20,-28 20,-28 0,0 4,-36 -16,-36 z m 52,12 c -22.76308,0 -24,28 -24,28 0,0 -2.76308,32 20,32 22.76308,0 24,-24 24,-24 0,0 2.76308,-36 -20,-36 z" style="filter:url(#filter1068);opacity:0.2"/>
  <path d="m 59.820225,42 c 19.820224,0 15.856179,36 15.856179,36 0,0 -3.964044,28 -19.820224,28 C 40,106 40,70 40,70 40,70 47.783168,42 59.820225,42 Z" style="fill:#ffffff"/>
  <path d="m 111.99046,54 c 22.65451,0 19.90461,36 19.90461,36 0,0 -1.23102,24 -23.88553,24 -22.654506,0 -19.904605,-32 -19.904605,-32 0,0 1.23102,-28 23.885525,-28 z" style="fill:#ffffff"/>
  <ellipse cx="109" cy="82" rx="8" ry="12" style="fill:#4f4f4f"/>
  <path d="m 27.849191,93.000004 c 0,0 -4.005027,11.999996 12.01508,19.999996 l 28.03519,-4 16.020108,-35.999996 V 113 l 12.01508,20 C 99.939679,141 148,125 148,125 c 0,0 0,44 -52.065351,44 -10.228081,0 -24.649398,-16.57143 -36.045242,-28 -8.010054,8 -20.025136,16 -40.050269,-4 -12.0150809,-16 8.010054,-43.999996 8.010053,-43.999996 z" style="filter:url(#filter976);opacity:0.2"/>
  <path d="m 27.849192,90 c 0,0 -4.005027,12 12.01508,20 L 67.899461,106 84,70 v 40 l 11.934649,20 C 99.939679,138 148,122 148,122 c 0,0 0,44 -52.065351,44 -10.228081,0 -24.649398,-16.57143 -36.045242,-28 -8.010054,8 -20.025135,16 -40.050269,-4 -12.0150809,-16 8.010054,-44 8.010054,-44 z" style="fill:#facd48"/>
  <ellipse cx="60" cy="70" rx="8" ry="12" style="fill:#4f4f4f"/>
  <path style="opacity:0.2;fill:#ffffff" d="M 84 70 L 67.900391 106 L 39.865234 110 C 29.532591 104.84016 27.541206 98.032746 27.421875 93.837891 C 27.258281 97.874078 28.666779 105.4078 39.865234 111 L 67.900391 107 L 84 71 L 84 70 z M 27.849609 90 C 27.849609 90 15.56935 107.1716 16.013672 122.30469 C 16.1081 108.23987 26.418545 93.063553 27.568359 91.414062 C 27.696562 90.581066 27.849609 90 27.849609 90 z M 84 110 L 84 111 L 95.935547 131 C 99.93333 138.98552 147.77199 123.07525 147.94531 123.01758 C 147.96117 122.64606 148 122 148 122 C 148 122 99.940577 138 95.935547 130 L 84 110 z "/>
</svg>
