<?xml version='1.0' encoding='utf-8'?>
<svg xmlns="http://www.w3.org/2000/svg" width="192" height="192" version="1" id="svg14">
  <defs>
    <filter style="color-interpolation-filters:sRGB" id="filter850" x="0.05" width="1.10" y="0.05" height="1.10">
      <feGaussianBlur stdDeviation="3.20"/>
    </filter>
    <filter style="color-interpolation-filters:sRGB" id="filter8049" x="0.06" y="0.10" width="1.12" height="1.21">
      <feGaussianBlur stdDeviation="2.83"/>
    </filter>
  </defs>
  <circle style="filter:url(#filter850);opacity:0.20;fill:#000000" cx="96" cy="100" r="80"/>
  <circle r="80" cy="96" cx="96" style="fill:#ababab"/>
  <path style="opacity:0.10;fill:#ffffff" d="M 96 16 A 80 80 0 0 0 16 96 A 80 80 0 0 0 16.02 96.47 A 80 80 0 0 1 96 17 A 80 80 0 0 1 175.97 96.51 A 80 80 0 0 0 176 96 A 80 80 0 0 0 96 16 z "/>
  <path style="filter:url(#filter8049);opacity:0.20;fill:#000000;color:#000000" d="M 68.18,64.00 C 58.54,63.72 50.76,69.50 46.01,76.64 41.26,83.77 38.87,92.46 39,100.67 c 0.10,6.09 1.69,12.26 5.00,17.52 3.31,5.25 8.68,9.64 15.58,10.74 6.20,0.99 12.09,-1.00 17.64,-3.79 5.55,-2.79 10.84,-6.58 15.55,-10.40 6.86,-5.56 11.42,-10.19 13.99,-12.89 2.90,2.02 5.81,3.98 8.65,5.71 6.44,3.89 12.48,6.97 18.89,7.43 a 6.00,6.00 0 0 0 0.11,0.01 c 5.61,0.30 10.46,-2.34 13.99,-5.86 3.53,-3.51 6.03,-8.07 6.55,-13.23 a 6.00,6.00 0 0 0 0.00,0.04 c 0.59,-6.16 -2.83,-13.02 -9.30,-16.31 -6.48,-3.29 -15.23,-4.06 -27.42,-2.51 a 6,6 0 0 0 -5.20,6.71 6,6 0 0 0 6.71,5.20 c 10.87,-1.38 17.53,0.19 20.48,1.31 2.94,1.49 3.00,2.25 2.79,4.45 0.19,1.76 -1.38,4.23 -3.08,5.92 -1.69,1.68 -3.58,2.42 -4.84,2.37 -2.59,0.20 -7.75,-2.25 -13.48,-5.71 C 115.87,93.80 109.39,89.09 103.00,84.34 96.61,79.59 90.31,74.81 84.59,71.05 78.86,67.30 74.21,64.18 68.18,64.00 Z M 67.82,76.00 c 0.37,0.01 5.01,1.70 10.18,5.09 5.18,3.39 11.39,8.09 17.84,12.88 0.36,0.26 0.72,0.52 1.08,0.79 -2.74,2.78 -6.57,6.49 -11.71,10.65 -4.29,3.48 -9.04,6.82 -13.39,9.00 -4.35,2.18 -8.18,3.01 -10.35,2.66 -3.10,0.50 -5.41,-2.26 -7.32,-5.30 -1.91,-3.03 -3.09,-7.27 -3.15,-11.31 0.09,-5.57 1.80,-12.38 5,-17.19 3.20,-4.81 7.02,-7.43 11.82,-7.29 z"/>
  <path style="fill:#4b4b4b;color:#000000" d="M 68.18,62.00 C 58.54,61.72 50.76,67.50 46.01,74.64 41.26,81.77 38.87,90.46 39,98.67 c 0.10,6.09 1.69,12.26 5.00,17.52 3.31,5.25 8.68,9.64 15.58,10.74 6.20,0.99 12.09,-1.00 17.64,-3.79 5.55,-2.79 10.84,-6.58 15.55,-10.40 6.86,-5.56 11.42,-10.19 13.99,-12.89 2.90,2.02 5.81,3.98 8.65,5.71 6.44,3.89 12.48,6.97 18.89,7.43 a 6.00,6.00 0 0 0 0.11,0.01 c 5.61,0.30 10.46,-2.34 13.99,-5.86 3.53,-3.51 6.03,-8.07 6.55,-13.23 a 6.00,6.00 0 0 0 0.00,0.04 c 0.59,-6.16 -2.83,-13.02 -9.30,-16.31 -6.48,-3.29 -15.23,-4.06 -27.42,-2.51 a 6,6 0 0 0 -5.20,6.71 6,6 0 0 0 6.71,5.20 c 10.87,-1.38 17.53,0.19 20.48,1.31 2.94,1.49 3.00,2.25 2.79,4.45 0.19,1.76 -1.38,4.23 -3.08,5.92 -1.69,1.68 -3.58,2.42 -4.84,2.37 -2.59,0.20 -7.75,-2.25 -13.48,-5.71 -5.76,-3.48 -12.24,-8.19 -18.62,-12.94 C 96.61,77.59 90.31,72.81 84.59,69.05 78.86,65.30 74.21,62.18 68.18,62.00 Z m 0.35,12.00 c 0.37,0.01 5.01,1.70 10.18,5.09 5.18,3.39 11.39,8.09 17.84,12.88 0.36,0.26 0.72,0.52 1.08,0.79 -2.74,2.78 -6.57,6.49 -11.71,10.65 -4.29,3.48 -9.04,6.82 -13.39,9.00 -4.35,2.18 -8.18,3.01 -10.35,2.66 -3.10,0.50 -5.41,-2.26 -7.32,-5.30 C 52.24,106.75 51.06,102.51 51,98.47 c 0.09,-5.57 1.80,-12.38 5,-17.19 3.20,-4.81 7.02,-7.43 11.82,-7.29 z"/>
</svg>
