<?xml version='1.0' encoding='utf-8'?>
<svg xmlns="http://www.w3.org/2000/svg" width="192" height="192" version="1.1" id="svg22">
  <defs>
    <filter style="color-interpolation-filters:sRGB" id="filter865" x="0.07" y="0.04" width="1.14" height="1.07">
      <feGaussianBlur stdDeviation="1.36"/>
    </filter>
    <filter style="color-interpolation-filters:sRGB" id="filter869" x="0.11" y="0.03" width="1.22" height="1.06">
      <feGaussianBlur stdDeviation="1.44"/>
    </filter>
    <filter style="color-interpolation-filters:sRGB" id="filter879" x="0.03" y="0.10" width="1.06" height="1.19">
      <feGaussianBlur stdDeviation="0.64"/>
    </filter>
    <filter style="color-interpolation-filters:sRGB" id="filter921" x="0.05" y="0.04" width="1.11" height="1.09">
      <feGaussianBlur stdDeviation="0.72"/>
    </filter>
  </defs>
  <rect style="filter:url(#filter921);opacity:0.20;fill:#000000" width="32.00" height="40.00" x="80.00" y="18.00"/>
  <path style="filter:url(#filter865);opacity:0.20" d="M 72.00,91.00 H 120.00 V 155.00 L 96.00,179 72.00,155.00 Z"/>
  <path style="fill:#afafb1" d="m 72.00,88.00 h 48.00 v 64.00 L 96.00,176.00 72.00,152.00 Z"/>
  <path style="fill:#e4e4e4" d="M 72.00,88.00 H 96.00 V 176.00 L 72.00,152.00 Z"/>
  <rect style="filter:url(#filter869);opacity:0.20" width="32.00" height="112.00" x="60.00" y="-152.00" rx="16.00" ry="16.00" transform="rotate(90,1.00,-1.00)"/>
  <rect style="fill:#ec8a2b" width="32.00" height="112.00" x="56.00" y="-152.00" rx="16.00" ry="16.00" transform="rotate(90)"/>
  <rect style="fill:#d13808" width="32.00" height="40.00" x="80.00" y="16"/>
  <rect style="filter:url(#filter879);opacity:0.20" width="48.00" height="16.00" x="72.00" y="18.00" rx="8.00" ry="8.00"/>
  <rect style="fill:#ec8a2b" width="48.00" height="16.00" x="72.00" y="16" rx="8.00" ry="8.00"/>
  <path style="opacity:0.20;fill:#ffffff" d="M 56 56 C 47.14 56 40 63.13 40 71.99 L 40 72.01 C 40 72.15 40.02 72.29 40.03 72.43 C 40.32 63.83 47.33 57 56 57 L 136 57 C 144.67 57 151.68 63.83 151.97 72.43 C 151.98 72.29 152 72.15 152 72.01 L 152 71.99 C 152 63.13 144.86 56 136 56 L 56 56 z "/>
  <path style="opacity:0.20;fill:#ffffff" d="M 79.99 16 C 75.56 16 72 19.57 72 24 C 72 24.18 72.01 24.36 72.02 24.53 C 72.26 20.32 75.72 17 79.99 17 L 112.01 17 C 116.28 17 119.74 20.32 119.98 24.53 C 119.99 24.36 120 24.18 120 24 C 120 19.57 116.44 16 112.01 16 L 79.99 16 z "/>
</svg>
