<?xml version='1.0' encoding='utf-8'?>
<svg xmlns="http://www.w3.org/2000/svg" width="192" height="192" version="1.1" id="svg18">
  <defs>
    <filter style="color-interpolation-filters:sRGB" id="filter875" x="0.04" y="0.06" width="1.08" height="1.11">
      <feGaussianBlur stdDeviation="2.80"/>
    </filter>
    <filter style="color-interpolation-filters:sRGB" id="filter879" x="0.11" y="0.10" width="1.22" height="1.21">
      <feGaussianBlur stdDeviation="1.22"/>
    </filter>
  </defs>
  <path style="fill:#61d9e8" d="m 28,16 h 136 c 6.65,0 12,5.35 12,12 v 116 c 0,6.65 -5.35,12 -12,12 H 28 c -6.65,0 -12,-5.35 -12,-12 V 28 c 0,-6.65 5.35,-12 12,-12 z"/>
  <path style="filter:url(#filter875);opacity:0.20" d="M 102,60 A 14,14 0 0 0 88,74 14,14 0 0 0 102,88 14,14 0 0 0 116,74 14,14 0 0 0 102,60 Z m 69.27,15.70 c -1.17,0 -15.52,5.46 -31.90,12.12 C 82.13,111.13 72.90,114.87 51.66,123.37 39.89,128.07 27.11,133.04 23.13,133.90 L 16,135.45 V 168 c 0,6.65 5.35,12 12,12 h 136 c 6.65,0 12,-5.35 12,-12 v -32.36 l -3.98,2.60 c -7.09,7.43 -7.24,7.50 -24.97,10.88 -5.96,1.14 -6.26,1.11 -6.54,0.54 0.16,0.95 7.41,-17.13 16.81,-35.97 9.62,-19.27 16.88,-34.83 16.59,-35.58 0.28,0.73 -1.47,-1.34 -2.64,-1.34 z M 70,84 A 14,14 0 0 0 56,98 14,14 0 0 0 70,112 14,14 0 0 0 84,98 14,14 0 0 0 70,84 Z m 74.59,12.19 c 0.61,0.01 1.12,0.48 1.12,1.05 0,1.31 -16.23,31.15 -23.44,43.09 -2.96,4.90 -5.86,9.45 -6.45,10.10 0.87,0.96 -3.28,-1.06 -12.70,-10.70 C 89.71,126.03 87.43,123.32 88.02,121.77 88.46,120.63 142.56,96.16 144.59,96.19 Z m -67.37,29.74 c 1.44,0.08 3.27,1.82 8.12,7.43 12.19,14.11 14.93,17.58 14.62,18.52 0.36,1.07 -2.67,1.69 -3.45,0.91 0.29,0.29 -5.68,0.72 -11.99,0.97 -9.96,0.39 -15.72,-1.01 -33.73,-3.63 -1.95,0.28 -4.36,-1.02 -5.35,-1.63 0.99,0.61 -2.97,-1.39 -4.40,-1.73 -2.55,0.59 -2.57,0.63 0.89,-2.27 1.61,-1.58 32.32,-15.53 36.48,-16.58 0.20,0.05 0.40,0.07 0.60,0.05 z"/>
  <path style="opacity:0.20;fill:#ffffff" d="M 28 16 C 21.35 16 16 21.35 16 28 L 16 29 C 16 22.35 21.35 17 28 17 L 164 17 C 170.65 17 176 22.35 176 29 L 176 28 C 176 21.35 170.65 16 164 16 L 28 16 z "/>
  <circle style="fill:#3b3b3b" cx="70" cy="94" r="14"/>
  <circle style="fill:#3b3b3b" cx="102" cy="70" r="14"/>
  <path style="fill:#3b3b3b" d="m 171.27,71.70 c -1.17,0 -15.52,5.46 -31.90,12.12 C 82.13,107.13 72.90,110.87 51.66,119.37 39.89,124.07 27.11,129.04 23.13,129.90 L 16,131.45 V 164 c 0,6.65 5.35,12 12,12 h 136 c 6.65,0 12,-5.35 12,-12 v -32.36 l -3.98,2.60 c -7.09,7.43 -7.24,7.50 -24.97,10.88 -5.96,1.14 -6.26,1.11 -6.54,0.54 0.16,0.95 7.41,-17.13 16.81,-35.97 9.62,-19.27 16.88,-34.83 16.59,-35.58 0.28,0.73 -1.47,-1.34 -2.64,-1.34 z M 144.59,92.19 c 0.61,0.01 1.12,0.48 1.12,1.05 0,1.31 -16.23,31.15 -23.44,43.09 -2.96,4.90 -5.86,9.45 -6.45,10.10 0.87,0.96 -3.28,-1.06 -12.70,-10.70 C 89.71,122.03 87.43,119.32 88.02,117.77 88.46,116.63 142.56,92.16 144.59,92.19 Z m -67.37,29.74 c 1.44,0.08 3.27,1.82 8.12,7.43 12.19,14.11 14.93,17.58 14.62,18.52 0.36,1.07 -2.67,1.69 -3.45,0.91 0.29,0.29 -5.68,0.72 -11.99,0.97 -9.96,0.39 -15.72,-1.01 -33.73,-3.63 -1.95,0.28 -4.36,-1.02 -5.35,-1.63 0.99,0.61 -2.97,-1.39 -4.40,-1.73 -2.55,0.59 -2.57,0.63 0.89,-2.27 1.61,-1.58 32.32,-15.53 36.48,-16.58 0.20,0.05 0.40,0.07 0.60,0.05 z"/>
  <path style="filter:url(#filter879);opacity:0.20" d="m 148,26 v 10.53 l -9.12,-5.27 -2,3.47 9.12,5.27 -9.12,5.27 2,3.47 L 148,43.47 V 54 h 4 V 43.47 l 9.12,5.27 2,-3.47 L 154.01,40 l 9.12,-5.27 -2,-3.47 L 152,36.53 V 26 Z"/>
  <path style="fill:#ffffff" d="m 148,24 v 10.53 l -9.12,-5.27 -2,3.47 9.12,5.27 -9.12,5.27 2,3.47 L 148,41.47 V 52 h 4 V 41.47 l 9.12,5.27 2,-3.47 L 154.01,38 l 9.12,-5.27 -2,-3.47 L 152,34.53 V 24 Z"/>
</svg>
