<svg xmlns="http://www.w3.org/2000/svg" id="svg24" width="192" height="192" version="1.1"><defs><filter style="color-interpolation-filters:sRGB" id="filter855" width="1.1" height="1.1" x=".05" y=".05"><feGaussianBlur stdDeviation="3.2"/></filter><filter style="color-interpolation-filters:sRGB" id="filter877" width="1.08" height="1.11" x=".04" y=".06"><feGaussianBlur stdDeviation="2.08"/></filter></defs><circle cx="96" cy="100" r="80" style="filter:url(#filter855);opacity:.2"/><circle cx="96" cy="96" r="80" style="fill:#69aa35"/><path style="opacity:.1;fill:#fff" d="M 96 16 A 80 80 0 0 0 16 96 A 80 80 0 0 0 16.02 96.66 A 80 80 0 0 1 96 17 A 80 80 0 0 1 175.98 96.31 A 80 80 0 0 0 176 96 A 80 80 0 0 0 96 16 z"/><path d="m 104.00,59.00 c -10.97,0 -21.22,5.13 -28.36,9.16 0.75,0.42 -1.42,0.96 -2,1.59 -14.19,9.19 -24.57,17.21 -32.80,33.67 -1.13,2.25 -1.13,4.90 0,7.16 0,0 18.89,36.42 63.16,36.42 14.01,0 24.80,-4.58 32.12,-11.14 6.43,-5.76 9.88,-12.63 12.11,-18.83 2.08,-1.37 4.22,-2.61 6.27,-4.84 2.85,-3.12 5.50,-7.68 5.50,-13.19 0,-6.10 -4.35,-11.55 -8.50,-13.61 -2.59,-1.29 -4.61,-1.22 -6.81,-1.50 -6.51,-10.63 -18.76,-24.89 -40.69,-24.89 z" style="filter:url(#filter877);opacity:.2"/><path d="m 104.00,56.00 c -10.97,0 -21.22,5.13 -28.36,9.16 0.75,0.42 -1.42,0.96 -2,1.59 -14.19,9.19 -24.57,17.21 -32.80,33.67 -1.13,2.25 -1.13,4.90 0,7.16 0,0 18.89,36.42 63.16,36.42 14.01,0 24.80,-4.58 32.12,-11.14 6.43,-5.76 9.88,-12.63 12.11,-18.83 2.08,-1.37 4.22,-2.61 6.27,-4.84 2.85,-3.12 5.50,-7.68 5.50,-13.19 0,-6.10 -4.35,-11.55 -8.50,-13.61 -2.59,-1.29 -4.61,-1.22 -6.81,-1.50 -6.51,-10.63 -18.76,-24.89 -40.69,-24.89 z" style="fill:#4f4f4f"/><path d="m 136.19,88.44 c 0,0 16,-2 16,8 0,10.00 -16,16.00 -16,16.00 z" style="fill:#e68673"/><path d="m 48.19,104.44 c 8,-16.00 16.69,-22.21 32,-32.00 6.56,-3.75 14,4 14,4 l 30.00,20 h 20 c 0,0 0,40.00 -40,40.00 -40.00,0 -56.00,-32 -56.00,-32 z" style="fill:#f2dbb7"/><path d="m 104.19,64.44 c -8.00,0 -17.92,4.45 -24.44,8.12 0.05,0.08 0.09,0.18 0.14,0.27 0.99,0.63 -1.74,1.19 -2.67,1.80 a 36,36 0 0 0 -4.75,17.81 A 36,36 0 0 0 108.19,128.44 36,36 0 0 0 144,96 C 142.94,93.00 132.56,64.44 104.19,64.44 Z" style="fill:#4f4f4f"/><path d="M 96.19,112.44 H 112.19 c 10,0 24,-8 24,-8 0,0 -4,16 -24,16 -10,0 -16.00,-8 -16.00,-8 z" style="fill:#2898b5"/><circle cx="92.19" cy="84.44" r="12" style="fill:#fff"/></svg>