<?xml version='1.0' encoding='utf-8'?>
<svg xmlns="http://www.w3.org/2000/svg" width="192" height="192" version="1.1" id="svg20">
  <defs>
    <filter style="color-interpolation-filters:sRGB" id="filter861" x="0.05" y="0.05" width="1.10" height="1.10">
      <feGaussianBlur stdDeviation="3.20"/>
    </filter>
    <filter style="color-interpolation-filters:sRGB" id="filter865" x="0.06" y="0.07" width="1.11" height="1.15">
      <feGaussianBlur stdDeviation="3.22"/>
    </filter>
  </defs>
  <circle style="filter:url(#filter861);opacity:0.20" cx="96" cy="100" r="80"/>
  <path style="fill:#1955aa" d="m 176,96 c 0,44.18 -35.82,80 -80,80 -36.74,0 -67.69,-24.76 -77.08,-58.51 -1.90,-6.84 3.77,-3.89 3.77,-11.34 0,-1.61 -6.64,-13.37 -6.55,-14.96 C 18.63,49.25 53.43,16 96,16 c 44.18,0 80,35.82 80,80 z"/>
  <path style="filter:url(#filter865);opacity:0.20" d="M 120,52 A 32,32 0 0 0 88.05,82.59 L 72.78,108.03 A 24,24 0 0 0 72,108 24,24 0 0 0 57.70,112.77 L 16.26,94.89 A 80,80 0 0 0 16,100 a 80,80 0 0 0 3.21,22.30 l 28.97,12.49 A 24,24 0 0 0 72,156 24,24 0 0 0 96,132 24,24 0 0 0 95.97,131.35 L 122.49,115.88 A 32,32 0 0 0 152,84 32,32 0 0 0 120,52 Z m 0,12 a 20,20 0 0 1 20,20 20,20 0 0 1 -20,20 20,20 0 0 1 -20,-20 20,20 0 0 1 20,-20 z m 0,4 a 16,16 0 0 0 -16,16 16,16 0 0 0 16,16 16,16 0 0 0 16,-16 16,16 0 0 0 -16,-16 z m -48,48 a 16,16 0 0 1 16,16 16,16 0 0 1 -16,16 16,16 0 0 1 -14.45,-9.16 L 67.25,143.02 a 12.00,12.00 0 1 0 9.50,-22.03 l -9.70,-4.18 A 16,16 0 0 1 72,116 Z"/>
  <path style="fill:#ffffff" d="m 92,72 12,28 32,4 -48,28 V 112 H 68 Z"/>
  <path style="fill:#ffffff" d="m 120,48 a 32,32 0 0 0 -32,32 32,32 0 0 0 32,32 32,32 0 0 0 32,-32 32,32 0 0 0 -32,-32 z m 0,12 a 20,20 0 0 1 20,20 20,20 0 0 1 -20,20 20,20 0 0 1 -20,-20 20,20 0 0 1 20,-20 z"/>
  <path style="fill:#ffffff" d="m 72,104 a 24,24 0 0 0 -24,24 24,24 0 0 0 24,24 24,24 0 0 0 24,-24 24,24 0 0 0 -24,-24 z m 0,8 a 16,16 0 0 1 16,16 16,16 0 0 1 -16,16 16,16 0 0 1 -16,-16 16,16 0 0 1 16,-16 z"/>
  <circle style="fill:#ffffff" cx="120" cy="80" r="16"/>
  <path style="fill:#ffffff" d="M 16.26,90.89 A 80,80 0 0 0 16,96 80,80 0 0 0 19.21,118.30 L 67.25,139.02 a 12.00,12.00 0 1 0 9.50,-22.03 z"/>
  <path style="opacity:0.10;fill:#ffffff" d="M 96 16 A 80 80 0 0 0 16 96 A 80 80 0 0 0 16.02 96.64 A 80 80 0 0 1 96 17 A 80 80 0 0 1 175.98 96.30 A 80 80 0 0 0 176 96 A 80 80 0 0 0 96 16 z "/>
</svg>
