<?xml version='1.0' encoding='utf-8'?>
<svg xmlns="http://www.w3.org/2000/svg" width="192" height="192" version="1.1" id="svg12">
  <defs>
    <filter style="color-interpolation-filters:sRGB" id="filter845" x="-0.043199884" y="-0.054000179" width="1.0863998" height="1.1080004">
      <feGaussianBlur stdDeviation="2.8799916"/>
    </filter>
    <filter style="color-interpolation-filters:sRGB" id="filter867" x="-0.042" y="-0.056" width="1.084" height="1.112">
      <feGaussianBlur stdDeviation="2.24"/>
    </filter>
  </defs>
  <path style="filter:url(#filter845);opacity:0.2" d="m 32,36.0008 c -8.836,8.84e-4 -15.9992,7.164 -16,16 v 8 c 8.84e-4,8.836 7.164,15.9992 16,16 h 1.28124 c 1.12616,1.64 2.226,3.19252 3.82032,5.8908 4.5092,7.6312 10.1728,18.4392 15.586,29.2656 10.8264,21.6532 20.75,43.46 20.75,43.46 2.59504,5.712 8.2888,9.3804 14.5624,9.3828 h 16 c 6.1828,4.4e-4 11.8128,-3.56124 14.4608,-9.1484 0,0 30.774,-64.856 37.3436,-78.436 2.24108,-0.2618 4.672,-0.42188 4.672,-0.42188 8.6464,-0.25848 15.5224,-7.342 15.5236,-15.992 v -8 c -8.8e-4,-8.836 -7.164,-15.9992 -16,-16 h -128 z"/>
  <path style="fill:#e4e4e4" d="m 32,32.0008 c -8.836,8.84e-4 -15.9992,7.164 -16,16 v 8 c 8.84e-4,8.836 7.164,15.9992 16,16 h 1.28124 c 1.12616,1.64 2.226,3.19252 3.82032,5.8908 4.5092,7.6312 10.1728,18.4392 15.586,29.2656 10.8264,21.6532 20.75,43.46 20.75,43.46 2.59504,5.712 8.2888,9.3804 14.5624,9.3828 h 16 c 6.1828,4.4e-4 11.8128,-3.56124 14.4608,-9.1484 0,0 30.774,-64.856 37.3436,-78.436 2.24108,-0.2618 4.672,-0.42188 4.672,-0.42188 8.6464,-0.25848 15.5224,-7.342 15.5236,-15.992 v -8 c -8.8e-4,-8.836 -7.164,-15.9992 -16,-16 h -128 z"/>
  <path style="filter:url(#filter867);opacity:0.2" d="m 32,51 v 8 h 8 c 8,0 48,88 48,88 h 16 c 0,0 36,-76 40,-84 1.78884,-3.57772 16,-4 16,-4 v -8 h -48 v 8 h 8 c 4,0 8,4 8,8 0,4 -20,44 -20,44 L 88,67 c 0,-8 8,-8 8,-8 h 4 v -8 z"/>
  <path style="fill:#318c01" d="m 32,48.0008 v 8 h 8 c 8,0 48,88 48,88 h 16 c 0,0 36,-76 40,-84 1.78884,-3.57772 16,-4 16,-4 v -8 h -48 v 8 h 8 c 4,0 8,4 8,8 0,4 -20,44 -20,44 l -20,-44 c 0,-8 8,-8 8,-8 h 4 v -8 z"/>
  <path style="opacity:0.2;fill:#ffffff" d="M 32 32 C 23.164 32.000884 16.0008 39.164 16 48 L 16 49 C 16.0008 40.164 23.164 33.000884 32 33 L 160 33 C 168.836 33.0008 175.99912 40.164 176 49 L 176 48 C 175.99912 39.164 168.836 32.0008 160 32 L 32 32 z "/>
</svg>
