<?xml version='1.0' encoding='utf-8'?>
<svg xmlns="http://www.w3.org/2000/svg" height="192" width="192" version="1.1" id="svg16">
  <defs>
    <filter style="color-interpolation-filters:sRGB" id="filter853" x="0.05" y="0.05" width="1.10" height="1.10">
      <feGaussianBlur stdDeviation="3.20"/>
    </filter>
    <filter style="color-interpolation-filters:sRGB" id="filter857" x="0.04" y="0.06" width="1.07" height="1.13">
      <feGaussianBlur stdDeviation="2.27"/>
    </filter>
  </defs>
  <rect style="filter:url(#filter853);opacity:0.20" rx="28" ry="28" height="160" width="160" y="20" x="16"/>
  <rect style="fill:#e4e4e4" rx="28" ry="28" height="160" width="160" y="16" x="16"/>
  <path style="filter:url(#filter857);opacity:0.20" d="m 135.93,58 a 6.00,6.00 0 0 0 -4.30,1.90 l -30,32 a 6.00,6.00 0 1 0 8.75,8.20 l 25.30,-26.98 21.66,26.66 a 6.00,6.00 0 1 0 9.31,-7.56 l -26,-32 A 6.00,6.00 0 0 0 135.93,58 Z M 55.43,58.01 A 6.00,6.00 0 0 0 50.62,60.12 l -27.20,32 A 6.00,6.00 0 1 0 32.57,99.88 l 22.76,-26.77 24.21,26.91 a 6.00,6.00 0 1 0 8.92,-8.03 l -28.80,-32 A 6.00,6.00 0 0 0 55.43,58.01 Z m -13.48,63.94 a 6.00,6.00 0 0 0 -3.27,11.05 c 0,0 3.29,2.20 7.65,4.38 C 50.68,139.55 56,142 62,142 c 12.67,0 21.89,-2.12 28.05,-4.36 3.92,-1.42 4.61,-2.16 6.17,-3.15 C 100.00,136.36 112.35,142 134,142 c 6,0 10.82,-2.67 14.33,-5.01 3.51,-2.34 5.91,-4.75 5.91,-4.75 a 6.00,6.00 0 0 0 -4.36,-10.30 6.00,6.00 0 0 0 -4.12,1.81 c 0,0 -1.60,1.59 -4.09,3.25 C 139.18,128.67 136,130 134,130 111.33,130 98.98,122.79 98.98,122.79 A 6.00,6.00 0 0 0 92.25,123.31 c 0,0 -1.46,1.29 -6.30,3.05 C 81.11,128.12 73.33,130 62,130 c -2,0 -6.68,-1.55 -10.32,-3.37 -3.64,-1.82 -6.35,-3.62 -6.35,-3.62 a 6.00,6.00 0 0 0 -3.38,-1.06 z"/>
  <path d="M 28,94 55.20,62 84,94" style="fill:none;stroke:#32b7ff;stroke-width:12;stroke-linecap:round;stroke-linejoin:round"/>
  <path d="M 162,94 136,62 106,94" style="fill:none;stroke:#32b7ff;stroke-width:12;stroke-linecap:round;stroke-linejoin:round"/>
  <path d="m 42,126 c 0,0 12,8 20,8 24,0 34,-8 34,-8 0,0 14,8 38,8 8,0 16,-8 16,-8" style="fill:none;stroke:#32b7ff;stroke-width:12;stroke-linecap:round;stroke-linejoin:round"/>
  <path style="opacity:0.20;fill:#ffffff" d="M 44 16 C 28.49 16 16 28.49 16 44 L 16 45 C 16 29.49 28.49 17 44 17 L 148 17 C 163.51 17 176 29.49 176 45 L 176 44 C 176 28.49 163.51 16 148 16 L 44 16 z "/>
</svg>
