<?xml version='1.0' encoding='utf-8'?>
<svg xmlns="http://www.w3.org/2000/svg" width="192" height="192" version="1.1" id="svg24">
  <defs>
    <filter style="color-interpolation-filters:sRGB" id="filter987" x="-0.048000001" y="-0.048000001" width="1.096" height="1.096">
      <feGaussianBlur stdDeviation="3.2"/>
    </filter>
    <filter style="color-interpolation-filters:sRGB" id="filter992" x="-0.031741991" y="-0.098399483" width="1.063484" height="1.196799">
      <feGaussianBlur stdDeviation="1.6400028"/>
    </filter>
  </defs>
  <rect style="filter:url(#filter987);opacity:0.2;fill:#000000" width="160" height="160" x="16" y="20" rx="12" ry="12"/>
  <rect style="fill:#70c74d" width="160" height="160" x="16" y="16" rx="12" ry="12"/>
  <path style="opacity:0.2;fill:#ffffff" d="M 28 16 C 21.352 16 16 21.352 16 28 L 16 29 C 16 22.352 21.352 17 28 17 L 164 17 C 170.648 17 176 22.352 176 29 L 176 28 C 176 21.352 170.648 16 164 16 L 28 16 z "/>
  <path style="filter:url(#filter992);opacity:0.2" d="m 44,78 c 0,0 -2.834983,-0.05612 -5.789062,1.421875 C 35.256898,80.898675 32,84.6668 32,90 h 8 c 0,-4 4,-4 4,-4 0,0 4,0 4,4 0,2.1112 -0.5584,3.2918 -1.625,4.625 -1.0666,1.3336 -2.773437,2.671875 -4.773438,4.17188 -2,1.5 -4.293162,3.16132 -6.226562,5.57812 C 33.4416,106.7914 32,110.1112 32,114 v 4 h 24 v -8 H 41.40625 c 0.1252,-0.176 0.07475,-0.445 0.21875,-0.625 1.0666,-1.3336 2.773438,-2.67188 4.773438,-4.17188 2,-1.5 4.293162,-3.16132 6.226562,-5.57812 C 54.5584,97.2086 56,93.8888 56,90 56,84.6668 52.743102,80.898675 49.789062,79.421875 46.834943,77.944675 44,78 44,78 Z m 34,0 c -7.6868,0 -14,6.3132 -14,14 v 12 c 0,7.6868 6.3132,14 14,14 7.6868,0 14,-6.3132 14,-14 V 92 C 92,84.3132 85.6868,78 78,78 Z m 22,0 v 24 h 16 v 16 h 8 v -16 h 4 v -8 h -4 V 78 h -8 v 16 h -8 V 78 Z m 44,0 c -6.58004,0 -12,0 -12,12 0,3.0744 2.06808,5.8664 4,8 -1.93192,2.1336 -4,4.9256 -4,8 0,12 5.41996,12 12,12 6.58004,0 12,0 12,-12 0,-3.0744 -2.06808,-5.8664 -4,-8 1.93192,-2.1336 4,-4.9256 4,-8 0,-12 -5.41996,-12 -12,-12 z m -66,8 c 3.3932,0 6,2.6068 6,6 v 12 c 0,3.3932 -2.6068,6 -6,6 -3.3932,0 -6,-2.6068 -6,-6 V 92 c 0,-3.3932 2.6068,-6 6,-6 z m 66,0 c 2.25652,0 4,1.7436 4,4 0,2.2564 -1.74348,4 -4,4 -2.25652,0 -4,-1.7436 -4,-4 0,-2.2564 1.74348,-4 4,-4 z m 0,16 c 2.25652,0 4,1.7436 4,4 0,2.2564 -1.74348,4 -4,4 -2.25652,0 -4,-1.7436 -4,-4 0,-2.2564 1.74348,-4 4,-4 z"/>
  <path style="fill:#ffffff" d="m 144,76 c -6.58004,0 -12,0 -12,12 0,3.0744 2.06808,5.8664 4,8 -1.93192,2.1336 -4,4.9256 -4,8 0,12 5.41996,12 12,12 6.58004,0 12,0 12,-12 0,-3.0744 -2.06808,-5.8664 -4,-8 1.93192,-2.1336 4,-4.9256 4,-8 0,-12 -5.41996,-12 -12,-12 z m 0,8 c 2.25652,0 4,1.7436 4,4 0,2.2564 -1.74348,4 -4,4 -2.25652,0 -4,-1.7436 -4,-4 0,-2.2564 1.74348,-4 4,-4 z m 0,16 c 2.25652,0 4,1.7436 4,4 0,2.2564 -1.74348,4 -4,4 -2.25652,0 -4,-1.7436 -4,-4 0,-2.2564 1.74348,-4 4,-4 z"/>
  <path style="fill:#ffffff;fill-rule:evenodd" d="m 108,76 v 16 h 8 V 76 h 8 v 16 h 4 v 8 h -4 v 16 h -8 V 100 H 100 V 76 h 8 v 0"/>
  <path style="fill:#ffffff;fill-rule:evenodd" d="m 44,76.00014 c 0,0 -2.835,-0.056 -5.78908,1.422 C 35.25688,78.89894 32,82.66694 32,88.00014 h 8 c 0,-4 4,-4 4,-4 0,0 4,0 4,4 0,2.1112 -0.5584,3.2916 -1.625,4.6248 -1.0666,1.3336 -2.77344,2.672 -4.77344,4.172 -2,1.5 -4.29316,3.1616 -6.22656,5.5784 -1.9334,2.4164 -3.375,5.736 -3.375,9.6248 v 4 h 24 v -8 H 41.40624 c 0.1252,-0.176 0.0748,-0.4448 0.2188,-0.6248 1.0666,-1.3336 2.77344,-2.672 4.77344,-4.172 2,-1.5 4.29316,-3.1616 6.22656,-5.5784 1.9334,-2.4164 3.375,-5.736 3.375,-9.6248 0,-5.3332 -3.25688,-9.1012 -6.21092,-10.578 C 46.835,75.94494 44,76.00014 44,76.00014 Z"/>
  <path style="fill:#ffffff" d="m 78,76 c -7.6868,0 -14,6.3132 -14,14 v 12 c 0,7.6868 6.3132,14 14,14 7.6868,0 14,-6.3132 14,-14 V 90 C 92,82.3132 85.6868,76 78,76 Z m 0,8 c 3.3932,0 6,2.6068 6,6 v 12 c 0,3.3932 -2.6068,6 -6,6 -3.3932,0 -6,-2.6068 -6,-6 V 90 c 0,-3.3932 2.6068,-6 6,-6 z"/>
</svg>
