<?xml version='1.0' encoding='utf-8'?>
<svg xmlns="http://www.w3.org/2000/svg" width="192" height="192" version="1.1" id="svg12">
  <defs>
    <filter style="color-interpolation-filters:sRGB" id="filter845" x="-0.043200005" y="-0.054000007" width="1.0864" height="1.108">
      <feGaussianBlur stdDeviation="2.8800004"/>
    </filter>
    <filter style="color-interpolation-filters:sRGB" id="filter849" x="-0.042" y="-0.056000001" width="1.084" height="1.112">
      <feGaussianBlur stdDeviation="2.24"/>
    </filter>
  </defs>
  <path d="M 32,36 A 16.0016,16.0016 0 0 0 16,52 v 28 a 16.0016,16.0016 0 0 0 12,15.476564 v 9.054686 A 16.0016,16.0016 0 0 0 16,120 v 28 a 16.0016,16.0016 0 0 0 16,16 h 128 a 16.0016,16.0016 0 0 0 16,-16 V 120 A 16.0016,16.0016 0 0 0 164,104.52344 V 95.468752 A 16.0016,16.0016 0 0 0 176,80 V 52 A 16.0016,16.0016 0 0 0 160,36 h -13.25 -29.125 -7.25 -29.109376 -7.234376 -29.125 z" style="filter:url(#filter845);opacity:0.2"/>
  <path style="fill:#3f3f3f" d="M 32,32 A 16.0016,16.0016 0 0 0 16,48 v 28 a 16.0016,16.0016 0 0 0 12,15.476564 v 9.054686 A 16.0016,16.0016 0 0 0 16,116 v 28 a 16.0016,16.0016 0 0 0 16,16 h 128 a 16.0016,16.0016 0 0 0 16,-16 V 116 A 16.0016,16.0016 0 0 0 164,100.52344 V 91.468752 A 16.0016,16.0016 0 0 0 176,76 V 48 A 16.0016,16.0016 0 0 0 160,32 h -13.25 -29.125 -7.25 -29.109376 -7.234376 -29.125 z"/>
  <path d="m 32,50.000001 v 28 H 44 V 118 H 32 v 28 H 160 V 118 H 148 V 78.000001 h 12 v -28 h -13.25 -29.125 -7.25 -29.109376 -7.234376 -29.125 z m 40,28 h 8 V 118 h -8 z m 40,0 h 8 V 118 h -8 z" style="filter:url(#filter849);opacity:0.2"/>
  <path style="fill:#ffffff" d="m 32,48 v 28 h 12 v 40 H 32 v 28 H 160 V 116 H 148 V 76 h 12 V 48 h -13.25 -29.125 -7.25 -29.109376 -7.234376 -29.125 z m 40,28 h 8 v 40 h -8 z m 40,0 h 8 v 40 h -8 z"/>
  <path style="opacity:0.1;fill:#ffffff" d="M 32 32 A 16.0016 16.0016 0 0 0 16 48 L 16 49 A 16.0016 16.0016 0 0 1 32 33 L 44.90625 33 L 74.03125 33 L 81.265625 33 L 110.375 33 L 117.625 33 L 146.75 33 L 160 33 A 16.0016 16.0016 0 0 1 176 49 L 176 48 A 16.0016 16.0016 0 0 0 160 32 L 146.75 32 L 117.625 32 L 110.375 32 L 81.265625 32 L 74.03125 32 L 44.90625 32 L 32 32 z M 164 100.52344 L 164 101.52344 A 16.0016 16.0016 0 0 1 176 117 L 176 116 A 16.0016 16.0016 0 0 0 164 100.52344 z M 28 100.53125 A 16.0016 16.0016 0 0 0 16 116 L 16 117 A 16.0016 16.0016 0 0 1 28 101.53125 L 28 100.53125 z "/>
</svg>
