<svg xmlns="http://www.w3.org/2000/svg" id="svg12" width="192" height="192" version="1.1"><defs><filter style="color-interpolation-filters:sRGB" id="filter845" width="1.09" height="1.11" x=".04" y=".05"><feGaussianBlur stdDeviation="2.88"/></filter><filter style="color-interpolation-filters:sRGB" id="filter867" width="1.08" height="1.11" x=".04" y=".06"><feGaussianBlur stdDeviation="2.24"/></filter></defs><path style="filter:url(#filter845);opacity:.2" d="m 32,36.00 c -8.84,0.00 -16.00,7.16 -16,16 v 8 c 0.00,8.84 7.16,16.00 16,16 h 1.28 c 1.13,1.64 2.23,3.19 3.82,5.89 4.51,7.63 10.17,18.44 15.59,29.27 10.83,21.65 20.75,43.46 20.75,43.46 2.60,5.71 8.29,9.38 14.56,9.38 h 16 c 6.18,0.00 11.81,-3.56 14.46,-9.15 0,0 30.77,-64.86 37.34,-78.44 2.24,0.26 4.67,0.42 4.67,0.42 8.65,0.26 15.52,-7.34 15.52,-15.99 v -8 c 0.00,-8.84 -7.16,-16.00 -16,-16 h -128 z"/><path style="fill:#e4e4e4" d="m 32,32.00 c -8.84,0.00 -16.00,7.16 -16,16 v 8 c 0.00,8.84 7.16,16.00 16,16 h 1.28 c 1.13,1.64 2.23,3.19 3.82,5.89 4.51,7.63 10.17,18.44 15.59,29.27 10.83,21.65 20.75,43.46 20.75,43.46 2.60,5.71 8.29,9.38 14.56,9.38 h 16 c 6.18,0.00 11.81,-3.56 14.46,-9.15 0,0 30.77,-64.86 37.34,-78.44 2.24,0.26 4.67,0.42 4.67,0.42 8.65,0.26 15.52,-7.34 15.52,-15.99 v -8 c 0.00,-8.84 -7.16,-16.00 -16,-16 h -128 z"/><path style="filter:url(#filter867);opacity:.2" d="m 32,51 v 8 h 8 c 8,0 48,88 48,88 h 16 c 0,0 36,-76 40,-84 1.79,-3.58 16,-4 16,-4 v -8 h -48 v 8 h 8 c 4,0 8,4 8,8 0,4 -20,44 -20,44 L 88,67 c 0,-8 8,-8 8,-8 h 4 v -8 z"/><path style="fill:#318c01" d="m 32,48.00 v 8 h 8 c 8,0 48,88 48,88 h 16 c 0,0 36,-76 40,-84 1.79,-3.58 16,-4 16,-4 v -8 h -48 v 8 h 8 c 4,0 8,4 8,8 0,4 -20,44 -20,44 l -20,-44 c 0,-8 8,-8 8,-8 h 4 v -8 z"/><path style="opacity:.2;fill:#fff" d="M 32 32 C 23.16 32.00 16.00 39.16 16 48 L 16 49 C 16.00 40.16 23.16 33.00 32 33 L 160 33 C 168.84 33.00 176.00 40.16 176 49 L 176 48 C 176.00 39.16 168.84 32.00 160 32 L 32 32 z"/></svg>