<?xml version='1.0' encoding='utf-8'?>
<svg xmlns="http://www.w3.org/2000/svg" width="192" height="192" version="1" id="svg20">
  <defs>
    <filter style="color-interpolation-filters:sRGB" id="filter861" x="0.06" y="0.04" width="1.11" height="1.08">
      <feGaussianBlur stdDeviation="2.80"/>
    </filter>
    <filter style="color-interpolation-filters:sRGB" id="filter865" x="0.06" y="0.04" width="1.12" height="1.08">
      <feGaussianBlur stdDeviation="2.16"/>
    </filter>
  </defs>
  <path style="filter:url(#filter861);opacity:0.20" d="m 76,20.00 c -4.24,0.00 -8.31,1.69 -11.31,4.69 l -24,24.00 c -2.62,2.63 -4.21,6.04 -4.59,9.63 L 36,68.00 v 52.97 c 0.00,4.24 1.69,8.31 4.69,11.31 l 15.52,15.52 16.48,15.52 12,12.00 c 6.25,6.25 16.38,6.25 22.62,0 l 12,-12.00 16.48,-15.52 15.52,-15.52 c 3.00,-3.00 4.69,-7.07 4.69,-11.31 V 68.00 l 0.02,-8.45 c 0.11,-4.03 -1.74,-7.93 -4.67,-10.86 l -24,-24.00 C 124.31,21.69 120.24,20.00 116,20.00 Z"/>
  <path style="fill:#4f4f4f" d="m 76,16 c -4.24,0.00 -8.31,1.69 -11.31,4.69 l -24,24.00 c -2.62,2.63 -4.21,6.04 -4.59,9.63 L 36,64.00 v 52.97 c 0.00,4.24 1.69,8.31 4.69,11.31 l 15.52,15.52 16.48,15.52 12,12.00 c 6.25,6.25 16.38,6.25 22.62,0 l 12,-12.00 16.48,-15.52 15.52,-15.52 c 3.00,-3.00 4.69,-7.07 4.69,-11.31 V 64.00 l 0.02,-8.45 c 0.11,-4.03 -1.74,-7.93 -4.67,-10.86 l -24,-24.00 C 124.31,17.69 120.24,16.00 116,16 Z"/>
  <path style="filter:url(#filter865);opacity:0.20" d="M 76,34 52,58 h 32 v 59.03 l -8,-8 V 66 H 52 v 52.97 L 67.52,134.48 84,118 v 32 l 12,12 12,-12 V 118 L 124.48,134.48 140,118.97 V 66 h -24 v 43.03 l -8,8 V 58 h 32 L 116,34 Z"/>
  <path style="fill:#c2c4c1" d="M 76 32 L 52 56 L 84 56 L 84 115.03 L 76 107.03 L 76 64 L 52 64 L 52 116.97 L 67.52 132.48 L 84 116 L 84 148 L 96 160 L 108 148 L 108 116 L 124.48 132.48 L 140 116.97 L 140 64 L 116 64 L 116 107.03 L 108 115.03 L 108 56 L 140 56 L 116 32 L 76 32 z "/>
  <path style="opacity:0.10;fill:#ffffff" d="M 76 16 C 71.76 16.00 67.69 17.69 64.69 20.69 L 40.69 44.69 C 38.06 47.32 36.48 50.74 36.10 54.32 L 36 64 L 36 65 L 36.10 55.32 C 36.48 51.74 38.06 48.32 40.69 45.69 L 64.69 21.69 C 67.69 18.69 71.76 17.00 76 17 L 116 17 C 120.24 17.00 124.31 18.69 127.31 21.69 L 151.31 45.69 C 154.24 48.62 155.87 52.53 155.98 56.55 L 156 65 L 156 64 L 155.98 55.55 C 155.87 51.53 154.24 47.62 151.31 44.69 L 127.31 20.69 C 124.31 17.69 120.24 16.00 116 16 L 76 16 z "/>
  <path style="opacity:0.20;fill:#ffffff" d="M 76 32 L 52 56 L 53 56 L 76 33 L 116 33 L 139 56 L 140 56 L 116 32 L 76 32 z M 52 64 L 52 65 L 76 65 L 76 64 L 52 64 z M 116 64 L 116 65 L 140 65 L 140 64 L 116 64 z M 76 107.03 L 76 108.03 L 83.98 116.02 L 84 116 L 84 115.03 L 76 107.03 z M 116 107.03 L 108 115.03 L 108 116 L 108.02 116.02 L 116 108.03 L 116 107.03 z "/>
</svg>
