<?xml version='1.0' encoding='utf-8'?>
<svg xmlns="http://www.w3.org/2000/svg" width="192" height="192" version="1.1" id="svg18">
  <defs>
    <filter style="color-interpolation-filters:sRGB" id="filter1648" x="0.05" y="0.05" width="1.09" height="1.10">
      <feGaussianBlur stdDeviation="3.04"/>
    </filter>
    <filter style="color-interpolation-filters:sRGB" id="filter1690" x="0.05" y="0.05" width="1.09" height="1.09">
      <feGaussianBlur stdDeviation="2.27"/>
    </filter>
  </defs>
  <path d="m 131.79,40.00 a 8.00,8.00 0 0 0 -4.15,1.29 L 47.64,93.29 a 8.00,8.00 0 0 0 0.90,13.92 l 100.00,48 a 8.00,8.00 0 0 0 11.30,-8.78 l -20,-100.00 a 8.00,8.00 0 0 0 -8.05,-6.43 z m -5.32,21.14 14.55,72.71 -72.72,-34.90 z" style="filter:url(#filter1690);opacity:0.20;fill:#000000"/>
  <path d="m 131.79,36 a 8.00,8.00 0 0 0 -4.15,1.29 L 47.64,89.29 a 8.00,8.00 0 0 0 0.90,13.92 l 100.00,48 a 8.00,8.00 0 0 0 11.30,-8.78 l -20,-100.00 A 8.00,8.00 0 0 0 131.79,36 Z m -5.32,21.14 14.55,72.71 -72.72,-34.90 z" style="fill:#353535"/>
  <path style="opacity:0.10;fill:#ffffff" d="M 131.79 36 A 8.00 8.00 0 0 0 127.64 37.29 L 47.64 89.29 A 8.00 8.00 0 0 0 44.09 96.21 A 8.00 8.00 0 0 1 47.64 90.29 L 127.64 38.29 A 8.00 8.00 0 0 1 131.79 37 A 8.00 8.00 0 0 1 139.84 43.43 L 159.84 143.43 A 8.00 8.00 0 0 1 159.98 144.49 A 8.00 8.00 0 0 0 159.84 142.43 L 139.84 42.43 A 8.00 8.00 0 0 0 131.79 36 z M 71.84 96.65 L 68.30 98.95 L 69.18 99.38 L 71.84 97.65 L 140.13 130.43 L 140.79 133.75 L 141.02 133.85 L 140.13 129.43 L 71.84 96.65 z "/>
  <path style="filter:url(#filter1648);opacity:0.20;fill:#000000" d="M 132,28 A 20,20 0 0 0 112,48 20,20 0 0 0 132,68 20,20 0 0 0 152,48 20,20 0 0 0 132,28 Z M 56,60 A 40,40 0 0 0 16,100 40,40 0 0 0 56,140 40,40 0 0 0 96,100 40,40 0 0 0 56,60 Z m 92,56 a 28,28 0 0 0 -28,28 28,28 0 0 0 28,28 28,28 0 0 0 28,-28 28,28 0 0 0 -28,-28 z"/>
  <circle cx="56" cy="96" r="40" style="fill:#fe6501"/>
  <circle cx="132" cy="44" r="20" style="fill:#fe6501"/>
  <circle cx="148" cy="140" r="28" style="fill:#fe6501"/>
  <path style="opacity:0.20;fill:#ffffff" d="M 132 24 A 20 20 0 0 0 112 44 A 20 20 0 0 0 112.04 44.71 A 20 20 0 0 1 132 25 A 20 20 0 0 1 151.97 44.45 A 20 20 0 0 0 152 44 A 20 20 0 0 0 132 24 z M 56 56 A 40 40 0 0 0 16 96 A 40 40 0 0 0 16.03 96.65 A 40 40 0 0 1 56 57 A 40 40 0 0 1 95.98 96.47 A 40 40 0 0 0 96 96 A 40 40 0 0 0 56 56 z M 148 112 A 28 28 0 0 0 120 140 A 28 28 0 0 0 120.04 140.69 A 28 28 0 0 1 148 113 A 28 28 0 0 1 175.98 140.47 A 28 28 0 0 0 176 140 A 28 28 0 0 0 148 112 z "/>
</svg>
