<?xml version='1.0' encoding='utf-8'?>
<svg xmlns="http://www.w3.org/2000/svg" width="192" height="192" version="1" id="svg22">
  <defs>
    <filter style="color-interpolation-filters:sRGB" id="filter869" x="0.13" width="1.26" y="0.03" height="1.06">
      <feGaussianBlur stdDeviation="1.76"/>
    </filter>
    <filter style="color-interpolation-filters:sRGB" id="filter885" x="0.13" width="1.26" y="0.03" height="1.06">
      <feGaussianBlur stdDeviation="1.76"/>
    </filter>
    <filter style="color-interpolation-filters:sRGB" id="filter901" x="0.04" width="1.08" y="0.06" height="1.11">
      <feGaussianBlur stdDeviation="2.20"/>
    </filter>
  </defs>
  <path style="fill:#8e8e8e" d="M 31.20,40 C 27.21,40 24,42.78 24,46.22 V 145.78 C 24,149.22 27.21,152 31.20,152 H 150 c 3.99,0 7.20,-2.78 7.20,-6.22 V 46.22 C 157.20,42.78 153.99,40 150,40 Z m 115.20,0 c -3.99,0 -7.20,2.78 -7.20,6.22 v 99.56 c 0,3.45 3.21,6.22 7.20,6.22 h 14.40 c 3.99,0 7.20,-2.78 7.20,-6.22 V 46.22 C 168,42.78 164.79,40 160.80,40 Z"/>
  <rect style="filter:url(#filter869);opacity:0.20" width="32" height="144" x="16" y="28" rx="8" ry="8"/>
  <rect style="filter:url(#filter885);opacity:0.20" width="32" height="144" x="144" y="28" rx="8" ry="8"/>
  <rect style="fill:#ff9205" width="32" height="144" x="16" y="24" rx="8" ry="8"/>
  <rect style="fill:#00c1ee" width="32" height="144" x="144" y="24" rx="8" ry="8"/>
  <path style="fill:none;stroke:#3f3f3f;stroke-width:16;stroke-linecap:round;stroke-linejoin:round" d="m 96.00,64 v 60 m 0,-60 -48,60 H 144 Z"/>
  <path style="filter:url(#filter901);opacity:0.20" d="M 96,50 A 16,16 0 0 0 80,66 16,16 0 0 0 96,82 16,16 0 0 0 112,66 16,16 0 0 0 96,50 Z m -48,60 a 16,16 0 0 0 -16,16 16,16 0 0 0 16,16 16,16 0 0 0 16,-16 16,16 0 0 0 -16,-16 z m 48,0 a 16,16 0 0 0 -16,16 16,16 0 0 0 16,16 16,16 0 0 0 16,-16 16,16 0 0 0 -16,-16 z m 48,0 a 16,16 0 0 0 -16,16 16,16 0 0 0 16,16 16,16 0 0 0 16,-16 16,16 0 0 0 -16,-16 z"/>
  <path style="fill:#ffffff" d="M 96,48 A 16,16 0 0 0 80,64 16,16 0 0 0 96,80 16,16 0 0 0 112,64 16,16 0 0 0 96,48 Z m -48,60 a 16,16 0 0 0 -16,16 16,16 0 0 0 16,16 16,16 0 0 0 16,-16 16,16 0 0 0 -16,-16 z m 48,0 a 16,16 0 0 0 -16,16 16,16 0 0 0 16,16 16,16 0 0 0 16,-16 16,16 0 0 0 -16,-16 z m 48,0 a 16,16 0 0 0 -16,16 16,16 0 0 0 16,16 16,16 0 0 0 16,-16 16,16 0 0 0 -16,-16 z"/>
  <path style="opacity:0.10;fill:#ffffff" d="M 24 24 C 19.57 24 16 27.57 16 32 L 16 33 C 16 28.57 19.57 25 24 25 L 40 25 C 44.43 25 48 28.57 48 33 L 48 32 C 48 27.57 44.43 24 40 24 L 24 24 z "/>
  <path style="opacity:0.10;fill:#ffffff" d="M 152 24 C 147.57 24 144 27.57 144 32 L 144 33 C 144 28.57 147.57 25 152 25 L 168 25 C 172.43 25 176 28.57 176 33 L 176 32 C 176 27.57 172.43 24 168 24 L 152 24 z "/>
</svg>
