<?xml version='1.0' encoding='utf-8'?>
<svg xmlns="http://www.w3.org/2000/svg" width="192" height="192" version="1" id="svg28">
  <defs>
    <filter style="color-interpolation-filters:sRGB" id="filter6495" x="0.05" y="0.05" width="1.10" height="1.10">
      <feGaussianBlur stdDeviation="3.20"/>
    </filter>
    <filter style="color-interpolation-filters:sRGB" id="filter17088" x="0.08" y="0.07" width="1.15" height="1.15">
      <feGaussianBlur stdDeviation="3.05"/>
    </filter>
  </defs>
  <rect transform="matrix(0,-1,-1,0,0,0)" ry="12" rx="12" y="-176" x="-180" height="160" width="160" style="filter:url(#filter6495);opacity:0.20;fill:#000000"/>
  <rect transform="matrix(0,-1,-1,0,0,0)" ry="12" rx="12" y="-176" x="-176" height="160" width="160" style="fill:#e4e4e4"/>
  <path style="opacity:0.20;fill:#ffffff" d="m 28,16 c -6.65,0 -12,5.35 -12,12 v 1 c 0,-6.65 5.35,-12 12,-12 h 136 c 6.65,0 12,5.35 12,12 v -1 c 0,-6.65 -5.35,-12 -12,-12 z"/>
  <path style="fill:#229e9d;color:#000000" d="M 81 54 L 81 58 L 106 58 L 106 81 L 56 81 L 56 56 L 52 56 L 52 85 L 79 85 L 79 108 L 54 108 L 54 112 L 79 112 L 79 136 L 54 136 L 54 140 L 83 140 L 83 111 L 83 85 L 106 85 L 106 110 L 108 110 L 108 111 L 106 111 L 106 140 L 135 140 L 135 136 L 110 136 L 110 112 L 135 112 L 135 108 L 110 108 L 110 81 L 110 54 L 81 54 z "/>
  <path style="fill:#3f3f3f;color:#000000" d="m 127,54 v 4 h 6 v 38 h 4 V 54 Z"/>
  <path style="filter:url(#filter17088);opacity:0.20;fill:#000000" d="M 46,50 V 66 H 62 V 50 Z m 27,0 V 66 H 89 V 50 Z m -27,54 v 16 h 16 v -16 z m 54,0 v 16 h 16 v -16 z m 27,0 v 16 h 16 v -16 z m -81,28 v 16 h 16 v -16 z m 81,0 v 16 h 16 v -16 z"/>
  <path style="fill:#00d6d6" d="M 46 48 L 46 64 L 62 64 L 62 48 L 46 48 z M 73 48 L 73 64 L 89 64 L 89 48 L 73 48 z M 46 102 L 46 118 L 62 118 L 62 102 L 46 102 z M 127 102 L 127 118 L 143 118 L 143 102 L 127 102 z M 46 130 L 46 146 L 62 146 L 62 130 L 46 130 z M 127 130 L 127 146 L 143 146 L 143 130 L 127 130 z "/>
  <path style="fill:#3f3f3f" d="m 100,102 h 16 v 16 h -16 z"/>
</svg>
