<?xml version='1.0' encoding='utf-8'?>
<svg xmlns:xlink="http://www.w3.org/1999/xlink" xmlns="http://www.w3.org/2000/svg" width="192" height="192" version="1" id="svg28">
  <defs>
    <linearGradient id="linearGradient4344">
      <stop style="stop-color:#ffffff;stop-opacity:0" offset="0"/>
      <stop style="stop-color:#ffffff;stop-opacity:0" offset="0.33"/>
      <stop style="stop-color:#ffffff;stop-opacity:1" offset="1"/>
    </linearGradient>
    <filter style="color-interpolation-filters:sRGB" id="filter6495" x="0.05" y="0.05" width="1.10" height="1.10">
      <feGaussianBlur stdDeviation="3.20"/>
    </filter>
    <radialGradient xlink:href="#linearGradient4344" id="radialGradient4346" cx="96.00" cy="96.50" fx="95.999998" fy="96.500029" r="60.00" gradientTransform="matrix(1,0,0,0.9916609,0,0.80472332)" gradientUnits="userSpaceOnUse"/>
    <filter style="color-interpolation-filters:sRGB" id="filter5022" x="0.07" y="0.08" width="1.15" height="1.15">
      <feGaussianBlur stdDeviation="3.73"/>
    </filter>
  </defs>
  <rect transform="matrix(0,-1,-1,0,0,0)" ry="12" rx="12" y="-176" x="-180" height="160" width="160" style="filter:url(#filter6495);opacity:0.20;fill:#000000"/>
  <rect transform="matrix(0,-1,-1,0,0,0)" ry="12" rx="12" y="-176" x="-176" height="160" width="160" style="fill:#3f3f3f"/>
  <path style="filter:url(#filter5022);opacity:0.20;fill:#000000" d="m 58.56,39.06 a 3,3 0 0 0 -2.25,0.46 3,3 0 0 0 0.80,4.17 l 29.40,43.32 -44.25,-29.50 a 3,3 0 0 0 -4.16,0.83 3,3 0 0 0 0.83,4.16 L 81.94,92.23 39.57,84.06 a 3,3 0 0 0 -3.51,2.38 3,3 0 0 0 2.38,3.51 l 41.88,8.08 -40.88,8.03 a 3,3 0 0 0 -2.37,3.52 3,3 0 0 0 3.52,2.37 l 41.25,-8.10 -44.50,29.66 a 3,3 0 0 0 0.83,4.16 3,3 0 0 0 4.16,0.83 l 44.25,-29.50 -29.40,43.32 a 3,3 0 0 0 0.80,4.17 3,3 0 0 0 4.17,0.80 l 29.81,-43.93 -8.24,42.68 a 3,3 0 0 0 2.38,3.51 3,3 0 0 0 3.51,-2.38 L 96,113.83 l 8.05,41.74 a 3,3 0 0 0 3.51,2.38 3,3 0 0 0 2.38,-3.51 l -8.24,-42.68 29.81,43.93 a 3,3 0 0 0 4.17,0.80 3,3 0 0 0 0.80,-4.17 l -29.40,-43.32 44.25,29.50 a 3,3 0 0 0 4.16,0.83 3,3 0 0 0 0.83,-4.16 l -44.50,-29.66 41.25,8.10 a 3,3 0 0 0 3.52,-2.37 3,3 0 0 0 -2.37,-3.52 l -40.88,-8.03 41.88,-8.08 a 3,3 0 0 0 2.38,-3.51 3,3 0 0 0 -3.51,-2.38 l -42.37,8.18 44.60,-29.74 a 3,3 0 0 0 0.83,-4.16 3,3 0 0 0 -4.16,0.83 l -44.25,29.50 29.40,-43.32 a 3,3 0 0 0 0.80,-4.17 3,3 0 0 0 -2.25,0.46 3,3 0 0 0 -1.92,1.26 l -29.74,43.82 8.16,-41.56 a 3,3 0 0 0 -2.37,-3.52 3,3 0 0 0 -3.52,2.37 L 96,82.44 87.94,41.42 a 3,3 0 0 0 -3.52,-2.37 3,3 0 0 0 -2.37,3.52 l 8.16,41.56 -29.74,-43.82 a 3,3 0 0 0 -1.92,-1.26 z"/>
  <path style="opacity:0.10;fill:#ffffff" d="m 28,16 c -6.65,0 -12,5.35 -12,12 v 1 c 0,-6.65 5.35,-12 12,-12 h 136 c 6.65,0 12,5.35 12,12 v -1 c 0,-6.65 -5.35,-12 -12,-12 z"/>
  <path style="fill:url(#radialGradient4346)" d="M 58.56 37.05 A 3 3 0 0 0 56.32 37.52 A 3 3 0 0 0 55.52 41.68 L 84.91 85.00 L 40.66 55.50 A 3 3 0 0 0 36.50 56.34 A 3 3 0 0 0 37.34 60.50 L 81.94 90.23 L 39.57 82.05 A 3 3 0 0 0 36.05 84.43 A 3 3 0 0 0 38.43 87.95 L 80.31 96.03 L 39.42 104.06 A 3 3 0 0 0 37.06 107.58 A 3 3 0 0 0 40.58 109.94 L 81.83 101.84 L 37.34 131.50 A 3 3 0 0 0 36.50 135.66 A 3 3 0 0 0 40.66 136.50 L 84.91 107.00 L 55.52 150.32 A 3 3 0 0 0 56.32 154.48 A 3 3 0 0 0 60.48 153.68 L 90.29 109.76 L 82.05 152.43 A 3 3 0 0 0 84.43 155.95 A 3 3 0 0 0 87.95 153.57 L 96 111.83 L 104.05 153.57 A 3 3 0 0 0 107.57 155.95 A 3 3 0 0 0 109.95 152.43 L 101.71 109.76 L 131.52 153.68 A 3 3 0 0 0 135.68 154.48 A 3 3 0 0 0 136.48 150.32 L 107.09 107.00 L 151.34 136.50 A 3 3 0 0 0 155.50 135.66 A 3 3 0 0 0 154.66 131.50 L 110.17 101.84 L 151.42 109.94 A 3 3 0 0 0 154.94 107.58 A 3 3 0 0 0 152.58 104.06 L 111.69 96.03 L 153.57 87.95 A 3 3 0 0 0 155.95 84.43 A 3 3 0 0 0 152.43 82.05 L 110.06 90.23 L 154.66 60.50 A 3 3 0 0 0 155.50 56.34 A 3 3 0 0 0 151.34 55.50 L 107.09 85.00 L 136.48 41.68 A 3 3 0 0 0 135.68 37.52 A 3 3 0 0 0 133.44 37.05 A 3 3 0 0 0 131.52 38.32 L 101.78 82.14 L 109.94 40.58 A 3 3 0 0 0 107.58 37.06 A 3 3 0 0 0 104.06 39.42 L 96 80.44 L 87.94 39.42 A 3 3 0 0 0 84.42 37.06 A 3 3 0 0 0 82.06 40.58 L 90.22 82.14 L 60.48 38.32 A 3 3 0 0 0 58.56 37.05 z "/>
</svg>
