<?xml version='1.0' encoding='utf-8'?>
<svg xmlns="http://www.w3.org/2000/svg" width="192" height="192" version="1.1" id="svg26">
  <defs>
    <filter style="color-interpolation-filters:sRGB" id="filter858" x="0.05" y="0.05" width="1.10" height="1.10">
      <feGaussianBlur stdDeviation="1.60"/>
    </filter>
    <filter style="color-interpolation-filters:sRGB" id="filter862" x="0.04" y="0.07" width="1.07" height="1.14">
      <feGaussianBlur stdDeviation="2.40"/>
    </filter>
    <filter style="color-interpolation-filters:sRGB" id="filter866" x="0.07" y="0.04" width="1.13" height="1.07">
      <feGaussianBlur stdDeviation="2.24"/>
    </filter>
    <filter style="color-interpolation-filters:sRGB" id="filter870" x="0.06" y="0.04" width="1.12" height="1.08">
      <feGaussianBlur stdDeviation="0.80"/>
    </filter>
  </defs>
  <circle cx="96" cy="139" r="40" style="filter:url(#filter858);opacity:0.20"/>
  <circle cx="96" cy="136" r="40" style="fill:#fecd38"/>
  <path d="m 96,20 c 16,0 40,40 40,112 0,32 -40,32 -40,32 0,0 -40,0 -40,-32 C 56,60 80,20 96,20 Z" style="filter:url(#filter866);opacity:0.20"/>
  <path d="m 56,140 h 80 c 0,0 40,-8 40,-24 0,-40 -56,-56 -56,-56 H 72 c 0,0 -56,16 -56,56 0,16 40,24 40,24 z" style="filter:url(#filter862);opacity:0.20"/>
  <path d="m 56,136 h 80 c 0,0 40,-8 40,-24 0,-40 -56,-56 -56,-56 H 72 c 0,0 -56,16 -56,56 0,16 40,24 40,24 z" style="fill:#3ad74a"/>
  <path style="opacity:0.20;fill:#ffffff" d="M 72 56 C 72 56 16 72 16 112 C 16 112.09 16.02 112.18 16.03 112.28 C 16.71 72.81 72 57 72 57 L 120 57 C 120 57 175.29 72.81 175.97 112.28 C 175.98 112.18 176 112.09 176 112 C 176 72 120 56 120 56 L 72 56 z "/>
  <path d="m 96,16 c 16,0 40,40 40,112 0,32 -40,32 -40,32 0,0 -40,0 -40,-32 C 56,56 80,16 96,16 Z" style="fill:#c2352a"/>
  <ellipse cx="96" cy="114" rx="16" ry="24" style="filter:url(#filter870);opacity:0.20"/>
  <ellipse cx="96" cy="112" rx="16" ry="24" style="fill:#4789d2"/>
  <path style="opacity:0.20;fill:#ffffff" d="M 96 16 C 80 16 56 56 56 128 C 56 128.04 56.01 128.08 56.01 128.12 C 56.21 56.68 80.07 17 96 17 C 111.93 17 135.79 56.68 135.99 128.12 C 135.99 128.08 136 128.04 136 128 C 136 56 112 16 96 16 z "/>
</svg>
