<?xml version='1.0' encoding='utf-8'?>
<svg xmlns="http://www.w3.org/2000/svg" width="192" height="192" version="1" id="svg40">
  <defs>
    <filter style="color-interpolation-filters:sRGB" id="filter1019" x="0.05" y="0.05" width="1.10" height="1.10">
      <feGaussianBlur stdDeviation="3.20"/>
    </filter>
    <filter style="color-interpolation-filters:sRGB" id="filter1023" x="0.05" y="0.05" width="1.10" height="1.10">
      <feGaussianBlur stdDeviation="0.56"/>
    </filter>
  </defs>
  <rect fill="#c2352a" width="160" height="160" x="16" y="20" rx="8" ry="8" style="filter:url(#filter1019);opacity:0.20;fill:#000000"/>
  <rect fill="#c2352a" width="160" height="160" x="16" y="16" rx="8" ry="8"/>
  <path style="opacity:0.20;fill:#ffffff" d="M 24 16 C 19.57 16 16 19.57 16 24 L 16 25 C 16 20.57 19.57 17 24 17 L 168 17 C 172.43 17 176 20.57 176 25 L 176 24 C 176 19.57 172.43 16 168 16 L 24 16 z "/>
  <g opacity="0.20" transform="matrix(4,0,0,4,0,2)" style="filter:url(#filter1023)">
    <rect width="2.12" height="2.12" x="34.30" y="-1.77" transform="rotate(45)"/>
    <path d="m 30,10 -2,8 h -5 l -2,-8 z"/>
    <rect width="5" height="2" x="23" y="19"/>
    <path d="m 11,29 8,-2 v -5 l -8,-2 z"/>
    <rect width="5" height="2" x="22" y="20" transform="matrix(0,1,1,0,0,0)"/>
    <path d="m 32.36,38 -4.24,-7.07 3.54,-3.54 7.07,4.24 z"/>
    <rect width="5" height="2" x="-3.02" y="-40.76" transform="rotate(135)"/>
  </g>
  <g fill="#ffffff" transform="scale(4)">
    <rect width="2.12" height="2.12" x="34.30" y="-1.77" transform="rotate(45)"/>
    <path d="m 30,10 -2,8 h -5 l -2,-8 z"/>
    <rect width="5" height="2" x="23" y="19"/>
    <path d="m 11,29 8,-2 v -5 l -8,-2 z"/>
    <rect width="5" height="2" x="22" y="20" transform="matrix(0,1,1,0,0,0)"/>
    <path d="m 32.36,38 -4.24,-7.07 3.54,-3.54 7.07,4.24 z"/>
    <rect width="5" height="2" x="-3.02" y="-40.76" transform="rotate(135)"/>
  </g>
</svg>
