<svg xmlns="http://www.w3.org/2000/svg" id="svg10" width="192" height="192" version="1"><defs><filter style="color-interpolation-filters:sRGB" id="filter841" width="1.08" height="1.11" x=".04" y=".06"><feGaussianBlur stdDeviation="2.8"/></filter></defs><path style="filter:url(#filter841);opacity:.2" d="m 82.00,40.00 0.10,0.07 C 73.23,39.53 64.06,44.71 61.41,55.08 37.43,62.86 21.96,78.96 21.96,78.96 c -5.48,5.40 -7.37,13.47 -4.88,20.74 0,0 11.75,34.67 44.84,46.88 2.80,8.02 10.36,13.40 18.85,13.41 H 156.00 C 167.05,160.00 176.00,151.05 176,140.00 V 60.00 C 176.00,48.95 167.05,40.00 156.00,40.00 Z"/><path style="fill:#4ca341" d="m 82.00,36.00 0.10,0.07 C 73.23,35.53 64.06,40.71 61.41,51.08 37.43,58.86 21.96,74.96 21.96,74.96 c -5.48,5.40 -7.37,13.47 -4.88,20.74 0,0 11.75,34.67 44.84,46.88 2.80,8.02 10.36,13.40 18.85,13.41 H 156.00 C 167.05,156.00 176.00,147.05 176,136.00 V 56.00 C 176.00,44.95 167.05,36.00 156.00,36.00 Z"/><path fill="#262626" d="m 48.26,90.44 c 0,0 10.85,-16.13 32.51,-17.80 v -5.85 c -24.00,1.94 -44.77,22.42 -44.77,22.42 0,0 11.77,34.28 44.77,37.41 v -6.22 C 56.55,117.33 48.26,90.44 48.26,90.44 Z m 32.51,17.59 v 5.70 C 62.47,110.44 57.39,91.27 57.39,91.27 c 0,0 8.79,-9.81 23.39,-11.40 v 6.25 c 0.01,0 0.02,0.00 0.02,0.00 -7.66,0.93 -13.65,6.28 -13.65,6.28 0,0 3.35,12.14 13.67,15.63 m 0,-52.03 v 10.79 c 0.70,0.05 1.41,0.10 2.12,0.12 27.28,0.93 45.05,22.54 45.05,22.54 0,0 -20.41,25.01 -41.68,25.01 -1.95,0 -3.77,0.18 -5.49,0.49 v 6.67 c 1.47,0.19 2.99,0.30 4.57,0.30 19.79,0 34.10,-10.18 47.96,-22.24 2.30,1.85 11.70,6.36 13.64,8.34 -13.18,11.11 -43.89,20.07 -61.30,20.07 -1.68,0 -3.29,0.10 -4.87,0.26 V 136.00 H 156.00 V 56.00 H 80.78 Z m 0,23.87 v -7.23 c 0.70,0.04 1.40,0.09 2.12,0.11 19.62,0.62 32.49,16.98 32.49,16.98 0,0 -13.90,19.45 -28.80,19.45 -2.14,0 -4.07,0.35 -5.80,0.93 V 86.12 c 7.64,0.93 9.17,4.33 13.76,12.04 l 10.21,-8.67 c 0,0 -7.45,-9.85 -20.02,-9.85 -1.37,0.00 -2.67,0.10 -3.96,0.23"/><path style="opacity:.2;fill:#fff" d="M 82 36 L 82.10 36.07 C 73.23 35.54 64.06 40.71 61.41 51.08 C 37.43 58.86 21.96 74.96 21.96 74.96 C 18.01 78.86 15.98 84.14 16.07 89.51 C 16.24 84.48 18.26 79.61 21.96 75.96 C 21.96 75.96 37.43 59.86 61.41 52.08 C 64.06 41.71 73.23 36.54 82.10 37.07 L 82 37 L 156 37 C 167.05 37.00 176.00 45.95 176 57 L 176 56 C 176.00 44.95 167.05 36.00 156 36 L 82 36 z"/></svg>