<?xml version='1.0' encoding='utf-8'?>
<svg xmlns="http://www.w3.org/2000/svg" width="192" height="192" version="1" id="svg28">
  <defs>
    <filter style="color-interpolation-filters:sRGB" id="filter886" x="0.05" width="1.10" y="0.05" height="1.10">
      <feGaussianBlur stdDeviation="3.20"/>
    </filter>
    <filter style="color-interpolation-filters:sRGB" id="filter904" x="0.05" width="1.10" y="0.05" height="1.10">
      <feGaussianBlur stdDeviation="1.92"/>
    </filter>
    <filter style="color-interpolation-filters:sRGB" id="filter923" x="0.05" width="1.10" y="0.05" height="1.10">
      <feGaussianBlur stdDeviation="2.27"/>
    </filter>
  </defs>
  <path style="filter:url(#filter886);opacity:0.20;fill:#000000" d="m 20,16.00 c -4.43,0 -8,3.57 -8,8 v 72 72.00 c 0,4.43 3.57,8 8,8 h 72 54.83 l 11.87,-8.70 c 3.57,-2.62 0.06,-5.89 3.08,-9.14 L 172,147.18 v -51.18 -72 c 0,-4.43 -3.57,-8 -8,-8 H 92 Z"/>
  <path style="opacity:0.10;fill:#ffffff" d="m 20,12 c -4.43,0 -8,3.57 -8,8 v 4 c 0,-4.43 3.57,-8 8,-8 h 144 c 4.43,0 8,3.57 8,8 v -4 c 0,-4.43 -3.57,-8 -8,-8 z"/>
  <path d="m 92,12 v 80 h 80 V 20 c 0,-4.43 -3.57,-8 -8,-8 z" style="fill:#474b4e"/>
  <path d="m 20,172 c -4.43,0 -8,-3.57 -8,-8 V 92 h 80 v 80 z" style="fill:#676a6f"/>
  <path d="M 12,92 V 20 c 0,-4.43 3.57,-8 8,-8 h 72 v 80 z" style="fill:#898f94"/>
  <path d="m 158.70,163.30 c 3.57,-2.62 0.06,-5.89 3.08,-9.14 L 172,143.18 V 92 H 92 v 80 h 54.83 z" style="fill:#666666"/>
  <circle style="filter:url(#filter904);opacity:0.20;fill:#000000" cx="132" cy="136" r="48"/>
  <circle r="48" cy="132" cx="132" style="fill:#4788f4"/>
  <path d="m 48,38.00 v 12 H 36 v 8 h 12 v 12 h 8 v -12 h 12 v -8 H 56 v -12 z m 68,12 v 8 h 32 v -8 z m -76,66.34 -5.66,5.66 12.00,12 -12.00,12 L 40,151.66 l 12,-12 12,12 5.66,-5.66 -12,-12 12,-12 L 64,116.34 l -12,12 z" style="filter:url(#filter923);opacity:0.20"/>
  <path d="M 48,36 V 48 H 36 v 8 h 12 v 12 h 8 V 56 H 68 V 48 H 56 V 36 Z m 68,12 v 8 h 32 V 48 Z M 40,114.34 34.34,120 46.34,132 34.34,144 40,149.66 l 12,-12 12,12 5.66,-5.66 -12,-12 12,-12 L 64,114.34 l -12,12 z" style="fill:#ffffff"/>
  <path style="fill:#ffffff" d="m 116,120 v 8 h 32 v -8 z m 0,16 v 8 h 32 v -8 z"/>
  <path style="opacity:0.10;fill:#ffffff" d="M 20 12 C 15.57 12 12 15.57 12 20 L 12 21 C 12 16.57 15.57 13 20 13 L 164 13 C 168.43 13 172 16.57 172 21 L 172 20 C 172 15.57 168.43 12 164 12 L 20 12 z "/>
</svg>
