<?xml version='1.0' encoding='utf-8'?>
<svg xmlns="http://www.w3.org/2000/svg" width="192" height="192" version="1" id="svg18">
  <defs>
    <filter style="color-interpolation-filters:sRGB" id="filter853" x="-0.054400001" width="1.1088" y="-0.042947369" height="1.0858947">
      <feGaussianBlur stdDeviation="2.72"/>
    </filter>
    <filter style="color-interpolation-filters:sRGB" id="filter869" x="-0.032571428" width="1.0651429" y="-0.091199999" height="1.1824">
      <feGaussianBlur stdDeviation="2.28"/>
    </filter>
  </defs>
  <rect transform="matrix(0,-1,-1,0,0,0)" ry="7.5999999" rx="7.5" y="-172" x="-160" height="152" width="120" style="filter:url(#filter853);opacity:0.2"/>
  <rect transform="matrix(0,-1,-1,0,0,0)" ry="7.5999999" rx="7.5" y="-172" x="-156" height="152" width="120" style="fill:#0fa0e6"/>
  <path d="m 18,78 c -3.324,0 -6,2.676 -6,6 v 48 c 0,3.324 2.676,6 6,6 h 20 c 3.324,0 6,-2.676 6,-6 V 84 c 0,-3.324 -2.676,-6 -6,-6 z m 40,0 c -3.324,0 -6,2.676 -6,6 v 48 c 0,3.324 2.676,6 6,6 h 76 c 3.324,0 6,-2.676 6,-6 V 84 c 0,-3.324 -2.676,-6 -6,-6 z m 96,0 c -3.324,0 -6,2.676 -6,6 v 48 c 0,3.324 2.676,6 6,6 h 20 c 3.324,0 6,-2.676 6,-6 V 84 c 0,-3.324 -2.676,-6 -6,-6 z" style="filter:url(#filter869);opacity:0.2"/>
  <rect ry="6" rx="6" y="76" x="12" height="60" width="32" style="fill:#e4e4e4"/>
  <rect ry="6" rx="6" y="76" x="148" height="60" width="32" style="fill:#e4e4e4"/>
  <rect ry="6" rx="6" y="76" x="52" height="60" width="88" style="fill:#e4e4e4"/>
  <path style="opacity:0.2;fill:#ffffff" d="M 27.601562 36 C 23.391163 36 20 39.345 20 43.5 L 20 44.5 C 20 40.345 23.391163 37 27.601562 37 L 164.39844 37 C 168.60884 37 172 40.345 172 44.5 L 172 43.5 C 172 39.345 168.60884 36 164.39844 36 L 27.601562 36 z "/>
</svg>
