<?xml version='1.0' encoding='utf-8'?>
<svg xmlns="http://www.w3.org/2000/svg" width="192" height="192" version="1.1" id="svg20">
  <defs>
    <filter style="color-interpolation-filters:sRGB" id="filter2817" x="0.05" y="0.05" width="1.09" height="1.10">
      <feGaussianBlur stdDeviation="3.03"/>
    </filter>
  </defs>
  <path style="filter:url(#filter2817);opacity:0.20;fill:#000000;stop-color:#000000" d="M 59.50,28 A 43.50,43.50 0 0 0 16,71.50 43.50,43.50 0 0 0 59.50,115 43.50,43.50 0 0 0 103,71.50 43.50,43.50 0 0 0 59.50,28 Z M 164,57 a 11,11 0 0 0 -11,11 11,11 0 0 0 11,11 11,11 0 0 0 11,-11 11,11 0 0 0 -11,-11 z m -33,14 a 22,22 0 0 0 -22,22 22,22 0 0 0 22,22 22,22 0 0 0 22,-22 22,22 0 0 0 -22,-22 z m 0.50,50 A 25.50,25.50 0 0 0 106,146.50 25.50,25.50 0 0 0 131.50,172 25.50,25.50 0 0 0 157,146.50 25.50,25.50 0 0 0 131.50,121 Z"/>
  <circle style="fill:#4286f5;stop-color:#000000" cx="59.50" cy="67.50" r="43.50"/>
  <circle style="fill:#f9bd05;stop-color:#000000" cx="131.50" cy="142.50" r="25.50"/>
  <circle style="fill:#ea4235;stop-color:#000000" cx="131" cy="89" r="22"/>
  <circle style="fill:#32a854;stop-color:#000000" cx="164" cy="64" r="11"/>
  <path style="opacity:0.20;fill:#ffffff;stop-color:#000000" d="M 59.50 24 A 43.50 43.50 0 0 0 16 67.50 A 43.50 43.50 0 0 0 16.05 68 A 43.50 43.50 0 0 1 59.50 25 A 43.50 43.50 0 0 1 102.97 67.75 A 43.50 43.50 0 0 0 103 67.50 A 43.50 43.50 0 0 0 59.50 24 z M 164 53 A 11 11 0 0 0 153 64 A 11 11 0 0 0 153.10 64.50 A 11 11 0 0 1 164 54 A 11 11 0 0 1 174.95 64.25 A 11 11 0 0 0 175 64 A 11 11 0 0 0 164 53 z M 131 67 A 22 22 0 0 0 109 89 A 22 22 0 0 0 109.07 89.50 A 22 22 0 0 1 131 68 A 22 22 0 0 1 152.96 89.26 A 22 22 0 0 0 153 89 A 22 22 0 0 0 131 67 z M 131.50 117 A 25.50 25.50 0 0 0 106 142.50 A 25.50 25.50 0 0 0 106.06 143 A 25.50 25.50 0 0 1 131.50 118 A 25.50 25.50 0 0 1 156.97 142.77 A 25.50 25.50 0 0 0 157 142.50 A 25.50 25.50 0 0 0 131.50 117 z "/>
</svg>
