<?xml version='1.0' encoding='utf-8'?>
<svg xmlns="http://www.w3.org/2000/svg" width="192" height="192" version="1" id="svg22">
  <defs>
    <filter style="color-interpolation-filters:sRGB" id="filter856" x="-0.0378" width="1.0756" y="-0.06573913" height="1.1314783">
      <feGaussianBlur stdDeviation="2.52"/>
    </filter>
    <filter style="color-interpolation-filters:sRGB" id="filter892" x="-0.04098516" width="1.0819703" y="-0.057911954" height="1.1158239">
      <feGaussianBlur stdDeviation="1.6427235"/>
    </filter>
  </defs>
  <path d="M 16.390625,84 C 16.155153,85.213404 16,86.506476 16,88 v 80 c 0,2.5959 1.243666,4.87619 3.148438,6.33594 0.0074,0.006 0.016,0.01 0.02344,0.0156 0.287636,0.21884 0.589692,0.41494 0.906249,0.59374 0.09919,0.0568 0.202956,0.1036 0.304688,0.15624 0.272784,0.13892 0.545991,0.26752 0.835938,0.375 0.215768,0.0819 0.439699,0.14 0.664062,0.20312 0.21648,0.0593 0.424923,0.13064 0.648438,0.17188 C 23.007011,175.94206 23.495741,176 24,176 h 72 72 c 0.50426,0 0.99299,-0.058 1.46875,-0.14844 0.22352,-0.0412 0.43196,-0.11256 0.64844,-0.17188 0.22436,-0.0631 0.44829,-0.12124 0.66406,-0.20312 0.28996,-0.10748 0.56315,-0.23608 0.83594,-0.375 0.10172,-0.0526 0.20548,-0.0995 0.30468,-0.15624 0.31656,-0.1788 0.61861,-0.37492 0.90625,-0.59375 0.008,-0.006 0.016,-0.01 0.0236,-0.0156 C 174.75634,172.87619 176,170.5959 176,168 V 88 c 0,-1.493524 -0.15516,-2.786596 -0.39064,-4 L 96,129.96094 Z" style="filter:url(#filter856);opacity:0.2"/>
  <path d="m 96,20 c -3.78788,0 -7.575848,1.072514 -10.4375,3.21875 L 27.335936,66.882812 C 20.448226,71.811868 17.085439,74.942504 16.22646,80.67 c -0.152892,1.019464 2.202884,3.116248 2.25801,4.323788 l 3.478261,76.190472 c 0.20212,4.42739 -1.230475,7.29609 3.196688,7.50311 l 69.846793,0.49689 68.687368,1.15942 c 4.43137,0.0748 7.27899,-1.91735 7.50311,-6.34368 l 3.97515,-78.509316 c 0.064,-1.263756 0.74756,-3.904116 0.57972,-4.963288 -0.89326,-5.637176 -4.25715,-8.756588 -11.08748,-13.644584 L 106.4375,23.21875 C 103.57585,21.072514 99.78788,20 96,20 Z" style="fill:#3f70d8"/>
  <path d="m 96,20 c -3.78788,0 -7.575848,1.072514 -10.4375,3.21875 L 27.335936,66.882812 C 20.736997,71.605216 17.416454,74.713852 16.390623,80 H 175.60938 C 174.58354,74.713852 171.263,71.605216 164.66406,66.882812 L 106.4375,23.21875 C 103.57585,21.072514 99.78788,20 96,20 Z" style="opacity:0.1"/>
  <path style="filter:url(#filter892);opacity:0.2;fill:#000000;color:#000000;font-stretch:normal;font-variant-ligatures:normal;font-variant-position:normal;font-variant-caps:normal;font-variant-numeric:normal;font-variant-alternates:normal;font-feature-settings:normal;text-indent:0;text-align:start;text-decoration-line:none;text-decoration-style:solid;text-decoration-color:#000000;text-transform:none;writing-mode:lr-tb;direction:ltr;text-orientation:mixed;dominant-baseline:auto;baseline-shift:baseline;white-space:normal;shape-padding:0;clip-rule:nonzero;display:inline;overflow:visible;visibility:visible;isolation:auto;mix-blend-mode:normal;color-interpolation:sRGB;color-interpolation-filters:linearRGB;solid-color:#000000;solid-opacity:1;vector-effect:none;fill-rule:nonzero;color-rendering:auto;image-rendering:auto;shape-rendering:auto;text-rendering:auto;enable-background:accumulate" d="m 147.8418,33.923828 a 8.0008,8.0008 0 0 0 -5.49805,2.419922 L 96,82.6875 73.65625,60.34375 a 8.0008,8.0008 0 1 0 -11.3125,11.3125 l 28,28 a 8.0008,8.0008 0 0 0 11.3125,0 l 52,-52 A 8.0008,8.0008 0 0 0 147.8418,33.923828 Z"/>
  <path d="M 68,64 96,92 148,40" style="fill:none;stroke:#fcfcfc;stroke-width:16;stroke-linecap:round;stroke-linejoin:round"/>
  <path d="M 16.390624,80 172.85156,170.33594 C 171.5043,171.36843 169.8361,172 168,172 H 24 c -4.432,0 -8,-3.568 -8,-8 V 84 c 0,-1.493524 0.155152,-2.786596 0.390624,-4 z" style="fill:#33b9f6"/>
  <path style="opacity:0.1;fill:#ffffff" d="M 16.390625 80 C 16.155153 81.213404 16 82.506476 16 84 L 16 85 C 16 83.506476 16.155153 82.213404 16.390625 81 L 172.03516 170.86523 C 172.31957 170.70699 172.59381 170.53347 172.85156 170.33594 L 16.390625 80 z "/>
  <path d="M 175.60938,80 19.148436,170.33594 C 20.495696,171.36843 22.163898,172 23.999998,172 H 168 c 4.432,0 8,-3.568 8,-8 V 84 c 0,-1.493524 -0.15516,-2.786596 -0.39064,-4 z" style="fill:#84d5fa"/>
  <path style="opacity:0.2;fill:#ffffff" d="M 175.60938 80 L 19.148438 170.33594 C 19.406186 170.53347 19.680432 170.70699 19.964844 170.86523 L 175.60938 81 C 175.84486 82.213404 176 83.506476 176 85 L 176 84 C 176 82.506476 175.84486 81.213404 175.60938 80 z "/>
</svg>
