<svg xmlns="http://www.w3.org/2000/svg" id="svg41" width="192" height="192" version="1"><defs><filter style="color-interpolation-filters:sRGB" id="filter1922" width="1.11" height="1.09" x=".05" y=".04"><feGaussianBlur stdDeviation="2.16"/></filter><filter style="color-interpolation-filters:sRGB" id="filter1926" width="1.11" height="1.09" x=".05" y=".04"><feGaussianBlur stdDeviation="2.16"/></filter></defs><rect width="96" height="120" x="-132" y="-176" rx="6" ry="6" transform="matrix(0,-1,-1,0,0,0)" style="filter:url(#filter1922);opacity:.2;fill:#000"/><rect width="96" height="120" x="-128" y="-176" rx="6" ry="6" transform="matrix(0,-1,-1,0,0,0)" style="fill:#6d6d6d"/><rect width="78" height="102" x="-119" y="-167" rx="0" ry="0" transform="matrix(0,-1,-1,0,0,0)" style="fill:#fff"/><rect width="96" height="120" x="-163" y="-136" rx="6" ry="6" transform="matrix(0,-1,-1,0,0,0)" style="filter:url(#filter1926);opacity:.2;fill:#000"/><rect width="96" height="120" x="-159" y="-136" rx="6" ry="6" transform="matrix(0,-1,-1,0,0,0)" style="fill:#a5a5a5"/><rect width="78" height="102" x="-150" y="-127" rx="0" ry="0" transform="matrix(0,-1,-1,0,0,0)" style="fill:#fff"/><path style="fill:#dd4d3e" d="m 75.94,109 c -14.01,0 -26.26,7.18 -33.39,18.05 0.17,11.22 4.68,17.40 10.17,22.95 h 5.28 c 0.02,0.34 0.03,0.68 0.03,-1.02 0,-9.97 8.08,-12.88 17.97,-13.99 l 35.70,-4.00 C 105.08,117.92 91.60,109 75.94,109 Z"/><path style="fill:#109f5b" d="M 42.56,127.14 C 38.11,133.92 35.83,141.91 36.02,150 h 19.73 z"/><path style="fill:#ffce41" d="m 111.71,131.01 -35.17,0.01 c 2.90,0.08 5.80,0.83 8.50,2.39 4.61,2.66 4.18,7.92 5.20,12.73 0.28,1.33 0.76,2.61 1.20,3.86 h 24.55 c 0.16,-6.59 -1.32,-13.13 -4.27,-18.99 z"/><path style="fill:#fff" d="m 76,131 c -9.97,0 -18,8.03 -18,18 0,0.34 0.01,0.67 0.03,1 H 93.97 C 93.99,149.67 94,149.34 94,149 94,139.03 85.97,131 76,131 Z"/><path style="fill:#4587f3" d="m 76,135 c -7.76,0 -14,6.24 -14,14 0,0.34 0.02,0.67 0.04,1 H 89.96 C 89.98,149.67 90,149.34 90,149 90,141.24 83.76,135 76,135 Z"/><path style="opacity:.1;fill:#fff" d="M 62 32 C 58.68 32 56 34.68 56 38 L 56 39 C 56 35.68 58.68 33 62 33 L 170 33 C 173.32 33 176 35.68 176 39 L 176 38 C 176 34.68 173.32 32 170 32 L 62 32 z"/></svg>