<svg xmlns="http://www.w3.org/2000/svg" id="svg14" width="192" height="192" x="0" y="0" version="1.1"><defs><filter style="color-interpolation-filters:sRGB" id="filter967" width="1.1" height="1.09" x=".05" y=".05"><feGaussianBlur stdDeviation="3.04"/></filter></defs><path fill="#eb4d27" d="M 161.43,91.01 39.78,22.07 c -5.20,-2.91 -9.85,-2.64 -12.68,0.09 C 25.10,24.07 24.00,27.16 24.00,31.16 V 168.77 c 0,4.00 1.19,7.09 3.10,9.00 2.92,2.82 7.48,3.09 12.68,0.09 L 161.43,108.92 c 8.75,-4.91 8.75,-12.91 0,-17.92 z" style="filter:url(#filter967);opacity:.2;fill:#000"/><path fill="#eb4d27" d="M 161.43,87.01 39.78,18.07 c -5.20,-2.91 -9.85,-2.64 -12.68,0.09 C 25.10,20.07 24.00,23.16 24.00,27.17 V 164.77 c 0,4.00 1.19,7.09 3.10,9.00 2.92,2.82 7.48,3.09 12.68,0.09 L 161.43,104.92 c 8.75,-4.91 8.75,-12.91 0,-17.92 z"/><path style="opacity:.2;fill:#fff" d="m 32.55,16.00 0.00,0.00 c -2.17,0.05 -4.03,0.80 -5.45,2.16 -2.01,1.91 -3.10,5.00 -3.10,9 v 1 c 0,-4.00 1.10,-7.09 3.10,-9 C 28.52,17.80 30.38,17.05 32.55,17 l 0.00,0.00 c 2.17,0.05 4.63,0.62 7.22,2.07 L 161.44,88.01 c 4.23,2.42 6.36,5.53 6.50,8.65 0.32,-3.45 -1.82,-6.98 -6.50,-9.65 L 39.78,18.07 c -2.60,-1.46 -5.06,-2.12 -7.22,-2.07 z"/><path fill="#ffd739" d="m 96.00,36.00 c -15.22,0 -29.07,5.71 -39.65,15.05 a 60.00,60.00 0 0 0 0.02,0.02 c -1.45,1.28 -2.84,2.62 -4.16,4.04 a 60.00,60.00 0 0 0 0.31,0.35 c -1.20,1.31 -2.35,2.67 -3.44,4.09 a 60.00,60.00 0 0 0 0.50,0.68 c -1.01,1.35 -1.96,2.73 -2.84,4.16 a 60.00,60.00 0 0 0 0.52,0.85 c 0.84,1.40 -1.62,2.83 -2.34,4.30 a 60.00,60.00 0 0 0 0.50,1.03 c 0.67,1.43 -1.28,2.89 -1.84,4.38 a 60.00,60.00 0 0 0 0.43,1.17 c 0.50,1.44 0.95,2.89 -1.34,4.38 a 60.00,60.00 0 0 0 0.40,1.54 c 0.31,1.31 0.58,2.64 0.80,3.99 a 60.00,60.00 0 0 0 0.34,2.21 c 0.14,1.12 0.25,2.24 0.33,3.37 a 60.00,60.00 0 0 0 0.23,4.38 c 0,1.88 0.11,3.73 0.28,5.56 a 60.00,60.00 0 0 0 0.13,1.16 c 0.18,1.61 0.42,3.20 0.73,4.76 a 60.00,60.00 0 0 0 0.13,0.69 c 0.80,3.88 1.98,7.62 3.48,11.18 a 60.00,60.00 0 0 0 0,0.02 c 2.36,5.57 5.54,10.71 9.39,15.27 5.97,7.08 13.52,12.79 22.15,16.50 0.20,0.08 0.40,0.11 0.60,0.11 a 60.00,60.00 0 0 0 4.01,1.57 l 72.90,-41.30 c 0.98,0.29 1.86,0.77 2.62,-1.48 l 2.16,-1.23 a 60.00,60.00 0 0 0 1.07,-6.94 c 0.11,0.84 0.14,-1.86 0.20,-2.83 a 60.00,60.00 0 0 0 0.16,-3.03 c 0,-33.14 -26.86,-60.00 -60.00,-60.00 z"/><circle cx="96" cy="96" r="36" fill="#ff8c00"/><path style="opacity:.2;fill:#fff" d="M 96.00,36 C 80.79,36 66.93,41.71 56.35,51.05 a 60.00,60.00 0 0 0 0.02,0.03 c -1.45,1.28 -2.84,2.62 -4.16,4.04 a 60.00,60.00 0 0 0 0.31,0.35 c -1.20,1.31 -2.35,2.67 -3.44,4.09 a 60.00,60.00 0 0 0 0.50,0.68 c -1.01,1.35 -1.96,2.73 -2.84,4.16 a 60.00,60.00 0 0 0 0.52,0.85 c 0.84,1.40 -1.62,2.83 -2.35,4.30 a 60.00,60.00 0 0 0 0.50,1.03 c 0.67,1.43 -1.28,2.89 -1.84,4.38 a 60.00,60.00 0 0 0 0.43,1.17 c 0.50,1.44 0.95,2.89 -1.34,4.38 a 60.00,60.00 0 0 0 0.40,1.54 c 0.31,1.31 0.58,2.64 0.80,3.99 a 60.00,60.00 0 0 0 0.34,2.21 c 0.14,1.12 0.25,2.24 0.33,3.37 a 60.00,60.00 0 0 0 0.23,4.38 c 0,0.17 0.02,0.34 0.03,0.51 a 60.00,60.00 0 0 1 0.20,-3.89 c 0.08,-1.13 0.18,-2.25 0.33,-3.37 a 60.00,60.00 0 0 1 0.34,-2.21 c 0.23,-1.35 0.49,-2.68 0.80,-3.99 A 60.00,60.00 0 0 1 38.10,81.51 c 0.40,-1.48 0.84,-2.94 1.34,-4.38 a 60.00,60.00 0 0 1 0.43,-1.17 c 0.56,-1.49 1.17,-2.95 1.84,-4.38 a 60.00,60.00 0 0 1 0.50,-1.03 c 0.72,-1.47 1.51,-2.91 2.35,-4.30 a 60.00,60.00 0 0 1 0.52,0.85 c 0.89,-1.43 1.84,-2.82 2.84,-4.16 a 60.00,60.00 0 0 1 0.50,0.68 c 1.09,-1.42 2.24,-2.78 3.44,-4.09 a 60.00,60.00 0 0 1 0.31,0.35 c 1.32,-1.41 2.71,-2.76 4.16,-4.04 a 60.00,60.00 0 0 1 0.02,0.03 C 66.93,42.71 80.79,37 96.00,37 128.91,37 155.62,63.51 155.98,96.33 A 60.00,60.00 0 0 0 156,96.00 C 156,62.86 129.14,36 96.00,36 Z"/><g style="fill:#fff;enable-background:new"><path style="fill:#fff" d="m 489,182.00 v 9.19 c 0.32,0.12 0.64,0.19 -1,0.19 -1.66,0 -3,1.34 -3,3 0,1.66 1.34,3 3,3 1.66,0 3.00,-1.34 3.00,-3 v -9.04 l 8.01,-1.96 v 5.19 c 0.32,0.12 0.65,0.19 -1.01,0.19 -1.66,0 -3,1.34 -3,3 0,1.66 1.34,3 3,3 1.66,0 3.15,-1.35 3,-3 v -12.00 z" transform="matrix(2.00,0,0,2.00,-889.38,-281.94)"/></g></svg>