<?xml version='1.0' encoding='utf-8'?>
<svg xmlns="http://www.w3.org/2000/svg" width="192" height="192" version="1" id="svg16">
  <defs>
    <filter style="color-interpolation-filters:sRGB" id="filter851" x="0.05" width="1.10" y="0.05" height="1.10">
      <feGaussianBlur stdDeviation="3.20"/>
    </filter>
    <filter style="color-interpolation-filters:sRGB" id="filter3231" x="0.05" y="0.05" width="1.10" height="1.10">
      <feGaussianBlur stdDeviation="2.56"/>
    </filter>
    <filter style="color-interpolation-filters:sRGB" id="filter3278" x="0.05" y="0.04" width="1.10" height="1.09">
      <feGaussianBlur stdDeviation="1.78"/>
    </filter>
  </defs>
  <circle r="80" cy="100" cx="96" style="filter:url(#filter851);opacity:0.20"/>
  <circle r="80" cy="96" cx="96" style="fill:#4286f5"/>
  <circle style="filter:url(#filter3231);opacity:0.20;fill:#000000;stop-color:#000000" cx="96" cy="99.00" r="64"/>
  <circle style="fill:#ffffff;stop-color:#000000" cx="96" cy="96" r="64"/>
  <path style="filter:url(#filter3278);opacity:0.20;fill:#000000;color:#000000" d="m 95.83,50.00 c -12.57,0.04 -24.60,5.03 -33.53,13.83 l 0.01,0.01 c 0.10,0.10 0.18,0.20 0.28,0.30 0.16,0.16 0.33,0.31 0.49,0.48 l 0.02,0.02 C 49.85,76.69 45.28,94.05 49.61,110.34 c 4.43,16.65 17.47,29.67 34.12,34.07 16.65,4.40 34.42,0.48 46.50,-12.76 l -11.41,-11.21 c -8.06,8.21 -19.87,11.45 -31.00,8.51 -11.12,-2.94 -19.79,-11.59 -22.75,-22.71 -2.94,-11.03 0.22,-22.75 8.27,-30.82 5.97,-5.99 14.07,-9.38 22.54,-9.41 8.63,0.03 16.89,3.42 22.94,9.57 L 130.24,64.36 C 121.17,55.13 108.76,49.96 95.83,50.00 Z m 0.17,36 a 12,12 0 0 0 -12,12 12,12 0 0 0 12,12.00 12,12 0 0 0 12,-12.00 12,12 0 0 0 -12,-12 z"/>
  <path style="fill:#f9bb04;color:#000000" d="M 62.30,61.82 C 50.03,73.92 45.18,91.70 49.61,108.34 c 4.43,16.65 17.47,29.67 34.12,34.07 16.65,4.40 34.42,0.48 46.50,-12.76 l -11.41,-11.21 c -8.06,8.21 -19.87,11.45 -31.00,8.51 -11.12,-2.94 -19.79,-11.59 -22.75,-22.71 -2.96,-11.12 0.26,-22.94 8.46,-31.01 z"/>
  <path style="opacity:0.10;fill:#ffffff" d="M 96,16 A 80,80 0 0 0 16,96 80,80 0 0 0 16.02,96.47 80,80 0 0 1 96,17 80,80 0 0 1 175.97,96.51 80,80 0 0 0 176,96 80,80 0 0 0 96,16 Z"/>
  <path style="fill:#34a853;color:#000000" d="M 95.83,48 C 82.90,48.05 70.53,53.31 61.53,62.60 L 73.02,73.73 C 79.02,67.54 87.26,64.03 95.89,64 c 8.63,0.03 16.89,3.42 22.94,9.57 L 130.24,62.36 C 121.17,53.13 108.76,47.95 95.83,48 Z"/>
  <circle style="fill:#df372a;stop-color:#000000" cx="96" cy="96" r="12"/>
</svg>
