<?xml version='1.0' encoding='utf-8'?>
<svg xmlns="http://www.w3.org/2000/svg" width="192" height="192" version="1" id="svg12">
  <defs>
    <filter style="color-interpolation-filters:sRGB" id="filter18576" x="-0.059728951" y="-0.040317042" width="1.1194579" height="1.0806341">
      <feGaussianBlur stdDeviation="2.6878027"/>
    </filter>
    <filter style="color-interpolation-filters:sRGB" id="filter18618" x="-0.086699079" y="-0.066141565" width="1.1733982" height="1.1322831">
      <feGaussianBlur stdDeviation="2.6732215"/>
    </filter>
  </defs>
  <path style="filter:url(#filter18576);opacity:0.2;fill:#000000" d="m 96,20 a 54,54 0 0 0 -54,54 54,54 0 0 0 16.214844,38.36914 h 0.002 A 54,54 0 0 0 67,119.53516 V 143 c 0,4.432 3.568,8 8,8 h 33 9 c 4.432,0 8,-3.568 8,-8 V 119.53516 A 54,54 0 0 0 150,74 54,54 0 0 0 134.47266,36.121094 l -0.004,-0.0039 A 54,54 0 0 0 96,20 Z M 74,165 v 7 c 0,4.432 3.568,8 8,8 h 28 c 4.432,0 8,-3.568 8,-8 v -7 z"/>
  <path style="fill:#333333" d="M 96,16.606479 A 53.5,53.5 0 0 0 42.500001,70.106482 53.5,53.5 0 0 0 67.26852,115.22002 v 23.24757 c 0,4.39097 3.534963,7.92593 7.925926,7.92593 h 41.611114 c 4.39096,0 7.92592,-3.53496 7.92592,-7.92593 V 115.22002 A 53.5,53.5 0 0 0 149.5,70.106482 53.5,53.5 0 0 0 96,16.606479 Z"/>
  <path style="fill:#ea4335" d="M 96 16 A 54 54 0 0 0 42 70 A 54 54 0 0 0 58.214844 108.36914 L 134.46875 32.117188 A 54 54 0 0 0 96 16 z "/>
  <path style="fill:#fbbc04" d="M 108 58.585938 L 58.216797 108.36914 A 54 54 0 0 0 67 115.53516 L 67 139 C 67 143.432 70.568 147 75 147 L 108 147 L 108 58.585938 z "/>
  <path style="fill:#34a853" d="M 134.46875 32.117188 L 77.585938 89 L 108 89 L 108 147 L 117 147 C 121.432 147 125 143.432 125 139 L 125 115.53516 A 54 54 0 0 0 150 70 A 54 54 0 0 0 134.47266 32.121094 L 134.46875 32.117188 z "/>
  <path style="fill:#1a73e8" d="M 74 161 L 74 168 C 74 172.432 77.568 176 82 176 L 110 176 C 114.432 176 118 172.432 118 168 L 118 161 L 74 161 z "/>
  <path style="filter:url(#filter18618);opacity:0.2;fill:#000000" d="M 96,35 A 37,37 0 0 0 59,72 37,37 0 0 0 84,106.91406 V 132 h 24 V 106.91406 A 37,37 0 0 0 133,72 37,37 0 0 0 96,35 Z"/>
  <path style="fill:#ffffff" d="M 96 33 A 37 37 0 0 0 59 70 A 37 37 0 0 0 84 104.91406 L 84 130 L 108 130 L 108 104.91406 A 37 37 0 0 0 133 70 A 37 37 0 0 0 96 33 z "/>
  <path style="opacity:0.2;fill:#ffffff" d="M 96 16 A 54 54 0 0 0 42 70 A 54 54 0 0 0 42.041016 70.486328 A 54 54 0 0 1 96 17 A 54 54 0 0 1 134.46875 33.117188 L 134.47266 33.121094 A 54 54 0 0 1 149.95898 70.482422 A 54 54 0 0 0 150 70 A 54 54 0 0 0 134.47266 32.121094 L 134.46875 32.117188 A 54 54 0 0 0 96 16 z M 74 161 L 74 162 L 118 162 L 118 161 L 74 161 z "/>
</svg>
