<svg xmlns="http://www.w3.org/2000/svg" id="svg22" width="192" height="192" version="1"><defs><filter style="color-interpolation-filters:sRGB" id="filter881" width="1.11" height="1.08" x=".06" y=".04"><feGaussianBlur stdDeviation="2.78"/></filter><filter style="color-interpolation-filters:sRGB" id="filter882" width="1.11" height="1.08" x=".06" y=".04"><feGaussianBlur stdDeviation=".33"/></filter></defs><path style="filter:url(#filter881);opacity:.2;fill:#000" d="M 96,20 C 62.19,20 55.28,46.75 54.19,79.29 43.56,89.96 37,104.68 37,121 c 0,32.69 26.31,59 59,59 32.69,0 59,-26.31 59,-59 0,-16.32 -6.56,-31.04 -17.19,-41.71 C 136.72,46.75 129.81,20 96,20 Z m 0,17 c 11.87,0 20.12,9.25 23.31,29.76 C 112.16,63.70 104.29,62 96,62 87.71,62 79.84,63.70 72.69,66.76 75.88,46.25 84.13,37 96,37 Z"/><path d="M 96.00,16 C 58.20,16 54.00,49.41 54.00,87 h 17.24 c 0.44,-37.59 8.95,-54 24.76,-54 15.81,0 25.20,16.41 24.76,54 H 138 C 138.00,49.41 133.80,16 96.00,16 Z" style="fill:#e4e4e4"/><path style="opacity:.2;fill:#fff" d="M 96,16 C 58.20,16 54.00,49.41 54,87 h 0.01 C 54.08,49.82 58.54,17 96,17 c 37.46,0 41.91,32.82 41.99,70 H 138 C 138.00,49.41 133.80,16 96,16 Z M 71.23,84.31 c 0.01,0.88 0.00,1.78 0.01,2.69 h 0.00 c 0.01,0.91 0.01,-1.80 0.01,-2.69 z m 49.53,0 c 0.00,0.89 0.00,1.78 0.01,2.69 h 0.00 c 0.01,0.91 0.01,-1.81 0.01,-2.69 z"/><rect width="118" height="118" x="-176" y="-155" rx="59" ry="59" transform="matrix(0,-1,-1,0,0,0)" style="fill:#fb5a3a"/><g style="opacity:.5"><path d="m 12,5 c -1.66,0 -3,1.34 -3,3 0,1.66 1.34,3 3,3 1.66,0 3,-1.34 3,-3 0,-1.66 -1.34,-3 -3,-3 z" transform="matrix(4,0,0,4,24,69)" style="fill:#fff"/><path d="m 12,12.00 c -5.00,0.00 -5,3.45 -5,3.45 v 1.40 C 7,16.85 7.92,19 12,19 c 4.08,0 5,-2.15 5,-2.15 v -1.40 c 0,0 0,-3.45 -5.00,-3.45 z" transform="matrix(4,0,0,4,24,69)" style="fill:#fff"/></g><g style="opacity:.5"><path d="m 12,5 c -1.66,0 -3,1.34 -3,3 0,1.66 1.34,3 3,3 1.66,0 3,-1.34 3,-3 0,-1.66 -1.34,-3 -3,-3 z" transform="matrix(4,0,0,4,72,69)" style="fill:#fff"/><path d="m 12,12.00 c -5.00,0.00 -5,3.45 -5,3.45 v 1.40 C 7,16.85 7.92,19 12,19 c 4.08,0 5,-2.15 5,-2.15 v -1.40 c 0,0 0,-3.45 -5.00,-3.45 z" transform="matrix(4,0,0,4,72,69)" style="fill:#fff"/></g><g transform="matrix(4,0,0,4,32.00,55)" style="filter:url(#filter882);opacity:.2"><path d="m 16,6 c -2.21,0 -4,1.79 -4,4 0,2.21 1.79,4 4,4 2.21,0 4,-1.79 4,-4 0,-2.21 -1.79,-4 -4,-4 z"/><path d="m 16,16.00 c -7.00,0.00 -7,4.43 -7,4.43 v 1.80 c 0,0 1.29,2.77 7,2.77 5.71,0 7,-2.77 7,-2.77 v -1.80 c 0,0 0,-4.43 -7.00,-4.43 z"/></g><g><path d="m 16,6 c -2.21,0 -4,1.79 -4,4 0,2.21 1.79,4 4,4 2.21,0 4,-1.79 4,-4 0,-2.21 -1.79,-4 -4,-4 z" transform="matrix(4,0,0,4,32.00,53)" style="fill:#fff"/><path d="m 16,16.00 c -7.00,0.00 -7,4.43 -7,4.43 v 1.80 c 0,0 1.29,2.77 7,2.77 5.71,0 7,-2.77 7,-2.77 v -1.80 c 0,0 0,-4.43 -7.00,-4.43 z" transform="matrix(4,0,0,4,32.00,53)" style="fill:#fff"/></g></svg>