<?xml version='1.0' encoding='utf-8'?>
<svg xmlns="http://www.w3.org/2000/svg" width="192" height="192" version="1" id="svg22">
  <defs>
    <filter style="color-interpolation-filters:sRGB" id="filter881" x="-0.056542372" width="1.1130847" y="-0.0417" height="1.0834">
      <feGaussianBlur stdDeviation="2.78"/>
    </filter>
    <filter style="color-interpolation-filters:sRGB" id="filter920" x="-0.048" width="1.096" y="-0.047999999" height="1.096">
      <feGaussianBlur stdDeviation="0.76023997"/>
    </filter>
  </defs>
  <path style="filter:url(#filter881);opacity:0.2;fill:#000000" d="M 96,20 C 62.187036,20 55.278026,46.751752 54.193359,79.294922 43.55901,89.955187 37,104.68296 37,121 c 0,32.686 26.313998,59 59,59 32.686,0 59,-26.314 59,-59 0,-16.31704 -6.55901,-31.044813 -17.19336,-41.705078 C 136.72046,46.751752 129.81097,20 96,20 Z m 0,17 c 11.86661,0 20.11707,9.248357 23.30664,29.757812 C 112.16296,63.699047 104.28824,62 96,62 87.711757,62 79.837041,63.699047 72.693359,66.757812 75.882616,46.248357 84.13339,37 96,37 Z"/>
  <path d="M 95.999997,16 C 58.198882,16 53.998882,49.411765 53.999999,87 h 17.243424 c -0.44454,-37.588235 8.94771,-54 24.756574,-54 15.808863,0 25.198883,16.411765 24.756573,54 H 138 C 137.999,49.411765 133.79888,16 95.999997,16 Z" style="fill:#e4e4e4"/>
  <path style="opacity:0.2;fill:#ffffff" d="M 96 16 C 58.198885 16 53.998883 49.411765 54 87 L 54.007812 87 C 54.083466 49.824059 58.536771 17 96 17 C 133.46102 17 137.91447 49.824059 137.99219 87 L 138 87 C 137.999 49.411765 133.79888 16 96 16 z M 71.234375 84.310547 C 71.229306 85.191425 71.233727 86.094136 71.240234 87 L 71.244141 87 C 71.233352 86.087723 71.233624 85.197944 71.234375 84.310547 z M 120.76562 84.310547 C 120.76642 85.197944 120.76659 86.087723 120.75586 87 L 120.75977 87 C 120.76622 86.094136 120.77074 85.191425 120.76562 84.310547 z "/>
  <rect transform="matrix(0,-1,-1,0,0,0)" ry="59.000004" rx="59.000004" y="-155" x="-176.00002" height="118.00001" width="118.00001" style="fill:#a0a0a0"/>
  <rect transform="matrix(0,-1,-1,0,0,0)" ry="42" rx="42" y="-138" x="-159" height="84" width="84" style="fill:#5d5d5d"/>
  <path style="filter:url(#filter920);opacity:0.2;fill:#000000" d="m 117.012,97.987996 -9.01,3.003334 -6.21407,2.07414 c -6.197523,-2.25767 -13.141664,-0.7246 -17.812594,3.93253 -6.633779,6.6352 -6.633779,17.39147 0,24.02666 6.635196,6.63378 17.391464,6.63378 24.026664,0 4.65712,-4.67092 6.1902,-11.61507 3.93254,-17.8126 l 2.07413,-6.21407 z"/>
  <path d="m 117.012,95.987991 -9.01,3.003332 -6.21407,2.074137 c -6.197523,-2.257663 -13.141664,-0.72459 -17.812594,3.93253 -6.633779,6.6352 -6.633779,17.39147 0,24.02667 6.635196,6.63378 17.391464,6.63378 24.026664,0 4.65712,-4.67093 6.1902,-11.61507 3.93254,-17.8126 l 2.07413,-6.21407 z" style="fill:#ff5969"/>
  <path style="opacity:0.2;fill:#ffffff" d="M 117.01172 95.988281 L 108.00195 98.992188 L 101.78711 101.06641 C 95.589586 98.808743 88.645539 100.34093 83.974609 104.99805 C 80.53046 108.44293 78.891295 112.99861 79.023438 117.51172 C 79.145815 113.33213 80.78498 109.18836 83.974609 105.99805 C 88.645539 101.34092 95.589586 99.808738 101.78711 102.06641 L 108.00195 99.992188 L 116.63672 97.113281 L 117.01172 95.988281 z M 112.09766 111.71875 L 111.93359 112.21289 C 112.56764 113.95341 112.89251 115.75157 112.94336 117.54297 C 113.0029 115.5957 112.72635 113.62801 112.09766 111.71875 z "/>
</svg>
