<svg xmlns="http://www.w3.org/2000/svg" id="svg14" width="192" height="192" version="1.1"><defs><filter style="color-interpolation-filters:sRGB" id="filter848" width="1.1" height="1.1" x=".05" y=".05"><feGaussianBlur stdDeviation="3.2"/></filter><filter style="color-interpolation-filters:sRGB" id="filter864" width="1.1" height="1.1" x=".05" y=".05"><feGaussianBlur stdDeviation="2.24"/></filter></defs><circle cx="96" cy="100" r="80" style="filter:url(#filter848);opacity:.2"/><circle cx="96" cy="96" r="80" style="fill:#5390f5"/><path d="m 97.19,42.00 c -21.96,0 -41.51,12.64 -51.02,31.04 l 13.35,9.04 L 46.12,73.04 C 42.25,80.56 40,89.04 40,98.00 40,107.28 42.37,116.00 46.49,123.68 L 66.25,109.77 A 32,32 0 0 1 64,98.00 32,32 0 0 1 66.15,86.56 32,32 0 0 1 96,66.00 a 32,32 0 0 1 22,8.81 l 16.73,-17.81 c -9.71,-9.28 -22.85,-15 -37.55,-15 z m -1.19,44 V 110 h 29.63 c -2.36,5.82 -6.39,10.81 -11.57,14.37 A 32,32 0 0 1 96,130 32,32 0 0 1 66.27,109.80 L 46.53,123.68 C 56.16,141.68 75.51,154 97.19,154 c 14.37,0 27.22,-5.40 36.89,-14.32 C 145.14,129.44 152,114.52 152,98.00 c 0,-2.69 0.24,-5.29 0.59,-7.87 l 0.05,0.32 0.66,-3.81 h -9.38 z" style="filter:url(#filter864);opacity:.2"/><path style="opacity:.2;fill:#fff" d="M 96 16 A 80 80 0 0 0 16 96 A 80 80 0 0 0 16.02 96.47 A 80 80 0 0 1 96 17 A 80 80 0 0 1 175.97 96.51 A 80 80 0 0 0 176 96 A 80 80 0 0 0 96 16 z"/><path d="M 97.19,40 C 75.23,40 55.67,52.64 46.16,71.04 l 13.35,9.04 L 46.12,71.04 C 42.25,78.56 40,87.04 40,96 c 0,9.28 2.37,18.00 6.49,25.68 L 66.25,107.77 A 32,32 0 0 1 64,96 32,32 0 0 1 66.15,84.56 32,32 0 0 1 96,64 32,32 0 0 1 118,72.81 L 134.73,55 C 125.02,45.72 111.88,40 97.19,40 Z M 96,84 v 24 h 29.63 c -2.36,5.82 -6.39,10.81 -11.57,14.37 A 32,32 0 0 1 96,128 32,32 0 0 1 66.27,107.80 L 46.53,121.68 C 56.16,139.68 75.51,152 97.19,152 c 14.37,0 27.22,-5.40 36.89,-14.32 C 145.14,127.44 152,112.52 152,96 c 0,-2.69 0.24,-5.29 0.59,-7.87 l 0.05,0.32 L 150.80,84 Z" style="fill:#fff"/></svg>