<?xml version='1.0' encoding='utf-8'?>
<svg xmlns="http://www.w3.org/2000/svg" width="192" height="192" version="1" id="svg14">
  <defs>
    <filter style="color-interpolation-filters:sRGB" id="filter943" x="0.06" width="1.11" y="0.06" height="1.11">
      <feGaussianBlur stdDeviation="3.20"/>
    </filter>
    <filter style="color-interpolation-filters:sRGB" id="filter3502" x="0.05" y="0.05" width="1.10" height="1.10">
      <feGaussianBlur stdDeviation="2.32"/>
    </filter>
  </defs>
  <rect style="filter:url(#filter943);opacity:0.20" width="137.20" height="137.20" x="-71.44" y="70" rx="41.16" ry="41.16" transform="rotate(-45)"/>
  <rect style="fill:#e4e4e4" width="137.20" height="137.20" x="-68.60" y="67.16" rx="41.16" ry="41.16" transform="rotate(-45)"/>
  <path style="filter:url(#filter3502);opacity:0.20;fill:#000000;color:#000000" d="m 96,39.99 a 7,7 0 0 0 -7,7 v 9 a 7,7 0 0 0 7,7 7,7 0 0 0 7,-7 v -9 a 7,7 0 0 0 -7,-7 z M 70,63 a 7,7 0 0 0 -7,7 v 26 a 7,7 0 0 0 7,7 7,7 0 0 0 7,-7 V 70 a 7,7 0 0 0 -7,-7 z m 52,0 a 7,7 0 0 0 -7,7 v 9 a 7,7 0 0 0 7,7 7,7 0 0 0 7,-7 v -9 a 7,7 0 0 0 -7,-7 z m -26,7 a 7,7 0 0 0 -7,7 v 42 a 7,7 0 0 0 7,7 7,7 0 0 0 7,-7 V 77 A 7,7 0 0 0 96,70 Z M 44,86 a 7,7 0 0 0 -7,7 v 9 a 7,7 0 0 0 7,7 7,7 0 0 0 7,-7 v -9 a 7,7 0 0 0 -7,-7 z m 102,0 a 7,7 0 0 0 -7,7 v 9 a 7,7 0 0 0 7,7 7,7 0 0 0 7,-7 v -9 a 7,7 0 0 0 -7,-7 z m -24,7 a 7,7 0 0 0 -7,7 v 26 a 7,7 0 0 0 7,7 7,7 0 0 0 7,-7 v -26 a 7,7 0 0 0 -7,-7 z m -52,17 a 7,7 0 0 0 -7,7 v 9 a 7,7 0 0 0 7,7 7,7 0 0 0 7,-7 v -9 a 7,7 0 0 0 -7,-7 z m 26,23 a 7,7 0 0 0 -7,7 v 9 a 7,7 0 0 0 7,7 7,7 0 0 0 7,-7 v -9 a 7,7 0 0 0 -7,-7 z"/>
  <path style="opacity:0.20;fill:#ffffff" d="M 96,16 C 85.48,16 74.96,20.03 66.90,28.09 L 28.09,66.90 C 19.92,75.07 15.94,85.77 16.06,96.44 16.19,86.11 20.17,75.82 28.09,67.90 L 66.90,29.09 C 74.96,21.03 85.48,17 96,17 c 10.52,0 21.04,4.03 29.10,12.09 l 38.80,38.80 c 7.92,7.92 11.90,18.21 12.04,28.54 0.12,-10.67 -3.86,-21.37 -12.04,-29.54 L 125.10,28.09 C 117.04,20.03 106.52,16 96,16 Z"/>
  <path style="fill:#fab909;color:#000000" d="m 96,37.99 a 7,7 0 0 0 -7,7 v 9 a 7,7 0 0 0 7,7 7,7 0 0 0 7,-7 v -9 a 7,7 0 0 0 -7,-7 z M 96,68 a 7,7 0 0 0 -7,7 v 42 a 7,7 0 0 0 7,7 7,7 0 0 0 7,-7 V 75 a 7,7 0 0 0 -7,-7 z m 0,63 a 7,7 0 0 0 -7,7 v 9 a 7,7 0 0 0 7,7 7,7 0 0 0 7,-7 v -9 a 7,7 0 0 0 -7,-7 z"/>
  <path style="fill:#ea4333;color:#000000" d="m 70,61 a 7,7 0 0 0 -7,7 v 26 a 7,7 0 0 0 7,7 7,7 0 0 0 7,-7 V 68 a 7,7 0 0 0 -7,-7 z m 0,47 a 7,7 0 0 0 -7,7 v 9 a 7,7 0 0 0 7,7 7,7 0 0 0 7,-7 v -9 a 7,7 0 0 0 -7,-7 z"/>
  <path style="fill:#0166da;color:#000000" d="m 44,84 a 7,7 0 0 0 -7,7 v 9 a 7,7 0 0 0 7,7 7,7 0 0 0 7,-7 v -9 a 7,7 0 0 0 -7,-7 z"/>
  <path style="fill:#4486f6;color:#000000" d="m 146,84 a 7,7 0 0 0 -7,7 v 9 a 7,7 0 0 0 7,7 7,7 0 0 0 7,-7 v -9 a 7,7 0 0 0 -7,-7 z"/>
  <path style="fill:#36a853;color:#000000" d="m 122,61 a 7,7 0 0 0 -7,7 v 9 a 7,7 0 0 0 7,7 7,7 0 0 0 7,-7 v -9 a 7,7 0 0 0 -7,-7 z m 0,30 a 7,7 0 0 0 -7,7 v 26 a 7,7 0 0 0 7,7 7,7 0 0 0 7,-7 V 98 a 7,7 0 0 0 -7,-7 z"/>
</svg>
