<?xml version='1.0' encoding='utf-8'?>
<svg xmlns="http://www.w3.org/2000/svg" width="192" height="192" version="1.1" id="svg14">
  <defs>
    <filter style="color-interpolation-filters:sRGB" id="filter848" x="0.05" width="1.10" y="0.05" height="1.10">
      <feGaussianBlur stdDeviation="3.20"/>
    </filter>
    <filter style="color-interpolation-filters:sRGB" id="filter874" x="0.04" width="1.08" y="0.06" height="1.12">
      <feGaussianBlur stdDeviation="1.92"/>
    </filter>
  </defs>
  <path d="m 96,20.01 c -1.92,0.10 -3.09,0.29 -4.73,1.21 -2.80,1.57 -68.57,51.37 -71.69,54.28 -2.41,2.25 -3.59,4.84 -3.59,7.91 0,3.06 26.96,89.77 28.64,92.12 1.33,1.87 3.84,3.40 6.71,4.11 0.96,0.24 20.38,0.39 44.65,0.34 24.27,0.05 43.68,0.11 44.65,0.34 2.87,0.71 5.38,-2.24 6.71,-4.11 C 149.04,173.18 176,86.47 176,83.41 176,80.35 174.82,77.75 172.41,75.51 169.30,72.60 103.53,22.79 100.73,21.22 99.09,20.31 97.92,19.91 96,20.01 Z" style="filter:url(#filter848);opacity:0.20"/>
  <path d="m 96,16.02 c -1.92,0.10 -3.09,0.29 -4.73,1.21 -2.80,1.57 -68.57,51.37 -71.69,54.28 -2.41,2.25 -3.59,4.84 -3.59,7.91 0,3.06 26.96,89.77 28.64,92.12 1.33,1.87 3.84,3.40 6.71,4.11 0.96,0.24 20.38,0.39 44.65,0.34 24.27,0.05 43.68,0.11 44.65,0.34 2.87,0.71 5.38,-2.24 6.71,-4.11 C 149.04,169.18 176,82.47 176,79.41 176,76.35 174.82,73.76 172.41,71.51 169.30,68.60 103.53,18.80 100.73,17.23 99.09,16.31 97.92,15.91 96,16.02 Z" style="fill:#4a8bf5"/>
  <path style="opacity:0.20;fill:#ffffff" d="M 96 16.02 C 94.08 15.91 92.91 16.31 91.27 17.23 C 88.47 18.80 22.70 68.60 19.59 71.51 C 17.18 73.76 16 76.35 16 79.41 C 16 79.43 16.03 79.53 16.04 79.58 C 16.24 76.88 17.40 74.55 19.59 72.51 C 22.70 69.60 88.47 19.80 91.27 18.23 C 92.91 17.31 94.08 16.91 96 17.02 C 97.92 16.91 99.09 17.31 100.73 18.23 C 103.53 19.80 169.30 69.60 172.41 72.51 C 174.60 74.55 175.76 76.88 175.96 79.58 C 175.97 79.53 176 79.43 176 79.41 C 176 76.35 174.82 73.76 172.41 71.51 C 169.30 68.60 103.53 18.80 100.73 17.23 C 99.09 16.31 97.92 15.91 96 16.02 z "/>
  <path style="filter:url(#filter874);opacity:0.20;fill:#000000;color:#000000;font-stretch:normal;font-variant-ligatures:normal;font-variant-position:normal;font-variant-caps:normal;font-variant-numeric:normal;font-variant-alternates:normal;font-feature-settings:normal;text-indent:0;text-align:start;text-decoration-line:none;text-decoration-style:solid;text-decoration-color:#000000;text-transform:none;writing-mode:lr-tb;direction:ltr;text-orientation:mixed;dominant-baseline:auto;baseline-shift:baseline;white-space:normal;shape-padding:0;clip-rule:nonzero;display:inline;overflow:visible;visibility:visible;isolation:auto;mix-blend-mode:normal;color-interpolation:sRGB;color-interpolation-filters:linearRGB;solid-color:#000000;solid-opacity:1;vector-effect:none;fill-rule:nonzero;color-rendering:auto;image-rendering:auto;shape-rendering:auto;text-rendering:auto;enable-background:accumulate" d="m 159.84,49.92 a 8.00,8.00 0 0 0 -5.50,2.42 L 96,110.69 69.66,84.34 A 8.00,8.00 0 1 0 58.34,95.66 l 32,32 a 8.00,8.00 0 0 0 11.31,0 l 64,-64 a 8.00,8.00 0 0 0 -5.81,-13.73 z"/>
  <path d="m 64.00,88.00 32,32.00 64,-64.00" style="fill:none;stroke:#ffffff;stroke-width:16;stroke-linecap:round;stroke-linejoin:round"/>
</svg>
