<?xml version='1.0' encoding='utf-8'?>
<svg xmlns="http://www.w3.org/2000/svg" width="192" height="192" preserveAspectRatio="xMidYMid" version="1.1" id="svg18">
  <defs>
    <filter style="color-interpolation-filters:sRGB" id="filter870" x="0.04" width="1.07" y="0.07" height="1.13">
      <feGaussianBlur stdDeviation="2.49"/>
    </filter>
    <filter style="color-interpolation-filters:sRGB" id="filter886" x="0.04" width="1.08" y="0.07" height="1.13">
      <feGaussianBlur stdDeviation="2.51"/>
    </filter>
    <filter style="color-interpolation-filters:sRGB" id="filter2494" x="0.05" y="0.05" width="1.10" height="1.10">
      <feGaussianBlur stdDeviation="1.20"/>
    </filter>
  </defs>
  <path style="filter:url(#filter870);opacity:0.20" d="M 16,70.93 V 149.09 C 16,155.12 20.83,160 26.80,160 H 52 V 98.20 Z M 176,70.93 140,98.20 V 160 H 165.20 C 171.17,160 176,155.12 176,149.09 Z"/>
  <path style="fill:#4285f4" d="M 26.80,156 H 52 V 94.20 L 16,66.93 V 145.09 C 16,151.12 20.83,156 26.80,156 Z"/>
  <path style="fill:#34a853" d="M 140,156 H 165.20 C 171.17,156 176,151.12 176,145.09 V 66.93 L 140,94.20 Z"/>
  <path style="filter:url(#filter886);opacity:0.20" d="M 31.17,40.04 C 23.20,40.59 16,47.13 16,56.39 V 70.93 L 52,98.20 96,130.91 140,98.20 176,70.93 V 56.39 C 176,42.91 160.76,35.22 150.08,43.31 L 140,50.94 96,83.63 52,50.94 41.92,43.31 C 38.58,40.78 34.80,39.79 31.17,40.04 Z"/>
  <path style="fill:#fbbc04" d="M 140,46.94 V 94.20 L 176,66.93 V 52.39 C 176,38.91 160.76,31.21 150.08,39.30 Z"/>
  <path style="fill:#ea4335" d="M 52,94.20 V 46.94 L 96,79.64 140,46.94 V 94.20 L 96,126.91 Z"/>
  <path style="fill:#c5221f" d="M 16,52.39 V 66.93 L 52,94.20 V 46.94 L 41.92,39.30 C 31.24,31.21 16,38.91 16,52.39 Z"/>
  <path style="opacity:0.20;fill:#ffffff" d="M 32.54 36.00 C 32.08 36.00 31.62 36.01 31.17 36.04 C 23.20 36.59 16 43.12 16 52.39 L 16 53.39 C 16 44.12 23.20 37.59 31.17 37.04 C 34.80 36.79 38.58 37.78 41.92 40.30 L 52 47.94 L 96 80.63 L 140 47.94 L 150.08 40.30 C 160.76 32.22 176 39.91 176 53.39 L 176 52.39 C 176 38.91 160.76 31.22 150.08 39.30 L 140 46.94 L 96 79.63 L 52 46.94 L 41.92 39.30 C 39.00 37.09 35.74 36.06 32.54 36.00 z "/>
  <circle style="filter:url(#filter2494);opacity:0.20;fill:#000000" cx="96" cy="100" r="30"/>
  <circle style="fill:#fc8014" cx="96" cy="98" r="30"/>
  <path style="fill:#ffffff" d="M 106.99 86 C 104.34 86 102.18 87.00 100.51 89.02 C 98.84 91.02 98 93.76 98 97.26 L 98 98.74 C 98 102.25 98.84 105.00 100.52 107 C 102.20 109.00 104.37 110 107.02 110 C 109.75 110 111.93 109.00 113.55 107 C 115.18 105.00 116 102.25 116 98.74 L 116 97.07 C 115.97 93.64 115.13 90.93 113.49 88.97 C 111.86 86.99 109.70 86 106.99 86 z M 106.99 88 C 109.20 88 110.93 88.79 112.16 90.36 C 113.39 91.94 114 94.20 114 97.17 L 114 98.78 C 114 101.77 113.39 104.05 112.17 105.64 C 110.97 107.21 109.25 108 107.03 108 C 104.91 108 103.21 107.21 101.92 105.64 C 100.64 104.05 100 101.77 100 98.78 L 100 97.17 C 100 94.20 100.63 91.94 101.90 90.36 C 103.17 88.79 104.87 88 106.99 88 z "/>
  <path style="fill:#ffffff" d="M 84.99 86 C 82.34 86 80.18 87.00 78.51 89.02 C 76.84 91.02 76 93.76 76 97.26 L 76 98.74 C 76 102.25 76.84 105.00 78.52 107 C 80.20 109.00 82.37 110 85.02 110 C 87.75 110 89.93 109.00 91.55 107 C 93.18 105.00 94 102.25 94 98.74 L 94 98 L 93 98 L 92 98 L 86 98 L 86 100 L 91.96 100 C 91.81 102.40 91.22 104.28 90.17 105.64 C 88.97 107.21 87.25 108 85.03 108 C 82.91 108 81.21 107.21 79.92 105.64 C 78.64 104.05 78 101.77 78 98.78 L 78 97.17 C 78 94.20 78.63 91.94 79.90 90.36 C 81.17 88.79 82.87 88 84.99 88 C 87.20 88 88.93 88.79 90.16 90.36 C 90.73 91.09 91.16 91.97 91.47 93 L 93.50 93 C 93.09 91.42 92.42 90.08 91.49 88.97 C 89.86 86.99 87.70 86 84.99 86 z "/>
</svg>
