<?xml version='1.0' encoding='utf-8'?>
<svg xmlns="http://www.w3.org/2000/svg" width="192" height="192" version="1" id="svg24">
  <defs>
    <filter style="color-interpolation-filters:sRGB" id="filter866" x="-0.055999999" width="1.112" y="-0.041999999" height="1.084">
      <feGaussianBlur stdDeviation="2.8"/>
    </filter>
    <filter style="color-interpolation-filters:sRGB" id="filter882" x="-0.029454547" width="1.0589091" y="-0.020250001" height="1.0405">
      <feGaussianBlur stdDeviation="1.08"/>
    </filter>
  </defs>
  <path d="M 148,20 H 44 c -4.432,0 -8,3.568 -8,8 v 144 c 0,4.432 3.568,8 8,8 h 104 c 4.432,0 8,-3.568 8,-8 V 28 c 0,-4.432 -3.568,-8 -8,-8 z" style="filter:url(#filter866);opacity:0.2"/>
  <path d="M 148,16 H 44 c -4.432,0 -8,3.568 -8,8 v 144 c 0,4.432 3.568,8 8,8 h 104 c 4.432,0 8,-3.568 8,-8 V 24 c 0,-4.432 -3.568,-8 -8,-8 z" style="fill:#e4e4e4"/>
  <path d="M 68,34 A 16,16 0 0 0 52,50 16,16 0 0 0 68,66 16,16 0 0 0 84,50 16,16 0 0 0 68,34 Z m 56,0 A 16,16 0 0 0 108,50 16,16 0 0 0 124,66 16,16 0 0 0 140,50 16,16 0 0 0 124,34 Z M 68,82 A 16,16 0 0 0 52,98 16,16 0 0 0 68,114 16,16 0 0 0 84,98 16,16 0 0 0 68,82 Z m 56,0 a 16,16 0 0 0 -16,16 16,16 0 0 0 16,16 16,16 0 0 0 16,-16 16,16 0 0 0 -16,-16 z m -56,48 a 16,16 0 0 0 -16,16 16,16 0 0 0 16,16 16,16 0 0 0 16,-16 16,16 0 0 0 -16,-16 z m 56,0 a 16,16 0 0 0 -16,16 16,16 0 0 0 16,16 16,16 0 0 0 16,-16 16,16 0 0 0 -16,-16 z" style="filter:url(#filter882);opacity:0.1"/>
  <path style="opacity:0.2;fill:#ffffff" d="M 44 16 C 39.568 16 36 19.568 36 24 L 36 25 C 36 20.568 39.568 17 44 17 L 148 17 C 152.432 17 156 20.568 156 25 L 156 24 C 156 19.568 152.432 16 148 16 L 44 16 z "/>
  <circle r="16" cy="96" cx="68" style="fill:#ff842f"/>
  <circle r="16" cy="96" cx="124" style="fill:#4f4f4f"/>
  <circle r="16" cy="48" cx="68" style="fill:#ff842f"/>
  <circle r="16" cy="48" cx="124" style="fill:#4f4f4f"/>
  <circle r="16" cy="144" cx="68" style="fill:#4f4f4f"/>
  <circle r="16" cy="144" cx="124" style="fill:#4f4f4f"/>
</svg>
