<?xml version='1.0' encoding='utf-8'?>
<svg xmlns="http://www.w3.org/2000/svg" width="192" height="192" version="1.1" id="svg24">
  <defs>
    <filter style="color-interpolation-filters:sRGB" id="filter868" x="0.05" width="1.10" y="0.05" height="1.10">
      <feGaussianBlur stdDeviation="3.20"/>
    </filter>
    <filter style="color-interpolation-filters:sRGB" id="filter884" x="0.05" width="1.10" y="0.05" height="1.10">
      <feGaussianBlur stdDeviation="0.64"/>
    </filter>
    <filter style="color-interpolation-filters:sRGB" id="filter917" x="0.04" width="1.08" y="0.06" height="1.12">
      <feGaussianBlur stdDeviation="1.96"/>
    </filter>
  </defs>
  <path d="m 96,20 c -44.14,0 -80,35.86 -80,80 0,44.14 35.86,80.00 80,80 44.14,0 80.00,-35.86 80,-80 0,-44.14 -35.86,-80 -80,-80 z" style="filter:url(#filter868);opacity:0.20"/>
  <path d="M 96,16.00 C 51.86,16.00 16,51.86 16,96 c 0,44.14 35.86,80.00 80,80 44.14,0 80.00,-35.86 80,-80 0,-44.14 -35.86,-80.00 -80,-80.00 z" style="fill:#e4e4e4"/>
  <path style="opacity:0.20;fill:#ffffff" d="M 96 16 C 51.86 16 16 51.86 16 96 C 16 96.12 16.01 96.23 16.01 96.35 C 16.36 52.51 52.08 17 96 17 C 139.92 17 175.64 52.51 175.99 96.35 C 175.99 96.23 176 96.12 176 96 C 176 51.86 140.14 16 96 16 z "/>
  <path d="M 96.00,32 C 60.69,32 32,60.69 32,96.00 32,131.31 60.69,160.00 96.00,160 131.31,160 160.00,131.31 160,96.00 160,60.69 131.31,32 96.00,32 Z" style="fill:#4f8df5"/>
  <path d="m 96,82 c -8.83,0 -16,7.17 -16,16 0,8.83 7.17,16 16,16 8.83,0 16,-7.17 16,-16 0,-8.83 -7.17,-16 -16,-16 z" style="filter:url(#filter884);opacity:0.10"/>
  <path style="filter:url(#filter917);opacity:0.20;fill:#000000;color:#000000;font-stretch:normal;font-variant-ligatures:normal;font-variant-position:normal;font-variant-caps:normal;font-variant-numeric:normal;font-variant-alternates:normal;font-feature-settings:normal;text-indent:0;text-align:start;text-decoration-line:none;text-decoration-style:solid;text-decoration-color:#000000;text-transform:none;writing-mode:lr-tb;direction:ltr;text-orientation:mixed;dominant-baseline:auto;baseline-shift:baseline;white-space:normal;shape-padding:0;clip-rule:nonzero;display:inline;overflow:visible;visibility:visible;isolation:auto;mix-blend-mode:normal;color-interpolation:sRGB;color-interpolation-filters:linearRGB;solid-color:#000000;solid-opacity:1;vector-effect:none;fill-rule:nonzero;color-rendering:auto;image-rendering:auto;shape-rendering:auto;text-rendering:auto;enable-background:accumulate" d="M 159.84 25.92 A 8.00 8.00 0 0 0 154.34 28.34 L 94.98 87.71 L 64.44 67.34 A 8.00 8.00 0 0 0 59.92 65.94 A 8.00 8.00 0 0 0 55.56 80.66 L 90.40 103.88 A 8.00 8.00 0 0 0 96.66 106.04 A 8.00 8.00 0 0 0 102.63 102.68 L 165.66 39.66 A 8.00 8.00 0 0 0 159.84 25.92 z "/>
  <path d="M 96,96 160,32" style="fill:none;stroke:#ffffff;stroke-width:16;stroke-linecap:round;stroke-linejoin:round"/>
  <path d="M 60,72 96,96" style="fill:none;stroke:#ffffff;stroke-width:16;stroke-linecap:round;stroke-linejoin:round"/>
  <path d="m 96,80 c -8.83,0 -16,7.17 -16,16 0,8.83 7.17,16 16,16 8.83,0 16,-7.17 16,-16 0,-8.83 -7.17,-16 -16,-16 z" style="fill:#4f4f4f"/>
</svg>
