<?xml version='1.0' encoding='utf-8'?>
<svg xmlns="http://www.w3.org/2000/svg" width="192" height="192" version="1.1" id="svg14">
  <defs>
    <filter style="color-interpolation-filters:sRGB" id="filter8457" x="0.04" y="0.06" width="1.08" height="1.11">
      <feGaussianBlur stdDeviation="2.80"/>
    </filter>
    <filter style="color-interpolation-filters:sRGB" id="filter10185" x="0.05" y="0.05" width="1.09" height="1.10">
      <feGaussianBlur stdDeviation="3.11"/>
    </filter>
  </defs>
  <rect style="filter:url(#filter8457);opacity:0.20;fill:#000000" width="160" height="120" x="16" y="40" rx="12" ry="12"/>
  <rect style="fill:#3d4baf" width="160" height="120" x="16" y="36" rx="12" ry="12"/>
  <path style="opacity:0.10;fill:#ffffff" d="M 28 36 C 21.35 36 16 41.35 16 48 L 16 49 C 16 42.35 21.35 37 28 37 L 164 37 C 170.65 37 176 42.35 176 49 L 176 48 C 176 41.35 170.65 36 164 36 L 28 36 z "/>
  <path style="filter:url(#filter10185);opacity:0.20;fill:#000000" d="M 50.71,20.00 41.64,30.19 28,28.51 35.01,40.27 29.26,52.61 42.66,49.69 52.75,59.00 54.01,45.44 66,38.85 53.38,33.38 Z m 75.29,27 a 12,12 0 0 0 -12,12 12,12 0 0 0 12,12 12,12 0 0 0 12,-12 12,12 0 0 0 -12,-12 z m -51.92,10 L 63.50,78.01 40,81.31 56.95,97.74 52.85,120.86 73.90,110.01 94.88,121.00 90.95,97.86 108,81.53 84.52,78.08 Z m 53.92,30 a 32,32 0 0 0 -32,32.00 32,32 0 0 0 32,32 32,32 0 0 0 17.36,-5.13 l 24.12,20.71 c 4.19,3.60 10.50,3.12 14.10,-1.07 3.60,-4.19 3.12,-10.50 -1.07,-14.10 L 157.87,130.25 A 32,32 0 0 0 160,119.00 32,32 0 0 0 128,87.00 Z m 0,13 a 19,19 0 0 1 19,19.00 19,19 0 0 1 -19,19 19,19 0 0 1 -19,-19 19,19 0 0 1 19,-19.00 z M 38,121.00 a 14,14 0 0 0 -14,14 14,14 0 0 0 14,14 14,14 0 0 0 14,-14 14,14 0 0 0 -14,-14 z"/>
  <path style="fill:#ffae00" d="m 97.04,56.82 10.44,21.32 23.48,3.49 -17.06,16.51 3.93,23.41 -20.98,-11.12 -21.05,10.98 4.09,-23.39 -16.94,-16.63 23.50,-3.34 z" transform="matrix(1,0,0,0.99,-22.96,-2.17)"/>
  <path style="fill:#5fbbff" d="M 128 84 A 32 32 0 0 0 96 116 A 32 32 0 0 0 128 148 A 32 32 0 0 0 145.36 142.87 L 169.49 163.59 C 173.68 167.19 179.99 166.70 183.59 162.51 C 187.19 158.32 186.70 152.01 182.51 148.41 L 157.87 127.25 A 32 32 0 0 0 160 116 A 32 32 0 0 0 128 84 z M 128 97 A 19 19 0 0 1 147 116 A 19 19 0 0 1 128 135 A 19 19 0 0 1 109 116 A 19 19 0 0 1 128 97 z "/>
  <circle style="fill:#4caf50" cx="38" cy="132" r="14"/>
  <circle style="fill:#ff6f22" cx="126" cy="56" r="12"/>
  <path style="fill:#ffd919" d="m 97.04,56.82 10.44,21.32 23.48,3.49 -17.06,16.51 3.93,23.41 -20.98,-11.12 -21.05,10.98 4.09,-23.39 -16.94,-16.63 23.50,-3.34 z" transform="matrix(0.56,0.15,0.15,0.55,4.85,-29.06)"/>
  <path style="opacity:0.20;fill:#ffffff" d="M 50.71 17 L 41.64 27.19 L 28 25.51 L 28.64 26.59 L 41.64 28.19 L 50.71 18 L 53.38 31.38 L 64.98 36.40 L 66 35.85 L 53.38 30.38 L 50.71 17 z M 34.75 37.83 L 29.26 49.61 L 29.78 49.50 L 35.01 38.27 L 34.75 37.83 z M 126 44 A 12 12 0 0 0 114 56 A 12 12 0 0 0 114.08 56.50 A 12 12 0 0 1 126 45 A 12 12 0 0 1 137.96 56.28 A 12 12 0 0 0 138 56 A 12 12 0 0 0 126 44 z M 74.08 54 L 63.50 75.01 L 40 78.31 L 40.90 79.18 L 63.50 76.01 L 74.08 55 L 84.52 76.08 L 107.09 79.40 L 108 78.53 L 84.52 75.08 L 74.08 54 z M 128 84 A 32 32 0 0 0 96 116 A 32 32 0 0 0 96.06 116.50 A 32 32 0 0 1 128 85 A 32 32 0 0 1 159.95 116.54 A 32 32 0 0 0 160 116 A 32 32 0 0 0 128 84 z M 56.79 95.60 L 52.85 117.86 L 53.05 117.76 L 56.95 95.74 L 56.79 95.60 z M 91.09 95.72 L 90.95 95.86 L 94.69 117.90 L 94.88 118 L 91.09 95.72 z M 109.07 116.50 A 19 19 0 0 0 109 117 A 19 19 0 0 0 128 136 A 19 19 0 0 0 147 117 A 19 19 0 0 0 146.93 116.50 A 19 19 0 0 1 128 135 A 19 19 0 0 1 109.07 116.50 z M 38 118 A 14 14 0 0 0 24 132 A 14 14 0 0 0 24.08 132.50 A 14 14 0 0 1 38 119 A 14 14 0 0 1 51.96 132.26 A 14 14 0 0 0 52 132 A 14 14 0 0 0 38 118 z M 158.10 127.45 A 32 32 0 0 1 157.87 128.25 L 182.51 149.41 C 184.58 151.19 185.74 153.62 185.95 156.14 C 185.99 153.28 184.85 150.42 182.51 148.41 L 158.10 127.45 z "/>
</svg>
