<?xml version='1.0' encoding='utf-8'?>
<svg xmlns="http://www.w3.org/2000/svg" width="192" height="192" version="1" id="svg26">
  <defs>
    <filter style="color-interpolation-filters:sRGB" id="filter868" x="-0.048000001" width="1.096" y="-0.048000001" height="1.096">
      <feGaussianBlur stdDeviation="3.2"/>
    </filter>
    <filter style="color-interpolation-filters:sRGB" id="filter892" x="-0.014470313" width="1.0289406" y="-0.070292222" height="1.1405844">
      <feGaussianBlur stdDeviation="0.9646875"/>
    </filter>
  </defs>
  <circle style="filter:url(#filter868);opacity:0.2;fill:#000000" cx="96" cy="100" r="80"/>
  <path d="M 96,16 C 66.287948,16 40.51744,32.075542 26.718752,56 H 165.28125 C 151.48256,32.075542 125.71205,16 96,16 Z M 26.710936,56.015624 c -0.780715,1.354308 -1.508789,2.737264 -2.210938,4.140624 0.70276,-1.400652 1.431172,-2.78798 2.210938,-4.140624 z m 138.578124,0 c 0.77977,1.352644 1.50818,2.739972 2.21094,4.140624 -0.70215,-1.40336 -1.43022,-2.786316 -2.21094,-4.140624 z M 23.914064,61.367188 c -0.995234,2.076112 -1.901845,4.195372 -2.71875,6.367188 0.820884,-2.167408 1.72155,-4.294164 2.71875,-6.367188 z m 144.171876,0 c 0.9972,2.073024 1.89786,4.19978 2.71875,6.367188 -0.81691,-2.171816 -1.72352,-4.291076 -2.71875,-6.367188 z M 20.140624,70.640624 c -0.34168,1.02838 -0.66019,2.062664 -0.960937,3.109376 0.303236,-1.045336 0.616852,-2.082316 0.960937,-3.109376 z m 151.718756,0 c 0.34408,1.02706 0.6577,2.06404 0.96093,3.109376 -0.30076,-1.046712 -0.61925,-2.080996 -0.96093,-3.109376 z M 18.015624,78.281248 c -0.483494,2.151408 -0.919217,4.316956 -1.226562,6.531252 0.310956,-2.210632 0.738717,-4.384084 1.226562,-6.531252 z m 155.968756,0 c 0.48784,2.147168 0.9156,4.32062 1.22656,6.531252 -0.30736,-2.214296 -0.74307,-4.379844 -1.22656,-6.531252 z M 16.648436,85.968752 c -0.15234,1.227444 -0.278488,2.466528 -0.375,3.710936 0.09794,-1.245252 0.220528,-2.483068 0.375,-3.710936 z m 158.703124,0 c 0.15448,1.227868 0.27704,2.465684 0.375,3.710936 -0.0965,-1.244408 -0.22268,-2.483492 -0.375,-3.710936 z m -159.187496,5.10156 c -0.09849,1.6327 -0.164062,3.27138 -0.164062,4.929688 0,-1.657856 0.06429,-3.298336 0.164062,-4.929688 z m 159.671876,0 C 175.93571,92.701664 176,94.342144 176,96 c 0,-1.658308 -0.0656,-3.296988 -0.16408,-4.929688 z" style="fill:#2e9bf4"/>
  <path d="M 26.71875,56 C 19.934616,67.762472 16,81.392052 16,96 c 0,44.32 35.68,80 80,80 44.32,0 80,-35.68 80,-80 0,-14.607948 -3.93462,-28.237528 -10.71875,-40 z" style="fill:#cccccc"/>
  <path d="M 75.859376,56 71.375,80 H 17.609376 c -0.533297,2.616072 -0.901494,5.295024 -1.171875,8 h 53.445311 l -7.460936,40 H 22.648438 c 1.199673,2.75864 2.579526,5.41524 4.070313,8 h 34.203125 l -5.406252,28.98438 c 2.398852,1.40648 4.870148,2.69637 7.421876,3.85156 L 69.070312,136 h 56.343748 l 6.82032,31.32031 c 2.50526,-1.27042 4.93789,-2.65411 7.28124,-4.17187 L 133.60938,136 h 31.67187 c 1.49079,-2.58476 2.87064,-5.24136 4.07031,-8 h -37.48437 l -8.71094,-40 h 52.40625 c -0.27038,-2.704976 -0.63858,-5.383928 -1.17188,-8 H 121.41406 L 116.1875,56 H 108 l 5.22656,24 H 79.523436 L 84,56 Z m 2.16406,32 h 36.945314 l 8.70313,40 H 70.5625 Z" style="fill:#ae8034"/>
  <path style="opacity:0.2;fill:#ffffff" d="M 96 16 C 51.68 16 16 51.68 16 96 C 16 96.117469 16.005367 96.23299 16.007812 96.349609 C 16.355722 52.332211 51.897549 17 96 17 C 140.10506 17 175.64843 52.336386 175.99219 96.357422 C 175.99453 96.238196 176 96.119996 176 96 C 176 51.68 140.32 16 96 16 z "/>
  <path d="M 84,56 62.9375,168.83594 C 73.014984,173.39808 84.180764,176 96,176 c 13.07338,0 25.35858,-3.16458 36.23438,-8.67969 L 108,56 Z" style="fill:#ffffff"/>
  <path d="M 16.03125,97.0625 C 16.026654,97.376636 16,97.684608 16,98 c 0,11.39791 2.388754,22.20488 6.648438,32 H 169.35156 C 173.61124,120.20488 176,109.39791 176,98 c 0,-0.3154 -0.0268,-0.623364 -0.0312,-0.9375 -0.14446,11.00479 -2.49093,21.44907 -6.61724,30.9375 H 22.648438 C 18.522127,118.51157 16.175661,108.06729 16.03125,97.0625 Z" style="filter:url(#filter892);opacity:0.2"/>
  <path d="M 16.4375,88 C 16.174218,90.633948 16,93.293216 16,96 c 0,11.39791 2.388754,22.20488 6.648438,32 H 169.35156 C 173.61124,118.20488 176,107.39791 176,96 c 0,-2.706784 -0.1742,-5.366052 -0.4375,-8 z" style="fill:#ffd040"/>
  <path style="opacity:0.2;fill:#ffffff" d="M 26.71875 56 C 19.934616 67.762472 16 81.392052 16 96 C 16 96.127884 16.006487 96.253821 16.009766 96.380859 C 16.119647 82.007783 20.030898 68.595537 26.71875 57 L 165.28125 57 C 171.9691 68.595537 175.88035 82.007783 175.99023 96.380859 C 175.99351 96.253821 176 96.127879 176 96 C 176 81.392052 172.06538 67.762472 165.28125 56 L 26.71875 56 z "/>
  <path style="opacity:0.2;fill:#ffffff" d="M 16.4375 88 C 16.174218 90.633948 16 93.293216 16 96 C 16 96.115458 16.005842 96.229318 16.009766 96.34375 C 16.035234 93.863597 16.195586 91.42018 16.4375 89 L 175.5625 89 C 175.80443 91.42018 175.96477 93.863597 175.99023 96.34375 C 175.99416 96.229318 176 96.115455 176 96 C 176 93.293216 175.8258 90.633948 175.5625 88 L 16.4375 88 z "/>
  <path d="m 96.226564,60.007812 c -1.599512,-0.08024 -3.112524,0.716252 -3.914064,2.0625 L 80.578124,81.789064 C 78.935148,84.549536 80.98956,88.000832 84.273436,88 H 88 v 12 H 76 v -3.726564 c 8.32e-4,-3.283876 -3.450464,-5.338288 -6.210936,-3.695312 L 50.070312,104.3125 c -1.346248,0.80154 -2.14274,2.31455 -2.0625,3.91406 0.07396,1.44062 0.849864,2.74688 2.0625,3.46875 l 9.859376,5.85938 9.859376,5.86719 c 0.690116,0.41074 1.421032,0.59092 2.132812,0.57812 2.13536,-0.038 4.078752,-1.81053 4.078124,-4.27344 V 116 h 12 v 12 h -3.726564 c -3.283876,-8.3e-4 -5.338288,3.45046 -3.695312,6.21094 L 92.3125,153.92969 c 0.80154,1.34625 2.314552,2.14274 3.914064,2.0625 1.440616,-0.074 2.746876,-0.84987 3.468748,-2.0625 l 5.859378,-9.85938 5.86719,-9.85937 c 0.41074,-0.69012 0.59092,-1.42104 0.57812,-2.13282 -0.0381,-2.13536 -1.81053,-4.07875 -4.27344,-4.07812 H 104 v -12 h 12 v 3.72656 c -6.3e-4,2.46291 1.94276,4.23538 4.07812,4.27344 0.71178,0.0128 1.4427,-0.1674 2.13282,-0.57812 l 9.85937,-5.86719 9.85938,-5.85938 c 1.21263,-0.72187 1.98855,-2.02813 2.0625,-3.46875 0.0802,-1.59951 -0.71625,-3.11252 -2.0625,-3.91406 L 122.21094,92.578124 C 119.45046,90.935148 115.99917,92.98956 116,96.273436 V 100 H 104 V 88 h 3.72656 c 2.46291,6.28e-4 4.23538,-1.942764 4.27344,-4.078124 0.0128,-0.71178 -0.16738,-1.442696 -0.57812,-2.132812 l -5.86719,-9.859376 -5.859378,-9.859376 C 98.97344,60.857676 97.66718,60.08176 96.226564,60.007812 Z" style="fill:#3f3f3f"/>
</svg>
