<?xml version='1.0' encoding='utf-8'?>
<svg xmlns="http://www.w3.org/2000/svg" width="192" height="192" version="1.1" id="svg23">
  <defs>
    <filter style="color-interpolation-filters:sRGB" id="filter1060" x="-0.047999999" y="-0.047999999" width="1.096" height="1.096">
      <feGaussianBlur stdDeviation="0.96"/>
    </filter>
    <filter style="color-interpolation-filters:sRGB" id="filter1064" x="-0.04992064" y="-0.046221676" width="1.0998413" height="1.0924434">
      <feGaussianBlur stdDeviation="1.232578"/>
    </filter>
    <filter style="color-interpolation-filters:sRGB" id="filter1068" x="-0.050820886" y="-0.045475803" width="1.1016418" height="1.0909516">
      <feGaussianBlur stdDeviation="2.4253761"/>
    </filter>
    <filter style="color-interpolation-filters:sRGB" id="filter1072" x="-0.050820541" y="-0.045476072" width="1.1016411" height="1.0909521">
      <feGaussianBlur stdDeviation="2.4253906"/>
    </filter>
  </defs>
  <path style="filter:url(#filter1072);opacity:0.2" d="M 61.460936,52 108.03906,124.51562 105.96875,148 H 93.3125 l 9.84375,32 h 62.20313 C 171.21049,180 176,175.28297 176,169.50781 V 62.492188 C 176,56.717028 171.21049,52 165.35938,52 Z"/>
  <path style="fill:#e4e4e4" d="m 165.35577,176.00001 c 5.85111,0 10.64422,-4.71638 10.64422,-10.49154 V 58.491548 c 0,-5.77516 -4.79311,-10.49154 -10.64422,-10.49154 H 61.462384 l 46.579976,72.511812 -4.88476,55.48819 z"/>
  <path style="opacity:0.2;fill:#ffffff" d="M 61.460938 48 L 62.103516 49 L 165.35938 49 C 171.21048 49 176 53.717028 176 59.492188 L 176 58.492188 C 176 52.717028 171.21048 48 165.35938 48 L 61.460938 48 z M 107.72656 124.03125 L 103.15625 176 L 103.24414 176 L 107.72656 125.03125 L 107.96094 125.39648 L 108.03906 124.51562 L 107.72656 124.03125 z "/>
  <path style="filter:url(#filter1064);opacity:0.1" d="m 124,78 v 8 h -19.25 v 8.007812 H 108 V 94 h 24 v 0.008 h 11.125 c -2.0519,7.1234 -6.59122,13.99853 -11.01562,19.22656 -5.55156,-6.47681 -7.15857,-9.81397 -7.64063,-11.23456 h -8.15625 c 0.59935,1.83077 2.8361,6.71066 11.11719,16.27344 -3.57479,3.60118 -6.28125,5.73437 -6.28125,5.73437 l 2.5,7.71094 c 0,0 3.77883,-3.20471 8.50781,-8.14844 4.74501,5.07009 10.87001,11.16415 18.78906,18.42969 l 5.14844,-5.07031 C 147.61364,129.34825 141.3968,123.33317 136.82812,118.5 c 6.12364,-7.13919 12.34176,-16.27879 13.65626,-24.507812 h 13.50782 v 0.0156 h 0.0156 V 86 H 132 v -8 z"/>
  <path style="fill:#4352b8" d="m 130.53762,144 -37.222722,1e-5 9.842702,32 z"/>
  <path style="fill:#5a717f" d="m 124,76 v 8 h -19.25 v 8.007812 H 108 V 92 h 24 v 0.008 h 11.125 c -2.0519,7.123396 -6.59122,13.99853 -11.01562,19.22656 -5.55156,-6.47681 -7.15857,-9.81397 -7.64063,-11.23456 h -8.15625 c 0.59935,1.83077 2.8361,6.71066 11.11719,16.27344 -3.57479,3.60118 -6.28125,5.73437 -6.28125,5.73437 l 2.5,7.71094 c 0,0 3.77883,-3.20471 8.50781,-8.14844 4.74501,5.07009 10.87001,11.16415 18.78906,18.42969 l 5.14844,-5.07031 C 147.61364,127.34825 141.3968,121.33317 136.82812,116.5 c 6.12364,-7.13919 12.34176,-16.27879 13.65626,-24.507812 h 13.50781 v 0.0156 h 0.0156 V 84 H 132 v -8 z"/>
  <path style="filter:url(#filter1068);opacity:0.2" d="m 26.644232,20 c -5.851116,0 -10.644223,4.725522 -10.644223,10.50994 v 106.99592 c 0,5.76862 4.793107,10.49414 10.644223,10.49414 H 130.53762 L 88.8424,20 Z"/>
  <path fill="#4285f4" d="m 26.644232,16 c -5.851116,0 -10.644223,4.725522 -10.644223,10.50994 v 106.99592 c 0,5.76862 4.793107,10.49414 10.644223,10.49414 H 130.53762 L 88.8424,16 Z"/>
  <path style="filter:url(#filter1060);opacity:0.2" d="M 60.484376,62 C 46.969668,62 36,72.753844 36,86 36,99.24616 46.969668,110 60.484376,110 74.642652,110 84,100.2619 84,86.523436 84,84.554204 83.751488,83.476924 83.421876,82 H 75.492188 60 v 7.992188 L 67.390624,90 h 8.070312 a 16,16 0 0 1 -2.66406,5.5 c -0.0916,0.13752 -0.19076,0.2706 -0.28908,0.406248 a 16,16 0 0 1 -0.30468,0.39064 c -0.846716,1.0767 -1.904168,2.082092 -3.218748,2.906252 A 16,16 0 0 1 60,102 16,16 0 0 1 44,86 16,16 0 0 1 60,70 16,16 0 0 1 70.679688,74.093752 L 76.890624,68.25 C 72.636872,64.403844 67.092624,62 60.484376,62 Z"/>
  <path style="fill:#ffffff" d="M 60.484376,60 C 46.969668,60 36,70.753844 36,84 36,97.246156 46.969668,108 60.484376,108 74.642652,108 84,98.2619 84,84.523436 84,82.554204 83.751488,81.476924 83.421876,80 H 75.492188 60 v 7.992188 L 67.390624,88 h 8.070312 a 16,16 0 0 1 -2.66406,5.5 c -0.0916,0.13752 -0.19076,0.2706 -0.28908,0.406248 a 16,16 0 0 1 -0.30468,0.39064 c -0.846716,1.0767 -1.904168,2.082096 -3.218748,2.906248 A 16,16 0 0 1 60,100 16,16 0 0 1 44,84 16,16 0 0 1 60,68 16,16 0 0 1 70.679688,72.093752 L 76.890624,66.25 C 72.636872,62.403844 67.092624,60 60.484376,60 Z"/>
  <path style="opacity:0.2;fill:#ffffff" d="M 26.640625 16 C 20.789509 16 16 20.723394 16 26.507812 L 16 27.507812 C 16 21.723394 20.789509 17 26.640625 17 L 88.84375 17 L 130.21289 144 L 130.53906 144 L 88.84375 16 L 26.640625 16 z "/>
</svg>
