<?xml version='1.0' encoding='utf-8'?>
<svg xmlns="http://www.w3.org/2000/svg" width="192" height="192" version="1" id="svg22">
  <defs>
    <filter style="color-interpolation-filters:sRGB" id="filter860" x="0.05" width="1.09" y="0.05" height="1.10">
      <feGaussianBlur stdDeviation="1.40"/>
    </filter>
    <filter style="color-interpolation-filters:sRGB" id="filter878" x="0.04" width="1.08" y="0.06" height="1.12">
      <feGaussianBlur stdDeviation="2.96"/>
    </filter>
    <filter style="color-interpolation-filters:sRGB" id="filter898" x="0.04" width="1.08" y="0.06" height="1.12">
      <feGaussianBlur stdDeviation="0.80"/>
    </filter>
    <filter style="color-interpolation-filters:sRGB" id="filter914" x="0.01" width="1.03" y="0.20" height="1.39">
      <feGaussianBlur stdDeviation="0.55"/>
    </filter>
  </defs>
  <path style="filter:url(#filter878);opacity:0.20;fill:#000000" d="M 96,28 C 73.22,28 53.82,41.83 45.47,61.41 24.26,64.54 8,82.46 8,104.36 8,128.46 27.70,148 52,148 h 93.50 C 166.76,148 184,130.90 184,109.82 184,90.22 169.14,74.16 149.97,71.98 144.97,46.96 122.70,28 96,28 Z"/>
  <path d="M 96,24 C 73.22,24 53.82,37.83 45.47,57.41 24.26,60.54 8,78.46 8,100.36 8,124.46 27.70,144 52,144 h 93.50 C 166.76,144 184,126.90 184,105.82 184,86.22 169.14,70.16 149.97,67.98 144.97,42.96 122.70,24 96,24 Z" style="fill:#e4e4e4"/>
  <rect ry="6" rx="6" y="100" x="44" height="12" width="104" style="fill:#4f4f4f"/>
  <path d="m 60,104 v 60 c 0,4.43 3.57,8 8,8 h 56 c 4.43,0 8,-3.57 8,-8 v -60 z" style="filter:url(#filter860);opacity:0.10;fill-rule:evenodd"/>
  <path d="m 60,100 v 60 c 0,4.43 3.57,8 8,8 h 56 c 4.43,0 8,-3.57 8,-8 v -60 z" style="fill:#4c7dce;fill-rule:evenodd"/>
  <path d="m 72,122 v 8 h 48 v -8 z m 0,12 v 8 h 48 v -8 z m 0,12 v 8 h 48 v -8 z" style="filter:url(#filter898);opacity:0.20;fill-rule:evenodd"/>
  <path d="m 72,120 v 8 h 48 v -8 z m 0,12 v 8 h 48 v -8 z m 0,12 v 8 h 48 v -8 z" style="fill:#ffffff;fill-rule:evenodd"/>
  <path d="m 50,100 c -3.32,0 -6,2.68 -6,6 0,0.27 0.10,0.50 0.14,0.75 C 44.71,104.03 47.11,102 50,102 h 92 c 2.89,0 5.29,2.03 5.86,4.75 C 147.90,106.50 148,106.27 148,106 c 0,-3.32 -2.68,-6 -6,-6 z" style="filter:url(#filter914);opacity:0.10;fill-rule:evenodd"/>
  <path style="opacity:0.20;fill:#ffffff" d="M 96 24 C 73.22 24 53.82 37.83 45.47 57.41 C 24.26 60.53 8 78.47 8 100.37 C 8 100.47 8.01 100.58 8.02 100.69 C 8.35 79.10 24.48 61.50 45.47 58.41 C 53.82 38.83 73.22 25 96 25 C 122.70 25 144.97 43.96 149.97 68.98 C 168.92 71.14 183.65 86.86 183.98 106.15 C 183.99 106.04 184 105.93 184 105.82 C 184.00 86.22 169.14 70.16 149.97 67.98 C 144.97 42.96 122.70 24 96 24 z "/>
</svg>
