<svg xmlns="http://www.w3.org/2000/svg" id="svg18" width="192" height="192" preserveAspectRatio="xMidYMid" version="1.1"><defs><filter style="color-interpolation-filters:sRGB" id="filter870" width="1.07" height="1.13" x=".04" y=".07"><feGaussianBlur stdDeviation="2.49"/></filter><filter style="color-interpolation-filters:sRGB" id="filter886" width="1.08" height="1.13" x=".04" y=".07"><feGaussianBlur stdDeviation="2.51"/></filter></defs><path style="filter:url(#filter870);opacity:.2" d="M 16,70.93 V 149.09 C 16,155.12 20.83,160 26.80,160 H 52 V 98.20 Z M 176,70.93 140,98.20 V 160 H 165.20 C 171.17,160 176,155.12 176,149.09 Z"/><path style="fill:#4285f4" d="M 26.80,156 H 52 V 94.20 L 16,66.93 V 145.09 C 16,151.12 20.83,156 26.80,156 Z"/><path style="fill:#34a853" d="M 140,156 H 165.20 C 171.17,156 176,151.12 176,145.09 V 66.93 L 140,94.20 Z"/><path style="filter:url(#filter886);opacity:.2" d="M 31.17,40.04 C 23.20,40.59 16,47.13 16,56.39 V 70.93 L 52,98.20 96,130.91 140,98.20 176,70.93 V 56.39 C 176,42.91 160.76,35.22 150.08,43.31 L 140,50.94 96,83.63 52,50.94 41.92,43.31 C 38.58,40.78 34.80,39.79 31.17,40.04 Z"/><path style="fill:#fbbc04" d="M 140,46.94 V 94.20 L 176,66.93 V 52.39 C 176,38.91 160.76,31.21 150.08,39.30 Z"/><path style="fill:#ea4335" d="M 52,94.20 V 46.94 L 96,79.64 140,46.94 V 94.20 L 96,126.91 Z"/><path style="fill:#c5221f" d="M 16,52.39 V 66.93 L 52,94.20 V 46.94 L 41.92,39.30 C 31.24,31.21 16,38.91 16,52.39 Z"/><path style="opacity:.2;fill:#fff" d="M 32.54 36.00 C 32.08 36.00 31.62 36.01 31.17 36.04 C 23.20 36.59 16 43.12 16 52.39 L 16 53.39 C 16 44.12 23.20 37.59 31.17 37.04 C 34.80 36.79 38.58 37.78 41.92 40.30 L 52 47.94 L 96 80.63 L 140 47.94 L 150.08 40.30 C 160.76 32.22 176 39.91 176 53.39 L 176 52.39 C 176 38.91 160.76 31.22 150.08 39.30 L 140 46.94 L 96 79.63 L 52 46.94 L 41.92 39.30 C 39.00 37.09 35.74 36.06 32.54 36.00 z"/></svg>