<svg xmlns="http://www.w3.org/2000/svg" id="svg18" width="192" height="192" version="1"><defs><filter style="color-interpolation-filters:sRGB" id="filter859" width="1.11" height="1.09" x=".05" y=".04"><feGaussianBlur stdDeviation="2.88"/></filter><filter style="color-interpolation-filters:sRGB" id="filter887" width="1.24" height="1.06" x=".12" y=".03"><feGaussianBlur stdDeviation="1.2"/></filter></defs><rect style="filter:url(#filter859);opacity:.2;fill:#000" width="128" height="160" x="-164" y="-176" rx="8" ry="8" transform="matrix(0,-1,-1,0,0,0)"/><rect width="128" height="160" x="-160" y="-176" rx="8" ry="8" transform="matrix(0,-1,-1,0,0,0)" style="fill:#0fa0e6"/><path d="M 44,50 A 12,12 0 0 0 32,62 12,12 0 0 0 44,74 12,12 0 0 0 56,62 12,12 0 0 0 44,50 Z m 0,36 A 12,12 0 0 0 32,98 12,12 0 0 0 44,110 12,12 0 0 0 56,98 12,12 0 0 0 44,86 Z m 0,36 a 12,12 0 0 0 -12,12 12,12 0 0 0 12,12 12,12 0 0 0 12,-12 12,12 0 0 0 -12,-12 z" style="filter:url(#filter887);opacity:.1"/><path style="opacity:.2;fill:#fff" d="M 24 32 C 19.57 32 16 35.57 16 40 L 16 41 C 16 36.57 19.57 33 24 33 L 168 33 C 172.43 33 176 36.57 176 41 L 176 40 C 176 35.57 172.43 32 168 32 L 24 32 z"/><circle cx="44" cy="96" r="12" style="fill:#fff"/><circle cx="44" cy="60" r="12" style="fill:#fff"/><circle cx="44" cy="132" r="12" style="fill:#fff"/></svg>