<?xml version='1.0' encoding='utf-8'?>
<svg xmlns="http://www.w3.org/2000/svg" width="192" height="192" version="1" id="svg22">
  <defs>
    <filter style="color-interpolation-filters:sRGB" id="filter856" x="0.05" width="1.10" y="0.05" height="1.09">
      <feGaussianBlur stdDeviation="3.04"/>
    </filter>
    <filter style="color-interpolation-filters:sRGB" id="filter876" x="0.05" width="1.10" y="0.05" height="1.10">
      <feGaussianBlur stdDeviation="0.80"/>
    </filter>
  </defs>
  <rect transform="scale(-1,1)" ry="8" rx="8" y="20" x="-168" height="160" width="144" style="filter:url(#filter856);opacity:0.20"/>
  <rect transform="scale(-1,1)" ry="8" rx="8" y="16" x="-168" height="160" width="144" style="fill:#e4e4e4"/>
  <rect transform="scale(-1,1)" ry="0" rx="0" y="32" x="-152" height="112" width="112" style="fill:#4fc3f7"/>
  <path style="opacity:0.20;fill:#ffffff" d="M 32 16 C 27.57 16 24 19.57 24 24 L 24 25 C 24 20.57 27.57 17 32 17 L 160 17 C 164.43 17 168 20.57 168 25 L 168 24 C 168 19.57 164.43 16 160 16 L 32 16 z "/>
  <circle r="40" cy="84" cx="96" style="fill:#319df4"/>
  <circle r="40" cy="72" cx="108" style="fill:#0b82e3"/>
  <path d="M 95.57,32 C 88.45,39.21 84,49.06 84,60 c 0,22.09 17.91,40 40,40 10.91,0 20.78,-4.38 28,-11.46 V 32 Z" style="fill:#094fb4;fill-rule:evenodd"/>
  <path d="m 124,42.00 a 20,20 0 0 0 -20,20 20,20 0 0 0 20,20 20,20 0 0 0 20,-20 20,20 0 0 0 -20,-20 z m 0,8 a 12,12 0 0 1 12,12 12,12 0 0 1 -12,12 12,12 0 0 1 -12,-12 12,12 0 0 1 12,-12 z" style="filter:url(#filter876);opacity:0.20;fill-rule:evenodd"/>
  <path d="m 124,40.00 a 20,20 0 0 0 -20,20 20,20 0 0 0 20,20 20,20 0 0 0 20,-20 20,20 0 0 0 -20,-20 z m 0,8 a 12,12 0 0 1 12,12 12,12 0 0 1 -12,12 12,12 0 0 1 -12,-12 12,12 0 0 1 12,-12 z" style="fill:#ffffff;fill-rule:evenodd"/>
</svg>
