<?xml version='1.0' encoding='utf-8'?>
<svg xmlns="http://www.w3.org/2000/svg" width="192" height="192" version="1.1" id="svg24">
  <defs>
    <filter style="color-interpolation-filters:sRGB" id="filter862" x="0.04" width="1.09" y="0.05" height="1.10">
      <feGaussianBlur stdDeviation="3.12"/>
    </filter>
    <filter style="color-interpolation-filters:sRGB" id="filter894" x="0.04" width="1.09" y="0.05" height="1.10">
      <feGaussianBlur stdDeviation="2.06"/>
    </filter>
    <filter style="color-interpolation-filters:sRGB" id="filter910" x="0.05" width="1.09" y="0.05" height="1.10">
      <feGaussianBlur stdDeviation="1.20"/>
    </filter>
    <filter style="color-interpolation-filters:sRGB" id="filter926" x="0.06" width="1.12" y="0.04" height="1.08">
      <feGaussianBlur stdDeviation="0.76"/>
    </filter>
  </defs>
  <path d="M 70.15,28 A 12.92,13.09 0 0 0 58.99,34.49 L 13.76,113.04 a 12.92,13.09 0 0 0 0.41,13.86 l 25.85,39.27 A 12.92,13.09 0 0 0 50.77,172 h 90.46 a 12.92,13.09 0 0 0 10.75,-5.83 l 25.85,-39.27 a 12.92,13.09 0 0 0 0.41,-13.86 L 133.01,34.49 A 12.92,13.09 0 0 0 121.85,28 Z" style="filter:url(#filter862);opacity:0.20"/>
  <path d="m 68.87,120 -3.13,-1.04 -23.77,43.21 1.65,3.65 c 2.12,1.43 4.61,2.19 7.15,2.19 h 90.46 c 4.32,0.00 8.36,-2.19 10.75,-5.83 l 25.85,-39.27 c 0.59,0.90 1.06,-1.88 1.42,-2.90 l 0.22,-3.03 H 127.41 L 125.63,120 Z m -55.13,2.16 c 0.10,0.17 0.20,0.35 0.30,0.52 0.10,0.17 0.20,0.34 0.30,0.52 z" style="fill:#306ed2;fill-rule:evenodd"/>
  <path d="m 70.15,24 c -4.60,0.00 -8.85,2.47 -11.16,6.49 L 13.76,109.04 c -2.49,4.32 -2.33,9.70 0.41,13.86 l 25.85,39.27 c 0.95,1.44 2.17,2.68 3.60,3.64 L 114.19,39.60 121.80,26 Z" style="fill:#05ab5f;fill-rule:evenodd"/>
  <path d="m 70.16,26 c 0.24,0.00 0.48,0.01 0.71,0.03 l 22.66,41.12 a 7.11,7.00 0 0 1 4.20,-1.14 7.11,7.00 0 0 1 5.84,3.46 l 12.44,21 12.45,21.00 a 7.11,7.00 0 0 1 -4.77,10.40 l 0.08,0.13 h 55.94 c 0.35,0.63 0.71,-1.26 0.95,-1.95 0.01,0.02 0.02,0.04 0.02,0.05 0.41,-1.17 0.58,-2.38 0.66,-3.60 0.08,0.20 0.13,0.40 0.09,0.61 0.23,-1.65 0.72,-3.27 -1.57,-4.75 L 133.01,32.49 C 130.69,28.47 126.44,26.00 121.84,26 Z" style="filter:url(#filter894);opacity:0.20;fill-rule:evenodd"/>
  <path d="m 70.15,24 c 0.24,0.00 0.47,0.01 0.71,0.03 L 122.33,120 h 56.91 c 1.27,-3.63 0.90,-7.63 -1.01,-10.96 L 133.01,30.49 C 130.69,26.47 126.44,24.00 121.85,24 Z m 109.07,96.05 c 0.16,0.45 0.34,0.88 0.54,1.31 0.20,0.43 0.39,0.87 0.54,-1.31 z m 0.63,1.48 c 0.23,0.47 0.48,0.92 0.77,1.36 0.28,0.44 0.54,0.89 0.77,-1.36 z m -164.86,0.62 c 0.10,0.17 0.20,0.35 0.30,0.52 0.10,0.17 0.20,0.34 0.30,0.52 z" style="fill:#ffbc3b;fill-rule:evenodd"/>
  <path d="M 68.41,121.48 43.62,165.81 c 0.27,0.18 0.57,0.32 0.85,0.48 l 24.89,-44.52 a 7.11,7.00 0 0 1 0.95,0.30 z m -28.40,40.70 c 0.47,0.72 1.01,1.38 1.62,1.99 0.60,0.61 -1.14,-1.27 -1.62,-1.99 z m 0,2 c 0.47,0.72 1.02,1.38 1.62,1.99 0.60,0.61 -1.14,-1.28 -1.62,-1.99 z m 1.64,2.02 c 0.59,0.59 1.23,1.12 1.92,1.59 0.69,0.47 -1.33,-1.00 -1.92,-1.59 z" style="filter:url(#filter926);opacity:0.20;fill-rule:evenodd"/>
  <path d="m 96.31,66.01 a 7.11,7.00 0 0 0 -6.45,3.47 L 77.41,90.47 64.97,111.47 A 7.11,7.00 0 0 0 71.11,122 h 49.77 a 7.11,7.00 0 0 0 6.15,-10.53 L 114.59,90.47 102.15,69.47 a 7.11,7.00 0 0 0 -5.84,-3.47 z" style="filter:url(#filter910);opacity:0.20;fill-rule:evenodd"/>
  <path d="m 96.31,64.01 a 7.11,7.00 0 0 0 -6.45,3.47 L 77.41,88.47 64.97,109.47 A 7.11,7.00 0 0 0 71.11,120 h 49.77 a 7.11,7.00 0 0 0 6.15,-10.53 L 114.59,88.47 102.15,67.47 a 7.11,7.00 0 0 0 -5.84,-3.47 z" style="fill:#ffffff;fill-rule:evenodd"/>
  <path style="opacity:0.20;fill:#ffffff;fill-rule:evenodd" d="M 70.16 24 C 65.56 24.00 61.31 26.47 58.99 30.49 L 13.76 109.04 C 12.51 111.21 11.98 113.65 12.06 116.07 C 12.14 113.99 12.68 111.91 13.76 110.04 L 58.99 31.49 C 61.31 27.47 65.56 25.00 70.16 25 L 121.84 25 L 122.92 25 L 122.89 25.06 A 12.92 13.09 0 0 1 133.01 31.49 L 178.24 110.04 A 12.92 13.09 0 0 1 179.96 116.03 A 12.92 13.09 0 0 0 178.24 109.04 L 133.01 30.49 A 12.92 13.09 0 0 0 122.89 24.06 L 122.92 24 L 121.84 24 L 70.16 24 z "/>
</svg>
