<?xml version='1.0' encoding='utf-8'?>
<svg xmlns="http://www.w3.org/2000/svg" width="192" height="192" version="1" id="svg12">
  <defs>
    <filter style="color-interpolation-filters:sRGB" id="filter2477" x="0.04" y="0.06" width="1.08" height="1.11">
      <feGaussianBlur stdDeviation="2.86"/>
    </filter>
  </defs>
  <path style="filter:url(#filter2477);opacity:0.20;fill:#000000;color:#000000" d="m 30.67,42.05 a 17,17 0 0 0 -5.71,1.48 17,17 0 0 0 -8.42,22.52 l 41,90 a 17,17 0 0 0 22.52,8.42 17,17 0 0 0 8.42,-22.52 l -41,-90.00 a 17,17 0 0 0 -13.84,-9.88 17,17 0 0 0 -2.96,0.03 z m 50.00,0.04 a 16,16 0 0 0 -8.18,1.30 16,16 0 0 0 -8.10,21.13 l 41.00,92.00 a 16,16 0 0 0 21.13,8.10 16,16 0 0 0 8.10,-21.13 L 93.62,51.48 A 16,16 0 0 0 80.67,42.09 Z M 161,43.00 a 16,16 0 0 0 -16,16 16,16 0 0 0 16,16 16,16 0 0 0 16,-16 16,16 0 0 0 -16,-16 z m -19,33 a 17,17 0 0 0 -17,17 17,17 0 0 0 17,17.00 17,17 0 0 0 17,-17.00 17,17 0 0 0 -17,-17 z"/>
  <path style="fill:#0085f7;color:#000000" d="m 33.63,38.08 a 17,17 0 0 0 -8.68,1.45 17,17 0 0 0 -8.42,22.52 l 41,90.00 a 17,17 0 0 0 22.52,8.42 17,17 0 0 0 8.42,-22.52 l -41,-90.00 a 17,17 0 0 0 -13.84,-9.88 z"/>
  <path style="fill:#00a94b;color:#000000" d="m 159,89 a 17,17 0 0 1 -17,17 17,17 0 0 1 -17,-17 17,17 0 0 1 17,-17 17,17 0 0 1 17,17 z"/>
  <path style="fill:#ff4131;color:#000000" d="M 177,55 A 16,16 0 0 1 161,71 16,16 0 0 1 145,55 16,16 0 0 1 161,39 16,16 0 0 1 177,55 Z"/>
  <path style="fill:#ffbc00;color:#000000" d="m 80.67,38.09 a 16,16 0 0 0 -8.18,1.30 16,16 0 0 0 -8.10,21.13 l 41.00,92.00 a 16,16 0 0 0 21.13,8.10 16,16 0 0 0 8.10,-21.13 L 93.62,47.49 A 16,16 0 0 0 80.67,38.09 Z"/>
  <path style="opacity:0.20;fill:#ffffff;color:#000000" d="M 30.67 38.05 A 17 17 0 0 0 24.95 39.53 A 17 17 0 0 0 15.11 54.24 A 17 17 0 0 1 24.95 40.53 A 17 17 0 0 1 30.67 39.05 A 17 17 0 0 1 33.63 39.08 A 17 17 0 0 1 47.47 48.95 L 88.47 138.95 A 17 17 0 0 1 89.98 145.27 A 17 17 0 0 0 88.47 137.95 L 47.47 47.95 A 17 17 0 0 0 33.63 38.08 A 17 17 0 0 0 30.67 38.05 z M 80.67 38.09 A 16 16 0 0 0 72.49 39.38 A 16 16 0 0 0 63.13 55.84 A 16 16 0 0 1 72.49 40.38 A 16 16 0 0 1 80.67 39.09 A 16 16 0 0 1 93.62 48.49 L 134.62 140.49 A 16 16 0 0 1 135.97 146.50 A 16 16 0 0 0 134.62 139.49 L 93.62 47.49 A 16 16 0 0 0 80.67 38.09 z M 161 39 A 16 16 0 0 0 145 55 A 16 16 0 0 0 145.08 55.50 A 16 16 0 0 1 161 40 A 16 16 0 0 1 176.96 55.25 A 16 16 0 0 0 177 55 A 16 16 0 0 0 161 39 z M 142 72 A 17 17 0 0 0 125 89 A 17 17 0 0 0 125.07 89.50 A 17 17 0 0 1 142 73 A 17 17 0 0 1 158.96 89.27 A 17 17 0 0 0 159 89 A 17 17 0 0 0 142 72 z "/>
</svg>
