<svg xmlns="http://www.w3.org/2000/svg" id="svg28" width="192" height="192" version="1"><defs><filter style="color-interpolation-filters:sRGB" id="filter901" width="1.1" height="1.1" x=".05" y=".05"><feGaussianBlur stdDeviation="3.2"/></filter><filter style="color-interpolation-filters:sRGB" id="filter2198" width="1.1" height="1.1" x=".05" y=".05"><feGaussianBlur stdDeviation=".77"/></filter><filter style="color-interpolation-filters:sRGB" id="filter2202" width="1.08" height="1.12" x=".04" y=".06"><feGaussianBlur stdDeviation="1.9"/></filter><filter style="color-interpolation-filters:sRGB" id="filter2206" width="1.1" height="1.1" x=".05" y=".05"><feGaussianBlur stdDeviation="1.51"/></filter></defs><rect style="filter:url(#filter901);opacity:.2;fill:#000" width="160" height="160" x="-180" y="-176" rx="12" ry="12" transform="matrix(0,-1,-1,0,0,0)"/><rect width="160" height="160" x="-176" y="-176" rx="12" ry="12" transform="matrix(0,-1,-1,0,0,0)" style="fill:#fec400"/><path style="filter:url(#filter2206);opacity:.2;fill:#000;stop-color:#000" d="m 153,41 v 76 H 77.56 Z"/><path style="filter:url(#filter2198);opacity:.2;fill:#000;stop-color:#000" d="m 39,117 v 38 l 38.56,-38 z"/><path style="fill:#414141;stop-color:#000" d="m 39,115 v 38 l 38.56,-38 z"/><path style="fill:#fff;stop-color:#000" d="m 153,39 v 76 H 77.56 Z"/><path style="opacity:.2;fill:#fff" d="m 28,16 c -6.65,0 -12,5.35 -12,12 v 1 c 0,-6.65 5.35,-12 12,-12 h 136 c 6.65,0 12,5.35 12,12 v -1 c 0,-6.65 -5.35,-12 -12,-12 z"/><path style="filter:url(#filter2202);opacity:.2;fill:#000;stop-color:#000" d="M 39,41 H 153 L 77.56,117 H 39 Z"/><path style="fill:#ffeb3c;stop-color:#000" d="M 39,39 H 153 L 77.56,115 H 39 Z"/></svg>