<?xml version='1.0' encoding='utf-8'?>
<svg xmlns="http://www.w3.org/2000/svg" width="192" height="192" version="1" id="svg18">
  <defs>
    <filter style="color-interpolation-filters:sRGB" id="filter853" x="0.05" width="1.10" y="0.05" height="1.10">
      <feGaussianBlur stdDeviation="2.56"/>
    </filter>
    <filter style="color-interpolation-filters:sRGB" id="filter875" x="0.05" width="1.10" y="0.05" height="1.10">
      <feGaussianBlur stdDeviation="2.56"/>
    </filter>
  </defs>
  <path d="M 50.40,24 C 46.85,24 44,26.85 44,30.40 V 145.60 C 44,149.15 46.85,152 50.40,152 H 165.60 C 169.15,152 172,149.15 172,145.60 V 30.40 c 0,-3.55 -2.85,-6.40 -6.40,-6.40 z M 68,72 h 56 v 56 H 68 Z" style="filter:url(#filter875);opacity:0.20"/>
  <path d="M 50.40,20 C 46.85,20 44,22.85 44,26.40 V 141.60 C 44,145.15 46.85,148 50.40,148 H 165.60 C 169.15,148 172,145.15 172,141.60 V 26.40 c 0,-3.55 -2.85,-6.40 -6.40,-6.40 z M 68,68 h 56 v 56 H 68 Z" style="fill:#0ec0d6"/>
  <path d="m 44,68 v 80 h 80 V 124 H 68 V 68 Z" style="fill:#97c70d"/>
  <path d="M 26.40,48 C 22.85,48 20,50.85 20,54.40 V 169.60 C 20,173.15 22.85,176 26.40,176 H 141.60 C 145.15,176 148,173.15 148,169.60 V 54.40 C 148,50.85 145.15,48 141.60,48 Z M 44,72 h 80 v 80 H 44 Z" style="filter:url(#filter853);opacity:0.20"/>
  <path d="M 26.40,44 C 22.85,44 20,46.85 20,50.40 V 165.60 C 20,169.15 22.85,172 26.40,172 H 141.60 C 145.15,172 148,169.15 148,165.60 V 50.40 C 148,46.85 145.15,44 141.60,44 Z M 44,68 h 80 v 80 H 44 Z" style="fill:#e4e4e4"/>
  <path style="opacity:0.20;fill:#ffffff" d="M 50.40 20 C 46.85 20 44 22.85 44 26.40 L 44 27.40 C 44 23.85 46.85 21 50.40 21 L 165.60 21 C 169.15 21 172 23.85 172 27.40 L 172 26.40 C 172 22.85 169.15 20 165.60 20 L 50.40 20 z M 68 124 L 68 125 L 124 125 L 124 124 L 68 124 z "/>
  <path style="opacity:0.20;fill:#ffffff" d="M 26.40 44 C 22.85 44 20 46.85 20 50.40 L 20 51.40 C 20 47.85 22.85 45 26.40 45 L 141.60 45 C 145.15 45 148 47.85 148 51.40 L 148 50.40 C 148 46.85 145.15 44 141.60 44 L 26.40 44 z M 44 148 L 44 149 L 124 149 L 124 148 L 44 148 z "/>
</svg>
