<?xml version='1.0' encoding='utf-8'?>
<svg xmlns="http://www.w3.org/2000/svg" width="192" height="192" version="1.1" id="svg16">
  <defs>
    <filter style="color-interpolation-filters:sRGB" id="filter3709" x="-0.048000001" y="-0.048000001" width="1.096" height="1.096">
      <feGaussianBlur stdDeviation="3.2"/>
    </filter>
    <filter style="color-interpolation-filters:sRGB" id="filter4665" x="-0.047999998" y="-0.047999998" width="1.096" height="1.096">
      <feGaussianBlur stdDeviation="1.3"/>
    </filter>
    <filter style="color-interpolation-filters:sRGB" id="filter4669" x="-0.047999999" y="-0.047999999" width="1.096" height="1.096">
      <feGaussianBlur stdDeviation="1.16"/>
    </filter>
  </defs>
  <path style="filter:url(#filter3709);opacity:0.2;fill:#000000" d="m 28,20 c -6.648,0 -12,5.352 -12,12 v 68 68 c 0,6.648 5.352,12 12,12 h 68 a 80,80 0 0 0 80,-80 V 32 c 0,-6.648 -5.352,-12 -12,-12 H 96 Z"/>
  <path style="fill:#652ed5" d="m 28,16 c -6.648,0 -12,5.352 -12,12 v 68 68 c 0,6.648 5.352,12 12,12 H 96 A 80,80 0 0 0 176,96 V 28 c 0,-6.648 -5.352,-12 -12,-12 H 96 Z"/>
  <path style="filter:url(#filter4669);opacity:0.2;fill:#000000;stop-color:#000000" d="m 51,51 v 58 h 58 V 51 Z m 6,6 h 46 v 46 H 57 Z"/>
  <path style="fill:#ffffff;stop-color:#000000" d="m 51,49 v 58 h 58 V 49 Z m 6,6 h 46 v 46 H 57 Z"/>
  <path style="filter:url(#filter4665);opacity:0.2;fill:#000000;stop-color:#000000" d="M 110.5,80 A 32.5,32.5 0 0 0 78,112.5 32.5,32.5 0 0 0 110.5,145 32.5,32.5 0 0 0 143,112.5 32.5,32.5 0 0 0 110.5,80 Z m 0,6 A 26.5,26.5 0 0 1 137,112.5 26.5,26.5 0 0 1 110.5,139 26.5,26.5 0 0 1 84,112.5 26.5,26.5 0 0 1 110.5,86 Z"/>
  <path style="fill:#ffffff;stop-color:#000000" d="M 110.5,78 A 32.5,32.5 0 0 0 78,110.5 32.5,32.5 0 0 0 110.5,143 32.5,32.5 0 0 0 143,110.5 32.5,32.5 0 0 0 110.5,78 Z m 0,6 A 26.5,26.5 0 0 1 137,110.5 26.5,26.5 0 0 1 110.5,137 26.5,26.5 0 0 1 84,110.5 26.5,26.5 0 0 1 110.5,84 Z"/>
  <path style="opacity:0.1;fill:#ffffff" d="m 28,16 c -6.648,0 -12,5.352 -12,12 v 1 c 0,-6.648 5.352,-12 12,-12 h 68 68 c 6.648,0 12,5.352 12,12 v -1 c 0,-6.648 -5.352,-12 -12,-12 H 96 Z"/>
</svg>
