<?xml version='1.0' encoding='utf-8'?>
<svg xmlns="http://www.w3.org/2000/svg" width="192" height="192" version="1" id="svg22">
  <defs>
    <filter style="color-interpolation-filters:sRGB" id="filter881" x="0.06" width="1.11" y="0.04" height="1.08">
      <feGaussianBlur stdDeviation="2.78"/>
    </filter>
    <filter style="color-interpolation-filters:sRGB" id="filter920" x="0.05" width="1.10" y="0.05" height="1.10">
      <feGaussianBlur stdDeviation="0.76"/>
    </filter>
  </defs>
  <path style="filter:url(#filter881);opacity:0.20;fill:#000000" d="M 96,20 C 62.19,20 55.28,46.75 54.19,79.29 43.56,89.96 37,104.68 37,121 c 0,32.69 26.31,59 59,59 32.69,0 59,-26.31 59,-59 0,-16.32 -6.56,-31.04 -17.19,-41.71 C 136.72,46.75 129.81,20 96,20 Z m 0,17 c 11.87,0 20.12,9.25 23.31,29.76 C 112.16,63.70 104.29,62 96,62 87.71,62 79.84,63.70 72.69,66.76 75.88,46.25 84.13,37 96,37 Z"/>
  <path d="M 96.00,16 C 58.20,16 54.00,49.41 54.00,87 h 17.24 c 0.44,-37.59 8.95,-54 24.76,-54 15.81,0 25.20,16.41 24.76,54 H 138 C 138.00,49.41 133.80,16 96.00,16 Z" style="fill:#e4e4e4"/>
  <path style="opacity:0.20;fill:#ffffff" d="M 96 16 C 58.20 16 54.00 49.41 54 87 L 54.01 87 C 54.08 49.82 58.54 17 96 17 C 133.46 17 137.91 49.82 137.99 87 L 138 87 C 138.00 49.41 133.80 16 96 16 z M 71.23 84.31 C 71.23 85.19 71.23 86.09 71.24 87 L 71.24 87 C 71.23 86.09 71.23 85.20 71.23 84.31 z M 120.77 84.31 C 120.77 85.20 120.77 86.09 120.76 87 L 120.76 87 C 120.77 86.09 120.77 85.19 120.77 84.31 z "/>
  <rect transform="matrix(0,-1,-1,0,0,0)" ry="59.00" rx="59.00" y="-155" x="-176.00" height="118.00" width="118.00" style="fill:#a0a0a0"/>
  <rect transform="matrix(0,-1,-1,0,0,0)" ry="42" rx="42" y="-138" x="-159" height="84" width="84" style="fill:#5d5d5d"/>
  <path style="filter:url(#filter920);opacity:0.20;fill:#000000" d="m 117.01,97.99 -9.01,3.00 -6.21,2.07 c -6.20,-2.26 -13.14,0.72 -17.81,3.93 -6.63,6.64 -6.63,17.39 0,24.03 6.64,6.63 17.39,6.63 24.03,0 4.66,-4.67 6.19,-11.62 3.93,-17.81 l 2.07,-6.21 z"/>
  <path d="m 117.01,95.99 -9.01,3.00 -6.21,2.07 c -6.20,-2.26 -13.14,0.72 -17.81,3.93 -6.63,6.64 -6.63,17.39 0,24.03 6.64,6.63 17.39,6.63 24.03,0 4.66,-4.67 6.19,-11.62 3.93,-17.81 l 2.07,-6.21 z" style="fill:#ff5969"/>
  <path style="opacity:0.20;fill:#ffffff" d="M 117.01 95.99 L 108.00 98.99 L 101.79 101.07 C 95.59 98.81 88.65 100.34 83.97 105.00 C 80.53 108.44 78.89 113.00 79.02 117.51 C 79.15 113.33 80.78 109.19 83.97 106.00 C 88.65 101.34 95.59 99.81 101.79 102.07 L 108.00 99.99 L 116.64 97.11 L 117.01 95.99 z M 112.10 111.72 L 111.93 112.21 C 112.57 113.95 112.89 115.75 112.94 117.54 C 113.00 115.60 112.73 113.63 112.10 111.72 z "/>
</svg>
