<?xml version='1.0' encoding='utf-8'?>
<svg xmlns="http://www.w3.org/2000/svg" width="192" height="192" version="1" id="svg12">
  <defs>
    <filter style="color-interpolation-filters:sRGB" id="filter844" x="0.05" width="1.10" y="0.05" height="1.10">
      <feGaussianBlur stdDeviation="3.20"/>
    </filter>
  </defs>
  <path d="m 67.64,20.00 a 11.20,11.20 0 0 0 -7.92,3.27 l -40.34,40.21 a 11.20,11.20 0 0 0 -3.30,7.92 l 0.09,56.96 a 11.20,11.20 0 0 0 3.27,7.93 l 40.21,40.34 a 11.20,11.20 0 0 0 7.92,3.30 l 56.96,0.08 a 11.20,11.20 0 0 0 7.92,-3.27 L 172.62,136.52 a 11.20,11.20 0 0 0 3.29,-7.92 L 176,71.64 a 11.20,11.20 0 0 0 -3.27,-7.93 L 132.52,23.38 a 11.20,11.20 0 0 0 -6.96,-3.25 11.20,11.20 0 0 0 0.95,0.05 z M 80,60.00 h 32 l 24,24 v 32 l -24,24 H 80 l -24,-24 v -32 z" style="filter:url(#filter844);opacity:0.20"/>
  <path d="m 67.64,16 a 11.20,11.20 0 0 0 -7.92,3.27 l -40.34,40.21 a 11.20,11.20 0 0 0 -3.30,7.92 l 0.09,56.96 a 11.20,11.20 0 0 0 3.27,7.93 L 59.48,172.62 a 11.20,11.20 0 0 0 7.92,3.30 L 124.37,176 a 11.20,11.20 0 0 0 7.92,-3.27 L 172.62,132.52 a 11.20,11.20 0 0 0 3.29,-7.92 L 176,67.64 a 11.20,11.20 0 0 0 -3.27,-7.93 L 132.52,19.38 a 11.20,11.20 0 0 0 -6.96,-3.25 11.20,11.20 0 0 0 0.95,0.05 z M 80,56 h 32 l 24,24 v 32 l -24,24 H 80 L 56,112 V 80 Z" style="fill:#e4e4e4"/>
  <path d="M 80,16.02 V 56 h 32 L 140.55,27.45 132.52,19.38 c -1.86,-1.87 -4.33,-3.02 -6.96,-3.25 0.32,0.03 0.63,0.04 0.95,0.05 z M 27.45,51.45 19.38,59.48 c -1.87,1.86 -3.02,4.33 -3.25,6.96 0.03,0.32 0.04,0.63 0.05,0.95 L 16.02,112 H 56 V 80 Z M 136,80 v 32 l 28.55,28.55 8.07,-8.04 c 1.87,-1.86 3.02,-4.33 3.25,-6.96 0.03,0.32 0.04,0.63 0.05,0.95 L 175.98,80 Z m -56,56 -28.55,28.55 8.04,8.07 c 1.86,1.87 4.33,3.02 6.96,3.25 0.32,0.03 0.63,0.04 0.95,0.05 L 112,175.98 V 136 Z" style="fill:#11aef5"/>
  <path style="opacity:0.20;fill:#ffffff" d="M 67.64 16 A 11.20 11.20 0 0 0 59.72 19.27 L 19.38 59.48 A 11.20 11.20 0 0 0 16.09 67.40 L 16.09 68.40 A 11.20 11.20 0 0 1 19.38 60.48 L 59.72 20.27 A 11.20 11.20 0 0 1 67.64 17 L 124.60 17.08 A 11.20 11.20 0 0 1 125.55 17.12 A 11.20 11.20 0 0 1 132.52 20.38 L 172.73 60.71 A 11.20 11.20 0 0 1 176 68.64 L 176 67.64 A 11.20 11.20 0 0 0 172.73 59.71 L 132.52 19.38 A 11.20 11.20 0 0 0 125.55 16.12 A 11.20 11.20 0 0 0 124.60 16.08 L 67.64 16 z M 16.09 69.40 L 16 124.36 L 16.04 97.88 L 16.09 70.40 L 16.09 69.40 z M 56 112 L 56 113 L 80 137 L 112 137 L 136 113 L 136 112 L 112 136 L 80 136 L 56 112 z "/>
</svg>
