<svg xmlns="http://www.w3.org/2000/svg" id="svg34" width="192" height="192" version="1.1"><defs><filter style="color-interpolation-filters:sRGB" id="filter878" width="1.1" height="1.1" x=".05" y=".05"><feGaussianBlur stdDeviation="3.2"/></filter><filter style="color-interpolation-filters:sRGB" id="filter894" width="1.1" height="1.1" x=".05" y=".05"><feGaussianBlur stdDeviation=".96"/></filter></defs><path d="M 96,20 V 60 H 56 l -40,40 h 40 v 40 l 40,40 v -40 h 40 l 40,-40 H 136 V 60 Z" style="filter:url(#filter878);opacity:.2"/><path d="M 56,56 16,96 H 96 V 56" style="fill:#fec006"/><path d="M 136,56 96,16 v 80 h 40" style="fill:#f34235"/><path d="m 56,136 40,40 V 96 H 56" style="fill:#4bae4f"/><path d="M 136,136 176,96 H 96 v 40" style="fill:#2095f2"/><path style="opacity:.2;fill:#fff" d="M 96 96 L 96 97 L 175 97 L 176 96 L 96 96 z"/><path d="M 136,56 96,96 h 40 z" style="fill:#9c27b0"/><path d="m 56,96 v 40 L 96,96 Z" style="fill:#1ea362"/><path d="m 96,96 v 40 h 40 z" style="fill:#3e50b4"/><path d="M 56,56 96,96 V 56 Z" style="fill:#fe9700"/><path style="opacity:.2;fill:#fff" d="M 96 16 L 96 17 L 136 57 L 136 56 L 96 16 z M 56 56 L 16 96 L 17 96 L 56 57 L 96 57 L 96 56 L 56 56 z"/><path d="m 96,74 -8,16 -16,8 16,8 8,16 8,-16 16,-8 -16,-8 z" style="filter:url(#filter894);opacity:.2"/><path d="m 96,72 -8,16 -16,8 16,8 8,16 8,-16 16,-8 -16,-8 z" style="fill:#fff"/><path d="m 72,96 16,8 8,16 V 96 Z" style="fill:#ebebeb"/><path d="m 120,96 -16,8 -8,16 V 96 Z" style="fill:#dfdfdf"/></svg>