<?xml version='1.0' encoding='utf-8'?>
<svg xmlns="http://www.w3.org/2000/svg" width="192" height="192" version="1" id="svg14">
  <defs>
    <filter style="color-interpolation-filters:sRGB" id="filter856" x="-0.049846156" width="1.0996923" y="-0.046285716" height="1.0925714">
      <feGaussianBlur stdDeviation="2.16"/>
    </filter>
    <filter style="color-interpolation-filters:sRGB" id="filter884" x="-0.092571432" width="1.1851429" y="-0.032400001" height="1.0648">
      <feGaussianBlur stdDeviation="2.16"/>
    </filter>
  </defs>
  <path d="M 176,168 V 32 c 0,-6.648 -5.352,-12 -12,-12 h -32 c -6.648,0 -12,5.352 -12,12 v 148 h 44 c 6.648,0 12,-5.352 12,-12 z" style="filter:url(#filter884);opacity:0.2"/>
  <path d="M 176,164 V 28 c 0,-6.648 -5.352,-12 -12,-12 h -32 c -6.648,0 -12,5.352 -12,12 v 148 h 44 c 6.648,0 12,-5.352 12,-12 z" style="fill:#f57e04"/>
  <path d="m 76,68 c -6.648,0 -12,5.352 -12,12 v 44 H 28 c -6.648,0 -12,5.352 -12,12 v 32 c 0,6.648 5.352,12 12,12 h 92 V 80 c 0,-6.648 -5.352,-12 -12,-12 z" style="filter:url(#filter856);opacity:0.2"/>
  <path d="m 76,64 c -6.648,0 -12,5.352 -12,12 v 44 H 28 c -6.648,0 -12,5.352 -12,12 v 32 c 0,6.648 5.352,12 12,12 h 92 V 76 c 0,-6.648 -5.352,-12 -12,-12 z" style="fill:#ffc311"/>
  <path style="opacity:0.2;fill:#ffffff" d="M 132 16 C 125.352 16 120 21.352 120 28 L 120 29 C 120 22.352 125.352 17 132 17 L 164 17 C 170.648 17 176 22.352 176 29 L 176 28 C 176 21.352 170.648 16 164 16 L 132 16 z M 76 64 C 69.352 64 64 69.352 64 76 L 64 77 C 64 70.352 69.352 65 76 65 L 108 65 C 114.648 65 120 70.352 120 77 L 120 76 C 120 69.352 114.648 64 108 64 L 76 64 z M 28 120 C 21.352 120 16 125.352 16 132 L 16 133 C 16 126.352 21.352 121 28 121 L 64 121 L 64 120 L 28 120 z "/>
</svg>
