<svg xmlns="http://www.w3.org/2000/svg" id="svg24" width="192" height="192" version="1"><defs><filter style="color-interpolation-filters:sRGB" id="filter866" width="1.11" height="1.08" x=".06" y=".04"><feGaussianBlur stdDeviation="2.8"/></filter><filter style="color-interpolation-filters:sRGB" id="filter882" width="1.06" height="1.04" x=".03" y=".02"><feGaussianBlur stdDeviation="1.08"/></filter></defs><path d="M 148,20 H 44 c -4.43,0 -8,3.57 -8,8 v 144 c 0,4.43 3.57,8 8,8 h 104 c 4.43,0 8,-3.57 8,-8 V 28 c 0,-4.43 -3.57,-8 -8,-8 z" style="filter:url(#filter866);opacity:.2"/><path d="M 148,16 H 44 c -4.43,0 -8,3.57 -8,8 v 144 c 0,4.43 3.57,8 8,8 h 104 c 4.43,0 8,-3.57 8,-8 V 24 c 0,-4.43 -3.57,-8 -8,-8 z" style="fill:#e4e4e4"/><path d="M 68,34 A 16,16 0 0 0 52,50 16,16 0 0 0 68,66 16,16 0 0 0 84,50 16,16 0 0 0 68,34 Z m 56,0 A 16,16 0 0 0 108,50 16,16 0 0 0 124,66 16,16 0 0 0 140,50 16,16 0 0 0 124,34 Z M 68,82 A 16,16 0 0 0 52,98 16,16 0 0 0 68,114 16,16 0 0 0 84,98 16,16 0 0 0 68,82 Z m 56,0 a 16,16 0 0 0 -16,16 16,16 0 0 0 16,16 16,16 0 0 0 16,-16 16,16 0 0 0 -16,-16 z m -56,48 a 16,16 0 0 0 -16,16 16,16 0 0 0 16,16 16,16 0 0 0 16,-16 16,16 0 0 0 -16,-16 z m 56,0 a 16,16 0 0 0 -16,16 16,16 0 0 0 16,16 16,16 0 0 0 16,-16 16,16 0 0 0 -16,-16 z" style="filter:url(#filter882);opacity:.1"/><path style="opacity:.2;fill:#fff" d="M 44 16 C 39.57 16 36 19.57 36 24 L 36 25 C 36 20.57 39.57 17 44 17 L 148 17 C 152.43 17 156 20.57 156 25 L 156 24 C 156 19.57 152.43 16 148 16 L 44 16 z"/><circle cx="68" cy="96" r="16" style="fill:#ff842f"/><circle cx="124" cy="96" r="16" style="fill:#4f4f4f"/><circle cx="68" cy="48" r="16" style="fill:#ff842f"/><circle cx="124" cy="48" r="16" style="fill:#4f4f4f"/><circle cx="68" cy="144" r="16" style="fill:#4f4f4f"/><circle cx="124" cy="144" r="16" style="fill:#4f4f4f"/></svg>