<svg xmlns="http://www.w3.org/2000/svg" id="svg18" width="192" height="192" version="1"><defs><filter style="color-interpolation-filters:sRGB" id="filter853" width="1.11" height="1.09" x=".05" y=".04"><feGaussianBlur stdDeviation="2.72"/></filter><filter style="color-interpolation-filters:sRGB" id="filter869" width="1.07" height="1.18" x=".03" y=".09"><feGaussianBlur stdDeviation="2.28"/></filter></defs><rect width="120" height="152" x="-160" y="-172" rx="7.5" ry="7.6" transform="matrix(0,-1,-1,0,0,0)" style="filter:url(#filter853);opacity:.2"/><rect width="120" height="152" x="-156" y="-172" rx="7.5" ry="7.6" transform="matrix(0,-1,-1,0,0,0)" style="fill:#0fa0e6"/><path d="m 18,78 c -3.32,0 -6,2.68 -6,6 v 48 c 0,3.32 2.68,6 6,6 h 20 c 3.32,0 6,-2.68 6,-6 V 84 c 0,-3.32 -2.68,-6 -6,-6 z m 40,0 c -3.32,0 -6,2.68 -6,6 v 48 c 0,3.32 2.68,6 6,6 h 76 c 3.32,0 6,-2.68 6,-6 V 84 c 0,-3.32 -2.68,-6 -6,-6 z m 96,0 c -3.32,0 -6,2.68 -6,6 v 48 c 0,3.32 2.68,6 6,6 h 20 c 3.32,0 6,-2.68 6,-6 V 84 c 0,-3.32 -2.68,-6 -6,-6 z" style="filter:url(#filter869);opacity:.2"/><rect width="32" height="60" x="12" y="76" rx="6" ry="6" style="fill:#e4e4e4"/><rect width="32" height="60" x="148" y="76" rx="6" ry="6" style="fill:#e4e4e4"/><rect width="88" height="60" x="52" y="76" rx="6" ry="6" style="fill:#e4e4e4"/><path style="opacity:.2;fill:#fff" d="M 27.60 36 C 23.39 36 20 39.34 20 43.50 L 20 44.50 C 20 40.34 23.39 37 27.60 37 L 164.40 37 C 168.61 37 172 40.34 172 44.50 L 172 43.50 C 172 39.34 168.61 36 164.40 36 L 27.60 36 z"/></svg>