<?xml version='1.0' encoding='utf-8'?>
<svg xmlns="http://www.w3.org/2000/svg" width="192" height="192" version="1.1" id="svg16">
  <defs>
    <filter style="color-interpolation-filters:sRGB" id="filter853" x="0.05" y="0.05" width="1.10" height="1.10">
      <feGaussianBlur stdDeviation="3.20"/>
    </filter>
    <filter style="color-interpolation-filters:sRGB" id="filter860" x="0.04" y="0.06" width="1.08" height="1.11">
      <feGaussianBlur stdDeviation="1.88"/>
    </filter>
  </defs>
  <circle style="filter:url(#filter853);opacity:0.20" cx="96" cy="100" r="80"/>
  <circle style="fill:#4f8ef5" cx="96" cy="96" r="80"/>
  <path style="opacity:0.20;fill:#ffffff" d="M 96 16 A 80 80 0 0 0 16 96 A 80 80 0 0 0 16.02 96.64 A 80 80 0 0 1 96 17 A 80 80 0 0 1 175.98 96.30 A 80 80 0 0 0 176 96 A 80 80 0 0 0 96 16 z "/>
  <path style="filter:url(#filter860);opacity:0.20" d="m 136,62.00 a 12,12 0 0 0 -8.48,3.52 L 71.52,121.52 a 12,12 0 0 0 0,16.97 12,12 0 0 0 16.97,0 L 144.48,82.49 a 12,12 0 0 0 0,-16.97 A 12,12 0 0 0 136,62.00 Z m -80,20 A 16,16 0 0 0 40,98.00 16,16 0 0 0 56,114.00 16,16 0 0 0 72,98.00 16,16 0 0 0 56,82.00 Z"/>
  <circle style="fill:#fcc014" cx="56" cy="96" r="16"/>
  <path style="fill:none;stroke:#ffffff;stroke-width:24;stroke-linecap:round;stroke-linejoin:round" d="M 80,128 136,72"/>
  <path style="opacity:0.20;fill:#ffffff" d="M 56 80 A 16 16 0 0 0 40 96 A 16 16 0 0 0 40.03 96.48 A 16 16 0 0 1 56 81 A 16 16 0 0 1 71.98 96.25 A 16 16 0 0 0 72 96 A 16 16 0 0 0 56 80 z "/>
</svg>
