<svg xmlns="http://www.w3.org/2000/svg" id="svg26" width="192" height="192" version="1"><defs><filter style="color-interpolation-filters:sRGB" id="filter866" width="1.1" height="1.1" x=".05" y=".05"><feGaussianBlur stdDeviation="2.88"/></filter><filter style="color-interpolation-filters:sRGB" id="filter882" width="1.1" height="1.1" x=".05" y=".05"><feGaussianBlur stdDeviation=".96"/></filter><filter style="color-interpolation-filters:sRGB" id="filter890" width="1.03" height="1.08" x=".02" y=".04"><feGaussianBlur stdDeviation="1.2"/></filter></defs><rect width="144" height="144" x="-172" y="-168" rx="7.2" ry="7.2" transform="matrix(0,-1,-1,0,0,0)" style="filter:url(#filter866);opacity:.2"/><path d="M 168,160.80 V 39.20 c 0,-3.99 -3.21,-7.20 -7.20,-7.20 H 31.20 c -3.99,0 -7.20,3.21 -7.20,7.20 v 121.60 c 0,3.99 3.21,7.20 7.20,7.20 h 129.60 c 3.99,0 7.20,-3.21 7.20,-7.20 z" style="fill:#528ff5"/><path d="m 31.96,25.99 c -3.96,0 -6.69,1.19 -8.33,7.46 l -10.94,39.35 c -2.87,10.70 5.03,21.62 15.73,24.49 10.70,2.87 22.86,-3.18 24.50,-14.14 l 0.60,-4.02 C 52.99,89.57 65.31,97.99 76,97.99 c 11.08,0 20,-8.92 20,-20 0,11.08 8.92,20 20,20 10.69,0 23.01,-8.41 22.47,-18.85 l 0.60,4.02 c 1.64,10.96 13.80,17.01 24.50,14.14 10.70,-2.87 18.60,-13.79 15.73,-24.49 l -10.94,-39.35 c -1.63,-6.27 -4.37,-7.46 -8.33,-7.46 z" style="filter:url(#filter890);opacity:.2;fill-rule:evenodd"/><path d="m 61.41,24 c 0.11,1.02 0.23,2.05 0.38,3.08 l -7.49,50.07 C 52.99,87.59 65.31,96 76,96 87.08,96 96,87.08 96,76 V 24.00 Z" style="fill:#4a5bb9;fill-rule:evenodd"/><path d="M 23.64,31.46 12.70,70.81 c -2.87,10.70 5.03,21.62 15.73,24.49 10.70,2.87 22.86,-3.18 24.50,-14.14 L 61.02,27.08 C 61.18,26.05 61.29,25.02 61.41,24 H 31.96 C 28,24 25.27,25.19 23.64,31.46 Z" style="fill:#8ccaf8;fill-rule:evenodd"/><path d="m 130.59,24 c 0.11,1.02 0.23,2.05 0.38,3.08 l 7.49,50.07 C 139.01,87.59 126.69,96 116,96 104.92,96 96,87.08 96,76 V 24.00 Z" style="fill:#8ccaf8;fill-rule:evenodd"/><path d="M 168.36,31.46 179.30,70.81 c 2.87,10.70 -5.03,21.62 -15.73,24.49 -10.70,2.87 -22.86,-3.18 -24.50,-14.14 l -8.09,-54.09 c 0.15,-1.03 0.27,-2.06 0.38,-3.08 h 29.44 c 3.96,0 6.69,1.19 8.33,7.46 z" style="fill:#4a5bb9;fill-rule:evenodd"/><path style="opacity:.1;fill:#fff;fill-rule:evenodd" d="M 31.96 24 C 28.00 24 25.27 25.19 23.63 31.46 L 12.70 70.81 C 12.28 72.37 12.16 73.93 12.19 75.48 C 12.23 74.26 12.37 73.04 12.70 71.81 L 23.63 32.46 C 25.27 26.19 28.00 25 31.96 25 L 160.04 25 C 164.00 25 166.73 26.19 168.37 32.46 L 179.30 71.81 C 179.63 73.04 179.77 74.26 179.81 75.48 C 179.84 73.93 179.72 72.37 179.30 70.81 L 168.37 31.46 C 166.73 25.19 164.00 24 160.04 24 L 31.96 24 z"/><path d="m 13.48,68 0.78,2.81 c -2.87,10.70 5.03,21.62 15.73,24.49 10.70,2.87 22.86,-3.18 24.50,-14.14 l 0.60,-4.02 C 52.99,87.59 65.31,96 76,96 c 11.08,0 20,-8.92 20,-20 0,11.08 8.92,20 20,20 10.69,0 23.01,-8.41 22.47,-18.85 l 0.60,4.02 c 1.64,10.96 13.80,17.01 24.50,14.14 C 174.27,92.44 182.17,81.51 179.30,70.81 L 178.52,68 Z" style="opacity:.1;fill-rule:evenodd"/><path d="m 132.49,110 c -9.40,0 -17.79,5.40 -21.88,13.28 C 108.95,126.52 108,130.16 108,134 c 0,3.96 1.01,7.72 2.77,11 4.14,7.72 12.43,13 21.72,13 6.17,0 11.68,-2.32 15.82,-6.16 C 153.06,147.44 156,141.08 156,134 c 0,-1.36 0.13,-2.70 0.34,-4 h -3.66 -4.54 -15.46 v 8 h 15.47 c 0.89,3.46 -2.92,6.53 -5.77,8.70 A 16,16 0 0 1 132.00,150 16,16 0 0 1 117.18,140.01 16,16 0 0 1 116.00,134 a 16,16 0 0 1 1.12,-5.86 16,16 0 0 1 14.88,-10.14 16,16 0 0 1 10.77,4.20 l 5.83,-5.80 C 144.43,112.44 138.80,110 132.49,110 Z" style="filter:url(#filter882);opacity:.2"/><path d="m 132.49,108 c -9.40,0 -17.79,5.40 -21.88,13.28 C 108.95,124.52 108,128.16 108,132 c 0,3.96 1.01,7.72 2.77,11 4.14,7.72 12.43,13 21.72,13 6.17,0 11.68,-2.32 15.82,-6.16 C 153.06,145.44 156,139.08 156,132 c 0,-1.36 0.13,-2.70 0.34,-4 h -3.66 -4.54 -15.46 v 8 h 15.47 c 0.89,3.46 -2.92,6.53 -5.77,8.70 A 16,16 0 0 1 132.00,148 16,16 0 0 1 117.18,138.01 16,16 0 0 1 116.00,132 a 16,16 0 0 1 1.12,-5.86 16,16 0 0 1 14.88,-10.14 16,16 0 0 1 10.77,4.20 l 5.83,-5.80 C 144.43,110.44 138.80,108 132.49,108 Z" style="fill:#fff"/></svg>