<?xml version='1.0' encoding='utf-8'?>
<svg xmlns="http://www.w3.org/2000/svg" width="192" height="192" version="1.1" id="svg28">
  <defs>
    <filter style="color-interpolation-filters:sRGB" id="filter1450" x="0.05" y="0.05" width="1.10" height="1.10">
      <feGaussianBlur stdDeviation="2.98"/>
    </filter>
    <filter style="color-interpolation-filters:sRGB" id="filter1492" x="0.06" y="0.04" width="1.11" height="1.08">
      <feGaussianBlur stdDeviation="2.12"/>
    </filter>
    <filter style="color-interpolation-filters:sRGB" id="filter1577" x="0.05" y="0.05" width="1.10" height="1.10">
      <feGaussianBlur stdDeviation="2.98"/>
    </filter>
    <filter style="color-interpolation-filters:sRGB" id="filter1581" x="0.05" y="0.05" width="1.10" height="1.10">
      <feGaussianBlur stdDeviation="1.62"/>
    </filter>
    <filter style="color-interpolation-filters:sRGB" id="filter1623" x="0.05" y="0.05" width="1.10" height="1.10">
      <feGaussianBlur stdDeviation="0.74"/>
    </filter>
  </defs>
  <path style="filter:url(#filter1450);opacity:0.20;fill:#000000" d="m 151.83,29 v 0.01 H 23.45 C 19.32,29.01 16,32.33 16,36.46 v 128.13 5.72 0.24 C 16,174.68 19.32,178 23.45,178 h 0.00 134.10 c 0.00,0 0.00,0 0.00,0 0.48,0.00 0.95,0.05 1.40,0.14 0.08,0.01 0.15,0.03 0.23,0.05 0.33,0.08 0.66,0.18 0.97,0.30 0.25,0.09 0.48,0.20 0.72,0.32 0.12,0.06 0.24,0.13 0.36,0.20 1.62,0.93 2.84,-2.44 3.40,-4.26 0.02,0.05 0.03,0.10 0.04,0.14 0.08,0.29 0.15,0.58 0.20,0.89 0.06,0.34 0.09,0.68 0.10,-1.02 0.00,0.04 0.01,0.08 0.01,0.13 v 0.12 -5.72 -122.53 -5.73 c 0,0.51 0.05,-1.01 0.15,-1.50 C 164.16,31.55 161.16,29 157.55,29 Z"/>
  <rect fill="#e9e5dc" width="148.99" height="149.00" x="-174" y="-165.00" rx="7.45" ry="7.45" transform="matrix(0,-1,-1,0,0,0)"/>
  <path fill="#2095f2" fill-rule="evenodd" d="M 23.45,174 90.50,106.95 157.55,174 Z"/>
  <path fill="#1ea362" fill-rule="evenodd" d="M 165.00,166.55 97.95,99.50 165.00,32.46 Z"/>
  <path fill="#feea3a" fill-rule="evenodd" d="M 97.09,93.80 83.92,106.97 151.82,175 l 3.92,-3.72 c 3.00,-2.84 4.06,-1.72 6.34,-5.17 l -7.58,-7.53 -57.42,-64.79 z" style="filter:url(#filter1581);opacity:0.20;fill:#000000"/>
  <path fill="#feea3a" fill-rule="evenodd" d="M 97.09,92.80 83.92,105.97 151.82,174 h 5.73 c 4.13,0 7.45,-3.45 7.45,-7.57 v -5.72 L 97.09,92.80 Z"/>
  <path fill="#ffffff" fill-rule="evenodd" d="M 151.83,26.01 20.81,162.73 l -3.12,5.20 c -2.12,3.54 6.52,-3.00 8.35,0.70 L 29.18,175 165,39.18 V 33.45 C 165,29.32 161.68,26 157.55,26 h -5.72 z" style="filter:url(#filter1577);opacity:0.20;fill:#000000"/>
  <path fill="#ffffff" fill-rule="evenodd" d="M 151.83,25.01 16,160.59 v 5.72 C 16,170.44 19.32,174 23.45,174 h 5.73 L 165,38.18 V 32.45 C 165,28.32 161.68,25 157.55,25 h -5.72 z"/>
  <path fill="#f34235" d="M 131.50,17.00 C 106.92,17.00 87,36.66 87,60.92 c 0,1.52 0.13,2.92 0.28,4.39 0.12,1.47 0.32,2.95 0.56,4.39 5.10,30.87 25.87,52.73 43.67,70.30 17.80,-17.57 38.57,-39.43 43.67,-70.30 0.24,-1.44 0.43,-2.92 0.56,-4.39 C 175.87,63.83 176,62.43 176,60.92 176,36.66 156.08,17.00 131.50,17.00 Z" style="filter:url(#filter1492);opacity:0.20;fill:#000000"/>
  <path style="opacity:0.20;fill:#ffffff" d="M 23.45 25.01 C 19.32 25.01 16 28.33 16 32.46 L 16 33.46 C 16 29.33 19.32 26.01 23.45 26.01 L 157.55 26.01 C 161.68 26.01 165 29.33 165 33.46 L 165 32.46 C 165 28.33 161.68 25.01 157.55 25.01 L 23.45 25.01 z "/>
  <path fill="#f34235" d="M 131.50,14.00 C 106.92,14.00 87,33.66 87,57.92 c 0,1.52 0.13,2.92 0.28,4.39 0.12,1.47 0.32,2.95 0.56,4.39 5.10,30.87 25.87,52.73 43.67,70.30 17.80,-17.57 38.57,-39.43 43.67,-70.30 0.24,-1.44 0.43,-2.92 0.56,-4.39 C 175.87,60.83 176,59.43 176,57.92 176,33.66 156.08,14.00 131.50,14.00 Z"/>
  <path fill="#ffffff" d="M 131.50,39 C 141.72,39 150,47.28 150,57.50 150,67.72 141.72,76 131.50,76 121.28,76 113,67.72 113,57.50 113,47.28 121.28,39 131.50,39 Z" style="filter:url(#filter1623);opacity:0.20;fill:#000000"/>
  <path fill="#ffffff" d="M 131.50,37 C 141.72,37 150,45.28 150,55.50 150,65.72 141.72,74 131.50,74 121.28,74 113,65.72 113,55.50 113,45.28 121.28,37 131.50,37 Z"/>
  <path style="opacity:0.20;fill:#ffffff" d="M 131.50 14 C 106.92 14 87 33.66 87 57.92 C 87 58.06 87.01 58.19 87.02 58.33 C 87.34 34.35 107.12 15 131.50 15 C 155.88 15 175.66 34.35 175.98 58.33 C 175.99 58.19 176 58.06 176 57.92 C 176 33.66 156.08 14 131.50 14 z "/>
</svg>
