<?xml version='1.0' encoding='utf-8'?>
<svg xmlns="http://www.w3.org/2000/svg" width="192" height="192" version="1" id="svg16">
  <defs>
    <filter style="color-interpolation-filters:sRGB" id="filter853" x="-0.048000001" width="1.096" y="-0.048000001" height="1.096">
      <feGaussianBlur stdDeviation="3.2"/>
    </filter>
    <filter style="color-interpolation-filters:sRGB" id="filter869" x="-0.050157927" width="1.1003159" y="-0.046020096" height="1.0920402">
      <feGaussianBlur stdDeviation="2.3407032"/>
    </filter>
  </defs>
  <rect style="filter:url(#filter853);opacity:0.2;fill:#000000" width="160" height="160" x="-180" y="-176" rx="80" ry="80" transform="matrix(0,-1,-1,0,0,0)"/>
  <rect transform="matrix(0,-1,-1,0,0,0)" ry="80" rx="80" y="-176" x="-176" height="160" width="160" style="fill:#1a9f5e"/>
  <path style="opacity:0.2;fill:#ffffff" d="M 96 16 C 51.68 16 16 51.68 16 96 C 16 96.336 16.002 96.6675 16 97 C 16 52.68 51.68 17 96 17 C 140.32 17 176 52.68 176 97 C 175.998 96.6675 176 96.336 176 96 C 176 51.68 140.32 16 96 16 z "/>
  <path d="m 96,44.001677 c -30.927944,0 -56,25.072056 -56,56.000003 0.0336,25.70987 17.883292,46.94215 42.523436,54.28124 4.06188,1.20984 6.30636,4.55024 9,7.375 2.31,2.42245 4.35716,4.40782 4.554688,4.41406 0.19752,0.006 2.090648,-1.77702 4.203126,-3.96093 2.67479,-2.76526 5.36795,-6.48835 10.11719,-8.01563 C 134.554,146.32739 151.98932,125.37555 152,100.00168 152,69.073733 126.92794,44.001677 96,44.001677 Z" style="filter:url(#filter869);opacity:0.2"/>
  <path d="m 96,40 c -30.927944,0 -56,25.072056 -56,56 0.0336,25.70988 17.883292,46.94216 42.523436,54.28125 4.06188,1.20983 6.30636,4.55024 9,7.375 2.31,2.42245 4.35716,4.40782 4.554688,4.41406 0.19752,0.006 2.090648,-1.77702 4.203126,-3.96093 2.67479,-2.76526 5.36795,-6.48835 10.11719,-8.01563 C 134.554,142.32572 151.98932,121.37388 152,96 152,65.072056 126.92794,40 96,40 Z" style="fill:#ffffff"/>
  <path d="m 80,60 c -4.432,0 -8,3.568 -8,8 v 56 c 0,4.432 3.568,8 8,8 h 32 c 4.432,0 8,-3.568 8,-8 V 68 c 0,-4.432 -3.568,-8 -8,-8 z m 0,12 h 32 v 48 H 80 Z" style="fill:#4f4f4f;fill-rule:evenodd"/>
</svg>
