<?xml version='1.0' encoding='utf-8'?>
<svg xmlns="http://www.w3.org/2000/svg" width="192" height="192" version="1" id="svg28">
  <defs>
    <filter style="color-interpolation-filters:sRGB" id="filter901" x="0.05" width="1.10" y="0.05" height="1.10">
      <feGaussianBlur stdDeviation="3.20"/>
    </filter>
    <filter style="color-interpolation-filters:sRGB" id="filter3941" x="0.04" y="0.06" width="1.08" height="1.12">
      <feGaussianBlur stdDeviation="1.77"/>
    </filter>
  </defs>
  <rect style="filter:url(#filter901);opacity:0.20;fill:#000000" width="160" height="160" x="-180" y="-176" rx="12" ry="12" transform="matrix(0,-1,-1,0,0,0)"/>
  <rect transform="matrix(0,-1,-1,0,0,0)" ry="12" rx="12" y="-176" x="-176" height="160" width="160" style="fill:#003959"/>
  <path style="opacity:0.10;fill:#ffffff" d="m 28,16 c -6.65,0 -12,5.35 -12,12 v 1 c 0,-6.65 5.35,-12 12,-12 h 136 c 6.65,0 12,5.35 12,12 v -1 c 0,-6.65 -5.35,-12 -12,-12 z"/>
  <path style="filter:url(#filter3941);opacity:0.20;fill:#000000" d="m 65.93,62.93 0.05,1.04 c 0.02,0.57 0.07,1.92 0.21,3.00 0.78,5.82 3.58,11.75 5.94,15.62 L 72.90,84 H 55.95 39 c 0,0.48 0.66,2.75 1.20,4.22 1.68,4.53 4.55,8.74 8.73,12.82 5.74,5.60 12.75,9.59 21.22,12.33 5.43,1.76 9.21,2.44 16.22,2.92 l 1.38,0.10 -5.70,5.73 c -6.38,6.41 -6.32,6.33 -6.17,8.22 0.13,1.67 1.13,2.96 2.67,3.46 0.83,0.27 2.11,0.15 2.96,0.27 0.43,0.21 3.59,-3.17 9.12,-8.78 L 98.98,116.30 99,130 c 0,2.21 1.79,4 4,4 2.21,0 4,-1.79 4,-4 V 116 H 111.21 115 v 14 a 4,4 0 0 0 4,4 4,4 0 0 0 4,-4 v -7.31 c 0,-4.22 0.07,-8.62 0.16,-9.78 0.85,-11.01 -5.16,-20.07 -12.94,-27.82 -3.40,-3.39 -7.03,-6.11 -11.49,-8.60 -3.04,-1.70 -4.61,-2.37 -19.12,-8.20 z M 130.55,63 c -1.62,0 -2.60,0.85 -3.85,3.32 -1.93,3.81 -3.25,8.17 -3.90,12.83 0.29,2.09 0.85,7.05 0.52,9.20 1.11,7.33 4.17,13.70 9.05,18.84 3.48,3.66 7.09,6.15 11.94,8.22 0.76,0.32 1.47,0.59 1.57,0.60 0.16,0.00 0.19,-2.27 0.15,-11.86 l 0.04,-11.46 0.42,-1.24 c 0.63,-1.71 -1.39,-3.05 -2.65,-4.32 -1.27,-1.28 -2.58,-2.10 -4.28,-2.67 -1.14,0.38 -1.45,0.41 -4.63,0.47 l -3.40,0.06 v 0.49 c 0.00,0.96 0.91,-4.47 1.14,-5.83 0.49,-2.89 1.44,-6.11 2.73,-9.20 0.30,0.72 0.55,-1.56 0.55,-1.85 C 133.99,64.61 132.43,63 130.55,63 Z"/>
  <path style="fill:#71fd71" d="m 65.93,60.93 0.05,1.04 c 0.02,0.57 0.07,1.92 0.21,3.00 0.78,5.82 3.58,11.75 5.94,15.62 L 72.90,82 H 55.95 39 c 0,0.48 0.66,2.75 1.20,4.22 1.68,4.53 4.55,8.74 8.73,12.82 5.74,5.60 12.75,9.59 21.22,12.33 5.43,1.76 9.21,2.44 16.22,2.92 l 1.38,0.10 -5.70,5.73 c -6.38,6.41 -6.32,6.33 -6.17,8.22 0.13,1.67 1.13,2.96 2.67,3.46 0.83,0.27 2.11,0.15 2.96,0.27 0.43,0.21 3.59,-3.17 9.12,-8.78 L 98.98,114.30 99,128 c 0,2.21 1.79,4 4,4 2.21,0 4,-1.79 4,-4 V 114 H 111.21 115 v 14 a 4,4 0 0 0 4,4 4,4 0 0 0 4,-4 v -7.31 c 0,-4.22 0.07,-8.62 0.16,-9.78 0.85,-11.01 -5.16,-20.07 -12.94,-27.82 -3.40,-3.39 -7.03,-6.11 -11.49,-8.60 -3.04,-1.70 -4.61,-2.37 -19.12,-8.20 z M 130.55,61 c -1.62,0 -2.60,0.85 -3.85,3.32 -1.93,3.81 -3.25,8.17 -3.90,12.83 0.29,2.09 0.85,7.05 0.52,9.20 1.11,7.33 4.17,13.70 9.05,18.84 3.48,3.66 7.09,6.15 11.94,8.22 0.76,0.32 1.47,0.59 1.57,0.60 0.16,0.00 0.19,-2.27 0.15,-11.86 l 0.04,-11.46 0.42,-1.24 c 0.63,-1.71 -1.39,-3.05 -2.65,-4.32 -1.27,-1.28 -2.58,-2.10 -4.28,-2.67 -1.14,0.38 -1.45,0.41 -4.63,0.47 l -3.40,0.06 v 0.49 c 0.00,0.96 0.91,-4.47 1.14,-5.83 0.49,-2.89 1.44,-6.11 2.73,-9.20 0.30,0.72 0.55,-1.56 0.55,-1.85 C 133.99,62.61 132.43,61 130.55,61 Z"/>
  <path style="opacity:0.20;fill:#ffffff" d="m 65.93,60.93 0.05,1.04 c 0.01,0.13 0.01,0.39 0.02,0.59 l 0.03,0.63 13.35,5.36 c 14.51,5.83 16.08,6.50 19.12,8.20 4.46,2.50 8.09,5.22 11.49,8.60 7.78,7.75 12.09,16.81 12.94,27.82 0.09,1.16 0.16,5.55 0.16,9.78 v -1 c 0,-4.22 0.07,-8.62 0.16,-9.78 0.85,-11.01 -5.16,-20.07 -12.94,-27.82 -3.40,-3.39 -7.03,-6.11 -11.49,-8.60 -3.04,-1.70 -4.61,-2.37 -19.12,-8.20 z M 130.55,61 c -1.62,0 -2.60,0.85 -3.85,3.32 -1.93,3.81 -3.25,8.17 -3.90,12.83 0.24,1.75 0.67,5.51 0.61,7.95 0.05,-2.38 0.40,-5.42 0.61,-6.95 0.65,-4.66 1.97,-9.01 3.90,-12.83 C 127.94,62.85 128.93,62 130.55,62 c 1.66,0 3.06,1.24 3.37,2.86 0.02,0.10 0.07,0.25 0.07,0.31 C 133.99,62.61 132.43,61 130.55,61 Z m 0.92,20.92 c 0.02,0.17 0.07,0.40 0.07,0.51 v 0.49 l 3.40,0.06 c 3.18,0.06 3.48,0.09 4.63,0.47 1.69,0.57 3.01,1.39 4.28,2.67 1.26,1.27 2.02,2.61 2.65,4.32 l 0.42,1.24 0.04,11.41 c 0.00,0.44 0.00,0.47 0,0.95 l 0.04,-11.46 0.42,-1.24 c 0.63,-1.71 -1.39,-3.05 -2.65,-4.32 -1.27,-1.28 -2.58,-2.10 -4.28,-2.67 -1.14,0.38 -1.45,0.41 -4.63,0.47 z M 39,82 c 0,0.16 0.09,0.54 0.20,1 H 55.95 72.90 L 72.29,82 H 55.95 Z m 47.83,33.33 -4.77,4.79 c -6.29,6.32 -6.32,6.34 -6.17,8.15 0.16,-1.11 1.23,-2.18 6.17,-7.15 l 5.70,-5.73 z"/>
</svg>
