<?xml version='1.0' encoding='utf-8'?>
<svg xmlns="http://www.w3.org/2000/svg" width="192" height="192" version="1.1" id="svg14">
  <defs>
    <filter style="color-interpolation-filters:sRGB" id="filter1443" x="0.05" y="0.05" width="1.10" height="1.09">
      <feGaussianBlur stdDeviation="2.14"/>
    </filter>
    <filter style="color-interpolation-filters:sRGB" id="filter1447" x="0.06" y="0.04" width="1.12" height="1.08">
      <feGaussianBlur stdDeviation="1.92"/>
    </filter>
    <filter style="color-interpolation-filters:sRGB" id="filter1451" x="0.05" y="0.05" width="1.09" height="1.10">
      <feGaussianBlur stdDeviation="2.32"/>
    </filter>
    <filter style="color-interpolation-filters:sRGB" id="filter1861" x="0.05" y="0.04" width="1.11" height="1.09">
      <feGaussianBlur stdDeviation="1.86"/>
    </filter>
  </defs>
  <path fill="url(#Google_Red_1_)" d="m 100.50,115.27 41.56,-72.01 22.65,13.08 c 14.63,8.44 19.62,27.11 11.18,41.74 l -23.43,40.35 c -5.29,9.16 -16.95,12.25 -26.10,7.02 l -20.99,-12.13 c -6.36,-3.75 -8.56,-11.69 -4.88,-18.05 z" style="filter:url(#filter1861);opacity:0.20;fill:#000000"/>
  <path fill="url(#Google_Red_1_)" d="m 100.50,111.27 41.56,-72.01 22.65,13.08 c 14.63,8.44 19.62,27.11 11.18,41.74 l -23.43,40.35 c -5.29,9.16 -16.95,12.25 -26.10,7.02 l -20.99,-12.13 c -6.36,-3.75 -8.56,-11.69 -4.88,-18.05 z" style="fill:#e53d30"/>
  <path fill="#fdbd00" d="m 96.10,65.27 -51.67,89.55 22.65,13.08 c 14.63,8.44 33.30,3.45 41.74,-11.18 l 33.54,-58.09 c 5.29,-9.16 2.14,-20.81 -7.02,-26.10 L 114.29,60.39 C 107.93,56.70 99.79,58.90 96.10,65.27 Z" style="filter:url(#filter1443);opacity:0.20;fill:#000000"/>
  <path fill="#fdbd00" d="m 96.10,61.27 -51.67,89.55 22.65,13.08 c 14.63,8.44 33.30,3.45 41.74,-11.18 l 33.54,-58.09 c 5.29,-9.16 2.14,-20.81 -7.02,-26.10 L 114.29,56.39 C 107.93,52.70 99.79,54.90 96.10,61.27 Z"/>
  <path fill="#2da94f" d="M 142.06,43.27 126.07,33.99 C 107.81,23.47 84.45,29.71 73.86,47.96 l -29.73,51.49 c -5.29,9.16 -2.14,20.51 7.02,25.80 l 15.99,9.28 c 9.16,5.29 20.81,2.14 26.10,-7.02 L 128.74,66.34 v 0 c 7.37,-12.78 23.67,-17.12 36.45,-9.75" style="filter:url(#filter1451);opacity:0.20;fill:#000000"/>
  <path fill="#2da94f" d="M 142.06,39.27 126.07,29.99 C 107.81,19.47 84.45,25.71 73.86,43.96 l -29.73,51.49 c -5.29,9.16 -2.14,20.41 7.02,25.70 l 15.99,9.28 c 9.16,5.29 20.81,2.14 26.10,-7.02 L 128.74,62.34 v 0 c 7.37,-12.78 23.67,-17.12 36.45,-9.75"/>
  <path fill="url(#Google_Blue_1_)" d="M 78.74,63.37 61.02,53.20 c -7.94,-4.52 -18.02,-1.84 -22.56,6.01 l -21.36,36.33 C 6.59,113.55 12.86,136.62 31.00,147.08 l 13.49,7.73 16.41,9.39 7.10,4.10 C 55.41,159.87 51.41,143.04 59.11,129.78 l 5.49,-9.45 20.17,-34.43 c 4.60,-7.97 1.85,-18.02 -6.03,-22.54 z" style="filter:url(#filter1447);opacity:0.20;fill:#000000"/>
  <path style="opacity:0.20;fill:#ffffff" d="M 106.16,24.89 C 93.26,25.18 80.81,31.98 73.86,43.96 l -29.73,51.49 c -1.79,3.10 -2.60,6.44 -2.54,9.71 0.12,-2.95 0.93,-5.93 2.54,-8.71 L 73.86,44.96 C 80.81,32.99 93.26,26.18 106.16,25.89 c 6.76,0.15 13.64,1.48 19.91,5.10 l 16.00,9.28 23.13,13.32 c 0.18,0.10 0.36,0.18 0.54,0.28 l 0.07,0.04 c 9.82,5.67 15.27,15.94 15.26,26.50 0.37,-10.91 -5.13,-21.66 -15.26,-27.50 l 0.07,0.04 c 0.18,0.10 0.36,0.17 0.54,0.28 L 142.06,39.27 126.07,29.99 c -6.27,-3.62 -13.15,-5.25 -19.91,-5.10 z"/>
  <path fill="url(#Google_Blue_1_)" d="M 78.74,59.37 61.02,49.20 c -7.94,-4.52 -18.02,-1.84 -22.56,6.01 l -21.36,36.33 C 6.59,109.55 12.86,132.62 31.00,143.08 l 13.49,7.73 16.41,9.39 7.10,4.10 C 55.41,155.87 51.41,139.04 59.11,125.78 l 5.49,-9.45 20.17,-34.43 c 4.60,-7.97 1.85,-18.02 -6.03,-22.54 z" style="fill:#2378eb"/>
</svg>
