<?xml version='1.0' encoding='utf-8'?>
<svg xmlns="http://www.w3.org/2000/svg" width="192" height="192" version="1.1" id="svg24">
  <defs>
    <filter style="color-interpolation-filters:sRGB" id="filter1077" x="0.05" y="0.05" width="1.10" height="1.10">
      <feGaussianBlur stdDeviation="3.20"/>
    </filter>
    <filter style="color-interpolation-filters:sRGB" id="filter1084" x="0.04" y="0.07" width="1.07" height="1.13">
      <feGaussianBlur stdDeviation="1.65"/>
    </filter>
    <filter style="color-interpolation-filters:sRGB" id="filter1088" x="0.04" y="0.07" width="1.07" height="1.14">
      <feGaussianBlur stdDeviation="2.15"/>
    </filter>
    <filter style="color-interpolation-filters:sRGB" id="filter1092" x="0.03" y="0.08" width="1.07" height="1.15">
      <feGaussianBlur stdDeviation="2.33"/>
    </filter>
    <filter style="color-interpolation-filters:sRGB" id="filter1096" x="0.03" y="0.08" width="1.07" height="1.17">
      <feGaussianBlur stdDeviation="2.22"/>
    </filter>
  </defs>
  <circle style="filter:url(#filter1077);opacity:0.20" cx="96" cy="100" r="80"/>
  <path style="fill:#255fdb" d="m 71.17,112.66 c -27.27,-36.08 -55.27,-8.66 -47.96,16.55 12.55,27.59 40.57,46.78 72.76,46.78 28.55,0 53.23,-14.88 67.25,-36.55 -21.09,19.74 -59.37,16.44 -92.05,-26.79 z"/>
  <path style="filter:url(#filter1096);opacity:0.10" d="m 16.06,96.39 c 0.02,0.54 0.06,1.08 0.06,1.62 0,11.93 2.60,23.19 7.27,33.35 0.38,-1.80 0.52,-3.55 0.54,-5.27 -4.01,-9.15 -6.36,-19.15 -6.66,-29.71 z m 27.13,4.50 c -12.52,0.79 -21.42,9.79 -20.40,22.91 1.52,-19.37 25.35,-30.41 47.75,0.35 36.59,49.09 72.50,40.45 92.59,18.12 5.40,-8.06 10.66,-20.39 12.17,-32.67 0.40,1.23 0.88,2.41 -1.40,3.54 -2.30,9.63 -6.48,18.73 -10.77,25.13 -20.09,22.34 -56.00,30.97 -92.59,-18.12 -9.45,-12.68 -19.17,-18.04 -27.35,-18.56 z"/>
  <path style="fill:#4285f4" d="M 95.55,87.82 C 58.04,30.93 16.00,61.25 16.00,96.02 c 0,11.93 2.60,23.18 7.26,33.35 -4.98,-23.55 22.08,-41.72 47.28,-7.91 36.59,49.09 72.50,40.45 92.59,18.12 5.43,-8.09 10.72,-20.50 12.20,-32.84 l 0.03,0.15 c -8.60,26.75 -46.67,31.10 -79.75,-19.07 z"/>
  <path style="filter:url(#filter1092);opacity:0.10" d="m 48.97,59.44 c -17.20,0.05 -30.23,14.13 -32.67,31.82 0.19,2.22 0.30,4.47 0.30,6.74 2.50,-33.67 43.18,-57.05 80,0 32.77,50.77 73.50,37.54 79.30,11.02 l 0.04,0.25 c 0.58,-3.65 0.65,-7.13 0.65,-10.88 0,-1.21 0.05,-2.41 0.01,-3.60 0.01,3.59 0.08,6.96 0.64,10.48 l 0.04,0.25 C 169.50,131.54 128.77,144.77 96.00,94.00 79.89,69.04 63.04,59.48 48.97,59.44 Z"/>
  <path style="fill:#91bfff" d="M 121.26,62.36 C 93.41,16.41 58.09,20.55 34.21,45.17 22.85,58.98 16.00,76.68 16.00,96 c 2.50,-33.67 43.18,-57.05 80.00,0 32.77,50.77 73.50,37.55 79.30,11.02 l 0.04,0.25 c 0.58,-3.65 0.65,-7.13 0.65,-10.87 0,-1.21 0.05,-2.41 0.01,-3.60 -14.20,10.07 -32.84,6.15 -54.71,-29.93 z"/>
  <path style="filter:url(#filter1088);opacity:0.10" d="m 66.55,28.83 c -5.57,0.08 -11.09,1.33 -16.48,3.71 -5.93,4.17 -11.29,9.09 -15.89,14.67 27.05,-24.89 60.23,-18.14 87.27,25.34 25.51,41.01 47.51,30.51 54.52,21.74 0.05,-1.24 0.16,-2.47 0.27,-3.70 -7.28,8.70 -29.03,18.49 -54.25,-22.05 C 104.55,41.38 85.25,28.55 66.55,28.83 Z"/>
  <path style="fill:#c4e1ff" d="M 121.45,70.55 C 146.96,111.55 168.95,101.06 175.97,92.29 175.70,86.04 174.68,79.98 173.04,74.19 161.15,74.44 158.38,72.45 146.73,54.64 128.80,27.23 106.27,8.75 66.94,21.45 54.07,26.47 42.82,34.73 34.18,45.21 61.23,20.32 94.41,27.07 121.45,70.55 Z"/>
  <path style="filter:url(#filter1084);opacity:0.10" d="m 95.97,18.00 c -10.25,0 -20.05,1.95 -29.05,5.45 35.15,-11.09 60.09,9.29 78.02,36.70 11.65,17.82 18.75,18.76 28.11,16.03 0.36,-1.26 0.80,-2.47 -1.22,-3.70 -8.76,2.27 -15.76,0.69 -26.89,-16.33 C 133.08,38.04 118.14,23.05 99.23,18.13 98.15,18.09 97.07,18.00 95.97,18.00 Z"/>
  <path style="fill:#f5f5f5" d="m 144.94,58.15 c 11.65,17.82 18.75,18.76 28.11,16.04 -9.52,-33.63 -40.37,-58.19 -77.07,-58.19 -10.25,0 -20.05,1.95 -29.05,5.45 35.15,-11.09 60.09,9.29 78.02,36.70 z"/>
  <path style="opacity:0.20;fill:#ffffff" d="M 96.00 16 A 80 80 0 0 0 16.00 96 A 80 80 0 0 0 16.02 96.64 A 80 80 0 0 1 96.00 17 A 80 80 0 0 1 175.98 96.30 A 80 80 0 0 0 176.00 96 A 80 80 0 0 0 96.00 16 z "/>
</svg>
