<?xml version='1.0' encoding='utf-8'?>
<svg xmlns="http://www.w3.org/2000/svg" width="192" height="192" version="1" id="svg22">
  <defs>
    <filter style="color-interpolation-filters:sRGB" id="filter860" x="-0.049263156" width="1.0985263" y="-0.046799998" height="1.0936">
      <feGaussianBlur stdDeviation="3.12"/>
    </filter>
    <filter style="color-interpolation-filters:sRGB" id="filter880" x="-0.048000001" width="1.096" y="-0.048000001" height="1.096">
      <feGaussianBlur stdDeviation="1.6"/>
    </filter>
    <filter style="color-interpolation-filters:sRGB" id="filter896" x="-0.024120156" width="1.0482403" y="-0.023881031" height="1.0477621">
      <feGaussianBlur stdDeviation="1.0115234"/>
    </filter>
  </defs>
  <path d="m 95.806384,20.001373 a 13.218713,13.334552 0 0 0 -9.151492,3.906216 L 55.263588,55.573984 23.872285,87.24038 a 13.218713,13.334552 0 0 0 -3.872286,9.427 v 69.9994 A 13.218713,13.334552 0 0 0 33.217392,180 H 158.78261 A 13.218713,13.334552 0 0 0 172,166.66678 v -69.9994 a 13.218713,13.334552 0 0 0 -3.87228,-9.427 L 105.34511,23.907588 a 13.218713,13.334552 0 0 0 -9.538726,-3.906215 z" style="filter:url(#filter860);opacity:0.2;fill-rule:evenodd"/>
  <path d="m 96.38048,21.455266 c -3.438024,0.05186 -6.720716,1.453043 -9.151492,3.906216 L 55.837684,57.027876 24.446379,88.694272 c -2.478741,2.500136 -3.871609,5.891044 -3.872286,9.427 l 5.884464,59.091618 c 7.29e-4,7.36343 5.91793,13.33248 13.217392,13.33322 L 135.05562,176 h 23.72699 c 7.29946,-7.4e-4 13.21666,-5.96979 13.21739,-13.33322 v -69.9994 c -6.8e-4,-3.535956 -1.39354,-6.926864 -3.87228,-9.427 L 120.06707,34.75856 105.9192,25.361481 c -2.52566,-2.548868 -5.966512,-3.957937 -9.53872,-3.906215 z" style="fill:#4587f3;fill-rule:evenodd"/>
  <rect y="140" x="56" height="36" width="80" style="fill:#3caa59"/>
  <path d="m 56,100 -36,36 v 26.66406 A 13.218713,13.334552 0 0 0 33.21875,176 H 56 Z" style="fill:#f9bc14;fill-rule:evenodd"/>
  <path d="m 96,62 40,40 v 40 H 56 v -40 z" style="filter:url(#filter880);opacity:0.2;fill-rule:evenodd"/>
  <path d="M 119.65625,36.34375 20,136 v 2 L 120.64844,37.351562 Z" style="filter:url(#filter896);opacity:0.2;fill-rule:evenodd"/>
  <path d="m 96,60 40,40 v 40 H 56 v -40 z" style="fill:#ffffff;fill-rule:evenodd"/>
  <path d="m 95.804688,16 c -3.436964,0.05266 -6.718424,1.453801 -9.14844,3.90625 L 55.265624,51.570312 23.875,83.242188 C 21.396508,85.740616 20.002742,89.129492 20,92.664064 V 136 L 120.64844,35.351564 105.34375,19.906252 C 102.81802,17.357284 99.37702,15.948196 95.804688,16 Z" style="fill:#dd4d3e;fill-rule:evenodd"/>
  <path style="opacity:0.2;fill:#ffffff;fill-rule:evenodd" d="M 95.804688 16 A 13.218713 13.334552 0 0 0 93.3125 16.28125 C 93.2913 16.28565 93.27104 16.292355 93.25 16.296875 A 13.218713 13.334552 0 0 0 90.976562 17.015625 C 90.916843 17.040425 90.856235 17.060258 90.796875 17.085938 A 13.218713 13.334552 0 0 0 88.8125 18.164062 C 88.7159 18.227352 88.618518 18.28567 88.523438 18.351562 A 13.218713 13.334552 0 0 0 86.65625 19.90625 L 55.265625 51.570312 L 23.875 83.242188 A 13.218713 13.334552 0 0 0 22.226562 85.273438 A 13.218713 13.334552 0 0 0 21.039062 87.507812 C 21.027822 87.534612 21.01108 87.558897 21 87.585938 A 13.218713 13.334552 0 0 0 20.28125 89.96875 C 20.27265 90.01079 20.25824 90.05159 20.25 90.09375 A 13.218713 13.334552 0 0 0 20 92.664062 L 20 93.664062 A 13.218713 13.334552 0 0 1 20.25 91.09375 C 20.25824 91.05159 20.27265 91.01079 20.28125 90.96875 A 13.218713 13.334552 0 0 1 21 88.585938 C 21.01108 88.558897 21.027822 88.534612 21.039062 88.507812 A 13.218713 13.334552 0 0 1 22.226562 86.273438 A 13.218713 13.334552 0 0 1 23.875 84.242188 L 55.265625 52.570312 L 86.65625 20.90625 A 13.218713 13.334552 0 0 1 88.523438 19.351562 C 88.618518 19.28567 88.7159 19.227352 88.8125 19.164062 A 13.218713 13.334552 0 0 1 90.796875 18.085938 C 90.856235 18.060257 90.916843 18.040425 90.976562 18.015625 A 13.218713 13.334552 0 0 1 93.25 17.296875 C 93.27104 17.292355 93.2913 17.28565 93.3125 17.28125 A 13.218713 13.334552 0 0 1 95.804688 17 A 13.218713 13.334552 0 0 1 98.421875 17.226562 C 98.429475 17.227963 98.437713 17.225062 98.445312 17.226562 A 13.218713 13.334552 0 0 1 98.484375 17.234375 A 13.218713 13.334552 0 0 1 100.96875 17.976562 A 13.218713 13.334552 0 0 1 103.28906 19.210938 A 13.218713 13.334552 0 0 1 103.30469 19.21875 A 13.218713 13.334552 0 0 1 105.34375 20.90625 L 120.64844 36.351562 L 168.125 84.242188 A 13.218713 13.334552 0 0 1 172 93.664062 L 172 92.664062 A 13.218713 13.334552 0 0 0 168.125 83.242188 L 120.64844 35.351562 L 105.34375 19.90625 A 13.218713 13.334552 0 0 0 103.30469 18.21875 A 13.218713 13.334552 0 0 0 103.28906 18.210938 A 13.218713 13.334552 0 0 0 100.96875 16.976562 A 13.218713 13.334552 0 0 0 98.484375 16.234375 A 13.218713 13.334552 0 0 0 98.445312 16.226562 C 98.437713 16.225062 98.429475 16.227962 98.421875 16.226562 A 13.218713 13.334552 0 0 0 95.804688 16 z "/>
</svg>
