<?xml version='1.0' encoding='utf-8'?>
<svg xmlns="http://www.w3.org/2000/svg" width="192" height="192" version="1" id="svg14">
  <defs>
    <filter style="color-interpolation-filters:sRGB" id="filter856" x="0.04" width="1.08" y="0.06" height="1.11">
      <feGaussianBlur stdDeviation="2.96"/>
    </filter>
    <filter style="color-interpolation-filters:sRGB" id="filter872" x="0.05" width="1.11" y="0.04" height="1.09">
      <feGaussianBlur stdDeviation="0.88"/>
    </filter>
  </defs>
  <path d="M 57.96,142.50 C 11.31,114.60 14.17,116.42 12.99,113.81 12.13,111.89 12.00,108.44 12,87.36 c 0.00,-21.80 0.11,-24.48 1.07,-26.49 0.93,-1.95 3.49,-3.70 19.63,-13.39 C 46.13,39.41 51.93,36.26 53.70,36.08 55.92,35.84 57.67,35.55 74.39,45.66 91.97,56.30 92.78,56.04 96,56.04 c 3.22,0 4.03,0.26 21.61,-10.37 16.72,-10.12 18.47,-9.83 20.70,-9.59 1.76,0.19 7.56,3.34 21.00,11.40 16.14,9.69 18.70,11.44 19.63,13.39 0.96,2.02 1.06,4.69 1.07,26.49 0.00,21.13 0.13,24.53 -1.00,26.46 -1.17,2.60 0.99,1.22 -46.54,29.62 -26.81,16.02 -34.91,20.58 -36.52,20.57 -1.58,0.01 -10.49,-5.05 -37.98,-21.50 z" style="filter:url(#filter856);opacity:0.20"/>
  <path d="M 57.96,138.50 C 11.31,110.60 14.17,112.42 12.99,109.81 12.13,107.89 12.00,104.44 12,83.36 12.00,61.56 12.11,58.88 13.07,56.87 13.99,54.92 16.56,53.17 32.69,43.48 46.13,35.41 51.93,32.26 53.70,32.08 55.92,31.84 57.67,31.55 74.39,41.66 91.97,52.30 92.78,52.04 96,52.04 c 3.22,0 4.03,0.26 21.61,-10.37 16.72,-10.12 18.47,-9.83 20.70,-9.59 1.76,0.19 7.56,3.34 21.00,11.40 16.14,9.69 18.70,11.44 19.63,13.39 0.96,2.02 1.06,4.69 1.07,26.49 0.00,21.13 0.13,24.53 -1.00,26.46 -1.17,2.60 0.99,1.22 -46.54,29.62 -26.81,16.02 -34.91,20.58 -36.52,20.57 -1.58,0.01 -10.49,-5.05 -37.98,-21.50 z" style="fill:#fa2235"/>
  <path d="m 133.72,42.00 c -1.56,0.03 -1.82,2.07 -1.70,3.59 0.01,14.20 0.02,28.39 0.01,42.59 0.14,1.70 1.87,2.38 2.86,1.32 10.55,-7.27 25.90,-14.49 36.43,-21.78 1.15,-1.00 0.71,-3.34 0.57,-3.83 -10.55,-7.24 -25.86,-14.52 -36.42,-21.73 0.20,0.10 0.41,0.15 0.62,0.15 z" style="filter:url(#filter872);opacity:0.20"/>
  <path d="m 133.72,40.00 c -1.56,0.03 -1.82,2.07 -1.70,3.59 0.01,14.20 0.02,28.39 0.01,42.59 0.14,1.70 1.87,2.38 2.86,1.32 10.55,-7.27 25.90,-14.49 36.43,-21.78 1.15,-1.00 0.71,-3.34 0.57,-3.83 -10.55,-7.24 -25.86,-14.52 -36.42,-21.73 0.20,0.10 0.41,0.15 0.62,0.15 z" style="fill:#ffffff"/>
  <path style="opacity:0.20;fill:#ffffff" d="M 54.54 32.00 C 54.24 32.02 53.97 32.05 53.70 32.08 C 51.93 32.27 46.13 35.41 32.70 43.48 C 16.56 53.16 13.99 54.92 13.06 56.87 C 12.11 58.88 12.00 61.56 12 83.36 C 12.00 83.48 12.00 83.50 12.00 83.60 C 12.01 62.66 12.12 59.85 13.06 57.87 C 13.99 55.92 16.56 54.16 32.70 44.48 C 46.13 36.41 51.93 33.27 53.70 33.08 C 54.25 33.02 54.78 32.95 55.52 33.05 C 57.73 33.34 61.85 35.08 74.39 42.66 C 91.97 53.30 92.78 53.04 96 53.04 C 99.22 53.04 100.03 53.30 117.61 42.66 C 134.33 32.55 136.08 32.84 138.30 33.08 C 140.07 33.27 145.87 36.41 159.30 44.48 C 175.44 54.16 178.01 55.92 178.94 57.87 C 179.88 59.85 179.99 62.66 180.00 83.60 C 180.00 83.50 180 83.48 180 83.36 C 180.00 61.56 179.89 58.88 178.94 56.87 C 178.01 54.92 175.44 53.16 159.30 43.48 C 145.87 35.41 140.07 32.27 138.30 32.08 C 136.08 31.84 134.33 31.55 117.61 41.66 C 100.03 52.30 99.22 52.04 96 52.04 C 92.78 52.04 91.97 52.30 74.39 41.66 C 61.85 34.08 57.73 32.34 55.52 32.05 C 55.15 32.00 54.83 31.99 54.54 32.00 z "/>
</svg>
