<?xml version='1.0' encoding='utf-8'?>
<svg xmlns="http://www.w3.org/2000/svg" width="192" height="192" version="1" id="svg12">
  <defs>
    <filter style="color-interpolation-filters:sRGB" id="filter844" x="-0.047999997" width="1.096" y="-0.048000003" height="1.096">
      <feGaussianBlur stdDeviation="3.2000003"/>
    </filter>
  </defs>
  <path d="m 67.640624,20.00001 a 11.203088,11.204111 0 0 0 -7.921872,3.265625 l -40.33594,40.210939 a 11.203088,11.204111 0 0 0 -3.296875,7.921872 l -0.08594,56.960944 a 11.203088,11.204111 0 0 0 3.273438,7.92969 l 40.210937,40.33593 a 11.203088,11.204111 0 0 0 7.921872,3.29688 l 56.960946,0.0781 a 11.203088,11.204111 0 0 0 7.92187,-3.26563 L 172.625,136.52345 a 11.203088,11.204111 0 0 0 3.28906,-7.92187 L 176,71.640634 a 11.203088,11.204111 0 0 0 -3.27344,-7.929688 L 132.51562,23.375011 a 11.203088,11.204111 0 0 0 -6.96093,-3.25 11.203088,11.204111 0 0 0 -0.95313,-0.04688 z M 80,60.00001 h 32 l 24,24 v 32 l -24,24 H 80 l -24,-24 v -32 z" style="filter:url(#filter844);opacity:0.2"/>
  <path d="m 67.640624,16 a 11.203088,11.204111 0 0 0 -7.921872,3.265625 l -40.33594,40.210939 a 11.203088,11.204111 0 0 0 -3.296875,7.921872 l -0.08594,56.960944 a 11.203088,11.204111 0 0 0 3.273438,7.92968 L 59.484376,172.625 a 11.203088,11.204111 0 0 0 7.921872,3.29688 L 124.36719,176 a 11.203088,11.204111 0 0 0 7.92187,-3.26562 L 172.625,132.52344 a 11.203088,11.204111 0 0 0 3.28906,-7.92188 L 176,67.640624 a 11.203088,11.204111 0 0 0 -3.27344,-7.929688 L 132.51562,19.375001 a 11.203088,11.204111 0 0 0 -6.96093,-3.25 11.203088,11.204111 0 0 0 -0.95313,-0.04688 z M 80,56 h 32 l 24,24 v 32 l -24,24 H 80 L 56,112 V 80 Z" style="fill:#e4e4e4"/>
  <path d="M 80,16.015625 V 56 h 32 L 140.55469,27.445312 132.51562,19.375 c -1.86479,-1.869951 -4.33014,-3.021 -6.96093,-3.25 -0.31692,-0.02916 -0.6349,-0.0448 -0.95313,-0.04687 z M 27.445312,51.445312 19.375,59.484376 c -1.869952,1.864792 -3.021,4.33014 -3.25,6.960936 -0.0292,0.31692 -0.0448,0.634896 -0.04688,0.953124 L 16.015624,112 H 56 V 80 Z M 136,80 v 32 l 28.55469,28.55469 8.07031,-8.03907 c 1.86995,-1.86479 3.021,-4.33014 3.25,-6.96093 0.0292,-0.31692 0.0448,-0.6349 0.0469,-0.95313 L 175.98438,80 Z m -56,56 -28.554688,28.55469 8.039064,8.07031 c 1.864792,1.86995 4.33014,3.021 6.960936,3.25 0.31692,0.0292 0.634896,0.0448 0.953124,0.0469 L 112,175.98438 V 136 Z" style="fill:#11aef5"/>
  <path style="opacity:0.2;fill:#ffffff" d="M 67.640625 16 A 11.203088 11.204111 0 0 0 59.71875 19.265625 L 19.382812 59.476562 A 11.203088 11.204111 0 0 0 16.085938 67.398438 L 16.085938 68.398438 A 11.203088 11.204111 0 0 1 19.382812 60.476562 L 59.71875 20.265625 A 11.203088 11.204111 0 0 1 67.640625 17 L 124.60156 17.078125 A 11.203088 11.204111 0 0 1 125.55469 17.125 A 11.203088 11.204111 0 0 1 132.51562 20.375 L 172.72656 60.710938 A 11.203088 11.204111 0 0 1 176 68.640625 L 176 67.640625 A 11.203088 11.204111 0 0 0 172.72656 59.710938 L 132.51562 19.375 A 11.203088 11.204111 0 0 0 125.55469 16.125 A 11.203088 11.204111 0 0 0 124.60156 16.078125 L 67.640625 16 z M 16.085938 69.398438 L 16 124.35938 L 16.042969 97.878906 L 16.085938 70.398438 L 16.085938 69.398438 z M 56 112 L 56 113 L 80 137 L 112 137 L 136 113 L 136 112 L 112 136 L 80 136 L 56 112 z "/>
</svg>
