<svg xmlns="http://www.w3.org/2000/svg" id="svg20" width="192" height="192" version="1.1"><defs><filter style="color-interpolation-filters:sRGB" id="filter853" width="1.09" height="1.1" x=".05" y=".05"><feGaussianBlur stdDeviation="2.32"/></filter><filter style="color-interpolation-filters:sRGB" id="filter869" width="1.09" height="1.1" x=".04" y=".05"><feGaussianBlur stdDeviation="3"/></filter><filter style="color-interpolation-filters:sRGB" id="filter1878" width="1.1" height="1.1" x=".05" y=".05"><feGaussianBlur stdDeviation="1.76"/></filter></defs><path d="M 87.01,26.38 18.07,144.66 c -2.91,5.05 -2.64,9.57 0.09,12.32 C 20.07,158.94 23.16,160 27.17,160 H 164.77 c 4.00,0 7.09,-1.15 9.00,-3.01 2.82,-2.84 3.09,-7.27 0.09,-12.32 L 104.92,26.38 c -4.91,-8.51 -12.91,-8.51 -17.92,0 z" style="filter:url(#filter869);opacity:.2"/><path d="M 87.01,22.38 18.07,140.66 c -2.91,5.05 -2.64,9.57 0.09,12.32 C 20.07,154.94 23.16,156 27.17,156 H 164.77 c 4.00,0 7.09,-1.15 9.00,-3.01 2.82,-2.84 3.09,-7.27 0.09,-12.32 L 104.92,22.38 c -4.91,-8.51 -12.91,-8.51 -17.92,0 z" style="fill:#008fd7"/><path d="m 164.77,156 c 4.00,0 7.09,-1.15 9.00,-3.01 2.82,-2.84 3.09,-7.27 0.09,-12.32 L 104.92,22.38 C 102.40,18.01 99.33,15.88 96,16.00 V 156 Z" style="opacity:.2;fill:#fff"/><path d="M 96,68 36,176.20 40.73,180 96,160 151.27,180 156,176.20 Z" style="filter:url(#filter853);opacity:.2;fill-rule:evenodd"/><path d="M 96,64 36,172.20 40.73,176 96,156 151.27,176 156,172.20 Z" style="fill:#e4e4e4;fill-rule:evenodd"/><path d="m 96,64 v 92 L 151.27,176 156,172.20 Z" style="opacity:.1;fill-rule:evenodd"/><path style="opacity:.2;fill:#fff" d="M 96 16 C 92.76 16 89.51 18.13 87.01 22.38 L 18.07 140.66 C 16.57 143.27 15.98 145.71 16.08 147.86 C 16.18 145.96 16.80 143.88 18.07 141.66 L 87.01 23.38 C 89.51 19.13 92.76 17 96 17 C 99.24 17 102.47 19.13 104.92 23.38 L 173.86 141.66 C 175.17 143.88 175.81 145.95 175.91 147.83 C 176.02 145.69 175.41 143.28 173.86 140.66 L 104.92 22.38 C 102.47 18.13 99.24 16 96 16 z"/><path style="opacity:.2;fill:#fff;fill-rule:evenodd" d="M 96 64 L 36 172.20 L 36.38 172.50 L 96 65 L 155.62 172.50 L 156 172.20 L 96 64 z"/><circle cx="144" cy="142" r="44" style="filter:url(#filter1878);opacity:.2;fill:#000"/><circle cx="144" cy="140" r="44" style="fill:#0064d7"/><path style="fill:#fff;stop-color:#000" d="m 134,116 c -2.22,0 -4,1.78 -4,4 v 40 c 0,2.22 1.78,4 4,4 h 20 c 2.22,0 4,-1.78 4,-4 v -40 c 0,-2.22 -1.78,-4 -4,-4 z m -1,7 h 22 v 34 h -22 z"/></svg>