<?xml version='1.0' encoding='utf-8'?>
<svg xmlns="http://www.w3.org/2000/svg" width="192" height="192" version="1" id="svg22">
  <defs>
    <filter style="color-interpolation-filters:sRGB" id="filter26879" x="-0.048000001" y="-0.048000001" width="1.096" height="1.096">
      <feGaussianBlur stdDeviation="3.2"/>
    </filter>
    <filter style="color-interpolation-filters:sRGB" id="filter27135" x="-0.047999999" y="-0.047999999" width="1.096" height="1.096">
      <feGaussianBlur stdDeviation="1.68"/>
    </filter>
    <filter style="color-interpolation-filters:sRGB" id="filter27224" x="-0.043774698" y="-0.05312812" width="1.0875494" height="1.1062562">
      <feGaussianBlur stdDeviation="1.1068359"/>
    </filter>
  </defs>
  <path style="filter:url(#filter26879);opacity:0.2;stop-color:#000000" d="m 26,20 h 140 c 5.54,0 10,4.46 10,10 v 112 l -38,38 H 26 c -5.54,0 -10,-4.46 -10,-10 V 30 c 0,-5.54 4.46,-10 10,-10 z"/>
  <path style="fill:#4285f4;stop-color:#000000" d="M 26 16 C 20.46 16 16 20.46 16 26 L 16 54 L 16 138 L 54 138 L 54 54 L 138 54 L 138 16 L 54 16 L 26 16 z M 166 16 C 166.6925 16 167.36738 16.070352 168.01953 16.203125 C 167.36738 16.070352 166.6925 16 166 16 z M 175.79688 23.980469 C 175.92965 24.632617 176 25.3075 176 26 C 176 25.3075 175.92965 24.632617 175.79688 23.980469 z "/>
  <path style="fill:#188038;stop-color:#000000" d="M 16 138 L 16 166 C 16 166.6925 16.070352 167.36738 16.203125 168.01953 C 16.335898 168.67168 16.530859 169.3018 16.783203 169.90039 C 17.035547 170.49898 17.344414 171.06582 17.703125 171.59766 C 18.061836 172.12949 18.47 172.62625 18.921875 173.07812 C 19.37375 173.53 19.870508 173.93816 20.402344 174.29688 C 20.93418 174.65559 21.501016 174.96445 22.099609 175.2168 C 22.698203 175.46914 23.32832 175.6641 23.980469 175.79688 C 24.632617 175.92965 25.3075 176 26 176 L 54 176 L 54 138 L 16 138 z "/>
  <rect style="fill:#fbbc04;stop-color:#000000" width="38" height="84" x="138" y="54"/>
  <path style="fill:#1967d2;stop-color:#000000" d="M 138 16 L 138 54 L 176 54 L 176 26 C 176 25.3075 175.92965 24.632617 175.79688 23.980469 C 175.6641 23.32832 175.46914 22.698203 175.2168 22.099609 C 174.96445 21.501016 174.65559 20.93418 174.29688 20.402344 C 173.93816 19.870508 173.53 19.37375 173.07812 18.921875 C 172.62625 18.47 172.12949 18.061836 171.59766 17.703125 C 171.06582 17.344414 170.49898 17.035547 169.90039 16.783203 C 169.3018 16.530859 168.67168 16.335898 168.01953 16.203125 C 167.36738 16.070352 166.6925 16 166 16 L 138 16 z "/>
  <rect style="fill:#34a853;stop-color:#000000" width="38" height="84" x="138" y="-138" transform="rotate(90)"/>
  <path style="fill:#ea4335;stop-color:#000000" d="m 138,176 v -38 h 38 z"/>
  <rect style="filter:url(#filter27135);opacity:0.2;fill:#000000;stop-color:#000000" width="84" height="84" x="54" y="56"/>
  <rect style="fill:#ffffff;stop-color:#000000" width="84" height="84" x="54" y="54"/>
  <path style="filter:url(#filter27224);opacity:0.2;fill:#000000" d="m 80.800781,73 c -4.461007,0 -8.13822,1.259519 -11.03125,3.777344 -1.997225,1.751571 -3.296478,3.665118 -3.904297,5.964844 L 73.480469,86 c 0,-2.094474 0.705751,-3.41904 2.11914,-4.644531 1.413388,-1.22549 3.191818,-1.837891 5.333985,-1.837891 4.880608,0 7.320312,2.438681 7.320312,7.31836 0,2.183599 -0.683513,3.979069 -2.052734,5.382812 C 84.854036,93.600211 82.799589,94 80.039062,94 H 76 v 7 h 3.740234 c 6.139406,0 9.210938,2.36999 9.210938,7.69531 0,2.49554 -0.718824,4.42207 -2.154297,5.78125 -1.413388,1.3369 -3.367766,2.00586 -5.863281,2.00586 -2.385093,0 -4.294996,-0.66896 -5.730469,-2.00586 -1.435473,-1.3369 -2.154297,-3.33753 -2.154297,-5.47656 l -7.732422,3.30859 c 0.606947,3.01531 2.089673,5.49265 4.453125,7.21485 3.180124,2.31729 6.857337,3.47656 11.03125,3.47656 4.615597,0 8.470712,-1.23572 11.5625,-3.70898 C 95.455068,116.79547 97,113.26304 97,108.69531 c 0,-2.40642 -0.618754,-4.64656 -1.855469,-6.71875 -1.236715,-2.094473 -3.333686,-3.641856 -6.292969,-4.644529 2.495515,-1.136364 4.349823,-2.685699 5.564454,-4.646484 1.236715,-1.983066 1.855468,-3.93339 1.855468,-5.849609 0,-4.567737 -1.424576,-8.008881 -4.273437,-10.326172 C 89.149186,74.170194 85.416378,73 80.800781,73 Z M 124.9668,73 106,83.417969 109.18359,90.207031 118,85.257812 V 123 h 8 V 73 Z"/>
  <path style="fill:#4285f4" d="M 80.800781 71 C 76.339774 71 72.662561 72.259519 69.769531 74.777344 C 67.772306 76.528915 66.473053 78.442462 65.865234 80.742188 L 73.480469 84 C 73.480469 81.905526 74.18622 80.58096 75.599609 79.355469 C 77.012997 78.129979 78.791427 77.517578 80.933594 77.517578 C 85.814202 77.517578 88.253906 79.956259 88.253906 84.835938 C 88.253906 87.019538 87.570393 88.815007 86.201172 90.21875 C 84.854036 91.600211 82.799588 92 80.039062 92 L 76 92 L 76 99 L 79.740234 99 C 85.87964 99 88.951172 101.36999 88.951172 106.69531 C 88.951172 109.19085 88.232348 111.11738 86.796875 112.47656 C 85.383487 113.81346 83.429109 114.48242 80.933594 114.48242 C 78.548501 114.48242 76.638598 113.81346 75.203125 112.47656 C 73.767652 111.13966 73.048828 109.13903 73.048828 107 L 65.316406 110.30859 C 65.923353 113.3239 67.406079 115.80124 69.769531 117.52344 C 72.949655 119.84073 76.626868 121 80.800781 121 C 85.416378 121 89.271493 119.76428 92.363281 117.29102 C 95.455068 114.79547 97 111.26304 97 106.69531 C 97 104.28889 96.381246 102.04875 95.144531 99.976562 C 93.907816 97.882087 91.810845 96.334704 88.851562 95.332031 C 91.347076 94.195667 93.201385 92.646332 94.416016 90.685547 C 95.652731 88.702481 96.271484 86.752158 96.271484 84.835938 C 96.271484 80.268201 94.846908 76.827057 91.998047 74.509766 C 89.149186 72.170194 85.416378 71 80.800781 71 z "/>
  <path d="m 126,71 v 50 h -8 V 83.25853 L 109.1829,88.207803 106,81.418128 124.96667,71 Z" style="fill:#4285f4"/>
  <path style="opacity:0.2;fill:#ffffff;stop-color:#000000" d="M 26 16 C 20.46 16 16 20.46 16 26 L 16 27 C 16 21.46 20.46 17 26 17 L 54 17 L 138 17 L 166 17 C 166.6925 17 167.36738 17.070352 168.01953 17.203125 C 168.67168 17.335898 169.3018 17.530859 169.90039 17.783203 C 170.49898 18.035547 171.06582 18.344414 171.59766 18.703125 C 172.12949 19.061836 172.62625 19.47 173.07812 19.921875 C 173.53002 20.37375 173.93815 20.870508 174.29688 21.402344 C 174.65558 21.93418 174.96445 22.501016 175.2168 23.099609 C 175.46914 23.698203 175.6641 24.32832 175.79688 24.980469 C 175.9297 25.632617 176 26.3075 176 27 L 176 26 C 176 25.3075 175.92965 24.632617 175.79688 23.980469 C 175.6641 23.32832 175.46914 22.698203 175.2168 22.099609 C 174.96445 21.501016 174.65558 20.93418 174.29688 20.402344 C 173.93816 19.870508 173.53001 19.37375 173.07812 18.921875 C 172.62625 18.47 172.12949 18.061836 171.59766 17.703125 C 171.06582 17.344414 170.49898 17.035547 169.90039 16.783203 C 169.3018 16.530859 168.67168 16.335898 168.01953 16.203125 C 167.36738 16.070352 166.6925 16 166 16 L 138 16 L 54 16 L 26 16 z "/>
</svg>
