<?xml version='1.0' encoding='utf-8'?>
<svg xmlns="http://www.w3.org/2000/svg" width="192" height="192" version="1.1" id="svg14">
  <defs>
    <filter style="color-interpolation-filters:sRGB" id="filter926" x="0.05" width="1.09" y="0.05" height="1.10">
      <feGaussianBlur stdDeviation="3.04"/>
    </filter>
    <filter style="color-interpolation-filters:sRGB" id="filter937" x="0.04" width="1.09" y="0.05" height="1.10">
      <feGaussianBlur stdDeviation="1.34"/>
    </filter>
  </defs>
  <path style="filter:url(#filter926);opacity:0.20;fill:#000000" d="m 96.00,28 c -32.19,0.00 -33.08,0.02 -35.68,0.69 -3.35,0.86 -5.86,2.35 -8.04,4.77 -1.06,1.18 -4.23,6.30 -8.57,13.83 -3.79,6.57 -11.30,19.61 -16.69,28.98 -10.96,19.03 -11.25,19.68 -10.96,24.64 0.10,1.64 0.47,3.55 0.93,4.78 0.61,1.64 20.78,37.09 31.99,56.22 3.21,5.48 5.69,7.64 10.86,9.48 1.36,0.48 6.05,0.55 36.17,0.61 30.11,0.06 34.81,0.13 36.17,0.61 5.17,-1.84 7.65,-3.99 10.86,-9.48 11.21,-19.13 31.38,-54.59 31.99,-56.22 0.46,-1.23 0.83,-3.14 0.93,-4.78 0.29,-4.96 0.00,-5.61 -10.96,-24.64 -5.39,-9.36 -12.90,-22.40 -16.69,-28.98 -4.34,-7.53 -7.51,-12.65 -8.57,-13.83 -2.17,-2.42 -4.69,-3.91 -8.04,-4.77 C 129.08,28.02 128.19,28.00 96.00,28 Z"/>
  <path style="fill:#4184f2" d="m 96.00,24 c -32.19,0.00 -33.08,0.02 -35.68,0.69 -3.35,0.86 -5.86,2.35 -8.04,4.77 -1.06,1.18 -4.23,6.30 -8.57,13.83 -3.79,6.57 -11.30,19.61 -16.69,28.98 -10.96,19.03 -11.25,19.68 -10.96,24.64 0.10,1.64 0.47,3.55 0.93,4.78 0.61,1.64 20.78,37.09 31.99,56.22 3.21,5.48 5.69,7.64 10.86,9.48 1.36,0.48 6.05,0.55 36.17,0.61 30.11,0.06 34.81,0.13 36.17,0.61 5.17,-1.84 7.65,-3.99 10.86,-9.48 11.21,-19.13 31.38,-54.59 31.99,-56.22 0.46,-1.23 0.83,-3.14 0.93,-4.78 0.29,-4.96 0.00,-5.61 -10.96,-24.64 -5.39,-9.36 -12.90,-22.40 -16.69,-28.98 -4.34,-7.53 -7.51,-12.65 -8.57,-13.83 -2.17,-2.42 -4.69,-3.91 -8.04,-4.77 C 129.08,24.02 128.19,24.00 96.00,24 Z"/>
  <path style="fill:#1866d1" d="M 96 24 C 63.81 24.00 62.92 24.02 60.32 24.69 C 56.97 25.55 54.45 27.04 52.28 29.46 C 51.22 30.64 48.05 35.76 43.71 43.29 C 40.88 48.22 35.77 57.08 31.21 65 L 78.10 65 L 101.77 24.00 C 99.65 24.00 98.47 24.00 96 24 z "/>
  <path style="fill:#1866d1" d="M 155.25 55.38 L 131.79 96 L 155.29 136.70 C 164.92 119.92 174.59 102.81 175.01 101.69 C 175.47 100.46 175.84 98.55 175.94 96.91 C 176.23 91.95 175.94 91.30 164.98 72.27 C 161.83 66.81 158.68 61.32 155.25 55.38 z "/>
  <path style="fill:#1866d1" d="M 31.18 127 C 37.25 137.64 43.82 149.10 48.98 157.91 C 52.19 163.40 54.66 165.55 59.83 167.39 C 61.19 167.87 65.89 167.94 96 168 C 98.39 168.00 99.69 167.99 101.77 167.98 L 78.10 127 L 31.18 127 z "/>
  <path style="filter:url(#filter937);opacity:0.20;fill:#000000" d="m 78.10,67.00 h 35.80 l 17.90,31.00 -17.90,31.00 H 78.10 L 60.20,98.00 Z"/>
  <path style="fill:#ffffff" d="m 78.10,65.00 35.80,0 L 131.80,96 113.90,127 78.10,127 60.20,96 Z"/>
  <path style="opacity:0.20;fill:#ffffff" d="M 96 24 C 63.81 24.00 62.92 24.02 60.32 24.69 C 56.97 25.55 54.45 27.04 52.28 29.46 C 51.22 30.64 48.05 35.76 43.71 43.29 C 39.93 49.86 32.41 62.91 27.02 72.27 C 17.04 89.60 15.92 91.71 16.02 95.69 C 16.17 92.23 17.88 89.14 27.02 73.27 C 32.41 63.91 39.93 50.86 43.71 44.29 C 48.05 36.76 51.22 31.64 52.28 30.46 C 54.45 28.04 56.97 26.55 60.32 25.69 C 62.92 25.02 63.81 25.00 96 25 C 128.19 25.00 129.08 25.02 131.68 25.69 C 135.03 26.55 137.55 28.04 139.72 30.46 C 140.78 31.64 143.95 36.76 148.29 44.29 C 152.07 50.86 159.59 63.91 164.98 73.27 C 174.12 89.14 175.83 92.23 175.98 95.69 C 176.08 91.71 174.96 89.60 164.98 72.27 C 159.59 62.91 152.07 49.86 148.29 43.29 C 143.95 35.76 140.78 30.64 139.72 29.46 C 137.55 27.04 135.03 25.55 131.68 24.69 C 129.08 24.02 128.19 24.00 96 24 z "/>
</svg>
