<?xml version='1.0' encoding='utf-8'?>
<svg xmlns="http://www.w3.org/2000/svg" width="192" height="192" version="1" id="svg18">
  <defs>
    <filter style="color-interpolation-filters:sRGB" id="filter857" x="0.05" width="1.11" y="0.04" height="1.09">
      <feGaussianBlur stdDeviation="2.88"/>
    </filter>
    <filter style="color-interpolation-filters:sRGB" id="filter873" x="0.04" width="1.09" y="0.05" height="1.11">
      <feGaussianBlur stdDeviation="1.28"/>
    </filter>
    <filter style="color-interpolation-filters:sRGB" id="filter889" x="0.05" width="1.10" y="0.05" height="1.10">
      <feGaussianBlur stdDeviation="0.96"/>
    </filter>
  </defs>
  <path d="m 40,20 c -4.43,0 -8,3.57 -8,8 v 144 c 0,4.43 3.57,8 8,8 h 112 c 4.43,0 8,-3.57 8,-8 V 68 l -44,-4 -4,-44 z" style="filter:url(#filter857);opacity:0.20"/>
  <path d="m 40,16 c -4.43,0 -8,3.57 -8,8 v 144 c 0,4.43 3.57,8 8,8 h 112 c 4.43,0 8,-3.57 8,-8 V 64 l -44,-4 -4,-44 z" style="fill:#4bae4f"/>
  <path style="opacity:0.20;fill:#ffffff" d="M 40 16 C 35.57 16 32 19.57 32 24 L 32 25 C 32 20.57 35.57 17 40 17 L 112 17 L 159 64 L 160 64 L 112 16 L 40 16 z "/>
  <path d="m 112,18 v 40 c 0,4.42 3.58,8 8,8 h 40 z" style="filter:url(#filter889);opacity:0.20"/>
  <path d="m 112,16 v 40 c 0,4.42 3.58,8 8,8 h 40 z" style="fill:#95cd97"/>
  <path d="m 60,150 h 72 V 94 H 60 Z m 8,-48 h 24 v 8 H 68 Z m 32,0 h 24 v 8 h -24 z m -32,16 h 24 v 8 H 68 Z m 32,0 h 24 v 8 h -24 z m -32,16 h 24 v 8 H 68 Z m 32,0 h 24 v 8 h -24 z" style="filter:url(#filter873);opacity:0.20"/>
  <path d="m 60,148 h 72 V 92 H 60 Z m 8,-48 h 24 v 8 H 68 Z m 32,0 h 24 v 8 h -24 z m -32,16 h 24 v 8 H 68 Z m 32,0 h 24 v 8 h -24 z m -32,16 h 24 v 8 H 68 Z m 32,0 h 24 v 8 h -24 z" style="fill:#ffffff"/>
</svg>
