<?xml version='1.0' encoding='utf-8'?>
<svg xmlns="http://www.w3.org/2000/svg" width="192" height="192" version="1" id="svg22">
  <defs>
    <filter style="color-interpolation-filters:sRGB" id="filter860" x="-0.046666666" width="1.0933333" y="-0.049411764" height="1.0988235">
      <feGaussianBlur stdDeviation="1.4"/>
    </filter>
    <filter style="color-interpolation-filters:sRGB" id="filter878" x="-0.040363637" width="1.0807273" y="-0.059200001" height="1.1184">
      <feGaussianBlur stdDeviation="2.96"/>
    </filter>
    <filter style="color-interpolation-filters:sRGB" id="filter898" x="-0.040000001" width="1.08" y="-0.060000001" height="1.12">
      <feGaussianBlur stdDeviation="0.8"/>
    </filter>
    <filter style="color-interpolation-filters:sRGB" id="filter914" x="-0.012778846" width="1.0255577" y="-0.19688888" height="1.3937778">
      <feGaussianBlur stdDeviation="0.55375"/>
    </filter>
  </defs>
  <path style="filter:url(#filter878);opacity:0.2;fill:#000000" d="M 96,28 C 73.22,28 53.82,41.832 45.468,61.408 24.2628,64.536 8,82.464 8,104.364 8,128.464 27.6996,148 52,148 h 93.5 C 166.764,148 184,130.904 184,109.82 184,90.22 169.14,74.16 149.968,71.976 144.968,46.96 122.696,28 96,28 Z"/>
  <path d="M 96,24 C 73.22,24 53.82,37.832 45.468,57.408 24.2628,60.536 8,78.464 8,100.364 8,124.464 27.6996,144 52,144 h 93.5 C 166.764,144 184,126.904 184,105.82 184,86.22 169.14,70.16 149.968,67.976 144.968,42.96 122.696,24 96,24 Z" style="fill:#e4e4e4"/>
  <rect ry="6" rx="6" y="100" x="44" height="12" width="104" style="fill:#4f4f4f"/>
  <path d="m 60,104 v 60 c 0,4.432 3.568,8 8,8 h 56 c 4.432,0 8,-3.568 8,-8 v -60 z" style="filter:url(#filter860);opacity:0.1;fill-rule:evenodd"/>
  <path d="m 60,100 v 60 c 0,4.432 3.568,8 8,8 h 56 c 4.432,0 8,-3.568 8,-8 v -60 z" style="fill:#4c7dce;fill-rule:evenodd"/>
  <path d="m 72,122 v 8 h 48 v -8 z m 0,12 v 8 h 48 v -8 z m 0,12 v 8 h 48 v -8 z" style="filter:url(#filter898);opacity:0.2;fill-rule:evenodd"/>
  <path d="m 72,120 v 8 h 48 v -8 z m 0,12 v 8 h 48 v -8 z m 0,12 v 8 h 48 v -8 z" style="fill:#ffffff;fill-rule:evenodd"/>
  <path d="m 50,100 c -3.324,0 -6,2.676 -6,6 0,0.26532 0.10344,0.49636 0.14064,0.75 C 44.714188,104.03195 47.106308,102 50,102 h 92 c 2.89369,0 5.28581,2.03195 5.85938,4.75 C 147.89658,106.49636 148,106.26532 148,106 c 0,-3.324 -2.676,-6 -6,-6 z" style="filter:url(#filter914);opacity:0.1;fill-rule:evenodd"/>
  <path style="opacity:0.2;fill:#ffffff" d="M 96 24 C 73.22 24 53.82075 37.830252 45.46875 57.40625 C 24.263548 60.534254 8 78.467185 8 100.36719 C 8 100.47467 8.009438 100.5797 8.015625 100.68555 C 8.3503338 79.097216 24.484858 61.501608 45.46875 58.40625 C 53.82075 38.830252 73.22 25 96 25 C 122.696 25 144.96875 43.960562 149.96875 68.976562 C 168.92032 71.135453 183.64798 86.855606 183.98438 106.14844 C 183.99059 106.03929 184 105.93099 184 105.82031 C 183.99998 86.220315 169.14075 70.160562 149.96875 67.976562 C 144.96875 42.960562 122.696 24 96 24 z "/>
</svg>
