<?xml version='1.0' encoding='utf-8'?>
<svg xmlns="http://www.w3.org/2000/svg" width="192" height="192" version="1" id="svg14">
  <defs>
    <filter style="color-interpolation-filters:sRGB" id="filter844" x="0.05" width="1.10" y="0.05" height="1.10">
      <feGaussianBlur stdDeviation="3.20"/>
    </filter>
    <filter style="color-interpolation-filters:sRGB" id="filter4885" x="0.05" y="0.05" width="1.10" height="1.09">
      <feGaussianBlur stdDeviation="1.52"/>
    </filter>
  </defs>
  <rect style="filter:url(#filter844);opacity:0.20;fill:#000000" width="160" height="160" x="-180" y="-176" rx="80" ry="80" transform="matrix(0,-1,-1,0,0,0)"/>
  <rect transform="matrix(0,-1,-1,0,0,0)" ry="80" rx="80" y="-176" x="-176" height="160" width="160" style="fill:#34a853"/>
  <path style="opacity:0.20;fill:#ffffff" d="M 96.00,16 C 51.68,16.00 16,51.68 16,96 c 0,0.12 0.01,0.23 0.01,0.34 C 16.36,52.33 51.90,17.00 96.00,17 H 96 c 44.11,0.00 79.65,35.34 79.99,79.36 0.00,0.12 0.01,0.24 0.01,0.36 0,-44.32 -35.68,-80.00 -80.00,-80 z"/>
  <path style="filter:url(#filter4885);opacity:0.20;fill:#000000;color:#000000" d="m 130.65,57.44 -5.75,5.56 c 13.36,13.84 13.52,35.63 0.35,49.65 l 5.83,5.47 c 16.04,-17.08 15.85,-43.83 0.42,-60.68 z M 100,60 C 84.58,60 72,72.58 72,88 h 8 c 0,-11.09 8.91,-20 20,-20 11.09,0 20,8.91 20,20 0,7.66 -4.24,14.27 -10.52,17.63 l 0.01,0.01 c -5.78,3.05 -9.40,8.10 -11.96,13.31 C 95.80,122.34 95.00,129.79 88,130 c -4.47,0 -8,-3.53 -8,-8 h -8 c 0,8.79 7.21,16 16,16 5.20,0 9.84,-2.52 12.77,-6.39 3.51,-6.06 4.43,-10.10 6.71,-13.45 1.69,-2.48 4.41,-4.58 7.98,-6.85 C 123.01,106.28 128,97.71 128,88 128,72.58 115.42,60 100,60 Z m 0,18 A 10,10 0 0 0 90,88 10,10 0 0 0 100,98 10,10 0 0 0 110,88 10,10 0 0 0 100,78 Z"/>
  <path style="fill:#ffffff;color:#000000" d="M 100,58 C 84.58,58 72,70.58 72,86 h 8 c 0,-11.09 8.91,-20 20,-20 11.09,0 20,8.91 20,20 0,7.66 -4.24,14.27 -10.52,17.63 l 0.01,0.01 c -5.78,3.05 -9.40,8.10 -11.96,13.31 C 95.80,120.34 95.00,127.79 88,128 c -4.47,0 -8,-3.53 -8,-8 h -8 c 0,8.79 7.21,16 16,16 5.20,0 9.84,-2.52 12.77,-6.39 3.51,-6.06 4.43,-10.10 6.71,-13.45 1.69,-2.48 4.41,-4.58 7.98,-6.85 C 123.01,104.28 128,95.71 128,86 128,70.58 115.42,58 100,58 Z m 0,18 A 10,10 0 0 0 90,86 10,10 0 0 0 100,96 10,10 0 0 0 110,86 10,10 0 0 0 100,76 Z"/>
  <path style="fill:#81c995;color:#000000" d="m 130.65,55.44 -5.75,5.56 c 13.36,13.84 13.52,35.63 0.35,49.65 l 5.83,5.47 c 16.04,-17.08 15.85,-43.83 0.42,-60.68 z"/>
</svg>
