<?xml version='1.0' encoding='utf-8'?>
<svg xmlns="http://www.w3.org/2000/svg" width="192" height="192" version="1" id="svg18">
  <defs>
    <filter id="filter955" style="color-interpolation-filters:sRGB" width="1.10" height="1.10" x="0.05" y="0.05">
      <feGaussianBlur stdDeviation="3.20"/>
    </filter>
    <filter id="filter1588" style="color-interpolation-filters:sRGB" width="1.12" height="1.19" x="0.06" y="0.09">
      <feGaussianBlur stdDeviation="3.11"/>
    </filter>
  </defs>
  <rect style="filter:url(#filter955);opacity:0.20" width="160" height="160" x="16" y="20" rx="30" ry="30"/>
  <rect style="fill:#e4e4e4" width="160" height="160" x="16" y="16" rx="30" ry="30"/>
  <path style="opacity:0.20;fill:#ffffff" d="M 46 16 C 29.38 16 16 29.38 16 46 L 16 47 C 16 30.38 29.38 17 46 17 L 146 17 C 162.62 17 176 30.38 176 47 L 176 46 C 176 29.38 162.62 16 146 16 L 46 16 z"/>
  <path style="filter:url(#filter1588);opacity:0.20" d="m 68.38,88.44 c 11.62,-5.28 24.06,-8.26 36.50,-8.44 14.60,0.21 29.23,2.93 42.60,9.69 1.42,0.71 3.22,0 3.71,-1.59 l 4.64,-13.49 c 0.52,-1.61 0.22,-3.36 -1.75,-4.10 C 134.61,60.93 88.35,45.73 37.40,81.77 c -1.30,0.95 -1.76,2.69 -1.09,4.16 l 10.75,24.08 c 0.71,1.64 2.56,2.41 4.26,1.80 12.33,-4.54 30.93,-8.80 50.30,-6.01 -11.21,1.86 -22.25,5.57 -31.94,11.51 -1.46,0.88 -2.04,2.70 -1.36,4.27 l 6.60,15.21 c 0.60,1.31 2.35,1.64 3.38,0.55 2.45,-2.57 5.18,-4.49 7.42,-5.80 13.52,-7.49 29.46,-10.81 44.85,-9.52 1.53,0.05 2.95,0.88 3.44,-2.35 l 4.91,-14.77 c 0.52,-1.50 0.07,-3.16 -1.42,-3.99 -11.90,-7.48 -29.29,-14.23 -53.02,-13.91 -5.09,0.07 -10.48,0.69 -16.19,1.44 z"/>
  <path style="fill:#ee5238" d="M 68.38,86.44 C 80.01,81.16 92.44,78.18 104.89,78 c 14.60,0.21 29.23,2.93 42.60,9.69 1.42,0.71 3.22,0 3.71,-1.59 l 4.64,-13.49 c 0.52,-1.61 0.22,-3.36 -1.75,-4.10 C 134.61,58.93 88.35,43.73 37.40,79.77 c -1.30,0.95 -1.76,2.69 -1.09,4.16 l 10.75,24.08 c 0.71,1.64 2.56,2.41 4.26,1.80 12.33,-4.54 30.93,-8.80 50.30,-6.01 -11.21,1.86 -22.25,5.57 -31.94,11.51 -1.46,0.88 -2.04,2.70 -1.36,4.27 l 6.60,15.21 c 0.60,1.31 2.35,1.64 3.38,0.55 2.45,-2.57 5.18,-4.49 7.42,-5.80 13.52,-7.49 29.46,-10.81 44.85,-9.52 1.53,0.05 2.95,0.88 3.44,-2.35 l 4.91,-14.77 c 0.52,-1.50 0.07,-3.16 -1.42,-3.99 C 125.58,91.44 108.19,84.69 84.46,85 79.37,85.07 73.98,85.69 68.28,86.44 Z"/>
</svg>
