<svg xmlns="http://www.w3.org/2000/svg" id="svg14" width="192" height="192" version="1"><defs><filter style="color-interpolation-filters:sRGB" id="filter876" width="1.11" height="1.09" x=".05" y=".04"><feGaussianBlur stdDeviation=".88"/></filter><filter style="color-interpolation-filters:sRGB" id="filter3088" width="1.08" height="1.11" x=".04" y=".06"><feGaussianBlur stdDeviation="2.92"/></filter></defs><path style="filter:url(#filter3088);opacity:.2;fill:#000" d="m 120,39 c -6.44,0.01 -7.80,0.48 -11.65,1.20 -5.83,1.53 -11.90,3.49 -16.54,5.87 -1.77,0.76 -3.57,1.54 -5.45,2.41 -9.30,4.29 -45.50,23.43 -55.32,29.13 -1.55,0.90 -3.68,1.77 -4.04,4.03 0.07,1.73 2.72,3.47 8.01,6.29 2.86,1.52 5.28,2.92 5.39,3.10 0.11,0.18 -6.07,3.46 -13.73,7.30 C 11.79,105.78 11,106.34 11,109.50 c 0,1.59 1.33,3.92 2.74,4.81 1.75,1.11 68.97,35.46 74.10,37.88 1.55,0.73 3.04,1.40 4.49,2.03 4.59,2.33 9.47,4.08 14.50,5.19 4.42,1.26 8.81,1.44 13.17,1.60 33.69,0 61,-27.31 61,-61 0,-33.69 -27.31,-61 -61,-61 z"/><path style="fill:#fa2235" d="m 120,35 c -6.44,0.01 -7.80,0.48 -11.65,1.20 -5.83,1.53 -11.90,3.49 -16.54,5.87 -1.77,0.76 -3.57,1.54 -5.45,2.41 -9.30,4.29 -45.50,23.43 -55.32,29.13 -1.55,0.90 -3.68,1.77 -4.04,4.03 0.07,1.73 2.72,3.47 8.01,6.29 2.86,1.52 5.28,2.92 5.39,3.10 0.11,0.18 -6.07,3.46 -13.73,7.30 C 11.79,101.78 11,102.34 11,105.50 c 0,1.59 1.33,3.92 2.74,4.81 1.75,1.11 68.97,35.46 74.10,37.88 1.55,0.73 3.04,1.40 4.49,2.03 4.59,2.33 9.47,4.08 14.50,5.19 4.42,1.26 8.81,1.44 13.17,1.60 33.69,0 61,-27.31 61,-61 0,-33.69 -27.31,-61 -61,-61 z"/><path d="m 124.81,111.59 c 22.68,-13.55 22.19,-13.25 22.19,-13.52 0,0.25 -39.69,-24.21 -39.89,-24.07 0.13,0.09 0.16,47.81 0.03,47.96 0.05,0.06 0.19,0.06 0.31,0.00 0.12,0.05 7.96,-4.72 17.42,-10.37 z" style="filter:url(#filter876);opacity:.2"/><path d="m 124.81,109.59 c 22.68,-13.55 22.19,-13.25 22.19,-13.52 0,0.25 -39.69,-24.21 -39.89,-24.07 0.13,0.09 0.16,47.81 0.03,47.96 0.05,0.06 0.19,0.06 0.31,0.00 0.12,0.05 7.96,-4.72 17.42,-10.37 z" style="fill:#fff"/><path style="opacity:.2;fill:#fff" d="M 120 35 C 113.56 35.01 112.20 35.48 108.35 36.20 C 102.52 37.73 96.44 39.68 91.81 42.07 C 90.04 42.82 88.24 43.61 86.36 44.47 C 77.06 48.76 40.87 67.90 31.04 73.61 C 29.50 74.51 27.37 75.37 27 77.64 C 27.01 77.82 27.06 78.00 27.12 78.19 C 27.69 76.26 29.61 75.44 31.04 74.61 C 40.87 68.90 77.06 49.76 86.36 45.47 C 88.24 44.61 90.04 43.82 91.81 43.07 C 96.44 40.68 102.52 38.73 108.35 37.20 C 112.20 36.48 113.56 36.01 120 36 C 153.52 36 180.72 63.04 180.99 96.50 C 180.99 96.33 181 96.17 181 96 C 181 62.31 153.69 35 120 35 z M 39.63 87.54 C 37.93 88.57 32.89 91.22 26.68 94.32 C 11.79 101.78 11 102.34 11 105.50 C 11 105.58 11.04 105.67 11.04 105.75 C 11.26 103.21 13.09 102.13 26.68 95.32 C 34.34 91.49 40.52 88.21 40.41 88.03 C 40.38 87.98 39.88 87.70 39.63 87.54 z"/></svg>