<?xml version='1.0' encoding='utf-8'?>
<svg xmlns="http://www.w3.org/2000/svg" width="192" height="192" version="1.1" id="svg23">
  <defs>
    <filter style="color-interpolation-filters:sRGB" id="filter1060" x="0.05" y="0.05" width="1.10" height="1.10">
      <feGaussianBlur stdDeviation="0.96"/>
    </filter>
    <filter style="color-interpolation-filters:sRGB" id="filter1064" x="0.05" y="0.05" width="1.10" height="1.09">
      <feGaussianBlur stdDeviation="1.23"/>
    </filter>
    <filter style="color-interpolation-filters:sRGB" id="filter1068" x="0.05" y="0.05" width="1.10" height="1.09">
      <feGaussianBlur stdDeviation="2.43"/>
    </filter>
    <filter style="color-interpolation-filters:sRGB" id="filter1072" x="0.05" y="0.05" width="1.10" height="1.09">
      <feGaussianBlur stdDeviation="2.43"/>
    </filter>
  </defs>
  <path style="filter:url(#filter1072);opacity:0.20" d="M 61.46,52 108.04,124.52 105.97,148 H 93.31 l 9.84,32 h 62.20 C 171.21,180 176,175.28 176,169.51 V 62.49 C 176,56.72 171.21,52 165.36,52 Z"/>
  <path style="fill:#e4e4e4" d="m 165.36,176.00 c 5.85,0 10.64,-4.72 10.64,-10.49 V 58.49 c 0,-5.78 -4.79,-10.49 -10.64,-10.49 H 61.46 l 46.58,72.51 -4.88,55.49 z"/>
  <path style="opacity:0.20;fill:#ffffff" d="M 61.46 48 L 62.10 49 L 165.36 49 C 171.21 49 176 53.72 176 59.49 L 176 58.49 C 176 52.72 171.21 48 165.36 48 L 61.46 48 z M 107.73 124.03 L 103.16 176 L 103.24 176 L 107.73 125.03 L 107.96 125.40 L 108.04 124.52 L 107.73 124.03 z "/>
  <path style="filter:url(#filter1064);opacity:0.10" d="m 124,78 v 8 h -19.25 v 8.01 H 108 V 94 h 24 v 0.01 h 11.12 c -2.05,7.12 -6.59,14.00 -11.02,19.23 -5.55,-6.48 -7.16,-9.81 -7.64,-11.23 h -8.16 c 0.60,1.83 2.84,6.71 11.12,16.27 -3.57,3.60 -6.28,5.73 -6.28,5.73 l 2.50,7.71 c 0,0 3.78,-3.20 8.51,-8.15 4.75,5.07 10.87,11.16 18.79,18.43 l 5.15,-5.07 C 147.61,129.35 141.40,123.33 136.83,118.50 c 6.12,-7.14 12.34,-16.28 13.66,-24.51 h 13.51 v 0.02 h 0.02 V 86 H 132 v -8 z"/>
  <path style="fill:#4352b8" d="m 130.54,144 -37.22,0.00 9.84,32 z"/>
  <path style="fill:#5a717f" d="m 124,76 v 8 h -19.25 v 8.01 H 108 V 92 h 24 v 0.01 h 11.12 c -2.05,7.12 -6.59,14.00 -11.02,19.23 -5.55,-6.48 -7.16,-9.81 -7.64,-11.23 h -8.16 c 0.60,1.83 2.84,6.71 11.12,16.27 -3.57,3.60 -6.28,5.73 -6.28,5.73 l 2.50,7.71 c 0,0 3.78,-3.20 8.51,-8.15 4.75,5.07 10.87,11.16 18.79,18.43 l 5.15,-5.07 C 147.61,127.35 141.40,121.33 136.83,116.50 c 6.12,-7.14 12.34,-16.28 13.66,-24.51 h 13.51 v 0.02 h 0.02 V 84 H 132 v -8 z"/>
  <path style="filter:url(#filter1068);opacity:0.20" d="m 26.64,20 c -5.85,0 -10.64,4.73 -10.64,10.51 v 107.00 c 0,5.77 4.79,10.49 10.64,10.49 H 130.54 L 88.84,20 Z"/>
  <path fill="#4285f4" d="m 26.64,16 c -5.85,0 -10.64,4.73 -10.64,10.51 v 107.00 c 0,5.77 4.79,10.49 10.64,10.49 H 130.54 L 88.84,16 Z"/>
  <path style="filter:url(#filter1060);opacity:0.20" d="M 60.48,62 C 46.97,62 36,72.75 36,86 36,99.25 46.97,110 60.48,110 74.64,110 84,100.26 84,86.52 84,84.55 83.75,83.48 83.42,82 H 75.49 60 v 7.99 L 67.39,90 h 8.07 a 16,16 0 0 1 -2.66,5.50 c 0.09,0.14 0.19,0.27 0.29,0.41 a 16,16 0 0 1 0.30,0.39 c 0.85,1.08 -1.90,2.08 -3.22,2.91 A 16,16 0 0 1 60,102 16,16 0 0 1 44,86 16,16 0 0 1 60,70 16,16 0 0 1 70.68,74.09 L 76.89,68.25 C 72.64,64.40 67.09,62 60.48,62 Z"/>
  <path style="fill:#ffffff" d="M 60.48,60 C 46.97,60 36,70.75 36,84 36,97.25 46.97,108 60.48,108 74.64,108 84,98.26 84,84.52 84,82.55 83.75,81.48 83.42,80 H 75.49 60 v 7.99 L 67.39,88 h 8.07 a 16,16 0 0 1 -2.66,5.50 c 0.09,0.14 0.19,0.27 0.29,0.41 a 16,16 0 0 1 0.30,0.39 c 0.85,1.08 -1.90,2.08 -3.22,2.91 A 16,16 0 0 1 60,100 16,16 0 0 1 44,84 16,16 0 0 1 60,68 16,16 0 0 1 70.68,72.09 L 76.89,66.25 C 72.64,62.40 67.09,60 60.48,60 Z"/>
  <path style="opacity:0.20;fill:#ffffff" d="M 26.64 16 C 20.79 16 16 20.72 16 26.51 L 16 27.51 C 16 21.72 20.79 17 26.64 17 L 88.84 17 L 130.21 144 L 130.54 144 L 88.84 16 L 26.64 16 z "/>
</svg>
