<svg xmlns="http://www.w3.org/2000/svg" id="svg12" width="192" height="192" version="1"><defs><filter style="color-interpolation-filters:sRGB" id="filter18576" width="1.12" height="1.08" x=".06" y=".04"><feGaussianBlur stdDeviation="2.69"/></filter><filter style="color-interpolation-filters:sRGB" id="filter18618" width="1.17" height="1.13" x=".09" y=".07"><feGaussianBlur stdDeviation="2.67"/></filter></defs><path style="filter:url(#filter18576);opacity:.2;fill:#000" d="m 96,20 a 54,54 0 0 0 -54,54 54,54 0 0 0 16.21,38.37 h 0.00 A 54,54 0 0 0 67,119.54 V 143 c 0,4.43 3.57,8 8,8 h 33 9 c 4.43,0 8,-3.57 8,-8 V 119.54 A 54,54 0 0 0 150,74 54,54 0 0 0 134.47,36.12 l 0.00,0.00 A 54,54 0 0 0 96,20 Z M 74,165 v 7 c 0,4.43 3.57,8 8,8 h 28 c 4.43,0 8,-3.57 8,-8 v -7 z"/><path style="fill:#333" d="M 96,16.61 A 53.50,53.50 0 0 0 42.50,70.11 53.50,53.50 0 0 0 67.27,115.22 v 23.25 c 0,4.39 3.53,7.93 7.93,7.93 h 41.61 c 4.39,0 7.93,-3.53 7.93,-7.93 V 115.22 A 53.50,53.50 0 0 0 149.50,70.11 53.50,53.50 0 0 0 96,16.61 Z"/><path style="fill:#ea4335" d="M 96 16 A 54 54 0 0 0 42 70 A 54 54 0 0 0 58.21 108.37 L 134.47 32.12 A 54 54 0 0 0 96 16 z"/><path style="fill:#fbbc04" d="M 108 58.59 L 58.22 108.37 A 54 54 0 0 0 67 115.54 L 67 139 C 67 143.43 70.57 147 75 147 L 108 147 L 108 58.59 z"/><path style="fill:#34a853" d="M 134.47 32.12 L 77.59 89 L 108 89 L 108 147 L 117 147 C 121.43 147 125 143.43 125 139 L 125 115.54 A 54 54 0 0 0 150 70 A 54 54 0 0 0 134.47 32.12 L 134.47 32.12 z"/><path style="fill:#1a73e8" d="M 74 161 L 74 168 C 74 172.43 77.57 176 82 176 L 110 176 C 114.43 176 118 172.43 118 168 L 118 161 L 74 161 z"/><path style="filter:url(#filter18618);opacity:.2;fill:#000" d="M 96,35 A 37,37 0 0 0 59,72 37,37 0 0 0 84,106.91 V 132 h 24 V 106.91 A 37,37 0 0 0 133,72 37,37 0 0 0 96,35 Z"/><path style="fill:#fff" d="M 96 33 A 37 37 0 0 0 59 70 A 37 37 0 0 0 84 104.91 L 84 130 L 108 130 L 108 104.91 A 37 37 0 0 0 133 70 A 37 37 0 0 0 96 33 z"/><path style="opacity:.2;fill:#fff" d="M 96 16 A 54 54 0 0 0 42 70 A 54 54 0 0 0 42.04 70.49 A 54 54 0 0 1 96 17 A 54 54 0 0 1 134.47 33.12 L 134.47 33.12 A 54 54 0 0 1 149.96 70.48 A 54 54 0 0 0 150 70 A 54 54 0 0 0 134.47 32.12 L 134.47 32.12 A 54 54 0 0 0 96 16 z M 74 161 L 74 162 L 118 162 L 118 161 L 74 161 z"/></svg>