<?xml version='1.0' encoding='utf-8'?>
<svg xmlns="http://www.w3.org/2000/svg" width="192" height="192" version="1" id="svg20">
  <defs>
    <filter style="color-interpolation-filters:sRGB" id="filter859" x="-0.048000001" width="1.096" y="-0.048000001" height="1.096">
      <feGaussianBlur stdDeviation="3.2"/>
    </filter>
    <filter style="color-interpolation-filters:sRGB" id="filter879" x="-0.048000002" width="1.096" y="-0.048000002" height="1.096">
      <feGaussianBlur stdDeviation="1.44"/>
    </filter>
  </defs>
  <circle style="filter:url(#filter859);opacity:0.2;fill:#000000" cx="96" cy="100" r="80"/>
  <path d="m 96,15.9168 c -28.0656,0 -52.604,14.376 -66.876,36.1248 -0.50428,32.5876 20.2236,43.944 35.25,61 -2.764,-5.1 -4.376,-10.892 -4.376,-17.124 0,-19.944 16.1796,-25.7824 36,-28 l 71.5,-8 c -13.124,-26.1576 -40.132,-44 -71.5,-44 z" style="fill:#e6910e"/>
  <path d="m 26.7988,136.148 c 14.0328,24.3056 38.7524,38.3696 64.724,39.8528 27.6928,-15.2648 42.372,-34.6704 35.2024,-61.028 -3.036,4.9452 -7.2456,9.2352 -12.6432,12.3512 -8.5768,4.952 -16.518,-0.2528 -25.358,-2.57212 -8.962,-2.35108 -18.7988,-1.90968 -23.8188,-10.6048 l -35.754,-61.924 c -16.09,24.448 -18.0384,56.756 -2.3552,83.924 z" style="fill:#fab700"/>
  <path d="m 165.504,135.928 c 14.0328,-24.3056 13.8528,-52.744 2.15236,-75.976 l -70.452,0.028 c 5.8008,0.1568 11.6208,1.6574 17.0184,4.7736 9.2304,5.3292 8.3628,15.8596 10.4044,25.484 1.77876,8.3848 7.4152,15.6512 2.7724,23.6928 l -35.75,61.92 c 29.216,1.712 58.172,-12.756 73.856,-39.924 z" style="fill:#ffce41"/>
  <rect transform="matrix(0,-1,-1,0,0,0)" ry="36" rx="36" y="-132" x="-134" height="72" width="72" style="filter:url(#filter879);opacity:0.2"/>
  <rect transform="matrix(0,-1,-1,0,0,0)" ry="36" rx="36" y="-132" x="-132" height="72" width="72" style="fill:#ffffff"/>
  <rect transform="matrix(0,-1,-1,0,0,0)" ry="28" rx="28" y="-124" x="-124" height="56" width="56" style="fill:#f5b80c"/>
  <path style="opacity:0.2;fill:#ffffff" d="M 96 15.914062 C 51.68 15.914062 16 51.594063 16 95.914062 C 16 96.031531 16.005344 96.147052 16.007812 96.263672 C 16.355722 52.246273 51.897549 16.914062 96 16.914062 C 140.10506 16.914062 175.64843 52.250449 175.99219 96.271484 C 175.99452 96.152259 176 96.034059 176 95.914062 C 176 51.594062 140.32 15.914062 96 15.914062 z "/>
</svg>
