<?xml version='1.0' encoding='utf-8'?>
<svg xmlns="http://www.w3.org/2000/svg" width="192" height="192" version="1.1" id="svg22">
  <defs>
    <filter style="color-interpolation-filters:sRGB" id="filter860" x="-0.050664899" width="1.1013298" y="-0.045601434" height="1.0912029">
      <feGaussianBlur stdDeviation="3.040064"/>
    </filter>
    <filter style="color-interpolation-filters:sRGB" id="filter876" x="-0.020913039" width="1.0418261" y="-0.028156104" height="1.0563122">
      <feGaussianBlur stdDeviation="0.91828122"/>
    </filter>
  </defs>
  <path d="M 35.789062,20.004292 A 11.519334,11.32693 0 0 0 28.25,22.559092 h -0.0078 a 11.519334,11.32693 0 0 0 -0.296876,0.264 11.519334,11.32693 0 0 0 -0.05469,0.048 A 11.519334,11.32693 0 0 0 24,31.332692 V 168.6919 a 11.519334,11.32693 0 0 0 4.15625,8.672 h -0.0078 a 11.519334,11.32693 0 0 0 0.117188,0.088 11.519334,11.32693 0 0 0 0.617188,0.4688 h 0.0078 a 11.519334,11.32693 0 0 0 12.38281,0.578 l 60.484374,-34.344 31.77344,-18.0312 h -0.008 l 28.72656,-16.2968 a 11.519334,11.32693 0 0 0 0,-19.617208 l -28.8125,-16.3516 -0.41406,-0.236 -31.26563,-17.75 -60.484372,-34.344 a 11.519334,11.32693 0 0 0 -5.484373,-1.5156 z" style="filter:url(#filter860);opacity:0.2"/>
  <path d="m 28.242346,18.5504 a 11.519334,11.32693 0 0 0 -4.242344,8.774 V 164.684 a 11.519334,11.32693 0 0 0 4.884438,9.2368 L 107.549,96.5692 v -1.2748 z" style="fill:#4ac0ed"/>
  <path d="m 133.02426,69.6072 -26.12351,25.6872 v 1.9124 l 25.80554,25.3744 29.54049,-16.7712 a 11.519334,11.32693 0 0 0 0,-19.6116 z" style="fill:#ffd530"/>
  <path d="m 106.90075,95.932 -78.75277,77.4372 a 11.519334,11.32693 0 0 0 13.12706,1.1208 l 60.48621,-34.34 31.76697,-18.0352 z" style="fill:#e54257"/>
  <path d="m 35.791584,16.0028 a 11.519334,11.32693 0 0 0 -7.904133,2.8576 L 106.90075,95.932 133.43522,69.8408 101.76125,51.8584 41.27504,17.5184 a 11.519334,11.32693 0 0 0 -5.483456,-1.5156 z" style="fill:#4c9946"/>
  <path style="opacity:0.2;fill:#ffffff" d="M 35.789062 16.007812 A 11.519334 11.32693 0 0 0 28.25 18.5625 L 28.242188 18.5625 A 11.519334 11.32693 0 0 0 27.945312 18.828125 A 11.519334 11.32693 0 0 0 27.890625 18.875 A 11.519334 11.32693 0 0 0 24 27.335938 L 24 28.335938 A 11.519334 11.32693 0 0 1 27.890625 19.875 A 11.519334 11.32693 0 0 1 27.945312 19.828125 A 11.519334 11.32693 0 0 1 28.242188 19.5625 L 28.25 19.5625 A 11.519334 11.32693 0 0 1 35.789062 17.007812 L 35.789062 17.015625 A 11.519334 11.32693 0 0 1 41.273438 18.53125 L 101.75781 52.875 L 133.02344 70.625 L 133.4375 70.851562 L 162.25 87.203125 A 11.519334 11.32693 0 0 1 167.96094 96.492188 A 11.519334 11.32693 0 0 0 162.25 86.203125 L 133.4375 69.851562 L 133.02344 69.625 L 101.75781 51.875 L 41.273438 17.53125 A 11.519334 11.32693 0 0 0 35.789062 16.015625 L 35.789062 16.007812 z "/>
  <path d="M 106.89844,95.929688 28.148438,173.36719 a 11.519334,11.32693 0 0 0 1.179687,0.83593 l 77.570315,-76.273432 25.34375,24.921872 1.28906,-0.73437 z" style="filter:url(#filter876);opacity:0.2"/>
  <path style="opacity:0.2;fill:#ffffff" d="M 133.4375 69.84375 L 133.4375 69.851562 L 162.25 86.203125 A 11.519334 11.32693 0 0 1 162.57031 86.390625 A 11.519334 11.32693 0 0 0 162.25 86.195312 L 133.4375 69.84375 z M 132.14062 71.125 L 106.89844 95.929688 L 107.40625 96.429688 L 132.14062 72.125 L 132.78125 72.488281 L 133.42969 71.851562 L 133.02344 71.625 L 132.14062 71.125 z M 162.625 86.429688 A 11.519334 11.32693 0 0 1 163.57031 87.078125 A 11.519334 11.32693 0 0 0 162.625 86.429688 z M 162.625 87.429688 A 11.519334 11.32693 0 0 1 163.57031 88.078125 A 11.519334 11.32693 0 0 0 162.625 87.429688 z M 167.5625 93 A 11.519334 11.32693 0 0 1 167.74219 93.671875 A 11.519334 11.32693 0 0 0 167.5625 93 z M 167.5625 94 A 11.519334 11.32693 0 0 1 167.74219 94.671875 A 11.519334 11.32693 0 0 0 167.5625 94 z M 167.9375 95.007812 A 11.519334 11.32693 0 0 1 167.97656 95.972656 A 11.519334 11.32693 0 0 0 167.9375 95.007812 z M 167.97656 95.972656 A 11.519334 11.32693 0 0 1 167.96094 96.443359 A 11.519334 11.32693 0 0 1 167.9668 96.523438 A 11.519334 11.32693 0 0 0 167.97656 95.972656 z M 167.95898 96.53125 A 11.519334 11.32693 0 0 1 167.94531 96.953125 A 11.519334 11.32693 0 0 0 167.96094 96.609375 A 11.519334 11.32693 0 0 0 167.95898 96.53125 z "/>
  <path style="opacity:0.2;fill:#ffffff" d="M 28.244141 18.548828 A 11.519334 11.32693 0 0 0 27.947266 18.814453 A 11.519334 11.32693 0 0 1 28.251953 18.556641 L 28.244141 18.548828 z M 27.892578 18.861328 A 11.519334 11.32693 0 0 0 24.001953 27.330078 L 24.001953 28.330078 A 11.519334 11.32693 0 0 1 27.892578 19.861328 L 106.90039 96.931641 L 106.90039 95.931641 L 27.892578 18.861328 z M 28.244141 19.548828 L 28.251953 19.556641 A 11.519334 11.32693 0 0 0 27.947266 19.814453 A 11.519334 11.32693 0 0 1 28.244141 19.548828 z "/>
</svg>
