<?xml version='1.0' encoding='utf-8'?>
<svg xmlns="http://www.w3.org/2000/svg" width="192" height="192" version="1" id="svg28">
  <defs>
    <filter style="color-interpolation-filters:sRGB" id="filter6495" x="-0.048000001" y="-0.048000001" width="1.096" height="1.096">
      <feGaussianBlur stdDeviation="3.2"/>
    </filter>
    <filter style="color-interpolation-filters:sRGB" id="filter4777" x="-0.042792453" y="-0.054650602" width="1.0855849" height="1.1093012">
      <feGaussianBlur stdDeviation="1.89"/>
    </filter>
    <filter style="color-interpolation-filters:sRGB" id="filter4781" x="-0.049058823" y="-0.046985915" width="1.0981176" height="1.0939718">
      <feGaussianBlur stdDeviation="1.39"/>
    </filter>
  </defs>
  <rect transform="matrix(0,-1,-1,0,0,0)" ry="12" rx="12" y="-176" x="-180" height="160" width="160" style="filter:url(#filter6495);opacity:0.2;fill:#000000"/>
  <rect transform="matrix(0,-1,-1,0,0,0)" ry="12" rx="12" y="-176" x="-176" height="160" width="160" style="fill:#2e78f5"/>
  <path style="opacity:0.2;fill:#ffffff" d="m 28,16 c -6.648,0 -12,5.352 -12,12 v 1 c 0,-6.648 5.352,-12 12,-12 h 136 c 6.648,0 12,5.352 12,12 v -1 c 0,-6.648 -5.352,-12 -12,-12 z"/>
  <path style="filter:url(#filter4777);opacity:0.2;fill:#000000" d="m 43,63 v 12 c 0,16.729027 12.085839,30.62551 28,33.46094 V 98.25977 C 60.583955,95.632753 53,86.296944 53,75 V 73 H 71 V 63 Z m 78,0 v 10 h 18 v 2 c 0,11.296944 -7.58395,20.632753 -18,23.25977 v 10.20117 C 136.91416,105.62551 149,91.729027 149,75 V 63 Z m -33,55 v 16 H 77 c -4.432,0 -8,3.568 -8,8 v 4 h 19 16 19 v -4 c 0,-4.432 -3.568,-8 -8,-8 h -11 v -16 z"/>
  <path style="fill:#ebebeb" d="m 43,61 v 12 c 0,16.729027 12.085839,30.62551 28,33.46094 V 96.25977 C 60.583955,93.632753 53,84.296944 53,73 V 71 H 71 V 61 Z m 78,0 v 10 h 18 v 2 c 0,11.296944 -7.58395,20.632753 -18,23.25977 v 10.20117 C 136.91416,103.62551 149,89.729027 149,73 V 61 Z m -33,55 v 16 H 77 c -4.432,0 -8,3.568 -8,8 v 4 h 19 16 19 v -4 c 0,-4.432 -3.568,-8 -8,-8 h -11 v -16 z"/>
  <path style="filter:url(#filter4781);opacity:0.2;fill:#000000" d="m 62,52 v 37 a 34,34 0 0 0 34,34 34,34 0 0 0 34,-34 V 52 Z M 96,67 101.40039,80.464844 115,81 104,91 108,104 96,97 84,104 88,91 77,81 90.599609,80.464844 Z"/>
  <path style="fill:#ffffff" d="m 62,50 v 37 a 34,34 0 0 0 34,34 34,34 0 0 0 34,-34 V 50 Z M 96,65 101.40039,78.464844 115,79 104,89 108,102 96,95 84,102 88,89 77,79 90.599609,78.464844 Z"/>
</svg>
