<?xml version='1.0' encoding='utf-8'?>
<svg xmlns="http://www.w3.org/2000/svg" width="192" height="192" version="1" id="svg14">
  <defs>
    <filter style="color-interpolation-filters:sRGB" id="filter943" x="-0.055978752" width="1.1119575" y="-0.055978752" height="1.1119575">
      <feGaussianBlur stdDeviation="3.2000253"/>
    </filter>
    <filter style="color-interpolation-filters:sRGB" id="filter3502" x="-0.048001212" y="-0.047998788" width="1.0960024" height="1.0959976">
      <feGaussianBlur stdDeviation="2.3200586"/>
    </filter>
  </defs>
  <rect style="filter:url(#filter943);opacity:0.2" width="137.196" height="137.196" x="-71.440002" y="70" rx="41.16" ry="41.16" transform="rotate(-45)"/>
  <rect style="fill:#e4e4e4" width="137.196" height="137.196" x="-68.599998" y="67.160004" rx="41.16" ry="41.16" transform="rotate(-45)"/>
  <path style="filter:url(#filter3502);opacity:0.2;fill:#000000;color:#000000" d="m 96,39.994141 a 7,7 0 0 0 -7,7 v 9 a 7,7 0 0 0 7,7 7,7 0 0 0 7,-7 v -9 a 7,7 0 0 0 -7,-7 z M 70,63 a 7,7 0 0 0 -7,7 v 26 a 7,7 0 0 0 7,7 7,7 0 0 0 7,-7 V 70 a 7,7 0 0 0 -7,-7 z m 52,0 a 7,7 0 0 0 -7,7 v 9 a 7,7 0 0 0 7,7 7,7 0 0 0 7,-7 v -9 a 7,7 0 0 0 -7,-7 z m -26,7 a 7,7 0 0 0 -7,7 v 42 a 7,7 0 0 0 7,7 7,7 0 0 0 7,-7 V 77 A 7,7 0 0 0 96,70 Z M 44,86 a 7,7 0 0 0 -7,7 v 9 a 7,7 0 0 0 7,7 7,7 0 0 0 7,-7 v -9 a 7,7 0 0 0 -7,-7 z m 102,0 a 7,7 0 0 0 -7,7 v 9 a 7,7 0 0 0 7,7 7,7 0 0 0 7,-7 v -9 a 7,7 0 0 0 -7,-7 z m -24,7 a 7,7 0 0 0 -7,7 v 26 a 7,7 0 0 0 7,7 7,7 0 0 0 7,-7 v -26 a 7,7 0 0 0 -7,-7 z m -52,17 a 7,7 0 0 0 -7,7 v 9 a 7,7 0 0 0 7,7 7,7 0 0 0 7,-7 v -9 a 7,7 0 0 0 -7,-7 z m 26,23 a 7,7 0 0 0 -7,7 v 9 a 7,7 0 0 0 7,7 7,7 0 0 0 7,-7 v -9 a 7,7 0 0 0 -7,-7 z"/>
  <path style="opacity:0.2;fill:#ffffff" d="M 96,16 C 85.479172,16 74.960042,20.032148 66.898438,28.09375 L 28.09375,66.898438 C 19.91896,75.073228 15.938172,85.771822 16.056641,96.439453 16.1908,86.105812 20.174507,75.817681 28.09375,67.898438 L 66.898438,29.09375 C 74.960042,21.032148 85.479172,17 96,17 c 10.52083,0 21.03996,4.032148 29.10156,12.09375 l 38.80469,38.804688 c 7.91924,7.919243 11.90295,18.207374 12.03711,28.541015 0.11847,-10.667631 -3.86232,-21.366225 -12.03711,-29.541015 L 125.10156,28.09375 C 117.03996,20.032148 106.52083,16 96,16 Z"/>
  <path style="fill:#fab909;color:#000000" d="m 96,37.994141 a 7,7 0 0 0 -7,7 v 9 a 7,7 0 0 0 7,7 7,7 0 0 0 7,-7 v -9 a 7,7 0 0 0 -7,-7 z M 96,68 a 7,7 0 0 0 -7,7 v 42 a 7,7 0 0 0 7,7 7,7 0 0 0 7,-7 V 75 a 7,7 0 0 0 -7,-7 z m 0,63 a 7,7 0 0 0 -7,7 v 9 a 7,7 0 0 0 7,7 7,7 0 0 0 7,-7 v -9 a 7,7 0 0 0 -7,-7 z"/>
  <path style="fill:#ea4333;color:#000000" d="m 70,61 a 7,7 0 0 0 -7,7 v 26 a 7,7 0 0 0 7,7 7,7 0 0 0 7,-7 V 68 a 7,7 0 0 0 -7,-7 z m 0,47 a 7,7 0 0 0 -7,7 v 9 a 7,7 0 0 0 7,7 7,7 0 0 0 7,-7 v -9 a 7,7 0 0 0 -7,-7 z"/>
  <path style="fill:#0166da;color:#000000" d="m 44,84 a 7,7 0 0 0 -7,7 v 9 a 7,7 0 0 0 7,7 7,7 0 0 0 7,-7 v -9 a 7,7 0 0 0 -7,-7 z"/>
  <path style="fill:#4486f6;color:#000000" d="m 146,84 a 7,7 0 0 0 -7,7 v 9 a 7,7 0 0 0 7,7 7,7 0 0 0 7,-7 v -9 a 7,7 0 0 0 -7,-7 z"/>
  <path style="fill:#36a853;color:#000000" d="m 122,61 a 7,7 0 0 0 -7,7 v 9 a 7,7 0 0 0 7,7 7,7 0 0 0 7,-7 v -9 a 7,7 0 0 0 -7,-7 z m 0,30 a 7,7 0 0 0 -7,7 v 26 a 7,7 0 0 0 7,7 7,7 0 0 0 7,-7 V 98 a 7,7 0 0 0 -7,-7 z"/>
</svg>
