<?xml version='1.0' encoding='utf-8'?>
<svg xmlns="http://www.w3.org/2000/svg" width="192" height="192" version="1" id="svg12">
  <defs>
    <filter style="color-interpolation-filters:sRGB" id="filter35280" x="0.05" y="0.04" width="1.11" height="1.09">
      <feGaussianBlur stdDeviation="2.89"/>
    </filter>
    <filter style="color-interpolation-filters:sRGB" id="filter35325" x="0.05" y="0.05" width="1.09" height="1.10">
      <feGaussianBlur stdDeviation="2.18"/>
    </filter>
  </defs>
  <path style="filter:url(#filter35280);opacity:0.20;fill:#000000;color:#000000" d="M 96,20 A 22,22 0 0 0 74,42 v 27.77 l -12.46,0.10 c -12.12,0.09 -15.58,-9.92 -21.63,0.60 -2.95,5.13 0.09,8.00 4.70,10.80 0.87,1.99 2.45,0.71 7.80,6.26 l 9.76,12.70 -16.97,18.60 c -8.17,8.95 -5.26,8.50 0.79,19.02 5.09,8.84 8.81,-2.69 17.04,-6.42 L 74,132.21 V 158 a 22,22 0 0 0 22,22 22,22 0 0 0 4.89,0.55 A 22,22 0 0 0 118,158 v -19.85 l 17.11,9.91 c 10.49,6.08 23.90,2.47 29.96,-8.05 6.06,-10.52 2.46,-23.98 -8.03,-30.05 L 139.86,100 157.04,90.05 C 167.52,83.98 171.12,70.52 165.06,60 159.01,49.48 145.59,45.87 135.11,51.95 L 118,61.85 V 42 A 22,22 0 0 0 96,20 Z"/>
  <path style="fill:#185abc;color:#000000" d="M 96,16 A 22,22 0 0 0 74,38 v 116 a 22,22 0 0 0 22,22 22,22 0 0 0 22,-22 V 38 A 22,22 0 0 0 96,16 Z"/>
  <path style="fill:#1967d2;color:#000000" d="m 96,16 v 160 a 22,22 0 0 0 22,-22 V 38 A 22,22 0 0 0 96,16 Z"/>
  <path style="fill:#1967d2;color:#000000" d="M 165.06,56 C 159.01,45.48 145.59,41.87 135.10,47.95 L 73.48,83.64 45.19,114.64 c -8.17,8.95 -5.26,8.50 0.79,19.02 6.06,10.52 10.15,-7.86 22.27,-7.54 l 18.72,0.50 70.06,-40.58 C 167.52,79.98 171.12,66.52 165.06,56 Z"/>
  <path style="fill:#185abc;color:#000000" d="m 165.06,56 -97.98,56.75 -18.86,11.91 c 6.06,10.52 2.71,1.51 14.79,2.58 l 19.88,1.76 74.15,-42.95 C 167.52,79.98 171.12,66.52 165.06,56 Z"/>
  <path style="fill:#185abc;color:#000000" d="m 39.90,66.28 c 6.06,-10.52 9.51,0.69 21.63,0.60 l 26.32,0.20 69.18,40.07 c 10.49,6.08 14.08,19.53 8.03,30.05 -6.06,10.52 -19.47,14.13 -29.96,8.05 L 70.68,106.74 59.27,88.15 C 52.93,77.82 33.85,76.80 39.90,66.28 Z"/>
  <path style="fill:#1967d2;color:#000000" d="M 47.52,72.02 71.59,81.86 165.06,136 c -6.06,10.52 -19.47,14.13 -29.96,8.05 L 70.14,106.43 52.41,83.34 C 45.02,73.73 41.46,82.54 47.52,72.02 Z"/>
  <path style="filter:url(#filter35325);opacity:0.20;fill:#000000;color:#000000" d="m 46.00,47.00 c -7.82,0.03 -15.11,4.14 -19.06,11.00 -6.06,10.52 -2.46,23.98 8.03,30.05 l 17.17,9.95 -17.17,9.95 c -10.49,6.08 -14.08,19.53 -8.03,30.05 6.06,10.52 19.47,14.13 29.96,8.05 L 96,123.40 139.86,98.00 96,72.60 56.89,49.95 c -2.85,-1.65 -6.04,-2.64 -9.33,-2.89 0.53,0.04 -1.05,0.06 -1.57,0.06 z"/>
  <path style="fill:#ea4335;color:#000000" d="m 49.51,55.19 c -8.40,0.63 -5.40,3.77 -9.61,11.09 -6.06,10.52 -8.71,10.79 1.78,16.87 L 52.14,96 34.96,105.95 C 24.48,112.02 20.88,125.48 26.94,136 c 6.06,10.52 19.47,14.13 29.96,8.05 L 96,121.40 139.86,96 87.33,79.33 60.52,60.54 C 57.67,58.88 52.80,55.44 49.51,55.19 Z"/>
  <path style="fill:#d93025;color:#000000" d="M 46.00 45.00 C 38.18 44.97 30.89 49.14 26.94 56 C 20.88 66.52 24.48 79.98 34.96 86.05 L 52.14 96 L 139.86 96 L 96 70.60 L 56.89 47.95 C 54.04 46.29 50.85 45.31 47.57 45.06 C 47.04 45.02 46.52 45.00 46.00 45.00 z "/>
  <path style="opacity:0.20;fill:#ffffff;color:#000000" d="M 46.00 45.00 C 38.18 44.97 30.89 49.14 26.94 56 C 24.91 59.53 23.99 63.38 24.02 67.18 C 24.15 63.71 25.09 60.22 26.94 57 C 30.89 50.14 38.18 45.97 46.00 46.00 C 46.52 46.00 47.04 46.02 47.57 46.06 C 50.85 46.31 54.04 47.29 56.89 48.95 L 96 71.60 L 139.00 96.50 L 139.86 96 L 96 70.60 L 56.89 47.95 C 54.04 46.29 50.85 45.31 47.57 45.06 C 47.04 45.02 46.52 45.00 46.00 45.00 z M 51.28 96.50 L 34.96 105.95 C 27.68 110.16 23.73 117.94 24.02 125.82 C 24.09 118.29 27.99 110.99 34.96 106.95 L 52.14 97 L 51.28 96.50 z "/>
  <path style="opacity:0.10;fill:#ffffff;color:#000000" d="M 96,16 C 83.85,16 74,25.85 74,38 v 1 c 0,-12.15 9.85,-22 22,-22 12.15,0 22,9.85 22,22 V 38 C 118,25.85 108.15,16 96,16 Z m 49.48,29.00 c -3.54,0.09 -7.10,1.04 -10.38,2.94 L 118,57.85 v 1 l 17.11,-9.91 C 145.59,42.87 159.01,46.48 165.06,57 c 1.85,3.22 2.79,6.71 2.92,10.18 C 168.01,63.38 167.09,59.53 165.06,56 160.90,48.77 153.26,44.80 145.48,45.00 Z M 140.72,96.50 l 0.86,0.50 17.17,9.95 c 6.97,4.04 10.87,11.34 10.94,18.87 0.29,-7.88 -3.66,-15.65 -10.94,-19.87 z"/>
</svg>
