<?xml version='1.0' encoding='utf-8'?>
<svg xmlns="http://www.w3.org/2000/svg" width="192" height="192" version="1" id="svg12">
  <defs>
    <filter style="color-interpolation-filters:sRGB" id="filter1457" x="0.06" y="0.04" width="1.12" height="1.08">
      <feGaussianBlur stdDeviation="2.76"/>
    </filter>
  </defs>
  <path style="filter:url(#filter1457);opacity:0.20;fill:#000000" class="st0" d="M 95.70,18.00 A 29,29 0 0 0 68.09,39.12 29,29 0 0 0 88.12,74.91 29,29 0 0 0 123.91,54.88 29,29 0 0 0 103.88,19.09 29,29 0 0 0 95.70,18.00 Z m -27.38,64 c -7.20,0.10 -14.44,2.56 -20.01,7.99 l 0.81,0.79 C 36.38,101.65 36.14,119.51 46.98,130.66 l 47.86,49.28 0.01,0.01 0.08,0.08 49.45,-47.64 c 11.19,-10.80 11.55,-28.66 0.77,-39.87 C 134.37,81.27 116.54,80.92 105.35,91.71 l -8.31,7.99 -8.93,-9.19 C 82.69,84.95 75.53,82.10 68.33,82.00 Z"/>
  <circle transform="rotate(-74.22)" class="st0" cx="-15.28" cy="104.08" style="fill:#00c853" r="29"/>
  <path class="st1" d="M 94.92,176 55.64,135.55 105.35,87.71 c 11.19,-10.80 29.02,-10.44 39.80,0.77 v 0 c 10.78,11.22 10.42,29.08 0.77,39.87 z" style="fill:#a5d6a7"/>
  <path class="st2" d="M 136.24,136.04 94.84,175.93 46.98,126.66 C 36.14,115.51 36.38,97.65 47.51,86.79 l 0.82,0.79 c 11.13,-10.86 28.95,-10.62 39.80,0.53 z" style="fill:#81c784"/>
  <path style="fill:#4caf50" class="st1" d="M 97.04 95.71 L 55.64 135.55 L 94.85 175.92 L 136.24 136.04 L 97.04 95.71 z "/>
  <path style="opacity:0.20;fill:#ffffff" class="st0" d="M 95.70 14.00 A 29 29 0 0 0 68.09 35.12 A 29 29 0 0 0 67.08 42.25 A 29 29 0 0 1 68.09 36.12 A 29 29 0 0 1 95.70 15.00 A 29 29 0 0 1 103.88 16.09 A 29 29 0 0 1 124.98 42.88 A 29 29 0 0 0 103.88 15.09 A 29 29 0 0 0 95.70 14.00 z M 68.33 78.00 C 61.12 77.91 53.88 80.56 48.32 85.99 L 47.51 86.79 C 41.78 92.38 38.96 99.82 39.02 107.25 C 39.21 100.16 42.04 93.13 47.51 87.79 L 48.32 86.99 C 53.88 81.56 61.12 78.91 68.33 79.00 C 75.53 79.10 82.69 81.95 88.12 87.52 L 97.04 96.71 L 105.35 88.71 C 116.54 77.92 134.37 78.27 145.14 89.49 C 150.35 94.91 152.94 101.89 152.98 108.88 C 153.20 101.56 150.60 94.17 145.14 88.49 C 134.37 77.27 116.54 76.92 105.35 87.71 L 97.04 95.71 L 88.12 86.52 C 82.69 80.95 75.53 78.10 68.33 78.00 z "/>
</svg>
