<?xml version='1.0' encoding='utf-8'?>
<svg xmlns="http://www.w3.org/2000/svg" width="192" height="192" version="1.1" id="svg22">
  <defs>
    <filter style="color-interpolation-filters:sRGB" id="filter860" x="0.05" width="1.10" y="0.05" height="1.09">
      <feGaussianBlur stdDeviation="3.04"/>
    </filter>
    <filter style="color-interpolation-filters:sRGB" id="filter876" x="0.02" width="1.04" y="0.03" height="1.06">
      <feGaussianBlur stdDeviation="0.92"/>
    </filter>
  </defs>
  <path d="M 35.79,20.00 A 11.52,11.33 0 0 0 28.25,22.56 h 0.01 a 11.52,11.33 0 0 0 0.30,0.26 11.52,11.33 0 0 0 0.05,0.05 A 11.52,11.33 0 0 0 24,31.33 V 168.69 a 11.52,11.33 0 0 0 4.16,8.67 h 0.01 a 11.52,11.33 0 0 0 0.12,0.09 11.52,11.33 0 0 0 0.62,0.47 h 0.01 a 11.52,11.33 0 0 0 12.38,0.58 l 60.48,-34.34 31.77,-18.03 h 0.01 l 28.73,-16.30 a 11.52,11.33 0 0 0 0,-19.62 l -28.81,-16.35 0.41,0.24 -31.27,-17.75 -60.48,-34.34 a 11.52,11.33 0 0 0 -5.48,-1.52 z" style="filter:url(#filter860);opacity:0.20"/>
  <path d="m 28.24,18.55 a 11.52,11.33 0 0 0 -4.24,8.77 V 164.68 a 11.52,11.33 0 0 0 4.88,9.24 L 107.55,96.57 v -1.27 z" style="fill:#4ac0ed"/>
  <path d="m 133.02,69.61 -26.12,25.69 v 1.91 l 25.81,25.37 29.54,-16.77 a 11.52,11.33 0 0 0 0,-19.61 z" style="fill:#ffd530"/>
  <path d="m 106.90,95.93 -78.75,77.44 a 11.52,11.33 0 0 0 13.13,1.12 l 60.49,-34.34 31.77,-18.04 z" style="fill:#e54257"/>
  <path d="m 35.79,16.00 a 11.52,11.33 0 0 0 -7.90,2.86 L 106.90,95.93 133.44,69.84 101.76,51.86 41.28,17.52 a 11.52,11.33 0 0 0 -5.48,-1.52 z" style="fill:#4c9946"/>
  <path style="opacity:0.20;fill:#ffffff" d="M 35.79 16.01 A 11.52 11.33 0 0 0 28.25 18.56 L 28.24 18.56 A 11.52 11.33 0 0 0 27.95 18.83 A 11.52 11.33 0 0 0 27.89 18.88 A 11.52 11.33 0 0 0 24 27.34 L 24 28.34 A 11.52 11.33 0 0 1 27.89 19.88 A 11.52 11.33 0 0 1 27.95 19.83 A 11.52 11.33 0 0 1 28.24 19.56 L 28.25 19.56 A 11.52 11.33 0 0 1 35.79 17.01 L 35.79 17.02 A 11.52 11.33 0 0 1 41.27 18.53 L 101.76 52.88 L 133.02 70.62 L 133.44 70.85 L 162.25 87.20 A 11.52 11.33 0 0 1 167.96 96.49 A 11.52 11.33 0 0 0 162.25 86.20 L 133.44 69.85 L 133.02 69.62 L 101.76 51.88 L 41.27 17.53 A 11.52 11.33 0 0 0 35.79 16.02 L 35.79 16.01 z "/>
  <path d="M 106.90,95.93 28.15,173.37 a 11.52,11.33 0 0 0 1.18,0.84 l 77.57,-76.27 25.34,24.92 1.29,0.73 z" style="filter:url(#filter876);opacity:0.20"/>
  <path style="opacity:0.20;fill:#ffffff" d="M 133.44 69.84 L 133.44 69.85 L 162.25 86.20 A 11.52 11.33 0 0 1 162.57 86.39 A 11.52 11.33 0 0 0 162.25 86.20 L 133.44 69.84 z M 132.14 71.12 L 106.90 95.93 L 107.41 96.43 L 132.14 72.12 L 132.78 72.49 L 133.43 71.85 L 133.02 71.62 L 132.14 71.12 z M 162.62 86.43 A 11.52 11.33 0 0 1 163.57 87.08 A 11.52 11.33 0 0 0 162.62 86.43 z M 162.62 87.43 A 11.52 11.33 0 0 1 163.57 88.08 A 11.52 11.33 0 0 0 162.62 87.43 z M 167.56 93 A 11.52 11.33 0 0 1 167.74 93.67 A 11.52 11.33 0 0 0 167.56 93 z M 167.56 94 A 11.52 11.33 0 0 1 167.74 94.67 A 11.52 11.33 0 0 0 167.56 94 z M 167.94 95.01 A 11.52 11.33 0 0 1 167.98 95.97 A 11.52 11.33 0 0 0 167.94 95.01 z M 167.98 95.97 A 11.52 11.33 0 0 1 167.96 96.44 A 11.52 11.33 0 0 1 167.97 96.52 A 11.52 11.33 0 0 0 167.98 95.97 z M 167.96 96.53 A 11.52 11.33 0 0 1 167.95 96.95 A 11.52 11.33 0 0 0 167.96 96.61 A 11.52 11.33 0 0 0 167.96 96.53 z "/>
  <path style="opacity:0.20;fill:#ffffff" d="M 28.24 18.55 A 11.52 11.33 0 0 0 27.95 18.81 A 11.52 11.33 0 0 1 28.25 18.56 L 28.24 18.55 z M 27.89 18.86 A 11.52 11.33 0 0 0 24.00 27.33 L 24.00 28.33 A 11.52 11.33 0 0 1 27.89 19.86 L 106.90 96.93 L 106.90 95.93 L 27.89 18.86 z M 28.24 19.55 L 28.25 19.56 A 11.52 11.33 0 0 0 27.95 19.81 A 11.52 11.33 0 0 1 28.24 19.55 z "/>
</svg>
