<?xml version='1.0' encoding='utf-8'?>
<svg xmlns="http://www.w3.org/2000/svg" width="192" height="192" version="1.1" id="svg10">
  <defs>
    <filter id="filter1068" style="color-interpolation-filters:sRGB" width="1.10" height="1.09" x="0.05" y="0.05">
      <feGaussianBlur stdDeviation="2.42"/>
    </filter>
    <filter id="filter1072" style="color-interpolation-filters:sRGB" width="1.10" height="1.09" x="0.05" y="0.05">
      <feGaussianBlur stdDeviation="2.42"/>
    </filter>
    <filter id="filter4520" style="color-interpolation-filters:sRGB" width="1.18" height="1.13" x="0.09" y="0.06">
      <feGaussianBlur stdDeviation="1.38"/>
    </filter>
    <filter id="filter4524" style="color-interpolation-filters:sRGB" width="1.17" height="1.30" x="0.08" y="0.15">
      <feGaussianBlur stdDeviation="2.12"/>
    </filter>
  </defs>
  <path style="filter:url(#filter1072);opacity:0.20" d="M 61.46,52 108.04,124.52 105.97,148 H 93.31 l 9.84,32 h 62.20 C 171.21,180 176,175.28 176,169.51 V 62.49 C 176,56.72 171.21,52 165.36,52 Z"/>
  <path style="fill:#e4e4e4" d="m 165.36,176.00 c 5.85,0 10.64,-4.72 10.64,-10.49 V 58.49 c 0,-5.78 -4.79,-10.49 -10.64,-10.49 H 61.46 l 46.58,72.51 -4.88,55.49 z"/>
  <path style="opacity:0.20;fill:#ffffff" d="m 61.46,48 0.64,1 H 165.36 C 171.21,49 176,53.72 176,59.49 v -1 C 176,52.72 171.21,48 165.36,48 Z M 107.73,124.03 103.16,176 h 0.09 l 4.48,-50.97 0.23,0.37 0.08,0.88 z"/>
  <path style="fill:#1c866e" d="m 130.54,144 -37.22,0.00 9.84,32 z"/>
  <path style="filter:url(#filter4524);opacity:0.20" d="m 104,94 v 6 h 60 v -6 z m 0,14 v 6 h 60 v -6 z m 0,14 v 6 h 60 v -6 z"/>
  <path style="fill:#8b8b8b" d="m 104,92 v 6 h 60 v -6 z m 0,14 v 6 h 60 v -6 z m 0,14 v 6 h 60 v -6 z"/>
  <path style="filter:url(#filter1068);opacity:0.20" d="m 26.64,20 c -5.85,0 -10.64,4.73 -10.64,10.51 v 107.00 c 0,5.77 4.79,10.49 10.64,10.49 H 130.54 L 88.84,20 Z"/>
  <path style="fill:#34a853" d="m 26.64,16 c -5.85,0 -10.64,4.73 -10.64,10.51 v 107.00 c 0,5.77 4.79,10.49 10.64,10.49 H 130.54 L 88.84,16 Z"/>
  <path style="opacity:0.20;fill:#ffffff" d="M 26.64,16 C 20.79,16 16,20.72 16,26.51 v 1 C 16,21.72 20.79,17 26.64,17 H 88.84 l 41.37,127 h 0.33 L 88.84,16 Z"/>
  <path style="filter:url(#filter4520);opacity:0.20" d="m 60,58.00 c -4.98,0 -9,4.02 -9,9 v 15 c 0,4.98 4.02,9 9,9 4.98,0 9,-4.02 9,-9 v -15 c 0,-4.98 -4.02,-9 -9,-9 z m -18,21 v 3 C 42,90.91 48.48,98.29 57,99.73 V 110 h 6 V 99.73 c 8.52,-1.44 15,-8.82 15,-17.73 v -3 h -6 v 3 c 0,6.69 -5.31,12 -12,12 -6.69,0 -12,-5.31 -12,-12 v -3 z"/>
  <path style="fill:#ffffff" d="m 60,56.00 c -4.98,0 -9,4.02 -9,9 v 15 c 0,4.98 4.02,9 9,9 4.98,0 9,-4.02 9,-9 v -15 c 0,-4.98 -4.02,-9 -9,-9 z m -18,21 v 3 C 42,88.91 48.48,96.29 57,97.73 V 108 h 6 V 97.73 c 8.52,-1.44 15,-8.82 15,-17.73 v -3 h -6 v 3 c 0,6.69 -5.31,12 -12,12 -6.69,0 -12,-5.31 -12,-12 v -3 z"/>
</svg>
