<?xml version='1.0' encoding='utf-8'?>
<svg xmlns="http://www.w3.org/2000/svg" width="192" height="192" version="1" id="svg22">
  <defs>
    <filter style="color-interpolation-filters:sRGB" id="filter856" x="-0.050666666" width="1.1013333" y="-0.045599999" height="1.0912">
      <feGaussianBlur stdDeviation="3.04"/>
    </filter>
    <filter style="color-interpolation-filters:sRGB" id="filter876" x="-0.048000001" width="1.096" y="-0.048000001" height="1.096">
      <feGaussianBlur stdDeviation="0.8"/>
    </filter>
  </defs>
  <rect transform="scale(-1,1)" ry="8" rx="8" y="20" x="-168" height="160" width="144" style="filter:url(#filter856);opacity:0.2"/>
  <rect transform="scale(-1,1)" ry="8" rx="8" y="16" x="-168" height="160" width="144" style="fill:#e4e4e4"/>
  <rect transform="scale(-1,1)" ry="0" rx="0" y="32" x="-152" height="112" width="112" style="fill:#4fc3f7"/>
  <path style="opacity:0.2;fill:#ffffff" d="M 32 16 C 27.568 16 24 19.568 24 24 L 24 25 C 24 20.568 27.568 17 32 17 L 160 17 C 164.432 17 168 20.568 168 25 L 168 24 C 168 19.568 164.432 16 160 16 L 32 16 z "/>
  <circle r="40" cy="84" cx="96" style="fill:#319df4"/>
  <circle r="40" cy="72" cx="108" style="fill:#0b82e3"/>
  <path d="M 95.570312,32 C 88.450908,39.212852 84,49.063236 84,60 c 0,22.091388 17.90861,40 40,40 10.90844,0 20.78386,-4.380348 28,-11.460936 V 32 Z" style="fill:#094fb4;fill-rule:evenodd"/>
  <path d="m 124,42.000032 a 20,20 0 0 0 -20,20 20,20 0 0 0 20,20 20,20 0 0 0 20,-20 20,20 0 0 0 -20,-20 z m 0,8 a 12,12 0 0 1 12,12 12,12 0 0 1 -12,12 12,12 0 0 1 -12,-12 12,12 0 0 1 12,-12 z" style="filter:url(#filter876);opacity:0.2;fill-rule:evenodd"/>
  <path d="m 124,40.000032 a 20,20 0 0 0 -20,20 20,20 0 0 0 20,20 20,20 0 0 0 20,-20 20,20 0 0 0 -20,-20 z m 0,8 a 12,12 0 0 1 12,12 12,12 0 0 1 -12,12 12,12 0 0 1 -12,-12 12,12 0 0 1 12,-12 z" style="fill:#ffffff;fill-rule:evenodd"/>
</svg>
