<?xml version='1.0' encoding='utf-8'?>
<svg xmlns="http://www.w3.org/2000/svg" width="192" height="192" version="1" id="svg14">
  <defs>
    <filter style="color-interpolation-filters:sRGB" id="filter856" x="0.05" width="1.10" y="0.05" height="1.09">
      <feGaussianBlur stdDeviation="2.16"/>
    </filter>
    <filter style="color-interpolation-filters:sRGB" id="filter884" x="0.09" width="1.19" y="0.03" height="1.06">
      <feGaussianBlur stdDeviation="2.16"/>
    </filter>
  </defs>
  <path d="M 176,168 V 32 c 0,-6.65 -5.35,-12 -12,-12 h -32 c -6.65,0 -12,5.35 -12,12 v 148 h 44 c 6.65,0 12,-5.35 12,-12 z" style="filter:url(#filter884);opacity:0.20"/>
  <path d="M 176,164 V 28 c 0,-6.65 -5.35,-12 -12,-12 h -32 c -6.65,0 -12,5.35 -12,12 v 148 h 44 c 6.65,0 12,-5.35 12,-12 z" style="fill:#f57e04"/>
  <path d="m 76,68 c -6.65,0 -12,5.35 -12,12 v 44 H 28 c -6.65,0 -12,5.35 -12,12 v 32 c 0,6.65 5.35,12 12,12 h 92 V 80 c 0,-6.65 -5.35,-12 -12,-12 z" style="filter:url(#filter856);opacity:0.20"/>
  <path d="m 76,64 c -6.65,0 -12,5.35 -12,12 v 44 H 28 c -6.65,0 -12,5.35 -12,12 v 32 c 0,6.65 5.35,12 12,12 h 92 V 76 c 0,-6.65 -5.35,-12 -12,-12 z" style="fill:#ffc311"/>
  <path style="opacity:0.20;fill:#ffffff" d="M 132 16 C 125.35 16 120 21.35 120 28 L 120 29 C 120 22.35 125.35 17 132 17 L 164 17 C 170.65 17 176 22.35 176 29 L 176 28 C 176 21.35 170.65 16 164 16 L 132 16 z M 76 64 C 69.35 64 64 69.35 64 76 L 64 77 C 64 70.35 69.35 65 76 65 L 108 65 C 114.65 65 120 70.35 120 77 L 120 76 C 120 69.35 114.65 64 108 64 L 76 64 z M 28 120 C 21.35 120 16 125.35 16 132 L 16 133 C 16 126.35 21.35 121 28 121 L 64 121 L 64 120 L 28 120 z "/>
</svg>
