<?xml version='1.0' encoding='utf-8'?>
<svg xmlns="http://www.w3.org/2000/svg" width="192" height="192" version="1" id="svg16">
  <defs>
    <filter style="color-interpolation-filters:sRGB" id="filter853" x="0.05" width="1.10" y="0.05" height="1.10">
      <feGaussianBlur stdDeviation="3.20"/>
    </filter>
    <filter style="color-interpolation-filters:sRGB" id="filter869" x="0.05" width="1.10" y="0.05" height="1.09">
      <feGaussianBlur stdDeviation="2.34"/>
    </filter>
  </defs>
  <rect style="filter:url(#filter853);opacity:0.20;fill:#000000" width="160" height="160" x="-180" y="-176" rx="80" ry="80" transform="matrix(0,-1,-1,0,0,0)"/>
  <rect transform="matrix(0,-1,-1,0,0,0)" ry="80" rx="80" y="-176" x="-176" height="160" width="160" style="fill:#1a9f5e"/>
  <path style="opacity:0.20;fill:#ffffff" d="M 96 16 C 51.68 16 16 51.68 16 96 C 16 96.34 16.00 96.67 16 97 C 16 52.68 51.68 17 96 17 C 140.32 17 176 52.68 176 97 C 176.00 96.67 176 96.34 176 96 C 176 51.68 140.32 16 96 16 z "/>
  <path d="m 96,44.00 c -30.93,0 -56,25.07 -56,56.00 0.03,25.71 17.88,46.94 42.52,54.28 4.06,1.21 6.31,4.55 9,7.38 2.31,2.42 4.36,4.41 4.55,4.41 0.20,0.01 2.09,-1.78 4.20,-3.96 2.67,-2.77 5.37,-6.49 10.12,-8.02 C 134.55,146.33 151.99,125.38 152,100.00 152,69.07 126.93,44.00 96,44.00 Z" style="filter:url(#filter869);opacity:0.20"/>
  <path d="m 96,40 c -30.93,0 -56,25.07 -56,56 0.03,25.71 17.88,46.94 42.52,54.28 4.06,1.21 6.31,4.55 9,7.38 2.31,2.42 4.36,4.41 4.55,4.41 0.20,0.01 2.09,-1.78 4.20,-3.96 2.67,-2.77 5.37,-6.49 10.12,-8.02 C 134.55,142.33 151.99,121.37 152,96 152,65.07 126.93,40 96,40 Z" style="fill:#ffffff"/>
  <path d="m 80,60 c -4.43,0 -8,3.57 -8,8 v 56 c 0,4.43 3.57,8 8,8 h 32 c 4.43,0 8,-3.57 8,-8 V 68 c 0,-4.43 -3.57,-8 -8,-8 z m 0,12 h 32 v 48 H 80 Z" style="fill:#4f4f4f;fill-rule:evenodd"/>
</svg>
