<svg xmlns="http://www.w3.org/2000/svg" id="svg16" width="192" height="192" version="1.1"><defs><filter style="color-interpolation-filters:sRGB" id="filter847" width="1.11" height="1.09" x=".05" y=".04"><feGaussianBlur stdDeviation="2.48"/></filter><filter style="color-interpolation-filters:sRGB" id="filter863" width="1.11" height="1.09" x=".05" y=".04"><feGaussianBlur stdDeviation="2.48"/></filter></defs><path d="m 174.36,168 c 4.16,0.00 6.89,-4.85 5.07,-9.03 L 123.72,35.54 C 122.77,33.37 120.80,32.00 118.64,32 H 73.64 c -4.16,0.00 -6.88,4.85 -5.07,9.02 L 122.28,164.46 c 0.94,2.17 2.91,3.54 5.07,3.54 z" style="filter:url(#filter863);opacity:.2"/><path d="m 174.36,164 c 4.16,0.00 6.89,-4.85 5.07,-9.03 L 123.72,31.54 C 122.77,29.37 120.80,28.00 118.64,28 H 73.64 c -4.16,0.00 -6.88,4.85 -5.07,9.02 L 122.28,160.46 c 0.94,2.17 2.91,3.54 5.07,3.54 z" style="fill:#1a8151"/><path style="opacity:.1;fill:#fff" d="M 73.63 28 C 70.20 28.00 67.77 31.30 68.03 34.80 C 68.25 31.70 70.53 29.00 73.63 29 L 118.63 29 C 120.79 29.00 122.77 30.37 123.72 32.54 L 179.44 155.98 C 179.75 156.68 179.89 157.41 179.94 158.12 C 180.02 157.09 179.89 156.02 179.44 154.98 L 123.72 31.54 C 122.77 29.37 120.79 28.00 118.63 28 L 73.63 28 z"/><path d="M 17.64,168 A 5.64,6.28 0 0 1 12.57,158.97 L 66.28,35.54 A 5.64,6.28 0 0 1 71.36,32 h 47.00 a 5.64,6.28 0 0 1 5.07,9.02 L 69.72,164.46 A 5.64,6.28 0 0 1 64.65,168 Z" style="filter:url(#filter847);opacity:.2"/><path d="M 17.64,164 A 5.64,6.28 0 0 1 12.57,154.97 L 66.28,31.54 A 5.64,6.28 0 0 1 71.36,28 h 47.00 a 5.64,6.28 0 0 1 5.07,9.02 L 69.72,160.46 A 5.64,6.28 0 0 1 64.65,164 Z" style="fill:#4c8cf6"/><path style="opacity:.2;fill:#fff" d="M 71.25 28 A 5.64 6.28 0 0 0 66.28 31.54 L 12.56 154.98 A 5.64 6.28 0 0 0 12.02 158.22 A 5.64 6.28 0 0 1 12.56 155.98 L 66.28 32.54 A 5.64 6.28 0 0 1 71.25 29 A 5.64 6.28 0 0 1 71.36 29 L 118.37 29 A 5.64 6.28 0 0 1 123.98 34.79 A 5.64 6.28 0 0 0 118.37 28 L 71.36 28 A 5.64 6.28 0 0 0 71.25 28 z"/></svg>