<svg xmlns="http://www.w3.org/2000/svg" id="svg18" width="192" height="192" version="1"><defs><filter style="color-interpolation-filters:sRGB" id="filter2139" width="1.14" height="1.07" x=".07" y=".04"><feGaussianBlur stdDeviation="1.34"/></filter><filter style="color-interpolation-filters:sRGB" id="filter2143" width="1.06" height="1.19" x=".03" y=".09"><feGaussianBlur stdDeviation="1.76"/></filter><filter style="color-interpolation-filters:sRGB" id="filter2147" width="1.22" height="1.11" x=".11" y=".06"><feGaussianBlur stdDeviation="2.07"/></filter><filter style="color-interpolation-filters:sRGB" id="filter2151" width="1.06" height="1.19" x=".03" y=".09"><feGaussianBlur stdDeviation="1.76"/></filter></defs><rect style="fill:#3f3f3f" width="126.31" height="80.54" x="32.84" y="55.73" rx="2" ry="2"/><path style="filter:url(#filter2147);opacity:.2;fill:#000" d="m 155.27,158 c 11.41,0 20.73,-9.42 20.73,-20.95 V 85.16 C 176.00,76.87 169.32,69.93 161.11,70 H 146 v 72.95 C 146,151.25 139.55,158 131.34,158 Z"/><path style="fill:#ea4335" d="M 146,66.00 V 81.78 h 30.00 v 0.61 c 0,-8.30 -6.68,-15.23 -14.89,-15.16 z"/><path style="fill:#ea4335" d="m 155.27,155 c 11.41,0 20.73,-9.42 20.73,-20.95 V 82.16 C 176.00,73.87 169.32,66.93 161.11,67 H 146 v 72.95 C 146,148.25 139.55,155 131.34,155 Z"/><path style="filter:url(#filter2151);opacity:.2;fill:#000" d="M 155.27,40.00 H 59.65 c -8.21,0 -15.21,6.77 -14.65,15.05 V 70 H 161.11 C 169.32,70 176,76.84 176,85.13 V 60.95 c 0,-11.67 -9.32,-20.95 -20.73,-20.95 z"/><path style="fill:#4285f4" d="M 155.27,37.00 H 59.65 c -8.21,0 -15.21,6.77 -14.65,15.05 V 67 H 161.11 C 169.32,67 176,73.84 176,82.13 V 57.95 c 0,-11.67 -9.32,-20.95 -20.73,-20.95 z"/><path style="opacity:.2;fill:#fff" d="M 59.65 37 C 51.66 37 44.83 43.43 44.99 51.41 C 45.39 43.90 51.99 38 59.65 38 L 155.27 38 C 166.68 38 176 47.28 176 58.95 L 176 57.95 C 176 46.28 166.68 37 155.27 37 L 59.65 37 z"/><path style="filter:url(#filter2139);opacity:.2;fill:#000" d="m 36.73,40.00 c -11.41,0 -20.73,9.42 -20.73,20.95 V 113.83 c 0,8.29 6.68,15.17 14.89,15.17 H 46 V 55.05 c 0,-8.30 6.45,-15.05 14.66,-15.05 z"/><path style="fill:#34a853" d="m 36.73,37.00 c -11.41,0 -20.73,9.42 -20.73,20.95 V 110.83 c 0,8.29 6.68,15.17 14.89,15.17 H 46 V 52.05 c 0,-8.30 6.45,-15.05 14.66,-15.05 z"/><path style="filter:url(#filter2143);opacity:.2;fill:#000" d="m 36.73,157.95 h 95.61 c 8.21,0 15.21,-6.76 14.65,-15.04 V 128 H 30.89 c -8.21,0 -14.89,-6.89 -14.89,-15.18 v 24.32 c 0,11.39 9.18,20.81 20.73,20.81 z"/><path style="fill:#fbbc04" d="m 36.73,154.95 h 95.61 c 8.21,0 15.21,-6.76 14.65,-15.04 V 125 H 30.89 c -8.21,0 -14.89,-6.89 -14.89,-15.18 v 24.32 c 0,11.39 9.18,20.81 20.73,20.81 z"/><path style="opacity:.2;fill:#fff" d="M 36.73 37 C 25.32 37 16 46.42 16 57.95 L 16 58.95 C 16 47.42 25.32 38 36.73 38 L 55.40 38 C 57.03 37.36 58.80 37 60.66 37 L 36.73 37 z"/><path style="opacity:.2;fill:#fff" d="M 16 109.81 L 16 110.81 C 16 119.11 22.68 126 30.89 126 L 147 126 L 147 125 L 30.89 125 C 22.68 125 16 118.11 16 109.81 z M 147 139.91 L 147 140.91 C 147.01 141.12 147.00 141.33 147.01 141.54 C 147.04 141.00 147.04 140.46 147 139.91 z"/></svg>