<?xml version='1.0' encoding='utf-8'?>
<svg xmlns="http://www.w3.org/2000/svg" width="192" height="192" version="1" id="svg18">
  <defs>
    <filter style="color-interpolation-filters:sRGB" id="filter889" x="0.04" width="1.07" y="0.07" height="1.14">
      <feGaussianBlur stdDeviation="1.39"/>
    </filter>
    <filter style="color-interpolation-filters:sRGB" id="filter905" x="0.05" width="1.10" y="0.05" height="1.10">
      <feGaussianBlur stdDeviation="0.96"/>
    </filter>
    <filter style="color-interpolation-filters:sRGB" id="filter925" x="0.05" width="1.11" y="0.04" height="1.09">
      <feGaussianBlur stdDeviation="2.88"/>
    </filter>
  </defs>
  <path d="m 40,20 c -4.43,0 -8,3.57 -8,8 v 144 c 0,4.43 3.57,8 8,8 h 112 c 4.43,0 8,-3.57 8,-8 V 68 l -44,-4 -4,-44 z" style="filter:url(#filter925);opacity:0.20"/>
  <path d="m 40,16 c -4.43,0 -8,3.57 -8,8 v 144 c 0,4.43 3.57,8 8,8 h 112 c 4.43,0 8,-3.57 8,-8 V 64 l -44,-4 -4,-44 z" style="fill:#c03630"/>
  <path style="opacity:0.10;fill:#ffffff" d="M 40 16 C 35.57 16 32 19.57 32 24 L 32 25 C 32 20.57 35.57 17 40 17 L 112 17 L 159 64 L 160 64 L 112 16 L 40 16 z "/>
  <path d="m 112,18 v 40 c 0,4.42 3.58,8 8,8 h 40 z" style="filter:url(#filter905);opacity:0.20"/>
  <path d="m 112,16 v 40 c 0,4.42 3.58,8 8,8 h 40 z" style="fill:#f36961"/>
  <path style="filter:url(#filter889);opacity:0.20;fill:#000000;color:#000000;font-stretch:normal;font-variant-ligatures:normal;font-variant-position:normal;font-variant-caps:normal;font-variant-numeric:normal;font-variant-alternates:normal;font-feature-settings:normal;text-indent:0;text-align:start;text-decoration-line:none;text-decoration-style:solid;text-decoration-color:#000000;text-transform:none;writing-mode:lr-tb;direction:ltr;text-orientation:mixed;dominant-baseline:auto;baseline-shift:baseline;white-space:normal;shape-padding:0;clip-rule:nonzero;display:inline;overflow:visible;visibility:visible;isolation:auto;mix-blend-mode:normal;color-interpolation:sRGB;color-interpolation-filters:linearRGB;solid-color:#000000;solid-opacity:1;vector-effect:none;fill-rule:nonzero;color-rendering:auto;image-rendering:auto;shape-rendering:auto;text-rendering:auto;enable-background:accumulate" d="m 58.07,96.85 c -1.53,0.01 -2.02,0.08 -2.52,0.13 a 4.00,4.00 0 0 0 -3.48,1.32 4.00,4.00 0 0 0 -1.00,3.35 v 19.70 a 4.00,4.00 0 0 0 0,1.28 v 19.31 a 4.00,4.00 0 1 0 8,0 v -15.89 c 1.97,0.03 4.27,0.12 6.79,0.64 2.89,0.60 5.99,-1.66 8.62,-3.87 C 77.09,119.32 79,115.71 79,111.50 79,107.28 77.09,103.68 74.46,101.46 71.84,99.25 68.74,98.19 65.85,97.59 62.96,96.98 60.15,96.84 58.07,96.85 Z m 27.87,0.08 A 4.00,4.00 0 0 0 82,100.98 v 40.94 a 4.00,4.00 0 0 0 4.62,4.00 c 1.19,0.08 5.81,0.28 11.20,-2.24 6.12,-2.86 12.31,-9.94 12.18,-22.32 0.12,-12.35 -6.29,-19.34 -12.36,-22.16 -5.03,-2.34 -9.16,-2.25 -10.70,-2.16 a 4.00,4.00 0 0 0 -1.01,0.12 z m 31.06,0.02 a 4.00,4.00 0 0 0 -2.74,1.15 4.00,4.00 0 0 0 0.11,0.10 4.00,4.00 0 0 0 -1.09,3.44 v 18.71 a 4.00,4.00 0 0 0 0,1.29 v 20.30 a 4.00,4.00 0 1 0 8,0 V 125.00 H 137 a 4.00,4.00 0 1 0 0,-8 h -15.94 v -12 H 137 a 4.00,4.00 0 1 0 0,-8 h -19.29 a 4.00,4.00 0 0 0 0.71,0.06 z m -57.94,8.00 c 1.55,0.03 3.33,0.10 5.15,0.48 2.10,0.44 3.98,1.22 5.10,2.16 1.11,0.94 1.70,1.81 1.70,3.92 0,2.11 0.58,2.98 -1.70,3.92 -1.11,0.94 -3.00,1.72 -5.10,2.16 -1.82,0.38 -3.60,0.45 -5.15,0.48 z M 90,105.24 c 1.30,0.20 2.76,0.52 4.26,1.22 3.84,1.79 7.64,5.00 7.74,14.99 0.10,9.97 -3.67,13.17 -7.57,14.99 -1.56,0.73 -3.08,1.06 -4.43,1.27 z"/>
  <path style="fill:none;stroke:#ffffff;stroke-width:8;stroke-linecap:round;stroke-linejoin:bevel" d="m 86.07,139.96 c 0,0 20.15,1.80 19.93,-20.55 C 105.78,97.07 86.07,99.02 86.07,99.02 m 0.07,40.91 v -40.94"/>
  <path style="fill:none;stroke:#ffffff;stroke-width:8;stroke-linecap:round;stroke-linejoin:bevel" d="M 117.06,119 H 137 M 117.06,99.00 H 137 m -19.94,40.94 v -40.94"/>
  <path style="fill:none;stroke:#ffffff;stroke-width:8;stroke-linecap:round;stroke-linejoin:bevel" d="M 55.06,120 C 55.06,120 75,122.16 75,109.50 75,96.84 55.06,99.00 55.06,99.00 m 0.00,40.94 v -40.94"/>
</svg>
