<?xml version='1.0' encoding='utf-8'?>
<svg xmlns="http://www.w3.org/2000/svg" width="192" height="192" version="1" id="svg20">
  <defs>
    <filter style="color-interpolation-filters:sRGB" id="filter857" x="0.04" width="1.09" y="0.05" height="1.10">
      <feGaussianBlur stdDeviation="1.20"/>
    </filter>
    <filter style="color-interpolation-filters:sRGB" id="filter885" x="0.05" width="1.09" y="0.05" height="1.10">
      <feGaussianBlur stdDeviation="2.40"/>
    </filter>
    <filter style="color-interpolation-filters:sRGB" id="filter901" x="0.04" width="1.08" y="0.06" height="1.12">
      <feGaussianBlur stdDeviation="1.16"/>
    </filter>
  </defs>
  <path d="m 147.71,92.01 a 5.41,5.33 0 0 0 -4.40,2.66 L 130.02,117.34 116.72,140.01 A 5.41,5.33 0 0 0 121.41,148 h 53.18 a 5.41,5.33 0 0 0 4.68,-7.99 L 165.98,117.34 152.68,94.66 a 5.41,5.33 0 0 0 -4.43,-2.66 5.41,5.33 0 0 0 0.54,0 z" style="filter:url(#filter857);opacity:0.10;fill-rule:evenodd"/>
  <path d="m 147.71,88.01 a 5.41,5.33 0 0 0 -4.40,2.66 L 130.02,113.34 116.72,136.01 A 5.41,5.33 0 0 0 121.41,144 h 53.18 a 5.41,5.33 0 0 0 4.68,-7.99 L 165.98,113.34 152.68,90.66 a 5.41,5.33 0 0 0 -4.43,-2.66 5.41,5.33 0 0 0 0.54,0 z" style="fill:#c4c4c4;fill-rule:evenodd"/>
  <path d="m 79.42,36.01 a 10.82,10.65 0 0 0 -8.79,5.31 L 44.04,86.68 17.45,132.02 A 10.82,10.65 0 0 0 26.82,148 H 133.18 a 10.82,10.65 0 0 0 9.37,-15.98 L 115.96,86.68 89.37,41.33 a 10.82,10.65 0 0 0 -8.86,-5.31 10.82,10.65 0 0 0 -1.08,0 z" style="filter:url(#filter885);opacity:0.20;fill-rule:evenodd"/>
  <path d="m 147.71,88.01 a 5.41,5.33 0 0 0 -4.40,2.66 l -13.30,22.67 -13.29,22.67 a 5.41,5.33 0 0 0 0.62,3.67 5.41,5.33 0 0 1 0.62,-1.67 l 13.29,-22.67 13.30,-22.67 a 5.41,5.33 0 0 1 4.40,-2.66 5.41,5.33 0 0 1 0.54,0 5.41,5.33 0 0 1 4.44,2.66 l 13.30,22.67 13.29,22.67 a 5.41,5.33 0 0 1 0.62,1.68 5.41,5.33 0 0 0 0.62,-3.68 L 165.98,113.34 152.69,90.66 a 5.41,5.33 0 0 0 -4.44,-2.66 5.41,5.33 0 0 0 0.54,0 z" style="opacity:0.10;fill:#ffffff;fill-rule:evenodd"/>
  <path d="m 79.42,32.01 a 10.82,10.65 0 0 0 -8.79,5.31 L 44.04,82.68 17.45,128.02 A 10.82,10.65 0 0 0 26.82,144 H 133.18 a 10.82,10.65 0 0 0 9.37,-15.98 L 115.96,82.68 89.37,37.33 a 10.82,10.65 0 0 0 -8.86,-5.31 10.82,10.65 0 0 0 -1.08,0 z" style="fill:#e4e4e4;fill-rule:evenodd"/>
  <path style="opacity:0.20;fill:#ffffff;fill-rule:evenodd" d="M 79.42 32.02 A 10.82 10.65 0 0 0 70.63 37.33 L 44.04 82.68 L 17.45 128.02 A 10.82 10.65 0 0 0 16.04 133.81 A 10.82 10.65 0 0 1 17.45 129.02 L 44.04 83.68 L 70.63 38.33 A 10.82 10.65 0 0 1 79.42 33.02 A 10.82 10.65 0 0 1 80.51 33.02 A 10.82 10.65 0 0 1 89.37 38.33 L 115.96 83.68 L 142.55 129.02 A 10.82 10.65 0 0 1 143.97 133.84 A 10.82 10.65 0 0 0 142.55 128.02 L 115.96 82.68 L 89.37 37.33 A 10.82 10.65 0 0 0 80.51 32.02 A 10.82 10.65 0 0 0 79.42 32.02 z "/>
  <path d="M 124,34 A 24,24 0 0 0 101.41,50 H 96 A 16,16 0 0 0 80,66 16,16 0 0 0 96,82 h 28 A 24,24 0 0 0 148,58 24,24 0 0 0 124,34 Z" style="filter:url(#filter901);opacity:0.20;fill-rule:evenodd"/>
  <path d="M 124,32 A 24,24 0 0 0 101.41,48 H 96 A 16,16 0 0 0 80,64 16,16 0 0 0 96,80 h 28 A 24,24 0 0 0 148,56 24,24 0 0 0 124,32 Z" style="fill:#039be5;fill-rule:evenodd"/>
</svg>
