<?xml version='1.0' encoding='utf-8'?>
<svg xmlns="http://www.w3.org/2000/svg" width="192" height="192" preserveAspectRatio="xMidYMid" version="1.1" id="svg18">
  <defs>
    <filter style="color-interpolation-filters:sRGB" id="filter3255" x="0.04" y="0.05" width="1.09" height="1.10">
      <feGaussianBlur stdDeviation="2.98"/>
    </filter>
    <filter style="color-interpolation-filters:sRGB" id="filter3344" x="0.11" y="0.11" width="1.22" height="1.22">
      <feGaussianBlur stdDeviation="2.70"/>
    </filter>
  </defs>
  <rect style="fill:#ffffff;stop-color:#000000" width="105" height="80" x="43.50" y="55"/>
  <path style="filter:url(#filter3255);opacity:0.20;fill:#000000;color:#000000" d="M 26,30 C 20.46,30 16,34.46 16,40 V 84 87.54 117.11 138 158 c 0,5.54 4.46,10 10,10 H 103.61 131.70 146 166 c 5.54,0 10,-4.46 10,-10 V 137 40 c 0,-5.54 -4.46,-10 -10,-10 H 146 46 Z m 20,30 h 100 v 78 H 124.06 C 110.48,107.69 80.79,86.05 46,84.15 V 83 Z m 76.50,8 A 16.50,16.50 0 0 0 106,84.50 16.50,16.50 0 0 0 122.50,101 16.50,16.50 0 0 0 139,84.50 16.50,16.50 0 0 0 122.50,68 Z M 46,112.21 C 65.01,113.68 81.57,123.48 92.07,138 H 46 Z"/>
  <path style="fill:#34a853;color:#000000" d="m 41,80 c -8.67,0 -17.05,1.25 -25,3.54 V 113.11 C 23.65,109.83 32.10,108 41,108 c 32.59,0 59.16,24.37 62.61,56 h 28.09 C 128.10,117.16 88.73,80 41,80 Z"/>
  <path style="fill:#4285f4;stop-color:#000000" d="m 16,79 v 55 20 c 0,5.54 4.46,10 10,10 h 120 20 c 5.54,0 10,-4.46 10,-10 v -21 h -30 v 1 H 46 V 79 Z"/>
  <path style="fill:#fabc04;stop-color:#000000" d="m 146,26 v 108 h 30 V 36 c 0,-5.54 -4.46,-10 -10,-10 z"/>
  <circle style="fill:#fabc04;stop-color:#000000" cx="122.50" cy="80.50" r="16.50"/>
  <path style="fill:#ea4335;stop-color:#000000" d="M 26,26 C 20.46,26 16,30.46 16,36 V 80 H 46 V 56 H 146 V 26 H 46 Z"/>
  <path style="opacity:0.20;fill:#ffffff;stop-color:#000000" d="m 26,26 c -5.54,0 -10,4.46 -10,10 v 1 c 0,-5.54 4.46,-10 10,-10 h 20 100 20 c 5.54,0 10,4.46 10,10 v -1 c 0,-5.54 -4.46,-10 -10,-10 H 146 46 Z"/>
  <circle style="filter:url(#filter3344);opacity:0.20;fill:#000000" cx="154" cy="145" r="30"/>
  <circle style="fill:#fc8014" cx="154" cy="143" r="30"/>
  <path style="fill:#ffffff" d="m 164.99,131 c -2.65,0 -4.82,1.00 -6.49,3.02 -1.67,2.00 -2.51,4.75 -2.51,8.25 v 1.48 c 0,3.51 0.84,6.26 2.52,8.26 1.68,2.00 3.85,3 6.50,3 2.73,0 4.90,-1.00 6.53,-3 C 173.18,150.00 174,147.25 174,143.74 v -1.67 c 0.03,-3.43 0.87,-6.14 -2.51,-8.10 C 169.86,131.99 167.70,131 164.99,131 Z m 0,2 c 2.21,0 3.93,0.79 5.16,2.36 1.23,1.57 1.84,3.84 1.84,6.81 v 1.61 c 0,2.99 0.61,5.27 -1.83,6.86 -1.21,1.57 -2.92,2.36 -5.15,2.36 -2.12,0 -3.82,0.79 -5.11,-2.36 C 158.64,149.05 158,146.77 158,143.78 v -1.61 c 0,-2.97 0.63,-5.23 1.90,-6.81 C 161.17,133.79 162.87,133 164.99,133 Z"/>
  <path style="fill:#ffffff" d="m 142.99,131 c -2.65,0 -4.82,1.00 -6.49,3.02 -1.67,2.00 -2.51,4.75 -2.51,8.25 v 1.48 c 0,3.51 0.84,6.26 2.52,8.26 1.68,2.00 3.85,3 6.50,3 2.73,0 4.90,-1.00 6.53,-3 C 151.18,150.00 152,147.25 152,143.74 V 143 h -1 -1 -6 v 2 h 5.96 c 0.15,2.40 0.74,4.28 -1.79,5.64 -1.21,1.57 -2.92,2.36 -5.15,2.36 -2.12,0 -3.82,0.79 -5.11,-2.36 C 136.64,149.05 136,146.77 136,143.78 v -1.61 c 0,-2.97 0.63,-5.23 1.90,-6.81 1.28,-1.57 2.98,-2.36 5.10,-2.36 2.21,0 3.93,0.79 5.16,2.36 0.57,0.73 1.01,1.61 1.31,2.64 h 2.03 c 0.41,-1.58 -1.08,-2.92 -2.01,-4.03 C 147.86,131.99 145.70,131 142.99,131 Z"/>
</svg>
