<?xml version='1.0' encoding='utf-8'?>
<svg xmlns="http://www.w3.org/2000/svg" width="192" height="192" version="1" id="svg18">
  <defs>
    <filter style="color-interpolation-filters:sRGB" id="filter859" x="0.05" width="1.10" y="0.05" height="1.10">
      <feGaussianBlur stdDeviation="3.20"/>
    </filter>
    <filter style="color-interpolation-filters:sRGB" id="filter875" x="0.05" width="1.10" y="0.05" height="1.10">
      <feGaussianBlur stdDeviation="2.56"/>
    </filter>
    <filter style="color-interpolation-filters:sRGB" id="filter891" x="0.05" width="1.10" y="0.05" height="1.10">
      <feGaussianBlur stdDeviation="1.76"/>
    </filter>
  </defs>
  <rect style="filter:url(#filter859);opacity:0.20;fill:#000000" width="160" height="160" x="-180" y="-176" rx="80" ry="80" transform="matrix(0,-1,-1,0,0,0)"/>
  <rect transform="matrix(0,-1,-1,0,0,0)" ry="80" rx="80" y="-176" x="-176" height="160" width="160" style="fill:#3b89f0"/>
  <path d="M 96,34 A 64,64 0 0 0 32,98 64,64 0 0 0 96,162 64,64 0 0 0 160,98 64,64 0 0 0 96,34 Z m 0,4 A 60,60 0 0 1 156,98 60,60 0 0 1 96,158 60,60 0 0 1 36,98 60,60 0 0 1 96,38 Z" style="filter:url(#filter875);opacity:0.20"/>
  <path style="opacity:0.20;fill:#ffffff" d="M 96 16 C 51.68 16 16 51.68 16 96 C 16 96.12 16.01 96.23 16.01 96.35 C 16.36 52.33 51.90 17 96 17 C 140.11 17 175.65 52.34 175.99 96.36 C 175.99 96.24 176 96.12 176 96 C 176 51.68 140.32 16 96 16 z "/>
  <path d="M 96.92,54 C 79.69,54 64.33,63.92 56.82,78.36 53.76,84.28 52,90.92 52,98 c 0,7.27 1.87,14.10 5.09,20.13 l 0.03,0.02 C 64.66,132.32 79.85,142 96.92,142 108.23,142 118.32,137.72 125.91,130.72 134.61,122.68 140,111 140,98 c 0,-2.84 0.28,-5.32 0.77,-8 H 96 v 16 h 26.52 c -1.67,5.76 -5.15,11.00 -9.84,14.40 l 0.03,0.02 A 28,28 0 0 1 96,126 28,28 0 0 1 69.92,108.19 28,28 0 0 1 68,98 28,28 0 0 1 69.85,88.08 28,28 0 0 1 96,70 28,28 0 0 1 114.84,77.33 L 126.48,65.76 C 118.81,58.48 108.52,54 96.92,54 Z" style="filter:url(#filter891);opacity:0.20"/>
  <path d="M 96.92,52 C 79.69,52 64.33,61.92 56.82,76.36 53.76,82.28 52,88.92 52,96 c 0,7.27 1.87,14.10 5.09,20.13 l 0.03,0.02 C 64.66,130.32 79.85,140 96.92,140 108.23,140 118.32,135.72 125.91,128.72 134.61,120.68 140,109 140,96 c 0,-2.84 0.28,-5.32 0.77,-8 H 96 v 16 h 26.52 c -1.67,5.76 -5.15,11.00 -9.84,14.40 l 0.03,0.02 A 28,28 0 0 1 96,124 28,28 0 0 1 69.92,106.19 28,28 0 0 1 68,96 28,28 0 0 1 69.85,86.08 28,28 0 0 1 96,68 28,28 0 0 1 114.84,75.33 L 126.48,63.76 C 118.81,56.48 108.52,52 96.92,52 Z" style="fill:#ffffff"/>
  <path d="M 96,32 A 64,64 0 0 0 32,96 64,64 0 0 0 96,160 64,64 0 0 0 160,96 64,64 0 0 0 96,32 Z m 0,4 A 60,60 0 0 1 156,96 60,60 0 0 1 96,156 60,60 0 0 1 36,96 60,60 0 0 1 96,36 Z" style="fill:#ffffff"/>
</svg>
