<?xml version='1.0' encoding='utf-8'?>
<svg xmlns="http://www.w3.org/2000/svg" width="192" height="192" version="1" id="svg16">
  <defs>
    <filter style="color-interpolation-filters:sRGB" id="filter853" x="0.05" width="1.10" y="0.05" height="1.10">
      <feGaussianBlur stdDeviation="3.20"/>
    </filter>
    <filter style="color-interpolation-filters:sRGB" id="filter873" x="0.04" width="1.09" y="0.05" height="1.10">
      <feGaussianBlur stdDeviation="1.56"/>
    </filter>
  </defs>
  <rect style="filter:url(#filter853);opacity:0.20;fill:#000000" width="160" height="160" x="-180" y="-176" rx="80" ry="80" transform="matrix(0,-1,-1,0,0,0)"/>
  <rect transform="matrix(0,-1,-1,0,0,0)" ry="80" rx="80" y="-176" x="-176" height="160" width="160" style="fill:#4e8df5"/>
  <path d="m 124,76 a 12,12 0 0 0 -12,12 12,12 0 0 0 12,12 12,12 0 0 0 12,-12 12,12 0 0 0 -12,-12 z m 29.66,0.05 c -1.80,0.07 -3.65,0.22 -4.52,0.40 -1.24,0.26 -1.69,1.77 -2.62,8.97 0.91,6.99 -1.70,10.01 -3.66,13.90 -3.27,6.50 -9.30,10.90 -16.79,12.26 -10.53,1.91 -14.12,2.87 -18.26,4.93 C 102.94,119.23 96.93,124.83 96,132 h 44 v -4.89 c 0,0 0.05,-2.45 1.67,-4.05 l 14.44,-16.52 c 0.27,0.51 1.33,-7.05 2.36,-14.52 1.71,-12.46 1.81,-13.67 1.17,-14.64 0.38,0.58 -1.21,-1.16 -1.85,-1.28 0.60,0.12 -2.34,0.11 -4.13,0.04 z" style="opacity:0.40;fill:#ffffff"/>
  <path style="opacity:0.20;fill:#ffffff" d="M 96 16 C 51.68 16 16 51.68 16 96 C 16 96.34 16.00 96.67 16 97 C 16 52.68 51.68 17 96 17 C 140.32 17 176 52.68 176 97 C 176.00 96.67 176 96.34 176 96 C 176 51.68 140.32 16 96 16 z "/>
  <path d="m 45.02,62 c 0.96,0.01 -1.73,0.04 -2.12,0.12 0.84,0.16 -1.93,0.90 -2.43,1.65 0.83,1.25 0.70,2.81 1.55,18.83 1.35,9.61 3.09,18.67 3.09,18.67 L 62.57,123.18 C 63.92,124.46 64,127.12 64,127.12 V 134 h 60 c -1.22,-9.22 -9.11,-16.42 -15.51,-19.92 -5.43,-2.64 -10.14,-3.89 -23.96,-6.34 -9.83,-1.74 -17.75,-7.41 -22.04,-15.77 C 59.92,86.97 58.89,83.10 57.70,74.12 56.47,64.86 55.89,62.91 54.26,62.59 52.56,62.24 47.91,61.98 45.02,62 Z M 84,62 A 16,16 0 0 0 68,78 16,16 0 0 0 84,94 16,16 0 0 0 100,78 16,16 0 0 0 84,62 Z" style="filter:url(#filter873);opacity:0.20"/>
  <path d="m 45.02,60 c 0.96,0.01 -1.73,0.04 -2.12,0.12 0.84,0.16 -1.93,0.90 -2.43,1.65 0.83,1.25 0.70,2.81 1.55,18.83 1.35,9.61 3.09,18.67 3.09,18.67 L 62.57,121.18 C 63.92,122.46 64,125.12 64,125.12 V 132 h 60 c -1.22,-9.22 -9.11,-16.42 -15.51,-19.92 -5.43,-2.64 -10.14,-3.89 -23.96,-6.34 -9.83,-1.74 -17.75,-7.41 -22.04,-15.77 C 59.92,84.97 58.89,81.10 57.70,72.12 56.47,62.86 55.89,60.91 54.26,60.59 52.56,60.24 47.91,59.98 45.02,60 Z M 84,60 A 16,16 0 0 0 68,76 16,16 0 0 0 84,92 16,16 0 0 0 100,76 16,16 0 0 0 84,60 Z" style="fill:#ffffff"/>
</svg>
