<?xml version='1.0' encoding='utf-8'?>
<svg xmlns="http://www.w3.org/2000/svg" width="192" height="192" version="1.1" id="svg20">
  <defs>
    <filter style="color-interpolation-filters:sRGB" id="filter2817" x="-0.045735849" y="-0.0505" width="1.0914717" height="1.101">
      <feGaussianBlur stdDeviation="3.03"/>
    </filter>
  </defs>
  <path style="filter:url(#filter2817);opacity:0.2;fill:#000000;stop-color:#000000" d="M 59.5,28 A 43.5,43.5 0 0 0 16,71.5 43.5,43.5 0 0 0 59.5,115 43.5,43.5 0 0 0 103,71.5 43.5,43.5 0 0 0 59.5,28 Z M 164,57 a 11,11 0 0 0 -11,11 11,11 0 0 0 11,11 11,11 0 0 0 11,-11 11,11 0 0 0 -11,-11 z m -33,14 a 22,22 0 0 0 -22,22 22,22 0 0 0 22,22 22,22 0 0 0 22,-22 22,22 0 0 0 -22,-22 z m 0.5,50 A 25.5,25.5 0 0 0 106,146.5 25.5,25.5 0 0 0 131.5,172 25.5,25.5 0 0 0 157,146.5 25.5,25.5 0 0 0 131.5,121 Z"/>
  <circle style="fill:#4286f5;stop-color:#000000" cx="59.5" cy="67.5" r="43.5"/>
  <circle style="fill:#f9bd05;stop-color:#000000" cx="131.5" cy="142.5" r="25.5"/>
  <circle style="fill:#ea4235;stop-color:#000000" cx="131" cy="89" r="22"/>
  <circle style="fill:#32a854;stop-color:#000000" cx="164" cy="64" r="11"/>
  <path style="opacity:0.2;fill:#ffffff;stop-color:#000000" d="M 59.5 24 A 43.5 43.5 0 0 0 16 67.5 A 43.5 43.5 0 0 0 16.048828 68 A 43.5 43.5 0 0 1 59.5 25 A 43.5 43.5 0 0 1 102.97461 67.75 A 43.5 43.5 0 0 0 103 67.5 A 43.5 43.5 0 0 0 59.5 24 z M 164 53 A 11 11 0 0 0 153 64 A 11 11 0 0 0 153.09961 64.5 A 11 11 0 0 1 164 54 A 11 11 0 0 1 174.95117 64.246094 A 11 11 0 0 0 175 64 A 11 11 0 0 0 164 53 z M 131 67 A 22 22 0 0 0 109 89 A 22 22 0 0 0 109.06641 89.5 A 22 22 0 0 1 131 68 A 22 22 0 0 1 152.96484 89.259766 A 22 22 0 0 0 153 89 A 22 22 0 0 0 131 67 z M 131.5 117 A 25.5 25.5 0 0 0 106 142.5 A 25.5 25.5 0 0 0 106.05664 143 A 25.5 25.5 0 0 1 131.5 118 A 25.5 25.5 0 0 1 156.96875 142.77148 A 25.5 25.5 0 0 0 157 142.5 A 25.5 25.5 0 0 0 131.5 117 z "/>
</svg>
