<?xml version='1.0' encoding='utf-8'?>
<svg xmlns="http://www.w3.org/2000/svg" width="192" height="192" version="1" id="svg14">
  <defs>
    <filter style="color-interpolation-filters:sRGB" id="filter848" x="-0.048000001" width="1.096" y="-0.048000001" height="1.096">
      <feGaussianBlur stdDeviation="3.2"/>
    </filter>
    <filter style="color-interpolation-filters:sRGB" id="filter871" x="-0.048000651" width="1.0960013" y="-0.047999347" height="1.0959987">
      <feGaussianBlur stdDeviation="1.600204"/>
    </filter>
  </defs>
  <path d="m 96,20 c -44.32,0 -80,35.68 -80,80 0,44.32 35.68,80 80,80 h 72 c 4.432,0 8,-3.568 8,-8 V 99.382812 l -0.0156,0.0156 C 175.6612,55.359376 140.11802,20 96,20 Z" style="filter:url(#filter848);opacity:0.2"/>
  <path d="m 96,16 c -44.32,0 -80,35.68 -80,80 0,44.32 35.68,80 80,80 h 72 c 4.432,0 8,-3.568 8,-8 V 95.382812 l -0.0156,0.0156 C 175.6612,51.359376 140.11802,16 96,16 Z" style="fill:#f5bb18"/>
  <path d="m 96,60 c -22.091388,0 -40,17.908612 -40,40 0,22.09139 17.908612,40 40,40 9.99835,-0.016 19.62817,-3.77604 26.99219,-10.53906 l 1.09375,1.25781 7.24218,8.35937 c 1.74739,2.02064 4.67266,0.54334 4.67188,-2.35937 V 120 c 0.0422,-6.57758 -0.0804,-13.67807 0,-20 0,-22.091388 -17.90861,-40 -40,-40 z" style="filter:url(#filter871);opacity:0.1;fill-rule:evenodd"/>
  <path d="m 96,56 c -22.091388,0 -40,17.908612 -40,40 0,22.09139 17.908612,40 40,40 9.99835,-0.016 19.62817,-3.77604 26.99219,-10.53906 l 1.09375,1.25781 7.24218,8.35937 c 1.74739,2.02064 4.67266,0.54334 4.67188,-2.35937 V 116 c 0.0422,-6.57758 -0.0804,-13.67807 0,-20 0,-22.091388 -17.90861,-40 -40,-40 z" style="fill:#ffffff;fill-rule:evenodd"/>
  <path style="opacity:0.2;fill:#ffffff" d="M 96 16 C 51.68 16 16 51.68 16 96 C 16 96.116718 16.005372 96.231698 16.007812 96.347656 C 16.356433 52.330881 51.897996 17 96 17 C 140.11802 17 175.66118 52.359401 175.98438 96.398438 L 176 96.382812 L 176 96 L 176 95.382812 L 175.98438 95.398438 C 175.66118 51.359401 140.11802 16 96 16 z "/>
</svg>
