<?xml version='1.0' encoding='utf-8'?>
<svg xmlns="http://www.w3.org/2000/svg" width="192" height="192" version="1" id="svg20">
  <defs>
    <filter style="color-interpolation-filters:sRGB" id="filter857" x="0.05" width="1.10" y="0.05" height="1.10">
      <feGaussianBlur stdDeviation="2.88"/>
    </filter>
    <filter style="color-interpolation-filters:sRGB" id="filter873" x="0.03" width="1.07" y="0.08" height="1.15">
      <feGaussianBlur stdDeviation="2.32"/>
    </filter>
  </defs>
  <rect transform="matrix(0,-1,-1,0,0,0)" ry="7.20" rx="7.20" y="-168" x="-172" height="144" width="144" style="filter:url(#filter857);opacity:0.20"/>
  <rect transform="matrix(0,-1,-1,0,0,0)" ry="7.20" rx="7.20" y="-168" x="-168" height="144" width="144" style="fill:#4454a8"/>
  <path style="opacity:0.10;fill:#ffffff" d="M 31.20 24 C 27.21 24 24 27.21 24 31.20 L 24 32.20 C 24 28.21 27.21 25 31.20 25 L 160.80 25 C 164.79 25 168 28.21 168 32.20 L 168 31.20 C 168 27.21 164.79 24 160.80 24 L 31.20 24 z "/>
  <path d="m 24,62.00 c -4.43,0 -8,3.57 -8,8 v 56.00 c 0,4.43 3.57,8 8,8 h 35.88 c 16.12,0 20.12,-20 36.12,-20 16,0 20.00,20 36.12,20 H 168 c 4.43,0 8,-3.57 8,-8 V 70.00 c 0,-4.43 -3.57,-8 -8,-8 z" style="filter:url(#filter873);opacity:0.20;fill-rule:evenodd"/>
  <path d="m 24,60 c -4.43,0 -8,3.57 -8,8 v 56 c 0,4.43 3.57,8 8,8 H 59.88 C 76.00,132 80,112 96,112 c 16,0 20.00,20 36.12,20 H 168 c 4.43,0 8,-3.57 8,-8 V 68 c 0,-4.43 -3.57,-8 -8,-8 z" style="fill:#e4e4e4;fill-rule:evenodd"/>
  <path d="m 16,72 v 48 H 52 A 24,24 0 0 0 76,96 24,24 0 0 0 52,72 Z" style="fill:#16aef6;fill-rule:evenodd"/>
  <path d="m 176,72 v 48 H 140 A 24,24 0 0 1 116,96 24,24 0 0 1 140,72 Z" style="fill:#da4b38;fill-rule:evenodd"/>
  <path style="opacity:0.20;fill:#ffffff;fill-rule:evenodd" d="M 24 60 C 19.57 60 16 63.57 16 68 L 16 69 C 16 64.57 19.57 61 24 61 L 168 61 C 172.43 61 176 64.57 176 69 L 176 68 C 176 63.57 172.43 60 168 60 L 24 60 z "/>
</svg>
