<?xml version='1.0' encoding='utf-8'?>
<svg xmlns="http://www.w3.org/2000/svg" width="192" height="192" version="1" id="svg14">
  <defs>
    <filter style="color-interpolation-filters:sRGB" id="filter850" x="-0.048000001" width="1.096" y="-0.048000001" height="1.096">
      <feGaussianBlur stdDeviation="3.2"/>
    </filter>
    <filter style="color-interpolation-filters:sRGB" id="filter870" x="-0.06000154" width="1.1200031" y="-0.039999315" height="1.0799986">
      <feGaussianBlur stdDeviation="1.7999692"/>
    </filter>
  </defs>
  <rect width="160" height="160" x="-180" y="-176" rx="8" ry="8" transform="matrix(0,-1,-1,0,0,0)" style="filter:url(#filter850);opacity:0.2;fill:#000000"/>
  <rect style="fill:#f4b400" transform="matrix(0,-1,-1,0,0,0)" ry="8" rx="8" y="-176" x="-176" height="160" width="160"/>
  <path style="opacity:0.2;fill:#ffffff" d="M 24 16 C 19.568 16 16 19.568 16 24 L 16 25 C 16 20.568 19.568 17 24 17 L 168 17 C 172.432 17 176 20.568 176 25 L 176 24 C 176 19.568 172.432 16 168 16 L 24 16 z "/>
  <path d="m 96,42 a 36,36 0 0 0 -36,36 36,36 0 0 0 13.3908,28 h -1.392 v 40 h 8 v 4 h 32 v -4 h 8 v -40 h -1.42188 a 36,36 0 0 0 13.42,-28 36,36 0 0 0 -36,-36 z m 0,8 A 28,28 0 0 1 124,78 28,28 0 0 1 96,106 28,28 0 0 1 68,78 28,28 0 0 1 96,50 Z m -16,64 h 32 v 8 H 80 Z m 0,16 h 32 v 8 H 80 Z" style="filter:url(#filter870);opacity:0.2"/>
  <path d="M 96,40 A 36,36 0 0 0 60,76 36,36 0 0 0 72,102.76562 V 108 144 h 8 v 4 h 32 v -4 h 8 v -36 -4 -1.26562 A 36,36 0 0 0 132,76 36,36 0 0 0 96,40 Z m 0,8 A 28,28 0 0 1 124,76 28,28 0 0 1 96,104 28,28 0 0 1 68,76 28,28 0 0 1 96,48 Z m -16,64 h 32 v 8 H 80 Z m 0,16 h 32 v 8 H 80 Z" style="fill:#ffffff"/>
</svg>
