<?xml version='1.0' encoding='utf-8'?>
<svg xmlns="http://www.w3.org/2000/svg" width="192" height="192" version="1" id="svg20">
  <defs>
    <filter style="color-interpolation-filters:sRGB" id="filter857" x="-0.044999996" width="1.09" y="-0.051428574" height="1.1028571">
      <feGaussianBlur stdDeviation="1.2000001"/>
    </filter>
    <filter style="color-interpolation-filters:sRGB" id="filter885" x="-0.045000003" width="1.09" y="-0.051428574" height="1.1028571">
      <feGaussianBlur stdDeviation="2.4"/>
    </filter>
    <filter style="color-interpolation-filters:sRGB" id="filter901" x="-0.040941175" width="1.0818824" y="-0.057999998" height="1.116">
      <feGaussianBlur stdDeviation="1.16"/>
    </filter>
  </defs>
  <path d="m 147.71123,92.006696 a 5.409782,5.3262936 0 0 0 -4.39501,2.65594 L 130.0185,117.33873 116.7243,140.01136 A 5.409782,5.3262936 0 0 0 121.40809,148 h 53.18383 a 5.409782,5.3262936 0 0 0 4.68378,-7.98864 L 165.9815,117.33873 152.68378,94.662636 a 5.409782,5.3262936 0 0 0 -4.43022,-2.65594 5.409782,5.3262936 0 0 0 -0.54233,0 z" style="filter:url(#filter857);opacity:0.1;fill-rule:evenodd"/>
  <path d="m 147.71123,88.006696 a 5.409782,5.3262936 0 0 0 -4.39501,2.65594 L 130.0185,113.33873 116.7243,136.01136 A 5.409782,5.3262936 0 0 0 121.40809,144 h 53.18383 a 5.409782,5.3262936 0 0 0 4.68378,-7.98864 L 165.9815,113.33873 152.68378,90.662636 a 5.409782,5.3262936 0 0 0 -4.43022,-2.65594 5.409782,5.3262936 0 0 0 -0.54233,0 z" style="fill:#c4c4c4;fill-rule:evenodd"/>
  <path d="m 79.422452,36.013391 a 10.819564,10.652587 0 0 0 -8.790016,5.311893 L 44.037,86.677468 17.448611,132.02272 A 10.819564,10.652587 0 0 0 26.816176,148 H 133.18382 a 10.819564,10.652587 0 0 0 9.36757,-15.97728 L 115.963,86.677468 89.367564,41.325284 a 10.819564,10.652587 0 0 0 -8.860448,-5.311893 10.819564,10.652587 0 0 0 -1.084664,0 z" style="filter:url(#filter885);opacity:0.2;fill-rule:evenodd"/>
  <path d="m 147.71094,88.007812 a 5.409782,5.3262936 0 0 0 -4.39844,2.656252 l -13.29688,22.671876 -13.28906,22.67187 a 5.409782,5.3262936 0 0 0 -0.625,3.67188 5.409782,5.3262936 0 0 1 0.625,-1.67188 l 13.28906,-22.67187 13.29688,-22.671876 a 5.409782,5.3262936 0 0 1 4.39844,-2.656252 5.409782,5.3262936 0 0 1 0.53906,0 5.409782,5.3262936 0 0 1 4.4375,2.656252 l 13.29688,22.671876 13.28906,22.67187 a 5.409782,5.3262936 0 0 1 0.625,1.67969 5.409782,5.3262936 0 0 0 -0.625,-3.67969 L 165.98438,113.33594 152.6875,90.664064 a 5.409782,5.3262936 0 0 0 -4.4375,-2.656252 5.409782,5.3262936 0 0 0 -0.53906,0 z" style="opacity:0.1;fill:#ffffff;fill-rule:evenodd"/>
  <path d="m 79.422452,32.013391 a 10.819564,10.652587 0 0 0 -8.790016,5.311891 L 44.037,82.677468 17.448611,128.02272 A 10.819564,10.652587 0 0 0 26.816176,144 H 133.18382 a 10.819564,10.652587 0 0 0 9.36757,-15.97728 L 115.963,82.677468 89.367564,37.325282 a 10.819564,10.652587 0 0 0 -8.860448,-5.311891 10.819564,10.652587 0 0 0 -1.084664,0 z" style="fill:#e4e4e4;fill-rule:evenodd"/>
  <path style="opacity:0.2;fill:#ffffff;fill-rule:evenodd" d="M 79.421875 32.015625 A 10.819564 10.652587 0 0 0 70.632812 37.328125 L 44.039062 82.679688 L 17.445312 128.02344 A 10.819564 10.652587 0 0 0 16.037109 133.8125 A 10.819564 10.652587 0 0 1 17.445312 129.02344 L 44.039062 83.679688 L 70.632812 38.328125 A 10.819564 10.652587 0 0 1 79.421875 33.015625 A 10.819564 10.652587 0 0 1 80.507812 33.015625 A 10.819564 10.652587 0 0 1 89.367188 38.328125 L 115.96094 83.679688 L 142.55469 129.02344 A 10.819564 10.652587 0 0 1 143.97266 133.83789 A 10.819564 10.652587 0 0 0 142.55469 128.02344 L 115.96094 82.679688 L 89.367188 37.328125 A 10.819564 10.652587 0 0 0 80.507812 32.015625 A 10.819564 10.652587 0 0 0 79.421875 32.015625 z "/>
  <path d="M 124,34 A 24,24 0 0 0 101.40625,50 H 96 A 16,16 0 0 0 80,66 16,16 0 0 0 96,82 h 28 A 24,24 0 0 0 148,58 24,24 0 0 0 124,34 Z" style="filter:url(#filter901);opacity:0.2;fill-rule:evenodd"/>
  <path d="M 124,32 A 24,24 0 0 0 101.40625,48 H 96 A 16,16 0 0 0 80,64 16,16 0 0 0 96,80 h 28 A 24,24 0 0 0 148,56 24,24 0 0 0 124,32 Z" style="fill:#039be5;fill-rule:evenodd"/>
</svg>
