<?xml version='1.0' encoding='utf-8'?>
<svg xmlns="http://www.w3.org/2000/svg" width="192" height="192" version="1" id="svg26">
  <defs>
    <filter style="color-interpolation-filters:sRGB" id="filter878" x="0.04" width="1.07" y="0.07" height="1.14">
      <feGaussianBlur stdDeviation="2.40"/>
    </filter>
    <filter style="color-interpolation-filters:sRGB" id="filter894" x="0.05" width="1.10" y="0.05" height="1.10">
      <feGaussianBlur stdDeviation="0.64"/>
    </filter>
    <filter style="color-interpolation-filters:sRGB" id="filter910" x="0.02" width="1.04" y="0.03" height="1.06">
      <feGaussianBlur stdDeviation="0.84"/>
    </filter>
  </defs>
  <path d="M 44.01,92 16.71,157.05 C 14.70,161.91 17.21,168.00 21.22,168 H 170.78 c 4.01,0.00 6.52,-6.09 4.51,-10.95 L 147.99,92 95.01,88.12 Z" style="filter:url(#filter878);opacity:0.20"/>
  <path d="M 153.94,153.33 164,130.65 V 31.03 C 164,27.14 160.97,24 157.20,24 H 34.80 c -3.77,0 -6.80,3.14 -6.80,7.03 v 99.97 l 7.63,23.04 c 1.22,3.69 9.62,5.97 13.39,5.96 l 97.77,0.36 c 3.77,0.01 5.58,-2.77 7.15,-6.32 z" style="fill:#3f3f3f"/>
  <path style="opacity:0.10;fill:#ffffff" d="M 34.80 24 C 31.03 24 28 27.13 28 31.03 L 28 32.03 C 28 28.13 31.03 25 34.80 25 L 157.20 25 C 160.97 25 164 28.13 164 32.03 L 164 31.03 C 164 27.13 160.97 24 157.20 24 L 34.80 24 z "/>
  <path d="M 44.01,88 16.71,153.05 C 14.70,157.91 17.21,164.00 21.22,164 H 170.78 c 4.01,0.00 6.52,-6.09 4.51,-10.95 L 147.99,88 95.01,84.12 Z" style="fill:#f4a600"/>
  <path d="m 80.49,87 h 31.02 l 29.71,77 H 50.78 Z" style="fill:#ffd52d"/>
  <circle r="16" cy="90" cx="96" style="filter:url(#filter894);opacity:0.10"/>
  <circle r="16" cy="88" cx="96" style="fill:#ffffff"/>
  <path d="m 96,26.00 c 0,0 -11.45,29.17 -20.80,40.53 C 66.18,77.51 44,90.00 44,90.00 h 104 c 0,0 -22.18,-12.49 -31.20,-23.47 C 107.45,55.17 96,26.00 96,26.00 Z" style="filter:url(#filter910);opacity:0.10"/>
  <path d="M 96,24 C 96,24 84.55,53.17 75.20,64.53 66.18,75.51 44,88 44,88 H 148 C 148,88 125.82,75.51 116.80,64.53 107.45,53.17 96,24 96,24 Z" style="fill:#e94a41"/>
  <path style="opacity:0.20;fill:#ffffff" d="M 80.10 88 L 50.78 164 L 51.17 164 L 80.48 88 L 80.10 88 z M 111.52 88 L 140.83 164 L 141.22 164 L 111.90 88 L 111.52 88 z "/>
  <path style="opacity:0.20;fill:#ffffff" d="M 96 24 C 96 24 84.55 53.16 75.20 64.53 C 66.18 75.50 44 88 44 88 L 45.70 88 C 49.87 85.58 67.24 75.21 75.20 65.53 C 84.55 54.16 96 25 96 25 C 96 25 107.45 54.16 116.80 65.53 C 124.76 75.21 142.13 85.58 146.30 88 L 148 88 C 148 88 125.82 75.50 116.80 64.53 C 107.45 53.16 96 24 96 24 z "/>
</svg>
