<?xml version='1.0' encoding='utf-8'?>
<svg xmlns="http://www.w3.org/2000/svg" width="192" height="192" version="1" id="svg12">
  <defs>
    <filter style="color-interpolation-filters:sRGB" id="filter4329" x="-0.048" y="-0.048" width="1.096" height="1.096">
      <feGaussianBlur stdDeviation="1.76"/>
    </filter>
    <filter style="color-interpolation-filters:sRGB" id="filter4422" x="-0.048000001" y="-0.048000001" width="1.096" height="1.096">
      <feGaussianBlur stdDeviation="3.2"/>
    </filter>
  </defs>
  <path style="filter:url(#filter4422);opacity:0.2;fill:#000000" d="M 38,20 C 25.812,20 16,29.812 16,42 V 52.568359 118.44922 122.78125 158 c 0,12.188 9.812,22 22,22 h 116 c 9.302,0 17.22097,-5.71483 20.44922,-13.83984 0,0 -0.0152,-0.0775 -0.0156,-0.0801 C 175.42566,163.57859 176,160.86354 176,158 V 42 c 0,-12.188 -9.812,-22 -22,-22 h -5.92773 z"/>
  <path style="fill:#34a853" d="M 174.44826,162.1596 C 171.22001,170.28461 163.302,176 154,176 H 38 C 25.812,176 16,166.188 16,154 V 114.44915 L 38.030831,51.004848 C 147.37539,7.5922717 174.44826,162.1596 174.44826,162.1596 Z"/>
  <path style="fill:#4385f5;stop-color:#000000" d="M 80.070365,37.737165 58.849644,76.188485 173.02539,165.04297 C 174.90654,161.79854 176,158.03514 176,154 V 38 c 0,-12.188 -9.812,-22 -22,-22 h -9.13316 z"/>
  <path style="fill:#e94335;stop-color:#000000" d="M 38,16 C 25.812,16 16,25.812 16,38 V 48.567453 L 60.699414,83.995283 148.07227,16 Z"/>
  <path style="fill:#fcbb07;stop-color:#000000" d="M 16,42.841797 V 118.78125 L 64.789062,80.8125 Z"/>
  <circle style="fill:#4385f5;stop-color:#000000" cx="96" cy="81" r="28"/>
  <path style="filter:url(#filter4329);opacity:0.2;fill:#000000;stop-color:#000000" d="M 96,39 A 44,44 0 0 0 52,83 44,44 0 0 0 96,127 44,44 0 0 0 140,83 44,44 0 0 0 96,39 Z m 0,18 A 26,26 0 0 1 122,83 26,26 0 0 1 96,109 26,26 0 0 1 70,83 26,26 0 0 1 96,57 Z"/>
  <path style="fill:#ffffff;stop-color:#000000" d="M 96,37 A 44,44 0 0 0 52,81 44,44 0 0 0 96,125 44,44 0 0 0 140,81 44,44 0 0 0 96,37 Z m 0,18 A 26,26 0 0 1 122,81 26,26 0 0 1 96,107 26,26 0 0 1 70,81 26,26 0 0 1 96,55 Z"/>
  <path style="opacity:0.2;fill:#ffffff;stop-color:#000000" d="M 38,16 C 25.812,16 16,25.812 16,38 v 1 C 16,26.812 25.812,17 38,17 H 144.86719 148.07227 154 c 12.188,0 22,9.812 22,22 v -1 c 0,-12.188 -9.812,-22 -22,-22 h -5.92773 -3.20508 z"/>
</svg>
