<?xml version='1.0' encoding='utf-8'?>
<svg xmlns="http://www.w3.org/2000/svg" width="192" height="192" version="1" id="svg12">
  <defs>
    <filter style="color-interpolation-filters:sRGB" id="filter4329" x="0.05" y="0.05" width="1.10" height="1.10">
      <feGaussianBlur stdDeviation="1.76"/>
    </filter>
    <filter style="color-interpolation-filters:sRGB" id="filter4422" x="0.05" y="0.05" width="1.10" height="1.10">
      <feGaussianBlur stdDeviation="3.20"/>
    </filter>
  </defs>
  <path style="filter:url(#filter4422);opacity:0.20;fill:#000000" d="M 38,20 C 25.81,20 16,29.81 16,42 V 52.57 118.45 122.78 158 c 0,12.19 9.81,22 22,22 h 116 c 9.30,0 17.22,-5.71 20.45,-13.84 0,0 0.02,0.08 0.02,0.08 C 175.43,163.58 176,160.86 176,158 V 42 c 0,-12.19 -9.81,-22 -22,-22 h -5.93 z"/>
  <path style="fill:#34a853" d="M 174.45,162.16 C 171.22,170.28 163.30,176 154,176 H 38 C 25.81,176 16,166.19 16,154 V 114.45 L 38.03,51.00 C 147.38,7.59 174.45,162.16 174.45,162.16 Z"/>
  <path style="fill:#4385f5;stop-color:#000000" d="M 80.07,37.74 58.85,76.19 173.03,165.04 C 174.91,161.80 176,158.04 176,154 V 38 c 0,-12.19 -9.81,-22 -22,-22 h -9.13 z"/>
  <path style="fill:#e94335;stop-color:#000000" d="M 38,16 C 25.81,16 16,25.81 16,38 V 48.57 L 60.70,84.00 148.07,16 Z"/>
  <path style="fill:#fcbb07;stop-color:#000000" d="M 16,42.84 V 118.78 L 64.79,80.81 Z"/>
  <circle style="fill:#4385f5;stop-color:#000000" cx="96" cy="81" r="28"/>
  <path style="filter:url(#filter4329);opacity:0.20;fill:#000000;stop-color:#000000" d="M 96,39 A 44,44 0 0 0 52,83 44,44 0 0 0 96,127 44,44 0 0 0 140,83 44,44 0 0 0 96,39 Z m 0,18 A 26,26 0 0 1 122,83 26,26 0 0 1 96,109 26,26 0 0 1 70,83 26,26 0 0 1 96,57 Z"/>
  <path style="fill:#ffffff;stop-color:#000000" d="M 96,37 A 44,44 0 0 0 52,81 44,44 0 0 0 96,125 44,44 0 0 0 140,81 44,44 0 0 0 96,37 Z m 0,18 A 26,26 0 0 1 122,81 26,26 0 0 1 96,107 26,26 0 0 1 70,81 26,26 0 0 1 96,55 Z"/>
  <path style="opacity:0.20;fill:#ffffff;stop-color:#000000" d="M 38,16 C 25.81,16 16,25.81 16,38 v 1 C 16,26.81 25.81,17 38,17 H 144.87 148.07 154 c 12.19,0 22,9.81 22,22 v -1 c 0,-12.19 -9.81,-22 -22,-22 h -5.93 -3.21 z"/>
</svg>
