<?xml version='1.0' encoding='utf-8'?>
<svg xmlns="http://www.w3.org/2000/svg" width="192" height="192" version="1" id="svg22">
  <defs>
    <filter style="color-interpolation-filters:sRGB" id="filter881" x="-0.056542372" width="1.1130847" y="-0.0417" height="1.0834">
      <feGaussianBlur stdDeviation="2.78"/>
    </filter>
    <filter style="color-interpolation-filters:sRGB" id="filter882" x="-0.056571431" width="1.1131429" y="-0.041684212" height="1.0833684">
      <feGaussianBlur stdDeviation="0.33"/>
    </filter>
  </defs>
  <path style="filter:url(#filter881);opacity:0.2;fill:#000000" d="M 96,20 C 62.187036,20 55.278026,46.751752 54.193359,79.294922 43.55901,89.955187 37,104.68296 37,121 c 0,32.686 26.313998,59 59,59 32.686,0 59,-26.314 59,-59 0,-16.31704 -6.55901,-31.044813 -17.19336,-41.705078 C 136.72046,46.751752 129.81097,20 96,20 Z m 0,17 c 11.86661,0 20.11707,9.248357 23.30664,29.757812 C 112.16296,63.699047 104.28824,62 96,62 87.711757,62 79.837041,63.699047 72.693359,66.757812 75.882616,46.248357 84.13339,37 96,37 Z"/>
  <path d="M 95.999997,16 C 58.198882,16 53.998882,49.411765 53.999999,87 h 17.243424 c -0.44454,-37.588235 8.94771,-54 24.756574,-54 15.808863,0 25.198883,16.411765 24.756573,54 H 138 C 137.999,49.411765 133.79888,16 95.999997,16 Z" style="fill:#e4e4e4"/>
  <path style="opacity:0.2;fill:#ffffff" d="M 96,16 C 58.198885,16 53.998883,49.411765 54,87 h 0.0078 C 54.083466,49.824059 58.536771,17 96,17 c 37.46102,0 41.91447,32.824059 41.99219,70 H 138 C 137.999,49.411765 133.79888,16 96,16 Z M 71.234375,84.310547 c -0.0051,0.880878 -6.48e-4,1.783589 0.0059,2.689453 h 0.0039 c -0.01079,-0.912277 -0.01052,-1.802056 -0.0098,-2.689453 z m 49.531245,0 c 8e-4,0.887397 9.7e-4,1.777176 -0.01,2.689453 h 0.004 c 0.006,-0.905864 0.011,-1.808575 0.006,-2.689453 z"/>
  <rect transform="matrix(0,-1,-1,0,0,0)" ry="59.000004" rx="59.000004" y="-155" x="-176.00002" height="118.00001" width="118.00001" style="fill:#fb5a3a"/>
  <g transform="matrix(4,0,0,4,24,69)" style="opacity:0.5">
    <path d="m 12,5 c -1.6572,0 -3,1.3434 -3,3 0,1.6566 1.3428,3 3,3 1.6572,0 3,-1.3434 3,-3 0,-1.6566 -1.3428,-3 -3,-3 z" style="fill:#ffffff"/>
    <path d="m 12,12.000001 c -4.9995,0.0032 -5,3.446153 -5,3.446153 v 1.4 C 7,16.846154 7.923071,19 12,19 c 4.076929,0 5,-2.153846 5,-2.153846 v -1.4 c 0,0 0,-3.448307 -4.999,-3.446153 z" style="fill:#ffffff"/>
  </g>
  <g transform="matrix(4,0,0,4,72,69)" style="opacity:0.5">
    <path d="m 12,5 c -1.6572,0 -3,1.3434 -3,3 0,1.6566 1.3428,3 3,3 1.6572,0 3,-1.3434 3,-3 0,-1.6566 -1.3428,-3 -3,-3 z" style="fill:#ffffff"/>
    <path d="m 12,12.000001 c -4.9995,0.0032 -5,3.446153 -5,3.446153 v 1.4 C 7,16.846154 7.923071,19 12,19 c 4.076929,0 5,-2.153846 5,-2.153846 v -1.4 c 0,0 0,-3.448307 -4.999,-3.446153 z" style="fill:#ffffff"/>
  </g>
  <g transform="matrix(4,0,0,4,31.999998,55)" style="filter:url(#filter882);opacity:0.2">
    <path d="m 16,6 c -2.2096,0 -4,1.7912 -4,4 0,2.2088 1.7904,4 4,4 2.2096,0 4,-1.7912 4,-4 0,-2.2088 -1.7904,-4 -4,-4 z"/>
    <path d="m 16,16.000001 c -6.9993,0.0042 -7,4.430769 -7,4.430769 v 1.8 c 0,0 1.292299,2.76923 7,2.76923 5.707701,0 7,-2.76923 7,-2.76923 v -1.8 c 0,0 0,-4.433538 -6.9986,-4.430769 z"/>
  </g>
  <g transform="matrix(4,0,0,4,31.999998,53)">
    <path d="m 16,6 c -2.2096,0 -4,1.7912 -4,4 0,2.2088 1.7904,4 4,4 2.2096,0 4,-1.7912 4,-4 0,-2.2088 -1.7904,-4 -4,-4 z" style="fill:#ffffff"/>
    <path d="m 16,16.000001 c -6.9993,0.0042 -7,4.430769 -7,4.430769 v 1.8 c 0,0 1.292299,2.76923 7,2.76923 5.707701,0 7,-2.76923 7,-2.76923 v -1.8 c 0,0 0,-4.433538 -6.9986,-4.430769 z" style="fill:#ffffff"/>
  </g>
</svg>
