<?xml version='1.0' encoding='utf-8'?>
<svg xmlns="http://www.w3.org/2000/svg" width="192" height="192" version="1" id="svg14">
  <defs>
    <filter style="color-interpolation-filters:sRGB" id="filter856" x="0.04" width="1.08" y="0.06" height="1.12">
      <feGaussianBlur stdDeviation="2.72"/>
    </filter>
    <filter style="color-interpolation-filters:sRGB" id="filter876" x="0.05" width="1.11" y="0.04" height="1.09">
      <feGaussianBlur stdDeviation="0.88"/>
    </filter>
    <filter style="color-interpolation-filters:sRGB" id="filter2061" x="0.05" y="0.05" width="1.10" height="1.10">
      <feGaussianBlur stdDeviation="1.76"/>
    </filter>
  </defs>
  <path d="m 82.84,155.90 c -26.45,0.50 -37.18,0.95 -43.74,-1.81 -4.81,0.63 -7.18,-1.25 -9.84,-2.57 -4.40,-2.18 -7.14,-5.21 -9.12,-10.11 -1.81,-4.48 -2.54,-8.03 -3.22,-15.55 0.76,-8.48 0.82,-10.02 0.90,-23.24 0.09,-15.54 0.09,-20.64 1.14,-30.95 0.55,-5.41 1.35,-9.00 2.84,-12.81 1.37,-3.47 2.61,-5.39 4.88,-7.50 2.85,-2.65 5.98,-4.27 9.93,-5.12 5.90,-1.27 32.54,-2.25 61.20,-2.25 28.66,0 55.31,0.98 61.21,2.25 4.26,0.92 7.39,2.62 10.45,5.67 2.39,2.39 3.62,4.56 5.08,8.96 1.51,4.54 2.09,8.56 2.95,20.45 0.41,5.65 0.41,31.64 0,37.28 0.48,6.60 -1.06,12.48 -1.45,14.59 -1.00,5.41 -2.97,10.47 -5.18,13.35 -1.52,1.98 -4.52,4.33 -7.03,5.51 -2.54,1.20 -4.96,1.80 -8.87,2.18 -12.10,1.19 -49.04,2.06 -70.32,1.65 z" style="filter:url(#filter856);opacity:0.20"/>
  <path d="m 82.84,151.90 c -26.45,0.50 -37.18,0.95 -43.74,-1.81 -4.81,0.63 -7.18,-1.25 -9.84,-2.57 -4.40,-2.18 -7.14,-5.21 -9.12,-10.11 -1.81,-4.48 -2.54,-8.03 -3.22,-15.55 0.76,-8.48 0.82,-10.02 0.90,-23.24 0.09,-15.54 0.09,-20.64 1.14,-30.95 0.55,-5.41 1.35,-9.00 2.84,-12.81 1.37,-3.47 2.61,-5.39 4.88,-7.50 2.85,-2.65 5.98,-4.27 9.93,-5.12 C 40.70,40.98 67.35,40 96.01,40 c 28.66,0 55.31,0.98 61.21,2.25 4.26,0.92 7.39,2.62 10.45,5.67 2.39,2.39 3.62,4.56 5.08,8.96 1.51,4.54 2.09,8.56 2.95,20.45 0.41,5.65 0.41,31.64 0,37.28 0.48,6.60 -1.06,12.48 -1.45,14.59 -1.00,5.41 -2.97,10.47 -5.18,13.35 -1.52,1.98 -4.52,4.33 -7.03,5.51 -2.54,1.20 -4.96,1.80 -8.87,2.18 -12.10,1.19 -49.04,2.06 -70.32,1.65 z" style="fill:#fa2235"/>
  <path d="M 97.81,111.59 C 120.49,98.04 120.00,98.34 120.00,98.07 c 0,0.25 -39.69,-24.21 -39.89,-24.07 0.13,0.09 0.16,47.81 0.03,47.96 0.05,0.06 0.19,0.06 0.31,0.00 0.12,0.05 7.96,-4.72 17.42,-10.37 z" style="filter:url(#filter876);opacity:0.20"/>
  <path d="M 97.81,109.59 C 120.49,96.04 120.00,96.34 120.00,96.07 c 0,0.25 -39.69,-24.21 -39.89,-24.07 0.13,0.09 0.16,47.81 0.03,47.96 0.05,0.06 0.19,0.06 0.31,0.00 0.12,0.05 7.96,-4.72 17.42,-10.37 z" style="fill:#ffffff"/>
  <path style="opacity:0.20;fill:#ffffff" d="m 96.02,40 c -28.66,0 -55.31,0.98 -61.20,2.25 -3.95,0.85 -7.08,2.46 -9.93,5.12 -2.27,2.11 -3.52,4.03 -4.88,7.50 -1.50,3.81 -2.30,7.40 -2.84,12.81 0.81,7.98 -1.09,12.96 -1.14,21.94 0.06,-8.43 0.36,-13.23 1.14,-20.94 0.55,-5.41 1.34,-9.00 2.84,-12.81 1.37,-3.47 2.62,-5.39 4.88,-7.50 C 27.73,45.71 30.86,44.10 34.81,43.25 40.71,41.98 67.35,41 96.02,41 c 28.66,0 55.31,0.98 61.20,2.25 4.26,0.92 7.39,2.62 10.45,5.67 2.39,2.39 3.62,4.55 5.09,8.96 1.51,4.54 2.09,8.55 2.95,20.45 0.20,2.83 0.28,10.75 0.28,18.66 0.00,0.32 0.01,0.63 0.01,0.98 0.02,-8.57 0.07,-17.57 0.29,-20.65 C 174.84,65.44 174.26,61.42 172.75,56.88 171.29,52.48 170.05,50.31 167.66,47.92 164.61,44.87 161.48,43.17 157.22,42.25 151.32,40.98 124.68,40 96.02,40 Z"/>
  <circle r="44" cy="142" cx="144" style="filter:url(#filter2061);opacity:0.20;fill:#000000"/>
  <circle r="44" cy="140" cx="144" style="fill:#e4e4e4"/>
  <path style="fill:#fa2235;stop-color:#000000" d="m 126,123 c -4.43,0 -8,3.57 -8,8 v 18 c 0,4.43 3.57,8 8,8 h 10 l 8,-7 8,7 h 10 c 4.43,0 8,-3.57 8,-8 v -18 c 0,-4.43 -3.57,-8 -8,-8 z m 6,11 a 6,6 0 0 1 6,6 6,6 0 0 1 -6,6 6,6 0 0 1 -6,-6 6,6 0 0 1 6,-6 z m 24,0 a 6,6 0 0 1 6,6 6,6 0 0 1 -6,6 6,6 0 0 1 -6,-6 6,6 0 0 1 6,-6 z"/>
</svg>
