<?xml version='1.0' encoding='utf-8'?>
<svg xmlns="http://www.w3.org/2000/svg" width="192" height="192" version="1" id="svg12">
  <defs>
    <filter style="color-interpolation-filters:sRGB" id="filter2477" x="-0.042370711" y="-0.055354753" width="1.0847414" height="1.1107095">
      <feGaussianBlur stdDeviation="2.8600237"/>
    </filter>
  </defs>
  <path style="filter:url(#filter2477);opacity:0.2;fill:#000000;color:#000000" d="m 30.667969,42.051379 a 17,17 0 0 0 -5.714844,1.476563 17,17 0 0 0 -8.423828,22.517578 l 41,90 a 17,17 0 0 0 22.517578,8.42382 17,17 0 0 0 8.423828,-22.51758 l -41,-89.99999 a 17,17 0 0 0 -13.839844,-9.875 17,17 0 0 0 -2.96289,-0.02539 z m 49.998047,0.03516 a 16,16 0 0 0 -8.179688,1.296875 16,16 0 0 0 -8.101562,21.128906 l 41.000004,91.999993 a 16,16 0 0 0 21.1289,8.10156 16,16 0 0 0 8.10156,-21.1289 L 93.615234,51.484973 A 16,16 0 0 0 80.666016,42.086536 Z M 161,42.998645 a 16,16 0 0 0 -16,16 16,16 0 0 0 16,16 16,16 0 0 0 16,-16 16,16 0 0 0 -16,-16 z m -19,33 a 17,17 0 0 0 -17,17 17,17 0 0 0 17,16.999995 17,17 0 0 0 17,-16.999995 17,17 0 0 0 -17,-17 z"/>
  <path style="fill:#0085f7;color:#000000" d="m 33.630859,38.078125 a 17,17 0 0 0 -8.677734,1.451172 17,17 0 0 0 -8.423828,22.517578 l 41,89.999995 a 17,17 0 0 0 22.517578,8.42383 17,17 0 0 0 8.423828,-22.51758 l -41,-89.999995 a 17,17 0 0 0 -13.839844,-9.875 z"/>
  <path style="fill:#00a94b;color:#000000" d="m 159,89 a 17,17 0 0 1 -17,17 17,17 0 0 1 -17,-17 17,17 0 0 1 17,-17 17,17 0 0 1 17,17 z"/>
  <path style="fill:#ff4131;color:#000000" d="M 177,55 A 16,16 0 0 1 161,71 16,16 0 0 1 145,55 16,16 0 0 1 161,39 16,16 0 0 1 177,55 Z"/>
  <path style="fill:#ffbc00;color:#000000" d="m 80.666016,38.087891 a 16,16 0 0 0 -8.179688,1.296875 16,16 0 0 0 -8.101562,21.128906 l 41.000004,91.999998 a 16,16 0 0 0 21.1289,8.10156 16,16 0 0 0 8.10156,-21.1289 L 93.615234,47.486328 A 16,16 0 0 0 80.666016,38.087891 Z"/>
  <path style="opacity:0.2;fill:#ffffff;color:#000000" d="M 30.667969 38.052734 A 17 17 0 0 0 24.953125 39.529297 A 17 17 0 0 0 15.107422 54.236328 A 17 17 0 0 1 24.953125 40.529297 A 17 17 0 0 1 30.667969 39.052734 A 17 17 0 0 1 33.630859 39.078125 A 17 17 0 0 1 47.470703 48.953125 L 88.470703 138.95312 A 17 17 0 0 1 89.978516 145.26758 A 17 17 0 0 0 88.470703 137.95312 L 47.470703 47.953125 A 17 17 0 0 0 33.630859 38.078125 A 17 17 0 0 0 30.667969 38.052734 z M 80.666016 38.087891 A 16 16 0 0 0 72.486328 39.384766 A 16 16 0 0 0 63.130859 55.839844 A 16 16 0 0 1 72.486328 40.384766 A 16 16 0 0 1 80.666016 39.087891 A 16 16 0 0 1 93.615234 48.486328 L 134.61523 140.48633 A 16 16 0 0 1 135.97461 146.5 A 16 16 0 0 0 134.61523 139.48633 L 93.615234 47.486328 A 16 16 0 0 0 80.666016 38.087891 z M 161 39 A 16 16 0 0 0 145 55 A 16 16 0 0 0 145.08008 55.5 A 16 16 0 0 1 161 40 A 16 16 0 0 1 176.96094 55.25 A 16 16 0 0 0 177 55 A 16 16 0 0 0 161 39 z M 142 72 A 17 17 0 0 0 125 89 A 17 17 0 0 0 125.06641 89.5 A 17 17 0 0 1 142 73 A 17 17 0 0 1 158.96484 89.271484 A 17 17 0 0 0 159 89 A 17 17 0 0 0 142 72 z "/>
</svg>
