<?xml version='1.0' encoding='utf-8'?>
<svg xmlns="http://www.w3.org/2000/svg" width="192" height="192" version="1.1" id="svg28">
  <defs>
    <filter style="color-interpolation-filters:sRGB" id="filter880" x="0.05" width="1.10" y="0.05" height="1.10">
      <feGaussianBlur stdDeviation="3.20"/>
    </filter>
    <filter style="color-interpolation-filters:sRGB" id="filter888" x="0.02" width="1.05" y="0.02" height="1.05">
      <feGaussianBlur stdDeviation="0.88"/>
    </filter>
    <filter style="color-interpolation-filters:sRGB" id="filter904" x="0.05" width="1.10" y="0.05" height="1.10">
      <feGaussianBlur stdDeviation="0.96"/>
    </filter>
  </defs>
  <path style="filter:url(#filter880);opacity:0.20;fill:#000000" d="m 161.86,19.99 0.01,0.01 0.01,0.01 z m 0.01,0.01 -5.45,5.44 L 149.06,20 H 24 c -4.43,0 -8,3.57 -8,8 v 137.61 6.13 c 0,4.43 3.57,8 8,8 h 0.26 L 24,180 H 160.60 168 c 4.43,0 8,-3.57 8,-8 V 116.67 47.95 l 0.19,0.32 -1.40,-13.09 -5.50,0.69 0.09,0.10 c 0.67,0.92 -1.52,-1.81 -2.82,-2.78 l -7.40,-5.48 z"/>
  <path d="M 173.17,168.18 176,112.67 V 43.94 l -4.02,-6.90 c -2.23,-3.83 -2.43,-5.86 -5.99,-8.50 L 149.06,16 H 24 c -4.43,0 -8,3.57 -8,8 V 161.61 L 18.12,168 c 1.40,4.21 3.09,5.37 7.29,6.76 L 29.15,176 H 160.60 l 5.63,-1.24 c 4.33,0.95 6.71,-2.16 6.94,-6.59 z" style="fill:#1ea362"/>
  <path style="opacity:0.10;fill:#ffffff" d="M 24 16 C 19.57 16 16 19.57 16 24 L 16 25 C 16 20.57 19.57 17 24 17 L 149.56 17 L 150.06 16 L 24 16 z "/>
  <path d="m 174.41,30.54 -5.50,0.69 -67.64,68.93 H 82.28 c -4.43,0 -8,3.57 -8,8 v 17.56 L 24,176 h 144 l -26.94,-26.94 c 1.21,-1.40 1.98,-3.20 1.98,-5.21 v -2.33 L 176,168 V 45.36 Z" style="fill:#e4e4e4;fill-rule:evenodd"/>
  <path d="M 161.86,16 144.23,33.60 16,161.60 v 6.14 c 0,4.43 3.57,8 8,8 h 6.15 l 126.97,-126.75 4.33,-9.82 -1.51,-7.65 c 0.86,-4.35 -4.34,-1.97 -2.48,-5.99 l 4.40,-9.54 z" style="fill:#ffffff;fill-rule:evenodd"/>
  <circle r="44" cy="54" cx="140" style="filter:url(#filter888);opacity:0.10"/>
  <circle r="44" cy="52" cx="140" style="fill:#ffb505"/>
  <path d="M 142.26,104 C 116,104 92.00,116 92,135.98 V 176 h 76 c 4.43,0 8,-3.57 8,-8 V 111.12 C 167.10,106.63 155.28,104 142.26,104 Z" style="fill:#ffb505;fill-rule:evenodd"/>
  <path d="m 142.26,104 c -11.83,0 -23.18,2.46 -32.11,6.96 l 9.43,9.44 23.58,23.60 22.42,-24 8.94,-9.56 C 165.80,106.38 154.59,104 142.26,104 Z" style="fill:#fa7102;fill-rule:evenodd"/>
  <path style="opacity:0.20;fill:#ffffff;fill-rule:evenodd" d="M 140 8 A 44 44 0 0 0 96 52 A 44 44 0 0 0 96.02 52.47 A 44 44 0 0 1 140 9 A 44 44 0 0 1 183.97 52.47 A 44 44 0 0 0 184 52 A 44 44 0 0 0 140 8 z "/>
  <path d="m 52.49,30.00 c -9.40,0 -17.79,5.40 -21.88,13.28 C 28.95,46.52 28,50.16 28,54 c 0,3.96 1.01,7.72 2.77,11 4.14,7.72 12.43,13 21.72,13 6.17,0 11.68,-2.32 15.82,-6.16 C 73.06,67.44 76,61.08 76,54 76,52.64 75.87,51.30 75.66,50 H 72.00 67.46 52.00 v 8 h 15.47 c 0.89,3.46 -2.92,6.53 -5.77,8.70 A 16,16 0 0 1 52,70 16,16 0 0 1 37.18,60.01 16,16 0 0 1 36,54 16,16 0 0 1 37.12,48.14 16,16 0 0 1 52,38.00 16,16 0 0 1 62.77,42.20 l 5.83,-5.80 c -4.16,-3.96 -9.79,-6.40 -16.10,-6.40 z" style="filter:url(#filter904);opacity:0.20"/>
  <path d="m 52.49,28.00 c -9.40,0 -17.79,5.40 -21.88,13.28 C 28.95,44.52 28,48.16 28,52 c 0,3.96 1.01,7.72 2.77,11 4.14,7.72 12.43,13 21.72,13 6.17,0 11.68,-2.32 15.82,-6.16 C 73.06,65.44 76,59.08 76,52 76,50.64 75.87,49.30 75.66,48 H 72.00 67.46 52.00 v 8 h 15.47 c 0.89,3.46 -2.92,6.53 -5.77,8.70 A 16,16 0 0 1 52,68 16,16 0 0 1 37.18,58.01 16,16 0 0 1 36,52 16,16 0 0 1 37.12,46.14 16,16 0 0 1 52,36.00 16,16 0 0 1 62.77,40.20 l 5.83,-5.80 c -4.16,-3.96 -9.79,-6.40 -16.10,-6.40 z" style="fill:#ffffff"/>
</svg>
