<?xml version='1.0' encoding='utf-8'?>
<svg xmlns="http://www.w3.org/2000/svg" width="192" height="192" version="1.1" id="svg20">
  <defs>
    <filter style="color-interpolation-filters:sRGB" id="filter857" x="0.05" width="1.10" y="0.05" height="1.10">
      <feGaussianBlur stdDeviation="3.20"/>
    </filter>
    <filter style="color-interpolation-filters:sRGB" id="filter865" x="0.02" width="1.05" y="0.02" height="1.05">
      <feGaussianBlur stdDeviation="1.12"/>
    </filter>
  </defs>
  <circle r="80" cy="100" cx="96" style="filter:url(#filter857);opacity:0.20"/>
  <circle r="80" cy="96" cx="96" style="fill:#e4e4e4"/>
  <path d="M 97.19,42 C 75.23,42 55.67,54.64 46.16,73.04 l 13.35,9.04 L 46.12,73.04 C 42.25,80.56 40,89.04 40,98 c 0,9.28 2.37,18.00 6.49,25.68 L 66.25,109.77 A 32,32 0 0 1 64,98 32,32 0 0 1 66.15,86.56 32,32 0 0 1 96,66 32,32 0 0 1 118,74.81 L 134.73,57 C 125.02,47.72 111.88,42 97.19,42 Z M 96,86 v 24 h 29.63 c -2.36,5.82 -6.39,10.81 -11.57,14.37 A 32,32 0 0 1 96,130 32,32 0 0 1 66.27,109.80 L 46.53,123.68 C 56.16,141.68 75.51,154 97.19,154 c 14.37,0 27.22,-5.40 36.89,-14.32 C 145.14,129.44 152,114.52 152,98 c 0,-2.69 0.24,-5.29 0.59,-7.87 l 0.05,0.32 L 150.80,86 h -9.38 z" style="filter:url(#filter865);opacity:0.10"/>
  <path style="opacity:0.20;fill:#ffffff" d="M 96 16 A 80 80 0 0 0 16 96 A 80 80 0 0 0 16.02 96.47 A 80 80 0 0 1 96 17 A 80 80 0 0 1 175.97 96.51 A 80 80 0 0 0 176 96 A 80 80 0 0 0 96 16 z "/>
  <path d="m 96,84 v 24 h 29.63 c -2.38,5.88 -6.46,10.93 -11.72,14.48 l 20.16,15.20 C 145.14,127.44 152,112.52 152,96 c 0,-2.69 0.24,-5.29 0.59,-7.87 l 0.05,0.32 L 150.80,84 h -9.38 z" style="fill:#3779d7"/>
  <path d="M 97.19,40 C 75.23,40 55.67,52.64 46.16,71.04 L 66.15,84.56 A 32,32 0 0 1 96,64 32,32 0 0 1 118,72.81 L 134.73,55 C 125.02,45.72 111.88,40 97.19,40 Z" style="fill:#e7453c"/>
  <path d="M 46.12,71.04 C 42.25,78.56 40,87.04 40,96 c 0,9.28 2.37,18.00 6.49,25.68 L 66.25,107.77 A 32,32 0 0 1 64,96 32,32 0 0 1 66.15,84.56 l -6.63,-4.48 z" style="fill:#eead33"/>
  <path d="M 66.27,107.80 46.53,121.68 C 56.16,139.68 75.51,152 97.19,152 c 14.37,0 27.22,-5.40 36.89,-14.32 L 114.12,122.33 A 32,32 0 0 1 96,128 32,32 0 0 1 66.27,107.80 Z" style="fill:#359950"/>
</svg>
