<svg xmlns="http://www.w3.org/2000/svg" id="svg36" width="192" height="192" version="1"><defs><filter style="color-interpolation-filters:sRGB" id="filter884" width="1.1" height="1.1" x=".05" y=".05"><feGaussianBlur stdDeviation="3.2"/></filter><filter style="color-interpolation-filters:sRGB" id="filter903" width="1.06" height="1.23" x=".03" y=".12"><feGaussianBlur stdDeviation=".96"/></filter><filter style="color-interpolation-filters:sRGB" id="filter923" width="1.08" height="1.12" x=".04" y=".06"><feGaussianBlur stdDeviation="1.44"/></filter><filter style="color-interpolation-filters:sRGB" id="filter943" width="1.1" height="1.1" x=".05" y=".05"><feGaussianBlur stdDeviation=".4"/></filter><filter style="color-interpolation-filters:sRGB" id="filter961" width="1.08" height="1.11" x=".04" y=".06"><feGaussianBlur stdDeviation=".28"/></filter></defs><rect style="filter:url(#filter884);opacity:.2;fill:#000" width="160" height="160" x="-180" y="-176" rx="80" ry="80" transform="matrix(0,-1,-1,0,0,0)"/><rect width="160" height="160" x="-176" y="-176" rx="80" ry="80" transform="matrix(0,-1,-1,0,0,0)" style="fill:#189848"/><path style="opacity:.2;fill:#fff" d="M 96 16 C 51.68 16 16 51.68 16 96 C 16 96.34 16.00 96.67 16 97 C 16 52.68 51.68 17 96 17 C 140.32 17 176 52.68 176 97 C 176.00 96.67 176 96.34 176 96 C 176 51.68 140.32 16 96 16 z"/><path d="M 76,64 V 48 c 21.81,0 45.07,9.55 56.63,24.12 C 132.63,72.12 76,80 76,64 Z" style="fill:#ff5046"/><circle cx="136" cy="92" r="8" style="fill:#fd8176"/><circle cx="72" cy="92" r="8" style="fill:#fd8176"/><ellipse cx="104" cy="98" rx="32" ry="34" style="fill:#e9bd7f"/><path d="m 84,98 h 32 c 15.51,0 28,12.49 28,28 0,15.51 -12,28 -28,28 H 104 C 80,154 56,122.69 56,98 Z" style="filter:url(#filter923);opacity:.2"/><path d="m 84,96 h 32 c 15.51,0 28,12.49 28,28 0,15.51 -12,28 -28,28 H 104 C 80,152 56,120.69 56,96 Z" style="fill:#fff"/><circle cx="62" cy="52" r="10" style="filter:url(#filter943);opacity:.1"/><circle cx="62" cy="50" r="10" style="fill:#fff"/><rect width="76" height="20" x="68" y="66" rx="6" ry="6" style="filter:url(#filter903);opacity:.2"/><rect width="76" height="20" x="68" y="64" rx="6" ry="6" style="fill:#fff"/><ellipse style="filter:url(#filter961);opacity:.1;fill:#000" cx="104" cy="100" rx="8" ry="6"/><ellipse cx="104" cy="98" rx="8" ry="6" style="fill:#fd8176"/><circle cx="86" cy="90" r="2" style="fill:#4f4f4f"/><circle cx="122" cy="90" r="2" style="fill:#4f4f4f"/><path d="m 112,108 c 0,3.31 -3.58,8 -8,8 -4.42,0 -8,-4.69 -8,-8 z" style="opacity:.5"/></svg>