<?xml version='1.0' encoding='utf-8'?>
<svg xmlns="http://www.w3.org/2000/svg" width="192" height="192" version="1" id="svg14">
  <defs>
    <filter style="color-interpolation-filters:sRGB" id="filter846" x="0.05" width="1.10" y="0.05" height="1.09">
      <feGaussianBlur stdDeviation="3.16"/>
    </filter>
    <filter style="color-interpolation-filters:sRGB" id="filter867" x="0.05" width="1.10" y="0.04" height="1.09">
      <feGaussianBlur stdDeviation="1.04"/>
    </filter>
  </defs>
  <path style="filter:url(#filter846);opacity:0.20;fill:#000000" d="m 79.60,20.00 c -1.70,0.18 -3.20,1.57 -3.51,3.25 l -3.38,17.12 c -6.07,2.37 -11.77,5.62 -16.78,9.62 l -16.65,-5.62 c -1.73,0.60 -3.83,0.18 -4.76,1.75 l -16.03,27.75 c 0.90,1.60 0.52,3.80 0.88,5 l 13.27,11.62 c 0.47,3.12 0.75,6.25 0.75,9.50 0,3.25 0.28,6.38 0.75,9.50 l -13.27,11.62 c -1.39,1.20 -1.78,3.40 0.88,5 l 16.03,27.75 c 0.93,1.57 3.03,2.35 4.76,1.75 l 16.65,-5.62 c 5.01,4.00 10.71,7.26 16.78,9.62 l 3.38,17.12 c 0.34,1.79 2.05,3.23 3.88,3.25 h 32.06 c 1.83,0.02 3.54,-1.46 3.88,-3.25 l 3.38,-17.12 c 6.07,-2.37 11.77,-5.63 16.78,-9.62 l 16.65,5.62 c 1.73,0.60 3.83,0.18 4.76,-1.75 l 16.03,-27.75 c 0.90,-1.60 0.52,-3.80 0.88,-5 l -13.27,-11.62 c 0.47,-3.12 0.75,-6.25 0.75,-9.50 0,-3.25 0.28,-6.38 0.75,-9.50 l 13.27,-11.62 c 1.39,-1.20 1.78,-3.40 0.88,-5 l -16.03,-27.75 c 0.93,-1.57 -3.03,-2.35 -4.76,-1.75 l -16.65,5.62 c -5.01,-4 -10.71,-7.26 -16.78,-9.62 l -3.38,-17.12 c 0.34,-1.79 -2.06,-3.23 -3.88,-3.25 h -32.06 c 0.13,0.00 0.25,0.00 0.38,0 z"/>
  <path d="m 79.60,16.00 c -1.70,0.18 -3.20,1.57 -3.51,3.25 l -3.38,17.12 c -6.07,2.37 -11.77,5.62 -16.78,9.62 L 39.27,40.38 c -1.73,0.60 -3.83,0.18 -4.76,1.75 L 18.49,69.88 c 0.90,1.60 0.52,3.80 0.88,5 l 13.27,11.62 c 0.47,3.12 0.75,6.25 0.75,9.50 0,3.25 0.28,6.38 0.75,9.50 l -13.27,11.62 c -1.39,1.20 -1.78,3.40 0.88,5 l 16.03,27.75 c 0.93,1.57 3.03,2.35 4.76,1.75 l 16.65,-5.62 c 5.01,4.00 10.71,7.26 16.78,9.62 l 3.38,17.12 c 0.34,1.79 2.05,3.23 3.88,3.25 h 32.06 c 1.83,0.02 3.54,-1.46 3.88,-3.25 l 3.38,-17.12 c 6.07,-2.37 11.77,-5.63 16.78,-9.62 l 16.65,5.62 c 1.73,0.60 3.83,0.18 4.76,-1.75 l 16.03,-27.75 c 0.90,-1.60 0.52,-3.80 0.88,-5 l -13.27,-11.62 c 0.47,-3.12 0.75,-6.25 0.75,-9.50 0,-3.25 0.28,-6.38 0.75,-9.50 l 13.27,-11.62 c 1.39,-1.20 1.78,-3.40 0.88,-5 l -16.03,-27.75 c 0.93,-1.57 -3.03,-2.35 -4.76,-1.75 l -16.65,5.62 c -5.01,-4 -10.71,-7.26 -16.78,-9.62 l -3.38,-17.12 c 0.34,-1.79 -2.06,-3.23 -3.88,-3.25 h -32.06 c 0.13,0.00 0.25,0.00 0.38,0 z" style="fill:#fa2235"/>
  <path d="m 78.07,70.00 c -1.87,0.04 -2.19,2.41 -2.03,4.18 0.01,16.56 0.02,33.13 0.02,49.69 0.16,1.98 2.25,2.77 3.43,1.54 12.66,-8.48 31.08,-16.90 43.72,-25.42 1.38,-1.17 0.85,-3.90 0.69,-4.47 -12.66,-8.45 -31.03,-16.94 -43.70,-25.35 0.24,0.11 0.49,0.17 0.75,0.17 z" style="filter:url(#filter867);opacity:0.20"/>
  <path d="m 78.07,68.00 c -1.87,0.04 -2.19,2.41 -2.03,4.18 0.01,16.56 0.02,33.13 0.02,49.69 0.16,1.98 2.25,2.77 3.43,1.54 12.66,-8.48 31.08,-16.90 43.72,-25.42 1.38,-1.17 0.85,-3.90 0.69,-4.47 -12.66,-8.45 -31.03,-16.94 -43.70,-25.35 0.24,0.11 0.49,0.17 0.75,0.17 z" style="fill:#ffffff"/>
  <path style="opacity:0.20;fill:#ffffff" d="M 79.60 16.00 L 79.60 16.00 C 77.90 16.19 76.40 17.58 76.09 19.25 L 72.71 36.38 C 66.64 38.75 60.94 42.00 55.93 46.00 L 39.27 40.38 C 37.54 39.78 35.45 40.56 34.52 42.13 L 18.49 69.88 C 18.08 70.60 17.95 71.45 18.04 72.27 C 18.10 71.78 18.24 71.31 18.49 70.88 L 34.52 43.13 C 35.45 41.55 37.54 40.78 39.27 41.38 L 55.93 47.00 C 60.94 43.00 66.64 39.75 72.71 37.38 L 76.09 20.25 C 76.40 18.57 77.90 17.19 79.60 17.00 L 79.60 17.00 C 79.73 17.00 79.85 17.00 79.98 17.00 L 112.04 17.00 C 113.86 17.03 115.58 18.46 115.92 20.25 L 119.30 37.38 C 125.37 39.75 131.07 43 136.08 47 L 152.73 41.38 C 154.46 40.78 156.56 41.55 157.49 43.12 L 173.52 70.88 C 173.76 71.31 173.91 71.78 173.97 72.27 C 174.06 71.45 173.93 70.60 173.52 69.88 L 157.49 42.13 C 156.56 40.55 154.46 39.78 152.73 40.38 L 136.08 46.00 C 131.07 42.00 125.37 38.75 119.30 36.38 L 115.92 19.25 C 115.58 17.46 113.86 16.03 112.04 16.00 L 79.98 16.00 C 79.85 16.00 79.73 16.00 79.60 16.00 z M 32.52 87.40 C 32.13 90.22 31.89 93.07 31.89 96.00 C 31.89 96.17 31.89 96.34 31.90 96.50 C 31.92 93.43 32.19 90.46 32.64 87.50 L 32.52 87.40 z M 159.49 87.40 L 159.37 87.50 C 159.81 90.46 160.08 93.43 160.11 96.50 C 160.11 96.34 160.12 96.17 160.12 96.00 C 160.12 93.07 159.88 90.22 159.49 87.40 z M 32.52 105.61 L 19.36 117.13 C 18.35 118.00 17.87 119.42 18.04 120.74 C 18.15 119.74 18.60 118.78 19.36 118.12 L 32.64 106.50 C 32.59 106.21 32.56 105.91 32.52 105.61 z M 159.49 105.61 C 159.45 105.91 159.41 106.21 159.37 106.50 L 172.64 118.12 C 173.40 118.78 173.85 119.74 173.96 120.74 C 174.13 119.41 173.65 118.00 172.64 117.13 L 159.49 105.61 z "/>
</svg>
