<?xml version='1.0' encoding='utf-8'?>
<svg xmlns="http://www.w3.org/2000/svg" width="192" height="192" version="1" id="svg24">
  <defs>
    <filter style="color-interpolation-filters:sRGB" id="filter864" x="-0.042" width="1.084" y="-0.056" height="1.112">
      <feGaussianBlur stdDeviation="2.52"/>
    </filter>
    <filter style="color-interpolation-filters:sRGB" id="filter882" x="-0.038857143" width="1.0777143" y="-0.062769231" height="1.1255385">
      <feGaussianBlur stdDeviation="2.72"/>
    </filter>
  </defs>
  <rect ry="8" rx="8" y="40" x="24" height="108" width="144" style="filter:url(#filter864);opacity:0.2"/>
  <rect ry="8" rx="8" y="36" x="24" height="108" width="144" style="fill:#925105"/>
  <path d="m 20,56 c -4.432,0 -8,3.568 -8,8 v 88 c 0,4.432 3.568,8 8,8 h 44 c 12,0 16,-44 32,-44 16,0 20,44 32,44 h 44 c 4.432,0 8,-3.568 8,-8 V 64 c 0,-4.432 -3.568,-8 -8,-8 z M 58,88 A 18,18 0 0 1 76,106 18,18 0 0 1 58,124 18,18 0 0 1 40,106 18,18 0 0 1 58,88 Z m 76,0 a 18,18 0 0 1 18,18 18,18 0 0 1 -18,18 18,18 0 0 1 -18,-18 18,18 0 0 1 18,-18 z" style="filter:url(#filter882);opacity:0.2;fill:#000000;fill-rule:evenodd"/>
  <path style="fill:#de9440;fill-rule:evenodd" d="M 20 52 C 15.568 52 12 55.568 12 60 L 12 148 C 12 152.432 15.568 156 20 156 L 64 156 C 76 156 80 112 96 112 C 112 112 116 156 128 156 L 172 156 C 176.432 156 180 152.432 180 148 L 180 60 C 180 55.568 176.432 52 172 52 L 20 52 z M 58 84 A 18 18 0 0 1 76 102 A 18 18 0 0 1 58 120 A 18 18 0 0 1 40 102 A 18 18 0 0 1 58 84 z M 134 84 A 18 18 0 0 1 152 102 A 18 18 0 0 1 134 120 A 18 18 0 0 1 116 102 A 18 18 0 0 1 134 84 z "/>
  <path style="opacity:0.1;fill:#ffffff;fill-rule:evenodd" d="M 32 36 C 27.568 36 24 39.568 24 44 L 24 45 C 24 40.568 27.568 37 32 37 L 160 37 C 164.432 37 168 40.568 168 45 L 168 44 C 168 39.568 164.432 36 160 36 L 32 36 z "/>
  <path style="opacity:0.2;fill:#ffffff;fill-rule:evenodd" d="M 20 52 C 15.568 52 12 55.568 12 60 L 12 61 C 12 56.568 15.568 53 20 53 L 172 53 C 176.432 53 180 56.568 180 61 L 180 60 C 180 55.568 176.432 52 172 52 L 20 52 z M 75.978516 102.41406 A 18 18 0 0 1 58 120 A 18 18 0 0 1 40.021484 102.58594 A 18 18 0 0 0 40 103 A 18 18 0 0 0 58 121 A 18 18 0 0 0 76 103 A 18 18 0 0 0 75.978516 102.41406 z M 151.97852 102.41406 A 18 18 0 0 1 134 120 A 18 18 0 0 1 116.02148 102.58594 A 18 18 0 0 0 116 103 A 18 18 0 0 0 134 121 A 18 18 0 0 0 152 103 A 18 18 0 0 0 151.97852 102.41406 z "/>
</svg>
