<?xml version='1.0' encoding='utf-8'?>
<svg xmlns="http://www.w3.org/2000/svg" width="192" height="192" version="1" id="svg14">
  <defs>
    <filter style="color-interpolation-filters:sRGB" id="filter850" x="-0.048000001" width="1.096" y="-0.048000001" height="1.096">
      <feGaussianBlur stdDeviation="3.2"/>
    </filter>
    <filter style="color-interpolation-filters:sRGB" id="filter880" x="-0.049270587" width="1.0985412" y="-0.046793295" height="1.0935866">
      <feGaussianBlur stdDeviation="1.5614164"/>
    </filter>
  </defs>
  <rect style="filter:url(#filter850);opacity:0.2;fill:#000000" width="160" height="160" x="-180" y="-176" rx="80" ry="80" transform="matrix(0,-1,-1,0,0,0)"/>
  <rect transform="matrix(0,-1,-1,0,0,0)" ry="80" rx="80" y="-176" x="-176" height="160" width="160" style="fill:#4f4f4f"/>
  <path style="opacity:0.1;fill:#ffffff" d="M 96 16 C 51.68 16 16 51.68 16 96 C 16 96.116813 16.005391 96.231684 16.007812 96.347656 C 16.356433 52.330881 51.897996 17 96 17 C 140.10527 17 175.64875 52.336104 175.99219 96.357422 C 175.99453 96.238196 176 96.119996 176 96 C 176 51.68 140.32 16 96 16 z "/>
  <path style="filter:url(#filter880);opacity:0.2;fill:#000000;color:#000000;font-stretch:normal;font-variant-ligatures:normal;font-variant-position:normal;font-variant-caps:normal;font-variant-numeric:normal;font-variant-alternates:normal;font-feature-settings:normal;text-indent:0;text-align:start;text-decoration-line:none;text-decoration-style:solid;text-decoration-color:#000000;text-transform:none;writing-mode:lr-tb;direction:ltr;text-orientation:mixed;dominant-baseline:auto;baseline-shift:baseline;white-space:normal;shape-padding:0;clip-rule:nonzero;display:inline;overflow:visible;visibility:visible;isolation:auto;mix-blend-mode:normal;color-interpolation:sRGB;color-interpolation-filters:linearRGB;solid-color:#000000;solid-opacity:1;vector-effect:none;fill-rule:nonzero;color-rendering:auto;image-rendering:auto;shape-rendering:auto;text-rendering:auto;enable-background:accumulate" d="m 117.82227,54.001953 a 6.0006,6.0006 0 0 0 -4.19336,1.884766 L 49.628906,123.88672 a 6.0006,6.0006 0 1 0 8.738282,8.22461 L 111.99805,75.128906 v 52.869144 a 6.0006,6.0006 0 1 0 12,0 V 59.998047 a 6.0006,6.0006 0 0 0 -6.17578,-5.996094 z"/>
  <path d="M 117.99876,125.99854 V 57.998544 L 53.998756,125.99854 v 0" style="fill:none;stroke:#ffffff;stroke-width:12;stroke-linecap:round;stroke-linejoin:round"/>
</svg>
