<?xml version='1.0' encoding='utf-8'?>
<svg xmlns="http://www.w3.org/2000/svg" width="192" height="192" version="1.1" id="svg20">
  <defs>
    <filter style="color-interpolation-filters:sRGB" id="filter861" x="0.04" y="0.05" width="1.09" height="1.11">
      <feGaussianBlur stdDeviation="3"/>
    </filter>
  </defs>
  <path style="filter:url(#filter861);opacity:0.20" d="M 54,32 14,72 v 56 28.66 C 14,162.93 19.10,168 25.40,168 H 54 134.34 c 6.26,0 11.74,-5.07 11.66,-11.34 v -24.40 l 23.38,18.55 C 172.88,153.65 178,151.07 178,146.46 V 53.53 c 0,-4.66 -5.24,-7.22 -8.73,-4.27 L 146,68.70 V 43.34 C 146,37.07 140.90,32 134.60,32 Z m 0,40 h 52 v 28 28 H 54 Z"/>
  <path fill="#00832d" d="M 106,96 123.61,114.42 146,128.26 149.86,96.11 146,64.70 123.20,76.85 Z"/>
  <path fill="#0066da" d="m 14,124 v 28.67 C 14,158.93 19.10,164 25.40,164 H 54 L 60.23,143.30 54,124 34.04,118.41 Z"/>
  <path fill="#e94235" d="M 54,28 14,68 34.04,73.59 54,68 59.74,48.95 Z"/>
  <path fill="#2684fc" d="M 54,68 H 14 v 56 h 40 z"/>
  <path style="fill:#00ac47" d="m 106,96 v 28 H 54 v 40 h 80.35 C 140.61,164 146.08,158.93 146,152.67 v -24.40 z"/>
  <path style="fill:#00ac47" d="M 169.28,45.26 146,64.70 v 63.56 l 23.38,18.56 c 3.50,2.83 8.62,0.25 8.62,-4.36 V 49.53 c 0,-4.66 -5.23,-7.22 -8.72,-4.27 z"/>
  <path fill="#ffba00" d="M 134.60,28 H 54 v 40 h 52 V 96 L 146,64.70 V 39.33 C 146,33.07 140.90,28 134.60,28 Z"/>
  <path style="opacity:0.20;fill:#ffffff" d="M 54 28 L 14 68 L 14 69 L 54 29 L 134.60 29 C 140.90 29 146 34.07 146 40.34 L 146 39.34 C 146 33.07 140.90 28 134.60 28 L 54 28 z M 172.11 44.03 C 171.13 44.13 170.15 44.53 169.27 45.27 L 146 64.70 L 146 65.70 L 169.27 46.27 C 170.15 45.53 171.13 45.13 172.11 45.03 C 175.05 44.72 178 47.03 178 50.53 L 178 49.53 C 178 46.03 175.05 43.72 172.11 44.03 z M 54 124 L 54 125 L 106 125 L 106 124 L 54 124 z "/>
</svg>
