<?xml version='1.0' encoding='utf-8'?>
<svg xmlns="http://www.w3.org/2000/svg" width="192" height="192" version="1" id="svg28">
  <defs>
    <filter style="color-interpolation-filters:sRGB" id="filter877" x="0.06" width="1.12" y="0.04" height="1.08">
      <feGaussianBlur stdDeviation="2.16"/>
    </filter>
    <filter style="color-interpolation-filters:sRGB" id="filter893" x="0.10" width="1.21" y="0.03" height="1.06">
      <feGaussianBlur stdDeviation="2.08"/>
    </filter>
    <filter style="color-interpolation-filters:sRGB" id="filter909" x="0.05" width="1.10" y="0.05" height="1.10">
      <feGaussianBlur stdDeviation="0.32"/>
    </filter>
  </defs>
  <rect ry="12" rx="12" y="36" x="60" height="128" width="88" style="filter:url(#filter877);opacity:0.20"/>
  <path d="m 89.82,19.99 c 0.87,0.03 -1.73,0.26 -2.51,0.70 l -36,16.80 C 49.28,38.62 48.00,40.93 48,43.45 V 156.53 c 0.00,2.53 1.28,4.83 3.32,5.96 l 36,16.80 C 91.31,181.50 96.00,178.28 96,173.32 V 26.65 c 0.00,-3.76 -2.80,-6.77 -6.18,-6.66 z" style="filter:url(#filter893);opacity:0.20"/>
  <rect ry="12" rx="12" y="32" x="60" height="128" width="88" style="fill:#e4e4e4"/>
  <path d="m 60,48 v 4 h 88 v -4 z m 0,24 v 4 h 88 v -4 z m 0,24 v 4 h 88 v -4 z m 0,24 v 4 h 88 v -4 z m 0,24 v 4 h 88 v -4 z" style="opacity:0.20"/>
  <path d="m 134.80,96 c -4.34,-1.91 -9.26,40.50 -22.80,40 -13.54,0.50 -8,-28 -16,-36 -3.77,-3.77 -16,0 -16,0" style="fill:none;stroke:#4f4f4f;stroke-width:8;stroke-linejoin:round"/>
  <path style="opacity:0.20;fill:#ffffff" d="M 72 32 C 65.35 32 60 37.35 60 44 L 60 45 C 60 38.35 65.35 33 72 33 L 136 33 C 142.65 33 148 38.35 148 45 L 148 44 C 148 37.35 142.65 32 136 32 L 72 32 z "/>
  <path d="m 89.82,16.00 c 0.87,0.03 -1.73,0.26 -2.51,0.70 l -36,16.80 C 49.28,34.63 48.00,36.94 48,39.46 V 152.53 c 0.00,2.53 1.28,4.83 3.32,5.96 l 36,16.80 C 91.31,177.51 96.00,174.29 96,169.33 V 22.66 C 96.00,18.91 93.20,15.89 89.82,16.00 Z" style="fill:#8b59e3"/>
  <path d="M 60,29.45 51.32,33.50 C 49.29,34.63 48.00,36.94 48,39.46 V 152.53 c 0.00,2.53 1.29,4.84 3.32,5.97 L 60,162.55 Z" style="opacity:0.20"/>
  <path d="m 112,32 h 20 v 40 l -10,-6 -10,6 z" style="fill:#bc5dcc"/>
  <circle r="8" cy="99" cx="133" style="filter:url(#filter909);opacity:0.10"/>
  <circle r="8" cy="97" cx="133" style="fill:#44acff"/>
  <path style="opacity:0.10;fill:#ffffff" d="M 89.82 16 C 88.95 16.03 88.10 16.27 87.32 16.70 L 51.32 33.50 C 49.29 34.63 48.00 36.94 48 39.46 L 48 40.46 C 48.00 37.94 49.29 35.63 51.32 34.50 L 87.32 17.70 C 88.10 17.27 88.95 17.03 89.82 17 C 93.20 16.89 96.00 19.91 96 23.66 L 96 22.66 C 96.00 18.91 93.20 15.89 89.82 16 z "/>
</svg>
