<?xml version='1.0' encoding='utf-8'?>
<svg xmlns="http://www.w3.org/2000/svg" width="192" height="192" version="1" id="svg20">
  <defs>
    <filter style="color-interpolation-filters:sRGB" id="filter859" x="0.05" width="1.10" y="0.05" height="1.10">
      <feGaussianBlur stdDeviation="3.20"/>
    </filter>
    <filter style="color-interpolation-filters:sRGB" id="filter879" x="0.05" width="1.10" y="0.05" height="1.10">
      <feGaussianBlur stdDeviation="1.44"/>
    </filter>
  </defs>
  <circle style="filter:url(#filter859);opacity:0.20;fill:#000000" cx="96" cy="100" r="80"/>
  <path d="m 96,15.92 c -28.07,0 -52.60,14.38 -66.88,36.12 0.50,32.59 20.22,43.94 35.25,61 -2.76,-5.10 -4.38,-10.89 -4.38,-17.12 0,-19.94 16.18,-25.78 36,-28 l 71.50,-8 c -13.12,-26.16 -40.13,-44 -71.50,-44 z" style="fill:#e6910e"/>
  <path d="m 26.80,136.15 c 14.03,24.31 38.75,38.37 64.72,39.85 27.69,-15.26 42.37,-34.67 35.20,-61.03 -3.04,4.95 -7.25,9.24 -12.64,12.35 -8.58,4.95 -16.52,0.25 -25.36,-2.57 -8.96,-2.35 -18.80,-1.91 -23.82,-10.60 l -35.75,-61.92 c -16.09,24.45 -18.04,56.76 -2.36,83.92 z" style="fill:#fab700"/>
  <path d="m 165.50,135.93 c 14.03,-24.31 13.85,-52.74 2.15,-75.98 l -70.45,0.03 c 5.80,0.16 11.62,1.66 17.02,4.77 9.23,5.33 8.36,15.86 10.40,25.48 1.78,8.38 7.42,15.65 2.77,23.69 l -35.75,61.92 c 29.22,1.71 58.17,-12.76 73.86,-39.92 z" style="fill:#ffce41"/>
  <rect transform="matrix(0,-1,-1,0,0,0)" ry="36" rx="36" y="-132" x="-134" height="72" width="72" style="filter:url(#filter879);opacity:0.20"/>
  <rect transform="matrix(0,-1,-1,0,0,0)" ry="36" rx="36" y="-132" x="-132" height="72" width="72" style="fill:#ffffff"/>
  <rect transform="matrix(0,-1,-1,0,0,0)" ry="28" rx="28" y="-124" x="-124" height="56" width="56" style="fill:#f5b80c"/>
  <path style="opacity:0.20;fill:#ffffff" d="M 96 15.91 C 51.68 15.91 16 51.59 16 95.91 C 16 96.03 16.01 96.15 16.01 96.26 C 16.36 52.25 51.90 16.91 96 16.91 C 140.11 16.91 175.65 52.25 175.99 96.27 C 175.99 96.15 176 96.03 176 95.91 C 176 51.59 140.32 15.91 96 15.91 z "/>
</svg>
