<?xml version='1.0' encoding='utf-8'?>
<svg xmlns="http://www.w3.org/2000/svg" width="192" height="192" version="1" id="svg22">
  <defs>
    <filter style="color-interpolation-filters:sRGB" id="filter862" x="0.05" width="1.11" y="0.04" height="1.09">
      <feGaussianBlur stdDeviation="2.88"/>
    </filter>
    <filter style="color-interpolation-filters:sRGB" id="filter878" x="0.05" width="1.10" y="0.05" height="1.10">
      <feGaussianBlur stdDeviation="2.08"/>
    </filter>
  </defs>
  <rect ry="4" rx="0" y="28" x="28" height="16" width="28" style="fill:#6fa5ff"/>
  <rect style="filter:url(#filter862);opacity:0.20;fill:#000000" width="128" height="160" x="-168" y="-176" rx="8" ry="8" transform="matrix(0,-1,-1,0,0,0)"/>
  <rect transform="matrix(0,-1,-1,0,0,0)" ry="8" rx="8" y="-176" x="-164" height="160" width="128" style="fill:#1970e3"/>
  <path style="fill:#6fa5ff;color:#000000" d="m 24,36 c -4.43,0 -8,3.57 -8,8 v 30.41 c 0.43,0.27 0.76,0.50 1.26,0.78 2.26,1.30 4.94,2.74 7.70,2.80 2.97,0.07 5.23,-1.55 7.15,-2.82 1.92,-1.27 3.50,-2.20 4.86,-2.18 1.22,0.02 2.63,0.90 4.38,2.13 1.74,1.23 3.81,2.82 6.62,2.87 2.94,0.05 5.20,-1.52 7.12,-2.78 1.92,-1.26 3.53,-2.20 4.93,-2.22 1.57,0.02 3.34,0.96 5.43,2.23 2.09,1.28 4.52,2.86 7.60,2.77 2.79,0.08 4.85,-1.66 6.59,-2.88 1.74,-1.22 3.16,-2.10 4.38,-2.12 1.49,0.02 3.07,0.77 4.95,1.91 1.88,1.14 3.98,2.60 6.68,3.06 A 2,2 0 0 0 96,77.94 a 2,2 0 0 0 0.33,0.03 c 2.70,0.46 4.80,-1.92 6.68,-3.06 1.88,-1.14 3.46,-1.94 4.95,-1.91 1.22,0.02 2.64,0.89 4.38,2.12 1.74,1.22 3.80,2.80 6.59,2.88 3.08,0.09 5.51,-1.49 7.60,-2.77 2.09,-1.28 3.86,-2.26 5.43,-2.23 1.40,0.02 3.01,0.97 4.93,2.22 1.92,1.26 4.18,2.82 7.12,2.78 2.81,0.04 4.88,-1.63 6.62,-2.87 1.74,-1.23 3.16,-2.11 4.38,-2.13 1.36,0.02 2.94,0.91 4.86,2.18 1.92,1.27 4.18,2.89 7.15,2.82 2.76,0.06 5.43,-1.50 7.70,-2.80 0.50,0.29 0.82,0.51 1.26,0.78 V 44 c 0,-4.43 -3.57,-8 -8,-8 z"/>
  <circle r="52" cy="104" cx="96" style="filter:url(#filter878);opacity:0.20"/>
  <circle transform="scale(1,-1)" r="40" cy="-100" cx="96" style="fill:#104996"/>
  <path style="opacity:0.50;fill:#6fa5ff;color:#000000" d="M 96 48 A 52 52 0 0 0 48.95 77.95 C 51.42 77.68 53.39 76.33 55.09 75.22 C 57.02 73.96 58.62 73.02 60.03 73.00 C 61.59 72.97 63.37 73.95 65.46 75.23 C 67.55 76.51 69.98 78.09 73.06 78.00 C 75.85 77.91 77.91 76.34 79.65 75.11 C 81.39 73.89 82.81 73.02 84.03 73.00 C 85.52 72.97 87.10 73.77 88.98 74.91 C 90.86 76.05 92.97 77.51 95.67 77.97 A 2 2 0 0 0 96 77.94 A 2 2 0 0 0 96.33 77.97 C 99.03 77.51 101.14 76.05 103.02 74.91 C 104.90 73.77 106.48 72.97 107.97 73.00 C 109.19 73.02 110.61 73.89 112.35 75.11 C 114.09 76.34 116.15 77.91 118.94 78.00 C 122.02 78.09 124.45 76.51 126.54 75.23 C 128.63 73.95 130.41 72.97 131.97 73.00 C 133.38 73.02 134.98 73.96 136.91 75.22 C 138.62 76.34 140.60 77.69 143.09 77.95 A 52 52 0 0 0 96 48 z "/>
  <path style="fill:#ffffff" d="M 96 48 A 52 52 0 0 0 44 100 A 52 52 0 0 0 96 152 A 52 52 0 0 0 148 100 A 52 52 0 0 0 96 48 z M 96 60 A 40 -40 0 0 1 136 100 A 40 -40 0 0 1 96 140 A 40 -40 0 0 1 56 100 A 40 -40 0 0 1 96 60 z "/>
  <circle r="8" cy="56.54" cx="156" style="fill:#ffffff"/>
  <path style="opacity:0.20;fill:#ffffff" d="m 24,36 c -4.43,0 -8,3.57 -8,8 v 1 c 0,-4.43 3.57,-8 8,-8 h 144 c 4.43,0 8,3.57 8,8 v -1 c 0,-4.43 -3.57,-8 -8,-8 z"/>
</svg>
