<?xml version='1.0' encoding='utf-8'?>
<svg xmlns="http://www.w3.org/2000/svg" width="192" height="192" version="1" id="svg16">
  <defs>
    <filter style="color-interpolation-filters:sRGB" id="filter959" x="-0.055684063" width="1.1113681" y="-0.042179486" height="1.084359">
      <feGaussianBlur stdDeviation="2.8119658"/>
    </filter>
    <filter style="color-interpolation-filters:sRGB" id="filter975" x="-0.045275336" width="1.0905507" y="-0.051073598" height="1.1021472">
      <feGaussianBlur stdDeviation="1.7024533"/>
    </filter>
  </defs>
  <path d="m 106.07812,100 -2.73437,7.125 c -0.79997,1.52395 -1.49795,3.17735 -2.14063,4.875 L 80.476564,166.74219 75.390624,180 H 132 c 6.648,0 9.64628,-5.78262 12,-12 l 21.20312,-56 c 2.35373,-6.21738 -5.352,-12 -12,-12 z" style="filter:url(#filter975);opacity:0.2"/>
  <path d="m 106.07812,96 -2.73437,7.125 c -0.79997,1.52395 -1.49795,3.17735 -2.14063,4.875 L 80.476564,162.74219 75.390624,176 H 132 c 6.648,0 9.64628,-5.78262 12,-12 l 21.20312,-56 c 2.35373,-6.21738 -5.352,-12 -12,-12 z" style="fill:#4989f4"/>
  <path d="m 80,20 c -6.648,0 -9.625752,5.790424 -12,12 L 16,168 c -2.37425,6.20958 5.352,12 12,12 H 75.390624 L 79.9375,168.14844 C 79.957112,168.09742 79.980472,168.05107 80,168 L 81.859376,163.13281 82.375,161.78906 136.75781,20 Z" style="filter:url(#filter959);opacity:0.2"/>
  <path d="m 80,16 c -6.648,0 -9.625752,5.790424 -12,12 L 16,164 c -2.37425,6.20958 5.352,12 12,12 H 75.390624 L 79.9375,164.14844 C 79.957112,164.09742 79.980472,164.05107 80,164 L 81.859376,159.13281 82.375,157.78906 136.75781,16 Z" style="fill:#f5b912"/>
  <path style="opacity:0.1;fill:#ffffff" d="M 106.07812 96 L 103.34375 103.125 C 102.54378 104.64895 101.8458 106.30235 101.20312 108 L 80.476562 162.74219 L 75.390625 176 L 75.773438 176 L 80.476562 163.74219 L 101.20312 109 C 101.8458 107.30235 102.54378 105.64895 103.34375 104.125 L 106.07812 97 L 153.20312 97 C 158.82994 97 165.18795 101.14846 165.58789 106.19141 C 166.02637 100.70781 159.19834 96 153.20312 96 L 106.07812 96 z "/>
  <path style="opacity:0.2;fill:#ffffff" d="M 80 16 C 73.352 16 70.374248 21.790424 68 28 L 16 164 C 15.668298 164.86753 15.601454 165.71437 15.654297 166.54688 C 15.695995 166.03804 15.80035 165.52216 16 165 L 68 29 C 70.374248 22.790424 73.352 17 80 17 L 136.375 17 L 136.75781 16 L 80 16 z "/>
</svg>
