<?xml version='1.0' encoding='utf-8'?>
<!-- Generator: Adobe Illustrator 23.1.0, SVG Export Plug-In . SVG Version: 6.00 Build 0)  -->
<svg xmlns="http://www.w3.org/2000/svg" version="1.1" id="svg10" x="0px" y="0px" viewBox="0 0 192 192" xml:space="preserve" width="192" height="192"><defs><filter style="color-interpolation-filters:sRGB" id="filter2438" x="0.05" y="0.05" width="1.10" height="1.09"><feGaussianBlur stdDeviation="2.96"/></filter><filter style="color-interpolation-filters:sRGB" id="filter2584" x="0.03" y="0.09" width="1.07" height="1.17"><feGaussianBlur stdDeviation="1.34"/></filter><filter style="color-interpolation-filters:sRGB" id="filter2626" x="0.04" y="0.07" width="1.07" height="1.15"><feGaussianBlur stdDeviation="0.52"/></filter></defs>
<style type="text/css">
	.st0{fill:#BDC1C4;}
	.st1{fill:#DADCE0;}
	.st2{fill:#4484F5;}
	.st3{fill:#669EF6;}
	.st4{fill:#34A853;}
	.st5{fill:#5CB975;}
	.st6{fill:#FCBC05;}
	.st7{fill:#FCC934;}
</style>

<path class="st0" d="m 30.01,141.08 c -2.68,0 -5.21,1.24 -6.86,3.33 l -2.39,3.07 10.48,2.21 6.49,8.41 10.69,-13.68 c 1.65,-2.11 4.18,-3.33 6.86,-3.33 z" style="filter:url(#filter2626);opacity:0.10;fill:#000000"/><path class="st0" d="m 103.40,139.00 -25.93,33.62 c -1.65,2.14 -4.18,3.38 -6.86,3.38 h 25.29 c 2.68,0 5.21,-1.26 6.86,-3.38 l 25.93,-33.62 z"/><path style="filter:url(#filter2438);opacity:0.20;fill:#000000" class="st3" d="m 101.15,19.00 c -2.22,0 -4.44,0.81 -6.17,2.40 L 32.79,78.33 c -1.50,1.38 -2.40,3.18 -2.70,5.05 L 101.16,77.03 v 0.02 l -71.06,6.35 c 0.34,2.25 0.22,4.63 1.71,6.56 l 27.65,35.66 h 0.01 l 33.82,43.60 c 2.00,2.57 4.96,3.83 7.89,3.78 l 0.02,-51.05 0.02,0.00 0.02,51.05 c 2.82,0.05 5.63,-1.30 7.54,-3.78 l 34.00,-43.83 27.47,-35.41 c 1.46,-1.88 2.02,-4.19 1.74,-6.37 0.25,-1.94 -1.16,-3.80 -2.70,-5.22 L 107.37,21.42 c -1.75,-1.61 -3.99,-2.42 -6.22,-2.42 z"/><path class="st0" d="m 30.01,139.98 c -2.68,0 -5.21,1.24 -6.86,3.33 l -2.39,3.07 10.48,2.21 6.49,8.41 10.69,-13.68 c 1.65,-2.11 4.18,-3.33 6.86,-3.33 z"/><path style="filter:url(#filter2584);opacity:0.20;fill:#000000" class="st0" d="m 103.40,141 -21.16,27.44 -18.08,-23.12 c -1.65,-2.11 -4.18,-3.33 -6.86,-3.33 H 32.02 c 2.68,0 5.21,1.24 6.86,3.33 l 22.94,29.35 c 1.65,2.11 4.18,3.33 6.86,3.33 h 2.20 C 70.79,177.99 70.70,178 70.61,178 h 25.29 c 2.68,0 5.21,-1.25 6.86,-3.38 L 128.69,141 Z"/><path class="st1" d="M 87.11,172.66 64.16,143.31 C 62.51,141.20 59.99,139.98 57.30,139.98 H 32.02 c 2.68,0 5.21,1.24 6.86,3.33 l 22.94,29.35 c 1.65,2.11 4.18,3.33 6.86,3.33 h 25.29 c -2.68,0 -5.23,-1.22 -6.86,-3.33 z"/><path style="fill:#3a88fe" class="st3" d="M 101.15 15 C 98.93 15 96.71 15.81 94.97 17.40 L 32.79 74.33 C 31.29 75.71 30.39 77.51 30.10 79.38 L 101.16 73.03 L 101.16 73.04 L 171.93 79.60 C 171.68 77.66 170.77 75.80 169.23 74.38 L 107.37 17.42 C 105.61 15.81 103.38 15 101.15 15 z "/><path style="fill:#2d9f4c" class="st4" d="M 101.16 73.04 L 30.10 79.40 C 29.76 81.65 30.31 84.03 31.80 85.96 L 59.46 121.62 L 101.18 117.95 L 101.18 117.93 L 142.73 121.38 L 170.19 85.97 C 171.65 84.10 172.21 81.78 171.93 79.60 L 101.16 73.04 z "/><path class="st6" d="M 101.16 117.93 L 59.46 121.60 L 93.28 165.22 C 95.28 167.79 98.24 169.04 101.18 169.00 L 101.16 117.93 z M 101.18 117.93 L 101.19 169.00 C 104.01 168.95 106.82 167.70 108.73 165.22 L 142.73 121.38 L 101.18 117.93 z "/>
<path style="opacity:0.20;fill:#ffffff" class="st3" d="M 101.15 15 C 101.10 15 101.05 15.01 101 15.01 L 101 73.04 L 101.16 73.03 L 101.16 73.04 L 101 73.06 L 101 168.99 C 101.06 168.99 101.12 169.00 101.18 169.00 L 101.16 117.95 L 101.18 117.95 L 101.19 169.00 C 104.01 168.95 106.82 167.70 108.73 165.22 L 142.73 121.38 L 170.19 85.97 C 171.65 84.10 172.21 81.78 171.93 79.60 C 171.68 77.66 170.77 75.80 169.23 74.38 L 107.37 17.42 C 105.61 15.81 103.38 15 101.15 15 z "/><path style="opacity:0.20;fill:#ffffff" class="st1" d="M 32.02 139.98 C 33.44 139.98 34.82 140.34 36.05 140.98 L 57.30 140.98 C 59.99 140.98 62.51 142.21 64.16 144.31 L 87.11 173.66 C 87.87 174.64 88.84 175.42 89.92 175.98 L 93.97 175.98 C 91.29 175.98 88.74 174.76 87.11 172.66 L 64.16 143.31 C 62.51 141.21 59.99 139.98 57.30 139.98 L 32.02 139.98 z "/><path style="opacity:0.20;fill:#ffffff" class="st3" d="M 101.15 15 C 98.93 15 96.71 15.81 94.97 17.40 L 32.79 74.33 C 31.29 75.71 30.39 77.51 30.10 79.38 L 30.34 79.36 C 30.77 77.86 31.57 76.46 32.79 75.33 L 94.97 18.40 C 96.71 16.81 98.93 16 101.15 16 C 103.38 16 105.61 16.81 107.37 18.42 L 169.23 75.38 C 170.77 76.80 171.68 78.66 171.93 80.60 C 171.96 80.87 171.95 81.14 171.96 81.41 C 172.01 80.80 172.01 80.20 171.93 79.60 C 171.68 77.66 170.77 75.80 169.23 74.38 L 107.37 17.42 C 105.61 15.81 103.38 15 101.15 15 z M 101.16 74.03 L 30.10 80.38 C 30.15 80.04 30.25 79.71 30.34 79.38 L 30.10 79.40 C 30.00 80.04 30.00 80.70 30.05 81.36 C 30.06 81.04 30.05 80.71 30.10 80.40 L 101.16 74.04 L 101.16 74.03 z "/></svg>
