<?xml version='1.0' encoding='utf-8'?>
<svg xmlns="http://www.w3.org/2000/svg" width="192" height="192" version="1" id="svg32">
  <defs>
    <filter style="color-interpolation-filters:sRGB" id="filter877" x="0.05" width="1.10" y="0.05" height="1.10">
      <feGaussianBlur stdDeviation="3.20"/>
    </filter>
    <filter style="color-interpolation-filters:sRGB" id="filter905" x="0.03" width="1.05" y="0.22" height="1.43">
      <feGaussianBlur stdDeviation="1.08"/>
    </filter>
    <filter style="color-interpolation-filters:sRGB" id="filter921" x="0.03" width="1.06" y="0.16" height="1.31">
      <feGaussianBlur stdDeviation="1.04"/>
    </filter>
    <filter style="color-interpolation-filters:sRGB" id="filter937" x="0.03" width="1.07" y="0.09" height="1.18">
      <feGaussianBlur stdDeviation="1.32"/>
    </filter>
  </defs>
  <rect style="filter:url(#filter877);opacity:0.20;fill:#000000" width="160" height="160" x="-180" y="-176" rx="8" ry="8" transform="matrix(0,-1,-1,0,0,0)"/>
  <rect transform="matrix(0,-1,-1,0,0,0)" ry="8" rx="8" y="-176" x="-176" height="160" width="160" style="fill:#039be5"/>
  <path style="opacity:0.20;fill:#ffffff" d="M 24 16 C 19.57 16 16 19.57 16 24 L 16 25 C 16 20.57 19.57 17 24 17 L 168 17 C 172.43 17 176 20.57 176 25 L 176 24 C 176 19.57 172.43 16 168 16 L 24 16 z "/>
  <rect y="80" x="60" height="48" width="16" style="fill:#e4e4e4"/>
  <rect y="80" x="116" height="48" width="16" style="fill:#e4e4e4"/>
  <rect y="80" x="88" height="48" width="16" style="fill:#e4e4e4"/>
  <rect ry="4.57" rx="4.82" y="124" x="52" height="16" width="88" style="fill:#f1f1f1"/>
  <rect ry="4.57" rx="4.82" y="70" x="52" height="16" width="88" style="filter:url(#filter921);opacity:0.10"/>
  <rect ry="4.57" rx="4.82" y="68" x="52" height="16" width="88" style="fill:#f1f1f1"/>
  <path d="M 91.94,43.64 72,54.09 52.13,64.51 C 47.75,66.66 48.34,65.69 48,69.81 v 7.55 C 48,77.71 48.26,78 48.59,78 H 143.41 C 143.74,78 144,77.71 144,77.35 v -7.38 c 0.01,-4.34 0.12,-3.36 -4.29,-5.55 L 120,54.09 100.17,43.70 c -3.67,-2.52 -4.56,-1.98 -8.23,0.06 z" style="filter:url(#filter937);opacity:0.10;fill-rule:evenodd"/>
  <path d="M 91.94,41.64 72,52.09 52.13,62.51 C 47.75,64.66 48.34,63.69 48,67.81 v 7.55 C 48,75.71 48.26,76 48.59,76 H 143.41 C 143.74,76 144,75.71 144,75.35 v -7.38 c 0.01,-4.34 0.12,-3.36 -4.29,-5.55 L 120,52.09 100.17,41.70 c -3.67,-2.52 -4.56,-1.98 -8.23,0.06 z" style="fill:#ffffff;fill-rule:evenodd"/>
  <path d="M 53.26,134 C 50.35,134 48,136.27 48,139.09 V 146 h 96 v -6.91 C 144,136.27 141.65,134 138.74,134 Z" style="filter:url(#filter905);opacity:0.20;fill-rule:evenodd"/>
  <path d="M 53.26,132 C 50.35,132 48,134.27 48,137.09 V 144 h 96 v -6.91 C 144,134.27 141.65,132 138.74,132 Z" style="fill:#ffffff;fill-rule:evenodd"/>
  <path style="fill:#ffffff;fill-rule:evenodd" d="M 56.82 124 C 54.15 124 52 126.04 52 128.57 L 52 129.57 C 52 127.04 54.15 125 56.82 125 L 135.18 125 C 137.85 125 140 127.04 140 129.57 L 140 128.57 C 140 126.04 137.85 124 135.18 124 L 56.82 124 z "/>
</svg>
