<?xml version='1.0' encoding='utf-8'?>
<svg xmlns="http://www.w3.org/2000/svg" width="192" height="192" version="1" id="svg16">
  <defs>
    <filter style="color-interpolation-filters:sRGB" id="filter959" x="0.06" width="1.11" y="0.04" height="1.08">
      <feGaussianBlur stdDeviation="2.81"/>
    </filter>
    <filter style="color-interpolation-filters:sRGB" id="filter975" x="0.05" width="1.09" y="0.05" height="1.10">
      <feGaussianBlur stdDeviation="1.70"/>
    </filter>
  </defs>
  <path d="m 106.08,100 -2.73,7.12 c 0.80,1.52 -1.50,3.18 -2.14,4.88 L 80.48,166.74 75.39,180 H 132 c 6.65,0 9.65,-5.78 12,-12 l 21.20,-56 c 2.35,-6.22 -5.35,-12 -12,-12 z" style="filter:url(#filter975);opacity:0.20"/>
  <path d="m 106.08,96 -2.73,7.12 c 0.80,1.52 -1.50,3.18 -2.14,4.88 L 80.48,162.74 75.39,176 H 132 c 6.65,0 9.65,-5.78 12,-12 l 21.20,-56 c 2.35,-6.22 -5.35,-12 -12,-12 z" style="fill:#4989f4"/>
  <path d="m 80,20 c -6.65,0 -9.63,5.79 -12,12 L 16,168 c -2.37,6.21 5.35,12 12,12 H 75.39 L 79.94,168.15 C 79.96,168.10 79.98,168.05 80,168 L 81.86,163.13 82.38,161.79 136.76,20 Z" style="filter:url(#filter959);opacity:0.20"/>
  <path d="m 80,16 c -6.65,0 -9.63,5.79 -12,12 L 16,164 c -2.37,6.21 5.35,12 12,12 H 75.39 L 79.94,164.15 C 79.96,164.10 79.98,164.05 80,164 L 81.86,159.13 82.38,157.79 136.76,16 Z" style="fill:#f5b912"/>
  <path style="opacity:0.10;fill:#ffffff" d="M 106.08 96 L 103.34 103.12 C 102.54 104.65 101.85 106.30 101.20 108 L 80.48 162.74 L 75.39 176 L 75.77 176 L 80.48 163.74 L 101.20 109 C 101.85 107.30 102.54 105.65 103.34 104.12 L 106.08 97 L 153.20 97 C 158.83 97 165.19 101.15 165.59 106.19 C 166.03 100.71 159.20 96 153.20 96 L 106.08 96 z "/>
  <path style="opacity:0.20;fill:#ffffff" d="M 80 16 C 73.35 16 70.37 21.79 68 28 L 16 164 C 15.67 164.87 15.60 165.71 15.65 166.55 C 15.70 166.04 15.80 165.52 16 165 L 68 29 C 70.37 22.79 73.35 17 80 17 L 136.38 17 L 136.76 16 L 80 16 z "/>
</svg>
