<?xml version='1.0' encoding='utf-8'?>
<svg xmlns="http://www.w3.org/2000/svg" width="192" height="192" preserveAspectRatio="xMidYMid" version="1.1" id="svg18">
  <defs>
    <filter style="color-interpolation-filters:sRGB" id="filter3255" x="-0.0447" y="-0.051826087" width="1.0894" height="1.1036522">
      <feGaussianBlur stdDeviation="2.98"/>
    </filter>
    <filter style="color-interpolation-filters:sRGB" id="filter3344" x="-0.108" y="-0.108" width="1.216" height="1.216">
      <feGaussianBlur stdDeviation="2.7"/>
    </filter>
  </defs>
  <rect style="fill:#ffffff;stop-color:#000000" width="105" height="80" x="43.5" y="55"/>
  <path style="filter:url(#filter3255);opacity:0.2;fill:#000000;color:#000000" d="M 26,30 C 20.46,30 16,34.46 16,40 V 84 87.535156 117.11133 138 158 c 0,5.54 4.46,10 10,10 H 103.60938 131.70312 146 166 c 5.54,0 10,-4.46 10,-10 V 137 40 c 0,-5.54 -4.46,-10 -10,-10 H 146 46 Z m 20,30 h 100 v 78 H 124.05859 C 110.47706,107.68849 80.788776,86.053003 46,84.148438 V 83 Z m 76.5,8 A 16.5,16.5 0 0 0 106,84.5 16.5,16.5 0 0 0 122.5,101 16.5,16.5 0 0 0 139,84.5 16.5,16.5 0 0 0 122.5,68 Z M 46,112.20898 C 65.011837,113.68294 81.569475,123.48038 92.070312,138 H 46 Z"/>
  <path style="fill:#34a853;color:#000000" d="m 41,80 c -8.66667,0 -17.047465,1.250365 -25,3.535156 V 113.11133 C 23.654352,109.82548 32.100389,108 41,108 c 32.591336,0 59.15788,24.37305 62.60938,56 h 28.09374 C 128.10099,117.15599 88.73469,80 41,80 Z"/>
  <path style="fill:#4285f4;stop-color:#000000" d="m 16,79 v 55 20 c 0,5.54 4.46,10 10,10 h 120 20 c 5.54,0 10,-4.46 10,-10 v -21 h -30 v 1 H 46 V 79 Z"/>
  <path style="fill:#fabc04;stop-color:#000000" d="m 146,26 v 108 h 30 V 36 c 0,-5.54 -4.46,-10 -10,-10 z"/>
  <circle style="fill:#fabc04;stop-color:#000000" cx="122.5" cy="80.5" r="16.5"/>
  <path style="fill:#ea4335;stop-color:#000000" d="M 26,26 C 20.46,26 16,30.46 16,36 V 80 H 46 V 56 H 146 V 26 H 46 Z"/>
  <path style="opacity:0.2;fill:#ffffff;stop-color:#000000" d="m 26,26 c -5.54,0 -10,4.46 -10,10 v 1 c 0,-5.54 4.46,-10 10,-10 h 20 100 20 c 5.54,0 10,4.46 10,10 v -1 c 0,-5.54 -4.46,-10 -10,-10 H 146 46 Z"/>
  <circle style="filter:url(#filter3344);opacity:0.2;fill:#000000" cx="154" cy="145" r="30"/>
  <circle style="fill:#fc8014" cx="154" cy="143" r="30"/>
  <path style="fill:#ffffff" d="m 164.99219,131 c -2.65414,0 -4.81597,1.00493 -6.48633,3.01562 -1.67037,2.00001 -2.50586,4.74877 -2.50586,8.2461 v 1.47656 c 0,3.50803 0.84087,6.26171 2.52148,8.26172 1.68063,2.00001 3.84783,3 6.50196,3 2.72589,0 4.90188,-0.99999 6.53125,-3 C 173.18407,149.99999 174,147.24631 174,143.73828 v -1.66797 c -0.0307,-3.43315 -0.86623,-6.13561 -2.50586,-8.10351 C 169.86476,131.98818 167.69758,131 164.99219,131 Z m 0,2 c 2.21237,0 3.93366,0.78719 5.16406,2.36133 1.23041,1.57413 1.84375,3.84283 1.84375,6.80859 v 1.60938 c 0,2.98857 -0.60761,5.27381 -1.82617,6.85937 -1.20676,1.57413 -2.92228,2.36133 -5.14649,2.36133 -2.11771,0 -3.82174,-0.7872 -5.11132,-2.36133 C 158.6383,149.05311 158,146.76787 158,143.7793 v -1.60938 c 0,-2.96576 0.63057,-5.23446 1.89648,-6.80859 C 161.17419,133.78719 162.87449,133 164.99219,133 Z"/>
  <path style="fill:#ffffff" d="m 142.99219,131 c -2.65414,0 -4.81597,1.00493 -6.48633,3.01562 -1.67037,2.00001 -2.50586,4.74877 -2.50586,8.2461 v 1.47656 c 0,3.50803 0.84088,6.26171 2.52148,8.26172 1.68063,2.00001 3.84783,3 6.50196,3 2.72589,0 4.90188,-0.99999 6.53125,-3 C 151.18407,149.99999 152,147.24631 152,143.73828 V 143 h -1 -1 -6 v 2 h 5.96094 c -0.14723,2.39694 -0.74035,4.27665 -1.78711,5.63867 -1.20676,1.57413 -2.92228,2.36133 -5.14649,2.36133 -2.11771,0 -3.82174,-0.7872 -5.11132,-2.36133 C 136.6383,149.05311 136,146.76787 136,143.7793 v -1.60938 c 0,-2.96576 0.63057,-5.23446 1.89648,-6.80859 1.27771,-1.57414 2.97801,-2.36133 5.09571,-2.36133 2.21237,0 3.93366,0.78719 5.16406,2.36133 0.57031,0.72963 1.00697,1.61035 1.3125,2.63867 h 2.0332 c -0.413,-1.57777 -1.0825,-2.92263 -2.00781,-4.0332 C 147.86476,131.98818 145.69758,131 142.99219,131 Z"/>
</svg>
