<?xml version='1.0' encoding='utf-8'?>
<svg xmlns="http://www.w3.org/2000/svg" width="192" height="192" version="1" id="svg28">
  <defs>
    <filter style="color-interpolation-filters:sRGB" id="filter6495" x="0.05" y="0.05" width="1.10" height="1.10">
      <feGaussianBlur stdDeviation="3.20"/>
    </filter>
    <filter style="color-interpolation-filters:sRGB" id="filter4777" x="0.04" y="0.05" width="1.09" height="1.11">
      <feGaussianBlur stdDeviation="1.89"/>
    </filter>
    <filter style="color-interpolation-filters:sRGB" id="filter4781" x="0.05" y="0.05" width="1.10" height="1.09">
      <feGaussianBlur stdDeviation="1.39"/>
    </filter>
  </defs>
  <rect transform="matrix(0,-1,-1,0,0,0)" ry="12" rx="12" y="-176" x="-180" height="160" width="160" style="filter:url(#filter6495);opacity:0.20;fill:#000000"/>
  <rect transform="matrix(0,-1,-1,0,0,0)" ry="12" rx="12" y="-176" x="-176" height="160" width="160" style="fill:#2e78f5"/>
  <path style="opacity:0.20;fill:#ffffff" d="m 28,16 c -6.65,0 -12,5.35 -12,12 v 1 c 0,-6.65 5.35,-12 12,-12 h 136 c 6.65,0 12,5.35 12,12 v -1 c 0,-6.65 -5.35,-12 -12,-12 z"/>
  <path style="filter:url(#filter4777);opacity:0.20;fill:#000000" d="m 43,63 v 12 c 0,16.73 12.09,30.63 28,33.46 V 98.26 C 60.58,95.63 53,86.30 53,75 V 73 H 71 V 63 Z m 78,0 v 10 h 18 v 2 c 0,11.30 -7.58,20.63 -18,23.26 v 10.20 C 136.91,105.63 149,91.73 149,75 V 63 Z m -33,55 v 16 H 77 c -4.43,0 -8,3.57 -8,8 v 4 h 19 16 19 v -4 c 0,-4.43 -3.57,-8 -8,-8 h -11 v -16 z"/>
  <path style="fill:#ebebeb" d="m 43,61 v 12 c 0,16.73 12.09,30.63 28,33.46 V 96.26 C 60.58,93.63 53,84.30 53,73 V 71 H 71 V 61 Z m 78,0 v 10 h 18 v 2 c 0,11.30 -7.58,20.63 -18,23.26 v 10.20 C 136.91,103.63 149,89.73 149,73 V 61 Z m -33,55 v 16 H 77 c -4.43,0 -8,3.57 -8,8 v 4 h 19 16 19 v -4 c 0,-4.43 -3.57,-8 -8,-8 h -11 v -16 z"/>
  <path style="filter:url(#filter4781);opacity:0.20;fill:#000000" d="m 62,52 v 37 a 34,34 0 0 0 34,34 34,34 0 0 0 34,-34 V 52 Z M 96,67 101.40,80.46 115,81 104,91 108,104 96,97 84,104 88,91 77,81 90.60,80.46 Z"/>
  <path style="fill:#ffffff" d="m 62,50 v 37 a 34,34 0 0 0 34,34 34,34 0 0 0 34,-34 V 50 Z M 96,65 101.40,78.46 115,79 104,89 108,102 96,95 84,102 88,89 77,79 90.60,78.46 Z"/>
</svg>
