<?xml version='1.0' encoding='utf-8'?>
<svg xmlns="http://www.w3.org/2000/svg" width="192" height="192" version="1.1" id="svg28">
  <defs>
    <filter style="color-interpolation-filters:sRGB" id="filter1450" x="-0.047999989" y="-0.048000008" width="1.096" height="1.096">
      <feGaussianBlur stdDeviation="2.9800006"/>
    </filter>
    <filter style="color-interpolation-filters:sRGB" id="filter1492" x="-0.057168665" y="-0.041365785" width="1.1143373" height="1.0827316">
      <feGaussianBlur stdDeviation="2.1200047"/>
    </filter>
    <filter style="color-interpolation-filters:sRGB" id="filter1577" x="-0.048440749" y="-0.048" width="1.0968815" height="1.096">
      <feGaussianBlur stdDeviation="2.98"/>
    </filter>
    <filter style="color-interpolation-filters:sRGB" id="filter1581" x="-0.049825996" y="-0.047965089" width="1.099652" height="1.0959302">
      <feGaussianBlur stdDeviation="1.622841"/>
    </filter>
    <filter style="color-interpolation-filters:sRGB" id="filter1623" x="-0.048000001" y="-0.048000001" width="1.096" height="1.096">
      <feGaussianBlur stdDeviation="0.74"/>
    </filter>
  </defs>
  <path style="filter:url(#filter1450);opacity:0.2;fill:#000000" d="m 151.83203,29 v 0.0078 H 23.449219 C 19.321929,29.007812 16,32.329948 16,36.457031 v 128.132809 5.71875 0.24219 C 16,174.67786 19.321929,178 23.449219,178 h 0.002 134.097661 c 6.6e-4,0 0.001,0 0.002,0 0.47995,-1.3e-4 0.9481,-0.0517 1.40234,-0.14062 0.0786,-0.0149 0.15476,-0.0335 0.23243,-0.0508 0.33456,-0.077 0.65891,-0.1795 0.97461,-0.30078 0.24817,-0.0927 0.48408,-0.20277 0.71875,-0.32031 0.1211,-0.0622 0.24021,-0.12675 0.35742,-0.19531 1.62274,-0.9278 2.84355,-2.43522 3.40234,-4.25781 0.0153,-0.0481 0.0306,-0.096 0.0449,-0.14454 0.0828,-0.29118 0.15392,-0.58388 0.20118,-0.88867 0.0568,-0.33502 0.0922,-0.67612 0.10351,-1.02344 7.4e-4,-0.0433 0.0117,-0.0834 0.0117,-0.12695 v -0.12305 -5.71875 -122.533199 -5.726562 c 0,-0.513232 -0.0525,-1.012589 -0.15039,-1.496094 C 164.16008,31.548591 161.16481,29 157.55078,29 Z"/>
  <rect fill="#e9e5dc" width="148.99219" height="148.99963" x="-174" y="-164.99963" rx="7.4496088" ry="7.4499812" transform="matrix(0,-1,-1,0,0,0)"/>
  <path fill="#2095f2" fill-rule="evenodd" d="M 23.450354,174 90.500186,106.95352 157.55002,174 Z"/>
  <path fill="#1ea362" fill-rule="evenodd" d="M 164.99963,166.55039 97.949795,99.5039 164.99963,32.457431 Z"/>
  <path fill="#feea3a" fill-rule="evenodd" d="M 97.085596,93.799264 83.917009,106.97427 151.82359,175 l 3.92492,-3.72055 c 2.99537,-2.83941 4.05902,-1.72488 6.3369,-5.16642 l -7.58497,-7.52827 -57.415216,-64.785868 z" style="filter:url(#filter1581);opacity:0.2;fill:#000000"/>
  <path fill="#feea3a" fill-rule="evenodd" d="M 97.085596,92.799264 83.917009,105.97427 151.82359,174 h 5.72568 c 4.12729,0 7.45127,-3.44507 7.45073,-7.57216 v -5.71832 L 97.085224,92.798892 Z"/>
  <path fill="#ffffff" fill-rule="evenodd" d="M 151.83179,26.007824 20.809105,162.73035 l -3.120387,5.20398 c -2.122364,3.53955 6.523212,-3.0011 8.348474,0.70065 L 29.175665,175 165,39.175006 V 33.44961 C 165,29.322527 161.67731,26 157.55002,26 h -5.71861 z" style="filter:url(#filter1577);opacity:0.2;fill:#000000"/>
  <path fill="#ffffff" fill-rule="evenodd" d="M 151.83179,25.007824 16,160.5907 v 5.71758 C 16,170.43536 19.322692,174 23.449982,174 h 5.725683 L 165,38.175006 V 32.44961 C 165,28.322527 161.67731,25 157.55002,25 h -5.71861 z"/>
  <path fill="#f34235" d="M 131.50044,16.999516 C 106.92322,16.999516 87,36.661774 87,60.917472 c 0,1.515864 0.126381,2.915066 0.277683,4.391422 0.121931,1.469275 0.318622,2.952712 0.556255,4.391796 5.095301,30.8693 25.866622,52.73286 43.666062,70.2993 17.80018,-17.56681 38.57076,-39.42665 43.66606,-70.2993 0.23763,-1.439084 0.43433,-2.922521 0.55626,-4.391796 C 175.87451,63.832538 176,62.433336 176,60.917472 176,36.662147 156.0764,16.999516 131.49956,16.999516 Z" style="filter:url(#filter1492);opacity:0.2;fill:#000000"/>
  <path style="opacity:0.2;fill:#ffffff" d="M 23.449219 25.007812 C 19.321929 25.007812 16 28.329948 16 32.457031 L 16 33.457031 C 16 29.329948 19.321929 26.007812 23.449219 26.007812 L 157.54883 26.007812 C 161.67612 26.007812 165 29.329948 165 33.457031 L 165 32.457031 C 165 28.329948 161.67612 25.007812 157.54883 25.007812 L 23.449219 25.007812 z "/>
  <path fill="#f34235" d="M 131.50044,14.000001 C 106.92322,14.000001 87,33.662259 87,57.917957 c 0,1.515864 0.126381,2.915066 0.277683,4.391422 0.121931,1.469275 0.318622,2.952712 0.556255,4.391796 5.095301,30.869295 25.866622,52.732855 43.666062,70.299295 17.80018,-17.56681 38.57076,-39.426646 43.66606,-70.299295 0.23763,-1.439084 0.43433,-2.922521 0.55626,-4.391796 C 175.87451,60.833023 176,59.433821 176,57.917957 176,33.662632 156.0764,14.000001 131.49956,14.000001 Z"/>
  <path fill="#ffffff" d="M 131.5,39 C 141.71719,39 150,47.28282 150,57.5 150,67.71718 141.71719,76 131.5,76 121.28282,76 113,67.71718 113,57.5 113,47.28282 121.28282,39 131.5,39 Z" style="filter:url(#filter1623);opacity:0.2;fill:#000000"/>
  <path fill="#ffffff" d="M 131.5,37 C 141.71719,37 150,45.28282 150,55.5 150,65.71718 141.71719,74 131.5,74 121.28282,74 113,65.71718 113,55.5 113,45.28282 121.28282,37 131.5,37 Z"/>
  <path style="opacity:0.2;fill:#ffffff" d="M 131.5 14 C 106.92278 14 87 33.662271 87 57.917969 C 87 58.059248 87.013512 58.190668 87.015625 58.330078 C 87.335942 34.346649 107.12259 15 131.5 15 C 155.87703 15 175.66405 34.347007 175.98438 58.330078 C 175.98648 58.190668 176 58.059248 176 57.917969 C 176 33.662644 156.07684 14 131.5 14 z "/>
</svg>
