<?xml version='1.0' encoding='utf-8'?>
<svg xmlns="http://www.w3.org/2000/svg" width="192" height="192" version="1" id="svg28">
  <defs>
    <filter style="color-interpolation-filters:sRGB" id="filter869" x="0.04" width="1.09" y="0.05" height="1.11">
      <feGaussianBlur stdDeviation="2.88"/>
    </filter>
    <filter style="color-interpolation-filters:sRGB" id="filter883" x="0.01" width="1.03" y="0.11" height="1.23">
      <feGaussianBlur stdDeviation="0.76"/>
    </filter>
    <filter style="color-interpolation-filters:sRGB" id="filter899" x="0.05" width="1.10" y="0.05" height="1.10">
      <feGaussianBlur stdDeviation="0.96"/>
    </filter>
  </defs>
  <path d="m 24,36 c -4.43,0 -8,3.57 -8,8 v 112 c 0,4.43 3.57,8 8,8 h 104 l 48,-48 V 44 c 0,-4.43 -3.57,-8 -8,-8 z" style="filter:url(#filter869);opacity:0.20"/>
  <path d="m 176,40 c 0,-4.43 -3.57,-8 -8,-8 H 24 c -4.43,0 -8,3.57 -8,8 v 112 c 0,4.43 3.57,8 8,8 h 104 l 4,-44 44,-4 z" style="fill:#e4e4e4"/>
  <path d="M 31.88,54 C 29.73,54 28,55.60 28,57.59 v 8.81 C 28,68.40 29.73,70 31.88,70 H 96 160.12 C 162.27,70 164,68.40 164,66.41 V 57.59 C 164,55.60 162.27,54 160.12,54 H 96 Z" style="filter:url(#filter883);opacity:0.10;fill-rule:evenodd"/>
  <path d="M 31.88,52 C 29.73,52 28,53.60 28,55.59 v 8.81 C 28,66.40 29.73,68 31.88,68 H 96 V 52 Z" style="fill:#4f8df5;fill-rule:evenodd"/>
  <path d="m 108,84 c -2.22,0 -4,1.78 -4,4 0,2.22 1.78,4 4,4 h 48 c 2.22,0 4,-1.78 4,-4 0,-2.22 -1.78,-4 -4,-4 z m 0,16 c -2.22,0 -4,1.78 -4,4 0,2.22 1.78,4 4,4 h 48 c 2.22,0 4,-1.78 4,-4 0,-2.22 -1.78,-4 -4,-4 z m 0,16 c -2.22,0 -4,1.78 -4,4 0,2.22 1.78,4 4,4 h 48 c 2.22,0 4,-1.78 4,-4 0,-2.22 -1.78,-4 -4,-4 z m 0,16 c -2.22,0 -4,1.78 -4,4 0,2.22 1.78,4 4,4 h 21.82 l 0.73,-8 z" style="opacity:0.30;fill-rule:evenodd"/>
  <path d="m 176,112 h -40 c -4.42,0 -8,3.58 -8,8 v 40 z" style="fill:#fafafa"/>
  <rect transform="scale(-1)" ry="5.33" rx="5.33" y="-148" x="-92" height="64" width="64" style="fill:#495ab9"/>
  <path d="m 96,52 h 64.12 C 162.27,52 164,53.60 164,55.59 v 8.82 C 164,66.40 162.27,68 160.12,68 H 96 Z" style="fill:#0fadf5;fill-rule:evenodd"/>
  <path style="opacity:0.20;fill:#ffffff" d="M 136 112 C 131.58 112 128 115.58 128 120 L 128 121 C 128 116.58 131.58 113 136 113 L 175 113 L 176 112 L 136 112 z "/>
  <path style="opacity:0.20;fill:#ffffff" d="M 24 32 C 19.57 32 16 35.57 16 40 L 16 41 C 16 36.57 19.57 33 24 33 L 168 33 C 172.43 33 176 36.57 176 41 L 176 40 C 176 35.57 172.43 32 168 32 L 24 32 z "/>
  <path d="m 60.49,94 c -9.40,0 -17.79,5.40 -21.88,13.28 C 36.95,110.52 36,114.16 36,118 c 0,3.96 1.01,7.72 2.77,11 4.14,7.72 12.43,13 21.72,13 6.17,0 11.68,-2.32 15.82,-6.16 C 81.06,131.44 84,125.08 84,118 c 0,-1.36 0.13,-2.70 0.34,-4 H 80 75.46 60 v 8 h 15.47 c 0.89,3.46 -2.92,6.53 -5.77,8.70 A 16,16 0 0 1 60,134 16,16 0 0 1 45.18,124.01 16,16 0 0 1 44,118 16,16 0 0 1 45.12,112.14 16,16 0 0 1 60,102 a 16,16 0 0 1 10.77,4.20 l 5.83,-5.80 C 72.43,96.44 66.80,94 60.49,94 Z" style="filter:url(#filter899);opacity:0.20"/>
  <path d="m 60.49,92 c -9.40,0 -17.79,5.40 -21.88,13.28 C 36.95,108.52 36,112.16 36,116 c 0,3.96 1.01,7.72 2.77,11 4.14,7.72 12.43,13 21.72,13 6.17,0 11.68,-2.32 15.82,-6.16 C 81.06,129.44 84,123.08 84,116 c 0,-1.36 0.13,-2.70 0.34,-4 H 80 75.46 60 v 8 h 15.47 c 0.89,3.46 -2.92,6.53 -5.77,8.70 A 16,16 0 0 1 60,132 16,16 0 0 1 45.18,122.01 16,16 0 0 1 44,116 16,16 0 0 1 45.12,110.14 16,16 0 0 1 60,100 a 16,16 0 0 1 10.77,4.20 l 5.83,-5.80 C 72.43,94.44 66.80,92 60.49,92 Z" style="fill:#ffffff"/>
</svg>
