<?xml version='1.0' encoding='utf-8'?>
<svg xmlns="http://www.w3.org/2000/svg" width="192" height="192" version="1" id="svg26">
  <defs>
    <filter style="color-interpolation-filters:sRGB" id="filter866" x="0.05" width="1.10" y="0.05" height="1.10">
      <feGaussianBlur stdDeviation="3.52"/>
    </filter>
    <filter style="color-interpolation-filters:sRGB" id="filter882" x="0.05" width="1.10" y="0.05" height="1.10">
      <feGaussianBlur stdDeviation="2.72"/>
    </filter>
    <filter style="color-interpolation-filters:sRGB" id="filter898" x="0.05" width="1.10" y="0.05" height="1.10">
      <feGaussianBlur stdDeviation="2.08"/>
    </filter>
    <filter style="color-interpolation-filters:sRGB" id="filter914" x="0.04" width="1.09" y="0.06" height="1.11">
      <feGaussianBlur stdDeviation="1.01"/>
    </filter>
  </defs>
  <path d="m 95.72,12.01 a 5.41,5.22 0 0 0 -4.41,2.60 L 85.22,24.79 79.12,34.97 a 5.41,5.22 0 0 0 4.69,7.83 h 24.37 a 5.41,5.22 0 0 0 4.69,-7.83 L 106.79,24.79 100.69,14.61 A 5.41,5.22 0 0 0 95.72,12.01 Z M 33.45,82.40 a 5.22,5.41 0 0 0 -2.48,0.72 L 20.79,89.22 10.61,95.31 a 5.22,5.41 0 0 0 -2.60,4.41 5.22,5.41 0 0 0 2.60,4.98 l 10.18,6.09 10.18,6.09 a 5.22,5.41 0 0 0 7.83,-4.69 V 87.81 a 5.22,5.41 0 0 0 -5.35,-5.41 z m 125.09,0 a 5.22,5.41 0 0 0 -5.35,5.41 v 24.37 a 5.22,5.41 0 0 0 7.83,4.69 l 10.18,-6.09 10.18,-6.09 a 5.22,5.41 0 0 0 2.60,-4.98 5.22,5.41 0 0 0 -2.60,-4.41 l -10.18,-6.08 -10.18,-6.10 a 5.22,5.41 0 0 0 -2.48,0.72 z m -74.73,74.80 a 5.41,5.22 0 0 0 -4.69,7.83 l 6.10,10.18 6.08,10.18 a 5.41,5.22 0 0 0 4.41,2.60 5.41,5.22 0 0 0 4.98,-2.60 l 6.09,-10.18 6.09,-10.18 a 5.41,5.22 0 0 0 -4.69,-7.83 H 96 Z" style="filter:url(#filter866);opacity:0.20"/>
  <path d="m 95.72,8.01 a 5.41,5.22 0 0 0 -4.41,2.60 L 85.22,20.79 79.12,30.97 a 5.41,5.22 0 0 0 4.69,7.83 h 24.37 a 5.41,5.22 0 0 0 4.69,-7.83 L 106.79,20.79 100.69,10.61 A 5.41,5.22 0 0 0 95.72,8.01 Z M 33.45,78.40 a 5.22,5.41 0 0 0 -2.48,0.72 L 20.79,85.22 10.61,91.31 a 5.22,5.41 0 0 0 -2.60,4.41 5.22,5.41 0 0 0 2.60,4.98 l 10.18,6.09 10.18,6.09 a 5.22,5.41 0 0 0 7.83,-4.69 V 83.81 a 5.22,5.41 0 0 0 -5.35,-5.41 z m 125.09,0 a 5.22,5.41 0 0 0 -5.35,5.41 v 24.37 a 5.22,5.41 0 0 0 7.83,4.69 l 10.18,-6.09 10.18,-6.09 a 5.22,5.41 0 0 0 2.60,-4.98 5.22,5.41 0 0 0 -2.60,-4.41 L 171.21,85.22 161.03,79.12 a 5.22,5.41 0 0 0 -2.48,0.72 z M 83.81,153.20 a 5.41,5.22 0 0 0 -4.69,7.83 l 6.10,10.18 6.08,10.18 a 5.41,5.22 0 0 0 4.41,2.60 5.41,5.22 0 0 0 4.98,-2.60 l 6.09,-10.18 6.09,-10.18 a 5.41,5.22 0 0 0 -4.69,-7.83 H 96 Z" style="fill:#c74527"/>
  <path style="opacity:0.10;fill:#ffffff" d="M 96.26 8.01 A 5.41 5.22 0 0 0 95.72 8.01 A 5.41 5.22 0 0 0 91.30 10.61 L 85.23 20.79 L 79.12 30.97 A 5.41 5.22 0 0 0 78.43 34.09 A 5.41 5.22 0 0 1 79.12 31.97 L 85.23 21.79 L 91.30 11.61 A 5.41 5.22 0 0 1 95.72 9.01 A 5.41 5.22 0 0 1 100.70 11.61 L 106.79 21.79 L 112.88 31.97 A 5.41 5.22 0 0 1 113.57 34.09 A 5.41 5.22 0 0 0 112.88 30.97 L 106.79 20.79 L 100.70 10.61 A 5.41 5.22 0 0 0 96.26 8.01 z M 33.45 78.40 A 5.22 5.41 0 0 0 30.97 79.12 L 20.79 85.23 L 10.61 91.30 A 5.22 5.41 0 0 0 8.01 95.72 A 5.22 5.41 0 0 0 8.03 96.48 A 5.22 5.41 0 0 1 10.61 92.30 L 20.79 86.23 L 30.97 80.12 A 5.22 5.41 0 0 1 33.45 79.40 A 5.22 5.41 0 0 1 38.80 84.81 L 38.80 83.81 A 5.22 5.41 0 0 0 33.45 78.40 z M 158.55 78.40 A 5.22 5.41 0 0 0 153.20 83.81 L 153.20 84.81 A 5.22 5.41 0 0 1 158.55 79.40 A 5.22 5.41 0 0 1 161.03 80.12 L 171.21 86.23 L 181.39 92.30 A 5.22 5.41 0 0 1 183.97 96.52 A 5.22 5.41 0 0 0 183.99 95.72 A 5.22 5.41 0 0 0 181.39 91.30 L 171.21 85.23 L 161.03 79.12 A 5.22 5.41 0 0 0 158.55 78.40 z M 83.81 153.20 A 5.41 5.22 0 0 0 78.43 158.93 A 5.41 5.22 0 0 1 83.81 154.20 L 96 154.20 L 108.19 154.20 A 5.41 5.22 0 0 1 113.57 158.93 A 5.41 5.22 0 0 0 108.19 153.20 L 96 153.20 L 83.81 153.20 z "/>
  <circle r="68" cy="100" cx="96" style="filter:url(#filter882);opacity:0.20"/>
  <circle r="68" cy="96" cx="96" style="fill:#ff613d"/>
  <circle r="52" cy="100" cx="96" style="filter:url(#filter898);opacity:0.20"/>
  <circle r="52" cy="96" cx="96" style="fill:#ffffff"/>
  <rect ry="8" rx="8" y="60" x="76" height="76" width="16" style="fill:#ffa639"/>
  <path style="opacity:0.20;fill:#ffffff" d="M 96 28 A 68 68 0 0 0 28 96 A 68 68 0 0 0 28.02 96.47 A 68 68 0 0 1 96 29 A 68 68 0 0 1 163.98 96.51 A 68 68 0 0 0 164 96 A 68 68 0 0 0 96 28 z "/>
  <path d="m 84.53,70 h 38.94 c 4.73,0 8.53,3.89 8.53,8.73 L 116,92 132,105.27 C 135.72,108.36 128.20,114 123.47,114 H 76 V 70 Z" style="filter:url(#filter914);opacity:0.10"/>
  <path d="m 84.53,68 h 38.94 c 4.73,0 8.53,3.89 8.53,8.73 L 116,90 132,103.27 C 135.72,106.36 128.20,112 123.47,112 H 76 V 68 Z" style="fill:#ff613d"/>
</svg>
