<svg xmlns="http://www.w3.org/2000/svg" id="svg22" width="192" height="192" version="1"><defs><filter style="color-interpolation-filters:sRGB" id="filter862" width="1.1" height="1.1" x=".05" y=".05"><feGaussianBlur stdDeviation="3.2"/></filter><filter style="color-interpolation-filters:sRGB" id="filter886" width="1.08" height="1.11" x=".04" y=".06"><feGaussianBlur stdDeviation="2.12"/></filter></defs><rect style="filter:url(#filter862);opacity:.2;fill:#000" width="160" height="160" x="-180" y="-176" rx="80" ry="80" transform="matrix(0,-1,-1,0,0,0)"/><rect width="160" height="160" x="-176" y="-176" rx="80" ry="80" transform="matrix(0,-1,-1,0,0,0)" style="fill:#566df3"/><path style="opacity:.1;fill:#fff" d="M 96 16 C 51.68 16 16 51.68 16 96 C 16 96.12 16.01 96.23 16.01 96.35 C 16.36 52.33 51.90 17 96 17 C 140.11 17 175.65 52.34 175.99 96.36 C 175.99 96.24 176 96.12 176 96 C 176 51.68 140.32 16 96 16 z"/><path style="filter:url(#filter886);opacity:.2" d="M 95.87 53.95 A 4.00 4.00 0 0 0 92.15 56.90 L 68.15 140.90 A 4.00 4.00 0 1 0 75.85 143.10 L 99.85 59.10 A 4.00 4.00 0 0 0 95.87 53.95 z M 42 66 C 38.68 66 36 68.68 36 72 L 36 124 C 36 127.32 38.68 130 42 130 L 62 130 C 65.32 130 68 127.32 68 124 L 68 72 C 68 68.68 65.32 66 62 66 L 42 66 z M 124 66 A 32 32 0 0 0 92 98 A 32 32 0 0 0 124 130 A 32 32 0 0 0 156 98 A 32 32 0 0 0 124 66 z"/><rect width="32" height="64" x="36" y="64" rx="6" ry="6" style="fill:#fff"/><circle cx="124" cy="96" r="32" style="fill:#fff"/><path d="M 72,140 96,56" style="fill:none;stroke:#1ce8b5;stroke-width:8;stroke-linecap:round;stroke-linejoin:round"/></svg>