<?xml version='1.0' encoding='utf-8'?>
<svg xmlns="http://www.w3.org/2000/svg" width="192" height="192" version="1" id="svg22">
  <defs>
    <filter style="color-interpolation-filters:sRGB" id="filter860" x="0.05" width="1.10" y="0.05" height="1.09">
      <feGaussianBlur stdDeviation="3.12"/>
    </filter>
    <filter style="color-interpolation-filters:sRGB" id="filter880" x="0.05" width="1.10" y="0.05" height="1.10">
      <feGaussianBlur stdDeviation="1.60"/>
    </filter>
    <filter style="color-interpolation-filters:sRGB" id="filter896" x="0.02" width="1.05" y="0.02" height="1.05">
      <feGaussianBlur stdDeviation="1.01"/>
    </filter>
  </defs>
  <path d="m 95.81,20.00 a 13.22,13.33 0 0 0 -9.15,3.91 L 55.26,55.57 23.87,87.24 a 13.22,13.33 0 0 0 -3.87,9.43 v 70.00 A 13.22,13.33 0 0 0 33.22,180 H 158.78 A 13.22,13.33 0 0 0 172,166.67 v -70.00 a 13.22,13.33 0 0 0 -3.87,-9.43 L 105.35,23.91 a 13.22,13.33 0 0 0 -9.54,-3.91 z" style="filter:url(#filter860);opacity:0.20;fill-rule:evenodd"/>
  <path d="m 96.38,21.46 c -3.44,0.05 -6.72,1.45 -9.15,3.91 L 55.84,57.03 24.45,88.69 c -2.48,2.50 -3.87,5.89 -3.87,9.43 l 5.88,59.09 c 0.00,7.36 5.92,13.33 13.22,13.33 L 135.06,176 h 23.73 c 7.30,0.00 13.22,-5.97 13.22,-13.33 v -70.00 c 0.00,-3.54 -1.39,-6.93 -3.87,-9.43 L 120.07,34.76 105.92,25.36 c -2.53,-2.55 -5.97,-3.96 -9.54,-3.91 z" style="fill:#4587f3;fill-rule:evenodd"/>
  <rect y="140" x="56" height="36" width="80" style="fill:#3caa59"/>
  <path d="m 56,100 -36,36 v 26.66 A 13.22,13.33 0 0 0 33.22,176 H 56 Z" style="fill:#f9bc14;fill-rule:evenodd"/>
  <path d="m 96,62 40,40 v 40 H 56 v -40 z" style="filter:url(#filter880);opacity:0.20;fill-rule:evenodd"/>
  <path d="M 119.66,36.34 20,136 v 2 L 120.65,37.35 Z" style="filter:url(#filter896);opacity:0.20;fill-rule:evenodd"/>
  <path d="m 96,60 40,40 v 40 H 56 v -40 z" style="fill:#ffffff;fill-rule:evenodd"/>
  <path d="m 95.80,16 c -3.44,0.05 -6.72,1.45 -9.15,3.91 L 55.27,51.57 23.88,83.24 C 21.40,85.74 20.00,89.13 20,92.66 V 136 L 120.65,35.35 105.34,19.91 C 102.82,17.36 99.38,15.95 95.80,16 Z" style="fill:#dd4d3e;fill-rule:evenodd"/>
  <path style="opacity:0.20;fill:#ffffff;fill-rule:evenodd" d="M 95.80 16 A 13.22 13.33 0 0 0 93.31 16.28 C 93.29 16.29 93.27 16.29 93.25 16.30 A 13.22 13.33 0 0 0 90.98 17.02 C 90.92 17.04 90.86 17.06 90.80 17.09 A 13.22 13.33 0 0 0 88.81 18.16 C 88.72 18.23 88.62 18.29 88.52 18.35 A 13.22 13.33 0 0 0 86.66 19.91 L 55.27 51.57 L 23.88 83.24 A 13.22 13.33 0 0 0 22.23 85.27 A 13.22 13.33 0 0 0 21.04 87.51 C 21.03 87.53 21.01 87.56 21 87.59 A 13.22 13.33 0 0 0 20.28 89.97 C 20.27 90.01 20.26 90.05 20.25 90.09 A 13.22 13.33 0 0 0 20 92.66 L 20 93.66 A 13.22 13.33 0 0 1 20.25 91.09 C 20.26 91.05 20.27 91.01 20.28 90.97 A 13.22 13.33 0 0 1 21 88.59 C 21.01 88.56 21.03 88.53 21.04 88.51 A 13.22 13.33 0 0 1 22.23 86.27 A 13.22 13.33 0 0 1 23.88 84.24 L 55.27 52.57 L 86.66 20.91 A 13.22 13.33 0 0 1 88.52 19.35 C 88.62 19.29 88.72 19.23 88.81 19.16 A 13.22 13.33 0 0 1 90.80 18.09 C 90.86 18.06 90.92 18.04 90.98 18.02 A 13.22 13.33 0 0 1 93.25 17.30 C 93.27 17.29 93.29 17.29 93.31 17.28 A 13.22 13.33 0 0 1 95.80 17 A 13.22 13.33 0 0 1 98.42 17.23 C 98.43 17.23 98.44 17.23 98.45 17.23 A 13.22 13.33 0 0 1 98.48 17.23 A 13.22 13.33 0 0 1 100.97 17.98 A 13.22 13.33 0 0 1 103.29 19.21 A 13.22 13.33 0 0 1 103.30 19.22 A 13.22 13.33 0 0 1 105.34 20.91 L 120.65 36.35 L 168.12 84.24 A 13.22 13.33 0 0 1 172 93.66 L 172 92.66 A 13.22 13.33 0 0 0 168.12 83.24 L 120.65 35.35 L 105.34 19.91 A 13.22 13.33 0 0 0 103.30 18.22 A 13.22 13.33 0 0 0 103.29 18.21 A 13.22 13.33 0 0 0 100.97 16.98 A 13.22 13.33 0 0 0 98.48 16.23 A 13.22 13.33 0 0 0 98.45 16.23 C 98.44 16.23 98.43 16.23 98.42 16.23 A 13.22 13.33 0 0 0 95.80 16 z "/>
</svg>
