<?xml version='1.0' encoding='utf-8'?>
<svg xmlns="http://www.w3.org/2000/svg" width="192" height="192" version="1" id="svg16">
  <defs>
    <filter style="color-interpolation-filters:sRGB" id="filter853" x="-0.048000001" width="1.096" y="-0.048000001" height="1.096">
      <feGaussianBlur stdDeviation="3.2"/>
    </filter>
    <filter style="color-interpolation-filters:sRGB" id="filter873" x="-0.044571225" width="1.0891424" y="-0.052000277" height="1.1040006">
      <feGaussianBlur stdDeviation="1.560027"/>
    </filter>
  </defs>
  <rect style="filter:url(#filter853);opacity:0.2;fill:#000000" width="160" height="160" x="-180" y="-176" rx="80" ry="80" transform="matrix(0,-1,-1,0,0,0)"/>
  <rect transform="matrix(0,-1,-1,0,0,0)" ry="80" rx="80" y="-176" x="-176" height="160" width="160" style="fill:#4e8df5"/>
  <path d="m 124,76 a 12,12 0 0 0 -12,12 12,12 0 0 0 12,12 12,12 0 0 0 12,-12 12,12 0 0 0 -12,-12 z m 29.65625,0.05468 c -1.79591,0.075 -3.65393,0.22148 -4.51563,0.39844 -1.24343,0.25536 -1.691,1.771944 -2.625,8.968752 -0.90658,6.985552 -1.69911,10.005408 -3.65624,13.898436 -3.26761,6.499762 -9.29658,10.901782 -16.78907,12.257812 -10.52931,1.90566 -14.12187,2.87354 -18.25781,4.92969 C 102.93682,119.23414 96.933328,124.82873 96,132 h 44 v -4.89062 c 0,0 -0.05,-2.4456 1.67188,-4.04688 l 14.4375,-16.52344 c 0.27028,-0.51474 1.33217,-7.050888 2.35937,-14.523436 1.71233,-12.456708 1.80633,-13.670656 1.17187,-14.640624 -0.3806,-0.581864 -1.21394,-1.159172 -1.85156,-1.281248 -0.60442,-0.11572 -2.3369,-0.11404 -4.13281,-0.0392 z" style="opacity:0.4;fill:#ffffff"/>
  <path style="opacity:0.2;fill:#ffffff" d="M 96 16 C 51.68 16 16 51.68 16 96 C 16 96.336 16.002 96.6675 16 97 C 16 52.68 51.68 17 96 17 C 140.32 17 176 52.68 176 97 C 175.998 96.6675 176 96.336 176 96 C 176 51.68 140.32 16 96 16 z "/>
  <path d="m 45.023436,62 c -0.96198,0.006 -1.728348,0.0428 -2.125,0.1172 -0.836872,0.157 -1.930148,0.900324 -2.429684,1.648436 -0.832727,1.247104 -0.700563,2.81236 1.546872,18.828128 1.348196,9.60756 3.093752,18.671876 3.093752,18.671876 L 62.570312,123.1797 C 63.915364,124.45672 64,127.11719 64,127.11719 V 134 h 60 c -1.22499,-9.22021 -9.10849,-16.4166 -15.50781,-19.92188 -5.42843,-2.64361 -10.14121,-3.8858 -23.960942,-6.33593 -9.83388,-1.74347 -17.75032,-7.40879 -22.03906,-15.765626 C 59.923452,86.971244 58.885192,83.098616 57.695312,74.117188 56.469444,64.864144 55.88982,62.914252 54.257812,62.585936 52.56134,62.244656 47.90938,61.982104 45.023436,62 Z M 84,62 A 16,16 0 0 0 68,78 16,16 0 0 0 84,94 16,16 0 0 0 100,78 16,16 0 0 0 84,62 Z" style="filter:url(#filter873);opacity:0.2"/>
  <path d="m 45.023436,60 c -0.96198,0.006 -1.728348,0.0428 -2.125,0.1172 -0.836872,0.157 -1.930148,0.900324 -2.429684,1.648436 -0.832727,1.247104 -0.700563,2.81236 1.546872,18.828128 1.348196,9.60756 3.093752,18.671872 3.093752,18.671872 L 62.570312,121.1797 C 63.915364,122.45672 64,125.11719 64,125.11719 V 132 h 60 c -1.22499,-9.22021 -9.10849,-16.4166 -15.50781,-19.92188 -5.42843,-2.64361 -10.14121,-3.8858 -23.960942,-6.33593 -9.83388,-1.74347 -17.75032,-7.408786 -22.03906,-15.765626 C 59.923452,84.971244 58.885192,81.098616 57.695312,72.117188 56.469444,62.864144 55.88982,60.914252 54.257812,60.585936 52.56134,60.244656 47.90938,59.982104 45.023436,60 Z M 84,60 A 16,16 0 0 0 68,76 16,16 0 0 0 84,92 16,16 0 0 0 100,76 16,16 0 0 0 84,60 Z" style="fill:#ffffff"/>
</svg>
