<?xml version='1.0' encoding='utf-8'?>
<svg xmlns="http://www.w3.org/2000/svg" width="192" height="192" version="1" id="svg12">
  <defs>
    <filter style="color-interpolation-filters:sRGB" id="filter859" x="0.05" width="1.10" y="0.05" height="1.10">
      <feGaussianBlur stdDeviation="3.20"/>
    </filter>
    <filter style="color-interpolation-filters:sRGB" id="filter863" x="0.05" width="1.10" y="0.05" height="1.10">
      <feGaussianBlur stdDeviation="1.92"/>
    </filter>
  </defs>
  <circle style="filter:url(#filter859);opacity:0.20" cx="96" cy="100" r="80"/>
  <circle style="fill:#009688" cx="96" cy="96" r="80"/>
  <path style="filter:url(#filter863);opacity:0.20" d="M 96,52 C 84.83,52.01 74.02,55.92 65.42,63.05 L 82.14,92 104.75,52.84 C 101.87,52.29 98.94,52.01 96,52 Z M 112.71,55.06 96,84 h 45.20 C 136.45,70.62 126.02,60.02 112.71,55.06 Z M 59.52,68.83 C 52.09,77.52 48.01,88.57 48,100 c 0.00,2.68 0.23,5.36 0.68,8 H 82.14 Z M 109.86,92 132.48,131.17 C 139.91,122.48 143.99,111.43 144,100 c 0.00,-2.68 0.23,-5.36 0.68,-8 z m 0,16 L 87.25,147.16 c 2.88,0.55 5.81,0.83 8.75,0.84 11.17,0.01 21.98,-3.92 30.58,-11.05 z m -59.05,8 c 4.75,13.38 15.18,23.98 28.48,28.94 L 96,116 Z"/>
  <path style="fill:#ffffff" d="M 96,48 C 84.83,48.01 74.02,51.92 65.42,59.05 L 82.14,88 104.75,48.84 C 101.87,48.29 98.94,48.01 96,48 Z M 112.71,51.06 96,80 h 45.20 C 136.45,66.62 126.02,56.02 112.71,51.06 Z M 59.52,64.83 C 52.09,73.52 48.01,84.57 48,96 c 0.00,2.68 0.23,5.36 0.68,8 H 82.14 Z M 109.86,88 132.48,127.17 C 139.91,118.48 143.99,107.43 144,96 c 0.00,-2.68 0.23,-5.36 0.68,-8 z m 0,16 L 87.25,143.16 c 2.88,0.55 5.81,0.83 8.75,0.84 11.17,0.01 21.98,-3.92 30.58,-11.05 z m -59.05,8 c 4.75,13.38 15.18,23.98 28.48,28.94 L 96,112 Z"/>
  <path style="opacity:0.20;fill:#ffffff" d="M 96 16 A 80 80 0 0 0 16 96 A 80 80 0 0 0 16.00 96.16 A 80 80 0 0 1 96 17 A 80 80 0 0 1 175.99 96.12 A 80 80 0 0 0 176 96 A 80 80 0 0 0 96 16 z "/>
</svg>
