<?xml version='1.0' encoding='utf-8'?>
<svg xmlns="http://www.w3.org/2000/svg" width="192" height="192" version="1" id="svg22">
  <defs>
    <filter style="color-interpolation-filters:sRGB" id="filter893" x="0.04" width="1.09" y="0.05" height="1.10">
      <feGaussianBlur stdDeviation="2.08"/>
    </filter>
    <filter style="color-interpolation-filters:sRGB" id="filter909" x="0.04" width="1.09" y="0.05" height="1.10">
      <feGaussianBlur stdDeviation="2.08"/>
    </filter>
    <filter style="color-interpolation-filters:sRGB" id="filter925" x="0.04" width="1.08" y="0.06" height="1.12">
      <feGaussianBlur stdDeviation="1.04"/>
    </filter>
  </defs>
  <path d="m 176,28.00 -16,16 V 116 c 0,4.43 -3.57,8 -8,8 H 72 c -4.43,0 -8,-3.57 -8,-8 V 36.00 c 0,-4.43 3.57,-8 8,-8 z" style="filter:url(#filter893);opacity:0.20;fill:#000000"/>
  <path style="fill:#0286c2" d="m 176,24 -16,16 v 72 c 0,4.43 -3.57,8 -8,8 H 72 c -4.43,0 -8,-3.57 -8,-8 V 32 c 0,-4.43 3.57,-8 8,-8 z"/>
  <path style="opacity:0.20" d="m 80,48 v 8 h 64 v -8 z m 0,16 v 8 h 64 v -8 z m 0,16 v 8 h 48 v -8 z"/>
  <path style="fill:#0286c2" d="m 176,24 -16,16 v 72 c 0,4.43 -3.57,8 -8,8 H 72 c -4.43,0 -8,-3.57 -8,-8 V 32 c 0,-4.43 3.57,-8 8,-8 z"/>
  <path d="m 16,76.00 16,16 V 164 c 0,4.43 3.57,8 8,8 h 80 c 4.43,0 8,-3.57 8,-8 V 84.00 c 0,-4.43 -3.57,-8 -8,-8 z" style="filter:url(#filter909);opacity:0.20;fill:#000000"/>
  <path style="fill:#35b9f5" d="m 16,72 16,16 v 72 c 0,4.43 3.57,8 8,8 h 80 c 4.43,0 8,-3.57 8,-8 V 80 c 0,-4.43 -3.57,-8 -8,-8 z"/>
  <path style="filter:url(#filter925);opacity:0.20" d="m 48,106 v 8 h 64 v -8 z m 0,16 v 8 h 64 v -8 z m 0,16 v 8 h 48 v -8 z"/>
  <path style="fill:#aee3fb" d="m 48,104 v 8 h 64 v -8 z m 0,16 v 8 h 64 v -8 z m 0,16 v 8 h 48 v -8 z"/>
  <path style="opacity:0.20;fill:#ffffff" d="M 72 24 C 67.57 24 64 27.57 64 32 L 64 33 C 64 28.57 67.57 25 72 25 L 175 25 L 176 24 L 72 24 z "/>
  <path style="opacity:0.20;fill:#ffffff" d="M 16 72 L 17 73 L 120 73 C 124.43 73 128 76.57 128 81 L 128 80 C 128 75.57 124.43 72 120 72 L 16 72 z "/>
</svg>
