<?xml version='1.0' encoding='utf-8'?>
<svg xmlns="http://www.w3.org/2000/svg" width="192" height="192" version="1" id="svg20">
  <defs>
    <filter style="color-interpolation-filters:sRGB" id="filter875" x="-0.048000001" width="1.096" y="-0.048000001" height="1.096">
      <feGaussianBlur stdDeviation="3.2"/>
    </filter>
    <filter style="color-interpolation-filters:sRGB" id="filter879" x="-0.047999999" width="1.096" y="-0.047999999" height="1.096">
      <feGaussianBlur stdDeviation="1.92"/>
    </filter>
    <filter style="color-interpolation-filters:sRGB" id="filter883" x="-0.049006736" width="1.0980135" y="-0.060364352" height="1.1207287">
      <feGaussianBlur stdDeviation="1.9602695"/>
    </filter>
  </defs>
  <rect style="filter:url(#filter875);opacity:0.2" width="160" height="160" x="16" y="20" rx="48" ry="48"/>
  <rect style="fill:#e4e4e4" width="160" height="160" x="16" y="16" rx="48" ry="48"/>
  <path style="opacity:0.2;fill:#ffffff" d="M 64 16 C 37.408 16 16 37.408 16 64 L 16 65 C 16 38.408 37.408 17 64 17 L 128 17 C 154.592 17 176 38.408 176 65 L 176 64 C 176 37.408 154.592 16 128 16 L 64 16 z "/>
  <path style="fill:#3084e9" d="M 68,48 A 20,20 0 0 0 48,68 20,20 0 0 0 68,88 h 56 V 48 Z"/>
  <path style="fill:#aeaeae" d="m 68,104 v 40 h 56 a 20,20 0 0 0 20,-20 20,20 0 0 0 -20,-20 z"/>
  <path style="filter:url(#filter883);opacity:0.1" d="M 68,48 A 20,20 0 0 0 48,68 20,20 0 0 0 48.10936,70.0625 20,20 0 0 1 68,52 h 56 v -4 z m 0,56 v 4 h 56 A 20,20 0 0 1 143.89062,125.9375 20,20 0 0 0 144,124 20,20 0 0 0 124,104 Z"/>
  <path style="filter:url(#filter879);opacity:0.2" d="M 124,52 A 20,20 0 0 0 104,72 20,20 0 0 0 124,92 20,20 0 0 0 144,72 20,20 0 0 0 124,52 Z M 68,108 A 20,20 0 0 0 48,128 20,20 0 0 0 68,148 20,20 0 0 0 88,128 20,20 0 0 0 68,108 Z"/>
  <circle style="fill:#ffffff" cx="124" cy="68" r="20"/>
  <circle style="fill:#ffffff" cx="68" cy="124" r="20"/>
</svg>
