<svg xmlns="http://www.w3.org/2000/svg" id="svg18" width="192" height="192" version="1"><defs><filter style="color-interpolation-filters:sRGB" id="filter866" width="1.1" height="1.1" x=".05" y=".05"><feGaussianBlur stdDeviation="3.2"/></filter></defs><circle style="filter:url(#filter866);opacity:.2;fill:#000" cx="96" cy="100" r="80"/><rect style="fill:#6573c3" width="159.92" height="159.92" x="-175.92" y="-175.92" rx="79.96" ry="79.96" transform="matrix(0,-1,-1,0,0,0)"/><path style="opacity:.1" d="M 152.53,39.55 39.55,152.53 c 31.29,31.30 81.68,31.30 112.98,0 31.29,-31.30 31.29,-81.68 0,-112.98 z"/><path style="opacity:.2;fill:#fff" d="M 96.04 16.15 C 51.78 16.15 16.15 51.78 16.15 96.04 C 16.15 96.38 16.15 96.71 16.15 97.04 C 16.15 52.78 51.78 17.15 96.04 17.15 C 140.30 17.15 175.93 52.78 175.93 97.04 C 175.92 96.70 175.93 96.37 175.93 96.04 C 175.93 51.78 140.30 16.15 96.04 16.15 z"/><path style="fill:#f2f2f2" d="m 39.55,152.53 49.43,-63.55 6.69,6.69 7.43,7.43 z"/><path style="fill:#f34235" d="M 152.53,39.55 88.98,88.98 103.10,103.10 Z"/><path style="opacity:.2;fill:#fff" d="M 152.53,39.55 39.55,152.53 c -31.29,-31.30 -31.29,-81.68 0,-112.98 31.29,-31.30 81.68,-31.30 112.98,0 z"/></svg>