<?xml version='1.0' encoding='utf-8'?>
<svg xmlns="http://www.w3.org/2000/svg" width="192" height="192" version="1" id="svg12">
  <defs>
    <filter style="color-interpolation-filters:sRGB" id="filter882" x="-0.034800006" width="1.0696" y="-0.077333289" height="1.1546666">
      <feGaussianBlur stdDeviation="2.3200005"/>
    </filter>
  </defs>
  <path style="fill:#58992d" d="m 52,16 c -3.324,0 -8,3.568 -8,8 v 84 h 52 52 V 24 c 0,-4.432 -4.676,-8 -8,-8 z"/>
  <path style="opacity:0.1;fill:#ffffff" d="M 52 16 C 48.676 16 44 19.568 44 24 L 44 25 C 44 20.568 48.676 17 52 17 L 140 17 C 143.324 17 148 20.568 148 25 L 148 24 C 148 19.568 143.324 16 140 16 L 52 16 z "/>
  <path style="filter:url(#filter882);opacity:0.2;fill-rule:evenodd" d="m 22.138334,108 c -0.653946,-0.002 -13.0742068,-0.004 -0.614503,11.13281 l 66.253145,57.60157 C 90.237316,178.87356 92.775372,179.9593 96,180 c 3.224628,-0.0407 5.76268,-1.12644 8.22302,-3.26562 l 66.25315,-57.60157 C 182.93587,107.99623 170.51561,107.99827 169.86166,108 H 96 Z"/>
  <path style="fill:#81d547;fill-rule:evenodd" d="m 22.138334,104 c -0.653946,-0.002 -13.0742068,-0.004 -0.614503,11.13281 l 66.253145,57.60157 C 90.237316,174.87356 92.775372,175.9593 96,176 c 3.224628,-0.0407 5.76268,-1.12644 8.22302,-3.26562 l 66.25315,-57.60157 C 182.93587,103.99623 170.51561,103.99827 169.86166,104 H 96 Z"/>
  <path style="opacity:0.2;fill:#ffffff;fill-rule:evenodd" d="M 22.140625 104 C 21.681712 103.99912 15.468346 104.02113 16.091797 107.87305 C 16.606888 105.02027 21.725535 104.9992 22.140625 105 L 96 105 L 169.85938 105 C 170.27446 104.9989 175.39311 105.02019 175.9082 107.87305 C 176.53166 104.02109 170.31828 103.99878 169.85938 104 L 96 104 L 22.140625 104 z "/>
</svg>
