<?xml version='1.0' encoding='utf-8'?>
<svg xmlns="http://www.w3.org/2000/svg" width="192" height="192" version="1.1" id="svg16">
  <defs>
    <filter style="color-interpolation-filters:sRGB" id="filter853" x="0.05" y="0.05" width="1.10" height="1.10">
      <feGaussianBlur stdDeviation="3.20"/>
    </filter>
    <filter style="color-interpolation-filters:sRGB" id="filter2156" x="0.04" y="0.07" width="1.07" height="1.14">
      <feGaussianBlur stdDeviation="1.19"/>
    </filter>
    <filter style="color-interpolation-filters:sRGB" id="filter2182" x="0.04" y="0.08" width="1.07" height="1.15">
      <feGaussianBlur stdDeviation="1.64"/>
    </filter>
  </defs>
  <circle style="filter:url(#filter853);opacity:0.20" cx="96" cy="100" r="80"/>
  <circle style="fill:#4354cb" cx="96" cy="96" r="80"/>
  <path style="opacity:0.10;fill:#ffffff" d="M 96 16 A 80 80 0 0 0 16 96 A 80 80 0 0 0 16.02 96.64 A 80 80 0 0 1 96 17 A 80 80 0 0 1 175.98 96.30 A 80 80 0 0 0 176 96 A 80 80 0 0 0 96 16 z "/>
  <circle style="fill:#ffffff" cx="96" cy="96" r="40"/>
  <path style="filter:url(#filter2182);opacity:0.20" d="M 122.57 79.40 C 113.98 79.40 102.79 81.69 91.95 85.68 C 81.10 89.64 71.18 95.12 64.74 100.63 C 58.98 105.58 57.75 109.09 58.09 109.92 C 58.14 110.02 58.25 110.15 58.39 110.28 C 59.06 108.63 60.85 105.97 64.74 102.63 C 71.18 97.12 81.10 91.64 91.95 87.68 C 102.79 83.69 113.98 81.40 122.57 81.40 C 130.27 81.40 133.57 83.24 133.91 84.08 C 133.98 84.26 133.97 84.61 133.85 85.05 C 133.97 85.38 134.06 85.72 134.17 86.05 L 134.85 86.49 C 134.57 85.32 134.24 84.17 133.85 83.05 C 133.97 82.61 133.98 82.26 133.91 82.08 C 133.57 81.24 130.27 79.40 122.57 79.40 z M 151.85 82.91 C 151.24 87.67 148.32 93.89 139.90 101.12 C 138.62 102.22 137.21 103.30 135.76 104.38 C 135.59 105.93 135.33 107.46 134.98 108.95 C 135.14 108.84 135.29 108.72 135.45 108.61 C 135.57 107.87 135.67 107.13 135.76 106.38 C 137.21 105.30 138.62 104.22 139.90 103.12 C 148.32 95.89 151.24 89.67 151.85 84.91 C 151.90 85.24 151.93 85.58 151.96 85.93 C 152.03 84.84 151.98 83.83 151.85 82.91 z M 40.15 113.09 C 40.01 114.17 39.99 115.18 40.05 116.10 C 40.07 115.77 40.10 115.43 40.15 115.09 C 40.32 116.29 40.61 117.34 40.95 118.20 C 42.69 122.61 48.32 130 66.68 130 C 66.93 130 67.19 129.99 67.45 129.98 C 68.10 130.65 68.78 131.30 69.48 131.93 C 70.23 131.89 70.99 131.86 71.75 131.80 C 70.22 130.64 68.79 129.35 67.45 127.98 C 67.19 127.99 66.93 128 66.68 128 C 48.32 128 42.69 120.61 40.95 116.20 C 40.61 115.34 40.32 114.29 40.15 113.09 z "/>
  <path style="fill:#3ea0f4" d="M 125.32,64 C 114.00,64 100.23,66.79 86.50,71.82 72.77,76.85 60.57,83.61 52.10,90.88 38.37,102.67 39.22,111.80 40.95,116.20 42.69,120.61 48.32,128 66.68,128 c 1.64,0 3.34,0.08 5.07,0.20 -5.78,-4.42 -10.33,-10.37 -13.02,-17.25 0.34,0.24 0.57,0.46 0.64,0.63 0.34,0.83 0.89,-4.35 6.65,-9.29 6.44,-5.51 16.36,-10.99 27.20,-14.95 10.84,-3.99 22.03,-6.28 30.62,-6.28 7.70,0 11.00,1.85 11.34,2.68 0.08,0.19 0.06,0.53 0.05,0.97 C 135.24,87.11 136,91.47 136,96 c 0,3.08 0.36,6.07 -1.02,8.95 1.74,-1.26 3.40,-2.53 4.91,-3.83 C 153.63,89.33 152.78,80.20 151.05,75.80 149.35,71.39 143.71,64 125.32,64 Z"/>
  <path style="filter:url(#filter2156);opacity:0.20" d="M 135.91 97.37 C 135.17 118.89 117.53 135.96 96 136 C 79.37 135.96 65.03 125.75 59.06 111.14 L 58.13 108.98 C 57.98 109.91 57.98 110.78 58.06 111.62 C 58.08 111.41 58.09 111.20 58.13 110.98 L 59.06 113.14 C 65.03 127.75 79.37 137.96 96 138 C 117.53 137.96 135.17 120.89 135.91 99.37 C 135.95 99.97 135.96 100.56 135.97 101.16 C 135.98 100.78 136 100.39 136 100 C 136.00 99.12 135.97 98.24 135.91 97.37 z "/>
</svg>
