<?xml version='1.0' encoding='utf-8'?>
<svg xmlns="http://www.w3.org/2000/svg" width="192" height="192" version="1" id="svg14">
  <defs>
    <filter style="color-interpolation-filters:sRGB" id="filter850" x="0.05" width="1.11" y="0.04" height="1.09">
      <feGaussianBlur stdDeviation="2.88"/>
    </filter>
    <filter style="color-interpolation-filters:sRGB" id="filter866" x="0.04" width="1.07" y="0.07" height="1.15">
      <feGaussianBlur stdDeviation="2"/>
    </filter>
  </defs>
  <rect style="filter:url(#filter850);opacity:0.20;fill:#000000" width="128" height="160" x="-164" y="-176" rx="8" ry="8" transform="matrix(0,-1,-1,0,0,0)"/>
  <rect transform="matrix(0,-1,-1,0,0,0)" ry="8" rx="8" y="-176" x="-160" height="160" width="128" style="fill:#7846da"/>
  <path style="opacity:0.10;fill:#ffffff" d="M 24 32 C 19.57 32 16 35.57 16 40 L 16 41 C 16 36.57 19.57 33 24 33 L 168 33 C 172.43 33 176 36.57 176 41 L 176 40 C 176 35.57 172.43 32 168 32 L 24 32 z "/>
  <path d="m 60,66 a 32,32 0 0 0 -32,32 32,32 0 0 0 32,32 h 72 a 32,32 0 0 0 32,-32 32,32 0 0 0 -32,-32 32,32 0 0 0 -32,32 32,32 0 0 0 7.05,20 H 84.98 A 32,32 0 0 0 92,98 32,32 0 0 0 60,66 Z m 0,12 A 20,20 0 0 1 80,98 20,20 0 0 1 60,118 20,20 0 0 1 40,98 20,20 0 0 1 60,78 Z m 72,0 a 20,20 0 0 1 20,20 20,20 0 0 1 -20,20 20,20 0 0 1 -20,-20 20,20 0 0 1 20,-20 z" style="filter:url(#filter866);opacity:0.20"/>
  <path d="m 60,64 a 32,32 0 0 0 -32,32 32,32 0 0 0 32,32 h 72 a 32,32 0 0 0 32,-32 32,32 0 0 0 -32,-32 32,32 0 0 0 -32,32 32,32 0 0 0 7.05,20 H 84.98 A 32,32 0 0 0 92,96 32,32 0 0 0 60,64 Z m 0,12 A 20,20 0 0 1 80,96 20,20 0 0 1 60,116 20,20 0 0 1 40,96 20,20 0 0 1 60,76 Z m 72,0 a 20,20 0 0 1 20,20 20,20 0 0 1 -20,20 20,20 0 0 1 -20,-20 20,20 0 0 1 20,-20 z" style="fill:#ffffff"/>
</svg>
