<?xml version='1.0' encoding='utf-8'?>
<svg xmlns="http://www.w3.org/2000/svg" width="192" height="192" version="1" id="svg18">
  <defs>
    <filter style="color-interpolation-filters:sRGB" id="filter866" x="-0.048000001" width="1.096" y="-0.048000001" height="1.096">
      <feGaussianBlur stdDeviation="3.2"/>
    </filter>
  </defs>
  <circle style="filter:url(#filter866);opacity:0.2;fill:#000000" cx="96" cy="100" r="80"/>
  <rect style="fill:#6573c3" transform="matrix(0,-1,-1,0,0,0)" ry="79.958618" rx="79.96122" y="-175.91724" x="-175.92244" height="159.91724" width="159.92244"/>
  <path style="opacity:0.1" d="M 152.52535,39.551379 39.551814,152.52858 c 31.294205,31.29523 81.681726,31.29523 112.977536,0 31.2942,-31.29522 31.2942,-81.684378 0,-112.981199 z"/>
  <path style="opacity:0.2;fill:#ffffff" d="M 96.039062 16.152344 C 51.781967 16.152344 16.152344 51.782082 16.152344 96.041016 C 16.152344 96.376321 16.154341 96.708368 16.152344 97.041016 C 16.152344 52.782082 51.781967 17.152344 96.039062 17.152344 C 140.29616 17.152344 175.92578 52.782573 175.92578 97.037109 C 175.92378 96.704462 175.92578 96.372415 175.92578 96.037109 C 175.92578 51.782573 140.29616 16.152344 96.039062 16.152344 z "/>
  <path style="fill:#f2f2f2" d="m 39.550615,152.52978 49.42642,-63.549175 6.688539,6.688756 7.433356,7.433599 z"/>
  <path style="fill:#f34235" d="M 152.52535,39.551379 88.978235,88.979406 103.09893,103.10056 Z"/>
  <path style="opacity:0.2;fill:#ffffff" d="M 152.52535,39.551379 39.551814,152.52858 c -31.2942044,-31.29522 -31.2942044,-81.684378 0,-112.981199 31.294205,-31.2952215 81.681726,-31.2952215 112.977536,0 z"/>
</svg>
