<svg xmlns="http://www.w3.org/2000/svg" id="svg28" width="192" height="192" version="1"><defs><filter style="color-interpolation-filters:sRGB" id="filter871" width="1.1" height="1.1" x=".05" y=".05"><feGaussianBlur stdDeviation="3.2"/></filter><filter style="color-interpolation-filters:sRGB" id="filter904" width="1.08" height="1.13" x=".04" y=".07"><feGaussianBlur stdDeviation="1.76"/></filter></defs><rect style="filter:url(#filter871);opacity:.2;fill:#000" width="160" height="160" x="-180" y="-176" rx="8" ry="8" transform="matrix(0,-1,-1,0,0,0)"/><rect width="160" height="160" x="-176" y="-176" rx="8" ry="8" transform="matrix(0,-1,-1,0,0,0)" style="fill:#3f3f3f"/><path d="M 48,83.60 V 140 c 0,4.43 3.57,8 8,8 4.43,0 8,-3.57 8,-8 V 83.60 Z M 88,113.58 V 140 c 0,4.43 3.57,8 8,8 4.43,0 8,-3.57 8,-8 V 114.90 Z M 128,86.23 V 140 c 0,4.43 3.57,8 8,8 4.43,0 8,-3.57 8,-8 V 86.89 Z" style="fill:#0095dd"/><path style="opacity:.1;fill:#fff" d="M 24 16 C 19.57 16 16 19.57 16 24 L 16 25 C 16 20.57 19.57 17 24 17 L 168 17 C 172.43 17 176 20.57 176 25 L 176 24 C 176 19.57 172.43 16 168 16 L 24 16 z"/><path d="m 56,52 c -4.43,0 -8,3.57 -8,8 V 83.60 H 64 V 60 c 0,-4.43 -3.57,-8 -8,-8 z m 40,0 c -4.43,0 -8,3.57 -8,8 v 53.58 l 16,1.32 V 60 c 0,-4.43 -3.57,-8 -8,-8 z m 40,0 c -4.43,0 -8,3.57 -8,8 v 26.23 l 16,0.66 V 60 c 0,-4.43 -3.57,-8 -8,-8 z" style="opacity:.3"/><path style="filter:url(#filter904);opacity:.2" d="M 56 70 A 16 16 0 0 0 40 86 A 16 16 0 0 0 56 102 A 16 16 0 0 0 72 86 A 16 16 0 0 0 56 70 z M 136 74 A 16 16 0 0 0 120 90 A 16 16 0 0 0 136 106 A 16 16 0 0 0 152 90 A 16 16 0 0 0 136 74 z M 96 102 A 16 16 0 0 0 80 118 A 16 16 0 0 0 96 134 A 16 16 0 0 0 112 118 A 16 16 0 0 0 96 102 z"/><path d="M 72,84 A 16,16 0 0 1 56,100 16,16 0 0 1 40,84 16,16 0 0 1 56,68 16,16 0 0 1 72,84 Z" style="fill:#696969"/><path d="m 112,116 a 16,16 0 0 1 -16,16 16,16 0 0 1 -16,-16 16,16 0 0 1 16,-16 16,16 0 0 1 16,16 z" style="fill:#696969"/><path d="m 152,88 a 16,16 0 0 1 -16,16 16,16 0 0 1 -16,-16 16,16 0 0 1 16,-16 16,16 0 0 1 16,16 z" style="fill:#696969"/><path style="opacity:.1;fill:#fff" d="M 56 68 A 16 16 0 0 0 40 84 A 16 16 0 0 0 40.02 84.44 A 16 16 0 0 1 56 69 A 16 16 0 0 1 71.98 84.59 A 16 16 0 0 0 72 84 A 16 16 0 0 0 56 68 z M 136 72 A 16 16 0 0 0 120 88 A 16 16 0 0 0 120.02 88.44 A 16 16 0 0 1 136 73 A 16 16 0 0 1 151.98 88.59 A 16 16 0 0 0 152 88 A 16 16 0 0 0 136 72 z M 96 100 A 16 16 0 0 0 80 116 A 16 16 0 0 0 80.02 116.44 A 16 16 0 0 1 96 101 A 16 16 0 0 1 111.98 116.59 A 16 16 0 0 0 112 116 A 16 16 0 0 0 96 100 z"/></svg>