<?xml version='1.0' encoding='utf-8'?>
<svg xmlns="http://www.w3.org/2000/svg" width="192" height="192" version="1" id="svg16">
  <defs>
    <filter style="color-interpolation-filters:sRGB" id="filter867" x="-0.048000001" width="1.096" y="-0.048000001" height="1.096">
      <feGaussianBlur stdDeviation="3.2"/>
    </filter>
    <filter style="color-interpolation-filters:sRGB" id="filter887" x="-0.0585" width="1.117" y="-0.040695652" height="1.0813913">
      <feGaussianBlur stdDeviation="0.2600013"/>
    </filter>
  </defs>
  <rect ry="80" rx="80" height="160" width="160" y="-176" x="-180" transform="matrix(0,-1,-1,0,0,0)" style="filter:url(#filter867);opacity:0.2;fill:#000000"/>
  <rect style="fill:#ea463e" transform="matrix(0,-1,-1,0,0,0)" x="-176" y="-176" width="160" height="160" rx="80" ry="80"/>
  <path style="opacity:0.2;fill:#ffffff" d="M 96 16 C 51.68 16 16 51.68 16 96 C 16 96.336 16.002 96.6675 16 97 C 16 52.68 51.68 17 96 17 C 140.32 17 176 52.68 176 97 C 175.998 96.6675 176 96.336 176 96 C 176 51.68 140.32 16 96 16 z "/>
  <g transform="matrix(6,0,0,6,-2022,2546.0001)" style="filter:url(#filter887);opacity:0.2;enable-background:new">
    <path transform="matrix(0.66667,0,0,0.66667,246.33,-530.67)" d="m 160,173 c -2.216,0 -4,1.784 -4,4 v 8 c 0,2.216 1.784,4 4,4 2.216,0 4,-1.784 4,-4 v -8 c 0,-2.216 -1.784,-4 -4,-4 z m -8,10 v 2 c 0,4.135 3.0527,7.5163 7,7.9512 V 196 h 2 v -3.0488 c 3.9473,-0.43487 7,-3.8162 7,-7.9512 v -2 h -2 v 2 c 0,3.324 -2.676,6 -6,6 -3.324,0 -6,-2.676 -6,-6 v -2 z"/>
  </g>
  <g transform="matrix(6,0,0,6,-2022,2544.0161)" style="fill:#ffffff;enable-background:new">
    <path transform="matrix(0.66667,0,0,0.66667,246.33,-530.67)" d="m 160,173 c -2.216,0 -4,1.784 -4,4 v 8 c 0,2.216 1.784,4 4,4 2.216,0 4,-1.784 4,-4 v -8 c 0,-2.216 -1.784,-4 -4,-4 z m -8,10 v 2 c 0,4.135 3.0527,7.5163 7,7.9512 V 196 h 2 v -3.0488 c 3.9473,-0.43487 7,-3.8162 7,-7.9512 v -2 h -2 v 2 c 0,3.324 -2.676,6 -6,6 -3.324,0 -6,-2.676 -6,-6 v -2 z"/>
  </g>
</svg>
