<?xml version='1.0' encoding='utf-8'?>
<svg xmlns="http://www.w3.org/2000/svg" width="192" height="192" version="1" id="svg26">
  <defs>
    <filter style="color-interpolation-filters:sRGB" id="filter873" x="0.05" y="0.05" width="1.10" height="1.10">
      <feGaussianBlur stdDeviation="2.88"/>
    </filter>
    <filter style="color-interpolation-filters:sRGB" id="filter877" x="0.05" y="0.05" width="1.10" height="1.10">
      <feGaussianBlur stdDeviation="2.24"/>
    </filter>
    <filter style="color-interpolation-filters:sRGB" id="filter899" x="0.09" y="0.14" width="1.17" height="1.29">
      <feGaussianBlur stdDeviation="2.88"/>
    </filter>
  </defs>
  <rect style="filter:url(#filter873);opacity:0.20" width="144.00" height="144.00" x="24.00" y="36.00" rx="12.00" ry="12.00"/>
  <rect style="fill:#795548" width="144.00" height="144.00" x="24.00" y="32.00" rx="12.00" ry="12.00"/>
  <path style="opacity:0.10;fill:#ffffff" d="M 36 32 C 29.35 32 24 37.35 24 44 L 24 45 C 24 38.35 29.35 33 36 33 L 81.19 33 L 81.19 32 L 36 32 z M 110.34 32 L 110.34 33 L 156 33 C 162.65 33 168 38.35 168 45 L 168 44 C 168 37.35 162.65 32 156 32 L 110.34 32 z "/>
  <path style="filter:url(#filter877);opacity:0.20" d="M 40.00,52.00 H 152.00 V 164.00 H 40.00 Z"/>
  <path style="fill:#ffffff" d="M 40.00,48.00 H 152.00 V 160.00 H 40.00 Z"/>
  <path style="filter:url(#filter899);opacity:0.20" d="m 95.24,18.00 c -3.80,0.04 -7.95,1.24 -12.44,5.02 L 56.00,43.34 V 66 H 96 136.00 V 43.34 L 109.20,23.02 C 104.40,18.99 100.01,17.90 96,18.01 c 0.25,0.01 0.50,0.01 0.76,0.01 z M 96,34.00 a 8.00,8.00 0 0 1 8.00,8.00 A 8.00,8.00 0 0 1 96,50.00 8.00,8.00 0 0 1 88.00,42.00 8.00,8.00 0 0 1 96,34.00 Z"/>
  <path style="fill:#b5b5b5" d="m 95.24,16.00 c -3.80,0.04 -7.95,1.24 -12.44,5.02 L 56.00,41.34 V 64.00 H 96 136.00 V 41.34 L 109.20,21.02 C 104.40,16.99 100.01,15.90 96,16.01 c 0.25,0.01 0.50,0.01 0.76,0.01 z M 96,32.00 A 8.00,8.00 0 0 1 104.00,40.00 8.00,8.00 0 0 1 96,48.00 8.00,8.00 0 0 1 88.00,40.00 8.00,8.00 0 0 1 96,32.00 Z"/>
  <rect style="fill:#b5b5b5" width="48.00" height="8.00" x="72.00" y="80.00"/>
  <rect style="fill:#b5b5b5" width="48.00" height="8.00" x="72.00" y="96.00"/>
  <rect style="fill:#b5b5b5" width="48.00" height="8.00" x="72.00" y="112.00"/>
  <rect style="fill:#b5b5b5" width="28.00" height="8.00" x="72.00" y="128.00"/>
  <path style="opacity:0.20;fill:#ffffff" d="M 95.24 16 C 91.44 16.04 87.30 17.24 82.80 21.02 L 56 41.34 L 56 42.34 L 82.80 22.02 C 87.30 18.24 91.44 17.04 95.24 17 C 95.50 17.00 95.75 17.00 96 17.01 C 100.01 16.90 104.40 17.99 109.20 22.02 L 136 42.34 L 136 41.34 L 109.20 21.02 C 104.40 16.99 100.01 15.90 96 16.01 C 95.75 16.00 95.50 16.00 95.24 16.00 L 95.24 16 z M 88.27 42 A 8.00 8.00 0 0 0 88 44 A 8.00 8.00 0 0 0 88.07 44.50 A 8.00 8.00 0 0 1 88.27 43 A 8.00 8.00 0 0 0 96 49 A 8.00 8.00 0 0 0 103.73 43 A 8.00 8.00 0 0 1 103.93 44.50 A 8.00 8.00 0 0 0 104 44 A 8.00 8.00 0 0 0 103.73 42 A 8.00 8.00 0 0 1 96 48 A 8.00 8.00 0 0 1 88.27 42 z "/>
</svg>
