<?xml version='1.0' encoding='utf-8'?>
<svg xmlns="http://www.w3.org/2000/svg" width="192" height="192" version="1" id="svg30">
  <defs>
    <filter style="color-interpolation-filters:sRGB" id="filter895" x="0.05" width="1.10" y="0.05" height="1.09">
      <feGaussianBlur stdDeviation="2.68"/>
    </filter>
    <filter style="color-interpolation-filters:sRGB" id="filter901" x="0.05" width="1.10" y="0.04" height="1.09">
      <feGaussianBlur stdDeviation="2.24"/>
    </filter>
  </defs>
  <rect style="filter:url(#filter895);opacity:0.20" width="128" height="140" x="32" y="40" rx="12.68" ry="12.46"/>
  <path style="fill:#989898" d="M 96,12 A 16,16 0 0 0 80,28 16,16 0 0 0 96,44 16,16 0 0 0 112,28 16,16 0 0 0 96,12 Z m 0,8 a 8,8 0 0 1 8,8 8,8 0 0 1 -8,8 8,8 0 0 1 -8,-8 8,8 0 0 1 8,-8 z"/>
  <rect style="fill:#c48f61" width="128" height="140" x="32" y="36" rx="12.68" ry="12.46"/>
  <path style="opacity:0.10;fill:#ffffff" d="M 44.69 36 C 37.66 36 32 41.56 32 48.46 L 32 49.46 C 32 42.56 37.66 37 44.69 37 L 147.31 37 C 154.34 37 160 42.56 160 49.46 L 160 48.46 C 160 41.56 154.34 36 147.31 36 L 44.69 36 z "/>
  <rect style="filter:url(#filter901);opacity:0.20" width="104" height="120" x="44" y="48"/>
  <rect style="fill:#ffffff" width="104" height="120" x="44" y="44"/>
  <path style="fill:#989898" d="M 69.34,28 C 66.38,28 64,30.55 64,33.71 V 42.29 48 h 64 V 42.29 33.71 C 128,30.55 125.62,28 122.66,28 H 104 a 8,8 0 0 1 -8,8 8,8 0 0 1 -8,-8 z"/>
  <path style="fill:none;stroke:#5f5f5f;stroke-width:12;stroke-linecap:round" d="m 61.68,106.00 8.43,6.03 L 82,97.99"/>
  <path style="fill:none;stroke:#c8c8c8;stroke-width:12;stroke-linecap:round" d="m 102,70.00 h 31.60"/>
  <path style="fill:none;stroke:#5f5f5f;stroke-width:12;stroke-linecap:round" d="m 61.68,70.00 8.43,6.03 11.89,-14.04"/>
  <path style="fill:none;stroke:#5f5f5f;stroke-width:12;stroke-linecap:round" d="m 61.68,142.00 8.43,6.03 11.89,-14.04"/>
  <path style="fill:none;stroke:#c8c8c8;stroke-width:12;stroke-linecap:round" d="m 102,106.00 h 31.60"/>
  <path style="fill:none;stroke:#c8c8c8;stroke-width:12;stroke-linecap:round" d="m 102,142.00 h 31.60"/>
  <path style="opacity:0.10;fill:#ffffff" d="M 96 12 A 16 16 0 0 0 80 28 L 69.34 28 C 66.38 28 64 30.55 64 33.71 L 64 34.71 C 64 31.55 66.38 29 69.34 29 L 80 29 A 16 16 0 0 1 96 13 A 16 16 0 0 1 112 29 L 122.66 29 C 125.62 29 128 31.55 128 34.71 L 128 33.71 C 128 30.55 125.62 28 122.66 28 L 112 28 A 16 16 0 0 0 96 12 z M 103.74 29.98 A 8 8 0 0 1 96 36 A 8 8 0 0 1 88.26 30.02 A 8 8 0 0 0 88 32 A 8 8 0 0 0 88.02 32.52 A 8 8 0 0 1 88.26 31.02 A 8 8 0 0 0 96 37 A 8 8 0 0 0 103.74 30.98 A 8 8 0 0 1 103.98 32.49 A 8 8 0 0 0 104 32 A 8 8 0 0 0 103.74 29.98 z "/>
</svg>
