<?xml version='1.0' encoding='utf-8'?>
<svg xmlns="http://www.w3.org/2000/svg" width="192" height="192" version="1.1" id="svg24">
  <defs>
    <filter style="color-interpolation-filters:sRGB" id="filter890" x="-0.054000002" width="1.108" y="-0.043200002" height="1.0864">
      <feGaussianBlur stdDeviation="2.88"/>
    </filter>
    <filter style="color-interpolation-filters:sRGB" id="filter894" x="-0.108" width="1.216" y="-0.030857144" height="1.0617143">
      <feGaussianBlur stdDeviation="1.44"/>
    </filter>
  </defs>
  <path style="filter:url(#filter890);opacity:0.2;fill:#000000" d="m 44,20 c -6.648,0 -12,5.352 -12,12 v 16 12 20 12 4 12 32 28 c 0,6.648 5.352,12 12,12 h 104 c 6.648,0 12,-5.352 12,-12 V 136 108 96 92 80 60 48 32 c 0,-6.648 -5.352,-12 -12,-12 z"/>
  <path style="fill:#1565c0" d="M 44,16 C 37.352,16 32,21.352 32,28 V 44 56 88 H 160 V 56 44 28 c 0,-6.648 -5.352,-12 -12,-12 z"/>
  <path style="fill:#1e88e5" d="m 44,64 c -6.648,0 -12,5.352 -12,12 v 16 12 32 H 160 V 104 92 76 c 0,-6.648 -5.352,-12 -12,-12 z"/>
  <rect style="fill:#42a5f5" width="128" height="56" x="32" y="120" rx="12" ry="12"/>
  <path style="filter:url(#filter894);opacity:0.2" d="m 84,42 c -2.216,0 -4,1.784 -4,4 0,2.216 1.784,4 4,4 h 24 c 2.216,0 4,-1.784 4,-4 0,-2.216 -1.784,-4 -4,-4 z m 0,48 c -2.216,0 -4,1.784 -4,4 0,2.216 1.784,4 4,4 h 24 c 2.216,0 4,-1.784 4,-4 0,-2.216 -1.784,-4 -4,-4 z m 0,56 c -2.216,0 -4,1.784 -4,4 0,2.216 1.784,4 4,4 h 24 c 2.216,0 4,-1.784 4,-4 0,-2.216 -1.784,-4 -4,-4 z"/>
  <rect style="fill:#ffffff" width="32" height="8" x="80" y="40" rx="4" ry="4"/>
  <rect style="fill:#ffffff" width="32" height="8" x="80" y="88" rx="4" ry="4"/>
  <rect style="fill:#ffffff" width="32" height="8" x="80" y="144" rx="4" ry="4"/>
  <path style="opacity:0.1;fill:#ffffff" d="M 44 16 C 37.352 16 32 21.352 32 28 L 32 29 C 32 22.352 37.352 17 44 17 L 148 17 C 154.648 17 160 22.352 160 29 L 160 28 C 160 21.352 154.648 16 148 16 L 44 16 z "/>
  <path style="opacity:0.1;fill:#ffffff" d="M 44 64 C 37.352 64 32 69.352 32 76 L 32 77 C 32 70.352 37.352 65 44 65 L 148 65 C 154.648 65 160 70.352 160 77 L 160 76 C 160 69.352 154.648 64 148 64 L 44 64 z "/>
  <path style="opacity:0.2;fill:#ffffff" d="M 44 120 C 37.352 120 32 125.352 32 132 L 32 133 C 32 126.352 37.352 121 44 121 L 148 121 C 154.648 121 160 126.352 160 133 L 160 132 C 160 125.352 154.648 120 148 120 L 44 120 z "/>
</svg>
