<?xml version='1.0' encoding='utf-8'?>
<svg xmlns="http://www.w3.org/2000/svg" width="192" height="192" version="1" id="svg12">
  <defs>
    <filter style="color-interpolation-filters:sRGB" id="filter961" x="-0.048000001" y="-0.048000001" width="1.096" height="1.096">
      <feGaussianBlur stdDeviation="3.2"/>
    </filter>
    <filter style="color-interpolation-filters:sRGB" id="filter965" x="-0.046911451" y="-0.046911452" width="1.0938229" height="1.0938229">
      <feGaussianBlur stdDeviation="1.5654143"/>
    </filter>
  </defs>
  <rect fill="#0090ef" width="160" height="160" x="16" y="20" rx="80" ry="80" style="filter:url(#filter961);opacity:0.2;fill:#000000"/>
  <rect fill="#0090ef" width="160" height="160" x="16" y="16" rx="80" ry="80"/>
  <path style="filter:url(#filter965);opacity:0.2" d="m 104,58.001067 a 32,32 0 0 0 -32,32 32,32 0 0 0 5.531248,17.984373 l -19.773436,19.77344 a 6.0006,6.0006 0 1 0 8.484376,8.48437 L 86.039064,116.44638 A 32,32 0 0 0 104,122.00107 a 32,32 0 0 0 32,-32.000003 32,32 0 0 0 -32,-32 z m 0,12 a 20,20 0 0 1 20,20 20,20 0 0 1 -20,20.000003 20,20 0 0 1 -20,-20.000003 20,20 0 0 1 20,-20 z"/>
  <path style="fill:#ffffff" d="m 104,56 a 32,32 0 0 0 -32,32 32,32 0 0 0 5.531248,17.98438 l -19.773436,19.77343 a 6.0006,6.0006 0 1 0 8.484376,8.48438 L 86.039064,114.44531 A 32,32 0 0 0 104,120 32,32 0 0 0 136,88 32,32 0 0 0 104,56 Z m 0,12 a 20,20 0 0 1 20,20 20,20 0 0 1 -20,20 20,20 0 0 1 -20,-20 20,20 0 0 1 20,-20 z"/>
  <path style="opacity:0.2;fill:#ffffff" d="M 96 16 C 51.684 16 16.007812 51.68 16.007812 96 C 16.007812 96.33544 16.009812 96.667215 16.007812 97 C 16.007812 52.68 51.684 17 96 17 C 140.316 17 175.99219 52.68 175.99219 97 C 175.99019 96.667215 175.99219 96.33544 175.99219 96 C 175.99219 51.68 140.316 16 96 16 z "/>
</svg>
