<?xml version='1.0' encoding='utf-8'?>
<svg xmlns="http://www.w3.org/2000/svg" width="192" height="192" version="1" id="svg8">
  <defs>
    <filter style="color-interpolation-filters:sRGB" id="filter849" x="-0.048000001" width="1.096" y="-0.048000001" height="1.096">
      <feGaussianBlur stdDeviation="3.2"/>
    </filter>
  </defs>
  <path style="filter:url(#filter849);opacity:0.2" d="m 68,20 c -3.324,0 -7.58,3.588 -8,8 V 88 H 24 l 72,68 72,-68 H 132 V 28 c 0,-4.432 -4.676,-8 -8,-8 z M 24,164 c -4.432,0 -8,3.568 -8,8 0,4.432 3.568,8 8,8 h 144 c 4.432,0 8,-3.568 8,-8 0,-4.432 -3.568,-8 -8,-8 z"/>
  <path style="fill:#358de7" d="m 68,16 c -3.324,0 -7.58,3.588 -8,8 V 84 H 24 l 72,68 72,-68 H 132 V 24 c 0,-4.432 -4.676,-8 -8,-8 z M 24,160 c -4.432,0 -8,3.568 -8,8 0,4.432 3.568,8 8,8 h 144 c 4.432,0 8,-3.568 8,-8 0,-4.432 -3.568,-8 -8,-8 z"/>
  <path style="opacity:0.2;fill:#ffffff" d="M 68 16 C 64.676 16 60.42 19.588 60 24 L 60 25 C 60.42 20.588 64.676 17 68 17 L 124 17 C 127.324 17 132 20.568 132 25 L 132 24 C 132 19.568 127.324 16 124 16 L 68 16 z M 24 84 L 25.058594 85 L 60 85 L 60 84 L 24 84 z M 132 84 L 132 85 L 166.94141 85 L 168 84 L 132 84 z M 24 160 C 19.568 160 16 163.568 16 168 C 16 168.13464 16.021098 168.26244 16.029297 168.39453 C 16.337789 164.24849 19.772436 161 24 161 L 168 161 C 172.22756 161 175.66221 164.24849 175.9707 168.39453 C 175.97889 168.26244 176 168.13464 176 168 C 176 163.568 172.432 160 168 160 L 24 160 z "/>
</svg>
