<?xml version='1.0' encoding='utf-8'?>
<svg xmlns="http://www.w3.org/2000/svg" width="192" height="192" version="1" id="svg34">
  <defs>
    <filter style="color-interpolation-filters:sRGB" id="filter874" x="0.05" width="1.10" y="0.05" height="1.10">
      <feGaussianBlur stdDeviation="0.96"/>
    </filter>
    <filter style="color-interpolation-filters:sRGB" id="filter890" x="0.04" width="1.07" y="0.07" height="1.14">
      <feGaussianBlur stdDeviation="1.32"/>
    </filter>
    <filter style="color-interpolation-filters:sRGB" id="filter906" x="0.05" width="1.10" y="0.05" height="1.10">
      <feGaussianBlur stdDeviation="0.32"/>
    </filter>
    <filter style="color-interpolation-filters:sRGB" id="filter922" x="0.03" width="1.06" y="0.13" height="1.25">
      <feGaussianBlur stdDeviation="1.05"/>
    </filter>
    <filter style="color-interpolation-filters:sRGB" id="filter950" x="0.03" width="1.06" y="0.15" height="1.29">
      <feGaussianBlur stdDeviation="1.23"/>
    </filter>
    <filter style="color-interpolation-filters:sRGB" id="filter970" x="0.03" width="1.06" y="0.17" height="1.34">
      <feGaussianBlur stdDeviation="1.40"/>
    </filter>
  </defs>
  <path d="m 72,130 v 44 c 0,2.22 1.78,4 4,4 h 40 c 2.22,0 4,-1.78 4,-4 v -44 z" style="filter:url(#filter874);opacity:0.20;fill-rule:evenodd"/>
  <path d="M 54.66,58 64,78 h 68 l 8,-20 z" style="filter:url(#filter922);opacity:0.10;fill-rule:evenodd"/>
  <path d="m 72,128 v 44 c 0,2.22 1.78,4 4,4 h 40 c 2.22,0 4,-1.78 4,-4 v -44 z" style="fill:#4f4f4f;fill-rule:evenodd"/>
  <path d="M 61.78,88 C 56.36,88 52,91.57 52,96 v 16 c 0,13.27 16.56,10.07 20,20 h 48 c 3.35,-11.07 20,-9.96 20,-20 V 96 c 0,-4.43 -4.36,-8 -9.78,-8 z" style="filter:url(#filter890);opacity:0.20;fill-rule:evenodd"/>
  <path d="M 61.78,84 C 56.36,84 52,87.57 52,92 v 16 c 0,13.27 16.56,10.07 20,20 h 48 c 3.35,-11.07 20,-9.96 20,-20 V 92 c 0,-4.43 -4.36,-8 -9.78,-8 z" style="fill:#8e8e8e;fill-rule:evenodd"/>
  <rect ry="8" rx="8" y="136" x="88" height="32" width="16" style="opacity:0.30"/>
  <circle r="8" cy="146" cx="96" style="filter:url(#filter906);opacity:0.10"/>
  <circle r="8" cy="144" cx="96" style="fill:#f9f9f9"/>
  <path d="M 54.66,56 64,76 h 68 l 8,-20 z" style="fill:#f29100;fill-rule:evenodd"/>
  <path d="m 45.34,38 9.33,20 H 140 l 8,-20 z" style="filter:url(#filter950);opacity:0.10;fill-rule:evenodd"/>
  <path d="m 45.34,36 9.33,20 H 140 l 8,-20 z" style="fill:#ffba0b;fill-rule:evenodd"/>
  <path d="m 36,18 9.34,20 H 148 l 8,-20 z" style="filter:url(#filter970);opacity:0.10;fill-rule:evenodd"/>
  <path d="m 36,16 9.34,20 H 148 l 8,-20 z" style="fill:#ffdc48;fill-rule:evenodd"/>
  <path style="opacity:0.20;fill:#ffffff;fill-rule:evenodd" d="M 36 16 L 36.47 17 L 155.60 17 L 156 16 L 36 16 z "/>
  <path style="opacity:0.10;fill:#ffffff;fill-rule:evenodd" d="M 61.78 84 C 56.36 84 52 87.57 52 92 L 52 93 C 52 88.57 56.36 85 61.78 85 L 130.22 85 C 135.64 85 140 88.57 140 93 L 140 92 C 140 87.57 135.64 84 130.22 84 L 61.78 84 z "/>
</svg>
