<?xml version='1.0' encoding='utf-8'?>
<svg xmlns="http://www.w3.org/2000/svg" width="192" height="192" version="1" id="svg28">
  <defs>
    <filter style="color-interpolation-filters:sRGB" id="filter895" x="-0.048000001" width="1.096" y="-0.048000001" height="1.096">
      <feGaussianBlur stdDeviation="3.2"/>
    </filter>
    <filter style="color-interpolation-filters:sRGB" id="filter911" x="-0.048" width="1.096" y="-0.048" height="1.096">
      <feGaussianBlur stdDeviation="2.24"/>
    </filter>
  </defs>
  <path style="filter:url(#filter895);opacity:0.2" d="M 96,20 A 80,80 0 0 0 53.960936,32 H 44 C 35.136,32 28,39.136 28,48 V 58.054688 A 80,80 0 0 0 16,100 80,80 0 0 0 28,142.03906 V 152 C 28,160.864 35.136,168 44,168 H 54.054688 A 80,80 0 0 0 96,180 80,80 0 0 0 138.03906,168 H 148 C 156.864,168 164,160.864 164,152 V 141.94531 A 80,80 0 0 0 176,100 80,80 0 0 0 164,57.960936 V 48 C 164,39.136 156.864,32 148,32 H 137.94531 A 80,80 0 0 0 96,20 Z"/>
  <circle style="fill:#b2d1e9" cx="96" cy="96" r="80"/>
  <rect style="fill:#b2d1e9" width="136" height="136" x="28" y="28" rx="16" ry="16"/>
  <circle style="fill:#4f4f4f" cx="96" cy="96" r="68"/>
  <circle style="filter:url(#filter911);opacity:0.2" cx="96" cy="100" r="56"/>
  <circle style="fill:#ffcf24" cx="96" cy="96" r="56"/>
  <circle style="fill:#4f4f4f" cx="42" cy="42" r="6"/>
  <circle style="fill:#4f4f4f" cx="96" cy="96" r="20"/>
  <path style="opacity:0.2;fill:#ffffff" d="M 96 16 A 80 80 0 0 0 53.960938 28 L 44 28 C 35.136 28 28 35.136 28 44 L 28 45 C 28 36.136 35.136 29 44 29 L 53.960938 29 A 80 80 0 0 1 96 17 A 80 80 0 0 1 137.94531 29 L 148 29 C 156.864 29 164 36.136 164 45 L 164 44 C 164 35.136 156.864 28 148 28 L 137.94531 28 A 80 80 0 0 0 96 16 z M 164 53.960938 L 164 54.960938 A 80 80 0 0 1 175.98242 96.652344 A 80 80 0 0 0 176 96 A 80 80 0 0 0 164 53.960938 z M 28 54.054688 A 80 80 0 0 0 16 96 A 80 80 0 0 0 16.017578 96.365234 A 80 80 0 0 1 28 55.054688 L 28 54.054688 z "/>
  <circle style="fill:#4f4f4f" cx="150" cy="42" r="6"/>
  <circle style="fill:#4f4f4f" cx="42" cy="154" r="6"/>
  <circle style="fill:#4f4f4f" cx="150" cy="154" r="6"/>
  <path style="opacity:0.2;fill:#ffffff" d="M 96 40 A 56 56 0 0 0 40 96 A 56 56 0 0 0 40.017578 96.492188 A 56 56 0 0 1 96 41 A 56 56 0 0 1 151.97461 96.490234 A 56 56 0 0 0 152 96 A 56 56 0 0 0 96 40 z "/>
</svg>
