<svg xmlns="http://www.w3.org/2000/svg" id="svg24" width="192" height="192" version="1"><defs><filter style="color-interpolation-filters:sRGB" id="filter868" width="1.1" height="1.1" x=".05" y=".05"><feGaussianBlur stdDeviation="3.2"/></filter><filter style="color-interpolation-filters:sRGB" id="filter896" width="1.1" height="1.1" x=".05" y=".05"><feGaussianBlur stdDeviation="2.4"/></filter><filter style="color-interpolation-filters:sRGB" id="filter912" width="1.1" height="1.1" x=".05" y=".05"><feGaussianBlur stdDeviation=".28"/></filter></defs><circle style="filter:url(#filter868);opacity:.2;fill:#000" cx="96" cy="100" r="80"/><circle cx="96" cy="96" r="80" style="fill:#e65a2f"/><rect width="120" height="120" x="-160" y="-156" rx="60" ry="60" transform="matrix(0,-1,-1,0,0,0)" style="filter:url(#filter896);opacity:.2"/><rect width="120" height="120" x="-156" y="-156" rx="60" ry="60" transform="matrix(0,-1,-1,0,0,0)" style="fill:#ff9907"/><path style="opacity:.2;fill:#fff" d="M 96 36 C 62.76 36 36 62.76 36 96 C 36 96.11 36.01 96.21 36.02 96.32 C 36.38 63.40 62.99 37 96 37 C 129.02 37 155.63 63.41 155.98 96.35 C 155.99 96.23 156 96.12 156 96 C 156 62.76 129.24 36 96 36 z"/><g transform="matrix(4,0,0,4,-1876,-662)" style="filter:url(#filter912);opacity:.2;enable-background:new"><path d="m 489,183 v 8.19 c 0.32,0.12 0.64,0.19 -1,0.19 -1.66,0 -3,1.34 -3,3 0,1.66 1.34,3 3,3 1.66,0 3,-1.34 3,-3 v -7 h 6 v 4.19 c 0.32,0.12 0.64,0.19 -1,0.19 -1.66,0 -3,1.34 -3,3 0,1.66 1.34,3 3,3 1.66,0 3,-1.34 3,-3 v -11 h -1 z"/></g><g style="fill:#fff;enable-background:new"><path d="m 489,183 v 8.19 c 0.32,0.12 0.64,0.19 -1,0.19 -1.66,0 -3,1.34 -3,3 0,1.66 1.34,3 3,3 1.66,0 3,-1.34 3,-3 v -7 h 6 v 4.19 c 0.32,0.12 0.64,0.19 -1,0.19 -1.66,0 -3,1.34 -3,3 0,1.66 1.34,3 3,3 1.66,0 3,-1.34 3,-3 v -11 h -1 z" transform="matrix(4,0,0,4,-1876,-664)" style="fill:#fff"/></g><path style="opacity:.2;fill:#fff" d="M 96 16 A 80 80 0 0 0 16 96 A 80 80 0 0 0 16.02 96.47 A 80 80 0 0 1 96 17 A 80 80 0 0 1 175.97 96.51 A 80 80 0 0 0 176 96 A 80 80 0 0 0 96 16 z"/></svg>