<?xml version='1.0' encoding='utf-8'?>
<svg xmlns="http://www.w3.org/2000/svg" width="192" height="192" version="1.1" id="svg28">
  <defs>
    <filter style="color-interpolation-filters:sRGB" id="filter874" x="-0.048000001" width="1.096" y="-0.048000001" height="1.096">
      <feGaussianBlur stdDeviation="3.2"/>
    </filter>
    <filter style="color-interpolation-filters:sRGB" id="filter8133" x="-0.075" y="-0.075" width="1.15" height="1.15">
      <feGaussianBlur stdDeviation="1.75"/>
    </filter>
  </defs>
  <path d="m 96,20 c -44.141228,0 -80,35.85876 -80,80 0,44.14124 35.858772,80.00001 80,80 44.14123,0 80.00004,-35.85876 80,-80 0,-44.14124 -35.85877,-80 -80,-80 z" style="filter:url(#filter874);opacity:0.2"/>
  <path d="M 96,16.000002 C 51.858772,16.000002 16,51.85876 16,96 c 0,44.14124 35.858772,80.00001 80,80 44.14123,0 80.00004,-35.85876 80,-80 0,-44.14124 -35.85877,-79.999998 -80,-79.999998 z" style="fill:#e4e4e4"/>
  <path style="fill:none;stroke:#ec4646;stroke-width:4" d="M 96,96 61.065406,130.78879"/>
  <path style="opacity:0.1;fill:#ffffff" d="M 96 16 C 51.858772 16 16 51.85876 16 96 C 16 96.117346 16.005349 96.233006 16.007812 96.349609 C 16.358771 52.507744 52.076264 17 96 17 C 139.92374 17 175.64123 52.507744 175.99219 96.349609 C 175.99465 96.233006 176 96.117349 176 96 C 176 51.85876 140.14123 16 96 16 z "/>
  <path style="opacity:0.3;fill:#000000" d="M 96 34 A 3 3 0 0 0 93 37 A 3 3 0 0 0 96 40 A 3 3 0 0 0 99 37 A 3 3 0 0 0 96 34 z M 54.066406 51.289062 A 3 3 0 0 0 52.160156 52.160156 A 3 3 0 0 0 52.160156 56.402344 A 3 3 0 0 0 56.402344 56.402344 A 3 3 0 0 0 56.402344 52.160156 A 3 3 0 0 0 54.066406 51.289062 z M 137.50586 51.289062 A 3 3 0 0 0 135.59766 52.160156 A 3 3 0 0 0 135.59766 56.402344 A 3 3 0 0 0 139.83984 56.402344 A 3 3 0 0 0 139.83984 52.160156 A 3 3 0 0 0 137.50586 51.289062 z M 37 93 A 3 3 0 0 0 34 96 A 3 3 0 0 0 37 99 A 3 3 0 0 0 40 96 A 3 3 0 0 0 37 93 z M 155 93 A 3 3 0 0 0 152 96 A 3 3 0 0 0 155 99 A 3 3 0 0 0 158 96 A 3 3 0 0 0 155 93 z M 54.066406 134.72656 A 3 3 0 0 0 52.160156 135.59766 A 3 3 0 0 0 52.160156 139.83984 A 3 3 0 0 0 56.402344 139.83984 A 3 3 0 0 0 56.402344 135.59766 A 3 3 0 0 0 54.066406 134.72656 z M 137.50586 134.72656 A 3 3 0 0 0 135.59766 135.59766 A 3 3 0 0 0 135.59766 139.83984 A 3 3 0 0 0 139.83984 139.83984 A 3 3 0 0 0 139.83984 135.59766 A 3 3 0 0 0 137.50586 134.72656 z M 96 152 A 3 -3 0 0 0 93 155 A 3 -3 0 0 0 96 158 A 3 -3 0 0 0 99 155 A 3 -3 0 0 0 96 152 z "/>
  <path style="filter:url(#filter8133);opacity:0.2;fill:#000000;color:#000000" d="m 96,48 a 6,6 0 0 0 -6,6 v 44 a 6,6 0 0 0 6,6 h 44 a 6,6 0 0 0 6,-6 6,6 0 0 0 -6,-6 H 102 V 54 a 6,6 0 0 0 -6,-6 z"/>
  <path d="m 96,96 h 44" style="fill:none;stroke:#0ea962;stroke-width:12;stroke-linecap:round;stroke-linejoin:round"/>
  <path d="M 96,52 V 96" style="fill:none;stroke:#0ea962;stroke-width:12;stroke-linecap:round;stroke-linejoin:round"/>
</svg>
