<svg xmlns="http://www.w3.org/2000/svg" id="svg20" width="192" height="192" version="1"><defs><filter style="color-interpolation-filters:sRGB" id="filter857" width="1.1" height="1.1" x=".05" y=".05"><feGaussianBlur stdDeviation="3.2"/></filter><filter style="color-interpolation-filters:sRGB" id="filter877" width="1.1" height="1.1" x=".05" y=".05"><feGaussianBlur stdDeviation="1.44"/></filter><filter style="color-interpolation-filters:sRGB" id="filter893" width="1.1" height="1.1" x=".05" y=".05"><feGaussianBlur stdDeviation=".96"/></filter></defs><rect width="160" height="160" x="-180" y="-176" rx="80" ry="80" transform="matrix(0,-1,-1,0,0,0)" style="filter:url(#filter857);opacity:.2"/><rect width="160" height="160" x="-176" y="-176" rx="80" ry="80" transform="matrix(0,-1,-1,0,0,0)" style="fill:#4f4f4f"/><circle cx="96" cy="96" r="48" style="opacity:.4;fill:#000"/><circle cx="96" cy="-98" r="36" transform="scale(1,-1)" style="filter:url(#filter877);opacity:.2"/><circle cx="96" cy="-96" r="36" transform="scale(1,-1)" style="fill:#ba174e"/><path style="opacity:.1;fill:#fff" d="M 96 16 C 51.68 16 16 51.68 16 96 C 16 96.12 16.01 96.23 16.01 96.35 C 16.36 52.33 51.90 17 96 17 C 140.10 17 175.64 52.33 175.99 96.35 C 175.99 96.23 176 96.12 176 96 C 176 51.68 140.32 16 96 16 z"/><circle cx="96" cy="98" r="24" style="filter:url(#filter893);opacity:.2"/><circle cx="96" cy="96" r="24" style="fill:#d67495"/><path style="opacity:.2;fill:#fff" d="M 96 72 A 24 24 0 0 0 72 96 A 24 24 0 0 0 72.02 96.58 A 24 24 0 0 1 96 73 A 24 24 0 0 1 119.98 96.42 A 24 24 0 0 0 120 96 A 24 24 0 0 0 96 72 z"/></svg>