<?xml version='1.0' encoding='utf-8'?>
<svg xmlns="http://www.w3.org/2000/svg" width="192" height="192" version="1" id="svg22">
  <defs>
    <filter style="color-interpolation-filters:sRGB" id="filter856" x="0.05" width="1.09" y="0.05" height="1.10">
      <feGaussianBlur stdDeviation="2.87"/>
    </filter>
    <filter style="color-interpolation-filters:sRGB" id="filter872" x="0.06" width="1.12" y="0.04" height="1.08">
      <feGaussianBlur stdDeviation="1.04"/>
    </filter>
    <filter style="color-interpolation-filters:sRGB" id="filter888" x="0.05" width="1.09" y="0.05" height="1.10">
      <feGaussianBlur stdDeviation="1.57"/>
    </filter>
  </defs>
  <rect ry="16" rx="16" y="116" x="76" height="64" width="40" style="filter:url(#filter872);opacity:0.20"/>
  <path d="m 92,20.00 c -8.86,0 -16,7.14 -16,16 v 7.50 A 60,60 0 0 0 57.08,54.43 l -6.50,-3.75 C 42.90,46.25 33.15,48.86 28.72,56.54 l -4,6.92 c -4.43,7.68 -1.82,17.43 5.86,21.86 l 6.47,3.73 A 60,60 0 0 0 36,100.00 a 60,60 0 0 0 1.05,10.95 l -6.47,3.73 c -7.68,4.43 -10.29,14.18 -5.86,21.86 l 4,6.92 c 4.43,7.68 14.18,10.29 21.86,5.86 l 6.45,-3.73 A 60,60 0 0 0 96,160.00 60,60 0 0 0 134.92,145.57 l 6.50,3.75 c 7.68,4.43 17.43,1.82 21.86,-5.86 l 4,-6.92 c 4.43,-7.68 1.82,-17.43 -5.86,-21.86 l -6.47,-3.73 A 60,60 0 0 0 156,100.00 60,60 0 0 0 154.95,89.05 l 6.47,-3.73 c 7.68,-4.43 10.29,-14.18 5.86,-21.86 l -4,-6.92 c -4.43,-7.68 -14.18,-10.29 -21.86,-5.86 l -6.45,3.73 A 60,60 0 0 0 116,43.51 v -7.51 c 0,-8.86 -7.14,-16 -16,-16 z" style="filter:url(#filter856);opacity:0.20"/>
  <path d="m 92,16 c -8.86,0 -16,7.14 -16,16 v 7.50 A 60,60 0 0 0 57.08,50.43 l -6.50,-3.75 c -7.68,-4.43 -17.43,-1.82 -21.86,5.86 l -4,6.92 c -4.43,7.68 -1.82,17.43 5.86,21.86 l 6.47,3.73 A 60,60 0 0 0 36,96 a 60,60 0 0 0 1.05,10.95 l -6.47,3.73 c -7.68,4.43 -10.29,14.18 -5.86,21.86 l 4,6.92 c 4.43,7.68 14.18,10.29 21.86,5.86 l 6.45,-3.73 A 60,60 0 0 0 96,156 60,60 0 0 0 134.92,141.57 l 6.50,3.75 c 7.68,4.43 17.43,1.82 21.86,-5.86 l 4,-6.92 c 4.43,-7.68 1.82,-17.43 -5.86,-21.86 l -6.47,-3.73 A 60,60 0 0 0 156,96 60,60 0 0 0 154.95,85.05 l 6.47,-3.73 c 7.68,-4.43 10.29,-14.18 5.86,-21.86 l -4,-6.92 c -4.43,-7.68 -14.18,-10.29 -21.86,-5.86 l -6.45,3.73 A 60,60 0 0 0 116,39.51 V 32 c 0,-8.86 -7.14,-16 -16,-16 z" style="fill:#077c6f"/>
  <rect ry="16" rx="16" y="112" x="76" height="64" width="40" style="fill:#e4e4e4"/>
  <rect ry="8" rx="8" y="120" x="88" height="48" width="16" style="opacity:0.40"/>
  <path d="M 112,63.36 V 100 l -16,8 -16,-8 V 63.39 A 40,40 0 0 0 56,100 40,40 0 0 0 96,140 40,40 0 0 0 136,100 40,40 0 0 0 112,63.36 Z" style="filter:url(#filter888);opacity:0.20"/>
  <path d="m 112,59.36 v 28.64 l -16,12 -16,-12 V 59.39 C 65.44,65.75 56.02,80.11 56,96.00 56,118.09 73.91,136 96,136 c 22.09,0 40,-17.91 40,-40.00 0.01,-15.90 -9.43,-30.28 -24,-36.64 z" style="fill:#ffffff"/>
  <path d="m 112,59.36 v 4 c 13.86,6.05 23.05,19.37 23.91,34.34 C 135.94,97.13 136,96.58 136,96.00 135.99,80.10 126.57,65.72 112,59.36 Z m -32,0.03 C 65.44,65.75 56.02,80.11 56,96.00 c 0,0.58 0.06,1.13 0.09,1.70 C 56.96,82.74 66.15,69.44 80,63.39 v -4 z m 0,28.61 v 4 l 16,12.00 16,-12.00 v -4 l -16,12 z" style="opacity:0.10;fill:#ffffff"/>
  <path style="opacity:0.10;fill:#ffffff" d="M 92 16 C 83.14 16 76 23.14 76 32 L 76 33 C 76 24.14 83.14 17 92 17 L 100 17 C 108.86 17 116 24.14 116 33 L 116 32 C 116 23.14 108.86 16 100 16 L 92 16 z M 76 39.50 A 60 60 0 0 0 57.08 50.43 L 50.58 46.68 C 42.90 42.25 33.15 44.86 28.72 52.54 L 24.72 59.46 C 23.17 62.15 22.51 65.09 22.60 67.97 C 22.68 65.42 23.35 62.84 24.72 60.46 L 28.72 53.54 C 33.15 45.86 42.90 43.25 50.58 47.68 L 57.08 51.43 A 60 60 0 0 1 76 40.50 L 76 39.50 z M 116 39.51 L 116 40.51 A 60 60 0 0 1 134.97 51.41 L 141.42 47.68 C 149.10 43.25 158.85 45.86 163.28 53.54 L 167.28 60.46 C 168.65 62.84 169.32 65.42 169.40 67.97 C 169.49 65.09 168.83 62.15 167.28 59.46 L 163.28 52.54 C 158.85 44.86 149.10 42.25 141.42 46.68 L 134.97 50.41 A 60 60 0 0 0 116 39.51 z M 155.23 86.90 L 154.95 87.05 A 60 60 0 0 1 155.08 87.98 L 155.23 87.90 A 60 60 0 0 1 155.97 96.58 A 60 60 0 0 0 156 96 A 60 60 0 0 0 155.23 86.90 z M 36.79 86.91 A 60 60 0 0 0 36 96 A 60 60 0 0 0 36.02 96.42 A 60 60 0 0 1 36.79 87.91 L 36.91 87.97 A 60 60 0 0 1 37.05 87.05 L 36.79 86.91 z M 155.21 107.09 A 60 60 0 0 1 154.95 108.95 L 155.08 109.02 A 60 60 0 0 0 155.21 108.09 L 161.42 111.68 C 166.39 114.55 169.18 119.66 169.35 124.98 C 169.51 119.30 166.71 113.73 161.42 110.68 L 155.21 107.09 z M 36.77 107.10 L 30.58 110.68 C 25.29 113.73 22.49 119.30 22.65 124.98 C 22.82 119.66 25.61 114.55 30.58 111.68 L 36.77 108.10 A 60 60 0 0 0 36.91 109.02 L 37.05 108.95 A 60 60 0 0 1 36.77 107.10 z "/>
</svg>
