<?xml version='1.0' encoding='utf-8'?>
<svg xmlns="http://www.w3.org/2000/svg" width="192" height="192" version="1" id="svg18">
  <defs>
    <filter style="color-interpolation-filters:sRGB" id="filter855" x="0.05" width="1.09" y="0.05" height="1.10">
      <feGaussianBlur stdDeviation="3.04"/>
    </filter>
    <filter style="color-interpolation-filters:sRGB" id="filter883" x="0.04" width="1.07" y="0.07" height="1.14">
      <feGaussianBlur stdDeviation="1.44"/>
    </filter>
  </defs>
  <path style="filter:url(#filter855);opacity:0.20;fill:#000000" d="M 24.89,28 C 19.96,28 16,33.08 16,38 v 104 c 0,4.92 3.96,10 8.89,10 h 75.11 l 20,20 20,-20 h 27.11 c 4.92,0 8.89,-5.08 8.89,-10 V 38 c 0,-4.92 -3.96,-10 -8.89,-10 z"/>
  <path d="M 24.89,24 C 19.96,24 16,29.08 16,34 v 104 c 0,4.92 3.96,10 8.89,10 h 75.11 l 20,20 20,-20 h 27.11 c 4.92,0 8.89,-5.08 8.89,-10 V 34 c 0,-4.92 -3.96,-10 -8.89,-10 z" style="fill:#5dbf21"/>
  <path style="opacity:0.20;fill:#ffffff" d="M 24.89,24 C 19.97,24 16,29.08 16,34 v 1 c 0,-4.92 3.97,-10 8.89,-10 H 167.11 C 172.03,25 176,30.08 176,35 v -1 c 0,-4.92 -3.97,-10 -8.89,-10 z"/>
  <path d="m 72,66 a 8,8 0 0 0 -8,8 8,8 0 0 0 8,8 8,8 0 0 0 8,-8 8,8 0 0 0 -8,-8 z m 48,0 a 8,8 0 0 0 -8,8 8,8 0 0 0 8,8 8,8 0 0 0 8,-8 8,8 0 0 0 -8,-8 z m 19.96,23.95 a 4.00,4.00 0 0 0 -2.79,1.23 C 137.17,91.17 122.48,106 96,106 69.52,106 54.83,91.17 54.83,91.17 a 4.00,4.00 0 0 0 -2.87,-1.21 4.00,4.00 0 0 0 -2.79,6.87 C 49.17,96.83 66.48,114 96,114 c 29.52,0 46.83,-17.17 46.83,-17.17 a 4.00,4.00 0 0 0 -2.87,-6.88 z" style="filter:url(#filter883);opacity:0.20;fill-rule:evenodd"/>
  <path style="fill:#116936" d="m 72,64 a 8,8 0 0 0 -8,8 8,8 0 0 0 8,8 8,8 0 0 0 8,-8 8,8 0 0 0 -8,-8 z m 48,0 a 8,8 0 0 0 -8,8 8,8 0 0 0 8,8 8,8 0 0 0 8,-8 8,8 0 0 0 -8,-8 z M 52,88 a 4,4 0 0 0 -2.83,1.17 4,4 0 0 0 0,5.66 C 49.17,94.83 66.48,112 96,112 c 29.52,0 46.83,-17.17 46.83,-17.17 a 4,4 0 0 0 0,-5.66 4,4 0 0 0 -5.66,0 C 137.17,89.17 122.48,104 96,104 69.52,104 54.83,89.17 54.83,89.17 A 4,4 0 0 0 52,88 Z"/>
</svg>
