<?xml version='1.0' encoding='utf-8'?>
<svg xmlns="http://www.w3.org/2000/svg" width="192" height="192" version="1" id="svg12">
  <defs>
    <filter style="color-interpolation-filters:sRGB" id="filter955" x="0.05" width="1.10" y="0.05" height="1.10">
      <feGaussianBlur stdDeviation="3.20"/>
    </filter>
    <filter style="color-interpolation-filters:sRGB" id="filter1947" x="0.05" y="0.05" width="1.10" height="1.10">
      <feGaussianBlur stdDeviation="2.52"/>
    </filter>
  </defs>
  <rect style="filter:url(#filter955);opacity:0.20;fill:#000000" width="160" height="160" x="16" y="20" rx="30" ry="30"/>
  <rect style="fill:#455a64" width="160" height="160" x="16" y="16" rx="30" ry="30"/>
  <path style="filter:url(#filter1947);opacity:0.20;fill:#000000" d="m 45,36 c -6.65,0 -12,5.35 -12,12 v 32 c 0,6.65 5.35,12 12,12 h 32 c 6.65,0 12,-5.35 12,-12 V 48 C 89,41.35 83.65,36 77,36 Z m 70,0 c -6.65,0 -12,5.35 -12,12 v 32 c 0,6.65 5.35,12 12,12 h 32 c 6.65,0 12,-5.35 12,-12 V 48 c 0,-6.65 -5.35,-12 -12,-12 z m -70,70 c -6.65,0 -12,5.35 -12,12 v 32 c 0,6.65 5.35,12 12,12 h 102 c 6.65,0 12,-5.35 12,-12 v -32 c 0,-6.65 -5.35,-12 -12,-12 z"/>
  <path style="opacity:0.10;fill:#ffffff" d="M 46 16 C 29.38 16 16 29.38 16 46 L 16 47 C 16 30.38 29.38 17 46 17 L 146 17 C 162.62 17 176 30.38 176 47 L 176 46 C 176 29.38 162.62 16 146 16 L 46 16 z "/>
  <rect style="fill:#00ab9a" width="56" height="56" x="33" y="33" rx="12" ry="12"/>
  <rect style="fill:#f55246" width="56" height="56" x="103" y="33" rx="12" ry="12"/>
  <rect style="fill:#ffc107" width="126" height="56" x="33" y="103" rx="12" ry="12"/>
  <path style="opacity:0.20;fill:#ffffff" d="M 45 33 C 38.35 33 33 38.35 33 45 L 33 46 C 33 39.35 38.35 34 45 34 L 77 34 C 83.65 34 89 39.35 89 46 L 89 45 C 89 38.35 83.65 33 77 33 L 45 33 z M 115 33 C 108.35 33 103 38.35 103 45 L 103 46 C 103 39.35 108.35 34 115 34 L 147 34 C 153.65 34 159 39.35 159 46 L 159 45 C 159 38.35 153.65 33 147 33 L 115 33 z M 45 103 C 38.35 103 33 108.35 33 115 L 33 116 C 33 109.35 38.35 104 45 104 L 147 104 C 153.65 104 159 109.35 159 116 L 159 115 C 159 108.35 153.65 103 147 103 L 45 103 z "/>
</svg>
