<?xml version='1.0' encoding='utf-8'?>
<svg xmlns="http://www.w3.org/2000/svg" width="192" height="192" version="1" id="svg16">
  <defs>
    <filter style="color-interpolation-filters:sRGB" id="filter847" x="0.05" width="1.09" y="0.05" height="1.10">
      <feGaussianBlur stdDeviation="2.28"/>
    </filter>
    <filter style="color-interpolation-filters:sRGB" id="filter863" x="0.04" width="1.09" y="0.05" height="1.11">
      <feGaussianBlur stdDeviation="1.76"/>
    </filter>
  </defs>
  <rect transform="matrix(0,-1,-1,0,0,0)" ry="40" rx="40" y="-136" x="-114" height="80" width="96" style="filter:url(#filter863);opacity:0.20"/>
  <path d="m 44,72 a 8,8 0 0 0 -8,8 v 10 c 0,25.43 22.58,46.26 52,49.51 V 164 H 56 a 8,8 0 0 0 -8,8 8,8 0 0 0 8,8 h 80 a 8,8 0 0 0 8,-8 8,8 0 0 0 -8,-8 H 104 V 139.51 C 133.42,136.26 156,115.43 156,90 V 80 a 8,8 0 0 0 -8,-8 8,8 0 0 0 -8,8 v 7.34 C 140,107.65 120.38,124 96,124 71.62,124 52,107.65 52,87.34 V 80 a 8,8 0 0 0 -8,-8 z" style="filter:url(#filter847);opacity:0.20"/>
  <path d="m 44,68 a 8,8 0 0 0 -8,8 v 10 c 0,25.43 22.58,46.26 52,49.51 V 160 H 56 a 8,8 0 0 0 -8,8 8,8 0 0 0 8,8 h 80 a 8,8 0 0 0 8,-8 8,8 0 0 0 -8,-8 H 104 V 135.51 C 133.42,132.26 156,111.43 156,86 V 76 a 8,8 0 0 0 -8,-8 8,8 0 0 0 -8,8 v 7.34 C 140,103.65 120.38,120 96,120 71.62,120 52,103.65 52,83.34 V 76 a 8,8 0 0 0 -8,-8 z" style="fill:#4f4f4f"/>
  <rect transform="matrix(0,-1,-1,0,0,0)" ry="40" rx="40" y="-136" x="-112" height="80" width="96" style="fill:#8e8e8e"/>
  <path style="opacity:0.10;fill:#ffffff" d="M 44 68 A 8 8 0 0 0 36 76 L 36 77 A 8 8 0 0 1 44 69 A 8 8 0 0 1 52 77 L 52 76 A 8 8 0 0 0 44 68 z M 148 68 A 8 8 0 0 0 140 76 L 140 77 A 8 8 0 0 1 148 69 A 8 8 0 0 1 156 77 L 156 76 A 8 8 0 0 0 148 68 z M 52 83.34 L 52 84.34 C 52 104.65 71.62 121 96 121 C 120.38 121 140 104.65 140 84.34 L 140 83.34 C 140 103.65 120.38 120 96 120 C 71.62 120 52 103.65 52 83.34 z M 56 160 A 8 8 0 0 0 48 168 A 8 8 0 0 0 48.03 168.38 A 8 8 0 0 1 56 161 L 88 161 L 88 160 L 56 160 z M 104 160 L 104 161 L 136 161 A 8 8 0 0 1 143.97 168.46 A 8 8 0 0 0 144 168 A 8 8 0 0 0 136 160 L 104 160 z "/>
  <path style="opacity:0.10;fill:#ffffff" d="M 96 16 C 73.84 16 56 33.84 56 56 L 56 57 C 56 34.84 73.84 17 96 17 C 118.16 17 136 34.84 136 57 L 136 56 C 136 33.84 118.16 16 96 16 z "/>
</svg>
