<?xml version='1.0' encoding='utf-8'?>
<svg xmlns="http://www.w3.org/2000/svg" width="192" height="192" version="1" id="svg26">
  <defs>
    <filter style="color-interpolation-filters:sRGB" id="filter862" x="0.03" width="1.06" y="0.11" height="1.21">
      <feGaussianBlur stdDeviation="1.62"/>
    </filter>
    <filter style="color-interpolation-filters:sRGB" id="filter884" x="0.05" width="1.10" y="0.05" height="1.10">
      <feGaussianBlur stdDeviation="3.20"/>
    </filter>
    <filter style="color-interpolation-filters:sRGB" id="filter900" x="0.05" width="1.10" y="0.05" height="1.10">
      <feGaussianBlur stdDeviation="2.72"/>
    </filter>
  </defs>
  <path d="M 32,16 A 28,28 0 0 0 4,44 28,28 0 0 0 32,72 28,28 0 0 0 60,44 28,28 0 0 0 32,16 Z m 128,0 a 28,28 0 0 0 -28,28 28,28 0 0 0 28,28 28,28 0 0 0 28,-28 28,28 0 0 0 -28,-28 z" style="fill:#c03120"/>
  <path style="opacity:0.10;fill:#ffffff" d="M 32 16 A 28 28 0 0 0 4 44 A 28 28 0 0 0 4.02 44.43 A 28 28 0 0 1 32 17 A 28 28 0 0 1 59.98 44.54 A 28 28 0 0 0 60 44 A 28 28 0 0 0 32 16 z M 160 16 A 28 28 0 0 0 132 44 A 28 28 0 0 0 132.02 44.43 A 28 28 0 0 1 160 17 A 28 28 0 0 1 187.98 44.54 A 28 28 0 0 0 188 44 A 28 28 0 0 0 160 16 z "/>
  <path d="m 77.08,141.12 c 0.56,3.51 -2.40,7.18 -5.47,10.24 l -16.97,16.97 c -6.27,6.27 -15.10,7.53 -19.80,2.83 -1.50,-1.50 -2.32,-3.43 -2.64,-5.55 0.58,3.66 0.24,7.15 2.64,9.55 4.70,4.70 13.53,3.44 19.80,-2.83 l 16.97,-16.97 c 4.27,-4.27 6.15,-9.71 5.47,-14.24 z m 35.12,0 c 0.68,4.53 1.20,9.97 5.47,14.24 l 16.97,16.97 c 6.27,6.27 15.10,7.53 19.80,2.83 2.40,-2.40 3.22,-5.88 2.64,-9.55 0.32,2.12 -1.14,4.05 -2.64,5.55 -4.70,4.70 -13.53,3.44 -19.80,-2.83 l -16.97,-16.97 c -3.06,-3.06 -4.91,-6.74 -5.47,-10.24 z" style="filter:url(#filter862);opacity:0.20"/>
  <path style="fill:#4f4f4f" d="m 67.76,130.74 c -4.29,0.23 -9.20,1.74 -13.12,5.66 l -16.97,16.97 c -6.27,6.27 -7.53,15.10 -2.83,19.80 4.70,4.70 13.53,3.44 19.80,-2.83 l 16.97,-16.97 c 6.27,-6.27 7.53,-15.10 2.83,-19.80 -1.76,-1.76 -4.11,-2.69 -6.68,-2.83 z m 53.76,0 c -2.57,0.14 -4.91,1.07 -6.67,2.83 -4.70,4.70 -3.44,13.53 2.83,19.80 l 16.97,16.97 c 6.27,6.27 15.10,7.53 19.80,2.83 4.70,-4.70 3.44,-13.53 -2.83,-19.80 l -16.97,-16.97 c -3.92,-3.92 -8.84,-5.88 -13.12,-5.66 z"/>
  <rect width="160" height="160" x="-180" y="-176" rx="80" ry="80" transform="matrix(0,-1,-1,0,0,0)" style="filter:url(#filter884);opacity:0.20;fill:#000000"/>
  <rect style="fill:#f54b3e" transform="matrix(0,-1,-1,0,0,0)" ry="80" rx="80" y="-176" x="-176" height="160" width="160"/>
  <path style="opacity:0.20;fill:#ffffff" d="M 96 16.07 C 51.72 16.07 16.07 51.72 16.07 96 C 16.07 96.34 16.07 96.67 16.07 97 C 16.07 52.72 51.72 17.07 96 17.07 C 140.28 17.07 175.93 52.72 175.93 97 C 175.93 96.67 175.93 96.34 175.93 96 C 175.93 51.72 140.28 16.07 96 16.07 z "/>
  <rect transform="matrix(0,-1,-1,0,0,0)" ry="68" rx="68" y="-164" x="-166" height="136" width="136" style="filter:url(#filter900);opacity:0.20"/>
  <rect transform="matrix(0,-1,-1,0,0,0)" ry="68" rx="68" y="-164" x="-164" height="136" width="136" style="fill:#ffffff"/>
  <path d="m 96,32 c -4.42,0 -8,3.58 -8,8 0,4.42 3.58,8 8,8 4.42,0 8,-3.58 8,-8 0,-4.42 -3.58,-8 -8,-8 z m 31.89,35.78 c 0.52,0.06 -1.03,0.23 -1.51,0.51 L 93.14,87.48 c -4.53,2.26 -6.25,8.17 -4.41,11.59 L 100.81,120 c 2.21,3.83 7.08,5.14 10.92,2.92 3.84,-2.22 5.14,-7.09 2.93,-10.92 l -12,-20.78 27.72,-16 c 1.92,-1.11 2.57,-3.55 1.46,-5.47 0.83,-1.44 -2.41,-2.16 -3.95,-1.97 z M 40,88 c -4.42,0 -8,3.58 -8,8 0,4.42 3.58,8 8,8 4.42,0 8,-3.58 8,-8 0,-4.42 -3.58,-8 -8,-8 z m 112,0 c -4.42,0 -8,3.58 -8,8 0,4.42 3.58,8 8,8 4.42,0 8,-3.58 8,-8 0,-4.42 -3.58,-8 -8,-8 z m -56,56 c -4.42,0 -8,3.58 -8,8 0,4.42 3.58,8 8,8 4.42,0 8,-3.58 8,-8 0,-4.42 -3.58,-8 -8,-8 z" style="opacity:0.70"/>
</svg>
