<?xml version='1.0' encoding='utf-8'?>
<svg xmlns="http://www.w3.org/2000/svg" width="192" height="192" version="1" id="svg18">
  <defs>
    <filter style="color-interpolation-filters:sRGB" id="filter902" x="0.04" width="1.08" y="0.06" height="1.11">
      <feGaussianBlur stdDeviation="2.86"/>
    </filter>
  </defs>
  <path d="M 96.33,40.00 C 64.84,40.00 36.50,51.25 13,68.70 L 96.33,160 179,68.37 C 155.59,51.12 127.56,40.00 96.33,40.00 Z" style="filter:url(#filter902);opacity:0.20;fill:#000000"/>
  <path style="fill:#4f9a3c" d="M 96.33,36.00 C 64.84,36.00 36.50,47.25 13,64.69 L 96.33,156.00 179,64.37 C 155.59,47.12 127.56,36.00 96.33,36.00 Z"/>
  <path style="fill:#9cda72" d="m 96,60.00 c -25.08,0 -48.35,8.25 -67.05,22.21 L 96.35,156.00 163.05,82.21 C 144.35,68.24 121.08,60.00 96,60.00 Z"/>
  <path style="fill:#e4e4e4" d="m 96,84.00 c -18.81,0 -36.26,6.18 -50.29,16.66 L 96.26,156 146.29,100.66 C 132.27,90.18 114.81,84.00 96,84.00 Z"/>
  <path style="opacity:0.20;fill:#ffffff" d="M 96.33 36 C 64.84 36 36.50 47.25 13 64.70 L 13.55 65.30 C 36.95 48.09 65.09 37 96.33 37 C 127.32 37 155.15 47.96 178.45 64.98 L 179 64.37 C 155.59 47.12 127.56 36 96.33 36 z "/>
  <path style="opacity:0.20;fill:#ffffff" d="M 96 60 C 70.92 60 47.65 68.25 28.95 82.21 L 29.51 82.82 C 48.11 69.09 71.17 61 96 61 C 120.84 61 143.90 69.09 162.50 82.82 L 163.05 82.21 C 144.35 68.24 121.08 60 96 60 z "/>
  <path style="opacity:0.20;fill:#ffffff" d="M 96 84 C 77.19 84 59.73 90.18 45.71 100.66 L 46.27 101.27 C 60.19 91.03 77.43 85 96 85 C 114.57 85 131.81 91.03 145.74 101.27 L 146.29 100.66 C 132.27 90.18 114.81 84 96 84 z "/>
</svg>
