<?xml version='1.0' encoding='utf-8'?>
<svg xmlns="http://www.w3.org/2000/svg" width="192" height="192" version="1" id="svg18">
  <defs>
    <filter style="color-interpolation-filters:sRGB" id="filter902" x="0.04" width="1.08" y="0.06" height="1.11">
      <feGaussianBlur stdDeviation="2.86"/>
    </filter>
  </defs>
  <path d="M 96.33,40.00 C 64.84,40.00 36.50,51.25 13,68.70 L 96.33,160 179,68.37 C 155.59,51.12 127.56,40.00 96.33,40.00 Z" style="filter:url(#filter902);opacity:0.20;fill:#000000"/>
  <path style="fill:#4f4f4f" d="M 96.33,36.00 C 64.84,36.00 36.50,47.25 13,64.69 L 96.33,156.00 179,64.37 C 155.59,47.12 127.56,36.00 96.33,36.00 Z"/>
  <path style="fill:#797979" d="m 96,60.00 c -25.08,0 -48.35,8.25 -67.05,22.21 L 96.35,156.00 163.05,82.21 C 144.35,68.24 121.08,60.00 96,60.00 Z"/>
  <path style="fill:#e4e4e4" d="m 96,84.00 c -18.81,0 -36.26,6.18 -50.29,16.66 L 96.26,156 146.29,100.66 C 132.27,90.18 114.81,84.00 96,84.00 Z"/>
  <path style="opacity:0.10;fill:#ffffff" d="M 96.33,36 C 64.84,36 36.50,47.25 13,64.70 l 0.55,0.61 C 36.95,48.09 65.09,37 96.33,37 127.32,37 155.15,47.96 178.45,64.98 L 179,64.37 C 155.59,47.12 127.56,36 96.33,36 Z"/>
  <path style="opacity:0.10;fill:#ffffff" d="M 96,60 C 70.92,60 47.65,68.25 28.95,82.21 l 0.55,0.60 C 48.11,69.09 71.17,61 96,61 c 24.84,0 47.90,8.09 66.50,21.82 l 0.55,0.61 C 144.35,68.24 121.08,60 96,60 Z"/>
  <path style="opacity:0.20;fill:#ffffff" d="m 96,84 c -18.81,0 -36.27,6.18 -50.29,16.66 l 0.55,0.60 C 60.19,91.03 77.43,85 96,85 c 18.57,0 35.81,6.03 49.74,16.27 l 0.55,0.61 C 132.27,90.18 114.81,84 96,84 Z"/>
</svg>
