<?xml version='1.0' encoding='utf-8'?>
<svg xmlns="http://www.w3.org/2000/svg" width="192" height="192" version="1" id="svg20">
  <defs>
    <filter style="color-interpolation-filters:sRGB" id="filter857" x="0.05" width="1.10" y="0.05" height="1.10">
      <feGaussianBlur stdDeviation="3.20"/>
    </filter>
    <filter style="color-interpolation-filters:sRGB" id="filter877" x="0.05" width="1.10" y="0.05" height="1.10">
      <feGaussianBlur stdDeviation="1.44"/>
    </filter>
    <filter style="color-interpolation-filters:sRGB" id="filter893" x="0.05" width="1.10" y="0.05" height="1.10">
      <feGaussianBlur stdDeviation="0.96"/>
    </filter>
  </defs>
  <rect transform="matrix(0,-1,-1,0,0,0)" ry="80" rx="80" y="-176" x="-180" height="160" width="160" style="filter:url(#filter857);opacity:0.20"/>
  <rect transform="matrix(0,-1,-1,0,0,0)" ry="80" rx="80" y="-176" x="-176" height="160" width="160" style="fill:#e4e4e4"/>
  <circle r="48" cy="96" cx="96" style="fill:#3f3f3f"/>
  <circle transform="scale(1,-1)" r="36" cy="-98" cx="96" style="filter:url(#filter877);opacity:0.20"/>
  <circle transform="scale(1,-1)" r="36" cy="-96" cx="96" style="fill:#175fba"/>
  <path style="opacity:0.20;fill:#ffffff" d="m 96,16 c -44.32,0 -80,35.68 -80,80 0,0.12 0.01,0.23 0.01,0.35 C 16.36,52.33 51.90,17 96,17 140.10,17 175.64,52.33 175.99,96.35 175.99,96.23 176,96.12 176,96 176,51.68 140.32,16 96,16 Z"/>
  <circle r="24" cy="98" cx="96" style="filter:url(#filter893);opacity:0.20"/>
  <circle r="24" cy="96" cx="96" style="fill:#3198ff"/>
  <path style="opacity:0.20;fill:#ffffff" d="M 96,72 A 24,24 0 0 0 72,96 24,24 0 0 0 72.02,96.58 24,24 0 0 1 96,73 24,24 0 0 1 119.98,96.42 24,24 0 0 0 120,96 24,24 0 0 0 96,72 Z"/>
</svg>
