<?xml version='1.0' encoding='utf-8'?>
<svg xmlns="http://www.w3.org/2000/svg" width="192" height="192" version="1.1" id="svg20">
  <defs>
    <filter style="color-interpolation-filters:sRGB" id="filter857" x="0.05" width="1.10" y="0.05" height="1.10">
      <feGaussianBlur stdDeviation="3.20"/>
    </filter>
    <filter style="color-interpolation-filters:sRGB" id="filter865" x="0.02" width="1.05" y="0.02" height="1.05">
      <feGaussianBlur stdDeviation="1.04"/>
    </filter>
  </defs>
  <circle r="80" cy="100" cx="96" style="filter:url(#filter857);opacity:0.20"/>
  <circle r="80" cy="96" cx="96" style="fill:#e4e4e4"/>
  <path d="m 96,46 v 8 a 48,48 0 0 1 48,48 h 8 A 56,56 0 0 0 96,46 Z m -27.43,8 c -10.63,0 -19.37,8.62 -20.45,19.69 h 0.12 c 0.00,0.36 0.04,0.91 0.05,1.33 C 48.03,75.34 48,75.67 48,76 c 0,1.54 0.14,3.04 0.42,4.48 1.15,11.31 5.61,30.37 22.16,46.93 16.56,16.56 35.62,21.01 46.93,22.16 C 118.96,149.86 120.46,150 122,150 c 0.33,0 0.66,0.03 0.98,0.05 0.42,0.01 0.97,0.04 1.33,0.05 v 0.12 C 135.38,148.80 144,140.06 144,129.43 144,118.07 134.15,114 122,114 c -10.39,0 -19.08,2.99 -21.38,10.96 C 95.37,122.45 89.82,118.81 84.51,113.49 79.19,108.18 75.55,102.63 73.04,97.38 81.01,95.08 84,86.39 84,76 84,63.85 79.93,54 68.57,54 Z M 96,62 v 8 a 32,32 0 0 1 32,32 h 8 A 40,40 0 0 0 96,62 Z m 0,16 v 8 a 16,16 0 0 1 16,16 h 8 A 24,24 0 0 0 96,78 Z" style="filter:url(#filter865);opacity:0.10;fill-rule:evenodd"/>
  <path d="m 48,71.69 c 0.04,8.56 2.04,33.18 22.58,53.73 C 91.13,145.96 115.75,147.96 124.31,148 v -19.60 c -5.22,0.11 -23.62,0.72 -39.80,-16.90 C 68.32,95.31 67.49,76.91 67.60,71.69 Z" style="fill:#3f3f3f;fill-rule:evenodd"/>
  <path d="M 84,74 C 84,86.15 79.93,96 68.57,96 57.21,96 48,86.15 48,74 48,61.85 57.21,52 68.57,52 79.93,52 84,61.85 84,74 Z" style="fill:#3f3f3f;fill-rule:evenodd"/>
  <path d="m 122,112 c 12.15,0 22,4.07 22,15.43 C 144,138.79 134.15,148 122,148 109.85,148 100,138.79 100,127.43 100,116.07 109.85,112 122,112 Z" style="fill:#3f3f3f;fill-rule:evenodd"/>
  <path style="opacity:0.20;fill:#ffffff;fill-rule:evenodd" d="M 96 16 A 80 80 0 0 0 16 96 A 80 80 0 0 0 16.02 96.47 A 80 80 0 0 1 96 17 A 80 80 0 0 1 175.97 96.51 A 80 80 0 0 0 176 96 A 80 80 0 0 0 96 16 z "/>
  <path d="m 96,44 v 8 a 48,48 0 0 1 48,48 h 8 A 56,56 0 0 0 96,44 Z m 0,16 v 8 a 32,32 0 0 1 32,32 h 8 A 40,40 0 0 0 96,60 Z m 0,16 v 8 a 16,16 0 0 1 16,16 h 8 A 24,24 0 0 0 96,76 Z" style="fill:#3f3f3f;fill-rule:evenodd"/>
</svg>
