<?xml version='1.0' encoding='utf-8'?>
<svg xmlns="http://www.w3.org/2000/svg" width="192" height="192" version="1" id="svg28">
  <defs>
    <filter style="color-interpolation-filters:sRGB" id="filter895" x="0.05" width="1.10" y="0.05" height="1.10">
      <feGaussianBlur stdDeviation="3.20"/>
    </filter>
    <filter style="color-interpolation-filters:sRGB" id="filter911" x="0.05" width="1.10" y="0.05" height="1.10">
      <feGaussianBlur stdDeviation="2.24"/>
    </filter>
  </defs>
  <path style="filter:url(#filter895);opacity:0.20" d="M 96,20 A 80,80 0 0 0 53.96,32 H 44 C 35.14,32 28,39.14 28,48 V 58.05 A 80,80 0 0 0 16,100 80,80 0 0 0 28,142.04 V 152 C 28,160.86 35.14,168 44,168 H 54.05 A 80,80 0 0 0 96,180 80,80 0 0 0 138.04,168 H 148 C 156.86,168 164,160.86 164,152 V 141.95 A 80,80 0 0 0 176,100 80,80 0 0 0 164,57.96 V 48 C 164,39.14 156.86,32 148,32 H 137.95 A 80,80 0 0 0 96,20 Z"/>
  <circle style="fill:#b2d1e9" cx="96" cy="96" r="80"/>
  <rect style="fill:#b2d1e9" width="136" height="136" x="28" y="28" rx="16" ry="16"/>
  <circle style="fill:#4f4f4f" cx="96" cy="96" r="68"/>
  <circle style="filter:url(#filter911);opacity:0.20" cx="96" cy="100" r="56"/>
  <circle style="fill:#ffcf24" cx="96" cy="96" r="56"/>
  <circle style="fill:#4f4f4f" cx="42" cy="42" r="6"/>
  <circle style="fill:#4f4f4f" cx="96" cy="96" r="20"/>
  <path style="opacity:0.20;fill:#ffffff" d="M 96 16 A 80 80 0 0 0 53.96 28 L 44 28 C 35.14 28 28 35.14 28 44 L 28 45 C 28 36.14 35.14 29 44 29 L 53.96 29 A 80 80 0 0 1 96 17 A 80 80 0 0 1 137.95 29 L 148 29 C 156.86 29 164 36.14 164 45 L 164 44 C 164 35.14 156.86 28 148 28 L 137.95 28 A 80 80 0 0 0 96 16 z M 164 53.96 L 164 54.96 A 80 80 0 0 1 175.98 96.65 A 80 80 0 0 0 176 96 A 80 80 0 0 0 164 53.96 z M 28 54.05 A 80 80 0 0 0 16 96 A 80 80 0 0 0 16.02 96.37 A 80 80 0 0 1 28 55.05 L 28 54.05 z "/>
  <circle style="fill:#4f4f4f" cx="150" cy="42" r="6"/>
  <circle style="fill:#4f4f4f" cx="42" cy="154" r="6"/>
  <circle style="fill:#4f4f4f" cx="150" cy="154" r="6"/>
  <path style="opacity:0.20;fill:#ffffff" d="M 96 40 A 56 56 0 0 0 40 96 A 56 56 0 0 0 40.02 96.49 A 56 56 0 0 1 96 41 A 56 56 0 0 1 151.97 96.49 A 56 56 0 0 0 152 96 A 56 56 0 0 0 96 40 z "/>
</svg>
