<?xml version='1.0' encoding='utf-8'?>
<svg xmlns="http://www.w3.org/2000/svg" width="192" height="192" version="1" id="svg8">
  <defs>
    <filter style="color-interpolation-filters:sRGB" id="filter849" x="0.05" width="1.10" y="0.05" height="1.10">
      <feGaussianBlur stdDeviation="3.20"/>
    </filter>
  </defs>
  <path style="filter:url(#filter849);opacity:0.20" d="m 68,20 c -3.32,0 -7.58,3.59 -8,8 V 88 H 24 l 72,68 72,-68 H 132 V 28 c 0,-4.43 -4.68,-8 -8,-8 z M 24,164 c -4.43,0 -8,3.57 -8,8 0,4.43 3.57,8 8,8 h 144 c 4.43,0 8,-3.57 8,-8 0,-4.43 -3.57,-8 -8,-8 z"/>
  <path style="fill:#358de7" d="m 68,16 c -3.32,0 -7.58,3.59 -8,8 V 84 H 24 l 72,68 72,-68 H 132 V 24 c 0,-4.43 -4.68,-8 -8,-8 z M 24,160 c -4.43,0 -8,3.57 -8,8 0,4.43 3.57,8 8,8 h 144 c 4.43,0 8,-3.57 8,-8 0,-4.43 -3.57,-8 -8,-8 z"/>
  <path style="opacity:0.20;fill:#ffffff" d="M 68 16 C 64.68 16 60.42 19.59 60 24 L 60 25 C 60.42 20.59 64.68 17 68 17 L 124 17 C 127.32 17 132 20.57 132 25 L 132 24 C 132 19.57 127.32 16 124 16 L 68 16 z M 24 84 L 25.06 85 L 60 85 L 60 84 L 24 84 z M 132 84 L 132 85 L 166.94 85 L 168 84 L 132 84 z M 24 160 C 19.57 160 16 163.57 16 168 C 16 168.13 16.02 168.26 16.03 168.39 C 16.34 164.25 19.77 161 24 161 L 168 161 C 172.23 161 175.66 164.25 175.97 168.39 C 175.98 168.26 176 168.13 176 168 C 176 163.57 172.43 160 168 160 L 24 160 z "/>
</svg>
