<?xml version='1.0' encoding='utf-8'?>
<svg xmlns="http://www.w3.org/2000/svg" width="192" height="192" version="1" id="svg44">
  <defs>
    <filter style="color-interpolation-filters:sRGB" id="filter897" x="0.05" width="1.10" y="0.05" height="1.10">
      <feGaussianBlur stdDeviation="3.20"/>
    </filter>
    <filter style="color-interpolation-filters:sRGB" id="filter913" x="0.06" width="1.12" y="0.06" height="1.12">
      <feGaussianBlur stdDeviation="1.23"/>
    </filter>
    <filter style="color-interpolation-filters:sRGB" id="filter941" x="0.05" width="1.10" y="0.05" height="1.10">
      <feGaussianBlur stdDeviation="2.40"/>
    </filter>
    <filter style="color-interpolation-filters:sRGB" id="filter949" x="0.02" width="1.05" y="0.02" height="1.05">
      <feGaussianBlur stdDeviation="0.28"/>
    </filter>
    <filter style="color-interpolation-filters:sRGB" id="filter965" x="0.05" width="1.10" y="0.05" height="1.10">
      <feGaussianBlur stdDeviation="0.64"/>
    </filter>
  </defs>
  <rect transform="rotate(-45)" ry="8" rx="8" y="43.32" x="-25.40" height="48" width="48" style="filter:url(#filter913);opacity:0.20"/>
  <rect style="fill:#597123" transform="rotate(-45)" ry="8" rx="8" y="41.92" x="-23.96" height="48" width="48"/>
  <path style="opacity:0.10;fill:#ffffff" d="M 46.63 15.93 C 44.59 15.93 42.54 16.71 40.98 18.28 L 18.35 40.91 C 16.69 42.57 15.99 44.77 16.11 46.94 C 16.23 45.11 16.94 43.32 18.35 41.91 L 40.98 19.28 C 42.54 17.71 44.59 16.93 46.63 16.93 C 48.68 16.93 50.73 17.71 52.29 19.28 L 74.92 41.91 C 76.33 43.32 77.05 45.10 77.16 46.94 C 77.28 44.77 76.59 42.57 74.92 40.91 L 52.29 18.28 C 50.73 16.71 48.68 15.93 46.63 15.93 z "/>
  <rect transform="matrix(0,-1,-1,0,0,0)" ry="80" rx="80" y="-176" x="-180" height="160" width="160" style="filter:url(#filter897);opacity:0.20"/>
  <rect style="fill:#96ba42" transform="matrix(0,-1,-1,0,0,0)" ry="80" rx="80" y="-176" x="-176" height="160" width="160"/>
  <path style="opacity:0.20;fill:#ffffff" d="M 96 16 C 51.68 16 16 51.68 16 96 C 16 96.12 16.01 96.23 16.01 96.35 C 16.36 52.33 51.90 17 96 17 C 140.10 17 175.64 52.33 175.99 96.35 C 175.99 96.23 176 96.12 176 96 C 176 51.68 140.32 16 96 16 z "/>
  <circle r="60" cy="98" cx="96" style="filter:url(#filter941);opacity:0.20"/>
  <circle style="fill:#ffffff" r="60" cy="96" cx="96"/>
  <rect style="fill:#f45246" transform="rotate(30)" ry="8" rx="8" y="-12.88" x="123.16" height="56" width="16"/>
  <g transform="matrix(4,0,0,4,0,2)" style="filter:url(#filter949);opacity:0.10">
    <circle r="2" cy="36" cx="24"/>
    <circle r="2" cy="12" cx="24"/>
    <circle transform="rotate(90)" r="2" cy="-12" cx="24"/>
    <circle transform="rotate(90)" r="2" cy="-36" cx="24"/>
  </g>
  <ellipse ry="16" rx="16.00" cy="98" cx="96" style="filter:url(#filter965);opacity:0.10"/>
  <circle style="fill:#4d4d4d" r="16" cy="96" cx="96"/>
  <g style="fill:#4d4d4d" transform="scale(4)">
    <circle r="2" cy="36" cx="24"/>
    <circle r="2" cy="12" cx="24"/>
    <circle transform="rotate(90)" r="2" cy="-12" cx="24"/>
    <circle transform="rotate(90)" r="2" cy="-36" cx="24"/>
  </g>
</svg>
