<?xml version='1.0' encoding='utf-8'?>
<svg xmlns="http://www.w3.org/2000/svg" width="192" height="192" version="1" id="svg16">
  <defs>
    <filter style="color-interpolation-filters:sRGB" id="filter867" x="-0.048000001" width="1.096" y="-0.048000001" height="1.096">
      <feGaussianBlur stdDeviation="3.2"/>
    </filter>
    <filter style="color-interpolation-filters:sRGB" id="filter853" x="-0.048168" width="1.096336" y="-0.047833173" height="1.0956663">
      <feGaussianBlur stdDeviation="1.6056"/>
    </filter>
  </defs>
  <rect ry="80" rx="80" height="160" width="160" y="-176" x="-180" transform="matrix(0,-1,-1,0,0,0)" style="filter:url(#filter867);opacity:0.2;fill:#000000"/>
  <rect style="fill:#f44336" transform="matrix(0,-1,-1,0,0,0)" x="-176" y="-176" width="160" height="160" rx="80" ry="80"/>
  <path style="opacity:0.2;fill:#ffffff" d="m 96,16 c -44.32,0 -80,35.68 -80,80 0,0.336 0.002,0.6675 0,1 0,-44.32 35.68,-80 80,-80 44.32,0 80,35.68 80,80 -0.002,-0.3325 0,-0.664 0,-1 0,-44.32 -35.68,-80 -80,-80 z"/>
  <path d="m 136,69.879568 -18.4,-15.44 -5.16,6.12 18.4,15.44 z m -56.48,-9.32 -5.12,-6.12 -18.4,15.4 5.16,6.12 z m 18.48,18.44 h -6 v 23.999992 l 19,11.4 3,-4.92 -16,-9.480005 z m -2,-16 c -19.88,0 -36,16.12 -36,35.999992 0,19.88 16.08,36 36,36 19.88,0 36,-16.12 36,-36 0,-19.879992 -16.12,-35.999992 -36,-35.999992 z m 0,63.999992 c -15.48,0 -28,-12.52 -28,-28 0,-15.479992 12.52,-27.999992 28,-27.999992 15.48,0 28,12.52 28,27.999992 0,15.48 -12.52,28 -28,28 z" style="filter:url(#filter853);opacity:0.2;fill:#000000"/>
  <path d="m 136,66.879573 -18.4,-15.44 -5.16,6.12 18.4,15.44 z m -56.48,-9.32 -5.12,-6.12 -18.4,15.4 5.16,6.12 z m 18.48,18.44 h -6 v 23.999992 l 19,11.399995 3,-4.92 -16,-9.479987 z m -2,-16 c -19.88,0 -36,16.12 -36,36 0,19.879987 16.08,35.999987 36,35.999987 19.88,0 36,-16.12 36,-35.999987 0,-19.88 -16.12,-36 -36,-36 z m 0,63.999987 c -15.48,0 -28,-12.52 -28,-27.999987 0,-15.48 12.52,-28 28,-28 15.48,0 28,12.52 28,28 0,15.479987 -12.52,27.999987 -28,27.999987 z" style="fill:#ffffff"/>
</svg>
