<svg xmlns="http://www.w3.org/2000/svg" id="svg28" width="192" height="192" version="1"><defs><filter style="color-interpolation-filters:sRGB" id="filter1063" width="1.09" height="1.1" x=".05" y=".05"><feGaussianBlur stdDeviation="3.04"/></filter><filter style="color-interpolation-filters:sRGB" id="filter1067" width="1.18" height="1.27" x=".09" y=".14"><feGaussianBlur stdDeviation="2.72"/></filter><filter style="color-interpolation-filters:sRGB" id="filter1071" width="1.22" height="1.22" x=".11" y=".11"><feGaussianBlur stdDeviation="2.16"/></filter></defs><rect style="filter:url(#filter1063);opacity:.2" width="160" height="144" x="16" y="28" rx="12" ry="12"/><rect style="fill:#23b1ff" width="160" height="144" x="16" y="24" rx="12" ry="12"/><path style="fill:#0c7d40" d="M 45.60,112 16.73,160.11 C 18.41,164.72 22.80,168 28,168 h 51.20 z"/><path style="fill:#0c9950" d="m 104,88 48,80 H 56 Z"/><path style="filter:url(#filter1067);opacity:.2" d="M 128,66 A 20,20 0 0 0 108.33,82.59 16,16 0 0 0 104,82 16,16 0 0 0 88,98 a 16,16 0 0 0 16,16 h 44 A 12,12 0 0 0 160,102 12,12 0 0 0 148,90 12,12 0 0 0 147.54,90.03 20,20 0 0 0 148,86 20,20 0 0 0 128,66 Z"/><path style="filter:url(#filter1071);opacity:.2" d="M 56,42 C 69.25,42 80,52.75 80,66.00 80,79.25 69.25,90 56,90 42.75,90 32,79.25 32,66.00 32,52.75 42.75,42 56,42 Z"/><path style="fill:#ffdd32" d="M 56,40 C 69.25,40 80,50.75 80,64.00 80,77.25 69.25,88 56,88 42.75,88 32,77.25 32,64.00 32,50.75 42.75,40 56,40 Z"/><circle style="fill:#fff" cx="104" cy="96" r="16"/><circle style="fill:#fff" cx="128" cy="84" r="20"/><circle style="fill:#fff" cx="148" cy="100" r="12"/><rect style="fill:#fff" width="44" height="19.2" x="104" y="92.8"/><path style="opacity:.2;fill:#fff" d="M 28 24 C 21.35 24 16 29.35 16 36 L 16 37 C 16 30.35 21.35 25 28 25 L 164 25 C 170.65 25 176 30.35 176 37 L 176 36 C 176 29.35 170.65 24 164 24 L 28 24 z"/><path style="opacity:.2;fill:#fff" d="M 56 40 C 42.75 40 32 50.75 32 64 C 32 64.16 32.01 64.32 32.01 64.48 C 32.29 51.47 42.92 41 56 41 C 69.08 41 79.71 51.47 79.99 64.48 C 79.99 64.32 80 64.16 80 64 C 80 50.75 69.25 40 56 40 z"/></svg>