<svg xmlns="http://www.w3.org/2000/svg" id="svg18" width="192" height="192" version="1"><defs><filter style="color-interpolation-filters:sRGB" id="filter853" width="1.1" height="1.09" x=".05" y=".05"><feGaussianBlur stdDeviation="2.72"/></filter><filter style="color-interpolation-filters:sRGB" id="filter869" width="1.05" height="1.05" x=".02" y=".02"><feGaussianBlur stdDeviation="1.08"/></filter></defs><rect width="80" height="16" x="56" y="16" style="fill:#8e8e8e"/><path d="m 56,16 v 1 h 80 v -1 z" style="opacity:.2;fill:#fff"/><rect width="128" height="144" x="32" y="36" rx="8" ry="8" style="filter:url(#filter853);opacity:.2"/><rect width="128" height="144" x="32" y="32" rx="8" ry="8" style="fill:#4f4f4f"/><path d="M 44,50 V 82 H 148 V 50 Z m 0,40 v 32 H 148 V 90 Z m 0,40 v 32 h 104 v -32 z" style="filter:url(#filter869);opacity:.2"/><path d="M 44,48 V 80 H 148 V 48 Z m 0,40 v 32 H 148 V 88 Z m 0,40 v 32 h 104 v -32 z" style="fill:#c0f957"/><path style="opacity:.2;fill:#fff" d="M 44 48 L 44 49 L 148 49 L 148 48 L 44 48 z M 44 88 L 44 89 L 148 89 L 148 88 L 44 88 z M 44 128 L 44 129 L 148 129 L 148 128 L 44 128 z"/></svg>