<svg xmlns="http://www.w3.org/2000/svg" id="svg26" width="192" height="192" version="1"><defs><filter style="color-interpolation-filters:sRGB" id="filter887" width="1.09" height="1.1" x=".05" y=".05"><feGaussianBlur stdDeviation="3.04"/></filter><filter style="color-interpolation-filters:sRGB" id="filter891" width="1.1" height="1.1" x=".05" y=".05"><feGaussianBlur stdDeviation="1.6"/></filter><filter style="color-interpolation-filters:sRGB" id="filter895" width="1.1" height="1.1" x=".05" y=".05"><feGaussianBlur stdDeviation=".96"/></filter><filter style="color-interpolation-filters:sRGB" id="filter905" width="1.1" height="1.1" x=".05" y=".05"><feGaussianBlur stdDeviation=".32"/></filter></defs><path style="filter:url(#filter887);opacity:.2" d="M 68.20,32.15 57.36,44 H 32 c -8.80,0 -16,7.20 -16,16 v 96 c 0,8.80 7.20,16 16,16 h 128 c 8.80,0 16,-7.20 16,-16 V 60 c 0,-8.80 -7.20,-16 -16,-16 H 134.64 L 123.65,31.99 C 120,28 120,28 116,28 H 76 c -4,0 -4,0 -7.80,4.15 z"/><path style="fill:#4f4f4f" d="M 68.20,28.15 57.36,40 H 32 c -8.80,0 -16,7.20 -16,16 v 96 c 0,8.80 7.20,16 16,16 h 128 c 8.80,0 16,-7.20 16,-16 V 56 c 0,-8.80 -7.20,-16 -16,-16 H 134.64 L 123.65,27.99 C 120,24 120,24 116,24 H 76 c -4,0 -4,0 -7.80,4.15 z"/><path style="opacity:.2" d="M 68.20,28.15 57.36,40 H 32 c -8.80,0 -16,7.20 -16,16 v 8 h 160 v -8 c 0,-8.80 -7.20,-16 -16,-16 H 134.64 L 123.65,27.99 C 120,24 120,24 116,24 H 76 c -4,0 -4,0 -7.80,4.15 z"/><circle style="fill:#2f2f2f" cx="96" cy="-104" r="52" transform="scale(1,-1)"/><circle style="filter:url(#filter905);opacity:.1" cx="160" cy="58" r="8"/><circle style="fill:#fff" cx="160" cy="56" r="8"/><circle style="filter:url(#filter891);opacity:.2" cx="96" cy="-108" r="40" transform="scale(1,-1)"/><circle style="fill:#00b1c4" cx="96" cy="-104" r="40" transform="scale(1,-1)"/><circle style="filter:url(#filter895);opacity:.2" cx="96" cy="106" r="24"/><circle style="fill:#70f4ff" cx="96" cy="104" r="24"/><path style="opacity:.1;fill:#fff" d="M 76 24 C 72 24 72.00 24.00 68.20 28.15 L 57.36 40 L 32 40 C 23.20 40 16 47.20 16 56 L 16 57 C 16 48.20 23.20 41 32 41 L 57.36 41 L 68.20 29.15 C 72.00 25.00 72 25 76 25 L 116 25 C 120 25 120.00 25.00 123.65 28.99 L 134.64 41 L 160 41 C 168.80 41 176 48.20 176 57 L 176 56 C 176 47.20 168.80 40 160 40 L 134.64 40 L 123.65 27.99 C 120.00 24.00 120 24 116 24 L 76 24 z"/><path style="opacity:.2;fill:#fff" d="M 96 80 A 24 24 0 0 0 72 104 A 24 24 0 0 0 72.01 104.48 A 24 24 0 0 1 96 81 A 24 24 0 0 1 119.99 104.48 A 24 24 0 0 0 120 104 A 24 24 0 0 0 96 80 z"/></svg>