<?xml version='1.0' encoding='utf-8'?>
<svg xmlns="http://www.w3.org/2000/svg" width="192" height="192" version="1" id="svg16">
  <defs>
    <filter style="color-interpolation-filters:sRGB" id="filter851" x="0.06" width="1.12" y="0.04" height="1.08">
      <feGaussianBlur stdDeviation="1.44"/>
    </filter>
    <filter style="color-interpolation-filters:sRGB" id="filter867" x="0.05" width="1.09" y="0.05" height="1.10">
      <feGaussianBlur stdDeviation="2.19"/>
    </filter>
  </defs>
  <rect ry="22" rx="22.40" y="92" x="68" height="88" width="56" style="filter:url(#filter851);opacity:0.20"/>
  <rect ry="22" rx="22.40" y="88" x="68" height="88" width="56" style="fill:#4f4f4f"/>
  <rect ry="10.67" rx="12" y="100" x="84" height="64" width="24" style="opacity:0.30"/>
  <path d="m 120,19.47 v 38.53 l -24,20 -24,-20 V 19.52 C 52.54,28.76 40.03,48.36 40,70.00 40,100.93 65.07,126 96,126 c 30.93,0 56,-25.07 56,-56.00 0.01,-21.66 -12.53,-41.29 -32,-50.53 z" style="filter:url(#filter867);opacity:0.20"/>
  <path d="M 120,17.47 V 56 L 96,76 72,56 V 17.52 C 52.54,26.76 40.03,46.36 40,68 c 0,30.93 25.07,56 56,56 30.93,0 56,-25.07 56,-56 0.01,-21.66 -12.53,-41.29 -32,-50.53 z" style="fill:#8e8e8e"/>
  <path style="opacity:0.10;fill:#ffffff" d="M 120 17.47 L 120 18.47 C 139.26 27.61 151.70 46.91 151.99 68.28 C 151.99 68.19 152 68.09 152 68 C 151.99 46.34 139.47 26.71 120 17.47 z M 72 17.52 C 52.54 26.76 40.03 46.36 40 68 C 40 68.10 40.01 68.20 40.01 68.29 C 40.31 46.93 52.76 27.66 72 18.52 L 72 17.52 z M 72 56 L 72 57 L 96 77 L 120 57 L 120 56 L 96 76 L 72 56 z "/>
</svg>
