<?xml version='1.0' encoding='utf-8'?>
<svg xmlns="http://www.w3.org/2000/svg" width="192" height="192" version="1.1" id="svg22">
  <defs>
    <filter style="color-interpolation-filters:sRGB" id="filter860" x="0.05" width="1.10" y="0.05" height="1.10">
      <feGaussianBlur stdDeviation="3.20"/>
    </filter>
    <filter style="color-interpolation-filters:sRGB" id="filter876" x="0.05" width="1.10" y="0.05" height="1.10">
      <feGaussianBlur stdDeviation="2.24"/>
    </filter>
  </defs>
  <circle r="80" cy="100" cx="96" style="filter:url(#filter860);opacity:0.20"/>
  <circle r="80" cy="96" cx="96" style="fill:#4f4f4f"/>
  <path style="opacity:0.10;fill:#ffffff" d="M 96 16 A 80 80 0 0 0 16 96 A 80 80 0 0 0 16.02 96.47 A 80 80 0 0 1 96 17 A 80 80 0 0 1 175.97 96.51 A 80 80 0 0 0 176 96 A 80 80 0 0 0 96 16 z "/>
  <path d="m 81.28,42.01 a 6.44,6.44 0 0 0 0.64,0.05 C 59.66,45.11 43.12,61.65 40.07,82.63 a 6.44,6.44 0 0 0 6.37,7.37 h 35.12 A 6.44,6.44 0 0 0 88,83.56 v -35.12 a 6.44,6.44 0 0 0 -6.72,-6.43 z m 28.80,0 A 6.44,6.44 0 0 0 104,48.44 v 35.12 a 6.44,6.44 0 0 0 6.44,6.44 h 35.12 a 6.44,6.44 0 0 0 6.37,-7.37 c -3.05,-20.99 -19.59,-37.52 -40.57,-40.57 a 6.44,6.44 0 0 0 0.64,0.05 6.44,6.44 0 0 0 0.64,0 z M 46.44,106 a 6.44,6.44 0 0 0 -6.37,7.37 c 3.05,20.99 19.59,37.52 40.57,40.57 a 6.44,6.44 0 0 0 0.64,0.05 A 6.44,6.44 0 0 0 88,147.56 v -35.12 A 6.44,6.44 0 0 0 81.56,106 Z m 64,0 A 6.44,6.44 0 0 0 104,112.44 v 35.12 a 6.44,6.44 0 0 0 6.72,6.43 6.44,6.44 0 0 0 0.64,0.05 c 20.98,-3.05 37.52,-19.58 40.57,-40.57 A 6.44,6.44 0 0 0 145.56,106 Z" style="filter:url(#filter876);opacity:0.20"/>
  <path d="M 81.28,40.01 A 6.44,6.44 0 0 1 88,46.44 V 81.56 A 6.44,6.44 0 0 1 81.56,88 H 46.44 a 6.44,6.44 0 0 1 -6.37,-7.36 c 3.05,-20.99 19.59,-37.52 40.57,-40.57 a 6.44,6.44 0 0 1 0.64,0.06 z" style="fill:#ffffff"/>
  <path d="M 110.72,40.01 A 6.44,6.44 0 0 0 104,46.44 V 81.56 A 6.44,6.44 0 0 0 110.44,88 h 35.13 a 6.44,6.44 0 0 0 6.37,-7.36 C 148.88,59.65 132.34,43.11 111.36,40.06 a 6.44,6.44 0 0 0 0.64,0.06 z" style="fill:#ffffff"/>
  <g transform="matrix(4,0,0,-4,0,192)" style="fill:#ffffff">
    <path d="M 20.32,10.00 A 1.61,1.61 0 0 1 22,11.61 V 20.39 A 1.61,1.61 0 0 1 20.39,22 h -8.78 a 1.61,1.61 0 0 1 -1.59,-1.84 c 0.76,-5.25 4.90,-9.38 10.14,-10.14 a 1.61,1.61 0 0 1 0.16,0.01 z" style="fill:#ffffff"/>
    <path d="M 27.68,10.00 A 1.61,1.61 0 0 0 26,11.61 V 20.39 A 1.61,1.61 0 0 0 27.61,22 h 8.78 a 1.61,1.61 0 0 0 1.59,-1.84 C 37.22,14.91 33.09,10.78 27.84,10.02 a 1.61,1.61 0 0 0 0.16,0.01 z" style="fill:#ffffff"/>
  </g>
</svg>
