<?xml version='1.0' encoding='utf-8'?>
<svg xmlns="http://www.w3.org/2000/svg" width="192" height="192" version="1" id="svg22">
  <defs>
    <filter style="color-interpolation-filters:sRGB" id="filter885" x="0.04" width="1.07" y="0.07" height="1.13">
      <feGaussianBlur stdDeviation="2.36"/>
    </filter>
    <filter style="color-interpolation-filters:sRGB" id="filter901" x="0.05" width="1.10" y="0.05" height="1.09">
      <feGaussianBlur stdDeviation="2.32"/>
    </filter>
  </defs>
  <path d="m 159.81,24.21 c -1.17,0.02 -2.52,0.10 -4.05,0.38 L 68.55,41.76 C 55.64,43.04 56,52 56,56 v 83.04 c 14.12,3.65 23.99,-9.62 24,4.96 V 63.72 L 144,50.69 V 119.04 c 14.12,3.65 23.99,-9.62 24,4.96 V 34.40 c 0.00,-3.50 0.02,-10.07 -8.19,-10.19 z" style="filter:url(#filter901);opacity:0.20"/>
  <path d="m 159.81,20.21 c -1.17,0.02 -2.52,0.10 -4.05,0.38 L 68.55,37.76 C 55.64,39.04 56,48 56,52 v 83.04 c 14.12,3.65 23.99,-9.62 24,4.96 V 59.72 L 144,46.69 V 115.04 c 14.12,3.65 23.99,-9.62 24,4.96 V 30.40 c 0.00,-3.50 0.02,-10.07 -8.19,-10.19 z" style="fill:#378006"/>
  <path style="filter:url(#filter885);opacity:0.20" d="M 136 92 A 32 32 0 0 0 104 124 A 32 32 0 0 0 136 156 A 32 32 0 0 0 168 124 A 32 32 0 0 0 136 92 z M 48 112 A 32 32 0 0 0 16 144 A 32 32 0 0 0 48 176 A 32 32 0 0 0 80 144 A 32 32 0 0 0 48 112 z "/>
  <circle r="32" cy="140" cx="48" style="fill:#20bb63"/>
  <circle r="32" cy="120" cx="136" style="fill:#20bb63"/>
  <path style="opacity:0.10;fill:#ffffff" d="M 159.81 20.21 C 158.64 20.19 157.30 20.31 155.77 20.59 L 68.55 37.76 C 55.64 39.04 56 48 56 52 L 56 53 C 56 49 55.64 40.04 68.55 38.76 L 155.77 21.59 C 157.30 21.31 158.64 21.19 159.81 21.21 C 168.02 21.33 168.00 27.90 168 31.40 L 168 30.40 C 168.00 26.90 168.02 20.33 159.81 20.21 z "/>
  <path style="opacity:0.20;fill:#ffffff" d="M 136 88 A 32 32 0 0 0 104 120 A 32 32 0 0 0 104.02 120.49 A 32 32 0 0 1 136 89 A 32 32 0 0 1 167.97 120.50 A 32 32 0 0 0 168 120 A 32 32 0 0 0 136 88 z M 48 108 A 32 32 0 0 0 16 140 A 32 32 0 0 0 16.02 140.49 A 32 32 0 0 1 48 109 A 32 32 0 0 1 79.97 140.50 A 32 32 0 0 0 80 140 A 32 32 0 0 0 48 108 z "/>
</svg>
