<?xml version='1.0' encoding='utf-8'?>
<svg xmlns="http://www.w3.org/2000/svg" width="192" height="192" version="1" id="svg36">
  <defs>
    <filter style="color-interpolation-filters:sRGB" id="filter879" x="0.06" width="1.12" y="0.04" height="1.08">
      <feGaussianBlur stdDeviation="2.72"/>
    </filter>
    <filter style="color-interpolation-filters:sRGB" id="filter907" x="0.04" width="1.07" y="0.07" height="1.13">
      <feGaussianBlur stdDeviation="2.12"/>
    </filter>
  </defs>
  <rect width="112" height="160" x="-156" y="-176" rx="8" ry="8" transform="matrix(0,-1,-1,0,0,0)" style="filter:url(#filter879);opacity:0.20;fill:#000000"/>
  <rect style="fill:#4f4f4f" transform="matrix(0,-1,-1,0,0,0)" ry="8" rx="8" y="-176" x="-152" height="160" width="112"/>
  <path d="m 36,66 a 8,8 0 0 0 -8,8 8,8 0 0 0 8,8 8,8 0 0 0 8,-8 8,8 0 0 0 -8,-8 z m 24,0 a 8,8 0 0 0 -8,8 8,8 0 0 0 8,8 8,8 0 0 0 8,-8 8,8 0 0 0 -8,-8 z m 24,0 a 8,8 0 0 0 -8,8 8,8 0 0 0 8,8 8,8 0 0 0 8,-8 8,8 0 0 0 -8,-8 z m 24,0 a 8,8 0 0 0 -8,8 8,8 0 0 0 8,8 8,8 0 0 0 8,-8 8,8 0 0 0 -8,-8 z m 24,0 a 8,8 0 0 0 -8,8 8,8 0 0 0 8,8 8,8 0 0 0 8,-8 8,8 0 0 0 -8,-8 z m 24,0 a 8,8 0 0 0 -8,8 8,8 0 0 0 8,8 8,8 0 0 0 8,-8 8,8 0 0 0 -8,-8 z M 48,98 a 8,8 0 0 0 -8,8 8,8 0 0 0 8,8 8,8 0 0 0 8,-8 8,8 0 0 0 -8,-8 z m 24,0 a 8,8 0 0 0 -8,8 8,8 0 0 0 8,8 8,8 0 0 0 8,-8 8,8 0 0 0 -8,-8 z m 24,0 a 8,8 0 0 0 -8,8 8,8 0 0 0 8,8 8,8 0 0 0 8,-8 8,8 0 0 0 -8,-8 z m 24,0 a 8,8 0 0 0 -8,8 8,8 0 0 0 8,8 8,8 0 0 0 8,-8 8,8 0 0 0 -8,-8 z m 24,0 a 8,8 0 0 0 -8,8 8,8 0 0 0 8,8 8,8 0 0 0 8,-8 8,8 0 0 0 -8,-8 z M 40,126 c -2.22,0 -4,1.78 -4,4 v 8 c 0,2.22 1.78,4 4,4 h 112 c 2.22,0 4,-1.78 4,-4 v -8 c 0,-2.22 -1.78,-4 -4,-4 z" style="filter:url(#filter907);opacity:0.20"/>
  <rect style="fill:#e4e4e4" ry="4" rx="4" y="124" x="36" height="16" width="120"/>
  <path style="fill:#e4e4e4" d="m 56,104 a 8,8 0 0 1 -8,8 8,8 0 0 1 -8,-8 8,8 0 0 1 8,-8 8,8 0 0 1 8,8 z"/>
  <path style="fill:#e4e4e4" d="m 80,104 a 8,8 0 0 1 -8,8 8,8 0 0 1 -8,-8 8,8 0 0 1 8,-8 8,8 0 0 1 8,8 z"/>
  <path style="fill:#e4e4e4" d="m 104,104 a 8,8 0 0 1 -8,8 8,8 0 0 1 -8,-8 8,8 0 0 1 8,-8 8,8 0 0 1 8,8 z"/>
  <path style="fill:#e4e4e4" d="m 128,104 a 8,8 0 0 1 -8,8 8,8 0 0 1 -8,-8 8,8 0 0 1 8,-8 8,8 0 0 1 8,8 z"/>
  <path style="fill:#e4e4e4" d="m 152,104 a 8,8 0 0 1 -8,8 8,8 0 0 1 -8,-8 8,8 0 0 1 8,-8 8,8 0 0 1 8,8 z"/>
  <path style="fill:#e4e4e4" d="m 140,72 a 8,8 0 0 1 -8,8 8,8 0 0 1 -8,-8 8,8 0 0 1 8,-8 8,8 0 0 1 8,8 z"/>
  <path style="fill:#e4e4e4" d="m 68,72 a 8,8 0 0 1 -8,8 8,8 0 0 1 -8,-8 8,8 0 0 1 8,-8 8,8 0 0 1 8,8 z"/>
  <path style="fill:#e4e4e4" d="m 44,72 a 8,8 0 0 1 -8,8 8,8 0 0 1 -8,-8 8,8 0 0 1 8,-8 8,8 0 0 1 8,8 z"/>
  <path style="fill:#e4e4e4" d="m 92,72 a 8,8 0 0 1 -8,8 8,8 0 0 1 -8,-8 8,8 0 0 1 8,-8 8,8 0 0 1 8,8 z"/>
  <path style="fill:#e4e4e4" d="m 116,72 a 8,8 0 0 1 -8,8 8,8 0 0 1 -8,-8 8,8 0 0 1 8,-8 8,8 0 0 1 8,8 z"/>
  <path style="fill:#e4e4e4" d="m 164,72 a 8,8 0 0 1 -8,8 8,8 0 0 1 -8,-8 8,8 0 0 1 8,-8 8,8 0 0 1 8,8 z"/>
  <path style="opacity:0.10;fill:#ffffff" d="M 24 40 C 19.57 40 16 43.57 16 48 L 16 49 C 16 44.57 19.57 41 24 41 L 168 41 C 172.43 41 176 44.57 176 49 L 176 48 C 176 43.57 172.43 40 168 40 L 24 40 z "/>
</svg>
