<svg xmlns="http://www.w3.org/2000/svg" id="svg48" width="192" height="192" version="1"><defs><filter style="color-interpolation-filters:sRGB" id="filter903" width="1.09" height="1.1" x=".05" y=".05"><feGaussianBlur stdDeviation="3.04"/></filter><filter style="color-interpolation-filters:sRGB" id="filter919" width="1.1" height="1.1" x=".05" y=".05"><feGaussianBlur stdDeviation=".48"/></filter><filter style="color-interpolation-filters:sRGB" id="filter936" width="1.05" height="1.38" x=".03" y=".19"><feGaussianBlur stdDeviation="1.28"/></filter><filter style="color-interpolation-filters:sRGB" id="filter944" width="1.03" height="1.12" x=".01" y=".06"><feGaussianBlur stdDeviation="1"/></filter></defs><path style="filter:url(#filter903);opacity:.2;fill:#000" d="m 24,28 c -4.43,0 -8,3.57 -8,8 V 67.60 68 164 c 0,4.43 3.57,8 8,8 h 144 c 4.43,0 8,-3.57 8,-8 V 68 67.60 36 c 0,-4.43 -3.57,-8 -8,-8 z"/><path d="M 16,63.60 V 160 c 0,4.43 3.57,8 8,8 h 144 c 4.43,0 8,-3.57 8,-8 V 63.60 Z" style="fill:#e4e4e4"/><path d="M 176,66 V 34 c 0,-4.43 -3.57,-8 -8,-8 H 24 c -4.43,0 -8,3.57 -8,8 v 32 z" style="filter:url(#filter944);opacity:.2"/><path d="M 176,64 V 32 c 0,-4.43 -3.57,-8 -8,-8 H 24 c -4.43,0 -8,3.57 -8,8 v 32 z" style="fill:#f54b3e"/><path style="opacity:.2;fill:#fff" d="M 24 24 C 19.57 24 16 27.57 16 32 L 16 33 C 16 28.57 19.57 25 24 25 L 168 25 C 172.43 25 176 28.57 176 33 L 176 32 C 176 27.57 172.43 24 168 24 L 24 24 z"/><rect width="24" height="24" x="132" y="104" style="opacity:.2"/><rect width="24" height="24" x="68" y="104" style="opacity:.2"/><rect width="24" height="24" x="36" y="104" style="opacity:.2"/><rect width="24" height="24" x="100" y="136" style="opacity:.2"/><rect width="24" height="24" x="132" y="136" style="opacity:.2"/><rect width="24" height="24" x="68" y="136" style="opacity:.2"/><rect width="24" height="24" x="36" y="136" style="opacity:.2"/><rect width="24" height="24" x="100" y="72" style="opacity:.2"/><rect width="24" height="24" x="132" y="72" style="opacity:.2"/><rect width="24" height="24" x="68" y="72" style="opacity:.2"/><rect width="24" height="24" x="36" y="72" style="opacity:.2"/><circle cx="112" cy="118" r="12" style="filter:url(#filter919);opacity:.1"/><circle cx="112" cy="116" r="12" style="fill:#f54b3e"/><path style="filter:url(#filter936);opacity:.2" d="M 48 38 A 8 8 0 0 0 40 46 A 8 8 0 0 0 48 54 A 8 8 0 0 0 56 46 A 8 8 0 0 0 48 38 z M 144 38 A 8 8 0 0 0 136 46 A 8 8 0 0 0 144 54 A 8 8 0 0 0 152 46 A 8 8 0 0 0 144 38 z"/><circle cx="48" cy="44" r="8" style="fill:#fff"/><circle cx="144" cy="44" r="8" style="fill:#fff"/></svg>