<svg xmlns="http://www.w3.org/2000/svg" id="svg14" width="192" height="192" version="1.1"><defs><filter style="color-interpolation-filters:sRGB" id="filter848" width="1.1" height="1.1" x=".05" y=".05"><feGaussianBlur stdDeviation="3.2"/></filter><filter style="color-interpolation-filters:sRGB" id="filter864" width="1.1" height="1.1" x=".05" y=".05"><feGaussianBlur stdDeviation="2.24"/></filter></defs><circle cx="96" cy="100" r="80" style="filter:url(#filter848);opacity:.2"/><circle cx="96" cy="96" r="80" style="fill:#e05048"/><path style="opacity:.2;fill:#fff" d="M 96 16 A 80 80 0 0 0 16 96 A 80 80 0 0 0 16.02 96.47 A 80 80 0 0 1 96 17 A 80 80 0 0 1 175.97 96.51 A 80 80 0 0 0 176 96 A 80 80 0 0 0 96 16 z"/><circle cx="96" cy="98" r="56" style="filter:url(#filter864);opacity:.2"/><circle cx="96" cy="96" r="56" style="fill:#fff"/></svg>