<svg xmlns="http://www.w3.org/2000/svg" id="svg28" width="192" height="192" version="1"><defs><filter style="color-interpolation-filters:sRGB" id="filter865" width="1.1" height="1.1" x=".05" y=".05"><feGaussianBlur stdDeviation="3.44"/></filter><filter style="color-interpolation-filters:sRGB" id="filter884" width="1.1" height="1.1" x=".05" y=".05"><feGaussianBlur stdDeviation="2.36"/></filter><filter style="color-interpolation-filters:sRGB" id="filter900" width="1.1" height="1.1" x=".05" y=".05"><feGaussianBlur stdDeviation=".85"/></filter><filter style="color-interpolation-filters:sRGB" id="filter916" width="1.1" height="1.1" x=".05" y=".05"><feGaussianBlur stdDeviation=".85"/></filter><filter style="color-interpolation-filters:sRGB" id="filter932" width="1.1" height="1.1" x=".05" y=".05"><feGaussianBlur stdDeviation=".32"/></filter></defs><path d="m 168,8 c -11.05,0 -20,8.95 -20,20 0.30,3.31 0.46,6.50 -1.91,9.59 C 132.40,26.60 115.01,20 96,20 51.68,20 16,55.68 16,100 c 0,44.32 35.68,80 80,80 44.32,0 80,-35.68 80,-80 C 176,81.45 169.69,64.47 159.18,50.93 162.03,48.94 164.96,47.76 168,48 179.05,48 188,39.05 188,28 188,16.95 179.05,8 168,8 Z m 0,12 c 4.42,0 8,3.58 8,8 0,4.42 -3.58,8 -8,8 -4.42,0 -8,-3.58 -8,-8 0,-4.42 3.58,-8 8,-8 z" style="filter:url(#filter865);opacity:.2"/><path d="m 168,4 c -11.05,0 -20,8.95 -20,20 0.30,3.31 0.46,6.50 -1.91,9.59 C 132.40,22.60 115.01,16 96,16 51.68,16 16,51.68 16,96 c 0,44.32 35.68,80 80,80 44.32,0 80,-35.68 80,-80 C 176,77.45 169.69,60.47 159.18,46.93 162.03,44.94 164.96,43.76 168,44 179.05,44 188,35.05 188,24 188,12.95 179.05,4 168,4 Z m 0,12 c 4.42,0 8,3.58 8,8 0,4.42 -3.58,8 -8,8 -4.42,0 -8,-3.58 -8,-8 0,-4.42 3.58,-8 8,-8 z" style="fill:#4f4f4f"/><path d="M 84.95,41.06 A 60,60 0 0 0 37.06,88.95 L 44,93.00 l 12,7 -12,7 -6.94,4.05 A 60,60 0 0 0 84.95,158.94 L 89,152.00 l 7,-12 7,12 4.05,6.94 A 60,60 0 0 0 154.94,111.05 L 148,107.00 l -12,-7 12,-7 6.94,-4.05 A 60,60 0 0 0 107.05,41.06 L 103,48.00 l -7,12 -7,-12 z" style="filter:url(#filter884);opacity:.2"/><path d="M 84.95,37.06 A 60,60 0 0 0 37.06,84.95 L 44,89 l 12,7 -12,7 -6.94,4.05 A 60,60 0 0 0 84.95,154.94 L 89,148 l 7,-12 7,12 4.05,6.94 A 60,60 0 0 0 154.94,107.05 L 148,103 l -12,-7 12,-7 6.94,-4.05 A 60,60 0 0 0 107.05,37.06 L 103,44 96,56 89,44 Z" style="fill:#fff"/><path d="m 129.94,131.94 -12.73,-21.21 -12.73,-21.21 -8.49,8.49 -8.49,8.49 21.21,12.73 z" style="filter:url(#filter900);opacity:.2"/><path d="m 62.06,64.06 21.21,12.73 21.21,12.73 -8.49,8.49 -8.49,8.49 -12.73,-21.21 z" style="filter:url(#filter916);opacity:.2"/><path d="m 129.94,129.94 -12.73,-21.21 -12.73,-21.21 -8.49,8.49 -8.49,8.49 21.21,12.73 z" style="fill:#3d7fdb"/><path d="m 62.06,62.06 21.21,12.73 21.21,12.73 -8.49,8.49 -8.49,8.49 -12.73,-21.21 z" style="fill:#db4a3d"/><circle cx="96" cy="98" r="8" style="filter:url(#filter932);opacity:.1"/><circle cx="96" cy="96" r="8" style="fill:#fff"/><path style="opacity:.1;fill:#fff" d="M 168 4 C 156.95 4 148 12.95 148 24 C 148.01 24.13 148.01 24.26 148.02 24.39 C 148.34 13.63 157.16 5 168 5 C 178.83 5 187.64 13.60 187.98 24.35 C 187.99 24.23 188 24.12 188 24 C 188 12.95 179.05 4 168 4 z M 96 16 C 51.68 16 16 51.68 16 96 C 16 96.12 16.00 96.23 16.01 96.34 C 16.36 52.33 51.90 17 96 17 C 115.01 17 132.40 23.60 146.09 34.59 C 147.15 32.33 147.83 30.01 148.01 27.63 C 148.01 27.76 148.01 27.88 148.01 28.01 C 148.03 27.55 148.03 27.09 148.01 26.63 C 147.83 29.01 147.15 31.33 146.09 33.59 C 132.40 22.60 115.01 16 96 16 z M 160.10 25 C 160.06 25.33 160 25.66 160 26 C 160 26.20 160.02 26.39 160.03 26.58 C 160.05 26.39 160.08 26.19 160.10 26 C 160.60 29.94 163.92 33 168 33 C 172.08 33 175.40 29.94 175.90 26 C 175.92 26.19 175.95 26.39 175.97 26.58 C 175.98 26.39 176 26.20 176 26 C 176 25.66 175.94 25.33 175.90 25 C 175.40 28.94 172.08 32 168 32 C 163.92 32 160.60 28.94 160.10 25 z M 160.17 48.31 C 159.84 48.52 159.51 48.70 159.18 48.93 C 159.35 49.15 159.52 49.39 159.69 49.61 C 159.85 49.52 160.01 49.41 160.17 49.31 C 169.97 62.49 175.87 78.73 175.99 96.45 C 175.99 96.30 176 96.15 176 96 C 176 78.07 170.07 61.62 160.17 48.31 z"/></svg>