<?xml version='1.0' encoding='utf-8'?>
<svg xmlns="http://www.w3.org/2000/svg" width="192" height="192" version="1" id="svg30">
  <defs>
    <filter style="color-interpolation-filters:sRGB" id="filter895" x="-0.050250001" width="1.1005" y="-0.045942858" height="1.0918857">
      <feGaussianBlur stdDeviation="2.68"/>
    </filter>
    <filter style="color-interpolation-filters:sRGB" id="filter901" x="-0.051692308" width="1.1033846" y="-0.0448" height="1.0896">
      <feGaussianBlur stdDeviation="2.24"/>
    </filter>
  </defs>
  <rect style="filter:url(#filter895);opacity:0.2" width="128" height="140" x="32" y="40" rx="12.684" ry="12.46"/>
  <path style="fill:#989898" d="M 96,12 A 16,16 0 0 0 80,28 16,16 0 0 0 96,44 16,16 0 0 0 112,28 16,16 0 0 0 96,12 Z m 0,8 a 8,8 0 0 1 8,8 8,8 0 0 1 -8,8 8,8 0 0 1 -8,-8 8,8 0 0 1 8,-8 z"/>
  <rect style="fill:#c48f61" width="128" height="140" x="32" y="36" rx="12.684" ry="12.46"/>
  <path style="opacity:0.1;fill:#ffffff" d="M 44.6875 36 C 37.659663 36 32 41.558598 32 48.460938 L 32 49.460938 C 32 42.558598 37.659663 37 44.6875 37 L 147.3125 37 C 154.34034 37 160 42.558597 160 49.460938 L 160 48.460938 C 160 41.558598 154.34034 36 147.3125 36 L 44.6875 36 z "/>
  <rect style="filter:url(#filter901);opacity:0.2" width="104" height="120" x="44" y="48"/>
  <rect style="fill:#ffffff" width="104" height="120" x="44" y="44"/>
  <path style="fill:#989898" d="M 69.335936,28 C 66.381268,28 64,30.545222 64,33.710938 V 42.289064 48 h 64 V 42.289064 33.710938 C 128,30.545222 125.61873,28 122.66406,28 H 104 a 8,8 0 0 1 -8,8 8,8 0 0 1 -8,-8 z"/>
  <path style="fill:none;stroke:#5f5f5f;stroke-width:12;stroke-linecap:round" d="m 61.679864,105.99998 8.425412,6.02825 L 82,97.985888"/>
  <path style="fill:none;stroke:#c8c8c8;stroke-width:12;stroke-linecap:round" d="m 102,69.9994 h 31.6"/>
  <path style="fill:none;stroke:#5f5f5f;stroke-width:12;stroke-linecap:round" d="m 61.679864,69.99998 8.425408,6.028248 11.894724,-14.04234"/>
  <path style="fill:none;stroke:#5f5f5f;stroke-width:12;stroke-linecap:round" d="m 61.679864,142.00002 8.425408,6.02821 11.894724,-14.04234"/>
  <path style="fill:none;stroke:#c8c8c8;stroke-width:12;stroke-linecap:round" d="m 102,105.9994 h 31.6"/>
  <path style="fill:none;stroke:#c8c8c8;stroke-width:12;stroke-linecap:round" d="m 102,141.9994 h 31.6"/>
  <path style="opacity:0.1;fill:#ffffff" d="M 96 12 A 16 16 0 0 0 80 28 L 69.335938 28 C 66.38127 28 64 30.545222 64 33.710938 L 64 34.710938 C 64 31.545222 66.38127 29 69.335938 29 L 80 29 A 16 16 0 0 1 96 13 A 16 16 0 0 1 112 29 L 122.66406 29 C 125.61873 29 128 31.545222 128 34.710938 L 128 33.710938 C 128 30.545222 125.61873 28 122.66406 28 L 112 28 A 16 16 0 0 0 96 12 z M 103.74219 29.984375 A 8 8 0 0 1 96 36 A 8 8 0 0 1 88.257812 30.015625 A 8 8 0 0 0 88 32 A 8 8 0 0 0 88.017578 32.519531 A 8 8 0 0 1 88.257812 31.015625 A 8 8 0 0 0 96 37 A 8 8 0 0 0 103.74219 30.984375 A 8 8 0 0 1 103.98438 32.494141 A 8 8 0 0 0 104 32 A 8 8 0 0 0 103.74219 29.984375 z "/>
</svg>
