<?xml version='1.0' encoding='utf-8'?>
<svg xmlns="http://www.w3.org/2000/svg" width="192" height="192" version="1" id="svg14">
  <defs>
    <filter style="color-interpolation-filters:sRGB" id="filter850" x="0.05" width="1.10" y="0.05" height="1.10">
      <feGaussianBlur stdDeviation="3.20"/>
    </filter>
    <filter style="color-interpolation-filters:sRGB" id="filter888" x="0.05" width="1.10" y="0.05" height="1.10">
      <feGaussianBlur stdDeviation="2.00"/>
    </filter>
  </defs>
  <rect style="filter:url(#filter850);opacity:0.20;fill:#000000" width="160" height="160" x="-180" y="-176" rx="80" ry="80" transform="matrix(0,-1,-1,0,0,0)"/>
  <rect transform="matrix(0,-1,-1,0,0,0)" ry="80" rx="80" y="-176" x="-176" height="160" width="160" style="fill:#3b4eda"/>
  <path style="opacity:0.10;fill:#ffffff" d="m 96,16 c -44.32,0 -80,35.68 -80,80 0,0.12 0.01,0.23 0.01,0.35 C 16.36,52.33 51.90,17 96,17 140.10,17 175.64,52.33 175.99,96.35 175.99,96.23 176,96.12 176,96 176,51.68 140.32,16 96,16 Z"/>
  <path style="filter:url(#filter888);opacity:0.20;fill:#000000" d="m 96,50.00 c -2.81,0.01 -7.09,0.26 -8.39,3.71 0.52,1.18 -1.11,2.64 -1.65,4.10 -1.10,3.02 -2.41,6.01 -2.91,6.64 -1.36,1.74 -4.46,1.39 -10.14,-1.15 -1.28,0.57 -2.55,-1.09 -3.62,-1.50 -3.49,-1.30 -5.62,0.82 -8.61,3.74 -5.33,4.99 -5.26,4.36 -1.51,13.56 2.70,6.62 1.98,8.05 -5.55,11.10 -2.95,1.19 -5.87,2.59 -6.50,3.11 C 46.45,93.87 46.04,96.40 46,100.00 c 0.04,3.60 0.45,6.13 1.12,6.69 0.63,0.52 3.55,1.92 6.50,3.11 7.53,3.05 8.25,4.47 5.55,11.10 -3.75,9.20 -3.82,8.57 1.51,13.56 2.99,2.92 5.11,5.04 8.61,3.74 1.07,0.40 2.35,0.93 3.62,-1.50 5.68,-2.53 8.78,-2.88 10.14,-1.15 0.50,0.63 1.80,3.62 2.91,6.64 0.53,1.46 1.12,2.91 1.65,4.10 1.30,3.97 5.58,3.70 8.39,3.71 2.81,0.01 7.09,0.26 8.39,-3.71 0.52,-1.18 1.11,-2.64 1.65,-4.10 1.10,-3.02 2.41,-6.01 2.91,-6.64 1.36,-1.74 4.46,-1.39 10.14,1.15 1.28,0.57 2.55,1.09 3.62,1.50 3.49,1.30 5.62,0.82 8.61,-3.74 5.33,-4.99 5.26,-4.36 1.51,-13.56 -2.70,-6.62 -1.98,-8.05 5.55,-11.10 2.95,-1.19 5.87,-2.59 6.50,-3.11 0.67,0.56 1.08,-3.09 1.12,-6.69 0.04,-3.60 0.45,-6.13 -1.12,-6.69 0.63,0.52 -3.55,-1.92 -6.50,-3.11 -7.53,-3.05 -8.25,-4.47 -5.55,-11.10 3.75,-9.20 3.82,-8.57 -1.51,-13.56 -2.99,-2.92 -5.11,-5.04 -8.61,-3.74 -1.07,0.40 -2.35,0.93 -3.62,1.50 -5.68,2.53 -8.78,2.88 -10.14,1.15 0.50,0.63 -1.80,-3.62 -2.91,-6.64 0.53,-1.46 -1.12,-2.91 -1.65,-4.10 C 103.09,49.74 98.81,50.01 96,50.00 Z m 0.09,32 a 18,18 0 0 1 0.09,0 18,18 0 0 1 18,18 18,18 0 0 1 -18,18.00 18,18 0 0 1 -18,-18.00 18,18 0 0 1 17.91,-18 z"/>
  <path style="fill:#ffffff" d="M 96 46 C 93.19 46.01 88.91 45.74 87.61 49.71 C 87.09 50.90 86.50 52.35 85.97 53.81 C 84.86 56.83 83.55 59.82 83.06 60.45 C 81.69 62.19 78.60 61.84 72.91 59.30 C 71.64 58.73 70.36 58.21 69.29 57.81 C 65.80 56.50 63.67 58.63 60.68 61.55 C 55.35 66.54 55.42 65.91 59.17 75.11 C 61.87 81.73 61.15 83.16 53.62 86.21 C 50.67 87.40 47.75 88.80 47.12 89.31 C 46.45 89.87 46.04 92.40 46 96 C 46.04 99.60 46.45 102.13 47.12 102.69 C 47.75 103.20 50.67 104.60 53.62 105.79 C 61.15 108.84 61.87 110.27 59.17 116.89 C 55.42 126.09 55.35 125.46 60.68 130.45 C 63.67 133.37 65.80 135.50 69.29 134.19 C 70.36 133.79 71.64 133.27 72.91 132.70 C 78.60 130.16 81.69 129.81 83.06 131.55 C 83.55 132.18 84.86 135.17 85.97 138.19 C 86.50 139.65 87.09 141.10 87.61 142.29 C 88.91 146.26 93.19 145.99 96 146 C 98.81 145.99 103.09 146.26 104.39 142.29 C 104.91 141.10 105.50 139.65 106.03 138.19 C 107.14 135.17 108.45 132.18 108.94 131.55 C 110.31 129.81 113.40 130.16 119.09 132.70 C 120.36 133.27 121.64 133.79 122.71 134.19 C 126.20 135.50 128.33 133.37 131.32 130.45 C 136.65 125.46 136.58 126.09 132.83 116.89 C 130.13 110.27 130.85 108.84 138.38 105.79 C 141.33 104.60 144.25 103.20 144.88 102.69 C 145.55 102.13 145.96 99.60 146 96 C 145.96 92.40 145.55 89.87 144.88 89.31 C 144.25 88.80 141.33 87.40 138.38 86.21 C 130.85 83.16 130.13 81.73 132.83 75.11 C 136.58 65.91 136.65 66.54 131.32 61.55 C 128.33 58.63 126.20 56.50 122.71 57.81 C 121.64 58.21 120.36 58.73 119.09 59.30 C 113.40 61.84 110.31 62.19 108.94 60.45 C 108.45 59.82 107.14 56.83 106.03 53.81 C 105.50 52.35 104.91 50.90 104.39 49.71 C 103.09 45.74 98.81 46.01 96 46 z M 95.91 78 A 18 18 0 0 1 96 78 A 18 18 0 0 1 114 96 A 18 18 0 0 1 96 114 A 18 18 0 0 1 78 96 A 18 18 0 0 1 95.91 78 z "/>
</svg>
