<?xml version='1.0' encoding='utf-8'?>
<svg xmlns="http://www.w3.org/2000/svg" width="192" height="192" version="1" id="svg24">
  <defs>
    <filter style="color-interpolation-filters:sRGB" id="filter868" x="-0.048000001" width="1.096" y="-0.048000001" height="1.096">
      <feGaussianBlur stdDeviation="3.2"/>
    </filter>
    <filter style="color-interpolation-filters:sRGB" id="filter896" x="-0.048000002" width="1.096" y="-0.048000002" height="1.096">
      <feGaussianBlur stdDeviation="2.4"/>
    </filter>
    <filter style="color-interpolation-filters:sRGB" id="filter912" x="-0.048004287" width="1.0960086" y="-0.047995716" height="1.0959914">
      <feGaussianBlur stdDeviation="0.280025"/>
    </filter>
  </defs>
  <circle style="filter:url(#filter868);opacity:0.2;fill:#000000" cx="96" cy="100" r="80"/>
  <circle r="80" cy="96" cx="96" style="fill:#e65a2f"/>
  <rect transform="matrix(0,-1,-1,0,0,0)" ry="60" rx="60" y="-156" x="-160" height="120" width="120" style="filter:url(#filter896);opacity:0.2"/>
  <rect transform="matrix(0,-1,-1,0,0,0)" ry="60" rx="60" y="-156" x="-156" height="120" width="120" style="fill:#ff9907"/>
  <path style="opacity:0.2;fill:#ffffff" d="M 96 36 C 62.76 36 36 62.76 36 96 C 36 96.106976 36.012407 96.210784 36.017578 96.316406 C 36.383397 63.395561 62.98938 37 96 37 C 129.02046 37 155.63411 63.411152 155.98438 96.345703 C 155.98934 96.230422 156 96.116818 156 96 C 156 62.76 129.24 36 96 36 z "/>
  <g transform="matrix(4,0,0,4,-1876,-662)" style="filter:url(#filter912);opacity:0.2;enable-background:new">
    <path d="m 489,183 v 8.1875 c -0.32,-0.12 -0.64,-0.19 -1,-0.19 -1.6568,0 -3,1.3432 -3,3 0,1.6568 1.3432,3 3,3 1.6568,0 3,-1.3432 3,-3 v -7 h 6 v 4.1875 c -0.32,-0.12 -0.64,-0.19 -1,-0.19 -1.6568,0 -3,1.3432 -3,3 0,1.6568 1.3432,3 3,3 1.6568,0 3,-1.3432 3,-3 v -11 h -1 z"/>
  </g>
  <g transform="matrix(4,0,0,4,-1876,-664)" style="fill:#ffffff;enable-background:new">
    <path d="m 489,183 v 8.1875 c -0.32,-0.12 -0.64,-0.19 -1,-0.19 -1.6568,0 -3,1.3432 -3,3 0,1.6568 1.3432,3 3,3 1.6568,0 3,-1.3432 3,-3 v -7 h 6 v 4.1875 c -0.32,-0.12 -0.64,-0.19 -1,-0.19 -1.6568,0 -3,1.3432 -3,3 0,1.6568 1.3432,3 3,3 1.6568,0 3,-1.3432 3,-3 v -11 h -1 z" style="fill:#ffffff"/>
  </g>
  <path style="opacity:0.2;fill:#ffffff" d="M 96 16 A 80 80 0 0 0 16 96 A 80 80 0 0 0 16.019531 96.472656 A 80 80 0 0 1 96 17 A 80 80 0 0 1 175.97461 96.513672 A 80 80 0 0 0 176 96 A 80 80 0 0 0 96 16 z "/>
</svg>
