<?xml version='1.0' encoding='utf-8'?>
<svg xmlns="http://www.w3.org/2000/svg" width="192" height="192" version="1" id="svg16">
  <defs>
    <filter style="color-interpolation-filters:sRGB" id="filter876" x="0.05" width="1.09" y="0.05" height="1.10">
      <feGaussianBlur stdDeviation="3.04"/>
    </filter>
    <filter style="color-interpolation-filters:sRGB" id="filter892" x="0.04" width="1.09" y="0.05" height="1.10">
      <feGaussianBlur stdDeviation="1.92"/>
    </filter>
  </defs>
  <path style="filter:url(#filter876);opacity:0.20;fill:#000000" d="M 24.89,28 C 19.96,28 16,33.08 16,38 v 104 c 0,4.92 3.96,10 8.89,10 h 75.11 l 20,20 20,-20 h 27.11 c 4.92,0 8.89,-5.08 8.89,-10 V 38 c 0,-4.92 -3.96,-10 -8.89,-10 z"/>
  <path d="M 24.89,24 C 19.96,24 16,29.08 16,34 v 104 c 0,4.92 3.96,10 8.89,10 h 75.11 l 20,20 20,-20 h 27.11 c 4.92,0 8.89,-5.08 8.89,-10 V 34 c 0,-4.92 -3.96,-10 -8.89,-10 z" style="fill:#ff8e34"/>
  <path style="opacity:0.20;fill:#ffffff" d="M 24.89 24 C 19.97 24 16 29.08 16 34 L 16 35 C 16 30.08 19.97 25 24.89 25 L 167.11 25 C 172.03 25 176.00 30.08 176.00 35 L 176.00 34 C 176.00 29.08 172.03 24 167.11 24 L 24.89 24 z "/>
  <path style="filter:url(#filter892);opacity:0.20;fill:#000000" d="M 132,44 A 12,12 0 0 0 120,56 12,12 0 0 0 132,68 12,12 0 0 0 144,56 12,12 0 0 0 132,44 Z M 76,68 58,100 40,132 h 36 36 24 L 122,108 108,84 96.29,104.07 94,100 Z"/>
  <path style="fill:#ffffff" d="m 16.14,16.53 4.41,7.63 4.41,7.63 -8.81,0 -8.81,0 4.41,-7.63 z" transform="matrix(4.08,0,0,4.19,10.06,-5.33)"/>
  <path d="m 27.22,18.76 3.72,6.44 3.72,6.44 -7.44,0 -7.44,0.00 3.72,-6.44 z" style="fill:#ffffff" transform="matrix(3.76,0,0,3.73,5.53,10.08)"/>
  <circle style="fill:#ffffff" cx="132" cy="52" r="12"/>
</svg>
