<?xml version='1.0' encoding='utf-8'?>
<svg xmlns="http://www.w3.org/2000/svg" width="192" height="192" version="1.1" id="svg20">
  <defs>
    <filter style="color-interpolation-filters:sRGB" id="filter869" x="0.04" width="1.07" y="0.07" height="1.14">
      <feGaussianBlur stdDeviation="2.40"/>
    </filter>
    <filter style="color-interpolation-filters:sRGB" id="filter913" x="0.03" width="1.06" y="0.17" height="1.34">
      <feGaussianBlur stdDeviation="1.12"/>
    </filter>
  </defs>
  <path style="filter:url(#filter869);opacity:0.20" d="M 168.04,140 H 23.77 C 23.77,140 15.64,140 16.01,132.30 19.90,91.73 54.24,60 96.02,60 137.67,60 171.91,91.53 175.99,131.92 176.39,140 168.04,140 168.04,140 Z"/>
  <path style="fill:none;stroke:#2e9551;stroke-width:16;stroke-linecap:round" d="M 52,76 36,52"/>
  <path style="fill:none;stroke:#2e9551;stroke-width:16;stroke-linecap:round" d="M 140,76 156,52"/>
  <path style="opacity:0.10;fill:#ffffff" d="M 35.91 43.91 A 8.00 8.00 0 0 0 27.96 52.35 A 8.00 8.00 0 0 1 35.91 44.91 A 8.00 8.00 0 0 1 42.66 48.56 L 58.66 72.56 A 8.00 8.00 0 0 1 60.05 76.61 A 8.00 8.00 0 0 0 58.66 71.56 L 42.66 47.56 A 8.00 8.00 0 0 0 35.91 43.91 z M 155.84 43.91 A 8.00 8.00 0 0 0 149.34 47.56 L 133.34 71.56 A 8.00 8.00 0 0 0 131.96 76.59 A 8.00 8.00 0 0 1 133.34 72.56 L 149.34 48.56 A 8.00 8.00 0 0 1 155.84 44.91 A 8.00 8.00 0 0 1 164.03 52.42 A 8.00 8.00 0 0 0 155.84 43.91 z "/>
  <path style="fill:#30dd81" d="M 168.04,136 H 23.77 C 23.77,136 15.64,136 16.01,128.30 19.90,87.73 54.24,56 96.02,56 137.67,56 171.91,87.53 175.99,127.92 176.39,136 168.04,136 168.04,136 Z"/>
  <path style="filter:url(#filter913);opacity:0.10" d="M 56,98 A 8,8 0 0 0 48,106 8,8 0 0 0 56,114 8,8 0 0 0 64,106 8,8 0 0 0 56,98 Z M 136,98 A 8,8 0 0 0 128,106 8,8 0 0 0 136,114 8,8 0 0 0 144,106 8,8 0 0 0 136,98 Z"/>
  <circle style="fill:#ffffff" cx="56" cy="104" r="8"/>
  <circle style="fill:#ffffff" cx="-136" cy="104" r="8" transform="scale(-1,1)"/>
  <path style="opacity:0.20;fill:#ffffff" d="M 96.02 56 C 54.24 56 19.91 87.73 16.02 128.30 C 16.00 128.60 16.02 128.87 16.03 129.15 C 20.00 88.65 54.29 57 96.02 57 C 137.62 57 171.85 88.47 175.97 128.80 C 175.98 128.51 176.00 128.23 175.98 127.91 C 171.91 87.53 137.66 56 96.02 56 z "/>
</svg>
