<?xml version='1.0' encoding='utf-8'?>
<svg xmlns="http://www.w3.org/2000/svg" width="192" height="192" version="1" id="svg14">
  <defs>
    <filter style="color-interpolation-filters:sRGB" id="filter850" x="-0.054000002" width="1.108" y="-0.043200002" height="1.0864">
      <feGaussianBlur stdDeviation="2.88"/>
    </filter>
    <filter style="color-interpolation-filters:sRGB" id="filter866" x="-0.035294118" width="1.0705882" y="-0.075" height="1.15">
      <feGaussianBlur stdDeviation="2"/>
    </filter>
  </defs>
  <rect style="filter:url(#filter850);opacity:0.2;fill:#000000" width="128" height="160" x="-164" y="-176" rx="8" ry="8" transform="matrix(0,-1,-1,0,0,0)"/>
  <rect transform="matrix(0,-1,-1,0,0,0)" ry="8" rx="8" y="-176" x="-160" height="160" width="128" style="fill:#7846da"/>
  <path style="opacity:0.1;fill:#ffffff" d="M 24 32 C 19.568 32 16 35.568 16 40 L 16 41 C 16 36.568 19.568 33 24 33 L 168 33 C 172.432 33 176 36.568 176 41 L 176 40 C 176 35.568 172.432 32 168 32 L 24 32 z "/>
  <path d="m 60,66 a 32,32 0 0 0 -32,32 32,32 0 0 0 32,32 h 72 a 32,32 0 0 0 32,-32 32,32 0 0 0 -32,-32 32,32 0 0 0 -32,32 32,32 0 0 0 7.05469,20 H 84.976564 A 32,32 0 0 0 92,98 32,32 0 0 0 60,66 Z m 0,12 A 20,20 0 0 1 80,98 20,20 0 0 1 60,118 20,20 0 0 1 40,98 20,20 0 0 1 60,78 Z m 72,0 a 20,20 0 0 1 20,20 20,20 0 0 1 -20,20 20,20 0 0 1 -20,-20 20,20 0 0 1 20,-20 z" style="filter:url(#filter866);opacity:0.2"/>
  <path d="m 60,64 a 32,32 0 0 0 -32,32 32,32 0 0 0 32,32 h 72 a 32,32 0 0 0 32,-32 32,32 0 0 0 -32,-32 32,32 0 0 0 -32,32 32,32 0 0 0 7.05469,20 H 84.976564 A 32,32 0 0 0 92,96 32,32 0 0 0 60,64 Z m 0,12 A 20,20 0 0 1 80,96 20,20 0 0 1 60,116 20,20 0 0 1 40,96 20,20 0 0 1 60,76 Z m 72,0 a 20,20 0 0 1 20,20 20,20 0 0 1 -20,20 20,20 0 0 1 -20,-20 20,20 0 0 1 20,-20 z" style="fill:#ffffff"/>
</svg>
