<?xml version='1.0' encoding='utf-8'?>
<svg xmlns="http://www.w3.org/2000/svg" width="192" height="192" version="1" id="svg26">
  <defs>
    <filter style="color-interpolation-filters:sRGB" id="filter867" x="-0.045599999" width="1.0912" y="-0.050666666" height="1.1013333">
      <feGaussianBlur stdDeviation="3.04"/>
    </filter>
    <filter style="color-interpolation-filters:sRGB" id="filter883" x="-0.047999999" width="1.096" y="-0.047999999" height="1.096">
      <feGaussianBlur stdDeviation="0.32"/>
    </filter>
    <filter style="color-interpolation-filters:sRGB" id="filter903" x="-0.04976389" width="1.0995278" y="-0.046356876" height="1.0927138">
      <feGaussianBlur stdDeviation="1.1589267"/>
    </filter>
  </defs>
  <path style="filter:url(#filter867);opacity:0.2;fill:#000000" d="m 28,28 c -6.648,0 -12,5.352 -12,12 v 100 20 c 0,6.648 5.352,12 12,12 h 136 c 6.648,0 12,-5.352 12,-12 V 140 40 c 0,-6.648 -5.352,-12 -12,-12 z"/>
  <path style="fill:#9c27b0" d="M 28,24 C 21.352,24 16,29.352 16,36 V 136 H 176 V 36 c 0,-6.648 -5.352,-12 -12,-12 z"/>
  <path style="opacity:0.1;fill:#ffffff" d="M 28 24 C 21.352 24 16 29.352 16 36 L 16 37 C 16 30.352 21.352 25 28 25 L 164 25 C 170.648 25 176 30.352 176 37 L 176 36 C 176 29.352 170.648 24 164 24 L 28 24 z "/>
  <path d="m 16,136 v 20 c 0,6.648 5.352,12 12,12 h 136 c 6.648,0 12,-5.352 12,-12 v -20 z" style="fill:#cccccc"/>
  <rect style="fill:#999999" ry="3.7119999" rx="4" y="148" x="112" height="8" width="52"/>
  <rect style="fill:#9c27b0" ry="4" rx="4" y="148" x="28" height="8" width="84"/>
  <circle r="8" cy="154" cx="112" style="filter:url(#filter883);opacity:0.1"/>
  <circle r="8" cy="152" cx="112" style="fill:#ffffff"/>
  <path d="m 74.36,53.99998 c -2.17428,-0.04 -2.54828,2.5864 -2.36856,4.4824 0.016,17.7448 -0.028,35.492 0.02,53.236 0.1912,2.1216 2.61744,2.96928 3.99688,1.65356 14.7428,-9.0848 36.1872,-18.1072 50.908,-27.2312 1.60628,-1.25584 0.99108,-4.1804 -0.8018,-4.7884 -14.7432,-9.0488 -36.1328,-18.1472 -50.888,-27.1652 -0.2756,-0.1232 -0.5718,-0.1868 -0.86816,-0.1872 z" style="filter:url(#filter903);opacity:0.2"/>
  <path d="m 74.36,52 c -2.17428,-0.04 -2.54828,2.5864 -2.36856,4.4824 0.016,17.7448 -0.028,35.492 0.02,53.236 0.1912,2.1216 2.61744,2.96928 3.99688,1.65356 14.7428,-9.0848 36.1872,-18.1072 50.908,-27.2312 1.60628,-1.25584 0.99108,-4.1804 -0.8018,-4.7884 -14.7432,-9.0488 -36.1328,-18.1472 -50.888,-27.1652 -0.2756,-0.1232 -0.5718,-0.1868 -0.86816,-0.1872 z" style="fill:#ffffff"/>
  <rect y="136" x="16" height="1" width="160" style="opacity:0.2;fill:#ffffff"/>
</svg>
