<svg xmlns="http://www.w3.org/2000/svg" id="svg50" width="192" height="192" version="1"><defs><filter style="color-interpolation-filters:sRGB" id="filter905" width="1.11" height="1.09" x=".05" y=".04"><feGaussianBlur stdDeviation="2.88"/></filter><filter style="color-interpolation-filters:sRGB" id="filter933" width="1.36" height="1.06" x=".18" y=".03"><feGaussianBlur stdDeviation="1.2"/></filter><filter style="color-interpolation-filters:sRGB" id="filter964" width="1.1" height="1.1" x=".05" y=".05"><feGaussianBlur stdDeviation=".96"/></filter><filter style="color-interpolation-filters:sRGB" id="filter980" width="1.1" height="1.1" x=".05" y=".05"><feGaussianBlur stdDeviation=".48"/></filter><filter style="color-interpolation-filters:sRGB" id="filter996" width="1.1" height="1.1" x=".05" y=".05"><feGaussianBlur stdDeviation=".32"/></filter></defs><rect width="128" height="160" x="32" y="24" rx="24" ry="24" style="filter:url(#filter905);opacity:.2"/><rect width="128" height="160" x="32" y="20" rx="24" ry="24" style="fill:#4f4f4f"/><circle cx="-42" cy="-140" r="8" transform="matrix(0,-1,-1,0,0,0)" style="filter:url(#filter996);opacity:.1"/><circle cx="-40" cy="-140" r="8" transform="matrix(0,-1,-1,0,0,0)" style="fill:#ff4d4d"/><circle cx="-96" cy="-96" r="32" transform="matrix(0,-1,-1,0,0,0)" style="opacity:.4"/><circle cx="-98" cy="96" r="24" transform="rotate(-90)" style="filter:url(#filter964);opacity:.2"/><circle cx="-96" cy="96" r="24" transform="rotate(-90)" style="fill:#00b1c4"/><circle cx="-98" cy="-96" r="12" transform="matrix(0,-1,-1,0,0,0)" style="filter:url(#filter980);opacity:.1"/><circle cx="-96" cy="-96" r="12" transform="matrix(0,-1,-1,0,0,0)" style="fill:#70f4ff"/><path style="opacity:.1;fill:#fff" d="M 96 72 A 24 24 0 0 0 72 96 A 24 24 0 0 0 72.02 96.43 A 24 24 0 0 1 96 73 A 24 24 0 0 1 119.98 96.51 A 24 24 0 0 0 120 96 A 24 24 0 0 0 96 72 z"/><path style="opacity:.2;fill:#fff" d="M 96 84 A 12 12 0 0 0 84 96 A 12 12 0 0 0 84.02 96.37 A 12 12 0 0 1 96 85 A 12 12 0 0 1 107.98 96.53 A 12 12 0 0 0 108 96 A 12 12 0 0 0 96 84 z"/><path style="opacity:.2;fill:#fff" d="M 140 32 A 8 8 0 0 0 132 40 A 8 8 0 0 0 132.02 40.41 A 8 8 0 0 1 140 33 A 8 8 0 0 1 147.97 40.45 A 8 8 0 0 0 148 40 A 8 8 0 0 0 140 32 z"/><circle cx="48" cy="152" r="4" style="opacity:.5"/><circle cx="64" cy="152" r="4" style="opacity:.5"/><circle cx="80" cy="152" r="4" style="opacity:.5"/><circle cx="96" cy="152" r="4" style="opacity:.5"/><circle cx="56" cy="164" r="4" style="opacity:.5"/><circle cx="72" cy="164" r="4" style="opacity:.5"/><circle cx="88" cy="164" r="4" style="opacity:.5"/><path style="opacity:.1;fill:#fff" d="M 56 20 C 42.70 20 32 30.70 32 44 L 32 45 C 32 31.70 42.70 21 56 21 L 136 21 C 149.30 21 160 31.70 160 45 L 160 44 C 160 30.70 149.30 20 136 20 L 56 20 z"/><rect width="16" height="104" x="16" y="50" rx="4" ry="4" style="filter:url(#filter933);opacity:.2"/><rect width="16" height="104" x="16" y="48" rx="4" ry="4" style="fill:#3f3f3f"/><path style="opacity:.1;fill:#fff" d="M 20 48 C 17.78 48 16 49.78 16 52 L 16 53 C 16 50.78 17.78 49 20 49 L 28 49 C 30.22 49 32 50.78 32 53 L 32 52 C 32 49.78 30.22 48 28 48 L 20 48 z"/></svg>