<?xml version='1.0' encoding='utf-8'?>
<svg xmlns="http://www.w3.org/2000/svg" width="192" height="192" version="1" id="svg16">
  <defs>
    <filter style="color-interpolation-filters:sRGB" id="filter876" x="-0.045599999" width="1.0912" y="-0.050666666" height="1.1013333">
      <feGaussianBlur stdDeviation="3.04"/>
    </filter>
    <filter style="color-interpolation-filters:sRGB" id="filter892" x="-0.044307691" width="1.0886154" y="-0.052363635" height="1.1047273">
      <feGaussianBlur stdDeviation="1.92"/>
    </filter>
  </defs>
  <path style="filter:url(#filter876);opacity:0.2;fill:#000000" d="M 24.8888,28 C 19.9644,28 16,33.0756 16,38 v 104 c 0,4.924 3.9644,10 8.8888,10 h 75.112 l 20,20 20,-20 h 27.1112 c 4.924,0 8.888,-5.076 8.888,-10 V 38 c 0,-4.9244 -3.964,-10 -8.888,-10 z"/>
  <path d="M 24.8888,24 C 19.9644,24 16,29.0756 16,34 v 104 c 0,4.924 3.9644,10 8.8888,10 h 75.112 l 20,20 20,-20 h 27.1112 c 4.924,0 8.888,-5.076 8.888,-10 V 34 c 0,-4.9244 -3.964,-10 -8.888,-10 z" style="fill:#ff8e34"/>
  <path style="opacity:0.2;fill:#ffffff" d="M 24.890625 24 C 19.965825 24 16 29.0756 16 34 L 16 35 C 16 30.0756 19.965825 25 24.890625 25 L 167.10742 25 C 172.03142 25 175.99805 30.0756 175.99805 35 L 175.99805 34 C 175.99805 29.0756 172.03142 24 167.10742 24 L 24.890625 24 z "/>
  <path style="filter:url(#filter892);opacity:0.2;fill:#000000" d="M 132,44 A 12,12 0 0 0 120,56 12,12 0 0 0 132,68 12,12 0 0 0 144,56 12,12 0 0 0 132,44 Z M 76,68 58,100 40,132 h 36 36 24 L 122,108 108,84 96.289064,104.07031 94,100 Z"/>
  <path style="fill:#ffffff" d="m 16.141432,16.534775 4.406442,7.632182 4.406442,7.632182 -8.812884,0 -8.8128851,0 4.4064421,-7.632182 z" transform="matrix(4.084928,0,0,4.192772,10.063414,-5.3265408)"/>
  <path d="m 27.217692,18.763828 3.718592,6.440791 3.718592,6.440791 -7.437185,0 -7.437184,-10e-7 3.718592,-6.44079 z" style="fill:#ffffff" transform="matrix(3.7648656,0,0,3.7262505,5.5290492,10.081275)"/>
  <circle style="fill:#ffffff" cx="132" cy="52" r="12"/>
</svg>
