<?xml version='1.0' encoding='utf-8'?>
<svg xmlns="http://www.w3.org/2000/svg" width="192" height="192" version="1" id="svg26">
  <defs>
    <filter style="color-interpolation-filters:sRGB" id="filter873" x="0.05" y="0.05" width="1.10" height="1.10">
      <feGaussianBlur stdDeviation="3.20"/>
    </filter>
    <filter style="color-interpolation-filters:sRGB" id="filter982" x="0.04" y="0.05" width="1.09" height="1.11">
      <feGaussianBlur stdDeviation="1.97"/>
    </filter>
    <filter style="color-interpolation-filters:sRGB" id="filter1022" x="0.05" y="0.05" width="1.10" height="1.10">
      <feGaussianBlur stdDeviation="0.80"/>
    </filter>
    <filter style="color-interpolation-filters:sRGB" id="filter1044" x="0.05" y="0.05" width="1.09" height="1.10">
      <feGaussianBlur stdDeviation="2.87"/>
    </filter>
  </defs>
  <rect style="filter:url(#filter873);opacity:0.20" width="160" height="160" x="16" y="20" rx="48" ry="48"/>
  <path style="fill:#219652" d="M 64,16 C 37.41,16 16,37.41 16,64 v 64 c 0,26.59 21.41,48 48,48 h 64 c 26.59,0 48,-21.41 48,-48 V 64 C 176,37.41 154.59,16 128,16 Z"/>
  <path style="filter:url(#filter1044);opacity:0.20" d="m 33.08,37.58 c -4.20,3.47 -7.46,0.90 -10.27,3.81 L 147.89,169.68 c 5.06,-2.30 9.65,-5.44 13.59,-9.27 L 107.31,104.86 169.20,41.39 c -2.81,-4.71 -7.23,0.07 -11.43,-3.54 l -56.11,65.01 z"/>
  <path style="fill:#eff0f1" d="m 33.36,27.01 c -4.20,3.47 -7.75,7.67 -10.55,12.38 L 150.55,170.41 c 4.86,-2.58 9.18,-5.99 12.86,-10.02 L 107.31,102.86 169.20,39.39 C 166.39,34.68 162.84,30.48 158.64,27.01 L 96,91.26 Z"/>
  <path style="fill:#f64d4d" d="M 161.64,29.73 93.17,99.96 a 4.00,4.10 0 0 0 0,5.80 l 20.85,21.39 c 0.90,-4.13 -1.55,-7.40 -1.55,-7.40 0,0 3.18,0.66 7.20,1.59 l -18.02,-18.48 65.27,-66.94 c -1.59,-2.21 -3.34,-4.29 -5.28,-6.19 z"/>
  <path style="fill:#2980b9" d="M 16,89.61 V 128 c 0,26.59 21.41,48 48,48 h 62.38 c -2.38,-5.37 -5.67,-10.33 -9.75,-14.49 -5.10,-5.21 -11.41,-9.18 -18.28,-11.35 -7.28,-2.30 -14.99,-2.57 -22.54,-3.62 -7.55,-1.05 -15.30,-3.05 -21.09,-8.12 C 48.90,133.32 45.77,125.79 42.98,118.49 40.20,111.19 37.40,103.60 32,98.05 28.64,94.61 24.40,92.12 19.88,90.63 18.60,90.21 17.31,89.88 16,89.61 Z"/>
  <path style="filter:url(#filter982);opacity:0.20" d="m 16,87.61 v 4 c 1.31,0.27 2.60,0.61 3.88,1.02 4.53,1.49 8.77,3.97 12.12,7.42 5.40,5.54 8.20,13.14 10.98,20.44 2.79,7.30 5.91,14.83 11.73,19.91 5.79,5.07 13.55,7.07 21.09,8.12 7.55,1.05 15.26,1.32 22.54,3.62 6.88,2.17 13.18,6.14 18.28,11.35 3.04,3.11 5.65,6.66 7.77,10.49 h 1.98 c -2.38,-5.37 -5.67,-10.33 -9.75,-14.49 -5.10,-5.21 -11.41,-9.18 -18.28,-11.35 -7.28,-2.30 -14.99,-2.57 -22.54,-3.62 -7.55,-1.05 -15.30,-3.05 -21.09,-8.12 C 48.90,131.32 45.77,123.79 42.98,116.49 40.20,109.19 37.40,101.60 32,96.05 28.64,92.61 24.40,90.12 19.88,88.63 18.60,88.21 17.31,87.88 16,87.61 Z"/>
  <path style="fill:#fdbc4b" d="M 16 81.29 L 16 89.61 C 17.31 89.88 18.60 90.21 19.88 90.63 C 24.40 92.12 28.64 94.61 32 98.05 C 37.40 103.60 40.20 111.19 42.98 118.49 C 45.77 125.79 48.90 133.32 54.71 138.41 C 60.50 143.48 68.26 145.48 75.80 146.53 C 83.35 147.58 91.06 147.86 98.34 150.16 C 105.22 152.33 111.53 156.30 116.62 161.51 C 120.70 165.67 123.99 170.63 126.38 176 L 135.03 176 C 132.23 168.44 127.92 161.46 122.27 155.69 C 116.28 149.57 108.88 144.90 100.70 142.32 C 92.07 139.59 83.89 139.38 76.88 138.40 C 69.95 137.43 63.80 135.58 59.90 132.17 C 55.98 128.73 53.16 122.64 50.43 115.50 C 47.67 108.27 44.67 99.45 37.66 92.25 C 33.28 87.75 27.92 84.66 22.31 82.82 C 20.22 82.13 18.11 81.64 16 81.29 z "/>
  <path style="filter:url(#filter1022);opacity:0.20" d="m 116,126 c 0,0 5.25,28.68 11.72,35.15 6.47,6.47 16.96,6.47 23.43,0.00 6.47,-6.47 6.47,-16.96 0,-23.43 C 144.68,131.24 116,126 116,126 Z"/>
  <path style="fill:#f64d4d" d="m 116,124 c 0,0 5.25,28.68 11.72,35.15 6.47,6.47 16.96,6.47 23.43,0.00 6.47,-6.47 6.47,-16.96 0,-23.43 C 144.68,129.24 116,124 116,124 Z"/>
  <circle style="fill:#eff0f1" cx="-5.65" cy="203.65" r="8" transform="matrix(0.71,0.71,0.71,0.71,0,0)"/>
  <path style="opacity:0.20;fill:#ffffff" d="M 64 16 C 37.41 16 16 37.41 16 64 L 16 65 C 16 38.41 37.41 17 64 17 L 128 17 C 154.59 17 176 38.41 176 65 L 176 64 C 176 37.41 154.59 16 128 16 L 64 16 z "/>
</svg>
