<?xml version='1.0' encoding='utf-8'?>
<svg xmlns="http://www.w3.org/2000/svg" width="192" height="192" version="1" id="svg18">
  <defs>
    <filter style="color-interpolation-filters:sRGB" id="filter902" x="-0.041349282" width="1.0826986" y="-0.057200223" height="1.1144004">
      <feGaussianBlur stdDeviation="2.859992"/>
    </filter>
  </defs>
  <path d="M 96.326223,40.000802 C 64.844069,40.000802 36.504002,51.250602 13,68.695653 L 96.326223,160 179,68.371567 C 155.5875,51.118967 127.56411,40.001602 96.326223,40.001602 Z" style="filter:url(#filter902);opacity:0.2;fill:#000000"/>
  <path style="fill:#4f9a3c" d="M 96.326223,36.000002 C 64.844069,36.000002 36.504002,47.249802 13,64.694853 L 96.326223,155.9992 179,64.370767 C 155.5875,47.118167 127.56411,36.000802 96.326223,36.000802 Z"/>
  <path style="fill:#9cda72" d="m 96,60.0002 c -25.078229,0 -48.352682,8.2452 -67.046877,22.214925 L 96.350093,155.9988 163.04688,82.211123 C 144.35268,68.243399 121.07942,59.9998 96,59.9998 Z"/>
  <path style="fill:#e4e4e4" d="m 96,83.9996 c -18.808771,0 -36.264909,6.184049 -50.286152,16.66164 L 96.26257,156 146.28615,100.66124 C 132.2665,90.182449 114.80957,84.0004 96,84.0004 Z"/>
  <path style="opacity:0.2;fill:#ffffff" d="M 96.326172 36 C 64.844018 36 36.504002 47.250262 13 64.695312 L 13.552734 65.300781 C 36.949123 48.08595 65.087408 37 96.326172 37 C 127.3229 37 155.14886 47.955354 178.45117 64.980469 L 179 64.371094 C 155.5875 47.118494 127.56406 36 96.326172 36 z "/>
  <path style="opacity:0.2;fill:#ffffff" d="M 96 60 C 70.921771 60 47.64732 68.245119 28.953125 82.214844 L 29.505859 82.818359 C 48.106358 69.09461 71.165284 61 96 61 C 120.83785 61 143.89681 69.09462 162.49805 82.818359 L 163.04688 82.210938 C 144.35268 68.243213 121.07942 60 96 60 z "/>
  <path style="opacity:0.2;fill:#ffffff" d="M 96 84 C 77.191229 84 59.734134 90.184518 45.712891 100.66211 L 46.265625 101.26562 C 60.192823 91.033633 77.434642 85 96 85 C 114.5681 85 131.81183 91.034476 145.73828 101.26953 L 146.28711 100.66211 C 132.26746 90.183318 114.80957 84 96 84 z "/>
</svg>
