<?xml version='1.0' encoding='utf-8'?>
<svg xmlns="http://www.w3.org/2000/svg" width="192" height="192" version="1" id="svg28">
  <defs>
    <filter style="color-interpolation-filters:sRGB" id="filter1063" x="0.05" y="0.05" width="1.09" height="1.10">
      <feGaussianBlur stdDeviation="3.04"/>
    </filter>
    <filter style="color-interpolation-filters:sRGB" id="filter1067" x="0.09" y="0.14" width="1.18" height="1.27">
      <feGaussianBlur stdDeviation="2.72"/>
    </filter>
    <filter style="color-interpolation-filters:sRGB" id="filter1071" x="0.11" y="0.11" width="1.22" height="1.22">
      <feGaussianBlur stdDeviation="2.16"/>
    </filter>
  </defs>
  <rect style="filter:url(#filter1063);opacity:0.20" width="160" height="144" x="16" y="28" rx="12" ry="12"/>
  <rect style="fill:#1668ef" width="160" height="144" x="16" y="24" rx="12" ry="12"/>
  <path style="opacity:0.60;fill:#ffffff" d="M 45.60,112 16.73,160.11 C 18.41,164.72 22.80,168 28,168 h 51.20 z"/>
  <path style="fill:#ffffff" d="m 104,88 48,80 H 56 Z"/>
  <path style="filter:url(#filter1067);opacity:0.20" d="M 128,66 A 20,20 0 0 0 108.33,82.59 16,16 0 0 0 104,82 16,16 0 0 0 88,98 a 16,16 0 0 0 16,16 h 44 A 12,12 0 0 0 160,102 12,12 0 0 0 148,90 12,12 0 0 0 147.54,90.03 20,20 0 0 0 148,86 20,20 0 0 0 128,66 Z"/>
  <path style="filter:url(#filter1071);opacity:0.20" d="M 56,42 C 69.25,42 80,52.75 80,66.00 80,79.25 69.25,90 56,90 42.75,90 32,79.25 32,66.00 32,52.75 42.75,42 56,42 Z"/>
  <path style="fill:#ffa232" d="M 56,40 C 69.25,40 80,50.75 80,64.00 80,77.25 69.25,88 56,88 42.75,88 32,77.25 32,64.00 32,50.75 42.75,40 56,40 Z"/>
  <circle style="fill:#19d1fd" cx="104" cy="96" r="16"/>
  <circle style="fill:#19d1fd" cx="128" cy="84" r="20"/>
  <circle style="fill:#19d1fd" cx="148" cy="100" r="12"/>
  <rect style="fill:#19d1fd" width="44" height="19.20" x="104" y="92.80"/>
  <path style="opacity:0.10;fill:#ffffff" d="m 28,24 c -6.65,0 -12,5.35 -12,12 v 1 c 0,-6.65 5.35,-12 12,-12 h 136 c 6.65,0 12,5.35 12,12 v -1 c 0,-6.65 -5.35,-12 -12,-12 z"/>
  <path style="opacity:0.20;fill:#ffffff" d="m 56,40 c -13.25,0 -24,10.75 -24,24 0,0.16 0.01,0.32 0.01,0.48 C 32.29,51.47 42.92,41 56,41 69.08,41 79.71,51.47 79.99,64.48 79.99,64.32 80,64.16 80,64 80,50.75 69.25,40 56,40 Z"/>
</svg>
