<?xml version='1.0' encoding='utf-8'?>
<svg xmlns="http://www.w3.org/2000/svg" width="192" height="192" version="1" id="svg18">
  <defs>
    <filter style="color-interpolation-filters:sRGB" id="filter837" x="-0.0411" width="1.0822" y="-0.057684211" height="1.1153684">
      <feGaussianBlur stdDeviation="2.74"/>
    </filter>
    <filter style="color-interpolation-filters:sRGB" id="filter847" x="-0.035536057" width="1.0710721" y="-0.0739304" height="1.1478608">
      <feGaussianBlur stdDeviation="2.2488819"/>
    </filter>
  </defs>
  <rect style="filter:url(#filter837);opacity:0.2;fill:#000000" width="160" height="114" x="16" y="43" rx="14" ry="14"/>
  <rect style="fill:#fec006" width="160" height="114" x="16" y="39" rx="14" ry="14"/>
  <path style="fill:#fed351" d="m 30,153 c -3.895475,0 -7.408292,-1.57628 -9.941406,-4.12695 L 84.685547,84.246093 c 6.267794,-6.267791 16.361113,-6.267791 22.628903,0 l 64.62696,64.626957 C 169.40829,151.42372 165.89548,153 162,153 Z"/>
  <path style="filter:url(#filter847);opacity:0.1;fill:#000000" d="m 30,42.994624 c -3.895475,0 -7.408292,1.576285 -9.941406,4.126953 l 64.626953,64.227043 c 3.026721,3.02672 6.940998,4.54499 10.887816,4.646 4.226331,0.10816 8.489977,-1.415 11.741087,-4.646 L 171.94141,47.121577 C 169.40829,44.570909 165.89548,42.994624 162,42.994624 Z"/>
  <path style="fill:#ff3c3b" d="m 30,39 c -3.895475,0 -7.408292,1.576285 -9.941406,4.126953 L 84.685547,107.354 c 3.026721,3.02672 6.940998,4.54499 10.887816,4.646 4.226331,0.10816 8.489977,-1.415 11.741087,-4.646 L 171.94141,43.126953 C 169.40829,40.576285 165.89548,39 162,39 Z"/>
  <path style="opacity:0.2;fill:#ffffff" d="M 30 39 C 22.244 39 16 45.244 16 53 L 16 54 C 16 46.244 22.244 40 30 40 L 162 40 C 169.756 40 176 46.244 176 54 L 176 53 C 176 45.244 169.756 39 162 39 L 30 39 z "/>
</svg>
