<?xml version='1.0' encoding='utf-8'?>
<svg xmlns="http://www.w3.org/2000/svg" width="192" height="192" version="1" id="svg14">
  <defs>
    <filter style="color-interpolation-filters:sRGB" id="filter860" x="0.05" width="1.10" y="0.05" height="1.09">
      <feGaussianBlur stdDeviation="1.11"/>
    </filter>
    <filter style="color-interpolation-filters:sRGB" id="filter864" x="0.07" width="1.15" y="0.04" height="1.07">
      <feGaussianBlur stdDeviation="1.65"/>
    </filter>
    <filter style="color-interpolation-filters:sRGB" id="filter868" x="0.10" width="1.19" y="0.03" height="1.06">
      <feGaussianBlur stdDeviation="2.13"/>
    </filter>
  </defs>
  <path style="filter:url(#filter860);opacity:0.20;fill:#000000" d="m 25.36,122 c -6.04,0 -10.93,4.93 -11.32,11.20 H 14 V 134 v 34 0.80 h 0.04 C 14.43,175.07 19.32,180 25.36,180 H 39.55 55.64 67 V 168.80 168 159 134 133.20 H 66.96 C 66.57,126.93 61.68,122 55.64,122 Z"/>
  <path style="fill:#f24444" d="m 25.36,118 c -6.04,0 -10.93,4.93 -11.32,11.20 H 14 V 130 v 34 0.80 h 0.04 C 14.43,171.07 19.32,176 25.36,176 H 39.55 55.64 67 V 164.80 164 155 130 129.20 H 66.96 C 66.57,122.93 61.68,118 55.64,118 Z"/>
  <path style="filter:url(#filter864);opacity:0.20;fill:#000000" d="M 78.36,68 C 72.07,68 67,73.35 67,80 v 44 56 h 53 V 80 c 0,-6.65 -5.07,-12 -11.36,-12 z"/>
  <path style="fill:#2b85ee" d="M 78.36,64 C 72.07,64 67,69.35 67,76 v 44 56 h 53 V 76 c 0,-6.65 -5.07,-12 -11.36,-12 z"/>
  <path d="M 173,168 V 32 c 0,-6.65 -5.07,-12 -11.36,-12 H 131.36 C 125.07,20 120,25.35 120,32 v 148 h 41.64 C 167.93,180 173,174.65 173,168 Z" style="filter:url(#filter868);opacity:0.20;fill:#000000"/>
  <path d="M 173,164 V 28 c 0,-6.65 -5.07,-12 -11.36,-12 H 131.36 C 125.07,16 120,21.35 120,28 v 148 h 41.64 C 167.93,176 173,170.65 173,164 Z" style="fill:#ffcc00"/>
  <path style="opacity:0.20;fill:#ffffff" d="M 131.36 16 C 125.07 16 120 21.35 120 28 L 120 29 C 120 22.35 125.07 17 131.36 17 L 161.64 17 C 167.93 17 173 22.35 173 29 L 173 28 C 173 21.35 167.93 16 161.64 16 L 131.36 16 z M 78.36 64 C 72.07 64 67 69.35 67 76 L 67 77 C 67 70.35 72.07 65 78.36 65 L 108.64 65 C 114.93 65 120 70.35 120 77 L 120 76 C 120 69.35 114.93 64 108.64 64 L 78.36 64 z M 25.36 118 C 19.32 118 14.43 122.93 14.04 129.20 L 14 129.20 L 14 130 L 14 130.20 L 14.04 130.20 C 14.43 123.93 19.32 119 25.36 119 L 55.64 119 C 61.68 119 66.57 123.93 66.96 130.20 L 67 130.20 L 67 129.20 L 66.96 129.20 C 66.57 122.93 61.68 118 55.64 118 L 25.36 118 z "/>
</svg>
