<?xml version='1.0' encoding='utf-8'?>
<svg xmlns="http://www.w3.org/2000/svg" width="192" height="192" version="1.1" id="svg20">
  <defs>
    <filter style="color-interpolation-filters:sRGB" id="filter867" x="-0.0480049" width="1.0960098" y="-0.048004899" height="1.0960098">
      <feGaussianBlur stdDeviation="3.2003268"/>
    </filter>
  </defs>
  <circle style="fill:#ff3333" cx="96" cy="123" r="53"/>
  <path style="filter:url(#filter867);opacity:0.2;fill:#000000" d="M 95.941406,20 A 80,80 0 0 0 16,100 80,80 0 0 0 95.400391,179.99609 51,51 0 0 1 45,129 51,51 0 0 1 96,78 51,51 0 0 1 147,129 51,51 0 0 1 96.841797,179.99219 80,80 0 0 0 176,100 80,80 0 0 0 96,20 a 80,80 0 0 0 -0.05859,0 z m -0.04883,108 A 26,26 0 0 0 70,154 a 26,26 0 0 0 26,26 26,26 0 0 0 26,-26 26,26 0 0 0 -26,-26 26,26 0 0 0 -0.107422,0 z"/>
  <path style="fill:#ffcc01" d="M 95.941406 16 A 80 80 0 0 0 16 96 A 80 80 0 0 0 95.400391 175.99609 A 51 51 0 0 1 45 125 A 51 51 0 0 1 96 74 A 51 51 0 0 1 147 125 A 51 51 0 0 1 96.841797 175.99219 A 80 80 0 0 0 176 96 A 80 80 0 0 0 96 16 A 80 80 0 0 0 95.941406 16 z M 95.892578 124 A 26 26 0 0 0 70 150 A 26 26 0 0 0 96 176 A 26 26 0 0 0 122 150 A 26 26 0 0 0 96 124 A 26 26 0 0 0 95.892578 124 z "/>
  <path style="opacity:0.2;fill:#ffffff" d="M 95.941406 16 A 80 80 0 0 0 16 96 A 80 80 0 0 0 16.001953 96.5 A 80 80 0 0 1 95.941406 17 A 80 80 0 0 1 96 17 A 80 80 0 0 1 175.99805 96.488281 A 80 80 0 0 0 176 96 A 80 80 0 0 0 96 16 A 80 80 0 0 0 95.941406 16 z M 95.892578 124 A 26 26 0 0 0 70 150 A 26 26 0 0 0 70.005859 150.5 A 26 26 0 0 1 95.892578 125 A 26 26 0 0 1 96 125 A 26 26 0 0 1 121.99414 150.50391 A 26 26 0 0 0 122 150 A 26 26 0 0 0 96 124 A 26 26 0 0 0 95.892578 124 z M 45.003906 125.49414 A 51 51 0 0 0 45 126 A 51 51 0 0 0 79.667969 174.3125 A 80 80 0 0 0 87.388672 175.53125 A 26 26 0 0 1 86.042969 175.01758 A 51 51 0 0 1 45.003906 125.49414 z M 146.99609 125.50586 A 51 51 0 0 1 105.96094 175.01562 A 26 26 0 0 1 104.60938 175.53125 A 80 80 0 0 0 112.33398 174.31055 A 51 51 0 0 0 147 126 A 51 51 0 0 0 146.99609 125.50586 z "/>
</svg>
