<?xml version='1.0' encoding='utf-8'?>
<svg xmlns="http://www.w3.org/2000/svg" width="192" height="192" version="1" id="svg28">
  <path style="filter:url(#filter872);opacity:0.20;fill:#000000" d="m 21,25.00 c 0,0 -4,0 -4,4 v 87.20 8.97 V 172 c 0,4 4,4 4,4 h 23 c 1,0 4,0 4,-4 v -47 h 8 v 47 c 0,4 4,4 4,4 h 23 c 0,0 4,0.01 4,-4 v -47 h 9 l 0.08,10 H 101 l 5,-5 5,6 3,-2 3,3 4,-2 4.49,2 H 128 v -12 h 8.04 l 9.38,37.38 c 0.63,2.50 1.70,2.50 3.29,2.62 h 24.31 c 1.50,0 3.24,0.17 2.25,-3.05 L 166,125 V 29.00 c 0,0 0,-4 -4,-4 z"/>
  <path style="fill:#ffcc02" d="m 17,25 v 87.20 8.97 V 168 c 0,4 4,4 4,4 h 23 c 1,0 4,0 4,-4 v -47.00 h 8 V 168 c 0,4 4,4 4,4 h 23 c 0,0 4,0.01 4,-4 v -47.00 h 9 L 95.92,131 H 101 l 5,-5 5,6 3,-2 3,3 4,-2 4.49,2 H 128 v -12.00 h 38 V 25 c 0,0 0,-4 -4,-4 H 21 c 0,0 -4,0 -4,4 z"/>
  <path style="fill:#e5b702" d="M 136.04,121 H 166 l 9.27,36.95 C 176.26,161.17 174.52,161 173.02,161 h -24.31 c -1.59,0.12 -2.66,0.12 -3.29,-2.62 z"/>
  <rect style="fill:#3f3f3f" width="71" height="9" x="56" y="52"/>
  <rect style="fill:#3f3f3f" width="71" height="9" x="56" y="80"/>
  <defs>
    <filter style="color-interpolation-filters:sRGB" id="filter872" x="0.05" width="1.09" y="0.05" height="1.10">
      <feGaussianBlur stdDeviation="3.10"/>
    </filter>
  </defs>
  <path style="opacity:0.20;fill:#ffffff" d="M 21 21 C 21 21 17 21 17 25 L 17 26 C 17 22 21 22 21 22 L 162 22 C 166 22 166 26 166 26 L 166 25 C 166 25 166 21 162 21 L 21 21 z M 95.99 122 L 95.92 131 L 95.93 131 L 96 122 L 95.99 122 z "/>
</svg>
