<svg xmlns="http://www.w3.org/2000/svg" id="svg20" width="192" height="192" version="1.1"><defs><filter style="color-interpolation-filters:sRGB" id="filter867" width="1.1" height="1.1" x=".05" y=".05"><feGaussianBlur stdDeviation="3.2"/></filter></defs><circle style="fill:#f33" cx="96" cy="123" r="53"/><path style="filter:url(#filter867);opacity:.2;fill:#000" d="M 95.94,20 A 80,80 0 0 0 16,100 80,80 0 0 0 95.40,180.00 51,51 0 0 1 45,129 51,51 0 0 1 96,78 51,51 0 0 1 147,129 51,51 0 0 1 96.84,179.99 80,80 0 0 0 176,100 80,80 0 0 0 96,20 a 80,80 0 0 0 0.06,0 z m 0.05,108 A 26,26 0 0 0 70,154 a 26,26 0 0 0 26,26 26,26 0 0 0 26,-26 26,26 0 0 0 -26,-26 26,26 0 0 0 0.11,0 z"/><path style="fill:#ffcc01" d="M 95.94 16 A 80 80 0 0 0 16 96 A 80 80 0 0 0 95.40 176.00 A 51 51 0 0 1 45 125 A 51 51 0 0 1 96 74 A 51 51 0 0 1 147 125 A 51 51 0 0 1 96.84 175.99 A 80 80 0 0 0 176 96 A 80 80 0 0 0 96 16 A 80 80 0 0 0 95.94 16 z M 95.89 124 A 26 26 0 0 0 70 150 A 26 26 0 0 0 96 176 A 26 26 0 0 0 122 150 A 26 26 0 0 0 96 124 A 26 26 0 0 0 95.89 124 z"/><path style="opacity:.2;fill:#fff" d="M 95.94 16 A 80 80 0 0 0 16 96 A 80 80 0 0 0 16.00 96.50 A 80 80 0 0 1 95.94 17 A 80 80 0 0 1 96 17 A 80 80 0 0 1 176.00 96.49 A 80 80 0 0 0 176 96 A 80 80 0 0 0 96 16 A 80 80 0 0 0 95.94 16 z M 95.89 124 A 26 26 0 0 0 70 150 A 26 26 0 0 0 70.01 150.50 A 26 26 0 0 1 95.89 125 A 26 26 0 0 1 96 125 A 26 26 0 0 1 121.99 150.50 A 26 26 0 0 0 122 150 A 26 26 0 0 0 96 124 A 26 26 0 0 0 95.89 124 z M 45.00 125.49 A 51 51 0 0 0 45 126 A 51 51 0 0 0 79.67 174.31 A 80 80 0 0 0 87.39 175.53 A 26 26 0 0 1 86.04 175.02 A 51 51 0 0 1 45.00 125.49 z M 147.00 125.51 A 51 51 0 0 1 105.96 175.02 A 26 26 0 0 1 104.61 175.53 A 80 80 0 0 0 112.33 174.31 A 51 51 0 0 0 147 126 A 51 51 0 0 0 147.00 125.51 z"/></svg>