<?xml version='1.0' encoding='utf-8'?>
<svg xmlns="http://www.w3.org/2000/svg" width="192" height="192" version="1" id="svg14">
  <defs>
    <filter style="color-interpolation-filters:sRGB" id="filter850" x="0.05" width="1.10" y="0.05" height="1.10">
      <feGaussianBlur stdDeviation="3.20"/>
    </filter>
    <filter style="color-interpolation-filters:sRGB" id="filter901" x="0.04" width="1.08" y="0.06" height="1.12">
      <feGaussianBlur stdDeviation="2.71"/>
    </filter>
  </defs>
  <rect width="160" height="160" x="-180" y="-176" rx="80" ry="80" transform="matrix(0,-1,-1,0,0,0)" style="filter:url(#filter850);opacity:0.20;fill:#000000"/>
  <path style="fill:#3f3f3f" d="M 96 96 L 39.38 152.62 C 53.84 167.08 73.84 176 96 176 C 118.16 176 138.16 167.08 152.62 152.62 L 96 96 z "/>
  <path style="filter:url(#filter901);opacity:0.20;fill:#000000" d="M 39.38 43.38 C 25.36 57.40 16.54 76.64 16.03 98 C 16.54 119.36 25.36 138.60 39.38 152.62 C 40.05 153.29 40.74 153.93 41.43 154.57 L 96 100 L 39.38 43.38 z M 96 100 L 150.57 154.57 C 151.26 153.93 151.95 153.29 152.62 152.62 C 166.64 138.60 175.46 119.36 175.97 98 C 175.46 76.64 166.64 57.40 152.62 43.38 L 96 100 z "/>
  <path style="fill:#ffbe17" d="M 152.62 39.38 L 96 96 L 152.62 152.62 C 167.08 138.16 176 118.16 176 96 C 176 73.84 167.08 53.84 152.62 39.38 z "/>
  <path style="fill:#3f3f3f" d="M 96 16 C 73.84 16 53.84 24.92 39.38 39.38 L 96 96 L 152.62 39.38 C 138.16 24.92 118.16 16 96 16 z "/>
  <path style="fill:#e4e4e4" d="M 39.38 39.38 C 24.92 53.84 16 73.84 16 96 C 16 118.16 24.92 138.16 39.38 152.62 L 96 96 L 39.38 39.38 z "/>
  <path style="opacity:0.10;fill:#ffffff" d="M 96.00,16 C 51.68,16.00 16,51.68 16,96 c 0,0.12 0.01,0.23 0.01,0.34 C 16.36,52.33 51.90,17.00 96.00,17 H 96 c 44.11,0.00 79.65,35.34 79.99,79.36 0.00,0.12 0.01,0.24 0.01,0.36 0,-44.32 -35.68,-80.00 -80.00,-80 z"/>
</svg>
