<?xml version='1.0' encoding='utf-8'?>
<svg xmlns="http://www.w3.org/2000/svg" width="192" height="192" version="1" id="svg12">
  <defs>
    <filter style="color-interpolation-filters:sRGB" id="filter872" x="0.03" width="1.06" y="0.10" height="1.21">
      <feGaussianBlur stdDeviation="1.63"/>
    </filter>
    <filter style="color-interpolation-filters:sRGB" id="filter841" x="0.05" width="1.10" y="0.05" height="1.10">
      <feGaussianBlur stdDeviation="3.20"/>
    </filter>
  </defs>
  <rect style="filter:url(#filter841);opacity:0.20;fill:#000000" width="160" height="160" x="16" y="20" rx="20" ry="20"/>
  <rect style="fill:#ef3635" width="160" height="160" x="16" y="16" rx="20" ry="20"/>
  <path style="filter:url(#filter872);opacity:0.20;fill:#000000" d="M 52.55,81.00 45.89,99.83 41.33,88.00 h -8.35 l 9.20,21.21 -3.63,9.79 h 7.68 L 60.40,81.00 Z m 44.53,6 c -3.21,0 -6.18,1.63 -7.09,4.47 v -3.47 h -7 v 23.00 h 7 V 99.13 c 0,-3.35 1.65,-6.13 4.62,-6.13 2.72,0 3.38,2.34 3.38,5.87 v 12.13 h 6.99 V 95.86 c 0.16,-5.16 -2.72,-8.86 -7.91,-8.86 z m 48.41,0 c -7.62,0 -12.50,4.58 -12.50,12 0,7.42 4.88,12.00 12.50,12.00 7.62,0 12.50,-4.75 12.50,-12.00 0,-7.33 -4.88,-12 -12.50,-12 z m -78.72,0.01 C 60.51,87.01 57,92.42 57,99.00 c 0,6.58 3.43,11.99 9.45,11.99 1.42,0.08 2.76,0.25 4.01,0.83 1.25,0.58 2.78,-1.58 3.54,-2.66 v 2.51 h 7 V 88.00 h -7 l 0.04,2.51 C 73.20,89.34 72.14,88.43 70.88,87.85 69.63,87.26 68.20,86.93 66.78,87.01 Z m 50.30,0.00 C 110.92,87.02 107,91.64 107,98.54 c 0,7.57 4.50,11.47 10.17,11.47 3.42,0 6.25,-1.51 7.33,-3.62 v 0.92 c 0.25,3.36 -3.17,6.19 -7.75,6.19 -2.83,0 -5.27,-1.09 -7.43,-2.86 h 0.25 v 6.47 c 2.83,1.43 5.52,2.02 8.68,1.85 7.75,0 13.25,-3.87 13.25,-12.28 V 88.00 h -7 v 2 c 0.75,-1.09 -1.75,-1.64 -3,-2.23 -1.25,0.59 -2.58,0.84 -3.92,0.76 z M 69.50,92.00 c 2.89,0 4.50,3.15 4.50,7.18 0.08,3.94 -1.70,6.74 -4.50,6.82 -2.89,0 -4.50,-2.80 -4.50,-6.82 0,-4.02 1.61,-7.18 4.50,-7.18 z m 50,0 c 3.14,0 4.50,3.10 4.50,6.71 0,3.53 -1.36,6.29 -4.50,6.29 -3.14,0 -4.50,-2.67 -4.50,-6.29 0,-3.62 1.36,-6.71 4.50,-6.71 z m 26,0 c 3.05,0 4.50,2.82 4.50,6.96 0,4.14 -1.37,7.04 -4.50,7.04 -3.05,0 -4.50,-2.91 -4.50,-7.04 0,-4.14 1.37,-6.96 4.50,-6.96 z"/>
  <path style="fill:#ffffff" d="M 52.55,77 45.89,95.83 41.33,84 H 32.98 L 42.18,105.21 38.55,115 h 7.68 L 60.40,77 Z m 44.53,6 C 93.87,83 90.91,84.63 90,87.47 V 84 h -7 v 23 h 7 V 95.13 C 90,91.77 91.65,89 94.62,89 97.33,89 98,91.34 98,94.87 V 107 h 6.99 V 91.86 C 105.16,86.70 102.28,83 97.09,83 Z M 145.50,83 c -7.62,0 -12.50,4.58 -12.50,12 0,7.42 4.88,12 12.50,12 7.62,0 12.50,-4.75 12.50,-12 0,-7.33 -4.88,-12 -12.50,-12 z M 66.78,83.01 C 60.51,83.01 57,88.42 57,95 c 0,6.58 3.43,11.99 9.45,11.99 1.42,0.08 2.76,0.25 4.01,0.83 1.25,0.58 2.78,-1.58 3.54,-2.66 V 106 h 7 V 84 h -7 l 0.04,2.51 C 73.20,85.34 72.14,84.43 70.88,83.85 69.63,83.26 68.20,82.93 66.78,83.01 Z m 50.30,0.00 C 110.92,83.02 107,87.64 107,94.54 c 0,7.57 4.50,11.47 10.17,11.47 3.42,0 6.25,-1.51 7.33,-3.62 v 0.92 c 0.25,3.36 -3.17,6.19 -7.75,6.19 -2.83,0 -5.27,-1.09 -7.43,-2.86 h 0.25 v 6.47 c 2.83,1.43 5.52,2.02 8.68,1.85 7.75,0 13.25,-3.87 13.25,-12.28 V 84 h -7 v 2 c 0.75,-1.09 -1.75,-1.64 -3,-2.23 -1.25,0.59 -2.58,0.84 -3.92,0.76 z M 69.50,88 C 72.39,88 74,91.15 74,95.18 73.92,99.11 72.30,101.91 69.50,102 66.61,102 65,99.20 65,95.18 65,91.15 66.61,88 69.50,88 Z m 50,0 c 3.14,0 4.50,3.10 4.50,6.71 C 124,98.24 122.64,101 119.50,101 116.36,101 115,98.33 115,94.71 115,91.10 116.36,88 119.50,88 Z m 26,0 c 3.05,0 4.50,2.82 4.50,6.96 C 150,99.09 148.63,102 145.50,102 142.45,102 141,99.09 141,94.96 141,90.82 142.37,88 145.50,88 Z"/>
  <path style="opacity:0.20;fill:#ffffff" d="M 36 16 C 24.92 16 16 24.92 16 36 L 16 37 C 16 25.92 24.92 17 36 17 L 156 17 C 167.08 17 176 25.92 176 37 L 176 36 C 176 24.92 167.08 16 156 16 L 36 16 z "/>
</svg>
