<?xml version='1.0' encoding='utf-8'?>
<svg xmlns="http://www.w3.org/2000/svg" width="192" height="192" version="1" id="svg12">
  <defs>
    <filter style="color-interpolation-filters:sRGB" id="filter860" x="0.05" width="1.10" y="0.05" height="1.10">
      <feGaussianBlur stdDeviation="3.20"/>
    </filter>
    <filter style="color-interpolation-filters:sRGB" id="filter868" x="0.04" width="1.07" y="0.07" height="1.14">
      <feGaussianBlur stdDeviation="2.40"/>
    </filter>
  </defs>
  <rect style="filter:url(#filter860);opacity:0.20" width="160" height="160" x="16" y="20" rx="8" ry="8"/>
  <path style="fill:#e4e4e4" d="M 16 96 L 16 168 C 16 172.43 19.57 176 24 176 L 96 176 L 96 96 L 16 96 z "/>
  <path style="fill:#3f3f3f" d="M 96 96 L 96 176 L 168 176 C 172.43 176 176 172.43 176 168 L 176 96 L 96 96 z "/>
  <path style="filter:url(#filter868);opacity:0.10;fill:#000000" d="m 24,20 c -4.43,0 -8,3.57 -8,8 v 72 H 176 V 28 c 0,-4.43 -3.57,-8 -8,-8 z"/>
  <path style="fill:#fdbe00" d="M 24 16 C 19.57 16 16 19.57 16 24 L 16 96 L 176 96 L 176 24 C 176 19.57 172.43 16 168 16 L 24 16 z "/>
  <path style="opacity:0.20;fill:#ffffff" d="m 24,16 c -4.43,0 -8,3.57 -8,8 v 1 c 0,-4.43 3.57,-8 8,-8 h 144 c 4.43,0 8,3.57 8,8 v -1 c 0,-4.43 -3.57,-8 -8,-8 z"/>
</svg>
