<?xml version='1.0' encoding='utf-8'?>
<svg xmlns="http://www.w3.org/2000/svg" width="192" height="192" version="1" id="svg12">
  <defs>
    <filter style="color-interpolation-filters:sRGB" id="filter955" x="0.05" width="1.10" y="0.05" height="1.10">
      <feGaussianBlur stdDeviation="3.20"/>
    </filter>
    <filter style="color-interpolation-filters:sRGB" id="filter1304" x="0.08" y="0.07" width="1.15" height="1.15">
      <feGaussianBlur stdDeviation="3.03"/>
    </filter>
  </defs>
  <rect style="filter:url(#filter955);opacity:0.20;fill:#000000" width="160" height="160" x="16" y="20" rx="30" ry="30"/>
  <rect style="fill:#3f3f3f" width="160" height="160" x="16" y="16" rx="30" ry="30"/>
  <path style="opacity:0.10;fill:#ffffff" d="M 46 16 C 29.38 16 16 29.38 16 46 L 16 47 C 16 30.38 29.38 17 46 17 L 146 17 C 162.62 17 176 30.38 176 47 L 176 46 C 176 29.38 162.62 16 146 16 L 46 16 z "/>
  <path d="m 67,48.07 v 27.15 h 1.93 L 87.45,48.07 H 113.08 L 78.88,79.47 80.30,80.89 143,48.03 V 70.89 L 87.41,90.87 v 1.42 L 143,87.30 v 21.44 l -55.59,-4.99 v 1.42 L 143,125.14 V 148 l -62.70,-32.86 -1.42,1.42 34.20,31.40 H 87.45 L 68.93,120.82 H 67 v 27.15 H 49.00 V 48 H 67 Z" style="filter:url(#filter1304);opacity:0.20;fill:#000000"/>
  <path d="m 67,46.07 v 27.15 h 1.93 L 87.45,46.07 H 113.08 L 78.88,77.47 80.30,78.89 143,46.03 V 68.89 L 87.41,88.87 v 1.42 L 143,85.30 v 21.44 l -55.59,-4.99 v 1.42 L 143,123.14 V 146 l -62.70,-32.86 -1.42,1.42 34.20,31.40 H 87.45 L 68.93,118.82 H 67 v 27.15 H 49.00 V 46 H 67 Z" style="fill:#fd6400"/>
  <path style="opacity:0.20;fill:#ffffff" d="M 49 46 L 49 47 L 67 47 L 67 46.07 L 67 46 L 49 46 z M 143 46.03 L 80.30 78.89 L 79.40 77.99 L 78.88 78.47 L 80.30 79.89 L 143 47.03 L 143 46.03 z M 87.45 46.07 L 68.93 73.21 L 67 73.21 L 67 74.21 L 68.93 74.21 L 87.45 47.07 L 111.99 47.07 L 113.08 46.07 L 87.45 46.07 z M 143 85.30 L 87.41 90.28 L 87.41 91.28 L 143 86.30 L 143 85.30 z M 87.41 103.17 L 87.41 104.17 L 143 124.14 L 143 123.14 L 87.41 103.17 z M 79.40 115.04 L 78.88 115.56 L 111.99 145.96 L 113.08 145.96 L 79.40 115.04 z "/>
</svg>
