<?xml version='1.0' encoding='utf-8'?>
<svg xmlns="http://www.w3.org/2000/svg" width="192" height="192" version="1.1" id="svg20">
  <defs>
    <filter style="color-interpolation-filters:sRGB" id="filter857" x="-0.048000001" width="1.096" y="-0.048000001" height="1.096">
      <feGaussianBlur stdDeviation="3.2"/>
    </filter>
    <filter style="color-interpolation-filters:sRGB" id="filter875" x="-0.071999998" width="1.144" y="-0.035999999" height="1.072">
      <feGaussianBlur stdDeviation="0.84"/>
    </filter>
    <filter style="color-interpolation-filters:sRGB" id="filter879" x="-0.036000001" width="1.072" y="-0.072000001" height="1.144">
      <feGaussianBlur stdDeviation="1.35"/>
    </filter>
  </defs>
  <circle r="80" cy="100" cx="96" style="filter:url(#filter857);opacity:0.2"/>
  <circle r="80" cy="96" cx="96" style="fill:#e4e4e4"/>
  <path style="opacity:0.2;fill:#ffffff" d="M 96,16 A 80,80 0 0 0 16,96 80,80 0 0 0 16.019531,96.472656 80,80 0 0 1 96,17 80,80 0 0 1 175.97461,96.513672 80,80 0 0 0 176,96 80,80 0 0 0 96,16 Z"/>
  <path style="filter:url(#filter875);opacity:0.1;fill:#000000" d="m 91,93 v 42 a 14,14 0 0 0 14,14 14,14 0 0 0 14,-14 v -4 h -9 v 4 a 5,5 0 0 1 -5,5 5,5 0 0 1 -5,-5 V 93 Z"/>
  <path style="fill:#b0a993" d="m 91,91 v 42 a 14,14 0 0 0 14,14 14,14 0 0 0 14,-14 v -4 h -9 v 4 a 5,5 0 0 1 -5,5 5,5 0 0 1 -5,-5 V 91 Z"/>
  <path style="filter:url(#filter879);opacity:0.1;fill:#000000" d="M 141,95 H 51 c 0,-24.852814 20.147186,-45 45,-45 24.85281,0 45,20.147186 45,45 z"/>
  <path style="fill:#ff4045" d="M 141,93 H 51 c 0,-24.852814 20.147186,-45 45,-45 24.85281,0 45,20.147186 45,45 z"/>
</svg>
