<?xml version='1.0' encoding='utf-8'?>
<svg xmlns="http://www.w3.org/2000/svg" width="192" height="192" version="1" id="svg18">
  <defs>
    <filter style="color-interpolation-filters:sRGB" id="filter837" x="0.04" width="1.08" y="0.06" height="1.12">
      <feGaussianBlur stdDeviation="2.74"/>
    </filter>
    <filter style="color-interpolation-filters:sRGB" id="filter847" x="0.04" width="1.07" y="0.07" height="1.15">
      <feGaussianBlur stdDeviation="2.25"/>
    </filter>
  </defs>
  <rect style="filter:url(#filter837);opacity:0.20;fill:#000000" width="160" height="114" x="16" y="43" rx="14" ry="14"/>
  <rect style="fill:#fec006" width="160" height="114" x="16" y="39" rx="14" ry="14"/>
  <path style="fill:#fed351" d="m 30,153 c -3.90,0 -7.41,-1.58 -9.94,-4.13 L 84.69,84.25 c 6.27,-6.27 16.36,-6.27 22.63,0 l 64.63,64.63 C 169.41,151.42 165.90,153 162,153 Z"/>
  <path style="filter:url(#filter847);opacity:0.10;fill:#000000" d="m 30,42.99 c -3.90,0 -7.41,1.58 -9.94,4.13 l 64.63,64.23 c 3.03,3.03 6.94,4.54 10.89,4.65 4.23,0.11 8.49,-1.42 11.74,-4.65 L 171.94,47.12 C 169.41,44.57 165.90,42.99 162,42.99 Z"/>
  <path style="fill:#ff3c3b" d="m 30,39 c -3.90,0 -7.41,1.58 -9.94,4.13 L 84.69,107.35 c 3.03,3.03 6.94,4.54 10.89,4.65 4.23,0.11 8.49,-1.42 11.74,-4.65 L 171.94,43.13 C 169.41,40.58 165.90,39 162,39 Z"/>
  <path style="opacity:0.20;fill:#ffffff" d="M 30 39 C 22.24 39 16 45.24 16 53 L 16 54 C 16 46.24 22.24 40 30 40 L 162 40 C 169.76 40 176 46.24 176 54 L 176 53 C 176 45.24 169.76 39 162 39 L 30 39 z "/>
</svg>
