<?xml version='1.0' encoding='utf-8'?>
<svg xmlns="http://www.w3.org/2000/svg" width="192" height="192" version="1" id="svg12">
  <defs>
    <filter style="color-interpolation-filters:sRGB" id="filter884" x="0.04" width="1.09" y="0.05" height="1.11">
      <feGaussianBlur stdDeviation="2.34"/>
    </filter>
    <filter style="color-interpolation-filters:sRGB" id="filter891" x="0.04" width="1.09" y="0.06" height="1.11">
      <feGaussianBlur stdDeviation="2.29"/>
    </filter>
  </defs>
  <path style="filter:url(#filter891);opacity:0.20;fill:#000000" d="M 16 48 L 44.42 148 L 86.21 148 L 57.79 48 L 16 48 z M 75.10 48 L 103.52 148 L 145.31 148 L 116.90 48 L 75.10 48 z "/>
  <path style="fill:#fc363b" d="M 57.79,44 H 16 l 29.55,104 h 41.79 z"/>
  <path style="opacity:0.20;fill:#ffffff" d="M 16 44 L 16.28 45 L 57.79 45 L 87.06 148 L 87.34 148 L 57.79 44 L 16 44 z "/>
  <path style="fill:#3f3f3f" d="M 116.90,44 H 75.10 l 29.55,104 h 41.79 z"/>
  <path style="filter:url(#filter884);opacity:0.20;fill:#000000" d="M 75.10,48 45.55,152 H 87.34 L 116.90,48 Z m 59.11,0 -29.55,104 h 41.79 L 176,48 Z"/>
  <path style="fill:#167bfb" d="M 134.21,44 H 176 l -29.55,104 h -41.79 z"/>
  <path style="fill:#fecb2e" d="M 75.10,44 H 116.90 L 87.34,148 H 45.55 Z"/>
  <path style="opacity:0.20;fill:#ffffff" d="M 134.21 44 L 104.66 148 L 104.94 148 L 134.21 45 L 175.72 45 L 176 44 L 134.21 44 z "/>
  <path style="opacity:0.20;fill:#ffffff" d="M 75.10 44 L 45.55 148 L 45.84 148 L 75.10 45 L 116.61 45 L 116.90 44 L 75.10 44 z "/>
</svg>
