<?xml version='1.0' encoding='utf-8'?>
<svg xmlns="http://www.w3.org/2000/svg" width="192" height="192" version="1" id="svg14">
  <defs>
    <filter style="color-interpolation-filters:sRGB" id="filter850" x="0.05" width="1.10" y="0.05" height="1.10">
      <feGaussianBlur stdDeviation="3.20"/>
    </filter>
    <filter style="color-interpolation-filters:sRGB" id="filter872" x="0.04" width="1.09" y="0.05" height="1.11">
      <feGaussianBlur stdDeviation="2.05"/>
    </filter>
  </defs>
  <rect style="filter:url(#filter850);opacity:0.20;fill:#000000" width="160" height="160" x="-180" y="-176" rx="80" ry="80" transform="matrix(0,-1,-1,0,0,0)"/>
  <path style="fill:#3f3f3f" transform="matrix(0,-1,-1,0,0,0)" d="m -97.53,-159.61 c 44.32,0 57.76,22.25 57.76,66.57 0,30.05 7.36,53.17 -17.02,66.85 C -68.36,-19.70 -81.73,-16 -96,-16 c -44.32,0 -80,-35.68 -80,-80 0,-13.50 3.31,-26.19 9.16,-37.32 13.37,-25.42 38.49,-26.29 69.31,-26.29 z"/>
  <path style="opacity:0.10;fill:#ffffff" d="m 96,16 c -44.32,0 -80,35.68 -80,80 0,0.12 0.01,0.23 0.01,0.35 C 16.36,52.33 51.90,17 96,17 140.10,17 175.64,52.33 175.99,96.35 175.99,96.23 176,96.12 176,96 176,51.68 140.32,16 96,16 Z"/>
  <path style="filter:url(#filter872);opacity:0.20;fill:#000000" d="M 22.81 82.15 C 22.80 82.75 22.78 83.35 22.78 83.96 C 22.78 133.68 62.81 173.71 112.54 173.71 C 113.47 173.71 114.39 173.70 115.31 173.67 C 121.65 172.11 127.69 169.80 133.32 166.84 C 134.17 166.39 135.00 165.92 135.79 165.45 C 134.42 166.24 133.02 166.99 131.60 167.70 C 125.46 169.01 119.08 169.71 112.54 169.71 C 63.55 169.71 23.97 130.85 22.81 82.15 z "/>
  <path style="fill:#47e45c" d="M 96 16 C 65.36 16 38.86 33.06 25.41 58.23 C 23.70 65.18 22.78 72.46 22.78 79.96 C 22.78 129.68 62.81 169.71 112.54 169.71 C 119.08 169.71 125.46 169.01 131.60 167.70 C 157.95 154.64 176 127.51 176 96 C 176 51.68 140.32 16 96 16 z "/>
  <path style="opacity:0.20;fill:#ffffff" d="M 96 16 C 66.21 16 40.33 32.13 26.56 56.17 C 26.44 56.38 26.31 56.57 26.19 56.78 C 19.70 68.36 16 81.73 16 96 C 16 96.19 16.01 96.38 16.01 96.57 C 16.08 82.46 19.76 69.24 26.19 57.78 C 26.31 57.57 26.44 57.38 26.56 57.17 C 40.33 33.13 66.21 17 96 17 C 140.13 17 175.68 52.37 175.99 96.42 C 175.99 96.28 176 96.14 176 96 C 176 51.68 140.32 16 96 16 z "/>
</svg>
