<?xml version='1.0' encoding='utf-8'?>
<svg xmlns="http://www.w3.org/2000/svg" width="192" height="192" version="1" id="svg12">
  <defs>
    <filter style="color-interpolation-filters:sRGB" id="filter841" x="-0.048000001" width="1.096" y="-0.048000001" height="1.096">
      <feGaussianBlur stdDeviation="3.2"/>
    </filter>
    <filter style="color-interpolation-filters:sRGB" id="filter904" x="-0.044129795" width="1.0882596" y="-0.052614298" height="1.1052286">
      <feGaussianBlur stdDeviation="1.6003516"/>
    </filter>
    <filter style="color-interpolation-filters:sRGB" id="filter911" x="-0.043484427" width="1.0869689" y="-0.053562073" height="1.1071241">
      <feGaussianBlur stdDeviation="1.6291797"/>
    </filter>
    <filter style="color-interpolation-filters:sRGB" id="filter920" x="-0.030822959" width="1.0616459" y="-0.10878571" height="1.2175714">
      <feGaussianBlur stdDeviation="0.77057395"/>
    </filter>
  </defs>
  <rect style="filter:url(#filter841);opacity:0.2;fill:#000000" width="160" height="160" x="16" y="20" rx="20" ry="20"/>
  <rect style="fill:#ace7fd" width="160" height="160" x="16" y="16" rx="20" ry="20"/>
  <path style="filter:url(#filter920);opacity:0.1;fill:#000000" d="M 73.386719,130 A 8.5,8.5 0 0 0 65,138.5 a 8.5,8.5 0 0 0 8.5,8.5 8.5,8.5 0 0 0 8.5,-8.5 8.5,8.5 0 0 0 -8.5,-8.5 8.5,8.5 0 0 0 -0.113281,0 z m 43.000001,0 A 8.5,8.5 0 0 0 108,138.5 a 8.5,8.5 0 0 0 8.5,8.5 8.5,8.5 0 0 0 8.5,-8.5 8.5,8.5 0 0 0 -8.5,-8.5 8.5,8.5 0 0 0 -0.11328,0 z"/>
  <path style="filter:url(#filter911);opacity:0.1;fill:#000000" d="m 59.082031,50 a 5,5 0 0 0 -5,5 5,5 0 0 0 5,5 h 19.681641 l 7.0625,18.925781 a 5,5 0 0 0 6.43164,2.9375 5,5 0 0 0 2.9375,-6.433593 L 86.919922,53.251953 A 5.0005,5.0005 0 0 0 82.234375,50 Z M 130.52539,67 87.369141,90.507812 79,123 133.13672,108.15039 C 143.78696,103.45794 143.55715,95.879639 144,87.929688 V 67 Z"/>
  <path style="opacity:0.2;fill:#ffffff" d="M 36,16 C 24.92,16 16,24.92 16,36 v 1 C 16,25.92 24.92,17 36,17 h 120 c 11.08,0 20,8.92 20,20 v -1 c 0,-11.08 -8.92,-20 -20,-20 z"/>
  <path style="fill:#0043ec" d="m 59.082031,48 a 5,5 0 0 0 -5,5 5,5 0 0 0 5,5 h 19.681641 l 7.0625,18.925781 a 5,5 0 0 0 6.43164,2.9375 5,5 0 0 0 2.9375,-6.433593 L 86.919922,51.251953 A 5.0005,5.0005 0 0 0 82.234375,48 Z M 130.52539,65 87.369141,88.507812 79,121 133.13672,106.15039 C 143.78696,101.45794 143.55715,93.879639 144,85.929688 V 65 Z"/>
  <path style="filter:url(#filter904);opacity:0.1;fill:#000000;color:#000000;font-stretch:normal;font-variant-ligatures:normal;font-variant-position:normal;font-variant-caps:normal;font-variant-numeric:normal;font-variant-alternates:normal;font-variant-east-asian:normal;font-feature-settings:normal;font-variation-settings:normal;text-indent:0;text-align:start;text-decoration-line:none;text-decoration-style:solid;text-decoration-color:#000000;text-transform:none;writing-mode:lr-tb;direction:ltr;text-orientation:mixed;dominant-baseline:auto;baseline-shift:baseline;white-space:normal;shape-padding:0;shape-margin:0;inline-size:0;clip-rule:nonzero;display:inline;overflow:visible;visibility:visible;isolation:auto;mix-blend-mode:normal;color-interpolation:sRGB;color-interpolation-filters:linearRGB;solid-color:#000000;solid-opacity:1;vector-effect:none;fill-rule:nonzero;color-rendering:auto;image-rendering:auto;shape-rendering:auto;text-rendering:auto;enable-background:accumulate;stop-color:#000000" d="m 49,50 a 5,5 0 0 0 -5,5 5,5 0 0 0 5,5 h 6.582031 l 7.060547,18.925781 a 5,5 0 0 0 0.326172,0.701172 L 79,123 120.17188,106.35352 c 10.65023,-4.69246 10.42043,-12.270756 10.86328,-20.220708 V 67 H 68.867188 L 63.736328,53.251953 A 5.0005,5.0005 0 0 0 59.052734,50 Z"/>
  <path style="fill:#0076fd;color:#000000;font-stretch:normal;font-variant-ligatures:normal;font-variant-position:normal;font-variant-caps:normal;font-variant-numeric:normal;font-variant-alternates:normal;font-variant-east-asian:normal;font-feature-settings:normal;font-variation-settings:normal;text-indent:0;text-align:start;text-decoration-line:none;text-decoration-style:solid;text-decoration-color:#000000;text-transform:none;writing-mode:lr-tb;direction:ltr;text-orientation:mixed;dominant-baseline:auto;baseline-shift:baseline;white-space:normal;shape-padding:0;shape-margin:0;inline-size:0;clip-rule:nonzero;display:inline;overflow:visible;visibility:visible;isolation:auto;mix-blend-mode:normal;color-interpolation:sRGB;color-interpolation-filters:linearRGB;solid-color:#000000;solid-opacity:1;vector-effect:none;fill-rule:nonzero;color-rendering:auto;image-rendering:auto;shape-rendering:auto;text-rendering:auto;enable-background:accumulate;stop-color:#000000" d="m 49,48 a 5,5 0 0 0 -5,5 5,5 0 0 0 5,5 h 6.582031 l 7.060547,18.925781 a 5,5 0 0 0 0.326172,0.701172 L 79,121 120.17188,104.35352 c 10.65023,-4.69246 10.42043,-12.270756 10.86328,-20.220708 V 65 H 68.867188 L 63.736328,51.251953 A 5.0005,5.0005 0 0 0 59.052734,48 Z"/>
  <circle style="fill:#3f3f3f" cx="73.5" cy="136.5" r="8.5"/>
  <circle style="fill:#3f3f3f" cx="116.5" cy="136.5" r="8.5"/>
</svg>
