<?xml version='1.0' encoding='utf-8'?>
<svg xmlns="http://www.w3.org/2000/svg" width="192" height="192" version="1" id="svg12">
  <defs>
    <filter style="color-interpolation-filters:sRGB" id="filter841" x="0.05" width="1.10" y="0.05" height="1.10">
      <feGaussianBlur stdDeviation="3.20"/>
    </filter>
    <filter style="color-interpolation-filters:sRGB" id="filter904" x="0.04" width="1.09" y="0.05" height="1.11">
      <feGaussianBlur stdDeviation="1.60"/>
    </filter>
    <filter style="color-interpolation-filters:sRGB" id="filter911" x="0.04" width="1.09" y="0.05" height="1.11">
      <feGaussianBlur stdDeviation="1.63"/>
    </filter>
    <filter style="color-interpolation-filters:sRGB" id="filter920" x="0.03" width="1.06" y="0.11" height="1.22">
      <feGaussianBlur stdDeviation="0.77"/>
    </filter>
  </defs>
  <rect style="filter:url(#filter841);opacity:0.20;fill:#000000" width="160" height="160" x="16" y="20" rx="20" ry="20"/>
  <rect style="fill:#ace7fd" width="160" height="160" x="16" y="16" rx="20" ry="20"/>
  <path style="filter:url(#filter920);opacity:0.10;fill:#000000" d="M 73.39,130 A 8.50,8.50 0 0 0 65,138.50 a 8.50,8.50 0 0 0 8.50,8.50 8.50,8.50 0 0 0 8.50,-8.50 8.50,8.50 0 0 0 -8.50,-8.50 8.50,8.50 0 0 0 0.11,0 z m 43.00,0 A 8.50,8.50 0 0 0 108,138.50 a 8.50,8.50 0 0 0 8.50,8.50 8.50,8.50 0 0 0 8.50,-8.50 8.50,8.50 0 0 0 -8.50,-8.50 8.50,8.50 0 0 0 0.11,0 z"/>
  <path style="filter:url(#filter911);opacity:0.10;fill:#000000" d="m 59.08,50 a 5,5 0 0 0 -5,5 5,5 0 0 0 5,5 h 19.68 l 7.06,18.93 a 5,5 0 0 0 6.43,2.94 5,5 0 0 0 2.94,-6.43 L 86.92,53.25 A 5.00,5.00 0 0 0 82.23,50 Z M 130.53,67 87.37,90.51 79,123 133.14,108.15 C 143.79,103.46 143.56,95.88 144,87.93 V 67 Z"/>
  <path style="opacity:0.20;fill:#ffffff" d="M 36,16 C 24.92,16 16,24.92 16,36 v 1 C 16,25.92 24.92,17 36,17 h 120 c 11.08,0 20,8.92 20,20 v -1 c 0,-11.08 -8.92,-20 -20,-20 z"/>
  <path style="fill:#0043ec" d="m 59.08,48 a 5,5 0 0 0 -5,5 5,5 0 0 0 5,5 h 19.68 l 7.06,18.93 a 5,5 0 0 0 6.43,2.94 5,5 0 0 0 2.94,-6.43 L 86.92,51.25 A 5.00,5.00 0 0 0 82.23,48 Z M 130.53,65 87.37,88.51 79,121 133.14,106.15 C 143.79,101.46 143.56,93.88 144,85.93 V 65 Z"/>
  <path style="filter:url(#filter904);opacity:0.10;fill:#000000;color:#000000;font-stretch:normal;font-variant-ligatures:normal;font-variant-position:normal;font-variant-caps:normal;font-variant-numeric:normal;font-variant-alternates:normal;font-variant-east-asian:normal;font-feature-settings:normal;font-variation-settings:normal;text-indent:0;text-align:start;text-decoration-line:none;text-decoration-style:solid;text-decoration-color:#000000;text-transform:none;writing-mode:lr-tb;direction:ltr;text-orientation:mixed;dominant-baseline:auto;baseline-shift:baseline;white-space:normal;shape-padding:0;shape-margin:0;inline-size:0;clip-rule:nonzero;display:inline;overflow:visible;visibility:visible;isolation:auto;mix-blend-mode:normal;color-interpolation:sRGB;color-interpolation-filters:linearRGB;solid-color:#000000;solid-opacity:1;vector-effect:none;fill-rule:nonzero;color-rendering:auto;image-rendering:auto;shape-rendering:auto;text-rendering:auto;enable-background:accumulate;stop-color:#000000" d="m 49,50 a 5,5 0 0 0 -5,5 5,5 0 0 0 5,5 h 6.58 l 7.06,18.93 a 5,5 0 0 0 0.33,0.70 L 79,123 120.17,106.35 c 10.65,-4.69 10.42,-12.27 10.86,-20.22 V 67 H 68.87 L 63.74,53.25 A 5.00,5.00 0 0 0 59.05,50 Z"/>
  <path style="fill:#0076fd;color:#000000;font-stretch:normal;font-variant-ligatures:normal;font-variant-position:normal;font-variant-caps:normal;font-variant-numeric:normal;font-variant-alternates:normal;font-variant-east-asian:normal;font-feature-settings:normal;font-variation-settings:normal;text-indent:0;text-align:start;text-decoration-line:none;text-decoration-style:solid;text-decoration-color:#000000;text-transform:none;writing-mode:lr-tb;direction:ltr;text-orientation:mixed;dominant-baseline:auto;baseline-shift:baseline;white-space:normal;shape-padding:0;shape-margin:0;inline-size:0;clip-rule:nonzero;display:inline;overflow:visible;visibility:visible;isolation:auto;mix-blend-mode:normal;color-interpolation:sRGB;color-interpolation-filters:linearRGB;solid-color:#000000;solid-opacity:1;vector-effect:none;fill-rule:nonzero;color-rendering:auto;image-rendering:auto;shape-rendering:auto;text-rendering:auto;enable-background:accumulate;stop-color:#000000" d="m 49,48 a 5,5 0 0 0 -5,5 5,5 0 0 0 5,5 h 6.58 l 7.06,18.93 a 5,5 0 0 0 0.33,0.70 L 79,121 120.17,104.35 c 10.65,-4.69 10.42,-12.27 10.86,-20.22 V 65 H 68.87 L 63.74,51.25 A 5.00,5.00 0 0 0 59.05,48 Z"/>
  <circle style="fill:#3f3f3f" cx="73.50" cy="136.50" r="8.50"/>
  <circle style="fill:#3f3f3f" cx="116.50" cy="136.50" r="8.50"/>
</svg>
