<?xml version='1.0' encoding='utf-8'?>
<svg xmlns="http://www.w3.org/2000/svg" width="192" height="192" version="1.1" id="svg20">
  <defs>
    <filter style="color-interpolation-filters:sRGB" id="filter857" x="0.05" width="1.10" y="0.05" height="1.10">
      <feGaussianBlur stdDeviation="3.20"/>
    </filter>
    <filter style="color-interpolation-filters:sRGB" id="filter875" x="0.07" width="1.14" y="0.04" height="1.07">
      <feGaussianBlur stdDeviation="0.84"/>
    </filter>
    <filter style="color-interpolation-filters:sRGB" id="filter879" x="0.04" width="1.07" y="0.07" height="1.14">
      <feGaussianBlur stdDeviation="1.35"/>
    </filter>
  </defs>
  <circle r="80" cy="100" cx="96" style="filter:url(#filter857);opacity:0.20"/>
  <circle r="80" cy="96" cx="96" style="fill:#e4e4e4"/>
  <path style="opacity:0.20;fill:#ffffff" d="M 96,16 A 80,80 0 0 0 16,96 80,80 0 0 0 16.02,96.47 80,80 0 0 1 96,17 80,80 0 0 1 175.97,96.51 80,80 0 0 0 176,96 80,80 0 0 0 96,16 Z"/>
  <path style="filter:url(#filter875);opacity:0.10;fill:#000000" d="m 91,93 v 42 a 14,14 0 0 0 14,14 14,14 0 0 0 14,-14 v -4 h -9 v 4 a 5,5 0 0 1 -5,5 5,5 0 0 1 -5,-5 V 93 Z"/>
  <path style="fill:#b0a993" d="m 91,91 v 42 a 14,14 0 0 0 14,14 14,14 0 0 0 14,-14 v -4 h -9 v 4 a 5,5 0 0 1 -5,5 5,5 0 0 1 -5,-5 V 91 Z"/>
  <path style="filter:url(#filter879);opacity:0.10;fill:#000000" d="M 141,95 H 51 c 0,-24.85 20.15,-45 45,-45 24.85,0 45,20.15 45,45 z"/>
  <path style="fill:#ff4045" d="M 141,93 H 51 c 0,-24.85 20.15,-45 45,-45 24.85,0 45,20.15 45,45 z"/>
</svg>
