<?xml version='1.0' encoding='utf-8'?>
<svg xmlns="http://www.w3.org/2000/svg" width="192" height="192" version="1" id="svg40">
  <defs>
    <filter style="color-interpolation-filters:sRGB" id="filter897" x="0.06" width="1.12" y="0.04" height="1.08">
      <feGaussianBlur stdDeviation="2.40"/>
    </filter>
    <filter style="color-interpolation-filters:sRGB" id="filter921" x="0.07" width="1.15" y="0.04" height="1.07">
      <feGaussianBlur stdDeviation="1.01"/>
    </filter>
    <filter style="color-interpolation-filters:sRGB" id="filter925" x="0.06" width="1.13" y="0.04" height="1.08">
      <feGaussianBlur stdDeviation="1.69"/>
    </filter>
  </defs>
  <rect style="filter:url(#filter897);opacity:0.20;fill:#000000" width="96" height="144" x="-168" y="-168" rx="8" ry="8" transform="matrix(0,-1,-1,0,0,0)"/>
  <rect transform="matrix(0,-1,-1,0,0,0)" ry="8" rx="8" y="-168" x="-164" height="144" width="96" style="fill:#e4e4e4"/>
  <path style="fill:#bebebe" d="m 36,84 c -2.22,0 -4,1.78 -4,4 v 8 c 0,2.22 1.78,4 4,4 h 8 c 2.22,0 4,-1.78 4,-4 v -8 c 0,-2.22 -1.78,-4 -4,-4 z m 24,0 c -2.22,0 -4,1.78 -4,4 v 8 c 0,2.22 1.78,4 4,4 h 8 c 2.22,0 4,-1.78 4,-4 v -8 c 0,-2.22 -1.78,-4 -4,-4 z m 64,0 c -2.22,0 -4,1.78 -4,4 v 8 c 0,2.22 1.78,4 4,4 h 8 c 2.22,0 4,-1.78 4,-4 v -8 c 0,-2.22 -1.78,-4 -4,-4 z m 24,0 c -2.22,0 -4,1.78 -4,4 v 8 c 0,2.22 1.78,4 4,4 h 8 c 2.22,0 4,-1.78 4,-4 v -8 c 0,-2.22 -1.78,-4 -4,-4 z M 44,116 c -2.22,0 -4,1.78 -4,4 v 8 c 0,2.22 1.78,4 4,4 h 8 c 2.22,0 4,-1.78 4,-4 v -8 c 0,-2.22 -1.78,-4 -4,-4 z m 24,0 c -2.22,0 -4,1.78 -4,4 v 8 c 0,2.22 1.78,4 4,4 h 8 c 2.22,0 4,-1.78 4,-4 v -8 c 0,-2.22 -1.78,-4 -4,-4 z m 24,0 c -2.22,0 -4,1.78 -4,4 v 8 c 0,2.22 1.78,4 4,4 h 8 c 2.22,0 4,-1.78 4,-4 v -8 c 0,-2.22 -1.78,-4 -4,-4 z m 24,0 c -2.22,0 -4,1.78 -4,4 v 8 c 0,2.22 1.78,4 4,4 h 8 c 2.22,0 4,-1.78 4,-4 v -8 c 0,-2.22 -1.78,-4 -4,-4 z m 24,0 c -2.22,0 -4,1.78 -4,4 v 8 c 0,2.22 1.78,4 4,4 h 8 c 2.22,0 4,-1.78 4,-4 v -8 c 0,-2.22 -1.78,-4 -4,-4 z M 40,140 c -2.22,0 -4,1.78 -4,4 v 8 c 0,2.22 1.78,4 4,4 h 112 c 2.22,0 4,-1.78 4,-4 v -8 c 0,-2.22 -1.78,-4 -4,-4 z"/>
  <path d="m 32,68 c -4.43,0 -8,3.57 -8,8 v 2 c 0,-4.43 3.57,-8 8,-8 h 128 c 4.43,0 8,3.57 8,8 v -2 c 0,-4.43 -3.57,-8 -8,-8 z" style="opacity:0.10;fill:#ffffff"/>
  <path style="filter:url(#filter925);opacity:0.20;fill:#000000" d="m 76,18.00 c -6.65,0 -12,5.35 -12,12 V 102 c 0,6.65 5.35,12 12,12 h 9.31 c 4.88,0 7.82,6.14 10.69,9 2.86,-2.86 5.80,-9 10.69,-9 H 116 c 6.65,0 12,-5.35 12,-12 V 30.00 c 0,-6.65 -5.35,-12 -12,-12 H 96 Z"/>
  <path style="fill:#ff4242" d="m 76,16 c -6.65,0 -12,5.35 -12,12 v 72 c 0,6.65 5.35,12 12,12 h 9.31 c 4.88,0 7.82,6.14 10.69,9 2.86,-2.86 5.80,-9 10.69,-9 H 116 c 6.65,0 12,-5.35 12,-12 V 28 c 0,-6.65 -5.35,-12 -12,-12 H 96 Z"/>
  <path style="filter:url(#filter921);opacity:0.20;fill:#000000" d="M 101.79,30.00 C 91.07,30.00 82,37.13 82,51.40 c 0,10.18 4.04,15.69 10.02,18.73 L 79.31,98.00 H 87.75 l 11.57,-26 H 105 v 26 h 7.69 v -68 z m 0.27,6 H 105 v 30 h -3.48 C 95.19,66.00 90,62.44 90,51.38 90,39.94 95.66,36.00 101.52,36.00 Z"/>
  <path style="fill:#ffffff" d="M 101.79,29 C 91.07,29 82,36.13 82,50.40 82,60.57 86.04,66.09 92.02,69.13 L 79.31,97 H 87.75 L 99.32,71 H 105 v 26 h 7.69 V 29 Z m 0.27,6 H 105 v 30 h -3.48 C 95.19,65 90,61.44 90,50.38 90,38.94 95.66,35 101.52,35 Z"/>
  <path style="opacity:0.20;fill:#ffffff" d="m 76,16 c -6.65,0 -12,5.35 -12,12 v 1 c 0,-6.65 5.35,-12 12,-12 h 20 20 c 6.65,0 12,5.35 12,12 v -1 c 0,-6.65 -5.35,-12 -12,-12 H 96 Z"/>
</svg>
