<?xml version='1.0' encoding='utf-8'?>
<svg xmlns="http://www.w3.org/2000/svg" width="192" height="192" version="1" id="svg12">
  <defs>
    <filter style="color-interpolation-filters:sRGB" id="filter902" x="0.05" width="1.10" y="0.05" height="1.09">
      <feGaussianBlur stdDeviation="2.89"/>
    </filter>
    <filter style="color-interpolation-filters:sRGB" id="filter906" x="0.05" width="1.10" y="0.05" height="1.09">
      <feGaussianBlur stdDeviation="2.90"/>
    </filter>
    <filter style="color-interpolation-filters:sRGB" id="filter910" x="0.05" width="1.10" y="0.05" height="1.10">
      <feGaussianBlur stdDeviation="2.12"/>
    </filter>
    <filter style="color-interpolation-filters:sRGB" id="filter921" x="0.05" width="1.11" y="0.04" height="1.09">
      <feGaussianBlur stdDeviation="0.81"/>
    </filter>
  </defs>
  <path style="filter:url(#filter902);opacity:0.20;fill:#000000" d="M 115.92,28 A 38,38 0 0 0 78,66 38,38 0 0 0 79.59,76.87 38,38 0 0 0 52,65 38,38 0 0 0 14,103 38,38 0 0 0 52,141 38,38 0 0 0 79.20,129.54 38,38 0 0 0 78,139 38,38 0 0 0 116,177 38,38 0 0 0 154,139 38,38 0 0 0 126.57,102.50 38,38 0 0 0 154,66 38,38 0 0 0 116,28 38,38 0 0 0 115.92,28 Z M 88.41,92.13 A 38,38 0 0 0 105.43,102.50 38,38 0 0 0 88.80,112.46 38,38 0 0 0 90,103 38,38 0 0 0 88.41,92.13 Z"/>
  <circle style="fill:#fecc00" cx="116" cy="62" r="38"/>
  <circle style="fill:#fecc00" cx="52" cy="99" r="38"/>
  <circle style="fill:#fecc00" cx="116" cy="135" r="38"/>
  <path style="filter:url(#filter906);opacity:0.20;fill:#000000" d="M 71.92,26 A 38,38 0 0 0 34,64 38,38 0 0 0 61.43,100.50 38,38 0 0 0 34,137 38,38 0 0 0 72,175 38,38 0 0 0 110,137 38,38 0 0 0 107.84,124.36 38,38 0 0 0 137,138 38,38 0 0 0 175,100 38,38 0 0 0 137,62 38,38 0 0 0 108.37,75.02 38,38 0 0 0 110,64 38,38 0 0 0 72,26 38,38 0 0 0 71.92,26 Z M 100.63,88.98 A 38,38 0 0 0 99,100 38,38 0 0 0 101.16,112.64 38,38 0 0 0 82.57,100.50 38,38 0 0 0 100.63,88.98 Z"/>
  <path style="opacity:0.20;fill:#ffffff" d="M 115.92,24 A 38,38 0 0 0 78,62 38,38 0 0 0 78.00,62.48 38,38 0 0 1 115.92,25 38,38 0 0 1 116,25 38,38 0 0 1 154.00,62.48 38,38 0 0 0 154,62 38,38 0 0 0 116,24 38,38 0 0 0 115.92,24 Z M 52,61 A 38,38 0 0 0 14,99 38,38 0 0 0 14.00,99.40 38,38 0 0 1 52,62 38,38 0 0 1 79.59,73.87 38,38 0 0 1 79.20,72.46 38,38 0 0 0 52,61 Z M 88.41,89.13 A 38,38 0 0 1 90.00,99.48 38,38 0 0 0 90,99 38,38 0 0 0 88.80,89.54 38,38 0 0 1 88.41,89.13 Z"/>
  <circle style="fill:#e51a1a" cx="72" cy="60" r="38"/>
  <circle style="fill:#e51a1a" cx="72" cy="133" r="38"/>
  <circle style="fill:#e51a1a" cx="137" cy="96" r="38"/>
  <circle style="filter:url(#filter910);opacity:0.20;fill:#000000" cx="96" cy="102" r="53"/>
  <path style="opacity:0.10;fill:#ffffff" d="M 71.92,22 A 38,38 0 0 0 34,60 38,38 0 0 0 34.00,60.48 38,38 0 0 1 71.92,23 38,38 0 0 1 72,23 38,38 0 0 1 110.00,60.46 38,38 0 0 0 110,60 38,38 0 0 0 72,22 38,38 0 0 0 71.92,22 Z M 137,58 a 38,38 0 0 0 -28.22,12.56 38,38 0 0 1 0.41,1.46 A 38,38 0 0 1 137,59 38,38 0 0 1 175.00,96.48 38,38 0 0 0 175,96 38,38 0 0 0 137,58 Z m -36.37,27.98 a 38,38 0 0 1 0.41,0.46 A 38,38 0 0 0 99,96 a 38,38 0 0 0 0.00,0.52 38,38 0 0 1 1.63,-10.54 z M 59.84,97 A 38,38 0 0 0 34,133 38,38 0 0 0 34.00,133.50 38,38 0 0 1 61.43,97.50 38,38 0 0 1 59.84,97 Z m 24.32,0 a 38,38 0 0 1 -1.59,0.50 38,38 0 0 1 18.60,12.14 38,38 0 0 1 0.53,-1.62 A 38,38 0 0 0 84.16,97 Z m 23.67,24.36 a 38,38 0 0 1 2.16,12.12 A 38,38 0 0 0 110,133 a 38,38 0 0 0 -1.63,-11.02 38,38 0 0 1 0.53,0.62 z"/>
  <circle style="fill:#ff4141" cx="96" cy="98" r="53"/>
  <path style="filter:url(#filter921);opacity:0.20;fill:#000000;color:#000000;font-stretch:normal;font-variant-ligatures:normal;font-variant-position:normal;font-variant-caps:normal;font-variant-numeric:normal;font-variant-alternates:normal;font-variant-east-asian:normal;font-feature-settings:normal;font-variation-settings:normal;text-indent:0;text-align:start;text-decoration-line:none;text-decoration-style:solid;text-decoration-color:#000000;text-transform:none;writing-mode:lr-tb;direction:ltr;text-orientation:mixed;dominant-baseline:auto;baseline-shift:baseline;white-space:normal;shape-padding:0;shape-margin:0;inline-size:0;clip-rule:nonzero;display:inline;overflow:visible;visibility:visible;isolation:auto;mix-blend-mode:normal;color-interpolation:sRGB;color-interpolation-filters:linearRGB;solid-color:#000000;solid-opacity:1;vector-effect:none;fill-rule:nonzero;color-rendering:auto;image-rendering:auto;shape-rendering:auto;text-rendering:auto;enable-background:accumulate;stop-color:#000000" d="M 77.74,78 93,103.78 V 122 h 6 V 103.79 L 114.52,78 h -7.00 L 96.02,97.11 84.71,78 Z"/>
  <path style="fill:#ffffff;color:#000000;font-stretch:normal;font-variant-ligatures:normal;font-variant-position:normal;font-variant-caps:normal;font-variant-numeric:normal;font-variant-alternates:normal;font-variant-east-asian:normal;font-feature-settings:normal;font-variation-settings:normal;text-indent:0;text-align:start;text-decoration-line:none;text-decoration-style:solid;text-decoration-color:#000000;text-transform:none;writing-mode:lr-tb;direction:ltr;text-orientation:mixed;dominant-baseline:auto;baseline-shift:baseline;white-space:normal;shape-padding:0;shape-margin:0;inline-size:0;clip-rule:nonzero;display:inline;overflow:visible;visibility:visible;isolation:auto;mix-blend-mode:normal;color-interpolation:sRGB;color-interpolation-filters:linearRGB;solid-color:#000000;solid-opacity:1;vector-effect:none;fill-rule:nonzero;color-rendering:auto;image-rendering:auto;shape-rendering:auto;text-rendering:auto;enable-background:accumulate;stop-color:#000000" d="M 77.74,76 93,101.78 V 120 h 6 V 101.79 L 114.52,76 h -7.00 L 96.02,95.11 84.71,76 Z"/>
  <path style="opacity:0.20;fill:#ffffff" d="M 96,45 A 53,53 0 0 0 43,98 53,53 0 0 0 43.00,98.50 53,53 0 0 1 96,46 53,53 0 0 1 149.00,98.50 53,53 0 0 0 149,98 53,53 0 0 0 96,45 Z"/>
</svg>
