<?xml version='1.0' encoding='utf-8'?>
<svg xmlns="http://www.w3.org/2000/svg" width="192" height="192" version="1" id="svg12">
  <defs>
    <filter style="color-interpolation-filters:sRGB" id="filter860" x="0.05" width="1.10" y="0.05" height="1.10">
      <feGaussianBlur stdDeviation="3.20"/>
    </filter>
    <filter style="color-interpolation-filters:sRGB" id="filter856" x="0.07" width="1.15" y="0.04" height="1.07">
      <feGaussianBlur stdDeviation="1.64"/>
    </filter>
  </defs>
  <rect style="filter:url(#filter860);opacity:0.20" width="160" height="160" x="16" y="20" rx="8" ry="8"/>
  <rect style="fill:#e4e4e4" width="160" height="160" x="16" y="16" rx="8" ry="8"/>
  <path style="opacity:0.20;fill:#ffffff" d="m 24,16 c -4.43,0 -8,3.57 -8,8 v 1 c 0,-4.43 3.57,-8 8,-8 h 144 c 4.43,0 8,3.57 8,8 v -1 c 0,-4.43 -3.57,-8 -8,-8 z"/>
  <path style="filter:url(#filter856);opacity:0.10;fill:#000000" d="M 105.36,49 C 88.02,49 73,60.54 73,83.62 73,100.08 79.89,109.00 89.56,113.92 L 69,159 H 82.65 L 101.37,117 H 111 v 42 h 12 V 49 Z m 0.50,10 H 111 v 48 h -6.15 C 94.50,107 86,101.31 86,83.62 86,65.31 95.27,59 104.85,59 Z"/>
  <path style="fill:#ef3635" d="M 105.36,45 C 88.02,45 73,56.54 73,79.62 73,96.08 79.89,105.00 89.56,109.92 L 69,155 H 82.65 L 101.37,113 H 111 v 42 h 12 V 45 Z m 0.50,10 H 111 v 48 h -6.15 C 94.50,103 86,97.31 86,79.62 86,61.31 95.27,55 104.85,55 Z"/>
</svg>
