<?xml version='1.0' encoding='utf-8'?>
<svg xmlns="http://www.w3.org/2000/svg" width="192" height="192" version="1" id="svg14">
  <defs>
    <filter style="color-interpolation-filters:sRGB" id="filter850" x="0.05" width="1.10" y="0.05" height="1.10">
      <feGaussianBlur stdDeviation="3.20"/>
    </filter>
    <filter style="color-interpolation-filters:sRGB" id="filter840" x="0.05" width="1.09" y="0.05" height="1.10">
      <feGaussianBlur stdDeviation="1.82"/>
    </filter>
  </defs>
  <rect style="filter:url(#filter850);opacity:0.20;fill:#000000" width="160" height="160" x="-180" y="-176" rx="80" ry="80" transform="matrix(0,-1,-1,0,0,0)"/>
  <rect transform="matrix(0,-1,-1,0,0,0)" ry="80" rx="80" y="-176" x="-176" height="160" width="160" style="fill:#822af8"/>
  <path style="opacity:0.10;fill:#ffffff" d="m 96,16 c -44.32,0 -80,35.68 -80,80 0,0.12 0.01,0.23 0.01,0.35 C 16.36,52.33 51.90,17 96,17 140.10,17 175.64,52.33 175.99,96.35 175.99,96.23 176,96.12 176,96 176,51.68 140.32,16 96,16 Z"/>
  <path style="filter:url(#filter840);opacity:0.20;fill:#000000" d="m 51.92,127.13 c -3.95,-6.58 -1.66,-20.95 5.74,-35.95 10.35,-20.98 29.15,-41.18 38.33,-41.18 3.86,0 11.84,5.15 17.85,11.53 20.35,21.59 33.27,53.89 26.23,65.57 -4.54,7.53 -19.76,12.25 -41.12,12.74 -13.39,1.01 -40.65,-2.87 -47.03,-12.72 z"/>
  <path style="fill:#ffffff" d="m 51.92,123.13 c -3.95,-6.58 -1.66,-20.95 5.74,-35.95 10.35,-20.98 29.15,-41.18 38.33,-41.18 3.86,0 11.84,5.15 17.85,11.53 20.35,21.59 33.27,53.89 26.23,65.57 -4.54,7.53 -19.76,12.25 -41.12,12.74 -13.39,1.01 -40.65,-2.87 -47.03,-12.72 z"/>
</svg>
