<?xml version='1.0' encoding='utf-8'?>
<svg xmlns="http://www.w3.org/2000/svg" width="192" height="192" version="1" id="svg14">
  <defs>
    <filter style="color-interpolation-filters:sRGB" id="filter850" x="-0.048000001" width="1.096" y="-0.048000001" height="1.096">
      <feGaussianBlur stdDeviation="3.2"/>
    </filter>
    <filter style="color-interpolation-filters:sRGB" id="filter840" x="-0.047478263" width="1.0949565" y="-0.048533329" height="1.0970667">
      <feGaussianBlur stdDeviation="1.8200001"/>
    </filter>
  </defs>
  <rect style="filter:url(#filter850);opacity:0.2;fill:#000000" width="160" height="160" x="-180" y="-176" rx="80" ry="80" transform="matrix(0,-1,-1,0,0,0)"/>
  <rect transform="matrix(0,-1,-1,0,0,0)" ry="80" rx="80" y="-176" x="-176" height="160" width="160" style="fill:#822af8"/>
  <path style="opacity:0.1;fill:#ffffff" d="m 96,16 c -44.32,0 -80,35.68 -80,80 0,0.116813 0.0054,0.231684 0.0078,0.347656 C 16.356433,52.330881 51.897996,17 96,17 140.102,17 175.64357,52.330881 175.99219,96.347656 175.99459,96.231684 176,96.11681 176,96 176,51.68 140.32,16 96,16 Z"/>
  <path style="filter:url(#filter840);opacity:0.2;fill:#000000" d="m 51.915533,127.12861 c -3.954649,-6.58205 -1.662541,-20.949 5.735494,-35.950105 10.348501,-20.983823 29.145084,-41.178513 38.327665,-41.178513 3.864008,0 11.835788,5.149665 17.851208,11.531664 20.34851,21.588497 33.27301,53.894184 26.23311,65.571474 -4.54163,7.53332 -19.75672,12.24795 -41.117048,12.74071 -13.39337,1.01409 -40.647101,-2.87497 -47.030429,-12.71523 z"/>
  <path style="fill:#ffffff" d="m 51.915533,123.12861 c -3.954649,-6.58205 -1.662541,-20.949 5.735494,-35.950101 10.348501,-20.983823 29.145084,-41.178513 38.327665,-41.178513 3.864008,0 11.835788,5.149665 17.851208,11.531664 20.34851,21.588497 33.27301,53.89418 26.23311,65.57147 -4.54163,7.53332 -19.75672,12.24795 -41.117048,12.74071 -13.39337,1.01409 -40.647101,-2.87497 -47.030429,-12.71523 z"/>
</svg>
