<?xml version='1.0' encoding='utf-8'?>
<svg xmlns="http://www.w3.org/2000/svg" width="192" height="192" version="1" id="svg12">
  <defs>
    <filter style="color-interpolation-filters:sRGB" id="filter916" x="-0.028399999" width="1.0568" y="-0.15490909" height="1.3098182">
      <feGaussianBlur stdDeviation="1.42"/>
    </filter>
    <filter style="color-interpolation-filters:sRGB" id="filter922" x="-0.048000002" width="1.096" y="-0.048000002" height="1.096">
      <feGaussianBlur stdDeviation="2.4"/>
    </filter>
    <filter style="color-interpolation-filters:sRGB" id="filter942" x="-0.046384615" width="1.0927692" y="-0.049731959" height="1.0994639">
      <feGaussianBlur stdDeviation="2.01"/>
    </filter>
    <filter style="color-interpolation-filters:sRGB" id="filter971" x="-0.028067797" width="1.0561356" y="-0.1656" height="1.3312">
      <feGaussianBlur stdDeviation="1.38"/>
    </filter>
  </defs>
  <path style="filter:url(#filter971);opacity:0.2;fill:#000000" d="M 52.800781,158 37,178 h 14 l 3.949219,-5 H 137.05078 L 141,178 h 14 l -15.80078,-20 h -14 l 5.53125,7 H 61.269531 l 5.53125,-7 z"/>
  <path style="fill:#3f3f3f" d="M 52.800781 156 L 37 176 L 51 176 L 54.949219 171 L 137.05078 171 L 141 176 L 155 176 L 139.19922 156 L 125.19922 156 L 130.73047 163 L 61.269531 163 L 66.800781 156 L 52.800781 156 z "/>
  <path style="filter:url(#filter916);opacity:0.2;fill:#000000" d="m 36,140 c 2.230283,9.51144 13.752647,22 16,22 h 44 44 c 2.24735,0 13.76972,-12.48856 16,-22 H 96 Z"/>
  <path style="fill:#cf0b0b" d="M 36 136 C 38.230283 145.51144 49.752647 158 52 158 L 96 158 L 140 158 C 142.24735 158 153.76972 145.51144 156 136 L 96 136 L 36 136 z "/>
  <path style="filter:url(#filter922);opacity:0.2;fill:#000000" d="m 36,35 c 0,0 10.395197,-15 60,-15 49.6048,0 60,15 60,15 V 140 H 36 Z"/>
  <path style="fill:#ff4141" d="m 36,31 c 0,0 10.395197,-15 60,-15 49.6048,0 60,15 60,15 V 136 H 36 Z"/>
  <path style="filter:url(#filter942);opacity:0.2;fill:#000000" d="m 96,30 c -3.263737,0 -6.243736,0.0724 -8.972656,0.205078 a 2.1343866,2.0665961 0 0 0 -1.488282,3.4375 l 8.865235,9.664063 a 2.1343866,2.0665961 0 0 0 3.191406,0 l 8.865237,-9.664063 a 2.1343866,2.0665961 0 0 0 -1.48828,-3.4375 C 102.24374,30.072403 99.263736,30 96,30 Z M 75.529297,32.771484 C 45.788731,35.269642 44,43 44,43 V 79 H 93 V 50.242188 Z m 40.941403,0 L 99,50.242188 V 79 h 49 V 43 c 0,0 -1.78873,-7.730358 -31.5293,-10.228516 z M 59.990234,109 A 9,9 0 0 0 51,118 a 9,9 0 0 0 9,9 9,9 0 0 0 9,-9 9,9 0 0 0 -9,-9 9,9 0 0 0 -0.0098,0 z M 132,109 a 9,9 0 0 0 -9,9 9,9 0 0 0 9,9 9,9 0 0 0 9,-9 9,9 0 0 0 -9,-9 z"/>
  <path style="fill:#ffffff" d="M 116.4707,30.771484 99,48.242188 V 77 h 49 V 41 c 0,0 -1.78873,-7.730358 -31.5293,-10.228516 z"/>
  <path style="fill:#ffffff" d="M 75.529297,30.771484 C 45.788731,33.269642 44,41 44,41 V 77 H 93 V 48.242188 Z"/>
  <path style="fill:#ffffff;color:#000000;font-stretch:normal;font-variant-ligatures:normal;font-variant-position:normal;font-variant-caps:normal;font-variant-numeric:normal;font-variant-alternates:normal;font-variant-east-asian:normal;font-feature-settings:normal;font-variation-settings:normal;text-indent:0;text-align:start;text-decoration-line:none;text-decoration-style:solid;text-decoration-color:#000000;text-transform:none;writing-mode:lr-tb;direction:ltr;text-orientation:mixed;dominant-baseline:auto;baseline-shift:baseline;white-space:normal;shape-padding:0;shape-margin:0;inline-size:0;clip-rule:nonzero;display:inline;overflow:visible;visibility:visible;isolation:auto;mix-blend-mode:normal;color-interpolation:sRGB;color-interpolation-filters:linearRGB;solid-color:#000000;solid-opacity:1;vector-effect:none;fill-rule:nonzero;color-rendering:auto;image-rendering:auto;shape-rendering:auto;text-rendering:auto;enable-background:accumulate;stop-color:#000000;stop-opacity:1" d="m 95.999215,27.999714 c -3.263737,0 -6.24273,0.07278 -8.97165,0.20546 a 2.1343866,2.0665961 0 0 0 -1.488515,3.436911 l 8.865552,9.664145 a 2.1343866,2.0665961 0 0 0 3.190789,0 l 8.865559,-9.664145 a 2.1343866,2.0665961 0 0 0 -1.48852,-3.436911 c -2.72892,-0.132675 -5.709479,-0.20546 -8.973215,-0.20546 z"/>
  <circle style="fill:#ffffff" cx="60" cy="116" r="9"/>
  <circle style="fill:#ffffff" cx="-132" cy="116" r="9" transform="scale(-1,1)"/>
  <path style="opacity:0.2;fill:#ffffff" d="M 96 16 C 46.395197 16 36 31 36 31 L 36 32 C 36 32 46.395197 17 96 17 C 145.6048 17 156 32 156 32 L 156 31 C 156 31 145.6048 16 96 16 z "/>
</svg>
