<svg xmlns="http://www.w3.org/2000/svg" id="svg14" width="192" height="192" version="1"><defs><filter style="color-interpolation-filters:sRGB" id="filter3604" width="1.1" height="1.1" x=".05" y=".05"><feGaussianBlur stdDeviation="3.2"/></filter><filter style="color-interpolation-filters:sRGB" id="filter3608" width="1.11" height="1.09" x=".05" y=".04"><feGaussianBlur stdDeviation="1.93"/></filter></defs><circle style="fill:#e4e4e4" cx="96" cy="96" r="69"/><path style="filter:url(#filter3604);opacity:.2;fill:#000" d="M 89,20.50 A 80,80 0 0 0 16,100 80,80 0 0 0 96,180 80,80 0 0 0 176,100 80,80 0 0 0 171.17,72.82 L 150.87,89.23 A 56,56 0 0 1 152,100 56,56 0 0 1 96,156 56,56 0 0 1 40,100 56,56 0 0 1 89,44.61 Z"/><path style="fill:#fbc900" d="M 89 16.50 A 80 80 0 0 0 16 96 A 80 80 0 0 0 96 176 A 80 80 0 0 0 176 96 A 80 80 0 0 0 171.17 68.82 L 150.87 85.23 A 56 56 0 0 1 152 96 A 56 56 0 0 1 96 152 A 56 56 0 0 1 40 96 A 56 56 0 0 1 89 40.61 L 89 16.50 z"/><path style="filter:url(#filter3608);opacity:.2;fill:#000" d="m 111,19.29 v 56.26 c -4.44,-2.97 -9.66,-4.55 -15,-4.55 -14.91,0 -27,12.09 -27,27 0,14.91 12.09,27.00 27,27.00 14.91,0 27,-12.09 27,-27.00 V 48.88 l 2.22,1.12 c 6.05,3.69 12.35,9.51 16.19,14.95 0.53,0.76 1.03,1.38 1.09,1.39 0.07,0.00 3.15,-4.81 6.86,-10.70 l 6.74,-10.71 0.96,-1.10 c -1.32,-1.53 -5.22,-5.28 -7.32,-7.05 -7.93,-6.68 -16.87,-11.72 -26.54,-14.96 -2.61,0.88 -8.92,-2.52 -9.66,-2.52 h 0.45 l 0.01,0.07 z"/><path style="fill:#fc3f1d" d="M 111 17.29 L 111 73.55 C 106.56 70.58 101.34 69.00 96 69 C 81.09 69 69 81.09 69 96 C 69 110.91 81.09 123 96 123 C 110.91 123 123 110.91 123 96 L 123 46.88 L 125.22 47.99 C 131.27 51.68 137.57 57.50 141.40 62.95 C 141.94 63.71 142.43 64.33 142.49 64.34 C 142.56 64.34 145.65 59.53 149.36 53.64 L 156.10 42.93 L 155.14 41.82 C 153.82 40.30 149.92 36.55 147.82 34.78 C 139.89 28.09 130.95 23.06 121.28 19.81 C 118.67 18.94 112.36 17.29 111.62 17.29 L 111.17 17.29 L 111.17 17.37 L 111 17.29 z"/><path style="opacity:.2;fill:#fff" d="M 89 16.50 C 47.76 20.12 16.10 54.60 16 96 C 16.01 96.17 16.02 96.35 16.04 96.52 C 16.38 55.32 47.96 21.12 89 17.50 L 89 16.50 z M 171.17 68.82 L 162.08 76.16 A 69 69 0 0 1 162.31 76.98 L 171.17 69.82 C 174.27 78.36 175.89 87.37 175.97 96.46 C 175.98 96.30 175.99 96.15 176 96 C 175.98 86.73 174.34 77.53 171.17 68.82 z"/><path style="opacity:.2;fill:#fff" d="m 111,17.29 v 1 l 0.17,0.07 0.01,0.07 h 0.45 c 0.74,0 7.05,1.65 9.66,2.52 9.67,3.24 18.61,8.28 26.54,14.96 2.10,1.77 6.00,5.52 7.32,7.05 l 0.59,0.68 0.37,0.58 0.96,-1.10 c -1.32,-1.53 -5.22,-5.28 -7.32,-7.05 -7.93,-6.68 -16.87,-11.72 -26.54,-14.96 -2.61,0.88 -8.92,-2.52 -9.66,-2.52 h 0.45 l 0.01,0.07 z"/></svg>