<?xml version='1.0' encoding='utf-8'?>
<svg xmlns="http://www.w3.org/2000/svg" width="192" height="192" version="1" id="svg12">
  <defs>
    <filter style="color-interpolation-filters:sRGB" id="filter841" x="0.05" width="1.10" y="0.05" height="1.10">
      <feGaussianBlur stdDeviation="3.20"/>
    </filter>
    <filter style="color-interpolation-filters:sRGB" id="filter889" x="0.05" width="1.10" y="0.04" height="1.09">
      <feGaussianBlur stdDeviation="2.92"/>
    </filter>
  </defs>
  <rect style="filter:url(#filter841);opacity:0.20;fill:#000000" width="160" height="160" x="16" y="20" rx="20" ry="20"/>
  <path style="fill:#e4e4e4" d="M 56.17,46.31 116.67,16 H 156 c 11.08,0 20,8.92 20,20 v 120 c 0,11.08 -8.92,20 -20,20 H 88.01 L 73.24,159.43 c -7.37,-8.27 -30.89,2.68 -32.42,-8.29 L 27.38,54.26 C 25.86,43.28 46.26,51.28 56.17,46.31 Z"/>
  <path style="fill:#3f3f3f" d="M 44.95,34.69 C 35.90,34.68 26.79,35.31 20,37 l -4,3.20 V 156 c 0,9.87 7.08,18.02 16.46,19.68 3.88,-2.54 12.56,-2.64 18.16,-5.73 5.87,-3.24 8.65,-9.49 12.12,-12.83 C 79.39,141.10 92.74,124.20 97.85,104.53 100.36,94.84 98.52,74.78 96.24,67.20 91.44,51.24 80.63,38.45 63.41,34.06 59.59,33.09 50.38,34.70 44.95,34.69 Z"/>
  <path style="filter:url(#filter889);opacity:0.20;fill:#000000" d="M 36,20 C 24.92,20 16,28.92 16,40 v 0.20 4 l 2.75,0.69 c 6.79,-1.69 16.86,-2.84 25.91,-2.83 5.43,0.01 10.51,0.43 14.32,1.40 17.23,4.39 28.63,14.92 33.43,30.88 2.28,7.57 2.07,22.70 0.44,32.39 -5.11,19.67 -15.72,37.09 -32.36,53.10 C 54.22,163.66 45.26,170.70 37.82,176 h 50.19 2.27 5.69 l 1.71,-1.20 c 8.62,-6.06 24.83,-21.86 30.90,-30.12 15.87,-21.58 23.78,-44.42 23.43,-67.53 0.07,-4.38 0.43,-8.78 -1.09,-13.17 C 148.14,45.57 137.45,32.36 124.37,22.48 L 121.08,20 Z"/>
  <path style="fill:#3947e5" d="M 36,16 C 24.92,16 16,24.92 16,36 v 4.20 l 2.75,0.69 c 6.79,-1.69 16.86,-2.84 25.91,-2.83 5.43,0.01 10.51,0.43 14.32,1.40 17.23,4.39 28.63,14.92 33.43,30.88 2.28,7.57 2.07,22.70 0.44,32.39 -5.11,19.67 -15.72,37.09 -32.36,53.10 -6.78,6.52 -19.21,16.02 -27.15,21.22 C 33.61,175.89 34.79,176 36,176 h 54.28 l 7.40,-5.20 c 8.62,-6.06 24.83,-21.86 30.90,-30.12 15.87,-21.58 23.78,-44.42 23.43,-67.53 0.07,-4.38 0.43,-8.78 -1.09,-13.17 C 148.14,41.57 137.45,28.36 124.37,18.48 L 121.08,16 Z m -3.54,159.68 c 0.43,0.08 0.84,0.18 -1.26,0.28 0.42,0.10 0.83,0.21 1.26,0.28 z"/>
  <path style="opacity:0.10;fill:#ffffff" d="M 36,16 C 24.92,16 16,24.92 16,36 v 1 C 16,25.92 24.92,17 36,17 h 120 c 11.08,0 20,8.92 20,20 v -1 c 0,-11.08 -8.92,-20 -20,-20 z"/>
</svg>
