<?xml version='1.0' encoding='utf-8'?>
<svg xmlns="http://www.w3.org/2000/svg" width="192" height="192" version="1" id="svg12">
  <defs>
    <filter style="color-interpolation-filters:sRGB" id="filter852" x="0.05" width="1.10" y="0.05" height="1.10">
      <feGaussianBlur stdDeviation="3.20"/>
    </filter>
    <filter style="color-interpolation-filters:sRGB" id="filter856" x="0.05" width="1.10" y="0.06" height="1.12">
      <feGaussianBlur stdDeviation="3.20"/>
    </filter>
  </defs>
  <circle style="filter:url(#filter852);opacity:0.20;fill:#000000" cx="96" cy="100" r="80"/>
  <g transform="translate(48.98,-47.05)"/>
  <circle style="fill:#3f3f3f" cx="96" cy="96" r="80"/>
  <path style="opacity:0.10;fill:#ffffff" d="M 95.94 16 A 80 80 0 0 0 16 96 A 80 80 0 0 0 16.00 96.53 A 80 80 0 0 1 96 17 A 80 80 0 0 1 176.00 96.47 A 80 80 0 0 0 176 96 A 80 80 0 0 0 96 16 A 80 80 0 0 0 95.94 16 z "/>
  <path style="filter:url(#filter856);opacity:0.20;fill:#000000" d="M 129.75,35 105.32,69.21 C 91.88,88.03 80.89,103.02 80.89,102.53 c 0,0.49 1.35,-7.57 3.00,-15.72 L 86.88,71.97 73.58,65.33 C 66.27,61.68 59.97,58.81 59.60,58.96 59.23,59.11 49.40,70.79 37.77,84.93 26.35,98.81 17.19,109.93 16.70,110.53 a 80,80 0 0 0 12.62,33.66 l 4.15,-5.52 c 9.60,-12.77 17.61,-23.07 17.79,-22.89 0.18,0.18 -1.66,8.45 -4.10,18.36 -2.44,9.92 -4.34,18.09 -4.23,18.16 1.72,1.12 32.85,12.90 33.51,12.68 0.50,0.17 10.92,-15.26 23.14,-33.54 12.22,-18.28 22.22,-32.92 22.22,-32.54 0.00,0.38 -2.02,8.71 -4.48,18.50 -2.46,9.79 -4.36,17.91 -4.22,18.04 0.14,0.13 6.26,3.24 13.59,6.91 L 140,149.05 l 18,-17.87 16.65,-16.53 A 80,80 0 0 0 176,100 a 80,80 0 0 0 0,0.06 80,80 0 0 0 -3.93,-24.69 l -5.63,4.90 c -12.45,10.83 -12.82,11.12 -12.29,9.55 0.75,-2.23 5.65,-23.72 8.00,-34.69 a 80,80 0 0 0 -8.44,-10.42 c -2.35,0.95 -4.46,-1.81 -7.28,-2.94 z"/>
  <path style="fill:#ffdb37" d="M 129.75 31 L 105.32 65.21 C 91.88 84.03 80.89 99.02 80.89 98.53 C 80.89 98.04 82.24 90.97 83.89 82.81 L 86.88 67.97 L 73.58 61.33 C 66.27 57.68 59.97 54.81 59.60 54.96 C 59.23 55.11 49.40 66.79 37.77 80.93 C 26.35 94.81 17.19 105.93 16.70 106.53 A 80 80 0 0 0 29.31 140.19 L 33.46 134.67 C 43.06 121.90 51.06 111.60 51.25 111.79 C 51.43 111.97 49.58 120.23 47.15 130.15 C 44.71 140.07 42.80 148.24 42.91 148.31 C 44.64 149.43 75.76 161.21 76.42 161.00 C 76.92 160.83 87.34 145.74 99.56 127.46 C 111.78 109.18 121.78 94.53 121.78 94.92 C 121.78 95.30 119.76 103.63 117.30 113.42 C 114.83 123.21 112.93 131.33 113.07 131.46 C 113.22 131.58 119.33 134.70 126.67 138.37 L 140 145.05 L 158 127.18 L 174.65 110.65 A 80 80 0 0 0 176 96 A 80 80 0 0 0 176 95.94 A 80 80 0 0 0 172.07 71.25 L 166.44 76.15 C 154.00 86.99 153.62 87.28 154.15 85.71 C 154.89 83.47 159.80 61.98 162.15 51.01 A 80 80 0 0 0 153.71 40.60 C 151.35 39.64 149.24 38.78 146.43 37.66 L 129.75 31 z "/>
  <path style="opacity:0.20;fill:#ffffff" d="M 129.75 31 L 105.32 65.21 C 92.84 82.69 82.48 96.84 81.07 98.38 C 80.98 98.91 80.89 99.44 80.89 99.53 C 80.89 100.02 91.88 85.03 105.32 66.21 L 129.75 32 L 146.43 38.66 C 149.24 39.78 151.35 40.64 153.71 41.60 A 80 80 0 0 1 161.98 51.77 C 162.03 51.55 162.10 51.23 162.15 51.01 A 80 80 0 0 0 153.71 40.60 C 151.35 39.64 149.24 38.78 146.43 37.66 L 129.75 31 z M 59.60 54.96 C 59.23 55.11 49.40 66.79 37.77 80.93 C 26.35 94.81 17.19 105.93 16.70 106.53 A 80 80 0 0 0 16.81 107.39 C 17.41 106.67 26.41 95.73 37.77 81.93 C 49.40 67.79 59.23 56.11 59.60 55.96 C 59.97 55.81 66.27 58.68 73.58 62.33 L 86.70 68.88 L 86.88 67.97 L 73.58 61.33 C 66.27 57.68 59.97 54.81 59.60 54.96 z M 172.07 71.25 L 166.44 76.15 C 157.79 83.68 154.98 86.12 154.24 86.37 C 154.22 86.45 154.17 86.65 154.15 86.71 C 153.62 88.28 154.00 87.99 166.44 77.15 L 172.07 72.25 A 80 80 0 0 1 176.00 96.44 A 80 80 0 0 0 176 96 A 80 80 0 0 0 176 95.94 A 80 80 0 0 0 172.07 71.25 z M 121.78 95.92 C 121.78 95.89 121.61 96.11 121.50 96.25 C 120.90 98.89 119.27 105.58 117.30 113.42 C 114.83 123.21 112.93 131.33 113.07 131.46 C 113.08 131.46 113.21 131.53 113.21 131.53 C 113.67 129.20 115.29 122.41 117.30 114.42 C 119.76 104.63 121.78 96.30 121.78 95.92 z M 51.25 112.79 C 51.24 112.78 51.14 112.90 51.10 112.93 C 50.63 115.49 49.09 122.26 47.15 130.15 C 44.71 140.07 42.80 148.24 42.91 148.31 C 42.94 148.33 43.04 148.37 43.08 148.40 C 43.49 146.34 45.09 139.53 47.15 131.15 C 49.58 121.23 51.43 112.97 51.25 112.79 z "/>
</svg>
