<?xml version='1.0' encoding='utf-8'?>
<svg xmlns="http://www.w3.org/2000/svg" width="192" height="192" version="1" id="svg28">
  <path style="filter:url(#filter872);opacity:0.2;fill:#000000" d="m 21,24.999999 c 0,0 -4,0 -4,4 v 87.197271 8.9707 V 172 c 0,4 4,4 4,4 h 23 c 1,0 4,0 4,-4 v -47 h 8 v 47 c 0,4 4,4 4,4 h 23 c 0,0 4,0.0148 4,-4 v -47 h 9 l -0.07813,10 H 101 l 5,-5 5,6 3,-2 3,3 4,-2 4.48828,2 H 128 v -12 h 8.03711 l 9.38086,37.38281 c 0.62736,2.5001 1.70351,2.50062 3.28906,2.61719 h 24.3125 c 1.50308,0 3.23963,0.1694 2.25391,-3.04688 L 166,125 V 28.999999 c 0,0 0,-4 -4,-4 z"/>
  <path style="fill:#ffcc02" d="m 17,25 v 87.19802 8.9703 V 168 c 0,4 4,4 4,4 h 23 c 1,0 4,0 4,-4 v -47.00016 h 8 V 168 c 0,4 4,4 4,4 h 23 c 0,0 4,0.0148 4,-4 v -46.99984 h 9 L 95.9209,131 H 101 l 5,-5 5,6 3,-2 3,3 4,-2 4.48832,2 H 128 v -11.99984 h 38 V 25 c 0,0 0,-4 -4,-4 H 21 c 0,0 -4,0 -4,4 z"/>
  <path style="fill:#e5b702" d="M 136.03745,121 H 166 l 9.27269,36.95238 C 176.25841,161.16866 174.522,161 173.01892,161 h -24.31178 c -1.58555,-0.11657 -2.66186,-0.11802 -3.28922,-2.61812 z"/>
  <rect style="fill:#3f3f3f" width="71" height="9" x="56" y="52"/>
  <rect style="fill:#3f3f3f" width="71" height="9" x="56" y="80"/>
  <defs>
    <filter style="color-interpolation-filters:sRGB" id="filter872" x="-0.046855423" width="1.0937108" y="-0.049201894" height="1.0984038">
      <feGaussianBlur stdDeviation="3.0956193"/>
    </filter>
  </defs>
  <path style="opacity:0.2;fill:#ffffff" d="M 21 21 C 21 21 17 21 17 25 L 17 26 C 17 22 21 22 21 22 L 162 22 C 166 22 166 26 166 26 L 166 25 C 166 25 166 21 162 21 L 21 21 z M 95.992188 122 L 95.921875 131 L 95.929688 131 L 96 122 L 95.992188 122 z "/>
</svg>
