<?xml version='1.0' encoding='utf-8'?>
<svg xmlns="http://www.w3.org/2000/svg" width="192" height="192" version="1" id="svg16">
  <defs>
    <filter style="color-interpolation-filters:sRGB" id="filter867" x="0.03" width="1.07" y="0.08" height="1.17">
      <feGaussianBlur stdDeviation="1.12"/>
    </filter>
    <filter style="color-interpolation-filters:sRGB" id="filter875" x="0.03" width="1.07" y="0.08" height="1.17">
      <feGaussianBlur stdDeviation="2.48"/>
    </filter>
  </defs>
  <ellipse style="filter:url(#filter875);opacity:0.20" cx="61.82" cy="127.87" rx="85.86" ry="35.83" transform="matrix(0.97,0.24,0.28,0.96,0,0)"/>
  <path style="fill:#4f4f4f" d="m 90.67,44 c -37.33,0 -28.65,33.04 -47.76,43.32 -19.39,11.00 -8.71,20.85 -5.57,31.48 5.30,17.73 20.13,5.20 64.00,-5.33 43.86,-10.53 53.30,-8.94 48,-26.67 C 146.16,76.29 156.58,66.54 133.91,65.62 115.49,66.63 117.33,44 90.67,44 Z"/>
  <path style="opacity:0.10;fill:#ffffff" d="M 90.66 44 C 53.33 44 62.01 77.05 42.90 87.32 C 33.90 92.42 31.41 97.28 31.61 102.08 C 31.79 97.60 34.53 93.07 42.90 88.32 C 62.01 78.05 53.33 45 90.66 45 C 117.33 45 115.49 67.63 133.91 66.62 C 146.56 67.13 148.89 70.42 149.04 75.04 C 149.17 69.90 147.45 66.17 133.91 65.62 C 115.49 66.63 117.33 44 90.66 44 z M 148.77 83.65 C 148.71 84.46 148.69 85.29 148.70 86.12 C 148.71 85.63 148.73 85.13 148.77 84.65 C 148.86 85.69 149.01 86.73 149.34 87.80 C 150.11 90.38 150.53 92.53 150.60 94.38 C 150.68 92.32 150.25 89.86 149.34 86.80 C 149.01 85.73 148.86 84.69 148.77 83.65 z "/>
  <ellipse style="fill:#2e72de" cx="62.95" cy="123.98" rx="85.86" ry="35.83" transform="matrix(0.97,0.24,0.28,0.96,0,0)"/>
  <ellipse style="filter:url(#filter867);opacity:0.20" cx="69.01" cy="153.21" rx="38.78" ry="16.26" transform="matrix(0.98,0.22,0.23,0.97,0,0)"/>
  <ellipse style="fill:#fbfbfb" cx="69.92" cy="149.31" rx="38.78" ry="16.26" transform="matrix(0.98,0.22,0.23,0.97,0,0)"/>
  <path style="opacity:0.10;fill:#ffffff" d="M 129.78 64.00 A 35.79 85.88 76.77 0 0 127.14 64.02 A 35.79 85.88 76.77 0 0 85.92 69.62 A 35.79 85.88 76.77 0 0 12.10 120.64 A 35.79 85.88 76.77 0 1 85.92 70.62 A 35.79 85.88 76.77 0 1 127.14 65.02 A 35.79 85.88 76.77 0 1 179.39 84.56 A 35.79 85.88 76.77 0 1 179.94 88.18 A 35.79 85.88 76.77 0 0 179.39 83.56 A 35.79 85.88 76.77 0 0 129.78 64.00 z "/>
</svg>
