<?xml version='1.0' encoding='utf-8'?>
<svg xmlns="http://www.w3.org/2000/svg" width="192" height="192" version="1" id="svg14">
  <defs>
    <filter style="color-interpolation-filters:sRGB" id="filter860" x="-0.050264152" width="1.1005283" y="-0.045931035" height="1.0918621">
      <feGaussianBlur stdDeviation="1.11"/>
    </filter>
    <filter style="color-interpolation-filters:sRGB" id="filter864" x="-0.07471698" width="1.149434" y="-0.035357142" height="1.0707143">
      <feGaussianBlur stdDeviation="1.65"/>
    </filter>
    <filter style="color-interpolation-filters:sRGB" id="filter868" x="-0.096452835" width="1.1929057" y="-0.031950002" height="1.0639">
      <feGaussianBlur stdDeviation="2.13"/>
    </filter>
  </defs>
  <path style="filter:url(#filter860);opacity:0.2;fill:#000000" d="m 25.357143,122 c -6.035311,0 -10.928221,4.92818 -11.318325,11.19727 H 14 V 134 v 34 0.80273 h 0.03882 C 14.428922,175.07182 19.321832,180 25.357143,180 H 39.553571 55.642857 67 V 168.80273 168 159 134 133.19727 H 66.96118 C 66.571078,126.92818 61.678168,122 55.642857,122 Z"/>
  <path style="fill:#f24444" d="m 25.357143,118 c -6.035311,0 -10.928221,4.92818 -11.318325,11.19727 H 14 V 130 v 34 0.80273 h 0.03882 C 14.428922,171.07182 19.321832,176 25.357143,176 H 39.553571 55.642857 67 V 164.80273 164 155 130 129.19727 H 66.96118 C 66.571078,122.92818 61.678168,118 55.642857,118 Z"/>
  <path style="filter:url(#filter864);opacity:0.2;fill:#000000" d="M 78.357143,68 C 72.065286,68 67,73.352 67,80 v 44 56 h 53 V 80 c 0,-6.648 -5.06529,-12 -11.35714,-12 z"/>
  <path style="fill:#2b85ee" d="M 78.357143,64 C 72.065286,64 67,69.352 67,76 v 44 56 h 53 V 76 c 0,-6.648 -5.06529,-12 -11.35714,-12 z"/>
  <path d="M 173,168 V 32 c 0,-6.648 -5.06529,-12 -11.35714,-12 H 131.35714 C 125.06529,20 120,25.352 120,32 v 148 h 41.64286 C 167.93471,180 173,174.648 173,168 Z" style="filter:url(#filter868);opacity:0.2;fill:#000000"/>
  <path d="M 173,164 V 28 c 0,-6.648 -5.06529,-12 -11.35714,-12 H 131.35714 C 125.06529,16 120,21.352 120,28 v 148 h 41.64286 C 167.93471,176 173,170.648 173,164 Z" style="fill:#ffcc00"/>
  <path style="opacity:0.2;fill:#ffffff" d="M 131.35742 16 C 125.06557 16 120 21.352 120 28 L 120 29 C 120 22.352 125.06557 17 131.35742 17 L 161.64258 17 C 167.93443 17 173 22.352 173 29 L 173 28 C 173 21.352 167.93443 16 161.64258 16 L 131.35742 16 z M 78.357422 64 C 72.065565 64 67 69.352 67 76 L 67 77 C 67 70.352 72.065565 65 78.357422 65 L 108.64258 65 C 114.93443 65 120 70.352 120 77 L 120 76 C 120 69.352 114.93443 64 108.64258 64 L 78.357422 64 z M 25.357422 118 C 19.322111 118 14.429167 122.92818 14.039062 129.19727 L 14 129.19727 L 14 130 L 14 130.19727 L 14.039062 130.19727 C 14.429167 123.92818 19.322111 119 25.357422 119 L 55.642578 119 C 61.677889 119 66.570834 123.92818 66.960938 130.19727 L 67 130.19727 L 67 129.19727 L 66.960938 129.19727 C 66.570836 122.92818 61.677889 118 55.642578 118 L 25.357422 118 z "/>
</svg>
