<?xml version='1.0' encoding='utf-8'?>
<svg xmlns="http://www.w3.org/2000/svg" width="192" height="192" version="1" id="svg12">
  <defs>
    <filter style="color-interpolation-filters:sRGB" id="filter876" x="0.05" width="1.10" y="0.05" height="1.10">
      <feGaussianBlur stdDeviation="0.72"/>
    </filter>
    <filter style="color-interpolation-filters:sRGB" id="filter882" x="0.04" width="1.09" y="0.05" height="1.10">
      <feGaussianBlur stdDeviation="2.98"/>
    </filter>
  </defs>
  <path style="filter:url(#filter882);opacity:0.20;fill:#000000" d="m 56.48,31.00 c -2.39,0.01 -4.86,0.21 -7.44,0.66 -9.75,1.83 -18.84,7.09 -24.74,15.29 -10.68,14.33 -10.28,34.65 -3.25,50.48 10.13,19.31 26.59,34.32 42.72,48.58 9.15,7.72 18.53,15.20 28.35,22.04 1.35,0.68 2.62,0.96 3.87,0.95 1.25,0.02 2.52,0.27 3.87,0.95 9.82,-6.84 19.20,-14.32 28.35,-22.04 16.12,-14.26 32.59,-29.27 42.72,-48.58 7.03,-15.83 7.44,-36.14 -3.25,-50.48 C 161.80,38.75 152.70,33.49 142.95,31.66 122.37,28.04 107.98,39.68 96.00,56.95 85.52,41.84 73.19,31.04 56.48,31.00 Z"/>
  <path style="fill:#fe3030" d="m 56.48,27.00 c -2.39,0.01 -4.86,0.21 -7.44,0.66 -9.75,1.83 -18.84,7.09 -24.74,15.29 -10.68,14.33 -10.28,34.65 -3.25,50.48 10.13,19.31 26.59,34.32 42.72,48.58 9.15,7.72 18.53,15.20 28.35,22.04 1.35,0.68 2.62,0.96 3.87,0.95 1.25,0.02 2.52,0.27 3.87,0.95 9.82,-6.84 19.20,-14.32 28.35,-22.04 16.12,-14.26 32.59,-29.27 42.72,-48.58 7.03,-15.83 7.44,-36.14 -3.25,-50.48 -5.89,-8.20 -14.99,-13.46 -24.74,-15.29 -20.58,-3.62 -34.97,8.02 -46.95,25.29 C 85.52,37.84 73.19,27.04 56.48,27.00 Z"/>
  <path style="filter:url(#filter876);opacity:0.20;fill:#000000;color:#000000;font-stretch:normal;font-variant-ligatures:normal;font-variant-position:normal;font-variant-caps:normal;font-variant-numeric:normal;font-variant-alternates:normal;font-variant-east-asian:normal;font-feature-settings:normal;font-variation-settings:normal;text-indent:0;text-align:start;text-decoration-line:none;text-decoration-style:solid;text-decoration-color:#000000;text-transform:none;writing-mode:lr-tb;direction:ltr;text-orientation:mixed;dominant-baseline:auto;baseline-shift:baseline;white-space:normal;shape-padding:0;shape-margin:0;inline-size:0;clip-rule:nonzero;display:inline;overflow:visible;visibility:visible;isolation:auto;mix-blend-mode:normal;color-interpolation:sRGB;color-interpolation-filters:linearRGB;solid-color:#000000;solid-opacity:1;vector-effect:none;fill-rule:nonzero;color-rendering:auto;image-rendering:auto;shape-rendering:auto;text-rendering:auto;enable-background:accumulate;stop-color:#000000;stop-opacity:1" d="m 137,51 a 6,6 0 0 0 -6,6 v 6 h -6 a 6,6 0 0 0 -6,6 6,6 0 0 0 6,6 h 6 v 6 a 6,6 0 0 0 6,6 6,6 0 0 0 6,-6 v -6 h 6 a 6,6 0 0 0 6,-6 6,6 0 0 0 -6,-6 h -6 v -6 a 6,6 0 0 0 -6,-6 z"/>
  <path style="fill:#ffffff;color:#000000;font-stretch:normal;font-variant-ligatures:normal;font-variant-position:normal;font-variant-caps:normal;font-variant-numeric:normal;font-variant-alternates:normal;font-variant-east-asian:normal;font-feature-settings:normal;font-variation-settings:normal;text-indent:0;text-align:start;text-decoration-line:none;text-decoration-style:solid;text-decoration-color:#000000;text-transform:none;writing-mode:lr-tb;direction:ltr;text-orientation:mixed;dominant-baseline:auto;baseline-shift:baseline;white-space:normal;shape-padding:0;shape-margin:0;inline-size:0;clip-rule:nonzero;display:inline;overflow:visible;visibility:visible;isolation:auto;mix-blend-mode:normal;color-interpolation:sRGB;color-interpolation-filters:linearRGB;solid-color:#000000;solid-opacity:1;vector-effect:none;fill-rule:nonzero;color-rendering:auto;image-rendering:auto;shape-rendering:auto;text-rendering:auto;enable-background:accumulate;stop-color:#000000;stop-opacity:1" d="M 137 49 A 6 6 0 0 0 131 55 L 131 61 L 125 61 A 6 6 0 0 0 119 67 A 6 6 0 0 0 125 73 L 131 73 L 131 79 A 6 6 0 0 0 137 85 A 6 6 0 0 0 143 79 L 143 73 L 149 73 A 6 6 0 0 0 155 67 A 6 6 0 0 0 149 61 L 143 61 L 143 55 A 6 6 0 0 0 137 49 z "/>
  <path style="opacity:0.20;fill:#ffffff" d="M 135.52 27 C 118.81 27.04 106.48 37.84 96 52.96 C 85.52 37.84 73.19 27.04 56.48 27.00 C 54.10 27.00 51.62 27.21 49.05 27.66 C 39.30 29.49 30.20 34.75 24.31 42.95 C 18.47 50.79 15.95 60.41 16.01 70.10 C 16.12 60.75 18.67 51.52 24.31 43.95 C 30.20 35.75 39.30 30.49 49.05 28.66 C 51.62 28.21 54.10 28.00 56.48 28.00 C 73.19 28.04 85.52 38.84 96 53.96 C 107.98 36.68 122.37 25.04 142.95 28.66 C 152.70 30.49 161.80 35.75 167.69 43.95 C 173.33 51.52 175.88 60.75 175.99 70.10 C 176.05 60.41 173.53 50.79 167.69 42.95 C 161.80 34.75 152.70 29.49 142.95 27.66 C 140.38 27.21 137.90 26.99 135.52 27 z "/>
</svg>
