<?xml version='1.0' encoding='utf-8'?>
<svg xmlns="http://www.w3.org/2000/svg" width="192" height="192" version="1" id="svg12">
  <defs>
    <filter style="color-interpolation-filters:sRGB" id="filter841" x="0.05" width="1.10" y="0.05" height="1.10">
      <feGaussianBlur stdDeviation="3.20"/>
    </filter>
    <filter style="color-interpolation-filters:sRGB" id="filter884" x="0.03" width="1.06" y="0.09" height="1.19">
      <feGaussianBlur stdDeviation="1.78"/>
    </filter>
  </defs>
  <rect style="filter:url(#filter841);opacity:0.20;fill:#000000" width="160" height="160" x="16" y="20" rx="20" ry="20"/>
  <rect style="fill:#3f3f3f" width="160" height="160" x="16" y="16" rx="20" ry="20"/>
  <path style="opacity:0.10;fill:#ffffff" d="M 36,16 C 24.92,16 16,24.92 16,36 v 1 C 16,25.92 24.92,17 36,17 h 120 c 11.08,0 20,8.92 20,20 v -1 c 0,-11.08 -8.92,-20 -20,-20 z"/>
  <path style="filter:url(#filter884);opacity:0.20;fill:#000000" d="m 30.03,77.00 v 26.78 c 0.20,4.52 0.78,9.21 3.62,12.83 5.86,7.88 18.91,8.63 25.60,1.42 v 4.20 h 6.75 V 77.00 h -6.99 v 22.18 c 0.12,3.36 0.45,6.81 0.57,10.08 -1.39,4.72 -6.12,8.11 -11.02,7.73 -4.31,0.06 -8.35,-3.06 -9.73,-7.15 0.48,-1.26 0.59,-2.60 0.67,-3.94 0.07,-9.63 0.02,-19.27 0,-28.91 z m 39.97,0 v 45.21 h 6.96 v -4.13 c 4.37,4.45 11.81,6.02 17.73,4.15 7.23,-2.08 12.63,-9.30 12.29,-16.86 0.07,-7.43 -5.55,-13.79 -12.71,-15.66 -5.80,-1.69 -13.00,0.07 -17.24,4.27 V 77.00 Z m 75.00,12 v 34.00 h 7.03 v -18.24 c 0.10,-2.93 0.33,-6.88 3.36,-8.74 1.98,-1.27 4.38,0.96 6.61,-1.00 v -6.02 c 0.83,0.00 -1.66,0.00 -2.49,0.00 -3.18,0.06 -5.94,1.67 -7.54,4.43 v -4.43 z m -18.20,0.01 c 0.73,0.02 -1.46,0.00 -2.18,0.07 -6.22,0.42 -11.95,4.60 -14.30,10.36 -2.03,4.76 -1.71,10.49 0.92,14.96 3.03,5.41 9.20,8.62 15.32,8.59 5.64,0.19 11.29,-2.43 14.68,-6.97 -1.60,-1.15 -3.20,-2.30 -4.79,-3.46 -2.25,3.12 -6.07,4.98 -9.91,4.80 -5.21,0.00 -10.08,-4.18 -10.83,-9.36 h 26.29 c 0.74,0.14 1.17,0.04 0.96,0.78 0.18,-3.99 0.72,-8.11 -3.08,-11.39 -2.92,-4.25 -7.98,-6.67 -13.07,-6.82 z m -38.23,4.99 c 0.35,0.01 0.70,0.00 1.05,0.03 5.43,0.12 10.27,4.48 11.15,9.83 1.16,5.77 -2.63,11.92 -8.23,13.58 -5.66,1.89 -12.40,-1.21 -14.63,-6.78 0.98,-2.31 -1.17,-4.94 0.62,-7.39 1.12,-5.20 6.02,-9.14 11.27,-9.27 z m 37.42,1 c 0.33,0.00 0.67,0.01 1.00,0.04 4.51,0.24 8.42,3.73 9.26,7.96 h -20.42 c 0.55,-2.25 1.82,-4.36 3.71,-5.81 1.80,-1.45 4.12,-2.18 6.46,-2.19 z"/>
  <path style="fill:#ffffff" d="m 30.03,73.00 v 26.78 c 0.20,4.52 0.78,9.21 3.62,12.83 5.86,7.88 18.91,8.63 25.60,1.42 v 4.20 h 6.75 V 73.00 h -6.99 v 22.18 c 0.12,3.36 0.45,6.81 0.57,10.08 -1.39,4.72 -6.12,8.11 -11.02,7.73 -4.31,0.06 -8.35,-3.06 -9.73,-7.15 0.48,-1.26 0.59,-2.60 0.67,-3.94 0.07,-9.63 0.02,-19.27 0,-28.91 z m 39.97,0 v 45.21 h 6.96 v -4.13 c 4.37,4.45 11.81,6.02 17.73,4.15 7.23,-2.08 12.63,-9.30 12.29,-16.86 0.07,-7.43 -5.55,-13.79 -12.71,-15.66 -5.80,-1.69 -13.00,0.07 -17.24,4.27 V 73.00 Z m 75.00,12 v 34.00 h 7.03 V 100.76 c 0.10,-2.93 0.33,-6.88 3.36,-8.74 1.98,-1.27 4.38,0.96 6.61,-1.00 v -6.02 c 0.83,0.00 -1.66,0.00 -2.49,0.00 -3.18,0.06 -5.94,1.67 -7.54,4.43 v -4.43 z m -18.20,0.01 c 0.73,0.02 -1.46,0.00 -2.18,0.07 -6.22,0.42 -11.95,4.60 -14.30,10.36 -2.03,4.76 -1.71,10.49 0.92,14.96 3.03,5.41 9.20,8.62 15.32,8.59 5.64,0.19 11.29,-2.43 14.68,-6.97 -1.60,-1.15 -3.20,-2.30 -4.79,-3.46 -2.25,3.12 -6.07,4.98 -9.91,4.80 -5.21,0.00 -10.08,-4.18 -10.83,-9.36 h 26.29 c 0.74,0.14 1.17,0.04 0.96,0.78 0.18,-3.99 0.72,-8.11 -3.08,-11.39 -2.92,-4.25 -7.98,-6.67 -13.07,-6.82 z m -38.23,4.99 c 0.35,0.01 0.70,0.00 1.05,0.03 5.43,0.12 10.27,4.48 11.15,9.83 1.16,5.77 -2.63,11.92 -8.23,13.58 -5.66,1.89 -12.40,-1.21 -14.63,-6.78 0.98,-2.31 -1.17,-4.94 0.62,-7.39 1.12,-5.20 6.02,-9.14 11.27,-9.27 z m 37.42,1 c 0.33,0.00 0.67,0.01 1.00,0.04 4.51,0.24 8.42,3.73 9.26,7.96 h -20.42 c 0.55,-2.25 1.82,-4.36 3.71,-5.81 1.80,-1.45 4.12,-2.18 6.46,-2.19 z"/>
</svg>
