<?xml version='1.0' encoding='utf-8'?>
<svg xmlns="http://www.w3.org/2000/svg" width="192" height="192" version="1" id="svg14">
  <defs>
    <filter style="color-interpolation-filters:sRGB" id="filter3604" x="-0.048029133" y="-0.048179695" width="1.0960583" height="1.0963594">
      <feGaussianBlur stdDeviation="3.2019421"/>
    </filter>
    <filter style="color-interpolation-filters:sRGB" id="filter3608" x="-0.0531284" y="-0.043774511" width="1.1062568" height="1.087549">
      <feGaussianBlur stdDeviation="1.9280664"/>
    </filter>
  </defs>
  <circle style="fill:#e4e4e4" cx="96" cy="96" r="69"/>
  <path style="filter:url(#filter3604);opacity:0.2;fill:#000000" d="M 89,20.5 A 80,80 0 0 0 16,100 80,80 0 0 0 96,180 80,80 0 0 0 176,100 80,80 0 0 0 171.16992,72.816406 L 150.86914,89.230469 A 56,56 0 0 1 152,100 56,56 0 0 1 96,156 56,56 0 0 1 40,100 56,56 0 0 1 89,44.613281 Z"/>
  <path style="fill:#fbc900" d="M 89 16.5 A 80 80 0 0 0 16 96 A 80 80 0 0 0 96 176 A 80 80 0 0 0 176 96 A 80 80 0 0 0 171.16992 68.816406 L 150.86914 85.230469 A 56 56 0 0 1 152 96 A 56 56 0 0 1 96 152 A 56 56 0 0 1 40 96 A 56 56 0 0 1 89 40.613281 L 89 16.5 z "/>
  <path style="filter:url(#filter3608);opacity:0.2;fill:#000000" d="m 111,19.290662 v 56.259765 c -4.43996,-2.966886 -9.65999,-4.550566 -15,-4.550781 -14.911688,0 -27,12.088312 -27,27 0,14.911694 12.088312,27.000004 27,27.000004 14.91169,0 27,-12.08831 27,-27.000004 V 48.876599 l 2.2168,1.117188 c 6.05287,3.69057 12.35294,9.510055 16.18554,14.953125 0.53472,0.75941 1.0262,1.383672 1.0918,1.388672 0.0656,0.0046 3.15321,-4.809679 6.86133,-10.699219 l 6.74219,-10.708985 -0.95704,-1.103515 c -1.32367,-1.52762 -5.21938,-5.277418 -7.32226,-7.048828 -7.9324,-6.68212 -16.8661,-11.717618 -26.54102,-14.960938 -2.6123,-0.87572 -8.92,-2.523437 -9.66015,-2.523437 h -0.45117 l 0.006,0.07422 z"/>
  <path style="fill:#fc3f1d" d="M 111 17.291016 L 111 73.550781 C 106.56004 70.583895 101.34001 69.000215 96 69 C 81.088312 69 69 81.088312 69 96 C 69 110.91169 81.088312 123 96 123 C 110.91169 123 123 110.91169 123 96 L 123 46.876953 L 125.2168 47.994141 C 131.26967 51.684711 137.56974 57.504196 141.40234 62.947266 C 141.93706 63.706676 142.42854 64.330938 142.49414 64.335938 C 142.55972 64.340578 145.64735 59.526259 149.35547 53.636719 L 156.09766 42.927734 L 155.14062 41.824219 C 153.81695 40.296599 149.92124 36.546801 147.81836 34.775391 C 139.88596 28.093271 130.95226 23.057773 121.27734 19.814453 C 118.66504 18.938733 112.35734 17.291016 111.61719 17.291016 L 111.16602 17.291016 L 111.17188 17.365234 L 111 17.291016 z "/>
  <path style="opacity:0.2;fill:#ffffff" d="M 89 16.5 C 47.762993 20.122009 16.099961 54.604351 16 96 C 16.01181 96.172566 16.024179 96.345093 16.037109 96.517578 C 16.383468 55.320295 47.960832 21.122544 89 17.5 L 89 16.5 z M 171.16992 68.816406 L 162.08203 76.164062 A 69 69 0 0 1 162.30859 76.980469 L 171.16992 69.816406 C 174.27055 78.359667 175.89272 87.368813 175.9668 96.457031 C 175.9783 96.304719 175.98937 96.152375 176 96 C 175.9775 86.727355 174.34318 77.529205 171.16992 68.816406 z "/>
  <path style="opacity:0.2;fill:#ffffff" d="m 111,17.291016 v 1 l 0.17188,0.07422 -0.006,-0.07422 h 0.45117 c 0.74015,0 7.04785,1.647717 9.66015,2.523437 9.67492,3.24332 18.60862,8.278818 26.54102,14.960938 2.10288,1.77141 5.9986,5.521208 7.32226,7.048828 l 0.5918,0.683593 0.36524,-0.580078 -0.95704,-1.103515 c -1.32367,-1.52762 -5.21938,-5.277418 -7.32226,-7.048828 -7.9324,-6.68212 -16.8661,-11.717618 -26.54102,-14.960938 -2.6123,-0.87572 -8.92,-2.523437 -9.66015,-2.523437 h -0.45117 l 0.006,0.07422 z"/>
</svg>
