<?xml version='1.0' encoding='utf-8'?>
<svg xmlns="http://www.w3.org/2000/svg" width="192" height="192" version="1" id="svg40">
  <defs>
    <filter style="color-interpolation-filters:sRGB" id="filter897" x="-0.060000002" width="1.12" y="-0.040000002" height="1.08">
      <feGaussianBlur stdDeviation="2.4"/>
    </filter>
    <filter style="color-interpolation-filters:sRGB" id="filter921" x="-0.072887427" width="1.1457749" y="-0.03578217" height="1.0715643">
      <feGaussianBlur stdDeviation="1.0138282"/>
    </filter>
    <filter style="color-interpolation-filters:sRGB" id="filter925" x="-0.063375002" width="1.12675" y="-0.038628572" height="1.0772571">
      <feGaussianBlur stdDeviation="1.69"/>
    </filter>
  </defs>
  <rect style="filter:url(#filter897);opacity:0.2;fill:#000000" width="96" height="144" x="-168" y="-168" rx="8" ry="8" transform="matrix(0,-1,-1,0,0,0)"/>
  <rect transform="matrix(0,-1,-1,0,0,0)" ry="8" rx="8" y="-168" x="-164" height="144" width="96" style="fill:#e4e4e4"/>
  <path style="fill:#bebebe" d="m 36,84 c -2.216,0 -4,1.784 -4,4 v 8 c 0,2.216 1.784,4 4,4 h 8 c 2.216,0 4,-1.784 4,-4 v -8 c 0,-2.216 -1.784,-4 -4,-4 z m 24,0 c -2.216,0 -4,1.784 -4,4 v 8 c 0,2.216 1.784,4 4,4 h 8 c 2.216,0 4,-1.784 4,-4 v -8 c 0,-2.216 -1.784,-4 -4,-4 z m 64,0 c -2.216,0 -4,1.784 -4,4 v 8 c 0,2.216 1.784,4 4,4 h 8 c 2.216,0 4,-1.784 4,-4 v -8 c 0,-2.216 -1.784,-4 -4,-4 z m 24,0 c -2.216,0 -4,1.784 -4,4 v 8 c 0,2.216 1.784,4 4,4 h 8 c 2.216,0 4,-1.784 4,-4 v -8 c 0,-2.216 -1.784,-4 -4,-4 z M 44,116 c -2.216,0 -4,1.784 -4,4 v 8 c 0,2.216 1.784,4 4,4 h 8 c 2.216,0 4,-1.784 4,-4 v -8 c 0,-2.216 -1.784,-4 -4,-4 z m 24,0 c -2.216,0 -4,1.784 -4,4 v 8 c 0,2.216 1.784,4 4,4 h 8 c 2.216,0 4,-1.784 4,-4 v -8 c 0,-2.216 -1.784,-4 -4,-4 z m 24,0 c -2.216,0 -4,1.784 -4,4 v 8 c 0,2.216 1.784,4 4,4 h 8 c 2.216,0 4,-1.784 4,-4 v -8 c 0,-2.216 -1.784,-4 -4,-4 z m 24,0 c -2.216,0 -4,1.784 -4,4 v 8 c 0,2.216 1.784,4 4,4 h 8 c 2.216,0 4,-1.784 4,-4 v -8 c 0,-2.216 -1.784,-4 -4,-4 z m 24,0 c -2.216,0 -4,1.784 -4,4 v 8 c 0,2.216 1.784,4 4,4 h 8 c 2.216,0 4,-1.784 4,-4 v -8 c 0,-2.216 -1.784,-4 -4,-4 z M 40,140 c -2.216,0 -4,1.784 -4,4 v 8 c 0,2.216 1.784,4 4,4 h 112 c 2.216,0 4,-1.784 4,-4 v -8 c 0,-2.216 -1.784,-4 -4,-4 z"/>
  <path d="m 32,68 c -4.432,0 -8,3.568 -8,8 v 2 c 0,-4.432 3.568,-8 8,-8 h 128 c 4.432,0 8,3.568 8,8 v -2 c 0,-4.432 -3.568,-8 -8,-8 z" style="opacity:0.1;fill:#ffffff"/>
  <path style="filter:url(#filter925);opacity:0.2;fill:#000000" d="m 76,17.999999 c -6.648,0 -12,5.352 -12,12 V 102 c 0,6.648 5.352,12 12,12 h 9.314453 c 4.884766,0 7.824714,6.13917 10.685547,9 2.860833,-2.86083 5.80078,-9 10.68555,-9 H 116 c 6.648,0 12,-5.352 12,-12 V 29.999999 c 0,-6.648 -5.352,-12 -12,-12 H 96 Z"/>
  <path style="fill:#ff4242" d="m 76,16 c -6.648,0 -12,5.352 -12,12 v 72 c 0,6.648 5.352,12 12,12 h 9.314453 c 4.884766,0 7.824714,6.13917 10.685547,9 2.860833,-2.86083 5.80078,-9 10.68555,-9 H 116 c 6.648,0 12,-5.352 12,-12 V 28 c 0,-6.648 -5.352,-12 -12,-12 H 96 Z"/>
  <path style="filter:url(#filter921);opacity:0.2;fill:#000000" d="M 101.78516,29.999814 C 91.068772,29.999814 82,37.132552 82,51.398252 c 0,10.17618 4.043023,15.691072 10.017578,18.734374 L 79.308594,97.999814 H 87.75 l 11.568359,-26 H 105 v 26 h 7.69141 v -68 z m -0.26954,6 H 105 v 30 h -3.48438 C 95.19194,65.999814 90,62.442067 90,51.38458 90,39.942236 95.663836,35.999814 101.51562,35.999814 Z"/>
  <path style="fill:#ffffff" d="M 101.78516,29 C 91.068772,29 82,36.132738 82,50.398438 82,60.574618 86.043023,66.08951 92.017578,69.132812 L 79.308594,97 H 87.75 L 99.318359,71 H 105 v 26 h 7.69141 V 29 Z m -0.26954,6 H 105 v 30 h -3.48438 C 95.19194,65 90,61.442253 90,50.384766 90,38.942422 95.663836,35 101.51562,35 Z"/>
  <path style="opacity:0.2;fill:#ffffff" d="m 76,16 c -6.648,0 -12,5.352 -12,12 v 1 c 0,-6.648 5.352,-12 12,-12 h 20 20 c 6.648,0 12,5.352 12,12 v -1 c 0,-6.648 -5.352,-12 -12,-12 H 96 Z"/>
</svg>
