<svg xmlns="http://www.w3.org/2000/svg" id="svg12" width="192" height="192" version="1"><defs><filter style="color-interpolation-filters:sRGB" id="filter881" width="1.09" height="1.1" x=".05" y=".05"><feGaussianBlur stdDeviation="2.21"/></filter><filter style="color-interpolation-filters:sRGB" id="filter890" width="1.1" height="1.1" x=".05" y=".05"><feGaussianBlur stdDeviation="3.2"/></filter></defs><path style="filter:url(#filter890);opacity:.2;fill:#000" d="m 134.78,20.00 c 0.65,0.00 -1.30,0.01 -1.96,0.04 L 52.18,23.64 C 31.22,24.58 15.10,42.21 16.04,63.17 l 0.10,2.13 3.51,78.52 c 0.94,20.96 18.57,37.08 39.53,36.14 l 78.73,-3.52 c 0.00,0.00 0.01,0.00 0.01,0 1.18,0.02 1.91,0.09 1.91,0.09 20.96,0.94 37.08,-18.57 36.14,-39.53 l -3.61,-80.65 C 171.45,35.88 154.87,20.11 134.78,20.00 Z"/><path style="fill:#45e2f4" d="m 52.18,19.65 80.65,-3.61 c 20.96,0.94 38.59,15.18 39.53,36.14 l 3.61,80.65 c 0.94,20.96 -15.18,38.59 -36.14,39.53 L 62.14,155.58 C 41.63,151.14 39.86,133.62 33.46,113.64 L 16.04,59.17 C 15.10,38.21 31.22,20.58 52.18,19.65 Z"/><path style="fill:#0095c8" d="m 58.09,89.50 35.01,6.32 c 20.65,3.73 1.78,6.73 9.51,26.23 l 11.52,29.05 c 9.54,24.04 25.67,21.26 25.67,21.26 l -80.65,3.61 C 38.21,176.90 20.58,160.78 19.65,139.82 l -3.51,-78.52 0.10,-2.13 c 0,0 2.56,12.66 7.77,17.82 8.13,8.06 21.70,10.23 34.28,12.50 z"/><path style="filter:url(#filter881);opacity:.2;fill:#000" d="m 16.30,65.07 0.08,1.74 c 5.96,40.30 67.33,92.55 105.48,106.35 l 7.56,0.34 c -3.85,-1.71 -7.14,-4.61 -8.66,-9.94 -2.35,-2.95 -4.63,-6.78 -6.61,-11.78 L 102.62,122.05 C 94.88,102.54 113.76,99.54 93.11,95.82 L 58.09,89.50 C 47.30,87.55 35.79,85.67 27.61,80.09 21.43,77.64 18.67,71.56 16.30,65.07 Z"/><path style="fill:#fff" d="M 16.10,60.52 C 20.51,106.50 100.74,169.67 135.87,172.53 l 3.95,0.18 c 1.22,0.05 2.42,0.17 3.60,0.34 -8.33,-1.62 -21.46,-1.50 -23.35,-16.51 -2.94,-18.26 -3.93,-36.85 -11.50,-52.89 C 93.56,70.85 58.14,82.11 29.42,76.69 21.75,74.74 18.74,67.83 16.10,60.52 Z"/><path style="opacity:.2;fill:#fff" d="m 134.78,16 c 0.65,0.00 -1.30,0.01 -1.96,0.04 L 52.18,19.64 C 31.67,20.56 15.81,37.46 16.01,57.83 16.33,37.91 32.01,21.55 52.18,20.64 l 80.65,-3.61 c 20.96,0.94 38.59,15.18 39.53,36.14 l 3.61,80.65 c 0.02,0.45 0.02,0.90 0.03,1.34 0.01,0.78 0.01,-1.56 0.03,-2.34 L 172.36,52.18 C 171.45,31.88 154.87,16.11 134.78,16 Z"/></svg>