<svg xmlns="http://www.w3.org/2000/svg" id="svg12" width="192" height="192" version="1"><defs><filter style="color-interpolation-filters:sRGB" id="filter877" width="1.1" height="1.1" x=".05" y=".05"><feGaussianBlur stdDeviation="2.6"/></filter><filter style="color-interpolation-filters:sRGB" id="filter890" width="1.1" height="1.1" x=".05" y=".05"><feGaussianBlur stdDeviation="2.74"/></filter><filter style="color-interpolation-filters:sRGB" id="filter900" width="1.09" height="1.1" x=".05" y=".05"><feGaussianBlur stdDeviation="1.61"/></filter></defs><path style="filter:url(#filter900);opacity:.2;fill:#000" d="m 91.89,37.99 c 0.63,0.05 -1.33,0.43 -2.27,1.11 -6.16,4.77 -10.04,10.17 -12.98,15.83 l 13.58,7.91 c 3.72,-4.51 7.47,-8.02 11.16,-14.03 0.91,-1.51 0.82,-2.29 0.36,-3.34 l -7.24,-6.67 c 0.69,0.60 -1.26,0.86 -1.89,0.81 z m 57.06,53.97 c 0.51,0.06 -1.09,0.15 -1.84,0.60 -6.01,3.68 -9.52,7.44 -14.03,11.16 l 7.92,13.58 c 5.66,-2.94 11.06,-6.83 15.83,-12.98 1.35,-1.89 1.49,-2.78 0.30,-4.16 l -6.67,-7.24 c 0.52,0.59 0.98,0.90 -1.49,0.96 z"/><path style="fill:#fc0" d="m 157.12,98.16 -6.67,-7.24 c -1.04,-1.17 -1.82,-1.26 -3.34,0.36 -6.01,3.68 -9.52,7.44 -14.03,11.16 l 7.91,13.58 c 5.66,-2.94 11.06,-6.83 15.83,-12.99 1.35,-1.89 1.49,-2.78 0.30,-4.16 z"/><path style="fill:#fc0" d="m 93.78,36.80 7.24,6.67 c 1.17,1.04 1.26,1.82 0.36,3.34 -3.68,6.01 -7.44,9.52 -11.16,14.03 L 76.63,52.92 c 2.94,-5.66 6.83,-11.06 12.99,-15.83 1.89,-1.35 2.78,-1.49 4.16,0.30 z"/><path style="filter:url(#filter890);opacity:.2;fill:#000" d="M 33.46,42.74 27.77,49.63 92.76,89.69 118.47,62.14 Z m 99.86,32.98 -27.76,26.58 41.44,65.92 5.57,-6.57 z M 18.80,120.98 16,124.37 47.97,144.08 61.15,126.81 Z M 69.70,134.38 50.82,146.81 71.68,180 l 2.80,-3.31 z"/><path style="fill:#666" d="M 152.57,157.65 133.31,71.72 105.55,98.30 147.00,164.22 Z"/><path style="fill:#666" d="M 33.45,38.74 118.47,58.14 92.76,85.69 27.77,45.63 Z"/><path style="fill:#666" d="M 18.80,116.98 61.15,122.81 47.97,140.08 16,120.37 Z"/><path style="fill:#666" d="M 74.49,172.69 69.70,130.38 50.82,142.81 71.68,176 Z"/><path style="filter:url(#filter877);opacity:.2;fill:#000" d="m 64.45,110.83 c 0,0 -24.75,27.80 -16.92,35.63 7.83,7.83 35.72,-16.84 35.72,-16.84 l 37.19,-37.19 37.19,-37.19 c 0,0 24.67,-27.88 16.84,-35.72 -7.83,-7.83 -35.63,16.92 -35.63,16.92 l -37.19,37.19 z"/><path style="fill:#fc0" d="m 64.45,108.83 c 0,0 -24.75,27.80 -16.92,35.63 7.83,7.83 35.72,-16.84 35.72,-16.84 l 37.19,-37.19 37.19,-37.19 c 0,0 24.67,-27.88 16.84,-35.72 -7.83,-7.83 -35.63,16.92 -35.63,16.92 l -37.19,37.19 z"/></svg>