<?xml version='1.0' encoding='utf-8'?>
<svg xmlns="http://www.w3.org/2000/svg" width="192" height="192" version="1" id="svg14">
  <defs>
    <filter style="color-interpolation-filters:sRGB" id="filter850" x="0.05" width="1.10" y="0.05" height="1.10">
      <feGaussianBlur stdDeviation="3.20"/>
    </filter>
    <filter style="color-interpolation-filters:sRGB" id="filter899" x="0.05" width="1.10" y="0.05" height="1.10">
      <feGaussianBlur stdDeviation="3.05"/>
    </filter>
  </defs>
  <rect width="160" height="160" x="-180" y="-176" rx="80" ry="80" transform="matrix(0,-1,-1,0,0,0)" style="filter:url(#filter850);opacity:0.20;fill:#000000"/>
  <rect style="fill:#e4e4e4" transform="matrix(0,-1,-1,0,0,0)" ry="80" rx="80" y="-176" x="-176" height="160" width="160"/>
  <path style="opacity:0.20;fill:#ffffff" d="M 96.00 16 C 51.68 16.00 16 51.68 16 96 C 16 96.12 16.01 96.23 16.01 96.34 C 16.36 52.33 51.90 17.00 96.00 17 L 96 17 C 140.11 17.00 175.65 52.34 175.99 96.36 C 175.99 96.24 176.00 96.12 176.00 96 C 176.00 51.68 140.32 16.00 96 16 L 96.00 16 z "/>
  <path style="filter:url(#filter899);opacity:0.20;fill:#000000;color:#000000;font-stretch:normal;font-variant-ligatures:normal;font-variant-position:normal;font-variant-caps:normal;font-variant-numeric:normal;font-variant-alternates:normal;font-feature-settings:normal;text-indent:0;text-align:start;text-decoration-line:none;text-decoration-style:solid;text-decoration-color:#000000;text-transform:none;writing-mode:lr-tb;direction:ltr;text-orientation:mixed;dominant-baseline:auto;baseline-shift:baseline;white-space:normal;shape-padding:0;clip-rule:nonzero;display:inline;overflow:visible;visibility:visible;isolation:auto;mix-blend-mode:normal;color-interpolation:sRGB;color-interpolation-filters:linearRGB;solid-color:#000000;solid-opacity:1;vector-effect:none;fill-rule:nonzero;color-rendering:auto;image-rendering:auto;shape-rendering:auto;text-rendering:auto;enable-background:accumulate" d="M 36.28,35.86 A 16.00,16.00 0 0 0 25.52,64.09 L 80,111.31 V 172 a 16.00,16.00 0 1 0 32,0 V 111.31 L 166.48,64.09 A 16.00,16.00 0 1 0 145.52,39.91 L 96,82.83 46.48,39.91 A 16.00,16.00 0 0 0 36.28,35.86 Z"/>
  <path d="M 96,168 V 100 M 36,48 96,100 156,48" style="fill:none;stroke:#e34241;stroke-width:32;stroke-linecap:round;stroke-linejoin:round"/>
</svg>
